<svg xmlns="http://www.w3.org/2000/svg" width="3072" height="3072" viewBox="0 0 3072 3072">
  <title>QuartzOS System Icon 055 - accessibility_03</title>
  <defs><linearGradient id="bg1054" x1="0%" y1="0%" x2="100%" y2="100%"><stop offset="0%" stop-color="#FF9F43" /><stop offset="26%" stop-color="#53E3A6" /><stop offset="56%" stop-color="#3B82FF" /><stop offset="78%" stop-color="#58A3D8" /><stop offset="100%" stop-color="#1D2F45" /></linearGradient><radialGradient id="sun1054" cx="46%" cy="13%" r="88%"><stop offset="0%" stop-color="#FFFFFF" stop-opacity="0.62" /><stop offset="30%" stop-color="#8A5CFF" stop-opacity="0.35" /><stop offset="100%" stop-color="#8A5CFF" stop-opacity="0" /></radialGradient><linearGradient id="glass1054" x1="0%" y1="0%" x2="0%" y2="100%"><stop offset="0%" stop-color="#FFFFFF" stop-opacity="0.70" /><stop offset="46%" stop-color="#FFFFFF" stop-opacity="0.26" /><stop offset="100%" stop-color="#FFFFFF" stop-opacity="0.00" /></linearGradient><linearGradient id="ribbon1054" x1="0%" y1="0%" x2="100%" y2="0%"><stop offset="0%" stop-color="#FF9F43" stop-opacity="0.18" /><stop offset="34%" stop-color="#53E3A6" stop-opacity="0.72" /><stop offset="66%" stop-color="#3B82FF" stop-opacity="0.72" /><stop offset="100%" stop-color="#8A5CFF" stop-opacity="0.18" /></linearGradient><radialGradient id="orb1054" cx="34%" cy="27%" r="74%"><stop offset="0%" stop-color="#FFFFFF" stop-opacity="0.84" /><stop offset="30%" stop-color="#FF9F43" stop-opacity="0.52" /><stop offset="68%" stop-color="#53E3A6" stop-opacity="0.42" /><stop offset="100%" stop-color="#3B82FF" stop-opacity="0.20" /></radialGradient><linearGradient id="extrude1054" x1="0%" y1="0%" x2="0%" y2="100%"><stop offset="0%" stop-color="#15283C" stop-opacity="0.45" /><stop offset="100%" stop-color="#08131D" stop-opacity="0.06" /></linearGradient><linearGradient id="symbol1054" x1="0%" y1="0%" x2="100%" y2="100%"><stop offset="0%" stop-color="#FFFFFF" /><stop offset="100%" stop-color="#8A5CFF" /></linearGradient><filter id="shadow1054" x="-40%" y="-40%" width="180%" height="180%"><feDropShadow dx="0" dy="49" stdDeviation="86" flood-color="#06111A" flood-opacity="0.54" /></filter><filter id="soft1054" x="-40%" y="-40%" width="180%" height="180%"><feDropShadow dx="0" dy="0" stdDeviation="14" flood-color="#FF9F43" flood-opacity="0.45" /></filter><filter id="grain1054"><feTurbulence type="fractalNoise" baseFrequency="0.650" numOctaves="2" seed="1054" /><feColorMatrix type="saturate" values="0" /><feComponentTransfer><feFuncA type="table" tableValues="0 0.09" /></feComponentTransfer></filter></defs>
  <rect x="138" y="138" width="2796" height="2796" rx="629" fill="url(#bg1054)" filter="url(#shadow1054)" />
  <rect x="138" y="138" width="2796" height="2796" rx="629" fill="url(#sun1054)" />
  <g><circle cx="1807" cy="1024" r="71" fill="#FFFFFF" opacity="0.098" /><circle cx="2533" cy="1852" r="101" fill="#FFFFFF" opacity="0.155" /><circle cx="607" cy="911" r="100" fill="#FFFFFF" opacity="0.173" /><circle cx="1374" cy="397" r="71" fill="#FFFFFF" opacity="0.101" /><circle cx="626" cy="2301" r="39" fill="#FFFFFF" opacity="0.230" /><circle cx="2588" cy="1160" r="133" fill="#FFFFFF" opacity="0.225" /><circle cx="2697" cy="1982" r="51" fill="#FFFFFF" opacity="0.131" /><circle cx="2057" cy="1787" r="156" fill="#FFFFFF" opacity="0.211" /><circle cx="1930" cy="886" r="75" fill="#FFFFFF" opacity="0.086" /><circle cx="1964" cy="332" r="68" fill="#FFFFFF" opacity="0.233" /><circle cx="706" cy="2502" r="125" fill="#FFFFFF" opacity="0.133" /><circle cx="2260" cy="1240" r="147" fill="#FFFFFF" opacity="0.141" /><circle cx="796" cy="1256" r="159" fill="#FFFFFF" opacity="0.214" /><circle cx="1617" cy="1701" r="42" fill="#FFFFFF" opacity="0.151" /><circle cx="2644" cy="1590" r="141" fill="#FFFFFF" opacity="0.124" /><circle cx="862" cy="1519" r="65" fill="#FFFFFF" opacity="0.151" /><circle cx="2446" cy="653" r="55" fill="#FFFFFF" opacity="0.060" /><circle cx="1887" cy="556" r="100" fill="#FFFFFF" opacity="0.139" /><circle cx="1060" cy="1687" r="105" fill="#FFFFFF" opacity="0.143" /><circle cx="2034" cy="512" r="58" fill="#FFFFFF" opacity="0.182" /><circle cx="1379" cy="616" r="123" fill="#FFFFFF" opacity="0.180" /><circle cx="2639" cy="1465" r="145" fill="#FFFFFF" opacity="0.067" /><circle cx="1195" cy="925" r="37" fill="#FFFFFF" opacity="0.198" /><circle cx="1375" cy="366" r="107" fill="#FFFFFF" opacity="0.093" /><circle cx="2530" cy="1745" r="153" fill="#FFFFFF" opacity="0.139" /><circle cx="1081" cy="1051" r="129" fill="#FFFFFF" opacity="0.112" /><circle cx="2458" cy="2256" r="39" fill="#FFFFFF" opacity="0.144" /><circle cx="2403" cy="2250" r="91" fill="#FFFFFF" opacity="0.074" /></g>
  <g><path d="M 202.7 569.6 L 2710.8 293.2 L 2710.8 766.4 L 202.7 1042.9 Z" fill="#FFFFFF" opacity="0.140" /><path d="M 314.9 891.4 L 2716.2 614.9 L 2716.2 1051.1 L 314.9 1327.6 Z" fill="#FFFFFF" opacity="0.128" /><path d="M 200.1 1150.6 L 2923.7 874.1 L 2923.7 1318.7 L 200.1 1595.2 Z" fill="#FFFFFF" opacity="0.167" /><path d="M 377.8 1405.9 L 2901.8 1129.5 L 2901.8 1626.7 L 377.8 1903.2 Z" fill="#FFFFFF" opacity="0.230" /><path d="M 384.8 1694.8 L 2869.5 1418.3 L 2869.5 1910.2 L 384.8 2186.6 Z" fill="#FFFFFF" opacity="0.127" /><path d="M 330.2 1912.0 L 2785.1 1635.5 L 2785.1 2075.6 L 330.2 2352.1 Z" fill="#FFFFFF" opacity="0.193" /><path d="M 246.6 2222.1 L 2825.8 1945.7 L 2825.8 2410.2 L 246.6 2686.6 Z" fill="#FFFFFF" opacity="0.140" /><path d="M 297.8 2404.6 L 2854.3 2128.1 L 2854.3 2562.4 L 297.8 2838.8 Z" fill="#FFFFFF" opacity="0.166" /></g>
  <g filter="url(#soft1054)"><g transform="rotate(-9.69 1536.0 1536.0)"><path d="M-368.6 497.4 C -225.8 498.7, -25.8 496.2, 107.5 458.5 C 250.4 472.4, 450.4 529.1, 583.7 442.1 C 726.5 463.8, 926.5 544.1, 1059.8 459.1 C 1202.7 472.5, 1402.7 533.6, 1536.0 499.4 C 1678.8 499.9, 1878.8 496.0, 2012.2 538.4 C 2155.0 534.0, 2355.0 455.2, 2488.3 552.5 C 2631.2 568.1, 2831.2 437.8, 2964.5 533.2 C 3107.3 529.2, 3307.3 486.1, 3440.6 492.1" fill="none" stroke="url(#ribbon1054)" stroke-width="58.4" stroke-linecap="round" stroke-opacity="0.120" /></g><g transform="rotate(-9.11 1536.0 1536.0)"><path d="M-368.6 738.3 C -241.7 791.0, -63.9 677.4, 54.6 793.2 C 181.6 814.3, 359.4 703.7, 477.9 755.3 C 604.8 759.5, 782.6 722.6, 901.1 707.1 C 1028.1 698.8, 1205.9 756.9, 1324.4 677.8 C 1451.3 696.1, 1629.1 790.1, 1747.6 685.2 C 1874.6 664.4, 2052.4 799.0, 2170.9 724.8 C 2297.9 729.2, 2475.6 753.2, 2594.1 772.5 C 2721.1 765.1, 2898.9 699.1, 3017.4 799.5 C 3144.4 787.1, 3322.1 665.5, 3440.6 789.4" fill="none" stroke="url(#ribbon1054)" stroke-width="54.4" stroke-linecap="round" stroke-opacity="0.146" /></g><g transform="rotate(-8.53 1536.0 1536.0)"><path d="M-368.6 885.9 C -254.4 944.4, -94.4 841.1, 12.3 955.3 C 126.6 939.6, 286.6 824.6, 393.2 934.5 C 507.5 944.0, 667.5 851.4, 774.1 884.2 C 888.4 884.0, 1048.4 887.9, 1155.1 834.9 C 1269.4 820.5, 1429.3 935.8, 1536.0 816.5 C 1650.3 795.2, 1810.3 916.8, 1916.9 840.2 C 2031.2 828.8, 2191.2 901.1, 2297.9 891.6 C 2412.1 892.6, 2572.1 884.0, 2678.8 939.5 C 2793.1 926.4, 2953.1 846.7, 3059.7 954.9 C 3174.0 967.3, 3334.0 807.1, 3440.6 928.4" fill="none" stroke="url(#ribbon1054)" stroke-width="50.4" stroke-linecap="round" stroke-opacity="0.172" /></g><g transform="rotate(-7.95 1536.0 1536.0)"><path d="M-368.6 1086.8 C -264.8 1099.6, -119.3 1082.1, -22.3 1042.9 C 81.5 1035.1, 227.0 1133.0, 324.0 1011.3 C 427.8 1004.4, 573.3 1168.8, 670.3 1025.5 C 774.1 1028.8, 919.6 1159.9, 1016.6 1077.0 C 1120.4 1073.5, 1265.9 1091.5, 1362.9 1134.4 C 1466.7 1131.9, 1612.2 1044.9, 1709.1 1162.9 C 1813.0 1138.9, 1958.5 1055.0, 2055.4 1145.4 C 2159.3 1136.4, 2304.8 1031.6, 2401.7 1092.3 C 2505.6 1094.1, 2651.1 1084.8, 2748.0 1035.9 C 2851.9 1044.9, 2997.4 1126.1, 3094.3 1010.4 C 3198.2 1039.5, 3343.7 1175.6, 3440.6 1031.3" fill="none" stroke="url(#ribbon1054)" stroke-width="46.4" stroke-linecap="round" stroke-opacity="0.198" /></g><g transform="rotate(-7.37 1536.0 1536.0)"><path d="M-368.6 1305.2 C -273.4 1286.2, -140.1 1334.1, -51.2 1229.0 C 44.0 1213.1, 177.4 1346.6, 266.2 1227.6 C 361.5 1233.7, 494.8 1370.1, 583.7 1273.3 C 678.9 1263.6, 812.2 1335.0, 901.1 1338.4 C 996.4 1341.2, 1129.7 1290.1, 1218.6 1383.3 C 1313.8 1379.2, 1447.1 1215.2, 1536.0 1380.9 C 1631.2 1391.9, 1764.6 1264.7, 1853.4 1332.6 C 1948.7 1334.6, 2082.0 1280.0, 2170.9 1267.6 C 2266.1 1255.5, 2399.4 1318.2, 2488.3 1225.5 C 2583.6 1246.6, 2716.9 1359.2, 2805.8 1231.7 C 2901.0 1244.8, 3034.3 1338.6, 3123.2 1282.5 C 3218.4 1287.9, 3351.8 1332.0, 3440.6 1347.1" fill="none" stroke="url(#ribbon1054)" stroke-width="42.4" stroke-linecap="round" stroke-opacity="0.224" /></g><g transform="rotate(-6.79 1536.0 1536.0)"><path d="M-368.6 1485.8 C -225.8 1473.1, -25.8 1498.2, 107.5 1410.6 C 250.4 1415.4, 450.4 1551.9, 583.7 1397.1 C 726.5 1391.3, 926.5 1524.6, 1059.8 1437.4 C 1202.7 1451.1, 1402.7 1517.3, 1536.0 1507.1 C 1678.8 1502.1, 1878.8 1465.3, 2012.2 1563.8 C 2155.0 1552.8, 2355.0 1444.8, 2488.3 1573.3 C 2631.2 1540.3, 2831.2 1408.0, 2964.5 1529.7 C 3107.3 1537.7, 3307.3 1452.1, 3440.6 1459.5" fill="none" stroke="url(#ribbon1054)" stroke-width="38.4" stroke-linecap="round" stroke-opacity="0.250" /></g><g transform="rotate(-6.21 1536.0 1536.0)"><path d="M-368.6 1705.7 C -241.7 1700.7, -63.9 1707.2, 54.6 1632.6 C 181.6 1653.1, 359.4 1732.6, 477.9 1608.3 C 604.8 1583.2, 782.6 1772.4, 901.1 1643.0 C 1028.1 1628.8, 1205.9 1725.0, 1324.4 1715.8 C 1451.3 1714.7, 1629.1 1695.0, 1747.6 1782.4 C 1874.6 1784.5, 2052.4 1681.5, 2170.9 1802.5 C 2297.9 1767.4, 2475.6 1608.1, 2594.1 1763.9 C 2721.1 1765.1, 2898.9 1657.3, 3017.4 1689.9 C 3144.4 1687.2, 3322.1 1718.1, 3440.6 1625.5" fill="none" stroke="url(#ribbon1054)" stroke-width="34.4" stroke-linecap="round" stroke-opacity="0.276" /></g><g transform="rotate(-5.63 1536.0 1536.0)"><path d="M-368.6 1846.1 C -254.4 1833.1, -94.4 1850.7, 12.3 1762.8 C 126.6 1732.2, 286.6 1923.9, 393.2 1742.5 C 507.5 1719.4, 667.5 1933.6, 774.1 1785.1 C 888.4 1802.4, 1048.4 1867.0, 1155.1 1864.7 C 1269.4 1869.6, 1429.3 1836.0, 1536.0 1933.0 C 1650.3 1906.0, 1810.3 1786.5, 1916.9 1948.6 C 2031.2 1916.8, 2191.2 1775.5, 2297.9 1902.1 C 2412.1 1923.7, 2572.1 1827.6, 2678.8 1821.5 C 2793.1 1814.4, 2953.1 1866.4, 3059.7 1756.0 C 3174.0 1735.0, 3334.0 1918.2, 3440.6 1745.1" fill="none" stroke="url(#ribbon1054)" stroke-width="30.4" stroke-linecap="round" stroke-opacity="0.302" /></g><g transform="rotate(-5.05 1536.0 1536.0)"><path d="M-368.6 2109.2 C -264.8 2087.7, -119.3 2116.6, -22.3 2170.5 C 81.5 2173.4, 227.0 2074.5, 324.0 2219.0 C 427.8 2188.7, 573.3 2054.6, 670.3 2200.8 C 774.1 2229.2, 919.6 2060.6, 1016.6 2127.1 C 1120.4 2126.1, 1265.9 2100.0, 1362.9 2042.5 C 1466.7 2041.8, 1612.2 2165.9, 1709.1 1998.3 C 1813.0 2031.7, 1958.5 2154.1, 2055.4 2021.4 C 2159.3 1994.1, 2304.8 2145.5, 2401.7 2097.7 C 2505.6 2097.6, 2651.1 2122.8, 2748.0 2181.0 C 2851.9 2157.2, 2997.4 2047.3, 3094.3 2220.7 C 3198.2 2227.9, 3343.7 2049.2, 3440.6 2192.7" fill="none" stroke="url(#ribbon1054)" stroke-width="26.4" stroke-linecap="round" stroke-opacity="0.328" /></g><g transform="rotate(-4.47 1536.0 1536.0)"><path d="M-368.6 2315.7 C -273.4 2247.0, -140.1 2359.8, -51.2 2332.6 C 44.0 2336.4, 177.4 2306.3, 266.2 2411.9 C 361.5 2405.0, 494.8 2258.3, 583.7 2432.9 C 678.9 2471.6, 812.2 2264.1, 901.1 2382.8 C 996.4 2392.2, 1129.7 2265.3, 1218.6 2292.0 C 1313.8 2283.2, 1447.1 2333.9, 1536.0 2215.6 C 1631.2 2229.6, 1764.6 2393.4, 1853.4 2200.0 C 1948.7 2224.7, 2082.0 2415.6, 2170.9 2254.5 C 2266.1 2257.8, 2399.4 2376.3, 2488.3 2346.2 C 2583.6 2354.1, 2716.9 2299.0, 2805.8 2419.4 C 2901.0 2421.4, 3034.3 2277.4, 3123.2 2429.7 C 3218.4 2438.6, 3351.8 2276.5, 3440.6 2370.9" fill="none" stroke="url(#ribbon1054)" stroke-width="22.4" stroke-linecap="round" stroke-opacity="0.354" /></g><g transform="rotate(-3.89 1536.0 1536.0)"><path d="M-368.6 2442.0 C -225.8 2437.0, -25.8 2446.2, 107.5 2529.4 C 250.4 2504.8, 450.4 2399.4, 583.7 2567.9 C 726.5 2548.1, 926.5 2384.6, 1059.8 2530.0 C 1202.7 2514.3, 1402.7 2363.3, 1536.0 2438.7 C 1678.8 2437.6, 1878.8 2445.4, 2012.2 2349.4 C 2155.0 2344.5, 2355.0 2532.5, 2488.3 2316.2 C 2631.2 2289.2, 2831.2 2567.9, 2964.5 2359.3 C 3107.3 2362.0, 3307.3 2500.6, 3440.6 2452.6" fill="none" stroke="url(#ribbon1054)" stroke-width="18.4" stroke-linecap="round" stroke-opacity="0.380" /></g><g transform="rotate(-3.31 1536.0 1536.0)"><path d="M-368.6 2627.6 C -241.7 2575.8, -63.9 2657.7, 54.6 2677.2 C 181.6 2672.6, 359.4 2577.9, 477.9 2750.7 C 604.8 2703.7, 782.6 2537.8, 901.1 2749.5 C 1028.1 2784.9, 1205.9 2495.7, 1324.4 2674.4 C 1451.3 2681.3, 1629.1 2579.0, 1747.6 2570.9 C 1874.6 2562.8, 2052.4 2663.7, 2170.9 2501.8 C 2297.9 2460.9, 2475.6 2773.3, 2594.1 2509.0 C 2721.1 2542.5, 2898.9 2668.2, 3017.4 2588.2 C 3144.4 2601.6, 3322.1 2642.9, 3440.6 2691.3" fill="none" stroke="url(#ribbon1054)" stroke-width="14.4" stroke-linecap="round" stroke-opacity="0.406" /></g></g>
  <g><ellipse cx="1536.0" cy="1551.9" rx="728.6" ry="605.7" fill="url(#extrude1054)" opacity="0.220" /><ellipse cx="1536.0" cy="1567.7" rx="736.0" ry="610.9" fill="url(#extrude1054)" opacity="0.205" /><ellipse cx="1536.0" cy="1583.6" rx="743.4" ry="616.1" fill="url(#extrude1054)" opacity="0.190" /><ellipse cx="1536.0" cy="1599.5" rx="750.9" ry="621.3" fill="url(#extrude1054)" opacity="0.175" /><ellipse cx="1536.0" cy="1615.4" rx="758.3" ry="626.5" fill="url(#extrude1054)" opacity="0.160" /><ellipse cx="1536.0" cy="1631.2" rx="765.7" ry="631.7" fill="url(#extrude1054)" opacity="0.145" /><ellipse cx="1536.0" cy="1647.1" rx="773.2" ry="636.9" fill="url(#extrude1054)" opacity="0.130" /><ellipse cx="1536.0" cy="1663.0" rx="780.6" ry="642.1" fill="url(#extrude1054)" opacity="0.115" /><ellipse cx="1536.0" cy="1678.8" rx="788.0" ry="647.4" fill="url(#extrude1054)" opacity="0.100" /><ellipse cx="1536.0" cy="1694.7" rx="795.5" ry="652.6" fill="url(#extrude1054)" opacity="0.085" /><ellipse cx="1536.0" cy="1710.6" rx="802.9" ry="657.8" fill="url(#extrude1054)" opacity="0.070" /><ellipse cx="1536.0" cy="1726.5" rx="810.3" ry="663.0" fill="url(#extrude1054)" opacity="0.055" /></g>
  <ellipse cx="1536.0" cy="1726.5" rx="773.2" ry="214.9" fill="#0B1D2D" opacity="0.24" />
  <ellipse cx="1536.0" cy="1536.0" rx="743.4" ry="651.3" fill="url(#orb1054)" stroke="#FFFFFF" stroke-opacity="0.42" stroke-width="7" />
  <ellipse cx="1431.9" cy="1392.7" rx="505.5" ry="299.6" fill="#FFFFFF" opacity="0.25" />
  <path d="M 199.4 399.4 C 1013.8 -30.7, 2058.2 768.0, 2872.6 215.0 L 2872.6 983.0 C 2089.0 1228.8, 1013.8 307.2, 199.4 1167.4 Z" fill="url(#glass1054)" />
  <rect x="270" y="270" width="2532" height="2532" rx="430" fill="none" stroke="#FFFFFF" stroke-opacity="0.30" stroke-width="5" />
  <rect x="288.4" y="288.4" width="2495.1" height="2495.1" rx="399" fill="none" stroke="#FF9F43" stroke-opacity="0.35" stroke-width="3" />
  <g filter="url(#soft1054)"><rect x="2298" y="919" width="70" height="2" fill="#FFFFFF" opacity="0.600" /><rect x="2332" y="885" width="2" height="70" fill="#FFFFFF" opacity="0.600" /><rect x="757" y="288" width="78" height="2" fill="#FFFFFF" opacity="0.510" /><rect x="795" y="250" width="2" height="78" fill="#FFFFFF" opacity="0.510" /><rect x="1081" y="2676" width="62" height="2" fill="#FFFFFF" opacity="0.415" /><rect x="1111" y="2646" width="2" height="62" fill="#FFFFFF" opacity="0.415" /><rect x="2076" y="336" width="32" height="2" fill="#FFFFFF" opacity="0.791" /><rect x="2091" y="321" width="2" height="32" fill="#FFFFFF" opacity="0.791" /><rect x="1028" y="503" width="50" height="2" fill="#FFFFFF" opacity="0.640" /><rect x="1052" y="479" width="2" height="50" fill="#FFFFFF" opacity="0.640" /><rect x="1724" y="1993" width="74" height="2" fill="#FFFFFF" opacity="0.701" /><rect x="1760" y="1957" width="2" height="74" fill="#FFFFFF" opacity="0.701" /><rect x="2138" y="2422" width="40" height="2" fill="#FFFFFF" opacity="0.384" /><rect x="2157" y="2403" width="2" height="40" fill="#FFFFFF" opacity="0.384" /><rect x="2012" y="1770" width="74" height="2" fill="#FFFFFF" opacity="0.522" /><rect x="2048" y="1734" width="2" height="74" fill="#FFFFFF" opacity="0.522" /><rect x="1020" y="1381" width="58" height="2" fill="#FFFFFF" opacity="0.545" /><rect x="1048" y="1353" width="2" height="58" fill="#FFFFFF" opacity="0.545" /><rect x="479" y="646" width="66" height="2" fill="#FFFFFF" opacity="0.804" /><rect x="511" y="614" width="2" height="66" fill="#FFFFFF" opacity="0.804" /><rect x="1131" y="1791" width="26" height="2" fill="#FFFFFF" opacity="0.571" /><rect x="1143" y="1779" width="2" height="26" fill="#FFFFFF" opacity="0.571" /><rect x="1203" y="1091" width="36" height="2" fill="#FFFFFF" opacity="0.519" /><rect x="1220" y="1074" width="2" height="36" fill="#FFFFFF" opacity="0.519" /><rect x="935" y="870" width="40" height="2" fill="#FFFFFF" opacity="0.482" /><rect x="954" y="851" width="2" height="40" fill="#FFFFFF" opacity="0.482" /><rect x="1524" y="1707" width="78" height="2" fill="#FFFFFF" opacity="0.474" /><rect x="1562" y="1669" width="2" height="78" fill="#FFFFFF" opacity="0.474" /><rect x="774" y="383" width="56" height="2" fill="#FFFFFF" opacity="0.448" /><rect x="801" y="356" width="2" height="56" fill="#FFFFFF" opacity="0.448" /><rect x="2481" y="2125" width="28" height="2" fill="#FFFFFF" opacity="0.436" /><rect x="2494" y="2112" width="2" height="28" fill="#FFFFFF" opacity="0.436" /><rect x="2723" y="894" width="76" height="2" fill="#FFFFFF" opacity="0.683" /><rect x="2760" y="857" width="2" height="76" fill="#FFFFFF" opacity="0.683" /><rect x="1950" y="483" width="24" height="2" fill="#FFFFFF" opacity="0.406" /><rect x="1961" y="472" width="2" height="24" fill="#FFFFFF" opacity="0.406" /><rect x="1291" y="1225" width="54" height="2" fill="#FFFFFF" opacity="0.536" /><rect x="1317" y="1199" width="2" height="54" fill="#FFFFFF" opacity="0.536" /><rect x="1654" y="1146" width="66" height="2" fill="#FFFFFF" opacity="0.568" /><rect x="1686" y="1114" width="2" height="66" fill="#FFFFFF" opacity="0.568" /><rect x="2490" y="584" width="70" height="2" fill="#FFFFFF" opacity="0.655" /><rect x="2524" y="550" width="2" height="70" fill="#FFFFFF" opacity="0.655" /><rect x="2130" y="2437" width="54" height="2" fill="#FFFFFF" opacity="0.435" /><rect x="2156" y="2411" width="2" height="54" fill="#FFFFFF" opacity="0.435" /><rect x="1083" y="852" width="70" height="2" fill="#FFFFFF" opacity="0.505" /><rect x="1117" y="818" width="2" height="70" fill="#FFFFFF" opacity="0.505" /><rect x="888" y="2143" width="64" height="2" fill="#FFFFFF" opacity="0.510" /><rect x="919" y="2112" width="2" height="64" fill="#FFFFFF" opacity="0.510" /><rect x="1222" y="1475" width="38" height="2" fill="#FFFFFF" opacity="0.589" /><rect x="1240" y="1457" width="2" height="38" fill="#FFFFFF" opacity="0.589" /><rect x="1710" y="678" width="58" height="2" fill="#FFFFFF" opacity="0.405" /><rect x="1738" y="650" width="2" height="58" fill="#FFFFFF" opacity="0.405" /></g>
  <g opacity="0.52"><path d="M996 1582 C1316 1006, 1572 2158, 2148 1582" fill="none" stroke="#0C2030" stroke-width="90" /><circle cx="1188" cy="1582" r="109" fill="#0C2030" /><circle cx="1572" cy="1582" r="109" fill="#0C2030" /><circle cx="1956" cy="1582" r="109" fill="#0C2030" /></g>
  <g filter="url(#soft1054)"><path d="M960 1536 C1280 960, 1536 2112, 2112 1536" fill="none" stroke="url(#symbol1054)" stroke-width="90" /><circle cx="1152" cy="1536" r="109" fill="url(#symbol1054)" /><circle cx="1536" cy="1536" r="109" fill="url(#symbol1054)" /><circle cx="1920" cy="1536" r="109" fill="url(#symbol1054)" /></g>
  <rect x="138" y="138" width="2796" height="2796" rx="629" fill="#FFFFFF" filter="url(#grain1054)" opacity="0.18" />
</svg>
