<svg xmlns="http://www.w3.org/2000/svg" width="3072" height="3072" viewBox="0 0 3072 3072">
  <title>QuartzOS System Icon 115 - accessibility_06</title>
  <defs><linearGradient id="bg1114" x1="0%" y1="0%" x2="100%" y2="100%"><stop offset="0%" stop-color="#3B82FF" /><stop offset="26%" stop-color="#FF6AB3" /><stop offset="56%" stop-color="#FFD84D" /><stop offset="78%" stop-color="#58A3D8" /><stop offset="100%" stop-color="#1D2F45" /></linearGradient><radialGradient id="sun1114" cx="47%" cy="28%" r="88%"><stop offset="0%" stop-color="#FFFFFF" stop-opacity="0.62" /><stop offset="30%" stop-color="#53E3A6" stop-opacity="0.35" /><stop offset="100%" stop-color="#53E3A6" stop-opacity="0" /></radialGradient><linearGradient id="glass1114" x1="0%" y1="0%" x2="0%" y2="100%"><stop offset="0%" stop-color="#FFFFFF" stop-opacity="0.70" /><stop offset="46%" stop-color="#FFFFFF" stop-opacity="0.26" /><stop offset="100%" stop-color="#FFFFFF" stop-opacity="0.00" /></linearGradient><linearGradient id="ribbon1114" x1="0%" y1="0%" x2="100%" y2="0%"><stop offset="0%" stop-color="#3B82FF" stop-opacity="0.18" /><stop offset="34%" stop-color="#FF6AB3" stop-opacity="0.72" /><stop offset="66%" stop-color="#FFD84D" stop-opacity="0.72" /><stop offset="100%" stop-color="#53E3A6" stop-opacity="0.18" /></linearGradient><radialGradient id="orb1114" cx="34%" cy="27%" r="74%"><stop offset="0%" stop-color="#FFFFFF" stop-opacity="0.84" /><stop offset="30%" stop-color="#3B82FF" stop-opacity="0.52" /><stop offset="68%" stop-color="#FF6AB3" stop-opacity="0.42" /><stop offset="100%" stop-color="#FFD84D" stop-opacity="0.20" /></radialGradient><linearGradient id="extrude1114" x1="0%" y1="0%" x2="0%" y2="100%"><stop offset="0%" stop-color="#15283C" stop-opacity="0.45" /><stop offset="100%" stop-color="#08131D" stop-opacity="0.06" /></linearGradient><linearGradient id="symbol1114" x1="0%" y1="0%" x2="100%" y2="100%"><stop offset="0%" stop-color="#FFFFFF" /><stop offset="100%" stop-color="#53E3A6" /></linearGradient><filter id="shadow1114" x="-40%" y="-40%" width="180%" height="180%"><feDropShadow dx="0" dy="49" stdDeviation="86" flood-color="#06111A" flood-opacity="0.54" /></filter><filter id="soft1114" x="-40%" y="-40%" width="180%" height="180%"><feDropShadow dx="0" dy="0" stdDeviation="14" flood-color="#3B82FF" flood-opacity="0.45" /></filter><filter id="grain1114"><feTurbulence type="fractalNoise" baseFrequency="0.688" numOctaves="2" seed="1114" /><feColorMatrix type="saturate" values="0" /><feComponentTransfer><feFuncA type="table" tableValues="0 0.09" /></feComponentTransfer></filter></defs>
  <rect x="138" y="138" width="2796" height="2796" rx="629" fill="url(#bg1114)" filter="url(#shadow1114)" />
  <rect x="138" y="138" width="2796" height="2796" rx="629" fill="url(#sun1114)" />
  <g><circle cx="2322" cy="995" r="54" fill="#FFFFFF" opacity="0.073" /><circle cx="2461" cy="709" r="156" fill="#FFFFFF" opacity="0.195" /><circle cx="815" cy="2376" r="113" fill="#FFFFFF" opacity="0.119" /><circle cx="1294" cy="851" r="60" fill="#FFFFFF" opacity="0.086" /><circle cx="1109" cy="1019" r="134" fill="#FFFFFF" opacity="0.089" /><circle cx="959" cy="1266" r="72" fill="#FFFFFF" opacity="0.217" /><circle cx="420" cy="1002" r="56" fill="#FFFFFF" opacity="0.177" /><circle cx="439" cy="1304" r="80" fill="#FFFFFF" opacity="0.183" /><circle cx="448" cy="1831" r="115" fill="#FFFFFF" opacity="0.069" /><circle cx="1476" cy="2608" r="114" fill="#FFFFFF" opacity="0.157" /><circle cx="1626" cy="672" r="119" fill="#FFFFFF" opacity="0.101" /><circle cx="1132" cy="933" r="55" fill="#FFFFFF" opacity="0.238" /><circle cx="2173" cy="1319" r="146" fill="#FFFFFF" opacity="0.136" /><circle cx="844" cy="1486" r="149" fill="#FFFFFF" opacity="0.210" /><circle cx="1965" cy="1159" r="82" fill="#FFFFFF" opacity="0.120" /><circle cx="1611" cy="2660" r="126" fill="#FFFFFF" opacity="0.079" /><circle cx="1885" cy="1632" r="86" fill="#FFFFFF" opacity="0.147" /><circle cx="1663" cy="892" r="90" fill="#FFFFFF" opacity="0.122" /><circle cx="978" cy="1483" r="143" fill="#FFFFFF" opacity="0.229" /><circle cx="1285" cy="2249" r="149" fill="#FFFFFF" opacity="0.101" /><circle cx="766" cy="1540" r="59" fill="#FFFFFF" opacity="0.113" /><circle cx="772" cy="2428" r="91" fill="#FFFFFF" opacity="0.142" /><circle cx="2695" cy="1854" r="127" fill="#FFFFFF" opacity="0.064" /><circle cx="879" cy="2235" r="131" fill="#FFFFFF" opacity="0.060" /><circle cx="1062" cy="784" r="158" fill="#FFFFFF" opacity="0.074" /><circle cx="1067" cy="1062" r="120" fill="#FFFFFF" opacity="0.178" /><circle cx="1772" cy="827" r="43" fill="#FFFFFF" opacity="0.218" /><circle cx="2578" cy="1887" r="53" fill="#FFFFFF" opacity="0.214" /></g>
  <g><path d="M 322.2 615.0 L 2896.9 338.5 L 2896.9 798.7 L 322.2 1075.1 Z" fill="#FFFFFF" opacity="0.213" /><path d="M 387.2 873.5 L 2894.6 597.0 L 2894.6 1081.5 L 387.2 1358.0 Z" fill="#FFFFFF" opacity="0.196" /><path d="M 252.6 1091.4 L 2728.6 814.9 L 2728.6 1274.3 L 252.6 1550.7 Z" fill="#FFFFFF" opacity="0.113" /><path d="M 357.4 1378.7 L 2725.8 1102.2 L 2725.8 1585.1 L 357.4 1861.6 Z" fill="#FFFFFF" opacity="0.101" /><path d="M 189.8 1648.4 L 2873.3 1371.9 L 2873.3 1852.1 L 189.8 2128.5 Z" fill="#FFFFFF" opacity="0.171" /><path d="M 253.0 1931.2 L 2812.2 1654.8 L 2812.2 2101.2 L 253.0 2377.7 Z" fill="#FFFFFF" opacity="0.207" /><path d="M 199.6 2143.1 L 2689.6 1866.6 L 2689.6 2332.9 L 199.6 2609.3 Z" fill="#FFFFFF" opacity="0.102" /><path d="M 236.6 2437.9 L 2893.2 2161.4 L 2893.2 2641.0 L 236.6 2917.5 Z" fill="#FFFFFF" opacity="0.093" /></g>
  <g filter="url(#soft1114)"><g transform="rotate(-7.21 1536.0 1536.0)"><path d="M-368.6 474.3 C -225.8 511.4, -25.8 438.1, 107.5 478.8 C 250.4 480.5, 450.4 471.4, 583.7 437.9 C 726.5 445.9, 926.5 500.6, 1059.8 419.1 C 1202.7 415.0, 1402.7 501.4, 1536.0 433.7 C 1678.8 433.9, 1878.8 486.8, 2012.2 473.0 C 2155.0 473.0, 2355.0 475.1, 2488.3 513.0 C 2631.2 524.3, 2831.2 430.2, 2964.5 529.6 C 3107.3 549.4, 3307.3 427.3, 3440.6 512.6" fill="none" stroke="url(#ribbon1114)" stroke-width="58.4" stroke-linecap="round" stroke-opacity="0.120" /></g><g transform="rotate(-6.63 1536.0 1536.0)"><path d="M-368.6 716.0 C -241.7 721.0, -63.9 711.1, 54.6 764.3 C 181.6 782.0, 359.4 688.2, 477.9 778.0 C 604.8 765.2, 782.6 644.4, 901.1 754.0 C 1028.1 768.2, 1205.9 688.4, 1324.4 707.0 C 1451.3 708.0, 1629.1 720.5, 1747.6 665.5 C 1874.6 650.3, 2052.4 750.1, 2170.9 654.6 C 2297.9 665.8, 2475.6 753.1, 2594.1 680.9 C 2721.1 678.0, 2898.9 744.8, 3017.4 728.6 C 3144.4 725.5, 3322.1 709.1, 3440.6 768.6" fill="none" stroke="url(#ribbon1114)" stroke-width="54.4" stroke-linecap="round" stroke-opacity="0.146" /></g><g transform="rotate(-6.05 1536.0 1536.0)"><path d="M-368.6 893.6 C -254.4 865.0, -94.4 907.5, 12.3 831.4 C 126.6 825.3, 286.6 961.4, 393.2 828.2 C 507.5 814.3, 667.5 916.2, 774.1 864.7 C 888.4 856.2, 1048.4 908.4, 1155.1 918.8 C 1269.4 916.7, 1429.3 872.7, 1536.0 957.6 C 1650.3 953.0, 1810.3 856.5, 1916.9 957.6 C 2031.2 978.0, 2191.2 844.7, 2297.9 918.8 C 2412.1 910.3, 2572.1 884.1, 2678.8 864.8 C 2793.1 873.6, 2953.1 908.4, 3059.7 828.2 C 3174.0 825.2, 3334.0 935.3, 3440.6 831.4" fill="none" stroke="url(#ribbon1114)" stroke-width="50.4" stroke-linecap="round" stroke-opacity="0.172" /></g><g transform="rotate(-5.47 1536.0 1536.0)"><path d="M-368.6 1161.8 C -264.8 1089.2, -119.3 1215.2, -22.3 1161.3 C 81.5 1161.2, 227.0 1162.4, 324.0 1216.3 C 427.8 1202.3, 573.3 1131.9, 670.3 1238.3 C 774.1 1234.5, 919.6 1101.7, 1016.6 1213.9 C 1120.4 1219.6, 1265.9 1110.1, 1362.9 1157.9 C 1466.7 1158.9, 1612.2 1164.6, 1709.1 1104.3 C 1813.0 1102.7, 1958.5 1190.1, 2055.4 1085.6 C 2159.3 1115.2, 2304.8 1237.4, 2401.7 1113.1 C 2505.6 1109.1, 2651.1 1210.6, 2748.0 1170.2 C 2851.9 1167.6, 2997.4 1153.6, 3094.3 1222.2 C 3198.2 1246.1, 3343.7 1107.3, 3440.6 1237.6" fill="none" stroke="url(#ribbon1114)" stroke-width="46.4" stroke-linecap="round" stroke-opacity="0.198" /></g><g transform="rotate(-4.89 1536.0 1536.0)"><path d="M-368.6 1340.2 C -273.4 1230.6, -140.1 1399.3, -51.2 1285.2 C 44.0 1299.2, 177.4 1395.5, 266.2 1347.1 C 361.5 1345.9, 494.8 1333.1, 583.7 1404.7 C 678.9 1400.2, 812.2 1298.6, 901.1 1423.2 C 996.4 1429.2, 1129.7 1259.6, 1218.6 1391.3 C 1313.8 1394.2, 1447.1 1309.2, 1536.0 1328.4 C 1631.2 1332.4, 1764.6 1352.9, 1853.4 1272.6 C 1948.7 1291.4, 2082.0 1387.1, 2170.9 1257.8 C 2266.1 1274.0, 2399.4 1370.6, 2488.3 1292.9 C 2583.6 1283.4, 2716.9 1370.6, 2805.8 1356.7 C 2901.0 1361.1, 3034.3 1323.8, 3123.2 1410.4 C 3218.4 1386.8, 3351.8 1287.9, 3440.6 1421.5" fill="none" stroke="url(#ribbon1114)" stroke-width="42.4" stroke-linecap="round" stroke-opacity="0.224" /></g><g transform="rotate(-4.31 1536.0 1536.0)"><path d="M-368.6 1512.5 C -225.8 1460.2, -25.8 1589.0, 107.5 1422.3 C 250.4 1454.0, 450.4 1581.7, 583.7 1455.9 C 726.5 1474.7, 926.5 1542.8, 1059.8 1523.8 C 1202.7 1519.7, 1402.7 1501.8, 1536.0 1584.9 C 1678.8 1604.6, 1878.8 1471.5, 2012.2 1602.1 C 2155.0 1622.7, 2355.0 1485.6, 2488.3 1564.9 C 2631.2 1547.5, 2831.2 1469.8, 2964.5 1496.0 C 3107.3 1499.1, 3307.3 1519.5, 3440.6 1437.1" fill="none" stroke="url(#ribbon1114)" stroke-width="38.4" stroke-linecap="round" stroke-opacity="0.250" /></g><g transform="rotate(-3.73 1536.0 1536.0)"><path d="M-368.6 1672.9 C -241.7 1715.9, -63.9 1634.8, 54.6 1644.9 C 181.6 1633.9, 359.4 1703.6, 477.9 1586.2 C 604.8 1567.0, 782.6 1751.3, 901.1 1580.1 C 1028.1 1576.6, 1205.9 1707.2, 1324.4 1630.3 C 1451.3 1623.9, 1629.1 1715.3, 1747.6 1706.3 C 1874.6 1705.7, 2052.4 1652.1, 2170.9 1762.0 C 2297.9 1766.9, 2475.6 1594.3, 2594.1 1763.7 C 2721.1 1779.0, 2898.9 1632.0, 3017.4 1710.2 C 3144.4 1710.2, 3322.1 1651.4, 3440.6 1634.1" fill="none" stroke="url(#ribbon1114)" stroke-width="34.4" stroke-linecap="round" stroke-opacity="0.276" /></g><g transform="rotate(-3.15 1536.0 1536.0)"><path d="M-368.6 1887.6 C -254.4 1882.2, -94.4 1891.5, 12.3 1808.8 C 126.6 1780.5, 286.6 1935.3, 393.2 1783.2 C 507.5 1801.3, 667.5 1988.3, 774.1 1820.9 C 888.4 1841.9, 1048.4 1931.8, 1155.1 1899.1 C 1269.4 1894.7, 1429.3 1880.2, 1536.0 1970.3 C 1650.3 1966.8, 1810.3 1844.9, 1916.9 1991.3 C 2031.2 1972.9, 2191.2 1806.8, 2297.9 1949.5 C 2412.1 1964.4, 2572.1 1845.0, 2678.8 1870.1 C 2793.1 1875.7, 2953.1 1893.4, 3059.7 1801.3 C 3174.0 1774.2, 3334.0 1937.4, 3440.6 1784.9" fill="none" stroke="url(#ribbon1114)" stroke-width="30.4" stroke-linecap="round" stroke-opacity="0.302" /></g><g transform="rotate(-2.57 1536.0 1536.0)"><path d="M-368.6 2115.3 C -264.8 2131.4, -119.3 2100.2, -22.3 2206.5 C 81.5 2209.2, 227.0 2054.7, 324.0 2225.3 C 427.8 2239.7, 573.3 2069.1, 670.3 2177.3 C 774.1 2165.8, 919.6 2069.1, 1016.6 2091.7 C 1120.4 2090.4, 1265.9 2135.6, 1362.9 2020.5 C 1466.7 2014.4, 1612.2 2194.4, 1709.1 2006.7 C 1813.0 1979.0, 1958.5 2185.9, 2055.4 2058.9 C 2159.3 2055.8, 2304.8 2147.1, 2401.7 2145.2 C 2505.6 2140.5, 2651.1 2080.3, 2748.0 2213.4 C 2851.9 2238.6, 2997.4 2022.8, 3094.3 2222.1 C 3198.2 2256.7, 3343.7 2053.7, 3440.6 2166.0" fill="none" stroke="url(#ribbon1114)" stroke-width="26.4" stroke-linecap="round" stroke-opacity="0.328" /></g><g transform="rotate(-1.99 1536.0 1536.0)"><path d="M-368.6 2205.3 C -273.4 2224.1, -140.1 2196.1, -51.2 2301.4 C 44.0 2296.0, 177.4 2099.3, 266.2 2322.5 C 361.5 2329.3, 494.8 2092.5, 583.7 2272.4 C 678.9 2282.9, 812.2 2136.8, 901.1 2181.7 C 996.4 2175.2, 1129.7 2228.6, 1218.6 2105.3 C 1313.8 2089.2, 1447.1 2260.8, 1536.0 2089.5 C 1631.2 2134.2, 1764.6 2317.7, 1853.4 2144.0 C 1948.7 2148.3, 2082.0 2254.9, 2170.9 2235.7 C 2266.1 2234.2, 2399.4 2186.0, 2488.3 2308.9 C 2583.6 2341.9, 2716.9 2158.0, 2805.8 2319.3 C 2901.0 2293.2, 3034.3 2088.5, 3123.2 2260.6 C 3218.4 2239.2, 3351.8 2165.9, 3440.6 2168.3" fill="none" stroke="url(#ribbon1114)" stroke-width="22.4" stroke-linecap="round" stroke-opacity="0.354" /></g><g transform="rotate(-1.41 1536.0 1536.0)"><path d="M-368.6 2420.5 C -225.8 2419.7, -25.8 2420.8, 107.5 2329.5 C 250.4 2294.9, 450.4 2490.1, 583.7 2294.6 C 726.5 2250.3, 926.5 2488.1, 1059.8 2336.0 C 1202.7 2316.1, 1402.7 2465.0, 1536.0 2428.6 C 1678.8 2427.4, 1878.8 2416.1, 2012.2 2516.3 C 2155.0 2541.6, 2355.0 2312.3, 2488.3 2545.9 C 2631.2 2504.8, 2831.2 2280.9, 2964.5 2499.3 C 3107.3 2490.7, 3307.3 2377.1, 3440.6 2405.0" fill="none" stroke="url(#ribbon1114)" stroke-width="18.4" stroke-linecap="round" stroke-opacity="0.380" /></g><g transform="rotate(-0.83 1536.0 1536.0)"><path d="M-368.6 2712.3 C -241.7 2792.2, -63.9 2669.9, 54.6 2679.3 C 181.6 2691.2, 359.4 2722.4, 477.9 2596.9 C 604.8 2567.4, 782.6 2763.8, 901.1 2584.4 C 1028.1 2593.0, 1205.9 2821.0, 1324.4 2649.5 C 1451.3 2657.1, 1629.1 2778.4, 1747.6 2752.7 C 1874.6 2755.2, 2052.4 2680.2, 2170.9 2831.3 C 2297.9 2785.0, 2475.6 2635.2, 2594.1 2837.8 C 2721.1 2832.7, 2898.9 2627.6, 3017.4 2768.1 C 3144.4 2781.7, 3322.1 2687.7, 3440.6 2664.5" fill="none" stroke="url(#ribbon1114)" stroke-width="14.4" stroke-linecap="round" stroke-opacity="0.406" /></g></g>
  <g><ellipse cx="1536.0" cy="1551.9" rx="728.6" ry="605.7" fill="url(#extrude1114)" opacity="0.220" /><ellipse cx="1536.0" cy="1567.7" rx="736.0" ry="610.9" fill="url(#extrude1114)" opacity="0.205" /><ellipse cx="1536.0" cy="1583.6" rx="743.4" ry="616.1" fill="url(#extrude1114)" opacity="0.190" /><ellipse cx="1536.0" cy="1599.5" rx="750.9" ry="621.3" fill="url(#extrude1114)" opacity="0.175" /><ellipse cx="1536.0" cy="1615.4" rx="758.3" ry="626.5" fill="url(#extrude1114)" opacity="0.160" /><ellipse cx="1536.0" cy="1631.2" rx="765.7" ry="631.7" fill="url(#extrude1114)" opacity="0.145" /><ellipse cx="1536.0" cy="1647.1" rx="773.2" ry="636.9" fill="url(#extrude1114)" opacity="0.130" /><ellipse cx="1536.0" cy="1663.0" rx="780.6" ry="642.1" fill="url(#extrude1114)" opacity="0.115" /><ellipse cx="1536.0" cy="1678.8" rx="788.0" ry="647.4" fill="url(#extrude1114)" opacity="0.100" /><ellipse cx="1536.0" cy="1694.7" rx="795.5" ry="652.6" fill="url(#extrude1114)" opacity="0.085" /><ellipse cx="1536.0" cy="1710.6" rx="802.9" ry="657.8" fill="url(#extrude1114)" opacity="0.070" /><ellipse cx="1536.0" cy="1726.5" rx="810.3" ry="663.0" fill="url(#extrude1114)" opacity="0.055" /></g>
  <ellipse cx="1536.0" cy="1726.5" rx="773.2" ry="214.9" fill="#0B1D2D" opacity="0.24" />
  <ellipse cx="1536.0" cy="1536.0" rx="743.4" ry="651.3" fill="url(#orb1114)" stroke="#FFFFFF" stroke-opacity="0.42" stroke-width="7" />
  <ellipse cx="1431.9" cy="1392.7" rx="505.5" ry="299.6" fill="#FFFFFF" opacity="0.25" />
  <path d="M 199.4 399.4 C 1013.8 -30.7, 2058.2 768.0, 2872.6 215.0 L 2872.6 983.0 C 2089.0 1228.8, 1013.8 307.2, 199.4 1167.4 Z" fill="url(#glass1114)" />
  <rect x="270" y="270" width="2532" height="2532" rx="430" fill="none" stroke="#FFFFFF" stroke-opacity="0.30" stroke-width="5" />
  <rect x="288.4" y="288.4" width="2495.1" height="2495.1" rx="399" fill="none" stroke="#3B82FF" stroke-opacity="0.35" stroke-width="3" />
  <g filter="url(#soft1114)"><rect x="1384" y="1521" width="66" height="2" fill="#FFFFFF" opacity="0.759" /><rect x="1416" y="1489" width="2" height="66" fill="#FFFFFF" opacity="0.759" /><rect x="1874" y="1254" width="46" height="2" fill="#FFFFFF" opacity="0.468" /><rect x="1896" y="1232" width="2" height="46" fill="#FFFFFF" opacity="0.468" /><rect x="1656" y="1887" width="42" height="2" fill="#FFFFFF" opacity="0.785" /><rect x="1676" y="1867" width="2" height="42" fill="#FFFFFF" opacity="0.785" /><rect x="766" y="1986" width="56" height="2" fill="#FFFFFF" opacity="0.663" /><rect x="793" y="1959" width="2" height="56" fill="#FFFFFF" opacity="0.663" /><rect x="1234" y="1095" width="56" height="2" fill="#FFFFFF" opacity="0.320" /><rect x="1261" y="1068" width="2" height="56" fill="#FFFFFF" opacity="0.320" /><rect x="1326" y="1655" width="78" height="2" fill="#FFFFFF" opacity="0.646" /><rect x="1364" y="1617" width="2" height="78" fill="#FFFFFF" opacity="0.646" /><rect x="2247" y="1213" width="66" height="2" fill="#FFFFFF" opacity="0.377" /><rect x="2279" y="1181" width="2" height="66" fill="#FFFFFF" opacity="0.377" /><rect x="1069" y="447" width="54" height="2" fill="#FFFFFF" opacity="0.795" /><rect x="1095" y="421" width="2" height="54" fill="#FFFFFF" opacity="0.795" /><rect x="323" y="296" width="26" height="2" fill="#FFFFFF" opacity="0.377" /><rect x="335" y="284" width="2" height="26" fill="#FFFFFF" opacity="0.377" /><rect x="1727" y="2393" width="42" height="2" fill="#FFFFFF" opacity="0.427" /><rect x="1747" y="2373" width="2" height="42" fill="#FFFFFF" opacity="0.427" /><rect x="584" y="2465" width="66" height="2" fill="#FFFFFF" opacity="0.530" /><rect x="616" y="2433" width="2" height="66" fill="#FFFFFF" opacity="0.530" /><rect x="2507" y="2221" width="48" height="2" fill="#FFFFFF" opacity="0.749" /><rect x="2530" y="2198" width="2" height="48" fill="#FFFFFF" opacity="0.749" /><rect x="1982" y="436" width="58" height="2" fill="#FFFFFF" opacity="0.675" /><rect x="2010" y="408" width="2" height="58" fill="#FFFFFF" opacity="0.675" /><rect x="1583" y="2602" width="84" height="2" fill="#FFFFFF" opacity="0.417" /><rect x="1624" y="2561" width="2" height="84" fill="#FFFFFF" opacity="0.417" /><rect x="2137" y="1031" width="74" height="2" fill="#FFFFFF" opacity="0.532" /><rect x="2173" y="995" width="2" height="74" fill="#FFFFFF" opacity="0.532" /><rect x="993" y="1324" width="28" height="2" fill="#FFFFFF" opacity="0.749" /><rect x="1006" y="1311" width="2" height="28" fill="#FFFFFF" opacity="0.749" /><rect x="824" y="465" width="64" height="2" fill="#FFFFFF" opacity="0.809" /><rect x="855" y="434" width="2" height="64" fill="#FFFFFF" opacity="0.809" /><rect x="1969" y="1295" width="38" height="2" fill="#FFFFFF" opacity="0.807" /><rect x="1987" y="1277" width="2" height="38" fill="#FFFFFF" opacity="0.807" /><rect x="1483" y="2614" width="42" height="2" fill="#FFFFFF" opacity="0.775" /><rect x="1503" y="2594" width="2" height="42" fill="#FFFFFF" opacity="0.775" /><rect x="1524" y="551" width="26" height="2" fill="#FFFFFF" opacity="0.480" /><rect x="1536" y="539" width="2" height="26" fill="#FFFFFF" opacity="0.480" /><rect x="1037" y="2173" width="32" height="2" fill="#FFFFFF" opacity="0.534" /><rect x="1052" y="2158" width="2" height="32" fill="#FFFFFF" opacity="0.534" /><rect x="1974" y="2570" width="34" height="2" fill="#FFFFFF" opacity="0.580" /><rect x="1990" y="2554" width="2" height="34" fill="#FFFFFF" opacity="0.580" /><rect x="616" y="719" width="74" height="2" fill="#FFFFFF" opacity="0.317" /><rect x="652" y="683" width="2" height="74" fill="#FFFFFF" opacity="0.317" /><rect x="1363" y="1560" width="58" height="2" fill="#FFFFFF" opacity="0.500" /><rect x="1391" y="1532" width="2" height="58" fill="#FFFFFF" opacity="0.500" /><rect x="2044" y="263" width="66" height="2" fill="#FFFFFF" opacity="0.624" /><rect x="2076" y="231" width="2" height="66" fill="#FFFFFF" opacity="0.624" /><rect x="2235" y="646" width="40" height="2" fill="#FFFFFF" opacity="0.573" /><rect x="2254" y="627" width="2" height="40" fill="#FFFFFF" opacity="0.573" /></g>
  <g opacity="0.52"><path d="M996 1582 C1316 1006, 1572 2158, 2148 1582" fill="none" stroke="#0C2030" stroke-width="90" /><circle cx="1188" cy="1582" r="109" fill="#0C2030" /><circle cx="1572" cy="1582" r="109" fill="#0C2030" /><circle cx="1956" cy="1582" r="109" fill="#0C2030" /></g>
  <g filter="url(#soft1114)"><path d="M960 1536 C1280 960, 1536 2112, 2112 1536" fill="none" stroke="url(#symbol1114)" stroke-width="90" /><circle cx="1152" cy="1536" r="109" fill="url(#symbol1114)" /><circle cx="1536" cy="1536" r="109" fill="url(#symbol1114)" /><circle cx="1920" cy="1536" r="109" fill="url(#symbol1114)" /></g>
  <rect x="138" y="138" width="2796" height="2796" rx="629" fill="#FFFFFF" filter="url(#grain1114)" opacity="0.18" />
</svg>
