<svg xmlns="http://www.w3.org/2000/svg" width="3072" height="3072" viewBox="0 0 3072 3072">
  <title>QuartzOS System Icon 015 - accessibility_01</title>
  <defs><linearGradient id="bg1014" x1="0%" y1="0%" x2="100%" y2="100%"><stop offset="0%" stop-color="#53E3A6" /><stop offset="26%" stop-color="#3B82FF" /><stop offset="56%" stop-color="#FF6AB3" /><stop offset="78%" stop-color="#4B91A3" /><stop offset="100%" stop-color="#1A2630" /></linearGradient><radialGradient id="sun1014" cx="32%" cy="25%" r="88%"><stop offset="0%" stop-color="#FFFFFF" stop-opacity="0.62" /><stop offset="30%" stop-color="#FF9F43" stop-opacity="0.35" /><stop offset="100%" stop-color="#FF9F43" stop-opacity="0" /></radialGradient><linearGradient id="glass1014" x1="0%" y1="0%" x2="0%" y2="100%"><stop offset="0%" stop-color="#FFFFFF" stop-opacity="0.70" /><stop offset="46%" stop-color="#FFFFFF" stop-opacity="0.26" /><stop offset="100%" stop-color="#FFFFFF" stop-opacity="0.00" /></linearGradient><linearGradient id="ribbon1014" x1="0%" y1="0%" x2="100%" y2="0%"><stop offset="0%" stop-color="#53E3A6" stop-opacity="0.18" /><stop offset="34%" stop-color="#3B82FF" stop-opacity="0.72" /><stop offset="66%" stop-color="#FF6AB3" stop-opacity="0.72" /><stop offset="100%" stop-color="#FF9F43" stop-opacity="0.18" /></linearGradient><radialGradient id="orb1014" cx="34%" cy="27%" r="74%"><stop offset="0%" stop-color="#FFFFFF" stop-opacity="0.84" /><stop offset="30%" stop-color="#53E3A6" stop-opacity="0.52" /><stop offset="68%" stop-color="#3B82FF" stop-opacity="0.42" /><stop offset="100%" stop-color="#FF6AB3" stop-opacity="0.20" /></radialGradient><linearGradient id="extrude1014" x1="0%" y1="0%" x2="0%" y2="100%"><stop offset="0%" stop-color="#15283C" stop-opacity="0.45" /><stop offset="100%" stop-color="#08131D" stop-opacity="0.06" /></linearGradient><linearGradient id="symbol1014" x1="0%" y1="0%" x2="100%" y2="100%"><stop offset="0%" stop-color="#FFFFFF" /><stop offset="100%" stop-color="#FF9F43" /></linearGradient><filter id="shadow1014" x="-40%" y="-40%" width="180%" height="180%"><feDropShadow dx="0" dy="49" stdDeviation="86" flood-color="#06111A" flood-opacity="0.54" /></filter><filter id="soft1014" x="-40%" y="-40%" width="180%" height="180%"><feDropShadow dx="0" dy="0" stdDeviation="14" flood-color="#53E3A6" flood-opacity="0.45" /></filter><filter id="grain1014"><feTurbulence type="fractalNoise" baseFrequency="1.059" numOctaves="2" seed="1014" /><feColorMatrix type="saturate" values="0" /><feComponentTransfer><feFuncA type="table" tableValues="0 0.09" /></feComponentTransfer></filter></defs>
  <rect x="138" y="138" width="2796" height="2796" rx="629" fill="url(#bg1014)" filter="url(#shadow1014)" />
  <rect x="138" y="138" width="2796" height="2796" rx="629" fill="url(#sun1014)" />
  <g><circle cx="2540" cy="2234" r="66" fill="#FFFFFF" opacity="0.104" /><circle cx="2003" cy="750" r="80" fill="#FFFFFF" opacity="0.085" /><circle cx="2477" cy="448" r="130" fill="#FFFFFF" opacity="0.092" /><circle cx="1427" cy="2554" r="70" fill="#FFFFFF" opacity="0.175" /><circle cx="430" cy="934" r="66" fill="#FFFFFF" opacity="0.101" /><circle cx="1693" cy="2377" r="109" fill="#FFFFFF" opacity="0.220" /><circle cx="1258" cy="1421" r="122" fill="#FFFFFF" opacity="0.133" /><circle cx="2559" cy="360" r="147" fill="#FFFFFF" opacity="0.184" /><circle cx="2226" cy="341" r="120" fill="#FFFFFF" opacity="0.073" /><circle cx="986" cy="2677" r="127" fill="#FFFFFF" opacity="0.233" /><circle cx="2053" cy="2584" r="96" fill="#FFFFFF" opacity="0.165" /><circle cx="2011" cy="1303" r="135" fill="#FFFFFF" opacity="0.208" /><circle cx="770" cy="834" r="149" fill="#FFFFFF" opacity="0.108" /><circle cx="1756" cy="1254" r="135" fill="#FFFFFF" opacity="0.238" /><circle cx="2063" cy="1990" r="111" fill="#FFFFFF" opacity="0.192" /><circle cx="927" cy="1856" r="131" fill="#FFFFFF" opacity="0.141" /><circle cx="1745" cy="422" r="153" fill="#FFFFFF" opacity="0.140" /><circle cx="2122" cy="1521" r="37" fill="#FFFFFF" opacity="0.147" /><circle cx="2065" cy="1090" r="98" fill="#FFFFFF" opacity="0.181" /><circle cx="2609" cy="2079" r="105" fill="#FFFFFF" opacity="0.237" /><circle cx="476" cy="1490" r="40" fill="#FFFFFF" opacity="0.184" /><circle cx="1264" cy="672" r="71" fill="#FFFFFF" opacity="0.077" /><circle cx="1893" cy="1891" r="48" fill="#FFFFFF" opacity="0.121" /><circle cx="984" cy="377" r="91" fill="#FFFFFF" opacity="0.088" /><circle cx="754" cy="762" r="59" fill="#FFFFFF" opacity="0.215" /><circle cx="1902" cy="1207" r="146" fill="#FFFFFF" opacity="0.233" /><circle cx="576" cy="1713" r="86" fill="#FFFFFF" opacity="0.077" /><circle cx="1763" cy="2639" r="134" fill="#FFFFFF" opacity="0.119" /></g>
  <g><path d="M 201.0 592.2 L 2873.3 315.7 L 2873.3 806.0 L 201.0 1082.5 Z" fill="#FFFFFF" opacity="0.130" /><path d="M 381.2 852.5 L 2923.0 576.0 L 2923.0 1021.0 L 381.2 1297.4 Z" fill="#FFFFFF" opacity="0.215" /><path d="M 156.3 1098.1 L 2806.5 821.7 L 2806.5 1316.3 L 156.3 1592.8 Z" fill="#FFFFFF" opacity="0.181" /><path d="M 243.4 1425.4 L 2907.1 1148.9 L 2907.1 1579.2 L 243.4 1855.6 Z" fill="#FFFFFF" opacity="0.106" /><path d="M 316.1 1681.3 L 2684.3 1404.8 L 2684.3 1839.5 L 316.1 2116.0 Z" fill="#FFFFFF" opacity="0.159" /><path d="M 383.9 1950.5 L 2758.8 1674.0 L 2758.8 2152.2 L 383.9 2428.7 Z" fill="#FFFFFF" opacity="0.101" /><path d="M 180.0 2152.1 L 2787.0 1875.7 L 2787.0 2352.3 L 180.0 2628.7 Z" fill="#FFFFFF" opacity="0.089" /><path d="M 154.9 2457.8 L 2742.0 2181.3 L 2742.0 2650.3 L 154.9 2926.8 Z" fill="#FFFFFF" opacity="0.087" /></g>
  <g filter="url(#soft1014)"><g transform="rotate(-14.37 1536.0 1536.0)"><path d="M-368.6 515.3 C -225.8 471.7, -25.8 539.9, 107.5 460.9 C 250.4 474.5, 450.4 553.9, 583.7 484.2 C 726.5 485.3, 926.5 529.0, 1059.8 526.4 C 1202.7 530.4, 1402.7 509.1, 1536.0 561.9 C 1678.8 561.8, 1878.8 499.8, 2012.2 569.2 C 2155.0 590.1, 2355.0 454.9, 2488.3 543.8 C 2631.2 547.1, 2831.2 503.1, 2964.5 501.2 C 3107.3 497.0, 3307.3 520.4, 3440.6 467.1" fill="none" stroke="url(#ribbon1014)" stroke-width="58.4" stroke-linecap="round" stroke-opacity="0.120" /></g><g transform="rotate(-13.79 1536.0 1536.0)"><path d="M-368.6 736.7 C -241.7 775.7, -63.9 685.0, 54.6 747.8 C 181.6 750.1, 359.4 731.2, 477.9 700.4 C 604.8 697.9, 782.6 757.7, 901.1 675.1 C 1028.1 697.4, 1205.9 779.9, 1324.4 687.2 C 1451.3 699.4, 1629.1 754.3, 1747.6 729.3 C 1874.6 731.1, 2052.4 740.9, 2170.9 776.0 C 2297.9 772.1, 2475.6 724.6, 2594.1 798.8 C 2721.1 779.3, 2898.9 685.7, 3017.4 784.0 C 3144.4 780.4, 3322.1 705.6, 3440.6 740.5" fill="none" stroke="url(#ribbon1014)" stroke-width="54.4" stroke-linecap="round" stroke-opacity="0.146" /></g><g transform="rotate(-13.21 1536.0 1536.0)"><path d="M-368.6 881.3 C -254.4 921.7, -94.4 831.2, 12.3 890.2 C 126.6 889.2, 286.6 871.9, 393.2 838.1 C 507.5 846.0, 667.5 932.2, 774.1 812.2 C 888.4 826.1, 1048.4 948.7, 1155.1 828.2 C 1269.4 841.3, 1429.3 932.6, 1536.0 876.4 C 1650.3 877.3, 1810.3 882.9, 1916.9 927.6 C 2031.2 911.7, 2191.2 866.8, 2297.9 950.6 C 2412.1 960.0, 2572.1 842.7, 2678.8 931.6 C 2793.1 932.3, 2953.1 835.0, 3059.7 882.1 C 3174.0 882.0, 3334.0 880.5, 3440.6 832.0" fill="none" stroke="url(#ribbon1014)" stroke-width="50.4" stroke-linecap="round" stroke-opacity="0.172" /></g><g transform="rotate(-12.63 1536.0 1536.0)"><path d="M-368.6 1106.7 C -264.8 1008.0, -119.3 1158.6, -22.3 1076.9 C 81.5 1082.9, 227.0 1129.5, 324.0 1136.5 C 427.8 1130.4, 573.3 1091.5, 670.3 1178.0 C 774.1 1164.2, 919.6 1062.6, 1016.6 1176.2 C 1120.4 1175.1, 1265.9 1029.3, 1362.9 1132.3 C 1466.7 1135.2, 1612.2 1076.7, 1709.1 1072.8 C 1813.0 1070.8, 1958.5 1137.8, 2055.4 1033.9 C 2159.3 1005.2, 2304.8 1161.7, 2401.7 1039.1 C 2505.6 1035.1, 2651.1 1160.6, 2748.0 1085.3 C 2851.9 1093.4, 2997.4 1116.4, 3094.3 1144.5 C 3198.2 1131.5, 3343.7 1086.5, 3440.6 1180.7" fill="none" stroke="url(#ribbon1014)" stroke-width="46.4" stroke-linecap="round" stroke-opacity="0.198" /></g><g transform="rotate(-12.05 1536.0 1536.0)"><path d="M-368.6 1314.6 C -273.4 1241.4, -140.1 1360.4, -51.2 1248.8 C 44.0 1250.1, 177.4 1391.4, 266.2 1305.7 C 361.5 1304.9, 494.8 1320.0, 583.7 1368.0 C 678.9 1355.2, 812.2 1280.2, 901.1 1397.9 C 996.4 1396.9, 1129.7 1267.4, 1218.6 1377.4 C 1313.8 1370.7, 1447.1 1258.0, 1536.0 1318.8 C 1631.2 1317.1, 1764.6 1310.4, 1853.4 1257.6 C 1948.7 1264.1, 2082.0 1362.5, 2170.9 1231.1 C 2266.1 1238.6, 2399.4 1395.2, 2488.3 1255.2 C 2583.6 1245.3, 2716.9 1361.3, 2805.8 1315.4 C 2901.0 1315.3, 3034.3 1314.1, 3123.2 1375.1 C 3218.4 1353.4, 3351.8 1258.9, 3440.6 1398.1" fill="none" stroke="url(#ribbon1014)" stroke-width="42.4" stroke-linecap="round" stroke-opacity="0.224" /></g><g transform="rotate(-11.47 1536.0 1536.0)"><path d="M-368.6 1522.7 C -225.8 1594.0, -25.8 1444.5, 107.5 1563.5 C 250.4 1575.8, 450.4 1502.1, 583.7 1493.1 C 726.5 1487.1, 926.5 1535.4, 1059.8 1440.6 C 1202.7 1445.7, 1402.7 1614.5, 1536.0 1437.9 C 1678.8 1430.1, 1878.8 1589.7, 2012.2 1486.6 C 2155.0 1484.9, 2355.0 1564.4, 2488.3 1557.2 C 2631.2 1559.5, 2831.2 1507.1, 2964.5 1606.8 C 3107.3 1599.4, 3307.3 1459.6, 3440.6 1605.4" fill="none" stroke="url(#ribbon1014)" stroke-width="38.4" stroke-linecap="round" stroke-opacity="0.250" /></g><g transform="rotate(-10.89 1536.0 1536.0)"><path d="M-368.6 1714.8 C -241.7 1765.1, -63.9 1665.6, 54.6 1811.4 C 181.6 1792.6, 359.4 1615.6, 477.9 1792.5 C 604.8 1784.9, 782.6 1635.2, 901.1 1726.4 C 1028.1 1729.7, 1205.9 1707.4, 1324.4 1653.3 C 1451.3 1631.8, 1629.1 1741.0, 1747.6 1617.5 C 1874.6 1593.5, 2052.4 1797.5, 2170.9 1640.7 C 2297.9 1638.2, 2475.6 1753.5, 2594.1 1708.8 C 2721.1 1708.5, 2898.9 1720.3, 3017.4 1780.6 C 3144.4 1770.1, 3322.1 1641.6, 3440.6 1812.4" fill="none" stroke="url(#ribbon1014)" stroke-width="34.4" stroke-linecap="round" stroke-opacity="0.276" /></g><g transform="rotate(-10.31 1536.0 1536.0)"><path d="M-368.6 1836.0 C -254.4 1759.3, -94.4 1916.5, 12.3 1837.6 C 126.6 1837.4, 286.6 1834.9, 393.2 1912.3 C 507.5 1925.8, 667.5 1774.4, 774.1 1940.7 C 888.4 1941.7, 1048.4 1763.6, 1155.1 1905.6 C 1269.4 1930.8, 1429.3 1792.7, 1536.0 1828.3 C 1650.3 1830.6, 1810.3 1842.4, 1916.9 1755.7 C 2031.2 1783.9, 2191.2 1918.6, 2297.9 1731.8 C 2412.1 1734.8, 2572.1 1870.4, 2678.8 1771.2 C 2793.1 1749.6, 2953.1 1859.4, 3059.7 1849.8 C 3174.0 1853.0, 3334.0 1830.9, 3440.6 1920.1" fill="none" stroke="url(#ribbon1014)" stroke-width="30.4" stroke-linecap="round" stroke-opacity="0.302" /></g><g transform="rotate(-9.73 1536.0 1536.0)"><path d="M-368.6 2054.3 C -264.8 2121.7, -119.3 2001.8, -22.3 2157.9 C 81.5 2132.7, 227.0 2006.3, 324.0 2096.3 C 427.8 2086.9, 573.3 2010.0, 670.3 2009.2 C 774.1 1998.8, 919.6 2068.8, 1016.6 1949.5 C 1120.4 1938.8, 1265.9 2173.2, 1362.9 1953.3 C 1466.7 1955.0, 1612.2 2166.0, 1709.1 2018.4 C 1813.0 2031.1, 1958.5 2081.2, 2055.4 2105.2 C 2159.3 2117.3, 2304.8 2020.1, 2401.7 2161.2 C 2505.6 2141.7, 2651.1 1988.4, 2748.0 2152.3 C 2851.9 2113.8, 2997.4 1966.6, 3094.3 2083.9 C 3198.2 2093.5, 3343.7 2044.3, 3440.6 1997.6" fill="none" stroke="url(#ribbon1014)" stroke-width="26.4" stroke-linecap="round" stroke-opacity="0.328" /></g><g transform="rotate(-9.15 1536.0 1536.0)"><path d="M-368.6 2293.6 C -273.4 2404.2, -140.1 2182.9, -51.2 2393.5 C 44.0 2397.0, 177.4 2218.6, 266.2 2316.9 C 361.5 2315.5, 494.8 2267.0, 583.7 2226.2 C 678.9 2215.9, 812.2 2324.6, 901.1 2176.4 C 996.4 2213.2, 1129.7 2373.7, 1218.6 2197.7 C 1313.8 2189.8, 1447.1 2356.5, 1536.0 2277.1 C 1631.2 2280.4, 1764.6 2311.0, 1853.4 2366.6 C 1948.7 2373.1, 2082.0 2265.8, 2170.9 2411.8 C 2266.1 2442.3, 2399.4 2184.2, 2488.3 2385.3 C 2583.6 2352.3, 2716.9 2207.5, 2805.8 2303.2 C 2901.0 2304.6, 3034.3 2283.0, 3123.2 2215.3 C 3218.4 2194.7, 3351.8 2387.2, 3440.6 2174.9" fill="none" stroke="url(#ribbon1014)" stroke-width="22.4" stroke-linecap="round" stroke-opacity="0.354" /></g><g transform="rotate(-8.57 1536.0 1536.0)"><path d="M-368.6 2470.4 C -225.8 2440.4, -25.8 2490.8, 107.5 2544.2 C 250.4 2527.1, 450.4 2413.2, 583.7 2595.0 C 726.5 2627.9, 926.5 2379.6, 1059.8 2570.2 C 1202.7 2579.0, 1402.7 2374.3, 1536.0 2484.9 C 1678.8 2489.3, 1878.8 2464.7, 2012.2 2390.7 C 2155.0 2367.0, 2355.0 2554.3, 2488.3 2344.9 C 2631.2 2358.0, 2831.2 2509.2, 2964.5 2375.2 C 3107.3 2365.4, 3307.3 2578.9, 3440.6 2463.2" fill="none" stroke="url(#ribbon1014)" stroke-width="18.4" stroke-linecap="round" stroke-opacity="0.380" /></g><g transform="rotate(-7.99 1536.0 1536.0)"><path d="M-368.6 2615.9 C -241.7 2501.0, -63.9 2719.8, 54.6 2498.1 C 181.6 2462.6, 359.4 2690.2, 477.9 2578.1 C 604.8 2581.3, 782.6 2660.3, 901.1 2681.0 C 1028.1 2663.8, 1205.9 2592.3, 1324.4 2744.5 C 1451.3 2705.8, 1629.1 2500.4, 1747.6 2730.0 C 1874.6 2701.7, 2052.4 2573.2, 2170.9 2646.3 C 2297.9 2651.2, 2475.6 2600.2, 2594.1 2544.2 C 2721.1 2525.1, 2898.9 2658.0, 3017.4 2485.6 C 3144.4 2446.5, 3322.1 2683.4, 3440.6 2506.1" fill="none" stroke="url(#ribbon1014)" stroke-width="14.4" stroke-linecap="round" stroke-opacity="0.406" /></g></g>
  <g><ellipse cx="1536.0" cy="1551.9" rx="728.6" ry="605.7" fill="url(#extrude1014)" opacity="0.220" /><ellipse cx="1536.0" cy="1567.7" rx="736.0" ry="610.9" fill="url(#extrude1014)" opacity="0.205" /><ellipse cx="1536.0" cy="1583.6" rx="743.4" ry="616.1" fill="url(#extrude1014)" opacity="0.190" /><ellipse cx="1536.0" cy="1599.5" rx="750.9" ry="621.3" fill="url(#extrude1014)" opacity="0.175" /><ellipse cx="1536.0" cy="1615.4" rx="758.3" ry="626.5" fill="url(#extrude1014)" opacity="0.160" /><ellipse cx="1536.0" cy="1631.2" rx="765.7" ry="631.7" fill="url(#extrude1014)" opacity="0.145" /><ellipse cx="1536.0" cy="1647.1" rx="773.2" ry="636.9" fill="url(#extrude1014)" opacity="0.130" /><ellipse cx="1536.0" cy="1663.0" rx="780.6" ry="642.1" fill="url(#extrude1014)" opacity="0.115" /><ellipse cx="1536.0" cy="1678.8" rx="788.0" ry="647.4" fill="url(#extrude1014)" opacity="0.100" /><ellipse cx="1536.0" cy="1694.7" rx="795.5" ry="652.6" fill="url(#extrude1014)" opacity="0.085" /><ellipse cx="1536.0" cy="1710.6" rx="802.9" ry="657.8" fill="url(#extrude1014)" opacity="0.070" /><ellipse cx="1536.0" cy="1726.5" rx="810.3" ry="663.0" fill="url(#extrude1014)" opacity="0.055" /></g>
  <ellipse cx="1536.0" cy="1726.5" rx="773.2" ry="214.9" fill="#0B1D2D" opacity="0.24" />
  <ellipse cx="1536.0" cy="1536.0" rx="743.4" ry="651.3" fill="url(#orb1014)" stroke="#FFFFFF" stroke-opacity="0.42" stroke-width="7" />
  <ellipse cx="1431.9" cy="1392.7" rx="505.5" ry="299.6" fill="#FFFFFF" opacity="0.25" />
  <path d="M 199.4 399.4 C 1013.8 -30.7, 2058.2 768.0, 2872.6 215.0 L 2872.6 983.0 C 2089.0 1228.8, 1013.8 307.2, 199.4 1167.4 Z" fill="url(#glass1014)" />
  <rect x="270" y="270" width="2532" height="2532" rx="430" fill="none" stroke="#FFFFFF" stroke-opacity="0.30" stroke-width="5" />
  <rect x="288.4" y="288.4" width="2495.1" height="2495.1" rx="399" fill="none" stroke="#53E3A6" stroke-opacity="0.35" stroke-width="3" />
  <g filter="url(#soft1014)"><rect x="1786" y="2748" width="44" height="2" fill="#FFFFFF" opacity="0.456" /><rect x="1807" y="2727" width="2" height="44" fill="#FFFFFF" opacity="0.456" /><rect x="1850" y="2468" width="52" height="2" fill="#FFFFFF" opacity="0.487" /><rect x="1875" y="2443" width="2" height="52" fill="#FFFFFF" opacity="0.487" /><rect x="733" y="2342" width="74" height="2" fill="#FFFFFF" opacity="0.519" /><rect x="769" y="2306" width="2" height="74" fill="#FFFFFF" opacity="0.519" /><rect x="440" y="1303" width="28" height="2" fill="#FFFFFF" opacity="0.341" /><rect x="453" y="1290" width="2" height="28" fill="#FFFFFF" opacity="0.341" /><rect x="1553" y="2475" width="82" height="2" fill="#FFFFFF" opacity="0.805" /><rect x="1593" y="2435" width="2" height="82" fill="#FFFFFF" opacity="0.805" /><rect x="2353" y="2120" width="58" height="2" fill="#FFFFFF" opacity="0.530" /><rect x="2381" y="2092" width="2" height="58" fill="#FFFFFF" opacity="0.530" /><rect x="1750" y="2039" width="36" height="2" fill="#FFFFFF" opacity="0.302" /><rect x="1767" y="2022" width="2" height="36" fill="#FFFFFF" opacity="0.302" /><rect x="679" y="2331" width="50" height="2" fill="#FFFFFF" opacity="0.588" /><rect x="703" y="2307" width="2" height="50" fill="#FFFFFF" opacity="0.588" /><rect x="601" y="2590" width="80" height="2" fill="#FFFFFF" opacity="0.849" /><rect x="640" y="2551" width="2" height="80" fill="#FFFFFF" opacity="0.849" /><rect x="1657" y="2424" width="64" height="2" fill="#FFFFFF" opacity="0.644" /><rect x="1688" y="2393" width="2" height="64" fill="#FFFFFF" opacity="0.644" /><rect x="919" y="405" width="40" height="2" fill="#FFFFFF" opacity="0.494" /><rect x="938" y="386" width="2" height="40" fill="#FFFFFF" opacity="0.494" /><rect x="2159" y="1251" width="48" height="2" fill="#FFFFFF" opacity="0.566" /><rect x="2182" y="1228" width="2" height="48" fill="#FFFFFF" opacity="0.566" /><rect x="986" y="1360" width="24" height="2" fill="#FFFFFF" opacity="0.364" /><rect x="997" y="1349" width="2" height="24" fill="#FFFFFF" opacity="0.364" /><rect x="482" y="1542" width="44" height="2" fill="#FFFFFF" opacity="0.527" /><rect x="503" y="1521" width="2" height="44" fill="#FFFFFF" opacity="0.527" /><rect x="358" y="707" width="38" height="2" fill="#FFFFFF" opacity="0.838" /><rect x="376" y="689" width="2" height="38" fill="#FFFFFF" opacity="0.838" /><rect x="534" y="460" width="30" height="2" fill="#FFFFFF" opacity="0.769" /><rect x="548" y="446" width="2" height="30" fill="#FFFFFF" opacity="0.769" /><rect x="1188" y="793" width="66" height="2" fill="#FFFFFF" opacity="0.789" /><rect x="1220" y="761" width="2" height="66" fill="#FFFFFF" opacity="0.789" /><rect x="1574" y="475" width="40" height="2" fill="#FFFFFF" opacity="0.587" /><rect x="1593" y="456" width="2" height="40" fill="#FFFFFF" opacity="0.587" /><rect x="323" y="1218" width="28" height="2" fill="#FFFFFF" opacity="0.422" /><rect x="336" y="1205" width="2" height="28" fill="#FFFFFF" opacity="0.422" /><rect x="1446" y="2751" width="38" height="2" fill="#FFFFFF" opacity="0.359" /><rect x="1464" y="2733" width="2" height="38" fill="#FFFFFF" opacity="0.359" /><rect x="2188" y="1759" width="30" height="2" fill="#FFFFFF" opacity="0.585" /><rect x="2202" y="1745" width="2" height="30" fill="#FFFFFF" opacity="0.585" /><rect x="483" y="699" width="28" height="2" fill="#FFFFFF" opacity="0.600" /><rect x="496" y="686" width="2" height="28" fill="#FFFFFF" opacity="0.600" /><rect x="2524" y="406" width="42" height="2" fill="#FFFFFF" opacity="0.733" /><rect x="2544" y="386" width="2" height="42" fill="#FFFFFF" opacity="0.733" /><rect x="1207" y="1394" width="76" height="2" fill="#FFFFFF" opacity="0.767" /><rect x="1244" y="1357" width="2" height="76" fill="#FFFFFF" opacity="0.767" /><rect x="364" y="1628" width="74" height="2" fill="#FFFFFF" opacity="0.498" /><rect x="400" y="1592" width="2" height="74" fill="#FFFFFF" opacity="0.498" /><rect x="1406" y="1803" width="32" height="2" fill="#FFFFFF" opacity="0.573" /><rect x="1421" y="1788" width="2" height="32" fill="#FFFFFF" opacity="0.573" /></g>
  <g opacity="0.52"><path d="M996 1582 Q1572 1006, 2148 1582" fill="none" stroke="#0C2030" stroke-width="90" /><path d="M996 1801 Q1572 1198, 2148 1801" fill="none" stroke="#0C2030" stroke-width="88" opacity="0.9" /><path d="M996 1966 Q1572 1326, 2148 1966" fill="none" stroke="#0C2030" stroke-width="87" opacity="0.75" /></g>
  <g filter="url(#soft1014)"><path d="M960 1536 Q1536 960, 2112 1536" fill="none" stroke="url(#symbol1014)" stroke-width="90" /><path d="M960 1755 Q1536 1152, 2112 1755" fill="none" stroke="url(#symbol1014)" stroke-width="88" opacity="0.9" /><path d="M960 1920 Q1536 1280, 2112 1920" fill="none" stroke="url(#symbol1014)" stroke-width="87" opacity="0.75" /></g>
  <rect x="138" y="138" width="2796" height="2796" rx="629" fill="#FFFFFF" filter="url(#grain1014)" opacity="0.18" />
</svg>
