<svg xmlns="http://www.w3.org/2000/svg" width="3072" height="3072" viewBox="0 0 3072 3072">
  <title>QuartzOS System Icon 082 - battery_05</title>
  <defs><linearGradient id="bg1081" x1="0%" y1="0%" x2="100%" y2="100%"><stop offset="0%" stop-color="#FF6AB3" /><stop offset="26%" stop-color="#FFD84D" /><stop offset="56%" stop-color="#36D1FF" /><stop offset="78%" stop-color="#2E8D96" /><stop offset="100%" stop-color="#0F2A2E" /></linearGradient><radialGradient id="sun1081" cx="45%" cy="29%" r="88%"><stop offset="0%" stop-color="#FFFFFF" stop-opacity="0.62" /><stop offset="30%" stop-color="#3B82FF" stop-opacity="0.35" /><stop offset="100%" stop-color="#3B82FF" stop-opacity="0" /></radialGradient><linearGradient id="glass1081" x1="0%" y1="0%" x2="0%" y2="100%"><stop offset="0%" stop-color="#FFFFFF" stop-opacity="0.70" /><stop offset="46%" stop-color="#FFFFFF" stop-opacity="0.26" /><stop offset="100%" stop-color="#FFFFFF" stop-opacity="0.00" /></linearGradient><linearGradient id="ribbon1081" x1="0%" y1="0%" x2="100%" y2="0%"><stop offset="0%" stop-color="#FF6AB3" stop-opacity="0.18" /><stop offset="34%" stop-color="#FFD84D" stop-opacity="0.72" /><stop offset="66%" stop-color="#36D1FF" stop-opacity="0.72" /><stop offset="100%" stop-color="#3B82FF" stop-opacity="0.18" /></linearGradient><radialGradient id="orb1081" cx="34%" cy="27%" r="74%"><stop offset="0%" stop-color="#FFFFFF" stop-opacity="0.84" /><stop offset="30%" stop-color="#FF6AB3" stop-opacity="0.52" /><stop offset="68%" stop-color="#FFD84D" stop-opacity="0.42" /><stop offset="100%" stop-color="#36D1FF" stop-opacity="0.20" /></radialGradient><linearGradient id="extrude1081" x1="0%" y1="0%" x2="0%" y2="100%"><stop offset="0%" stop-color="#15283C" stop-opacity="0.45" /><stop offset="100%" stop-color="#08131D" stop-opacity="0.06" /></linearGradient><linearGradient id="symbol1081" x1="0%" y1="0%" x2="100%" y2="100%"><stop offset="0%" stop-color="#FFFFFF" /><stop offset="100%" stop-color="#3B82FF" /></linearGradient><filter id="shadow1081" x="-40%" y="-40%" width="180%" height="180%"><feDropShadow dx="0" dy="49" stdDeviation="86" flood-color="#06111A" flood-opacity="0.54" /></filter><filter id="soft1081" x="-40%" y="-40%" width="180%" height="180%"><feDropShadow dx="0" dy="0" stdDeviation="14" flood-color="#FF6AB3" flood-opacity="0.45" /></filter><filter id="grain1081"><feTurbulence type="fractalNoise" baseFrequency="0.786" numOctaves="2" seed="1081" /><feColorMatrix type="saturate" values="0" /><feComponentTransfer><feFuncA type="table" tableValues="0 0.09" /></feComponentTransfer></filter></defs>
  <rect x="138" y="138" width="2796" height="2796" rx="629" fill="url(#bg1081)" filter="url(#shadow1081)" />
  <rect x="138" y="138" width="2796" height="2796" rx="629" fill="url(#sun1081)" />
  <g><circle cx="771" cy="1043" r="51" fill="#FFFFFF" opacity="0.132" /><circle cx="829" cy="2236" r="72" fill="#FFFFFF" opacity="0.209" /><circle cx="1290" cy="677" r="85" fill="#FFFFFF" opacity="0.190" /><circle cx="959" cy="462" r="121" fill="#FFFFFF" opacity="0.165" /><circle cx="1597" cy="2415" r="45" fill="#FFFFFF" opacity="0.205" /><circle cx="728" cy="2170" r="104" fill="#FFFFFF" opacity="0.157" /><circle cx="559" cy="582" r="42" fill="#FFFFFF" opacity="0.146" /><circle cx="1940" cy="423" r="76" fill="#FFFFFF" opacity="0.122" /><circle cx="1960" cy="2309" r="68" fill="#FFFFFF" opacity="0.079" /><circle cx="2631" cy="1368" r="105" fill="#FFFFFF" opacity="0.085" /><circle cx="1392" cy="1176" r="130" fill="#FFFFFF" opacity="0.226" /><circle cx="2409" cy="2158" r="48" fill="#FFFFFF" opacity="0.231" /><circle cx="1886" cy="1335" r="99" fill="#FFFFFF" opacity="0.229" /><circle cx="1536" cy="2559" r="40" fill="#FFFFFF" opacity="0.166" /><circle cx="2269" cy="1032" r="44" fill="#FFFFFF" opacity="0.127" /><circle cx="726" cy="2335" r="105" fill="#FFFFFF" opacity="0.089" /><circle cx="2578" cy="2652" r="159" fill="#FFFFFF" opacity="0.184" /><circle cx="1682" cy="1177" r="107" fill="#FFFFFF" opacity="0.078" /><circle cx="879" cy="1341" r="62" fill="#FFFFFF" opacity="0.087" /><circle cx="1354" cy="1179" r="48" fill="#FFFFFF" opacity="0.199" /><circle cx="2478" cy="2532" r="36" fill="#FFFFFF" opacity="0.061" /><circle cx="935" cy="2277" r="101" fill="#FFFFFF" opacity="0.181" /><circle cx="1854" cy="1280" r="157" fill="#FFFFFF" opacity="0.087" /><circle cx="1581" cy="2626" r="122" fill="#FFFFFF" opacity="0.087" /><circle cx="2667" cy="2490" r="132" fill="#FFFFFF" opacity="0.135" /><circle cx="856" cy="1523" r="128" fill="#FFFFFF" opacity="0.185" /><circle cx="1153" cy="549" r="104" fill="#FFFFFF" opacity="0.132" /><circle cx="1588" cy="2486" r="134" fill="#FFFFFF" opacity="0.208" /></g>
  <g><path d="M 346.1 577.0 L 2761.8 300.5 L 2761.8 786.3 L 346.1 1062.8 Z" fill="#FFFFFF" opacity="0.084" /><path d="M 255.6 898.5 L 2796.8 622.0 L 2796.8 1054.8 L 255.6 1331.2 Z" fill="#FFFFFF" opacity="0.188" /><path d="M 301.2 1110.7 L 2694.1 834.2 L 2694.1 1261.2 L 301.2 1537.7 Z" fill="#FFFFFF" opacity="0.091" /><path d="M 366.5 1354.5 L 2881.1 1078.0 L 2881.1 1516.7 L 366.5 1793.2 Z" fill="#FFFFFF" opacity="0.114" /><path d="M 167.5 1655.9 L 2916.2 1379.4 L 2916.2 1862.8 L 167.5 2139.3 Z" fill="#FFFFFF" opacity="0.235" /><path d="M 220.7 1931.7 L 2878.1 1655.2 L 2878.1 2123.2 L 220.7 2399.7 Z" fill="#FFFFFF" opacity="0.119" /><path d="M 215.7 2158.3 L 2705.4 1881.9 L 2705.4 2341.2 L 215.7 2617.7 Z" fill="#FFFFFF" opacity="0.164" /><path d="M 349.8 2484.3 L 2755.3 2207.8 L 2755.3 2676.5 L 349.8 2953.0 Z" fill="#FFFFFF" opacity="0.174" /></g>
  <g filter="url(#soft1081)"><g transform="rotate(-10.30 1536.0 1536.0)"><path d="M-368.6 567.7 C -225.8 523.8, -25.8 608.0, 107.5 572.1 C 250.4 573.0, 450.4 562.5, 583.7 610.3 C 726.5 624.6, 926.5 522.4, 1059.8 622.6 C 1202.7 640.9, 1402.7 536.3, 1536.0 601.6 C 1678.8 605.1, 1878.8 550.6, 2012.2 560.0 C 2155.0 559.6, 2355.0 573.8, 2488.3 523.0 C 2631.2 532.1, 2831.2 616.2, 2964.5 513.1 C 3107.3 500.9, 3307.3 617.4, 3440.6 536.3" fill="none" stroke="url(#ribbon1081)" stroke-width="58.4" stroke-linecap="round" stroke-opacity="0.120" /></g><g transform="rotate(-9.72 1536.0 1536.0)"><path d="M-368.6 734.3 C -241.7 746.8, -63.9 727.7, 54.6 784.9 C 181.6 792.8, 359.4 677.9, 477.9 795.8 C 604.8 796.9, 782.6 673.3, 901.1 769.3 C 1028.1 767.8, 1205.9 694.3, 1324.4 721.7 C 1451.3 723.1, 1629.1 742.9, 1747.6 681.7 C 1874.6 683.3, 2052.4 793.9, 2170.9 673.7 C 2297.9 684.7, 2475.6 796.4, 2594.1 702.4 C 2721.1 699.0, 2898.9 771.8, 3017.4 750.5 C 3144.4 745.7, 3322.1 720.7, 3440.6 788.8" fill="none" stroke="url(#ribbon1081)" stroke-width="54.4" stroke-linecap="round" stroke-opacity="0.146" /></g><g transform="rotate(-9.14 1536.0 1536.0)"><path d="M-368.6 886.9 C -254.4 923.0, -94.4 842.3, 12.3 955.2 C 126.6 974.5, 286.6 823.6, 393.2 943.5 C 507.5 951.8, 667.5 853.8, 774.1 897.5 C 888.4 898.6, 1048.4 880.1, 1155.1 845.0 C 1269.4 833.3, 1429.3 922.5, 1536.0 818.0 C 1650.3 826.7, 1810.3 958.2, 1916.9 832.8 C 2031.2 834.6, 2191.2 924.0, 2297.9 880.5 C 2412.1 882.9, 2572.1 892.0, 2678.8 932.0 C 2793.1 924.7, 2953.1 853.7, 3059.7 956.2 C 3174.0 933.2, 3334.0 803.9, 3440.6 938.4" fill="none" stroke="url(#ribbon1081)" stroke-width="50.4" stroke-linecap="round" stroke-opacity="0.172" /></g><g transform="rotate(-8.56 1536.0 1536.0)"><path d="M-368.6 1044.2 C -264.8 1017.1, -119.3 1059.6, -22.3 973.8 C 81.5 963.7, 227.0 1096.9, 324.0 973.8 C 427.8 973.9, 573.3 1069.1, 670.3 1016.6 C 774.1 1022.5, 919.6 1057.1, 1016.6 1076.1 C 1120.4 1066.6, 1265.9 1006.8, 1362.9 1116.3 C 1466.7 1119.6, 1612.2 991.6, 1709.1 1112.8 C 1813.0 1125.1, 1958.5 997.3, 2055.4 1067.7 C 2159.3 1066.8, 2304.8 1027.0, 2401.7 1008.4 C 2505.6 1007.0, 2651.1 1068.5, 2748.0 970.8 C 2851.9 962.7, 2997.4 1113.6, 3094.3 977.8 C 3198.2 980.7, 3343.7 1120.7, 3440.6 1025.1" fill="none" stroke="url(#ribbon1081)" stroke-width="46.4" stroke-linecap="round" stroke-opacity="0.198" /></g><g transform="rotate(-7.98 1536.0 1536.0)"><path d="M-368.6 1337.8 C -273.4 1351.2, -140.1 1332.9, -51.2 1405.7 C 44.0 1396.8, 177.4 1300.0, 266.2 1420.0 C 361.5 1405.4, 494.8 1242.0, 583.7 1384.4 C 678.9 1391.3, 812.2 1312.7, 901.1 1320.5 C 996.4 1315.5, 1129.7 1353.9, 1218.6 1267.1 C 1313.8 1273.0, 1447.1 1371.1, 1536.0 1256.6 C 1631.2 1241.7, 1764.6 1418.0, 1853.4 1295.3 C 1948.7 1284.1, 2082.0 1383.1, 2170.9 1359.8 C 2266.1 1362.0, 2399.4 1313.7, 2488.3 1411.0 C 2583.6 1416.2, 2716.9 1293.3, 2805.8 1417.7 C 2901.0 1431.8, 3034.3 1293.1, 3123.2 1376.0 C 3218.4 1364.9, 3351.8 1300.8, 3440.6 1311.1" fill="none" stroke="url(#ribbon1081)" stroke-width="42.4" stroke-linecap="round" stroke-opacity="0.224" /></g><g transform="rotate(-7.40 1536.0 1536.0)"><path d="M-368.6 1480.8 C -225.8 1504.1, -25.8 1466.5, 107.5 1434.9 C 250.4 1429.2, 450.4 1501.7, 583.7 1392.7 C 726.5 1427.5, 926.5 1517.7, 1059.8 1404.0 C 1202.7 1424.7, 1402.7 1560.6, 1536.0 1461.8 C 1678.8 1467.1, 1878.8 1503.1, 2012.2 1531.1 C 2155.0 1513.8, 2355.0 1460.5, 2488.3 1569.9 C 2631.2 1605.1, 2831.2 1437.2, 2964.5 1554.6 C 3107.3 1571.3, 3307.3 1410.6, 3440.6 1494.5" fill="none" stroke="url(#ribbon1081)" stroke-width="38.4" stroke-linecap="round" stroke-opacity="0.250" /></g><g transform="rotate(-6.82 1536.0 1536.0)"><path d="M-368.6 1653.3 C -241.7 1538.8, -63.9 1721.6, 54.6 1618.4 C 181.6 1619.6, 359.4 1685.7, 477.9 1694.4 C 604.8 1694.4, 782.6 1629.1, 901.1 1745.5 C 1028.1 1766.5, 1205.9 1607.7, 1324.4 1740.6 C 1451.3 1772.3, 1629.1 1589.4, 1747.6 1682.8 C 1874.6 1677.4, 2052.4 1637.9, 2170.9 1607.0 C 2297.9 1603.0, 2475.6 1691.1, 2594.1 1559.3 C 2721.1 1585.0, 2898.9 1720.8, 3017.4 1568.6 C 3144.4 1547.7, 3322.1 1686.4, 3440.6 1629.2" fill="none" stroke="url(#ribbon1081)" stroke-width="34.4" stroke-linecap="round" stroke-opacity="0.276" /></g><g transform="rotate(-6.24 1536.0 1536.0)"><path d="M-368.6 1892.9 C -254.4 1831.8, -94.4 1949.1, 12.3 1792.6 C 126.6 1811.5, 286.6 1976.3, 393.2 1801.4 C 507.5 1826.9, 667.5 1926.0, 774.1 1865.7 C 888.4 1857.6, 1048.4 1913.7, 1155.1 1946.5 C 1269.4 1936.0, 1429.3 1855.2, 1536.0 1994.8 C 1650.3 2002.4, 1810.3 1862.2, 1916.9 1981.3 C 2031.2 1981.5, 2191.2 1821.2, 2297.9 1914.2 C 2412.1 1912.5, 2572.1 1871.7, 2678.8 1834.1 C 2793.1 1819.5, 2953.1 1955.1, 3059.7 1789.7 C 3174.0 1796.1, 3334.0 2013.4, 3440.6 1807.9" fill="none" stroke="url(#ribbon1081)" stroke-width="30.4" stroke-linecap="round" stroke-opacity="0.302" /></g><g transform="rotate(-5.66 1536.0 1536.0)"><path d="M-368.6 2031.4 C -264.8 2010.6, -119.3 2046.8, -22.3 1939.4 C 81.5 1952.5, 227.0 2094.1, 324.0 1921.8 C 427.8 1959.1, 573.3 2150.7, 670.3 1970.6 C 774.1 1951.6, 919.6 2057.8, 1016.6 2056.4 C 1120.4 2049.1, 1265.9 2021.1, 1362.9 2127.0 C 1466.7 2097.8, 1612.2 1927.5, 1709.1 2139.7 C 1813.0 2115.5, 1958.5 1965.9, 2055.4 2086.7 C 2159.3 2102.1, 2304.8 1976.7, 2401.7 2000.2 C 2505.6 2000.1, 2651.1 2062.1, 2748.0 1932.7 C 2851.9 1955.6, 2997.4 2111.3, 3094.3 1925.0 C 3198.2 1944.5, 3343.7 2071.6, 3440.6 1982.0" fill="none" stroke="url(#ribbon1081)" stroke-width="26.4" stroke-linecap="round" stroke-opacity="0.328" /></g><g transform="rotate(-5.08 1536.0 1536.0)"><path d="M-368.6 2264.6 C -273.4 2275.8, -140.1 2261.1, -51.2 2356.2 C 44.0 2320.9, 177.4 2229.0, 266.2 2382.8 C 361.5 2411.6, 494.8 2158.4, 583.7 2337.7 C 678.9 2355.5, 812.2 2223.7, 901.1 2248.3 C 996.4 2250.1, 1129.7 2281.7, 1218.6 2168.8 C 1313.8 2154.4, 1447.1 2312.4, 1536.0 2147.4 C 1631.2 2187.2, 1764.6 2404.1, 1853.4 2197.1 C 1948.7 2223.2, 2082.0 2319.2, 2170.9 2287.8 C 2266.1 2292.0, 2399.4 2246.8, 2488.3 2364.4 C 2583.6 2398.6, 2716.9 2145.1, 2805.8 2380.5 C 2901.0 2387.5, 3034.3 2161.6, 3123.2 2326.3 C 3218.4 2307.8, 3351.8 2219.4, 3440.6 2234.7" fill="none" stroke="url(#ribbon1081)" stroke-width="22.4" stroke-linecap="round" stroke-opacity="0.354" /></g><g transform="rotate(-4.50 1536.0 1536.0)"><path d="M-368.6 2437.5 C -225.8 2411.6, -25.8 2453.8, 107.5 2507.0 C 250.4 2516.0, 450.4 2410.0, 583.7 2561.3 C 726.5 2590.0, 926.5 2315.3, 1059.8 2540.5 C 1202.7 2523.1, 1402.7 2353.5, 1536.0 2457.2 C 1678.8 2464.6, 1878.8 2417.3, 2012.2 2362.0 C 2155.0 2377.4, 2355.0 2500.6, 2488.3 2312.6 C 2631.2 2276.7, 2831.2 2581.6, 2964.5 2339.0 C 3107.3 2321.5, 3307.3 2508.9, 3440.6 2425.1" fill="none" stroke="url(#ribbon1081)" stroke-width="18.4" stroke-linecap="round" stroke-opacity="0.380" /></g><g transform="rotate(-3.92 1536.0 1536.0)"><path d="M-368.6 2677.0 C -241.7 2540.6, -63.9 2828.8, 54.6 2598.5 C 181.6 2601.6, 359.4 2731.0, 477.9 2699.3 C 604.8 2696.7, 782.6 2661.7, 901.1 2786.6 C 1028.1 2791.3, 1205.9 2561.7, 1324.4 2807.5 C 1451.3 2849.3, 1629.1 2618.9, 1747.6 2749.2 C 1874.6 2754.6, 2052.4 2602.8, 2170.9 2647.1 C 2297.9 2657.0, 2475.6 2702.7, 2594.1 2563.2 C 2721.1 2545.0, 2898.9 2773.4, 3017.4 2548.4 C 3144.4 2532.7, 3322.1 2809.1, 3440.6 2611.5" fill="none" stroke="url(#ribbon1081)" stroke-width="14.4" stroke-linecap="round" stroke-opacity="0.406" /></g></g>
  <g><ellipse cx="1536.0" cy="1551.9" rx="728.6" ry="605.7" fill="url(#extrude1081)" opacity="0.220" /><ellipse cx="1536.0" cy="1567.7" rx="736.0" ry="610.9" fill="url(#extrude1081)" opacity="0.205" /><ellipse cx="1536.0" cy="1583.6" rx="743.4" ry="616.1" fill="url(#extrude1081)" opacity="0.190" /><ellipse cx="1536.0" cy="1599.5" rx="750.9" ry="621.3" fill="url(#extrude1081)" opacity="0.175" /><ellipse cx="1536.0" cy="1615.4" rx="758.3" ry="626.5" fill="url(#extrude1081)" opacity="0.160" /><ellipse cx="1536.0" cy="1631.2" rx="765.7" ry="631.7" fill="url(#extrude1081)" opacity="0.145" /><ellipse cx="1536.0" cy="1647.1" rx="773.2" ry="636.9" fill="url(#extrude1081)" opacity="0.130" /><ellipse cx="1536.0" cy="1663.0" rx="780.6" ry="642.1" fill="url(#extrude1081)" opacity="0.115" /><ellipse cx="1536.0" cy="1678.8" rx="788.0" ry="647.4" fill="url(#extrude1081)" opacity="0.100" /><ellipse cx="1536.0" cy="1694.7" rx="795.5" ry="652.6" fill="url(#extrude1081)" opacity="0.085" /><ellipse cx="1536.0" cy="1710.6" rx="802.9" ry="657.8" fill="url(#extrude1081)" opacity="0.070" /><ellipse cx="1536.0" cy="1726.5" rx="810.3" ry="663.0" fill="url(#extrude1081)" opacity="0.055" /></g>
  <ellipse cx="1536.0" cy="1726.5" rx="773.2" ry="214.9" fill="#0B1D2D" opacity="0.24" />
  <ellipse cx="1536.0" cy="1536.0" rx="743.4" ry="651.3" fill="url(#orb1081)" stroke="#FFFFFF" stroke-opacity="0.42" stroke-width="7" />
  <ellipse cx="1431.9" cy="1392.7" rx="505.5" ry="299.6" fill="#FFFFFF" opacity="0.25" />
  <path d="M 199.4 399.4 C 1013.8 -30.7, 2058.2 768.0, 2872.6 215.0 L 2872.6 983.0 C 2089.0 1228.8, 1013.8 307.2, 199.4 1167.4 Z" fill="url(#glass1081)" />
  <rect x="270" y="270" width="2532" height="2532" rx="430" fill="none" stroke="#FFFFFF" stroke-opacity="0.30" stroke-width="5" />
  <rect x="288.4" y="288.4" width="2495.1" height="2495.1" rx="399" fill="none" stroke="#FF6AB3" stroke-opacity="0.35" stroke-width="3" />
  <g filter="url(#soft1081)"><rect x="1386" y="1662" width="64" height="2" fill="#FFFFFF" opacity="0.386" /><rect x="1417" y="1631" width="2" height="64" fill="#FFFFFF" opacity="0.386" /><rect x="2585" y="2180" width="28" height="2" fill="#FFFFFF" opacity="0.428" /><rect x="2598" y="2167" width="2" height="28" fill="#FFFFFF" opacity="0.428" /><rect x="344" y="292" width="44" height="2" fill="#FFFFFF" opacity="0.559" /><rect x="365" y="271" width="2" height="44" fill="#FFFFFF" opacity="0.559" /><rect x="1023" y="1404" width="46" height="2" fill="#FFFFFF" opacity="0.626" /><rect x="1045" y="1382" width="2" height="46" fill="#FFFFFF" opacity="0.626" /><rect x="1763" y="1882" width="70" height="2" fill="#FFFFFF" opacity="0.573" /><rect x="1797" y="1848" width="2" height="70" fill="#FFFFFF" opacity="0.573" /><rect x="1983" y="2717" width="72" height="2" fill="#FFFFFF" opacity="0.682" /><rect x="2018" y="2682" width="2" height="72" fill="#FFFFFF" opacity="0.682" /><rect x="1541" y="1948" width="68" height="2" fill="#FFFFFF" opacity="0.664" /><rect x="1574" y="1915" width="2" height="68" fill="#FFFFFF" opacity="0.664" /><rect x="1629" y="2251" width="64" height="2" fill="#FFFFFF" opacity="0.647" /><rect x="1660" y="2220" width="2" height="64" fill="#FFFFFF" opacity="0.647" /><rect x="1999" y="2716" width="34" height="2" fill="#FFFFFF" opacity="0.681" /><rect x="2015" y="2700" width="2" height="34" fill="#FFFFFF" opacity="0.681" /><rect x="1441" y="2408" width="62" height="2" fill="#FFFFFF" opacity="0.444" /><rect x="1471" y="2378" width="2" height="62" fill="#FFFFFF" opacity="0.444" /><rect x="1852" y="1101" width="26" height="2" fill="#FFFFFF" opacity="0.432" /><rect x="1864" y="1089" width="2" height="26" fill="#FFFFFF" opacity="0.432" /><rect x="832" y="859" width="84" height="2" fill="#FFFFFF" opacity="0.561" /><rect x="873" y="818" width="2" height="84" fill="#FFFFFF" opacity="0.561" /><rect x="2763" y="2664" width="48" height="2" fill="#FFFFFF" opacity="0.466" /><rect x="2786" y="2641" width="2" height="48" fill="#FFFFFF" opacity="0.466" /><rect x="1233" y="496" width="74" height="2" fill="#FFFFFF" opacity="0.457" /><rect x="1269" y="460" width="2" height="74" fill="#FFFFFF" opacity="0.457" /><rect x="2150" y="1095" width="56" height="2" fill="#FFFFFF" opacity="0.559" /><rect x="2177" y="1068" width="2" height="56" fill="#FFFFFF" opacity="0.559" /><rect x="1418" y="2520" width="58" height="2" fill="#FFFFFF" opacity="0.699" /><rect x="1446" y="2492" width="2" height="58" fill="#FFFFFF" opacity="0.699" /><rect x="2445" y="1298" width="84" height="2" fill="#FFFFFF" opacity="0.848" /><rect x="2486" y="1257" width="2" height="84" fill="#FFFFFF" opacity="0.848" /><rect x="1924" y="332" width="42" height="2" fill="#FFFFFF" opacity="0.612" /><rect x="1944" y="312" width="2" height="42" fill="#FFFFFF" opacity="0.612" /><rect x="1814" y="448" width="24" height="2" fill="#FFFFFF" opacity="0.655" /><rect x="1825" y="437" width="2" height="24" fill="#FFFFFF" opacity="0.655" /><rect x="755" y="1911" width="42" height="2" fill="#FFFFFF" opacity="0.763" /><rect x="775" y="1891" width="2" height="42" fill="#FFFFFF" opacity="0.763" /><rect x="1059" y="2574" width="60" height="2" fill="#FFFFFF" opacity="0.514" /><rect x="1088" y="2545" width="2" height="60" fill="#FFFFFF" opacity="0.514" /><rect x="595" y="2602" width="64" height="2" fill="#FFFFFF" opacity="0.396" /><rect x="626" y="2571" width="2" height="64" fill="#FFFFFF" opacity="0.396" /><rect x="2386" y="1191" width="84" height="2" fill="#FFFFFF" opacity="0.792" /><rect x="2427" y="1150" width="2" height="84" fill="#FFFFFF" opacity="0.792" /><rect x="2339" y="1515" width="76" height="2" fill="#FFFFFF" opacity="0.820" /><rect x="2376" y="1478" width="2" height="76" fill="#FFFFFF" opacity="0.820" /><rect x="1537" y="499" width="84" height="2" fill="#FFFFFF" opacity="0.759" /><rect x="1578" y="458" width="2" height="84" fill="#FFFFFF" opacity="0.759" /><rect x="2511" y="1076" width="50" height="2" fill="#FFFFFF" opacity="0.433" /><rect x="2535" y="1052" width="2" height="50" fill="#FFFFFF" opacity="0.433" /></g>
  <g opacity="0.52"><rect x="1023" y="1070" width="768" height="768" rx="128" fill="none" stroke="#0C2030" stroke-width="90" /><path d="M1023 1582 L1572 1363 L2121 1582 L1572 2094 Z" fill="none" stroke="#0C2030" stroke-width="90" stroke-linejoin="round" /></g>
  <g filter="url(#soft1081)"><rect x="987" y="1024" width="768" height="768" rx="128" fill="none" stroke="url(#symbol1081)" stroke-width="90" /><path d="M987 1536 L1536 1317 L2085 1536 L1536 2048 Z" fill="none" stroke="url(#symbol1081)" stroke-width="90" stroke-linejoin="round" /></g>
  <rect x="138" y="138" width="2796" height="2796" rx="629" fill="#FFFFFF" filter="url(#grain1081)" opacity="0.18" />
</svg>
