<svg xmlns="http://www.w3.org/2000/svg" width="3072" height="3072" viewBox="0 0 3072 3072">
  <title>QuartzOS System Icon 022 - battery_02</title>
  <defs><linearGradient id="bg1021" x1="0%" y1="0%" x2="100%" y2="100%"><stop offset="0%" stop-color="#53E3A6" /><stop offset="26%" stop-color="#3B82FF" /><stop offset="56%" stop-color="#FF6AB3" /><stop offset="78%" stop-color="#2E8D96" /><stop offset="100%" stop-color="#0F2A2E" /></linearGradient><radialGradient id="sun1021" cx="31%" cy="25%" r="88%"><stop offset="0%" stop-color="#FFFFFF" stop-opacity="0.62" /><stop offset="30%" stop-color="#FF9F43" stop-opacity="0.35" /><stop offset="100%" stop-color="#FF9F43" stop-opacity="0" /></radialGradient><linearGradient id="glass1021" x1="0%" y1="0%" x2="0%" y2="100%"><stop offset="0%" stop-color="#FFFFFF" stop-opacity="0.70" /><stop offset="46%" stop-color="#FFFFFF" stop-opacity="0.26" /><stop offset="100%" stop-color="#FFFFFF" stop-opacity="0.00" /></linearGradient><linearGradient id="ribbon1021" x1="0%" y1="0%" x2="100%" y2="0%"><stop offset="0%" stop-color="#53E3A6" stop-opacity="0.18" /><stop offset="34%" stop-color="#3B82FF" stop-opacity="0.72" /><stop offset="66%" stop-color="#FF6AB3" stop-opacity="0.72" /><stop offset="100%" stop-color="#FF9F43" stop-opacity="0.18" /></linearGradient><radialGradient id="orb1021" cx="34%" cy="27%" r="74%"><stop offset="0%" stop-color="#FFFFFF" stop-opacity="0.84" /><stop offset="30%" stop-color="#53E3A6" stop-opacity="0.52" /><stop offset="68%" stop-color="#3B82FF" stop-opacity="0.42" /><stop offset="100%" stop-color="#FF6AB3" stop-opacity="0.20" /></radialGradient><linearGradient id="extrude1021" x1="0%" y1="0%" x2="0%" y2="100%"><stop offset="0%" stop-color="#15283C" stop-opacity="0.45" /><stop offset="100%" stop-color="#08131D" stop-opacity="0.06" /></linearGradient><linearGradient id="symbol1021" x1="0%" y1="0%" x2="100%" y2="100%"><stop offset="0%" stop-color="#FFFFFF" /><stop offset="100%" stop-color="#FF9F43" /></linearGradient><filter id="shadow1021" x="-40%" y="-40%" width="180%" height="180%"><feDropShadow dx="0" dy="49" stdDeviation="86" flood-color="#06111A" flood-opacity="0.54" /></filter><filter id="soft1021" x="-40%" y="-40%" width="180%" height="180%"><feDropShadow dx="0" dy="0" stdDeviation="14" flood-color="#53E3A6" flood-opacity="0.45" /></filter><filter id="grain1021"><feTurbulence type="fractalNoise" baseFrequency="0.815" numOctaves="2" seed="1021" /><feColorMatrix type="saturate" values="0" /><feComponentTransfer><feFuncA type="table" tableValues="0 0.09" /></feComponentTransfer></filter></defs>
  <rect x="138" y="138" width="2796" height="2796" rx="629" fill="url(#bg1021)" filter="url(#shadow1021)" />
  <rect x="138" y="138" width="2796" height="2796" rx="629" fill="url(#sun1021)" />
  <g><circle cx="1589" cy="1441" r="39" fill="#FFFFFF" opacity="0.150" /><circle cx="1822" cy="1718" r="125" fill="#FFFFFF" opacity="0.086" /><circle cx="1233" cy="1058" r="72" fill="#FFFFFF" opacity="0.180" /><circle cx="1130" cy="913" r="49" fill="#FFFFFF" opacity="0.124" /><circle cx="1002" cy="1887" r="43" fill="#FFFFFF" opacity="0.214" /><circle cx="2186" cy="1678" r="126" fill="#FFFFFF" opacity="0.114" /><circle cx="2571" cy="1640" r="148" fill="#FFFFFF" opacity="0.230" /><circle cx="910" cy="1327" r="65" fill="#FFFFFF" opacity="0.117" /><circle cx="1876" cy="1726" r="115" fill="#FFFFFF" opacity="0.094" /><circle cx="1892" cy="2539" r="153" fill="#FFFFFF" opacity="0.205" /><circle cx="1768" cy="1043" r="97" fill="#FFFFFF" opacity="0.099" /><circle cx="1634" cy="640" r="148" fill="#FFFFFF" opacity="0.188" /><circle cx="2036" cy="1901" r="75" fill="#FFFFFF" opacity="0.159" /><circle cx="536" cy="2172" r="109" fill="#FFFFFF" opacity="0.174" /><circle cx="1837" cy="1710" r="93" fill="#FFFFFF" opacity="0.193" /><circle cx="1607" cy="488" r="101" fill="#FFFFFF" opacity="0.142" /><circle cx="525" cy="1600" r="107" fill="#FFFFFF" opacity="0.064" /><circle cx="568" cy="1819" r="121" fill="#FFFFFF" opacity="0.162" /><circle cx="1536" cy="808" r="48" fill="#FFFFFF" opacity="0.165" /><circle cx="2358" cy="1161" r="121" fill="#FFFFFF" opacity="0.168" /><circle cx="666" cy="801" r="119" fill="#FFFFFF" opacity="0.118" /><circle cx="1023" cy="1454" r="140" fill="#FFFFFF" opacity="0.202" /><circle cx="762" cy="2360" r="79" fill="#FFFFFF" opacity="0.103" /><circle cx="2359" cy="1752" r="158" fill="#FFFFFF" opacity="0.211" /><circle cx="1451" cy="419" r="97" fill="#FFFFFF" opacity="0.122" /><circle cx="581" cy="2323" r="51" fill="#FFFFFF" opacity="0.134" /><circle cx="1286" cy="617" r="120" fill="#FFFFFF" opacity="0.087" /><circle cx="2431" cy="309" r="143" fill="#FFFFFF" opacity="0.078" /></g>
  <g><path d="M 367.5 577.8 L 2749.1 301.3 L 2749.1 776.7 L 367.5 1053.2 Z" fill="#FFFFFF" opacity="0.098" /><path d="M 339.2 906.4 L 2693.7 630.0 L 2693.7 1051.4 L 339.2 1327.9 Z" fill="#FFFFFF" opacity="0.178" /><path d="M 216.3 1172.0 L 2830.0 895.5 L 2830.0 1342.1 L 216.3 1618.6 Z" fill="#FFFFFF" opacity="0.143" /><path d="M 353.6 1361.3 L 2705.9 1084.8 L 2705.9 1545.6 L 353.6 1822.1 Z" fill="#FFFFFF" opacity="0.143" /><path d="M 204.4 1651.4 L 2716.4 1374.9 L 2716.4 1827.8 L 204.4 2104.2 Z" fill="#FFFFFF" opacity="0.148" /><path d="M 353.0 1960.8 L 2848.0 1684.3 L 2848.0 2129.4 L 353.0 2405.9 Z" fill="#FFFFFF" opacity="0.109" /><path d="M 373.0 2143.6 L 2816.0 1867.1 L 2816.0 2334.1 L 373.0 2610.5 Z" fill="#FFFFFF" opacity="0.202" /><path d="M 358.6 2411.7 L 2808.6 2135.2 L 2808.6 2585.3 L 358.6 2861.8 Z" fill="#FFFFFF" opacity="0.221" /></g>
  <g filter="url(#soft1021)"><g transform="rotate(-12.49 1536.0 1536.0)"><path d="M-368.6 566.7 C -225.8 592.4, -25.8 544.1, 107.5 565.8 C 250.4 565.7, 450.4 567.5, 583.7 526.4 C 726.5 525.4, 926.5 597.9, 1059.8 511.4 C 1202.7 489.8, 1402.7 598.5, 1536.0 529.9 C 1678.8 536.1, 1878.8 590.7, 2012.2 570.7 C 2155.0 572.3, 2355.0 564.0, 2488.3 609.1 C 2631.2 623.0, 2831.2 531.8, 2964.5 621.7 C 3107.3 612.4, 3307.3 546.6, 3440.6 600.9" fill="none" stroke="url(#ribbon1021)" stroke-width="58.4" stroke-linecap="round" stroke-opacity="0.120" /></g><g transform="rotate(-11.91 1536.0 1536.0)"><path d="M-368.6 697.8 C -241.7 700.8, -63.9 695.5, 54.6 745.7 C 181.6 742.1, 359.4 651.6, 477.9 759.8 C 604.8 760.2, 782.6 669.3, 901.1 736.3 C 1028.1 751.4, 1205.9 672.9, 1324.4 689.4 C 1451.3 687.8, 1629.1 703.4, 1747.6 647.6 C 1874.6 634.7, 2052.4 753.4, 2170.9 636.3 C 2297.9 642.4, 2475.6 719.7, 2594.1 662.2 C 2721.1 670.2, 2898.9 724.9, 3017.4 709.8 C 3144.4 705.6, 3322.1 692.0, 3440.6 750.1" fill="none" stroke="url(#ribbon1021)" stroke-width="54.4" stroke-linecap="round" stroke-opacity="0.146" /></g><g transform="rotate(-11.33 1536.0 1536.0)"><path d="M-368.6 853.2 C -254.4 903.0, -94.4 784.9, 12.3 916.4 C 126.6 893.9, 286.6 781.7, 393.2 876.7 C 507.5 882.6, 667.5 843.7, 774.1 822.7 C 888.4 829.5, 1048.4 880.4, 1155.1 787.2 C 1269.4 783.2, 1429.3 923.8, 1536.0 791.8 C 1650.3 781.8, 1810.3 913.4, 1916.9 833.6 C 2031.2 830.6, 2191.2 863.1, 2297.9 887.3 C 2412.1 888.7, 2572.1 836.2, 2678.8 920.4 C 2793.1 946.2, 2953.1 830.2, 3059.7 912.7 C 3174.0 907.6, 3334.0 828.2, 3440.6 868.9" fill="none" stroke="url(#ribbon1021)" stroke-width="50.4" stroke-linecap="round" stroke-opacity="0.172" /></g><g transform="rotate(-10.75 1536.0 1536.0)"><path d="M-368.6 1066.3 C -264.8 1147.4, -119.3 977.5, -22.3 1129.3 C 81.5 1139.1, 227.0 1039.4, 324.0 1079.0 C 427.8 1081.3, 573.3 1052.5, 670.3 1021.0 C 774.1 1010.5, 919.6 1088.1, 1016.6 990.5 C 1120.4 1008.7, 1265.9 1144.6, 1362.9 1006.0 C 1466.7 1002.3, 1612.2 1119.0, 1709.1 1058.0 C 1813.0 1057.4, 1958.5 1072.4, 2055.4 1115.1 C 2159.3 1131.8, 2304.8 1035.7, 2401.7 1142.6 C 2505.6 1167.0, 2651.1 1023.4, 2748.0 1123.8 C 2851.9 1145.5, 2997.4 1017.4, 3094.3 1070.1 C 3198.2 1070.7, 3343.7 1063.4, 3440.6 1014.2" fill="none" stroke="url(#ribbon1021)" stroke-width="46.4" stroke-linecap="round" stroke-opacity="0.198" /></g><g transform="rotate(-10.17 1536.0 1536.0)"><path d="M-368.6 1273.4 C -273.4 1326.6, -140.1 1230.7, -51.2 1246.8 C 44.0 1242.2, 177.4 1289.8, 266.2 1198.0 C 361.5 1198.9, 494.8 1304.6, 583.7 1195.0 C 678.9 1218.8, 812.2 1362.3, 901.1 1239.6 C 996.4 1251.2, 1129.7 1302.6, 1218.6 1304.6 C 1313.8 1295.3, 1447.1 1242.6, 1536.0 1350.8 C 1631.2 1380.0, 1764.6 1241.6, 1853.4 1350.0 C 1948.7 1339.1, 2082.0 1228.9, 2170.9 1302.7 C 2266.1 1295.8, 2399.4 1245.7, 2488.3 1237.7 C 2583.6 1248.1, 2716.9 1304.9, 2805.8 1194.3 C 2901.0 1181.3, 3034.3 1308.0, 3123.2 1198.9 C 3218.4 1225.3, 3351.8 1351.4, 3440.6 1248.7" fill="none" stroke="url(#ribbon1021)" stroke-width="42.4" stroke-linecap="round" stroke-opacity="0.224" /></g><g transform="rotate(-9.59 1536.0 1536.0)"><path d="M-368.6 1505.5 C -225.8 1476.6, -25.8 1534.7, 107.5 1545.2 C 250.4 1548.7, 450.4 1482.9, 583.7 1591.6 C 726.5 1562.5, 926.5 1461.0, 1059.8 1585.8 C 1202.7 1617.4, 1402.7 1479.1, 1536.0 1531.3 C 1678.8 1534.3, 1878.8 1485.9, 2012.2 1461.1 C 2155.0 1469.7, 2355.0 1557.3, 2488.3 1417.9 C 2631.2 1436.0, 2831.2 1559.4, 2964.5 1427.8 C 3107.3 1444.9, 3307.3 1560.5, 3440.6 1484.8" fill="none" stroke="url(#ribbon1021)" stroke-width="38.4" stroke-linecap="round" stroke-opacity="0.250" /></g><g transform="rotate(-9.01 1536.0 1536.0)"><path d="M-368.6 1712.6 C -241.7 1735.8, -63.9 1705.6, 54.6 1794.8 C 181.6 1767.6, 359.4 1662.6, 477.9 1807.7 C 604.8 1838.4, 782.6 1637.5, 901.1 1762.9 C 1028.1 1751.4, 1205.9 1685.2, 1324.4 1687.6 C 1451.3 1696.0, 1629.1 1732.5, 1747.6 1627.4 C 1874.6 1630.7, 2052.4 1809.6, 2170.9 1618.9 C 2297.9 1640.4, 2475.6 1817.1, 2594.1 1667.2 C 2721.1 1662.8, 2898.9 1746.8, 3017.4 1743.1 C 3144.4 1736.3, 3322.1 1697.6, 3440.6 1800.4" fill="none" stroke="url(#ribbon1021)" stroke-width="34.4" stroke-linecap="round" stroke-opacity="0.276" /></g><g transform="rotate(-8.43 1536.0 1536.0)"><path d="M-368.6 1836.6 C -254.4 1927.2, -94.4 1796.3, 12.3 1866.2 C 126.6 1877.8, 286.6 1816.8, 393.2 1785.2 C 507.5 1781.2, 667.5 1890.2, 774.1 1735.3 C 888.4 1709.4, 1048.4 1867.3, 1155.1 1746.9 C 1269.4 1768.4, 1429.3 1937.9, 1536.0 1813.0 C 1650.3 1815.5, 1810.3 1843.8, 1916.9 1893.3 C 2031.2 1879.6, 2191.2 1789.5, 2297.9 1939.3 C 2412.1 1941.9, 2572.1 1778.7, 2678.8 1923.0 C 2793.1 1941.9, 2953.1 1789.9, 3059.7 1854.3 C 3174.0 1853.0, 3334.0 1825.4, 3440.6 1774.9" fill="none" stroke="url(#ribbon1021)" stroke-width="30.4" stroke-linecap="round" stroke-opacity="0.302" /></g><g transform="rotate(-7.85 1536.0 1536.0)"><path d="M-368.6 2045.0 C -264.8 1964.3, -119.3 2107.4, -22.3 2068.5 C 81.5 2070.8, 227.0 2031.6, 324.0 2139.8 C 427.8 2105.3, 573.3 1994.8, 670.3 2153.5 C 774.1 2165.1, 919.6 1970.4, 1016.6 2101.4 C 1120.4 2115.0, 1265.9 2000.6, 1362.9 2015.0 C 1466.7 2003.5, 1612.2 2058.0, 1709.1 1946.8 C 1813.0 1969.3, 1958.5 2108.2, 2055.4 1938.1 C 2159.3 1957.7, 2304.8 2121.6, 2401.7 1994.2 C 2505.6 1989.1, 2651.1 2065.0, 2748.0 2081.1 C 2851.9 2074.6, 2997.4 2024.0, 3094.3 2146.1 C 3198.2 2155.0, 3343.7 1952.5, 3440.6 2149.7" fill="none" stroke="url(#ribbon1021)" stroke-width="26.4" stroke-linecap="round" stroke-opacity="0.328" /></g><g transform="rotate(-7.27 1536.0 1536.0)"><path d="M-368.6 2313.9 C -273.4 2244.8, -140.1 2377.0, -51.2 2197.8 C 44.0 2156.7, 177.4 2368.6, 266.2 2251.4 C 361.5 2248.3, 494.8 2347.1, 583.7 2342.9 C 678.9 2350.2, 812.2 2304.9, 901.1 2416.8 C 996.4 2425.8, 1129.7 2263.4, 1218.6 2428.2 C 1313.8 2468.0, 1447.1 2273.9, 1536.0 2370.3 C 1631.2 2389.5, 1764.6 2286.7, 1853.4 2278.2 C 1948.7 2282.6, 2082.0 2331.0, 2170.9 2207.6 C 2266.1 2234.2, 2399.4 2435.0, 2488.3 2201.5 C 2583.6 2181.8, 2716.9 2372.5, 2805.8 2263.6 C 2901.0 2281.5, 3034.3 2338.7, 3123.2 2356.1 C 3218.4 2371.4, 3351.8 2292.9, 3440.6 2423.0" fill="none" stroke="url(#ribbon1021)" stroke-width="22.4" stroke-linecap="round" stroke-opacity="0.354" /></g><g transform="rotate(-6.69 1536.0 1536.0)"><path d="M-368.6 2513.2 C -225.8 2435.3, -25.8 2571.0, 107.5 2391.9 C 250.4 2358.8, 450.4 2553.7, 583.7 2404.5 C 726.5 2377.2, 926.5 2576.2, 1059.8 2483.1 C 1202.7 2487.2, 1402.7 2549.3, 1536.0 2579.9 C 1678.8 2562.6, 1878.8 2436.7, 2012.2 2636.4 C 2155.0 2666.6, 2355.0 2399.8, 2488.3 2618.1 C 2631.2 2577.0, 2831.2 2459.4, 2964.5 2536.2 C 3107.3 2535.2, 3307.3 2491.2, 3440.6 2440.4" fill="none" stroke="url(#ribbon1021)" stroke-width="18.4" stroke-linecap="round" stroke-opacity="0.380" /></g><g transform="rotate(-6.11 1536.0 1536.0)"><path d="M-368.6 2639.3 C -241.7 2613.6, -63.9 2664.2, 54.6 2709.8 C 181.6 2696.0, 359.4 2563.7, 477.9 2769.4 C 604.8 2776.2, 782.6 2509.7, 901.1 2750.0 C 1028.1 2751.6, 1205.9 2508.0, 1324.4 2663.5 C 1451.3 2663.9, 1629.1 2628.9, 1747.6 2562.4 C 1874.6 2581.4, 2052.4 2662.5, 2170.9 2507.9 C 2297.9 2497.6, 2475.6 2684.4, 2594.1 2533.1 C 2721.1 2530.9, 2898.9 2682.5, 3017.4 2622.8 C 3144.4 2626.9, 3322.1 2658.9, 3440.6 2722.5" fill="none" stroke="url(#ribbon1021)" stroke-width="14.4" stroke-linecap="round" stroke-opacity="0.406" /></g></g>
  <g><ellipse cx="1536.0" cy="1551.9" rx="728.6" ry="605.7" fill="url(#extrude1021)" opacity="0.220" /><ellipse cx="1536.0" cy="1567.7" rx="736.0" ry="610.9" fill="url(#extrude1021)" opacity="0.205" /><ellipse cx="1536.0" cy="1583.6" rx="743.4" ry="616.1" fill="url(#extrude1021)" opacity="0.190" /><ellipse cx="1536.0" cy="1599.5" rx="750.9" ry="621.3" fill="url(#extrude1021)" opacity="0.175" /><ellipse cx="1536.0" cy="1615.4" rx="758.3" ry="626.5" fill="url(#extrude1021)" opacity="0.160" /><ellipse cx="1536.0" cy="1631.2" rx="765.7" ry="631.7" fill="url(#extrude1021)" opacity="0.145" /><ellipse cx="1536.0" cy="1647.1" rx="773.2" ry="636.9" fill="url(#extrude1021)" opacity="0.130" /><ellipse cx="1536.0" cy="1663.0" rx="780.6" ry="642.1" fill="url(#extrude1021)" opacity="0.115" /><ellipse cx="1536.0" cy="1678.8" rx="788.0" ry="647.4" fill="url(#extrude1021)" opacity="0.100" /><ellipse cx="1536.0" cy="1694.7" rx="795.5" ry="652.6" fill="url(#extrude1021)" opacity="0.085" /><ellipse cx="1536.0" cy="1710.6" rx="802.9" ry="657.8" fill="url(#extrude1021)" opacity="0.070" /><ellipse cx="1536.0" cy="1726.5" rx="810.3" ry="663.0" fill="url(#extrude1021)" opacity="0.055" /></g>
  <ellipse cx="1536.0" cy="1726.5" rx="773.2" ry="214.9" fill="#0B1D2D" opacity="0.24" />
  <ellipse cx="1536.0" cy="1536.0" rx="743.4" ry="651.3" fill="url(#orb1021)" stroke="#FFFFFF" stroke-opacity="0.42" stroke-width="7" />
  <ellipse cx="1431.9" cy="1392.7" rx="505.5" ry="299.6" fill="#FFFFFF" opacity="0.25" />
  <path d="M 199.4 399.4 C 1013.8 -30.7, 2058.2 768.0, 2872.6 215.0 L 2872.6 983.0 C 2089.0 1228.8, 1013.8 307.2, 199.4 1167.4 Z" fill="url(#glass1021)" />
  <rect x="270" y="270" width="2532" height="2532" rx="430" fill="none" stroke="#FFFFFF" stroke-opacity="0.30" stroke-width="5" />
  <rect x="288.4" y="288.4" width="2495.1" height="2495.1" rx="399" fill="none" stroke="#53E3A6" stroke-opacity="0.35" stroke-width="3" />
  <g filter="url(#soft1021)"><rect x="936" y="1924" width="64" height="2" fill="#FFFFFF" opacity="0.721" /><rect x="967" y="1893" width="2" height="64" fill="#FFFFFF" opacity="0.721" /><rect x="2485" y="1451" width="56" height="2" fill="#FFFFFF" opacity="0.788" /><rect x="2512" y="1424" width="2" height="56" fill="#FFFFFF" opacity="0.788" /><rect x="592" y="1605" width="66" height="2" fill="#FFFFFF" opacity="0.616" /><rect x="624" y="1573" width="2" height="66" fill="#FFFFFF" opacity="0.616" /><rect x="1284" y="1798" width="74" height="2" fill="#FFFFFF" opacity="0.520" /><rect x="1320" y="1762" width="2" height="74" fill="#FFFFFF" opacity="0.520" /><rect x="1915" y="2283" width="36" height="2" fill="#FFFFFF" opacity="0.588" /><rect x="1932" y="2266" width="2" height="36" fill="#FFFFFF" opacity="0.588" /><rect x="2416" y="839" width="78" height="2" fill="#FFFFFF" opacity="0.778" /><rect x="2454" y="801" width="2" height="78" fill="#FFFFFF" opacity="0.778" /><rect x="1371" y="1001" width="78" height="2" fill="#FFFFFF" opacity="0.762" /><rect x="1409" y="963" width="2" height="78" fill="#FFFFFF" opacity="0.762" /><rect x="2697" y="852" width="58" height="2" fill="#FFFFFF" opacity="0.511" /><rect x="2725" y="824" width="2" height="58" fill="#FFFFFF" opacity="0.511" /><rect x="2756" y="2579" width="62" height="2" fill="#FFFFFF" opacity="0.577" /><rect x="2786" y="2549" width="2" height="62" fill="#FFFFFF" opacity="0.577" /><rect x="515" y="466" width="46" height="2" fill="#FFFFFF" opacity="0.585" /><rect x="537" y="444" width="2" height="46" fill="#FFFFFF" opacity="0.585" /><rect x="1060" y="1373" width="36" height="2" fill="#FFFFFF" opacity="0.666" /><rect x="1077" y="1356" width="2" height="36" fill="#FFFFFF" opacity="0.666" /><rect x="1424" y="1379" width="32" height="2" fill="#FFFFFF" opacity="0.790" /><rect x="1439" y="1364" width="2" height="32" fill="#FFFFFF" opacity="0.790" /><rect x="782" y="1607" width="44" height="2" fill="#FFFFFF" opacity="0.768" /><rect x="803" y="1586" width="2" height="44" fill="#FFFFFF" opacity="0.768" /><rect x="2391" y="748" width="64" height="2" fill="#FFFFFF" opacity="0.592" /><rect x="2422" y="717" width="2" height="64" fill="#FFFFFF" opacity="0.592" /><rect x="346" y="715" width="62" height="2" fill="#FFFFFF" opacity="0.841" /><rect x="376" y="685" width="2" height="62" fill="#FFFFFF" opacity="0.841" /><rect x="288" y="1993" width="60" height="2" fill="#FFFFFF" opacity="0.336" /><rect x="317" y="1964" width="2" height="60" fill="#FFFFFF" opacity="0.336" /><rect x="529" y="1165" width="68" height="2" fill="#FFFFFF" opacity="0.426" /><rect x="562" y="1132" width="2" height="68" fill="#FFFFFF" opacity="0.426" /><rect x="1569" y="1208" width="40" height="2" fill="#FFFFFF" opacity="0.687" /><rect x="1588" y="1189" width="2" height="40" fill="#FFFFFF" opacity="0.687" /><rect x="1752" y="417" width="40" height="2" fill="#FFFFFF" opacity="0.653" /><rect x="1771" y="398" width="2" height="40" fill="#FFFFFF" opacity="0.653" /><rect x="794" y="2063" width="54" height="2" fill="#FFFFFF" opacity="0.329" /><rect x="820" y="2037" width="2" height="54" fill="#FFFFFF" opacity="0.329" /><rect x="2747" y="1804" width="40" height="2" fill="#FFFFFF" opacity="0.644" /><rect x="2766" y="1785" width="2" height="40" fill="#FFFFFF" opacity="0.644" /><rect x="874" y="1263" width="64" height="2" fill="#FFFFFF" opacity="0.702" /><rect x="905" y="1232" width="2" height="64" fill="#FFFFFF" opacity="0.702" /><rect x="765" y="1018" width="36" height="2" fill="#FFFFFF" opacity="0.419" /><rect x="782" y="1001" width="2" height="36" fill="#FFFFFF" opacity="0.419" /><rect x="1879" y="2509" width="70" height="2" fill="#FFFFFF" opacity="0.742" /><rect x="1913" y="2475" width="2" height="70" fill="#FFFFFF" opacity="0.742" /><rect x="597" y="1094" width="56" height="2" fill="#FFFFFF" opacity="0.391" /><rect x="624" y="1067" width="2" height="56" fill="#FFFFFF" opacity="0.391" /><rect x="1429" y="1011" width="48" height="2" fill="#FFFFFF" opacity="0.313" /><rect x="1452" y="988" width="2" height="48" fill="#FFFFFF" opacity="0.313" /></g>
  <g opacity="0.52"><rect x="1023" y="1070" width="768" height="768" rx="128" fill="none" stroke="#0C2030" stroke-width="90" /><path d="M1023 1582 L1572 1363 L2121 1582 L1572 2094 Z" fill="none" stroke="#0C2030" stroke-width="90" stroke-linejoin="round" /></g>
  <g filter="url(#soft1021)"><rect x="987" y="1024" width="768" height="768" rx="128" fill="none" stroke="url(#symbol1021)" stroke-width="90" /><path d="M987 1536 L1536 1317 L2085 1536 L1536 2048 Z" fill="none" stroke="url(#symbol1021)" stroke-width="90" stroke-linejoin="round" /></g>
  <rect x="138" y="138" width="2796" height="2796" rx="629" fill="#FFFFFF" filter="url(#grain1021)" opacity="0.18" />
</svg>
