<svg xmlns="http://www.w3.org/2000/svg" width="3072" height="3072" viewBox="0 0 3072 3072">
  <title>QuartzOS System Icon 024 - bluetooth_02</title>
  <defs><linearGradient id="bg1023" x1="0%" y1="0%" x2="100%" y2="100%"><stop offset="0%" stop-color="#3B82FF" /><stop offset="26%" stop-color="#FF6AB3" /><stop offset="56%" stop-color="#FFD84D" /><stop offset="78%" stop-color="#6C7CC5" /><stop offset="100%" stop-color="#1E2032" /></linearGradient><radialGradient id="sun1023" cx="31%" cy="31%" r="88%"><stop offset="0%" stop-color="#FFFFFF" stop-opacity="0.62" /><stop offset="30%" stop-color="#53E3A6" stop-opacity="0.35" /><stop offset="100%" stop-color="#53E3A6" stop-opacity="0" /></radialGradient><linearGradient id="glass1023" x1="0%" y1="0%" x2="0%" y2="100%"><stop offset="0%" stop-color="#FFFFFF" stop-opacity="0.70" /><stop offset="46%" stop-color="#FFFFFF" stop-opacity="0.26" /><stop offset="100%" stop-color="#FFFFFF" stop-opacity="0.00" /></linearGradient><linearGradient id="ribbon1023" x1="0%" y1="0%" x2="100%" y2="0%"><stop offset="0%" stop-color="#3B82FF" stop-opacity="0.18" /><stop offset="34%" stop-color="#FF6AB3" stop-opacity="0.72" /><stop offset="66%" stop-color="#FFD84D" stop-opacity="0.72" /><stop offset="100%" stop-color="#53E3A6" stop-opacity="0.18" /></linearGradient><radialGradient id="orb1023" cx="34%" cy="27%" r="74%"><stop offset="0%" stop-color="#FFFFFF" stop-opacity="0.84" /><stop offset="30%" stop-color="#3B82FF" stop-opacity="0.52" /><stop offset="68%" stop-color="#FF6AB3" stop-opacity="0.42" /><stop offset="100%" stop-color="#FFD84D" stop-opacity="0.20" /></radialGradient><linearGradient id="extrude1023" x1="0%" y1="0%" x2="0%" y2="100%"><stop offset="0%" stop-color="#15283C" stop-opacity="0.45" /><stop offset="100%" stop-color="#08131D" stop-opacity="0.06" /></linearGradient><linearGradient id="symbol1023" x1="0%" y1="0%" x2="100%" y2="100%"><stop offset="0%" stop-color="#FFFFFF" /><stop offset="100%" stop-color="#53E3A6" /></linearGradient><filter id="shadow1023" x="-40%" y="-40%" width="180%" height="180%"><feDropShadow dx="0" dy="49" stdDeviation="86" flood-color="#06111A" flood-opacity="0.54" /></filter><filter id="soft1023" x="-40%" y="-40%" width="180%" height="180%"><feDropShadow dx="0" dy="0" stdDeviation="14" flood-color="#3B82FF" flood-opacity="0.45" /></filter><filter id="grain1023"><feTurbulence type="fractalNoise" baseFrequency="0.984" numOctaves="2" seed="1023" /><feColorMatrix type="saturate" values="0" /><feComponentTransfer><feFuncA type="table" tableValues="0 0.09" /></feComponentTransfer></filter></defs>
  <rect x="138" y="138" width="2796" height="2796" rx="629" fill="url(#bg1023)" filter="url(#shadow1023)" />
  <rect x="138" y="138" width="2796" height="2796" rx="629" fill="url(#sun1023)" />
  <g><circle cx="1762" cy="2238" r="99" fill="#FFFFFF" opacity="0.125" /><circle cx="1430" cy="1760" r="139" fill="#FFFFFF" opacity="0.070" /><circle cx="2096" cy="947" r="60" fill="#FFFFFF" opacity="0.082" /><circle cx="972" cy="1647" r="53" fill="#FFFFFF" opacity="0.231" /><circle cx="474" cy="407" r="58" fill="#FFFFFF" opacity="0.095" /><circle cx="2521" cy="2241" r="112" fill="#FFFFFF" opacity="0.149" /><circle cx="1483" cy="729" r="54" fill="#FFFFFF" opacity="0.081" /><circle cx="1634" cy="1151" r="91" fill="#FFFFFF" opacity="0.080" /><circle cx="1515" cy="1038" r="71" fill="#FFFFFF" opacity="0.238" /><circle cx="2577" cy="1257" r="126" fill="#FFFFFF" opacity="0.226" /><circle cx="2032" cy="1541" r="97" fill="#FFFFFF" opacity="0.062" /><circle cx="429" cy="2068" r="112" fill="#FFFFFF" opacity="0.077" /><circle cx="1381" cy="2142" r="145" fill="#FFFFFF" opacity="0.084" /><circle cx="2456" cy="2005" r="125" fill="#FFFFFF" opacity="0.104" /><circle cx="2515" cy="2414" r="108" fill="#FFFFFF" opacity="0.192" /><circle cx="2333" cy="2044" r="140" fill="#FFFFFF" opacity="0.224" /><circle cx="1596" cy="515" r="148" fill="#FFFFFF" opacity="0.127" /><circle cx="638" cy="1111" r="38" fill="#FFFFFF" opacity="0.078" /><circle cx="1844" cy="642" r="135" fill="#FFFFFF" opacity="0.168" /><circle cx="1554" cy="2417" r="140" fill="#FFFFFF" opacity="0.213" /><circle cx="1268" cy="2669" r="105" fill="#FFFFFF" opacity="0.212" /><circle cx="2128" cy="1965" r="61" fill="#FFFFFF" opacity="0.228" /><circle cx="967" cy="314" r="151" fill="#FFFFFF" opacity="0.123" /><circle cx="2109" cy="2373" r="56" fill="#FFFFFF" opacity="0.156" /><circle cx="1324" cy="2224" r="101" fill="#FFFFFF" opacity="0.090" /><circle cx="1670" cy="1685" r="79" fill="#FFFFFF" opacity="0.070" /><circle cx="2430" cy="1687" r="92" fill="#FFFFFF" opacity="0.102" /><circle cx="1036" cy="2693" r="97" fill="#FFFFFF" opacity="0.233" /></g>
  <g><path d="M 158.5 622.3 L 2771.7 345.8 L 2771.7 802.1 L 158.5 1078.6 Z" fill="#FFFFFF" opacity="0.191" /><path d="M 235.2 896.6 L 2847.1 620.1 L 2847.1 1045.9 L 235.2 1322.4 Z" fill="#FFFFFF" opacity="0.228" /><path d="M 160.7 1166.9 L 2848.1 890.4 L 2848.1 1374.9 L 160.7 1651.3 Z" fill="#FFFFFF" opacity="0.238" /><path d="M 221.8 1406.4 L 2921.3 1130.0 L 2921.3 1614.3 L 221.8 1890.8 Z" fill="#FFFFFF" opacity="0.165" /><path d="M 247.1 1665.2 L 2732.9 1388.7 L 2732.9 1809.2 L 247.1 2085.7 Z" fill="#FFFFFF" opacity="0.209" /><path d="M 358.6 1933.7 L 2742.4 1657.3 L 2742.4 2086.6 L 358.6 2363.1 Z" fill="#FFFFFF" opacity="0.195" /><path d="M 248.5 2187.0 L 2721.4 1910.6 L 2721.4 2343.0 L 248.5 2619.4 Z" fill="#FFFFFF" opacity="0.094" /><path d="M 299.3 2462.0 L 2908.2 2185.5 L 2908.2 2631.7 L 299.3 2908.2 Z" fill="#FFFFFF" opacity="0.138" /></g>
  <g filter="url(#soft1023)"><g transform="rotate(-23.74 1536.0 1536.0)"><path d="M-368.6 512.7 C -225.8 498.7, -25.8 518.5, 107.5 544.6 C 250.4 540.7, 450.4 496.4, 583.7 567.3 C 726.5 587.9, 926.5 455.7, 1059.8 556.9 C 1202.7 541.8, 1402.7 494.5, 1536.0 519.6 C 1678.8 517.7, 1878.8 509.6, 2012.2 478.2 C 2155.0 484.7, 2355.0 552.0, 2488.3 457.6 C 2631.2 477.6, 2831.2 563.0, 2964.5 470.4 C 3107.3 467.9, 3307.3 545.2, 3440.6 508.9" fill="none" stroke="url(#ribbon1023)" stroke-width="58.4" stroke-linecap="round" stroke-opacity="0.120" /></g><g transform="rotate(-23.16 1536.0 1536.0)"><path d="M-368.6 660.2 C -241.7 684.0, -63.9 642.2, 54.6 719.5 C 181.6 718.1, 359.4 603.1, 477.9 715.4 C 604.8 716.3, 782.6 642.7, 901.1 677.8 C 1028.1 681.0, 1205.9 653.0, 1324.4 629.5 C 1451.3 628.2, 1629.1 674.0, 1747.6 599.9 C 1874.6 594.1, 2052.4 706.2, 2170.9 606.8 C 2297.9 600.5, 2475.6 683.1, 2594.1 646.2 C 2721.1 649.5, 2898.9 669.9, 3017.4 694.0 C 3144.4 701.1, 3322.1 645.4, 3440.6 721.3" fill="none" stroke="url(#ribbon1023)" stroke-width="54.4" stroke-linecap="round" stroke-opacity="0.146" /></g><g transform="rotate(-22.58 1536.0 1536.0)"><path d="M-368.6 947.7 C -254.4 962.6, -94.4 938.8, 12.3 1007.5 C 126.6 993.2, 286.6 876.0, 393.2 1014.6 C 507.5 1026.3, 667.5 889.2, 774.1 981.1 C 888.4 990.8, 1048.4 914.6, 1155.1 927.3 C 1269.4 919.8, 1429.3 954.1, 1536.0 885.9 C 1650.3 861.8, 1810.3 980.7, 1916.9 881.9 C 2031.2 868.3, 2191.2 1005.4, 2297.9 917.9 C 2412.1 914.0, 2572.1 965.3, 2678.8 971.9 C 2793.1 963.7, 2953.1 938.8, 3059.7 1011.2 C 3174.0 997.1, 3334.0 899.2, 3440.6 1012.0" fill="none" stroke="url(#ribbon1023)" stroke-width="50.4" stroke-linecap="round" stroke-opacity="0.172" /></g><g transform="rotate(-22.00 1536.0 1536.0)"><path d="M-368.6 1163.0 C -264.8 1106.0, -119.3 1179.2, -22.3 1087.4 C 81.5 1107.9, 227.0 1200.0, 324.0 1102.1 C 427.8 1082.1, 573.3 1187.9, 670.3 1153.8 C 774.1 1157.1, 919.6 1168.4, 1016.6 1211.1 C 1120.4 1212.0, 1265.9 1128.4, 1362.9 1239.2 C 1466.7 1216.8, 1612.2 1092.4, 1709.1 1221.1 C 1813.0 1216.8, 1958.5 1118.1, 2055.4 1167.7 C 2159.3 1167.7, 2304.8 1160.3, 2401.7 1111.5 C 2505.6 1131.2, 2651.1 1190.0, 2748.0 1086.6 C 2851.9 1068.1, 2997.4 1253.8, 3094.3 1107.9 C 3198.2 1109.0, 3343.7 1184.6, 3440.6 1162.7" fill="none" stroke="url(#ribbon1023)" stroke-width="46.4" stroke-linecap="round" stroke-opacity="0.198" /></g><g transform="rotate(-21.42 1536.0 1536.0)"><path d="M-368.6 1303.2 C -273.4 1401.2, -140.1 1248.3, -51.2 1341.1 C 44.0 1349.1, 177.4 1266.9, 266.2 1276.2 C 361.5 1278.1, 494.8 1330.8, 583.7 1227.7 C 678.9 1211.3, 812.2 1345.1, 901.1 1225.0 C 996.4 1241.5, 1129.7 1334.5, 1218.6 1269.8 C 1313.8 1259.1, 1447.1 1316.6, 1536.0 1334.8 C 1631.2 1328.6, 1764.6 1276.4, 1853.4 1380.8 C 1948.7 1404.0, 2082.0 1235.5, 2170.9 1379.6 C 2266.1 1397.0, 2399.4 1274.5, 2488.3 1332.2 C 2583.6 1330.4, 2716.9 1283.0, 2805.8 1267.2 C 2901.0 1253.0, 3034.3 1341.3, 3123.2 1224.1 C 3218.4 1229.1, 3351.8 1377.9, 3440.6 1229.0" fill="none" stroke="url(#ribbon1023)" stroke-width="42.4" stroke-linecap="round" stroke-opacity="0.224" /></g><g transform="rotate(-20.84 1536.0 1536.0)"><path d="M-368.6 1531.0 C -225.8 1618.9, -25.8 1491.1, 107.5 1579.9 C 250.4 1596.8, 450.4 1507.7, 583.7 1510.4 C 726.5 1503.3, 926.5 1549.7, 1059.8 1453.3 C 1202.7 1429.2, 1402.7 1554.9, 1536.0 1443.3 C 1678.8 1452.5, 1878.8 1562.2, 2012.2 1486.5 C 2155.0 1502.9, 2355.0 1571.8, 2488.3 1556.7 C 2631.2 1558.2, 2831.2 1507.5, 2964.5 1611.2 C 3107.3 1624.6, 3307.3 1506.3, 3440.6 1617.1" fill="none" stroke="url(#ribbon1023)" stroke-width="38.4" stroke-linecap="round" stroke-opacity="0.250" /></g><g transform="rotate(-20.26 1536.0 1536.0)"><path d="M-368.6 1646.0 C -241.7 1577.7, -63.9 1691.7, 54.6 1639.6 C 181.6 1639.7, 359.4 1649.8, 477.9 1711.5 C 604.8 1713.3, 782.6 1607.6, 901.1 1743.6 C 1028.1 1723.3, 1205.9 1607.2, 1324.4 1716.5 C 1451.3 1727.2, 1629.1 1577.2, 1747.6 1646.7 C 1874.6 1646.7, 2052.4 1645.5, 2170.9 1576.4 C 2297.9 1583.9, 2475.6 1727.5, 2594.1 1548.3 C 2721.1 1525.2, 2898.9 1706.7, 3017.4 1579.5 C 3144.4 1564.4, 3322.1 1686.2, 3440.6 1651.0" fill="none" stroke="url(#ribbon1023)" stroke-width="34.4" stroke-linecap="round" stroke-opacity="0.276" /></g><g transform="rotate(-19.68 1536.0 1536.0)"><path d="M-368.6 1903.6 C -254.4 1942.8, -94.4 1870.2, 12.3 1868.6 C 126.6 1866.1, 286.6 1936.0, 393.2 1808.4 C 507.5 1820.2, 667.5 1983.1, 774.1 1805.8 C 888.4 1827.9, 1048.4 1940.1, 1155.1 1862.6 C 1269.4 1847.0, 1429.3 1919.2, 1536.0 1944.2 C 1650.3 1953.1, 1810.3 1870.8, 1916.9 2001.1 C 2031.2 2003.9, 2191.2 1787.0, 2297.9 1998.9 C 2412.1 2021.1, 2572.1 1791.4, 2678.8 1938.8 C 2793.1 1952.4, 2953.1 1891.4, 3059.7 1857.4 C 3174.0 1858.3, 3334.0 1953.3, 3440.6 1803.9" fill="none" stroke="url(#ribbon1023)" stroke-width="30.4" stroke-linecap="round" stroke-opacity="0.302" /></g><g transform="rotate(-19.10 1536.0 1536.0)"><path d="M-368.6 2102.5 C -264.8 1955.7, -119.3 2149.6, -22.3 2038.2 C 81.5 2040.8, 227.0 2142.9, 324.0 2123.3 C 427.8 2129.9, 573.3 2087.8, 670.3 2195.8 C 774.1 2194.3, 919.6 2029.3, 1016.6 2211.7 C 1120.4 2203.5, 1265.9 2018.8, 1362.9 2161.4 C 1466.7 2166.9, 1612.2 2050.5, 1709.1 2075.3 C 1813.0 2086.1, 1958.5 2131.7, 2055.4 2005.7 C 2159.3 2037.2, 2304.8 2187.0, 2401.7 1994.9 C 2505.6 1981.6, 2651.1 2193.4, 2748.0 2049.3 C 2851.9 2049.3, 2997.4 2149.4, 3094.3 2136.0 C 3198.2 2142.8, 3343.7 2080.9, 3440.6 2202.4" fill="none" stroke="url(#ribbon1023)" stroke-width="26.4" stroke-linecap="round" stroke-opacity="0.328" /></g><g transform="rotate(-18.52 1536.0 1536.0)"><path d="M-368.6 2310.2 C -273.4 2375.0, -140.1 2259.5, -51.2 2293.7 C 44.0 2292.4, 177.4 2324.2, 266.2 2214.2 C 361.5 2183.4, 494.8 2379.6, 583.7 2193.0 C 678.9 2148.4, 812.2 2359.2, 901.1 2242.8 C 996.4 2222.2, 1129.7 2384.2, 1218.6 2333.5 C 1313.8 2337.1, 1447.1 2293.1, 1536.0 2410.1 C 1631.2 2397.9, 1764.6 2243.5, 1853.4 2426.0 C 1948.7 2424.6, 2082.0 2171.2, 2170.9 2371.7 C 2266.1 2353.0, 2399.4 2277.6, 2488.3 2280.1 C 2583.6 2275.5, 2716.9 2343.0, 2805.8 2206.7 C 2901.0 2241.7, 3034.3 2372.8, 3123.2 2196.1 C 3218.4 2190.1, 3351.8 2409.4, 3440.6 2254.7" fill="none" stroke="url(#ribbon1023)" stroke-width="22.4" stroke-linecap="round" stroke-opacity="0.354" /></g><g transform="rotate(-17.94 1536.0 1536.0)"><path d="M-368.6 2516.6 C -225.8 2637.5, -25.8 2383.9, 107.5 2629.3 C 250.4 2641.5, 450.4 2423.9, 583.7 2554.8 C 726.5 2558.9, 926.5 2484.2, 1059.8 2457.1 C 1202.7 2462.7, 1402.7 2585.2, 1536.0 2395.5 C 1678.8 2432.2, 1878.8 2639.0, 2012.2 2407.4 C 2155.0 2435.2, 2355.0 2575.2, 2488.3 2485.6 C 2631.2 2482.6, 2831.2 2546.7, 2964.5 2582.5 C 3107.3 2600.6, 3307.3 2445.8, 3440.6 2639.5" fill="none" stroke="url(#ribbon1023)" stroke-width="18.4" stroke-linecap="round" stroke-opacity="0.380" /></g><g transform="rotate(-17.36 1536.0 1536.0)"><path d="M-368.6 2646.3 C -241.7 2735.5, -63.9 2574.9, 54.6 2721.1 C 181.6 2707.7, 359.4 2614.9, 477.9 2619.5 C 604.8 2616.8, 782.6 2660.6, 901.1 2534.2 C 1028.1 2521.9, 1205.9 2771.7, 1324.4 2516.8 C 1451.3 2550.6, 1629.1 2744.9, 1747.6 2577.9 C 1874.6 2575.0, 2052.4 2673.3, 2170.9 2680.5 C 2297.9 2678.8, 2475.6 2616.6, 2594.1 2762.3 C 2721.1 2719.3, 2898.9 2604.8, 3017.4 2773.7 C 3144.4 2754.9, 3322.1 2552.6, 3440.6 2707.8" fill="none" stroke="url(#ribbon1023)" stroke-width="14.4" stroke-linecap="round" stroke-opacity="0.406" /></g></g>
  <g><ellipse cx="1536.0" cy="1551.9" rx="728.6" ry="605.7" fill="url(#extrude1023)" opacity="0.220" /><ellipse cx="1536.0" cy="1567.7" rx="736.0" ry="610.9" fill="url(#extrude1023)" opacity="0.205" /><ellipse cx="1536.0" cy="1583.6" rx="743.4" ry="616.1" fill="url(#extrude1023)" opacity="0.190" /><ellipse cx="1536.0" cy="1599.5" rx="750.9" ry="621.3" fill="url(#extrude1023)" opacity="0.175" /><ellipse cx="1536.0" cy="1615.4" rx="758.3" ry="626.5" fill="url(#extrude1023)" opacity="0.160" /><ellipse cx="1536.0" cy="1631.2" rx="765.7" ry="631.7" fill="url(#extrude1023)" opacity="0.145" /><ellipse cx="1536.0" cy="1647.1" rx="773.2" ry="636.9" fill="url(#extrude1023)" opacity="0.130" /><ellipse cx="1536.0" cy="1663.0" rx="780.6" ry="642.1" fill="url(#extrude1023)" opacity="0.115" /><ellipse cx="1536.0" cy="1678.8" rx="788.0" ry="647.4" fill="url(#extrude1023)" opacity="0.100" /><ellipse cx="1536.0" cy="1694.7" rx="795.5" ry="652.6" fill="url(#extrude1023)" opacity="0.085" /><ellipse cx="1536.0" cy="1710.6" rx="802.9" ry="657.8" fill="url(#extrude1023)" opacity="0.070" /><ellipse cx="1536.0" cy="1726.5" rx="810.3" ry="663.0" fill="url(#extrude1023)" opacity="0.055" /></g>
  <ellipse cx="1536.0" cy="1726.5" rx="773.2" ry="214.9" fill="#0B1D2D" opacity="0.24" />
  <ellipse cx="1536.0" cy="1536.0" rx="743.4" ry="651.3" fill="url(#orb1023)" stroke="#FFFFFF" stroke-opacity="0.42" stroke-width="7" />
  <ellipse cx="1431.9" cy="1392.7" rx="505.5" ry="299.6" fill="#FFFFFF" opacity="0.25" />
  <path d="M 199.4 399.4 C 1013.8 -30.7, 2058.2 768.0, 2872.6 215.0 L 2872.6 983.0 C 2089.0 1228.8, 1013.8 307.2, 199.4 1167.4 Z" fill="url(#glass1023)" />
  <rect x="270" y="270" width="2532" height="2532" rx="430" fill="none" stroke="#FFFFFF" stroke-opacity="0.30" stroke-width="5" />
  <rect x="288.4" y="288.4" width="2495.1" height="2495.1" rx="399" fill="none" stroke="#3B82FF" stroke-opacity="0.35" stroke-width="3" />
  <g filter="url(#soft1023)"><rect x="401" y="2532" width="66" height="2" fill="#FFFFFF" opacity="0.322" /><rect x="433" y="2500" width="2" height="66" fill="#FFFFFF" opacity="0.322" /><rect x="1671" y="2323" width="78" height="2" fill="#FFFFFF" opacity="0.383" /><rect x="1709" y="2285" width="2" height="78" fill="#FFFFFF" opacity="0.383" /><rect x="1544" y="823" width="46" height="2" fill="#FFFFFF" opacity="0.848" /><rect x="1566" y="801" width="2" height="46" fill="#FFFFFF" opacity="0.848" /><rect x="2510" y="1937" width="54" height="2" fill="#FFFFFF" opacity="0.388" /><rect x="2536" y="1911" width="2" height="54" fill="#FFFFFF" opacity="0.388" /><rect x="1163" y="1631" width="44" height="2" fill="#FFFFFF" opacity="0.578" /><rect x="1184" y="1610" width="2" height="44" fill="#FFFFFF" opacity="0.578" /><rect x="2413" y="2675" width="56" height="2" fill="#FFFFFF" opacity="0.483" /><rect x="2440" y="2648" width="2" height="56" fill="#FFFFFF" opacity="0.483" /><rect x="1222" y="960" width="48" height="2" fill="#FFFFFF" opacity="0.578" /><rect x="1245" y="937" width="2" height="48" fill="#FFFFFF" opacity="0.578" /><rect x="2344" y="892" width="28" height="2" fill="#FFFFFF" opacity="0.575" /><rect x="2357" y="879" width="2" height="28" fill="#FFFFFF" opacity="0.575" /><rect x="1217" y="2123" width="70" height="2" fill="#FFFFFF" opacity="0.626" /><rect x="1251" y="2089" width="2" height="70" fill="#FFFFFF" opacity="0.626" /><rect x="722" y="1280" width="50" height="2" fill="#FFFFFF" opacity="0.645" /><rect x="746" y="1256" width="2" height="50" fill="#FFFFFF" opacity="0.645" /><rect x="2640" y="2571" width="30" height="2" fill="#FFFFFF" opacity="0.335" /><rect x="2654" y="2557" width="2" height="30" fill="#FFFFFF" opacity="0.335" /><rect x="2471" y="1585" width="40" height="2" fill="#FFFFFF" opacity="0.449" /><rect x="2490" y="1566" width="2" height="40" fill="#FFFFFF" opacity="0.449" /><rect x="819" y="417" width="40" height="2" fill="#FFFFFF" opacity="0.445" /><rect x="838" y="398" width="2" height="40" fill="#FFFFFF" opacity="0.445" /><rect x="2739" y="2037" width="44" height="2" fill="#FFFFFF" opacity="0.480" /><rect x="2760" y="2016" width="2" height="44" fill="#FFFFFF" opacity="0.480" /><rect x="2415" y="484" width="46" height="2" fill="#FFFFFF" opacity="0.441" /><rect x="2437" y="462" width="2" height="46" fill="#FFFFFF" opacity="0.441" /><rect x="1246" y="1714" width="60" height="2" fill="#FFFFFF" opacity="0.365" /><rect x="1275" y="1685" width="2" height="60" fill="#FFFFFF" opacity="0.365" /><rect x="2480" y="2243" width="68" height="2" fill="#FFFFFF" opacity="0.742" /><rect x="2513" y="2210" width="2" height="68" fill="#FFFFFF" opacity="0.742" /><rect x="1573" y="1991" width="34" height="2" fill="#FFFFFF" opacity="0.719" /><rect x="1589" y="1975" width="2" height="34" fill="#FFFFFF" opacity="0.719" /><rect x="2157" y="2395" width="82" height="2" fill="#FFFFFF" opacity="0.661" /><rect x="2197" y="2355" width="2" height="82" fill="#FFFFFF" opacity="0.661" /><rect x="452" y="1959" width="56" height="2" fill="#FFFFFF" opacity="0.785" /><rect x="479" y="1932" width="2" height="56" fill="#FFFFFF" opacity="0.785" /><rect x="1274" y="2025" width="32" height="2" fill="#FFFFFF" opacity="0.383" /><rect x="1289" y="2010" width="2" height="32" fill="#FFFFFF" opacity="0.383" /><rect x="2634" y="931" width="58" height="2" fill="#FFFFFF" opacity="0.634" /><rect x="2662" y="903" width="2" height="58" fill="#FFFFFF" opacity="0.634" /><rect x="1090" y="678" width="26" height="2" fill="#FFFFFF" opacity="0.376" /><rect x="1102" y="666" width="2" height="26" fill="#FFFFFF" opacity="0.376" /><rect x="377" y="474" width="82" height="2" fill="#FFFFFF" opacity="0.797" /><rect x="417" y="434" width="2" height="82" fill="#FFFFFF" opacity="0.797" /><rect x="2395" y="2565" width="42" height="2" fill="#FFFFFF" opacity="0.410" /><rect x="2415" y="2545" width="2" height="42" fill="#FFFFFF" opacity="0.410" /><rect x="1196" y="926" width="44" height="2" fill="#FFFFFF" opacity="0.410" /><rect x="1217" y="905" width="2" height="44" fill="#FFFFFF" opacity="0.410" /></g>
  <g opacity="0.52"><rect x="1060" y="1070" width="219" height="1024" fill="#0C2030" /><rect x="1316" y="1326" width="219" height="768" fill="#0C2030" /><rect x="1572" y="1198" width="219" height="921" fill="#0C2030" /><rect x="1828" y="1033" width="219" height="1152" fill="#0C2030" /></g>
  <g filter="url(#soft1023)"><rect x="1024" y="1024" width="219" height="1024" fill="url(#symbol1023)" /><rect x="1280" y="1280" width="219" height="768" fill="url(#symbol1023)" /><rect x="1536" y="1152" width="219" height="921" fill="url(#symbol1023)" /><rect x="1792" y="987" width="219" height="1152" fill="url(#symbol1023)" /></g>
  <rect x="138" y="138" width="2796" height="2796" rx="629" fill="#FFFFFF" filter="url(#grain1023)" opacity="0.18" />
</svg>
