<svg xmlns="http://www.w3.org/2000/svg" width="3072" height="3072" viewBox="0 0 3072 3072">
  <title>QuartzOS System Icon 044 - bluetooth_03</title>
  <defs><linearGradient id="bg1043" x1="0%" y1="0%" x2="100%" y2="100%"><stop offset="0%" stop-color="#36D1FF" /><stop offset="26%" stop-color="#8A5CFF" /><stop offset="56%" stop-color="#FF9F43" /><stop offset="78%" stop-color="#4BA7D0" /><stop offset="100%" stop-color="#122A3D" /></linearGradient><radialGradient id="sun1043" cx="46%" cy="22%" r="88%"><stop offset="0%" stop-color="#FFFFFF" stop-opacity="0.62" /><stop offset="30%" stop-color="#FFD84D" stop-opacity="0.35" /><stop offset="100%" stop-color="#FFD84D" stop-opacity="0" /></radialGradient><linearGradient id="glass1043" x1="0%" y1="0%" x2="0%" y2="100%"><stop offset="0%" stop-color="#FFFFFF" stop-opacity="0.70" /><stop offset="46%" stop-color="#FFFFFF" stop-opacity="0.26" /><stop offset="100%" stop-color="#FFFFFF" stop-opacity="0.00" /></linearGradient><linearGradient id="ribbon1043" x1="0%" y1="0%" x2="100%" y2="0%"><stop offset="0%" stop-color="#36D1FF" stop-opacity="0.18" /><stop offset="34%" stop-color="#8A5CFF" stop-opacity="0.72" /><stop offset="66%" stop-color="#FF9F43" stop-opacity="0.72" /><stop offset="100%" stop-color="#FFD84D" stop-opacity="0.18" /></linearGradient><radialGradient id="orb1043" cx="34%" cy="27%" r="74%"><stop offset="0%" stop-color="#FFFFFF" stop-opacity="0.84" /><stop offset="30%" stop-color="#36D1FF" stop-opacity="0.52" /><stop offset="68%" stop-color="#8A5CFF" stop-opacity="0.42" /><stop offset="100%" stop-color="#FF9F43" stop-opacity="0.20" /></radialGradient><linearGradient id="extrude1043" x1="0%" y1="0%" x2="0%" y2="100%"><stop offset="0%" stop-color="#15283C" stop-opacity="0.45" /><stop offset="100%" stop-color="#08131D" stop-opacity="0.06" /></linearGradient><linearGradient id="symbol1043" x1="0%" y1="0%" x2="100%" y2="100%"><stop offset="0%" stop-color="#FFFFFF" /><stop offset="100%" stop-color="#FFD84D" /></linearGradient><filter id="shadow1043" x="-40%" y="-40%" width="180%" height="180%"><feDropShadow dx="0" dy="49" stdDeviation="86" flood-color="#06111A" flood-opacity="0.54" /></filter><filter id="soft1043" x="-40%" y="-40%" width="180%" height="180%"><feDropShadow dx="0" dy="0" stdDeviation="14" flood-color="#36D1FF" flood-opacity="0.45" /></filter><filter id="grain1043"><feTurbulence type="fractalNoise" baseFrequency="0.675" numOctaves="2" seed="1043" /><feColorMatrix type="saturate" values="0" /><feComponentTransfer><feFuncA type="table" tableValues="0 0.09" /></feComponentTransfer></filter></defs>
  <rect x="138" y="138" width="2796" height="2796" rx="629" fill="url(#bg1043)" filter="url(#shadow1043)" />
  <rect x="138" y="138" width="2796" height="2796" rx="629" fill="url(#sun1043)" />
  <g><circle cx="2066" cy="1023" r="101" fill="#FFFFFF" opacity="0.151" /><circle cx="1946" cy="717" r="122" fill="#FFFFFF" opacity="0.220" /><circle cx="734" cy="744" r="82" fill="#FFFFFF" opacity="0.116" /><circle cx="2304" cy="1498" r="77" fill="#FFFFFF" opacity="0.082" /><circle cx="2168" cy="2476" r="124" fill="#FFFFFF" opacity="0.232" /><circle cx="755" cy="2004" r="50" fill="#FFFFFF" opacity="0.188" /><circle cx="1066" cy="615" r="156" fill="#FFFFFF" opacity="0.088" /><circle cx="808" cy="1523" r="134" fill="#FFFFFF" opacity="0.066" /><circle cx="1389" cy="2251" r="133" fill="#FFFFFF" opacity="0.211" /><circle cx="655" cy="805" r="150" fill="#FFFFFF" opacity="0.176" /><circle cx="2269" cy="2051" r="125" fill="#FFFFFF" opacity="0.168" /><circle cx="452" cy="985" r="155" fill="#FFFFFF" opacity="0.065" /><circle cx="2149" cy="1619" r="78" fill="#FFFFFF" opacity="0.102" /><circle cx="2162" cy="1450" r="127" fill="#FFFFFF" opacity="0.136" /><circle cx="2494" cy="1449" r="101" fill="#FFFFFF" opacity="0.124" /><circle cx="1950" cy="1456" r="62" fill="#FFFFFF" opacity="0.183" /><circle cx="1718" cy="1420" r="57" fill="#FFFFFF" opacity="0.064" /><circle cx="825" cy="693" r="100" fill="#FFFFFF" opacity="0.102" /><circle cx="2690" cy="2636" r="52" fill="#FFFFFF" opacity="0.147" /><circle cx="829" cy="1198" r="87" fill="#FFFFFF" opacity="0.070" /><circle cx="1115" cy="1022" r="102" fill="#FFFFFF" opacity="0.231" /><circle cx="795" cy="1034" r="149" fill="#FFFFFF" opacity="0.197" /><circle cx="1503" cy="1451" r="85" fill="#FFFFFF" opacity="0.137" /><circle cx="1000" cy="1298" r="77" fill="#FFFFFF" opacity="0.190" /><circle cx="2340" cy="2057" r="98" fill="#FFFFFF" opacity="0.180" /><circle cx="380" cy="2489" r="110" fill="#FFFFFF" opacity="0.106" /><circle cx="1840" cy="1466" r="119" fill="#FFFFFF" opacity="0.076" /><circle cx="2645" cy="2232" r="144" fill="#FFFFFF" opacity="0.216" /></g>
  <g><path d="M 380.7 590.3 L 2744.7 313.9 L 2744.7 798.5 L 380.7 1074.9 Z" fill="#FFFFFF" opacity="0.119" /><path d="M 281.7 876.7 L 2823.4 600.2 L 2823.4 1042.8 L 281.7 1319.3 Z" fill="#FFFFFF" opacity="0.123" /><path d="M 362.5 1096.9 L 2827.9 820.4 L 2827.9 1241.8 L 362.5 1518.3 Z" fill="#FFFFFF" opacity="0.149" /><path d="M 303.1 1381.5 L 2733.3 1105.1 L 2733.3 1557.6 L 303.1 1834.1 Z" fill="#FFFFFF" opacity="0.104" /><path d="M 325.9 1669.5 L 2771.4 1393.0 L 2771.4 1836.3 L 325.9 2112.8 Z" fill="#FFFFFF" opacity="0.217" /><path d="M 338.6 1917.5 L 2872.5 1641.1 L 2872.5 2097.5 L 338.6 2374.0 Z" fill="#FFFFFF" opacity="0.161" /><path d="M 305.7 2149.1 L 2683.8 1872.6 L 2683.8 2325.2 L 305.7 2601.7 Z" fill="#FFFFFF" opacity="0.138" /><path d="M 331.6 2433.9 L 2880.9 2157.4 L 2880.9 2625.9 L 331.6 2902.4 Z" fill="#FFFFFF" opacity="0.203" /></g>
  <g filter="url(#soft1043)"><g transform="rotate(-6.56 1536.0 1536.0)"><path d="M-368.6 539.2 C -225.8 573.3, -25.8 504.0, 107.5 533.3 C 250.4 530.9, 450.4 542.7, 583.7 495.7 C 726.5 507.2, 926.5 554.2, 1059.8 484.4 C 1202.7 476.2, 1402.7 577.6, 1536.0 506.4 C 1678.8 503.8, 1878.8 550.3, 2012.2 548.3 C 2155.0 546.7, 2355.0 535.4, 2488.3 584.7 C 2631.2 568.4, 2831.2 524.8, 2964.5 593.5 C 3107.3 606.1, 3307.3 513.4, 3440.6 569.3" fill="none" stroke="url(#ribbon1043)" stroke-width="58.4" stroke-linecap="round" stroke-opacity="0.120" /></g><g transform="rotate(-5.98 1536.0 1536.0)"><path d="M-368.6 681.9 C -241.7 732.9, -63.9 631.4, 54.6 712.2 C 181.6 702.0, 359.4 649.2, 477.9 663.9 C 604.8 659.2, 782.6 694.6, 901.1 626.5 C 1028.1 607.0, 1205.9 720.3, 1324.4 622.7 C 1451.3 630.6, 1629.1 712.9, 1747.6 654.8 C 1874.6 661.6, 2052.4 711.0, 2170.9 703.3 C 2297.9 711.9, 2475.6 665.5, 2594.1 738.8 C 2721.1 725.0, 2898.9 648.4, 3017.4 739.8 C 3144.4 753.4, 3322.1 643.6, 3440.6 705.6" fill="none" stroke="url(#ribbon1043)" stroke-width="54.4" stroke-linecap="round" stroke-opacity="0.146" /></g><g transform="rotate(-5.40 1536.0 1536.0)"><path d="M-368.6 904.7 C -254.4 877.8, -94.4 950.0, 12.3 913.7 C 126.6 916.8, 286.6 899.9, 393.2 960.3 C 507.5 964.6, 667.5 876.2, 774.1 973.2 C 888.4 951.3, 1048.4 843.7, 1155.1 944.6 C 1269.4 958.3, 1429.3 856.9, 1536.0 891.7 C 1650.3 893.7, 1810.3 913.5, 1916.9 846.7 C 2031.2 827.3, 2191.2 930.6, 2297.9 836.9 C 2412.1 843.5, 2572.1 966.4, 2678.8 868.2 C 2793.1 872.8, 2953.1 916.2, 3059.7 921.6 C 3174.0 921.2, 3334.0 899.5, 3440.6 964.8" fill="none" stroke="url(#ribbon1043)" stroke-width="50.4" stroke-linecap="round" stroke-opacity="0.172" /></g><g transform="rotate(-4.82 1536.0 1536.0)"><path d="M-368.6 1109.0 C -264.8 1086.2, -119.3 1117.7, -22.3 1042.6 C 81.5 1047.0, 227.0 1184.9, 324.0 1035.5 C 427.8 1041.9, 573.3 1147.1, 670.3 1073.1 C 774.1 1063.5, 919.6 1141.4, 1016.6 1132.4 C 1120.4 1140.3, 1265.9 1087.8, 1362.9 1177.6 C 1466.7 1165.1, 1612.2 1042.9, 1709.1 1181.1 C 1813.0 1199.9, 1958.5 1075.4, 2055.4 1141.0 C 2159.3 1131.9, 2304.8 1096.0, 2401.7 1081.4 C 2505.6 1089.9, 2651.1 1130.0, 2748.0 1038.6 C 2851.9 1065.7, 2997.4 1167.1, 3094.3 1038.5 C 3198.2 1054.1, 3343.7 1151.9, 3440.6 1081.2" fill="none" stroke="url(#ribbon1043)" stroke-width="46.4" stroke-linecap="round" stroke-opacity="0.198" /></g><g transform="rotate(-4.24 1536.0 1536.0)"><path d="M-368.6 1350.0 C -273.4 1400.8, -140.1 1327.3, -51.2 1353.6 C 44.0 1353.1, 177.4 1347.8, 266.2 1292.6 C 361.5 1279.0, 494.8 1372.6, 583.7 1266.4 C 678.9 1276.0, 812.2 1430.6, 901.1 1290.9 C 996.4 1297.8, 1129.7 1415.6, 1218.6 1351.2 C 1313.8 1351.3, 1447.1 1349.1, 1536.0 1410.8 C 1631.2 1415.7, 1764.6 1277.5, 1853.4 1433.4 C 1948.7 1428.2, 2082.0 1274.1, 2170.9 1405.5 C 2266.1 1417.5, 2399.4 1303.3, 2488.3 1343.8 C 2583.6 1343.3, 2716.9 1352.5, 2805.8 1285.9 C 2901.0 1275.4, 3034.3 1409.6, 3123.2 1266.9 C 3218.4 1250.3, 3351.8 1397.5, 3440.6 1298.2" fill="none" stroke="url(#ribbon1043)" stroke-width="42.4" stroke-linecap="round" stroke-opacity="0.224" /></g><g transform="rotate(-3.66 1536.0 1536.0)"><path d="M-368.6 1524.0 C -225.8 1499.8, -25.8 1541.6, 107.5 1447.1 C 250.4 1453.1, 450.4 1615.4, 583.7 1436.0 C 726.5 1410.9, 926.5 1574.8, 1059.8 1478.3 C 1202.7 1460.4, 1402.7 1552.4, 1536.0 1548.3 C 1678.8 1544.2, 1878.8 1504.3, 2012.2 1603.6 C 2155.0 1603.3, 2355.0 1475.9, 2488.3 1610.6 C 2631.2 1578.2, 2831.2 1486.2, 2964.5 1565.1 C 3107.3 1580.1, 3307.3 1498.7, 3440.6 1494.7" fill="none" stroke="url(#ribbon1043)" stroke-width="38.4" stroke-linecap="round" stroke-opacity="0.250" /></g><g transform="rotate(-3.08 1536.0 1536.0)"><path d="M-368.6 1728.6 C -241.7 1837.7, -63.9 1657.9, 54.6 1795.4 C 181.6 1808.4, 359.4 1674.5, 477.9 1724.1 C 604.8 1723.1, 782.6 1732.4, 901.1 1655.4 C 1028.1 1665.9, 1205.9 1800.8, 1324.4 1631.2 C 1451.3 1609.4, 1629.1 1813.4, 1747.6 1666.1 C 1874.6 1659.5, 2052.4 1769.0, 2170.9 1738.8 C 2297.9 1741.1, 2475.6 1717.4, 2594.1 1805.4 C 2721.1 1823.1, 2898.9 1680.0, 3017.4 1825.4 C 3144.4 1829.7, 3322.1 1635.6, 3440.6 1786.7" fill="none" stroke="url(#ribbon1043)" stroke-width="34.4" stroke-linecap="round" stroke-opacity="0.276" /></g><g transform="rotate(-2.50 1536.0 1536.0)"><path d="M-368.6 1823.6 C -254.4 1747.0, -94.4 1895.9, 12.3 1723.2 C 126.6 1694.4, 286.6 1911.2, 393.2 1775.0 C 507.5 1759.3, 667.5 1849.7, 774.1 1856.3 C 888.4 1849.7, 1048.4 1809.0, 1155.1 1917.8 C 1269.4 1917.1, 1429.3 1793.2, 1536.0 1922.1 C 1650.3 1900.7, 1810.3 1725.9, 1916.9 1866.7 C 2031.2 1870.9, 2191.2 1809.2, 2297.9 1785.2 C 2412.1 1773.6, 2572.1 1837.1, 2678.8 1726.9 C 2793.1 1752.0, 2953.1 1875.0, 3059.7 1727.3 C 3174.0 1696.9, 3334.0 1877.8, 3440.6 1786.2" fill="none" stroke="url(#ribbon1043)" stroke-width="30.4" stroke-linecap="round" stroke-opacity="0.302" /></g><g transform="rotate(-1.92 1536.0 1536.0)"><path d="M-368.6 2011.2 C -264.8 1908.2, -119.3 2048.2, -22.3 1942.8 C 81.5 1926.1, 227.0 2087.0, 324.0 2027.1 C 427.8 2032.5, 573.3 2006.2, 670.3 2101.6 C 774.1 2112.9, 919.6 1950.1, 1016.6 2121.3 C 1120.4 2150.9, 1265.9 1908.4, 1362.9 2074.2 C 1466.7 2072.5, 1612.2 1971.7, 1709.1 1988.8 C 1813.0 1983.3, 1958.5 2024.5, 2055.4 1917.0 C 2159.3 1945.4, 2304.8 2072.0, 2401.7 1902.3 C 2505.6 1941.0, 2651.1 2067.3, 2748.0 1953.6 C 2851.9 1934.1, 2997.4 2061.0, 3094.3 2039.9 C 3198.2 2035.2, 3343.7 1981.5, 3440.6 2108.7" fill="none" stroke="url(#ribbon1043)" stroke-width="26.4" stroke-linecap="round" stroke-opacity="0.328" /></g><g transform="rotate(-1.34 1536.0 1536.0)"><path d="M-368.6 2310.2 C -273.4 2308.7, -140.1 2311.1, -51.2 2224.1 C 44.0 2205.5, 177.4 2407.4, 266.2 2191.4 C 361.5 2151.6, 494.8 2361.9, 583.7 2230.8 C 678.9 2252.9, 812.2 2393.9, 901.1 2318.4 C 996.4 2315.7, 1129.7 2307.6, 1218.6 2401.0 C 1313.8 2408.4, 1447.1 2270.2, 1536.0 2428.5 C 1631.2 2472.1, 1764.6 2238.5, 1853.4 2384.3 C 1948.7 2410.5, 2082.0 2266.5, 2170.9 2295.1 C 2266.1 2297.1, 2399.4 2318.1, 2488.3 2215.1 C 2583.6 2231.9, 2716.9 2357.9, 2805.8 2192.8 C 2901.0 2234.3, 3034.3 2373.3, 3123.2 2241.7 C 3218.4 2268.1, 3351.8 2341.2, 3440.6 2332.1" fill="none" stroke="url(#ribbon1043)" stroke-width="22.4" stroke-linecap="round" stroke-opacity="0.354" /></g><g transform="rotate(-0.76 1536.0 1536.0)"><path d="M-368.6 2508.5 C -225.8 2460.8, -25.8 2530.5, 107.5 2545.5 C 250.4 2540.7, 450.4 2480.0, 583.7 2620.6 C 726.5 2578.9, 926.5 2462.0, 1059.8 2627.8 C 1202.7 2613.6, 1402.7 2409.5, 1536.0 2562.5 C 1678.8 2577.5, 1878.8 2462.8, 2012.2 2464.5 C 2155.0 2477.6, 2355.0 2545.9, 2488.3 2393.2 C 2631.2 2376.2, 2831.2 2598.6, 2964.5 2391.8 C 3107.3 2433.4, 3307.3 2558.9, 3440.6 2461.2" fill="none" stroke="url(#ribbon1043)" stroke-width="18.4" stroke-linecap="round" stroke-opacity="0.380" /></g><g transform="rotate(-0.18 1536.0 1536.0)"><path d="M-368.6 2699.4 C -241.7 2755.6, -63.9 2652.0, 54.6 2670.6 C 181.6 2661.0, 359.4 2713.0, 477.9 2586.2 C 604.8 2576.0, 782.6 2805.9, 901.1 2570.5 C 1028.1 2617.9, 1205.9 2767.9, 1324.4 2633.0 C 1451.3 2624.1, 1629.1 2771.6, 1747.6 2735.8 C 1874.6 2727.8, 2052.4 2687.5, 2170.9 2816.6 C 2297.9 2831.7, 2475.6 2577.4, 2594.1 2826.3 C 2721.1 2817.4, 2898.9 2608.2, 3017.4 2759.0 C 3144.4 2747.7, 3322.1 2662.8, 3440.6 2655.7" fill="none" stroke="url(#ribbon1043)" stroke-width="14.4" stroke-linecap="round" stroke-opacity="0.406" /></g></g>
  <g><ellipse cx="1536.0" cy="1551.9" rx="728.6" ry="605.7" fill="url(#extrude1043)" opacity="0.220" /><ellipse cx="1536.0" cy="1567.7" rx="736.0" ry="610.9" fill="url(#extrude1043)" opacity="0.205" /><ellipse cx="1536.0" cy="1583.6" rx="743.4" ry="616.1" fill="url(#extrude1043)" opacity="0.190" /><ellipse cx="1536.0" cy="1599.5" rx="750.9" ry="621.3" fill="url(#extrude1043)" opacity="0.175" /><ellipse cx="1536.0" cy="1615.4" rx="758.3" ry="626.5" fill="url(#extrude1043)" opacity="0.160" /><ellipse cx="1536.0" cy="1631.2" rx="765.7" ry="631.7" fill="url(#extrude1043)" opacity="0.145" /><ellipse cx="1536.0" cy="1647.1" rx="773.2" ry="636.9" fill="url(#extrude1043)" opacity="0.130" /><ellipse cx="1536.0" cy="1663.0" rx="780.6" ry="642.1" fill="url(#extrude1043)" opacity="0.115" /><ellipse cx="1536.0" cy="1678.8" rx="788.0" ry="647.4" fill="url(#extrude1043)" opacity="0.100" /><ellipse cx="1536.0" cy="1694.7" rx="795.5" ry="652.6" fill="url(#extrude1043)" opacity="0.085" /><ellipse cx="1536.0" cy="1710.6" rx="802.9" ry="657.8" fill="url(#extrude1043)" opacity="0.070" /><ellipse cx="1536.0" cy="1726.5" rx="810.3" ry="663.0" fill="url(#extrude1043)" opacity="0.055" /></g>
  <ellipse cx="1536.0" cy="1726.5" rx="773.2" ry="214.9" fill="#0B1D2D" opacity="0.24" />
  <ellipse cx="1536.0" cy="1536.0" rx="743.4" ry="651.3" fill="url(#orb1043)" stroke="#FFFFFF" stroke-opacity="0.42" stroke-width="7" />
  <ellipse cx="1431.9" cy="1392.7" rx="505.5" ry="299.6" fill="#FFFFFF" opacity="0.25" />
  <path d="M 199.4 399.4 C 1013.8 -30.7, 2058.2 768.0, 2872.6 215.0 L 2872.6 983.0 C 2089.0 1228.8, 1013.8 307.2, 199.4 1167.4 Z" fill="url(#glass1043)" />
  <rect x="270" y="270" width="2532" height="2532" rx="430" fill="none" stroke="#FFFFFF" stroke-opacity="0.30" stroke-width="5" />
  <rect x="288.4" y="288.4" width="2495.1" height="2495.1" rx="399" fill="none" stroke="#36D1FF" stroke-opacity="0.35" stroke-width="3" />
  <g filter="url(#soft1043)"><rect x="2770" y="1831" width="42" height="2" fill="#FFFFFF" opacity="0.828" /><rect x="2790" y="1811" width="2" height="42" fill="#FFFFFF" opacity="0.828" /><rect x="827" y="336" width="48" height="2" fill="#FFFFFF" opacity="0.728" /><rect x="850" y="313" width="2" height="48" fill="#FFFFFF" opacity="0.728" /><rect x="2511" y="1503" width="30" height="2" fill="#FFFFFF" opacity="0.488" /><rect x="2525" y="1489" width="2" height="30" fill="#FFFFFF" opacity="0.488" /><rect x="1365" y="1804" width="64" height="2" fill="#FFFFFF" opacity="0.592" /><rect x="1396" y="1773" width="2" height="64" fill="#FFFFFF" opacity="0.592" /><rect x="1158" y="785" width="62" height="2" fill="#FFFFFF" opacity="0.349" /><rect x="1188" y="755" width="2" height="62" fill="#FFFFFF" opacity="0.349" /><rect x="1704" y="969" width="74" height="2" fill="#FFFFFF" opacity="0.533" /><rect x="1740" y="933" width="2" height="74" fill="#FFFFFF" opacity="0.533" /><rect x="625" y="1102" width="56" height="2" fill="#FFFFFF" opacity="0.659" /><rect x="652" y="1075" width="2" height="56" fill="#FFFFFF" opacity="0.659" /><rect x="1468" y="570" width="60" height="2" fill="#FFFFFF" opacity="0.343" /><rect x="1497" y="541" width="2" height="60" fill="#FFFFFF" opacity="0.343" /><rect x="2504" y="697" width="42" height="2" fill="#FFFFFF" opacity="0.619" /><rect x="2524" y="677" width="2" height="42" fill="#FFFFFF" opacity="0.619" /><rect x="791" y="1867" width="70" height="2" fill="#FFFFFF" opacity="0.620" /><rect x="825" y="1833" width="2" height="70" fill="#FFFFFF" opacity="0.620" /><rect x="2226" y="1069" width="50" height="2" fill="#FFFFFF" opacity="0.624" /><rect x="2250" y="1045" width="2" height="50" fill="#FFFFFF" opacity="0.624" /><rect x="2758" y="2659" width="80" height="2" fill="#FFFFFF" opacity="0.558" /><rect x="2797" y="2620" width="2" height="80" fill="#FFFFFF" opacity="0.558" /><rect x="990" y="345" width="36" height="2" fill="#FFFFFF" opacity="0.821" /><rect x="1007" y="328" width="2" height="36" fill="#FFFFFF" opacity="0.821" /><rect x="771" y="2382" width="78" height="2" fill="#FFFFFF" opacity="0.307" /><rect x="809" y="2344" width="2" height="78" fill="#FFFFFF" opacity="0.307" /><rect x="2618" y="1297" width="32" height="2" fill="#FFFFFF" opacity="0.398" /><rect x="2633" y="1282" width="2" height="32" fill="#FFFFFF" opacity="0.398" /><rect x="1384" y="1707" width="58" height="2" fill="#FFFFFF" opacity="0.754" /><rect x="1412" y="1679" width="2" height="58" fill="#FFFFFF" opacity="0.754" /><rect x="612" y="1250" width="76" height="2" fill="#FFFFFF" opacity="0.332" /><rect x="649" y="1213" width="2" height="76" fill="#FFFFFF" opacity="0.332" /><rect x="1941" y="1657" width="46" height="2" fill="#FFFFFF" opacity="0.728" /><rect x="1963" y="1635" width="2" height="46" fill="#FFFFFF" opacity="0.728" /><rect x="668" y="1672" width="58" height="2" fill="#FFFFFF" opacity="0.823" /><rect x="696" y="1644" width="2" height="58" fill="#FFFFFF" opacity="0.823" /><rect x="1156" y="2250" width="38" height="2" fill="#FFFFFF" opacity="0.426" /><rect x="1174" y="2232" width="2" height="38" fill="#FFFFFF" opacity="0.426" /><rect x="297" y="2175" width="28" height="2" fill="#FFFFFF" opacity="0.539" /><rect x="310" y="2162" width="2" height="28" fill="#FFFFFF" opacity="0.539" /><rect x="2252" y="680" width="44" height="2" fill="#FFFFFF" opacity="0.607" /><rect x="2273" y="659" width="2" height="44" fill="#FFFFFF" opacity="0.607" /><rect x="1572" y="1601" width="54" height="2" fill="#FFFFFF" opacity="0.440" /><rect x="1598" y="1575" width="2" height="54" fill="#FFFFFF" opacity="0.440" /><rect x="1155" y="1610" width="82" height="2" fill="#FFFFFF" opacity="0.317" /><rect x="1195" y="1570" width="2" height="82" fill="#FFFFFF" opacity="0.317" /><rect x="1384" y="1162" width="48" height="2" fill="#FFFFFF" opacity="0.619" /><rect x="1407" y="1139" width="2" height="48" fill="#FFFFFF" opacity="0.619" /><rect x="2619" y="1810" width="54" height="2" fill="#FFFFFF" opacity="0.826" /><rect x="2645" y="1784" width="2" height="54" fill="#FFFFFF" opacity="0.826" /></g>
  <g opacity="0.52"><path d="M996 1006 L2148 1006 L2148 2158 L996 2158 Z" fill="none" stroke="#0C2030" stroke-width="90" /><path d="M996 1582 L2148 1582" stroke="#0C2030" stroke-width="90" /><path d="M1572 1006 L1572 2158" stroke="#0C2030" stroke-width="90" /></g>
  <g filter="url(#soft1043)"><path d="M960 960 L2112 960 L2112 2112 L960 2112 Z" fill="none" stroke="url(#symbol1043)" stroke-width="90" /><path d="M960 1536 L2112 1536" stroke="url(#symbol1043)" stroke-width="90" /><path d="M1536 960 L1536 2112" stroke="url(#symbol1043)" stroke-width="90" /></g>
  <rect x="138" y="138" width="2796" height="2796" rx="629" fill="#FFFFFF" filter="url(#grain1043)" opacity="0.18" />
</svg>
