<svg xmlns="http://www.w3.org/2000/svg" width="3072" height="3072" viewBox="0 0 3072 3072">
  <title>QuartzOS System Icon 009 - clock_01</title>
  <defs><linearGradient id="bg1008" x1="0%" y1="0%" x2="100%" y2="100%"><stop offset="0%" stop-color="#36D1FF" /><stop offset="26%" stop-color="#8A5CFF" /><stop offset="56%" stop-color="#FF9F43" /><stop offset="78%" stop-color="#4E8FC5" /><stop offset="100%" stop-color="#10243A" /></linearGradient><radialGradient id="sun1008" cx="31%" cy="41%" r="88%"><stop offset="0%" stop-color="#FFFFFF" stop-opacity="0.62" /><stop offset="30%" stop-color="#FFD84D" stop-opacity="0.35" /><stop offset="100%" stop-color="#FFD84D" stop-opacity="0" /></radialGradient><linearGradient id="glass1008" x1="0%" y1="0%" x2="0%" y2="100%"><stop offset="0%" stop-color="#FFFFFF" stop-opacity="0.70" /><stop offset="46%" stop-color="#FFFFFF" stop-opacity="0.26" /><stop offset="100%" stop-color="#FFFFFF" stop-opacity="0.00" /></linearGradient><linearGradient id="ribbon1008" x1="0%" y1="0%" x2="100%" y2="0%"><stop offset="0%" stop-color="#36D1FF" stop-opacity="0.18" /><stop offset="34%" stop-color="#8A5CFF" stop-opacity="0.72" /><stop offset="66%" stop-color="#FF9F43" stop-opacity="0.72" /><stop offset="100%" stop-color="#FFD84D" stop-opacity="0.18" /></linearGradient><radialGradient id="orb1008" cx="34%" cy="27%" r="74%"><stop offset="0%" stop-color="#FFFFFF" stop-opacity="0.84" /><stop offset="30%" stop-color="#36D1FF" stop-opacity="0.52" /><stop offset="68%" stop-color="#8A5CFF" stop-opacity="0.42" /><stop offset="100%" stop-color="#FF9F43" stop-opacity="0.20" /></radialGradient><linearGradient id="extrude1008" x1="0%" y1="0%" x2="0%" y2="100%"><stop offset="0%" stop-color="#15283C" stop-opacity="0.45" /><stop offset="100%" stop-color="#08131D" stop-opacity="0.06" /></linearGradient><linearGradient id="symbol1008" x1="0%" y1="0%" x2="100%" y2="100%"><stop offset="0%" stop-color="#FFFFFF" /><stop offset="100%" stop-color="#FFD84D" /></linearGradient><filter id="shadow1008" x="-40%" y="-40%" width="180%" height="180%"><feDropShadow dx="0" dy="49" stdDeviation="86" flood-color="#06111A" flood-opacity="0.54" /></filter><filter id="soft1008" x="-40%" y="-40%" width="180%" height="180%"><feDropShadow dx="0" dy="0" stdDeviation="14" flood-color="#36D1FF" flood-opacity="0.45" /></filter><filter id="grain1008"><feTurbulence type="fractalNoise" baseFrequency="1.009" numOctaves="2" seed="1008" /><feColorMatrix type="saturate" values="0" /><feComponentTransfer><feFuncA type="table" tableValues="0 0.09" /></feComponentTransfer></filter></defs>
  <rect x="138" y="138" width="2796" height="2796" rx="629" fill="url(#bg1008)" filter="url(#shadow1008)" />
  <rect x="138" y="138" width="2796" height="2796" rx="629" fill="url(#sun1008)" />
  <g><circle cx="2021" cy="2237" r="129" fill="#FFFFFF" opacity="0.178" /><circle cx="843" cy="624" r="37" fill="#FFFFFF" opacity="0.135" /><circle cx="2223" cy="780" r="43" fill="#FFFFFF" opacity="0.206" /><circle cx="1902" cy="352" r="59" fill="#FFFFFF" opacity="0.212" /><circle cx="2016" cy="583" r="143" fill="#FFFFFF" opacity="0.097" /><circle cx="688" cy="689" r="152" fill="#FFFFFF" opacity="0.113" /><circle cx="2186" cy="1758" r="159" fill="#FFFFFF" opacity="0.218" /><circle cx="386" cy="887" r="69" fill="#FFFFFF" opacity="0.115" /><circle cx="974" cy="2403" r="129" fill="#FFFFFF" opacity="0.183" /><circle cx="1268" cy="1731" r="85" fill="#FFFFFF" opacity="0.168" /><circle cx="1261" cy="1090" r="97" fill="#FFFFFF" opacity="0.096" /><circle cx="956" cy="1813" r="120" fill="#FFFFFF" opacity="0.181" /><circle cx="399" cy="2505" r="64" fill="#FFFFFF" opacity="0.152" /><circle cx="666" cy="1755" r="88" fill="#FFFFFF" opacity="0.088" /><circle cx="2364" cy="2273" r="68" fill="#FFFFFF" opacity="0.192" /><circle cx="1086" cy="1981" r="137" fill="#FFFFFF" opacity="0.076" /><circle cx="867" cy="1282" r="150" fill="#FFFFFF" opacity="0.131" /><circle cx="1911" cy="1248" r="38" fill="#FFFFFF" opacity="0.221" /><circle cx="1140" cy="1590" r="82" fill="#FFFFFF" opacity="0.172" /><circle cx="2684" cy="707" r="46" fill="#FFFFFF" opacity="0.101" /><circle cx="1004" cy="679" r="83" fill="#FFFFFF" opacity="0.083" /><circle cx="2618" cy="1534" r="64" fill="#FFFFFF" opacity="0.178" /><circle cx="1276" cy="840" r="76" fill="#FFFFFF" opacity="0.062" /><circle cx="1734" cy="909" r="150" fill="#FFFFFF" opacity="0.073" /><circle cx="1134" cy="2535" r="46" fill="#FFFFFF" opacity="0.132" /><circle cx="969" cy="727" r="61" fill="#FFFFFF" opacity="0.064" /><circle cx="1812" cy="897" r="49" fill="#FFFFFF" opacity="0.213" /><circle cx="1278" cy="2675" r="150" fill="#FFFFFF" opacity="0.195" /></g>
  <g><path d="M 336.5 643.0 L 2805.6 366.5 L 2805.6 834.1 L 336.5 1110.6 Z" fill="#FFFFFF" opacity="0.171" /><path d="M 201.9 881.9 L 2708.6 605.4 L 2708.6 1037.6 L 201.9 1314.1 Z" fill="#FFFFFF" opacity="0.224" /><path d="M 323.1 1113.3 L 2752.3 836.8 L 2752.3 1298.0 L 323.1 1574.5 Z" fill="#FFFFFF" opacity="0.219" /><path d="M 392.9 1382.0 L 2752.7 1105.6 L 2752.7 1545.2 L 392.9 1821.7 Z" fill="#FFFFFF" opacity="0.199" /><path d="M 188.2 1639.8 L 2880.5 1363.4 L 2880.5 1815.2 L 188.2 2091.7 Z" fill="#FFFFFF" opacity="0.139" /><path d="M 367.0 1939.3 L 2829.8 1662.8 L 2829.8 2108.5 L 367.0 2385.0 Z" fill="#FFFFFF" opacity="0.164" /><path d="M 307.6 2206.1 L 2825.2 1929.7 L 2825.2 2350.2 L 307.6 2626.6 Z" fill="#FFFFFF" opacity="0.092" /><path d="M 333.1 2399.1 L 2689.0 2122.6 L 2689.0 2603.1 L 333.1 2879.6 Z" fill="#FFFFFF" opacity="0.175" /></g>
  <g filter="url(#soft1008)"><g transform="rotate(-20.62 1536.0 1536.0)"><path d="M-368.6 554.5 C -225.8 502.7, -25.8 578.1, 107.5 551.4 C 250.4 551.9, 450.4 558.2, 583.7 591.9 C 726.5 581.0, 926.5 534.3, 1059.8 609.8 C 1202.7 618.6, 1402.7 495.7, 1536.0 594.1 C 1678.8 607.7, 1878.8 514.9, 2012.2 554.4 C 2155.0 554.4, 2355.0 554.6, 2488.3 514.8 C 2631.2 522.8, 2831.2 596.3, 2964.5 499.2 C 3107.3 521.2, 3307.3 606.1, 3440.6 517.2" fill="none" stroke="url(#ribbon1008)" stroke-width="58.4" stroke-linecap="round" stroke-opacity="0.120" /></g><g transform="rotate(-20.04 1536.0 1536.0)"><path d="M-368.6 726.7 C -241.7 770.9, -63.9 701.6, 54.6 787.0 C 181.6 790.4, 359.4 695.9, 477.9 757.5 C 604.8 758.5, 782.6 695.8, 901.1 709.2 C 1028.1 704.6, 1205.9 735.5, 1324.4 671.6 C 1451.3 659.8, 1629.1 782.8, 1747.6 667.3 C 1874.6 652.5, 2052.4 767.8, 2170.9 699.1 C 2297.9 697.8, 2475.6 754.0, 2594.1 747.6 C 2721.1 742.1, 2898.9 705.0, 3017.4 783.4 C 3144.4 774.7, 3322.1 680.6, 3440.6 784.8" fill="none" stroke="url(#ribbon1008)" stroke-width="54.4" stroke-linecap="round" stroke-opacity="0.146" /></g><g transform="rotate(-19.46 1536.0 1536.0)"><path d="M-368.6 966.5 C -254.4 894.5, -94.4 1009.1, 12.3 939.6 C 126.6 930.6, 286.6 989.3, 393.2 993.7 C 507.5 995.2, 667.5 948.1, 774.1 1031.3 C 888.4 1022.2, 1048.4 922.1, 1155.1 1029.5 C 1269.4 1006.2, 1429.3 932.9, 1536.0 989.6 C 1650.3 988.0, 1810.3 948.8, 1916.9 935.6 C 2031.2 926.6, 2191.2 997.1, 2297.9 900.4 C 2412.1 909.2, 2572.1 1044.5, 2678.8 905.3 C 2793.1 918.7, 2953.1 1018.5, 3059.7 947.3 C 3174.0 940.2, 3334.0 982.4, 3440.6 1001.0" fill="none" stroke="url(#ribbon1008)" stroke-width="50.4" stroke-linecap="round" stroke-opacity="0.172" /></g><g transform="rotate(-18.88 1536.0 1536.0)"><path d="M-368.6 1062.3 C -264.8 1010.0, -119.3 1094.8, -22.3 989.0 C 81.5 968.2, 227.0 1105.0, 324.0 1027.0 C 427.8 1021.6, 573.3 1088.5, 670.3 1086.4 C 774.1 1085.6, 919.6 1033.5, 1016.6 1131.2 C 1120.4 1131.7, 1265.9 983.1, 1362.9 1134.2 C 1466.7 1161.2, 1612.2 989.9, 1709.1 1093.6 C 1813.0 1084.3, 1958.5 1036.6, 2055.4 1034.1 C 2159.3 1038.1, 2304.8 1088.6, 2401.7 991.6 C 2505.6 1008.2, 2651.1 1127.0, 2748.0 992.1 C 2851.9 989.7, 2997.4 1086.5, 3094.3 1035.1 C 3198.2 1031.3, 3343.7 1082.4, 3440.6 1094.7" fill="none" stroke="url(#ribbon1008)" stroke-width="46.4" stroke-linecap="round" stroke-opacity="0.198" /></g><g transform="rotate(-18.30 1536.0 1536.0)"><path d="M-368.6 1348.0 C -273.4 1420.3, -140.1 1298.6, -51.2 1431.2 C 44.0 1420.1, 177.4 1262.4, 266.2 1411.5 C 361.5 1427.2, 494.8 1311.2, 583.7 1353.3 C 678.9 1352.2, 812.2 1344.9, 901.1 1291.9 C 996.4 1270.1, 1129.7 1407.2, 1218.6 1264.5 C 1313.8 1294.3, 1447.1 1420.4, 1536.0 1287.8 C 1631.2 1303.6, 1764.6 1384.5, 1853.4 1347.6 C 1948.7 1347.5, 2082.0 1348.4, 2170.9 1407.6 C 2266.1 1414.9, 2399.4 1296.0, 2488.3 1431.5 C 2583.6 1454.9, 2716.9 1312.2, 2805.8 1404.8 C 2901.0 1401.0, 3034.3 1312.2, 3123.2 1343.6 C 3218.4 1341.9, 3351.8 1349.5, 3440.6 1285.0" fill="none" stroke="url(#ribbon1008)" stroke-width="42.4" stroke-linecap="round" stroke-opacity="0.224" /></g><g transform="rotate(-17.72 1536.0 1536.0)"><path d="M-368.6 1446.3 C -225.8 1505.2, -25.8 1393.4, 107.5 1492.6 C 250.4 1507.9, 450.4 1410.0, 583.7 1422.7 C 726.5 1428.3, 926.5 1471.1, 1059.8 1367.1 C 1202.7 1352.3, 1402.7 1539.6, 1536.0 1359.5 C 1678.8 1362.9, 1878.8 1541.8, 2012.2 1404.6 C 2155.0 1414.1, 2355.0 1487.9, 2488.3 1475.0 C 2631.2 1476.8, 2831.2 1433.1, 2964.5 1527.9 C 3107.3 1556.4, 3307.3 1360.2, 3440.6 1531.4" fill="none" stroke="url(#ribbon1008)" stroke-width="38.4" stroke-linecap="round" stroke-opacity="0.250" /></g><g transform="rotate(-17.14 1536.0 1536.0)"><path d="M-368.6 1668.9 C -241.7 1613.4, -63.9 1730.1, 54.6 1571.6 C 181.6 1604.9, 359.4 1770.4, 477.9 1594.6 C 604.8 1595.7, 782.6 1723.3, 901.1 1662.7 C 1028.1 1661.3, 1205.9 1675.6, 1324.4 1734.5 C 1451.3 1713.8, 1629.1 1616.9, 1747.6 1766.5 C 1874.6 1775.5, 2052.4 1562.6, 2170.9 1739.4 C 2297.9 1716.3, 2475.6 1643.9, 2594.1 1669.4 C 2721.1 1669.3, 2898.9 1668.7, 3017.4 1599.2 C 3144.4 1592.4, 3322.1 1722.8, 3440.6 1571.2" fill="none" stroke="url(#ribbon1008)" stroke-width="34.4" stroke-linecap="round" stroke-opacity="0.276" /></g><g transform="rotate(-16.56 1536.0 1536.0)"><path d="M-368.6 1881.0 C -254.4 1850.1, -94.4 1936.1, 12.3 1780.7 C 126.6 1781.5, 286.6 1968.0, 393.2 1789.5 C 507.5 1791.7, 667.5 1929.3, 774.1 1853.8 C 888.4 1857.8, 1048.4 1894.1, 1155.1 1934.6 C 1269.4 1940.4, 1429.3 1824.1, 1536.0 1983.0 C 1650.3 2015.0, 1810.3 1767.7, 1916.9 1969.5 C 2031.2 1937.2, 2191.2 1806.9, 2297.9 1902.3 C 2412.1 1905.4, 2572.1 1855.7, 2678.8 1822.3 C 2793.1 1832.0, 2953.1 1936.8, 3059.7 1777.9 C 3174.0 1771.3, 3334.0 1967.9, 3440.6 1796.1" fill="none" stroke="url(#ribbon1008)" stroke-width="30.4" stroke-linecap="round" stroke-opacity="0.302" /></g><g transform="rotate(-15.98 1536.0 1536.0)"><path d="M-368.6 2127.4 C -264.8 2055.0, -119.3 2151.4, -22.3 2019.9 C 81.5 2002.8, 227.0 2253.5, 324.0 2030.3 C 427.8 2017.0, 573.3 2178.1, 670.3 2099.6 C 774.1 2105.2, 919.6 2153.2, 1016.6 2185.8 C 1120.4 2200.4, 1265.9 2058.0, 1362.9 2236.5 C 1466.7 2242.8, 1612.2 2055.6, 1709.1 2221.0 C 1813.0 2235.1, 1958.5 2093.2, 2055.4 2148.8 C 2159.3 2145.8, 2304.8 2103.8, 2401.7 2063.5 C 2505.6 2079.2, 2651.1 2195.6, 2748.0 2017.0 C 2851.9 2031.5, 2997.4 2225.1, 3094.3 2037.5 C 3198.2 2039.6, 3343.7 2230.1, 3440.6 2112.5" fill="none" stroke="url(#ribbon1008)" stroke-width="26.4" stroke-linecap="round" stroke-opacity="0.328" /></g><g transform="rotate(-15.40 1536.0 1536.0)"><path d="M-368.6 2304.7 C -273.4 2305.7, -140.1 2304.0, -51.2 2390.6 C 44.0 2396.0, 177.4 2260.3, 266.2 2423.5 C 361.5 2414.8, 494.8 2237.9, 583.7 2384.3 C 678.9 2366.1, 812.2 2222.4, 901.1 2296.8 C 996.4 2298.1, 1129.7 2309.8, 1218.6 2214.1 C 1313.8 2226.5, 1447.1 2341.5, 1536.0 2186.3 C 1631.2 2140.6, 1764.6 2363.5, 1853.4 2230.3 C 1948.7 2248.5, 2082.0 2373.6, 2170.9 2319.4 C 2266.1 2313.7, 2399.4 2290.5, 2488.3 2399.5 C 2583.6 2372.4, 2716.9 2206.1, 2805.8 2422.1 C 2901.0 2432.6, 3034.3 2213.8, 3123.2 2373.5 C 3218.4 2400.2, 3351.8 2237.4, 3440.6 2283.0" fill="none" stroke="url(#ribbon1008)" stroke-width="22.4" stroke-linecap="round" stroke-opacity="0.354" /></g><g transform="rotate(-14.82 1536.0 1536.0)"><path d="M-368.6 2460.3 C -225.8 2512.9, -25.8 2420.4, 107.5 2586.2 C 250.4 2619.2, 450.4 2320.9, 583.7 2548.5 C 726.5 2539.1, 926.5 2388.7, 1059.8 2457.3 C 1202.7 2457.4, 1402.7 2463.4, 1536.0 2367.9 C 1678.8 2401.8, 1878.8 2534.6, 2012.2 2334.5 C 2155.0 2309.7, 2355.0 2511.6, 2488.3 2377.4 C 2631.2 2374.9, 2831.2 2522.3, 2964.5 2470.5 C 3107.3 2470.0, 3307.3 2452.1, 3440.6 2557.5" fill="none" stroke="url(#ribbon1008)" stroke-width="18.4" stroke-linecap="round" stroke-opacity="0.380" /></g><g transform="rotate(-14.24 1536.0 1536.0)"><path d="M-368.6 2595.2 C -241.7 2423.5, -63.9 2679.9, 54.6 2503.4 C 181.6 2480.7, 359.4 2667.7, 477.9 2600.3 C 604.8 2599.2, 782.6 2591.3, 901.1 2694.1 C 1028.1 2719.0, 1205.9 2539.1, 1324.4 2727.9 C 1451.3 2691.5, 1629.1 2488.0, 1747.6 2681.2 C 1874.6 2653.6, 2052.4 2510.2, 2170.9 2582.3 C 2297.9 2585.5, 2475.6 2604.9, 2594.1 2491.2 C 2721.1 2507.7, 2898.9 2671.5, 3017.4 2463.2 C 3144.4 2463.0, 3322.1 2722.2, 3440.6 2515.3" fill="none" stroke="url(#ribbon1008)" stroke-width="14.4" stroke-linecap="round" stroke-opacity="0.406" /></g></g>
  <g><ellipse cx="1536.0" cy="1551.9" rx="728.6" ry="605.7" fill="url(#extrude1008)" opacity="0.220" /><ellipse cx="1536.0" cy="1567.7" rx="736.0" ry="610.9" fill="url(#extrude1008)" opacity="0.205" /><ellipse cx="1536.0" cy="1583.6" rx="743.4" ry="616.1" fill="url(#extrude1008)" opacity="0.190" /><ellipse cx="1536.0" cy="1599.5" rx="750.9" ry="621.3" fill="url(#extrude1008)" opacity="0.175" /><ellipse cx="1536.0" cy="1615.4" rx="758.3" ry="626.5" fill="url(#extrude1008)" opacity="0.160" /><ellipse cx="1536.0" cy="1631.2" rx="765.7" ry="631.7" fill="url(#extrude1008)" opacity="0.145" /><ellipse cx="1536.0" cy="1647.1" rx="773.2" ry="636.9" fill="url(#extrude1008)" opacity="0.130" /><ellipse cx="1536.0" cy="1663.0" rx="780.6" ry="642.1" fill="url(#extrude1008)" opacity="0.115" /><ellipse cx="1536.0" cy="1678.8" rx="788.0" ry="647.4" fill="url(#extrude1008)" opacity="0.100" /><ellipse cx="1536.0" cy="1694.7" rx="795.5" ry="652.6" fill="url(#extrude1008)" opacity="0.085" /><ellipse cx="1536.0" cy="1710.6" rx="802.9" ry="657.8" fill="url(#extrude1008)" opacity="0.070" /><ellipse cx="1536.0" cy="1726.5" rx="810.3" ry="663.0" fill="url(#extrude1008)" opacity="0.055" /></g>
  <ellipse cx="1536.0" cy="1726.5" rx="773.2" ry="214.9" fill="#0B1D2D" opacity="0.24" />
  <ellipse cx="1536.0" cy="1536.0" rx="743.4" ry="651.3" fill="url(#orb1008)" stroke="#FFFFFF" stroke-opacity="0.42" stroke-width="7" />
  <ellipse cx="1431.9" cy="1392.7" rx="505.5" ry="299.6" fill="#FFFFFF" opacity="0.25" />
  <path d="M 199.4 399.4 C 1013.8 -30.7, 2058.2 768.0, 2872.6 215.0 L 2872.6 983.0 C 2089.0 1228.8, 1013.8 307.2, 199.4 1167.4 Z" fill="url(#glass1008)" />
  <rect x="270" y="270" width="2532" height="2532" rx="430" fill="none" stroke="#FFFFFF" stroke-opacity="0.30" stroke-width="5" />
  <rect x="288.4" y="288.4" width="2495.1" height="2495.1" rx="399" fill="none" stroke="#36D1FF" stroke-opacity="0.35" stroke-width="3" />
  <g filter="url(#soft1008)"><rect x="873" y="924" width="38" height="2" fill="#FFFFFF" opacity="0.550" /><rect x="891" y="906" width="2" height="38" fill="#FFFFFF" opacity="0.550" /><rect x="1742" y="2371" width="48" height="2" fill="#FFFFFF" opacity="0.601" /><rect x="1765" y="2348" width="2" height="48" fill="#FFFFFF" opacity="0.601" /><rect x="424" y="2169" width="76" height="2" fill="#FFFFFF" opacity="0.372" /><rect x="461" y="2132" width="2" height="76" fill="#FFFFFF" opacity="0.372" /><rect x="1831" y="886" width="24" height="2" fill="#FFFFFF" opacity="0.739" /><rect x="1842" y="875" width="2" height="24" fill="#FFFFFF" opacity="0.739" /><rect x="1293" y="1912" width="56" height="2" fill="#FFFFFF" opacity="0.837" /><rect x="1320" y="1885" width="2" height="56" fill="#FFFFFF" opacity="0.837" /><rect x="2393" y="1650" width="58" height="2" fill="#FFFFFF" opacity="0.315" /><rect x="2421" y="1622" width="2" height="58" fill="#FFFFFF" opacity="0.315" /><rect x="2228" y="2159" width="64" height="2" fill="#FFFFFF" opacity="0.303" /><rect x="2259" y="2128" width="2" height="64" fill="#FFFFFF" opacity="0.303" /><rect x="1769" y="2211" width="76" height="2" fill="#FFFFFF" opacity="0.396" /><rect x="1806" y="2174" width="2" height="76" fill="#FFFFFF" opacity="0.396" /><rect x="2701" y="1439" width="54" height="2" fill="#FFFFFF" opacity="0.700" /><rect x="2727" y="1413" width="2" height="54" fill="#FFFFFF" opacity="0.700" /><rect x="1034" y="2501" width="54" height="2" fill="#FFFFFF" opacity="0.462" /><rect x="1060" y="2475" width="2" height="54" fill="#FFFFFF" opacity="0.462" /><rect x="1217" y="1849" width="54" height="2" fill="#FFFFFF" opacity="0.388" /><rect x="1243" y="1823" width="2" height="54" fill="#FFFFFF" opacity="0.388" /><rect x="1507" y="634" width="84" height="2" fill="#FFFFFF" opacity="0.488" /><rect x="1548" y="593" width="2" height="84" fill="#FFFFFF" opacity="0.488" /><rect x="875" y="2411" width="34" height="2" fill="#FFFFFF" opacity="0.784" /><rect x="891" y="2395" width="2" height="34" fill="#FFFFFF" opacity="0.784" /><rect x="1987" y="2712" width="44" height="2" fill="#FFFFFF" opacity="0.313" /><rect x="2008" y="2691" width="2" height="44" fill="#FFFFFF" opacity="0.313" /><rect x="1709" y="1398" width="84" height="2" fill="#FFFFFF" opacity="0.390" /><rect x="1750" y="1357" width="2" height="84" fill="#FFFFFF" opacity="0.390" /><rect x="2698" y="1296" width="30" height="2" fill="#FFFFFF" opacity="0.683" /><rect x="2712" y="1282" width="2" height="30" fill="#FFFFFF" opacity="0.683" /><rect x="371" y="2599" width="66" height="2" fill="#FFFFFF" opacity="0.391" /><rect x="403" y="2567" width="2" height="66" fill="#FFFFFF" opacity="0.391" /><rect x="1564" y="646" width="56" height="2" fill="#FFFFFF" opacity="0.492" /><rect x="1591" y="619" width="2" height="56" fill="#FFFFFF" opacity="0.492" /><rect x="1536" y="323" width="84" height="2" fill="#FFFFFF" opacity="0.398" /><rect x="1577" y="282" width="2" height="84" fill="#FFFFFF" opacity="0.398" /><rect x="2473" y="544" width="30" height="2" fill="#FFFFFF" opacity="0.643" /><rect x="2487" y="530" width="2" height="30" fill="#FFFFFF" opacity="0.643" /><rect x="1569" y="1097" width="52" height="2" fill="#FFFFFF" opacity="0.817" /><rect x="1594" y="1072" width="2" height="52" fill="#FFFFFF" opacity="0.817" /><rect x="2757" y="1694" width="48" height="2" fill="#FFFFFF" opacity="0.806" /><rect x="2780" y="1671" width="2" height="48" fill="#FFFFFF" opacity="0.806" /><rect x="1548" y="1427" width="72" height="2" fill="#FFFFFF" opacity="0.312" /><rect x="1583" y="1392" width="2" height="72" fill="#FFFFFF" opacity="0.312" /><rect x="674" y="2460" width="40" height="2" fill="#FFFFFF" opacity="0.604" /><rect x="693" y="2441" width="2" height="40" fill="#FFFFFF" opacity="0.604" /><rect x="2558" y="2253" width="52" height="2" fill="#FFFFFF" opacity="0.439" /><rect x="2583" y="2228" width="2" height="52" fill="#FFFFFF" opacity="0.439" /><rect x="2106" y="2058" width="40" height="2" fill="#FFFFFF" opacity="0.831" /><rect x="2125" y="2039" width="2" height="40" fill="#FFFFFF" opacity="0.831" /></g>
  <g opacity="0.52"><circle cx="1572" cy="1582" r="307" fill="none" stroke="#0C2030" stroke-width="90" /><line x1="1791" y1="1801" x2="2340" y2="2350" stroke="#0C2030" stroke-width="90" stroke-linecap="round" /></g>
  <g filter="url(#soft1008)"><circle cx="1536" cy="1536" r="307" fill="none" stroke="url(#symbol1008)" stroke-width="90" /><line x1="1755" y1="1755" x2="2304" y2="2304" stroke="url(#symbol1008)" stroke-width="90" stroke-linecap="round" /></g>
  <rect x="138" y="138" width="2796" height="2796" rx="629" fill="#FFFFFF" filter="url(#grain1008)" opacity="0.18" />
</svg>
