<svg xmlns="http://www.w3.org/2000/svg" width="3072" height="3072" viewBox="0 0 3072 3072">
  <title>QuartzOS System Icon 109 - clock_06</title>
  <defs><linearGradient id="bg1108" x1="0%" y1="0%" x2="100%" y2="100%"><stop offset="0%" stop-color="#8A5CFF" /><stop offset="26%" stop-color="#FF9F43" /><stop offset="56%" stop-color="#53E3A6" /><stop offset="78%" stop-color="#5AA47F" /><stop offset="100%" stop-color="#1A2B22" /></linearGradient><radialGradient id="sun1108" cx="47%" cy="25%" r="88%"><stop offset="0%" stop-color="#FFFFFF" stop-opacity="0.62" /><stop offset="30%" stop-color="#36D1FF" stop-opacity="0.35" /><stop offset="100%" stop-color="#36D1FF" stop-opacity="0" /></radialGradient><linearGradient id="glass1108" x1="0%" y1="0%" x2="0%" y2="100%"><stop offset="0%" stop-color="#FFFFFF" stop-opacity="0.70" /><stop offset="46%" stop-color="#FFFFFF" stop-opacity="0.26" /><stop offset="100%" stop-color="#FFFFFF" stop-opacity="0.00" /></linearGradient><linearGradient id="ribbon1108" x1="0%" y1="0%" x2="100%" y2="0%"><stop offset="0%" stop-color="#8A5CFF" stop-opacity="0.18" /><stop offset="34%" stop-color="#FF9F43" stop-opacity="0.72" /><stop offset="66%" stop-color="#53E3A6" stop-opacity="0.72" /><stop offset="100%" stop-color="#36D1FF" stop-opacity="0.18" /></linearGradient><radialGradient id="orb1108" cx="34%" cy="27%" r="74%"><stop offset="0%" stop-color="#FFFFFF" stop-opacity="0.84" /><stop offset="30%" stop-color="#8A5CFF" stop-opacity="0.52" /><stop offset="68%" stop-color="#FF9F43" stop-opacity="0.42" /><stop offset="100%" stop-color="#53E3A6" stop-opacity="0.20" /></radialGradient><linearGradient id="extrude1108" x1="0%" y1="0%" x2="0%" y2="100%"><stop offset="0%" stop-color="#15283C" stop-opacity="0.45" /><stop offset="100%" stop-color="#08131D" stop-opacity="0.06" /></linearGradient><linearGradient id="symbol1108" x1="0%" y1="0%" x2="100%" y2="100%"><stop offset="0%" stop-color="#FFFFFF" /><stop offset="100%" stop-color="#36D1FF" /></linearGradient><filter id="shadow1108" x="-40%" y="-40%" width="180%" height="180%"><feDropShadow dx="0" dy="49" stdDeviation="86" flood-color="#06111A" flood-opacity="0.54" /></filter><filter id="soft1108" x="-40%" y="-40%" width="180%" height="180%"><feDropShadow dx="0" dy="0" stdDeviation="14" flood-color="#8A5CFF" flood-opacity="0.45" /></filter><filter id="grain1108"><feTurbulence type="fractalNoise" baseFrequency="1.077" numOctaves="2" seed="1108" /><feColorMatrix type="saturate" values="0" /><feComponentTransfer><feFuncA type="table" tableValues="0 0.09" /></feComponentTransfer></filter></defs>
  <rect x="138" y="138" width="2796" height="2796" rx="629" fill="url(#bg1108)" filter="url(#shadow1108)" />
  <rect x="138" y="138" width="2796" height="2796" rx="629" fill="url(#sun1108)" />
  <g><circle cx="852" cy="2588" r="113" fill="#FFFFFF" opacity="0.129" /><circle cx="503" cy="918" r="104" fill="#FFFFFF" opacity="0.112" /><circle cx="460" cy="1822" r="54" fill="#FFFFFF" opacity="0.170" /><circle cx="503" cy="2124" r="79" fill="#FFFFFF" opacity="0.083" /><circle cx="801" cy="806" r="88" fill="#FFFFFF" opacity="0.215" /><circle cx="2634" cy="1682" r="124" fill="#FFFFFF" opacity="0.216" /><circle cx="1986" cy="1238" r="77" fill="#FFFFFF" opacity="0.155" /><circle cx="1726" cy="425" r="88" fill="#FFFFFF" opacity="0.178" /><circle cx="979" cy="791" r="142" fill="#FFFFFF" opacity="0.066" /><circle cx="2562" cy="991" r="102" fill="#FFFFFF" opacity="0.084" /><circle cx="612" cy="766" r="118" fill="#FFFFFF" opacity="0.095" /><circle cx="2111" cy="882" r="121" fill="#FFFFFF" opacity="0.224" /><circle cx="1235" cy="2528" r="124" fill="#FFFFFF" opacity="0.123" /><circle cx="1104" cy="651" r="106" fill="#FFFFFF" opacity="0.220" /><circle cx="685" cy="2285" r="154" fill="#FFFFFF" opacity="0.119" /><circle cx="568" cy="853" r="74" fill="#FFFFFF" opacity="0.127" /><circle cx="2569" cy="996" r="50" fill="#FFFFFF" opacity="0.101" /><circle cx="2015" cy="2146" r="48" fill="#FFFFFF" opacity="0.240" /><circle cx="2521" cy="650" r="88" fill="#FFFFFF" opacity="0.063" /><circle cx="1938" cy="1341" r="123" fill="#FFFFFF" opacity="0.147" /><circle cx="1442" cy="1295" r="109" fill="#FFFFFF" opacity="0.222" /><circle cx="1628" cy="2588" r="61" fill="#FFFFFF" opacity="0.094" /><circle cx="1388" cy="1210" r="121" fill="#FFFFFF" opacity="0.162" /><circle cx="1963" cy="550" r="115" fill="#FFFFFF" opacity="0.145" /><circle cx="428" cy="2621" r="56" fill="#FFFFFF" opacity="0.094" /><circle cx="1843" cy="2661" r="139" fill="#FFFFFF" opacity="0.219" /><circle cx="490" cy="1388" r="146" fill="#FFFFFF" opacity="0.110" /><circle cx="2608" cy="1827" r="67" fill="#FFFFFF" opacity="0.088" /></g>
  <g><path d="M 260.2 653.3 L 2764.1 376.8 L 2764.1 821.4 L 260.2 1097.9 Z" fill="#FFFFFF" opacity="0.199" /><path d="M 358.3 916.6 L 2924.3 640.1 L 2924.3 1066.1 L 358.3 1342.5 Z" fill="#FFFFFF" opacity="0.127" /><path d="M 220.3 1158.3 L 2819.0 881.8 L 2819.0 1370.3 L 220.3 1646.8 Z" fill="#FFFFFF" opacity="0.103" /><path d="M 190.1 1420.3 L 2819.3 1143.8 L 2819.3 1584.4 L 190.1 1860.8 Z" fill="#FFFFFF" opacity="0.212" /><path d="M 157.3 1625.3 L 2710.0 1348.8 L 2710.0 1827.0 L 157.3 2103.5 Z" fill="#FFFFFF" opacity="0.151" /><path d="M 281.0 1888.4 L 2775.8 1611.9 L 2775.8 2059.4 L 281.0 2335.9 Z" fill="#FFFFFF" opacity="0.156" /><path d="M 314.6 2176.0 L 2707.8 1899.5 L 2707.8 2352.7 L 314.6 2629.2 Z" fill="#FFFFFF" opacity="0.202" /><path d="M 185.4 2412.7 L 2899.7 2136.2 L 2899.7 2596.8 L 185.4 2873.2 Z" fill="#FFFFFF" opacity="0.161" /></g>
  <g filter="url(#soft1108)"><g transform="rotate(-23.46 1536.0 1536.0)"><path d="M-368.6 572.8 C -225.8 631.0, -25.8 534.0, 107.5 585.2 C 250.4 581.4, 450.4 559.8, 583.7 542.8 C 726.5 544.5, 926.5 607.5, 1059.8 518.6 C 1202.7 539.7, 1402.7 603.4, 1536.0 527.3 C 1678.8 517.3, 1878.8 618.2, 2012.2 563.6 C 2155.0 560.8, 2355.0 576.4, 2488.3 605.5 C 2631.2 606.4, 2831.2 550.0, 2964.5 627.6 C 3107.3 622.3, 3307.3 513.2, 3440.6 616.4" fill="none" stroke="url(#ribbon1108)" stroke-width="58.4" stroke-linecap="round" stroke-opacity="0.120" /></g><g transform="rotate(-22.88 1536.0 1536.0)"><path d="M-368.6 773.7 C -241.7 850.0, -63.9 721.9, 54.6 795.6 C 181.6 791.8, 359.4 761.4, 477.9 747.0 C 604.8 751.0, 782.6 785.6, 901.1 714.7 C 1028.1 707.3, 1205.9 800.1, 1324.4 718.2 C 1451.3 722.1, 1629.1 840.2, 1747.6 755.3 C 1874.6 750.1, 2052.4 787.5, 2170.9 803.7 C 2297.9 806.9, 2475.6 744.7, 2594.1 833.8 C 2721.1 833.9, 2898.9 745.6, 3017.4 827.5 C 3144.4 835.5, 3322.1 709.6, 3440.6 788.6" fill="none" stroke="url(#ribbon1108)" stroke-width="54.4" stroke-linecap="round" stroke-opacity="0.146" /></g><g transform="rotate(-22.30 1536.0 1536.0)"><path d="M-368.6 874.5 C -254.4 791.3, -94.4 925.3, 12.3 839.1 C 126.6 843.2, 286.6 893.0, 393.2 892.7 C 507.5 889.3, 667.5 858.4, 774.1 935.2 C 888.4 914.6, 1048.4 813.9, 1155.1 940.9 C 1269.4 931.2, 1429.3 830.7, 1536.0 906.3 C 1650.3 914.7, 1810.3 841.0, 1916.9 852.4 C 2031.2 856.8, 2191.2 893.0, 2297.9 811.8 C 2412.1 804.9, 2572.1 927.1, 2678.8 809.3 C 2793.1 803.9, 2953.1 915.2, 3059.7 846.3 C 3174.0 841.9, 3334.0 890.0, 3440.6 900.4" fill="none" stroke="url(#ribbon1108)" stroke-width="50.4" stroke-linecap="round" stroke-opacity="0.172" /></g><g transform="rotate(-21.72 1536.0 1536.0)"><path d="M-368.6 1153.8 C -264.8 1099.5, -119.3 1189.5, -22.3 1108.5 C 81.5 1092.2, 227.0 1176.8, 324.0 1166.5 C 427.8 1162.5, 573.3 1144.2, 670.3 1216.8 C 774.1 1230.4, 919.6 1127.5, 1016.6 1228.9 C 1120.4 1214.2, 1265.9 1129.0, 1362.9 1195.5 C 1466.7 1210.9, 1612.2 1113.3, 1709.1 1136.8 C 1813.0 1135.3, 1958.5 1165.0, 2055.4 1088.5 C 2159.3 1072.9, 2304.8 1199.5, 2401.7 1079.8 C 2505.6 1096.7, 2651.1 1213.6, 2748.0 1116.0 C 2851.9 1123.7, 2997.4 1186.8, 3094.3 1175.2 C 3198.2 1183.6, 3343.7 1135.5, 3440.6 1221.4" fill="none" stroke="url(#ribbon1108)" stroke-width="46.4" stroke-linecap="round" stroke-opacity="0.198" /></g><g transform="rotate(-21.14 1536.0 1536.0)"><path d="M-368.6 1243.6 C -273.4 1320.0, -140.1 1222.3, -51.2 1327.1 C 44.0 1321.7, 177.4 1165.4, 266.2 1300.7 C 361.5 1320.4, 494.8 1217.8, 583.7 1239.6 C 678.9 1239.0, 812.2 1245.4, 901.1 1180.9 C 996.4 1184.8, 1129.7 1272.1, 1218.6 1160.3 C 1313.8 1165.2, 1447.1 1273.9, 1536.0 1190.2 C 1631.2 1191.5, 1764.6 1274.4, 1853.4 1252.5 C 1948.7 1255.4, 2082.0 1240.4, 2170.9 1309.4 C 2266.1 1290.7, 2399.4 1169.7, 2488.3 1326.4 C 2583.6 1305.4, 2716.9 1190.7, 2805.8 1293.2 C 2901.0 1283.4, 3034.3 1220.1, 3123.2 1229.9 C 3218.4 1225.6, 3351.8 1258.9, 3440.6 1174.9" fill="none" stroke="url(#ribbon1108)" stroke-width="42.4" stroke-linecap="round" stroke-opacity="0.224" /></g><g transform="rotate(-20.56 1536.0 1536.0)"><path d="M-368.6 1517.0 C -225.8 1599.7, -25.8 1483.4, 107.5 1544.9 C 250.4 1548.6, 450.4 1483.6, 583.7 1474.5 C 726.5 1480.2, 926.5 1546.7, 1059.8 1430.0 C 1202.7 1428.2, 1402.7 1590.8, 1536.0 1438.2 C 1678.8 1441.6, 1878.8 1544.5, 2012.2 1494.2 C 2155.0 1490.5, 2355.0 1536.7, 2488.3 1564.0 C 2631.2 1573.8, 2831.2 1493.3, 2964.5 1605.3 C 3107.3 1618.3, 3307.3 1418.6, 3440.6 1593.0" fill="none" stroke="url(#ribbon1108)" stroke-width="38.4" stroke-linecap="round" stroke-opacity="0.250" /></g><g transform="rotate(-19.98 1536.0 1536.0)"><path d="M-368.6 1708.4 C -241.7 1660.7, -63.9 1757.9, 54.6 1615.8 C 181.6 1581.6, 359.4 1807.2, 477.9 1621.5 C 604.8 1591.1, 782.6 1777.2, 901.1 1679.9 C 1028.1 1675.9, 1205.9 1723.5, 1324.4 1755.6 C 1451.3 1764.7, 1629.1 1661.8, 1747.6 1802.6 C 1874.6 1825.3, 2052.4 1659.0, 2170.9 1792.5 C 2297.9 1780.5, 2475.6 1610.7, 2594.1 1731.4 C 2721.1 1732.7, 2898.9 1692.6, 3017.4 1656.3 C 3144.4 1664.8, 3322.1 1767.7, 3440.6 1612.8" fill="none" stroke="url(#ribbon1108)" stroke-width="34.4" stroke-linecap="round" stroke-opacity="0.276" /></g><g transform="rotate(-19.40 1536.0 1536.0)"><path d="M-368.6 1853.6 C -254.4 1858.3, -94.4 1852.1, 12.3 1931.6 C 126.6 1959.5, 286.6 1775.5, 393.2 1958.1 C 507.5 1919.1, 667.5 1766.3, 774.1 1921.2 C 888.4 1899.6, 1048.4 1784.9, 1155.1 1843.3 C 1269.4 1840.1, 1429.3 1858.8, 1536.0 1771.6 C 1650.3 1771.4, 1810.3 1881.2, 1916.9 1749.7 C 2031.2 1710.4, 2191.2 1936.0, 2297.9 1790.7 C 2412.1 1810.6, 2572.1 1919.5, 2678.8 1869.9 C 2793.1 1865.2, 2953.1 1834.8, 3059.7 1939.2 C 3174.0 1921.6, 3334.0 1768.8, 3440.6 1956.5" fill="none" stroke="url(#ribbon1108)" stroke-width="30.4" stroke-linecap="round" stroke-opacity="0.302" /></g><g transform="rotate(-18.82 1536.0 1536.0)"><path d="M-368.6 2034.4 C -264.8 2123.9, -119.3 1978.7, -22.3 2037.9 C 81.5 2038.4, 227.0 2031.0, 324.0 1956.7 C 427.8 1930.8, 573.3 2066.1, 670.3 1922.6 C 774.1 1922.8, 919.6 2071.5, 1016.6 1956.4 C 1120.4 1950.6, 1265.9 2094.5, 1362.9 2037.5 C 1466.7 2038.1, 1612.2 2033.3, 1709.1 2116.7 C 1813.0 2134.4, 1958.5 1952.8, 2055.4 2146.1 C 2159.3 2162.3, 2304.8 1985.4, 2401.7 2107.7 C 2505.6 2103.9, 2651.1 1982.0, 2748.0 2024.8 C 2851.9 2021.4, 2997.4 2040.7, 3094.3 1947.8 C 3198.2 1939.2, 3343.7 2123.9, 3440.6 1923.3" fill="none" stroke="url(#ribbon1108)" stroke-width="26.4" stroke-linecap="round" stroke-opacity="0.328" /></g><g transform="rotate(-18.24 1536.0 1536.0)"><path d="M-368.6 2309.8 C -273.4 2162.0, -140.1 2406.5, -51.2 2208.5 C 44.0 2191.9, 177.4 2430.7, 266.2 2283.9 C 361.5 2288.7, 494.8 2336.3, 583.7 2374.9 C 678.9 2374.5, 812.2 2266.3, 901.1 2426.5 C 996.4 2399.2, 1129.7 2260.0, 1218.6 2407.3 C 1313.8 2406.5, 1447.1 2244.5, 1536.0 2328.9 C 1631.2 2323.3, 1764.6 2290.6, 1853.4 2238.9 C 1948.7 2261.1, 2082.0 2366.4, 2170.9 2191.9 C 2266.1 2228.6, 2399.4 2448.6, 2488.3 2216.4 C 2583.6 2198.2, 2716.9 2364.9, 2805.8 2297.6 C 2901.0 2299.2, 3034.3 2318.1, 3123.2 2386.1 C 3218.4 2360.8, 3351.8 2250.7, 3440.6 2428.3" fill="none" stroke="url(#ribbon1108)" stroke-width="22.4" stroke-linecap="round" stroke-opacity="0.354" /></g><g transform="rotate(-17.66 1536.0 1536.0)"><path d="M-368.6 2437.4 C -225.8 2362.2, -25.8 2458.2, 107.5 2314.8 C 250.4 2271.0, 450.4 2500.1, 583.7 2331.0 C 726.5 2369.7, 926.5 2543.8, 1059.8 2411.7 C 1202.7 2421.0, 1402.7 2445.4, 1536.0 2508.0 C 1678.8 2482.5, 1878.8 2384.6, 2012.2 2561.4 C 2155.0 2581.9, 2355.0 2312.9, 2488.3 2539.6 C 2631.2 2510.5, 2831.2 2367.7, 2964.5 2455.7 C 3107.3 2453.5, 3307.3 2416.7, 3440.6 2360.8" fill="none" stroke="url(#ribbon1108)" stroke-width="18.4" stroke-linecap="round" stroke-opacity="0.380" /></g><g transform="rotate(-17.08 1536.0 1536.0)"><path d="M-368.6 2624.0 C -241.7 2615.6, -63.9 2626.0, 54.6 2714.8 C 181.6 2690.2, 359.4 2565.6, 477.9 2757.0 C 604.8 2716.3, 782.6 2511.1, 901.1 2718.4 C 1028.1 2681.3, 1205.9 2575.6, 1324.4 2622.6 C 1451.3 2622.5, 1629.1 2625.2, 1747.6 2527.6 C 1874.6 2535.8, 2052.4 2659.5, 2170.9 2491.1 C 2297.9 2523.1, 2475.6 2698.7, 2594.1 2535.2 C 2721.1 2570.7, 2898.9 2662.1, 3017.4 2633.1 C 3144.4 2632.6, 3322.1 2615.8, 3440.6 2725.5" fill="none" stroke="url(#ribbon1108)" stroke-width="14.4" stroke-linecap="round" stroke-opacity="0.406" /></g></g>
  <g><ellipse cx="1536.0" cy="1551.9" rx="728.6" ry="605.7" fill="url(#extrude1108)" opacity="0.220" /><ellipse cx="1536.0" cy="1567.7" rx="736.0" ry="610.9" fill="url(#extrude1108)" opacity="0.205" /><ellipse cx="1536.0" cy="1583.6" rx="743.4" ry="616.1" fill="url(#extrude1108)" opacity="0.190" /><ellipse cx="1536.0" cy="1599.5" rx="750.9" ry="621.3" fill="url(#extrude1108)" opacity="0.175" /><ellipse cx="1536.0" cy="1615.4" rx="758.3" ry="626.5" fill="url(#extrude1108)" opacity="0.160" /><ellipse cx="1536.0" cy="1631.2" rx="765.7" ry="631.7" fill="url(#extrude1108)" opacity="0.145" /><ellipse cx="1536.0" cy="1647.1" rx="773.2" ry="636.9" fill="url(#extrude1108)" opacity="0.130" /><ellipse cx="1536.0" cy="1663.0" rx="780.6" ry="642.1" fill="url(#extrude1108)" opacity="0.115" /><ellipse cx="1536.0" cy="1678.8" rx="788.0" ry="647.4" fill="url(#extrude1108)" opacity="0.100" /><ellipse cx="1536.0" cy="1694.7" rx="795.5" ry="652.6" fill="url(#extrude1108)" opacity="0.085" /><ellipse cx="1536.0" cy="1710.6" rx="802.9" ry="657.8" fill="url(#extrude1108)" opacity="0.070" /><ellipse cx="1536.0" cy="1726.5" rx="810.3" ry="663.0" fill="url(#extrude1108)" opacity="0.055" /></g>
  <ellipse cx="1536.0" cy="1726.5" rx="773.2" ry="214.9" fill="#0B1D2D" opacity="0.24" />
  <ellipse cx="1536.0" cy="1536.0" rx="743.4" ry="651.3" fill="url(#orb1108)" stroke="#FFFFFF" stroke-opacity="0.42" stroke-width="7" />
  <ellipse cx="1431.9" cy="1392.7" rx="505.5" ry="299.6" fill="#FFFFFF" opacity="0.25" />
  <path d="M 199.4 399.4 C 1013.8 -30.7, 2058.2 768.0, 2872.6 215.0 L 2872.6 983.0 C 2089.0 1228.8, 1013.8 307.2, 199.4 1167.4 Z" fill="url(#glass1108)" />
  <rect x="270" y="270" width="2532" height="2532" rx="430" fill="none" stroke="#FFFFFF" stroke-opacity="0.30" stroke-width="5" />
  <rect x="288.4" y="288.4" width="2495.1" height="2495.1" rx="399" fill="none" stroke="#8A5CFF" stroke-opacity="0.35" stroke-width="3" />
  <g filter="url(#soft1108)"><rect x="1226" y="2041" width="76" height="2" fill="#FFFFFF" opacity="0.419" /><rect x="1263" y="2004" width="2" height="76" fill="#FFFFFF" opacity="0.419" /><rect x="386" y="575" width="30" height="2" fill="#FFFFFF" opacity="0.645" /><rect x="400" y="561" width="2" height="30" fill="#FFFFFF" opacity="0.645" /><rect x="1322" y="496" width="60" height="2" fill="#FFFFFF" opacity="0.847" /><rect x="1351" y="467" width="2" height="60" fill="#FFFFFF" opacity="0.847" /><rect x="1796" y="2681" width="82" height="2" fill="#FFFFFF" opacity="0.550" /><rect x="1836" y="2641" width="2" height="82" fill="#FFFFFF" opacity="0.550" /><rect x="2538" y="354" width="36" height="2" fill="#FFFFFF" opacity="0.817" /><rect x="2555" y="337" width="2" height="36" fill="#FFFFFF" opacity="0.817" /><rect x="1280" y="759" width="38" height="2" fill="#FFFFFF" opacity="0.820" /><rect x="1298" y="741" width="2" height="38" fill="#FFFFFF" opacity="0.820" /><rect x="1440" y="1011" width="40" height="2" fill="#FFFFFF" opacity="0.559" /><rect x="1459" y="992" width="2" height="40" fill="#FFFFFF" opacity="0.559" /><rect x="1762" y="647" width="30" height="2" fill="#FFFFFF" opacity="0.565" /><rect x="1776" y="633" width="2" height="30" fill="#FFFFFF" opacity="0.565" /><rect x="2700" y="535" width="72" height="2" fill="#FFFFFF" opacity="0.624" /><rect x="2735" y="500" width="2" height="72" fill="#FFFFFF" opacity="0.624" /><rect x="2765" y="1425" width="58" height="2" fill="#FFFFFF" opacity="0.731" /><rect x="2793" y="1397" width="2" height="58" fill="#FFFFFF" opacity="0.731" /><rect x="928" y="898" width="42" height="2" fill="#FFFFFF" opacity="0.523" /><rect x="948" y="878" width="2" height="42" fill="#FFFFFF" opacity="0.523" /><rect x="2734" y="730" width="30" height="2" fill="#FFFFFF" opacity="0.696" /><rect x="2748" y="716" width="2" height="30" fill="#FFFFFF" opacity="0.696" /><rect x="2168" y="2043" width="40" height="2" fill="#FFFFFF" opacity="0.707" /><rect x="2187" y="2024" width="2" height="40" fill="#FFFFFF" opacity="0.707" /><rect x="774" y="1491" width="44" height="2" fill="#FFFFFF" opacity="0.407" /><rect x="795" y="1470" width="2" height="44" fill="#FFFFFF" opacity="0.407" /><rect x="2373" y="2399" width="58" height="2" fill="#FFFFFF" opacity="0.729" /><rect x="2401" y="2371" width="2" height="58" fill="#FFFFFF" opacity="0.729" /><rect x="745" y="2450" width="28" height="2" fill="#FFFFFF" opacity="0.343" /><rect x="758" y="2437" width="2" height="28" fill="#FFFFFF" opacity="0.343" /><rect x="507" y="814" width="62" height="2" fill="#FFFFFF" opacity="0.738" /><rect x="537" y="784" width="2" height="62" fill="#FFFFFF" opacity="0.738" /><rect x="1956" y="2690" width="72" height="2" fill="#FFFFFF" opacity="0.415" /><rect x="1991" y="2655" width="2" height="72" fill="#FFFFFF" opacity="0.415" /><rect x="1080" y="2426" width="70" height="2" fill="#FFFFFF" opacity="0.815" /><rect x="1114" y="2392" width="2" height="70" fill="#FFFFFF" opacity="0.815" /><rect x="2332" y="2551" width="40" height="2" fill="#FFFFFF" opacity="0.557" /><rect x="2351" y="2532" width="2" height="40" fill="#FFFFFF" opacity="0.557" /><rect x="1198" y="758" width="58" height="2" fill="#FFFFFF" opacity="0.331" /><rect x="1226" y="730" width="2" height="58" fill="#FFFFFF" opacity="0.331" /><rect x="673" y="913" width="60" height="2" fill="#FFFFFF" opacity="0.788" /><rect x="702" y="884" width="2" height="60" fill="#FFFFFF" opacity="0.788" /><rect x="2213" y="1536" width="84" height="2" fill="#FFFFFF" opacity="0.652" /><rect x="2254" y="1495" width="2" height="84" fill="#FFFFFF" opacity="0.652" /><rect x="1442" y="1463" width="56" height="2" fill="#FFFFFF" opacity="0.773" /><rect x="1469" y="1436" width="2" height="56" fill="#FFFFFF" opacity="0.773" /><rect x="926" y="2580" width="60" height="2" fill="#FFFFFF" opacity="0.721" /><rect x="955" y="2551" width="2" height="60" fill="#FFFFFF" opacity="0.721" /><rect x="1069" y="2740" width="26" height="2" fill="#FFFFFF" opacity="0.510" /><rect x="1081" y="2728" width="2" height="26" fill="#FFFFFF" opacity="0.510" /></g>
  <g opacity="0.52"><path d="M1572 1006 L2148 1582 L1572 2158 L996 1582 Z" fill="none" stroke="#0C2030" stroke-width="90" stroke-linejoin="round" /><circle cx="1572" cy="1582" r="153" fill="#0C2030" /></g>
  <g filter="url(#soft1108)"><path d="M1536 960 L2112 1536 L1536 2112 L960 1536 Z" fill="none" stroke="url(#symbol1108)" stroke-width="90" stroke-linejoin="round" /><circle cx="1536" cy="1536" r="153" fill="url(#symbol1108)" /></g>
  <rect x="138" y="138" width="2796" height="2796" rx="629" fill="#FFFFFF" filter="url(#grain1108)" opacity="0.18" />
</svg>
