<svg xmlns="http://www.w3.org/2000/svg" width="3072" height="3072" viewBox="0 0 3072 3072">
  <title>QuartzOS System Icon 006 - cpu_01</title>
  <defs><linearGradient id="bg1005" x1="0%" y1="0%" x2="100%" y2="100%"><stop offset="0%" stop-color="#FF9F43" /><stop offset="26%" stop-color="#53E3A6" /><stop offset="56%" stop-color="#3B82FF" /><stop offset="78%" stop-color="#4F79A7" /><stop offset="100%" stop-color="#1B2630" /></linearGradient><radialGradient id="sun1005" cx="32%" cy="40%" r="88%"><stop offset="0%" stop-color="#FFFFFF" stop-opacity="0.62" /><stop offset="30%" stop-color="#8A5CFF" stop-opacity="0.35" /><stop offset="100%" stop-color="#8A5CFF" stop-opacity="0" /></radialGradient><linearGradient id="glass1005" x1="0%" y1="0%" x2="0%" y2="100%"><stop offset="0%" stop-color="#FFFFFF" stop-opacity="0.70" /><stop offset="46%" stop-color="#FFFFFF" stop-opacity="0.26" /><stop offset="100%" stop-color="#FFFFFF" stop-opacity="0.00" /></linearGradient><linearGradient id="ribbon1005" x1="0%" y1="0%" x2="100%" y2="0%"><stop offset="0%" stop-color="#FF9F43" stop-opacity="0.18" /><stop offset="34%" stop-color="#53E3A6" stop-opacity="0.72" /><stop offset="66%" stop-color="#3B82FF" stop-opacity="0.72" /><stop offset="100%" stop-color="#8A5CFF" stop-opacity="0.18" /></linearGradient><radialGradient id="orb1005" cx="34%" cy="27%" r="74%"><stop offset="0%" stop-color="#FFFFFF" stop-opacity="0.84" /><stop offset="30%" stop-color="#FF9F43" stop-opacity="0.52" /><stop offset="68%" stop-color="#53E3A6" stop-opacity="0.42" /><stop offset="100%" stop-color="#3B82FF" stop-opacity="0.20" /></radialGradient><linearGradient id="extrude1005" x1="0%" y1="0%" x2="0%" y2="100%"><stop offset="0%" stop-color="#15283C" stop-opacity="0.45" /><stop offset="100%" stop-color="#08131D" stop-opacity="0.06" /></linearGradient><linearGradient id="symbol1005" x1="0%" y1="0%" x2="100%" y2="100%"><stop offset="0%" stop-color="#FFFFFF" /><stop offset="100%" stop-color="#8A5CFF" /></linearGradient><filter id="shadow1005" x="-40%" y="-40%" width="180%" height="180%"><feDropShadow dx="0" dy="49" stdDeviation="86" flood-color="#06111A" flood-opacity="0.54" /></filter><filter id="soft1005" x="-40%" y="-40%" width="180%" height="180%"><feDropShadow dx="0" dy="0" stdDeviation="14" flood-color="#FF9F43" flood-opacity="0.45" /></filter><filter id="grain1005"><feTurbulence type="fractalNoise" baseFrequency="0.794" numOctaves="2" seed="1005" /><feColorMatrix type="saturate" values="0" /><feComponentTransfer><feFuncA type="table" tableValues="0 0.09" /></feComponentTransfer></filter></defs>
  <rect x="138" y="138" width="2796" height="2796" rx="629" fill="url(#bg1005)" filter="url(#shadow1005)" />
  <rect x="138" y="138" width="2796" height="2796" rx="629" fill="url(#sun1005)" />
  <g><circle cx="637" cy="634" r="157" fill="#FFFFFF" opacity="0.132" /><circle cx="1024" cy="2052" r="115" fill="#FFFFFF" opacity="0.133" /><circle cx="1132" cy="2567" r="100" fill="#FFFFFF" opacity="0.118" /><circle cx="2198" cy="1993" r="79" fill="#FFFFFF" opacity="0.084" /><circle cx="1443" cy="2025" r="43" fill="#FFFFFF" opacity="0.164" /><circle cx="2530" cy="1387" r="135" fill="#FFFFFF" opacity="0.220" /><circle cx="874" cy="1539" r="133" fill="#FFFFFF" opacity="0.122" /><circle cx="2035" cy="2316" r="151" fill="#FFFFFF" opacity="0.182" /><circle cx="1325" cy="1019" r="134" fill="#FFFFFF" opacity="0.162" /><circle cx="2696" cy="1868" r="59" fill="#FFFFFF" opacity="0.196" /><circle cx="1546" cy="2631" r="96" fill="#FFFFFF" opacity="0.162" /><circle cx="1333" cy="2475" r="107" fill="#FFFFFF" opacity="0.201" /><circle cx="1469" cy="1438" r="138" fill="#FFFFFF" opacity="0.102" /><circle cx="1886" cy="837" r="113" fill="#FFFFFF" opacity="0.153" /><circle cx="2590" cy="2553" r="86" fill="#FFFFFF" opacity="0.191" /><circle cx="406" cy="952" r="44" fill="#FFFFFF" opacity="0.075" /><circle cx="2087" cy="2500" r="74" fill="#FFFFFF" opacity="0.207" /><circle cx="1131" cy="950" r="77" fill="#FFFFFF" opacity="0.206" /><circle cx="1669" cy="1872" r="132" fill="#FFFFFF" opacity="0.188" /><circle cx="601" cy="1624" r="153" fill="#FFFFFF" opacity="0.170" /><circle cx="814" cy="1367" r="127" fill="#FFFFFF" opacity="0.149" /><circle cx="525" cy="752" r="117" fill="#FFFFFF" opacity="0.233" /><circle cx="2407" cy="371" r="45" fill="#FFFFFF" opacity="0.080" /><circle cx="2693" cy="1931" r="82" fill="#FFFFFF" opacity="0.130" /><circle cx="437" cy="482" r="131" fill="#FFFFFF" opacity="0.225" /><circle cx="2290" cy="2007" r="155" fill="#FFFFFF" opacity="0.163" /><circle cx="1103" cy="1993" r="138" fill="#FFFFFF" opacity="0.203" /><circle cx="610" cy="2608" r="141" fill="#FFFFFF" opacity="0.235" /></g>
  <g><path d="M 170.0 657.4 L 2684.0 381.0 L 2684.0 863.5 L 170.0 1140.0 Z" fill="#FFFFFF" opacity="0.203" /><path d="M 243.8 920.1 L 2692.2 643.6 L 2692.2 1099.3 L 243.8 1375.7 Z" fill="#FFFFFF" opacity="0.100" /><path d="M 263.0 1131.6 L 2728.8 855.1 L 2728.8 1284.4 L 263.0 1560.9 Z" fill="#FFFFFF" opacity="0.097" /><path d="M 282.6 1354.0 L 2708.1 1077.5 L 2708.1 1566.5 L 282.6 1843.0 Z" fill="#FFFFFF" opacity="0.162" /><path d="M 299.9 1669.7 L 2848.4 1393.3 L 2848.4 1827.0 L 299.9 2103.5 Z" fill="#FFFFFF" opacity="0.149" /><path d="M 152.2 1929.0 L 2740.5 1652.5 L 2740.5 2131.3 L 152.2 2407.8 Z" fill="#FFFFFF" opacity="0.156" /><path d="M 360.4 2214.7 L 2796.1 1938.2 L 2796.1 2368.3 L 360.4 2644.8 Z" fill="#FFFFFF" opacity="0.139" /><path d="M 375.1 2445.2 L 2868.1 2168.7 L 2868.1 2588.2 L 375.1 2864.7 Z" fill="#FFFFFF" opacity="0.201" /></g>
  <g filter="url(#soft1005)"><g transform="rotate(-22.50 1536.0 1536.0)"><path d="M-368.6 503.2 C -225.8 535.2, -25.8 480.5, 107.5 558.2 C 250.4 569.8, 450.4 452.7, 583.7 537.5 C 726.5 525.3, 926.5 465.3, 1059.8 496.0 C 1202.7 495.1, 1402.7 510.7, 1536.0 458.9 C 1678.8 471.7, 1878.8 533.2, 2012.2 448.6 C 2155.0 463.1, 2355.0 558.5, 2488.3 471.4 C 2631.2 459.1, 2831.2 524.1, 2964.5 513.5 C 3107.3 514.1, 3307.3 493.6, 3440.6 549.3" fill="none" stroke="url(#ribbon1005)" stroke-width="58.4" stroke-linecap="round" stroke-opacity="0.120" /></g><g transform="rotate(-21.92 1536.0 1536.0)"><path d="M-368.6 765.6 C -241.7 767.3, -63.9 763.8, 54.6 722.1 C 181.6 707.1, 359.4 806.9, 477.9 703.2 C 604.8 697.1, 782.6 835.5, 901.1 722.2 C 1028.1 708.6, 1205.9 790.0, 1324.4 767.5 C 1451.3 767.0, 1629.1 764.3, 1747.6 811.6 C 1874.6 800.3, 2052.4 717.6, 2170.9 827.9 C 2297.9 830.7, 2475.6 706.9, 2594.1 806.3 C 2721.1 791.8, 2898.9 721.0, 3017.4 760.1 C 3144.4 759.4, 3322.1 771.0, 3440.6 717.2" fill="none" stroke="url(#ribbon1005)" stroke-width="54.4" stroke-linecap="round" stroke-opacity="0.146" /></g><g transform="rotate(-21.34 1536.0 1536.0)"><path d="M-368.6 871.7 C -254.4 858.3, -94.4 877.9, 12.3 912.0 C 126.6 903.2, 286.6 840.8, 393.2 940.3 C 507.5 914.1, 667.5 834.0, 774.1 927.0 C 888.4 920.4, 1048.4 829.1, 1155.1 880.1 C 1269.4 881.2, 1429.3 868.0, 1536.0 828.1 C 1650.3 811.6, 1810.3 915.9, 1916.9 802.5 C 2031.2 816.6, 2191.2 926.9, 2297.9 818.9 C 2412.1 821.0, 2572.1 889.4, 2678.8 867.2 C 2793.1 866.3, 2953.1 874.0, 3059.7 918.3 C 3174.0 900.2, 3334.0 850.0, 3440.6 941.1" fill="none" stroke="url(#ribbon1005)" stroke-width="50.4" stroke-linecap="round" stroke-opacity="0.172" /></g><g transform="rotate(-20.76 1536.0 1536.0)"><path d="M-368.6 1102.7 C -264.8 1185.7, -119.3 1031.5, -22.3 1152.7 C 81.5 1149.0, 227.0 1056.6, 324.0 1096.0 C 427.8 1097.6, 573.3 1109.8, 670.3 1043.4 C 774.1 1023.2, 919.6 1128.4, 1016.6 1026.7 C 1120.4 1009.1, 1265.9 1127.8, 1362.9 1056.1 C 1466.7 1073.3, 1612.2 1121.5, 1709.1 1113.8 C 1813.0 1110.3, 1958.5 1091.6, 2055.4 1164.7 C 2159.3 1158.9, 2304.8 1037.0, 2401.7 1178.0 C 2505.6 1200.9, 2651.1 1015.9, 2748.0 1145.6 C 2851.9 1148.9, 2997.4 1066.2, 3094.3 1087.2 C 3198.2 1092.5, 3343.7 1110.6, 3440.6 1038.2" fill="none" stroke="url(#ribbon1005)" stroke-width="46.4" stroke-linecap="round" stroke-opacity="0.198" /></g><g transform="rotate(-20.18 1536.0 1536.0)"><path d="M-368.6 1266.3 C -273.4 1304.7, -140.1 1249.7, -51.2 1246.0 C 44.0 1252.6, 177.4 1280.1, 266.2 1194.0 C 361.5 1169.7, 494.8 1321.5, 583.7 1185.9 C 678.9 1196.9, 812.2 1346.5, 901.1 1226.6 C 996.4 1229.8, 1129.7 1296.5, 1218.6 1291.4 C 1313.8 1287.3, 1447.1 1246.8, 1536.0 1341.0 C 1631.2 1323.6, 1764.6 1242.6, 1853.4 1345.3 C 1948.7 1360.3, 2082.0 1177.8, 2170.9 1301.7 C 2266.1 1311.2, 2399.4 1234.8, 2488.3 1236.7 C 2583.6 1238.5, 2716.9 1276.2, 2805.8 1189.7 C 2901.0 1159.8, 3034.3 1333.7, 3123.2 1189.1 C 3218.4 1160.8, 3351.8 1352.1, 3440.6 1235.4" fill="none" stroke="url(#ribbon1005)" stroke-width="42.4" stroke-linecap="round" stroke-opacity="0.224" /></g><g transform="rotate(-19.60 1536.0 1536.0)"><path d="M-368.6 1463.5 C -225.8 1368.5, -25.8 1502.5, 107.5 1373.4 C 250.4 1396.5, 450.4 1528.2, 583.7 1408.1 C 726.5 1391.3, 926.5 1516.8, 1059.8 1476.3 C 1202.7 1472.9, 1402.7 1449.7, 1536.0 1536.8 C 1678.8 1531.9, 1878.8 1380.4, 2012.2 1552.8 C 2155.0 1553.8, 2355.0 1375.3, 2488.3 1514.6 C 2631.2 1531.8, 2831.2 1402.4, 2964.5 1445.4 C 3107.3 1451.2, 3307.3 1483.3, 3440.6 1387.2" fill="none" stroke="url(#ribbon1005)" stroke-width="38.4" stroke-linecap="round" stroke-opacity="0.250" /></g><g transform="rotate(-19.02 1536.0 1536.0)"><path d="M-368.6 1671.1 C -241.7 1549.4, -63.9 1723.5, 54.6 1578.6 C 181.6 1597.6, 359.4 1723.0, 477.9 1629.3 C 604.8 1614.0, 782.6 1711.5, 901.1 1705.3 C 1028.1 1703.1, 1205.9 1631.3, 1324.4 1760.6 C 1451.3 1793.9, 1629.1 1633.3, 1747.6 1761.5 C 1874.6 1795.6, 2052.4 1598.7, 2170.9 1707.6 C 2297.9 1705.3, 2475.6 1646.9, 2594.1 1631.6 C 2721.1 1647.2, 2898.9 1694.5, 3017.4 1579.5 C 3144.4 1564.9, 3322.1 1716.4, 3440.6 1582.9" fill="none" stroke="url(#ribbon1005)" stroke-width="34.4" stroke-linecap="round" stroke-opacity="0.276" /></g><g transform="rotate(-18.44 1536.0 1536.0)"><path d="M-368.6 1880.5 C -254.4 1932.1, -94.4 1814.7, 12.3 1985.2 C 126.6 2009.4, 286.6 1781.8, 393.2 1952.7 C 507.5 1958.3, 667.5 1794.2, 774.1 1876.4 C 888.4 1878.0, 1048.4 1884.0, 1155.1 1802.5 C 1269.4 1809.7, 1429.3 1923.8, 1536.0 1775.9 C 1650.3 1763.1, 1810.3 1957.4, 1916.9 1812.7 C 2031.2 1790.6, 2191.2 1950.6, 2297.9 1890.6 C 2412.1 1891.6, 2572.1 1870.7, 2678.8 1962.3 C 2793.1 1958.1, 2953.1 1817.6, 3059.7 1984.4 C 3174.0 2023.1, 3334.0 1820.6, 3440.6 1943.4" fill="none" stroke="url(#ribbon1005)" stroke-width="30.4" stroke-linecap="round" stroke-opacity="0.302" /></g><g transform="rotate(-17.86 1536.0 1536.0)"><path d="M-368.6 2013.8 C -264.8 1949.6, -119.3 2089.6, -22.3 2001.9 C 81.5 2004.0, 227.0 2026.6, 324.0 2085.3 C 427.8 2105.2, 573.3 1938.9, 670.3 2125.3 C 774.1 2116.6, 919.6 1950.9, 1016.6 2097.7 C 1120.4 2107.0, 1265.9 1960.2, 1362.9 2019.2 C 1466.7 2017.4, 1612.2 2011.5, 1709.1 1937.5 C 1813.0 1935.5, 1958.5 2049.7, 2055.4 1902.0 C 2159.3 1870.5, 2304.8 2132.1, 2401.7 1934.4 C 2505.6 1912.9, 2651.1 2044.8, 2748.0 2014.9 C 2851.9 2014.6, 2997.4 2013.5, 3094.3 2094.8 C 3198.2 2111.9, 3343.7 1968.1, 3440.6 2125.6" fill="none" stroke="url(#ribbon1005)" stroke-width="26.4" stroke-linecap="round" stroke-opacity="0.328" /></g><g transform="rotate(-17.28 1536.0 1536.0)"><path d="M-368.6 2284.4 C -273.4 2257.5, -140.1 2330.9, -51.2 2175.2 C 44.0 2203.1, 177.4 2371.3, 266.2 2174.6 C 361.5 2194.6, 494.8 2412.8, 583.7 2240.5 C 678.9 2254.9, 812.2 2336.4, 901.1 2333.1 C 996.4 2344.3, 1129.7 2242.9, 1218.6 2396.1 C 1313.8 2440.6, 1447.1 2204.7, 1536.0 2391.4 C 1631.2 2375.1, 1764.6 2169.6, 1853.4 2321.8 C 1948.7 2320.6, 2082.0 2253.5, 2170.9 2229.5 C 2266.1 2222.6, 2399.4 2325.4, 2488.3 2170.5 C 2583.6 2173.0, 2716.9 2347.8, 2805.8 2180.6 C 2901.0 2202.4, 3034.3 2335.1, 3123.2 2253.7 C 3218.4 2244.8, 3351.8 2308.2, 3440.6 2345.4" fill="none" stroke="url(#ribbon1005)" stroke-width="22.4" stroke-linecap="round" stroke-opacity="0.354" /></g><g transform="rotate(-16.70 1536.0 1536.0)"><path d="M-368.6 2417.4 C -225.8 2409.5, -25.8 2422.4, 107.5 2319.4 C 250.4 2343.3, 450.4 2480.8, 583.7 2292.4 C 726.5 2304.1, 926.5 2537.5, 1059.8 2341.1 C 1202.7 2326.8, 1402.7 2482.7, 1536.0 2436.2 C 1678.8 2439.9, 1878.8 2399.6, 2012.2 2519.8 C 2155.0 2545.3, 2355.0 2362.0, 2488.3 2541.3 C 2631.2 2580.6, 2831.2 2350.0, 2964.5 2487.7 C 3107.3 2494.5, 3307.3 2348.8, 3440.6 2391.4" fill="none" stroke="url(#ribbon1005)" stroke-width="18.4" stroke-linecap="round" stroke-opacity="0.380" /></g><g transform="rotate(-16.12 1536.0 1536.0)"><path d="M-368.6 2694.7 C -241.7 2707.1, -63.9 2688.6, 54.6 2605.7 C 181.6 2610.5, 359.4 2725.6, 477.9 2561.8 C 604.8 2610.2, 782.6 2817.2, 901.1 2598.5 C 1028.1 2601.1, 1205.9 2756.7, 1324.4 2693.5 C 1451.3 2693.3, 1629.1 2695.1, 1747.6 2789.3 C 1874.6 2758.8, 2052.4 2594.2, 2170.9 2827.7 C 2297.9 2805.7, 2475.6 2571.4, 2594.1 2785.4 C 2721.1 2793.2, 2898.9 2611.7, 3017.4 2688.1 C 3144.4 2689.7, 3322.1 2702.6, 3440.6 2594.8" fill="none" stroke="url(#ribbon1005)" stroke-width="14.4" stroke-linecap="round" stroke-opacity="0.406" /></g></g>
  <g><ellipse cx="1536.0" cy="1551.9" rx="728.6" ry="605.7" fill="url(#extrude1005)" opacity="0.220" /><ellipse cx="1536.0" cy="1567.7" rx="736.0" ry="610.9" fill="url(#extrude1005)" opacity="0.205" /><ellipse cx="1536.0" cy="1583.6" rx="743.4" ry="616.1" fill="url(#extrude1005)" opacity="0.190" /><ellipse cx="1536.0" cy="1599.5" rx="750.9" ry="621.3" fill="url(#extrude1005)" opacity="0.175" /><ellipse cx="1536.0" cy="1615.4" rx="758.3" ry="626.5" fill="url(#extrude1005)" opacity="0.160" /><ellipse cx="1536.0" cy="1631.2" rx="765.7" ry="631.7" fill="url(#extrude1005)" opacity="0.145" /><ellipse cx="1536.0" cy="1647.1" rx="773.2" ry="636.9" fill="url(#extrude1005)" opacity="0.130" /><ellipse cx="1536.0" cy="1663.0" rx="780.6" ry="642.1" fill="url(#extrude1005)" opacity="0.115" /><ellipse cx="1536.0" cy="1678.8" rx="788.0" ry="647.4" fill="url(#extrude1005)" opacity="0.100" /><ellipse cx="1536.0" cy="1694.7" rx="795.5" ry="652.6" fill="url(#extrude1005)" opacity="0.085" /><ellipse cx="1536.0" cy="1710.6" rx="802.9" ry="657.8" fill="url(#extrude1005)" opacity="0.070" /><ellipse cx="1536.0" cy="1726.5" rx="810.3" ry="663.0" fill="url(#extrude1005)" opacity="0.055" /></g>
  <ellipse cx="1536.0" cy="1726.5" rx="773.2" ry="214.9" fill="#0B1D2D" opacity="0.24" />
  <ellipse cx="1536.0" cy="1536.0" rx="743.4" ry="651.3" fill="url(#orb1005)" stroke="#FFFFFF" stroke-opacity="0.42" stroke-width="7" />
  <ellipse cx="1431.9" cy="1392.7" rx="505.5" ry="299.6" fill="#FFFFFF" opacity="0.25" />
  <path d="M 199.4 399.4 C 1013.8 -30.7, 2058.2 768.0, 2872.6 215.0 L 2872.6 983.0 C 2089.0 1228.8, 1013.8 307.2, 199.4 1167.4 Z" fill="url(#glass1005)" />
  <rect x="270" y="270" width="2532" height="2532" rx="430" fill="none" stroke="#FFFFFF" stroke-opacity="0.30" stroke-width="5" />
  <rect x="288.4" y="288.4" width="2495.1" height="2495.1" rx="399" fill="none" stroke="#FF9F43" stroke-opacity="0.35" stroke-width="3" />
  <g filter="url(#soft1005)"><rect x="1691" y="1748" width="80" height="2" fill="#FFFFFF" opacity="0.836" /><rect x="1730" y="1709" width="2" height="80" fill="#FFFFFF" opacity="0.836" /><rect x="1106" y="869" width="44" height="2" fill="#FFFFFF" opacity="0.850" /><rect x="1127" y="848" width="2" height="44" fill="#FFFFFF" opacity="0.850" /><rect x="566" y="387" width="82" height="2" fill="#FFFFFF" opacity="0.824" /><rect x="606" y="347" width="2" height="82" fill="#FFFFFF" opacity="0.824" /><rect x="955" y="391" width="40" height="2" fill="#FFFFFF" opacity="0.560" /><rect x="974" y="372" width="2" height="40" fill="#FFFFFF" opacity="0.560" /><rect x="961" y="2104" width="40" height="2" fill="#FFFFFF" opacity="0.503" /><rect x="980" y="2085" width="2" height="40" fill="#FFFFFF" opacity="0.503" /><rect x="2330" y="413" width="38" height="2" fill="#FFFFFF" opacity="0.617" /><rect x="2348" y="395" width="2" height="38" fill="#FFFFFF" opacity="0.617" /><rect x="2576" y="678" width="84" height="2" fill="#FFFFFF" opacity="0.393" /><rect x="2617" y="637" width="2" height="84" fill="#FFFFFF" opacity="0.393" /><rect x="2270" y="1171" width="68" height="2" fill="#FFFFFF" opacity="0.474" /><rect x="2303" y="1138" width="2" height="68" fill="#FFFFFF" opacity="0.474" /><rect x="546" y="1450" width="72" height="2" fill="#FFFFFF" opacity="0.422" /><rect x="581" y="1415" width="2" height="72" fill="#FFFFFF" opacity="0.422" /><rect x="2175" y="1939" width="72" height="2" fill="#FFFFFF" opacity="0.521" /><rect x="2210" y="1904" width="2" height="72" fill="#FFFFFF" opacity="0.521" /><rect x="1076" y="881" width="58" height="2" fill="#FFFFFF" opacity="0.765" /><rect x="1104" y="853" width="2" height="58" fill="#FFFFFF" opacity="0.765" /><rect x="2274" y="505" width="38" height="2" fill="#FFFFFF" opacity="0.814" /><rect x="2292" y="487" width="2" height="38" fill="#FFFFFF" opacity="0.814" /><rect x="1048" y="2163" width="76" height="2" fill="#FFFFFF" opacity="0.380" /><rect x="1085" y="2126" width="2" height="76" fill="#FFFFFF" opacity="0.380" /><rect x="2596" y="986" width="24" height="2" fill="#FFFFFF" opacity="0.797" /><rect x="2607" y="975" width="2" height="24" fill="#FFFFFF" opacity="0.797" /><rect x="1720" y="1391" width="60" height="2" fill="#FFFFFF" opacity="0.387" /><rect x="1749" y="1362" width="2" height="60" fill="#FFFFFF" opacity="0.387" /><rect x="395" y="2283" width="60" height="2" fill="#FFFFFF" opacity="0.566" /><rect x="424" y="2254" width="2" height="60" fill="#FFFFFF" opacity="0.566" /><rect x="1030" y="2227" width="64" height="2" fill="#FFFFFF" opacity="0.753" /><rect x="1061" y="2196" width="2" height="64" fill="#FFFFFF" opacity="0.753" /><rect x="1568" y="2432" width="56" height="2" fill="#FFFFFF" opacity="0.391" /><rect x="1595" y="2405" width="2" height="56" fill="#FFFFFF" opacity="0.391" /><rect x="2625" y="1124" width="74" height="2" fill="#FFFFFF" opacity="0.717" /><rect x="2661" y="1088" width="2" height="74" fill="#FFFFFF" opacity="0.717" /><rect x="575" y="1232" width="76" height="2" fill="#FFFFFF" opacity="0.672" /><rect x="612" y="1195" width="2" height="76" fill="#FFFFFF" opacity="0.672" /><rect x="1010" y="1052" width="42" height="2" fill="#FFFFFF" opacity="0.759" /><rect x="1030" y="1032" width="2" height="42" fill="#FFFFFF" opacity="0.759" /><rect x="2337" y="1130" width="72" height="2" fill="#FFFFFF" opacity="0.704" /><rect x="2372" y="1095" width="2" height="72" fill="#FFFFFF" opacity="0.704" /><rect x="788" y="814" width="78" height="2" fill="#FFFFFF" opacity="0.626" /><rect x="826" y="776" width="2" height="78" fill="#FFFFFF" opacity="0.626" /><rect x="2522" y="1345" width="44" height="2" fill="#FFFFFF" opacity="0.629" /><rect x="2543" y="1324" width="2" height="44" fill="#FFFFFF" opacity="0.629" /><rect x="2324" y="267" width="70" height="2" fill="#FFFFFF" opacity="0.547" /><rect x="2358" y="233" width="2" height="70" fill="#FFFFFF" opacity="0.547" /><rect x="2082" y="331" width="26" height="2" fill="#FFFFFF" opacity="0.541" /><rect x="2094" y="319" width="2" height="26" fill="#FFFFFF" opacity="0.541" /></g>
  <g opacity="0.52"><rect x="1060" y="1070" width="1024" height="1024" rx="153" fill="none" stroke="#0C2030" stroke-width="90" /><line x1="1316" y1="1326" x2="1828" y2="1838" stroke="#0C2030" stroke-width="90" stroke-linecap="round" /><line x1="1828" y1="1326" x2="1316" y2="1838" stroke="#0C2030" stroke-width="90" stroke-linecap="round" /></g>
  <g filter="url(#soft1005)"><rect x="1024" y="1024" width="1024" height="1024" rx="153" fill="none" stroke="url(#symbol1005)" stroke-width="90" /><line x1="1280" y1="1280" x2="1792" y2="1792" stroke="url(#symbol1005)" stroke-width="90" stroke-linecap="round" /><line x1="1792" y1="1280" x2="1280" y2="1792" stroke="url(#symbol1005)" stroke-width="90" stroke-linecap="round" /></g>
  <rect x="138" y="138" width="2796" height="2796" rx="629" fill="#FFFFFF" filter="url(#grain1005)" opacity="0.18" />
</svg>
