<svg xmlns="http://www.w3.org/2000/svg" width="3072" height="3072" viewBox="0 0 3072 3072">
  <title>QuartzOS System Icon 065 - display_04</title>
  <defs><linearGradient id="bg1064" x1="0%" y1="0%" x2="100%" y2="100%"><stop offset="0%" stop-color="#36D1FF" /><stop offset="26%" stop-color="#8A5CFF" /><stop offset="56%" stop-color="#FF9F43" /><stop offset="78%" stop-color="#3C8FC1" /><stop offset="100%" stop-color="#1E2E3A" /></linearGradient><radialGradient id="sun1064" cx="46%" cy="13%" r="88%"><stop offset="0%" stop-color="#FFFFFF" stop-opacity="0.62" /><stop offset="30%" stop-color="#FFD84D" stop-opacity="0.35" /><stop offset="100%" stop-color="#FFD84D" stop-opacity="0" /></radialGradient><linearGradient id="glass1064" x1="0%" y1="0%" x2="0%" y2="100%"><stop offset="0%" stop-color="#FFFFFF" stop-opacity="0.70" /><stop offset="46%" stop-color="#FFFFFF" stop-opacity="0.26" /><stop offset="100%" stop-color="#FFFFFF" stop-opacity="0.00" /></linearGradient><linearGradient id="ribbon1064" x1="0%" y1="0%" x2="100%" y2="0%"><stop offset="0%" stop-color="#36D1FF" stop-opacity="0.18" /><stop offset="34%" stop-color="#8A5CFF" stop-opacity="0.72" /><stop offset="66%" stop-color="#FF9F43" stop-opacity="0.72" /><stop offset="100%" stop-color="#FFD84D" stop-opacity="0.18" /></linearGradient><radialGradient id="orb1064" cx="34%" cy="27%" r="74%"><stop offset="0%" stop-color="#FFFFFF" stop-opacity="0.84" /><stop offset="30%" stop-color="#36D1FF" stop-opacity="0.52" /><stop offset="68%" stop-color="#8A5CFF" stop-opacity="0.42" /><stop offset="100%" stop-color="#FF9F43" stop-opacity="0.20" /></radialGradient><linearGradient id="extrude1064" x1="0%" y1="0%" x2="0%" y2="100%"><stop offset="0%" stop-color="#15283C" stop-opacity="0.45" /><stop offset="100%" stop-color="#08131D" stop-opacity="0.06" /></linearGradient><linearGradient id="symbol1064" x1="0%" y1="0%" x2="100%" y2="100%"><stop offset="0%" stop-color="#FFFFFF" /><stop offset="100%" stop-color="#FFD84D" /></linearGradient><filter id="shadow1064" x="-40%" y="-40%" width="180%" height="180%"><feDropShadow dx="0" dy="49" stdDeviation="86" flood-color="#06111A" flood-opacity="0.54" /></filter><filter id="soft1064" x="-40%" y="-40%" width="180%" height="180%"><feDropShadow dx="0" dy="0" stdDeviation="14" flood-color="#36D1FF" flood-opacity="0.45" /></filter><filter id="grain1064"><feTurbulence type="fractalNoise" baseFrequency="0.621" numOctaves="2" seed="1064" /><feColorMatrix type="saturate" values="0" /><feComponentTransfer><feFuncA type="table" tableValues="0 0.09" /></feComponentTransfer></filter></defs>
  <rect x="138" y="138" width="2796" height="2796" rx="629" fill="url(#bg1064)" filter="url(#shadow1064)" />
  <rect x="138" y="138" width="2796" height="2796" rx="629" fill="url(#sun1064)" />
  <g><circle cx="2240" cy="1833" r="139" fill="#FFFFFF" opacity="0.191" /><circle cx="2170" cy="1393" r="69" fill="#FFFFFF" opacity="0.158" /><circle cx="454" cy="2130" r="107" fill="#FFFFFF" opacity="0.169" /><circle cx="781" cy="1908" r="153" fill="#FFFFFF" opacity="0.178" /><circle cx="1772" cy="1812" r="115" fill="#FFFFFF" opacity="0.096" /><circle cx="1239" cy="2160" r="44" fill="#FFFFFF" opacity="0.191" /><circle cx="653" cy="2421" r="102" fill="#FFFFFF" opacity="0.144" /><circle cx="1093" cy="1324" r="114" fill="#FFFFFF" opacity="0.078" /><circle cx="1229" cy="1258" r="65" fill="#FFFFFF" opacity="0.128" /><circle cx="1442" cy="2452" r="121" fill="#FFFFFF" opacity="0.178" /><circle cx="2469" cy="1816" r="128" fill="#FFFFFF" opacity="0.181" /><circle cx="1506" cy="2311" r="50" fill="#FFFFFF" opacity="0.099" /><circle cx="992" cy="993" r="135" fill="#FFFFFF" opacity="0.135" /><circle cx="1512" cy="1141" r="113" fill="#FFFFFF" opacity="0.201" /><circle cx="2193" cy="1029" r="105" fill="#FFFFFF" opacity="0.126" /><circle cx="2222" cy="1181" r="128" fill="#FFFFFF" opacity="0.153" /><circle cx="2341" cy="613" r="85" fill="#FFFFFF" opacity="0.088" /><circle cx="1113" cy="1152" r="145" fill="#FFFFFF" opacity="0.169" /><circle cx="2335" cy="1124" r="128" fill="#FFFFFF" opacity="0.112" /><circle cx="1531" cy="1073" r="90" fill="#FFFFFF" opacity="0.224" /><circle cx="1760" cy="1635" r="36" fill="#FFFFFF" opacity="0.228" /><circle cx="2157" cy="633" r="38" fill="#FFFFFF" opacity="0.136" /><circle cx="1267" cy="1863" r="99" fill="#FFFFFF" opacity="0.163" /><circle cx="1790" cy="719" r="119" fill="#FFFFFF" opacity="0.159" /><circle cx="1590" cy="1059" r="107" fill="#FFFFFF" opacity="0.132" /><circle cx="775" cy="887" r="62" fill="#FFFFFF" opacity="0.093" /><circle cx="1543" cy="2460" r="107" fill="#FFFFFF" opacity="0.165" /><circle cx="1404" cy="2383" r="109" fill="#FFFFFF" opacity="0.173" /></g>
  <g><path d="M 289.9 632.9 L 2708.1 356.4 L 2708.1 799.9 L 289.9 1076.4 Z" fill="#FFFFFF" opacity="0.236" /><path d="M 231.1 907.2 L 2749.1 630.7 L 2749.1 1099.8 L 231.1 1376.3 Z" fill="#FFFFFF" opacity="0.215" /><path d="M 320.1 1113.9 L 2724.9 837.4 L 2724.9 1266.0 L 320.1 1542.4 Z" fill="#FFFFFF" opacity="0.091" /><path d="M 352.5 1369.8 L 2745.2 1093.3 L 2745.2 1571.9 L 352.5 1848.4 Z" fill="#FFFFFF" opacity="0.144" /><path d="M 161.4 1635.0 L 2687.9 1358.6 L 2687.9 1806.7 L 161.4 2083.2 Z" fill="#FFFFFF" opacity="0.106" /><path d="M 268.4 1932.6 L 2717.8 1656.1 L 2717.8 2109.9 L 268.4 2386.4 Z" fill="#FFFFFF" opacity="0.209" /><path d="M 386.7 2205.1 L 2883.9 1928.6 L 2883.9 2373.8 L 386.7 2650.3 Z" fill="#FFFFFF" opacity="0.207" /><path d="M 213.7 2404.6 L 2741.8 2128.2 L 2741.8 2604.4 L 213.7 2880.9 Z" fill="#FFFFFF" opacity="0.113" /></g>
  <g filter="url(#soft1064)"><g transform="rotate(-5.93 1536.0 1536.0)"><path d="M-368.6 477.1 C -225.8 454.3, -25.8 496.4, 107.5 502.0 C 250.4 494.4, 450.4 466.3, 583.7 529.9 C 726.5 515.7, 926.5 444.4, 1059.8 525.8 C 1202.7 511.6, 1402.7 430.2, 1536.0 492.2 C 1678.8 491.1, 1878.8 470.9, 2012.2 449.5 C 2155.0 452.3, 2355.0 504.0, 2488.3 423.5 C 2631.2 428.6, 2831.2 529.1, 2964.5 430.1 C 3107.3 440.9, 3307.3 492.6, 3440.6 465.2" fill="none" stroke="url(#ribbon1064)" stroke-width="58.4" stroke-linecap="round" stroke-opacity="0.120" /></g><g transform="rotate(-5.35 1536.0 1536.0)"><path d="M-368.6 660.4 C -241.7 651.5, -63.9 673.0, 54.6 607.0 C 181.6 617.4, 359.4 695.2, 477.9 600.2 C 604.8 593.1, 782.6 701.8, 901.1 630.0 C 1028.1 624.7, 1205.9 675.4, 1324.4 678.2 C 1451.3 674.4, 1629.1 649.9, 1747.6 715.7 C 1874.6 703.8, 2052.4 635.9, 2170.9 719.7 C 2297.9 700.3, 2475.6 589.5, 2594.1 687.7 C 2721.1 686.8, 2898.9 632.6, 3017.4 639.2 C 3144.4 638.1, 3322.1 678.6, 3440.6 603.6" fill="none" stroke="url(#ribbon1064)" stroke-width="54.4" stroke-linecap="round" stroke-opacity="0.146" /></g><g transform="rotate(-4.77 1536.0 1536.0)"><path d="M-368.6 952.6 C -254.4 866.4, -94.4 975.3, 12.3 921.4 C 126.6 918.9, 286.6 985.3, 393.2 975.3 C 507.5 981.5, 667.5 930.8, 774.1 1015.5 C 888.4 1019.8, 1048.4 888.3, 1155.1 1017.6 C 1269.4 1023.8, 1429.3 875.8, 1536.0 980.2 C 1650.3 985.9, 1810.3 929.3, 1916.9 926.1 C 2031.2 935.7, 2191.2 971.6, 2297.9 888.1 C 2412.1 889.4, 2572.1 1024.2, 2678.8 889.3 C 2793.1 908.3, 2953.1 983.1, 3059.7 928.8 C 3174.0 926.6, 3334.0 975.6, 3440.6 982.8" fill="none" stroke="url(#ribbon1064)" stroke-width="50.4" stroke-linecap="round" stroke-opacity="0.172" /></g><g transform="rotate(-4.19 1536.0 1536.0)"><path d="M-368.6 1129.0 C -264.8 1209.4, -119.3 1103.7, -22.3 1167.1 C 81.5 1170.8, 227.0 1114.8, 324.0 1108.0 C 427.8 1106.8, 573.3 1138.2, 670.3 1061.6 C 774.1 1061.6, 919.6 1191.0, 1016.6 1056.1 C 1120.4 1063.3, 1265.9 1152.0, 1362.9 1094.8 C 1466.7 1100.3, 1612.2 1169.7, 1709.1 1154.2 C 1813.0 1147.1, 1958.5 1104.7, 2055.4 1198.4 C 2159.3 1180.9, 2304.8 1081.3, 2401.7 1200.4 C 2505.6 1205.4, 2651.1 1072.2, 2748.0 1159.1 C 2851.9 1151.3, 2997.4 1109.1, 3094.3 1099.6 C 3198.2 1105.8, 3343.7 1150.0, 3440.6 1057.8" fill="none" stroke="url(#ribbon1064)" stroke-width="46.4" stroke-linecap="round" stroke-opacity="0.198" /></g><g transform="rotate(-3.61 1536.0 1536.0)"><path d="M-368.6 1345.7 C -273.4 1322.1, -140.1 1354.7, -51.2 1383.7 C 44.0 1375.8, 177.4 1332.6, 266.2 1425.5 C 361.5 1404.9, 494.8 1308.3, 583.7 1418.9 C 678.9 1431.6, 812.2 1271.6, 901.1 1367.8 C 996.4 1372.8, 1129.7 1322.4, 1218.6 1303.3 C 1313.8 1288.0, 1447.1 1363.5, 1536.0 1264.5 C 1631.2 1257.6, 1764.6 1436.0, 1853.4 1274.9 C 1948.7 1273.6, 2082.0 1374.2, 2170.9 1328.2 C 2266.1 1327.6, 2399.4 1351.0, 2488.3 1392.1 C 2583.6 1374.4, 2716.9 1305.2, 2805.8 1427.8 C 2901.0 1404.3, 3034.3 1275.0, 3123.2 1413.7 C 3218.4 1398.3, 3351.8 1309.6, 3440.6 1358.3" fill="none" stroke="url(#ribbon1064)" stroke-width="42.4" stroke-linecap="round" stroke-opacity="0.224" /></g><g transform="rotate(-3.03 1536.0 1536.0)"><path d="M-368.6 1451.5 C -225.8 1368.7, -25.8 1521.1, 107.5 1422.8 C 250.4 1414.0, 450.4 1480.4, 583.7 1493.2 C 726.5 1484.2, 926.5 1425.9, 1059.8 1538.2 C 1202.7 1523.2, 1402.7 1375.9, 1536.0 1530.6 C 1678.8 1516.6, 1878.8 1380.0, 2012.2 1475.0 C 2155.0 1479.1, 2355.0 1438.5, 2488.3 1405.1 C 2631.2 1410.9, 2831.2 1466.2, 2964.5 1363.3 C 3107.3 1370.4, 3307.3 1512.0, 3440.6 1375.0" fill="none" stroke="url(#ribbon1064)" stroke-width="38.4" stroke-linecap="round" stroke-opacity="0.250" /></g><g transform="rotate(-2.45 1536.0 1536.0)"><path d="M-368.6 1701.3 C -241.7 1767.4, -63.9 1622.1, 54.6 1701.2 C 181.6 1701.2, 359.4 1701.4, 477.9 1631.2 C 604.8 1610.3, 782.6 1779.5, 901.1 1603.7 C 1028.1 1603.5, 1205.9 1802.5, 1324.4 1635.4 C 1451.3 1627.8, 1629.1 1760.3, 1747.6 1707.1 C 1874.6 1708.6, 2052.4 1696.1, 2170.9 1775.3 C 2297.9 1768.7, 2475.6 1672.2, 2594.1 1798.6 C 2721.1 1808.5, 2898.9 1653.5, 3017.4 1762.9 C 3144.4 1766.0, 3322.1 1673.6, 3440.6 1689.8" fill="none" stroke="url(#ribbon1064)" stroke-width="34.4" stroke-linecap="round" stroke-opacity="0.276" /></g><g transform="rotate(-1.87 1536.0 1536.0)"><path d="M-368.6 1847.3 C -254.4 1892.1, -94.4 1805.3, 12.3 1814.7 C 126.6 1818.3, 286.6 1872.9, 393.2 1753.2 C 507.5 1751.1, 667.5 1885.9, 774.1 1748.8 C 888.4 1728.2, 1048.4 1893.1, 1155.1 1804.1 C 1269.4 1810.1, 1429.3 1875.6, 1536.0 1885.7 C 1650.3 1888.4, 1810.3 1826.7, 1916.9 1944.0 C 2031.2 1935.0, 2191.2 1731.7, 2297.9 1943.6 C 2412.1 1914.2, 2572.1 1770.2, 2678.8 1884.8 C 2793.1 1887.2, 2953.1 1802.7, 3059.7 1803.3 C 3174.0 1820.2, 3334.0 1866.3, 3440.6 1748.4" fill="none" stroke="url(#ribbon1064)" stroke-width="30.4" stroke-linecap="round" stroke-opacity="0.302" /></g><g transform="rotate(-1.29 1536.0 1536.0)"><path d="M-368.6 2090.5 C -264.8 2172.6, -119.3 2066.9, -22.3 2064.6 C 81.5 2066.7, 227.0 2110.5, 324.0 1994.4 C 427.8 1971.2, 573.3 2123.7, 670.3 1982.6 C 774.1 1975.6, 919.6 2129.4, 1016.6 2036.2 C 1120.4 2024.2, 1265.9 2129.2, 1362.9 2122.8 C 1466.7 2123.3, 1612.2 2077.4, 1709.1 2189.8 C 1813.0 2184.6, 1958.5 1981.8, 2055.4 2196.6 C 2159.3 2225.4, 2304.8 2036.6, 2401.7 2139.1 C 2505.6 2128.5, 2651.1 2054.1, 2748.0 2052.1 C 2851.9 2048.5, 2997.4 2134.0, 3094.3 1988.4 C 3198.2 1947.9, 3343.7 2171.5, 3440.6 1986.7" fill="none" stroke="url(#ribbon1064)" stroke-width="26.4" stroke-linecap="round" stroke-opacity="0.328" /></g><g transform="rotate(-0.71 1536.0 1536.0)"><path d="M-368.6 2233.3 C -273.4 2090.4, -140.1 2334.5, -51.2 2169.2 C 44.0 2164.9, 177.4 2291.2, 266.2 2260.5 C 361.5 2264.5, 494.8 2201.2, 583.7 2335.3 C 678.9 2307.5, 812.2 2127.5, 901.1 2348.2 C 996.4 2364.7, 1129.7 2191.4, 1218.6 2291.5 C 1313.8 2297.5, 1447.1 2172.0, 1536.0 2199.5 C 1631.2 2194.8, 1764.6 2251.1, 1853.4 2128.0 C 1948.7 2111.1, 2082.0 2345.3, 2170.9 2120.4 C 2266.1 2150.9, 2399.4 2291.9, 2488.3 2181.3 C 2583.6 2195.2, 2716.9 2265.3, 2805.8 2273.8 C 2901.0 2266.4, 3034.3 2195.3, 3123.2 2341.7 C 3218.4 2371.5, 3351.8 2152.2, 3440.6 2343.9" fill="none" stroke="url(#ribbon1064)" stroke-width="22.4" stroke-linecap="round" stroke-opacity="0.354" /></g><g transform="rotate(-0.13 1536.0 1536.0)"><path d="M-368.6 2404.8 C -225.8 2529.8, -25.8 2275.3, 107.5 2512.6 C 250.4 2505.0, 450.4 2350.3, 583.7 2433.2 C 726.5 2428.0, 926.5 2374.8, 1059.8 2336.6 C 1202.7 2324.6, 1402.7 2436.0, 1536.0 2281.3 C 1678.8 2279.7, 1878.8 2498.7, 2012.2 2301.0 C 2155.0 2306.3, 2355.0 2478.8, 2488.3 2383.6 C 2631.2 2391.2, 2831.2 2415.6, 2964.5 2479.1 C 3107.3 2455.0, 3307.3 2378.9, 3440.6 2529.5" fill="none" stroke="url(#ribbon1064)" stroke-width="18.4" stroke-linecap="round" stroke-opacity="0.380" /></g><g transform="rotate(0.45 1536.0 1536.0)"><path d="M-368.6 2674.4 C -241.7 2700.7, -63.9 2657.8, 54.6 2606.6 C 181.6 2626.2, 359.4 2741.3, 477.9 2545.1 C 604.8 2559.2, 782.6 2724.0, 901.1 2562.0 C 1028.1 2556.6, 1205.9 2778.6, 1324.4 2647.1 C 1451.3 2647.7, 1629.1 2701.8, 1747.6 2748.8 C 1874.6 2759.7, 2052.4 2638.1, 2170.9 2805.3 C 2297.9 2826.3, 2475.6 2569.0, 2594.1 2782.4 C 2721.1 2785.6, 2898.9 2579.2, 3017.4 2694.0 C 3144.4 2697.3, 3322.1 2658.4, 3440.6 2593.7" fill="none" stroke="url(#ribbon1064)" stroke-width="14.4" stroke-linecap="round" stroke-opacity="0.406" /></g></g>
  <g><ellipse cx="1536.0" cy="1551.9" rx="728.6" ry="605.7" fill="url(#extrude1064)" opacity="0.220" /><ellipse cx="1536.0" cy="1567.7" rx="736.0" ry="610.9" fill="url(#extrude1064)" opacity="0.205" /><ellipse cx="1536.0" cy="1583.6" rx="743.4" ry="616.1" fill="url(#extrude1064)" opacity="0.190" /><ellipse cx="1536.0" cy="1599.5" rx="750.9" ry="621.3" fill="url(#extrude1064)" opacity="0.175" /><ellipse cx="1536.0" cy="1615.4" rx="758.3" ry="626.5" fill="url(#extrude1064)" opacity="0.160" /><ellipse cx="1536.0" cy="1631.2" rx="765.7" ry="631.7" fill="url(#extrude1064)" opacity="0.145" /><ellipse cx="1536.0" cy="1647.1" rx="773.2" ry="636.9" fill="url(#extrude1064)" opacity="0.130" /><ellipse cx="1536.0" cy="1663.0" rx="780.6" ry="642.1" fill="url(#extrude1064)" opacity="0.115" /><ellipse cx="1536.0" cy="1678.8" rx="788.0" ry="647.4" fill="url(#extrude1064)" opacity="0.100" /><ellipse cx="1536.0" cy="1694.7" rx="795.5" ry="652.6" fill="url(#extrude1064)" opacity="0.085" /><ellipse cx="1536.0" cy="1710.6" rx="802.9" ry="657.8" fill="url(#extrude1064)" opacity="0.070" /><ellipse cx="1536.0" cy="1726.5" rx="810.3" ry="663.0" fill="url(#extrude1064)" opacity="0.055" /></g>
  <ellipse cx="1536.0" cy="1726.5" rx="773.2" ry="214.9" fill="#0B1D2D" opacity="0.24" />
  <ellipse cx="1536.0" cy="1536.0" rx="743.4" ry="651.3" fill="url(#orb1064)" stroke="#FFFFFF" stroke-opacity="0.42" stroke-width="7" />
  <ellipse cx="1431.9" cy="1392.7" rx="505.5" ry="299.6" fill="#FFFFFF" opacity="0.25" />
  <path d="M 199.4 399.4 C 1013.8 -30.7, 2058.2 768.0, 2872.6 215.0 L 2872.6 983.0 C 2089.0 1228.8, 1013.8 307.2, 199.4 1167.4 Z" fill="url(#glass1064)" />
  <rect x="270" y="270" width="2532" height="2532" rx="430" fill="none" stroke="#FFFFFF" stroke-opacity="0.30" stroke-width="5" />
  <rect x="288.4" y="288.4" width="2495.1" height="2495.1" rx="399" fill="none" stroke="#36D1FF" stroke-opacity="0.35" stroke-width="3" />
  <g filter="url(#soft1064)"><rect x="629" y="1790" width="50" height="2" fill="#FFFFFF" opacity="0.578" /><rect x="653" y="1766" width="2" height="50" fill="#FFFFFF" opacity="0.578" /><rect x="2058" y="774" width="26" height="2" fill="#FFFFFF" opacity="0.562" /><rect x="2070" y="762" width="2" height="26" fill="#FFFFFF" opacity="0.562" /><rect x="797" y="1202" width="48" height="2" fill="#FFFFFF" opacity="0.609" /><rect x="820" y="1179" width="2" height="48" fill="#FFFFFF" opacity="0.609" /><rect x="1276" y="1326" width="64" height="2" fill="#FFFFFF" opacity="0.599" /><rect x="1307" y="1295" width="2" height="64" fill="#FFFFFF" opacity="0.599" /><rect x="1692" y="2637" width="80" height="2" fill="#FFFFFF" opacity="0.757" /><rect x="1731" y="2598" width="2" height="80" fill="#FFFFFF" opacity="0.757" /><rect x="1881" y="1949" width="52" height="2" fill="#FFFFFF" opacity="0.648" /><rect x="1906" y="1924" width="2" height="52" fill="#FFFFFF" opacity="0.648" /><rect x="1412" y="346" width="60" height="2" fill="#FFFFFF" opacity="0.753" /><rect x="1441" y="317" width="2" height="60" fill="#FFFFFF" opacity="0.753" /><rect x="1041" y="1331" width="28" height="2" fill="#FFFFFF" opacity="0.367" /><rect x="1054" y="1318" width="2" height="28" fill="#FFFFFF" opacity="0.367" /><rect x="2781" y="1359" width="82" height="2" fill="#FFFFFF" opacity="0.551" /><rect x="2821" y="1319" width="2" height="82" fill="#FFFFFF" opacity="0.551" /><rect x="716" y="1769" width="30" height="2" fill="#FFFFFF" opacity="0.685" /><rect x="730" y="1755" width="2" height="30" fill="#FFFFFF" opacity="0.685" /><rect x="1382" y="1208" width="78" height="2" fill="#FFFFFF" opacity="0.366" /><rect x="1420" y="1170" width="2" height="78" fill="#FFFFFF" opacity="0.366" /><rect x="2220" y="1348" width="64" height="2" fill="#FFFFFF" opacity="0.416" /><rect x="2251" y="1317" width="2" height="64" fill="#FFFFFF" opacity="0.416" /><rect x="528" y="1366" width="80" height="2" fill="#FFFFFF" opacity="0.741" /><rect x="567" y="1327" width="2" height="80" fill="#FFFFFF" opacity="0.741" /><rect x="336" y="2639" width="56" height="2" fill="#FFFFFF" opacity="0.606" /><rect x="363" y="2612" width="2" height="56" fill="#FFFFFF" opacity="0.606" /><rect x="781" y="397" width="44" height="2" fill="#FFFFFF" opacity="0.455" /><rect x="802" y="376" width="2" height="44" fill="#FFFFFF" opacity="0.455" /><rect x="2019" y="2671" width="28" height="2" fill="#FFFFFF" opacity="0.669" /><rect x="2032" y="2658" width="2" height="28" fill="#FFFFFF" opacity="0.669" /><rect x="1403" y="1639" width="82" height="2" fill="#FFFFFF" opacity="0.508" /><rect x="1443" y="1599" width="2" height="82" fill="#FFFFFF" opacity="0.508" /><rect x="1941" y="1948" width="24" height="2" fill="#FFFFFF" opacity="0.607" /><rect x="1952" y="1937" width="2" height="24" fill="#FFFFFF" opacity="0.607" /><rect x="1630" y="2143" width="78" height="2" fill="#FFFFFF" opacity="0.448" /><rect x="1668" y="2105" width="2" height="78" fill="#FFFFFF" opacity="0.448" /><rect x="381" y="2288" width="34" height="2" fill="#FFFFFF" opacity="0.508" /><rect x="397" y="2272" width="2" height="34" fill="#FFFFFF" opacity="0.508" /><rect x="1120" y="673" width="28" height="2" fill="#FFFFFF" opacity="0.773" /><rect x="1133" y="660" width="2" height="28" fill="#FFFFFF" opacity="0.773" /><rect x="420" y="1044" width="68" height="2" fill="#FFFFFF" opacity="0.638" /><rect x="453" y="1011" width="2" height="68" fill="#FFFFFF" opacity="0.638" /><rect x="2603" y="2077" width="58" height="2" fill="#FFFFFF" opacity="0.427" /><rect x="2631" y="2049" width="2" height="58" fill="#FFFFFF" opacity="0.427" /><rect x="2231" y="1853" width="56" height="2" fill="#FFFFFF" opacity="0.459" /><rect x="2258" y="1826" width="2" height="56" fill="#FFFFFF" opacity="0.459" /><rect x="1659" y="407" width="62" height="2" fill="#FFFFFF" opacity="0.375" /><rect x="1689" y="377" width="2" height="62" fill="#FFFFFF" opacity="0.375" /><rect x="1788" y="1613" width="26" height="2" fill="#FFFFFF" opacity="0.435" /><rect x="1800" y="1601" width="2" height="26" fill="#FFFFFF" opacity="0.435" /></g>
  <g opacity="0.52"><path d="M1023 1326 L1572 1070 L2121 1326 L2121 2043 L1023 2043 Z" fill="none" stroke="#0C2030" stroke-width="90" stroke-linejoin="round" /><line x1="1572" y1="1070" x2="1572" y2="2043" stroke="#0C2030" stroke-width="88" /></g>
  <g filter="url(#soft1064)"><path d="M987 1280 L1536 1024 L2085 1280 L2085 1997 L987 1997 Z" fill="none" stroke="url(#symbol1064)" stroke-width="90" stroke-linejoin="round" /><line x1="1536" y1="1024" x2="1536" y2="1997" stroke="url(#symbol1064)" stroke-width="88" /></g>
  <rect x="138" y="138" width="2796" height="2796" rx="629" fill="#FFFFFF" filter="url(#grain1064)" opacity="0.18" />
</svg>
