<svg xmlns="http://www.w3.org/2000/svg" width="3072" height="3072" viewBox="0 0 3072 3072">
  <title>QuartzOS System Icon 085 - display_05</title>
  <defs><linearGradient id="bg1084" x1="0%" y1="0%" x2="100%" y2="100%"><stop offset="0%" stop-color="#53E3A6" /><stop offset="26%" stop-color="#3B82FF" /><stop offset="56%" stop-color="#FF6AB3" /><stop offset="78%" stop-color="#5AA47F" /><stop offset="100%" stop-color="#1A2B22" /></linearGradient><radialGradient id="sun1084" cx="46%" cy="10%" r="88%"><stop offset="0%" stop-color="#FFFFFF" stop-opacity="0.62" /><stop offset="30%" stop-color="#FF9F43" stop-opacity="0.35" /><stop offset="100%" stop-color="#FF9F43" stop-opacity="0" /></radialGradient><linearGradient id="glass1084" x1="0%" y1="0%" x2="0%" y2="100%"><stop offset="0%" stop-color="#FFFFFF" stop-opacity="0.70" /><stop offset="46%" stop-color="#FFFFFF" stop-opacity="0.26" /><stop offset="100%" stop-color="#FFFFFF" stop-opacity="0.00" /></linearGradient><linearGradient id="ribbon1084" x1="0%" y1="0%" x2="100%" y2="0%"><stop offset="0%" stop-color="#53E3A6" stop-opacity="0.18" /><stop offset="34%" stop-color="#3B82FF" stop-opacity="0.72" /><stop offset="66%" stop-color="#FF6AB3" stop-opacity="0.72" /><stop offset="100%" stop-color="#FF9F43" stop-opacity="0.18" /></linearGradient><radialGradient id="orb1084" cx="34%" cy="27%" r="74%"><stop offset="0%" stop-color="#FFFFFF" stop-opacity="0.84" /><stop offset="30%" stop-color="#53E3A6" stop-opacity="0.52" /><stop offset="68%" stop-color="#3B82FF" stop-opacity="0.42" /><stop offset="100%" stop-color="#FF6AB3" stop-opacity="0.20" /></radialGradient><linearGradient id="extrude1084" x1="0%" y1="0%" x2="0%" y2="100%"><stop offset="0%" stop-color="#15283C" stop-opacity="0.45" /><stop offset="100%" stop-color="#08131D" stop-opacity="0.06" /></linearGradient><linearGradient id="symbol1084" x1="0%" y1="0%" x2="100%" y2="100%"><stop offset="0%" stop-color="#FFFFFF" /><stop offset="100%" stop-color="#FF9F43" /></linearGradient><filter id="shadow1084" x="-40%" y="-40%" width="180%" height="180%"><feDropShadow dx="0" dy="49" stdDeviation="86" flood-color="#06111A" flood-opacity="0.54" /></filter><filter id="soft1084" x="-40%" y="-40%" width="180%" height="180%"><feDropShadow dx="0" dy="0" stdDeviation="14" flood-color="#53E3A6" flood-opacity="0.45" /></filter><filter id="grain1084"><feTurbulence type="fractalNoise" baseFrequency="0.981" numOctaves="2" seed="1084" /><feColorMatrix type="saturate" values="0" /><feComponentTransfer><feFuncA type="table" tableValues="0 0.09" /></feComponentTransfer></filter></defs>
  <rect x="138" y="138" width="2796" height="2796" rx="629" fill="url(#bg1084)" filter="url(#shadow1084)" />
  <rect x="138" y="138" width="2796" height="2796" rx="629" fill="url(#sun1084)" />
  <g><circle cx="1203" cy="1839" r="142" fill="#FFFFFF" opacity="0.160" /><circle cx="2185" cy="1142" r="107" fill="#FFFFFF" opacity="0.078" /><circle cx="2280" cy="400" r="55" fill="#FFFFFF" opacity="0.215" /><circle cx="1731" cy="2297" r="131" fill="#FFFFFF" opacity="0.073" /><circle cx="2610" cy="1110" r="145" fill="#FFFFFF" opacity="0.088" /><circle cx="1565" cy="1181" r="130" fill="#FFFFFF" opacity="0.157" /><circle cx="2509" cy="700" r="52" fill="#FFFFFF" opacity="0.135" /><circle cx="1417" cy="2379" r="80" fill="#FFFFFF" opacity="0.120" /><circle cx="1058" cy="590" r="82" fill="#FFFFFF" opacity="0.167" /><circle cx="2007" cy="559" r="38" fill="#FFFFFF" opacity="0.229" /><circle cx="885" cy="1224" r="129" fill="#FFFFFF" opacity="0.224" /><circle cx="1732" cy="935" r="143" fill="#FFFFFF" opacity="0.224" /><circle cx="2585" cy="1939" r="88" fill="#FFFFFF" opacity="0.223" /><circle cx="1666" cy="2142" r="141" fill="#FFFFFF" opacity="0.081" /><circle cx="461" cy="1595" r="142" fill="#FFFFFF" opacity="0.127" /><circle cx="2540" cy="1432" r="141" fill="#FFFFFF" opacity="0.203" /><circle cx="586" cy="2334" r="79" fill="#FFFFFF" opacity="0.071" /><circle cx="691" cy="606" r="147" fill="#FFFFFF" opacity="0.136" /><circle cx="483" cy="2123" r="96" fill="#FFFFFF" opacity="0.095" /><circle cx="1681" cy="725" r="97" fill="#FFFFFF" opacity="0.132" /><circle cx="482" cy="2409" r="123" fill="#FFFFFF" opacity="0.206" /><circle cx="2530" cy="2358" r="148" fill="#FFFFFF" opacity="0.157" /><circle cx="2368" cy="2156" r="154" fill="#FFFFFF" opacity="0.226" /><circle cx="956" cy="1783" r="114" fill="#FFFFFF" opacity="0.129" /><circle cx="2350" cy="2210" r="81" fill="#FFFFFF" opacity="0.145" /><circle cx="1244" cy="2322" r="138" fill="#FFFFFF" opacity="0.116" /><circle cx="1680" cy="829" r="155" fill="#FFFFFF" opacity="0.079" /><circle cx="435" cy="2456" r="141" fill="#FFFFFF" opacity="0.145" /></g>
  <g><path d="M 315.2 642.2 L 2818.3 365.8 L 2818.3 843.8 L 315.2 1120.3 Z" fill="#FFFFFF" opacity="0.157" /><path d="M 364.1 873.9 L 2811.7 597.5 L 2811.7 1040.9 L 364.1 1317.4 Z" fill="#FFFFFF" opacity="0.233" /><path d="M 162.2 1144.2 L 2862.2 867.7 L 2862.2 1309.2 L 162.2 1585.7 Z" fill="#FFFFFF" opacity="0.166" /><path d="M 160.0 1375.3 L 2682.1 1098.8 L 2682.1 1596.2 L 160.0 1872.6 Z" fill="#FFFFFF" opacity="0.170" /><path d="M 151.2 1644.3 L 2834.5 1367.8 L 2834.5 1850.3 L 151.2 2126.8 Z" fill="#FFFFFF" opacity="0.225" /><path d="M 234.7 1910.3 L 2859.9 1633.8 L 2859.9 2102.3 L 234.7 2378.8 Z" fill="#FFFFFF" opacity="0.174" /><path d="M 150.4 2220.9 L 2714.6 1944.4 L 2714.6 2437.2 L 150.4 2713.7 Z" fill="#FFFFFF" opacity="0.214" /><path d="M 324.2 2471.7 L 2881.5 2195.2 L 2881.5 2614.4 L 324.2 2890.9 Z" fill="#FFFFFF" opacity="0.128" /></g>
  <g filter="url(#soft1084)"><g transform="rotate(-18.42 1536.0 1536.0)"><path d="M-368.6 555.5 C -225.8 594.2, -25.8 512.5, 107.5 555.0 C 250.4 555.0, 450.4 555.7, 583.7 515.5 C 726.5 514.8, 926.5 588.5, 1059.8 500.2 C 1202.7 494.6, 1402.7 613.9, 1536.0 518.5 C 1678.8 525.4, 1878.8 586.8, 2012.2 559.2 C 2155.0 560.0, 2355.0 552.9, 2488.3 597.7 C 2631.2 600.4, 2831.2 537.9, 2964.5 610.5 C 3107.3 610.4, 3307.3 523.5, 3440.6 590.0" fill="none" stroke="url(#ribbon1084)" stroke-width="58.4" stroke-linecap="round" stroke-opacity="0.120" /></g><g transform="rotate(-17.84 1536.0 1536.0)"><path d="M-368.6 763.2 C -241.7 806.5, -63.9 723.3, 54.6 822.3 C 181.6 839.3, 359.4 724.2, 477.9 790.1 C 604.8 791.4, 782.6 746.0, 901.1 741.6 C 1028.1 745.3, 1205.9 784.9, 1324.4 706.2 C 1451.3 711.6, 1629.1 821.7, 1747.6 705.3 C 1874.6 707.5, 2052.4 804.8, 2170.9 739.6 C 2297.9 740.5, 2475.6 781.1, 2594.1 788.2 C 2721.1 789.8, 2898.9 749.6, 3017.4 821.6 C 3144.4 815.8, 3322.1 695.4, 3440.6 819.6" fill="none" stroke="url(#ribbon1084)" stroke-width="54.4" stroke-linecap="round" stroke-opacity="0.146" /></g><g transform="rotate(-17.26 1536.0 1536.0)"><path d="M-368.6 877.4 C -254.4 791.1, -94.4 928.5, 12.3 818.8 C 126.6 808.5, 286.6 915.1, 393.2 863.3 C 507.5 864.0, 667.5 889.4, 774.1 916.3 C 888.4 923.8, 1048.4 860.2, 1155.1 945.7 C 1269.4 935.5, 1429.3 856.0, 1536.0 933.7 C 1650.3 913.6, 1810.3 831.2, 1916.9 887.4 C 2031.2 888.5, 2191.2 865.5, 2297.9 835.1 C 2412.1 824.9, 2572.1 900.9, 2678.8 808.4 C 2793.1 806.2, 2953.1 901.2, 3059.7 823.5 C 3174.0 816.9, 3334.0 915.4, 3440.6 871.3" fill="none" stroke="url(#ribbon1084)" stroke-width="50.4" stroke-linecap="round" stroke-opacity="0.172" /></g><g transform="rotate(-16.68 1536.0 1536.0)"><path d="M-368.6 1163.1 C -264.8 1166.2, -119.3 1159.8, -22.3 1221.0 C 81.5 1236.6, 227.0 1111.0, 324.0 1239.3 C 427.8 1237.0, 573.3 1093.9, 670.3 1211.4 C 774.1 1226.9, 919.6 1106.1, 1016.6 1154.2 C 1120.4 1154.7, 1265.9 1166.6, 1362.9 1102.4 C 1466.7 1080.5, 1612.2 1215.6, 1709.1 1087.5 C 1813.0 1101.9, 1958.5 1221.1, 2055.4 1118.4 C 2159.3 1106.1, 2304.8 1209.6, 2401.7 1176.5 C 2505.6 1180.2, 2651.1 1149.4, 2748.0 1226.5 C 2851.9 1211.6, 2997.4 1135.4, 3094.3 1238.0 C 3198.2 1234.6, 3343.7 1078.6, 3440.6 1204.2" fill="none" stroke="url(#ribbon1084)" stroke-width="46.4" stroke-linecap="round" stroke-opacity="0.198" /></g><g transform="rotate(-16.10 1536.0 1536.0)"><path d="M-368.6 1289.5 C -273.4 1203.5, -140.1 1379.7, -51.2 1217.5 C 44.0 1191.3, 177.4 1359.3, 266.2 1269.8 C 361.5 1268.2, 494.8 1298.0, 583.7 1334.0 C 678.9 1345.1, 812.2 1249.9, 901.1 1371.2 C 996.4 1389.6, 1129.7 1197.6, 1218.6 1358.9 C 1313.8 1349.2, 1447.1 1265.1, 1536.0 1304.5 C 1631.2 1309.6, 1764.6 1271.8, 1853.4 1241.0 C 1948.7 1252.2, 2082.0 1311.3, 2170.9 1206.9 C 2266.1 1235.1, 2399.4 1373.9, 2488.3 1222.9 C 2583.6 1233.3, 2716.9 1359.8, 2805.8 1279.4 C 2901.0 1279.9, 3034.3 1297.2, 3123.2 1341.9 C 3218.4 1322.7, 3351.8 1228.9, 3440.6 1372.7" fill="none" stroke="url(#ribbon1084)" stroke-width="42.4" stroke-linecap="round" stroke-opacity="0.224" /></g><g transform="rotate(-15.52 1536.0 1536.0)"><path d="M-368.6 1544.4 C -225.8 1484.0, -25.8 1643.2, 107.5 1504.3 C 250.4 1489.6, 450.4 1571.4, 583.7 1574.7 C 726.5 1565.8, 926.5 1515.6, 1059.8 1626.8 C 1202.7 1653.4, 1402.7 1462.8, 1536.0 1628.9 C 1678.8 1659.5, 1878.8 1491.8, 2012.2 1579.8 C 2155.0 1566.4, 2355.0 1504.4, 2488.3 1509.2 C 2631.2 1513.9, 2831.2 1556.1, 2964.5 1460.0 C 3107.3 1460.4, 3307.3 1577.9, 3440.6 1462.0" fill="none" stroke="url(#ribbon1084)" stroke-width="38.4" stroke-linecap="round" stroke-opacity="0.250" /></g><g transform="rotate(-14.94 1536.0 1536.0)"><path d="M-368.6 1732.4 C -241.7 1793.9, -63.9 1701.4, 54.6 1721.5 C 181.6 1722.0, 359.4 1737.5, 477.9 1655.2 C 604.8 1681.2, 782.6 1773.4, 901.1 1635.7 C 1028.1 1647.5, 1205.9 1831.5, 1324.4 1674.9 C 1451.3 1652.9, 1629.1 1774.2, 1747.6 1749.0 C 1874.6 1748.1, 2052.4 1724.6, 2170.9 1813.1 C 2297.9 1812.1, 2475.6 1655.2, 2594.1 1828.2 C 2721.1 1835.1, 2898.9 1695.4, 3017.4 1785.3 C 3144.4 1772.9, 3322.1 1696.9, 3440.6 1710.3" fill="none" stroke="url(#ribbon1084)" stroke-width="34.4" stroke-linecap="round" stroke-opacity="0.276" /></g><g transform="rotate(-14.36 1536.0 1536.0)"><path d="M-368.6 1937.3 C -254.4 1850.7, -94.4 2027.8, 12.3 1906.6 C 126.6 1900.1, 286.6 1968.9, 393.2 1987.7 C 507.5 1968.7, 667.5 1899.7, 774.1 2038.3 C 888.4 2027.8, 1048.4 1842.3, 1155.1 2027.6 C 1269.4 2041.2, 1429.3 1879.9, 1536.0 1962.1 C 1650.3 1954.6, 1810.3 1909.7, 1916.9 1881.6 C 2031.2 1888.3, 2191.2 1982.9, 2297.9 1834.9 C 2412.1 1830.3, 2572.1 2012.0, 2678.8 1850.3 C 2793.1 1862.0, 2953.1 1986.7, 3059.7 1918.5 C 3174.0 1917.0, 3334.0 1946.3, 3440.6 1998.1" fill="none" stroke="url(#ribbon1084)" stroke-width="30.4" stroke-linecap="round" stroke-opacity="0.302" /></g><g transform="rotate(-13.78 1536.0 1536.0)"><path d="M-368.6 2113.9 C -264.8 2240.8, -119.3 1989.0, -22.3 2213.4 C 81.5 2205.7, 227.0 2075.2, 324.0 2146.6 C 427.8 2151.8, 573.3 2078.5, 670.3 2060.0 C 774.1 2059.8, 919.6 2150.4, 1016.6 2006.0 C 1120.4 2036.3, 1265.9 2202.4, 1362.9 2017.5 C 1466.7 2001.5, 1612.2 2153.5, 1709.1 2087.4 C 1813.0 2083.3, 1958.5 2122.5, 2055.4 2173.4 C 2159.3 2192.6, 2304.8 2085.4, 2401.7 2223.3 C 2505.6 2185.6, 2651.1 2031.3, 2748.0 2206.8 C 2851.9 2189.7, 2997.4 2010.3, 3094.3 2133.9 C 3198.2 2128.0, 3343.7 2101.7, 3440.6 2048.9" fill="none" stroke="url(#ribbon1084)" stroke-width="26.4" stroke-linecap="round" stroke-opacity="0.328" /></g><g transform="rotate(-13.20 1536.0 1536.0)"><path d="M-368.6 2255.4 C -273.4 2336.7, -140.1 2206.9, -51.2 2267.4 C 44.0 2268.9, 177.4 2250.2, 266.2 2178.9 C 361.5 2169.6, 494.8 2326.5, 583.7 2136.8 C 678.9 2165.0, 812.2 2300.8, 901.1 2166.7 C 996.4 2198.9, 1129.7 2283.6, 1218.6 2250.3 C 1313.8 2252.0, 1447.1 2258.2, 1536.0 2337.1 C 1631.2 2313.1, 1764.6 2230.4, 1853.4 2374.3 C 1948.7 2409.0, 2082.0 2213.3, 2170.9 2339.4 C 2266.1 2343.4, 2399.4 2205.9, 2488.3 2253.6 C 2583.6 2253.8, 2716.9 2256.9, 2805.8 2168.9 C 2901.0 2194.3, 3034.3 2356.6, 3123.2 2136.6 C 3218.4 2168.9, 3351.8 2292.8, 3440.6 2176.5" fill="none" stroke="url(#ribbon1084)" stroke-width="22.4" stroke-linecap="round" stroke-opacity="0.354" /></g><g transform="rotate(-12.62 1536.0 1536.0)"><path d="M-368.6 2507.4 C -225.8 2500.7, -25.8 2513.7, 107.5 2412.8 C 250.4 2401.7, 450.4 2618.1, 583.7 2381.9 C 726.5 2397.6, 926.5 2547.5, 1059.8 2427.1 C 1202.7 2432.5, 1402.7 2564.5, 1536.0 2521.0 C 1678.8 2524.7, 1878.8 2498.1, 2012.2 2606.7 C 2155.0 2581.5, 2355.0 2475.4, 2488.3 2632.2 C 2631.2 2620.8, 2831.2 2446.5, 2964.5 2582.0 C 3107.3 2594.7, 3307.3 2465.6, 3440.6 2486.5" fill="none" stroke="url(#ribbon1084)" stroke-width="18.4" stroke-linecap="round" stroke-opacity="0.380" /></g><g transform="rotate(-12.04 1536.0 1536.0)"><path d="M-368.6 2632.9 C -241.7 2596.6, -63.9 2683.8, 54.6 2509.4 C 181.6 2558.3, 359.4 2682.8, 477.9 2511.4 C 604.8 2559.6, 782.6 2686.4, 901.1 2587.1 C 1028.1 2574.3, 1205.9 2652.8, 1324.4 2690.6 C 1451.3 2692.4, 1629.1 2585.5, 1747.6 2759.1 C 1874.6 2759.3, 2052.4 2529.9, 2170.9 2751.0 C 2297.9 2767.9, 2475.6 2589.5, 2594.1 2671.4 C 2721.1 2670.6, 2898.9 2587.7, 3017.4 2568.3 C 3144.4 2544.5, 3322.1 2684.9, 3440.6 2504.5" fill="none" stroke="url(#ribbon1084)" stroke-width="14.4" stroke-linecap="round" stroke-opacity="0.406" /></g></g>
  <g><ellipse cx="1536.0" cy="1551.9" rx="728.6" ry="605.7" fill="url(#extrude1084)" opacity="0.220" /><ellipse cx="1536.0" cy="1567.7" rx="736.0" ry="610.9" fill="url(#extrude1084)" opacity="0.205" /><ellipse cx="1536.0" cy="1583.6" rx="743.4" ry="616.1" fill="url(#extrude1084)" opacity="0.190" /><ellipse cx="1536.0" cy="1599.5" rx="750.9" ry="621.3" fill="url(#extrude1084)" opacity="0.175" /><ellipse cx="1536.0" cy="1615.4" rx="758.3" ry="626.5" fill="url(#extrude1084)" opacity="0.160" /><ellipse cx="1536.0" cy="1631.2" rx="765.7" ry="631.7" fill="url(#extrude1084)" opacity="0.145" /><ellipse cx="1536.0" cy="1647.1" rx="773.2" ry="636.9" fill="url(#extrude1084)" opacity="0.130" /><ellipse cx="1536.0" cy="1663.0" rx="780.6" ry="642.1" fill="url(#extrude1084)" opacity="0.115" /><ellipse cx="1536.0" cy="1678.8" rx="788.0" ry="647.4" fill="url(#extrude1084)" opacity="0.100" /><ellipse cx="1536.0" cy="1694.7" rx="795.5" ry="652.6" fill="url(#extrude1084)" opacity="0.085" /><ellipse cx="1536.0" cy="1710.6" rx="802.9" ry="657.8" fill="url(#extrude1084)" opacity="0.070" /><ellipse cx="1536.0" cy="1726.5" rx="810.3" ry="663.0" fill="url(#extrude1084)" opacity="0.055" /></g>
  <ellipse cx="1536.0" cy="1726.5" rx="773.2" ry="214.9" fill="#0B1D2D" opacity="0.24" />
  <ellipse cx="1536.0" cy="1536.0" rx="743.4" ry="651.3" fill="url(#orb1084)" stroke="#FFFFFF" stroke-opacity="0.42" stroke-width="7" />
  <ellipse cx="1431.9" cy="1392.7" rx="505.5" ry="299.6" fill="#FFFFFF" opacity="0.25" />
  <path d="M 199.4 399.4 C 1013.8 -30.7, 2058.2 768.0, 2872.6 215.0 L 2872.6 983.0 C 2089.0 1228.8, 1013.8 307.2, 199.4 1167.4 Z" fill="url(#glass1084)" />
  <rect x="270" y="270" width="2532" height="2532" rx="430" fill="none" stroke="#FFFFFF" stroke-opacity="0.30" stroke-width="5" />
  <rect x="288.4" y="288.4" width="2495.1" height="2495.1" rx="399" fill="none" stroke="#53E3A6" stroke-opacity="0.35" stroke-width="3" />
  <g filter="url(#soft1084)"><rect x="1322" y="662" width="38" height="2" fill="#FFFFFF" opacity="0.766" /><rect x="1340" y="644" width="2" height="38" fill="#FFFFFF" opacity="0.766" /><rect x="1810" y="581" width="82" height="2" fill="#FFFFFF" opacity="0.791" /><rect x="1850" y="541" width="2" height="82" fill="#FFFFFF" opacity="0.791" /><rect x="2697" y="856" width="52" height="2" fill="#FFFFFF" opacity="0.315" /><rect x="2722" y="831" width="2" height="52" fill="#FFFFFF" opacity="0.315" /><rect x="1538" y="492" width="60" height="2" fill="#FFFFFF" opacity="0.845" /><rect x="1567" y="463" width="2" height="60" fill="#FFFFFF" opacity="0.845" /><rect x="1171" y="1511" width="30" height="2" fill="#FFFFFF" opacity="0.821" /><rect x="1185" y="1497" width="2" height="30" fill="#FFFFFF" opacity="0.821" /><rect x="1960" y="1009" width="52" height="2" fill="#FFFFFF" opacity="0.769" /><rect x="1985" y="984" width="2" height="52" fill="#FFFFFF" opacity="0.769" /><rect x="2397" y="588" width="56" height="2" fill="#FFFFFF" opacity="0.755" /><rect x="2424" y="561" width="2" height="56" fill="#FFFFFF" opacity="0.755" /><rect x="701" y="1092" width="82" height="2" fill="#FFFFFF" opacity="0.532" /><rect x="741" y="1052" width="2" height="82" fill="#FFFFFF" opacity="0.532" /><rect x="1944" y="1576" width="26" height="2" fill="#FFFFFF" opacity="0.805" /><rect x="1956" y="1564" width="2" height="26" fill="#FFFFFF" opacity="0.805" /><rect x="1960" y="1924" width="70" height="2" fill="#FFFFFF" opacity="0.321" /><rect x="1994" y="1890" width="2" height="70" fill="#FFFFFF" opacity="0.321" /><rect x="2008" y="1577" width="46" height="2" fill="#FFFFFF" opacity="0.704" /><rect x="2030" y="1555" width="2" height="46" fill="#FFFFFF" opacity="0.704" /><rect x="946" y="2633" width="74" height="2" fill="#FFFFFF" opacity="0.810" /><rect x="982" y="2597" width="2" height="74" fill="#FFFFFF" opacity="0.810" /><rect x="336" y="949" width="40" height="2" fill="#FFFFFF" opacity="0.482" /><rect x="355" y="930" width="2" height="40" fill="#FFFFFF" opacity="0.482" /><rect x="829" y="2460" width="54" height="2" fill="#FFFFFF" opacity="0.727" /><rect x="855" y="2434" width="2" height="54" fill="#FFFFFF" opacity="0.727" /><rect x="993" y="1779" width="78" height="2" fill="#FFFFFF" opacity="0.658" /><rect x="1031" y="1741" width="2" height="78" fill="#FFFFFF" opacity="0.658" /><rect x="1309" y="1824" width="28" height="2" fill="#FFFFFF" opacity="0.496" /><rect x="1322" y="1811" width="2" height="28" fill="#FFFFFF" opacity="0.496" /><rect x="2287" y="2732" width="84" height="2" fill="#FFFFFF" opacity="0.813" /><rect x="2328" y="2691" width="2" height="84" fill="#FFFFFF" opacity="0.813" /><rect x="1919" y="2289" width="58" height="2" fill="#FFFFFF" opacity="0.417" /><rect x="1947" y="2261" width="2" height="58" fill="#FFFFFF" opacity="0.417" /><rect x="1598" y="354" width="68" height="2" fill="#FFFFFF" opacity="0.400" /><rect x="1631" y="321" width="2" height="68" fill="#FFFFFF" opacity="0.400" /><rect x="2403" y="392" width="80" height="2" fill="#FFFFFF" opacity="0.526" /><rect x="2442" y="353" width="2" height="80" fill="#FFFFFF" opacity="0.526" /><rect x="2400" y="1866" width="72" height="2" fill="#FFFFFF" opacity="0.687" /><rect x="2435" y="1831" width="2" height="72" fill="#FFFFFF" opacity="0.687" /><rect x="2479" y="514" width="48" height="2" fill="#FFFFFF" opacity="0.499" /><rect x="2502" y="491" width="2" height="48" fill="#FFFFFF" opacity="0.499" /><rect x="681" y="1600" width="58" height="2" fill="#FFFFFF" opacity="0.685" /><rect x="709" y="1572" width="2" height="58" fill="#FFFFFF" opacity="0.685" /><rect x="1135" y="1466" width="44" height="2" fill="#FFFFFF" opacity="0.681" /><rect x="1156" y="1445" width="2" height="44" fill="#FFFFFF" opacity="0.681" /><rect x="978" y="1657" width="82" height="2" fill="#FFFFFF" opacity="0.808" /><rect x="1018" y="1617" width="2" height="82" fill="#FFFFFF" opacity="0.808" /><rect x="669" y="2123" width="42" height="2" fill="#FFFFFF" opacity="0.401" /><rect x="689" y="2103" width="2" height="42" fill="#FFFFFF" opacity="0.401" /></g>
  <g opacity="0.52"><path d="M1572 1006 L2148 1582 L1572 2158 L996 1582 Z" fill="none" stroke="#0C2030" stroke-width="90" stroke-linejoin="round" /><circle cx="1572" cy="1582" r="153" fill="#0C2030" /></g>
  <g filter="url(#soft1084)"><path d="M1536 960 L2112 1536 L1536 2112 L960 1536 Z" fill="none" stroke="url(#symbol1084)" stroke-width="90" stroke-linejoin="round" /><circle cx="1536" cy="1536" r="153" fill="url(#symbol1084)" /></g>
  <rect x="138" y="138" width="2796" height="2796" rx="629" fill="#FFFFFF" filter="url(#grain1084)" opacity="0.18" />
</svg>
