<svg xmlns="http://www.w3.org/2000/svg" width="3072" height="3072" viewBox="0 0 3072 3072">
  <title>QuartzOS System Icon 045 - display_03</title>
  <defs><linearGradient id="bg1044" x1="0%" y1="0%" x2="100%" y2="100%"><stop offset="0%" stop-color="#3B82FF" /><stop offset="26%" stop-color="#FF6AB3" /><stop offset="56%" stop-color="#FFD84D" /><stop offset="78%" stop-color="#4E8FC5" /><stop offset="100%" stop-color="#10243A" /></linearGradient><radialGradient id="sun1044" cx="46%" cy="31%" r="88%"><stop offset="0%" stop-color="#FFFFFF" stop-opacity="0.62" /><stop offset="30%" stop-color="#53E3A6" stop-opacity="0.35" /><stop offset="100%" stop-color="#53E3A6" stop-opacity="0" /></radialGradient><linearGradient id="glass1044" x1="0%" y1="0%" x2="0%" y2="100%"><stop offset="0%" stop-color="#FFFFFF" stop-opacity="0.70" /><stop offset="46%" stop-color="#FFFFFF" stop-opacity="0.26" /><stop offset="100%" stop-color="#FFFFFF" stop-opacity="0.00" /></linearGradient><linearGradient id="ribbon1044" x1="0%" y1="0%" x2="100%" y2="0%"><stop offset="0%" stop-color="#3B82FF" stop-opacity="0.18" /><stop offset="34%" stop-color="#FF6AB3" stop-opacity="0.72" /><stop offset="66%" stop-color="#FFD84D" stop-opacity="0.72" /><stop offset="100%" stop-color="#53E3A6" stop-opacity="0.18" /></linearGradient><radialGradient id="orb1044" cx="34%" cy="27%" r="74%"><stop offset="0%" stop-color="#FFFFFF" stop-opacity="0.84" /><stop offset="30%" stop-color="#3B82FF" stop-opacity="0.52" /><stop offset="68%" stop-color="#FF6AB3" stop-opacity="0.42" /><stop offset="100%" stop-color="#FFD84D" stop-opacity="0.20" /></radialGradient><linearGradient id="extrude1044" x1="0%" y1="0%" x2="0%" y2="100%"><stop offset="0%" stop-color="#15283C" stop-opacity="0.45" /><stop offset="100%" stop-color="#08131D" stop-opacity="0.06" /></linearGradient><linearGradient id="symbol1044" x1="0%" y1="0%" x2="100%" y2="100%"><stop offset="0%" stop-color="#FFFFFF" /><stop offset="100%" stop-color="#53E3A6" /></linearGradient><filter id="shadow1044" x="-40%" y="-40%" width="180%" height="180%"><feDropShadow dx="0" dy="49" stdDeviation="86" flood-color="#06111A" flood-opacity="0.54" /></filter><filter id="soft1044" x="-40%" y="-40%" width="180%" height="180%"><feDropShadow dx="0" dy="0" stdDeviation="14" flood-color="#3B82FF" flood-opacity="0.45" /></filter><filter id="grain1044"><feTurbulence type="fractalNoise" baseFrequency="0.700" numOctaves="2" seed="1044" /><feColorMatrix type="saturate" values="0" /><feComponentTransfer><feFuncA type="table" tableValues="0 0.09" /></feComponentTransfer></filter></defs>
  <rect x="138" y="138" width="2796" height="2796" rx="629" fill="url(#bg1044)" filter="url(#shadow1044)" />
  <rect x="138" y="138" width="2796" height="2796" rx="629" fill="url(#sun1044)" />
  <g><circle cx="2325" cy="1021" r="131" fill="#FFFFFF" opacity="0.203" /><circle cx="1358" cy="1978" r="144" fill="#FFFFFF" opacity="0.105" /><circle cx="862" cy="578" r="64" fill="#FFFFFF" opacity="0.239" /><circle cx="899" cy="2599" r="82" fill="#FFFFFF" opacity="0.063" /><circle cx="1375" cy="2652" r="86" fill="#FFFFFF" opacity="0.234" /><circle cx="1258" cy="452" r="90" fill="#FFFFFF" opacity="0.152" /><circle cx="1769" cy="1644" r="137" fill="#FFFFFF" opacity="0.226" /><circle cx="1895" cy="1259" r="112" fill="#FFFFFF" opacity="0.101" /><circle cx="848" cy="1220" r="67" fill="#FFFFFF" opacity="0.156" /><circle cx="1681" cy="1278" r="110" fill="#FFFFFF" opacity="0.118" /><circle cx="1498" cy="1600" r="125" fill="#FFFFFF" opacity="0.202" /><circle cx="980" cy="730" r="40" fill="#FFFFFF" opacity="0.169" /><circle cx="1167" cy="1981" r="121" fill="#FFFFFF" opacity="0.170" /><circle cx="372" cy="1200" r="90" fill="#FFFFFF" opacity="0.121" /><circle cx="2343" cy="1307" r="61" fill="#FFFFFF" opacity="0.124" /><circle cx="704" cy="1394" r="59" fill="#FFFFFF" opacity="0.215" /><circle cx="989" cy="2188" r="59" fill="#FFFFFF" opacity="0.069" /><circle cx="2098" cy="829" r="99" fill="#FFFFFF" opacity="0.065" /><circle cx="1985" cy="1188" r="121" fill="#FFFFFF" opacity="0.152" /><circle cx="1959" cy="1884" r="116" fill="#FFFFFF" opacity="0.138" /><circle cx="851" cy="1428" r="80" fill="#FFFFFF" opacity="0.101" /><circle cx="1285" cy="603" r="152" fill="#FFFFFF" opacity="0.147" /><circle cx="1812" cy="1977" r="132" fill="#FFFFFF" opacity="0.077" /><circle cx="625" cy="2230" r="48" fill="#FFFFFF" opacity="0.108" /><circle cx="2150" cy="2368" r="43" fill="#FFFFFF" opacity="0.222" /><circle cx="2013" cy="1531" r="91" fill="#FFFFFF" opacity="0.100" /><circle cx="1222" cy="675" r="76" fill="#FFFFFF" opacity="0.188" /><circle cx="552" cy="2214" r="75" fill="#FFFFFF" opacity="0.178" /></g>
  <g><path d="M 312.9 611.0 L 2778.5 334.6 L 2778.5 830.5 L 312.9 1107.0 Z" fill="#FFFFFF" opacity="0.099" /><path d="M 248.4 862.0 L 2684.9 585.5 L 2684.9 1034.5 L 248.4 1311.0 Z" fill="#FFFFFF" opacity="0.119" /><path d="M 279.1 1135.4 L 2732.2 859.0 L 2732.2 1337.0 L 279.1 1613.5 Z" fill="#FFFFFF" opacity="0.130" /><path d="M 228.3 1357.1 L 2810.5 1080.7 L 2810.5 1568.5 L 228.3 1844.9 Z" fill="#FFFFFF" opacity="0.137" /><path d="M 267.0 1644.1 L 2919.0 1367.6 L 2919.0 1842.3 L 267.0 2118.8 Z" fill="#FFFFFF" opacity="0.148" /><path d="M 347.1 1923.1 L 2714.1 1646.6 L 2714.1 2119.4 L 347.1 2395.8 Z" fill="#FFFFFF" opacity="0.130" /><path d="M 364.8 2168.2 L 2787.6 1891.7 L 2787.6 2332.4 L 364.8 2608.9 Z" fill="#FFFFFF" opacity="0.136" /><path d="M 365.4 2463.2 L 2907.4 2186.7 L 2907.4 2609.5 L 365.4 2886.0 Z" fill="#FFFFFF" opacity="0.239" /></g>
  <g filter="url(#soft1044)"><g transform="rotate(-23.44 1536.0 1536.0)"><path d="M-368.6 581.1 C -225.8 626.2, -25.8 527.6, 107.5 610.6 C 250.4 621.2, 450.4 570.7, 583.7 568.2 C 726.5 569.9, 926.5 590.7, 1059.8 533.5 C 1202.7 540.5, 1402.7 602.6, 1536.0 527.7 C 1678.8 532.6, 1878.8 629.4, 2012.2 554.3 C 2155.0 561.1, 2355.0 600.2, 2488.3 597.1 C 2631.2 593.9, 2831.2 573.8, 2964.5 630.2 C 3107.3 619.2, 3307.3 549.7, 3440.6 633.5" fill="none" stroke="url(#ribbon1044)" stroke-width="58.4" stroke-linecap="round" stroke-opacity="0.120" /></g><g transform="rotate(-22.86 1536.0 1536.0)"><path d="M-368.6 748.3 C -241.7 782.3, -63.9 720.9, 54.6 744.5 C 181.6 745.5, 359.4 750.8, 477.9 701.0 C 604.8 687.8, 782.6 771.8, 901.1 686.2 C 1028.1 708.8, 1205.9 797.5, 1324.4 709.1 C 1451.3 707.7, 1629.1 791.1, 1747.6 755.8 C 1874.6 755.1, 2052.4 740.8, 2170.9 798.0 C 2297.9 814.2, 2475.6 727.3, 2594.1 810.0 C 2721.1 793.5, 2898.9 690.9, 3017.4 784.7 C 3144.4 780.0, 3322.1 710.8, 3440.6 737.3" fill="none" stroke="url(#ribbon1044)" stroke-width="54.4" stroke-linecap="round" stroke-opacity="0.146" /></g><g transform="rotate(-22.28 1536.0 1536.0)"><path d="M-368.6 923.5 C -254.4 874.0, -94.4 993.4, 12.3 856.5 C 126.6 848.1, 286.6 996.1, 393.2 889.8 C 507.5 891.2, 667.5 934.0, 774.1 943.6 C 888.4 944.5, 1048.4 911.8, 1155.1 985.2 C 1269.4 960.8, 1429.3 891.8, 1536.0 989.4 C 1650.3 1001.9, 1810.3 863.6, 1916.9 953.6 C 2031.2 942.1, 2191.2 906.7, 2297.9 899.6 C 2412.1 908.3, 2572.1 937.8, 2678.8 860.1 C 2793.1 860.7, 2953.1 974.2, 3059.7 859.0 C 3174.0 874.1, 3334.0 947.4, 3440.6 897.1" fill="none" stroke="url(#ribbon1044)" stroke-width="50.4" stroke-linecap="round" stroke-opacity="0.172" /></g><g transform="rotate(-21.70 1536.0 1536.0)"><path d="M-368.6 1131.2 C -264.8 1097.3, -119.3 1159.4, -22.3 1054.9 C 81.5 1078.6, 227.0 1156.7, 324.0 1073.8 C 427.8 1088.9, 573.3 1180.1, 670.3 1127.5 C 774.1 1128.3, 919.6 1133.5, 1016.6 1183.4 C 1120.4 1200.3, 1265.9 1108.4, 1362.9 1207.7 C 1466.7 1183.8, 1612.2 1051.3, 1709.1 1185.6 C 1813.0 1187.6, 1958.5 1103.2, 2055.4 1130.5 C 2159.3 1130.2, 2304.8 1131.8, 2401.7 1075.8 C 2505.6 1084.7, 2651.1 1194.9, 2748.0 1054.8 C 2851.9 1038.8, 2997.4 1198.5, 3094.3 1080.1 C 3198.2 1083.3, 3343.7 1180.1, 3440.6 1136.4" fill="none" stroke="url(#ribbon1044)" stroke-width="46.4" stroke-linecap="round" stroke-opacity="0.198" /></g><g transform="rotate(-21.12 1536.0 1536.0)"><path d="M-368.6 1271.8 C -273.4 1344.1, -140.1 1225.6, -51.2 1350.8 C 44.0 1376.2, 177.4 1218.2, 266.2 1307.1 C 361.5 1298.4, 494.8 1241.7, 583.7 1242.1 C 678.9 1234.2, 812.2 1301.4, 901.1 1195.1 C 996.4 1219.4, 1129.7 1338.4, 1218.6 1194.7 C 1313.8 1179.3, 1447.1 1363.5, 1536.0 1241.0 C 1631.2 1240.5, 1764.6 1301.1, 1853.4 1306.1 C 1948.7 1299.2, 2082.0 1241.1, 2170.9 1350.4 C 2266.1 1359.1, 2399.4 1237.5, 2488.3 1347.0 C 2583.6 1318.6, 2716.9 1194.1, 2805.8 1298.1 C 2901.0 1290.4, 3034.3 1258.5, 3123.2 1233.2 C 3218.4 1239.6, 3351.8 1305.3, 3440.6 1191.8" fill="none" stroke="url(#ribbon1044)" stroke-width="42.4" stroke-linecap="round" stroke-opacity="0.224" /></g><g transform="rotate(-20.54 1536.0 1536.0)"><path d="M-368.6 1439.3 C -225.8 1418.4, -25.8 1463.1, 107.5 1360.9 C 250.4 1368.1, 450.4 1486.3, 583.7 1352.2 C 726.5 1377.8, 926.5 1501.9, 1059.8 1396.3 C 1202.7 1384.8, 1402.7 1464.7, 1536.0 1466.6 C 1678.8 1463.8, 1878.8 1421.5, 2012.2 1520.3 C 2155.0 1531.3, 2355.0 1384.0, 2488.3 1524.9 C 2631.2 1493.1, 2831.2 1363.8, 2964.5 1477.6 C 3107.3 1467.9, 3307.3 1421.6, 3440.6 1407.1" fill="none" stroke="url(#ribbon1044)" stroke-width="38.4" stroke-linecap="round" stroke-opacity="0.250" /></g><g transform="rotate(-19.96 1536.0 1536.0)"><path d="M-368.6 1628.7 C -241.7 1627.6, -63.9 1629.8, 54.6 1698.0 C 181.6 1688.8, 359.4 1604.3, 477.9 1726.3 C 604.8 1743.3, 782.6 1533.2, 901.1 1695.4 C 1028.1 1714.6, 1205.9 1577.6, 1324.4 1624.0 C 1451.3 1625.1, 1629.1 1631.9, 1747.6 1555.4 C 1874.6 1542.0, 2052.4 1700.2, 2170.9 1531.3 C 2297.9 1531.4, 2475.6 1743.1, 2594.1 1566.2 C 2721.1 1588.9, 2898.9 1655.7, 3017.4 1639.1 C 3144.4 1638.2, 3322.1 1616.9, 3440.6 1705.6" fill="none" stroke="url(#ribbon1044)" stroke-width="34.4" stroke-linecap="round" stroke-opacity="0.276" /></g><g transform="rotate(-19.38 1536.0 1536.0)"><path d="M-368.6 1924.0 C -254.4 1863.3, -94.4 1954.0, 12.3 1888.7 C 126.6 1881.5, 286.6 1952.6, 393.2 1970.2 C 507.5 1952.8, 667.5 1872.0, 774.1 2023.6 C 888.4 2011.1, 1048.4 1868.8, 1155.1 2016.6 C 1269.4 1990.7, 1429.3 1831.1, 1536.0 1953.5 C 1650.3 1949.8, 1810.3 1912.3, 1916.9 1872.4 C 2031.2 1887.8, 2191.2 1969.3, 2297.9 1822.7 C 2412.1 1801.1, 2572.1 1961.2, 2678.8 1834.4 C 2793.1 1835.3, 2953.1 2025.8, 3059.7 1900.5 C 3174.0 1909.9, 3334.0 1931.7, 3440.6 1980.8" fill="none" stroke="url(#ribbon1044)" stroke-width="30.4" stroke-linecap="round" stroke-opacity="0.302" /></g><g transform="rotate(-18.80 1536.0 1536.0)"><path d="M-368.6 2036.1 C -264.8 1989.3, -119.3 2053.5, -22.3 1930.1 C 81.5 1967.7, 227.0 2116.1, 324.0 1936.6 C 427.8 1920.3, 573.3 2138.4, 670.3 2003.5 C 774.1 2005.5, 919.6 2062.8, 1016.6 2090.1 C 1120.4 2079.0, 1265.9 2011.4, 1362.9 2143.9 C 1466.7 2137.0, 1612.2 1992.9, 1709.1 2132.3 C 1813.0 2131.8, 1958.5 1960.0, 2055.4 2062.3 C 2159.3 2059.3, 2304.8 2013.0, 2401.7 1976.4 C 2505.6 1971.8, 2651.1 2080.2, 2748.0 1926.6 C 2851.9 1903.9, 2997.4 2131.2, 3094.3 1943.3 C 3198.2 1979.4, 3343.7 2094.6, 3440.6 2016.2" fill="none" stroke="url(#ribbon1044)" stroke-width="26.4" stroke-linecap="round" stroke-opacity="0.328" /></g><g transform="rotate(-18.22 1536.0 1536.0)"><path d="M-368.6 2304.7 C -273.4 2358.6, -140.1 2246.4, -51.2 2423.1 C 44.0 2446.9, 177.4 2210.5, 266.2 2395.0 C 361.5 2389.7, 494.8 2198.7, 583.7 2312.1 C 678.9 2311.5, 812.2 2298.9, 901.1 2224.8 C 996.4 2225.3, 1129.7 2366.6, 1218.6 2185.9 C 1313.8 2210.7, 1447.1 2425.3, 1536.0 2219.0 C 1631.2 2212.5, 1764.6 2342.0, 1853.4 2304.1 C 1948.7 2304.1, 2082.0 2304.8, 2170.9 2389.6 C 2266.1 2371.5, 2399.4 2223.7, 2488.3 2423.5 C 2583.6 2445.6, 2716.9 2251.0, 2805.8 2385.4 C 2901.0 2391.4, 3034.3 2247.8, 3123.2 2298.3 C 3218.4 2298.6, 3351.8 2308.3, 3440.6 2215.1" fill="none" stroke="url(#ribbon1044)" stroke-width="22.4" stroke-linecap="round" stroke-opacity="0.354" /></g><g transform="rotate(-17.64 1536.0 1536.0)"><path d="M-368.6 2452.1 C -225.8 2330.1, -25.8 2514.9, 107.5 2430.6 C 250.4 2430.1, 450.4 2474.8, 583.7 2526.2 C 726.5 2542.0, 926.5 2424.4, 1059.8 2576.8 C 1202.7 2569.6, 1402.7 2356.5, 1536.0 2551.8 C 1678.8 2572.9, 1878.8 2388.5, 2012.2 2466.3 C 2155.0 2468.5, 2355.0 2441.9, 2488.3 2372.2 C 2631.2 2365.8, 2831.2 2497.0, 2964.5 2326.6 C 3107.3 2311.6, 3307.3 2584.4, 3440.6 2357.1" fill="none" stroke="url(#ribbon1044)" stroke-width="18.4" stroke-linecap="round" stroke-opacity="0.380" /></g><g transform="rotate(-17.06 1536.0 1536.0)"><path d="M-368.6 2648.4 C -241.7 2524.0, -63.9 2715.3, 54.6 2655.7 C 181.6 2655.4, 359.4 2642.2, 477.9 2748.7 C 604.8 2724.8, 782.6 2532.8, 901.1 2780.9 C 1028.1 2751.1, 1205.9 2531.9, 1324.4 2732.7 C 1451.3 2742.8, 1629.1 2553.0, 1747.6 2633.3 C 1874.6 2630.1, 2052.4 2662.2, 2170.9 2543.1 C 2297.9 2550.1, 2475.6 2746.0, 2594.1 2516.7 C 2721.1 2498.0, 2898.9 2792.6, 3017.4 2570.2 C 3144.4 2573.4, 3322.1 2714.2, 3440.6 2671.1" fill="none" stroke="url(#ribbon1044)" stroke-width="14.4" stroke-linecap="round" stroke-opacity="0.406" /></g></g>
  <g><ellipse cx="1536.0" cy="1551.9" rx="728.6" ry="605.7" fill="url(#extrude1044)" opacity="0.220" /><ellipse cx="1536.0" cy="1567.7" rx="736.0" ry="610.9" fill="url(#extrude1044)" opacity="0.205" /><ellipse cx="1536.0" cy="1583.6" rx="743.4" ry="616.1" fill="url(#extrude1044)" opacity="0.190" /><ellipse cx="1536.0" cy="1599.5" rx="750.9" ry="621.3" fill="url(#extrude1044)" opacity="0.175" /><ellipse cx="1536.0" cy="1615.4" rx="758.3" ry="626.5" fill="url(#extrude1044)" opacity="0.160" /><ellipse cx="1536.0" cy="1631.2" rx="765.7" ry="631.7" fill="url(#extrude1044)" opacity="0.145" /><ellipse cx="1536.0" cy="1647.1" rx="773.2" ry="636.9" fill="url(#extrude1044)" opacity="0.130" /><ellipse cx="1536.0" cy="1663.0" rx="780.6" ry="642.1" fill="url(#extrude1044)" opacity="0.115" /><ellipse cx="1536.0" cy="1678.8" rx="788.0" ry="647.4" fill="url(#extrude1044)" opacity="0.100" /><ellipse cx="1536.0" cy="1694.7" rx="795.5" ry="652.6" fill="url(#extrude1044)" opacity="0.085" /><ellipse cx="1536.0" cy="1710.6" rx="802.9" ry="657.8" fill="url(#extrude1044)" opacity="0.070" /><ellipse cx="1536.0" cy="1726.5" rx="810.3" ry="663.0" fill="url(#extrude1044)" opacity="0.055" /></g>
  <ellipse cx="1536.0" cy="1726.5" rx="773.2" ry="214.9" fill="#0B1D2D" opacity="0.24" />
  <ellipse cx="1536.0" cy="1536.0" rx="743.4" ry="651.3" fill="url(#orb1044)" stroke="#FFFFFF" stroke-opacity="0.42" stroke-width="7" />
  <ellipse cx="1431.9" cy="1392.7" rx="505.5" ry="299.6" fill="#FFFFFF" opacity="0.25" />
  <path d="M 199.4 399.4 C 1013.8 -30.7, 2058.2 768.0, 2872.6 215.0 L 2872.6 983.0 C 2089.0 1228.8, 1013.8 307.2, 199.4 1167.4 Z" fill="url(#glass1044)" />
  <rect x="270" y="270" width="2532" height="2532" rx="430" fill="none" stroke="#FFFFFF" stroke-opacity="0.30" stroke-width="5" />
  <rect x="288.4" y="288.4" width="2495.1" height="2495.1" rx="399" fill="none" stroke="#3B82FF" stroke-opacity="0.35" stroke-width="3" />
  <g filter="url(#soft1044)"><rect x="692" y="2743" width="76" height="2" fill="#FFFFFF" opacity="0.506" /><rect x="729" y="2706" width="2" height="76" fill="#FFFFFF" opacity="0.506" /><rect x="866" y="385" width="80" height="2" fill="#FFFFFF" opacity="0.396" /><rect x="905" y="346" width="2" height="80" fill="#FFFFFF" opacity="0.396" /><rect x="1390" y="330" width="60" height="2" fill="#FFFFFF" opacity="0.562" /><rect x="1419" y="301" width="2" height="60" fill="#FFFFFF" opacity="0.562" /><rect x="685" y="753" width="34" height="2" fill="#FFFFFF" opacity="0.393" /><rect x="701" y="737" width="2" height="34" fill="#FFFFFF" opacity="0.393" /><rect x="1288" y="1066" width="74" height="2" fill="#FFFFFF" opacity="0.608" /><rect x="1324" y="1030" width="2" height="74" fill="#FFFFFF" opacity="0.608" /><rect x="1685" y="2463" width="74" height="2" fill="#FFFFFF" opacity="0.366" /><rect x="1721" y="2427" width="2" height="74" fill="#FFFFFF" opacity="0.366" /><rect x="1630" y="2301" width="72" height="2" fill="#FFFFFF" opacity="0.383" /><rect x="1665" y="2266" width="2" height="72" fill="#FFFFFF" opacity="0.383" /><rect x="922" y="1889" width="48" height="2" fill="#FFFFFF" opacity="0.714" /><rect x="945" y="1866" width="2" height="48" fill="#FFFFFF" opacity="0.714" /><rect x="1470" y="2532" width="24" height="2" fill="#FFFFFF" opacity="0.693" /><rect x="1481" y="2521" width="2" height="24" fill="#FFFFFF" opacity="0.693" /><rect x="1101" y="569" width="76" height="2" fill="#FFFFFF" opacity="0.436" /><rect x="1138" y="532" width="2" height="76" fill="#FFFFFF" opacity="0.436" /><rect x="804" y="347" width="72" height="2" fill="#FFFFFF" opacity="0.677" /><rect x="839" y="312" width="2" height="72" fill="#FFFFFF" opacity="0.677" /><rect x="1825" y="1707" width="62" height="2" fill="#FFFFFF" opacity="0.597" /><rect x="1855" y="1677" width="2" height="62" fill="#FFFFFF" opacity="0.597" /><rect x="1046" y="2338" width="30" height="2" fill="#FFFFFF" opacity="0.611" /><rect x="1060" y="2324" width="2" height="30" fill="#FFFFFF" opacity="0.611" /><rect x="2538" y="537" width="78" height="2" fill="#FFFFFF" opacity="0.689" /><rect x="2576" y="499" width="2" height="78" fill="#FFFFFF" opacity="0.689" /><rect x="1912" y="2211" width="70" height="2" fill="#FFFFFF" opacity="0.347" /><rect x="1946" y="2177" width="2" height="70" fill="#FFFFFF" opacity="0.347" /><rect x="317" y="1289" width="28" height="2" fill="#FFFFFF" opacity="0.522" /><rect x="330" y="1276" width="2" height="28" fill="#FFFFFF" opacity="0.522" /><rect x="1021" y="1607" width="76" height="2" fill="#FFFFFF" opacity="0.530" /><rect x="1058" y="1570" width="2" height="76" fill="#FFFFFF" opacity="0.530" /><rect x="1931" y="312" width="68" height="2" fill="#FFFFFF" opacity="0.501" /><rect x="1964" y="279" width="2" height="68" fill="#FFFFFF" opacity="0.501" /><rect x="2566" y="2120" width="60" height="2" fill="#FFFFFF" opacity="0.560" /><rect x="2595" y="2091" width="2" height="60" fill="#FFFFFF" opacity="0.560" /><rect x="627" y="835" width="74" height="2" fill="#FFFFFF" opacity="0.834" /><rect x="663" y="799" width="2" height="74" fill="#FFFFFF" opacity="0.834" /><rect x="591" y="1246" width="48" height="2" fill="#FFFFFF" opacity="0.423" /><rect x="614" y="1223" width="2" height="48" fill="#FFFFFF" opacity="0.423" /><rect x="2375" y="1443" width="34" height="2" fill="#FFFFFF" opacity="0.780" /><rect x="2391" y="1427" width="2" height="34" fill="#FFFFFF" opacity="0.780" /><rect x="2059" y="2350" width="40" height="2" fill="#FFFFFF" opacity="0.376" /><rect x="2078" y="2331" width="2" height="40" fill="#FFFFFF" opacity="0.376" /><rect x="1451" y="1077" width="40" height="2" fill="#FFFFFF" opacity="0.674" /><rect x="1470" y="1058" width="2" height="40" fill="#FFFFFF" opacity="0.674" /><rect x="1546" y="850" width="60" height="2" fill="#FFFFFF" opacity="0.648" /><rect x="1575" y="821" width="2" height="60" fill="#FFFFFF" opacity="0.648" /><rect x="1010" y="423" width="50" height="2" fill="#FFFFFF" opacity="0.697" /><rect x="1034" y="399" width="2" height="50" fill="#FFFFFF" opacity="0.697" /></g>
  <g opacity="0.52"><circle cx="1572" cy="1582" r="307" fill="none" stroke="#0C2030" stroke-width="90" /><line x1="1791" y1="1801" x2="2340" y2="2350" stroke="#0C2030" stroke-width="90" stroke-linecap="round" /></g>
  <g filter="url(#soft1044)"><circle cx="1536" cy="1536" r="307" fill="none" stroke="url(#symbol1044)" stroke-width="90" /><line x1="1755" y1="1755" x2="2304" y2="2304" stroke="url(#symbol1044)" stroke-width="90" stroke-linecap="round" /></g>
  <rect x="138" y="138" width="2796" height="2796" rx="629" fill="#FFFFFF" filter="url(#grain1044)" opacity="0.18" />
</svg>
