<svg xmlns="http://www.w3.org/2000/svg" width="3072" height="3072" viewBox="0 0 3072 3072">
  <title>QuartzOS System Icon 097 - downloads_05</title>
  <defs><linearGradient id="bg1096" x1="0%" y1="0%" x2="100%" y2="100%"><stop offset="0%" stop-color="#FF9F43" /><stop offset="26%" stop-color="#53E3A6" /><stop offset="56%" stop-color="#3B82FF" /><stop offset="78%" stop-color="#5AA47F" /><stop offset="100%" stop-color="#1A2B22" /></linearGradient><radialGradient id="sun1096" cx="47%" cy="37%" r="88%"><stop offset="0%" stop-color="#FFFFFF" stop-opacity="0.62" /><stop offset="30%" stop-color="#8A5CFF" stop-opacity="0.35" /><stop offset="100%" stop-color="#8A5CFF" stop-opacity="0" /></radialGradient><linearGradient id="glass1096" x1="0%" y1="0%" x2="0%" y2="100%"><stop offset="0%" stop-color="#FFFFFF" stop-opacity="0.70" /><stop offset="46%" stop-color="#FFFFFF" stop-opacity="0.26" /><stop offset="100%" stop-color="#FFFFFF" stop-opacity="0.00" /></linearGradient><linearGradient id="ribbon1096" x1="0%" y1="0%" x2="100%" y2="0%"><stop offset="0%" stop-color="#FF9F43" stop-opacity="0.18" /><stop offset="34%" stop-color="#53E3A6" stop-opacity="0.72" /><stop offset="66%" stop-color="#3B82FF" stop-opacity="0.72" /><stop offset="100%" stop-color="#8A5CFF" stop-opacity="0.18" /></linearGradient><radialGradient id="orb1096" cx="34%" cy="27%" r="74%"><stop offset="0%" stop-color="#FFFFFF" stop-opacity="0.84" /><stop offset="30%" stop-color="#FF9F43" stop-opacity="0.52" /><stop offset="68%" stop-color="#53E3A6" stop-opacity="0.42" /><stop offset="100%" stop-color="#3B82FF" stop-opacity="0.20" /></radialGradient><linearGradient id="extrude1096" x1="0%" y1="0%" x2="0%" y2="100%"><stop offset="0%" stop-color="#15283C" stop-opacity="0.45" /><stop offset="100%" stop-color="#08131D" stop-opacity="0.06" /></linearGradient><linearGradient id="symbol1096" x1="0%" y1="0%" x2="100%" y2="100%"><stop offset="0%" stop-color="#FFFFFF" /><stop offset="100%" stop-color="#8A5CFF" /></linearGradient><filter id="shadow1096" x="-40%" y="-40%" width="180%" height="180%"><feDropShadow dx="0" dy="49" stdDeviation="86" flood-color="#06111A" flood-opacity="0.54" /></filter><filter id="soft1096" x="-40%" y="-40%" width="180%" height="180%"><feDropShadow dx="0" dy="0" stdDeviation="14" flood-color="#FF9F43" flood-opacity="0.45" /></filter><filter id="grain1096"><feTurbulence type="fractalNoise" baseFrequency="0.957" numOctaves="2" seed="1096" /><feColorMatrix type="saturate" values="0" /><feComponentTransfer><feFuncA type="table" tableValues="0 0.09" /></feComponentTransfer></filter></defs>
  <rect x="138" y="138" width="2796" height="2796" rx="629" fill="url(#bg1096)" filter="url(#shadow1096)" />
  <rect x="138" y="138" width="2796" height="2796" rx="629" fill="url(#sun1096)" />
  <g><circle cx="1198" cy="1787" r="112" fill="#FFFFFF" opacity="0.079" /><circle cx="2055" cy="1001" r="132" fill="#FFFFFF" opacity="0.078" /><circle cx="2186" cy="1600" r="153" fill="#FFFFFF" opacity="0.154" /><circle cx="2521" cy="1196" r="87" fill="#FFFFFF" opacity="0.118" /><circle cx="2078" cy="2637" r="119" fill="#FFFFFF" opacity="0.158" /><circle cx="969" cy="412" r="95" fill="#FFFFFF" opacity="0.108" /><circle cx="2145" cy="1812" r="135" fill="#FFFFFF" opacity="0.218" /><circle cx="840" cy="2470" r="141" fill="#FFFFFF" opacity="0.104" /><circle cx="2592" cy="1812" r="54" fill="#FFFFFF" opacity="0.173" /><circle cx="1595" cy="823" r="47" fill="#FFFFFF" opacity="0.127" /><circle cx="1140" cy="1762" r="117" fill="#FFFFFF" opacity="0.201" /><circle cx="2036" cy="1341" r="49" fill="#FFFFFF" opacity="0.183" /><circle cx="2261" cy="615" r="139" fill="#FFFFFF" opacity="0.154" /><circle cx="2609" cy="317" r="137" fill="#FFFFFF" opacity="0.080" /><circle cx="2040" cy="1298" r="60" fill="#FFFFFF" opacity="0.118" /><circle cx="2019" cy="1569" r="152" fill="#FFFFFF" opacity="0.110" /><circle cx="2376" cy="1221" r="134" fill="#FFFFFF" opacity="0.227" /><circle cx="2156" cy="730" r="129" fill="#FFFFFF" opacity="0.070" /><circle cx="804" cy="317" r="140" fill="#FFFFFF" opacity="0.069" /><circle cx="2666" cy="1457" r="39" fill="#FFFFFF" opacity="0.238" /><circle cx="2647" cy="2635" r="80" fill="#FFFFFF" opacity="0.230" /><circle cx="1504" cy="1215" r="148" fill="#FFFFFF" opacity="0.147" /><circle cx="1800" cy="1911" r="143" fill="#FFFFFF" opacity="0.201" /><circle cx="1463" cy="1793" r="157" fill="#FFFFFF" opacity="0.215" /><circle cx="2509" cy="1438" r="64" fill="#FFFFFF" opacity="0.209" /><circle cx="1686" cy="1384" r="73" fill="#FFFFFF" opacity="0.091" /><circle cx="445" cy="1133" r="89" fill="#FFFFFF" opacity="0.139" /><circle cx="2152" cy="1802" r="97" fill="#FFFFFF" opacity="0.217" /></g>
  <g><path d="M 333.7 650.2 L 2809.3 373.7 L 2809.3 860.0 L 333.7 1136.5 Z" fill="#FFFFFF" opacity="0.225" /><path d="M 150.1 896.9 L 2739.6 620.5 L 2739.6 1055.0 L 150.1 1331.5 Z" fill="#FFFFFF" opacity="0.228" /><path d="M 354.9 1148.2 L 2855.2 871.7 L 2855.2 1355.9 L 354.9 1632.3 Z" fill="#FFFFFF" opacity="0.132" /><path d="M 172.4 1418.5 L 2758.4 1142.0 L 2758.4 1629.5 L 172.4 1906.0 Z" fill="#FFFFFF" opacity="0.097" /><path d="M 242.6 1652.9 L 2743.1 1376.4 L 2743.1 1869.8 L 242.6 2146.3 Z" fill="#FFFFFF" opacity="0.111" /><path d="M 292.3 1926.5 L 2810.4 1650.0 L 2810.4 2145.9 L 292.3 2422.3 Z" fill="#FFFFFF" opacity="0.168" /><path d="M 311.5 2170.7 L 2764.3 1894.2 L 2764.3 2358.2 L 311.5 2634.7 Z" fill="#FFFFFF" opacity="0.147" /><path d="M 312.4 2421.1 L 2853.1 2144.6 L 2853.1 2597.5 L 312.4 2874.0 Z" fill="#FFFFFF" opacity="0.156" /></g>
  <g filter="url(#soft1096)"><g transform="rotate(-5.96 1536.0 1536.0)"><path d="M-368.6 464.8 C -225.8 454.7, -25.8 472.6, 107.5 419.1 C 250.4 423.4, 450.4 512.6, 583.7 410.6 C 726.5 418.9, 926.5 507.3, 1059.8 435.1 C 1202.7 442.6, 1402.7 498.5, 1536.0 477.5 C 1678.8 477.4, 1878.8 457.8, 2012.2 512.3 C 2155.0 509.4, 2355.0 442.0, 2488.3 518.2 C 2631.2 531.0, 2831.2 417.7, 2964.5 491.8 C 3107.3 501.5, 3307.3 437.7, 3440.6 448.9" fill="none" stroke="url(#ribbon1096)" stroke-width="58.4" stroke-linecap="round" stroke-opacity="0.120" /></g><g transform="rotate(-5.38 1536.0 1536.0)"><path d="M-368.6 698.5 C -241.7 723.2, -63.9 689.8, 54.6 674.2 C 181.6 675.7, 359.4 712.2, 477.9 640.4 C 604.8 647.6, 782.6 760.2, 901.1 641.8 C 1028.1 658.5, 1205.9 748.1, 1324.4 677.7 C 1451.3 685.6, 1629.1 714.2, 1747.6 726.2 C 1874.6 725.1, 2052.4 672.1, 2170.9 757.9 C 2297.9 742.7, 2475.6 632.1, 2594.1 753.6 C 2721.1 751.8, 2898.9 680.5, 3017.4 715.9 C 3144.4 710.0, 3322.1 679.6, 3440.6 667.6" fill="none" stroke="url(#ribbon1096)" stroke-width="54.4" stroke-linecap="round" stroke-opacity="0.146" /></g><g transform="rotate(-4.80 1536.0 1536.0)"><path d="M-368.6 940.5 C -254.4 945.8, -94.4 935.9, 12.3 896.2 C 126.6 890.9, 286.6 969.6, 393.2 871.3 C 507.5 895.1, 667.5 1004.1, 774.1 888.4 C 888.4 894.3, 1048.4 1002.6, 1155.1 937.1 C 1269.4 938.2, 1429.3 943.8, 1536.0 987.9 C 1650.3 984.0, 1810.3 890.2, 1916.9 1009.9 C 2031.2 1003.5, 2191.2 892.9, 2297.9 989.9 C 2412.1 1004.2, 2572.1 889.9, 2678.8 939.9 C 2793.1 939.8, 2953.1 940.9, 3059.7 890.3 C 3174.0 896.2, 3334.0 957.5, 3440.6 871.1" fill="none" stroke="url(#ribbon1096)" stroke-width="50.4" stroke-linecap="round" stroke-opacity="0.172" /></g><g transform="rotate(-4.22 1536.0 1536.0)"><path d="M-368.6 1101.5 C -264.8 1084.4, -119.3 1111.1, -22.3 1037.1 C 81.5 1017.6, 227.0 1142.1, 324.0 1027.0 C 427.8 1028.5, 573.3 1124.2, 670.3 1062.1 C 774.1 1068.3, 919.6 1126.4, 1016.6 1121.1 C 1120.4 1127.4, 1265.9 1089.6, 1362.9 1168.2 C 1466.7 1145.7, 1612.2 1029.4, 1709.1 1174.8 C 1813.0 1159.2, 1958.5 1048.7, 2055.4 1137.0 C 2159.3 1148.7, 2304.8 1080.8, 2401.7 1077.6 C 2505.6 1078.4, 2651.1 1118.9, 2748.0 1032.7 C 2851.9 1010.6, 2997.4 1145.9, 3094.3 1029.5 C 3198.2 1024.6, 3343.7 1175.0, 3440.6 1070.0" fill="none" stroke="url(#ribbon1096)" stroke-width="46.4" stroke-linecap="round" stroke-opacity="0.198" /></g><g transform="rotate(-3.64 1536.0 1536.0)"><path d="M-368.6 1303.3 C -273.4 1245.8, -140.1 1327.2, -51.2 1303.2 C 44.0 1303.2, 177.4 1303.3, 266.2 1363.1 C 361.5 1377.1, 494.8 1257.5, 583.7 1386.8 C 678.9 1418.3, 812.2 1212.6, 901.1 1359.8 C 996.4 1371.2, 1129.7 1279.0, 1218.6 1298.5 C 1313.8 1296.7, 1447.1 1308.0, 1536.0 1240.1 C 1631.2 1264.0, 1764.6 1338.2, 1853.4 1220.0 C 1948.7 1252.3, 2082.0 1381.7, 2170.9 1250.4 C 2266.1 1258.8, 2399.4 1350.0, 2488.3 1312.9 C 2583.6 1314.9, 2716.9 1291.9, 2805.8 1369.5 C 2901.0 1386.8, 3034.3 1249.7, 3123.2 1385.9 C 3218.4 1393.7, 3351.8 1227.9, 3440.6 1352.2" fill="none" stroke="url(#ribbon1096)" stroke-width="42.4" stroke-linecap="round" stroke-opacity="0.224" /></g><g transform="rotate(-3.06 1536.0 1536.0)"><path d="M-368.6 1445.0 C -225.8 1443.0, -25.8 1445.6, 107.5 1508.8 C 250.4 1499.1, 450.4 1380.6, 583.7 1535.6 C 726.5 1501.9, 926.5 1391.8, 1059.8 1507.5 C 1202.7 1498.4, 1402.7 1394.4, 1536.0 1441.5 C 1678.8 1440.4, 1878.8 1446.6, 2012.2 1377.6 C 2155.0 1390.4, 2355.0 1469.9, 2488.3 1354.6 C 2631.2 1359.7, 2831.2 1544.4, 2964.5 1386.4 C 3107.3 1379.3, 3307.3 1463.2, 3440.6 1453.8" fill="none" stroke="url(#ribbon1096)" stroke-width="38.4" stroke-linecap="round" stroke-opacity="0.250" /></g><g transform="rotate(-2.48 1536.0 1536.0)"><path d="M-368.6 1698.0 C -241.7 1832.3, -63.9 1621.6, 54.6 1773.6 C 181.6 1788.8, 359.4 1618.1, 477.9 1706.4 C 604.8 1704.4, 782.6 1694.8, 901.1 1634.0 C 1028.1 1622.4, 1205.9 1770.6, 1324.4 1600.5 C 1451.3 1564.3, 1629.1 1741.2, 1747.6 1626.1 C 1874.6 1601.3, 2052.4 1745.8, 2170.9 1695.3 C 2297.9 1695.1, 2475.6 1699.0, 2594.1 1766.2 C 2721.1 1789.1, 2898.9 1669.2, 3017.4 1795.7 C 3144.4 1789.0, 3322.1 1652.5, 3440.6 1765.9" fill="none" stroke="url(#ribbon1096)" stroke-width="34.4" stroke-linecap="round" stroke-opacity="0.276" /></g><g transform="rotate(-1.90 1536.0 1536.0)"><path d="M-368.6 1864.5 C -254.4 1951.3, -94.4 1772.9, 12.3 1955.4 C 126.6 1929.7, 286.6 1808.3, 393.2 1890.4 C 507.5 1891.1, 667.5 1853.6, 774.1 1809.7 C 888.4 1792.3, 1048.4 1927.9, 1155.1 1762.3 C 1269.4 1767.6, 1429.3 1947.9, 1536.0 1776.9 C 1650.3 1789.1, 1810.3 1903.6, 1916.9 1844.6 C 2031.2 1842.2, 2191.2 1876.9, 2297.9 1924.4 C 2412.1 1930.4, 2572.1 1836.2, 2678.8 1967.9 C 2793.1 1972.3, 2953.1 1786.7, 3059.7 1948.7 C 3174.0 1940.8, 3334.0 1782.5, 3440.6 1878.4" fill="none" stroke="url(#ribbon1096)" stroke-width="30.4" stroke-linecap="round" stroke-opacity="0.302" /></g><g transform="rotate(-1.32 1536.0 1536.0)"><path d="M-368.6 2026.6 C -264.8 2104.8, -119.3 1998.3, -22.3 2137.8 C 81.5 2125.8, 227.0 1903.5, 324.0 2112.9 C 427.8 2121.0, 573.3 1960.8, 670.3 2035.8 C 774.1 2033.5, 919.6 2021.8, 1016.6 1953.0 C 1120.4 1935.3, 1265.9 2080.6, 1362.9 1915.0 C 1466.7 1957.0, 1612.2 2069.0, 1709.1 1944.6 C 1813.0 1954.6, 1958.5 2104.3, 2055.4 2024.0 C 2159.3 2024.4, 2304.8 2028.6, 2401.7 2105.0 C 2505.6 2104.3, 2651.1 1970.7, 2748.0 2138.5 C 2851.9 2128.8, 2997.4 1986.2, 3094.3 2104.1 C 3198.2 2129.7, 3343.7 1988.2, 3440.6 2022.7" fill="none" stroke="url(#ribbon1096)" stroke-width="26.4" stroke-linecap="round" stroke-opacity="0.328" /></g><g transform="rotate(-0.74 1536.0 1536.0)"><path d="M-368.6 2302.4 C -273.4 2397.2, -140.1 2198.0, -51.2 2412.2 C 44.0 2369.5, 177.4 2187.2, 266.2 2346.1 C 361.5 2361.6, 494.8 2280.2, 583.7 2253.5 C 678.9 2241.4, 812.2 2345.7, 901.1 2190.6 C 996.4 2168.0, 1129.7 2385.4, 1218.6 2195.5 C 1313.8 2237.8, 1447.1 2359.7, 1536.0 2265.3 C 1631.2 2251.1, 1764.6 2320.1, 1853.4 2357.6 C 1948.7 2352.6, 2082.0 2278.4, 2170.9 2416.4 C 2266.1 2460.0, 2399.4 2205.1, 2488.3 2406.1 C 2583.6 2421.2, 2716.9 2217.0, 2805.8 2332.9 C 2901.0 2329.8, 3034.3 2274.8, 3123.2 2241.2 C 3218.4 2250.3, 3351.8 2340.3, 3440.6 2186.7" fill="none" stroke="url(#ribbon1096)" stroke-width="22.4" stroke-linecap="round" stroke-opacity="0.354" /></g><g transform="rotate(-0.16 1536.0 1536.0)"><path d="M-368.6 2444.1 C -225.8 2373.6, -25.8 2517.7, 107.5 2402.6 C 250.4 2401.3, 450.4 2468.7, 583.7 2500.4 C 726.5 2508.9, 926.5 2407.7, 1059.8 2564.2 C 1202.7 2530.5, 1402.7 2308.3, 1536.0 2555.1 C 1678.8 2594.3, 1878.8 2391.7, 2012.2 2478.7 C 2155.0 2477.5, 2355.0 2405.0, 2488.3 2381.3 C 2631.2 2388.0, 2831.2 2487.4, 2964.5 2322.0 C 3107.3 2357.1, 3307.3 2499.3, 3440.6 2336.8" fill="none" stroke="url(#ribbon1096)" stroke-width="18.4" stroke-linecap="round" stroke-opacity="0.380" /></g><g transform="rotate(0.42 1536.0 1536.0)"><path d="M-368.6 2637.8 C -241.7 2538.5, -63.9 2707.3, 54.6 2504.8 C 181.6 2536.2, 359.4 2789.0, 477.9 2546.1 C 604.8 2565.4, 782.6 2713.9, 901.1 2643.1 C 1028.1 2642.0, 1205.9 2635.8, 1324.4 2736.8 C 1451.3 2771.5, 1629.1 2571.8, 1747.6 2770.5 C 1874.6 2730.2, 2052.4 2563.6, 2170.9 2723.7 C 2297.9 2749.3, 2475.6 2577.0, 2594.1 2624.8 C 2721.1 2629.8, 2898.9 2642.1, 3017.4 2533.8 C 3144.4 2519.3, 3322.1 2731.7, 3440.6 2505.9" fill="none" stroke="url(#ribbon1096)" stroke-width="14.4" stroke-linecap="round" stroke-opacity="0.406" /></g></g>
  <g><ellipse cx="1536.0" cy="1551.9" rx="728.6" ry="605.7" fill="url(#extrude1096)" opacity="0.220" /><ellipse cx="1536.0" cy="1567.7" rx="736.0" ry="610.9" fill="url(#extrude1096)" opacity="0.205" /><ellipse cx="1536.0" cy="1583.6" rx="743.4" ry="616.1" fill="url(#extrude1096)" opacity="0.190" /><ellipse cx="1536.0" cy="1599.5" rx="750.9" ry="621.3" fill="url(#extrude1096)" opacity="0.175" /><ellipse cx="1536.0" cy="1615.4" rx="758.3" ry="626.5" fill="url(#extrude1096)" opacity="0.160" /><ellipse cx="1536.0" cy="1631.2" rx="765.7" ry="631.7" fill="url(#extrude1096)" opacity="0.145" /><ellipse cx="1536.0" cy="1647.1" rx="773.2" ry="636.9" fill="url(#extrude1096)" opacity="0.130" /><ellipse cx="1536.0" cy="1663.0" rx="780.6" ry="642.1" fill="url(#extrude1096)" opacity="0.115" /><ellipse cx="1536.0" cy="1678.8" rx="788.0" ry="647.4" fill="url(#extrude1096)" opacity="0.100" /><ellipse cx="1536.0" cy="1694.7" rx="795.5" ry="652.6" fill="url(#extrude1096)" opacity="0.085" /><ellipse cx="1536.0" cy="1710.6" rx="802.9" ry="657.8" fill="url(#extrude1096)" opacity="0.070" /><ellipse cx="1536.0" cy="1726.5" rx="810.3" ry="663.0" fill="url(#extrude1096)" opacity="0.055" /></g>
  <ellipse cx="1536.0" cy="1726.5" rx="773.2" ry="214.9" fill="#0B1D2D" opacity="0.24" />
  <ellipse cx="1536.0" cy="1536.0" rx="743.4" ry="651.3" fill="url(#orb1096)" stroke="#FFFFFF" stroke-opacity="0.42" stroke-width="7" />
  <ellipse cx="1431.9" cy="1392.7" rx="505.5" ry="299.6" fill="#FFFFFF" opacity="0.25" />
  <path d="M 199.4 399.4 C 1013.8 -30.7, 2058.2 768.0, 2872.6 215.0 L 2872.6 983.0 C 2089.0 1228.8, 1013.8 307.2, 199.4 1167.4 Z" fill="url(#glass1096)" />
  <rect x="270" y="270" width="2532" height="2532" rx="430" fill="none" stroke="#FFFFFF" stroke-opacity="0.30" stroke-width="5" />
  <rect x="288.4" y="288.4" width="2495.1" height="2495.1" rx="399" fill="none" stroke="#FF9F43" stroke-opacity="0.35" stroke-width="3" />
  <g filter="url(#soft1096)"><rect x="2674" y="738" width="80" height="2" fill="#FFFFFF" opacity="0.723" /><rect x="2713" y="699" width="2" height="80" fill="#FFFFFF" opacity="0.723" /><rect x="1279" y="2319" width="72" height="2" fill="#FFFFFF" opacity="0.385" /><rect x="1314" y="2284" width="2" height="72" fill="#FFFFFF" opacity="0.385" /><rect x="679" y="1451" width="78" height="2" fill="#FFFFFF" opacity="0.762" /><rect x="717" y="1413" width="2" height="78" fill="#FFFFFF" opacity="0.762" /><rect x="1730" y="440" width="42" height="2" fill="#FFFFFF" opacity="0.835" /><rect x="1750" y="420" width="2" height="42" fill="#FFFFFF" opacity="0.835" /><rect x="1033" y="1569" width="52" height="2" fill="#FFFFFF" opacity="0.795" /><rect x="1058" y="1544" width="2" height="52" fill="#FFFFFF" opacity="0.795" /><rect x="1243" y="1912" width="58" height="2" fill="#FFFFFF" opacity="0.780" /><rect x="1271" y="1884" width="2" height="58" fill="#FFFFFF" opacity="0.780" /><rect x="1112" y="931" width="40" height="2" fill="#FFFFFF" opacity="0.742" /><rect x="1131" y="912" width="2" height="40" fill="#FFFFFF" opacity="0.742" /><rect x="1025" y="727" width="32" height="2" fill="#FFFFFF" opacity="0.693" /><rect x="1040" y="712" width="2" height="32" fill="#FFFFFF" opacity="0.693" /><rect x="2171" y="2142" width="28" height="2" fill="#FFFFFF" opacity="0.723" /><rect x="2184" y="2129" width="2" height="28" fill="#FFFFFF" opacity="0.723" /><rect x="661" y="534" width="64" height="2" fill="#FFFFFF" opacity="0.302" /><rect x="692" y="503" width="2" height="64" fill="#FFFFFF" opacity="0.302" /><rect x="1569" y="775" width="34" height="2" fill="#FFFFFF" opacity="0.410" /><rect x="1585" y="759" width="2" height="34" fill="#FFFFFF" opacity="0.410" /><rect x="2310" y="1141" width="46" height="2" fill="#FFFFFF" opacity="0.565" /><rect x="2332" y="1119" width="2" height="46" fill="#FFFFFF" opacity="0.565" /><rect x="2242" y="2182" width="32" height="2" fill="#FFFFFF" opacity="0.610" /><rect x="2257" y="2167" width="2" height="32" fill="#FFFFFF" opacity="0.610" /><rect x="1440" y="1551" width="64" height="2" fill="#FFFFFF" opacity="0.733" /><rect x="1471" y="1520" width="2" height="64" fill="#FFFFFF" opacity="0.733" /><rect x="1473" y="1938" width="26" height="2" fill="#FFFFFF" opacity="0.478" /><rect x="1485" y="1926" width="2" height="26" fill="#FFFFFF" opacity="0.478" /><rect x="2661" y="1892" width="28" height="2" fill="#FFFFFF" opacity="0.400" /><rect x="2674" y="1879" width="2" height="28" fill="#FFFFFF" opacity="0.400" /><rect x="1892" y="449" width="62" height="2" fill="#FFFFFF" opacity="0.820" /><rect x="1922" y="419" width="2" height="62" fill="#FFFFFF" opacity="0.820" /><rect x="1964" y="1737" width="60" height="2" fill="#FFFFFF" opacity="0.479" /><rect x="1993" y="1708" width="2" height="60" fill="#FFFFFF" opacity="0.479" /><rect x="1952" y="1343" width="32" height="2" fill="#FFFFFF" opacity="0.831" /><rect x="1967" y="1328" width="2" height="32" fill="#FFFFFF" opacity="0.831" /><rect x="1647" y="2344" width="46" height="2" fill="#FFFFFF" opacity="0.367" /><rect x="1669" y="2322" width="2" height="46" fill="#FFFFFF" opacity="0.367" /><rect x="772" y="1200" width="42" height="2" fill="#FFFFFF" opacity="0.359" /><rect x="792" y="1180" width="2" height="42" fill="#FFFFFF" opacity="0.359" /><rect x="1676" y="250" width="48" height="2" fill="#FFFFFF" opacity="0.651" /><rect x="1699" y="227" width="2" height="48" fill="#FFFFFF" opacity="0.651" /><rect x="345" y="855" width="64" height="2" fill="#FFFFFF" opacity="0.566" /><rect x="376" y="824" width="2" height="64" fill="#FFFFFF" opacity="0.566" /><rect x="958" y="2432" width="80" height="2" fill="#FFFFFF" opacity="0.333" /><rect x="997" y="2393" width="2" height="80" fill="#FFFFFF" opacity="0.333" /><rect x="2004" y="484" width="32" height="2" fill="#FFFFFF" opacity="0.760" /><rect x="2019" y="469" width="2" height="32" fill="#FFFFFF" opacity="0.760" /><rect x="571" y="2570" width="82" height="2" fill="#FFFFFF" opacity="0.704" /><rect x="611" y="2530" width="2" height="82" fill="#FFFFFF" opacity="0.704" /></g>
  <g opacity="0.52"><path d="M1572 1006 L2148 1582 L1572 2158 L996 1582 Z" fill="none" stroke="#0C2030" stroke-width="90" stroke-linejoin="round" /><circle cx="1572" cy="1582" r="153" fill="#0C2030" /></g>
  <g filter="url(#soft1096)"><path d="M1536 960 L2112 1536 L1536 2112 L960 1536 Z" fill="none" stroke="url(#symbol1096)" stroke-width="90" stroke-linejoin="round" /><circle cx="1536" cy="1536" r="153" fill="url(#symbol1096)" /></g>
  <rect x="138" y="138" width="2796" height="2796" rx="629" fill="#FFFFFF" filter="url(#grain1096)" opacity="0.18" />
</svg>
