<svg xmlns="http://www.w3.org/2000/svg" width="3072" height="3072" viewBox="0 0 3072 3072">
  <title>QuartzOS System Icon 079 - input_04</title>
  <defs><linearGradient id="bg1078" x1="0%" y1="0%" x2="100%" y2="100%"><stop offset="0%" stop-color="#36D1FF" /><stop offset="26%" stop-color="#8A5CFF" /><stop offset="56%" stop-color="#FF9F43" /><stop offset="78%" stop-color="#58A3D8" /><stop offset="100%" stop-color="#1D2F45" /></linearGradient><radialGradient id="sun1078" cx="46%" cy="41%" r="88%"><stop offset="0%" stop-color="#FFFFFF" stop-opacity="0.62" /><stop offset="30%" stop-color="#FFD84D" stop-opacity="0.35" /><stop offset="100%" stop-color="#FFD84D" stop-opacity="0" /></radialGradient><linearGradient id="glass1078" x1="0%" y1="0%" x2="0%" y2="100%"><stop offset="0%" stop-color="#FFFFFF" stop-opacity="0.70" /><stop offset="46%" stop-color="#FFFFFF" stop-opacity="0.26" /><stop offset="100%" stop-color="#FFFFFF" stop-opacity="0.00" /></linearGradient><linearGradient id="ribbon1078" x1="0%" y1="0%" x2="100%" y2="0%"><stop offset="0%" stop-color="#36D1FF" stop-opacity="0.18" /><stop offset="34%" stop-color="#8A5CFF" stop-opacity="0.72" /><stop offset="66%" stop-color="#FF9F43" stop-opacity="0.72" /><stop offset="100%" stop-color="#FFD84D" stop-opacity="0.18" /></linearGradient><radialGradient id="orb1078" cx="34%" cy="27%" r="74%"><stop offset="0%" stop-color="#FFFFFF" stop-opacity="0.84" /><stop offset="30%" stop-color="#36D1FF" stop-opacity="0.52" /><stop offset="68%" stop-color="#8A5CFF" stop-opacity="0.42" /><stop offset="100%" stop-color="#FF9F43" stop-opacity="0.20" /></radialGradient><linearGradient id="extrude1078" x1="0%" y1="0%" x2="0%" y2="100%"><stop offset="0%" stop-color="#15283C" stop-opacity="0.45" /><stop offset="100%" stop-color="#08131D" stop-opacity="0.06" /></linearGradient><linearGradient id="symbol1078" x1="0%" y1="0%" x2="100%" y2="100%"><stop offset="0%" stop-color="#FFFFFF" /><stop offset="100%" stop-color="#FFD84D" /></linearGradient><filter id="shadow1078" x="-40%" y="-40%" width="180%" height="180%"><feDropShadow dx="0" dy="49" stdDeviation="86" flood-color="#06111A" flood-opacity="0.54" /></filter><filter id="soft1078" x="-40%" y="-40%" width="180%" height="180%"><feDropShadow dx="0" dy="0" stdDeviation="14" flood-color="#36D1FF" flood-opacity="0.45" /></filter><filter id="grain1078"><feTurbulence type="fractalNoise" baseFrequency="0.911" numOctaves="2" seed="1078" /><feColorMatrix type="saturate" values="0" /><feComponentTransfer><feFuncA type="table" tableValues="0 0.09" /></feComponentTransfer></filter></defs>
  <rect x="138" y="138" width="2796" height="2796" rx="629" fill="url(#bg1078)" filter="url(#shadow1078)" />
  <rect x="138" y="138" width="2796" height="2796" rx="629" fill="url(#sun1078)" />
  <g><circle cx="2067" cy="1036" r="78" fill="#FFFFFF" opacity="0.216" /><circle cx="2562" cy="1351" r="55" fill="#FFFFFF" opacity="0.175" /><circle cx="1925" cy="2241" r="119" fill="#FFFFFF" opacity="0.086" /><circle cx="939" cy="1174" r="149" fill="#FFFFFF" opacity="0.071" /><circle cx="2301" cy="896" r="100" fill="#FFFFFF" opacity="0.215" /><circle cx="904" cy="1598" r="59" fill="#FFFFFF" opacity="0.156" /><circle cx="1740" cy="936" r="74" fill="#FFFFFF" opacity="0.113" /><circle cx="369" cy="1500" r="88" fill="#FFFFFF" opacity="0.115" /><circle cx="1589" cy="1946" r="109" fill="#FFFFFF" opacity="0.165" /><circle cx="758" cy="1338" r="148" fill="#FFFFFF" opacity="0.156" /><circle cx="2205" cy="1318" r="128" fill="#FFFFFF" opacity="0.218" /><circle cx="376" cy="883" r="86" fill="#FFFFFF" opacity="0.210" /><circle cx="1647" cy="752" r="66" fill="#FFFFFF" opacity="0.210" /><circle cx="1927" cy="1308" r="98" fill="#FFFFFF" opacity="0.091" /><circle cx="1515" cy="325" r="91" fill="#FFFFFF" opacity="0.126" /><circle cx="1497" cy="2021" r="90" fill="#FFFFFF" opacity="0.071" /><circle cx="1270" cy="1699" r="43" fill="#FFFFFF" opacity="0.205" /><circle cx="1043" cy="1860" r="104" fill="#FFFFFF" opacity="0.073" /><circle cx="2026" cy="1290" r="41" fill="#FFFFFF" opacity="0.109" /><circle cx="2334" cy="2213" r="71" fill="#FFFFFF" opacity="0.178" /><circle cx="1158" cy="2164" r="51" fill="#FFFFFF" opacity="0.135" /><circle cx="1052" cy="2518" r="118" fill="#FFFFFF" opacity="0.110" /><circle cx="1061" cy="1512" r="149" fill="#FFFFFF" opacity="0.144" /><circle cx="2040" cy="2494" r="97" fill="#FFFFFF" opacity="0.214" /><circle cx="1716" cy="1650" r="102" fill="#FFFFFF" opacity="0.164" /><circle cx="2020" cy="1525" r="157" fill="#FFFFFF" opacity="0.157" /><circle cx="398" cy="1390" r="135" fill="#FFFFFF" opacity="0.151" /><circle cx="465" cy="2396" r="155" fill="#FFFFFF" opacity="0.198" /></g>
  <g><path d="M 253.2 588.4 L 2685.5 311.9 L 2685.5 774.4 L 253.2 1050.9 Z" fill="#FFFFFF" opacity="0.143" /><path d="M 335.1 917.0 L 2841.4 640.6 L 2841.4 1105.4 L 335.1 1381.8 Z" fill="#FFFFFF" opacity="0.165" /><path d="M 375.7 1119.0 L 2706.8 842.5 L 2706.8 1313.1 L 375.7 1589.6 Z" fill="#FFFFFF" opacity="0.157" /><path d="M 238.5 1416.8 L 2775.7 1140.3 L 2775.7 1595.4 L 238.5 1871.9 Z" fill="#FFFFFF" opacity="0.122" /><path d="M 364.5 1621.2 L 2917.1 1344.7 L 2917.1 1825.3 L 364.5 2101.8 Z" fill="#FFFFFF" opacity="0.206" /><path d="M 262.8 1959.6 L 2823.4 1683.1 L 2823.4 2152.7 L 262.8 2429.1 Z" fill="#FFFFFF" opacity="0.123" /><path d="M 265.4 2161.6 L 2732.8 1885.1 L 2732.8 2364.9 L 265.4 2641.4 Z" fill="#FFFFFF" opacity="0.155" /><path d="M 273.1 2446.5 L 2887.9 2170.1 L 2887.9 2650.1 L 273.1 2926.6 Z" fill="#FFFFFF" opacity="0.195" /></g>
  <g filter="url(#soft1078)"><g transform="rotate(-14.68 1536.0 1536.0)"><path d="M-368.6 531.2 C -225.8 591.1, -25.8 483.7, 107.5 538.6 C 250.4 538.5, 450.4 524.6, 583.7 497.0 C 726.5 490.9, 926.5 543.3, 1059.8 476.2 C 1202.7 496.0, 1402.7 593.3, 1536.0 488.7 C 1678.8 487.1, 1878.8 558.2, 2012.2 527.0 C 2155.0 528.3, 2355.0 533.1, 2488.3 567.8 C 2631.2 560.5, 2831.2 499.1, 2964.5 586.4 C 3107.3 605.3, 3307.3 485.8, 3440.6 571.5" fill="none" stroke="url(#ribbon1078)" stroke-width="58.4" stroke-linecap="round" stroke-opacity="0.120" /></g><g transform="rotate(-14.10 1536.0 1536.0)"><path d="M-368.6 698.1 C -241.7 709.0, -63.9 691.5, 54.6 660.3 C 181.6 669.7, 359.4 722.7, 477.9 636.1 C 604.8 629.6, 782.6 749.3, 901.1 649.6 C 1028.1 631.0, 1205.9 733.3, 1324.4 692.4 C 1451.3 692.8, 1629.1 702.7, 1747.6 738.7 C 1874.6 736.6, 2052.4 665.9, 2170.9 760.3 C 2297.9 776.1, 2475.6 628.1, 2594.1 744.2 C 2721.1 743.3, 2898.9 647.6, 3017.4 700.0 C 3144.4 700.6, 3322.1 696.2, 3440.6 654.7" fill="none" stroke="url(#ribbon1078)" stroke-width="54.4" stroke-linecap="round" stroke-opacity="0.146" /></g><g transform="rotate(-13.52 1536.0 1536.0)"><path d="M-368.6 858.2 C -254.4 833.6, -94.4 876.4, 12.3 890.9 C 126.6 889.7, 286.6 826.1, 393.2 924.9 C 507.5 948.3, 667.5 825.1, 774.1 918.4 C 888.4 939.9, 1048.4 802.4, 1155.1 875.4 C 1269.4 871.8, 1429.3 840.3, 1536.0 821.9 C 1650.3 822.7, 1810.3 872.4, 1916.9 790.4 C 2031.2 764.4, 2191.2 881.4, 2297.9 800.0 C 2412.1 806.4, 2572.1 917.4, 2678.8 844.9 C 2793.1 849.9, 2953.1 864.3, 3059.7 897.8 C 3174.0 907.1, 3334.0 833.5, 3440.6 926.7" fill="none" stroke="url(#ribbon1078)" stroke-width="50.4" stroke-linecap="round" stroke-opacity="0.172" /></g><g transform="rotate(-12.94 1536.0 1536.0)"><path d="M-368.6 1155.2 C -264.8 1118.8, -119.3 1202.9, -22.3 1172.7 C 81.5 1167.9, 227.0 1149.7, 324.0 1220.8 C 427.8 1215.0, 573.3 1081.7, 670.3 1229.1 C 774.1 1213.3, 919.6 1095.0, 1016.6 1192.5 C 1120.4 1179.1, 1265.9 1131.7, 1362.9 1133.3 C 1466.7 1129.1, 1612.2 1180.0, 1709.1 1087.3 C 1813.0 1096.4, 1958.5 1218.1, 2055.4 1082.5 C 2159.3 1075.1, 2304.8 1209.3, 2401.7 1121.8 C 2505.6 1122.7, 2651.1 1183.0, 2748.0 1181.3 C 2851.9 1178.0, 2997.4 1146.7, 3094.3 1224.9 C 3198.2 1221.4, 3343.7 1079.5, 3440.6 1226.3" fill="none" stroke="url(#ribbon1078)" stroke-width="46.4" stroke-linecap="round" stroke-opacity="0.198" /></g><g transform="rotate(-12.36 1536.0 1536.0)"><path d="M-368.6 1315.8 C -273.4 1355.1, -140.1 1286.8, -51.2 1395.6 C 44.0 1375.9, 177.4 1244.3, 266.2 1389.2 C 361.5 1374.4, 494.8 1259.9, 583.7 1338.4 C 678.9 1330.6, 812.2 1300.2, 901.1 1273.8 C 996.4 1270.1, 1129.7 1341.5, 1218.6 1234.7 C 1313.8 1255.5, 1447.1 1397.7, 1536.0 1244.8 C 1631.2 1254.7, 1764.6 1363.7, 1853.4 1298.0 C 1948.7 1291.3, 2082.0 1333.8, 2170.9 1362.0 C 2266.1 1379.1, 2399.4 1275.4, 2488.3 1397.9 C 2583.6 1413.4, 2716.9 1229.5, 2805.8 1384.1 C 2901.0 1403.6, 3034.3 1237.8, 3123.2 1328.8 C 3218.4 1332.5, 3351.8 1307.6, 3440.6 1265.7" fill="none" stroke="url(#ribbon1078)" stroke-width="42.4" stroke-linecap="round" stroke-opacity="0.224" /></g><g transform="rotate(-11.78 1536.0 1536.0)"><path d="M-368.6 1548.9 C -225.8 1557.3, -25.8 1544.9, 107.5 1490.3 C 250.4 1487.3, 450.4 1613.5, 583.7 1458.5 C 726.5 1467.0, 926.5 1650.0, 1059.8 1481.5 C 1202.7 1487.6, 1402.7 1608.9, 1536.0 1545.4 C 1678.8 1545.2, 1878.8 1550.3, 2012.2 1611.4 C 2155.0 1633.2, 2355.0 1499.1, 2488.3 1639.5 C 2631.2 1603.8, 2831.2 1465.5, 2964.5 1612.6 C 3107.3 1633.8, 3307.3 1479.5, 3440.6 1547.1" fill="none" stroke="url(#ribbon1078)" stroke-width="38.4" stroke-linecap="round" stroke-opacity="0.250" /></g><g transform="rotate(-11.20 1536.0 1536.0)"><path d="M-368.6 1645.1 C -241.7 1613.7, -63.9 1667.6, 54.6 1559.5 C 181.6 1565.4, 359.4 1682.5, 477.9 1551.6 C 604.8 1571.1, 782.6 1684.0, 901.1 1600.4 C 1028.1 1601.3, 1205.9 1697.9, 1324.4 1676.3 C 1451.3 1664.6, 1629.1 1622.7, 1747.6 1733.2 C 1874.6 1751.3, 2052.4 1612.2, 2170.9 1736.7 C 2297.9 1717.5, 2475.6 1614.1, 2594.1 1684.6 C 2721.1 1683.1, 2898.9 1620.4, 3017.4 1608.5 C 3144.4 1623.0, 3322.1 1657.4, 3440.6 1554.6" fill="none" stroke="url(#ribbon1078)" stroke-width="34.4" stroke-linecap="round" stroke-opacity="0.276" /></g><g transform="rotate(-10.62 1536.0 1536.0)"><path d="M-368.6 1903.3 C -254.4 2002.3, -94.4 1848.7, 12.3 1935.1 C 126.6 1941.8, 286.6 1886.6, 393.2 1853.9 C 507.5 1842.9, 667.5 1933.7, 774.1 1802.6 C 888.4 1813.6, 1048.4 1942.9, 1155.1 1812.4 C 1269.4 1808.4, 1429.3 1949.0, 1536.0 1877.3 C 1650.3 1884.0, 1810.3 1927.5, 1916.9 1958.0 C 2031.2 1938.0, 2191.2 1857.7, 2297.9 2005.5 C 2412.1 2034.7, 2572.1 1792.0, 2678.8 1991.0 C 2793.1 1981.8, 2953.1 1860.8, 3059.7 1923.3 C 3174.0 1930.5, 3334.0 1885.5, 3440.6 1843.5" fill="none" stroke="url(#ribbon1078)" stroke-width="30.4" stroke-linecap="round" stroke-opacity="0.302" /></g><g transform="rotate(-10.04 1536.0 1536.0)"><path d="M-368.6 2033.0 C -264.8 1994.5, -119.3 2061.0, -22.3 1935.5 C 81.5 1930.2, 227.0 2101.8, 324.0 1925.8 C 427.8 1887.1, 573.3 2147.5, 670.3 1981.1 C 774.1 1971.4, 919.6 2093.3, 1016.6 2067.9 C 1120.4 2058.8, 1265.9 2007.5, 1362.9 2133.5 C 1466.7 2164.5, 1612.2 1946.7, 1709.1 2138.1 C 1813.0 2150.3, 1958.5 1962.8, 2055.4 2078.9 C 2159.3 2061.2, 2304.8 2016.7, 2401.7 1991.9 C 2505.6 2001.7, 2651.1 2045.4, 2748.0 1929.7 C 2851.9 1938.6, 2997.4 2118.5, 3094.3 1930.2 C 3198.2 1901.3, 3343.7 2142.1, 3440.6 1993.0" fill="none" stroke="url(#ribbon1078)" stroke-width="26.4" stroke-linecap="round" stroke-opacity="0.328" /></g><g transform="rotate(-9.46 1536.0 1536.0)"><path d="M-368.6 2237.0 C -273.4 2270.9, -140.1 2210.5, -51.2 2341.8 C 44.0 2377.8, 177.4 2182.0, 266.2 2350.3 C 361.5 2336.3, 494.8 2124.8, 583.7 2290.1 C 678.9 2268.8, 812.2 2187.7, 901.1 2197.6 C 996.4 2200.6, 1129.7 2262.9, 1218.6 2129.1 C 1313.8 2097.1, 1447.1 2309.3, 1536.0 2126.0 C 1631.2 2148.3, 1764.6 2274.5, 1853.4 2190.3 C 1948.7 2188.0, 2082.0 2253.1, 2170.9 2282.9 C 2266.1 2272.9, 2399.4 2185.2, 2488.3 2347.6 C 2583.6 2320.7, 2716.9 2132.1, 2805.8 2345.3 C 2901.0 2323.5, 3034.3 2147.4, 3123.2 2277.3 C 3218.4 2268.6, 3351.8 2221.9, 3440.6 2184.8" fill="none" stroke="url(#ribbon1078)" stroke-width="22.4" stroke-linecap="round" stroke-opacity="0.354" /></g><g transform="rotate(-8.88 1536.0 1536.0)"><path d="M-368.6 2401.4 C -225.8 2311.6, -25.8 2463.8, 107.5 2277.8 C 250.4 2266.1, 450.4 2514.7, 583.7 2298.1 C 726.5 2302.3, 926.5 2482.3, 1059.8 2381.1 C 1202.7 2378.4, 1402.7 2411.6, 1536.0 2476.5 C 1678.8 2480.7, 1878.8 2334.1, 2012.2 2526.3 C 2155.0 2482.4, 2355.0 2264.4, 2488.3 2500.4 C 2631.2 2495.6, 2831.2 2306.8, 2964.5 2414.4 C 3107.3 2416.5, 3307.3 2386.7, 3440.6 2320.6" fill="none" stroke="url(#ribbon1078)" stroke-width="18.4" stroke-linecap="round" stroke-opacity="0.380" /></g><g transform="rotate(-8.30 1536.0 1536.0)"><path d="M-368.6 2667.5 C -241.7 2758.9, -63.9 2593.4, 54.6 2799.5 C 181.6 2759.0, 359.4 2570.0, 477.9 2748.0 C 604.8 2735.4, 782.6 2599.6, 901.1 2647.6 C 1028.1 2648.5, 1205.9 2687.2, 1324.4 2559.3 C 1451.3 2531.8, 1629.1 2740.4, 1747.6 2536.6 C 1874.6 2555.5, 2052.4 2718.9, 2170.9 2593.3 C 2297.9 2571.8, 2475.6 2755.2, 2594.1 2695.0 C 2721.1 2684.6, 2898.9 2641.9, 3017.4 2780.0 C 3144.4 2787.6, 3322.1 2626.4, 3440.6 2796.8" fill="none" stroke="url(#ribbon1078)" stroke-width="14.4" stroke-linecap="round" stroke-opacity="0.406" /></g></g>
  <g><ellipse cx="1536.0" cy="1551.9" rx="728.6" ry="605.7" fill="url(#extrude1078)" opacity="0.220" /><ellipse cx="1536.0" cy="1567.7" rx="736.0" ry="610.9" fill="url(#extrude1078)" opacity="0.205" /><ellipse cx="1536.0" cy="1583.6" rx="743.4" ry="616.1" fill="url(#extrude1078)" opacity="0.190" /><ellipse cx="1536.0" cy="1599.5" rx="750.9" ry="621.3" fill="url(#extrude1078)" opacity="0.175" /><ellipse cx="1536.0" cy="1615.4" rx="758.3" ry="626.5" fill="url(#extrude1078)" opacity="0.160" /><ellipse cx="1536.0" cy="1631.2" rx="765.7" ry="631.7" fill="url(#extrude1078)" opacity="0.145" /><ellipse cx="1536.0" cy="1647.1" rx="773.2" ry="636.9" fill="url(#extrude1078)" opacity="0.130" /><ellipse cx="1536.0" cy="1663.0" rx="780.6" ry="642.1" fill="url(#extrude1078)" opacity="0.115" /><ellipse cx="1536.0" cy="1678.8" rx="788.0" ry="647.4" fill="url(#extrude1078)" opacity="0.100" /><ellipse cx="1536.0" cy="1694.7" rx="795.5" ry="652.6" fill="url(#extrude1078)" opacity="0.085" /><ellipse cx="1536.0" cy="1710.6" rx="802.9" ry="657.8" fill="url(#extrude1078)" opacity="0.070" /><ellipse cx="1536.0" cy="1726.5" rx="810.3" ry="663.0" fill="url(#extrude1078)" opacity="0.055" /></g>
  <ellipse cx="1536.0" cy="1726.5" rx="773.2" ry="214.9" fill="#0B1D2D" opacity="0.24" />
  <ellipse cx="1536.0" cy="1536.0" rx="743.4" ry="651.3" fill="url(#orb1078)" stroke="#FFFFFF" stroke-opacity="0.42" stroke-width="7" />
  <ellipse cx="1431.9" cy="1392.7" rx="505.5" ry="299.6" fill="#FFFFFF" opacity="0.25" />
  <path d="M 199.4 399.4 C 1013.8 -30.7, 2058.2 768.0, 2872.6 215.0 L 2872.6 983.0 C 2089.0 1228.8, 1013.8 307.2, 199.4 1167.4 Z" fill="url(#glass1078)" />
  <rect x="270" y="270" width="2532" height="2532" rx="430" fill="none" stroke="#FFFFFF" stroke-opacity="0.30" stroke-width="5" />
  <rect x="288.4" y="288.4" width="2495.1" height="2495.1" rx="399" fill="none" stroke="#36D1FF" stroke-opacity="0.35" stroke-width="3" />
  <g filter="url(#soft1078)"><rect x="1164" y="1183" width="48" height="2" fill="#FFFFFF" opacity="0.426" /><rect x="1187" y="1160" width="2" height="48" fill="#FFFFFF" opacity="0.426" /><rect x="322" y="2421" width="66" height="2" fill="#FFFFFF" opacity="0.417" /><rect x="354" y="2389" width="2" height="66" fill="#FFFFFF" opacity="0.417" /><rect x="2362" y="1984" width="70" height="2" fill="#FFFFFF" opacity="0.376" /><rect x="2396" y="1950" width="2" height="70" fill="#FFFFFF" opacity="0.376" /><rect x="2569" y="1187" width="84" height="2" fill="#FFFFFF" opacity="0.732" /><rect x="2610" y="1146" width="2" height="84" fill="#FFFFFF" opacity="0.732" /><rect x="2444" y="770" width="72" height="2" fill="#FFFFFF" opacity="0.768" /><rect x="2479" y="735" width="2" height="72" fill="#FFFFFF" opacity="0.768" /><rect x="1884" y="2632" width="72" height="2" fill="#FFFFFF" opacity="0.393" /><rect x="1919" y="2597" width="2" height="72" fill="#FFFFFF" opacity="0.393" /><rect x="1591" y="387" width="30" height="2" fill="#FFFFFF" opacity="0.387" /><rect x="1605" y="373" width="2" height="30" fill="#FFFFFF" opacity="0.387" /><rect x="1394" y="1291" width="58" height="2" fill="#FFFFFF" opacity="0.303" /><rect x="1422" y="1263" width="2" height="58" fill="#FFFFFF" opacity="0.303" /><rect x="1802" y="1815" width="72" height="2" fill="#FFFFFF" opacity="0.502" /><rect x="1837" y="1780" width="2" height="72" fill="#FFFFFF" opacity="0.502" /><rect x="508" y="955" width="26" height="2" fill="#FFFFFF" opacity="0.624" /><rect x="520" y="943" width="2" height="26" fill="#FFFFFF" opacity="0.624" /><rect x="2322" y="2529" width="82" height="2" fill="#FFFFFF" opacity="0.697" /><rect x="2362" y="2489" width="2" height="82" fill="#FFFFFF" opacity="0.697" /><rect x="1173" y="1142" width="56" height="2" fill="#FFFFFF" opacity="0.756" /><rect x="1200" y="1115" width="2" height="56" fill="#FFFFFF" opacity="0.756" /><rect x="490" y="2556" width="84" height="2" fill="#FFFFFF" opacity="0.514" /><rect x="531" y="2515" width="2" height="84" fill="#FFFFFF" opacity="0.514" /><rect x="2507" y="1349" width="76" height="2" fill="#FFFFFF" opacity="0.717" /><rect x="2544" y="1312" width="2" height="76" fill="#FFFFFF" opacity="0.717" /><rect x="1231" y="627" width="60" height="2" fill="#FFFFFF" opacity="0.305" /><rect x="1260" y="598" width="2" height="60" fill="#FFFFFF" opacity="0.305" /><rect x="1061" y="431" width="28" height="2" fill="#FFFFFF" opacity="0.640" /><rect x="1074" y="418" width="2" height="28" fill="#FFFFFF" opacity="0.640" /><rect x="1970" y="561" width="82" height="2" fill="#FFFFFF" opacity="0.742" /><rect x="2010" y="521" width="2" height="82" fill="#FFFFFF" opacity="0.742" /><rect x="1937" y="1165" width="30" height="2" fill="#FFFFFF" opacity="0.575" /><rect x="1951" y="1151" width="2" height="30" fill="#FFFFFF" opacity="0.575" /><rect x="1225" y="2684" width="36" height="2" fill="#FFFFFF" opacity="0.440" /><rect x="1242" y="2667" width="2" height="36" fill="#FFFFFF" opacity="0.440" /><rect x="723" y="2392" width="32" height="2" fill="#FFFFFF" opacity="0.603" /><rect x="738" y="2377" width="2" height="32" fill="#FFFFFF" opacity="0.603" /><rect x="2594" y="452" width="34" height="2" fill="#FFFFFF" opacity="0.484" /><rect x="2610" y="436" width="2" height="34" fill="#FFFFFF" opacity="0.484" /><rect x="1179" y="1376" width="74" height="2" fill="#FFFFFF" opacity="0.707" /><rect x="1215" y="1340" width="2" height="74" fill="#FFFFFF" opacity="0.707" /><rect x="2278" y="2417" width="68" height="2" fill="#FFFFFF" opacity="0.470" /><rect x="2311" y="2384" width="2" height="68" fill="#FFFFFF" opacity="0.470" /><rect x="1213" y="1369" width="44" height="2" fill="#FFFFFF" opacity="0.404" /><rect x="1234" y="1348" width="2" height="44" fill="#FFFFFF" opacity="0.404" /><rect x="2380" y="1455" width="76" height="2" fill="#FFFFFF" opacity="0.355" /><rect x="2417" y="1418" width="2" height="76" fill="#FFFFFF" opacity="0.355" /><rect x="2021" y="1698" width="30" height="2" fill="#FFFFFF" opacity="0.338" /><rect x="2035" y="1684" width="2" height="30" fill="#FFFFFF" opacity="0.338" /></g>
  <g opacity="0.52"><path d="M996 1582 C1316 1006, 1572 2158, 2148 1582" fill="none" stroke="#0C2030" stroke-width="90" /><circle cx="1188" cy="1582" r="109" fill="#0C2030" /><circle cx="1572" cy="1582" r="109" fill="#0C2030" /><circle cx="1956" cy="1582" r="109" fill="#0C2030" /></g>
  <g filter="url(#soft1078)"><path d="M960 1536 C1280 960, 1536 2112, 2112 1536" fill="none" stroke="url(#symbol1078)" stroke-width="90" /><circle cx="1152" cy="1536" r="109" fill="url(#symbol1078)" /><circle cx="1536" cy="1536" r="109" fill="url(#symbol1078)" /><circle cx="1920" cy="1536" r="109" fill="url(#symbol1078)" /></g>
  <rect x="138" y="138" width="2796" height="2796" rx="629" fill="#FFFFFF" filter="url(#grain1078)" opacity="0.18" />
</svg>
