<svg xmlns="http://www.w3.org/2000/svg" width="3072" height="3072" viewBox="0 0 3072 3072">
  <title>QuartzOS System Icon 059 - input_03</title>
  <defs><linearGradient id="bg1058" x1="0%" y1="0%" x2="100%" y2="100%"><stop offset="0%" stop-color="#3B82FF" /><stop offset="26%" stop-color="#FF6AB3" /><stop offset="56%" stop-color="#FFD84D" /><stop offset="78%" stop-color="#5E86C9" /><stop offset="100%" stop-color="#1C2435" /></linearGradient><radialGradient id="sun1058" cx="46%" cy="10%" r="88%"><stop offset="0%" stop-color="#FFFFFF" stop-opacity="0.62" /><stop offset="30%" stop-color="#53E3A6" stop-opacity="0.35" /><stop offset="100%" stop-color="#53E3A6" stop-opacity="0" /></radialGradient><linearGradient id="glass1058" x1="0%" y1="0%" x2="0%" y2="100%"><stop offset="0%" stop-color="#FFFFFF" stop-opacity="0.70" /><stop offset="46%" stop-color="#FFFFFF" stop-opacity="0.26" /><stop offset="100%" stop-color="#FFFFFF" stop-opacity="0.00" /></linearGradient><linearGradient id="ribbon1058" x1="0%" y1="0%" x2="100%" y2="0%"><stop offset="0%" stop-color="#3B82FF" stop-opacity="0.18" /><stop offset="34%" stop-color="#FF6AB3" stop-opacity="0.72" /><stop offset="66%" stop-color="#FFD84D" stop-opacity="0.72" /><stop offset="100%" stop-color="#53E3A6" stop-opacity="0.18" /></linearGradient><radialGradient id="orb1058" cx="34%" cy="27%" r="74%"><stop offset="0%" stop-color="#FFFFFF" stop-opacity="0.84" /><stop offset="30%" stop-color="#3B82FF" stop-opacity="0.52" /><stop offset="68%" stop-color="#FF6AB3" stop-opacity="0.42" /><stop offset="100%" stop-color="#FFD84D" stop-opacity="0.20" /></radialGradient><linearGradient id="extrude1058" x1="0%" y1="0%" x2="0%" y2="100%"><stop offset="0%" stop-color="#15283C" stop-opacity="0.45" /><stop offset="100%" stop-color="#08131D" stop-opacity="0.06" /></linearGradient><linearGradient id="symbol1058" x1="0%" y1="0%" x2="100%" y2="100%"><stop offset="0%" stop-color="#FFFFFF" /><stop offset="100%" stop-color="#53E3A6" /></linearGradient><filter id="shadow1058" x="-40%" y="-40%" width="180%" height="180%"><feDropShadow dx="0" dy="49" stdDeviation="86" flood-color="#06111A" flood-opacity="0.54" /></filter><filter id="soft1058" x="-40%" y="-40%" width="180%" height="180%"><feDropShadow dx="0" dy="0" stdDeviation="14" flood-color="#3B82FF" flood-opacity="0.45" /></filter><filter id="grain1058"><feTurbulence type="fractalNoise" baseFrequency="1.010" numOctaves="2" seed="1058" /><feColorMatrix type="saturate" values="0" /><feComponentTransfer><feFuncA type="table" tableValues="0 0.09" /></feComponentTransfer></filter></defs>
  <rect x="138" y="138" width="2796" height="2796" rx="629" fill="url(#bg1058)" filter="url(#shadow1058)" />
  <rect x="138" y="138" width="2796" height="2796" rx="629" fill="url(#sun1058)" />
  <g><circle cx="769" cy="1030" r="75" fill="#FFFFFF" opacity="0.067" /><circle cx="2547" cy="1602" r="139" fill="#FFFFFF" opacity="0.075" /><circle cx="2434" cy="1576" r="48" fill="#FFFFFF" opacity="0.220" /><circle cx="2324" cy="786" r="49" fill="#FFFFFF" opacity="0.176" /><circle cx="1464" cy="1598" r="70" fill="#FFFFFF" opacity="0.222" /><circle cx="579" cy="2577" r="96" fill="#FFFFFF" opacity="0.190" /><circle cx="2219" cy="2657" r="124" fill="#FFFFFF" opacity="0.122" /><circle cx="2380" cy="445" r="122" fill="#FFFFFF" opacity="0.073" /><circle cx="1760" cy="2614" r="92" fill="#FFFFFF" opacity="0.125" /><circle cx="2528" cy="835" r="108" fill="#FFFFFF" opacity="0.105" /><circle cx="1455" cy="1910" r="127" fill="#FFFFFF" opacity="0.176" /><circle cx="2485" cy="2260" r="117" fill="#FFFFFF" opacity="0.086" /><circle cx="2389" cy="2202" r="112" fill="#FFFFFF" opacity="0.122" /><circle cx="1772" cy="2702" r="70" fill="#FFFFFF" opacity="0.211" /><circle cx="912" cy="2155" r="55" fill="#FFFFFF" opacity="0.125" /><circle cx="1180" cy="1770" r="77" fill="#FFFFFF" opacity="0.201" /><circle cx="691" cy="2374" r="49" fill="#FFFFFF" opacity="0.223" /><circle cx="1465" cy="2406" r="102" fill="#FFFFFF" opacity="0.106" /><circle cx="1543" cy="2687" r="73" fill="#FFFFFF" opacity="0.126" /><circle cx="2184" cy="2560" r="64" fill="#FFFFFF" opacity="0.090" /><circle cx="2436" cy="1390" r="87" fill="#FFFFFF" opacity="0.157" /><circle cx="678" cy="794" r="132" fill="#FFFFFF" opacity="0.089" /><circle cx="2295" cy="1219" r="93" fill="#FFFFFF" opacity="0.081" /><circle cx="540" cy="1430" r="102" fill="#FFFFFF" opacity="0.063" /><circle cx="956" cy="500" r="128" fill="#FFFFFF" opacity="0.151" /><circle cx="1551" cy="2486" r="81" fill="#FFFFFF" opacity="0.134" /><circle cx="2596" cy="625" r="87" fill="#FFFFFF" opacity="0.238" /><circle cx="1434" cy="2323" r="123" fill="#FFFFFF" opacity="0.226" /></g>
  <g><path d="M 227.9 579.0 L 2821.0 302.5 L 2821.0 730.5 L 227.9 1007.0 Z" fill="#FFFFFF" opacity="0.221" /><path d="M 202.2 858.1 L 2778.8 581.7 L 2778.8 1072.1 L 202.2 1348.6 Z" fill="#FFFFFF" opacity="0.146" /><path d="M 287.9 1180.8 L 2815.2 904.4 L 2815.2 1362.0 L 287.9 1638.5 Z" fill="#FFFFFF" opacity="0.082" /><path d="M 185.3 1411.4 L 2838.8 1134.9 L 2838.8 1571.1 L 185.3 1847.6 Z" fill="#FFFFFF" opacity="0.096" /><path d="M 374.6 1704.1 L 2770.4 1427.6 L 2770.4 1873.9 L 374.6 2150.3 Z" fill="#FFFFFF" opacity="0.087" /><path d="M 296.5 1889.7 L 2681.4 1613.2 L 2681.4 2068.1 L 296.5 2344.6 Z" fill="#FFFFFF" opacity="0.158" /><path d="M 256.0 2145.8 L 2902.2 1869.3 L 2902.2 2301.5 L 256.0 2578.0 Z" fill="#FFFFFF" opacity="0.147" /><path d="M 162.5 2471.6 L 2748.3 2195.2 L 2748.3 2652.3 L 162.5 2928.8 Z" fill="#FFFFFF" opacity="0.181" /></g>
  <g filter="url(#soft1058)"><g transform="rotate(-22.18 1536.0 1536.0)"><path d="M-368.6 575.7 C -225.8 554.8, -25.8 602.0, 107.5 593.2 C 250.4 590.0, 450.4 560.7, 583.7 625.5 C 726.5 620.2, 926.5 523.4, 1059.8 627.6 C 1202.7 629.9, 1402.7 521.8, 1536.0 598.2 C 1678.8 601.5, 1878.8 550.8, 2012.2 555.2 C 2155.0 551.3, 2355.0 591.1, 2488.3 524.6 C 2631.2 542.9, 2831.2 602.7, 2964.5 525.0 C 3107.3 519.1, 3307.3 604.5, 3440.6 556.2" fill="none" stroke="url(#ribbon1058)" stroke-width="58.4" stroke-linecap="round" stroke-opacity="0.120" /></g><g transform="rotate(-21.60 1536.0 1536.0)"><path d="M-368.6 718.2 C -241.7 663.3, -63.9 763.9, 54.6 705.0 C 181.6 704.1, 359.4 726.6, 477.9 752.7 C 604.8 758.8, 782.6 687.9, 901.1 779.5 C 1028.1 774.9, 1205.9 650.0, 1324.4 769.1 C 1451.3 759.8, 1629.1 698.5, 1747.6 727.8 C 1874.6 725.6, 2052.4 713.2, 2170.9 680.7 C 2297.9 682.0, 2475.6 743.1, 2594.1 656.3 C 2721.1 663.6, 2898.9 759.6, 3017.4 669.5 C 3144.4 686.8, 3322.1 747.2, 3440.6 712.2" fill="none" stroke="url(#ribbon1058)" stroke-width="54.4" stroke-linecap="round" stroke-opacity="0.146" /></g><g transform="rotate(-21.02 1536.0 1536.0)"><path d="M-368.6 933.5 C -254.4 952.2, -94.4 926.5, 12.3 992.9 C 126.6 985.1, 286.6 904.9, 393.2 1000.6 C 507.5 992.1, 667.5 893.0, 774.1 967.5 C 888.4 975.5, 1048.4 912.7, 1155.1 913.8 C 1269.4 913.1, 1429.3 953.3, 1536.0 872.0 C 1650.3 887.7, 1810.3 959.2, 1916.9 867.5 C 2031.2 872.9, 2191.2 985.5, 2297.9 903.0 C 2412.1 914.3, 2572.1 953.9, 2678.8 956.9 C 2793.1 959.0, 2953.1 919.5, 3059.7 996.7 C 3174.0 1009.8, 3334.0 877.7, 3440.6 998.1" fill="none" stroke="url(#ribbon1058)" stroke-width="50.4" stroke-linecap="round" stroke-opacity="0.172" /></g><g transform="rotate(-20.44 1536.0 1536.0)"><path d="M-368.6 1121.0 C -264.8 1212.6, -119.3 1067.9, -22.3 1190.8 C 81.5 1215.3, 227.0 1073.6, 324.0 1147.2 C 427.8 1147.2, 573.3 1103.9, 670.3 1087.7 C 774.1 1078.7, 919.6 1139.4, 1016.6 1048.4 C 1120.4 1019.8, 1265.9 1161.1, 1362.9 1053.2 C 1466.7 1075.5, 1612.2 1158.9, 1709.1 1099.1 C 1813.0 1104.0, 1958.5 1145.6, 2055.4 1158.3 C 2159.3 1172.3, 2304.8 1106.3, 2401.7 1194.9 C 2505.6 1177.1, 2651.1 1076.6, 2748.0 1186.7 C 2851.9 1176.8, 2997.4 1085.1, 3094.3 1138.6 C 3198.2 1134.8, 3343.7 1109.2, 3440.6 1079.9" fill="none" stroke="url(#ribbon1058)" stroke-width="46.4" stroke-linecap="round" stroke-opacity="0.198" /></g><g transform="rotate(-19.86 1536.0 1536.0)"><path d="M-368.6 1249.1 C -273.4 1314.4, -140.1 1180.9, -51.2 1278.7 C 44.0 1278.1, 177.4 1214.5, 266.2 1213.6 C 361.5 1204.4, 494.8 1277.4, 583.7 1170.1 C 678.9 1140.2, 812.2 1313.3, 901.1 1174.5 C 996.4 1168.0, 1129.7 1288.9, 1218.6 1224.1 C 1313.8 1218.0, 1447.1 1276.1, 1536.0 1288.9 C 1631.2 1273.1, 1764.6 1225.0, 1853.4 1329.5 C 1948.7 1315.5, 2082.0 1171.4, 2170.9 1321.3 C 2266.1 1317.6, 2399.4 1172.4, 2488.3 1269.3 C 2583.6 1268.6, 2716.9 1231.6, 2805.8 1205.0 C 2901.0 1202.7, 3034.3 1264.4, 3123.2 1167.5 C 3218.4 1198.2, 3351.8 1323.0, 3440.6 1179.4" fill="none" stroke="url(#ribbon1058)" stroke-width="42.4" stroke-linecap="round" stroke-opacity="0.224" /></g><g transform="rotate(-19.28 1536.0 1536.0)"><path d="M-368.6 1455.9 C -225.8 1451.2, -25.8 1459.8, 107.5 1388.4 C 250.4 1388.8, 450.4 1492.5, 583.7 1365.5 C 726.5 1366.8, 926.5 1526.2, 1059.8 1397.5 C 1202.7 1385.0, 1402.7 1500.9, 1536.0 1464.9 C 1678.8 1467.6, 1878.8 1449.8, 2012.2 1526.8 C 2155.0 1534.2, 2355.0 1377.1, 2488.3 1545.8 C 2631.2 1511.1, 2831.2 1374.5, 2964.5 1510.2 C 3107.3 1524.2, 3307.3 1429.9, 3440.6 1441.7" fill="none" stroke="url(#ribbon1058)" stroke-width="38.4" stroke-linecap="round" stroke-opacity="0.250" /></g><g transform="rotate(-18.70 1536.0 1536.0)"><path d="M-368.6 1736.8 C -241.7 1719.0, -63.9 1746.0, 54.6 1657.0 C 181.6 1639.0, 359.4 1769.0, 477.9 1640.8 C 604.8 1676.9, 782.6 1832.9, 901.1 1682.8 C 1028.1 1677.2, 1205.9 1801.4, 1324.4 1757.6 C 1451.3 1760.9, 1629.1 1718.4, 1747.6 1819.8 C 1874.6 1796.2, 2052.4 1671.0, 2170.9 1831.6 C 2297.9 1804.5, 2475.6 1673.0, 2594.1 1786.0 C 2721.1 1785.6, 2898.9 1701.0, 3017.4 1710.5 C 3144.4 1713.4, 3322.1 1763.5, 3440.6 1651.0" fill="none" stroke="url(#ribbon1058)" stroke-width="34.4" stroke-linecap="round" stroke-opacity="0.276" /></g><g transform="rotate(-18.12 1536.0 1536.0)"><path d="M-368.6 1936.1 C -254.4 1884.0, -94.4 1959.8, 12.3 1967.6 C 126.6 1964.1, 286.6 1899.0, 393.2 2029.8 C 507.5 2013.2, 667.5 1825.6, 774.1 2035.1 C 888.4 2055.2, 1048.4 1855.2, 1155.1 1980.4 C 1269.4 1969.5, 1429.3 1913.0, 1536.0 1898.9 C 1650.3 1894.6, 1810.3 1949.5, 1916.9 1839.9 C 2031.2 1872.4, 2191.2 1966.1, 2297.9 1839.4 C 2412.1 1845.5, 2572.1 2048.4, 2678.8 1897.5 C 2793.1 1893.9, 2953.1 1978.8, 3059.7 1979.1 C 3174.0 1974.6, 3334.0 1899.9, 3440.6 2034.6" fill="none" stroke="url(#ribbon1058)" stroke-width="30.4" stroke-linecap="round" stroke-opacity="0.302" /></g><g transform="rotate(-17.54 1536.0 1536.0)"><path d="M-368.6 2009.6 C -264.8 1930.0, -119.3 2131.5, -22.3 1933.4 C 81.5 1929.5, 227.0 2092.4, 324.0 2015.1 C 427.8 2013.2, 573.3 2007.8, 670.3 2093.6 C 774.1 2114.5, 919.6 1938.6, 1016.6 2121.1 C 1120.4 2147.9, 1265.9 1940.5, 1362.9 2081.0 C 1466.7 2092.4, 1612.2 1948.6, 1709.1 1997.6 C 1813.0 1998.7, 1958.5 2016.1, 2055.4 1921.5 C 2159.3 1889.6, 2304.8 2043.4, 2401.7 1898.9 C 2505.6 1911.4, 2651.1 2142.2, 2748.0 1943.4 C 2851.9 1930.7, 2997.4 2065.6, 3094.3 2028.1 C 3198.2 2031.3, 3343.7 2003.2, 3440.6 2101.6" fill="none" stroke="url(#ribbon1058)" stroke-width="26.4" stroke-linecap="round" stroke-opacity="0.328" /></g><g transform="rotate(-16.96 1536.0 1536.0)"><path d="M-368.6 2214.9 C -273.4 2246.0, -140.1 2189.0, -51.2 2146.8 C 44.0 2127.2, 177.4 2282.6, 266.2 2097.6 C 361.5 2109.0, 494.8 2255.3, 583.7 2119.6 C 678.9 2084.7, 812.2 2280.3, 901.1 2199.4 C 996.4 2205.1, 1129.7 2225.9, 1218.6 2288.7 C 1313.8 2283.8, 1447.1 2128.8, 1536.0 2333.2 C 1631.2 2360.4, 1764.6 2149.0, 1853.4 2306.0 C 1948.7 2298.5, 2082.0 2118.9, 2170.9 2223.5 C 2266.1 2225.8, 2399.4 2205.8, 2488.3 2135.9 C 2583.6 2166.8, 2716.9 2274.2, 2805.8 2096.1 C 2901.0 2107.0, 3034.3 2286.0, 3123.2 2128.5 C 3218.4 2099.9, 3351.8 2284.9, 3440.6 2213.2" fill="none" stroke="url(#ribbon1058)" stroke-width="22.4" stroke-linecap="round" stroke-opacity="0.354" /></g><g transform="rotate(-16.38 1536.0 1536.0)"><path d="M-368.6 2421.7 C -225.8 2573.3, -25.8 2304.9, 107.5 2481.8 C 250.4 2476.2, 450.4 2352.5, 583.7 2384.1 C 726.5 2387.9, 926.5 2444.9, 1059.8 2309.3 C 1202.7 2266.8, 1402.7 2550.6, 1536.0 2302.6 C 1678.8 2326.6, 1878.8 2537.7, 2012.2 2368.2 C 2155.0 2376.2, 2355.0 2453.2, 2488.3 2466.2 C 2631.2 2452.1, 2831.2 2378.1, 2964.5 2537.2 C 3107.3 2498.2, 3307.3 2315.2, 3440.6 2538.2" fill="none" stroke="url(#ribbon1058)" stroke-width="18.4" stroke-linecap="round" stroke-opacity="0.380" /></g><g transform="rotate(-15.80 1536.0 1536.0)"><path d="M-368.6 2709.0 C -241.7 2737.7, -63.9 2675.1, 54.6 2823.5 C 181.6 2800.6, 359.4 2660.9, 477.9 2837.3 C 604.8 2854.1, 782.6 2608.1, 901.1 2773.3 C 1028.1 2755.4, 1205.9 2671.1, 1324.4 2670.3 C 1451.3 2662.5, 1629.1 2742.2, 1747.6 2590.7 C 1874.6 2590.8, 2052.4 2823.0, 2170.9 2582.9 C 2297.9 2544.1, 2475.6 2799.8, 2594.1 2651.6 C 2721.1 2670.6, 2898.9 2745.5, 3017.4 2755.1 C 3144.4 2748.8, 3322.1 2691.7, 3440.6 2830.6" fill="none" stroke="url(#ribbon1058)" stroke-width="14.4" stroke-linecap="round" stroke-opacity="0.406" /></g></g>
  <g><ellipse cx="1536.0" cy="1551.9" rx="728.6" ry="605.7" fill="url(#extrude1058)" opacity="0.220" /><ellipse cx="1536.0" cy="1567.7" rx="736.0" ry="610.9" fill="url(#extrude1058)" opacity="0.205" /><ellipse cx="1536.0" cy="1583.6" rx="743.4" ry="616.1" fill="url(#extrude1058)" opacity="0.190" /><ellipse cx="1536.0" cy="1599.5" rx="750.9" ry="621.3" fill="url(#extrude1058)" opacity="0.175" /><ellipse cx="1536.0" cy="1615.4" rx="758.3" ry="626.5" fill="url(#extrude1058)" opacity="0.160" /><ellipse cx="1536.0" cy="1631.2" rx="765.7" ry="631.7" fill="url(#extrude1058)" opacity="0.145" /><ellipse cx="1536.0" cy="1647.1" rx="773.2" ry="636.9" fill="url(#extrude1058)" opacity="0.130" /><ellipse cx="1536.0" cy="1663.0" rx="780.6" ry="642.1" fill="url(#extrude1058)" opacity="0.115" /><ellipse cx="1536.0" cy="1678.8" rx="788.0" ry="647.4" fill="url(#extrude1058)" opacity="0.100" /><ellipse cx="1536.0" cy="1694.7" rx="795.5" ry="652.6" fill="url(#extrude1058)" opacity="0.085" /><ellipse cx="1536.0" cy="1710.6" rx="802.9" ry="657.8" fill="url(#extrude1058)" opacity="0.070" /><ellipse cx="1536.0" cy="1726.5" rx="810.3" ry="663.0" fill="url(#extrude1058)" opacity="0.055" /></g>
  <ellipse cx="1536.0" cy="1726.5" rx="773.2" ry="214.9" fill="#0B1D2D" opacity="0.24" />
  <ellipse cx="1536.0" cy="1536.0" rx="743.4" ry="651.3" fill="url(#orb1058)" stroke="#FFFFFF" stroke-opacity="0.42" stroke-width="7" />
  <ellipse cx="1431.9" cy="1392.7" rx="505.5" ry="299.6" fill="#FFFFFF" opacity="0.25" />
  <path d="M 199.4 399.4 C 1013.8 -30.7, 2058.2 768.0, 2872.6 215.0 L 2872.6 983.0 C 2089.0 1228.8, 1013.8 307.2, 199.4 1167.4 Z" fill="url(#glass1058)" />
  <rect x="270" y="270" width="2532" height="2532" rx="430" fill="none" stroke="#FFFFFF" stroke-opacity="0.30" stroke-width="5" />
  <rect x="288.4" y="288.4" width="2495.1" height="2495.1" rx="399" fill="none" stroke="#3B82FF" stroke-opacity="0.35" stroke-width="3" />
  <g filter="url(#soft1058)"><rect x="472" y="2311" width="58" height="2" fill="#FFFFFF" opacity="0.788" /><rect x="500" y="2283" width="2" height="58" fill="#FFFFFF" opacity="0.788" /><rect x="540" y="2614" width="72" height="2" fill="#FFFFFF" opacity="0.739" /><rect x="575" y="2579" width="2" height="72" fill="#FFFFFF" opacity="0.739" /><rect x="462" y="2330" width="66" height="2" fill="#FFFFFF" opacity="0.670" /><rect x="494" y="2298" width="2" height="66" fill="#FFFFFF" opacity="0.670" /><rect x="2337" y="2021" width="28" height="2" fill="#FFFFFF" opacity="0.486" /><rect x="2350" y="2008" width="2" height="28" fill="#FFFFFF" opacity="0.486" /><rect x="477" y="1896" width="60" height="2" fill="#FFFFFF" opacity="0.704" /><rect x="506" y="1867" width="2" height="60" fill="#FFFFFF" opacity="0.704" /><rect x="1804" y="1053" width="74" height="2" fill="#FFFFFF" opacity="0.822" /><rect x="1840" y="1017" width="2" height="74" fill="#FFFFFF" opacity="0.822" /><rect x="605" y="2664" width="34" height="2" fill="#FFFFFF" opacity="0.385" /><rect x="621" y="2648" width="2" height="34" fill="#FFFFFF" opacity="0.385" /><rect x="1703" y="1530" width="66" height="2" fill="#FFFFFF" opacity="0.687" /><rect x="1735" y="1498" width="2" height="66" fill="#FFFFFF" opacity="0.687" /><rect x="2670" y="1598" width="66" height="2" fill="#FFFFFF" opacity="0.798" /><rect x="2702" y="1566" width="2" height="66" fill="#FFFFFF" opacity="0.798" /><rect x="1753" y="801" width="46" height="2" fill="#FFFFFF" opacity="0.439" /><rect x="1775" y="779" width="2" height="46" fill="#FFFFFF" opacity="0.439" /><rect x="1726" y="2160" width="54" height="2" fill="#FFFFFF" opacity="0.359" /><rect x="1752" y="2134" width="2" height="54" fill="#FFFFFF" opacity="0.359" /><rect x="2448" y="2376" width="46" height="2" fill="#FFFFFF" opacity="0.363" /><rect x="2470" y="2354" width="2" height="46" fill="#FFFFFF" opacity="0.363" /><rect x="713" y="453" width="62" height="2" fill="#FFFFFF" opacity="0.773" /><rect x="743" y="423" width="2" height="62" fill="#FFFFFF" opacity="0.773" /><rect x="2015" y="1528" width="78" height="2" fill="#FFFFFF" opacity="0.596" /><rect x="2053" y="1490" width="2" height="78" fill="#FFFFFF" opacity="0.596" /><rect x="1018" y="1765" width="28" height="2" fill="#FFFFFF" opacity="0.652" /><rect x="1031" y="1752" width="2" height="28" fill="#FFFFFF" opacity="0.652" /><rect x="1771" y="1278" width="28" height="2" fill="#FFFFFF" opacity="0.813" /><rect x="1784" y="1265" width="2" height="28" fill="#FFFFFF" opacity="0.813" /><rect x="1086" y="1987" width="80" height="2" fill="#FFFFFF" opacity="0.438" /><rect x="1125" y="1948" width="2" height="80" fill="#FFFFFF" opacity="0.438" /><rect x="1928" y="824" width="58" height="2" fill="#FFFFFF" opacity="0.765" /><rect x="1956" y="796" width="2" height="58" fill="#FFFFFF" opacity="0.765" /><rect x="1257" y="1955" width="46" height="2" fill="#FFFFFF" opacity="0.488" /><rect x="1279" y="1933" width="2" height="46" fill="#FFFFFF" opacity="0.488" /><rect x="1189" y="1769" width="48" height="2" fill="#FFFFFF" opacity="0.585" /><rect x="1212" y="1746" width="2" height="48" fill="#FFFFFF" opacity="0.585" /><rect x="1282" y="1777" width="52" height="2" fill="#FFFFFF" opacity="0.569" /><rect x="1307" y="1752" width="2" height="52" fill="#FFFFFF" opacity="0.569" /><rect x="1669" y="1906" width="34" height="2" fill="#FFFFFF" opacity="0.846" /><rect x="1685" y="1890" width="2" height="34" fill="#FFFFFF" opacity="0.846" /><rect x="1680" y="375" width="70" height="2" fill="#FFFFFF" opacity="0.762" /><rect x="1714" y="341" width="2" height="70" fill="#FFFFFF" opacity="0.762" /><rect x="2310" y="1756" width="54" height="2" fill="#FFFFFF" opacity="0.732" /><rect x="2336" y="1730" width="2" height="54" fill="#FFFFFF" opacity="0.732" /><rect x="541" y="2725" width="58" height="2" fill="#FFFFFF" opacity="0.472" /><rect x="569" y="2697" width="2" height="58" fill="#FFFFFF" opacity="0.472" /><rect x="591" y="1188" width="74" height="2" fill="#FFFFFF" opacity="0.371" /><rect x="627" y="1152" width="2" height="74" fill="#FFFFFF" opacity="0.371" /></g>
  <g opacity="0.52"><path d="M996 1582 L1316 2131 L2148 1121" fill="none" stroke="#0C2030" stroke-width="90" stroke-linecap="round" stroke-linejoin="round" /><circle cx="996" cy="1582" r="47" fill="#0C2030" /><circle cx="1316" cy="2131" r="47" fill="#0C2030" /><circle cx="2148" cy="1121" r="47" fill="#0C2030" /></g>
  <g filter="url(#soft1058)"><path d="M960 1536 L1280 2085 L2112 1075" fill="none" stroke="url(#symbol1058)" stroke-width="90" stroke-linecap="round" stroke-linejoin="round" /><circle cx="960" cy="1536" r="47" fill="url(#symbol1058)" /><circle cx="1280" cy="2085" r="47" fill="url(#symbol1058)" /><circle cx="2112" cy="1075" r="47" fill="url(#symbol1058)" /></g>
  <rect x="138" y="138" width="2796" height="2796" rx="629" fill="#FFFFFF" filter="url(#grain1058)" opacity="0.18" />
</svg>
