<svg xmlns="http://www.w3.org/2000/svg" width="3072" height="3072" viewBox="0 0 3072 3072">
  <title>QuartzOS System Icon 099 - input_05</title>
  <defs><linearGradient id="bg1098" x1="0%" y1="0%" x2="100%" y2="100%"><stop offset="0%" stop-color="#53E3A6" /><stop offset="26%" stop-color="#3B82FF" /><stop offset="56%" stop-color="#FF6AB3" /><stop offset="78%" stop-color="#4B91A3" /><stop offset="100%" stop-color="#1A2630" /></linearGradient><radialGradient id="sun1098" cx="47%" cy="9%" r="88%"><stop offset="0%" stop-color="#FFFFFF" stop-opacity="0.62" /><stop offset="30%" stop-color="#FF9F43" stop-opacity="0.35" /><stop offset="100%" stop-color="#FF9F43" stop-opacity="0" /></radialGradient><linearGradient id="glass1098" x1="0%" y1="0%" x2="0%" y2="100%"><stop offset="0%" stop-color="#FFFFFF" stop-opacity="0.70" /><stop offset="46%" stop-color="#FFFFFF" stop-opacity="0.26" /><stop offset="100%" stop-color="#FFFFFF" stop-opacity="0.00" /></linearGradient><linearGradient id="ribbon1098" x1="0%" y1="0%" x2="100%" y2="0%"><stop offset="0%" stop-color="#53E3A6" stop-opacity="0.18" /><stop offset="34%" stop-color="#3B82FF" stop-opacity="0.72" /><stop offset="66%" stop-color="#FF6AB3" stop-opacity="0.72" /><stop offset="100%" stop-color="#FF9F43" stop-opacity="0.18" /></linearGradient><radialGradient id="orb1098" cx="34%" cy="27%" r="74%"><stop offset="0%" stop-color="#FFFFFF" stop-opacity="0.84" /><stop offset="30%" stop-color="#53E3A6" stop-opacity="0.52" /><stop offset="68%" stop-color="#3B82FF" stop-opacity="0.42" /><stop offset="100%" stop-color="#FF6AB3" stop-opacity="0.20" /></radialGradient><linearGradient id="extrude1098" x1="0%" y1="0%" x2="0%" y2="100%"><stop offset="0%" stop-color="#15283C" stop-opacity="0.45" /><stop offset="100%" stop-color="#08131D" stop-opacity="0.06" /></linearGradient><linearGradient id="symbol1098" x1="0%" y1="0%" x2="100%" y2="100%"><stop offset="0%" stop-color="#FFFFFF" /><stop offset="100%" stop-color="#FF9F43" /></linearGradient><filter id="shadow1098" x="-40%" y="-40%" width="180%" height="180%"><feDropShadow dx="0" dy="49" stdDeviation="86" flood-color="#06111A" flood-opacity="0.54" /></filter><filter id="soft1098" x="-40%" y="-40%" width="180%" height="180%"><feDropShadow dx="0" dy="0" stdDeviation="14" flood-color="#53E3A6" flood-opacity="0.45" /></filter><filter id="grain1098"><feTurbulence type="fractalNoise" baseFrequency="0.667" numOctaves="2" seed="1098" /><feColorMatrix type="saturate" values="0" /><feComponentTransfer><feFuncA type="table" tableValues="0 0.09" /></feComponentTransfer></filter></defs>
  <rect x="138" y="138" width="2796" height="2796" rx="629" fill="url(#bg1098)" filter="url(#shadow1098)" />
  <rect x="138" y="138" width="2796" height="2796" rx="629" fill="url(#sun1098)" />
  <g><circle cx="1371" cy="2585" r="50" fill="#FFFFFF" opacity="0.234" /><circle cx="1664" cy="1043" r="146" fill="#FFFFFF" opacity="0.062" /><circle cx="714" cy="1489" r="141" fill="#FFFFFF" opacity="0.236" /><circle cx="2362" cy="1930" r="90" fill="#FFFFFF" opacity="0.225" /><circle cx="1549" cy="1157" r="135" fill="#FFFFFF" opacity="0.219" /><circle cx="1303" cy="974" r="81" fill="#FFFFFF" opacity="0.143" /><circle cx="1057" cy="901" r="41" fill="#FFFFFF" opacity="0.069" /><circle cx="1565" cy="2294" r="44" fill="#FFFFFF" opacity="0.068" /><circle cx="2231" cy="1125" r="133" fill="#FFFFFF" opacity="0.137" /><circle cx="2280" cy="1937" r="143" fill="#FFFFFF" opacity="0.149" /><circle cx="1404" cy="2260" r="117" fill="#FFFFFF" opacity="0.164" /><circle cx="831" cy="372" r="136" fill="#FFFFFF" opacity="0.072" /><circle cx="1606" cy="857" r="86" fill="#FFFFFF" opacity="0.079" /><circle cx="2194" cy="2547" r="153" fill="#FFFFFF" opacity="0.190" /><circle cx="383" cy="2002" r="75" fill="#FFFFFF" opacity="0.118" /><circle cx="409" cy="728" r="68" fill="#FFFFFF" opacity="0.192" /><circle cx="1112" cy="2532" r="53" fill="#FFFFFF" opacity="0.110" /><circle cx="2226" cy="2419" r="47" fill="#FFFFFF" opacity="0.166" /><circle cx="1112" cy="2547" r="105" fill="#FFFFFF" opacity="0.072" /><circle cx="1863" cy="317" r="58" fill="#FFFFFF" opacity="0.103" /><circle cx="914" cy="2106" r="66" fill="#FFFFFF" opacity="0.143" /><circle cx="2609" cy="1726" r="68" fill="#FFFFFF" opacity="0.173" /><circle cx="2005" cy="2261" r="93" fill="#FFFFFF" opacity="0.220" /><circle cx="1213" cy="2414" r="56" fill="#FFFFFF" opacity="0.160" /><circle cx="2382" cy="847" r="69" fill="#FFFFFF" opacity="0.177" /><circle cx="441" cy="746" r="101" fill="#FFFFFF" opacity="0.208" /><circle cx="1589" cy="2203" r="60" fill="#FFFFFF" opacity="0.154" /><circle cx="757" cy="1790" r="51" fill="#FFFFFF" opacity="0.191" /></g>
  <g><path d="M 370.5 602.5 L 2831.9 326.0 L 2831.9 793.3 L 370.5 1069.8 Z" fill="#FFFFFF" opacity="0.158" /><path d="M 291.8 887.1 L 2893.0 610.7 L 2893.0 1049.4 L 291.8 1325.9 Z" fill="#FFFFFF" opacity="0.118" /><path d="M 299.3 1143.2 L 2873.2 866.7 L 2873.2 1308.7 L 299.3 1585.2 Z" fill="#FFFFFF" opacity="0.226" /><path d="M 286.4 1371.5 L 2728.0 1095.0 L 2728.0 1526.1 L 286.4 1802.6 Z" fill="#FFFFFF" opacity="0.119" /><path d="M 285.2 1666.7 L 2759.6 1390.3 L 2759.6 1851.3 L 285.2 2127.8 Z" fill="#FFFFFF" opacity="0.172" /><path d="M 297.9 1899.5 L 2704.8 1623.0 L 2704.8 2103.1 L 297.9 2379.6 Z" fill="#FFFFFF" opacity="0.094" /><path d="M 187.1 2214.2 L 2915.4 1937.7 L 2915.4 2367.1 L 187.1 2643.6 Z" fill="#FFFFFF" opacity="0.199" /><path d="M 253.0 2471.3 L 2707.0 2194.9 L 2707.0 2643.9 L 253.0 2920.4 Z" fill="#FFFFFF" opacity="0.234" /></g>
  <g filter="url(#soft1098)"><g transform="rotate(-17.21 1536.0 1536.0)"><path d="M-368.6 533.7 C -225.8 571.1, -25.8 502.6, 107.5 589.0 C 250.4 567.4, 450.4 501.1, 583.7 572.1 C 726.5 579.7, 926.5 493.3, 1059.8 531.9 C 1202.7 532.2, 1402.7 535.4, 1536.0 492.8 C 1678.8 498.0, 1878.8 547.2, 2012.2 478.5 C 2155.0 469.8, 2355.0 587.5, 2488.3 497.6 C 2631.2 485.2, 2831.2 568.7, 2964.5 538.7 C 3107.3 537.6, 3307.3 531.1, 3440.6 576.6" fill="none" stroke="url(#ribbon1098)" stroke-width="58.4" stroke-linecap="round" stroke-opacity="0.120" /></g><g transform="rotate(-16.63 1536.0 1536.0)"><path d="M-368.6 660.9 C -241.7 662.4, -63.9 660.3, 54.6 617.0 C 181.6 617.5, 359.4 685.5, 477.9 598.6 C 604.8 605.6, 782.6 718.2, 901.1 617.9 C 1028.1 605.2, 1205.9 688.4, 1324.4 663.4 C 1451.3 664.0, 1629.1 659.6, 1747.6 707.3 C 1874.6 697.9, 2052.4 632.6, 2170.9 723.1 C 2297.9 720.8, 2475.6 586.8, 2594.1 701.2 C 2721.1 699.3, 2898.9 614.3, 3017.4 654.8 C 3144.4 653.5, 3322.1 667.2, 3440.6 612.1" fill="none" stroke="url(#ribbon1098)" stroke-width="54.4" stroke-linecap="round" stroke-opacity="0.146" /></g><g transform="rotate(-16.05 1536.0 1536.0)"><path d="M-368.6 912.1 C -254.4 963.4, -94.4 851.7, 12.3 930.3 C 126.6 934.7, 286.6 898.9, 393.2 876.7 C 507.5 863.4, 667.5 929.3, 774.1 844.6 C 888.4 817.6, 1048.4 938.3, 1155.1 853.4 C 1269.4 854.7, 1429.3 976.3, 1536.0 897.8 C 1650.3 895.7, 1810.3 920.9, 1916.9 950.9 C 2031.2 949.5, 2191.2 871.0, 2297.9 980.4 C 2412.1 1006.4, 2572.1 835.8, 2678.8 968.5 C 2793.1 986.4, 2953.1 873.0, 3059.7 922.4 C 3174.0 919.8, 3334.0 905.1, 3440.6 870.0" fill="none" stroke="url(#ribbon1098)" stroke-width="50.4" stroke-linecap="round" stroke-opacity="0.172" /></g><g transform="rotate(-15.47 1536.0 1536.0)"><path d="M-368.6 1075.3 C -264.8 1022.3, -119.3 1104.0, -22.3 1094.0 C 81.5 1091.7, 227.0 1062.4, 324.0 1141.6 C 427.8 1150.1, 573.3 1040.4, 670.3 1148.9 C 774.1 1153.1, 919.6 1021.0, 1016.6 1111.6 C 1120.4 1103.7, 1265.9 1032.0, 1362.9 1052.3 C 1466.7 1049.8, 1612.2 1101.4, 1709.1 1007.0 C 1813.0 1031.6, 1958.5 1126.7, 2055.4 1003.1 C 2159.3 1004.9, 2304.8 1113.1, 2401.7 1043.0 C 2505.6 1040.9, 2651.1 1097.6, 2748.0 1102.5 C 2851.9 1107.6, 2997.4 1048.6, 3094.3 1145.6 C 3198.2 1139.1, 3343.7 1029.4, 3440.6 1146.0" fill="none" stroke="url(#ribbon1098)" stroke-width="46.4" stroke-linecap="round" stroke-opacity="0.198" /></g><g transform="rotate(-14.89 1536.0 1536.0)"><path d="M-368.6 1333.1 C -273.4 1266.9, -140.1 1405.6, -51.2 1273.4 C 44.0 1270.4, 177.4 1397.1, 266.2 1333.4 C 361.5 1333.5, 494.8 1332.9, 583.7 1393.2 C 678.9 1399.1, 812.2 1302.6, 901.1 1416.6 C 996.4 1444.7, 1129.7 1260.7, 1218.6 1389.3 C 1313.8 1400.1, 1447.1 1310.6, 1536.0 1327.9 C 1631.2 1328.7, 1764.6 1338.2, 1853.4 1269.6 C 1948.7 1266.2, 2082.0 1354.3, 2170.9 1249.9 C 2266.1 1224.6, 2399.4 1359.3, 2488.3 1280.6 C 2583.6 1299.8, 2716.9 1385.4, 2805.8 1343.1 C 2901.0 1340.0, 3034.3 1327.8, 3123.2 1399.6 C 3218.4 1425.1, 3351.8 1279.4, 3440.6 1415.7" fill="none" stroke="url(#ribbon1098)" stroke-width="42.4" stroke-linecap="round" stroke-opacity="0.224" /></g><g transform="rotate(-14.31 1536.0 1536.0)"><path d="M-368.6 1470.5 C -225.8 1562.5, -25.8 1414.3, 107.5 1492.4 C 250.4 1494.7, 450.4 1450.4, 583.7 1422.7 C 726.5 1407.9, 926.5 1517.4, 1059.8 1381.9 C 1202.7 1402.2, 1402.7 1540.3, 1536.0 1394.9 C 1678.8 1388.4, 1878.8 1541.4, 2012.2 1453.8 C 2155.0 1459.9, 2355.0 1487.6, 2488.3 1522.7 C 2631.2 1533.8, 2831.2 1444.6, 2964.5 1560.0 C 3107.3 1534.0, 3307.3 1398.1, 3440.6 1543.0" fill="none" stroke="url(#ribbon1098)" stroke-width="38.4" stroke-linecap="round" stroke-opacity="0.250" /></g><g transform="rotate(-13.73 1536.0 1536.0)"><path d="M-368.6 1631.4 C -241.7 1672.6, -63.9 1592.6, 54.6 1722.1 C 181.6 1696.3, 359.4 1536.1, 477.9 1720.6 C 604.8 1744.4, 782.6 1534.6, 901.1 1665.0 C 1028.1 1671.8, 1205.9 1598.2, 1324.4 1589.0 C 1451.3 1586.5, 1629.1 1657.7, 1747.6 1538.7 C 1874.6 1502.0, 2052.4 1741.1, 2170.9 1544.6 C 2297.9 1525.6, 2475.6 1668.5, 2594.1 1603.2 C 2721.1 1612.3, 2898.9 1664.9, 3017.4 1678.8 C 3144.4 1696.8, 3322.1 1603.9, 3440.6 1725.7" fill="none" stroke="url(#ribbon1098)" stroke-width="34.4" stroke-linecap="round" stroke-opacity="0.276" /></g><g transform="rotate(-13.15 1536.0 1536.0)"><path d="M-368.6 1931.4 C -254.4 2003.1, -94.4 1814.0, 12.3 1974.5 C 126.6 1983.0, 286.6 1893.6, 393.2 1892.9 C 507.5 1899.6, 667.5 1974.4, 774.1 1834.7 C 888.4 1850.5, 1048.4 1963.1, 1155.1 1835.2 C 1269.4 1857.7, 1429.3 2024.7, 1536.0 1894.0 C 1650.3 1886.9, 1810.3 1967.0, 1916.9 1975.6 C 2031.2 1992.8, 2191.2 1888.1, 2297.9 2030.3 C 2412.1 2060.9, 2572.1 1824.2, 2678.8 2025.1 C 2793.1 2044.7, 2953.1 1879.4, 3059.7 1963.1 C 3174.0 1961.9, 3334.0 1915.1, 3440.6 1881.8" fill="none" stroke="url(#ribbon1098)" stroke-width="30.4" stroke-linecap="round" stroke-opacity="0.302" /></g><g transform="rotate(-12.57 1536.0 1536.0)"><path d="M-368.6 2084.2 C -264.8 2062.7, -119.3 2097.7, -22.3 2150.5 C 81.5 2134.5, 227.0 2006.5, 324.0 2195.0 C 427.8 2192.0, 573.3 1980.1, 670.3 2172.3 C 774.1 2139.6, 919.6 2029.3, 1016.6 2096.1 C 1120.4 2095.2, 1265.9 2075.6, 1362.9 2012.7 C 1466.7 2003.3, 1612.2 2143.4, 1709.1 1972.7 C 1813.0 2004.9, 1958.5 2137.2, 2055.4 2000.3 C 2159.3 2023.8, 2304.8 2160.0, 2401.7 2078.8 C 2505.6 2078.7, 2651.1 2090.5, 2748.0 2160.5 C 2851.9 2167.7, 2997.4 2033.4, 3094.3 2196.0 C 3198.2 2156.4, 3343.7 1958.1, 3440.6 2163.6" fill="none" stroke="url(#ribbon1098)" stroke-width="26.4" stroke-linecap="round" stroke-opacity="0.328" /></g><g transform="rotate(-11.99 1536.0 1536.0)"><path d="M-368.6 2298.7 C -273.4 2240.2, -140.1 2354.7, -51.2 2335.8 C 44.0 2340.8, 177.4 2279.2, 266.2 2405.6 C 361.5 2387.0, 494.8 2223.9, 583.7 2410.6 C 678.9 2452.6, 812.2 2187.5, 901.1 2347.7 C 996.4 2329.1, 1129.7 2276.7, 1218.6 2255.2 C 1313.8 2246.0, 1447.1 2338.8, 1536.0 2189.0 C 1631.2 2197.6, 1764.6 2371.5, 1853.4 2189.4 C 1948.7 2187.1, 2082.0 2424.9, 2170.9 2256.1 C 2266.1 2242.1, 2399.4 2347.4, 2488.3 2348.7 C 2583.6 2354.7, 2716.9 2274.2, 2805.8 2410.9 C 2901.0 2401.8, 3034.3 2184.4, 3123.2 2405.1 C 3218.4 2441.5, 3351.8 2193.3, 3440.6 2334.8" fill="none" stroke="url(#ribbon1098)" stroke-width="22.4" stroke-linecap="round" stroke-opacity="0.354" /></g><g transform="rotate(-11.41 1536.0 1536.0)"><path d="M-368.6 2447.5 C -225.8 2503.7, -25.8 2407.9, 107.5 2398.7 C 250.4 2405.3, 450.4 2500.2, 583.7 2330.2 C 726.5 2329.3, 926.5 2555.3, 1059.8 2332.9 C 1202.7 2360.4, 1402.7 2572.3, 1536.0 2405.1 C 1678.8 2391.9, 1878.8 2461.7, 2012.2 2503.0 C 2155.0 2517.8, 2355.0 2405.9, 2488.3 2567.3 C 2631.2 2613.0, 2831.2 2310.7, 2964.5 2558.9 C 3107.3 2562.2, 3307.3 2384.4, 3440.6 2482.9" fill="none" stroke="url(#ribbon1098)" stroke-width="18.4" stroke-linecap="round" stroke-opacity="0.380" /></g><g transform="rotate(-10.83 1536.0 1536.0)"><path d="M-368.6 2644.7 C -241.7 2599.2, -63.9 2669.3, 54.6 2699.5 C 181.6 2687.6, 359.4 2618.2, 477.9 2769.9 C 604.8 2749.6, 782.6 2598.3, 901.1 2764.3 C 1028.1 2751.3, 1205.9 2607.8, 1324.4 2686.2 C 1451.3 2689.3, 1629.1 2603.4, 1747.6 2582.9 C 1874.6 2583.7, 2052.4 2685.2, 2170.9 2517.2 C 2297.9 2495.8, 2475.6 2687.0, 2594.1 2528.8 C 2721.1 2526.0, 2898.9 2781.9, 3017.4 2610.7 C 3144.4 2602.6, 3322.1 2660.2, 3440.6 2713.3" fill="none" stroke="url(#ribbon1098)" stroke-width="14.4" stroke-linecap="round" stroke-opacity="0.406" /></g></g>
  <g><ellipse cx="1536.0" cy="1551.9" rx="728.6" ry="605.7" fill="url(#extrude1098)" opacity="0.220" /><ellipse cx="1536.0" cy="1567.7" rx="736.0" ry="610.9" fill="url(#extrude1098)" opacity="0.205" /><ellipse cx="1536.0" cy="1583.6" rx="743.4" ry="616.1" fill="url(#extrude1098)" opacity="0.190" /><ellipse cx="1536.0" cy="1599.5" rx="750.9" ry="621.3" fill="url(#extrude1098)" opacity="0.175" /><ellipse cx="1536.0" cy="1615.4" rx="758.3" ry="626.5" fill="url(#extrude1098)" opacity="0.160" /><ellipse cx="1536.0" cy="1631.2" rx="765.7" ry="631.7" fill="url(#extrude1098)" opacity="0.145" /><ellipse cx="1536.0" cy="1647.1" rx="773.2" ry="636.9" fill="url(#extrude1098)" opacity="0.130" /><ellipse cx="1536.0" cy="1663.0" rx="780.6" ry="642.1" fill="url(#extrude1098)" opacity="0.115" /><ellipse cx="1536.0" cy="1678.8" rx="788.0" ry="647.4" fill="url(#extrude1098)" opacity="0.100" /><ellipse cx="1536.0" cy="1694.7" rx="795.5" ry="652.6" fill="url(#extrude1098)" opacity="0.085" /><ellipse cx="1536.0" cy="1710.6" rx="802.9" ry="657.8" fill="url(#extrude1098)" opacity="0.070" /><ellipse cx="1536.0" cy="1726.5" rx="810.3" ry="663.0" fill="url(#extrude1098)" opacity="0.055" /></g>
  <ellipse cx="1536.0" cy="1726.5" rx="773.2" ry="214.9" fill="#0B1D2D" opacity="0.24" />
  <ellipse cx="1536.0" cy="1536.0" rx="743.4" ry="651.3" fill="url(#orb1098)" stroke="#FFFFFF" stroke-opacity="0.42" stroke-width="7" />
  <ellipse cx="1431.9" cy="1392.7" rx="505.5" ry="299.6" fill="#FFFFFF" opacity="0.25" />
  <path d="M 199.4 399.4 C 1013.8 -30.7, 2058.2 768.0, 2872.6 215.0 L 2872.6 983.0 C 2089.0 1228.8, 1013.8 307.2, 199.4 1167.4 Z" fill="url(#glass1098)" />
  <rect x="270" y="270" width="2532" height="2532" rx="430" fill="none" stroke="#FFFFFF" stroke-opacity="0.30" stroke-width="5" />
  <rect x="288.4" y="288.4" width="2495.1" height="2495.1" rx="399" fill="none" stroke="#53E3A6" stroke-opacity="0.35" stroke-width="3" />
  <g filter="url(#soft1098)"><rect x="2139" y="1346" width="82" height="2" fill="#FFFFFF" opacity="0.325" /><rect x="2179" y="1306" width="2" height="82" fill="#FFFFFF" opacity="0.325" /><rect x="496" y="671" width="32" height="2" fill="#FFFFFF" opacity="0.530" /><rect x="511" y="656" width="2" height="32" fill="#FFFFFF" opacity="0.530" /><rect x="1631" y="669" width="58" height="2" fill="#FFFFFF" opacity="0.444" /><rect x="1659" y="641" width="2" height="58" fill="#FFFFFF" opacity="0.444" /><rect x="406" y="579" width="84" height="2" fill="#FFFFFF" opacity="0.702" /><rect x="447" y="538" width="2" height="84" fill="#FFFFFF" opacity="0.702" /><rect x="280" y="917" width="60" height="2" fill="#FFFFFF" opacity="0.785" /><rect x="309" y="888" width="2" height="60" fill="#FFFFFF" opacity="0.785" /><rect x="1240" y="1229" width="38" height="2" fill="#FFFFFF" opacity="0.485" /><rect x="1258" y="1211" width="2" height="38" fill="#FFFFFF" opacity="0.485" /><rect x="933" y="890" width="72" height="2" fill="#FFFFFF" opacity="0.558" /><rect x="968" y="855" width="2" height="72" fill="#FFFFFF" opacity="0.558" /><rect x="642" y="766" width="64" height="2" fill="#FFFFFF" opacity="0.758" /><rect x="673" y="735" width="2" height="64" fill="#FFFFFF" opacity="0.758" /><rect x="631" y="1686" width="38" height="2" fill="#FFFFFF" opacity="0.772" /><rect x="649" y="1668" width="2" height="38" fill="#FFFFFF" opacity="0.772" /><rect x="868" y="1348" width="68" height="2" fill="#FFFFFF" opacity="0.363" /><rect x="901" y="1315" width="2" height="68" fill="#FFFFFF" opacity="0.363" /><rect x="630" y="1973" width="28" height="2" fill="#FFFFFF" opacity="0.629" /><rect x="643" y="1960" width="2" height="28" fill="#FFFFFF" opacity="0.629" /><rect x="837" y="1347" width="56" height="2" fill="#FFFFFF" opacity="0.774" /><rect x="864" y="1320" width="2" height="56" fill="#FFFFFF" opacity="0.774" /><rect x="2279" y="992" width="28" height="2" fill="#FFFFFF" opacity="0.836" /><rect x="2292" y="979" width="2" height="28" fill="#FFFFFF" opacity="0.836" /><rect x="1788" y="321" width="44" height="2" fill="#FFFFFF" opacity="0.621" /><rect x="1809" y="300" width="2" height="44" fill="#FFFFFF" opacity="0.621" /><rect x="992" y="1708" width="72" height="2" fill="#FFFFFF" opacity="0.627" /><rect x="1027" y="1673" width="2" height="72" fill="#FFFFFF" opacity="0.627" /><rect x="1100" y="1614" width="28" height="2" fill="#FFFFFF" opacity="0.429" /><rect x="1113" y="1601" width="2" height="28" fill="#FFFFFF" opacity="0.429" /><rect x="1324" y="1527" width="62" height="2" fill="#FFFFFF" opacity="0.586" /><rect x="1354" y="1497" width="2" height="62" fill="#FFFFFF" opacity="0.586" /><rect x="1967" y="2520" width="56" height="2" fill="#FFFFFF" opacity="0.510" /><rect x="1994" y="2493" width="2" height="56" fill="#FFFFFF" opacity="0.510" /><rect x="2357" y="802" width="74" height="2" fill="#FFFFFF" opacity="0.839" /><rect x="2393" y="766" width="2" height="74" fill="#FFFFFF" opacity="0.839" /><rect x="1305" y="2240" width="48" height="2" fill="#FFFFFF" opacity="0.823" /><rect x="1328" y="2217" width="2" height="48" fill="#FFFFFF" opacity="0.823" /><rect x="1819" y="1421" width="34" height="2" fill="#FFFFFF" opacity="0.649" /><rect x="1835" y="1405" width="2" height="34" fill="#FFFFFF" opacity="0.649" /><rect x="919" y="2438" width="40" height="2" fill="#FFFFFF" opacity="0.582" /><rect x="938" y="2419" width="2" height="40" fill="#FFFFFF" opacity="0.582" /><rect x="670" y="515" width="54" height="2" fill="#FFFFFF" opacity="0.523" /><rect x="696" y="489" width="2" height="54" fill="#FFFFFF" opacity="0.523" /><rect x="2006" y="397" width="30" height="2" fill="#FFFFFF" opacity="0.387" /><rect x="2020" y="383" width="2" height="30" fill="#FFFFFF" opacity="0.387" /><rect x="1252" y="1955" width="80" height="2" fill="#FFFFFF" opacity="0.780" /><rect x="1291" y="1916" width="2" height="80" fill="#FFFFFF" opacity="0.780" /><rect x="338" y="2485" width="80" height="2" fill="#FFFFFF" opacity="0.801" /><rect x="377" y="2446" width="2" height="80" fill="#FFFFFF" opacity="0.801" /></g>
  <g opacity="0.52"><path d="M996 1582 Q1572 1006, 2148 1582" fill="none" stroke="#0C2030" stroke-width="90" /><path d="M996 1801 Q1572 1198, 2148 1801" fill="none" stroke="#0C2030" stroke-width="88" opacity="0.9" /><path d="M996 1966 Q1572 1326, 2148 1966" fill="none" stroke="#0C2030" stroke-width="87" opacity="0.75" /></g>
  <g filter="url(#soft1098)"><path d="M960 1536 Q1536 960, 2112 1536" fill="none" stroke="url(#symbol1098)" stroke-width="90" /><path d="M960 1755 Q1536 1152, 2112 1755" fill="none" stroke="url(#symbol1098)" stroke-width="88" opacity="0.9" /><path d="M960 1920 Q1536 1280, 2112 1920" fill="none" stroke="url(#symbol1098)" stroke-width="87" opacity="0.75" /></g>
  <rect x="138" y="138" width="2796" height="2796" rx="629" fill="#FFFFFF" filter="url(#grain1098)" opacity="0.18" />
</svg>
