<svg xmlns="http://www.w3.org/2000/svg" width="3072" height="3072" viewBox="0 0 3072 3072">
  <title>QuartzOS System Icon 110 - mail_06</title>
  <defs><linearGradient id="bg1109" x1="0%" y1="0%" x2="100%" y2="100%"><stop offset="0%" stop-color="#FF6AB3" /><stop offset="26%" stop-color="#FFD84D" /><stop offset="56%" stop-color="#36D1FF" /><stop offset="78%" stop-color="#B37A46" /><stop offset="100%" stop-color="#27201B" /></linearGradient><radialGradient id="sun1109" cx="47%" cy="22%" r="88%"><stop offset="0%" stop-color="#FFFFFF" stop-opacity="0.62" /><stop offset="30%" stop-color="#3B82FF" stop-opacity="0.35" /><stop offset="100%" stop-color="#3B82FF" stop-opacity="0" /></radialGradient><linearGradient id="glass1109" x1="0%" y1="0%" x2="0%" y2="100%"><stop offset="0%" stop-color="#FFFFFF" stop-opacity="0.70" /><stop offset="46%" stop-color="#FFFFFF" stop-opacity="0.26" /><stop offset="100%" stop-color="#FFFFFF" stop-opacity="0.00" /></linearGradient><linearGradient id="ribbon1109" x1="0%" y1="0%" x2="100%" y2="0%"><stop offset="0%" stop-color="#FF6AB3" stop-opacity="0.18" /><stop offset="34%" stop-color="#FFD84D" stop-opacity="0.72" /><stop offset="66%" stop-color="#36D1FF" stop-opacity="0.72" /><stop offset="100%" stop-color="#3B82FF" stop-opacity="0.18" /></linearGradient><radialGradient id="orb1109" cx="34%" cy="27%" r="74%"><stop offset="0%" stop-color="#FFFFFF" stop-opacity="0.84" /><stop offset="30%" stop-color="#FF6AB3" stop-opacity="0.52" /><stop offset="68%" stop-color="#FFD84D" stop-opacity="0.42" /><stop offset="100%" stop-color="#36D1FF" stop-opacity="0.20" /></radialGradient><linearGradient id="extrude1109" x1="0%" y1="0%" x2="0%" y2="100%"><stop offset="0%" stop-color="#15283C" stop-opacity="0.45" /><stop offset="100%" stop-color="#08131D" stop-opacity="0.06" /></linearGradient><linearGradient id="symbol1109" x1="0%" y1="0%" x2="100%" y2="100%"><stop offset="0%" stop-color="#FFFFFF" /><stop offset="100%" stop-color="#3B82FF" /></linearGradient><filter id="shadow1109" x="-40%" y="-40%" width="180%" height="180%"><feDropShadow dx="0" dy="49" stdDeviation="86" flood-color="#06111A" flood-opacity="0.54" /></filter><filter id="soft1109" x="-40%" y="-40%" width="180%" height="180%"><feDropShadow dx="0" dy="0" stdDeviation="14" flood-color="#FF6AB3" flood-opacity="0.45" /></filter><filter id="grain1109"><feTurbulence type="fractalNoise" baseFrequency="0.763" numOctaves="2" seed="1109" /><feColorMatrix type="saturate" values="0" /><feComponentTransfer><feFuncA type="table" tableValues="0 0.09" /></feComponentTransfer></filter></defs>
  <rect x="138" y="138" width="2796" height="2796" rx="629" fill="url(#bg1109)" filter="url(#shadow1109)" />
  <rect x="138" y="138" width="2796" height="2796" rx="629" fill="url(#sun1109)" />
  <g><circle cx="766" cy="991" r="144" fill="#FFFFFF" opacity="0.231" /><circle cx="699" cy="2095" r="97" fill="#FFFFFF" opacity="0.210" /><circle cx="1196" cy="1877" r="60" fill="#FFFFFF" opacity="0.129" /><circle cx="1749" cy="1757" r="77" fill="#FFFFFF" opacity="0.209" /><circle cx="1065" cy="1546" r="142" fill="#FFFFFF" opacity="0.094" /><circle cx="2466" cy="1401" r="69" fill="#FFFFFF" opacity="0.108" /><circle cx="2529" cy="1694" r="124" fill="#FFFFFF" opacity="0.229" /><circle cx="1364" cy="513" r="137" fill="#FFFFFF" opacity="0.107" /><circle cx="1159" cy="1134" r="41" fill="#FFFFFF" opacity="0.085" /><circle cx="2220" cy="1632" r="115" fill="#FFFFFF" opacity="0.164" /><circle cx="1647" cy="1715" r="118" fill="#FFFFFF" opacity="0.204" /><circle cx="379" cy="2565" r="78" fill="#FFFFFF" opacity="0.190" /><circle cx="1562" cy="2407" r="151" fill="#FFFFFF" opacity="0.160" /><circle cx="2479" cy="735" r="159" fill="#FFFFFF" opacity="0.165" /><circle cx="1513" cy="735" r="86" fill="#FFFFFF" opacity="0.119" /><circle cx="2540" cy="2472" r="116" fill="#FFFFFF" opacity="0.176" /><circle cx="2034" cy="1539" r="91" fill="#FFFFFF" opacity="0.160" /><circle cx="812" cy="1302" r="89" fill="#FFFFFF" opacity="0.192" /><circle cx="1199" cy="1932" r="106" fill="#FFFFFF" opacity="0.062" /><circle cx="2340" cy="1911" r="113" fill="#FFFFFF" opacity="0.125" /><circle cx="2309" cy="361" r="116" fill="#FFFFFF" opacity="0.085" /><circle cx="2243" cy="1135" r="101" fill="#FFFFFF" opacity="0.171" /><circle cx="1286" cy="1035" r="146" fill="#FFFFFF" opacity="0.062" /><circle cx="2088" cy="2635" r="42" fill="#FFFFFF" opacity="0.173" /><circle cx="491" cy="1718" r="115" fill="#FFFFFF" opacity="0.200" /><circle cx="1298" cy="585" r="63" fill="#FFFFFF" opacity="0.161" /><circle cx="2253" cy="853" r="37" fill="#FFFFFF" opacity="0.193" /><circle cx="970" cy="1833" r="90" fill="#FFFFFF" opacity="0.100" /></g>
  <g><path d="M 364.7 584.9 L 2752.8 308.5 L 2752.8 802.6 L 364.7 1079.1 Z" fill="#FFFFFF" opacity="0.152" /><path d="M 287.5 921.5 L 2724.8 645.0 L 2724.8 1068.8 L 287.5 1345.3 Z" fill="#FFFFFF" opacity="0.182" /><path d="M 248.1 1114.8 L 2687.1 838.3 L 2687.1 1307.8 L 248.1 1584.3 Z" fill="#FFFFFF" opacity="0.216" /><path d="M 378.9 1397.7 L 2711.6 1121.2 L 2711.6 1550.0 L 378.9 1826.5 Z" fill="#FFFFFF" opacity="0.201" /><path d="M 258.8 1664.5 L 2824.7 1388.0 L 2824.7 1882.4 L 258.8 2158.8 Z" fill="#FFFFFF" opacity="0.121" /><path d="M 278.2 1947.9 L 2828.6 1671.5 L 2828.6 2166.8 L 278.2 2443.3 Z" fill="#FFFFFF" opacity="0.114" /><path d="M 376.9 2200.3 L 2755.1 1923.9 L 2755.1 2354.4 L 376.9 2630.9 Z" fill="#FFFFFF" opacity="0.096" /><path d="M 338.0 2433.7 L 2727.0 2157.2 L 2727.0 2579.7 L 338.0 2856.2 Z" fill="#FFFFFF" opacity="0.202" /></g>
  <g filter="url(#soft1109)"><g transform="rotate(-17.84 1536.0 1536.0)"><path d="M-368.6 477.0 C -225.8 494.1, -25.8 465.9, 107.5 524.8 C 250.4 536.5, 450.4 437.0, 583.7 530.2 C 726.5 539.0, 926.5 422.7, 1059.8 503.3 C 1202.7 502.7, 1402.7 459.9, 1536.0 460.4 C 1678.8 455.8, 1878.8 495.3, 2012.2 427.6 C 2155.0 437.6, 2355.0 506.1, 2488.3 424.7 C 2631.2 426.2, 2831.2 511.0, 2964.5 453.5 C 3107.3 458.5, 3307.3 487.2, 3440.6 496.6" fill="none" stroke="url(#ribbon1109)" stroke-width="58.4" stroke-linecap="round" stroke-opacity="0.120" /></g><g transform="rotate(-17.26 1536.0 1536.0)"><path d="M-368.6 669.7 C -241.7 719.2, -63.9 647.2, 54.6 702.1 C 181.6 695.7, 359.4 636.6, 477.9 654.1 C 604.8 656.5, 782.6 677.7, 901.1 615.5 C 1028.1 624.7, 1205.9 724.6, 1324.4 609.7 C 1451.3 633.4, 1629.1 694.0, 1747.6 640.4 C 1874.6 641.3, 2052.4 683.4, 2170.9 688.7 C 2297.9 696.3, 2475.6 660.4, 2594.1 725.5 C 2721.1 726.1, 2898.9 616.4, 3017.4 728.4 C 3144.4 744.2, 3322.1 624.5, 3440.6 695.7" fill="none" stroke="url(#ribbon1109)" stroke-width="54.4" stroke-linecap="round" stroke-opacity="0.146" /></g><g transform="rotate(-16.68 1536.0 1536.0)"><path d="M-368.6 950.1 C -254.4 889.2, -94.4 1003.2, 12.3 946.3 C 126.6 945.4, 286.6 953.7, 393.2 997.2 C 507.5 990.3, 667.5 919.6, 774.1 1019.5 C 888.4 1006.0, 1048.4 915.6, 1155.1 999.8 C 1269.4 1004.8, 1429.3 921.0, 1536.0 949.9 C 1650.3 949.9, 1810.3 950.2, 1916.9 900.2 C 2031.2 911.7, 2191.2 1005.1, 2297.9 880.7 C 2412.1 903.9, 2572.1 974.1, 2678.8 903.4 C 2793.1 901.3, 2953.1 999.8, 3059.7 954.4 C 3174.0 955.3, 3334.0 946.6, 3440.6 1002.8" fill="none" stroke="url(#ribbon1109)" stroke-width="50.4" stroke-linecap="round" stroke-opacity="0.172" /></g><g transform="rotate(-16.10 1536.0 1536.0)"><path d="M-368.6 1105.5 C -264.8 1128.7, -119.3 1089.3, -22.3 1179.5 C 81.5 1192.4, 227.0 1070.3, 324.0 1171.0 C 427.8 1171.6, 573.3 1063.0, 670.3 1122.7 C 774.1 1124.6, 919.6 1091.4, 1016.6 1064.1 C 1120.4 1060.9, 1265.9 1125.7, 1362.9 1030.5 C 1466.7 1019.4, 1612.2 1176.4, 1709.1 1042.4 C 1813.0 1032.4, 1958.5 1145.7, 2055.4 1092.6 C 2159.3 1092.4, 2304.8 1120.7, 2401.7 1150.6 C 2505.6 1138.1, 2651.1 1088.5, 2748.0 1181.2 C 2851.9 1171.1, 2997.4 1018.2, 3094.3 1165.9 C 3198.2 1170.2, 3343.7 1042.4, 3440.6 1113.9" fill="none" stroke="url(#ribbon1109)" stroke-width="46.4" stroke-linecap="round" stroke-opacity="0.198" /></g><g transform="rotate(-15.52 1536.0 1536.0)"><path d="M-368.6 1351.5 C -273.4 1426.7, -140.1 1307.1, -51.2 1428.0 C 44.0 1452.1, 177.4 1327.6, 266.2 1380.5 C 361.5 1379.8, 494.8 1334.2, 583.7 1315.5 C 678.9 1305.6, 812.2 1378.0, 901.1 1272.4 C 996.4 1250.9, 1129.7 1441.6, 1218.6 1277.2 C 1313.8 1304.5, 1447.1 1433.9, 1536.0 1327.2 C 1631.2 1320.8, 1764.6 1360.3, 1853.4 1391.9 C 1948.7 1396.3, 2082.0 1324.9, 2170.9 1432.1 C 2266.1 1455.1, 2399.4 1274.3, 2488.3 1423.5 C 2583.6 1397.1, 2716.9 1299.0, 2805.8 1371.2 C 2901.0 1365.1, 3034.3 1339.5, 3123.2 1307.0 C 3218.4 1299.5, 3351.8 1383.7, 3440.6 1269.8" fill="none" stroke="url(#ribbon1109)" stroke-width="42.4" stroke-linecap="round" stroke-opacity="0.224" /></g><g transform="rotate(-14.94 1536.0 1536.0)"><path d="M-368.6 1504.2 C -225.8 1400.2, -25.8 1553.8, 107.5 1415.4 C 250.4 1450.4, 450.4 1574.8, 583.7 1455.2 C 726.5 1439.2, 926.5 1551.0, 1059.8 1524.8 C 1202.7 1526.0, 1402.7 1486.6, 1536.0 1581.9 C 1678.8 1556.1, 1878.8 1426.5, 2012.2 1591.9 C 2155.0 1578.3, 2355.0 1457.2, 2488.3 1548.7 C 2631.2 1534.2, 2831.2 1488.5, 2964.5 1478.6 C 3107.3 1469.5, 3307.3 1526.4, 3440.6 1424.0" fill="none" stroke="url(#ribbon1109)" stroke-width="38.4" stroke-linecap="round" stroke-opacity="0.250" /></g><g transform="rotate(-14.36 1536.0 1536.0)"><path d="M-368.6 1741.7 C -241.7 1671.3, -63.9 1826.7, 54.6 1646.1 C 181.6 1625.9, 359.4 1801.0, 477.9 1689.5 C 604.8 1684.5, 782.6 1764.8, 901.1 1764.6 C 1028.1 1758.4, 1205.9 1727.8, 1324.4 1825.8 C 1451.3 1855.1, 1629.1 1704.0, 1747.6 1835.9 C 1874.6 1856.2, 2052.4 1674.4, 2170.9 1788.9 C 2297.9 1798.2, 2475.6 1688.2, 2594.1 1713.3 C 2721.1 1713.5, 2898.9 1763.1, 3017.4 1654.8 C 3144.4 1688.5, 3322.1 1835.8, 3440.6 1649.1" fill="none" stroke="url(#ribbon1109)" stroke-width="34.4" stroke-linecap="round" stroke-opacity="0.276" /></g><g transform="rotate(-13.78 1536.0 1536.0)"><path d="M-368.6 1820.1 C -254.4 1786.2, -94.4 1851.3, 12.3 1872.8 C 126.6 1879.0, 286.6 1797.9, 393.2 1921.8 C 507.5 1934.7, 667.5 1724.8, 774.1 1909.1 C 888.4 1902.0, 1048.4 1732.9, 1155.1 1842.4 C 1269.4 1833.5, 1429.3 1800.4, 1536.0 1762.2 C 1650.3 1748.5, 1810.3 1851.1, 1916.9 1717.1 C 2031.2 1692.2, 2191.2 1883.1, 2297.9 1734.5 C 2412.1 1736.3, 2572.1 1883.7, 2678.8 1803.8 C 2793.1 1809.9, 2953.1 1825.7, 3059.7 1883.0 C 3174.0 1868.3, 3334.0 1771.8, 3440.6 1924.0" fill="none" stroke="url(#ribbon1109)" stroke-width="30.4" stroke-linecap="round" stroke-opacity="0.302" /></g><g transform="rotate(-13.20 1536.0 1536.0)"><path d="M-368.6 2067.1 C -264.8 2115.6, -119.3 2023.2, -22.3 2025.4 C 81.5 2032.6, 227.0 2087.9, 324.0 1963.6 C 427.8 1923.0, 573.3 2146.6, 670.3 1964.6 C 774.1 1958.4, 919.6 2188.4, 1016.6 2027.7 C 1120.4 2018.6, 1265.9 2080.1, 1362.9 2114.7 C 1466.7 2112.4, 1612.2 2016.8, 1709.1 2172.8 C 1813.0 2204.5, 1958.5 2032.5, 2055.4 2166.8 C 2159.3 2148.5, 2304.8 2031.1, 2401.7 2100.3 C 2505.6 2111.5, 2651.1 2035.8, 2748.0 2013.6 C 2851.9 2020.8, 2997.4 2118.1, 3094.3 1959.4 C 3198.2 1997.9, 3343.7 2192.9, 3440.6 1970.5" fill="none" stroke="url(#ribbon1109)" stroke-width="26.4" stroke-linecap="round" stroke-opacity="0.328" /></g><g transform="rotate(-12.62 1536.0 1536.0)"><path d="M-368.6 2311.6 C -273.4 2193.3, -140.1 2392.4, -51.2 2288.5 C 44.0 2290.8, 177.4 2334.8, 266.2 2379.2 C 361.5 2357.4, 494.8 2279.4, 583.7 2428.9 C 678.9 2420.6, 812.2 2187.1, 901.1 2407.4 C 996.4 2374.6, 1129.7 2256.8, 1218.6 2327.8 C 1313.8 2329.3, 1447.1 2303.8, 1536.0 2238.4 C 1631.2 2213.8, 1764.6 2345.3, 1853.4 2193.4 C 1948.7 2189.8, 2082.0 2416.8, 2170.9 2220.1 C 2266.1 2246.2, 2399.4 2406.2, 2488.3 2302.3 C 2583.6 2304.1, 2716.9 2314.5, 2805.8 2390.1 C 2901.0 2410.1, 3034.3 2262.3, 3123.2 2430.4 C 3218.4 2409.3, 3351.8 2188.3, 3440.6 2398.6" fill="none" stroke="url(#ribbon1109)" stroke-width="22.4" stroke-linecap="round" stroke-opacity="0.354" /></g><g transform="rotate(-12.04 1536.0 1536.0)"><path d="M-368.6 2497.1 C -225.8 2659.1, -25.8 2355.1, 107.5 2568.4 C 250.4 2571.2, 450.4 2446.0, 583.7 2472.2 C 726.5 2479.5, 926.5 2507.4, 1059.8 2391.2 C 1202.7 2431.7, 1402.7 2532.8, 1536.0 2374.4 C 1678.8 2416.0, 1878.8 2597.1, 2012.2 2432.0 C 2155.0 2431.0, 2355.0 2545.6, 2488.3 2529.1 C 2631.2 2537.8, 2831.2 2482.6, 2964.5 2606.8 C 3107.3 2576.0, 3307.3 2429.6, 3440.6 2617.9" fill="none" stroke="url(#ribbon1109)" stroke-width="18.4" stroke-linecap="round" stroke-opacity="0.380" /></g><g transform="rotate(-11.46 1536.0 1536.0)"><path d="M-368.6 2682.0 C -241.7 2523.8, -63.9 2783.8, 54.6 2650.3 C 181.6 2646.5, 359.4 2698.4, 477.9 2752.5 C 604.8 2757.5, 782.6 2605.8, 901.1 2812.0 C 1028.1 2858.8, 1205.9 2552.4, 1324.4 2792.6 C 1451.3 2774.8, 1629.1 2550.2, 1747.6 2706.1 C 1874.6 2700.5, 2052.4 2663.4, 2170.9 2604.9 C 2297.9 2618.5, 2475.6 2705.1, 2594.1 2550.5 C 2721.1 2577.3, 2898.9 2800.8, 3017.4 2575.8 C 3144.4 2587.4, 3322.1 2801.2, 3440.6 2665.5" fill="none" stroke="url(#ribbon1109)" stroke-width="14.4" stroke-linecap="round" stroke-opacity="0.406" /></g></g>
  <g><ellipse cx="1536.0" cy="1551.9" rx="728.6" ry="605.7" fill="url(#extrude1109)" opacity="0.220" /><ellipse cx="1536.0" cy="1567.7" rx="736.0" ry="610.9" fill="url(#extrude1109)" opacity="0.205" /><ellipse cx="1536.0" cy="1583.6" rx="743.4" ry="616.1" fill="url(#extrude1109)" opacity="0.190" /><ellipse cx="1536.0" cy="1599.5" rx="750.9" ry="621.3" fill="url(#extrude1109)" opacity="0.175" /><ellipse cx="1536.0" cy="1615.4" rx="758.3" ry="626.5" fill="url(#extrude1109)" opacity="0.160" /><ellipse cx="1536.0" cy="1631.2" rx="765.7" ry="631.7" fill="url(#extrude1109)" opacity="0.145" /><ellipse cx="1536.0" cy="1647.1" rx="773.2" ry="636.9" fill="url(#extrude1109)" opacity="0.130" /><ellipse cx="1536.0" cy="1663.0" rx="780.6" ry="642.1" fill="url(#extrude1109)" opacity="0.115" /><ellipse cx="1536.0" cy="1678.8" rx="788.0" ry="647.4" fill="url(#extrude1109)" opacity="0.100" /><ellipse cx="1536.0" cy="1694.7" rx="795.5" ry="652.6" fill="url(#extrude1109)" opacity="0.085" /><ellipse cx="1536.0" cy="1710.6" rx="802.9" ry="657.8" fill="url(#extrude1109)" opacity="0.070" /><ellipse cx="1536.0" cy="1726.5" rx="810.3" ry="663.0" fill="url(#extrude1109)" opacity="0.055" /></g>
  <ellipse cx="1536.0" cy="1726.5" rx="773.2" ry="214.9" fill="#0B1D2D" opacity="0.24" />
  <ellipse cx="1536.0" cy="1536.0" rx="743.4" ry="651.3" fill="url(#orb1109)" stroke="#FFFFFF" stroke-opacity="0.42" stroke-width="7" />
  <ellipse cx="1431.9" cy="1392.7" rx="505.5" ry="299.6" fill="#FFFFFF" opacity="0.25" />
  <path d="M 199.4 399.4 C 1013.8 -30.7, 2058.2 768.0, 2872.6 215.0 L 2872.6 983.0 C 2089.0 1228.8, 1013.8 307.2, 199.4 1167.4 Z" fill="url(#glass1109)" />
  <rect x="270" y="270" width="2532" height="2532" rx="430" fill="none" stroke="#FFFFFF" stroke-opacity="0.30" stroke-width="5" />
  <rect x="288.4" y="288.4" width="2495.1" height="2495.1" rx="399" fill="none" stroke="#FF6AB3" stroke-opacity="0.35" stroke-width="3" />
  <g filter="url(#soft1109)"><rect x="2768" y="1737" width="44" height="2" fill="#FFFFFF" opacity="0.343" /><rect x="2789" y="1716" width="2" height="44" fill="#FFFFFF" opacity="0.343" /><rect x="2022" y="1398" width="80" height="2" fill="#FFFFFF" opacity="0.572" /><rect x="2061" y="1359" width="2" height="80" fill="#FFFFFF" opacity="0.572" /><rect x="845" y="887" width="70" height="2" fill="#FFFFFF" opacity="0.456" /><rect x="879" y="853" width="2" height="70" fill="#FFFFFF" opacity="0.456" /><rect x="1214" y="1352" width="30" height="2" fill="#FFFFFF" opacity="0.616" /><rect x="1228" y="1338" width="2" height="30" fill="#FFFFFF" opacity="0.616" /><rect x="1655" y="1939" width="32" height="2" fill="#FFFFFF" opacity="0.547" /><rect x="1670" y="1924" width="2" height="32" fill="#FFFFFF" opacity="0.547" /><rect x="1265" y="1100" width="80" height="2" fill="#FFFFFF" opacity="0.693" /><rect x="1304" y="1061" width="2" height="80" fill="#FFFFFF" opacity="0.693" /><rect x="2775" y="2291" width="54" height="2" fill="#FFFFFF" opacity="0.651" /><rect x="2801" y="2265" width="2" height="54" fill="#FFFFFF" opacity="0.651" /><rect x="1923" y="1886" width="74" height="2" fill="#FFFFFF" opacity="0.808" /><rect x="1959" y="1850" width="2" height="74" fill="#FFFFFF" opacity="0.808" /><rect x="2226" y="763" width="36" height="2" fill="#FFFFFF" opacity="0.599" /><rect x="2243" y="746" width="2" height="36" fill="#FFFFFF" opacity="0.599" /><rect x="2661" y="1018" width="56" height="2" fill="#FFFFFF" opacity="0.425" /><rect x="2688" y="991" width="2" height="56" fill="#FFFFFF" opacity="0.425" /><rect x="1382" y="299" width="76" height="2" fill="#FFFFFF" opacity="0.689" /><rect x="1419" y="262" width="2" height="76" fill="#FFFFFF" opacity="0.689" /><rect x="2196" y="1887" width="56" height="2" fill="#FFFFFF" opacity="0.316" /><rect x="2223" y="1860" width="2" height="56" fill="#FFFFFF" opacity="0.316" /><rect x="2149" y="1378" width="42" height="2" fill="#FFFFFF" opacity="0.594" /><rect x="2169" y="1358" width="2" height="42" fill="#FFFFFF" opacity="0.594" /><rect x="1844" y="2106" width="84" height="2" fill="#FFFFFF" opacity="0.463" /><rect x="1885" y="2065" width="2" height="84" fill="#FFFFFF" opacity="0.463" /><rect x="2599" y="1254" width="66" height="2" fill="#FFFFFF" opacity="0.379" /><rect x="2631" y="1222" width="2" height="66" fill="#FFFFFF" opacity="0.379" /><rect x="2770" y="2589" width="58" height="2" fill="#FFFFFF" opacity="0.603" /><rect x="2798" y="2561" width="2" height="58" fill="#FFFFFF" opacity="0.603" /><rect x="2050" y="1535" width="62" height="2" fill="#FFFFFF" opacity="0.305" /><rect x="2080" y="1505" width="2" height="62" fill="#FFFFFF" opacity="0.305" /><rect x="1970" y="2299" width="44" height="2" fill="#FFFFFF" opacity="0.674" /><rect x="1991" y="2278" width="2" height="44" fill="#FFFFFF" opacity="0.674" /><rect x="2138" y="1437" width="48" height="2" fill="#FFFFFF" opacity="0.536" /><rect x="2161" y="1414" width="2" height="48" fill="#FFFFFF" opacity="0.536" /><rect x="2487" y="1344" width="70" height="2" fill="#FFFFFF" opacity="0.604" /><rect x="2521" y="1310" width="2" height="70" fill="#FFFFFF" opacity="0.604" /><rect x="1951" y="1907" width="30" height="2" fill="#FFFFFF" opacity="0.736" /><rect x="1965" y="1893" width="2" height="30" fill="#FFFFFF" opacity="0.736" /><rect x="2311" y="2338" width="64" height="2" fill="#FFFFFF" opacity="0.547" /><rect x="2342" y="2307" width="2" height="64" fill="#FFFFFF" opacity="0.547" /><rect x="2081" y="447" width="28" height="2" fill="#FFFFFF" opacity="0.673" /><rect x="2094" y="434" width="2" height="28" fill="#FFFFFF" opacity="0.673" /><rect x="2193" y="2480" width="50" height="2" fill="#FFFFFF" opacity="0.471" /><rect x="2217" y="2456" width="2" height="50" fill="#FFFFFF" opacity="0.471" /><rect x="2562" y="1845" width="36" height="2" fill="#FFFFFF" opacity="0.712" /><rect x="2579" y="1828" width="2" height="36" fill="#FFFFFF" opacity="0.712" /><rect x="2445" y="1523" width="28" height="2" fill="#FFFFFF" opacity="0.736" /><rect x="2458" y="1510" width="2" height="28" fill="#FFFFFF" opacity="0.736" /></g>
  <g opacity="0.52"><rect x="1023" y="1121" width="1152" height="1024" rx="153" fill="none" stroke="#0C2030" stroke-width="90" /><line x1="1023" y1="1326" x2="2148" y2="1326" stroke="#0C2030" stroke-width="90" /><line x1="1316" y1="1033" x2="1316" y2="1121" stroke="#0C2030" stroke-width="90" /><line x1="1828" y1="1033" x2="1828" y2="1121" stroke="#0C2030" stroke-width="90" /></g>
  <g filter="url(#soft1109)"><rect x="987" y="1075" width="1152" height="1024" rx="153" fill="none" stroke="url(#symbol1109)" stroke-width="90" /><line x1="987" y1="1280" x2="2112" y2="1280" stroke="url(#symbol1109)" stroke-width="90" /><line x1="1280" y1="987" x2="1280" y2="1075" stroke="url(#symbol1109)" stroke-width="90" /><line x1="1792" y1="987" x2="1792" y2="1075" stroke="url(#symbol1109)" stroke-width="90" /></g>
  <rect x="138" y="138" width="2796" height="2796" rx="629" fill="#FFFFFF" filter="url(#grain1109)" opacity="0.18" />
</svg>
