<svg xmlns="http://www.w3.org/2000/svg" width="3072" height="3072" viewBox="0 0 3072 3072">
  <title>QuartzOS System Icon 090 - mail_05</title>
  <defs><linearGradient id="bg1089" x1="0%" y1="0%" x2="100%" y2="100%"><stop offset="0%" stop-color="#FF9F43" /><stop offset="26%" stop-color="#53E3A6" /><stop offset="56%" stop-color="#3B82FF" /><stop offset="78%" stop-color="#4F79A7" /><stop offset="100%" stop-color="#1B2630" /></linearGradient><radialGradient id="sun1089" cx="48%" cy="25%" r="88%"><stop offset="0%" stop-color="#FFFFFF" stop-opacity="0.62" /><stop offset="30%" stop-color="#8A5CFF" stop-opacity="0.35" /><stop offset="100%" stop-color="#8A5CFF" stop-opacity="0" /></radialGradient><linearGradient id="glass1089" x1="0%" y1="0%" x2="0%" y2="100%"><stop offset="0%" stop-color="#FFFFFF" stop-opacity="0.70" /><stop offset="46%" stop-color="#FFFFFF" stop-opacity="0.26" /><stop offset="100%" stop-color="#FFFFFF" stop-opacity="0.00" /></linearGradient><linearGradient id="ribbon1089" x1="0%" y1="0%" x2="100%" y2="0%"><stop offset="0%" stop-color="#FF9F43" stop-opacity="0.18" /><stop offset="34%" stop-color="#53E3A6" stop-opacity="0.72" /><stop offset="66%" stop-color="#3B82FF" stop-opacity="0.72" /><stop offset="100%" stop-color="#8A5CFF" stop-opacity="0.18" /></linearGradient><radialGradient id="orb1089" cx="34%" cy="27%" r="74%"><stop offset="0%" stop-color="#FFFFFF" stop-opacity="0.84" /><stop offset="30%" stop-color="#FF9F43" stop-opacity="0.52" /><stop offset="68%" stop-color="#53E3A6" stop-opacity="0.42" /><stop offset="100%" stop-color="#3B82FF" stop-opacity="0.20" /></radialGradient><linearGradient id="extrude1089" x1="0%" y1="0%" x2="0%" y2="100%"><stop offset="0%" stop-color="#15283C" stop-opacity="0.45" /><stop offset="100%" stop-color="#08131D" stop-opacity="0.06" /></linearGradient><linearGradient id="symbol1089" x1="0%" y1="0%" x2="100%" y2="100%"><stop offset="0%" stop-color="#FFFFFF" /><stop offset="100%" stop-color="#8A5CFF" /></linearGradient><filter id="shadow1089" x="-40%" y="-40%" width="180%" height="180%"><feDropShadow dx="0" dy="49" stdDeviation="86" flood-color="#06111A" flood-opacity="0.54" /></filter><filter id="soft1089" x="-40%" y="-40%" width="180%" height="180%"><feDropShadow dx="0" dy="0" stdDeviation="14" flood-color="#FF9F43" flood-opacity="0.45" /></filter><filter id="grain1089"><feTurbulence type="fractalNoise" baseFrequency="0.862" numOctaves="2" seed="1089" /><feColorMatrix type="saturate" values="0" /><feComponentTransfer><feFuncA type="table" tableValues="0 0.09" /></feComponentTransfer></filter></defs>
  <rect x="138" y="138" width="2796" height="2796" rx="629" fill="url(#bg1089)" filter="url(#shadow1089)" />
  <rect x="138" y="138" width="2796" height="2796" rx="629" fill="url(#sun1089)" />
  <g><circle cx="1803" cy="985" r="141" fill="#FFFFFF" opacity="0.082" /><circle cx="685" cy="2346" r="59" fill="#FFFFFF" opacity="0.110" /><circle cx="1704" cy="1212" r="112" fill="#FFFFFF" opacity="0.082" /><circle cx="799" cy="1369" r="100" fill="#FFFFFF" opacity="0.134" /><circle cx="2562" cy="2248" r="112" fill="#FFFFFF" opacity="0.102" /><circle cx="2141" cy="2381" r="106" fill="#FFFFFF" opacity="0.143" /><circle cx="673" cy="1019" r="51" fill="#FFFFFF" opacity="0.238" /><circle cx="1041" cy="1854" r="48" fill="#FFFFFF" opacity="0.065" /><circle cx="1329" cy="1803" r="147" fill="#FFFFFF" opacity="0.225" /><circle cx="1655" cy="1129" r="75" fill="#FFFFFF" opacity="0.112" /><circle cx="897" cy="2307" r="117" fill="#FFFFFF" opacity="0.161" /><circle cx="2488" cy="1545" r="108" fill="#FFFFFF" opacity="0.065" /><circle cx="2304" cy="1461" r="74" fill="#FFFFFF" opacity="0.072" /><circle cx="2324" cy="2129" r="131" fill="#FFFFFF" opacity="0.105" /><circle cx="910" cy="2565" r="49" fill="#FFFFFF" opacity="0.118" /><circle cx="2223" cy="2221" r="104" fill="#FFFFFF" opacity="0.126" /><circle cx="1455" cy="2214" r="97" fill="#FFFFFF" opacity="0.177" /><circle cx="1235" cy="1848" r="87" fill="#FFFFFF" opacity="0.224" /><circle cx="716" cy="932" r="139" fill="#FFFFFF" opacity="0.079" /><circle cx="2190" cy="2259" r="107" fill="#FFFFFF" opacity="0.216" /><circle cx="1252" cy="1984" r="153" fill="#FFFFFF" opacity="0.108" /><circle cx="1870" cy="1806" r="115" fill="#FFFFFF" opacity="0.150" /><circle cx="2520" cy="741" r="90" fill="#FFFFFF" opacity="0.179" /><circle cx="588" cy="1571" r="47" fill="#FFFFFF" opacity="0.202" /><circle cx="2065" cy="567" r="141" fill="#FFFFFF" opacity="0.187" /><circle cx="829" cy="1545" r="111" fill="#FFFFFF" opacity="0.138" /><circle cx="2116" cy="2484" r="112" fill="#FFFFFF" opacity="0.100" /><circle cx="1939" cy="1760" r="58" fill="#FFFFFF" opacity="0.128" /></g>
  <g><path d="M 339.5 575.6 L 2888.3 299.1 L 2888.3 758.6 L 339.5 1035.1 Z" fill="#FFFFFF" opacity="0.231" /><path d="M 154.5 862.6 L 2907.9 586.1 L 2907.9 1035.6 L 154.5 1312.1 Z" fill="#FFFFFF" opacity="0.164" /><path d="M 160.3 1176.6 L 2795.5 900.2 L 2795.5 1356.7 L 160.3 1633.2 Z" fill="#FFFFFF" opacity="0.141" /><path d="M 325.6 1392.2 L 2774.7 1115.8 L 2774.7 1605.6 L 325.6 1882.1 Z" fill="#FFFFFF" opacity="0.175" /><path d="M 269.0 1655.2 L 2923.7 1378.7 L 2923.7 1838.8 L 269.0 2115.3 Z" fill="#FFFFFF" opacity="0.162" /><path d="M 311.9 1878.1 L 2686.5 1601.6 L 2686.5 2082.2 L 311.9 2358.7 Z" fill="#FFFFFF" opacity="0.148" /><path d="M 367.5 2184.5 L 2924.5 1908.0 L 2924.5 2370.9 L 367.5 2647.4 Z" fill="#FFFFFF" opacity="0.089" /><path d="M 227.4 2458.8 L 2833.1 2182.3 L 2833.1 2661.8 L 227.4 2938.2 Z" fill="#FFFFFF" opacity="0.188" /></g>
  <g filter="url(#soft1089)"><g transform="rotate(-5.34 1536.0 1536.0)"><path d="M-368.6 521.5 C -225.8 494.7, -25.8 549.8, 107.5 466.3 C 250.4 462.4, 450.4 565.6, 583.7 480.3 C 726.5 485.2, 926.5 555.0, 1059.8 519.3 C 1202.7 518.5, 1402.7 522.7, 1536.0 559.6 C 1678.8 574.3, 1878.8 495.7, 2012.2 576.8 C 2155.0 593.5, 2355.0 473.6, 2488.3 560.4 C 2631.2 553.2, 2831.2 509.7, 2964.5 520.5 C 3107.3 520.1, 3307.3 522.6, 3440.6 481.1" fill="none" stroke="url(#ribbon1089)" stroke-width="58.4" stroke-linecap="round" stroke-opacity="0.120" /></g><g transform="rotate(-4.76 1536.0 1536.0)"><path d="M-368.6 689.8 C -241.7 656.6, -63.9 716.3, 54.6 628.2 C 181.6 620.8, 359.4 751.7, 477.9 654.0 C 604.8 657.0, 782.6 709.9, 901.1 701.5 C 1028.1 703.5, 1205.9 683.9, 1324.4 741.9 C 1451.3 756.7, 1629.1 644.1, 1747.6 750.7 C 1874.6 737.9, 2052.4 623.0, 2170.9 722.5 C 2297.9 726.1, 2475.6 659.5, 2594.1 674.5 C 2721.1 675.9, 2898.9 697.8, 3017.4 635.8 C 3144.4 656.3, 3322.1 714.6, 3440.6 629.8" fill="none" stroke="url(#ribbon1089)" stroke-width="54.4" stroke-linecap="round" stroke-opacity="0.146" /></g><g transform="rotate(-4.18 1536.0 1536.0)"><path d="M-368.6 902.5 C -254.4 876.7, -94.4 915.5, 12.3 934.7 C 126.6 938.9, 286.6 888.3, 393.2 969.1 C 507.5 980.9, 667.5 852.2, 774.1 963.1 C 888.4 943.8, 1048.4 837.0, 1155.1 920.3 C 1269.4 926.5, 1429.3 892.6, 1536.0 866.8 C 1650.3 869.8, 1810.3 916.9, 1916.9 834.9 C 2031.2 828.0, 2191.2 946.2, 2297.9 844.1 C 2412.1 832.1, 2572.1 955.0, 2678.8 888.7 C 2793.1 892.6, 2953.1 906.7, 3059.7 941.7 C 3174.0 949.5, 3334.0 859.9, 3440.6 970.9" fill="none" stroke="url(#ribbon1089)" stroke-width="50.4" stroke-linecap="round" stroke-opacity="0.172" /></g><g transform="rotate(-3.60 1536.0 1536.0)"><path d="M-368.6 1071.3 C -264.8 1130.9, -119.3 1017.9, -22.3 1076.4 C 81.5 1076.4, 227.0 1067.0, 324.0 1020.1 C 427.8 1015.0, 573.3 1126.7, 670.3 994.9 C 774.1 1010.9, 919.6 1113.7, 1016.6 1016.0 C 1120.4 1014.5, 1265.9 1094.1, 1362.9 1070.7 C 1466.7 1070.9, 1612.2 1071.6, 1709.1 1125.8 C 1813.0 1129.4, 1958.5 1026.0, 2055.4 1147.8 C 2159.3 1169.9, 2304.8 1008.1, 2401.7 1123.4 C 2505.6 1139.6, 2651.1 1017.0, 2748.0 1067.5 C 2851.9 1068.1, 2997.4 1073.2, 3094.3 1013.8 C 3198.2 1019.2, 3343.7 1107.7, 3440.6 995.1" fill="none" stroke="url(#ribbon1089)" stroke-width="46.4" stroke-linecap="round" stroke-opacity="0.198" /></g><g transform="rotate(-3.02 1536.0 1536.0)"><path d="M-368.6 1284.8 C -273.4 1312.7, -140.1 1260.0, -51.2 1255.6 C 44.0 1263.1, 177.4 1301.9, 266.2 1208.3 C 361.5 1236.2, 494.8 1333.4, 583.7 1207.4 C 678.9 1191.9, 812.2 1351.1, 901.1 1253.5 C 996.4 1245.1, 1129.7 1318.0, 1218.6 1318.5 C 1313.8 1323.1, 1447.1 1245.0, 1536.0 1363.1 C 1631.2 1363.5, 1764.6 1191.7, 1853.4 1360.2 C 1948.7 1387.2, 2082.0 1238.4, 2170.9 1311.6 C 2266.1 1307.8, 2399.4 1254.2, 2488.3 1246.7 C 2583.6 1238.8, 2716.9 1305.5, 2805.8 1204.9 C 2901.0 1184.3, 3034.3 1342.4, 3123.2 1211.6 C 3218.4 1189.0, 3351.8 1357.7, 3440.6 1262.7" fill="none" stroke="url(#ribbon1089)" stroke-width="42.4" stroke-linecap="round" stroke-opacity="0.224" /></g><g transform="rotate(-2.44 1536.0 1536.0)"><path d="M-368.6 1534.2 C -225.8 1460.7, -25.8 1564.2, 107.5 1448.6 C 250.4 1418.8, 450.4 1631.0, 583.7 1496.1 C 726.5 1511.0, 926.5 1557.5, 1059.8 1566.6 C 1202.7 1578.4, 1402.7 1510.2, 1536.0 1617.5 C 1678.8 1611.5, 1878.8 1502.4, 2012.2 1617.8 C 2155.0 1584.3, 2355.0 1462.9, 2488.3 1567.4 C 2631.2 1556.8, 2831.2 1522.9, 2964.5 1496.8 C 3107.3 1486.4, 3307.3 1577.3, 3440.6 1448.9" fill="none" stroke="url(#ribbon1089)" stroke-width="38.4" stroke-linecap="round" stroke-opacity="0.250" /></g><g transform="rotate(-1.86 1536.0 1536.0)"><path d="M-368.6 1710.6 C -241.7 1649.2, -63.9 1768.7, 54.6 1613.3 C 181.6 1642.0, 359.4 1767.5, 477.9 1649.6 C 604.8 1653.8, 782.6 1773.2, 901.1 1722.8 C 1028.1 1721.0, 1205.9 1703.0, 1324.4 1788.6 C 1451.3 1795.0, 1629.1 1662.4, 1747.6 1807.1 C 1874.6 1780.6, 2052.4 1601.0, 2170.9 1767.0 C 2297.9 1773.7, 2475.6 1678.5, 2594.1 1692.6 C 2721.1 1692.3, 2898.9 1725.9, 3017.4 1629.2 C 3144.4 1637.5, 3322.1 1780.5, 3440.6 1615.1" fill="none" stroke="url(#ribbon1089)" stroke-width="34.4" stroke-linecap="round" stroke-opacity="0.276" /></g><g transform="rotate(-1.28 1536.0 1536.0)"><path d="M-368.6 1853.0 C -254.4 1811.2, -94.4 1887.9, 12.3 1757.7 C 126.6 1777.1, 286.6 1955.5, 393.2 1755.3 C 507.5 1781.9, 667.5 1911.7, 774.1 1812.2 C 888.4 1802.6, 1048.4 1873.5, 1155.1 1893.7 C 1269.4 1898.3, 1429.3 1816.2, 1536.0 1950.6 C 1650.3 1932.2, 1810.3 1768.8, 1916.9 1948.2 C 2031.2 1973.9, 2191.2 1758.6, 2297.9 1888.1 C 2412.1 1875.1, 2572.1 1824.4, 2678.8 1806.6 C 2793.1 1814.8, 2953.1 1897.7, 3059.7 1753.3 C 3174.0 1743.0, 3334.0 1925.1, 3440.6 1760.4" fill="none" stroke="url(#ribbon1089)" stroke-width="30.4" stroke-linecap="round" stroke-opacity="0.302" /></g><g transform="rotate(-0.70 1536.0 1536.0)"><path d="M-368.6 2043.7 C -264.8 1934.0, -119.3 2139.3, -22.3 1933.0 C 81.5 1952.6, 227.0 2141.1, 324.0 1978.0 C 427.8 1999.4, 573.3 2105.1, 670.3 2062.8 C 774.1 2065.1, 919.6 2027.2, 1016.6 2136.1 C 1120.4 2130.0, 1265.9 1940.3, 1362.9 2153.3 C 1466.7 2131.8, 1612.2 1928.4, 1709.1 2104.1 C 1813.0 2109.6, 1958.5 1977.6, 2055.4 2018.3 C 2159.3 2024.3, 2304.8 2053.7, 2401.7 1947.9 C 2505.6 1980.1, 2651.1 2133.5, 2748.0 1935.6 C 2851.9 1920.3, 2997.4 2148.7, 3094.3 1989.0 C 3198.2 1970.7, 3343.7 2068.7, 3440.6 2075.5" fill="none" stroke="url(#ribbon1089)" stroke-width="26.4" stroke-linecap="round" stroke-opacity="0.328" /></g><g transform="rotate(-0.12 1536.0 1536.0)"><path d="M-368.6 2289.5 C -273.4 2377.1, -140.1 2152.6, -51.2 2362.8 C 44.0 2351.4, 177.4 2247.6, 266.2 2273.4 C 361.5 2278.2, 494.8 2301.3, 583.7 2193.8 C 678.9 2203.9, 812.2 2367.8, 901.1 2172.3 C 996.4 2153.0, 1129.7 2362.2, 1218.6 2221.9 C 1313.8 2240.4, 1447.1 2355.6, 1536.0 2312.5 C 1631.2 2311.8, 1764.6 2273.9, 1853.4 2389.2 C 1948.7 2379.2, 2082.0 2219.8, 2170.9 2405.5 C 2266.1 2428.2, 2399.4 2177.9, 2488.3 2351.4 C 2583.6 2330.3, 2716.9 2227.2, 2805.8 2259.8 C 2901.0 2248.9, 3034.3 2301.4, 3123.2 2186.2 C 3218.4 2148.0, 3351.8 2348.6, 3440.6 2175.3" fill="none" stroke="url(#ribbon1089)" stroke-width="22.4" stroke-linecap="round" stroke-opacity="0.354" /></g><g transform="rotate(0.46 1536.0 1536.0)"><path d="M-368.6 2517.4 C -225.8 2495.8, -25.8 2522.6, 107.5 2594.9 C 250.4 2583.5, 450.4 2443.5, 583.7 2642.6 C 726.5 2598.7, 926.5 2373.3, 1059.8 2614.3 C 1202.7 2600.9, 1402.7 2422.0, 1536.0 2527.2 C 1678.8 2529.3, 1878.8 2508.6, 2012.2 2434.2 C 2155.0 2416.1, 2355.0 2611.9, 2488.3 2391.6 C 2631.2 2391.2, 2831.2 2577.3, 2964.5 2425.3 C 3107.3 2423.1, 3307.3 2554.5, 3440.6 2514.9" fill="none" stroke="url(#ribbon1089)" stroke-width="18.4" stroke-linecap="round" stroke-opacity="0.380" /></g><g transform="rotate(1.04 1536.0 1536.0)"><path d="M-368.6 2600.6 C -241.7 2519.2, -63.9 2647.8, 54.6 2496.8 C 181.6 2473.3, 359.4 2714.8, 477.9 2587.9 C 604.8 2583.4, 782.6 2613.5, 901.1 2686.8 C 1028.1 2697.8, 1205.9 2549.8, 1324.4 2733.3 C 1451.3 2704.8, 1629.1 2537.7, 1747.6 2699.4 C 1874.6 2690.8, 2052.4 2556.9, 2170.9 2605.5 C 2297.9 2604.7, 2475.6 2597.0, 2594.1 2508.6 C 2721.1 2522.9, 2898.9 2656.7, 3017.4 2467.6 C 3144.4 2509.1, 3322.1 2751.5, 3440.6 2507.2" fill="none" stroke="url(#ribbon1089)" stroke-width="14.4" stroke-linecap="round" stroke-opacity="0.406" /></g></g>
  <g><ellipse cx="1536.0" cy="1551.9" rx="728.6" ry="605.7" fill="url(#extrude1089)" opacity="0.220" /><ellipse cx="1536.0" cy="1567.7" rx="736.0" ry="610.9" fill="url(#extrude1089)" opacity="0.205" /><ellipse cx="1536.0" cy="1583.6" rx="743.4" ry="616.1" fill="url(#extrude1089)" opacity="0.190" /><ellipse cx="1536.0" cy="1599.5" rx="750.9" ry="621.3" fill="url(#extrude1089)" opacity="0.175" /><ellipse cx="1536.0" cy="1615.4" rx="758.3" ry="626.5" fill="url(#extrude1089)" opacity="0.160" /><ellipse cx="1536.0" cy="1631.2" rx="765.7" ry="631.7" fill="url(#extrude1089)" opacity="0.145" /><ellipse cx="1536.0" cy="1647.1" rx="773.2" ry="636.9" fill="url(#extrude1089)" opacity="0.130" /><ellipse cx="1536.0" cy="1663.0" rx="780.6" ry="642.1" fill="url(#extrude1089)" opacity="0.115" /><ellipse cx="1536.0" cy="1678.8" rx="788.0" ry="647.4" fill="url(#extrude1089)" opacity="0.100" /><ellipse cx="1536.0" cy="1694.7" rx="795.5" ry="652.6" fill="url(#extrude1089)" opacity="0.085" /><ellipse cx="1536.0" cy="1710.6" rx="802.9" ry="657.8" fill="url(#extrude1089)" opacity="0.070" /><ellipse cx="1536.0" cy="1726.5" rx="810.3" ry="663.0" fill="url(#extrude1089)" opacity="0.055" /></g>
  <ellipse cx="1536.0" cy="1726.5" rx="773.2" ry="214.9" fill="#0B1D2D" opacity="0.24" />
  <ellipse cx="1536.0" cy="1536.0" rx="743.4" ry="651.3" fill="url(#orb1089)" stroke="#FFFFFF" stroke-opacity="0.42" stroke-width="7" />
  <ellipse cx="1431.9" cy="1392.7" rx="505.5" ry="299.6" fill="#FFFFFF" opacity="0.25" />
  <path d="M 199.4 399.4 C 1013.8 -30.7, 2058.2 768.0, 2872.6 215.0 L 2872.6 983.0 C 2089.0 1228.8, 1013.8 307.2, 199.4 1167.4 Z" fill="url(#glass1089)" />
  <rect x="270" y="270" width="2532" height="2532" rx="430" fill="none" stroke="#FFFFFF" stroke-opacity="0.30" stroke-width="5" />
  <rect x="288.4" y="288.4" width="2495.1" height="2495.1" rx="399" fill="none" stroke="#FF9F43" stroke-opacity="0.35" stroke-width="3" />
  <g filter="url(#soft1089)"><rect x="2075" y="346" width="56" height="2" fill="#FFFFFF" opacity="0.705" /><rect x="2102" y="319" width="2" height="56" fill="#FFFFFF" opacity="0.705" /><rect x="2271" y="1592" width="24" height="2" fill="#FFFFFF" opacity="0.344" /><rect x="2282" y="1581" width="2" height="24" fill="#FFFFFF" opacity="0.344" /><rect x="1464" y="1233" width="66" height="2" fill="#FFFFFF" opacity="0.750" /><rect x="1496" y="1201" width="2" height="66" fill="#FFFFFF" opacity="0.750" /><rect x="953" y="2186" width="34" height="2" fill="#FFFFFF" opacity="0.371" /><rect x="969" y="2170" width="2" height="34" fill="#FFFFFF" opacity="0.371" /><rect x="2176" y="546" width="82" height="2" fill="#FFFFFF" opacity="0.483" /><rect x="2216" y="506" width="2" height="82" fill="#FFFFFF" opacity="0.483" /><rect x="1186" y="2040" width="80" height="2" fill="#FFFFFF" opacity="0.572" /><rect x="1225" y="2001" width="2" height="80" fill="#FFFFFF" opacity="0.572" /><rect x="1788" y="2049" width="60" height="2" fill="#FFFFFF" opacity="0.649" /><rect x="1817" y="2020" width="2" height="60" fill="#FFFFFF" opacity="0.649" /><rect x="2233" y="2126" width="82" height="2" fill="#FFFFFF" opacity="0.643" /><rect x="2273" y="2086" width="2" height="82" fill="#FFFFFF" opacity="0.643" /><rect x="575" y="546" width="30" height="2" fill="#FFFFFF" opacity="0.346" /><rect x="589" y="532" width="2" height="30" fill="#FFFFFF" opacity="0.346" /><rect x="1387" y="864" width="76" height="2" fill="#FFFFFF" opacity="0.790" /><rect x="1424" y="827" width="2" height="76" fill="#FFFFFF" opacity="0.790" /><rect x="786" y="2449" width="48" height="2" fill="#FFFFFF" opacity="0.350" /><rect x="809" y="2426" width="2" height="48" fill="#FFFFFF" opacity="0.350" /><rect x="951" y="602" width="46" height="2" fill="#FFFFFF" opacity="0.472" /><rect x="973" y="580" width="2" height="46" fill="#FFFFFF" opacity="0.472" /><rect x="2340" y="1795" width="82" height="2" fill="#FFFFFF" opacity="0.302" /><rect x="2380" y="1755" width="2" height="82" fill="#FFFFFF" opacity="0.302" /><rect x="1383" y="2285" width="24" height="2" fill="#FFFFFF" opacity="0.342" /><rect x="1394" y="2274" width="2" height="24" fill="#FFFFFF" opacity="0.342" /><rect x="2386" y="2391" width="32" height="2" fill="#FFFFFF" opacity="0.726" /><rect x="2401" y="2376" width="2" height="32" fill="#FFFFFF" opacity="0.726" /><rect x="961" y="917" width="58" height="2" fill="#FFFFFF" opacity="0.776" /><rect x="989" y="889" width="2" height="58" fill="#FFFFFF" opacity="0.776" /><rect x="1167" y="441" width="60" height="2" fill="#FFFFFF" opacity="0.551" /><rect x="1196" y="412" width="2" height="60" fill="#FFFFFF" opacity="0.551" /><rect x="1961" y="1958" width="72" height="2" fill="#FFFFFF" opacity="0.315" /><rect x="1996" y="1923" width="2" height="72" fill="#FFFFFF" opacity="0.315" /><rect x="2170" y="708" width="58" height="2" fill="#FFFFFF" opacity="0.584" /><rect x="2198" y="680" width="2" height="58" fill="#FFFFFF" opacity="0.584" /><rect x="465" y="721" width="24" height="2" fill="#FFFFFF" opacity="0.586" /><rect x="476" y="710" width="2" height="24" fill="#FFFFFF" opacity="0.586" /><rect x="640" y="714" width="48" height="2" fill="#FFFFFF" opacity="0.822" /><rect x="663" y="691" width="2" height="48" fill="#FFFFFF" opacity="0.822" /><rect x="2772" y="350" width="84" height="2" fill="#FFFFFF" opacity="0.686" /><rect x="2813" y="309" width="2" height="84" fill="#FFFFFF" opacity="0.686" /><rect x="1484" y="924" width="28" height="2" fill="#FFFFFF" opacity="0.416" /><rect x="1497" y="911" width="2" height="28" fill="#FFFFFF" opacity="0.416" /><rect x="771" y="348" width="60" height="2" fill="#FFFFFF" opacity="0.799" /><rect x="800" y="319" width="2" height="60" fill="#FFFFFF" opacity="0.799" /><rect x="693" y="595" width="78" height="2" fill="#FFFFFF" opacity="0.829" /><rect x="731" y="557" width="2" height="78" fill="#FFFFFF" opacity="0.829" /><rect x="1014" y="1013" width="74" height="2" fill="#FFFFFF" opacity="0.770" /><rect x="1050" y="977" width="2" height="74" fill="#FFFFFF" opacity="0.770" /></g>
  <g opacity="0.52"><rect x="1060" y="1070" width="1024" height="1024" rx="153" fill="none" stroke="#0C2030" stroke-width="90" /><line x1="1316" y1="1326" x2="1828" y2="1838" stroke="#0C2030" stroke-width="90" stroke-linecap="round" /><line x1="1828" y1="1326" x2="1316" y2="1838" stroke="#0C2030" stroke-width="90" stroke-linecap="round" /></g>
  <g filter="url(#soft1089)"><rect x="1024" y="1024" width="1024" height="1024" rx="153" fill="none" stroke="url(#symbol1089)" stroke-width="90" /><line x1="1280" y1="1280" x2="1792" y2="1792" stroke="url(#symbol1089)" stroke-width="90" stroke-linecap="round" /><line x1="1792" y1="1280" x2="1280" y2="1792" stroke="url(#symbol1089)" stroke-width="90" stroke-linecap="round" /></g>
  <rect x="138" y="138" width="2796" height="2796" rx="629" fill="#FFFFFF" filter="url(#grain1089)" opacity="0.18" />
</svg>
