<svg xmlns="http://www.w3.org/2000/svg" width="3072" height="3072" viewBox="0 0 3072 3072">
  <title>QuartzOS System Icon 010 - mail_01</title>
  <defs><linearGradient id="bg1009" x1="0%" y1="0%" x2="100%" y2="100%"><stop offset="0%" stop-color="#3B82FF" /><stop offset="26%" stop-color="#FF6AB3" /><stop offset="56%" stop-color="#FFD84D" /><stop offset="78%" stop-color="#2E8D96" /><stop offset="100%" stop-color="#0F2A2E" /></linearGradient><radialGradient id="sun1009" cx="31%" cy="37%" r="88%"><stop offset="0%" stop-color="#FFFFFF" stop-opacity="0.62" /><stop offset="30%" stop-color="#53E3A6" stop-opacity="0.35" /><stop offset="100%" stop-color="#53E3A6" stop-opacity="0" /></radialGradient><linearGradient id="glass1009" x1="0%" y1="0%" x2="0%" y2="100%"><stop offset="0%" stop-color="#FFFFFF" stop-opacity="0.70" /><stop offset="46%" stop-color="#FFFFFF" stop-opacity="0.26" /><stop offset="100%" stop-color="#FFFFFF" stop-opacity="0.00" /></linearGradient><linearGradient id="ribbon1009" x1="0%" y1="0%" x2="100%" y2="0%"><stop offset="0%" stop-color="#3B82FF" stop-opacity="0.18" /><stop offset="34%" stop-color="#FF6AB3" stop-opacity="0.72" /><stop offset="66%" stop-color="#FFD84D" stop-opacity="0.72" /><stop offset="100%" stop-color="#53E3A6" stop-opacity="0.18" /></linearGradient><radialGradient id="orb1009" cx="34%" cy="27%" r="74%"><stop offset="0%" stop-color="#FFFFFF" stop-opacity="0.84" /><stop offset="30%" stop-color="#3B82FF" stop-opacity="0.52" /><stop offset="68%" stop-color="#FF6AB3" stop-opacity="0.42" /><stop offset="100%" stop-color="#FFD84D" stop-opacity="0.20" /></radialGradient><linearGradient id="extrude1009" x1="0%" y1="0%" x2="0%" y2="100%"><stop offset="0%" stop-color="#15283C" stop-opacity="0.45" /><stop offset="100%" stop-color="#08131D" stop-opacity="0.06" /></linearGradient><linearGradient id="symbol1009" x1="0%" y1="0%" x2="100%" y2="100%"><stop offset="0%" stop-color="#FFFFFF" /><stop offset="100%" stop-color="#53E3A6" /></linearGradient><filter id="shadow1009" x="-40%" y="-40%" width="180%" height="180%"><feDropShadow dx="0" dy="49" stdDeviation="86" flood-color="#06111A" flood-opacity="0.54" /></filter><filter id="soft1009" x="-40%" y="-40%" width="180%" height="180%"><feDropShadow dx="0" dy="0" stdDeviation="14" flood-color="#3B82FF" flood-opacity="0.45" /></filter><filter id="grain1009"><feTurbulence type="fractalNoise" baseFrequency="0.694" numOctaves="2" seed="1009" /><feColorMatrix type="saturate" values="0" /><feComponentTransfer><feFuncA type="table" tableValues="0 0.09" /></feComponentTransfer></filter></defs>
  <rect x="138" y="138" width="2796" height="2796" rx="629" fill="url(#bg1009)" filter="url(#shadow1009)" />
  <rect x="138" y="138" width="2796" height="2796" rx="629" fill="url(#sun1009)" />
  <g><circle cx="1935" cy="640" r="37" fill="#FFFFFF" opacity="0.101" /><circle cx="1039" cy="1802" r="153" fill="#FFFFFF" opacity="0.233" /><circle cx="624" cy="836" r="48" fill="#FFFFFF" opacity="0.165" /><circle cx="814" cy="2381" r="57" fill="#FFFFFF" opacity="0.159" /><circle cx="2280" cy="1323" r="74" fill="#FFFFFF" opacity="0.156" /><circle cx="521" cy="408" r="98" fill="#FFFFFF" opacity="0.185" /><circle cx="395" cy="2214" r="83" fill="#FFFFFF" opacity="0.113" /><circle cx="2359" cy="975" r="117" fill="#FFFFFF" opacity="0.223" /><circle cx="1154" cy="351" r="151" fill="#FFFFFF" opacity="0.201" /><circle cx="926" cy="2372" r="99" fill="#FFFFFF" opacity="0.068" /><circle cx="2296" cy="2039" r="97" fill="#FFFFFF" opacity="0.205" /><circle cx="1559" cy="1099" r="76" fill="#FFFFFF" opacity="0.146" /><circle cx="726" cy="2384" r="91" fill="#FFFFFF" opacity="0.190" /><circle cx="2041" cy="1838" r="141" fill="#FFFFFF" opacity="0.214" /><circle cx="858" cy="723" r="122" fill="#FFFFFF" opacity="0.192" /><circle cx="723" cy="1203" r="56" fill="#FFFFFF" opacity="0.126" /><circle cx="2667" cy="1825" r="68" fill="#FFFFFF" opacity="0.190" /><circle cx="709" cy="404" r="79" fill="#FFFFFF" opacity="0.173" /><circle cx="2153" cy="475" r="99" fill="#FFFFFF" opacity="0.171" /><circle cx="751" cy="1277" r="37" fill="#FFFFFF" opacity="0.079" /><circle cx="1870" cy="2141" r="90" fill="#FFFFFF" opacity="0.126" /><circle cx="899" cy="2476" r="104" fill="#FFFFFF" opacity="0.075" /><circle cx="1173" cy="665" r="101" fill="#FFFFFF" opacity="0.143" /><circle cx="1859" cy="599" r="78" fill="#FFFFFF" opacity="0.101" /><circle cx="1198" cy="1633" r="105" fill="#FFFFFF" opacity="0.238" /><circle cx="425" cy="1046" r="108" fill="#FFFFFF" opacity="0.186" /><circle cx="1240" cy="362" r="63" fill="#FFFFFF" opacity="0.116" /><circle cx="1976" cy="2681" r="51" fill="#FFFFFF" opacity="0.208" /></g>
  <g><path d="M 195.3 574.6 L 2794.3 298.2 L 2794.3 735.4 L 195.3 1011.9 Z" fill="#FFFFFF" opacity="0.124" /><path d="M 376.8 886.8 L 2754.8 610.3 L 2754.8 1040.4 L 376.8 1316.8 Z" fill="#FFFFFF" opacity="0.119" /><path d="M 350.9 1161.9 L 2866.1 885.4 L 2866.1 1327.7 L 350.9 1604.2 Z" fill="#FFFFFF" opacity="0.172" /><path d="M 335.8 1359.5 L 2890.8 1083.0 L 2890.8 1510.9 L 335.8 1787.4 Z" fill="#FFFFFF" opacity="0.187" /><path d="M 289.7 1679.0 L 2749.4 1402.5 L 2749.4 1870.6 L 289.7 2147.1 Z" fill="#FFFFFF" opacity="0.109" /><path d="M 364.2 1906.7 L 2882.6 1630.3 L 2882.6 2123.7 L 364.2 2400.2 Z" fill="#FFFFFF" opacity="0.121" /><path d="M 369.8 2138.3 L 2872.5 1861.9 L 2872.5 2339.6 L 369.8 2616.0 Z" fill="#FFFFFF" opacity="0.146" /><path d="M 239.9 2420.1 L 2762.0 2143.6 L 2762.0 2586.0 L 239.9 2862.5 Z" fill="#FFFFFF" opacity="0.216" /></g>
  <g filter="url(#soft1009)"><g transform="rotate(-14.99 1536.0 1536.0)"><path d="M-368.6 581.5 C -225.8 552.9, -25.8 594.2, 107.5 529.7 C 250.4 509.8, 450.4 631.0, 583.7 531.6 C 726.5 535.1, 926.5 601.9, 1059.8 563.8 C 1202.7 568.6, 1402.7 601.9, 1536.0 606.7 C 1678.8 596.7, 1878.8 553.5, 2012.2 634.4 C 2155.0 635.9, 2355.0 542.6, 2488.3 630.0 C 2631.2 617.6, 2831.2 532.7, 2964.5 596.2 C 3107.3 600.4, 3307.3 564.2, 3440.6 553.5" fill="none" stroke="url(#ribbon1009)" stroke-width="58.4" stroke-linecap="round" stroke-opacity="0.120" /></g><g transform="rotate(-14.41 1536.0 1536.0)"><path d="M-368.6 745.5 C -241.7 796.8, -63.9 707.0, 54.6 807.7 C 181.6 809.6, 359.4 685.7, 477.9 785.9 C 604.8 787.1, 782.6 702.0, 901.1 739.6 C 1028.1 739.8, 1205.9 751.8, 1324.4 696.9 C 1451.3 702.2, 1629.1 800.4, 1747.6 683.6 C 1874.6 687.8, 2052.4 771.3, 2170.9 707.9 C 2297.9 695.2, 2475.6 764.4, 2594.1 754.9 C 2721.1 752.5, 2898.9 739.6, 3017.4 796.3 C 3144.4 794.6, 3322.1 725.8, 3440.6 806.8" fill="none" stroke="url(#ribbon1009)" stroke-width="54.4" stroke-linecap="round" stroke-opacity="0.146" /></g><g transform="rotate(-13.83 1536.0 1536.0)"><path d="M-368.6 919.3 C -254.4 871.5, -94.4 961.2, 12.3 924.9 C 126.6 924.2, 286.6 917.2, 393.2 972.9 C 507.5 978.0, 667.5 895.6, 774.1 988.3 C 888.4 988.5, 1048.4 844.3, 1155.1 961.8 C 1269.4 956.5, 1429.3 899.7, 1536.0 909.6 C 1650.3 911.3, 1810.3 928.8, 1916.9 863.2 C 2031.2 848.5, 2191.2 939.0, 2297.9 850.8 C 2412.1 835.7, 2572.1 966.0, 2678.8 880.0 C 2793.1 890.2, 2953.1 934.5, 3059.7 933.0 C 3174.0 928.0, 3334.0 904.1, 3440.6 977.6" fill="none" stroke="url(#ribbon1009)" stroke-width="50.4" stroke-linecap="round" stroke-opacity="0.172" /></g><g transform="rotate(-13.25 1536.0 1536.0)"><path d="M-368.6 1136.8 C -264.8 1129.9, -119.3 1141.3, -22.3 1184.2 C 81.5 1188.9, 227.0 1110.7, 324.0 1212.9 C 427.8 1188.3, 573.3 1088.8, 670.3 1195.5 C 774.1 1187.3, 919.6 1096.0, 1016.6 1142.5 C 1120.4 1144.1, 1265.9 1134.5, 1362.9 1086.1 C 1466.7 1078.3, 1612.2 1186.6, 1709.1 1060.4 C 1813.0 1077.4, 1958.5 1198.4, 2055.4 1081.1 C 2159.3 1101.5, 2304.8 1165.2, 2401.7 1135.6 C 2505.6 1136.0, 2651.1 1137.4, 2748.0 1190.9 C 2851.9 1196.4, 2997.4 1103.1, 3094.3 1213.3 C 3198.2 1199.6, 3343.7 1066.3, 3440.6 1189.4" fill="none" stroke="url(#ribbon1009)" stroke-width="46.4" stroke-linecap="round" stroke-opacity="0.198" /></g><g transform="rotate(-12.67 1536.0 1536.0)"><path d="M-368.6 1333.1 C -273.4 1411.1, -140.1 1247.9, -51.2 1412.8 C 44.0 1432.5, 177.4 1300.7, 266.2 1370.6 C 361.5 1365.9, 494.8 1305.8, 583.7 1305.7 C 678.9 1307.4, 812.2 1357.1, 901.1 1257.4 C 996.4 1263.3, 1129.7 1396.4, 1218.6 1255.0 C 1313.8 1244.4, 1447.1 1388.6, 1536.0 1300.0 C 1631.2 1299.2, 1764.6 1345.9, 1853.4 1365.0 C 1948.7 1363.2, 2082.0 1295.8, 2170.9 1410.7 C 2266.1 1402.2, 2399.4 1278.2, 2488.3 1409.3 C 2583.6 1421.9, 2716.9 1293.5, 2805.8 1361.7 C 2901.0 1356.5, 3034.3 1311.0, 3123.2 1296.7 C 3218.4 1288.4, 3351.8 1363.6, 3440.6 1253.8" fill="none" stroke="url(#ribbon1009)" stroke-width="42.4" stroke-linecap="round" stroke-opacity="0.224" /></g><g transform="rotate(-12.09 1536.0 1536.0)"><path d="M-368.6 1433.5 C -225.8 1369.4, -25.8 1485.8, 107.5 1342.9 C 250.4 1360.9, 450.4 1468.1, 583.7 1368.8 C 726.5 1354.5, 926.5 1459.6, 1059.8 1434.0 C 1202.7 1434.1, 1402.7 1433.0, 1536.0 1498.9 C 1678.8 1477.5, 1878.8 1377.8, 2012.2 1524.1 C 2155.0 1547.5, 2355.0 1372.7, 2488.3 1494.4 C 2631.2 1514.5, 2831.2 1414.7, 2964.5 1427.8 C 3107.3 1429.2, 3307.3 1438.2, 3440.6 1364.7" fill="none" stroke="url(#ribbon1009)" stroke-width="38.4" stroke-linecap="round" stroke-opacity="0.250" /></g><g transform="rotate(-11.51 1536.0 1536.0)"><path d="M-368.6 1702.2 C -241.7 1643.4, -63.9 1781.8, 54.6 1613.8 C 181.6 1587.3, 359.4 1754.9, 477.9 1670.5 C 604.8 1678.9, 782.6 1714.4, 901.1 1746.4 C 1028.1 1738.1, 1205.9 1651.5, 1324.4 1795.5 C 1451.3 1780.6, 1629.1 1594.6, 1747.6 1788.0 C 1874.6 1793.7, 2052.4 1669.7, 2170.9 1728.5 C 2297.9 1728.8, 2475.6 1693.6, 2594.1 1653.1 C 2721.1 1634.6, 2898.9 1726.3, 3017.4 1607.4 C 3144.4 1619.4, 3322.1 1770.2, 3440.6 1619.3" fill="none" stroke="url(#ribbon1009)" stroke-width="34.4" stroke-linecap="round" stroke-opacity="0.276" /></g><g transform="rotate(-10.93 1536.0 1536.0)"><path d="M-368.6 1847.6 C -254.4 1835.4, -94.4 1864.9, 12.3 1761.4 C 126.6 1782.8, 286.6 1949.9, 393.2 1744.8 C 507.5 1778.1, 667.5 1912.3, 774.1 1790.5 C 888.4 1785.2, 1048.4 1873.0, 1155.1 1870.9 C 1269.4 1875.5, 1429.3 1835.1, 1536.0 1937.1 C 1650.3 1914.7, 1810.3 1810.9, 1916.9 1949.0 C 2031.2 1979.4, 2191.2 1781.0, 2297.9 1899.4 C 2412.1 1880.8, 2572.1 1801.6, 2678.8 1818.4 C 2793.1 1825.7, 2953.1 1878.2, 3059.7 1755.1 C 3174.0 1751.7, 3334.0 1905.0, 3440.6 1747.9" fill="none" stroke="url(#ribbon1009)" stroke-width="30.4" stroke-linecap="round" stroke-opacity="0.302" /></g><g transform="rotate(-10.35 1536.0 1536.0)"><path d="M-368.6 2037.2 C -264.8 1917.9, -119.3 2102.7, -22.3 1926.3 C 81.5 1945.6, 227.0 2113.8, 324.0 1970.6 C 427.8 1957.4, 573.3 2096.0, 670.3 2055.2 C 774.1 2052.7, 919.6 2021.3, 1016.6 2128.9 C 1120.4 2093.0, 1265.9 1968.5, 1362.9 2147.0 C 1466.7 2125.4, 1612.2 1989.6, 1709.1 2098.4 C 1813.0 2112.8, 1958.5 2000.4, 2055.4 2012.7 C 2159.3 2004.6, 2304.8 2062.3, 2401.7 1941.9 C 2505.6 1928.1, 2651.1 2074.7, 2748.0 1928.8 C 2851.9 1909.4, 2997.4 2165.5, 3094.3 1981.5 C 3198.2 1963.7, 3343.7 2058.1, 3440.6 2067.9" fill="none" stroke="url(#ribbon1009)" stroke-width="26.4" stroke-linecap="round" stroke-opacity="0.328" /></g><g transform="rotate(-9.77 1536.0 1536.0)"><path d="M-368.6 2306.5 C -273.4 2401.5, -140.1 2240.3, -51.2 2425.2 C 44.0 2401.6, 177.4 2267.6, 266.2 2384.0 C 361.5 2367.8, 494.8 2235.5, 583.7 2295.8 C 678.9 2298.9, 812.2 2312.2, 901.1 2214.1 C 996.4 2239.7, 1129.7 2381.0, 1218.6 2188.5 C 1313.8 2193.1, 1447.1 2438.1, 1536.0 2234.4 C 1631.2 2218.8, 1764.6 2368.1, 1853.4 2324.1 C 1948.7 2325.9, 2082.0 2288.6, 2170.9 2403.1 C 2266.1 2368.7, 2399.4 2227.5, 2488.3 2423.5 C 2583.6 2438.3, 2716.9 2218.1, 2805.8 2372.9 C 2901.0 2351.7, 3034.3 2258.9, 3123.2 2282.0 C 3218.4 2288.3, 3351.8 2314.8, 3440.6 2206.0" fill="none" stroke="url(#ribbon1009)" stroke-width="22.4" stroke-linecap="round" stroke-opacity="0.354" /></g><g transform="rotate(-9.19 1536.0 1536.0)"><path d="M-368.6 2397.1 C -225.8 2311.0, -25.8 2440.9, 107.5 2351.2 C 250.4 2353.8, 450.4 2416.0, 583.7 2449.3 C 726.5 2447.4, 926.5 2338.5, 1059.8 2515.7 C 1202.7 2509.2, 1402.7 2265.6, 1536.0 2510.2 C 1678.8 2471.1, 1878.8 2298.4, 2012.2 2436.1 C 2155.0 2437.9, 2355.0 2356.1, 2488.3 2338.4 C 2631.2 2351.0, 2831.2 2427.8, 2964.5 2276.3 C 3107.3 2301.4, 3307.3 2540.7, 3440.6 2287.5" fill="none" stroke="url(#ribbon1009)" stroke-width="18.4" stroke-linecap="round" stroke-opacity="0.380" /></g><g transform="rotate(-8.61 1536.0 1536.0)"><path d="M-368.6 2653.2 C -241.7 2553.3, -63.9 2675.7, 54.6 2522.4 C 181.6 2543.5, 359.4 2740.3, 477.9 2544.7 C 604.8 2528.6, 782.6 2759.3, 901.1 2632.8 C 1028.1 2628.6, 1205.9 2674.6, 1324.4 2733.2 C 1451.3 2754.3, 1629.1 2565.7, 1747.6 2785.2 C 1874.6 2829.3, 2052.4 2588.4, 2170.9 2757.0 C 2297.9 2738.0, 2475.6 2602.4, 2594.1 2665.9 C 2721.1 2666.4, 2898.9 2649.3, 3017.4 2567.0 C 3144.4 2571.2, 3322.1 2755.4, 3440.6 2520.4" fill="none" stroke="url(#ribbon1009)" stroke-width="14.4" stroke-linecap="round" stroke-opacity="0.406" /></g></g>
  <g><ellipse cx="1536.0" cy="1551.9" rx="728.6" ry="605.7" fill="url(#extrude1009)" opacity="0.220" /><ellipse cx="1536.0" cy="1567.7" rx="736.0" ry="610.9" fill="url(#extrude1009)" opacity="0.205" /><ellipse cx="1536.0" cy="1583.6" rx="743.4" ry="616.1" fill="url(#extrude1009)" opacity="0.190" /><ellipse cx="1536.0" cy="1599.5" rx="750.9" ry="621.3" fill="url(#extrude1009)" opacity="0.175" /><ellipse cx="1536.0" cy="1615.4" rx="758.3" ry="626.5" fill="url(#extrude1009)" opacity="0.160" /><ellipse cx="1536.0" cy="1631.2" rx="765.7" ry="631.7" fill="url(#extrude1009)" opacity="0.145" /><ellipse cx="1536.0" cy="1647.1" rx="773.2" ry="636.9" fill="url(#extrude1009)" opacity="0.130" /><ellipse cx="1536.0" cy="1663.0" rx="780.6" ry="642.1" fill="url(#extrude1009)" opacity="0.115" /><ellipse cx="1536.0" cy="1678.8" rx="788.0" ry="647.4" fill="url(#extrude1009)" opacity="0.100" /><ellipse cx="1536.0" cy="1694.7" rx="795.5" ry="652.6" fill="url(#extrude1009)" opacity="0.085" /><ellipse cx="1536.0" cy="1710.6" rx="802.9" ry="657.8" fill="url(#extrude1009)" opacity="0.070" /><ellipse cx="1536.0" cy="1726.5" rx="810.3" ry="663.0" fill="url(#extrude1009)" opacity="0.055" /></g>
  <ellipse cx="1536.0" cy="1726.5" rx="773.2" ry="214.9" fill="#0B1D2D" opacity="0.24" />
  <ellipse cx="1536.0" cy="1536.0" rx="743.4" ry="651.3" fill="url(#orb1009)" stroke="#FFFFFF" stroke-opacity="0.42" stroke-width="7" />
  <ellipse cx="1431.9" cy="1392.7" rx="505.5" ry="299.6" fill="#FFFFFF" opacity="0.25" />
  <path d="M 199.4 399.4 C 1013.8 -30.7, 2058.2 768.0, 2872.6 215.0 L 2872.6 983.0 C 2089.0 1228.8, 1013.8 307.2, 199.4 1167.4 Z" fill="url(#glass1009)" />
  <rect x="270" y="270" width="2532" height="2532" rx="430" fill="none" stroke="#FFFFFF" stroke-opacity="0.30" stroke-width="5" />
  <rect x="288.4" y="288.4" width="2495.1" height="2495.1" rx="399" fill="none" stroke="#3B82FF" stroke-opacity="0.35" stroke-width="3" />
  <g filter="url(#soft1009)"><rect x="2384" y="621" width="68" height="2" fill="#FFFFFF" opacity="0.474" /><rect x="2417" y="588" width="2" height="68" fill="#FFFFFF" opacity="0.474" /><rect x="889" y="676" width="38" height="2" fill="#FFFFFF" opacity="0.528" /><rect x="907" y="658" width="2" height="38" fill="#FFFFFF" opacity="0.528" /><rect x="2498" y="2560" width="24" height="2" fill="#FFFFFF" opacity="0.530" /><rect x="2509" y="2549" width="2" height="24" fill="#FFFFFF" opacity="0.530" /><rect x="1218" y="2076" width="34" height="2" fill="#FFFFFF" opacity="0.805" /><rect x="1234" y="2060" width="2" height="34" fill="#FFFFFF" opacity="0.805" /><rect x="410" y="978" width="52" height="2" fill="#FFFFFF" opacity="0.567" /><rect x="435" y="953" width="2" height="52" fill="#FFFFFF" opacity="0.567" /><rect x="2410" y="1992" width="36" height="2" fill="#FFFFFF" opacity="0.738" /><rect x="2427" y="1975" width="2" height="36" fill="#FFFFFF" opacity="0.738" /><rect x="1042" y="920" width="80" height="2" fill="#FFFFFF" opacity="0.394" /><rect x="1081" y="881" width="2" height="80" fill="#FFFFFF" opacity="0.394" /><rect x="1961" y="932" width="60" height="2" fill="#FFFFFF" opacity="0.639" /><rect x="1990" y="903" width="2" height="60" fill="#FFFFFF" opacity="0.639" /><rect x="2196" y="1667" width="80" height="2" fill="#FFFFFF" opacity="0.676" /><rect x="2235" y="1628" width="2" height="80" fill="#FFFFFF" opacity="0.676" /><rect x="930" y="2094" width="54" height="2" fill="#FFFFFF" opacity="0.706" /><rect x="956" y="2068" width="2" height="54" fill="#FFFFFF" opacity="0.706" /><rect x="1701" y="1250" width="26" height="2" fill="#FFFFFF" opacity="0.554" /><rect x="1713" y="1238" width="2" height="26" fill="#FFFFFF" opacity="0.554" /><rect x="999" y="1791" width="48" height="2" fill="#FFFFFF" opacity="0.658" /><rect x="1022" y="1768" width="2" height="48" fill="#FFFFFF" opacity="0.658" /><rect x="856" y="1746" width="36" height="2" fill="#FFFFFF" opacity="0.671" /><rect x="873" y="1729" width="2" height="36" fill="#FFFFFF" opacity="0.671" /><rect x="538" y="807" width="84" height="2" fill="#FFFFFF" opacity="0.369" /><rect x="579" y="766" width="2" height="84" fill="#FFFFFF" opacity="0.369" /><rect x="1964" y="254" width="32" height="2" fill="#FFFFFF" opacity="0.590" /><rect x="1979" y="239" width="2" height="32" fill="#FFFFFF" opacity="0.590" /><rect x="2204" y="1435" width="60" height="2" fill="#FFFFFF" opacity="0.394" /><rect x="2233" y="1406" width="2" height="60" fill="#FFFFFF" opacity="0.394" /><rect x="1914" y="801" width="66" height="2" fill="#FFFFFF" opacity="0.508" /><rect x="1946" y="769" width="2" height="66" fill="#FFFFFF" opacity="0.508" /><rect x="1577" y="254" width="28" height="2" fill="#FFFFFF" opacity="0.751" /><rect x="1590" y="241" width="2" height="28" fill="#FFFFFF" opacity="0.751" /><rect x="2592" y="1853" width="64" height="2" fill="#FFFFFF" opacity="0.669" /><rect x="2623" y="1822" width="2" height="64" fill="#FFFFFF" opacity="0.669" /><rect x="2628" y="1855" width="60" height="2" fill="#FFFFFF" opacity="0.690" /><rect x="2657" y="1826" width="2" height="60" fill="#FFFFFF" opacity="0.690" /><rect x="2321" y="2246" width="24" height="2" fill="#FFFFFF" opacity="0.673" /><rect x="2332" y="2235" width="2" height="24" fill="#FFFFFF" opacity="0.673" /><rect x="1876" y="600" width="52" height="2" fill="#FFFFFF" opacity="0.565" /><rect x="1901" y="575" width="2" height="52" fill="#FFFFFF" opacity="0.565" /><rect x="1384" y="337" width="78" height="2" fill="#FFFFFF" opacity="0.333" /><rect x="1422" y="299" width="2" height="78" fill="#FFFFFF" opacity="0.333" /><rect x="1425" y="958" width="34" height="2" fill="#FFFFFF" opacity="0.301" /><rect x="1441" y="942" width="2" height="34" fill="#FFFFFF" opacity="0.301" /><rect x="1674" y="1517" width="28" height="2" fill="#FFFFFF" opacity="0.430" /><rect x="1687" y="1504" width="2" height="28" fill="#FFFFFF" opacity="0.430" /><rect x="963" y="841" width="42" height="2" fill="#FFFFFF" opacity="0.507" /><rect x="983" y="821" width="2" height="42" fill="#FFFFFF" opacity="0.507" /></g>
  <g opacity="0.52"><rect x="1023" y="1070" width="768" height="768" rx="128" fill="none" stroke="#0C2030" stroke-width="90" /><path d="M1023 1582 L1572 1363 L2121 1582 L1572 2094 Z" fill="none" stroke="#0C2030" stroke-width="90" stroke-linejoin="round" /></g>
  <g filter="url(#soft1009)"><rect x="987" y="1024" width="768" height="768" rx="128" fill="none" stroke="url(#symbol1009)" stroke-width="90" /><path d="M987 1536 L1536 1317 L2085 1536 L1536 2048 Z" fill="none" stroke="url(#symbol1009)" stroke-width="90" stroke-linejoin="round" /></g>
  <rect x="138" y="138" width="2796" height="2796" rx="629" fill="#FFFFFF" filter="url(#grain1009)" opacity="0.18" />
</svg>
