<svg xmlns="http://www.w3.org/2000/svg" width="3072" height="3072" viewBox="0 0 3072 3072">
  <title>QuartzOS System Icon 070 - mail_04</title>
  <defs><linearGradient id="bg1069" x1="0%" y1="0%" x2="100%" y2="100%"><stop offset="0%" stop-color="#FFD84D" /><stop offset="26%" stop-color="#36D1FF" /><stop offset="56%" stop-color="#8A5CFF" /><stop offset="78%" stop-color="#2E8D96" /><stop offset="100%" stop-color="#0F2A2E" /></linearGradient><radialGradient id="sun1069" cx="46%" cy="22%" r="88%"><stop offset="0%" stop-color="#FFFFFF" stop-opacity="0.62" /><stop offset="30%" stop-color="#FF6AB3" stop-opacity="0.35" /><stop offset="100%" stop-color="#FF6AB3" stop-opacity="0" /></radialGradient><linearGradient id="glass1069" x1="0%" y1="0%" x2="0%" y2="100%"><stop offset="0%" stop-color="#FFFFFF" stop-opacity="0.70" /><stop offset="46%" stop-color="#FFFFFF" stop-opacity="0.26" /><stop offset="100%" stop-color="#FFFFFF" stop-opacity="0.00" /></linearGradient><linearGradient id="ribbon1069" x1="0%" y1="0%" x2="100%" y2="0%"><stop offset="0%" stop-color="#FFD84D" stop-opacity="0.18" /><stop offset="34%" stop-color="#36D1FF" stop-opacity="0.72" /><stop offset="66%" stop-color="#8A5CFF" stop-opacity="0.72" /><stop offset="100%" stop-color="#FF6AB3" stop-opacity="0.18" /></linearGradient><radialGradient id="orb1069" cx="34%" cy="27%" r="74%"><stop offset="0%" stop-color="#FFFFFF" stop-opacity="0.84" /><stop offset="30%" stop-color="#FFD84D" stop-opacity="0.52" /><stop offset="68%" stop-color="#36D1FF" stop-opacity="0.42" /><stop offset="100%" stop-color="#8A5CFF" stop-opacity="0.20" /></radialGradient><linearGradient id="extrude1069" x1="0%" y1="0%" x2="0%" y2="100%"><stop offset="0%" stop-color="#15283C" stop-opacity="0.45" /><stop offset="100%" stop-color="#08131D" stop-opacity="0.06" /></linearGradient><linearGradient id="symbol1069" x1="0%" y1="0%" x2="100%" y2="100%"><stop offset="0%" stop-color="#FFFFFF" /><stop offset="100%" stop-color="#FF6AB3" /></linearGradient><filter id="shadow1069" x="-40%" y="-40%" width="180%" height="180%"><feDropShadow dx="0" dy="49" stdDeviation="86" flood-color="#06111A" flood-opacity="0.54" /></filter><filter id="soft1069" x="-40%" y="-40%" width="180%" height="180%"><feDropShadow dx="0" dy="0" stdDeviation="14" flood-color="#FFD84D" flood-opacity="0.45" /></filter><filter id="grain1069"><feTurbulence type="fractalNoise" baseFrequency="0.646" numOctaves="2" seed="1069" /><feColorMatrix type="saturate" values="0" /><feComponentTransfer><feFuncA type="table" tableValues="0 0.09" /></feComponentTransfer></filter></defs>
  <rect x="138" y="138" width="2796" height="2796" rx="629" fill="url(#bg1069)" filter="url(#shadow1069)" />
  <rect x="138" y="138" width="2796" height="2796" rx="629" fill="url(#sun1069)" />
  <g><circle cx="2499" cy="1832" r="46" fill="#FFFFFF" opacity="0.064" /><circle cx="1583" cy="2654" r="90" fill="#FFFFFF" opacity="0.223" /><circle cx="581" cy="1964" r="89" fill="#FFFFFF" opacity="0.112" /><circle cx="1711" cy="613" r="159" fill="#FFFFFF" opacity="0.160" /><circle cx="979" cy="1988" r="77" fill="#FFFFFF" opacity="0.098" /><circle cx="1741" cy="608" r="84" fill="#FFFFFF" opacity="0.155" /><circle cx="1356" cy="1054" r="84" fill="#FFFFFF" opacity="0.101" /><circle cx="2180" cy="1061" r="92" fill="#FFFFFF" opacity="0.112" /><circle cx="688" cy="2624" r="122" fill="#FFFFFF" opacity="0.073" /><circle cx="2468" cy="529" r="80" fill="#FFFFFF" opacity="0.120" /><circle cx="1698" cy="1365" r="127" fill="#FFFFFF" opacity="0.215" /><circle cx="2033" cy="2056" r="58" fill="#FFFFFF" opacity="0.203" /><circle cx="2345" cy="1356" r="54" fill="#FFFFFF" opacity="0.203" /><circle cx="2057" cy="890" r="76" fill="#FFFFFF" opacity="0.186" /><circle cx="2042" cy="888" r="65" fill="#FFFFFF" opacity="0.126" /><circle cx="976" cy="1118" r="125" fill="#FFFFFF" opacity="0.185" /><circle cx="1613" cy="1381" r="87" fill="#FFFFFF" opacity="0.092" /><circle cx="2386" cy="1289" r="144" fill="#FFFFFF" opacity="0.132" /><circle cx="1630" cy="2072" r="74" fill="#FFFFFF" opacity="0.116" /><circle cx="2661" cy="1759" r="119" fill="#FFFFFF" opacity="0.112" /><circle cx="1496" cy="2041" r="138" fill="#FFFFFF" opacity="0.099" /><circle cx="2647" cy="2598" r="42" fill="#FFFFFF" opacity="0.086" /><circle cx="1576" cy="2388" r="146" fill="#FFFFFF" opacity="0.103" /><circle cx="1415" cy="1651" r="89" fill="#FFFFFF" opacity="0.076" /><circle cx="1400" cy="1371" r="51" fill="#FFFFFF" opacity="0.174" /><circle cx="2408" cy="2325" r="43" fill="#FFFFFF" opacity="0.088" /><circle cx="925" cy="1670" r="64" fill="#FFFFFF" opacity="0.097" /><circle cx="1647" cy="2365" r="40" fill="#FFFFFF" opacity="0.135" /></g>
  <g><path d="M 222.2 653.6 L 2741.9 377.1 L 2741.9 831.9 L 222.2 1108.4 Z" fill="#FFFFFF" opacity="0.215" /><path d="M 197.8 892.5 L 2856.3 616.0 L 2856.3 1091.5 L 197.8 1368.0 Z" fill="#FFFFFF" opacity="0.210" /><path d="M 236.7 1152.4 L 2874.9 875.9 L 2874.9 1361.1 L 236.7 1637.6 Z" fill="#FFFFFF" opacity="0.233" /><path d="M 277.8 1437.6 L 2822.4 1161.1 L 2822.4 1595.0 L 277.8 1871.5 Z" fill="#FFFFFF" opacity="0.178" /><path d="M 348.2 1701.8 L 2835.5 1425.4 L 2835.5 1904.9 L 348.2 2181.4 Z" fill="#FFFFFF" opacity="0.196" /><path d="M 276.9 1938.1 L 2805.2 1661.6 L 2805.2 2131.8 L 276.9 2408.2 Z" fill="#FFFFFF" opacity="0.177" /><path d="M 200.1 2224.1 L 2742.0 1947.7 L 2742.0 2381.0 L 200.1 2657.5 Z" fill="#FFFFFF" opacity="0.205" /><path d="M 247.5 2434.0 L 2768.3 2157.5 L 2768.3 2588.0 L 247.5 2864.5 Z" fill="#FFFFFF" opacity="0.149" /></g>
  <g filter="url(#soft1069)"><g transform="rotate(-22.80 1536.0 1536.0)"><path d="M-368.6 519.0 C -225.8 466.3, -25.8 568.2, 107.5 507.7 C 250.4 511.7, 450.4 531.4, 583.7 550.0 C 726.5 545.6, 926.5 487.4, 1059.8 573.4 C 1202.7 584.8, 1402.7 480.0, 1536.0 563.9 C 1678.8 552.6, 1878.8 474.9, 2012.2 527.1 C 2155.0 525.7, 2355.0 516.0, 2488.3 485.4 C 2631.2 483.2, 2831.2 556.2, 2964.5 464.1 C 3107.3 457.8, 3307.3 545.9, 3440.6 476.1" fill="none" stroke="url(#ribbon1069)" stroke-width="58.4" stroke-linecap="round" stroke-opacity="0.120" /></g><g transform="rotate(-22.22 1536.0 1536.0)"><path d="M-368.6 726.9 C -241.7 664.6, -63.9 758.0, 54.6 664.6 C 181.6 671.9, 359.4 795.3, 477.9 684.8 C 604.8 679.1, 782.6 746.8, 901.1 730.6 C 1028.1 731.5, 1205.9 724.8, 1324.4 774.1 C 1451.3 772.0, 1629.1 672.0, 1747.6 789.0 C 1874.6 785.3, 2052.4 703.5, 2170.9 766.3 C 2297.9 782.0, 2475.6 693.2, 2594.1 719.6 C 2721.1 720.1, 2898.9 730.3, 3017.4 677.4 C 3144.4 692.8, 3322.1 743.1, 3440.6 665.2" fill="none" stroke="url(#ribbon1069)" stroke-width="54.4" stroke-linecap="round" stroke-opacity="0.146" /></g><g transform="rotate(-21.64 1536.0 1536.0)"><path d="M-368.6 848.6 C -254.4 827.7, -94.4 862.2, 12.3 783.0 C 126.6 792.3, 286.6 894.3, 393.2 786.6 C 507.5 777.2, 667.5 896.0, 774.1 827.9 C 888.4 835.4, 1048.4 863.5, 1155.1 881.7 C 1269.4 886.9, 1429.3 832.0, 1536.0 915.4 C 1650.3 898.6, 1810.3 776.5, 1916.9 908.6 C 2031.2 892.0, 2191.2 798.8, 2297.9 865.4 C 2412.1 860.6, 2572.1 835.2, 2678.8 812.0 C 2793.1 818.7, 2953.1 883.9, 3059.7 780.8 C 3174.0 788.3, 3334.0 918.5, 3440.6 790.7" fill="none" stroke="url(#ribbon1069)" stroke-width="50.4" stroke-linecap="round" stroke-opacity="0.172" /></g><g transform="rotate(-21.06 1536.0 1536.0)"><path d="M-368.6 1151.2 C -264.8 1233.0, -119.3 1123.8, -22.3 1157.4 C 81.5 1156.5, 227.0 1148.3, 324.0 1100.8 C 427.8 1106.8, 573.3 1190.2, 670.3 1074.8 C 774.1 1050.3, 919.6 1199.3, 1016.6 1095.1 C 1120.4 1101.3, 1265.9 1193.0, 1362.9 1149.4 C 1466.7 1149.9, 1612.2 1151.8, 1709.1 1204.8 C 1813.0 1220.6, 1958.5 1097.0, 2055.4 1227.7 C 2159.3 1198.3, 2304.8 1070.9, 2401.7 1204.1 C 2505.6 1215.6, 2651.1 1088.3, 2748.0 1148.5 C 2851.9 1147.6, 2997.4 1153.1, 3094.3 1094.5 C 3198.2 1097.4, 3343.7 1211.5, 3440.6 1074.8" fill="none" stroke="url(#ribbon1069)" stroke-width="46.4" stroke-linecap="round" stroke-opacity="0.198" /></g><g transform="rotate(-20.48 1536.0 1536.0)"><path d="M-368.6 1267.5 C -273.4 1181.6, -140.1 1317.1, -51.2 1212.4 C 44.0 1198.8, 177.4 1290.2, 266.2 1274.2 C 361.5 1274.6, 494.8 1261.3, 583.7 1331.9 C 678.9 1316.2, 812.2 1200.4, 901.1 1350.6 C 996.4 1352.4, 1129.7 1200.8, 1218.6 1318.9 C 1313.8 1302.8, 1447.1 1221.9, 1536.0 1256.0 C 1631.2 1255.8, 1764.6 1277.6, 1853.4 1200.1 C 1948.7 1208.2, 2082.0 1293.9, 2170.9 1185.1 C 2266.1 1191.0, 2399.4 1333.7, 2488.3 1220.1 C 2583.6 1222.0, 2716.9 1295.9, 2805.8 1283.9 C 2901.0 1284.8, 3034.3 1260.4, 3123.2 1337.7 C 3218.4 1352.3, 3351.8 1209.8, 3440.6 1349.0" fill="none" stroke="url(#ribbon1069)" stroke-width="42.4" stroke-linecap="round" stroke-opacity="0.224" /></g><g transform="rotate(-19.90 1536.0 1536.0)"><path d="M-368.6 1489.7 C -225.8 1434.1, -25.8 1570.3, 107.5 1464.0 C 250.4 1456.5, 450.4 1500.4, 583.7 1534.1 C 726.5 1534.4, 926.5 1456.2, 1059.8 1577.3 C 1202.7 1551.2, 1402.7 1416.0, 1536.0 1567.3 C 1678.8 1558.6, 1878.8 1431.6, 2012.2 1510.2 C 2155.0 1516.6, 2355.0 1476.8, 2488.3 1440.6 C 2631.2 1446.7, 2831.2 1527.1, 2964.5 1400.8 C 3107.3 1391.8, 3307.3 1537.1, 3440.6 1414.9" fill="none" stroke="url(#ribbon1069)" stroke-width="38.4" stroke-linecap="round" stroke-opacity="0.250" /></g><g transform="rotate(-19.32 1536.0 1536.0)"><path d="M-368.6 1724.2 C -241.7 1786.0, -63.9 1683.6, 54.6 1821.9 C 181.6 1814.2, 359.4 1639.0, 477.9 1794.1 C 604.8 1812.0, 782.6 1699.1, 901.1 1724.0 C 1028.1 1724.1, 1205.9 1724.5, 1324.4 1654.0 C 1451.3 1678.7, 1629.1 1774.2, 1747.6 1626.6 C 1874.6 1593.9, 2052.4 1755.8, 2170.9 1658.5 C 2297.9 1678.7, 2475.6 1755.7, 2594.1 1730.2 C 2721.1 1732.1, 2898.9 1717.1, 3017.4 1798.3 C 3144.4 1792.6, 3322.1 1678.3, 3440.6 1821.5" fill="none" stroke="url(#ribbon1069)" stroke-width="34.4" stroke-linecap="round" stroke-opacity="0.276" /></g><g transform="rotate(-18.74 1536.0 1536.0)"><path d="M-368.6 1824.8 C -254.4 1791.6, -94.4 1842.7, 12.3 1725.2 C 126.6 1744.2, 286.6 1896.7, 393.2 1732.1 C 507.5 1720.8, 667.5 1917.6, 774.1 1795.3 C 888.4 1786.8, 1048.4 1841.6, 1155.1 1876.3 C 1269.4 1896.4, 1429.3 1802.3, 1536.0 1926.1 C 1650.3 1942.8, 1810.3 1739.2, 1916.9 1914.5 C 2031.2 1942.6, 2191.2 1749.4, 2297.9 1848.4 C 2412.1 1839.1, 2572.1 1805.5, 2678.8 1768.0 C 2793.1 1750.3, 2953.1 1875.5, 3059.7 1722.1 C 3174.0 1753.0, 3334.0 1937.2, 3440.6 1738.5" fill="none" stroke="url(#ribbon1069)" stroke-width="30.4" stroke-linecap="round" stroke-opacity="0.302" /></g><g transform="rotate(-18.16 1536.0 1536.0)"><path d="M-368.6 2115.4 C -264.8 2182.0, -119.3 2069.4, -22.3 2209.7 C 81.5 2220.9, 227.0 2076.4, 324.0 2138.0 C 427.8 2139.4, 573.3 2091.4, 670.3 2052.6 C 774.1 2060.2, 919.6 2147.2, 1016.6 2005.3 C 1120.4 2033.1, 1265.9 2240.3, 1362.9 2024.8 C 1466.7 2026.6, 1612.2 2213.5, 1709.1 2099.2 C 1813.0 2104.2, 1958.5 2121.7, 2055.4 2183.5 C 2159.3 2160.3, 2304.8 2065.0, 2401.7 2226.5 C 2505.6 2250.2, 2651.1 2007.2, 2748.0 2202.1 C 2851.9 2198.9, 2997.4 2017.0, 3094.3 2125.1 C 3198.2 2126.8, 3343.7 2111.6, 3440.6 2042.3" fill="none" stroke="url(#ribbon1069)" stroke-width="26.4" stroke-linecap="round" stroke-opacity="0.328" /></g><g transform="rotate(-17.58 1536.0 1536.0)"><path d="M-368.6 2227.8 C -273.4 2282.7, -140.1 2154.5, -51.2 2216.1 C 44.0 2215.5, 177.4 2234.5, 266.2 2134.8 C 361.5 2157.7, 494.8 2322.8, 583.7 2109.9 C 678.9 2119.5, 812.2 2316.5, 901.1 2156.5 C 996.4 2180.0, 1129.7 2286.7, 1218.6 2246.4 C 1313.8 2242.9, 1447.1 2214.3, 1536.0 2325.0 C 1631.2 2309.9, 1764.6 2193.4, 1853.4 2344.6 C 1948.7 2336.2, 2082.0 2135.5, 2170.9 2293.4 C 2266.1 2270.4, 2399.4 2165.4, 2488.3 2202.4 C 2583.6 2200.0, 2716.9 2242.2, 2805.8 2126.8 C 2901.0 2102.1, 3034.3 2339.7, 3123.2 2112.5 C 3218.4 2134.2, 3351.8 2326.6, 3440.6 2168.1" fill="none" stroke="url(#ribbon1069)" stroke-width="22.4" stroke-linecap="round" stroke-opacity="0.354" /></g><g transform="rotate(-17.00 1536.0 1536.0)"><path d="M-368.6 2471.3 C -225.8 2529.1, -25.8 2433.3, 107.5 2596.9 C 250.4 2607.3, 450.4 2372.2, 583.7 2552.1 C 726.5 2519.9, 926.5 2389.3, 1059.8 2458.3 C 1202.7 2455.3, 1402.7 2476.4, 1536.0 2372.4 C 1678.8 2377.5, 1878.8 2526.1, 2012.2 2346.5 C 2155.0 2296.6, 2355.0 2544.4, 2488.3 2396.3 C 2631.2 2368.3, 2831.2 2560.7, 2964.5 2491.6 C 3107.3 2494.7, 3307.3 2451.6, 3440.6 2574.6" fill="none" stroke="url(#ribbon1069)" stroke-width="18.4" stroke-linecap="round" stroke-opacity="0.380" /></g><g transform="rotate(-16.42 1536.0 1536.0)"><path d="M-368.6 2623.3 C -241.7 2547.9, -63.9 2654.8, 54.6 2671.6 C 181.6 2678.3, 359.4 2601.3, 477.9 2745.9 C 604.8 2790.4, 782.6 2550.5, 901.1 2745.8 C 1028.1 2769.1, 1205.9 2577.4, 1324.4 2671.4 C 1451.3 2669.8, 1629.1 2572.8, 1747.6 2567.9 C 1874.6 2580.0, 2052.4 2683.3, 2170.9 2498.0 C 2297.9 2502.5, 2475.6 2709.8, 2594.1 2504.1 C 2721.1 2475.3, 2898.9 2666.0, 3017.4 2582.6 C 3144.4 2569.7, 3322.1 2665.9, 3440.6 2685.7" fill="none" stroke="url(#ribbon1069)" stroke-width="14.4" stroke-linecap="round" stroke-opacity="0.406" /></g></g>
  <g><ellipse cx="1536.0" cy="1551.9" rx="728.6" ry="605.7" fill="url(#extrude1069)" opacity="0.220" /><ellipse cx="1536.0" cy="1567.7" rx="736.0" ry="610.9" fill="url(#extrude1069)" opacity="0.205" /><ellipse cx="1536.0" cy="1583.6" rx="743.4" ry="616.1" fill="url(#extrude1069)" opacity="0.190" /><ellipse cx="1536.0" cy="1599.5" rx="750.9" ry="621.3" fill="url(#extrude1069)" opacity="0.175" /><ellipse cx="1536.0" cy="1615.4" rx="758.3" ry="626.5" fill="url(#extrude1069)" opacity="0.160" /><ellipse cx="1536.0" cy="1631.2" rx="765.7" ry="631.7" fill="url(#extrude1069)" opacity="0.145" /><ellipse cx="1536.0" cy="1647.1" rx="773.2" ry="636.9" fill="url(#extrude1069)" opacity="0.130" /><ellipse cx="1536.0" cy="1663.0" rx="780.6" ry="642.1" fill="url(#extrude1069)" opacity="0.115" /><ellipse cx="1536.0" cy="1678.8" rx="788.0" ry="647.4" fill="url(#extrude1069)" opacity="0.100" /><ellipse cx="1536.0" cy="1694.7" rx="795.5" ry="652.6" fill="url(#extrude1069)" opacity="0.085" /><ellipse cx="1536.0" cy="1710.6" rx="802.9" ry="657.8" fill="url(#extrude1069)" opacity="0.070" /><ellipse cx="1536.0" cy="1726.5" rx="810.3" ry="663.0" fill="url(#extrude1069)" opacity="0.055" /></g>
  <ellipse cx="1536.0" cy="1726.5" rx="773.2" ry="214.9" fill="#0B1D2D" opacity="0.24" />
  <ellipse cx="1536.0" cy="1536.0" rx="743.4" ry="651.3" fill="url(#orb1069)" stroke="#FFFFFF" stroke-opacity="0.42" stroke-width="7" />
  <ellipse cx="1431.9" cy="1392.7" rx="505.5" ry="299.6" fill="#FFFFFF" opacity="0.25" />
  <path d="M 199.4 399.4 C 1013.8 -30.7, 2058.2 768.0, 2872.6 215.0 L 2872.6 983.0 C 2089.0 1228.8, 1013.8 307.2, 199.4 1167.4 Z" fill="url(#glass1069)" />
  <rect x="270" y="270" width="2532" height="2532" rx="430" fill="none" stroke="#FFFFFF" stroke-opacity="0.30" stroke-width="5" />
  <rect x="288.4" y="288.4" width="2495.1" height="2495.1" rx="399" fill="none" stroke="#FFD84D" stroke-opacity="0.35" stroke-width="3" />
  <g filter="url(#soft1069)"><rect x="1071" y="2702" width="82" height="2" fill="#FFFFFF" opacity="0.806" /><rect x="1111" y="2662" width="2" height="82" fill="#FFFFFF" opacity="0.806" /><rect x="2097" y="822" width="58" height="2" fill="#FFFFFF" opacity="0.780" /><rect x="2125" y="794" width="2" height="58" fill="#FFFFFF" opacity="0.780" /><rect x="2195" y="2548" width="78" height="2" fill="#FFFFFF" opacity="0.682" /><rect x="2233" y="2510" width="2" height="78" fill="#FFFFFF" opacity="0.682" /><rect x="596" y="275" width="34" height="2" fill="#FFFFFF" opacity="0.401" /><rect x="612" y="259" width="2" height="34" fill="#FFFFFF" opacity="0.401" /><rect x="1853" y="400" width="30" height="2" fill="#FFFFFF" opacity="0.466" /><rect x="1867" y="386" width="2" height="30" fill="#FFFFFF" opacity="0.466" /><rect x="1861" y="925" width="52" height="2" fill="#FFFFFF" opacity="0.480" /><rect x="1886" y="900" width="2" height="52" fill="#FFFFFF" opacity="0.480" /><rect x="2417" y="1545" width="78" height="2" fill="#FFFFFF" opacity="0.478" /><rect x="2455" y="1507" width="2" height="78" fill="#FFFFFF" opacity="0.478" /><rect x="466" y="2650" width="76" height="2" fill="#FFFFFF" opacity="0.738" /><rect x="503" y="2613" width="2" height="76" fill="#FFFFFF" opacity="0.738" /><rect x="1747" y="675" width="64" height="2" fill="#FFFFFF" opacity="0.625" /><rect x="1778" y="644" width="2" height="64" fill="#FFFFFF" opacity="0.625" /><rect x="1027" y="471" width="34" height="2" fill="#FFFFFF" opacity="0.501" /><rect x="1043" y="455" width="2" height="34" fill="#FFFFFF" opacity="0.501" /><rect x="2509" y="486" width="40" height="2" fill="#FFFFFF" opacity="0.419" /><rect x="2528" y="467" width="2" height="40" fill="#FFFFFF" opacity="0.419" /><rect x="1286" y="397" width="48" height="2" fill="#FFFFFF" opacity="0.455" /><rect x="1309" y="374" width="2" height="48" fill="#FFFFFF" opacity="0.455" /><rect x="583" y="840" width="74" height="2" fill="#FFFFFF" opacity="0.530" /><rect x="619" y="804" width="2" height="74" fill="#FFFFFF" opacity="0.530" /><rect x="2103" y="794" width="56" height="2" fill="#FFFFFF" opacity="0.438" /><rect x="2130" y="767" width="2" height="56" fill="#FFFFFF" opacity="0.438" /><rect x="2594" y="1311" width="82" height="2" fill="#FFFFFF" opacity="0.404" /><rect x="2634" y="1271" width="2" height="82" fill="#FFFFFF" opacity="0.404" /><rect x="922" y="2253" width="58" height="2" fill="#FFFFFF" opacity="0.437" /><rect x="950" y="2225" width="2" height="58" fill="#FFFFFF" opacity="0.437" /><rect x="1813" y="1995" width="80" height="2" fill="#FFFFFF" opacity="0.707" /><rect x="1852" y="1956" width="2" height="80" fill="#FFFFFF" opacity="0.707" /><rect x="1931" y="603" width="46" height="2" fill="#FFFFFF" opacity="0.379" /><rect x="1953" y="581" width="2" height="46" fill="#FFFFFF" opacity="0.379" /><rect x="1009" y="2590" width="80" height="2" fill="#FFFFFF" opacity="0.735" /><rect x="1048" y="2551" width="2" height="80" fill="#FFFFFF" opacity="0.735" /><rect x="2371" y="873" width="70" height="2" fill="#FFFFFF" opacity="0.366" /><rect x="2405" y="839" width="2" height="70" fill="#FFFFFF" opacity="0.366" /><rect x="1414" y="2264" width="48" height="2" fill="#FFFFFF" opacity="0.657" /><rect x="1437" y="2241" width="2" height="48" fill="#FFFFFF" opacity="0.657" /><rect x="543" y="1807" width="58" height="2" fill="#FFFFFF" opacity="0.811" /><rect x="571" y="1779" width="2" height="58" fill="#FFFFFF" opacity="0.811" /><rect x="572" y="307" width="44" height="2" fill="#FFFFFF" opacity="0.363" /><rect x="593" y="286" width="2" height="44" fill="#FFFFFF" opacity="0.363" /><rect x="2497" y="1320" width="74" height="2" fill="#FFFFFF" opacity="0.816" /><rect x="2533" y="1284" width="2" height="74" fill="#FFFFFF" opacity="0.816" /><rect x="1821" y="2614" width="74" height="2" fill="#FFFFFF" opacity="0.404" /><rect x="1857" y="2578" width="2" height="74" fill="#FFFFFF" opacity="0.404" /><rect x="2667" y="2745" width="84" height="2" fill="#FFFFFF" opacity="0.306" /><rect x="2708" y="2704" width="2" height="84" fill="#FFFFFF" opacity="0.306" /></g>
  <g opacity="0.52"><rect x="1023" y="1070" width="768" height="768" rx="128" fill="none" stroke="#0C2030" stroke-width="90" /><path d="M1023 1582 L1572 1363 L2121 1582 L1572 2094 Z" fill="none" stroke="#0C2030" stroke-width="90" stroke-linejoin="round" /></g>
  <g filter="url(#soft1069)"><rect x="987" y="1024" width="768" height="768" rx="128" fill="none" stroke="url(#symbol1069)" stroke-width="90" /><path d="M987 1536 L1536 1317 L2085 1536 L1536 2048 Z" fill="none" stroke="url(#symbol1069)" stroke-width="90" stroke-linejoin="round" /></g>
  <rect x="138" y="138" width="2796" height="2796" rx="629" fill="#FFFFFF" filter="url(#grain1069)" opacity="0.18" />
</svg>
