<svg xmlns="http://www.w3.org/2000/svg" width="3072" height="3072" viewBox="0 0 3072 3072">
  <title>QuartzOS System Icon 030 - mail_02</title>
  <defs><linearGradient id="bg1029" x1="0%" y1="0%" x2="100%" y2="100%"><stop offset="0%" stop-color="#36D1FF" /><stop offset="26%" stop-color="#8A5CFF" /><stop offset="56%" stop-color="#FF9F43" /><stop offset="78%" stop-color="#4F79A7" /><stop offset="100%" stop-color="#1B2630" /></linearGradient><radialGradient id="sun1029" cx="46%" cy="10%" r="88%"><stop offset="0%" stop-color="#FFFFFF" stop-opacity="0.62" /><stop offset="30%" stop-color="#FFD84D" stop-opacity="0.35" /><stop offset="100%" stop-color="#FFD84D" stop-opacity="0" /></radialGradient><linearGradient id="glass1029" x1="0%" y1="0%" x2="0%" y2="100%"><stop offset="0%" stop-color="#FFFFFF" stop-opacity="0.70" /><stop offset="46%" stop-color="#FFFFFF" stop-opacity="0.26" /><stop offset="100%" stop-color="#FFFFFF" stop-opacity="0.00" /></linearGradient><linearGradient id="ribbon1029" x1="0%" y1="0%" x2="100%" y2="0%"><stop offset="0%" stop-color="#36D1FF" stop-opacity="0.18" /><stop offset="34%" stop-color="#8A5CFF" stop-opacity="0.72" /><stop offset="66%" stop-color="#FF9F43" stop-opacity="0.72" /><stop offset="100%" stop-color="#FFD84D" stop-opacity="0.18" /></linearGradient><radialGradient id="orb1029" cx="34%" cy="27%" r="74%"><stop offset="0%" stop-color="#FFFFFF" stop-opacity="0.84" /><stop offset="30%" stop-color="#36D1FF" stop-opacity="0.52" /><stop offset="68%" stop-color="#8A5CFF" stop-opacity="0.42" /><stop offset="100%" stop-color="#FF9F43" stop-opacity="0.20" /></radialGradient><linearGradient id="extrude1029" x1="0%" y1="0%" x2="0%" y2="100%"><stop offset="0%" stop-color="#15283C" stop-opacity="0.45" /><stop offset="100%" stop-color="#08131D" stop-opacity="0.06" /></linearGradient><linearGradient id="symbol1029" x1="0%" y1="0%" x2="100%" y2="100%"><stop offset="0%" stop-color="#FFFFFF" /><stop offset="100%" stop-color="#FFD84D" /></linearGradient><filter id="shadow1029" x="-40%" y="-40%" width="180%" height="180%"><feDropShadow dx="0" dy="49" stdDeviation="86" flood-color="#06111A" flood-opacity="0.54" /></filter><filter id="soft1029" x="-40%" y="-40%" width="180%" height="180%"><feDropShadow dx="0" dy="0" stdDeviation="14" flood-color="#36D1FF" flood-opacity="0.45" /></filter><filter id="grain1029"><feTurbulence type="fractalNoise" baseFrequency="0.824" numOctaves="2" seed="1029" /><feColorMatrix type="saturate" values="0" /><feComponentTransfer><feFuncA type="table" tableValues="0 0.09" /></feComponentTransfer></filter></defs>
  <rect x="138" y="138" width="2796" height="2796" rx="629" fill="url(#bg1029)" filter="url(#shadow1029)" />
  <rect x="138" y="138" width="2796" height="2796" rx="629" fill="url(#sun1029)" />
  <g><circle cx="1287" cy="1014" r="157" fill="#FFFFFF" opacity="0.107" /><circle cx="757" cy="1093" r="127" fill="#FFFFFF" opacity="0.070" /><circle cx="1497" cy="2143" r="98" fill="#FFFFFF" opacity="0.136" /><circle cx="879" cy="915" r="110" fill="#FFFFFF" opacity="0.149" /><circle cx="2079" cy="1133" r="140" fill="#FFFFFF" opacity="0.064" /><circle cx="1434" cy="2276" r="44" fill="#FFFFFF" opacity="0.150" /><circle cx="616" cy="1998" r="46" fill="#FFFFFF" opacity="0.192" /><circle cx="2658" cy="2337" r="124" fill="#FFFFFF" opacity="0.094" /><circle cx="477" cy="858" r="108" fill="#FFFFFF" opacity="0.062" /><circle cx="2143" cy="1248" r="152" fill="#FFFFFF" opacity="0.189" /><circle cx="2312" cy="1742" r="123" fill="#FFFFFF" opacity="0.194" /><circle cx="1281" cy="1851" r="78" fill="#FFFFFF" opacity="0.148" /><circle cx="928" cy="1398" r="87" fill="#FFFFFF" opacity="0.151" /><circle cx="763" cy="2344" r="147" fill="#FFFFFF" opacity="0.226" /><circle cx="1589" cy="600" r="108" fill="#FFFFFF" opacity="0.123" /><circle cx="1474" cy="1080" r="43" fill="#FFFFFF" opacity="0.198" /><circle cx="2016" cy="1235" r="66" fill="#FFFFFF" opacity="0.090" /><circle cx="1458" cy="1512" r="97" fill="#FFFFFF" opacity="0.061" /><circle cx="798" cy="1137" r="100" fill="#FFFFFF" opacity="0.173" /><circle cx="604" cy="521" r="139" fill="#FFFFFF" opacity="0.118" /><circle cx="1865" cy="1060" r="95" fill="#FFFFFF" opacity="0.175" /><circle cx="1402" cy="844" r="46" fill="#FFFFFF" opacity="0.075" /><circle cx="1019" cy="2209" r="124" fill="#FFFFFF" opacity="0.133" /><circle cx="1084" cy="2098" r="146" fill="#FFFFFF" opacity="0.235" /><circle cx="1199" cy="1529" r="136" fill="#FFFFFF" opacity="0.071" /><circle cx="842" cy="1534" r="119" fill="#FFFFFF" opacity="0.072" /><circle cx="467" cy="1516" r="108" fill="#FFFFFF" opacity="0.206" /><circle cx="1764" cy="2123" r="96" fill="#FFFFFF" opacity="0.168" /></g>
  <g><path d="M 219.9 622.4 L 2702.2 345.9 L 2702.2 818.6 L 219.9 1095.1 Z" fill="#FFFFFF" opacity="0.157" /><path d="M 327.9 880.5 L 2729.5 604.1 L 2729.5 1085.1 L 327.9 1361.6 Z" fill="#FFFFFF" opacity="0.096" /><path d="M 353.6 1143.7 L 2744.8 867.2 L 2744.8 1309.0 L 353.6 1585.5 Z" fill="#FFFFFF" opacity="0.196" /><path d="M 346.1 1419.4 L 2705.1 1143.0 L 2705.1 1567.3 L 346.1 1843.8 Z" fill="#FFFFFF" opacity="0.145" /><path d="M 218.2 1701.6 L 2919.9 1425.1 L 2919.9 1896.9 L 218.2 2173.4 Z" fill="#FFFFFF" opacity="0.118" /><path d="M 389.2 1951.0 L 2905.2 1674.5 L 2905.2 2148.8 L 389.2 2425.3 Z" fill="#FFFFFF" opacity="0.134" /><path d="M 168.7 2171.4 L 2815.0 1895.0 L 2815.0 2356.1 L 168.7 2632.6 Z" fill="#FFFFFF" opacity="0.126" /><path d="M 288.6 2425.4 L 2794.2 2149.0 L 2794.2 2583.1 L 288.6 2859.6 Z" fill="#FFFFFF" opacity="0.101" /></g>
  <g filter="url(#soft1029)"><g transform="rotate(-7.82 1536.0 1536.0)"><path d="M-368.6 544.6 C -225.8 490.6, -25.8 597.1, 107.5 505.7 C 250.4 500.3, 450.4 582.7, 583.7 545.7 C 726.5 545.4, 926.5 543.5, 1059.8 585.0 C 1202.7 583.3, 1402.7 503.6, 1536.0 599.8 C 1678.8 591.2, 1878.8 487.2, 2012.2 581.1 C 2155.0 587.5, 2355.0 530.5, 2488.3 540.2 C 2631.2 541.1, 2831.2 549.6, 2964.5 502.0 C 3107.3 506.5, 3307.3 567.9, 3440.6 489.6" fill="none" stroke="url(#ribbon1029)" stroke-width="58.4" stroke-linecap="round" stroke-opacity="0.120" /></g><g transform="rotate(-7.24 1536.0 1536.0)"><path d="M-368.6 712.1 C -241.7 678.8, -63.9 745.8, 54.6 697.7 C 181.6 695.7, 359.4 727.3, 477.9 745.6 C 604.8 757.9, 782.6 701.0, 901.1 773.1 C 1028.1 777.0, 1205.9 689.3, 1324.4 763.7 C 1451.3 768.1, 1629.1 695.1, 1747.6 722.9 C 1874.6 721.6, 2052.4 704.9, 2170.9 675.5 C 2297.9 676.9, 2475.6 731.2, 2594.1 650.4 C 2721.1 674.5, 2898.9 764.6, 3017.4 662.6 C 3144.4 679.3, 3322.1 766.5, 3440.6 704.8" fill="none" stroke="url(#ribbon1029)" stroke-width="54.4" stroke-linecap="round" stroke-opacity="0.146" /></g><g transform="rotate(-6.66 1536.0 1536.0)"><path d="M-368.6 894.7 C -254.4 884.8, -94.4 903.0, 12.3 838.8 C 126.6 849.6, 286.6 958.1, 393.2 826.2 C 507.5 815.1, 667.5 971.5, 774.1 855.2 C 888.4 843.5, 1048.4 928.9, 1155.1 908.1 C 1269.4 907.0, 1429.3 885.3, 1536.0 952.9 C 1650.3 970.1, 1810.3 826.7, 1916.9 962.4 C 2031.2 964.8, 2191.2 819.2, 2297.9 930.9 C 2412.1 927.6, 2572.1 864.5, 2678.8 877.4 C 2793.1 881.3, 2953.1 903.7, 3059.7 834.4 C 3174.0 814.3, 3334.0 936.6, 3440.6 828.0" fill="none" stroke="url(#ribbon1029)" stroke-width="50.4" stroke-linecap="round" stroke-opacity="0.172" /></g><g transform="rotate(-6.08 1536.0 1536.0)"><path d="M-368.6 1119.2 C -264.8 1093.0, -119.3 1141.4, -22.3 1159.4 C 81.5 1162.3, 227.0 1087.3, 324.0 1193.9 C 427.8 1167.7, 573.3 1065.6, 670.3 1183.1 C 774.1 1169.6, 919.6 1057.9, 1016.6 1133.6 C 1120.4 1137.4, 1265.9 1107.8, 1362.9 1075.3 C 1466.7 1082.6, 1612.2 1143.4, 1709.1 1043.7 C 1813.0 1064.6, 1958.5 1176.5, 2055.4 1057.9 C 2159.3 1074.8, 2304.8 1167.1, 2401.7 1109.3 C 2505.6 1111.5, 2651.1 1123.3, 2748.0 1166.7 C 2851.9 1165.5, 2997.4 1064.2, 3094.3 1195.3 C 3198.2 1190.1, 3343.7 1051.4, 3440.6 1177.8" fill="none" stroke="url(#ribbon1029)" stroke-width="46.4" stroke-linecap="round" stroke-opacity="0.198" /></g><g transform="rotate(-5.50 1536.0 1536.0)"><path d="M-368.6 1249.9 C -273.4 1326.7, -140.1 1167.7, -51.2 1316.2 C 44.0 1329.9, 177.4 1182.1, 266.2 1259.6 C 361.5 1257.0, 494.8 1245.4, 583.7 1197.2 C 678.9 1209.1, 812.2 1310.4, 901.1 1166.6 C 996.4 1143.3, 1129.7 1295.3, 1218.6 1186.6 C 1313.8 1185.0, 1447.1 1302.1, 1536.0 1244.9 C 1631.2 1246.4, 1764.6 1253.0, 1853.4 1306.3 C 1948.7 1301.2, 2082.0 1202.4, 2170.9 1333.4 C 2266.1 1365.2, 2399.4 1156.4, 2488.3 1309.8 C 2583.6 1294.2, 2716.9 1215.3, 2805.8 1249.9 C 2901.0 1249.9, 3034.3 1249.8, 3123.2 1190.0 C 3218.4 1213.4, 3351.8 1281.7, 3440.6 1166.3" fill="none" stroke="url(#ribbon1029)" stroke-width="42.4" stroke-linecap="round" stroke-opacity="0.224" /></g><g transform="rotate(-4.92 1536.0 1536.0)"><path d="M-368.6 1507.5 C -225.8 1472.9, -25.8 1541.8, 107.5 1422.4 C 250.4 1436.3, 450.4 1536.8, 583.7 1425.8 C 726.5 1425.3, 926.5 1549.6, 1059.8 1478.7 C 1202.7 1488.9, 1402.7 1520.1, 1536.0 1549.1 C 1678.8 1558.5, 1878.8 1474.9, 2012.2 1594.2 C 2155.0 1596.7, 2355.0 1414.0, 2488.3 1586.7 C 2631.2 1558.0, 2831.2 1474.6, 2964.5 1531.1 C 3107.3 1527.6, 3307.3 1493.2, 3440.6 1461.2" fill="none" stroke="url(#ribbon1029)" stroke-width="38.4" stroke-linecap="round" stroke-opacity="0.250" /></g><g transform="rotate(-4.34 1536.0 1536.0)"><path d="M-368.6 1743.3 C -241.7 1641.9, -63.9 1774.4, 54.6 1665.6 C 181.6 1678.5, 359.4 1802.3, 477.9 1731.7 C 604.8 1732.1, 782.6 1752.8, 901.1 1804.8 C 1028.1 1807.3, 1205.9 1709.2, 1324.4 1840.6 C 1451.3 1823.3, 1629.1 1677.8, 1747.6 1817.5 C 1874.6 1800.5, 2052.4 1682.0, 2170.9 1749.3 C 2297.9 1747.6, 2475.6 1739.2, 2594.1 1677.6 C 2721.1 1685.9, 2898.9 1765.6, 3017.4 1645.7 C 3144.4 1638.6, 3322.1 1848.4, 3440.6 1673.1" fill="none" stroke="url(#ribbon1029)" stroke-width="34.4" stroke-linecap="round" stroke-opacity="0.276" /></g><g transform="rotate(-3.76 1536.0 1536.0)"><path d="M-368.6 1934.4 C -254.4 1883.1, -94.4 1960.7, 12.3 1836.4 C 126.6 1855.5, 286.6 1983.7, 393.2 1839.6 C 507.5 1827.7, 667.5 1980.0, 774.1 1900.3 C 888.4 1891.2, 1048.4 1971.3, 1155.1 1981.7 C 1269.4 1979.7, 1429.3 1896.4, 1536.0 2034.4 C 1650.3 2068.7, 1810.3 1831.2, 1916.9 2026.4 C 2031.2 2038.9, 2191.2 1851.5, 2297.9 1962.6 C 2412.1 1956.3, 2572.1 1921.5, 2678.8 1881.7 C 2793.1 1900.8, 2953.1 1964.0, 3059.7 1832.7 C 3174.0 1830.6, 3334.0 2030.5, 3440.6 1845.4" fill="none" stroke="url(#ribbon1029)" stroke-width="30.4" stroke-linecap="round" stroke-opacity="0.302" /></g><g transform="rotate(-3.18 1536.0 1536.0)"><path d="M-368.6 2037.6 C -264.8 1969.6, -119.3 2066.6, -22.3 1928.7 C 81.5 1946.1, 227.0 2122.5, 324.0 1943.4 C 427.8 1937.1, 573.3 2132.8, 670.3 2015.2 C 774.1 2019.3, 919.6 2052.2, 1016.6 2100.5 C 1120.4 2089.4, 1265.9 1989.2, 1362.9 2147.7 C 1466.7 2120.1, 1612.2 1919.7, 1709.1 2128.1 C 1813.0 2158.3, 1958.5 1960.5, 2055.4 2053.6 C 2159.3 2053.9, 2304.8 2019.3, 2401.7 1969.3 C 2505.6 1980.7, 2651.1 2103.0, 2748.0 1926.5 C 2851.9 1887.1, 2997.4 2136.4, 3094.3 1951.0 C 3198.2 1944.5, 3343.7 2073.6, 3440.6 2028.1" fill="none" stroke="url(#ribbon1029)" stroke-width="26.4" stroke-linecap="round" stroke-opacity="0.328" /></g><g transform="rotate(-2.60 1536.0 1536.0)"><path d="M-368.6 2277.1 C -273.4 2402.1, -140.1 2248.1, -51.2 2395.3 C 44.0 2410.6, 177.4 2167.0, 266.2 2350.3 C 361.5 2377.6, 494.8 2250.4, 583.7 2260.8 C 678.9 2259.7, 812.2 2295.5, 901.1 2181.3 C 996.4 2178.6, 1129.7 2313.8, 1218.6 2159.8 C 1313.8 2167.1, 1447.1 2416.3, 1536.0 2209.5 C 1631.2 2195.0, 1764.6 2309.8, 1853.4 2300.1 C 1948.7 2294.5, 2082.0 2259.7, 2170.9 2376.8 C 2266.1 2395.6, 2399.4 2235.6, 2488.3 2393.0 C 2583.6 2346.7, 2716.9 2149.3, 2805.8 2338.8 C 2901.0 2327.2, 3034.3 2237.3, 3123.2 2247.2 C 3218.4 2246.2, 3351.8 2310.0, 3440.6 2173.7" fill="none" stroke="url(#ribbon1029)" stroke-width="22.4" stroke-linecap="round" stroke-opacity="0.354" /></g><g transform="rotate(-2.02 1536.0 1536.0)"><path d="M-368.6 2416.0 C -225.8 2431.7, -25.8 2396.1, 107.5 2342.4 C 250.4 2343.1, 450.4 2465.7, 583.7 2291.4 C 726.5 2298.8, 926.5 2549.2, 1059.8 2316.0 C 1202.7 2291.4, 1402.7 2461.0, 1536.0 2401.2 C 1678.8 2402.8, 1878.8 2423.5, 2012.2 2495.4 C 2155.0 2496.0, 2355.0 2337.7, 2488.3 2541.5 C 2631.2 2509.5, 2831.2 2370.2, 2964.5 2511.4 C 3107.3 2521.0, 3307.3 2362.3, 3440.6 2423.5" fill="none" stroke="url(#ribbon1029)" stroke-width="18.4" stroke-linecap="round" stroke-opacity="0.380" /></g><g transform="rotate(-1.44 1536.0 1536.0)"><path d="M-368.6 2638.8 C -241.7 2801.9, -63.9 2598.2, 54.6 2730.8 C 181.6 2702.6, 359.4 2556.6, 477.9 2634.0 C 604.8 2635.3, 782.6 2640.8, 901.1 2540.1 C 1028.1 2571.1, 1205.9 2719.9, 1324.4 2506.1 C 1451.3 2499.0, 1629.1 2699.8, 1747.6 2552.6 C 1874.6 2553.1, 2052.4 2741.0, 2170.9 2651.4 C 2297.9 2648.3, 2475.6 2634.4, 2594.1 2742.6 C 2721.1 2701.3, 2898.9 2516.5, 3017.4 2770.8 C 3144.4 2758.2, 3322.1 2496.2, 3440.6 2719.0" fill="none" stroke="url(#ribbon1029)" stroke-width="14.4" stroke-linecap="round" stroke-opacity="0.406" /></g></g>
  <g><ellipse cx="1536.0" cy="1551.9" rx="728.6" ry="605.7" fill="url(#extrude1029)" opacity="0.220" /><ellipse cx="1536.0" cy="1567.7" rx="736.0" ry="610.9" fill="url(#extrude1029)" opacity="0.205" /><ellipse cx="1536.0" cy="1583.6" rx="743.4" ry="616.1" fill="url(#extrude1029)" opacity="0.190" /><ellipse cx="1536.0" cy="1599.5" rx="750.9" ry="621.3" fill="url(#extrude1029)" opacity="0.175" /><ellipse cx="1536.0" cy="1615.4" rx="758.3" ry="626.5" fill="url(#extrude1029)" opacity="0.160" /><ellipse cx="1536.0" cy="1631.2" rx="765.7" ry="631.7" fill="url(#extrude1029)" opacity="0.145" /><ellipse cx="1536.0" cy="1647.1" rx="773.2" ry="636.9" fill="url(#extrude1029)" opacity="0.130" /><ellipse cx="1536.0" cy="1663.0" rx="780.6" ry="642.1" fill="url(#extrude1029)" opacity="0.115" /><ellipse cx="1536.0" cy="1678.8" rx="788.0" ry="647.4" fill="url(#extrude1029)" opacity="0.100" /><ellipse cx="1536.0" cy="1694.7" rx="795.5" ry="652.6" fill="url(#extrude1029)" opacity="0.085" /><ellipse cx="1536.0" cy="1710.6" rx="802.9" ry="657.8" fill="url(#extrude1029)" opacity="0.070" /><ellipse cx="1536.0" cy="1726.5" rx="810.3" ry="663.0" fill="url(#extrude1029)" opacity="0.055" /></g>
  <ellipse cx="1536.0" cy="1726.5" rx="773.2" ry="214.9" fill="#0B1D2D" opacity="0.24" />
  <ellipse cx="1536.0" cy="1536.0" rx="743.4" ry="651.3" fill="url(#orb1029)" stroke="#FFFFFF" stroke-opacity="0.42" stroke-width="7" />
  <ellipse cx="1431.9" cy="1392.7" rx="505.5" ry="299.6" fill="#FFFFFF" opacity="0.25" />
  <path d="M 199.4 399.4 C 1013.8 -30.7, 2058.2 768.0, 2872.6 215.0 L 2872.6 983.0 C 2089.0 1228.8, 1013.8 307.2, 199.4 1167.4 Z" fill="url(#glass1029)" />
  <rect x="270" y="270" width="2532" height="2532" rx="430" fill="none" stroke="#FFFFFF" stroke-opacity="0.30" stroke-width="5" />
  <rect x="288.4" y="288.4" width="2495.1" height="2495.1" rx="399" fill="none" stroke="#36D1FF" stroke-opacity="0.35" stroke-width="3" />
  <g filter="url(#soft1029)"><rect x="471" y="2264" width="60" height="2" fill="#FFFFFF" opacity="0.545" /><rect x="500" y="2235" width="2" height="60" fill="#FFFFFF" opacity="0.545" /><rect x="1152" y="626" width="58" height="2" fill="#FFFFFF" opacity="0.386" /><rect x="1180" y="598" width="2" height="58" fill="#FFFFFF" opacity="0.386" /><rect x="920" y="2022" width="24" height="2" fill="#FFFFFF" opacity="0.379" /><rect x="931" y="2011" width="2" height="24" fill="#FFFFFF" opacity="0.379" /><rect x="2231" y="536" width="72" height="2" fill="#FFFFFF" opacity="0.499" /><rect x="2266" y="501" width="2" height="72" fill="#FFFFFF" opacity="0.499" /><rect x="1970" y="2473" width="76" height="2" fill="#FFFFFF" opacity="0.803" /><rect x="2007" y="2436" width="2" height="76" fill="#FFFFFF" opacity="0.803" /><rect x="1585" y="2379" width="76" height="2" fill="#FFFFFF" opacity="0.627" /><rect x="1622" y="2342" width="2" height="76" fill="#FFFFFF" opacity="0.627" /><rect x="1680" y="739" width="34" height="2" fill="#FFFFFF" opacity="0.656" /><rect x="1696" y="723" width="2" height="34" fill="#FFFFFF" opacity="0.656" /><rect x="687" y="929" width="42" height="2" fill="#FFFFFF" opacity="0.370" /><rect x="707" y="909" width="2" height="42" fill="#FFFFFF" opacity="0.370" /><rect x="1272" y="1631" width="62" height="2" fill="#FFFFFF" opacity="0.513" /><rect x="1302" y="1601" width="2" height="62" fill="#FFFFFF" opacity="0.513" /><rect x="2689" y="1636" width="38" height="2" fill="#FFFFFF" opacity="0.617" /><rect x="2707" y="1618" width="2" height="38" fill="#FFFFFF" opacity="0.617" /><rect x="1304" y="1775" width="68" height="2" fill="#FFFFFF" opacity="0.391" /><rect x="1337" y="1742" width="2" height="68" fill="#FFFFFF" opacity="0.391" /><rect x="2166" y="1990" width="34" height="2" fill="#FFFFFF" opacity="0.792" /><rect x="2182" y="1974" width="2" height="34" fill="#FFFFFF" opacity="0.792" /><rect x="1292" y="2230" width="66" height="2" fill="#FFFFFF" opacity="0.659" /><rect x="1324" y="2198" width="2" height="66" fill="#FFFFFF" opacity="0.659" /><rect x="1293" y="1391" width="80" height="2" fill="#FFFFFF" opacity="0.399" /><rect x="1332" y="1352" width="2" height="80" fill="#FFFFFF" opacity="0.399" /><rect x="993" y="1743" width="74" height="2" fill="#FFFFFF" opacity="0.642" /><rect x="1029" y="1707" width="2" height="74" fill="#FFFFFF" opacity="0.642" /><rect x="2449" y="1719" width="58" height="2" fill="#FFFFFF" opacity="0.463" /><rect x="2477" y="1691" width="2" height="58" fill="#FFFFFF" opacity="0.463" /><rect x="547" y="870" width="72" height="2" fill="#FFFFFF" opacity="0.424" /><rect x="582" y="835" width="2" height="72" fill="#FFFFFF" opacity="0.424" /><rect x="1943" y="1145" width="56" height="2" fill="#FFFFFF" opacity="0.464" /><rect x="1970" y="1118" width="2" height="56" fill="#FFFFFF" opacity="0.464" /><rect x="1977" y="1837" width="72" height="2" fill="#FFFFFF" opacity="0.344" /><rect x="2012" y="1802" width="2" height="72" fill="#FFFFFF" opacity="0.344" /><rect x="595" y="1316" width="64" height="2" fill="#FFFFFF" opacity="0.674" /><rect x="626" y="1285" width="2" height="64" fill="#FFFFFF" opacity="0.674" /><rect x="2094" y="1644" width="84" height="2" fill="#FFFFFF" opacity="0.393" /><rect x="2135" y="1603" width="2" height="84" fill="#FFFFFF" opacity="0.393" /><rect x="439" y="2735" width="44" height="2" fill="#FFFFFF" opacity="0.541" /><rect x="460" y="2714" width="2" height="44" fill="#FFFFFF" opacity="0.541" /><rect x="1951" y="1057" width="24" height="2" fill="#FFFFFF" opacity="0.604" /><rect x="1962" y="1046" width="2" height="24" fill="#FFFFFF" opacity="0.604" /><rect x="295" y="932" width="68" height="2" fill="#FFFFFF" opacity="0.809" /><rect x="328" y="899" width="2" height="68" fill="#FFFFFF" opacity="0.809" /><rect x="2390" y="1806" width="50" height="2" fill="#FFFFFF" opacity="0.794" /><rect x="2414" y="1782" width="2" height="50" fill="#FFFFFF" opacity="0.794" /><rect x="519" y="1044" width="30" height="2" fill="#FFFFFF" opacity="0.601" /><rect x="533" y="1030" width="2" height="30" fill="#FFFFFF" opacity="0.601" /></g>
  <g opacity="0.52"><rect x="1060" y="1070" width="1024" height="1024" rx="153" fill="none" stroke="#0C2030" stroke-width="90" /><line x1="1316" y1="1326" x2="1828" y2="1838" stroke="#0C2030" stroke-width="90" stroke-linecap="round" /><line x1="1828" y1="1326" x2="1316" y2="1838" stroke="#0C2030" stroke-width="90" stroke-linecap="round" /></g>
  <g filter="url(#soft1029)"><rect x="1024" y="1024" width="1024" height="1024" rx="153" fill="none" stroke="url(#symbol1029)" stroke-width="90" /><line x1="1280" y1="1280" x2="1792" y2="1792" stroke="url(#symbol1029)" stroke-width="90" stroke-linecap="round" /><line x1="1792" y1="1280" x2="1280" y2="1792" stroke="url(#symbol1029)" stroke-width="90" stroke-linecap="round" /></g>
  <rect x="138" y="138" width="2796" height="2796" rx="629" fill="#FFFFFF" filter="url(#grain1029)" opacity="0.18" />
</svg>
