<svg xmlns="http://www.w3.org/2000/svg" width="3072" height="3072" viewBox="0 0 3072 3072">
  <title>QuartzOS System Icon 007 - memory_01</title>
  <defs><linearGradient id="bg1006" x1="0%" y1="0%" x2="100%" y2="100%"><stop offset="0%" stop-color="#FFD84D" /><stop offset="26%" stop-color="#36D1FF" /><stop offset="56%" stop-color="#8A5CFF" /><stop offset="78%" stop-color="#58A3D8" /><stop offset="100%" stop-color="#1D2F45" /></linearGradient><radialGradient id="sun1006" cx="32%" cy="16%" r="88%"><stop offset="0%" stop-color="#FFFFFF" stop-opacity="0.62" /><stop offset="30%" stop-color="#FF6AB3" stop-opacity="0.35" /><stop offset="100%" stop-color="#FF6AB3" stop-opacity="0" /></radialGradient><linearGradient id="glass1006" x1="0%" y1="0%" x2="0%" y2="100%"><stop offset="0%" stop-color="#FFFFFF" stop-opacity="0.70" /><stop offset="46%" stop-color="#FFFFFF" stop-opacity="0.26" /><stop offset="100%" stop-color="#FFFFFF" stop-opacity="0.00" /></linearGradient><linearGradient id="ribbon1006" x1="0%" y1="0%" x2="100%" y2="0%"><stop offset="0%" stop-color="#FFD84D" stop-opacity="0.18" /><stop offset="34%" stop-color="#36D1FF" stop-opacity="0.72" /><stop offset="66%" stop-color="#8A5CFF" stop-opacity="0.72" /><stop offset="100%" stop-color="#FF6AB3" stop-opacity="0.18" /></linearGradient><radialGradient id="orb1006" cx="34%" cy="27%" r="74%"><stop offset="0%" stop-color="#FFFFFF" stop-opacity="0.84" /><stop offset="30%" stop-color="#FFD84D" stop-opacity="0.52" /><stop offset="68%" stop-color="#36D1FF" stop-opacity="0.42" /><stop offset="100%" stop-color="#8A5CFF" stop-opacity="0.20" /></radialGradient><linearGradient id="extrude1006" x1="0%" y1="0%" x2="0%" y2="100%"><stop offset="0%" stop-color="#15283C" stop-opacity="0.45" /><stop offset="100%" stop-color="#08131D" stop-opacity="0.06" /></linearGradient><linearGradient id="symbol1006" x1="0%" y1="0%" x2="100%" y2="100%"><stop offset="0%" stop-color="#FFFFFF" /><stop offset="100%" stop-color="#FF6AB3" /></linearGradient><filter id="shadow1006" x="-40%" y="-40%" width="180%" height="180%"><feDropShadow dx="0" dy="49" stdDeviation="86" flood-color="#06111A" flood-opacity="0.54" /></filter><filter id="soft1006" x="-40%" y="-40%" width="180%" height="180%"><feDropShadow dx="0" dy="0" stdDeviation="14" flood-color="#FFD84D" flood-opacity="0.45" /></filter><filter id="grain1006"><feTurbulence type="fractalNoise" baseFrequency="0.819" numOctaves="2" seed="1006" /><feColorMatrix type="saturate" values="0" /><feComponentTransfer><feFuncA type="table" tableValues="0 0.09" /></feComponentTransfer></filter></defs>
  <rect x="138" y="138" width="2796" height="2796" rx="629" fill="url(#bg1006)" filter="url(#shadow1006)" />
  <rect x="138" y="138" width="2796" height="2796" rx="629" fill="url(#sun1006)" />
  <g><circle cx="896" cy="633" r="64" fill="#FFFFFF" opacity="0.184" /><circle cx="437" cy="917" r="136" fill="#FFFFFF" opacity="0.198" /><circle cx="1259" cy="2400" r="82" fill="#FFFFFF" opacity="0.061" /><circle cx="794" cy="697" r="85" fill="#FFFFFF" opacity="0.065" /><circle cx="650" cy="2201" r="128" fill="#FFFFFF" opacity="0.166" /><circle cx="698" cy="2231" r="52" fill="#FFFFFF" opacity="0.183" /><circle cx="1577" cy="2568" r="115" fill="#FFFFFF" opacity="0.079" /><circle cx="787" cy="2053" r="129" fill="#FFFFFF" opacity="0.216" /><circle cx="783" cy="2384" r="68" fill="#FFFFFF" opacity="0.107" /><circle cx="1388" cy="2342" r="141" fill="#FFFFFF" opacity="0.138" /><circle cx="775" cy="2180" r="95" fill="#FFFFFF" opacity="0.197" /><circle cx="1861" cy="2220" r="115" fill="#FFFFFF" opacity="0.125" /><circle cx="487" cy="1801" r="57" fill="#FFFFFF" opacity="0.170" /><circle cx="2431" cy="586" r="76" fill="#FFFFFF" opacity="0.138" /><circle cx="2439" cy="2412" r="46" fill="#FFFFFF" opacity="0.191" /><circle cx="1494" cy="890" r="41" fill="#FFFFFF" opacity="0.108" /><circle cx="1359" cy="872" r="75" fill="#FFFFFF" opacity="0.212" /><circle cx="2404" cy="1087" r="76" fill="#FFFFFF" opacity="0.169" /><circle cx="965" cy="424" r="78" fill="#FFFFFF" opacity="0.192" /><circle cx="1731" cy="2310" r="59" fill="#FFFFFF" opacity="0.238" /><circle cx="550" cy="1773" r="105" fill="#FFFFFF" opacity="0.199" /><circle cx="1015" cy="321" r="121" fill="#FFFFFF" opacity="0.183" /><circle cx="381" cy="897" r="93" fill="#FFFFFF" opacity="0.199" /><circle cx="2318" cy="467" r="53" fill="#FFFFFF" opacity="0.228" /><circle cx="2581" cy="793" r="75" fill="#FFFFFF" opacity="0.087" /><circle cx="1589" cy="1049" r="136" fill="#FFFFFF" opacity="0.158" /><circle cx="485" cy="1203" r="95" fill="#FFFFFF" opacity="0.135" /><circle cx="852" cy="2590" r="72" fill="#FFFFFF" opacity="0.197" /></g>
  <g><path d="M 348.0 586.0 L 2717.9 309.5 L 2717.9 803.4 L 348.0 1079.8 Z" fill="#FFFFFF" opacity="0.183" /><path d="M 210.6 905.4 L 2799.4 628.9 L 2799.4 1091.0 L 210.6 1367.4 Z" fill="#FFFFFF" opacity="0.096" /><path d="M 179.6 1170.1 L 2878.8 893.6 L 2878.8 1379.6 L 179.6 1656.1 Z" fill="#FFFFFF" opacity="0.238" /><path d="M 207.9 1421.8 L 2785.3 1145.3 L 2785.3 1589.6 L 207.9 1866.1 Z" fill="#FFFFFF" opacity="0.195" /><path d="M 241.0 1644.4 L 2750.3 1367.9 L 2750.3 1833.0 L 241.0 2109.5 Z" fill="#FFFFFF" opacity="0.239" /><path d="M 160.6 1934.6 L 2827.9 1658.1 L 2827.9 2153.2 L 160.6 2429.6 Z" fill="#FFFFFF" opacity="0.125" /><path d="M 173.8 2141.6 L 2899.9 1865.1 L 2899.9 2283.4 L 173.8 2559.9 Z" fill="#FFFFFF" opacity="0.137" /><path d="M 163.1 2474.5 L 2894.6 2198.0 L 2894.6 2651.8 L 163.1 2928.2 Z" fill="#FFFFFF" opacity="0.238" /></g>
  <g filter="url(#soft1006)"><g transform="rotate(-19.37 1536.0 1536.0)"><path d="M-368.6 545.0 C -225.8 551.9, -25.8 539.2, 107.5 591.5 C 250.4 599.3, 450.4 513.2, 583.7 598.9 C 726.5 586.7, 926.5 512.6, 1059.8 573.6 C 1202.7 568.8, 1402.7 522.0, 1536.0 530.9 C 1678.8 526.2, 1878.8 549.9, 2012.2 496.8 C 2155.0 513.2, 2355.0 564.6, 2488.3 492.0 C 2631.2 505.5, 2831.2 587.2, 2964.5 519.3 C 3107.3 529.4, 3307.3 573.0, 3440.6 562.2" fill="none" stroke="url(#ribbon1006)" stroke-width="58.4" stroke-linecap="round" stroke-opacity="0.120" /></g><g transform="rotate(-18.79 1536.0 1536.0)"><path d="M-368.6 709.2 C -241.7 679.7, -63.9 735.1, 54.6 648.5 C 181.6 671.2, 359.4 739.4, 477.9 656.7 C 604.8 650.6, 782.6 756.9, 901.1 696.8 C 1028.1 691.8, 1205.9 717.4, 1324.4 744.4 C 1451.3 742.2, 1629.1 696.3, 1747.6 770.6 C 1874.6 765.1, 2052.4 649.3, 2170.9 759.6 C 2297.9 758.3, 2475.6 678.8, 2594.1 718.0 C 2721.1 714.7, 2898.9 704.4, 3017.4 671.1 C 3144.4 680.3, 3322.1 726.4, 3440.6 647.2" fill="none" stroke="url(#ribbon1006)" stroke-width="54.4" stroke-linecap="round" stroke-opacity="0.146" /></g><g transform="rotate(-18.21 1536.0 1536.0)"><path d="M-368.6 890.5 C -254.4 801.9, -94.4 933.7, 12.3 839.9 C 126.6 821.7, 286.6 911.6, 393.2 889.3 C 507.5 888.9, 667.5 890.9, 774.1 939.5 C 888.4 951.7, 1048.4 867.7, 1155.1 959.9 C 1269.4 972.7, 1429.3 845.5, 1536.0 938.3 C 1650.3 934.5, 1810.3 873.9, 1916.9 887.6 C 2031.2 888.0, 2191.2 893.1, 2297.9 838.7 C 2412.1 854.6, 2572.1 938.3, 2678.8 821.2 C 2793.1 798.7, 2953.1 960.3, 3059.7 845.7 C 3174.0 836.5, 3334.0 914.2, 3440.6 897.4" fill="none" stroke="url(#ribbon1006)" stroke-width="50.4" stroke-linecap="round" stroke-opacity="0.172" /></g><g transform="rotate(-17.63 1536.0 1536.0)"><path d="M-368.6 1124.9 C -264.8 1218.1, -119.3 1054.1, -22.3 1145.5 C 81.5 1138.9, 227.0 1104.0, 324.0 1086.4 C 427.8 1071.4, 573.3 1144.0, 670.3 1050.6 C 774.1 1061.0, 919.6 1202.4, 1016.6 1059.9 C 1120.4 1045.7, 1265.9 1174.4, 1362.9 1108.6 C 1466.7 1103.7, 1612.2 1132.8, 1709.1 1167.1 C 1813.0 1178.3, 1958.5 1080.5, 2055.4 1200.0 C 2159.3 1183.1, 2304.8 1085.6, 2401.7 1187.3 C 2505.6 1165.5, 2651.1 1084.7, 2748.0 1136.7 C 2851.9 1135.2, 2997.4 1114.1, 3094.3 1078.9 C 3198.2 1087.5, 3343.7 1164.3, 3440.6 1049.0" fill="none" stroke="url(#ribbon1006)" stroke-width="46.4" stroke-linecap="round" stroke-opacity="0.198" /></g><g transform="rotate(-17.05 1536.0 1536.0)"><path d="M-368.6 1311.1 C -273.4 1395.3, -140.1 1259.0, -51.2 1378.9 C 44.0 1387.9, 177.4 1260.4, 266.2 1323.4 C 361.5 1321.5, 494.8 1307.2, 583.7 1260.3 C 678.9 1247.9, 812.2 1363.2, 901.1 1228.1 C 996.4 1251.4, 1129.7 1353.9, 1218.6 1246.2 C 1313.8 1248.7, 1447.1 1333.8, 1536.0 1303.7 C 1631.2 1305.9, 1764.6 1318.3, 1853.4 1365.6 C 1948.7 1368.5, 2082.0 1250.5, 2170.9 1394.5 C 2266.1 1407.9, 2399.4 1270.4, 2488.3 1372.8 C 2583.6 1390.2, 2716.9 1251.8, 2805.8 1313.6 C 2901.0 1313.5, 3034.3 1309.9, 3123.2 1253.0 C 3218.4 1252.9, 3351.8 1340.4, 3440.6 1227.5" fill="none" stroke="url(#ribbon1006)" stroke-width="42.4" stroke-linecap="round" stroke-opacity="0.224" /></g><g transform="rotate(-16.47 1536.0 1536.0)"><path d="M-368.6 1501.7 C -225.8 1427.2, -25.8 1552.8, 107.5 1412.0 C 250.4 1436.2, 450.4 1593.8, 583.7 1448.8 C 726.5 1463.5, 926.5 1559.9, 1059.8 1517.6 C 1202.7 1511.4, 1402.7 1485.1, 1536.0 1576.8 C 1678.8 1576.7, 1878.8 1428.2, 2012.2 1590.4 C 2155.0 1603.7, 2355.0 1407.1, 2488.3 1550.2 C 2631.2 1566.6, 2831.2 1465.7, 2964.5 1480.5 C 3107.3 1483.5, 3307.3 1521.6, 3440.6 1423.7" fill="none" stroke="url(#ribbon1006)" stroke-width="38.4" stroke-linecap="round" stroke-opacity="0.250" /></g><g transform="rotate(-15.89 1536.0 1536.0)"><path d="M-368.6 1694.0 C -241.7 1758.8, -63.9 1648.0, 54.6 1665.0 C 181.6 1657.3, 359.4 1723.1, 477.9 1606.9 C 604.8 1578.7, 782.6 1791.1, 901.1 1601.6 C 1028.1 1567.8, 1205.9 1780.8, 1324.4 1652.4 C 1451.3 1656.3, 1629.1 1741.5, 1747.6 1728.4 C 1874.6 1716.5, 2052.4 1655.1, 2170.9 1783.6 C 2297.9 1758.1, 2475.6 1627.2, 2594.1 1784.4 C 2721.1 1767.4, 2898.9 1658.4, 3017.4 1730.4 C 3144.4 1731.5, 3322.1 1669.9, 3440.6 1654.4" fill="none" stroke="url(#ribbon1006)" stroke-width="34.4" stroke-linecap="round" stroke-opacity="0.276" /></g><g transform="rotate(-15.31 1536.0 1536.0)"><path d="M-368.6 1858.0 C -254.4 1992.5, -94.4 1814.9, 12.3 1919.0 C 126.6 1928.2, 286.6 1804.2, 393.2 1839.4 C 507.5 1836.2, 667.5 1874.3, 774.1 1771.1 C 888.4 1798.4, 1048.4 1942.6, 1155.1 1755.4 C 1269.4 1792.8, 1429.3 1892.4, 1536.0 1802.0 C 1650.3 1789.8, 1810.3 1916.3, 1916.9 1882.5 C 2031.2 1880.8, 2191.2 1841.3, 2297.9 1948.1 C 2412.1 1948.6, 2572.1 1769.9, 2678.8 1959.0 C 2793.1 1979.1, 2953.1 1810.1, 3059.7 1908.7 C 3174.0 1891.3, 3334.0 1840.7, 3440.6 1827.5" fill="none" stroke="url(#ribbon1006)" stroke-width="30.4" stroke-linecap="round" stroke-opacity="0.302" /></g><g transform="rotate(-14.73 1536.0 1536.0)"><path d="M-368.6 2038.7 C -264.8 1966.2, -119.3 2122.2, -22.3 1929.7 C 81.5 1927.4, 227.0 2116.8, 324.0 1980.8 C 427.8 1975.0, 573.3 2088.8, 670.3 2066.9 C 774.1 2059.5, 919.6 2018.6, 1016.6 2136.0 C 1120.4 2100.6, 1265.9 1935.4, 1362.9 2146.0 C 1466.7 2104.9, 1612.2 1920.3, 1709.1 2091.0 C 1813.0 2079.1, 1958.5 2004.1, 2055.4 2004.2 C 2159.3 2015.6, 2304.8 2052.2, 2401.7 1938.4 C 2505.6 1948.2, 2651.1 2100.3, 2748.0 1933.4 C 2851.9 1899.1, 2997.4 2070.8, 3094.3 1992.3 C 3198.2 1993.1, 3343.7 2088.0, 3440.6 2079.4" fill="none" stroke="url(#ribbon1006)" stroke-width="26.4" stroke-linecap="round" stroke-opacity="0.328" /></g><g transform="rotate(-14.15 1536.0 1536.0)"><path d="M-368.6 2278.9 C -273.4 2373.2, -140.1 2157.7, -51.2 2393.7 C 44.0 2362.8, 177.4 2225.7, 266.2 2336.9 C 361.5 2349.9, 494.8 2220.4, 583.7 2244.9 C 678.9 2249.5, 812.2 2309.4, 901.1 2173.5 C 996.4 2199.0, 1129.7 2322.6, 1218.6 2166.0 C 1313.8 2153.9, 1447.1 2322.6, 1536.0 2227.0 C 1631.2 2208.6, 1764.6 2325.7, 1853.4 2319.5 C 1948.7 2308.7, 2082.0 2256.4, 2170.9 2387.3 C 2266.1 2392.3, 2399.4 2151.0, 2488.3 2389.4 C 2583.6 2427.1, 2716.9 2222.9, 2805.8 2324.4 C 2901.0 2334.4, 3034.3 2249.0, 3123.2 2231.8 C 3218.4 2240.0, 3351.8 2320.5, 3440.6 2167.8" fill="none" stroke="url(#ribbon1006)" stroke-width="22.4" stroke-linecap="round" stroke-opacity="0.354" /></g><g transform="rotate(-13.57 1536.0 1536.0)"><path d="M-368.6 2483.9 C -225.8 2534.0, -25.8 2452.4, 107.5 2432.3 C 250.4 2437.0, 450.4 2532.0, 583.7 2365.5 C 726.5 2402.0, 926.5 2592.7, 1059.8 2370.6 C 1202.7 2342.3, 1402.7 2573.8, 1536.0 2444.3 C 1678.8 2439.1, 1878.8 2513.3, 2012.2 2542.1 C 2155.0 2536.2, 2355.0 2459.8, 2488.3 2604.6 C 2631.2 2634.7, 2831.2 2444.8, 2964.5 2593.9 C 3107.3 2568.9, 3307.3 2407.1, 3440.6 2516.4" fill="none" stroke="url(#ribbon1006)" stroke-width="18.4" stroke-linecap="round" stroke-opacity="0.380" /></g><g transform="rotate(-12.99 1536.0 1536.0)"><path d="M-368.6 2643.6 C -241.7 2607.1, -63.9 2667.0, 54.6 2715.3 C 181.6 2742.0, 359.4 2592.1, 477.9 2773.9 C 604.8 2788.0, 782.6 2496.0, 901.1 2753.5 C 1028.1 2766.1, 1205.9 2534.5, 1324.4 2666.4 C 1451.3 2670.9, 1629.1 2634.0, 1747.6 2565.5 C 1874.6 2556.6, 2052.4 2702.6, 2170.9 2512.0 C 2297.9 2559.5, 2475.6 2750.5, 2594.1 2538.3 C 2721.1 2506.9, 2898.9 2684.8, 3017.4 2628.5 C 3144.4 2630.0, 3322.1 2651.6, 3440.6 2727.9" fill="none" stroke="url(#ribbon1006)" stroke-width="14.4" stroke-linecap="round" stroke-opacity="0.406" /></g></g>
  <g><ellipse cx="1536.0" cy="1551.9" rx="728.6" ry="605.7" fill="url(#extrude1006)" opacity="0.220" /><ellipse cx="1536.0" cy="1567.7" rx="736.0" ry="610.9" fill="url(#extrude1006)" opacity="0.205" /><ellipse cx="1536.0" cy="1583.6" rx="743.4" ry="616.1" fill="url(#extrude1006)" opacity="0.190" /><ellipse cx="1536.0" cy="1599.5" rx="750.9" ry="621.3" fill="url(#extrude1006)" opacity="0.175" /><ellipse cx="1536.0" cy="1615.4" rx="758.3" ry="626.5" fill="url(#extrude1006)" opacity="0.160" /><ellipse cx="1536.0" cy="1631.2" rx="765.7" ry="631.7" fill="url(#extrude1006)" opacity="0.145" /><ellipse cx="1536.0" cy="1647.1" rx="773.2" ry="636.9" fill="url(#extrude1006)" opacity="0.130" /><ellipse cx="1536.0" cy="1663.0" rx="780.6" ry="642.1" fill="url(#extrude1006)" opacity="0.115" /><ellipse cx="1536.0" cy="1678.8" rx="788.0" ry="647.4" fill="url(#extrude1006)" opacity="0.100" /><ellipse cx="1536.0" cy="1694.7" rx="795.5" ry="652.6" fill="url(#extrude1006)" opacity="0.085" /><ellipse cx="1536.0" cy="1710.6" rx="802.9" ry="657.8" fill="url(#extrude1006)" opacity="0.070" /><ellipse cx="1536.0" cy="1726.5" rx="810.3" ry="663.0" fill="url(#extrude1006)" opacity="0.055" /></g>
  <ellipse cx="1536.0" cy="1726.5" rx="773.2" ry="214.9" fill="#0B1D2D" opacity="0.24" />
  <ellipse cx="1536.0" cy="1536.0" rx="743.4" ry="651.3" fill="url(#orb1006)" stroke="#FFFFFF" stroke-opacity="0.42" stroke-width="7" />
  <ellipse cx="1431.9" cy="1392.7" rx="505.5" ry="299.6" fill="#FFFFFF" opacity="0.25" />
  <path d="M 199.4 399.4 C 1013.8 -30.7, 2058.2 768.0, 2872.6 215.0 L 2872.6 983.0 C 2089.0 1228.8, 1013.8 307.2, 199.4 1167.4 Z" fill="url(#glass1006)" />
  <rect x="270" y="270" width="2532" height="2532" rx="430" fill="none" stroke="#FFFFFF" stroke-opacity="0.30" stroke-width="5" />
  <rect x="288.4" y="288.4" width="2495.1" height="2495.1" rx="399" fill="none" stroke="#FFD84D" stroke-opacity="0.35" stroke-width="3" />
  <g filter="url(#soft1006)"><rect x="2163" y="2660" width="52" height="2" fill="#FFFFFF" opacity="0.514" /><rect x="2188" y="2635" width="2" height="52" fill="#FFFFFF" opacity="0.514" /><rect x="1145" y="917" width="76" height="2" fill="#FFFFFF" opacity="0.518" /><rect x="1182" y="880" width="2" height="76" fill="#FFFFFF" opacity="0.518" /><rect x="1996" y="1733" width="50" height="2" fill="#FFFFFF" opacity="0.348" /><rect x="2020" y="1709" width="2" height="50" fill="#FFFFFF" opacity="0.348" /><rect x="2764" y="1859" width="72" height="2" fill="#FFFFFF" opacity="0.361" /><rect x="2799" y="1824" width="2" height="72" fill="#FFFFFF" opacity="0.361" /><rect x="1091" y="2386" width="54" height="2" fill="#FFFFFF" opacity="0.762" /><rect x="1117" y="2360" width="2" height="54" fill="#FFFFFF" opacity="0.762" /><rect x="2310" y="1907" width="38" height="2" fill="#FFFFFF" opacity="0.449" /><rect x="2328" y="1889" width="2" height="38" fill="#FFFFFF" opacity="0.449" /><rect x="1093" y="1877" width="40" height="2" fill="#FFFFFF" opacity="0.668" /><rect x="1112" y="1858" width="2" height="40" fill="#FFFFFF" opacity="0.668" /><rect x="1724" y="2490" width="56" height="2" fill="#FFFFFF" opacity="0.845" /><rect x="1751" y="2463" width="2" height="56" fill="#FFFFFF" opacity="0.845" /><rect x="2029" y="766" width="56" height="2" fill="#FFFFFF" opacity="0.496" /><rect x="2056" y="739" width="2" height="56" fill="#FFFFFF" opacity="0.496" /><rect x="2486" y="641" width="78" height="2" fill="#FFFFFF" opacity="0.337" /><rect x="2524" y="603" width="2" height="78" fill="#FFFFFF" opacity="0.337" /><rect x="2171" y="2678" width="82" height="2" fill="#FFFFFF" opacity="0.818" /><rect x="2211" y="2638" width="2" height="82" fill="#FFFFFF" opacity="0.818" /><rect x="1309" y="2073" width="82" height="2" fill="#FFFFFF" opacity="0.303" /><rect x="1349" y="2033" width="2" height="82" fill="#FFFFFF" opacity="0.303" /><rect x="1103" y="1638" width="72" height="2" fill="#FFFFFF" opacity="0.719" /><rect x="1138" y="1603" width="2" height="72" fill="#FFFFFF" opacity="0.719" /><rect x="1843" y="1661" width="24" height="2" fill="#FFFFFF" opacity="0.629" /><rect x="1854" y="1650" width="2" height="24" fill="#FFFFFF" opacity="0.629" /><rect x="1045" y="2305" width="36" height="2" fill="#FFFFFF" opacity="0.336" /><rect x="1062" y="2288" width="2" height="36" fill="#FFFFFF" opacity="0.336" /><rect x="1847" y="1865" width="30" height="2" fill="#FFFFFF" opacity="0.335" /><rect x="1861" y="1851" width="2" height="30" fill="#FFFFFF" opacity="0.335" /><rect x="1439" y="2583" width="64" height="2" fill="#FFFFFF" opacity="0.402" /><rect x="1470" y="2552" width="2" height="64" fill="#FFFFFF" opacity="0.402" /><rect x="1559" y="1087" width="78" height="2" fill="#FFFFFF" opacity="0.714" /><rect x="1597" y="1049" width="2" height="78" fill="#FFFFFF" opacity="0.714" /><rect x="2003" y="1571" width="76" height="2" fill="#FFFFFF" opacity="0.453" /><rect x="2040" y="1534" width="2" height="76" fill="#FFFFFF" opacity="0.453" /><rect x="2596" y="2336" width="50" height="2" fill="#FFFFFF" opacity="0.530" /><rect x="2620" y="2312" width="2" height="50" fill="#FFFFFF" opacity="0.530" /><rect x="1304" y="2643" width="62" height="2" fill="#FFFFFF" opacity="0.642" /><rect x="1334" y="2613" width="2" height="62" fill="#FFFFFF" opacity="0.642" /><rect x="2459" y="1893" width="62" height="2" fill="#FFFFFF" opacity="0.326" /><rect x="2489" y="1863" width="2" height="62" fill="#FFFFFF" opacity="0.326" /><rect x="1275" y="1563" width="64" height="2" fill="#FFFFFF" opacity="0.561" /><rect x="1306" y="1532" width="2" height="64" fill="#FFFFFF" opacity="0.561" /><rect x="2788" y="812" width="62" height="2" fill="#FFFFFF" opacity="0.436" /><rect x="2818" y="782" width="2" height="62" fill="#FFFFFF" opacity="0.436" /><rect x="2486" y="2474" width="82" height="2" fill="#FFFFFF" opacity="0.576" /><rect x="2526" y="2434" width="2" height="82" fill="#FFFFFF" opacity="0.576" /><rect x="441" y="1463" width="84" height="2" fill="#FFFFFF" opacity="0.412" /><rect x="482" y="1422" width="2" height="84" fill="#FFFFFF" opacity="0.412" /></g>
  <g opacity="0.52"><path d="M996 1582 C1316 1006, 1572 2158, 2148 1582" fill="none" stroke="#0C2030" stroke-width="90" /><circle cx="1188" cy="1582" r="109" fill="#0C2030" /><circle cx="1572" cy="1582" r="109" fill="#0C2030" /><circle cx="1956" cy="1582" r="109" fill="#0C2030" /></g>
  <g filter="url(#soft1006)"><path d="M960 1536 C1280 960, 1536 2112, 2112 1536" fill="none" stroke="url(#symbol1006)" stroke-width="90" /><circle cx="1152" cy="1536" r="109" fill="url(#symbol1006)" /><circle cx="1536" cy="1536" r="109" fill="url(#symbol1006)" /><circle cx="1920" cy="1536" r="109" fill="url(#symbol1006)" /></g>
  <rect x="138" y="138" width="2796" height="2796" rx="629" fill="#FFFFFF" filter="url(#grain1006)" opacity="0.18" />
</svg>
