<svg xmlns="http://www.w3.org/2000/svg" width="3072" height="3072" viewBox="0 0 3072 3072">
  <title>QuartzOS System Icon 027 - memory_02</title>
  <defs><linearGradient id="bg1026" x1="0%" y1="0%" x2="100%" y2="100%"><stop offset="0%" stop-color="#FF9F43" /><stop offset="26%" stop-color="#53E3A6" /><stop offset="56%" stop-color="#3B82FF" /><stop offset="78%" stop-color="#4B91A3" /><stop offset="100%" stop-color="#1A2630" /></linearGradient><radialGradient id="sun1026" cx="46%" cy="41%" r="88%"><stop offset="0%" stop-color="#FFFFFF" stop-opacity="0.62" /><stop offset="30%" stop-color="#8A5CFF" stop-opacity="0.35" /><stop offset="100%" stop-color="#8A5CFF" stop-opacity="0" /></radialGradient><linearGradient id="glass1026" x1="0%" y1="0%" x2="0%" y2="100%"><stop offset="0%" stop-color="#FFFFFF" stop-opacity="0.70" /><stop offset="46%" stop-color="#FFFFFF" stop-opacity="0.26" /><stop offset="100%" stop-color="#FFFFFF" stop-opacity="0.00" /></linearGradient><linearGradient id="ribbon1026" x1="0%" y1="0%" x2="100%" y2="0%"><stop offset="0%" stop-color="#FF9F43" stop-opacity="0.18" /><stop offset="34%" stop-color="#53E3A6" stop-opacity="0.72" /><stop offset="66%" stop-color="#3B82FF" stop-opacity="0.72" /><stop offset="100%" stop-color="#8A5CFF" stop-opacity="0.18" /></linearGradient><radialGradient id="orb1026" cx="34%" cy="27%" r="74%"><stop offset="0%" stop-color="#FFFFFF" stop-opacity="0.84" /><stop offset="30%" stop-color="#FF9F43" stop-opacity="0.52" /><stop offset="68%" stop-color="#53E3A6" stop-opacity="0.42" /><stop offset="100%" stop-color="#3B82FF" stop-opacity="0.20" /></radialGradient><linearGradient id="extrude1026" x1="0%" y1="0%" x2="0%" y2="100%"><stop offset="0%" stop-color="#15283C" stop-opacity="0.45" /><stop offset="100%" stop-color="#08131D" stop-opacity="0.06" /></linearGradient><linearGradient id="symbol1026" x1="0%" y1="0%" x2="100%" y2="100%"><stop offset="0%" stop-color="#FFFFFF" /><stop offset="100%" stop-color="#8A5CFF" /></linearGradient><filter id="shadow1026" x="-40%" y="-40%" width="180%" height="180%"><feDropShadow dx="0" dy="49" stdDeviation="86" flood-color="#06111A" flood-opacity="0.54" /></filter><filter id="soft1026" x="-40%" y="-40%" width="180%" height="180%"><feDropShadow dx="0" dy="0" stdDeviation="14" flood-color="#FF9F43" flood-opacity="0.45" /></filter><filter id="grain1026"><feTurbulence type="fractalNoise" baseFrequency="0.969" numOctaves="2" seed="1026" /><feColorMatrix type="saturate" values="0" /><feComponentTransfer><feFuncA type="table" tableValues="0 0.09" /></feComponentTransfer></filter></defs>
  <rect x="138" y="138" width="2796" height="2796" rx="629" fill="url(#bg1026)" filter="url(#shadow1026)" />
  <rect x="138" y="138" width="2796" height="2796" rx="629" fill="url(#sun1026)" />
  <g><circle cx="1200" cy="1813" r="66" fill="#FFFFFF" opacity="0.210" /><circle cx="953" cy="2270" r="120" fill="#FFFFFF" opacity="0.168" /><circle cx="2233" cy="2198" r="104" fill="#FFFFFF" opacity="0.095" /><circle cx="2126" cy="548" r="109" fill="#FFFFFF" opacity="0.096" /><circle cx="2344" cy="1873" r="71" fill="#FFFFFF" opacity="0.123" /><circle cx="1267" cy="1994" r="113" fill="#FFFFFF" opacity="0.222" /><circle cx="1160" cy="2454" r="94" fill="#FFFFFF" opacity="0.086" /><circle cx="2296" cy="2425" r="49" fill="#FFFFFF" opacity="0.202" /><circle cx="658" cy="1201" r="129" fill="#FFFFFF" opacity="0.080" /><circle cx="1801" cy="1889" r="43" fill="#FFFFFF" opacity="0.088" /><circle cx="1012" cy="2691" r="123" fill="#FFFFFF" opacity="0.122" /><circle cx="1884" cy="1138" r="157" fill="#FFFFFF" opacity="0.113" /><circle cx="1255" cy="1277" r="114" fill="#FFFFFF" opacity="0.188" /><circle cx="2138" cy="2428" r="78" fill="#FFFFFF" opacity="0.171" /><circle cx="2418" cy="1446" r="40" fill="#FFFFFF" opacity="0.123" /><circle cx="1112" cy="2698" r="85" fill="#FFFFFF" opacity="0.067" /><circle cx="1481" cy="1778" r="107" fill="#FFFFFF" opacity="0.149" /><circle cx="2591" cy="668" r="138" fill="#FFFFFF" opacity="0.193" /><circle cx="1811" cy="2418" r="118" fill="#FFFFFF" opacity="0.172" /><circle cx="1006" cy="1091" r="129" fill="#FFFFFF" opacity="0.095" /><circle cx="397" cy="2522" r="102" fill="#FFFFFF" opacity="0.218" /><circle cx="2017" cy="1786" r="86" fill="#FFFFFF" opacity="0.152" /><circle cx="916" cy="2033" r="149" fill="#FFFFFF" opacity="0.213" /><circle cx="1209" cy="1788" r="74" fill="#FFFFFF" opacity="0.082" /><circle cx="1262" cy="626" r="73" fill="#FFFFFF" opacity="0.177" /><circle cx="2633" cy="1853" r="44" fill="#FFFFFF" opacity="0.194" /><circle cx="2230" cy="981" r="122" fill="#FFFFFF" opacity="0.109" /><circle cx="2461" cy="2129" r="119" fill="#FFFFFF" opacity="0.181" /></g>
  <g><path d="M 324.4 646.2 L 2690.9 369.7 L 2690.9 812.0 L 324.4 1088.5 Z" fill="#FFFFFF" opacity="0.111" /><path d="M 257.1 885.4 L 2775.7 609.0 L 2775.7 1087.9 L 257.1 1364.4 Z" fill="#FFFFFF" opacity="0.151" /><path d="M 381.4 1100.1 L 2858.7 823.6 L 2858.7 1246.5 L 381.4 1523.0 Z" fill="#FFFFFF" opacity="0.149" /><path d="M 289.1 1396.9 L 2843.2 1120.4 L 2843.2 1612.8 L 289.1 1889.3 Z" fill="#FFFFFF" opacity="0.134" /><path d="M 319.8 1648.6 L 2788.8 1372.1 L 2788.8 1860.1 L 319.8 2136.6 Z" fill="#FFFFFF" opacity="0.088" /><path d="M 386.4 1918.4 L 2712.2 1641.9 L 2712.2 2084.2 L 386.4 2360.6 Z" fill="#FFFFFF" opacity="0.091" /><path d="M 230.9 2195.8 L 2862.3 1919.3 L 2862.3 2357.8 L 230.9 2634.3 Z" fill="#FFFFFF" opacity="0.180" /><path d="M 195.4 2446.4 L 2867.3 2169.9 L 2867.3 2645.9 L 195.4 2922.4 Z" fill="#FFFFFF" opacity="0.142" /></g>
  <g filter="url(#soft1026)"><g transform="rotate(-22.19 1536.0 1536.0)"><path d="M-368.6 571.6 C -225.8 588.7, -25.8 555.6, 107.5 545.5 C 250.4 548.4, 450.4 591.4, 583.7 518.4 C 726.5 522.1, 926.5 614.4, 1059.8 523.6 C 1202.7 508.1, 1402.7 624.1, 1536.0 557.9 C 1678.8 559.3, 1878.8 587.3, 2012.2 600.5 C 2155.0 590.9, 2355.0 554.6, 2488.3 625.5 C 2631.2 612.1, 2831.2 512.3, 2964.5 617.9 C 3107.3 607.7, 3307.3 534.9, 3440.6 582.1" fill="none" stroke="url(#ribbon1026)" stroke-width="58.4" stroke-linecap="round" stroke-opacity="0.120" /></g><g transform="rotate(-21.61 1536.0 1536.0)"><path d="M-368.6 730.9 C -241.7 678.1, -63.9 789.0, 54.6 705.3 C 181.6 702.4, 359.4 746.5, 477.9 753.8 C 604.8 762.1, 782.6 721.7, 901.1 788.5 C 1028.1 775.1, 1205.9 676.7, 1324.4 788.1 C 1451.3 774.6, 1629.1 705.7, 1747.6 753.1 C 1874.6 761.1, 2052.4 722.3, 2170.9 704.5 C 2297.9 697.9, 2475.6 755.5, 2594.1 672.0 C 2721.1 694.5, 2898.9 756.6, 3017.4 675.1 C 3144.4 687.2, 3322.1 768.5, 3440.6 712.1" fill="none" stroke="url(#ribbon1026)" stroke-width="54.4" stroke-linecap="round" stroke-opacity="0.146" /></g><g transform="rotate(-21.03 1536.0 1536.0)"><path d="M-368.6 970.4 C -254.4 930.7, -94.4 1015.9, 12.3 901.8 C 126.6 891.6, 286.6 1015.0, 393.2 914.9 C 507.5 903.6, 667.5 1019.7, 774.1 961.6 C 888.4 964.8, 1048.4 973.6, 1155.1 1013.7 C 1269.4 1020.6, 1429.3 943.1, 1536.0 1039.5 C 1650.3 1052.0, 1810.3 936.4, 1916.9 1023.4 C 2031.2 1023.7, 2191.2 945.0, 2297.9 975.1 C 2412.1 976.4, 2572.1 968.8, 2678.8 924.0 C 2793.1 936.3, 2953.1 1014.8, 3059.7 901.0 C 3174.0 928.6, 3334.0 1037.9, 3440.6 920.1" fill="none" stroke="url(#ribbon1026)" stroke-width="50.4" stroke-linecap="round" stroke-opacity="0.172" /></g><g transform="rotate(-20.45 1536.0 1536.0)"><path d="M-368.6 1070.9 C -264.8 1169.4, -119.3 984.1, -22.3 1116.6 C 81.5 1111.4, 227.0 1035.8, 324.0 1058.8 C 427.8 1059.1, 573.3 1078.2, 670.3 1008.3 C 774.1 1028.2, 919.6 1099.5, 1016.6 995.7 C 1120.4 1015.7, 1265.9 1142.2, 1362.9 1028.8 C 1466.7 1045.1, 1612.2 1092.9, 1709.1 1087.3 C 1813.0 1084.0, 1958.5 1058.6, 2055.4 1135.9 C 2159.3 1155.6, 2304.8 1047.5, 2401.7 1145.1 C 2505.6 1124.7, 2651.1 1005.7, 2748.0 1109.2 C 2851.9 1110.9, 2997.4 1050.1, 3094.3 1050.1 C 3198.2 1058.2, 3343.7 1093.2, 3440.6 1003.6" fill="none" stroke="url(#ribbon1026)" stroke-width="46.4" stroke-linecap="round" stroke-opacity="0.198" /></g><g transform="rotate(-19.87 1536.0 1536.0)"><path d="M-368.6 1357.8 C -273.4 1407.4, -140.1 1332.8, -51.2 1399.3 C 44.0 1390.5, 177.4 1341.3, 266.2 1334.7 C 361.5 1331.1, 494.8 1371.6, 583.7 1284.1 C 678.9 1290.5, 812.2 1397.4, 901.1 1278.2 C 996.4 1293.0, 1129.7 1383.9, 1218.6 1320.6 C 1313.8 1331.1, 1447.1 1382.7, 1536.0 1385.6 C 1631.2 1385.1, 1764.6 1346.2, 1853.4 1433.7 C 1948.7 1410.2, 2082.0 1270.9, 2170.9 1435.8 C 2266.1 1447.5, 2399.4 1283.5, 2488.3 1390.6 C 2583.6 1378.3, 2716.9 1336.0, 2805.8 1325.5 C 2901.0 1335.1, 3034.3 1368.5, 3123.2 1280.0 C 3218.4 1259.5, 3351.8 1438.2, 3440.6 1281.7" fill="none" stroke="url(#ribbon1026)" stroke-width="42.4" stroke-linecap="round" stroke-opacity="0.224" /></g><g transform="rotate(-19.29 1536.0 1536.0)"><path d="M-368.6 1494.7 C -225.8 1423.8, -25.8 1558.6, 107.5 1509.2 C 250.4 1510.8, 450.4 1482.5, 583.7 1569.0 C 726.5 1544.2, 926.5 1437.5, 1059.8 1583.7 C 1202.7 1556.0, 1402.7 1454.7, 1536.0 1544.5 C 1678.8 1541.3, 1878.8 1468.2, 2012.2 1475.0 C 2155.0 1480.6, 2355.0 1509.5, 2488.3 1417.5 C 2631.2 1424.9, 2831.2 1584.7, 2964.5 1406.9 C 3107.3 1401.7, 3307.3 1525.8, 3440.6 1449.5" fill="none" stroke="url(#ribbon1026)" stroke-width="38.4" stroke-linecap="round" stroke-opacity="0.250" /></g><g transform="rotate(-18.71 1536.0 1536.0)"><path d="M-368.6 1653.8 C -241.7 1582.5, -63.9 1752.8, 54.6 1616.9 C 181.6 1628.8, 359.4 1665.2, 477.9 1693.0 C 604.8 1681.7, 782.6 1635.8, 901.1 1745.3 C 1028.1 1711.5, 1205.9 1596.2, 1324.4 1742.1 C 1451.3 1740.1, 1629.1 1562.5, 1747.6 1685.3 C 1874.6 1677.3, 2052.4 1621.7, 2170.9 1609.4 C 2297.9 1607.5, 2475.6 1683.3, 2594.1 1560.4 C 2721.1 1578.7, 2898.9 1691.6, 3017.4 1568.1 C 3144.4 1581.1, 3322.1 1741.2, 3440.6 1627.7" fill="none" stroke="url(#ribbon1026)" stroke-width="34.4" stroke-linecap="round" stroke-opacity="0.276" /></g><g transform="rotate(-18.13 1536.0 1536.0)"><path d="M-368.6 1900.9 C -254.4 1887.8, -94.4 1905.9, 12.3 1819.0 C 126.6 1789.2, 286.6 1968.4, 393.2 1797.0 C 507.5 1815.2, 667.5 1961.7, 774.1 1838.0 C 888.4 1856.4, 1048.4 1966.9, 1155.1 1917.1 C 1269.4 1917.9, 1429.3 1881.8, 1536.0 1986.5 C 1650.3 1967.5, 1810.3 1872.8, 1916.9 2003.9 C 2031.2 2003.9, 2191.2 1826.9, 2297.9 1958.9 C 2412.1 1963.0, 2572.1 1840.0, 2678.8 1878.7 C 2793.1 1870.8, 2953.1 1915.6, 3059.7 1812.0 C 3174.0 1812.6, 3334.0 1965.4, 3440.6 1799.2" fill="none" stroke="url(#ribbon1026)" stroke-width="30.4" stroke-linecap="round" stroke-opacity="0.302" /></g><g transform="rotate(-17.55 1536.0 1536.0)"><path d="M-368.6 2070.3 C -264.8 1963.7, -119.3 2142.8, -22.3 1960.3 C 81.5 1926.4, 227.0 2202.1, 324.0 2008.1 C 427.8 2000.2, 573.3 2099.6, 670.3 2093.6 C 774.1 2090.8, 919.6 2056.2, 1016.6 2165.0 C 1120.4 2163.1, 1265.9 2039.2, 1362.9 2178.9 C 1466.7 2210.9, 1612.2 1978.4, 1709.1 2126.9 C 1813.0 2105.2, 1958.5 2008.7, 2055.4 2040.5 C 2159.3 2049.7, 2304.8 2101.9, 2401.7 1972.2 C 2505.6 1950.3, 2651.1 2186.4, 2748.0 1963.4 C 2851.9 1977.8, 2997.4 2197.3, 3094.3 2019.4 C 3198.2 2038.8, 3343.7 2098.3, 3440.6 2106.2" fill="none" stroke="url(#ribbon1026)" stroke-width="26.4" stroke-linecap="round" stroke-opacity="0.328" /></g><g transform="rotate(-16.97 1536.0 1536.0)"><path d="M-368.6 2278.9 C -273.4 2428.6, -140.1 2138.9, -51.2 2349.8 C 44.0 2340.4, 177.4 2226.3, 266.2 2259.8 C 361.5 2255.3, 494.8 2292.6, 583.7 2181.4 C 678.9 2180.9, 812.2 2340.7, 901.1 2162.2 C 996.4 2171.6, 1129.7 2340.8, 1218.6 2213.7 C 1313.8 2211.5, 1447.1 2343.8, 1536.0 2304.8 C 1631.2 2306.0, 1764.6 2257.1, 1853.4 2380.2 C 1948.7 2390.4, 2082.0 2193.3, 2170.9 2394.1 C 2266.1 2418.9, 2399.4 2143.9, 2488.3 2338.2 C 2583.6 2338.9, 2716.9 2230.4, 2805.8 2246.3 C 2901.0 2239.6, 3034.3 2298.1, 3123.2 2174.2 C 3218.4 2154.3, 3351.8 2327.8, 3440.6 2165.6" fill="none" stroke="url(#ribbon1026)" stroke-width="22.4" stroke-linecap="round" stroke-opacity="0.354" /></g><g transform="rotate(-16.39 1536.0 1536.0)"><path d="M-368.6 2475.8 C -225.8 2567.1, -25.8 2387.0, 107.5 2597.6 C 250.4 2557.8, 450.4 2368.5, 583.7 2537.7 C 726.5 2538.5, 926.5 2445.9, 1059.8 2440.2 C 1202.7 2432.2, 1402.7 2492.5, 1536.0 2364.3 C 1678.8 2374.1, 1878.8 2540.2, 2012.2 2356.0 C 2155.0 2373.2, 2355.0 2562.9, 2488.3 2420.3 C 2631.2 2403.7, 2831.2 2533.3, 2964.5 2518.3 C 3107.3 2515.8, 3307.3 2435.1, 3440.6 2590.4" fill="none" stroke="url(#ribbon1026)" stroke-width="18.4" stroke-linecap="round" stroke-opacity="0.380" /></g><g transform="rotate(-15.81 1536.0 1536.0)"><path d="M-368.6 2696.8 C -241.7 2791.6, -63.9 2632.5, 54.6 2827.5 C 181.6 2838.5, 359.4 2596.1, 477.9 2805.5 C 604.8 2816.0, 782.6 2627.8, 901.1 2717.5 C 1028.1 2710.0, 1205.9 2688.4, 1324.4 2616.9 C 1451.3 2633.6, 1629.1 2756.2, 1747.6 2564.8 C 1874.6 2584.7, 2052.4 2787.6, 2170.9 2592.8 C 2297.9 2611.5, 2475.6 2799.5, 2594.1 2683.8 C 2721.1 2686.4, 2898.9 2706.6, 3017.4 2782.7 C 3144.4 2770.2, 3322.1 2662.0, 3440.6 2829.5" fill="none" stroke="url(#ribbon1026)" stroke-width="14.4" stroke-linecap="round" stroke-opacity="0.406" /></g></g>
  <g><ellipse cx="1536.0" cy="1551.9" rx="728.6" ry="605.7" fill="url(#extrude1026)" opacity="0.220" /><ellipse cx="1536.0" cy="1567.7" rx="736.0" ry="610.9" fill="url(#extrude1026)" opacity="0.205" /><ellipse cx="1536.0" cy="1583.6" rx="743.4" ry="616.1" fill="url(#extrude1026)" opacity="0.190" /><ellipse cx="1536.0" cy="1599.5" rx="750.9" ry="621.3" fill="url(#extrude1026)" opacity="0.175" /><ellipse cx="1536.0" cy="1615.4" rx="758.3" ry="626.5" fill="url(#extrude1026)" opacity="0.160" /><ellipse cx="1536.0" cy="1631.2" rx="765.7" ry="631.7" fill="url(#extrude1026)" opacity="0.145" /><ellipse cx="1536.0" cy="1647.1" rx="773.2" ry="636.9" fill="url(#extrude1026)" opacity="0.130" /><ellipse cx="1536.0" cy="1663.0" rx="780.6" ry="642.1" fill="url(#extrude1026)" opacity="0.115" /><ellipse cx="1536.0" cy="1678.8" rx="788.0" ry="647.4" fill="url(#extrude1026)" opacity="0.100" /><ellipse cx="1536.0" cy="1694.7" rx="795.5" ry="652.6" fill="url(#extrude1026)" opacity="0.085" /><ellipse cx="1536.0" cy="1710.6" rx="802.9" ry="657.8" fill="url(#extrude1026)" opacity="0.070" /><ellipse cx="1536.0" cy="1726.5" rx="810.3" ry="663.0" fill="url(#extrude1026)" opacity="0.055" /></g>
  <ellipse cx="1536.0" cy="1726.5" rx="773.2" ry="214.9" fill="#0B1D2D" opacity="0.24" />
  <ellipse cx="1536.0" cy="1536.0" rx="743.4" ry="651.3" fill="url(#orb1026)" stroke="#FFFFFF" stroke-opacity="0.42" stroke-width="7" />
  <ellipse cx="1431.9" cy="1392.7" rx="505.5" ry="299.6" fill="#FFFFFF" opacity="0.25" />
  <path d="M 199.4 399.4 C 1013.8 -30.7, 2058.2 768.0, 2872.6 215.0 L 2872.6 983.0 C 2089.0 1228.8, 1013.8 307.2, 199.4 1167.4 Z" fill="url(#glass1026)" />
  <rect x="270" y="270" width="2532" height="2532" rx="430" fill="none" stroke="#FFFFFF" stroke-opacity="0.30" stroke-width="5" />
  <rect x="288.4" y="288.4" width="2495.1" height="2495.1" rx="399" fill="none" stroke="#FF9F43" stroke-opacity="0.35" stroke-width="3" />
  <g filter="url(#soft1026)"><rect x="2014" y="1960" width="28" height="2" fill="#FFFFFF" opacity="0.469" /><rect x="2027" y="1947" width="2" height="28" fill="#FFFFFF" opacity="0.469" /><rect x="300" y="1450" width="46" height="2" fill="#FFFFFF" opacity="0.313" /><rect x="322" y="1428" width="2" height="46" fill="#FFFFFF" opacity="0.313" /><rect x="444" y="2413" width="34" height="2" fill="#FFFFFF" opacity="0.538" /><rect x="460" y="2397" width="2" height="34" fill="#FFFFFF" opacity="0.538" /><rect x="1618" y="1726" width="82" height="2" fill="#FFFFFF" opacity="0.565" /><rect x="1658" y="1686" width="2" height="82" fill="#FFFFFF" opacity="0.565" /><rect x="1086" y="1540" width="72" height="2" fill="#FFFFFF" opacity="0.533" /><rect x="1121" y="1505" width="2" height="72" fill="#FFFFFF" opacity="0.533" /><rect x="1601" y="2720" width="56" height="2" fill="#FFFFFF" opacity="0.499" /><rect x="1628" y="2693" width="2" height="56" fill="#FFFFFF" opacity="0.499" /><rect x="495" y="2019" width="48" height="2" fill="#FFFFFF" opacity="0.748" /><rect x="518" y="1996" width="2" height="48" fill="#FFFFFF" opacity="0.748" /><rect x="879" y="2169" width="26" height="2" fill="#FFFFFF" opacity="0.613" /><rect x="891" y="2157" width="2" height="26" fill="#FFFFFF" opacity="0.613" /><rect x="797" y="1859" width="28" height="2" fill="#FFFFFF" opacity="0.489" /><rect x="810" y="1846" width="2" height="28" fill="#FFFFFF" opacity="0.489" /><rect x="2584" y="1229" width="38" height="2" fill="#FFFFFF" opacity="0.311" /><rect x="2602" y="1211" width="2" height="38" fill="#FFFFFF" opacity="0.311" /><rect x="1788" y="1176" width="40" height="2" fill="#FFFFFF" opacity="0.557" /><rect x="1807" y="1157" width="2" height="40" fill="#FFFFFF" opacity="0.557" /><rect x="1628" y="628" width="60" height="2" fill="#FFFFFF" opacity="0.412" /><rect x="1657" y="599" width="2" height="60" fill="#FFFFFF" opacity="0.412" /><rect x="1274" y="1565" width="66" height="2" fill="#FFFFFF" opacity="0.546" /><rect x="1306" y="1533" width="2" height="66" fill="#FFFFFF" opacity="0.546" /><rect x="2393" y="2005" width="60" height="2" fill="#FFFFFF" opacity="0.455" /><rect x="2422" y="1976" width="2" height="60" fill="#FFFFFF" opacity="0.455" /><rect x="1218" y="599" width="82" height="2" fill="#FFFFFF" opacity="0.843" /><rect x="1258" y="559" width="2" height="82" fill="#FFFFFF" opacity="0.843" /><rect x="1985" y="1858" width="28" height="2" fill="#FFFFFF" opacity="0.723" /><rect x="1998" y="1845" width="2" height="28" fill="#FFFFFF" opacity="0.723" /><rect x="2090" y="1591" width="72" height="2" fill="#FFFFFF" opacity="0.542" /><rect x="2125" y="1556" width="2" height="72" fill="#FFFFFF" opacity="0.542" /><rect x="1957" y="754" width="28" height="2" fill="#FFFFFF" opacity="0.723" /><rect x="1970" y="741" width="2" height="28" fill="#FFFFFF" opacity="0.723" /><rect x="515" y="848" width="50" height="2" fill="#FFFFFF" opacity="0.615" /><rect x="539" y="824" width="2" height="50" fill="#FFFFFF" opacity="0.615" /><rect x="781" y="2627" width="32" height="2" fill="#FFFFFF" opacity="0.722" /><rect x="796" y="2612" width="2" height="32" fill="#FFFFFF" opacity="0.722" /><rect x="327" y="274" width="56" height="2" fill="#FFFFFF" opacity="0.798" /><rect x="354" y="247" width="2" height="56" fill="#FFFFFF" opacity="0.798" /><rect x="2077" y="1642" width="48" height="2" fill="#FFFFFF" opacity="0.300" /><rect x="2100" y="1619" width="2" height="48" fill="#FFFFFF" opacity="0.300" /><rect x="1788" y="2487" width="30" height="2" fill="#FFFFFF" opacity="0.625" /><rect x="1802" y="2473" width="2" height="30" fill="#FFFFFF" opacity="0.625" /><rect x="1046" y="1949" width="62" height="2" fill="#FFFFFF" opacity="0.507" /><rect x="1076" y="1919" width="2" height="62" fill="#FFFFFF" opacity="0.507" /><rect x="1506" y="1071" width="26" height="2" fill="#FFFFFF" opacity="0.784" /><rect x="1518" y="1059" width="2" height="26" fill="#FFFFFF" opacity="0.784" /><rect x="1895" y="2346" width="32" height="2" fill="#FFFFFF" opacity="0.828" /><rect x="1910" y="2331" width="2" height="32" fill="#FFFFFF" opacity="0.828" /></g>
  <g opacity="0.52"><path d="M996 1582 Q1572 1006, 2148 1582" fill="none" stroke="#0C2030" stroke-width="90" /><path d="M996 1801 Q1572 1198, 2148 1801" fill="none" stroke="#0C2030" stroke-width="88" opacity="0.9" /><path d="M996 1966 Q1572 1326, 2148 1966" fill="none" stroke="#0C2030" stroke-width="87" opacity="0.75" /></g>
  <g filter="url(#soft1026)"><path d="M960 1536 Q1536 960, 2112 1536" fill="none" stroke="url(#symbol1026)" stroke-width="90" /><path d="M960 1755 Q1536 1152, 2112 1755" fill="none" stroke="url(#symbol1026)" stroke-width="88" opacity="0.9" /><path d="M960 1920 Q1536 1280, 2112 1920" fill="none" stroke="url(#symbol1026)" stroke-width="87" opacity="0.75" /></g>
  <rect x="138" y="138" width="2796" height="2796" rx="629" fill="#FFFFFF" filter="url(#grain1026)" opacity="0.18" />
</svg>
