<svg xmlns="http://www.w3.org/2000/svg" width="3072" height="3072" viewBox="0 0 3072 3072">
  <title>QuartzOS System Icon 021 - network_02</title>
  <defs><linearGradient id="bg1020" x1="0%" y1="0%" x2="100%" y2="100%"><stop offset="0%" stop-color="#FFD84D" /><stop offset="26%" stop-color="#36D1FF" /><stop offset="56%" stop-color="#8A5CFF" /><stop offset="78%" stop-color="#4E8FC5" /><stop offset="100%" stop-color="#10243A" /></linearGradient><radialGradient id="sun1020" cx="31%" cy="28%" r="88%"><stop offset="0%" stop-color="#FFFFFF" stop-opacity="0.62" /><stop offset="30%" stop-color="#FF6AB3" stop-opacity="0.35" /><stop offset="100%" stop-color="#FF6AB3" stop-opacity="0" /></radialGradient><linearGradient id="glass1020" x1="0%" y1="0%" x2="0%" y2="100%"><stop offset="0%" stop-color="#FFFFFF" stop-opacity="0.70" /><stop offset="46%" stop-color="#FFFFFF" stop-opacity="0.26" /><stop offset="100%" stop-color="#FFFFFF" stop-opacity="0.00" /></linearGradient><linearGradient id="ribbon1020" x1="0%" y1="0%" x2="100%" y2="0%"><stop offset="0%" stop-color="#FFD84D" stop-opacity="0.18" /><stop offset="34%" stop-color="#36D1FF" stop-opacity="0.72" /><stop offset="66%" stop-color="#8A5CFF" stop-opacity="0.72" /><stop offset="100%" stop-color="#FF6AB3" stop-opacity="0.18" /></linearGradient><radialGradient id="orb1020" cx="34%" cy="27%" r="74%"><stop offset="0%" stop-color="#FFFFFF" stop-opacity="0.84" /><stop offset="30%" stop-color="#FFD84D" stop-opacity="0.52" /><stop offset="68%" stop-color="#36D1FF" stop-opacity="0.42" /><stop offset="100%" stop-color="#8A5CFF" stop-opacity="0.20" /></radialGradient><linearGradient id="extrude1020" x1="0%" y1="0%" x2="0%" y2="100%"><stop offset="0%" stop-color="#15283C" stop-opacity="0.45" /><stop offset="100%" stop-color="#08131D" stop-opacity="0.06" /></linearGradient><linearGradient id="symbol1020" x1="0%" y1="0%" x2="100%" y2="100%"><stop offset="0%" stop-color="#FFFFFF" /><stop offset="100%" stop-color="#FF6AB3" /></linearGradient><filter id="shadow1020" x="-40%" y="-40%" width="180%" height="180%"><feDropShadow dx="0" dy="49" stdDeviation="86" flood-color="#06111A" flood-opacity="0.54" /></filter><filter id="soft1020" x="-40%" y="-40%" width="180%" height="180%"><feDropShadow dx="0" dy="0" stdDeviation="14" flood-color="#FFD84D" flood-opacity="0.45" /></filter><filter id="grain1020"><feTurbulence type="fractalNoise" baseFrequency="0.669" numOctaves="2" seed="1020" /><feColorMatrix type="saturate" values="0" /><feComponentTransfer><feFuncA type="table" tableValues="0 0.09" /></feComponentTransfer></filter></defs>
  <rect x="138" y="138" width="2796" height="2796" rx="629" fill="url(#bg1020)" filter="url(#shadow1020)" />
  <rect x="138" y="138" width="2796" height="2796" rx="629" fill="url(#sun1020)" />
  <g><circle cx="1675" cy="641" r="130" fill="#FFFFFF" opacity="0.228" /><circle cx="1626" cy="541" r="132" fill="#FFFFFF" opacity="0.168" /><circle cx="497" cy="1002" r="66" fill="#FFFFFF" opacity="0.221" /><circle cx="2218" cy="1280" r="51" fill="#FFFFFF" opacity="0.177" /><circle cx="738" cy="1147" r="112" fill="#FFFFFF" opacity="0.154" /><circle cx="2353" cy="1960" r="58" fill="#FFFFFF" opacity="0.222" /><circle cx="2027" cy="1185" r="101" fill="#FFFFFF" opacity="0.155" /><circle cx="1272" cy="1239" r="140" fill="#FFFFFF" opacity="0.189" /><circle cx="1695" cy="1382" r="93" fill="#FFFFFF" opacity="0.076" /><circle cx="2235" cy="1898" r="140" fill="#FFFFFF" opacity="0.125" /><circle cx="732" cy="2490" r="97" fill="#FFFFFF" opacity="0.170" /><circle cx="1032" cy="1354" r="69" fill="#FFFFFF" opacity="0.222" /><circle cx="1708" cy="2021" r="49" fill="#FFFFFF" opacity="0.122" /><circle cx="1496" cy="2088" r="56" fill="#FFFFFF" opacity="0.229" /><circle cx="1009" cy="864" r="39" fill="#FFFFFF" opacity="0.193" /><circle cx="1970" cy="1266" r="59" fill="#FFFFFF" opacity="0.093" /><circle cx="1060" cy="1057" r="66" fill="#FFFFFF" opacity="0.186" /><circle cx="1771" cy="2663" r="79" fill="#FFFFFF" opacity="0.210" /><circle cx="522" cy="1923" r="153" fill="#FFFFFF" opacity="0.167" /><circle cx="1956" cy="591" r="130" fill="#FFFFFF" opacity="0.191" /><circle cx="2134" cy="1735" r="112" fill="#FFFFFF" opacity="0.075" /><circle cx="408" cy="511" r="100" fill="#FFFFFF" opacity="0.125" /><circle cx="864" cy="2535" r="53" fill="#FFFFFF" opacity="0.203" /><circle cx="2234" cy="2063" r="107" fill="#FFFFFF" opacity="0.184" /><circle cx="1388" cy="1321" r="37" fill="#FFFFFF" opacity="0.196" /><circle cx="1126" cy="2004" r="127" fill="#FFFFFF" opacity="0.192" /><circle cx="1858" cy="1152" r="106" fill="#FFFFFF" opacity="0.184" /><circle cx="1734" cy="2699" r="120" fill="#FFFFFF" opacity="0.066" /></g>
  <g><path d="M 263.0 646.1 L 2760.4 369.6 L 2760.4 795.5 L 263.0 1072.0 Z" fill="#FFFFFF" opacity="0.145" /><path d="M 164.3 901.5 L 2893.3 625.1 L 2893.3 1048.7 L 164.3 1325.2 Z" fill="#FFFFFF" opacity="0.123" /><path d="M 188.5 1123.4 L 2716.2 846.9 L 2716.2 1312.4 L 188.5 1588.9 Z" fill="#FFFFFF" opacity="0.191" /><path d="M 164.8 1383.9 L 2813.6 1107.4 L 2813.6 1579.9 L 164.8 1856.4 Z" fill="#FFFFFF" opacity="0.154" /><path d="M 348.6 1704.4 L 2847.5 1427.9 L 2847.5 1864.6 L 348.6 2141.1 Z" fill="#FFFFFF" opacity="0.178" /><path d="M 355.8 1901.2 L 2795.2 1624.7 L 2795.2 2101.9 L 355.8 2378.4 Z" fill="#FFFFFF" opacity="0.152" /><path d="M 310.8 2211.4 L 2768.7 1934.9 L 2768.7 2424.5 L 310.8 2701.0 Z" fill="#FFFFFF" opacity="0.148" /><path d="M 206.1 2482.9 L 2735.5 2206.4 L 2735.5 2694.5 L 206.1 2971.0 Z" fill="#FFFFFF" opacity="0.180" /></g>
  <g filter="url(#soft1020)"><g transform="rotate(-18.12 1536.0 1536.0)"><path d="M-368.6 539.7 C -225.8 509.6, -25.8 567.8, 107.5 487.1 C 250.4 506.6, 450.4 602.1, 583.7 515.3 C 726.5 520.2, 926.5 561.8, 1059.8 558.3 C 1202.7 558.8, 1402.7 530.4, 1536.0 590.0 C 1678.8 578.6, 1878.8 512.3, 2012.2 591.1 C 2155.0 596.4, 2355.0 516.9, 2488.3 561.1 C 2631.2 569.3, 2831.2 521.1, 2964.5 518.0 C 3107.3 519.2, 3307.3 561.7, 3440.6 488.1" fill="none" stroke="url(#ribbon1020)" stroke-width="58.4" stroke-linecap="round" stroke-opacity="0.120" /></g><g transform="rotate(-17.54 1536.0 1536.0)"><path d="M-368.6 679.0 C -241.7 697.8, -63.9 662.3, 54.6 733.6 C 181.6 730.9, 359.4 651.0, 477.9 738.7 C 604.8 739.3, 782.6 655.9, 901.1 707.6 C 1028.1 704.3, 1205.9 651.1, 1324.4 659.1 C 1451.3 664.7, 1629.1 690.2, 1747.6 622.8 C 1874.6 635.3, 2052.4 706.3, 2170.9 620.5 C 2297.9 643.3, 2475.6 728.3, 2594.1 653.7 C 2721.1 659.6, 2898.9 708.7, 3017.4 702.3 C 3144.4 710.0, 3322.1 657.7, 3440.6 736.7" fill="none" stroke="url(#ribbon1020)" stroke-width="54.4" stroke-linecap="round" stroke-opacity="0.146" /></g><g transform="rotate(-16.96 1536.0 1536.0)"><path d="M-368.6 900.4 C -254.4 938.8, -94.4 864.0, 12.3 969.8 C 126.6 976.9, 286.6 850.9, 393.2 951.4 C 507.5 962.3, 667.5 867.9, 774.1 902.1 C 888.4 901.5, 1048.4 899.6, 1155.1 851.8 C 1269.4 860.8, 1429.3 956.0, 1536.0 831.0 C 1650.3 811.9, 1810.3 953.0, 1916.9 852.4 C 2031.2 843.7, 2191.2 955.3, 2297.9 902.9 C 2412.1 902.1, 2572.1 898.0, 2678.8 951.9 C 2793.1 932.6, 2953.1 859.1, 3059.7 969.7 C 3174.0 959.1, 3334.0 828.3, 3440.6 945.5" fill="none" stroke="url(#ribbon1020)" stroke-width="50.4" stroke-linecap="round" stroke-opacity="0.172" /></g><g transform="rotate(-16.38 1536.0 1536.0)"><path d="M-368.6 1114.7 C -264.8 1065.7, -119.3 1128.1, -22.3 1131.9 C 81.5 1137.8, 227.0 1106.8, 324.0 1180.1 C 427.8 1170.6, 573.3 1036.2, 670.3 1188.6 C 774.1 1213.8, 919.6 1041.7, 1016.6 1152.3 C 1120.4 1163.2, 1265.9 1081.7, 1362.9 1093.1 C 1466.7 1087.0, 1612.2 1134.1, 1709.1 1047.0 C 1813.0 1046.9, 1958.5 1165.9, 2055.4 1041.9 C 2159.3 1058.9, 2304.8 1190.8, 2401.7 1081.0 C 2505.6 1068.5, 2651.1 1148.1, 2748.0 1140.5 C 2851.9 1148.5, 2997.4 1100.0, 3094.3 1184.3 C 3198.2 1160.7, 3343.7 1074.6, 3440.6 1185.9" fill="none" stroke="url(#ribbon1020)" stroke-width="46.4" stroke-linecap="round" stroke-opacity="0.198" /></g><g transform="rotate(-15.80 1536.0 1536.0)"><path d="M-368.6 1288.3 C -273.4 1346.5, -140.1 1230.5, -51.2 1294.4 C 44.0 1293.1, 177.4 1286.3, 266.2 1232.8 C 361.5 1212.8, 494.8 1353.1, 583.7 1204.9 C 678.9 1175.0, 812.2 1358.8, 901.1 1227.5 C 996.4 1220.1, 1129.7 1354.0, 1218.6 1287.1 C 1313.8 1287.1, 1447.1 1289.7, 1536.0 1347.4 C 1631.2 1352.7, 1764.6 1251.1, 1853.4 1371.9 C 1948.7 1378.5, 2082.0 1189.9, 2170.9 1345.7 C 2266.1 1345.5, 2399.4 1224.7, 2488.3 1284.7 C 2583.6 1285.3, 2716.9 1291.2, 2805.8 1225.9 C 2901.0 1208.5, 3034.3 1363.0, 3123.2 1205.0 C 3218.4 1222.4, 3351.8 1333.7, 3440.6 1234.6" fill="none" stroke="url(#ribbon1020)" stroke-width="42.4" stroke-linecap="round" stroke-opacity="0.224" /></g><g transform="rotate(-15.22 1536.0 1536.0)"><path d="M-368.6 1518.2 C -225.8 1437.5, -25.8 1559.5, 107.5 1427.8 C 250.4 1444.4, 450.4 1606.1, 583.7 1451.4 C 726.5 1451.3, 926.5 1596.0, 1059.8 1515.5 C 1202.7 1514.6, 1402.7 1519.1, 1536.0 1581.3 C 1678.8 1556.6, 1878.8 1454.6, 2012.2 1608.9 C 2155.0 1619.7, 2355.0 1464.5, 2488.3 1581.4 C 2631.2 1602.0, 2831.2 1470.0, 2964.5 1515.6 C 3107.3 1514.6, 3307.3 1520.7, 3440.6 1451.4" fill="none" stroke="url(#ribbon1020)" stroke-width="38.4" stroke-linecap="round" stroke-opacity="0.250" /></g><g transform="rotate(-14.64 1536.0 1536.0)"><path d="M-368.6 1679.3 C -241.7 1658.4, -63.9 1694.8, 54.6 1723.3 C 181.6 1715.7, 359.4 1632.8, 477.9 1772.5 C 604.8 1751.5, 782.6 1573.2, 901.1 1765.2 C 1028.1 1780.8, 1205.9 1638.8, 1324.4 1705.7 C 1451.3 1713.9, 1629.1 1667.8, 1747.6 1630.2 C 1874.6 1630.8, 2052.4 1725.8, 2170.9 1584.5 C 2297.9 1562.6, 2475.6 1787.7, 2594.1 1596.3 C 2721.1 1582.4, 2898.9 1736.4, 3017.4 1658.4 C 3144.4 1658.3, 3322.1 1690.7, 3440.6 1733.2" fill="none" stroke="url(#ribbon1020)" stroke-width="34.4" stroke-linecap="round" stroke-opacity="0.276" /></g><g transform="rotate(-14.06 1536.0 1536.0)"><path d="M-368.6 1870.1 C -254.4 1936.7, -94.4 1828.0, 12.3 1867.3 C 126.6 1867.8, 286.6 1871.1, 393.2 1793.0 C 507.5 1764.0, 667.5 1942.4, 774.1 1765.5 C 888.4 1763.9, 1048.4 1905.5, 1155.1 1801.4 C 1269.4 1824.1, 1429.3 1922.0, 1536.0 1879.0 C 1650.3 1875.9, 1810.3 1861.2, 1916.9 1951.2 C 2031.2 1942.5, 2191.2 1788.0, 2297.9 1974.2 C 2412.1 1946.0, 2572.1 1779.5, 2678.8 1934.0 C 2793.1 1953.3, 2953.1 1841.8, 3059.7 1855.1 C 3174.0 1855.8, 3334.0 1882.9, 3440.6 1785.3" fill="none" stroke="url(#ribbon1020)" stroke-width="30.4" stroke-linecap="round" stroke-opacity="0.302" /></g><g transform="rotate(-13.48 1536.0 1536.0)"><path d="M-368.6 2012.3 C -264.8 1888.5, -119.3 2079.7, -22.3 1990.1 C 81.5 1998.4, 227.0 2035.6, 324.0 2075.4 C 427.8 2099.2, 573.3 1944.9, 670.3 2122.5 C 774.1 2127.5, 919.6 1931.2, 1016.6 2102.7 C 1120.4 2110.2, 1265.9 1982.8, 1362.9 2028.1 C 1466.7 2025.6, 1612.2 2001.9, 1709.1 1943.9 C 1813.0 1965.3, 1958.5 2040.2, 2055.4 1901.2 C 2159.3 1885.0, 2304.8 2100.7, 2401.7 1925.9 C 2505.6 1950.7, 2651.1 2104.8, 2748.0 2003.0 C 2851.9 2000.1, 2997.4 2023.3, 3094.3 2085.7 C 3198.2 2067.1, 3343.7 1955.0, 3440.6 2123.9" fill="none" stroke="url(#ribbon1020)" stroke-width="26.4" stroke-linecap="round" stroke-opacity="0.328" /></g><g transform="rotate(-12.90 1536.0 1536.0)"><path d="M-368.6 2312.0 C -273.4 2296.7, -140.1 2324.9, -51.2 2214.4 C 44.0 2232.4, 177.4 2376.5, 266.2 2195.3 C 361.5 2173.7, 494.8 2437.8, 583.7 2247.1 C 678.9 2226.5, 812.2 2364.9, 901.1 2338.2 C 996.4 2343.3, 1129.7 2303.0, 1218.6 2413.4 C 1313.8 2438.9, 1447.1 2257.1, 1536.0 2427.2 C 1631.2 2393.7, 1764.6 2194.0, 1853.4 2371.0 C 1948.7 2390.6, 2082.0 2289.0, 2170.9 2279.1 C 2266.1 2288.2, 2399.4 2324.7, 2488.3 2207.1 C 2583.6 2231.9, 2716.9 2396.5, 2805.8 2198.8 C 2901.0 2192.8, 3034.3 2374.2, 3123.2 2259.1 C 3218.4 2248.2, 3351.8 2372.0, 3440.6 2351.5" fill="none" stroke="url(#ribbon1020)" stroke-width="22.4" stroke-linecap="round" stroke-opacity="0.354" /></g><g transform="rotate(-12.32 1536.0 1536.0)"><path d="M-368.6 2453.5 C -225.8 2359.4, -25.8 2538.0, 107.5 2465.6 C 250.4 2463.0, 450.4 2441.1, 583.7 2551.8 C 726.5 2569.5, 926.5 2338.9, 1059.8 2578.5 C 1202.7 2564.1, 1402.7 2306.9, 1536.0 2529.3 C 1678.8 2507.9, 1878.8 2371.7, 2012.2 2434.1 C 2155.0 2426.4, 2355.0 2476.3, 2488.3 2350.7 C 2631.2 2365.9, 2831.2 2529.6, 2964.5 2329.7 C 3107.3 2315.3, 3307.3 2523.6, 3440.6 2383.7" fill="none" stroke="url(#ribbon1020)" stroke-width="18.4" stroke-linecap="round" stroke-opacity="0.380" /></g><g transform="rotate(-11.74 1536.0 1536.0)"><path d="M-368.6 2704.2 C -241.7 2771.8, -63.9 2603.1, 54.6 2837.2 C 181.6 2865.4, 359.4 2545.2, 477.9 2798.8 C 604.8 2768.2, 782.6 2631.7, 901.1 2703.0 C 1028.1 2702.9, 1205.9 2705.1, 1324.4 2607.9 C 1451.3 2581.3, 1629.1 2805.0, 1747.6 2571.3 C 1874.6 2584.8, 2052.4 2810.3, 2170.9 2615.3 C 2297.9 2614.2, 2475.6 2758.0, 2594.1 2713.3 C 2721.1 2711.7, 2898.9 2696.7, 3017.4 2805.7 C 3144.4 2785.7, 3322.1 2606.9, 3440.6 2836.6" fill="none" stroke="url(#ribbon1020)" stroke-width="14.4" stroke-linecap="round" stroke-opacity="0.406" /></g></g>
  <g><ellipse cx="1536.0" cy="1551.9" rx="728.6" ry="605.7" fill="url(#extrude1020)" opacity="0.220" /><ellipse cx="1536.0" cy="1567.7" rx="736.0" ry="610.9" fill="url(#extrude1020)" opacity="0.205" /><ellipse cx="1536.0" cy="1583.6" rx="743.4" ry="616.1" fill="url(#extrude1020)" opacity="0.190" /><ellipse cx="1536.0" cy="1599.5" rx="750.9" ry="621.3" fill="url(#extrude1020)" opacity="0.175" /><ellipse cx="1536.0" cy="1615.4" rx="758.3" ry="626.5" fill="url(#extrude1020)" opacity="0.160" /><ellipse cx="1536.0" cy="1631.2" rx="765.7" ry="631.7" fill="url(#extrude1020)" opacity="0.145" /><ellipse cx="1536.0" cy="1647.1" rx="773.2" ry="636.9" fill="url(#extrude1020)" opacity="0.130" /><ellipse cx="1536.0" cy="1663.0" rx="780.6" ry="642.1" fill="url(#extrude1020)" opacity="0.115" /><ellipse cx="1536.0" cy="1678.8" rx="788.0" ry="647.4" fill="url(#extrude1020)" opacity="0.100" /><ellipse cx="1536.0" cy="1694.7" rx="795.5" ry="652.6" fill="url(#extrude1020)" opacity="0.085" /><ellipse cx="1536.0" cy="1710.6" rx="802.9" ry="657.8" fill="url(#extrude1020)" opacity="0.070" /><ellipse cx="1536.0" cy="1726.5" rx="810.3" ry="663.0" fill="url(#extrude1020)" opacity="0.055" /></g>
  <ellipse cx="1536.0" cy="1726.5" rx="773.2" ry="214.9" fill="#0B1D2D" opacity="0.24" />
  <ellipse cx="1536.0" cy="1536.0" rx="743.4" ry="651.3" fill="url(#orb1020)" stroke="#FFFFFF" stroke-opacity="0.42" stroke-width="7" />
  <ellipse cx="1431.9" cy="1392.7" rx="505.5" ry="299.6" fill="#FFFFFF" opacity="0.25" />
  <path d="M 199.4 399.4 C 1013.8 -30.7, 2058.2 768.0, 2872.6 215.0 L 2872.6 983.0 C 2089.0 1228.8, 1013.8 307.2, 199.4 1167.4 Z" fill="url(#glass1020)" />
  <rect x="270" y="270" width="2532" height="2532" rx="430" fill="none" stroke="#FFFFFF" stroke-opacity="0.30" stroke-width="5" />
  <rect x="288.4" y="288.4" width="2495.1" height="2495.1" rx="399" fill="none" stroke="#FFD84D" stroke-opacity="0.35" stroke-width="3" />
  <g filter="url(#soft1020)"><rect x="1944" y="2228" width="34" height="2" fill="#FFFFFF" opacity="0.797" /><rect x="1960" y="2212" width="2" height="34" fill="#FFFFFF" opacity="0.797" /><rect x="819" y="628" width="66" height="2" fill="#FFFFFF" opacity="0.310" /><rect x="851" y="596" width="2" height="66" fill="#FFFFFF" opacity="0.310" /><rect x="1068" y="1214" width="56" height="2" fill="#FFFFFF" opacity="0.457" /><rect x="1095" y="1187" width="2" height="56" fill="#FFFFFF" opacity="0.457" /><rect x="1897" y="608" width="64" height="2" fill="#FFFFFF" opacity="0.454" /><rect x="1928" y="577" width="2" height="64" fill="#FFFFFF" opacity="0.454" /><rect x="2798" y="697" width="40" height="2" fill="#FFFFFF" opacity="0.308" /><rect x="2817" y="678" width="2" height="40" fill="#FFFFFF" opacity="0.308" /><rect x="2430" y="497" width="36" height="2" fill="#FFFFFF" opacity="0.356" /><rect x="2447" y="480" width="2" height="36" fill="#FFFFFF" opacity="0.356" /><rect x="2557" y="2240" width="62" height="2" fill="#FFFFFF" opacity="0.670" /><rect x="2587" y="2210" width="2" height="62" fill="#FFFFFF" opacity="0.670" /><rect x="2505" y="2131" width="74" height="2" fill="#FFFFFF" opacity="0.818" /><rect x="2541" y="2095" width="2" height="74" fill="#FFFFFF" opacity="0.818" /><rect x="742" y="2351" width="36" height="2" fill="#FFFFFF" opacity="0.602" /><rect x="759" y="2334" width="2" height="36" fill="#FFFFFF" opacity="0.602" /><rect x="619" y="873" width="48" height="2" fill="#FFFFFF" opacity="0.340" /><rect x="642" y="850" width="2" height="48" fill="#FFFFFF" opacity="0.340" /><rect x="575" y="1972" width="64" height="2" fill="#FFFFFF" opacity="0.501" /><rect x="606" y="1941" width="2" height="64" fill="#FFFFFF" opacity="0.501" /><rect x="1932" y="2742" width="66" height="2" fill="#FFFFFF" opacity="0.619" /><rect x="1964" y="2710" width="2" height="66" fill="#FFFFFF" opacity="0.619" /><rect x="801" y="2272" width="42" height="2" fill="#FFFFFF" opacity="0.331" /><rect x="821" y="2252" width="2" height="42" fill="#FFFFFF" opacity="0.331" /><rect x="1291" y="2652" width="84" height="2" fill="#FFFFFF" opacity="0.536" /><rect x="1332" y="2611" width="2" height="84" fill="#FFFFFF" opacity="0.536" /><rect x="2640" y="1859" width="54" height="2" fill="#FFFFFF" opacity="0.641" /><rect x="2666" y="1833" width="2" height="54" fill="#FFFFFF" opacity="0.641" /><rect x="782" y="1853" width="30" height="2" fill="#FFFFFF" opacity="0.626" /><rect x="796" y="1839" width="2" height="30" fill="#FFFFFF" opacity="0.626" /><rect x="1505" y="444" width="68" height="2" fill="#FFFFFF" opacity="0.309" /><rect x="1538" y="411" width="2" height="68" fill="#FFFFFF" opacity="0.309" /><rect x="1556" y="1599" width="68" height="2" fill="#FFFFFF" opacity="0.428" /><rect x="1589" y="1566" width="2" height="68" fill="#FFFFFF" opacity="0.428" /><rect x="695" y="1406" width="62" height="2" fill="#FFFFFF" opacity="0.382" /><rect x="725" y="1376" width="2" height="62" fill="#FFFFFF" opacity="0.382" /><rect x="639" y="751" width="24" height="2" fill="#FFFFFF" opacity="0.832" /><rect x="650" y="740" width="2" height="24" fill="#FFFFFF" opacity="0.832" /><rect x="1996" y="655" width="66" height="2" fill="#FFFFFF" opacity="0.789" /><rect x="2028" y="623" width="2" height="66" fill="#FFFFFF" opacity="0.789" /><rect x="1754" y="2357" width="62" height="2" fill="#FFFFFF" opacity="0.393" /><rect x="1784" y="2327" width="2" height="62" fill="#FFFFFF" opacity="0.393" /><rect x="927" y="2107" width="32" height="2" fill="#FFFFFF" opacity="0.398" /><rect x="942" y="2092" width="2" height="32" fill="#FFFFFF" opacity="0.398" /><rect x="1128" y="1491" width="76" height="2" fill="#FFFFFF" opacity="0.494" /><rect x="1165" y="1454" width="2" height="76" fill="#FFFFFF" opacity="0.494" /><rect x="1481" y="1830" width="80" height="2" fill="#FFFFFF" opacity="0.400" /><rect x="1520" y="1791" width="2" height="80" fill="#FFFFFF" opacity="0.400" /><rect x="2572" y="2228" width="46" height="2" fill="#FFFFFF" opacity="0.637" /><rect x="2594" y="2206" width="2" height="46" fill="#FFFFFF" opacity="0.637" /></g>
  <g opacity="0.52"><circle cx="1572" cy="1582" r="307" fill="none" stroke="#0C2030" stroke-width="90" /><line x1="1791" y1="1801" x2="2340" y2="2350" stroke="#0C2030" stroke-width="90" stroke-linecap="round" /></g>
  <g filter="url(#soft1020)"><circle cx="1536" cy="1536" r="307" fill="none" stroke="url(#symbol1020)" stroke-width="90" /><line x1="1755" y1="1755" x2="2304" y2="2304" stroke="url(#symbol1020)" stroke-width="90" stroke-linecap="round" /></g>
  <rect x="138" y="138" width="2796" height="2796" rx="629" fill="#FFFFFF" filter="url(#grain1020)" opacity="0.18" />
</svg>
