<svg xmlns="http://www.w3.org/2000/svg" width="3072" height="3072" viewBox="0 0 3072 3072">
  <title>QuartzOS System Icon 041 - network_03</title>
  <defs><linearGradient id="bg1040" x1="0%" y1="0%" x2="100%" y2="100%"><stop offset="0%" stop-color="#FF9F43" /><stop offset="26%" stop-color="#53E3A6" /><stop offset="56%" stop-color="#3B82FF" /><stop offset="78%" stop-color="#3C8FC1" /><stop offset="100%" stop-color="#1E2E3A" /></linearGradient><radialGradient id="sun1040" cx="46%" cy="19%" r="88%"><stop offset="0%" stop-color="#FFFFFF" stop-opacity="0.62" /><stop offset="30%" stop-color="#8A5CFF" stop-opacity="0.35" /><stop offset="100%" stop-color="#8A5CFF" stop-opacity="0" /></radialGradient><linearGradient id="glass1040" x1="0%" y1="0%" x2="0%" y2="100%"><stop offset="0%" stop-color="#FFFFFF" stop-opacity="0.70" /><stop offset="46%" stop-color="#FFFFFF" stop-opacity="0.26" /><stop offset="100%" stop-color="#FFFFFF" stop-opacity="0.00" /></linearGradient><linearGradient id="ribbon1040" x1="0%" y1="0%" x2="100%" y2="0%"><stop offset="0%" stop-color="#FF9F43" stop-opacity="0.18" /><stop offset="34%" stop-color="#53E3A6" stop-opacity="0.72" /><stop offset="66%" stop-color="#3B82FF" stop-opacity="0.72" /><stop offset="100%" stop-color="#8A5CFF" stop-opacity="0.18" /></linearGradient><radialGradient id="orb1040" cx="34%" cy="27%" r="74%"><stop offset="0%" stop-color="#FFFFFF" stop-opacity="0.84" /><stop offset="30%" stop-color="#FF9F43" stop-opacity="0.52" /><stop offset="68%" stop-color="#53E3A6" stop-opacity="0.42" /><stop offset="100%" stop-color="#3B82FF" stop-opacity="0.20" /></radialGradient><linearGradient id="extrude1040" x1="0%" y1="0%" x2="0%" y2="100%"><stop offset="0%" stop-color="#15283C" stop-opacity="0.45" /><stop offset="100%" stop-color="#08131D" stop-opacity="0.06" /></linearGradient><linearGradient id="symbol1040" x1="0%" y1="0%" x2="100%" y2="100%"><stop offset="0%" stop-color="#FFFFFF" /><stop offset="100%" stop-color="#8A5CFF" /></linearGradient><filter id="shadow1040" x="-40%" y="-40%" width="180%" height="180%"><feDropShadow dx="0" dy="49" stdDeviation="86" flood-color="#06111A" flood-opacity="0.54" /></filter><filter id="soft1040" x="-40%" y="-40%" width="180%" height="180%"><feDropShadow dx="0" dy="0" stdDeviation="14" flood-color="#FF9F43" flood-opacity="0.45" /></filter><filter id="grain1040"><feTurbulence type="fractalNoise" baseFrequency="0.820" numOctaves="2" seed="1040" /><feColorMatrix type="saturate" values="0" /><feComponentTransfer><feFuncA type="table" tableValues="0 0.09" /></feComponentTransfer></filter></defs>
  <rect x="138" y="138" width="2796" height="2796" rx="629" fill="url(#bg1040)" filter="url(#shadow1040)" />
  <rect x="138" y="138" width="2796" height="2796" rx="629" fill="url(#sun1040)" />
  <g><circle cx="1979" cy="1822" r="132" fill="#FFFFFF" opacity="0.073" /><circle cx="2141" cy="1894" r="115" fill="#FFFFFF" opacity="0.138" /><circle cx="1470" cy="800" r="88" fill="#FFFFFF" opacity="0.075" /><circle cx="1216" cy="1131" r="75" fill="#FFFFFF" opacity="0.208" /><circle cx="2432" cy="820" r="55" fill="#FFFFFF" opacity="0.111" /><circle cx="588" cy="1723" r="118" fill="#FFFFFF" opacity="0.080" /><circle cx="1609" cy="1071" r="80" fill="#FFFFFF" opacity="0.163" /><circle cx="446" cy="1611" r="60" fill="#FFFFFF" opacity="0.175" /><circle cx="1570" cy="2595" r="154" fill="#FFFFFF" opacity="0.229" /><circle cx="2648" cy="1446" r="41" fill="#FFFFFF" opacity="0.075" /><circle cx="970" cy="604" r="125" fill="#FFFFFF" opacity="0.096" /><circle cx="1055" cy="2667" r="112" fill="#FFFFFF" opacity="0.210" /><circle cx="2477" cy="1498" r="105" fill="#FFFFFF" opacity="0.140" /><circle cx="1202" cy="1534" r="58" fill="#FFFFFF" opacity="0.081" /><circle cx="987" cy="2294" r="156" fill="#FFFFFF" opacity="0.124" /><circle cx="1588" cy="679" r="104" fill="#FFFFFF" opacity="0.232" /><circle cx="1183" cy="1963" r="97" fill="#FFFFFF" opacity="0.123" /><circle cx="1957" cy="2245" r="141" fill="#FFFFFF" opacity="0.234" /><circle cx="1368" cy="1521" r="69" fill="#FFFFFF" opacity="0.146" /><circle cx="1231" cy="1768" r="77" fill="#FFFFFF" opacity="0.227" /><circle cx="1982" cy="2484" r="109" fill="#FFFFFF" opacity="0.094" /><circle cx="1410" cy="1977" r="66" fill="#FFFFFF" opacity="0.094" /><circle cx="1400" cy="1276" r="110" fill="#FFFFFF" opacity="0.218" /><circle cx="1125" cy="987" r="128" fill="#FFFFFF" opacity="0.218" /><circle cx="2403" cy="1154" r="157" fill="#FFFFFF" opacity="0.106" /><circle cx="2170" cy="412" r="157" fill="#FFFFFF" opacity="0.228" /><circle cx="1268" cy="930" r="133" fill="#FFFFFF" opacity="0.159" /><circle cx="1008" cy="2238" r="45" fill="#FFFFFF" opacity="0.229" /></g>
  <g><path d="M 239.4 614.2 L 2733.4 337.7 L 2733.4 791.9 L 239.4 1068.4 Z" fill="#FFFFFF" opacity="0.233" /><path d="M 210.8 881.6 L 2869.6 605.1 L 2869.6 1045.6 L 210.8 1322.1 Z" fill="#FFFFFF" opacity="0.178" /><path d="M 390.3 1145.5 L 2696.0 869.1 L 2696.0 1351.4 L 390.3 1627.9 Z" fill="#FFFFFF" opacity="0.102" /><path d="M 246.0 1358.9 L 2871.4 1082.5 L 2871.4 1523.3 L 246.0 1799.8 Z" fill="#FFFFFF" opacity="0.092" /><path d="M 181.7 1616.5 L 2886.0 1340.0 L 2886.0 1799.5 L 181.7 2076.0 Z" fill="#FFFFFF" opacity="0.187" /><path d="M 335.8 1885.0 L 2679.5 1608.5 L 2679.5 2032.9 L 335.8 2309.4 Z" fill="#FFFFFF" opacity="0.119" /><path d="M 367.9 2173.4 L 2731.1 1897.0 L 2731.1 2326.9 L 367.9 2603.4 Z" fill="#FFFFFF" opacity="0.192" /><path d="M 238.4 2454.8 L 2708.2 2178.4 L 2708.2 2608.8 L 238.4 2885.3 Z" fill="#FFFFFF" opacity="0.084" /></g>
  <g filter="url(#soft1040)"><g transform="rotate(-20.94 1536.0 1536.0)"><path d="M-368.6 566.2 C -225.8 596.7, -25.8 536.0, 107.5 620.5 C 250.4 628.5, 450.4 546.5, 583.7 611.6 C 726.5 609.8, 926.5 515.7, 1059.8 575.2 C 1202.7 572.7, 1402.7 559.2, 1536.0 533.4 C 1678.8 528.8, 1878.8 581.0, 2012.2 511.4 C 2155.0 505.5, 2355.0 600.3, 2488.3 522.7 C 2631.2 505.8, 2831.2 617.2, 2964.5 560.4 C 3107.3 559.7, 3307.3 570.4, 3440.6 601.6" fill="none" stroke="url(#ribbon1040)" stroke-width="58.4" stroke-linecap="round" stroke-opacity="0.120" /></g><g transform="rotate(-20.36 1536.0 1536.0)"><path d="M-368.6 700.7 C -241.7 770.8, -63.9 682.0, 54.6 740.7 C 181.6 726.2, 359.4 675.5, 477.9 694.3 C 604.8 692.7, 782.6 705.7, 901.1 651.7 C 1028.1 649.0, 1205.9 718.4, 1324.4 638.9 C 1451.3 617.6, 1629.1 739.9, 1747.6 663.5 C 1874.6 655.0, 2052.4 730.3, 2170.9 710.7 C 2297.9 709.6, 2475.6 688.9, 2594.1 751.8 C 2721.1 739.8, 2898.9 645.8, 3017.4 761.9 C 3144.4 783.7, 3322.1 631.0, 3440.6 734.9" fill="none" stroke="url(#ribbon1040)" stroke-width="54.4" stroke-linecap="round" stroke-opacity="0.146" /></g><g transform="rotate(-19.78 1536.0 1536.0)"><path d="M-368.6 857.4 C -254.4 839.5, -94.4 862.9, 12.3 897.1 C 126.6 892.8, 286.6 819.8, 393.2 926.0 C 507.5 934.0, 667.5 776.8, 774.1 913.2 C 888.4 903.4, 1048.4 835.7, 1155.1 866.7 C 1269.4 864.7, 1429.3 847.1, 1536.0 814.5 C 1650.3 825.9, 1810.3 896.1, 1916.9 788.4 C 2031.2 767.2, 2191.2 906.4, 2297.9 804.2 C 2412.1 790.4, 2572.1 879.5, 2678.8 852.3 C 2793.1 853.1, 2953.1 861.4, 3059.7 903.5 C 3174.0 905.4, 3334.0 830.5, 3440.6 926.8" fill="none" stroke="url(#ribbon1040)" stroke-width="50.4" stroke-linecap="round" stroke-opacity="0.172" /></g><g transform="rotate(-19.20 1536.0 1536.0)"><path d="M-368.6 1060.7 C -264.8 993.1, -119.3 1086.3, -22.3 1049.9 C 81.5 1052.6, 227.0 1072.7, 324.0 1107.5 C 427.8 1118.7, 573.3 1041.6, 670.3 1136.7 C 774.1 1148.9, 919.6 1030.4, 1016.6 1119.8 C 1120.4 1108.3, 1265.9 997.8, 1362.9 1067.0 C 1466.7 1069.5, 1612.2 1054.7, 1709.1 1010.4 C 1813.0 993.6, 1958.5 1083.3, 2055.4 984.3 C 2159.3 961.9, 2304.8 1128.3, 2401.7 1004.5 C 2505.6 1024.5, 2651.1 1079.1, 2748.0 1058.8 C 2851.9 1059.4, 2997.4 1062.8, 3094.3 1114.2 C 3198.2 1128.1, 3343.7 1018.2, 3440.6 1137.2" fill="none" stroke="url(#ribbon1040)" stroke-width="46.4" stroke-linecap="round" stroke-opacity="0.198" /></g><g transform="rotate(-18.62 1536.0 1536.0)"><path d="M-368.6 1335.1 C -273.4 1381.8, -140.1 1314.2, -51.2 1306.0 C 44.0 1298.9, 177.4 1360.8, 266.2 1258.6 C 361.5 1269.0, 494.8 1376.5, 583.7 1257.6 C 678.9 1255.6, 812.2 1362.5, 901.1 1303.5 C 996.4 1296.6, 1129.7 1363.2, 1218.6 1368.6 C 1313.8 1360.7, 1447.1 1316.2, 1536.0 1413.3 C 1631.2 1442.2, 1764.6 1258.9, 1853.4 1410.6 C 1948.7 1389.1, 2082.0 1311.4, 2170.9 1362.0 C 2266.1 1361.7, 2399.4 1316.8, 2488.3 1297.1 C 2583.6 1298.5, 2716.9 1353.9, 2805.8 1255.2 C 2901.0 1251.2, 3034.3 1420.6, 3123.2 1261.7 C 3218.4 1257.8, 3351.8 1413.8, 3440.6 1312.7" fill="none" stroke="url(#ribbon1040)" stroke-width="42.4" stroke-linecap="round" stroke-opacity="0.224" /></g><g transform="rotate(-18.04 1536.0 1536.0)"><path d="M-368.6 1511.3 C -225.8 1454.2, -25.8 1590.6, 107.5 1507.1 C 250.4 1506.3, 450.4 1514.6, 583.7 1573.3 C 726.5 1570.0, 926.5 1459.7, 1059.8 1601.9 C 1202.7 1568.7, 1402.7 1454.2, 1536.0 1575.5 C 1678.8 1597.6, 1878.8 1475.2, 2012.2 1510.2 C 2155.0 1510.5, 2355.0 1512.6, 2488.3 1445.5 C 2631.2 1452.6, 2831.2 1589.4, 2964.5 1420.7 C 3107.3 1441.5, 3307.3 1544.6, 3440.6 1450.9" fill="none" stroke="url(#ribbon1040)" stroke-width="38.4" stroke-linecap="round" stroke-opacity="0.250" /></g><g transform="rotate(-17.46 1536.0 1536.0)"><path d="M-368.6 1639.0 C -241.7 1710.2, -63.9 1589.4, 54.6 1660.4 C 181.6 1661.2, 359.4 1631.3, 477.9 1585.6 C 604.8 1587.5, 782.6 1664.9, 901.1 1543.1 C 1028.1 1519.5, 1205.9 1740.8, 1324.4 1558.9 C 1451.3 1528.5, 1629.1 1665.6, 1747.6 1623.3 C 1874.6 1622.0, 2052.4 1652.2, 2170.9 1697.2 C 2297.9 1683.1, 2475.6 1577.2, 2594.1 1735.9 C 2721.1 1751.4, 2898.9 1571.4, 3017.4 1715.8 C 3144.4 1702.1, 3322.1 1569.6, 3440.6 1649.2" fill="none" stroke="url(#ribbon1040)" stroke-width="34.4" stroke-linecap="round" stroke-opacity="0.276" /></g><g transform="rotate(-16.88 1536.0 1536.0)"><path d="M-368.6 1913.0 C -254.4 1848.6, -94.4 1959.3, 12.3 1808.3 C 126.6 1803.4, 286.6 2037.9, 393.2 1838.2 C 507.5 1836.5, 667.5 1960.8, 774.1 1913.5 C 888.4 1913.5, 1048.4 1912.9, 1155.1 1988.5 C 1269.4 1994.8, 1429.3 1860.5, 1536.0 2017.7 C 1650.3 2019.6, 1810.3 1788.5, 1916.9 1983.5 C 2031.2 1980.7, 2191.2 1839.0, 2297.9 1906.5 C 2412.1 1907.8, 2572.1 1919.3, 2678.8 1833.5 C 2793.1 1860.7, 2953.1 1963.1, 3059.7 1808.7 C 3174.0 1778.7, 3334.0 1948.7, 3440.6 1847.3" fill="none" stroke="url(#ribbon1040)" stroke-width="30.4" stroke-linecap="round" stroke-opacity="0.302" /></g><g transform="rotate(-16.30 1536.0 1536.0)"><path d="M-368.6 2043.8 C -264.8 1955.6, -119.3 2104.2, -22.3 2016.7 C 81.5 2019.1, 227.0 2060.9, 324.0 2102.8 C 427.8 2079.5, 573.3 2004.1, 670.3 2153.1 C 774.1 2173.4, 919.6 1975.4, 1016.6 2137.1 C 1120.4 2102.3, 1265.9 1998.0, 1362.9 2064.5 C 1466.7 2058.7, 1612.2 2035.5, 1709.1 1979.4 C 1813.0 1958.2, 1958.5 2097.5, 2055.4 1933.4 C 2159.3 1914.7, 2304.8 2106.6, 2401.7 1954.3 C 2505.6 1951.3, 2651.1 2110.2, 2748.0 2029.6 C 2851.9 2031.7, 2997.4 2060.4, 3094.3 2113.5 C 3198.2 2126.0, 3343.7 1962.5, 3440.6 2155.1" fill="none" stroke="url(#ribbon1040)" stroke-width="26.4" stroke-linecap="round" stroke-opacity="0.328" /></g><g transform="rotate(-15.72 1536.0 1536.0)"><path d="M-368.6 2312.0 C -273.4 2211.8, -140.1 2370.7, -51.2 2193.4 C 44.0 2198.9, 177.4 2423.5, 266.2 2234.8 C 361.5 2219.4, 494.8 2372.9, 583.7 2323.1 C 678.9 2319.3, 812.2 2305.9, 901.1 2404.7 C 996.4 2437.8, 1129.7 2269.5, 1218.6 2430.0 C 1313.8 2451.1, 1447.1 2176.5, 1536.0 2383.8 C 1631.2 2398.1, 1764.6 2242.9, 1853.4 2294.1 C 1948.7 2295.9, 2082.0 2324.3, 2170.9 2215.2 C 2266.1 2225.6, 2399.4 2348.6, 2488.3 2195.1 C 2583.6 2167.5, 2716.9 2442.7, 2805.8 2245.9 C 2901.0 2243.4, 3034.3 2343.9, 3123.2 2336.8 C 3218.4 2331.1, 3351.8 2294.3, 3440.6 2412.7" fill="none" stroke="url(#ribbon1040)" stroke-width="22.4" stroke-linecap="round" stroke-opacity="0.354" /></g><g transform="rotate(-15.14 1536.0 1536.0)"><path d="M-368.6 2445.4 C -225.8 2370.3, -25.8 2541.6, 107.5 2319.7 C 250.4 2275.2, 450.4 2568.1, 583.7 2351.6 C 726.5 2379.7, 926.5 2513.6, 1059.8 2440.3 C 1202.7 2441.0, 1402.7 2449.6, 1536.0 2532.1 C 1678.8 2558.0, 1878.8 2366.1, 2012.2 2571.3 C 2155.0 2615.8, 2355.0 2370.7, 2488.3 2534.1 C 2631.2 2525.5, 2831.2 2396.1, 2964.5 2443.0 C 3107.3 2442.4, 3307.3 2447.3, 3440.6 2353.4" fill="none" stroke="url(#ribbon1040)" stroke-width="18.4" stroke-linecap="round" stroke-opacity="0.380" /></g><g transform="rotate(-14.56 1536.0 1536.0)"><path d="M-368.6 2634.5 C -241.7 2745.3, -63.9 2592.2, 54.6 2727.5 C 181.6 2720.5, 359.4 2602.2, 477.9 2631.1 C 604.8 2632.2, 782.6 2638.6, 901.1 2536.8 C 1028.1 2499.1, 1205.9 2733.7, 1324.4 2501.7 C 1451.3 2518.8, 1629.1 2697.0, 1747.6 2547.3 C 1874.6 2579.2, 2052.4 2698.3, 2170.9 2645.7 C 2297.9 2647.9, 2475.6 2625.8, 2594.1 2737.4 C 2721.1 2750.4, 2898.9 2511.7, 3017.4 2766.7 C 3144.4 2735.0, 3322.1 2523.8, 3440.6 2715.8" fill="none" stroke="url(#ribbon1040)" stroke-width="14.4" stroke-linecap="round" stroke-opacity="0.406" /></g></g>
  <g><ellipse cx="1536.0" cy="1551.9" rx="728.6" ry="605.7" fill="url(#extrude1040)" opacity="0.220" /><ellipse cx="1536.0" cy="1567.7" rx="736.0" ry="610.9" fill="url(#extrude1040)" opacity="0.205" /><ellipse cx="1536.0" cy="1583.6" rx="743.4" ry="616.1" fill="url(#extrude1040)" opacity="0.190" /><ellipse cx="1536.0" cy="1599.5" rx="750.9" ry="621.3" fill="url(#extrude1040)" opacity="0.175" /><ellipse cx="1536.0" cy="1615.4" rx="758.3" ry="626.5" fill="url(#extrude1040)" opacity="0.160" /><ellipse cx="1536.0" cy="1631.2" rx="765.7" ry="631.7" fill="url(#extrude1040)" opacity="0.145" /><ellipse cx="1536.0" cy="1647.1" rx="773.2" ry="636.9" fill="url(#extrude1040)" opacity="0.130" /><ellipse cx="1536.0" cy="1663.0" rx="780.6" ry="642.1" fill="url(#extrude1040)" opacity="0.115" /><ellipse cx="1536.0" cy="1678.8" rx="788.0" ry="647.4" fill="url(#extrude1040)" opacity="0.100" /><ellipse cx="1536.0" cy="1694.7" rx="795.5" ry="652.6" fill="url(#extrude1040)" opacity="0.085" /><ellipse cx="1536.0" cy="1710.6" rx="802.9" ry="657.8" fill="url(#extrude1040)" opacity="0.070" /><ellipse cx="1536.0" cy="1726.5" rx="810.3" ry="663.0" fill="url(#extrude1040)" opacity="0.055" /></g>
  <ellipse cx="1536.0" cy="1726.5" rx="773.2" ry="214.9" fill="#0B1D2D" opacity="0.24" />
  <ellipse cx="1536.0" cy="1536.0" rx="743.4" ry="651.3" fill="url(#orb1040)" stroke="#FFFFFF" stroke-opacity="0.42" stroke-width="7" />
  <ellipse cx="1431.9" cy="1392.7" rx="505.5" ry="299.6" fill="#FFFFFF" opacity="0.25" />
  <path d="M 199.4 399.4 C 1013.8 -30.7, 2058.2 768.0, 2872.6 215.0 L 2872.6 983.0 C 2089.0 1228.8, 1013.8 307.2, 199.4 1167.4 Z" fill="url(#glass1040)" />
  <rect x="270" y="270" width="2532" height="2532" rx="430" fill="none" stroke="#FFFFFF" stroke-opacity="0.30" stroke-width="5" />
  <rect x="288.4" y="288.4" width="2495.1" height="2495.1" rx="399" fill="none" stroke="#FF9F43" stroke-opacity="0.35" stroke-width="3" />
  <g filter="url(#soft1040)"><rect x="1763" y="1527" width="72" height="2" fill="#FFFFFF" opacity="0.752" /><rect x="1798" y="1492" width="2" height="72" fill="#FFFFFF" opacity="0.752" /><rect x="2493" y="1160" width="38" height="2" fill="#FFFFFF" opacity="0.656" /><rect x="2511" y="1142" width="2" height="38" fill="#FFFFFF" opacity="0.656" /><rect x="2034" y="1894" width="40" height="2" fill="#FFFFFF" opacity="0.647" /><rect x="2053" y="1875" width="2" height="40" fill="#FFFFFF" opacity="0.647" /><rect x="752" y="475" width="74" height="2" fill="#FFFFFF" opacity="0.658" /><rect x="788" y="439" width="2" height="74" fill="#FFFFFF" opacity="0.658" /><rect x="2794" y="2370" width="58" height="2" fill="#FFFFFF" opacity="0.629" /><rect x="2822" y="2342" width="2" height="58" fill="#FFFFFF" opacity="0.629" /><rect x="1721" y="1310" width="54" height="2" fill="#FFFFFF" opacity="0.406" /><rect x="1747" y="1284" width="2" height="54" fill="#FFFFFF" opacity="0.406" /><rect x="1958" y="2382" width="72" height="2" fill="#FFFFFF" opacity="0.750" /><rect x="1993" y="2347" width="2" height="72" fill="#FFFFFF" opacity="0.750" /><rect x="1660" y="1810" width="44" height="2" fill="#FFFFFF" opacity="0.586" /><rect x="1681" y="1789" width="2" height="44" fill="#FFFFFF" opacity="0.586" /><rect x="1999" y="925" width="68" height="2" fill="#FFFFFF" opacity="0.594" /><rect x="2032" y="892" width="2" height="68" fill="#FFFFFF" opacity="0.594" /><rect x="687" y="1460" width="68" height="2" fill="#FFFFFF" opacity="0.314" /><rect x="720" y="1427" width="2" height="68" fill="#FFFFFF" opacity="0.314" /><rect x="2681" y="470" width="82" height="2" fill="#FFFFFF" opacity="0.789" /><rect x="2721" y="430" width="2" height="82" fill="#FFFFFF" opacity="0.789" /><rect x="2249" y="1296" width="46" height="2" fill="#FFFFFF" opacity="0.728" /><rect x="2271" y="1274" width="2" height="46" fill="#FFFFFF" opacity="0.728" /><rect x="971" y="2199" width="38" height="2" fill="#FFFFFF" opacity="0.708" /><rect x="989" y="2181" width="2" height="38" fill="#FFFFFF" opacity="0.708" /><rect x="1872" y="478" width="58" height="2" fill="#FFFFFF" opacity="0.362" /><rect x="1900" y="450" width="2" height="58" fill="#FFFFFF" opacity="0.362" /><rect x="324" y="2672" width="40" height="2" fill="#FFFFFF" opacity="0.598" /><rect x="343" y="2653" width="2" height="40" fill="#FFFFFF" opacity="0.598" /><rect x="920" y="1847" width="28" height="2" fill="#FFFFFF" opacity="0.464" /><rect x="933" y="1834" width="2" height="28" fill="#FFFFFF" opacity="0.464" /><rect x="2155" y="1971" width="76" height="2" fill="#FFFFFF" opacity="0.449" /><rect x="2192" y="1934" width="2" height="76" fill="#FFFFFF" opacity="0.449" /><rect x="1923" y="1265" width="80" height="2" fill="#FFFFFF" opacity="0.437" /><rect x="1962" y="1226" width="2" height="80" fill="#FFFFFF" opacity="0.437" /><rect x="1726" y="683" width="36" height="2" fill="#FFFFFF" opacity="0.544" /><rect x="1743" y="666" width="2" height="36" fill="#FFFFFF" opacity="0.544" /><rect x="1312" y="1043" width="68" height="2" fill="#FFFFFF" opacity="0.473" /><rect x="1345" y="1010" width="2" height="68" fill="#FFFFFF" opacity="0.473" /><rect x="1018" y="805" width="62" height="2" fill="#FFFFFF" opacity="0.395" /><rect x="1048" y="775" width="2" height="62" fill="#FFFFFF" opacity="0.395" /><rect x="1371" y="2105" width="48" height="2" fill="#FFFFFF" opacity="0.367" /><rect x="1394" y="2082" width="2" height="48" fill="#FFFFFF" opacity="0.367" /><rect x="1409" y="512" width="60" height="2" fill="#FFFFFF" opacity="0.462" /><rect x="1438" y="483" width="2" height="60" fill="#FFFFFF" opacity="0.462" /><rect x="1905" y="2628" width="76" height="2" fill="#FFFFFF" opacity="0.565" /><rect x="1942" y="2591" width="2" height="76" fill="#FFFFFF" opacity="0.565" /><rect x="501" y="427" width="24" height="2" fill="#FFFFFF" opacity="0.609" /><rect x="512" y="416" width="2" height="24" fill="#FFFFFF" opacity="0.609" /><rect x="1476" y="593" width="56" height="2" fill="#FFFFFF" opacity="0.502" /><rect x="1503" y="566" width="2" height="56" fill="#FFFFFF" opacity="0.502" /></g>
  <g opacity="0.52"><path d="M1023 1326 L1572 1070 L2121 1326 L2121 2043 L1023 2043 Z" fill="none" stroke="#0C2030" stroke-width="90" stroke-linejoin="round" /><line x1="1572" y1="1070" x2="1572" y2="2043" stroke="#0C2030" stroke-width="88" /></g>
  <g filter="url(#soft1040)"><path d="M987 1280 L1536 1024 L2085 1280 L2085 1997 L987 1997 Z" fill="none" stroke="url(#symbol1040)" stroke-width="90" stroke-linejoin="round" /><line x1="1536" y1="1024" x2="1536" y2="1997" stroke="url(#symbol1040)" stroke-width="88" /></g>
  <rect x="138" y="138" width="2796" height="2796" rx="629" fill="#FFFFFF" filter="url(#grain1040)" opacity="0.18" />
</svg>
