<svg xmlns="http://www.w3.org/2000/svg" width="3072" height="3072" viewBox="0 0 3072 3072">
  <title>QuartzOS System Icon 101 - network_06</title>
  <defs><linearGradient id="bg1100" x1="0%" y1="0%" x2="100%" y2="100%"><stop offset="0%" stop-color="#3B82FF" /><stop offset="26%" stop-color="#FF6AB3" /><stop offset="56%" stop-color="#FFD84D" /><stop offset="78%" stop-color="#3C8FC1" /><stop offset="100%" stop-color="#1E2E3A" /></linearGradient><radialGradient id="sun1100" cx="47%" cy="15%" r="88%"><stop offset="0%" stop-color="#FFFFFF" stop-opacity="0.62" /><stop offset="30%" stop-color="#53E3A6" stop-opacity="0.35" /><stop offset="100%" stop-color="#53E3A6" stop-opacity="0" /></radialGradient><linearGradient id="glass1100" x1="0%" y1="0%" x2="0%" y2="100%"><stop offset="0%" stop-color="#FFFFFF" stop-opacity="0.70" /><stop offset="46%" stop-color="#FFFFFF" stop-opacity="0.26" /><stop offset="100%" stop-color="#FFFFFF" stop-opacity="0.00" /></linearGradient><linearGradient id="ribbon1100" x1="0%" y1="0%" x2="100%" y2="0%"><stop offset="0%" stop-color="#3B82FF" stop-opacity="0.18" /><stop offset="34%" stop-color="#FF6AB3" stop-opacity="0.72" /><stop offset="66%" stop-color="#FFD84D" stop-opacity="0.72" /><stop offset="100%" stop-color="#53E3A6" stop-opacity="0.18" /></linearGradient><radialGradient id="orb1100" cx="34%" cy="27%" r="74%"><stop offset="0%" stop-color="#FFFFFF" stop-opacity="0.84" /><stop offset="30%" stop-color="#3B82FF" stop-opacity="0.52" /><stop offset="68%" stop-color="#FF6AB3" stop-opacity="0.42" /><stop offset="100%" stop-color="#FFD84D" stop-opacity="0.20" /></radialGradient><linearGradient id="extrude1100" x1="0%" y1="0%" x2="0%" y2="100%"><stop offset="0%" stop-color="#15283C" stop-opacity="0.45" /><stop offset="100%" stop-color="#08131D" stop-opacity="0.06" /></linearGradient><linearGradient id="symbol1100" x1="0%" y1="0%" x2="100%" y2="100%"><stop offset="0%" stop-color="#FFFFFF" /><stop offset="100%" stop-color="#53E3A6" /></linearGradient><filter id="shadow1100" x="-40%" y="-40%" width="180%" height="180%"><feDropShadow dx="0" dy="49" stdDeviation="86" flood-color="#06111A" flood-opacity="0.54" /></filter><filter id="soft1100" x="-40%" y="-40%" width="180%" height="180%"><feDropShadow dx="0" dy="0" stdDeviation="14" flood-color="#3B82FF" flood-opacity="0.45" /></filter><filter id="grain1100"><feTurbulence type="fractalNoise" baseFrequency="0.837" numOctaves="2" seed="1100" /><feColorMatrix type="saturate" values="0" /><feComponentTransfer><feFuncA type="table" tableValues="0 0.09" /></feComponentTransfer></filter></defs>
  <rect x="138" y="138" width="2796" height="2796" rx="629" fill="url(#bg1100)" filter="url(#shadow1100)" />
  <rect x="138" y="138" width="2796" height="2796" rx="629" fill="url(#sun1100)" />
  <g><circle cx="1543" cy="987" r="111" fill="#FFFFFF" opacity="0.210" /><circle cx="1272" cy="1085" r="37" fill="#FFFFFF" opacity="0.225" /><circle cx="1577" cy="1378" r="130" fill="#FFFFFF" opacity="0.138" /><circle cx="2204" cy="2664" r="94" fill="#FFFFFF" opacity="0.153" /><circle cx="1021" cy="2072" r="150" fill="#FFFFFF" opacity="0.100" /><circle cx="1638" cy="1537" r="66" fill="#FFFFFF" opacity="0.179" /><circle cx="2304" cy="2386" r="69" fill="#FFFFFF" opacity="0.101" /><circle cx="2289" cy="2118" r="70" fill="#FFFFFF" opacity="0.211" /><circle cx="1871" cy="438" r="90" fill="#FFFFFF" opacity="0.100" /><circle cx="629" cy="656" r="116" fill="#FFFFFF" opacity="0.170" /><circle cx="1668" cy="362" r="117" fill="#FFFFFF" opacity="0.127" /><circle cx="1961" cy="1800" r="101" fill="#FFFFFF" opacity="0.141" /><circle cx="951" cy="1099" r="155" fill="#FFFFFF" opacity="0.184" /><circle cx="1779" cy="2380" r="46" fill="#FFFFFF" opacity="0.120" /><circle cx="1061" cy="311" r="89" fill="#FFFFFF" opacity="0.118" /><circle cx="1135" cy="2284" r="107" fill="#FFFFFF" opacity="0.093" /><circle cx="2183" cy="1446" r="95" fill="#FFFFFF" opacity="0.173" /><circle cx="2296" cy="1711" r="87" fill="#FFFFFF" opacity="0.081" /><circle cx="1421" cy="2380" r="69" fill="#FFFFFF" opacity="0.074" /><circle cx="1060" cy="1573" r="78" fill="#FFFFFF" opacity="0.148" /><circle cx="1516" cy="1578" r="51" fill="#FFFFFF" opacity="0.237" /><circle cx="1379" cy="2238" r="111" fill="#FFFFFF" opacity="0.200" /><circle cx="2211" cy="2612" r="43" fill="#FFFFFF" opacity="0.240" /><circle cx="963" cy="639" r="77" fill="#FFFFFF" opacity="0.105" /><circle cx="2255" cy="2652" r="73" fill="#FFFFFF" opacity="0.145" /><circle cx="1530" cy="2503" r="130" fill="#FFFFFF" opacity="0.144" /><circle cx="399" cy="878" r="155" fill="#FFFFFF" opacity="0.168" /><circle cx="1697" cy="1778" r="128" fill="#FFFFFF" opacity="0.166" /></g>
  <g><path d="M 161.5 647.0 L 2854.4 370.6 L 2854.4 818.8 L 161.5 1095.3 Z" fill="#FFFFFF" opacity="0.091" /><path d="M 187.7 877.3 L 2800.7 600.8 L 2800.7 1043.9 L 187.7 1320.4 Z" fill="#FFFFFF" opacity="0.168" /><path d="M 243.7 1138.1 L 2891.3 861.6 L 2891.3 1341.4 L 243.7 1617.9 Z" fill="#FFFFFF" opacity="0.160" /><path d="M 154.6 1416.6 L 2697.5 1140.2 L 2697.5 1594.8 L 154.6 1871.3 Z" fill="#FFFFFF" opacity="0.142" /><path d="M 327.9 1680.5 L 2776.1 1404.1 L 2776.1 1832.8 L 327.9 2109.3 Z" fill="#FFFFFF" opacity="0.232" /><path d="M 303.5 1964.7 L 2844.9 1688.2 L 2844.9 2152.5 L 303.5 2429.0 Z" fill="#FFFFFF" opacity="0.180" /><path d="M 308.4 2165.4 L 2820.7 1889.0 L 2820.7 2363.7 L 308.4 2640.2 Z" fill="#FFFFFF" opacity="0.091" /><path d="M 193.6 2429.4 L 2806.6 2153.0 L 2806.6 2598.2 L 193.6 2874.7 Z" fill="#FFFFFF" opacity="0.151" /></g>
  <g filter="url(#soft1100)"><g transform="rotate(-8.46 1536.0 1536.0)"><path d="M-368.6 479.6 C -225.8 431.9, -25.8 523.0, 107.5 434.1 C 250.4 428.8, 450.4 526.7, 583.7 470.4 C 726.5 472.7, 926.5 483.5, 1059.8 512.3 C 1202.7 508.4, 1402.7 453.4, 1536.0 534.4 C 1678.8 521.1, 1878.8 424.4, 2012.2 523.3 C 2155.0 539.7, 2355.0 454.7, 2488.3 485.7 C 2631.2 483.6, 2831.2 473.2, 2964.5 444.4 C 3107.3 443.8, 3307.3 512.1, 3440.6 424.5" fill="none" stroke="url(#ribbon1100)" stroke-width="58.4" stroke-linecap="round" stroke-opacity="0.120" /></g><g transform="rotate(-7.88 1536.0 1536.0)"><path d="M-368.6 746.2 C -241.7 730.7, -63.9 761.9, 54.6 689.0 C 181.6 686.7, 359.4 778.2, 477.9 688.5 C 604.8 694.3, 782.6 791.0, 901.1 723.0 C 1028.1 721.0, 1205.9 755.5, 1324.4 771.6 C 1451.3 774.5, 1629.1 738.3, 1747.6 804.7 C 1874.6 783.3, 2052.4 678.0, 2170.9 802.4 C 2297.9 812.5, 2475.6 725.7, 2594.1 766.0 C 2721.1 764.7, 2898.9 724.7, 3017.4 717.5 C 3144.4 718.1, 3322.1 774.5, 3440.6 686.5" fill="none" stroke="url(#ribbon1100)" stroke-width="54.4" stroke-linecap="round" stroke-opacity="0.146" /></g><g transform="rotate(-7.30 1536.0 1536.0)"><path d="M-368.6 883.7 C -254.4 945.0, -94.4 854.0, 12.3 949.0 C 126.6 972.2, 286.6 832.1, 393.2 912.2 C 507.5 920.7, 667.5 856.5, 774.1 858.1 C 888.4 855.3, 1048.4 896.1, 1155.1 819.6 C 1269.4 801.3, 1429.3 905.4, 1536.0 819.9 C 1650.3 796.1, 1810.3 952.0, 1916.9 858.9 C 2031.2 858.5, 2191.2 896.9, 2297.9 913.0 C 2412.1 903.3, 2572.1 874.6, 2678.8 949.3 C 2793.1 975.2, 2953.1 836.7, 3059.7 945.8 C 3174.0 921.3, 3334.0 820.1, 3440.6 904.6" fill="none" stroke="url(#ribbon1100)" stroke-width="50.4" stroke-linecap="round" stroke-opacity="0.172" /></g><g transform="rotate(-6.72 1536.0 1536.0)"><path d="M-368.6 1049.1 C -264.8 1102.3, -119.3 990.4, -22.3 1086.3 C 81.5 1095.4, 227.0 1021.2, 324.0 1027.0 C 427.8 1020.9, 573.3 1065.7, 670.3 981.2 C 774.1 962.8, 919.6 1106.5, 1016.6 976.6 C 1120.4 973.7, 1265.9 1113.0, 1362.9 1016.0 C 1466.7 1024.1, 1612.2 1088.6, 1709.1 1075.5 C 1813.0 1083.1, 1958.5 1028.5, 2055.4 1119.0 C 2159.3 1092.5, 2304.8 1016.7, 2401.7 1120.2 C 2505.6 1131.7, 2651.1 1002.9, 2748.0 1078.2 C 2851.9 1079.6, 2997.4 1036.9, 3094.3 1018.7 C 3198.2 1026.4, 3343.7 1085.3, 3440.6 977.6" fill="none" stroke="url(#ribbon1100)" stroke-width="46.4" stroke-linecap="round" stroke-opacity="0.198" /></g><g transform="rotate(-6.14 1536.0 1536.0)"><path d="M-368.6 1240.0 C -273.4 1204.3, -140.1 1265.0, -51.2 1156.5 C 44.0 1149.3, 177.4 1283.3, 266.2 1180.6 C 361.5 1173.5, 494.8 1304.0, 583.7 1240.8 C 678.9 1240.6, 812.2 1239.5, 901.1 1300.5 C 996.4 1280.5, 1129.7 1215.6, 1218.6 1323.5 C 1313.8 1324.3, 1447.1 1180.6, 1536.0 1296.0 C 1631.2 1299.8, 1764.6 1210.4, 1853.4 1234.5 C 1948.7 1236.2, 2082.0 1243.5, 2170.9 1176.3 C 2266.1 1178.5, 2399.4 1281.2, 2488.3 1156.9 C 2583.6 1168.3, 2716.9 1307.8, 2805.8 1187.8 C 2901.0 1192.2, 3034.3 1299.8, 3123.2 1250.5 C 3218.4 1249.2, 3351.8 1232.7, 3440.6 1306.8" fill="none" stroke="url(#ribbon1100)" stroke-width="42.4" stroke-linecap="round" stroke-opacity="0.224" /></g><g transform="rotate(-5.56 1536.0 1536.0)"><path d="M-368.6 1496.0 C -225.8 1398.2, -25.8 1585.1, 107.5 1409.4 C 250.4 1378.1, 450.4 1567.2, 583.7 1455.1 C 726.5 1447.4, 926.5 1515.3, 1059.8 1525.5 C 1202.7 1516.3, 1402.7 1473.3, 1536.0 1578.0 C 1678.8 1566.8, 1878.8 1452.0, 2012.2 1580.7 C 2155.0 1602.9, 2355.0 1430.4, 2488.3 1532.1 C 2631.2 1520.5, 2831.2 1467.3, 2964.5 1461.5 C 3107.3 1458.1, 3307.3 1510.0, 3440.6 1411.8" fill="none" stroke="url(#ribbon1100)" stroke-width="38.4" stroke-linecap="round" stroke-opacity="0.250" /></g><g transform="rotate(-4.98 1536.0 1536.0)"><path d="M-368.6 1687.6 C -241.7 1636.6, -63.9 1711.9, 54.6 1699.8 C 181.6 1700.1, 359.4 1674.9, 477.9 1765.6 C 604.8 1763.4, 782.6 1618.9, 901.1 1784.2 C 1028.1 1805.6, 1205.9 1606.7, 1324.4 1744.1 C 1451.3 1729.9, 1629.1 1642.4, 1747.6 1669.8 C 1874.6 1676.1, 2052.4 1701.9, 2170.9 1606.3 C 2297.9 1578.7, 2475.6 1726.9, 2594.1 1592.1 C 2721.1 1610.0, 2898.9 1788.5, 3017.4 1635.8 C 3144.4 1634.5, 3322.1 1723.4, 3440.6 1711.0" fill="none" stroke="url(#ribbon1100)" stroke-width="34.4" stroke-linecap="round" stroke-opacity="0.276" /></g><g transform="rotate(-4.40 1536.0 1536.0)"><path d="M-368.6 1875.5 C -254.4 1957.6, -94.4 1841.6, 12.3 1854.4 C 126.6 1857.0, 286.6 1899.4, 393.2 1787.2 C 507.5 1820.0, 667.5 1955.9, 774.1 1773.5 C 888.4 1757.6, 1048.4 1916.1, 1155.1 1821.7 C 1269.4 1801.0, 1429.3 1935.8, 1536.0 1902.5 C 1650.3 1894.9, 1810.3 1860.5, 1916.9 1966.9 C 2031.2 1954.3, 2191.2 1834.7, 2297.9 1975.9 C 2412.1 1947.5, 2572.1 1795.5, 2678.8 1923.9 C 2793.1 1942.1, 2953.1 1858.1, 3059.7 1842.6 C 3174.0 1842.0, 3334.0 1907.0, 3440.6 1781.2" fill="none" stroke="url(#ribbon1100)" stroke-width="30.4" stroke-linecap="round" stroke-opacity="0.302" /></g><g transform="rotate(-3.82 1536.0 1536.0)"><path d="M-368.6 2018.9 C -264.8 1906.8, -119.3 2117.2, -22.3 1997.7 C 81.5 2005.6, 227.0 2025.9, 324.0 2082.8 C 427.8 2073.5, 573.3 1947.3, 670.3 2129.2 C 774.1 2163.0, 919.6 1939.3, 1016.6 2108.6 C 1120.4 2073.5, 1265.9 1956.2, 1362.9 2033.6 C 1466.7 2031.2, 1612.2 2013.3, 1709.1 1949.6 C 1813.0 1925.9, 1958.5 2081.4, 2055.4 1907.6 C 2159.3 1865.6, 2304.8 2136.6, 2401.7 1933.1 C 2505.6 1930.3, 2651.1 2079.9, 2748.0 2010.6 C 2851.9 2008.3, 2997.4 2026.8, 3094.3 2093.1 C 3198.2 2075.4, 3343.7 1955.1, 3440.6 2130.6" fill="none" stroke="url(#ribbon1100)" stroke-width="26.4" stroke-linecap="round" stroke-opacity="0.328" /></g><g transform="rotate(-3.24 1536.0 1536.0)"><path d="M-368.6 2295.1 C -273.4 2169.0, -140.1 2402.9, -51.2 2179.5 C 44.0 2195.9, 177.4 2399.7, 266.2 2234.7 C 361.5 2228.8, 494.8 2348.9, 583.7 2326.5 C 678.9 2317.2, 812.2 2260.3, 901.1 2399.2 C 996.4 2382.3, 1129.7 2184.9, 1218.6 2408.7 C 1313.8 2410.7, 1447.1 2249.4, 1536.0 2349.3 C 1631.2 2363.4, 1764.6 2249.0, 1853.4 2256.9 C 1948.7 2251.9, 2082.0 2332.1, 2170.9 2187.7 C 2266.1 2158.1, 2399.4 2352.0, 2488.3 2183.6 C 2583.6 2172.9, 2716.9 2413.0, 2805.8 2247.1 C 2901.0 2250.1, 3034.3 2349.3, 3123.2 2339.7 C 3218.4 2341.1, 3351.8 2274.4, 3440.6 2405.2" fill="none" stroke="url(#ribbon1100)" stroke-width="22.4" stroke-linecap="round" stroke-opacity="0.354" /></g><g transform="rotate(-2.66 1536.0 1536.0)"><path d="M-368.6 2450.9 C -225.8 2486.5, -25.8 2411.2, 107.5 2564.9 C 250.4 2530.7, 450.4 2374.5, 583.7 2568.7 C 726.5 2552.7, 926.5 2310.5, 1059.8 2501.0 C 1202.7 2491.0, 1402.7 2398.4, 1536.0 2402.9 C 1678.8 2390.0, 1878.8 2503.5, 2012.2 2333.9 C 2155.0 2361.2, 2355.0 2493.4, 2488.3 2335.9 C 2631.2 2327.8, 2831.2 2530.9, 2964.5 2407.6 C 3107.3 2392.6, 3307.3 2480.3, 3440.6 2505.6" fill="none" stroke="url(#ribbon1100)" stroke-width="18.4" stroke-linecap="round" stroke-opacity="0.380" /></g><g transform="rotate(-2.08 1536.0 1536.0)"><path d="M-368.6 2651.7 C -241.7 2758.9, -63.9 2496.8, 54.6 2740.5 C 181.6 2722.7, 359.4 2586.8, 477.9 2642.6 C 604.8 2643.6, 782.6 2659.0, 901.1 2550.1 C 1028.1 2551.6, 1205.9 2767.5, 1324.4 2519.3 C 1451.3 2545.9, 1629.1 2708.3, 1747.6 2568.7 C 1874.6 2545.7, 2052.4 2713.8, 2170.9 2668.5 C 2297.9 2669.1, 2475.6 2637.3, 2594.1 2758.0 C 2721.1 2718.9, 2898.9 2531.0, 3017.4 2783.1 C 3144.4 2827.5, 3322.1 2532.5, 3440.6 2728.4" fill="none" stroke="url(#ribbon1100)" stroke-width="14.4" stroke-linecap="round" stroke-opacity="0.406" /></g></g>
  <g><ellipse cx="1536.0" cy="1551.9" rx="728.6" ry="605.7" fill="url(#extrude1100)" opacity="0.220" /><ellipse cx="1536.0" cy="1567.7" rx="736.0" ry="610.9" fill="url(#extrude1100)" opacity="0.205" /><ellipse cx="1536.0" cy="1583.6" rx="743.4" ry="616.1" fill="url(#extrude1100)" opacity="0.190" /><ellipse cx="1536.0" cy="1599.5" rx="750.9" ry="621.3" fill="url(#extrude1100)" opacity="0.175" /><ellipse cx="1536.0" cy="1615.4" rx="758.3" ry="626.5" fill="url(#extrude1100)" opacity="0.160" /><ellipse cx="1536.0" cy="1631.2" rx="765.7" ry="631.7" fill="url(#extrude1100)" opacity="0.145" /><ellipse cx="1536.0" cy="1647.1" rx="773.2" ry="636.9" fill="url(#extrude1100)" opacity="0.130" /><ellipse cx="1536.0" cy="1663.0" rx="780.6" ry="642.1" fill="url(#extrude1100)" opacity="0.115" /><ellipse cx="1536.0" cy="1678.8" rx="788.0" ry="647.4" fill="url(#extrude1100)" opacity="0.100" /><ellipse cx="1536.0" cy="1694.7" rx="795.5" ry="652.6" fill="url(#extrude1100)" opacity="0.085" /><ellipse cx="1536.0" cy="1710.6" rx="802.9" ry="657.8" fill="url(#extrude1100)" opacity="0.070" /><ellipse cx="1536.0" cy="1726.5" rx="810.3" ry="663.0" fill="url(#extrude1100)" opacity="0.055" /></g>
  <ellipse cx="1536.0" cy="1726.5" rx="773.2" ry="214.9" fill="#0B1D2D" opacity="0.24" />
  <ellipse cx="1536.0" cy="1536.0" rx="743.4" ry="651.3" fill="url(#orb1100)" stroke="#FFFFFF" stroke-opacity="0.42" stroke-width="7" />
  <ellipse cx="1431.9" cy="1392.7" rx="505.5" ry="299.6" fill="#FFFFFF" opacity="0.25" />
  <path d="M 199.4 399.4 C 1013.8 -30.7, 2058.2 768.0, 2872.6 215.0 L 2872.6 983.0 C 2089.0 1228.8, 1013.8 307.2, 199.4 1167.4 Z" fill="url(#glass1100)" />
  <rect x="270" y="270" width="2532" height="2532" rx="430" fill="none" stroke="#FFFFFF" stroke-opacity="0.30" stroke-width="5" />
  <rect x="288.4" y="288.4" width="2495.1" height="2495.1" rx="399" fill="none" stroke="#3B82FF" stroke-opacity="0.35" stroke-width="3" />
  <g filter="url(#soft1100)"><rect x="1603" y="1953" width="84" height="2" fill="#FFFFFF" opacity="0.477" /><rect x="1644" y="1912" width="2" height="84" fill="#FFFFFF" opacity="0.477" /><rect x="2201" y="1543" width="54" height="2" fill="#FFFFFF" opacity="0.676" /><rect x="2227" y="1517" width="2" height="54" fill="#FFFFFF" opacity="0.676" /><rect x="2585" y="2406" width="36" height="2" fill="#FFFFFF" opacity="0.676" /><rect x="2602" y="2389" width="2" height="36" fill="#FFFFFF" opacity="0.676" /><rect x="1632" y="718" width="64" height="2" fill="#FFFFFF" opacity="0.570" /><rect x="1663" y="687" width="2" height="64" fill="#FFFFFF" opacity="0.570" /><rect x="2045" y="265" width="70" height="2" fill="#FFFFFF" opacity="0.774" /><rect x="2079" y="231" width="2" height="70" fill="#FFFFFF" opacity="0.774" /><rect x="1206" y="546" width="80" height="2" fill="#FFFFFF" opacity="0.740" /><rect x="1245" y="507" width="2" height="80" fill="#FFFFFF" opacity="0.740" /><rect x="784" y="850" width="42" height="2" fill="#FFFFFF" opacity="0.375" /><rect x="804" y="830" width="2" height="42" fill="#FFFFFF" opacity="0.375" /><rect x="2808" y="806" width="34" height="2" fill="#FFFFFF" opacity="0.822" /><rect x="2824" y="790" width="2" height="34" fill="#FFFFFF" opacity="0.822" /><rect x="1611" y="1230" width="46" height="2" fill="#FFFFFF" opacity="0.822" /><rect x="1633" y="1208" width="2" height="46" fill="#FFFFFF" opacity="0.822" /><rect x="1075" y="2162" width="72" height="2" fill="#FFFFFF" opacity="0.424" /><rect x="1110" y="2127" width="2" height="72" fill="#FFFFFF" opacity="0.424" /><rect x="2210" y="652" width="24" height="2" fill="#FFFFFF" opacity="0.847" /><rect x="2221" y="641" width="2" height="24" fill="#FFFFFF" opacity="0.847" /><rect x="1884" y="1553" width="64" height="2" fill="#FFFFFF" opacity="0.433" /><rect x="1915" y="1522" width="2" height="64" fill="#FFFFFF" opacity="0.433" /><rect x="2315" y="2321" width="26" height="2" fill="#FFFFFF" opacity="0.513" /><rect x="2327" y="2309" width="2" height="26" fill="#FFFFFF" opacity="0.513" /><rect x="2106" y="1611" width="84" height="2" fill="#FFFFFF" opacity="0.509" /><rect x="2147" y="1570" width="2" height="84" fill="#FFFFFF" opacity="0.509" /><rect x="542" y="1477" width="56" height="2" fill="#FFFFFF" opacity="0.777" /><rect x="569" y="1450" width="2" height="56" fill="#FFFFFF" opacity="0.777" /><rect x="2058" y="1335" width="28" height="2" fill="#FFFFFF" opacity="0.458" /><rect x="2071" y="1322" width="2" height="28" fill="#FFFFFF" opacity="0.458" /><rect x="757" y="2604" width="62" height="2" fill="#FFFFFF" opacity="0.352" /><rect x="787" y="2574" width="2" height="62" fill="#FFFFFF" opacity="0.352" /><rect x="1971" y="783" width="50" height="2" fill="#FFFFFF" opacity="0.542" /><rect x="1995" y="759" width="2" height="50" fill="#FFFFFF" opacity="0.542" /><rect x="2792" y="260" width="56" height="2" fill="#FFFFFF" opacity="0.847" /><rect x="2819" y="233" width="2" height="56" fill="#FFFFFF" opacity="0.847" /><rect x="963" y="2136" width="52" height="2" fill="#FFFFFF" opacity="0.728" /><rect x="988" y="2111" width="2" height="52" fill="#FFFFFF" opacity="0.728" /><rect x="345" y="1642" width="28" height="2" fill="#FFFFFF" opacity="0.388" /><rect x="358" y="1629" width="2" height="28" fill="#FFFFFF" opacity="0.388" /><rect x="2679" y="2107" width="34" height="2" fill="#FFFFFF" opacity="0.514" /><rect x="2695" y="2091" width="2" height="34" fill="#FFFFFF" opacity="0.514" /><rect x="996" y="2694" width="44" height="2" fill="#FFFFFF" opacity="0.480" /><rect x="1017" y="2673" width="2" height="44" fill="#FFFFFF" opacity="0.480" /><rect x="505" y="881" width="42" height="2" fill="#FFFFFF" opacity="0.442" /><rect x="525" y="861" width="2" height="42" fill="#FFFFFF" opacity="0.442" /><rect x="530" y="907" width="68" height="2" fill="#FFFFFF" opacity="0.799" /><rect x="563" y="874" width="2" height="68" fill="#FFFFFF" opacity="0.799" /><rect x="2623" y="2400" width="78" height="2" fill="#FFFFFF" opacity="0.349" /><rect x="2661" y="2362" width="2" height="78" fill="#FFFFFF" opacity="0.349" /></g>
  <g opacity="0.52"><path d="M1023 1326 L1572 1070 L2121 1326 L2121 2043 L1023 2043 Z" fill="none" stroke="#0C2030" stroke-width="90" stroke-linejoin="round" /><line x1="1572" y1="1070" x2="1572" y2="2043" stroke="#0C2030" stroke-width="88" /></g>
  <g filter="url(#soft1100)"><path d="M987 1280 L1536 1024 L2085 1280 L2085 1997 L987 1997 Z" fill="none" stroke="url(#symbol1100)" stroke-width="90" stroke-linejoin="round" /><line x1="1536" y1="1024" x2="1536" y2="1997" stroke="url(#symbol1100)" stroke-width="88" /></g>
  <rect x="138" y="138" width="2796" height="2796" rx="629" fill="#FFFFFF" filter="url(#grain1100)" opacity="0.18" />
</svg>
