<svg xmlns="http://www.w3.org/2000/svg" width="3072" height="3072" viewBox="0 0 3072 3072">
  <title>QuartzOS System Icon 081 - network_05</title>
  <defs><linearGradient id="bg1080" x1="0%" y1="0%" x2="100%" y2="100%"><stop offset="0%" stop-color="#8A5CFF" /><stop offset="26%" stop-color="#FF9F43" /><stop offset="56%" stop-color="#53E3A6" /><stop offset="78%" stop-color="#4E8FC5" /><stop offset="100%" stop-color="#10243A" /></linearGradient><radialGradient id="sun1080" cx="45%" cy="32%" r="88%"><stop offset="0%" stop-color="#FFFFFF" stop-opacity="0.62" /><stop offset="30%" stop-color="#36D1FF" stop-opacity="0.35" /><stop offset="100%" stop-color="#36D1FF" stop-opacity="0" /></radialGradient><linearGradient id="glass1080" x1="0%" y1="0%" x2="0%" y2="100%"><stop offset="0%" stop-color="#FFFFFF" stop-opacity="0.70" /><stop offset="46%" stop-color="#FFFFFF" stop-opacity="0.26" /><stop offset="100%" stop-color="#FFFFFF" stop-opacity="0.00" /></linearGradient><linearGradient id="ribbon1080" x1="0%" y1="0%" x2="100%" y2="0%"><stop offset="0%" stop-color="#8A5CFF" stop-opacity="0.18" /><stop offset="34%" stop-color="#FF9F43" stop-opacity="0.72" /><stop offset="66%" stop-color="#53E3A6" stop-opacity="0.72" /><stop offset="100%" stop-color="#36D1FF" stop-opacity="0.18" /></linearGradient><radialGradient id="orb1080" cx="34%" cy="27%" r="74%"><stop offset="0%" stop-color="#FFFFFF" stop-opacity="0.84" /><stop offset="30%" stop-color="#8A5CFF" stop-opacity="0.52" /><stop offset="68%" stop-color="#FF9F43" stop-opacity="0.42" /><stop offset="100%" stop-color="#53E3A6" stop-opacity="0.20" /></radialGradient><linearGradient id="extrude1080" x1="0%" y1="0%" x2="0%" y2="100%"><stop offset="0%" stop-color="#15283C" stop-opacity="0.45" /><stop offset="100%" stop-color="#08131D" stop-opacity="0.06" /></linearGradient><linearGradient id="symbol1080" x1="0%" y1="0%" x2="100%" y2="100%"><stop offset="0%" stop-color="#FFFFFF" /><stop offset="100%" stop-color="#36D1FF" /></linearGradient><filter id="shadow1080" x="-40%" y="-40%" width="180%" height="180%"><feDropShadow dx="0" dy="49" stdDeviation="86" flood-color="#06111A" flood-opacity="0.54" /></filter><filter id="soft1080" x="-40%" y="-40%" width="180%" height="180%"><feDropShadow dx="0" dy="0" stdDeviation="14" flood-color="#8A5CFF" flood-opacity="0.45" /></filter><filter id="grain1080"><feTurbulence type="fractalNoise" baseFrequency="0.641" numOctaves="2" seed="1080" /><feColorMatrix type="saturate" values="0" /><feComponentTransfer><feFuncA type="table" tableValues="0 0.09" /></feComponentTransfer></filter></defs>
  <rect x="138" y="138" width="2796" height="2796" rx="629" fill="url(#bg1080)" filter="url(#shadow1080)" />
  <rect x="138" y="138" width="2796" height="2796" rx="629" fill="url(#sun1080)" />
  <g><circle cx="857" cy="2640" r="143" fill="#FFFFFF" opacity="0.210" /><circle cx="633" cy="1059" r="79" fill="#FFFFFF" opacity="0.111" /><circle cx="554" cy="621" r="79" fill="#FFFFFF" opacity="0.231" /><circle cx="2048" cy="829" r="123" fill="#FFFFFF" opacity="0.218" /><circle cx="1332" cy="1674" r="115" fill="#FFFFFF" opacity="0.146" /><circle cx="895" cy="2452" r="159" fill="#FFFFFF" opacity="0.085" /><circle cx="2350" cy="2522" r="118" fill="#FFFFFF" opacity="0.072" /><circle cx="2303" cy="335" r="151" fill="#FFFFFF" opacity="0.193" /><circle cx="1780" cy="1965" r="46" fill="#FFFFFF" opacity="0.060" /><circle cx="638" cy="727" r="92" fill="#FFFFFF" opacity="0.186" /><circle cx="2691" cy="2624" r="130" fill="#FFFFFF" opacity="0.118" /><circle cx="1807" cy="476" r="91" fill="#FFFFFF" opacity="0.086" /><circle cx="1559" cy="1456" r="73" fill="#FFFFFF" opacity="0.192" /><circle cx="2496" cy="2476" r="109" fill="#FFFFFF" opacity="0.221" /><circle cx="1440" cy="2582" r="113" fill="#FFFFFF" opacity="0.127" /><circle cx="1089" cy="717" r="63" fill="#FFFFFF" opacity="0.220" /><circle cx="779" cy="2109" r="118" fill="#FFFFFF" opacity="0.125" /><circle cx="550" cy="2021" r="66" fill="#FFFFFF" opacity="0.125" /><circle cx="2201" cy="2456" r="44" fill="#FFFFFF" opacity="0.089" /><circle cx="952" cy="609" r="58" fill="#FFFFFF" opacity="0.221" /><circle cx="1612" cy="1069" r="152" fill="#FFFFFF" opacity="0.198" /><circle cx="2655" cy="1335" r="61" fill="#FFFFFF" opacity="0.104" /><circle cx="1957" cy="1455" r="132" fill="#FFFFFF" opacity="0.187" /><circle cx="1456" cy="540" r="71" fill="#FFFFFF" opacity="0.239" /><circle cx="2604" cy="996" r="73" fill="#FFFFFF" opacity="0.209" /><circle cx="1401" cy="1203" r="81" fill="#FFFFFF" opacity="0.064" /><circle cx="1726" cy="1084" r="89" fill="#FFFFFF" opacity="0.230" /><circle cx="890" cy="2480" r="111" fill="#FFFFFF" opacity="0.196" /></g>
  <g><path d="M 241.6 645.4 L 2773.1 368.9 L 2773.1 805.2 L 241.6 1081.7 Z" fill="#FFFFFF" opacity="0.131" /><path d="M 326.5 893.6 L 2750.6 617.1 L 2750.6 1052.0 L 326.5 1328.5 Z" fill="#FFFFFF" opacity="0.133" /><path d="M 273.4 1154.3 L 2826.0 877.8 L 2826.0 1323.7 L 273.4 1600.2 Z" fill="#FFFFFF" opacity="0.138" /><path d="M 177.8 1377.1 L 2743.0 1100.6 L 2743.0 1551.0 L 177.8 1827.5 Z" fill="#FFFFFF" opacity="0.126" /><path d="M 311.7 1616.7 L 2801.5 1340.2 L 2801.5 1807.5 L 311.7 2084.0 Z" fill="#FFFFFF" opacity="0.105" /><path d="M 223.5 1964.3 L 2825.3 1687.8 L 2825.3 2108.0 L 223.5 2384.5 Z" fill="#FFFFFF" opacity="0.162" /><path d="M 153.5 2226.1 L 2903.9 1949.7 L 2903.9 2431.7 L 153.5 2708.2 Z" fill="#FFFFFF" opacity="0.110" /><path d="M 197.3 2463.3 L 2682.3 2186.9 L 2682.3 2613.7 L 197.3 2890.2 Z" fill="#FFFFFF" opacity="0.132" /></g>
  <g filter="url(#soft1080)"><g transform="rotate(-15.92 1536.0 1536.0)"><path d="M-368.6 540.6 C -225.8 599.2, -25.8 484.9, 107.5 592.0 C 250.4 574.5, 450.4 515.8, 583.7 561.7 C 726.5 564.0, 926.5 515.6, 1059.8 518.6 C 1202.7 519.3, 1402.7 551.4, 1536.0 488.9 C 1678.8 486.6, 1878.8 560.9, 2012.2 490.6 C 2155.0 502.7, 2355.0 570.8, 2488.3 522.6 C 2631.2 525.3, 2831.2 561.0, 2964.5 565.6 C 3107.3 574.1, 3307.3 524.0, 3440.6 593.4" fill="none" stroke="url(#ribbon1080)" stroke-width="58.4" stroke-linecap="round" stroke-opacity="0.120" /></g><g transform="rotate(-15.34 1536.0 1536.0)"><path d="M-368.6 715.5 C -241.7 738.1, -63.9 708.0, 54.6 772.1 C 181.6 782.4, 359.4 678.0, 477.9 773.8 C 604.8 775.2, 782.6 661.7, 901.1 740.2 C 1028.1 746.4, 1205.9 701.3, 1324.4 691.6 C 1451.3 686.5, 1629.1 729.2, 1747.6 657.6 C 1874.6 640.8, 2052.4 745.1, 2170.9 658.7 C 2297.9 640.1, 2475.6 750.2, 2594.1 694.3 C 2721.1 692.2, 2898.9 730.2, 3017.4 742.8 C 3144.4 753.3, 3322.1 705.6, 3440.6 774.8" fill="none" stroke="url(#ribbon1080)" stroke-width="54.4" stroke-linecap="round" stroke-opacity="0.146" /></g><g transform="rotate(-14.76 1536.0 1536.0)"><path d="M-368.6 934.2 C -254.4 941.9, -94.4 927.3, 12.3 989.0 C 126.6 985.8, 286.6 906.2, 393.2 1002.9 C 507.5 1010.3, 667.5 877.8, 774.1 975.1 C 888.4 973.7, 1048.4 887.3, 1155.1 922.5 C 1269.4 922.1, 1429.3 945.0, 1536.0 876.9 C 1650.3 877.6, 1810.3 980.6, 1916.9 866.1 C 2031.2 866.5, 2191.2 962.9, 2297.9 896.6 C 2412.1 894.2, 2572.1 948.3, 2678.8 949.8 C 2793.1 947.9, 2953.1 915.4, 3059.7 993.6 C 3174.0 1017.3, 3334.0 879.5, 3440.6 1001.3" fill="none" stroke="url(#ribbon1080)" stroke-width="50.4" stroke-linecap="round" stroke-opacity="0.172" /></g><g transform="rotate(-14.18 1536.0 1536.0)"><path d="M-368.6 1092.6 C -264.8 1175.1, -119.3 1047.3, -22.3 1146.2 C 81.5 1163.7, 227.0 1050.9, 324.0 1090.8 C 427.8 1091.4, 573.3 1093.5, 670.3 1036.5 C 774.1 1042.5, 919.6 1147.0, 1016.6 1016.2 C 1120.4 998.7, 1265.9 1170.3, 1362.9 1042.3 C 1466.7 1028.8, 1612.2 1130.7, 1709.1 1098.9 C 1813.0 1099.6, 1958.5 1088.2, 2055.4 1151.7 C 2159.3 1162.5, 2304.8 1024.4, 2401.7 1168.6 C 2505.6 1175.2, 2651.1 1008.6, 2748.0 1139.5 C 2851.9 1141.4, 2997.4 1061.5, 3094.3 1081.9 C 3198.2 1078.9, 3343.7 1103.0, 3440.6 1030.8" fill="none" stroke="url(#ribbon1080)" stroke-width="46.4" stroke-linecap="round" stroke-opacity="0.198" /></g><g transform="rotate(-13.60 1536.0 1536.0)"><path d="M-368.6 1352.7 C -273.4 1324.0, -140.1 1374.9, -51.2 1396.5 C 44.0 1409.1, 177.4 1301.1, 266.2 1434.3 C 361.5 1450.1, 494.8 1269.6, 583.7 1422.6 C 678.9 1423.0, 812.2 1272.5, 901.1 1368.5 C 996.4 1367.8, 1129.7 1334.6, 1218.6 1304.8 C 1313.8 1294.0, 1447.1 1382.8, 1536.0 1270.2 C 1631.2 1278.9, 1764.6 1378.0, 1853.4 1285.7 C 1948.7 1306.8, 2082.0 1403.9, 2170.9 1341.8 C 2266.1 1338.1, 2399.4 1356.7, 2488.3 1404.5 C 2583.6 1414.2, 2716.9 1325.9, 2805.8 1435.8 C 2901.0 1459.9, 3034.3 1318.0, 3123.2 1416.7 C 3218.4 1407.4, 3351.8 1322.9, 3440.6 1358.8" fill="none" stroke="url(#ribbon1080)" stroke-width="42.4" stroke-linecap="round" stroke-opacity="0.224" /></g><g transform="rotate(-13.02 1536.0 1536.0)"><path d="M-368.6 1493.5 C -225.8 1583.3, -25.8 1471.5, 107.5 1584.1 C 250.4 1570.7, 450.4 1415.5, 583.7 1555.4 C 726.5 1552.0, 926.5 1427.5, 1059.8 1489.2 C 1202.7 1490.5, 1402.7 1497.9, 1536.0 1425.5 C 1678.8 1425.0, 1878.8 1529.4, 2012.2 1403.1 C 2155.0 1405.9, 2355.0 1559.3, 2488.3 1435.5 C 2631.2 1428.1, 2831.2 1530.4, 2964.5 1503.1 C 3107.3 1503.3, 3307.3 1482.0, 3440.6 1564.8" fill="none" stroke="url(#ribbon1080)" stroke-width="38.4" stroke-linecap="round" stroke-opacity="0.250" /></g><g transform="rotate(-12.44 1536.0 1536.0)"><path d="M-368.6 1742.8 C -241.7 1671.3, -63.9 1829.0, 54.6 1666.4 C 181.6 1657.1, 359.4 1779.3, 477.9 1733.2 C 604.8 1730.8, 782.6 1751.8, 901.1 1805.9 C 1028.1 1795.7, 1205.9 1716.4, 1324.4 1840.3 C 1451.3 1860.4, 1629.1 1706.8, 1747.6 1815.6 C 1874.6 1804.1, 2052.4 1718.8, 2170.9 1746.7 C 2297.9 1745.7, 2475.6 1739.5, 2594.1 1675.5 C 2721.1 1689.3, 2898.9 1786.8, 3017.4 1645.1 C 3144.4 1677.3, 3322.1 1786.6, 3440.6 1674.0" fill="none" stroke="url(#ribbon1080)" stroke-width="34.4" stroke-linecap="round" stroke-opacity="0.276" /></g><g transform="rotate(-11.86 1536.0 1536.0)"><path d="M-368.6 1926.4 C -254.4 1837.1, -94.4 1956.7, 12.3 1821.6 C 126.6 1816.2, 286.6 1979.8, 393.2 1855.0 C 507.5 1853.4, 667.5 2009.0, 774.1 1931.6 C 888.4 1931.9, 1048.4 1922.2, 1155.1 2005.1 C 1269.4 1982.5, 1429.3 1900.4, 1536.0 2030.8 C 1650.3 2014.0, 1810.3 1821.6, 1916.9 1993.1 C 2031.2 2002.3, 2191.2 1860.1, 2297.9 1915.0 C 2412.1 1919.2, 2572.1 1931.0, 2678.8 1843.7 C 2793.1 1816.3, 2953.1 2005.7, 3059.7 1822.6 C 3174.0 1826.1, 3334.0 1977.2, 3440.6 1864.4" fill="none" stroke="url(#ribbon1080)" stroke-width="30.4" stroke-linecap="round" stroke-opacity="0.302" /></g><g transform="rotate(-11.28 1536.0 1536.0)"><path d="M-368.6 2121.7 C -264.8 2152.8, -119.3 2106.9, -22.3 2062.9 C 81.5 2051.6, 227.0 2190.0, 324.0 2012.5 C 427.8 1968.9, 573.3 2200.9, 670.3 2028.3 C 774.1 2005.0, 919.6 2166.7, 1016.6 2100.8 C 1120.4 2093.4, 1265.9 2139.6, 1362.9 2185.9 C 1466.7 2182.6, 1612.2 2095.1, 1709.1 2232.1 C 1813.0 2198.1, 1958.5 2080.8, 2055.4 2211.3 C 2159.3 2194.0, 2304.8 2025.9, 2401.7 2136.1 C 2505.6 2130.5, 2651.1 2110.7, 2748.0 2052.2 C 2851.9 2034.3, 2997.4 2157.0, 3094.3 2010.4 C 3198.2 1979.8, 3343.7 2248.8, 3440.6 2036.1" fill="none" stroke="url(#ribbon1080)" stroke-width="26.4" stroke-linecap="round" stroke-opacity="0.328" /></g><g transform="rotate(-10.70 1536.0 1536.0)"><path d="M-368.6 2262.8 C -273.4 2159.0, -140.1 2295.3, -51.2 2269.3 C 44.0 2268.5, 177.4 2259.0, 266.2 2352.5 C 361.5 2386.5, 494.8 2213.9, 583.7 2381.2 C 678.9 2417.7, 812.2 2136.7, 901.1 2338.1 C 996.4 2338.2, 1129.7 2194.8, 1218.6 2249.3 C 1313.8 2248.6, 1447.1 2272.0, 1536.0 2168.7 C 1631.2 2184.7, 1764.6 2341.1, 1853.4 2145.1 C 1948.7 2137.0, 2082.0 2347.2, 2170.9 2192.9 C 2266.1 2182.1, 2399.4 2326.6, 2488.3 2283.1 C 2583.6 2281.7, 2716.9 2251.0, 2805.8 2361.0 C 2901.0 2328.5, 3034.3 2170.0, 3123.2 2379.3 C 3218.4 2419.6, 3351.8 2208.0, 3440.6 2326.9" fill="none" stroke="url(#ribbon1080)" stroke-width="22.4" stroke-linecap="round" stroke-opacity="0.354" /></g><g transform="rotate(-10.12 1536.0 1536.0)"><path d="M-368.6 2500.7 C -225.8 2603.7, -25.8 2415.6, 107.5 2573.7 C 250.4 2547.9, 450.4 2420.9, 583.7 2478.0 C 726.5 2474.3, 926.5 2515.9, 1059.8 2396.0 C 1202.7 2411.5, 1402.7 2583.9, 1536.0 2377.5 C 1678.8 2333.6, 1878.8 2618.7, 2012.2 2433.7 C 2155.0 2437.3, 2355.0 2573.8, 2488.3 2530.5 C 2631.2 2522.5, 2831.2 2486.3, 2964.5 2609.2 C 3107.3 2645.7, 3307.3 2464.7, 3440.6 2622.1" fill="none" stroke="url(#ribbon1080)" stroke-width="18.4" stroke-linecap="round" stroke-opacity="0.380" /></g><g transform="rotate(-9.54 1536.0 1536.0)"><path d="M-368.6 2619.1 C -241.7 2564.1, -63.9 2652.0, 54.6 2666.0 C 181.6 2683.4, 359.4 2581.0, 477.9 2741.1 C 604.8 2778.6, 782.6 2563.1, 901.1 2742.1 C 1028.1 2753.2, 1205.9 2549.1, 1324.4 2668.5 C 1451.3 2657.8, 1629.1 2566.6, 1747.6 2564.9 C 1874.6 2552.9, 2052.4 2653.0, 2170.9 2494.2 C 2297.9 2543.7, 2475.6 2759.1, 2594.1 2499.2 C 2721.1 2503.4, 2898.9 2663.7, 3017.4 2576.9 C 3144.4 2569.7, 3322.1 2652.9, 3440.6 2680.2" fill="none" stroke="url(#ribbon1080)" stroke-width="14.4" stroke-linecap="round" stroke-opacity="0.406" /></g></g>
  <g><ellipse cx="1536.0" cy="1551.9" rx="728.6" ry="605.7" fill="url(#extrude1080)" opacity="0.220" /><ellipse cx="1536.0" cy="1567.7" rx="736.0" ry="610.9" fill="url(#extrude1080)" opacity="0.205" /><ellipse cx="1536.0" cy="1583.6" rx="743.4" ry="616.1" fill="url(#extrude1080)" opacity="0.190" /><ellipse cx="1536.0" cy="1599.5" rx="750.9" ry="621.3" fill="url(#extrude1080)" opacity="0.175" /><ellipse cx="1536.0" cy="1615.4" rx="758.3" ry="626.5" fill="url(#extrude1080)" opacity="0.160" /><ellipse cx="1536.0" cy="1631.2" rx="765.7" ry="631.7" fill="url(#extrude1080)" opacity="0.145" /><ellipse cx="1536.0" cy="1647.1" rx="773.2" ry="636.9" fill="url(#extrude1080)" opacity="0.130" /><ellipse cx="1536.0" cy="1663.0" rx="780.6" ry="642.1" fill="url(#extrude1080)" opacity="0.115" /><ellipse cx="1536.0" cy="1678.8" rx="788.0" ry="647.4" fill="url(#extrude1080)" opacity="0.100" /><ellipse cx="1536.0" cy="1694.7" rx="795.5" ry="652.6" fill="url(#extrude1080)" opacity="0.085" /><ellipse cx="1536.0" cy="1710.6" rx="802.9" ry="657.8" fill="url(#extrude1080)" opacity="0.070" /><ellipse cx="1536.0" cy="1726.5" rx="810.3" ry="663.0" fill="url(#extrude1080)" opacity="0.055" /></g>
  <ellipse cx="1536.0" cy="1726.5" rx="773.2" ry="214.9" fill="#0B1D2D" opacity="0.24" />
  <ellipse cx="1536.0" cy="1536.0" rx="743.4" ry="651.3" fill="url(#orb1080)" stroke="#FFFFFF" stroke-opacity="0.42" stroke-width="7" />
  <ellipse cx="1431.9" cy="1392.7" rx="505.5" ry="299.6" fill="#FFFFFF" opacity="0.25" />
  <path d="M 199.4 399.4 C 1013.8 -30.7, 2058.2 768.0, 2872.6 215.0 L 2872.6 983.0 C 2089.0 1228.8, 1013.8 307.2, 199.4 1167.4 Z" fill="url(#glass1080)" />
  <rect x="270" y="270" width="2532" height="2532" rx="430" fill="none" stroke="#FFFFFF" stroke-opacity="0.30" stroke-width="5" />
  <rect x="288.4" y="288.4" width="2495.1" height="2495.1" rx="399" fill="none" stroke="#8A5CFF" stroke-opacity="0.35" stroke-width="3" />
  <g filter="url(#soft1080)"><rect x="2393" y="1966" width="34" height="2" fill="#FFFFFF" opacity="0.462" /><rect x="2409" y="1950" width="2" height="34" fill="#FFFFFF" opacity="0.462" /><rect x="919" y="1356" width="38" height="2" fill="#FFFFFF" opacity="0.500" /><rect x="937" y="1338" width="2" height="38" fill="#FFFFFF" opacity="0.500" /><rect x="821" y="2420" width="34" height="2" fill="#FFFFFF" opacity="0.400" /><rect x="837" y="2404" width="2" height="34" fill="#FFFFFF" opacity="0.400" /><rect x="1636" y="2733" width="36" height="2" fill="#FFFFFF" opacity="0.560" /><rect x="1653" y="2716" width="2" height="36" fill="#FFFFFF" opacity="0.560" /><rect x="2646" y="296" width="74" height="2" fill="#FFFFFF" opacity="0.842" /><rect x="2682" y="260" width="2" height="74" fill="#FFFFFF" opacity="0.842" /><rect x="1998" y="2376" width="30" height="2" fill="#FFFFFF" opacity="0.809" /><rect x="2012" y="2362" width="2" height="30" fill="#FFFFFF" opacity="0.809" /><rect x="2726" y="669" width="54" height="2" fill="#FFFFFF" opacity="0.572" /><rect x="2752" y="643" width="2" height="54" fill="#FFFFFF" opacity="0.572" /><rect x="1437" y="1012" width="80" height="2" fill="#FFFFFF" opacity="0.404" /><rect x="1476" y="973" width="2" height="80" fill="#FFFFFF" opacity="0.404" /><rect x="2473" y="2488" width="70" height="2" fill="#FFFFFF" opacity="0.706" /><rect x="2507" y="2454" width="2" height="70" fill="#FFFFFF" opacity="0.706" /><rect x="1545" y="296" width="64" height="2" fill="#FFFFFF" opacity="0.749" /><rect x="1576" y="265" width="2" height="64" fill="#FFFFFF" opacity="0.749" /><rect x="1367" y="1700" width="54" height="2" fill="#FFFFFF" opacity="0.816" /><rect x="1393" y="1674" width="2" height="54" fill="#FFFFFF" opacity="0.816" /><rect x="1370" y="2222" width="58" height="2" fill="#FFFFFF" opacity="0.391" /><rect x="1398" y="2194" width="2" height="58" fill="#FFFFFF" opacity="0.391" /><rect x="2782" y="810" width="46" height="2" fill="#FFFFFF" opacity="0.579" /><rect x="2804" y="788" width="2" height="46" fill="#FFFFFF" opacity="0.579" /><rect x="2682" y="2400" width="34" height="2" fill="#FFFFFF" opacity="0.401" /><rect x="2698" y="2384" width="2" height="34" fill="#FFFFFF" opacity="0.401" /><rect x="1925" y="2239" width="48" height="2" fill="#FFFFFF" opacity="0.359" /><rect x="1948" y="2216" width="2" height="48" fill="#FFFFFF" opacity="0.359" /><rect x="1912" y="2381" width="28" height="2" fill="#FFFFFF" opacity="0.439" /><rect x="1925" y="2368" width="2" height="28" fill="#FFFFFF" opacity="0.439" /><rect x="902" y="577" width="84" height="2" fill="#FFFFFF" opacity="0.731" /><rect x="943" y="536" width="2" height="84" fill="#FFFFFF" opacity="0.731" /><rect x="1911" y="724" width="70" height="2" fill="#FFFFFF" opacity="0.353" /><rect x="1945" y="690" width="2" height="70" fill="#FFFFFF" opacity="0.353" /><rect x="757" y="1436" width="46" height="2" fill="#FFFFFF" opacity="0.384" /><rect x="779" y="1414" width="2" height="46" fill="#FFFFFF" opacity="0.384" /><rect x="569" y="600" width="74" height="2" fill="#FFFFFF" opacity="0.715" /><rect x="605" y="564" width="2" height="74" fill="#FFFFFF" opacity="0.715" /><rect x="338" y="1424" width="26" height="2" fill="#FFFFFF" opacity="0.659" /><rect x="350" y="1412" width="2" height="26" fill="#FFFFFF" opacity="0.659" /><rect x="1476" y="1177" width="60" height="2" fill="#FFFFFF" opacity="0.636" /><rect x="1505" y="1148" width="2" height="60" fill="#FFFFFF" opacity="0.636" /><rect x="2549" y="2280" width="78" height="2" fill="#FFFFFF" opacity="0.771" /><rect x="2587" y="2242" width="2" height="78" fill="#FFFFFF" opacity="0.771" /><rect x="1588" y="497" width="82" height="2" fill="#FFFFFF" opacity="0.572" /><rect x="1628" y="457" width="2" height="82" fill="#FFFFFF" opacity="0.572" /><rect x="2451" y="1234" width="48" height="2" fill="#FFFFFF" opacity="0.769" /><rect x="2474" y="1211" width="2" height="48" fill="#FFFFFF" opacity="0.769" /><rect x="1136" y="2293" width="48" height="2" fill="#FFFFFF" opacity="0.757" /><rect x="1159" y="2270" width="2" height="48" fill="#FFFFFF" opacity="0.757" /></g>
  <g opacity="0.52"><circle cx="1572" cy="1582" r="307" fill="none" stroke="#0C2030" stroke-width="90" /><line x1="1791" y1="1801" x2="2340" y2="2350" stroke="#0C2030" stroke-width="90" stroke-linecap="round" /></g>
  <g filter="url(#soft1080)"><circle cx="1536" cy="1536" r="307" fill="none" stroke="url(#symbol1080)" stroke-width="90" /><line x1="1755" y1="1755" x2="2304" y2="2304" stroke="url(#symbol1080)" stroke-width="90" stroke-linecap="round" /></g>
  <rect x="138" y="138" width="2796" height="2796" rx="629" fill="#FFFFFF" filter="url(#grain1080)" opacity="0.18" />
</svg>
