<svg xmlns="http://www.w3.org/2000/svg" width="3072" height="3072" viewBox="0 0 3072 3072">
  <title>QuartzOS System Icon 020 - power_01</title>
  <defs><linearGradient id="bg1019" x1="0%" y1="0%" x2="100%" y2="100%"><stop offset="0%" stop-color="#FF9F43" /><stop offset="26%" stop-color="#53E3A6" /><stop offset="56%" stop-color="#3B82FF" /><stop offset="78%" stop-color="#4BA7D0" /><stop offset="100%" stop-color="#122A3D" /></linearGradient><radialGradient id="sun1019" cx="31%" cy="19%" r="88%"><stop offset="0%" stop-color="#FFFFFF" stop-opacity="0.62" /><stop offset="30%" stop-color="#8A5CFF" stop-opacity="0.35" /><stop offset="100%" stop-color="#8A5CFF" stop-opacity="0" /></radialGradient><linearGradient id="glass1019" x1="0%" y1="0%" x2="0%" y2="100%"><stop offset="0%" stop-color="#FFFFFF" stop-opacity="0.70" /><stop offset="46%" stop-color="#FFFFFF" stop-opacity="0.26" /><stop offset="100%" stop-color="#FFFFFF" stop-opacity="0.00" /></linearGradient><linearGradient id="ribbon1019" x1="0%" y1="0%" x2="100%" y2="0%"><stop offset="0%" stop-color="#FF9F43" stop-opacity="0.18" /><stop offset="34%" stop-color="#53E3A6" stop-opacity="0.72" /><stop offset="66%" stop-color="#3B82FF" stop-opacity="0.72" /><stop offset="100%" stop-color="#8A5CFF" stop-opacity="0.18" /></linearGradient><radialGradient id="orb1019" cx="34%" cy="27%" r="74%"><stop offset="0%" stop-color="#FFFFFF" stop-opacity="0.84" /><stop offset="30%" stop-color="#FF9F43" stop-opacity="0.52" /><stop offset="68%" stop-color="#53E3A6" stop-opacity="0.42" /><stop offset="100%" stop-color="#3B82FF" stop-opacity="0.20" /></radialGradient><linearGradient id="extrude1019" x1="0%" y1="0%" x2="0%" y2="100%"><stop offset="0%" stop-color="#15283C" stop-opacity="0.45" /><stop offset="100%" stop-color="#08131D" stop-opacity="0.06" /></linearGradient><linearGradient id="symbol1019" x1="0%" y1="0%" x2="100%" y2="100%"><stop offset="0%" stop-color="#FFFFFF" /><stop offset="100%" stop-color="#8A5CFF" /></linearGradient><filter id="shadow1019" x="-40%" y="-40%" width="180%" height="180%"><feDropShadow dx="0" dy="49" stdDeviation="86" flood-color="#06111A" flood-opacity="0.54" /></filter><filter id="soft1019" x="-40%" y="-40%" width="180%" height="180%"><feDropShadow dx="0" dy="0" stdDeviation="14" flood-color="#FF9F43" flood-opacity="0.45" /></filter><filter id="grain1019"><feTurbulence type="fractalNoise" baseFrequency="0.645" numOctaves="2" seed="1019" /><feColorMatrix type="saturate" values="0" /><feComponentTransfer><feFuncA type="table" tableValues="0 0.09" /></feComponentTransfer></filter></defs>
  <rect x="138" y="138" width="2796" height="2796" rx="629" fill="url(#bg1019)" filter="url(#shadow1019)" />
  <rect x="138" y="138" width="2796" height="2796" rx="629" fill="url(#sun1019)" />
  <g><circle cx="1416" cy="643" r="101" fill="#FFFFFF" opacity="0.175" /><circle cx="2213" cy="1676" r="111" fill="#FFFFFF" opacity="0.103" /><circle cx="370" cy="1168" r="84" fill="#FFFFFF" opacity="0.098" /><circle cx="1288" cy="2575" r="46" fill="#FFFFFF" opacity="0.196" /><circle cx="1531" cy="972" r="150" fill="#FFFFFF" opacity="0.152" /><circle cx="1851" cy="1116" r="141" fill="#FFFFFF" opacity="0.078" /><circle cx="1323" cy="2551" r="119" fill="#FFFFFF" opacity="0.198" /><circle cx="2521" cy="1503" r="39" fill="#FFFFFF" opacity="0.154" /><circle cx="2236" cy="2413" r="159" fill="#FFFFFF" opacity="0.131" /><circle cx="1208" cy="1425" r="57" fill="#FFFFFF" opacity="0.183" /><circle cx="1503" cy="545" r="98" fill="#FFFFFF" opacity="0.136" /><circle cx="504" cy="1609" r="61" fill="#FFFFFF" opacity="0.118" /><circle cx="2690" cy="1659" r="129" fill="#FFFFFF" opacity="0.233" /><circle cx="951" cy="2339" r="94" fill="#FFFFFF" opacity="0.064" /><circle cx="1159" cy="1005" r="79" fill="#FFFFFF" opacity="0.193" /><circle cx="882" cy="1329" r="63" fill="#FFFFFF" opacity="0.061" /><circle cx="1789" cy="2686" r="65" fill="#FFFFFF" opacity="0.181" /><circle cx="498" cy="2527" r="80" fill="#FFFFFF" opacity="0.067" /><circle cx="1227" cy="975" r="83" fill="#FFFFFF" opacity="0.162" /><circle cx="826" cy="2301" r="101" fill="#FFFFFF" opacity="0.123" /><circle cx="2399" cy="1330" r="134" fill="#FFFFFF" opacity="0.205" /><circle cx="2253" cy="942" r="97" fill="#FFFFFF" opacity="0.175" /><circle cx="556" cy="2010" r="129" fill="#FFFFFF" opacity="0.084" /><circle cx="2609" cy="1131" r="137" fill="#FFFFFF" opacity="0.086" /><circle cx="1578" cy="1010" r="92" fill="#FFFFFF" opacity="0.154" /><circle cx="1827" cy="566" r="146" fill="#FFFFFF" opacity="0.197" /><circle cx="2476" cy="1942" r="149" fill="#FFFFFF" opacity="0.073" /><circle cx="1491" cy="321" r="67" fill="#FFFFFF" opacity="0.104" /></g>
  <g><path d="M 330.8 625.4 L 2726.5 348.9 L 2726.5 843.4 L 330.8 1119.9 Z" fill="#FFFFFF" opacity="0.165" /><path d="M 197.6 916.3 L 2786.1 639.8 L 2786.1 1136.9 L 197.6 1413.3 Z" fill="#FFFFFF" opacity="0.128" /><path d="M 271.9 1177.0 L 2811.9 900.5 L 2811.9 1389.3 L 271.9 1665.8 Z" fill="#FFFFFF" opacity="0.209" /><path d="M 239.6 1408.3 L 2736.4 1131.8 L 2736.4 1569.1 L 239.6 1845.6 Z" fill="#FFFFFF" opacity="0.120" /><path d="M 161.8 1637.6 L 2699.8 1361.1 L 2699.8 1846.3 L 161.8 2122.8 Z" fill="#FFFFFF" opacity="0.088" /><path d="M 347.4 1895.6 L 2707.8 1619.1 L 2707.8 2080.0 L 347.4 2356.5 Z" fill="#FFFFFF" opacity="0.184" /><path d="M 251.7 2192.3 L 2910.7 1915.8 L 2910.7 2337.5 L 251.7 2613.9 Z" fill="#FFFFFF" opacity="0.150" /><path d="M 172.3 2453.6 L 2709.0 2177.1 L 2709.0 2631.0 L 172.3 2907.5 Z" fill="#FFFFFF" opacity="0.143" /></g>
  <g filter="url(#soft1019)"><g transform="rotate(-21.24 1536.0 1536.0)"><path d="M-368.6 497.8 C -225.8 457.3, -25.8 529.5, 107.5 467.3 C 250.4 477.3, 450.4 513.7, 583.7 509.6 C 726.5 505.8, 926.5 491.8, 1059.8 544.8 C 1202.7 560.0, 1402.7 462.9, 1536.0 551.5 C 1678.8 548.6, 1878.8 450.7, 2012.2 525.6 C 2155.0 530.4, 2355.0 468.7, 2488.3 482.8 C 2631.2 479.5, 2831.2 508.7, 2964.5 449.2 C 3107.3 468.5, 3307.3 539.4, 3440.6 445.0" fill="none" stroke="url(#ribbon1019)" stroke-width="58.4" stroke-linecap="round" stroke-opacity="0.120" /></g><g transform="rotate(-20.66 1536.0 1536.0)"><path d="M-368.6 735.4 C -241.7 713.4, -63.9 741.0, 54.6 765.1 C 181.6 761.3, 359.4 706.7, 477.9 795.5 C 604.8 795.1, 782.6 699.3, 901.1 789.4 C 1028.1 778.6, 1205.9 687.8, 1324.4 750.5 C 1451.3 755.8, 1629.1 721.9, 1747.6 702.6 C 1874.6 715.0, 2052.4 753.6, 2170.9 674.5 C 2297.9 693.8, 2475.6 807.5, 2594.1 683.4 C 2721.1 694.1, 2898.9 778.7, 3017.4 723.9 C 3144.4 725.1, 3322.1 741.7, 3440.6 771.3" fill="none" stroke="url(#ribbon1019)" stroke-width="54.4" stroke-linecap="round" stroke-opacity="0.146" /></g><g transform="rotate(-20.08 1536.0 1536.0)"><path d="M-368.6 881.6 C -254.4 918.3, -94.4 842.5, 12.3 894.5 C 126.6 898.8, 286.6 867.9, 393.2 841.7 C 507.5 828.4, 667.5 915.1, 774.1 813.1 C 888.4 808.7, 1048.4 936.1, 1155.1 826.0 C 1269.4 839.8, 1429.3 933.0, 1536.0 872.7 C 1650.3 873.3, 1810.3 886.3, 1916.9 924.8 C 2031.2 929.0, 2191.2 837.2, 2297.9 950.7 C 2412.1 947.4, 2572.1 853.5, 2678.8 934.7 C 2793.1 951.0, 2953.1 864.6, 3059.7 886.5 C 3174.0 886.8, 3334.0 876.9, 3440.6 835.3" fill="none" stroke="url(#ribbon1019)" stroke-width="50.4" stroke-linecap="round" stroke-opacity="0.172" /></g><g transform="rotate(-19.50 1536.0 1536.0)"><path d="M-368.6 1092.5 C -264.8 1035.3, -119.3 1164.0, -22.3 1076.3 C 81.5 1079.8, 227.0 1098.4, 324.0 1134.8 C 427.8 1136.2, 573.3 1055.8, 670.3 1167.7 C 774.1 1169.2, 919.6 1064.2, 1016.6 1154.9 C 1120.4 1173.7, 1265.9 1064.7, 1362.9 1104.3 C 1466.7 1099.7, 1612.2 1082.8, 1709.1 1046.5 C 1813.0 1036.2, 1958.5 1125.0, 2055.4 1016.6 C 2159.3 1024.3, 2304.8 1144.5, 2401.7 1032.7 C 2505.6 1019.4, 2651.1 1128.4, 2748.0 1085.1 C 2851.9 1087.2, 2997.4 1096.2, 3094.3 1142.0 C 3198.2 1156.9, 3343.7 1036.6, 3440.6 1168.8" fill="none" stroke="url(#ribbon1019)" stroke-width="46.4" stroke-linecap="round" stroke-opacity="0.198" /></g><g transform="rotate(-18.92 1536.0 1536.0)"><path d="M-368.6 1243.6 C -273.4 1223.7, -140.1 1260.6, -51.2 1168.4 C 44.0 1158.3, 177.4 1331.5, 266.2 1165.1 C 361.5 1161.5, 494.8 1299.1, 583.7 1209.4 C 678.9 1210.2, 812.2 1271.4, 901.1 1274.4 C 996.4 1284.4, 1129.7 1230.4, 1218.6 1320.8 C 1313.8 1311.8, 1447.1 1191.4, 1536.0 1320.3 C 1631.2 1332.1, 1764.6 1176.6, 1853.4 1273.3 C 1948.7 1279.7, 2082.0 1208.3, 2170.9 1208.2 C 2266.1 1204.6, 2399.4 1265.3, 2488.3 1164.6 C 2583.6 1142.6, 2716.9 1327.4, 2805.8 1168.9 C 2901.0 1173.7, 3034.3 1297.3, 3123.2 1218.5 C 3218.4 1214.6, 3351.8 1272.5, 3440.6 1283.3" fill="none" stroke="url(#ribbon1019)" stroke-width="42.4" stroke-linecap="round" stroke-opacity="0.224" /></g><g transform="rotate(-18.34 1536.0 1536.0)"><path d="M-368.6 1480.0 C -225.8 1429.7, -25.8 1511.0, 107.5 1389.8 C 250.4 1405.1, 450.4 1539.8, 583.7 1411.1 C 726.5 1426.2, 926.5 1550.5, 1059.8 1474.2 C 1202.7 1476.1, 1402.7 1482.0, 1536.0 1540.9 C 1678.8 1561.7, 1878.8 1409.3, 2012.2 1570.6 C 2155.0 1568.8, 2355.0 1433.4, 2488.3 1545.4 C 2631.2 1566.6, 2831.2 1459.3, 2964.5 1480.5 C 3107.3 1480.6, 3307.3 1479.5, 3440.6 1415.4" fill="none" stroke="url(#ribbon1019)" stroke-width="38.4" stroke-linecap="round" stroke-opacity="0.250" /></g><g transform="rotate(-17.76 1536.0 1536.0)"><path d="M-368.6 1656.4 C -241.7 1718.4, -63.9 1562.7, 54.6 1742.3 C 181.6 1755.5, 359.4 1603.6, 477.9 1682.9 C 604.8 1678.1, 782.6 1630.0, 901.1 1607.4 C 1028.1 1619.6, 1205.9 1690.2, 1324.4 1561.6 C 1451.3 1564.1, 1629.1 1715.0, 1747.6 1573.3 C 1874.6 1580.7, 2052.4 1707.7, 2170.9 1635.3 C 2297.9 1642.7, 2475.6 1678.7, 2594.1 1710.1 C 2721.1 1708.0, 2898.9 1608.6, 3017.4 1752.3 C 3144.4 1764.9, 3322.1 1620.0, 3440.6 1736.3" fill="none" stroke="url(#ribbon1019)" stroke-width="34.4" stroke-linecap="round" stroke-opacity="0.276" /></g><g transform="rotate(-17.18 1536.0 1536.0)"><path d="M-368.6 1892.6 C -254.4 2007.9, -94.4 1783.5, 12.3 1975.5 C 126.6 1968.2, 286.6 1858.6, 393.2 1904.3 C 507.5 1907.6, 667.5 1888.5, 774.1 1826.1 C 888.4 1830.3, 1048.4 1967.9, 1155.1 1788.2 C 1269.4 1794.2, 1429.3 1994.5, 1536.0 1813.6 C 1650.3 1785.0, 1810.3 1947.6, 1916.9 1886.9 C 2031.2 1885.3, 2191.2 1895.2, 2297.9 1963.7 C 2412.1 1950.6, 2572.1 1832.0, 2678.8 1997.3 C 2793.1 2002.8, 2953.1 1815.4, 3059.7 1967.4 C 3174.0 1957.5, 3334.0 1810.8, 3440.6 1892.1" fill="none" stroke="url(#ribbon1019)" stroke-width="30.4" stroke-linecap="round" stroke-opacity="0.302" /></g><g transform="rotate(-16.60 1536.0 1536.0)"><path d="M-368.6 2110.3 C -264.8 2143.8, -119.3 2092.2, -22.3 2206.6 C 81.5 2228.5, 227.0 2062.0, 324.0 2218.1 C 427.8 2191.9, 573.3 2072.4, 670.3 2164.3 C 774.1 2176.7, 919.6 2078.5, 1016.6 2077.6 C 1120.4 2085.6, 1265.9 2136.5, 1362.9 2010.8 C 1466.7 2023.0, 1612.2 2198.3, 1709.1 2004.3 C 1813.0 2010.8, 1958.5 2228.6, 2055.4 2062.1 C 2159.3 2064.1, 2304.8 2137.4, 2401.7 2149.1 C 2505.6 2152.3, 2651.1 2077.4, 2748.0 2212.6 C 2851.9 2175.8, 2997.4 1990.0, 3094.3 2214.0 C 3198.2 2211.1, 3343.7 1987.6, 3440.6 2152.5" fill="none" stroke="url(#ribbon1019)" stroke-width="26.4" stroke-linecap="round" stroke-opacity="0.328" /></g><g transform="rotate(-16.02 1536.0 1536.0)"><path d="M-368.6 2317.5 C -273.4 2242.6, -140.1 2350.8, -51.2 2352.1 C 44.0 2346.3, 177.4 2283.1, 266.2 2423.2 C 361.5 2399.9, 494.8 2281.6, 583.7 2430.2 C 678.9 2444.3, 812.2 2193.6, 901.1 2368.8 C 996.4 2362.2, 1129.7 2277.4, 1218.6 2276.3 C 1313.8 2287.0, 1447.1 2353.2, 1536.0 2208.8 C 1631.2 2208.7, 1764.6 2447.4, 1853.4 2207.3 C 1948.7 2233.2, 2082.0 2390.7, 2170.9 2272.6 C 2266.1 2281.4, 2399.4 2355.9, 2488.3 2365.2 C 2583.6 2374.7, 2716.9 2276.8, 2805.8 2428.9 C 2901.0 2387.1, 3034.3 2275.1, 3123.2 2425.0 C 3218.4 2411.0, 3351.8 2207.4, 3440.6 2356.0" fill="none" stroke="url(#ribbon1019)" stroke-width="22.4" stroke-linecap="round" stroke-opacity="0.354" /></g><g transform="rotate(-15.44 1536.0 1536.0)"><path d="M-368.6 2509.9 C -225.8 2487.4, -25.8 2533.2, 107.5 2577.3 C 250.4 2552.9, 450.4 2459.7, 583.7 2633.2 C 726.5 2681.7, 926.5 2472.2, 1059.8 2614.2 C 1202.7 2595.9, 1402.7 2474.8, 1536.0 2532.0 C 1678.8 2527.2, 1878.8 2501.4, 2012.2 2436.3 C 2155.0 2440.3, 2355.0 2539.7, 2488.3 2385.3 C 2631.2 2395.3, 2831.2 2629.5, 2964.5 2409.8 C 3107.3 2445.9, 3307.3 2594.3, 3440.6 2495.1" fill="none" stroke="url(#ribbon1019)" stroke-width="18.4" stroke-linecap="round" stroke-opacity="0.380" /></g><g transform="rotate(-14.86 1536.0 1536.0)"><path d="M-368.6 2632.4 C -241.7 2533.8, -63.9 2740.0, 54.6 2500.8 C 181.6 2529.0, 359.4 2741.1, 477.9 2554.4 C 604.8 2554.0, 782.6 2675.8, 901.1 2655.4 C 1028.1 2653.5, 1205.9 2624.3, 1324.4 2742.4 C 1451.3 2774.3, 1629.1 2522.3, 1747.6 2762.7 C 1874.6 2796.9, 2052.4 2488.4, 2170.9 2704.0 C 2297.9 2719.0, 2475.6 2580.9, 2594.1 2601.9 C 2721.1 2613.7, 2898.9 2646.3, 3017.4 2518.3 C 3144.4 2557.8, 3322.1 2715.9, 3440.6 2503.9" fill="none" stroke="url(#ribbon1019)" stroke-width="14.4" stroke-linecap="round" stroke-opacity="0.406" /></g></g>
  <g><ellipse cx="1536.0" cy="1551.9" rx="728.6" ry="605.7" fill="url(#extrude1019)" opacity="0.220" /><ellipse cx="1536.0" cy="1567.7" rx="736.0" ry="610.9" fill="url(#extrude1019)" opacity="0.205" /><ellipse cx="1536.0" cy="1583.6" rx="743.4" ry="616.1" fill="url(#extrude1019)" opacity="0.190" /><ellipse cx="1536.0" cy="1599.5" rx="750.9" ry="621.3" fill="url(#extrude1019)" opacity="0.175" /><ellipse cx="1536.0" cy="1615.4" rx="758.3" ry="626.5" fill="url(#extrude1019)" opacity="0.160" /><ellipse cx="1536.0" cy="1631.2" rx="765.7" ry="631.7" fill="url(#extrude1019)" opacity="0.145" /><ellipse cx="1536.0" cy="1647.1" rx="773.2" ry="636.9" fill="url(#extrude1019)" opacity="0.130" /><ellipse cx="1536.0" cy="1663.0" rx="780.6" ry="642.1" fill="url(#extrude1019)" opacity="0.115" /><ellipse cx="1536.0" cy="1678.8" rx="788.0" ry="647.4" fill="url(#extrude1019)" opacity="0.100" /><ellipse cx="1536.0" cy="1694.7" rx="795.5" ry="652.6" fill="url(#extrude1019)" opacity="0.085" /><ellipse cx="1536.0" cy="1710.6" rx="802.9" ry="657.8" fill="url(#extrude1019)" opacity="0.070" /><ellipse cx="1536.0" cy="1726.5" rx="810.3" ry="663.0" fill="url(#extrude1019)" opacity="0.055" /></g>
  <ellipse cx="1536.0" cy="1726.5" rx="773.2" ry="214.9" fill="#0B1D2D" opacity="0.24" />
  <ellipse cx="1536.0" cy="1536.0" rx="743.4" ry="651.3" fill="url(#orb1019)" stroke="#FFFFFF" stroke-opacity="0.42" stroke-width="7" />
  <ellipse cx="1431.9" cy="1392.7" rx="505.5" ry="299.6" fill="#FFFFFF" opacity="0.25" />
  <path d="M 199.4 399.4 C 1013.8 -30.7, 2058.2 768.0, 2872.6 215.0 L 2872.6 983.0 C 2089.0 1228.8, 1013.8 307.2, 199.4 1167.4 Z" fill="url(#glass1019)" />
  <rect x="270" y="270" width="2532" height="2532" rx="430" fill="none" stroke="#FFFFFF" stroke-opacity="0.30" stroke-width="5" />
  <rect x="288.4" y="288.4" width="2495.1" height="2495.1" rx="399" fill="none" stroke="#FF9F43" stroke-opacity="0.35" stroke-width="3" />
  <g filter="url(#soft1019)"><rect x="1472" y="1316" width="62" height="2" fill="#FFFFFF" opacity="0.569" /><rect x="1502" y="1286" width="2" height="62" fill="#FFFFFF" opacity="0.569" /><rect x="780" y="579" width="34" height="2" fill="#FFFFFF" opacity="0.643" /><rect x="796" y="563" width="2" height="34" fill="#FFFFFF" opacity="0.643" /><rect x="2188" y="2387" width="26" height="2" fill="#FFFFFF" opacity="0.383" /><rect x="2200" y="2375" width="2" height="26" fill="#FFFFFF" opacity="0.383" /><rect x="2608" y="1659" width="32" height="2" fill="#FFFFFF" opacity="0.653" /><rect x="2623" y="1644" width="2" height="32" fill="#FFFFFF" opacity="0.653" /><rect x="2669" y="416" width="26" height="2" fill="#FFFFFF" opacity="0.599" /><rect x="2681" y="404" width="2" height="26" fill="#FFFFFF" opacity="0.599" /><rect x="2450" y="1522" width="36" height="2" fill="#FFFFFF" opacity="0.523" /><rect x="2467" y="1505" width="2" height="36" fill="#FFFFFF" opacity="0.523" /><rect x="1551" y="1041" width="46" height="2" fill="#FFFFFF" opacity="0.395" /><rect x="1573" y="1019" width="2" height="46" fill="#FFFFFF" opacity="0.395" /><rect x="562" y="812" width="26" height="2" fill="#FFFFFF" opacity="0.447" /><rect x="574" y="800" width="2" height="26" fill="#FFFFFF" opacity="0.447" /><rect x="1777" y="516" width="52" height="2" fill="#FFFFFF" opacity="0.528" /><rect x="1802" y="491" width="2" height="52" fill="#FFFFFF" opacity="0.528" /><rect x="307" y="2171" width="44" height="2" fill="#FFFFFF" opacity="0.524" /><rect x="328" y="2150" width="2" height="44" fill="#FFFFFF" opacity="0.524" /><rect x="1999" y="2694" width="40" height="2" fill="#FFFFFF" opacity="0.448" /><rect x="2018" y="2675" width="2" height="40" fill="#FFFFFF" opacity="0.448" /><rect x="346" y="1174" width="84" height="2" fill="#FFFFFF" opacity="0.580" /><rect x="387" y="1133" width="2" height="84" fill="#FFFFFF" opacity="0.580" /><rect x="745" y="278" width="48" height="2" fill="#FFFFFF" opacity="0.542" /><rect x="768" y="255" width="2" height="48" fill="#FFFFFF" opacity="0.542" /><rect x="2043" y="1978" width="84" height="2" fill="#FFFFFF" opacity="0.704" /><rect x="2084" y="1937" width="2" height="84" fill="#FFFFFF" opacity="0.704" /><rect x="796" y="945" width="78" height="2" fill="#FFFFFF" opacity="0.692" /><rect x="834" y="907" width="2" height="78" fill="#FFFFFF" opacity="0.692" /><rect x="1849" y="2271" width="60" height="2" fill="#FFFFFF" opacity="0.307" /><rect x="1878" y="2242" width="2" height="60" fill="#FFFFFF" opacity="0.307" /><rect x="1096" y="2607" width="68" height="2" fill="#FFFFFF" opacity="0.660" /><rect x="1129" y="2574" width="2" height="68" fill="#FFFFFF" opacity="0.660" /><rect x="1566" y="425" width="46" height="2" fill="#FFFFFF" opacity="0.656" /><rect x="1588" y="403" width="2" height="46" fill="#FFFFFF" opacity="0.656" /><rect x="1317" y="959" width="58" height="2" fill="#FFFFFF" opacity="0.645" /><rect x="1345" y="931" width="2" height="58" fill="#FFFFFF" opacity="0.645" /><rect x="1137" y="2166" width="50" height="2" fill="#FFFFFF" opacity="0.424" /><rect x="1161" y="2142" width="2" height="50" fill="#FFFFFF" opacity="0.424" /><rect x="1702" y="1583" width="46" height="2" fill="#FFFFFF" opacity="0.355" /><rect x="1724" y="1561" width="2" height="46" fill="#FFFFFF" opacity="0.355" /><rect x="1631" y="1594" width="72" height="2" fill="#FFFFFF" opacity="0.771" /><rect x="1666" y="1559" width="2" height="72" fill="#FFFFFF" opacity="0.771" /><rect x="439" y="1358" width="46" height="2" fill="#FFFFFF" opacity="0.462" /><rect x="461" y="1336" width="2" height="46" fill="#FFFFFF" opacity="0.462" /><rect x="862" y="2024" width="58" height="2" fill="#FFFFFF" opacity="0.687" /><rect x="890" y="1996" width="2" height="58" fill="#FFFFFF" opacity="0.687" /><rect x="1319" y="2142" width="68" height="2" fill="#FFFFFF" opacity="0.371" /><rect x="1352" y="2109" width="2" height="68" fill="#FFFFFF" opacity="0.371" /><rect x="1663" y="1097" width="50" height="2" fill="#FFFFFF" opacity="0.766" /><rect x="1687" y="1073" width="2" height="50" fill="#FFFFFF" opacity="0.766" /></g>
  <g opacity="0.52"><path d="M996 1006 L2148 1006 L2148 2158 L996 2158 Z" fill="none" stroke="#0C2030" stroke-width="90" /><path d="M996 1582 L2148 1582" stroke="#0C2030" stroke-width="90" /><path d="M1572 1006 L1572 2158" stroke="#0C2030" stroke-width="90" /></g>
  <g filter="url(#soft1019)"><path d="M960 960 L2112 960 L2112 2112 L960 2112 Z" fill="none" stroke="url(#symbol1019)" stroke-width="90" /><path d="M960 1536 L2112 1536" stroke="url(#symbol1019)" stroke-width="90" /><path d="M1536 960 L1536 2112" stroke="url(#symbol1019)" stroke-width="90" /></g>
  <rect x="138" y="138" width="2796" height="2796" rx="629" fill="#FFFFFF" filter="url(#grain1019)" opacity="0.18" />
</svg>
