<svg xmlns="http://www.w3.org/2000/svg" width="3072" height="3072" viewBox="0 0 3072 3072">
  <title>QuartzOS System Icon 116 - privacy_06</title>
  <defs><linearGradient id="bg1115" x1="0%" y1="0%" x2="100%" y2="100%"><stop offset="0%" stop-color="#8A5CFF" /><stop offset="26%" stop-color="#FF9F43" /><stop offset="56%" stop-color="#53E3A6" /><stop offset="78%" stop-color="#4BA7D0" /><stop offset="100%" stop-color="#122A3D" /></linearGradient><radialGradient id="sun1115" cx="47%" cy="25%" r="88%"><stop offset="0%" stop-color="#FFFFFF" stop-opacity="0.62" /><stop offset="30%" stop-color="#36D1FF" stop-opacity="0.35" /><stop offset="100%" stop-color="#36D1FF" stop-opacity="0" /></radialGradient><linearGradient id="glass1115" x1="0%" y1="0%" x2="0%" y2="100%"><stop offset="0%" stop-color="#FFFFFF" stop-opacity="0.70" /><stop offset="46%" stop-color="#FFFFFF" stop-opacity="0.26" /><stop offset="100%" stop-color="#FFFFFF" stop-opacity="0.00" /></linearGradient><linearGradient id="ribbon1115" x1="0%" y1="0%" x2="100%" y2="0%"><stop offset="0%" stop-color="#8A5CFF" stop-opacity="0.18" /><stop offset="34%" stop-color="#FF9F43" stop-opacity="0.72" /><stop offset="66%" stop-color="#53E3A6" stop-opacity="0.72" /><stop offset="100%" stop-color="#36D1FF" stop-opacity="0.18" /></linearGradient><radialGradient id="orb1115" cx="34%" cy="27%" r="74%"><stop offset="0%" stop-color="#FFFFFF" stop-opacity="0.84" /><stop offset="30%" stop-color="#8A5CFF" stop-opacity="0.52" /><stop offset="68%" stop-color="#FF9F43" stop-opacity="0.42" /><stop offset="100%" stop-color="#53E3A6" stop-opacity="0.20" /></radialGradient><linearGradient id="extrude1115" x1="0%" y1="0%" x2="0%" y2="100%"><stop offset="0%" stop-color="#15283C" stop-opacity="0.45" /><stop offset="100%" stop-color="#08131D" stop-opacity="0.06" /></linearGradient><linearGradient id="symbol1115" x1="0%" y1="0%" x2="100%" y2="100%"><stop offset="0%" stop-color="#FFFFFF" /><stop offset="100%" stop-color="#36D1FF" /></linearGradient><filter id="shadow1115" x="-40%" y="-40%" width="180%" height="180%"><feDropShadow dx="0" dy="49" stdDeviation="86" flood-color="#06111A" flood-opacity="0.54" /></filter><filter id="soft1115" x="-40%" y="-40%" width="180%" height="180%"><feDropShadow dx="0" dy="0" stdDeviation="14" flood-color="#8A5CFF" flood-opacity="0.45" /></filter><filter id="grain1115"><feTurbulence type="fractalNoise" baseFrequency="0.833" numOctaves="2" seed="1115" /><feColorMatrix type="saturate" values="0" /><feComponentTransfer><feFuncA type="table" tableValues="0 0.09" /></feComponentTransfer></filter></defs>
  <rect x="138" y="138" width="2796" height="2796" rx="629" fill="url(#bg1115)" filter="url(#shadow1115)" />
  <rect x="138" y="138" width="2796" height="2796" rx="629" fill="url(#sun1115)" />
  <g><circle cx="2236" cy="1795" r="85" fill="#FFFFFF" opacity="0.175" /><circle cx="2657" cy="1886" r="149" fill="#FFFFFF" opacity="0.113" /><circle cx="1550" cy="2432" r="119" fill="#FFFFFF" opacity="0.078" /><circle cx="2541" cy="484" r="59" fill="#FFFFFF" opacity="0.212" /><circle cx="1374" cy="1759" r="65" fill="#FFFFFF" opacity="0.148" /><circle cx="792" cy="984" r="141" fill="#FFFFFF" opacity="0.109" /><circle cx="963" cy="1458" r="103" fill="#FFFFFF" opacity="0.071" /><circle cx="2412" cy="1392" r="129" fill="#FFFFFF" opacity="0.112" /><circle cx="628" cy="2175" r="137" fill="#FFFFFF" opacity="0.087" /><circle cx="1134" cy="853" r="128" fill="#FFFFFF" opacity="0.236" /><circle cx="2661" cy="1621" r="119" fill="#FFFFFF" opacity="0.209" /><circle cx="1734" cy="2616" r="134" fill="#FFFFFF" opacity="0.203" /><circle cx="2500" cy="1198" r="50" fill="#FFFFFF" opacity="0.173" /><circle cx="2219" cy="1569" r="80" fill="#FFFFFF" opacity="0.155" /><circle cx="459" cy="2005" r="137" fill="#FFFFFF" opacity="0.120" /><circle cx="1248" cy="1882" r="45" fill="#FFFFFF" opacity="0.128" /><circle cx="1349" cy="2174" r="126" fill="#FFFFFF" opacity="0.205" /><circle cx="461" cy="2444" r="132" fill="#FFFFFF" opacity="0.075" /><circle cx="1991" cy="368" r="38" fill="#FFFFFF" opacity="0.227" /><circle cx="1686" cy="423" r="139" fill="#FFFFFF" opacity="0.078" /><circle cx="1633" cy="606" r="66" fill="#FFFFFF" opacity="0.156" /><circle cx="1387" cy="974" r="131" fill="#FFFFFF" opacity="0.218" /><circle cx="2592" cy="1679" r="152" fill="#FFFFFF" opacity="0.144" /><circle cx="1004" cy="1924" r="59" fill="#FFFFFF" opacity="0.088" /><circle cx="1125" cy="2278" r="94" fill="#FFFFFF" opacity="0.180" /><circle cx="522" cy="1381" r="44" fill="#FFFFFF" opacity="0.120" /><circle cx="1200" cy="2688" r="57" fill="#FFFFFF" opacity="0.121" /><circle cx="941" cy="1893" r="76" fill="#FFFFFF" opacity="0.227" /></g>
  <g><path d="M 181.0 638.8 L 2885.6 362.3 L 2885.6 792.1 L 181.0 1068.6 Z" fill="#FFFFFF" opacity="0.166" /><path d="M 316.4 878.4 L 2695.0 601.9 L 2695.0 1084.3 L 316.4 1360.7 Z" fill="#FFFFFF" opacity="0.091" /><path d="M 280.4 1140.0 L 2842.5 863.5 L 2842.5 1304.0 L 280.4 1580.5 Z" fill="#FFFFFF" opacity="0.225" /><path d="M 300.4 1356.1 L 2863.9 1079.7 L 2863.9 1550.8 L 300.4 1827.3 Z" fill="#FFFFFF" opacity="0.089" /><path d="M 291.3 1687.6 L 2742.1 1411.1 L 2742.1 1907.4 L 291.3 2183.9 Z" fill="#FFFFFF" opacity="0.141" /><path d="M 250.2 1898.7 L 2865.0 1622.2 L 2865.0 2116.4 L 250.2 2392.9 Z" fill="#FFFFFF" opacity="0.164" /><path d="M 261.8 2167.4 L 2736.9 1891.0 L 2736.9 2334.6 L 261.8 2611.0 Z" fill="#FFFFFF" opacity="0.156" /><path d="M 389.1 2458.8 L 2720.5 2182.3 L 2720.5 2623.9 L 389.1 2900.4 Z" fill="#FFFFFF" opacity="0.134" /></g>
  <g filter="url(#soft1115)"><g transform="rotate(-21.58 1536.0 1536.0)"><path d="M-368.6 501.3 C -225.8 520.4, -25.8 483.5, 107.5 552.6 C 250.4 558.9, 450.4 480.0, 583.7 551.8 C 726.5 552.0, 926.5 471.5, 1059.8 520.4 C 1202.7 513.5, 1402.7 490.3, 1536.0 477.4 C 1678.8 476.1, 1878.8 511.3, 2012.2 448.9 C 2155.0 432.7, 2355.0 543.7, 2488.3 452.2 C 2631.2 440.5, 2831.2 554.9, 2964.5 485.3 C 3107.3 481.3, 3307.3 518.9, 3440.6 528.1" fill="none" stroke="url(#ribbon1115)" stroke-width="58.4" stroke-linecap="round" stroke-opacity="0.120" /></g><g transform="rotate(-21.00 1536.0 1536.0)"><path d="M-368.6 734.8 C -241.7 727.0, -63.9 737.3, 54.6 774.8 C 181.6 788.4, 359.4 693.8, 477.9 797.0 C 604.8 783.8, 782.6 714.4, 901.1 781.5 C 1028.1 785.2, 1205.9 716.5, 1324.4 737.6 C 1451.3 738.7, 1629.1 733.1, 1747.6 692.1 C 1874.6 692.8, 2052.4 751.8, 2170.9 672.5 C 2297.9 665.7, 2475.6 798.3, 2594.1 690.6 C 2721.1 686.5, 2898.9 752.8, 3017.4 735.6 C 3144.4 735.5, 3322.1 734.0, 3440.6 780.1" fill="none" stroke="url(#ribbon1115)" stroke-width="54.4" stroke-linecap="round" stroke-opacity="0.146" /></g><g transform="rotate(-20.42 1536.0 1536.0)"><path d="M-368.6 969.3 C -254.4 906.4, -94.4 1014.2, 12.3 899.9 C 126.6 924.9, 286.6 1011.3, 393.2 921.9 C 507.5 910.0, 667.5 1017.1, 774.1 972.7 C 888.4 971.5, 1048.4 966.2, 1155.1 1021.4 C 1269.4 1029.8, 1429.3 929.7, 1536.0 1038.5 C 1650.3 1025.6, 1810.3 913.7, 1916.9 1013.6 C 2031.2 1026.5, 2191.2 923.7, 2297.9 961.8 C 2412.1 961.7, 2572.1 975.2, 2678.8 914.6 C 2793.1 933.5, 2953.1 1021.3, 3059.7 900.5 C 3174.0 892.6, 3334.0 1032.2, 3440.6 928.2" fill="none" stroke="url(#ribbon1115)" stroke-width="50.4" stroke-linecap="round" stroke-opacity="0.172" /></g><g transform="rotate(-19.84 1536.0 1536.0)"><path d="M-368.6 1113.5 C -264.8 1197.8, -119.3 1049.1, -22.3 1184.8 C 81.5 1179.1, 227.0 1037.3, 324.0 1143.3 C 427.8 1145.3, 573.3 1100.4, 670.3 1083.7 C 774.1 1088.4, 919.6 1148.6, 1016.6 1042.2 C 1120.4 1015.0, 1265.9 1195.5, 1362.9 1043.9 C 1466.7 1021.9, 1612.2 1160.5, 1709.1 1087.8 C 1813.0 1085.2, 1958.5 1125.7, 2055.4 1147.3 C 2159.3 1153.6, 2304.8 1094.2, 2401.7 1186.2 C 2505.6 1188.7, 2651.1 1071.9, 2748.0 1181.1 C 2851.9 1164.6, 2997.4 1088.7, 3094.3 1134.9 C 3198.2 1136.5, 3343.7 1090.2, 3440.6 1075.7" fill="none" stroke="url(#ribbon1115)" stroke-width="46.4" stroke-linecap="round" stroke-opacity="0.198" /></g><g transform="rotate(-19.26 1536.0 1536.0)"><path d="M-368.6 1325.2 C -273.4 1250.4, -140.1 1394.7, -51.2 1299.0 C 44.0 1295.7, 177.4 1335.4, 266.2 1363.8 C 361.5 1373.7, 494.8 1280.1, 583.7 1405.3 C 678.9 1410.9, 812.2 1250.5, 901.1 1398.2 C 996.4 1369.4, 1129.7 1270.4, 1218.6 1346.8 C 1313.8 1341.4, 1447.1 1315.5, 1536.0 1282.4 C 1631.2 1284.8, 1764.6 1362.4, 1853.4 1243.9 C 1948.7 1219.5, 2082.0 1406.4, 2170.9 1254.8 C 2266.1 1228.6, 2399.4 1403.0, 2488.3 1308.4 C 2583.6 1306.9, 2716.9 1337.6, 2805.8 1372.2 C 2901.0 1379.3, 3034.3 1272.3, 3123.2 1407.5 C 3218.4 1433.8, 3351.8 1296.8, 3440.6 1392.9" fill="none" stroke="url(#ribbon1115)" stroke-width="42.4" stroke-linecap="round" stroke-opacity="0.224" /></g><g transform="rotate(-18.68 1536.0 1536.0)"><path d="M-368.6 1499.8 C -225.8 1480.3, -25.8 1507.7, 107.5 1551.6 C 250.4 1547.5, 450.4 1481.0, 583.7 1589.2 C 726.5 1600.6, 926.5 1429.3, 1059.8 1572.6 C 1202.7 1548.9, 1402.7 1429.9, 1536.0 1511.8 C 1678.8 1511.6, 1878.8 1496.0, 2012.2 1443.8 C 2155.0 1448.4, 2355.0 1548.8, 2488.3 1409.7 C 2631.2 1415.7, 2831.2 1559.9, 2964.5 1430.2 C 3107.3 1429.1, 3307.3 1574.4, 3440.6 1493.0" fill="none" stroke="url(#ribbon1115)" stroke-width="38.4" stroke-linecap="round" stroke-opacity="0.250" /></g><g transform="rotate(-18.10 1536.0 1536.0)"><path d="M-368.6 1706.2 C -241.7 1704.7, -63.9 1707.7, 54.6 1634.5 C 181.6 1617.8, 359.4 1752.7, 477.9 1608.6 C 604.8 1611.6, 782.6 1760.5, 901.1 1641.9 C 1028.1 1665.8, 1205.9 1734.7, 1324.4 1714.2 C 1451.3 1716.7, 1629.1 1702.5, 1747.6 1781.6 C 1874.6 1778.3, 2052.4 1644.9, 2170.9 1803.3 C 2297.9 1841.5, 2475.6 1623.3, 2594.1 1766.0 C 2721.1 1772.0, 2898.9 1675.2, 3017.4 1692.5 C 3144.4 1695.6, 3322.1 1713.3, 3440.6 1627.3" fill="none" stroke="url(#ribbon1115)" stroke-width="34.4" stroke-linecap="round" stroke-opacity="0.276" /></g><g transform="rotate(-17.52 1536.0 1536.0)"><path d="M-368.6 1854.1 C -254.4 1883.2, -94.4 1838.1, 12.3 1800.4 C 126.6 1794.0, 286.6 1903.9, 393.2 1752.2 C 507.5 1718.9, 667.5 1963.0, 774.1 1765.8 C 888.4 1772.3, 1048.4 1909.5, 1155.1 1833.0 C 1269.4 1839.1, 1429.3 1875.6, 1536.0 1913.0 C 1650.3 1924.4, 1810.3 1812.1, 1916.9 1957.3 C 2031.2 1925.0, 2191.2 1792.5, 2297.9 1939.0 C 2412.1 1916.7, 2572.1 1821.6, 2678.8 1869.3 C 2793.1 1875.2, 2953.1 1847.7, 3059.7 1790.3 C 3174.0 1772.1, 3334.0 1876.8, 3440.6 1750.1" fill="none" stroke="url(#ribbon1115)" stroke-width="30.4" stroke-linecap="round" stroke-opacity="0.302" /></g><g transform="rotate(-16.94 1536.0 1536.0)"><path d="M-368.6 2025.1 C -264.8 2080.7, -119.3 1954.9, -22.3 2134.6 C 81.5 2101.4, 227.0 1906.5, 324.0 2117.7 C 427.8 2135.4, 573.3 1952.8, 670.3 2044.6 C 774.1 2042.1, 919.6 2011.5, 1016.6 1959.7 C 1120.4 1945.7, 1265.9 2052.6, 1362.9 1914.5 C 1466.7 1935.5, 1612.2 2092.5, 1709.1 1936.4 C 1813.0 1906.2, 1958.5 2103.7, 2055.4 2012.1 C 2159.3 2015.7, 2304.8 2031.4, 2401.7 2095.7 C 2505.6 2112.1, 2651.1 1990.2, 2748.0 2136.5 C 2851.9 2110.5, 2997.4 1987.1, 3094.3 2109.7 C 3198.2 2098.4, 3343.7 1964.9, 3440.6 2031.6" fill="none" stroke="url(#ribbon1115)" stroke-width="26.4" stroke-linecap="round" stroke-opacity="0.328" /></g><g transform="rotate(-16.36 1536.0 1536.0)"><path d="M-368.6 2207.1 C -273.4 2307.2, -140.1 2156.3, -51.2 2323.8 C 44.0 2286.7, 177.4 2100.5, 266.2 2271.9 C 361.5 2266.9, 494.8 2180.2, 583.7 2180.7 C 678.9 2178.3, 812.2 2220.8, 901.1 2105.6 C 996.4 2088.5, 1129.7 2322.2, 1218.6 2092.0 C 1313.8 2062.4, 1447.1 2249.0, 1536.0 2148.3 C 1631.2 2133.9, 1764.6 2232.3, 1853.4 2240.3 C 1948.7 2249.4, 2082.0 2177.3, 2170.9 2312.1 C 2266.1 2310.1, 2399.4 2155.4, 2488.3 2320.3 C 2583.6 2312.5, 2716.9 2085.7, 2805.8 2259.8 C 2901.0 2268.3, 3034.3 2156.1, 3123.2 2167.4 C 3218.4 2176.6, 3351.8 2246.0, 3440.6 2099.1" fill="none" stroke="url(#ribbon1115)" stroke-width="22.4" stroke-linecap="round" stroke-opacity="0.354" /></g><g transform="rotate(-15.78 1536.0 1536.0)"><path d="M-368.6 2480.2 C -225.8 2607.6, -25.8 2439.7, 107.5 2594.2 C 250.4 2601.4, 450.4 2369.5, 583.7 2521.2 C 726.5 2505.8, 926.5 2445.3, 1059.8 2423.3 C 1202.7 2411.1, 1402.7 2511.4, 1536.0 2360.0 C 1678.8 2375.0, 1878.8 2552.5, 2012.2 2369.5 C 2155.0 2357.0, 2355.0 2576.6, 2488.3 2446.2 C 2631.2 2438.5, 2831.2 2510.3, 2964.5 2543.6 C 3107.3 2526.6, 3307.3 2420.5, 3440.6 2602.4" fill="none" stroke="url(#ribbon1115)" stroke-width="18.4" stroke-linecap="round" stroke-opacity="0.380" /></g><g transform="rotate(-15.20 1536.0 1536.0)"><path d="M-368.6 2647.4 C -241.7 2808.7, -63.9 2490.7, 54.6 2737.3 C 181.6 2740.1, 359.4 2549.8, 477.9 2639.7 C 604.8 2641.0, 782.6 2652.6, 901.1 2546.8 C 1028.1 2558.3, 1205.9 2691.1, 1324.4 2514.9 C 1451.3 2565.6, 1629.1 2705.5, 1747.6 2563.3 C 1874.6 2570.3, 2052.4 2747.8, 2170.9 2662.8 C 2297.9 2657.8, 2475.6 2641.4, 2594.1 2752.9 C 2721.1 2769.3, 2898.9 2526.1, 3017.4 2779.0 C 3144.4 2804.5, 3322.1 2559.9, 3440.6 2725.2" fill="none" stroke="url(#ribbon1115)" stroke-width="14.4" stroke-linecap="round" stroke-opacity="0.406" /></g></g>
  <g><ellipse cx="1536.0" cy="1551.9" rx="728.6" ry="605.7" fill="url(#extrude1115)" opacity="0.220" /><ellipse cx="1536.0" cy="1567.7" rx="736.0" ry="610.9" fill="url(#extrude1115)" opacity="0.205" /><ellipse cx="1536.0" cy="1583.6" rx="743.4" ry="616.1" fill="url(#extrude1115)" opacity="0.190" /><ellipse cx="1536.0" cy="1599.5" rx="750.9" ry="621.3" fill="url(#extrude1115)" opacity="0.175" /><ellipse cx="1536.0" cy="1615.4" rx="758.3" ry="626.5" fill="url(#extrude1115)" opacity="0.160" /><ellipse cx="1536.0" cy="1631.2" rx="765.7" ry="631.7" fill="url(#extrude1115)" opacity="0.145" /><ellipse cx="1536.0" cy="1647.1" rx="773.2" ry="636.9" fill="url(#extrude1115)" opacity="0.130" /><ellipse cx="1536.0" cy="1663.0" rx="780.6" ry="642.1" fill="url(#extrude1115)" opacity="0.115" /><ellipse cx="1536.0" cy="1678.8" rx="788.0" ry="647.4" fill="url(#extrude1115)" opacity="0.100" /><ellipse cx="1536.0" cy="1694.7" rx="795.5" ry="652.6" fill="url(#extrude1115)" opacity="0.085" /><ellipse cx="1536.0" cy="1710.6" rx="802.9" ry="657.8" fill="url(#extrude1115)" opacity="0.070" /><ellipse cx="1536.0" cy="1726.5" rx="810.3" ry="663.0" fill="url(#extrude1115)" opacity="0.055" /></g>
  <ellipse cx="1536.0" cy="1726.5" rx="773.2" ry="214.9" fill="#0B1D2D" opacity="0.24" />
  <ellipse cx="1536.0" cy="1536.0" rx="743.4" ry="651.3" fill="url(#orb1115)" stroke="#FFFFFF" stroke-opacity="0.42" stroke-width="7" />
  <ellipse cx="1431.9" cy="1392.7" rx="505.5" ry="299.6" fill="#FFFFFF" opacity="0.25" />
  <path d="M 199.4 399.4 C 1013.8 -30.7, 2058.2 768.0, 2872.6 215.0 L 2872.6 983.0 C 2089.0 1228.8, 1013.8 307.2, 199.4 1167.4 Z" fill="url(#glass1115)" />
  <rect x="270" y="270" width="2532" height="2532" rx="430" fill="none" stroke="#FFFFFF" stroke-opacity="0.30" stroke-width="5" />
  <rect x="288.4" y="288.4" width="2495.1" height="2495.1" rx="399" fill="none" stroke="#8A5CFF" stroke-opacity="0.35" stroke-width="3" />
  <g filter="url(#soft1115)"><rect x="407" y="1217" width="34" height="2" fill="#FFFFFF" opacity="0.683" /><rect x="423" y="1201" width="2" height="34" fill="#FFFFFF" opacity="0.683" /><rect x="1022" y="2077" width="34" height="2" fill="#FFFFFF" opacity="0.396" /><rect x="1038" y="2061" width="2" height="34" fill="#FFFFFF" opacity="0.396" /><rect x="1180" y="2278" width="52" height="2" fill="#FFFFFF" opacity="0.394" /><rect x="1205" y="2253" width="2" height="52" fill="#FFFFFF" opacity="0.394" /><rect x="2672" y="657" width="66" height="2" fill="#FFFFFF" opacity="0.729" /><rect x="2704" y="625" width="2" height="66" fill="#FFFFFF" opacity="0.729" /><rect x="352" y="2680" width="50" height="2" fill="#FFFFFF" opacity="0.600" /><rect x="376" y="2656" width="2" height="50" fill="#FFFFFF" opacity="0.600" /><rect x="1342" y="1996" width="58" height="2" fill="#FFFFFF" opacity="0.519" /><rect x="1370" y="1968" width="2" height="58" fill="#FFFFFF" opacity="0.519" /><rect x="1062" y="2493" width="80" height="2" fill="#FFFFFF" opacity="0.469" /><rect x="1101" y="2454" width="2" height="80" fill="#FFFFFF" opacity="0.469" /><rect x="1261" y="1687" width="38" height="2" fill="#FFFFFF" opacity="0.488" /><rect x="1279" y="1669" width="2" height="38" fill="#FFFFFF" opacity="0.488" /><rect x="2337" y="524" width="52" height="2" fill="#FFFFFF" opacity="0.352" /><rect x="2362" y="499" width="2" height="52" fill="#FFFFFF" opacity="0.352" /><rect x="1623" y="1987" width="40" height="2" fill="#FFFFFF" opacity="0.671" /><rect x="1642" y="1968" width="2" height="40" fill="#FFFFFF" opacity="0.671" /><rect x="1069" y="1866" width="38" height="2" fill="#FFFFFF" opacity="0.695" /><rect x="1087" y="1848" width="2" height="38" fill="#FFFFFF" opacity="0.695" /><rect x="1968" y="859" width="74" height="2" fill="#FFFFFF" opacity="0.370" /><rect x="2004" y="823" width="2" height="74" fill="#FFFFFF" opacity="0.370" /><rect x="1964" y="2290" width="60" height="2" fill="#FFFFFF" opacity="0.562" /><rect x="1993" y="2261" width="2" height="60" fill="#FFFFFF" opacity="0.562" /><rect x="2685" y="698" width="62" height="2" fill="#FFFFFF" opacity="0.473" /><rect x="2715" y="668" width="2" height="62" fill="#FFFFFF" opacity="0.473" /><rect x="2362" y="2406" width="82" height="2" fill="#FFFFFF" opacity="0.732" /><rect x="2402" y="2366" width="2" height="82" fill="#FFFFFF" opacity="0.732" /><rect x="499" y="1463" width="58" height="2" fill="#FFFFFF" opacity="0.459" /><rect x="527" y="1435" width="2" height="58" fill="#FFFFFF" opacity="0.459" /><rect x="2367" y="1186" width="64" height="2" fill="#FFFFFF" opacity="0.376" /><rect x="2398" y="1155" width="2" height="64" fill="#FFFFFF" opacity="0.376" /><rect x="1952" y="904" width="72" height="2" fill="#FFFFFF" opacity="0.516" /><rect x="1987" y="869" width="2" height="72" fill="#FFFFFF" opacity="0.516" /><rect x="2510" y="1626" width="82" height="2" fill="#FFFFFF" opacity="0.496" /><rect x="2550" y="1586" width="2" height="82" fill="#FFFFFF" opacity="0.496" /><rect x="1680" y="1863" width="56" height="2" fill="#FFFFFF" opacity="0.527" /><rect x="1707" y="1836" width="2" height="56" fill="#FFFFFF" opacity="0.527" /><rect x="1758" y="803" width="66" height="2" fill="#FFFFFF" opacity="0.390" /><rect x="1790" y="771" width="2" height="66" fill="#FFFFFF" opacity="0.390" /><rect x="1094" y="1477" width="36" height="2" fill="#FFFFFF" opacity="0.339" /><rect x="1111" y="1460" width="2" height="36" fill="#FFFFFF" opacity="0.339" /><rect x="454" y="2148" width="78" height="2" fill="#FFFFFF" opacity="0.338" /><rect x="492" y="2110" width="2" height="78" fill="#FFFFFF" opacity="0.338" /><rect x="2114" y="2578" width="52" height="2" fill="#FFFFFF" opacity="0.748" /><rect x="2139" y="2553" width="2" height="52" fill="#FFFFFF" opacity="0.748" /><rect x="1160" y="2047" width="42" height="2" fill="#FFFFFF" opacity="0.614" /><rect x="1180" y="2027" width="2" height="42" fill="#FFFFFF" opacity="0.614" /><rect x="1092" y="1948" width="42" height="2" fill="#FFFFFF" opacity="0.800" /><rect x="1112" y="1928" width="2" height="42" fill="#FFFFFF" opacity="0.800" /></g>
  <g opacity="0.52"><path d="M996 1006 L2148 1006 L2148 2158 L996 2158 Z" fill="none" stroke="#0C2030" stroke-width="90" /><path d="M996 1582 L2148 1582" stroke="#0C2030" stroke-width="90" /><path d="M1572 1006 L1572 2158" stroke="#0C2030" stroke-width="90" /></g>
  <g filter="url(#soft1115)"><path d="M960 960 L2112 960 L2112 2112 L960 2112 Z" fill="none" stroke="url(#symbol1115)" stroke-width="90" /><path d="M960 1536 L2112 1536" stroke="url(#symbol1115)" stroke-width="90" /><path d="M1536 960 L1536 2112" stroke="url(#symbol1115)" stroke-width="90" /></g>
  <rect x="138" y="138" width="2796" height="2796" rx="629" fill="#FFFFFF" filter="url(#grain1115)" opacity="0.18" />
</svg>
