<svg xmlns="http://www.w3.org/2000/svg" width="3072" height="3072" viewBox="0 0 3072 3072">
  <title>QuartzOS System Icon 016 - privacy_01</title>
  <defs><linearGradient id="bg1015" x1="0%" y1="0%" x2="100%" y2="100%"><stop offset="0%" stop-color="#36D1FF" /><stop offset="26%" stop-color="#8A5CFF" /><stop offset="56%" stop-color="#FF9F43" /><stop offset="78%" stop-color="#9A6BB4" /><stop offset="100%" stop-color="#271E2A" /></linearGradient><radialGradient id="sun1015" cx="32%" cy="22%" r="88%"><stop offset="0%" stop-color="#FFFFFF" stop-opacity="0.62" /><stop offset="30%" stop-color="#FFD84D" stop-opacity="0.35" /><stop offset="100%" stop-color="#FFD84D" stop-opacity="0" /></radialGradient><linearGradient id="glass1015" x1="0%" y1="0%" x2="0%" y2="100%"><stop offset="0%" stop-color="#FFFFFF" stop-opacity="0.70" /><stop offset="46%" stop-color="#FFFFFF" stop-opacity="0.26" /><stop offset="100%" stop-color="#FFFFFF" stop-opacity="0.00" /></linearGradient><linearGradient id="ribbon1015" x1="0%" y1="0%" x2="100%" y2="0%"><stop offset="0%" stop-color="#36D1FF" stop-opacity="0.18" /><stop offset="34%" stop-color="#8A5CFF" stop-opacity="0.72" /><stop offset="66%" stop-color="#FF9F43" stop-opacity="0.72" /><stop offset="100%" stop-color="#FFD84D" stop-opacity="0.18" /></linearGradient><radialGradient id="orb1015" cx="34%" cy="27%" r="74%"><stop offset="0%" stop-color="#FFFFFF" stop-opacity="0.84" /><stop offset="30%" stop-color="#36D1FF" stop-opacity="0.52" /><stop offset="68%" stop-color="#8A5CFF" stop-opacity="0.42" /><stop offset="100%" stop-color="#FF9F43" stop-opacity="0.20" /></radialGradient><linearGradient id="extrude1015" x1="0%" y1="0%" x2="0%" y2="100%"><stop offset="0%" stop-color="#15283C" stop-opacity="0.45" /><stop offset="100%" stop-color="#08131D" stop-opacity="0.06" /></linearGradient><linearGradient id="symbol1015" x1="0%" y1="0%" x2="100%" y2="100%"><stop offset="0%" stop-color="#FFFFFF" /><stop offset="100%" stop-color="#FFD84D" /></linearGradient><filter id="shadow1015" x="-40%" y="-40%" width="180%" height="180%"><feDropShadow dx="0" dy="49" stdDeviation="86" flood-color="#06111A" flood-opacity="0.54" /></filter><filter id="soft1015" x="-40%" y="-40%" width="180%" height="180%"><feDropShadow dx="0" dy="0" stdDeviation="14" flood-color="#36D1FF" flood-opacity="0.45" /></filter><filter id="grain1015"><feTurbulence type="fractalNoise" baseFrequency="0.744" numOctaves="2" seed="1015" /><feColorMatrix type="saturate" values="0" /><feComponentTransfer><feFuncA type="table" tableValues="0 0.09" /></feComponentTransfer></filter></defs>
  <rect x="138" y="138" width="2796" height="2796" rx="629" fill="url(#bg1015)" filter="url(#shadow1015)" />
  <rect x="138" y="138" width="2796" height="2796" rx="629" fill="url(#sun1015)" />
  <g><circle cx="2453" cy="637" r="97" fill="#FFFFFF" opacity="0.206" /><circle cx="2199" cy="1927" r="73" fill="#FFFFFF" opacity="0.183" /><circle cx="878" cy="503" r="136" fill="#FFFFFF" opacity="0.231" /><circle cx="2673" cy="2187" r="68" fill="#FFFFFF" opacity="0.121" /><circle cx="694" cy="1674" r="120" fill="#FFFFFF" opacity="0.160" /><circle cx="1526" cy="2095" r="55" fill="#FFFFFF" opacity="0.112" /><circle cx="1802" cy="1876" r="46" fill="#FFFFFF" opacity="0.207" /><circle cx="2197" cy="448" r="73" fill="#FFFFFF" opacity="0.113" /><circle cx="2407" cy="685" r="142" fill="#FFFFFF" opacity="0.091" /><circle cx="644" cy="922" r="140" fill="#FFFFFF" opacity="0.132" /><circle cx="754" cy="1137" r="96" fill="#FFFFFF" opacity="0.094" /><circle cx="2613" cy="589" r="92" fill="#FFFFFF" opacity="0.174" /><circle cx="1098" cy="713" r="53" fill="#FFFFFF" opacity="0.146" /><circle cx="796" cy="1337" r="66" fill="#FFFFFF" opacity="0.183" /><circle cx="557" cy="440" r="43" fill="#FFFFFF" opacity="0.192" /><circle cx="565" cy="1078" r="50" fill="#FFFFFF" opacity="0.190" /><circle cx="1210" cy="965" r="71" fill="#FFFFFF" opacity="0.199" /><circle cx="920" cy="677" r="78" fill="#FFFFFF" opacity="0.099" /><circle cx="744" cy="2372" r="115" fill="#FFFFFF" opacity="0.179" /><circle cx="676" cy="2649" r="95" fill="#FFFFFF" opacity="0.215" /><circle cx="1342" cy="556" r="47" fill="#FFFFFF" opacity="0.227" /><circle cx="1879" cy="1614" r="111" fill="#FFFFFF" opacity="0.154" /><circle cx="1790" cy="1716" r="73" fill="#FFFFFF" opacity="0.201" /><circle cx="1109" cy="2463" r="141" fill="#FFFFFF" opacity="0.116" /><circle cx="817" cy="2255" r="118" fill="#FFFFFF" opacity="0.142" /><circle cx="1357" cy="1526" r="70" fill="#FFFFFF" opacity="0.175" /><circle cx="2339" cy="1177" r="101" fill="#FFFFFF" opacity="0.159" /><circle cx="2460" cy="2645" r="157" fill="#FFFFFF" opacity="0.132" /></g>
  <g><path d="M 305.5 616.0 L 2862.0 339.6 L 2862.0 799.5 L 305.5 1075.9 Z" fill="#FFFFFF" opacity="0.084" /><path d="M 310.3 857.4 L 2723.5 580.9 L 2723.5 1023.7 L 310.3 1300.2 Z" fill="#FFFFFF" opacity="0.109" /><path d="M 184.1 1146.7 L 2920.4 870.3 L 2920.4 1346.0 L 184.1 1622.5 Z" fill="#FFFFFF" opacity="0.134" /><path d="M 186.3 1402.8 L 2799.5 1126.3 L 2799.5 1544.8 L 186.3 1821.3 Z" fill="#FFFFFF" opacity="0.095" /><path d="M 171.9 1628.3 L 2798.9 1351.8 L 2798.9 1802.7 L 171.9 2079.2 Z" fill="#FFFFFF" opacity="0.129" /><path d="M 381.1 1917.9 L 2811.6 1641.4 L 2811.6 2087.6 L 381.1 2364.1 Z" fill="#FFFFFF" opacity="0.219" /><path d="M 242.3 2176.5 L 2834.3 1900.0 L 2834.3 2354.0 L 242.3 2630.4 Z" fill="#FFFFFF" opacity="0.142" /><path d="M 307.5 2478.7 L 2815.1 2202.2 L 2815.1 2633.2 L 307.5 2909.7 Z" fill="#FFFFFF" opacity="0.129" /></g>
  <g filter="url(#soft1015)"><g transform="rotate(-8.75 1536.0 1536.0)"><path d="M-368.6 542.3 C -225.8 587.5, -25.8 517.9, 107.5 549.4 C 250.4 551.5, 450.4 538.9, 583.7 507.9 C 726.5 501.5, 926.5 552.9, 1059.8 487.3 C 1202.7 491.3, 1402.7 578.1, 1536.0 500.1 C 1678.8 497.7, 1878.8 561.1, 2012.2 538.5 C 2155.0 539.0, 2355.0 544.0, 2488.3 579.2 C 2631.2 581.6, 2831.2 528.2, 2964.5 597.6 C 3107.3 607.3, 3307.3 509.0, 3440.6 582.4" fill="none" stroke="url(#ribbon1015)" stroke-width="58.4" stroke-linecap="round" stroke-opacity="0.120" /></g><g transform="rotate(-8.17 1536.0 1536.0)"><path d="M-368.6 755.5 C -241.7 814.8, -63.9 729.1, 54.6 777.9 C 181.6 782.1, 359.4 734.1, 477.9 729.4 C 604.8 727.7, 782.6 772.5, 901.1 696.7 C 1028.1 688.3, 1205.9 777.2, 1324.4 699.7 C 1451.3 686.9, 1629.1 781.5, 1747.6 736.6 C 1874.6 732.0, 2052.4 777.9, 2170.9 784.9 C 2297.9 790.6, 2475.6 734.3, 2594.1 815.5 C 2721.1 797.1, 2898.9 731.1, 3017.4 809.6 C 3144.4 812.0, 3322.1 694.2, 3440.6 771.0" fill="none" stroke="url(#ribbon1015)" stroke-width="54.4" stroke-linecap="round" stroke-opacity="0.146" /></g><g transform="rotate(-7.59 1536.0 1536.0)"><path d="M-368.6 956.9 C -254.4 976.8, -94.4 921.9, 12.3 933.1 C 126.6 927.6, 286.6 970.4, 393.2 893.5 C 507.5 902.6, 667.5 1016.8, 774.1 892.4 C 888.4 896.2, 1048.4 987.7, 1155.1 930.4 C 1269.4 930.5, 1429.3 980.6, 1536.0 984.5 C 1650.3 976.2, 1810.3 941.7, 1916.9 1021.8 C 2031.2 997.8, 2191.2 919.5, 2297.9 1019.8 C 2412.1 1000.3, 2572.1 896.6, 2678.8 979.6 C 2793.1 979.0, 2953.1 946.6, 3059.7 925.6 C 3174.0 924.8, 3334.0 967.4, 3440.6 890.7" fill="none" stroke="url(#ribbon1015)" stroke-width="50.4" stroke-linecap="round" stroke-opacity="0.172" /></g><g transform="rotate(-7.01 1536.0 1536.0)"><path d="M-368.6 1058.3 C -264.8 1125.2, -119.3 1022.5, -22.3 1134.8 C 81.5 1105.1, 227.0 1002.0, 324.0 1112.8 C 427.8 1119.5, 573.3 1036.6, 670.3 1057.8 C 774.1 1058.0, 919.6 1058.8, 1016.6 1003.1 C 1120.4 989.0, 1265.9 1078.7, 1362.9 981.9 C 1466.7 990.1, 1612.2 1145.7, 1709.1 1007.0 C 1813.0 1000.2, 1958.5 1104.6, 2055.4 1063.3 C 2159.3 1064.1, 2304.8 1056.7, 2401.7 1116.5 C 2505.6 1117.1, 2651.1 1036.9, 2748.0 1134.5 C 2851.9 1110.8, 2997.4 1002.2, 3094.3 1106.2 C 3198.2 1112.8, 3343.7 1024.0, 3440.6 1048.9" fill="none" stroke="url(#ribbon1015)" stroke-width="46.4" stroke-linecap="round" stroke-opacity="0.198" /></g><g transform="rotate(-6.43 1536.0 1536.0)"><path d="M-368.6 1299.7 C -273.4 1189.4, -140.1 1361.7, -51.2 1258.9 C 44.0 1244.2, 177.4 1321.8, 266.2 1323.6 C 361.5 1316.6, 494.8 1281.9, 583.7 1373.8 C 678.9 1366.5, 812.2 1230.4, 901.1 1379.1 C 996.4 1404.5, 1129.7 1272.1, 1218.6 1336.2 C 1313.8 1350.3, 1447.1 1272.5, 1536.0 1271.2 C 1631.2 1274.2, 1764.6 1322.6, 1853.4 1223.5 C 1948.7 1249.0, 2082.0 1386.9, 2170.9 1222.0 C 2266.1 1247.0, 2399.4 1361.8, 2488.3 1267.7 C 2583.6 1266.0, 2716.9 1327.8, 2805.8 1332.8 C 2901.0 1323.0, 3034.3 1272.4, 3123.2 1377.8 C 3218.4 1400.9, 3351.8 1258.8, 3440.6 1375.5" fill="none" stroke="url(#ribbon1015)" stroke-width="42.4" stroke-linecap="round" stroke-opacity="0.224" /></g><g transform="rotate(-5.85 1536.0 1536.0)"><path d="M-368.6 1509.9 C -225.8 1430.9, -25.8 1586.0, 107.5 1419.4 C 250.4 1440.0, 450.4 1600.4, 583.7 1449.8 C 726.5 1458.1, 926.5 1551.0, 1059.8 1516.6 C 1202.7 1516.5, 1402.7 1502.4, 1536.0 1579.4 C 1678.8 1565.8, 1878.8 1472.2, 2012.2 1600.1 C 2155.0 1576.2, 2355.0 1435.2, 2488.3 1566.1 C 2631.2 1584.8, 2831.2 1493.0, 2964.5 1498.0 C 3107.3 1496.6, 3307.3 1515.9, 3440.6 1437.2" fill="none" stroke="url(#ribbon1015)" stroke-width="38.4" stroke-linecap="round" stroke-opacity="0.250" /></g><g transform="rotate(-5.27 1536.0 1536.0)"><path d="M-368.6 1625.2 C -241.7 1680.7, -63.9 1559.4, 54.6 1715.8 C 181.6 1683.9, 359.4 1572.8, 477.9 1662.0 C 604.8 1649.1, 782.6 1600.3, 901.1 1586.0 C 1028.1 1590.9, 1205.9 1652.9, 1324.4 1533.7 C 1451.3 1560.6, 1629.1 1697.3, 1747.6 1536.9 C 1874.6 1517.4, 2052.4 1717.0, 2170.9 1593.7 C 2297.9 1582.0, 2475.6 1640.8, 2594.1 1669.6 C 2721.1 1669.2, 2898.9 1581.2, 3017.4 1718.6 C 3144.4 1682.8, 3322.1 1526.6, 3440.6 1710.9" fill="none" stroke="url(#ribbon1015)" stroke-width="34.4" stroke-linecap="round" stroke-opacity="0.276" /></g><g transform="rotate(-4.69 1536.0 1536.0)"><path d="M-368.6 1925.5 C -254.4 1822.5, -94.4 2013.6, 12.3 1894.7 C 126.6 1882.7, 286.6 1958.2, 393.2 1975.9 C 507.5 1969.7, 667.5 1879.5, 774.1 2026.5 C 888.4 2051.7, 1048.4 1859.2, 1155.1 2015.8 C 1269.4 1984.4, 1429.3 1835.5, 1536.0 1950.3 C 1650.3 1948.7, 1810.3 1900.1, 1916.9 1869.8 C 2031.2 1852.3, 2191.2 1972.6, 2297.9 1823.0 C 2412.1 1795.7, 2572.1 2020.1, 2678.8 1838.4 C 2793.1 1816.7, 2953.1 1965.3, 3059.7 1906.6 C 3174.0 1902.8, 3334.0 1945.2, 3440.6 1986.2" fill="none" stroke="url(#ribbon1015)" stroke-width="30.4" stroke-linecap="round" stroke-opacity="0.302" /></g><g transform="rotate(-4.11 1536.0 1536.0)"><path d="M-368.6 2086.9 C -264.8 2159.0, -119.3 1997.2, -22.3 2165.0 C 81.5 2182.5, 227.0 2018.1, 324.0 2083.9 C 427.8 2084.4, 573.3 2088.5, 670.3 2004.6 C 774.1 1980.6, 919.6 2183.5, 1016.6 1975.3 C 1120.4 1946.3, 1265.9 2164.4, 1362.9 2013.7 C 1466.7 2033.6, 1612.2 2151.5, 1709.1 2096.5 C 1813.0 2093.9, 1958.5 2077.5, 2055.4 2173.5 C 2159.3 2165.5, 2304.8 2035.6, 2401.7 2198.0 C 2505.6 2221.0, 2651.1 1993.4, 2748.0 2155.1 C 2851.9 2149.5, 2997.4 2005.6, 3094.3 2070.8 C 3198.2 2073.0, 3343.7 2094.5, 3440.6 1996.3" fill="none" stroke="url(#ribbon1015)" stroke-width="26.4" stroke-linecap="round" stroke-opacity="0.328" /></g><g transform="rotate(-3.53 1536.0 1536.0)"><path d="M-368.6 2295.5 C -273.4 2379.8, -140.1 2204.4, -51.2 2315.9 C 44.0 2311.3, 177.4 2283.9, 266.2 2225.7 C 361.5 2239.3, 494.8 2336.8, 583.7 2177.8 C 678.9 2167.2, 812.2 2396.2, 901.1 2201.2 C 996.4 2165.7, 1129.7 2373.6, 1218.6 2281.8 C 1313.8 2279.4, 1447.1 2301.8, 1536.0 2370.7 C 1631.2 2343.0, 1764.6 2256.8, 1853.4 2413.9 C 1948.7 2370.5, 2082.0 2239.5, 2170.9 2385.3 C 2266.1 2410.8, 2399.4 2225.2, 2488.3 2302.1 C 2583.6 2302.5, 2716.9 2291.1, 2805.8 2215.0 C 2901.0 2236.3, 3034.3 2380.2, 3123.2 2176.6 C 3218.4 2222.1, 3351.8 2361.8, 3440.6 2210.3" fill="none" stroke="url(#ribbon1015)" stroke-width="22.4" stroke-linecap="round" stroke-opacity="0.354" /></g><g transform="rotate(-2.95 1536.0 1536.0)"><path d="M-368.6 2407.3 C -225.8 2330.0, -25.8 2499.8, 107.5 2285.5 C 250.4 2255.1, 450.4 2526.5, 583.7 2345.6 C 726.5 2324.9, 926.5 2471.5, 1059.8 2443.1 C 1202.7 2445.5, 1402.7 2372.1, 1536.0 2518.8 C 1678.8 2555.1, 1878.8 2355.8, 2012.2 2526.9 C 2155.0 2544.6, 2355.0 2312.0, 2488.3 2462.4 C 2631.2 2443.2, 2831.2 2353.1, 2964.5 2364.5 C 3107.3 2366.9, 3307.3 2434.3, 3440.6 2292.5" fill="none" stroke="url(#ribbon1015)" stroke-width="18.4" stroke-linecap="round" stroke-opacity="0.380" /></g><g transform="rotate(-2.37 1536.0 1536.0)"><path d="M-368.6 2673.9 C -241.7 2640.6, -63.9 2690.7, 54.6 2557.9 C 181.6 2570.4, 359.4 2732.8, 477.9 2546.4 C 604.8 2509.2, 782.6 2737.7, 901.1 2612.3 C 1028.1 2631.5, 1205.9 2726.1, 1324.4 2715.6 C 1451.3 2725.5, 1629.1 2624.6, 1747.6 2793.6 C 1874.6 2746.5, 2052.4 2581.0, 2170.9 2799.0 C 2297.9 2827.2, 2475.6 2529.1, 2594.1 2728.5 C 2721.1 2710.1, 2898.9 2616.0, 3017.4 2625.0 C 3144.4 2612.7, 3322.1 2710.3, 3440.6 2551.1" fill="none" stroke="url(#ribbon1015)" stroke-width="14.4" stroke-linecap="round" stroke-opacity="0.406" /></g></g>
  <g><ellipse cx="1536.0" cy="1551.9" rx="728.6" ry="605.7" fill="url(#extrude1015)" opacity="0.220" /><ellipse cx="1536.0" cy="1567.7" rx="736.0" ry="610.9" fill="url(#extrude1015)" opacity="0.205" /><ellipse cx="1536.0" cy="1583.6" rx="743.4" ry="616.1" fill="url(#extrude1015)" opacity="0.190" /><ellipse cx="1536.0" cy="1599.5" rx="750.9" ry="621.3" fill="url(#extrude1015)" opacity="0.175" /><ellipse cx="1536.0" cy="1615.4" rx="758.3" ry="626.5" fill="url(#extrude1015)" opacity="0.160" /><ellipse cx="1536.0" cy="1631.2" rx="765.7" ry="631.7" fill="url(#extrude1015)" opacity="0.145" /><ellipse cx="1536.0" cy="1647.1" rx="773.2" ry="636.9" fill="url(#extrude1015)" opacity="0.130" /><ellipse cx="1536.0" cy="1663.0" rx="780.6" ry="642.1" fill="url(#extrude1015)" opacity="0.115" /><ellipse cx="1536.0" cy="1678.8" rx="788.0" ry="647.4" fill="url(#extrude1015)" opacity="0.100" /><ellipse cx="1536.0" cy="1694.7" rx="795.5" ry="652.6" fill="url(#extrude1015)" opacity="0.085" /><ellipse cx="1536.0" cy="1710.6" rx="802.9" ry="657.8" fill="url(#extrude1015)" opacity="0.070" /><ellipse cx="1536.0" cy="1726.5" rx="810.3" ry="663.0" fill="url(#extrude1015)" opacity="0.055" /></g>
  <ellipse cx="1536.0" cy="1726.5" rx="773.2" ry="214.9" fill="#0B1D2D" opacity="0.24" />
  <ellipse cx="1536.0" cy="1536.0" rx="743.4" ry="651.3" fill="url(#orb1015)" stroke="#FFFFFF" stroke-opacity="0.42" stroke-width="7" />
  <ellipse cx="1431.9" cy="1392.7" rx="505.5" ry="299.6" fill="#FFFFFF" opacity="0.25" />
  <path d="M 199.4 399.4 C 1013.8 -30.7, 2058.2 768.0, 2872.6 215.0 L 2872.6 983.0 C 2089.0 1228.8, 1013.8 307.2, 199.4 1167.4 Z" fill="url(#glass1015)" />
  <rect x="270" y="270" width="2532" height="2532" rx="430" fill="none" stroke="#FFFFFF" stroke-opacity="0.30" stroke-width="5" />
  <rect x="288.4" y="288.4" width="2495.1" height="2495.1" rx="399" fill="none" stroke="#36D1FF" stroke-opacity="0.35" stroke-width="3" />
  <g filter="url(#soft1015)"><rect x="778" y="2444" width="74" height="2" fill="#FFFFFF" opacity="0.380" /><rect x="814" y="2408" width="2" height="74" fill="#FFFFFF" opacity="0.380" /><rect x="998" y="772" width="40" height="2" fill="#FFFFFF" opacity="0.414" /><rect x="1017" y="753" width="2" height="40" fill="#FFFFFF" opacity="0.414" /><rect x="2776" y="2733" width="84" height="2" fill="#FFFFFF" opacity="0.677" /><rect x="2817" y="2692" width="2" height="84" fill="#FFFFFF" opacity="0.677" /><rect x="2346" y="2493" width="36" height="2" fill="#FFFFFF" opacity="0.407" /><rect x="2363" y="2476" width="2" height="36" fill="#FFFFFF" opacity="0.407" /><rect x="670" y="1541" width="78" height="2" fill="#FFFFFF" opacity="0.535" /><rect x="708" y="1503" width="2" height="78" fill="#FFFFFF" opacity="0.535" /><rect x="2370" y="2462" width="38" height="2" fill="#FFFFFF" opacity="0.403" /><rect x="2388" y="2444" width="2" height="38" fill="#FFFFFF" opacity="0.403" /><rect x="565" y="799" width="52" height="2" fill="#FFFFFF" opacity="0.394" /><rect x="590" y="774" width="2" height="52" fill="#FFFFFF" opacity="0.394" /><rect x="871" y="1051" width="34" height="2" fill="#FFFFFF" opacity="0.831" /><rect x="887" y="1035" width="2" height="34" fill="#FFFFFF" opacity="0.831" /><rect x="2645" y="299" width="46" height="2" fill="#FFFFFF" opacity="0.824" /><rect x="2667" y="277" width="2" height="46" fill="#FFFFFF" opacity="0.824" /><rect x="1552" y="2017" width="64" height="2" fill="#FFFFFF" opacity="0.338" /><rect x="1583" y="1986" width="2" height="64" fill="#FFFFFF" opacity="0.338" /><rect x="1374" y="2325" width="72" height="2" fill="#FFFFFF" opacity="0.660" /><rect x="1409" y="2290" width="2" height="72" fill="#FFFFFF" opacity="0.660" /><rect x="1621" y="2408" width="74" height="2" fill="#FFFFFF" opacity="0.736" /><rect x="1657" y="2372" width="2" height="74" fill="#FFFFFF" opacity="0.736" /><rect x="967" y="695" width="26" height="2" fill="#FFFFFF" opacity="0.800" /><rect x="979" y="683" width="2" height="26" fill="#FFFFFF" opacity="0.800" /><rect x="1582" y="2156" width="24" height="2" fill="#FFFFFF" opacity="0.583" /><rect x="1593" y="2145" width="2" height="24" fill="#FFFFFF" opacity="0.583" /><rect x="583" y="2082" width="46" height="2" fill="#FFFFFF" opacity="0.489" /><rect x="605" y="2060" width="2" height="46" fill="#FFFFFF" opacity="0.489" /><rect x="2559" y="599" width="60" height="2" fill="#FFFFFF" opacity="0.480" /><rect x="2588" y="570" width="2" height="60" fill="#FFFFFF" opacity="0.480" /><rect x="2731" y="1514" width="66" height="2" fill="#FFFFFF" opacity="0.356" /><rect x="2763" y="1482" width="2" height="66" fill="#FFFFFF" opacity="0.356" /><rect x="1557" y="2603" width="74" height="2" fill="#FFFFFF" opacity="0.846" /><rect x="1593" y="2567" width="2" height="74" fill="#FFFFFF" opacity="0.846" /><rect x="1349" y="2748" width="68" height="2" fill="#FFFFFF" opacity="0.693" /><rect x="1382" y="2715" width="2" height="68" fill="#FFFFFF" opacity="0.693" /><rect x="1602" y="1544" width="68" height="2" fill="#FFFFFF" opacity="0.406" /><rect x="1635" y="1511" width="2" height="68" fill="#FFFFFF" opacity="0.406" /><rect x="390" y="389" width="64" height="2" fill="#FFFFFF" opacity="0.441" /><rect x="421" y="358" width="2" height="64" fill="#FFFFFF" opacity="0.441" /><rect x="2122" y="2125" width="30" height="2" fill="#FFFFFF" opacity="0.360" /><rect x="2136" y="2111" width="2" height="30" fill="#FFFFFF" opacity="0.360" /><rect x="2360" y="1835" width="48" height="2" fill="#FFFFFF" opacity="0.755" /><rect x="2383" y="1812" width="2" height="48" fill="#FFFFFF" opacity="0.755" /><rect x="1958" y="2411" width="70" height="2" fill="#FFFFFF" opacity="0.465" /><rect x="1992" y="2377" width="2" height="70" fill="#FFFFFF" opacity="0.465" /><rect x="1999" y="892" width="50" height="2" fill="#FFFFFF" opacity="0.488" /><rect x="2023" y="868" width="2" height="50" fill="#FFFFFF" opacity="0.488" /><rect x="2782" y="586" width="34" height="2" fill="#FFFFFF" opacity="0.799" /><rect x="2798" y="570" width="2" height="34" fill="#FFFFFF" opacity="0.799" /></g>
  <g opacity="0.52"><circle cx="1572" cy="1582" r="384" fill="none" stroke="#0C2030" stroke-width="90" /><circle cx="1572" cy="1582" r="153" fill="#0C2030" /><line x1="1572" y1="967" x2="1572" y2="1198" stroke="#0C2030" stroke-width="90" /><line x1="1572" y1="2197" x2="1572" y2="1966" stroke="#0C2030" stroke-width="90" /><line x1="957" y1="1582" x2="1188" y2="1582" stroke="#0C2030" stroke-width="90" /><line x1="2187" y1="1582" x2="1956" y2="1582" stroke="#0C2030" stroke-width="90" /></g>
  <g filter="url(#soft1015)"><circle cx="1536" cy="1536" r="384" fill="none" stroke="url(#symbol1015)" stroke-width="90" /><circle cx="1536" cy="1536" r="153" fill="url(#symbol1015)" /><line x1="1536" y1="921" x2="1536" y2="1152" stroke="url(#symbol1015)" stroke-width="90" /><line x1="1536" y1="2151" x2="1536" y2="1920" stroke="url(#symbol1015)" stroke-width="90" /><line x1="921" y1="1536" x2="1152" y2="1536" stroke="url(#symbol1015)" stroke-width="90" /><line x1="2151" y1="1536" x2="1920" y2="1536" stroke="url(#symbol1015)" stroke-width="90" /></g>
  <rect x="138" y="138" width="2796" height="2796" rx="629" fill="#FFFFFF" filter="url(#grain1015)" opacity="0.18" />
</svg>
