<svg xmlns="http://www.w3.org/2000/svg" width="3072" height="3072" viewBox="0 0 3072 3072">
  <title>QuartzOS System Icon 072 - security_04</title>
  <defs><linearGradient id="bg1071" x1="0%" y1="0%" x2="100%" y2="100%"><stop offset="0%" stop-color="#36D1FF" /><stop offset="26%" stop-color="#8A5CFF" /><stop offset="56%" stop-color="#FF9F43" /><stop offset="78%" stop-color="#6C7CC5" /><stop offset="100%" stop-color="#1E2032" /></linearGradient><radialGradient id="sun1071" cx="46%" cy="28%" r="88%"><stop offset="0%" stop-color="#FFFFFF" stop-opacity="0.62" /><stop offset="30%" stop-color="#FFD84D" stop-opacity="0.35" /><stop offset="100%" stop-color="#FFD84D" stop-opacity="0" /></radialGradient><linearGradient id="glass1071" x1="0%" y1="0%" x2="0%" y2="100%"><stop offset="0%" stop-color="#FFFFFF" stop-opacity="0.70" /><stop offset="46%" stop-color="#FFFFFF" stop-opacity="0.26" /><stop offset="100%" stop-color="#FFFFFF" stop-opacity="0.00" /></linearGradient><linearGradient id="ribbon1071" x1="0%" y1="0%" x2="100%" y2="0%"><stop offset="0%" stop-color="#36D1FF" stop-opacity="0.18" /><stop offset="34%" stop-color="#8A5CFF" stop-opacity="0.72" /><stop offset="66%" stop-color="#FF9F43" stop-opacity="0.72" /><stop offset="100%" stop-color="#FFD84D" stop-opacity="0.18" /></linearGradient><radialGradient id="orb1071" cx="34%" cy="27%" r="74%"><stop offset="0%" stop-color="#FFFFFF" stop-opacity="0.84" /><stop offset="30%" stop-color="#36D1FF" stop-opacity="0.52" /><stop offset="68%" stop-color="#8A5CFF" stop-opacity="0.42" /><stop offset="100%" stop-color="#FF9F43" stop-opacity="0.20" /></radialGradient><linearGradient id="extrude1071" x1="0%" y1="0%" x2="0%" y2="100%"><stop offset="0%" stop-color="#15283C" stop-opacity="0.45" /><stop offset="100%" stop-color="#08131D" stop-opacity="0.06" /></linearGradient><linearGradient id="symbol1071" x1="0%" y1="0%" x2="100%" y2="100%"><stop offset="0%" stop-color="#FFFFFF" /><stop offset="100%" stop-color="#FFD84D" /></linearGradient><filter id="shadow1071" x="-40%" y="-40%" width="180%" height="180%"><feDropShadow dx="0" dy="49" stdDeviation="86" flood-color="#06111A" flood-opacity="0.54" /></filter><filter id="soft1071" x="-40%" y="-40%" width="180%" height="180%"><feDropShadow dx="0" dy="0" stdDeviation="14" flood-color="#36D1FF" flood-opacity="0.45" /></filter><filter id="grain1071"><feTurbulence type="fractalNoise" baseFrequency="0.815" numOctaves="2" seed="1071" /><feColorMatrix type="saturate" values="0" /><feComponentTransfer><feFuncA type="table" tableValues="0 0.09" /></feComponentTransfer></filter></defs>
  <rect x="138" y="138" width="2796" height="2796" rx="629" fill="url(#bg1071)" filter="url(#shadow1071)" />
  <rect x="138" y="138" width="2796" height="2796" rx="629" fill="url(#sun1071)" />
  <g><circle cx="2672" cy="2630" r="107" fill="#FFFFFF" opacity="0.219" /><circle cx="1191" cy="2695" r="104" fill="#FFFFFF" opacity="0.206" /><circle cx="1444" cy="1853" r="78" fill="#FFFFFF" opacity="0.194" /><circle cx="1553" cy="1347" r="39" fill="#FFFFFF" opacity="0.087" /><circle cx="451" cy="507" r="92" fill="#FFFFFF" opacity="0.159" /><circle cx="2076" cy="1171" r="70" fill="#FFFFFF" opacity="0.191" /><circle cx="2603" cy="2539" r="113" fill="#FFFFFF" opacity="0.133" /><circle cx="569" cy="885" r="118" fill="#FFFFFF" opacity="0.076" /><circle cx="2662" cy="1936" r="78" fill="#FFFFFF" opacity="0.217" /><circle cx="818" cy="1644" r="53" fill="#FFFFFF" opacity="0.141" /><circle cx="1962" cy="1863" r="127" fill="#FFFFFF" opacity="0.178" /><circle cx="828" cy="1087" r="145" fill="#FFFFFF" opacity="0.093" /><circle cx="1690" cy="1598" r="123" fill="#FFFFFF" opacity="0.128" /><circle cx="1642" cy="723" r="92" fill="#FFFFFF" opacity="0.116" /><circle cx="385" cy="1592" r="80" fill="#FFFFFF" opacity="0.126" /><circle cx="1701" cy="2674" r="41" fill="#FFFFFF" opacity="0.087" /><circle cx="2683" cy="2691" r="129" fill="#FFFFFF" opacity="0.155" /><circle cx="2456" cy="581" r="62" fill="#FFFFFF" opacity="0.228" /><circle cx="1939" cy="1905" r="39" fill="#FFFFFF" opacity="0.119" /><circle cx="1857" cy="618" r="139" fill="#FFFFFF" opacity="0.157" /><circle cx="2098" cy="1513" r="123" fill="#FFFFFF" opacity="0.193" /><circle cx="1418" cy="713" r="85" fill="#FFFFFF" opacity="0.112" /><circle cx="1781" cy="343" r="96" fill="#FFFFFF" opacity="0.122" /><circle cx="1165" cy="2273" r="110" fill="#FFFFFF" opacity="0.201" /><circle cx="1273" cy="779" r="56" fill="#FFFFFF" opacity="0.142" /><circle cx="1163" cy="1686" r="72" fill="#FFFFFF" opacity="0.204" /><circle cx="2069" cy="344" r="158" fill="#FFFFFF" opacity="0.111" /><circle cx="2586" cy="2353" r="116" fill="#FFFFFF" opacity="0.110" /></g>
  <g><path d="M 258.9 605.9 L 2764.5 329.5 L 2764.5 765.2 L 258.9 1041.7 Z" fill="#FFFFFF" opacity="0.148" /><path d="M 339.5 882.7 L 2763.9 606.2 L 2763.9 1086.0 L 339.5 1362.4 Z" fill="#FFFFFF" opacity="0.101" /><path d="M 181.1 1147.4 L 2892.9 870.9 L 2892.9 1314.0 L 181.1 1590.4 Z" fill="#FFFFFF" opacity="0.167" /><path d="M 391.8 1390.6 L 2792.0 1114.1 L 2792.0 1571.5 L 391.8 1848.0 Z" fill="#FFFFFF" opacity="0.200" /><path d="M 390.9 1623.5 L 2852.0 1347.0 L 2852.0 1794.2 L 390.9 2070.7 Z" fill="#FFFFFF" opacity="0.096" /><path d="M 282.5 1911.1 L 2699.6 1634.6 L 2699.6 2089.0 L 282.5 2365.5 Z" fill="#FFFFFF" opacity="0.103" /><path d="M 321.4 2175.4 L 2893.1 1899.0 L 2893.1 2377.6 L 321.4 2654.1 Z" fill="#FFFFFF" opacity="0.097" /><path d="M 188.1 2484.2 L 2867.9 2207.7 L 2867.9 2634.5 L 188.1 2911.0 Z" fill="#FFFFFF" opacity="0.227" /></g>
  <g filter="url(#soft1071)"><g transform="rotate(-14.05 1536.0 1536.0)"><path d="M-368.6 465.0 C -225.8 487.7, -25.8 442.1, 107.5 443.8 C 250.4 440.5, 450.4 478.7, 583.7 413.6 C 726.5 402.7, 926.5 484.8, 1059.8 414.6 C 1202.7 400.7, 1402.7 492.8, 1536.0 446.1 C 1678.8 453.0, 1878.8 479.3, 2012.2 489.1 C 2155.0 490.2, 2355.0 444.2, 2488.3 517.5 C 2631.2 526.6, 2831.2 402.1, 2964.5 514.0 C 3107.3 530.8, 3307.3 421.0, 3440.6 480.8" fill="none" stroke="url(#ribbon1071)" stroke-width="58.4" stroke-linecap="round" stroke-opacity="0.120" /></g><g transform="rotate(-13.47 1536.0 1536.0)"><path d="M-368.6 689.3 C -241.7 641.2, -63.9 739.6, 54.6 632.1 C 181.6 635.8, 359.4 752.0, 477.9 667.2 C 604.8 664.0, 782.6 696.6, 901.1 715.8 C 1028.1 717.1, 1205.9 680.0, 1324.4 748.3 C 1451.3 736.5, 1629.1 633.9, 1747.6 745.0 C 1874.6 732.6, 2052.4 637.5, 2170.9 707.9 C 2297.9 704.5, 2475.6 672.0, 2594.1 659.6 C 2721.1 661.9, 2898.9 701.1, 3017.4 629.3 C 3144.4 614.3, 3322.1 759.8, 3440.6 635.4" fill="none" stroke="url(#ribbon1071)" stroke-width="54.4" stroke-linecap="round" stroke-opacity="0.146" /></g><g transform="rotate(-12.89 1536.0 1536.0)"><path d="M-368.6 943.0 C -254.4 972.2, -94.4 914.0, 12.3 923.8 C 126.6 924.3, 286.6 957.7, 393.2 881.8 C 507.5 877.3, 667.5 963.4, 774.1 876.9 C 888.4 867.0, 1048.4 997.0, 1155.1 912.2 C 1269.4 922.5, 1429.3 963.0, 1536.0 966.1 C 1650.3 965.6, 1810.3 928.4, 1916.9 1006.1 C 2031.2 992.1, 2191.2 923.9, 2297.9 1007.8 C 2412.1 995.2, 2572.1 885.4, 2678.8 970.2 C 2793.1 967.4, 2953.1 916.2, 3059.7 916.2 C 3174.0 922.8, 3334.0 955.8, 3440.6 878.4" fill="none" stroke="url(#ribbon1071)" stroke-width="50.4" stroke-linecap="round" stroke-opacity="0.172" /></g><g transform="rotate(-12.31 1536.0 1536.0)"><path d="M-368.6 1125.0 C -264.8 1065.0, -119.3 1166.5, -22.3 1068.3 C 81.5 1055.6, 227.0 1154.8, 324.0 1122.3 C 427.8 1122.2, 573.3 1127.7, 670.3 1177.9 C 774.1 1163.8, 919.6 1086.0, 1016.6 1201.5 C 1120.4 1212.7, 1265.9 1091.8, 1362.9 1178.6 C 1466.7 1186.9, 1612.2 1102.2, 1709.1 1123.2 C 1813.0 1123.0, 1958.5 1126.8, 2055.4 1068.9 C 2159.3 1065.5, 2304.8 1180.5, 2401.7 1048.6 C 2505.6 1024.6, 2651.1 1212.6, 2748.0 1074.6 C 2851.9 1064.8, 2997.4 1178.1, 3094.3 1131.2 C 3198.2 1129.9, 3343.7 1120.7, 3440.6 1184.0" fill="none" stroke="url(#ribbon1071)" stroke-width="46.4" stroke-linecap="round" stroke-opacity="0.198" /></g><g transform="rotate(-11.73 1536.0 1536.0)"><path d="M-368.6 1297.4 C -273.4 1244.2, -140.1 1362.7, -51.2 1213.9 C 44.0 1190.1, 177.4 1360.5, 266.2 1242.6 C 361.5 1242.5, 494.8 1332.1, 583.7 1304.4 C 678.9 1306.4, 812.2 1294.1, 901.1 1362.0 C 996.4 1372.0, 1129.7 1275.3, 1218.6 1380.4 C 1313.8 1405.6, 1447.1 1272.3, 1536.0 1348.4 C 1631.2 1360.8, 1764.6 1276.5, 1853.4 1285.4 C 1948.7 1281.6, 2082.0 1305.5, 2170.9 1229.7 C 2266.1 1203.3, 2399.4 1374.0, 2488.3 1215.0 C 2583.6 1199.4, 2716.9 1331.7, 2805.8 1250.3 C 2901.0 1236.9, 3034.3 1347.0, 3123.2 1314.1 C 3218.4 1309.0, 3351.8 1285.4, 3440.6 1367.7" fill="none" stroke="url(#ribbon1071)" stroke-width="42.4" stroke-linecap="round" stroke-opacity="0.224" /></g><g transform="rotate(-11.15 1536.0 1536.0)"><path d="M-368.6 1515.1 C -225.8 1573.0, -25.8 1475.8, 107.5 1602.7 C 250.4 1580.9, 450.4 1486.6, 583.7 1559.5 C 726.5 1554.4, 926.5 1464.4, 1059.8 1489.3 C 1202.7 1499.1, 1402.7 1536.3, 1536.0 1434.8 C 1678.8 1461.7, 1878.8 1542.8, 2012.2 1429.0 C 2155.0 1417.0, 2355.0 1547.8, 2488.3 1475.5 C 2631.2 1469.8, 2831.2 1557.2, 2964.5 1546.0 C 3107.3 1536.4, 3307.3 1483.3, 3440.6 1597.7" fill="none" stroke="url(#ribbon1071)" stroke-width="38.4" stroke-linecap="round" stroke-opacity="0.250" /></g><g transform="rotate(-10.57 1536.0 1536.0)"><path d="M-368.6 1657.6 C -241.7 1637.3, -63.9 1684.5, 54.6 1702.6 C 181.6 1713.3, 359.4 1618.6, 477.9 1751.2 C 604.8 1747.5, 782.6 1558.7, 901.1 1743.0 C 1028.1 1713.3, 1205.9 1600.7, 1324.4 1683.0 C 1451.3 1686.5, 1629.1 1635.0, 1747.6 1607.6 C 1874.6 1588.3, 2052.4 1699.8, 2170.9 1562.6 C 2297.9 1580.4, 2475.6 1708.3, 2594.1 1575.2 C 2721.1 1604.3, 2898.9 1745.0, 3017.4 1637.8 C 3144.4 1630.4, 3322.1 1672.2, 3440.6 1712.4" fill="none" stroke="url(#ribbon1071)" stroke-width="34.4" stroke-linecap="round" stroke-opacity="0.276" /></g><g transform="rotate(-9.99 1536.0 1536.0)"><path d="M-368.6 1891.7 C -254.4 1763.6, -94.4 1953.6, 12.3 1792.0 C 126.6 1763.2, 286.6 1989.5, 393.2 1845.3 C 507.5 1848.8, 667.5 1928.7, 774.1 1926.7 C 888.4 1919.9, 1048.4 1869.3, 1155.1 1986.9 C 1269.4 2006.7, 1429.3 1835.6, 1536.0 1989.4 C 1650.3 1959.4, 1810.3 1847.9, 1916.9 1932.6 C 2031.2 1923.8, 2191.2 1879.3, 2297.9 1851.0 C 2412.1 1858.5, 2572.1 1913.3, 2678.8 1794.1 C 2793.1 1825.6, 2953.1 1959.7, 3059.7 1796.4 C 3174.0 1819.7, 3334.0 1952.4, 3440.6 1856.5" fill="none" stroke="url(#ribbon1071)" stroke-width="30.4" stroke-linecap="round" stroke-opacity="0.302" /></g><g transform="rotate(-9.41 1536.0 1536.0)"><path d="M-368.6 2050.1 C -264.8 2085.2, -119.3 2009.4, -22.3 2158.2 C 81.5 2156.6, 227.0 1998.5, 324.0 2145.9 C 427.8 2140.3, 573.3 2017.6, 670.3 2075.5 C 774.1 2069.3, 919.6 2034.8, 1016.6 1989.6 C 1120.4 1975.7, 1265.9 2117.5, 1362.9 1940.5 C 1466.7 1974.7, 1612.2 2119.3, 1709.1 1957.8 C 1813.0 1927.6, 1958.5 2125.4, 2055.4 2031.1 C 2159.3 2025.1, 2304.8 2067.1, 2401.7 2115.9 C 2505.6 2131.3, 2651.1 2015.6, 2748.0 2160.8 C 2851.9 2176.6, 2997.4 1990.5, 3094.3 2138.5 C 3198.2 2163.7, 3343.7 1959.8, 3440.6 2062.6" fill="none" stroke="url(#ribbon1071)" stroke-width="26.4" stroke-linecap="round" stroke-opacity="0.328" /></g><g transform="rotate(-8.83 1536.0 1536.0)"><path d="M-368.6 2224.1 C -273.4 2300.9, -140.1 2138.4, -51.2 2343.0 C 44.0 2316.5, 177.4 2111.5, 266.2 2305.2 C 361.5 2307.2, 494.8 2198.7, 583.7 2218.2 C 678.9 2218.0, 812.2 2229.2, 901.1 2134.8 C 996.4 2144.8, 1129.7 2271.8, 1218.6 2105.6 C 1313.8 2150.8, 1447.1 2355.8, 1536.0 2148.3 C 1631.2 2134.3, 1764.6 2265.2, 1853.4 2236.9 C 1948.7 2237.4, 2082.0 2216.3, 2170.9 2317.8 C 2266.1 2355.0, 2399.4 2192.3, 2488.3 2341.9 C 2583.6 2350.2, 2716.9 2090.7, 2805.8 2294.5 C 2901.0 2313.0, 3034.3 2201.7, 3123.2 2204.4 C 3218.4 2198.5, 3351.8 2230.6, 3440.6 2126.3" fill="none" stroke="url(#ribbon1071)" stroke-width="22.4" stroke-linecap="round" stroke-opacity="0.354" /></g><g transform="rotate(-8.25 1536.0 1536.0)"><path d="M-368.6 2474.7 C -225.8 2331.4, -25.8 2545.6, 107.5 2387.7 C 250.4 2394.8, 450.4 2507.6, 583.7 2479.4 C 726.5 2480.7, 926.5 2472.9, 1059.8 2568.3 C 1202.7 2594.2, 1402.7 2441.7, 1536.0 2600.4 C 1678.8 2588.5, 1878.8 2422.3, 2012.2 2556.2 C 2155.0 2548.0, 2355.0 2385.0, 2488.3 2462.6 C 2631.2 2461.9, 2831.2 2483.7, 2964.5 2376.3 C 3107.3 2408.9, 3307.3 2581.4, 3440.6 2349.7" fill="none" stroke="url(#ribbon1071)" stroke-width="18.4" stroke-linecap="round" stroke-opacity="0.380" /></g><g transform="rotate(-7.67 1536.0 1536.0)"><path d="M-368.6 2630.3 C -241.7 2795.0, -63.9 2586.2, 54.6 2724.3 C 181.6 2738.9, 359.4 2564.2, 477.9 2628.2 C 604.8 2629.0, 782.6 2632.4, 901.1 2533.4 C 1028.1 2505.8, 1205.9 2660.0, 1324.4 2497.4 C 1451.3 2538.7, 1629.1 2694.2, 1747.6 2541.9 C 1874.6 2535.5, 2052.4 2734.2, 2170.9 2640.0 C 2297.9 2638.4, 2475.6 2627.2, 2594.1 2732.2 C 2721.1 2716.9, 2898.9 2598.8, 3017.4 2762.6 C 3144.4 2711.7, 3322.1 2551.4, 3440.6 2712.6" fill="none" stroke="url(#ribbon1071)" stroke-width="14.4" stroke-linecap="round" stroke-opacity="0.406" /></g></g>
  <g><ellipse cx="1536.0" cy="1551.9" rx="728.6" ry="605.7" fill="url(#extrude1071)" opacity="0.220" /><ellipse cx="1536.0" cy="1567.7" rx="736.0" ry="610.9" fill="url(#extrude1071)" opacity="0.205" /><ellipse cx="1536.0" cy="1583.6" rx="743.4" ry="616.1" fill="url(#extrude1071)" opacity="0.190" /><ellipse cx="1536.0" cy="1599.5" rx="750.9" ry="621.3" fill="url(#extrude1071)" opacity="0.175" /><ellipse cx="1536.0" cy="1615.4" rx="758.3" ry="626.5" fill="url(#extrude1071)" opacity="0.160" /><ellipse cx="1536.0" cy="1631.2" rx="765.7" ry="631.7" fill="url(#extrude1071)" opacity="0.145" /><ellipse cx="1536.0" cy="1647.1" rx="773.2" ry="636.9" fill="url(#extrude1071)" opacity="0.130" /><ellipse cx="1536.0" cy="1663.0" rx="780.6" ry="642.1" fill="url(#extrude1071)" opacity="0.115" /><ellipse cx="1536.0" cy="1678.8" rx="788.0" ry="647.4" fill="url(#extrude1071)" opacity="0.100" /><ellipse cx="1536.0" cy="1694.7" rx="795.5" ry="652.6" fill="url(#extrude1071)" opacity="0.085" /><ellipse cx="1536.0" cy="1710.6" rx="802.9" ry="657.8" fill="url(#extrude1071)" opacity="0.070" /><ellipse cx="1536.0" cy="1726.5" rx="810.3" ry="663.0" fill="url(#extrude1071)" opacity="0.055" /></g>
  <ellipse cx="1536.0" cy="1726.5" rx="773.2" ry="214.9" fill="#0B1D2D" opacity="0.24" />
  <ellipse cx="1536.0" cy="1536.0" rx="743.4" ry="651.3" fill="url(#orb1071)" stroke="#FFFFFF" stroke-opacity="0.42" stroke-width="7" />
  <ellipse cx="1431.9" cy="1392.7" rx="505.5" ry="299.6" fill="#FFFFFF" opacity="0.25" />
  <path d="M 199.4 399.4 C 1013.8 -30.7, 2058.2 768.0, 2872.6 215.0 L 2872.6 983.0 C 2089.0 1228.8, 1013.8 307.2, 199.4 1167.4 Z" fill="url(#glass1071)" />
  <rect x="270" y="270" width="2532" height="2532" rx="430" fill="none" stroke="#FFFFFF" stroke-opacity="0.30" stroke-width="5" />
  <rect x="288.4" y="288.4" width="2495.1" height="2495.1" rx="399" fill="none" stroke="#36D1FF" stroke-opacity="0.35" stroke-width="3" />
  <g filter="url(#soft1071)"><rect x="536" y="791" width="84" height="2" fill="#FFFFFF" opacity="0.408" /><rect x="577" y="750" width="2" height="84" fill="#FFFFFF" opacity="0.408" /><rect x="1283" y="1694" width="80" height="2" fill="#FFFFFF" opacity="0.376" /><rect x="1322" y="1655" width="2" height="80" fill="#FFFFFF" opacity="0.376" /><rect x="629" y="1766" width="58" height="2" fill="#FFFFFF" opacity="0.365" /><rect x="657" y="1738" width="2" height="58" fill="#FFFFFF" opacity="0.365" /><rect x="1792" y="414" width="76" height="2" fill="#FFFFFF" opacity="0.818" /><rect x="1829" y="377" width="2" height="76" fill="#FFFFFF" opacity="0.818" /><rect x="1099" y="2267" width="40" height="2" fill="#FFFFFF" opacity="0.456" /><rect x="1118" y="2248" width="2" height="40" fill="#FFFFFF" opacity="0.456" /><rect x="1858" y="2761" width="32" height="2" fill="#FFFFFF" opacity="0.735" /><rect x="1873" y="2746" width="2" height="32" fill="#FFFFFF" opacity="0.735" /><rect x="2268" y="1505" width="48" height="2" fill="#FFFFFF" opacity="0.844" /><rect x="2291" y="1482" width="2" height="48" fill="#FFFFFF" opacity="0.844" /><rect x="2631" y="2690" width="48" height="2" fill="#FFFFFF" opacity="0.802" /><rect x="2654" y="2667" width="2" height="48" fill="#FFFFFF" opacity="0.802" /><rect x="2726" y="2738" width="74" height="2" fill="#FFFFFF" opacity="0.675" /><rect x="2762" y="2702" width="2" height="74" fill="#FFFFFF" opacity="0.675" /><rect x="1234" y="1285" width="38" height="2" fill="#FFFFFF" opacity="0.562" /><rect x="1252" y="1267" width="2" height="38" fill="#FFFFFF" opacity="0.562" /><rect x="1569" y="1684" width="36" height="2" fill="#FFFFFF" opacity="0.637" /><rect x="1586" y="1667" width="2" height="36" fill="#FFFFFF" opacity="0.637" /><rect x="2333" y="602" width="56" height="2" fill="#FFFFFF" opacity="0.664" /><rect x="2360" y="575" width="2" height="56" fill="#FFFFFF" opacity="0.664" /><rect x="620" y="2169" width="72" height="2" fill="#FFFFFF" opacity="0.757" /><rect x="655" y="2134" width="2" height="72" fill="#FFFFFF" opacity="0.757" /><rect x="2451" y="2084" width="36" height="2" fill="#FFFFFF" opacity="0.326" /><rect x="2468" y="2067" width="2" height="36" fill="#FFFFFF" opacity="0.326" /><rect x="2144" y="1081" width="66" height="2" fill="#FFFFFF" opacity="0.553" /><rect x="2176" y="1049" width="2" height="66" fill="#FFFFFF" opacity="0.553" /><rect x="1880" y="1974" width="58" height="2" fill="#FFFFFF" opacity="0.466" /><rect x="1908" y="1946" width="2" height="58" fill="#FFFFFF" opacity="0.466" /><rect x="1245" y="553" width="80" height="2" fill="#FFFFFF" opacity="0.473" /><rect x="1284" y="514" width="2" height="80" fill="#FFFFFF" opacity="0.473" /><rect x="1935" y="1386" width="40" height="2" fill="#FFFFFF" opacity="0.411" /><rect x="1954" y="1367" width="2" height="40" fill="#FFFFFF" opacity="0.411" /><rect x="1444" y="2049" width="62" height="2" fill="#FFFFFF" opacity="0.743" /><rect x="1474" y="2019" width="2" height="62" fill="#FFFFFF" opacity="0.743" /><rect x="2029" y="769" width="72" height="2" fill="#FFFFFF" opacity="0.822" /><rect x="2064" y="734" width="2" height="72" fill="#FFFFFF" opacity="0.822" /><rect x="2461" y="2484" width="40" height="2" fill="#FFFFFF" opacity="0.396" /><rect x="2480" y="2465" width="2" height="40" fill="#FFFFFF" opacity="0.396" /><rect x="2305" y="1475" width="50" height="2" fill="#FFFFFF" opacity="0.742" /><rect x="2329" y="1451" width="2" height="50" fill="#FFFFFF" opacity="0.742" /><rect x="897" y="2485" width="34" height="2" fill="#FFFFFF" opacity="0.320" /><rect x="913" y="2469" width="2" height="34" fill="#FFFFFF" opacity="0.320" /><rect x="1026" y="1805" width="24" height="2" fill="#FFFFFF" opacity="0.321" /><rect x="1037" y="1794" width="2" height="24" fill="#FFFFFF" opacity="0.321" /><rect x="1100" y="1566" width="60" height="2" fill="#FFFFFF" opacity="0.424" /><rect x="1129" y="1537" width="2" height="60" fill="#FFFFFF" opacity="0.424" /><rect x="2433" y="2660" width="82" height="2" fill="#FFFFFF" opacity="0.403" /><rect x="2473" y="2620" width="2" height="82" fill="#FFFFFF" opacity="0.403" /></g>
  <g opacity="0.52"><rect x="1060" y="1070" width="219" height="1024" fill="#0C2030" /><rect x="1316" y="1326" width="219" height="768" fill="#0C2030" /><rect x="1572" y="1198" width="219" height="921" fill="#0C2030" /><rect x="1828" y="1033" width="219" height="1152" fill="#0C2030" /></g>
  <g filter="url(#soft1071)"><rect x="1024" y="1024" width="219" height="1024" fill="url(#symbol1071)" /><rect x="1280" y="1280" width="219" height="768" fill="url(#symbol1071)" /><rect x="1536" y="1152" width="219" height="921" fill="url(#symbol1071)" /><rect x="1792" y="987" width="219" height="1152" fill="url(#symbol1071)" /></g>
  <rect x="138" y="138" width="2796" height="2796" rx="629" fill="#FFFFFF" filter="url(#grain1071)" opacity="0.18" />
</svg>
