<svg xmlns="http://www.w3.org/2000/svg" width="3072" height="3072" viewBox="0 0 3072 3072">
  <title>QuartzOS System Icon 052 - security_03</title>
  <defs><linearGradient id="bg1051" x1="0%" y1="0%" x2="100%" y2="100%"><stop offset="0%" stop-color="#3B82FF" /><stop offset="26%" stop-color="#FF6AB3" /><stop offset="56%" stop-color="#FFD84D" /><stop offset="78%" stop-color="#9A6BB4" /><stop offset="100%" stop-color="#271E2A" /></linearGradient><radialGradient id="sun1051" cx="46%" cy="31%" r="88%"><stop offset="0%" stop-color="#FFFFFF" stop-opacity="0.62" /><stop offset="30%" stop-color="#53E3A6" stop-opacity="0.35" /><stop offset="100%" stop-color="#53E3A6" stop-opacity="0" /></radialGradient><linearGradient id="glass1051" x1="0%" y1="0%" x2="0%" y2="100%"><stop offset="0%" stop-color="#FFFFFF" stop-opacity="0.70" /><stop offset="46%" stop-color="#FFFFFF" stop-opacity="0.26" /><stop offset="100%" stop-color="#FFFFFF" stop-opacity="0.00" /></linearGradient><linearGradient id="ribbon1051" x1="0%" y1="0%" x2="100%" y2="0%"><stop offset="0%" stop-color="#3B82FF" stop-opacity="0.18" /><stop offset="34%" stop-color="#FF6AB3" stop-opacity="0.72" /><stop offset="66%" stop-color="#FFD84D" stop-opacity="0.72" /><stop offset="100%" stop-color="#53E3A6" stop-opacity="0.18" /></linearGradient><radialGradient id="orb1051" cx="34%" cy="27%" r="74%"><stop offset="0%" stop-color="#FFFFFF" stop-opacity="0.84" /><stop offset="30%" stop-color="#3B82FF" stop-opacity="0.52" /><stop offset="68%" stop-color="#FF6AB3" stop-opacity="0.42" /><stop offset="100%" stop-color="#FFD84D" stop-opacity="0.20" /></radialGradient><linearGradient id="extrude1051" x1="0%" y1="0%" x2="0%" y2="100%"><stop offset="0%" stop-color="#15283C" stop-opacity="0.45" /><stop offset="100%" stop-color="#08131D" stop-opacity="0.06" /></linearGradient><linearGradient id="symbol1051" x1="0%" y1="0%" x2="100%" y2="100%"><stop offset="0%" stop-color="#FFFFFF" /><stop offset="100%" stop-color="#53E3A6" /></linearGradient><filter id="shadow1051" x="-40%" y="-40%" width="180%" height="180%"><feDropShadow dx="0" dy="49" stdDeviation="86" flood-color="#06111A" flood-opacity="0.54" /></filter><filter id="soft1051" x="-40%" y="-40%" width="180%" height="180%"><feDropShadow dx="0" dy="0" stdDeviation="14" flood-color="#3B82FF" flood-opacity="0.45" /></filter><filter id="grain1051"><feTurbulence type="fractalNoise" baseFrequency="0.915" numOctaves="2" seed="1051" /><feColorMatrix type="saturate" values="0" /><feComponentTransfer><feFuncA type="table" tableValues="0 0.09" /></feComponentTransfer></filter></defs>
  <rect x="138" y="138" width="2796" height="2796" rx="629" fill="url(#bg1051)" filter="url(#shadow1051)" />
  <rect x="138" y="138" width="2796" height="2796" rx="629" fill="url(#sun1051)" />
  <g><circle cx="1374" cy="2624" r="103" fill="#FFFFFF" opacity="0.070" /><circle cx="1177" cy="550" r="66" fill="#FFFFFF" opacity="0.106" /><circle cx="1952" cy="1188" r="129" fill="#FFFFFF" opacity="0.147" /><circle cx="603" cy="959" r="62" fill="#FFFFFF" opacity="0.192" /><circle cx="1948" cy="1209" r="62" fill="#FFFFFF" opacity="0.167" /><circle cx="1751" cy="2150" r="107" fill="#FFFFFF" opacity="0.225" /><circle cx="747" cy="1864" r="40" fill="#FFFFFF" opacity="0.142" /><circle cx="2580" cy="2226" r="152" fill="#FFFFFF" opacity="0.214" /><circle cx="497" cy="2605" r="62" fill="#FFFFFF" opacity="0.177" /><circle cx="2588" cy="1140" r="136" fill="#FFFFFF" opacity="0.090" /><circle cx="1213" cy="2455" r="126" fill="#FFFFFF" opacity="0.136" /><circle cx="603" cy="2464" r="53" fill="#FFFFFF" opacity="0.148" /><circle cx="2433" cy="652" r="47" fill="#FFFFFF" opacity="0.221" /><circle cx="1487" cy="2118" r="64" fill="#FFFFFF" opacity="0.236" /><circle cx="2117" cy="1027" r="44" fill="#FFFFFF" opacity="0.125" /><circle cx="1384" cy="2423" r="152" fill="#FFFFFF" opacity="0.217" /><circle cx="2104" cy="970" r="135" fill="#FFFFFF" opacity="0.173" /><circle cx="544" cy="1127" r="60" fill="#FFFFFF" opacity="0.080" /><circle cx="1455" cy="906" r="71" fill="#FFFFFF" opacity="0.136" /><circle cx="1707" cy="966" r="132" fill="#FFFFFF" opacity="0.069" /><circle cx="1041" cy="739" r="37" fill="#FFFFFF" opacity="0.215" /><circle cx="1044" cy="1385" r="99" fill="#FFFFFF" opacity="0.091" /><circle cx="680" cy="2445" r="40" fill="#FFFFFF" opacity="0.239" /><circle cx="2000" cy="1209" r="115" fill="#FFFFFF" opacity="0.231" /><circle cx="512" cy="2025" r="81" fill="#FFFFFF" opacity="0.129" /><circle cx="693" cy="2647" r="119" fill="#FFFFFF" opacity="0.181" /><circle cx="1932" cy="1976" r="110" fill="#FFFFFF" opacity="0.198" /><circle cx="1221" cy="2281" r="84" fill="#FFFFFF" opacity="0.138" /></g>
  <g><path d="M 233.7 596.6 L 2900.1 320.1 L 2900.1 801.1 L 233.7 1077.6 Z" fill="#FFFFFF" opacity="0.227" /><path d="M 206.5 916.0 L 2701.3 639.5 L 2701.3 1065.0 L 206.5 1341.5 Z" fill="#FFFFFF" opacity="0.082" /><path d="M 339.1 1117.1 L 2755.6 840.6 L 2755.6 1270.7 L 339.1 1547.2 Z" fill="#FFFFFF" opacity="0.092" /><path d="M 338.5 1385.2 L 2855.1 1108.7 L 2855.1 1547.2 L 338.5 1823.7 Z" fill="#FFFFFF" opacity="0.174" /><path d="M 155.3 1614.2 L 2705.3 1337.7 L 2705.3 1830.5 L 155.3 2107.0 Z" fill="#FFFFFF" opacity="0.137" /><path d="M 316.2 1933.4 L 2803.3 1656.9 L 2803.3 2096.6 L 316.2 2373.0 Z" fill="#FFFFFF" opacity="0.138" /><path d="M 312.0 2159.6 L 2816.7 1883.1 L 2816.7 2314.2 L 312.0 2590.7 Z" fill="#FFFFFF" opacity="0.089" /><path d="M 323.3 2417.2 L 2728.2 2140.7 L 2728.2 2624.4 L 323.3 2900.9 Z" fill="#FFFFFF" opacity="0.212" /></g>
  <g filter="url(#soft1051)"><g transform="rotate(-21.56 1536.0 1536.0)"><path d="M-368.6 509.5 C -225.8 513.2, -25.8 506.7, 107.5 551.1 C 250.4 550.3, 450.4 484.2, 583.7 564.6 C 726.5 560.6, 926.5 449.9, 1059.8 544.8 C 1202.7 540.6, 1402.7 493.3, 1536.0 503.5 C 1678.8 505.1, 1878.8 511.5, 2012.2 465.9 C 2155.0 476.9, 2355.0 559.1, 2488.3 454.7 C 2631.2 453.9, 2831.2 556.1, 2964.5 476.8 C 3107.3 473.0, 3307.3 530.6, 3440.6 518.7" fill="none" stroke="url(#ribbon1051)" stroke-width="58.4" stroke-linecap="round" stroke-opacity="0.120" /></g><g transform="rotate(-20.98 1536.0 1536.0)"><path d="M-368.6 709.4 C -241.7 722.6, -63.9 689.4, 54.6 765.4 C 181.6 779.6, 359.4 648.7, 477.9 768.1 C 604.8 780.8, 782.6 687.3, 901.1 735.2 C 1028.1 745.3, 1205.9 690.4, 1324.4 686.6 C 1451.3 693.9, 1629.1 721.1, 1747.6 651.9 C 1874.6 628.9, 2052.4 747.2, 2170.9 652.1 C 2297.9 633.3, 2475.6 736.4, 2594.1 687.0 C 2721.1 691.0, 2898.9 728.9, 3017.4 735.6 C 3144.4 725.1, 3322.1 686.8, 3440.6 768.3" fill="none" stroke="url(#ribbon1051)" stroke-width="54.4" stroke-linecap="round" stroke-opacity="0.146" /></g><g transform="rotate(-20.40 1536.0 1536.0)"><path d="M-368.6 895.5 C -254.4 894.3, -94.4 896.0, 12.3 844.8 C 126.6 850.9, 286.6 954.5, 393.2 826.1 C 507.5 798.7, 667.5 926.0, 774.1 849.5 C 888.4 848.2, 1048.4 918.4, 1155.1 900.8 C 1269.4 900.3, 1429.3 892.2, 1536.0 948.8 C 1650.3 934.9, 1810.3 860.2, 1916.9 964.5 C 2031.2 972.2, 2191.2 843.7, 2297.9 938.3 C 2412.1 953.0, 2572.1 872.2, 2678.8 886.1 C 2793.1 882.7, 2953.1 906.0, 3059.7 839.6 C 3174.0 855.0, 3334.0 936.4, 3440.6 827.0" fill="none" stroke="url(#ribbon1051)" stroke-width="50.4" stroke-linecap="round" stroke-opacity="0.172" /></g><g transform="rotate(-19.82 1536.0 1536.0)"><path d="M-368.6 1090.8 C -264.8 1102.2, -119.3 1081.0, -22.3 1151.9 C 81.5 1154.9, 227.0 1036.1, 324.0 1166.4 C 427.8 1175.5, 573.3 1050.8, 670.3 1135.0 C 774.1 1144.5, 919.6 1069.8, 1016.6 1076.8 C 1120.4 1075.4, 1265.9 1095.8, 1362.9 1027.1 C 1466.7 1050.5, 1612.2 1138.5, 1709.1 1016.1 C 1813.0 1012.0, 1958.5 1116.0, 2055.4 1050.4 C 2159.3 1036.8, 2304.8 1116.7, 2401.7 1109.2 C 2505.6 1111.1, 2651.1 1074.0, 2748.0 1156.9 C 2851.9 1167.9, 2997.4 1066.0, 3094.3 1164.5 C 3198.2 1136.7, 3343.7 1003.7, 3440.6 1127.5" fill="none" stroke="url(#ribbon1051)" stroke-width="46.4" stroke-linecap="round" stroke-opacity="0.198" /></g><g transform="rotate(-19.24 1536.0 1536.0)"><path d="M-368.6 1353.5 C -273.4 1312.9, -140.1 1424.7, -51.2 1353.2 C 44.0 1353.3, 177.4 1353.8, 266.2 1413.2 C 361.5 1393.0, 494.8 1313.5, 583.7 1437.0 C 678.9 1453.9, 812.2 1304.7, 901.1 1410.2 C 996.4 1418.8, 1129.7 1287.6, 1218.6 1348.9 C 1313.8 1348.9, 1447.1 1355.2, 1536.0 1290.5 C 1631.2 1291.3, 1764.6 1374.9, 1853.4 1270.2 C 1948.7 1289.3, 2082.0 1406.7, 2170.9 1300.5 C 2266.1 1302.3, 2399.4 1375.7, 2488.3 1362.9 C 2583.6 1362.6, 2716.9 1342.8, 2805.8 1419.6 C 2901.0 1423.1, 3034.3 1276.8, 3123.2 1436.2 C 3218.4 1422.9, 3351.8 1271.6, 3440.6 1402.6" fill="none" stroke="url(#ribbon1051)" stroke-width="42.4" stroke-linecap="round" stroke-opacity="0.224" /></g><g transform="rotate(-18.66 1536.0 1536.0)"><path d="M-368.6 1545.0 C -225.8 1633.3, -25.8 1452.1, 107.5 1628.6 C 250.4 1603.0, 450.4 1489.6, 583.7 1578.1 C 726.5 1577.0, 926.5 1518.4, 1059.8 1507.5 C 1202.7 1510.4, 1402.7 1571.3, 1536.0 1459.7 C 1678.8 1466.1, 1878.8 1598.3, 2012.2 1463.7 C 2155.0 1472.3, 2355.0 1601.6, 2488.3 1517.0 C 2631.2 1512.7, 2831.2 1574.4, 2964.5 1587.3 C 3107.3 1571.0, 3307.3 1527.2, 3440.6 1632.0" fill="none" stroke="url(#ribbon1051)" stroke-width="38.4" stroke-linecap="round" stroke-opacity="0.250" /></g><g transform="rotate(-18.08 1536.0 1536.0)"><path d="M-368.6 1626.5 C -241.7 1601.4, -63.9 1651.1, 54.6 1661.6 C 181.6 1652.1, 359.4 1597.2, 477.9 1716.3 C 604.8 1697.8, 782.6 1559.8, 901.1 1716.6 C 1028.1 1696.3, 1205.9 1565.3, 1324.4 1662.2 C 1451.3 1657.5, 1629.1 1588.7, 1747.6 1586.1 C 1874.6 1590.2, 2052.4 1641.2, 2170.9 1534.5 C 2297.9 1558.8, 2475.6 1706.3, 2594.1 1538.7 C 2721.1 1567.1, 2898.9 1728.6, 3017.4 1596.2 C 3144.4 1600.6, 3322.1 1641.9, 3440.6 1672.0" fill="none" stroke="url(#ribbon1051)" stroke-width="34.4" stroke-linecap="round" stroke-opacity="0.276" /></g><g transform="rotate(-17.50 1536.0 1536.0)"><path d="M-368.6 1924.6 C -254.4 2067.7, -94.4 1866.1, 12.3 1987.6 C 126.6 1985.5, 286.6 1878.3, 393.2 1908.4 C 507.5 1903.2, 667.5 1932.0, 774.1 1839.1 C 888.4 1828.8, 1048.4 2015.7, 1155.1 1821.6 C 1269.4 1830.0, 1429.3 1987.3, 1536.0 1866.6 C 1650.3 1862.7, 1810.3 1969.5, 1916.9 1946.8 C 2031.2 1942.6, 2191.2 1909.5, 2297.9 2013.5 C 2412.1 2037.2, 2572.1 1871.1, 2678.8 2026.3 C 2793.1 2013.6, 2953.1 1882.2, 3059.7 1977.4 C 3174.0 1982.2, 3334.0 1893.3, 3440.6 1896.5" fill="none" stroke="url(#ribbon1051)" stroke-width="30.4" stroke-linecap="round" stroke-opacity="0.302" /></g><g transform="rotate(-16.92 1536.0 1536.0)"><path d="M-368.6 2026.7 C -264.8 2114.2, -119.3 1934.5, -22.3 2080.1 C 81.5 2079.1, 227.0 1981.0, 324.0 1993.4 C 427.8 1992.7, 573.3 2043.5, 670.3 1927.0 C 774.1 1945.2, 919.6 2145.1, 1016.6 1921.0 C 1120.4 1928.0, 1265.9 2133.1, 1362.9 1979.2 C 1466.7 1963.1, 1612.2 2056.6, 1709.1 2066.2 C 1813.0 2070.9, 1958.5 1999.7, 2055.4 2129.3 C 2159.3 2156.6, 2304.8 1931.8, 2401.7 2130.2 C 2505.6 2167.4, 2651.1 1973.1, 2748.0 2068.3 C 2851.9 2052.5, 2997.4 2003.7, 3094.3 1981.2 C 3198.2 1973.2, 3343.7 2040.8, 3440.6 1921.8" fill="none" stroke="url(#ribbon1051)" stroke-width="26.4" stroke-linecap="round" stroke-opacity="0.328" /></g><g transform="rotate(-16.34 1536.0 1536.0)"><path d="M-368.6 2324.9 C -273.4 2277.3, -140.1 2342.3, -51.2 2217.8 C 44.0 2247.8, 177.4 2380.2, 266.2 2213.3 C 361.5 2207.6, 494.8 2388.1, 583.7 2276.6 C 678.9 2276.0, 812.2 2354.8, 901.1 2369.1 C 996.4 2386.6, 1129.7 2299.2, 1218.6 2434.9 C 1313.8 2441.1, 1447.1 2247.0, 1536.0 2433.9 C 1631.2 2413.7, 1764.6 2242.1, 1853.4 2366.9 C 1948.7 2363.0, 2082.0 2307.4, 2170.9 2274.3 C 2266.1 2270.4, 2399.4 2384.1, 2488.3 2212.5 C 2583.6 2221.3, 2716.9 2429.9, 2805.8 2218.9 C 2901.0 2179.3, 3034.3 2429.9, 3123.2 2289.6 C 3218.4 2287.8, 3351.8 2351.9, 3440.6 2381.7" fill="none" stroke="url(#ribbon1051)" stroke-width="22.4" stroke-linecap="round" stroke-opacity="0.354" /></g><g transform="rotate(-15.76 1536.0 1536.0)"><path d="M-368.6 2495.0 C -225.8 2535.1, -25.8 2471.9, 107.5 2434.3 C 250.4 2450.7, 450.4 2532.2, 583.7 2373.5 C 726.5 2349.2, 926.5 2631.4, 1059.8 2386.4 C 1202.7 2416.8, 1402.7 2603.4, 1536.0 2465.1 C 1678.8 2475.6, 1878.8 2509.7, 2012.2 2561.9 C 2155.0 2568.8, 2355.0 2455.4, 2488.3 2618.1 C 2631.2 2592.7, 2831.2 2400.5, 2964.5 2599.6 C 3107.3 2596.9, 3307.3 2403.6, 3440.6 2517.6" fill="none" stroke="url(#ribbon1051)" stroke-width="18.4" stroke-linecap="round" stroke-opacity="0.380" /></g><g transform="rotate(-15.18 1536.0 1536.0)"><path d="M-368.6 2671.8 C -241.7 2805.0, -63.9 2598.5, 54.6 2803.6 C 181.6 2838.2, 359.4 2621.1, 477.9 2751.1 C 604.8 2743.1, 782.6 2594.1, 901.1 2650.5 C 1028.1 2649.4, 1205.9 2688.8, 1324.4 2562.8 C 1451.3 2602.5, 1629.1 2744.1, 1747.6 2541.1 C 1874.6 2512.9, 2052.4 2782.5, 2170.9 2598.8 C 2297.9 2609.6, 2475.6 2726.6, 2594.1 2700.7 C 2721.1 2697.7, 2898.9 2645.3, 3017.4 2785.0 C 3144.4 2809.0, 3322.1 2603.0, 3440.6 2800.7" fill="none" stroke="url(#ribbon1051)" stroke-width="14.4" stroke-linecap="round" stroke-opacity="0.406" /></g></g>
  <g><ellipse cx="1536.0" cy="1551.9" rx="728.6" ry="605.7" fill="url(#extrude1051)" opacity="0.220" /><ellipse cx="1536.0" cy="1567.7" rx="736.0" ry="610.9" fill="url(#extrude1051)" opacity="0.205" /><ellipse cx="1536.0" cy="1583.6" rx="743.4" ry="616.1" fill="url(#extrude1051)" opacity="0.190" /><ellipse cx="1536.0" cy="1599.5" rx="750.9" ry="621.3" fill="url(#extrude1051)" opacity="0.175" /><ellipse cx="1536.0" cy="1615.4" rx="758.3" ry="626.5" fill="url(#extrude1051)" opacity="0.160" /><ellipse cx="1536.0" cy="1631.2" rx="765.7" ry="631.7" fill="url(#extrude1051)" opacity="0.145" /><ellipse cx="1536.0" cy="1647.1" rx="773.2" ry="636.9" fill="url(#extrude1051)" opacity="0.130" /><ellipse cx="1536.0" cy="1663.0" rx="780.6" ry="642.1" fill="url(#extrude1051)" opacity="0.115" /><ellipse cx="1536.0" cy="1678.8" rx="788.0" ry="647.4" fill="url(#extrude1051)" opacity="0.100" /><ellipse cx="1536.0" cy="1694.7" rx="795.5" ry="652.6" fill="url(#extrude1051)" opacity="0.085" /><ellipse cx="1536.0" cy="1710.6" rx="802.9" ry="657.8" fill="url(#extrude1051)" opacity="0.070" /><ellipse cx="1536.0" cy="1726.5" rx="810.3" ry="663.0" fill="url(#extrude1051)" opacity="0.055" /></g>
  <ellipse cx="1536.0" cy="1726.5" rx="773.2" ry="214.9" fill="#0B1D2D" opacity="0.24" />
  <ellipse cx="1536.0" cy="1536.0" rx="743.4" ry="651.3" fill="url(#orb1051)" stroke="#FFFFFF" stroke-opacity="0.42" stroke-width="7" />
  <ellipse cx="1431.9" cy="1392.7" rx="505.5" ry="299.6" fill="#FFFFFF" opacity="0.25" />
  <path d="M 199.4 399.4 C 1013.8 -30.7, 2058.2 768.0, 2872.6 215.0 L 2872.6 983.0 C 2089.0 1228.8, 1013.8 307.2, 199.4 1167.4 Z" fill="url(#glass1051)" />
  <rect x="270" y="270" width="2532" height="2532" rx="430" fill="none" stroke="#FFFFFF" stroke-opacity="0.30" stroke-width="5" />
  <rect x="288.4" y="288.4" width="2495.1" height="2495.1" rx="399" fill="none" stroke="#3B82FF" stroke-opacity="0.35" stroke-width="3" />
  <g filter="url(#soft1051)"><rect x="2393" y="1919" width="34" height="2" fill="#FFFFFF" opacity="0.770" /><rect x="2409" y="1903" width="2" height="34" fill="#FFFFFF" opacity="0.770" /><rect x="1532" y="1887" width="24" height="2" fill="#FFFFFF" opacity="0.697" /><rect x="1543" y="1876" width="2" height="24" fill="#FFFFFF" opacity="0.697" /><rect x="1248" y="2112" width="54" height="2" fill="#FFFFFF" opacity="0.659" /><rect x="1274" y="2086" width="2" height="54" fill="#FFFFFF" opacity="0.659" /><rect x="1529" y="1248" width="82" height="2" fill="#FFFFFF" opacity="0.572" /><rect x="1569" y="1208" width="2" height="82" fill="#FFFFFF" opacity="0.572" /><rect x="1651" y="874" width="28" height="2" fill="#FFFFFF" opacity="0.392" /><rect x="1664" y="861" width="2" height="28" fill="#FFFFFF" opacity="0.392" /><rect x="1777" y="1182" width="34" height="2" fill="#FFFFFF" opacity="0.614" /><rect x="1793" y="1166" width="2" height="34" fill="#FFFFFF" opacity="0.614" /><rect x="1282" y="1263" width="52" height="2" fill="#FFFFFF" opacity="0.843" /><rect x="1307" y="1238" width="2" height="52" fill="#FFFFFF" opacity="0.843" /><rect x="421" y="410" width="56" height="2" fill="#FFFFFF" opacity="0.637" /><rect x="448" y="383" width="2" height="56" fill="#FFFFFF" opacity="0.637" /><rect x="1076" y="2521" width="66" height="2" fill="#FFFFFF" opacity="0.421" /><rect x="1108" y="2489" width="2" height="66" fill="#FFFFFF" opacity="0.421" /><rect x="2479" y="1131" width="58" height="2" fill="#FFFFFF" opacity="0.377" /><rect x="2507" y="1103" width="2" height="58" fill="#FFFFFF" opacity="0.377" /><rect x="944" y="1315" width="68" height="2" fill="#FFFFFF" opacity="0.849" /><rect x="977" y="1282" width="2" height="68" fill="#FFFFFF" opacity="0.849" /><rect x="1089" y="1836" width="46" height="2" fill="#FFFFFF" opacity="0.820" /><rect x="1111" y="1814" width="2" height="46" fill="#FFFFFF" opacity="0.820" /><rect x="842" y="2586" width="50" height="2" fill="#FFFFFF" opacity="0.465" /><rect x="866" y="2562" width="2" height="50" fill="#FFFFFF" opacity="0.465" /><rect x="1959" y="2262" width="36" height="2" fill="#FFFFFF" opacity="0.754" /><rect x="1976" y="2245" width="2" height="36" fill="#FFFFFF" opacity="0.754" /><rect x="1930" y="2218" width="34" height="2" fill="#FFFFFF" opacity="0.350" /><rect x="1946" y="2202" width="2" height="34" fill="#FFFFFF" opacity="0.350" /><rect x="2590" y="303" width="58" height="2" fill="#FFFFFF" opacity="0.639" /><rect x="2618" y="275" width="2" height="58" fill="#FFFFFF" opacity="0.639" /><rect x="361" y="1979" width="78" height="2" fill="#FFFFFF" opacity="0.718" /><rect x="399" y="1941" width="2" height="78" fill="#FFFFFF" opacity="0.718" /><rect x="1926" y="1045" width="68" height="2" fill="#FFFFFF" opacity="0.601" /><rect x="1959" y="1012" width="2" height="68" fill="#FFFFFF" opacity="0.601" /><rect x="1476" y="1319" width="72" height="2" fill="#FFFFFF" opacity="0.791" /><rect x="1511" y="1284" width="2" height="72" fill="#FFFFFF" opacity="0.791" /><rect x="2525" y="2665" width="28" height="2" fill="#FFFFFF" opacity="0.804" /><rect x="2538" y="2652" width="2" height="28" fill="#FFFFFF" opacity="0.804" /><rect x="1151" y="1291" width="56" height="2" fill="#FFFFFF" opacity="0.482" /><rect x="1178" y="1264" width="2" height="56" fill="#FFFFFF" opacity="0.482" /><rect x="2765" y="2006" width="70" height="2" fill="#FFFFFF" opacity="0.331" /><rect x="2799" y="1972" width="2" height="70" fill="#FFFFFF" opacity="0.331" /><rect x="300" y="443" width="34" height="2" fill="#FFFFFF" opacity="0.612" /><rect x="316" y="427" width="2" height="34" fill="#FFFFFF" opacity="0.612" /><rect x="2123" y="2192" width="34" height="2" fill="#FFFFFF" opacity="0.649" /><rect x="2139" y="2176" width="2" height="34" fill="#FFFFFF" opacity="0.649" /><rect x="1781" y="316" width="40" height="2" fill="#FFFFFF" opacity="0.541" /><rect x="1800" y="297" width="2" height="40" fill="#FFFFFF" opacity="0.541" /><rect x="1033" y="2150" width="66" height="2" fill="#FFFFFF" opacity="0.437" /><rect x="1065" y="2118" width="2" height="66" fill="#FFFFFF" opacity="0.437" /></g>
  <g opacity="0.52"><circle cx="1572" cy="1582" r="384" fill="none" stroke="#0C2030" stroke-width="90" /><circle cx="1572" cy="1582" r="153" fill="#0C2030" /><line x1="1572" y1="967" x2="1572" y2="1198" stroke="#0C2030" stroke-width="90" /><line x1="1572" y1="2197" x2="1572" y2="1966" stroke="#0C2030" stroke-width="90" /><line x1="957" y1="1582" x2="1188" y2="1582" stroke="#0C2030" stroke-width="90" /><line x1="2187" y1="1582" x2="1956" y2="1582" stroke="#0C2030" stroke-width="90" /></g>
  <g filter="url(#soft1051)"><circle cx="1536" cy="1536" r="384" fill="none" stroke="url(#symbol1051)" stroke-width="90" /><circle cx="1536" cy="1536" r="153" fill="url(#symbol1051)" /><line x1="1536" y1="921" x2="1536" y2="1152" stroke="url(#symbol1051)" stroke-width="90" /><line x1="1536" y1="2151" x2="1536" y2="1920" stroke="url(#symbol1051)" stroke-width="90" /><line x1="921" y1="1536" x2="1152" y2="1536" stroke="url(#symbol1051)" stroke-width="90" /><line x1="2151" y1="1536" x2="1920" y2="1536" stroke="url(#symbol1051)" stroke-width="90" /></g>
  <rect x="138" y="138" width="2796" height="2796" rx="629" fill="#FFFFFF" filter="url(#grain1051)" opacity="0.18" />
</svg>
