<svg xmlns="http://www.w3.org/2000/svg" width="3072" height="3072" viewBox="0 0 3072 3072">
  <title>QuartzOS System Icon 032 - security_02</title>
  <defs><linearGradient id="bg1031" x1="0%" y1="0%" x2="100%" y2="100%"><stop offset="0%" stop-color="#8A5CFF" /><stop offset="26%" stop-color="#FF9F43" /><stop offset="56%" stop-color="#53E3A6" /><stop offset="78%" stop-color="#4BA7D0" /><stop offset="100%" stop-color="#122A3D" /></linearGradient><radialGradient id="sun1031" cx="47%" cy="16%" r="88%"><stop offset="0%" stop-color="#FFFFFF" stop-opacity="0.62" /><stop offset="30%" stop-color="#36D1FF" stop-opacity="0.35" /><stop offset="100%" stop-color="#36D1FF" stop-opacity="0" /></radialGradient><linearGradient id="glass1031" x1="0%" y1="0%" x2="0%" y2="100%"><stop offset="0%" stop-color="#FFFFFF" stop-opacity="0.70" /><stop offset="46%" stop-color="#FFFFFF" stop-opacity="0.26" /><stop offset="100%" stop-color="#FFFFFF" stop-opacity="0.00" /></linearGradient><linearGradient id="ribbon1031" x1="0%" y1="0%" x2="100%" y2="0%"><stop offset="0%" stop-color="#8A5CFF" stop-opacity="0.18" /><stop offset="34%" stop-color="#FF9F43" stop-opacity="0.72" /><stop offset="66%" stop-color="#53E3A6" stop-opacity="0.72" /><stop offset="100%" stop-color="#36D1FF" stop-opacity="0.18" /></linearGradient><radialGradient id="orb1031" cx="34%" cy="27%" r="74%"><stop offset="0%" stop-color="#FFFFFF" stop-opacity="0.84" /><stop offset="30%" stop-color="#8A5CFF" stop-opacity="0.52" /><stop offset="68%" stop-color="#FF9F43" stop-opacity="0.42" /><stop offset="100%" stop-color="#53E3A6" stop-opacity="0.20" /></radialGradient><linearGradient id="extrude1031" x1="0%" y1="0%" x2="0%" y2="100%"><stop offset="0%" stop-color="#15283C" stop-opacity="0.45" /><stop offset="100%" stop-color="#08131D" stop-opacity="0.06" /></linearGradient><linearGradient id="symbol1031" x1="0%" y1="0%" x2="100%" y2="100%"><stop offset="0%" stop-color="#FFFFFF" /><stop offset="100%" stop-color="#36D1FF" /></linearGradient><filter id="shadow1031" x="-40%" y="-40%" width="180%" height="180%"><feDropShadow dx="0" dy="49" stdDeviation="86" flood-color="#06111A" flood-opacity="0.54" /></filter><filter id="soft1031" x="-40%" y="-40%" width="180%" height="180%"><feDropShadow dx="0" dy="0" stdDeviation="14" flood-color="#8A5CFF" flood-opacity="0.45" /></filter><filter id="grain1031"><feTurbulence type="fractalNoise" baseFrequency="0.994" numOctaves="2" seed="1031" /><feColorMatrix type="saturate" values="0" /><feComponentTransfer><feFuncA type="table" tableValues="0 0.09" /></feComponentTransfer></filter></defs>
  <rect x="138" y="138" width="2796" height="2796" rx="629" fill="url(#bg1031)" filter="url(#shadow1031)" />
  <rect x="138" y="138" width="2796" height="2796" rx="629" fill="url(#sun1031)" />
  <g><circle cx="1460" cy="1812" r="95" fill="#FFFFFF" opacity="0.082" /><circle cx="2700" cy="1134" r="141" fill="#FFFFFF" opacity="0.233" /><circle cx="2360" cy="2032" r="87" fill="#FFFFFF" opacity="0.218" /><circle cx="721" cy="1649" r="114" fill="#FFFFFF" opacity="0.077" /><circle cx="1551" cy="2049" r="155" fill="#FFFFFF" opacity="0.125" /><circle cx="1769" cy="442" r="153" fill="#FFFFFF" opacity="0.186" /><circle cx="1863" cy="1087" r="75" fill="#FFFFFF" opacity="0.224" /><circle cx="1048" cy="2161" r="150" fill="#FFFFFF" opacity="0.237" /><circle cx="2451" cy="2566" r="64" fill="#FFFFFF" opacity="0.205" /><circle cx="493" cy="2363" r="125" fill="#FFFFFF" opacity="0.210" /><circle cx="2576" cy="2240" r="123" fill="#FFFFFF" opacity="0.157" /><circle cx="2411" cy="883" r="42" fill="#FFFFFF" opacity="0.217" /><circle cx="2608" cy="1640" r="156" fill="#FFFFFF" opacity="0.076" /><circle cx="2683" cy="2177" r="40" fill="#FFFFFF" opacity="0.156" /><circle cx="2267" cy="1305" r="123" fill="#FFFFFF" opacity="0.122" /><circle cx="2200" cy="2635" r="82" fill="#FFFFFF" opacity="0.099" /><circle cx="752" cy="2545" r="108" fill="#FFFFFF" opacity="0.153" /><circle cx="1529" cy="805" r="138" fill="#FFFFFF" opacity="0.156" /><circle cx="1106" cy="970" r="65" fill="#FFFFFF" opacity="0.176" /><circle cx="2136" cy="1777" r="158" fill="#FFFFFF" opacity="0.163" /><circle cx="2467" cy="531" r="80" fill="#FFFFFF" opacity="0.088" /><circle cx="2507" cy="1355" r="90" fill="#FFFFFF" opacity="0.102" /><circle cx="1225" cy="2559" r="73" fill="#FFFFFF" opacity="0.153" /><circle cx="834" cy="324" r="44" fill="#FFFFFF" opacity="0.179" /><circle cx="1072" cy="937" r="141" fill="#FFFFFF" opacity="0.219" /><circle cx="1932" cy="895" r="148" fill="#FFFFFF" opacity="0.188" /><circle cx="1612" cy="2587" r="79" fill="#FFFFFF" opacity="0.221" /><circle cx="369" cy="2111" r="50" fill="#FFFFFF" opacity="0.143" /></g>
  <g><path d="M 256.7 574.7 L 2724.8 298.3 L 2724.8 751.9 L 256.7 1028.3 Z" fill="#FFFFFF" opacity="0.091" /><path d="M 223.8 870.7 L 2882.9 594.2 L 2882.9 1079.6 L 223.8 1356.0 Z" fill="#FFFFFF" opacity="0.146" /><path d="M 298.0 1138.6 L 2762.9 862.2 L 2762.9 1341.7 L 298.0 1618.2 Z" fill="#FFFFFF" opacity="0.130" /><path d="M 214.3 1372.5 L 2920.4 1096.0 L 2920.4 1543.8 L 214.3 1820.3 Z" fill="#FFFFFF" opacity="0.167" /><path d="M 260.9 1623.3 L 2690.7 1346.8 L 2690.7 1786.2 L 260.9 2062.7 Z" fill="#FFFFFF" opacity="0.179" /><path d="M 149.1 1924.0 L 2799.6 1647.5 L 2799.6 2106.0 L 149.1 2382.5 Z" fill="#FFFFFF" opacity="0.220" /><path d="M 290.0 2214.9 L 2720.3 1938.4 L 2720.3 2365.0 L 290.0 2641.5 Z" fill="#FFFFFF" opacity="0.178" /><path d="M 229.2 2475.7 L 2893.8 2199.2 L 2893.8 2629.6 L 229.2 2906.0 Z" fill="#FFFFFF" opacity="0.178" /></g>
  <g filter="url(#soft1031)"><g transform="rotate(-19.07 1536.0 1536.0)"><path d="M-368.6 490.6 C -225.8 531.4, -25.8 447.2, 107.5 500.4 C 250.4 498.9, 450.4 485.4, 583.7 458.4 C 726.5 456.5, 926.5 500.3, 1059.8 435.9 C 1202.7 434.5, 1402.7 536.9, 1536.0 446.5 C 1678.8 458.5, 1878.8 526.5, 2012.2 483.9 C 2155.0 481.2, 2355.0 496.5, 2488.3 525.3 C 2631.2 522.2, 2831.2 478.9, 2964.5 545.6 C 3107.3 552.4, 3307.3 438.0, 3440.6 532.6" fill="none" stroke="url(#ribbon1031)" stroke-width="58.4" stroke-linecap="round" stroke-opacity="0.120" /></g><g transform="rotate(-18.49 1536.0 1536.0)"><path d="M-368.6 674.5 C -241.7 641.8, -63.9 705.0, 54.6 683.6 C 181.6 685.3, 359.4 664.8, 477.9 725.1 C 604.8 744.2, 782.6 619.5, 901.1 735.9 C 1028.1 726.9, 1205.9 610.8, 1324.4 709.4 C 1451.3 707.1, 1629.1 639.3, 1747.6 661.7 C 1874.6 665.3, 2052.4 678.5, 2170.9 621.8 C 2297.9 612.3, 2475.6 705.9, 2594.1 613.8 C 2721.1 590.0, 2898.9 721.8, 3017.4 642.6 C 3144.4 635.6, 3322.1 707.9, 3440.6 690.7" fill="none" stroke="url(#ribbon1031)" stroke-width="54.4" stroke-linecap="round" stroke-opacity="0.146" /></g><g transform="rotate(-17.91 1536.0 1536.0)"><path d="M-368.6 866.3 C -254.4 927.2, -94.4 848.2, 12.3 867.8 C 126.6 867.7, 286.6 865.9, 393.2 817.6 C 507.5 813.5, 667.5 899.9, 774.1 796.9 C 888.4 796.3, 1048.4 933.1, 1155.1 818.3 C 1269.4 807.7, 1429.3 907.0, 1536.0 868.9 C 1650.3 868.2, 1810.3 864.5, 1916.9 917.9 C 2031.2 922.5, 2191.2 835.9, 2297.9 935.6 C 2412.1 935.7, 2572.1 801.9, 2678.8 911.3 C 2793.1 904.7, 2953.1 841.9, 3059.7 859.7 C 3174.0 858.4, 3334.0 873.2, 3440.6 812.1" fill="none" stroke="url(#ribbon1031)" stroke-width="50.4" stroke-linecap="round" stroke-opacity="0.172" /></g><g transform="rotate(-17.33 1536.0 1536.0)"><path d="M-368.6 1093.1 C -264.8 1144.6, -119.3 1069.5, -22.3 1108.3 C 81.5 1102.9, 227.0 1079.9, 324.0 1049.9 C 427.8 1058.7, 573.3 1133.6, 670.3 1017.7 C 774.1 1017.6, 919.6 1173.4, 1016.6 1031.2 C 1120.4 1048.3, 1265.9 1122.7, 1362.9 1082.2 C 1466.7 1079.1, 1612.2 1099.6, 1709.1 1139.8 C 1813.0 1157.3, 1958.5 1056.1, 2055.4 1169.1 C 2159.3 1182.0, 2304.8 1038.2, 2401.7 1152.2 C 2505.6 1144.6, 2651.1 1071.2, 2748.0 1099.5 C 2851.9 1098.4, 2997.4 1089.2, 3094.3 1042.9 C 3198.2 1054.4, 3343.7 1119.3, 3440.6 1016.7" fill="none" stroke="url(#ribbon1031)" stroke-width="46.4" stroke-linecap="round" stroke-opacity="0.198" /></g><g transform="rotate(-16.75 1536.0 1536.0)"><path d="M-368.6 1279.7 C -273.4 1317.3, -140.1 1252.0, -51.2 1362.4 C 44.0 1382.6, 177.4 1241.1, 266.2 1345.8 C 361.5 1324.1, 494.8 1209.8, 583.7 1289.1 C 678.9 1291.9, 812.2 1274.4, 901.1 1226.7 C 996.4 1247.2, 1129.7 1331.8, 1218.6 1196.4 C 1313.8 1209.5, 1447.1 1374.4, 1536.0 1216.7 C 1631.2 1221.9, 1764.6 1347.5, 1853.4 1275.2 C 1948.7 1273.6, 2082.0 1284.8, 2170.9 1336.4 C 2266.1 1338.9, 2399.4 1248.5, 2488.3 1363.2 C 2583.6 1360.6, 2716.9 1246.7, 2805.8 1339.4 C 2901.0 1342.1, 3034.3 1231.5, 3123.2 1279.4 C 3218.4 1279.4, 3351.8 1279.8, 3440.6 1219.5" fill="none" stroke="url(#ribbon1031)" stroke-width="42.4" stroke-linecap="round" stroke-opacity="0.224" /></g><g transform="rotate(-16.17 1536.0 1536.0)"><path d="M-368.6 1532.9 C -225.8 1481.9, -25.8 1555.2, 107.5 1550.5 C 250.4 1552.1, 450.4 1512.7, 583.7 1608.9 C 726.5 1600.3, 926.5 1463.8, 1059.8 1621.3 C 1202.7 1653.5, 1402.7 1495.8, 1536.0 1580.0 C 1678.8 1580.1, 1878.8 1515.1, 2012.2 1510.2 C 2155.0 1513.5, 2355.0 1551.8, 2488.3 1454.2 C 2631.2 1461.5, 2831.2 1589.0, 2964.5 1445.9 C 3107.3 1425.0, 3307.3 1628.7, 3440.6 1490.4" fill="none" stroke="url(#ribbon1031)" stroke-width="38.4" stroke-linecap="round" stroke-opacity="0.250" /></g><g transform="rotate(-15.59 1536.0 1536.0)"><path d="M-368.6 1676.7 C -241.7 1650.3, -63.9 1696.4, 54.6 1587.3 C 181.6 1573.9, 359.4 1744.0, 477.9 1586.2 C 604.8 1616.0, 782.6 1731.4, 901.1 1640.0 C 1028.1 1637.8, 1205.9 1691.7, 1324.4 1716.1 C 1451.3 1728.3, 1629.1 1643.2, 1747.6 1768.3 C 1874.6 1752.1, 2052.4 1635.7, 2170.9 1764.9 C 2297.9 1749.4, 2475.6 1610.6, 2594.1 1708.1 C 2721.1 1708.5, 2898.9 1642.0, 3017.4 1632.2 C 3144.4 1644.7, 3322.1 1729.6, 3440.6 1583.3" fill="none" stroke="url(#ribbon1031)" stroke-width="34.4" stroke-linecap="round" stroke-opacity="0.276" /></g><g transform="rotate(-15.01 1536.0 1536.0)"><path d="M-368.6 1878.4 C -254.4 1779.9, -94.4 1960.7, 12.3 1777.3 C 126.6 1748.6, 286.6 1955.5, 393.2 1827.7 C 507.5 1831.5, 667.5 1938.0, 774.1 1908.8 C 888.4 1902.3, 1048.4 1843.3, 1155.1 1971.5 C 1269.4 1950.7, 1429.3 1789.4, 1536.0 1977.7 C 1650.3 1965.0, 1810.3 1815.3, 1916.9 1923.7 C 2031.2 1905.9, 2191.2 1862.0, 2297.9 1842.2 C 2412.1 1842.7, 2572.1 1917.1, 2678.8 1782.7 C 2793.1 1801.5, 2953.1 1913.4, 3059.7 1781.2 C 3174.0 1773.7, 3334.0 1925.9, 3440.6 1838.7" fill="none" stroke="url(#ribbon1031)" stroke-width="30.4" stroke-linecap="round" stroke-opacity="0.302" /></g><g transform="rotate(-14.43 1536.0 1536.0)"><path d="M-368.6 2095.1 C -264.8 2133.3, -119.3 2069.1, -22.3 2040.1 C 81.5 2056.3, 227.0 2141.5, 324.0 1987.0 C 427.8 1992.7, 573.3 2223.6, 670.3 1999.4 C 774.1 2028.8, 919.6 2166.7, 1016.6 2069.9 C 1120.4 2062.2, 1265.9 2114.0, 1362.9 2155.7 C 1466.7 2171.3, 1612.2 2057.6, 1709.1 2204.8 C 1813.0 2222.9, 1958.5 2053.6, 2055.4 2187.3 C 2159.3 2176.2, 2304.8 2058.6, 2401.7 2113.9 C 2505.6 2111.2, 2651.1 2085.6, 2748.0 2029.2 C 2851.9 2046.7, 2997.4 2173.8, 3094.3 1984.4 C 3198.2 1963.3, 3343.7 2211.2, 3440.6 2006.8" fill="none" stroke="url(#ribbon1031)" stroke-width="26.4" stroke-linecap="round" stroke-opacity="0.328" /></g><g transform="rotate(-13.85 1536.0 1536.0)"><path d="M-368.6 2273.4 C -273.4 2210.6, -140.1 2304.4, -51.2 2276.9 C 44.0 2276.4, 177.4 2272.0, 266.2 2361.1 C 361.5 2347.5, 494.8 2224.5, 583.7 2392.1 C 678.9 2415.4, 812.2 2232.1, 901.1 2351.1 C 996.4 2370.2, 1129.7 2196.4, 1218.6 2262.9 C 1313.8 2265.6, 1447.1 2280.4, 1536.0 2181.2 C 1631.2 2204.0, 1764.6 2335.3, 1853.4 2155.3 C 1948.7 2170.9, 2082.0 2340.9, 2170.9 2201.1 C 2266.1 2191.3, 2399.4 2324.3, 2488.3 2290.7 C 2583.6 2297.3, 2716.9 2260.0, 2805.8 2369.8 C 2901.0 2353.5, 3034.3 2200.5, 3123.2 2390.4 C 3218.4 2358.4, 3351.8 2206.1, 3440.6 2340.0" fill="none" stroke="url(#ribbon1031)" stroke-width="22.4" stroke-linecap="round" stroke-opacity="0.354" /></g><g transform="rotate(-13.27 1536.0 1536.0)"><path d="M-368.6 2419.4 C -225.8 2501.7, -25.8 2348.4, 107.5 2542.5 C 250.4 2521.1, 450.4 2276.1, 583.7 2524.2 C 726.5 2503.0, 926.5 2373.1, 1059.8 2442.4 C 1202.7 2448.9, 1402.7 2410.0, 1536.0 2346.6 C 1678.8 2357.6, 1878.8 2446.5, 2012.2 2294.9 C 2155.0 2256.7, 2355.0 2494.1, 2488.3 2318.8 C 2631.2 2295.3, 2831.2 2501.8, 2964.5 2403.7 C 3107.3 2409.7, 3307.3 2430.0, 3440.6 2498.1" fill="none" stroke="url(#ribbon1031)" stroke-width="18.4" stroke-linecap="round" stroke-opacity="0.380" /></g><g transform="rotate(-12.69 1536.0 1536.0)"><path d="M-368.6 2645.7 C -241.7 2585.9, -63.9 2698.4, 54.6 2520.7 C 181.6 2556.9, 359.4 2788.3, 477.9 2526.0 C 604.8 2553.7, 782.6 2747.0, 901.1 2603.9 C 1028.1 2613.1, 1205.9 2677.2, 1324.4 2707.2 C 1451.3 2693.5, 1629.1 2597.2, 1747.6 2773.2 C 1874.6 2809.5, 2052.4 2597.2, 2170.9 2761.9 C 2297.9 2718.3, 2475.6 2544.4, 2594.1 2680.1 C 2721.1 2680.5, 2898.9 2606.9, 3017.4 2577.5 C 3144.4 2577.2, 3322.1 2688.9, 3440.6 2516.3" fill="none" stroke="url(#ribbon1031)" stroke-width="14.4" stroke-linecap="round" stroke-opacity="0.406" /></g></g>
  <g><ellipse cx="1536.0" cy="1551.9" rx="728.6" ry="605.7" fill="url(#extrude1031)" opacity="0.220" /><ellipse cx="1536.0" cy="1567.7" rx="736.0" ry="610.9" fill="url(#extrude1031)" opacity="0.205" /><ellipse cx="1536.0" cy="1583.6" rx="743.4" ry="616.1" fill="url(#extrude1031)" opacity="0.190" /><ellipse cx="1536.0" cy="1599.5" rx="750.9" ry="621.3" fill="url(#extrude1031)" opacity="0.175" /><ellipse cx="1536.0" cy="1615.4" rx="758.3" ry="626.5" fill="url(#extrude1031)" opacity="0.160" /><ellipse cx="1536.0" cy="1631.2" rx="765.7" ry="631.7" fill="url(#extrude1031)" opacity="0.145" /><ellipse cx="1536.0" cy="1647.1" rx="773.2" ry="636.9" fill="url(#extrude1031)" opacity="0.130" /><ellipse cx="1536.0" cy="1663.0" rx="780.6" ry="642.1" fill="url(#extrude1031)" opacity="0.115" /><ellipse cx="1536.0" cy="1678.8" rx="788.0" ry="647.4" fill="url(#extrude1031)" opacity="0.100" /><ellipse cx="1536.0" cy="1694.7" rx="795.5" ry="652.6" fill="url(#extrude1031)" opacity="0.085" /><ellipse cx="1536.0" cy="1710.6" rx="802.9" ry="657.8" fill="url(#extrude1031)" opacity="0.070" /><ellipse cx="1536.0" cy="1726.5" rx="810.3" ry="663.0" fill="url(#extrude1031)" opacity="0.055" /></g>
  <ellipse cx="1536.0" cy="1726.5" rx="773.2" ry="214.9" fill="#0B1D2D" opacity="0.24" />
  <ellipse cx="1536.0" cy="1536.0" rx="743.4" ry="651.3" fill="url(#orb1031)" stroke="#FFFFFF" stroke-opacity="0.42" stroke-width="7" />
  <ellipse cx="1431.9" cy="1392.7" rx="505.5" ry="299.6" fill="#FFFFFF" opacity="0.25" />
  <path d="M 199.4 399.4 C 1013.8 -30.7, 2058.2 768.0, 2872.6 215.0 L 2872.6 983.0 C 2089.0 1228.8, 1013.8 307.2, 199.4 1167.4 Z" fill="url(#glass1031)" />
  <rect x="270" y="270" width="2532" height="2532" rx="430" fill="none" stroke="#FFFFFF" stroke-opacity="0.30" stroke-width="5" />
  <rect x="288.4" y="288.4" width="2495.1" height="2495.1" rx="399" fill="none" stroke="#8A5CFF" stroke-opacity="0.35" stroke-width="3" />
  <g filter="url(#soft1031)"><rect x="2455" y="352" width="62" height="2" fill="#FFFFFF" opacity="0.697" /><rect x="2485" y="322" width="2" height="62" fill="#FFFFFF" opacity="0.697" /><rect x="339" y="1498" width="78" height="2" fill="#FFFFFF" opacity="0.531" /><rect x="377" y="1460" width="2" height="78" fill="#FFFFFF" opacity="0.531" /><rect x="1842" y="1240" width="64" height="2" fill="#FFFFFF" opacity="0.612" /><rect x="1873" y="1209" width="2" height="64" fill="#FFFFFF" opacity="0.612" /><rect x="939" y="675" width="52" height="2" fill="#FFFFFF" opacity="0.366" /><rect x="964" y="650" width="2" height="52" fill="#FFFFFF" opacity="0.366" /><rect x="1217" y="1821" width="84" height="2" fill="#FFFFFF" opacity="0.792" /><rect x="1258" y="1780" width="2" height="84" fill="#FFFFFF" opacity="0.792" /><rect x="1581" y="1696" width="56" height="2" fill="#FFFFFF" opacity="0.332" /><rect x="1608" y="1669" width="2" height="56" fill="#FFFFFF" opacity="0.332" /><rect x="1501" y="699" width="64" height="2" fill="#FFFFFF" opacity="0.473" /><rect x="1532" y="668" width="2" height="64" fill="#FFFFFF" opacity="0.473" /><rect x="303" y="969" width="74" height="2" fill="#FFFFFF" opacity="0.434" /><rect x="339" y="933" width="2" height="74" fill="#FFFFFF" opacity="0.434" /><rect x="2251" y="1175" width="72" height="2" fill="#FFFFFF" opacity="0.563" /><rect x="2286" y="1140" width="2" height="72" fill="#FFFFFF" opacity="0.563" /><rect x="377" y="2450" width="42" height="2" fill="#FFFFFF" opacity="0.677" /><rect x="397" y="2430" width="2" height="42" fill="#FFFFFF" opacity="0.677" /><rect x="365" y="454" width="62" height="2" fill="#FFFFFF" opacity="0.610" /><rect x="395" y="424" width="2" height="62" fill="#FFFFFF" opacity="0.610" /><rect x="694" y="2196" width="44" height="2" fill="#FFFFFF" opacity="0.451" /><rect x="715" y="2175" width="2" height="44" fill="#FFFFFF" opacity="0.451" /><rect x="1329" y="1040" width="62" height="2" fill="#FFFFFF" opacity="0.336" /><rect x="1359" y="1010" width="2" height="62" fill="#FFFFFF" opacity="0.336" /><rect x="1641" y="2680" width="60" height="2" fill="#FFFFFF" opacity="0.837" /><rect x="1670" y="2651" width="2" height="60" fill="#FFFFFF" opacity="0.837" /><rect x="542" y="1513" width="60" height="2" fill="#FFFFFF" opacity="0.792" /><rect x="571" y="1484" width="2" height="60" fill="#FFFFFF" opacity="0.792" /><rect x="888" y="1440" width="58" height="2" fill="#FFFFFF" opacity="0.492" /><rect x="916" y="1412" width="2" height="58" fill="#FFFFFF" opacity="0.492" /><rect x="2498" y="1947" width="72" height="2" fill="#FFFFFF" opacity="0.740" /><rect x="2533" y="1912" width="2" height="72" fill="#FFFFFF" opacity="0.740" /><rect x="1947" y="1928" width="50" height="2" fill="#FFFFFF" opacity="0.495" /><rect x="1971" y="1904" width="2" height="50" fill="#FFFFFF" opacity="0.495" /><rect x="2413" y="1296" width="52" height="2" fill="#FFFFFF" opacity="0.352" /><rect x="2438" y="1271" width="2" height="52" fill="#FFFFFF" opacity="0.352" /><rect x="2772" y="1212" width="66" height="2" fill="#FFFFFF" opacity="0.580" /><rect x="2804" y="1180" width="2" height="66" fill="#FFFFFF" opacity="0.580" /><rect x="621" y="1865" width="76" height="2" fill="#FFFFFF" opacity="0.682" /><rect x="658" y="1828" width="2" height="76" fill="#FFFFFF" opacity="0.682" /><rect x="2201" y="2404" width="36" height="2" fill="#FFFFFF" opacity="0.472" /><rect x="2218" y="2387" width="2" height="36" fill="#FFFFFF" opacity="0.472" /><rect x="2245" y="717" width="76" height="2" fill="#FFFFFF" opacity="0.561" /><rect x="2282" y="680" width="2" height="76" fill="#FFFFFF" opacity="0.561" /><rect x="1313" y="1416" width="80" height="2" fill="#FFFFFF" opacity="0.314" /><rect x="1352" y="1377" width="2" height="80" fill="#FFFFFF" opacity="0.314" /><rect x="1668" y="758" width="38" height="2" fill="#FFFFFF" opacity="0.813" /><rect x="1686" y="740" width="2" height="38" fill="#FFFFFF" opacity="0.813" /><rect x="2804" y="959" width="28" height="2" fill="#FFFFFF" opacity="0.699" /><rect x="2817" y="946" width="2" height="28" fill="#FFFFFF" opacity="0.699" /></g>
  <g opacity="0.52"><path d="M996 1006 L2148 1006 L2148 2158 L996 2158 Z" fill="none" stroke="#0C2030" stroke-width="90" /><path d="M996 1582 L2148 1582" stroke="#0C2030" stroke-width="90" /><path d="M1572 1006 L1572 2158" stroke="#0C2030" stroke-width="90" /></g>
  <g filter="url(#soft1031)"><path d="M960 960 L2112 960 L2112 2112 L960 2112 Z" fill="none" stroke="url(#symbol1031)" stroke-width="90" /><path d="M960 1536 L2112 1536" stroke="url(#symbol1031)" stroke-width="90" /><path d="M1536 960 L1536 2112" stroke="url(#symbol1031)" stroke-width="90" /></g>
  <rect x="138" y="138" width="2796" height="2796" rx="629" fill="#FFFFFF" filter="url(#grain1031)" opacity="0.18" />
</svg>
