<svg xmlns="http://www.w3.org/2000/svg" width="3072" height="3072" viewBox="0 0 3072 3072">
  <title>QuartzOS System Icon 008 - storage_01</title>
  <defs><linearGradient id="bg1007" x1="0%" y1="0%" x2="100%" y2="100%"><stop offset="0%" stop-color="#53E3A6" /><stop offset="26%" stop-color="#3B82FF" /><stop offset="56%" stop-color="#FF6AB3" /><stop offset="78%" stop-color="#4BA7D0" /><stop offset="100%" stop-color="#122A3D" /></linearGradient><radialGradient id="sun1007" cx="32%" cy="13%" r="88%"><stop offset="0%" stop-color="#FFFFFF" stop-opacity="0.62" /><stop offset="30%" stop-color="#FF9F43" stop-opacity="0.35" /><stop offset="100%" stop-color="#FF9F43" stop-opacity="0" /></radialGradient><linearGradient id="glass1007" x1="0%" y1="0%" x2="0%" y2="100%"><stop offset="0%" stop-color="#FFFFFF" stop-opacity="0.70" /><stop offset="46%" stop-color="#FFFFFF" stop-opacity="0.26" /><stop offset="100%" stop-color="#FFFFFF" stop-opacity="0.00" /></linearGradient><linearGradient id="ribbon1007" x1="0%" y1="0%" x2="100%" y2="0%"><stop offset="0%" stop-color="#53E3A6" stop-opacity="0.18" /><stop offset="34%" stop-color="#3B82FF" stop-opacity="0.72" /><stop offset="66%" stop-color="#FF6AB3" stop-opacity="0.72" /><stop offset="100%" stop-color="#FF9F43" stop-opacity="0.18" /></linearGradient><radialGradient id="orb1007" cx="34%" cy="27%" r="74%"><stop offset="0%" stop-color="#FFFFFF" stop-opacity="0.84" /><stop offset="30%" stop-color="#53E3A6" stop-opacity="0.52" /><stop offset="68%" stop-color="#3B82FF" stop-opacity="0.42" /><stop offset="100%" stop-color="#FF6AB3" stop-opacity="0.20" /></radialGradient><linearGradient id="extrude1007" x1="0%" y1="0%" x2="0%" y2="100%"><stop offset="0%" stop-color="#15283C" stop-opacity="0.45" /><stop offset="100%" stop-color="#08131D" stop-opacity="0.06" /></linearGradient><linearGradient id="symbol1007" x1="0%" y1="0%" x2="100%" y2="100%"><stop offset="0%" stop-color="#FFFFFF" /><stop offset="100%" stop-color="#FF9F43" /></linearGradient><filter id="shadow1007" x="-40%" y="-40%" width="180%" height="180%"><feDropShadow dx="0" dy="49" stdDeviation="86" flood-color="#06111A" flood-opacity="0.54" /></filter><filter id="soft1007" x="-40%" y="-40%" width="180%" height="180%"><feDropShadow dx="0" dy="0" stdDeviation="14" flood-color="#53E3A6" flood-opacity="0.45" /></filter><filter id="grain1007"><feTurbulence type="fractalNoise" baseFrequency="0.964" numOctaves="2" seed="1007" /><feColorMatrix type="saturate" values="0" /><feComponentTransfer><feFuncA type="table" tableValues="0 0.09" /></feComponentTransfer></filter></defs>
  <rect x="138" y="138" width="2796" height="2796" rx="629" fill="url(#bg1007)" filter="url(#shadow1007)" />
  <rect x="138" y="138" width="2796" height="2796" rx="629" fill="url(#sun1007)" />
  <g><circle cx="810" cy="1432" r="95" fill="#FFFFFF" opacity="0.107" /><circle cx="633" cy="2094" r="129" fill="#FFFFFF" opacity="0.116" /><circle cx="1995" cy="2456" r="88" fill="#FFFFFF" opacity="0.200" /><circle cx="2040" cy="330" r="83" fill="#FFFFFF" opacity="0.191" /><circle cx="914" cy="545" r="59" fill="#FFFFFF" opacity="0.225" /><circle cx="530" cy="1950" r="121" fill="#FFFFFF" opacity="0.075" /><circle cx="2121" cy="627" r="39" fill="#FFFFFF" opacity="0.153" /><circle cx="425" cy="2141" r="55" fill="#FFFFFF" opacity="0.145" /><circle cx="964" cy="332" r="90" fill="#FFFFFF" opacity="0.125" /><circle cx="1046" cy="587" r="155" fill="#FFFFFF" opacity="0.218" /><circle cx="1810" cy="733" r="96" fill="#FFFFFF" opacity="0.125" /><circle cx="2463" cy="1507" r="71" fill="#FFFFFF" opacity="0.091" /><circle cx="814" cy="1680" r="84" fill="#FFFFFF" opacity="0.207" /><circle cx="1471" cy="670" r="129" fill="#FFFFFF" opacity="0.083" /><circle cx="933" cy="862" r="100" fill="#FFFFFF" opacity="0.191" /><circle cx="1132" cy="2508" r="83" fill="#FFFFFF" opacity="0.157" /><circle cx="823" cy="1415" r="116" fill="#FFFFFF" opacity="0.090" /><circle cx="1201" cy="2639" r="118" fill="#FFFFFF" opacity="0.121" /><circle cx="1978" cy="1706" r="96" fill="#FFFFFF" opacity="0.191" /><circle cx="2133" cy="484" r="50" fill="#FFFFFF" opacity="0.216" /><circle cx="1416" cy="839" r="112" fill="#FFFFFF" opacity="0.062" /><circle cx="1630" cy="1263" r="38" fill="#FFFFFF" opacity="0.080" /><circle cx="2612" cy="722" r="118" fill="#FFFFFF" opacity="0.099" /><circle cx="2443" cy="2552" r="104" fill="#FFFFFF" opacity="0.075" /><circle cx="2645" cy="2287" r="135" fill="#FFFFFF" opacity="0.193" /><circle cx="1044" cy="1368" r="61" fill="#FFFFFF" opacity="0.099" /><circle cx="2247" cy="667" r="109" fill="#FFFFFF" opacity="0.217" /><circle cx="1550" cy="2596" r="95" fill="#FFFFFF" opacity="0.210" /></g>
  <g><path d="M 206.8 609.8 L 2706.6 333.3 L 2706.6 796.8 L 206.8 1073.3 Z" fill="#FFFFFF" opacity="0.136" /><path d="M 385.5 910.3 L 2845.6 633.8 L 2845.6 1093.7 L 385.5 1370.2 Z" fill="#FFFFFF" opacity="0.150" /><path d="M 207.4 1126.6 L 2746.9 850.1 L 2746.9 1317.1 L 207.4 1593.6 Z" fill="#FFFFFF" opacity="0.191" /><path d="M 150.9 1399.2 L 2923.5 1122.7 L 2923.5 1555.3 L 150.9 1831.8 Z" fill="#FFFFFF" opacity="0.184" /><path d="M 342.5 1683.5 L 2865.0 1407.1 L 2865.0 1888.4 L 342.5 2164.8 Z" fill="#FFFFFF" opacity="0.209" /><path d="M 157.8 1902.0 L 2880.7 1625.5 L 2880.7 2088.5 L 157.8 2365.0 Z" fill="#FFFFFF" opacity="0.082" /><path d="M 236.0 2166.0 L 2701.4 1889.5 L 2701.4 2364.9 L 236.0 2641.4 Z" fill="#FFFFFF" opacity="0.191" /><path d="M 315.7 2403.3 L 2722.0 2126.8 L 2722.0 2622.4 L 315.7 2898.9 Z" fill="#FFFFFF" opacity="0.119" /></g>
  <g filter="url(#soft1007)"><g transform="rotate(-13.75 1536.0 1536.0)"><path d="M-368.6 572.0 C -225.8 535.2, -25.8 601.3, 107.5 529.7 C 250.4 533.3, 450.4 591.6, 583.7 568.1 C 726.5 568.1, 926.5 573.9, 1059.8 608.9 C 1202.7 616.2, 1402.7 539.3, 1536.0 627.3 C 1678.8 649.1, 1878.8 546.8, 2012.2 612.2 C 2155.0 610.2, 2355.0 547.6, 2488.3 572.7 C 2631.2 572.5, 2831.2 571.5, 2964.5 532.9 C 3107.3 521.4, 3307.3 589.1, 3440.6 516.7" fill="none" stroke="url(#ribbon1007)" stroke-width="58.4" stroke-linecap="round" stroke-opacity="0.120" /></g><g transform="rotate(-13.17 1536.0 1536.0)"><path d="M-368.6 728.0 C -241.7 702.3, -63.9 753.0, 54.6 671.0 C 181.6 648.3, 359.4 782.0, 477.9 670.1 C 604.8 663.7, 782.6 784.7, 901.1 704.2 C 1028.1 701.8, 1205.9 735.7, 1324.4 752.8 C 1451.3 743.3, 1629.1 716.1, 1747.6 786.3 C 1874.6 809.1, 2052.4 687.3, 2170.9 784.5 C 2297.9 799.4, 2475.6 670.6, 2594.1 748.3 C 2721.1 740.8, 2898.9 707.1, 3017.4 699.9 C 3144.4 703.3, 3322.1 754.1, 3440.6 668.5" fill="none" stroke="url(#ribbon1007)" stroke-width="54.4" stroke-linecap="round" stroke-opacity="0.146" /></g><g transform="rotate(-12.59 1536.0 1536.0)"><path d="M-368.6 966.1 C -254.4 889.9, -94.4 1021.8, 12.3 943.1 C 126.6 945.4, 286.6 985.4, 393.2 997.1 C 507.5 1007.5, 667.5 934.7, 774.1 1032.3 C 888.4 1058.3, 1048.4 908.8, 1155.1 1027.4 C 1269.4 1004.7, 1429.3 930.9, 1536.0 985.3 C 1650.3 981.6, 1810.3 955.2, 1916.9 931.6 C 2031.2 936.8, 2191.2 1006.6, 2297.9 898.9 C 2412.1 895.6, 2572.1 994.9, 2678.8 906.9 C 2793.1 890.0, 2953.1 998.5, 3059.7 950.9 C 3174.0 946.7, 3334.0 978.5, 3440.6 1004.1" fill="none" stroke="url(#ribbon1007)" stroke-width="50.4" stroke-linecap="round" stroke-opacity="0.172" /></g><g transform="rotate(-12.01 1536.0 1536.0)"><path d="M-368.6 1076.5 C -264.8 1000.9, -119.3 1136.0, -22.3 1000.4 C 81.5 977.9, 227.0 1151.3, 324.0 1029.2 C 427.8 1033.2, 573.3 1094.8, 670.3 1086.7 C 774.1 1084.2, 919.6 1071.0, 1016.6 1138.0 C 1120.4 1118.9, 1265.9 1020.0, 1362.9 1152.0 C 1466.7 1157.8, 1612.2 1041.9, 1709.1 1120.2 C 1813.0 1135.0, 1958.5 1031.4, 2055.4 1061.9 C 2159.3 1056.8, 2304.8 1091.1, 2401.7 1012.5 C 2505.6 1038.0, 2651.1 1147.8, 2748.0 1001.9 C 2851.9 1006.5, 2997.4 1165.0, 3094.3 1036.5 C 3198.2 1024.8, 3343.7 1118.2, 3440.6 1095.4" fill="none" stroke="url(#ribbon1007)" stroke-width="46.4" stroke-linecap="round" stroke-opacity="0.198" /></g><g transform="rotate(-11.43 1536.0 1536.0)"><path d="M-368.6 1296.2 C -273.4 1353.8, -140.1 1227.1, -51.2 1339.8 C 44.0 1327.3, 177.4 1251.5, 266.2 1275.5 C 361.5 1269.7, 494.8 1305.9, 583.7 1223.7 C 678.9 1195.8, 812.2 1326.4, 901.1 1215.9 C 996.4 1211.7, 1129.7 1392.3, 1218.6 1256.8 C 1313.8 1270.4, 1447.1 1339.3, 1536.0 1321.6 C 1631.2 1321.3, 1764.6 1277.0, 1853.4 1371.0 C 1948.7 1358.4, 2082.0 1257.7, 2170.9 1375.0 C 2266.1 1369.4, 2399.4 1270.8, 2488.3 1331.2 C 2583.6 1337.1, 2716.9 1259.3, 2805.8 1266.2 C 2901.0 1271.7, 3034.3 1314.1, 3123.2 1219.3 C 3218.4 1230.4, 3351.8 1373.5, 3440.6 1219.1" fill="none" stroke="url(#ribbon1007)" stroke-width="42.4" stroke-linecap="round" stroke-opacity="0.224" /></g><g transform="rotate(-10.85 1536.0 1536.0)"><path d="M-368.6 1488.9 C -225.8 1481.2, -25.8 1501.1, 107.5 1544.5 C 250.4 1544.6, 450.4 1454.2, 583.7 1579.0 C 726.5 1595.4, 926.5 1447.9, 1059.8 1558.9 C 1202.7 1534.3, 1402.7 1415.6, 1536.0 1496.3 C 1678.8 1494.2, 1878.8 1483.5, 2012.2 1429.3 C 2155.0 1438.9, 2355.0 1533.0, 2488.3 1398.4 C 2631.2 1416.0, 2831.2 1542.5, 2964.5 1422.5 C 3107.3 1418.0, 3307.3 1535.1, 3440.6 1486.8" fill="none" stroke="url(#ribbon1007)" stroke-width="38.4" stroke-linecap="round" stroke-opacity="0.250" /></g><g transform="rotate(-10.27 1536.0 1536.0)"><path d="M-368.6 1727.3 C -241.7 1723.6, -63.9 1730.2, 54.6 1655.0 C 181.6 1647.0, 359.4 1767.6, 477.9 1629.8 C 604.8 1622.9, 782.6 1801.9, 901.1 1663.8 C 1028.1 1666.7, 1205.9 1791.7, 1324.4 1736.4 C 1451.3 1736.9, 1629.1 1721.9, 1747.6 1803.4 C 1874.6 1775.1, 2052.4 1695.3, 2170.9 1824.3 C 2297.9 1829.7, 2475.6 1657.7, 2594.1 1786.4 C 2721.1 1771.2, 2898.9 1700.1, 3017.4 1712.7 C 3144.4 1715.5, 3322.1 1736.3, 3440.6 1647.8" fill="none" stroke="url(#ribbon1007)" stroke-width="34.4" stroke-linecap="round" stroke-opacity="0.276" /></g><g transform="rotate(-9.69 1536.0 1536.0)"><path d="M-368.6 1824.5 C -254.4 1965.7, -94.4 1703.1, 12.3 1908.8 C 126.6 1901.3, 286.6 1799.1, 393.2 1838.6 C 507.5 1836.9, 667.5 1810.5, 774.1 1759.9 C 888.4 1764.7, 1048.4 1885.2, 1155.1 1720.3 C 1269.4 1748.8, 1429.3 1898.4, 1536.0 1744.0 C 1650.3 1772.0, 1810.3 1851.9, 1916.9 1816.5 C 2031.2 1818.1, 2191.2 1828.5, 2297.9 1893.8 C 2412.1 1914.7, 2572.1 1778.0, 2678.8 1929.1 C 2793.1 1941.2, 2953.1 1764.7, 3059.7 1901.0 C 3174.0 1872.6, 3334.0 1746.6, 3440.6 1826.4" fill="none" stroke="url(#ribbon1007)" stroke-width="30.4" stroke-linecap="round" stroke-opacity="0.302" /></g><g transform="rotate(-9.11 1536.0 1536.0)"><path d="M-368.6 2071.4 C -264.8 1987.7, -119.3 2201.6, -22.3 1981.6 C 81.5 2009.6, 227.0 2173.3, 324.0 2056.6 C 427.8 2054.3, 573.3 2076.2, 670.3 2140.6 C 774.1 2126.7, 919.6 2025.5, 1016.6 2182.6 C 1120.4 2159.8, 1265.9 2002.4, 1362.9 2157.1 C 1466.7 2171.0, 1612.2 1996.0, 1709.1 2079.6 C 1813.0 2078.4, 1958.5 2064.0, 2055.4 1997.1 C 2159.3 1986.7, 2304.8 2094.6, 2401.7 1959.7 C 2505.6 1927.1, 2651.1 2165.1, 2748.0 1990.0 C 2851.9 2003.3, 2997.4 2120.5, 3094.3 2069.7 C 3198.2 2069.1, 3343.7 2073.4, 3440.6 2150.4" fill="none" stroke="url(#ribbon1007)" stroke-width="26.4" stroke-linecap="round" stroke-opacity="0.328" /></g><g transform="rotate(-8.53 1536.0 1536.0)"><path d="M-368.6 2280.7 C -273.4 2375.2, -140.1 2148.5, -51.2 2336.2 C 44.0 2351.1, 177.4 2215.6, 266.2 2243.9 C 361.5 2240.7, 494.8 2297.7, 583.7 2174.0 C 678.9 2195.3, 812.2 2322.7, 901.1 2168.8 C 996.4 2208.1, 1129.7 2343.5, 1218.6 2231.5 C 1313.8 2221.4, 1447.1 2334.7, 1536.0 2324.1 C 1631.2 2332.1, 1764.6 2265.1, 1853.4 2390.3 C 1948.7 2399.0, 2082.0 2210.0, 2170.9 2390.1 C 2266.1 2398.0, 2399.4 2167.5, 2488.3 2323.6 C 2583.6 2321.6, 2716.9 2232.6, 2805.8 2231.0 C 2901.0 2240.5, 3034.3 2310.5, 3123.2 2168.6 C 3218.4 2170.7, 3351.8 2409.4, 3440.6 2174.2" fill="none" stroke="url(#ribbon1007)" stroke-width="22.4" stroke-linecap="round" stroke-opacity="0.354" /></g><g transform="rotate(-7.95 1536.0 1536.0)"><path d="M-368.6 2420.8 C -225.8 2533.2, -25.8 2365.5, 107.5 2546.5 C 250.4 2595.8, 450.4 2277.8, 583.7 2503.4 C 726.5 2483.9, 926.5 2393.2, 1059.8 2410.2 C 1202.7 2407.8, 1402.7 2429.4, 1536.0 2323.4 C 1678.8 2308.4, 1878.8 2499.9, 2012.2 2295.6 C 2155.0 2327.1, 2355.0 2553.0, 2488.3 2343.8 C 2631.2 2343.4, 2831.2 2497.6, 2964.5 2438.7 C 3107.3 2431.8, 3307.3 2401.3, 3440.6 2522.7" fill="none" stroke="url(#ribbon1007)" stroke-width="18.4" stroke-linecap="round" stroke-opacity="0.380" /></g><g transform="rotate(-7.37 1536.0 1536.0)"><path d="M-368.6 2701.6 C -241.7 2543.4, -63.9 2756.4, 54.6 2646.9 C 181.6 2649.0, 359.4 2734.1, 477.9 2750.5 C 604.8 2735.0, 782.6 2679.0, 901.1 2824.4 C 1028.1 2832.7, 1205.9 2630.7, 1324.4 2823.8 C 1451.3 2815.8, 1629.1 2615.3, 1747.6 2749.1 C 1874.6 2747.6, 2052.4 2646.6, 2170.9 2645.5 C 2297.9 2662.1, 2475.6 2732.4, 2594.1 2576.0 C 2721.1 2614.4, 2898.9 2810.3, 3017.4 2582.7 C 3144.4 2600.7, 3322.1 2790.7, 3440.6 2661.4" fill="none" stroke="url(#ribbon1007)" stroke-width="14.4" stroke-linecap="round" stroke-opacity="0.406" /></g></g>
  <g><ellipse cx="1536.0" cy="1551.9" rx="728.6" ry="605.7" fill="url(#extrude1007)" opacity="0.220" /><ellipse cx="1536.0" cy="1567.7" rx="736.0" ry="610.9" fill="url(#extrude1007)" opacity="0.205" /><ellipse cx="1536.0" cy="1583.6" rx="743.4" ry="616.1" fill="url(#extrude1007)" opacity="0.190" /><ellipse cx="1536.0" cy="1599.5" rx="750.9" ry="621.3" fill="url(#extrude1007)" opacity="0.175" /><ellipse cx="1536.0" cy="1615.4" rx="758.3" ry="626.5" fill="url(#extrude1007)" opacity="0.160" /><ellipse cx="1536.0" cy="1631.2" rx="765.7" ry="631.7" fill="url(#extrude1007)" opacity="0.145" /><ellipse cx="1536.0" cy="1647.1" rx="773.2" ry="636.9" fill="url(#extrude1007)" opacity="0.130" /><ellipse cx="1536.0" cy="1663.0" rx="780.6" ry="642.1" fill="url(#extrude1007)" opacity="0.115" /><ellipse cx="1536.0" cy="1678.8" rx="788.0" ry="647.4" fill="url(#extrude1007)" opacity="0.100" /><ellipse cx="1536.0" cy="1694.7" rx="795.5" ry="652.6" fill="url(#extrude1007)" opacity="0.085" /><ellipse cx="1536.0" cy="1710.6" rx="802.9" ry="657.8" fill="url(#extrude1007)" opacity="0.070" /><ellipse cx="1536.0" cy="1726.5" rx="810.3" ry="663.0" fill="url(#extrude1007)" opacity="0.055" /></g>
  <ellipse cx="1536.0" cy="1726.5" rx="773.2" ry="214.9" fill="#0B1D2D" opacity="0.24" />
  <ellipse cx="1536.0" cy="1536.0" rx="743.4" ry="651.3" fill="url(#orb1007)" stroke="#FFFFFF" stroke-opacity="0.42" stroke-width="7" />
  <ellipse cx="1431.9" cy="1392.7" rx="505.5" ry="299.6" fill="#FFFFFF" opacity="0.25" />
  <path d="M 199.4 399.4 C 1013.8 -30.7, 2058.2 768.0, 2872.6 215.0 L 2872.6 983.0 C 2089.0 1228.8, 1013.8 307.2, 199.4 1167.4 Z" fill="url(#glass1007)" />
  <rect x="270" y="270" width="2532" height="2532" rx="430" fill="none" stroke="#FFFFFF" stroke-opacity="0.30" stroke-width="5" />
  <rect x="288.4" y="288.4" width="2495.1" height="2495.1" rx="399" fill="none" stroke="#53E3A6" stroke-opacity="0.35" stroke-width="3" />
  <g filter="url(#soft1007)"><rect x="1156" y="2356" width="82" height="2" fill="#FFFFFF" opacity="0.438" /><rect x="1196" y="2316" width="2" height="82" fill="#FFFFFF" opacity="0.438" /><rect x="293" y="1741" width="64" height="2" fill="#FFFFFF" opacity="0.445" /><rect x="324" y="1710" width="2" height="64" fill="#FFFFFF" opacity="0.445" /><rect x="1520" y="2124" width="60" height="2" fill="#FFFFFF" opacity="0.507" /><rect x="1549" y="2095" width="2" height="60" fill="#FFFFFF" opacity="0.507" /><rect x="2150" y="530" width="82" height="2" fill="#FFFFFF" opacity="0.427" /><rect x="2190" y="490" width="2" height="82" fill="#FFFFFF" opacity="0.427" /><rect x="2727" y="1452" width="50" height="2" fill="#FFFFFF" opacity="0.492" /><rect x="2751" y="1428" width="2" height="50" fill="#FFFFFF" opacity="0.492" /><rect x="2297" y="2249" width="78" height="2" fill="#FFFFFF" opacity="0.322" /><rect x="2335" y="2211" width="2" height="78" fill="#FFFFFF" opacity="0.322" /><rect x="2427" y="638" width="54" height="2" fill="#FFFFFF" opacity="0.759" /><rect x="2453" y="612" width="2" height="54" fill="#FFFFFF" opacity="0.759" /><rect x="1916" y="1211" width="40" height="2" fill="#FFFFFF" opacity="0.538" /><rect x="1935" y="1192" width="2" height="40" fill="#FFFFFF" opacity="0.538" /><rect x="1525" y="994" width="82" height="2" fill="#FFFFFF" opacity="0.472" /><rect x="1565" y="954" width="2" height="82" fill="#FFFFFF" opacity="0.472" /><rect x="2382" y="2753" width="76" height="2" fill="#FFFFFF" opacity="0.582" /><rect x="2419" y="2716" width="2" height="76" fill="#FFFFFF" opacity="0.582" /><rect x="2656" y="2079" width="54" height="2" fill="#FFFFFF" opacity="0.434" /><rect x="2682" y="2053" width="2" height="54" fill="#FFFFFF" opacity="0.434" /><rect x="801" y="711" width="48" height="2" fill="#FFFFFF" opacity="0.474" /><rect x="824" y="688" width="2" height="48" fill="#FFFFFF" opacity="0.474" /><rect x="1084" y="973" width="74" height="2" fill="#FFFFFF" opacity="0.606" /><rect x="1120" y="937" width="2" height="74" fill="#FFFFFF" opacity="0.606" /><rect x="394" y="2276" width="66" height="2" fill="#FFFFFF" opacity="0.685" /><rect x="426" y="2244" width="2" height="66" fill="#FFFFFF" opacity="0.685" /><rect x="1270" y="1161" width="44" height="2" fill="#FFFFFF" opacity="0.536" /><rect x="1291" y="1140" width="2" height="44" fill="#FFFFFF" opacity="0.536" /><rect x="1353" y="2004" width="60" height="2" fill="#FFFFFF" opacity="0.595" /><rect x="1382" y="1975" width="2" height="60" fill="#FFFFFF" opacity="0.595" /><rect x="463" y="785" width="64" height="2" fill="#FFFFFF" opacity="0.519" /><rect x="494" y="754" width="2" height="64" fill="#FFFFFF" opacity="0.519" /><rect x="1572" y="696" width="50" height="2" fill="#FFFFFF" opacity="0.423" /><rect x="1596" y="672" width="2" height="50" fill="#FFFFFF" opacity="0.423" /><rect x="542" y="582" width="54" height="2" fill="#FFFFFF" opacity="0.724" /><rect x="568" y="556" width="2" height="54" fill="#FFFFFF" opacity="0.724" /><rect x="2752" y="1128" width="78" height="2" fill="#FFFFFF" opacity="0.578" /><rect x="2790" y="1090" width="2" height="78" fill="#FFFFFF" opacity="0.578" /><rect x="2056" y="1273" width="34" height="2" fill="#FFFFFF" opacity="0.498" /><rect x="2072" y="1257" width="2" height="34" fill="#FFFFFF" opacity="0.498" /><rect x="1579" y="799" width="64" height="2" fill="#FFFFFF" opacity="0.636" /><rect x="1610" y="768" width="2" height="64" fill="#FFFFFF" opacity="0.636" /><rect x="1113" y="474" width="68" height="2" fill="#FFFFFF" opacity="0.583" /><rect x="1146" y="441" width="2" height="68" fill="#FFFFFF" opacity="0.583" /><rect x="1020" y="1830" width="56" height="2" fill="#FFFFFF" opacity="0.684" /><rect x="1047" y="1803" width="2" height="56" fill="#FFFFFF" opacity="0.684" /><rect x="1603" y="1738" width="58" height="2" fill="#FFFFFF" opacity="0.566" /><rect x="1631" y="1710" width="2" height="58" fill="#FFFFFF" opacity="0.566" /><rect x="1818" y="246" width="84" height="2" fill="#FFFFFF" opacity="0.638" /><rect x="1859" y="205" width="2" height="84" fill="#FFFFFF" opacity="0.638" /></g>
  <g opacity="0.52"><path d="M996 1006 L2148 1006 L2148 2158 L996 2158 Z" fill="none" stroke="#0C2030" stroke-width="90" /><path d="M996 1582 L2148 1582" stroke="#0C2030" stroke-width="90" /><path d="M1572 1006 L1572 2158" stroke="#0C2030" stroke-width="90" /></g>
  <g filter="url(#soft1007)"><path d="M960 960 L2112 960 L2112 2112 L960 2112 Z" fill="none" stroke="url(#symbol1007)" stroke-width="90" /><path d="M960 1536 L2112 1536" stroke="url(#symbol1007)" stroke-width="90" /><path d="M1536 960 L1536 2112" stroke="url(#symbol1007)" stroke-width="90" /></g>
  <rect x="138" y="138" width="2796" height="2796" rx="629" fill="#FFFFFF" filter="url(#grain1007)" opacity="0.18" />
</svg>
