<svg xmlns="http://www.w3.org/2000/svg" width="3072" height="3072" viewBox="0 0 3072 3072">
  <title>QuartzOS System Icon 088 - storage_05</title>
  <defs><linearGradient id="bg1087" x1="0%" y1="0%" x2="100%" y2="100%"><stop offset="0%" stop-color="#8A5CFF" /><stop offset="26%" stop-color="#FF9F43" /><stop offset="56%" stop-color="#53E3A6" /><stop offset="78%" stop-color="#9A6BB4" /><stop offset="100%" stop-color="#271E2A" /></linearGradient><radialGradient id="sun1087" cx="46%" cy="13%" r="88%"><stop offset="0%" stop-color="#FFFFFF" stop-opacity="0.62" /><stop offset="30%" stop-color="#36D1FF" stop-opacity="0.35" /><stop offset="100%" stop-color="#36D1FF" stop-opacity="0" /></radialGradient><linearGradient id="glass1087" x1="0%" y1="0%" x2="0%" y2="100%"><stop offset="0%" stop-color="#FFFFFF" stop-opacity="0.70" /><stop offset="46%" stop-color="#FFFFFF" stop-opacity="0.26" /><stop offset="100%" stop-color="#FFFFFF" stop-opacity="0.00" /></linearGradient><linearGradient id="ribbon1087" x1="0%" y1="0%" x2="100%" y2="0%"><stop offset="0%" stop-color="#8A5CFF" stop-opacity="0.18" /><stop offset="34%" stop-color="#FF9F43" stop-opacity="0.72" /><stop offset="66%" stop-color="#53E3A6" stop-opacity="0.72" /><stop offset="100%" stop-color="#36D1FF" stop-opacity="0.18" /></linearGradient><radialGradient id="orb1087" cx="34%" cy="27%" r="74%"><stop offset="0%" stop-color="#FFFFFF" stop-opacity="0.84" /><stop offset="30%" stop-color="#8A5CFF" stop-opacity="0.52" /><stop offset="68%" stop-color="#FF9F43" stop-opacity="0.42" /><stop offset="100%" stop-color="#53E3A6" stop-opacity="0.20" /></radialGradient><linearGradient id="extrude1087" x1="0%" y1="0%" x2="0%" y2="100%"><stop offset="0%" stop-color="#15283C" stop-opacity="0.45" /><stop offset="100%" stop-color="#08131D" stop-opacity="0.06" /></linearGradient><linearGradient id="symbol1087" x1="0%" y1="0%" x2="100%" y2="100%"><stop offset="0%" stop-color="#FFFFFF" /><stop offset="100%" stop-color="#36D1FF" /></linearGradient><filter id="shadow1087" x="-40%" y="-40%" width="180%" height="180%"><feDropShadow dx="0" dy="49" stdDeviation="86" flood-color="#06111A" flood-opacity="0.54" /></filter><filter id="soft1087" x="-40%" y="-40%" width="180%" height="180%"><feDropShadow dx="0" dy="0" stdDeviation="14" flood-color="#8A5CFF" flood-opacity="0.45" /></filter><filter id="grain1087"><feTurbulence type="fractalNoise" baseFrequency="0.836" numOctaves="2" seed="1087" /><feColorMatrix type="saturate" values="0" /><feComponentTransfer><feFuncA type="table" tableValues="0 0.09" /></feComponentTransfer></filter></defs>
  <rect x="138" y="138" width="2796" height="2796" rx="629" fill="url(#bg1087)" filter="url(#shadow1087)" />
  <rect x="138" y="138" width="2796" height="2796" rx="629" fill="url(#sun1087)" />
  <g><circle cx="1289" cy="1040" r="111" fill="#FFFFFF" opacity="0.237" /><circle cx="1989" cy="2361" r="114" fill="#FFFFFF" opacity="0.159" /><circle cx="1544" cy="344" r="49" fill="#FFFFFF" opacity="0.077" /><circle cx="484" cy="2664" r="132" fill="#FFFFFF" opacity="0.127" /><circle cx="2345" cy="370" r="92" fill="#FFFFFF" opacity="0.209" /><circle cx="1732" cy="1462" r="61" fill="#FFFFFF" opacity="0.085" /><circle cx="1965" cy="2640" r="128" fill="#FFFFFF" opacity="0.061" /><circle cx="1779" cy="2291" r="155" fill="#FFFFFF" opacity="0.191" /><circle cx="878" cy="2643" r="60" fill="#FFFFFF" opacity="0.149" /><circle cx="2349" cy="2314" r="147" fill="#FFFFFF" opacity="0.150" /><circle cx="2184" cy="2671" r="129" fill="#FFFFFF" opacity="0.115" /><circle cx="1129" cy="1648" r="63" fill="#FFFFFF" opacity="0.079" /><circle cx="2257" cy="2060" r="61" fill="#FFFFFF" opacity="0.185" /><circle cx="2626" cy="2059" r="88" fill="#FFFFFF" opacity="0.136" /><circle cx="1967" cy="749" r="87" fill="#FFFFFF" opacity="0.127" /><circle cx="568" cy="2210" r="99" fill="#FFFFFF" opacity="0.154" /><circle cx="1121" cy="1791" r="39" fill="#FFFFFF" opacity="0.192" /><circle cx="1893" cy="1450" r="106" fill="#FFFFFF" opacity="0.184" /><circle cx="1805" cy="842" r="78" fill="#FFFFFF" opacity="0.096" /><circle cx="1279" cy="2551" r="106" fill="#FFFFFF" opacity="0.155" /><circle cx="1950" cy="947" r="116" fill="#FFFFFF" opacity="0.163" /><circle cx="1915" cy="1415" r="108" fill="#FFFFFF" opacity="0.081" /><circle cx="2471" cy="2331" r="129" fill="#FFFFFF" opacity="0.146" /><circle cx="831" cy="2094" r="63" fill="#FFFFFF" opacity="0.102" /><circle cx="2287" cy="716" r="145" fill="#FFFFFF" opacity="0.219" /><circle cx="1789" cy="2003" r="90" fill="#FFFFFF" opacity="0.174" /><circle cx="2252" cy="1364" r="141" fill="#FFFFFF" opacity="0.176" /><circle cx="2072" cy="2450" r="118" fill="#FFFFFF" opacity="0.132" /></g>
  <g><path d="M 210.6 618.4 L 2829.6 341.9 L 2829.6 770.5 L 210.6 1047.0 Z" fill="#FFFFFF" opacity="0.204" /><path d="M 189.1 869.0 L 2765.5 592.6 L 2765.5 1038.1 L 189.1 1314.6 Z" fill="#FFFFFF" opacity="0.179" /><path d="M 380.1 1095.6 L 2748.3 819.1 L 2748.3 1279.5 L 380.1 1556.0 Z" fill="#FFFFFF" opacity="0.213" /><path d="M 217.0 1397.9 L 2789.8 1121.4 L 2789.8 1550.6 L 217.0 1827.1 Z" fill="#FFFFFF" opacity="0.181" /><path d="M 295.4 1697.3 L 2719.9 1420.8 L 2719.9 1887.1 L 295.4 2163.6 Z" fill="#FFFFFF" opacity="0.095" /><path d="M 237.5 1942.8 L 2807.1 1666.4 L 2807.1 2087.1 L 237.5 2363.6 Z" fill="#FFFFFF" opacity="0.217" /><path d="M 333.9 2196.5 L 2913.0 1920.0 L 2913.0 2355.6 L 333.9 2632.1 Z" fill="#FFFFFF" opacity="0.160" /><path d="M 171.7 2450.8 L 2808.4 2174.3 L 2808.4 2631.5 L 171.7 2908.0 Z" fill="#FFFFFF" opacity="0.086" /></g>
  <g filter="url(#soft1087)"><g transform="rotate(-4.05 1536.0 1536.0)"><path d="M-368.6 528.5 C -225.8 482.6, -25.8 581.7, 107.5 475.8 C 250.4 469.5, 450.4 565.0, 583.7 503.9 C 726.5 509.0, 926.5 552.1, 1059.8 546.8 C 1202.7 542.0, 1402.7 510.6, 1536.0 578.7 C 1678.8 566.5, 1878.8 491.5, 2012.2 580.1 C 2155.0 575.0, 2355.0 503.1, 2488.3 550.2 C 2631.2 552.8, 2831.2 518.4, 2964.5 507.1 C 3107.3 504.7, 3307.3 535.7, 3440.6 477.0" fill="none" stroke="url(#ribbon1087)" stroke-width="58.4" stroke-linecap="round" stroke-opacity="0.120" /></g><g transform="rotate(-3.47 1536.0 1536.0)"><path d="M-368.6 744.4 C -241.7 822.3, -63.9 722.9, 54.6 798.7 C 181.6 815.8, 359.4 684.1, 477.9 760.3 C 604.8 761.1, 782.6 735.4, 901.1 712.2 C 1028.1 708.1, 1205.9 758.5, 1324.4 683.7 C 1451.3 669.8, 1629.1 800.0, 1747.6 692.0 C 1874.6 677.2, 2052.4 796.6, 2170.9 732.1 C 2297.9 736.1, 2475.6 748.6, 2594.1 779.7 C 2721.1 781.7, 2898.9 710.5, 3017.4 805.9 C 3144.4 792.3, 3322.1 702.3, 3440.6 794.8" fill="none" stroke="url(#ribbon1087)" stroke-width="54.4" stroke-linecap="round" stroke-opacity="0.146" /></g><g transform="rotate(-2.89 1536.0 1536.0)"><path d="M-368.6 924.6 C -254.4 853.9, -94.4 950.8, 12.3 855.4 C 126.6 866.8, 286.6 1002.6, 393.2 880.8 C 507.5 884.8, 667.5 972.4, 774.1 932.7 C 888.4 933.1, 1048.4 917.0, 1155.1 979.7 C 1269.4 957.9, 1429.3 903.4, 1536.0 993.3 C 1650.3 976.6, 1810.3 883.5, 1916.9 965.2 C 2031.2 970.6, 2191.2 887.7, 2297.9 912.5 C 2412.1 913.9, 2572.1 937.3, 2678.8 867.1 C 2793.1 863.0, 2953.1 970.9, 3059.7 856.6 C 3174.0 852.9, 3334.0 953.7, 3440.6 887.3" fill="none" stroke="url(#ribbon1087)" stroke-width="50.4" stroke-linecap="round" stroke-opacity="0.172" /></g><g transform="rotate(-2.31 1536.0 1536.0)"><path d="M-368.6 1088.6 C -264.8 1031.9, -119.3 1146.4, -22.3 1020.8 C 81.5 1044.2, 227.0 1151.8, 324.0 1066.8 C 427.8 1074.6, 573.3 1110.9, 670.3 1126.0 C 774.1 1112.0, 919.6 1059.3, 1016.6 1162.5 C 1120.4 1138.6, 1265.9 1004.7, 1362.9 1154.2 C 1466.7 1140.1, 1612.2 1030.1, 1709.1 1106.1 C 1813.0 1101.5, 1958.5 1074.9, 2055.4 1047.4 C 2159.3 1059.9, 2304.8 1111.6, 2401.7 1013.7 C 2505.6 988.8, 2651.1 1130.4, 2748.0 1025.4 C 2851.9 1044.6, 2997.4 1155.4, 3094.3 1075.5 C 3198.2 1071.9, 3343.7 1101.0, 3440.6 1133.5" fill="none" stroke="url(#ribbon1087)" stroke-width="46.4" stroke-linecap="round" stroke-opacity="0.198" /></g><g transform="rotate(-1.73 1536.0 1536.0)"><path d="M-368.6 1304.4 C -273.4 1213.4, -140.1 1363.8, -51.2 1221.6 C 44.0 1223.1, 177.4 1361.8, 266.2 1254.8 C 361.5 1272.0, 494.8 1363.2, 583.7 1318.1 C 678.9 1319.5, 812.2 1296.3, 901.1 1373.1 C 996.4 1365.6, 1129.7 1274.0, 1218.6 1386.4 C 1313.8 1400.2, 1447.1 1262.9, 1536.0 1350.1 C 1631.2 1352.6, 1764.6 1281.5, 1853.4 1286.0 C 1948.7 1286.2, 2082.0 1323.7, 2170.9 1233.1 C 2266.1 1241.0, 2399.4 1389.1, 2488.3 1223.5 C 2583.6 1226.8, 2716.9 1382.6, 2805.8 1263.0 C 2901.0 1260.5, 3034.3 1329.8, 3123.2 1327.6 C 3218.4 1322.4, 3351.8 1289.3, 3440.6 1378.1" fill="none" stroke="url(#ribbon1087)" stroke-width="42.4" stroke-linecap="round" stroke-opacity="0.224" /></g><g transform="rotate(-1.15 1536.0 1536.0)"><path d="M-368.6 1434.3 C -225.8 1454.6, -25.8 1418.1, 107.5 1383.1 C 250.4 1378.3, 450.4 1489.3, 583.7 1345.0 C 726.5 1341.0, 926.5 1496.7, 1059.8 1361.0 C 1202.7 1340.3, 1402.7 1506.1, 1536.0 1421.4 C 1678.8 1423.4, 1878.8 1445.4, 2012.2 1489.7 C 2155.0 1486.0, 2355.0 1403.3, 2488.3 1524.3 C 2631.2 1560.3, 2831.2 1390.9, 2964.5 1504.3 C 3107.3 1489.5, 3307.3 1389.1, 3440.6 1441.8" fill="none" stroke="url(#ribbon1087)" stroke-width="38.4" stroke-linecap="round" stroke-opacity="0.250" /></g><g transform="rotate(-0.57 1536.0 1536.0)"><path d="M-368.6 1699.1 C -241.7 1814.1, -63.9 1641.5, 54.6 1739.0 C 181.6 1743.5, 359.4 1662.7, 477.9 1663.0 C 604.8 1666.0, 782.6 1730.9, 901.1 1608.8 C 1028.1 1582.7, 1205.9 1784.9, 1324.4 1609.5 C 1451.3 1589.0, 1629.1 1731.8, 1747.6 1664.5 C 1874.6 1665.5, 2052.4 1740.0, 2170.9 1740.5 C 2297.9 1726.0, 2475.6 1658.3, 2594.1 1791.4 C 2721.1 1804.5, 2898.9 1669.5, 3017.4 1786.4 C 3144.4 1785.5, 3322.1 1635.4, 3440.6 1728.4" fill="none" stroke="url(#ribbon1087)" stroke-width="34.4" stroke-linecap="round" stroke-opacity="0.276" /></g><g transform="rotate(0.01 1536.0 1536.0)"><path d="M-368.6 1847.9 C -254.4 1784.1, -94.4 1930.2, 12.3 1849.5 C 126.6 1848.9, 286.6 1846.8, 393.2 1924.2 C 507.5 1918.2, 667.5 1798.8, 774.1 1952.5 C 888.4 1916.4, 1048.4 1745.8, 1155.1 1917.5 C 1269.4 1921.6, 1429.3 1767.0, 1536.0 1840.2 C 1650.3 1838.2, 1810.3 1854.9, 1916.9 1767.6 C 2031.2 1766.3, 2191.2 1928.2, 2297.9 1743.7 C 2412.1 1769.9, 2572.1 1955.7, 2678.8 1783.0 C 2793.1 1786.4, 2953.1 1878.3, 3059.7 1861.7 C 3174.0 1863.2, 3334.0 1838.3, 3440.6 1932.0" fill="none" stroke="url(#ribbon1087)" stroke-width="30.4" stroke-linecap="round" stroke-opacity="0.302" /></g><g transform="rotate(0.59 1536.0 1536.0)"><path d="M-368.6 2081.2 C -264.8 2181.4, -119.3 2007.7, -22.3 2192.8 C 81.5 2221.4, 227.0 1984.0, 324.0 2154.1 C 427.8 2161.4, 573.3 2028.8, 670.3 2071.1 C 774.1 2071.7, 919.6 2088.5, 1016.6 1994.3 C 1120.4 1962.9, 1265.9 2112.7, 1362.9 1970.2 C 1466.7 2012.4, 1612.2 2151.8, 1709.1 2013.4 C 1813.0 2008.5, 1958.5 2148.4, 2055.4 2097.8 C 2159.3 2095.3, 2304.8 2072.0, 2401.7 2172.1 C 2505.6 2178.1, 2651.1 2033.1, 2748.0 2191.3 C 2851.9 2225.0, 2997.4 1991.4, 3094.3 2143.7 C 3198.2 2153.9, 3343.7 2051.8, 3440.6 2058.2" fill="none" stroke="url(#ribbon1087)" stroke-width="26.4" stroke-linecap="round" stroke-opacity="0.328" /></g><g transform="rotate(1.17 1536.0 1536.0)"><path d="M-368.6 2253.6 C -273.4 2367.3, -140.1 2189.1, -51.2 2348.6 C 44.0 2385.3, 177.4 2194.4, 266.2 2268.5 C 361.5 2272.3, 494.8 2245.0, 583.7 2179.3 C 678.9 2192.2, 812.2 2319.4, 901.1 2135.2 C 996.4 2165.4, 1129.7 2380.3, 1218.6 2162.9 C 1313.8 2129.5, 1447.1 2321.3, 1536.0 2245.6 C 1631.2 2246.6, 1764.6 2260.4, 1853.4 2333.1 C 1948.7 2328.9, 2082.0 2161.1, 2170.9 2372.4 C 2266.1 2374.9, 2399.4 2166.4, 2488.3 2339.6 C 2583.6 2362.7, 2716.9 2159.1, 2805.8 2254.6 C 2901.0 2254.8, 3034.3 2253.2, 3123.2 2169.0 C 3218.4 2137.4, 3351.8 2333.9, 3440.6 2134.7" fill="none" stroke="url(#ribbon1087)" stroke-width="22.4" stroke-linecap="round" stroke-opacity="0.354" /></g><g transform="rotate(1.75 1536.0 1536.0)"><path d="M-368.6 2447.7 C -225.8 2339.5, -25.8 2572.4, 107.5 2404.0 C 250.4 2419.9, 450.4 2489.8, 583.7 2502.0 C 726.5 2491.3, 926.5 2398.5, 1059.8 2567.0 C 1202.7 2561.4, 1402.7 2365.3, 1536.0 2559.7 C 1678.8 2587.5, 1878.8 2378.8, 2012.2 2484.3 C 2155.0 2480.6, 2355.0 2426.4, 2488.3 2386.8 C 2631.2 2377.5, 2831.2 2491.2, 2964.5 2326.2 C 3107.3 2286.1, 3307.3 2577.4, 3440.6 2339.2" fill="none" stroke="url(#ribbon1087)" stroke-width="18.4" stroke-linecap="round" stroke-opacity="0.380" /></g><g transform="rotate(2.33 1536.0 1536.0)"><path d="M-368.6 2697.8 C -241.7 2612.2, -63.9 2755.0, 54.6 2588.9 C 181.6 2587.4, 359.4 2755.2, 477.9 2676.7 C 604.8 2676.1, 782.6 2721.2, 901.1 2777.3 C 1028.1 2803.3, 1205.9 2630.2, 1324.4 2829.7 C 1451.3 2868.5, 1629.1 2627.0, 1747.6 2802.0 C 1874.6 2817.4, 2052.4 2654.6, 2170.9 2711.2 C 2297.9 2712.2, 2475.6 2689.4, 2594.1 2612.2 C 2721.1 2630.6, 2898.9 2757.7, 3017.4 2565.1 C 3144.4 2615.6, 3322.1 2775.0, 3440.6 2598.5" fill="none" stroke="url(#ribbon1087)" stroke-width="14.4" stroke-linecap="round" stroke-opacity="0.406" /></g></g>
  <g><ellipse cx="1536.0" cy="1551.9" rx="728.6" ry="605.7" fill="url(#extrude1087)" opacity="0.220" /><ellipse cx="1536.0" cy="1567.7" rx="736.0" ry="610.9" fill="url(#extrude1087)" opacity="0.205" /><ellipse cx="1536.0" cy="1583.6" rx="743.4" ry="616.1" fill="url(#extrude1087)" opacity="0.190" /><ellipse cx="1536.0" cy="1599.5" rx="750.9" ry="621.3" fill="url(#extrude1087)" opacity="0.175" /><ellipse cx="1536.0" cy="1615.4" rx="758.3" ry="626.5" fill="url(#extrude1087)" opacity="0.160" /><ellipse cx="1536.0" cy="1631.2" rx="765.7" ry="631.7" fill="url(#extrude1087)" opacity="0.145" /><ellipse cx="1536.0" cy="1647.1" rx="773.2" ry="636.9" fill="url(#extrude1087)" opacity="0.130" /><ellipse cx="1536.0" cy="1663.0" rx="780.6" ry="642.1" fill="url(#extrude1087)" opacity="0.115" /><ellipse cx="1536.0" cy="1678.8" rx="788.0" ry="647.4" fill="url(#extrude1087)" opacity="0.100" /><ellipse cx="1536.0" cy="1694.7" rx="795.5" ry="652.6" fill="url(#extrude1087)" opacity="0.085" /><ellipse cx="1536.0" cy="1710.6" rx="802.9" ry="657.8" fill="url(#extrude1087)" opacity="0.070" /><ellipse cx="1536.0" cy="1726.5" rx="810.3" ry="663.0" fill="url(#extrude1087)" opacity="0.055" /></g>
  <ellipse cx="1536.0" cy="1726.5" rx="773.2" ry="214.9" fill="#0B1D2D" opacity="0.24" />
  <ellipse cx="1536.0" cy="1536.0" rx="743.4" ry="651.3" fill="url(#orb1087)" stroke="#FFFFFF" stroke-opacity="0.42" stroke-width="7" />
  <ellipse cx="1431.9" cy="1392.7" rx="505.5" ry="299.6" fill="#FFFFFF" opacity="0.25" />
  <path d="M 199.4 399.4 C 1013.8 -30.7, 2058.2 768.0, 2872.6 215.0 L 2872.6 983.0 C 2089.0 1228.8, 1013.8 307.2, 199.4 1167.4 Z" fill="url(#glass1087)" />
  <rect x="270" y="270" width="2532" height="2532" rx="430" fill="none" stroke="#FFFFFF" stroke-opacity="0.30" stroke-width="5" />
  <rect x="288.4" y="288.4" width="2495.1" height="2495.1" rx="399" fill="none" stroke="#8A5CFF" stroke-opacity="0.35" stroke-width="3" />
  <g filter="url(#soft1087)"><rect x="2299" y="966" width="70" height="2" fill="#FFFFFF" opacity="0.842" /><rect x="2333" y="932" width="2" height="70" fill="#FFFFFF" opacity="0.842" /><rect x="2694" y="2276" width="30" height="2" fill="#FFFFFF" opacity="0.313" /><rect x="2708" y="2262" width="2" height="30" fill="#FFFFFF" opacity="0.313" /><rect x="654" y="465" width="42" height="2" fill="#FFFFFF" opacity="0.706" /><rect x="674" y="445" width="2" height="42" fill="#FFFFFF" opacity="0.706" /><rect x="2151" y="1821" width="50" height="2" fill="#FFFFFF" opacity="0.779" /><rect x="2175" y="1797" width="2" height="50" fill="#FFFFFF" opacity="0.779" /><rect x="2054" y="2445" width="34" height="2" fill="#FFFFFF" opacity="0.541" /><rect x="2070" y="2429" width="2" height="34" fill="#FFFFFF" opacity="0.541" /><rect x="1943" y="668" width="72" height="2" fill="#FFFFFF" opacity="0.346" /><rect x="1978" y="633" width="2" height="72" fill="#FFFFFF" opacity="0.346" /><rect x="1064" y="1827" width="40" height="2" fill="#FFFFFF" opacity="0.663" /><rect x="1083" y="1808" width="2" height="40" fill="#FFFFFF" opacity="0.663" /><rect x="540" y="2371" width="36" height="2" fill="#FFFFFF" opacity="0.839" /><rect x="557" y="2354" width="2" height="36" fill="#FFFFFF" opacity="0.839" /><rect x="2418" y="1348" width="62" height="2" fill="#FFFFFF" opacity="0.829" /><rect x="2448" y="1318" width="2" height="62" fill="#FFFFFF" opacity="0.829" /><rect x="2063" y="2331" width="72" height="2" fill="#FFFFFF" opacity="0.626" /><rect x="2098" y="2296" width="2" height="72" fill="#FFFFFF" opacity="0.626" /><rect x="1523" y="2176" width="74" height="2" fill="#FFFFFF" opacity="0.538" /><rect x="1559" y="2140" width="2" height="74" fill="#FFFFFF" opacity="0.538" /><rect x="1484" y="1476" width="48" height="2" fill="#FFFFFF" opacity="0.639" /><rect x="1507" y="1453" width="2" height="48" fill="#FFFFFF" opacity="0.639" /><rect x="355" y="1613" width="38" height="2" fill="#FFFFFF" opacity="0.595" /><rect x="373" y="1595" width="2" height="38" fill="#FFFFFF" opacity="0.595" /><rect x="2246" y="1845" width="76" height="2" fill="#FFFFFF" opacity="0.671" /><rect x="2283" y="1808" width="2" height="76" fill="#FFFFFF" opacity="0.671" /><rect x="768" y="404" width="70" height="2" fill="#FFFFFF" opacity="0.458" /><rect x="802" y="370" width="2" height="70" fill="#FFFFFF" opacity="0.458" /><rect x="1773" y="1684" width="58" height="2" fill="#FFFFFF" opacity="0.786" /><rect x="1801" y="1656" width="2" height="58" fill="#FFFFFF" opacity="0.786" /><rect x="744" y="2011" width="84" height="2" fill="#FFFFFF" opacity="0.696" /><rect x="785" y="1970" width="2" height="84" fill="#FFFFFF" opacity="0.696" /><rect x="1936" y="2681" width="24" height="2" fill="#FFFFFF" opacity="0.708" /><rect x="1947" y="2670" width="2" height="24" fill="#FFFFFF" opacity="0.708" /><rect x="571" y="1342" width="28" height="2" fill="#FFFFFF" opacity="0.679" /><rect x="584" y="1329" width="2" height="28" fill="#FFFFFF" opacity="0.679" /><rect x="2247" y="1600" width="50" height="2" fill="#FFFFFF" opacity="0.479" /><rect x="2271" y="1576" width="2" height="50" fill="#FFFFFF" opacity="0.479" /><rect x="1679" y="717" width="38" height="2" fill="#FFFFFF" opacity="0.832" /><rect x="1697" y="699" width="2" height="38" fill="#FFFFFF" opacity="0.832" /><rect x="841" y="1608" width="44" height="2" fill="#FFFFFF" opacity="0.740" /><rect x="862" y="1587" width="2" height="44" fill="#FFFFFF" opacity="0.740" /><rect x="844" y="2689" width="52" height="2" fill="#FFFFFF" opacity="0.663" /><rect x="869" y="2664" width="2" height="52" fill="#FFFFFF" opacity="0.663" /><rect x="384" y="449" width="50" height="2" fill="#FFFFFF" opacity="0.433" /><rect x="408" y="425" width="2" height="50" fill="#FFFFFF" opacity="0.433" /><rect x="1893" y="2393" width="44" height="2" fill="#FFFFFF" opacity="0.818" /><rect x="1914" y="2372" width="2" height="44" fill="#FFFFFF" opacity="0.818" /><rect x="1811" y="821" width="42" height="2" fill="#FFFFFF" opacity="0.725" /><rect x="1831" y="801" width="2" height="42" fill="#FFFFFF" opacity="0.725" /></g>
  <g opacity="0.52"><circle cx="1572" cy="1582" r="384" fill="none" stroke="#0C2030" stroke-width="90" /><circle cx="1572" cy="1582" r="153" fill="#0C2030" /><line x1="1572" y1="967" x2="1572" y2="1198" stroke="#0C2030" stroke-width="90" /><line x1="1572" y1="2197" x2="1572" y2="1966" stroke="#0C2030" stroke-width="90" /><line x1="957" y1="1582" x2="1188" y2="1582" stroke="#0C2030" stroke-width="90" /><line x1="2187" y1="1582" x2="1956" y2="1582" stroke="#0C2030" stroke-width="90" /></g>
  <g filter="url(#soft1087)"><circle cx="1536" cy="1536" r="384" fill="none" stroke="url(#symbol1087)" stroke-width="90" /><circle cx="1536" cy="1536" r="153" fill="url(#symbol1087)" /><line x1="1536" y1="921" x2="1536" y2="1152" stroke="url(#symbol1087)" stroke-width="90" /><line x1="1536" y1="2151" x2="1536" y2="1920" stroke="url(#symbol1087)" stroke-width="90" /><line x1="921" y1="1536" x2="1152" y2="1536" stroke="url(#symbol1087)" stroke-width="90" /><line x1="2151" y1="1536" x2="1920" y2="1536" stroke="url(#symbol1087)" stroke-width="90" /></g>
  <rect x="138" y="138" width="2796" height="2796" rx="629" fill="#FFFFFF" filter="url(#grain1087)" opacity="0.18" />
</svg>
