<svg xmlns="http://www.w3.org/2000/svg" width="3072" height="3072" viewBox="0 0 3072 3072">
  <title>QuartzOS System Icon 114 - theme_06</title>
  <defs><linearGradient id="bg1113" x1="0%" y1="0%" x2="100%" y2="100%"><stop offset="0%" stop-color="#36D1FF" /><stop offset="26%" stop-color="#8A5CFF" /><stop offset="56%" stop-color="#FF9F43" /><stop offset="78%" stop-color="#4F79A7" /><stop offset="100%" stop-color="#1B2630" /></linearGradient><radialGradient id="sun1113" cx="47%" cy="19%" r="88%"><stop offset="0%" stop-color="#FFFFFF" stop-opacity="0.62" /><stop offset="30%" stop-color="#FFD84D" stop-opacity="0.35" /><stop offset="100%" stop-color="#FFD84D" stop-opacity="0" /></radialGradient><linearGradient id="glass1113" x1="0%" y1="0%" x2="0%" y2="100%"><stop offset="0%" stop-color="#FFFFFF" stop-opacity="0.70" /><stop offset="46%" stop-color="#FFFFFF" stop-opacity="0.26" /><stop offset="100%" stop-color="#FFFFFF" stop-opacity="0.00" /></linearGradient><linearGradient id="ribbon1113" x1="0%" y1="0%" x2="100%" y2="0%"><stop offset="0%" stop-color="#36D1FF" stop-opacity="0.18" /><stop offset="34%" stop-color="#8A5CFF" stop-opacity="0.72" /><stop offset="66%" stop-color="#FF9F43" stop-opacity="0.72" /><stop offset="100%" stop-color="#FFD84D" stop-opacity="0.18" /></linearGradient><radialGradient id="orb1113" cx="34%" cy="27%" r="74%"><stop offset="0%" stop-color="#FFFFFF" stop-opacity="0.84" /><stop offset="30%" stop-color="#36D1FF" stop-opacity="0.52" /><stop offset="68%" stop-color="#8A5CFF" stop-opacity="0.42" /><stop offset="100%" stop-color="#FF9F43" stop-opacity="0.20" /></radialGradient><linearGradient id="extrude1113" x1="0%" y1="0%" x2="0%" y2="100%"><stop offset="0%" stop-color="#15283C" stop-opacity="0.45" /><stop offset="100%" stop-color="#08131D" stop-opacity="0.06" /></linearGradient><linearGradient id="symbol1113" x1="0%" y1="0%" x2="100%" y2="100%"><stop offset="0%" stop-color="#FFFFFF" /><stop offset="100%" stop-color="#FFD84D" /></linearGradient><filter id="shadow1113" x="-40%" y="-40%" width="180%" height="180%"><feDropShadow dx="0" dy="49" stdDeviation="86" flood-color="#06111A" flood-opacity="0.54" /></filter><filter id="soft1113" x="-40%" y="-40%" width="180%" height="180%"><feDropShadow dx="0" dy="0" stdDeviation="14" flood-color="#36D1FF" flood-opacity="0.45" /></filter><filter id="grain1113"><feTurbulence type="fractalNoise" baseFrequency="0.663" numOctaves="2" seed="1113" /><feColorMatrix type="saturate" values="0" /><feComponentTransfer><feFuncA type="table" tableValues="0 0.09" /></feComponentTransfer></filter></defs>
  <rect x="138" y="138" width="2796" height="2796" rx="629" fill="url(#bg1113)" filter="url(#shadow1113)" />
  <rect x="138" y="138" width="2796" height="2796" rx="629" fill="url(#sun1113)" />
  <g><circle cx="2063" cy="997" r="147" fill="#FFFFFF" opacity="0.200" /><circle cx="714" cy="1844" r="135" fill="#FFFFFF" opacity="0.130" /><circle cx="687" cy="2543" r="131" fill="#FFFFFF" opacity="0.175" /><circle cx="2699" cy="2146" r="55" fill="#FFFFFF" opacity="0.104" /><circle cx="1902" cy="844" r="49" fill="#FFFFFF" opacity="0.087" /><circle cx="457" cy="422" r="155" fill="#FFFFFF" opacity="0.074" /><circle cx="2051" cy="2369" r="74" fill="#FFFFFF" opacity="0.220" /><circle cx="1688" cy="1568" r="103" fill="#FFFFFF" opacity="0.149" /><circle cx="989" cy="466" r="57" fill="#FFFFFF" opacity="0.124" /><circle cx="450" cy="2135" r="155" fill="#FFFFFF" opacity="0.215" /><circle cx="2397" cy="1122" r="119" fill="#FFFFFF" opacity="0.066" /><circle cx="604" cy="1188" r="47" fill="#FFFFFF" opacity="0.134" /><circle cx="820" cy="957" r="104" fill="#FFFFFF" opacity="0.068" /><circle cx="2633" cy="1736" r="64" fill="#FFFFFF" opacity="0.225" /><circle cx="2116" cy="1300" r="122" fill="#FFFFFF" opacity="0.120" /><circle cx="522" cy="327" r="129" fill="#FFFFFF" opacity="0.227" /><circle cx="2613" cy="864" r="84" fill="#FFFFFF" opacity="0.143" /><circle cx="390" cy="755" r="91" fill="#FFFFFF" opacity="0.159" /><circle cx="1683" cy="535" r="74" fill="#FFFFFF" opacity="0.224" /><circle cx="2489" cy="1563" r="120" fill="#FFFFFF" opacity="0.213" /><circle cx="1030" cy="1135" r="80" fill="#FFFFFF" opacity="0.062" /><circle cx="2616" cy="463" r="87" fill="#FFFFFF" opacity="0.192" /><circle cx="2386" cy="1328" r="79" fill="#FFFFFF" opacity="0.125" /><circle cx="1254" cy="1303" r="38" fill="#FFFFFF" opacity="0.143" /><circle cx="1252" cy="473" r="90" fill="#FFFFFF" opacity="0.213" /><circle cx="1768" cy="2020" r="139" fill="#FFFFFF" opacity="0.184" /><circle cx="2390" cy="1618" r="86" fill="#FFFFFF" opacity="0.106" /><circle cx="2336" cy="1905" r="122" fill="#FFFFFF" opacity="0.072" /></g>
  <g><path d="M 390.0 594.3 L 2863.0 317.8 L 2863.0 766.6 L 390.0 1043.1 Z" fill="#FFFFFF" opacity="0.233" /><path d="M 174.7 888.2 L 2787.4 611.7 L 2787.4 1089.8 L 174.7 1366.3 Z" fill="#FFFFFF" opacity="0.201" /><path d="M 335.9 1145.0 L 2824.4 868.5 L 2824.4 1351.1 L 335.9 1627.6 Z" fill="#FFFFFF" opacity="0.131" /><path d="M 186.4 1403.1 L 2894.3 1126.6 L 2894.3 1574.3 L 186.4 1850.8 Z" fill="#FFFFFF" opacity="0.227" /><path d="M 248.7 1673.8 L 2725.6 1397.3 L 2725.6 1846.1 L 248.7 2122.5 Z" fill="#FFFFFF" opacity="0.081" /><path d="M 244.5 1925.7 L 2724.9 1649.2 L 2724.9 2079.3 L 244.5 2355.8 Z" fill="#FFFFFF" opacity="0.239" /><path d="M 386.3 2216.2 L 2831.5 1939.7 L 2831.5 2417.8 L 386.3 2694.3 Z" fill="#FFFFFF" opacity="0.104" /><path d="M 202.8 2408.6 L 2866.7 2132.1 L 2866.7 2577.5 L 202.8 2853.9 Z" fill="#FFFFFF" opacity="0.217" /></g>
  <g filter="url(#soft1113)"><g transform="rotate(-10.33 1536.0 1536.0)"><path d="M-368.6 555.3 C -225.8 566.9, -25.8 545.4, 107.5 524.6 C 250.4 536.3, 450.4 582.1, 583.7 500.9 C 726.5 519.9, 926.5 572.9, 1059.8 510.3 C 1202.7 493.4, 1402.7 588.6, 1536.0 546.9 C 1678.8 545.5, 1878.8 560.7, 2012.2 588.7 C 2155.0 591.7, 2355.0 544.9, 2488.3 610.2 C 2631.2 617.3, 2831.2 500.4, 2964.5 598.4 C 3107.3 599.1, 3307.3 525.6, 3440.6 560.5" fill="none" stroke="url(#ribbon1113)" stroke-width="58.4" stroke-linecap="round" stroke-opacity="0.120" /></g><g transform="rotate(-9.75 1536.0 1536.0)"><path d="M-368.6 772.4 C -241.7 744.4, -63.9 804.6, 54.6 791.8 C 181.6 797.4, 359.4 752.5, 477.9 828.5 C 604.8 815.9, 782.6 746.1, 901.1 831.1 C 1028.1 848.0, 1205.9 735.5, 1324.4 798.1 C 1451.3 791.1, 1629.1 750.9, 1747.6 749.6 C 1874.6 746.2, 2052.4 789.4, 2170.9 714.9 C 2297.9 721.2, 2475.6 826.8, 2594.1 715.1 C 2721.1 708.8, 2898.9 799.8, 3017.4 750.1 C 3144.4 747.5, 3322.1 796.5, 3440.6 798.6" fill="none" stroke="url(#ribbon1113)" stroke-width="54.4" stroke-linecap="round" stroke-opacity="0.146" /></g><g transform="rotate(-9.17 1536.0 1536.0)"><path d="M-368.6 874.8 C -254.4 797.1, -94.4 911.0, 12.3 836.0 C 126.6 823.5, 286.6 895.7, 393.2 889.1 C 507.5 893.8, 667.5 867.1, 774.1 933.5 C 888.4 929.3, 1048.4 827.0, 1155.1 942.3 C 1269.4 932.5, 1429.3 833.3, 1536.0 910.2 C 1650.3 923.9, 1810.3 862.5, 1916.9 856.6 C 2031.2 852.3, 2191.2 886.7, 2297.9 814.1 C 2412.1 818.5, 2572.1 916.9, 2678.8 808.4 C 2793.1 783.3, 2953.1 936.5, 3059.7 843.0 C 3174.0 835.0, 3334.0 893.0, 3440.6 896.9" fill="none" stroke="url(#ribbon1113)" stroke-width="50.4" stroke-linecap="round" stroke-opacity="0.172" /></g><g transform="rotate(-8.59 1536.0 1536.0)"><path d="M-368.6 1139.6 C -264.8 1066.2, -119.3 1200.8, -22.3 1106.6 C 81.5 1095.0, 227.0 1172.9, 324.0 1166.1 C 427.8 1163.9, 573.3 1110.1, 670.3 1209.5 C 774.1 1183.7, 919.6 1064.4, 1016.6 1210.6 C 1120.4 1219.3, 1265.9 1099.6, 1362.9 1168.6 C 1466.7 1164.9, 1612.2 1121.6, 1709.1 1109.1 C 1813.0 1101.4, 1958.5 1153.2, 2055.4 1068.0 C 2159.3 1086.4, 2304.8 1184.6, 2401.7 1070.4 C 2505.6 1074.9, 2651.1 1181.8, 2748.0 1114.8 C 2851.9 1117.5, 2997.4 1162.7, 3094.3 1174.3 C 3198.2 1182.4, 3343.7 1120.4, 3440.6 1212.7" fill="none" stroke="url(#ribbon1113)" stroke-width="46.4" stroke-linecap="round" stroke-opacity="0.198" /></g><g transform="rotate(-8.01 1536.0 1536.0)"><path d="M-368.6 1295.4 C -273.4 1264.5, -140.1 1307.5, -51.2 1333.7 C 44.0 1337.1, 177.4 1259.4, 266.2 1375.3 C 361.5 1400.3, 494.8 1250.5, 583.7 1368.5 C 678.9 1394.1, 812.2 1250.6, 901.1 1317.4 C 996.4 1323.4, 1129.7 1288.5, 1218.6 1252.9 C 1313.8 1255.8, 1447.1 1339.5, 1536.0 1214.2 C 1631.2 1236.9, 1764.6 1330.1, 1853.4 1224.7 C 1948.7 1234.7, 2082.0 1345.3, 2170.9 1278.2 C 2266.1 1279.7, 2399.4 1308.7, 2488.3 1342.1 C 2583.6 1335.5, 2716.9 1252.6, 2805.8 1377.6 C 2901.0 1371.2, 3034.3 1253.6, 3123.2 1363.3 C 3218.4 1365.3, 3351.8 1264.9, 3440.6 1307.8" fill="none" stroke="url(#ribbon1113)" stroke-width="42.4" stroke-linecap="round" stroke-opacity="0.224" /></g><g transform="rotate(-7.43 1536.0 1536.0)"><path d="M-368.6 1474.3 C -225.8 1402.0, -25.8 1538.3, 107.5 1383.9 C 250.4 1414.3, 450.4 1515.7, 583.7 1415.3 C 726.5 1400.7, 926.5 1497.6, 1059.8 1482.5 C 1202.7 1480.6, 1402.7 1466.3, 1536.0 1544.8 C 1678.8 1559.4, 1878.8 1423.5, 2012.2 1564.3 C 2155.0 1572.5, 2355.0 1373.4, 2488.3 1529.2 C 2631.2 1510.8, 2831.2 1454.0, 2964.5 1460.8 C 3107.3 1465.9, 3307.3 1482.1, 3440.6 1400.6" fill="none" stroke="url(#ribbon1113)" stroke-width="38.4" stroke-linecap="round" stroke-opacity="0.250" /></g><g transform="rotate(-6.85 1536.0 1536.0)"><path d="M-368.6 1649.9 C -241.7 1570.8, -63.9 1686.1, 54.6 1557.2 C 181.6 1564.9, 359.4 1710.7, 477.9 1607.3 C 604.8 1596.0, 782.6 1682.4, 901.1 1683.2 C 1028.1 1670.2, 1205.9 1630.2, 1324.4 1739.0 C 1451.3 1722.7, 1629.1 1544.9, 1747.6 1740.8 C 1874.6 1732.1, 2052.4 1541.6, 2170.9 1687.4 C 2297.9 1697.7, 2475.6 1620.0, 2594.1 1611.3 C 2721.1 1612.8, 2898.9 1675.0, 3017.4 1558.7 C 3144.4 1547.0, 3322.1 1687.0, 3440.6 1561.4" fill="none" stroke="url(#ribbon1113)" stroke-width="34.4" stroke-linecap="round" stroke-opacity="0.276" /></g><g transform="rotate(-6.27 1536.0 1536.0)"><path d="M-368.6 1910.1 C -254.4 2008.1, -94.4 1884.8, 12.3 1919.3 C 126.6 1916.0, 286.6 1904.0, 393.2 1841.6 C 507.5 1860.4, 667.5 1935.7, 774.1 1805.5 C 888.4 1846.6, 1048.4 1968.3, 1155.1 1832.9 C 1269.4 1841.3, 1429.3 1976.7, 1536.0 1907.0 C 1650.3 1907.5, 1810.3 1913.5, 1916.9 1983.1 C 2031.2 1998.8, 2191.2 1827.3, 2297.9 2014.9 C 2412.1 2049.3, 2572.1 1839.8, 2678.8 1983.1 C 2793.1 1999.8, 2953.1 1864.6, 3059.7 1907.1 C 3174.0 1906.4, 3334.0 1912.6, 3440.6 1832.9" fill="none" stroke="url(#ribbon1113)" stroke-width="30.4" stroke-linecap="round" stroke-opacity="0.302" /></g><g transform="rotate(-5.69 1536.0 1536.0)"><path d="M-368.6 2090.4 C -264.8 2189.2, -119.3 1996.9, -22.3 2181.4 C 81.5 2165.9, 227.0 1997.7, 324.0 2107.1 C 427.8 2112.3, 573.3 2080.4, 670.3 2022.7 C 774.1 2022.8, 919.6 2131.1, 1016.6 1979.4 C 1120.4 2009.4, 1265.9 2139.2, 1362.9 2003.4 C 1466.7 1994.6, 1612.2 2182.6, 1709.1 2080.2 C 1813.0 2083.2, 1958.5 2095.1, 2055.4 2163.2 C 2159.3 2153.6, 2304.8 2066.3, 2401.7 2202.0 C 2505.6 2225.7, 2651.1 1984.9, 2748.0 2173.2 C 2851.9 2205.2, 2997.4 2012.8, 3094.3 2094.1 C 3198.2 2093.2, 3343.7 2086.8, 3440.6 2012.8" fill="none" stroke="url(#ribbon1113)" stroke-width="26.4" stroke-linecap="round" stroke-opacity="0.328" /></g><g transform="rotate(-5.11 1536.0 1536.0)"><path d="M-368.6 2210.8 C -273.4 2260.5, -140.1 2183.2, -51.2 2178.8 C 44.0 2180.1, 177.4 2228.0, 266.2 2106.4 C 361.5 2142.7, 494.8 2328.3, 583.7 2097.3 C 678.9 2101.4, 812.2 2256.9, 901.1 2157.1 C 996.4 2159.8, 1129.7 2239.0, 1218.6 2249.5 C 1313.8 2236.0, 1447.1 2176.7, 1536.0 2318.4 C 1631.2 2308.4, 1764.6 2088.0, 1853.4 2322.1 C 1948.7 2340.1, 2082.0 2090.5, 2170.9 2258.2 C 2266.1 2259.8, 2399.4 2158.5, 2488.3 2165.6 C 2583.6 2167.6, 2716.9 2233.7, 2805.8 2100.5 C 2901.0 2084.6, 3034.3 2305.4, 3123.2 2102.2 C 3218.4 2094.0, 3351.8 2276.5, 3440.6 2169.9" fill="none" stroke="url(#ribbon1113)" stroke-width="22.4" stroke-linecap="round" stroke-opacity="0.354" /></g><g transform="rotate(-4.53 1536.0 1536.0)"><path d="M-368.6 2476.8 C -225.8 2398.6, -25.8 2539.4, 107.5 2356.3 C 250.4 2328.8, 450.4 2534.9, 583.7 2366.6 C 726.5 2392.4, 926.5 2540.5, 1059.8 2443.7 C 1202.7 2438.0, 1402.7 2496.4, 1536.0 2541.0 C 1678.8 2535.7, 1878.8 2429.5, 2012.2 2599.3 C 2155.0 2576.4, 2355.0 2433.3, 2488.3 2583.3 C 2631.2 2555.6, 2831.2 2430.8, 2964.5 2502.8 C 3107.3 2508.3, 3307.3 2455.4, 3440.6 2406.5" fill="none" stroke="url(#ribbon1113)" stroke-width="18.4" stroke-linecap="round" stroke-opacity="0.380" /></g><g transform="rotate(-3.95 1536.0 1536.0)"><path d="M-368.6 2640.5 C -241.7 2573.3, -63.9 2666.3, 54.6 2694.0 C 181.6 2694.7, 359.4 2595.6, 477.9 2765.1 C 604.8 2738.1, 782.6 2498.9, 901.1 2760.6 C 1028.1 2735.5, 1205.9 2580.1, 1324.4 2683.2 C 1451.3 2678.7, 1629.1 2597.3, 1747.6 2579.9 C 1874.6 2602.6, 2052.4 2707.0, 2170.9 2513.3 C 2297.9 2537.9, 2475.6 2737.5, 2594.1 2523.8 C 2721.1 2553.3, 2898.9 2780.2, 3017.4 2605.1 C 3144.4 2601.7, 3322.1 2679.8, 3440.6 2707.8" fill="none" stroke="url(#ribbon1113)" stroke-width="14.4" stroke-linecap="round" stroke-opacity="0.406" /></g></g>
  <g><ellipse cx="1536.0" cy="1551.9" rx="728.6" ry="605.7" fill="url(#extrude1113)" opacity="0.220" /><ellipse cx="1536.0" cy="1567.7" rx="736.0" ry="610.9" fill="url(#extrude1113)" opacity="0.205" /><ellipse cx="1536.0" cy="1583.6" rx="743.4" ry="616.1" fill="url(#extrude1113)" opacity="0.190" /><ellipse cx="1536.0" cy="1599.5" rx="750.9" ry="621.3" fill="url(#extrude1113)" opacity="0.175" /><ellipse cx="1536.0" cy="1615.4" rx="758.3" ry="626.5" fill="url(#extrude1113)" opacity="0.160" /><ellipse cx="1536.0" cy="1631.2" rx="765.7" ry="631.7" fill="url(#extrude1113)" opacity="0.145" /><ellipse cx="1536.0" cy="1647.1" rx="773.2" ry="636.9" fill="url(#extrude1113)" opacity="0.130" /><ellipse cx="1536.0" cy="1663.0" rx="780.6" ry="642.1" fill="url(#extrude1113)" opacity="0.115" /><ellipse cx="1536.0" cy="1678.8" rx="788.0" ry="647.4" fill="url(#extrude1113)" opacity="0.100" /><ellipse cx="1536.0" cy="1694.7" rx="795.5" ry="652.6" fill="url(#extrude1113)" opacity="0.085" /><ellipse cx="1536.0" cy="1710.6" rx="802.9" ry="657.8" fill="url(#extrude1113)" opacity="0.070" /><ellipse cx="1536.0" cy="1726.5" rx="810.3" ry="663.0" fill="url(#extrude1113)" opacity="0.055" /></g>
  <ellipse cx="1536.0" cy="1726.5" rx="773.2" ry="214.9" fill="#0B1D2D" opacity="0.24" />
  <ellipse cx="1536.0" cy="1536.0" rx="743.4" ry="651.3" fill="url(#orb1113)" stroke="#FFFFFF" stroke-opacity="0.42" stroke-width="7" />
  <ellipse cx="1431.9" cy="1392.7" rx="505.5" ry="299.6" fill="#FFFFFF" opacity="0.25" />
  <path d="M 199.4 399.4 C 1013.8 -30.7, 2058.2 768.0, 2872.6 215.0 L 2872.6 983.0 C 2089.0 1228.8, 1013.8 307.2, 199.4 1167.4 Z" fill="url(#glass1113)" />
  <rect x="270" y="270" width="2532" height="2532" rx="430" fill="none" stroke="#FFFFFF" stroke-opacity="0.30" stroke-width="5" />
  <rect x="288.4" y="288.4" width="2495.1" height="2495.1" rx="399" fill="none" stroke="#36D1FF" stroke-opacity="0.35" stroke-width="3" />
  <g filter="url(#soft1113)"><rect x="942" y="609" width="34" height="2" fill="#FFFFFF" opacity="0.531" /><rect x="958" y="593" width="2" height="34" fill="#FFFFFF" opacity="0.531" /><rect x="1805" y="1205" width="74" height="2" fill="#FFFFFF" opacity="0.800" /><rect x="1841" y="1169" width="2" height="74" fill="#FFFFFF" opacity="0.800" /><rect x="2746" y="541" width="74" height="2" fill="#FFFFFF" opacity="0.712" /><rect x="2782" y="505" width="2" height="74" fill="#FFFFFF" opacity="0.712" /><rect x="1477" y="518" width="24" height="2" fill="#FFFFFF" opacity="0.312" /><rect x="1488" y="507" width="2" height="24" fill="#FFFFFF" opacity="0.312" /><rect x="1105" y="813" width="42" height="2" fill="#FFFFFF" opacity="0.611" /><rect x="1125" y="793" width="2" height="42" fill="#FFFFFF" opacity="0.611" /><rect x="1346" y="2679" width="78" height="2" fill="#FFFFFF" opacity="0.814" /><rect x="1384" y="2641" width="2" height="78" fill="#FFFFFF" opacity="0.814" /><rect x="1242" y="2533" width="48" height="2" fill="#FFFFFF" opacity="0.652" /><rect x="1265" y="2510" width="2" height="48" fill="#FFFFFF" opacity="0.652" /><rect x="1614" y="1647" width="66" height="2" fill="#FFFFFF" opacity="0.424" /><rect x="1646" y="1615" width="2" height="66" fill="#FFFFFF" opacity="0.424" /><rect x="1358" y="980" width="42" height="2" fill="#FFFFFF" opacity="0.303" /><rect x="1378" y="960" width="2" height="42" fill="#FFFFFF" opacity="0.303" /><rect x="1416" y="1173" width="36" height="2" fill="#FFFFFF" opacity="0.611" /><rect x="1433" y="1156" width="2" height="36" fill="#FFFFFF" opacity="0.611" /><rect x="2007" y="668" width="44" height="2" fill="#FFFFFF" opacity="0.477" /><rect x="2028" y="647" width="2" height="44" fill="#FFFFFF" opacity="0.477" /><rect x="921" y="653" width="66" height="2" fill="#FFFFFF" opacity="0.710" /><rect x="953" y="621" width="2" height="66" fill="#FFFFFF" opacity="0.710" /><rect x="1928" y="961" width="62" height="2" fill="#FFFFFF" opacity="0.335" /><rect x="1958" y="931" width="2" height="62" fill="#FFFFFF" opacity="0.335" /><rect x="2336" y="1927" width="84" height="2" fill="#FFFFFF" opacity="0.585" /><rect x="2377" y="1886" width="2" height="84" fill="#FFFFFF" opacity="0.585" /><rect x="323" y="2636" width="38" height="2" fill="#FFFFFF" opacity="0.582" /><rect x="341" y="2618" width="2" height="38" fill="#FFFFFF" opacity="0.582" /><rect x="2060" y="1742" width="58" height="2" fill="#FFFFFF" opacity="0.431" /><rect x="2088" y="1714" width="2" height="58" fill="#FFFFFF" opacity="0.431" /><rect x="414" y="2628" width="66" height="2" fill="#FFFFFF" opacity="0.610" /><rect x="446" y="2596" width="2" height="66" fill="#FFFFFF" opacity="0.610" /><rect x="1948" y="2640" width="78" height="2" fill="#FFFFFF" opacity="0.484" /><rect x="1986" y="2602" width="2" height="78" fill="#FFFFFF" opacity="0.484" /><rect x="2106" y="2167" width="38" height="2" fill="#FFFFFF" opacity="0.488" /><rect x="2124" y="2149" width="2" height="38" fill="#FFFFFF" opacity="0.488" /><rect x="2022" y="1966" width="52" height="2" fill="#FFFFFF" opacity="0.621" /><rect x="2047" y="1941" width="2" height="52" fill="#FFFFFF" opacity="0.621" /><rect x="712" y="582" width="74" height="2" fill="#FFFFFF" opacity="0.650" /><rect x="748" y="546" width="2" height="74" fill="#FFFFFF" opacity="0.650" /><rect x="1851" y="1808" width="44" height="2" fill="#FFFFFF" opacity="0.408" /><rect x="1872" y="1787" width="2" height="44" fill="#FFFFFF" opacity="0.408" /><rect x="2679" y="2489" width="26" height="2" fill="#FFFFFF" opacity="0.381" /><rect x="2691" y="2477" width="2" height="26" fill="#FFFFFF" opacity="0.381" /><rect x="1096" y="2093" width="40" height="2" fill="#FFFFFF" opacity="0.693" /><rect x="1115" y="2074" width="2" height="40" fill="#FFFFFF" opacity="0.693" /><rect x="1882" y="576" width="54" height="2" fill="#FFFFFF" opacity="0.595" /><rect x="1908" y="550" width="2" height="54" fill="#FFFFFF" opacity="0.595" /><rect x="1326" y="2033" width="44" height="2" fill="#FFFFFF" opacity="0.702" /><rect x="1347" y="2012" width="2" height="44" fill="#FFFFFF" opacity="0.702" /></g>
  <g opacity="0.52"><rect x="1060" y="1070" width="1024" height="1024" rx="153" fill="none" stroke="#0C2030" stroke-width="90" /><line x1="1316" y1="1326" x2="1828" y2="1838" stroke="#0C2030" stroke-width="90" stroke-linecap="round" /><line x1="1828" y1="1326" x2="1316" y2="1838" stroke="#0C2030" stroke-width="90" stroke-linecap="round" /></g>
  <g filter="url(#soft1113)"><rect x="1024" y="1024" width="1024" height="1024" rx="153" fill="none" stroke="url(#symbol1113)" stroke-width="90" /><line x1="1280" y1="1280" x2="1792" y2="1792" stroke="url(#symbol1113)" stroke-width="90" stroke-linecap="round" /><line x1="1792" y1="1280" x2="1280" y2="1792" stroke="url(#symbol1113)" stroke-width="90" stroke-linecap="round" /></g>
  <rect x="138" y="138" width="2796" height="2796" rx="629" fill="#FFFFFF" filter="url(#grain1113)" opacity="0.18" />
</svg>
