<svg xmlns="http://www.w3.org/2000/svg" width="3072" height="3072" viewBox="0 0 3072 3072">
  <title>QuartzOS System Icon 093 - update_05</title>
  <defs><linearGradient id="bg1092" x1="0%" y1="0%" x2="100%" y2="100%"><stop offset="0%" stop-color="#36D1FF" /><stop offset="26%" stop-color="#8A5CFF" /><stop offset="56%" stop-color="#FF9F43" /><stop offset="78%" stop-color="#4E8FC5" /><stop offset="100%" stop-color="#10243A" /></linearGradient><radialGradient id="sun1092" cx="48%" cy="40%" r="88%"><stop offset="0%" stop-color="#FFFFFF" stop-opacity="0.62" /><stop offset="30%" stop-color="#FFD84D" stop-opacity="0.35" /><stop offset="100%" stop-color="#FFD84D" stop-opacity="0" /></radialGradient><linearGradient id="glass1092" x1="0%" y1="0%" x2="0%" y2="100%"><stop offset="0%" stop-color="#FFFFFF" stop-opacity="0.70" /><stop offset="46%" stop-color="#FFFFFF" stop-opacity="0.26" /><stop offset="100%" stop-color="#FFFFFF" stop-opacity="0.00" /></linearGradient><linearGradient id="ribbon1092" x1="0%" y1="0%" x2="100%" y2="0%"><stop offset="0%" stop-color="#36D1FF" stop-opacity="0.18" /><stop offset="34%" stop-color="#8A5CFF" stop-opacity="0.72" /><stop offset="66%" stop-color="#FF9F43" stop-opacity="0.72" /><stop offset="100%" stop-color="#FFD84D" stop-opacity="0.18" /></linearGradient><radialGradient id="orb1092" cx="34%" cy="27%" r="74%"><stop offset="0%" stop-color="#FFFFFF" stop-opacity="0.84" /><stop offset="30%" stop-color="#36D1FF" stop-opacity="0.52" /><stop offset="68%" stop-color="#8A5CFF" stop-opacity="0.42" /><stop offset="100%" stop-color="#FF9F43" stop-opacity="0.20" /></radialGradient><linearGradient id="extrude1092" x1="0%" y1="0%" x2="0%" y2="100%"><stop offset="0%" stop-color="#15283C" stop-opacity="0.45" /><stop offset="100%" stop-color="#08131D" stop-opacity="0.06" /></linearGradient><linearGradient id="symbol1092" x1="0%" y1="0%" x2="100%" y2="100%"><stop offset="0%" stop-color="#FFFFFF" /><stop offset="100%" stop-color="#FFD84D" /></linearGradient><filter id="shadow1092" x="-40%" y="-40%" width="180%" height="180%"><feDropShadow dx="0" dy="49" stdDeviation="86" flood-color="#06111A" flood-opacity="0.54" /></filter><filter id="soft1092" x="-40%" y="-40%" width="180%" height="180%"><feDropShadow dx="0" dy="0" stdDeviation="14" flood-color="#36D1FF" flood-opacity="0.45" /></filter><filter id="grain1092"><feTurbulence type="fractalNoise" baseFrequency="1.057" numOctaves="2" seed="1092" /><feColorMatrix type="saturate" values="0" /><feComponentTransfer><feFuncA type="table" tableValues="0 0.09" /></feComponentTransfer></filter></defs>
  <rect x="138" y="138" width="2796" height="2796" rx="629" fill="url(#bg1092)" filter="url(#shadow1092)" />
  <rect x="138" y="138" width="2796" height="2796" rx="629" fill="url(#sun1092)" />
  <g><circle cx="2235" cy="1782" r="108" fill="#FFFFFF" opacity="0.110" /><circle cx="2041" cy="1252" r="94" fill="#FFFFFF" opacity="0.158" /><circle cx="2694" cy="935" r="82" fill="#FFFFFF" opacity="0.107" /><circle cx="1571" cy="808" r="109" fill="#FFFFFF" opacity="0.223" /><circle cx="1241" cy="943" r="89" fill="#FFFFFF" opacity="0.165" /><circle cx="643" cy="1391" r="132" fill="#FFFFFF" opacity="0.142" /><circle cx="2623" cy="1137" r="62" fill="#FFFFFF" opacity="0.227" /><circle cx="517" cy="1415" r="52" fill="#FFFFFF" opacity="0.063" /><circle cx="428" cy="2480" r="37" fill="#FFFFFF" opacity="0.134" /><circle cx="1031" cy="320" r="130" fill="#FFFFFF" opacity="0.076" /><circle cx="390" cy="2354" r="116" fill="#FFFFFF" opacity="0.159" /><circle cx="1810" cy="321" r="80" fill="#FFFFFF" opacity="0.238" /><circle cx="668" cy="2065" r="63" fill="#FFFFFF" opacity="0.066" /><circle cx="2454" cy="1712" r="110" fill="#FFFFFF" opacity="0.200" /><circle cx="1437" cy="732" r="147" fill="#FFFFFF" opacity="0.117" /><circle cx="1701" cy="1317" r="140" fill="#FFFFFF" opacity="0.240" /><circle cx="1797" cy="1896" r="140" fill="#FFFFFF" opacity="0.065" /><circle cx="2578" cy="1277" r="127" fill="#FFFFFF" opacity="0.103" /><circle cx="2655" cy="1714" r="50" fill="#FFFFFF" opacity="0.086" /><circle cx="2516" cy="1804" r="155" fill="#FFFFFF" opacity="0.149" /><circle cx="1590" cy="1861" r="117" fill="#FFFFFF" opacity="0.072" /><circle cx="1130" cy="1887" r="39" fill="#FFFFFF" opacity="0.126" /><circle cx="699" cy="1617" r="87" fill="#FFFFFF" opacity="0.138" /><circle cx="2298" cy="729" r="39" fill="#FFFFFF" opacity="0.064" /><circle cx="1748" cy="2684" r="90" fill="#FFFFFF" opacity="0.196" /><circle cx="1217" cy="2345" r="120" fill="#FFFFFF" opacity="0.069" /><circle cx="2642" cy="368" r="41" fill="#FFFFFF" opacity="0.226" /><circle cx="787" cy="1730" r="65" fill="#FFFFFF" opacity="0.065" /></g>
  <g><path d="M 308.5 640.8 L 2699.0 364.3 L 2699.0 816.1 L 308.5 1092.6 Z" fill="#FFFFFF" opacity="0.143" /><path d="M 262.9 838.1 L 2922.8 561.6 L 2922.8 1021.7 L 262.9 1298.2 Z" fill="#FFFFFF" opacity="0.209" /><path d="M 267.1 1117.9 L 2717.8 841.5 L 2717.8 1312.6 L 267.1 1589.0 Z" fill="#FFFFFF" opacity="0.217" /><path d="M 364.9 1413.0 L 2821.5 1136.5 L 2821.5 1605.2 L 364.9 1881.7 Z" fill="#FFFFFF" opacity="0.231" /><path d="M 252.7 1643.6 L 2842.1 1367.2 L 2842.1 1826.3 L 252.7 2102.8 Z" fill="#FFFFFF" opacity="0.152" /><path d="M 326.0 1948.8 L 2914.1 1672.3 L 2914.1 2153.4 L 326.0 2429.9 Z" fill="#FFFFFF" opacity="0.203" /><path d="M 302.1 2154.9 L 2687.9 1878.4 L 2687.9 2374.7 L 302.1 2651.2 Z" fill="#FFFFFF" opacity="0.139" /><path d="M 201.9 2446.2 L 2713.5 2169.7 L 2713.5 2599.7 L 201.9 2876.2 Z" fill="#FFFFFF" opacity="0.142" /></g>
  <g filter="url(#soft1092)"><g transform="rotate(-13.47 1536.0 1536.0)"><path d="M-368.6 509.3 C -225.8 552.7, -25.8 484.0, 107.5 564.1 C 250.4 549.5, 450.4 454.1, 583.7 553.0 C 726.5 568.9, 926.5 484.0, 1059.8 515.5 C 1202.7 516.4, 1402.7 502.9, 1536.0 474.2 C 1678.8 470.8, 1878.8 545.2, 2012.2 454.2 C 2155.0 473.8, 2355.0 551.0, 2488.3 467.7 C 2631.2 464.3, 2831.2 531.5, 2964.5 506.4 C 3107.3 506.0, 3307.3 511.5, 3440.6 546.9" fill="none" stroke="url(#ribbon1092)" stroke-width="58.4" stroke-linecap="round" stroke-opacity="0.120" /></g><g transform="rotate(-12.89 1536.0 1536.0)"><path d="M-368.6 718.6 C -241.7 667.1, -63.9 749.6, 54.6 690.8 C 181.6 683.8, 359.4 734.0, 477.9 739.3 C 604.8 738.1, 782.6 695.8, 901.1 775.2 C 1028.1 777.9, 1205.9 698.2, 1324.4 776.9 C 1451.3 794.4, 1629.1 699.9, 1747.6 743.2 C 1874.6 737.8, 2052.4 701.9, 2170.9 694.6 C 2297.9 688.5, 2475.6 734.5, 2594.1 660.6 C 2721.1 668.2, 2898.9 765.2, 3017.4 661.8 C 3144.4 672.3, 3322.1 763.0, 3440.6 697.5" fill="none" stroke="url(#ribbon1092)" stroke-width="54.4" stroke-linecap="round" stroke-opacity="0.146" /></g><g transform="rotate(-12.31 1536.0 1536.0)"><path d="M-368.6 892.9 C -254.4 871.7, -94.4 924.7, 12.3 827.5 C 126.6 825.9, 286.6 962.2, 393.2 830.7 C 507.5 832.0, 667.5 956.8, 774.1 871.6 C 888.4 876.6, 1048.4 911.6, 1155.1 925.5 C 1269.4 922.8, 1429.3 863.0, 1536.0 959.6 C 1650.3 938.4, 1810.3 820.3, 1916.9 953.3 C 2031.2 967.8, 2191.2 824.6, 2297.9 910.3 C 2412.1 910.9, 2572.1 881.1, 2678.8 856.8 C 2793.1 860.2, 2953.1 922.0, 3059.7 825.2 C 3174.0 835.1, 3334.0 933.4, 3440.6 834.7" fill="none" stroke="url(#ribbon1092)" stroke-width="50.4" stroke-linecap="round" stroke-opacity="0.172" /></g><g transform="rotate(-11.73 1536.0 1536.0)"><path d="M-368.6 1067.3 C -264.8 1016.2, -119.3 1146.5, -22.3 1039.0 C 81.5 1035.3, 227.0 1095.7, 324.0 1098.5 C 427.8 1100.7, 573.3 1044.3, 670.3 1139.2 C 774.1 1162.5, 919.6 1040.7, 1016.6 1136.2 C 1120.4 1155.2, 1265.9 1030.9, 1362.9 1091.5 C 1466.7 1090.1, 1612.2 1055.1, 1709.1 1032.1 C 1813.0 1042.8, 1958.5 1099.5, 2055.4 994.1 C 2159.3 1008.6, 2304.8 1150.2, 2401.7 1000.5 C 2505.6 1016.9, 2651.1 1100.5, 2748.0 1047.4 C 2851.9 1041.6, 2997.4 1084.6, 3094.3 1106.5 C 3198.2 1102.7, 3343.7 1043.4, 3440.6 1141.7" fill="none" stroke="url(#ribbon1092)" stroke-width="46.4" stroke-linecap="round" stroke-opacity="0.198" /></g><g transform="rotate(-11.15 1536.0 1536.0)"><path d="M-368.6 1236.5 C -273.4 1278.3, -140.1 1208.3, -51.2 1319.9 C 44.0 1339.8, 177.4 1153.1, 266.2 1298.2 C 361.5 1291.7, 494.8 1187.1, 583.7 1239.1 C 678.9 1239.9, 812.2 1235.7, 901.1 1178.4 C 996.4 1166.7, 1129.7 1257.0, 1218.6 1153.0 C 1313.8 1146.6, 1447.1 1325.0, 1536.0 1178.2 C 1631.2 1168.6, 1764.6 1264.7, 1853.4 1238.8 C 1948.7 1238.5, 2082.0 1234.5, 2170.9 1298.0 C 2266.1 1311.4, 2399.4 1170.7, 2488.3 1319.9 C 2583.6 1318.1, 2716.9 1153.9, 2805.8 1291.2 C 2901.0 1292.8, 3034.3 1186.5, 3123.2 1229.4 C 3218.4 1227.7, 3351.8 1245.0, 3440.6 1171.8" fill="none" stroke="url(#ribbon1092)" stroke-width="42.4" stroke-linecap="round" stroke-opacity="0.224" /></g><g transform="rotate(-10.57 1536.0 1536.0)"><path d="M-368.6 1474.9 C -225.8 1481.7, -25.8 1465.1, 107.5 1546.9 C 250.4 1531.9, 450.4 1442.7, 583.7 1564.6 C 726.5 1538.4, 926.5 1372.1, 1059.8 1527.9 C 1202.7 1536.2, 1402.7 1438.5, 1536.0 1459.0 C 1678.8 1462.7, 1878.8 1486.4, 2012.2 1399.9 C 2155.0 1372.5, 2355.0 1526.3, 2488.3 1386.2 C 2631.2 1390.4, 2831.2 1571.1, 2964.5 1426.4 C 3107.3 1424.1, 3307.3 1504.1, 3440.6 1496.0" fill="none" stroke="url(#ribbon1092)" stroke-width="38.4" stroke-linecap="round" stroke-opacity="0.250" /></g><g transform="rotate(-9.99 1536.0 1536.0)"><path d="M-368.6 1666.9 C -241.7 1794.3, -63.9 1617.4, 54.6 1748.9 C 181.6 1723.8, 359.4 1583.1, 477.9 1685.9 C 604.8 1693.4, 782.6 1648.3, 901.1 1611.4 C 1028.1 1594.5, 1205.9 1730.4, 1324.4 1570.5 C 1451.3 1560.7, 1629.1 1725.8, 1747.6 1588.1 C 1874.6 1599.5, 2052.4 1752.4, 2170.9 1653.4 C 2297.9 1653.1, 2475.6 1676.4, 2594.1 1726.9 C 2721.1 1748.9, 2898.9 1635.3, 3017.4 1764.0 C 3144.4 1785.0, 3322.1 1556.0, 3440.6 1742.1" fill="none" stroke="url(#ribbon1092)" stroke-width="34.4" stroke-linecap="round" stroke-opacity="0.276" /></g><g transform="rotate(-9.41 1536.0 1536.0)"><path d="M-368.6 1897.4 C -254.4 1812.9, -94.4 1976.8, 12.3 1853.2 C 126.6 1844.6, 286.6 1913.9, 393.2 1934.8 C 507.5 1920.9, 667.5 1860.5, 774.1 1993.6 C 888.4 1977.5, 1048.4 1831.8, 1155.1 1994.1 C 1269.4 1961.1, 1429.3 1816.6, 1536.0 1935.9 C 1650.3 1944.9, 1810.3 1867.6, 1916.9 1854.4 C 2031.2 1848.0, 2191.2 1940.3, 2297.9 1798.9 C 2412.1 1823.4, 2572.1 1951.0, 2678.8 1803.2 C 2793.1 1780.6, 2953.1 1941.9, 3059.7 1864.6 C 3174.0 1856.6, 3334.0 1927.9, 3440.6 1945.9" fill="none" stroke="url(#ribbon1092)" stroke-width="30.4" stroke-linecap="round" stroke-opacity="0.302" /></g><g transform="rotate(-8.83 1536.0 1536.0)"><path d="M-368.6 2126.2 C -264.8 2260.1, -119.3 2072.3, -22.3 2164.5 C 81.5 2160.3, 227.0 2103.6, 324.0 2077.6 C 427.8 2069.1, 573.3 2171.2, 670.3 2020.1 C 774.1 2039.9, 919.6 2243.9, 1016.6 2026.9 C 1120.4 2032.5, 1265.9 2188.1, 1362.9 2094.0 C 1466.7 2085.1, 1612.2 2138.3, 1709.1 2180.6 C 1813.0 2162.6, 1958.5 2081.8, 2055.4 2234.1 C 2159.3 2213.7, 2304.8 2042.1, 2401.7 2222.2 C 2505.6 2233.4, 2651.1 2058.0, 2748.0 2152.0 C 2851.9 2157.0, 2997.4 2116.4, 3094.3 2066.2 C 3198.2 2052.8, 3343.7 2167.2, 3440.6 2016.7" fill="none" stroke="url(#ribbon1092)" stroke-width="26.4" stroke-linecap="round" stroke-opacity="0.328" /></g><g transform="rotate(-8.25 1536.0 1536.0)"><path d="M-368.6 2280.3 C -273.4 2187.0, -140.1 2311.2, -51.2 2161.8 C 44.0 2119.8, 177.4 2353.6, 266.2 2191.4 C 361.5 2157.5, 494.8 2348.0, 583.7 2275.0 C 678.9 2273.9, 812.2 2283.7, 901.1 2361.8 C 996.4 2354.5, 1129.7 2216.0, 1218.6 2399.2 C 1313.8 2404.2, 1447.1 2157.5, 1536.0 2364.5 C 1631.2 2365.6, 1764.6 2221.8, 1853.4 2278.7 C 1948.7 2279.0, 2082.0 2282.2, 2170.9 2193.9 C 2266.1 2188.4, 2399.4 2348.0, 2488.3 2161.6 C 2583.6 2161.9, 2716.9 2354.6, 2805.8 2201.3 C 2901.0 2200.4, 3034.3 2334.0, 3123.2 2288.9 C 3218.4 2292.3, 3351.8 2271.3, 3440.6 2371.4" fill="none" stroke="url(#ribbon1092)" stroke-width="22.4" stroke-linecap="round" stroke-opacity="0.354" /></g><g transform="rotate(-7.67 1536.0 1536.0)"><path d="M-368.6 2464.4 C -225.8 2442.4, -25.8 2475.7, 107.5 2363.6 C 250.4 2379.6, 450.4 2547.7, 583.7 2340.0 C 726.5 2328.5, 926.5 2524.4, 1059.8 2391.9 C 1202.7 2394.6, 1402.7 2528.0, 1536.0 2487.8 C 1678.8 2490.0, 1878.8 2451.6, 2012.2 2569.5 C 2155.0 2587.1, 2355.0 2398.9, 2488.3 2587.4 C 2631.2 2541.2, 2831.2 2376.9, 2964.5 2530.8 C 3107.3 2531.9, 3307.3 2388.7, 3440.6 2433.8" fill="none" stroke="url(#ribbon1092)" stroke-width="18.4" stroke-linecap="round" stroke-opacity="0.380" /></g><g transform="rotate(-7.09 1536.0 1536.0)"><path d="M-368.6 2679.3 C -241.7 2660.9, -63.9 2698.0, 54.6 2573.0 C 181.6 2586.7, 359.4 2766.3, 477.9 2547.9 C 604.8 2537.7, 782.6 2781.0, 901.1 2602.5 C 1028.1 2574.5, 1205.9 2746.1, 1324.4 2703.8 C 1451.3 2711.0, 1629.1 2658.6, 1747.6 2790.1 C 1874.6 2772.4, 2052.4 2554.0, 2170.9 2809.3 C 2297.9 2850.3, 2475.6 2530.3, 2594.1 2749.6 C 2721.1 2726.0, 2898.9 2613.4, 3017.4 2647.3 C 3144.4 2649.3, 3322.1 2708.6, 3440.6 2564.4" fill="none" stroke="url(#ribbon1092)" stroke-width="14.4" stroke-linecap="round" stroke-opacity="0.406" /></g></g>
  <g><ellipse cx="1536.0" cy="1551.9" rx="728.6" ry="605.7" fill="url(#extrude1092)" opacity="0.220" /><ellipse cx="1536.0" cy="1567.7" rx="736.0" ry="610.9" fill="url(#extrude1092)" opacity="0.205" /><ellipse cx="1536.0" cy="1583.6" rx="743.4" ry="616.1" fill="url(#extrude1092)" opacity="0.190" /><ellipse cx="1536.0" cy="1599.5" rx="750.9" ry="621.3" fill="url(#extrude1092)" opacity="0.175" /><ellipse cx="1536.0" cy="1615.4" rx="758.3" ry="626.5" fill="url(#extrude1092)" opacity="0.160" /><ellipse cx="1536.0" cy="1631.2" rx="765.7" ry="631.7" fill="url(#extrude1092)" opacity="0.145" /><ellipse cx="1536.0" cy="1647.1" rx="773.2" ry="636.9" fill="url(#extrude1092)" opacity="0.130" /><ellipse cx="1536.0" cy="1663.0" rx="780.6" ry="642.1" fill="url(#extrude1092)" opacity="0.115" /><ellipse cx="1536.0" cy="1678.8" rx="788.0" ry="647.4" fill="url(#extrude1092)" opacity="0.100" /><ellipse cx="1536.0" cy="1694.7" rx="795.5" ry="652.6" fill="url(#extrude1092)" opacity="0.085" /><ellipse cx="1536.0" cy="1710.6" rx="802.9" ry="657.8" fill="url(#extrude1092)" opacity="0.070" /><ellipse cx="1536.0" cy="1726.5" rx="810.3" ry="663.0" fill="url(#extrude1092)" opacity="0.055" /></g>
  <ellipse cx="1536.0" cy="1726.5" rx="773.2" ry="214.9" fill="#0B1D2D" opacity="0.24" />
  <ellipse cx="1536.0" cy="1536.0" rx="743.4" ry="651.3" fill="url(#orb1092)" stroke="#FFFFFF" stroke-opacity="0.42" stroke-width="7" />
  <ellipse cx="1431.9" cy="1392.7" rx="505.5" ry="299.6" fill="#FFFFFF" opacity="0.25" />
  <path d="M 199.4 399.4 C 1013.8 -30.7, 2058.2 768.0, 2872.6 215.0 L 2872.6 983.0 C 2089.0 1228.8, 1013.8 307.2, 199.4 1167.4 Z" fill="url(#glass1092)" />
  <rect x="270" y="270" width="2532" height="2532" rx="430" fill="none" stroke="#FFFFFF" stroke-opacity="0.30" stroke-width="5" />
  <rect x="288.4" y="288.4" width="2495.1" height="2495.1" rx="399" fill="none" stroke="#36D1FF" stroke-opacity="0.35" stroke-width="3" />
  <g filter="url(#soft1092)"><rect x="2012" y="1866" width="30" height="2" fill="#FFFFFF" opacity="0.534" /><rect x="2026" y="1852" width="2" height="30" fill="#FFFFFF" opacity="0.534" /><rect x="1496" y="2512" width="78" height="2" fill="#FFFFFF" opacity="0.707" /><rect x="1534" y="2474" width="2" height="78" fill="#FFFFFF" opacity="0.707" /><rect x="1298" y="1797" width="74" height="2" fill="#FFFFFF" opacity="0.506" /><rect x="1334" y="1761" width="2" height="74" fill="#FFFFFF" opacity="0.506" /><rect x="1467" y="1274" width="48" height="2" fill="#FFFFFF" opacity="0.589" /><rect x="1490" y="1251" width="2" height="48" fill="#FFFFFF" opacity="0.589" /><rect x="1584" y="2694" width="42" height="2" fill="#FFFFFF" opacity="0.731" /><rect x="1604" y="2674" width="2" height="42" fill="#FFFFFF" opacity="0.731" /><rect x="1163" y="332" width="60" height="2" fill="#FFFFFF" opacity="0.659" /><rect x="1192" y="303" width="2" height="60" fill="#FFFFFF" opacity="0.659" /><rect x="2645" y="689" width="46" height="2" fill="#FFFFFF" opacity="0.740" /><rect x="2667" y="667" width="2" height="46" fill="#FFFFFF" opacity="0.740" /><rect x="1334" y="966" width="40" height="2" fill="#FFFFFF" opacity="0.528" /><rect x="1353" y="947" width="2" height="40" fill="#FFFFFF" opacity="0.528" /><rect x="489" y="1925" width="84" height="2" fill="#FFFFFF" opacity="0.469" /><rect x="530" y="1884" width="2" height="84" fill="#FFFFFF" opacity="0.469" /><rect x="1906" y="380" width="84" height="2" fill="#FFFFFF" opacity="0.667" /><rect x="1947" y="339" width="2" height="84" fill="#FFFFFF" opacity="0.667" /><rect x="943" y="406" width="66" height="2" fill="#FFFFFF" opacity="0.622" /><rect x="975" y="374" width="2" height="66" fill="#FFFFFF" opacity="0.622" /><rect x="1064" y="2375" width="38" height="2" fill="#FFFFFF" opacity="0.721" /><rect x="1082" y="2357" width="2" height="38" fill="#FFFFFF" opacity="0.721" /><rect x="2433" y="2599" width="72" height="2" fill="#FFFFFF" opacity="0.319" /><rect x="2468" y="2564" width="2" height="72" fill="#FFFFFF" opacity="0.319" /><rect x="947" y="1730" width="66" height="2" fill="#FFFFFF" opacity="0.612" /><rect x="979" y="1698" width="2" height="66" fill="#FFFFFF" opacity="0.612" /><rect x="1230" y="556" width="54" height="2" fill="#FFFFFF" opacity="0.824" /><rect x="1256" y="530" width="2" height="54" fill="#FFFFFF" opacity="0.824" /><rect x="852" y="2740" width="28" height="2" fill="#FFFFFF" opacity="0.573" /><rect x="865" y="2727" width="2" height="28" fill="#FFFFFF" opacity="0.573" /><rect x="1008" y="1875" width="60" height="2" fill="#FFFFFF" opacity="0.515" /><rect x="1037" y="1846" width="2" height="60" fill="#FFFFFF" opacity="0.515" /><rect x="1985" y="1396" width="28" height="2" fill="#FFFFFF" opacity="0.669" /><rect x="1998" y="1383" width="2" height="28" fill="#FFFFFF" opacity="0.669" /><rect x="1984" y="613" width="42" height="2" fill="#FFFFFF" opacity="0.329" /><rect x="2004" y="593" width="2" height="42" fill="#FFFFFF" opacity="0.329" /><rect x="2113" y="1721" width="62" height="2" fill="#FFFFFF" opacity="0.350" /><rect x="2143" y="1691" width="2" height="62" fill="#FFFFFF" opacity="0.350" /><rect x="1980" y="2525" width="60" height="2" fill="#FFFFFF" opacity="0.445" /><rect x="2009" y="2496" width="2" height="60" fill="#FFFFFF" opacity="0.445" /><rect x="2136" y="781" width="68" height="2" fill="#FFFFFF" opacity="0.790" /><rect x="2169" y="748" width="2" height="68" fill="#FFFFFF" opacity="0.790" /><rect x="2267" y="1333" width="64" height="2" fill="#FFFFFF" opacity="0.308" /><rect x="2298" y="1302" width="2" height="64" fill="#FFFFFF" opacity="0.308" /><rect x="2085" y="300" width="30" height="2" fill="#FFFFFF" opacity="0.661" /><rect x="2099" y="286" width="2" height="30" fill="#FFFFFF" opacity="0.661" /><rect x="2654" y="1754" width="74" height="2" fill="#FFFFFF" opacity="0.327" /><rect x="2690" y="1718" width="2" height="74" fill="#FFFFFF" opacity="0.327" /><rect x="1690" y="2059" width="66" height="2" fill="#FFFFFF" opacity="0.738" /><rect x="1722" y="2027" width="2" height="66" fill="#FFFFFF" opacity="0.738" /></g>
  <g opacity="0.52"><circle cx="1572" cy="1582" r="307" fill="none" stroke="#0C2030" stroke-width="90" /><line x1="1791" y1="1801" x2="2340" y2="2350" stroke="#0C2030" stroke-width="90" stroke-linecap="round" /></g>
  <g filter="url(#soft1092)"><circle cx="1536" cy="1536" r="307" fill="none" stroke="url(#symbol1092)" stroke-width="90" /><line x1="1755" y1="1755" x2="2304" y2="2304" stroke="url(#symbol1092)" stroke-width="90" stroke-linecap="round" /></g>
  <rect x="138" y="138" width="2796" height="2796" rx="629" fill="#FFFFFF" filter="url(#grain1092)" opacity="0.18" />
</svg>
