<svg xmlns="http://www.w3.org/2000/svg" width="3072" height="3072" viewBox="0 0 3072 3072">
  <title>QuartzOS System Icon 113 - update_06</title>
  <defs><linearGradient id="bg1112" x1="0%" y1="0%" x2="100%" y2="100%"><stop offset="0%" stop-color="#53E3A6" /><stop offset="26%" stop-color="#3B82FF" /><stop offset="56%" stop-color="#FF6AB3" /><stop offset="78%" stop-color="#3C8FC1" /><stop offset="100%" stop-color="#1E2E3A" /></linearGradient><radialGradient id="sun1112" cx="47%" cy="22%" r="88%"><stop offset="0%" stop-color="#FFFFFF" stop-opacity="0.62" /><stop offset="30%" stop-color="#FF9F43" stop-opacity="0.35" /><stop offset="100%" stop-color="#FF9F43" stop-opacity="0" /></radialGradient><linearGradient id="glass1112" x1="0%" y1="0%" x2="0%" y2="100%"><stop offset="0%" stop-color="#FFFFFF" stop-opacity="0.70" /><stop offset="46%" stop-color="#FFFFFF" stop-opacity="0.26" /><stop offset="100%" stop-color="#FFFFFF" stop-opacity="0.00" /></linearGradient><linearGradient id="ribbon1112" x1="0%" y1="0%" x2="100%" y2="0%"><stop offset="0%" stop-color="#53E3A6" stop-opacity="0.18" /><stop offset="34%" stop-color="#3B82FF" stop-opacity="0.72" /><stop offset="66%" stop-color="#FF6AB3" stop-opacity="0.72" /><stop offset="100%" stop-color="#FF9F43" stop-opacity="0.18" /></linearGradient><radialGradient id="orb1112" cx="34%" cy="27%" r="74%"><stop offset="0%" stop-color="#FFFFFF" stop-opacity="0.84" /><stop offset="30%" stop-color="#53E3A6" stop-opacity="0.52" /><stop offset="68%" stop-color="#3B82FF" stop-opacity="0.42" /><stop offset="100%" stop-color="#FF6AB3" stop-opacity="0.20" /></radialGradient><linearGradient id="extrude1112" x1="0%" y1="0%" x2="0%" y2="100%"><stop offset="0%" stop-color="#15283C" stop-opacity="0.45" /><stop offset="100%" stop-color="#08131D" stop-opacity="0.06" /></linearGradient><linearGradient id="symbol1112" x1="0%" y1="0%" x2="100%" y2="100%"><stop offset="0%" stop-color="#FFFFFF" /><stop offset="100%" stop-color="#FF9F43" /></linearGradient><filter id="shadow1112" x="-40%" y="-40%" width="180%" height="180%"><feDropShadow dx="0" dy="49" stdDeviation="86" flood-color="#06111A" flood-opacity="0.54" /></filter><filter id="soft1112" x="-40%" y="-40%" width="180%" height="180%"><feDropShadow dx="0" dy="0" stdDeviation="14" flood-color="#53E3A6" flood-opacity="0.45" /></filter><filter id="grain1112"><feTurbulence type="fractalNoise" baseFrequency="0.978" numOctaves="2" seed="1112" /><feColorMatrix type="saturate" values="0" /><feComponentTransfer><feFuncA type="table" tableValues="0 0.09" /></feComponentTransfer></filter></defs>
  <rect x="138" y="138" width="2796" height="2796" rx="629" fill="url(#bg1112)" filter="url(#shadow1112)" />
  <rect x="138" y="138" width="2796" height="2796" rx="629" fill="url(#sun1112)" />
  <g><circle cx="2150" cy="2594" r="116" fill="#FFFFFF" opacity="0.098" /><circle cx="518" cy="667" r="142" fill="#FFFFFF" opacity="0.211" /><circle cx="2286" cy="2487" r="125" fill="#FFFFFF" opacity="0.216" /><circle cx="1453" cy="2513" r="57" fill="#FFFFFF" opacity="0.158" /><circle cx="1638" cy="2500" r="118" fill="#FFFFFF" opacity="0.207" /><circle cx="625" cy="703" r="87" fill="#FFFFFF" opacity="0.182" /><circle cx="1507" cy="1914" r="150" fill="#FFFFFF" opacity="0.146" /><circle cx="2050" cy="1480" r="54" fill="#FFFFFF" opacity="0.220" /><circle cx="808" cy="2519" r="158" fill="#FFFFFF" opacity="0.106" /><circle cx="792" cy="1494" r="142" fill="#FFFFFF" opacity="0.136" /><circle cx="1362" cy="2570" r="119" fill="#FFFFFF" opacity="0.138" /><circle cx="2337" cy="1902" r="91" fill="#FFFFFF" opacity="0.169" /><circle cx="493" cy="1078" r="77" fill="#FFFFFF" opacity="0.210" /><circle cx="1259" cy="1653" r="133" fill="#FFFFFF" opacity="0.100" /><circle cx="1287" cy="454" r="68" fill="#FFFFFF" opacity="0.120" /><circle cx="885" cy="1105" r="87" fill="#FFFFFF" opacity="0.177" /><circle cx="814" cy="321" r="44" fill="#FFFFFF" opacity="0.084" /><circle cx="1593" cy="1599" r="50" fill="#FFFFFF" opacity="0.207" /><circle cx="670" cy="1650" r="56" fill="#FFFFFF" opacity="0.226" /><circle cx="2088" cy="993" r="129" fill="#FFFFFF" opacity="0.235" /><circle cx="2499" cy="2069" r="73" fill="#FFFFFF" opacity="0.199" /><circle cx="2002" cy="1917" r="48" fill="#FFFFFF" opacity="0.115" /><circle cx="2489" cy="1504" r="54" fill="#FFFFFF" opacity="0.224" /><circle cx="1129" cy="1614" r="110" fill="#FFFFFF" opacity="0.116" /><circle cx="1188" cy="1375" r="153" fill="#FFFFFF" opacity="0.106" /><circle cx="2313" cy="1701" r="92" fill="#FFFFFF" opacity="0.062" /><circle cx="628" cy="2153" r="71" fill="#FFFFFF" opacity="0.204" /><circle cx="1639" cy="1899" r="99" fill="#FFFFFF" opacity="0.240" /></g>
  <g><path d="M 285.5 570.5 L 2874.3 294.0 L 2874.3 773.2 L 285.5 1049.7 Z" fill="#FFFFFF" opacity="0.120" /><path d="M 245.5 883.3 L 2741.2 606.8 L 2741.2 1087.0 L 245.5 1363.5 Z" fill="#FFFFFF" opacity="0.146" /><path d="M 308.1 1096.4 L 2710.6 819.9 L 2710.6 1241.5 L 308.1 1518.0 Z" fill="#FFFFFF" opacity="0.178" /><path d="M 243.4 1425.7 L 2756.2 1149.2 L 2756.2 1608.6 L 243.4 1885.1 Z" fill="#FFFFFF" opacity="0.238" /><path d="M 392.9 1634.6 L 2856.7 1358.1 L 2856.7 1790.7 L 392.9 2067.2 Z" fill="#FFFFFF" opacity="0.111" /><path d="M 247.3 1958.2 L 2917.8 1681.8 L 2917.8 2144.0 L 247.3 2420.4 Z" fill="#FFFFFF" opacity="0.122" /><path d="M 324.0 2191.8 L 2784.2 1915.3 L 2784.2 2336.3 L 324.0 2612.7 Z" fill="#FFFFFF" opacity="0.210" /><path d="M 296.0 2479.8 L 2793.6 2203.3 L 2793.6 2686.7 L 296.0 2963.2 Z" fill="#FFFFFF" opacity="0.176" /></g>
  <g filter="url(#soft1112)"><g transform="rotate(-15.96 1536.0 1536.0)"><path d="M-368.6 528.3 C -225.8 475.6, -25.8 575.2, 107.5 493.5 C 250.4 498.0, 450.4 566.4, 583.7 534.8 C 726.5 536.3, 926.5 525.3, 1059.8 572.2 C 1202.7 572.5, 1402.7 499.5, 1536.0 583.0 C 1678.8 589.1, 1878.8 499.3, 2012.2 560.6 C 2155.0 554.1, 2355.0 495.7, 2488.3 518.6 C 2631.2 516.8, 2831.2 538.5, 2964.5 482.5 C 3107.3 476.5, 3307.3 548.6, 3440.6 474.2" fill="none" stroke="url(#ribbon1112)" stroke-width="58.4" stroke-linecap="round" stroke-opacity="0.120" /></g><g transform="rotate(-15.38 1536.0 1536.0)"><path d="M-368.6 753.6 C -241.7 741.2, -63.9 767.1, 54.6 783.9 C 181.6 793.3, 359.4 736.2, 477.9 813.8 C 604.8 800.7, 782.6 729.6, 901.1 807.2 C 1028.1 795.6, 1205.9 702.1, 1324.4 768.1 C 1451.3 768.9, 1629.1 743.1, 1747.6 720.2 C 1874.6 731.4, 2052.4 787.7, 2170.9 692.6 C 2297.9 668.2, 2475.6 786.0, 2594.1 701.9 C 2721.1 696.7, 2898.9 799.8, 3017.4 742.6 C 3144.4 742.7, 3322.1 760.2, 3440.6 790.0" fill="none" stroke="url(#ribbon1112)" stroke-width="54.4" stroke-linecap="round" stroke-opacity="0.146" /></g><g transform="rotate(-14.80 1536.0 1536.0)"><path d="M-368.6 922.1 C -254.4 842.1, -94.4 999.6, 12.3 861.1 C 126.6 862.3, 286.6 984.4, 393.2 903.4 C 507.5 898.0, 667.5 936.5, 774.1 957.0 C 888.4 949.5, 1048.4 907.6, 1155.1 989.5 C 1269.4 963.0, 1429.3 875.7, 1536.0 981.0 C 1650.3 963.3, 1810.3 861.6, 1916.9 936.8 C 2031.2 940.6, 2191.2 916.3, 2297.9 883.6 C 2412.1 869.3, 2572.1 967.8, 2678.8 853.8 C 2793.1 880.0, 2953.1 955.4, 3059.7 865.4 C 3174.0 855.0, 3334.0 989.7, 3440.6 911.3" fill="none" stroke="url(#ribbon1112)" stroke-width="50.4" stroke-linecap="round" stroke-opacity="0.172" /></g><g transform="rotate(-14.22 1536.0 1536.0)"><path d="M-368.6 1065.1 C -264.8 1069.6, -119.3 1061.5, -22.3 1013.2 C 81.5 1026.9, 227.0 1119.0, 324.0 988.6 C 427.8 958.5, 573.3 1090.1, 670.3 1010.5 C 774.1 1024.9, 919.6 1102.2, 1016.6 1065.5 C 1120.4 1065.5, 1265.9 1065.0, 1362.9 1120.3 C 1466.7 1125.4, 1612.2 1029.3, 1709.1 1141.6 C 1813.0 1155.0, 1958.5 1030.0, 2055.4 1116.5 C 2159.3 1114.7, 2304.8 1011.2, 2401.7 1060.3 C 2505.6 1060.3, 2651.1 1070.2, 2748.0 1007.0 C 2851.9 1017.1, 2997.4 1102.8, 3094.3 988.9 C 3198.2 1007.6, 3343.7 1093.4, 3440.6 1017.1" fill="none" stroke="url(#ribbon1112)" stroke-width="46.4" stroke-linecap="round" stroke-opacity="0.198" /></g><g transform="rotate(-13.64 1536.0 1536.0)"><path d="M-368.6 1310.3 C -273.4 1272.9, -140.1 1373.2, -51.2 1316.8 C 44.0 1314.9, 177.4 1306.0, 266.2 1374.6 C 361.5 1367.2, 494.8 1283.7, 583.7 1393.4 C 678.9 1410.8, 812.2 1283.5, 901.1 1361.8 C 996.4 1358.7, 1129.7 1282.9, 1218.6 1299.0 C 1313.8 1296.2, 1447.1 1323.9, 1536.0 1243.0 C 1631.2 1227.4, 1764.6 1353.8, 1853.4 1227.9 C 1948.7 1221.3, 2082.0 1343.5, 2170.9 1262.8 C 2266.1 1256.1, 2399.4 1354.9, 2488.3 1326.5 C 2583.6 1326.1, 2716.9 1297.0, 2805.8 1380.4 C 2901.0 1382.9, 3034.3 1284.6, 3123.2 1391.8 C 3218.4 1405.9, 3351.8 1241.3, 3440.6 1353.8" fill="none" stroke="url(#ribbon1112)" stroke-width="42.4" stroke-linecap="round" stroke-opacity="0.224" /></g><g transform="rotate(-13.06 1536.0 1536.0)"><path d="M-368.6 1487.1 C -225.8 1547.6, -25.8 1426.4, 107.5 1526.5 C 250.4 1534.1, 450.4 1453.1, 583.7 1456.0 C 726.5 1462.6, 926.5 1519.4, 1059.8 1404.4 C 1202.7 1427.8, 1402.7 1567.2, 1536.0 1402.9 C 1678.8 1428.5, 1878.8 1568.7, 2012.2 1452.4 C 2155.0 1466.1, 2355.0 1506.0, 2488.3 1523.0 C 2631.2 1530.1, 2831.2 1468.4, 2964.5 1571.8 C 3107.3 1590.6, 3307.3 1417.3, 3440.6 1569.2" fill="none" stroke="url(#ribbon1112)" stroke-width="38.4" stroke-linecap="round" stroke-opacity="0.250" /></g><g transform="rotate(-12.48 1536.0 1536.0)"><path d="M-368.6 1739.5 C -241.7 1678.8, -63.9 1767.6, 54.6 1644.1 C 181.6 1636.9, 359.4 1844.7, 477.9 1658.1 C 604.8 1681.1, 782.6 1829.7, 901.1 1721.5 C 1028.1 1721.2, 1205.9 1748.8, 1324.4 1795.9 C 1451.3 1776.8, 1629.1 1693.4, 1747.6 1836.0 C 1874.6 1829.3, 2052.4 1642.8, 2170.9 1817.6 C 2297.9 1812.5, 2475.6 1675.0, 2594.1 1751.8 C 2721.1 1752.2, 2898.9 1732.3, 3017.4 1678.6 C 3144.4 1657.2, 3322.1 1767.7, 3440.6 1642.3" fill="none" stroke="url(#ribbon1112)" stroke-width="34.4" stroke-linecap="round" stroke-opacity="0.276" /></g><g transform="rotate(-11.90 1536.0 1536.0)"><path d="M-368.6 1820.7 C -254.4 1885.5, -94.4 1794.9, 12.3 1797.3 C 126.6 1800.1, 286.6 1828.8, 393.2 1731.1 C 507.5 1728.7, 667.5 1925.5, 774.1 1719.3 C 888.4 1702.4, 1048.4 1880.6, 1155.1 1769.0 C 1269.4 1779.3, 1429.3 1846.0, 1536.0 1850.0 C 1650.3 1839.1, 1810.3 1794.0, 1916.9 1913.3 C 2031.2 1945.8, 2191.2 1782.2, 2297.9 1920.4 C 2412.1 1923.6, 2572.1 1723.3, 2678.8 1867.0 C 2793.1 1881.5, 2953.1 1796.4, 3059.7 1785.5 C 3174.0 1776.5, 3334.0 1857.0, 3440.6 1725.4" fill="none" stroke="url(#ribbon1112)" stroke-width="30.4" stroke-linecap="round" stroke-opacity="0.302" /></g><g transform="rotate(-11.32 1536.0 1536.0)"><path d="M-368.6 2057.8 C -264.8 2142.4, -119.3 2005.8, -22.3 2167.2 C 81.5 2185.0, 227.0 1991.9, 324.0 2117.4 C 427.8 2132.4, 573.3 1989.6, 670.3 2031.4 C 774.1 2033.1, 919.6 2074.8, 1016.6 1961.5 C 1120.4 1925.7, 1265.9 2142.5, 1362.9 1949.9 C 1466.7 1911.5, 1612.2 2099.2, 1709.1 2003.8 C 1813.0 2024.1, 1958.5 2118.4, 2055.4 2090.4 C 2159.3 2096.8, 2304.8 2044.4, 2401.7 2157.2 C 2505.6 2139.6, 2651.1 1986.2, 2748.0 2163.7 C 2851.9 2171.9, 2997.4 1989.9, 3094.3 2105.9 C 3198.2 2116.0, 3343.7 2017.0, 3440.6 2018.9" fill="none" stroke="url(#ribbon1112)" stroke-width="26.4" stroke-linecap="round" stroke-opacity="0.328" /></g><g transform="rotate(-10.74 1536.0 1536.0)"><path d="M-368.6 2209.0 C -273.4 2316.6, -140.1 2152.0, -51.2 2271.3 C 44.0 2285.0, 177.4 2163.8, 266.2 2179.7 C 361.5 2185.9, 494.8 2231.5, 583.7 2105.9 C 678.9 2103.0, 812.2 2302.8, 901.1 2094.7 C 996.4 2087.9, 1129.7 2252.3, 1218.6 2152.7 C 1313.8 2132.8, 1447.1 2269.3, 1536.0 2244.9 C 1631.2 2247.6, 1764.6 2180.8, 1853.4 2315.3 C 1948.7 2296.0, 2082.0 2103.7, 2170.9 2321.2 C 2266.1 2322.0, 2399.4 2169.9, 2488.3 2259.0 C 2583.6 2276.2, 2716.9 2169.5, 2805.8 2166.5 C 2901.0 2177.0, 3034.3 2247.8, 3123.2 2099.7 C 3218.4 2108.3, 3351.8 2246.2, 3440.6 2099.2" fill="none" stroke="url(#ribbon1112)" stroke-width="22.4" stroke-linecap="round" stroke-opacity="0.354" /></g><g transform="rotate(-10.16 1536.0 1536.0)"><path d="M-368.6 2417.1 C -225.8 2315.0, -25.8 2514.6, 107.5 2426.2 C 250.4 2423.9, 450.4 2406.4, 583.7 2513.5 C 726.5 2484.1, 926.5 2304.8, 1059.8 2542.4 C 1202.7 2566.9, 1402.7 2345.8, 1536.0 2495.2 C 1678.8 2487.2, 1878.8 2364.7, 2012.2 2400.7 C 2155.0 2401.3, 2355.0 2427.1, 2488.3 2316.1 C 2631.2 2317.7, 2831.2 2483.6, 2964.5 2292.7 C 3107.3 2246.4, 3307.3 2471.1, 3440.6 2344.8" fill="none" stroke="url(#ribbon1112)" stroke-width="18.4" stroke-linecap="round" stroke-opacity="0.380" /></g><g transform="rotate(-9.58 1536.0 1536.0)"><path d="M-368.6 2705.4 C -241.7 2802.2, -63.9 2641.1, 54.6 2836.6 C 181.6 2787.0, 359.4 2579.2, 477.9 2812.4 C 604.8 2834.5, 782.6 2608.4, 901.1 2723.2 C 1028.1 2720.3, 1205.9 2688.9, 1324.4 2623.3 C 1451.3 2610.6, 1629.1 2764.7, 1747.6 2573.1 C 1874.6 2603.3, 2052.4 2797.6, 2170.9 2603.1 C 2297.9 2629.5, 2475.6 2810.1, 2594.1 2695.2 C 2721.1 2691.6, 2898.9 2712.7, 3017.4 2793.4 C 3144.4 2806.1, 3322.1 2627.1, 3440.6 2838.2" fill="none" stroke="url(#ribbon1112)" stroke-width="14.4" stroke-linecap="round" stroke-opacity="0.406" /></g></g>
  <g><ellipse cx="1536.0" cy="1551.9" rx="728.6" ry="605.7" fill="url(#extrude1112)" opacity="0.220" /><ellipse cx="1536.0" cy="1567.7" rx="736.0" ry="610.9" fill="url(#extrude1112)" opacity="0.205" /><ellipse cx="1536.0" cy="1583.6" rx="743.4" ry="616.1" fill="url(#extrude1112)" opacity="0.190" /><ellipse cx="1536.0" cy="1599.5" rx="750.9" ry="621.3" fill="url(#extrude1112)" opacity="0.175" /><ellipse cx="1536.0" cy="1615.4" rx="758.3" ry="626.5" fill="url(#extrude1112)" opacity="0.160" /><ellipse cx="1536.0" cy="1631.2" rx="765.7" ry="631.7" fill="url(#extrude1112)" opacity="0.145" /><ellipse cx="1536.0" cy="1647.1" rx="773.2" ry="636.9" fill="url(#extrude1112)" opacity="0.130" /><ellipse cx="1536.0" cy="1663.0" rx="780.6" ry="642.1" fill="url(#extrude1112)" opacity="0.115" /><ellipse cx="1536.0" cy="1678.8" rx="788.0" ry="647.4" fill="url(#extrude1112)" opacity="0.100" /><ellipse cx="1536.0" cy="1694.7" rx="795.5" ry="652.6" fill="url(#extrude1112)" opacity="0.085" /><ellipse cx="1536.0" cy="1710.6" rx="802.9" ry="657.8" fill="url(#extrude1112)" opacity="0.070" /><ellipse cx="1536.0" cy="1726.5" rx="810.3" ry="663.0" fill="url(#extrude1112)" opacity="0.055" /></g>
  <ellipse cx="1536.0" cy="1726.5" rx="773.2" ry="214.9" fill="#0B1D2D" opacity="0.24" />
  <ellipse cx="1536.0" cy="1536.0" rx="743.4" ry="651.3" fill="url(#orb1112)" stroke="#FFFFFF" stroke-opacity="0.42" stroke-width="7" />
  <ellipse cx="1431.9" cy="1392.7" rx="505.5" ry="299.6" fill="#FFFFFF" opacity="0.25" />
  <path d="M 199.4 399.4 C 1013.8 -30.7, 2058.2 768.0, 2872.6 215.0 L 2872.6 983.0 C 2089.0 1228.8, 1013.8 307.2, 199.4 1167.4 Z" fill="url(#glass1112)" />
  <rect x="270" y="270" width="2532" height="2532" rx="430" fill="none" stroke="#FFFFFF" stroke-opacity="0.30" stroke-width="5" />
  <rect x="288.4" y="288.4" width="2495.1" height="2495.1" rx="399" fill="none" stroke="#53E3A6" stroke-opacity="0.35" stroke-width="3" />
  <g filter="url(#soft1112)"><rect x="1919" y="913" width="64" height="2" fill="#FFFFFF" opacity="0.607" /><rect x="1950" y="882" width="2" height="64" fill="#FFFFFF" opacity="0.607" /><rect x="2688" y="382" width="24" height="2" fill="#FFFFFF" opacity="0.323" /><rect x="2699" y="371" width="2" height="24" fill="#FFFFFF" opacity="0.323" /><rect x="703" y="2669" width="64" height="2" fill="#FFFFFF" opacity="0.553" /><rect x="734" y="2638" width="2" height="64" fill="#FFFFFF" opacity="0.553" /><rect x="2059" y="1847" width="76" height="2" fill="#FFFFFF" opacity="0.796" /><rect x="2096" y="1810" width="2" height="76" fill="#FFFFFF" opacity="0.796" /><rect x="1988" y="1747" width="46" height="2" fill="#FFFFFF" opacity="0.331" /><rect x="2010" y="1725" width="2" height="46" fill="#FFFFFF" opacity="0.331" /><rect x="1359" y="2338" width="38" height="2" fill="#FFFFFF" opacity="0.391" /><rect x="1377" y="2320" width="2" height="38" fill="#FFFFFF" opacity="0.391" /><rect x="2427" y="1253" width="34" height="2" fill="#FFFFFF" opacity="0.560" /><rect x="2443" y="1237" width="2" height="34" fill="#FFFFFF" opacity="0.560" /><rect x="1422" y="407" width="82" height="2" fill="#FFFFFF" opacity="0.731" /><rect x="1462" y="367" width="2" height="82" fill="#FFFFFF" opacity="0.731" /><rect x="1832" y="752" width="78" height="2" fill="#FFFFFF" opacity="0.327" /><rect x="1870" y="714" width="2" height="78" fill="#FFFFFF" opacity="0.327" /><rect x="1520" y="1580" width="38" height="2" fill="#FFFFFF" opacity="0.366" /><rect x="1538" y="1562" width="2" height="38" fill="#FFFFFF" opacity="0.366" /><rect x="1522" y="1267" width="72" height="2" fill="#FFFFFF" opacity="0.311" /><rect x="1557" y="1232" width="2" height="72" fill="#FFFFFF" opacity="0.311" /><rect x="1460" y="2015" width="40" height="2" fill="#FFFFFF" opacity="0.540" /><rect x="1479" y="1996" width="2" height="40" fill="#FFFFFF" opacity="0.540" /><rect x="1946" y="1626" width="60" height="2" fill="#FFFFFF" opacity="0.448" /><rect x="1975" y="1597" width="2" height="60" fill="#FFFFFF" opacity="0.448" /><rect x="1266" y="1312" width="42" height="2" fill="#FFFFFF" opacity="0.529" /><rect x="1286" y="1292" width="2" height="42" fill="#FFFFFF" opacity="0.529" /><rect x="2617" y="1261" width="30" height="2" fill="#FFFFFF" opacity="0.382" /><rect x="2631" y="1247" width="2" height="30" fill="#FFFFFF" opacity="0.382" /><rect x="2554" y="1602" width="28" height="2" fill="#FFFFFF" opacity="0.720" /><rect x="2567" y="1589" width="2" height="28" fill="#FFFFFF" opacity="0.720" /><rect x="1390" y="1907" width="66" height="2" fill="#FFFFFF" opacity="0.493" /><rect x="1422" y="1875" width="2" height="66" fill="#FFFFFF" opacity="0.493" /><rect x="1965" y="513" width="44" height="2" fill="#FFFFFF" opacity="0.775" /><rect x="1986" y="492" width="2" height="44" fill="#FFFFFF" opacity="0.775" /><rect x="1048" y="637" width="60" height="2" fill="#FFFFFF" opacity="0.767" /><rect x="1077" y="608" width="2" height="60" fill="#FFFFFF" opacity="0.767" /><rect x="1835" y="655" width="86" height="2" fill="#FFFFFF" opacity="0.574" /><rect x="1877" y="613" width="2" height="86" fill="#FFFFFF" opacity="0.574" /><rect x="2510" y="1952" width="40" height="2" fill="#FFFFFF" opacity="0.795" /><rect x="2529" y="1933" width="2" height="40" fill="#FFFFFF" opacity="0.795" /><rect x="2732" y="383" width="40" height="2" fill="#FFFFFF" opacity="0.649" /><rect x="2751" y="364" width="2" height="40" fill="#FFFFFF" opacity="0.649" /><rect x="291" y="1059" width="84" height="2" fill="#FFFFFF" opacity="0.360" /><rect x="332" y="1018" width="2" height="84" fill="#FFFFFF" opacity="0.360" /><rect x="345" y="1076" width="46" height="2" fill="#FFFFFF" opacity="0.445" /><rect x="367" y="1054" width="2" height="46" fill="#FFFFFF" opacity="0.445" /><rect x="2765" y="1311" width="78" height="2" fill="#FFFFFF" opacity="0.604" /><rect x="2803" y="1273" width="2" height="78" fill="#FFFFFF" opacity="0.604" /><rect x="2469" y="731" width="42" height="2" fill="#FFFFFF" opacity="0.476" /><rect x="2489" y="711" width="2" height="42" fill="#FFFFFF" opacity="0.476" /></g>
  <g opacity="0.52"><path d="M1023 1326 L1572 1070 L2121 1326 L2121 2043 L1023 2043 Z" fill="none" stroke="#0C2030" stroke-width="90" stroke-linejoin="round" /><line x1="1572" y1="1070" x2="1572" y2="2043" stroke="#0C2030" stroke-width="88" /></g>
  <g filter="url(#soft1112)"><path d="M987 1280 L1536 1024 L2085 1280 L2085 1997 L987 1997 Z" fill="none" stroke="url(#symbol1112)" stroke-width="90" stroke-linejoin="round" /><line x1="1536" y1="1024" x2="1536" y2="1997" stroke="url(#symbol1112)" stroke-width="88" /></g>
  <rect x="138" y="138" width="2796" height="2796" rx="629" fill="#FFFFFF" filter="url(#grain1112)" opacity="0.18" />
</svg>
