<svg xmlns="http://www.w3.org/2000/svg" width="3072" height="3072" viewBox="0 0 3072 3072">
  <title>QuartzOS System Icon 018 - uploads_01</title>
  <defs><linearGradient id="bg1017" x1="0%" y1="0%" x2="100%" y2="100%"><stop offset="0%" stop-color="#8A5CFF" /><stop offset="26%" stop-color="#FF9F43" /><stop offset="56%" stop-color="#53E3A6" /><stop offset="78%" stop-color="#4F79A7" /><stop offset="100%" stop-color="#1B2630" /></linearGradient><radialGradient id="sun1017" cx="31%" cy="13%" r="88%"><stop offset="0%" stop-color="#FFFFFF" stop-opacity="0.62" /><stop offset="30%" stop-color="#36D1FF" stop-opacity="0.35" /><stop offset="100%" stop-color="#36D1FF" stop-opacity="0" /></radialGradient><linearGradient id="glass1017" x1="0%" y1="0%" x2="0%" y2="100%"><stop offset="0%" stop-color="#FFFFFF" stop-opacity="0.70" /><stop offset="46%" stop-color="#FFFFFF" stop-opacity="0.26" /><stop offset="100%" stop-color="#FFFFFF" stop-opacity="0.00" /></linearGradient><linearGradient id="ribbon1017" x1="0%" y1="0%" x2="100%" y2="0%"><stop offset="0%" stop-color="#8A5CFF" stop-opacity="0.18" /><stop offset="34%" stop-color="#FF9F43" stop-opacity="0.72" /><stop offset="66%" stop-color="#53E3A6" stop-opacity="0.72" /><stop offset="100%" stop-color="#36D1FF" stop-opacity="0.18" /></linearGradient><radialGradient id="orb1017" cx="34%" cy="27%" r="74%"><stop offset="0%" stop-color="#FFFFFF" stop-opacity="0.84" /><stop offset="30%" stop-color="#8A5CFF" stop-opacity="0.52" /><stop offset="68%" stop-color="#FF9F43" stop-opacity="0.42" /><stop offset="100%" stop-color="#53E3A6" stop-opacity="0.20" /></radialGradient><linearGradient id="extrude1017" x1="0%" y1="0%" x2="0%" y2="100%"><stop offset="0%" stop-color="#15283C" stop-opacity="0.45" /><stop offset="100%" stop-color="#08131D" stop-opacity="0.06" /></linearGradient><linearGradient id="symbol1017" x1="0%" y1="0%" x2="100%" y2="100%"><stop offset="0%" stop-color="#FFFFFF" /><stop offset="100%" stop-color="#36D1FF" /></linearGradient><filter id="shadow1017" x="-40%" y="-40%" width="180%" height="180%"><feDropShadow dx="0" dy="49" stdDeviation="86" flood-color="#06111A" flood-opacity="0.54" /></filter><filter id="soft1017" x="-40%" y="-40%" width="180%" height="180%"><feDropShadow dx="0" dy="0" stdDeviation="14" flood-color="#8A5CFF" flood-opacity="0.45" /></filter><filter id="grain1017"><feTurbulence type="fractalNoise" baseFrequency="0.935" numOctaves="2" seed="1017" /><feColorMatrix type="saturate" values="0" /><feComponentTransfer><feFuncA type="table" tableValues="0 0.09" /></feComponentTransfer></filter></defs>
  <rect x="138" y="138" width="2796" height="2796" rx="629" fill="url(#bg1017)" filter="url(#shadow1017)" />
  <rect x="138" y="138" width="2796" height="2796" rx="629" fill="url(#sun1017)" />
  <g><circle cx="1243" cy="2241" r="40" fill="#FFFFFF" opacity="0.200" /><circle cx="2605" cy="1634" r="97" fill="#FFFFFF" opacity="0.119" /><circle cx="1841" cy="1279" r="96" fill="#FFFFFF" opacity="0.196" /><circle cx="1447" cy="1841" r="42" fill="#FFFFFF" opacity="0.089" /><circle cx="2060" cy="2452" r="135" fill="#FFFFFF" opacity="0.091" /><circle cx="1516" cy="553" r="155" fill="#FFFFFF" opacity="0.222" /><circle cx="2411" cy="1067" r="90" fill="#FFFFFF" opacity="0.166" /><circle cx="1796" cy="1678" r="136" fill="#FFFFFF" opacity="0.191" /><circle cx="2597" cy="704" r="80" fill="#FFFFFF" opacity="0.167" /><circle cx="524" cy="311" r="84" fill="#FFFFFF" opacity="0.162" /><circle cx="1239" cy="2443" r="98" fill="#FFFFFF" opacity="0.173" /><circle cx="1709" cy="2578" r="97" fill="#FFFFFF" opacity="0.229" /><circle cx="1010" cy="1417" r="60" fill="#FFFFFF" opacity="0.128" /><circle cx="1366" cy="2506" r="78" fill="#FFFFFF" opacity="0.134" /><circle cx="482" cy="2697" r="65" fill="#FFFFFF" opacity="0.193" /><circle cx="2491" cy="2170" r="147" fill="#FFFFFF" opacity="0.159" /><circle cx="718" cy="1375" r="145" fill="#FFFFFF" opacity="0.118" /><circle cx="427" cy="838" r="39" fill="#FFFFFF" opacity="0.151" /><circle cx="918" cy="1142" r="119" fill="#FFFFFF" opacity="0.159" /><circle cx="1629" cy="1045" r="82" fill="#FFFFFF" opacity="0.078" /><circle cx="1796" cy="1858" r="148" fill="#FFFFFF" opacity="0.111" /><circle cx="1147" cy="431" r="54" fill="#FFFFFF" opacity="0.149" /><circle cx="2685" cy="1659" r="56" fill="#FFFFFF" opacity="0.064" /><circle cx="524" cy="509" r="115" fill="#FFFFFF" opacity="0.141" /><circle cx="1705" cy="1601" r="88" fill="#FFFFFF" opacity="0.187" /><circle cx="738" cy="1204" r="117" fill="#FFFFFF" opacity="0.081" /><circle cx="1331" cy="872" r="55" fill="#FFFFFF" opacity="0.238" /><circle cx="552" cy="333" r="113" fill="#FFFFFF" opacity="0.129" /></g>
  <g><path d="M 294.0 580.9 L 2703.9 304.4 L 2703.9 738.1 L 294.0 1014.6 Z" fill="#FFFFFF" opacity="0.232" /><path d="M 301.7 833.9 L 2878.4 557.4 L 2878.4 1050.2 L 301.7 1326.7 Z" fill="#FFFFFF" opacity="0.238" /><path d="M 327.5 1182.1 L 2793.9 905.6 L 2793.9 1356.6 L 327.5 1633.1 Z" fill="#FFFFFF" opacity="0.115" /><path d="M 371.3 1363.1 L 2766.8 1086.6 L 2766.8 1580.3 L 371.3 1856.8 Z" fill="#FFFFFF" opacity="0.098" /><path d="M 364.9 1623.8 L 2683.3 1347.3 L 2683.3 1784.9 L 364.9 2061.4 Z" fill="#FFFFFF" opacity="0.188" /><path d="M 341.8 1922.6 L 2813.4 1646.1 L 2813.4 2122.8 L 341.8 2399.3 Z" fill="#FFFFFF" opacity="0.098" /><path d="M 376.1 2148.9 L 2759.6 1872.4 L 2759.6 2328.6 L 376.1 2605.1 Z" fill="#FFFFFF" opacity="0.098" /><path d="M 231.7 2403.3 L 2855.2 2126.9 L 2855.2 2584.5 L 231.7 2861.0 Z" fill="#FFFFFF" opacity="0.226" /></g>
  <g filter="url(#soft1017)"><g transform="rotate(-9.99 1536.0 1536.0)"><path d="M-368.6 551.8 C -225.8 594.0, -25.8 522.0, 107.5 603.0 C 250.4 601.3, 450.4 501.7, 583.7 572.5 C 726.5 575.0, 926.5 528.1, 1059.8 529.5 C 1202.7 523.8, 1402.7 572.1, 1536.0 500.0 C 1678.8 496.7, 1878.8 608.8, 2012.2 501.9 C 2155.0 504.0, 2355.0 579.4, 2488.3 534.1 C 2631.2 532.1, 2831.2 563.1, 2964.5 577.1 C 3107.3 581.5, 3307.3 540.5, 3440.6 604.7" fill="none" stroke="url(#ribbon1017)" stroke-width="58.4" stroke-linecap="round" stroke-opacity="0.120" /></g><g transform="rotate(-9.41 1536.0 1536.0)"><path d="M-368.6 773.0 C -241.7 735.9, -63.9 813.3, 54.6 780.3 C 181.6 779.0, 359.4 766.0, 477.9 822.5 C 604.8 821.7, 782.6 736.2, 901.1 834.7 C 1028.1 835.4, 1205.9 704.0, 1324.4 809.5 C 1451.3 798.7, 1629.1 732.3, 1747.6 762.1 C 1874.6 764.5, 2052.4 782.8, 2170.9 721.4 C 2297.9 707.7, 2475.6 830.3, 2594.1 712.0 C 2721.1 723.5, 2898.9 828.2, 3017.4 739.6 C 3144.4 735.1, 3322.1 792.8, 3440.6 787.5" fill="none" stroke="url(#ribbon1017)" stroke-width="54.4" stroke-linecap="round" stroke-opacity="0.146" /></g><g transform="rotate(-8.83 1536.0 1536.0)"><path d="M-368.6 910.0 C -254.4 912.7, -94.4 907.6, 12.3 861.7 C 126.6 851.6, 286.6 958.3, 393.2 840.6 C 507.5 867.5, 667.5 935.7, 774.1 861.7 C 888.4 844.7, 1048.4 943.8, 1155.1 912.0 C 1269.4 912.5, 1429.3 908.5, 1536.0 961.2 C 1650.3 946.3, 1810.3 860.4, 1916.9 979.3 C 2031.2 982.1, 2191.2 864.6, 2297.9 955.4 C 2412.1 949.2, 2572.1 895.7, 2678.8 904.0 C 2793.1 902.6, 2953.1 917.3, 3059.7 856.2 C 3174.0 846.0, 3334.0 944.2, 3440.6 841.1" fill="none" stroke="url(#ribbon1017)" stroke-width="50.4" stroke-linecap="round" stroke-opacity="0.172" /></g><g transform="rotate(-8.25 1536.0 1536.0)"><path d="M-368.6 1118.6 C -264.8 1132.0, -119.3 1098.6, -22.3 1079.3 C 81.5 1070.8, 227.0 1130.6, 324.0 1044.2 C 427.8 1052.8, 573.3 1166.5, 670.3 1054.2 C 774.1 1066.7, 919.6 1194.0, 1016.6 1103.4 C 1120.4 1102.7, 1265.9 1130.2, 1362.9 1161.8 C 1466.7 1160.4, 1612.2 1085.7, 1709.1 1194.0 C 1813.0 1222.0, 1958.5 1067.7, 2055.4 1180.5 C 2159.3 1196.2, 2304.8 1072.6, 2401.7 1129.5 C 2505.6 1130.9, 2651.1 1111.7, 2748.0 1071.9 C 2851.9 1078.7, 2997.4 1169.0, 3094.3 1042.6 C 3198.2 1068.2, 3343.7 1164.0, 3440.6 1059.5" fill="none" stroke="url(#ribbon1017)" stroke-width="46.4" stroke-linecap="round" stroke-opacity="0.198" /></g><g transform="rotate(-7.67 1536.0 1536.0)"><path d="M-368.6 1336.6 C -273.4 1267.5, -140.1 1417.5, -51.2 1258.0 C 44.0 1250.4, 177.4 1401.4, 266.2 1302.1 C 361.5 1298.6, 494.8 1371.2, 583.7 1367.1 C 678.9 1374.9, 812.2 1321.6, 901.1 1413.7 C 996.4 1428.3, 1129.7 1268.2, 1218.6 1413.5 C 1313.8 1418.7, 1447.1 1308.6, 1536.0 1366.7 C 1631.2 1364.6, 1764.6 1323.6, 1853.4 1301.6 C 1948.7 1309.5, 2082.0 1368.0, 2170.9 1257.8 C 2266.1 1286.2, 2399.4 1429.9, 2488.3 1261.8 C 2583.6 1258.1, 2716.9 1362.3, 2805.8 1311.2 C 2901.0 1318.6, 3034.3 1362.1, 3123.2 1376.0 C 3218.4 1370.7, 3351.8 1322.6, 3440.6 1416.9" fill="none" stroke="url(#ribbon1017)" stroke-width="42.4" stroke-linecap="round" stroke-opacity="0.224" /></g><g transform="rotate(-7.09 1536.0 1536.0)"><path d="M-368.6 1454.6 C -225.8 1529.4, -25.8 1360.7, 107.5 1508.7 C 250.4 1528.9, 450.4 1413.7, 583.7 1440.1 C 726.5 1441.5, 926.5 1463.7, 1059.8 1380.3 C 1202.7 1398.2, 1402.7 1481.9, 1536.0 1365.6 C 1678.8 1386.4, 1878.8 1513.9, 2012.2 1404.8 C 2155.0 1397.1, 2355.0 1492.5, 2488.3 1474.2 C 2631.2 1475.3, 2831.2 1436.5, 2964.5 1531.7 C 3107.3 1516.6, 3307.3 1407.4, 3440.6 1542.4" fill="none" stroke="url(#ribbon1017)" stroke-width="38.4" stroke-linecap="round" stroke-opacity="0.250" /></g><g transform="rotate(-6.51 1536.0 1536.0)"><path d="M-368.6 1723.0 C -241.7 1789.5, -63.9 1670.0, 54.6 1723.9 C 181.6 1723.8, 359.4 1722.4, 477.9 1653.6 C 604.8 1645.9, 782.6 1805.9, 901.1 1625.3 C 1028.1 1651.6, 1205.9 1805.1, 1324.4 1656.3 C 1451.3 1637.2, 1629.1 1752.4, 1747.6 1727.7 C 1874.6 1727.0, 2052.4 1718.3, 2170.9 1796.3 C 2297.9 1820.4, 2475.6 1649.4, 2594.1 1820.4 C 2721.1 1803.0, 2898.9 1623.6, 3017.4 1785.4 C 3144.4 1765.7, 3322.1 1650.2, 3440.6 1712.6" fill="none" stroke="url(#ribbon1017)" stroke-width="34.4" stroke-linecap="round" stroke-opacity="0.276" /></g><g transform="rotate(-5.93 1536.0 1536.0)"><path d="M-368.6 1825.7 C -254.4 1919.6, -94.4 1767.6, 12.3 1930.4 C 126.6 1954.8, 286.6 1715.6, 393.2 1896.2 C 507.5 1873.3, 667.5 1786.6, 774.1 1819.2 C 888.4 1821.7, 1048.4 1832.5, 1155.1 1746.2 C 1269.4 1736.3, 1429.3 1891.1, 1536.0 1721.4 C 1650.3 1717.8, 1810.3 1939.7, 1916.9 1759.8 C 2031.2 1758.8, 2191.2 1891.9, 2297.9 1838.2 C 2412.1 1833.3, 2572.1 1811.4, 2678.8 1909.0 C 2793.1 1899.5, 2953.1 1747.8, 3059.7 1929.3 C 3174.0 1909.8, 3334.0 1758.3, 3440.6 1886.7" fill="none" stroke="url(#ribbon1017)" stroke-width="30.4" stroke-linecap="round" stroke-opacity="0.302" /></g><g transform="rotate(-5.35 1536.0 1536.0)"><path d="M-368.6 2052.7 C -264.8 2174.3, -119.3 2016.7, -22.3 2159.8 C 81.5 2198.5, 227.0 2005.8, 324.0 2104.2 C 427.8 2097.8, 573.3 1997.5, 670.3 2017.4 C 774.1 2004.9, 919.6 2070.1, 1016.6 1952.0 C 1120.4 1944.6, 1265.9 2135.5, 1362.9 1947.7 C 1466.7 1929.9, 1612.2 2098.5, 1709.1 2007.1 C 1813.0 2002.3, 1958.5 2084.1, 2055.4 2094.2 C 2159.3 2098.4, 2304.8 2035.8, 2401.7 2156.1 C 2505.6 2162.3, 2651.1 2011.7, 2748.0 2155.3 C 2851.9 2182.1, 2997.4 1963.1, 3094.3 2092.3 C 3198.2 2086.7, 3343.7 2030.9, 3440.6 2005.3" fill="none" stroke="url(#ribbon1017)" stroke-width="26.4" stroke-linecap="round" stroke-opacity="0.328" /></g><g transform="rotate(-4.77 1536.0 1536.0)"><path d="M-368.6 2321.2 C -273.4 2441.4, -140.1 2264.9, -51.2 2431.9 C 44.0 2443.7, 177.4 2253.1, 266.2 2367.2 C 361.5 2381.4, 494.8 2273.0, 583.7 2274.6 C 678.9 2274.7, 812.2 2367.4, 901.1 2210.3 C 996.4 2248.9, 1129.7 2440.4, 1218.6 2213.2 C 1313.8 2220.2, 1447.1 2373.4, 1536.0 2281.7 C 1631.2 2295.0, 1764.6 2361.1, 1853.4 2374.1 C 1948.7 2355.8, 2082.0 2276.5, 2170.9 2434.4 C 2266.1 2418.1, 2399.4 2257.3, 2488.3 2426.1 C 2583.6 2449.7, 2716.9 2196.6, 2805.8 2354.1 C 2901.0 2341.2, 3034.3 2282.7, 3123.2 2262.2 C 3218.4 2251.6, 3351.8 2359.7, 3440.6 2206.1" fill="none" stroke="url(#ribbon1017)" stroke-width="22.4" stroke-linecap="round" stroke-opacity="0.354" /></g><g transform="rotate(-4.19 1536.0 1536.0)"><path d="M-368.6 2506.5 C -225.8 2614.7, -25.8 2440.4, 107.5 2527.7 C 250.4 2523.5, 450.4 2482.0, 583.7 2432.2 C 726.5 2451.7, 926.5 2575.8, 1059.8 2381.8 C 1202.7 2408.8, 1402.7 2553.7, 1536.0 2407.0 C 1678.8 2424.3, 1878.8 2558.4, 2012.2 2492.6 C 2155.0 2497.5, 2355.0 2517.5, 2488.3 2586.6 C 2631.2 2605.1, 2831.2 2465.9, 2964.5 2632.0 C 3107.3 2647.4, 3307.3 2414.9, 3440.6 2601.3" fill="none" stroke="url(#ribbon1017)" stroke-width="18.4" stroke-linecap="round" stroke-opacity="0.380" /></g><g transform="rotate(-3.61 1536.0 1536.0)"><path d="M-368.6 2625.5 C -241.7 2749.5, -63.9 2583.6, 54.6 2661.0 C 181.6 2652.8, 359.4 2604.9, 477.9 2558.3 C 604.8 2561.2, 782.6 2693.8, 901.1 2496.3 C 1028.1 2518.9, 1205.9 2680.0, 1324.4 2512.7 C 1451.3 2539.1, 1629.1 2701.1, 1747.6 2597.5 C 1874.6 2598.3, 2052.4 2653.8, 2170.9 2699.3 C 2297.9 2724.3, 2475.6 2544.5, 2594.1 2756.3 C 2721.1 2757.0, 2898.9 2559.6, 3017.4 2734.0 C 3144.4 2772.4, 3322.1 2497.6, 3440.6 2645.8" fill="none" stroke="url(#ribbon1017)" stroke-width="14.4" stroke-linecap="round" stroke-opacity="0.406" /></g></g>
  <g><ellipse cx="1536.0" cy="1551.9" rx="728.6" ry="605.7" fill="url(#extrude1017)" opacity="0.220" /><ellipse cx="1536.0" cy="1567.7" rx="736.0" ry="610.9" fill="url(#extrude1017)" opacity="0.205" /><ellipse cx="1536.0" cy="1583.6" rx="743.4" ry="616.1" fill="url(#extrude1017)" opacity="0.190" /><ellipse cx="1536.0" cy="1599.5" rx="750.9" ry="621.3" fill="url(#extrude1017)" opacity="0.175" /><ellipse cx="1536.0" cy="1615.4" rx="758.3" ry="626.5" fill="url(#extrude1017)" opacity="0.160" /><ellipse cx="1536.0" cy="1631.2" rx="765.7" ry="631.7" fill="url(#extrude1017)" opacity="0.145" /><ellipse cx="1536.0" cy="1647.1" rx="773.2" ry="636.9" fill="url(#extrude1017)" opacity="0.130" /><ellipse cx="1536.0" cy="1663.0" rx="780.6" ry="642.1" fill="url(#extrude1017)" opacity="0.115" /><ellipse cx="1536.0" cy="1678.8" rx="788.0" ry="647.4" fill="url(#extrude1017)" opacity="0.100" /><ellipse cx="1536.0" cy="1694.7" rx="795.5" ry="652.6" fill="url(#extrude1017)" opacity="0.085" /><ellipse cx="1536.0" cy="1710.6" rx="802.9" ry="657.8" fill="url(#extrude1017)" opacity="0.070" /><ellipse cx="1536.0" cy="1726.5" rx="810.3" ry="663.0" fill="url(#extrude1017)" opacity="0.055" /></g>
  <ellipse cx="1536.0" cy="1726.5" rx="773.2" ry="214.9" fill="#0B1D2D" opacity="0.24" />
  <ellipse cx="1536.0" cy="1536.0" rx="743.4" ry="651.3" fill="url(#orb1017)" stroke="#FFFFFF" stroke-opacity="0.42" stroke-width="7" />
  <ellipse cx="1431.9" cy="1392.7" rx="505.5" ry="299.6" fill="#FFFFFF" opacity="0.25" />
  <path d="M 199.4 399.4 C 1013.8 -30.7, 2058.2 768.0, 2872.6 215.0 L 2872.6 983.0 C 2089.0 1228.8, 1013.8 307.2, 199.4 1167.4 Z" fill="url(#glass1017)" />
  <rect x="270" y="270" width="2532" height="2532" rx="430" fill="none" stroke="#FFFFFF" stroke-opacity="0.30" stroke-width="5" />
  <rect x="288.4" y="288.4" width="2495.1" height="2495.1" rx="399" fill="none" stroke="#8A5CFF" stroke-opacity="0.35" stroke-width="3" />
  <g filter="url(#soft1017)"><rect x="2007" y="708" width="60" height="2" fill="#FFFFFF" opacity="0.417" /><rect x="2036" y="679" width="2" height="60" fill="#FFFFFF" opacity="0.417" /><rect x="1563" y="2226" width="74" height="2" fill="#FFFFFF" opacity="0.497" /><rect x="1599" y="2190" width="2" height="74" fill="#FFFFFF" opacity="0.497" /><rect x="1235" y="650" width="48" height="2" fill="#FFFFFF" opacity="0.701" /><rect x="1258" y="627" width="2" height="48" fill="#FFFFFF" opacity="0.701" /><rect x="1382" y="1520" width="52" height="2" fill="#FFFFFF" opacity="0.786" /><rect x="1407" y="1495" width="2" height="52" fill="#FFFFFF" opacity="0.786" /><rect x="872" y="1068" width="80" height="2" fill="#FFFFFF" opacity="0.610" /><rect x="911" y="1029" width="2" height="80" fill="#FFFFFF" opacity="0.610" /><rect x="2453" y="2205" width="56" height="2" fill="#FFFFFF" opacity="0.819" /><rect x="2480" y="2178" width="2" height="56" fill="#FFFFFF" opacity="0.819" /><rect x="1700" y="1081" width="76" height="2" fill="#FFFFFF" opacity="0.579" /><rect x="1737" y="1044" width="2" height="76" fill="#FFFFFF" opacity="0.579" /><rect x="914" y="772" width="56" height="2" fill="#FFFFFF" opacity="0.383" /><rect x="941" y="745" width="2" height="56" fill="#FFFFFF" opacity="0.383" /><rect x="798" y="972" width="42" height="2" fill="#FFFFFF" opacity="0.478" /><rect x="818" y="952" width="2" height="42" fill="#FFFFFF" opacity="0.478" /><rect x="2619" y="1357" width="40" height="2" fill="#FFFFFF" opacity="0.463" /><rect x="2638" y="1338" width="2" height="40" fill="#FFFFFF" opacity="0.463" /><rect x="419" y="1496" width="44" height="2" fill="#FFFFFF" opacity="0.779" /><rect x="440" y="1475" width="2" height="44" fill="#FFFFFF" opacity="0.779" /><rect x="1818" y="968" width="76" height="2" fill="#FFFFFF" opacity="0.371" /><rect x="1855" y="931" width="2" height="76" fill="#FFFFFF" opacity="0.371" /><rect x="709" y="1468" width="50" height="2" fill="#FFFFFF" opacity="0.315" /><rect x="733" y="1444" width="2" height="50" fill="#FFFFFF" opacity="0.315" /><rect x="1725" y="688" width="44" height="2" fill="#FFFFFF" opacity="0.816" /><rect x="1746" y="667" width="2" height="44" fill="#FFFFFF" opacity="0.816" /><rect x="1277" y="1175" width="32" height="2" fill="#FFFFFF" opacity="0.542" /><rect x="1292" y="1160" width="2" height="32" fill="#FFFFFF" opacity="0.542" /><rect x="891" y="2550" width="60" height="2" fill="#FFFFFF" opacity="0.829" /><rect x="920" y="2521" width="2" height="60" fill="#FFFFFF" opacity="0.829" /><rect x="1663" y="1530" width="68" height="2" fill="#FFFFFF" opacity="0.344" /><rect x="1696" y="1497" width="2" height="68" fill="#FFFFFF" opacity="0.344" /><rect x="1562" y="2161" width="52" height="2" fill="#FFFFFF" opacity="0.624" /><rect x="1587" y="2136" width="2" height="52" fill="#FFFFFF" opacity="0.624" /><rect x="881" y="1500" width="78" height="2" fill="#FFFFFF" opacity="0.637" /><rect x="919" y="1462" width="2" height="78" fill="#FFFFFF" opacity="0.637" /><rect x="1479" y="2270" width="48" height="2" fill="#FFFFFF" opacity="0.518" /><rect x="1502" y="2247" width="2" height="48" fill="#FFFFFF" opacity="0.518" /><rect x="655" y="1362" width="54" height="2" fill="#FFFFFF" opacity="0.616" /><rect x="681" y="1336" width="2" height="54" fill="#FFFFFF" opacity="0.616" /><rect x="2389" y="1926" width="78" height="2" fill="#FFFFFF" opacity="0.839" /><rect x="2427" y="1888" width="2" height="78" fill="#FFFFFF" opacity="0.839" /><rect x="2632" y="1699" width="58" height="2" fill="#FFFFFF" opacity="0.505" /><rect x="2660" y="1671" width="2" height="58" fill="#FFFFFF" opacity="0.505" /><rect x="2363" y="1540" width="46" height="2" fill="#FFFFFF" opacity="0.633" /><rect x="2385" y="1518" width="2" height="46" fill="#FFFFFF" opacity="0.633" /><rect x="2040" y="671" width="82" height="2" fill="#FFFFFF" opacity="0.352" /><rect x="2080" y="631" width="2" height="82" fill="#FFFFFF" opacity="0.352" /><rect x="1896" y="1182" width="52" height="2" fill="#FFFFFF" opacity="0.668" /><rect x="1921" y="1157" width="2" height="52" fill="#FFFFFF" opacity="0.668" /></g>
  <g opacity="0.52"><rect x="1060" y="1070" width="1024" height="1024" rx="153" fill="none" stroke="#0C2030" stroke-width="90" /><line x1="1316" y1="1326" x2="1828" y2="1838" stroke="#0C2030" stroke-width="90" stroke-linecap="round" /><line x1="1828" y1="1326" x2="1316" y2="1838" stroke="#0C2030" stroke-width="90" stroke-linecap="round" /></g>
  <g filter="url(#soft1017)"><rect x="1024" y="1024" width="1024" height="1024" rx="153" fill="none" stroke="url(#symbol1017)" stroke-width="90" /><line x1="1280" y1="1280" x2="1792" y2="1792" stroke="url(#symbol1017)" stroke-width="90" stroke-linecap="round" /><line x1="1792" y1="1280" x2="1280" y2="1792" stroke="url(#symbol1017)" stroke-width="90" stroke-linecap="round" /></g>
  <rect x="138" y="138" width="2796" height="2796" rx="629" fill="#FFFFFF" filter="url(#grain1017)" opacity="0.18" />
</svg>
