<svg xmlns="http://www.w3.org/2000/svg" width="3072" height="3072" viewBox="0 0 3072 3072">
  <title>QuartzOS System Icon 058 - uploads_03</title>
  <defs><linearGradient id="bg1057" x1="0%" y1="0%" x2="100%" y2="100%"><stop offset="0%" stop-color="#36D1FF" /><stop offset="26%" stop-color="#8A5CFF" /><stop offset="56%" stop-color="#FF9F43" /><stop offset="78%" stop-color="#2E8D96" /><stop offset="100%" stop-color="#0F2A2E" /></linearGradient><radialGradient id="sun1057" cx="46%" cy="35%" r="88%"><stop offset="0%" stop-color="#FFFFFF" stop-opacity="0.62" /><stop offset="30%" stop-color="#FFD84D" stop-opacity="0.35" /><stop offset="100%" stop-color="#FFD84D" stop-opacity="0" /></radialGradient><linearGradient id="glass1057" x1="0%" y1="0%" x2="0%" y2="100%"><stop offset="0%" stop-color="#FFFFFF" stop-opacity="0.70" /><stop offset="46%" stop-color="#FFFFFF" stop-opacity="0.26" /><stop offset="100%" stop-color="#FFFFFF" stop-opacity="0.00" /></linearGradient><linearGradient id="ribbon1057" x1="0%" y1="0%" x2="100%" y2="0%"><stop offset="0%" stop-color="#36D1FF" stop-opacity="0.18" /><stop offset="34%" stop-color="#8A5CFF" stop-opacity="0.72" /><stop offset="66%" stop-color="#FF9F43" stop-opacity="0.72" /><stop offset="100%" stop-color="#FFD84D" stop-opacity="0.18" /></linearGradient><radialGradient id="orb1057" cx="34%" cy="27%" r="74%"><stop offset="0%" stop-color="#FFFFFF" stop-opacity="0.84" /><stop offset="30%" stop-color="#36D1FF" stop-opacity="0.52" /><stop offset="68%" stop-color="#8A5CFF" stop-opacity="0.42" /><stop offset="100%" stop-color="#FF9F43" stop-opacity="0.20" /></radialGradient><linearGradient id="extrude1057" x1="0%" y1="0%" x2="0%" y2="100%"><stop offset="0%" stop-color="#15283C" stop-opacity="0.45" /><stop offset="100%" stop-color="#08131D" stop-opacity="0.06" /></linearGradient><linearGradient id="symbol1057" x1="0%" y1="0%" x2="100%" y2="100%"><stop offset="0%" stop-color="#FFFFFF" /><stop offset="100%" stop-color="#FFD84D" /></linearGradient><filter id="shadow1057" x="-40%" y="-40%" width="180%" height="180%"><feDropShadow dx="0" dy="49" stdDeviation="86" flood-color="#06111A" flood-opacity="0.54" /></filter><filter id="soft1057" x="-40%" y="-40%" width="180%" height="180%"><feDropShadow dx="0" dy="0" stdDeviation="14" flood-color="#36D1FF" flood-opacity="0.45" /></filter><filter id="grain1057"><feTurbulence type="fractalNoise" baseFrequency="0.985" numOctaves="2" seed="1057" /><feColorMatrix type="saturate" values="0" /><feComponentTransfer><feFuncA type="table" tableValues="0 0.09" /></feComponentTransfer></filter></defs>
  <rect x="138" y="138" width="2796" height="2796" rx="629" fill="url(#bg1057)" filter="url(#shadow1057)" />
  <rect x="138" y="138" width="2796" height="2796" rx="629" fill="url(#sun1057)" />
  <g><circle cx="510" cy="1031" r="45" fill="#FFFFFF" opacity="0.194" /><circle cx="800" cy="341" r="118" fill="#FFFFFF" opacity="0.190" /><circle cx="2307" cy="1742" r="66" fill="#FFFFFF" opacity="0.096" /><circle cx="1394" cy="2081" r="43" fill="#FFFFFF" opacity="0.195" /><circle cx="2257" cy="1423" r="108" fill="#FFFFFF" opacity="0.220" /><circle cx="2411" cy="1733" r="56" fill="#FFFFFF" opacity="0.226" /><circle cx="1515" cy="1628" r="142" fill="#FFFFFF" opacity="0.164" /><circle cx="1294" cy="709" r="144" fill="#FFFFFF" opacity="0.219" /><circle cx="2301" cy="1249" r="158" fill="#FFFFFF" opacity="0.180" /><circle cx="1502" cy="362" r="149" fill="#FFFFFF" opacity="0.163" /><circle cx="2227" cy="2361" r="127" fill="#FFFFFF" opacity="0.141" /><circle cx="1958" cy="2515" r="109" fill="#FFFFFF" opacity="0.162" /><circle cx="1036" cy="1839" r="70" fill="#FFFFFF" opacity="0.234" /><circle cx="1227" cy="556" r="107" fill="#FFFFFF" opacity="0.226" /><circle cx="1063" cy="2297" r="94" fill="#FFFFFF" opacity="0.125" /><circle cx="2426" cy="1833" r="80" fill="#FFFFFF" opacity="0.169" /><circle cx="1420" cy="1606" r="48" fill="#FFFFFF" opacity="0.218" /><circle cx="2527" cy="2270" r="103" fill="#FFFFFF" opacity="0.143" /><circle cx="2247" cy="1739" r="126" fill="#FFFFFF" opacity="0.122" /><circle cx="1054" cy="1874" r="158" fill="#FFFFFF" opacity="0.202" /><circle cx="2700" cy="984" r="109" fill="#FFFFFF" opacity="0.107" /><circle cx="2523" cy="1225" r="128" fill="#FFFFFF" opacity="0.139" /><circle cx="1987" cy="693" r="46" fill="#FFFFFF" opacity="0.142" /><circle cx="915" cy="498" r="132" fill="#FFFFFF" opacity="0.146" /><circle cx="1146" cy="2584" r="60" fill="#FFFFFF" opacity="0.110" /><circle cx="2252" cy="1048" r="100" fill="#FFFFFF" opacity="0.140" /><circle cx="879" cy="1415" r="130" fill="#FFFFFF" opacity="0.126" /><circle cx="1191" cy="2341" r="70" fill="#FFFFFF" opacity="0.084" /></g>
  <g><path d="M 295.7 650.5 L 2787.1 374.0 L 2787.1 870.5 L 295.7 1147.0 Z" fill="#FFFFFF" opacity="0.082" /><path d="M 235.4 872.9 L 2917.3 596.4 L 2917.3 1080.4 L 235.4 1356.9 Z" fill="#FFFFFF" opacity="0.151" /><path d="M 371.3 1142.3 L 2911.0 865.9 L 2911.0 1346.7 L 371.3 1623.2 Z" fill="#FFFFFF" opacity="0.101" /><path d="M 260.0 1435.8 L 2761.5 1159.3 L 2761.5 1640.1 L 260.0 1916.6 Z" fill="#FFFFFF" opacity="0.223" /><path d="M 187.8 1637.3 L 2868.5 1360.8 L 2868.5 1855.6 L 187.8 2132.1 Z" fill="#FFFFFF" opacity="0.156" /><path d="M 288.1 1884.1 L 2839.8 1607.6 L 2839.8 2046.2 L 288.1 2322.7 Z" fill="#FFFFFF" opacity="0.189" /><path d="M 196.9 2218.9 L 2798.4 1942.4 L 2798.4 2386.5 L 196.9 2663.0 Z" fill="#FFFFFF" opacity="0.149" /><path d="M 374.5 2442.3 L 2721.7 2165.8 L 2721.7 2588.8 L 374.5 2865.2 Z" fill="#FFFFFF" opacity="0.144" /></g>
  <g filter="url(#soft1057)"><g transform="rotate(-5.31 1536.0 1536.0)"><path d="M-368.6 533.8 C -225.8 544.0, -25.8 522.8, 107.5 580.2 C 250.4 573.7, 450.4 483.4, 583.7 587.8 C 726.5 575.0, 926.5 498.7, 1059.8 562.7 C 1202.7 572.6, 1402.7 522.7, 1536.0 520.1 C 1678.8 515.7, 1878.8 541.2, 2012.2 485.8 C 2155.0 473.3, 2355.0 555.7, 2488.3 480.7 C 2631.2 465.8, 2831.2 554.6, 2964.5 507.8 C 3107.3 513.8, 3307.3 544.4, 3440.6 550.7" fill="none" stroke="url(#ribbon1057)" stroke-width="58.4" stroke-linecap="round" stroke-opacity="0.120" /></g><g transform="rotate(-4.73 1536.0 1536.0)"><path d="M-368.6 774.6 C -241.7 707.5, -63.9 840.0, 54.6 730.6 C 181.6 731.1, 359.4 822.6, 477.9 775.7 C 604.8 775.9, 782.6 773.4, 901.1 820.1 C 1028.1 812.8, 1205.9 728.3, 1324.4 836.9 C 1451.3 814.9, 1629.1 729.8, 1747.6 815.9 C 1874.6 800.0, 2052.4 750.4, 2170.9 769.8 C 2297.9 769.7, 2475.6 779.3, 2594.1 726.7 C 2721.1 731.1, 2898.9 790.2, 3017.4 712.6 C 3144.4 712.1, 3322.1 844.3, 3440.6 736.1" fill="none" stroke="url(#ribbon1057)" stroke-width="54.4" stroke-linecap="round" stroke-opacity="0.146" /></g><g transform="rotate(-4.15 1536.0 1536.0)"><path d="M-368.6 914.6 C -254.4 982.6, -94.4 892.2, 12.3 958.1 C 126.6 962.1, 286.6 878.5, 393.2 906.1 C 507.5 906.2, 667.5 921.5, 774.1 859.3 C 888.4 866.8, 1048.4 965.2, 1155.1 846.0 C 1269.4 847.8, 1429.3 968.9, 1536.0 874.4 C 1650.3 866.2, 1810.3 958.4, 1916.9 927.2 C 2031.2 925.1, 2191.2 906.1, 2297.9 972.4 C 2412.1 966.3, 2572.1 857.9, 2678.8 982.5 C 2793.1 980.7, 2953.1 846.0, 3059.7 951.5 C 3174.0 937.3, 3334.0 884.5, 3440.6 898.1" fill="none" stroke="url(#ribbon1057)" stroke-width="50.4" stroke-linecap="round" stroke-opacity="0.172" /></g><g transform="rotate(-3.57 1536.0 1536.0)"><path d="M-368.6 1098.8 C -264.8 1150.4, -119.3 1066.1, -22.3 1175.3 C 81.5 1159.6, 227.0 1053.9, 324.0 1153.1 C 427.8 1162.8, 573.3 1081.5, 670.3 1098.0 C 774.1 1098.0, 919.6 1099.5, 1016.6 1043.4 C 1120.4 1065.2, 1265.9 1155.4, 1362.9 1022.4 C 1466.7 1037.6, 1612.2 1135.3, 1709.1 1047.8 C 1813.0 1047.9, 1958.5 1153.7, 2055.4 1104.1 C 2159.3 1102.6, 2304.8 1093.9, 2401.7 1157.2 C 2505.6 1134.6, 2651.1 1034.1, 2748.0 1174.9 C 2851.9 1179.2, 2997.4 1061.5, 3094.3 1146.5 C 3198.2 1128.6, 3343.7 1083.3, 3440.6 1089.1" fill="none" stroke="url(#ribbon1057)" stroke-width="46.4" stroke-linecap="round" stroke-opacity="0.198" /></g><g transform="rotate(-2.99 1536.0 1536.0)"><path d="M-368.6 1327.2 C -273.4 1325.4, -140.1 1328.8, -51.2 1265.5 C 44.0 1245.5, 177.4 1395.2, 266.2 1243.8 C 361.5 1248.4, 494.8 1355.5, 583.7 1272.7 C 678.9 1272.9, 812.2 1369.8, 901.1 1334.7 C 996.4 1336.8, 1129.7 1321.4, 1218.6 1392.1 C 1313.8 1399.9, 1447.1 1287.4, 1536.0 1410.2 C 1631.2 1382.6, 1764.6 1256.9, 1853.4 1377.9 C 1948.7 1376.0, 2082.0 1277.7, 2170.9 1314.9 C 2266.1 1314.2, 2399.4 1334.1, 2488.3 1259.3 C 2583.6 1285.2, 2716.9 1404.3, 2805.8 1244.9 C 2901.0 1268.6, 3034.3 1390.7, 3123.2 1280.5 C 3218.4 1281.0, 3351.8 1355.9, 3440.6 1344.3" fill="none" stroke="url(#ribbon1057)" stroke-width="42.4" stroke-linecap="round" stroke-opacity="0.224" /></g><g transform="rotate(-2.41 1536.0 1536.0)"><path d="M-368.6 1540.6 C -225.8 1540.1, -25.8 1541.1, 107.5 1475.2 C 250.4 1474.6, 450.4 1614.6, 583.7 1450.0 C 726.5 1471.3, 926.5 1598.4, 1059.8 1479.8 C 1202.7 1459.3, 1402.7 1589.2, 1536.0 1546.4 C 1678.8 1547.8, 1878.8 1535.7, 2012.2 1609.5 C 2155.0 1607.1, 2355.0 1469.4, 2488.3 1630.8 C 2631.2 1595.8, 2831.2 1499.2, 2964.5 1597.4 C 3107.3 1601.7, 3307.3 1504.8, 3440.6 1529.5" fill="none" stroke="url(#ribbon1057)" stroke-width="38.4" stroke-linecap="round" stroke-opacity="0.250" /></g><g transform="rotate(-1.83 1536.0 1536.0)"><path d="M-368.6 1713.9 C -241.7 1600.1, -63.9 1822.0, 54.6 1659.8 C 181.6 1673.2, 359.4 1760.5, 477.9 1734.5 C 604.8 1727.6, 782.6 1696.2, 901.1 1796.7 C 1028.1 1769.6, 1205.9 1670.9, 1324.4 1808.7 C 1451.3 1792.2, 1629.1 1612.6, 1747.6 1763.1 C 1874.6 1745.3, 2052.4 1691.0, 2170.9 1687.7 C 2297.9 1689.4, 2475.6 1729.3, 2594.1 1628.1 C 2721.1 1646.5, 2898.9 1793.4, 3017.4 1620.6 C 3144.4 1619.0, 3322.1 1792.8, 3440.6 1669.6" fill="none" stroke="url(#ribbon1057)" stroke-width="34.4" stroke-linecap="round" stroke-opacity="0.276" /></g><g transform="rotate(-1.25 1536.0 1536.0)"><path d="M-368.6 1835.8 C -254.4 1706.0, -94.4 1934.5, 12.3 1773.7 C 126.6 1775.7, 286.6 1856.8, 393.2 1853.1 C 507.5 1848.3, 667.5 1825.5, 774.1 1922.0 C 888.4 1932.8, 1048.4 1774.4, 1155.1 1938.5 C 1269.4 1941.2, 1429.3 1759.4, 1536.0 1892.7 C 1650.3 1894.0, 1810.3 1781.4, 1916.9 1812.4 C 2031.2 1811.1, 2191.2 1851.3, 2297.9 1746.2 C 2412.1 1744.1, 2572.1 1938.0, 2678.8 1734.4 C 2793.1 1750.2, 2953.1 1886.5, 3059.7 1784.0 C 3174.0 1793.8, 3334.0 1891.6, 3440.6 1865.0" fill="none" stroke="url(#ribbon1057)" stroke-width="30.4" stroke-linecap="round" stroke-opacity="0.302" /></g><g transform="rotate(-0.67 1536.0 1536.0)"><path d="M-368.6 2107.6 C -264.8 2084.6, -119.3 2144.1, -22.3 2160.0 C 81.5 2152.2, 227.0 2079.3, 324.0 2215.0 C 427.8 2195.9, 573.3 2052.2, 670.3 2204.9 C 774.1 2169.2, 919.6 2039.5, 1016.6 2135.8 C 1120.4 2133.4, 1265.9 2076.8, 1362.9 2049.6 C 1466.7 2038.2, 1612.2 2170.4, 1709.1 1998.6 C 1813.0 1981.3, 1958.5 2145.1, 2055.4 2013.8 C 2159.3 1997.3, 2304.8 2206.2, 2401.7 2085.9 C 2505.6 2080.3, 2651.1 2128.8, 2748.0 2171.1 C 2851.9 2191.6, 2997.4 2054.2, 3094.3 2217.9 C 3198.2 2173.8, 3343.7 2024.6, 3440.6 2197.8" fill="none" stroke="url(#ribbon1057)" stroke-width="26.4" stroke-linecap="round" stroke-opacity="0.328" /></g><g transform="rotate(-0.09 1536.0 1536.0)"><path d="M-368.6 2220.4 C -273.4 2121.4, -140.1 2316.8, -51.2 2213.6 C 44.0 2211.5, 177.4 2223.4, 266.2 2300.8 C 361.5 2324.6, 494.8 2179.8, 583.7 2339.3 C 678.9 2359.9, 812.2 2105.0, 901.1 2305.7 C 996.4 2314.7, 1129.7 2123.1, 1218.6 2220.4 C 1313.8 2220.3, 1447.1 2220.5, 1536.0 2135.1 C 1631.2 2158.8, 1764.6 2282.5, 1853.4 2101.6 C 1948.7 2083.7, 2082.0 2271.2, 2170.9 2140.2 C 2266.1 2112.6, 2399.4 2270.8, 2488.3 2227.5 C 2583.6 2227.8, 2716.9 2214.8, 2805.8 2310.5 C 2901.0 2335.8, 3034.3 2181.6, 3123.2 2338.9 C 3218.4 2338.2, 3351.8 2137.4, 3440.6 2295.4" fill="none" stroke="url(#ribbon1057)" stroke-width="22.4" stroke-linecap="round" stroke-opacity="0.354" /></g><g transform="rotate(0.49 1536.0 1536.0)"><path d="M-368.6 2478.1 C -225.8 2558.1, -25.8 2411.0, 107.5 2481.6 C 250.4 2480.7, 450.4 2475.0, 583.7 2390.2 C 726.5 2380.0, 926.5 2536.1, 1059.8 2352.1 C 1202.7 2312.2, 1402.7 2517.1, 1536.0 2390.4 C 1678.8 2402.5, 1878.8 2581.5, 2012.2 2481.9 C 2155.0 2482.7, 2355.0 2475.3, 2488.3 2571.1 C 2631.2 2547.8, 2831.2 2366.7, 2964.5 2603.8 C 3107.3 2602.1, 3307.3 2327.2, 3440.6 2560.3" fill="none" stroke="url(#ribbon1057)" stroke-width="18.4" stroke-linecap="round" stroke-opacity="0.380" /></g><g transform="rotate(1.07 1536.0 1536.0)"><path d="M-368.6 2637.2 C -241.7 2579.5, -63.9 2688.7, 54.6 2513.2 C 181.6 2491.7, 359.4 2754.9, 477.9 2516.3 C 604.8 2557.5, 782.6 2706.7, 901.1 2592.7 C 1028.1 2575.8, 1205.9 2687.9, 1324.4 2696.1 C 1451.3 2708.7, 1629.1 2589.4, 1747.6 2763.8 C 1874.6 2809.8, 2052.4 2590.2, 2170.9 2754.7 C 2297.9 2719.8, 2475.6 2539.0, 2594.1 2674.3 C 2721.1 2683.8, 2898.9 2594.2, 3017.4 2571.4 C 3144.4 2590.2, 3322.1 2706.1, 3440.6 2508.4" fill="none" stroke="url(#ribbon1057)" stroke-width="14.4" stroke-linecap="round" stroke-opacity="0.406" /></g></g>
  <g><ellipse cx="1536.0" cy="1551.9" rx="728.6" ry="605.7" fill="url(#extrude1057)" opacity="0.220" /><ellipse cx="1536.0" cy="1567.7" rx="736.0" ry="610.9" fill="url(#extrude1057)" opacity="0.205" /><ellipse cx="1536.0" cy="1583.6" rx="743.4" ry="616.1" fill="url(#extrude1057)" opacity="0.190" /><ellipse cx="1536.0" cy="1599.5" rx="750.9" ry="621.3" fill="url(#extrude1057)" opacity="0.175" /><ellipse cx="1536.0" cy="1615.4" rx="758.3" ry="626.5" fill="url(#extrude1057)" opacity="0.160" /><ellipse cx="1536.0" cy="1631.2" rx="765.7" ry="631.7" fill="url(#extrude1057)" opacity="0.145" /><ellipse cx="1536.0" cy="1647.1" rx="773.2" ry="636.9" fill="url(#extrude1057)" opacity="0.130" /><ellipse cx="1536.0" cy="1663.0" rx="780.6" ry="642.1" fill="url(#extrude1057)" opacity="0.115" /><ellipse cx="1536.0" cy="1678.8" rx="788.0" ry="647.4" fill="url(#extrude1057)" opacity="0.100" /><ellipse cx="1536.0" cy="1694.7" rx="795.5" ry="652.6" fill="url(#extrude1057)" opacity="0.085" /><ellipse cx="1536.0" cy="1710.6" rx="802.9" ry="657.8" fill="url(#extrude1057)" opacity="0.070" /><ellipse cx="1536.0" cy="1726.5" rx="810.3" ry="663.0" fill="url(#extrude1057)" opacity="0.055" /></g>
  <ellipse cx="1536.0" cy="1726.5" rx="773.2" ry="214.9" fill="#0B1D2D" opacity="0.24" />
  <ellipse cx="1536.0" cy="1536.0" rx="743.4" ry="651.3" fill="url(#orb1057)" stroke="#FFFFFF" stroke-opacity="0.42" stroke-width="7" />
  <ellipse cx="1431.9" cy="1392.7" rx="505.5" ry="299.6" fill="#FFFFFF" opacity="0.25" />
  <path d="M 199.4 399.4 C 1013.8 -30.7, 2058.2 768.0, 2872.6 215.0 L 2872.6 983.0 C 2089.0 1228.8, 1013.8 307.2, 199.4 1167.4 Z" fill="url(#glass1057)" />
  <rect x="270" y="270" width="2532" height="2532" rx="430" fill="none" stroke="#FFFFFF" stroke-opacity="0.30" stroke-width="5" />
  <rect x="288.4" y="288.4" width="2495.1" height="2495.1" rx="399" fill="none" stroke="#36D1FF" stroke-opacity="0.35" stroke-width="3" />
  <g filter="url(#soft1057)"><rect x="2549" y="1399" width="26" height="2" fill="#FFFFFF" opacity="0.560" /><rect x="2561" y="1387" width="2" height="26" fill="#FFFFFF" opacity="0.560" /><rect x="500" y="2566" width="40" height="2" fill="#FFFFFF" opacity="0.521" /><rect x="519" y="2547" width="2" height="40" fill="#FFFFFF" opacity="0.521" /><rect x="1582" y="984" width="36" height="2" fill="#FFFFFF" opacity="0.597" /><rect x="1599" y="967" width="2" height="36" fill="#FFFFFF" opacity="0.597" /><rect x="499" y="553" width="56" height="2" fill="#FFFFFF" opacity="0.685" /><rect x="526" y="526" width="2" height="56" fill="#FFFFFF" opacity="0.685" /><rect x="347" y="1615" width="48" height="2" fill="#FFFFFF" opacity="0.445" /><rect x="370" y="1592" width="2" height="48" fill="#FFFFFF" opacity="0.445" /><rect x="1823" y="2078" width="74" height="2" fill="#FFFFFF" opacity="0.440" /><rect x="1859" y="2042" width="2" height="74" fill="#FFFFFF" opacity="0.440" /><rect x="2088" y="1465" width="80" height="2" fill="#FFFFFF" opacity="0.661" /><rect x="2127" y="1426" width="2" height="80" fill="#FFFFFF" opacity="0.661" /><rect x="2248" y="2730" width="80" height="2" fill="#FFFFFF" opacity="0.316" /><rect x="2287" y="2691" width="2" height="80" fill="#FFFFFF" opacity="0.316" /><rect x="1186" y="2282" width="82" height="2" fill="#FFFFFF" opacity="0.724" /><rect x="1226" y="2242" width="2" height="82" fill="#FFFFFF" opacity="0.724" /><rect x="1442" y="2099" width="40" height="2" fill="#FFFFFF" opacity="0.623" /><rect x="1461" y="2080" width="2" height="40" fill="#FFFFFF" opacity="0.623" /><rect x="631" y="363" width="30" height="2" fill="#FFFFFF" opacity="0.306" /><rect x="645" y="349" width="2" height="30" fill="#FFFFFF" opacity="0.306" /><rect x="862" y="808" width="64" height="2" fill="#FFFFFF" opacity="0.324" /><rect x="893" y="777" width="2" height="64" fill="#FFFFFF" opacity="0.324" /><rect x="657" y="979" width="68" height="2" fill="#FFFFFF" opacity="0.433" /><rect x="690" y="946" width="2" height="68" fill="#FFFFFF" opacity="0.433" /><rect x="2769" y="854" width="76" height="2" fill="#FFFFFF" opacity="0.764" /><rect x="2806" y="817" width="2" height="76" fill="#FFFFFF" opacity="0.764" /><rect x="1693" y="851" width="52" height="2" fill="#FFFFFF" opacity="0.703" /><rect x="1718" y="826" width="2" height="52" fill="#FFFFFF" opacity="0.703" /><rect x="319" y="1696" width="58" height="2" fill="#FFFFFF" opacity="0.495" /><rect x="347" y="1668" width="2" height="58" fill="#FFFFFF" opacity="0.495" /><rect x="678" y="1631" width="80" height="2" fill="#FFFFFF" opacity="0.789" /><rect x="717" y="1592" width="2" height="80" fill="#FFFFFF" opacity="0.789" /><rect x="1938" y="2169" width="36" height="2" fill="#FFFFFF" opacity="0.443" /><rect x="1955" y="2152" width="2" height="36" fill="#FFFFFF" opacity="0.443" /><rect x="1880" y="1507" width="42" height="2" fill="#FFFFFF" opacity="0.751" /><rect x="1900" y="1487" width="2" height="42" fill="#FFFFFF" opacity="0.751" /><rect x="1686" y="665" width="76" height="2" fill="#FFFFFF" opacity="0.727" /><rect x="1723" y="628" width="2" height="76" fill="#FFFFFF" opacity="0.727" /><rect x="988" y="2705" width="32" height="2" fill="#FFFFFF" opacity="0.685" /><rect x="1003" y="2690" width="2" height="32" fill="#FFFFFF" opacity="0.685" /><rect x="1547" y="1144" width="44" height="2" fill="#FFFFFF" opacity="0.674" /><rect x="1568" y="1123" width="2" height="44" fill="#FFFFFF" opacity="0.674" /><rect x="1192" y="2145" width="84" height="2" fill="#FFFFFF" opacity="0.827" /><rect x="1233" y="2104" width="2" height="84" fill="#FFFFFF" opacity="0.827" /><rect x="2044" y="2289" width="36" height="2" fill="#FFFFFF" opacity="0.375" /><rect x="2061" y="2272" width="2" height="36" fill="#FFFFFF" opacity="0.375" /><rect x="379" y="518" width="46" height="2" fill="#FFFFFF" opacity="0.443" /><rect x="401" y="496" width="2" height="46" fill="#FFFFFF" opacity="0.443" /><rect x="2200" y="2575" width="78" height="2" fill="#FFFFFF" opacity="0.501" /><rect x="2238" y="2537" width="2" height="78" fill="#FFFFFF" opacity="0.501" /></g>
  <g opacity="0.52"><rect x="1023" y="1070" width="768" height="768" rx="128" fill="none" stroke="#0C2030" stroke-width="90" /><path d="M1023 1582 L1572 1363 L2121 1582 L1572 2094 Z" fill="none" stroke="#0C2030" stroke-width="90" stroke-linejoin="round" /></g>
  <g filter="url(#soft1057)"><rect x="987" y="1024" width="768" height="768" rx="128" fill="none" stroke="url(#symbol1057)" stroke-width="90" /><path d="M987 1536 L1536 1317 L2085 1536 L1536 2048 Z" fill="none" stroke="url(#symbol1057)" stroke-width="90" stroke-linejoin="round" /></g>
  <rect x="138" y="138" width="2796" height="2796" rx="629" fill="#FFFFFF" filter="url(#grain1057)" opacity="0.18" />
</svg>
