<svg xmlns="http://www.w3.org/2000/svg" width="3072" height="3072" viewBox="0 0 3072 3072">
  <title>QuartzOS System Icon 098 - uploads_05</title>
  <defs><linearGradient id="bg1097" x1="0%" y1="0%" x2="100%" y2="100%"><stop offset="0%" stop-color="#FFD84D" /><stop offset="26%" stop-color="#36D1FF" /><stop offset="56%" stop-color="#8A5CFF" /><stop offset="78%" stop-color="#B37A46" /><stop offset="100%" stop-color="#27201B" /></linearGradient><radialGradient id="sun1097" cx="47%" cy="34%" r="88%"><stop offset="0%" stop-color="#FFFFFF" stop-opacity="0.62" /><stop offset="30%" stop-color="#FF6AB3" stop-opacity="0.35" /><stop offset="100%" stop-color="#FF6AB3" stop-opacity="0" /></radialGradient><linearGradient id="glass1097" x1="0%" y1="0%" x2="0%" y2="100%"><stop offset="0%" stop-color="#FFFFFF" stop-opacity="0.70" /><stop offset="46%" stop-color="#FFFFFF" stop-opacity="0.26" /><stop offset="100%" stop-color="#FFFFFF" stop-opacity="0.00" /></linearGradient><linearGradient id="ribbon1097" x1="0%" y1="0%" x2="100%" y2="0%"><stop offset="0%" stop-color="#FFD84D" stop-opacity="0.18" /><stop offset="34%" stop-color="#36D1FF" stop-opacity="0.72" /><stop offset="66%" stop-color="#8A5CFF" stop-opacity="0.72" /><stop offset="100%" stop-color="#FF6AB3" stop-opacity="0.18" /></linearGradient><radialGradient id="orb1097" cx="34%" cy="27%" r="74%"><stop offset="0%" stop-color="#FFFFFF" stop-opacity="0.84" /><stop offset="30%" stop-color="#FFD84D" stop-opacity="0.52" /><stop offset="68%" stop-color="#36D1FF" stop-opacity="0.42" /><stop offset="100%" stop-color="#8A5CFF" stop-opacity="0.20" /></radialGradient><linearGradient id="extrude1097" x1="0%" y1="0%" x2="0%" y2="100%"><stop offset="0%" stop-color="#15283C" stop-opacity="0.45" /><stop offset="100%" stop-color="#08131D" stop-opacity="0.06" /></linearGradient><linearGradient id="symbol1097" x1="0%" y1="0%" x2="100%" y2="100%"><stop offset="0%" stop-color="#FFFFFF" /><stop offset="100%" stop-color="#FF6AB3" /></linearGradient><filter id="shadow1097" x="-40%" y="-40%" width="180%" height="180%"><feDropShadow dx="0" dy="49" stdDeviation="86" flood-color="#06111A" flood-opacity="0.54" /></filter><filter id="soft1097" x="-40%" y="-40%" width="180%" height="180%"><feDropShadow dx="0" dy="0" stdDeviation="14" flood-color="#FFD84D" flood-opacity="0.45" /></filter><filter id="grain1097"><feTurbulence type="fractalNoise" baseFrequency="0.642" numOctaves="2" seed="1097" /><feColorMatrix type="saturate" values="0" /><feComponentTransfer><feFuncA type="table" tableValues="0 0.09" /></feComponentTransfer></filter></defs>
  <rect x="138" y="138" width="2796" height="2796" rx="629" fill="url(#bg1097)" filter="url(#shadow1097)" />
  <rect x="138" y="138" width="2796" height="2796" rx="629" fill="url(#sun1097)" />
  <g><circle cx="1111" cy="2587" r="143" fill="#FFFFFF" opacity="0.182" /><circle cx="2251" cy="2179" r="125" fill="#FFFFFF" opacity="0.177" /><circle cx="587" cy="1656" r="159" fill="#FFFFFF" opacity="0.113" /><circle cx="1433" cy="829" r="85" fill="#FFFFFF" opacity="0.064" /><circle cx="2342" cy="981" r="50" fill="#FFFFFF" opacity="0.217" /><circle cx="801" cy="2526" r="41" fill="#FFFFFF" opacity="0.180" /><circle cx="2689" cy="2268" r="59" fill="#FFFFFF" opacity="0.112" /><circle cx="478" cy="2558" r="66" fill="#FFFFFF" opacity="0.213" /><circle cx="438" cy="2156" r="76" fill="#FFFFFF" opacity="0.191" /><circle cx="1253" cy="1464" r="61" fill="#FFFFFF" opacity="0.206" /><circle cx="2175" cy="315" r="117" fill="#FFFFFF" opacity="0.130" /><circle cx="2638" cy="627" r="129" fill="#FFFFFF" opacity="0.148" /><circle cx="2588" cy="494" r="43" fill="#FFFFFF" opacity="0.191" /><circle cx="1649" cy="401" r="68" fill="#FFFFFF" opacity="0.205" /><circle cx="534" cy="2144" r="115" fill="#FFFFFF" opacity="0.119" /><circle cx="1656" cy="791" r="71" fill="#FFFFFF" opacity="0.159" /><circle cx="1841" cy="1764" r="52" fill="#FFFFFF" opacity="0.106" /><circle cx="953" cy="2282" r="47" fill="#FFFFFF" opacity="0.203" /><circle cx="1817" cy="1598" r="158" fill="#FFFFFF" opacity="0.067" /><circle cx="733" cy="2027" r="152" fill="#FFFFFF" opacity="0.215" /><circle cx="1178" cy="1701" r="88" fill="#FFFFFF" opacity="0.093" /><circle cx="2118" cy="2157" r="65" fill="#FFFFFF" opacity="0.224" /><circle cx="1697" cy="1736" r="46" fill="#FFFFFF" opacity="0.101" /><circle cx="1588" cy="1482" r="85" fill="#FFFFFF" opacity="0.062" /><circle cx="2572" cy="536" r="124" fill="#FFFFFF" opacity="0.135" /><circle cx="1142" cy="1704" r="120" fill="#FFFFFF" opacity="0.213" /><circle cx="2207" cy="598" r="103" fill="#FFFFFF" opacity="0.222" /><circle cx="515" cy="1809" r="120" fill="#FFFFFF" opacity="0.229" /></g>
  <g><path d="M 192.5 581.8 L 2798.0 305.3 L 2798.0 761.3 L 192.5 1037.8 Z" fill="#FFFFFF" opacity="0.178" /><path d="M 325.1 901.9 L 2785.8 625.4 L 2785.8 1057.7 L 325.1 1334.2 Z" fill="#FFFFFF" opacity="0.123" /><path d="M 382.7 1104.7 L 2723.2 828.2 L 2723.2 1293.4 L 382.7 1569.9 Z" fill="#FFFFFF" opacity="0.085" /><path d="M 361.1 1395.9 L 2896.5 1119.4 L 2896.5 1595.2 L 361.1 1871.7 Z" fill="#FFFFFF" opacity="0.086" /><path d="M 344.1 1692.1 L 2857.7 1415.6 L 2857.7 1845.3 L 344.1 2121.8 Z" fill="#FFFFFF" opacity="0.081" /><path d="M 289.5 1893.9 L 2863.2 1617.5 L 2863.2 2081.2 L 289.5 2357.7 Z" fill="#FFFFFF" opacity="0.125" /><path d="M 373.7 2195.1 L 2811.6 1918.6 L 2811.6 2359.9 L 373.7 2636.4 Z" fill="#FFFFFF" opacity="0.201" /><path d="M 219.2 2442.0 L 2680.5 2165.5 L 2680.5 2660.3 L 219.2 2936.8 Z" fill="#FFFFFF" opacity="0.197" /></g>
  <g filter="url(#soft1097)"><g transform="rotate(-20.34 1536.0 1536.0)"><path d="M-368.6 491.8 C -225.8 552.1, -25.8 447.2, 107.5 535.0 C 250.4 520.1, 450.4 456.3, 583.7 497.1 C 726.5 497.5, 926.5 488.3, 1059.8 456.0 C 1202.7 452.0, 1402.7 503.1, 1536.0 436.6 C 1678.8 434.1, 1878.8 528.5, 2012.2 450.7 C 2155.0 441.2, 2355.0 519.8, 2488.3 489.7 C 2631.2 489.3, 2831.2 493.6, 2964.5 530.0 C 3107.3 539.4, 3307.3 478.4, 3440.6 547.1" fill="none" stroke="url(#ribbon1097)" stroke-width="58.4" stroke-linecap="round" stroke-opacity="0.120" /></g><g transform="rotate(-19.76 1536.0 1536.0)"><path d="M-368.6 717.3 C -241.7 762.2, -63.9 692.3, 54.6 704.2 C 181.6 705.4, 359.4 730.6, 477.9 664.5 C 604.8 671.3, 782.6 777.2, 901.1 656.8 C 1028.1 644.0, 1205.9 750.2, 1324.4 685.8 C 1451.3 682.7, 1629.1 744.5, 1747.6 734.0 C 1874.6 728.0, 2052.4 706.0, 2170.9 772.0 C 2297.9 773.9, 2475.6 682.8, 2594.1 776.9 C 2721.1 775.5, 2898.9 668.9, 3017.4 745.7 C 3144.4 739.6, 3322.1 698.5, 3440.6 697.2" fill="none" stroke="url(#ribbon1097)" stroke-width="54.4" stroke-linecap="round" stroke-opacity="0.146" /></g><g transform="rotate(-19.18 1536.0 1536.0)"><path d="M-368.6 893.3 C -254.4 877.2, -94.4 915.3, 12.3 829.3 C 126.6 851.0, 286.6 961.9, 393.2 829.3 C 507.5 848.8, 667.5 937.1, 774.1 868.1 C 888.4 867.4, 1048.4 910.7, 1155.1 922.2 C 1269.4 919.8, 1429.3 868.0, 1536.0 958.7 C 1650.3 946.0, 1810.3 868.1, 1916.9 955.5 C 2031.2 948.1, 2191.2 834.2, 2297.9 914.6 C 2412.1 911.3, 2572.1 882.0, 2678.8 860.8 C 2793.1 854.2, 2953.1 929.4, 3059.7 826.6 C 3174.0 829.9, 3334.0 934.4, 3440.6 832.9" fill="none" stroke="url(#ribbon1097)" stroke-width="50.4" stroke-linecap="round" stroke-opacity="0.172" /></g><g transform="rotate(-18.60 1536.0 1536.0)"><path d="M-368.6 1053.1 C -264.8 987.9, -119.3 1091.1, -22.3 1038.4 C 81.5 1036.7, 227.0 1061.9, 324.0 1096.7 C 427.8 1110.1, 573.3 1005.5, 670.3 1128.6 C 774.1 1108.8, 919.6 975.5, 1016.6 1114.7 C 1120.4 1101.9, 1265.9 1006.3, 1362.9 1063.4 C 1466.7 1065.9, 1612.2 1042.3, 1709.1 1005.9 C 1813.0 1012.5, 1958.5 1086.3, 2055.4 977.1 C 2159.3 969.0, 2304.8 1133.8, 2401.7 994.3 C 2505.6 999.1, 2651.1 1123.6, 2748.0 1047.3 C 2851.9 1045.0, 2997.4 1058.6, 3094.3 1103.8 C 3198.2 1091.1, 3343.7 1037.6, 3440.6 1129.5" fill="none" stroke="url(#ribbon1097)" stroke-width="46.4" stroke-linecap="round" stroke-opacity="0.198" /></g><g transform="rotate(-18.02 1536.0 1536.0)"><path d="M-368.6 1288.3 C -273.4 1267.3, -140.1 1308.5, -51.2 1320.6 C 44.0 1333.3, 177.4 1255.9, 266.2 1366.1 C 361.5 1355.3, 494.8 1217.5, 583.7 1364.4 C 678.9 1342.9, 812.2 1252.1, 901.1 1316.6 C 996.4 1309.1, 1129.7 1256.9, 1218.6 1251.6 C 1313.8 1249.2, 1447.1 1318.9, 1536.0 1208.9 C 1631.2 1216.1, 1764.6 1314.9, 1853.4 1214.4 C 1948.7 1200.2, 2082.0 1313.9, 2170.9 1264.7 C 2266.1 1273.9, 2399.4 1305.3, 2488.3 1329.4 C 2583.6 1333.1, 2716.9 1273.2, 2805.8 1369.1 C 2901.0 1380.9, 3034.3 1211.6, 3123.2 1359.9 C 3218.4 1356.2, 3351.8 1251.6, 3440.6 1307.2" fill="none" stroke="url(#ribbon1097)" stroke-width="42.4" stroke-linecap="round" stroke-opacity="0.224" /></g><g transform="rotate(-17.44 1536.0 1536.0)"><path d="M-368.6 1432.3 C -225.8 1487.9, -25.8 1387.1, 107.5 1457.2 C 250.4 1460.2, 450.4 1417.2, 583.7 1387.1 C 726.5 1383.2, 926.5 1470.3, 1059.8 1344.5 C 1202.7 1353.6, 1402.7 1504.2, 1536.0 1355.1 C 1678.8 1353.4, 1878.8 1516.8, 2012.2 1412.5 C 2155.0 1406.6, 2355.0 1450.9, 2488.3 1482.0 C 2631.2 1492.4, 2831.2 1385.1, 2964.5 1521.3 C 3107.3 1550.5, 3307.3 1346.8, 3440.6 1506.6" fill="none" stroke="url(#ribbon1097)" stroke-width="38.4" stroke-linecap="round" stroke-opacity="0.250" /></g><g transform="rotate(-16.86 1536.0 1536.0)"><path d="M-368.6 1731.3 C -241.7 1831.3, -63.9 1672.4, 54.6 1765.1 C 181.6 1766.5, 359.4 1710.8, 477.9 1689.1 C 604.8 1676.0, 782.6 1770.9, 901.1 1638.7 C 1028.1 1659.9, 1205.9 1759.9, 1324.4 1644.5 C 1451.3 1668.3, 1629.1 1801.1, 1747.6 1703.0 C 1874.6 1693.9, 2052.4 1755.5, 2170.9 1778.6 C 2297.9 1761.5, 2475.6 1715.0, 2594.1 1825.6 C 2721.1 1850.8, 2898.9 1685.3, 3017.4 1815.4 C 3144.4 1790.8, 3322.1 1696.9, 3440.6 1754.2" fill="none" stroke="url(#ribbon1097)" stroke-width="34.4" stroke-linecap="round" stroke-opacity="0.276" /></g><g transform="rotate(-16.28 1536.0 1536.0)"><path d="M-368.6 1831.1 C -254.4 1911.8, -94.4 1764.2, 12.3 1933.5 C 126.6 1962.0, 286.6 1734.7, 393.2 1886.9 C 507.5 1871.7, 667.5 1801.7, 774.1 1806.4 C 888.4 1812.4, 1048.4 1858.7, 1155.1 1740.9 C 1269.4 1737.4, 1429.3 1938.3, 1536.0 1730.0 C 1650.3 1720.3, 1810.3 1896.2, 1916.9 1780.4 C 2031.2 1781.2, 2191.2 1853.2, 2297.9 1861.6 C 2412.1 1873.7, 2572.1 1798.5, 2678.8 1924.2 C 2793.1 1920.4, 2953.1 1751.8, 3059.7 1930.3 C 3174.0 1918.3, 3334.0 1756.3, 3440.6 1876.2" fill="none" stroke="url(#ribbon1097)" stroke-width="30.4" stroke-linecap="round" stroke-opacity="0.302" /></g><g transform="rotate(-15.70 1536.0 1536.0)"><path d="M-368.6 2059.3 C -264.8 2169.9, -119.3 1990.2, -22.3 2166.1 C 81.5 2204.4, 227.0 1992.4, 324.0 2109.8 C 427.8 2117.6, 573.3 2002.5, 670.3 2023.0 C 774.1 2029.7, 919.6 2076.7, 1016.6 1958.1 C 1120.4 1917.7, 1265.9 2180.0, 1362.9 1954.7 C 1466.7 1936.9, 1612.2 2169.7, 1709.1 2014.7 C 1813.0 2016.3, 1958.5 2112.1, 2055.4 2101.8 C 2159.3 2115.9, 2304.8 2030.8, 2401.7 2163.1 C 2505.6 2202.5, 2651.1 1961.8, 2748.0 2161.5 C 2851.9 2184.4, 2997.4 1991.8, 3094.3 2097.9 C 3198.2 2093.0, 3343.7 2035.0, 3440.6 2010.9" fill="none" stroke="url(#ribbon1097)" stroke-width="26.4" stroke-linecap="round" stroke-opacity="0.328" /></g><g transform="rotate(-15.12 1536.0 1536.0)"><path d="M-368.6 2304.3 C -273.4 2388.0, -140.1 2203.7, -51.2 2345.2 C 44.0 2351.3, 177.4 2269.0, 266.2 2252.7 C 361.5 2241.4, 494.8 2348.7, 583.7 2191.5 C 678.9 2170.7, 812.2 2347.1, 901.1 2198.7 C 996.4 2188.9, 1129.7 2398.0, 1218.6 2269.9 C 1313.8 2280.2, 1447.1 2316.1, 1536.0 2362.0 C 1631.2 2374.3, 1764.6 2256.2, 1853.4 2419.0 C 1948.7 2448.1, 2082.0 2243.8, 2170.9 2406.5 C 2266.1 2366.5, 2399.4 2231.7, 2488.3 2331.9 C 2583.6 2325.2, 2716.9 2289.3, 2805.8 2240.6 C 2901.0 2222.1, 3034.3 2358.5, 3123.2 2187.9 C 3218.4 2187.3, 3351.8 2407.0, 3440.6 2205.8" fill="none" stroke="url(#ribbon1097)" stroke-width="22.4" stroke-linecap="round" stroke-opacity="0.354" /></g><g transform="rotate(-14.54 1536.0 1536.0)"><path d="M-368.6 2503.9 C -225.8 2497.5, -25.8 2508.6, 107.5 2407.8 C 250.4 2435.5, 450.4 2580.3, 583.7 2378.5 C 726.5 2350.7, 926.5 2624.2, 1059.8 2425.2 C 1202.7 2448.9, 1402.7 2594.5, 1536.0 2519.7 C 1678.8 2525.6, 1878.8 2495.3, 2012.2 2604.5 C 2155.0 2586.0, 2355.0 2415.7, 2488.3 2628.3 C 2631.2 2584.6, 2831.2 2446.4, 2964.5 2576.6 C 3107.3 2602.4, 3307.3 2442.4, 3440.6 2480.8" fill="none" stroke="url(#ribbon1097)" stroke-width="18.4" stroke-linecap="round" stroke-opacity="0.380" /></g><g transform="rotate(-13.96 1536.0 1536.0)"><path d="M-368.6 2695.8 C -241.7 2727.2, -63.9 2684.3, 54.6 2622.0 C 181.6 2610.5, 359.4 2770.6, 477.9 2565.0 C 604.8 2543.2, 782.6 2834.4, 901.1 2587.3 C 1028.1 2614.6, 1205.9 2789.1, 1324.4 2675.5 C 1451.3 2673.7, 1629.1 2715.1, 1747.6 2776.0 C 1874.6 2804.1, 2052.4 2618.7, 2170.9 2827.8 C 2297.9 2875.7, 2475.6 2636.8, 2594.1 2799.6 C 2721.1 2780.1, 2898.9 2612.1, 3017.4 2708.4 C 3144.4 2709.5, 3322.1 2681.6, 3440.6 2609.6" fill="none" stroke="url(#ribbon1097)" stroke-width="14.4" stroke-linecap="round" stroke-opacity="0.406" /></g></g>
  <g><ellipse cx="1536.0" cy="1551.9" rx="728.6" ry="605.7" fill="url(#extrude1097)" opacity="0.220" /><ellipse cx="1536.0" cy="1567.7" rx="736.0" ry="610.9" fill="url(#extrude1097)" opacity="0.205" /><ellipse cx="1536.0" cy="1583.6" rx="743.4" ry="616.1" fill="url(#extrude1097)" opacity="0.190" /><ellipse cx="1536.0" cy="1599.5" rx="750.9" ry="621.3" fill="url(#extrude1097)" opacity="0.175" /><ellipse cx="1536.0" cy="1615.4" rx="758.3" ry="626.5" fill="url(#extrude1097)" opacity="0.160" /><ellipse cx="1536.0" cy="1631.2" rx="765.7" ry="631.7" fill="url(#extrude1097)" opacity="0.145" /><ellipse cx="1536.0" cy="1647.1" rx="773.2" ry="636.9" fill="url(#extrude1097)" opacity="0.130" /><ellipse cx="1536.0" cy="1663.0" rx="780.6" ry="642.1" fill="url(#extrude1097)" opacity="0.115" /><ellipse cx="1536.0" cy="1678.8" rx="788.0" ry="647.4" fill="url(#extrude1097)" opacity="0.100" /><ellipse cx="1536.0" cy="1694.7" rx="795.5" ry="652.6" fill="url(#extrude1097)" opacity="0.085" /><ellipse cx="1536.0" cy="1710.6" rx="802.9" ry="657.8" fill="url(#extrude1097)" opacity="0.070" /><ellipse cx="1536.0" cy="1726.5" rx="810.3" ry="663.0" fill="url(#extrude1097)" opacity="0.055" /></g>
  <ellipse cx="1536.0" cy="1726.5" rx="773.2" ry="214.9" fill="#0B1D2D" opacity="0.24" />
  <ellipse cx="1536.0" cy="1536.0" rx="743.4" ry="651.3" fill="url(#orb1097)" stroke="#FFFFFF" stroke-opacity="0.42" stroke-width="7" />
  <ellipse cx="1431.9" cy="1392.7" rx="505.5" ry="299.6" fill="#FFFFFF" opacity="0.25" />
  <path d="M 199.4 399.4 C 1013.8 -30.7, 2058.2 768.0, 2872.6 215.0 L 2872.6 983.0 C 2089.0 1228.8, 1013.8 307.2, 199.4 1167.4 Z" fill="url(#glass1097)" />
  <rect x="270" y="270" width="2532" height="2532" rx="430" fill="none" stroke="#FFFFFF" stroke-opacity="0.30" stroke-width="5" />
  <rect x="288.4" y="288.4" width="2495.1" height="2495.1" rx="399" fill="none" stroke="#FFD84D" stroke-opacity="0.35" stroke-width="3" />
  <g filter="url(#soft1097)"><rect x="1698" y="434" width="48" height="2" fill="#FFFFFF" opacity="0.647" /><rect x="1721" y="411" width="2" height="48" fill="#FFFFFF" opacity="0.647" /><rect x="426" y="623" width="62" height="2" fill="#FFFFFF" opacity="0.313" /><rect x="456" y="593" width="2" height="62" fill="#FFFFFF" opacity="0.313" /><rect x="2751" y="1842" width="28" height="2" fill="#FFFFFF" opacity="0.370" /><rect x="2764" y="1829" width="2" height="28" fill="#FFFFFF" opacity="0.370" /><rect x="1117" y="1630" width="52" height="2" fill="#FFFFFF" opacity="0.351" /><rect x="1142" y="1605" width="2" height="52" fill="#FFFFFF" opacity="0.351" /><rect x="2669" y="635" width="48" height="2" fill="#FFFFFF" opacity="0.526" /><rect x="2692" y="612" width="2" height="48" fill="#FFFFFF" opacity="0.526" /><rect x="1260" y="2253" width="38" height="2" fill="#FFFFFF" opacity="0.653" /><rect x="1278" y="2235" width="2" height="38" fill="#FFFFFF" opacity="0.653" /><rect x="2446" y="2210" width="56" height="2" fill="#FFFFFF" opacity="0.834" /><rect x="2473" y="2183" width="2" height="56" fill="#FFFFFF" opacity="0.834" /><rect x="1186" y="1966" width="78" height="2" fill="#FFFFFF" opacity="0.386" /><rect x="1224" y="1928" width="2" height="78" fill="#FFFFFF" opacity="0.386" /><rect x="1666" y="2370" width="54" height="2" fill="#FFFFFF" opacity="0.698" /><rect x="1692" y="2344" width="2" height="54" fill="#FFFFFF" opacity="0.698" /><rect x="556" y="2646" width="64" height="2" fill="#FFFFFF" opacity="0.547" /><rect x="587" y="2615" width="2" height="64" fill="#FFFFFF" opacity="0.547" /><rect x="2023" y="2695" width="66" height="2" fill="#FFFFFF" opacity="0.576" /><rect x="2055" y="2663" width="2" height="66" fill="#FFFFFF" opacity="0.576" /><rect x="1770" y="2298" width="74" height="2" fill="#FFFFFF" opacity="0.735" /><rect x="1806" y="2262" width="2" height="74" fill="#FFFFFF" opacity="0.735" /><rect x="2223" y="1517" width="34" height="2" fill="#FFFFFF" opacity="0.497" /><rect x="2239" y="1501" width="2" height="34" fill="#FFFFFF" opacity="0.497" /><rect x="2540" y="2166" width="44" height="2" fill="#FFFFFF" opacity="0.789" /><rect x="2561" y="2145" width="2" height="44" fill="#FFFFFF" opacity="0.789" /><rect x="1698" y="794" width="34" height="2" fill="#FFFFFF" opacity="0.678" /><rect x="1714" y="778" width="2" height="34" fill="#FFFFFF" opacity="0.678" /><rect x="2167" y="2032" width="58" height="2" fill="#FFFFFF" opacity="0.661" /><rect x="2195" y="2004" width="2" height="58" fill="#FFFFFF" opacity="0.661" /><rect x="916" y="1170" width="62" height="2" fill="#FFFFFF" opacity="0.387" /><rect x="946" y="1140" width="2" height="62" fill="#FFFFFF" opacity="0.387" /><rect x="1978" y="1345" width="32" height="2" fill="#FFFFFF" opacity="0.738" /><rect x="1993" y="1330" width="2" height="32" fill="#FFFFFF" opacity="0.738" /><rect x="459" y="354" width="72" height="2" fill="#FFFFFF" opacity="0.552" /><rect x="494" y="319" width="2" height="72" fill="#FFFFFF" opacity="0.552" /><rect x="1803" y="1136" width="76" height="2" fill="#FFFFFF" opacity="0.415" /><rect x="1840" y="1099" width="2" height="76" fill="#FFFFFF" opacity="0.415" /><rect x="1494" y="2349" width="76" height="2" fill="#FFFFFF" opacity="0.765" /><rect x="1531" y="2312" width="2" height="76" fill="#FFFFFF" opacity="0.765" /><rect x="796" y="1676" width="50" height="2" fill="#FFFFFF" opacity="0.410" /><rect x="820" y="1652" width="2" height="50" fill="#FFFFFF" opacity="0.410" /><rect x="2702" y="2285" width="68" height="2" fill="#FFFFFF" opacity="0.587" /><rect x="2735" y="2252" width="2" height="68" fill="#FFFFFF" opacity="0.587" /><rect x="1709" y="930" width="74" height="2" fill="#FFFFFF" opacity="0.580" /><rect x="1745" y="894" width="2" height="74" fill="#FFFFFF" opacity="0.580" /><rect x="1089" y="2268" width="70" height="2" fill="#FFFFFF" opacity="0.751" /><rect x="1123" y="2234" width="2" height="70" fill="#FFFFFF" opacity="0.751" /><rect x="1947" y="1353" width="84" height="2" fill="#FFFFFF" opacity="0.381" /><rect x="1988" y="1312" width="2" height="84" fill="#FFFFFF" opacity="0.381" /></g>
  <g opacity="0.52"><rect x="1023" y="1121" width="1152" height="1024" rx="153" fill="none" stroke="#0C2030" stroke-width="90" /><line x1="1023" y1="1326" x2="2148" y2="1326" stroke="#0C2030" stroke-width="90" /><line x1="1316" y1="1033" x2="1316" y2="1121" stroke="#0C2030" stroke-width="90" /><line x1="1828" y1="1033" x2="1828" y2="1121" stroke="#0C2030" stroke-width="90" /></g>
  <g filter="url(#soft1097)"><rect x="987" y="1075" width="1152" height="1024" rx="153" fill="none" stroke="url(#symbol1097)" stroke-width="90" /><line x1="987" y1="1280" x2="2112" y2="1280" stroke="url(#symbol1097)" stroke-width="90" /><line x1="1280" y1="987" x2="1280" y2="1075" stroke="url(#symbol1097)" stroke-width="90" /><line x1="1792" y1="987" x2="1792" y2="1075" stroke="url(#symbol1097)" stroke-width="90" /></g>
  <rect x="138" y="138" width="2796" height="2796" rx="629" fill="#FFFFFF" filter="url(#grain1097)" opacity="0.18" />
</svg>
