<svg xmlns="http://www.w3.org/2000/svg" width="3072" height="3072" viewBox="0 0 3072 3072">
  <title>QuartzOS System Icon 078 - uploads_04</title>
  <defs><linearGradient id="bg1077" x1="0%" y1="0%" x2="100%" y2="100%"><stop offset="0%" stop-color="#53E3A6" /><stop offset="26%" stop-color="#3B82FF" /><stop offset="56%" stop-color="#FF6AB3" /><stop offset="78%" stop-color="#4F79A7" /><stop offset="100%" stop-color="#1B2630" /></linearGradient><radialGradient id="sun1077" cx="46%" cy="32%" r="88%"><stop offset="0%" stop-color="#FFFFFF" stop-opacity="0.62" /><stop offset="30%" stop-color="#FF9F43" stop-opacity="0.35" /><stop offset="100%" stop-color="#FF9F43" stop-opacity="0" /></radialGradient><linearGradient id="glass1077" x1="0%" y1="0%" x2="0%" y2="100%"><stop offset="0%" stop-color="#FFFFFF" stop-opacity="0.70" /><stop offset="46%" stop-color="#FFFFFF" stop-opacity="0.26" /><stop offset="100%" stop-color="#FFFFFF" stop-opacity="0.00" /></linearGradient><linearGradient id="ribbon1077" x1="0%" y1="0%" x2="100%" y2="0%"><stop offset="0%" stop-color="#53E3A6" stop-opacity="0.18" /><stop offset="34%" stop-color="#3B82FF" stop-opacity="0.72" /><stop offset="66%" stop-color="#FF6AB3" stop-opacity="0.72" /><stop offset="100%" stop-color="#FF9F43" stop-opacity="0.18" /></linearGradient><radialGradient id="orb1077" cx="34%" cy="27%" r="74%"><stop offset="0%" stop-color="#FFFFFF" stop-opacity="0.84" /><stop offset="30%" stop-color="#53E3A6" stop-opacity="0.52" /><stop offset="68%" stop-color="#3B82FF" stop-opacity="0.42" /><stop offset="100%" stop-color="#FF6AB3" stop-opacity="0.20" /></radialGradient><linearGradient id="extrude1077" x1="0%" y1="0%" x2="0%" y2="100%"><stop offset="0%" stop-color="#15283C" stop-opacity="0.45" /><stop offset="100%" stop-color="#08131D" stop-opacity="0.06" /></linearGradient><linearGradient id="symbol1077" x1="0%" y1="0%" x2="100%" y2="100%"><stop offset="0%" stop-color="#FFFFFF" /><stop offset="100%" stop-color="#FF9F43" /></linearGradient><filter id="shadow1077" x="-40%" y="-40%" width="180%" height="180%"><feDropShadow dx="0" dy="49" stdDeviation="86" flood-color="#06111A" flood-opacity="0.54" /></filter><filter id="soft1077" x="-40%" y="-40%" width="180%" height="180%"><feDropShadow dx="0" dy="0" stdDeviation="14" flood-color="#53E3A6" flood-opacity="0.45" /></filter><filter id="grain1077"><feTurbulence type="fractalNoise" baseFrequency="0.886" numOctaves="2" seed="1077" /><feColorMatrix type="saturate" values="0" /><feComponentTransfer><feFuncA type="table" tableValues="0 0.09" /></feComponentTransfer></filter></defs>
  <rect x="138" y="138" width="2796" height="2796" rx="629" fill="url(#bg1077)" filter="url(#shadow1077)" />
  <rect x="138" y="138" width="2796" height="2796" rx="629" fill="url(#sun1077)" />
  <g><circle cx="1808" cy="1037" r="48" fill="#FFFFFF" opacity="0.163" /><circle cx="814" cy="2486" r="156" fill="#FFFFFF" opacity="0.109" /><circle cx="1798" cy="2408" r="137" fill="#FFFFFF" opacity="0.143" /><circle cx="2344" cy="2470" r="144" fill="#FFFFFF" opacity="0.090" /><circle cx="759" cy="721" r="138" fill="#FFFFFF" opacity="0.213" /><circle cx="402" cy="754" r="141" fill="#FFFFFF" opacity="0.192" /><circle cx="1037" cy="2303" r="92" fill="#FFFFFF" opacity="0.155" /><circle cx="1617" cy="1764" r="110" fill="#FFFFFF" opacity="0.080" /><circle cx="2131" cy="581" r="51" fill="#FFFFFF" opacity="0.219" /><circle cx="2066" cy="865" r="66" fill="#FFFFFF" opacity="0.214" /><circle cx="642" cy="1769" r="128" fill="#FFFFFF" opacity="0.184" /><circle cx="2184" cy="1138" r="79" fill="#FFFFFF" opacity="0.106" /><circle cx="2628" cy="389" r="146" fill="#FFFFFF" opacity="0.141" /><circle cx="1382" cy="1558" r="135" fill="#FFFFFF" opacity="0.106" /><circle cx="1666" cy="466" r="131" fill="#FFFFFF" opacity="0.126" /><circle cx="409" cy="2084" r="93" fill="#FFFFFF" opacity="0.219" /><circle cx="1999" cy="931" r="42" fill="#FFFFFF" opacity="0.201" /><circle cx="2104" cy="1723" r="105" fill="#FFFFFF" opacity="0.110" /><circle cx="396" cy="342" r="94" fill="#FFFFFF" opacity="0.105" /><circle cx="1204" cy="1527" r="42" fill="#FFFFFF" opacity="0.111" /><circle cx="1422" cy="1758" r="73" fill="#FFFFFF" opacity="0.084" /><circle cx="561" cy="553" r="115" fill="#FFFFFF" opacity="0.160" /><circle cx="753" cy="986" r="101" fill="#FFFFFF" opacity="0.205" /><circle cx="2415" cy="1562" r="127" fill="#FFFFFF" opacity="0.117" /><circle cx="1907" cy="1339" r="157" fill="#FFFFFF" opacity="0.123" /><circle cx="387" cy="2483" r="53" fill="#FFFFFF" opacity="0.163" /><circle cx="1016" cy="2180" r="55" fill="#FFFFFF" opacity="0.219" /><circle cx="2557" cy="2414" r="102" fill="#FFFFFF" opacity="0.236" /></g>
  <g><path d="M 320.9 659.8 L 2897.3 383.3 L 2897.3 834.6 L 320.9 1111.1 Z" fill="#FFFFFF" opacity="0.163" /><path d="M 368.4 839.6 L 2734.2 563.1 L 2734.2 1021.5 L 368.4 1298.0 Z" fill="#FFFFFF" opacity="0.169" /><path d="M 213.4 1172.6 L 2802.6 896.1 L 2802.6 1390.0 L 213.4 1666.5 Z" fill="#FFFFFF" opacity="0.176" /><path d="M 313.3 1441.2 L 2698.5 1164.7 L 2698.5 1584.5 L 313.3 1861.0 Z" fill="#FFFFFF" opacity="0.088" /><path d="M 177.6 1646.6 L 2769.5 1370.1 L 2769.5 1819.3 L 177.6 2095.7 Z" fill="#FFFFFF" opacity="0.116" /><path d="M 254.4 1954.0 L 2736.0 1677.5 L 2736.0 2130.8 L 254.4 2407.3 Z" fill="#FFFFFF" opacity="0.154" /><path d="M 206.3 2142.5 L 2874.8 1866.0 L 2874.8 2357.7 L 206.3 2634.2 Z" fill="#FFFFFF" opacity="0.156" /><path d="M 239.3 2417.2 L 2861.4 2140.8 L 2861.4 2586.6 L 239.3 2863.0 Z" fill="#FFFFFF" opacity="0.159" /></g>
  <g filter="url(#soft1077)"><g transform="rotate(-17.80 1536.0 1536.0)"><path d="M-368.6 489.3 C -225.8 499.1, -25.8 473.9, 107.5 461.0 C 250.4 460.1, 450.4 521.2, 583.7 435.5 C 726.5 432.9, 926.5 535.4, 1059.8 442.7 C 1202.7 445.5, 1402.7 511.6, 1536.0 478.1 C 1678.8 475.7, 1878.8 500.2, 2012.2 520.3 C 2155.0 512.7, 2355.0 455.8, 2488.3 543.8 C 2631.2 524.1, 2831.2 449.1, 2964.5 534.2 C 3107.3 534.1, 3307.3 459.8, 3440.6 497.4" fill="none" stroke="url(#ribbon1077)" stroke-width="58.4" stroke-linecap="round" stroke-opacity="0.120" /></g><g transform="rotate(-17.22 1536.0 1536.0)"><path d="M-368.6 754.5 C -241.7 804.8, -63.9 718.0, 54.6 749.4 C 181.6 751.0, 359.4 760.1, 477.9 706.3 C 604.8 702.1, 782.6 804.6, 901.1 692.5 C 1028.1 674.0, 1205.9 793.5, 1324.4 716.2 C 1451.3 725.1, 1629.1 798.4, 1747.6 763.2 C 1874.6 761.4, 2052.4 747.0, 2170.9 804.8 C 2297.9 821.3, 2475.6 726.1, 2594.1 815.9 C 2721.1 816.3, 2898.9 708.4, 3017.4 789.7 C 3144.4 784.7, 3322.1 735.7, 3440.6 742.2" fill="none" stroke="url(#ribbon1077)" stroke-width="54.4" stroke-linecap="round" stroke-opacity="0.146" /></g><g transform="rotate(-16.64 1536.0 1536.0)"><path d="M-368.6 962.2 C -254.4 1022.3, -94.4 915.8, 12.3 1027.3 C 126.6 1039.5, 286.6 934.3, 393.2 990.2 C 507.5 981.0, 667.5 942.8, 774.1 936.1 C 888.4 936.5, 1048.4 970.9, 1155.1 897.9 C 1269.4 915.4, 1429.3 1015.0, 1536.0 898.7 C 1650.3 921.6, 1810.3 1029.6, 1916.9 938.0 C 2031.2 930.8, 2191.2 989.6, 2297.9 992.1 C 2412.1 996.7, 2572.1 949.4, 2678.8 1028.0 C 2793.1 1048.0, 2953.1 904.7, 3059.7 1024.0 C 3174.0 1001.8, 3334.0 927.7, 3440.6 982.6" fill="none" stroke="url(#ribbon1077)" stroke-width="50.4" stroke-linecap="round" stroke-opacity="0.172" /></g><g transform="rotate(-16.06 1536.0 1536.0)"><path d="M-368.6 1133.0 C -264.8 1043.5, -119.3 1200.2, -22.3 1117.1 C 81.5 1117.6, 227.0 1150.7, 324.0 1175.6 C 427.8 1179.4, 573.3 1099.5, 670.3 1208.2 C 774.1 1228.3, 919.6 1049.9, 1016.6 1195.2 C 1120.4 1173.6, 1265.9 1064.7, 1362.9 1144.4 C 1466.7 1148.1, 1612.2 1120.9, 1709.1 1086.7 C 1813.0 1082.6, 1958.5 1173.7, 2055.4 1057.0 C 2159.3 1039.3, 2304.8 1162.0, 2401.7 1073.4 C 2505.6 1083.9, 2651.1 1159.3, 2748.0 1125.9 C 2851.9 1125.4, 2997.4 1141.2, 3094.3 1182.7 C 3198.2 1172.3, 3343.7 1096.3, 3440.6 1209.3" fill="none" stroke="url(#ribbon1077)" stroke-width="46.4" stroke-linecap="round" stroke-opacity="0.198" /></g><g transform="rotate(-15.48 1536.0 1536.0)"><path d="M-368.6 1271.1 C -273.4 1345.1, -140.1 1228.3, -51.2 1323.6 C 44.0 1328.7, 177.4 1227.5, 266.2 1261.1 C 361.5 1258.3, 494.8 1274.1, 583.7 1204.6 C 678.9 1199.8, 812.2 1315.0, 901.1 1188.4 C 996.4 1164.5, 1129.7 1341.7, 1218.6 1222.4 C 1313.8 1240.9, 1447.1 1297.5, 1536.0 1285.8 C 1631.2 1284.7, 1764.6 1257.5, 1853.4 1340.4 C 1948.7 1320.5, 2082.0 1200.2, 2170.9 1352.8 C 2266.1 1326.5, 2399.4 1240.0, 2488.3 1315.7 C 2583.6 1308.8, 2716.9 1252.2, 2805.8 1251.5 C 2901.0 1252.6, 3034.3 1284.1, 3123.2 1199.2 C 3218.4 1210.0, 3351.8 1295.5, 3440.6 1190.4" fill="none" stroke="url(#ribbon1077)" stroke-width="42.4" stroke-linecap="round" stroke-opacity="0.224" /></g><g transform="rotate(-14.90 1536.0 1536.0)"><path d="M-368.6 1510.7 C -225.8 1525.9, -25.8 1496.4, 107.5 1454.5 C 250.4 1450.8, 450.4 1555.3, 583.7 1420.5 C 726.5 1448.9, 926.5 1598.9, 1059.8 1441.2 C 1202.7 1438.9, 1402.7 1574.6, 1536.0 1504.0 C 1678.8 1504.2, 1878.8 1514.4, 2012.2 1570.9 C 2155.0 1583.6, 2355.0 1467.5, 2488.3 1601.2 C 2631.2 1565.3, 2831.2 1467.8, 2964.5 1576.6 C 3107.3 1586.6, 3307.3 1488.2, 3440.6 1512.0" fill="none" stroke="url(#ribbon1077)" stroke-width="38.4" stroke-linecap="round" stroke-opacity="0.250" /></g><g transform="rotate(-14.32 1536.0 1536.0)"><path d="M-368.6 1622.1 C -241.7 1507.1, -63.9 1668.3, 54.6 1577.3 C 181.6 1565.8, 359.4 1662.3, 477.9 1653.2 C 604.8 1648.0, 782.6 1585.7, 901.1 1710.2 C 1028.1 1741.1, 1205.9 1577.5, 1324.4 1713.8 C 1451.3 1722.4, 1629.1 1539.7, 1747.6 1661.8 C 1874.6 1666.8, 2052.4 1584.8, 2170.9 1585.7 C 2297.9 1585.3, 2475.6 1664.2, 2594.1 1531.7 C 2721.1 1553.8, 2898.9 1696.5, 3017.4 1532.6 C 3144.4 1556.6, 3322.1 1717.8, 3440.6 1587.8" fill="none" stroke="url(#ribbon1077)" stroke-width="34.4" stroke-linecap="round" stroke-opacity="0.276" /></g><g transform="rotate(-13.74 1536.0 1536.0)"><path d="M-368.6 1925.8 C -254.4 2042.8, -94.4 1827.3, 12.3 2025.1 C 126.6 2053.9, 286.6 1867.6, 393.2 1971.2 C 507.5 1976.7, 667.5 1883.8, 774.1 1889.7 C 888.4 1896.5, 1048.4 1968.6, 1155.1 1830.1 C 1269.4 1799.9, 1429.3 1994.9, 1536.0 1828.5 C 1650.3 1862.7, 1810.3 1986.7, 1916.9 1886.0 C 2031.2 1884.8, 2191.2 1973.1, 2297.9 1967.5 C 2412.1 1983.2, 2572.1 1881.0, 2678.8 2023.8 C 2793.1 1989.1, 2953.1 1849.4, 3059.7 2020.6 C 3174.0 2046.6, 3334.0 1819.2, 3440.6 1959.8" fill="none" stroke="url(#ribbon1077)" stroke-width="30.4" stroke-linecap="round" stroke-opacity="0.302" /></g><g transform="rotate(-13.16 1536.0 1536.0)"><path d="M-368.6 2131.0 C -264.8 1986.2, -119.3 2236.5, -22.3 2047.4 C 81.5 2059.6, 227.0 2219.6, 324.0 2126.1 C 427.8 2127.3, 573.3 2132.7, 670.3 2207.7 C 774.1 2236.3, 919.6 2053.0, 1016.6 2242.8 C 1120.4 2266.5, 1265.9 2096.7, 1362.9 2210.1 C 1466.7 2237.4, 1612.2 2045.2, 1709.1 2129.4 C 1813.0 2128.8, 1958.5 2131.7, 2055.4 2049.6 C 2159.3 2031.2, 2304.8 2214.0, 2401.7 2019.3 C 2505.6 2004.8, 2651.1 2240.1, 2748.0 2056.6 C 2851.9 2053.3, 2997.4 2192.3, 3094.3 2139.1 C 3198.2 2136.7, 3343.7 2126.4, 3440.6 2216.6" fill="none" stroke="url(#ribbon1077)" stroke-width="26.4" stroke-linecap="round" stroke-opacity="0.328" /></g><g transform="rotate(-12.58 1536.0 1536.0)"><path d="M-368.6 2242.5 C -273.4 2276.2, -140.1 2209.9, -51.2 2195.1 C 44.0 2178.0, 177.4 2283.2, 266.2 2131.3 C 361.5 2101.2, 494.8 2370.7, 583.7 2135.0 C 678.9 2112.5, 812.2 2276.5, 901.1 2203.9 C 996.4 2188.5, 1129.7 2284.8, 1218.6 2296.3 C 1313.8 2284.9, 1447.1 2189.0, 1536.0 2356.0 C 1631.2 2366.4, 1764.6 2184.8, 1853.4 2347.0 C 1948.7 2376.4, 2082.0 2178.0, 2170.9 2274.5 C 2266.1 2270.1, 2399.4 2220.2, 2488.3 2182.7 C 2583.6 2171.1, 2716.9 2302.3, 2805.8 2127.1 C 2901.0 2107.4, 3034.3 2318.7, 3123.2 2141.6 C 3218.4 2116.6, 3351.8 2360.4, 3440.6 2217.3" fill="none" stroke="url(#ribbon1077)" stroke-width="22.4" stroke-linecap="round" stroke-opacity="0.354" /></g><g transform="rotate(-12.00 1536.0 1536.0)"><path d="M-368.6 2457.8 C -225.8 2358.0, -25.8 2530.2, 107.5 2336.7 C 250.4 2343.8, 450.4 2534.3, 583.7 2398.3 C 726.5 2387.9, 926.5 2506.8, 1059.8 2495.9 C 1202.7 2498.8, 1402.7 2436.3, 1536.0 2570.5 C 1678.8 2584.0, 1878.8 2333.5, 2012.2 2576.7 C 2155.0 2576.4, 2355.0 2419.1, 2488.3 2510.8 C 2631.2 2511.8, 2831.2 2395.5, 2964.5 2412.7 C 3107.3 2427.1, 3307.3 2480.9, 3440.6 2342.0" fill="none" stroke="url(#ribbon1077)" stroke-width="18.4" stroke-linecap="round" stroke-opacity="0.380" /></g><g transform="rotate(-11.42 1536.0 1536.0)"><path d="M-368.6 2595.7 C -241.7 2471.4, -63.9 2667.7, 54.6 2468.0 C 181.6 2459.5, 359.4 2642.7, 477.9 2533.5 C 604.8 2522.8, 782.6 2635.0, 901.1 2636.7 C 1028.1 2629.0, 1205.9 2569.2, 1324.4 2715.0 C 1451.3 2746.9, 1629.1 2520.7, 1747.6 2720.9 C 1874.6 2748.4, 2052.4 2508.0, 2170.9 2650.9 C 2297.9 2633.5, 2475.6 2573.7, 2594.1 2547.3 C 2721.1 2537.2, 2898.9 2622.4, 3017.4 2473.1 C 3144.4 2483.1, 3322.1 2722.8, 3440.6 2473.2" fill="none" stroke="url(#ribbon1077)" stroke-width="14.4" stroke-linecap="round" stroke-opacity="0.406" /></g></g>
  <g><ellipse cx="1536.0" cy="1551.9" rx="728.6" ry="605.7" fill="url(#extrude1077)" opacity="0.220" /><ellipse cx="1536.0" cy="1567.7" rx="736.0" ry="610.9" fill="url(#extrude1077)" opacity="0.205" /><ellipse cx="1536.0" cy="1583.6" rx="743.4" ry="616.1" fill="url(#extrude1077)" opacity="0.190" /><ellipse cx="1536.0" cy="1599.5" rx="750.9" ry="621.3" fill="url(#extrude1077)" opacity="0.175" /><ellipse cx="1536.0" cy="1615.4" rx="758.3" ry="626.5" fill="url(#extrude1077)" opacity="0.160" /><ellipse cx="1536.0" cy="1631.2" rx="765.7" ry="631.7" fill="url(#extrude1077)" opacity="0.145" /><ellipse cx="1536.0" cy="1647.1" rx="773.2" ry="636.9" fill="url(#extrude1077)" opacity="0.130" /><ellipse cx="1536.0" cy="1663.0" rx="780.6" ry="642.1" fill="url(#extrude1077)" opacity="0.115" /><ellipse cx="1536.0" cy="1678.8" rx="788.0" ry="647.4" fill="url(#extrude1077)" opacity="0.100" /><ellipse cx="1536.0" cy="1694.7" rx="795.5" ry="652.6" fill="url(#extrude1077)" opacity="0.085" /><ellipse cx="1536.0" cy="1710.6" rx="802.9" ry="657.8" fill="url(#extrude1077)" opacity="0.070" /><ellipse cx="1536.0" cy="1726.5" rx="810.3" ry="663.0" fill="url(#extrude1077)" opacity="0.055" /></g>
  <ellipse cx="1536.0" cy="1726.5" rx="773.2" ry="214.9" fill="#0B1D2D" opacity="0.24" />
  <ellipse cx="1536.0" cy="1536.0" rx="743.4" ry="651.3" fill="url(#orb1077)" stroke="#FFFFFF" stroke-opacity="0.42" stroke-width="7" />
  <ellipse cx="1431.9" cy="1392.7" rx="505.5" ry="299.6" fill="#FFFFFF" opacity="0.25" />
  <path d="M 199.4 399.4 C 1013.8 -30.7, 2058.2 768.0, 2872.6 215.0 L 2872.6 983.0 C 2089.0 1228.8, 1013.8 307.2, 199.4 1167.4 Z" fill="url(#glass1077)" />
  <rect x="270" y="270" width="2532" height="2532" rx="430" fill="none" stroke="#FFFFFF" stroke-opacity="0.30" stroke-width="5" />
  <rect x="288.4" y="288.4" width="2495.1" height="2495.1" rx="399" fill="none" stroke="#53E3A6" stroke-opacity="0.35" stroke-width="3" />
  <g filter="url(#soft1077)"><rect x="693" y="271" width="74" height="2" fill="#FFFFFF" opacity="0.748" /><rect x="729" y="235" width="2" height="74" fill="#FFFFFF" opacity="0.748" /><rect x="2802" y="2373" width="34" height="2" fill="#FFFFFF" opacity="0.749" /><rect x="2818" y="2357" width="2" height="34" fill="#FFFFFF" opacity="0.749" /><rect x="963" y="638" width="40" height="2" fill="#FFFFFF" opacity="0.303" /><rect x="982" y="619" width="2" height="40" fill="#FFFFFF" opacity="0.303" /><rect x="760" y="2238" width="52" height="2" fill="#FFFFFF" opacity="0.381" /><rect x="785" y="2213" width="2" height="52" fill="#FFFFFF" opacity="0.381" /><rect x="2315" y="489" width="58" height="2" fill="#FFFFFF" opacity="0.509" /><rect x="2343" y="461" width="2" height="58" fill="#FFFFFF" opacity="0.509" /><rect x="1904" y="1138" width="72" height="2" fill="#FFFFFF" opacity="0.561" /><rect x="1939" y="1103" width="2" height="72" fill="#FFFFFF" opacity="0.561" /><rect x="555" y="1707" width="74" height="2" fill="#FFFFFF" opacity="0.662" /><rect x="591" y="1671" width="2" height="74" fill="#FFFFFF" opacity="0.662" /><rect x="1938" y="2491" width="72" height="2" fill="#FFFFFF" opacity="0.482" /><rect x="1973" y="2456" width="2" height="72" fill="#FFFFFF" opacity="0.482" /><rect x="348" y="2499" width="28" height="2" fill="#FFFFFF" opacity="0.428" /><rect x="361" y="2486" width="2" height="28" fill="#FFFFFF" opacity="0.428" /><rect x="2686" y="2253" width="82" height="2" fill="#FFFFFF" opacity="0.808" /><rect x="2726" y="2213" width="2" height="82" fill="#FFFFFF" opacity="0.808" /><rect x="1225" y="732" width="60" height="2" fill="#FFFFFF" opacity="0.644" /><rect x="1254" y="703" width="2" height="60" fill="#FFFFFF" opacity="0.644" /><rect x="2106" y="2093" width="74" height="2" fill="#FFFFFF" opacity="0.717" /><rect x="2142" y="2057" width="2" height="74" fill="#FFFFFF" opacity="0.717" /><rect x="466" y="562" width="28" height="2" fill="#FFFFFF" opacity="0.725" /><rect x="479" y="549" width="2" height="28" fill="#FFFFFF" opacity="0.725" /><rect x="741" y="675" width="76" height="2" fill="#FFFFFF" opacity="0.335" /><rect x="778" y="638" width="2" height="76" fill="#FFFFFF" opacity="0.335" /><rect x="1906" y="2232" width="84" height="2" fill="#FFFFFF" opacity="0.356" /><rect x="1947" y="2191" width="2" height="84" fill="#FFFFFF" opacity="0.356" /><rect x="2128" y="849" width="58" height="2" fill="#FFFFFF" opacity="0.322" /><rect x="2156" y="821" width="2" height="58" fill="#FFFFFF" opacity="0.322" /><rect x="1562" y="2724" width="82" height="2" fill="#FFFFFF" opacity="0.543" /><rect x="1602" y="2684" width="2" height="82" fill="#FFFFFF" opacity="0.543" /><rect x="1917" y="2510" width="68" height="2" fill="#FFFFFF" opacity="0.803" /><rect x="1950" y="2477" width="2" height="68" fill="#FFFFFF" opacity="0.803" /><rect x="1847" y="2237" width="34" height="2" fill="#FFFFFF" opacity="0.703" /><rect x="1863" y="2221" width="2" height="34" fill="#FFFFFF" opacity="0.703" /><rect x="1221" y="1288" width="58" height="2" fill="#FFFFFF" opacity="0.745" /><rect x="1249" y="1260" width="2" height="58" fill="#FFFFFF" opacity="0.745" /><rect x="2268" y="1380" width="76" height="2" fill="#FFFFFF" opacity="0.600" /><rect x="2305" y="1343" width="2" height="76" fill="#FFFFFF" opacity="0.600" /><rect x="1056" y="613" width="84" height="2" fill="#FFFFFF" opacity="0.535" /><rect x="1097" y="572" width="2" height="84" fill="#FFFFFF" opacity="0.535" /><rect x="1789" y="1668" width="84" height="2" fill="#FFFFFF" opacity="0.534" /><rect x="1830" y="1627" width="2" height="84" fill="#FFFFFF" opacity="0.534" /><rect x="947" y="1902" width="26" height="2" fill="#FFFFFF" opacity="0.597" /><rect x="959" y="1890" width="2" height="26" fill="#FFFFFF" opacity="0.597" /><rect x="2217" y="1768" width="66" height="2" fill="#FFFFFF" opacity="0.326" /><rect x="2249" y="1736" width="2" height="66" fill="#FFFFFF" opacity="0.326" /><rect x="1111" y="566" width="34" height="2" fill="#FFFFFF" opacity="0.467" /><rect x="1127" y="550" width="2" height="34" fill="#FFFFFF" opacity="0.467" /></g>
  <g opacity="0.52"><rect x="1060" y="1070" width="1024" height="1024" rx="153" fill="none" stroke="#0C2030" stroke-width="90" /><line x1="1316" y1="1326" x2="1828" y2="1838" stroke="#0C2030" stroke-width="90" stroke-linecap="round" /><line x1="1828" y1="1326" x2="1316" y2="1838" stroke="#0C2030" stroke-width="90" stroke-linecap="round" /></g>
  <g filter="url(#soft1077)"><rect x="1024" y="1024" width="1024" height="1024" rx="153" fill="none" stroke="url(#symbol1077)" stroke-width="90" /><line x1="1280" y1="1280" x2="1792" y2="1792" stroke="url(#symbol1077)" stroke-width="90" stroke-linecap="round" /><line x1="1792" y1="1280" x2="1280" y2="1792" stroke="url(#symbol1077)" stroke-width="90" stroke-linecap="round" /></g>
  <rect x="138" y="138" width="2796" height="2796" rx="629" fill="#FFFFFF" filter="url(#grain1077)" opacity="0.18" />
</svg>
