<svg xmlns="http://www.w3.org/2000/svg" width="3072" height="3072" viewBox="0 0 3072 3072">
  <title>QuartzOS System Icon 038 - uploads_02</title>
  <defs><linearGradient id="bg1037" x1="0%" y1="0%" x2="100%" y2="100%"><stop offset="0%" stop-color="#3B82FF" /><stop offset="26%" stop-color="#FF6AB3" /><stop offset="56%" stop-color="#FFD84D" /><stop offset="78%" stop-color="#B37A46" /><stop offset="100%" stop-color="#27201B" /></linearGradient><radialGradient id="sun1037" cx="46%" cy="19%" r="88%"><stop offset="0%" stop-color="#FFFFFF" stop-opacity="0.62" /><stop offset="30%" stop-color="#53E3A6" stop-opacity="0.35" /><stop offset="100%" stop-color="#53E3A6" stop-opacity="0" /></radialGradient><linearGradient id="glass1037" x1="0%" y1="0%" x2="0%" y2="100%"><stop offset="0%" stop-color="#FFFFFF" stop-opacity="0.70" /><stop offset="46%" stop-color="#FFFFFF" stop-opacity="0.26" /><stop offset="100%" stop-color="#FFFFFF" stop-opacity="0.00" /></linearGradient><linearGradient id="ribbon1037" x1="0%" y1="0%" x2="100%" y2="0%"><stop offset="0%" stop-color="#3B82FF" stop-opacity="0.18" /><stop offset="34%" stop-color="#FF6AB3" stop-opacity="0.72" /><stop offset="66%" stop-color="#FFD84D" stop-opacity="0.72" /><stop offset="100%" stop-color="#53E3A6" stop-opacity="0.18" /></linearGradient><radialGradient id="orb1037" cx="34%" cy="27%" r="74%"><stop offset="0%" stop-color="#FFFFFF" stop-opacity="0.84" /><stop offset="30%" stop-color="#3B82FF" stop-opacity="0.52" /><stop offset="68%" stop-color="#FF6AB3" stop-opacity="0.42" /><stop offset="100%" stop-color="#FFD84D" stop-opacity="0.20" /></radialGradient><linearGradient id="extrude1037" x1="0%" y1="0%" x2="0%" y2="100%"><stop offset="0%" stop-color="#15283C" stop-opacity="0.45" /><stop offset="100%" stop-color="#08131D" stop-opacity="0.06" /></linearGradient><linearGradient id="symbol1037" x1="0%" y1="0%" x2="100%" y2="100%"><stop offset="0%" stop-color="#FFFFFF" /><stop offset="100%" stop-color="#53E3A6" /></linearGradient><filter id="shadow1037" x="-40%" y="-40%" width="180%" height="180%"><feDropShadow dx="0" dy="49" stdDeviation="86" flood-color="#06111A" flood-opacity="0.54" /></filter><filter id="soft1037" x="-40%" y="-40%" width="180%" height="180%"><feDropShadow dx="0" dy="0" stdDeviation="14" flood-color="#3B82FF" flood-opacity="0.45" /></filter><filter id="grain1037"><feTurbulence type="fractalNoise" baseFrequency="1.064" numOctaves="2" seed="1037" /><feColorMatrix type="saturate" values="0" /><feComponentTransfer><feFuncA type="table" tableValues="0 0.09" /></feComponentTransfer></filter></defs>
  <rect x="138" y="138" width="2796" height="2796" rx="629" fill="url(#bg1037)" filter="url(#shadow1037)" />
  <rect x="138" y="138" width="2796" height="2796" rx="629" fill="url(#sun1037)" />
  <g><circle cx="595" cy="2615" r="37" fill="#FFFFFF" opacity="0.206" /><circle cx="2323" cy="926" r="70" fill="#FFFFFF" opacity="0.136" /><circle cx="380" cy="2586" r="146" fill="#FFFFFF" opacity="0.167" /><circle cx="1513" cy="376" r="96" fill="#FFFFFF" opacity="0.079" /><circle cx="1859" cy="2263" r="78" fill="#FFFFFF" opacity="0.178" /><circle cx="2430" cy="2421" r="101" fill="#FFFFFF" opacity="0.187" /><circle cx="2632" cy="851" r="54" fill="#FFFFFF" opacity="0.066" /><circle cx="2095" cy="644" r="142" fill="#FFFFFF" opacity="0.061" /><circle cx="1920" cy="1211" r="37" fill="#FFFFFF" opacity="0.208" /><circle cx="1741" cy="1584" r="138" fill="#FFFFFF" opacity="0.103" /><circle cx="1255" cy="2146" r="124" fill="#FFFFFF" opacity="0.162" /><circle cx="1432" cy="934" r="99" fill="#FFFFFF" opacity="0.231" /><circle cx="1211" cy="431" r="56" fill="#FFFFFF" opacity="0.089" /><circle cx="2422" cy="616" r="84" fill="#FFFFFF" opacity="0.146" /><circle cx="1213" cy="2575" r="51" fill="#FFFFFF" opacity="0.123" /><circle cx="908" cy="2046" r="133" fill="#FFFFFF" opacity="0.231" /><circle cx="2403" cy="785" r="144" fill="#FFFFFF" opacity="0.199" /><circle cx="1177" cy="1947" r="57" fill="#FFFFFF" opacity="0.219" /><circle cx="1898" cy="1803" r="120" fill="#FFFFFF" opacity="0.162" /><circle cx="1483" cy="2685" r="61" fill="#FFFFFF" opacity="0.116" /><circle cx="1791" cy="777" r="152" fill="#FFFFFF" opacity="0.159" /><circle cx="1651" cy="1195" r="119" fill="#FFFFFF" opacity="0.150" /><circle cx="2531" cy="807" r="79" fill="#FFFFFF" opacity="0.235" /><circle cx="2084" cy="2009" r="61" fill="#FFFFFF" opacity="0.095" /><circle cx="1706" cy="1497" r="119" fill="#FFFFFF" opacity="0.200" /><circle cx="1156" cy="1692" r="129" fill="#FFFFFF" opacity="0.147" /><circle cx="559" cy="2026" r="99" fill="#FFFFFF" opacity="0.148" /><circle cx="2674" cy="2172" r="158" fill="#FFFFFF" opacity="0.090" /></g>
  <g><path d="M 318.7 628.6 L 2857.6 352.1 L 2857.6 821.2 L 318.7 1097.7 Z" fill="#FFFFFF" opacity="0.105" /><path d="M 252.8 919.8 L 2853.1 643.3 L 2853.1 1107.3 L 252.8 1383.8 Z" fill="#FFFFFF" opacity="0.215" /><path d="M 330.2 1163.9 L 2918.3 887.4 L 2918.3 1337.8 L 330.2 1614.3 Z" fill="#FFFFFF" opacity="0.139" /><path d="M 381.6 1423.1 L 2826.8 1146.6 L 2826.8 1636.7 L 381.6 1913.2 Z" fill="#FFFFFF" opacity="0.215" /><path d="M 293.4 1646.4 L 2853.9 1369.9 L 2853.9 1811.3 L 293.4 2087.7 Z" fill="#FFFFFF" opacity="0.198" /><path d="M 366.7 1874.7 L 2836.0 1598.2 L 2836.0 2055.7 L 366.7 2332.2 Z" fill="#FFFFFF" opacity="0.111" /><path d="M 175.0 2182.0 L 2702.1 1905.5 L 2702.1 2345.1 L 175.0 2621.6 Z" fill="#FFFFFF" opacity="0.238" /><path d="M 280.4 2408.7 L 2887.3 2132.2 L 2887.3 2581.6 L 280.4 2858.1 Z" fill="#FFFFFF" opacity="0.110" /></g>
  <g filter="url(#soft1037)"><g transform="rotate(-22.82 1536.0 1536.0)"><path d="M-368.6 514.9 C -225.8 569.4, -25.8 475.1, 107.5 516.9 C 250.4 516.3, 450.4 512.9, 583.7 476.6 C 726.5 480.6, 926.5 544.5, 1059.8 459.6 C 1202.7 476.8, 1402.7 557.7, 1536.0 476.1 C 1678.8 464.2, 1878.8 554.8, 2012.2 516.1 C 2155.0 516.2, 2355.0 513.5, 2488.3 555.4 C 2631.2 562.6, 2831.2 483.4, 2964.5 570.1 C 3107.3 557.9, 3307.3 475.4, 3440.6 551.3" fill="none" stroke="url(#ribbon1037)" stroke-width="58.4" stroke-linecap="round" stroke-opacity="0.120" /></g><g transform="rotate(-22.24 1536.0 1536.0)"><path d="M-368.6 739.6 C -241.7 696.0, -63.9 768.2, 54.6 678.3 C 181.6 682.7, 359.4 805.1, 477.9 688.8 C 604.8 672.5, 782.6 785.2, 901.1 730.2 C 1028.1 729.2, 1205.9 743.5, 1324.4 777.3 C 1451.3 773.5, 1629.1 727.7, 1747.6 801.5 C 1874.6 784.9, 2052.4 668.6, 2170.9 788.2 C 2297.9 782.8, 2475.6 684.7, 2594.1 745.4 C 2721.1 743.5, 2898.9 733.0, 3017.4 699.1 C 3144.4 706.1, 3322.1 756.0, 3440.6 677.4" fill="none" stroke="url(#ribbon1037)" stroke-width="54.4" stroke-linecap="round" stroke-opacity="0.146" /></g><g transform="rotate(-21.66 1536.0 1536.0)"><path d="M-368.6 885.5 C -254.4 952.3, -94.4 826.7, 12.3 954.8 C 126.6 964.3, 286.6 825.4, 393.2 931.1 C 507.5 916.5, 667.5 837.6, 774.1 879.7 C 888.4 880.6, 1048.4 888.2, 1155.1 831.9 C 1269.4 816.7, 1429.3 940.4, 1536.0 816.5 C 1650.3 803.7, 1810.3 964.9, 1916.9 843.0 C 2031.2 851.0, 2191.2 907.5, 2297.9 895.3 C 2412.1 898.7, 2572.1 880.9, 2678.8 941.6 C 2793.1 956.4, 2953.1 861.4, 3059.7 953.9 C 3174.0 959.7, 3334.0 808.7, 3440.6 924.7" fill="none" stroke="url(#ribbon1037)" stroke-width="50.4" stroke-linecap="round" stroke-opacity="0.172" /></g><g transform="rotate(-21.08 1536.0 1536.0)"><path d="M-368.6 1101.0 C -264.8 1140.1, -119.3 1077.0, -22.3 1069.5 C 81.5 1063.5, 227.0 1118.4, 324.0 1029.1 C 427.8 1039.4, 573.3 1153.5, 670.3 1032.3 C 774.1 1050.6, 919.6 1137.7, 1016.6 1077.3 C 1120.4 1076.6, 1265.9 1128.2, 1362.9 1136.6 C 1466.7 1124.2, 1612.2 1089.1, 1709.1 1174.4 C 1813.0 1197.7, 1958.5 1054.9, 2055.4 1167.7 C 2159.3 1190.5, 2304.8 1033.5, 2401.7 1120.5 C 2505.6 1124.1, 2651.1 1090.0, 2748.0 1061.5 C 2851.9 1072.3, 2997.4 1129.1, 3094.3 1026.5 C 3198.2 1043.3, 3343.7 1143.2, 3440.6 1036.7" fill="none" stroke="url(#ribbon1037)" stroke-width="46.4" stroke-linecap="round" stroke-opacity="0.198" /></g><g transform="rotate(-20.50 1536.0 1536.0)"><path d="M-368.6 1253.4 C -273.4 1187.7, -140.1 1329.3, -51.2 1189.1 C 44.0 1185.6, 177.4 1288.0, 266.2 1246.9 C 361.5 1247.2, 494.8 1258.1, 583.7 1308.6 C 678.9 1313.6, 812.2 1211.1, 901.1 1336.9 C 996.4 1315.9, 1129.7 1203.5, 1218.6 1314.5 C 1313.8 1311.9, 1447.1 1224.2, 1536.0 1255.0 C 1631.2 1255.7, 1764.6 1252.3, 1853.4 1194.6 C 1948.7 1209.6, 2082.0 1287.0, 2170.9 1169.8 C 2266.1 1158.9, 2399.4 1311.5, 2488.3 1195.8 C 2583.6 1217.5, 2716.9 1276.5, 2805.8 1256.6 C 2901.0 1255.7, 3034.3 1252.0, 3123.2 1315.6 C 3218.4 1318.6, 3351.8 1194.4, 3440.6 1336.8" fill="none" stroke="url(#ribbon1037)" stroke-width="42.4" stroke-linecap="round" stroke-opacity="0.224" /></g><g transform="rotate(-19.92 1536.0 1536.0)"><path d="M-368.6 1528.5 C -225.8 1593.2, -25.8 1428.4, 107.5 1603.1 C 250.4 1573.8, 450.4 1474.8, 583.7 1543.5 C 726.5 1538.8, 926.5 1517.3, 1059.8 1474.9 C 1202.7 1476.0, 1402.7 1556.3, 1536.0 1438.7 C 1678.8 1410.2, 1878.8 1581.8, 2012.2 1457.0 C 2155.0 1462.3, 2355.0 1611.9, 2488.3 1518.7 C 2631.2 1517.0, 2831.2 1538.5, 2964.5 1586.3 C 3107.3 1580.6, 3307.3 1504.8, 3440.6 1618.8" fill="none" stroke="url(#ribbon1037)" stroke-width="38.4" stroke-linecap="round" stroke-opacity="0.250" /></g><g transform="rotate(-19.34 1536.0 1536.0)"><path d="M-368.6 1641.2 C -241.7 1715.3, -63.9 1580.7, 54.6 1621.7 C 181.6 1618.3, 359.4 1656.5, 477.9 1558.9 C 604.8 1530.7, 782.6 1700.3, 901.1 1546.1 C 1028.1 1550.0, 1205.9 1750.3, 1324.4 1591.0 C 1451.3 1577.6, 1629.1 1684.5, 1747.6 1666.3 C 1874.6 1675.5, 2052.4 1627.5, 2170.9 1726.4 C 2297.9 1728.2, 2475.6 1601.2, 2594.1 1734.9 C 2721.1 1746.1, 2898.9 1559.8, 3017.4 1686.5 C 3144.4 1681.2, 3322.1 1612.9, 3440.6 1610.7" fill="none" stroke="url(#ribbon1037)" stroke-width="34.4" stroke-linecap="round" stroke-opacity="0.276" /></g><g transform="rotate(-18.76 1536.0 1536.0)"><path d="M-368.6 1912.5 C -254.4 2000.1, -94.4 1875.9, 12.3 2013.2 C 126.6 2042.0, 286.6 1875.5, 393.2 1962.1 C 507.5 1968.3, 667.5 1892.3, 774.1 1880.9 C 888.4 1887.5, 1048.4 1937.7, 1155.1 1818.8 C 1269.4 1829.6, 1429.3 2014.5, 1536.0 1813.5 C 1650.3 1830.6, 1810.3 1993.0, 1916.9 1868.3 C 2031.2 1874.8, 2191.2 1927.9, 2297.9 1949.8 C 2412.1 1940.2, 2572.1 1886.0, 2678.8 2008.7 C 2793.1 1986.7, 2953.1 1869.4, 3059.7 2009.2 C 3174.0 1989.5, 3334.0 1818.1, 3440.6 1951.0" fill="none" stroke="url(#ribbon1037)" stroke-width="30.4" stroke-linecap="round" stroke-opacity="0.302" /></g><g transform="rotate(-18.18 1536.0 1536.0)"><path d="M-368.6 2053.2 C -264.8 2130.1, -119.3 1979.1, -22.3 2164.7 C 81.5 2206.7, 227.0 1994.4, 324.0 2136.6 C 427.8 2115.4, 573.3 2028.1, 670.3 2057.9 C 774.1 2059.3, 919.6 2047.7, 1016.6 1976.3 C 1120.4 1954.2, 1265.9 2117.8, 1362.9 1941.3 C 1466.7 1928.5, 1612.2 2173.1, 1709.1 1974.2 C 1813.0 1957.9, 1958.5 2127.2, 2055.4 2055.0 C 2159.3 2054.6, 2304.8 2052.2, 2401.7 2134.6 C 2505.6 2114.2, 2651.1 1974.8, 2748.0 2164.9 C 2851.9 2124.3, 2997.4 1988.5, 3094.3 2127.3 C 3198.2 2098.7, 3343.7 2009.3, 3440.6 2044.8" fill="none" stroke="url(#ribbon1037)" stroke-width="26.4" stroke-linecap="round" stroke-opacity="0.328" /></g><g transform="rotate(-17.60 1536.0 1536.0)"><path d="M-368.6 2291.8 C -273.4 2445.9, -140.1 2183.1, -51.2 2400.3 C 44.0 2360.7, 177.4 2257.2, 266.2 2332.6 C 361.5 2336.3, 494.8 2271.5, 583.7 2240.2 C 678.9 2221.6, 812.2 2328.0, 901.1 2179.0 C 996.4 2183.9, 1129.7 2365.4, 1218.6 2186.3 C 1313.8 2195.4, 1447.1 2350.4, 1536.0 2257.5 C 1631.2 2269.2, 1764.6 2313.7, 1853.4 2349.6 C 1948.7 2356.0, 2082.0 2258.2, 2170.9 2406.6 C 2266.1 2360.8, 2399.4 2169.8, 2488.3 2394.0 C 2583.6 2363.3, 2716.9 2226.9, 2805.8 2319.4 C 2901.0 2312.2, 3034.3 2261.6, 3123.2 2228.0 C 3218.4 2249.0, 3351.8 2324.5, 3440.6 2175.4" fill="none" stroke="url(#ribbon1037)" stroke-width="22.4" stroke-linecap="round" stroke-opacity="0.354" /></g><g transform="rotate(-17.02 1536.0 1536.0)"><path d="M-368.6 2402.5 C -225.8 2406.1, -25.8 2398.4, 107.5 2495.3 C 250.4 2481.3, 450.4 2354.5, 583.7 2528.2 C 726.5 2492.2, 926.5 2292.1, 1059.8 2484.9 C 1202.7 2491.9, 1402.7 2351.5, 1536.0 2391.6 C 1678.8 2390.9, 1878.8 2414.0, 2012.2 2304.9 C 2155.0 2343.4, 2355.0 2473.3, 2488.3 2277.4 C 2631.2 2253.5, 2831.2 2446.3, 2964.5 2325.8 C 3107.3 2354.1, 3307.3 2479.6, 3440.6 2420.7" fill="none" stroke="url(#ribbon1037)" stroke-width="18.4" stroke-linecap="round" stroke-opacity="0.380" /></g><g transform="rotate(-16.44 1536.0 1536.0)"><path d="M-368.6 2611.1 C -241.7 2601.2, -63.9 2614.9, 54.6 2698.9 C 181.6 2665.7, 359.4 2540.4, 477.9 2744.0 C 604.8 2787.7, 782.6 2552.3, 901.1 2708.5 C 1028.1 2718.9, 1205.9 2504.8, 1324.4 2614.0 C 1451.3 2615.0, 1629.1 2608.5, 1747.6 2517.7 C 1874.6 2552.1, 2052.4 2686.3, 2170.9 2478.1 C 2297.9 2441.3, 2475.6 2738.5, 2594.1 2519.2 C 2721.1 2485.2, 2898.9 2654.8, 3017.4 2616.1 C 3144.4 2617.6, 3322.1 2605.9, 3440.6 2709.9" fill="none" stroke="url(#ribbon1037)" stroke-width="14.4" stroke-linecap="round" stroke-opacity="0.406" /></g></g>
  <g><ellipse cx="1536.0" cy="1551.9" rx="728.6" ry="605.7" fill="url(#extrude1037)" opacity="0.220" /><ellipse cx="1536.0" cy="1567.7" rx="736.0" ry="610.9" fill="url(#extrude1037)" opacity="0.205" /><ellipse cx="1536.0" cy="1583.6" rx="743.4" ry="616.1" fill="url(#extrude1037)" opacity="0.190" /><ellipse cx="1536.0" cy="1599.5" rx="750.9" ry="621.3" fill="url(#extrude1037)" opacity="0.175" /><ellipse cx="1536.0" cy="1615.4" rx="758.3" ry="626.5" fill="url(#extrude1037)" opacity="0.160" /><ellipse cx="1536.0" cy="1631.2" rx="765.7" ry="631.7" fill="url(#extrude1037)" opacity="0.145" /><ellipse cx="1536.0" cy="1647.1" rx="773.2" ry="636.9" fill="url(#extrude1037)" opacity="0.130" /><ellipse cx="1536.0" cy="1663.0" rx="780.6" ry="642.1" fill="url(#extrude1037)" opacity="0.115" /><ellipse cx="1536.0" cy="1678.8" rx="788.0" ry="647.4" fill="url(#extrude1037)" opacity="0.100" /><ellipse cx="1536.0" cy="1694.7" rx="795.5" ry="652.6" fill="url(#extrude1037)" opacity="0.085" /><ellipse cx="1536.0" cy="1710.6" rx="802.9" ry="657.8" fill="url(#extrude1037)" opacity="0.070" /><ellipse cx="1536.0" cy="1726.5" rx="810.3" ry="663.0" fill="url(#extrude1037)" opacity="0.055" /></g>
  <ellipse cx="1536.0" cy="1726.5" rx="773.2" ry="214.9" fill="#0B1D2D" opacity="0.24" />
  <ellipse cx="1536.0" cy="1536.0" rx="743.4" ry="651.3" fill="url(#orb1037)" stroke="#FFFFFF" stroke-opacity="0.42" stroke-width="7" />
  <ellipse cx="1431.9" cy="1392.7" rx="505.5" ry="299.6" fill="#FFFFFF" opacity="0.25" />
  <path d="M 199.4 399.4 C 1013.8 -30.7, 2058.2 768.0, 2872.6 215.0 L 2872.6 983.0 C 2089.0 1228.8, 1013.8 307.2, 199.4 1167.4 Z" fill="url(#glass1037)" />
  <rect x="270" y="270" width="2532" height="2532" rx="430" fill="none" stroke="#FFFFFF" stroke-opacity="0.30" stroke-width="5" />
  <rect x="288.4" y="288.4" width="2495.1" height="2495.1" rx="399" fill="none" stroke="#3B82FF" stroke-opacity="0.35" stroke-width="3" />
  <g filter="url(#soft1037)"><rect x="2612" y="2351" width="52" height="2" fill="#FFFFFF" opacity="0.488" /><rect x="2637" y="2326" width="2" height="52" fill="#FFFFFF" opacity="0.488" /><rect x="1858" y="2177" width="32" height="2" fill="#FFFFFF" opacity="0.355" /><rect x="1873" y="2162" width="2" height="32" fill="#FFFFFF" opacity="0.355" /><rect x="2176" y="2631" width="48" height="2" fill="#FFFFFF" opacity="0.550" /><rect x="2199" y="2608" width="2" height="48" fill="#FFFFFF" opacity="0.550" /><rect x="2426" y="2499" width="28" height="2" fill="#FFFFFF" opacity="0.479" /><rect x="2439" y="2486" width="2" height="28" fill="#FFFFFF" opacity="0.479" /><rect x="2462" y="2562" width="42" height="2" fill="#FFFFFF" opacity="0.846" /><rect x="2482" y="2542" width="2" height="42" fill="#FFFFFF" opacity="0.846" /><rect x="1658" y="2592" width="34" height="2" fill="#FFFFFF" opacity="0.707" /><rect x="1674" y="2576" width="2" height="34" fill="#FFFFFF" opacity="0.707" /><rect x="2337" y="900" width="30" height="2" fill="#FFFFFF" opacity="0.841" /><rect x="2351" y="886" width="2" height="30" fill="#FFFFFF" opacity="0.841" /><rect x="2160" y="769" width="36" height="2" fill="#FFFFFF" opacity="0.664" /><rect x="2177" y="752" width="2" height="36" fill="#FFFFFF" opacity="0.664" /><rect x="2393" y="936" width="26" height="2" fill="#FFFFFF" opacity="0.316" /><rect x="2405" y="924" width="2" height="26" fill="#FFFFFF" opacity="0.316" /><rect x="1858" y="899" width="26" height="2" fill="#FFFFFF" opacity="0.374" /><rect x="1870" y="887" width="2" height="26" fill="#FFFFFF" opacity="0.374" /><rect x="2570" y="2021" width="26" height="2" fill="#FFFFFF" opacity="0.617" /><rect x="2582" y="2009" width="2" height="26" fill="#FFFFFF" opacity="0.617" /><rect x="466" y="1168" width="62" height="2" fill="#FFFFFF" opacity="0.504" /><rect x="496" y="1138" width="2" height="62" fill="#FFFFFF" opacity="0.504" /><rect x="1144" y="1952" width="80" height="2" fill="#FFFFFF" opacity="0.303" /><rect x="1183" y="1913" width="2" height="80" fill="#FFFFFF" opacity="0.303" /><rect x="2481" y="1271" width="38" height="2" fill="#FFFFFF" opacity="0.847" /><rect x="2499" y="1253" width="2" height="38" fill="#FFFFFF" opacity="0.847" /><rect x="306" y="2664" width="76" height="2" fill="#FFFFFF" opacity="0.595" /><rect x="343" y="2627" width="2" height="76" fill="#FFFFFF" opacity="0.595" /><rect x="1136" y="314" width="58" height="2" fill="#FFFFFF" opacity="0.348" /><rect x="1164" y="286" width="2" height="58" fill="#FFFFFF" opacity="0.348" /><rect x="296" y="1599" width="74" height="2" fill="#FFFFFF" opacity="0.811" /><rect x="332" y="1563" width="2" height="74" fill="#FFFFFF" opacity="0.811" /><rect x="1928" y="533" width="80" height="2" fill="#FFFFFF" opacity="0.337" /><rect x="1967" y="494" width="2" height="80" fill="#FFFFFF" opacity="0.337" /><rect x="297" y="1484" width="24" height="2" fill="#FFFFFF" opacity="0.312" /><rect x="308" y="1473" width="2" height="24" fill="#FFFFFF" opacity="0.312" /><rect x="1964" y="1731" width="52" height="2" fill="#FFFFFF" opacity="0.503" /><rect x="1989" y="1706" width="2" height="52" fill="#FFFFFF" opacity="0.503" /><rect x="459" y="760" width="52" height="2" fill="#FFFFFF" opacity="0.336" /><rect x="484" y="735" width="2" height="52" fill="#FFFFFF" opacity="0.336" /><rect x="952" y="1542" width="70" height="2" fill="#FFFFFF" opacity="0.815" /><rect x="986" y="1508" width="2" height="70" fill="#FFFFFF" opacity="0.815" /><rect x="649" y="2419" width="66" height="2" fill="#FFFFFF" opacity="0.776" /><rect x="681" y="2387" width="2" height="66" fill="#FFFFFF" opacity="0.776" /><rect x="1233" y="1513" width="82" height="2" fill="#FFFFFF" opacity="0.591" /><rect x="1273" y="1473" width="2" height="82" fill="#FFFFFF" opacity="0.591" /><rect x="2786" y="960" width="42" height="2" fill="#FFFFFF" opacity="0.716" /><rect x="2806" y="940" width="2" height="42" fill="#FFFFFF" opacity="0.716" /><rect x="1452" y="1384" width="42" height="2" fill="#FFFFFF" opacity="0.762" /><rect x="1472" y="1364" width="2" height="42" fill="#FFFFFF" opacity="0.762" /></g>
  <g opacity="0.52"><rect x="1023" y="1121" width="1152" height="1024" rx="153" fill="none" stroke="#0C2030" stroke-width="90" /><line x1="1023" y1="1326" x2="2148" y2="1326" stroke="#0C2030" stroke-width="90" /><line x1="1316" y1="1033" x2="1316" y2="1121" stroke="#0C2030" stroke-width="90" /><line x1="1828" y1="1033" x2="1828" y2="1121" stroke="#0C2030" stroke-width="90" /></g>
  <g filter="url(#soft1037)"><rect x="987" y="1075" width="1152" height="1024" rx="153" fill="none" stroke="url(#symbol1037)" stroke-width="90" /><line x1="987" y1="1280" x2="2112" y2="1280" stroke="url(#symbol1037)" stroke-width="90" /><line x1="1280" y1="987" x2="1280" y2="1075" stroke="url(#symbol1037)" stroke-width="90" /><line x1="1792" y1="987" x2="1792" y2="1075" stroke="url(#symbol1037)" stroke-width="90" /></g>
  <rect x="138" y="138" width="2796" height="2796" rx="629" fill="#FFFFFF" filter="url(#grain1037)" opacity="0.18" />
</svg>
