<svg xmlns="http://www.w3.org/2000/svg" width="3072" height="3072" viewBox="0 0 3072 3072">
  <title>QuartzOS System Icon 063 - volume_04</title>
  <defs><linearGradient id="bg1062" x1="0%" y1="0%" x2="100%" y2="100%"><stop offset="0%" stop-color="#FFD84D" /><stop offset="26%" stop-color="#36D1FF" /><stop offset="56%" stop-color="#8A5CFF" /><stop offset="78%" stop-color="#4B91A3" /><stop offset="100%" stop-color="#1A2630" /></linearGradient><radialGradient id="sun1062" cx="46%" cy="22%" r="88%"><stop offset="0%" stop-color="#FFFFFF" stop-opacity="0.62" /><stop offset="30%" stop-color="#FF6AB3" stop-opacity="0.35" /><stop offset="100%" stop-color="#FF6AB3" stop-opacity="0" /></radialGradient><linearGradient id="glass1062" x1="0%" y1="0%" x2="0%" y2="100%"><stop offset="0%" stop-color="#FFFFFF" stop-opacity="0.70" /><stop offset="46%" stop-color="#FFFFFF" stop-opacity="0.26" /><stop offset="100%" stop-color="#FFFFFF" stop-opacity="0.00" /></linearGradient><linearGradient id="ribbon1062" x1="0%" y1="0%" x2="100%" y2="0%"><stop offset="0%" stop-color="#FFD84D" stop-opacity="0.18" /><stop offset="34%" stop-color="#36D1FF" stop-opacity="0.72" /><stop offset="66%" stop-color="#8A5CFF" stop-opacity="0.72" /><stop offset="100%" stop-color="#FF6AB3" stop-opacity="0.18" /></linearGradient><radialGradient id="orb1062" cx="34%" cy="27%" r="74%"><stop offset="0%" stop-color="#FFFFFF" stop-opacity="0.84" /><stop offset="30%" stop-color="#FFD84D" stop-opacity="0.52" /><stop offset="68%" stop-color="#36D1FF" stop-opacity="0.42" /><stop offset="100%" stop-color="#8A5CFF" stop-opacity="0.20" /></radialGradient><linearGradient id="extrude1062" x1="0%" y1="0%" x2="0%" y2="100%"><stop offset="0%" stop-color="#15283C" stop-opacity="0.45" /><stop offset="100%" stop-color="#08131D" stop-opacity="0.06" /></linearGradient><linearGradient id="symbol1062" x1="0%" y1="0%" x2="100%" y2="100%"><stop offset="0%" stop-color="#FFFFFF" /><stop offset="100%" stop-color="#FF6AB3" /></linearGradient><filter id="shadow1062" x="-40%" y="-40%" width="180%" height="180%"><feDropShadow dx="0" dy="49" stdDeviation="86" flood-color="#06111A" flood-opacity="0.54" /></filter><filter id="soft1062" x="-40%" y="-40%" width="180%" height="180%"><feDropShadow dx="0" dy="0" stdDeviation="14" flood-color="#FFD84D" flood-opacity="0.45" /></filter><filter id="grain1062"><feTurbulence type="fractalNoise" baseFrequency="0.890" numOctaves="2" seed="1062" /><feColorMatrix type="saturate" values="0" /><feComponentTransfer><feFuncA type="table" tableValues="0 0.09" /></feComponentTransfer></filter></defs>
  <rect x="138" y="138" width="2796" height="2796" rx="629" fill="url(#bg1062)" filter="url(#shadow1062)" />
  <rect x="138" y="138" width="2796" height="2796" rx="629" fill="url(#sun1062)" />
  <g><circle cx="1115" cy="2625" r="73" fill="#FFFFFF" opacity="0.197" /><circle cx="1764" cy="1685" r="45" fill="#FFFFFF" opacity="0.221" /><circle cx="1825" cy="1354" r="147" fill="#FFFFFF" opacity="0.204" /><circle cx="2008" cy="2254" r="56" fill="#FFFFFF" opacity="0.211" /><circle cx="406" cy="1034" r="100" fill="#FFFFFF" opacity="0.165" /><circle cx="1248" cy="1306" r="67" fill="#FFFFFF" opacity="0.082" /><circle cx="2378" cy="835" r="59" fill="#FFFFFF" opacity="0.185" /><circle cx="1494" cy="2490" r="52" fill="#FFFFFF" opacity="0.179" /><circle cx="1038" cy="1239" r="127" fill="#FFFFFF" opacity="0.232" /><circle cx="1562" cy="667" r="54" fill="#FFFFFF" opacity="0.148" /><circle cx="1984" cy="510" r="126" fill="#FFFFFF" opacity="0.101" /><circle cx="2410" cy="322" r="45" fill="#FFFFFF" opacity="0.224" /><circle cx="1080" cy="2685" r="128" fill="#FFFFFF" opacity="0.153" /><circle cx="942" cy="2368" r="102" fill="#FFFFFF" opacity="0.071" /><circle cx="2268" cy="1168" r="83" fill="#FFFFFF" opacity="0.125" /><circle cx="2630" cy="2485" r="155" fill="#FFFFFF" opacity="0.184" /><circle cx="498" cy="2599" r="133" fill="#FFFFFF" opacity="0.168" /><circle cx="1605" cy="991" r="61" fill="#FFFFFF" opacity="0.117" /><circle cx="2160" cy="2354" r="125" fill="#FFFFFF" opacity="0.132" /><circle cx="578" cy="2676" r="103" fill="#FFFFFF" opacity="0.181" /><circle cx="1306" cy="333" r="58" fill="#FFFFFF" opacity="0.165" /><circle cx="554" cy="1816" r="95" fill="#FFFFFF" opacity="0.142" /><circle cx="372" cy="1920" r="115" fill="#FFFFFF" opacity="0.120" /><circle cx="2375" cy="2673" r="145" fill="#FFFFFF" opacity="0.133" /><circle cx="702" cy="1714" r="136" fill="#FFFFFF" opacity="0.087" /><circle cx="1394" cy="1209" r="138" fill="#FFFFFF" opacity="0.187" /><circle cx="2550" cy="370" r="153" fill="#FFFFFF" opacity="0.086" /><circle cx="978" cy="2299" r="153" fill="#FFFFFF" opacity="0.176" /></g>
  <g><path d="M 301.4 575.9 L 2866.2 299.4 L 2866.2 769.1 L 301.4 1045.6 Z" fill="#FFFFFF" opacity="0.087" /><path d="M 239.7 838.5 L 2839.8 562.0 L 2839.8 981.2 L 239.7 1257.6 Z" fill="#FFFFFF" opacity="0.087" /><path d="M 176.7 1170.8 L 2851.4 894.3 L 2851.4 1347.5 L 176.7 1624.0 Z" fill="#FFFFFF" opacity="0.111" /><path d="M 167.5 1409.6 L 2777.9 1133.1 L 2777.9 1616.2 L 167.5 1892.7 Z" fill="#FFFFFF" opacity="0.141" /><path d="M 214.2 1639.6 L 2803.4 1363.1 L 2803.4 1824.5 L 214.2 2101.0 Z" fill="#FFFFFF" opacity="0.207" /><path d="M 307.8 1927.8 L 2716.0 1651.3 L 2716.0 2074.7 L 307.8 2351.2 Z" fill="#FFFFFF" opacity="0.169" /><path d="M 252.9 2140.5 L 2712.9 1864.1 L 2712.9 2307.0 L 252.9 2583.5 Z" fill="#FFFFFF" opacity="0.091" /><path d="M 289.5 2480.0 L 2701.7 2203.5 L 2701.7 2653.0 L 289.5 2929.5 Z" fill="#FFFFFF" opacity="0.176" /></g>
  <g filter="url(#soft1062)"><g transform="rotate(-4.68 1536.0 1536.0)"><path d="M-368.6 467.7 C -225.8 491.3, -25.8 430.2, 107.5 522.9 C 250.4 524.3, 450.4 421.1, 583.7 508.1 C 726.5 499.9, 926.5 440.1, 1059.8 468.8 C 1202.7 469.0, 1402.7 466.9, 1536.0 428.8 C 1678.8 432.1, 1878.8 493.3, 2012.2 412.4 C 2155.0 422.3, 2355.0 514.2, 2488.3 429.5 C 2631.2 435.0, 2831.2 494.8, 2964.5 469.8 C 3107.3 469.3, 3307.3 466.6, 3440.6 508.8" fill="none" stroke="url(#ribbon1062)" stroke-width="58.4" stroke-linecap="round" stroke-opacity="0.120" /></g><g transform="rotate(-4.10 1536.0 1536.0)"><path d="M-368.6 765.8 C -241.7 754.6, -63.9 770.8, 54.6 798.2 C 181.6 803.8, 359.4 745.2, 477.9 826.6 C 604.8 838.7, 782.6 729.9, 901.1 818.2 C 1028.1 834.1, 1205.9 732.3, 1324.4 777.9 C 1451.3 781.7, 1629.1 755.6, 1747.6 730.4 C 1874.6 721.7, 2052.4 791.6, 2170.9 704.3 C 2297.9 679.8, 2475.6 815.7, 2594.1 715.6 C 2721.1 723.2, 2898.9 792.3, 3017.4 757.3 C 3144.4 757.6, 3322.1 770.0, 3440.6 804.2" fill="none" stroke="url(#ribbon1062)" stroke-width="54.4" stroke-linecap="round" stroke-opacity="0.146" /></g><g transform="rotate(-3.52 1536.0 1536.0)"><path d="M-368.6 876.6 C -254.4 830.7, -94.4 897.8, 12.3 822.8 C 126.6 817.3, 286.6 909.7, 393.2 870.6 C 507.5 872.3, 667.5 880.5, 774.1 922.1 C 888.4 906.6, 1048.4 840.1, 1155.1 945.9 C 1269.4 935.6, 1429.3 849.0, 1536.0 927.8 C 1650.3 937.9, 1810.3 854.7, 1916.9 878.6 C 2031.2 878.7, 2191.2 875.4, 2297.9 828.2 C 2412.1 837.5, 2572.1 918.0, 2678.8 807.2 C 2793.1 790.2, 2953.1 921.1, 3059.7 828.3 C 3174.0 831.6, 3334.0 908.9, 3440.6 878.7" fill="none" stroke="url(#ribbon1062)" stroke-width="50.4" stroke-linecap="round" stroke-opacity="0.172" /></g><g transform="rotate(-2.94 1536.0 1536.0)"><path d="M-368.6 1068.7 C -264.8 1047.6, -119.3 1090.2, -22.3 1104.3 C 81.5 1114.8, 227.0 1040.0, 324.0 1142.0 C 427.8 1163.9, 573.3 988.2, 670.3 1135.2 C 774.1 1128.2, 919.6 1017.7, 1016.6 1088.0 C 1120.4 1090.2, 1265.9 1052.6, 1362.9 1029.1 C 1466.7 1038.4, 1612.2 1095.0, 1709.1 994.1 C 1813.0 973.4, 1958.5 1157.2, 2055.4 1004.4 C 2159.3 1025.9, 2304.8 1144.4, 2401.7 1053.6 C 2505.6 1054.3, 2651.1 1076.5, 2748.0 1112.0 C 2851.9 1128.2, 2997.4 1054.8, 3094.3 1144.1 C 3198.2 1163.9, 3343.7 1005.6, 3440.6 1130.4" fill="none" stroke="url(#ribbon1062)" stroke-width="46.4" stroke-linecap="round" stroke-opacity="0.198" /></g><g transform="rotate(-2.36 1536.0 1536.0)"><path d="M-368.6 1308.7 C -273.4 1350.7, -140.1 1279.3, -51.2 1386.3 C 44.0 1390.7, 177.4 1234.2, 266.2 1385.1 C 361.5 1396.3, 494.8 1223.9, 583.7 1337.6 C 678.9 1332.4, 812.2 1292.8, 901.1 1272.6 C 996.4 1259.8, 1129.7 1327.1, 1218.6 1229.5 C 1313.8 1239.0, 1447.1 1372.5, 1536.0 1234.5 C 1631.2 1230.8, 1764.6 1351.9, 1853.4 1284.5 C 1948.7 1286.8, 2082.0 1324.5, 2170.9 1349.2 C 2266.1 1352.2, 2399.4 1275.5, 2488.3 1389.4 C 2583.6 1358.8, 2716.9 1268.3, 2805.8 1380.6 C 2901.0 1359.8, 3034.3 1259.6, 3123.2 1328.2 C 3218.4 1332.2, 3351.8 1295.2, 3440.6 1264.0" fill="none" stroke="url(#ribbon1062)" stroke-width="42.4" stroke-linecap="round" stroke-opacity="0.224" /></g><g transform="rotate(-1.78 1536.0 1536.0)"><path d="M-368.6 1506.8 C -225.8 1620.1, -25.8 1427.8, 107.5 1591.6 C 250.4 1566.8, 450.4 1476.8, 583.7 1542.8 C 726.5 1533.6, 926.5 1482.9, 1059.8 1472.2 C 1202.7 1470.6, 1402.7 1532.1, 1536.0 1422.6 C 1678.8 1434.4, 1878.8 1572.4, 2012.2 1424.1 C 2155.0 1444.4, 2355.0 1557.8, 2488.3 1475.8 C 2631.2 1471.1, 2831.2 1525.5, 2964.5 1546.3 C 3107.3 1555.5, 3307.3 1484.1, 3440.6 1592.8" fill="none" stroke="url(#ribbon1062)" stroke-width="38.4" stroke-linecap="round" stroke-opacity="0.250" /></g><g transform="rotate(-1.20 1536.0 1536.0)"><path d="M-368.6 1726.4 C -241.7 1782.6, -63.9 1625.9, 54.6 1816.6 C 181.6 1821.7, 359.4 1691.1, 477.9 1762.2 C 604.8 1756.3, 782.6 1705.1, 901.1 1686.2 C 1028.1 1680.4, 1205.9 1762.7, 1324.4 1634.5 C 1451.3 1603.6, 1629.1 1757.8, 1747.6 1638.6 C 1874.6 1654.4, 2052.4 1808.5, 2170.9 1696.0 C 2297.9 1697.3, 2475.6 1750.3, 2594.1 1771.8 C 2721.1 1784.0, 2898.9 1705.4, 3017.4 1820.1 C 3144.4 1818.5, 3322.1 1694.5, 3440.6 1811.6" fill="none" stroke="url(#ribbon1062)" stroke-width="34.4" stroke-linecap="round" stroke-opacity="0.276" /></g><g transform="rotate(-0.62 1536.0 1536.0)"><path d="M-368.6 1824.2 C -254.4 1880.3, -94.4 1749.4, 12.3 1929.0 C 126.6 1934.0, 286.6 1740.8, 393.2 1898.2 C 507.5 1914.7, 667.5 1767.4, 774.1 1822.5 C 888.4 1822.5, 1048.4 1825.8, 1155.1 1747.9 C 1269.4 1733.4, 1429.3 1887.5, 1536.0 1719.6 C 1650.3 1722.4, 1810.3 1873.2, 1916.9 1754.7 C 2031.2 1740.5, 2191.2 1896.3, 2297.9 1832.0 C 2412.1 1834.7, 2572.1 1819.7, 2678.8 1904.6 C 2793.1 1874.5, 2953.1 1767.0, 3059.7 1928.4 C 3174.0 1929.2, 3334.0 1737.9, 3440.6 1889.0" fill="none" stroke="url(#ribbon1062)" stroke-width="30.4" stroke-linecap="round" stroke-opacity="0.302" /></g><g transform="rotate(-0.04 1536.0 1536.0)"><path d="M-368.6 2124.7 C -264.8 2129.9, -119.3 2119.2, -22.3 2049.3 C 81.5 2065.7, 227.0 2148.3, 324.0 2013.0 C 427.8 1990.3, 573.3 2201.6, 670.3 2044.4 C 774.1 2044.2, 919.6 2208.3, 1016.6 2124.6 C 1120.4 2124.6, 1265.9 2124.8, 1362.9 2204.8 C 1466.7 2235.0, 1612.2 2056.3, 1709.1 2236.5 C 1813.0 2278.0, 1958.5 2069.7, 2055.4 2200.4 C 2159.3 2206.3, 2304.8 2072.3, 2401.7 2118.4 C 2505.6 2118.8, 2651.1 2132.4, 2748.0 2040.2 C 2851.9 2061.3, 2997.4 2171.2, 3094.3 2013.3 C 3198.2 2057.5, 3343.7 2204.1, 3440.6 2054.0" fill="none" stroke="url(#ribbon1062)" stroke-width="26.4" stroke-linecap="round" stroke-opacity="0.328" /></g><g transform="rotate(0.54 1536.0 1536.0)"><path d="M-368.6 2207.6 C -273.4 2168.3, -140.1 2222.7, -51.2 2259.8 C 44.0 2245.9, 177.4 2163.3, 266.2 2320.5 C 361.5 2280.4, 494.8 2125.3, 583.7 2312.8 C 678.9 2293.9, 812.2 2112.4, 901.1 2241.2 C 996.4 2243.5, 1129.7 2173.2, 1218.6 2149.2 C 1313.8 2129.0, 1447.1 2267.9, 1536.0 2092.6 C 1631.2 2080.3, 1764.6 2314.5, 1853.4 2105.7 C 1948.7 2091.4, 2082.0 2277.9, 2170.9 2180.6 C 2266.1 2176.3, 2399.4 2227.4, 2488.3 2271.8 C 2583.6 2294.9, 2716.9 2144.3, 2805.8 2324.1 C 2901.0 2317.7, 3034.3 2111.7, 3123.2 2305.7 C 3218.4 2277.5, 3351.8 2143.4, 3440.6 2227.7" fill="none" stroke="url(#ribbon1062)" stroke-width="22.4" stroke-linecap="round" stroke-opacity="0.354" /></g><g transform="rotate(1.12 1536.0 1536.0)"><path d="M-368.6 2428.5 C -225.8 2413.4, -25.8 2436.7, 107.5 2324.5 C 250.4 2285.2, 450.4 2462.8, 583.7 2305.0 C 726.5 2352.5, 926.5 2572.2, 1059.8 2360.5 C 1202.7 2383.7, 1402.7 2500.7, 1536.0 2457.2 C 1678.8 2448.9, 1878.8 2408.4, 2012.2 2536.4 C 2155.0 2498.8, 2355.0 2351.0, 2488.3 2550.2 C 2631.2 2533.2, 2831.2 2308.4, 2964.5 2490.1 C 3107.3 2508.5, 3307.3 2357.5, 3440.6 2392.7" fill="none" stroke="url(#ribbon1062)" stroke-width="18.4" stroke-linecap="round" stroke-opacity="0.380" /></g><g transform="rotate(1.70 1536.0 1536.0)"><path d="M-368.6 2599.9 C -241.7 2522.3, -63.9 2670.9, 54.6 2472.7 C 181.6 2493.6, 359.4 2716.2, 477.9 2539.0 C 604.8 2525.2, 782.6 2646.7, 901.1 2642.3 C 1028.1 2638.6, 1205.9 2580.8, 1324.4 2719.9 C 1451.3 2677.8, 1629.1 2525.8, 1747.6 2724.7 C 1874.6 2697.3, 2052.4 2455.9, 2170.9 2653.9 C 2297.9 2656.4, 2475.6 2553.3, 2594.1 2550.3 C 2721.1 2565.9, 2898.9 2626.7, 3017.4 2476.8 C 3144.4 2469.1, 3322.1 2646.6, 3440.6 2478.1" fill="none" stroke="url(#ribbon1062)" stroke-width="14.4" stroke-linecap="round" stroke-opacity="0.406" /></g></g>
  <g><ellipse cx="1536.0" cy="1551.9" rx="728.6" ry="605.7" fill="url(#extrude1062)" opacity="0.220" /><ellipse cx="1536.0" cy="1567.7" rx="736.0" ry="610.9" fill="url(#extrude1062)" opacity="0.205" /><ellipse cx="1536.0" cy="1583.6" rx="743.4" ry="616.1" fill="url(#extrude1062)" opacity="0.190" /><ellipse cx="1536.0" cy="1599.5" rx="750.9" ry="621.3" fill="url(#extrude1062)" opacity="0.175" /><ellipse cx="1536.0" cy="1615.4" rx="758.3" ry="626.5" fill="url(#extrude1062)" opacity="0.160" /><ellipse cx="1536.0" cy="1631.2" rx="765.7" ry="631.7" fill="url(#extrude1062)" opacity="0.145" /><ellipse cx="1536.0" cy="1647.1" rx="773.2" ry="636.9" fill="url(#extrude1062)" opacity="0.130" /><ellipse cx="1536.0" cy="1663.0" rx="780.6" ry="642.1" fill="url(#extrude1062)" opacity="0.115" /><ellipse cx="1536.0" cy="1678.8" rx="788.0" ry="647.4" fill="url(#extrude1062)" opacity="0.100" /><ellipse cx="1536.0" cy="1694.7" rx="795.5" ry="652.6" fill="url(#extrude1062)" opacity="0.085" /><ellipse cx="1536.0" cy="1710.6" rx="802.9" ry="657.8" fill="url(#extrude1062)" opacity="0.070" /><ellipse cx="1536.0" cy="1726.5" rx="810.3" ry="663.0" fill="url(#extrude1062)" opacity="0.055" /></g>
  <ellipse cx="1536.0" cy="1726.5" rx="773.2" ry="214.9" fill="#0B1D2D" opacity="0.24" />
  <ellipse cx="1536.0" cy="1536.0" rx="743.4" ry="651.3" fill="url(#orb1062)" stroke="#FFFFFF" stroke-opacity="0.42" stroke-width="7" />
  <ellipse cx="1431.9" cy="1392.7" rx="505.5" ry="299.6" fill="#FFFFFF" opacity="0.25" />
  <path d="M 199.4 399.4 C 1013.8 -30.7, 2058.2 768.0, 2872.6 215.0 L 2872.6 983.0 C 2089.0 1228.8, 1013.8 307.2, 199.4 1167.4 Z" fill="url(#glass1062)" />
  <rect x="270" y="270" width="2532" height="2532" rx="430" fill="none" stroke="#FFFFFF" stroke-opacity="0.30" stroke-width="5" />
  <rect x="288.4" y="288.4" width="2495.1" height="2495.1" rx="399" fill="none" stroke="#FFD84D" stroke-opacity="0.35" stroke-width="3" />
  <g filter="url(#soft1062)"><rect x="1921" y="1007" width="62" height="2" fill="#FFFFFF" opacity="0.542" /><rect x="1951" y="977" width="2" height="62" fill="#FFFFFF" opacity="0.542" /><rect x="1462" y="1839" width="54" height="2" fill="#FFFFFF" opacity="0.479" /><rect x="1488" y="1813" width="2" height="54" fill="#FFFFFF" opacity="0.479" /><rect x="2338" y="766" width="84" height="2" fill="#FFFFFF" opacity="0.585" /><rect x="2379" y="725" width="2" height="84" fill="#FFFFFF" opacity="0.585" /><rect x="2240" y="2299" width="50" height="2" fill="#FFFFFF" opacity="0.771" /><rect x="2264" y="2275" width="2" height="50" fill="#FFFFFF" opacity="0.771" /><rect x="1491" y="592" width="76" height="2" fill="#FFFFFF" opacity="0.683" /><rect x="1528" y="555" width="2" height="76" fill="#FFFFFF" opacity="0.683" /><rect x="1798" y="2206" width="32" height="2" fill="#FFFFFF" opacity="0.782" /><rect x="1813" y="2191" width="2" height="32" fill="#FFFFFF" opacity="0.782" /><rect x="2796" y="2583" width="36" height="2" fill="#FFFFFF" opacity="0.568" /><rect x="2813" y="2566" width="2" height="36" fill="#FFFFFF" opacity="0.568" /><rect x="967" y="1610" width="68" height="2" fill="#FFFFFF" opacity="0.815" /><rect x="1000" y="1577" width="2" height="68" fill="#FFFFFF" opacity="0.815" /><rect x="2110" y="686" width="84" height="2" fill="#FFFFFF" opacity="0.347" /><rect x="2151" y="645" width="2" height="84" fill="#FFFFFF" opacity="0.347" /><rect x="2168" y="2429" width="52" height="2" fill="#FFFFFF" opacity="0.561" /><rect x="2193" y="2404" width="2" height="52" fill="#FFFFFF" opacity="0.561" /><rect x="2368" y="2037" width="44" height="2" fill="#FFFFFF" opacity="0.796" /><rect x="2389" y="2016" width="2" height="44" fill="#FFFFFF" opacity="0.796" /><rect x="2022" y="268" width="64" height="2" fill="#FFFFFF" opacity="0.781" /><rect x="2053" y="237" width="2" height="64" fill="#FFFFFF" opacity="0.781" /><rect x="786" y="592" width="56" height="2" fill="#FFFFFF" opacity="0.676" /><rect x="813" y="565" width="2" height="56" fill="#FFFFFF" opacity="0.676" /><rect x="2712" y="1588" width="36" height="2" fill="#FFFFFF" opacity="0.372" /><rect x="2729" y="1571" width="2" height="36" fill="#FFFFFF" opacity="0.372" /><rect x="2605" y="1304" width="58" height="2" fill="#FFFFFF" opacity="0.401" /><rect x="2633" y="1276" width="2" height="58" fill="#FFFFFF" opacity="0.401" /><rect x="1168" y="721" width="28" height="2" fill="#FFFFFF" opacity="0.320" /><rect x="1181" y="708" width="2" height="28" fill="#FFFFFF" opacity="0.320" /><rect x="2472" y="1623" width="78" height="2" fill="#FFFFFF" opacity="0.519" /><rect x="2510" y="1585" width="2" height="78" fill="#FFFFFF" opacity="0.519" /><rect x="1936" y="2389" width="46" height="2" fill="#FFFFFF" opacity="0.829" /><rect x="1958" y="2367" width="2" height="46" fill="#FFFFFF" opacity="0.829" /><rect x="2099" y="872" width="68" height="2" fill="#FFFFFF" opacity="0.504" /><rect x="2132" y="839" width="2" height="68" fill="#FFFFFF" opacity="0.504" /><rect x="504" y="1562" width="54" height="2" fill="#FFFFFF" opacity="0.396" /><rect x="530" y="1536" width="2" height="54" fill="#FFFFFF" opacity="0.396" /><rect x="855" y="2219" width="38" height="2" fill="#FFFFFF" opacity="0.598" /><rect x="873" y="2201" width="2" height="38" fill="#FFFFFF" opacity="0.598" /><rect x="2642" y="1243" width="82" height="2" fill="#FFFFFF" opacity="0.709" /><rect x="2682" y="1203" width="2" height="82" fill="#FFFFFF" opacity="0.709" /><rect x="2332" y="2213" width="48" height="2" fill="#FFFFFF" opacity="0.677" /><rect x="2355" y="2190" width="2" height="48" fill="#FFFFFF" opacity="0.677" /><rect x="1826" y="2725" width="78" height="2" fill="#FFFFFF" opacity="0.842" /><rect x="1864" y="2687" width="2" height="78" fill="#FFFFFF" opacity="0.842" /><rect x="1618" y="629" width="30" height="2" fill="#FFFFFF" opacity="0.511" /><rect x="1632" y="615" width="2" height="30" fill="#FFFFFF" opacity="0.511" /><rect x="2642" y="1018" width="70" height="2" fill="#FFFFFF" opacity="0.566" /><rect x="2676" y="984" width="2" height="70" fill="#FFFFFF" opacity="0.566" /></g>
  <g opacity="0.52"><path d="M996 1582 Q1572 1006, 2148 1582" fill="none" stroke="#0C2030" stroke-width="90" /><path d="M996 1801 Q1572 1198, 2148 1801" fill="none" stroke="#0C2030" stroke-width="88" opacity="0.9" /><path d="M996 1966 Q1572 1326, 2148 1966" fill="none" stroke="#0C2030" stroke-width="87" opacity="0.75" /></g>
  <g filter="url(#soft1062)"><path d="M960 1536 Q1536 960, 2112 1536" fill="none" stroke="url(#symbol1062)" stroke-width="90" /><path d="M960 1755 Q1536 1152, 2112 1755" fill="none" stroke="url(#symbol1062)" stroke-width="88" opacity="0.9" /><path d="M960 1920 Q1536 1280, 2112 1920" fill="none" stroke="url(#symbol1062)" stroke-width="87" opacity="0.75" /></g>
  <rect x="138" y="138" width="2796" height="2796" rx="629" fill="#FFFFFF" filter="url(#grain1062)" opacity="0.18" />
</svg>
