<svg xmlns="http://www.w3.org/2000/svg" width="3072" height="3072" viewBox="0 0 3072 3072">
  <title>QuartzOS System Icon 003 - volume_01</title>
  <defs><linearGradient id="bg1002" x1="0%" y1="0%" x2="100%" y2="100%"><stop offset="0%" stop-color="#3B82FF" /><stop offset="26%" stop-color="#FF6AB3" /><stop offset="56%" stop-color="#FFD84D" /><stop offset="78%" stop-color="#4B91A3" /><stop offset="100%" stop-color="#1A2630" /></linearGradient><radialGradient id="sun1002" cx="32%" cy="37%" r="88%"><stop offset="0%" stop-color="#FFFFFF" stop-opacity="0.62" /><stop offset="30%" stop-color="#53E3A6" stop-opacity="0.35" /><stop offset="100%" stop-color="#53E3A6" stop-opacity="0" /></radialGradient><linearGradient id="glass1002" x1="0%" y1="0%" x2="0%" y2="100%"><stop offset="0%" stop-color="#FFFFFF" stop-opacity="0.70" /><stop offset="46%" stop-color="#FFFFFF" stop-opacity="0.26" /><stop offset="100%" stop-color="#FFFFFF" stop-opacity="0.00" /></linearGradient><linearGradient id="ribbon1002" x1="0%" y1="0%" x2="100%" y2="0%"><stop offset="0%" stop-color="#3B82FF" stop-opacity="0.18" /><stop offset="34%" stop-color="#FF6AB3" stop-opacity="0.72" /><stop offset="66%" stop-color="#FFD84D" stop-opacity="0.72" /><stop offset="100%" stop-color="#53E3A6" stop-opacity="0.18" /></linearGradient><radialGradient id="orb1002" cx="34%" cy="27%" r="74%"><stop offset="0%" stop-color="#FFFFFF" stop-opacity="0.84" /><stop offset="30%" stop-color="#3B82FF" stop-opacity="0.52" /><stop offset="68%" stop-color="#FF6AB3" stop-opacity="0.42" /><stop offset="100%" stop-color="#FFD84D" stop-opacity="0.20" /></radialGradient><linearGradient id="extrude1002" x1="0%" y1="0%" x2="0%" y2="100%"><stop offset="0%" stop-color="#15283C" stop-opacity="0.45" /><stop offset="100%" stop-color="#08131D" stop-opacity="0.06" /></linearGradient><linearGradient id="symbol1002" x1="0%" y1="0%" x2="100%" y2="100%"><stop offset="0%" stop-color="#FFFFFF" /><stop offset="100%" stop-color="#53E3A6" /></linearGradient><filter id="shadow1002" x="-40%" y="-40%" width="180%" height="180%"><feDropShadow dx="0" dy="49" stdDeviation="86" flood-color="#06111A" flood-opacity="0.54" /></filter><filter id="soft1002" x="-40%" y="-40%" width="180%" height="180%"><feDropShadow dx="0" dy="0" stdDeviation="14" flood-color="#3B82FF" flood-opacity="0.45" /></filter><filter id="grain1002"><feTurbulence type="fractalNoise" baseFrequency="0.939" numOctaves="2" seed="1002" /><feColorMatrix type="saturate" values="0" /><feComponentTransfer><feFuncA type="table" tableValues="0 0.09" /></feComponentTransfer></filter></defs>
  <rect x="138" y="138" width="2796" height="2796" rx="629" fill="url(#bg1002)" filter="url(#shadow1002)" />
  <rect x="138" y="138" width="2796" height="2796" rx="629" fill="url(#sun1002)" />
  <g><circle cx="551" cy="1433" r="65" fill="#FFFFFF" opacity="0.234" /><circle cx="1220" cy="833" r="108" fill="#FFFFFF" opacity="0.231" /><circle cx="1868" cy="2622" r="106" fill="#FFFFFF" opacity="0.077" /><circle cx="1110" cy="1626" r="77" fill="#FFFFFF" opacity="0.210" /><circle cx="1707" cy="369" r="97" fill="#FFFFFF" opacity="0.223" /><circle cx="2363" cy="1106" r="81" fill="#FFFFFF" opacity="0.112" /><circle cx="1417" cy="1994" r="57" fill="#FFFFFF" opacity="0.196" /><circle cx="1673" cy="2404" r="77" fill="#FFFFFF" opacity="0.110" /><circle cx="1505" cy="1363" r="156" fill="#FFFFFF" opacity="0.180" /><circle cx="2354" cy="2509" r="73" fill="#FFFFFF" opacity="0.096" /><circle cx="2581" cy="1184" r="96" fill="#FFFFFF" opacity="0.091" /><circle cx="1936" cy="1762" r="64" fill="#FFFFFF" opacity="0.167" /><circle cx="1796" cy="1317" r="41" fill="#FFFFFF" opacity="0.139" /><circle cx="926" cy="920" r="44" fill="#FFFFFF" opacity="0.098" /><circle cx="1084" cy="1003" r="140" fill="#FFFFFF" opacity="0.191" /><circle cx="2378" cy="2571" r="86" fill="#FFFFFF" opacity="0.124" /><circle cx="1552" cy="647" r="114" fill="#FFFFFF" opacity="0.086" /><circle cx="2263" cy="2502" r="118" fill="#FFFFFF" opacity="0.158" /><circle cx="2683" cy="757" r="149" fill="#FFFFFF" opacity="0.187" /><circle cx="1003" cy="2194" r="143" fill="#FFFFFF" opacity="0.148" /><circle cx="1680" cy="433" r="134" fill="#FFFFFF" opacity="0.192" /><circle cx="1140" cy="1694" r="157" fill="#FFFFFF" opacity="0.130" /><circle cx="2304" cy="2592" r="70" fill="#FFFFFF" opacity="0.160" /><circle cx="483" cy="1620" r="133" fill="#FFFFFF" opacity="0.158" /><circle cx="500" cy="1976" r="67" fill="#FFFFFF" opacity="0.151" /><circle cx="1745" cy="2326" r="80" fill="#FFFFFF" opacity="0.105" /><circle cx="530" cy="1458" r="152" fill="#FFFFFF" opacity="0.106" /><circle cx="1308" cy="2614" r="41" fill="#FFFFFF" opacity="0.068" /></g>
  <g><path d="M 274.5 589.1 L 2918.5 312.6 L 2918.5 764.8 L 274.5 1041.2 Z" fill="#FFFFFF" opacity="0.157" /><path d="M 173.0 832.8 L 2738.3 556.4 L 2738.3 1009.9 L 173.0 1286.4 Z" fill="#FFFFFF" opacity="0.155" /><path d="M 290.8 1180.2 L 2842.7 903.7 L 2842.7 1394.0 L 290.8 1670.5 Z" fill="#FFFFFF" opacity="0.210" /><path d="M 225.6 1423.6 L 2846.2 1147.1 L 2846.2 1624.3 L 225.6 1900.8 Z" fill="#FFFFFF" opacity="0.150" /><path d="M 155.7 1616.7 L 2717.3 1340.3 L 2717.3 1790.2 L 155.7 2066.7 Z" fill="#FFFFFF" opacity="0.119" /><path d="M 149.4 1896.4 L 2793.3 1620.0 L 2793.3 2066.7 L 149.4 2343.2 Z" fill="#FFFFFF" opacity="0.113" /><path d="M 176.9 2146.9 L 2843.4 1870.4 L 2843.4 2357.7 L 176.9 2634.2 Z" fill="#FFFFFF" opacity="0.193" /><path d="M 281.9 2466.1 L 2695.4 2189.6 L 2695.4 2651.0 L 281.9 2927.5 Z" fill="#FFFFFF" opacity="0.083" /></g>
  <g filter="url(#soft1002)"><g transform="rotate(-16.87 1536.0 1536.0)"><path d="M-368.6 530.2 C -225.8 492.9, -25.8 555.3, 107.5 519.2 C 250.4 519.7, 450.4 537.8, 583.7 561.4 C 726.5 557.3, 926.5 499.9, 1059.8 584.7 C 1202.7 568.2, 1402.7 468.2, 1536.0 574.9 C 1678.8 564.5, 1878.8 494.9, 2012.2 538.0 C 2155.0 538.2, 2355.0 527.7, 2488.3 496.3 C 2631.2 485.1, 2831.2 550.9, 2964.5 475.2 C 3107.3 478.1, 3307.3 594.6, 3440.6 487.5" fill="none" stroke="url(#ribbon1002)" stroke-width="58.4" stroke-linecap="round" stroke-opacity="0.120" /></g><g transform="rotate(-16.29 1536.0 1536.0)"><path d="M-368.6 661.5 C -241.7 678.2, -63.9 655.4, 54.6 627.3 C 181.6 616.3, 359.4 678.7, 477.9 600.3 C 604.8 594.6, 782.6 734.6, 901.1 610.4 C 1028.1 609.5, 1205.9 719.2, 1324.4 651.6 C 1451.3 649.1, 1629.1 669.6, 1747.6 698.8 C 1874.6 707.5, 2052.4 633.0, 2170.9 723.4 C 2297.9 744.2, 2475.6 633.3, 2594.1 710.4 C 2721.1 693.4, 2898.9 628.2, 3017.4 667.8 C 3144.4 669.4, 3322.1 658.0, 3440.6 621.4" fill="none" stroke="url(#ribbon1002)" stroke-width="54.4" stroke-linecap="round" stroke-opacity="0.146" /></g><g transform="rotate(-15.71 1536.0 1536.0)"><path d="M-368.6 947.3 C -254.4 967.8, -94.4 931.8, 12.3 1009.1 C 126.6 1016.8, 286.6 874.2, 393.2 1013.1 C 507.5 990.6, 667.5 926.6, 774.1 977.1 C 888.4 977.8, 1048.4 912.4, 1155.1 923.1 C 1269.4 914.2, 1429.3 956.0, 1536.0 883.8 C 1650.3 866.8, 1810.3 968.8, 1916.9 883.0 C 2031.2 897.9, 2191.2 1015.6, 2297.9 921.2 C 2412.1 913.0, 2572.1 966.6, 2678.8 975.3 C 2793.1 980.0, 2953.1 920.4, 3059.7 1012.4 C 3174.0 991.7, 3334.0 898.9, 3440.6 1010.0" fill="none" stroke="url(#ribbon1002)" stroke-width="50.4" stroke-linecap="round" stroke-opacity="0.172" /></g><g transform="rotate(-15.13 1536.0 1536.0)"><path d="M-368.6 1054.3 C -264.8 1022.6, -119.3 1083.0, -22.3 982.1 C 81.5 1000.9, 227.0 1118.6, 324.0 985.9 C 427.8 979.6, 573.3 1119.5, 670.3 1031.2 C 774.1 1025.8, 919.6 1073.5, 1016.6 1090.5 C 1120.4 1079.7, 1265.9 1036.7, 1362.9 1127.9 C 1466.7 1143.2, 1612.2 1026.5, 1709.1 1120.6 C 1813.0 1104.8, 1958.5 989.1, 2055.4 1073.1 C 2159.3 1067.2, 2304.8 1042.3, 2401.7 1014.2 C 2505.6 1004.0, 2651.1 1083.2, 2748.0 979.7 C 2851.9 968.8, 2997.4 1138.7, 3094.3 990.4 C 3198.2 981.7, 3343.7 1098.8, 3440.6 1039.9" fill="none" stroke="url(#ribbon1002)" stroke-width="46.4" stroke-linecap="round" stroke-opacity="0.198" /></g><g transform="rotate(-14.55 1536.0 1536.0)"><path d="M-368.6 1251.4 C -273.4 1269.1, -140.1 1243.7, -51.2 1201.3 C 44.0 1198.5, 177.4 1299.4, 266.2 1168.5 C 361.5 1171.4, 494.8 1326.8, 583.7 1186.1 C 678.9 1185.8, 812.2 1276.7, 901.1 1243.2 C 996.4 1241.2, 1129.7 1255.9, 1218.6 1305.4 C 1313.8 1323.1, 1447.1 1217.6, 1536.0 1334.8 C 1631.2 1339.4, 1764.6 1168.2, 1853.4 1313.6 C 1948.7 1311.7, 2082.0 1218.8, 2170.9 1254.8 C 2266.1 1254.9, 2399.4 1249.0, 2488.3 1193.9 C 2583.6 1204.0, 2716.9 1275.8, 2805.8 1167.9 C 2901.0 1144.9, 3034.3 1336.6, 3123.2 1192.6 C 3218.4 1179.5, 3351.8 1293.4, 3440.6 1253.0" fill="none" stroke="url(#ribbon1002)" stroke-width="42.4" stroke-linecap="round" stroke-opacity="0.224" /></g><g transform="rotate(-13.97 1536.0 1536.0)"><path d="M-368.6 1450.7 C -225.8 1436.1, -25.8 1463.4, 107.5 1503.8 C 250.4 1504.6, 450.4 1434.0, 583.7 1540.4 C 726.5 1537.0, 926.5 1422.4, 1059.8 1522.6 C 1202.7 1506.3, 1402.7 1373.2, 1536.0 1461.2 C 1678.8 1457.5, 1878.8 1441.4, 2012.2 1393.5 C 2155.0 1410.7, 2355.0 1488.6, 2488.3 1360.4 C 2631.2 1378.2, 2831.2 1545.2, 2964.5 1382.2 C 3107.3 1390.0, 3307.3 1508.8, 3440.6 1445.5" fill="none" stroke="url(#ribbon1002)" stroke-width="38.4" stroke-linecap="round" stroke-opacity="0.250" /></g><g transform="rotate(-13.39 1536.0 1536.0)"><path d="M-368.6 1704.4 C -241.7 1593.7, -63.9 1750.7, 54.6 1640.8 C 181.6 1663.9, 359.4 1768.9, 477.9 1713.3 C 604.8 1714.3, 782.6 1698.9, 901.1 1780.4 C 1028.1 1805.0, 1205.9 1678.9, 1324.4 1801.4 C 1451.3 1775.0, 1629.1 1628.5, 1747.6 1763.6 C 1874.6 1784.3, 2052.4 1645.8, 2170.9 1689.9 C 2297.9 1685.9, 2475.6 1713.6, 2594.1 1625.0 C 2721.1 1598.4, 2898.9 1756.8, 3017.4 1608.3 C 3144.4 1614.5, 3322.1 1746.5, 3440.6 1649.9" fill="none" stroke="url(#ribbon1002)" stroke-width="34.4" stroke-linecap="round" stroke-opacity="0.276" /></g><g transform="rotate(-12.81 1536.0 1536.0)"><path d="M-368.6 1847.0 C -254.4 1883.2, -94.4 1811.6, 12.3 1947.0 C 126.6 1946.0, 286.6 1810.8, 393.2 1939.1 C 507.5 1918.6, 667.5 1810.5, 774.1 1875.4 C 888.4 1871.1, 1048.4 1823.4, 1155.1 1794.4 C 1269.4 1794.5, 1429.3 1895.9, 1536.0 1745.4 C 1650.3 1708.9, 1810.3 1941.9, 1916.9 1758.0 C 2031.2 1740.9, 2191.2 1923.0, 2297.9 1824.6 C 2412.1 1815.8, 2572.1 1861.7, 2678.8 1904.8 C 2793.1 1897.0, 2953.1 1796.9, 3059.7 1949.9 C 3174.0 1985.4, 3334.0 1810.5, 3440.6 1932.7" fill="none" stroke="url(#ribbon1002)" stroke-width="30.4" stroke-linecap="round" stroke-opacity="0.302" /></g><g transform="rotate(-12.23 1536.0 1536.0)"><path d="M-368.6 2046.5 C -264.8 2008.5, -119.3 2107.5, -22.3 2080.2 C 81.5 2089.9, 227.0 2026.6, 324.0 2146.4 C 427.8 2180.3, 573.3 1995.6, 670.3 2152.1 C 774.1 2150.3, 919.6 1992.0, 1016.6 2093.7 C 1120.4 2106.4, 1265.9 1994.7, 1362.9 2006.6 C 1466.7 1998.7, 1612.2 2090.5, 1709.1 1943.8 C 1813.0 1932.5, 1958.5 2119.0, 2055.4 1943.2 C 2159.3 1948.1, 2304.8 2147.7, 2401.7 2005.3 C 2505.6 2011.1, 2651.1 2071.8, 2748.0 2092.4 C 2851.9 2090.8, 2997.4 2019.0, 3094.3 2151.6 C 3198.2 2125.6, 3343.7 1973.0, 3440.6 2147.1" fill="none" stroke="url(#ribbon1002)" stroke-width="26.4" stroke-linecap="round" stroke-opacity="0.328" /></g><g transform="rotate(-11.65 1536.0 1536.0)"><path d="M-368.6 2286.2 C -273.4 2138.5, -140.1 2404.5, -51.2 2177.6 C 44.0 2146.8, 177.4 2352.2, 266.2 2245.1 C 361.5 2258.2, 494.8 2311.9, 583.7 2337.6 C 678.9 2317.5, 812.2 2251.4, 901.1 2398.9 C 996.4 2412.6, 1129.7 2173.6, 1218.6 2391.9 C 1313.8 2359.7, 1447.1 2231.1, 1536.0 2320.8 C 1631.2 2309.7, 1764.6 2267.9, 1853.4 2228.8 C 1948.7 2210.8, 2082.0 2339.0, 2170.9 2171.5 C 2266.1 2154.1, 2399.4 2355.4, 2488.3 2183.9 C 2583.6 2143.9, 2716.9 2406.3, 2805.8 2258.4 C 2901.0 2253.3, 3034.3 2298.3, 3123.2 2349.7 C 3218.4 2327.2, 3351.8 2220.3, 3440.6 2402.6" fill="none" stroke="url(#ribbon1002)" stroke-width="22.4" stroke-linecap="round" stroke-opacity="0.354" /></g><g transform="rotate(-11.07 1536.0 1536.0)"><path d="M-368.6 2477.1 C -225.8 2577.5, -25.8 2433.9, 107.5 2586.2 C 250.4 2612.2, 450.4 2384.1, 583.7 2507.9 C 726.5 2507.2, 926.5 2465.6, 1059.8 2411.0 C 1202.7 2399.8, 1402.7 2535.2, 1536.0 2354.2 C 1678.8 2327.3, 1878.8 2602.4, 2012.2 2372.0 C 2155.0 2361.6, 2355.0 2601.6, 2488.3 2453.6 C 2631.2 2451.9, 2831.2 2484.6, 2964.5 2549.5 C 3107.3 2545.0, 3307.3 2443.2, 3440.6 2601.5" fill="none" stroke="url(#ribbon1002)" stroke-width="18.4" stroke-linecap="round" stroke-opacity="0.380" /></g><g transform="rotate(-10.49 1536.0 1536.0)"><path d="M-368.6 2629.8 C -241.7 2705.9, -63.9 2589.7, 54.6 2663.9 C 181.6 2675.4, 359.4 2591.4, 477.9 2561.4 C 604.8 2560.6, 782.6 2708.6, 901.1 2500.3 C 1028.1 2510.0, 1205.9 2775.9, 1324.4 2517.8 C 1451.3 2523.6, 1629.1 2703.7, 1747.6 2603.2 C 1874.6 2594.3, 2052.4 2644.8, 2170.9 2704.7 C 2297.9 2697.2, 2475.6 2579.9, 2594.1 2760.8 C 2721.1 2797.8, 2898.9 2565.7, 3017.4 2737.4 C 3144.4 2705.0, 3322.1 2573.6, 3440.6 2648.7" fill="none" stroke="url(#ribbon1002)" stroke-width="14.4" stroke-linecap="round" stroke-opacity="0.406" /></g></g>
  <g><ellipse cx="1536.0" cy="1551.9" rx="728.6" ry="605.7" fill="url(#extrude1002)" opacity="0.220" /><ellipse cx="1536.0" cy="1567.7" rx="736.0" ry="610.9" fill="url(#extrude1002)" opacity="0.205" /><ellipse cx="1536.0" cy="1583.6" rx="743.4" ry="616.1" fill="url(#extrude1002)" opacity="0.190" /><ellipse cx="1536.0" cy="1599.5" rx="750.9" ry="621.3" fill="url(#extrude1002)" opacity="0.175" /><ellipse cx="1536.0" cy="1615.4" rx="758.3" ry="626.5" fill="url(#extrude1002)" opacity="0.160" /><ellipse cx="1536.0" cy="1631.2" rx="765.7" ry="631.7" fill="url(#extrude1002)" opacity="0.145" /><ellipse cx="1536.0" cy="1647.1" rx="773.2" ry="636.9" fill="url(#extrude1002)" opacity="0.130" /><ellipse cx="1536.0" cy="1663.0" rx="780.6" ry="642.1" fill="url(#extrude1002)" opacity="0.115" /><ellipse cx="1536.0" cy="1678.8" rx="788.0" ry="647.4" fill="url(#extrude1002)" opacity="0.100" /><ellipse cx="1536.0" cy="1694.7" rx="795.5" ry="652.6" fill="url(#extrude1002)" opacity="0.085" /><ellipse cx="1536.0" cy="1710.6" rx="802.9" ry="657.8" fill="url(#extrude1002)" opacity="0.070" /><ellipse cx="1536.0" cy="1726.5" rx="810.3" ry="663.0" fill="url(#extrude1002)" opacity="0.055" /></g>
  <ellipse cx="1536.0" cy="1726.5" rx="773.2" ry="214.9" fill="#0B1D2D" opacity="0.24" />
  <ellipse cx="1536.0" cy="1536.0" rx="743.4" ry="651.3" fill="url(#orb1002)" stroke="#FFFFFF" stroke-opacity="0.42" stroke-width="7" />
  <ellipse cx="1431.9" cy="1392.7" rx="505.5" ry="299.6" fill="#FFFFFF" opacity="0.25" />
  <path d="M 199.4 399.4 C 1013.8 -30.7, 2058.2 768.0, 2872.6 215.0 L 2872.6 983.0 C 2089.0 1228.8, 1013.8 307.2, 199.4 1167.4 Z" fill="url(#glass1002)" />
  <rect x="270" y="270" width="2532" height="2532" rx="430" fill="none" stroke="#FFFFFF" stroke-opacity="0.30" stroke-width="5" />
  <rect x="288.4" y="288.4" width="2495.1" height="2495.1" rx="399" fill="none" stroke="#3B82FF" stroke-opacity="0.35" stroke-width="3" />
  <g filter="url(#soft1002)"><rect x="715" y="1445" width="48" height="2" fill="#FFFFFF" opacity="0.760" /><rect x="738" y="1422" width="2" height="48" fill="#FFFFFF" opacity="0.760" /><rect x="2773" y="1693" width="32" height="2" fill="#FFFFFF" opacity="0.777" /><rect x="2788" y="1678" width="2" height="32" fill="#FFFFFF" opacity="0.777" /><rect x="2640" y="778" width="30" height="2" fill="#FFFFFF" opacity="0.433" /><rect x="2654" y="764" width="2" height="30" fill="#FFFFFF" opacity="0.433" /><rect x="342" y="1581" width="50" height="2" fill="#FFFFFF" opacity="0.626" /><rect x="366" y="1557" width="2" height="50" fill="#FFFFFF" opacity="0.626" /><rect x="2597" y="1171" width="36" height="2" fill="#FFFFFF" opacity="0.783" /><rect x="2614" y="1154" width="2" height="36" fill="#FFFFFF" opacity="0.783" /><rect x="2316" y="754" width="78" height="2" fill="#FFFFFF" opacity="0.490" /><rect x="2354" y="716" width="2" height="78" fill="#FFFFFF" opacity="0.490" /><rect x="1421" y="1958" width="38" height="2" fill="#FFFFFF" opacity="0.485" /><rect x="1439" y="1940" width="2" height="38" fill="#FFFFFF" opacity="0.485" /><rect x="2462" y="2410" width="52" height="2" fill="#FFFFFF" opacity="0.717" /><rect x="2487" y="2385" width="2" height="52" fill="#FFFFFF" opacity="0.717" /><rect x="2590" y="1678" width="38" height="2" fill="#FFFFFF" opacity="0.398" /><rect x="2608" y="1660" width="2" height="38" fill="#FFFFFF" opacity="0.398" /><rect x="2071" y="1532" width="72" height="2" fill="#FFFFFF" opacity="0.765" /><rect x="2106" y="1497" width="2" height="72" fill="#FFFFFF" opacity="0.765" /><rect x="1561" y="282" width="30" height="2" fill="#FFFFFF" opacity="0.381" /><rect x="1575" y="268" width="2" height="30" fill="#FFFFFF" opacity="0.381" /><rect x="1734" y="1662" width="66" height="2" fill="#FFFFFF" opacity="0.435" /><rect x="1766" y="1630" width="2" height="66" fill="#FFFFFF" opacity="0.435" /><rect x="1029" y="1499" width="78" height="2" fill="#FFFFFF" opacity="0.817" /><rect x="1067" y="1461" width="2" height="78" fill="#FFFFFF" opacity="0.817" /><rect x="1146" y="1601" width="66" height="2" fill="#FFFFFF" opacity="0.303" /><rect x="1178" y="1569" width="2" height="66" fill="#FFFFFF" opacity="0.303" /><rect x="1945" y="247" width="68" height="2" fill="#FFFFFF" opacity="0.587" /><rect x="1978" y="214" width="2" height="68" fill="#FFFFFF" opacity="0.587" /><rect x="2450" y="2422" width="30" height="2" fill="#FFFFFF" opacity="0.827" /><rect x="2464" y="2408" width="2" height="30" fill="#FFFFFF" opacity="0.827" /><rect x="2574" y="428" width="64" height="2" fill="#FFFFFF" opacity="0.320" /><rect x="2605" y="397" width="2" height="64" fill="#FFFFFF" opacity="0.320" /><rect x="1582" y="2041" width="28" height="2" fill="#FFFFFF" opacity="0.650" /><rect x="1595" y="2028" width="2" height="28" fill="#FFFFFF" opacity="0.650" /><rect x="1163" y="2654" width="52" height="2" fill="#FFFFFF" opacity="0.438" /><rect x="1188" y="2629" width="2" height="52" fill="#FFFFFF" opacity="0.438" /><rect x="762" y="2544" width="44" height="2" fill="#FFFFFF" opacity="0.720" /><rect x="783" y="2523" width="2" height="44" fill="#FFFFFF" opacity="0.720" /><rect x="1731" y="2201" width="76" height="2" fill="#FFFFFF" opacity="0.614" /><rect x="1768" y="2164" width="2" height="76" fill="#FFFFFF" opacity="0.614" /><rect x="1456" y="2556" width="76" height="2" fill="#FFFFFF" opacity="0.463" /><rect x="1493" y="2519" width="2" height="76" fill="#FFFFFF" opacity="0.463" /><rect x="624" y="2244" width="84" height="2" fill="#FFFFFF" opacity="0.647" /><rect x="665" y="2203" width="2" height="84" fill="#FFFFFF" opacity="0.647" /><rect x="753" y="2363" width="38" height="2" fill="#FFFFFF" opacity="0.327" /><rect x="771" y="2345" width="2" height="38" fill="#FFFFFF" opacity="0.327" /><rect x="1441" y="2051" width="46" height="2" fill="#FFFFFF" opacity="0.537" /><rect x="1463" y="2029" width="2" height="46" fill="#FFFFFF" opacity="0.537" /><rect x="938" y="1633" width="28" height="2" fill="#FFFFFF" opacity="0.767" /><rect x="951" y="1620" width="2" height="28" fill="#FFFFFF" opacity="0.767" /></g>
  <g opacity="0.52"><path d="M996 1582 Q1572 1006, 2148 1582" fill="none" stroke="#0C2030" stroke-width="90" /><path d="M996 1801 Q1572 1198, 2148 1801" fill="none" stroke="#0C2030" stroke-width="88" opacity="0.9" /><path d="M996 1966 Q1572 1326, 2148 1966" fill="none" stroke="#0C2030" stroke-width="87" opacity="0.75" /></g>
  <g filter="url(#soft1002)"><path d="M960 1536 Q1536 960, 2112 1536" fill="none" stroke="url(#symbol1002)" stroke-width="90" /><path d="M960 1755 Q1536 1152, 2112 1755" fill="none" stroke="url(#symbol1002)" stroke-width="88" opacity="0.9" /><path d="M960 1920 Q1536 1280, 2112 1920" fill="none" stroke="url(#symbol1002)" stroke-width="87" opacity="0.75" /></g>
  <rect x="138" y="138" width="2796" height="2796" rx="629" fill="#FFFFFF" filter="url(#grain1002)" opacity="0.18" />
</svg>
