<svg xmlns="http://www.w3.org/2000/svg" width="3072" height="3072" viewBox="0 0 3072 3072">
  <title>QuartzOS System Icon 103 - volume_06</title>
  <defs><linearGradient id="bg1102" x1="0%" y1="0%" x2="100%" y2="100%"><stop offset="0%" stop-color="#FF6AB3" /><stop offset="26%" stop-color="#FFD84D" /><stop offset="56%" stop-color="#36D1FF" /><stop offset="78%" stop-color="#58A3D8" /><stop offset="100%" stop-color="#1D2F45" /></linearGradient><radialGradient id="sun1102" cx="48%" cy="22%" r="88%"><stop offset="0%" stop-color="#FFFFFF" stop-opacity="0.62" /><stop offset="30%" stop-color="#3B82FF" stop-opacity="0.35" /><stop offset="100%" stop-color="#3B82FF" stop-opacity="0" /></radialGradient><linearGradient id="glass1102" x1="0%" y1="0%" x2="0%" y2="100%"><stop offset="0%" stop-color="#FFFFFF" stop-opacity="0.70" /><stop offset="46%" stop-color="#FFFFFF" stop-opacity="0.26" /><stop offset="100%" stop-color="#FFFFFF" stop-opacity="0.00" /></linearGradient><linearGradient id="ribbon1102" x1="0%" y1="0%" x2="100%" y2="0%"><stop offset="0%" stop-color="#FF6AB3" stop-opacity="0.18" /><stop offset="34%" stop-color="#FFD84D" stop-opacity="0.72" /><stop offset="66%" stop-color="#36D1FF" stop-opacity="0.72" /><stop offset="100%" stop-color="#3B82FF" stop-opacity="0.18" /></linearGradient><radialGradient id="orb1102" cx="34%" cy="27%" r="74%"><stop offset="0%" stop-color="#FFFFFF" stop-opacity="0.84" /><stop offset="30%" stop-color="#FF6AB3" stop-opacity="0.52" /><stop offset="68%" stop-color="#FFD84D" stop-opacity="0.42" /><stop offset="100%" stop-color="#36D1FF" stop-opacity="0.20" /></radialGradient><linearGradient id="extrude1102" x1="0%" y1="0%" x2="0%" y2="100%"><stop offset="0%" stop-color="#15283C" stop-opacity="0.45" /><stop offset="100%" stop-color="#08131D" stop-opacity="0.06" /></linearGradient><linearGradient id="symbol1102" x1="0%" y1="0%" x2="100%" y2="100%"><stop offset="0%" stop-color="#FFFFFF" /><stop offset="100%" stop-color="#3B82FF" /></linearGradient><filter id="shadow1102" x="-40%" y="-40%" width="180%" height="180%"><feDropShadow dx="0" dy="49" stdDeviation="86" flood-color="#06111A" flood-opacity="0.54" /></filter><filter id="soft1102" x="-40%" y="-40%" width="180%" height="180%"><feDropShadow dx="0" dy="0" stdDeviation="14" flood-color="#FF6AB3" flood-opacity="0.45" /></filter><filter id="grain1102"><feTurbulence type="fractalNoise" baseFrequency="1.007" numOctaves="2" seed="1102" /><feColorMatrix type="saturate" values="0" /><feComponentTransfer><feFuncA type="table" tableValues="0 0.09" /></feComponentTransfer></filter></defs>
  <rect x="138" y="138" width="2796" height="2796" rx="629" fill="url(#bg1102)" filter="url(#shadow1102)" />
  <rect x="138" y="138" width="2796" height="2796" rx="629" fill="url(#sun1102)" />
  <g><circle cx="1716" cy="1784" r="49" fill="#FFFFFF" opacity="0.185" /><circle cx="881" cy="1127" r="52" fill="#FFFFFF" opacity="0.208" /><circle cx="2440" cy="1267" r="118" fill="#FFFFFF" opacity="0.221" /><circle cx="2046" cy="1002" r="98" fill="#FFFFFF" opacity="0.080" /><circle cx="492" cy="592" r="43" fill="#FFFFFF" opacity="0.161" /><circle cx="1973" cy="2099" r="52" fill="#FFFFFF" opacity="0.215" /><circle cx="1217" cy="1474" r="98" fill="#FFFFFF" opacity="0.132" /><circle cx="679" cy="1942" r="96" fill="#FFFFFF" opacity="0.174" /><circle cx="1510" cy="2146" r="46" fill="#FFFFFF" opacity="0.063" /><circle cx="1313" cy="1770" r="89" fill="#FFFFFF" opacity="0.191" /><circle cx="1932" cy="860" r="117" fill="#FFFFFF" opacity="0.090" /><circle cx="756" cy="831" r="65" fill="#FFFFFF" opacity="0.210" /><circle cx="2632" cy="1340" r="101" fill="#FFFFFF" opacity="0.110" /><circle cx="1364" cy="2213" r="62" fill="#FFFFFF" opacity="0.230" /><circle cx="1739" cy="1015" r="104" fill="#FFFFFF" opacity="0.118" /><circle cx="1860" cy="1443" r="146" fill="#FFFFFF" opacity="0.175" /><circle cx="919" cy="361" r="137" fill="#FFFFFF" opacity="0.236" /><circle cx="2367" cy="1004" r="128" fill="#FFFFFF" opacity="0.177" /><circle cx="1729" cy="2214" r="156" fill="#FFFFFF" opacity="0.077" /><circle cx="2591" cy="432" r="97" fill="#FFFFFF" opacity="0.194" /><circle cx="2118" cy="1050" r="37" fill="#FFFFFF" opacity="0.151" /><circle cx="2484" cy="353" r="155" fill="#FFFFFF" opacity="0.226" /><circle cx="2417" cy="566" r="115" fill="#FFFFFF" opacity="0.079" /><circle cx="713" cy="1261" r="98" fill="#FFFFFF" opacity="0.230" /><circle cx="2129" cy="2061" r="77" fill="#FFFFFF" opacity="0.113" /><circle cx="2619" cy="1865" r="158" fill="#FFFFFF" opacity="0.080" /><circle cx="1543" cy="1948" r="126" fill="#FFFFFF" opacity="0.183" /><circle cx="2637" cy="1766" r="81" fill="#FFFFFF" opacity="0.141" /></g>
  <g><path d="M 198.2 599.4 L 2877.0 322.9 L 2877.0 752.1 L 198.2 1028.5 Z" fill="#FFFFFF" opacity="0.184" /><path d="M 329.4 867.5 L 2708.3 591.0 L 2708.3 1038.3 L 329.4 1314.8 Z" fill="#FFFFFF" opacity="0.219" /><path d="M 188.1 1133.1 L 2909.4 856.6 L 2909.4 1294.3 L 188.1 1570.8 Z" fill="#FFFFFF" opacity="0.094" /><path d="M 268.6 1369.7 L 2912.8 1093.2 L 2912.8 1571.3 L 268.6 1847.8 Z" fill="#FFFFFF" opacity="0.164" /><path d="M 370.5 1694.4 L 2792.6 1417.9 L 2792.6 1894.1 L 370.5 2170.6 Z" fill="#FFFFFF" opacity="0.132" /><path d="M 309.1 1937.7 L 2739.3 1661.2 L 2739.3 2109.7 L 309.1 2386.2 Z" fill="#FFFFFF" opacity="0.106" /><path d="M 183.9 2208.9 L 2726.1 1932.4 L 2726.1 2372.6 L 183.9 2649.1 Z" fill="#FFFFFF" opacity="0.143" /><path d="M 380.0 2479.7 L 2906.2 2203.2 L 2906.2 2644.7 L 380.0 2921.2 Z" fill="#FFFFFF" opacity="0.229" /></g>
  <g filter="url(#soft1102)"><g transform="rotate(-19.72 1536.0 1536.0)"><path d="M-368.6 548.5 C -225.8 588.9, -25.8 508.1, 107.5 568.4 C 250.4 564.8, 450.4 537.0, 583.7 525.4 C 726.5 523.0, 926.5 564.3, 1059.8 496.4 C 1202.7 499.0, 1402.7 581.8, 1536.0 499.0 C 1678.8 516.7, 1878.8 587.5, 2012.2 531.6 C 2155.0 535.1, 2355.0 566.5, 2488.3 574.5 C 2631.2 568.3, 2831.2 518.4, 2964.5 601.6 C 3107.3 614.8, 3307.3 525.7, 3440.6 596.5" fill="none" stroke="url(#ribbon1102)" stroke-width="58.4" stroke-linecap="round" stroke-opacity="0.120" /></g><g transform="rotate(-19.14 1536.0 1536.0)"><path d="M-368.6 708.6 C -241.7 668.9, -63.9 746.1, 54.6 646.2 C 181.6 640.4, 359.4 743.3, 477.9 663.8 C 604.8 667.8, 782.6 737.0, 901.1 708.5 C 1028.1 708.5, 1205.9 708.7, 1324.4 753.2 C 1451.3 751.5, 1629.1 664.5, 1747.6 770.9 C 1874.6 787.8, 2052.4 657.5, 2170.9 750.8 C 2297.9 767.6, 2475.6 690.1, 2594.1 705.0 C 2721.1 705.3, 2898.9 712.2, 3017.4 661.4 C 3144.4 673.7, 3322.1 752.7, 3440.6 646.4" fill="none" stroke="url(#ribbon1102)" stroke-width="54.4" stroke-linecap="round" stroke-opacity="0.146" /></g><g transform="rotate(-18.56 1536.0 1536.0)"><path d="M-368.6 855.3 C -254.4 867.7, -94.4 845.8, 12.3 912.2 C 126.6 893.6, 286.6 806.5, 393.2 923.5 C 507.5 938.3, 667.5 819.7, 774.1 893.4 C 888.4 886.7, 1048.4 833.1, 1155.1 840.2 C 1269.4 843.3, 1429.3 862.6, 1536.0 796.1 C 1650.3 807.9, 1810.3 892.3, 1916.9 788.0 C 2031.2 783.0, 2191.2 916.5, 2297.9 820.6 C 2412.1 829.0, 2572.1 869.2, 2678.8 874.3 C 2793.1 868.1, 2953.1 841.2, 3059.7 916.4 C 3174.0 932.8, 3334.0 826.6, 3440.6 921.5" fill="none" stroke="url(#ribbon1102)" stroke-width="50.4" stroke-linecap="round" stroke-opacity="0.172" /></g><g transform="rotate(-17.98 1536.0 1536.0)"><path d="M-368.6 1145.9 C -264.8 1083.7, -119.3 1205.0, -22.3 1073.0 C 81.5 1086.4, 227.0 1205.2, 324.0 1111.9 C 427.8 1124.6, 573.3 1178.8, 670.3 1171.3 C 774.1 1163.3, 919.6 1121.6, 1016.6 1215.3 C 1120.4 1236.1, 1265.9 1106.4, 1362.9 1217.2 C 1466.7 1231.6, 1612.2 1121.4, 1709.1 1175.8 C 1813.0 1180.0, 1958.5 1121.4, 2055.4 1116.2 C 2159.3 1114.3, 2304.8 1157.9, 2401.7 1074.6 C 2505.6 1056.0, 2651.1 1189.5, 2748.0 1076.2 C 2851.9 1082.6, 2997.4 1198.5, 3094.3 1120.1 C 3198.2 1110.1, 3343.7 1166.9, 3440.6 1179.6" fill="none" stroke="url(#ribbon1102)" stroke-width="46.4" stroke-linecap="round" stroke-opacity="0.198" /></g><g transform="rotate(-17.40 1536.0 1536.0)"><path d="M-368.6 1269.9 C -273.4 1274.6, -140.1 1266.5, -51.2 1212.6 C 44.0 1205.5, 177.4 1319.3, 266.2 1186.3 C 361.5 1181.0, 494.8 1335.2, 583.7 1210.7 C 678.9 1190.6, 812.2 1337.7, 901.1 1271.0 C 996.4 1270.8, 1129.7 1269.0, 1218.6 1330.6 C 1313.8 1320.0, 1447.1 1207.8, 1536.0 1353.4 C 1631.2 1377.8, 1764.6 1189.0, 1853.4 1325.5 C 1948.7 1333.1, 2082.0 1218.7, 2170.9 1263.9 C 2266.1 1266.1, 2399.4 1275.7, 2488.3 1205.9 C 2583.6 1200.1, 2716.9 1310.4, 2805.8 1186.7 C 2901.0 1174.8, 3034.3 1341.5, 3123.2 1218.0 C 3218.4 1209.5, 3351.8 1300.9, 3440.6 1280.7" fill="none" stroke="url(#ribbon1102)" stroke-width="42.4" stroke-linecap="round" stroke-opacity="0.224" /></g><g transform="rotate(-16.82 1536.0 1536.0)"><path d="M-368.6 1521.4 C -225.8 1527.1, -25.8 1518.7, 107.5 1589.5 C 250.4 1577.2, 450.4 1471.8, 583.7 1611.8 C 726.5 1617.9, 926.5 1443.1, 1059.8 1579.3 C 1202.7 1556.5, 1402.7 1478.1, 1536.0 1511.7 C 1678.8 1515.2, 1878.8 1531.5, 2012.2 1450.0 C 2155.0 1443.8, 2355.0 1559.0, 2488.3 1431.6 C 2631.2 1436.3, 2831.2 1619.4, 2964.5 1467.7 C 3107.3 1484.7, 3307.3 1570.0, 3440.6 1536.4" fill="none" stroke="url(#ribbon1102)" stroke-width="38.4" stroke-linecap="round" stroke-opacity="0.250" /></g><g transform="rotate(-16.24 1536.0 1536.0)"><path d="M-368.6 1743.9 C -241.7 1612.8, -63.9 1806.8, 54.6 1664.9 C 181.6 1637.5, 359.4 1825.9, 477.9 1730.1 C 604.8 1734.6, 782.6 1753.2, 901.1 1803.7 C 1028.1 1818.2, 1205.9 1702.6, 1324.4 1840.9 C 1451.3 1863.9, 1629.1 1649.0, 1747.6 1819.3 C 1874.6 1796.7, 2052.4 1711.8, 2170.9 1751.9 C 2297.9 1749.2, 2475.6 1739.5, 2594.1 1679.6 C 2721.1 1682.8, 2898.9 1803.2, 3017.4 1646.3 C 3144.4 1678.1, 3322.1 1822.3, 3440.6 1672.2" fill="none" stroke="url(#ribbon1102)" stroke-width="34.4" stroke-linecap="round" stroke-opacity="0.276" /></g><g transform="rotate(-15.66 1536.0 1536.0)"><path d="M-368.6 1819.5 C -254.4 1815.8, -94.4 1822.1, 12.3 1742.3 C 126.6 1714.8, 286.6 1857.8, 393.2 1714.9 C 507.5 1691.1, 667.5 1893.2, 774.1 1751.0 C 888.4 1773.2, 1048.4 1851.6, 1155.1 1828.6 C 1269.4 1830.4, 1429.3 1816.1, 1536.0 1900.7 C 1650.3 1904.5, 1810.3 1733.5, 1916.9 1923.6 C 2031.2 1937.5, 2191.2 1735.4, 2297.9 1883.3 C 2412.1 1878.6, 2572.1 1787.1, 2678.8 1804.3 C 2793.1 1808.3, 2953.1 1835.6, 3059.7 1734.6 C 3174.0 1728.2, 3334.0 1862.2, 3440.6 1716.3" fill="none" stroke="url(#ribbon1102)" stroke-width="30.4" stroke-linecap="round" stroke-opacity="0.302" /></g><g transform="rotate(-15.08 1536.0 1536.0)"><path d="M-368.6 2076.4 C -264.8 1943.4, -119.3 2127.4, -22.3 1981.4 C 81.5 1953.7, 227.0 2114.3, 324.0 2052.4 C 427.8 2058.8, 573.3 2085.9, 670.3 2138.1 C 774.1 2149.3, 919.6 2026.0, 1016.6 2186.3 C 1120.4 2196.5, 1265.9 2001.8, 1362.9 2167.8 C 1466.7 2199.8, 1612.2 2000.7, 1709.1 2094.0 C 1813.0 2097.0, 1958.5 2068.8, 2055.4 2009.4 C 2159.3 1993.6, 2304.8 2097.4, 2401.7 1965.5 C 2505.6 1959.6, 2651.1 2205.2, 2748.0 1988.9 C 2851.9 2019.3, 2997.4 2108.8, 3094.3 2065.3 C 3198.2 2066.7, 3343.7 2082.9, 3440.6 2148.5" fill="none" stroke="url(#ribbon1102)" stroke-width="26.4" stroke-linecap="round" stroke-opacity="0.328" /></g><g transform="rotate(-14.50 1536.0 1536.0)"><path d="M-368.6 2291.4 C -273.4 2337.1, -140.1 2211.2, -51.2 2272.4 C 44.0 2265.1, 177.4 2298.7, 266.2 2193.9 C 361.5 2158.0, 494.8 2397.0, 583.7 2174.6 C 678.9 2194.4, 812.2 2327.9, 901.1 2226.1 C 996.4 2222.5, 1129.7 2341.3, 1218.6 2317.2 C 1313.8 2312.6, 1447.1 2271.1, 1536.0 2392.6 C 1631.2 2372.2, 1764.6 2186.5, 1853.4 2406.6 C 1948.7 2434.7, 2082.0 2200.3, 2170.9 2350.7 C 2266.1 2364.0, 2399.4 2242.8, 2488.3 2258.8 C 2583.6 2256.5, 2716.9 2315.0, 2805.8 2186.7 C 2901.0 2191.4, 3034.3 2327.2, 3123.2 2178.0 C 3218.4 2209.3, 3351.8 2386.1, 3440.6 2238.1" fill="none" stroke="url(#ribbon1102)" stroke-width="22.4" stroke-linecap="round" stroke-opacity="0.354" /></g><g transform="rotate(-13.92 1536.0 1536.0)"><path d="M-368.6 2454.2 C -225.8 2300.8, -25.8 2578.2, 107.5 2333.8 C 250.4 2293.4, 450.4 2593.8, 583.7 2396.7 C 726.5 2412.7, 926.5 2486.7, 1059.8 2494.5 C 1202.7 2488.1, 1402.7 2413.8, 1536.0 2567.9 C 1678.8 2593.5, 1878.8 2345.1, 2012.2 2572.4 C 2155.0 2580.3, 2355.0 2350.5, 2488.3 2505.2 C 2631.2 2492.9, 2831.2 2395.7, 2964.5 2407.1 C 3107.3 2413.5, 3307.3 2491.8, 3440.6 2337.6" fill="none" stroke="url(#ribbon1102)" stroke-width="18.4" stroke-linecap="round" stroke-opacity="0.380" /></g><g transform="rotate(-13.34 1536.0 1536.0)"><path d="M-368.6 2658.6 C -241.7 2618.9, -63.9 2712.6, 54.6 2532.2 C 181.6 2555.3, 359.4 2782.1, 477.9 2540.8 C 604.8 2548.5, 782.6 2700.0, 901.1 2620.8 C 1028.1 2617.8, 1205.9 2699.1, 1324.4 2723.7 C 1451.3 2744.8, 1629.1 2609.1, 1747.6 2787.2 C 1874.6 2757.4, 2052.4 2549.9, 2170.9 2772.6 C 2297.9 2761.9, 2475.6 2604.1, 2594.1 2688.8 C 2721.1 2690.1, 2898.9 2625.7, 3017.4 2586.7 C 3144.4 2612.7, 3322.1 2691.5, 3440.6 2528.2" fill="none" stroke="url(#ribbon1102)" stroke-width="14.4" stroke-linecap="round" stroke-opacity="0.406" /></g></g>
  <g><ellipse cx="1536.0" cy="1551.9" rx="728.6" ry="605.7" fill="url(#extrude1102)" opacity="0.220" /><ellipse cx="1536.0" cy="1567.7" rx="736.0" ry="610.9" fill="url(#extrude1102)" opacity="0.205" /><ellipse cx="1536.0" cy="1583.6" rx="743.4" ry="616.1" fill="url(#extrude1102)" opacity="0.190" /><ellipse cx="1536.0" cy="1599.5" rx="750.9" ry="621.3" fill="url(#extrude1102)" opacity="0.175" /><ellipse cx="1536.0" cy="1615.4" rx="758.3" ry="626.5" fill="url(#extrude1102)" opacity="0.160" /><ellipse cx="1536.0" cy="1631.2" rx="765.7" ry="631.7" fill="url(#extrude1102)" opacity="0.145" /><ellipse cx="1536.0" cy="1647.1" rx="773.2" ry="636.9" fill="url(#extrude1102)" opacity="0.130" /><ellipse cx="1536.0" cy="1663.0" rx="780.6" ry="642.1" fill="url(#extrude1102)" opacity="0.115" /><ellipse cx="1536.0" cy="1678.8" rx="788.0" ry="647.4" fill="url(#extrude1102)" opacity="0.100" /><ellipse cx="1536.0" cy="1694.7" rx="795.5" ry="652.6" fill="url(#extrude1102)" opacity="0.085" /><ellipse cx="1536.0" cy="1710.6" rx="802.9" ry="657.8" fill="url(#extrude1102)" opacity="0.070" /><ellipse cx="1536.0" cy="1726.5" rx="810.3" ry="663.0" fill="url(#extrude1102)" opacity="0.055" /></g>
  <ellipse cx="1536.0" cy="1726.5" rx="773.2" ry="214.9" fill="#0B1D2D" opacity="0.24" />
  <ellipse cx="1536.0" cy="1536.0" rx="743.4" ry="651.3" fill="url(#orb1102)" stroke="#FFFFFF" stroke-opacity="0.42" stroke-width="7" />
  <ellipse cx="1431.9" cy="1392.7" rx="505.5" ry="299.6" fill="#FFFFFF" opacity="0.25" />
  <path d="M 199.4 399.4 C 1013.8 -30.7, 2058.2 768.0, 2872.6 215.0 L 2872.6 983.0 C 2089.0 1228.8, 1013.8 307.2, 199.4 1167.4 Z" fill="url(#glass1102)" />
  <rect x="270" y="270" width="2532" height="2532" rx="430" fill="none" stroke="#FFFFFF" stroke-opacity="0.30" stroke-width="5" />
  <rect x="288.4" y="288.4" width="2495.1" height="2495.1" rx="399" fill="none" stroke="#FF6AB3" stroke-opacity="0.35" stroke-width="3" />
  <g filter="url(#soft1102)"><rect x="1099" y="2561" width="24" height="2" fill="#FFFFFF" opacity="0.629" /><rect x="1110" y="2550" width="2" height="24" fill="#FFFFFF" opacity="0.629" /><rect x="1387" y="2415" width="76" height="2" fill="#FFFFFF" opacity="0.821" /><rect x="1424" y="2378" width="2" height="76" fill="#FFFFFF" opacity="0.821" /><rect x="988" y="1624" width="76" height="2" fill="#FFFFFF" opacity="0.359" /><rect x="1025" y="1587" width="2" height="76" fill="#FFFFFF" opacity="0.359" /><rect x="339" y="857" width="44" height="2" fill="#FFFFFF" opacity="0.437" /><rect x="360" y="836" width="2" height="44" fill="#FFFFFF" opacity="0.437" /><rect x="1293" y="2132" width="78" height="2" fill="#FFFFFF" opacity="0.763" /><rect x="1331" y="2094" width="2" height="78" fill="#FFFFFF" opacity="0.763" /><rect x="1202" y="2382" width="60" height="2" fill="#FFFFFF" opacity="0.445" /><rect x="1231" y="2353" width="2" height="60" fill="#FFFFFF" opacity="0.445" /><rect x="604" y="810" width="74" height="2" fill="#FFFFFF" opacity="0.741" /><rect x="640" y="774" width="2" height="74" fill="#FFFFFF" opacity="0.741" /><rect x="2424" y="846" width="66" height="2" fill="#FFFFFF" opacity="0.336" /><rect x="2456" y="814" width="2" height="66" fill="#FFFFFF" opacity="0.336" /><rect x="2590" y="774" width="56" height="2" fill="#FFFFFF" opacity="0.321" /><rect x="2617" y="747" width="2" height="56" fill="#FFFFFF" opacity="0.321" /><rect x="1283" y="457" width="74" height="2" fill="#FFFFFF" opacity="0.484" /><rect x="1319" y="421" width="2" height="74" fill="#FFFFFF" opacity="0.484" /><rect x="1241" y="1850" width="80" height="2" fill="#FFFFFF" opacity="0.516" /><rect x="1280" y="1811" width="2" height="80" fill="#FFFFFF" opacity="0.516" /><rect x="412" y="1758" width="72" height="2" fill="#FFFFFF" opacity="0.643" /><rect x="447" y="1723" width="2" height="72" fill="#FFFFFF" opacity="0.643" /><rect x="2322" y="1131" width="84" height="2" fill="#FFFFFF" opacity="0.739" /><rect x="2363" y="1090" width="2" height="84" fill="#FFFFFF" opacity="0.739" /><rect x="2454" y="381" width="64" height="2" fill="#FFFFFF" opacity="0.398" /><rect x="2485" y="350" width="2" height="64" fill="#FFFFFF" opacity="0.398" /><rect x="2611" y="1247" width="40" height="2" fill="#FFFFFF" opacity="0.376" /><rect x="2630" y="1228" width="2" height="40" fill="#FFFFFF" opacity="0.376" /><rect x="497" y="1057" width="28" height="2" fill="#FFFFFF" opacity="0.487" /><rect x="510" y="1044" width="2" height="28" fill="#FFFFFF" opacity="0.487" /><rect x="2710" y="1162" width="60" height="2" fill="#FFFFFF" opacity="0.668" /><rect x="2739" y="1133" width="2" height="60" fill="#FFFFFF" opacity="0.668" /><rect x="1975" y="1566" width="44" height="2" fill="#FFFFFF" opacity="0.574" /><rect x="1996" y="1545" width="2" height="44" fill="#FFFFFF" opacity="0.574" /><rect x="709" y="2238" width="36" height="2" fill="#FFFFFF" opacity="0.305" /><rect x="726" y="2221" width="2" height="36" fill="#FFFFFF" opacity="0.305" /><rect x="621" y="2032" width="54" height="2" fill="#FFFFFF" opacity="0.634" /><rect x="647" y="2006" width="2" height="54" fill="#FFFFFF" opacity="0.634" /><rect x="1361" y="1863" width="82" height="2" fill="#FFFFFF" opacity="0.677" /><rect x="1401" y="1823" width="2" height="82" fill="#FFFFFF" opacity="0.677" /><rect x="1922" y="1775" width="26" height="2" fill="#FFFFFF" opacity="0.445" /><rect x="1934" y="1763" width="2" height="26" fill="#FFFFFF" opacity="0.445" /><rect x="1321" y="2353" width="34" height="2" fill="#FFFFFF" opacity="0.437" /><rect x="1337" y="2337" width="2" height="34" fill="#FFFFFF" opacity="0.437" /><rect x="1522" y="1366" width="54" height="2" fill="#FFFFFF" opacity="0.497" /><rect x="1548" y="1340" width="2" height="54" fill="#FFFFFF" opacity="0.497" /><rect x="2328" y="2379" width="54" height="2" fill="#FFFFFF" opacity="0.819" /><rect x="2354" y="2353" width="2" height="54" fill="#FFFFFF" opacity="0.819" /><rect x="2390" y="2315" width="74" height="2" fill="#FFFFFF" opacity="0.446" /><rect x="2426" y="2279" width="2" height="74" fill="#FFFFFF" opacity="0.446" /></g>
  <g opacity="0.52"><path d="M996 1582 C1316 1006, 1572 2158, 2148 1582" fill="none" stroke="#0C2030" stroke-width="90" /><circle cx="1188" cy="1582" r="109" fill="#0C2030" /><circle cx="1572" cy="1582" r="109" fill="#0C2030" /><circle cx="1956" cy="1582" r="109" fill="#0C2030" /></g>
  <g filter="url(#soft1102)"><path d="M960 1536 C1280 960, 1536 2112, 2112 1536" fill="none" stroke="url(#symbol1102)" stroke-width="90" /><circle cx="1152" cy="1536" r="109" fill="url(#symbol1102)" /><circle cx="1536" cy="1536" r="109" fill="url(#symbol1102)" /><circle cx="1920" cy="1536" r="109" fill="url(#symbol1102)" /></g>
  <rect x="138" y="138" width="2796" height="2796" rx="629" fill="#FFFFFF" filter="url(#grain1102)" opacity="0.18" />
</svg>
