<svg xmlns="http://www.w3.org/2000/svg" width="3072" height="3072" viewBox="0 0 3072 3072">
  <title>QuartzOS System Icon 043 - volume_03</title>
  <defs><linearGradient id="bg1042" x1="0%" y1="0%" x2="100%" y2="100%"><stop offset="0%" stop-color="#53E3A6" /><stop offset="26%" stop-color="#3B82FF" /><stop offset="56%" stop-color="#FF6AB3" /><stop offset="78%" stop-color="#58A3D8" /><stop offset="100%" stop-color="#1D2F45" /></linearGradient><radialGradient id="sun1042" cx="46%" cy="25%" r="88%"><stop offset="0%" stop-color="#FFFFFF" stop-opacity="0.62" /><stop offset="30%" stop-color="#FF9F43" stop-opacity="0.35" /><stop offset="100%" stop-color="#FF9F43" stop-opacity="0" /></radialGradient><linearGradient id="glass1042" x1="0%" y1="0%" x2="0%" y2="100%"><stop offset="0%" stop-color="#FFFFFF" stop-opacity="0.70" /><stop offset="46%" stop-color="#FFFFFF" stop-opacity="0.26" /><stop offset="100%" stop-color="#FFFFFF" stop-opacity="0.00" /></linearGradient><linearGradient id="ribbon1042" x1="0%" y1="0%" x2="100%" y2="0%"><stop offset="0%" stop-color="#53E3A6" stop-opacity="0.18" /><stop offset="34%" stop-color="#3B82FF" stop-opacity="0.72" /><stop offset="66%" stop-color="#FF6AB3" stop-opacity="0.72" /><stop offset="100%" stop-color="#FF9F43" stop-opacity="0.18" /></linearGradient><radialGradient id="orb1042" cx="34%" cy="27%" r="74%"><stop offset="0%" stop-color="#FFFFFF" stop-opacity="0.84" /><stop offset="30%" stop-color="#53E3A6" stop-opacity="0.52" /><stop offset="68%" stop-color="#3B82FF" stop-opacity="0.42" /><stop offset="100%" stop-color="#FF6AB3" stop-opacity="0.20" /></radialGradient><linearGradient id="extrude1042" x1="0%" y1="0%" x2="0%" y2="100%"><stop offset="0%" stop-color="#15283C" stop-opacity="0.45" /><stop offset="100%" stop-color="#08131D" stop-opacity="0.06" /></linearGradient><linearGradient id="symbol1042" x1="0%" y1="0%" x2="100%" y2="100%"><stop offset="0%" stop-color="#FFFFFF" /><stop offset="100%" stop-color="#FF9F43" /></linearGradient><filter id="shadow1042" x="-40%" y="-40%" width="180%" height="180%"><feDropShadow dx="0" dy="49" stdDeviation="86" flood-color="#06111A" flood-opacity="0.54" /></filter><filter id="soft1042" x="-40%" y="-40%" width="180%" height="180%"><feDropShadow dx="0" dy="0" stdDeviation="14" flood-color="#53E3A6" flood-opacity="0.45" /></filter><filter id="grain1042"><feTurbulence type="fractalNoise" baseFrequency="0.990" numOctaves="2" seed="1042" /><feColorMatrix type="saturate" values="0" /><feComponentTransfer><feFuncA type="table" tableValues="0 0.09" /></feComponentTransfer></filter></defs>
  <rect x="138" y="138" width="2796" height="2796" rx="629" fill="url(#bg1042)" filter="url(#shadow1042)" />
  <rect x="138" y="138" width="2796" height="2796" rx="629" fill="url(#sun1042)" />
  <g><circle cx="2152" cy="2620" r="70" fill="#FFFFFF" opacity="0.228" /><circle cx="1750" cy="1936" r="130" fill="#FFFFFF" opacity="0.121" /><circle cx="2333" cy="689" r="76" fill="#FFFFFF" opacity="0.157" /><circle cx="1058" cy="1865" r="79" fill="#FFFFFF" opacity="0.136" /><circle cx="1904" cy="1736" r="70" fill="#FFFFFF" opacity="0.173" /><circle cx="923" cy="2286" r="104" fill="#FFFFFF" opacity="0.116" /><circle cx="522" cy="2556" r="109" fill="#FFFFFF" opacity="0.194" /><circle cx="1171" cy="1435" r="86" fill="#FFFFFF" opacity="0.138" /><circle cx="1209" cy="1908" r="111" fill="#FFFFFF" opacity="0.193" /><circle cx="997" cy="2560" r="137" fill="#FFFFFF" opacity="0.096" /><circle cx="1234" cy="1102" r="125" fill="#FFFFFF" opacity="0.239" /><circle cx="2185" cy="1699" r="76" fill="#FFFFFF" opacity="0.099" /><circle cx="1822" cy="1740" r="52" fill="#FFFFFF" opacity="0.065" /><circle cx="787" cy="1367" r="74" fill="#FFFFFF" opacity="0.191" /><circle cx="1665" cy="603" r="47" fill="#FFFFFF" opacity="0.124" /><circle cx="2313" cy="2234" r="143" fill="#FFFFFF" opacity="0.134" /><circle cx="2253" cy="878" r="139" fill="#FFFFFF" opacity="0.186" /><circle cx="2028" cy="1537" r="59" fill="#FFFFFF" opacity="0.150" /><circle cx="1677" cy="1354" r="157" fill="#FFFFFF" opacity="0.149" /><circle cx="428" cy="628" r="97" fill="#FFFFFF" opacity="0.093" /><circle cx="2584" cy="1956" r="94" fill="#FFFFFF" opacity="0.187" /><circle cx="2515" cy="2488" r="109" fill="#FFFFFF" opacity="0.120" /><circle cx="1606" cy="1626" r="59" fill="#FFFFFF" opacity="0.237" /><circle cx="875" cy="1609" r="149" fill="#FFFFFF" opacity="0.163" /><circle cx="2276" cy="563" r="39" fill="#FFFFFF" opacity="0.074" /><circle cx="924" cy="2170" r="63" fill="#FFFFFF" opacity="0.164" /><circle cx="2413" cy="2001" r="105" fill="#FFFFFF" opacity="0.173" /><circle cx="1947" cy="2226" r="121" fill="#FFFFFF" opacity="0.204" /></g>
  <g><path d="M 276.2 658.7 L 2755.9 382.2 L 2755.9 817.3 L 276.2 1093.8 Z" fill="#FFFFFF" opacity="0.166" /><path d="M 352.5 871.8 L 2777.2 595.3 L 2777.2 1040.1 L 352.5 1316.5 Z" fill="#FFFFFF" opacity="0.229" /><path d="M 334.7 1140.5 L 2714.1 864.0 L 2714.1 1304.3 L 334.7 1580.7 Z" fill="#FFFFFF" opacity="0.196" /><path d="M 360.1 1404.1 L 2841.0 1127.6 L 2841.0 1592.0 L 360.1 1868.4 Z" fill="#FFFFFF" opacity="0.115" /><path d="M 224.3 1630.3 L 2902.5 1353.8 L 2902.5 1781.0 L 224.3 2057.4 Z" fill="#FFFFFF" opacity="0.088" /><path d="M 341.5 1950.1 L 2819.7 1673.6 L 2819.7 2162.1 L 341.5 2438.6 Z" fill="#FFFFFF" opacity="0.204" /><path d="M 243.5 2216.9 L 2882.2 1940.4 L 2882.2 2415.7 L 243.5 2692.1 Z" fill="#FFFFFF" opacity="0.084" /><path d="M 179.0 2412.9 L 2807.8 2136.5 L 2807.8 2563.1 L 179.0 2839.6 Z" fill="#FFFFFF" opacity="0.161" /></g>
  <g filter="url(#soft1042)"><g transform="rotate(-12.19 1536.0 1536.0)"><path d="M-368.6 512.2 C -225.8 465.2, -25.8 563.0, 107.5 461.4 C 250.4 469.0, 450.4 553.2, 583.7 492.5 C 726.5 486.4, 926.5 521.6, 1059.8 535.6 C 1202.7 530.5, 1402.7 497.8, 1536.0 564.4 C 1678.8 565.7, 1878.8 453.3, 2012.2 561.6 C 2155.0 577.8, 2355.0 456.9, 2488.3 528.8 C 2631.2 523.8, 2831.2 506.2, 2964.5 486.0 C 3107.3 476.8, 3307.3 541.9, 3440.6 459.0" fill="none" stroke="url(#ribbon1042)" stroke-width="58.4" stroke-linecap="round" stroke-opacity="0.120" /></g><g transform="rotate(-11.61 1536.0 1536.0)"><path d="M-368.6 663.1 C -241.7 739.8, -63.9 636.3, 54.6 682.6 C 181.6 676.5, 359.4 650.9, 477.9 634.2 C 604.8 626.4, 782.6 681.5, 901.1 603.3 C 1028.1 612.4, 1205.9 724.4, 1324.4 608.7 C 1451.3 598.3, 1629.1 685.5, 1747.6 647.1 C 1874.6 646.0, 2052.4 670.3, 2170.9 695.2 C 2297.9 698.7, 2475.6 651.8, 2594.1 723.8 C 2721.1 708.6, 2898.9 602.2, 3017.4 715.6 C 3144.4 721.6, 3322.1 606.1, 3440.6 675.5" fill="none" stroke="url(#ribbon1042)" stroke-width="54.4" stroke-linecap="round" stroke-opacity="0.146" /></g><g transform="rotate(-11.03 1536.0 1536.0)"><path d="M-368.6 951.9 C -254.4 908.1, -94.4 1002.0, 12.3 928.2 C 126.6 928.0, 286.6 976.0, 393.2 982.2 C 507.5 983.3, 667.5 929.4, 774.1 1017.8 C 888.4 1040.0, 1048.4 919.8, 1155.1 1013.5 C 1269.4 1019.5, 1429.3 929.2, 1536.0 971.8 C 1650.3 971.1, 1810.3 942.9, 1916.9 918.1 C 2031.2 905.8, 2191.2 988.6, 2297.9 884.9 C 2412.1 861.5, 2572.1 985.8, 2678.8 892.3 C 2793.1 897.5, 2953.1 998.2, 3059.7 935.9 C 3174.0 937.4, 3334.0 966.7, 3440.6 989.2" fill="none" stroke="url(#ribbon1042)" stroke-width="50.4" stroke-linecap="round" stroke-opacity="0.172" /></g><g transform="rotate(-10.45 1536.0 1536.0)"><path d="M-368.6 1157.4 C -264.8 1255.6, -119.3 1119.8, -22.3 1217.1 C 81.5 1224.1, 227.0 1087.4, 324.0 1164.6 C 427.8 1167.5, 573.3 1152.8, 670.3 1107.8 C 774.1 1089.3, 919.6 1182.4, 1016.6 1081.0 C 1120.4 1076.1, 1265.9 1214.6, 1362.9 1100.6 C 1466.7 1098.2, 1612.2 1213.7, 1709.1 1154.6 C 1813.0 1154.0, 1958.5 1158.7, 2055.4 1210.3 C 2159.3 1207.0, 2304.8 1113.6, 2401.7 1233.9 C 2505.6 1214.1, 2651.1 1066.4, 2748.0 1211.1 C 2851.9 1229.7, 2997.4 1128.2, 3094.3 1155.7 C 3198.2 1155.6, 3343.7 1158.1, 3440.6 1101.4" fill="none" stroke="url(#ribbon1042)" stroke-width="46.4" stroke-linecap="round" stroke-opacity="0.198" /></g><g transform="rotate(-9.87 1536.0 1536.0)"><path d="M-368.6 1242.0 C -273.4 1331.5, -140.1 1159.1, -51.2 1277.7 C 44.0 1287.8, 177.4 1230.1, 266.2 1212.6 C 361.5 1218.3, 494.8 1275.7, 583.7 1165.4 C 678.9 1184.9, 812.2 1293.7, 901.1 1164.7 C 996.4 1137.6, 1129.7 1275.3, 1218.6 1210.8 C 1313.8 1198.9, 1447.1 1269.3, 1536.0 1275.9 C 1631.2 1268.9, 1764.6 1224.7, 1853.4 1320.4 C 1948.7 1332.8, 2082.0 1194.6, 2170.9 1317.4 C 2266.1 1290.9, 2399.4 1166.1, 2488.3 1268.6 C 2583.6 1273.8, 2716.9 1233.6, 2805.8 1203.7 C 2901.0 1193.1, 3034.3 1272.2, 3123.2 1162.1 C 3218.4 1134.6, 3351.8 1319.6, 3440.6 1168.9" fill="none" stroke="url(#ribbon1042)" stroke-width="42.4" stroke-linecap="round" stroke-opacity="0.224" /></g><g transform="rotate(-9.29 1536.0 1536.0)"><path d="M-368.6 1536.8 C -225.8 1614.1, -25.8 1478.7, 107.5 1616.3 C 250.4 1588.5, 450.4 1481.8, 583.7 1560.9 C 726.5 1556.7, 926.5 1528.9, 1059.8 1491.0 C 1202.7 1474.9, 1402.7 1564.7, 1536.0 1448.7 C 1678.8 1438.1, 1878.8 1630.0, 2012.2 1459.9 C 2155.0 1436.1, 2355.0 1608.3, 2488.3 1517.7 C 2631.2 1514.7, 2831.2 1547.9, 2964.5 1587.0 C 3107.3 1595.0, 3307.3 1493.2, 3440.6 1625.9" fill="none" stroke="url(#ribbon1042)" stroke-width="38.4" stroke-linecap="round" stroke-opacity="0.250" /></g><g transform="rotate(-8.71 1536.0 1536.0)"><path d="M-368.6 1695.3 C -241.7 1812.6, -63.9 1623.0, 54.6 1789.1 C 181.6 1822.0, 359.4 1661.8, 477.9 1740.9 C 604.8 1725.8, 782.6 1641.4, 901.1 1665.1 C 1028.1 1657.1, 1205.9 1722.8, 1324.4 1607.6 C 1451.3 1601.7, 1629.1 1740.0, 1747.6 1603.3 C 1874.6 1591.3, 2052.4 1737.2, 2170.9 1654.8 C 2297.9 1659.7, 2475.6 1740.6, 2594.1 1730.8 C 2721.1 1741.4, 2898.9 1675.2, 3017.4 1785.3 C 3144.4 1809.5, 3322.1 1603.7, 3440.6 1785.2" fill="none" stroke="url(#ribbon1042)" stroke-width="34.4" stroke-linecap="round" stroke-opacity="0.276" /></g><g transform="rotate(-8.13 1536.0 1536.0)"><path d="M-368.6 1857.1 C -254.4 1777.8, -94.4 1952.9, 12.3 1770.7 C 126.6 1794.3, 286.6 1904.7, 393.2 1839.4 C 507.5 1842.5, 667.5 1864.7, 774.1 1918.8 C 888.4 1940.8, 1048.4 1827.2, 1155.1 1960.8 C 1269.4 1950.6, 1429.3 1769.0, 1536.0 1939.9 C 1650.3 1968.6, 1810.3 1791.3, 1916.9 1868.7 C 2031.2 1871.4, 2191.2 1851.1, 2297.9 1790.5 C 2412.1 1790.2, 2572.1 1900.7, 2678.8 1752.7 C 2793.1 1771.1, 2953.1 1902.2, 3059.7 1778.2 C 3174.0 1751.0, 3334.0 1918.9, 3440.6 1851.6" fill="none" stroke="url(#ribbon1042)" stroke-width="30.4" stroke-linecap="round" stroke-opacity="0.302" /></g><g transform="rotate(-7.55 1536.0 1536.0)"><path d="M-368.6 2101.4 C -264.8 2000.9, -119.3 2202.1, -22.3 2003.3 C 81.5 2025.0, 227.0 2169.3, 324.0 2071.6 C 427.8 2063.1, 573.3 2126.8, 670.3 2157.9 C 774.1 2161.5, 919.6 2060.5, 1016.6 2210.0 C 1120.4 2222.0, 1265.9 2050.0, 1362.9 2196.2 C 1466.7 2217.7, 1612.2 2020.8, 1709.1 2124.9 C 1813.0 2128.7, 1958.5 2092.9, 2055.4 2039.3 C 2159.3 2037.6, 2304.8 2146.3, 2401.7 1991.4 C 2505.6 1985.4, 2651.1 2232.3, 2748.0 2010.2 C 2851.9 2007.6, 2997.4 2153.0, 3094.3 2084.3 C 3198.2 2079.3, 3343.7 2116.7, 3440.6 2168.8" fill="none" stroke="url(#ribbon1042)" stroke-width="26.4" stroke-linecap="round" stroke-opacity="0.328" /></g><g transform="rotate(-6.97 1536.0 1536.0)"><path d="M-368.6 2308.4 C -273.4 2423.3, -140.1 2245.8, -51.2 2310.0 C 44.0 2309.5, 177.4 2307.7, 266.2 2224.2 C 361.5 2252.0, 494.8 2390.9, 583.7 2189.5 C 678.9 2215.0, 812.2 2386.8, 901.1 2226.8 C 996.4 2245.1, 1129.7 2395.3, 1218.6 2313.6 C 1313.8 2313.6, 1447.1 2305.0, 1536.0 2397.2 C 1631.2 2373.9, 1764.6 2206.2, 1853.4 2426.9 C 1948.7 2428.0, 2082.0 2249.1, 2170.9 2384.7 C 2266.1 2372.4, 2399.4 2257.5, 2488.3 2296.2 C 2583.6 2293.6, 2716.9 2317.9, 2805.8 2215.0 C 2901.0 2209.8, 3034.3 2363.7, 3123.2 2190.5 C 3218.4 2159.8, 3351.8 2436.6, 3440.6 2237.5" fill="none" stroke="url(#ribbon1042)" stroke-width="22.4" stroke-linecap="round" stroke-opacity="0.354" /></g><g transform="rotate(-6.39 1536.0 1536.0)"><path d="M-368.6 2448.7 C -225.8 2529.7, -25.8 2393.4, 107.5 2547.8 C 250.4 2566.7, 450.4 2392.6, 583.7 2462.0 C 726.5 2466.8, 926.5 2435.4, 1059.8 2368.1 C 1202.7 2376.1, 1402.7 2513.9, 1536.0 2323.1 C 1678.8 2291.1, 1878.8 2546.2, 2012.2 2354.3 C 2155.0 2368.2, 2355.0 2553.3, 2488.3 2442.8 C 2631.2 2440.5, 2831.2 2454.7, 2964.5 2534.8 C 3107.3 2517.8, 3307.3 2367.9, 3440.6 2574.7" fill="none" stroke="url(#ribbon1042)" stroke-width="18.4" stroke-linecap="round" stroke-opacity="0.380" /></g><g transform="rotate(-5.81 1536.0 1536.0)"><path d="M-368.6 2641.5 C -241.7 2604.0, -63.9 2693.6, 54.6 2516.9 C 181.6 2524.2, 359.4 2715.6, 477.9 2521.1 C 604.8 2555.6, 782.6 2727.0, 901.1 2598.3 C 1028.1 2612.1, 1205.9 2682.3, 1324.4 2701.6 C 1451.3 2725.5, 1629.1 2593.3, 1747.6 2768.5 C 1874.6 2758.9, 2052.4 2536.5, 2170.9 2758.3 C 2297.9 2765.7, 2475.6 2594.3, 2594.1 2677.2 C 2721.1 2667.7, 2898.9 2600.5, 3017.4 2574.4 C 3144.4 2583.9, 3322.1 2667.6, 3440.6 2512.3" fill="none" stroke="url(#ribbon1042)" stroke-width="14.4" stroke-linecap="round" stroke-opacity="0.406" /></g></g>
  <g><ellipse cx="1536.0" cy="1551.9" rx="728.6" ry="605.7" fill="url(#extrude1042)" opacity="0.220" /><ellipse cx="1536.0" cy="1567.7" rx="736.0" ry="610.9" fill="url(#extrude1042)" opacity="0.205" /><ellipse cx="1536.0" cy="1583.6" rx="743.4" ry="616.1" fill="url(#extrude1042)" opacity="0.190" /><ellipse cx="1536.0" cy="1599.5" rx="750.9" ry="621.3" fill="url(#extrude1042)" opacity="0.175" /><ellipse cx="1536.0" cy="1615.4" rx="758.3" ry="626.5" fill="url(#extrude1042)" opacity="0.160" /><ellipse cx="1536.0" cy="1631.2" rx="765.7" ry="631.7" fill="url(#extrude1042)" opacity="0.145" /><ellipse cx="1536.0" cy="1647.1" rx="773.2" ry="636.9" fill="url(#extrude1042)" opacity="0.130" /><ellipse cx="1536.0" cy="1663.0" rx="780.6" ry="642.1" fill="url(#extrude1042)" opacity="0.115" /><ellipse cx="1536.0" cy="1678.8" rx="788.0" ry="647.4" fill="url(#extrude1042)" opacity="0.100" /><ellipse cx="1536.0" cy="1694.7" rx="795.5" ry="652.6" fill="url(#extrude1042)" opacity="0.085" /><ellipse cx="1536.0" cy="1710.6" rx="802.9" ry="657.8" fill="url(#extrude1042)" opacity="0.070" /><ellipse cx="1536.0" cy="1726.5" rx="810.3" ry="663.0" fill="url(#extrude1042)" opacity="0.055" /></g>
  <ellipse cx="1536.0" cy="1726.5" rx="773.2" ry="214.9" fill="#0B1D2D" opacity="0.24" />
  <ellipse cx="1536.0" cy="1536.0" rx="743.4" ry="651.3" fill="url(#orb1042)" stroke="#FFFFFF" stroke-opacity="0.42" stroke-width="7" />
  <ellipse cx="1431.9" cy="1392.7" rx="505.5" ry="299.6" fill="#FFFFFF" opacity="0.25" />
  <path d="M 199.4 399.4 C 1013.8 -30.7, 2058.2 768.0, 2872.6 215.0 L 2872.6 983.0 C 2089.0 1228.8, 1013.8 307.2, 199.4 1167.4 Z" fill="url(#glass1042)" />
  <rect x="270" y="270" width="2532" height="2532" rx="430" fill="none" stroke="#FFFFFF" stroke-opacity="0.30" stroke-width="5" />
  <rect x="288.4" y="288.4" width="2495.1" height="2495.1" rx="399" fill="none" stroke="#53E3A6" stroke-opacity="0.35" stroke-width="3" />
  <g filter="url(#soft1042)"><rect x="1227" y="2135" width="74" height="2" fill="#FFFFFF" opacity="0.354" /><rect x="1263" y="2099" width="2" height="74" fill="#FFFFFF" opacity="0.354" /><rect x="1679" y="2032" width="60" height="2" fill="#FFFFFF" opacity="0.801" /><rect x="1708" y="2003" width="2" height="60" fill="#FFFFFF" opacity="0.801" /><rect x="438" y="1112" width="80" height="2" fill="#FFFFFF" opacity="0.329" /><rect x="477" y="1073" width="2" height="80" fill="#FFFFFF" opacity="0.329" /><rect x="1978" y="614" width="54" height="2" fill="#FFFFFF" opacity="0.526" /><rect x="2004" y="588" width="2" height="54" fill="#FFFFFF" opacity="0.526" /><rect x="2041" y="1718" width="66" height="2" fill="#FFFFFF" opacity="0.619" /><rect x="2073" y="1686" width="2" height="66" fill="#FFFFFF" opacity="0.619" /><rect x="1718" y="627" width="34" height="2" fill="#FFFFFF" opacity="0.661" /><rect x="1734" y="611" width="2" height="34" fill="#FFFFFF" opacity="0.661" /><rect x="1809" y="2341" width="42" height="2" fill="#FFFFFF" opacity="0.567" /><rect x="1829" y="2321" width="2" height="42" fill="#FFFFFF" opacity="0.567" /><rect x="1276" y="1850" width="76" height="2" fill="#FFFFFF" opacity="0.650" /><rect x="1313" y="1813" width="2" height="76" fill="#FFFFFF" opacity="0.650" /><rect x="459" y="469" width="78" height="2" fill="#FFFFFF" opacity="0.643" /><rect x="497" y="431" width="2" height="78" fill="#FFFFFF" opacity="0.643" /><rect x="894" y="2274" width="72" height="2" fill="#FFFFFF" opacity="0.375" /><rect x="929" y="2239" width="2" height="72" fill="#FFFFFF" opacity="0.375" /><rect x="1742" y="1668" width="78" height="2" fill="#FFFFFF" opacity="0.458" /><rect x="1780" y="1630" width="2" height="78" fill="#FFFFFF" opacity="0.458" /><rect x="778" y="1502" width="54" height="2" fill="#FFFFFF" opacity="0.387" /><rect x="804" y="1476" width="2" height="54" fill="#FFFFFF" opacity="0.387" /><rect x="1008" y="1009" width="34" height="2" fill="#FFFFFF" opacity="0.384" /><rect x="1024" y="993" width="2" height="34" fill="#FFFFFF" opacity="0.384" /><rect x="2220" y="1767" width="38" height="2" fill="#FFFFFF" opacity="0.801" /><rect x="2238" y="1749" width="2" height="38" fill="#FFFFFF" opacity="0.801" /><rect x="2393" y="2441" width="24" height="2" fill="#FFFFFF" opacity="0.747" /><rect x="2404" y="2430" width="2" height="24" fill="#FFFFFF" opacity="0.747" /><rect x="1878" y="1568" width="28" height="2" fill="#FFFFFF" opacity="0.493" /><rect x="1891" y="1555" width="2" height="28" fill="#FFFFFF" opacity="0.493" /><rect x="1588" y="529" width="76" height="2" fill="#FFFFFF" opacity="0.765" /><rect x="1625" y="492" width="2" height="76" fill="#FFFFFF" opacity="0.765" /><rect x="1927" y="2048" width="74" height="2" fill="#FFFFFF" opacity="0.469" /><rect x="1963" y="2012" width="2" height="74" fill="#FFFFFF" opacity="0.469" /><rect x="2131" y="2661" width="78" height="2" fill="#FFFFFF" opacity="0.552" /><rect x="2169" y="2623" width="2" height="78" fill="#FFFFFF" opacity="0.552" /><rect x="969" y="939" width="72" height="2" fill="#FFFFFF" opacity="0.379" /><rect x="1004" y="904" width="2" height="72" fill="#FFFFFF" opacity="0.379" /><rect x="2064" y="1025" width="54" height="2" fill="#FFFFFF" opacity="0.684" /><rect x="2090" y="999" width="2" height="54" fill="#FFFFFF" opacity="0.684" /><rect x="614" y="1774" width="40" height="2" fill="#FFFFFF" opacity="0.848" /><rect x="633" y="1755" width="2" height="40" fill="#FFFFFF" opacity="0.848" /><rect x="1734" y="2691" width="50" height="2" fill="#FFFFFF" opacity="0.419" /><rect x="1758" y="2667" width="2" height="50" fill="#FFFFFF" opacity="0.419" /><rect x="434" y="593" width="28" height="2" fill="#FFFFFF" opacity="0.620" /><rect x="447" y="580" width="2" height="28" fill="#FFFFFF" opacity="0.620" /><rect x="2268" y="1898" width="72" height="2" fill="#FFFFFF" opacity="0.628" /><rect x="2303" y="1863" width="2" height="72" fill="#FFFFFF" opacity="0.628" /><rect x="1242" y="508" width="54" height="2" fill="#FFFFFF" opacity="0.600" /><rect x="1268" y="482" width="2" height="54" fill="#FFFFFF" opacity="0.600" /></g>
  <g opacity="0.52"><path d="M996 1582 C1316 1006, 1572 2158, 2148 1582" fill="none" stroke="#0C2030" stroke-width="90" /><circle cx="1188" cy="1582" r="109" fill="#0C2030" /><circle cx="1572" cy="1582" r="109" fill="#0C2030" /><circle cx="1956" cy="1582" r="109" fill="#0C2030" /></g>
  <g filter="url(#soft1042)"><path d="M960 1536 C1280 960, 1536 2112, 2112 1536" fill="none" stroke="url(#symbol1042)" stroke-width="90" /><circle cx="1152" cy="1536" r="109" fill="url(#symbol1042)" /><circle cx="1536" cy="1536" r="109" fill="url(#symbol1042)" /><circle cx="1920" cy="1536" r="109" fill="url(#symbol1042)" /></g>
  <rect x="138" y="138" width="2796" height="2796" rx="629" fill="#FFFFFF" filter="url(#grain1042)" opacity="0.18" />
</svg>
