<svg xmlns="http://www.w3.org/2000/svg" width="3072" height="3072" viewBox="0 0 3072 3072">
  <title>QuartzOS System Icon 023 - volume_02</title>
  <defs><linearGradient id="bg1022" x1="0%" y1="0%" x2="100%" y2="100%"><stop offset="0%" stop-color="#36D1FF" /><stop offset="26%" stop-color="#8A5CFF" /><stop offset="56%" stop-color="#FF9F43" /><stop offset="78%" stop-color="#5E86C9" /><stop offset="100%" stop-color="#1C2435" /></linearGradient><radialGradient id="sun1022" cx="31%" cy="34%" r="88%"><stop offset="0%" stop-color="#FFFFFF" stop-opacity="0.62" /><stop offset="30%" stop-color="#FFD84D" stop-opacity="0.35" /><stop offset="100%" stop-color="#FFD84D" stop-opacity="0" /></radialGradient><linearGradient id="glass1022" x1="0%" y1="0%" x2="0%" y2="100%"><stop offset="0%" stop-color="#FFFFFF" stop-opacity="0.70" /><stop offset="46%" stop-color="#FFFFFF" stop-opacity="0.26" /><stop offset="100%" stop-color="#FFFFFF" stop-opacity="0.00" /></linearGradient><linearGradient id="ribbon1022" x1="0%" y1="0%" x2="100%" y2="0%"><stop offset="0%" stop-color="#36D1FF" stop-opacity="0.18" /><stop offset="34%" stop-color="#8A5CFF" stop-opacity="0.72" /><stop offset="66%" stop-color="#FF9F43" stop-opacity="0.72" /><stop offset="100%" stop-color="#FFD84D" stop-opacity="0.18" /></linearGradient><radialGradient id="orb1022" cx="34%" cy="27%" r="74%"><stop offset="0%" stop-color="#FFFFFF" stop-opacity="0.84" /><stop offset="30%" stop-color="#36D1FF" stop-opacity="0.52" /><stop offset="68%" stop-color="#8A5CFF" stop-opacity="0.42" /><stop offset="100%" stop-color="#FF9F43" stop-opacity="0.20" /></radialGradient><linearGradient id="extrude1022" x1="0%" y1="0%" x2="0%" y2="100%"><stop offset="0%" stop-color="#15283C" stop-opacity="0.45" /><stop offset="100%" stop-color="#08131D" stop-opacity="0.06" /></linearGradient><linearGradient id="symbol1022" x1="0%" y1="0%" x2="100%" y2="100%"><stop offset="0%" stop-color="#FFFFFF" /><stop offset="100%" stop-color="#FFD84D" /></linearGradient><filter id="shadow1022" x="-40%" y="-40%" width="180%" height="180%"><feDropShadow dx="0" dy="49" stdDeviation="86" flood-color="#06111A" flood-opacity="0.54" /></filter><filter id="soft1022" x="-40%" y="-40%" width="180%" height="180%"><feDropShadow dx="0" dy="0" stdDeviation="14" flood-color="#36D1FF" flood-opacity="0.45" /></filter><filter id="grain1022"><feTurbulence type="fractalNoise" baseFrequency="0.839" numOctaves="2" seed="1022" /><feColorMatrix type="saturate" values="0" /><feComponentTransfer><feFuncA type="table" tableValues="0 0.09" /></feComponentTransfer></filter></defs>
  <rect x="138" y="138" width="2796" height="2796" rx="629" fill="url(#bg1022)" filter="url(#shadow1022)" />
  <rect x="138" y="138" width="2796" height="2796" rx="629" fill="url(#sun1022)" />
  <g><circle cx="1848" cy="1439" r="68" fill="#FFFFFF" opacity="0.203" /><circle cx="1235" cy="583" r="146" fill="#FFFFFF" opacity="0.151" /><circle cx="1360" cy="891" r="54" fill="#FFFFFF" opacity="0.123" /><circle cx="2060" cy="2014" r="55" fill="#FFFFFF" opacity="0.105" /><circle cx="2544" cy="2063" r="127" fill="#FFFFFF" opacity="0.216" /><circle cx="2688" cy="2522" r="44" fill="#FFFFFF" opacity="0.077" /><circle cx="939" cy="2670" r="130" fill="#FFFFFF" opacity="0.187" /><circle cx="1997" cy="1063" r="43" fill="#FFFFFF" opacity="0.152" /><circle cx="1334" cy="695" r="50" fill="#FFFFFF" opacity="0.219" /><circle cx="584" cy="616" r="112" fill="#FFFFFF" opacity="0.147" /><circle cx="996" cy="592" r="97" fill="#FFFFFF" opacity="0.133" /><circle cx="2161" cy="385" r="156" fill="#FFFFFF" opacity="0.111" /><circle cx="1054" cy="2263" r="118" fill="#FFFFFF" opacity="0.227" /><circle cx="1081" cy="1921" r="72" fill="#FFFFFF" opacity="0.159" /><circle cx="1686" cy="1568" r="54" fill="#FFFFFF" opacity="0.192" /><circle cx="2696" cy="426" r="98" fill="#FFFFFF" opacity="0.175" /><circle cx="2131" cy="2368" r="108" fill="#FFFFFF" opacity="0.069" /><circle cx="1841" cy="1956" r="120" fill="#FFFFFF" opacity="0.125" /><circle cx="831" cy="1757" r="117" fill="#FFFFFF" opacity="0.169" /><circle cx="1153" cy="1847" r="150" fill="#FFFFFF" opacity="0.236" /><circle cx="402" cy="1207" r="98" fill="#FFFFFF" opacity="0.169" /><circle cx="1513" cy="1022" r="144" fill="#FFFFFF" opacity="0.151" /><circle cx="1070" cy="490" r="126" fill="#FFFFFF" opacity="0.223" /><circle cx="1984" cy="2684" r="128" fill="#FFFFFF" opacity="0.128" /><circle cx="1261" cy="730" r="42" fill="#FFFFFF" opacity="0.164" /><circle cx="2215" cy="1365" r="155" fill="#FFFFFF" opacity="0.128" /><circle cx="668" cy="2222" r="78" fill="#FFFFFF" opacity="0.199" /><circle cx="2673" cy="2687" r="74" fill="#FFFFFF" opacity="0.220" /></g>
  <g><path d="M 299.8 598.5 L 2783.0 322.0 L 2783.0 808.7 L 299.8 1085.2 Z" fill="#FFFFFF" opacity="0.238" /><path d="M 306.0 891.7 L 2800.9 615.2 L 2800.9 1043.1 L 306.0 1319.6 Z" fill="#FFFFFF" opacity="0.173" /><path d="M 378.7 1118.3 L 2734.2 841.8 L 2734.2 1265.3 L 378.7 1541.8 Z" fill="#FFFFFF" opacity="0.125" /><path d="M 278.8 1429.0 L 2783.2 1152.6 L 2783.2 1648.6 L 278.8 1925.1 Z" fill="#FFFFFF" opacity="0.176" /><path d="M 391.3 1626.0 L 2864.0 1349.5 L 2864.0 1833.8 L 391.3 2110.2 Z" fill="#FFFFFF" opacity="0.239" /><path d="M 361.4 1874.2 L 2689.6 1597.7 L 2689.6 2059.1 L 361.4 2335.6 Z" fill="#FFFFFF" opacity="0.238" /><path d="M 186.3 2162.7 L 2919.8 1886.2 L 2919.8 2341.3 L 186.3 2617.7 Z" fill="#FFFFFF" opacity="0.200" /><path d="M 392.5 2441.0 L 2835.1 2164.5 L 2835.1 2648.8 L 392.5 2925.3 Z" fill="#FFFFFF" opacity="0.097" /></g>
  <g filter="url(#soft1022)"><g transform="rotate(-9.37 1536.0 1536.0)"><path d="M-368.6 485.6 C -225.8 558.5, -25.8 454.3, 107.5 519.4 C 250.4 523.8, 450.4 460.9, 583.7 477.7 C 726.5 476.5, 926.5 495.0, 1059.8 440.9 C 1202.7 436.7, 1402.7 500.4, 1536.0 431.2 C 1678.8 449.8, 1878.8 503.2, 2012.2 454.5 C 2155.0 444.6, 2355.0 514.8, 2488.3 496.8 C 2631.2 493.3, 2831.2 475.0, 2964.5 532.2 C 3107.3 540.4, 3307.3 461.1, 3440.6 539.5" fill="none" stroke="url(#ribbon1022)" stroke-width="58.4" stroke-linecap="round" stroke-opacity="0.120" /></g><g transform="rotate(-8.79 1536.0 1536.0)"><path d="M-368.6 764.3 C -241.7 816.4, -63.9 719.5, 54.6 826.2 C 181.6 826.4, 359.4 732.6, 477.9 813.0 C 604.8 814.1, 782.6 708.5, 901.1 770.3 C 1028.1 768.3, 1205.9 759.8, 1324.4 723.9 C 1451.3 709.1, 1629.1 778.0, 1747.6 702.1 C 1874.6 726.1, 2052.4 828.9, 2170.9 718.0 C 2297.9 725.9, 2475.6 806.7, 2594.1 761.9 C 2721.1 762.5, 2898.9 766.9, 3017.4 807.4 C 3144.4 811.2, 3322.1 727.1, 3440.6 826.6" fill="none" stroke="url(#ribbon1022)" stroke-width="54.4" stroke-linecap="round" stroke-opacity="0.146" /></g><g transform="rotate(-8.21 1536.0 1536.0)"><path d="M-368.6 872.0 C -254.4 855.9, -94.4 891.4, 12.3 908.9 C 126.6 917.1, 286.6 843.2, 393.2 939.9 C 507.5 949.1, 667.5 796.8, 774.1 929.7 C 888.4 938.2, 1048.4 838.1, 1155.1 884.5 C 1269.4 886.1, 1429.3 867.2, 1536.0 831.8 C 1650.3 843.7, 1810.3 884.6, 1916.9 803.4 C 2031.2 787.3, 2191.2 914.3, 2297.9 816.7 C 2412.1 829.1, 2572.1 932.2, 2678.8 863.5 C 2793.1 866.1, 2953.1 879.1, 3059.7 915.5 C 3174.0 902.8, 3334.0 850.9, 3440.6 941.2" fill="none" stroke="url(#ribbon1022)" stroke-width="50.4" stroke-linecap="round" stroke-opacity="0.172" /></g><g transform="rotate(-7.63 1536.0 1536.0)"><path d="M-368.6 1088.5 C -264.8 1191.1, -119.3 1058.4, -22.3 1126.9 C 81.5 1123.6, 227.0 1068.5, 324.0 1067.8 C 427.8 1067.8, 573.3 1099.2, 670.3 1021.3 C 774.1 1037.8, 919.6 1161.9, 1016.6 1015.5 C 1120.4 1033.8, 1265.9 1129.6, 1362.9 1054.0 C 1466.7 1056.4, 1612.2 1121.4, 1709.1 1113.4 C 1813.0 1109.7, 1958.5 1068.8, 2055.4 1157.7 C 2159.3 1172.4, 2304.8 1020.0, 2401.7 1160.0 C 2505.6 1136.3, 2651.1 1020.2, 2748.0 1118.9 C 2851.9 1124.2, 2997.4 1060.9, 3094.3 1059.4 C 3198.2 1050.6, 3343.7 1120.7, 3440.6 1017.5" fill="none" stroke="url(#ribbon1022)" stroke-width="46.4" stroke-linecap="round" stroke-opacity="0.198" /></g><g transform="rotate(-7.05 1536.0 1536.0)"><path d="M-368.6 1318.2 C -273.4 1380.1, -140.1 1278.8, -51.2 1381.9 C 44.0 1371.0, 177.4 1274.6, 266.2 1323.9 C 361.5 1325.6, 494.8 1313.2, 583.7 1262.3 C 678.9 1258.0, 812.2 1383.2, 901.1 1234.7 C 996.4 1213.3, 1129.7 1369.8, 1218.6 1257.7 C 1313.8 1268.1, 1447.1 1351.8, 1536.0 1317.3 C 1631.2 1317.1, 1764.6 1319.0, 1853.4 1377.5 C 1948.7 1360.9, 2082.0 1284.3, 2170.9 1401.7 C 2266.1 1373.2, 2399.4 1272.9, 2488.3 1375.2 C 2583.6 1378.1, 2716.9 1283.4, 2805.8 1314.1 C 2901.0 1315.3, 3034.3 1321.9, 3123.2 1255.5 C 3218.4 1250.4, 3351.8 1345.8, 3440.6 1234.9" fill="none" stroke="url(#ribbon1022)" stroke-width="42.4" stroke-linecap="round" stroke-opacity="0.224" /></g><g transform="rotate(-6.47 1536.0 1536.0)"><path d="M-368.6 1543.7 C -225.8 1526.5, -25.8 1574.3, 107.5 1586.2 C 250.4 1589.3, 450.4 1506.4, 583.7 1630.7 C 726.5 1620.4, 926.5 1486.6, 1059.8 1622.5 C 1202.7 1643.7, 1402.7 1449.3, 1536.0 1566.4 C 1678.8 1570.6, 1878.8 1529.9, 2012.2 1496.6 C 2155.0 1499.2, 2355.0 1560.0, 2488.3 1455.3 C 2631.2 1473.5, 2831.2 1637.4, 2964.5 1467.7 C 3107.3 1470.6, 3307.3 1586.0, 3440.6 1526.1" fill="none" stroke="url(#ribbon1022)" stroke-width="38.4" stroke-linecap="round" stroke-opacity="0.250" /></g><g transform="rotate(-5.89 1536.0 1536.0)"><path d="M-368.6 1735.5 C -241.7 1622.0, -63.9 1807.0, 54.6 1680.5 C 181.6 1672.7, 359.4 1793.3, 477.9 1755.1 C 604.8 1760.6, 782.6 1717.2, 901.1 1817.8 C 1028.1 1834.5, 1205.9 1709.0, 1324.4 1830.6 C 1451.3 1830.2, 1629.1 1677.1, 1747.6 1785.7 C 1874.6 1787.7, 2052.4 1707.0, 2170.9 1710.4 C 2297.9 1701.6, 2475.6 1765.7, 2594.1 1650.3 C 2721.1 1624.3, 2898.9 1782.9, 3017.4 1641.9 C 3144.4 1674.7, 3322.1 1797.4, 3440.6 1690.3" fill="none" stroke="url(#ribbon1022)" stroke-width="34.4" stroke-linecap="round" stroke-opacity="0.276" /></g><g transform="rotate(-5.31 1536.0 1536.0)"><path d="M-368.6 1937.0 C -254.4 1948.9, -94.4 1923.8, 12.3 1873.4 C 126.6 1853.5, 286.6 1975.7, 393.2 1833.0 C 507.5 1814.7, 667.5 2013.2, 774.1 1855.7 C 888.4 1828.5, 1048.4 1970.3, 1155.1 1927.7 C 1269.4 1925.0, 1429.3 1945.5, 1536.0 2005.4 C 1650.3 2004.4, 1810.3 1895.5, 1916.9 2041.6 C 2031.2 2058.8, 2191.2 1887.3, 2297.9 2014.3 C 2412.1 2009.5, 2572.1 1892.0, 2678.8 1940.2 C 2793.1 1939.1, 2953.1 1933.3, 3059.7 1864.1 C 3174.0 1863.5, 3334.0 1966.1, 3440.6 1832.3" fill="none" stroke="url(#ribbon1022)" stroke-width="30.4" stroke-linecap="round" stroke-opacity="0.302" /></g><g transform="rotate(-4.73 1536.0 1536.0)"><path d="M-368.6 2069.8 C -264.8 1924.4, -119.3 2181.9, -22.3 1974.2 C 81.5 1946.3, 227.0 2176.0, 324.0 2044.8 C 427.8 2038.4, 573.3 2078.5, 670.3 2130.6 C 774.1 2125.9, 919.6 2019.2, 1016.6 2179.5 C 1120.4 2153.9, 1265.9 2036.1, 1362.9 2161.9 C 1466.7 2194.0, 1612.2 1967.8, 1709.1 2088.4 C 1813.0 2094.3, 1958.5 2054.3, 2055.4 2003.7 C 2159.3 2003.4, 2304.8 2132.7, 2401.7 1959.1 C 2505.6 1988.6, 2651.1 2138.5, 2748.0 1981.6 C 2851.9 2009.0, 2997.4 2121.3, 3094.3 2057.7 C 3198.2 2059.4, 3343.7 2076.0, 3440.6 2141.1" fill="none" stroke="url(#ribbon1022)" stroke-width="26.4" stroke-linecap="round" stroke-opacity="0.328" /></g><g transform="rotate(-4.15 1536.0 1536.0)"><path d="M-368.6 2308.3 C -273.4 2424.9, -140.1 2222.6, -51.2 2383.6 C 44.0 2409.1, 177.4 2230.2, 266.2 2294.7 C 361.5 2299.4, 494.8 2313.4, 583.7 2214.1 C 678.9 2247.7, 812.2 2395.3, 901.1 2190.7 C 996.4 2236.0, 1129.7 2420.4, 1218.6 2238.6 C 1313.8 2234.6, 1447.1 2372.8, 1536.0 2328.8 C 1631.2 2329.8, 1764.6 2302.0, 1853.4 2406.6 C 1948.7 2371.6, 2082.0 2199.4, 2170.9 2424.8 C 2266.1 2386.4, 2399.4 2229.9, 2488.3 2372.3 C 2583.6 2355.6, 2716.9 2278.1, 2805.8 2281.0 C 2901.0 2279.1, 3034.3 2326.4, 3123.2 2206.3 C 3218.4 2216.7, 3351.8 2370.1, 3440.6 2193.5" fill="none" stroke="url(#ribbon1022)" stroke-width="22.4" stroke-linecap="round" stroke-opacity="0.354" /></g><g transform="rotate(-3.57 1536.0 1536.0)"><path d="M-368.6 2456.9 C -225.8 2453.5, -25.8 2461.5, 107.5 2363.9 C 250.4 2398.6, 450.4 2514.3, 583.7 2331.1 C 726.5 2326.6, 926.5 2524.5, 1059.8 2374.7 C 1202.7 2380.8, 1402.7 2549.8, 1536.0 2468.0 C 1678.8 2464.4, 1878.8 2446.4, 2012.2 2554.7 C 2155.0 2544.5, 2355.0 2379.3, 2488.3 2582.0 C 2631.2 2624.6, 2831.2 2307.5, 2964.5 2533.4 C 3107.3 2505.3, 3307.3 2404.8, 3440.6 2438.4" fill="none" stroke="url(#ribbon1022)" stroke-width="18.4" stroke-linecap="round" stroke-opacity="0.380" /></g><g transform="rotate(-2.99 1536.0 1536.0)"><path d="M-368.6 2711.2 C -241.7 2743.5, -63.9 2665.3, 54.6 2660.0 C 181.6 2648.2, 359.4 2738.9, 477.9 2587.4 C 604.8 2621.5, 782.6 2749.3, 901.1 2589.9 C 1028.1 2570.9, 1205.9 2788.1, 1324.4 2666.0 C 1451.3 2665.9, 1629.1 2732.7, 1747.6 2769.4 C 1874.6 2780.4, 2052.4 2659.1, 2170.9 2837.5 C 2297.9 2822.7, 2475.6 2568.7, 2594.1 2829.0 C 2721.1 2856.5, 2898.9 2618.9, 3017.4 2749.0 C 3144.4 2745.3, 3322.1 2691.8, 3440.6 2646.0" fill="none" stroke="url(#ribbon1022)" stroke-width="14.4" stroke-linecap="round" stroke-opacity="0.406" /></g></g>
  <g><ellipse cx="1536.0" cy="1551.9" rx="728.6" ry="605.7" fill="url(#extrude1022)" opacity="0.220" /><ellipse cx="1536.0" cy="1567.7" rx="736.0" ry="610.9" fill="url(#extrude1022)" opacity="0.205" /><ellipse cx="1536.0" cy="1583.6" rx="743.4" ry="616.1" fill="url(#extrude1022)" opacity="0.190" /><ellipse cx="1536.0" cy="1599.5" rx="750.9" ry="621.3" fill="url(#extrude1022)" opacity="0.175" /><ellipse cx="1536.0" cy="1615.4" rx="758.3" ry="626.5" fill="url(#extrude1022)" opacity="0.160" /><ellipse cx="1536.0" cy="1631.2" rx="765.7" ry="631.7" fill="url(#extrude1022)" opacity="0.145" /><ellipse cx="1536.0" cy="1647.1" rx="773.2" ry="636.9" fill="url(#extrude1022)" opacity="0.130" /><ellipse cx="1536.0" cy="1663.0" rx="780.6" ry="642.1" fill="url(#extrude1022)" opacity="0.115" /><ellipse cx="1536.0" cy="1678.8" rx="788.0" ry="647.4" fill="url(#extrude1022)" opacity="0.100" /><ellipse cx="1536.0" cy="1694.7" rx="795.5" ry="652.6" fill="url(#extrude1022)" opacity="0.085" /><ellipse cx="1536.0" cy="1710.6" rx="802.9" ry="657.8" fill="url(#extrude1022)" opacity="0.070" /><ellipse cx="1536.0" cy="1726.5" rx="810.3" ry="663.0" fill="url(#extrude1022)" opacity="0.055" /></g>
  <ellipse cx="1536.0" cy="1726.5" rx="773.2" ry="214.9" fill="#0B1D2D" opacity="0.24" />
  <ellipse cx="1536.0" cy="1536.0" rx="743.4" ry="651.3" fill="url(#orb1022)" stroke="#FFFFFF" stroke-opacity="0.42" stroke-width="7" />
  <ellipse cx="1431.9" cy="1392.7" rx="505.5" ry="299.6" fill="#FFFFFF" opacity="0.25" />
  <path d="M 199.4 399.4 C 1013.8 -30.7, 2058.2 768.0, 2872.6 215.0 L 2872.6 983.0 C 2089.0 1228.8, 1013.8 307.2, 199.4 1167.4 Z" fill="url(#glass1022)" />
  <rect x="270" y="270" width="2532" height="2532" rx="430" fill="none" stroke="#FFFFFF" stroke-opacity="0.30" stroke-width="5" />
  <rect x="288.4" y="288.4" width="2495.1" height="2495.1" rx="399" fill="none" stroke="#36D1FF" stroke-opacity="0.35" stroke-width="3" />
  <g filter="url(#soft1022)"><rect x="1408" y="317" width="36" height="2" fill="#FFFFFF" opacity="0.398" /><rect x="1425" y="300" width="2" height="36" fill="#FFFFFF" opacity="0.398" /><rect x="2556" y="1499" width="26" height="2" fill="#FFFFFF" opacity="0.456" /><rect x="2568" y="1487" width="2" height="26" fill="#FFFFFF" opacity="0.456" /><rect x="2021" y="432" width="34" height="2" fill="#FFFFFF" opacity="0.689" /><rect x="2037" y="416" width="2" height="34" fill="#FFFFFF" opacity="0.689" /><rect x="605" y="747" width="44" height="2" fill="#FFFFFF" opacity="0.321" /><rect x="626" y="726" width="2" height="44" fill="#FFFFFF" opacity="0.321" /><rect x="2046" y="2564" width="48" height="2" fill="#FFFFFF" opacity="0.847" /><rect x="2069" y="2541" width="2" height="48" fill="#FFFFFF" opacity="0.847" /><rect x="2396" y="2333" width="78" height="2" fill="#FFFFFF" opacity="0.611" /><rect x="2434" y="2295" width="2" height="78" fill="#FFFFFF" opacity="0.611" /><rect x="2408" y="2200" width="32" height="2" fill="#FFFFFF" opacity="0.486" /><rect x="2423" y="2185" width="2" height="32" fill="#FFFFFF" opacity="0.486" /><rect x="2153" y="2171" width="44" height="2" fill="#FFFFFF" opacity="0.332" /><rect x="2174" y="2150" width="2" height="44" fill="#FFFFFF" opacity="0.332" /><rect x="1722" y="1895" width="44" height="2" fill="#FFFFFF" opacity="0.651" /><rect x="1743" y="1874" width="2" height="44" fill="#FFFFFF" opacity="0.651" /><rect x="826" y="1687" width="52" height="2" fill="#FFFFFF" opacity="0.401" /><rect x="851" y="1662" width="2" height="52" fill="#FFFFFF" opacity="0.401" /><rect x="2156" y="651" width="58" height="2" fill="#FFFFFF" opacity="0.719" /><rect x="2184" y="623" width="2" height="58" fill="#FFFFFF" opacity="0.719" /><rect x="459" y="428" width="76" height="2" fill="#FFFFFF" opacity="0.829" /><rect x="496" y="391" width="2" height="76" fill="#FFFFFF" opacity="0.829" /><rect x="838" y="1082" width="38" height="2" fill="#FFFFFF" opacity="0.558" /><rect x="856" y="1064" width="2" height="38" fill="#FFFFFF" opacity="0.558" /><rect x="1639" y="1422" width="64" height="2" fill="#FFFFFF" opacity="0.424" /><rect x="1670" y="1391" width="2" height="64" fill="#FFFFFF" opacity="0.424" /><rect x="2189" y="1629" width="40" height="2" fill="#FFFFFF" opacity="0.790" /><rect x="2208" y="1610" width="2" height="40" fill="#FFFFFF" opacity="0.790" /><rect x="1740" y="1575" width="30" height="2" fill="#FFFFFF" opacity="0.654" /><rect x="1754" y="1561" width="2" height="30" fill="#FFFFFF" opacity="0.654" /><rect x="937" y="1522" width="68" height="2" fill="#FFFFFF" opacity="0.625" /><rect x="970" y="1489" width="2" height="68" fill="#FFFFFF" opacity="0.625" /><rect x="1560" y="2382" width="62" height="2" fill="#FFFFFF" opacity="0.460" /><rect x="1590" y="2352" width="2" height="62" fill="#FFFFFF" opacity="0.460" /><rect x="1131" y="865" width="42" height="2" fill="#FFFFFF" opacity="0.390" /><rect x="1151" y="845" width="2" height="42" fill="#FFFFFF" opacity="0.390" /><rect x="296" y="647" width="28" height="2" fill="#FFFFFF" opacity="0.737" /><rect x="309" y="634" width="2" height="28" fill="#FFFFFF" opacity="0.737" /><rect x="523" y="876" width="58" height="2" fill="#FFFFFF" opacity="0.528" /><rect x="551" y="848" width="2" height="58" fill="#FFFFFF" opacity="0.528" /><rect x="996" y="2025" width="54" height="2" fill="#FFFFFF" opacity="0.324" /><rect x="1022" y="1999" width="2" height="54" fill="#FFFFFF" opacity="0.324" /><rect x="1221" y="1767" width="84" height="2" fill="#FFFFFF" opacity="0.355" /><rect x="1262" y="1726" width="2" height="84" fill="#FFFFFF" opacity="0.355" /><rect x="2175" y="1976" width="28" height="2" fill="#FFFFFF" opacity="0.549" /><rect x="2188" y="1963" width="2" height="28" fill="#FFFFFF" opacity="0.549" /><rect x="760" y="782" width="66" height="2" fill="#FFFFFF" opacity="0.420" /><rect x="792" y="750" width="2" height="66" fill="#FFFFFF" opacity="0.420" /><rect x="2339" y="2143" width="44" height="2" fill="#FFFFFF" opacity="0.734" /><rect x="2360" y="2122" width="2" height="44" fill="#FFFFFF" opacity="0.734" /></g>
  <g opacity="0.52"><path d="M996 1582 L1316 2131 L2148 1121" fill="none" stroke="#0C2030" stroke-width="90" stroke-linecap="round" stroke-linejoin="round" /><circle cx="996" cy="1582" r="47" fill="#0C2030" /><circle cx="1316" cy="2131" r="47" fill="#0C2030" /><circle cx="2148" cy="1121" r="47" fill="#0C2030" /></g>
  <g filter="url(#soft1022)"><path d="M960 1536 L1280 2085 L2112 1075" fill="none" stroke="url(#symbol1022)" stroke-width="90" stroke-linecap="round" stroke-linejoin="round" /><circle cx="960" cy="1536" r="47" fill="url(#symbol1022)" /><circle cx="1280" cy="2085" r="47" fill="url(#symbol1022)" /><circle cx="2112" cy="1075" r="47" fill="url(#symbol1022)" /></g>
  <rect x="138" y="138" width="2796" height="2796" rx="629" fill="#FFFFFF" filter="url(#grain1022)" opacity="0.18" />
</svg>
