<svg xmlns="http://www.w3.org/2000/svg" width="3072" height="3072" viewBox="0 0 3072 3072">
  <title>QuartzOS System Icon 071 - wifi_04</title>
  <defs><linearGradient id="bg1070" x1="0%" y1="0%" x2="100%" y2="100%"><stop offset="0%" stop-color="#53E3A6" /><stop offset="26%" stop-color="#3B82FF" /><stop offset="56%" stop-color="#FF6AB3" /><stop offset="78%" stop-color="#5E86C9" /><stop offset="100%" stop-color="#1C2435" /></linearGradient><radialGradient id="sun1070" cx="46%" cy="32%" r="88%"><stop offset="0%" stop-color="#FFFFFF" stop-opacity="0.62" /><stop offset="30%" stop-color="#FF9F43" stop-opacity="0.35" /><stop offset="100%" stop-color="#FF9F43" stop-opacity="0" /></radialGradient><linearGradient id="glass1070" x1="0%" y1="0%" x2="0%" y2="100%"><stop offset="0%" stop-color="#FFFFFF" stop-opacity="0.70" /><stop offset="46%" stop-color="#FFFFFF" stop-opacity="0.26" /><stop offset="100%" stop-color="#FFFFFF" stop-opacity="0.00" /></linearGradient><linearGradient id="ribbon1070" x1="0%" y1="0%" x2="100%" y2="0%"><stop offset="0%" stop-color="#53E3A6" stop-opacity="0.18" /><stop offset="34%" stop-color="#3B82FF" stop-opacity="0.72" /><stop offset="66%" stop-color="#FF6AB3" stop-opacity="0.72" /><stop offset="100%" stop-color="#FF9F43" stop-opacity="0.18" /></linearGradient><radialGradient id="orb1070" cx="34%" cy="27%" r="74%"><stop offset="0%" stop-color="#FFFFFF" stop-opacity="0.84" /><stop offset="30%" stop-color="#53E3A6" stop-opacity="0.52" /><stop offset="68%" stop-color="#3B82FF" stop-opacity="0.42" /><stop offset="100%" stop-color="#FF6AB3" stop-opacity="0.20" /></radialGradient><linearGradient id="extrude1070" x1="0%" y1="0%" x2="0%" y2="100%"><stop offset="0%" stop-color="#15283C" stop-opacity="0.45" /><stop offset="100%" stop-color="#08131D" stop-opacity="0.06" /></linearGradient><linearGradient id="symbol1070" x1="0%" y1="0%" x2="100%" y2="100%"><stop offset="0%" stop-color="#FFFFFF" /><stop offset="100%" stop-color="#FF9F43" /></linearGradient><filter id="shadow1070" x="-40%" y="-40%" width="180%" height="180%"><feDropShadow dx="0" dy="49" stdDeviation="86" flood-color="#06111A" flood-opacity="0.54" /></filter><filter id="soft1070" x="-40%" y="-40%" width="180%" height="180%"><feDropShadow dx="0" dy="0" stdDeviation="14" flood-color="#53E3A6" flood-opacity="0.45" /></filter><filter id="grain1070"><feTurbulence type="fractalNoise" baseFrequency="0.670" numOctaves="2" seed="1070" /><feColorMatrix type="saturate" values="0" /><feComponentTransfer><feFuncA type="table" tableValues="0 0.09" /></feComponentTransfer></filter></defs>
  <rect x="138" y="138" width="2796" height="2796" rx="629" fill="url(#bg1070)" filter="url(#shadow1070)" />
  <rect x="138" y="138" width="2796" height="2796" rx="629" fill="url(#sun1070)" />
  <g><circle cx="424" cy="1831" r="76" fill="#FFFFFF" opacity="0.116" /><circle cx="996" cy="1518" r="111" fill="#FFFFFF" opacity="0.108" /><circle cx="708" cy="1798" r="72" fill="#FFFFFF" opacity="0.235" /><circle cx="2641" cy="1714" r="41" fill="#FFFFFF" opacity="0.141" /><circle cx="2521" cy="2163" r="39" fill="#FFFFFF" opacity="0.100" /><circle cx="2244" cy="1452" r="124" fill="#FFFFFF" opacity="0.119" /><circle cx="2059" cy="2083" r="66" fill="#FFFFFF" opacity="0.239" /><circle cx="931" cy="797" r="70" fill="#FFFFFF" opacity="0.147" /><circle cx="2481" cy="1593" r="57" fill="#FFFFFF" opacity="0.198" /><circle cx="1160" cy="1003" r="39" fill="#FFFFFF" opacity="0.062" /><circle cx="927" cy="914" r="127" fill="#FFFFFF" opacity="0.070" /><circle cx="2561" cy="1801" r="66" fill="#FFFFFF" opacity="0.127" /><circle cx="1363" cy="1718" r="97" fill="#FFFFFF" opacity="0.091" /><circle cx="2602" cy="640" r="38" fill="#FFFFFF" opacity="0.171" /><circle cx="1892" cy="746" r="149" fill="#FFFFFF" opacity="0.126" /><circle cx="2064" cy="1055" r="122" fill="#FFFFFF" opacity="0.218" /><circle cx="884" cy="2149" r="88" fill="#FFFFFF" opacity="0.097" /><circle cx="1324" cy="1425" r="144" fill="#FFFFFF" opacity="0.095" /><circle cx="926" cy="624" r="144" fill="#FFFFFF" opacity="0.120" /><circle cx="1456" cy="2444" r="148" fill="#FFFFFF" opacity="0.180" /><circle cx="1232" cy="2447" r="116" fill="#FFFFFF" opacity="0.150" /><circle cx="803" cy="2167" r="45" fill="#FFFFFF" opacity="0.216" /><circle cx="1884" cy="518" r="71" fill="#FFFFFF" opacity="0.222" /><circle cx="1040" cy="2583" r="60" fill="#FFFFFF" opacity="0.174" /><circle cx="1209" cy="1682" r="119" fill="#FFFFFF" opacity="0.216" /><circle cx="1707" cy="1367" r="147" fill="#FFFFFF" opacity="0.082" /><circle cx="2641" cy="880" r="144" fill="#FFFFFF" opacity="0.209" /><circle cx="1889" cy="2347" r="93" fill="#FFFFFF" opacity="0.097" /></g>
  <g><path d="M 154.4 582.1 L 2775.8 305.6 L 2775.8 771.8 L 154.4 1048.3 Z" fill="#FFFFFF" opacity="0.195" /><path d="M 164.6 877.8 L 2717.7 601.3 L 2717.7 1083.2 L 164.6 1359.7 Z" fill="#FFFFFF" opacity="0.206" /><path d="M 153.3 1098.8 L 2779.1 822.3 L 2779.1 1284.2 L 153.3 1560.7 Z" fill="#FFFFFF" opacity="0.214" /><path d="M 203.0 1413.2 L 2899.6 1136.7 L 2899.6 1605.8 L 203.0 1882.3 Z" fill="#FFFFFF" opacity="0.211" /><path d="M 289.3 1676.5 L 2737.4 1400.0 L 2737.4 1831.0 L 289.3 2107.5 Z" fill="#FFFFFF" opacity="0.126" /><path d="M 285.3 1943.7 L 2892.6 1667.2 L 2892.6 2153.6 L 285.3 2430.1 Z" fill="#FFFFFF" opacity="0.146" /><path d="M 259.1 2151.1 L 2845.7 1874.6 L 2845.7 2296.0 L 259.1 2572.5 Z" fill="#FFFFFF" opacity="0.203" /><path d="M 281.3 2463.3 L 2794.8 2186.8 L 2794.8 2651.6 L 281.3 2928.0 Z" fill="#FFFFFF" opacity="0.186" /></g>
  <g filter="url(#soft1070)"><g transform="rotate(-19.68 1536.0 1536.0)"><path d="M-368.6 560.9 C -225.8 506.0, -25.8 618.4, 107.5 518.3 C 250.4 535.0, 450.4 597.7, 583.7 556.6 C 726.5 556.6, 926.5 563.1, 1059.8 597.4 C 1202.7 594.1, 1402.7 543.7, 1536.0 616.1 C 1678.8 636.9, 1878.8 525.1, 2012.2 601.2 C 2155.0 591.2, 2355.0 534.3, 2488.3 561.9 C 2631.2 562.1, 2831.2 560.5, 2964.5 521.9 C 3107.3 535.2, 3307.3 586.2, 3440.6 505.6" fill="none" stroke="url(#ribbon1070)" stroke-width="58.4" stroke-linecap="round" stroke-opacity="0.120" /></g><g transform="rotate(-19.10 1536.0 1536.0)"><path d="M-368.6 670.5 C -241.7 587.7, -63.9 701.7, 54.6 619.0 C 181.6 620.9, 359.4 703.7, 477.9 659.8 C 604.8 658.2, 782.6 682.9, 901.1 707.1 C 1028.1 719.8, 1205.9 645.4, 1324.4 732.2 C 1451.3 739.9, 1629.1 619.3, 1747.6 719.9 C 1874.6 724.6, 2052.4 655.3, 2170.9 677.6 C 2297.9 679.9, 2475.6 666.8, 2594.1 631.0 C 2721.1 634.3, 2898.9 702.5, 3017.4 608.4 C 3144.4 600.4, 3322.1 714.0, 3440.6 623.4" fill="none" stroke="url(#ribbon1070)" stroke-width="54.4" stroke-linecap="round" stroke-opacity="0.146" /></g><g transform="rotate(-18.52 1536.0 1536.0)"><path d="M-368.6 867.4 C -254.4 920.8, -94.4 833.3, 12.3 881.1 C 126.6 876.1, 286.6 862.7, 393.2 828.1 C 507.5 826.8, 667.5 889.7, 774.1 799.0 C 888.4 798.5, 1048.4 895.8, 1155.1 811.4 C 1269.4 799.0, 1429.3 907.7, 1536.0 857.7 C 1650.3 856.9, 1810.3 871.4, 1916.9 910.0 C 2031.2 901.7, 2191.2 827.4, 2297.9 936.4 C 2412.1 953.6, 2572.1 833.9, 2678.8 921.0 C 2793.1 917.4, 2953.1 838.0, 3059.7 873.0 C 3174.0 871.2, 3334.0 861.2, 3440.6 821.7" fill="none" stroke="url(#ribbon1070)" stroke-width="50.4" stroke-linecap="round" stroke-opacity="0.172" /></g><g transform="rotate(-17.94 1536.0 1536.0)"><path d="M-368.6 1050.5 C -264.8 1079.4, -119.3 1031.4, -22.3 1023.6 C 81.5 1034.1, 227.0 1065.4, 324.0 980.4 C 427.8 1001.1, 573.3 1128.1, 670.3 979.6 C 774.1 991.0, 919.6 1074.5, 1016.6 1021.9 C 1120.4 1025.4, 1265.9 1084.1, 1362.9 1081.4 C 1466.7 1093.1, 1612.2 1036.5, 1709.1 1122.2 C 1813.0 1127.4, 1958.5 974.5, 2055.4 1119.5 C 2159.3 1139.1, 2304.8 1015.2, 2401.7 1074.9 C 2505.6 1083.7, 2651.1 1033.9, 2748.0 1015.5 C 2851.9 1011.1, 2997.4 1077.5, 3094.3 977.3 C 3198.2 969.5, 3343.7 1087.8, 3440.6 983.5" fill="none" stroke="url(#ribbon1070)" stroke-width="46.4" stroke-linecap="round" stroke-opacity="0.198" /></g><g transform="rotate(-17.36 1536.0 1536.0)"><path d="M-368.6 1312.3 C -273.4 1271.2, -140.1 1341.8, -51.2 1233.6 C 44.0 1241.1, 177.4 1350.0, 266.2 1237.3 C 361.5 1209.4, 494.8 1348.7, 583.7 1286.6 C 678.9 1283.0, 812.2 1339.9, 901.1 1351.4 C 996.4 1344.4, 1129.7 1290.4, 1218.6 1392.5 C 1313.8 1377.4, 1447.1 1275.6, 1536.0 1384.9 C 1631.2 1381.7, 1764.6 1266.7, 1853.4 1333.3 C 1948.7 1327.9, 2082.0 1304.3, 2170.9 1268.9 C 2266.1 1276.6, 2399.4 1329.6, 2488.3 1230.8 C 2583.6 1206.0, 2716.9 1338.9, 2805.8 1242.1 C 2901.0 1214.2, 3034.3 1376.3, 3123.2 1296.0 C 3218.4 1298.5, 3351.8 1330.4, 3440.6 1359.7" fill="none" stroke="url(#ribbon1070)" stroke-width="42.4" stroke-linecap="round" stroke-opacity="0.224" /></g><g transform="rotate(-16.78 1536.0 1536.0)"><path d="M-368.6 1527.9 C -225.8 1435.7, -25.8 1618.9, 107.5 1505.2 C 250.4 1498.9, 450.4 1544.4, 583.7 1575.0 C 726.5 1585.7, 926.5 1485.8, 1059.8 1616.2 C 1202.7 1649.7, 1402.7 1456.3, 1536.0 1603.8 C 1678.8 1600.3, 1878.8 1482.8, 2012.2 1545.3 C 2155.0 1539.3, 2355.0 1515.5, 2488.3 1476.2 C 2631.2 1482.5, 2831.2 1543.9, 2964.5 1438.5 C 3107.3 1413.2, 3307.3 1562.0, 3440.6 1454.9" fill="none" stroke="url(#ribbon1070)" stroke-width="38.4" stroke-linecap="round" stroke-opacity="0.250" /></g><g transform="rotate(-16.20 1536.0 1536.0)"><path d="M-368.6 1624.3 C -241.7 1556.4, -63.9 1697.8, 54.6 1619.0 C 181.6 1616.9, 359.4 1626.5, 477.9 1690.6 C 604.8 1704.7, 782.6 1590.7, 901.1 1722.0 C 1028.1 1728.1, 1205.9 1566.5, 1324.4 1694.1 C 1451.3 1692.8, 1629.1 1587.4, 1747.6 1623.9 C 1874.6 1624.1, 2052.4 1624.6, 2170.9 1553.9 C 2297.9 1534.8, 2475.6 1663.8, 2594.1 1526.7 C 2721.1 1554.4, 2898.9 1721.3, 3017.4 1558.6 C 3144.4 1572.2, 3322.1 1676.1, 3440.6 1630.4" fill="none" stroke="url(#ribbon1070)" stroke-width="34.4" stroke-linecap="round" stroke-opacity="0.276" /></g><g transform="rotate(-15.62 1536.0 1536.0)"><path d="M-368.6 1925.2 C -254.4 1789.3, -94.4 2008.8, 12.3 1840.2 C 126.6 1863.2, 286.6 1981.3, 393.2 1909.9 C 507.5 1906.5, 667.5 1935.8, 774.1 1988.9 C 888.4 2012.2, 1048.4 1882.1, 1155.1 2029.2 C 1269.4 2041.4, 1429.3 1809.1, 1536.0 2006.5 C 1650.3 2027.4, 1810.3 1831.6, 1916.9 1934.4 C 2031.2 1933.7, 2191.2 1920.7, 2297.9 1856.8 C 2412.1 1834.9, 2572.1 1982.4, 2678.8 1820.6 C 2793.1 1845.6, 2953.1 1987.7, 3059.7 1847.9 C 3174.0 1864.6, 3334.0 1991.5, 3440.6 1922.1" fill="none" stroke="url(#ribbon1070)" stroke-width="30.4" stroke-linecap="round" stroke-opacity="0.302" /></g><g transform="rotate(-15.04 1536.0 1536.0)"><path d="M-368.6 2017.4 C -264.8 2024.7, -119.3 2012.4, -22.3 2105.0 C 81.5 2132.8, 227.0 1933.4, 324.0 2128.3 C 427.8 2115.2, 573.3 1920.1, 670.3 2084.3 C 774.1 2063.9, 919.6 1973.8, 1016.6 1999.8 C 1120.4 1998.5, 1265.9 2029.0, 1362.9 1925.9 C 1466.7 1931.2, 1612.2 2095.7, 1709.1 1907.6 C 1813.0 1880.8, 1958.5 2081.1, 2055.4 1955.8 C 2159.3 1965.3, 2304.8 2077.4, 2401.7 2041.5 C 2505.6 2037.7, 2651.1 1988.6, 2748.0 2112.5 C 2851.9 2096.6, 2997.4 1909.1, 3094.3 2125.9 C 3198.2 2119.7, 3343.7 1921.2, 3440.6 2073.4" fill="none" stroke="url(#ribbon1070)" stroke-width="26.4" stroke-linecap="round" stroke-opacity="0.328" /></g><g transform="rotate(-14.46 1536.0 1536.0)"><path d="M-368.6 2222.3 C -273.4 2218.3, -140.1 2226.4, -51.2 2304.8 C 44.0 2308.0, 177.4 2128.5, 266.2 2341.2 C 361.5 2360.3, 494.8 2120.1, 583.7 2305.5 C 678.9 2314.6, 812.2 2183.5, 901.1 2219.3 C 996.4 2219.3, 1129.7 2223.4, 1218.6 2134.9 C 1313.8 2106.8, 1447.1 2257.4, 1536.0 2103.6 C 1631.2 2061.7, 1764.6 2351.0, 1853.4 2144.2 C 1948.7 2168.1, 2082.0 2262.7, 2170.9 2232.2 C 2266.1 2235.9, 2399.4 2217.5, 2488.3 2314.2 C 2583.6 2282.8, 2716.9 2174.9, 2805.8 2340.4 C 2901.0 2325.3, 3034.3 2178.0, 3123.2 2295.0 C 3218.4 2305.8, 3351.8 2152.1, 3440.6 2205.5" fill="none" stroke="url(#ribbon1070)" stroke-width="22.4" stroke-linecap="round" stroke-opacity="0.354" /></g><g transform="rotate(-13.88 1536.0 1536.0)"><path d="M-368.6 2414.9 C -225.8 2461.2, -25.8 2385.2, 107.5 2531.2 C 250.4 2558.6, 450.4 2290.2, 583.7 2530.7 C 726.5 2552.4, 926.5 2302.2, 1059.8 2460.0 C 1202.7 2473.4, 1402.7 2400.0, 1536.0 2362.0 C 1678.8 2368.1, 1878.8 2433.4, 2012.2 2296.1 C 2155.0 2290.1, 2355.0 2469.4, 2488.3 2302.3 C 2631.2 2267.8, 2831.2 2524.4, 2964.5 2376.8 C 3107.3 2383.4, 3307.3 2441.3, 3440.6 2474.5" fill="none" stroke="url(#ribbon1070)" stroke-width="18.4" stroke-linecap="round" stroke-opacity="0.380" /></g><g transform="rotate(-13.30 1536.0 1536.0)"><path d="M-368.6 2695.2 C -241.7 2782.4, -63.9 2646.0, 54.6 2667.7 C 181.6 2674.2, 359.4 2717.8, 477.9 2582.7 C 604.8 2578.8, 782.6 2785.7, 901.1 2565.9 C 1028.1 2522.9, 1205.9 2788.7, 1324.4 2627.5 C 1451.3 2630.8, 1629.1 2769.3, 1747.6 2730.2 C 1874.6 2737.8, 2052.4 2668.1, 2170.9 2811.6 C 2297.9 2784.7, 2475.6 2628.3, 2594.1 2822.4 C 2721.1 2778.3, 2898.9 2601.8, 3017.4 2756.0 C 3144.4 2735.6, 3322.1 2672.5, 3440.6 2652.7" fill="none" stroke="url(#ribbon1070)" stroke-width="14.4" stroke-linecap="round" stroke-opacity="0.406" /></g></g>
  <g><ellipse cx="1536.0" cy="1551.9" rx="728.6" ry="605.7" fill="url(#extrude1070)" opacity="0.220" /><ellipse cx="1536.0" cy="1567.7" rx="736.0" ry="610.9" fill="url(#extrude1070)" opacity="0.205" /><ellipse cx="1536.0" cy="1583.6" rx="743.4" ry="616.1" fill="url(#extrude1070)" opacity="0.190" /><ellipse cx="1536.0" cy="1599.5" rx="750.9" ry="621.3" fill="url(#extrude1070)" opacity="0.175" /><ellipse cx="1536.0" cy="1615.4" rx="758.3" ry="626.5" fill="url(#extrude1070)" opacity="0.160" /><ellipse cx="1536.0" cy="1631.2" rx="765.7" ry="631.7" fill="url(#extrude1070)" opacity="0.145" /><ellipse cx="1536.0" cy="1647.1" rx="773.2" ry="636.9" fill="url(#extrude1070)" opacity="0.130" /><ellipse cx="1536.0" cy="1663.0" rx="780.6" ry="642.1" fill="url(#extrude1070)" opacity="0.115" /><ellipse cx="1536.0" cy="1678.8" rx="788.0" ry="647.4" fill="url(#extrude1070)" opacity="0.100" /><ellipse cx="1536.0" cy="1694.7" rx="795.5" ry="652.6" fill="url(#extrude1070)" opacity="0.085" /><ellipse cx="1536.0" cy="1710.6" rx="802.9" ry="657.8" fill="url(#extrude1070)" opacity="0.070" /><ellipse cx="1536.0" cy="1726.5" rx="810.3" ry="663.0" fill="url(#extrude1070)" opacity="0.055" /></g>
  <ellipse cx="1536.0" cy="1726.5" rx="773.2" ry="214.9" fill="#0B1D2D" opacity="0.24" />
  <ellipse cx="1536.0" cy="1536.0" rx="743.4" ry="651.3" fill="url(#orb1070)" stroke="#FFFFFF" stroke-opacity="0.42" stroke-width="7" />
  <ellipse cx="1431.9" cy="1392.7" rx="505.5" ry="299.6" fill="#FFFFFF" opacity="0.25" />
  <path d="M 199.4 399.4 C 1013.8 -30.7, 2058.2 768.0, 2872.6 215.0 L 2872.6 983.0 C 2089.0 1228.8, 1013.8 307.2, 199.4 1167.4 Z" fill="url(#glass1070)" />
  <rect x="270" y="270" width="2532" height="2532" rx="430" fill="none" stroke="#FFFFFF" stroke-opacity="0.30" stroke-width="5" />
  <rect x="288.4" y="288.4" width="2495.1" height="2495.1" rx="399" fill="none" stroke="#53E3A6" stroke-opacity="0.35" stroke-width="3" />
  <g filter="url(#soft1070)"><rect x="1543" y="1095" width="54" height="2" fill="#FFFFFF" opacity="0.484" /><rect x="1569" y="1069" width="2" height="54" fill="#FFFFFF" opacity="0.484" /><rect x="2167" y="870" width="28" height="2" fill="#FFFFFF" opacity="0.448" /><rect x="2180" y="857" width="2" height="28" fill="#FFFFFF" opacity="0.448" /><rect x="1106" y="1375" width="46" height="2" fill="#FFFFFF" opacity="0.756" /><rect x="1128" y="1353" width="2" height="46" fill="#FFFFFF" opacity="0.756" /><rect x="2405" y="1743" width="66" height="2" fill="#FFFFFF" opacity="0.752" /><rect x="2437" y="1711" width="2" height="66" fill="#FFFFFF" opacity="0.752" /><rect x="1982" y="681" width="44" height="2" fill="#FFFFFF" opacity="0.725" /><rect x="2003" y="660" width="2" height="44" fill="#FFFFFF" opacity="0.725" /><rect x="1841" y="2419" width="52" height="2" fill="#FFFFFF" opacity="0.312" /><rect x="1866" y="2394" width="2" height="52" fill="#FFFFFF" opacity="0.312" /><rect x="934" y="2744" width="32" height="2" fill="#FFFFFF" opacity="0.752" /><rect x="949" y="2729" width="2" height="32" fill="#FFFFFF" opacity="0.752" /><rect x="2439" y="1451" width="64" height="2" fill="#FFFFFF" opacity="0.559" /><rect x="2470" y="1420" width="2" height="64" fill="#FFFFFF" opacity="0.559" /><rect x="711" y="2510" width="48" height="2" fill="#FFFFFF" opacity="0.699" /><rect x="734" y="2487" width="2" height="48" fill="#FFFFFF" opacity="0.699" /><rect x="1338" y="1692" width="40" height="2" fill="#FFFFFF" opacity="0.317" /><rect x="1357" y="1673" width="2" height="40" fill="#FFFFFF" opacity="0.317" /><rect x="1085" y="2283" width="64" height="2" fill="#FFFFFF" opacity="0.472" /><rect x="1116" y="2252" width="2" height="64" fill="#FFFFFF" opacity="0.472" /><rect x="353" y="1965" width="30" height="2" fill="#FFFFFF" opacity="0.494" /><rect x="367" y="1951" width="2" height="30" fill="#FFFFFF" opacity="0.494" /><rect x="638" y="314" width="70" height="2" fill="#FFFFFF" opacity="0.320" /><rect x="672" y="280" width="2" height="70" fill="#FFFFFF" opacity="0.320" /><rect x="1350" y="1469" width="56" height="2" fill="#FFFFFF" opacity="0.820" /><rect x="1377" y="1442" width="2" height="56" fill="#FFFFFF" opacity="0.820" /><rect x="1919" y="2225" width="58" height="2" fill="#FFFFFF" opacity="0.353" /><rect x="1947" y="2197" width="2" height="58" fill="#FFFFFF" opacity="0.353" /><rect x="2374" y="1835" width="28" height="2" fill="#FFFFFF" opacity="0.755" /><rect x="2387" y="1822" width="2" height="28" fill="#FFFFFF" opacity="0.755" /><rect x="2221" y="2352" width="80" height="2" fill="#FFFFFF" opacity="0.356" /><rect x="2260" y="2313" width="2" height="80" fill="#FFFFFF" opacity="0.356" /><rect x="1921" y="1777" width="68" height="2" fill="#FFFFFF" opacity="0.702" /><rect x="1954" y="1744" width="2" height="68" fill="#FFFFFF" opacity="0.702" /><rect x="386" y="518" width="84" height="2" fill="#FFFFFF" opacity="0.472" /><rect x="427" y="477" width="2" height="84" fill="#FFFFFF" opacity="0.472" /><rect x="1872" y="1977" width="44" height="2" fill="#FFFFFF" opacity="0.775" /><rect x="1893" y="1956" width="2" height="44" fill="#FFFFFF" opacity="0.775" /><rect x="1709" y="1335" width="66" height="2" fill="#FFFFFF" opacity="0.541" /><rect x="1741" y="1303" width="2" height="66" fill="#FFFFFF" opacity="0.541" /><rect x="666" y="2569" width="48" height="2" fill="#FFFFFF" opacity="0.433" /><rect x="689" y="2546" width="2" height="48" fill="#FFFFFF" opacity="0.433" /><rect x="1060" y="1056" width="28" height="2" fill="#FFFFFF" opacity="0.848" /><rect x="1073" y="1043" width="2" height="28" fill="#FFFFFF" opacity="0.848" /><rect x="2795" y="787" width="30" height="2" fill="#FFFFFF" opacity="0.623" /><rect x="2809" y="773" width="2" height="30" fill="#FFFFFF" opacity="0.623" /><rect x="1983" y="2302" width="84" height="2" fill="#FFFFFF" opacity="0.433" /><rect x="2024" y="2261" width="2" height="84" fill="#FFFFFF" opacity="0.433" /><rect x="1057" y="1358" width="80" height="2" fill="#FFFFFF" opacity="0.727" /><rect x="1096" y="1319" width="2" height="80" fill="#FFFFFF" opacity="0.727" /></g>
  <g opacity="0.52"><path d="M996 1582 L1316 2131 L2148 1121" fill="none" stroke="#0C2030" stroke-width="90" stroke-linecap="round" stroke-linejoin="round" /><circle cx="996" cy="1582" r="47" fill="#0C2030" /><circle cx="1316" cy="2131" r="47" fill="#0C2030" /><circle cx="2148" cy="1121" r="47" fill="#0C2030" /></g>
  <g filter="url(#soft1070)"><path d="M960 1536 L1280 2085 L2112 1075" fill="none" stroke="url(#symbol1070)" stroke-width="90" stroke-linecap="round" stroke-linejoin="round" /><circle cx="960" cy="1536" r="47" fill="url(#symbol1070)" /><circle cx="1280" cy="2085" r="47" fill="url(#symbol1070)" /><circle cx="2112" cy="1075" r="47" fill="url(#symbol1070)" /></g>
  <rect x="138" y="138" width="2796" height="2796" rx="629" fill="#FFFFFF" filter="url(#grain1070)" opacity="0.18" />
</svg>
