<svg xmlns="http://www.w3.org/2000/svg" width="3072" height="3072" viewBox="0 0 3072 3072">
  <title>QuartzOS App Icon 281 - aero_settings_281</title>
  <defs><linearGradient id="bg280" x1="0%" y1="0%" x2="100%" y2="100%"><stop offset="0%" stop-color="#36D1FF" /><stop offset="26%" stop-color="#8A5CFF" /><stop offset="56%" stop-color="#FF9F43" /><stop offset="78%" stop-color="#5AA47F" /><stop offset="100%" stop-color="#1A2B22" /></linearGradient><radialGradient id="sun280" cx="24%" cy="25%" r="88%"><stop offset="0%" stop-color="#FFFFFF" stop-opacity="0.62" /><stop offset="30%" stop-color="#FFD84D" stop-opacity="0.35" /><stop offset="100%" stop-color="#FFD84D" stop-opacity="0" /></radialGradient><linearGradient id="glass280" x1="0%" y1="0%" x2="0%" y2="100%"><stop offset="0%" stop-color="#FFFFFF" stop-opacity="0.70" /><stop offset="46%" stop-color="#FFFFFF" stop-opacity="0.26" /><stop offset="100%" stop-color="#FFFFFF" stop-opacity="0.00" /></linearGradient><linearGradient id="ribbon280" x1="0%" y1="0%" x2="100%" y2="0%"><stop offset="0%" stop-color="#36D1FF" stop-opacity="0.18" /><stop offset="34%" stop-color="#8A5CFF" stop-opacity="0.72" /><stop offset="66%" stop-color="#FF9F43" stop-opacity="0.72" /><stop offset="100%" stop-color="#FFD84D" stop-opacity="0.18" /></linearGradient><radialGradient id="orb280" cx="34%" cy="27%" r="74%"><stop offset="0%" stop-color="#FFFFFF" stop-opacity="0.84" /><stop offset="30%" stop-color="#36D1FF" stop-opacity="0.52" /><stop offset="68%" stop-color="#8A5CFF" stop-opacity="0.42" /><stop offset="100%" stop-color="#FF9F43" stop-opacity="0.20" /></radialGradient><linearGradient id="extrude280" x1="0%" y1="0%" x2="0%" y2="100%"><stop offset="0%" stop-color="#15283C" stop-opacity="0.45" /><stop offset="100%" stop-color="#08131D" stop-opacity="0.06" /></linearGradient><linearGradient id="symbol280" x1="0%" y1="0%" x2="100%" y2="100%"><stop offset="0%" stop-color="#FFFFFF" /><stop offset="100%" stop-color="#FFD84D" /></linearGradient><filter id="shadow280" x="-40%" y="-40%" width="180%" height="180%"><feDropShadow dx="0" dy="49" stdDeviation="86" flood-color="#06111A" flood-opacity="0.54" /></filter><filter id="soft280" x="-40%" y="-40%" width="180%" height="180%"><feDropShadow dx="0" dy="0" stdDeviation="14" flood-color="#36D1FF" flood-opacity="0.45" /></filter><filter id="grain280"><feTurbulence type="fractalNoise" baseFrequency="0.864" numOctaves="2" seed="280" /><feColorMatrix type="saturate" values="0" /><feComponentTransfer><feFuncA type="table" tableValues="0 0.09" /></feComponentTransfer></filter></defs>
  <rect x="138" y="138" width="2796" height="2796" rx="629" fill="url(#bg280)" filter="url(#shadow280)" />
  <rect x="138" y="138" width="2796" height="2796" rx="629" fill="url(#sun280)" />
  <g><circle cx="399" cy="843" r="126" fill="#FFFFFF" opacity="0.221" /><circle cx="2130" cy="1355" r="116" fill="#FFFFFF" opacity="0.066" /><circle cx="1381" cy="327" r="95" fill="#FFFFFF" opacity="0.240" /><circle cx="444" cy="502" r="127" fill="#FFFFFF" opacity="0.105" /><circle cx="2027" cy="533" r="64" fill="#FFFFFF" opacity="0.065" /><circle cx="2078" cy="1224" r="112" fill="#FFFFFF" opacity="0.092" /><circle cx="1626" cy="853" r="68" fill="#FFFFFF" opacity="0.192" /><circle cx="919" cy="2218" r="55" fill="#FFFFFF" opacity="0.207" /><circle cx="400" cy="1954" r="64" fill="#FFFFFF" opacity="0.193" /><circle cx="980" cy="339" r="60" fill="#FFFFFF" opacity="0.121" /><circle cx="1295" cy="929" r="143" fill="#FFFFFF" opacity="0.218" /><circle cx="1924" cy="1105" r="104" fill="#FFFFFF" opacity="0.083" /><circle cx="1412" cy="1579" r="136" fill="#FFFFFF" opacity="0.130" /><circle cx="2240" cy="1197" r="43" fill="#FFFFFF" opacity="0.172" /><circle cx="1094" cy="1486" r="82" fill="#FFFFFF" opacity="0.226" /><circle cx="1402" cy="468" r="125" fill="#FFFFFF" opacity="0.235" /><circle cx="2658" cy="1392" r="98" fill="#FFFFFF" opacity="0.117" /><circle cx="1002" cy="315" r="149" fill="#FFFFFF" opacity="0.146" /><circle cx="1092" cy="958" r="129" fill="#FFFFFF" opacity="0.107" /><circle cx="2533" cy="408" r="109" fill="#FFFFFF" opacity="0.220" /><circle cx="1756" cy="2455" r="74" fill="#FFFFFF" opacity="0.183" /><circle cx="1806" cy="961" r="113" fill="#FFFFFF" opacity="0.146" /><circle cx="2036" cy="826" r="42" fill="#FFFFFF" opacity="0.063" /><circle cx="1038" cy="960" r="61" fill="#FFFFFF" opacity="0.231" /><circle cx="2327" cy="861" r="130" fill="#FFFFFF" opacity="0.106" /><circle cx="1223" cy="1924" r="64" fill="#FFFFFF" opacity="0.087" /><circle cx="1993" cy="1568" r="77" fill="#FFFFFF" opacity="0.208" /><circle cx="503" cy="449" r="141" fill="#FFFFFF" opacity="0.166" /></g>
  <g><path d="M 163.4 605.1 L 2686.3 328.6 L 2686.3 766.6 L 163.4 1043.1 Z" fill="#FFFFFF" opacity="0.113" /><path d="M 149.7 842.8 L 2873.1 566.3 L 2873.1 1051.3 L 149.7 1327.8 Z" fill="#FFFFFF" opacity="0.128" /><path d="M 312.8 1169.1 L 2852.8 892.7 L 2852.8 1334.6 L 312.8 1611.1 Z" fill="#FFFFFF" opacity="0.094" /><path d="M 307.9 1390.0 L 2817.3 1113.5 L 2817.3 1606.6 L 307.9 1883.0 Z" fill="#FFFFFF" opacity="0.101" /><path d="M 239.1 1660.7 L 2820.9 1384.2 L 2820.9 1822.8 L 239.1 2099.2 Z" fill="#FFFFFF" opacity="0.195" /><path d="M 159.3 1950.6 L 2851.2 1674.2 L 2851.2 2107.3 L 159.3 2383.8 Z" fill="#FFFFFF" opacity="0.210" /><path d="M 148.3 2211.9 L 2739.3 1935.5 L 2739.3 2412.7 L 148.3 2689.2 Z" fill="#FFFFFF" opacity="0.091" /><path d="M 388.6 2434.1 L 2709.1 2157.6 L 2709.1 2647.8 L 388.6 2924.3 Z" fill="#FFFFFF" opacity="0.210" /></g>
  <g filter="url(#soft280)"><g transform="rotate(-15.46 1536.0 1536.0)"><path d="M-368.6 578.3 C -225.8 553.8, -25.8 609.9, 107.5 523.1 C 250.4 517.6, 450.4 614.7, 583.7 542.0 C 726.5 535.1, 926.5 609.9, 1059.8 582.9 C 1202.7 584.1, 1402.7 573.8, 1536.0 621.1 C 1678.8 620.4, 1878.8 561.8, 2012.2 633.3 C 2155.0 634.4, 2355.0 541.3, 2488.3 612.2 C 2631.2 623.3, 2831.2 562.8, 2964.5 570.5 C 3107.3 571.6, 3307.3 585.1, 3440.6 533.6" fill="none" stroke="url(#ribbon280)" stroke-width="58.4" stroke-linecap="round" stroke-opacity="0.120" /></g><g transform="rotate(-14.88 1536.0 1536.0)"><path d="M-368.6 712.1 C -241.7 753.7, -63.9 672.3, 54.6 718.8 C 181.6 719.3, 359.4 706.1, 477.9 672.3 C 604.8 673.5, 782.6 733.9, 901.1 650.0 C 1028.1 654.1, 1205.9 773.5, 1324.4 665.3 C 1451.3 668.4, 1629.1 727.3, 1747.6 709.1 C 1874.6 710.3, 2052.4 715.4, 2170.9 754.7 C 2297.9 763.1, 2475.6 680.7, 2594.1 774.5 C 2721.1 777.8, 2898.9 666.5, 3017.4 756.5 C 3144.4 748.8, 3322.1 672.5, 3440.6 711.5" fill="none" stroke="url(#ribbon280)" stroke-width="54.4" stroke-linecap="round" stroke-opacity="0.146" /></g><g transform="rotate(-14.30 1536.0 1536.0)"><path d="M-368.6 968.8 C -254.4 1004.2, -94.4 923.5, 12.3 1038.2 C 126.6 1054.2, 286.6 894.8, 393.2 1018.1 C 507.5 1023.3, 667.5 944.4, 774.1 968.0 C 888.4 968.1, 1048.4 969.4, 1155.1 918.5 C 1269.4 919.5, 1429.3 987.3, 1536.0 899.4 C 1650.3 917.6, 1810.3 1018.5, 1916.9 922.5 C 2031.2 936.2, 2191.2 1007.1, 2297.9 973.7 C 2412.1 973.8, 2572.1 966.0, 2678.8 1021.9 C 2793.1 1025.3, 2953.1 940.3, 3059.7 1037.9 C 3174.0 1036.7, 3334.0 901.6, 3440.6 1012.0" fill="none" stroke="url(#ribbon280)" stroke-width="50.4" stroke-linecap="round" stroke-opacity="0.172" /></g><g transform="rotate(-13.72 1536.0 1536.0)"><path d="M-368.6 1081.3 C -264.8 1109.3, -119.3 1063.7, -22.3 1156.9 C 81.5 1159.7, 227.0 1004.6, 324.0 1142.3 C 427.8 1136.2, 573.3 1054.0, 670.3 1090.7 C 774.1 1093.7, 919.6 1070.8, 1016.6 1033.4 C 1120.4 1016.9, 1265.9 1121.8, 1362.9 1005.2 C 1466.7 993.6, 1612.2 1108.7, 1709.1 1023.1 C 1813.0 1023.5, 1958.5 1147.5, 2055.4 1076.4 C 2159.3 1077.3, 2304.8 1084.8, 2401.7 1132.7 C 2505.6 1123.3, 2651.1 1027.2, 2748.0 1157.8 C 2851.9 1131.6, 2997.4 1015.5, 3094.3 1136.5 C 3198.2 1127.5, 3343.7 1049.0, 3440.6 1081.8" fill="none" stroke="url(#ribbon280)" stroke-width="46.4" stroke-linecap="round" stroke-opacity="0.198" /></g><g transform="rotate(-13.14 1536.0 1536.0)"><path d="M-368.6 1289.5 C -273.4 1254.4, -140.1 1298.7, -51.2 1324.3 C 44.0 1318.3, 177.4 1265.8, 266.2 1368.2 C 361.5 1385.0, 494.8 1228.7, 583.7 1364.4 C 678.9 1347.1, 812.2 1208.5, 901.1 1315.2 C 996.4 1320.4, 1129.7 1261.7, 1218.6 1250.3 C 1313.8 1248.3, 1447.1 1307.8, 1536.0 1209.3 C 1631.2 1184.0, 1764.6 1319.7, 1853.4 1216.9 C 1948.7 1205.9, 2082.0 1359.1, 2170.9 1268.5 C 2266.1 1276.1, 2399.4 1309.3, 2488.3 1332.9 C 2583.6 1322.2, 2716.9 1245.2, 2805.8 1371.0 C 2901.0 1402.6, 3034.3 1201.4, 3123.2 1359.6 C 3218.4 1337.9, 3351.8 1226.6, 3440.6 1305.7" fill="none" stroke="url(#ribbon280)" stroke-width="42.4" stroke-linecap="round" stroke-opacity="0.224" /></g><g transform="rotate(-12.56 1536.0 1536.0)"><path d="M-368.6 1454.2 C -225.8 1395.3, -25.8 1530.4, 107.5 1439.2 C 250.4 1435.8, 450.4 1467.1, 583.7 1507.9 C 726.5 1528.8, 926.5 1428.3, 1059.8 1544.0 C 1202.7 1555.8, 1402.7 1371.3, 1536.0 1525.6 C 1678.8 1531.1, 1878.8 1375.1, 2012.2 1464.0 C 2155.0 1463.1, 2355.0 1450.6, 2488.3 1396.4 C 2631.2 1395.1, 2831.2 1476.4, 2964.5 1363.9 C 3107.3 1383.0, 3307.3 1516.7, 3440.6 1386.1" fill="none" stroke="url(#ribbon280)" stroke-width="38.4" stroke-linecap="round" stroke-opacity="0.250" /></g><g transform="rotate(-11.98 1536.0 1536.0)"><path d="M-368.6 1663.1 C -241.7 1638.6, -63.9 1696.7, 54.6 1571.8 C 181.6 1578.0, 359.4 1705.1, 477.9 1574.5 C 604.8 1572.8, 782.6 1707.1, 901.1 1630.9 C 1028.1 1634.4, 1205.9 1693.4, 1324.4 1706.8 C 1451.3 1710.8, 1629.1 1626.6, 1747.6 1756.2 C 1874.6 1784.6, 2052.4 1607.5, 2170.9 1749.1 C 2297.9 1724.3, 2475.6 1566.3, 2594.1 1689.8 C 2721.1 1688.2, 2898.9 1645.6, 3017.4 1614.3 C 3144.4 1632.6, 3322.1 1719.6, 3440.6 1568.4" fill="none" stroke="url(#ribbon280)" stroke-width="34.4" stroke-linecap="round" stroke-opacity="0.276" /></g><g transform="rotate(-11.40 1536.0 1536.0)"><path d="M-368.6 1825.5 C -254.4 1860.9, -94.4 1804.0, 12.3 1774.6 C 126.6 1780.5, 286.6 1868.3, 393.2 1724.4 C 507.5 1729.1, 667.5 1926.3, 774.1 1735.5 C 888.4 1714.2, 1048.4 1897.2, 1155.1 1801.2 C 1269.4 1796.6, 1429.3 1848.8, 1536.0 1881.7 C 1650.3 1891.7, 1810.3 1803.6, 1916.9 1928.1 C 2031.2 1903.3, 2191.2 1786.2, 2297.9 1912.3 C 2412.1 1908.3, 2572.1 1733.0, 2678.8 1843.8 C 2793.1 1839.9, 2953.1 1819.6, 3059.7 1764.3 C 3174.0 1753.5, 3334.0 1863.0, 3440.6 1721.9" fill="none" stroke="url(#ribbon280)" stroke-width="30.4" stroke-linecap="round" stroke-opacity="0.302" /></g><g transform="rotate(-10.82 1536.0 1536.0)"><path d="M-368.6 2092.2 C -264.8 2138.8, -119.3 2031.3, -22.3 2056.1 C 81.5 2065.3, 227.0 2104.7, 324.0 1991.1 C 427.8 1998.7, 573.3 2163.5, 670.3 1987.4 C 774.1 1954.6, 919.6 2199.1, 1016.6 2047.2 C 1120.4 2042.9, 1265.9 2117.5, 1362.9 2134.3 C 1466.7 2145.3, 1612.2 2059.1, 1709.1 2195.8 C 1813.0 2173.8, 1958.5 2041.0, 2055.4 2194.4 C 2159.3 2229.3, 2304.8 2026.3, 2401.7 2131.0 C 2505.6 2134.9, 2651.1 2079.3, 2748.0 2044.0 C 2851.9 2034.5, 2997.4 2121.4, 3094.3 1986.2 C 3198.2 1950.7, 3343.7 2145.6, 3440.6 1992.7" fill="none" stroke="url(#ribbon280)" stroke-width="26.4" stroke-linecap="round" stroke-opacity="0.328" /></g><g transform="rotate(-10.24 1536.0 1536.0)"><path d="M-368.6 2224.8 C -273.4 2120.4, -140.1 2320.8, -51.2 2106.3 C 44.0 2081.0, 177.4 2280.2, 266.2 2149.2 C 361.5 2143.5, 494.8 2248.8, 583.7 2237.9 C 678.9 2237.1, 812.2 2220.1, 901.1 2318.7 C 996.4 2322.5, 1129.7 2178.6, 1218.6 2342.5 C 1313.8 2358.0, 1447.1 2093.2, 1536.0 2294.9 C 1631.2 2283.2, 1764.6 2185.5, 1853.4 2204.8 C 1948.7 2202.2, 2082.0 2240.3, 2170.9 2126.8 C 2266.1 2159.4, 2399.4 2328.3, 2488.3 2108.2 C 2583.6 2090.2, 2716.9 2290.9, 2805.8 2160.4 C 2901.0 2148.2, 3034.3 2254.8, 3123.2 2251.6 C 3218.4 2258.7, 3351.8 2215.5, 3440.6 2326.6" fill="none" stroke="url(#ribbon280)" stroke-width="22.4" stroke-linecap="round" stroke-opacity="0.354" /></g><g transform="rotate(-9.66 1536.0 1536.0)"><path d="M-368.6 2481.2 C -225.8 2621.6, -25.8 2404.6, 107.5 2503.6 C 250.4 2502.6, 450.4 2461.6, 583.7 2407.9 C 726.5 2421.3, 926.5 2524.7, 1059.8 2356.7 C 1202.7 2334.2, 1402.7 2610.5, 1536.0 2381.0 C 1678.8 2388.2, 1878.8 2591.6, 2012.2 2466.1 C 2155.0 2470.3, 2355.0 2496.7, 2488.3 2560.4 C 2631.2 2532.4, 2831.2 2413.1, 2964.5 2606.6 C 3107.3 2588.3, 3307.3 2382.2, 3440.6 2576.8" fill="none" stroke="url(#ribbon280)" stroke-width="18.4" stroke-linecap="round" stroke-opacity="0.380" /></g><g transform="rotate(-9.08 1536.0 1536.0)"><path d="M-368.6 2603.2 C -241.7 2469.3, -63.9 2701.6, 54.6 2520.8 C 181.6 2547.1, 359.4 2656.6, 477.9 2620.7 C 604.8 2621.0, 782.6 2586.5, 901.1 2710.0 C 1028.1 2727.4, 1205.9 2547.4, 1324.4 2734.5 C 1451.3 2701.7, 1629.1 2478.7, 1747.6 2679.3 C 1874.6 2653.9, 2052.4 2557.6, 2170.9 2578.0 C 2297.9 2572.7, 2475.6 2617.7, 2594.1 2491.9 C 2721.1 2521.8, 2898.9 2637.5, 3017.4 2473.4 C 3144.4 2509.7, 3322.1 2678.7, 3440.6 2533.5" fill="none" stroke="url(#ribbon280)" stroke-width="14.4" stroke-linecap="round" stroke-opacity="0.406" /></g></g>
  <g><ellipse cx="1536.0" cy="1551.9" rx="728.6" ry="605.7" fill="url(#extrude280)" opacity="0.220" /><ellipse cx="1536.0" cy="1567.7" rx="736.0" ry="610.9" fill="url(#extrude280)" opacity="0.205" /><ellipse cx="1536.0" cy="1583.6" rx="743.4" ry="616.1" fill="url(#extrude280)" opacity="0.190" /><ellipse cx="1536.0" cy="1599.5" rx="750.9" ry="621.3" fill="url(#extrude280)" opacity="0.175" /><ellipse cx="1536.0" cy="1615.4" rx="758.3" ry="626.5" fill="url(#extrude280)" opacity="0.160" /><ellipse cx="1536.0" cy="1631.2" rx="765.7" ry="631.7" fill="url(#extrude280)" opacity="0.145" /><ellipse cx="1536.0" cy="1647.1" rx="773.2" ry="636.9" fill="url(#extrude280)" opacity="0.130" /><ellipse cx="1536.0" cy="1663.0" rx="780.6" ry="642.1" fill="url(#extrude280)" opacity="0.115" /><ellipse cx="1536.0" cy="1678.8" rx="788.0" ry="647.4" fill="url(#extrude280)" opacity="0.100" /><ellipse cx="1536.0" cy="1694.7" rx="795.5" ry="652.6" fill="url(#extrude280)" opacity="0.085" /><ellipse cx="1536.0" cy="1710.6" rx="802.9" ry="657.8" fill="url(#extrude280)" opacity="0.070" /><ellipse cx="1536.0" cy="1726.5" rx="810.3" ry="663.0" fill="url(#extrude280)" opacity="0.055" /></g>
  <ellipse cx="1536.0" cy="1726.5" rx="773.2" ry="214.9" fill="#0B1D2D" opacity="0.24" />
  <ellipse cx="1536.0" cy="1536.0" rx="743.4" ry="651.3" fill="url(#orb280)" stroke="#FFFFFF" stroke-opacity="0.42" stroke-width="7" />
  <ellipse cx="1431.9" cy="1392.7" rx="505.5" ry="299.6" fill="#FFFFFF" opacity="0.25" />
  <path d="M 199.4 399.4 C 1013.8 -30.7, 2058.2 768.0, 2872.6 215.0 L 2872.6 983.0 C 2089.0 1228.8, 1013.8 307.2, 199.4 1167.4 Z" fill="url(#glass280)" />
  <rect x="270" y="270" width="2532" height="2532" rx="430" fill="none" stroke="#FFFFFF" stroke-opacity="0.30" stroke-width="5" />
  <rect x="288.4" y="288.4" width="2495.1" height="2495.1" rx="399" fill="none" stroke="#36D1FF" stroke-opacity="0.35" stroke-width="3" />
  <g filter="url(#soft280)"><rect x="790" y="535" width="60" height="2" fill="#FFFFFF" opacity="0.783" /><rect x="819" y="506" width="2" height="60" fill="#FFFFFF" opacity="0.783" /><rect x="677" y="1426" width="46" height="2" fill="#FFFFFF" opacity="0.605" /><rect x="699" y="1404" width="2" height="46" fill="#FFFFFF" opacity="0.605" /><rect x="2141" y="1698" width="70" height="2" fill="#FFFFFF" opacity="0.613" /><rect x="2175" y="1664" width="2" height="70" fill="#FFFFFF" opacity="0.613" /><rect x="899" y="1647" width="76" height="2" fill="#FFFFFF" opacity="0.799" /><rect x="936" y="1610" width="2" height="76" fill="#FFFFFF" opacity="0.799" /><rect x="1325" y="1594" width="58" height="2" fill="#FFFFFF" opacity="0.348" /><rect x="1353" y="1566" width="2" height="58" fill="#FFFFFF" opacity="0.348" /><rect x="2670" y="348" width="70" height="2" fill="#FFFFFF" opacity="0.740" /><rect x="2704" y="314" width="2" height="70" fill="#FFFFFF" opacity="0.740" /><rect x="1705" y="628" width="64" height="2" fill="#FFFFFF" opacity="0.719" /><rect x="1736" y="597" width="2" height="64" fill="#FFFFFF" opacity="0.719" /><rect x="1640" y="1312" width="36" height="2" fill="#FFFFFF" opacity="0.558" /><rect x="1657" y="1295" width="2" height="36" fill="#FFFFFF" opacity="0.558" /><rect x="672" y="2391" width="82" height="2" fill="#FFFFFF" opacity="0.676" /><rect x="712" y="2351" width="2" height="82" fill="#FFFFFF" opacity="0.676" /><rect x="2053" y="1239" width="30" height="2" fill="#FFFFFF" opacity="0.778" /><rect x="2067" y="1225" width="2" height="30" fill="#FFFFFF" opacity="0.778" /><rect x="1737" y="2292" width="82" height="2" fill="#FFFFFF" opacity="0.787" /><rect x="1777" y="2252" width="2" height="82" fill="#FFFFFF" opacity="0.787" /><rect x="331" y="2385" width="46" height="2" fill="#FFFFFF" opacity="0.655" /><rect x="353" y="2363" width="2" height="46" fill="#FFFFFF" opacity="0.655" /><rect x="959" y="275" width="50" height="2" fill="#FFFFFF" opacity="0.628" /><rect x="983" y="251" width="2" height="50" fill="#FFFFFF" opacity="0.628" /><rect x="872" y="1429" width="48" height="2" fill="#FFFFFF" opacity="0.390" /><rect x="895" y="1406" width="2" height="48" fill="#FFFFFF" opacity="0.390" /><rect x="600" y="2360" width="44" height="2" fill="#FFFFFF" opacity="0.609" /><rect x="621" y="2339" width="2" height="44" fill="#FFFFFF" opacity="0.609" /><rect x="1120" y="2425" width="32" height="2" fill="#FFFFFF" opacity="0.633" /><rect x="1135" y="2410" width="2" height="32" fill="#FFFFFF" opacity="0.633" /><rect x="2263" y="925" width="30" height="2" fill="#FFFFFF" opacity="0.526" /><rect x="2277" y="911" width="2" height="30" fill="#FFFFFF" opacity="0.526" /><rect x="1367" y="948" width="84" height="2" fill="#FFFFFF" opacity="0.371" /><rect x="1408" y="907" width="2" height="84" fill="#FFFFFF" opacity="0.371" /><rect x="1923" y="1756" width="34" height="2" fill="#FFFFFF" opacity="0.357" /><rect x="1939" y="1740" width="2" height="34" fill="#FFFFFF" opacity="0.357" /><rect x="1670" y="2398" width="52" height="2" fill="#FFFFFF" opacity="0.349" /><rect x="1695" y="2373" width="2" height="52" fill="#FFFFFF" opacity="0.349" /><rect x="2220" y="2126" width="78" height="2" fill="#FFFFFF" opacity="0.536" /><rect x="2258" y="2088" width="2" height="78" fill="#FFFFFF" opacity="0.536" /><rect x="388" y="1422" width="82" height="2" fill="#FFFFFF" opacity="0.477" /><rect x="428" y="1382" width="2" height="82" fill="#FFFFFF" opacity="0.477" /><rect x="1643" y="523" width="70" height="2" fill="#FFFFFF" opacity="0.615" /><rect x="1677" y="489" width="2" height="70" fill="#FFFFFF" opacity="0.615" /><rect x="350" y="535" width="68" height="2" fill="#FFFFFF" opacity="0.566" /><rect x="383" y="502" width="2" height="68" fill="#FFFFFF" opacity="0.566" /><rect x="671" y="2752" width="74" height="2" fill="#FFFFFF" opacity="0.708" /><rect x="707" y="2716" width="2" height="74" fill="#FFFFFF" opacity="0.708" /><rect x="1472" y="2451" width="52" height="2" fill="#FFFFFF" opacity="0.560" /><rect x="1497" y="2426" width="2" height="52" fill="#FFFFFF" opacity="0.560" /></g>
  <g opacity="0.52"><path d="M1572 1006 L2148 1582 L1572 2158 L996 1582 Z" fill="none" stroke="#0C2030" stroke-width="90" stroke-linejoin="round" /><circle cx="1572" cy="1582" r="153" fill="#0C2030" /></g>
  <g filter="url(#soft280)"><path d="M1536 960 L2112 1536 L1536 2112 L960 1536 Z" fill="none" stroke="url(#symbol280)" stroke-width="90" stroke-linejoin="round" /><circle cx="1536" cy="1536" r="153" fill="url(#symbol280)" /></g>
  <rect x="138" y="138" width="2796" height="2796" rx="629" fill="#FFFFFF" filter="url(#grain280)" opacity="0.18" />
</svg>
