<svg xmlns="http://www.w3.org/2000/svg" width="3072" height="3072" viewBox="0 0 3072 3072">
  <title>QuartzOS App Icon 181 - aero_charts_181</title>
  <defs><linearGradient id="bg180" x1="0%" y1="0%" x2="100%" y2="100%"><stop offset="0%" stop-color="#FFD84D" /><stop offset="26%" stop-color="#36D1FF" /><stop offset="56%" stop-color="#8A5CFF" /><stop offset="78%" stop-color="#4E8FC5" /><stop offset="100%" stop-color="#10243A" /></linearGradient><radialGradient id="sun180" cx="26%" cy="18%" r="88%"><stop offset="0%" stop-color="#FFFFFF" stop-opacity="0.62" /><stop offset="30%" stop-color="#FF6AB3" stop-opacity="0.35" /><stop offset="100%" stop-color="#FF6AB3" stop-opacity="0" /></radialGradient><linearGradient id="glass180" x1="0%" y1="0%" x2="0%" y2="100%"><stop offset="0%" stop-color="#FFFFFF" stop-opacity="0.70" /><stop offset="46%" stop-color="#FFFFFF" stop-opacity="0.26" /><stop offset="100%" stop-color="#FFFFFF" stop-opacity="0.00" /></linearGradient><linearGradient id="ribbon180" x1="0%" y1="0%" x2="100%" y2="0%"><stop offset="0%" stop-color="#FFD84D" stop-opacity="0.18" /><stop offset="34%" stop-color="#36D1FF" stop-opacity="0.72" /><stop offset="66%" stop-color="#8A5CFF" stop-opacity="0.72" /><stop offset="100%" stop-color="#FF6AB3" stop-opacity="0.18" /></linearGradient><radialGradient id="orb180" cx="34%" cy="27%" r="74%"><stop offset="0%" stop-color="#FFFFFF" stop-opacity="0.84" /><stop offset="30%" stop-color="#FFD84D" stop-opacity="0.52" /><stop offset="68%" stop-color="#36D1FF" stop-opacity="0.42" /><stop offset="100%" stop-color="#8A5CFF" stop-opacity="0.20" /></radialGradient><linearGradient id="extrude180" x1="0%" y1="0%" x2="0%" y2="100%"><stop offset="0%" stop-color="#15283C" stop-opacity="0.45" /><stop offset="100%" stop-color="#08131D" stop-opacity="0.06" /></linearGradient><linearGradient id="symbol180" x1="0%" y1="0%" x2="100%" y2="100%"><stop offset="0%" stop-color="#FFFFFF" /><stop offset="100%" stop-color="#FF6AB3" /></linearGradient><filter id="shadow180" x="-40%" y="-40%" width="180%" height="180%"><feDropShadow dx="0" dy="49" stdDeviation="86" flood-color="#06111A" flood-opacity="0.54" /></filter><filter id="soft180" x="-40%" y="-40%" width="180%" height="180%"><feDropShadow dx="0" dy="0" stdDeviation="14" flood-color="#FFD84D" flood-opacity="0.45" /></filter><filter id="grain180"><feTurbulence type="fractalNoise" baseFrequency="0.840" numOctaves="2" seed="180" /><feColorMatrix type="saturate" values="0" /><feComponentTransfer><feFuncA type="table" tableValues="0 0.09" /></feComponentTransfer></filter></defs>
  <rect x="138" y="138" width="2796" height="2796" rx="629" fill="url(#bg180)" filter="url(#shadow180)" />
  <rect x="138" y="138" width="2796" height="2796" rx="629" fill="url(#sun180)" />
  <g><circle cx="393" cy="791" r="95" fill="#FFFFFF" opacity="0.141" /><circle cx="2000" cy="1214" r="141" fill="#FFFFFF" opacity="0.067" /><circle cx="1287" cy="1528" r="70" fill="#FFFFFF" opacity="0.178" /><circle cx="1234" cy="1797" r="83" fill="#FFFFFF" opacity="0.149" /><circle cx="1496" cy="2060" r="38" fill="#FFFFFF" opacity="0.134" /><circle cx="1482" cy="455" r="77" fill="#FFFFFF" opacity="0.223" /><circle cx="1262" cy="1965" r="150" fill="#FFFFFF" opacity="0.095" /><circle cx="2677" cy="2309" r="116" fill="#FFFFFF" opacity="0.192" /><circle cx="1934" cy="780" r="159" fill="#FFFFFF" opacity="0.199" /><circle cx="569" cy="603" r="70" fill="#FFFFFF" opacity="0.199" /><circle cx="1551" cy="1467" r="132" fill="#FFFFFF" opacity="0.196" /><circle cx="2228" cy="1511" r="133" fill="#FFFFFF" opacity="0.221" /><circle cx="1088" cy="2651" r="64" fill="#FFFFFF" opacity="0.061" /><circle cx="848" cy="1769" r="39" fill="#FFFFFF" opacity="0.171" /><circle cx="2673" cy="1189" r="124" fill="#FFFFFF" opacity="0.217" /><circle cx="881" cy="605" r="136" fill="#FFFFFF" opacity="0.142" /><circle cx="2114" cy="2675" r="153" fill="#FFFFFF" opacity="0.094" /><circle cx="2467" cy="440" r="131" fill="#FFFFFF" opacity="0.080" /><circle cx="1413" cy="1549" r="51" fill="#FFFFFF" opacity="0.081" /><circle cx="1184" cy="1140" r="51" fill="#FFFFFF" opacity="0.145" /><circle cx="1587" cy="2681" r="154" fill="#FFFFFF" opacity="0.206" /><circle cx="780" cy="2215" r="113" fill="#FFFFFF" opacity="0.135" /><circle cx="1468" cy="581" r="154" fill="#FFFFFF" opacity="0.217" /><circle cx="1545" cy="969" r="105" fill="#FFFFFF" opacity="0.136" /><circle cx="2486" cy="2486" r="113" fill="#FFFFFF" opacity="0.170" /><circle cx="1665" cy="986" r="123" fill="#FFFFFF" opacity="0.062" /><circle cx="757" cy="1872" r="134" fill="#FFFFFF" opacity="0.089" /><circle cx="2220" cy="2191" r="97" fill="#FFFFFF" opacity="0.238" /></g>
  <g><path d="M 182.0 613.0 L 2923.0 336.5 L 2923.0 782.8 L 182.0 1059.3 Z" fill="#FFFFFF" opacity="0.180" /><path d="M 181.6 865.8 L 2801.0 589.3 L 2801.0 1065.4 L 181.6 1341.9 Z" fill="#FFFFFF" opacity="0.122" /><path d="M 259.8 1173.2 L 2845.7 896.7 L 2845.7 1381.2 L 259.8 1657.7 Z" fill="#FFFFFF" opacity="0.220" /><path d="M 320.3 1433.2 L 2893.6 1156.7 L 2893.6 1639.9 L 320.3 1916.4 Z" fill="#FFFFFF" opacity="0.188" /><path d="M 330.5 1669.3 L 2729.5 1392.8 L 2729.5 1842.3 L 330.5 2118.8 Z" fill="#FFFFFF" opacity="0.081" /><path d="M 216.9 1874.7 L 2801.7 1598.2 L 2801.7 2058.7 L 216.9 2335.2 Z" fill="#FFFFFF" opacity="0.204" /><path d="M 309.5 2161.8 L 2789.0 1885.3 L 2789.0 2333.8 L 309.5 2610.2 Z" fill="#FFFFFF" opacity="0.183" /><path d="M 376.8 2475.6 L 2680.8 2199.1 L 2680.8 2643.1 L 376.8 2919.6 Z" fill="#FFFFFF" opacity="0.239" /></g>
  <g filter="url(#soft180)"><g transform="rotate(-23.00 1536.0 1536.0)"><path d="M-368.6 487.6 C -225.8 451.2, -25.8 514.3, 107.5 458.6 C 250.4 454.6, 450.4 497.3, 583.7 501.2 C 726.5 501.5, 926.5 476.4, 1059.8 535.6 C 1202.7 530.6, 1402.7 436.3, 1536.0 540.8 C 1678.8 549.3, 1878.8 434.8, 2012.2 513.8 C 2155.0 507.8, 2355.0 475.6, 2488.3 471.0 C 2631.2 475.9, 2831.2 503.1, 2964.5 438.2 C 3107.3 427.0, 3307.3 507.2, 3440.6 435.4" fill="none" stroke="url(#ribbon180)" stroke-width="58.4" stroke-linecap="round" stroke-opacity="0.120" /></g><g transform="rotate(-22.42 1536.0 1536.0)"><path d="M-368.6 770.3 C -241.7 724.7, -63.9 789.4, 54.6 708.0 C 181.6 725.2, 359.4 820.0, 477.9 725.5 C 604.8 734.6, 782.6 813.7, 901.1 770.3 C 1028.1 770.3, 1205.9 770.4, 1324.4 815.0 C 1451.3 799.4, 1629.1 727.8, 1747.6 832.7 C 1874.6 808.1, 2052.4 745.6, 2170.9 812.5 C 2297.9 811.5, 2475.6 723.9, 2594.1 766.7 C 2721.1 766.9, 2898.9 772.2, 3017.4 723.2 C 3144.4 704.7, 3322.1 809.1, 3440.6 708.2" fill="none" stroke="url(#ribbon180)" stroke-width="54.4" stroke-linecap="round" stroke-opacity="0.146" /></g><g transform="rotate(-21.84 1536.0 1536.0)"><path d="M-368.6 909.1 C -254.4 865.9, -94.4 945.1, 12.3 916.6 C 126.6 917.9, 286.6 901.1, 393.2 963.8 C 507.5 953.7, 667.5 878.5, 774.1 977.9 C 888.4 952.0, 1048.4 866.4, 1155.1 950.2 C 1269.4 942.0, 1429.3 867.8, 1536.0 897.6 C 1650.3 897.5, 1810.3 920.1, 1916.9 852.0 C 2031.2 834.5, 2191.2 928.6, 2297.9 841.0 C 2412.1 835.7, 2572.1 980.4, 2678.8 871.3 C 2793.1 861.1, 2953.1 941.7, 3059.7 924.6 C 3174.0 920.6, 3334.0 899.8, 3440.6 968.4" fill="none" stroke="url(#ribbon180)" stroke-width="50.4" stroke-linecap="round" stroke-opacity="0.172" /></g><g transform="rotate(-21.26 1536.0 1536.0)"><path d="M-368.6 1142.6 C -264.8 1086.1, -119.3 1204.5, -22.3 1066.1 C 81.5 1060.7, 227.0 1199.4, 324.0 1088.7 C 427.8 1093.5, 573.3 1182.6, 670.3 1144.1 C 774.1 1143.8, 919.6 1141.7, 1016.6 1198.5 C 1120.4 1193.9, 1265.9 1083.4, 1362.9 1219.0 C 1466.7 1238.4, 1612.2 1098.6, 1709.1 1193.1 C 1813.0 1191.7, 1958.5 1087.4, 2055.4 1136.6 C 2159.3 1137.3, 2304.8 1149.5, 2401.7 1083.7 C 2505.6 1065.9, 2651.1 1187.0, 2748.0 1066.5 C 2851.9 1050.2, 2997.4 1223.9, 3094.3 1095.4 C 3198.2 1097.7, 3343.7 1165.2, 3440.6 1153.0" fill="none" stroke="url(#ribbon180)" stroke-width="46.4" stroke-linecap="round" stroke-opacity="0.198" /></g><g transform="rotate(-20.68 1536.0 1536.0)"><path d="M-368.6 1303.2 C -273.4 1357.5, -140.1 1278.2, -51.2 1386.4 C 44.0 1409.3, 177.4 1266.8, 266.2 1367.3 C 361.5 1390.7, 494.8 1232.4, 583.7 1309.5 C 678.9 1308.8, 812.2 1300.9, 901.1 1247.8 C 996.4 1237.6, 1129.7 1324.9, 1218.6 1219.8 C 1313.8 1239.3, 1447.1 1395.3, 1536.0 1242.4 C 1631.2 1218.4, 1764.6 1342.7, 1853.4 1301.9 C 1948.7 1301.9, 2082.0 1304.0, 2170.9 1362.3 C 2266.1 1351.8, 2399.4 1255.7, 2488.3 1386.8 C 2583.6 1396.3, 2716.9 1207.9, 2805.8 1360.7 C 2901.0 1355.1, 3034.3 1238.0, 3123.2 1299.7 C 3218.4 1299.2, 3351.8 1305.6, 3440.6 1240.9" fill="none" stroke="url(#ribbon180)" stroke-width="42.4" stroke-linecap="round" stroke-opacity="0.224" /></g><g transform="rotate(-20.10 1536.0 1536.0)"><path d="M-368.6 1477.7 C -225.8 1507.3, -25.8 1451.0, 107.5 1557.3 C 250.4 1534.2, 450.4 1382.4, 583.7 1564.2 C 726.5 1591.3, 926.5 1389.7, 1059.8 1518.6 C 1202.7 1504.8, 1402.7 1447.3, 1536.0 1448.2 C 1678.8 1447.5, 1878.8 1505.0, 2012.2 1395.7 C 2155.0 1387.0, 2355.0 1519.0, 2488.3 1392.9 C 2631.2 1384.4, 2831.2 1575.2, 2964.5 1441.6 C 3107.3 1444.6, 3307.3 1499.6, 3440.6 1512.1" fill="none" stroke="url(#ribbon180)" stroke-width="38.4" stroke-linecap="round" stroke-opacity="0.250" /></g><g transform="rotate(-19.52 1536.0 1536.0)"><path d="M-368.6 1628.6 C -241.7 1684.7, -63.9 1565.5, 54.6 1608.4 C 181.6 1604.8, 359.4 1649.8, 477.9 1546.0 C 604.8 1536.4, 782.6 1657.8, 901.1 1533.7 C 1028.1 1515.1, 1205.9 1728.4, 1324.4 1579.0 C 1451.3 1575.1, 1629.1 1656.1, 1747.6 1654.4 C 1874.6 1651.9, 2052.4 1608.3, 2170.9 1714.2 C 2297.9 1698.9, 2475.6 1582.6, 2594.1 1722.1 C 2721.1 1741.1, 2898.9 1564.3, 3017.4 1673.3 C 3144.4 1664.0, 3322.1 1586.1, 3440.6 1597.4" fill="none" stroke="url(#ribbon180)" stroke-width="34.4" stroke-linecap="round" stroke-opacity="0.276" /></g><g transform="rotate(-18.94 1536.0 1536.0)"><path d="M-368.6 1875.6 C -254.4 1775.7, -94.4 1934.7, 12.3 1850.3 C 126.6 1845.4, 286.6 1886.5, 393.2 1930.9 C 507.5 1950.7, 667.5 1838.4, 774.1 1977.9 C 888.4 1963.6, 1048.4 1771.9, 1155.1 1963.0 C 1269.4 1962.0, 1429.3 1776.2, 1536.0 1895.0 C 1650.3 1901.6, 1810.3 1863.5, 1916.9 1815.3 C 2031.2 1815.3, 2191.2 1941.1, 2297.9 1772.1 C 2412.1 1771.0, 2572.1 1959.5, 2678.8 1791.8 C 2793.1 1794.7, 2953.1 1918.2, 3059.7 1862.3 C 3174.0 1862.2, 3334.0 1890.4, 3440.6 1940.9" fill="none" stroke="url(#ribbon180)" stroke-width="30.4" stroke-linecap="round" stroke-opacity="0.302" /></g><g transform="rotate(-18.36 1536.0 1536.0)"><path d="M-368.6 2127.8 C -264.8 2211.5, -119.3 2085.8, -22.3 2156.2 C 81.5 2148.1, 227.0 2097.5, 324.0 2070.0 C 427.8 2078.2, 573.3 2150.2, 670.3 2018.8 C 774.1 2012.2, 919.6 2222.6, 1016.6 2033.8 C 1120.4 2050.8, 1265.9 2172.7, 1362.9 2105.8 C 1466.7 2112.0, 1612.2 2144.3, 1709.1 2191.1 C 1813.0 2210.7, 1958.5 2057.2, 2055.4 2238.0 C 2159.3 2224.7, 2304.8 2027.0, 2401.7 2218.1 C 2505.6 2185.0, 2651.1 2020.5, 2748.0 2143.4 C 2851.9 2147.9, 2997.4 2116.0, 3094.3 2059.2 C 3198.2 2048.2, 3343.7 2154.9, 3440.6 2016.6" fill="none" stroke="url(#ribbon180)" stroke-width="26.4" stroke-linecap="round" stroke-opacity="0.328" /></g><g transform="rotate(-17.78 1536.0 1536.0)"><path d="M-368.6 2271.8 C -273.4 2302.3, -140.1 2255.9, -51.2 2206.9 C 44.0 2226.4, 177.4 2342.1, 266.2 2155.1 C 361.5 2119.1, 494.8 2364.7, 583.7 2174.1 C 678.9 2210.9, 812.2 2356.1, 901.1 2252.4 C 996.4 2256.1, 1129.7 2289.6, 1218.6 2342.4 C 1313.8 2347.4, 1447.1 2194.3, 1536.0 2389.6 C 1631.2 2355.4, 1764.6 2185.6, 1853.4 2365.3 C 1948.7 2341.7, 2082.0 2191.9, 2170.9 2284.3 C 2266.1 2284.3, 2399.4 2266.5, 2488.3 2195.7 C 2583.6 2224.6, 2716.9 2315.7, 2805.8 2153.3 C 2901.0 2107.9, 3034.3 2402.7, 3123.2 2182.7 C 3218.4 2148.3, 3351.8 2330.0, 3440.6 2266.2" fill="none" stroke="url(#ribbon180)" stroke-width="22.4" stroke-linecap="round" stroke-opacity="0.354" /></g><g transform="rotate(-17.20 1536.0 1536.0)"><path d="M-368.6 2417.9 C -225.8 2325.8, -25.8 2457.0, 107.5 2294.6 C 250.4 2310.9, 450.4 2565.8, 583.7 2350.5 C 726.5 2344.2, 926.5 2479.9, 1059.8 2447.3 C 1202.7 2446.3, 1402.7 2401.5, 1536.0 2526.2 C 1678.8 2527.5, 1878.8 2321.5, 2012.2 2539.5 C 2155.0 2532.1, 2355.0 2304.0, 2488.3 2479.0 C 2631.2 2456.5, 2831.2 2353.1, 2964.5 2381.4 C 3107.3 2374.3, 3307.3 2442.7, 3440.6 2306.0" fill="none" stroke="url(#ribbon180)" stroke-width="18.4" stroke-linecap="round" stroke-opacity="0.380" /></g><g transform="rotate(-16.62 1536.0 1536.0)"><path d="M-368.6 2608.1 C -241.7 2449.5, -63.9 2664.2, 54.6 2571.8 C 181.6 2577.6, 359.4 2625.6, 477.9 2674.6 C 604.8 2688.1, 782.6 2578.8, 901.1 2737.1 C 1028.1 2695.8, 1205.9 2548.0, 1324.4 2721.3 C 1451.3 2729.1, 1629.1 2518.3, 1747.6 2636.9 C 1874.6 2641.5, 2052.4 2598.3, 2170.9 2535.0 C 2297.9 2508.4, 2475.6 2675.2, 2594.1 2477.5 C 2721.1 2455.6, 2898.9 2655.9, 3017.4 2499.1 C 3144.4 2467.6, 3322.1 2682.1, 3440.6 2586.9" fill="none" stroke="url(#ribbon180)" stroke-width="14.4" stroke-linecap="round" stroke-opacity="0.406" /></g></g>
  <g><ellipse cx="1536.0" cy="1551.9" rx="728.6" ry="605.7" fill="url(#extrude180)" opacity="0.220" /><ellipse cx="1536.0" cy="1567.7" rx="736.0" ry="610.9" fill="url(#extrude180)" opacity="0.205" /><ellipse cx="1536.0" cy="1583.6" rx="743.4" ry="616.1" fill="url(#extrude180)" opacity="0.190" /><ellipse cx="1536.0" cy="1599.5" rx="750.9" ry="621.3" fill="url(#extrude180)" opacity="0.175" /><ellipse cx="1536.0" cy="1615.4" rx="758.3" ry="626.5" fill="url(#extrude180)" opacity="0.160" /><ellipse cx="1536.0" cy="1631.2" rx="765.7" ry="631.7" fill="url(#extrude180)" opacity="0.145" /><ellipse cx="1536.0" cy="1647.1" rx="773.2" ry="636.9" fill="url(#extrude180)" opacity="0.130" /><ellipse cx="1536.0" cy="1663.0" rx="780.6" ry="642.1" fill="url(#extrude180)" opacity="0.115" /><ellipse cx="1536.0" cy="1678.8" rx="788.0" ry="647.4" fill="url(#extrude180)" opacity="0.100" /><ellipse cx="1536.0" cy="1694.7" rx="795.5" ry="652.6" fill="url(#extrude180)" opacity="0.085" /><ellipse cx="1536.0" cy="1710.6" rx="802.9" ry="657.8" fill="url(#extrude180)" opacity="0.070" /><ellipse cx="1536.0" cy="1726.5" rx="810.3" ry="663.0" fill="url(#extrude180)" opacity="0.055" /></g>
  <ellipse cx="1536.0" cy="1726.5" rx="773.2" ry="214.9" fill="#0B1D2D" opacity="0.24" />
  <ellipse cx="1536.0" cy="1536.0" rx="743.4" ry="651.3" fill="url(#orb180)" stroke="#FFFFFF" stroke-opacity="0.42" stroke-width="7" />
  <ellipse cx="1431.9" cy="1392.7" rx="505.5" ry="299.6" fill="#FFFFFF" opacity="0.25" />
  <path d="M 199.4 399.4 C 1013.8 -30.7, 2058.2 768.0, 2872.6 215.0 L 2872.6 983.0 C 2089.0 1228.8, 1013.8 307.2, 199.4 1167.4 Z" fill="url(#glass180)" />
  <rect x="270" y="270" width="2532" height="2532" rx="430" fill="none" stroke="#FFFFFF" stroke-opacity="0.30" stroke-width="5" />
  <rect x="288.4" y="288.4" width="2495.1" height="2495.1" rx="399" fill="none" stroke="#FFD84D" stroke-opacity="0.35" stroke-width="3" />
  <g filter="url(#soft180)"><rect x="2173" y="611" width="40" height="2" fill="#FFFFFF" opacity="0.739" /><rect x="2192" y="592" width="2" height="40" fill="#FFFFFF" opacity="0.739" /><rect x="2663" y="645" width="38" height="2" fill="#FFFFFF" opacity="0.749" /><rect x="2681" y="627" width="2" height="38" fill="#FFFFFF" opacity="0.749" /><rect x="2673" y="2293" width="34" height="2" fill="#FFFFFF" opacity="0.510" /><rect x="2689" y="2277" width="2" height="34" fill="#FFFFFF" opacity="0.510" /><rect x="1091" y="1596" width="58" height="2" fill="#FFFFFF" opacity="0.789" /><rect x="1119" y="1568" width="2" height="58" fill="#FFFFFF" opacity="0.789" /><rect x="1185" y="1651" width="82" height="2" fill="#FFFFFF" opacity="0.322" /><rect x="1225" y="1611" width="2" height="82" fill="#FFFFFF" opacity="0.322" /><rect x="1953" y="1250" width="76" height="2" fill="#FFFFFF" opacity="0.751" /><rect x="1990" y="1213" width="2" height="76" fill="#FFFFFF" opacity="0.751" /><rect x="419" y="970" width="50" height="2" fill="#FFFFFF" opacity="0.707" /><rect x="443" y="946" width="2" height="50" fill="#FFFFFF" opacity="0.707" /><rect x="1934" y="947" width="48" height="2" fill="#FFFFFF" opacity="0.719" /><rect x="1957" y="924" width="2" height="48" fill="#FFFFFF" opacity="0.719" /><rect x="899" y="437" width="84" height="2" fill="#FFFFFF" opacity="0.594" /><rect x="940" y="396" width="2" height="84" fill="#FFFFFF" opacity="0.594" /><rect x="754" y="2368" width="24" height="2" fill="#FFFFFF" opacity="0.760" /><rect x="765" y="2357" width="2" height="24" fill="#FFFFFF" opacity="0.760" /><rect x="1298" y="1490" width="70" height="2" fill="#FFFFFF" opacity="0.493" /><rect x="1332" y="1456" width="2" height="70" fill="#FFFFFF" opacity="0.493" /><rect x="1665" y="893" width="78" height="2" fill="#FFFFFF" opacity="0.410" /><rect x="1703" y="855" width="2" height="78" fill="#FFFFFF" opacity="0.410" /><rect x="345" y="1508" width="42" height="2" fill="#FFFFFF" opacity="0.756" /><rect x="365" y="1488" width="2" height="42" fill="#FFFFFF" opacity="0.756" /><rect x="1483" y="520" width="58" height="2" fill="#FFFFFF" opacity="0.396" /><rect x="1511" y="492" width="2" height="58" fill="#FFFFFF" opacity="0.396" /><rect x="1049" y="2519" width="54" height="2" fill="#FFFFFF" opacity="0.428" /><rect x="1075" y="2493" width="2" height="54" fill="#FFFFFF" opacity="0.428" /><rect x="2473" y="2494" width="30" height="2" fill="#FFFFFF" opacity="0.537" /><rect x="2487" y="2480" width="2" height="30" fill="#FFFFFF" opacity="0.537" /><rect x="1837" y="1161" width="70" height="2" fill="#FFFFFF" opacity="0.533" /><rect x="1871" y="1127" width="2" height="70" fill="#FFFFFF" opacity="0.533" /><rect x="1443" y="396" width="26" height="2" fill="#FFFFFF" opacity="0.433" /><rect x="1455" y="384" width="2" height="26" fill="#FFFFFF" opacity="0.433" /><rect x="2246" y="2746" width="58" height="2" fill="#FFFFFF" opacity="0.787" /><rect x="2274" y="2718" width="2" height="58" fill="#FFFFFF" opacity="0.787" /><rect x="883" y="1830" width="80" height="2" fill="#FFFFFF" opacity="0.740" /><rect x="922" y="1791" width="2" height="80" fill="#FFFFFF" opacity="0.740" /><rect x="592" y="1460" width="48" height="2" fill="#FFFFFF" opacity="0.758" /><rect x="615" y="1437" width="2" height="48" fill="#FFFFFF" opacity="0.758" /><rect x="2104" y="1158" width="82" height="2" fill="#FFFFFF" opacity="0.628" /><rect x="2144" y="1118" width="2" height="82" fill="#FFFFFF" opacity="0.628" /><rect x="1307" y="2298" width="76" height="2" fill="#FFFFFF" opacity="0.497" /><rect x="1344" y="2261" width="2" height="76" fill="#FFFFFF" opacity="0.497" /><rect x="2723" y="1501" width="42" height="2" fill="#FFFFFF" opacity="0.768" /><rect x="2743" y="1481" width="2" height="42" fill="#FFFFFF" opacity="0.768" /><rect x="1697" y="1580" width="24" height="2" fill="#FFFFFF" opacity="0.660" /><rect x="1708" y="1569" width="2" height="24" fill="#FFFFFF" opacity="0.660" /><rect x="1404" y="379" width="32" height="2" fill="#FFFFFF" opacity="0.312" /><rect x="1419" y="364" width="2" height="32" fill="#FFFFFF" opacity="0.312" /></g>
  <g opacity="0.52"><circle cx="1572" cy="1582" r="307" fill="none" stroke="#0C2030" stroke-width="90" /><line x1="1791" y1="1801" x2="2340" y2="2350" stroke="#0C2030" stroke-width="90" stroke-linecap="round" /></g>
  <g filter="url(#soft180)"><circle cx="1536" cy="1536" r="307" fill="none" stroke="url(#symbol180)" stroke-width="90" /><line x1="1755" y1="1755" x2="2304" y2="2304" stroke="url(#symbol180)" stroke-width="90" stroke-linecap="round" /></g>
  <rect x="138" y="138" width="2796" height="2796" rx="629" fill="#FFFFFF" filter="url(#grain180)" opacity="0.18" />
</svg>
