<svg xmlns="http://www.w3.org/2000/svg" width="3072" height="3072" viewBox="0 0 3072 3072">
  <title>QuartzOS App Icon 201 - aero_notes_201</title>
  <defs><linearGradient id="bg200" x1="0%" y1="0%" x2="100%" y2="100%"><stop offset="0%" stop-color="#FF9F43" /><stop offset="26%" stop-color="#53E3A6" /><stop offset="56%" stop-color="#3B82FF" /><stop offset="78%" stop-color="#3C8FC1" /><stop offset="100%" stop-color="#1E2E3A" /></linearGradient><radialGradient id="sun200" cx="28%" cy="20%" r="88%"><stop offset="0%" stop-color="#FFFFFF" stop-opacity="0.62" /><stop offset="30%" stop-color="#8A5CFF" stop-opacity="0.35" /><stop offset="100%" stop-color="#8A5CFF" stop-opacity="0" /></radialGradient><linearGradient id="glass200" x1="0%" y1="0%" x2="0%" y2="100%"><stop offset="0%" stop-color="#FFFFFF" stop-opacity="0.70" /><stop offset="46%" stop-color="#FFFFFF" stop-opacity="0.26" /><stop offset="100%" stop-color="#FFFFFF" stop-opacity="0.00" /></linearGradient><linearGradient id="ribbon200" x1="0%" y1="0%" x2="100%" y2="0%"><stop offset="0%" stop-color="#FF9F43" stop-opacity="0.18" /><stop offset="34%" stop-color="#53E3A6" stop-opacity="0.72" /><stop offset="66%" stop-color="#3B82FF" stop-opacity="0.72" /><stop offset="100%" stop-color="#8A5CFF" stop-opacity="0.18" /></linearGradient><radialGradient id="orb200" cx="34%" cy="27%" r="74%"><stop offset="0%" stop-color="#FFFFFF" stop-opacity="0.84" /><stop offset="30%" stop-color="#FF9F43" stop-opacity="0.52" /><stop offset="68%" stop-color="#53E3A6" stop-opacity="0.42" /><stop offset="100%" stop-color="#3B82FF" stop-opacity="0.20" /></radialGradient><linearGradient id="extrude200" x1="0%" y1="0%" x2="0%" y2="100%"><stop offset="0%" stop-color="#15283C" stop-opacity="0.45" /><stop offset="100%" stop-color="#08131D" stop-opacity="0.06" /></linearGradient><linearGradient id="symbol200" x1="0%" y1="0%" x2="100%" y2="100%"><stop offset="0%" stop-color="#FFFFFF" /><stop offset="100%" stop-color="#8A5CFF" /></linearGradient><filter id="shadow200" x="-40%" y="-40%" width="180%" height="180%"><feDropShadow dx="0" dy="49" stdDeviation="86" flood-color="#06111A" flood-opacity="0.54" /></filter><filter id="soft200" x="-40%" y="-40%" width="180%" height="180%"><feDropShadow dx="0" dy="0" stdDeviation="14" flood-color="#FF9F43" flood-opacity="0.45" /></filter><filter id="grain200"><feTurbulence type="fractalNoise" baseFrequency="1.057" numOctaves="2" seed="200" /><feColorMatrix type="saturate" values="0" /><feComponentTransfer><feFuncA type="table" tableValues="0 0.09" /></feComponentTransfer></filter></defs>
  <rect x="138" y="138" width="2796" height="2796" rx="629" fill="url(#bg200)" filter="url(#shadow200)" />
  <rect x="138" y="138" width="2796" height="2796" rx="629" fill="url(#sun200)" />
  <g><circle cx="2032" cy="2341" r="67" fill="#FFFFFF" opacity="0.159" /><circle cx="1102" cy="906" r="110" fill="#FFFFFF" opacity="0.134" /><circle cx="2411" cy="775" r="93" fill="#FFFFFF" opacity="0.148" /><circle cx="2657" cy="2553" r="147" fill="#FFFFFF" opacity="0.124" /><circle cx="744" cy="2320" r="73" fill="#FFFFFF" opacity="0.138" /><circle cx="1881" cy="2227" r="99" fill="#FFFFFF" opacity="0.211" /><circle cx="579" cy="1930" r="117" fill="#FFFFFF" opacity="0.232" /><circle cx="1539" cy="706" r="71" fill="#FFFFFF" opacity="0.145" /><circle cx="2576" cy="2356" r="61" fill="#FFFFFF" opacity="0.171" /><circle cx="2091" cy="1203" r="66" fill="#FFFFFF" opacity="0.192" /><circle cx="750" cy="2410" r="121" fill="#FFFFFF" opacity="0.141" /><circle cx="2683" cy="1000" r="61" fill="#FFFFFF" opacity="0.083" /><circle cx="1047" cy="360" r="84" fill="#FFFFFF" opacity="0.110" /><circle cx="1116" cy="612" r="95" fill="#FFFFFF" opacity="0.090" /><circle cx="1541" cy="470" r="108" fill="#FFFFFF" opacity="0.209" /><circle cx="2128" cy="1708" r="115" fill="#FFFFFF" opacity="0.082" /><circle cx="1956" cy="1112" r="40" fill="#FFFFFF" opacity="0.179" /><circle cx="1316" cy="999" r="73" fill="#FFFFFF" opacity="0.172" /><circle cx="499" cy="409" r="115" fill="#FFFFFF" opacity="0.224" /><circle cx="713" cy="1640" r="39" fill="#FFFFFF" opacity="0.070" /><circle cx="1343" cy="2623" r="46" fill="#FFFFFF" opacity="0.215" /><circle cx="2337" cy="1423" r="64" fill="#FFFFFF" opacity="0.199" /><circle cx="2412" cy="1330" r="98" fill="#FFFFFF" opacity="0.113" /><circle cx="718" cy="890" r="63" fill="#FFFFFF" opacity="0.082" /><circle cx="817" cy="1682" r="79" fill="#FFFFFF" opacity="0.183" /><circle cx="2420" cy="2603" r="67" fill="#FFFFFF" opacity="0.113" /><circle cx="1948" cy="2686" r="59" fill="#FFFFFF" opacity="0.092" /><circle cx="2513" cy="1586" r="115" fill="#FFFFFF" opacity="0.231" /></g>
  <g><path d="M 299.4 627.1 L 2823.6 350.7 L 2823.6 801.7 L 299.4 1078.2 Z" fill="#FFFFFF" opacity="0.196" /><path d="M 384.0 835.9 L 2852.7 559.4 L 2852.7 1009.5 L 384.0 1286.0 Z" fill="#FFFFFF" opacity="0.235" /><path d="M 183.4 1105.2 L 2766.4 828.7 L 2766.4 1284.6 L 183.4 1561.1 Z" fill="#FFFFFF" opacity="0.128" /><path d="M 368.1 1387.8 L 2845.9 1111.3 L 2845.9 1570.7 L 368.1 1847.2 Z" fill="#FFFFFF" opacity="0.185" /><path d="M 251.2 1622.6 L 2817.7 1346.2 L 2817.7 1776.2 L 251.2 2052.7 Z" fill="#FFFFFF" opacity="0.206" /><path d="M 252.0 1906.8 L 2683.0 1630.3 L 2683.0 2101.3 L 252.0 2377.8 Z" fill="#FFFFFF" opacity="0.175" /><path d="M 231.1 2214.3 L 2725.8 1937.8 L 2725.8 2415.9 L 231.1 2692.3 Z" fill="#FFFFFF" opacity="0.227" /><path d="M 356.7 2408.2 L 2745.6 2131.8 L 2745.6 2624.7 L 356.7 2901.2 Z" fill="#FFFFFF" opacity="0.117" /></g>
  <g filter="url(#soft200)"><g transform="rotate(-5.54 1536.0 1536.0)"><path d="M-368.6 490.1 C -225.8 469.0, -25.8 511.9, 107.5 439.5 C 250.4 451.7, 450.4 537.2, 583.7 438.9 C 726.5 436.7, 926.5 522.1, 1059.8 469.3 C 1202.7 467.9, 1402.7 509.1, 1536.0 512.4 C 1678.8 512.3, 1878.8 474.8, 2012.2 542.0 C 2155.0 554.6, 2355.0 440.3, 2488.3 540.1 C 2631.2 552.5, 2831.2 439.1, 2964.5 507.9 C 3107.3 502.1, 3307.3 472.6, 3440.6 465.0" fill="none" stroke="url(#ribbon200)" stroke-width="58.4" stroke-linecap="round" stroke-opacity="0.120" /></g><g transform="rotate(-4.96 1536.0 1536.0)"><path d="M-368.6 733.2 C -241.7 678.1, -63.9 789.8, 54.6 671.1 C 181.6 673.5, 359.4 777.0, 477.9 694.4 C 604.8 679.7, 782.6 774.3, 901.1 741.2 C 1028.1 738.9, 1205.9 727.0, 1324.4 783.1 C 1451.3 782.2, 1629.1 700.0, 1747.6 794.8 C 1874.6 810.5, 2052.4 664.3, 2170.9 769.0 C 2297.9 757.8, 2475.6 691.3, 2594.1 721.6 C 2721.1 722.4, 2898.9 739.9, 3017.4 681.1 C 3144.4 664.5, 3322.1 782.9, 3440.6 672.3" fill="none" stroke="url(#ribbon200)" stroke-width="54.4" stroke-linecap="round" stroke-opacity="0.146" /></g><g transform="rotate(-4.38 1536.0 1536.0)"><path d="M-368.6 963.0 C -254.4 1008.2, -94.4 897.9, 12.3 1005.0 C 126.6 990.3, 286.6 928.5, 393.2 952.6 C 507.5 954.2, 667.5 968.8, 774.1 906.5 C 888.4 925.3, 1048.4 1018.6, 1155.1 894.7 C 1269.4 895.5, 1429.3 1035.4, 1536.0 924.4 C 1650.3 917.5, 1810.3 1008.7, 1916.9 977.5 C 2031.2 975.9, 2191.2 947.7, 2297.9 1021.8 C 2412.1 1008.2, 2572.1 895.7, 2678.8 1030.5 C 2793.1 1041.7, 2953.1 888.9, 3059.7 998.2 C 3174.0 1000.1, 3334.0 939.7, 3440.6 944.6" fill="none" stroke="url(#ribbon200)" stroke-width="50.4" stroke-linecap="round" stroke-opacity="0.172" /></g><g transform="rotate(-3.80 1536.0 1536.0)"><path d="M-368.6 1062.7 C -264.8 1024.9, -119.3 1101.8, -22.3 986.2 C 81.5 969.5, 227.0 1148.7, 324.0 1009.8 C 427.8 1002.9, 573.3 1118.4, 670.3 1065.4 C 774.1 1065.7, 919.6 1061.4, 1016.6 1119.4 C 1120.4 1122.7, 1265.9 1021.7, 1362.9 1139.1 C 1466.7 1152.2, 1612.2 1018.8, 1709.1 1112.4 C 1813.0 1099.7, 1958.5 1017.3, 2055.4 1055.6 C 2159.3 1057.4, 2304.8 1069.5, 2401.7 1003.1 C 2505.6 979.5, 2651.1 1099.2, 2748.0 986.8 C 2851.9 1007.9, 2997.4 1125.6, 3094.3 1016.6 C 3198.2 1020.7, 3343.7 1106.6, 3440.6 1074.3" fill="none" stroke="url(#ribbon200)" stroke-width="46.4" stroke-linecap="round" stroke-opacity="0.198" /></g><g transform="rotate(-3.22 1536.0 1536.0)"><path d="M-368.6 1320.5 C -273.4 1254.7, -140.1 1368.6, -51.2 1273.5 C 44.0 1284.3, 177.4 1349.4, 266.2 1337.4 C 361.5 1336.4, 494.8 1306.8, 583.7 1391.0 C 678.9 1415.1, 812.2 1243.6, 901.1 1401.8 C 996.4 1371.8, 1129.7 1268.0, 1218.6 1363.4 C 1313.8 1372.5, 1447.1 1299.4, 1536.0 1298.9 C 1631.2 1290.8, 1764.6 1341.3, 1853.4 1247.6 C 1948.7 1271.4, 2082.0 1377.1, 2170.9 1240.5 C 2266.1 1260.0, 2399.4 1412.3, 2488.3 1281.9 C 2583.6 1268.1, 2716.9 1362.5, 2805.8 1346.8 C 2901.0 1349.5, 3034.3 1306.8, 3123.2 1395.7 C 3218.4 1414.6, 3351.8 1258.4, 3440.6 1399.0" fill="none" stroke="url(#ribbon200)" stroke-width="42.4" stroke-linecap="round" stroke-opacity="0.224" /></g><g transform="rotate(-2.64 1536.0 1536.0)"><path d="M-368.6 1522.2 C -225.8 1486.9, -25.8 1548.1, 107.5 1533.6 C 250.4 1530.9, 450.4 1510.7, 583.7 1594.6 C 726.5 1588.5, 926.5 1458.5, 1059.8 1611.7 C 1202.7 1640.8, 1402.7 1464.8, 1536.0 1574.5 C 1678.8 1577.9, 1878.8 1492.8, 2012.2 1505.5 C 2155.0 1502.3, 2355.0 1534.3, 2488.3 1446.7 C 2631.2 1453.8, 2831.2 1577.0, 2964.5 1433.6 C 3107.3 1425.4, 3307.3 1551.1, 3440.6 1474.3" fill="none" stroke="url(#ribbon200)" stroke-width="38.4" stroke-linecap="round" stroke-opacity="0.250" /></g><g transform="rotate(-2.06 1536.0 1536.0)"><path d="M-368.6 1737.8 C -241.7 1697.3, -63.9 1756.5, 54.6 1769.6 C 181.6 1768.5, 359.4 1713.5, 477.9 1826.2 C 604.8 1807.8, 782.6 1647.6, 901.1 1829.2 C 1028.1 1794.2, 1205.9 1659.8, 1324.4 1776.8 C 1451.3 1765.5, 1629.1 1720.0, 1747.6 1700.7 C 1874.6 1697.2, 2052.4 1763.9, 2170.9 1647.1 C 2297.9 1624.4, 2475.6 1794.8, 2594.1 1648.6 C 2721.1 1656.2, 2898.9 1769.4, 3017.4 1704.2 C 3144.4 1712.0, 3322.1 1777.9, 3440.6 1780.2" fill="none" stroke="url(#ribbon200)" stroke-width="34.4" stroke-linecap="round" stroke-opacity="0.276" /></g><g transform="rotate(-1.48 1536.0 1536.0)"><path d="M-368.6 1903.8 C -254.4 1829.4, -94.4 1938.6, 12.3 1867.0 C 126.6 1860.4, 286.6 1932.7, 393.2 1948.5 C 507.5 1946.9, 667.5 1851.3, 774.1 2002.9 C 888.4 1983.8, 1048.4 1809.9, 1155.1 1997.2 C 1269.4 1970.3, 1429.3 1838.0, 1536.0 1934.8 C 1650.3 1934.4, 1810.3 1883.8, 1916.9 1853.6 C 2031.2 1855.9, 2191.2 1920.6, 2297.9 1802.8 C 2412.1 1799.5, 2572.1 1985.2, 2678.8 1813.3 C 2793.1 1788.1, 2953.1 1956.2, 3059.7 1878.7 C 3174.0 1888.5, 3334.0 1922.4, 3440.6 1959.2" fill="none" stroke="url(#ribbon200)" stroke-width="30.4" stroke-linecap="round" stroke-opacity="0.302" /></g><g transform="rotate(-0.90 1536.0 1536.0)"><path d="M-368.6 2056.1 C -264.8 1979.5, -119.3 2177.3, -22.3 1985.7 C 81.5 1970.2, 227.0 2100.8, 324.0 2069.3 C 427.8 2072.9, 573.3 2040.8, 670.3 2145.0 C 774.1 2171.8, 919.6 2026.7, 1016.6 2166.7 C 1120.4 2167.4, 1265.9 2004.8, 1362.9 2121.4 C 1466.7 2143.7, 1612.2 2009.0, 1709.1 2036.4 C 1813.0 2038.3, 1958.5 2074.3, 2055.4 1963.4 C 2159.3 1964.8, 2304.8 2108.4, 2401.7 1946.7 C 2505.6 1959.3, 2651.1 2182.1, 2748.0 1996.3 C 2851.9 2015.8, 2997.4 2091.5, 3094.3 2082.2 C 3198.2 2090.7, 3343.7 2044.1, 3440.6 2152.3" fill="none" stroke="url(#ribbon200)" stroke-width="26.4" stroke-linecap="round" stroke-opacity="0.328" /></g><g transform="rotate(-0.32 1536.0 1536.0)"><path d="M-368.6 2210.6 C -273.4 2328.2, -140.1 2130.3, -51.2 2232.5 C 44.0 2238.8, 177.4 2186.9, 266.2 2142.0 C 361.5 2124.2, 494.8 2245.3, 583.7 2093.2 C 678.9 2046.3, 812.2 2319.7, 901.1 2115.6 C 996.4 2087.0, 1129.7 2278.2, 1218.6 2195.7 C 1313.8 2195.9, 1447.1 2217.3, 1536.0 2284.8 C 1631.2 2272.4, 1764.6 2132.3, 1853.4 2329.0 C 1948.7 2295.8, 2082.0 2120.3, 2170.9 2301.4 C 2266.1 2278.5, 2399.4 2171.4, 2488.3 2218.7 C 2583.6 2218.6, 2716.9 2202.4, 2805.8 2131.2 C 2901.0 2154.8, 3034.3 2242.1, 3123.2 2091.8 C 3218.4 2074.8, 3351.8 2254.4, 3440.6 2124.6" fill="none" stroke="url(#ribbon200)" stroke-width="22.4" stroke-linecap="round" stroke-opacity="0.354" /></g><g transform="rotate(0.26 1536.0 1536.0)"><path d="M-368.6 2464.0 C -225.8 2464.4, -25.8 2463.3, 107.5 2374.1 C 250.4 2406.6, 450.4 2505.7, 583.7 2338.1 C 726.5 2320.3, 926.5 2596.9, 1059.8 2378.5 C 1202.7 2344.9, 1402.7 2562.2, 1536.0 2470.7 C 1678.8 2472.5, 1878.8 2461.8, 2012.2 2558.9 C 2155.0 2535.9, 2355.0 2408.2, 2488.3 2589.5 C 2631.2 2597.2, 2831.2 2420.5, 2964.5 2544.0 C 3107.3 2549.3, 3307.3 2382.9, 3440.6 2449.9" fill="none" stroke="url(#ribbon200)" stroke-width="18.4" stroke-linecap="round" stroke-opacity="0.380" /></g><g transform="rotate(0.84 1536.0 1536.0)"><path d="M-368.6 2708.2 C -241.7 2650.6, -63.9 2819.3, 54.6 2575.3 C 181.6 2584.8, 359.4 2857.8, 477.9 2618.2 C 604.8 2600.3, 782.6 2786.4, 901.1 2715.7 C 1028.1 2712.9, 1205.9 2703.1, 1324.4 2808.7 C 1451.3 2797.6, 1629.1 2596.0, 1747.6 2840.8 C 1874.6 2879.4, 2052.4 2628.3, 2170.9 2792.4 C 2297.9 2812.7, 2475.6 2626.8, 2594.1 2693.0 C 2721.1 2696.5, 2898.9 2717.7, 3017.4 2602.8 C 3144.4 2638.5, 3322.1 2789.2, 3440.6 2576.6" fill="none" stroke="url(#ribbon200)" stroke-width="14.4" stroke-linecap="round" stroke-opacity="0.406" /></g></g>
  <g><ellipse cx="1536.0" cy="1551.9" rx="728.6" ry="605.7" fill="url(#extrude200)" opacity="0.220" /><ellipse cx="1536.0" cy="1567.7" rx="736.0" ry="610.9" fill="url(#extrude200)" opacity="0.205" /><ellipse cx="1536.0" cy="1583.6" rx="743.4" ry="616.1" fill="url(#extrude200)" opacity="0.190" /><ellipse cx="1536.0" cy="1599.5" rx="750.9" ry="621.3" fill="url(#extrude200)" opacity="0.175" /><ellipse cx="1536.0" cy="1615.4" rx="758.3" ry="626.5" fill="url(#extrude200)" opacity="0.160" /><ellipse cx="1536.0" cy="1631.2" rx="765.7" ry="631.7" fill="url(#extrude200)" opacity="0.145" /><ellipse cx="1536.0" cy="1647.1" rx="773.2" ry="636.9" fill="url(#extrude200)" opacity="0.130" /><ellipse cx="1536.0" cy="1663.0" rx="780.6" ry="642.1" fill="url(#extrude200)" opacity="0.115" /><ellipse cx="1536.0" cy="1678.8" rx="788.0" ry="647.4" fill="url(#extrude200)" opacity="0.100" /><ellipse cx="1536.0" cy="1694.7" rx="795.5" ry="652.6" fill="url(#extrude200)" opacity="0.085" /><ellipse cx="1536.0" cy="1710.6" rx="802.9" ry="657.8" fill="url(#extrude200)" opacity="0.070" /><ellipse cx="1536.0" cy="1726.5" rx="810.3" ry="663.0" fill="url(#extrude200)" opacity="0.055" /></g>
  <ellipse cx="1536.0" cy="1726.5" rx="773.2" ry="214.9" fill="#0B1D2D" opacity="0.24" />
  <ellipse cx="1536.0" cy="1536.0" rx="743.4" ry="651.3" fill="url(#orb200)" stroke="#FFFFFF" stroke-opacity="0.42" stroke-width="7" />
  <ellipse cx="1431.9" cy="1392.7" rx="505.5" ry="299.6" fill="#FFFFFF" opacity="0.25" />
  <path d="M 199.4 399.4 C 1013.8 -30.7, 2058.2 768.0, 2872.6 215.0 L 2872.6 983.0 C 2089.0 1228.8, 1013.8 307.2, 199.4 1167.4 Z" fill="url(#glass200)" />
  <rect x="270" y="270" width="2532" height="2532" rx="430" fill="none" stroke="#FFFFFF" stroke-opacity="0.30" stroke-width="5" />
  <rect x="288.4" y="288.4" width="2495.1" height="2495.1" rx="399" fill="none" stroke="#FF9F43" stroke-opacity="0.35" stroke-width="3" />
  <g filter="url(#soft200)"><rect x="627" y="774" width="76" height="2" fill="#FFFFFF" opacity="0.638" /><rect x="664" y="737" width="2" height="76" fill="#FFFFFF" opacity="0.638" /><rect x="286" y="1415" width="66" height="2" fill="#FFFFFF" opacity="0.312" /><rect x="318" y="1383" width="2" height="66" fill="#FFFFFF" opacity="0.312" /><rect x="1911" y="979" width="84" height="2" fill="#FFFFFF" opacity="0.578" /><rect x="1952" y="938" width="2" height="84" fill="#FFFFFF" opacity="0.578" /><rect x="1448" y="989" width="58" height="2" fill="#FFFFFF" opacity="0.759" /><rect x="1476" y="961" width="2" height="58" fill="#FFFFFF" opacity="0.759" /><rect x="1539" y="1797" width="72" height="2" fill="#FFFFFF" opacity="0.339" /><rect x="1574" y="1762" width="2" height="72" fill="#FFFFFF" opacity="0.339" /><rect x="1309" y="2365" width="42" height="2" fill="#FFFFFF" opacity="0.843" /><rect x="1329" y="2345" width="2" height="42" fill="#FFFFFF" opacity="0.843" /><rect x="2310" y="1474" width="32" height="2" fill="#FFFFFF" opacity="0.328" /><rect x="2325" y="1459" width="2" height="32" fill="#FFFFFF" opacity="0.328" /><rect x="1181" y="422" width="54" height="2" fill="#FFFFFF" opacity="0.624" /><rect x="1207" y="396" width="2" height="54" fill="#FFFFFF" opacity="0.624" /><rect x="2247" y="308" width="50" height="2" fill="#FFFFFF" opacity="0.315" /><rect x="2271" y="284" width="2" height="50" fill="#FFFFFF" opacity="0.315" /><rect x="1113" y="2761" width="66" height="2" fill="#FFFFFF" opacity="0.498" /><rect x="1145" y="2729" width="2" height="66" fill="#FFFFFF" opacity="0.498" /><rect x="2095" y="934" width="78" height="2" fill="#FFFFFF" opacity="0.425" /><rect x="2133" y="896" width="2" height="78" fill="#FFFFFF" opacity="0.425" /><rect x="1329" y="1098" width="78" height="2" fill="#FFFFFF" opacity="0.428" /><rect x="1367" y="1060" width="2" height="78" fill="#FFFFFF" opacity="0.428" /><rect x="2102" y="2464" width="50" height="2" fill="#FFFFFF" opacity="0.528" /><rect x="2126" y="2440" width="2" height="50" fill="#FFFFFF" opacity="0.528" /><rect x="763" y="2011" width="26" height="2" fill="#FFFFFF" opacity="0.300" /><rect x="775" y="1999" width="2" height="26" fill="#FFFFFF" opacity="0.300" /><rect x="810" y="1080" width="66" height="2" fill="#FFFFFF" opacity="0.750" /><rect x="842" y="1048" width="2" height="66" fill="#FFFFFF" opacity="0.750" /><rect x="2512" y="1158" width="30" height="2" fill="#FFFFFF" opacity="0.325" /><rect x="2526" y="1144" width="2" height="30" fill="#FFFFFF" opacity="0.325" /><rect x="1191" y="2126" width="50" height="2" fill="#FFFFFF" opacity="0.377" /><rect x="1215" y="2102" width="2" height="50" fill="#FFFFFF" opacity="0.377" /><rect x="1474" y="1750" width="50" height="2" fill="#FFFFFF" opacity="0.368" /><rect x="1498" y="1726" width="2" height="50" fill="#FFFFFF" opacity="0.368" /><rect x="889" y="863" width="36" height="2" fill="#FFFFFF" opacity="0.636" /><rect x="906" y="846" width="2" height="36" fill="#FFFFFF" opacity="0.636" /><rect x="1496" y="1678" width="36" height="2" fill="#FFFFFF" opacity="0.410" /><rect x="1513" y="1661" width="2" height="36" fill="#FFFFFF" opacity="0.410" /><rect x="2336" y="2429" width="50" height="2" fill="#FFFFFF" opacity="0.373" /><rect x="2360" y="2405" width="2" height="50" fill="#FFFFFF" opacity="0.373" /><rect x="1844" y="2221" width="48" height="2" fill="#FFFFFF" opacity="0.503" /><rect x="1867" y="2198" width="2" height="48" fill="#FFFFFF" opacity="0.503" /><rect x="2220" y="396" width="60" height="2" fill="#FFFFFF" opacity="0.550" /><rect x="2249" y="367" width="2" height="60" fill="#FFFFFF" opacity="0.550" /><rect x="996" y="529" width="30" height="2" fill="#FFFFFF" opacity="0.751" /><rect x="1010" y="515" width="2" height="30" fill="#FFFFFF" opacity="0.751" /><rect x="569" y="2080" width="28" height="2" fill="#FFFFFF" opacity="0.534" /><rect x="582" y="2067" width="2" height="28" fill="#FFFFFF" opacity="0.534" /><rect x="2240" y="1165" width="82" height="2" fill="#FFFFFF" opacity="0.776" /><rect x="2280" y="1125" width="2" height="82" fill="#FFFFFF" opacity="0.776" /></g>
  <g opacity="0.52"><path d="M1023 1326 L1572 1070 L2121 1326 L2121 2043 L1023 2043 Z" fill="none" stroke="#0C2030" stroke-width="90" stroke-linejoin="round" /><line x1="1572" y1="1070" x2="1572" y2="2043" stroke="#0C2030" stroke-width="88" /></g>
  <g filter="url(#soft200)"><path d="M987 1280 L1536 1024 L2085 1280 L2085 1997 L987 1997 Z" fill="none" stroke="url(#symbol200)" stroke-width="90" stroke-linejoin="round" /><line x1="1536" y1="1024" x2="1536" y2="1997" stroke="url(#symbol200)" stroke-width="88" /></g>
  <rect x="138" y="138" width="2796" height="2796" rx="629" fill="#FFFFFF" filter="url(#grain200)" opacity="0.18" />
</svg>
