<svg xmlns="http://www.w3.org/2000/svg" width="3072" height="3072" viewBox="0 0 3072 3072">
  <title>QuartzOS App Icon 101 - aero_cloud_101</title>
  <defs><linearGradient id="bg100" x1="0%" y1="0%" x2="100%" y2="100%"><stop offset="0%" stop-color="#8A5CFF" /><stop offset="26%" stop-color="#FF9F43" /><stop offset="56%" stop-color="#53E3A6" /><stop offset="78%" stop-color="#5AA47F" /><stop offset="100%" stop-color="#1A2B22" /></linearGradient><radialGradient id="sun100" cx="30%" cy="13%" r="88%"><stop offset="0%" stop-color="#FFFFFF" stop-opacity="0.62" /><stop offset="30%" stop-color="#36D1FF" stop-opacity="0.35" /><stop offset="100%" stop-color="#36D1FF" stop-opacity="0" /></radialGradient><linearGradient id="glass100" x1="0%" y1="0%" x2="0%" y2="100%"><stop offset="0%" stop-color="#FFFFFF" stop-opacity="0.70" /><stop offset="46%" stop-color="#FFFFFF" stop-opacity="0.26" /><stop offset="100%" stop-color="#FFFFFF" stop-opacity="0.00" /></linearGradient><linearGradient id="ribbon100" x1="0%" y1="0%" x2="100%" y2="0%"><stop offset="0%" stop-color="#8A5CFF" stop-opacity="0.18" /><stop offset="34%" stop-color="#FF9F43" stop-opacity="0.72" /><stop offset="66%" stop-color="#53E3A6" stop-opacity="0.72" /><stop offset="100%" stop-color="#36D1FF" stop-opacity="0.18" /></linearGradient><radialGradient id="orb100" cx="34%" cy="27%" r="74%"><stop offset="0%" stop-color="#FFFFFF" stop-opacity="0.84" /><stop offset="30%" stop-color="#8A5CFF" stop-opacity="0.52" /><stop offset="68%" stop-color="#FF9F43" stop-opacity="0.42" /><stop offset="100%" stop-color="#53E3A6" stop-opacity="0.20" /></radialGradient><linearGradient id="extrude100" x1="0%" y1="0%" x2="0%" y2="100%"><stop offset="0%" stop-color="#15283C" stop-opacity="0.45" /><stop offset="100%" stop-color="#08131D" stop-opacity="0.06" /></linearGradient><linearGradient id="symbol100" x1="0%" y1="0%" x2="100%" y2="100%"><stop offset="0%" stop-color="#FFFFFF" /><stop offset="100%" stop-color="#36D1FF" /></linearGradient><filter id="shadow100" x="-40%" y="-40%" width="180%" height="180%"><feDropShadow dx="0" dy="49" stdDeviation="86" flood-color="#06111A" flood-opacity="0.54" /></filter><filter id="soft100" x="-40%" y="-40%" width="180%" height="180%"><feDropShadow dx="0" dy="0" stdDeviation="14" flood-color="#8A5CFF" flood-opacity="0.45" /></filter><filter id="grain100"><feTurbulence type="fractalNoise" baseFrequency="1.033" numOctaves="2" seed="100" /><feColorMatrix type="saturate" values="0" /><feComponentTransfer><feFuncA type="table" tableValues="0 0.09" /></feComponentTransfer></filter></defs>
  <rect x="138" y="138" width="2796" height="2796" rx="629" fill="url(#bg100)" filter="url(#shadow100)" />
  <rect x="138" y="138" width="2796" height="2796" rx="629" fill="url(#sun100)" />
  <g><circle cx="2026" cy="2289" r="37" fill="#FFFFFF" opacity="0.079" /><circle cx="973" cy="765" r="135" fill="#FFFFFF" opacity="0.134" /><circle cx="2317" cy="1976" r="68" fill="#FFFFFF" opacity="0.087" /><circle cx="1112" cy="1453" r="103" fill="#FFFFFF" opacity="0.168" /><circle cx="2547" cy="1451" r="46" fill="#FFFFFF" opacity="0.207" /><circle cx="1285" cy="1458" r="64" fill="#FFFFFF" opacity="0.162" /><circle cx="2550" cy="646" r="76" fill="#FFFFFF" opacity="0.135" /><circle cx="962" cy="797" r="132" fill="#FFFFFF" opacity="0.130" /><circle cx="1775" cy="1181" r="156" fill="#FFFFFF" opacity="0.177" /><circle cx="1679" cy="1467" r="75" fill="#FFFFFF" opacity="0.090" /><circle cx="1005" cy="552" r="109" fill="#FFFFFF" opacity="0.119" /><circle cx="652" cy="1406" r="90" fill="#FFFFFF" opacity="0.222" /><circle cx="723" cy="1433" r="136" fill="#FFFFFF" opacity="0.221" /><circle cx="2058" cy="1183" r="91" fill="#FFFFFF" opacity="0.089" /><circle cx="785" cy="2570" r="149" fill="#FFFFFF" opacity="0.201" /><circle cx="1607" cy="1845" r="126" fill="#FFFFFF" opacity="0.169" /><circle cx="1412" cy="2395" r="95" fill="#FFFFFF" opacity="0.155" /><circle cx="446" cy="1123" r="56" fill="#FFFFFF" opacity="0.107" /><circle cx="819" cy="1000" r="37" fill="#FFFFFF" opacity="0.198" /><circle cx="1699" cy="2371" r="104" fill="#FFFFFF" opacity="0.176" /><circle cx="1174" cy="453" r="126" fill="#FFFFFF" opacity="0.239" /><circle cx="1310" cy="2677" r="64" fill="#FFFFFF" opacity="0.188" /><circle cx="1844" cy="1085" r="87" fill="#FFFFFF" opacity="0.088" /><circle cx="1226" cy="900" r="106" fill="#FFFFFF" opacity="0.168" /><circle cx="975" cy="911" r="63" fill="#FFFFFF" opacity="0.068" /><circle cx="527" cy="1665" r="125" fill="#FFFFFF" opacity="0.089" /><circle cx="713" cy="593" r="115" fill="#FFFFFF" opacity="0.153" /><circle cx="1896" cy="932" r="71" fill="#FFFFFF" opacity="0.123" /></g>
  <g><path d="M 317.9 635.1 L 2814.6 358.6 L 2814.6 817.9 L 317.9 1094.4 Z" fill="#FFFFFF" opacity="0.103" /><path d="M 170.1 858.9 L 2780.6 582.4 L 2780.6 1023.5 L 170.1 1300.0 Z" fill="#FFFFFF" opacity="0.229" /><path d="M 376.1 1109.2 L 2759.3 832.8 L 2759.3 1251.4 L 376.1 1527.9 Z" fill="#FFFFFF" opacity="0.094" /><path d="M 380.5 1431.0 L 2922.2 1154.5 L 2922.2 1604.0 L 380.5 1880.5 Z" fill="#FFFFFF" opacity="0.112" /><path d="M 342.6 1631.2 L 2726.2 1354.8 L 2726.2 1795.7 L 342.6 2072.2 Z" fill="#FFFFFF" opacity="0.093" /><path d="M 309.5 1923.1 L 2879.3 1646.6 L 2879.3 2065.0 L 309.5 2341.4 Z" fill="#FFFFFF" opacity="0.170" /><path d="M 392.2 2164.1 L 2775.5 1887.7 L 2775.5 2336.9 L 392.2 2613.4 Z" fill="#FFFFFF" opacity="0.160" /><path d="M 344.9 2449.8 L 2717.3 2173.3 L 2717.3 2620.0 L 344.9 2896.5 Z" fill="#FFFFFF" opacity="0.146" /></g>
  <g filter="url(#soft100)"><g transform="rotate(-13.08 1536.0 1536.0)"><path d="M-368.6 522.3 C -225.8 459.8, -25.8 567.8, 107.5 475.2 C 250.4 484.7, 450.4 550.8, 583.7 510.2 C 726.5 511.7, 926.5 529.4, 1059.8 552.6 C 1202.7 544.0, 1402.7 492.5, 1536.0 576.6 C 1678.8 585.8, 1878.8 501.0, 2012.2 567.7 C 2155.0 567.3, 2355.0 488.3, 2488.3 531.3 C 2631.2 527.9, 2831.2 517.1, 2964.5 489.4 C 3107.3 488.1, 3307.3 539.1, 3440.6 467.5" fill="none" stroke="url(#ribbon100)" stroke-width="58.4" stroke-linecap="round" stroke-opacity="0.120" /></g><g transform="rotate(-12.50 1536.0 1536.0)"><path d="M-368.6 668.5 C -241.7 617.8, -63.9 698.6, 54.6 679.5 C 181.6 675.2, 359.4 661.8, 477.9 720.2 C 604.8 730.9, 782.6 638.4, 901.1 729.5 C 1028.1 753.5, 1205.9 629.5, 1324.4 701.8 C 1451.3 691.7, 1629.1 655.4, 1747.6 653.9 C 1874.6 650.2, 2052.4 675.1, 2170.9 614.8 C 2297.9 600.6, 2475.6 702.2, 2594.1 608.3 C 2721.1 618.4, 2898.9 689.8, 3017.4 638.3 C 3144.4 635.7, 3322.1 695.2, 3440.6 686.6" fill="none" stroke="url(#ribbon100)" stroke-width="54.4" stroke-linecap="round" stroke-opacity="0.146" /></g><g transform="rotate(-11.92 1536.0 1536.0)"><path d="M-368.6 903.3 C -254.4 918.4, -94.4 889.7, 12.3 963.5 C 126.6 987.1, 286.6 853.0, 393.2 970.1 C 507.5 993.3, 667.5 862.4, 774.1 936.2 C 888.4 941.6, 1048.4 875.9, 1155.1 882.4 C 1269.4 886.4, 1429.3 920.0, 1536.0 841.3 C 1650.3 862.7, 1810.3 935.8, 1916.9 837.8 C 2031.2 858.2, 2191.2 941.0, 2297.9 874.1 C 2412.1 879.4, 2572.1 924.2, 2678.8 928.1 C 2793.1 937.3, 2953.1 890.3, 3059.7 967.1 C 3174.0 955.1, 3334.0 827.0, 3440.6 967.4" fill="none" stroke="url(#ribbon100)" stroke-width="50.4" stroke-linecap="round" stroke-opacity="0.172" /></g><g transform="rotate(-11.34 1536.0 1536.0)"><path d="M-368.6 1124.0 C -264.8 1193.5, -119.3 1087.0, -22.3 1199.6 C 81.5 1218.6, 227.0 1059.4, 324.0 1168.6 C 427.8 1174.8, 573.3 1104.0, 670.3 1110.4 C 774.1 1115.3, 919.6 1135.4, 1016.6 1060.5 C 1120.4 1083.8, 1265.9 1183.4, 1362.9 1049.1 C 1466.7 1028.6, 1612.2 1183.2, 1709.1 1083.1 C 1813.0 1094.3, 1958.5 1159.4, 2055.4 1141.8 C 2159.3 1138.3, 2304.8 1115.3, 2401.7 1189.8 C 2505.6 1195.1, 2651.1 1103.3, 2748.0 1197.8 C 2851.9 1218.3, 2997.4 1047.5, 3094.3 1161.0 C 3198.2 1161.9, 3343.7 1092.7, 3440.6 1101.8" fill="none" stroke="url(#ribbon100)" stroke-width="46.4" stroke-linecap="round" stroke-opacity="0.198" /></g><g transform="rotate(-10.76 1536.0 1536.0)"><path d="M-368.6 1334.3 C -273.4 1314.0, -140.1 1356.7, -51.2 1369.9 C 44.0 1377.7, 177.4 1321.0, 266.2 1413.3 C 361.5 1420.8, 494.8 1243.7, 583.7 1408.8 C 678.9 1384.2, 812.2 1305.3, 901.1 1359.0 C 996.4 1349.4, 1129.7 1313.2, 1218.6 1294.3 C 1313.8 1297.1, 1447.1 1379.4, 1536.0 1253.8 C 1631.2 1281.3, 1764.6 1361.3, 1853.4 1262.1 C 1948.7 1239.2, 2082.0 1360.9, 2170.9 1314.2 C 2266.1 1315.4, 2399.4 1354.5, 2488.3 1378.5 C 2583.6 1374.9, 2716.9 1320.7, 2805.8 1415.9 C 2901.0 1384.9, 3034.3 1287.2, 3123.2 1403.9 C 3218.4 1397.7, 3351.8 1293.8, 3440.6 1349.6" fill="none" stroke="url(#ribbon100)" stroke-width="42.4" stroke-linecap="round" stroke-opacity="0.224" /></g><g transform="rotate(-10.18 1536.0 1536.0)"><path d="M-368.6 1545.7 C -225.8 1596.5, -25.8 1520.0, 107.5 1634.4 C 250.4 1638.6, 450.4 1506.1, 583.7 1620.7 C 726.5 1608.6, 926.5 1507.1, 1059.8 1561.5 C 1202.7 1559.2, 1402.7 1538.4, 1536.0 1492.7 C 1678.8 1492.0, 1878.8 1565.9, 2012.2 1456.0 C 2155.0 1421.8, 2355.0 1623.1, 2488.3 1473.7 C 2631.2 1474.8, 2831.2 1588.3, 2964.5 1535.1 C 3107.3 1532.7, 3307.3 1557.8, 3440.6 1602.8" fill="none" stroke="url(#ribbon100)" stroke-width="38.4" stroke-linecap="round" stroke-opacity="0.250" /></g><g transform="rotate(-9.60 1536.0 1536.0)"><path d="M-368.6 1703.4 C -241.7 1575.8, -63.9 1772.4, 54.6 1643.0 C 181.6 1630.2, 359.4 1730.7, 477.9 1716.4 C 604.8 1714.9, 782.6 1691.9, 901.1 1781.9 C 1028.1 1775.6, 1205.9 1627.6, 1324.4 1799.8 C 1451.3 1770.6, 1629.1 1599.7, 1747.6 1759.1 C 1874.6 1742.0, 2052.4 1653.4, 2170.9 1684.7 C 2297.9 1678.0, 2475.6 1720.9, 2594.1 1621.6 C 2721.1 1606.9, 2898.9 1735.1, 3017.4 1608.1 C 3144.4 1614.5, 3322.1 1797.0, 3440.6 1652.4" fill="none" stroke="url(#ribbon100)" stroke-width="34.4" stroke-linecap="round" stroke-opacity="0.276" /></g><g transform="rotate(-9.02 1536.0 1536.0)"><path d="M-368.6 1831.0 C -254.4 1900.9, -94.4 1801.2, 12.3 1924.8 C 126.6 1895.3, 286.6 1795.6, 393.2 1863.0 C 507.5 1874.9, 667.5 1803.7, 774.1 1781.8 C 888.4 1770.4, 1048.4 1888.2, 1155.1 1730.3 C 1269.4 1699.2, 1429.3 1919.9, 1536.0 1740.0 C 1650.3 1726.2, 1810.3 1910.8, 1916.9 1804.8 C 2031.2 1799.7, 2191.2 1858.1, 2297.9 1885.5 C 2412.1 1890.4, 2572.1 1801.0, 2678.8 1933.1 C 2793.1 1898.0, 2953.1 1752.9, 3059.7 1918.8 C 3174.0 1939.5, 3334.0 1801.0, 3440.6 1851.2" fill="none" stroke="url(#ribbon100)" stroke-width="30.4" stroke-linecap="round" stroke-opacity="0.302" /></g><g transform="rotate(-8.44 1536.0 1536.0)"><path d="M-368.6 2091.7 C -264.8 2029.7, -119.3 2123.4, -22.3 1985.1 C 81.5 1964.9, 227.0 2140.2, 324.0 2041.5 C 427.8 2031.3, 573.3 2134.0, 670.3 2128.4 C 774.1 2130.3, 919.6 2052.1, 1016.6 2193.1 C 1120.4 2165.5, 1265.9 2053.6, 1362.9 2196.3 C 1466.7 2175.4, 1612.2 2019.6, 1709.1 2136.1 C 1813.0 2119.6, 1958.5 2063.2, 2055.4 2049.0 C 2159.3 2035.1, 2304.8 2127.4, 2401.7 1987.8 C 2505.6 1965.0, 2651.1 2207.1, 2748.0 1989.7 C 2851.9 2013.0, 2997.4 2167.1, 3094.3 2053.5 C 3198.2 2047.7, 3343.7 2105.2, 3440.6 2140.5" fill="none" stroke="url(#ribbon100)" stroke-width="26.4" stroke-linecap="round" stroke-opacity="0.328" /></g><g transform="rotate(-7.86 1536.0 1536.0)"><path d="M-368.6 2257.6 C -273.4 2381.7, -140.1 2221.3, -51.2 2370.8 C 44.0 2345.6, 177.4 2167.0, 266.2 2310.4 C 361.5 2294.2, 494.8 2205.8, 583.7 2217.9 C 678.9 2214.5, 812.2 2278.7, 901.1 2149.6 C 996.4 2142.4, 1129.7 2380.3, 1218.6 2146.8 C 1313.8 2155.2, 1447.1 2304.9, 1536.0 2211.2 C 1631.2 2224.7, 1764.6 2272.8, 1853.4 2303.8 C 1948.7 2310.2, 2082.0 2218.6, 2170.9 2368.4 C 2266.1 2377.6, 2399.4 2180.4, 2488.3 2365.8 C 2583.6 2392.7, 2716.9 2146.3, 2805.8 2297.6 C 2901.0 2293.4, 3034.3 2216.3, 3123.2 2205.1 C 3218.4 2191.2, 3351.8 2293.0, 3440.6 2144.6" fill="none" stroke="url(#ribbon100)" stroke-width="22.4" stroke-linecap="round" stroke-opacity="0.354" /></g><g transform="rotate(-7.28 1536.0 1536.0)"><path d="M-368.6 2400.7 C -225.8 2276.3, -25.8 2496.1, 107.5 2352.7 C 250.4 2335.9, 450.4 2438.4, 583.7 2450.8 C 726.5 2431.6, 926.5 2376.5, 1059.8 2518.5 C 1202.7 2539.6, 1402.7 2322.0, 1536.0 2514.7 C 1678.8 2554.6, 1878.8 2284.8, 2012.2 2441.8 C 2155.0 2440.8, 2355.0 2380.2, 2488.3 2343.9 C 2631.2 2341.3, 2831.2 2431.8, 2964.5 2280.5 C 3107.3 2327.5, 3307.3 2509.4, 3440.6 2289.9" fill="none" stroke="url(#ribbon100)" stroke-width="18.4" stroke-linecap="round" stroke-opacity="0.380" /></g><g transform="rotate(-6.70 1536.0 1536.0)"><path d="M-368.6 2590.3 C -241.7 2473.3, -63.9 2701.6, 54.6 2468.7 C 181.6 2458.0, 359.4 2706.6, 477.9 2544.4 C 604.8 2526.6, 782.6 2606.7, 901.1 2647.8 C 1028.1 2644.1, 1205.9 2554.4, 1324.4 2716.4 C 1451.3 2742.6, 1629.1 2468.9, 1747.6 2708.5 C 1874.6 2706.7, 2052.4 2549.4, 2170.9 2628.8 C 2297.9 2644.1, 2475.6 2574.5, 2594.1 2525.8 C 2721.1 2512.5, 2898.9 2633.9, 3017.4 2461.9 C 3144.4 2432.1, 3322.1 2701.4, 3440.6 2475.9" fill="none" stroke="url(#ribbon100)" stroke-width="14.4" stroke-linecap="round" stroke-opacity="0.406" /></g></g>
  <g><ellipse cx="1536.0" cy="1551.9" rx="728.6" ry="605.7" fill="url(#extrude100)" opacity="0.220" /><ellipse cx="1536.0" cy="1567.7" rx="736.0" ry="610.9" fill="url(#extrude100)" opacity="0.205" /><ellipse cx="1536.0" cy="1583.6" rx="743.4" ry="616.1" fill="url(#extrude100)" opacity="0.190" /><ellipse cx="1536.0" cy="1599.5" rx="750.9" ry="621.3" fill="url(#extrude100)" opacity="0.175" /><ellipse cx="1536.0" cy="1615.4" rx="758.3" ry="626.5" fill="url(#extrude100)" opacity="0.160" /><ellipse cx="1536.0" cy="1631.2" rx="765.7" ry="631.7" fill="url(#extrude100)" opacity="0.145" /><ellipse cx="1536.0" cy="1647.1" rx="773.2" ry="636.9" fill="url(#extrude100)" opacity="0.130" /><ellipse cx="1536.0" cy="1663.0" rx="780.6" ry="642.1" fill="url(#extrude100)" opacity="0.115" /><ellipse cx="1536.0" cy="1678.8" rx="788.0" ry="647.4" fill="url(#extrude100)" opacity="0.100" /><ellipse cx="1536.0" cy="1694.7" rx="795.5" ry="652.6" fill="url(#extrude100)" opacity="0.085" /><ellipse cx="1536.0" cy="1710.6" rx="802.9" ry="657.8" fill="url(#extrude100)" opacity="0.070" /><ellipse cx="1536.0" cy="1726.5" rx="810.3" ry="663.0" fill="url(#extrude100)" opacity="0.055" /></g>
  <ellipse cx="1536.0" cy="1726.5" rx="773.2" ry="214.9" fill="#0B1D2D" opacity="0.24" />
  <ellipse cx="1536.0" cy="1536.0" rx="743.4" ry="651.3" fill="url(#orb100)" stroke="#FFFFFF" stroke-opacity="0.42" stroke-width="7" />
  <ellipse cx="1431.9" cy="1392.7" rx="505.5" ry="299.6" fill="#FFFFFF" opacity="0.25" />
  <path d="M 199.4 399.4 C 1013.8 -30.7, 2058.2 768.0, 2872.6 215.0 L 2872.6 983.0 C 2089.0 1228.8, 1013.8 307.2, 199.4 1167.4 Z" fill="url(#glass100)" />
  <rect x="270" y="270" width="2532" height="2532" rx="430" fill="none" stroke="#FFFFFF" stroke-opacity="0.30" stroke-width="5" />
  <rect x="288.4" y="288.4" width="2495.1" height="2495.1" rx="399" fill="none" stroke="#8A5CFF" stroke-opacity="0.35" stroke-width="3" />
  <g filter="url(#soft100)"><rect x="2010" y="849" width="56" height="2" fill="#FFFFFF" opacity="0.594" /><rect x="2037" y="822" width="2" height="56" fill="#FFFFFF" opacity="0.594" /><rect x="2273" y="633" width="58" height="2" fill="#FFFFFF" opacity="0.457" /><rect x="2301" y="605" width="2" height="58" fill="#FFFFFF" opacity="0.457" /><rect x="2443" y="1574" width="48" height="2" fill="#FFFFFF" opacity="0.475" /><rect x="2466" y="1551" width="2" height="48" fill="#FFFFFF" opacity="0.475" /><rect x="1639" y="937" width="42" height="2" fill="#FFFFFF" opacity="0.749" /><rect x="1659" y="917" width="2" height="42" fill="#FFFFFF" opacity="0.749" /><rect x="1432" y="1855" width="32" height="2" fill="#FFFFFF" opacity="0.313" /><rect x="1447" y="1840" width="2" height="32" fill="#FFFFFF" opacity="0.313" /><rect x="591" y="748" width="50" height="2" fill="#FFFFFF" opacity="0.304" /><rect x="615" y="724" width="2" height="50" fill="#FFFFFF" opacity="0.304" /><rect x="993" y="1817" width="80" height="2" fill="#FFFFFF" opacity="0.315" /><rect x="1032" y="1778" width="2" height="80" fill="#FFFFFF" opacity="0.315" /><rect x="1475" y="2576" width="66" height="2" fill="#FFFFFF" opacity="0.785" /><rect x="1507" y="2544" width="2" height="66" fill="#FFFFFF" opacity="0.785" /><rect x="2474" y="873" width="52" height="2" fill="#FFFFFF" opacity="0.783" /><rect x="2499" y="848" width="2" height="52" fill="#FFFFFF" opacity="0.783" /><rect x="2333" y="1371" width="60" height="2" fill="#FFFFFF" opacity="0.480" /><rect x="2362" y="1342" width="2" height="60" fill="#FFFFFF" opacity="0.480" /><rect x="1656" y="2651" width="66" height="2" fill="#FFFFFF" opacity="0.682" /><rect x="1688" y="2619" width="2" height="66" fill="#FFFFFF" opacity="0.682" /><rect x="2693" y="2126" width="50" height="2" fill="#FFFFFF" opacity="0.733" /><rect x="2717" y="2102" width="2" height="50" fill="#FFFFFF" opacity="0.733" /><rect x="1489" y="1178" width="42" height="2" fill="#FFFFFF" opacity="0.656" /><rect x="1509" y="1158" width="2" height="42" fill="#FFFFFF" opacity="0.656" /><rect x="1375" y="1102" width="34" height="2" fill="#FFFFFF" opacity="0.306" /><rect x="1391" y="1086" width="2" height="34" fill="#FFFFFF" opacity="0.306" /><rect x="1259" y="1239" width="76" height="2" fill="#FFFFFF" opacity="0.570" /><rect x="1296" y="1202" width="2" height="76" fill="#FFFFFF" opacity="0.570" /><rect x="1345" y="1227" width="30" height="2" fill="#FFFFFF" opacity="0.779" /><rect x="1359" y="1213" width="2" height="30" fill="#FFFFFF" opacity="0.779" /><rect x="796" y="2363" width="28" height="2" fill="#FFFFFF" opacity="0.384" /><rect x="809" y="2350" width="2" height="28" fill="#FFFFFF" opacity="0.384" /><rect x="1518" y="1198" width="54" height="2" fill="#FFFFFF" opacity="0.430" /><rect x="1544" y="1172" width="2" height="54" fill="#FFFFFF" opacity="0.430" /><rect x="1212" y="1853" width="60" height="2" fill="#FFFFFF" opacity="0.517" /><rect x="1241" y="1824" width="2" height="60" fill="#FFFFFF" opacity="0.517" /><rect x="709" y="1111" width="64" height="2" fill="#FFFFFF" opacity="0.801" /><rect x="740" y="1080" width="2" height="64" fill="#FFFFFF" opacity="0.801" /><rect x="677" y="1763" width="82" height="2" fill="#FFFFFF" opacity="0.595" /><rect x="717" y="1723" width="2" height="82" fill="#FFFFFF" opacity="0.595" /><rect x="1041" y="1957" width="48" height="2" fill="#FFFFFF" opacity="0.655" /><rect x="1064" y="1934" width="2" height="48" fill="#FFFFFF" opacity="0.655" /><rect x="1884" y="2171" width="66" height="2" fill="#FFFFFF" opacity="0.431" /><rect x="1916" y="2139" width="2" height="66" fill="#FFFFFF" opacity="0.431" /><rect x="819" y="1494" width="66" height="2" fill="#FFFFFF" opacity="0.402" /><rect x="851" y="1462" width="2" height="66" fill="#FFFFFF" opacity="0.402" /><rect x="1563" y="907" width="40" height="2" fill="#FFFFFF" opacity="0.487" /><rect x="1582" y="888" width="2" height="40" fill="#FFFFFF" opacity="0.487" /><rect x="2173" y="1612" width="62" height="2" fill="#FFFFFF" opacity="0.528" /><rect x="2203" y="1582" width="2" height="62" fill="#FFFFFF" opacity="0.528" /></g>
  <g opacity="0.52"><path d="M1572 1006 L2148 1582 L1572 2158 L996 1582 Z" fill="none" stroke="#0C2030" stroke-width="90" stroke-linejoin="round" /><circle cx="1572" cy="1582" r="153" fill="#0C2030" /></g>
  <g filter="url(#soft100)"><path d="M1536 960 L2112 1536 L1536 2112 L960 1536 Z" fill="none" stroke="url(#symbol100)" stroke-width="90" stroke-linejoin="round" /><circle cx="1536" cy="1536" r="153" fill="url(#symbol100)" /></g>
  <rect x="138" y="138" width="2796" height="2796" rx="629" fill="#FFFFFF" filter="url(#grain100)" opacity="0.18" />
</svg>
