<svg xmlns="http://www.w3.org/2000/svg" width="3072" height="3072" viewBox="0 0 3072 3072">
  <title>QuartzOS App Icon 161 - aero_terminal_161</title>
  <defs><linearGradient id="bg160" x1="0%" y1="0%" x2="100%" y2="100%"><stop offset="0%" stop-color="#53E3A6" /><stop offset="26%" stop-color="#3B82FF" /><stop offset="56%" stop-color="#FF6AB3" /><stop offset="78%" stop-color="#5AA47F" /><stop offset="100%" stop-color="#1A2B22" /></linearGradient><radialGradient id="sun160" cx="26%" cy="21%" r="88%"><stop offset="0%" stop-color="#FFFFFF" stop-opacity="0.62" /><stop offset="30%" stop-color="#FF9F43" stop-opacity="0.35" /><stop offset="100%" stop-color="#FF9F43" stop-opacity="0" /></radialGradient><linearGradient id="glass160" x1="0%" y1="0%" x2="0%" y2="100%"><stop offset="0%" stop-color="#FFFFFF" stop-opacity="0.70" /><stop offset="46%" stop-color="#FFFFFF" stop-opacity="0.26" /><stop offset="100%" stop-color="#FFFFFF" stop-opacity="0.00" /></linearGradient><linearGradient id="ribbon160" x1="0%" y1="0%" x2="100%" y2="0%"><stop offset="0%" stop-color="#53E3A6" stop-opacity="0.18" /><stop offset="34%" stop-color="#3B82FF" stop-opacity="0.72" /><stop offset="66%" stop-color="#FF6AB3" stop-opacity="0.72" /><stop offset="100%" stop-color="#FF9F43" stop-opacity="0.18" /></linearGradient><radialGradient id="orb160" cx="34%" cy="27%" r="74%"><stop offset="0%" stop-color="#FFFFFF" stop-opacity="0.84" /><stop offset="30%" stop-color="#53E3A6" stop-opacity="0.52" /><stop offset="68%" stop-color="#3B82FF" stop-opacity="0.42" /><stop offset="100%" stop-color="#FF6AB3" stop-opacity="0.20" /></radialGradient><linearGradient id="extrude160" x1="0%" y1="0%" x2="0%" y2="100%"><stop offset="0%" stop-color="#15283C" stop-opacity="0.45" /><stop offset="100%" stop-color="#08131D" stop-opacity="0.06" /></linearGradient><linearGradient id="symbol160" x1="0%" y1="0%" x2="100%" y2="100%"><stop offset="0%" stop-color="#FFFFFF" /><stop offset="100%" stop-color="#FF9F43" /></linearGradient><filter id="shadow160" x="-40%" y="-40%" width="180%" height="180%"><feDropShadow dx="0" dy="49" stdDeviation="86" flood-color="#06111A" flood-opacity="0.54" /></filter><filter id="soft160" x="-40%" y="-40%" width="180%" height="180%"><feDropShadow dx="0" dy="0" stdDeviation="14" flood-color="#53E3A6" flood-opacity="0.45" /></filter><filter id="grain160"><feTurbulence type="fractalNoise" baseFrequency="0.940" numOctaves="2" seed="160" /><feColorMatrix type="saturate" values="0" /><feComponentTransfer><feFuncA type="table" tableValues="0 0.09" /></feComponentTransfer></filter></defs>
  <rect x="138" y="138" width="2796" height="2796" rx="629" fill="url(#bg160)" filter="url(#shadow160)" />
  <rect x="138" y="138" width="2796" height="2796" rx="629" fill="url(#sun160)" />
  <g><circle cx="1430" cy="785" r="92" fill="#FFFFFF" opacity="0.172" /><circle cx="1986" cy="1464" r="103" fill="#FFFFFF" opacity="0.147" /><circle cx="1796" cy="862" r="122" fill="#FFFFFF" opacity="0.132" /><circle cx="2619" cy="1409" r="105" fill="#FFFFFF" opacity="0.074" /><circle cx="658" cy="366" r="130" fill="#FFFFFF" opacity="0.142" /><circle cx="1156" cy="1434" r="114" fill="#FFFFFF" opacity="0.078" /><circle cx="1741" cy="1290" r="77" fill="#FFFFFF" opacity="0.105" /><circle cx="2354" cy="1254" r="150" fill="#FFFFFF" opacity="0.151" /><circle cx="2104" cy="1449" r="142" fill="#FFFFFF" opacity="0.160" /><circle cx="2339" cy="2496" r="153" fill="#FFFFFF" opacity="0.148" /><circle cx="801" cy="2060" r="130" fill="#FFFFFF" opacity="0.153" /><circle cx="2003" cy="491" r="41" fill="#FFFFFF" opacity="0.097" /><circle cx="1830" cy="1706" r="111" fill="#FFFFFF" opacity="0.153" /><circle cx="693" cy="767" r="134" fill="#FFFFFF" opacity="0.111" /><circle cx="2070" cy="624" r="87" fill="#FFFFFF" opacity="0.216" /><circle cx="564" cy="354" r="124" fill="#FFFFFF" opacity="0.092" /><circle cx="1535" cy="954" r="37" fill="#FFFFFF" opacity="0.111" /><circle cx="555" cy="986" r="129" fill="#FFFFFF" opacity="0.113" /><circle cx="930" cy="550" r="83" fill="#FFFFFF" opacity="0.098" /><circle cx="1034" cy="1487" r="45" fill="#FFFFFF" opacity="0.237" /><circle cx="530" cy="1907" r="67" fill="#FFFFFF" opacity="0.229" /><circle cx="406" cy="491" r="127" fill="#FFFFFF" opacity="0.114" /><circle cx="2702" cy="2684" r="98" fill="#FFFFFF" opacity="0.154" /><circle cx="2380" cy="2302" r="109" fill="#FFFFFF" opacity="0.166" /><circle cx="1725" cy="1335" r="138" fill="#FFFFFF" opacity="0.157" /><circle cx="1195" cy="1947" r="47" fill="#FFFFFF" opacity="0.220" /><circle cx="620" cy="1107" r="85" fill="#FFFFFF" opacity="0.176" /><circle cx="855" cy="2119" r="65" fill="#FFFFFF" opacity="0.086" /></g>
  <g><path d="M 156.8 603.6 L 2812.8 327.1 L 2812.8 818.7 L 156.8 1095.2 Z" fill="#FFFFFF" opacity="0.099" /><path d="M 294.3 899.1 L 2738.4 622.6 L 2738.4 1044.4 L 294.3 1320.9 Z" fill="#FFFFFF" opacity="0.103" /><path d="M 172.0 1142.9 L 2708.4 866.4 L 2708.4 1337.9 L 172.0 1614.4 Z" fill="#FFFFFF" opacity="0.145" /><path d="M 267.0 1427.7 L 2710.9 1151.2 L 2710.9 1615.6 L 267.0 1892.1 Z" fill="#FFFFFF" opacity="0.162" /><path d="M 340.6 1660.0 L 2828.5 1383.5 L 2828.5 1878.6 L 340.6 2155.1 Z" fill="#FFFFFF" opacity="0.122" /><path d="M 250.6 1897.0 L 2905.4 1620.5 L 2905.4 2066.3 L 250.6 2342.7 Z" fill="#FFFFFF" opacity="0.239" /><path d="M 300.1 2146.0 L 2712.6 1869.5 L 2712.6 2350.3 L 300.1 2626.7 Z" fill="#FFFFFF" opacity="0.176" /><path d="M 266.3 2408.5 L 2786.9 2132.1 L 2786.9 2553.2 L 266.3 2829.7 Z" fill="#FFFFFF" opacity="0.225" /></g>
  <g filter="url(#soft160)"><g transform="rotate(-10.51 1536.0 1536.0)"><path d="M-368.6 532.2 C -225.8 573.2, -25.8 512.2, 107.5 537.5 C 250.4 537.3, 450.4 525.9, 583.7 496.4 C 726.5 505.8, 926.5 554.5, 1059.8 477.0 C 1202.7 460.4, 1402.7 586.2, 1536.0 491.1 C 1678.8 480.1, 1878.8 555.2, 2012.2 530.1 C 2155.0 529.6, 2355.0 533.7, 2488.3 570.4 C 2631.2 583.5, 2831.2 510.1, 2964.5 587.5 C 3107.3 587.5, 3307.3 474.6, 3440.6 571.0" fill="none" stroke="url(#ribbon160)" stroke-width="58.4" stroke-linecap="round" stroke-opacity="0.120" /></g><g transform="rotate(-9.93 1536.0 1536.0)"><path d="M-368.6 667.6 C -241.7 660.4, -63.9 672.3, 54.6 706.6 C 181.6 708.2, 359.4 636.9, 477.9 729.6 C 604.8 721.4, 782.6 604.5, 901.1 715.0 C 1028.1 722.0, 1205.9 651.3, 1324.4 671.6 C 1451.3 672.9, 1629.1 665.5, 1747.6 625.7 C 1874.6 616.2, 2052.4 710.4, 2170.9 605.2 C 2297.9 624.8, 2475.6 707.4, 2594.1 622.5 C 2721.1 628.9, 2898.9 712.0, 3017.4 667.1 C 3144.4 667.3, 3322.1 667.8, 3440.6 712.0" fill="none" stroke="url(#ribbon160)" stroke-width="54.4" stroke-linecap="round" stroke-opacity="0.146" /></g><g transform="rotate(-9.35 1536.0 1536.0)"><path d="M-368.6 861.5 C -254.4 850.8, -94.4 865.7, 12.3 903.3 C 126.6 906.6, 286.6 837.3, 393.2 930.4 C 507.5 939.9, 667.5 815.7, 774.1 915.7 C 888.4 932.1, 1048.4 845.0, 1155.1 868.2 C 1269.4 868.5, 1429.3 855.0, 1536.0 816.6 C 1650.3 826.6, 1810.3 905.8, 1916.9 792.2 C 2031.2 803.3, 2191.2 916.1, 2297.9 809.9 C 2412.1 819.4, 2572.1 897.6, 2678.8 858.9 C 2793.1 859.0, 2953.1 864.1, 3059.7 909.4 C 3174.0 895.8, 3334.0 820.1, 3440.6 930.9" fill="none" stroke="url(#ribbon160)" stroke-width="50.4" stroke-linecap="round" stroke-opacity="0.172" /></g><g transform="rotate(-8.77 1536.0 1536.0)"><path d="M-368.6 1108.4 C -264.8 1078.5, -119.3 1142.2, -22.3 1122.2 C 81.5 1120.7, 227.0 1093.1, 324.0 1172.0 C 427.8 1172.0, 573.3 1033.6, 670.3 1183.2 C 774.1 1207.8, 919.6 1084.9, 1016.6 1149.1 C 1120.4 1143.8, 1265.9 1068.5, 1362.9 1090.3 C 1466.7 1095.1, 1612.2 1124.7, 1709.1 1042.5 C 1813.0 1050.3, 1958.5 1133.8, 2055.4 1034.6 C 2159.3 1023.7, 2304.8 1168.4, 2401.7 1071.6 C 2505.6 1068.3, 2651.1 1127.6, 2748.0 1130.8 C 2851.9 1135.0, 2997.4 1099.6, 3094.3 1176.5 C 3198.2 1161.9, 3343.7 1042.4, 3440.6 1180.8" fill="none" stroke="url(#ribbon160)" stroke-width="46.4" stroke-linecap="round" stroke-opacity="0.198" /></g><g transform="rotate(-8.19 1536.0 1536.0)"><path d="M-368.6 1236.5 C -273.4 1295.5, -140.1 1195.1, -51.2 1250.0 C 44.0 1246.0, 177.4 1226.9, 266.2 1186.8 C 361.5 1185.5, 494.8 1293.3, 583.7 1153.7 C 678.9 1168.4, 812.2 1277.8, 901.1 1170.8 C 996.4 1158.9, 1129.7 1257.0, 1218.6 1227.8 C 1313.8 1225.5, 1447.1 1246.7, 1536.0 1290.1 C 1631.2 1297.4, 1764.6 1205.6, 1853.4 1319.8 C 1948.7 1340.2, 2082.0 1194.3, 2170.9 1299.1 C 2266.1 1311.5, 2399.4 1174.5, 2488.3 1240.3 C 2583.6 1239.9, 2716.9 1232.8, 2805.8 1179.3 C 2901.0 1198.1, 3034.3 1256.1, 3123.2 1153.0 C 3218.4 1128.7, 3351.8 1313.8, 3440.6 1177.3" fill="none" stroke="url(#ribbon160)" stroke-width="42.4" stroke-linecap="round" stroke-opacity="0.224" /></g><g transform="rotate(-7.61 1536.0 1536.0)"><path d="M-368.6 1507.6 C -225.8 1533.9, -25.8 1478.6, 107.5 1592.4 C 250.4 1562.9, 450.4 1453.9, 583.7 1589.6 C 726.5 1621.9, 926.5 1452.1, 1059.8 1537.0 C 1202.7 1536.0, 1402.7 1489.3, 1536.0 1466.6 C 1678.8 1454.9, 1878.8 1520.2, 2012.2 1421.1 C 2155.0 1433.1, 2355.0 1578.4, 2488.3 1428.0 C 2631.2 1419.3, 2831.2 1598.0, 2964.5 1483.2 C 3107.3 1487.1, 3307.3 1529.4, 3440.6 1553.2" fill="none" stroke="url(#ribbon160)" stroke-width="38.4" stroke-linecap="round" stroke-opacity="0.250" /></g><g transform="rotate(-7.03 1536.0 1536.0)"><path d="M-368.6 1720.4 C -241.7 1782.5, -63.9 1664.2, 54.6 1710.9 C 181.6 1714.0, 359.4 1730.0, 477.9 1644.0 C 604.8 1647.9, 782.6 1791.9, 901.1 1623.5 C 1028.1 1592.7, 1205.9 1823.4, 1324.4 1661.7 C 1451.3 1672.8, 1629.1 1762.7, 1747.6 1735.5 C 1874.6 1738.8, 2052.4 1715.7, 2170.9 1800.2 C 2297.9 1779.9, 2475.6 1650.7, 2594.1 1816.4 C 2721.1 1838.7, 2898.9 1644.3, 3017.4 1774.4 C 3144.4 1778.5, 3322.1 1681.1, 3440.6 1699.6" fill="none" stroke="url(#ribbon160)" stroke-width="34.4" stroke-linecap="round" stroke-opacity="0.276" /></g><g transform="rotate(-6.45 1536.0 1536.0)"><path d="M-368.6 1908.5 C -254.4 1956.3, -94.4 1884.7, 12.3 1870.6 C 126.6 1875.5, 286.6 1949.6, 393.2 1812.0 C 507.5 1815.9, 667.5 1941.0, 774.1 1812.0 C 888.4 1795.2, 1048.4 1960.3, 1155.1 1870.5 C 1269.4 1881.8, 1429.3 1952.5, 1536.0 1952.0 C 1650.3 1948.3, 1810.3 1867.1, 1916.9 2007.2 C 2031.2 2009.6, 2191.2 1852.9, 2297.9 2002.4 C 2412.1 1970.7, 2572.1 1825.6, 2678.8 1940.7 C 2793.1 1946.0, 2953.1 1872.1, 3059.7 1859.5 C 3174.0 1842.7, 3334.0 1960.8, 3440.6 1807.9" fill="none" stroke="url(#ribbon160)" stroke-width="30.4" stroke-linecap="round" stroke-opacity="0.302" /></g><g transform="rotate(-5.87 1536.0 1536.0)"><path d="M-368.6 2104.4 C -264.8 2073.2, -119.3 2121.0, -22.3 2006.1 C 81.5 2034.4, 227.0 2158.4, 324.0 1997.8 C 427.8 2004.2, 573.3 2163.4, 670.3 2054.1 C 774.1 2048.0, 919.6 2132.3, 1016.6 2141.0 C 1120.4 2152.8, 1265.9 2091.0, 1362.9 2205.7 C 1466.7 2243.2, 1612.2 2028.6, 1709.1 2209.0 C 1813.0 2219.6, 1958.5 2001.6, 2055.4 2148.8 C 2159.3 2141.2, 2304.8 2062.5, 2401.7 2061.8 C 2505.6 2072.0, 2651.1 2155.0, 2748.0 2000.6 C 2851.9 2024.2, 2997.4 2184.6, 3094.3 2002.4 C 3198.2 1997.0, 3343.7 2163.9, 3440.6 2066.1" fill="none" stroke="url(#ribbon160)" stroke-width="26.4" stroke-linecap="round" stroke-opacity="0.328" /></g><g transform="rotate(-5.29 1536.0 1536.0)"><path d="M-368.6 2249.7 C -273.4 2195.4, -140.1 2322.1, -51.2 2262.7 C 44.0 2258.0, 177.4 2241.3, 266.2 2343.5 C 361.5 2375.0, 494.8 2151.3, 583.7 2367.5 C 678.9 2413.3, 812.2 2176.8, 901.1 2320.0 C 996.4 2342.0, 1129.7 2182.0, 1218.6 2229.9 C 1313.8 2235.7, 1447.1 2263.5, 1536.0 2151.8 C 1631.2 2138.1, 1764.6 2342.8, 1853.4 2133.1 C 1948.7 2177.9, 2082.0 2327.0, 2170.9 2185.2 C 2266.1 2205.6, 2399.4 2272.3, 2488.3 2276.4 C 2583.6 2283.6, 2716.9 2239.6, 2805.8 2351.4 C 2901.0 2320.2, 3034.3 2160.7, 3123.2 2364.8 C 3218.4 2380.0, 3351.8 2124.7, 3440.6 2308.3" fill="none" stroke="url(#ribbon160)" stroke-width="22.4" stroke-linecap="round" stroke-opacity="0.354" /></g><g transform="rotate(-4.71 1536.0 1536.0)"><path d="M-368.6 2438.2 C -225.8 2520.3, -25.8 2395.3, 107.5 2450.8 C 250.4 2446.8, 450.4 2431.4, 583.7 2357.1 C 726.5 2354.2, 926.5 2499.5, 1059.8 2312.6 C 1202.7 2286.2, 1402.7 2476.6, 1536.0 2344.3 C 1678.8 2367.4, 1878.8 2529.0, 2012.2 2432.9 C 2155.0 2432.2, 2355.0 2440.4, 2488.3 2524.8 C 2631.2 2538.9, 2831.2 2344.4, 2964.5 2564.1 C 3107.3 2526.3, 3307.3 2379.1, 3440.6 2527.1" fill="none" stroke="url(#ribbon160)" stroke-width="18.4" stroke-linecap="round" stroke-opacity="0.380" /></g><g transform="rotate(-4.13 1536.0 1536.0)"><path d="M-368.6 2649.6 C -241.7 2466.8, -63.9 2761.1, 54.6 2542.9 C 181.6 2548.6, 359.4 2762.9, 477.9 2632.2 C 604.8 2637.6, 782.6 2656.3, 901.1 2732.1 C 1028.1 2752.6, 1205.9 2570.5, 1324.4 2781.9 C 1451.3 2783.9, 1629.1 2520.4, 1747.6 2751.5 C 1874.6 2782.5, 2052.4 2556.6, 2170.9 2659.3 C 2297.9 2663.0, 2475.6 2645.2, 2594.1 2561.2 C 2721.1 2542.1, 2898.9 2735.5, 3017.4 2516.7 C 3144.4 2505.2, 3322.1 2741.2, 3440.6 2552.8" fill="none" stroke="url(#ribbon160)" stroke-width="14.4" stroke-linecap="round" stroke-opacity="0.406" /></g></g>
  <g><ellipse cx="1536.0" cy="1551.9" rx="728.6" ry="605.7" fill="url(#extrude160)" opacity="0.220" /><ellipse cx="1536.0" cy="1567.7" rx="736.0" ry="610.9" fill="url(#extrude160)" opacity="0.205" /><ellipse cx="1536.0" cy="1583.6" rx="743.4" ry="616.1" fill="url(#extrude160)" opacity="0.190" /><ellipse cx="1536.0" cy="1599.5" rx="750.9" ry="621.3" fill="url(#extrude160)" opacity="0.175" /><ellipse cx="1536.0" cy="1615.4" rx="758.3" ry="626.5" fill="url(#extrude160)" opacity="0.160" /><ellipse cx="1536.0" cy="1631.2" rx="765.7" ry="631.7" fill="url(#extrude160)" opacity="0.145" /><ellipse cx="1536.0" cy="1647.1" rx="773.2" ry="636.9" fill="url(#extrude160)" opacity="0.130" /><ellipse cx="1536.0" cy="1663.0" rx="780.6" ry="642.1" fill="url(#extrude160)" opacity="0.115" /><ellipse cx="1536.0" cy="1678.8" rx="788.0" ry="647.4" fill="url(#extrude160)" opacity="0.100" /><ellipse cx="1536.0" cy="1694.7" rx="795.5" ry="652.6" fill="url(#extrude160)" opacity="0.085" /><ellipse cx="1536.0" cy="1710.6" rx="802.9" ry="657.8" fill="url(#extrude160)" opacity="0.070" /><ellipse cx="1536.0" cy="1726.5" rx="810.3" ry="663.0" fill="url(#extrude160)" opacity="0.055" /></g>
  <ellipse cx="1536.0" cy="1726.5" rx="773.2" ry="214.9" fill="#0B1D2D" opacity="0.24" />
  <ellipse cx="1536.0" cy="1536.0" rx="743.4" ry="651.3" fill="url(#orb160)" stroke="#FFFFFF" stroke-opacity="0.42" stroke-width="7" />
  <ellipse cx="1431.9" cy="1392.7" rx="505.5" ry="299.6" fill="#FFFFFF" opacity="0.25" />
  <path d="M 199.4 399.4 C 1013.8 -30.7, 2058.2 768.0, 2872.6 215.0 L 2872.6 983.0 C 2089.0 1228.8, 1013.8 307.2, 199.4 1167.4 Z" fill="url(#glass160)" />
  <rect x="270" y="270" width="2532" height="2532" rx="430" fill="none" stroke="#FFFFFF" stroke-opacity="0.30" stroke-width="5" />
  <rect x="288.4" y="288.4" width="2495.1" height="2495.1" rx="399" fill="none" stroke="#53E3A6" stroke-opacity="0.35" stroke-width="3" />
  <g filter="url(#soft160)"><rect x="1480" y="1739" width="52" height="2" fill="#FFFFFF" opacity="0.551" /><rect x="1505" y="1714" width="2" height="52" fill="#FFFFFF" opacity="0.551" /><rect x="361" y="838" width="44" height="2" fill="#FFFFFF" opacity="0.521" /><rect x="382" y="817" width="2" height="44" fill="#FFFFFF" opacity="0.521" /><rect x="773" y="2639" width="30" height="2" fill="#FFFFFF" opacity="0.804" /><rect x="787" y="2625" width="2" height="30" fill="#FFFFFF" opacity="0.804" /><rect x="829" y="2430" width="64" height="2" fill="#FFFFFF" opacity="0.543" /><rect x="860" y="2399" width="2" height="64" fill="#FFFFFF" opacity="0.543" /><rect x="1737" y="258" width="70" height="2" fill="#FFFFFF" opacity="0.808" /><rect x="1771" y="224" width="2" height="70" fill="#FFFFFF" opacity="0.808" /><rect x="1873" y="2190" width="78" height="2" fill="#FFFFFF" opacity="0.630" /><rect x="1911" y="2152" width="2" height="78" fill="#FFFFFF" opacity="0.630" /><rect x="1952" y="728" width="56" height="2" fill="#FFFFFF" opacity="0.705" /><rect x="1979" y="701" width="2" height="56" fill="#FFFFFF" opacity="0.705" /><rect x="2243" y="1186" width="56" height="2" fill="#FFFFFF" opacity="0.553" /><rect x="2270" y="1159" width="2" height="56" fill="#FFFFFF" opacity="0.553" /><rect x="1767" y="2739" width="78" height="2" fill="#FFFFFF" opacity="0.341" /><rect x="1805" y="2701" width="2" height="78" fill="#FFFFFF" opacity="0.341" /><rect x="1998" y="2214" width="44" height="2" fill="#FFFFFF" opacity="0.574" /><rect x="2019" y="2193" width="2" height="44" fill="#FFFFFF" opacity="0.574" /><rect x="702" y="1121" width="42" height="2" fill="#FFFFFF" opacity="0.705" /><rect x="722" y="1101" width="2" height="42" fill="#FFFFFF" opacity="0.705" /><rect x="420" y="2127" width="68" height="2" fill="#FFFFFF" opacity="0.566" /><rect x="453" y="2094" width="2" height="68" fill="#FFFFFF" opacity="0.566" /><rect x="537" y="1925" width="82" height="2" fill="#FFFFFF" opacity="0.465" /><rect x="577" y="1885" width="2" height="82" fill="#FFFFFF" opacity="0.465" /><rect x="991" y="699" width="58" height="2" fill="#FFFFFF" opacity="0.825" /><rect x="1019" y="671" width="2" height="58" fill="#FFFFFF" opacity="0.825" /><rect x="805" y="1137" width="82" height="2" fill="#FFFFFF" opacity="0.775" /><rect x="845" y="1097" width="2" height="82" fill="#FFFFFF" opacity="0.775" /><rect x="664" y="822" width="30" height="2" fill="#FFFFFF" opacity="0.709" /><rect x="678" y="808" width="2" height="30" fill="#FFFFFF" opacity="0.709" /><rect x="954" y="2587" width="66" height="2" fill="#FFFFFF" opacity="0.778" /><rect x="986" y="2555" width="2" height="66" fill="#FFFFFF" opacity="0.778" /><rect x="1435" y="2573" width="52" height="2" fill="#FFFFFF" opacity="0.623" /><rect x="1460" y="2548" width="2" height="52" fill="#FFFFFF" opacity="0.623" /><rect x="2278" y="2016" width="68" height="2" fill="#FFFFFF" opacity="0.835" /><rect x="2311" y="1983" width="2" height="68" fill="#FFFFFF" opacity="0.835" /><rect x="1379" y="1208" width="36" height="2" fill="#FFFFFF" opacity="0.723" /><rect x="1396" y="1191" width="2" height="36" fill="#FFFFFF" opacity="0.723" /><rect x="1800" y="266" width="66" height="2" fill="#FFFFFF" opacity="0.844" /><rect x="1832" y="234" width="2" height="66" fill="#FFFFFF" opacity="0.844" /><rect x="2595" y="1689" width="42" height="2" fill="#FFFFFF" opacity="0.767" /><rect x="2615" y="1669" width="2" height="42" fill="#FFFFFF" opacity="0.767" /><rect x="710" y="256" width="76" height="2" fill="#FFFFFF" opacity="0.789" /><rect x="747" y="219" width="2" height="76" fill="#FFFFFF" opacity="0.789" /><rect x="1300" y="1888" width="54" height="2" fill="#FFFFFF" opacity="0.546" /><rect x="1326" y="1862" width="2" height="54" fill="#FFFFFF" opacity="0.546" /><rect x="2346" y="330" width="68" height="2" fill="#FFFFFF" opacity="0.777" /><rect x="2379" y="297" width="2" height="68" fill="#FFFFFF" opacity="0.777" /><rect x="2492" y="2388" width="78" height="2" fill="#FFFFFF" opacity="0.346" /><rect x="2530" y="2350" width="2" height="78" fill="#FFFFFF" opacity="0.346" /></g>
  <g opacity="0.52"><path d="M1572 1006 L2148 1582 L1572 2158 L996 1582 Z" fill="none" stroke="#0C2030" stroke-width="90" stroke-linejoin="round" /><circle cx="1572" cy="1582" r="153" fill="#0C2030" /></g>
  <g filter="url(#soft160)"><path d="M1536 960 L2112 1536 L1536 2112 L960 1536 Z" fill="none" stroke="url(#symbol160)" stroke-width="90" stroke-linejoin="round" /><circle cx="1536" cy="1536" r="153" fill="url(#symbol160)" /></g>
  <rect x="138" y="138" width="2796" height="2796" rx="629" fill="#FFFFFF" filter="url(#grain160)" opacity="0.18" />
</svg>
