<svg xmlns="http://www.w3.org/2000/svg" width="3072" height="3072" viewBox="0 0 3072 3072">
  <title>QuartzOS App Icon 141 - aero_viewer_141</title>
  <defs><linearGradient id="bg140" x1="0%" y1="0%" x2="100%" y2="100%"><stop offset="0%" stop-color="#36D1FF" /><stop offset="26%" stop-color="#8A5CFF" /><stop offset="56%" stop-color="#FF9F43" /><stop offset="78%" stop-color="#3C8FC1" /><stop offset="100%" stop-color="#1E2E3A" /></linearGradient><radialGradient id="sun140" cx="27%" cy="39%" r="88%"><stop offset="0%" stop-color="#FFFFFF" stop-opacity="0.62" /><stop offset="30%" stop-color="#FFD84D" stop-opacity="0.35" /><stop offset="100%" stop-color="#FFD84D" stop-opacity="0" /></radialGradient><linearGradient id="glass140" x1="0%" y1="0%" x2="0%" y2="100%"><stop offset="0%" stop-color="#FFFFFF" stop-opacity="0.70" /><stop offset="46%" stop-color="#FFFFFF" stop-opacity="0.26" /><stop offset="100%" stop-color="#FFFFFF" stop-opacity="0.00" /></linearGradient><linearGradient id="ribbon140" x1="0%" y1="0%" x2="100%" y2="0%"><stop offset="0%" stop-color="#36D1FF" stop-opacity="0.18" /><stop offset="34%" stop-color="#8A5CFF" stop-opacity="0.72" /><stop offset="66%" stop-color="#FF9F43" stop-opacity="0.72" /><stop offset="100%" stop-color="#FFD84D" stop-opacity="0.18" /></linearGradient><radialGradient id="orb140" cx="34%" cy="27%" r="74%"><stop offset="0%" stop-color="#FFFFFF" stop-opacity="0.84" /><stop offset="30%" stop-color="#36D1FF" stop-opacity="0.52" /><stop offset="68%" stop-color="#8A5CFF" stop-opacity="0.42" /><stop offset="100%" stop-color="#FF9F43" stop-opacity="0.20" /></radialGradient><linearGradient id="extrude140" x1="0%" y1="0%" x2="0%" y2="100%"><stop offset="0%" stop-color="#15283C" stop-opacity="0.45" /><stop offset="100%" stop-color="#08131D" stop-opacity="0.06" /></linearGradient><linearGradient id="symbol140" x1="0%" y1="0%" x2="100%" y2="100%"><stop offset="0%" stop-color="#FFFFFF" /><stop offset="100%" stop-color="#FFD84D" /></linearGradient><filter id="shadow140" x="-40%" y="-40%" width="180%" height="180%"><feDropShadow dx="0" dy="49" stdDeviation="86" flood-color="#06111A" flood-opacity="0.54" /></filter><filter id="soft140" x="-40%" y="-40%" width="180%" height="180%"><feDropShadow dx="0" dy="0" stdDeviation="14" flood-color="#36D1FF" flood-opacity="0.45" /></filter><filter id="grain140"><feTurbulence type="fractalNoise" baseFrequency="1.019" numOctaves="2" seed="140" /><feColorMatrix type="saturate" values="0" /><feComponentTransfer><feFuncA type="table" tableValues="0 0.09" /></feComponentTransfer></filter></defs>
  <rect x="138" y="138" width="2796" height="2796" rx="629" fill="url(#bg140)" filter="url(#shadow140)" />
  <rect x="138" y="138" width="2796" height="2796" rx="629" fill="url(#sun140)" />
  <g><circle cx="1516" cy="2369" r="84" fill="#FFFFFF" opacity="0.184" /><circle cx="1174" cy="2049" r="55" fill="#FFFFFF" opacity="0.093" /><circle cx="2204" cy="1706" r="79" fill="#FFFFFF" opacity="0.202" /><circle cx="402" cy="2100" r="158" fill="#FFFFFF" opacity="0.139" /><circle cx="2596" cy="1206" r="101" fill="#FFFFFF" opacity="0.100" /><circle cx="1175" cy="2122" r="37" fill="#FFFFFF" opacity="0.218" /><circle cx="522" cy="514" r="112" fill="#FFFFFF" opacity="0.186" /><circle cx="821" cy="1189" r="147" fill="#FFFFFF" opacity="0.173" /><circle cx="1724" cy="1410" r="144" fill="#FFFFFF" opacity="0.188" /><circle cx="2578" cy="1322" r="142" fill="#FFFFFF" opacity="0.088" /><circle cx="2164" cy="1844" r="127" fill="#FFFFFF" opacity="0.174" /><circle cx="1476" cy="1307" r="153" fill="#FFFFFF" opacity="0.166" /><circle cx="2005" cy="2693" r="97" fill="#FFFFFF" opacity="0.189" /><circle cx="1889" cy="827" r="111" fill="#FFFFFF" opacity="0.211" /><circle cx="2220" cy="902" r="44" fill="#FFFFFF" opacity="0.214" /><circle cx="1380" cy="567" r="54" fill="#FFFFFF" opacity="0.154" /><circle cx="2518" cy="2529" r="133" fill="#FFFFFF" opacity="0.092" /><circle cx="1540" cy="663" r="83" fill="#FFFFFF" opacity="0.189" /><circle cx="580" cy="614" r="77" fill="#FFFFFF" opacity="0.138" /><circle cx="1462" cy="2298" r="71" fill="#FFFFFF" opacity="0.151" /><circle cx="1956" cy="1699" r="111" fill="#FFFFFF" opacity="0.102" /><circle cx="1870" cy="460" r="118" fill="#FFFFFF" opacity="0.125" /><circle cx="912" cy="401" r="131" fill="#FFFFFF" opacity="0.068" /><circle cx="1215" cy="1417" r="39" fill="#FFFFFF" opacity="0.115" /><circle cx="2285" cy="2643" r="75" fill="#FFFFFF" opacity="0.068" /><circle cx="2434" cy="2591" r="76" fill="#FFFFFF" opacity="0.227" /><circle cx="2634" cy="1718" r="55" fill="#FFFFFF" opacity="0.198" /><circle cx="2338" cy="1949" r="153" fill="#FFFFFF" opacity="0.091" /></g>
  <g><path d="M 179.8 581.8 L 2883.2 305.3 L 2883.2 769.5 L 179.8 1046.0 Z" fill="#FFFFFF" opacity="0.122" /><path d="M 311.7 853.8 L 2920.0 577.4 L 2920.0 1059.0 L 311.7 1335.5 Z" fill="#FFFFFF" opacity="0.167" /><path d="M 376.7 1164.4 L 2715.7 887.9 L 2715.7 1329.1 L 376.7 1605.5 Z" fill="#FFFFFF" opacity="0.183" /><path d="M 388.5 1415.0 L 2776.2 1138.5 L 2776.2 1612.2 L 388.5 1888.7 Z" fill="#FFFFFF" opacity="0.155" /><path d="M 200.5 1669.1 L 2813.9 1392.6 L 2813.9 1834.3 L 200.5 2110.8 Z" fill="#FFFFFF" opacity="0.163" /><path d="M 329.2 1887.6 L 2901.7 1611.1 L 2901.7 2075.7 L 329.2 2352.2 Z" fill="#FFFFFF" opacity="0.161" /><path d="M 278.1 2201.2 L 2862.0 1924.7 L 2862.0 2401.0 L 278.1 2677.5 Z" fill="#FFFFFF" opacity="0.105" /><path d="M 172.2 2467.1 L 2706.7 2190.6 L 2706.7 2638.2 L 172.2 2914.7 Z" fill="#FFFFFF" opacity="0.190" /></g>
  <g filter="url(#soft140)"><g transform="rotate(-8.02 1536.0 1536.0)"><path d="M-368.6 513.2 C -225.8 444.6, -25.8 533.4, 107.5 463.3 C 250.4 472.0, 450.4 568.7, 583.7 495.5 C 726.5 497.8, 926.5 526.4, 1059.8 538.5 C 1202.7 529.5, 1402.7 501.4, 1536.0 566.1 C 1678.8 579.5, 1878.8 457.6, 2012.2 561.6 C 2155.0 567.4, 2355.0 489.9, 2488.3 527.8 C 2631.2 531.3, 2831.2 499.1, 2964.5 485.1 C 3107.3 485.0, 3307.3 525.9, 3440.6 459.5" fill="none" stroke="url(#ribbon140)" stroke-width="58.4" stroke-linecap="round" stroke-opacity="0.120" /></g><g transform="rotate(-7.44 1536.0 1536.0)"><path d="M-368.6 755.5 C -241.7 693.9, -63.9 776.8, 54.6 737.5 C 181.6 737.9, 359.4 769.1, 477.9 785.8 C 604.8 786.7, 782.6 730.4, 901.1 815.7 C 1028.1 792.3, 1205.9 716.8, 1324.4 809.0 C 1451.3 797.4, 1629.1 701.0, 1747.6 769.9 C 1874.6 774.9, 2052.4 745.6, 2170.9 722.0 C 2297.9 710.6, 2475.6 781.1, 2594.1 694.4 C 2721.1 717.2, 2898.9 810.2, 3017.4 703.8 C 3144.4 685.1, 3322.1 791.3, 3440.6 744.6" fill="none" stroke="url(#ribbon140)" stroke-width="54.4" stroke-linecap="round" stroke-opacity="0.146" /></g><g transform="rotate(-6.86 1536.0 1536.0)"><path d="M-368.6 955.3 C -254.4 878.0, -94.4 974.2, 12.3 941.8 C 126.6 940.2, 286.6 963.5, 393.2 994.8 C 507.5 987.8, 667.5 919.1, 774.1 1023.7 C 888.4 1043.0, 1048.4 902.8, 1155.1 1011.2 C 1269.4 1031.1, 1429.3 938.2, 1536.0 964.7 C 1650.3 962.4, 1810.3 945.4, 1916.9 912.5 C 2031.2 920.2, 2191.2 982.2, 2297.9 886.2 C 2412.1 867.3, 2572.1 1030.2, 2678.8 901.8 C 2793.1 889.6, 2953.1 977.6, 3059.7 949.9 C 3174.0 948.8, 3334.0 961.6, 3440.6 1001.1" fill="none" stroke="url(#ribbon140)" stroke-width="50.4" stroke-linecap="round" stroke-opacity="0.172" /></g><g transform="rotate(-6.28 1536.0 1536.0)"><path d="M-368.6 1110.6 C -264.8 1192.2, -119.3 1035.6, -22.3 1172.6 C 81.5 1190.6, 227.0 1043.9, 324.0 1121.7 C 427.8 1118.2, 573.3 1103.0, 670.3 1064.1 C 774.1 1058.7, 919.6 1152.7, 1016.6 1034.6 C 1120.4 1012.3, 1265.9 1194.5, 1362.9 1051.3 C 1466.7 1028.7, 1612.2 1155.4, 1709.1 1103.9 C 1813.0 1102.6, 1958.5 1116.2, 2055.4 1160.6 C 2159.3 1159.8, 2304.8 1065.9, 2401.7 1187.0 C 2505.6 1176.3, 2651.1 1043.6, 2748.0 1167.0 C 2851.9 1159.0, 2997.4 1076.1, 3094.3 1112.8 C 3198.2 1112.7, 3343.7 1109.9, 3440.6 1057.3" fill="none" stroke="url(#ribbon140)" stroke-width="46.4" stroke-linecap="round" stroke-opacity="0.198" /></g><g transform="rotate(-5.70 1536.0 1536.0)"><path d="M-368.6 1285.6 C -273.4 1249.7, -140.1 1319.0, -51.2 1205.8 C 44.0 1187.1, 177.4 1369.2, 266.2 1212.2 C 361.5 1209.6, 494.8 1331.7, 583.7 1263.1 C 678.9 1265.0, 812.2 1296.4, 901.1 1327.7 C 996.4 1312.7, 1129.7 1242.1, 1218.6 1366.7 C 1313.8 1375.2, 1447.1 1201.3, 1536.0 1356.5 C 1631.2 1361.3, 1764.6 1256.2, 1853.4 1303.3 C 1948.7 1303.7, 2082.0 1267.9, 2170.9 1239.3 C 2266.1 1226.6, 2399.4 1337.5, 2488.3 1203.4 C 2583.6 1212.3, 2716.9 1377.5, 2805.8 1217.4 C 2901.0 1240.3, 3034.3 1346.3, 3123.2 1272.7 C 3218.4 1268.2, 3351.8 1290.3, 3440.6 1335.8" fill="none" stroke="url(#ribbon140)" stroke-width="42.4" stroke-linecap="round" stroke-opacity="0.224" /></g><g transform="rotate(-5.12 1536.0 1536.0)"><path d="M-368.6 1495.5 C -225.8 1437.2, -25.8 1585.8, 107.5 1447.2 C 250.4 1444.7, 450.4 1549.6, 583.7 1516.8 C 726.5 1523.5, 926.5 1478.8, 1059.8 1573.5 C 1202.7 1542.9, 1402.7 1468.8, 1536.0 1582.9 C 1678.8 1614.5, 1878.8 1411.5, 2012.2 1539.2 C 2155.0 1531.4, 2355.0 1453.8, 2488.3 1469.0 C 2631.2 1472.7, 2831.2 1516.7, 2964.5 1414.9 C 3107.3 1441.8, 3307.3 1549.8, 3440.6 1409.6" fill="none" stroke="url(#ribbon140)" stroke-width="38.4" stroke-linecap="round" stroke-opacity="0.250" /></g><g transform="rotate(-4.54 1536.0 1536.0)"><path d="M-368.6 1647.7 C -241.7 1657.3, -63.9 1640.5, 54.6 1723.4 C 181.6 1730.4, 359.4 1576.9, 477.9 1744.8 C 604.8 1727.9, 782.6 1570.1, 901.1 1707.3 C 1028.1 1695.6, 1205.9 1600.6, 1324.4 1633.7 C 1451.3 1630.2, 1629.1 1655.0, 1747.6 1568.6 C 1874.6 1557.5, 2052.4 1679.0, 2170.9 1551.5 C 2297.9 1567.5, 2475.6 1720.3, 2594.1 1592.8 C 2721.1 1605.5, 2898.9 1688.1, 3017.4 1667.4 C 3144.4 1666.2, 3322.1 1637.8, 3440.6 1730.1" fill="none" stroke="url(#ribbon140)" stroke-width="34.4" stroke-linecap="round" stroke-opacity="0.276" /></g><g transform="rotate(-3.96 1536.0 1536.0)"><path d="M-368.6 1862.3 C -254.4 1786.9, -94.4 1945.6, 12.3 1832.3 C 126.6 1826.8, 286.6 1895.7, 393.2 1913.4 C 507.5 1931.9, 667.5 1808.4, 774.1 1963.5 C 888.4 1947.2, 1048.4 1798.9, 1155.1 1952.2 C 1269.4 1984.5, 1429.3 1807.9, 1536.0 1886.4 C 1650.3 1879.6, 1810.3 1842.7, 1916.9 1805.9 C 2031.2 1816.0, 2191.2 1926.9, 2297.9 1759.7 C 2412.1 1741.2, 2572.1 1908.4, 2678.8 1775.7 C 2793.1 1767.8, 2953.1 1955.6, 3059.7 1844.2 C 3174.0 1838.3, 3334.0 1879.7, 3440.6 1923.7" fill="none" stroke="url(#ribbon140)" stroke-width="30.4" stroke-linecap="round" stroke-opacity="0.302" /></g><g transform="rotate(-3.38 1536.0 1536.0)"><path d="M-368.6 2050.0 C -264.8 1982.3, -119.3 2105.1, -22.3 1952.7 C 81.5 1929.6, 227.0 2102.0, 324.0 2021.8 C 427.8 2025.6, 573.3 2059.4, 670.3 2108.0 C 774.1 2107.8, 919.6 1991.1, 1016.6 2159.0 C 1120.4 2147.4, 1265.9 1939.7, 1362.9 2143.8 C 1466.7 2170.9, 1612.2 1980.5, 1709.1 2071.8 C 1813.0 2075.0, 1958.5 2035.2, 2055.4 1986.5 C 2159.3 1971.1, 2304.8 2076.3, 2401.7 1939.7 C 2505.6 1933.7, 2651.1 2179.3, 2748.0 1959.8 C 2851.9 1970.0, 2997.4 2095.9, 3094.3 2034.6 C 3198.2 2033.6, 3343.7 2056.4, 3440.6 2118.7" fill="none" stroke="url(#ribbon140)" stroke-width="26.4" stroke-linecap="round" stroke-opacity="0.328" /></g><g transform="rotate(-2.80 1536.0 1536.0)"><path d="M-368.6 2321.1 C -273.4 2438.6, -140.1 2220.1, -51.2 2420.1 C 44.0 2397.9, 177.4 2267.2, 266.2 2342.8 C 361.5 2345.6, 494.8 2298.5, 583.7 2252.4 C 678.9 2267.9, 812.2 2345.1, 901.1 2203.6 C 996.4 2184.3, 1129.7 2376.8, 1218.6 2226.1 C 1313.8 2207.4, 1447.1 2383.5, 1536.0 2306.2 C 1631.2 2305.0, 1764.6 2333.9, 1853.4 2395.3 C 1948.7 2423.2, 2082.0 2260.4, 2170.9 2439.4 C 2266.1 2408.7, 2399.4 2228.1, 2488.3 2411.7 C 2583.6 2405.0, 2716.9 2220.1, 2805.8 2329.0 C 2901.0 2328.6, 3034.3 2316.0, 3123.2 2241.5 C 3218.4 2256.7, 3351.8 2392.6, 3440.6 2202.3" fill="none" stroke="url(#ribbon140)" stroke-width="22.4" stroke-linecap="round" stroke-opacity="0.354" /></g><g transform="rotate(-2.22 1536.0 1536.0)"><path d="M-368.6 2485.5 C -225.8 2480.1, -25.8 2490.3, 107.5 2571.9 C 250.4 2552.6, 450.4 2391.7, 583.7 2611.4 C 726.5 2565.2, 926.5 2362.8, 1059.8 2574.6 C 1202.7 2572.5, 1402.7 2430.8, 1536.0 2483.7 C 1678.8 2483.8, 1878.8 2487.0, 2012.2 2393.9 C 2155.0 2362.1, 2355.0 2525.5, 2488.3 2359.7 C 2631.2 2384.4, 2831.2 2628.3, 2964.5 2401.8 C 3107.3 2389.7, 3307.3 2583.8, 3440.6 2494.6" fill="none" stroke="url(#ribbon140)" stroke-width="18.4" stroke-linecap="round" stroke-opacity="0.380" /></g><g transform="rotate(-1.64 1536.0 1536.0)"><path d="M-368.6 2623.6 C -241.7 2753.1, -63.9 2504.8, 54.6 2754.9 C 181.6 2780.6, 359.4 2503.0, 477.9 2700.0 C 604.8 2727.6, 782.6 2535.6, 901.1 2598.7 C 1028.1 2599.3, 1205.9 2646.3, 1324.4 2512.5 C 1451.3 2495.1, 1629.1 2746.1, 1747.6 2493.7 C 1874.6 2445.3, 2052.4 2681.5, 2170.9 2553.7 C 2297.9 2542.8, 2475.6 2664.0, 2594.1 2656.1 C 2721.1 2666.7, 2898.9 2585.0, 3017.4 2738.7 C 3144.4 2724.8, 3322.1 2541.3, 3440.6 2751.6" fill="none" stroke="url(#ribbon140)" stroke-width="14.4" stroke-linecap="round" stroke-opacity="0.406" /></g></g>
  <g><ellipse cx="1536.0" cy="1551.9" rx="728.6" ry="605.7" fill="url(#extrude140)" opacity="0.220" /><ellipse cx="1536.0" cy="1567.7" rx="736.0" ry="610.9" fill="url(#extrude140)" opacity="0.205" /><ellipse cx="1536.0" cy="1583.6" rx="743.4" ry="616.1" fill="url(#extrude140)" opacity="0.190" /><ellipse cx="1536.0" cy="1599.5" rx="750.9" ry="621.3" fill="url(#extrude140)" opacity="0.175" /><ellipse cx="1536.0" cy="1615.4" rx="758.3" ry="626.5" fill="url(#extrude140)" opacity="0.160" /><ellipse cx="1536.0" cy="1631.2" rx="765.7" ry="631.7" fill="url(#extrude140)" opacity="0.145" /><ellipse cx="1536.0" cy="1647.1" rx="773.2" ry="636.9" fill="url(#extrude140)" opacity="0.130" /><ellipse cx="1536.0" cy="1663.0" rx="780.6" ry="642.1" fill="url(#extrude140)" opacity="0.115" /><ellipse cx="1536.0" cy="1678.8" rx="788.0" ry="647.4" fill="url(#extrude140)" opacity="0.100" /><ellipse cx="1536.0" cy="1694.7" rx="795.5" ry="652.6" fill="url(#extrude140)" opacity="0.085" /><ellipse cx="1536.0" cy="1710.6" rx="802.9" ry="657.8" fill="url(#extrude140)" opacity="0.070" /><ellipse cx="1536.0" cy="1726.5" rx="810.3" ry="663.0" fill="url(#extrude140)" opacity="0.055" /></g>
  <ellipse cx="1536.0" cy="1726.5" rx="773.2" ry="214.9" fill="#0B1D2D" opacity="0.24" />
  <ellipse cx="1536.0" cy="1536.0" rx="743.4" ry="651.3" fill="url(#orb140)" stroke="#FFFFFF" stroke-opacity="0.42" stroke-width="7" />
  <ellipse cx="1431.9" cy="1392.7" rx="505.5" ry="299.6" fill="#FFFFFF" opacity="0.25" />
  <path d="M 199.4 399.4 C 1013.8 -30.7, 2058.2 768.0, 2872.6 215.0 L 2872.6 983.0 C 2089.0 1228.8, 1013.8 307.2, 199.4 1167.4 Z" fill="url(#glass140)" />
  <rect x="270" y="270" width="2532" height="2532" rx="430" fill="none" stroke="#FFFFFF" stroke-opacity="0.30" stroke-width="5" />
  <rect x="288.4" y="288.4" width="2495.1" height="2495.1" rx="399" fill="none" stroke="#36D1FF" stroke-opacity="0.35" stroke-width="3" />
  <g filter="url(#soft140)"><rect x="1542" y="2691" width="80" height="2" fill="#FFFFFF" opacity="0.479" /><rect x="1581" y="2652" width="2" height="80" fill="#FFFFFF" opacity="0.479" /><rect x="1719" y="449" width="36" height="2" fill="#FFFFFF" opacity="0.354" /><rect x="1736" y="432" width="2" height="36" fill="#FFFFFF" opacity="0.354" /><rect x="1367" y="1767" width="42" height="2" fill="#FFFFFF" opacity="0.757" /><rect x="1387" y="1747" width="2" height="42" fill="#FFFFFF" opacity="0.757" /><rect x="2757" y="1857" width="34" height="2" fill="#FFFFFF" opacity="0.337" /><rect x="2773" y="1841" width="2" height="34" fill="#FFFFFF" opacity="0.337" /><rect x="1333" y="1206" width="66" height="2" fill="#FFFFFF" opacity="0.659" /><rect x="1365" y="1174" width="2" height="66" fill="#FFFFFF" opacity="0.659" /><rect x="1708" y="2704" width="38" height="2" fill="#FFFFFF" opacity="0.348" /><rect x="1726" y="2686" width="2" height="38" fill="#FFFFFF" opacity="0.348" /><rect x="2171" y="2683" width="68" height="2" fill="#FFFFFF" opacity="0.335" /><rect x="2204" y="2650" width="2" height="68" fill="#FFFFFF" opacity="0.335" /><rect x="2125" y="1744" width="74" height="2" fill="#FFFFFF" opacity="0.351" /><rect x="2161" y="1708" width="2" height="74" fill="#FFFFFF" opacity="0.351" /><rect x="424" y="1393" width="82" height="2" fill="#FFFFFF" opacity="0.482" /><rect x="464" y="1353" width="2" height="82" fill="#FFFFFF" opacity="0.482" /><rect x="2415" y="1014" width="28" height="2" fill="#FFFFFF" opacity="0.325" /><rect x="2428" y="1001" width="2" height="28" fill="#FFFFFF" opacity="0.325" /><rect x="2643" y="260" width="36" height="2" fill="#FFFFFF" opacity="0.466" /><rect x="2660" y="243" width="2" height="36" fill="#FFFFFF" opacity="0.466" /><rect x="2544" y="2487" width="66" height="2" fill="#FFFFFF" opacity="0.747" /><rect x="2576" y="2455" width="2" height="66" fill="#FFFFFF" opacity="0.747" /><rect x="1055" y="379" width="32" height="2" fill="#FFFFFF" opacity="0.335" /><rect x="1070" y="364" width="2" height="32" fill="#FFFFFF" opacity="0.335" /><rect x="673" y="1116" width="82" height="2" fill="#FFFFFF" opacity="0.358" /><rect x="713" y="1076" width="2" height="82" fill="#FFFFFF" opacity="0.358" /><rect x="1967" y="432" width="46" height="2" fill="#FFFFFF" opacity="0.667" /><rect x="1989" y="410" width="2" height="46" fill="#FFFFFF" opacity="0.667" /><rect x="1481" y="1960" width="30" height="2" fill="#FFFFFF" opacity="0.562" /><rect x="1495" y="1946" width="2" height="30" fill="#FFFFFF" opacity="0.562" /><rect x="571" y="2555" width="62" height="2" fill="#FFFFFF" opacity="0.800" /><rect x="601" y="2525" width="2" height="62" fill="#FFFFFF" opacity="0.800" /><rect x="1455" y="938" width="36" height="2" fill="#FFFFFF" opacity="0.517" /><rect x="1472" y="921" width="2" height="36" fill="#FFFFFF" opacity="0.517" /><rect x="695" y="1992" width="50" height="2" fill="#FFFFFF" opacity="0.397" /><rect x="719" y="1968" width="2" height="50" fill="#FFFFFF" opacity="0.397" /><rect x="1626" y="2273" width="74" height="2" fill="#FFFFFF" opacity="0.498" /><rect x="1662" y="2237" width="2" height="74" fill="#FFFFFF" opacity="0.498" /><rect x="1302" y="840" width="24" height="2" fill="#FFFFFF" opacity="0.494" /><rect x="1313" y="829" width="2" height="24" fill="#FFFFFF" opacity="0.494" /><rect x="2000" y="2087" width="68" height="2" fill="#FFFFFF" opacity="0.358" /><rect x="2033" y="2054" width="2" height="68" fill="#FFFFFF" opacity="0.358" /><rect x="2685" y="529" width="58" height="2" fill="#FFFFFF" opacity="0.738" /><rect x="2713" y="501" width="2" height="58" fill="#FFFFFF" opacity="0.738" /><rect x="520" y="1112" width="38" height="2" fill="#FFFFFF" opacity="0.761" /><rect x="538" y="1094" width="2" height="38" fill="#FFFFFF" opacity="0.761" /><rect x="2234" y="772" width="64" height="2" fill="#FFFFFF" opacity="0.500" /><rect x="2265" y="741" width="2" height="64" fill="#FFFFFF" opacity="0.500" /><rect x="1745" y="1197" width="40" height="2" fill="#FFFFFF" opacity="0.608" /><rect x="1764" y="1178" width="2" height="40" fill="#FFFFFF" opacity="0.608" /></g>
  <g opacity="0.52"><path d="M1023 1326 L1572 1070 L2121 1326 L2121 2043 L1023 2043 Z" fill="none" stroke="#0C2030" stroke-width="90" stroke-linejoin="round" /><line x1="1572" y1="1070" x2="1572" y2="2043" stroke="#0C2030" stroke-width="88" /></g>
  <g filter="url(#soft140)"><path d="M987 1280 L1536 1024 L2085 1280 L2085 1997 L987 1997 Z" fill="none" stroke="url(#symbol140)" stroke-width="90" stroke-linejoin="round" /><line x1="1536" y1="1024" x2="1536" y2="1997" stroke="url(#symbol140)" stroke-width="88" /></g>
  <rect x="138" y="138" width="2796" height="2796" rx="629" fill="#FFFFFF" filter="url(#grain140)" opacity="0.18" />
</svg>
