<svg xmlns="http://www.w3.org/2000/svg" width="3072" height="3072" viewBox="0 0 3072 3072">
  <title>QuartzOS App Icon 341 - aero_designer_341</title>
  <defs><linearGradient id="bg340" x1="0%" y1="0%" x2="100%" y2="100%"><stop offset="0%" stop-color="#FF9F43" /><stop offset="26%" stop-color="#53E3A6" /><stop offset="56%" stop-color="#3B82FF" /><stop offset="78%" stop-color="#5AA47F" /><stop offset="100%" stop-color="#1A2B22" /></linearGradient><radialGradient id="sun340" cx="26%" cy="21%" r="88%"><stop offset="0%" stop-color="#FFFFFF" stop-opacity="0.62" /><stop offset="30%" stop-color="#8A5CFF" stop-opacity="0.35" /><stop offset="100%" stop-color="#8A5CFF" stop-opacity="0" /></radialGradient><linearGradient id="glass340" x1="0%" y1="0%" x2="0%" y2="100%"><stop offset="0%" stop-color="#FFFFFF" stop-opacity="0.70" /><stop offset="46%" stop-color="#FFFFFF" stop-opacity="0.26" /><stop offset="100%" stop-color="#FFFFFF" stop-opacity="0.00" /></linearGradient><linearGradient id="ribbon340" x1="0%" y1="0%" x2="100%" y2="0%"><stop offset="0%" stop-color="#FF9F43" stop-opacity="0.18" /><stop offset="34%" stop-color="#53E3A6" stop-opacity="0.72" /><stop offset="66%" stop-color="#3B82FF" stop-opacity="0.72" /><stop offset="100%" stop-color="#8A5CFF" stop-opacity="0.18" /></linearGradient><radialGradient id="orb340" cx="34%" cy="27%" r="74%"><stop offset="0%" stop-color="#FFFFFF" stop-opacity="0.84" /><stop offset="30%" stop-color="#FF9F43" stop-opacity="0.52" /><stop offset="68%" stop-color="#53E3A6" stop-opacity="0.42" /><stop offset="100%" stop-color="#3B82FF" stop-opacity="0.20" /></radialGradient><linearGradient id="extrude340" x1="0%" y1="0%" x2="0%" y2="100%"><stop offset="0%" stop-color="#15283C" stop-opacity="0.45" /><stop offset="100%" stop-color="#08131D" stop-opacity="0.06" /></linearGradient><linearGradient id="symbol340" x1="0%" y1="0%" x2="100%" y2="100%"><stop offset="0%" stop-color="#FFFFFF" /><stop offset="100%" stop-color="#8A5CFF" /></linearGradient><filter id="shadow340" x="-40%" y="-40%" width="180%" height="180%"><feDropShadow dx="0" dy="49" stdDeviation="86" flood-color="#06111A" flood-opacity="0.54" /></filter><filter id="soft340" x="-40%" y="-40%" width="180%" height="180%"><feDropShadow dx="0" dy="0" stdDeviation="14" flood-color="#FF9F43" flood-opacity="0.45" /></filter><filter id="grain340"><feTurbulence type="fractalNoise" baseFrequency="0.881" numOctaves="2" seed="340" /><feColorMatrix type="saturate" values="0" /><feComponentTransfer><feFuncA type="table" tableValues="0 0.09" /></feComponentTransfer></filter></defs>
  <rect x="138" y="138" width="2796" height="2796" rx="629" fill="url(#bg340)" filter="url(#shadow340)" />
  <rect x="138" y="138" width="2796" height="2796" rx="629" fill="url(#sun340)" />
  <g><circle cx="2297" cy="2404" r="104" fill="#FFFFFF" opacity="0.178" /><circle cx="1260" cy="546" r="38" fill="#FFFFFF" opacity="0.153" /><circle cx="1488" cy="906" r="137" fill="#FFFFFF" opacity="0.123" /><circle cx="1432" cy="2035" r="146" fill="#FFFFFF" opacity="0.229" /><circle cx="615" cy="1785" r="36" fill="#FFFFFF" opacity="0.233" /><circle cx="794" cy="1038" r="60" fill="#FFFFFF" opacity="0.191" /><circle cx="2321" cy="2168" r="57" fill="#FFFFFF" opacity="0.131" /><circle cx="427" cy="330" r="66" fill="#FFFFFF" opacity="0.063" /><circle cx="701" cy="2193" r="122" fill="#FFFFFF" opacity="0.064" /><circle cx="1296" cy="1945" r="136" fill="#FFFFFF" opacity="0.216" /><circle cx="1994" cy="687" r="135" fill="#FFFFFF" opacity="0.069" /><circle cx="495" cy="2633" r="93" fill="#FFFFFF" opacity="0.194" /><circle cx="2221" cy="1180" r="63" fill="#FFFFFF" opacity="0.175" /><circle cx="482" cy="2043" r="154" fill="#FFFFFF" opacity="0.212" /><circle cx="1168" cy="1898" r="139" fill="#FFFFFF" opacity="0.220" /><circle cx="949" cy="2073" r="129" fill="#FFFFFF" opacity="0.096" /><circle cx="1324" cy="875" r="96" fill="#FFFFFF" opacity="0.167" /><circle cx="1342" cy="2178" r="95" fill="#FFFFFF" opacity="0.173" /><circle cx="1145" cy="1818" r="129" fill="#FFFFFF" opacity="0.215" /><circle cx="2362" cy="2609" r="109" fill="#FFFFFF" opacity="0.141" /><circle cx="1291" cy="1549" r="139" fill="#FFFFFF" opacity="0.146" /><circle cx="1776" cy="1222" r="159" fill="#FFFFFF" opacity="0.072" /><circle cx="512" cy="2162" r="98" fill="#FFFFFF" opacity="0.085" /><circle cx="876" cy="612" r="133" fill="#FFFFFF" opacity="0.118" /><circle cx="2179" cy="2359" r="45" fill="#FFFFFF" opacity="0.145" /><circle cx="583" cy="1619" r="37" fill="#FFFFFF" opacity="0.183" /><circle cx="1123" cy="1516" r="99" fill="#FFFFFF" opacity="0.218" /><circle cx="1193" cy="2385" r="101" fill="#FFFFFF" opacity="0.104" /></g>
  <g><path d="M 331.3 637.9 L 2807.3 361.5 L 2807.3 793.5 L 331.3 1070.0 Z" fill="#FFFFFF" opacity="0.131" /><path d="M 372.4 838.5 L 2804.2 562.0 L 2804.2 1049.6 L 372.4 1326.1 Z" fill="#FFFFFF" opacity="0.118" /><path d="M 166.3 1161.7 L 2802.3 885.2 L 2802.3 1324.6 L 166.3 1601.1 Z" fill="#FFFFFF" opacity="0.153" /><path d="M 216.5 1355.5 L 2889.2 1079.0 L 2889.2 1506.0 L 216.5 1782.5 Z" fill="#FFFFFF" opacity="0.150" /><path d="M 385.3 1632.6 L 2711.1 1356.1 L 2711.1 1843.8 L 385.3 2120.3 Z" fill="#FFFFFF" opacity="0.239" /><path d="M 372.8 1938.2 L 2770.8 1661.7 L 2770.8 2134.8 L 372.8 2411.2 Z" fill="#FFFFFF" opacity="0.111" /><path d="M 334.5 2203.9 L 2828.9 1927.5 L 2828.9 2369.7 L 334.5 2646.2 Z" fill="#FFFFFF" opacity="0.150" /><path d="M 343.9 2408.7 L 2807.5 2132.2 L 2807.5 2557.4 L 343.9 2833.8 Z" fill="#FFFFFF" opacity="0.118" /></g>
  <g filter="url(#soft340)"><g transform="rotate(-22.99 1536.0 1536.0)"><path d="M-368.6 491.8 C -225.8 562.3, -25.8 459.8, 107.5 528.3 C 250.4 530.7, 450.4 476.1, 583.7 487.4 C 726.5 487.5, 926.5 496.4, 1059.8 449.2 C 1202.7 465.5, 1402.7 534.9, 1536.0 436.8 C 1678.8 458.6, 1878.8 543.8, 2012.2 457.7 C 2155.0 448.0, 2355.0 513.0, 2488.3 499.3 C 2631.2 502.3, 2831.2 489.1, 2964.5 536.3 C 3107.3 525.7, 3307.3 444.1, 3440.6 546.3" fill="none" stroke="url(#ribbon340)" stroke-width="58.4" stroke-linecap="round" stroke-opacity="0.120" /></g><g transform="rotate(-22.41 1536.0 1536.0)"><path d="M-368.6 757.6 C -241.7 695.7, -63.9 774.1, 54.6 696.3 C 181.6 715.9, 359.4 808.3, 477.9 722.9 C 604.8 736.4, 782.6 776.5, 901.1 770.6 C 1028.1 770.1, 1205.9 744.3, 1324.4 810.4 C 1451.3 794.8, 1629.1 710.2, 1747.6 818.2 C 1874.6 807.0, 2052.4 725.7, 2170.9 789.3 C 2297.9 779.4, 2475.6 731.5, 2594.1 741.2 C 2721.1 737.5, 2898.9 769.9, 3017.4 703.0 C 3144.4 689.2, 3322.1 798.2, 3440.6 698.0" fill="none" stroke="url(#ribbon340)" stroke-width="54.4" stroke-linecap="round" stroke-opacity="0.146" /></g><g transform="rotate(-21.83 1536.0 1536.0)"><path d="M-368.6 872.2 C -254.4 944.0, -94.4 809.7, 12.3 891.3 C 126.6 889.3, 286.6 854.8, 393.2 837.6 C 507.5 827.7, 667.5 912.8, 774.1 804.9 C 888.4 790.2, 1048.4 930.4, 1155.1 813.0 C 1269.4 832.2, 1429.3 900.7, 1536.0 857.0 C 1650.3 851.3, 1810.3 885.6, 1916.9 910.2 C 2031.2 918.5, 2191.2 847.4, 2297.9 940.4 C 2412.1 956.8, 2572.1 839.8, 2678.8 929.1 C 2793.1 919.1, 2953.1 843.7, 3059.7 883.4 C 3174.0 887.2, 3334.0 866.4, 3440.6 830.8" fill="none" stroke="url(#ribbon340)" stroke-width="50.4" stroke-linecap="round" stroke-opacity="0.172" /></g><g transform="rotate(-21.25 1536.0 1536.0)"><path d="M-368.6 1069.8 C -264.8 1049.5, -119.3 1084.7, -22.3 1003.3 C 81.5 1021.0, 227.0 1113.4, 324.0 996.3 C 427.8 1000.9, 573.3 1127.8, 670.3 1033.9 C 774.1 1047.1, 919.6 1093.9, 1016.6 1093.3 C 1120.4 1088.1, 1265.9 1054.3, 1362.9 1138.4 C 1466.7 1159.9, 1612.2 1027.8, 1709.1 1141.9 C 1813.0 1138.2, 1958.5 1028.6, 2055.4 1101.6 C 2159.3 1100.0, 2304.8 1031.6, 2401.7 1042.1 C 2505.6 1032.8, 2651.1 1083.0, 2748.0 999.3 C 2851.9 998.0, 2997.4 1145.5, 3094.3 999.3 C 3198.2 990.5, 3343.7 1138.8, 3440.6 1042.1" fill="none" stroke="url(#ribbon340)" stroke-width="46.4" stroke-linecap="round" stroke-opacity="0.198" /></g><g transform="rotate(-20.67 1536.0 1536.0)"><path d="M-368.6 1317.4 C -273.4 1396.6, -140.1 1252.0, -51.2 1400.8 C 44.0 1373.2, 177.4 1291.5, 266.2 1372.2 C 361.5 1354.0, 494.8 1295.1, 583.7 1310.4 C 678.9 1307.9, 812.2 1321.9, 901.1 1252.8 C 996.4 1274.9, 1129.7 1355.9, 1218.6 1234.4 C 1313.8 1209.9, 1447.1 1368.4, 1536.0 1266.3 C 1631.2 1265.5, 1764.6 1360.0, 1853.4 1329.2 C 1948.7 1330.7, 2082.0 1313.0, 2170.9 1385.0 C 2266.1 1359.3, 2399.4 1255.6, 2488.3 1399.7 C 2583.6 1371.0, 2716.9 1281.3, 2805.8 1364.5 C 2901.0 1376.5, 3034.3 1263.0, 3123.2 1300.7 C 3218.4 1295.6, 3351.8 1326.1, 3440.6 1247.0" fill="none" stroke="url(#ribbon340)" stroke-width="42.4" stroke-linecap="round" stroke-opacity="0.224" /></g><g transform="rotate(-20.09 1536.0 1536.0)"><path d="M-368.6 1438.9 C -225.8 1352.0, -25.8 1510.6, 107.5 1349.7 C 250.4 1314.4, 450.4 1518.7, 583.7 1388.6 C 726.5 1397.0, 926.5 1490.4, 1059.8 1457.9 C 1202.7 1461.5, 1402.7 1418.7, 1536.0 1515.7 C 1678.8 1546.1, 1878.8 1355.9, 2012.2 1526.9 C 2155.0 1500.0, 2355.0 1362.9, 2488.3 1484.7 C 2631.2 1476.0, 2831.2 1398.1, 2964.5 1414.7 C 3107.3 1411.9, 3307.3 1456.5, 3440.6 1359.4" fill="none" stroke="url(#ribbon340)" stroke-width="38.4" stroke-linecap="round" stroke-opacity="0.250" /></g><g transform="rotate(-19.51 1536.0 1536.0)"><path d="M-368.6 1711.7 C -241.7 1752.7, -63.9 1666.8, 54.6 1809.3 C 181.6 1802.3, 359.4 1600.1, 477.9 1781.1 C 604.8 1783.1, 782.6 1649.5, 901.1 1710.7 C 1028.1 1710.9, 1205.9 1712.3, 1324.4 1640.9 C 1451.3 1622.6, 1629.1 1740.2, 1747.6 1614.0 C 1874.6 1626.3, 2052.4 1767.0, 2170.9 1646.3 C 2297.9 1627.2, 2475.6 1747.3, 2594.1 1718.3 C 2721.1 1720.9, 2898.9 1705.0, 3017.4 1786.2 C 3144.4 1773.6, 3322.1 1641.1, 3440.6 1808.9" fill="none" stroke="url(#ribbon340)" stroke-width="34.4" stroke-linecap="round" stroke-opacity="0.276" /></g><g transform="rotate(-18.93 1536.0 1536.0)"><path d="M-368.6 1910.8 C -254.4 2000.3, -94.4 1844.2, 12.3 1988.6 C 126.6 1966.4, 286.6 1849.7, 393.2 1914.6 C 507.5 1916.0, 667.5 1909.4, 774.1 1838.4 C 888.4 1812.5, 1048.4 1967.5, 1155.1 1806.1 C 1269.4 1838.1, 1429.3 1961.7, 1536.0 1837.3 C 1650.3 1846.3, 1810.3 1959.0, 1916.9 1913.2 C 2031.2 1912.4, 2191.2 1909.2, 2297.9 1987.6 C 2412.1 1978.0, 2572.1 1840.2, 2678.8 2015.4 C 2793.1 1984.6, 2953.1 1811.1, 3059.7 1979.8 C 3174.0 1973.5, 3334.0 1888.0, 3440.6 1902.4" fill="none" stroke="url(#ribbon340)" stroke-width="30.4" stroke-linecap="round" stroke-opacity="0.302" /></g><g transform="rotate(-18.35 1536.0 1536.0)"><path d="M-368.6 2067.2 C -264.8 2121.7, -119.3 2034.3, -22.3 2025.5 C 81.5 2014.7, 227.0 2107.0, 324.0 1963.7 C 427.8 1945.7, 573.3 2186.0, 670.3 1964.7 C 774.1 2002.4, 919.6 2181.4, 1016.6 2027.8 C 1120.4 2024.7, 1265.9 2097.5, 1362.9 2114.9 C 1466.7 2133.1, 1612.2 2030.9, 1709.1 2172.9 C 1813.0 2151.8, 1958.5 2007.5, 2055.4 2166.9 C 2159.3 2141.9, 2304.8 1954.1, 2401.7 2100.3 C 2505.6 2103.6, 2651.1 2057.2, 2748.0 2013.7 C 2851.9 2023.2, 2997.4 2089.2, 3094.3 1959.5 C 3198.2 1968.5, 3343.7 2185.0, 3440.6 1970.6" fill="none" stroke="url(#ribbon340)" stroke-width="26.4" stroke-linecap="round" stroke-opacity="0.328" /></g><g transform="rotate(-17.77 1536.0 1536.0)"><path d="M-368.6 2207.8 C -273.4 2077.4, -140.1 2266.7, -51.2 2092.8 C 44.0 2079.1, 177.4 2257.7, 266.2 2149.3 C 361.5 2150.9, 494.8 2232.4, 583.7 2241.3 C 678.9 2240.7, 812.2 2177.2, 901.1 2313.0 C 996.4 2346.7, 1129.7 2093.1, 1218.6 2320.9 C 1313.8 2317.5, 1447.1 2165.9, 1536.0 2260.2 C 1631.2 2254.7, 1764.6 2184.4, 1853.4 2167.7 C 1948.7 2153.2, 2082.0 2250.4, 2170.9 2099.6 C 2266.1 2094.1, 2399.4 2241.3, 2488.3 2097.1 C 2583.6 2095.4, 2716.9 2264.0, 2805.8 2161.7 C 2901.0 2157.7, 3034.3 2259.2, 3123.2 2254.3 C 3218.4 2241.7, 3351.8 2161.5, 3440.6 2318.7" fill="none" stroke="url(#ribbon340)" stroke-width="22.4" stroke-linecap="round" stroke-opacity="0.354" /></g><g transform="rotate(-17.19 1536.0 1536.0)"><path d="M-368.6 2486.7 C -225.8 2328.8, -25.8 2549.9, 107.5 2421.1 C 250.4 2414.4, 450.4 2524.2, 583.7 2518.2 C 726.5 2517.6, 926.5 2453.5, 1059.8 2596.1 C 1202.7 2609.1, 1402.7 2450.2, 1536.0 2607.7 C 1678.8 2595.4, 1878.8 2440.0, 2012.2 2545.9 C 2155.0 2542.0, 2355.0 2439.5, 2488.3 2448.2 C 2631.2 2455.4, 2831.2 2525.3, 2964.5 2373.9 C 3107.3 2383.4, 3307.3 2559.7, 3440.6 2368.0" fill="none" stroke="url(#ribbon340)" stroke-width="18.4" stroke-linecap="round" stroke-opacity="0.380" /></g><g transform="rotate(-16.61 1536.0 1536.0)"><path d="M-368.6 2620.3 C -241.7 2490.5, -63.9 2711.2, 54.6 2542.4 C 181.6 2514.7, 359.4 2700.5, 477.9 2643.4 C 604.8 2648.9, 782.6 2606.6, 901.1 2730.4 C 1028.1 2704.4, 1205.9 2548.8, 1324.4 2750.6 C 1451.3 2708.6, 1629.1 2502.3, 1747.6 2691.7 C 1874.6 2713.8, 2052.4 2576.2, 2170.9 2589.6 C 2297.9 2588.0, 2475.6 2640.3, 2594.1 2506.1 C 2721.1 2501.7, 2898.9 2751.5, 3017.4 2491.8 C 3144.4 2453.4, 3322.1 2703.8, 3440.6 2555.5" fill="none" stroke="url(#ribbon340)" stroke-width="14.4" stroke-linecap="round" stroke-opacity="0.406" /></g></g>
  <g><ellipse cx="1536.0" cy="1551.9" rx="728.6" ry="605.7" fill="url(#extrude340)" opacity="0.220" /><ellipse cx="1536.0" cy="1567.7" rx="736.0" ry="610.9" fill="url(#extrude340)" opacity="0.205" /><ellipse cx="1536.0" cy="1583.6" rx="743.4" ry="616.1" fill="url(#extrude340)" opacity="0.190" /><ellipse cx="1536.0" cy="1599.5" rx="750.9" ry="621.3" fill="url(#extrude340)" opacity="0.175" /><ellipse cx="1536.0" cy="1615.4" rx="758.3" ry="626.5" fill="url(#extrude340)" opacity="0.160" /><ellipse cx="1536.0" cy="1631.2" rx="765.7" ry="631.7" fill="url(#extrude340)" opacity="0.145" /><ellipse cx="1536.0" cy="1647.1" rx="773.2" ry="636.9" fill="url(#extrude340)" opacity="0.130" /><ellipse cx="1536.0" cy="1663.0" rx="780.6" ry="642.1" fill="url(#extrude340)" opacity="0.115" /><ellipse cx="1536.0" cy="1678.8" rx="788.0" ry="647.4" fill="url(#extrude340)" opacity="0.100" /><ellipse cx="1536.0" cy="1694.7" rx="795.5" ry="652.6" fill="url(#extrude340)" opacity="0.085" /><ellipse cx="1536.0" cy="1710.6" rx="802.9" ry="657.8" fill="url(#extrude340)" opacity="0.070" /><ellipse cx="1536.0" cy="1726.5" rx="810.3" ry="663.0" fill="url(#extrude340)" opacity="0.055" /></g>
  <ellipse cx="1536.0" cy="1726.5" rx="773.2" ry="214.9" fill="#0B1D2D" opacity="0.24" />
  <ellipse cx="1536.0" cy="1536.0" rx="743.4" ry="651.3" fill="url(#orb340)" stroke="#FFFFFF" stroke-opacity="0.42" stroke-width="7" />
  <ellipse cx="1431.9" cy="1392.7" rx="505.5" ry="299.6" fill="#FFFFFF" opacity="0.25" />
  <path d="M 199.4 399.4 C 1013.8 -30.7, 2058.2 768.0, 2872.6 215.0 L 2872.6 983.0 C 2089.0 1228.8, 1013.8 307.2, 199.4 1167.4 Z" fill="url(#glass340)" />
  <rect x="270" y="270" width="2532" height="2532" rx="430" fill="none" stroke="#FFFFFF" stroke-opacity="0.30" stroke-width="5" />
  <rect x="288.4" y="288.4" width="2495.1" height="2495.1" rx="399" fill="none" stroke="#FF9F43" stroke-opacity="0.35" stroke-width="3" />
  <g filter="url(#soft340)"><rect x="630" y="962" width="72" height="2" fill="#FFFFFF" opacity="0.508" /><rect x="665" y="927" width="2" height="72" fill="#FFFFFF" opacity="0.508" /><rect x="383" y="1810" width="64" height="2" fill="#FFFFFF" opacity="0.625" /><rect x="414" y="1779" width="2" height="64" fill="#FFFFFF" opacity="0.625" /><rect x="2691" y="2210" width="66" height="2" fill="#FFFFFF" opacity="0.643" /><rect x="2723" y="2178" width="2" height="66" fill="#FFFFFF" opacity="0.643" /><rect x="1779" y="1891" width="66" height="2" fill="#FFFFFF" opacity="0.710" /><rect x="1811" y="1859" width="2" height="66" fill="#FFFFFF" opacity="0.710" /><rect x="576" y="2007" width="70" height="2" fill="#FFFFFF" opacity="0.493" /><rect x="610" y="1973" width="2" height="70" fill="#FFFFFF" opacity="0.493" /><rect x="2186" y="2102" width="34" height="2" fill="#FFFFFF" opacity="0.523" /><rect x="2202" y="2086" width="2" height="34" fill="#FFFFFF" opacity="0.523" /><rect x="529" y="1615" width="36" height="2" fill="#FFFFFF" opacity="0.344" /><rect x="546" y="1598" width="2" height="36" fill="#FFFFFF" opacity="0.344" /><rect x="2789" y="308" width="26" height="2" fill="#FFFFFF" opacity="0.793" /><rect x="2801" y="296" width="2" height="26" fill="#FFFFFF" opacity="0.793" /><rect x="282" y="2695" width="62" height="2" fill="#FFFFFF" opacity="0.354" /><rect x="312" y="2665" width="2" height="62" fill="#FFFFFF" opacity="0.354" /><rect x="2442" y="1940" width="32" height="2" fill="#FFFFFF" opacity="0.337" /><rect x="2457" y="1925" width="2" height="32" fill="#FFFFFF" opacity="0.337" /><rect x="1266" y="2474" width="24" height="2" fill="#FFFFFF" opacity="0.845" /><rect x="1277" y="2463" width="2" height="24" fill="#FFFFFF" opacity="0.845" /><rect x="2485" y="2641" width="64" height="2" fill="#FFFFFF" opacity="0.361" /><rect x="2516" y="2610" width="2" height="64" fill="#FFFFFF" opacity="0.361" /><rect x="2303" y="397" width="38" height="2" fill="#FFFFFF" opacity="0.433" /><rect x="2321" y="379" width="2" height="38" fill="#FFFFFF" opacity="0.433" /><rect x="1105" y="2562" width="76" height="2" fill="#FFFFFF" opacity="0.537" /><rect x="1142" y="2525" width="2" height="76" fill="#FFFFFF" opacity="0.537" /><rect x="818" y="1165" width="60" height="2" fill="#FFFFFF" opacity="0.787" /><rect x="847" y="1136" width="2" height="60" fill="#FFFFFF" opacity="0.787" /><rect x="2258" y="1914" width="32" height="2" fill="#FFFFFF" opacity="0.626" /><rect x="2273" y="1899" width="2" height="32" fill="#FFFFFF" opacity="0.626" /><rect x="835" y="1557" width="76" height="2" fill="#FFFFFF" opacity="0.429" /><rect x="872" y="1520" width="2" height="76" fill="#FFFFFF" opacity="0.429" /><rect x="1415" y="466" width="54" height="2" fill="#FFFFFF" opacity="0.475" /><rect x="1441" y="440" width="2" height="54" fill="#FFFFFF" opacity="0.475" /><rect x="469" y="1333" width="54" height="2" fill="#FFFFFF" opacity="0.660" /><rect x="495" y="1307" width="2" height="54" fill="#FFFFFF" opacity="0.660" /><rect x="1321" y="972" width="36" height="2" fill="#FFFFFF" opacity="0.604" /><rect x="1338" y="955" width="2" height="36" fill="#FFFFFF" opacity="0.604" /><rect x="1548" y="444" width="44" height="2" fill="#FFFFFF" opacity="0.529" /><rect x="1569" y="423" width="2" height="44" fill="#FFFFFF" opacity="0.529" /><rect x="1696" y="1423" width="68" height="2" fill="#FFFFFF" opacity="0.624" /><rect x="1729" y="1390" width="2" height="68" fill="#FFFFFF" opacity="0.624" /><rect x="1230" y="2705" width="54" height="2" fill="#FFFFFF" opacity="0.634" /><rect x="1256" y="2679" width="2" height="54" fill="#FFFFFF" opacity="0.634" /><rect x="1468" y="1308" width="34" height="2" fill="#FFFFFF" opacity="0.443" /><rect x="1484" y="1292" width="2" height="34" fill="#FFFFFF" opacity="0.443" /><rect x="731" y="714" width="56" height="2" fill="#FFFFFF" opacity="0.348" /><rect x="758" y="687" width="2" height="56" fill="#FFFFFF" opacity="0.348" /><rect x="2619" y="1739" width="74" height="2" fill="#FFFFFF" opacity="0.406" /><rect x="2655" y="1703" width="2" height="74" fill="#FFFFFF" opacity="0.406" /></g>
  <g opacity="0.52"><path d="M1572 1006 L2148 1582 L1572 2158 L996 1582 Z" fill="none" stroke="#0C2030" stroke-width="90" stroke-linejoin="round" /><circle cx="1572" cy="1582" r="153" fill="#0C2030" /></g>
  <g filter="url(#soft340)"><path d="M1536 960 L2112 1536 L1536 2112 L960 1536 Z" fill="none" stroke="url(#symbol340)" stroke-width="90" stroke-linejoin="round" /><circle cx="1536" cy="1536" r="153" fill="url(#symbol340)" /></g>
  <rect x="138" y="138" width="2796" height="2796" rx="629" fill="#FFFFFF" filter="url(#grain340)" opacity="0.18" />
</svg>
