<svg xmlns="http://www.w3.org/2000/svg" width="3072" height="3072" viewBox="0 0 3072 3072">
  <title>QuartzOS App Icon 221 - aero_calendar_221</title>
  <defs><linearGradient id="bg220" x1="0%" y1="0%" x2="100%" y2="100%"><stop offset="0%" stop-color="#FF6AB3" /><stop offset="26%" stop-color="#FFD84D" /><stop offset="56%" stop-color="#36D1FF" /><stop offset="78%" stop-color="#5AA47F" /><stop offset="100%" stop-color="#1A2B22" /></linearGradient><radialGradient id="sun220" cx="28%" cy="17%" r="88%"><stop offset="0%" stop-color="#FFFFFF" stop-opacity="0.62" /><stop offset="30%" stop-color="#3B82FF" stop-opacity="0.35" /><stop offset="100%" stop-color="#3B82FF" stop-opacity="0" /></radialGradient><linearGradient id="glass220" x1="0%" y1="0%" x2="0%" y2="100%"><stop offset="0%" stop-color="#FFFFFF" stop-opacity="0.70" /><stop offset="46%" stop-color="#FFFFFF" stop-opacity="0.26" /><stop offset="100%" stop-color="#FFFFFF" stop-opacity="0.00" /></linearGradient><linearGradient id="ribbon220" x1="0%" y1="0%" x2="100%" y2="0%"><stop offset="0%" stop-color="#FF6AB3" stop-opacity="0.18" /><stop offset="34%" stop-color="#FFD84D" stop-opacity="0.72" /><stop offset="66%" stop-color="#36D1FF" stop-opacity="0.72" /><stop offset="100%" stop-color="#3B82FF" stop-opacity="0.18" /></linearGradient><radialGradient id="orb220" cx="34%" cy="27%" r="74%"><stop offset="0%" stop-color="#FFFFFF" stop-opacity="0.84" /><stop offset="30%" stop-color="#FF6AB3" stop-opacity="0.52" /><stop offset="68%" stop-color="#FFD84D" stop-opacity="0.42" /><stop offset="100%" stop-color="#36D1FF" stop-opacity="0.20" /></radialGradient><linearGradient id="extrude220" x1="0%" y1="0%" x2="0%" y2="100%"><stop offset="0%" stop-color="#15283C" stop-opacity="0.45" /><stop offset="100%" stop-color="#08131D" stop-opacity="0.06" /></linearGradient><linearGradient id="symbol220" x1="0%" y1="0%" x2="100%" y2="100%"><stop offset="0%" stop-color="#FFFFFF" /><stop offset="100%" stop-color="#3B82FF" /></linearGradient><filter id="shadow220" x="-40%" y="-40%" width="180%" height="180%"><feDropShadow dx="0" dy="49" stdDeviation="86" flood-color="#06111A" flood-opacity="0.54" /></filter><filter id="soft220" x="-40%" y="-40%" width="180%" height="180%"><feDropShadow dx="0" dy="0" stdDeviation="14" flood-color="#FF6AB3" flood-opacity="0.45" /></filter><filter id="grain220"><feTurbulence type="fractalNoise" baseFrequency="0.957" numOctaves="2" seed="220" /><feColorMatrix type="saturate" values="0" /><feComponentTransfer><feFuncA type="table" tableValues="0 0.09" /></feComponentTransfer></filter></defs>
  <rect x="138" y="138" width="2796" height="2796" rx="629" fill="url(#bg220)" filter="url(#shadow220)" />
  <rect x="138" y="138" width="2796" height="2796" rx="629" fill="url(#sun220)" />
  <g><circle cx="994" cy="2346" r="71" fill="#FFFFFF" opacity="0.128" /><circle cx="1116" cy="655" r="148" fill="#FFFFFF" opacity="0.234" /><circle cx="1902" cy="1441" r="41" fill="#FFFFFF" opacity="0.195" /><circle cx="1272" cy="546" r="124" fill="#FFFFFF" opacity="0.199" /><circle cx="1581" cy="1618" r="103" fill="#FFFFFF" opacity="0.130" /><circle cx="2207" cy="1248" r="62" fill="#FFFFFF" opacity="0.177" /><circle cx="2436" cy="2605" r="67" fill="#FFFFFF" opacity="0.223" /><circle cx="1862" cy="1761" r="37" fill="#FFFFFF" opacity="0.187" /><circle cx="2405" cy="1687" r="78" fill="#FFFFFF" opacity="0.211" /><circle cx="2655" cy="1706" r="106" fill="#FFFFFF" opacity="0.063" /><circle cx="1500" cy="1817" r="122" fill="#FFFFFF" opacity="0.184" /><circle cx="574" cy="2020" r="153" fill="#FFFFFF" opacity="0.208" /><circle cx="2640" cy="1306" r="38" fill="#FFFFFF" opacity="0.198" /><circle cx="1270" cy="1613" r="123" fill="#FFFFFF" opacity="0.150" /><circle cx="2144" cy="1036" r="144" fill="#FFFFFF" opacity="0.210" /><circle cx="2445" cy="1959" r="127" fill="#FFFFFF" opacity="0.133" /><circle cx="2535" cy="437" r="157" fill="#FFFFFF" opacity="0.161" /><circle cx="894" cy="452" r="75" fill="#FFFFFF" opacity="0.140" /><circle cx="982" cy="1409" r="83" fill="#FFFFFF" opacity="0.207" /><circle cx="863" cy="1292" r="45" fill="#FFFFFF" opacity="0.158" /><circle cx="2400" cy="1001" r="133" fill="#FFFFFF" opacity="0.193" /><circle cx="376" cy="751" r="50" fill="#FFFFFF" opacity="0.220" /><circle cx="1178" cy="1624" r="154" fill="#FFFFFF" opacity="0.176" /><circle cx="2218" cy="1954" r="58" fill="#FFFFFF" opacity="0.233" /><circle cx="1577" cy="437" r="54" fill="#FFFFFF" opacity="0.196" /><circle cx="555" cy="1642" r="143" fill="#FFFFFF" opacity="0.136" /><circle cx="2085" cy="1054" r="107" fill="#FFFFFF" opacity="0.185" /><circle cx="1544" cy="1659" r="147" fill="#FFFFFF" opacity="0.203" /></g>
  <g><path d="M 324.6 636.5 L 2688.1 360.0 L 2688.1 845.6 L 324.6 1122.1 Z" fill="#FFFFFF" opacity="0.117" /><path d="M 271.2 894.8 L 2915.3 618.3 L 2915.3 1042.7 L 271.2 1319.2 Z" fill="#FFFFFF" opacity="0.094" /><path d="M 271.2 1135.5 L 2903.7 859.0 L 2903.7 1327.9 L 271.2 1604.4 Z" fill="#FFFFFF" opacity="0.203" /><path d="M 175.6 1393.3 L 2782.8 1116.8 L 2782.8 1595.0 L 175.6 1871.4 Z" fill="#FFFFFF" opacity="0.211" /><path d="M 241.1 1631.9 L 2718.6 1355.5 L 2718.6 1819.7 L 241.1 2096.2 Z" fill="#FFFFFF" opacity="0.166" /><path d="M 218.3 1884.5 L 2825.1 1608.1 L 2825.1 2093.7 L 218.3 2370.2 Z" fill="#FFFFFF" opacity="0.140" /><path d="M 240.5 2138.0 L 2802.2 1861.5 L 2802.2 2307.2 L 240.5 2583.7 Z" fill="#FFFFFF" opacity="0.235" /><path d="M 221.5 2475.3 L 2885.3 2198.8 L 2885.3 2634.8 L 221.5 2911.3 Z" fill="#FFFFFF" opacity="0.132" /></g>
  <g filter="url(#soft220)"><g transform="rotate(-18.04 1536.0 1536.0)"><path d="M-368.6 568.5 C -225.8 563.9, -25.8 574.9, 107.5 604.1 C 250.4 601.7, 450.4 534.1, 583.7 623.6 C 726.5 641.8, 926.5 522.8, 1059.8 609.7 C 1202.7 595.9, 1402.7 527.2, 1536.0 570.8 C 1678.8 570.5, 1878.8 565.9, 2012.2 530.5 C 2155.0 540.4, 2355.0 594.6, 2488.3 513.2 C 2631.2 534.9, 2831.2 594.5, 2964.5 529.4 C 3107.3 533.3, 3307.3 581.7, 3440.6 569.4" fill="none" stroke="url(#ribbon220)" stroke-width="58.4" stroke-linecap="round" stroke-opacity="0.120" /></g><g transform="rotate(-17.46 1536.0 1536.0)"><path d="M-368.6 713.1 C -241.7 793.4, -63.9 649.9, 54.6 748.6 C 181.6 736.0, 359.4 687.6, 477.9 701.1 C 604.8 697.4, 782.6 725.2, 901.1 660.8 C 1028.1 651.5, 1205.9 733.1, 1324.4 652.2 C 1451.3 646.1, 1629.1 779.7, 1747.6 680.5 C 1874.6 692.4, 2052.4 729.0, 2170.9 728.6 C 2297.9 728.2, 2475.6 701.8, 2594.1 767.2 C 2721.1 768.7, 2898.9 659.0, 3017.4 773.0 C 3144.4 783.1, 3322.1 691.3, 3440.6 742.4" fill="none" stroke="url(#ribbon220)" stroke-width="54.4" stroke-linecap="round" stroke-opacity="0.146" /></g><g transform="rotate(-16.88 1536.0 1536.0)"><path d="M-368.6 887.8 C -254.4 927.7, -94.4 858.4, 12.3 952.1 C 126.6 935.6, 286.6 860.6, 393.2 913.9 C 507.5 922.2, 667.5 876.2, 774.1 859.8 C 888.4 865.7, 1048.4 898.9, 1155.1 822.7 C 1269.4 839.4, 1429.3 958.6, 1536.0 825.0 C 1650.3 849.1, 1810.3 960.2, 1916.9 865.4 C 2031.2 857.5, 2191.2 901.5, 2297.9 919.3 C 2412.1 920.3, 2572.1 869.0, 2678.8 954.1 C 2793.1 934.1, 2953.1 823.9, 3059.7 948.6 C 3174.0 953.5, 3334.0 863.1, 3440.6 906.2" fill="none" stroke="url(#ribbon220)" stroke-width="50.4" stroke-linecap="round" stroke-opacity="0.172" /></g><g transform="rotate(-16.30 1536.0 1536.0)"><path d="M-368.6 1096.9 C -264.8 1167.0, -119.3 1024.1, -22.3 1110.9 C 81.5 1116.4, 227.0 1086.3, 324.0 1052.7 C 427.8 1051.0, 573.3 1124.2, 670.3 1021.3 C 774.1 1048.7, 919.6 1154.3, 1016.6 1035.7 C 1120.4 1029.3, 1265.9 1145.7, 1362.9 1087.3 C 1466.7 1088.3, 1612.2 1107.9, 1709.1 1144.6 C 1813.0 1136.8, 1958.5 1062.5, 2055.4 1173.0 C 2159.3 1194.0, 2304.8 1067.0, 2401.7 1155.2 C 2505.6 1144.1, 2651.1 1047.6, 2748.0 1102.0 C 2851.9 1100.7, 2997.4 1093.8, 3094.3 1045.7 C 3198.2 1041.9, 3343.7 1120.5, 3440.6 1020.4" fill="none" stroke="url(#ribbon220)" stroke-width="46.4" stroke-linecap="round" stroke-opacity="0.198" /></g><g transform="rotate(-15.72 1536.0 1536.0)"><path d="M-368.6 1264.4 C -273.4 1245.3, -140.1 1273.3, -51.2 1192.6 C 44.0 1167.9, 177.4 1288.8, 266.2 1183.7 C 361.5 1160.9, 494.8 1327.0, 583.7 1223.7 C 678.9 1239.3, 812.2 1303.9, 901.1 1288.4 C 996.4 1279.6, 1129.7 1247.0, 1218.6 1338.5 C 1313.8 1317.1, 1447.1 1233.1, 1536.0 1343.7 C 1631.2 1330.7, 1764.6 1182.3, 1853.4 1300.8 C 1948.7 1308.9, 2082.0 1234.5, 2170.9 1235.8 C 2266.1 1230.6, 2399.4 1291.9, 2488.3 1188.1 C 2583.6 1204.5, 2716.9 1292.8, 2805.8 1186.7 C 2901.0 1160.6, 3034.3 1296.6, 3123.2 1232.5 C 3218.4 1228.9, 3351.8 1282.0, 3440.6 1297.5" fill="none" stroke="url(#ribbon220)" stroke-width="42.4" stroke-linecap="round" stroke-opacity="0.224" /></g><g transform="rotate(-15.14 1536.0 1536.0)"><path d="M-368.6 1492.3 C -225.8 1419.2, -25.8 1541.6, 107.5 1491.2 C 250.4 1491.4, 450.4 1493.0, 583.7 1556.6 C 726.5 1546.0, 926.5 1471.7, 1059.8 1582.9 C 1202.7 1584.8, 1402.7 1423.3, 1536.0 1554.2 C 1678.8 1542.1, 1878.8 1419.1, 2012.2 1488.0 C 2155.0 1489.6, 2355.0 1494.0, 2488.3 1424.4 C 2631.2 1431.3, 2831.2 1542.6, 2964.5 1401.9 C 3107.3 1386.7, 3307.3 1576.8, 3440.6 1434.3" fill="none" stroke="url(#ribbon220)" stroke-width="38.4" stroke-linecap="round" stroke-opacity="0.250" /></g><g transform="rotate(-14.56 1536.0 1536.0)"><path d="M-368.6 1646.1 C -241.7 1613.1, -63.9 1669.7, 54.6 1687.9 C 181.6 1674.1, 359.4 1612.7, 477.9 1738.5 C 604.8 1734.7, 782.6 1605.7, 901.1 1733.1 C 1028.1 1758.7, 1205.9 1572.9, 1324.4 1674.9 C 1451.3 1674.3, 1629.1 1611.8, 1747.6 1599.2 C 1874.6 1609.3, 2052.4 1701.5, 2170.9 1551.9 C 2297.9 1521.1, 2475.6 1758.4, 2594.1 1561.8 C 2721.1 1571.4, 2898.9 1743.0, 3017.4 1622.8 C 3144.4 1616.2, 3322.1 1658.1, 3440.6 1697.9" fill="none" stroke="url(#ribbon220)" stroke-width="34.4" stroke-linecap="round" stroke-opacity="0.276" /></g><g transform="rotate(-13.98 1536.0 1536.0)"><path d="M-368.6 1870.9 C -254.4 1951.1, -94.4 1822.7, 12.3 1957.5 C 126.6 1931.5, 286.6 1781.6, 393.2 1889.0 C 507.5 1895.6, 667.5 1859.9, 774.1 1809.5 C 888.4 1791.5, 1048.4 1903.0, 1155.1 1767.2 C 1269.4 1767.0, 1429.3 1941.9, 1536.0 1787.9 C 1650.3 1819.9, 1810.3 1897.2, 1916.9 1858.9 C 2031.2 1859.7, 2191.2 1881.2, 2297.9 1937.2 C 2412.1 1962.5, 2572.1 1822.2, 2678.8 1975.3 C 2793.1 1983.7, 2953.1 1781.2, 3059.7 1950.1 C 3174.0 1955.7, 3334.0 1808.7, 3440.6 1876.8" fill="none" stroke="url(#ribbon220)" stroke-width="30.4" stroke-linecap="round" stroke-opacity="0.302" /></g><g transform="rotate(-13.40 1536.0 1536.0)"><path d="M-368.6 2079.5 C -264.8 2031.9, -119.3 2114.6, -22.3 1978.4 C 81.5 1955.8, 227.0 2196.2, 324.0 1974.7 C 427.8 1954.9, 573.3 2183.6, 670.3 2034.6 C 774.1 2023.8, 919.6 2108.5, 1016.6 2121.7 C 1120.4 2134.5, 1265.9 2055.2, 1362.9 2183.2 C 1466.7 2151.2, 1612.2 2004.2, 1709.1 2181.7 C 1813.0 2193.3, 1958.5 1971.7, 2055.4 2118.3 C 2159.3 2119.7, 2304.8 2058.7, 2401.7 2031.3 C 2505.6 2042.9, 2651.1 2135.1, 2748.0 1973.5 C 2851.9 1952.7, 2997.4 2140.4, 3094.3 1980.0 C 3198.2 2016.4, 3343.7 2196.1, 3440.6 2046.9" fill="none" stroke="url(#ribbon220)" stroke-width="26.4" stroke-linecap="round" stroke-opacity="0.328" /></g><g transform="rotate(-12.82 1536.0 1536.0)"><path d="M-368.6 2232.7 C -273.4 2183.9, -140.1 2259.9, -51.2 2266.0 C 44.0 2277.6, 177.4 2212.2, 266.2 2337.8 C 361.5 2362.3, 494.8 2111.7, 583.7 2345.8 C 678.9 2304.5, 812.2 2100.1, 901.1 2285.3 C 996.4 2274.4, 1129.7 2197.9, 1218.6 2192.8 C 1313.8 2179.0, 1447.1 2266.6, 1536.0 2124.6 C 1631.2 2102.8, 1764.6 2323.3, 1853.4 2121.9 C 1948.7 2138.5, 2082.0 2338.4, 2170.9 2186.5 C 2266.1 2183.4, 2399.4 2256.0, 2488.3 2279.1 C 2583.6 2285.2, 2716.9 2218.0, 2805.8 2343.6 C 2901.0 2387.0, 3034.3 2163.5, 3123.2 2340.8 C 3218.4 2383.7, 3351.8 2142.5, 3440.6 2272.5" fill="none" stroke="url(#ribbon220)" stroke-width="22.4" stroke-linecap="round" stroke-opacity="0.354" /></g><g transform="rotate(-12.24 1536.0 1536.0)"><path d="M-368.6 2443.7 C -225.8 2350.5, -25.8 2577.8, 107.5 2386.7 C 250.4 2396.7, 450.4 2508.0, 583.7 2484.6 C 726.5 2492.8, 926.5 2430.6, 1059.8 2557.7 C 1202.7 2574.6, 1402.7 2386.6, 1536.0 2561.6 C 1678.8 2529.0, 1878.8 2308.0, 2012.2 2494.0 C 2155.0 2511.9, 2355.0 2388.5, 2488.3 2395.9 C 2631.2 2380.2, 2831.2 2459.2, 2964.5 2326.8 C 3107.3 2354.6, 3307.3 2481.8, 3440.6 2328.6" fill="none" stroke="url(#ribbon220)" stroke-width="18.4" stroke-linecap="round" stroke-opacity="0.380" /></g><g transform="rotate(-11.66 1536.0 1536.0)"><path d="M-368.6 2666.7 C -241.7 2486.1, -63.9 2771.9, 54.6 2563.5 C 181.6 2581.9, 359.4 2722.9, 477.9 2654.9 C 604.8 2656.0, 782.6 2677.7, 901.1 2753.5 C 1028.1 2740.5, 1205.9 2572.4, 1324.4 2799.5 C 1451.3 2791.9, 1629.1 2542.7, 1747.6 2764.9 C 1874.6 2779.4, 2052.4 2575.2, 2170.9 2670.8 C 2297.9 2671.7, 2475.6 2664.6, 2594.1 2574.2 C 2721.1 2599.9, 2898.9 2751.2, 3017.4 2533.7 C 3144.4 2551.6, 3322.1 2767.5, 3440.6 2573.9" fill="none" stroke="url(#ribbon220)" stroke-width="14.4" stroke-linecap="round" stroke-opacity="0.406" /></g></g>
  <g><ellipse cx="1536.0" cy="1551.9" rx="728.6" ry="605.7" fill="url(#extrude220)" opacity="0.220" /><ellipse cx="1536.0" cy="1567.7" rx="736.0" ry="610.9" fill="url(#extrude220)" opacity="0.205" /><ellipse cx="1536.0" cy="1583.6" rx="743.4" ry="616.1" fill="url(#extrude220)" opacity="0.190" /><ellipse cx="1536.0" cy="1599.5" rx="750.9" ry="621.3" fill="url(#extrude220)" opacity="0.175" /><ellipse cx="1536.0" cy="1615.4" rx="758.3" ry="626.5" fill="url(#extrude220)" opacity="0.160" /><ellipse cx="1536.0" cy="1631.2" rx="765.7" ry="631.7" fill="url(#extrude220)" opacity="0.145" /><ellipse cx="1536.0" cy="1647.1" rx="773.2" ry="636.9" fill="url(#extrude220)" opacity="0.130" /><ellipse cx="1536.0" cy="1663.0" rx="780.6" ry="642.1" fill="url(#extrude220)" opacity="0.115" /><ellipse cx="1536.0" cy="1678.8" rx="788.0" ry="647.4" fill="url(#extrude220)" opacity="0.100" /><ellipse cx="1536.0" cy="1694.7" rx="795.5" ry="652.6" fill="url(#extrude220)" opacity="0.085" /><ellipse cx="1536.0" cy="1710.6" rx="802.9" ry="657.8" fill="url(#extrude220)" opacity="0.070" /><ellipse cx="1536.0" cy="1726.5" rx="810.3" ry="663.0" fill="url(#extrude220)" opacity="0.055" /></g>
  <ellipse cx="1536.0" cy="1726.5" rx="773.2" ry="214.9" fill="#0B1D2D" opacity="0.24" />
  <ellipse cx="1536.0" cy="1536.0" rx="743.4" ry="651.3" fill="url(#orb220)" stroke="#FFFFFF" stroke-opacity="0.42" stroke-width="7" />
  <ellipse cx="1431.9" cy="1392.7" rx="505.5" ry="299.6" fill="#FFFFFF" opacity="0.25" />
  <path d="M 199.4 399.4 C 1013.8 -30.7, 2058.2 768.0, 2872.6 215.0 L 2872.6 983.0 C 2089.0 1228.8, 1013.8 307.2, 199.4 1167.4 Z" fill="url(#glass220)" />
  <rect x="270" y="270" width="2532" height="2532" rx="430" fill="none" stroke="#FFFFFF" stroke-opacity="0.30" stroke-width="5" />
  <rect x="288.4" y="288.4" width="2495.1" height="2495.1" rx="399" fill="none" stroke="#FF6AB3" stroke-opacity="0.35" stroke-width="3" />
  <g filter="url(#soft220)"><rect x="1320" y="2165" width="64" height="2" fill="#FFFFFF" opacity="0.826" /><rect x="1351" y="2134" width="2" height="64" fill="#FFFFFF" opacity="0.826" /><rect x="2588" y="1221" width="60" height="2" fill="#FFFFFF" opacity="0.541" /><rect x="2617" y="1192" width="2" height="60" fill="#FFFFFF" opacity="0.541" /><rect x="1323" y="633" width="26" height="2" fill="#FFFFFF" opacity="0.834" /><rect x="1335" y="621" width="2" height="26" fill="#FFFFFF" opacity="0.834" /><rect x="1709" y="2674" width="54" height="2" fill="#FFFFFF" opacity="0.455" /><rect x="1735" y="2648" width="2" height="54" fill="#FFFFFF" opacity="0.455" /><rect x="989" y="672" width="82" height="2" fill="#FFFFFF" opacity="0.403" /><rect x="1029" y="632" width="2" height="82" fill="#FFFFFF" opacity="0.403" /><rect x="1389" y="1425" width="42" height="2" fill="#FFFFFF" opacity="0.414" /><rect x="1409" y="1405" width="2" height="42" fill="#FFFFFF" opacity="0.414" /><rect x="777" y="1716" width="26" height="2" fill="#FFFFFF" opacity="0.330" /><rect x="789" y="1704" width="2" height="26" fill="#FFFFFF" opacity="0.330" /><rect x="872" y="2702" width="46" height="2" fill="#FFFFFF" opacity="0.789" /><rect x="894" y="2680" width="2" height="46" fill="#FFFFFF" opacity="0.789" /><rect x="1379" y="525" width="56" height="2" fill="#FFFFFF" opacity="0.568" /><rect x="1406" y="498" width="2" height="56" fill="#FFFFFF" opacity="0.568" /><rect x="2387" y="396" width="46" height="2" fill="#FFFFFF" opacity="0.684" /><rect x="2409" y="374" width="2" height="46" fill="#FFFFFF" opacity="0.684" /><rect x="2721" y="1303" width="44" height="2" fill="#FFFFFF" opacity="0.763" /><rect x="2742" y="1282" width="2" height="44" fill="#FFFFFF" opacity="0.763" /><rect x="2604" y="2384" width="26" height="2" fill="#FFFFFF" opacity="0.822" /><rect x="2616" y="2372" width="2" height="26" fill="#FFFFFF" opacity="0.822" /><rect x="1881" y="2047" width="70" height="2" fill="#FFFFFF" opacity="0.820" /><rect x="1915" y="2013" width="2" height="70" fill="#FFFFFF" opacity="0.820" /><rect x="1256" y="1832" width="24" height="2" fill="#FFFFFF" opacity="0.422" /><rect x="1267" y="1821" width="2" height="24" fill="#FFFFFF" opacity="0.422" /><rect x="1054" y="2462" width="36" height="2" fill="#FFFFFF" opacity="0.404" /><rect x="1071" y="2445" width="2" height="36" fill="#FFFFFF" opacity="0.404" /><rect x="1802" y="311" width="30" height="2" fill="#FFFFFF" opacity="0.703" /><rect x="1816" y="297" width="2" height="30" fill="#FFFFFF" opacity="0.703" /><rect x="2075" y="701" width="52" height="2" fill="#FFFFFF" opacity="0.681" /><rect x="2100" y="676" width="2" height="52" fill="#FFFFFF" opacity="0.681" /><rect x="1451" y="2092" width="84" height="2" fill="#FFFFFF" opacity="0.728" /><rect x="1492" y="2051" width="2" height="84" fill="#FFFFFF" opacity="0.728" /><rect x="856" y="1593" width="26" height="2" fill="#FFFFFF" opacity="0.588" /><rect x="868" y="1581" width="2" height="26" fill="#FFFFFF" opacity="0.588" /><rect x="1000" y="2301" width="80" height="2" fill="#FFFFFF" opacity="0.428" /><rect x="1039" y="2262" width="2" height="80" fill="#FFFFFF" opacity="0.428" /><rect x="1128" y="1104" width="32" height="2" fill="#FFFFFF" opacity="0.837" /><rect x="1143" y="1089" width="2" height="32" fill="#FFFFFF" opacity="0.837" /><rect x="1383" y="1690" width="28" height="2" fill="#FFFFFF" opacity="0.364" /><rect x="1396" y="1677" width="2" height="28" fill="#FFFFFF" opacity="0.364" /><rect x="297" y="2438" width="60" height="2" fill="#FFFFFF" opacity="0.807" /><rect x="326" y="2409" width="2" height="60" fill="#FFFFFF" opacity="0.807" /><rect x="2388" y="2661" width="80" height="2" fill="#FFFFFF" opacity="0.423" /><rect x="2427" y="2622" width="2" height="80" fill="#FFFFFF" opacity="0.423" /><rect x="2407" y="810" width="48" height="2" fill="#FFFFFF" opacity="0.418" /><rect x="2430" y="787" width="2" height="48" fill="#FFFFFF" opacity="0.418" /><rect x="1151" y="1676" width="38" height="2" fill="#FFFFFF" opacity="0.742" /><rect x="1169" y="1658" width="2" height="38" fill="#FFFFFF" opacity="0.742" /></g>
  <g opacity="0.52"><path d="M1572 1006 L2148 1582 L1572 2158 L996 1582 Z" fill="none" stroke="#0C2030" stroke-width="90" stroke-linejoin="round" /><circle cx="1572" cy="1582" r="153" fill="#0C2030" /></g>
  <g filter="url(#soft220)"><path d="M1536 960 L2112 1536 L1536 2112 L960 1536 Z" fill="none" stroke="url(#symbol220)" stroke-width="90" stroke-linejoin="round" /><circle cx="1536" cy="1536" r="153" fill="url(#symbol220)" /></g>
  <rect x="138" y="138" width="2796" height="2796" rx="629" fill="#FFFFFF" filter="url(#grain220)" opacity="0.18" />
</svg>
