<svg xmlns="http://www.w3.org/2000/svg" width="3072" height="3072" viewBox="0 0 3072 3072">
  <title>QuartzOS App Icon 081 - aero_mail_081</title>
  <defs><linearGradient id="bg80" x1="0%" y1="0%" x2="100%" y2="100%"><stop offset="0%" stop-color="#FF6AB3" /><stop offset="26%" stop-color="#FFD84D" /><stop offset="56%" stop-color="#36D1FF" /><stop offset="78%" stop-color="#3C8FC1" /><stop offset="100%" stop-color="#1E2E3A" /></linearGradient><radialGradient id="sun80" cx="30%" cy="16%" r="88%"><stop offset="0%" stop-color="#FFFFFF" stop-opacity="0.62" /><stop offset="30%" stop-color="#3B82FF" stop-opacity="0.35" /><stop offset="100%" stop-color="#3B82FF" stop-opacity="0" /></radialGradient><linearGradient id="glass80" x1="0%" y1="0%" x2="0%" y2="100%"><stop offset="0%" stop-color="#FFFFFF" stop-opacity="0.70" /><stop offset="46%" stop-color="#FFFFFF" stop-opacity="0.26" /><stop offset="100%" stop-color="#FFFFFF" stop-opacity="0.00" /></linearGradient><linearGradient id="ribbon80" x1="0%" y1="0%" x2="100%" y2="0%"><stop offset="0%" stop-color="#FF6AB3" stop-opacity="0.18" /><stop offset="34%" stop-color="#FFD84D" stop-opacity="0.72" /><stop offset="66%" stop-color="#36D1FF" stop-opacity="0.72" /><stop offset="100%" stop-color="#3B82FF" stop-opacity="0.18" /></linearGradient><radialGradient id="orb80" cx="34%" cy="27%" r="74%"><stop offset="0%" stop-color="#FFFFFF" stop-opacity="0.84" /><stop offset="30%" stop-color="#FF6AB3" stop-opacity="0.52" /><stop offset="68%" stop-color="#FFD84D" stop-opacity="0.42" /><stop offset="100%" stop-color="#36D1FF" stop-opacity="0.20" /></radialGradient><linearGradient id="extrude80" x1="0%" y1="0%" x2="0%" y2="100%"><stop offset="0%" stop-color="#15283C" stop-opacity="0.45" /><stop offset="100%" stop-color="#08131D" stop-opacity="0.06" /></linearGradient><linearGradient id="symbol80" x1="0%" y1="0%" x2="100%" y2="100%"><stop offset="0%" stop-color="#FFFFFF" /><stop offset="100%" stop-color="#3B82FF" /></linearGradient><filter id="shadow80" x="-40%" y="-40%" width="180%" height="180%"><feDropShadow dx="0" dy="49" stdDeviation="86" flood-color="#06111A" flood-opacity="0.54" /></filter><filter id="soft80" x="-40%" y="-40%" width="180%" height="180%"><feDropShadow dx="0" dy="0" stdDeviation="14" flood-color="#FF6AB3" flood-opacity="0.45" /></filter><filter id="grain80"><feTurbulence type="fractalNoise" baseFrequency="0.673" numOctaves="2" seed="80" /><feColorMatrix type="saturate" values="0" /><feComponentTransfer><feFuncA type="table" tableValues="0 0.09" /></feComponentTransfer></filter></defs>
  <rect x="138" y="138" width="2796" height="2796" rx="629" fill="url(#bg80)" filter="url(#shadow80)" />
  <rect x="138" y="138" width="2796" height="2796" rx="629" fill="url(#sun80)" />
  <g><circle cx="729" cy="2283" r="156" fill="#FFFFFF" opacity="0.110" /><circle cx="958" cy="1016" r="97" fill="#FFFFFF" opacity="0.214" /><circle cx="490" cy="1311" r="119" fill="#FFFFFF" opacity="0.220" /><circle cx="2497" cy="1064" r="125" fill="#FFFFFF" opacity="0.093" /><circle cx="1710" cy="2154" r="139" fill="#FFFFFF" opacity="0.215" /><circle cx="959" cy="2438" r="101" fill="#FFFFFF" opacity="0.197" /><circle cx="694" cy="2367" r="127" fill="#FFFFFF" opacity="0.145" /><circle cx="639" cy="2138" r="43" fill="#FFFFFF" opacity="0.088" /><circle cx="1945" cy="1850" r="140" fill="#FFFFFF" opacity="0.138" /><circle cx="1115" cy="964" r="159" fill="#FFFFFF" opacity="0.219" /><circle cx="2590" cy="1144" r="107" fill="#FFFFFF" opacity="0.076" /><circle cx="427" cy="387" r="121" fill="#FFFFFF" opacity="0.097" /><circle cx="1465" cy="487" r="59" fill="#FFFFFF" opacity="0.134" /><circle cx="1903" cy="2578" r="64" fill="#FFFFFF" opacity="0.209" /><circle cx="2517" cy="2004" r="113" fill="#FFFFFF" opacity="0.200" /><circle cx="1290" cy="1593" r="114" fill="#FFFFFF" opacity="0.119" /><circle cx="832" cy="674" r="101" fill="#FFFFFF" opacity="0.172" /><circle cx="869" cy="1670" r="54" fill="#FFFFFF" opacity="0.139" /><circle cx="2671" cy="2397" r="69" fill="#FFFFFF" opacity="0.215" /><circle cx="1549" cy="323" r="98" fill="#FFFFFF" opacity="0.087" /><circle cx="2452" cy="2075" r="39" fill="#FFFFFF" opacity="0.082" /><circle cx="937" cy="952" r="77" fill="#FFFFFF" opacity="0.167" /><circle cx="743" cy="792" r="154" fill="#FFFFFF" opacity="0.205" /><circle cx="2061" cy="2232" r="111" fill="#FFFFFF" opacity="0.197" /><circle cx="2550" cy="2156" r="88" fill="#FFFFFF" opacity="0.235" /><circle cx="2392" cy="2625" r="50" fill="#FFFFFF" opacity="0.066" /><circle cx="576" cy="2224" r="67" fill="#FFFFFF" opacity="0.239" /><circle cx="530" cy="860" r="39" fill="#FFFFFF" opacity="0.151" /></g>
  <g><path d="M 292.7 625.7 L 2704.4 349.2 L 2704.4 774.0 L 292.7 1050.5 Z" fill="#FFFFFF" opacity="0.182" /><path d="M 282.8 892.2 L 2718.0 615.7 L 2718.0 1082.4 L 282.8 1358.9 Z" fill="#FFFFFF" opacity="0.211" /><path d="M 288.3 1171.1 L 2867.8 894.7 L 2867.8 1380.1 L 288.3 1656.6 Z" fill="#FFFFFF" opacity="0.179" /><path d="M 327.2 1425.6 L 2739.5 1149.1 L 2739.5 1579.8 L 327.2 1856.2 Z" fill="#FFFFFF" opacity="0.086" /><path d="M 352.7 1622.0 L 2825.3 1345.5 L 2825.3 1832.0 L 352.7 2108.5 Z" fill="#FFFFFF" opacity="0.133" /><path d="M 343.2 1945.4 L 2737.2 1668.9 L 2737.2 2152.4 L 343.2 2428.9 Z" fill="#FFFFFF" opacity="0.205" /><path d="M 382.8 2148.3 L 2699.1 1871.8 L 2699.1 2353.4 L 382.8 2629.9 Z" fill="#FFFFFF" opacity="0.152" /><path d="M 234.4 2474.9 L 2823.4 2198.4 L 2823.4 2622.3 L 234.4 2898.7 Z" fill="#FFFFFF" opacity="0.132" /></g>
  <g filter="url(#soft80)"><g transform="rotate(-20.58 1536.0 1536.0)"><path d="M-368.6 566.9 C -225.8 601.6, -25.8 522.6, 107.5 596.5 C 250.4 585.3, 450.4 550.1, 583.7 554.0 C 726.5 549.0, 926.5 571.7, 1059.8 519.3 C 1202.7 513.6, 1402.7 609.4, 1536.0 513.5 C 1678.8 498.7, 1878.8 612.8, 2012.2 540.0 C 2155.0 548.2, 2355.0 594.3, 2488.3 582.9 C 2631.2 587.1, 2831.2 548.6, 2964.5 616.0 C 3107.3 606.8, 3307.3 510.0, 3440.6 619.3" fill="none" stroke="url(#ribbon80)" stroke-width="58.4" stroke-linecap="round" stroke-opacity="0.120" /></g><g transform="rotate(-20.00 1536.0 1536.0)"><path d="M-368.6 688.6 C -241.7 765.7, -63.9 627.2, 54.6 728.2 C 181.6 725.2, 359.4 665.0, 477.9 681.6 C 604.8 679.6, 782.6 693.0, 901.1 639.3 C 1028.1 642.5, 1205.9 739.1, 1324.4 626.9 C 1451.3 603.6, 1629.1 741.8, 1747.6 651.9 C 1874.6 649.2, 2052.4 728.3, 2170.9 699.2 C 2297.9 699.0, 2475.6 677.2, 2594.1 740.1 C 2721.1 726.3, 2898.9 645.8, 3017.4 749.7 C 3144.4 764.1, 3322.1 653.4, 3440.6 722.3" fill="none" stroke="url(#ribbon80)" stroke-width="54.4" stroke-linecap="round" stroke-opacity="0.146" /></g><g transform="rotate(-19.42 1536.0 1536.0)"><path d="M-368.6 855.7 C -254.4 900.4, -94.4 836.8, 12.3 925.2 C 126.6 945.8, 286.6 832.3, 393.2 903.4 C 507.5 897.2, 667.5 821.5, 774.1 852.7 C 888.4 852.6, 1048.4 857.3, 1155.1 803.9 C 1269.4 800.9, 1429.3 895.5, 1536.0 786.5 C 1650.3 771.3, 1810.3 893.9, 1916.9 811.1 C 2031.2 810.2, 2191.2 901.3, 2297.9 862.8 C 2412.1 865.4, 2572.1 853.2, 2678.8 910.2 C 2793.1 912.4, 2953.1 819.8, 3059.7 924.6 C 3174.0 909.7, 3334.0 817.5, 3440.6 897.2" fill="none" stroke="url(#ribbon80)" stroke-width="50.4" stroke-linecap="round" stroke-opacity="0.172" /></g><g transform="rotate(-18.84 1536.0 1536.0)"><path d="M-368.6 1089.8 C -264.8 1115.3, -119.3 1052.6, -22.3 1064.4 C 81.5 1062.4, 227.0 1098.0, 324.0 1020.3 C 427.8 1004.4, 573.3 1150.9, 670.3 1018.4 C 774.1 1009.6, 919.6 1131.7, 1016.6 1059.8 C 1120.4 1048.2, 1265.9 1115.6, 1362.9 1119.4 C 1466.7 1112.0, 1612.2 1056.8, 1709.1 1161.0 C 1813.0 1134.9, 1958.5 1014.1, 2055.4 1159.4 C 2159.3 1164.7, 2304.8 1017.7, 2401.7 1115.6 C 2505.6 1112.2, 2651.1 1064.5, 2748.0 1056.1 C 2851.9 1047.7, 2997.4 1101.9, 3094.3 1017.1 C 3198.2 1027.3, 3343.7 1121.2, 3440.6 1022.1" fill="none" stroke="url(#ribbon80)" stroke-width="46.4" stroke-linecap="round" stroke-opacity="0.198" /></g><g transform="rotate(-18.26 1536.0 1536.0)"><path d="M-368.6 1267.5 C -273.4 1366.7, -140.1 1200.1, -51.2 1345.1 C 44.0 1317.7, 177.4 1217.6, 266.2 1299.3 C 361.5 1291.5, 494.8 1230.0, 583.7 1234.2 C 678.9 1221.0, 812.2 1284.5, 901.1 1189.3 C 996.4 1220.0, 1129.7 1328.0, 1218.6 1191.9 C 1313.8 1219.9, 1447.1 1290.3, 1536.0 1240.4 C 1631.2 1234.9, 1764.6 1299.2, 1853.4 1305.3 C 1948.7 1296.5, 2082.0 1255.3, 2170.9 1347.3 C 2266.1 1372.4, 2399.4 1172.3, 2488.3 1340.9 C 2583.6 1318.4, 2716.9 1192.6, 2805.8 1290.0 C 2901.0 1294.3, 3034.3 1252.2, 3123.2 1225.5 C 3218.4 1223.3, 3351.8 1303.4, 3440.6 1186.4" fill="none" stroke="url(#ribbon80)" stroke-width="42.4" stroke-linecap="round" stroke-opacity="0.224" /></g><g transform="rotate(-17.68 1536.0 1536.0)"><path d="M-368.6 1452.7 C -225.8 1532.4, -25.8 1386.0, 107.5 1543.1 C 250.4 1542.2, 450.4 1381.8, 583.7 1520.1 C 726.5 1514.6, 926.5 1380.4, 1059.8 1456.2 C 1202.7 1456.7, 1402.7 1451.5, 1536.0 1390.2 C 1678.8 1373.0, 1878.8 1494.1, 2012.2 1362.1 C 2155.0 1349.8, 2355.0 1559.5, 2488.3 1389.0 C 2631.2 1389.4, 2831.2 1489.5, 2964.5 1454.5 C 3107.3 1454.8, 3307.3 1451.7, 3440.6 1519.0" fill="none" stroke="url(#ribbon80)" stroke-width="38.4" stroke-linecap="round" stroke-opacity="0.250" /></g><g transform="rotate(-17.10 1536.0 1536.0)"><path d="M-368.6 1672.2 C -241.7 1548.4, -63.9 1715.5, 54.6 1603.7 C 181.6 1623.9, 359.4 1700.9, 477.9 1674.5 C 604.8 1673.8, 782.6 1671.0, 901.1 1743.8 C 1028.1 1746.9, 1205.9 1602.3, 1324.4 1769.8 C 1451.3 1792.2, 1629.1 1638.7, 1747.6 1736.5 C 1874.6 1736.8, 2052.4 1645.4, 2170.9 1664.3 C 2297.9 1662.0, 2475.6 1675.2, 2594.1 1596.8 C 2721.1 1581.1, 2898.9 1709.3, 3017.4 1575.1 C 3144.4 1554.0, 3322.1 1745.9, 3440.6 1612.3" fill="none" stroke="url(#ribbon80)" stroke-width="34.4" stroke-linecap="round" stroke-opacity="0.276" /></g><g transform="rotate(-16.52 1536.0 1536.0)"><path d="M-368.6 1863.8 C -254.4 1793.2, -94.4 1974.2, 12.3 1814.0 C 126.6 1805.8, 286.6 1915.3, 393.2 1895.2 C 507.5 1894.3, 667.5 1847.7, 774.1 1957.4 C 888.4 1933.4, 1048.4 1799.5, 1155.1 1962.8 C 1269.4 1964.9, 1429.3 1774.4, 1536.0 1908.3 C 1650.3 1896.0, 1810.3 1850.4, 1916.9 1826.7 C 2031.2 1818.5, 2191.2 1882.9, 2297.9 1767.7 C 2412.1 1792.7, 2572.1 1923.6, 2678.8 1767.0 C 2793.1 1781.2, 2953.1 1910.8, 3059.7 1825.0 C 3174.0 1833.9, 3334.0 1910.3, 3440.6 1906.6" fill="none" stroke="url(#ribbon80)" stroke-width="30.4" stroke-linecap="round" stroke-opacity="0.302" /></g><g transform="rotate(-15.94 1536.0 1536.0)"><path d="M-368.6 2068.4 C -264.8 2008.3, -119.3 2101.1, -22.3 2075.7 C 81.5 2077.0, 227.0 2062.3, 324.0 2153.5 C 427.8 2177.8, 573.3 1982.8, 670.3 2179.7 C 774.1 2192.2, 919.6 1983.4, 1016.6 2138.4 C 1120.4 2154.5, 1265.9 1986.7, 1362.9 2054.6 C 1466.7 2059.4, 1612.2 2077.9, 1709.1 1979.2 C 1813.0 1959.7, 1958.5 2114.2, 2055.4 1957.9 C 2159.3 1927.8, 2304.8 2164.0, 2401.7 2003.6 C 2505.6 1981.2, 2651.1 2140.0, 2748.0 2088.6 C 2851.9 2089.6, 2997.4 2053.1, 3094.3 2161.4 C 3198.2 2165.4, 3343.7 2018.2, 3440.6 2177.7" fill="none" stroke="url(#ribbon80)" stroke-width="26.4" stroke-linecap="round" stroke-opacity="0.328" /></g><g transform="rotate(-15.36 1536.0 1536.0)"><path d="M-368.6 2235.6 C -273.4 2185.1, -140.1 2283.1, -51.2 2118.1 C 44.0 2151.0, 177.4 2279.0, 266.2 2140.4 C 361.5 2167.1, 494.8 2267.6, 583.7 2220.4 C 678.9 2219.6, 812.2 2253.5, 901.1 2309.6 C 996.4 2292.8, 1129.7 2148.0, 1218.6 2353.9 C 1313.8 2396.7, 1447.1 2126.2, 1536.0 2326.4 C 1631.2 2339.1, 1764.6 2186.0, 1853.4 2243.8 C 1948.7 2243.9, 2082.0 2230.2, 2170.9 2156.2 C 2266.1 2174.9, 2399.4 2285.3, 2488.3 2116.8 C 2583.6 2104.8, 2716.9 2334.2, 2805.8 2149.4 C 2901.0 2148.8, 3034.3 2305.0, 3123.2 2234.2 C 3218.4 2234.2, 3351.8 2237.0, 3440.6 2319.9" fill="none" stroke="url(#ribbon80)" stroke-width="22.4" stroke-linecap="round" stroke-opacity="0.354" /></g><g transform="rotate(-14.78 1536.0 1536.0)"><path d="M-368.6 2420.9 C -225.8 2411.6, -25.8 2429.1, 107.5 2324.4 C 250.4 2308.7, 450.4 2519.5, 583.7 2295.7 C 726.5 2250.7, 926.5 2461.0, 1059.8 2342.9 C 1202.7 2372.4, 1402.7 2453.3, 1536.0 2437.5 C 1678.8 2439.1, 1878.8 2402.8, 2012.2 2522.1 C 2155.0 2540.2, 2355.0 2331.1, 2488.3 2545.3 C 2631.2 2517.5, 2831.2 2350.1, 2964.5 2493.1 C 3107.3 2486.8, 3307.3 2371.0, 3440.6 2397.1" fill="none" stroke="url(#ribbon80)" stroke-width="18.4" stroke-linecap="round" stroke-opacity="0.380" /></g><g transform="rotate(-14.20 1536.0 1536.0)"><path d="M-368.6 2631.8 C -241.7 2565.0, -63.9 2657.0, 54.6 2502.5 C 181.6 2477.3, 359.4 2714.4, 477.9 2519.3 C 604.8 2533.6, 782.6 2665.7, 901.1 2604.4 C 1028.1 2612.5, 1205.9 2662.4, 1324.4 2706.1 C 1451.3 2717.5, 1629.1 2546.7, 1747.6 2762.7 C 1874.6 2779.6, 2052.4 2511.7, 2170.9 2739.9 C 2297.9 2698.2, 2475.6 2540.2, 2594.1 2651.5 C 2721.1 2656.5, 2898.9 2624.2, 3017.4 2551.1 C 3144.4 2548.9, 3322.1 2702.4, 3440.6 2499.7" fill="none" stroke="url(#ribbon80)" stroke-width="14.4" stroke-linecap="round" stroke-opacity="0.406" /></g></g>
  <g><ellipse cx="1536.0" cy="1551.9" rx="728.6" ry="605.7" fill="url(#extrude80)" opacity="0.220" /><ellipse cx="1536.0" cy="1567.7" rx="736.0" ry="610.9" fill="url(#extrude80)" opacity="0.205" /><ellipse cx="1536.0" cy="1583.6" rx="743.4" ry="616.1" fill="url(#extrude80)" opacity="0.190" /><ellipse cx="1536.0" cy="1599.5" rx="750.9" ry="621.3" fill="url(#extrude80)" opacity="0.175" /><ellipse cx="1536.0" cy="1615.4" rx="758.3" ry="626.5" fill="url(#extrude80)" opacity="0.160" /><ellipse cx="1536.0" cy="1631.2" rx="765.7" ry="631.7" fill="url(#extrude80)" opacity="0.145" /><ellipse cx="1536.0" cy="1647.1" rx="773.2" ry="636.9" fill="url(#extrude80)" opacity="0.130" /><ellipse cx="1536.0" cy="1663.0" rx="780.6" ry="642.1" fill="url(#extrude80)" opacity="0.115" /><ellipse cx="1536.0" cy="1678.8" rx="788.0" ry="647.4" fill="url(#extrude80)" opacity="0.100" /><ellipse cx="1536.0" cy="1694.7" rx="795.5" ry="652.6" fill="url(#extrude80)" opacity="0.085" /><ellipse cx="1536.0" cy="1710.6" rx="802.9" ry="657.8" fill="url(#extrude80)" opacity="0.070" /><ellipse cx="1536.0" cy="1726.5" rx="810.3" ry="663.0" fill="url(#extrude80)" opacity="0.055" /></g>
  <ellipse cx="1536.0" cy="1726.5" rx="773.2" ry="214.9" fill="#0B1D2D" opacity="0.24" />
  <ellipse cx="1536.0" cy="1536.0" rx="743.4" ry="651.3" fill="url(#orb80)" stroke="#FFFFFF" stroke-opacity="0.42" stroke-width="7" />
  <ellipse cx="1431.9" cy="1392.7" rx="505.5" ry="299.6" fill="#FFFFFF" opacity="0.25" />
  <path d="M 199.4 399.4 C 1013.8 -30.7, 2058.2 768.0, 2872.6 215.0 L 2872.6 983.0 C 2089.0 1228.8, 1013.8 307.2, 199.4 1167.4 Z" fill="url(#glass80)" />
  <rect x="270" y="270" width="2532" height="2532" rx="430" fill="none" stroke="#FFFFFF" stroke-opacity="0.30" stroke-width="5" />
  <rect x="288.4" y="288.4" width="2495.1" height="2495.1" rx="399" fill="none" stroke="#FF6AB3" stroke-opacity="0.35" stroke-width="3" />
  <g filter="url(#soft80)"><rect x="1317" y="1977" width="68" height="2" fill="#FFFFFF" opacity="0.406" /><rect x="1350" y="1944" width="2" height="68" fill="#FFFFFF" opacity="0.406" /><rect x="2491" y="826" width="62" height="2" fill="#FFFFFF" opacity="0.778" /><rect x="2521" y="796" width="2" height="62" fill="#FFFFFF" opacity="0.778" /><rect x="543" y="1920" width="44" height="2" fill="#FFFFFF" opacity="0.769" /><rect x="564" y="1899" width="2" height="44" fill="#FFFFFF" opacity="0.769" /><rect x="1377" y="1771" width="46" height="2" fill="#FFFFFF" opacity="0.503" /><rect x="1399" y="1749" width="2" height="46" fill="#FFFFFF" opacity="0.503" /><rect x="1952" y="462" width="84" height="2" fill="#FFFFFF" opacity="0.799" /><rect x="1993" y="421" width="2" height="84" fill="#FFFFFF" opacity="0.799" /><rect x="512" y="1688" width="50" height="2" fill="#FFFFFF" opacity="0.733" /><rect x="536" y="1664" width="2" height="50" fill="#FFFFFF" opacity="0.733" /><rect x="2527" y="1575" width="84" height="2" fill="#FFFFFF" opacity="0.314" /><rect x="2568" y="1534" width="2" height="84" fill="#FFFFFF" opacity="0.314" /><rect x="1784" y="296" width="74" height="2" fill="#FFFFFF" opacity="0.619" /><rect x="1820" y="260" width="2" height="74" fill="#FFFFFF" opacity="0.619" /><rect x="824" y="656" width="44" height="2" fill="#FFFFFF" opacity="0.529" /><rect x="845" y="635" width="2" height="44" fill="#FFFFFF" opacity="0.529" /><rect x="1059" y="1217" width="80" height="2" fill="#FFFFFF" opacity="0.845" /><rect x="1098" y="1178" width="2" height="80" fill="#FFFFFF" opacity="0.845" /><rect x="1060" y="2282" width="38" height="2" fill="#FFFFFF" opacity="0.343" /><rect x="1078" y="2264" width="2" height="38" fill="#FFFFFF" opacity="0.343" /><rect x="1448" y="840" width="40" height="2" fill="#FFFFFF" opacity="0.339" /><rect x="1467" y="821" width="2" height="40" fill="#FFFFFF" opacity="0.339" /><rect x="1680" y="1595" width="82" height="2" fill="#FFFFFF" opacity="0.365" /><rect x="1720" y="1555" width="2" height="82" fill="#FFFFFF" opacity="0.365" /><rect x="883" y="1281" width="36" height="2" fill="#FFFFFF" opacity="0.735" /><rect x="900" y="1264" width="2" height="36" fill="#FFFFFF" opacity="0.735" /><rect x="1046" y="2376" width="42" height="2" fill="#FFFFFF" opacity="0.367" /><rect x="1066" y="2356" width="2" height="42" fill="#FFFFFF" opacity="0.367" /><rect x="2055" y="2074" width="30" height="2" fill="#FFFFFF" opacity="0.402" /><rect x="2069" y="2060" width="2" height="30" fill="#FFFFFF" opacity="0.402" /><rect x="2432" y="1269" width="24" height="2" fill="#FFFFFF" opacity="0.629" /><rect x="2443" y="1258" width="2" height="24" fill="#FFFFFF" opacity="0.629" /><rect x="1509" y="857" width="82" height="2" fill="#FFFFFF" opacity="0.620" /><rect x="1549" y="817" width="2" height="82" fill="#FFFFFF" opacity="0.620" /><rect x="1244" y="1123" width="70" height="2" fill="#FFFFFF" opacity="0.565" /><rect x="1278" y="1089" width="2" height="70" fill="#FFFFFF" opacity="0.565" /><rect x="1175" y="488" width="80" height="2" fill="#FFFFFF" opacity="0.784" /><rect x="1214" y="449" width="2" height="80" fill="#FFFFFF" opacity="0.784" /><rect x="1917" y="569" width="36" height="2" fill="#FFFFFF" opacity="0.681" /><rect x="1934" y="552" width="2" height="36" fill="#FFFFFF" opacity="0.681" /><rect x="1502" y="2488" width="68" height="2" fill="#FFFFFF" opacity="0.794" /><rect x="1535" y="2455" width="2" height="68" fill="#FFFFFF" opacity="0.794" /><rect x="1286" y="2648" width="68" height="2" fill="#FFFFFF" opacity="0.723" /><rect x="1319" y="2615" width="2" height="68" fill="#FFFFFF" opacity="0.723" /><rect x="1916" y="1881" width="76" height="2" fill="#FFFFFF" opacity="0.730" /><rect x="1953" y="1844" width="2" height="76" fill="#FFFFFF" opacity="0.730" /><rect x="2212" y="2176" width="84" height="2" fill="#FFFFFF" opacity="0.604" /><rect x="2253" y="2135" width="2" height="84" fill="#FFFFFF" opacity="0.604" /><rect x="773" y="1102" width="46" height="2" fill="#FFFFFF" opacity="0.562" /><rect x="795" y="1080" width="2" height="46" fill="#FFFFFF" opacity="0.562" /></g>
  <g opacity="0.52"><path d="M1023 1326 L1572 1070 L2121 1326 L2121 2043 L1023 2043 Z" fill="none" stroke="#0C2030" stroke-width="90" stroke-linejoin="round" /><line x1="1572" y1="1070" x2="1572" y2="2043" stroke="#0C2030" stroke-width="88" /></g>
  <g filter="url(#soft80)"><path d="M987 1280 L1536 1024 L2085 1280 L2085 1997 L987 1997 Z" fill="none" stroke="url(#symbol80)" stroke-width="90" stroke-linejoin="round" /><line x1="1536" y1="1024" x2="1536" y2="1997" stroke="url(#symbol80)" stroke-width="88" /></g>
  <rect x="138" y="138" width="2796" height="2796" rx="629" fill="#FFFFFF" filter="url(#grain80)" opacity="0.18" />
</svg>
