<svg xmlns="http://www.w3.org/2000/svg" width="3072" height="3072" viewBox="0 0 3072 3072">
  <title>QuartzOS App Icon 061 - aero_player_061</title>
  <defs><linearGradient id="bg60" x1="0%" y1="0%" x2="100%" y2="100%"><stop offset="0%" stop-color="#FF9F43" /><stop offset="26%" stop-color="#53E3A6" /><stop offset="56%" stop-color="#3B82FF" /><stop offset="78%" stop-color="#4E8FC5" /><stop offset="100%" stop-color="#10243A" /></linearGradient><radialGradient id="sun60" cx="28%" cy="14%" r="88%"><stop offset="0%" stop-color="#FFFFFF" stop-opacity="0.62" /><stop offset="30%" stop-color="#8A5CFF" stop-opacity="0.35" /><stop offset="100%" stop-color="#8A5CFF" stop-opacity="0" /></radialGradient><linearGradient id="glass60" x1="0%" y1="0%" x2="0%" y2="100%"><stop offset="0%" stop-color="#FFFFFF" stop-opacity="0.70" /><stop offset="46%" stop-color="#FFFFFF" stop-opacity="0.26" /><stop offset="100%" stop-color="#FFFFFF" stop-opacity="0.00" /></linearGradient><linearGradient id="ribbon60" x1="0%" y1="0%" x2="100%" y2="0%"><stop offset="0%" stop-color="#FF9F43" stop-opacity="0.18" /><stop offset="34%" stop-color="#53E3A6" stop-opacity="0.72" /><stop offset="66%" stop-color="#3B82FF" stop-opacity="0.72" /><stop offset="100%" stop-color="#8A5CFF" stop-opacity="0.18" /></linearGradient><radialGradient id="orb60" cx="34%" cy="27%" r="74%"><stop offset="0%" stop-color="#FFFFFF" stop-opacity="0.84" /><stop offset="30%" stop-color="#FF9F43" stop-opacity="0.52" /><stop offset="68%" stop-color="#53E3A6" stop-opacity="0.42" /><stop offset="100%" stop-color="#3B82FF" stop-opacity="0.20" /></radialGradient><linearGradient id="extrude60" x1="0%" y1="0%" x2="0%" y2="100%"><stop offset="0%" stop-color="#15283C" stop-opacity="0.45" /><stop offset="100%" stop-color="#08131D" stop-opacity="0.06" /></linearGradient><linearGradient id="symbol60" x1="0%" y1="0%" x2="100%" y2="100%"><stop offset="0%" stop-color="#FFFFFF" /><stop offset="100%" stop-color="#8A5CFF" /></linearGradient><filter id="shadow60" x="-40%" y="-40%" width="180%" height="180%"><feDropShadow dx="0" dy="49" stdDeviation="86" flood-color="#06111A" flood-opacity="0.54" /></filter><filter id="soft60" x="-40%" y="-40%" width="180%" height="180%"><feDropShadow dx="0" dy="0" stdDeviation="14" flood-color="#FF9F43" flood-opacity="0.45" /></filter><filter id="grain60"><feTurbulence type="fractalNoise" baseFrequency="0.916" numOctaves="2" seed="60" /><feColorMatrix type="saturate" values="0" /><feComponentTransfer><feFuncA type="table" tableValues="0 0.09" /></feComponentTransfer></filter></defs>
  <rect x="138" y="138" width="2796" height="2796" rx="629" fill="url(#bg60)" filter="url(#shadow60)" />
  <rect x="138" y="138" width="2796" height="2796" rx="629" fill="url(#sun60)" />
  <g><circle cx="1425" cy="734" r="62" fill="#FFFFFF" opacity="0.091" /><circle cx="1856" cy="1324" r="128" fill="#FFFFFF" opacity="0.147" /><circle cx="1702" cy="2063" r="97" fill="#FFFFFF" opacity="0.070" /><circle cx="1074" cy="308" r="61" fill="#FFFFFF" opacity="0.118" /><circle cx="2461" cy="1893" r="104" fill="#FFFFFF" opacity="0.211" /><circle cx="560" cy="665" r="79" fill="#FFFFFF" opacity="0.209" /><circle cx="1377" cy="2402" r="37" fill="#FFFFFF" opacity="0.188" /><circle cx="1778" cy="1344" r="87" fill="#FFFFFF" opacity="0.136" /><circle cx="1303" cy="2671" r="115" fill="#FFFFFF" opacity="0.166" /><circle cx="1928" cy="364" r="40" fill="#FFFFFF" opacity="0.226" /><circle cx="1056" cy="2598" r="118" fill="#FFFFFF" opacity="0.130" /><circle cx="2307" cy="898" r="71" fill="#FFFFFF" opacity="0.236" /><circle cx="1506" cy="382" r="39" fill="#FFFFFF" opacity="0.084" /><circle cx="1636" cy="1339" r="131" fill="#FFFFFF" opacity="0.110" /><circle cx="1315" cy="327" r="129" fill="#FFFFFF" opacity="0.208" /><circle cx="2378" cy="491" r="135" fill="#FFFFFF" opacity="0.178" /><circle cx="990" cy="2237" r="91" fill="#FFFFFF" opacity="0.088" /><circle cx="2020" cy="1111" r="111" fill="#FFFFFF" opacity="0.227" /><circle cx="1250" cy="1140" r="128" fill="#FFFFFF" opacity="0.073" /><circle cx="2019" cy="2219" r="110" fill="#FFFFFF" opacity="0.163" /><circle cx="2695" cy="2133" r="147" fill="#FFFFFF" opacity="0.073" /><circle cx="1714" cy="1744" r="127" fill="#FFFFFF" opacity="0.104" /><circle cx="2134" cy="2439" r="87" fill="#FFFFFF" opacity="0.129" /><circle cx="553" cy="2311" r="153" fill="#FFFFFF" opacity="0.071" /><circle cx="1884" cy="563" r="122" fill="#FFFFFF" opacity="0.222" /><circle cx="1637" cy="1009" r="105" fill="#FFFFFF" opacity="0.195" /><circle cx="1719" cy="1411" r="142" fill="#FFFFFF" opacity="0.237" /><circle cx="2572" cy="1465" r="143" fill="#FFFFFF" opacity="0.158" /></g>
  <g><path d="M 175.4 611.5 L 2803.7 335.1 L 2803.7 755.1 L 175.4 1031.6 Z" fill="#FFFFFF" opacity="0.167" /><path d="M 326.2 829.9 L 2912.1 553.4 L 2912.1 1046.2 L 326.2 1322.7 Z" fill="#FFFFFF" opacity="0.098" /><path d="M 364.7 1146.9 L 2701.4 870.4 L 2701.4 1304.6 L 364.7 1581.1 Z" fill="#FFFFFF" opacity="0.110" /><path d="M 279.4 1378.8 L 2787.2 1102.3 L 2787.2 1556.8 L 279.4 1833.3 Z" fill="#FFFFFF" opacity="0.089" /><path d="M 186.2 1668.6 L 2737.1 1392.1 L 2737.1 1818.3 L 186.2 2094.7 Z" fill="#FFFFFF" opacity="0.168" /><path d="M 308.1 1913.2 L 2855.9 1636.8 L 2855.9 2109.8 L 308.1 2386.3 Z" fill="#FFFFFF" opacity="0.234" /><path d="M 215.4 2188.0 L 2762.3 1911.5 L 2762.3 2363.5 L 215.4 2640.0 Z" fill="#FFFFFF" opacity="0.108" /><path d="M 254.4 2450.1 L 2758.6 2173.6 L 2758.6 2628.4 L 254.4 2904.9 Z" fill="#FFFFFF" opacity="0.093" /></g>
  <g filter="url(#soft60)"><g transform="rotate(-18.05 1536.0 1536.0)"><path d="M-368.6 564.4 C -225.8 560.5, -25.8 568.5, 107.5 522.1 C 250.4 522.0, 450.4 601.1, 583.7 509.3 C 726.5 489.1, 926.5 596.4, 1059.8 529.9 C 1202.7 531.8, 1402.7 600.8, 1536.0 571.4 C 1678.8 568.9, 1878.8 556.2, 2012.2 608.6 C 2155.0 609.5, 2355.0 541.2, 2488.3 619.0 C 2631.2 603.6, 2831.2 507.5, 2964.5 596.2 C 3107.3 607.8, 3307.3 546.4, 3440.6 554.1" fill="none" stroke="url(#ribbon60)" stroke-width="58.4" stroke-linecap="round" stroke-opacity="0.120" /></g><g transform="rotate(-17.47 1536.0 1536.0)"><path d="M-368.6 725.7 C -241.7 798.6, -63.9 653.9, 54.6 771.2 C 181.6 757.0, 359.4 694.5, 477.9 726.8 C 604.8 726.5, 782.6 725.2, 901.1 681.7 C 1028.1 680.8, 1205.9 774.7, 1324.4 663.4 C 1451.3 660.5, 1629.1 797.3, 1747.6 682.9 C 1874.6 673.2, 2052.4 741.3, 2170.9 728.3 C 2297.9 729.0, 2475.6 723.1, 2594.1 772.3 C 2721.1 761.2, 2898.9 690.1, 3017.4 788.0 C 3144.4 807.0, 3322.1 698.3, 3440.6 765.9" fill="none" stroke="url(#ribbon60)" stroke-width="54.4" stroke-linecap="round" stroke-opacity="0.146" /></g><g transform="rotate(-16.89 1536.0 1536.0)"><path d="M-368.6 924.7 C -254.4 839.3, -94.4 1004.6, 12.3 874.9 C 126.6 873.7, 286.6 954.2, 393.2 924.7 C 507.5 924.7, 667.5 924.7, 774.1 974.5 C 888.4 974.4, 1048.4 872.1, 1155.1 994.1 C 1269.4 984.9, 1429.3 875.4, 1536.0 971.6 C 1650.3 974.0, 1810.3 909.4, 1916.9 920.6 C 2031.2 922.1, 2191.2 925.9, 2297.9 872.1 C 2412.1 879.2, 2572.1 985.9, 2678.8 855.5 C 2793.1 845.5, 2953.1 954.1, 3059.7 880.9 C 3174.0 868.8, 3334.0 946.4, 3440.6 932.8" fill="none" stroke="url(#ribbon60)" stroke-width="50.4" stroke-linecap="round" stroke-opacity="0.172" /></g><g transform="rotate(-16.31 1536.0 1536.0)"><path d="M-368.6 1046.8 C -264.8 1085.8, -119.3 1024.3, -22.3 1022.5 C 81.5 1024.2, 227.0 1067.2, 324.0 977.8 C 427.8 976.9, 573.3 1086.2, 670.3 975.0 C 774.1 985.5, 919.6 1094.4, 1016.6 1015.7 C 1120.4 1008.0, 1265.9 1083.9, 1362.9 1075.2 C 1466.7 1070.5, 1612.2 1015.0, 1709.1 1117.5 C 1813.0 1107.6, 1958.5 1022.8, 2055.4 1116.9 C 2159.3 1131.1, 2304.8 1021.7, 2401.7 1073.7 C 2505.6 1067.6, 2651.1 1016.5, 2748.0 1014.2 C 2851.9 1016.0, 2997.4 1066.3, 3094.3 974.4 C 3198.2 981.5, 3343.7 1109.2, 3440.6 978.5" fill="none" stroke="url(#ribbon60)" stroke-width="46.4" stroke-linecap="round" stroke-opacity="0.198" /></g><g transform="rotate(-15.73 1536.0 1536.0)"><path d="M-368.6 1250.2 C -273.4 1245.6, -140.1 1255.1, -51.2 1186.1 C 44.0 1176.4, 177.4 1280.3, 266.2 1167.1 C 361.5 1152.3, 494.8 1298.0, 583.7 1198.6 C 678.9 1201.1, 812.2 1286.2, 901.1 1261.4 C 996.4 1263.1, 1129.7 1244.5, 1218.6 1317.4 C 1313.8 1316.2, 1447.1 1189.1, 1536.0 1332.7 C 1631.2 1350.5, 1764.6 1180.3, 1853.4 1298.0 C 1948.7 1302.2, 2082.0 1202.5, 2170.9 1234.3 C 2266.1 1228.2, 2399.4 1263.8, 2488.3 1180.3 C 2583.6 1163.0, 2716.9 1325.5, 2805.8 1168.7 C 2901.0 1169.9, 3034.3 1282.7, 3123.2 1206.6 C 3218.4 1208.7, 3351.8 1280.0, 3440.6 1270.9" fill="none" stroke="url(#ribbon60)" stroke-width="42.4" stroke-linecap="round" stroke-opacity="0.224" /></g><g transform="rotate(-15.15 1536.0 1536.0)"><path d="M-368.6 1531.1 C -225.8 1634.7, -25.8 1452.4, 107.5 1588.9 C 250.4 1585.1, 450.4 1475.0, 583.7 1521.3 C 726.5 1518.2, 926.5 1534.2, 1059.8 1459.6 C 1202.7 1438.4, 1402.7 1562.6, 1536.0 1441.3 C 1678.8 1420.4, 1878.8 1623.3, 2012.2 1477.5 C 2155.0 1474.8, 2355.0 1582.2, 2488.3 1546.2 C 2631.2 1549.0, 2831.2 1516.0, 2964.5 1605.7 C 3107.3 1603.3, 3307.3 1470.6, 3440.6 1620.0" fill="none" stroke="url(#ribbon60)" stroke-width="38.4" stroke-linecap="round" stroke-opacity="0.250" /></g><g transform="rotate(-14.57 1536.0 1536.0)"><path d="M-368.6 1685.9 C -241.7 1819.3, -63.9 1571.9, 54.6 1762.5 C 181.6 1756.4, 359.4 1631.9, 477.9 1695.7 C 604.8 1696.2, 782.6 1678.2, 901.1 1623.0 C 1028.1 1634.3, 1205.9 1759.8, 1324.4 1588.5 C 1451.3 1608.3, 1629.1 1728.7, 1747.6 1613.0 C 1874.6 1626.7, 2052.4 1722.7, 2170.9 1681.8 C 2297.9 1682.4, 2475.6 1690.8, 2594.1 1753.1 C 2721.1 1732.7, 2898.9 1630.4, 3017.4 1783.6 C 3144.4 1807.2, 3322.1 1635.2, 3440.6 1754.9" fill="none" stroke="url(#ribbon60)" stroke-width="34.4" stroke-linecap="round" stroke-opacity="0.276" /></g><g transform="rotate(-13.99 1536.0 1536.0)"><path d="M-368.6 1835.7 C -254.4 1735.9, -94.4 1882.6, 12.3 1796.6 C 126.6 1789.8, 286.6 1862.1, 393.2 1878.2 C 507.5 1893.8, 667.5 1796.8, 774.1 1934.0 C 888.4 1914.0, 1048.4 1761.6, 1155.1 1930.1 C 1269.4 1958.2, 1429.3 1794.3, 1536.0 1869.0 C 1650.3 1871.5, 1810.3 1796.2, 1916.9 1787.6 C 2031.2 1774.8, 2191.2 1853.2, 2297.9 1735.4 C 2412.1 1763.7, 2572.1 1898.4, 2678.8 1744.0 C 2793.1 1712.8, 2953.1 1873.6, 3059.7 1808.2 C 3174.0 1803.6, 3334.0 1854.0, 3440.6 1889.1" fill="none" stroke="url(#ribbon60)" stroke-width="30.4" stroke-linecap="round" stroke-opacity="0.302" /></g><g transform="rotate(-13.41 1536.0 1536.0)"><path d="M-368.6 2017.2 C -264.8 2050.4, -119.3 1994.0, -22.3 1964.6 C 81.5 1981.3, 227.0 2036.6, 324.0 1909.8 C 427.8 1923.4, 573.3 2139.0, 670.3 1920.1 C 774.1 1932.7, 919.6 2056.3, 1016.6 1989.4 C 1120.4 1988.2, 1265.9 2050.0, 1362.9 2075.5 C 1466.7 2065.4, 1612.2 1975.4, 1709.1 2126.3 C 1813.0 2107.1, 1958.5 1940.3, 2055.4 2110.9 C 2159.3 2126.5, 2304.8 1987.7, 2401.7 2038.6 C 2505.6 2040.7, 2651.1 1992.7, 2748.0 1953.4 C 2851.9 1961.7, 2997.4 2075.8, 3094.3 1906.9 C 3198.2 1920.3, 3343.7 2069.5, 3440.6 1927.3" fill="none" stroke="url(#ribbon60)" stroke-width="26.4" stroke-linecap="round" stroke-opacity="0.328" /></g><g transform="rotate(-12.83 1536.0 1536.0)"><path d="M-368.6 2296.7 C -273.4 2213.7, -140.1 2354.1, -51.2 2199.0 C 44.0 2205.9, 177.4 2332.6, 266.2 2277.1 C 361.5 2281.7, 494.8 2309.0, 583.7 2367.2 C 678.9 2372.5, 812.2 2217.7, 901.1 2414.5 C 996.4 2423.9, 1129.7 2239.1, 1218.6 2390.4 C 1313.8 2357.4, 1447.1 2233.4, 1536.0 2309.4 C 1631.2 2309.6, 1764.6 2282.5, 1853.4 2220.8 C 1948.7 2218.2, 2082.0 2353.3, 2170.9 2178.2 C 2266.1 2176.1, 2399.4 2369.6, 2488.3 2207.5 C 2583.6 2231.0, 2716.9 2331.3, 2805.8 2290.9 C 2901.0 2291.6, 3034.3 2300.3, 3123.2 2377.9 C 3218.4 2398.6, 3351.8 2256.8, 3440.6 2415.6" fill="none" stroke="url(#ribbon60)" stroke-width="22.4" stroke-linecap="round" stroke-opacity="0.354" /></g><g transform="rotate(-12.25 1536.0 1536.0)"><path d="M-368.6 2497.8 C -225.8 2369.4, -25.8 2604.6, 107.5 2376.9 C 250.4 2329.4, 450.4 2601.3, 583.7 2438.9 C 726.5 2420.6, 926.5 2561.5, 1059.8 2536.6 C 1202.7 2536.5, 1402.7 2469.5, 1536.0 2610.8 C 1678.8 2592.4, 1878.8 2412.4, 2012.2 2616.4 C 2155.0 2659.2, 2355.0 2457.7, 2488.3 2550.0 C 2631.2 2557.7, 2831.2 2477.7, 2964.5 2452.0 C 3107.3 2450.1, 3307.3 2514.3, 3440.6 2381.7" fill="none" stroke="url(#ribbon60)" stroke-width="18.4" stroke-linecap="round" stroke-opacity="0.380" /></g><g transform="rotate(-11.67 1536.0 1536.0)"><path d="M-368.6 2654.5 C -241.7 2533.4, -63.9 2730.2, 54.6 2586.1 C 181.6 2578.8, 359.4 2715.7, 477.9 2688.7 C 604.8 2684.5, 782.6 2628.1, 901.1 2770.6 C 1028.1 2743.3, 1205.9 2549.8, 1324.4 2782.0 C 1451.3 2824.5, 1629.1 2549.8, 1747.6 2716.2 C 1874.6 2716.0, 2052.4 2614.1, 2170.9 2612.9 C 2297.9 2623.9, 2475.6 2687.7, 2594.1 2534.9 C 2721.1 2552.7, 2898.9 2777.7, 3017.4 2529.5 C 3144.4 2547.4, 3322.1 2752.9, 3440.6 2599.9" fill="none" stroke="url(#ribbon60)" stroke-width="14.4" stroke-linecap="round" stroke-opacity="0.406" /></g></g>
  <g><ellipse cx="1536.0" cy="1551.9" rx="728.6" ry="605.7" fill="url(#extrude60)" opacity="0.220" /><ellipse cx="1536.0" cy="1567.7" rx="736.0" ry="610.9" fill="url(#extrude60)" opacity="0.205" /><ellipse cx="1536.0" cy="1583.6" rx="743.4" ry="616.1" fill="url(#extrude60)" opacity="0.190" /><ellipse cx="1536.0" cy="1599.5" rx="750.9" ry="621.3" fill="url(#extrude60)" opacity="0.175" /><ellipse cx="1536.0" cy="1615.4" rx="758.3" ry="626.5" fill="url(#extrude60)" opacity="0.160" /><ellipse cx="1536.0" cy="1631.2" rx="765.7" ry="631.7" fill="url(#extrude60)" opacity="0.145" /><ellipse cx="1536.0" cy="1647.1" rx="773.2" ry="636.9" fill="url(#extrude60)" opacity="0.130" /><ellipse cx="1536.0" cy="1663.0" rx="780.6" ry="642.1" fill="url(#extrude60)" opacity="0.115" /><ellipse cx="1536.0" cy="1678.8" rx="788.0" ry="647.4" fill="url(#extrude60)" opacity="0.100" /><ellipse cx="1536.0" cy="1694.7" rx="795.5" ry="652.6" fill="url(#extrude60)" opacity="0.085" /><ellipse cx="1536.0" cy="1710.6" rx="802.9" ry="657.8" fill="url(#extrude60)" opacity="0.070" /><ellipse cx="1536.0" cy="1726.5" rx="810.3" ry="663.0" fill="url(#extrude60)" opacity="0.055" /></g>
  <ellipse cx="1536.0" cy="1726.5" rx="773.2" ry="214.9" fill="#0B1D2D" opacity="0.24" />
  <ellipse cx="1536.0" cy="1536.0" rx="743.4" ry="651.3" fill="url(#orb60)" stroke="#FFFFFF" stroke-opacity="0.42" stroke-width="7" />
  <ellipse cx="1431.9" cy="1392.7" rx="505.5" ry="299.6" fill="#FFFFFF" opacity="0.25" />
  <path d="M 199.4 399.4 C 1013.8 -30.7, 2058.2 768.0, 2872.6 215.0 L 2872.6 983.0 C 2089.0 1228.8, 1013.8 307.2, 199.4 1167.4 Z" fill="url(#glass60)" />
  <rect x="270" y="270" width="2532" height="2532" rx="430" fill="none" stroke="#FFFFFF" stroke-opacity="0.30" stroke-width="5" />
  <rect x="288.4" y="288.4" width="2495.1" height="2495.1" rx="399" fill="none" stroke="#FF9F43" stroke-opacity="0.35" stroke-width="3" />
  <g filter="url(#soft60)"><rect x="342" y="1814" width="34" height="2" fill="#FFFFFF" opacity="0.507" /><rect x="358" y="1798" width="2" height="34" fill="#FFFFFF" opacity="0.507" /><rect x="2349" y="2576" width="34" height="2" fill="#FFFFFF" opacity="0.665" /><rect x="2365" y="2560" width="2" height="34" fill="#FFFFFF" opacity="0.665" /><rect x="1274" y="716" width="56" height="2" fill="#FFFFFF" opacity="0.701" /><rect x="1301" y="689" width="2" height="56" fill="#FFFFFF" opacity="0.701" /><rect x="1021" y="2379" width="46" height="2" fill="#FFFFFF" opacity="0.533" /><rect x="1043" y="2357" width="2" height="46" fill="#FFFFFF" opacity="0.533" /><rect x="1629" y="315" width="32" height="2" fill="#FFFFFF" opacity="0.782" /><rect x="1644" y="300" width="2" height="32" fill="#FFFFFF" opacity="0.782" /><rect x="1156" y="573" width="84" height="2" fill="#FFFFFF" opacity="0.641" /><rect x="1197" y="532" width="2" height="84" fill="#FFFFFF" opacity="0.641" /><rect x="667" y="1071" width="40" height="2" fill="#FFFFFF" opacity="0.692" /><rect x="686" y="1052" width="2" height="40" fill="#FFFFFF" opacity="0.692" /><rect x="2536" y="821" width="68" height="2" fill="#FFFFFF" opacity="0.715" /><rect x="2569" y="788" width="2" height="68" fill="#FFFFFF" opacity="0.715" /><rect x="1994" y="786" width="80" height="2" fill="#FFFFFF" opacity="0.809" /><rect x="2033" y="747" width="2" height="80" fill="#FFFFFF" opacity="0.809" /><rect x="699" y="824" width="38" height="2" fill="#FFFFFF" opacity="0.556" /><rect x="717" y="806" width="2" height="38" fill="#FFFFFF" opacity="0.556" /><rect x="2783" y="319" width="30" height="2" fill="#FFFFFF" opacity="0.412" /><rect x="2797" y="305" width="2" height="30" fill="#FFFFFF" opacity="0.412" /><rect x="1784" y="635" width="40" height="2" fill="#FFFFFF" opacity="0.321" /><rect x="1803" y="616" width="2" height="40" fill="#FFFFFF" opacity="0.321" /><rect x="2441" y="639" width="76" height="2" fill="#FFFFFF" opacity="0.593" /><rect x="2478" y="602" width="2" height="76" fill="#FFFFFF" opacity="0.593" /><rect x="1603" y="2309" width="68" height="2" fill="#FFFFFF" opacity="0.831" /><rect x="1636" y="2276" width="2" height="68" fill="#FFFFFF" opacity="0.831" /><rect x="1285" y="1296" width="30" height="2" fill="#FFFFFF" opacity="0.595" /><rect x="1299" y="1282" width="2" height="30" fill="#FFFFFF" opacity="0.595" /><rect x="2016" y="891" width="30" height="2" fill="#FFFFFF" opacity="0.613" /><rect x="2030" y="877" width="2" height="30" fill="#FFFFFF" opacity="0.613" /><rect x="559" y="304" width="44" height="2" fill="#FFFFFF" opacity="0.785" /><rect x="580" y="283" width="2" height="44" fill="#FFFFFF" opacity="0.785" /><rect x="1479" y="2021" width="56" height="2" fill="#FFFFFF" opacity="0.685" /><rect x="1506" y="1994" width="2" height="56" fill="#FFFFFF" opacity="0.685" /><rect x="2632" y="486" width="32" height="2" fill="#FFFFFF" opacity="0.716" /><rect x="2647" y="471" width="2" height="32" fill="#FFFFFF" opacity="0.716" /><rect x="592" y="640" width="64" height="2" fill="#FFFFFF" opacity="0.564" /><rect x="623" y="609" width="2" height="64" fill="#FFFFFF" opacity="0.564" /><rect x="2692" y="2119" width="36" height="2" fill="#FFFFFF" opacity="0.516" /><rect x="2709" y="2102" width="2" height="36" fill="#FFFFFF" opacity="0.516" /><rect x="1792" y="1425" width="42" height="2" fill="#FFFFFF" opacity="0.368" /><rect x="1812" y="1405" width="2" height="42" fill="#FFFFFF" opacity="0.368" /><rect x="374" y="2031" width="82" height="2" fill="#FFFFFF" opacity="0.670" /><rect x="414" y="1991" width="2" height="82" fill="#FFFFFF" opacity="0.670" /><rect x="1154" y="334" width="28" height="2" fill="#FFFFFF" opacity="0.747" /><rect x="1167" y="321" width="2" height="28" fill="#FFFFFF" opacity="0.747" /><rect x="822" y="1676" width="78" height="2" fill="#FFFFFF" opacity="0.729" /><rect x="860" y="1638" width="2" height="78" fill="#FFFFFF" opacity="0.729" /><rect x="2426" y="315" width="56" height="2" fill="#FFFFFF" opacity="0.648" /><rect x="2453" y="288" width="2" height="56" fill="#FFFFFF" opacity="0.648" /></g>
  <g opacity="0.52"><circle cx="1572" cy="1582" r="307" fill="none" stroke="#0C2030" stroke-width="90" /><line x1="1791" y1="1801" x2="2340" y2="2350" stroke="#0C2030" stroke-width="90" stroke-linecap="round" /></g>
  <g filter="url(#soft60)"><circle cx="1536" cy="1536" r="307" fill="none" stroke="url(#symbol60)" stroke-width="90" /><line x1="1755" y1="1755" x2="2304" y2="2304" stroke="url(#symbol60)" stroke-width="90" stroke-linecap="round" /></g>
  <rect x="138" y="138" width="2796" height="2796" rx="629" fill="#FFFFFF" filter="url(#grain60)" opacity="0.18" />
</svg>
