<svg xmlns="http://www.w3.org/2000/svg" width="3072" height="3072" viewBox="0 0 3072 3072">
  <title>QuartzOS App Icon 332 - alpha_builder_332</title>
  <defs><linearGradient id="bg331" x1="0%" y1="0%" x2="100%" y2="100%"><stop offset="0%" stop-color="#8A5CFF" /><stop offset="26%" stop-color="#FF9F43" /><stop offset="56%" stop-color="#53E3A6" /><stop offset="78%" stop-color="#9A6BB4" /><stop offset="100%" stop-color="#271E2A" /></linearGradient><radialGradient id="sun331" cx="26%" cy="37%" r="88%"><stop offset="0%" stop-color="#FFFFFF" stop-opacity="0.62" /><stop offset="30%" stop-color="#36D1FF" stop-opacity="0.35" /><stop offset="100%" stop-color="#36D1FF" stop-opacity="0" /></radialGradient><linearGradient id="glass331" x1="0%" y1="0%" x2="0%" y2="100%"><stop offset="0%" stop-color="#FFFFFF" stop-opacity="0.70" /><stop offset="46%" stop-color="#FFFFFF" stop-opacity="0.26" /><stop offset="100%" stop-color="#FFFFFF" stop-opacity="0.00" /></linearGradient><linearGradient id="ribbon331" x1="0%" y1="0%" x2="100%" y2="0%"><stop offset="0%" stop-color="#8A5CFF" stop-opacity="0.18" /><stop offset="34%" stop-color="#FF9F43" stop-opacity="0.72" /><stop offset="66%" stop-color="#53E3A6" stop-opacity="0.72" /><stop offset="100%" stop-color="#36D1FF" stop-opacity="0.18" /></linearGradient><radialGradient id="orb331" cx="34%" cy="27%" r="74%"><stop offset="0%" stop-color="#FFFFFF" stop-opacity="0.84" /><stop offset="30%" stop-color="#8A5CFF" stop-opacity="0.52" /><stop offset="68%" stop-color="#FF9F43" stop-opacity="0.42" /><stop offset="100%" stop-color="#53E3A6" stop-opacity="0.20" /></radialGradient><linearGradient id="extrude331" x1="0%" y1="0%" x2="0%" y2="100%"><stop offset="0%" stop-color="#15283C" stop-opacity="0.45" /><stop offset="100%" stop-color="#08131D" stop-opacity="0.06" /></linearGradient><linearGradient id="symbol331" x1="0%" y1="0%" x2="100%" y2="100%"><stop offset="0%" stop-color="#FFFFFF" /><stop offset="100%" stop-color="#36D1FF" /></linearGradient><filter id="shadow331" x="-40%" y="-40%" width="180%" height="180%"><feDropShadow dx="0" dy="49" stdDeviation="86" flood-color="#06111A" flood-opacity="0.54" /></filter><filter id="soft331" x="-40%" y="-40%" width="180%" height="180%"><feDropShadow dx="0" dy="0" stdDeviation="14" flood-color="#8A5CFF" flood-opacity="0.45" /></filter><filter id="grain331"><feTurbulence type="fractalNoise" baseFrequency="1.076" numOctaves="2" seed="331" /><feColorMatrix type="saturate" values="0" /><feComponentTransfer><feFuncA type="table" tableValues="0 0.09" /></feComponentTransfer></filter></defs>
  <rect x="138" y="138" width="2796" height="2796" rx="629" fill="url(#bg331)" filter="url(#shadow331)" />
  <rect x="138" y="138" width="2796" height="2796" rx="629" fill="url(#sun331)" />
  <g><circle cx="395" cy="804" r="72" fill="#FFFFFF" opacity="0.206" /><circle cx="2616" cy="1848" r="74" fill="#FFFFFF" opacity="0.202" /><circle cx="2478" cy="628" r="107" fill="#FFFFFF" opacity="0.149" /><circle cx="2204" cy="1474" r="155" fill="#FFFFFF" opacity="0.138" /><circle cx="1628" cy="480" r="137" fill="#FFFFFF" opacity="0.117" /><circle cx="1631" cy="2444" r="86" fill="#FFFFFF" opacity="0.191" /><circle cx="1937" cy="2286" r="68" fill="#FFFFFF" opacity="0.120" /><circle cx="2238" cy="2286" r="70" fill="#FFFFFF" opacity="0.061" /><circle cx="2134" cy="475" r="135" fill="#FFFFFF" opacity="0.153" /><circle cx="672" cy="1136" r="68" fill="#FFFFFF" opacity="0.180" /><circle cx="1487" cy="734" r="135" fill="#FFFFFF" opacity="0.066" /><circle cx="2152" cy="1410" r="64" fill="#FFFFFF" opacity="0.187" /><circle cx="585" cy="1784" r="52" fill="#FFFFFF" opacity="0.168" /><circle cx="612" cy="1626" r="132" fill="#FFFFFF" opacity="0.127" /><circle cx="1695" cy="2461" r="113" fill="#FFFFFF" opacity="0.219" /><circle cx="428" cy="1170" r="41" fill="#FFFFFF" opacity="0.210" /><circle cx="1666" cy="557" r="140" fill="#FFFFFF" opacity="0.235" /><circle cx="2685" cy="1607" r="135" fill="#FFFFFF" opacity="0.231" /><circle cx="749" cy="2599" r="40" fill="#FFFFFF" opacity="0.223" /><circle cx="2688" cy="2155" r="158" fill="#FFFFFF" opacity="0.074" /><circle cx="1629" cy="1426" r="103" fill="#FFFFFF" opacity="0.111" /><circle cx="1036" cy="1303" r="83" fill="#FFFFFF" opacity="0.228" /><circle cx="1026" cy="642" r="95" fill="#FFFFFF" opacity="0.224" /><circle cx="2586" cy="2165" r="125" fill="#FFFFFF" opacity="0.160" /><circle cx="1863" cy="2079" r="117" fill="#FFFFFF" opacity="0.154" /><circle cx="971" cy="2419" r="47" fill="#FFFFFF" opacity="0.114" /><circle cx="1650" cy="1796" r="150" fill="#FFFFFF" opacity="0.164" /><circle cx="2375" cy="2355" r="108" fill="#FFFFFF" opacity="0.220" /></g>
  <g><path d="M 300.3 611.0 L 2863.8 334.5 L 2863.8 758.8 L 300.3 1035.3 Z" fill="#FFFFFF" opacity="0.203" /><path d="M 235.1 906.1 L 2819.0 629.7 L 2819.0 1048.1 L 235.1 1324.5 Z" fill="#FFFFFF" opacity="0.163" /><path d="M 273.1 1103.0 L 2724.6 826.6 L 2724.6 1280.5 L 273.1 1556.9 Z" fill="#FFFFFF" opacity="0.228" /><path d="M 255.7 1376.3 L 2690.2 1099.8 L 2690.2 1585.5 L 255.7 1862.0 Z" fill="#FFFFFF" opacity="0.206" /><path d="M 369.1 1621.1 L 2875.2 1344.6 L 2875.2 1831.3 L 369.1 2107.7 Z" fill="#FFFFFF" opacity="0.229" /><path d="M 386.8 1916.7 L 2752.6 1640.3 L 2752.6 2113.9 L 386.8 2390.3 Z" fill="#FFFFFF" opacity="0.166" /><path d="M 269.2 2174.3 L 2838.0 1897.8 L 2838.0 2373.5 L 269.2 2650.0 Z" fill="#FFFFFF" opacity="0.200" /><path d="M 318.3 2488.3 L 2687.9 2211.8 L 2687.9 2667.3 L 318.3 2943.8 Z" fill="#FFFFFF" opacity="0.232" /></g>
  <g filter="url(#soft331)"><g transform="rotate(-11.12 1536.0 1536.0)"><path d="M-368.6 479.6 C -225.8 421.1, -25.8 510.9, 107.5 440.2 C 250.4 450.9, 450.4 504.8, 583.7 480.0 C 726.5 479.8, 926.5 479.3, 1059.8 519.5 C 1202.7 526.9, 1402.7 455.6, 1536.0 534.9 C 1678.8 541.2, 1878.8 458.0, 2012.2 516.7 C 2155.0 503.0, 2355.0 460.5, 2488.3 476.0 C 2631.2 476.5, 2831.2 481.7, 2964.5 437.5 C 3107.3 423.4, 3307.3 510.7, 3440.6 424.5" fill="none" stroke="url(#ribbon331)" stroke-width="58.4" stroke-linecap="round" stroke-opacity="0.120" /></g><g transform="rotate(-10.54 1536.0 1536.0)"><path d="M-368.6 663.6 C -241.7 626.8, -63.9 682.3, 54.6 636.9 C 181.6 641.9, 359.4 673.5, 477.9 685.5 C 604.8 677.6, 782.6 639.8, 901.1 720.7 C 1028.1 711.5, 1205.9 612.8, 1324.4 721.4 C 1451.3 705.3, 1629.1 643.8, 1747.6 687.0 C 1874.6 682.5, 2052.4 640.0, 2170.9 638.4 C 2297.9 642.6, 2475.6 677.7, 2594.1 605.1 C 2721.1 594.5, 2898.9 723.1, 3017.4 607.3 C 3144.4 627.1, 3322.1 723.5, 3440.6 643.7" fill="none" stroke="url(#ribbon331)" stroke-width="54.4" stroke-linecap="round" stroke-opacity="0.146" /></g><g transform="rotate(-9.96 1536.0 1536.0)"><path d="M-368.6 862.6 C -254.4 846.4, -94.4 876.6, 12.3 894.0 C 126.6 887.3, 286.6 843.0, 393.2 928.9 C 507.5 934.7, 667.5 826.6, 774.1 923.6 C 888.4 941.9, 1048.4 822.4, 1155.1 881.3 C 1269.4 882.1, 1429.3 846.8, 1536.0 827.6 C 1650.3 822.6, 1810.3 886.1, 1916.9 795.2 C 2031.2 771.2, 2191.2 939.3, 2297.9 803.6 C 2412.1 799.8, 2572.1 930.7, 2678.8 847.8 C 2793.1 847.6, 2953.1 877.5, 3059.7 901.0 C 3174.0 901.1, 3334.0 827.2, 3440.6 930.8" fill="none" stroke="url(#ribbon331)" stroke-width="50.4" stroke-linecap="round" stroke-opacity="0.172" /></g><g transform="rotate(-9.38 1536.0 1536.0)"><path d="M-368.6 1065.8 C -264.8 1062.3, -119.3 1070.3, -22.3 1117.4 C 81.5 1110.3, 227.0 1024.0, 324.0 1142.3 C 427.8 1135.3, 573.3 1031.8, 670.3 1120.7 C 774.1 1129.9, 919.6 1039.0, 1016.6 1065.9 C 1120.4 1065.9, 1265.9 1065.7, 1362.9 1011.0 C 1466.7 1020.4, 1612.2 1106.7, 1709.1 989.3 C 1813.0 960.4, 1958.5 1115.7, 2055.4 1014.1 C 2159.3 1000.5, 2304.8 1097.0, 2401.7 1070.2 C 2505.6 1069.2, 2651.1 1062.2, 2748.0 1123.6 C 2851.9 1104.8, 2997.4 1033.0, 3094.3 1142.0 C 3198.2 1151.4, 3343.7 992.8, 3440.6 1114.2" fill="none" stroke="url(#ribbon331)" stroke-width="46.4" stroke-linecap="round" stroke-opacity="0.198" /></g><g transform="rotate(-8.80 1536.0 1536.0)"><path d="M-368.6 1269.1 C -273.4 1171.1, -140.1 1337.3, -51.2 1239.4 C 44.0 1234.6, 177.4 1290.6, 266.2 1304.5 C 361.5 1301.9, 494.8 1248.9, 583.7 1348.0 C 678.9 1321.6, 812.2 1189.9, 901.1 1343.7 C 996.4 1372.8, 1129.7 1210.3, 1218.6 1294.1 C 1313.8 1300.1, 1447.1 1256.7, 1536.0 1229.4 C 1631.2 1222.4, 1764.6 1310.0, 1853.4 1188.7 C 1948.7 1218.1, 2082.0 1321.6, 2170.9 1196.8 C 2266.1 1198.4, 2399.4 1329.9, 2488.3 1248.7 C 2583.6 1244.2, 2716.9 1287.1, 2805.8 1313.0 C 2901.0 1314.1, 3034.3 1249.4, 3123.2 1350.7 C 3218.4 1369.9, 3351.8 1210.8, 3440.6 1338.8" fill="none" stroke="url(#ribbon331)" stroke-width="42.4" stroke-linecap="round" stroke-opacity="0.224" /></g><g transform="rotate(-8.22 1536.0 1536.0)"><path d="M-368.6 1502.5 C -225.8 1499.5, -25.8 1504.6, 107.5 1565.2 C 250.4 1555.1, 450.4 1432.9, 583.7 1593.2 C 726.5 1587.0, 926.5 1442.9, 1059.8 1566.2 C 1202.7 1564.9, 1402.7 1438.1, 1536.0 1500.6 C 1678.8 1500.1, 1878.8 1503.6, 2012.2 1436.2 C 2155.0 1458.8, 2355.0 1548.6, 2488.3 1412.0 C 2631.2 1404.7, 2831.2 1568.9, 2964.5 1442.8 C 3107.3 1449.7, 3307.3 1566.9, 3440.6 1509.8" fill="none" stroke="url(#ribbon331)" stroke-width="38.4" stroke-linecap="round" stroke-opacity="0.250" /></g><g transform="rotate(-7.64 1536.0 1536.0)"><path d="M-368.6 1668.0 C -241.7 1564.0, -63.9 1705.8, 54.6 1580.3 C 181.6 1587.5, 359.4 1727.4, 477.9 1637.9 C 604.8 1647.1, 782.6 1693.2, 901.1 1713.7 C 1028.1 1728.3, 1205.9 1652.1, 1324.4 1761.7 C 1451.3 1788.1, 1629.1 1630.6, 1747.6 1752.9 C 1874.6 1753.3, 2052.4 1624.0, 2170.9 1692.6 C 2297.9 1697.4, 2475.6 1651.1, 2594.1 1617.3 C 2721.1 1620.5, 2898.9 1702.4, 3017.4 1572.8 C 3144.4 1558.5, 3322.1 1699.2, 3440.6 1585.9" fill="none" stroke="url(#ribbon331)" stroke-width="34.4" stroke-linecap="round" stroke-opacity="0.276" /></g><g transform="rotate(-7.06 1536.0 1536.0)"><path d="M-368.6 1832.4 C -254.4 1842.2, -94.4 1829.1, 12.3 1762.6 C 126.6 1754.6, 286.6 1901.0, 393.2 1727.7 C 507.5 1700.7, 667.5 1911.3, 774.1 1756.3 C 888.4 1759.8, 1048.4 1905.3, 1155.1 1831.0 C 1269.4 1831.0, 1429.3 1832.9, 1536.0 1906.6 C 1650.3 1928.8, 1810.3 1790.3, 1916.9 1937.1 C 2031.2 1972.5, 2191.2 1760.6, 2297.9 1904.1 C 2412.1 1903.9, 2572.1 1785.8, 2678.8 1827.6 C 2793.1 1827.0, 2953.1 1834.6, 3059.7 1754.0 C 3174.0 1750.2, 3334.0 1874.5, 3440.6 1727.9" fill="none" stroke="url(#ribbon331)" stroke-width="30.4" stroke-linecap="round" stroke-opacity="0.302" /></g><g transform="rotate(-6.48 1536.0 1536.0)"><path d="M-368.6 2026.7 C -264.8 2114.1, -119.3 1953.1, -22.3 2137.9 C 81.5 2173.8, 227.0 1953.0, 324.0 2113.0 C 427.8 2102.2, 573.3 1928.2, 670.3 2035.8 C 774.1 2036.9, 919.6 2022.6, 1016.6 1953.1 C 1120.4 1946.5, 1265.9 2113.2, 1362.9 1915.0 C 1466.7 1909.0, 1612.2 2136.7, 1709.1 1944.8 C 1813.0 1930.0, 1958.5 2123.8, 2055.4 2024.2 C 2159.3 2024.7, 2304.8 2028.3, 2401.7 2105.1 C 2505.6 2085.6, 2651.1 1950.3, 2748.0 2138.5 C 2851.9 2124.1, 2997.4 1946.4, 3094.3 2104.1 C 3198.2 2089.0, 3343.7 1994.0, 3440.6 2022.7" fill="none" stroke="url(#ribbon331)" stroke-width="26.4" stroke-linecap="round" stroke-opacity="0.328" /></g><g transform="rotate(-5.90 1536.0 1536.0)"><path d="M-368.6 2321.5 C -273.4 2326.8, -140.1 2317.5, -51.2 2410.5 C 44.0 2395.2, 177.4 2278.8, 266.2 2440.0 C 361.5 2422.3, 494.8 2268.0, 583.7 2397.6 C 678.9 2420.7, 812.2 2265.3, 901.1 2309.1 C 996.4 2308.3, 1129.7 2326.0, 1218.6 2228.0 C 1313.8 2201.3, 1447.1 2361.5, 1536.0 2203.7 C 1631.2 2210.7, 1764.6 2376.2, 1853.4 2250.8 C 1948.7 2233.6, 2082.0 2364.5, 2170.9 2340.8 C 2266.1 2339.2, 2399.4 2301.6, 2488.3 2419.1 C 2583.6 2453.6, 2716.9 2221.5, 2805.8 2438.2 C 2901.0 2407.1, 3034.3 2263.7, 3123.2 2386.5 C 3218.4 2370.6, 3351.8 2284.0, 3440.6 2295.4" fill="none" stroke="url(#ribbon331)" stroke-width="22.4" stroke-linecap="round" stroke-opacity="0.354" /></g><g transform="rotate(-5.32 1536.0 1536.0)"><path d="M-368.6 2433.7 C -225.8 2589.3, -25.8 2332.1, 107.5 2468.9 C 250.4 2472.1, 450.4 2418.1, 583.7 2371.5 C 726.5 2394.9, 926.5 2457.9, 1059.8 2311.8 C 1202.7 2285.0, 1402.7 2571.4, 1536.0 2326.1 C 1678.8 2348.7, 1878.8 2535.2, 2012.2 2405.7 C 2155.0 2409.0, 2355.0 2466.9, 2488.3 2502.3 C 2631.2 2518.4, 2831.2 2410.7, 2964.5 2557.3 C 3107.3 2546.1, 3307.3 2374.0, 3440.6 2537.3" fill="none" stroke="url(#ribbon331)" stroke-width="18.4" stroke-linecap="round" stroke-opacity="0.380" /></g><g transform="rotate(-4.74 1536.0 1536.0)"><path d="M-368.6 2699.0 C -241.7 2664.7, -63.9 2727.0, 54.6 2575.2 C 181.6 2575.2, 359.4 2791.5, 477.9 2577.9 C 604.8 2583.1, 782.6 2740.6, 901.1 2654.0 C 1028.1 2654.0, 1205.9 2740.9, 1324.4 2757.5 C 1451.3 2768.5, 1629.1 2676.7, 1747.6 2825.5 C 1874.6 2855.3, 2052.4 2647.8, 2170.9 2816.8 C 2297.9 2784.5, 2475.6 2574.4, 2594.1 2736.7 C 2721.1 2731.4, 2898.9 2677.4, 3017.4 2633.7 C 3144.4 2650.2, 3322.1 2727.1, 3440.6 2570.4" fill="none" stroke="url(#ribbon331)" stroke-width="14.4" stroke-linecap="round" stroke-opacity="0.406" /></g></g>
  <g><ellipse cx="1536.0" cy="1551.9" rx="728.6" ry="605.7" fill="url(#extrude331)" opacity="0.220" /><ellipse cx="1536.0" cy="1567.7" rx="736.0" ry="610.9" fill="url(#extrude331)" opacity="0.205" /><ellipse cx="1536.0" cy="1583.6" rx="743.4" ry="616.1" fill="url(#extrude331)" opacity="0.190" /><ellipse cx="1536.0" cy="1599.5" rx="750.9" ry="621.3" fill="url(#extrude331)" opacity="0.175" /><ellipse cx="1536.0" cy="1615.4" rx="758.3" ry="626.5" fill="url(#extrude331)" opacity="0.160" /><ellipse cx="1536.0" cy="1631.2" rx="765.7" ry="631.7" fill="url(#extrude331)" opacity="0.145" /><ellipse cx="1536.0" cy="1647.1" rx="773.2" ry="636.9" fill="url(#extrude331)" opacity="0.130" /><ellipse cx="1536.0" cy="1663.0" rx="780.6" ry="642.1" fill="url(#extrude331)" opacity="0.115" /><ellipse cx="1536.0" cy="1678.8" rx="788.0" ry="647.4" fill="url(#extrude331)" opacity="0.100" /><ellipse cx="1536.0" cy="1694.7" rx="795.5" ry="652.6" fill="url(#extrude331)" opacity="0.085" /><ellipse cx="1536.0" cy="1710.6" rx="802.9" ry="657.8" fill="url(#extrude331)" opacity="0.070" /><ellipse cx="1536.0" cy="1726.5" rx="810.3" ry="663.0" fill="url(#extrude331)" opacity="0.055" /></g>
  <ellipse cx="1536.0" cy="1726.5" rx="773.2" ry="214.9" fill="#0B1D2D" opacity="0.24" />
  <ellipse cx="1536.0" cy="1536.0" rx="743.4" ry="651.3" fill="url(#orb331)" stroke="#FFFFFF" stroke-opacity="0.42" stroke-width="7" />
  <ellipse cx="1431.9" cy="1392.7" rx="505.5" ry="299.6" fill="#FFFFFF" opacity="0.25" />
  <path d="M 199.4 399.4 C 1013.8 -30.7, 2058.2 768.0, 2872.6 215.0 L 2872.6 983.0 C 2089.0 1228.8, 1013.8 307.2, 199.4 1167.4 Z" fill="url(#glass331)" />
  <rect x="270" y="270" width="2532" height="2532" rx="430" fill="none" stroke="#FFFFFF" stroke-opacity="0.30" stroke-width="5" />
  <rect x="288.4" y="288.4" width="2495.1" height="2495.1" rx="399" fill="none" stroke="#8A5CFF" stroke-opacity="0.35" stroke-width="3" />
  <g filter="url(#soft331)"><rect x="567" y="2481" width="46" height="2" fill="#FFFFFF" opacity="0.338" /><rect x="589" y="2459" width="2" height="46" fill="#FFFFFF" opacity="0.338" /><rect x="2159" y="2730" width="56" height="2" fill="#FFFFFF" opacity="0.438" /><rect x="2186" y="2703" width="2" height="56" fill="#FFFFFF" opacity="0.438" /><rect x="2525" y="255" width="74" height="2" fill="#FFFFFF" opacity="0.398" /><rect x="2561" y="219" width="2" height="74" fill="#FFFFFF" opacity="0.398" /><rect x="2295" y="979" width="78" height="2" fill="#FFFFFF" opacity="0.379" /><rect x="2333" y="941" width="2" height="78" fill="#FFFFFF" opacity="0.379" /><rect x="2503" y="1637" width="30" height="2" fill="#FFFFFF" opacity="0.741" /><rect x="2517" y="1623" width="2" height="30" fill="#FFFFFF" opacity="0.741" /><rect x="2133" y="395" width="74" height="2" fill="#FFFFFF" opacity="0.611" /><rect x="2169" y="359" width="2" height="74" fill="#FFFFFF" opacity="0.611" /><rect x="1355" y="255" width="84" height="2" fill="#FFFFFF" opacity="0.435" /><rect x="1396" y="214" width="2" height="84" fill="#FFFFFF" opacity="0.435" /><rect x="1861" y="1668" width="44" height="2" fill="#FFFFFF" opacity="0.679" /><rect x="1882" y="1647" width="2" height="44" fill="#FFFFFF" opacity="0.679" /><rect x="2746" y="1555" width="54" height="2" fill="#FFFFFF" opacity="0.477" /><rect x="2772" y="1529" width="2" height="54" fill="#FFFFFF" opacity="0.477" /><rect x="440" y="1456" width="42" height="2" fill="#FFFFFF" opacity="0.764" /><rect x="460" y="1436" width="2" height="42" fill="#FFFFFF" opacity="0.764" /><rect x="1423" y="431" width="42" height="2" fill="#FFFFFF" opacity="0.567" /><rect x="1443" y="411" width="2" height="42" fill="#FFFFFF" opacity="0.567" /><rect x="2599" y="1896" width="54" height="2" fill="#FFFFFF" opacity="0.609" /><rect x="2625" y="1870" width="2" height="54" fill="#FFFFFF" opacity="0.609" /><rect x="2396" y="1200" width="28" height="2" fill="#FFFFFF" opacity="0.449" /><rect x="2409" y="1187" width="2" height="28" fill="#FFFFFF" opacity="0.449" /><rect x="700" y="2007" width="56" height="2" fill="#FFFFFF" opacity="0.807" /><rect x="727" y="1980" width="2" height="56" fill="#FFFFFF" opacity="0.807" /><rect x="2181" y="1849" width="82" height="2" fill="#FFFFFF" opacity="0.336" /><rect x="2221" y="1809" width="2" height="82" fill="#FFFFFF" opacity="0.336" /><rect x="2119" y="1217" width="62" height="2" fill="#FFFFFF" opacity="0.423" /><rect x="2149" y="1187" width="2" height="62" fill="#FFFFFF" opacity="0.423" /><rect x="677" y="472" width="74" height="2" fill="#FFFFFF" opacity="0.393" /><rect x="713" y="436" width="2" height="74" fill="#FFFFFF" opacity="0.393" /><rect x="1409" y="2423" width="70" height="2" fill="#FFFFFF" opacity="0.830" /><rect x="1443" y="2389" width="2" height="70" fill="#FFFFFF" opacity="0.830" /><rect x="2803" y="1239" width="36" height="2" fill="#FFFFFF" opacity="0.405" /><rect x="2820" y="1222" width="2" height="36" fill="#FFFFFF" opacity="0.405" /><rect x="449" y="1972" width="74" height="2" fill="#FFFFFF" opacity="0.367" /><rect x="485" y="1936" width="2" height="74" fill="#FFFFFF" opacity="0.367" /><rect x="369" y="2256" width="56" height="2" fill="#FFFFFF" opacity="0.703" /><rect x="396" y="2229" width="2" height="56" fill="#FFFFFF" opacity="0.703" /><rect x="1060" y="1854" width="52" height="2" fill="#FFFFFF" opacity="0.728" /><rect x="1085" y="1829" width="2" height="52" fill="#FFFFFF" opacity="0.728" /><rect x="2044" y="594" width="28" height="2" fill="#FFFFFF" opacity="0.526" /><rect x="2057" y="581" width="2" height="28" fill="#FFFFFF" opacity="0.526" /><rect x="2752" y="1259" width="64" height="2" fill="#FFFFFF" opacity="0.305" /><rect x="2783" y="1228" width="2" height="64" fill="#FFFFFF" opacity="0.305" /><rect x="2692" y="1873" width="52" height="2" fill="#FFFFFF" opacity="0.397" /><rect x="2717" y="1848" width="2" height="52" fill="#FFFFFF" opacity="0.397" /><rect x="776" y="267" width="68" height="2" fill="#FFFFFF" opacity="0.374" /><rect x="809" y="234" width="2" height="68" fill="#FFFFFF" opacity="0.374" /></g>
  <g opacity="0.52"><circle cx="1572" cy="1582" r="384" fill="none" stroke="#0C2030" stroke-width="90" /><circle cx="1572" cy="1582" r="153" fill="#0C2030" /><line x1="1572" y1="967" x2="1572" y2="1198" stroke="#0C2030" stroke-width="90" /><line x1="1572" y1="2197" x2="1572" y2="1966" stroke="#0C2030" stroke-width="90" /><line x1="957" y1="1582" x2="1188" y2="1582" stroke="#0C2030" stroke-width="90" /><line x1="2187" y1="1582" x2="1956" y2="1582" stroke="#0C2030" stroke-width="90" /></g>
  <g filter="url(#soft331)"><circle cx="1536" cy="1536" r="384" fill="none" stroke="url(#symbol331)" stroke-width="90" /><circle cx="1536" cy="1536" r="153" fill="url(#symbol331)" /><line x1="1536" y1="921" x2="1536" y2="1152" stroke="url(#symbol331)" stroke-width="90" /><line x1="1536" y1="2151" x2="1536" y2="1920" stroke="url(#symbol331)" stroke-width="90" /><line x1="921" y1="1536" x2="1152" y2="1536" stroke="url(#symbol331)" stroke-width="90" /><line x1="2151" y1="1536" x2="1920" y2="1536" stroke="url(#symbol331)" stroke-width="90" /></g>
  <rect x="138" y="138" width="2796" height="2796" rx="629" fill="#FFFFFF" filter="url(#grain331)" opacity="0.18" />
</svg>
