<svg xmlns="http://www.w3.org/2000/svg" width="3072" height="3072" viewBox="0 0 3072 3072">
  <title>QuartzOS App Icon 072 - alpha_player_072</title>
  <defs><linearGradient id="bg71" x1="0%" y1="0%" x2="100%" y2="100%"><stop offset="0%" stop-color="#3B82FF" /><stop offset="26%" stop-color="#FF6AB3" /><stop offset="56%" stop-color="#FFD84D" /><stop offset="78%" stop-color="#4BA7D0" /><stop offset="100%" stop-color="#122A3D" /></linearGradient><radialGradient id="sun71" cx="30%" cy="13%" r="88%"><stop offset="0%" stop-color="#FFFFFF" stop-opacity="0.62" /><stop offset="30%" stop-color="#53E3A6" stop-opacity="0.35" /><stop offset="100%" stop-color="#53E3A6" stop-opacity="0" /></radialGradient><linearGradient id="glass71" x1="0%" y1="0%" x2="0%" y2="100%"><stop offset="0%" stop-color="#FFFFFF" stop-opacity="0.70" /><stop offset="46%" stop-color="#FFFFFF" stop-opacity="0.26" /><stop offset="100%" stop-color="#FFFFFF" stop-opacity="0.00" /></linearGradient><linearGradient id="ribbon71" x1="0%" y1="0%" x2="100%" y2="0%"><stop offset="0%" stop-color="#3B82FF" stop-opacity="0.18" /><stop offset="34%" stop-color="#FF6AB3" stop-opacity="0.72" /><stop offset="66%" stop-color="#FFD84D" stop-opacity="0.72" /><stop offset="100%" stop-color="#53E3A6" stop-opacity="0.18" /></linearGradient><radialGradient id="orb71" cx="34%" cy="27%" r="74%"><stop offset="0%" stop-color="#FFFFFF" stop-opacity="0.84" /><stop offset="30%" stop-color="#3B82FF" stop-opacity="0.52" /><stop offset="68%" stop-color="#FF6AB3" stop-opacity="0.42" /><stop offset="100%" stop-color="#FFD84D" stop-opacity="0.20" /></radialGradient><linearGradient id="extrude71" x1="0%" y1="0%" x2="0%" y2="100%"><stop offset="0%" stop-color="#15283C" stop-opacity="0.45" /><stop offset="100%" stop-color="#08131D" stop-opacity="0.06" /></linearGradient><linearGradient id="symbol71" x1="0%" y1="0%" x2="100%" y2="100%"><stop offset="0%" stop-color="#FFFFFF" /><stop offset="100%" stop-color="#53E3A6" /></linearGradient><filter id="shadow71" x="-40%" y="-40%" width="180%" height="180%"><feDropShadow dx="0" dy="49" stdDeviation="86" flood-color="#06111A" flood-opacity="0.54" /></filter><filter id="soft71" x="-40%" y="-40%" width="180%" height="180%"><feDropShadow dx="0" dy="0" stdDeviation="14" flood-color="#3B82FF" flood-opacity="0.45" /></filter><filter id="grain71"><feTurbulence type="fractalNoise" baseFrequency="0.847" numOctaves="2" seed="71" /><feColorMatrix type="saturate" values="0" /><feComponentTransfer><feFuncA type="table" tableValues="0 0.09" /></feComponentTransfer></filter></defs>
  <rect x="138" y="138" width="2796" height="2796" rx="629" fill="url(#bg71)" filter="url(#shadow71)" />
  <rect x="138" y="138" width="2796" height="2796" rx="629" fill="url(#sun71)" />
  <g><circle cx="2544" cy="2273" r="120" fill="#FFFFFF" opacity="0.119" /><circle cx="1517" cy="2652" r="122" fill="#FFFFFF" opacity="0.129" /><circle cx="1380" cy="2543" r="118" fill="#FFFFFF" opacity="0.183" /><circle cx="2002" cy="1582" r="41" fill="#FFFFFF" opacity="0.142" /><circle cx="828" cy="986" r="117" fill="#FFFFFF" opacity="0.229" /><circle cx="2140" cy="1156" r="135" fill="#FFFFFF" opacity="0.122" /><circle cx="947" cy="2384" r="122" fill="#FFFFFF" opacity="0.206" /><circle cx="1240" cy="2688" r="133" fill="#FFFFFF" opacity="0.150" /><circle cx="492" cy="1821" r="49" fill="#FFFFFF" opacity="0.114" /><circle cx="1294" cy="1880" r="119" fill="#FFFFFF" opacity="0.174" /><circle cx="1861" cy="383" r="105" fill="#FFFFFF" opacity="0.137" /><circle cx="1783" cy="998" r="52" fill="#FFFFFF" opacity="0.104" /><circle cx="1597" cy="629" r="110" fill="#FFFFFF" opacity="0.070" /><circle cx="1049" cy="825" r="46" fill="#FFFFFF" opacity="0.104" /><circle cx="1462" cy="1015" r="80" fill="#FFFFFF" opacity="0.198" /><circle cx="1902" cy="1154" r="92" fill="#FFFFFF" opacity="0.166" /><circle cx="402" cy="1257" r="112" fill="#FFFFFF" opacity="0.203" /><circle cx="440" cy="2626" r="50" fill="#FFFFFF" opacity="0.061" /><circle cx="2409" cy="1846" r="64" fill="#FFFFFF" opacity="0.065" /><circle cx="2454" cy="332" r="56" fill="#FFFFFF" opacity="0.203" /><circle cx="603" cy="2519" r="133" fill="#FFFFFF" opacity="0.076" /><circle cx="2034" cy="331" r="101" fill="#FFFFFF" opacity="0.175" /><circle cx="568" cy="2075" r="118" fill="#FFFFFF" opacity="0.140" /><circle cx="1770" cy="1568" r="150" fill="#FFFFFF" opacity="0.159" /><circle cx="1219" cy="1939" r="71" fill="#FFFFFF" opacity="0.167" /><circle cx="2154" cy="713" r="41" fill="#FFFFFF" opacity="0.206" /><circle cx="919" cy="1485" r="136" fill="#FFFFFF" opacity="0.121" /><circle cx="2226" cy="733" r="44" fill="#FFFFFF" opacity="0.065" /></g>
  <g><path d="M 310.0 586.3 L 2695.8 309.8 L 2695.8 734.0 L 310.0 1010.4 Z" fill="#FFFFFF" opacity="0.200" /><path d="M 295.9 881.3 L 2731.3 604.8 L 2731.3 1036.5 L 295.9 1313.0 Z" fill="#FFFFFF" opacity="0.179" /><path d="M 196.1 1164.2 L 2688.9 887.8 L 2688.9 1370.4 L 196.1 1646.9 Z" fill="#FFFFFF" opacity="0.207" /><path d="M 295.5 1439.1 L 2788.5 1162.6 L 2788.5 1600.2 L 295.5 1876.7 Z" fill="#FFFFFF" opacity="0.161" /><path d="M 186.2 1628.8 L 2875.8 1352.3 L 2875.8 1818.7 L 186.2 2095.2 Z" fill="#FFFFFF" opacity="0.124" /><path d="M 156.4 1892.2 L 2857.3 1615.7 L 2857.3 2053.5 L 156.4 2330.0 Z" fill="#FFFFFF" opacity="0.146" /><path d="M 305.0 2189.8 L 2688.3 1913.3 L 2688.3 2391.5 L 305.0 2668.0 Z" fill="#FFFFFF" opacity="0.139" /><path d="M 225.2 2403.6 L 2763.2 2127.1 L 2763.2 2550.9 L 225.2 2827.3 Z" fill="#FFFFFF" opacity="0.226" /></g>
  <g filter="url(#soft71)"><g transform="rotate(-18.72 1536.0 1536.0)"><path d="M-368.6 491.2 C -225.8 475.3, -25.8 500.4, 107.5 444.1 C 250.4 438.4, 450.4 525.5, 583.7 437.6 C 726.5 454.2, 926.5 516.3, 1059.8 463.6 C 1202.7 473.8, 1402.7 517.7, 1536.0 506.3 C 1678.8 504.3, 1878.8 486.2, 2012.2 539.9 C 2155.0 538.9, 2355.0 472.5, 2488.3 543.9 C 2631.2 532.7, 2831.2 475.1, 2964.5 516.0 C 3107.3 511.4, 3307.3 479.1, 3440.6 473.0" fill="none" stroke="url(#ribbon71)" stroke-width="58.4" stroke-linecap="round" stroke-opacity="0.120" /></g><g transform="rotate(-18.14 1536.0 1536.0)"><path d="M-368.6 662.4 C -241.7 625.9, -63.9 684.6, 54.6 672.1 C 181.6 669.0, 359.4 652.3, 477.9 713.4 C 604.8 733.7, 782.6 614.7, 901.1 723.7 C 1028.1 707.2, 1205.9 613.4, 1324.4 696.8 C 1451.3 695.6, 1629.1 650.9, 1747.6 649.0 C 1874.6 644.2, 2052.4 670.4, 2170.9 609.4 C 2297.9 595.3, 2475.6 688.3, 2594.1 601.9 C 2721.1 580.2, 2898.9 694.9, 3017.4 631.1 C 3144.4 627.9, 3322.1 677.6, 3440.6 679.2" fill="none" stroke="url(#ribbon71)" stroke-width="54.4" stroke-linecap="round" stroke-opacity="0.146" /></g><g transform="rotate(-17.56 1536.0 1536.0)"><path d="M-368.6 864.6 C -254.4 856.5, -94.4 868.2, 12.3 807.9 C 126.6 789.1, 286.6 898.1, 393.2 796.4 C 507.5 807.5, 667.5 941.8, 774.1 826.2 C 888.4 817.5, 1048.4 906.4, 1155.1 879.3 C 1269.4 874.7, 1429.3 857.4, 1536.0 923.5 C 1650.3 935.7, 1810.3 842.6, 1916.9 932.0 C 2031.2 918.9, 2191.2 803.9, 2297.9 899.6 C 2412.1 903.0, 2572.1 833.8, 2678.8 845.9 C 2793.1 844.8, 2953.1 873.0, 3059.7 803.6 C 3174.0 807.4, 3334.0 926.1, 3440.6 798.3" fill="none" stroke="url(#ribbon71)" stroke-width="50.4" stroke-linecap="round" stroke-opacity="0.172" /></g><g transform="rotate(-16.98 1536.0 1536.0)"><path d="M-368.6 1122.2 C -264.8 1074.4, -119.3 1162.0, -22.3 1143.3 C 81.5 1142.7, 227.0 1101.7, 324.0 1189.6 C 427.8 1175.3, 573.3 1087.7, 670.3 1195.1 C 774.1 1192.4, 919.6 1096.3, 1016.6 1156.3 C 1120.4 1166.7, 1265.9 1082.0, 1362.9 1096.9 C 1466.7 1106.0, 1612.2 1142.0, 1709.1 1052.8 C 1813.0 1075.4, 1958.5 1157.2, 2055.4 1050.8 C 2159.3 1054.2, 2304.8 1184.5, 2401.7 1092.1 C 2505.6 1089.2, 2651.1 1152.9, 2748.0 1151.7 C 2851.9 1140.0, 2997.4 1100.1, 3094.3 1193.4 C 3198.2 1205.5, 3343.7 1046.6, 3440.6 1191.9" fill="none" stroke="url(#ribbon71)" stroke-width="46.4" stroke-linecap="round" stroke-opacity="0.198" /></g><g transform="rotate(-16.40 1536.0 1536.0)"><path d="M-368.6 1335.0 C -273.4 1284.3, -140.1 1392.6, -51.2 1325.4 C 44.0 1328.9, 177.4 1345.8, 266.2 1387.9 C 361.5 1407.1, 494.8 1292.9, 583.7 1418.3 C 678.9 1407.1, 812.2 1274.8, 901.1 1398.2 C 996.4 1385.8, 1129.7 1280.5, 1218.6 1339.8 C 1313.8 1338.4, 1447.1 1330.9, 1536.0 1278.5 C 1631.2 1292.7, 1764.6 1355.9, 1853.4 1251.5 C 1948.7 1284.7, 2082.0 1430.7, 2170.9 1275.2 C 2266.1 1252.9, 2399.4 1398.9, 2488.3 1335.2 C 2583.6 1335.1, 2716.9 1334.9, 2805.8 1395.1 C 2901.0 1406.1, 3034.3 1309.9, 3123.2 1418.6 C 3218.4 1409.9, 3351.8 1242.7, 3440.6 1391.4" fill="none" stroke="url(#ribbon71)" stroke-width="42.4" stroke-linecap="round" stroke-opacity="0.224" /></g><g transform="rotate(-15.82 1536.0 1536.0)"><path d="M-368.6 1474.3 C -225.8 1526.4, -25.8 1444.9, 107.5 1563.6 C 250.4 1553.7, 450.4 1371.7, 583.7 1525.3 C 726.5 1518.2, 926.5 1415.6, 1059.8 1456.1 C 1202.7 1454.4, 1402.7 1493.1, 1536.0 1397.9 C 1678.8 1403.2, 1878.8 1510.7, 2012.2 1386.1 C 2155.0 1359.2, 2355.0 1547.5, 2488.3 1427.8 C 2631.2 1427.4, 2831.2 1520.9, 2964.5 1497.7 C 3107.3 1493.4, 3307.3 1465.8, 3440.6 1553.5" fill="none" stroke="url(#ribbon71)" stroke-width="38.4" stroke-linecap="round" stroke-opacity="0.250" /></g><g transform="rotate(-15.24 1536.0 1536.0)"><path d="M-368.6 1709.9 C -241.7 1686.8, -63.9 1718.1, 54.6 1765.0 C 181.6 1755.1, 359.4 1665.3, 477.9 1806.2 C 604.8 1828.3, 782.6 1644.2, 901.1 1788.9 C 1028.1 1777.6, 1205.9 1684.4, 1324.4 1723.7 C 1451.3 1725.9, 1629.1 1698.0, 1747.6 1650.1 C 1874.6 1665.2, 2052.4 1765.5, 2170.9 1612.8 C 2297.9 1578.8, 2475.6 1803.4, 2594.1 1634.4 C 2721.1 1629.9, 2898.9 1777.8, 3017.4 1701.8 C 3144.4 1700.8, 3322.1 1718.4, 3440.6 1774.1" fill="none" stroke="url(#ribbon71)" stroke-width="34.4" stroke-linecap="round" stroke-opacity="0.276" /></g><g transform="rotate(-14.66 1536.0 1536.0)"><path d="M-368.6 1829.2 C -254.4 1750.7, -94.4 1869.7, 12.3 1807.8 C 126.6 1816.3, 286.6 1842.1, 393.2 1887.8 C 507.5 1880.3, 667.5 1767.6, 774.1 1932.3 C 888.4 1962.5, 1048.4 1774.6, 1155.1 1914.3 C 1269.4 1890.0, 1429.3 1730.2, 1536.0 1844.6 C 1650.3 1850.5, 1810.3 1819.2, 1916.9 1765.6 C 2031.2 1774.0, 2191.2 1875.4, 2297.9 1725.2 C 2412.1 1732.6, 2572.1 1906.9, 2678.8 1747.8 C 2793.1 1747.9, 2953.1 1920.4, 3059.7 1819.9 C 3174.0 1816.5, 3334.0 1833.4, 3440.6 1897.5" fill="none" stroke="url(#ribbon71)" stroke-width="30.4" stroke-linecap="round" stroke-opacity="0.302" /></g><g transform="rotate(-14.08 1536.0 1536.0)"><path d="M-368.6 2119.7 C -264.8 2116.7, -119.3 2121.4, -22.3 2037.6 C 81.5 2039.3, 227.0 2205.8, 324.0 2008.0 C 427.8 2027.3, 573.3 2188.8, 670.3 2046.2 C 774.1 2074.3, 919.6 2184.7, 1016.6 2128.9 C 1120.4 2129.9, 1265.9 2114.9, 1362.9 2206.1 C 1466.7 2222.5, 1612.2 2041.5, 1709.1 2230.8 C 1813.0 2236.8, 1958.5 2013.2, 2055.4 2188.2 C 2159.3 2187.0, 2304.8 2072.3, 2401.7 2104.0 C 2505.6 2101.4, 2651.1 2133.4, 2748.0 2029.3 C 2851.9 2035.2, 2997.4 2190.5, 3094.3 2009.5 C 3198.2 2003.6, 3343.7 2165.8, 3440.6 2056.5" fill="none" stroke="url(#ribbon71)" stroke-width="26.4" stroke-linecap="round" stroke-opacity="0.328" /></g><g transform="rotate(-13.50 1536.0 1536.0)"><path d="M-368.6 2319.8 C -273.4 2204.6, -140.1 2360.0, -51.2 2297.2 C 44.0 2305.8, 177.4 2336.5, 266.2 2387.8 C 361.5 2399.0, 494.8 2251.5, 583.7 2437.1 C 678.9 2412.4, 812.2 2204.4, 901.1 2415.3 C 996.4 2383.0, 1129.7 2241.9, 1218.6 2335.6 C 1313.8 2334.4, 1447.1 2312.8, 1536.0 2246.3 C 1631.2 2268.8, 1764.6 2404.7, 1853.4 2201.6 C 1948.7 2204.4, 2082.0 2384.2, 2170.9 2228.6 C 2266.1 2227.9, 2399.4 2406.7, 2488.3 2310.9 C 2583.6 2308.8, 2716.9 2324.1, 2805.8 2398.7 C 2901.0 2382.8, 3034.3 2234.7, 3123.2 2438.6 C 3218.4 2435.1, 3351.8 2205.0, 3440.6 2406.4" fill="none" stroke="url(#ribbon71)" stroke-width="22.4" stroke-linecap="round" stroke-opacity="0.354" /></g><g transform="rotate(-12.92 1536.0 1536.0)"><path d="M-368.6 2517.9 C -225.8 2506.3, -25.8 2524.5, 107.5 2601.9 C 250.4 2571.1, 450.4 2492.0, 583.7 2643.7 C 726.5 2600.6, 926.5 2400.4, 1059.8 2609.2 C 1202.7 2613.5, 1402.7 2438.3, 1536.0 2519.3 C 1678.8 2518.8, 1878.8 2517.1, 2012.2 2428.5 C 2155.0 2416.6, 2355.0 2597.9, 2488.3 2391.9 C 2631.2 2378.5, 2831.2 2622.9, 2964.5 2431.7 C 3107.3 2427.7, 3307.3 2564.9, 3440.6 2523.8" fill="none" stroke="url(#ribbon71)" stroke-width="18.4" stroke-linecap="round" stroke-opacity="0.380" /></g><g transform="rotate(-12.34 1536.0 1536.0)"><path d="M-368.6 2643.0 C -241.7 2547.4, -63.9 2720.9, 54.6 2667.9 C 181.6 2667.5, 359.4 2629.7, 477.9 2754.1 C 604.8 2751.4, 782.6 2545.5, 901.1 2772.8 C 1028.1 2759.6, 1205.9 2531.8, 1324.4 2712.8 C 1451.3 2717.0, 1629.1 2603.5, 1747.6 2610.4 C 1874.6 2611.1, 2052.4 2661.4, 2170.9 2527.8 C 2297.9 2545.7, 2475.6 2751.1, 2594.1 2515.0 C 2721.1 2497.2, 2898.9 2683.8, 3017.4 2579.9 C 3144.4 2562.7, 3322.1 2685.3, 3440.6 2683.0" fill="none" stroke="url(#ribbon71)" stroke-width="14.4" stroke-linecap="round" stroke-opacity="0.406" /></g></g>
  <g><ellipse cx="1536.0" cy="1551.9" rx="728.6" ry="605.7" fill="url(#extrude71)" opacity="0.220" /><ellipse cx="1536.0" cy="1567.7" rx="736.0" ry="610.9" fill="url(#extrude71)" opacity="0.205" /><ellipse cx="1536.0" cy="1583.6" rx="743.4" ry="616.1" fill="url(#extrude71)" opacity="0.190" /><ellipse cx="1536.0" cy="1599.5" rx="750.9" ry="621.3" fill="url(#extrude71)" opacity="0.175" /><ellipse cx="1536.0" cy="1615.4" rx="758.3" ry="626.5" fill="url(#extrude71)" opacity="0.160" /><ellipse cx="1536.0" cy="1631.2" rx="765.7" ry="631.7" fill="url(#extrude71)" opacity="0.145" /><ellipse cx="1536.0" cy="1647.1" rx="773.2" ry="636.9" fill="url(#extrude71)" opacity="0.130" /><ellipse cx="1536.0" cy="1663.0" rx="780.6" ry="642.1" fill="url(#extrude71)" opacity="0.115" /><ellipse cx="1536.0" cy="1678.8" rx="788.0" ry="647.4" fill="url(#extrude71)" opacity="0.100" /><ellipse cx="1536.0" cy="1694.7" rx="795.5" ry="652.6" fill="url(#extrude71)" opacity="0.085" /><ellipse cx="1536.0" cy="1710.6" rx="802.9" ry="657.8" fill="url(#extrude71)" opacity="0.070" /><ellipse cx="1536.0" cy="1726.5" rx="810.3" ry="663.0" fill="url(#extrude71)" opacity="0.055" /></g>
  <ellipse cx="1536.0" cy="1726.5" rx="773.2" ry="214.9" fill="#0B1D2D" opacity="0.24" />
  <ellipse cx="1536.0" cy="1536.0" rx="743.4" ry="651.3" fill="url(#orb71)" stroke="#FFFFFF" stroke-opacity="0.42" stroke-width="7" />
  <ellipse cx="1431.9" cy="1392.7" rx="505.5" ry="299.6" fill="#FFFFFF" opacity="0.25" />
  <path d="M 199.4 399.4 C 1013.8 -30.7, 2058.2 768.0, 2872.6 215.0 L 2872.6 983.0 C 2089.0 1228.8, 1013.8 307.2, 199.4 1167.4 Z" fill="url(#glass71)" />
  <rect x="270" y="270" width="2532" height="2532" rx="430" fill="none" stroke="#FFFFFF" stroke-opacity="0.30" stroke-width="5" />
  <rect x="288.4" y="288.4" width="2495.1" height="2495.1" rx="399" fill="none" stroke="#3B82FF" stroke-opacity="0.35" stroke-width="3" />
  <g filter="url(#soft71)"><rect x="2009" y="802" width="58" height="2" fill="#FFFFFF" opacity="0.352" /><rect x="2037" y="774" width="2" height="58" fill="#FFFFFF" opacity="0.352" /><rect x="368" y="1164" width="42" height="2" fill="#FFFFFF" opacity="0.654" /><rect x="388" y="1144" width="2" height="42" fill="#FFFFFF" opacity="0.654" /><rect x="351" y="1266" width="68" height="2" fill="#FFFFFF" opacity="0.733" /><rect x="384" y="1233" width="2" height="68" fill="#FFFFFF" opacity="0.733" /><rect x="1564" y="1971" width="24" height="2" fill="#FFFFFF" opacity="0.761" /><rect x="1575" y="1960" width="2" height="24" fill="#FFFFFF" opacity="0.761" /><rect x="406" y="2432" width="48" height="2" fill="#FFFFFF" opacity="0.412" /><rect x="429" y="2409" width="2" height="48" fill="#FFFFFF" opacity="0.412" /><rect x="372" y="2074" width="52" height="2" fill="#FFFFFF" opacity="0.659" /><rect x="397" y="2049" width="2" height="52" fill="#FFFFFF" opacity="0.659" /><rect x="2069" y="2411" width="78" height="2" fill="#FFFFFF" opacity="0.586" /><rect x="2107" y="2373" width="2" height="78" fill="#FFFFFF" opacity="0.586" /><rect x="459" y="1975" width="42" height="2" fill="#FFFFFF" opacity="0.467" /><rect x="479" y="1955" width="2" height="42" fill="#FFFFFF" opacity="0.467" /><rect x="1076" y="906" width="48" height="2" fill="#FFFFFF" opacity="0.498" /><rect x="1099" y="883" width="2" height="48" fill="#FFFFFF" opacity="0.498" /><rect x="749" y="2206" width="54" height="2" fill="#FFFFFF" opacity="0.658" /><rect x="775" y="2180" width="2" height="54" fill="#FFFFFF" opacity="0.658" /><rect x="1233" y="2266" width="80" height="2" fill="#FFFFFF" opacity="0.714" /><rect x="1272" y="2227" width="2" height="80" fill="#FFFFFF" opacity="0.714" /><rect x="2411" y="1740" width="38" height="2" fill="#FFFFFF" opacity="0.612" /><rect x="2429" y="1722" width="2" height="38" fill="#FFFFFF" opacity="0.612" /><rect x="2069" y="435" width="44" height="2" fill="#FFFFFF" opacity="0.543" /><rect x="2090" y="414" width="2" height="44" fill="#FFFFFF" opacity="0.543" /><rect x="652" y="964" width="38" height="2" fill="#FFFFFF" opacity="0.660" /><rect x="670" y="946" width="2" height="38" fill="#FFFFFF" opacity="0.660" /><rect x="1266" y="1218" width="60" height="2" fill="#FFFFFF" opacity="0.561" /><rect x="1295" y="1189" width="2" height="60" fill="#FFFFFF" opacity="0.561" /><rect x="2022" y="1668" width="62" height="2" fill="#FFFFFF" opacity="0.429" /><rect x="2052" y="1638" width="2" height="62" fill="#FFFFFF" opacity="0.429" /><rect x="2744" y="1245" width="82" height="2" fill="#FFFFFF" opacity="0.371" /><rect x="2784" y="1205" width="2" height="82" fill="#FFFFFF" opacity="0.371" /><rect x="1533" y="1519" width="52" height="2" fill="#FFFFFF" opacity="0.678" /><rect x="1558" y="1494" width="2" height="52" fill="#FFFFFF" opacity="0.678" /><rect x="1961" y="1735" width="26" height="2" fill="#FFFFFF" opacity="0.374" /><rect x="1973" y="1723" width="2" height="26" fill="#FFFFFF" opacity="0.374" /><rect x="2636" y="658" width="78" height="2" fill="#FFFFFF" opacity="0.340" /><rect x="2674" y="620" width="2" height="78" fill="#FFFFFF" opacity="0.340" /><rect x="1520" y="1629" width="52" height="2" fill="#FFFFFF" opacity="0.419" /><rect x="1545" y="1604" width="2" height="52" fill="#FFFFFF" opacity="0.419" /><rect x="2330" y="267" width="58" height="2" fill="#FFFFFF" opacity="0.349" /><rect x="2358" y="239" width="2" height="58" fill="#FFFFFF" opacity="0.349" /><rect x="2123" y="334" width="84" height="2" fill="#FFFFFF" opacity="0.822" /><rect x="2164" y="293" width="2" height="84" fill="#FFFFFF" opacity="0.822" /><rect x="1324" y="670" width="80" height="2" fill="#FFFFFF" opacity="0.479" /><rect x="1363" y="631" width="2" height="80" fill="#FFFFFF" opacity="0.479" /><rect x="893" y="2508" width="34" height="2" fill="#FFFFFF" opacity="0.809" /><rect x="909" y="2492" width="2" height="34" fill="#FFFFFF" opacity="0.809" /><rect x="2070" y="1468" width="80" height="2" fill="#FFFFFF" opacity="0.758" /><rect x="2109" y="1429" width="2" height="80" fill="#FFFFFF" opacity="0.758" /></g>
  <g opacity="0.52"><path d="M996 1006 L2148 1006 L2148 2158 L996 2158 Z" fill="none" stroke="#0C2030" stroke-width="90" /><path d="M996 1582 L2148 1582" stroke="#0C2030" stroke-width="90" /><path d="M1572 1006 L1572 2158" stroke="#0C2030" stroke-width="90" /></g>
  <g filter="url(#soft71)"><path d="M960 960 L2112 960 L2112 2112 L960 2112 Z" fill="none" stroke="url(#symbol71)" stroke-width="90" /><path d="M960 1536 L2112 1536" stroke="url(#symbol71)" stroke-width="90" /><path d="M1536 960 L1536 2112" stroke="url(#symbol71)" stroke-width="90" /></g>
  <rect x="138" y="138" width="2796" height="2796" rx="629" fill="#FFFFFF" filter="url(#grain71)" opacity="0.18" />
</svg>
