<svg xmlns="http://www.w3.org/2000/svg" width="3072" height="3072" viewBox="0 0 3072 3072">
  <title>QuartzOS App Icon 052 - alpha_board_052</title>
  <defs><linearGradient id="bg51" x1="0%" y1="0%" x2="100%" y2="100%"><stop offset="0%" stop-color="#8A5CFF" /><stop offset="26%" stop-color="#FF9F43" /><stop offset="56%" stop-color="#53E3A6" /><stop offset="78%" stop-color="#6C7CC5" /><stop offset="100%" stop-color="#1E2032" /></linearGradient><radialGradient id="sun51" cx="28%" cy="30%" r="88%"><stop offset="0%" stop-color="#FFFFFF" stop-opacity="0.62" /><stop offset="30%" stop-color="#36D1FF" stop-opacity="0.35" /><stop offset="100%" stop-color="#36D1FF" stop-opacity="0" /></radialGradient><linearGradient id="glass51" x1="0%" y1="0%" x2="0%" y2="100%"><stop offset="0%" stop-color="#FFFFFF" stop-opacity="0.70" /><stop offset="46%" stop-color="#FFFFFF" stop-opacity="0.26" /><stop offset="100%" stop-color="#FFFFFF" stop-opacity="0.00" /></linearGradient><linearGradient id="ribbon51" x1="0%" y1="0%" x2="100%" y2="0%"><stop offset="0%" stop-color="#8A5CFF" stop-opacity="0.18" /><stop offset="34%" stop-color="#FF9F43" stop-opacity="0.72" /><stop offset="66%" stop-color="#53E3A6" stop-opacity="0.72" /><stop offset="100%" stop-color="#36D1FF" stop-opacity="0.18" /></linearGradient><radialGradient id="orb51" cx="34%" cy="27%" r="74%"><stop offset="0%" stop-color="#FFFFFF" stop-opacity="0.84" /><stop offset="30%" stop-color="#8A5CFF" stop-opacity="0.52" /><stop offset="68%" stop-color="#FF9F43" stop-opacity="0.42" /><stop offset="100%" stop-color="#53E3A6" stop-opacity="0.20" /></radialGradient><linearGradient id="extrude51" x1="0%" y1="0%" x2="0%" y2="100%"><stop offset="0%" stop-color="#15283C" stop-opacity="0.45" /><stop offset="100%" stop-color="#08131D" stop-opacity="0.06" /></linearGradient><linearGradient id="symbol51" x1="0%" y1="0%" x2="100%" y2="100%"><stop offset="0%" stop-color="#FFFFFF" /><stop offset="100%" stop-color="#36D1FF" /></linearGradient><filter id="shadow51" x="-40%" y="-40%" width="180%" height="180%"><feDropShadow dx="0" dy="49" stdDeviation="86" flood-color="#06111A" flood-opacity="0.54" /></filter><filter id="soft51" x="-40%" y="-40%" width="180%" height="180%"><feDropShadow dx="0" dy="0" stdDeviation="14" flood-color="#8A5CFF" flood-opacity="0.45" /></filter><filter id="grain51"><feTurbulence type="fractalNoise" baseFrequency="0.651" numOctaves="2" seed="51" /><feColorMatrix type="saturate" values="0" /><feComponentTransfer><feFuncA type="table" tableValues="0 0.09" /></feComponentTransfer></filter></defs>
  <rect x="138" y="138" width="2796" height="2796" rx="629" fill="url(#bg51)" filter="url(#shadow51)" />
  <rect x="138" y="138" width="2796" height="2796" rx="629" fill="url(#sun51)" />
  <g><circle cx="1857" cy="1530" r="152" fill="#FFFFFF" opacity="0.119" /><circle cx="878" cy="2626" r="41" fill="#FFFFFF" opacity="0.195" /><circle cx="2692" cy="1786" r="67" fill="#FFFFFF" opacity="0.096" /><circle cx="1845" cy="2143" r="71" fill="#FFFFFF" opacity="0.207" /><circle cx="1140" cy="588" r="81" fill="#FFFFFF" opacity="0.094" /><circle cx="1397" cy="2072" r="105" fill="#FFFFFF" opacity="0.208" /><circle cx="992" cy="2520" r="47" fill="#FFFFFF" opacity="0.177" /><circle cx="1254" cy="905" r="91" fill="#FFFFFF" opacity="0.133" /><circle cx="402" cy="952" r="128" fill="#FFFFFF" opacity="0.074" /><circle cx="1304" cy="1952" r="95" fill="#FFFFFF" opacity="0.190" /><circle cx="549" cy="2645" r="118" fill="#FFFFFF" opacity="0.128" /><circle cx="1629" cy="2070" r="42" fill="#FFFFFF" opacity="0.229" /><circle cx="2204" cy="986" r="151" fill="#FFFFFF" opacity="0.078" /><circle cx="1766" cy="921" r="109" fill="#FFFFFF" opacity="0.205" /><circle cx="1842" cy="890" r="104" fill="#FFFFFF" opacity="0.207" /><circle cx="1856" cy="1984" r="48" fill="#FFFFFF" opacity="0.113" /><circle cx="1333" cy="1920" r="135" fill="#FFFFFF" opacity="0.155" /><circle cx="1028" cy="539" r="151" fill="#FFFFFF" opacity="0.106" /><circle cx="854" cy="1922" r="39" fill="#FFFFFF" opacity="0.080" /><circle cx="2346" cy="1765" r="158" fill="#FFFFFF" opacity="0.096" /><circle cx="699" cy="2010" r="111" fill="#FFFFFF" opacity="0.217" /><circle cx="975" cy="1824" r="51" fill="#FFFFFF" opacity="0.080" /><circle cx="2648" cy="919" r="84" fill="#FFFFFF" opacity="0.088" /><circle cx="2263" cy="1469" r="145" fill="#FFFFFF" opacity="0.114" /><circle cx="1567" cy="2680" r="71" fill="#FFFFFF" opacity="0.231" /><circle cx="2025" cy="1809" r="115" fill="#FFFFFF" opacity="0.126" /><circle cx="2246" cy="1691" r="71" fill="#FFFFFF" opacity="0.183" /><circle cx="1419" cy="1435" r="151" fill="#FFFFFF" opacity="0.095" /></g>
  <g><path d="M 390.1 584.6 L 2860.2 308.1 L 2860.2 800.3 L 390.1 1076.8 Z" fill="#FFFFFF" opacity="0.239" /><path d="M 188.8 897.5 L 2681.3 621.1 L 2681.3 1044.6 L 188.8 1321.1 Z" fill="#FFFFFF" opacity="0.143" /><path d="M 225.7 1180.4 L 2869.4 903.9 L 2869.4 1352.7 L 225.7 1629.1 Z" fill="#FFFFFF" opacity="0.185" /><path d="M 318.6 1399.5 L 2834.0 1123.0 L 2834.0 1556.4 L 318.6 1832.9 Z" fill="#FFFFFF" opacity="0.145" /><path d="M 170.0 1657.1 L 2901.2 1380.6 L 2901.2 1805.7 L 170.0 2082.2 Z" fill="#FFFFFF" opacity="0.158" /><path d="M 322.2 1891.8 L 2837.7 1615.3 L 2837.7 2088.9 L 322.2 2365.4 Z" fill="#FFFFFF" opacity="0.128" /><path d="M 150.1 2158.3 L 2771.4 1881.8 L 2771.4 2367.3 L 150.1 2643.8 Z" fill="#FFFFFF" opacity="0.158" /><path d="M 228.8 2437.5 L 2884.7 2161.0 L 2884.7 2646.2 L 228.8 2922.7 Z" fill="#FFFFFF" opacity="0.207" /></g>
  <g filter="url(#soft51)"><g transform="rotate(-6.17 1536.0 1536.0)"><path d="M-368.6 552.2 C -225.8 552.1, -25.8 552.4, 107.5 591.8 C 250.4 578.5, 450.4 509.5, 583.7 607.5 C 726.5 610.2, 926.5 533.0, 1059.8 589.7 C 1202.7 579.0, 1402.7 528.1, 1536.0 549.1 C 1678.8 548.6, 1878.8 554.1, 2012.2 510.4 C 2155.0 503.6, 2355.0 569.5, 2488.3 497.1 C 2631.2 497.9, 2831.2 572.7, 2964.5 517.2 C 3107.3 512.4, 3307.3 591.9, 3440.6 558.5" fill="none" stroke="url(#ribbon51)" stroke-width="58.4" stroke-linecap="round" stroke-opacity="0.120" /></g><g transform="rotate(-5.59 1536.0 1536.0)"><path d="M-368.6 754.6 C -241.7 807.6, -63.9 710.4, 54.6 746.4 C 181.6 747.9, 359.4 763.9, 477.9 704.5 C 604.8 718.3, 782.6 808.8, 901.1 693.1 C 1028.1 699.4, 1205.9 814.5, 1324.4 718.9 C 1451.3 716.7, 1629.1 775.8, 1747.6 766.4 C 1874.6 769.0, 2052.4 744.6, 2170.9 806.8 C 2297.9 786.6, 2475.6 716.3, 2594.1 815.5 C 2721.1 798.5, 2898.9 691.3, 3017.4 787.3 C 3144.4 777.5, 3322.1 729.7, 3440.6 739.2" fill="none" stroke="url(#ribbon51)" stroke-width="54.4" stroke-linecap="round" stroke-opacity="0.146" /></g><g transform="rotate(-5.01 1536.0 1536.0)"><path d="M-368.6 915.1 C -254.4 955.6, -94.4 875.7, 12.3 918.7 C 126.6 918.4, 286.6 914.0, 393.2 867.9 C 507.5 884.6, 667.5 962.2, 774.1 845.7 C 888.4 840.2, 1048.4 974.0, 1155.1 865.6 C 1269.4 853.9, 1429.3 968.2, 1536.0 915.5 C 1650.3 915.4, 1810.3 914.7, 1916.9 965.2 C 2031.2 954.2, 2191.2 875.6, 2297.9 984.5 C 2412.1 963.0, 2572.1 849.5, 2678.8 961.7 C 2793.1 977.5, 2953.1 871.7, 3059.7 910.6 C 3174.0 910.9, 3334.0 919.1, 3440.6 862.3" fill="none" stroke="url(#ribbon51)" stroke-width="50.4" stroke-linecap="round" stroke-opacity="0.172" /></g><g transform="rotate(-4.43 1536.0 1536.0)"><path d="M-368.6 1042.8 C -264.8 998.5, -119.3 1088.5, -22.3 1043.5 C 81.5 1043.6, 227.0 1042.0, 324.0 1098.2 C 427.8 1097.2, 573.3 980.3, 670.3 1119.2 C 774.1 1148.7, 919.6 1006.1, 1016.6 1093.9 C 1120.4 1078.2, 1265.9 1021.6, 1362.9 1037.5 C 1466.7 1036.8, 1612.2 1044.6, 1709.1 984.4 C 1813.0 967.5, 1958.5 1067.3, 2055.4 966.6 C 2159.3 988.2, 2304.8 1093.1, 2401.7 995.1 C 2505.6 994.1, 2651.1 1070.3, 2748.0 1052.4 C 2851.9 1056.3, 2997.4 1033.2, 3094.3 1103.9 C 3198.2 1097.8, 3343.7 991.3, 3440.6 1118.3" fill="none" stroke="url(#ribbon51)" stroke-width="46.4" stroke-linecap="round" stroke-opacity="0.198" /></g><g transform="rotate(-3.85 1536.0 1536.0)"><path d="M-368.6 1324.8 C -273.4 1382.8, -140.1 1276.9, -51.2 1399.8 C 44.0 1388.2, 177.4 1258.7, 266.2 1350.6 C 361.5 1341.3, 494.8 1305.8, 583.7 1285.8 C 678.9 1283.7, 812.2 1365.7, 901.1 1244.6 C 996.4 1237.2, 1129.7 1381.8, 1218.6 1252.2 C 1313.8 1257.6, 1447.1 1382.3, 1536.0 1303.8 C 1631.2 1295.9, 1764.6 1346.8, 1853.4 1368.2 C 1948.7 1385.2, 2082.0 1308.3, 2170.9 1406.3 C 2266.1 1401.3, 2399.4 1261.2, 2488.3 1395.0 C 2583.6 1396.4, 2716.9 1281.2, 2805.8 1341.2 C 2901.0 1337.2, 3034.3 1315.2, 3123.2 1277.4 C 3218.4 1283.3, 3351.8 1366.1, 3440.6 1242.4" fill="none" stroke="url(#ribbon51)" stroke-width="42.4" stroke-linecap="round" stroke-opacity="0.224" /></g><g transform="rotate(-3.27 1536.0 1536.0)"><path d="M-368.6 1471.9 C -225.8 1423.1, -25.8 1501.0, 107.5 1381.8 C 250.4 1365.8, 450.4 1578.8, 583.7 1402.0 C 726.5 1428.8, 926.5 1530.9, 1059.8 1464.5 C 1202.7 1463.9, 1402.7 1474.7, 1536.0 1531.5 C 1678.8 1536.1, 1878.8 1443.9, 2012.2 1562.4 C 2155.0 1563.6, 2355.0 1400.9, 2488.3 1538.3 C 2631.2 1515.6, 2831.2 1415.7, 2964.5 1473.9 C 3107.3 1473.4, 3307.3 1469.5, 3440.6 1408.3" fill="none" stroke="url(#ribbon51)" stroke-width="38.4" stroke-linecap="round" stroke-opacity="0.250" /></g><g transform="rotate(-2.69 1536.0 1536.0)"><path d="M-368.6 1642.2 C -241.7 1542.0, -63.9 1726.3, 54.6 1602.1 C 181.6 1605.7, 359.4 1688.0, 477.9 1678.2 C 604.8 1667.8, 782.6 1615.7, 901.1 1732.4 C 1028.1 1757.0, 1205.9 1569.7, 1324.4 1732.0 C 1451.3 1715.7, 1629.1 1603.3, 1747.6 1677.1 C 1874.6 1675.1, 2052.4 1626.3, 2170.9 1601.0 C 2297.9 1611.0, 2475.6 1659.8, 2594.1 1550.0 C 2721.1 1546.0, 2898.9 1687.9, 3017.4 1554.9 C 3144.4 1575.8, 3322.1 1712.2, 3440.6 1612.8" fill="none" stroke="url(#ribbon51)" stroke-width="34.4" stroke-linecap="round" stroke-opacity="0.276" /></g><g transform="rotate(-2.11 1536.0 1536.0)"><path d="M-368.6 1880.1 C -254.4 1907.2, -94.4 1833.5, 12.3 1977.1 C 126.6 1955.3, 286.6 1795.3, 393.2 1976.1 C 507.5 2001.6, 667.5 1841.8, 774.1 1916.8 C 888.4 1924.0, 1048.4 1845.9, 1155.1 1835.3 C 1269.4 1842.3, 1429.3 1896.7, 1536.0 1781.0 C 1650.3 1810.7, 1810.3 1988.8, 1916.9 1786.7 C 2031.2 1773.3, 2191.2 1914.9, 2297.9 1849.1 C 2412.1 1854.1, 2572.1 1891.1, 2678.8 1930.3 C 2793.1 1928.1, 2953.1 1838.8, 3059.7 1981.0 C 3174.0 2012.2, 3334.0 1791.8, 3440.6 1970.5" fill="none" stroke="url(#ribbon51)" stroke-width="30.4" stroke-linecap="round" stroke-opacity="0.302" /></g><g transform="rotate(-1.53 1536.0 1536.0)"><path d="M-368.6 2099.6 C -264.8 2180.8, -119.3 2019.8, -22.3 2211.5 C 81.5 2183.1, 227.0 1990.5, 324.0 2177.7 C 427.8 2206.9, 573.3 2011.6, 670.3 2096.6 C 774.1 2095.5, 919.6 2101.6, 1016.6 2017.3 C 1120.4 2013.0, 1265.9 2156.0, 1362.9 1988.0 C 1466.7 1954.7, 1612.2 2204.5, 1709.1 2026.3 C 1813.0 2011.4, 1958.5 2130.8, 2055.4 2109.2 C 2159.3 2111.2, 2304.8 2092.9, 2401.7 2186.2 C 2505.6 2164.3, 2651.1 2020.3, 2748.0 2210.7 C 2851.9 2201.7, 2997.4 2063.5, 3094.3 2167.9 C 3198.2 2151.9, 3343.7 2051.7, 3440.6 2083.6" fill="none" stroke="url(#ribbon51)" stroke-width="26.4" stroke-linecap="round" stroke-opacity="0.328" /></g><g transform="rotate(-0.95 1536.0 1536.0)"><path d="M-368.6 2287.5 C -273.4 2342.2, -140.1 2258.4, -51.2 2398.1 C 44.0 2358.2, 177.4 2242.0, 266.2 2395.8 C 361.5 2357.6, 494.8 2216.3, 583.7 2327.8 C 678.9 2343.7, 812.2 2249.4, 901.1 2235.4 C 996.4 2244.5, 1129.7 2321.9, 1218.6 2174.6 C 1313.8 2178.7, 1447.1 2370.4, 1536.0 2182.2 C 1631.2 2175.6, 1764.6 2407.3, 1853.4 2253.8 C 1948.7 2256.7, 2082.0 2327.7, 2170.9 2345.8 C 2266.1 2339.1, 2399.4 2262.1, 2488.3 2402.5 C 2583.6 2411.1, 2716.9 2183.5, 2805.8 2389.4 C 2901.0 2423.2, 3034.3 2196.5, 3123.2 2314.5 C 3218.4 2322.2, 3351.8 2261.2, 3440.6 2223.3" fill="none" stroke="url(#ribbon51)" stroke-width="22.4" stroke-linecap="round" stroke-opacity="0.354" /></g><g transform="rotate(-0.37 1536.0 1536.0)"><path d="M-368.6 2444.8 C -225.8 2601.4, -25.8 2386.8, 107.5 2552.2 C 250.4 2593.1, 450.4 2366.4, 583.7 2472.4 C 726.5 2471.1, 926.5 2433.3, 1059.8 2375.9 C 1202.7 2369.1, 1402.7 2487.5, 1536.0 2321.1 C 1678.8 2354.5, 1878.8 2495.7, 2012.2 2341.4 C 2155.0 2309.2, 2355.0 2519.7, 2488.3 2424.4 C 2631.2 2429.1, 2831.2 2457.4, 2964.5 2519.7 C 3107.3 2522.4, 3307.3 2362.6, 3440.6 2569.6" fill="none" stroke="url(#ribbon51)" stroke-width="18.4" stroke-linecap="round" stroke-opacity="0.380" /></g><g transform="rotate(0.21 1536.0 1536.0)"><path d="M-368.6 2610.4 C -241.7 2572.3, -63.9 2637.4, 54.6 2482.9 C 181.6 2514.7, 359.4 2688.3, 477.9 2494.3 C 604.8 2448.2, 782.6 2671.4, 901.1 2576.2 C 1028.1 2576.1, 1205.9 2650.9, 1324.4 2678.7 C 1451.3 2681.8, 1629.1 2528.5, 1747.6 2739.9 C 1874.6 2730.1, 2052.4 2552.9, 2170.9 2722.5 C 2297.9 2746.1, 2475.6 2576.2, 2594.1 2637.1 C 2721.1 2628.3, 2898.9 2598.2, 3017.4 2535.5 C 3144.4 2527.6, 3322.1 2652.8, 3440.6 2479.3" fill="none" stroke="url(#ribbon51)" stroke-width="14.4" stroke-linecap="round" stroke-opacity="0.406" /></g></g>
  <g><ellipse cx="1536.0" cy="1551.9" rx="728.6" ry="605.7" fill="url(#extrude51)" opacity="0.220" /><ellipse cx="1536.0" cy="1567.7" rx="736.0" ry="610.9" fill="url(#extrude51)" opacity="0.205" /><ellipse cx="1536.0" cy="1583.6" rx="743.4" ry="616.1" fill="url(#extrude51)" opacity="0.190" /><ellipse cx="1536.0" cy="1599.5" rx="750.9" ry="621.3" fill="url(#extrude51)" opacity="0.175" /><ellipse cx="1536.0" cy="1615.4" rx="758.3" ry="626.5" fill="url(#extrude51)" opacity="0.160" /><ellipse cx="1536.0" cy="1631.2" rx="765.7" ry="631.7" fill="url(#extrude51)" opacity="0.145" /><ellipse cx="1536.0" cy="1647.1" rx="773.2" ry="636.9" fill="url(#extrude51)" opacity="0.130" /><ellipse cx="1536.0" cy="1663.0" rx="780.6" ry="642.1" fill="url(#extrude51)" opacity="0.115" /><ellipse cx="1536.0" cy="1678.8" rx="788.0" ry="647.4" fill="url(#extrude51)" opacity="0.100" /><ellipse cx="1536.0" cy="1694.7" rx="795.5" ry="652.6" fill="url(#extrude51)" opacity="0.085" /><ellipse cx="1536.0" cy="1710.6" rx="802.9" ry="657.8" fill="url(#extrude51)" opacity="0.070" /><ellipse cx="1536.0" cy="1726.5" rx="810.3" ry="663.0" fill="url(#extrude51)" opacity="0.055" /></g>
  <ellipse cx="1536.0" cy="1726.5" rx="773.2" ry="214.9" fill="#0B1D2D" opacity="0.24" />
  <ellipse cx="1536.0" cy="1536.0" rx="743.4" ry="651.3" fill="url(#orb51)" stroke="#FFFFFF" stroke-opacity="0.42" stroke-width="7" />
  <ellipse cx="1431.9" cy="1392.7" rx="505.5" ry="299.6" fill="#FFFFFF" opacity="0.25" />
  <path d="M 199.4 399.4 C 1013.8 -30.7, 2058.2 768.0, 2872.6 215.0 L 2872.6 983.0 C 2089.0 1228.8, 1013.8 307.2, 199.4 1167.4 Z" fill="url(#glass51)" />
  <rect x="270" y="270" width="2532" height="2532" rx="430" fill="none" stroke="#FFFFFF" stroke-opacity="0.30" stroke-width="5" />
  <rect x="288.4" y="288.4" width="2495.1" height="2495.1" rx="399" fill="none" stroke="#8A5CFF" stroke-opacity="0.35" stroke-width="3" />
  <g filter="url(#soft51)"><rect x="2767" y="815" width="70" height="2" fill="#FFFFFF" opacity="0.337" /><rect x="2801" y="781" width="2" height="70" fill="#FFFFFF" opacity="0.337" /><rect x="1604" y="977" width="28" height="2" fill="#FFFFFF" opacity="0.478" /><rect x="1617" y="964" width="2" height="28" fill="#FFFFFF" opacity="0.478" /><rect x="1106" y="1280" width="66" height="2" fill="#FFFFFF" opacity="0.457" /><rect x="1138" y="1248" width="2" height="66" fill="#FFFFFF" opacity="0.457" /><rect x="1537" y="1466" width="58" height="2" fill="#FFFFFF" opacity="0.752" /><rect x="1565" y="1438" width="2" height="58" fill="#FFFFFF" opacity="0.752" /><rect x="1006" y="2464" width="54" height="2" fill="#FFFFFF" opacity="0.480" /><rect x="1032" y="2438" width="2" height="54" fill="#FFFFFF" opacity="0.480" /><rect x="1133" y="1385" width="64" height="2" fill="#FFFFFF" opacity="0.728" /><rect x="1164" y="1354" width="2" height="64" fill="#FFFFFF" opacity="0.728" /><rect x="1523" y="2230" width="28" height="2" fill="#FFFFFF" opacity="0.784" /><rect x="1536" y="2217" width="2" height="28" fill="#FFFFFF" opacity="0.784" /><rect x="1639" y="2180" width="24" height="2" fill="#FFFFFF" opacity="0.600" /><rect x="1650" y="2169" width="2" height="24" fill="#FFFFFF" opacity="0.600" /><rect x="1938" y="2165" width="72" height="2" fill="#FFFFFF" opacity="0.382" /><rect x="1973" y="2130" width="2" height="72" fill="#FFFFFF" opacity="0.382" /><rect x="1218" y="340" width="46" height="2" fill="#FFFFFF" opacity="0.433" /><rect x="1240" y="318" width="2" height="46" fill="#FFFFFF" opacity="0.433" /><rect x="420" y="795" width="48" height="2" fill="#FFFFFF" opacity="0.683" /><rect x="443" y="772" width="2" height="48" fill="#FFFFFF" opacity="0.683" /><rect x="1897" y="2409" width="32" height="2" fill="#FFFFFF" opacity="0.570" /><rect x="1912" y="2394" width="2" height="32" fill="#FFFFFF" opacity="0.570" /><rect x="2534" y="1443" width="66" height="2" fill="#FFFFFF" opacity="0.609" /><rect x="2566" y="1411" width="2" height="66" fill="#FFFFFF" opacity="0.609" /><rect x="1198" y="1754" width="48" height="2" fill="#FFFFFF" opacity="0.551" /><rect x="1221" y="1731" width="2" height="48" fill="#FFFFFF" opacity="0.551" /><rect x="2648" y="1980" width="52" height="2" fill="#FFFFFF" opacity="0.693" /><rect x="2673" y="1955" width="2" height="52" fill="#FFFFFF" opacity="0.693" /><rect x="1876" y="2714" width="62" height="2" fill="#FFFFFF" opacity="0.410" /><rect x="1906" y="2684" width="2" height="62" fill="#FFFFFF" opacity="0.410" /><rect x="400" y="1738" width="44" height="2" fill="#FFFFFF" opacity="0.750" /><rect x="421" y="1717" width="2" height="44" fill="#FFFFFF" opacity="0.750" /><rect x="1473" y="1459" width="72" height="2" fill="#FFFFFF" opacity="0.489" /><rect x="1508" y="1424" width="2" height="72" fill="#FFFFFF" opacity="0.489" /><rect x="2416" y="392" width="76" height="2" fill="#FFFFFF" opacity="0.461" /><rect x="2453" y="355" width="2" height="76" fill="#FFFFFF" opacity="0.461" /><rect x="2271" y="1640" width="40" height="2" fill="#FFFFFF" opacity="0.327" /><rect x="2290" y="1621" width="2" height="40" fill="#FFFFFF" opacity="0.327" /><rect x="1513" y="1412" width="50" height="2" fill="#FFFFFF" opacity="0.689" /><rect x="1537" y="1388" width="2" height="50" fill="#FFFFFF" opacity="0.689" /><rect x="1157" y="1856" width="24" height="2" fill="#FFFFFF" opacity="0.472" /><rect x="1168" y="1845" width="2" height="24" fill="#FFFFFF" opacity="0.472" /><rect x="1187" y="2439" width="58" height="2" fill="#FFFFFF" opacity="0.563" /><rect x="1215" y="2411" width="2" height="58" fill="#FFFFFF" opacity="0.563" /><rect x="2438" y="286" width="58" height="2" fill="#FFFFFF" opacity="0.609" /><rect x="2466" y="258" width="2" height="58" fill="#FFFFFF" opacity="0.609" /><rect x="2782" y="315" width="76" height="2" fill="#FFFFFF" opacity="0.778" /><rect x="2819" y="278" width="2" height="76" fill="#FFFFFF" opacity="0.778" /><rect x="582" y="1362" width="50" height="2" fill="#FFFFFF" opacity="0.617" /><rect x="606" y="1338" width="2" height="50" fill="#FFFFFF" opacity="0.617" /></g>
  <g opacity="0.52"><rect x="1060" y="1070" width="219" height="1024" fill="#0C2030" /><rect x="1316" y="1326" width="219" height="768" fill="#0C2030" /><rect x="1572" y="1198" width="219" height="921" fill="#0C2030" /><rect x="1828" y="1033" width="219" height="1152" fill="#0C2030" /></g>
  <g filter="url(#soft51)"><rect x="1024" y="1024" width="219" height="1024" fill="url(#symbol51)" /><rect x="1280" y="1280" width="219" height="768" fill="url(#symbol51)" /><rect x="1536" y="1152" width="219" height="921" fill="url(#symbol51)" /><rect x="1792" y="987" width="219" height="1152" fill="url(#symbol51)" /></g>
  <rect x="138" y="138" width="2796" height="2796" rx="629" fill="#FFFFFF" filter="url(#grain51)" opacity="0.18" />
</svg>
