<svg xmlns="http://www.w3.org/2000/svg" width="3072" height="3072" viewBox="0 0 3072 3072">
  <title>QuartzOS App Icon 252 - alpha_gallery_252</title>
  <defs><linearGradient id="bg251" x1="0%" y1="0%" x2="100%" y2="100%"><stop offset="0%" stop-color="#53E3A6" /><stop offset="26%" stop-color="#3B82FF" /><stop offset="56%" stop-color="#FF6AB3" /><stop offset="78%" stop-color="#4BA7D0" /><stop offset="100%" stop-color="#122A3D" /></linearGradient><radialGradient id="sun251" cx="27%" cy="11%" r="88%"><stop offset="0%" stop-color="#FFFFFF" stop-opacity="0.62" /><stop offset="30%" stop-color="#FF9F43" stop-opacity="0.35" /><stop offset="100%" stop-color="#FF9F43" stop-opacity="0" /></radialGradient><linearGradient id="glass251" x1="0%" y1="0%" x2="0%" y2="100%"><stop offset="0%" stop-color="#FFFFFF" stop-opacity="0.70" /><stop offset="46%" stop-color="#FFFFFF" stop-opacity="0.26" /><stop offset="100%" stop-color="#FFFFFF" stop-opacity="0.00" /></linearGradient><linearGradient id="ribbon251" x1="0%" y1="0%" x2="100%" y2="0%"><stop offset="0%" stop-color="#53E3A6" stop-opacity="0.18" /><stop offset="34%" stop-color="#3B82FF" stop-opacity="0.72" /><stop offset="66%" stop-color="#FF6AB3" stop-opacity="0.72" /><stop offset="100%" stop-color="#FF9F43" stop-opacity="0.18" /></linearGradient><radialGradient id="orb251" cx="34%" cy="27%" r="74%"><stop offset="0%" stop-color="#FFFFFF" stop-opacity="0.84" /><stop offset="30%" stop-color="#53E3A6" stop-opacity="0.52" /><stop offset="68%" stop-color="#3B82FF" stop-opacity="0.42" /><stop offset="100%" stop-color="#FF6AB3" stop-opacity="0.20" /></radialGradient><linearGradient id="extrude251" x1="0%" y1="0%" x2="0%" y2="100%"><stop offset="0%" stop-color="#15283C" stop-opacity="0.45" /><stop offset="100%" stop-color="#08131D" stop-opacity="0.06" /></linearGradient><linearGradient id="symbol251" x1="0%" y1="0%" x2="100%" y2="100%"><stop offset="0%" stop-color="#FFFFFF" /><stop offset="100%" stop-color="#FF9F43" /></linearGradient><filter id="shadow251" x="-40%" y="-40%" width="180%" height="180%"><feDropShadow dx="0" dy="49" stdDeviation="86" flood-color="#06111A" flood-opacity="0.54" /></filter><filter id="soft251" x="-40%" y="-40%" width="180%" height="180%"><feDropShadow dx="0" dy="0" stdDeviation="14" flood-color="#53E3A6" flood-opacity="0.45" /></filter><filter id="grain251"><feTurbulence type="fractalNoise" baseFrequency="0.973" numOctaves="2" seed="251" /><feColorMatrix type="saturate" values="0" /><feComponentTransfer><feFuncA type="table" tableValues="0 0.09" /></feComponentTransfer></filter></defs>
  <rect x="138" y="138" width="2796" height="2796" rx="629" fill="url(#bg251)" filter="url(#shadow251)" />
  <rect x="138" y="138" width="2796" height="2796" rx="629" fill="url(#sun251)" />
  <g><circle cx="2639" cy="1564" r="50" fill="#FFFFFF" opacity="0.113" /><circle cx="964" cy="1123" r="147" fill="#FFFFFF" opacity="0.075" /><circle cx="1976" cy="985" r="125" fill="#FFFFFF" opacity="0.197" /><circle cx="540" cy="2078" r="59" fill="#FFFFFF" opacity="0.117" /><circle cx="1494" cy="1168" r="140" fill="#FFFFFF" opacity="0.228" /><circle cx="1016" cy="987" r="128" fill="#FFFFFF" opacity="0.181" /><circle cx="457" cy="1779" r="115" fill="#FFFFFF" opacity="0.121" /><circle cx="860" cy="2442" r="133" fill="#FFFFFF" opacity="0.203" /><circle cx="1714" cy="1735" r="106" fill="#FFFFFF" opacity="0.130" /><circle cx="2356" cy="2574" r="89" fill="#FFFFFF" opacity="0.138" /><circle cx="379" cy="1487" r="126" fill="#FFFFFF" opacity="0.203" /><circle cx="648" cy="1001" r="105" fill="#FFFFFF" opacity="0.076" /><circle cx="2420" cy="1868" r="117" fill="#FFFFFF" opacity="0.064" /><circle cx="2694" cy="2138" r="152" fill="#FFFFFF" opacity="0.206" /><circle cx="789" cy="1886" r="76" fill="#FFFFFF" opacity="0.213" /><circle cx="1425" cy="1094" r="123" fill="#FFFFFF" opacity="0.235" /><circle cx="2474" cy="2662" r="98" fill="#FFFFFF" opacity="0.231" /><circle cx="830" cy="2054" r="40" fill="#FFFFFF" opacity="0.089" /><circle cx="1419" cy="729" r="91" fill="#FFFFFF" opacity="0.157" /><circle cx="911" cy="2076" r="74" fill="#FFFFFF" opacity="0.086" /><circle cx="2368" cy="1860" r="140" fill="#FFFFFF" opacity="0.082" /><circle cx="881" cy="2586" r="92" fill="#FFFFFF" opacity="0.207" /><circle cx="2248" cy="2679" r="50" fill="#FFFFFF" opacity="0.105" /><circle cx="1924" cy="664" r="116" fill="#FFFFFF" opacity="0.117" /><circle cx="1461" cy="2395" r="41" fill="#FFFFFF" opacity="0.129" /><circle cx="2509" cy="836" r="76" fill="#FFFFFF" opacity="0.082" /><circle cx="735" cy="1489" r="115" fill="#FFFFFF" opacity="0.202" /><circle cx="2609" cy="1870" r="98" fill="#FFFFFF" opacity="0.107" /></g>
  <g><path d="M 295.8 640.8 L 2784.3 364.3 L 2784.3 824.3 L 295.8 1100.8 Z" fill="#FFFFFF" opacity="0.088" /><path d="M 249.5 882.2 L 2811.2 605.7 L 2811.2 1035.3 L 249.5 1311.7 Z" fill="#FFFFFF" opacity="0.094" /><path d="M 261.1 1177.7 L 2710.3 901.2 L 2710.3 1348.2 L 261.1 1624.7 Z" fill="#FFFFFF" opacity="0.155" /><path d="M 392.3 1432.2 L 2701.2 1155.7 L 2701.2 1622.3 L 392.3 1898.7 Z" fill="#FFFFFF" opacity="0.140" /><path d="M 354.8 1620.6 L 2798.4 1344.1 L 2798.4 1815.2 L 354.8 2091.7 Z" fill="#FFFFFF" opacity="0.234" /><path d="M 365.7 1942.4 L 2706.8 1665.9 L 2706.8 2147.9 L 365.7 2424.4 Z" fill="#FFFFFF" opacity="0.239" /><path d="M 206.5 2161.0 L 2738.3 1884.6 L 2738.3 2335.9 L 206.5 2612.4 Z" fill="#FFFFFF" opacity="0.203" /><path d="M 154.8 2471.2 L 2739.7 2194.8 L 2739.7 2657.5 L 154.8 2934.0 Z" fill="#FFFFFF" opacity="0.135" /></g>
  <g filter="url(#soft251)"><g transform="rotate(-21.15 1536.0 1536.0)"><path d="M-368.6 530.7 C -225.8 514.4, -25.8 538.4, 107.5 479.2 C 250.4 484.1, 450.4 551.2, 583.7 480.5 C 726.5 472.4, 926.5 564.6, 1059.8 512.3 C 1202.7 518.1, 1402.7 552.7, 1536.0 555.3 C 1678.8 562.7, 1878.8 518.3, 2012.2 583.4 C 2155.0 600.9, 2355.0 501.5, 2488.3 579.6 C 2631.2 586.2, 2831.2 498.4, 2964.5 546.1 C 3107.3 544.5, 3307.3 517.6, 3440.6 503.4" fill="none" stroke="url(#ribbon251)" stroke-width="58.4" stroke-linecap="round" stroke-opacity="0.120" /></g><g transform="rotate(-20.57 1536.0 1536.0)"><path d="M-368.6 756.8 C -241.7 798.5, -63.9 690.4, 54.6 808.1 C 181.6 824.6, 359.4 695.3, 477.9 767.1 C 604.8 768.2, 782.6 748.5, 901.1 719.9 C 1028.1 710.7, 1205.9 773.7, 1324.4 695.0 C 1451.3 695.9, 1629.1 786.1, 1747.6 707.6 C 1874.6 723.0, 2052.4 790.7, 2170.9 750.0 C 2297.9 751.7, 2475.6 762.1, 2594.1 796.6 C 2721.1 809.2, 2898.9 721.5, 3017.4 818.9 C 3144.4 843.4, 3322.1 706.3, 3440.6 803.6" fill="none" stroke="url(#ribbon251)" stroke-width="54.4" stroke-linecap="round" stroke-opacity="0.146" /></g><g transform="rotate(-19.99 1536.0 1536.0)"><path d="M-368.6 954.9 C -254.4 920.2, -94.4 985.6, 12.3 945.5 C 126.6 948.4, 286.6 960.6, 393.2 997.7 C 507.5 1002.3, 667.5 939.7, 774.1 1023.9 C 888.4 1025.0, 1048.4 889.4, 1155.1 1008.3 C 1269.4 1027.3, 1429.3 936.3, 1536.0 960.3 C 1650.3 958.3, 1810.3 950.3, 1916.9 909.0 C 2031.2 900.7, 2191.2 992.2, 2297.9 885.6 C 2412.1 909.3, 2572.1 978.1, 2678.8 904.2 C 2793.1 907.5, 2953.1 1006.4, 3059.7 953.6 C 3174.0 953.4, 3334.0 956.4, 3440.6 1003.8" fill="none" stroke="url(#ribbon251)" stroke-width="50.4" stroke-linecap="round" stroke-opacity="0.172" /></g><g transform="rotate(-19.41 1536.0 1536.0)"><path d="M-368.6 1124.8 C -264.8 1181.2, -119.3 1080.2, -22.3 1194.1 C 81.5 1214.9, 227.0 1084.9, 324.0 1149.8 C 427.8 1155.8, 573.3 1116.6, 670.3 1090.3 C 774.1 1093.7, 919.6 1164.4, 1016.6 1051.8 C 1120.4 1053.5, 1265.9 1188.4, 1362.9 1057.6 C 1466.7 1052.0, 1612.2 1199.2, 1709.1 1104.1 C 1813.0 1103.4, 1958.5 1146.6, 2055.4 1163.2 C 2159.3 1150.9, 2304.8 1087.7, 2401.7 1199.0 C 2505.6 1176.5, 2651.1 1045.0, 2748.0 1189.8 C 2851.9 1174.3, 2997.4 1088.8, 3094.3 1141.2 C 3198.2 1142.6, 3343.7 1114.8, 3440.6 1082.6" fill="none" stroke="url(#ribbon251)" stroke-width="46.4" stroke-linecap="round" stroke-opacity="0.198" /></g><g transform="rotate(-18.83 1536.0 1536.0)"><path d="M-368.6 1356.6 C -273.4 1266.6, -140.1 1422.6, -51.2 1299.2 C 44.0 1294.6, 177.4 1416.6, 266.2 1360.2 C 361.5 1360.4, 494.8 1354.8, 583.7 1419.0 C 678.9 1400.4, 812.2 1337.0, 901.1 1440.0 C 996.4 1448.9, 1129.7 1258.8, 1218.6 1410.4 C 1313.8 1416.6, 1447.1 1337.0, 1536.0 1348.3 C 1631.2 1345.6, 1764.6 1361.4, 1853.4 1291.2 C 1948.7 1311.0, 2082.0 1399.3, 2170.9 1273.8 C 2266.1 1266.9, 2399.4 1404.1, 2488.3 1306.7 C 2583.6 1317.7, 2716.9 1398.7, 2805.8 1369.9 C 2901.0 1374.4, 3034.3 1345.3, 3123.2 1425.0 C 3218.4 1413.8, 3351.8 1286.0, 3440.6 1438.7" fill="none" stroke="url(#ribbon251)" stroke-width="42.4" stroke-linecap="round" stroke-opacity="0.224" /></g><g transform="rotate(-18.25 1536.0 1536.0)"><path d="M-368.6 1538.1 C -225.8 1559.0, -25.8 1531.0, 107.5 1484.4 C 250.4 1499.3, 450.4 1589.8, 583.7 1448.4 C 726.5 1454.2, 926.5 1635.8, 1059.8 1466.7 C 1202.7 1476.0, 1402.7 1617.5, 1536.0 1528.4 C 1678.8 1527.3, 1878.8 1543.9, 2012.2 1596.0 C 2155.0 1589.5, 2355.0 1497.9, 2488.3 1628.5 C 2631.2 1592.8, 2831.2 1453.7, 2964.5 1606.2 C 3107.3 1618.8, 3307.3 1516.8, 3440.6 1542.6" fill="none" stroke="url(#ribbon251)" stroke-width="38.4" stroke-linecap="round" stroke-opacity="0.250" /></g><g transform="rotate(-17.67 1536.0 1536.0)"><path d="M-368.6 1706.2 C -241.7 1635.7, -63.9 1743.6, 54.6 1729.6 C 181.6 1723.6, 359.4 1695.7, 477.9 1790.5 C 604.8 1783.1, 782.6 1635.9, 901.1 1800.3 C 1028.1 1832.0, 1205.9 1637.4, 1324.4 1753.0 C 1451.3 1744.9, 1629.1 1691.1, 1747.6 1677.2 C 1874.6 1686.6, 2052.4 1724.3, 2170.9 1619.1 C 2297.9 1600.2, 2475.6 1803.4, 2594.1 1613.7 C 2721.1 1626.1, 2898.9 1777.6, 3017.4 1664.5 C 3144.4 1679.0, 3322.1 1720.4, 3440.6 1740.5" fill="none" stroke="url(#ribbon251)" stroke-width="34.4" stroke-linecap="round" stroke-opacity="0.276" /></g><g transform="rotate(-17.09 1536.0 1536.0)"><path d="M-368.6 1928.6 C -254.4 1941.1, -94.4 1912.8, 12.3 1866.3 C 126.6 1859.8, 286.6 1962.7, 393.2 1824.8 C 507.5 1797.6, 667.5 1992.4, 774.1 1846.3 C 888.4 1853.5, 1048.4 2018.0, 1155.1 1917.7 C 1269.4 1918.0, 1429.3 1941.2, 1536.0 1995.8 C 1650.3 1986.2, 1810.3 1865.5, 1916.9 2033.1 C 2031.2 2031.3, 2191.2 1844.5, 2297.9 2007.0 C 2412.1 2033.3, 2572.1 1863.8, 2678.8 1933.4 C 2793.1 1935.2, 2953.1 1925.3, 3059.7 1856.9 C 3174.0 1864.8, 3334.0 2010.5, 3440.6 1823.9" fill="none" stroke="url(#ribbon251)" stroke-width="30.4" stroke-linecap="round" stroke-opacity="0.302" /></g><g transform="rotate(-16.51 1536.0 1536.0)"><path d="M-368.6 2116.8 C -264.8 2043.3, -119.3 2147.3, -22.3 2101.7 C 81.5 2105.2, 227.0 2124.4, 324.0 2185.7 C 427.8 2177.8, 573.3 2045.2, 670.3 2228.0 C 774.1 2227.7, 919.6 2033.9, 1016.6 2202.9 C 1120.4 2223.4, 1265.9 2078.7, 1362.9 2125.5 C 1466.7 2128.9, 1612.2 2108.5, 1709.1 2042.9 C 1813.0 2053.6, 1958.5 2139.8, 2055.4 2005.1 C 2159.3 2036.5, 2304.8 2175.1, 2401.7 2035.1 C 2505.6 2052.2, 2651.1 2193.9, 2748.0 2114.7 C 2851.9 2115.0, 2997.4 2119.3, 3094.3 2195.5 C 3198.2 2165.3, 3343.7 2079.5, 3440.6 2228.6" fill="none" stroke="url(#ribbon251)" stroke-width="26.4" stroke-linecap="round" stroke-opacity="0.328" /></g><g transform="rotate(-15.93 1536.0 1536.0)"><path d="M-368.6 2297.1 C -273.4 2292.0, -140.1 2299.8, -51.2 2206.7 C 44.0 2208.4, 177.4 2324.4, 266.2 2178.8 C 361.5 2144.4, 494.8 2408.3, 583.7 2222.7 C 678.9 2237.3, 812.2 2342.5, 901.1 2311.7 C 996.4 2311.5, 1129.7 2291.7, 1218.6 2392.0 C 1313.8 2367.0, 1447.1 2254.8, 1536.0 2414.7 C 1631.2 2400.4, 1764.6 2212.1, 1853.4 2366.1 C 1948.7 2359.2, 2082.0 2260.2, 2170.9 2275.7 C 2266.1 2271.5, 2399.4 2315.6, 2488.3 2198.3 C 2583.6 2182.0, 2716.9 2415.6, 2805.8 2180.9 C 2901.0 2219.3, 3034.3 2351.5, 3123.2 2234.0 C 3218.4 2221.3, 3351.8 2364.7, 3440.6 2325.4" fill="none" stroke="url(#ribbon251)" stroke-width="22.4" stroke-linecap="round" stroke-opacity="0.354" /></g><g transform="rotate(-15.35 1536.0 1536.0)"><path d="M-368.6 2446.0 C -225.8 2447.7, -25.8 2443.9, 107.5 2537.8 C 250.4 2529.2, 450.4 2343.6, 583.7 2571.8 C 726.5 2609.9, 926.5 2383.5, 1059.8 2529.5 C 1202.7 2549.6, 1402.7 2417.6, 1536.0 2436.6 C 1678.8 2439.6, 1878.8 2454.1, 2012.2 2349.3 C 2155.0 2359.1, 2355.0 2550.9, 2488.3 2320.7 C 2631.2 2348.4, 2831.2 2506.7, 2964.5 2368.2 C 3107.3 2383.2, 3307.3 2490.3, 3440.6 2462.8" fill="none" stroke="url(#ribbon251)" stroke-width="18.4" stroke-linecap="round" stroke-opacity="0.380" /></g><g transform="rotate(-14.77 1536.0 1536.0)"><path d="M-368.6 2607.1 C -241.7 2758.1, -63.9 2490.9, 54.6 2724.0 C 181.6 2713.6, 359.4 2522.6, 477.9 2643.1 C 604.8 2652.9, 782.6 2576.0, 901.1 2540.3 C 1028.1 2554.3, 1205.9 2668.7, 1324.4 2478.1 C 1451.3 2430.9, 1629.1 2736.3, 1747.6 2494.1 C 1874.6 2509.7, 2052.4 2676.6, 2170.9 2578.7 C 2297.9 2575.6, 2475.6 2617.9, 2594.1 2680.5 C 2721.1 2693.8, 2898.9 2576.4, 3017.4 2737.8 C 3144.4 2701.9, 3322.1 2541.6, 3440.6 2715.8" fill="none" stroke="url(#ribbon251)" stroke-width="14.4" stroke-linecap="round" stroke-opacity="0.406" /></g></g>
  <g><ellipse cx="1536.0" cy="1551.9" rx="728.6" ry="605.7" fill="url(#extrude251)" opacity="0.220" /><ellipse cx="1536.0" cy="1567.7" rx="736.0" ry="610.9" fill="url(#extrude251)" opacity="0.205" /><ellipse cx="1536.0" cy="1583.6" rx="743.4" ry="616.1" fill="url(#extrude251)" opacity="0.190" /><ellipse cx="1536.0" cy="1599.5" rx="750.9" ry="621.3" fill="url(#extrude251)" opacity="0.175" /><ellipse cx="1536.0" cy="1615.4" rx="758.3" ry="626.5" fill="url(#extrude251)" opacity="0.160" /><ellipse cx="1536.0" cy="1631.2" rx="765.7" ry="631.7" fill="url(#extrude251)" opacity="0.145" /><ellipse cx="1536.0" cy="1647.1" rx="773.2" ry="636.9" fill="url(#extrude251)" opacity="0.130" /><ellipse cx="1536.0" cy="1663.0" rx="780.6" ry="642.1" fill="url(#extrude251)" opacity="0.115" /><ellipse cx="1536.0" cy="1678.8" rx="788.0" ry="647.4" fill="url(#extrude251)" opacity="0.100" /><ellipse cx="1536.0" cy="1694.7" rx="795.5" ry="652.6" fill="url(#extrude251)" opacity="0.085" /><ellipse cx="1536.0" cy="1710.6" rx="802.9" ry="657.8" fill="url(#extrude251)" opacity="0.070" /><ellipse cx="1536.0" cy="1726.5" rx="810.3" ry="663.0" fill="url(#extrude251)" opacity="0.055" /></g>
  <ellipse cx="1536.0" cy="1726.5" rx="773.2" ry="214.9" fill="#0B1D2D" opacity="0.24" />
  <ellipse cx="1536.0" cy="1536.0" rx="743.4" ry="651.3" fill="url(#orb251)" stroke="#FFFFFF" stroke-opacity="0.42" stroke-width="7" />
  <ellipse cx="1431.9" cy="1392.7" rx="505.5" ry="299.6" fill="#FFFFFF" opacity="0.25" />
  <path d="M 199.4 399.4 C 1013.8 -30.7, 2058.2 768.0, 2872.6 215.0 L 2872.6 983.0 C 2089.0 1228.8, 1013.8 307.2, 199.4 1167.4 Z" fill="url(#glass251)" />
  <rect x="270" y="270" width="2532" height="2532" rx="430" fill="none" stroke="#FFFFFF" stroke-opacity="0.30" stroke-width="5" />
  <rect x="288.4" y="288.4" width="2495.1" height="2495.1" rx="399" fill="none" stroke="#53E3A6" stroke-opacity="0.35" stroke-width="3" />
  <g filter="url(#soft251)"><rect x="1856" y="1604" width="62" height="2" fill="#FFFFFF" opacity="0.366" /><rect x="1886" y="1574" width="2" height="62" fill="#FFFFFF" opacity="0.366" /><rect x="2788" y="2338" width="54" height="2" fill="#FFFFFF" opacity="0.749" /><rect x="2814" y="2312" width="2" height="54" fill="#FFFFFF" opacity="0.749" /><rect x="2462" y="1723" width="28" height="2" fill="#FFFFFF" opacity="0.342" /><rect x="2475" y="1710" width="2" height="28" fill="#FFFFFF" opacity="0.342" /><rect x="590" y="1501" width="28" height="2" fill="#FFFFFF" opacity="0.575" /><rect x="603" y="1488" width="2" height="28" fill="#FFFFFF" opacity="0.575" /><rect x="2768" y="746" width="58" height="2" fill="#FFFFFF" opacity="0.314" /><rect x="2796" y="718" width="2" height="58" fill="#FFFFFF" opacity="0.314" /><rect x="1611" y="783" width="60" height="2" fill="#FFFFFF" opacity="0.354" /><rect x="1640" y="754" width="2" height="60" fill="#FFFFFF" opacity="0.354" /><rect x="2370" y="1162" width="58" height="2" fill="#FFFFFF" opacity="0.792" /><rect x="2398" y="1134" width="2" height="58" fill="#FFFFFF" opacity="0.792" /><rect x="2272" y="744" width="38" height="2" fill="#FFFFFF" opacity="0.492" /><rect x="2290" y="726" width="2" height="38" fill="#FFFFFF" opacity="0.492" /><rect x="1797" y="948" width="50" height="2" fill="#FFFFFF" opacity="0.804" /><rect x="1821" y="924" width="2" height="50" fill="#FFFFFF" opacity="0.804" /><rect x="1245" y="1266" width="50" height="2" fill="#FFFFFF" opacity="0.445" /><rect x="1269" y="1242" width="2" height="50" fill="#FFFFFF" opacity="0.445" /><rect x="1563" y="490" width="36" height="2" fill="#FFFFFF" opacity="0.512" /><rect x="1580" y="473" width="2" height="36" fill="#FFFFFF" opacity="0.512" /><rect x="1838" y="2564" width="30" height="2" fill="#FFFFFF" opacity="0.733" /><rect x="1852" y="2550" width="2" height="30" fill="#FFFFFF" opacity="0.733" /><rect x="1264" y="1460" width="72" height="2" fill="#FFFFFF" opacity="0.707" /><rect x="1299" y="1425" width="2" height="72" fill="#FFFFFF" opacity="0.707" /><rect x="1630" y="680" width="42" height="2" fill="#FFFFFF" opacity="0.730" /><rect x="1650" y="660" width="2" height="42" fill="#FFFFFF" opacity="0.730" /><rect x="1499" y="2714" width="66" height="2" fill="#FFFFFF" opacity="0.814" /><rect x="1531" y="2682" width="2" height="66" fill="#FFFFFF" opacity="0.814" /><rect x="2654" y="2668" width="62" height="2" fill="#FFFFFF" opacity="0.474" /><rect x="2684" y="2638" width="2" height="62" fill="#FFFFFF" opacity="0.474" /><rect x="664" y="741" width="58" height="2" fill="#FFFFFF" opacity="0.378" /><rect x="692" y="713" width="2" height="58" fill="#FFFFFF" opacity="0.378" /><rect x="1463" y="988" width="30" height="2" fill="#FFFFFF" opacity="0.448" /><rect x="1477" y="974" width="2" height="30" fill="#FFFFFF" opacity="0.448" /><rect x="2190" y="2252" width="80" height="2" fill="#FFFFFF" opacity="0.724" /><rect x="2229" y="2213" width="2" height="80" fill="#FFFFFF" opacity="0.724" /><rect x="1936" y="339" width="62" height="2" fill="#FFFFFF" opacity="0.433" /><rect x="1966" y="309" width="2" height="62" fill="#FFFFFF" opacity="0.433" /><rect x="1759" y="1016" width="68" height="2" fill="#FFFFFF" opacity="0.725" /><rect x="1792" y="983" width="2" height="68" fill="#FFFFFF" opacity="0.725" /><rect x="853" y="1192" width="24" height="2" fill="#FFFFFF" opacity="0.738" /><rect x="864" y="1181" width="2" height="24" fill="#FFFFFF" opacity="0.738" /><rect x="2251" y="2096" width="54" height="2" fill="#FFFFFF" opacity="0.459" /><rect x="2277" y="2070" width="2" height="54" fill="#FFFFFF" opacity="0.459" /><rect x="867" y="482" width="54" height="2" fill="#FFFFFF" opacity="0.841" /><rect x="893" y="456" width="2" height="54" fill="#FFFFFF" opacity="0.841" /><rect x="1280" y="258" width="68" height="2" fill="#FFFFFF" opacity="0.626" /><rect x="1313" y="225" width="2" height="68" fill="#FFFFFF" opacity="0.626" /><rect x="1457" y="1904" width="84" height="2" fill="#FFFFFF" opacity="0.415" /><rect x="1498" y="1863" width="2" height="84" fill="#FFFFFF" opacity="0.415" /></g>
  <g opacity="0.52"><path d="M996 1006 L2148 1006 L2148 2158 L996 2158 Z" fill="none" stroke="#0C2030" stroke-width="90" /><path d="M996 1582 L2148 1582" stroke="#0C2030" stroke-width="90" /><path d="M1572 1006 L1572 2158" stroke="#0C2030" stroke-width="90" /></g>
  <g filter="url(#soft251)"><path d="M960 960 L2112 960 L2112 2112 L960 2112 Z" fill="none" stroke="url(#symbol251)" stroke-width="90" /><path d="M960 1536 L2112 1536" stroke="url(#symbol251)" stroke-width="90" /><path d="M1536 960 L1536 2112" stroke="url(#symbol251)" stroke-width="90" /></g>
  <rect x="138" y="138" width="2796" height="2796" rx="629" fill="#FFFFFF" filter="url(#grain251)" opacity="0.18" />
</svg>
