<svg xmlns="http://www.w3.org/2000/svg" width="3072" height="3072" viewBox="0 0 3072 3072">
  <title>QuartzOS App Icon 032 - alpha_studio_032</title>
  <defs><linearGradient id="bg31" x1="0%" y1="0%" x2="100%" y2="100%"><stop offset="0%" stop-color="#FF6AB3" /><stop offset="26%" stop-color="#FFD84D" /><stop offset="56%" stop-color="#36D1FF" /><stop offset="78%" stop-color="#9A6BB4" /><stop offset="100%" stop-color="#271E2A" /></linearGradient><radialGradient id="sun31" cx="29%" cy="14%" r="88%"><stop offset="0%" stop-color="#FFFFFF" stop-opacity="0.62" /><stop offset="30%" stop-color="#3B82FF" stop-opacity="0.35" /><stop offset="100%" stop-color="#3B82FF" stop-opacity="0" /></radialGradient><linearGradient id="glass31" x1="0%" y1="0%" x2="0%" y2="100%"><stop offset="0%" stop-color="#FFFFFF" stop-opacity="0.70" /><stop offset="46%" stop-color="#FFFFFF" stop-opacity="0.26" /><stop offset="100%" stop-color="#FFFFFF" stop-opacity="0.00" /></linearGradient><linearGradient id="ribbon31" x1="0%" y1="0%" x2="100%" y2="0%"><stop offset="0%" stop-color="#FF6AB3" stop-opacity="0.18" /><stop offset="34%" stop-color="#FFD84D" stop-opacity="0.72" /><stop offset="66%" stop-color="#36D1FF" stop-opacity="0.72" /><stop offset="100%" stop-color="#3B82FF" stop-opacity="0.18" /></linearGradient><radialGradient id="orb31" cx="34%" cy="27%" r="74%"><stop offset="0%" stop-color="#FFFFFF" stop-opacity="0.84" /><stop offset="30%" stop-color="#FF6AB3" stop-opacity="0.52" /><stop offset="68%" stop-color="#FFD84D" stop-opacity="0.42" /><stop offset="100%" stop-color="#36D1FF" stop-opacity="0.20" /></radialGradient><linearGradient id="extrude31" x1="0%" y1="0%" x2="0%" y2="100%"><stop offset="0%" stop-color="#15283C" stop-opacity="0.45" /><stop offset="100%" stop-color="#08131D" stop-opacity="0.06" /></linearGradient><linearGradient id="symbol31" x1="0%" y1="0%" x2="100%" y2="100%"><stop offset="0%" stop-color="#FFFFFF" /><stop offset="100%" stop-color="#3B82FF" /></linearGradient><filter id="shadow31" x="-40%" y="-40%" width="180%" height="180%"><feDropShadow dx="0" dy="49" stdDeviation="86" flood-color="#06111A" flood-opacity="0.54" /></filter><filter id="soft31" x="-40%" y="-40%" width="180%" height="180%"><feDropShadow dx="0" dy="0" stdDeviation="14" flood-color="#FF6AB3" flood-opacity="0.45" /></filter><filter id="grain31"><feTurbulence type="fractalNoise" baseFrequency="0.730" numOctaves="2" seed="31" /><feColorMatrix type="saturate" values="0" /><feComponentTransfer><feFuncA type="table" tableValues="0 0.09" /></feComponentTransfer></filter></defs>
  <rect x="138" y="138" width="2796" height="2796" rx="629" fill="url(#bg31)" filter="url(#shadow31)" />
  <rect x="138" y="138" width="2796" height="2796" rx="629" fill="url(#sun31)" />
  <g><circle cx="1942" cy="718" r="144" fill="#FFFFFF" opacity="0.131" /><circle cx="2400" cy="815" r="115" fill="#FFFFFF" opacity="0.142" /><circle cx="765" cy="2629" r="147" fill="#FFFFFF" opacity="0.166" /><circle cx="1964" cy="438" r="123" fill="#FFFFFF" opacity="0.092" /><circle cx="743" cy="1428" r="52" fill="#FFFFFF" opacity="0.232" /><circle cx="1415" cy="363" r="150" fill="#FFFFFF" opacity="0.169" /><circle cx="2109" cy="1744" r="82" fill="#FFFFFF" opacity="0.078" /><circle cx="2056" cy="840" r="88" fill="#FFFFFF" opacity="0.156" /><circle cx="2356" cy="914" r="130" fill="#FFFFFF" opacity="0.102" /><circle cx="1543" cy="778" r="84" fill="#FFFFFF" opacity="0.130" /><circle cx="1913" cy="2430" r="115" fill="#FFFFFF" opacity="0.149" /><circle cx="1103" cy="489" r="155" fill="#FFFFFF" opacity="0.118" /><circle cx="2380" cy="1974" r="137" fill="#FFFFFF" opacity="0.113" /><circle cx="627" cy="981" r="85" fill="#FFFFFF" opacity="0.125" /><circle cx="1992" cy="1168" r="60" fill="#FFFFFF" opacity="0.205" /><circle cx="2672" cy="2196" r="101" fill="#FFFFFF" opacity="0.175" /><circle cx="2316" cy="1099" r="108" fill="#FFFFFF" opacity="0.135" /><circle cx="2013" cy="2613" r="106" fill="#FFFFFF" opacity="0.182" /><circle cx="505" cy="1986" r="155" fill="#FFFFFF" opacity="0.120" /><circle cx="440" cy="2576" r="62" fill="#FFFFFF" opacity="0.190" /><circle cx="2125" cy="1802" r="155" fill="#FFFFFF" opacity="0.090" /><circle cx="2438" cy="1794" r="42" fill="#FFFFFF" opacity="0.090" /><circle cx="858" cy="1032" r="118" fill="#FFFFFF" opacity="0.181" /><circle cx="1097" cy="584" r="74" fill="#FFFFFF" opacity="0.063" /><circle cx="2127" cy="1592" r="130" fill="#FFFFFF" opacity="0.141" /><circle cx="929" cy="2453" r="143" fill="#FFFFFF" opacity="0.133" /><circle cx="1926" cy="2302" r="40" fill="#FFFFFF" opacity="0.205" /><circle cx="567" cy="1265" r="116" fill="#FFFFFF" opacity="0.100" /></g>
  <g><path d="M 167.4 654.9 L 2684.9 378.4 L 2684.9 843.2 L 167.4 1119.6 Z" fill="#FFFFFF" opacity="0.103" /><path d="M 206.2 852.3 L 2862.8 575.8 L 2862.8 1059.2 L 206.2 1335.7 Z" fill="#FFFFFF" opacity="0.207" /><path d="M 184.7 1109.8 L 2876.7 833.3 L 2876.7 1251.7 L 184.7 1528.1 Z" fill="#FFFFFF" opacity="0.224" /><path d="M 194.4 1386.8 L 2899.3 1110.3 L 2899.3 1553.0 L 194.4 1829.5 Z" fill="#FFFFFF" opacity="0.137" /><path d="M 275.6 1666.1 L 2886.6 1389.6 L 2886.6 1841.3 L 275.6 2117.8 Z" fill="#FFFFFF" opacity="0.199" /><path d="M 155.0 1882.4 L 2833.9 1605.9 L 2833.9 2098.4 L 155.0 2374.8 Z" fill="#FFFFFF" opacity="0.210" /><path d="M 373.9 2213.6 L 2920.8 1937.1 L 2920.8 2418.0 L 373.9 2694.5 Z" fill="#FFFFFF" opacity="0.088" /><path d="M 380.5 2403.9 L 2804.5 2127.4 L 2804.5 2559.2 L 380.5 2835.7 Z" fill="#FFFFFF" opacity="0.173" /></g>
  <g filter="url(#soft31)"><g transform="rotate(-23.68 1536.0 1536.0)"><path d="M-368.6 533.2 C -225.8 589.1, -25.8 486.1, 107.5 546.0 C 250.4 550.1, 450.4 520.6, 583.7 503.5 C 726.5 498.1, 926.5 547.2, 1059.8 479.1 C 1202.7 486.7, 1402.7 589.0, 1536.0 487.5 C 1678.8 481.1, 1878.8 583.6, 2012.2 523.7 C 2155.0 523.6, 2355.0 543.4, 2488.3 565.6 C 2631.2 561.8, 2831.2 508.7, 2964.5 588.0 C 3107.3 595.7, 3307.3 503.4, 3440.6 577.1" fill="none" stroke="url(#ribbon31)" stroke-width="58.4" stroke-linecap="round" stroke-opacity="0.120" /></g><g transform="rotate(-23.10 1536.0 1536.0)"><path d="M-368.6 719.6 C -241.7 766.5, -63.9 662.4, 54.6 765.9 C 181.6 754.8, 359.4 668.3, 477.9 721.9 C 604.8 721.7, 782.6 717.6, 901.1 676.5 C 1028.1 669.6, 1205.9 735.7, 1324.4 657.3 C 1451.3 637.6, 1629.1 787.5, 1747.6 675.8 C 1874.6 661.1, 2052.4 741.9, 2170.9 721.0 C 2297.9 721.3, 2475.6 718.5, 2594.1 765.3 C 2721.1 778.5, 2898.9 676.2, 3017.4 781.9 C 3144.4 802.0, 3322.1 660.8, 3440.6 760.8" fill="none" stroke="url(#ribbon31)" stroke-width="54.4" stroke-linecap="round" stroke-opacity="0.146" /></g><g transform="rotate(-22.52 1536.0 1536.0)"><path d="M-368.6 886.0 C -254.4 961.8, -94.4 838.9, 12.3 940.0 C 126.6 938.0, 286.6 867.2, 393.2 892.4 C 507.5 893.2, 667.5 883.7, 774.1 840.8 C 888.4 838.1, 1048.4 904.5, 1155.1 816.7 C 1269.4 834.3, 1429.3 914.0, 1536.0 834.5 C 1650.3 844.6, 1810.3 941.3, 1916.9 883.6 C 2031.2 884.2, 2191.2 887.4, 2297.9 934.1 C 2412.1 941.2, 2572.1 865.1, 2678.8 955.4 C 2793.1 943.6, 2953.1 861.6, 3059.7 934.6 C 3174.0 915.2, 3334.0 871.0, 3440.6 884.3" fill="none" stroke="url(#ribbon31)" stroke-width="50.4" stroke-linecap="round" stroke-opacity="0.172" /></g><g transform="rotate(-21.94 1536.0 1536.0)"><path d="M-368.6 1045.0 C -264.8 1133.1, -119.3 967.4, -22.3 1113.7 C 81.5 1089.6, 227.0 979.1, 324.0 1068.8 C 427.8 1060.7, 573.3 1029.8, 670.3 1009.4 C 774.1 1003.3, 919.6 1083.0, 1016.6 971.6 C 1120.4 963.1, 1265.9 1084.3, 1362.9 978.3 C 1466.7 978.3, 1612.2 1118.8, 1709.1 1025.4 C 1813.0 1029.2, 1958.5 1062.1, 2055.4 1084.4 C 2159.3 1098.3, 2304.8 1015.7, 2401.7 1119.5 C 2505.6 1103.8, 2651.1 975.5, 2748.0 1109.3 C 2851.9 1113.8, 2997.4 1024.8, 3094.3 1060.2 C 3198.2 1060.9, 3343.7 1028.6, 3440.6 1001.8" fill="none" stroke="url(#ribbon31)" stroke-width="46.4" stroke-linecap="round" stroke-opacity="0.198" /></g><g transform="rotate(-21.36 1536.0 1536.0)"><path d="M-368.6 1251.0 C -273.4 1283.0, -140.1 1216.7, -51.2 1224.8 C 44.0 1214.9, 177.4 1259.4, 266.2 1175.9 C 361.5 1202.4, 494.8 1335.7, 583.7 1172.5 C 678.9 1161.0, 812.2 1331.9, 901.1 1216.8 C 996.4 1204.7, 1129.7 1269.2, 1218.6 1281.8 C 1313.8 1274.5, 1447.1 1230.8, 1536.0 1328.2 C 1631.2 1351.9, 1764.6 1183.0, 1853.4 1327.8 C 1948.7 1341.2, 2082.0 1183.8, 2170.9 1280.8 C 2266.1 1281.2, 2399.4 1223.9, 2488.3 1215.7 C 2583.6 1214.9, 2716.9 1278.8, 2805.8 1172.1 C 2901.0 1191.9, 3034.3 1341.0, 3123.2 1176.4 C 3218.4 1181.1, 3351.8 1273.9, 3440.6 1225.9" fill="none" stroke="url(#ribbon31)" stroke-width="42.4" stroke-linecap="round" stroke-opacity="0.224" /></g><g transform="rotate(-20.78 1536.0 1536.0)"><path d="M-368.6 1459.8 C -225.8 1525.5, -25.8 1399.4, 107.5 1487.6 C 250.4 1481.4, 450.4 1438.2, 583.7 1417.3 C 726.5 1403.0, 926.5 1500.1, 1059.8 1372.7 C 1202.7 1396.1, 1402.7 1547.7, 1536.0 1381.0 C 1678.8 1369.1, 1878.8 1548.2, 2012.2 1437.0 C 2155.0 1437.6, 2355.0 1480.7, 2488.3 1506.8 C 2631.2 1516.7, 2831.2 1435.7, 2964.5 1548.1 C 3107.3 1580.2, 3307.3 1377.2, 3440.6 1535.8" fill="none" stroke="url(#ribbon31)" stroke-width="38.4" stroke-linecap="round" stroke-opacity="0.250" /></g><g transform="rotate(-20.20 1536.0 1536.0)"><path d="M-368.6 1692.5 C -241.7 1744.0, -63.9 1655.9, 54.6 1657.5 C 181.6 1646.0, 359.4 1729.5, 477.9 1602.7 C 604.8 1567.9, 782.6 1746.3, 901.1 1602.3 C 1028.1 1624.1, 1205.9 1740.5, 1324.4 1656.6 C 1451.3 1647.3, 1629.1 1732.9, 1747.6 1732.6 C 1874.6 1727.3, 2052.4 1670.8, 2170.9 1784.3 C 2297.9 1770.2, 2475.6 1664.2, 2594.1 1780.3 C 2721.1 1813.5, 2898.9 1654.0, 3017.4 1723.0 C 3144.4 1711.6, 3322.1 1674.8, 3440.6 1647.2" fill="none" stroke="url(#ribbon31)" stroke-width="34.4" stroke-linecap="round" stroke-opacity="0.276" /></g><g transform="rotate(-19.62 1536.0 1536.0)"><path d="M-368.6 1833.9 C -254.4 1868.5, -94.4 1815.5, 12.3 1781.6 C 126.6 1776.8, 286.6 1881.1, 393.2 1732.4 C 507.5 1745.8, 667.5 1947.1, 774.1 1744.7 C 888.4 1757.3, 1048.4 1924.9, 1155.1 1811.2 C 1269.4 1818.0, 1429.3 1850.2, 1536.0 1891.4 C 1650.3 1909.0, 1810.3 1778.8, 1916.9 1936.8 C 2031.2 1930.5, 2191.2 1735.7, 2297.9 1919.7 C 2412.1 1950.4, 2572.1 1763.3, 2678.8 1850.6 C 2793.1 1848.7, 2953.1 1821.0, 3059.7 1771.4 C 3174.0 1753.0, 3334.0 1882.1, 3440.6 1730.1" fill="none" stroke="url(#ribbon31)" stroke-width="30.4" stroke-linecap="round" stroke-opacity="0.302" /></g><g transform="rotate(-19.04 1536.0 1536.0)"><path d="M-368.6 2045.2 C -264.8 2115.7, -119.3 1936.3, -22.3 2104.7 C 81.5 2120.8, 227.0 1987.9, 324.0 2018.7 C 427.8 2010.8, 573.3 2069.3, 670.3 1948.8 C 774.1 1925.8, 919.6 2151.8, 1016.6 1937.3 C 1120.4 1977.7, 1265.9 2091.4, 1362.9 1991.3 C 1466.7 1979.6, 1612.2 2095.3, 1709.1 2077.9 C 1813.0 2086.1, 1958.5 2011.8, 2055.4 2144.7 C 2159.3 2127.3, 2304.8 1938.4, 2401.7 2151.1 C 2505.6 2155.5, 2651.1 1949.2, 2748.0 2093.2 C 2851.9 2094.8, 2997.4 1998.8, 3094.3 2006.2 C 3198.2 2014.8, 3343.7 2066.2, 3440.6 1942.8" fill="none" stroke="url(#ribbon31)" stroke-width="26.4" stroke-linecap="round" stroke-opacity="0.328" /></g><g transform="rotate(-18.46 1536.0 1536.0)"><path d="M-368.6 2236.0 C -273.4 2288.5, -140.1 2194.0, -51.2 2223.8 C 44.0 2226.6, 177.4 2239.7, 266.2 2142.7 C 361.5 2120.2, 494.8 2296.5, 583.7 2118.1 C 678.9 2144.2, 812.2 2315.5, 901.1 2165.1 C 996.4 2188.1, 1129.7 2311.8, 1218.6 2255.0 C 1313.8 2248.4, 1447.1 2222.8, 1536.0 2333.4 C 1631.2 2333.6, 1764.6 2133.8, 1853.4 2352.7 C 1948.7 2337.9, 2082.0 2184.0, 2170.9 2301.2 C 2266.1 2297.4, 2399.4 2179.2, 2488.3 2210.1 C 2583.6 2217.1, 2716.9 2255.1, 2805.8 2134.7 C 2901.0 2156.0, 3034.3 2302.7, 3123.2 2120.7 C 3218.4 2125.4, 3351.8 2326.4, 3440.6 2176.7" fill="none" stroke="url(#ribbon31)" stroke-width="22.4" stroke-linecap="round" stroke-opacity="0.354" /></g><g transform="rotate(-17.88 1536.0 1536.0)"><path d="M-368.6 2492.1 C -225.8 2426.7, -25.8 2586.9, 107.5 2471.4 C 250.4 2478.1, 450.4 2499.9, 583.7 2566.8 C 726.5 2593.0, 926.5 2444.8, 1059.8 2616.9 C 1202.7 2600.0, 1402.7 2376.1, 1536.0 2591.3 C 1678.8 2584.2, 1878.8 2374.0, 2012.2 2505.5 C 2155.0 2501.7, 2355.0 2482.2, 2488.3 2411.6 C 2631.2 2394.8, 2831.2 2546.0, 2964.5 2366.5 C 3107.3 2406.8, 3307.3 2605.3, 3440.6 2397.6" fill="none" stroke="url(#ribbon31)" stroke-width="18.4" stroke-linecap="round" stroke-opacity="0.380" /></g><g transform="rotate(-17.30 1536.0 1536.0)"><path d="M-368.6 2707.2 C -241.7 2707.4, -63.9 2707.2, 54.6 2802.7 C 181.6 2802.7, 359.4 2662.6, 477.9 2840.2 C 604.8 2875.9, 782.6 2655.0, 901.1 2797.0 C 1028.1 2772.7, 1205.9 2605.3, 1324.4 2699.4 C 1451.3 2697.9, 1629.1 2710.6, 1747.6 2606.5 C 1874.6 2607.2, 2052.4 2795.6, 2170.9 2574.7 C 2297.9 2576.8, 2475.6 2763.8, 2594.1 2623.4 C 2721.1 2641.5, 2898.9 2763.6, 3017.4 2722.9 C 3144.4 2721.3, 3322.1 2698.0, 3440.6 2812.9" fill="none" stroke="url(#ribbon31)" stroke-width="14.4" stroke-linecap="round" stroke-opacity="0.406" /></g></g>
  <g><ellipse cx="1536.0" cy="1551.9" rx="728.6" ry="605.7" fill="url(#extrude31)" opacity="0.220" /><ellipse cx="1536.0" cy="1567.7" rx="736.0" ry="610.9" fill="url(#extrude31)" opacity="0.205" /><ellipse cx="1536.0" cy="1583.6" rx="743.4" ry="616.1" fill="url(#extrude31)" opacity="0.190" /><ellipse cx="1536.0" cy="1599.5" rx="750.9" ry="621.3" fill="url(#extrude31)" opacity="0.175" /><ellipse cx="1536.0" cy="1615.4" rx="758.3" ry="626.5" fill="url(#extrude31)" opacity="0.160" /><ellipse cx="1536.0" cy="1631.2" rx="765.7" ry="631.7" fill="url(#extrude31)" opacity="0.145" /><ellipse cx="1536.0" cy="1647.1" rx="773.2" ry="636.9" fill="url(#extrude31)" opacity="0.130" /><ellipse cx="1536.0" cy="1663.0" rx="780.6" ry="642.1" fill="url(#extrude31)" opacity="0.115" /><ellipse cx="1536.0" cy="1678.8" rx="788.0" ry="647.4" fill="url(#extrude31)" opacity="0.100" /><ellipse cx="1536.0" cy="1694.7" rx="795.5" ry="652.6" fill="url(#extrude31)" opacity="0.085" /><ellipse cx="1536.0" cy="1710.6" rx="802.9" ry="657.8" fill="url(#extrude31)" opacity="0.070" /><ellipse cx="1536.0" cy="1726.5" rx="810.3" ry="663.0" fill="url(#extrude31)" opacity="0.055" /></g>
  <ellipse cx="1536.0" cy="1726.5" rx="773.2" ry="214.9" fill="#0B1D2D" opacity="0.24" />
  <ellipse cx="1536.0" cy="1536.0" rx="743.4" ry="651.3" fill="url(#orb31)" stroke="#FFFFFF" stroke-opacity="0.42" stroke-width="7" />
  <ellipse cx="1431.9" cy="1392.7" rx="505.5" ry="299.6" fill="#FFFFFF" opacity="0.25" />
  <path d="M 199.4 399.4 C 1013.8 -30.7, 2058.2 768.0, 2872.6 215.0 L 2872.6 983.0 C 2089.0 1228.8, 1013.8 307.2, 199.4 1167.4 Z" fill="url(#glass31)" />
  <rect x="270" y="270" width="2532" height="2532" rx="430" fill="none" stroke="#FFFFFF" stroke-opacity="0.30" stroke-width="5" />
  <rect x="288.4" y="288.4" width="2495.1" height="2495.1" rx="399" fill="none" stroke="#FF6AB3" stroke-opacity="0.35" stroke-width="3" />
  <g filter="url(#soft31)"><rect x="342" y="1767" width="34" height="2" fill="#FFFFFF" opacity="0.815" /><rect x="358" y="1751" width="2" height="34" fill="#FFFFFF" opacity="0.815" /><rect x="412" y="588" width="82" height="2" fill="#FFFFFF" opacity="0.312" /><rect x="452" y="548" width="2" height="82" fill="#FFFFFF" opacity="0.312" /><rect x="1701" y="408" width="76" height="2" fill="#FFFFFF" opacity="0.410" /><rect x="1738" y="371" width="2" height="76" fill="#FFFFFF" opacity="0.410" /><rect x="945" y="893" width="30" height="2" fill="#FFFFFF" opacity="0.545" /><rect x="959" y="879" width="2" height="30" fill="#FFFFFF" opacity="0.545" /><rect x="603" y="893" width="48" height="2" fill="#FFFFFF" opacity="0.331" /><rect x="626" y="870" width="2" height="48" fill="#FFFFFF" opacity="0.331" /><rect x="967" y="1898" width="26" height="2" fill="#FFFFFF" opacity="0.446" /><rect x="979" y="1886" width="2" height="26" fill="#FFFFFF" opacity="0.446" /><rect x="1742" y="1666" width="40" height="2" fill="#FFFFFF" opacity="0.414" /><rect x="1761" y="1647" width="2" height="40" fill="#FFFFFF" opacity="0.414" /><rect x="1520" y="2739" width="44" height="2" fill="#FFFFFF" opacity="0.397" /><rect x="1541" y="2718" width="2" height="44" fill="#FFFFFF" opacity="0.397" /><rect x="596" y="819" width="76" height="2" fill="#FFFFFF" opacity="0.524" /><rect x="633" y="782" width="2" height="76" fill="#FFFFFF" opacity="0.524" /><rect x="1634" y="1659" width="32" height="2" fill="#FFFFFF" opacity="0.734" /><rect x="1649" y="1644" width="2" height="32" fill="#FFFFFF" opacity="0.734" /><rect x="2360" y="2453" width="44" height="2" fill="#FFFFFF" opacity="0.444" /><rect x="2381" y="2432" width="2" height="44" fill="#FFFFFF" opacity="0.444" /><rect x="1502" y="250" width="30" height="2" fill="#FFFFFF" opacity="0.751" /><rect x="1516" y="236" width="2" height="30" fill="#FFFFFF" opacity="0.751" /><rect x="502" y="2416" width="78" height="2" fill="#FFFFFF" opacity="0.479" /><rect x="540" y="2378" width="2" height="78" fill="#FFFFFF" opacity="0.479" /><rect x="880" y="2171" width="70" height="2" fill="#FFFFFF" opacity="0.634" /><rect x="914" y="2137" width="2" height="70" fill="#FFFFFF" opacity="0.634" /><rect x="1260" y="1275" width="78" height="2" fill="#FFFFFF" opacity="0.586" /><rect x="1298" y="1237" width="2" height="78" fill="#FFFFFF" opacity="0.586" /><rect x="2693" y="1332" width="62" height="2" fill="#FFFFFF" opacity="0.813" /><rect x="2723" y="1302" width="2" height="62" fill="#FFFFFF" opacity="0.813" /><rect x="2537" y="1706" width="38" height="2" fill="#FFFFFF" opacity="0.772" /><rect x="2555" y="1688" width="2" height="38" fill="#FFFFFF" opacity="0.772" /><rect x="1494" y="2342" width="54" height="2" fill="#FFFFFF" opacity="0.383" /><rect x="1520" y="2316" width="2" height="54" fill="#FFFFFF" opacity="0.383" /><rect x="832" y="369" width="58" height="2" fill="#FFFFFF" opacity="0.573" /><rect x="860" y="341" width="2" height="58" fill="#FFFFFF" opacity="0.573" /><rect x="2519" y="2706" width="78" height="2" fill="#FFFFFF" opacity="0.653" /><rect x="2557" y="2668" width="2" height="78" fill="#FFFFFF" opacity="0.653" /><rect x="984" y="1985" width="68" height="2" fill="#FFFFFF" opacity="0.340" /><rect x="1017" y="1952" width="2" height="68" fill="#FFFFFF" opacity="0.340" /><rect x="562" y="2255" width="52" height="2" fill="#FFFFFF" opacity="0.613" /><rect x="587" y="2230" width="2" height="52" fill="#FFFFFF" opacity="0.613" /><rect x="644" y="2713" width="38" height="2" fill="#FFFFFF" opacity="0.512" /><rect x="662" y="2695" width="2" height="38" fill="#FFFFFF" opacity="0.512" /><rect x="1659" y="2029" width="42" height="2" fill="#FFFFFF" opacity="0.824" /><rect x="1679" y="2009" width="2" height="42" fill="#FFFFFF" opacity="0.824" /><rect x="2671" y="758" width="72" height="2" fill="#FFFFFF" opacity="0.501" /><rect x="2706" y="723" width="2" height="72" fill="#FFFFFF" opacity="0.501" /><rect x="2323" y="2691" width="74" height="2" fill="#FFFFFF" opacity="0.328" /><rect x="2359" y="2655" width="2" height="74" fill="#FFFFFF" opacity="0.328" /></g>
  <g opacity="0.52"><circle cx="1572" cy="1582" r="384" fill="none" stroke="#0C2030" stroke-width="90" /><circle cx="1572" cy="1582" r="153" fill="#0C2030" /><line x1="1572" y1="967" x2="1572" y2="1198" stroke="#0C2030" stroke-width="90" /><line x1="1572" y1="2197" x2="1572" y2="1966" stroke="#0C2030" stroke-width="90" /><line x1="957" y1="1582" x2="1188" y2="1582" stroke="#0C2030" stroke-width="90" /><line x1="2187" y1="1582" x2="1956" y2="1582" stroke="#0C2030" stroke-width="90" /></g>
  <g filter="url(#soft31)"><circle cx="1536" cy="1536" r="384" fill="none" stroke="url(#symbol31)" stroke-width="90" /><circle cx="1536" cy="1536" r="153" fill="url(#symbol31)" /><line x1="1536" y1="921" x2="1536" y2="1152" stroke="url(#symbol31)" stroke-width="90" /><line x1="1536" y1="2151" x2="1536" y2="1920" stroke="url(#symbol31)" stroke-width="90" /><line x1="921" y1="1536" x2="1152" y2="1536" stroke="url(#symbol31)" stroke-width="90" /><line x1="2151" y1="1536" x2="1920" y2="1536" stroke="url(#symbol31)" stroke-width="90" /></g>
  <rect x="138" y="138" width="2796" height="2796" rx="629" fill="#FFFFFF" filter="url(#grain31)" opacity="0.18" />
</svg>
