<svg xmlns="http://www.w3.org/2000/svg" width="3072" height="3072" viewBox="0 0 3072 3072">
  <title>QuartzOS App Icon 132 - alpha_camera_132</title>
  <defs><linearGradient id="bg131" x1="0%" y1="0%" x2="100%" y2="100%"><stop offset="0%" stop-color="#FFD84D" /><stop offset="26%" stop-color="#36D1FF" /><stop offset="56%" stop-color="#8A5CFF" /><stop offset="78%" stop-color="#4BA7D0" /><stop offset="100%" stop-color="#122A3D" /></linearGradient><radialGradient id="sun131" cx="27%" cy="21%" r="88%"><stop offset="0%" stop-color="#FFFFFF" stop-opacity="0.62" /><stop offset="30%" stop-color="#FF6AB3" stop-opacity="0.35" /><stop offset="100%" stop-color="#FF6AB3" stop-opacity="0" /></radialGradient><linearGradient id="glass131" x1="0%" y1="0%" x2="0%" y2="100%"><stop offset="0%" stop-color="#FFFFFF" stop-opacity="0.70" /><stop offset="46%" stop-color="#FFFFFF" stop-opacity="0.26" /><stop offset="100%" stop-color="#FFFFFF" stop-opacity="0.00" /></linearGradient><linearGradient id="ribbon131" x1="0%" y1="0%" x2="100%" y2="0%"><stop offset="0%" stop-color="#FFD84D" stop-opacity="0.18" /><stop offset="34%" stop-color="#36D1FF" stop-opacity="0.72" /><stop offset="66%" stop-color="#8A5CFF" stop-opacity="0.72" /><stop offset="100%" stop-color="#FF6AB3" stop-opacity="0.18" /></linearGradient><radialGradient id="orb131" cx="34%" cy="27%" r="74%"><stop offset="0%" stop-color="#FFFFFF" stop-opacity="0.84" /><stop offset="30%" stop-color="#FFD84D" stop-opacity="0.52" /><stop offset="68%" stop-color="#36D1FF" stop-opacity="0.42" /><stop offset="100%" stop-color="#8A5CFF" stop-opacity="0.20" /></radialGradient><linearGradient id="extrude131" x1="0%" y1="0%" x2="0%" y2="100%"><stop offset="0%" stop-color="#15283C" stop-opacity="0.45" /><stop offset="100%" stop-color="#08131D" stop-opacity="0.06" /></linearGradient><linearGradient id="symbol131" x1="0%" y1="0%" x2="100%" y2="100%"><stop offset="0%" stop-color="#FFFFFF" /><stop offset="100%" stop-color="#FF6AB3" /></linearGradient><filter id="shadow131" x="-40%" y="-40%" width="180%" height="180%"><feDropShadow dx="0" dy="49" stdDeviation="86" flood-color="#06111A" flood-opacity="0.54" /></filter><filter id="soft131" x="-40%" y="-40%" width="180%" height="180%"><feDropShadow dx="0" dy="0" stdDeviation="14" flood-color="#FFD84D" flood-opacity="0.45" /></filter><filter id="grain131"><feTurbulence type="fractalNoise" baseFrequency="0.754" numOctaves="2" seed="131" /><feColorMatrix type="saturate" values="0" /><feComponentTransfer><feFuncA type="table" tableValues="0 0.09" /></feComponentTransfer></filter></defs>
  <rect x="138" y="138" width="2796" height="2796" rx="629" fill="url(#bg131)" filter="url(#shadow131)" />
  <rect x="138" y="138" width="2796" height="2796" rx="629" fill="url(#sun131)" />
  <g><circle cx="1948" cy="770" r="52" fill="#FFFFFF" opacity="0.212" /><circle cx="2530" cy="955" r="90" fill="#FFFFFF" opacity="0.142" /><circle cx="859" cy="1429" r="50" fill="#FFFFFF" opacity="0.228" /><circle cx="1174" cy="1539" r="44" fill="#FFFFFF" opacity="0.228" /><circle cx="1274" cy="2297" r="78" fill="#FFFFFF" opacity="0.163" /><circle cx="2012" cy="1133" r="62" fill="#FFFFFF" opacity="0.218" /><circle cx="2472" cy="632" r="123" fill="#FFFFFF" opacity="0.175" /><circle cx="2632" cy="749" r="151" fill="#FFFFFF" opacity="0.171" /><circle cx="822" cy="2088" r="158" fill="#FFFFFF" opacity="0.097" /><circle cx="1954" cy="514" r="74" fill="#FFFFFF" opacity="0.232" /><circle cx="1657" cy="1891" r="127" fill="#FFFFFF" opacity="0.171" /><circle cx="798" cy="2479" r="125" fill="#FFFFFF" opacity="0.159" /><circle cx="369" cy="902" r="86" fill="#FFFFFF" opacity="0.182" /><circle cx="2019" cy="409" r="89" fill="#FFFFFF" opacity="0.126" /><circle cx="413" cy="1465" r="141" fill="#FFFFFF" opacity="0.214" /><circle cx="859" cy="2060" r="90" fill="#FFFFFF" opacity="0.088" /><circle cx="525" cy="2212" r="53" fill="#FFFFFF" opacity="0.159" /><circle cx="548" cy="2488" r="123" fill="#FFFFFF" opacity="0.068" /><circle cx="2519" cy="1396" r="111" fill="#FFFFFF" opacity="0.145" /><circle cx="1789" cy="1844" r="119" fill="#FFFFFF" opacity="0.084" /><circle cx="2294" cy="1577" r="75" fill="#FFFFFF" opacity="0.066" /><circle cx="1130" cy="541" r="42" fill="#FFFFFF" opacity="0.101" /><circle cx="1426" cy="1278" r="129" fill="#FFFFFF" opacity="0.206" /><circle cx="590" cy="574" r="153" fill="#FFFFFF" opacity="0.157" /><circle cx="1968" cy="2364" r="147" fill="#FFFFFF" opacity="0.077" /><circle cx="487" cy="995" r="85" fill="#FFFFFF" opacity="0.157" /><circle cx="826" cy="1999" r="106" fill="#FFFFFF" opacity="0.144" /><circle cx="1185" cy="1919" r="37" fill="#FFFFFF" opacity="0.208" /></g>
  <g><path d="M 148.8 647.0 L 2693.9 370.5 L 2693.9 826.9 L 148.8 1103.4 Z" fill="#FFFFFF" opacity="0.195" /><path d="M 174.4 921.5 L 2689.1 645.0 L 2689.1 1137.3 L 174.4 1413.8 Z" fill="#FFFFFF" opacity="0.213" /><path d="M 237.7 1105.7 L 2883.7 829.2 L 2883.7 1284.9 L 237.7 1561.4 Z" fill="#FFFFFF" opacity="0.099" /><path d="M 182.0 1435.8 L 2823.0 1159.3 L 2823.0 1611.8 L 182.0 1888.3 Z" fill="#FFFFFF" opacity="0.211" /><path d="M 184.2 1657.5 L 2732.3 1381.0 L 2732.3 1821.8 L 184.2 2098.2 Z" fill="#FFFFFF" opacity="0.153" /><path d="M 343.3 1958.3 L 2883.5 1681.8 L 2883.5 2147.0 L 343.3 2423.5 Z" fill="#FFFFFF" opacity="0.215" /><path d="M 212.8 2171.6 L 2871.2 1895.1 L 2871.2 2324.9 L 212.8 2601.4 Z" fill="#FFFFFF" opacity="0.155" /><path d="M 392.4 2454.5 L 2832.8 2178.0 L 2832.8 2656.0 L 392.4 2932.5 Z" fill="#FFFFFF" opacity="0.144" /></g>
  <g filter="url(#soft131)"><g transform="rotate(-16.14 1536.0 1536.0)"><path d="M-368.6 501.1 C -225.8 556.7, -25.8 482.1, 107.5 552.5 C 250.4 567.3, 450.4 479.4, 583.7 522.4 C 726.5 530.0, 926.5 490.1, 1059.8 479.4 C 1202.7 474.7, 1402.7 521.7, 1536.0 449.5 C 1678.8 451.3, 1878.8 526.6, 2012.2 450.8 C 2155.0 437.7, 2355.0 519.7, 2488.3 482.7 C 2631.2 488.0, 2831.2 523.0, 2964.5 525.7 C 3107.3 520.2, 3307.3 475.9, 3440.6 553.7" fill="none" stroke="url(#ribbon131)" stroke-width="58.4" stroke-linecap="round" stroke-opacity="0.120" /></g><g transform="rotate(-15.56 1536.0 1536.0)"><path d="M-368.6 661.4 C -241.7 649.7, -63.9 664.8, 54.6 699.5 C 181.6 703.7, 359.4 649.8, 477.9 723.4 C 604.8 727.1, 782.6 632.3, 901.1 709.7 C 1028.1 723.6, 1205.9 637.2, 1324.4 666.7 C 1451.3 665.7, 1629.1 659.0, 1747.6 620.6 C 1874.6 606.7, 2052.4 709.3, 2170.9 599.2 C 2297.9 618.7, 2475.6 692.6, 2594.1 615.6 C 2721.1 597.9, 2898.9 715.1, 3017.4 659.8 C 3144.4 660.2, 3322.1 663.1, 3440.6 705.0" fill="none" stroke="url(#ribbon131)" stroke-width="54.4" stroke-linecap="round" stroke-opacity="0.146" /></g><g transform="rotate(-14.98 1536.0 1536.0)"><path d="M-368.6 945.7 C -254.4 960.5, -94.4 931.6, 12.3 909.2 C 126.6 908.6, 286.6 957.8, 393.2 877.9 C 507.5 903.2, 667.5 1026.0, 774.1 887.7 C 888.4 866.6, 1048.4 978.1, 1155.1 932.6 C 1269.4 933.6, 1429.3 954.4, 1536.0 985.5 C 1650.3 998.6, 1810.3 912.4, 1916.9 1014.2 C 2031.2 1011.3, 2191.2 869.2, 2297.9 1001.3 C 2412.1 1006.8, 2572.1 897.4, 2678.8 954.7 C 2793.1 951.3, 2953.1 937.3, 3059.7 902.6 C 3174.0 909.4, 3334.0 974.8, 3440.6 876.6" fill="none" stroke="url(#ribbon131)" stroke-width="50.4" stroke-linecap="round" stroke-opacity="0.172" /></g><g transform="rotate(-14.40 1536.0 1536.0)"><path d="M-368.6 1106.6 C -264.8 1053.6, -119.3 1187.6, -22.3 1033.8 C 81.5 1061.7, 227.0 1130.6, 324.0 1072.7 C 427.8 1084.6, 573.3 1118.2, 670.3 1132.2 C 774.1 1128.4, 919.6 1088.2, 1016.6 1176.2 C 1120.4 1158.2, 1265.9 1084.2, 1362.9 1177.9 C 1466.7 1170.6, 1612.2 1043.1, 1709.1 1136.5 C 1813.0 1131.4, 1958.5 1079.1, 2055.4 1076.9 C 2159.3 1068.0, 2304.8 1142.3, 2401.7 1035.4 C 2505.6 1027.9, 2651.1 1130.2, 2748.0 1037.1 C 2851.9 1015.3, 2997.4 1176.6, 3094.3 1081.0 C 3198.2 1082.7, 3343.7 1137.1, 3440.6 1140.4" fill="none" stroke="url(#ribbon131)" stroke-width="46.4" stroke-linecap="round" stroke-opacity="0.198" /></g><g transform="rotate(-13.82 1536.0 1536.0)"><path d="M-368.6 1237.3 C -273.4 1315.5, -140.1 1178.1, -51.2 1292.3 C 44.0 1288.4, 177.4 1206.4, 266.2 1230.5 C 361.5 1228.5, 494.8 1242.7, 583.7 1172.8 C 678.9 1171.7, 812.2 1291.1, 901.1 1154.2 C 996.4 1123.1, 1129.7 1264.3, 1218.6 1186.1 C 1313.8 1183.6, 1447.1 1284.4, 1536.0 1249.0 C 1631.2 1251.6, 1764.6 1230.2, 1853.4 1304.8 C 1948.7 1327.1, 2082.0 1211.5, 2170.9 1319.7 C 2266.1 1305.9, 2399.4 1150.9, 2488.3 1284.6 C 2583.6 1268.7, 2716.9 1205.8, 2805.8 1220.8 C 2901.0 1217.0, 3034.3 1255.2, 3123.2 1167.1 C 3218.4 1147.7, 3351.8 1276.0, 3440.6 1155.9" fill="none" stroke="url(#ribbon131)" stroke-width="42.4" stroke-linecap="round" stroke-opacity="0.224" /></g><g transform="rotate(-13.24 1536.0 1536.0)"><path d="M-368.6 1436.3 C -225.8 1512.7, -25.8 1393.0, 107.5 1526.9 C 250.4 1553.6, 450.4 1396.7, 583.7 1498.2 C 726.5 1474.3, 926.5 1410.6, 1059.8 1431.9 C 1202.7 1431.1, 1402.7 1441.4, 1536.0 1368.3 C 1678.8 1354.5, 1878.8 1463.6, 2012.2 1345.9 C 2155.0 1365.3, 2355.0 1507.2, 2488.3 1378.3 C 2631.2 1370.6, 2831.2 1473.6, 2964.5 1445.9 C 3107.3 1448.2, 3307.3 1426.5, 3440.6 1507.6" fill="none" stroke="url(#ribbon131)" stroke-width="38.4" stroke-linecap="round" stroke-opacity="0.250" /></g><g transform="rotate(-12.66 1536.0 1536.0)"><path d="M-368.6 1726.9 C -241.7 1682.1, -63.9 1758.3, 54.6 1631.3 C 181.6 1623.4, 359.4 1772.0, 477.9 1645.9 C 604.8 1622.4, 782.6 1787.2, 901.1 1709.6 C 1028.1 1705.2, 1205.9 1734.2, 1324.4 1783.8 C 1451.3 1799.3, 1629.1 1697.9, 1747.6 1823.5 C 1874.6 1849.6, 2052.4 1693.5, 2170.9 1804.6 C 2297.9 1784.0, 2475.6 1657.4, 2594.1 1738.6 C 2721.1 1739.9, 2898.9 1722.2, 3017.4 1665.5 C 3144.4 1649.5, 3322.1 1775.4, 3440.6 1629.6" fill="none" stroke="url(#ribbon131)" stroke-width="34.4" stroke-linecap="round" stroke-opacity="0.276" /></g><g transform="rotate(-12.08 1536.0 1536.0)"><path d="M-368.6 1906.7 C -254.4 1967.8, -94.4 1873.1, 12.3 2006.9 C 126.6 1985.4, 286.6 1865.5, 393.2 1998.4 C 507.5 2022.4, 667.5 1857.3, 774.1 1934.3 C 888.4 1940.8, 1048.4 1884.5, 1155.1 1853.5 C 1269.4 1858.5, 1429.3 1935.4, 1536.0 1804.9 C 1650.3 1790.4, 1810.3 1980.3, 1916.9 1818.1 C 2031.2 1844.8, 2191.2 2008.9, 2297.9 1885.0 C 2412.1 1878.5, 2572.1 1930.1, 2678.8 1965.1 C 2793.1 1948.0, 2953.1 1872.5, 3059.7 2009.8 C 3174.0 1975.4, 3334.0 1786.1, 3440.6 1991.9" fill="none" stroke="url(#ribbon131)" stroke-width="30.4" stroke-linecap="round" stroke-opacity="0.302" /></g><g transform="rotate(-11.50 1536.0 1536.0)"><path d="M-368.6 2009.5 C -264.8 2064.5, -119.3 1942.0, -22.3 2006.9 C 81.5 2006.1, 227.0 2012.5, 324.0 1927.5 C 427.8 1897.7, 573.3 2036.6, 670.3 1897.9 C 774.1 1932.5, 919.6 2049.4, 1016.6 1936.0 C 1120.4 1943.1, 1265.9 2047.5, 1362.9 2018.7 C 1466.7 2018.3, 1612.2 2000.7, 1709.1 2095.8 C 1813.0 2072.4, 1958.5 1975.1, 2055.4 2120.6 C 2159.3 2152.6, 2304.8 1920.4, 2401.7 2078.0 C 2505.6 2058.0, 2651.1 1944.7, 2748.0 1993.9 C 2851.9 1994.9, 2997.4 2022.3, 3094.3 1919.2 C 3198.2 1923.3, 3343.7 2068.2, 3440.6 1899.3" fill="none" stroke="url(#ribbon131)" stroke-width="26.4" stroke-linecap="round" stroke-opacity="0.328" /></g><g transform="rotate(-10.92 1536.0 1536.0)"><path d="M-368.6 2311.9 C -273.4 2281.5, -140.1 2356.3, -51.2 2202.1 C 44.0 2170.7, 177.4 2376.6, 266.2 2202.7 C 361.5 2201.9, 494.8 2428.7, 583.7 2269.5 C 678.9 2265.5, 812.2 2357.3, 901.1 2362.0 C 996.4 2357.4, 1129.7 2279.6, 1218.6 2424.1 C 1313.8 2391.8, 1447.1 2231.6, 1536.0 2418.1 C 1631.2 2431.4, 1764.6 2218.6, 1853.4 2347.7 C 1948.7 2356.8, 2082.0 2298.9, 2170.9 2255.5 C 2266.1 2277.6, 2399.4 2346.0, 2488.3 2197.5 C 2583.6 2167.3, 2716.9 2395.5, 2805.8 2208.9 C 2901.0 2168.1, 3034.3 2406.7, 3123.2 2282.7 C 3218.4 2287.5, 3351.8 2325.8, 3440.6 2374.2" fill="none" stroke="url(#ribbon131)" stroke-width="22.4" stroke-linecap="round" stroke-opacity="0.354" /></g><g transform="rotate(-10.34 1536.0 1536.0)"><path d="M-368.6 2432.5 C -225.8 2402.4, -25.8 2442.8, 107.5 2325.1 C 250.4 2350.4, 450.4 2535.5, 583.7 2310.5 C 726.5 2301.3, 926.5 2469.8, 1059.8 2369.8 C 1202.7 2364.9, 1402.7 2464.4, 1536.0 2467.2 C 1678.8 2461.9, 1878.8 2415.1, 2012.2 2543.5 C 2155.0 2576.6, 2355.0 2340.9, 2488.3 2552.5 C 2631.2 2579.5, 2831.2 2376.2, 2964.5 2488.7 C 3107.3 2496.4, 3307.3 2375.7, 3440.6 2390.8" fill="none" stroke="url(#ribbon131)" stroke-width="18.4" stroke-linecap="round" stroke-opacity="0.380" /></g><g transform="rotate(-9.76 1536.0 1536.0)"><path d="M-368.6 2702.3 C -241.7 2656.9, -63.9 2751.3, 54.6 2755.3 C 181.6 2746.8, 359.4 2668.6, 477.9 2826.8 C 604.8 2836.9, 782.6 2590.0, 901.1 2822.7 C 1028.1 2848.3, 1205.9 2558.7, 1324.4 2745.6 C 1451.3 2739.9, 1629.1 2677.2, 1747.6 2642.3 C 1874.6 2624.3, 2052.4 2770.4, 2170.9 2575.3 C 2297.9 2597.0, 2475.6 2827.5, 2594.1 2585.4 C 2721.1 2568.0, 2898.9 2774.1, 3017.4 2666.4 C 3144.4 2661.8, 3322.1 2720.1, 3440.6 2769.2" fill="none" stroke="url(#ribbon131)" stroke-width="14.4" stroke-linecap="round" stroke-opacity="0.406" /></g></g>
  <g><ellipse cx="1536.0" cy="1551.9" rx="728.6" ry="605.7" fill="url(#extrude131)" opacity="0.220" /><ellipse cx="1536.0" cy="1567.7" rx="736.0" ry="610.9" fill="url(#extrude131)" opacity="0.205" /><ellipse cx="1536.0" cy="1583.6" rx="743.4" ry="616.1" fill="url(#extrude131)" opacity="0.190" /><ellipse cx="1536.0" cy="1599.5" rx="750.9" ry="621.3" fill="url(#extrude131)" opacity="0.175" /><ellipse cx="1536.0" cy="1615.4" rx="758.3" ry="626.5" fill="url(#extrude131)" opacity="0.160" /><ellipse cx="1536.0" cy="1631.2" rx="765.7" ry="631.7" fill="url(#extrude131)" opacity="0.145" /><ellipse cx="1536.0" cy="1647.1" rx="773.2" ry="636.9" fill="url(#extrude131)" opacity="0.130" /><ellipse cx="1536.0" cy="1663.0" rx="780.6" ry="642.1" fill="url(#extrude131)" opacity="0.115" /><ellipse cx="1536.0" cy="1678.8" rx="788.0" ry="647.4" fill="url(#extrude131)" opacity="0.100" /><ellipse cx="1536.0" cy="1694.7" rx="795.5" ry="652.6" fill="url(#extrude131)" opacity="0.085" /><ellipse cx="1536.0" cy="1710.6" rx="802.9" ry="657.8" fill="url(#extrude131)" opacity="0.070" /><ellipse cx="1536.0" cy="1726.5" rx="810.3" ry="663.0" fill="url(#extrude131)" opacity="0.055" /></g>
  <ellipse cx="1536.0" cy="1726.5" rx="773.2" ry="214.9" fill="#0B1D2D" opacity="0.24" />
  <ellipse cx="1536.0" cy="1536.0" rx="743.4" ry="651.3" fill="url(#orb131)" stroke="#FFFFFF" stroke-opacity="0.42" stroke-width="7" />
  <ellipse cx="1431.9" cy="1392.7" rx="505.5" ry="299.6" fill="#FFFFFF" opacity="0.25" />
  <path d="M 199.4 399.4 C 1013.8 -30.7, 2058.2 768.0, 2872.6 215.0 L 2872.6 983.0 C 2089.0 1228.8, 1013.8 307.2, 199.4 1167.4 Z" fill="url(#glass131)" />
  <rect x="270" y="270" width="2532" height="2532" rx="430" fill="none" stroke="#FFFFFF" stroke-opacity="0.30" stroke-width="5" />
  <rect x="288.4" y="288.4" width="2495.1" height="2495.1" rx="399" fill="none" stroke="#FFD84D" stroke-opacity="0.35" stroke-width="3" />
  <g filter="url(#soft131)"><rect x="1478" y="1692" width="54" height="2" fill="#FFFFFF" opacity="0.308" /><rect x="1504" y="1666" width="2" height="54" fill="#FFFFFF" opacity="0.308" /><rect x="974" y="1369" width="30" height="2" fill="#FFFFFF" opacity="0.718" /><rect x="988" y="1355" width="2" height="30" fill="#FFFFFF" opacity="0.718" /><rect x="1200" y="2332" width="50" height="2" fill="#FFFFFF" opacity="0.513" /><rect x="1224" y="2308" width="2" height="50" fill="#FFFFFF" opacity="0.513" /><rect x="754" y="945" width="46" height="2" fill="#FFFFFF" opacity="0.555" /><rect x="776" y="923" width="2" height="46" fill="#FFFFFF" opacity="0.555" /><rect x="742" y="835" width="24" height="2" fill="#FFFFFF" opacity="0.357" /><rect x="753" y="824" width="2" height="24" fill="#FFFFFF" opacity="0.357" /><rect x="1654" y="996" width="80" height="2" fill="#FFFFFF" opacity="0.435" /><rect x="1693" y="957" width="2" height="80" fill="#FFFFFF" opacity="0.435" /><rect x="508" y="1323" width="54" height="2" fill="#FFFFFF" opacity="0.426" /><rect x="534" y="1297" width="2" height="54" fill="#FFFFFF" opacity="0.426" /><rect x="1227" y="585" width="32" height="2" fill="#FFFFFF" opacity="0.786" /><rect x="1242" y="570" width="2" height="32" fill="#FFFFFF" opacity="0.786" /><rect x="369" y="253" width="74" height="2" fill="#FFFFFF" opacity="0.606" /><rect x="405" y="217" width="2" height="74" fill="#FFFFFF" opacity="0.606" /><rect x="414" y="530" width="38" height="2" fill="#FFFFFF" opacity="0.752" /><rect x="432" y="512" width="2" height="38" fill="#FFFFFF" opacity="0.752" /><rect x="280" y="736" width="56" height="2" fill="#FFFFFF" opacity="0.738" /><rect x="307" y="709" width="2" height="56" fill="#FFFFFF" opacity="0.738" /><rect x="2658" y="1741" width="56" height="2" fill="#FFFFFF" opacity="0.446" /><rect x="2685" y="1714" width="2" height="56" fill="#FFFFFF" opacity="0.446" /><rect x="1147" y="1183" width="24" height="2" fill="#FFFFFF" opacity="0.351" /><rect x="1158" y="1172" width="2" height="24" fill="#FFFFFF" opacity="0.351" /><rect x="2787" y="561" width="62" height="2" fill="#FFFFFF" opacity="0.628" /><rect x="2817" y="531" width="2" height="62" fill="#FFFFFF" opacity="0.628" /><rect x="811" y="1116" width="68" height="2" fill="#FFFFFF" opacity="0.766" /><rect x="844" y="1083" width="2" height="68" fill="#FFFFFF" opacity="0.766" /><rect x="1341" y="1263" width="62" height="2" fill="#FFFFFF" opacity="0.359" /><rect x="1371" y="1233" width="2" height="62" fill="#FFFFFF" opacity="0.359" /><rect x="413" y="1469" width="60" height="2" fill="#FFFFFF" opacity="0.765" /><rect x="442" y="1440" width="2" height="60" fill="#FFFFFF" opacity="0.765" /><rect x="1449" y="375" width="52" height="2" fill="#FFFFFF" opacity="0.321" /><rect x="1474" y="350" width="2" height="52" fill="#FFFFFF" opacity="0.321" /><rect x="510" y="1898" width="32" height="2" fill="#FFFFFF" opacity="0.692" /><rect x="525" y="1883" width="2" height="32" fill="#FFFFFF" opacity="0.692" /><rect x="785" y="754" width="52" height="2" fill="#FFFFFF" opacity="0.812" /><rect x="810" y="729" width="2" height="52" fill="#FFFFFF" opacity="0.812" /><rect x="2643" y="2652" width="36" height="2" fill="#FFFFFF" opacity="0.667" /><rect x="2660" y="2635" width="2" height="36" fill="#FFFFFF" opacity="0.667" /><rect x="1365" y="2518" width="52" height="2" fill="#FFFFFF" opacity="0.462" /><rect x="1390" y="2493" width="2" height="52" fill="#FFFFFF" opacity="0.462" /><rect x="980" y="938" width="32" height="2" fill="#FFFFFF" opacity="0.630" /><rect x="995" y="923" width="2" height="32" fill="#FFFFFF" opacity="0.630" /><rect x="1804" y="1063" width="68" height="2" fill="#FFFFFF" opacity="0.623" /><rect x="1837" y="1030" width="2" height="68" fill="#FFFFFF" opacity="0.623" /><rect x="1676" y="1930" width="60" height="2" fill="#FFFFFF" opacity="0.549" /><rect x="1705" y="1901" width="2" height="60" fill="#FFFFFF" opacity="0.549" /><rect x="2421" y="2244" width="34" height="2" fill="#FFFFFF" opacity="0.576" /><rect x="2437" y="2228" width="2" height="34" fill="#FFFFFF" opacity="0.576" /></g>
  <g opacity="0.52"><path d="M996 1006 L2148 1006 L2148 2158 L996 2158 Z" fill="none" stroke="#0C2030" stroke-width="90" /><path d="M996 1582 L2148 1582" stroke="#0C2030" stroke-width="90" /><path d="M1572 1006 L1572 2158" stroke="#0C2030" stroke-width="90" /></g>
  <g filter="url(#soft131)"><path d="M960 960 L2112 960 L2112 2112 L960 2112 Z" fill="none" stroke="url(#symbol131)" stroke-width="90" /><path d="M960 1536 L2112 1536" stroke="url(#symbol131)" stroke-width="90" /><path d="M1536 960 L1536 2112" stroke="url(#symbol131)" stroke-width="90" /></g>
  <rect x="138" y="138" width="2796" height="2796" rx="629" fill="#FFFFFF" filter="url(#grain131)" opacity="0.18" />
</svg>
