<svg xmlns="http://www.w3.org/2000/svg" width="3072" height="3072" viewBox="0 0 3072 3072">
  <title>QuartzOS App Icon 192 - alpha_charts_192</title>
  <defs><linearGradient id="bg191" x1="0%" y1="0%" x2="100%" y2="100%"><stop offset="0%" stop-color="#8A5CFF" /><stop offset="26%" stop-color="#FF9F43" /><stop offset="56%" stop-color="#53E3A6" /><stop offset="78%" stop-color="#4BA7D0" /><stop offset="100%" stop-color="#122A3D" /></linearGradient><radialGradient id="sun191" cx="26%" cy="30%" r="88%"><stop offset="0%" stop-color="#FFFFFF" stop-opacity="0.62" /><stop offset="30%" stop-color="#36D1FF" stop-opacity="0.35" /><stop offset="100%" stop-color="#36D1FF" stop-opacity="0" /></radialGradient><linearGradient id="glass191" x1="0%" y1="0%" x2="0%" y2="100%"><stop offset="0%" stop-color="#FFFFFF" stop-opacity="0.70" /><stop offset="46%" stop-color="#FFFFFF" stop-opacity="0.26" /><stop offset="100%" stop-color="#FFFFFF" stop-opacity="0.00" /></linearGradient><linearGradient id="ribbon191" x1="0%" y1="0%" x2="100%" y2="0%"><stop offset="0%" stop-color="#8A5CFF" stop-opacity="0.18" /><stop offset="34%" stop-color="#FF9F43" stop-opacity="0.72" /><stop offset="66%" stop-color="#53E3A6" stop-opacity="0.72" /><stop offset="100%" stop-color="#36D1FF" stop-opacity="0.18" /></linearGradient><radialGradient id="orb191" cx="34%" cy="27%" r="74%"><stop offset="0%" stop-color="#FFFFFF" stop-opacity="0.84" /><stop offset="30%" stop-color="#8A5CFF" stop-opacity="0.52" /><stop offset="68%" stop-color="#FF9F43" stop-opacity="0.42" /><stop offset="100%" stop-color="#53E3A6" stop-opacity="0.20" /></radialGradient><linearGradient id="extrude191" x1="0%" y1="0%" x2="0%" y2="100%"><stop offset="0%" stop-color="#15283C" stop-opacity="0.45" /><stop offset="100%" stop-color="#08131D" stop-opacity="0.06" /></linearGradient><linearGradient id="symbol191" x1="0%" y1="0%" x2="100%" y2="100%"><stop offset="0%" stop-color="#FFFFFF" /><stop offset="100%" stop-color="#36D1FF" /></linearGradient><filter id="shadow191" x="-40%" y="-40%" width="180%" height="180%"><feDropShadow dx="0" dy="49" stdDeviation="86" flood-color="#06111A" flood-opacity="0.54" /></filter><filter id="soft191" x="-40%" y="-40%" width="180%" height="180%"><feDropShadow dx="0" dy="0" stdDeviation="14" flood-color="#8A5CFF" flood-opacity="0.45" /></filter><filter id="grain191"><feTurbulence type="fractalNoise" baseFrequency="0.935" numOctaves="2" seed="191" /><feColorMatrix type="saturate" values="0" /><feComponentTransfer><feFuncA type="table" tableValues="0 0.09" /></feComponentTransfer></filter></defs>
  <rect x="138" y="138" width="2796" height="2796" rx="629" fill="url(#bg191)" filter="url(#shadow191)" />
  <rect x="138" y="138" width="2796" height="2796" rx="629" fill="url(#sun191)" />
  <g><circle cx="2123" cy="1593" r="67" fill="#FFFFFF" opacity="0.138" /><circle cx="1036" cy="2266" r="92" fill="#FFFFFF" opacity="0.215" /><circle cx="1769" cy="1916" r="112" fill="#FFFFFF" opacity="0.071" /><circle cx="621" cy="1625" r="70" fill="#FFFFFF" opacity="0.133" /><circle cx="1011" cy="2449" r="45" fill="#FFFFFF" opacity="0.189" /><circle cx="2645" cy="882" r="66" fill="#FFFFFF" opacity="0.188" /><circle cx="399" cy="362" r="111" fill="#FFFFFF" opacity="0.075" /><circle cx="2477" cy="528" r="86" fill="#FFFFFF" opacity="0.232" /><circle cx="862" cy="790" r="66" fill="#FFFFFF" opacity="0.147" /><circle cx="509" cy="2694" r="42" fill="#FFFFFF" opacity="0.214" /><circle cx="1794" cy="922" r="132" fill="#FFFFFF" opacity="0.235" /><circle cx="1776" cy="1307" r="74" fill="#FFFFFF" opacity="0.159" /><circle cx="1044" cy="1805" r="129" fill="#FFFFFF" opacity="0.142" /><circle cx="1133" cy="2353" r="45" fill="#FFFFFF" opacity="0.146" /><circle cx="1468" cy="2318" r="135" fill="#FFFFFF" opacity="0.218" /><circle cx="677" cy="2349" r="62" fill="#FFFFFF" opacity="0.126" /><circle cx="701" cy="1683" r="68" fill="#FFFFFF" opacity="0.144" /><circle cx="1054" cy="1718" r="50" fill="#FFFFFF" opacity="0.106" /><circle cx="1500" cy="934" r="53" fill="#FFFFFF" opacity="0.071" /><circle cx="1660" cy="338" r="106" fill="#FFFFFF" opacity="0.167" /><circle cx="647" cy="935" r="82" fill="#FFFFFF" opacity="0.148" /><circle cx="414" cy="1623" r="146" fill="#FFFFFF" opacity="0.133" /><circle cx="748" cy="1751" r="84" fill="#FFFFFF" opacity="0.239" /><circle cx="2421" cy="1191" r="92" fill="#FFFFFF" opacity="0.149" /><circle cx="595" cy="960" r="37" fill="#FFFFFF" opacity="0.193" /><circle cx="2523" cy="825" r="85" fill="#FFFFFF" opacity="0.196" /><circle cx="1421" cy="521" r="111" fill="#FFFFFF" opacity="0.129" /><circle cx="2433" cy="2234" r="136" fill="#FFFFFF" opacity="0.147" /></g>
  <g><path d="M 176.3 595.4 L 2843.9 318.9 L 2843.9 792.1 L 176.3 1068.5 Z" fill="#FFFFFF" opacity="0.174" /><path d="M 177.2 900.2 L 2878.5 623.7 L 2878.5 1084.8 L 177.2 1361.3 Z" fill="#FFFFFF" opacity="0.186" /><path d="M 208.6 1144.7 L 2905.3 868.3 L 2905.3 1300.5 L 208.6 1576.9 Z" fill="#FFFFFF" opacity="0.210" /><path d="M 167.0 1367.2 L 2877.3 1090.7 L 2877.3 1571.7 L 167.0 1848.1 Z" fill="#FFFFFF" opacity="0.110" /><path d="M 304.1 1667.0 L 2794.6 1390.6 L 2794.6 1873.3 L 304.1 2149.8 Z" fill="#FFFFFF" opacity="0.190" /><path d="M 197.2 1923.2 L 2679.7 1646.7 L 2679.7 2122.4 L 197.2 2398.9 Z" fill="#FFFFFF" opacity="0.224" /><path d="M 253.5 2148.0 L 2874.5 1871.5 L 2874.5 2321.1 L 253.5 2597.6 Z" fill="#FFFFFF" opacity="0.081" /><path d="M 216.0 2437.9 L 2700.8 2161.4 L 2700.8 2658.7 L 216.0 2935.2 Z" fill="#FFFFFF" opacity="0.208" /></g>
  <g filter="url(#soft191)"><g transform="rotate(-23.63 1536.0 1536.0)"><path d="M-368.6 553.8 C -225.8 502.1, -25.8 580.8, 107.5 505.1 C 250.4 506.4, 450.4 582.0, 583.7 538.5 C 726.5 538.7, 926.5 566.0, 1059.8 581.3 C 1202.7 582.9, 1402.7 533.2, 1536.0 607.4 C 1678.8 594.7, 1878.8 507.2, 2012.2 601.0 C 2155.0 610.7, 2355.0 507.9, 2488.3 566.0 C 2631.2 567.5, 2831.2 546.5, 2964.5 523.6 C 3107.3 516.8, 3307.3 563.4, 3440.6 499.5" fill="none" stroke="url(#ribbon191)" stroke-width="58.4" stroke-linecap="round" stroke-opacity="0.120" /></g><g transform="rotate(-23.05 1536.0 1536.0)"><path d="M-368.6 656.2 C -241.7 678.3, -63.9 615.2, 54.6 643.0 C 181.6 638.6, 359.4 660.8, 477.9 603.3 C 604.8 616.2, 782.6 686.1, 901.1 595.6 C 1028.1 587.1, 1205.9 676.3, 1324.4 624.7 C 1451.3 631.4, 1629.1 682.2, 1747.6 672.8 C 1874.6 669.1, 2052.4 636.9, 2170.9 710.9 C 2297.9 689.8, 2475.6 634.7, 2594.1 715.8 C 2721.1 716.7, 2898.9 637.7, 3017.4 684.5 C 3144.4 674.2, 3322.1 640.6, 3440.6 636.0" fill="none" stroke="url(#ribbon191)" stroke-width="54.4" stroke-linecap="round" stroke-opacity="0.146" /></g><g transform="rotate(-22.47 1536.0 1536.0)"><path d="M-368.6 947.1 C -254.4 988.8, -94.4 920.4, 12.3 925.4 C 126.6 921.9, 286.6 955.7, 393.2 884.7 C 507.5 878.9, 667.5 992.1, 774.1 881.8 C 888.4 893.0, 1048.4 994.9, 1155.1 918.6 C 1269.4 920.7, 1429.3 961.3, 1536.0 972.6 C 1650.3 973.1, 1810.3 928.8, 1916.9 1011.2 C 2031.2 1018.4, 2191.2 922.6, 2297.9 1010.9 C 2412.1 1021.4, 2572.1 872.2, 2678.8 971.9 C 2793.1 971.9, 2953.1 938.8, 3059.7 917.9 C 3174.0 911.3, 3334.0 969.1, 3440.6 881.6" fill="none" stroke="url(#ribbon191)" stroke-width="50.4" stroke-linecap="round" stroke-opacity="0.172" /></g><g transform="rotate(-21.89 1536.0 1536.0)"><path d="M-368.6 1049.8 C -264.8 963.5, -119.3 1115.7, -22.3 1012.3 C 81.5 998.3, 227.0 1069.6, 324.0 1071.5 C 427.8 1067.0, 573.3 1031.1, 670.3 1117.5 C 774.1 1110.8, 919.6 1005.7, 1016.6 1122.5 C 1120.4 1138.0, 1265.9 1024.2, 1362.9 1083.4 C 1466.7 1093.3, 1612.2 1036.8, 1709.1 1023.9 C 1813.0 1031.9, 1958.5 1075.1, 2055.4 980.2 C 2159.3 986.0, 2304.8 1113.8, 2401.7 978.6 C 2505.6 981.5, 2651.1 1081.2, 2748.0 1020.3 C 2851.9 1023.4, 2997.4 1059.8, 3094.3 1079.9 C 3198.2 1083.3, 3343.7 1023.7, 3440.6 1121.2" fill="none" stroke="url(#ribbon191)" stroke-width="46.4" stroke-linecap="round" stroke-opacity="0.198" /></g><g transform="rotate(-21.31 1536.0 1536.0)"><path d="M-368.6 1321.7 C -273.4 1290.5, -140.1 1349.4, -51.2 1246.9 C 44.0 1266.1, 177.4 1365.0, 266.2 1242.9 C 361.5 1230.1, 494.8 1348.0, 583.7 1286.7 C 678.9 1284.1, 812.2 1342.9, 901.1 1351.7 C 996.4 1355.3, 1129.7 1301.9, 1218.6 1398.6 C 1313.8 1399.1, 1447.1 1251.6, 1536.0 1398.8 C 1631.2 1399.6, 1764.6 1251.3, 1853.4 1352.2 C 1948.7 1353.7, 2082.0 1294.9, 2170.9 1287.2 C 2266.1 1294.0, 2399.4 1340.6, 2488.3 1243.1 C 2583.6 1234.2, 2716.9 1390.5, 2805.8 1246.6 C 2901.0 1253.8, 3034.3 1346.1, 3123.2 1295.8 C 3218.4 1297.4, 3351.8 1336.5, 3440.6 1360.6" fill="none" stroke="url(#ribbon191)" stroke-width="42.4" stroke-linecap="round" stroke-opacity="0.224" /></g><g transform="rotate(-20.73 1536.0 1536.0)"><path d="M-368.6 1511.4 C -225.8 1554.4, -25.8 1440.5, 107.5 1516.4 C 250.4 1516.4, 450.4 1506.1, 583.7 1450.0 C 726.5 1429.5, 926.5 1572.3, 1059.8 1420.8 C 1202.7 1425.1, 1402.7 1585.0, 1536.0 1446.7 C 1678.8 1472.2, 1878.8 1575.5, 2012.2 1511.8 C 2155.0 1511.9, 2355.0 1511.1, 2488.3 1576.7 C 2631.2 1600.3, 2831.2 1445.6, 2964.5 1602.0 C 3107.3 1580.2, 3307.3 1451.5, 3440.6 1572.4" fill="none" stroke="url(#ribbon191)" stroke-width="38.4" stroke-linecap="round" stroke-opacity="0.250" /></g><g transform="rotate(-20.15 1536.0 1536.0)"><path d="M-368.6 1739.0 C -241.7 1738.7, -63.9 1739.4, 54.6 1808.8 C 181.6 1800.0, 359.4 1695.6, 477.9 1836.6 C 604.8 1831.5, 782.6 1679.1, 901.1 1805.2 C 1028.1 1786.9, 1205.9 1694.6, 1324.4 1733.6 C 1451.3 1731.6, 1629.1 1741.0, 1747.6 1665.3 C 1874.6 1685.7, 2052.4 1762.5, 2170.9 1641.6 C 2297.9 1661.1, 2475.6 1772.3, 2594.1 1677.0 C 2721.1 1694.4, 2898.9 1810.4, 3017.4 1750.0 C 3144.4 1748.1, 3322.1 1732.8, 3440.6 1816.3" fill="none" stroke="url(#ribbon191)" stroke-width="34.4" stroke-linecap="round" stroke-opacity="0.276" /></g><g transform="rotate(-19.57 1536.0 1536.0)"><path d="M-368.6 1887.1 C -254.4 1894.8, -94.4 1881.6, 12.3 1819.2 C 126.6 1811.6, 286.6 1946.6, 393.2 1782.6 C 507.5 1797.4, 667.5 1938.8, 774.1 1809.5 C 888.4 1813.8, 1048.4 1946.6, 1155.1 1883.4 C 1269.4 1884.1, 1429.3 1891.1, 1536.0 1959.7 C 1650.3 1987.9, 1810.3 1806.7, 1916.9 1991.9 C 2031.2 1976.1, 2191.2 1812.2, 2297.9 1960.6 C 2412.1 1937.2, 2572.1 1852.7, 2678.8 1884.8 C 2793.1 1884.3, 2953.1 1890.0, 3059.7 1810.4 C 3174.0 1825.1, 3334.0 1922.7, 3440.6 1782.5" fill="none" stroke="url(#ribbon191)" stroke-width="30.4" stroke-linecap="round" stroke-opacity="0.302" /></g><g transform="rotate(-18.99 1536.0 1536.0)"><path d="M-368.6 2110.7 C -264.8 2028.6, -119.3 2182.4, -22.3 2056.2 C 81.5 2067.9, 227.0 2132.3, 324.0 2142.7 C 427.8 2151.6, 573.3 2074.9, 670.3 2209.9 C 774.1 2179.3, 919.6 2058.1, 1016.6 2216.8 C 1120.4 2230.2, 1265.9 2005.4, 1362.9 2159.4 C 1466.7 2176.0, 1612.2 2063.0, 1709.1 2072.5 C 1813.0 2068.7, 1958.5 2147.6, 2055.4 2008.7 C 2159.3 2011.1, 2304.8 2148.6, 2401.7 2006.8 C 2505.6 2010.9, 2651.1 2211.1, 2748.0 2067.9 C 2851.9 2065.1, 2997.4 2155.4, 3094.3 2155.0 C 3198.2 2162.0, 3343.7 2091.4, 3440.6 2215.2" fill="none" stroke="url(#ribbon191)" stroke-width="26.4" stroke-linecap="round" stroke-opacity="0.328" /></g><g transform="rotate(-18.41 1536.0 1536.0)"><path d="M-368.6 2284.7 C -273.4 2387.3, -140.1 2252.4, -51.2 2276.9 C 44.0 2274.8, 177.4 2289.8, 266.2 2194.2 C 361.5 2179.6, 494.8 2336.6, 583.7 2166.3 C 678.9 2169.0, 812.2 2394.8, 901.1 2210.3 C 996.4 2221.9, 1129.7 2362.0, 1218.6 2299.4 C 1313.8 2298.6, 1447.1 2275.0, 1536.0 2379.6 C 1631.2 2391.4, 1764.6 2234.5, 1853.4 2402.2 C 1948.7 2373.7, 2082.0 2215.3, 2170.9 2353.5 C 2266.1 2366.4, 2399.4 2263.2, 2488.3 2263.1 C 2583.6 2260.8, 2716.9 2293.2, 2805.8 2185.8 C 2901.0 2193.9, 3034.3 2355.2, 3123.2 2168.4 C 3218.4 2183.9, 3351.8 2366.0, 3440.6 2221.6" fill="none" stroke="url(#ribbon191)" stroke-width="22.4" stroke-linecap="round" stroke-opacity="0.354" /></g><g transform="rotate(-17.83 1536.0 1536.0)"><path d="M-368.6 2467.5 C -225.8 2470.5, -25.8 2465.5, 107.5 2379.2 C 250.4 2375.2, 450.4 2541.5, 583.7 2341.6 C 726.5 2367.5, 926.5 2519.8, 1059.8 2380.4 C 1202.7 2395.6, 1402.7 2529.1, 1536.0 2472.1 C 1678.8 2472.8, 1878.8 2465.4, 2012.2 2561.0 C 2155.0 2531.8, 2355.0 2380.2, 2488.3 2593.2 C 2631.2 2633.6, 2831.2 2420.7, 2964.5 2549.2 C 3107.3 2539.7, 3307.3 2407.9, 3440.6 2455.7" fill="none" stroke="url(#ribbon191)" stroke-width="18.4" stroke-linecap="round" stroke-opacity="0.380" /></g><g transform="rotate(-17.25 1536.0 1536.0)"><path d="M-368.6 2645.3 C -241.7 2514.4, -63.9 2758.4, 54.6 2537.8 C 181.6 2518.6, 359.4 2700.9, 477.9 2626.5 C 604.8 2633.4, 782.6 2667.0, 901.1 2726.7 C 1028.1 2738.8, 1205.9 2551.5, 1324.4 2777.5 C 1451.3 2755.5, 1629.1 2514.9, 1747.6 2748.2 C 1874.6 2742.2, 2052.4 2598.2, 2170.9 2656.5 C 2297.9 2656.7, 2475.6 2635.5, 2594.1 2558.0 C 2721.1 2563.3, 2898.9 2731.5, 3017.4 2512.5 C 3144.4 2520.2, 3322.1 2704.8, 3440.6 2547.6" fill="none" stroke="url(#ribbon191)" stroke-width="14.4" stroke-linecap="round" stroke-opacity="0.406" /></g></g>
  <g><ellipse cx="1536.0" cy="1551.9" rx="728.6" ry="605.7" fill="url(#extrude191)" opacity="0.220" /><ellipse cx="1536.0" cy="1567.7" rx="736.0" ry="610.9" fill="url(#extrude191)" opacity="0.205" /><ellipse cx="1536.0" cy="1583.6" rx="743.4" ry="616.1" fill="url(#extrude191)" opacity="0.190" /><ellipse cx="1536.0" cy="1599.5" rx="750.9" ry="621.3" fill="url(#extrude191)" opacity="0.175" /><ellipse cx="1536.0" cy="1615.4" rx="758.3" ry="626.5" fill="url(#extrude191)" opacity="0.160" /><ellipse cx="1536.0" cy="1631.2" rx="765.7" ry="631.7" fill="url(#extrude191)" opacity="0.145" /><ellipse cx="1536.0" cy="1647.1" rx="773.2" ry="636.9" fill="url(#extrude191)" opacity="0.130" /><ellipse cx="1536.0" cy="1663.0" rx="780.6" ry="642.1" fill="url(#extrude191)" opacity="0.115" /><ellipse cx="1536.0" cy="1678.8" rx="788.0" ry="647.4" fill="url(#extrude191)" opacity="0.100" /><ellipse cx="1536.0" cy="1694.7" rx="795.5" ry="652.6" fill="url(#extrude191)" opacity="0.085" /><ellipse cx="1536.0" cy="1710.6" rx="802.9" ry="657.8" fill="url(#extrude191)" opacity="0.070" /><ellipse cx="1536.0" cy="1726.5" rx="810.3" ry="663.0" fill="url(#extrude191)" opacity="0.055" /></g>
  <ellipse cx="1536.0" cy="1726.5" rx="773.2" ry="214.9" fill="#0B1D2D" opacity="0.24" />
  <ellipse cx="1536.0" cy="1536.0" rx="743.4" ry="651.3" fill="url(#orb191)" stroke="#FFFFFF" stroke-opacity="0.42" stroke-width="7" />
  <ellipse cx="1431.9" cy="1392.7" rx="505.5" ry="299.6" fill="#FFFFFF" opacity="0.25" />
  <path d="M 199.4 399.4 C 1013.8 -30.7, 2058.2 768.0, 2872.6 215.0 L 2872.6 983.0 C 2089.0 1228.8, 1013.8 307.2, 199.4 1167.4 Z" fill="url(#glass191)" />
  <rect x="270" y="270" width="2532" height="2532" rx="430" fill="none" stroke="#FFFFFF" stroke-opacity="0.30" stroke-width="5" />
  <rect x="288.4" y="288.4" width="2495.1" height="2495.1" rx="399" fill="none" stroke="#8A5CFF" stroke-opacity="0.35" stroke-width="3" />
  <g filter="url(#soft191)"><rect x="2771" y="1002" width="64" height="2" fill="#FFFFFF" opacity="0.757" /><rect x="2802" y="971" width="2" height="64" fill="#FFFFFF" opacity="0.757" /><rect x="1702" y="1372" width="24" height="2" fill="#FFFFFF" opacity="0.791" /><rect x="1713" y="1361" width="2" height="24" fill="#FFFFFF" opacity="0.791" /><rect x="1887" y="2511" width="46" height="2" fill="#FFFFFF" opacity="0.522" /><rect x="1909" y="2489" width="2" height="46" fill="#FFFFFF" opacity="0.522" /><rect x="1869" y="2369" width="66" height="2" fill="#FFFFFF" opacity="0.703" /><rect x="1901" y="2337" width="2" height="66" fill="#FFFFFF" opacity="0.703" /><rect x="2562" y="2674" width="52" height="2" fill="#FFFFFF" opacity="0.634" /><rect x="2587" y="2649" width="2" height="52" fill="#FFFFFF" opacity="0.634" /><rect x="2010" y="1122" width="56" height="2" fill="#FFFFFF" opacity="0.409" /><rect x="2037" y="1095" width="2" height="56" fill="#FFFFFF" opacity="0.409" /><rect x="2261" y="2371" width="32" height="2" fill="#FFFFFF" opacity="0.799" /><rect x="2276" y="2356" width="2" height="32" fill="#FFFFFF" opacity="0.799" /><rect x="696" y="2067" width="58" height="2" fill="#FFFFFF" opacity="0.769" /><rect x="724" y="2039" width="2" height="58" fill="#FFFFFF" opacity="0.769" /><rect x="2493" y="2033" width="84" height="2" fill="#FFFFFF" opacity="0.421" /><rect x="2534" y="1992" width="2" height="84" fill="#FFFFFF" opacity="0.421" /><rect x="2516" y="2038" width="74" height="2" fill="#FFFFFF" opacity="0.822" /><rect x="2552" y="2002" width="2" height="74" fill="#FFFFFF" opacity="0.822" /><rect x="2080" y="2335" width="56" height="2" fill="#FFFFFF" opacity="0.553" /><rect x="2107" y="2308" width="2" height="56" fill="#FFFFFF" opacity="0.553" /><rect x="503" y="1433" width="80" height="2" fill="#FFFFFF" opacity="0.503" /><rect x="542" y="1394" width="2" height="80" fill="#FFFFFF" opacity="0.503" /><rect x="2735" y="1895" width="54" height="2" fill="#FFFFFF" opacity="0.514" /><rect x="2761" y="1869" width="2" height="54" fill="#FFFFFF" opacity="0.514" /><rect x="1570" y="2305" width="36" height="2" fill="#FFFFFF" opacity="0.788" /><rect x="1587" y="2288" width="2" height="36" fill="#FFFFFF" opacity="0.788" /><rect x="2655" y="2065" width="48" height="2" fill="#FFFFFF" opacity="0.730" /><rect x="2678" y="2042" width="2" height="48" fill="#FFFFFF" opacity="0.730" /><rect x="1623" y="950" width="62" height="2" fill="#FFFFFF" opacity="0.711" /><rect x="1653" y="920" width="2" height="62" fill="#FFFFFF" opacity="0.711" /><rect x="2563" y="1169" width="70" height="2" fill="#FFFFFF" opacity="0.802" /><rect x="2597" y="1135" width="2" height="70" fill="#FFFFFF" opacity="0.802" /><rect x="1415" y="2694" width="76" height="2" fill="#FFFFFF" opacity="0.597" /><rect x="1452" y="2657" width="2" height="76" fill="#FFFFFF" opacity="0.597" /><rect x="2027" y="862" width="32" height="2" fill="#FFFFFF" opacity="0.484" /><rect x="2042" y="847" width="2" height="32" fill="#FFFFFF" opacity="0.484" /><rect x="2096" y="934" width="40" height="2" fill="#FFFFFF" opacity="0.521" /><rect x="2115" y="915" width="2" height="40" fill="#FFFFFF" opacity="0.521" /><rect x="724" y="1946" width="44" height="2" fill="#FFFFFF" opacity="0.846" /><rect x="745" y="1925" width="2" height="44" fill="#FFFFFF" opacity="0.846" /><rect x="1009" y="1059" width="44" height="2" fill="#FFFFFF" opacity="0.593" /><rect x="1030" y="1038" width="2" height="44" fill="#FFFFFF" opacity="0.593" /><rect x="2718" y="2229" width="50" height="2" fill="#FFFFFF" opacity="0.647" /><rect x="2742" y="2205" width="2" height="50" fill="#FFFFFF" opacity="0.647" /><rect x="391" y="1065" width="62" height="2" fill="#FFFFFF" opacity="0.302" /><rect x="421" y="1035" width="2" height="62" fill="#FFFFFF" opacity="0.302" /><rect x="457" y="1469" width="42" height="2" fill="#FFFFFF" opacity="0.592" /><rect x="477" y="1449" width="2" height="42" fill="#FFFFFF" opacity="0.592" /><rect x="961" y="1936" width="42" height="2" fill="#FFFFFF" opacity="0.797" /><rect x="981" y="1916" width="2" height="42" fill="#FFFFFF" opacity="0.797" /></g>
  <g opacity="0.52"><path d="M996 1006 L2148 1006 L2148 2158 L996 2158 Z" fill="none" stroke="#0C2030" stroke-width="90" /><path d="M996 1582 L2148 1582" stroke="#0C2030" stroke-width="90" /><path d="M1572 1006 L1572 2158" stroke="#0C2030" stroke-width="90" /></g>
  <g filter="url(#soft191)"><path d="M960 960 L2112 960 L2112 2112 L960 2112 Z" fill="none" stroke="url(#symbol191)" stroke-width="90" /><path d="M960 1536 L2112 1536" stroke="url(#symbol191)" stroke-width="90" /><path d="M1536 960 L1536 2112" stroke="url(#symbol191)" stroke-width="90" /></g>
  <rect x="138" y="138" width="2796" height="2796" rx="629" fill="#FFFFFF" filter="url(#grain191)" opacity="0.18" />
</svg>
