<svg xmlns="http://www.w3.org/2000/svg" width="3072" height="3072" viewBox="0 0 3072 3072">
  <title>QuartzOS App Icon 352 - alpha_designer_352</title>
  <defs><linearGradient id="bg351" x1="0%" y1="0%" x2="100%" y2="100%"><stop offset="0%" stop-color="#3B82FF" /><stop offset="26%" stop-color="#FF6AB3" /><stop offset="56%" stop-color="#FFD84D" /><stop offset="78%" stop-color="#6C7CC5" /><stop offset="100%" stop-color="#1E2032" /></linearGradient><radialGradient id="sun351" cx="25%" cy="34%" r="88%"><stop offset="0%" stop-color="#FFFFFF" stop-opacity="0.62" /><stop offset="30%" stop-color="#53E3A6" stop-opacity="0.35" /><stop offset="100%" stop-color="#53E3A6" stop-opacity="0" /></radialGradient><linearGradient id="glass351" x1="0%" y1="0%" x2="0%" y2="100%"><stop offset="0%" stop-color="#FFFFFF" stop-opacity="0.70" /><stop offset="46%" stop-color="#FFFFFF" stop-opacity="0.26" /><stop offset="100%" stop-color="#FFFFFF" stop-opacity="0.00" /></linearGradient><linearGradient id="ribbon351" x1="0%" y1="0%" x2="100%" y2="0%"><stop offset="0%" stop-color="#3B82FF" stop-opacity="0.18" /><stop offset="34%" stop-color="#FF6AB3" stop-opacity="0.72" /><stop offset="66%" stop-color="#FFD84D" stop-opacity="0.72" /><stop offset="100%" stop-color="#53E3A6" stop-opacity="0.18" /></linearGradient><radialGradient id="orb351" cx="34%" cy="27%" r="74%"><stop offset="0%" stop-color="#FFFFFF" stop-opacity="0.84" /><stop offset="30%" stop-color="#3B82FF" stop-opacity="0.52" /><stop offset="68%" stop-color="#FF6AB3" stop-opacity="0.42" /><stop offset="100%" stop-color="#FFD84D" stop-opacity="0.20" /></radialGradient><linearGradient id="extrude351" x1="0%" y1="0%" x2="0%" y2="100%"><stop offset="0%" stop-color="#15283C" stop-opacity="0.45" /><stop offset="100%" stop-color="#08131D" stop-opacity="0.06" /></linearGradient><linearGradient id="symbol351" x1="0%" y1="0%" x2="100%" y2="100%"><stop offset="0%" stop-color="#FFFFFF" /><stop offset="100%" stop-color="#53E3A6" /></linearGradient><filter id="shadow351" x="-40%" y="-40%" width="180%" height="180%"><feDropShadow dx="0" dy="49" stdDeviation="86" flood-color="#06111A" flood-opacity="0.54" /></filter><filter id="soft351" x="-40%" y="-40%" width="180%" height="180%"><feDropShadow dx="0" dy="0" stdDeviation="14" flood-color="#3B82FF" flood-opacity="0.45" /></filter><filter id="grain351"><feTurbulence type="fractalNoise" baseFrequency="0.976" numOctaves="2" seed="351" /><feColorMatrix type="saturate" values="0" /><feComponentTransfer><feFuncA type="table" tableValues="0 0.09" /></feComponentTransfer></filter></defs>
  <rect x="138" y="138" width="2796" height="2796" rx="629" fill="url(#bg351)" filter="url(#shadow351)" />
  <rect x="138" y="138" width="2796" height="2796" rx="629" fill="url(#sun351)" />
  <g><circle cx="1692" cy="810" r="76" fill="#FFFFFF" opacity="0.175" /><circle cx="2631" cy="1597" r="112" fill="#FFFFFF" opacity="0.121" /><circle cx="1970" cy="1294" r="55" fill="#FFFFFF" opacity="0.196" /><circle cx="819" cy="1862" r="133" fill="#FFFFFF" opacity="0.213" /><circle cx="2466" cy="2174" r="44" fill="#FFFFFF" opacity="0.109" /><circle cx="1957" cy="1465" r="49" fill="#FFFFFF" opacity="0.156" /><circle cx="1458" cy="565" r="141" fill="#FFFFFF" opacity="0.110" /><circle cx="2561" cy="945" r="159" fill="#FFFFFF" opacity="0.103" /><circle cx="1964" cy="2203" r="152" fill="#FFFFFF" opacity="0.192" /><circle cx="1236" cy="1640" r="108" fill="#FFFFFF" opacity="0.231" /><circle cx="2237" cy="2538" r="136" fill="#FFFFFF" opacity="0.109" /><circle cx="2378" cy="2429" r="157" fill="#FFFFFF" opacity="0.131" /><circle cx="2178" cy="334" r="128" fill="#FFFFFF" opacity="0.076" /><circle cx="767" cy="2627" r="37" fill="#FFFFFF" opacity="0.187" /><circle cx="2298" cy="631" r="150" fill="#FFFFFF" opacity="0.220" /><circle cx="745" cy="1421" r="54" fill="#FFFFFF" opacity="0.080" /><circle cx="2246" cy="2279" r="133" fill="#FFFFFF" opacity="0.217" /><circle cx="2263" cy="1060" r="137" fill="#FFFFFF" opacity="0.199" /><circle cx="1232" cy="1203" r="131" fill="#FFFFFF" opacity="0.205" /><circle cx="503" cy="1807" r="41" fill="#FFFFFF" opacity="0.162" /><circle cx="2686" cy="2200" r="67" fill="#FFFFFF" opacity="0.088" /><circle cx="1410" cy="631" r="69" fill="#FFFFFF" opacity="0.069" /><circle cx="2127" cy="936" r="151" fill="#FFFFFF" opacity="0.106" /><circle cx="1751" cy="833" r="120" fill="#FFFFFF" opacity="0.131" /><circle cx="2623" cy="834" r="92" fill="#FFFFFF" opacity="0.167" /><circle cx="1441" cy="1458" r="122" fill="#FFFFFF" opacity="0.136" /><circle cx="1787" cy="2561" r="76" fill="#FFFFFF" opacity="0.077" /><circle cx="1406" cy="2427" r="140" fill="#FFFFFF" opacity="0.192" /></g>
  <g><path d="M 325.5 620.4 L 2728.3 343.9 L 2728.3 802.7 L 325.5 1079.2 Z" fill="#FFFFFF" opacity="0.125" /><path d="M 368.1 872.9 L 2881.7 596.4 L 2881.7 1069.0 L 368.1 1345.5 Z" fill="#FFFFFF" opacity="0.182" /><path d="M 360.9 1133.3 L 2861.9 856.8 L 2861.9 1323.7 L 360.9 1600.2 Z" fill="#FFFFFF" opacity="0.143" /><path d="M 309.0 1381.7 L 2872.9 1105.2 L 2872.9 1529.9 L 309.0 1806.4 Z" fill="#FFFFFF" opacity="0.232" /><path d="M 358.9 1630.4 L 2776.2 1353.9 L 2776.2 1795.0 L 358.9 2071.4 Z" fill="#FFFFFF" opacity="0.189" /><path d="M 353.1 1894.4 L 2894.6 1618.0 L 2894.6 2106.3 L 353.1 2382.8 Z" fill="#FFFFFF" opacity="0.131" /><path d="M 278.6 2190.1 L 2914.4 1913.7 L 2914.4 2357.0 L 278.6 2633.5 Z" fill="#FFFFFF" opacity="0.208" /><path d="M 183.1 2463.2 L 2827.6 2186.7 L 2827.6 2665.1 L 183.1 2941.6 Z" fill="#FFFFFF" opacity="0.087" /></g>
  <g filter="url(#soft351)"><g transform="rotate(-23.61 1536.0 1536.0)"><path d="M-368.6 557.9 C -225.8 596.4, -25.8 528.6, 107.5 610.4 C 250.4 605.3, 450.4 522.5, 583.7 582.0 C 726.5 580.7, 926.5 532.9, 1059.8 538.9 C 1202.7 543.1, 1402.7 571.1, 1536.0 507.5 C 1678.8 507.1, 1878.8 599.5, 2012.2 506.6 C 2155.0 510.4, 2355.0 616.4, 2488.3 536.9 C 2631.2 536.5, 2831.2 577.6, 2964.5 579.9 C 3107.3 574.7, 3307.3 536.1, 3440.6 609.7" fill="none" stroke="url(#ribbon351)" stroke-width="58.4" stroke-linecap="round" stroke-opacity="0.120" /></g><g transform="rotate(-23.03 1536.0 1536.0)"><path d="M-368.6 766.4 C -241.7 784.2, -63.9 742.0, 54.6 740.8 C 181.6 733.3, 359.4 776.1, 477.9 707.8 C 604.8 686.0, 782.6 827.4, 901.1 710.2 C 1028.1 693.6, 1205.9 794.7, 1324.4 746.8 C 1451.3 749.9, 1629.1 781.5, 1747.6 795.2 C 1874.6 794.8, 2052.4 755.2, 2170.9 826.1 C 2297.9 833.5, 2475.6 705.4, 2594.1 820.8 C 2721.1 836.1, 2898.9 736.9, 3017.4 782.5 C 3144.4 787.3, 3322.1 758.8, 3440.6 734.4" fill="none" stroke="url(#ribbon351)" stroke-width="54.4" stroke-linecap="round" stroke-opacity="0.146" /></g><g transform="rotate(-22.45 1536.0 1536.0)"><path d="M-368.6 910.2 C -254.4 873.5, -94.4 965.2, 12.3 905.4 C 126.6 906.0, 286.6 915.5, 393.2 956.6 C 507.5 945.6, 667.5 890.0, 774.1 979.6 C 888.4 953.4, 1048.4 842.5, 1155.1 960.5 C 1269.4 950.4, 1429.3 866.3, 1536.0 910.9 C 1650.3 911.2, 1810.3 909.7, 1916.9 860.9 C 2031.2 859.7, 2191.2 944.3, 2297.9 840.8 C 2412.1 818.1, 2572.1 952.1, 2678.8 862.8 C 2793.1 846.1, 2953.1 951.5, 3059.7 913.5 C 3174.0 913.6, 3334.0 908.0, 3440.6 962.3" fill="none" stroke="url(#ribbon351)" stroke-width="50.4" stroke-linecap="round" stroke-opacity="0.172" /></g><g transform="rotate(-21.87 1536.0 1536.0)"><path d="M-368.6 1100.0 C -264.8 1014.3, -119.3 1136.5, -22.3 1034.8 C 81.5 1032.4, 227.0 1128.7, 324.0 1083.2 C 427.8 1086.3, 573.3 1115.2, 670.3 1141.8 C 774.1 1128.7, 919.6 1068.6, 1016.6 1175.1 C 1120.4 1180.5, 1265.9 1035.7, 1362.9 1162.7 C 1466.7 1184.8, 1612.2 1073.4, 1709.1 1112.3 C 1813.0 1108.2, 1958.5 1094.3, 2055.4 1054.4 C 2159.3 1054.9, 2304.8 1143.4, 2401.7 1024.1 C 2505.6 1024.6, 2651.1 1180.5, 2748.0 1039.9 C 2851.9 1057.8, 2997.4 1120.6, 3094.3 1092.0 C 3198.2 1089.7, 3343.7 1103.7, 3440.6 1149.0" fill="none" stroke="url(#ribbon351)" stroke-width="46.4" stroke-linecap="round" stroke-opacity="0.198" /></g><g transform="rotate(-21.29 1536.0 1536.0)"><path d="M-368.6 1335.8 C -273.4 1310.7, -140.1 1364.8, -51.2 1256.1 C 44.0 1261.1, 177.4 1371.8, 266.2 1262.4 C 361.5 1242.8, 494.8 1375.1, 583.7 1313.2 C 678.9 1319.1, 812.2 1355.8, 901.1 1377.7 C 996.4 1394.2, 1129.7 1299.5, 1218.6 1416.9 C 1313.8 1395.4, 1447.1 1301.5, 1536.0 1406.9 C 1631.2 1380.7, 1764.6 1257.7, 1853.4 1353.7 C 1948.7 1357.1, 2082.0 1323.3, 2170.9 1289.8 C 2266.1 1308.1, 2399.4 1366.0, 2488.3 1253.7 C 2583.6 1282.5, 2716.9 1423.9, 2805.8 1267.5 C 2901.0 1250.0, 3034.3 1359.2, 3123.2 1322.7 C 3218.4 1321.5, 3351.8 1341.6, 3440.6 1385.9" fill="none" stroke="url(#ribbon351)" stroke-width="42.4" stroke-linecap="round" stroke-opacity="0.224" /></g><g transform="rotate(-20.71 1536.0 1536.0)"><path d="M-368.6 1472.6 C -225.8 1450.7, -25.8 1487.0, 107.5 1525.7 C 250.4 1520.2, 450.4 1431.5, 583.7 1562.3 C 726.5 1549.0, 926.5 1383.0, 1059.8 1544.5 C 1202.7 1521.3, 1402.7 1391.2, 1536.0 1483.1 C 1678.8 1482.9, 1878.8 1460.6, 2012.2 1415.4 C 2155.0 1420.8, 2355.0 1494.3, 2488.3 1382.3 C 2631.2 1375.9, 2831.2 1540.2, 2964.5 1404.1 C 3107.3 1406.9, 3307.3 1526.5, 3440.6 1467.4" fill="none" stroke="url(#ribbon351)" stroke-width="38.4" stroke-linecap="round" stroke-opacity="0.250" /></g><g transform="rotate(-20.13 1536.0 1536.0)"><path d="M-368.6 1699.1 C -241.7 1587.3, -63.9 1763.7, 54.6 1616.8 C 181.6 1647.8, 359.4 1757.8, 477.9 1679.5 C 604.8 1682.2, 782.6 1721.8, 901.1 1754.1 C 1028.1 1764.9, 1205.9 1680.6, 1324.4 1795.3 C 1451.3 1771.2, 1629.1 1590.4, 1747.6 1778.2 C 1874.6 1753.9, 2052.4 1620.3, 2170.9 1713.1 C 2297.9 1716.9, 2475.6 1694.2, 2594.1 1639.5 C 2721.1 1645.0, 2898.9 1733.4, 3017.4 1602.1 C 3144.4 1615.2, 3322.1 1752.6, 3440.6 1623.5" fill="none" stroke="url(#ribbon351)" stroke-width="34.4" stroke-linecap="round" stroke-opacity="0.276" /></g><g transform="rotate(-19.55 1536.0 1536.0)"><path d="M-368.6 1922.4 C -254.4 1834.3, -94.4 1958.8, 12.3 1934.3 C 126.6 1930.0, 286.6 1918.4, 393.2 2005.4 C 507.5 1993.5, 667.5 1831.9, 774.1 2026.1 C 888.4 1988.8, 1048.4 1866.9, 1155.1 1983.9 C 1269.4 2004.1, 1429.3 1897.8, 1536.0 1904.4 C 1650.3 1905.7, 1810.3 1942.9, 1916.9 1835.8 C 2031.2 1808.8, 2191.2 1949.0, 2297.9 1819.7 C 2412.1 1784.2, 2572.1 1981.7, 2678.8 1866.0 C 2793.1 1870.3, 2953.1 1964.2, 3059.7 1946.4 C 3174.0 1939.4, 3334.0 1908.4, 3440.6 2012.2" fill="none" stroke="url(#ribbon351)" stroke-width="30.4" stroke-linecap="round" stroke-opacity="0.302" /></g><g transform="rotate(-18.97 1536.0 1536.0)"><path d="M-368.6 2050.1 C -264.8 1973.4, -119.3 2116.6, -22.3 2064.5 C 81.5 2069.2, 227.0 2033.0, 324.0 2139.7 C 427.8 2121.1, 573.3 1962.5, 670.3 2160.5 C 774.1 2167.5, 919.6 1964.6, 1016.6 2114.3 C 1120.4 2139.2, 1265.9 2025.4, 1362.9 2029.2 C 1466.7 2025.0, 1612.2 2070.7, 1709.1 1956.7 C 1813.0 1920.5, 1958.5 2088.8, 2055.4 1940.9 C 2159.3 1957.7, 2304.8 2114.7, 2401.7 1991.2 C 2505.6 2013.3, 2651.1 2107.6, 2748.0 2077.3 C 2851.9 2088.0, 2997.4 2030.9, 3094.3 2146.8 C 3198.2 2138.4, 3343.7 1940.3, 3440.6 2157.7" fill="none" stroke="url(#ribbon351)" stroke-width="26.4" stroke-linecap="round" stroke-opacity="0.328" /></g><g transform="rotate(-18.39 1536.0 1536.0)"><path d="M-368.6 2220.7 C -273.4 2185.1, -140.1 2242.7, -51.2 2105.7 C 44.0 2118.9, 177.4 2325.5, 266.2 2119.0 C 361.5 2136.8, 494.8 2332.4, 583.7 2194.0 C 678.9 2184.9, 812.2 2246.9, 901.1 2285.2 C 996.4 2308.2, 1129.7 2200.5, 1218.6 2337.3 C 1313.8 2319.5, 1447.1 2123.9, 1536.0 2318.7 C 1631.2 2349.0, 1764.6 2108.5, 1853.4 2240.6 C 1948.7 2248.1, 2082.0 2204.8, 2170.9 2150.5 C 2266.1 2133.9, 2399.4 2297.9, 2488.3 2103.0 C 2583.6 2138.0, 2716.9 2258.8, 2805.8 2126.8 C 2901.0 2162.2, 3034.3 2288.6, 3123.2 2207.6 C 3218.4 2207.5, 3351.8 2234.3, 3440.6 2296.4" fill="none" stroke="url(#ribbon351)" stroke-width="22.4" stroke-linecap="round" stroke-opacity="0.354" /></g><g transform="rotate(-17.81 1536.0 1536.0)"><path d="M-368.6 2413.5 C -225.8 2355.2, -25.8 2490.2, 107.5 2287.6 C 250.4 2252.5, 450.4 2553.1, 583.7 2327.9 C 726.5 2355.0, 926.5 2460.7, 1059.8 2420.1 C 1202.7 2420.0, 1402.7 2410.3, 1536.0 2508.3 C 1678.8 2512.9, 1878.8 2331.3, 2012.2 2539.0 C 2155.0 2499.1, 2355.0 2313.8, 2488.3 2493.5 C 2631.2 2469.8, 2831.2 2388.4, 2964.5 2399.5 C 3107.3 2405.0, 3307.3 2423.2, 3440.6 2313.9" fill="none" stroke="url(#ribbon351)" stroke-width="18.4" stroke-linecap="round" stroke-opacity="0.380" /></g><g transform="rotate(-17.23 1536.0 1536.0)"><path d="M-368.6 2657.5 C -241.7 2584.7, -63.9 2781.5, 54.6 2529.7 C 181.6 2543.3, 359.4 2793.8, 477.9 2594.9 C 604.8 2615.5, 782.6 2682.6, 901.1 2698.0 C 1028.1 2707.4, 1205.9 2639.9, 1324.4 2776.6 C 1451.3 2805.5, 1629.1 2526.6, 1747.6 2783.0 C 1874.6 2794.6, 2052.4 2565.4, 2170.9 2713.3 C 2297.9 2697.0, 2475.6 2623.0, 2594.1 2609.7 C 2721.1 2618.8, 2898.9 2699.1, 3017.4 2535.2 C 3144.4 2541.2, 3322.1 2708.8, 3440.6 2534.9" fill="none" stroke="url(#ribbon351)" stroke-width="14.4" stroke-linecap="round" stroke-opacity="0.406" /></g></g>
  <g><ellipse cx="1536.0" cy="1551.9" rx="728.6" ry="605.7" fill="url(#extrude351)" opacity="0.220" /><ellipse cx="1536.0" cy="1567.7" rx="736.0" ry="610.9" fill="url(#extrude351)" opacity="0.205" /><ellipse cx="1536.0" cy="1583.6" rx="743.4" ry="616.1" fill="url(#extrude351)" opacity="0.190" /><ellipse cx="1536.0" cy="1599.5" rx="750.9" ry="621.3" fill="url(#extrude351)" opacity="0.175" /><ellipse cx="1536.0" cy="1615.4" rx="758.3" ry="626.5" fill="url(#extrude351)" opacity="0.160" /><ellipse cx="1536.0" cy="1631.2" rx="765.7" ry="631.7" fill="url(#extrude351)" opacity="0.145" /><ellipse cx="1536.0" cy="1647.1" rx="773.2" ry="636.9" fill="url(#extrude351)" opacity="0.130" /><ellipse cx="1536.0" cy="1663.0" rx="780.6" ry="642.1" fill="url(#extrude351)" opacity="0.115" /><ellipse cx="1536.0" cy="1678.8" rx="788.0" ry="647.4" fill="url(#extrude351)" opacity="0.100" /><ellipse cx="1536.0" cy="1694.7" rx="795.5" ry="652.6" fill="url(#extrude351)" opacity="0.085" /><ellipse cx="1536.0" cy="1710.6" rx="802.9" ry="657.8" fill="url(#extrude351)" opacity="0.070" /><ellipse cx="1536.0" cy="1726.5" rx="810.3" ry="663.0" fill="url(#extrude351)" opacity="0.055" /></g>
  <ellipse cx="1536.0" cy="1726.5" rx="773.2" ry="214.9" fill="#0B1D2D" opacity="0.24" />
  <ellipse cx="1536.0" cy="1536.0" rx="743.4" ry="651.3" fill="url(#orb351)" stroke="#FFFFFF" stroke-opacity="0.42" stroke-width="7" />
  <ellipse cx="1431.9" cy="1392.7" rx="505.5" ry="299.6" fill="#FFFFFF" opacity="0.25" />
  <path d="M 199.4 399.4 C 1013.8 -30.7, 2058.2 768.0, 2872.6 215.0 L 2872.6 983.0 C 2089.0 1228.8, 1013.8 307.2, 199.4 1167.4 Z" fill="url(#glass351)" />
  <rect x="270" y="270" width="2532" height="2532" rx="430" fill="none" stroke="#FFFFFF" stroke-opacity="0.30" stroke-width="5" />
  <rect x="288.4" y="288.4" width="2495.1" height="2495.1" rx="399" fill="none" stroke="#3B82FF" stroke-opacity="0.35" stroke-width="3" />
  <g filter="url(#soft351)"><rect x="1260" y="1353" width="34" height="2" fill="#FFFFFF" opacity="0.526" /><rect x="1276" y="1337" width="2" height="34" fill="#FFFFFF" opacity="0.526" /><rect x="1941" y="2537" width="50" height="2" fill="#FFFFFF" opacity="0.666" /><rect x="1965" y="2513" width="2" height="50" fill="#FFFFFF" opacity="0.666" /><rect x="1906" y="2428" width="78" height="2" fill="#FFFFFF" opacity="0.654" /><rect x="1944" y="2390" width="2" height="78" fill="#FFFFFF" opacity="0.654" /><rect x="2558" y="2664" width="72" height="2" fill="#FFFFFF" opacity="0.624" /><rect x="2593" y="2629" width="2" height="72" fill="#FFFFFF" opacity="0.624" /><rect x="1952" y="511" width="40" height="2" fill="#FFFFFF" opacity="0.805" /><rect x="1971" y="492" width="2" height="40" fill="#FFFFFF" opacity="0.805" /><rect x="2212" y="1974" width="74" height="2" fill="#FFFFFF" opacity="0.731" /><rect x="2248" y="1938" width="2" height="74" fill="#FFFFFF" opacity="0.731" /><rect x="2341" y="497" width="80" height="2" fill="#FFFFFF" opacity="0.436" /><rect x="2380" y="458" width="2" height="80" fill="#FFFFFF" opacity="0.436" /><rect x="1552" y="1428" width="36" height="2" fill="#FFFFFF" opacity="0.844" /><rect x="1569" y="1411" width="2" height="36" fill="#FFFFFF" opacity="0.844" /><rect x="1878" y="1772" width="60" height="2" fill="#FFFFFF" opacity="0.731" /><rect x="1907" y="1743" width="2" height="60" fill="#FFFFFF" opacity="0.731" /><rect x="1685" y="1610" width="82" height="2" fill="#FFFFFF" opacity="0.400" /><rect x="1725" y="1570" width="2" height="82" fill="#FFFFFF" opacity="0.400" /><rect x="2017" y="800" width="72" height="2" fill="#FFFFFF" opacity="0.355" /><rect x="2052" y="765" width="2" height="72" fill="#FFFFFF" opacity="0.355" /><rect x="1324" y="662" width="64" height="2" fill="#FFFFFF" opacity="0.453" /><rect x="1355" y="631" width="2" height="64" fill="#FFFFFF" opacity="0.453" /><rect x="2174" y="783" width="50" height="2" fill="#FFFFFF" opacity="0.741" /><rect x="2198" y="759" width="2" height="50" fill="#FFFFFF" opacity="0.741" /><rect x="1192" y="1828" width="54" height="2" fill="#FFFFFF" opacity="0.379" /><rect x="1218" y="1802" width="2" height="54" fill="#FFFFFF" opacity="0.379" /><rect x="2424" y="712" width="54" height="2" fill="#FFFFFF" opacity="0.539" /><rect x="2450" y="686" width="2" height="54" fill="#FFFFFF" opacity="0.539" /><rect x="1409" y="370" width="62" height="2" fill="#FFFFFF" opacity="0.800" /><rect x="1439" y="340" width="2" height="62" fill="#FFFFFF" opacity="0.800" /><rect x="1560" y="1565" width="78" height="2" fill="#FFFFFF" opacity="0.698" /><rect x="1598" y="1527" width="2" height="78" fill="#FFFFFF" opacity="0.698" /><rect x="1417" y="245" width="44" height="2" fill="#FFFFFF" opacity="0.639" /><rect x="1438" y="224" width="2" height="44" fill="#FFFFFF" opacity="0.639" /><rect x="2770" y="1968" width="28" height="2" fill="#FFFFFF" opacity="0.357" /><rect x="2783" y="1955" width="2" height="28" fill="#FFFFFF" opacity="0.357" /><rect x="2504" y="2595" width="56" height="2" fill="#FFFFFF" opacity="0.385" /><rect x="2531" y="2568" width="2" height="56" fill="#FFFFFF" opacity="0.385" /><rect x="1679" y="931" width="40" height="2" fill="#FFFFFF" opacity="0.617" /><rect x="1698" y="912" width="2" height="40" fill="#FFFFFF" opacity="0.617" /><rect x="600" y="1323" width="32" height="2" fill="#FFFFFF" opacity="0.589" /><rect x="615" y="1308" width="2" height="32" fill="#FFFFFF" opacity="0.589" /><rect x="2641" y="2636" width="28" height="2" fill="#FFFFFF" opacity="0.784" /><rect x="2654" y="2623" width="2" height="28" fill="#FFFFFF" opacity="0.784" /><rect x="1655" y="872" width="54" height="2" fill="#FFFFFF" opacity="0.527" /><rect x="1681" y="846" width="2" height="54" fill="#FFFFFF" opacity="0.527" /><rect x="2011" y="604" width="72" height="2" fill="#FFFFFF" opacity="0.830" /><rect x="2046" y="569" width="2" height="72" fill="#FFFFFF" opacity="0.830" /><rect x="2176" y="777" width="84" height="2" fill="#FFFFFF" opacity="0.340" /><rect x="2217" y="736" width="2" height="84" fill="#FFFFFF" opacity="0.340" /></g>
  <g opacity="0.52"><rect x="1060" y="1070" width="219" height="1024" fill="#0C2030" /><rect x="1316" y="1326" width="219" height="768" fill="#0C2030" /><rect x="1572" y="1198" width="219" height="921" fill="#0C2030" /><rect x="1828" y="1033" width="219" height="1152" fill="#0C2030" /></g>
  <g filter="url(#soft351)"><rect x="1024" y="1024" width="219" height="1024" fill="url(#symbol351)" /><rect x="1280" y="1280" width="219" height="768" fill="url(#symbol351)" /><rect x="1536" y="1152" width="219" height="921" fill="url(#symbol351)" /><rect x="1792" y="987" width="219" height="1152" fill="url(#symbol351)" /></g>
  <rect x="138" y="138" width="2796" height="2796" rx="629" fill="#FFFFFF" filter="url(#grain351)" opacity="0.18" />
</svg>
