<svg xmlns="http://www.w3.org/2000/svg" width="3072" height="3072" viewBox="0 0 3072 3072">
  <title>QuartzOS App Icon 125 - bright_camera_125</title>
  <defs><linearGradient id="bg124" x1="0%" y1="0%" x2="100%" y2="100%"><stop offset="0%" stop-color="#FFD84D" /><stop offset="26%" stop-color="#36D1FF" /><stop offset="56%" stop-color="#8A5CFF" /><stop offset="78%" stop-color="#5AA47F" /><stop offset="100%" stop-color="#1A2B22" /></linearGradient><radialGradient id="sun124" cx="29%" cy="41%" r="88%"><stop offset="0%" stop-color="#FFFFFF" stop-opacity="0.62" /><stop offset="30%" stop-color="#FF6AB3" stop-opacity="0.35" /><stop offset="100%" stop-color="#FF6AB3" stop-opacity="0" /></radialGradient><linearGradient id="glass124" x1="0%" y1="0%" x2="0%" y2="100%"><stop offset="0%" stop-color="#FFFFFF" stop-opacity="0.70" /><stop offset="46%" stop-color="#FFFFFF" stop-opacity="0.26" /><stop offset="100%" stop-color="#FFFFFF" stop-opacity="0.00" /></linearGradient><linearGradient id="ribbon124" x1="0%" y1="0%" x2="100%" y2="0%"><stop offset="0%" stop-color="#FFD84D" stop-opacity="0.18" /><stop offset="34%" stop-color="#36D1FF" stop-opacity="0.72" /><stop offset="66%" stop-color="#8A5CFF" stop-opacity="0.72" /><stop offset="100%" stop-color="#FF6AB3" stop-opacity="0.18" /></linearGradient><radialGradient id="orb124" cx="34%" cy="27%" r="74%"><stop offset="0%" stop-color="#FFFFFF" stop-opacity="0.84" /><stop offset="30%" stop-color="#FFD84D" stop-opacity="0.52" /><stop offset="68%" stop-color="#36D1FF" stop-opacity="0.42" /><stop offset="100%" stop-color="#8A5CFF" stop-opacity="0.20" /></radialGradient><linearGradient id="extrude124" x1="0%" y1="0%" x2="0%" y2="100%"><stop offset="0%" stop-color="#15283C" stop-opacity="0.45" /><stop offset="100%" stop-color="#08131D" stop-opacity="0.06" /></linearGradient><linearGradient id="symbol124" x1="0%" y1="0%" x2="100%" y2="100%"><stop offset="0%" stop-color="#FFFFFF" /><stop offset="100%" stop-color="#FF6AB3" /></linearGradient><filter id="shadow124" x="-40%" y="-40%" width="180%" height="180%"><feDropShadow dx="0" dy="49" stdDeviation="86" flood-color="#06111A" flood-opacity="0.54" /></filter><filter id="soft124" x="-40%" y="-40%" width="180%" height="180%"><feDropShadow dx="0" dy="0" stdDeviation="14" flood-color="#FFD84D" flood-opacity="0.45" /></filter><filter id="grain124"><feTurbulence type="fractalNoise" baseFrequency="0.834" numOctaves="2" seed="124" /><feColorMatrix type="saturate" values="0" /><feComponentTransfer><feFuncA type="table" tableValues="0 0.09" /></feComponentTransfer></filter></defs>
  <rect x="138" y="138" width="2796" height="2796" rx="629" fill="url(#bg124)" filter="url(#shadow124)" />
  <rect x="138" y="138" width="2796" height="2796" rx="629" fill="url(#sun124)" />
  <g><circle cx="2287" cy="2300" r="44" fill="#FFFFFF" opacity="0.197" /><circle cx="1001" cy="2660" r="89" fill="#FFFFFF" opacity="0.154" /><circle cx="1300" cy="911" r="87" fill="#FFFFFF" opacity="0.181" /><circle cx="677" cy="2230" r="58" fill="#FFFFFF" opacity="0.138" /><circle cx="1887" cy="2443" r="107" fill="#FFFFFF" opacity="0.192" /><circle cx="1936" cy="1895" r="113" fill="#FFFFFF" opacity="0.093" /><circle cx="1593" cy="1996" r="99" fill="#FFFFFF" opacity="0.117" /><circle cx="1609" cy="511" r="64" fill="#FFFFFF" opacity="0.213" /><circle cx="1434" cy="2241" r="67" fill="#FFFFFF" opacity="0.076" /><circle cx="474" cy="2473" r="155" fill="#FFFFFF" opacity="0.193" /><circle cx="2505" cy="1763" r="111" fill="#FFFFFF" opacity="0.204" /><circle cx="1103" cy="1050" r="152" fill="#FFFFFF" opacity="0.111" /><circle cx="1573" cy="928" r="42" fill="#FFFFFF" opacity="0.217" /><circle cx="2367" cy="790" r="147" fill="#FFFFFF" opacity="0.210" /><circle cx="1991" cy="1305" r="99" fill="#FFFFFF" opacity="0.203" /><circle cx="2242" cy="2347" r="151" fill="#FFFFFF" opacity="0.090" /><circle cx="2570" cy="1045" r="83" fill="#FFFFFF" opacity="0.120" /><circle cx="1937" cy="2427" r="60" fill="#FFFFFF" opacity="0.221" /><circle cx="1786" cy="602" r="95" fill="#FFFFFF" opacity="0.164" /><circle cx="1998" cy="1676" r="117" fill="#FFFFFF" opacity="0.172" /><circle cx="952" cy="2000" r="54" fill="#FFFFFF" opacity="0.194" /><circle cx="2057" cy="1333" r="36" fill="#FFFFFF" opacity="0.231" /><circle cx="1711" cy="1672" r="76" fill="#FFFFFF" opacity="0.214" /><circle cx="1891" cy="631" r="97" fill="#FFFFFF" opacity="0.109" /><circle cx="2497" cy="816" r="135" fill="#FFFFFF" opacity="0.093" /><circle cx="1467" cy="2139" r="153" fill="#FFFFFF" opacity="0.134" /><circle cx="987" cy="2123" r="89" fill="#FFFFFF" opacity="0.159" /><circle cx="2292" cy="1078" r="136" fill="#FFFFFF" opacity="0.067" /></g>
  <g><path d="M 368.4 653.8 L 2789.3 377.3 L 2789.3 825.9 L 368.4 1102.4 Z" fill="#FFFFFF" opacity="0.106" /><path d="M 190.3 884.5 L 2905.9 608.0 L 2905.9 1077.7 L 190.3 1354.2 Z" fill="#FFFFFF" opacity="0.106" /><path d="M 306.0 1169.8 L 2788.2 893.3 L 2788.2 1338.0 L 306.0 1614.4 Z" fill="#FFFFFF" opacity="0.084" /><path d="M 241.2 1441.9 L 2796.0 1165.4 L 2796.0 1652.6 L 241.2 1929.1 Z" fill="#FFFFFF" opacity="0.164" /><path d="M 322.3 1649.8 L 2773.9 1373.3 L 2773.9 1803.0 L 322.3 2079.5 Z" fill="#FFFFFF" opacity="0.171" /><path d="M 242.1 1878.5 L 2917.6 1602.0 L 2917.6 2049.8 L 242.1 2326.3 Z" fill="#FFFFFF" opacity="0.100" /><path d="M 165.3 2195.8 L 2682.5 1919.3 L 2682.5 2383.8 L 165.3 2660.3 Z" fill="#FFFFFF" opacity="0.175" /><path d="M 320.2 2399.6 L 2750.9 2123.1 L 2750.9 2615.6 L 320.2 2892.1 Z" fill="#FFFFFF" opacity="0.175" /></g>
  <g filter="url(#soft124)"><g transform="rotate(-18.07 1536.0 1536.0)"><path d="M-368.6 556.1 C -225.8 542.6, -25.8 576.1, 107.5 504.4 C 250.4 496.9, 450.4 591.1, 583.7 506.0 C 726.5 523.8, 926.5 605.8, 1059.8 538.0 C 1202.7 543.4, 1402.7 577.3, 1536.0 581.0 C 1678.8 579.8, 1878.8 547.2, 2012.2 608.9 C 2155.0 597.3, 2355.0 498.3, 2488.3 604.8 C 2631.2 601.8, 2831.2 537.4, 2964.5 571.2 C 3107.3 566.5, 3307.3 540.9, 3440.6 528.4" fill="none" stroke="url(#ribbon124)" stroke-width="58.4" stroke-linecap="round" stroke-opacity="0.120" /></g><g transform="rotate(-17.49 1536.0 1536.0)"><path d="M-368.6 751.1 C -241.7 801.0, -63.9 722.8, 54.6 810.0 C 181.6 796.8, 359.4 714.0, 477.9 777.5 C 604.8 779.3, 782.6 738.3, 901.1 728.9 C 1028.1 735.4, 1205.9 768.2, 1324.4 693.9 C 1451.3 697.4, 1629.1 771.3, 1747.6 693.5 C 1874.6 704.5, 2052.4 808.9, 2170.9 728.1 C 2297.9 727.0, 2475.6 766.0, 2594.1 776.7 C 2721.1 777.5, 2898.9 743.4, 3017.4 809.7 C 3144.4 796.9, 3322.1 716.0, 3440.6 807.2" fill="none" stroke="url(#ribbon124)" stroke-width="54.4" stroke-linecap="round" stroke-opacity="0.146" /></g><g transform="rotate(-16.91 1536.0 1536.0)"><path d="M-368.6 875.6 C -254.4 833.0, -94.4 913.1, 12.3 873.8 C 126.6 874.2, 286.6 877.4, 393.2 924.1 C 507.5 909.7, 667.5 856.3, 774.1 945.1 C 888.4 917.9, 1048.4 836.3, 1155.1 923.9 C 1269.4 929.5, 1429.3 834.4, 1536.0 873.5 C 1650.3 873.2, 1810.3 876.7, 1916.9 824.4 C 2031.2 833.5, 2191.2 905.5, 2297.9 806.3 C 2412.1 782.8, 2572.1 910.9, 2678.8 830.4 C 2793.1 819.6, 2953.1 927.8, 3059.7 881.9 C 3174.0 881.0, 3334.0 871.4, 3440.6 929.6" fill="none" stroke="url(#ribbon124)" stroke-width="50.4" stroke-linecap="round" stroke-opacity="0.172" /></g><g transform="rotate(-16.33 1536.0 1536.0)"><path d="M-368.6 1069.4 C -264.8 1024.9, -119.3 1090.3, -22.3 994.9 C 81.5 1009.8, 227.0 1144.8, 324.0 1004.9 C 427.8 1007.5, 573.3 1100.4, 670.3 1054.0 C 774.1 1049.6, 919.6 1076.7, 1016.6 1112.4 C 1120.4 1100.7, 1265.9 1022.5, 1362.9 1144.7 C 1466.7 1123.5, 1612.2 990.7, 1709.1 1131.4 C 1813.0 1125.6, 1958.5 1039.7, 2055.4 1080.4 C 2159.3 1081.0, 2304.8 1056.3, 2401.7 1022.8 C 2505.6 1036.5, 2651.1 1105.7, 2748.0 993.4 C 2851.9 968.2, 2997.4 1114.2, 3094.3 1010.1 C 3198.2 989.1, 3343.7 1114.9, 3440.6 1062.8" fill="none" stroke="url(#ribbon124)" stroke-width="46.4" stroke-linecap="round" stroke-opacity="0.198" /></g><g transform="rotate(-15.75 1536.0 1536.0)"><path d="M-368.6 1344.9 C -273.4 1366.2, -140.1 1334.4, -51.2 1300.6 C 44.0 1311.0, 177.4 1377.0, 266.2 1263.2 C 361.5 1265.4, 494.8 1432.4, 583.7 1275.3 C 678.9 1287.9, 812.2 1417.5, 901.1 1329.7 C 996.4 1335.5, 1129.7 1360.1, 1218.6 1393.2 C 1313.8 1379.9, 1447.1 1297.0, 1536.0 1427.4 C 1631.2 1441.8, 1764.6 1305.6, 1853.4 1411.6 C 1948.7 1399.5, 2082.0 1314.2, 2170.9 1355.2 C 2266.1 1355.1, 2399.4 1338.2, 2488.3 1292.6 C 2583.6 1273.1, 2716.9 1380.4, 2805.8 1261.7 C 2901.0 1254.7, 3034.3 1375.2, 3123.2 1281.2 C 3218.4 1304.7, 3351.8 1404.4, 3440.6 1339.4" fill="none" stroke="url(#ribbon124)" stroke-width="42.4" stroke-linecap="round" stroke-opacity="0.224" /></g><g transform="rotate(-15.17 1536.0 1536.0)"><path d="M-368.6 1485.8 C -225.8 1517.5, -25.8 1457.0, 107.5 1566.2 C 250.4 1579.2, 450.4 1431.9, 583.7 1571.9 C 726.5 1544.2, 926.5 1383.0, 1059.8 1525.4 C 1202.7 1527.3, 1402.7 1458.2, 1536.0 1454.9 C 1678.8 1445.8, 1878.8 1508.2, 2012.2 1403.2 C 2155.0 1397.1, 2355.0 1579.5, 2488.3 1401.6 C 2631.2 1404.4, 2831.2 1538.2, 2964.5 1451.1 C 3107.3 1438.3, 3307.3 1505.2, 3440.6 1521.7" fill="none" stroke="url(#ribbon124)" stroke-width="38.4" stroke-linecap="round" stroke-opacity="0.250" /></g><g transform="rotate(-14.59 1536.0 1536.0)"><path d="M-368.6 1642.8 C -241.7 1587.0, -63.9 1674.9, 54.6 1600.7 C 181.6 1616.6, 359.4 1664.7, 477.9 1676.8 C 604.8 1684.3, 782.6 1622.1, 901.1 1732.1 C 1028.1 1703.0, 1205.9 1558.8, 1324.4 1733.3 C 1451.3 1754.5, 1629.1 1575.9, 1747.6 1679.5 C 1874.6 1674.8, 2052.4 1607.7, 2170.9 1603.5 C 2297.9 1614.7, 2475.6 1688.8, 2594.1 1551.2 C 2721.1 1540.2, 2898.9 1741.7, 3017.4 1554.5 C 3144.4 1540.2, 3322.1 1689.4, 3440.6 1611.3" fill="none" stroke="url(#ribbon124)" stroke-width="34.4" stroke-linecap="round" stroke-opacity="0.276" /></g><g transform="rotate(-14.01 1536.0 1536.0)"><path d="M-368.6 1888.1 C -254.4 1888.2, -94.4 1888.0, 12.3 1963.4 C 126.6 1988.1, 286.6 1822.8, 393.2 1992.8 C 507.5 2031.5, 667.5 1823.0, 774.1 1958.7 C 888.4 1930.7, 1048.4 1865.8, 1155.1 1881.8 C 1269.4 1881.3, 1429.3 1893.4, 1536.0 1808.7 C 1650.3 1792.6, 1810.3 1977.4, 1916.9 1783.8 C 2031.2 1769.0, 2191.2 2011.3, 2297.9 1822.1 C 2412.1 1822.9, 2572.1 1915.0, 2678.8 1900.5 C 2793.1 1901.2, 2953.1 1882.9, 3059.7 1971.3 C 3174.0 2001.6, 3334.0 1852.3, 3440.6 1991.7" fill="none" stroke="url(#ribbon124)" stroke-width="30.4" stroke-linecap="round" stroke-opacity="0.302" /></g><g transform="rotate(-13.43 1536.0 1536.0)"><path d="M-368.6 2015.6 C -264.8 2137.1, -119.3 1904.7, -22.3 2094.8 C 81.5 2110.3, 227.0 1968.5, 324.0 2014.1 C 427.8 2014.1, 573.3 2016.3, 670.3 1934.3 C 774.1 1940.1, 919.6 2081.7, 1016.6 1903.8 C 1120.4 1867.7, 1265.9 2082.1, 1362.9 1941.1 C 1466.7 1933.8, 1612.2 2067.5, 1709.1 2023.5 C 1813.0 2023.9, 1958.5 2008.3, 2055.4 2101.1 C 2159.3 2069.2, 2304.8 1949.3, 2401.7 2126.8 C 2505.6 2123.2, 2651.1 1891.1, 2748.0 2085.0 C 2851.9 2086.2, 2997.4 1966.5, 3094.3 2001.1 C 3198.2 1995.8, 3343.7 2028.2, 3440.6 1925.9" fill="none" stroke="url(#ribbon124)" stroke-width="26.4" stroke-linecap="round" stroke-opacity="0.328" /></g><g transform="rotate(-12.85 1536.0 1536.0)"><path d="M-368.6 2301.8 C -273.4 2438.1, -140.1 2242.9, -51.2 2339.5 C 44.0 2335.4, 177.4 2273.0, 266.2 2247.2 C 361.5 2266.8, 494.8 2327.9, 583.7 2188.0 C 678.9 2170.3, 812.2 2417.8, 901.1 2197.9 C 996.4 2213.3, 1129.7 2410.0, 1218.6 2270.8 C 1313.8 2275.5, 1447.1 2312.1, 1536.0 2362.5 C 1631.2 2341.1, 1764.6 2253.9, 1853.4 2417.4 C 1948.7 2463.7, 2082.0 2264.0, 2170.9 2402.2 C 2266.1 2394.1, 2399.4 2217.7, 2488.3 2326.1 C 2583.6 2319.9, 2716.9 2289.0, 2805.8 2235.2 C 2901.0 2256.9, 3034.3 2341.3, 3123.2 2184.8 C 3218.4 2188.0, 3351.8 2384.4, 3440.6 2205.3" fill="none" stroke="url(#ribbon124)" stroke-width="22.4" stroke-linecap="round" stroke-opacity="0.354" /></g><g transform="rotate(-12.27 1536.0 1536.0)"><path d="M-368.6 2483.0 C -225.8 2563.3, -25.8 2435.1, 107.5 2455.3 C 250.4 2457.4, 450.4 2491.7, 583.7 2375.6 C 726.5 2404.2, 926.5 2570.1, 1059.8 2361.0 C 1202.7 2398.5, 1402.7 2626.3, 1536.0 2420.4 C 1678.8 2416.4, 1878.8 2537.0, 2012.2 2517.8 C 2155.0 2530.8, 2355.0 2461.5, 2488.3 2594.1 C 2631.2 2569.9, 2831.2 2427.1, 2964.5 2603.0 C 3107.3 2578.9, 3307.3 2431.6, 3440.6 2539.1" fill="none" stroke="url(#ribbon124)" stroke-width="18.4" stroke-linecap="round" stroke-opacity="0.380" /></g><g transform="rotate(-11.69 1536.0 1536.0)"><path d="M-368.6 2630.1 C -241.7 2560.6, -63.9 2714.8, 54.6 2650.9 C 181.6 2648.3, 359.4 2615.7, 477.9 2738.9 C 604.8 2718.3, 782.6 2578.8, 901.1 2760.9 C 1028.1 2812.8, 1205.9 2560.0, 1324.4 2703.6 C 1451.3 2726.7, 1629.1 2586.3, 1747.6 2601.7 C 1874.6 2610.3, 2052.4 2658.6, 2170.9 2517.1 C 2297.9 2476.2, 2475.6 2679.1, 2594.1 2501.1 C 2721.1 2487.0, 2898.9 2677.0, 3017.4 2563.3 C 3144.4 2574.1, 3322.1 2686.5, 3440.6 2666.1" fill="none" stroke="url(#ribbon124)" stroke-width="14.4" stroke-linecap="round" stroke-opacity="0.406" /></g></g>
  <g><ellipse cx="1536.0" cy="1551.9" rx="728.6" ry="605.7" fill="url(#extrude124)" opacity="0.220" /><ellipse cx="1536.0" cy="1567.7" rx="736.0" ry="610.9" fill="url(#extrude124)" opacity="0.205" /><ellipse cx="1536.0" cy="1583.6" rx="743.4" ry="616.1" fill="url(#extrude124)" opacity="0.190" /><ellipse cx="1536.0" cy="1599.5" rx="750.9" ry="621.3" fill="url(#extrude124)" opacity="0.175" /><ellipse cx="1536.0" cy="1615.4" rx="758.3" ry="626.5" fill="url(#extrude124)" opacity="0.160" /><ellipse cx="1536.0" cy="1631.2" rx="765.7" ry="631.7" fill="url(#extrude124)" opacity="0.145" /><ellipse cx="1536.0" cy="1647.1" rx="773.2" ry="636.9" fill="url(#extrude124)" opacity="0.130" /><ellipse cx="1536.0" cy="1663.0" rx="780.6" ry="642.1" fill="url(#extrude124)" opacity="0.115" /><ellipse cx="1536.0" cy="1678.8" rx="788.0" ry="647.4" fill="url(#extrude124)" opacity="0.100" /><ellipse cx="1536.0" cy="1694.7" rx="795.5" ry="652.6" fill="url(#extrude124)" opacity="0.085" /><ellipse cx="1536.0" cy="1710.6" rx="802.9" ry="657.8" fill="url(#extrude124)" opacity="0.070" /><ellipse cx="1536.0" cy="1726.5" rx="810.3" ry="663.0" fill="url(#extrude124)" opacity="0.055" /></g>
  <ellipse cx="1536.0" cy="1726.5" rx="773.2" ry="214.9" fill="#0B1D2D" opacity="0.24" />
  <ellipse cx="1536.0" cy="1536.0" rx="743.4" ry="651.3" fill="url(#orb124)" stroke="#FFFFFF" stroke-opacity="0.42" stroke-width="7" />
  <ellipse cx="1431.9" cy="1392.7" rx="505.5" ry="299.6" fill="#FFFFFF" opacity="0.25" />
  <path d="M 199.4 399.4 C 1013.8 -30.7, 2058.2 768.0, 2872.6 215.0 L 2872.6 983.0 C 2089.0 1228.8, 1013.8 307.2, 199.4 1167.4 Z" fill="url(#glass124)" />
  <rect x="270" y="270" width="2532" height="2532" rx="430" fill="none" stroke="#FFFFFF" stroke-opacity="0.30" stroke-width="5" />
  <rect x="288.4" y="288.4" width="2495.1" height="2495.1" rx="399" fill="none" stroke="#FFD84D" stroke-opacity="0.35" stroke-width="3" />
  <g filter="url(#soft124)"><rect x="876" y="1112" width="34" height="2" fill="#FFFFFF" opacity="0.420" /><rect x="892" y="1096" width="2" height="34" fill="#FFFFFF" opacity="0.420" /><rect x="1838" y="247" width="46" height="2" fill="#FFFFFF" opacity="0.363" /><rect x="1860" y="225" width="2" height="46" fill="#FFFFFF" opacity="0.363" /><rect x="1205" y="882" width="56" height="2" fill="#FFFFFF" opacity="0.436" /><rect x="1232" y="855" width="2" height="56" fill="#FFFFFF" opacity="0.436" /><rect x="2163" y="1788" width="32" height="2" fill="#FFFFFF" opacity="0.690" /><rect x="2178" y="1773" width="2" height="32" fill="#FFFFFF" opacity="0.690" /><rect x="329" y="2122" width="56" height="2" fill="#FFFFFF" opacity="0.441" /><rect x="356" y="2095" width="2" height="56" fill="#FFFFFF" opacity="0.441" /><rect x="751" y="1388" width="48" height="2" fill="#FFFFFF" opacity="0.546" /><rect x="774" y="1365" width="2" height="48" fill="#FFFFFF" opacity="0.546" /><rect x="447" y="2300" width="68" height="2" fill="#FFFFFF" opacity="0.318" /><rect x="480" y="2267" width="2" height="68" fill="#FFFFFF" opacity="0.318" /><rect x="856" y="2097" width="50" height="2" fill="#FFFFFF" opacity="0.566" /><rect x="880" y="2073" width="2" height="50" fill="#FFFFFF" opacity="0.566" /><rect x="738" y="1307" width="64" height="2" fill="#FFFFFF" opacity="0.740" /><rect x="769" y="1276" width="2" height="64" fill="#FFFFFF" opacity="0.740" /><rect x="2332" y="1680" width="82" height="2" fill="#FFFFFF" opacity="0.301" /><rect x="2372" y="1640" width="2" height="82" fill="#FFFFFF" opacity="0.301" /><rect x="357" y="870" width="62" height="2" fill="#FFFFFF" opacity="0.808" /><rect x="387" y="840" width="2" height="62" fill="#FFFFFF" opacity="0.808" /><rect x="2663" y="2177" width="70" height="2" fill="#FFFFFF" opacity="0.421" /><rect x="2697" y="2143" width="2" height="70" fill="#FFFFFF" opacity="0.421" /><rect x="1045" y="344" width="84" height="2" fill="#FFFFFF" opacity="0.689" /><rect x="1086" y="303" width="2" height="84" fill="#FFFFFF" opacity="0.689" /><rect x="2359" y="744" width="32" height="2" fill="#FFFFFF" opacity="0.549" /><rect x="2374" y="729" width="2" height="32" fill="#FFFFFF" opacity="0.549" /><rect x="1716" y="1484" width="80" height="2" fill="#FFFFFF" opacity="0.427" /><rect x="1755" y="1445" width="2" height="80" fill="#FFFFFF" opacity="0.427" /><rect x="2444" y="2052" width="30" height="2" fill="#FFFFFF" opacity="0.434" /><rect x="2458" y="2038" width="2" height="30" fill="#FFFFFF" opacity="0.434" /><rect x="2564" y="2030" width="32" height="2" fill="#FFFFFF" opacity="0.443" /><rect x="2579" y="2015" width="2" height="32" fill="#FFFFFF" opacity="0.443" /><rect x="1505" y="1880" width="60" height="2" fill="#FFFFFF" opacity="0.599" /><rect x="1534" y="1851" width="2" height="60" fill="#FFFFFF" opacity="0.599" /><rect x="1147" y="793" width="42" height="2" fill="#FFFFFF" opacity="0.421" /><rect x="1167" y="773" width="2" height="42" fill="#FFFFFF" opacity="0.421" /><rect x="2298" y="2357" width="30" height="2" fill="#FFFFFF" opacity="0.837" /><rect x="2312" y="2343" width="2" height="30" fill="#FFFFFF" opacity="0.837" /><rect x="780" y="1631" width="46" height="2" fill="#FFFFFF" opacity="0.424" /><rect x="802" y="1609" width="2" height="46" fill="#FFFFFF" opacity="0.424" /><rect x="2609" y="896" width="68" height="2" fill="#FFFFFF" opacity="0.377" /><rect x="2642" y="863" width="2" height="68" fill="#FFFFFF" opacity="0.377" /><rect x="558" y="1217" width="66" height="2" fill="#FFFFFF" opacity="0.396" /><rect x="590" y="1185" width="2" height="66" fill="#FFFFFF" opacity="0.396" /><rect x="1146" y="720" width="44" height="2" fill="#FFFFFF" opacity="0.846" /><rect x="1167" y="699" width="2" height="44" fill="#FFFFFF" opacity="0.846" /><rect x="2721" y="887" width="80" height="2" fill="#FFFFFF" opacity="0.803" /><rect x="2760" y="848" width="2" height="80" fill="#FFFFFF" opacity="0.803" /><rect x="2485" y="2632" width="32" height="2" fill="#FFFFFF" opacity="0.461" /><rect x="2500" y="2617" width="2" height="32" fill="#FFFFFF" opacity="0.461" /></g>
  <g opacity="0.52"><path d="M1572 1006 L2148 1582 L1572 2158 L996 1582 Z" fill="none" stroke="#0C2030" stroke-width="90" stroke-linejoin="round" /><circle cx="1572" cy="1582" r="153" fill="#0C2030" /></g>
  <g filter="url(#soft124)"><path d="M1536 960 L2112 1536 L1536 2112 L960 1536 Z" fill="none" stroke="url(#symbol124)" stroke-width="90" stroke-linejoin="round" /><circle cx="1536" cy="1536" r="153" fill="url(#symbol124)" /></g>
  <rect x="138" y="138" width="2796" height="2796" rx="629" fill="#FFFFFF" filter="url(#grain124)" opacity="0.18" />
</svg>
