<svg xmlns="http://www.w3.org/2000/svg" width="3072" height="3072" viewBox="0 0 3072 3072">
  <title>QuartzOS App Icon 345 - bright_designer_345</title>
  <defs><linearGradient id="bg344" x1="0%" y1="0%" x2="100%" y2="100%"><stop offset="0%" stop-color="#3B82FF" /><stop offset="26%" stop-color="#FF6AB3" /><stop offset="56%" stop-color="#FFD84D" /><stop offset="78%" stop-color="#3C8FC1" /><stop offset="100%" stop-color="#1E2E3A" /></linearGradient><radialGradient id="sun344" cx="25%" cy="18%" r="88%"><stop offset="0%" stop-color="#FFFFFF" stop-opacity="0.62" /><stop offset="30%" stop-color="#53E3A6" stop-opacity="0.35" /><stop offset="100%" stop-color="#53E3A6" stop-opacity="0" /></radialGradient><linearGradient id="glass344" x1="0%" y1="0%" x2="0%" y2="100%"><stop offset="0%" stop-color="#FFFFFF" stop-opacity="0.70" /><stop offset="46%" stop-color="#FFFFFF" stop-opacity="0.26" /><stop offset="100%" stop-color="#FFFFFF" stop-opacity="0.00" /></linearGradient><linearGradient id="ribbon344" x1="0%" y1="0%" x2="100%" y2="0%"><stop offset="0%" stop-color="#3B82FF" stop-opacity="0.18" /><stop offset="34%" stop-color="#FF6AB3" stop-opacity="0.72" /><stop offset="66%" stop-color="#FFD84D" stop-opacity="0.72" /><stop offset="100%" stop-color="#53E3A6" stop-opacity="0.18" /></linearGradient><radialGradient id="orb344" cx="34%" cy="27%" r="74%"><stop offset="0%" stop-color="#FFFFFF" stop-opacity="0.84" /><stop offset="30%" stop-color="#3B82FF" stop-opacity="0.52" /><stop offset="68%" stop-color="#FF6AB3" stop-opacity="0.42" /><stop offset="100%" stop-color="#FFD84D" stop-opacity="0.20" /></radialGradient><linearGradient id="extrude344" x1="0%" y1="0%" x2="0%" y2="100%"><stop offset="0%" stop-color="#15283C" stop-opacity="0.45" /><stop offset="100%" stop-color="#08131D" stop-opacity="0.06" /></linearGradient><linearGradient id="symbol344" x1="0%" y1="0%" x2="100%" y2="100%"><stop offset="0%" stop-color="#FFFFFF" /><stop offset="100%" stop-color="#53E3A6" /></linearGradient><filter id="shadow344" x="-40%" y="-40%" width="180%" height="180%"><feDropShadow dx="0" dy="49" stdDeviation="86" flood-color="#06111A" flood-opacity="0.54" /></filter><filter id="soft344" x="-40%" y="-40%" width="180%" height="180%"><feDropShadow dx="0" dy="0" stdDeviation="14" flood-color="#3B82FF" flood-opacity="0.45" /></filter><filter id="grain344"><feTurbulence type="fractalNoise" baseFrequency="0.782" numOctaves="2" seed="344" /><feColorMatrix type="saturate" values="0" /><feComponentTransfer><feFuncA type="table" tableValues="0 0.09" /></feComponentTransfer></filter></defs>
  <rect x="138" y="138" width="2796" height="2796" rx="629" fill="url(#bg344)" filter="url(#shadow344)" />
  <rect x="138" y="138" width="2796" height="2796" rx="629" fill="url(#sun344)" />
  <g><circle cx="1260" cy="2410" r="108" fill="#FFFFFF" opacity="0.147" /><circle cx="1275" cy="2691" r="76" fill="#FFFFFF" opacity="0.073" /><circle cx="980" cy="1571" r="85" fill="#FFFFFF" opacity="0.170" /><circle cx="2382" cy="2423" r="123" fill="#FFFFFF" opacity="0.124" /><circle cx="1453" cy="1083" r="67" fill="#FFFFFF" opacity="0.226" /><circle cx="1119" cy="2454" r="146" fill="#FFFFFF" opacity="0.157" /><circle cx="1843" cy="447" r="130" fill="#FFFFFF" opacity="0.122" /><circle cx="750" cy="1385" r="155" fill="#FFFFFF" opacity="0.105" /><circle cx="531" cy="1525" r="138" fill="#FFFFFF" opacity="0.103" /><circle cx="1861" cy="2448" r="53" fill="#FFFFFF" opacity="0.087" /><circle cx="409" cy="2490" r="136" fill="#FFFFFF" opacity="0.111" /><circle cx="721" cy="1257" r="62" fill="#FFFFFF" opacity="0.138" /><circle cx="1479" cy="2126" r="139" fill="#FFFFFF" opacity="0.083" /><circle cx="637" cy="648" r="59" fill="#FFFFFF" opacity="0.092" /><circle cx="1771" cy="2464" r="52" fill="#FFFFFF" opacity="0.221" /><circle cx="1266" cy="2324" r="141" fill="#FFFFFF" opacity="0.146" /><circle cx="1903" cy="2596" r="90" fill="#FFFFFF" opacity="0.150" /><circle cx="919" cy="1631" r="97" fill="#FFFFFF" opacity="0.140" /><circle cx="1628" cy="421" r="97" fill="#FFFFFF" opacity="0.198" /><circle cx="2512" cy="2262" r="115" fill="#FFFFFF" opacity="0.229" /><circle cx="2348" cy="2322" r="103" fill="#FFFFFF" opacity="0.123" /><circle cx="2149" cy="551" r="145" fill="#FFFFFF" opacity="0.093" /><circle cx="1613" cy="2456" r="154" fill="#FFFFFF" opacity="0.148" /><circle cx="2376" cy="1675" r="128" fill="#FFFFFF" opacity="0.088" /><circle cx="605" cy="1114" r="143" fill="#FFFFFF" opacity="0.157" /><circle cx="1053" cy="658" r="112" fill="#FFFFFF" opacity="0.206" /><circle cx="1261" cy="2281" r="147" fill="#FFFFFF" opacity="0.131" /><circle cx="2558" cy="2458" r="133" fill="#FFFFFF" opacity="0.076" /></g>
  <g><path d="M 356.5 647.3 L 2917.6 370.8 L 2917.6 837.4 L 356.5 1113.9 Z" fill="#FFFFFF" opacity="0.212" /><path d="M 259.6 897.4 L 2866.8 620.9 L 2866.8 1082.9 L 259.6 1359.4 Z" fill="#FFFFFF" opacity="0.136" /><path d="M 254.1 1099.8 L 2693.8 823.4 L 2693.8 1275.7 L 254.1 1552.2 Z" fill="#FFFFFF" opacity="0.228" /><path d="M 269.7 1360.9 L 2826.1 1084.5 L 2826.1 1530.3 L 269.7 1806.8 Z" fill="#FFFFFF" opacity="0.176" /><path d="M 375.2 1641.9 L 2857.8 1365.4 L 2857.8 1807.5 L 375.2 2084.0 Z" fill="#FFFFFF" opacity="0.198" /><path d="M 339.1 1915.9 L 2912.9 1639.4 L 2912.9 2127.2 L 339.1 2403.7 Z" fill="#FFFFFF" opacity="0.236" /><path d="M 343.9 2219.8 L 2905.3 1943.3 L 2905.3 2433.1 L 343.9 2709.5 Z" fill="#FFFFFF" opacity="0.158" /><path d="M 208.7 2475.8 L 2701.4 2199.3 L 2701.4 2647.3 L 208.7 2923.8 Z" fill="#FFFFFF" opacity="0.133" /></g>
  <g filter="url(#soft344)"><g transform="rotate(-15.49 1536.0 1536.0)"><path d="M-368.6 570.1 C -225.8 519.2, -25.8 601.1, 107.5 519.0 C 250.4 506.7, 450.4 593.9, 583.7 549.7 C 726.5 544.3, 926.5 577.8, 1059.8 592.8 C 1202.7 593.0, 1402.7 545.0, 1536.0 622.1 C 1678.8 637.4, 1878.8 545.2, 2012.2 619.9 C 2155.0 609.0, 2355.0 552.8, 2488.3 587.5 C 2631.2 583.1, 2831.2 557.9, 2964.5 544.5 C 3107.3 544.8, 3307.3 580.9, 3440.6 517.1" fill="none" stroke="url(#ribbon344)" stroke-width="58.4" stroke-linecap="round" stroke-opacity="0.120" /></g><g transform="rotate(-14.91 1536.0 1536.0)"><path d="M-368.6 737.5 C -241.7 820.6, -63.9 673.0, 54.6 768.9 C 181.6 774.0, 359.4 711.3, 477.9 720.7 C 604.8 714.9, 782.6 745.9, 901.1 682.7 C 1028.1 703.5, 1205.9 772.8, 1324.4 678.0 C 1451.3 688.4, 1629.1 763.0, 1747.6 709.3 C 1874.6 709.5, 2052.4 760.0, 2170.9 757.8 C 2297.9 757.4, 2475.6 729.7, 2594.1 793.9 C 2721.1 812.2, 2898.9 671.6, 3017.4 795.9 C 3144.4 801.8, 3322.1 676.2, 3440.6 762.4" fill="none" stroke="url(#ribbon344)" stroke-width="54.4" stroke-linecap="round" stroke-opacity="0.146" /></g><g transform="rotate(-14.33 1536.0 1536.0)"><path d="M-368.6 919.8 C -254.4 999.4, -94.4 882.5, 12.3 970.4 C 126.6 969.8, 286.6 894.1, 393.2 920.9 C 507.5 920.9, 667.5 918.6, 774.1 870.8 C 888.4 854.0, 1048.4 977.7, 1155.1 850.4 C 1269.4 834.4, 1429.3 955.2, 1536.0 872.1 C 1650.3 881.0, 1810.3 960.8, 1916.9 922.7 C 2031.2 922.4, 2191.2 916.5, 2297.9 971.6 C 2412.1 956.2, 2572.1 877.1, 2678.8 989.0 C 2793.1 999.9, 2953.1 894.5, 3059.7 964.5 C 3174.0 981.2, 3334.0 868.2, 3440.6 912.8" fill="none" stroke="url(#ribbon344)" stroke-width="50.4" stroke-linecap="round" stroke-opacity="0.172" /></g><g transform="rotate(-13.75 1536.0 1536.0)"><path d="M-368.6 1104.0 C -264.8 1153.8, -119.3 1013.0, -22.3 1153.7 C 81.5 1149.1, 227.0 1045.0, 324.0 1096.9 C 427.8 1098.0, 573.3 1106.5, 670.3 1044.4 C 774.1 1047.2, 919.6 1159.5, 1016.6 1028.0 C 1120.4 1041.3, 1265.9 1160.0, 1362.9 1057.7 C 1466.7 1056.1, 1612.2 1158.9, 1709.1 1115.5 C 1813.0 1115.9, 1958.5 1099.6, 2055.4 1166.2 C 2159.3 1146.0, 2304.8 1063.5, 2401.7 1179.2 C 2505.6 1160.4, 2651.1 1050.5, 2748.0 1146.5 C 2851.9 1148.5, 2997.4 1067.7, 3094.3 1088.0 C 3198.2 1083.4, 3343.7 1111.8, 3440.6 1039.2" fill="none" stroke="url(#ribbon344)" stroke-width="46.4" stroke-linecap="round" stroke-opacity="0.198" /></g><g transform="rotate(-13.17 1536.0 1536.0)"><path d="M-368.6 1261.2 C -273.4 1225.2, -140.1 1311.3, -51.2 1270.7 C 44.0 1273.0, 177.4 1252.4, 266.2 1327.4 C 361.5 1327.8, 494.8 1236.8, 583.7 1343.9 C 678.9 1314.0, 812.2 1217.4, 901.1 1310.3 C 996.4 1293.6, 1129.7 1228.2, 1218.6 1246.9 C 1313.8 1249.9, 1447.1 1269.0, 1536.0 1192.2 C 1631.2 1173.4, 1764.6 1323.6, 1853.4 1179.4 C 1948.7 1189.1, 2082.0 1295.4, 2170.9 1216.2 C 2266.1 1214.2, 2399.4 1294.1, 2488.3 1280.3 C 2583.6 1278.0, 2716.9 1249.3, 2805.8 1332.9 C 2901.0 1310.4, 3034.3 1186.2, 3123.2 1342.0 C 3218.4 1355.8, 3351.8 1168.2, 3440.6 1302.1" fill="none" stroke="url(#ribbon344)" stroke-width="42.4" stroke-linecap="round" stroke-opacity="0.224" /></g><g transform="rotate(-12.59 1536.0 1536.0)"><path d="M-368.6 1531.8 C -225.8 1474.9, -25.8 1555.8, 107.5 1441.3 C 250.4 1472.6, 450.4 1582.4, 583.7 1471.7 C 726.5 1486.6, 926.5 1559.9, 1059.8 1538.5 C 1202.7 1537.7, 1402.7 1523.9, 1536.0 1601.3 C 1678.8 1610.7, 1878.8 1476.2, 2012.2 1622.0 C 2155.0 1616.6, 2355.0 1482.4, 2488.3 1588.0 C 2631.2 1576.8, 2831.2 1481.1, 2964.5 1519.9 C 3107.3 1517.6, 3307.3 1537.1, 3440.6 1459.1" fill="none" stroke="url(#ribbon344)" stroke-width="38.4" stroke-linecap="round" stroke-opacity="0.250" /></g><g transform="rotate(-12.01 1536.0 1536.0)"><path d="M-368.6 1742.8 C -241.7 1791.8, -63.9 1673.0, 54.6 1840.1 C 181.6 1804.5, 359.4 1628.3, 477.9 1804.2 C 604.8 1816.2, 782.6 1723.6, 901.1 1731.1 C 1028.1 1734.1, 1205.9 1751.1, 1324.4 1665.1 C 1451.3 1686.2, 1629.1 1831.0, 1747.6 1646.2 C 1874.6 1611.1, 2052.4 1843.8, 2170.9 1685.9 C 2297.9 1664.9, 2475.6 1806.0, 2594.1 1760.1 C 2721.1 1766.4, 2898.9 1727.0, 3017.4 1823.8 C 3144.4 1851.9, 3322.1 1648.0, 3440.6 1838.4" fill="none" stroke="url(#ribbon344)" stroke-width="34.4" stroke-linecap="round" stroke-opacity="0.276" /></g><g transform="rotate(-11.43 1536.0 1536.0)"><path d="M-368.6 1878.0 C -254.4 1807.6, -94.4 1938.6, 12.3 1774.0 C 126.6 1770.2, 286.6 1985.3, 393.2 1814.5 C 507.5 1817.3, 667.5 1922.7, 774.1 1893.5 C 888.4 1894.2, 1048.4 1872.4, 1155.1 1963.1 C 1269.4 1961.7, 1429.3 1838.3, 1536.0 1981.0 C 1650.3 2012.4, 1810.3 1844.0, 1916.9 1936.4 C 2031.2 1915.0, 2191.2 1807.8, 2297.9 1856.4 C 2412.1 1851.5, 2572.1 1896.3, 2678.8 1789.4 C 2793.1 1762.1, 2953.1 1907.5, 3059.7 1776.1 C 3174.0 1738.4, 3334.0 1916.2, 3440.6 1824.7" fill="none" stroke="url(#ribbon344)" stroke-width="30.4" stroke-linecap="round" stroke-opacity="0.302" /></g><g transform="rotate(-10.85 1536.0 1536.0)"><path d="M-368.6 2090.5 C -264.8 2204.0, -119.3 2023.4, -22.3 2181.4 C 81.5 2205.2, 227.0 2038.2, 324.0 2107.1 C 427.8 2108.7, 573.3 2074.2, 670.3 2022.8 C 774.1 1997.6, 919.6 2126.5, 1016.6 1979.5 C 1120.4 1937.7, 1265.9 2188.2, 1362.9 2003.6 C 1466.7 2026.9, 1612.2 2157.0, 1709.1 2080.4 C 1813.0 2080.3, 1958.5 2097.6, 2055.4 2163.3 C 2159.3 2148.8, 2304.8 2010.1, 2401.7 2202.1 C 2505.6 2199.0, 2651.1 2056.4, 2748.0 2173.2 C 2851.9 2201.7, 2997.4 2057.8, 3094.3 2094.1 C 3198.2 2094.2, 3343.7 2087.2, 3440.6 2012.9" fill="none" stroke="url(#ribbon344)" stroke-width="26.4" stroke-linecap="round" stroke-opacity="0.328" /></g><g transform="rotate(-10.27 1536.0 1536.0)"><path d="M-368.6 2229.9 C -273.4 2339.8, -140.1 2095.9, -51.2 2318.9 C 44.0 2334.6, 177.4 2152.8, 266.2 2235.4 C 361.5 2235.1, 494.8 2224.0, 583.7 2148.5 C 678.9 2147.0, 812.2 2324.2, 901.1 2111.0 C 996.4 2133.2, 1129.7 2354.0, 1218.6 2145.6 C 1313.8 2117.6, 1447.1 2295.0, 1536.0 2231.3 C 1631.2 2231.7, 1764.6 2228.3, 1853.4 2316.2 C 1948.7 2289.9, 2082.0 2199.3, 2170.9 2348.7 C 2266.1 2392.5, 2399.4 2184.8, 2488.3 2309.1 C 2583.6 2322.1, 2716.9 2173.9, 2805.8 2221.5 C 2901.0 2221.7, 3034.3 2233.6, 3123.2 2139.0 C 3218.4 2140.8, 3351.8 2281.0, 3440.6 2111.6" fill="none" stroke="url(#ribbon344)" stroke-width="22.4" stroke-linecap="round" stroke-opacity="0.354" /></g><g transform="rotate(-9.69 1536.0 1536.0)"><path d="M-368.6 2466.5 C -225.8 2551.5, -25.8 2437.6, 107.5 2588.8 C 250.4 2624.2, 450.4 2425.4, 583.7 2573.3 C 726.5 2577.6, 926.5 2432.3, 1059.8 2493.0 C 1202.7 2489.7, 1402.7 2450.9, 1536.0 2396.6 C 1678.8 2385.8, 1878.8 2488.1, 2012.2 2342.6 C 2155.0 2375.9, 2355.0 2516.8, 2488.3 2363.7 C 2631.2 2355.3, 2831.2 2567.0, 2964.5 2447.2 C 3107.3 2454.7, 3307.3 2483.0, 3440.6 2542.3" fill="none" stroke="url(#ribbon344)" stroke-width="18.4" stroke-linecap="round" stroke-opacity="0.380" /></g><g transform="rotate(-9.11 1536.0 1536.0)"><path d="M-368.6 2701.7 C -241.7 2613.8, -63.9 2731.3, 54.6 2705.6 C 181.6 2706.5, 359.4 2699.9, 477.9 2799.8 C 604.8 2794.9, 782.6 2638.1, 901.1 2834.5 C 1028.1 2833.9, 1205.9 2561.5, 1324.4 2788.6 C 1451.3 2765.3, 1629.1 2638.8, 1747.6 2690.0 C 1874.6 2688.1, 2052.4 2712.7, 2170.9 2598.5 C 2297.9 2594.9, 2475.6 2816.5, 2594.1 2569.6 C 2721.1 2570.9, 2898.9 2773.3, 3017.4 2620.8 C 3144.4 2644.9, 3322.1 2753.4, 3440.6 2721.0" fill="none" stroke="url(#ribbon344)" stroke-width="14.4" stroke-linecap="round" stroke-opacity="0.406" /></g></g>
  <g><ellipse cx="1536.0" cy="1551.9" rx="728.6" ry="605.7" fill="url(#extrude344)" opacity="0.220" /><ellipse cx="1536.0" cy="1567.7" rx="736.0" ry="610.9" fill="url(#extrude344)" opacity="0.205" /><ellipse cx="1536.0" cy="1583.6" rx="743.4" ry="616.1" fill="url(#extrude344)" opacity="0.190" /><ellipse cx="1536.0" cy="1599.5" rx="750.9" ry="621.3" fill="url(#extrude344)" opacity="0.175" /><ellipse cx="1536.0" cy="1615.4" rx="758.3" ry="626.5" fill="url(#extrude344)" opacity="0.160" /><ellipse cx="1536.0" cy="1631.2" rx="765.7" ry="631.7" fill="url(#extrude344)" opacity="0.145" /><ellipse cx="1536.0" cy="1647.1" rx="773.2" ry="636.9" fill="url(#extrude344)" opacity="0.130" /><ellipse cx="1536.0" cy="1663.0" rx="780.6" ry="642.1" fill="url(#extrude344)" opacity="0.115" /><ellipse cx="1536.0" cy="1678.8" rx="788.0" ry="647.4" fill="url(#extrude344)" opacity="0.100" /><ellipse cx="1536.0" cy="1694.7" rx="795.5" ry="652.6" fill="url(#extrude344)" opacity="0.085" /><ellipse cx="1536.0" cy="1710.6" rx="802.9" ry="657.8" fill="url(#extrude344)" opacity="0.070" /><ellipse cx="1536.0" cy="1726.5" rx="810.3" ry="663.0" fill="url(#extrude344)" opacity="0.055" /></g>
  <ellipse cx="1536.0" cy="1726.5" rx="773.2" ry="214.9" fill="#0B1D2D" opacity="0.24" />
  <ellipse cx="1536.0" cy="1536.0" rx="743.4" ry="651.3" fill="url(#orb344)" stroke="#FFFFFF" stroke-opacity="0.42" stroke-width="7" />
  <ellipse cx="1431.9" cy="1392.7" rx="505.5" ry="299.6" fill="#FFFFFF" opacity="0.25" />
  <path d="M 199.4 399.4 C 1013.8 -30.7, 2058.2 768.0, 2872.6 215.0 L 2872.6 983.0 C 2089.0 1228.8, 1013.8 307.2, 199.4 1167.4 Z" fill="url(#glass344)" />
  <rect x="270" y="270" width="2532" height="2532" rx="430" fill="none" stroke="#FFFFFF" stroke-opacity="0.30" stroke-width="5" />
  <rect x="288.4" y="288.4" width="2495.1" height="2495.1" rx="399" fill="none" stroke="#3B82FF" stroke-opacity="0.35" stroke-width="3" />
  <g filter="url(#soft344)"><rect x="1324" y="2353" width="60" height="2" fill="#FFFFFF" opacity="0.696" /><rect x="1353" y="2324" width="2" height="60" fill="#FFFFFF" opacity="0.696" /><rect x="2685" y="1616" width="58" height="2" fill="#FFFFFF" opacity="0.303" /><rect x="2713" y="1588" width="2" height="58" fill="#FFFFFF" opacity="0.303" /><rect x="2073" y="1864" width="68" height="2" fill="#FFFFFF" opacity="0.348" /><rect x="2106" y="1831" width="2" height="68" fill="#FFFFFF" opacity="0.348" /><rect x="2042" y="1057" width="60" height="2" fill="#FFFFFF" opacity="0.406" /><rect x="2071" y="1028" width="2" height="60" fill="#FFFFFF" opacity="0.406" /><rect x="2543" y="881" width="82" height="2" fill="#FFFFFF" opacity="0.557" /><rect x="2583" y="841" width="2" height="82" fill="#FFFFFF" opacity="0.557" /><rect x="2266" y="1162" width="32" height="2" fill="#FFFFFF" opacity="0.644" /><rect x="2281" y="1147" width="2" height="32" fill="#FFFFFF" opacity="0.644" /><rect x="1515" y="1857" width="32" height="2" fill="#FFFFFF" opacity="0.345" /><rect x="1530" y="1842" width="2" height="32" fill="#FFFFFF" opacity="0.345" /><rect x="2449" y="2588" width="80" height="2" fill="#FFFFFF" opacity="0.409" /><rect x="2488" y="2549" width="2" height="80" fill="#FFFFFF" opacity="0.409" /><rect x="1933" y="393" width="68" height="2" fill="#FFFFFF" opacity="0.607" /><rect x="1966" y="360" width="2" height="68" fill="#FFFFFF" opacity="0.607" /><rect x="1166" y="2095" width="74" height="2" fill="#FFFFFF" opacity="0.523" /><rect x="1202" y="2059" width="2" height="74" fill="#FFFFFF" opacity="0.523" /><rect x="1861" y="324" width="52" height="2" fill="#FFFFFF" opacity="0.633" /><rect x="1886" y="299" width="2" height="52" fill="#FFFFFF" opacity="0.633" /><rect x="1210" y="1408" width="74" height="2" fill="#FFFFFF" opacity="0.755" /><rect x="1246" y="1372" width="2" height="74" fill="#FFFFFF" opacity="0.755" /><rect x="2081" y="2499" width="60" height="2" fill="#FFFFFF" opacity="0.724" /><rect x="2110" y="2470" width="2" height="60" fill="#FFFFFF" opacity="0.724" /><rect x="1597" y="2383" width="74" height="2" fill="#FFFFFF" opacity="0.658" /><rect x="1633" y="2347" width="2" height="74" fill="#FFFFFF" opacity="0.658" /><rect x="1062" y="2547" width="32" height="2" fill="#FFFFFF" opacity="0.441" /><rect x="1077" y="2532" width="2" height="32" fill="#FFFFFF" opacity="0.441" /><rect x="1548" y="1067" width="32" height="2" fill="#FFFFFF" opacity="0.453" /><rect x="1563" y="1052" width="2" height="32" fill="#FFFFFF" opacity="0.453" /><rect x="1719" y="2651" width="78" height="2" fill="#FFFFFF" opacity="0.734" /><rect x="1757" y="2613" width="2" height="78" fill="#FFFFFF" opacity="0.734" /><rect x="1424" y="807" width="26" height="2" fill="#FFFFFF" opacity="0.835" /><rect x="1436" y="795" width="2" height="26" fill="#FFFFFF" opacity="0.835" /><rect x="437" y="2062" width="44" height="2" fill="#FFFFFF" opacity="0.612" /><rect x="458" y="2041" width="2" height="44" fill="#FFFFFF" opacity="0.612" /><rect x="825" y="1595" width="80" height="2" fill="#FFFFFF" opacity="0.622" /><rect x="864" y="1556" width="2" height="80" fill="#FFFFFF" opacity="0.622" /><rect x="340" y="1638" width="26" height="2" fill="#FFFFFF" opacity="0.444" /><rect x="352" y="1626" width="2" height="26" fill="#FFFFFF" opacity="0.444" /><rect x="1235" y="892" width="48" height="2" fill="#FFFFFF" opacity="0.485" /><rect x="1258" y="869" width="2" height="48" fill="#FFFFFF" opacity="0.485" /><rect x="1828" y="2228" width="52" height="2" fill="#FFFFFF" opacity="0.341" /><rect x="1853" y="2203" width="2" height="52" fill="#FFFFFF" opacity="0.341" /><rect x="371" y="921" width="24" height="2" fill="#FFFFFF" opacity="0.665" /><rect x="382" y="910" width="2" height="24" fill="#FFFFFF" opacity="0.665" /><rect x="2570" y="1964" width="74" height="2" fill="#FFFFFF" opacity="0.781" /><rect x="2606" y="1928" width="2" height="74" fill="#FFFFFF" opacity="0.781" /><rect x="1531" y="2249" width="28" height="2" fill="#FFFFFF" opacity="0.372" /><rect x="1544" y="2236" width="2" height="28" fill="#FFFFFF" opacity="0.372" /></g>
  <g opacity="0.52"><path d="M1023 1326 L1572 1070 L2121 1326 L2121 2043 L1023 2043 Z" fill="none" stroke="#0C2030" stroke-width="90" stroke-linejoin="round" /><line x1="1572" y1="1070" x2="1572" y2="2043" stroke="#0C2030" stroke-width="88" /></g>
  <g filter="url(#soft344)"><path d="M987 1280 L1536 1024 L2085 1280 L2085 1997 L987 1997 Z" fill="none" stroke="url(#symbol344)" stroke-width="90" stroke-linejoin="round" /><line x1="1536" y1="1024" x2="1536" y2="1997" stroke="url(#symbol344)" stroke-width="88" /></g>
  <rect x="138" y="138" width="2796" height="2796" rx="629" fill="#FFFFFF" filter="url(#grain344)" opacity="0.18" />
</svg>
