<svg xmlns="http://www.w3.org/2000/svg" width="3072" height="3072" viewBox="0 0 3072 3072">
  <title>QuartzOS App Icon 185 - bright_charts_185</title>
  <defs><linearGradient id="bg184" x1="0%" y1="0%" x2="100%" y2="100%"><stop offset="0%" stop-color="#8A5CFF" /><stop offset="26%" stop-color="#FF9F43" /><stop offset="56%" stop-color="#53E3A6" /><stop offset="78%" stop-color="#5AA47F" /><stop offset="100%" stop-color="#1A2B22" /></linearGradient><radialGradient id="sun184" cx="26%" cy="15%" r="88%"><stop offset="0%" stop-color="#FFFFFF" stop-opacity="0.62" /><stop offset="30%" stop-color="#36D1FF" stop-opacity="0.35" /><stop offset="100%" stop-color="#36D1FF" stop-opacity="0" /></radialGradient><linearGradient id="glass184" x1="0%" y1="0%" x2="0%" y2="100%"><stop offset="0%" stop-color="#FFFFFF" stop-opacity="0.70" /><stop offset="46%" stop-color="#FFFFFF" stop-opacity="0.26" /><stop offset="100%" stop-color="#FFFFFF" stop-opacity="0.00" /></linearGradient><linearGradient id="ribbon184" x1="0%" y1="0%" x2="100%" y2="0%"><stop offset="0%" stop-color="#8A5CFF" stop-opacity="0.18" /><stop offset="34%" stop-color="#FF9F43" stop-opacity="0.72" /><stop offset="66%" stop-color="#53E3A6" stop-opacity="0.72" /><stop offset="100%" stop-color="#36D1FF" stop-opacity="0.18" /></linearGradient><radialGradient id="orb184" cx="34%" cy="27%" r="74%"><stop offset="0%" stop-color="#FFFFFF" stop-opacity="0.84" /><stop offset="30%" stop-color="#8A5CFF" stop-opacity="0.52" /><stop offset="68%" stop-color="#FF9F43" stop-opacity="0.42" /><stop offset="100%" stop-color="#53E3A6" stop-opacity="0.20" /></radialGradient><linearGradient id="extrude184" x1="0%" y1="0%" x2="0%" y2="100%"><stop offset="0%" stop-color="#15283C" stop-opacity="0.45" /><stop offset="100%" stop-color="#08131D" stop-opacity="0.06" /></linearGradient><linearGradient id="symbol184" x1="0%" y1="0%" x2="100%" y2="100%"><stop offset="0%" stop-color="#FFFFFF" /><stop offset="100%" stop-color="#36D1FF" /></linearGradient><filter id="shadow184" x="-40%" y="-40%" width="180%" height="180%"><feDropShadow dx="0" dy="49" stdDeviation="86" flood-color="#06111A" flood-opacity="0.54" /></filter><filter id="soft184" x="-40%" y="-40%" width="180%" height="180%"><feDropShadow dx="0" dy="0" stdDeviation="14" flood-color="#8A5CFF" flood-opacity="0.45" /></filter><filter id="grain184"><feTurbulence type="fractalNoise" baseFrequency="0.741" numOctaves="2" seed="184" /><feColorMatrix type="saturate" values="0" /><feComponentTransfer><feFuncA type="table" tableValues="0 0.09" /></feComponentTransfer></filter></defs>
  <rect x="138" y="138" width="2796" height="2796" rx="629" fill="url(#bg184)" filter="url(#shadow184)" />
  <rect x="138" y="138" width="2796" height="2796" rx="629" fill="url(#sun184)" />
  <g><circle cx="1691" cy="797" r="99" fill="#FFFFFF" opacity="0.110" /><circle cx="2015" cy="963" r="57" fill="#FFFFFF" opacity="0.167" /><circle cx="779" cy="2193" r="141" fill="#FFFFFF" opacity="0.225" /><circle cx="2184" cy="2186" r="60" fill="#FFFFFF" opacity="0.224" /><circle cx="2333" cy="1358" r="68" fill="#FFFFFF" opacity="0.126" /><circle cx="1807" cy="1871" r="40" fill="#FFFFFF" opacity="0.189" /><circle cx="784" cy="2641" r="100" fill="#FFFFFF" opacity="0.086" /><circle cx="666" cy="968" r="82" fill="#FFFFFF" opacity="0.234" /><circle cx="1764" cy="2508" r="53" fill="#FFFFFF" opacity="0.239" /><circle cx="1133" cy="1107" r="110" fill="#FFFFFF" opacity="0.070" /><circle cx="2301" cy="875" r="133" fill="#FFFFFF" opacity="0.238" /><circle cx="2454" cy="2531" r="103" fill="#FFFFFF" opacity="0.166" /><circle cx="2680" cy="1201" r="141" fill="#FFFFFF" opacity="0.149" /><circle cx="1003" cy="374" r="67" fill="#FFFFFF" opacity="0.231" /><circle cx="941" cy="1754" r="37" fill="#FFFFFF" opacity="0.218" /><circle cx="1198" cy="856" r="149" fill="#FFFFFF" opacity="0.192" /><circle cx="2693" cy="2000" r="147" fill="#FFFFFF" opacity="0.076" /><circle cx="2045" cy="2289" r="133" fill="#FFFFFF" opacity="0.227" /><circle cx="1896" cy="2548" r="142" fill="#FFFFFF" opacity="0.064" /><circle cx="1334" cy="792" r="57" fill="#FFFFFF" opacity="0.234" /><circle cx="2643" cy="1058" r="118" fill="#FFFFFF" opacity="0.184" /><circle cx="1153" cy="1543" r="100" fill="#FFFFFF" opacity="0.156" /><circle cx="2569" cy="874" r="87" fill="#FFFFFF" opacity="0.100" /><circle cx="711" cy="2033" r="100" fill="#FFFFFF" opacity="0.107" /><circle cx="912" cy="1240" r="88" fill="#FFFFFF" opacity="0.183" /><circle cx="2135" cy="2422" r="75" fill="#FFFFFF" opacity="0.085" /><circle cx="895" cy="2637" r="59" fill="#FFFFFF" opacity="0.182" /><circle cx="1251" cy="2264" r="129" fill="#FFFFFF" opacity="0.210" /></g>
  <g><path d="M 207.3 622.3 L 2787.5 345.9 L 2787.5 826.8 L 207.3 1103.2 Z" fill="#FFFFFF" opacity="0.102" /><path d="M 314.6 832.5 L 2863.7 556.0 L 2863.7 1006.5 L 314.6 1283.0 Z" fill="#FFFFFF" opacity="0.140" /><path d="M 347.6 1111.3 L 2737.3 834.8 L 2737.3 1332.3 L 347.6 1608.8 Z" fill="#FFFFFF" opacity="0.135" /><path d="M 373.5 1438.6 L 2830.5 1162.1 L 2830.5 1584.3 L 373.5 1860.8 Z" fill="#FFFFFF" opacity="0.214" /><path d="M 320.3 1678.6 L 2876.2 1402.1 L 2876.2 1885.9 L 320.3 2162.3 Z" fill="#FFFFFF" opacity="0.200" /><path d="M 183.2 1944.6 L 2698.0 1668.1 L 2698.0 2143.3 L 183.2 2419.8 Z" fill="#FFFFFF" opacity="0.169" /><path d="M 318.9 2177.6 L 2865.4 1901.1 L 2865.4 2397.2 L 318.9 2673.6 Z" fill="#FFFFFF" opacity="0.191" /><path d="M 241.6 2450.5 L 2820.5 2174.0 L 2820.5 2640.9 L 241.6 2917.4 Z" fill="#FFFFFF" opacity="0.094" /></g>
  <g filter="url(#soft184)"><g transform="rotate(-15.50 1536.0 1536.0)"><path d="M-368.6 566.0 C -225.8 630.5, -25.8 537.7, 107.5 612.8 C 250.4 627.3, 450.4 548.8, 583.7 577.4 C 726.5 580.9, 926.5 554.2, 1059.8 535.1 C 1202.7 526.2, 1402.7 601.8, 1536.0 511.6 C 1678.8 508.8, 1878.8 594.6, 2012.2 521.0 C 2155.0 518.2, 2355.0 614.8, 2488.3 557.7 C 2631.2 558.9, 2831.2 569.1, 2964.5 599.5 C 3107.3 587.8, 3307.3 544.3, 3440.6 620.9" fill="none" stroke="url(#ribbon184)" stroke-width="58.4" stroke-linecap="round" stroke-opacity="0.120" /></g><g transform="rotate(-14.92 1536.0 1536.0)"><path d="M-368.6 750.2 C -241.7 827.2, -63.9 675.9, 54.6 792.1 C 181.6 800.8, 359.4 716.4, 477.9 746.3 C 604.8 747.3, 782.6 753.8, 901.1 702.8 C 1028.1 690.3, 1205.9 772.5, 1324.4 688.1 C 1451.3 702.3, 1629.1 780.1, 1747.6 711.1 C 1874.6 719.5, 2052.4 776.4, 2170.9 757.8 C 2297.9 759.8, 2475.6 745.2, 2594.1 799.9 C 2721.1 802.7, 2898.9 703.7, 3017.4 811.9 C 3144.4 826.6, 3322.1 680.6, 3440.6 786.4" fill="none" stroke="url(#ribbon184)" stroke-width="54.4" stroke-linecap="round" stroke-opacity="0.146" /></g><g transform="rotate(-14.34 1536.0 1536.0)"><path d="M-368.6 956.7 C -254.4 894.6, -94.4 978.1, 12.3 927.8 C 126.6 920.0, 286.6 976.3, 393.2 981.8 C 507.5 989.1, 667.5 945.4, 774.1 1020.6 C 888.4 1004.5, 1048.4 896.7, 1155.1 1020.7 C 1269.4 1043.3, 1429.3 890.6, 1536.0 981.9 C 1650.3 988.2, 1810.3 933.2, 1916.9 927.8 C 2031.2 928.6, 2191.2 979.7, 2297.9 891.3 C 2412.1 869.1, 2572.1 989.1, 2678.8 894.4 C 2793.1 906.7, 2953.1 1002.0, 3059.7 935.3 C 3174.0 940.3, 3334.0 964.1, 3440.6 989.2" fill="none" stroke="url(#ribbon184)" stroke-width="50.4" stroke-linecap="round" stroke-opacity="0.172" /></g><g transform="rotate(-13.76 1536.0 1536.0)"><path d="M-368.6 1053.8 C -264.8 1096.6, -119.3 1009.5, -22.3 1069.0 C 81.5 1072.7, 227.0 1048.2, 324.0 1010.6 C 427.8 1018.4, 573.3 1067.3, 670.3 978.4 C 774.1 965.8, 919.6 1116.8, 1016.6 992.0 C 1120.4 994.1, 1265.9 1124.0, 1362.9 1043.1 C 1466.7 1043.3, 1612.2 1066.2, 1709.1 1100.6 C 1813.0 1103.6, 1958.5 1011.9, 2055.4 1129.8 C 2159.3 1099.6, 2304.8 1007.1, 2401.7 1112.9 C 2505.6 1096.1, 2651.1 995.4, 2748.0 1060.2 C 2851.9 1061.7, 2997.4 1048.5, 3094.3 1003.6 C 3198.2 997.7, 3343.7 1098.7, 3440.6 977.4" fill="none" stroke="url(#ribbon184)" stroke-width="46.4" stroke-linecap="round" stroke-opacity="0.198" /></g><g transform="rotate(-13.18 1536.0 1536.0)"><path d="M-368.6 1247.1 C -273.4 1169.7, -140.1 1269.9, -51.2 1243.4 C 44.0 1243.2, 177.4 1251.0, 266.2 1304.4 C 361.5 1298.9, 494.8 1185.9, 583.7 1330.7 C 678.9 1328.3, 812.2 1150.6, 901.1 1306.2 C 996.4 1317.3, 1129.7 1219.5, 1218.6 1245.9 C 1313.8 1245.9, 1447.1 1248.3, 1536.0 1186.4 C 1631.2 1195.3, 1764.6 1290.7, 1853.4 1163.6 C 1948.7 1184.9, 2082.0 1296.9, 2170.9 1191.5 C 2266.1 1177.8, 2399.4 1281.6, 2488.3 1253.2 C 2583.6 1255.2, 2716.9 1244.5, 2805.8 1311.1 C 2901.0 1319.7, 3034.3 1181.1, 3123.2 1330.2 C 3218.4 1331.1, 3351.8 1215.5, 3440.6 1298.9" fill="none" stroke="url(#ribbon184)" stroke-width="42.4" stroke-linecap="round" stroke-opacity="0.224" /></g><g transform="rotate(-12.60 1536.0 1536.0)"><path d="M-368.6 1447.8 C -225.8 1458.8, -25.8 1441.8, 107.5 1520.7 C 250.4 1503.7, 450.4 1385.1, 583.7 1537.2 C 726.5 1558.0, 926.5 1406.8, 1059.8 1499.4 C 1202.7 1507.6, 1402.7 1403.3, 1536.0 1430.3 C 1678.8 1434.4, 1878.8 1459.1, 2012.2 1371.8 C 2155.0 1345.1, 2355.0 1530.4, 2488.3 1359.4 C 2631.2 1351.3, 2831.2 1550.7, 2964.5 1400.6 C 3107.3 1401.0, 3307.3 1462.6, 3440.6 1470.4" fill="none" stroke="url(#ribbon184)" stroke-width="38.4" stroke-linecap="round" stroke-opacity="0.250" /></g><g transform="rotate(-12.02 1536.0 1536.0)"><path d="M-368.6 1659.8 C -241.7 1708.3, -63.9 1636.0, 54.6 1629.1 C 181.6 1632.6, 359.4 1693.0, 477.9 1571.9 C 604.8 1547.0, 782.6 1718.6, 901.1 1567.9 C 1028.1 1561.3, 1205.9 1755.1, 1324.4 1619.7 C 1451.3 1605.8, 1629.1 1675.2, 1747.6 1695.8 C 1874.6 1709.9, 2052.4 1646.5, 2170.9 1750.0 C 2297.9 1740.8, 2475.6 1560.2, 2594.1 1749.5 C 2721.1 1765.1, 2898.9 1607.3, 3017.4 1694.6 C 3144.4 1705.2, 3322.1 1618.9, 3440.6 1618.5" fill="none" stroke="url(#ribbon184)" stroke-width="34.4" stroke-linecap="round" stroke-opacity="0.276" /></g><g transform="rotate(-11.44 1536.0 1536.0)"><path d="M-368.6 1842.7 C -254.4 1958.6, -94.4 1763.5, 12.3 1922.1 C 126.6 1899.2, 286.6 1789.0, 393.2 1848.9 C 507.5 1848.7, 667.5 1836.5, 774.1 1772.0 C 888.4 1747.5, 1048.4 1884.4, 1155.1 1738.0 C 1269.4 1708.8, 1429.3 1959.9, 1536.0 1767.5 C 1650.3 1770.0, 1810.3 1932.9, 1916.9 1842.7 C 2031.2 1842.7, 2191.2 1842.8, 2297.9 1917.8 C 2412.1 1944.9, 2572.1 1787.2, 2678.8 1947.4 C 2793.1 1923.2, 2953.1 1760.2, 3059.7 1913.5 C 3174.0 1890.0, 3334.0 1760.8, 3440.6 1836.7" fill="none" stroke="url(#ribbon184)" stroke-width="30.4" stroke-linecap="round" stroke-opacity="0.302" /></g><g transform="rotate(-10.86 1536.0 1536.0)"><path d="M-368.6 2028.3 C -264.8 2080.9, -119.3 2004.1, -22.3 2140.1 C 81.5 2108.6, 227.0 1951.3, 324.0 2107.5 C 427.8 2089.8, 573.3 1939.3, 670.3 2026.9 C 774.1 2026.9, 919.6 2029.9, 1016.6 1947.1 C 1120.4 1937.6, 1265.9 2075.9, 1362.9 1916.5 C 1466.7 1931.3, 1612.2 2112.7, 1709.1 1953.7 C 1813.0 1974.7, 1958.5 2054.0, 2055.4 2036.2 C 2159.3 2035.6, 2304.8 2021.3, 2401.7 2113.8 C 2505.6 2140.1, 2651.1 1926.2, 2748.0 2139.5 C 2851.9 2141.5, 2997.4 1946.0, 3094.3 2097.8 C 3198.2 2116.5, 3343.7 1951.3, 3440.6 2013.9" fill="none" stroke="url(#ribbon184)" stroke-width="26.4" stroke-linecap="round" stroke-opacity="0.328" /></g><g transform="rotate(-10.28 1536.0 1536.0)"><path d="M-368.6 2293.9 C -273.4 2317.3, -140.1 2260.3, -51.2 2396.8 C 44.0 2371.8, 177.4 2230.6, 266.2 2408.3 C 361.5 2440.7, 494.8 2231.8, 583.7 2350.4 C 678.9 2331.1, 812.2 2231.3, 901.1 2258.2 C 996.4 2254.7, 1129.7 2324.9, 1218.6 2187.7 C 1313.8 2226.7, 1447.1 2357.6, 1536.0 2181.6 C 1631.2 2172.7, 1764.6 2351.5, 1853.4 2243.6 C 1948.7 2249.7, 2082.0 2346.5, 2170.9 2336.1 C 2266.1 2349.6, 2399.4 2273.1, 2488.3 2403.0 C 2583.6 2377.7, 2716.9 2209.2, 2805.8 2403.7 C 2901.0 2433.6, 3034.3 2246.2, 3123.2 2337.8 C 3218.4 2330.8, 3351.8 2244.7, 3440.6 2245.3" fill="none" stroke="url(#ribbon184)" stroke-width="22.4" stroke-linecap="round" stroke-opacity="0.354" /></g><g transform="rotate(-9.70 1536.0 1536.0)"><path d="M-368.6 2397.6 C -225.8 2364.3, -25.8 2408.9, 107.5 2459.4 C 250.4 2462.9, 450.4 2338.1, 583.7 2519.4 C 726.5 2537.9, 926.5 2265.7, 1059.8 2505.6 C 1202.7 2475.8, 1402.7 2310.0, 1536.0 2426.3 C 1678.8 2433.9, 1878.8 2374.4, 2012.2 2329.6 C 2155.0 2347.5, 2355.0 2434.9, 2488.3 2274.2 C 2631.2 2286.6, 2831.2 2525.8, 2964.5 2293.7 C 3107.3 2305.1, 3307.3 2490.5, 3440.6 2376.2" fill="none" stroke="url(#ribbon184)" stroke-width="18.4" stroke-linecap="round" stroke-opacity="0.380" /></g><g transform="rotate(-9.12 1536.0 1536.0)"><path d="M-368.6 2689.5 C -241.7 2617.7, -63.9 2744.4, 54.6 2738.6 C 181.6 2725.5, 359.4 2650.3, 477.9 2812.4 C 604.8 2802.1, 782.6 2628.4, 901.1 2811.6 C 1028.1 2800.8, 1205.9 2582.9, 1324.4 2736.8 C 1451.3 2742.6, 1629.1 2660.6, 1747.6 2633.3 C 1874.6 2632.4, 2052.4 2727.1, 2170.9 2563.8 C 2297.9 2520.2, 2475.6 2749.9, 2594.1 2570.6 C 2721.1 2556.5, 2898.9 2767.8, 3017.4 2649.5 C 3144.4 2661.8, 3322.1 2716.2, 3440.6 2752.6" fill="none" stroke="url(#ribbon184)" stroke-width="14.4" stroke-linecap="round" stroke-opacity="0.406" /></g></g>
  <g><ellipse cx="1536.0" cy="1551.9" rx="728.6" ry="605.7" fill="url(#extrude184)" opacity="0.220" /><ellipse cx="1536.0" cy="1567.7" rx="736.0" ry="610.9" fill="url(#extrude184)" opacity="0.205" /><ellipse cx="1536.0" cy="1583.6" rx="743.4" ry="616.1" fill="url(#extrude184)" opacity="0.190" /><ellipse cx="1536.0" cy="1599.5" rx="750.9" ry="621.3" fill="url(#extrude184)" opacity="0.175" /><ellipse cx="1536.0" cy="1615.4" rx="758.3" ry="626.5" fill="url(#extrude184)" opacity="0.160" /><ellipse cx="1536.0" cy="1631.2" rx="765.7" ry="631.7" fill="url(#extrude184)" opacity="0.145" /><ellipse cx="1536.0" cy="1647.1" rx="773.2" ry="636.9" fill="url(#extrude184)" opacity="0.130" /><ellipse cx="1536.0" cy="1663.0" rx="780.6" ry="642.1" fill="url(#extrude184)" opacity="0.115" /><ellipse cx="1536.0" cy="1678.8" rx="788.0" ry="647.4" fill="url(#extrude184)" opacity="0.100" /><ellipse cx="1536.0" cy="1694.7" rx="795.5" ry="652.6" fill="url(#extrude184)" opacity="0.085" /><ellipse cx="1536.0" cy="1710.6" rx="802.9" ry="657.8" fill="url(#extrude184)" opacity="0.070" /><ellipse cx="1536.0" cy="1726.5" rx="810.3" ry="663.0" fill="url(#extrude184)" opacity="0.055" /></g>
  <ellipse cx="1536.0" cy="1726.5" rx="773.2" ry="214.9" fill="#0B1D2D" opacity="0.24" />
  <ellipse cx="1536.0" cy="1536.0" rx="743.4" ry="651.3" fill="url(#orb184)" stroke="#FFFFFF" stroke-opacity="0.42" stroke-width="7" />
  <ellipse cx="1431.9" cy="1392.7" rx="505.5" ry="299.6" fill="#FFFFFF" opacity="0.25" />
  <path d="M 199.4 399.4 C 1013.8 -30.7, 2058.2 768.0, 2872.6 215.0 L 2872.6 983.0 C 2089.0 1228.8, 1013.8 307.2, 199.4 1167.4 Z" fill="url(#glass184)" />
  <rect x="270" y="270" width="2532" height="2532" rx="430" fill="none" stroke="#FFFFFF" stroke-opacity="0.30" stroke-width="5" />
  <rect x="288.4" y="288.4" width="2495.1" height="2495.1" rx="399" fill="none" stroke="#8A5CFF" stroke-opacity="0.35" stroke-width="3" />
  <g filter="url(#soft184)"><rect x="346" y="2002" width="30" height="2" fill="#FFFFFF" opacity="0.377" /><rect x="360" y="1988" width="2" height="30" fill="#FFFFFF" opacity="0.377" /><rect x="2446" y="452" width="32" height="2" fill="#FFFFFF" opacity="0.427" /><rect x="2461" y="437" width="2" height="32" fill="#FFFFFF" opacity="0.427" /><rect x="2054" y="1947" width="38" height="2" fill="#FFFFFF" opacity="0.766" /><rect x="2072" y="1929" width="2" height="38" fill="#FFFFFF" opacity="0.766" /><rect x="1353" y="762" width="54" height="2" fill="#FFFFFF" opacity="0.484" /><rect x="1379" y="736" width="2" height="54" fill="#FFFFFF" opacity="0.484" /><rect x="665" y="525" width="32" height="2" fill="#FFFFFF" opacity="0.386" /><rect x="680" y="510" width="2" height="32" fill="#FFFFFF" opacity="0.386" /><rect x="2033" y="310" width="76" height="2" fill="#FFFFFF" opacity="0.322" /><rect x="2070" y="273" width="2" height="76" fill="#FFFFFF" opacity="0.322" /><rect x="1406" y="1212" width="44" height="2" fill="#FFFFFF" opacity="0.708" /><rect x="1427" y="1191" width="2" height="44" fill="#FFFFFF" opacity="0.708" /><rect x="1625" y="707" width="40" height="2" fill="#FFFFFF" opacity="0.334" /><rect x="1644" y="688" width="2" height="40" fill="#FFFFFF" opacity="0.334" /><rect x="2580" y="654" width="30" height="2" fill="#FFFFFF" opacity="0.848" /><rect x="2594" y="640" width="2" height="30" fill="#FFFFFF" opacity="0.848" /><rect x="1997" y="2523" width="66" height="2" fill="#FFFFFF" opacity="0.395" /><rect x="2029" y="2491" width="2" height="66" fill="#FFFFFF" opacity="0.395" /><rect x="1923" y="1859" width="38" height="2" fill="#FFFFFF" opacity="0.832" /><rect x="1941" y="1841" width="2" height="38" fill="#FFFFFF" opacity="0.832" /><rect x="420" y="2179" width="28" height="2" fill="#FFFFFF" opacity="0.804" /><rect x="433" y="2166" width="2" height="28" fill="#FFFFFF" opacity="0.804" /><rect x="2642" y="1092" width="64" height="2" fill="#FFFFFF" opacity="0.498" /><rect x="2673" y="1061" width="2" height="64" fill="#FFFFFF" opacity="0.498" /><rect x="1975" y="341" width="56" height="2" fill="#FFFFFF" opacity="0.518" /><rect x="2002" y="314" width="2" height="56" fill="#FFFFFF" opacity="0.518" /><rect x="1292" y="1382" width="26" height="2" fill="#FFFFFF" opacity="0.632" /><rect x="1304" y="1370" width="2" height="26" fill="#FFFFFF" opacity="0.632" /><rect x="1762" y="1647" width="32" height="2" fill="#FFFFFF" opacity="0.364" /><rect x="1777" y="1632" width="2" height="32" fill="#FFFFFF" opacity="0.364" /><rect x="2721" y="2254" width="72" height="2" fill="#FFFFFF" opacity="0.838" /><rect x="2756" y="2219" width="2" height="72" fill="#FFFFFF" opacity="0.838" /><rect x="1420" y="737" width="60" height="2" fill="#FFFFFF" opacity="0.792" /><rect x="1449" y="708" width="2" height="60" fill="#FFFFFF" opacity="0.792" /><rect x="2214" y="956" width="48" height="2" fill="#FFFFFF" opacity="0.739" /><rect x="2237" y="933" width="2" height="48" fill="#FFFFFF" opacity="0.739" /><rect x="417" y="2453" width="64" height="2" fill="#FFFFFF" opacity="0.758" /><rect x="448" y="2422" width="2" height="64" fill="#FFFFFF" opacity="0.758" /><rect x="1903" y="2654" width="32" height="2" fill="#FFFFFF" opacity="0.672" /><rect x="1918" y="2639" width="2" height="32" fill="#FFFFFF" opacity="0.672" /><rect x="1643" y="628" width="62" height="2" fill="#FFFFFF" opacity="0.489" /><rect x="1673" y="598" width="2" height="62" fill="#FFFFFF" opacity="0.489" /><rect x="1904" y="1821" width="76" height="2" fill="#FFFFFF" opacity="0.754" /><rect x="1941" y="1784" width="2" height="76" fill="#FFFFFF" opacity="0.754" /><rect x="1626" y="1113" width="32" height="2" fill="#FFFFFF" opacity="0.440" /><rect x="1641" y="1098" width="2" height="32" fill="#FFFFFF" opacity="0.440" /><rect x="1016" y="310" width="44" height="2" fill="#FFFFFF" opacity="0.543" /><rect x="1037" y="289" width="2" height="44" fill="#FFFFFF" opacity="0.543" /><rect x="285" y="889" width="48" height="2" fill="#FFFFFF" opacity="0.829" /><rect x="308" y="866" width="2" height="48" fill="#FFFFFF" opacity="0.829" /></g>
  <g opacity="0.52"><path d="M1572 1006 L2148 1582 L1572 2158 L996 1582 Z" fill="none" stroke="#0C2030" stroke-width="90" stroke-linejoin="round" /><circle cx="1572" cy="1582" r="153" fill="#0C2030" /></g>
  <g filter="url(#soft184)"><path d="M1536 960 L2112 1536 L1536 2112 L960 1536 Z" fill="none" stroke="url(#symbol184)" stroke-width="90" stroke-linejoin="round" /><circle cx="1536" cy="1536" r="153" fill="url(#symbol184)" /></g>
  <rect x="138" y="138" width="2796" height="2796" rx="629" fill="#FFFFFF" filter="url(#grain184)" opacity="0.18" />
</svg>
