<svg xmlns="http://www.w3.org/2000/svg" width="3072" height="3072" viewBox="0 0 3072 3072">
  <title>QuartzOS App Icon 325 - bright_builder_325</title>
  <defs><linearGradient id="bg324" x1="0%" y1="0%" x2="100%" y2="100%"><stop offset="0%" stop-color="#8A5CFF" /><stop offset="26%" stop-color="#FF9F43" /><stop offset="56%" stop-color="#53E3A6" /><stop offset="78%" stop-color="#4E8FC5" /><stop offset="100%" stop-color="#10243A" /></linearGradient><radialGradient id="sun324" cx="26%" cy="37%" r="88%"><stop offset="0%" stop-color="#FFFFFF" stop-opacity="0.62" /><stop offset="30%" stop-color="#36D1FF" stop-opacity="0.35" /><stop offset="100%" stop-color="#36D1FF" stop-opacity="0" /></radialGradient><linearGradient id="glass324" x1="0%" y1="0%" x2="0%" y2="100%"><stop offset="0%" stop-color="#FFFFFF" stop-opacity="0.70" /><stop offset="46%" stop-color="#FFFFFF" stop-opacity="0.26" /><stop offset="100%" stop-color="#FFFFFF" stop-opacity="0.00" /></linearGradient><linearGradient id="ribbon324" x1="0%" y1="0%" x2="100%" y2="0%"><stop offset="0%" stop-color="#8A5CFF" stop-opacity="0.18" /><stop offset="34%" stop-color="#FF9F43" stop-opacity="0.72" /><stop offset="66%" stop-color="#53E3A6" stop-opacity="0.72" /><stop offset="100%" stop-color="#36D1FF" stop-opacity="0.18" /></linearGradient><radialGradient id="orb324" cx="34%" cy="27%" r="74%"><stop offset="0%" stop-color="#FFFFFF" stop-opacity="0.84" /><stop offset="30%" stop-color="#8A5CFF" stop-opacity="0.52" /><stop offset="68%" stop-color="#FF9F43" stop-opacity="0.42" /><stop offset="100%" stop-color="#53E3A6" stop-opacity="0.20" /></radialGradient><linearGradient id="extrude324" x1="0%" y1="0%" x2="0%" y2="100%"><stop offset="0%" stop-color="#15283C" stop-opacity="0.45" /><stop offset="100%" stop-color="#08131D" stop-opacity="0.06" /></linearGradient><linearGradient id="symbol324" x1="0%" y1="0%" x2="100%" y2="100%"><stop offset="0%" stop-color="#FFFFFF" /><stop offset="100%" stop-color="#36D1FF" /></linearGradient><filter id="shadow324" x="-40%" y="-40%" width="180%" height="180%"><feDropShadow dx="0" dy="49" stdDeviation="86" flood-color="#06111A" flood-opacity="0.54" /></filter><filter id="soft324" x="-40%" y="-40%" width="180%" height="180%"><feDropShadow dx="0" dy="0" stdDeviation="14" flood-color="#8A5CFF" flood-opacity="0.45" /></filter><filter id="grain324"><feTurbulence type="fractalNoise" baseFrequency="0.861" numOctaves="2" seed="324" /><feColorMatrix type="saturate" values="0" /><feComponentTransfer><feFuncA type="table" tableValues="0 0.09" /></feComponentTransfer></filter></defs>
  <rect x="138" y="138" width="2796" height="2796" rx="629" fill="url(#bg324)" filter="url(#shadow324)" />
  <rect x="138" y="138" width="2796" height="2796" rx="629" fill="url(#sun324)" />
  <g><circle cx="1345" cy="1598" r="100" fill="#FFFFFF" opacity="0.159" /><circle cx="463" cy="880" r="151" fill="#FFFFFF" opacity="0.200" /><circle cx="1388" cy="2415" r="42" fill="#FFFFFF" opacity="0.061" /><circle cx="2500" cy="718" r="53" fill="#FFFFFF" opacity="0.189" /><circle cx="1055" cy="1922" r="37" fill="#FFFFFF" opacity="0.184" /><circle cx="1138" cy="746" r="68" fill="#FFFFFF" opacity="0.117" /><circle cx="624" cy="2067" r="42" fill="#FFFFFF" opacity="0.203" /><circle cx="1552" cy="1319" r="152" fill="#FFFFFF" opacity="0.128" /><circle cx="2485" cy="1487" r="140" fill="#FFFFFF" opacity="0.132" /><circle cx="2100" cy="1274" r="41" fill="#FFFFFF" opacity="0.208" /><circle cx="1772" cy="2275" r="133" fill="#FFFFFF" opacity="0.132" /><circle cx="2529" cy="2072" r="52" fill="#FFFFFF" opacity="0.208" /><circle cx="1655" cy="718" r="125" fill="#FFFFFF" opacity="0.118" /><circle cx="1833" cy="708" r="158" fill="#FFFFFF" opacity="0.191" /><circle cx="1920" cy="346" r="131" fill="#FFFFFF" opacity="0.218" /><circle cx="2082" cy="2537" r="71" fill="#FFFFFF" opacity="0.209" /><circle cx="552" cy="1775" r="63" fill="#FFFFFF" opacity="0.131" /><circle cx="1904" cy="1309" r="52" fill="#FFFFFF" opacity="0.216" /><circle cx="1279" cy="485" r="90" fill="#FFFFFF" opacity="0.238" /><circle cx="605" cy="676" r="141" fill="#FFFFFF" opacity="0.143" /><circle cx="1439" cy="2115" r="147" fill="#FFFFFF" opacity="0.176" /><circle cx="1278" cy="521" r="136" fill="#FFFFFF" opacity="0.103" /><circle cx="2157" cy="2570" r="64" fill="#FFFFFF" opacity="0.061" /><circle cx="1211" cy="790" r="57" fill="#FFFFFF" opacity="0.217" /><circle cx="1165" cy="2422" r="79" fill="#FFFFFF" opacity="0.067" /><circle cx="2292" cy="1303" r="141" fill="#FFFFFF" opacity="0.213" /><circle cx="940" cy="496" r="116" fill="#FFFFFF" opacity="0.153" /><circle cx="1707" cy="2288" r="99" fill="#FFFFFF" opacity="0.081" /></g>
  <g><path d="M 379.5 625.5 L 2742.3 349.0 L 2742.3 788.1 L 379.5 1064.6 Z" fill="#FFFFFF" opacity="0.235" /><path d="M 277.0 852.2 L 2802.6 575.7 L 2802.6 1017.6 L 277.0 1294.1 Z" fill="#FFFFFF" opacity="0.200" /><path d="M 213.0 1121.4 L 2701.1 844.9 L 2701.1 1266.9 L 213.0 1543.4 Z" fill="#FFFFFF" opacity="0.106" /><path d="M 391.2 1440.4 L 2891.4 1163.9 L 2891.4 1619.0 L 391.2 1895.5 Z" fill="#FFFFFF" opacity="0.169" /><path d="M 235.0 1651.0 L 2843.1 1374.5 L 2843.1 1843.0 L 235.0 2119.5 Z" fill="#FFFFFF" opacity="0.240" /><path d="M 171.9 1906.4 L 2909.1 1630.0 L 2909.1 2056.8 L 171.9 2333.3 Z" fill="#FFFFFF" opacity="0.158" /><path d="M 322.0 2182.9 L 2809.0 1906.4 L 2809.0 2391.7 L 322.0 2668.1 Z" fill="#FFFFFF" opacity="0.087" /><path d="M 360.4 2442.1 L 2867.0 2165.7 L 2867.0 2640.2 L 360.4 2916.7 Z" fill="#FFFFFF" opacity="0.099" /></g>
  <g filter="url(#soft324)"><g transform="rotate(-13.00 1536.0 1536.0)"><path d="M-368.6 551.1 C -225.8 561.3, -25.8 547.2, 107.5 595.6 C 250.4 600.2, 450.4 534.2, 583.7 605.7 C 726.5 584.0, 926.5 523.8, 1059.8 582.7 C 1202.7 587.6, 1402.7 532.4, 1536.0 540.6 C 1678.8 537.6, 1878.8 561.4, 2012.2 504.8 C 2155.0 522.1, 2355.0 597.1, 2488.3 497.2 C 2631.2 516.2, 2831.2 609.9, 2964.5 522.3 C 3107.3 522.5, 3307.3 572.3, 3440.6 564.9" fill="none" stroke="url(#ribbon324)" stroke-width="58.4" stroke-linecap="round" stroke-opacity="0.120" /></g><g transform="rotate(-12.42 1536.0 1536.0)"><path d="M-368.6 702.5 C -241.7 737.6, -63.9 663.4, 54.6 764.7 C 181.6 771.1, 359.4 652.1, 477.9 742.5 C 604.8 730.7, 782.6 690.3, 901.1 696.1 C 1028.1 696.8, 1205.9 708.6, 1324.4 653.5 C 1451.3 649.7, 1629.1 747.8, 1747.6 640.7 C 1874.6 633.9, 2052.4 731.1, 2170.9 665.4 C 2297.9 671.6, 2475.6 721.6, 2594.1 712.6 C 2721.1 713.5, 2898.9 691.7, 3017.4 753.7 C 3144.4 749.7, 3322.1 685.5, 3440.6 763.8" fill="none" stroke="url(#ribbon324)" stroke-width="54.4" stroke-linecap="round" stroke-opacity="0.146" /></g><g transform="rotate(-11.84 1536.0 1536.0)"><path d="M-368.6 890.6 C -254.4 920.3, -94.4 870.2, 12.3 959.8 C 126.6 962.2, 286.6 853.1, 393.2 943.1 C 507.5 924.7, 667.5 868.8, 774.1 894.5 C 888.4 895.8, 1048.4 887.7, 1155.1 843.6 C 1269.4 855.9, 1429.3 925.5, 1536.0 821.2 C 1650.3 835.5, 1810.3 954.6, 1916.9 841.0 C 2031.2 847.8, 2191.2 937.7, 2297.9 890.8 C 2412.1 890.8, 2572.1 890.6, 2678.8 940.6 C 2793.1 923.0, 2953.1 856.6, 3059.7 960.0 C 3174.0 963.1, 3334.0 851.8, 3440.6 937.4" fill="none" stroke="url(#ribbon324)" stroke-width="50.4" stroke-linecap="round" stroke-opacity="0.172" /></g><g transform="rotate(-11.26 1536.0 1536.0)"><path d="M-368.6 1106.2 C -264.8 1066.6, -119.3 1125.7, -22.3 1032.3 C 81.5 1010.0, 227.0 1191.1, 324.0 1040.4 C 427.8 1019.1, 573.3 1156.6, 670.3 1088.4 C 774.1 1093.0, 919.6 1117.2, 1016.6 1147.2 C 1120.4 1157.4, 1265.9 1070.9, 1362.9 1181.1 C 1466.7 1172.4, 1612.2 1028.0, 1709.1 1169.5 C 1813.0 1192.4, 1958.5 1053.6, 2055.4 1119.5 C 2159.3 1123.7, 2304.8 1096.4, 2401.7 1061.5 C 2505.6 1047.2, 2651.1 1153.8, 2748.0 1030.5 C 2851.9 1051.9, 2997.4 1187.3, 3094.3 1045.4 C 3198.2 1067.4, 3343.7 1150.5, 3440.6 1097.2" fill="none" stroke="url(#ribbon324)" stroke-width="46.4" stroke-linecap="round" stroke-opacity="0.198" /></g><g transform="rotate(-10.68 1536.0 1536.0)"><path d="M-368.6 1310.3 C -273.4 1354.0, -140.1 1291.9, -51.2 1393.8 C 44.0 1391.6, 177.4 1279.1, 266.2 1370.0 C 361.5 1371.0, 494.8 1265.2, 583.7 1309.9 C 678.9 1310.0, 812.2 1310.5, 901.1 1250.1 C 996.4 1254.9, 1129.7 1340.0, 1218.6 1226.8 C 1313.8 1257.7, 1447.1 1344.5, 1536.0 1254.2 C 1631.2 1242.7, 1764.6 1351.9, 1853.4 1315.6 C 1948.7 1313.8, 2082.0 1305.5, 2170.9 1373.8 C 2266.1 1381.5, 2399.4 1255.7, 2488.3 1393.5 C 2583.6 1383.7, 2716.9 1244.6, 2805.8 1362.8 C 2901.0 1345.9, 3034.3 1273.8, 3123.2 1300.2 C 3218.4 1297.9, 3351.8 1316.3, 3440.6 1243.8" fill="none" stroke="url(#ribbon324)" stroke-width="42.4" stroke-linecap="round" stroke-opacity="0.224" /></g><g transform="rotate(-10.10 1536.0 1536.0)"><path d="M-368.6 1519.7 C -225.8 1578.6, -25.8 1476.6, 107.5 1533.9 C 250.4 1534.7, 450.4 1504.8, 583.7 1465.4 C 726.5 1483.2, 926.5 1550.7, 1059.8 1429.8 C 1202.7 1400.6, 1402.7 1600.8, 1536.0 1448.8 C 1678.8 1433.9, 1878.8 1559.0, 2012.2 1510.7 C 2155.0 1511.6, 2355.0 1525.9, 2488.3 1578.1 C 2631.2 1598.9, 2831.2 1486.4, 2964.5 1610.1 C 3107.3 1611.5, 3307.3 1418.6, 3440.6 1587.3" fill="none" stroke="url(#ribbon324)" stroke-width="38.4" stroke-linecap="round" stroke-opacity="0.250" /></g><g transform="rotate(-9.52 1536.0 1536.0)"><path d="M-368.6 1670.1 C -241.7 1590.1, -63.9 1759.3, 54.6 1607.9 C 181.6 1604.5, 359.4 1738.4, 477.9 1680.7 C 604.8 1681.5, 782.6 1658.8, 901.1 1747.2 C 1028.1 1749.6, 1205.9 1636.7, 1324.4 1766.9 C 1451.3 1783.3, 1629.1 1580.4, 1747.6 1727.9 C 1874.6 1744.6, 2052.4 1604.9, 2170.9 1653.9 C 2297.9 1659.5, 2475.6 1686.3, 2594.1 1589.7 C 2721.1 1598.0, 2898.9 1738.5, 3017.4 1574.3 C 3144.4 1554.1, 3322.1 1761.0, 3440.6 1617.1" fill="none" stroke="url(#ribbon324)" stroke-width="34.4" stroke-linecap="round" stroke-opacity="0.276" /></g><g transform="rotate(-8.94 1536.0 1536.0)"><path d="M-368.6 1831.8 C -254.4 1864.8, -94.4 1805.6, 12.3 1921.6 C 126.6 1953.3, 286.6 1736.6, 393.2 1933.0 C 507.5 1969.3, 667.5 1779.0, 774.1 1883.0 C 888.4 1868.1, 1048.4 1808.9, 1155.1 1801.9 C 1269.4 1806.6, 1429.3 1856.0, 1536.0 1738.9 C 1650.3 1728.8, 1810.3 1933.0, 1916.9 1732.3 C 2031.2 1709.4, 2191.2 1919.5, 2297.9 1786.0 C 2412.1 1788.6, 2572.1 1850.8, 2678.8 1867.4 C 2793.1 1875.8, 2953.1 1789.7, 3059.7 1927.3 C 3174.0 1961.3, 3334.0 1719.9, 3440.6 1929.2" fill="none" stroke="url(#ribbon324)" stroke-width="30.4" stroke-linecap="round" stroke-opacity="0.302" /></g><g transform="rotate(-8.36 1536.0 1536.0)"><path d="M-368.6 2036.0 C -264.8 2083.5, -119.3 1992.6, -22.3 2029.0 C 81.5 2029.1, 227.0 2040.0, 324.0 1951.1 C 427.8 1949.7, 573.3 2101.3, 670.3 1924.7 C 774.1 1897.2, 919.6 2146.5, 1016.6 1965.8 C 1120.4 1969.4, 1265.9 2079.8, 1362.9 2049.6 C 1466.7 2044.8, 1612.2 2025.8, 1709.1 2125.1 C 1813.0 2130.0, 1958.5 2001.4, 2055.4 2146.6 C 2159.3 2170.3, 2304.8 1972.6, 2401.7 2101.0 C 2505.6 2118.3, 2651.1 1958.4, 2748.0 2016.1 C 2851.9 2022.9, 2997.4 2056.7, 3094.3 1943.2 C 3198.2 1939.6, 3343.7 2105.2, 3440.6 1926.6" fill="none" stroke="url(#ribbon324)" stroke-width="26.4" stroke-linecap="round" stroke-opacity="0.328" /></g><g transform="rotate(-7.78 1536.0 1536.0)"><path d="M-368.6 2301.2 C -273.4 2244.4, -140.1 2349.8, -51.2 2190.3 C 44.0 2156.0, 177.4 2385.4, 266.2 2193.3 C 361.5 2221.2, 494.8 2415.5, 583.7 2261.7 C 678.9 2253.6, 812.2 2336.4, 901.1 2354.1 C 996.4 2336.3, 1129.7 2272.0, 1218.6 2414.5 C 1313.8 2416.8, 1447.1 2218.1, 1536.0 2406.1 C 1631.2 2427.4, 1764.6 2192.2, 1853.4 2334.2 C 1948.7 2322.9, 2082.0 2284.5, 2170.9 2242.3 C 2266.1 2264.3, 2399.4 2349.3, 2488.3 2186.1 C 2583.6 2207.1, 2716.9 2363.7, 2805.8 2199.8 C 2901.0 2175.9, 3034.3 2413.9, 3123.2 2275.0 C 3218.4 2284.0, 3351.8 2311.1, 3440.6 2366.1" fill="none" stroke="url(#ribbon324)" stroke-width="22.4" stroke-linecap="round" stroke-opacity="0.354" /></g><g transform="rotate(-7.20 1536.0 1536.0)"><path d="M-368.6 2513.8 C -225.8 2429.0, -25.8 2624.4, 107.5 2410.9 C 250.4 2371.2, 450.4 2604.9, 583.7 2494.2 C 726.5 2501.3, 926.5 2524.3, 1059.8 2589.4 C 1202.7 2562.4, 1402.7 2446.0, 1536.0 2638.7 C 1678.8 2683.0, 1878.8 2377.8, 2012.2 2612.3 C 2155.0 2606.0, 2355.0 2472.7, 2488.3 2526.1 C 2631.2 2522.7, 2831.2 2501.1, 2964.5 2432.4 C 3107.3 2427.9, 3307.3 2567.8, 3440.6 2388.1" fill="none" stroke="url(#ribbon324)" stroke-width="18.4" stroke-linecap="round" stroke-opacity="0.380" /></g><g transform="rotate(-6.62 1536.0 1536.0)"><path d="M-368.6 2675.6 C -241.7 2772.9, -63.9 2601.8, 54.6 2733.6 C 181.6 2716.1, 359.4 2658.0, 477.9 2630.2 C 604.8 2638.3, 782.6 2699.1, 901.1 2554.3 C 1028.1 2588.0, 1205.9 2797.9, 1324.4 2552.0 C 1451.3 2567.7, 1629.1 2780.7, 1747.6 2624.7 C 1874.6 2612.8, 2052.4 2700.1, 2170.9 2728.3 C 2297.9 2718.2, 2475.6 2658.0, 2594.1 2800.0 C 2721.1 2812.7, 2898.9 2581.5, 3017.4 2796.2 C 3144.4 2831.7, 3322.1 2595.6, 3440.6 2719.3" fill="none" stroke="url(#ribbon324)" stroke-width="14.4" stroke-linecap="round" stroke-opacity="0.406" /></g></g>
  <g><ellipse cx="1536.0" cy="1551.9" rx="728.6" ry="605.7" fill="url(#extrude324)" opacity="0.220" /><ellipse cx="1536.0" cy="1567.7" rx="736.0" ry="610.9" fill="url(#extrude324)" opacity="0.205" /><ellipse cx="1536.0" cy="1583.6" rx="743.4" ry="616.1" fill="url(#extrude324)" opacity="0.190" /><ellipse cx="1536.0" cy="1599.5" rx="750.9" ry="621.3" fill="url(#extrude324)" opacity="0.175" /><ellipse cx="1536.0" cy="1615.4" rx="758.3" ry="626.5" fill="url(#extrude324)" opacity="0.160" /><ellipse cx="1536.0" cy="1631.2" rx="765.7" ry="631.7" fill="url(#extrude324)" opacity="0.145" /><ellipse cx="1536.0" cy="1647.1" rx="773.2" ry="636.9" fill="url(#extrude324)" opacity="0.130" /><ellipse cx="1536.0" cy="1663.0" rx="780.6" ry="642.1" fill="url(#extrude324)" opacity="0.115" /><ellipse cx="1536.0" cy="1678.8" rx="788.0" ry="647.4" fill="url(#extrude324)" opacity="0.100" /><ellipse cx="1536.0" cy="1694.7" rx="795.5" ry="652.6" fill="url(#extrude324)" opacity="0.085" /><ellipse cx="1536.0" cy="1710.6" rx="802.9" ry="657.8" fill="url(#extrude324)" opacity="0.070" /><ellipse cx="1536.0" cy="1726.5" rx="810.3" ry="663.0" fill="url(#extrude324)" opacity="0.055" /></g>
  <ellipse cx="1536.0" cy="1726.5" rx="773.2" ry="214.9" fill="#0B1D2D" opacity="0.24" />
  <ellipse cx="1536.0" cy="1536.0" rx="743.4" ry="651.3" fill="url(#orb324)" stroke="#FFFFFF" stroke-opacity="0.42" stroke-width="7" />
  <ellipse cx="1431.9" cy="1392.7" rx="505.5" ry="299.6" fill="#FFFFFF" opacity="0.25" />
  <path d="M 199.4 399.4 C 1013.8 -30.7, 2058.2 768.0, 2872.6 215.0 L 2872.6 983.0 C 2089.0 1228.8, 1013.8 307.2, 199.4 1167.4 Z" fill="url(#glass324)" />
  <rect x="270" y="270" width="2532" height="2532" rx="430" fill="none" stroke="#FFFFFF" stroke-opacity="0.30" stroke-width="5" />
  <rect x="288.4" y="288.4" width="2495.1" height="2495.1" rx="399" fill="none" stroke="#8A5CFF" stroke-opacity="0.35" stroke-width="3" />
  <g filter="url(#soft324)"><rect x="1417" y="786" width="26" height="2" fill="#FFFFFF" opacity="0.623" /><rect x="1429" y="774" width="2" height="26" fill="#FFFFFF" opacity="0.623" /><rect x="1524" y="1227" width="50" height="2" fill="#FFFFFF" opacity="0.687" /><rect x="1548" y="1203" width="2" height="50" fill="#FFFFFF" opacity="0.687" /><rect x="2667" y="992" width="80" height="2" fill="#FFFFFF" opacity="0.301" /><rect x="2706" y="953" width="2" height="80" fill="#FFFFFF" opacity="0.301" /><rect x="1450" y="484" width="32" height="2" fill="#FFFFFF" opacity="0.749" /><rect x="1465" y="469" width="2" height="32" fill="#FFFFFF" opacity="0.749" /><rect x="2140" y="1829" width="76" height="2" fill="#FFFFFF" opacity="0.407" /><rect x="2177" y="1792" width="2" height="76" fill="#FFFFFF" opacity="0.407" /><rect x="2069" y="1676" width="56" height="2" fill="#FFFFFF" opacity="0.362" /><rect x="2096" y="1649" width="2" height="56" fill="#FFFFFF" opacity="0.362" /><rect x="1733" y="1293" width="44" height="2" fill="#FFFFFF" opacity="0.525" /><rect x="1754" y="1272" width="2" height="44" fill="#FFFFFF" opacity="0.525" /><rect x="2362" y="628" width="36" height="2" fill="#FFFFFF" opacity="0.756" /><rect x="2379" y="611" width="2" height="36" fill="#FFFFFF" opacity="0.756" /><rect x="591" y="1566" width="72" height="2" fill="#FFFFFF" opacity="0.749" /><rect x="626" y="1531" width="2" height="72" fill="#FFFFFF" opacity="0.749" /><rect x="1582" y="895" width="60" height="2" fill="#FFFFFF" opacity="0.824" /><rect x="1611" y="866" width="2" height="60" fill="#FFFFFF" opacity="0.824" /><rect x="1281" y="1982" width="48" height="2" fill="#FFFFFF" opacity="0.394" /><rect x="1304" y="1959" width="2" height="48" fill="#FFFFFF" opacity="0.394" /><rect x="815" y="1767" width="72" height="2" fill="#FFFFFF" opacity="0.385" /><rect x="850" y="1732" width="2" height="72" fill="#FFFFFF" opacity="0.385" /><rect x="2569" y="953" width="70" height="2" fill="#FFFFFF" opacity="0.595" /><rect x="2603" y="919" width="2" height="70" fill="#FFFFFF" opacity="0.595" /><rect x="1309" y="281" width="36" height="2" fill="#FFFFFF" opacity="0.742" /><rect x="1326" y="264" width="2" height="36" fill="#FFFFFF" opacity="0.742" /><rect x="2192" y="1842" width="58" height="2" fill="#FFFFFF" opacity="0.333" /><rect x="2220" y="1814" width="2" height="58" fill="#FFFFFF" opacity="0.333" /><rect x="2365" y="2204" width="32" height="2" fill="#FFFFFF" opacity="0.306" /><rect x="2380" y="2189" width="2" height="32" fill="#FFFFFF" opacity="0.306" /><rect x="1336" y="2619" width="72" height="2" fill="#FFFFFF" opacity="0.756" /><rect x="1371" y="2584" width="2" height="72" fill="#FFFFFF" opacity="0.756" /><rect x="1414" y="1690" width="70" height="2" fill="#FFFFFF" opacity="0.729" /><rect x="1448" y="1656" width="2" height="70" fill="#FFFFFF" opacity="0.729" /><rect x="1373" y="2039" width="26" height="2" fill="#FFFFFF" opacity="0.724" /><rect x="1385" y="2027" width="2" height="26" fill="#FFFFFF" opacity="0.724" /><rect x="1102" y="2661" width="58" height="2" fill="#FFFFFF" opacity="0.397" /><rect x="1130" y="2633" width="2" height="58" fill="#FFFFFF" opacity="0.397" /><rect x="2330" y="2212" width="46" height="2" fill="#FFFFFF" opacity="0.644" /><rect x="2352" y="2190" width="2" height="46" fill="#FFFFFF" opacity="0.644" /><rect x="640" y="1291" width="76" height="2" fill="#FFFFFF" opacity="0.626" /><rect x="677" y="1254" width="2" height="76" fill="#FFFFFF" opacity="0.626" /><rect x="1284" y="2501" width="34" height="2" fill="#FFFFFF" opacity="0.840" /><rect x="1300" y="2485" width="2" height="34" fill="#FFFFFF" opacity="0.840" /><rect x="2080" y="2664" width="70" height="2" fill="#FFFFFF" opacity="0.331" /><rect x="2114" y="2630" width="2" height="70" fill="#FFFFFF" opacity="0.331" /><rect x="2459" y="2406" width="70" height="2" fill="#FFFFFF" opacity="0.504" /><rect x="2493" y="2372" width="2" height="70" fill="#FFFFFF" opacity="0.504" /><rect x="752" y="1059" width="54" height="2" fill="#FFFFFF" opacity="0.634" /><rect x="778" y="1033" width="2" height="54" fill="#FFFFFF" opacity="0.634" /></g>
  <g opacity="0.52"><circle cx="1572" cy="1582" r="307" fill="none" stroke="#0C2030" stroke-width="90" /><line x1="1791" y1="1801" x2="2340" y2="2350" stroke="#0C2030" stroke-width="90" stroke-linecap="round" /></g>
  <g filter="url(#soft324)"><circle cx="1536" cy="1536" r="307" fill="none" stroke="url(#symbol324)" stroke-width="90" /><line x1="1755" y1="1755" x2="2304" y2="2304" stroke="url(#symbol324)" stroke-width="90" stroke-linecap="round" /></g>
  <rect x="138" y="138" width="2796" height="2796" rx="629" fill="#FFFFFF" filter="url(#grain324)" opacity="0.18" />
</svg>
