<svg xmlns="http://www.w3.org/2000/svg" width="3072" height="3072" viewBox="0 0 3072 3072">
  <title>QuartzOS App Icon 065 - bright_player_065</title>
  <defs><linearGradient id="bg64" x1="0%" y1="0%" x2="100%" y2="100%"><stop offset="0%" stop-color="#3B82FF" /><stop offset="26%" stop-color="#FF6AB3" /><stop offset="56%" stop-color="#FFD84D" /><stop offset="78%" stop-color="#5AA47F" /><stop offset="100%" stop-color="#1A2B22" /></linearGradient><radialGradient id="sun64" cx="30%" cy="32%" r="88%"><stop offset="0%" stop-color="#FFFFFF" stop-opacity="0.62" /><stop offset="30%" stop-color="#53E3A6" stop-opacity="0.35" /><stop offset="100%" stop-color="#53E3A6" stop-opacity="0" /></radialGradient><linearGradient id="glass64" x1="0%" y1="0%" x2="0%" y2="100%"><stop offset="0%" stop-color="#FFFFFF" stop-opacity="0.70" /><stop offset="46%" stop-color="#FFFFFF" stop-opacity="0.26" /><stop offset="100%" stop-color="#FFFFFF" stop-opacity="0.00" /></linearGradient><linearGradient id="ribbon64" x1="0%" y1="0%" x2="100%" y2="0%"><stop offset="0%" stop-color="#3B82FF" stop-opacity="0.18" /><stop offset="34%" stop-color="#FF6AB3" stop-opacity="0.72" /><stop offset="66%" stop-color="#FFD84D" stop-opacity="0.72" /><stop offset="100%" stop-color="#53E3A6" stop-opacity="0.18" /></linearGradient><radialGradient id="orb64" cx="34%" cy="27%" r="74%"><stop offset="0%" stop-color="#FFFFFF" stop-opacity="0.84" /><stop offset="30%" stop-color="#3B82FF" stop-opacity="0.52" /><stop offset="68%" stop-color="#FF6AB3" stop-opacity="0.42" /><stop offset="100%" stop-color="#FFD84D" stop-opacity="0.20" /></radialGradient><linearGradient id="extrude64" x1="0%" y1="0%" x2="0%" y2="100%"><stop offset="0%" stop-color="#15283C" stop-opacity="0.45" /><stop offset="100%" stop-color="#08131D" stop-opacity="0.06" /></linearGradient><linearGradient id="symbol64" x1="0%" y1="0%" x2="100%" y2="100%"><stop offset="0%" stop-color="#FFFFFF" /><stop offset="100%" stop-color="#53E3A6" /></linearGradient><filter id="shadow64" x="-40%" y="-40%" width="180%" height="180%"><feDropShadow dx="0" dy="49" stdDeviation="86" flood-color="#06111A" flood-opacity="0.54" /></filter><filter id="soft64" x="-40%" y="-40%" width="180%" height="180%"><feDropShadow dx="0" dy="0" stdDeviation="14" flood-color="#3B82FF" flood-opacity="0.45" /></filter><filter id="grain64"><feTurbulence type="fractalNoise" baseFrequency="0.652" numOctaves="2" seed="64" /><feColorMatrix type="saturate" values="0" /><feComponentTransfer><feFuncA type="table" tableValues="0 0.09" /></feComponentTransfer></filter></defs>
  <rect x="138" y="138" width="2796" height="2796" rx="629" fill="url(#bg64)" filter="url(#shadow64)" />
  <rect x="138" y="138" width="2796" height="2796" rx="629" fill="url(#sun64)" />
  <g><circle cx="2111" cy="1477" r="152" fill="#FFFFFF" opacity="0.091" /><circle cx="2495" cy="1350" r="87" fill="#FFFFFF" opacity="0.081" /><circle cx="390" cy="424" r="148" fill="#FFFFFF" opacity="0.158" /><circle cx="1230" cy="2143" r="155" fill="#FFFFFF" opacity="0.233" /><circle cx="2150" cy="2291" r="139" fill="#FFFFFF" opacity="0.165" /><circle cx="1303" cy="2146" r="110" fill="#FFFFFF" opacity="0.123" /><circle cx="1332" cy="2266" r="111" fill="#FFFFFF" opacity="0.217" /><circle cx="1764" cy="732" r="129" fill="#FFFFFF" opacity="0.153" /><circle cx="1394" cy="1143" r="158" fill="#FFFFFF" opacity="0.205" /><circle cx="1919" cy="2689" r="64" fill="#FFFFFF" opacity="0.210" /><circle cx="2368" cy="336" r="106" fill="#FFFFFF" opacity="0.140" /><circle cx="2461" cy="2222" r="80" fill="#FFFFFF" opacity="0.111" /><circle cx="899" cy="2421" r="122" fill="#FFFFFF" opacity="0.077" /><circle cx="919" cy="1242" r="68" fill="#FFFFFF" opacity="0.189" /><circle cx="935" cy="452" r="105" fill="#FFFFFF" opacity="0.199" /><circle cx="2423" cy="2057" r="56" fill="#FFFFFF" opacity="0.232" /><circle cx="2395" cy="1574" r="68" fill="#FFFFFF" opacity="0.136" /><circle cx="1431" cy="801" r="133" fill="#FFFFFF" opacity="0.183" /><circle cx="470" cy="1064" r="153" fill="#FFFFFF" opacity="0.238" /><circle cx="2127" cy="786" r="130" fill="#FFFFFF" opacity="0.090" /><circle cx="2600" cy="2641" r="47" fill="#FFFFFF" opacity="0.112" /><circle cx="439" cy="2647" r="55" fill="#FFFFFF" opacity="0.199" /><circle cx="2388" cy="1199" r="120" fill="#FFFFFF" opacity="0.181" /><circle cx="2395" cy="2411" r="159" fill="#FFFFFF" opacity="0.117" /><circle cx="1535" cy="2219" r="122" fill="#FFFFFF" opacity="0.158" /><circle cx="1766" cy="2309" r="154" fill="#FFFFFF" opacity="0.096" /><circle cx="393" cy="1204" r="84" fill="#FFFFFF" opacity="0.175" /><circle cx="1044" cy="763" r="37" fill="#FFFFFF" opacity="0.128" /></g>
  <g><path d="M 341.0 613.2 L 2885.1 336.7 L 2885.1 768.7 L 341.0 1045.1 Z" fill="#FFFFFF" opacity="0.127" /><path d="M 187.4 905.8 L 2716.4 629.3 L 2716.4 1050.4 L 187.4 1326.9 Z" fill="#FFFFFF" opacity="0.133" /><path d="M 335.0 1130.8 L 2766.6 854.3 L 2766.6 1322.4 L 335.0 1598.9 Z" fill="#FFFFFF" opacity="0.132" /><path d="M 256.3 1418.3 L 2741.7 1141.8 L 2741.7 1600.6 L 256.3 1877.1 Z" fill="#FFFFFF" opacity="0.105" /><path d="M 202.4 1640.3 L 2711.6 1363.8 L 2711.6 1831.3 L 202.4 2107.7 Z" fill="#FFFFFF" opacity="0.134" /><path d="M 388.1 1913.6 L 2875.6 1637.1 L 2875.6 2074.4 L 388.1 2350.9 Z" fill="#FFFFFF" opacity="0.091" /><path d="M 370.3 2219.4 L 2679.1 1942.9 L 2679.1 2387.7 L 370.3 2664.2 Z" fill="#FFFFFF" opacity="0.089" /><path d="M 250.8 2416.2 L 2882.9 2139.7 L 2882.9 2612.9 L 250.8 2889.4 Z" fill="#FFFFFF" opacity="0.112" /></g>
  <g filter="url(#soft64)"><g transform="rotate(-10.59 1536.0 1536.0)"><path d="M-368.6 503.4 C -225.8 515.1, -25.8 491.1, 107.5 552.4 C 250.4 535.7, 450.4 477.9, 583.7 555.8 C 726.5 556.3, 926.5 466.4, 1059.8 527.5 C 1202.7 524.1, 1402.7 492.0, 1536.0 484.4 C 1678.8 481.5, 1878.8 520.1, 2012.2 452.9 C 2155.0 461.2, 2355.0 528.2, 2488.3 452.0 C 2631.2 435.5, 2831.2 553.4, 2964.5 482.2 C 3107.3 481.3, 3307.3 520.7, 3440.6 525.3" fill="none" stroke="url(#ribbon64)" stroke-width="58.4" stroke-linecap="round" stroke-opacity="0.120" /></g><g transform="rotate(-10.01 1536.0 1536.0)"><path d="M-368.6 756.4 C -241.7 708.2, -63.9 793.9, 54.6 712.0 C 181.6 696.6, 359.4 782.2, 477.9 756.9 C 604.8 757.1, 782.6 756.2, 901.1 801.5 C 1028.1 795.0, 1205.9 714.1, 1324.4 818.7 C 1451.3 815.6, 1629.1 701.1, 1747.6 798.1 C 1874.6 813.6, 2052.4 713.9, 2170.9 752.2 C 2297.9 751.7, 2475.6 759.5, 2594.1 708.9 C 2721.1 689.9, 2898.9 811.7, 3017.4 694.3 C 3144.4 700.3, 3322.1 822.5, 3440.6 717.4" fill="none" stroke="url(#ribbon64)" stroke-width="54.4" stroke-linecap="round" stroke-opacity="0.146" /></g><g transform="rotate(-9.43 1536.0 1536.0)"><path d="M-368.6 874.2 C -254.4 827.3, -94.4 902.5, 12.3 888.5 C 126.6 883.3, 286.6 861.7, 393.2 932.9 C 507.5 935.0, 667.5 823.6, 774.1 941.7 C 888.4 951.4, 1048.4 847.5, 1155.1 909.5 C 1269.4 913.7, 1429.3 837.9, 1536.0 855.9 C 1650.3 862.5, 1810.3 884.9, 1916.9 813.4 C 2031.2 833.7, 2191.2 899.5, 2297.9 807.8 C 2412.1 789.6, 2572.1 947.3, 2678.8 842.4 C 2793.1 846.8, 2953.1 900.9, 3059.7 896.3 C 3174.0 902.6, 3334.0 860.9, 3440.6 936.8" fill="none" stroke="url(#ribbon64)" stroke-width="50.4" stroke-linecap="round" stroke-opacity="0.172" /></g><g transform="rotate(-8.85 1536.0 1536.0)"><path d="M-368.6 1126.2 C -264.8 1138.1, -119.3 1112.9, -22.3 1083.5 C 81.5 1090.1, 227.0 1161.0, 324.0 1050.9 C 427.8 1064.7, 573.3 1190.7, 670.3 1064.0 C 774.1 1049.7, 919.6 1159.7, 1016.6 1114.8 C 1120.4 1114.2, 1265.9 1138.2, 1362.9 1172.5 C 1466.7 1178.2, 1612.2 1096.1, 1709.1 1202.1 C 1813.0 1205.5, 1958.5 1094.1, 2055.4 1185.6 C 2159.3 1164.2, 2304.8 1092.4, 2401.7 1133.1 C 2505.6 1132.1, 2651.1 1121.5, 2748.0 1076.4 C 2851.9 1078.9, 2997.4 1143.9, 3094.3 1049.8 C 3198.2 1036.6, 3343.7 1208.9, 3440.6 1069.6" fill="none" stroke="url(#ribbon64)" stroke-width="46.4" stroke-linecap="round" stroke-opacity="0.198" /></g><g transform="rotate(-8.27 1536.0 1536.0)"><path d="M-368.6 1260.5 C -273.4 1317.7, -140.1 1183.9, -51.2 1340.2 C 44.0 1336.2, 177.4 1204.0, 266.2 1298.2 C 361.5 1302.2, 494.8 1236.6, 583.7 1233.3 C 678.9 1239.7, 812.2 1270.6, 901.1 1184.8 C 996.4 1194.6, 1129.7 1311.1, 1218.6 1182.3 C 1313.8 1200.6, 1447.1 1338.3, 1536.0 1227.1 C 1631.2 1214.2, 1764.6 1296.2, 1853.4 1292.2 C 1948.7 1295.4, 2082.0 1233.0, 2170.9 1338.0 C 2266.1 1339.2, 2399.4 1172.0, 2488.3 1336.8 C 2583.6 1331.0, 2716.9 1224.4, 2805.8 1289.2 C 2901.0 1278.1, 3034.3 1228.1, 3123.2 1224.2 C 3218.4 1225.3, 3351.8 1293.7, 3440.6 1181.2" fill="none" stroke="url(#ribbon64)" stroke-width="42.4" stroke-linecap="round" stroke-opacity="0.224" /></g><g transform="rotate(-7.69 1536.0 1536.0)"><path d="M-368.6 1533.6 C -225.8 1450.7, -25.8 1596.9, 107.5 1497.7 C 250.4 1510.3, 450.4 1567.1, 583.7 1568.2 C 726.5 1559.9, 926.5 1512.1, 1059.8 1617.8 C 1202.7 1642.8, 1402.7 1442.6, 1536.0 1616.2 C 1678.8 1623.6, 1878.8 1448.0, 2012.2 1564.5 C 2155.0 1575.1, 2355.0 1502.6, 2488.3 1494.1 C 2631.2 1504.4, 2831.2 1579.3, 2964.5 1447.5 C 3107.3 1443.5, 3307.3 1612.5, 3440.6 1453.2" fill="none" stroke="url(#ribbon64)" stroke-width="38.4" stroke-linecap="round" stroke-opacity="0.250" /></g><g transform="rotate(-7.11 1536.0 1536.0)"><path d="M-368.6 1630.7 C -241.7 1672.0, -63.9 1588.7, 54.6 1618.8 C 181.6 1620.8, 359.4 1635.2, 477.9 1552.9 C 604.8 1571.1, 782.6 1688.3, 901.1 1534.1 C 1028.1 1514.3, 1205.9 1697.6, 1324.4 1574.0 C 1451.3 1566.2, 1629.1 1680.0, 1747.6 1648.3 C 1874.6 1641.6, 2052.4 1613.5, 2170.9 1711.9 C 2297.9 1683.4, 2475.6 1563.9, 2594.1 1726.3 C 2721.1 1699.0, 2898.9 1599.1, 3017.4 1682.7 C 3144.4 1672.1, 3322.1 1591.1, 3440.6 1607.6" fill="none" stroke="url(#ribbon64)" stroke-width="34.4" stroke-linecap="round" stroke-opacity="0.276" /></g><g transform="rotate(-6.53 1536.0 1536.0)"><path d="M-368.6 1907.7 C -254.4 1838.5, -94.4 1944.5, 12.3 1805.0 C 126.6 1804.8, 286.6 1949.1, 393.2 1821.2 C 507.5 1823.6, 667.5 1965.3, 774.1 1889.8 C 888.4 1891.7, 1048.4 1914.0, 1155.1 1969.3 C 1269.4 1979.6, 1429.3 1887.3, 1536.0 2011.4 C 1650.3 2006.8, 1810.3 1831.1, 1916.9 1990.6 C 2031.2 1989.8, 2191.2 1848.1, 2297.9 1919.5 C 2412.1 1917.2, 2572.1 1895.7, 2678.8 1841.2 C 2793.1 1815.7, 2953.1 1955.0, 3059.7 1803.3 C 3174.0 1780.2, 3334.0 2026.5, 3440.6 1828.7" fill="none" stroke="url(#ribbon64)" stroke-width="30.4" stroke-linecap="round" stroke-opacity="0.302" /></g><g transform="rotate(-5.95 1536.0 1536.0)"><path d="M-368.6 2037.3 C -264.8 1937.1, -119.3 2152.9, -22.3 2009.2 C 81.5 2011.6, 227.0 2049.7, 324.0 2095.3 C 427.8 2102.7, 573.3 2001.0, 670.3 2146.3 C 774.1 2138.2, 919.6 1967.3, 1016.6 2131.1 C 1120.4 2140.6, 1265.9 1941.5, 1362.9 2059.0 C 1466.7 2052.9, 1612.2 2022.5, 1709.1 1973.7 C 1813.0 1994.4, 1958.5 2058.8, 2055.4 1927.0 C 2159.3 1933.9, 2304.8 2070.9, 2401.7 1947.1 C 2505.6 1972.9, 2651.1 2136.3, 2748.0 2022.0 C 2851.9 2023.7, 2997.4 2044.6, 3094.3 2106.1 C 3198.2 2117.4, 3343.7 1962.3, 3440.6 2148.4" fill="none" stroke="url(#ribbon64)" stroke-width="26.4" stroke-linecap="round" stroke-opacity="0.328" /></g><g transform="rotate(-5.37 1536.0 1536.0)"><path d="M-368.6 2206.1 C -273.4 2207.0, -140.1 2204.6, -51.2 2121.7 C 44.0 2129.3, 177.4 2264.7, 266.2 2087.3 C 361.5 2053.1, 494.8 2322.0, 583.7 2124.9 C 678.9 2102.9, 812.2 2300.4, 901.1 2211.8 C 996.4 2211.3, 1129.7 2202.5, 1218.6 2295.2 C 1313.8 2260.7, 1447.1 2171.5, 1536.0 2324.7 C 1631.2 2282.9, 1764.6 2071.2, 1853.4 2282.2 C 1948.7 2289.6, 2082.0 2130.1, 2170.9 2193.6 C 2266.1 2191.8, 2399.4 2220.3, 2488.3 2112.6 C 2583.6 2121.6, 2716.9 2287.1, 2805.8 2088.3 C 2901.0 2070.2, 3034.3 2300.4, 3123.2 2135.5 C 3218.4 2139.6, 3351.8 2240.4, 3440.6 2225.6" fill="none" stroke="url(#ribbon64)" stroke-width="22.4" stroke-linecap="round" stroke-opacity="0.354" /></g><g transform="rotate(-4.79 1536.0 1536.0)"><path d="M-368.6 2448.0 C -225.8 2498.1, -25.8 2433.2, 107.5 2391.5 C 250.4 2411.5, 450.4 2472.6, 583.7 2327.9 C 726.5 2326.1, 926.5 2532.2, 1059.8 2337.1 C 1202.7 2343.1, 1402.7 2556.3, 1536.0 2413.6 C 1678.8 2422.2, 1878.8 2478.7, 2012.2 2511.0 C 2155.0 2522.4, 2355.0 2416.0, 2488.3 2570.1 C 2631.2 2531.7, 2831.2 2374.8, 2964.5 2555.2 C 3107.3 2560.9, 3307.3 2371.9, 3440.6 2475.2" fill="none" stroke="url(#ribbon64)" stroke-width="18.4" stroke-linecap="round" stroke-opacity="0.380" /></g><g transform="rotate(-4.21 1536.0 1536.0)"><path d="M-368.6 2687.1 C -241.7 2753.8, -63.9 2586.1, 54.6 2819.9 C 181.6 2864.6, 359.4 2579.1, 477.9 2785.5 C 604.8 2810.8, 782.6 2576.3, 901.1 2691.5 C 1028.1 2690.0, 1205.9 2684.6, 1324.4 2594.8 C 1451.3 2562.6, 1629.1 2787.7, 1747.6 2554.1 C 1874.6 2546.9, 2052.4 2790.8, 2170.9 2594.1 C 2297.9 2578.2, 2475.6 2736.5, 2594.1 2690.5 C 2721.1 2691.6, 2898.9 2684.1, 3017.4 2784.9 C 3144.4 2787.2, 3322.1 2600.1, 3440.6 2819.9" fill="none" stroke="url(#ribbon64)" stroke-width="14.4" stroke-linecap="round" stroke-opacity="0.406" /></g></g>
  <g><ellipse cx="1536.0" cy="1551.9" rx="728.6" ry="605.7" fill="url(#extrude64)" opacity="0.220" /><ellipse cx="1536.0" cy="1567.7" rx="736.0" ry="610.9" fill="url(#extrude64)" opacity="0.205" /><ellipse cx="1536.0" cy="1583.6" rx="743.4" ry="616.1" fill="url(#extrude64)" opacity="0.190" /><ellipse cx="1536.0" cy="1599.5" rx="750.9" ry="621.3" fill="url(#extrude64)" opacity="0.175" /><ellipse cx="1536.0" cy="1615.4" rx="758.3" ry="626.5" fill="url(#extrude64)" opacity="0.160" /><ellipse cx="1536.0" cy="1631.2" rx="765.7" ry="631.7" fill="url(#extrude64)" opacity="0.145" /><ellipse cx="1536.0" cy="1647.1" rx="773.2" ry="636.9" fill="url(#extrude64)" opacity="0.130" /><ellipse cx="1536.0" cy="1663.0" rx="780.6" ry="642.1" fill="url(#extrude64)" opacity="0.115" /><ellipse cx="1536.0" cy="1678.8" rx="788.0" ry="647.4" fill="url(#extrude64)" opacity="0.100" /><ellipse cx="1536.0" cy="1694.7" rx="795.5" ry="652.6" fill="url(#extrude64)" opacity="0.085" /><ellipse cx="1536.0" cy="1710.6" rx="802.9" ry="657.8" fill="url(#extrude64)" opacity="0.070" /><ellipse cx="1536.0" cy="1726.5" rx="810.3" ry="663.0" fill="url(#extrude64)" opacity="0.055" /></g>
  <ellipse cx="1536.0" cy="1726.5" rx="773.2" ry="214.9" fill="#0B1D2D" opacity="0.24" />
  <ellipse cx="1536.0" cy="1536.0" rx="743.4" ry="651.3" fill="url(#orb64)" stroke="#FFFFFF" stroke-opacity="0.42" stroke-width="7" />
  <ellipse cx="1431.9" cy="1392.7" rx="505.5" ry="299.6" fill="#FFFFFF" opacity="0.25" />
  <path d="M 199.4 399.4 C 1013.8 -30.7, 2058.2 768.0, 2872.6 215.0 L 2872.6 983.0 C 2089.0 1228.8, 1013.8 307.2, 199.4 1167.4 Z" fill="url(#glass64)" />
  <rect x="270" y="270" width="2532" height="2532" rx="430" fill="none" stroke="#FFFFFF" stroke-opacity="0.30" stroke-width="5" />
  <rect x="288.4" y="288.4" width="2495.1" height="2495.1" rx="399" fill="none" stroke="#3B82FF" stroke-opacity="0.35" stroke-width="3" />
  <g filter="url(#soft64)"><rect x="2072" y="1802" width="84" height="2" fill="#FFFFFF" opacity="0.522" /><rect x="2113" y="1761" width="2" height="84" fill="#FFFFFF" opacity="0.522" /><rect x="1112" y="244" width="50" height="2" fill="#FFFFFF" opacity="0.840" /><rect x="1136" y="220" width="2" height="50" fill="#FFFFFF" opacity="0.840" /><rect x="518" y="702" width="60" height="2" fill="#FFFFFF" opacity="0.428" /><rect x="547" y="673" width="2" height="60" fill="#FFFFFF" opacity="0.428" /><rect x="1017" y="364" width="74" height="2" fill="#FFFFFF" opacity="0.543" /><rect x="1053" y="328" width="2" height="74" fill="#FFFFFF" opacity="0.543" /><rect x="1028" y="284" width="28" height="2" fill="#FFFFFF" opacity="0.713" /><rect x="1041" y="271" width="2" height="28" fill="#FFFFFF" opacity="0.713" /><rect x="395" y="1262" width="72" height="2" fill="#FFFFFF" opacity="0.572" /><rect x="430" y="1227" width="2" height="72" fill="#FFFFFF" opacity="0.572" /><rect x="1243" y="1253" width="30" height="2" fill="#FFFFFF" opacity="0.495" /><rect x="1257" y="1239" width="2" height="30" fill="#FFFFFF" opacity="0.495" /><rect x="1357" y="615" width="84" height="2" fill="#FFFFFF" opacity="0.582" /><rect x="1398" y="574" width="2" height="84" fill="#FFFFFF" opacity="0.582" /><rect x="1131" y="2046" width="56" height="2" fill="#FFFFFF" opacity="0.374" /><rect x="1158" y="2019" width="2" height="56" fill="#FFFFFF" opacity="0.374" /><rect x="2749" y="2690" width="46" height="2" fill="#FFFFFF" opacity="0.781" /><rect x="2771" y="2668" width="2" height="46" fill="#FFFFFF" opacity="0.781" /><rect x="1077" y="1790" width="60" height="2" fill="#FFFFFF" opacity="0.443" /><rect x="1106" y="1761" width="2" height="60" fill="#FFFFFF" opacity="0.443" /><rect x="2297" y="2485" width="48" height="2" fill="#FFFFFF" opacity="0.364" /><rect x="2320" y="2462" width="2" height="48" fill="#FFFFFF" opacity="0.364" /><rect x="1976" y="2150" width="54" height="2" fill="#FFFFFF" opacity="0.527" /><rect x="2002" y="2124" width="2" height="54" fill="#FFFFFF" opacity="0.527" /><rect x="1057" y="1519" width="58" height="2" fill="#FFFFFF" opacity="0.389" /><rect x="1085" y="1491" width="2" height="58" fill="#FFFFFF" opacity="0.389" /><rect x="2422" y="534" width="38" height="2" fill="#FFFFFF" opacity="0.462" /><rect x="2440" y="516" width="2" height="38" fill="#FFFFFF" opacity="0.462" /><rect x="2162" y="2365" width="30" height="2" fill="#FFFFFF" opacity="0.632" /><rect x="2176" y="2351" width="2" height="30" fill="#FFFFFF" opacity="0.632" /><rect x="384" y="2331" width="82" height="2" fill="#FFFFFF" opacity="0.406" /><rect x="424" y="2291" width="2" height="82" fill="#FFFFFF" opacity="0.406" /><rect x="1539" y="2081" width="36" height="2" fill="#FFFFFF" opacity="0.324" /><rect x="1556" y="2064" width="2" height="36" fill="#FFFFFF" opacity="0.324" /><rect x="2148" y="1829" width="42" height="2" fill="#FFFFFF" opacity="0.629" /><rect x="2168" y="1809" width="2" height="42" fill="#FFFFFF" opacity="0.629" /><rect x="987" y="2177" width="42" height="2" fill="#FFFFFF" opacity="0.577" /><rect x="1007" y="2157" width="2" height="42" fill="#FFFFFF" opacity="0.577" /><rect x="2698" y="2336" width="40" height="2" fill="#FFFFFF" opacity="0.795" /><rect x="2717" y="2317" width="2" height="40" fill="#FFFFFF" opacity="0.795" /><rect x="446" y="2355" width="76" height="2" fill="#FFFFFF" opacity="0.796" /><rect x="483" y="2318" width="2" height="76" fill="#FFFFFF" opacity="0.796" /><rect x="1340" y="2444" width="48" height="2" fill="#FFFFFF" opacity="0.380" /><rect x="1363" y="2421" width="2" height="48" fill="#FFFFFF" opacity="0.380" /><rect x="2559" y="718" width="50" height="2" fill="#FFFFFF" opacity="0.617" /><rect x="2583" y="694" width="2" height="50" fill="#FFFFFF" opacity="0.617" /><rect x="1451" y="1349" width="38" height="2" fill="#FFFFFF" opacity="0.760" /><rect x="1469" y="1331" width="2" height="38" fill="#FFFFFF" opacity="0.760" /><rect x="1425" y="421" width="24" height="2" fill="#FFFFFF" opacity="0.790" /><rect x="1436" y="410" width="2" height="24" fill="#FFFFFF" opacity="0.790" /></g>
  <g opacity="0.52"><path d="M1572 1006 L2148 1582 L1572 2158 L996 1582 Z" fill="none" stroke="#0C2030" stroke-width="90" stroke-linejoin="round" /><circle cx="1572" cy="1582" r="153" fill="#0C2030" /></g>
  <g filter="url(#soft64)"><path d="M1536 960 L2112 1536 L1536 2112 L960 1536 Z" fill="none" stroke="url(#symbol64)" stroke-width="90" stroke-linejoin="round" /><circle cx="1536" cy="1536" r="153" fill="url(#symbol64)" /></g>
  <rect x="138" y="138" width="2796" height="2796" rx="629" fill="#FFFFFF" filter="url(#grain64)" opacity="0.18" />
</svg>
