<svg xmlns="http://www.w3.org/2000/svg" width="3072" height="3072" viewBox="0 0 3072 3072">
  <title>QuartzOS App Icon 205 - bright_notes_205</title>
  <defs><linearGradient id="bg204" x1="0%" y1="0%" x2="100%" y2="100%"><stop offset="0%" stop-color="#3B82FF" /><stop offset="26%" stop-color="#FF6AB3" /><stop offset="56%" stop-color="#FFD84D" /><stop offset="78%" stop-color="#4E8FC5" /><stop offset="100%" stop-color="#10243A" /></linearGradient><radialGradient id="sun204" cx="28%" cy="33%" r="88%"><stop offset="0%" stop-color="#FFFFFF" stop-opacity="0.62" /><stop offset="30%" stop-color="#53E3A6" stop-opacity="0.35" /><stop offset="100%" stop-color="#53E3A6" stop-opacity="0" /></radialGradient><linearGradient id="glass204" x1="0%" y1="0%" x2="0%" y2="100%"><stop offset="0%" stop-color="#FFFFFF" stop-opacity="0.70" /><stop offset="46%" stop-color="#FFFFFF" stop-opacity="0.26" /><stop offset="100%" stop-color="#FFFFFF" stop-opacity="0.00" /></linearGradient><linearGradient id="ribbon204" x1="0%" y1="0%" x2="100%" y2="0%"><stop offset="0%" stop-color="#3B82FF" stop-opacity="0.18" /><stop offset="34%" stop-color="#FF6AB3" stop-opacity="0.72" /><stop offset="66%" stop-color="#FFD84D" stop-opacity="0.72" /><stop offset="100%" stop-color="#53E3A6" stop-opacity="0.18" /></linearGradient><radialGradient id="orb204" cx="34%" cy="27%" r="74%"><stop offset="0%" stop-color="#FFFFFF" stop-opacity="0.84" /><stop offset="30%" stop-color="#3B82FF" stop-opacity="0.52" /><stop offset="68%" stop-color="#FF6AB3" stop-opacity="0.42" /><stop offset="100%" stop-color="#FFD84D" stop-opacity="0.20" /></radialGradient><linearGradient id="extrude204" x1="0%" y1="0%" x2="0%" y2="100%"><stop offset="0%" stop-color="#15283C" stop-opacity="0.45" /><stop offset="100%" stop-color="#08131D" stop-opacity="0.06" /></linearGradient><linearGradient id="symbol204" x1="0%" y1="0%" x2="100%" y2="100%"><stop offset="0%" stop-color="#FFFFFF" /><stop offset="100%" stop-color="#53E3A6" /></linearGradient><filter id="shadow204" x="-40%" y="-40%" width="180%" height="180%"><feDropShadow dx="0" dy="49" stdDeviation="86" flood-color="#06111A" flood-opacity="0.54" /></filter><filter id="soft204" x="-40%" y="-40%" width="180%" height="180%"><feDropShadow dx="0" dy="0" stdDeviation="14" flood-color="#3B82FF" flood-opacity="0.45" /></filter><filter id="grain204"><feTurbulence type="fractalNoise" baseFrequency="0.937" numOctaves="2" seed="204" /><feColorMatrix type="saturate" values="0" /><feComponentTransfer><feFuncA type="table" tableValues="0 0.09" /></feComponentTransfer></filter></defs>
  <rect x="138" y="138" width="2796" height="2796" rx="629" fill="url(#bg204)" filter="url(#shadow204)" />
  <rect x="138" y="138" width="2796" height="2796" rx="629" fill="url(#sun204)" />
  <g><circle cx="2377" cy="1540" r="66" fill="#FFFFFF" opacity="0.110" /><circle cx="2654" cy="989" r="138" fill="#FFFFFF" opacity="0.100" /><circle cx="1802" cy="554" r="69" fill="#FFFFFF" opacity="0.133" /><circle cx="2340" cy="1625" r="154" fill="#FFFFFF" opacity="0.158" /><circle cx="2021" cy="1756" r="103" fill="#FFFFFF" opacity="0.081" /><circle cx="2551" cy="956" r="71" fill="#FFFFFF" opacity="0.103" /><circle cx="739" cy="2504" r="52" fill="#FFFFFF" opacity="0.115" /><circle cx="653" cy="355" r="124" fill="#FFFFFF" opacity="0.071" /><circle cx="1854" cy="981" r="96" fill="#FFFFFF" opacity="0.098" /><circle cx="1124" cy="1035" r="134" fill="#FFFFFF" opacity="0.235" /><circle cx="1278" cy="1010" r="120" fill="#FFFFFF" opacity="0.067" /><circle cx="2608" cy="1459" r="112" fill="#FFFFFF" opacity="0.222" /><circle cx="2073" cy="844" r="100" fill="#FFFFFF" opacity="0.141" /><circle cx="2620" cy="2674" r="127" fill="#FFFFFF" opacity="0.130" /><circle cx="562" cy="1879" r="136" fill="#FFFFFF" opacity="0.209" /><circle cx="1244" cy="2423" r="70" fill="#FFFFFF" opacity="0.066" /><circle cx="1763" cy="1337" r="124" fill="#FFFFFF" opacity="0.124" /><circle cx="1457" cy="1980" r="155" fill="#FFFFFF" opacity="0.183" /><circle cx="1116" cy="2472" r="44" fill="#FFFFFF" opacity="0.230" /><circle cx="1441" cy="1755" r="78" fill="#FFFFFF" opacity="0.161" /><circle cx="2548" cy="1567" r="140" fill="#FFFFFF" opacity="0.223" /><circle cx="2212" cy="2446" r="150" fill="#FFFFFF" opacity="0.072" /><circle cx="488" cy="2031" r="120" fill="#FFFFFF" opacity="0.152" /><circle cx="2553" cy="2133" r="105" fill="#FFFFFF" opacity="0.152" /><circle cx="563" cy="500" r="88" fill="#FFFFFF" opacity="0.119" /><circle cx="2264" cy="1325" r="124" fill="#FFFFFF" opacity="0.166" /><circle cx="1902" cy="2431" r="125" fill="#FFFFFF" opacity="0.121" /><circle cx="2058" cy="1562" r="145" fill="#FFFFFF" opacity="0.181" /></g>
  <g><path d="M 372.9 624.0 L 2868.8 347.5 L 2868.8 840.3 L 372.9 1116.8 Z" fill="#FFFFFF" opacity="0.222" /><path d="M 175.8 908.4 L 2913.7 632.0 L 2913.7 1090.5 L 175.8 1367.0 Z" fill="#FFFFFF" opacity="0.176" /><path d="M 317.9 1095.1 L 2802.5 818.6 L 2802.5 1270.2 L 317.9 1546.7 Z" fill="#FFFFFF" opacity="0.157" /><path d="M 350.4 1386.0 L 2785.0 1109.5 L 2785.0 1536.0 L 350.4 1812.4 Z" fill="#FFFFFF" opacity="0.230" /><path d="M 336.5 1650.3 L 2850.7 1373.8 L 2850.7 1819.0 L 336.5 2095.5 Z" fill="#FFFFFF" opacity="0.167" /><path d="M 263.2 1945.0 L 2717.6 1668.5 L 2717.6 2107.9 L 263.2 2384.4 Z" fill="#FFFFFF" opacity="0.187" /><path d="M 228.0 2209.0 L 2782.3 1932.6 L 2782.3 2421.4 L 228.0 2697.8 Z" fill="#FFFFFF" opacity="0.172" /><path d="M 238.0 2416.6 L 2699.0 2140.1 L 2699.0 2625.4 L 238.0 2901.9 Z" fill="#FFFFFF" opacity="0.113" /></g>
  <g filter="url(#soft204)"><g transform="rotate(-8.04 1536.0 1536.0)"><path d="M-368.6 505.0 C -225.8 454.0, -25.8 567.0, 107.5 465.8 C 250.4 467.1, 450.4 540.9, 583.7 505.7 C 726.5 505.7, 926.5 504.1, 1059.8 545.2 C 1202.7 553.4, 1402.7 481.7, 1536.0 560.2 C 1678.8 547.2, 1878.8 441.8, 2012.2 541.8 C 2155.0 537.3, 2355.0 466.2, 2488.3 501.0 C 2631.2 502.4, 2831.2 506.2, 2964.5 462.7 C 3107.3 457.0, 3307.3 543.2, 3440.6 450.0" fill="none" stroke="url(#ribbon204)" stroke-width="58.4" stroke-linecap="round" stroke-opacity="0.120" /></g><g transform="rotate(-7.46 1536.0 1536.0)"><path d="M-368.6 658.0 C -241.7 605.8, -63.9 697.8, 54.6 617.2 C 181.6 614.5, 359.4 686.6, 477.9 663.5 C 604.8 661.3, 782.6 653.7, 901.1 706.3 C 1028.1 711.2, 1205.9 600.0, 1324.4 719.9 C 1451.3 699.7, 1629.1 588.5, 1747.6 695.9 C 1874.6 693.2, 2052.4 641.8, 2170.9 648.9 C 2297.9 647.7, 2475.6 661.7, 2594.1 607.4 C 2721.1 612.7, 2898.9 679.9, 3017.4 596.6 C 3144.4 606.6, 3322.1 710.3, 3440.6 623.0" fill="none" stroke="url(#ribbon204)" stroke-width="54.4" stroke-linecap="round" stroke-opacity="0.146" /></g><g transform="rotate(-6.88 1536.0 1536.0)"><path d="M-368.6 906.2 C -254.4 892.0, -94.4 918.6, 12.3 944.1 C 126.6 939.7, 286.6 869.9, 393.2 974.4 C 507.5 952.6, 667.5 866.3, 774.1 963.2 C 888.4 957.2, 1048.4 839.1, 1155.1 917.5 C 1269.4 915.3, 1429.3 901.1, 1536.0 865.0 C 1650.3 871.8, 1810.3 955.3, 1916.9 837.4 C 2031.2 837.6, 2191.2 968.7, 2297.9 851.6 C 2412.1 854.5, 2572.1 929.7, 2678.8 898.9 C 2793.1 896.6, 2953.1 914.6, 3059.7 950.7 C 3174.0 940.7, 3334.0 886.2, 3440.6 975.4" fill="none" stroke="url(#ribbon204)" stroke-width="50.4" stroke-linecap="round" stroke-opacity="0.172" /></g><g transform="rotate(-6.30 1536.0 1536.0)"><path d="M-368.6 1133.3 C -264.8 1189.7, -119.3 1087.8, -22.3 1127.9 C 81.5 1127.1, 227.0 1135.1, 324.0 1074.8 C 427.8 1096.7, 573.3 1168.0, 670.3 1057.1 C 774.1 1076.5, 919.6 1187.4, 1016.6 1085.6 C 1120.4 1096.3, 1265.9 1180.8, 1362.9 1143.0 C 1466.7 1145.6, 1612.2 1126.6, 1709.1 1194.5 C 1813.0 1209.7, 1958.5 1073.3, 2055.4 1208.8 C 2159.3 1196.6, 2304.8 1070.9, 2401.7 1177.3 C 2505.6 1168.1, 2651.1 1109.7, 2748.0 1119.1 C 2851.9 1115.6, 2997.4 1141.8, 3094.3 1069.5 C 3198.2 1044.7, 3343.7 1204.2, 3440.6 1058.5" fill="none" stroke="url(#ribbon204)" stroke-width="46.4" stroke-linecap="round" stroke-opacity="0.198" /></g><g transform="rotate(-5.72 1536.0 1536.0)"><path d="M-368.6 1257.3 C -273.4 1241.1, -140.1 1265.3, -51.2 1189.2 C 44.0 1199.5, 177.4 1284.9, 266.2 1175.2 C 361.5 1189.1, 494.8 1349.8, 583.7 1211.0 C 678.9 1221.0, 812.2 1295.9, 901.1 1274.9 C 996.4 1273.1, 1129.7 1246.4, 1218.6 1328.2 C 1313.8 1317.3, 1447.1 1178.2, 1536.0 1338.5 C 1631.2 1340.6, 1764.6 1180.9, 1853.4 1299.5 C 1948.7 1289.2, 2082.0 1237.9, 2170.9 1235.0 C 2266.1 1237.6, 2399.4 1277.6, 2488.3 1184.0 C 2583.6 1182.8, 2716.9 1310.4, 2805.8 1177.5 C 2901.0 1196.5, 3034.3 1325.7, 3123.2 1219.4 C 3218.4 1218.2, 3351.8 1280.7, 3440.6 1284.3" fill="none" stroke="url(#ribbon204)" stroke-width="42.4" stroke-linecap="round" stroke-opacity="0.224" /></g><g transform="rotate(-5.14 1536.0 1536.0)"><path d="M-368.6 1450.2 C -225.8 1423.3, -25.8 1463.6, 107.5 1365.2 C 250.4 1341.5, 450.4 1520.1, 583.7 1368.6 C 726.5 1395.0, 926.5 1512.8, 1059.8 1421.5 C 1202.7 1417.0, 1402.7 1467.5, 1536.0 1491.9 C 1678.8 1476.0, 1878.8 1423.0, 2012.2 1537.0 C 2155.0 1523.5, 2355.0 1351.9, 2488.3 1529.5 C 2631.2 1501.1, 2831.2 1416.9, 2964.5 1473.9 C 3107.3 1475.5, 3307.3 1440.2, 3440.6 1403.9" fill="none" stroke="url(#ribbon204)" stroke-width="38.4" stroke-linecap="round" stroke-opacity="0.250" /></g><g transform="rotate(-4.56 1536.0 1536.0)"><path d="M-368.6 1727.4 C -241.7 1668.5, -63.9 1774.5, 54.6 1632.3 C 181.6 1651.8, 359.4 1799.0, 477.9 1645.2 C 604.8 1645.0, 782.6 1778.0, 901.1 1708.0 C 1028.1 1714.7, 1205.9 1738.2, 1324.4 1782.6 C 1451.3 1776.4, 1629.1 1682.5, 1747.6 1823.7 C 1874.6 1842.8, 2052.4 1646.3, 2170.9 1806.4 C 2297.9 1782.1, 2475.6 1669.0, 2594.1 1741.2 C 2721.1 1743.8, 2898.9 1713.8, 3017.4 1667.7 C 3144.4 1675.9, 3322.1 1758.3, 3440.6 1630.4" fill="none" stroke="url(#ribbon204)" stroke-width="34.4" stroke-linecap="round" stroke-opacity="0.276" /></g><g transform="rotate(-3.98 1536.0 1536.0)"><path d="M-368.6 1914.7 C -254.4 1927.4, -94.4 1905.7, 12.3 1996.3 C 126.6 2023.9, 286.6 1881.8, 393.2 2018.7 C 507.5 2056.6, 667.5 1835.5, 774.1 1978.0 C 888.4 1955.5, 1048.4 1845.9, 1155.1 1898.9 C 1269.4 1896.5, 1429.3 1930.7, 1536.0 1829.4 C 1650.3 1842.6, 1810.3 1978.8, 1916.9 1811.7 C 2031.2 1842.9, 2191.2 2024.1, 2297.9 1856.4 C 2412.1 1876.8, 2572.1 1980.6, 2678.8 1936.6 C 2793.1 1932.4, 2953.1 1891.0, 3059.7 2003.4 C 3174.0 1978.6, 3334.0 1850.2, 3440.6 2016.5" fill="none" stroke="url(#ribbon204)" stroke-width="30.4" stroke-linecap="round" stroke-opacity="0.302" /></g><g transform="rotate(-3.40 1536.0 1536.0)"><path d="M-368.6 2048.3 C -264.8 2047.5, -119.3 2049.2, -22.3 1967.4 C 81.5 1971.2, 227.0 2110.0, 324.0 1936.6 C 427.8 1933.1, 573.3 2117.0, 670.3 1973.6 C 774.1 1969.4, 919.6 2087.6, 1016.6 2055.9 C 1120.4 2057.2, 1265.9 2045.1, 1362.9 2133.6 C 1466.7 2113.1, 1612.2 1986.8, 1709.1 2159.6 C 1813.0 2200.7, 1958.5 1950.5, 2055.4 2118.1 C 2159.3 2097.3, 2304.8 1987.3, 2401.7 2034.2 C 2505.6 2035.3, 2651.1 2064.5, 2748.0 1958.9 C 2851.9 1956.0, 2997.4 2155.3, 3094.3 1937.9 C 3198.2 1964.8, 3343.7 2139.3, 3440.6 1983.8" fill="none" stroke="url(#ribbon204)" stroke-width="26.4" stroke-linecap="round" stroke-opacity="0.328" /></g><g transform="rotate(-2.82 1536.0 1536.0)"><path d="M-368.6 2203.3 C -273.4 2119.9, -140.1 2303.5, -51.2 2163.5 C 44.0 2173.9, 177.4 2240.7, 266.2 2256.0 C 361.5 2256.0, 494.8 2156.4, 583.7 2316.4 C 678.9 2300.0, 812.2 2073.5, 901.1 2308.3 C 996.4 2301.6, 1129.7 2095.6, 1218.6 2236.4 C 1313.8 2249.6, 1447.1 2192.9, 1536.0 2144.5 C 1631.2 2161.6, 1764.6 2234.4, 1853.4 2088.2 C 1948.7 2094.8, 2082.0 2249.3, 2170.9 2101.7 C 2266.1 2138.1, 2399.4 2305.7, 2488.3 2176.9 C 2583.6 2178.6, 2716.9 2212.6, 2805.8 2268.0 C 2901.0 2251.1, 3034.3 2163.2, 3123.2 2319.9 C 3218.4 2358.0, 3351.8 2073.5, 3440.6 2301.1" fill="none" stroke="url(#ribbon204)" stroke-width="22.4" stroke-linecap="round" stroke-opacity="0.354" /></g><g transform="rotate(-2.24 1536.0 1536.0)"><path d="M-368.6 2470.7 C -225.8 2348.9, -25.8 2545.2, 107.5 2373.8 C 250.4 2363.3, 450.4 2523.3, 583.7 2461.0 C 726.5 2462.4, 926.5 2477.6, 1059.8 2554.0 C 1202.7 2526.8, 1402.7 2382.2, 1536.0 2596.5 C 1678.8 2619.2, 1878.8 2350.8, 2012.2 2562.8 C 2155.0 2595.7, 2355.0 2404.7, 2488.3 2473.2 C 2631.2 2473.8, 2831.2 2469.9, 2964.5 2382.1 C 3107.3 2390.8, 3307.3 2501.1, 3440.6 2344.8" fill="none" stroke="url(#ribbon204)" stroke-width="18.4" stroke-linecap="round" stroke-opacity="0.380" /></g><g transform="rotate(-1.66 1536.0 1536.0)"><path d="M-368.6 2599.2 C -241.7 2752.1, -63.9 2507.5, 54.6 2686.4 C 181.6 2683.2, 359.4 2536.5, 477.9 2587.8 C 604.8 2584.5, 782.6 2608.8, 901.1 2496.2 C 1028.1 2516.0, 1205.9 2655.3, 1324.4 2467.0 C 1451.3 2448.8, 1629.1 2715.2, 1747.6 2518.0 C 1874.6 2512.1, 2052.4 2663.6, 2170.9 2618.3 C 2297.9 2617.9, 2475.6 2578.0, 2594.1 2706.9 C 2721.1 2683.9, 2898.9 2543.1, 3017.4 2730.2 C 3144.4 2712.0, 3322.1 2498.0, 3440.6 2674.1" fill="none" stroke="url(#ribbon204)" stroke-width="14.4" stroke-linecap="round" stroke-opacity="0.406" /></g></g>
  <g><ellipse cx="1536.0" cy="1551.9" rx="728.6" ry="605.7" fill="url(#extrude204)" opacity="0.220" /><ellipse cx="1536.0" cy="1567.7" rx="736.0" ry="610.9" fill="url(#extrude204)" opacity="0.205" /><ellipse cx="1536.0" cy="1583.6" rx="743.4" ry="616.1" fill="url(#extrude204)" opacity="0.190" /><ellipse cx="1536.0" cy="1599.5" rx="750.9" ry="621.3" fill="url(#extrude204)" opacity="0.175" /><ellipse cx="1536.0" cy="1615.4" rx="758.3" ry="626.5" fill="url(#extrude204)" opacity="0.160" /><ellipse cx="1536.0" cy="1631.2" rx="765.7" ry="631.7" fill="url(#extrude204)" opacity="0.145" /><ellipse cx="1536.0" cy="1647.1" rx="773.2" ry="636.9" fill="url(#extrude204)" opacity="0.130" /><ellipse cx="1536.0" cy="1663.0" rx="780.6" ry="642.1" fill="url(#extrude204)" opacity="0.115" /><ellipse cx="1536.0" cy="1678.8" rx="788.0" ry="647.4" fill="url(#extrude204)" opacity="0.100" /><ellipse cx="1536.0" cy="1694.7" rx="795.5" ry="652.6" fill="url(#extrude204)" opacity="0.085" /><ellipse cx="1536.0" cy="1710.6" rx="802.9" ry="657.8" fill="url(#extrude204)" opacity="0.070" /><ellipse cx="1536.0" cy="1726.5" rx="810.3" ry="663.0" fill="url(#extrude204)" opacity="0.055" /></g>
  <ellipse cx="1536.0" cy="1726.5" rx="773.2" ry="214.9" fill="#0B1D2D" opacity="0.24" />
  <ellipse cx="1536.0" cy="1536.0" rx="743.4" ry="651.3" fill="url(#orb204)" stroke="#FFFFFF" stroke-opacity="0.42" stroke-width="7" />
  <ellipse cx="1431.9" cy="1392.7" rx="505.5" ry="299.6" fill="#FFFFFF" opacity="0.25" />
  <path d="M 199.4 399.4 C 1013.8 -30.7, 2058.2 768.0, 2872.6 215.0 L 2872.6 983.0 C 2089.0 1228.8, 1013.8 307.2, 199.4 1167.4 Z" fill="url(#glass204)" />
  <rect x="270" y="270" width="2532" height="2532" rx="430" fill="none" stroke="#FFFFFF" stroke-opacity="0.30" stroke-width="5" />
  <rect x="288.4" y="288.4" width="2495.1" height="2495.1" rx="399" fill="none" stroke="#3B82FF" stroke-opacity="0.35" stroke-width="3" />
  <g filter="url(#soft204)"><rect x="2075" y="1989" width="80" height="2" fill="#FFFFFF" opacity="0.392" /><rect x="2114" y="1950" width="2" height="80" fill="#FFFFFF" opacity="0.392" /><rect x="1209" y="639" width="48" height="2" fill="#FFFFFF" opacity="0.603" /><rect x="1232" y="616" width="2" height="48" fill="#FFFFFF" opacity="0.603" /><rect x="1298" y="1934" width="42" height="2" fill="#FFFFFF" opacity="0.492" /><rect x="1318" y="1914" width="2" height="42" fill="#FFFFFF" opacity="0.492" /><rect x="1350" y="1267" width="80" height="2" fill="#FFFFFF" opacity="0.494" /><rect x="1389" y="1228" width="2" height="80" fill="#FFFFFF" opacity="0.494" /><rect x="2584" y="493" width="26" height="2" fill="#FFFFFF" opacity="0.317" /><rect x="2596" y="481" width="2" height="26" fill="#FFFFFF" opacity="0.317" /><rect x="1272" y="999" width="64" height="2" fill="#FFFFFF" opacity="0.802" /><rect x="1303" y="968" width="2" height="64" fill="#FFFFFF" opacity="0.802" /><rect x="1981" y="1393" width="34" height="2" fill="#FFFFFF" opacity="0.511" /><rect x="1997" y="1377" width="2" height="34" fill="#FFFFFF" opacity="0.511" /><rect x="445" y="502" width="56" height="2" fill="#FFFFFF" opacity="0.752" /><rect x="472" y="475" width="2" height="56" fill="#FFFFFF" opacity="0.752" /><rect x="1686" y="1915" width="68" height="2" fill="#FFFFFF" opacity="0.413" /><rect x="1719" y="1882" width="2" height="68" fill="#FFFFFF" opacity="0.413" /><rect x="1527" y="1870" width="74" height="2" fill="#FFFFFF" opacity="0.620" /><rect x="1563" y="1834" width="2" height="74" fill="#FFFFFF" opacity="0.620" /><rect x="2736" y="811" width="68" height="2" fill="#FFFFFF" opacity="0.312" /><rect x="2769" y="778" width="2" height="68" fill="#FFFFFF" opacity="0.312" /><rect x="934" y="1510" width="34" height="2" fill="#FFFFFF" opacity="0.847" /><rect x="950" y="1494" width="2" height="34" fill="#FFFFFF" opacity="0.847" /><rect x="2177" y="2603" width="42" height="2" fill="#FFFFFF" opacity="0.431" /><rect x="2197" y="2583" width="2" height="42" fill="#FFFFFF" opacity="0.431" /><rect x="1429" y="2070" width="46" height="2" fill="#FFFFFF" opacity="0.626" /><rect x="1451" y="2048" width="2" height="46" fill="#FFFFFF" opacity="0.626" /><rect x="2429" y="619" width="34" height="2" fill="#FFFFFF" opacity="0.499" /><rect x="2445" y="603" width="2" height="34" fill="#FFFFFF" opacity="0.499" /><rect x="1909" y="601" width="30" height="2" fill="#FFFFFF" opacity="0.383" /><rect x="1923" y="587" width="2" height="30" fill="#FFFFFF" opacity="0.383" /><rect x="2577" y="1762" width="48" height="2" fill="#FFFFFF" opacity="0.458" /><rect x="2600" y="1739" width="2" height="48" fill="#FFFFFF" opacity="0.458" /><rect x="1480" y="797" width="40" height="2" fill="#FFFFFF" opacity="0.431" /><rect x="1499" y="778" width="2" height="40" fill="#FFFFFF" opacity="0.431" /><rect x="1729" y="2299" width="60" height="2" fill="#FFFFFF" opacity="0.652" /><rect x="1758" y="2270" width="2" height="60" fill="#FFFFFF" opacity="0.652" /><rect x="811" y="1471" width="42" height="2" fill="#FFFFFF" opacity="0.771" /><rect x="831" y="1451" width="2" height="42" fill="#FFFFFF" opacity="0.771" /><rect x="1910" y="352" width="34" height="2" fill="#FFFFFF" opacity="0.402" /><rect x="1926" y="336" width="2" height="34" fill="#FFFFFF" opacity="0.402" /><rect x="328" y="1558" width="34" height="2" fill="#FFFFFF" opacity="0.366" /><rect x="344" y="1542" width="2" height="34" fill="#FFFFFF" opacity="0.366" /><rect x="351" y="2234" width="40" height="2" fill="#FFFFFF" opacity="0.464" /><rect x="370" y="2215" width="2" height="40" fill="#FFFFFF" opacity="0.464" /><rect x="512" y="1497" width="54" height="2" fill="#FFFFFF" opacity="0.310" /><rect x="538" y="1471" width="2" height="54" fill="#FFFFFF" opacity="0.310" /><rect x="1614" y="2503" width="64" height="2" fill="#FFFFFF" opacity="0.573" /><rect x="1645" y="2472" width="2" height="64" fill="#FFFFFF" opacity="0.573" /><rect x="1773" y="995" width="78" height="2" fill="#FFFFFF" opacity="0.420" /><rect x="1811" y="957" width="2" height="78" fill="#FFFFFF" opacity="0.420" /></g>
  <g opacity="0.52"><circle cx="1572" cy="1582" r="307" fill="none" stroke="#0C2030" stroke-width="90" /><line x1="1791" y1="1801" x2="2340" y2="2350" stroke="#0C2030" stroke-width="90" stroke-linecap="round" /></g>
  <g filter="url(#soft204)"><circle cx="1536" cy="1536" r="307" fill="none" stroke="url(#symbol204)" stroke-width="90" /><line x1="1755" y1="1755" x2="2304" y2="2304" stroke="url(#symbol204)" stroke-width="90" stroke-linecap="round" /></g>
  <rect x="138" y="138" width="2796" height="2796" rx="629" fill="#FFFFFF" filter="url(#grain204)" opacity="0.18" />
</svg>
