<svg xmlns="http://www.w3.org/2000/svg" width="3072" height="3072" viewBox="0 0 3072 3072">
  <title>QuartzOS App Icon 025 - bright_studio_025</title>
  <defs><linearGradient id="bg24" x1="0%" y1="0%" x2="100%" y2="100%"><stop offset="0%" stop-color="#FF6AB3" /><stop offset="26%" stop-color="#FFD84D" /><stop offset="56%" stop-color="#36D1FF" /><stop offset="78%" stop-color="#4E8FC5" /><stop offset="100%" stop-color="#10243A" /></linearGradient><radialGradient id="sun24" cx="29%" cy="32%" r="88%"><stop offset="0%" stop-color="#FFFFFF" stop-opacity="0.62" /><stop offset="30%" stop-color="#3B82FF" stop-opacity="0.35" /><stop offset="100%" stop-color="#3B82FF" stop-opacity="0" /></radialGradient><linearGradient id="glass24" x1="0%" y1="0%" x2="0%" y2="100%"><stop offset="0%" stop-color="#FFFFFF" stop-opacity="0.70" /><stop offset="46%" stop-color="#FFFFFF" stop-opacity="0.26" /><stop offset="100%" stop-color="#FFFFFF" stop-opacity="0.00" /></linearGradient><linearGradient id="ribbon24" x1="0%" y1="0%" x2="100%" y2="0%"><stop offset="0%" stop-color="#FF6AB3" stop-opacity="0.18" /><stop offset="34%" stop-color="#FFD84D" stop-opacity="0.72" /><stop offset="66%" stop-color="#36D1FF" stop-opacity="0.72" /><stop offset="100%" stop-color="#3B82FF" stop-opacity="0.18" /></linearGradient><radialGradient id="orb24" cx="34%" cy="27%" r="74%"><stop offset="0%" stop-color="#FFFFFF" stop-opacity="0.84" /><stop offset="30%" stop-color="#FF6AB3" stop-opacity="0.52" /><stop offset="68%" stop-color="#FFD84D" stop-opacity="0.42" /><stop offset="100%" stop-color="#36D1FF" stop-opacity="0.20" /></radialGradient><linearGradient id="extrude24" x1="0%" y1="0%" x2="0%" y2="100%"><stop offset="0%" stop-color="#15283C" stop-opacity="0.45" /><stop offset="100%" stop-color="#08131D" stop-opacity="0.06" /></linearGradient><linearGradient id="symbol24" x1="0%" y1="0%" x2="100%" y2="100%"><stop offset="0%" stop-color="#FFFFFF" /><stop offset="100%" stop-color="#3B82FF" /></linearGradient><filter id="shadow24" x="-40%" y="-40%" width="180%" height="180%"><feDropShadow dx="0" dy="49" stdDeviation="86" flood-color="#06111A" flood-opacity="0.54" /></filter><filter id="soft24" x="-40%" y="-40%" width="180%" height="180%"><feDropShadow dx="0" dy="0" stdDeviation="14" flood-color="#FF6AB3" flood-opacity="0.45" /></filter><filter id="grain24"><feTurbulence type="fractalNoise" baseFrequency="0.995" numOctaves="2" seed="24" /><feColorMatrix type="saturate" values="0" /><feComponentTransfer><feFuncA type="table" tableValues="0 0.09" /></feComponentTransfer></filter></defs>
  <rect x="138" y="138" width="2796" height="2796" rx="629" fill="url(#bg24)" filter="url(#shadow24)" />
  <rect x="138" y="138" width="2796" height="2796" rx="629" fill="url(#sun24)" />
  <g><circle cx="1510" cy="2318" r="54" fill="#FFFFFF" opacity="0.104" /><circle cx="1044" cy="1908" r="80" fill="#FFFFFF" opacity="0.094" /><circle cx="2110" cy="510" r="54" fill="#FFFFFF" opacity="0.141" /><circle cx="1192" cy="999" r="113" fill="#FFFFFF" opacity="0.183" /><circle cx="2064" cy="337" r="74" fill="#FFFFFF" opacity="0.169" /><circle cx="578" cy="1353" r="125" fill="#FFFFFF" opacity="0.169" /><circle cx="2493" cy="1626" r="72" fill="#FFFFFF" opacity="0.089" /><circle cx="2580" cy="1279" r="84" fill="#FFFFFF" opacity="0.158" /><circle cx="923" cy="2632" r="117" fill="#FFFFFF" opacity="0.194" /><circle cx="2167" cy="1586" r="152" fill="#FFFFFF" opacity="0.166" /><circle cx="2420" cy="2383" r="115" fill="#FFFFFF" opacity="0.151" /><circle cx="1780" cy="1713" r="60" fill="#FFFFFF" opacity="0.125" /><circle cx="1681" cy="1370" r="148" fill="#FFFFFF" opacity="0.120" /><circle cx="497" cy="1398" r="107" fill="#FFFFFF" opacity="0.210" /><circle cx="1465" cy="605" r="85" fill="#FFFFFF" opacity="0.205" /><circle cx="859" cy="704" r="65" fill="#FFFFFF" opacity="0.061" /><circle cx="1973" cy="1416" r="65" fill="#FFFFFF" opacity="0.068" /><circle cx="670" cy="788" r="65" fill="#FFFFFF" opacity="0.123" /><circle cx="901" cy="1204" r="121" fill="#FFFFFF" opacity="0.112" /><circle cx="2448" cy="634" r="136" fill="#FFFFFF" opacity="0.077" /><circle cx="1787" cy="1925" r="68" fill="#FFFFFF" opacity="0.126" /><circle cx="843" cy="1714" r="118" fill="#FFFFFF" opacity="0.114" /><circle cx="2678" cy="2553" r="120" fill="#FFFFFF" opacity="0.222" /><circle cx="1722" cy="1427" r="82" fill="#FFFFFF" opacity="0.200" /><circle cx="2444" cy="1872" r="58" fill="#FFFFFF" opacity="0.132" /><circle cx="541" cy="1653" r="134" fill="#FFFFFF" opacity="0.202" /><circle cx="1399" cy="2022" r="111" fill="#FFFFFF" opacity="0.079" /><circle cx="1720" cy="1296" r="109" fill="#FFFFFF" opacity="0.163" /></g>
  <g><path d="M 198.4 589.7 L 2874.2 313.2 L 2874.2 785.7 L 198.4 1062.2 Z" fill="#FFFFFF" opacity="0.190" /><path d="M 343.5 876.8 L 2848.0 600.4 L 2848.0 1073.1 L 343.5 1349.5 Z" fill="#FFFFFF" opacity="0.161" /><path d="M 323.6 1168.4 L 2708.6 892.0 L 2708.6 1375.7 L 323.6 1652.2 Z" fill="#FFFFFF" opacity="0.148" /><path d="M 155.2 1366.1 L 2852.5 1089.6 L 2852.5 1553.4 L 155.2 1829.9 Z" fill="#FFFFFF" opacity="0.082" /><path d="M 291.8 1677.7 L 2722.4 1401.2 L 2722.4 1853.8 L 291.8 2130.3 Z" fill="#FFFFFF" opacity="0.209" /><path d="M 386.8 1903.8 L 2852.2 1627.3 L 2852.2 2119.3 L 386.8 2395.8 Z" fill="#FFFFFF" opacity="0.155" /><path d="M 193.5 2151.1 L 2911.7 1874.6 L 2911.7 2322.1 L 193.5 2598.6 Z" fill="#FFFFFF" opacity="0.197" /><path d="M 160.3 2416.5 L 2924.2 2140.0 L 2924.2 2621.3 L 160.3 2897.8 Z" fill="#FFFFFF" opacity="0.219" /></g>
  <g filter="url(#soft24)"><g transform="rotate(-15.56 1536.0 1536.0)"><path d="M-368.6 545.4 C -225.8 482.2, -25.8 591.0, 107.5 536.5 C 250.4 537.7, 450.4 552.3, 583.7 578.4 C 726.5 568.5, 926.5 522.2, 1059.8 600.2 C 1202.7 605.2, 1402.7 515.6, 1536.0 588.8 C 1678.8 572.7, 1878.8 512.6, 2012.2 551.1 C 2155.0 550.3, 2355.0 538.8, 2488.3 509.9 C 2631.2 523.6, 2831.2 564.2, 2964.5 490.3 C 3107.3 469.9, 3307.3 593.7, 3440.6 504.1" fill="none" stroke="url(#ribbon24)" stroke-width="58.4" stroke-linecap="round" stroke-opacity="0.120" /></g><g transform="rotate(-14.98 1536.0 1536.0)"><path d="M-368.6 690.8 C -241.7 735.2, -63.9 660.2, 54.6 751.7 C 181.6 728.9, 359.4 650.4, 477.9 742.8 C 604.8 735.4, 782.6 672.7, 901.1 702.3 C 1028.1 705.6, 1205.9 684.9, 1324.4 654.8 C 1451.3 644.1, 1629.1 717.5, 1747.6 629.2 C 1874.6 608.0, 2052.4 747.7, 2170.9 640.9 C 2297.9 634.8, 2475.6 747.0, 2594.1 682.9 C 2721.1 680.2, 2898.9 696.1, 3017.4 729.6 C 3144.4 734.5, 3322.1 666.6, 3440.6 752.8" fill="none" stroke="url(#ribbon24)" stroke-width="54.4" stroke-linecap="round" stroke-opacity="0.146" /></g><g transform="rotate(-14.40 1536.0 1536.0)"><path d="M-368.6 895.5 C -254.4 861.6, -94.4 944.0, 12.3 826.3 C 126.6 821.5, 286.6 939.1, 393.2 843.9 C 507.5 826.7, 667.5 946.1, 774.1 892.8 C 888.4 892.8, 1048.4 897.3, 1155.1 943.4 C 1269.4 951.8, 1429.3 850.5, 1536.0 965.0 C 1650.3 967.4, 1810.3 868.5, 1916.9 944.4 C 2031.2 925.9, 2191.2 844.5, 2297.9 894.3 C 2412.1 893.8, 2572.1 896.4, 2678.8 844.9 C 2793.1 863.3, 2953.1 933.2, 3059.7 826.2 C 3174.0 830.0, 3334.0 951.1, 3440.6 849.6" fill="none" stroke="url(#ribbon24)" stroke-width="50.4" stroke-linecap="round" stroke-opacity="0.172" /></g><g transform="rotate(-13.82 1536.0 1536.0)"><path d="M-368.6 1049.0 C -264.8 993.7, -119.3 1115.9, -22.3 993.9 C 81.5 976.2, 227.0 1093.2, 324.0 1048.7 C 427.8 1048.8, 573.3 1049.2, 670.3 1103.7 C 774.1 1084.0, 919.6 1029.6, 1016.6 1125.4 C 1120.4 1115.4, 1265.9 1017.0, 1362.9 1100.8 C 1466.7 1084.4, 1612.2 998.6, 1709.1 1044.8 C 1813.0 1044.0, 1958.5 1052.3, 2055.4 991.3 C 2159.3 989.0, 2304.8 1074.3, 2401.7 972.8 C 2505.6 946.5, 2651.1 1093.1, 2748.0 1000.5 C 2851.9 1019.2, 2997.4 1088.8, 3094.3 1057.6 C 3198.2 1058.1, 3343.7 1039.4, 3440.6 1109.5" fill="none" stroke="url(#ribbon24)" stroke-width="46.4" stroke-linecap="round" stroke-opacity="0.198" /></g><g transform="rotate(-13.24 1536.0 1536.0)"><path d="M-368.6 1299.3 C -273.4 1229.3, -140.1 1388.0, -51.2 1237.4 C 44.0 1244.7, 177.4 1349.2, 266.2 1296.5 C 361.5 1295.9, 494.8 1302.1, 583.7 1357.2 C 678.9 1359.8, 812.2 1260.0, 901.1 1382.9 C 996.4 1351.3, 1129.7 1271.2, 1218.6 1357.8 C 1313.8 1347.3, 1447.1 1253.9, 1536.0 1297.3 C 1631.2 1297.0, 1764.6 1300.7, 1853.4 1238.0 C 1948.7 1245.9, 2082.0 1335.8, 2170.9 1215.9 C 2266.1 1244.3, 2399.4 1381.5, 2488.3 1244.4 C 2583.6 1230.5, 2716.9 1318.0, 2805.8 1306.2 C 2901.0 1306.1, 3034.3 1292.8, 3123.2 1363.9 C 3218.4 1364.6, 3351.8 1233.7, 3440.6 1382.4" fill="none" stroke="url(#ribbon24)" stroke-width="42.4" stroke-linecap="round" stroke-opacity="0.224" /></g><g transform="rotate(-12.66 1536.0 1536.0)"><path d="M-368.6 1519.0 C -225.8 1507.0, -25.8 1531.1, 107.5 1575.8 C 250.4 1594.8, 450.4 1487.2, 583.7 1609.2 C 726.5 1630.6, 926.5 1481.3, 1059.8 1587.9 C 1202.7 1583.7, 1402.7 1445.9, 1536.0 1524.8 C 1678.8 1526.6, 1878.8 1514.4, 2012.2 1458.2 C 2155.0 1457.6, 2355.0 1585.1, 2488.3 1428.4 C 2631.2 1433.7, 2831.2 1579.4, 2964.5 1453.6 C 3107.3 1467.0, 3307.3 1557.4, 3440.6 1518.4" fill="none" stroke="url(#ribbon24)" stroke-width="38.4" stroke-linecap="round" stroke-opacity="0.250" /></g><g transform="rotate(-12.08 1536.0 1536.0)"><path d="M-368.6 1736.2 C -241.7 1679.1, -63.9 1825.1, 54.6 1725.2 C 181.6 1721.5, 359.4 1743.0, 477.9 1798.2 C 604.8 1793.5, 782.6 1695.4, 901.1 1833.5 C 1028.1 1843.9, 1205.9 1648.3, 1324.4 1809.8 C 1451.3 1827.3, 1629.1 1652.8, 1747.6 1741.4 C 1874.6 1740.0, 2052.4 1733.1, 2170.9 1669.8 C 2297.9 1673.5, 2475.6 1807.0, 2594.1 1638.5 C 2721.1 1635.3, 2898.9 1811.3, 3017.4 1666.4 C 3144.4 1659.0, 3322.1 1819.7, 3440.6 1736.6" fill="none" stroke="url(#ribbon24)" stroke-width="34.4" stroke-linecap="round" stroke-opacity="0.276" /></g><g transform="rotate(-11.50 1536.0 1536.0)"><path d="M-368.6 1912.4 C -254.4 1987.6, -94.4 1828.1, 12.3 2002.8 C 126.6 1975.0, 286.6 1848.7, 393.2 1937.5 C 507.5 1936.7, 667.5 1894.0, 774.1 1856.9 C 888.4 1842.4, 1048.4 1959.1, 1155.1 1810.0 C 1269.4 1794.0, 1429.3 1992.7, 1536.0 1825.2 C 1650.3 1835.4, 1810.3 2003.7, 1916.9 1893.2 C 2031.2 1892.1, 2191.2 1930.5, 2297.9 1972.9 C 2412.1 1987.2, 2572.1 1846.2, 2678.8 2015.9 C 2793.1 2043.7, 2953.1 1874.9, 3059.7 1996.1 C 3174.0 2008.9, 3334.0 1865.2, 3440.6 1925.5" fill="none" stroke="url(#ribbon24)" stroke-width="30.4" stroke-linecap="round" stroke-opacity="0.302" /></g><g transform="rotate(-10.92 1536.0 1536.0)"><path d="M-368.6 2085.6 C -264.8 1986.4, -119.3 2132.4, -22.3 1974.0 C 81.5 1951.0, 227.0 2125.1, 324.0 2002.4 C 427.8 2019.3, 573.3 2162.0, 670.3 2081.2 C 774.1 2082.3, 919.6 2089.4, 1016.6 2162.7 C 1120.4 2133.1, 1265.9 2014.3, 1362.9 2197.4 C 1466.7 2169.0, 1612.2 2006.5, 1709.1 2164.3 C 1813.0 2154.1, 1958.5 2054.2, 2055.4 2083.5 C 2159.3 2083.9, 2304.8 2087.1, 2401.7 2003.9 C 2505.6 1972.1, 2651.1 2178.1, 2748.0 1973.9 C 2851.9 1975.7, 2997.4 2159.0, 3094.3 2011.7 C 3198.2 2019.6, 3343.7 2108.7, 3440.6 2094.3" fill="none" stroke="url(#ribbon24)" stroke-width="26.4" stroke-linecap="round" stroke-opacity="0.328" /></g><g transform="rotate(-10.34 1536.0 1536.0)"><path d="M-368.6 2245.2 C -273.4 2278.6, -140.1 2231.8, -51.2 2350.2 C 44.0 2356.8, 177.4 2123.4, 266.2 2358.3 C 361.5 2399.4, 494.8 2175.3, 583.7 2297.8 C 678.9 2311.5, 812.2 2200.4, 901.1 2205.4 C 996.4 2208.2, 1129.7 2281.0, 1218.6 2137.1 C 1313.8 2122.4, 1447.1 2314.1, 1536.0 2134.4 C 1631.2 2139.3, 1764.6 2359.6, 1853.4 2198.9 C 1948.7 2199.2, 2082.0 2286.9, 2170.9 2291.5 C 2266.1 2294.9, 2399.4 2196.6, 2488.3 2356.0 C 2583.6 2377.1, 2716.9 2120.7, 2805.8 2353.3 C 2901.0 2368.9, 3034.3 2204.1, 3123.2 2285.0 C 3218.4 2282.3, 3351.8 2233.1, 3440.6 2192.6" fill="none" stroke="url(#ribbon24)" stroke-width="22.4" stroke-linecap="round" stroke-opacity="0.354" /></g><g transform="rotate(-9.76 1536.0 1536.0)"><path d="M-368.6 2422.2 C -225.8 2578.8, -25.8 2361.0, 107.5 2474.7 C 250.4 2458.3, 450.4 2395.6, 583.7 2376.7 C 726.5 2380.8, 926.5 2440.5, 1059.8 2306.2 C 1202.7 2333.6, 1402.7 2542.2, 1536.0 2306.1 C 1678.8 2301.9, 1878.8 2495.7, 2012.2 2376.4 C 2155.0 2387.1, 2355.0 2438.1, 2488.3 2474.5 C 2631.2 2463.4, 2831.2 2399.4, 2964.5 2540.8 C 3107.3 2503.5, 3307.3 2295.8, 3440.6 2535.2" fill="none" stroke="url(#ribbon24)" stroke-width="18.4" stroke-linecap="round" stroke-opacity="0.380" /></g><g transform="rotate(-9.18 1536.0 1536.0)"><path d="M-368.6 2628.5 C -241.7 2726.1, -63.9 2519.1, 54.6 2741.9 C 181.6 2782.1, 359.4 2543.4, 477.9 2657.6 C 604.8 2650.3, 782.6 2609.8, 901.1 2555.7 C 1028.1 2534.4, 1205.9 2690.8, 1324.4 2497.9 C 1451.3 2540.3, 1629.1 2752.3, 1747.6 2519.4 C 1874.6 2512.1, 2052.4 2747.3, 2170.9 2607.0 C 2297.9 2600.3, 2475.6 2648.3, 2594.1 2707.7 C 2721.1 2704.9, 2898.9 2601.2, 3017.4 2760.3 C 3144.4 2714.0, 3322.1 2521.5, 3440.6 2733.0" fill="none" stroke="url(#ribbon24)" stroke-width="14.4" stroke-linecap="round" stroke-opacity="0.406" /></g></g>
  <g><ellipse cx="1536.0" cy="1551.9" rx="728.6" ry="605.7" fill="url(#extrude24)" opacity="0.220" /><ellipse cx="1536.0" cy="1567.7" rx="736.0" ry="610.9" fill="url(#extrude24)" opacity="0.205" /><ellipse cx="1536.0" cy="1583.6" rx="743.4" ry="616.1" fill="url(#extrude24)" opacity="0.190" /><ellipse cx="1536.0" cy="1599.5" rx="750.9" ry="621.3" fill="url(#extrude24)" opacity="0.175" /><ellipse cx="1536.0" cy="1615.4" rx="758.3" ry="626.5" fill="url(#extrude24)" opacity="0.160" /><ellipse cx="1536.0" cy="1631.2" rx="765.7" ry="631.7" fill="url(#extrude24)" opacity="0.145" /><ellipse cx="1536.0" cy="1647.1" rx="773.2" ry="636.9" fill="url(#extrude24)" opacity="0.130" /><ellipse cx="1536.0" cy="1663.0" rx="780.6" ry="642.1" fill="url(#extrude24)" opacity="0.115" /><ellipse cx="1536.0" cy="1678.8" rx="788.0" ry="647.4" fill="url(#extrude24)" opacity="0.100" /><ellipse cx="1536.0" cy="1694.7" rx="795.5" ry="652.6" fill="url(#extrude24)" opacity="0.085" /><ellipse cx="1536.0" cy="1710.6" rx="802.9" ry="657.8" fill="url(#extrude24)" opacity="0.070" /><ellipse cx="1536.0" cy="1726.5" rx="810.3" ry="663.0" fill="url(#extrude24)" opacity="0.055" /></g>
  <ellipse cx="1536.0" cy="1726.5" rx="773.2" ry="214.9" fill="#0B1D2D" opacity="0.24" />
  <ellipse cx="1536.0" cy="1536.0" rx="743.4" ry="651.3" fill="url(#orb24)" stroke="#FFFFFF" stroke-opacity="0.42" stroke-width="7" />
  <ellipse cx="1431.9" cy="1392.7" rx="505.5" ry="299.6" fill="#FFFFFF" opacity="0.25" />
  <path d="M 199.4 399.4 C 1013.8 -30.7, 2058.2 768.0, 2872.6 215.0 L 2872.6 983.0 C 2089.0 1228.8, 1013.8 307.2, 199.4 1167.4 Z" fill="url(#glass24)" />
  <rect x="270" y="270" width="2532" height="2532" rx="430" fill="none" stroke="#FFFFFF" stroke-opacity="0.30" stroke-width="5" />
  <rect x="288.4" y="288.4" width="2495.1" height="2495.1" rx="399" fill="none" stroke="#FF6AB3" stroke-opacity="0.35" stroke-width="3" />
  <g filter="url(#soft24)"><rect x="406" y="247" width="60" height="2" fill="#FFFFFF" opacity="0.435" /><rect x="435" y="218" width="2" height="60" fill="#FFFFFF" opacity="0.435" /><rect x="1187" y="2187" width="28" height="2" fill="#FFFFFF" opacity="0.499" /><rect x="1200" y="2174" width="2" height="28" fill="#FFFFFF" opacity="0.499" /><rect x="1868" y="2363" width="68" height="2" fill="#FFFFFF" opacity="0.654" /><rect x="1901" y="2330" width="2" height="68" fill="#FFFFFF" opacity="0.654" /><rect x="399" y="1805" width="78" height="2" fill="#FFFFFF" opacity="0.327" /><rect x="437" y="1767" width="2" height="78" fill="#FFFFFF" opacity="0.327" /><rect x="1226" y="1263" width="26" height="2" fill="#FFFFFF" opacity="0.633" /><rect x="1238" y="1251" width="2" height="26" fill="#FFFFFF" opacity="0.633" /><rect x="990" y="1087" width="46" height="2" fill="#FFFFFF" opacity="0.359" /><rect x="1012" y="1065" width="2" height="46" fill="#FFFFFF" opacity="0.359" /><rect x="885" y="507" width="54" height="2" fill="#FFFFFF" opacity="0.322" /><rect x="911" y="481" width="2" height="54" fill="#FFFFFF" opacity="0.322" /><rect x="2449" y="1379" width="24" height="2" fill="#FFFFFF" opacity="0.512" /><rect x="2460" y="1368" width="2" height="24" fill="#FFFFFF" opacity="0.512" /><rect x="652" y="1959" width="84" height="2" fill="#FFFFFF" opacity="0.400" /><rect x="693" y="1918" width="2" height="84" fill="#FFFFFF" opacity="0.400" /><rect x="1085" y="2143" width="84" height="2" fill="#FFFFFF" opacity="0.307" /><rect x="1126" y="2102" width="2" height="84" fill="#FFFFFF" opacity="0.307" /><rect x="2204" y="1977" width="24" height="2" fill="#FFFFFF" opacity="0.722" /><rect x="2215" y="1966" width="2" height="24" fill="#FFFFFF" opacity="0.722" /><rect x="1389" y="995" width="38" height="2" fill="#FFFFFF" opacity="0.502" /><rect x="1407" y="977" width="2" height="38" fill="#FFFFFF" opacity="0.502" /><rect x="440" y="1612" width="26" height="2" fill="#FFFFFF" opacity="0.463" /><rect x="452" y="1600" width="2" height="26" fill="#FFFFFF" opacity="0.463" /><rect x="1315" y="2726" width="30" height="2" fill="#FFFFFF" opacity="0.364" /><rect x="1329" y="2712" width="2" height="30" fill="#FFFFFF" opacity="0.364" /><rect x="2416" y="591" width="56" height="2" fill="#FFFFFF" opacity="0.487" /><rect x="2443" y="564" width="2" height="56" fill="#FFFFFF" opacity="0.487" /><rect x="314" y="2029" width="30" height="2" fill="#FFFFFF" opacity="0.466" /><rect x="328" y="2015" width="2" height="30" fill="#FFFFFF" opacity="0.466" /><rect x="2695" y="272" width="40" height="2" fill="#FFFFFF" opacity="0.807" /><rect x="2714" y="253" width="2" height="40" fill="#FFFFFF" opacity="0.807" /><rect x="1500" y="385" width="38" height="2" fill="#FFFFFF" opacity="0.579" /><rect x="1518" y="367" width="2" height="38" fill="#FFFFFF" opacity="0.579" /><rect x="1019" y="463" width="74" height="2" fill="#FFFFFF" opacity="0.828" /><rect x="1055" y="427" width="2" height="74" fill="#FFFFFF" opacity="0.828" /><rect x="870" y="1706" width="42" height="2" fill="#FFFFFF" opacity="0.339" /><rect x="890" y="1686" width="2" height="42" fill="#FFFFFF" opacity="0.339" /><rect x="2163" y="2693" width="56" height="2" fill="#FFFFFF" opacity="0.716" /><rect x="2190" y="2666" width="2" height="56" fill="#FFFFFF" opacity="0.716" /><rect x="1197" y="1824" width="68" height="2" fill="#FFFFFF" opacity="0.509" /><rect x="1230" y="1791" width="2" height="68" fill="#FFFFFF" opacity="0.509" /><rect x="2349" y="2304" width="64" height="2" fill="#FFFFFF" opacity="0.619" /><rect x="2380" y="2273" width="2" height="64" fill="#FFFFFF" opacity="0.619" /><rect x="345" y="2077" width="72" height="2" fill="#FFFFFF" opacity="0.412" /><rect x="380" y="2042" width="2" height="72" fill="#FFFFFF" opacity="0.412" /><rect x="710" y="2118" width="76" height="2" fill="#FFFFFF" opacity="0.452" /><rect x="747" y="2081" width="2" height="76" fill="#FFFFFF" opacity="0.452" /><rect x="1647" y="1644" width="80" height="2" fill="#FFFFFF" opacity="0.360" /><rect x="1686" y="1605" width="2" height="80" fill="#FFFFFF" opacity="0.360" /></g>
  <g opacity="0.52"><circle cx="1572" cy="1582" r="307" fill="none" stroke="#0C2030" stroke-width="90" /><line x1="1791" y1="1801" x2="2340" y2="2350" stroke="#0C2030" stroke-width="90" stroke-linecap="round" /></g>
  <g filter="url(#soft24)"><circle cx="1536" cy="1536" r="307" fill="none" stroke="url(#symbol24)" stroke-width="90" /><line x1="1755" y1="1755" x2="2304" y2="2304" stroke="url(#symbol24)" stroke-width="90" stroke-linecap="round" /></g>
  <rect x="138" y="138" width="2796" height="2796" rx="629" fill="#FFFFFF" filter="url(#grain24)" opacity="0.18" />
</svg>
