<svg xmlns="http://www.w3.org/2000/svg" width="3072" height="3072" viewBox="0 0 3072 3072">
  <title>QuartzOS App Icon 165 - bright_terminal_165</title>
  <defs><linearGradient id="bg164" x1="0%" y1="0%" x2="100%" y2="100%"><stop offset="0%" stop-color="#FF6AB3" /><stop offset="26%" stop-color="#FFD84D" /><stop offset="56%" stop-color="#36D1FF" /><stop offset="78%" stop-color="#3C8FC1" /><stop offset="100%" stop-color="#1E2E3A" /></linearGradient><radialGradient id="sun164" cx="26%" cy="33%" r="88%"><stop offset="0%" stop-color="#FFFFFF" stop-opacity="0.62" /><stop offset="30%" stop-color="#3B82FF" stop-opacity="0.35" /><stop offset="100%" stop-color="#3B82FF" stop-opacity="0" /></radialGradient><linearGradient id="glass164" x1="0%" y1="0%" x2="0%" y2="100%"><stop offset="0%" stop-color="#FFFFFF" stop-opacity="0.70" /><stop offset="46%" stop-color="#FFFFFF" stop-opacity="0.26" /><stop offset="100%" stop-color="#FFFFFF" stop-opacity="0.00" /></linearGradient><linearGradient id="ribbon164" x1="0%" y1="0%" x2="100%" y2="0%"><stop offset="0%" stop-color="#FF6AB3" stop-opacity="0.18" /><stop offset="34%" stop-color="#FFD84D" stop-opacity="0.72" /><stop offset="66%" stop-color="#36D1FF" stop-opacity="0.72" /><stop offset="100%" stop-color="#3B82FF" stop-opacity="0.18" /></linearGradient><radialGradient id="orb164" cx="34%" cy="27%" r="74%"><stop offset="0%" stop-color="#FFFFFF" stop-opacity="0.84" /><stop offset="30%" stop-color="#FF6AB3" stop-opacity="0.52" /><stop offset="68%" stop-color="#FFD84D" stop-opacity="0.42" /><stop offset="100%" stop-color="#36D1FF" stop-opacity="0.20" /></radialGradient><linearGradient id="extrude164" x1="0%" y1="0%" x2="0%" y2="100%"><stop offset="0%" stop-color="#15283C" stop-opacity="0.45" /><stop offset="100%" stop-color="#08131D" stop-opacity="0.06" /></linearGradient><linearGradient id="symbol164" x1="0%" y1="0%" x2="100%" y2="100%"><stop offset="0%" stop-color="#FFFFFF" /><stop offset="100%" stop-color="#3B82FF" /></linearGradient><filter id="shadow164" x="-40%" y="-40%" width="180%" height="180%"><feDropShadow dx="0" dy="49" stdDeviation="86" flood-color="#06111A" flood-opacity="0.54" /></filter><filter id="soft164" x="-40%" y="-40%" width="180%" height="180%"><feDropShadow dx="0" dy="0" stdDeviation="14" flood-color="#FF6AB3" flood-opacity="0.45" /></filter><filter id="grain164"><feTurbulence type="fractalNoise" baseFrequency="0.820" numOctaves="2" seed="164" /><feColorMatrix type="saturate" values="0" /><feComponentTransfer><feFuncA type="table" tableValues="0 0.09" /></feComponentTransfer></filter></defs>
  <rect x="138" y="138" width="2796" height="2796" rx="629" fill="url(#bg164)" filter="url(#shadow164)" />
  <rect x="138" y="138" width="2796" height="2796" rx="629" fill="url(#sun164)" />
  <g><circle cx="1776" cy="2381" r="91" fill="#FFFFFF" opacity="0.122" /><circle cx="1203" cy="1548" r="131" fill="#FFFFFF" opacity="0.113" /><circle cx="1187" cy="640" r="98" fill="#FFFFFF" opacity="0.116" /><circle cx="2302" cy="481" r="113" fill="#FFFFFF" opacity="0.109" /><circle cx="1936" cy="2197" r="38" fill="#FFFFFF" opacity="0.084" /><circle cx="1826" cy="2559" r="85" fill="#FFFFFF" opacity="0.149" /><circle cx="1900" cy="1864" r="135" fill="#FFFFFF" opacity="0.168" /><circle cx="1468" cy="902" r="79" fill="#FFFFFF" opacity="0.077" /><circle cx="1383" cy="2470" r="55" fill="#FFFFFF" opacity="0.087" /><circle cx="1373" cy="2329" r="99" fill="#FFFFFF" opacity="0.191" /><circle cx="1329" cy="660" r="130" fill="#FFFFFF" opacity="0.079" /><circle cx="1927" cy="950" r="92" fill="#FFFFFF" opacity="0.235" /><circle cx="521" cy="2189" r="127" fill="#FFFFFF" opacity="0.184" /><circle cx="2198" cy="433" r="43" fill="#FFFFFF" opacity="0.151" /><circle cx="1091" cy="2033" r="116" fill="#FFFFFF" opacity="0.216" /><circle cx="2015" cy="1069" r="79" fill="#FFFFFF" opacity="0.075" /><circle cx="1341" cy="1179" r="120" fill="#FFFFFF" opacity="0.237" /><circle cx="696" cy="1967" r="87" fill="#FFFFFF" opacity="0.124" /><circle cx="1547" cy="2613" r="135" fill="#FFFFFF" opacity="0.104" /><circle cx="1762" cy="1603" r="83" fill="#FFFFFF" opacity="0.148" /><circle cx="1735" cy="850" r="38" fill="#FFFFFF" opacity="0.237" /><circle cx="2617" cy="1513" r="91" fill="#FFFFFF" opacity="0.167" /><circle cx="778" cy="988" r="120" fill="#FFFFFF" opacity="0.193" /><circle cx="1880" cy="1148" r="152" fill="#FFFFFF" opacity="0.236" /><circle cx="1472" cy="2549" r="147" fill="#FFFFFF" opacity="0.093" /><circle cx="1039" cy="670" r="104" fill="#FFFFFF" opacity="0.092" /><circle cx="574" cy="852" r="151" fill="#FFFFFF" opacity="0.205" /><circle cx="399" cy="2094" r="95" fill="#FFFFFF" opacity="0.216" /></g>
  <g><path d="M 230.3 600.5 L 2857.9 324.0 L 2857.9 777.5 L 230.3 1054.0 Z" fill="#FFFFFF" opacity="0.125" /><path d="M 331.9 879.4 L 2799.5 603.0 L 2799.5 1033.4 L 331.9 1309.8 Z" fill="#FFFFFF" opacity="0.204" /><path d="M 306.6 1132.8 L 2744.5 856.3 L 2744.5 1323.5 L 306.6 1600.0 Z" fill="#FFFFFF" opacity="0.173" /><path d="M 249.3 1425.9 L 2895.8 1149.4 L 2895.8 1580.9 L 249.3 1857.4 Z" fill="#FFFFFF" opacity="0.207" /><path d="M 180.2 1687.6 L 2861.5 1411.2 L 2861.5 1841.5 L 180.2 2118.0 Z" fill="#FFFFFF" opacity="0.082" /><path d="M 261.8 1935.1 L 2694.2 1658.7 L 2694.2 2152.8 L 261.8 2429.2 Z" fill="#FFFFFF" opacity="0.091" /><path d="M 296.9 2140.7 L 2769.1 1864.2 L 2769.1 2355.8 L 296.9 2632.2 Z" fill="#FFFFFF" opacity="0.120" /><path d="M 147.5 2416.9 L 2740.3 2140.4 L 2740.3 2633.8 L 147.5 2910.3 Z" fill="#FFFFFF" opacity="0.220" /></g>
  <g filter="url(#soft164)"><g transform="rotate(-13.01 1536.0 1536.0)"><path d="M-368.6 547.0 C -225.8 534.2, -25.8 554.5, 107.5 497.7 C 250.4 489.1, 450.4 605.5, 583.7 494.8 C 726.5 513.5, 926.5 607.4, 1059.8 523.6 C 1202.7 532.1, 1402.7 562.2, 1536.0 566.6 C 1678.8 567.3, 1878.8 527.1, 2012.2 597.8 C 2155.0 593.1, 2355.0 505.0, 2488.3 598.1 C 2631.2 585.8, 2831.2 508.1, 2964.5 567.5 C 3107.3 560.5, 3307.3 527.4, 3440.6 524.5" fill="none" stroke="url(#ribbon164)" stroke-width="58.4" stroke-linecap="round" stroke-opacity="0.120" /></g><g transform="rotate(-12.43 1536.0 1536.0)"><path d="M-368.6 715.2 C -241.7 738.0, -63.9 679.5, 54.6 777.0 C 181.6 786.1, 359.4 666.9, 477.9 764.3 C 604.8 758.9, 782.6 679.3, 901.1 721.8 C 1028.1 720.0, 1205.9 710.1, 1324.4 675.3 C 1451.3 674.4, 1629.1 754.2, 1747.6 653.0 C 1874.6 659.1, 2052.4 735.9, 2170.9 668.5 C 2297.9 662.7, 2475.6 752.0, 2594.1 712.3 C 2721.1 712.8, 2898.9 717.7, 3017.4 757.9 C 3144.4 760.4, 3322.1 697.7, 3440.6 777.6" fill="none" stroke="url(#ribbon164)" stroke-width="54.4" stroke-linecap="round" stroke-opacity="0.146" /></g><g transform="rotate(-11.85 1536.0 1536.0)"><path d="M-368.6 927.6 C -254.4 849.8, -94.4 998.1, 12.3 861.3 C 126.6 840.4, 286.6 974.9, 393.2 896.1 C 507.5 896.8, 667.5 949.6, 774.1 950.1 C 888.4 943.9, 1048.4 916.3, 1155.1 990.4 C 1269.4 981.7, 1429.3 904.7, 1536.0 992.6 C 1650.3 1007.6, 1810.3 863.0, 1916.9 955.3 C 2031.2 954.0, 2191.2 909.9, 2297.9 901.3 C 2412.1 901.4, 2572.1 950.8, 2678.8 863.2 C 2793.1 857.1, 2953.1 994.9, 3059.7 864.1 C 3174.0 848.9, 3334.0 968.8, 3440.6 903.6" fill="none" stroke="url(#ribbon164)" stroke-width="50.4" stroke-linecap="round" stroke-opacity="0.172" /></g><g transform="rotate(-11.27 1536.0 1536.0)"><path d="M-368.6 1056.1 C -264.8 986.2, -119.3 1116.1, -22.3 981.8 C 81.5 993.9, 227.0 1081.0, 324.0 1017.6 C 427.8 1006.2, 573.3 1083.8, 670.3 1076.7 C 774.1 1075.8, 919.6 1045.2, 1016.6 1123.3 C 1120.4 1149.4, 1265.9 1032.1, 1362.9 1129.1 C 1466.7 1116.3, 1612.2 982.5, 1709.1 1090.6 C 1813.0 1103.8, 1958.5 1040.5, 2055.4 1031.1 C 2159.3 1025.2, 2304.8 1073.4, 2401.7 986.8 C 2505.6 967.0, 2651.1 1086.8, 2748.0 984.5 C 2851.9 990.8, 2997.4 1132.4, 3094.3 1025.6 C 3198.2 1017.5, 3343.7 1090.5, 3440.6 1085.2" fill="none" stroke="url(#ribbon164)" stroke-width="46.4" stroke-linecap="round" stroke-opacity="0.198" /></g><g transform="rotate(-10.69 1536.0 1536.0)"><path d="M-368.6 1296.2 C -273.4 1357.8, -140.1 1266.3, -51.2 1378.4 C 44.0 1360.2, 177.4 1254.9, 266.2 1364.3 C 361.5 1358.4, 494.8 1258.4, 583.7 1308.9 C 678.9 1309.8, 812.2 1281.6, 901.1 1245.8 C 996.4 1263.6, 1129.7 1355.9, 1218.6 1213.3 C 1313.8 1221.4, 1447.1 1370.6, 1536.0 1231.0 C 1631.2 1245.1, 1764.6 1332.3, 1853.4 1288.3 C 1948.7 1285.7, 2082.0 1304.8, 2170.9 1350.3 C 2266.1 1367.9, 2399.4 1255.4, 2488.3 1379.6 C 2583.6 1408.3, 2716.9 1246.8, 2805.8 1358.2 C 2901.0 1366.1, 3034.3 1254.1, 3123.2 1299.2 C 3218.4 1299.4, 3351.8 1294.0, 3440.6 1238.4" fill="none" stroke="url(#ribbon164)" stroke-width="42.4" stroke-linecap="round" stroke-opacity="0.224" /></g><g transform="rotate(-10.11 1536.0 1536.0)"><path d="M-368.6 1435.7 C -225.8 1360.6, -25.8 1499.2, 107.5 1368.3 C 250.4 1357.1, 450.4 1465.7, 583.7 1432.2 C 726.5 1431.7, 926.5 1437.6, 1059.8 1498.2 C 1202.7 1485.8, 1402.7 1399.2, 1536.0 1526.3 C 1678.8 1511.7, 1878.8 1399.3, 2012.2 1499.3 C 2155.0 1519.2, 2355.0 1415.1, 2488.3 1433.8 C 2631.2 1434.1, 2831.2 1437.2, 2964.5 1369.3 C 3107.3 1381.5, 3307.3 1501.5, 3440.6 1345.1" fill="none" stroke="url(#ribbon164)" stroke-width="38.4" stroke-linecap="round" stroke-opacity="0.250" /></g><g transform="rotate(-9.53 1536.0 1536.0)"><path d="M-368.6 1710.0 C -241.7 1746.5, -63.9 1695.2, 54.6 1797.4 C 181.6 1824.0, 359.4 1622.2, 477.9 1802.2 C 604.8 1817.0, 782.6 1661.0, 901.1 1751.1 C 1028.1 1765.8, 1205.9 1678.5, 1324.4 1675.0 C 1451.3 1675.5, 1629.1 1747.7, 1747.6 1620.2 C 1874.6 1591.6, 2052.4 1750.6, 2170.9 1619.8 C 2297.9 1621.0, 2475.6 1798.8, 2594.1 1674.2 C 2721.1 1684.6, 2898.9 1728.9, 3017.4 1750.2 C 3144.4 1757.1, 3322.1 1671.7, 3440.6 1801.9" fill="none" stroke="url(#ribbon164)" stroke-width="34.4" stroke-linecap="round" stroke-opacity="0.276" /></g><g transform="rotate(-8.95 1536.0 1536.0)"><path d="M-368.6 1919.4 C -254.4 1856.0, -94.4 2004.6, 12.3 1814.8 C 126.6 1811.8, 286.6 1993.1, 393.2 1850.4 C 507.5 1825.6, 667.5 1976.4, 774.1 1927.9 C 888.4 1928.0, 1048.4 1913.7, 1155.1 2000.2 C 1269.4 2011.3, 1429.3 1873.8, 1536.0 2023.6 C 1650.3 1999.8, 1810.3 1809.0, 1916.9 1983.7 C 2031.2 1968.8, 2191.2 1894.4, 2297.9 1904.9 C 2412.1 1903.8, 2572.1 1923.9, 2678.8 1834.9 C 2793.1 1860.6, 2953.1 1981.6, 3059.7 1816.2 C 3174.0 1852.0, 3334.0 2028.2, 3440.6 1860.1" fill="none" stroke="url(#ribbon164)" stroke-width="30.4" stroke-linecap="round" stroke-opacity="0.302" /></g><g transform="rotate(-8.37 1536.0 1536.0)"><path d="M-368.6 2096.7 C -264.8 2216.0, -119.3 1966.8, -22.3 2157.5 C 81.5 2172.4, 227.0 2055.6, 324.0 2071.8 C 427.8 2079.3, 573.3 2119.2, 670.3 2001.1 C 774.1 2013.0, 919.6 2168.1, 1016.6 1988.4 C 1120.4 2022.1, 1265.9 2132.5, 1362.9 2041.4 C 1466.7 2053.2, 1612.2 2138.0, 1709.1 2127.8 C 1813.0 2120.5, 1958.5 2067.3, 2055.4 2195.4 C 2159.3 2229.4, 2304.8 2061.7, 2401.7 2203.1 C 2505.6 2182.0, 2651.1 1970.8, 2748.0 2146.2 C 2851.9 2152.7, 2997.4 2073.0, 3094.3 2059.3 C 3198.2 2048.7, 3343.7 2132.0, 3440.6 1995.0" fill="none" stroke="url(#ribbon164)" stroke-width="26.4" stroke-linecap="round" stroke-opacity="0.328" /></g><g transform="rotate(-7.79 1536.0 1536.0)"><path d="M-368.6 2242.4 C -273.4 2340.5, -140.1 2146.8, -51.2 2247.9 C 44.0 2247.3, 177.4 2239.5, 266.2 2161.1 C 361.5 2154.8, 494.8 2285.7, 583.7 2123.5 C 678.9 2142.0, 812.2 2341.9, 901.1 2158.0 C 996.4 2162.3, 1129.7 2274.4, 1218.6 2243.7 C 1313.8 2243.9, 1447.1 2241.6, 1536.0 2328.6 C 1631.2 2330.1, 1764.6 2205.8, 1853.4 2361.1 C 1948.7 2342.0, 2082.0 2099.9, 2170.9 2321.7 C 2266.1 2351.5, 2399.4 2168.9, 2488.3 2234.1 C 2583.6 2232.2, 2716.9 2247.4, 2805.8 2151.5 C 2901.0 2176.1, 3034.3 2342.2, 3123.2 2124.1 C 3218.4 2086.8, 3351.8 2352.5, 3440.6 2168.4" fill="none" stroke="url(#ribbon164)" stroke-width="22.4" stroke-linecap="round" stroke-opacity="0.354" /></g><g transform="rotate(-7.21 1536.0 1536.0)"><path d="M-368.6 2444.9 C -225.8 2371.6, -25.8 2496.1, 107.5 2321.6 C 250.4 2302.9, 450.4 2520.7, 583.7 2340.8 C 726.5 2367.0, 926.5 2486.8, 1059.8 2423.3 C 1202.7 2416.9, 1402.7 2469.3, 1536.0 2518.8 C 1678.8 2494.3, 1878.8 2393.8, 2012.2 2569.6 C 2155.0 2562.4, 2355.0 2375.5, 2488.3 2544.7 C 2631.2 2578.7, 2831.2 2336.1, 2964.5 2459.4 C 3107.3 2464.2, 3307.3 2434.9, 3440.6 2365.2" fill="none" stroke="url(#ribbon164)" stroke-width="18.4" stroke-linecap="round" stroke-opacity="0.380" /></g><g transform="rotate(-6.63 1536.0 1536.0)"><path d="M-368.6 2663.5 C -241.7 2782.3, -63.9 2624.5, 54.6 2677.1 C 181.6 2676.8, 359.4 2654.5, 477.9 2578.0 C 604.8 2596.2, 782.6 2694.6, 901.1 2530.8 C 1028.1 2578.8, 1205.9 2772.8, 1324.4 2564.0 C 1451.3 2537.8, 1629.1 2736.7, 1747.6 2657.6 C 1874.6 2657.1, 2052.4 2669.9, 2170.9 2754.7 C 2297.9 2765.7, 2475.6 2608.5, 2594.1 2796.5 C 2721.1 2827.3, 2898.9 2547.2, 3017.4 2757.5 C 3144.4 2784.4, 3322.1 2598.2, 3440.6 2661.5" fill="none" stroke="url(#ribbon164)" stroke-width="14.4" stroke-linecap="round" stroke-opacity="0.406" /></g></g>
  <g><ellipse cx="1536.0" cy="1551.9" rx="728.6" ry="605.7" fill="url(#extrude164)" opacity="0.220" /><ellipse cx="1536.0" cy="1567.7" rx="736.0" ry="610.9" fill="url(#extrude164)" opacity="0.205" /><ellipse cx="1536.0" cy="1583.6" rx="743.4" ry="616.1" fill="url(#extrude164)" opacity="0.190" /><ellipse cx="1536.0" cy="1599.5" rx="750.9" ry="621.3" fill="url(#extrude164)" opacity="0.175" /><ellipse cx="1536.0" cy="1615.4" rx="758.3" ry="626.5" fill="url(#extrude164)" opacity="0.160" /><ellipse cx="1536.0" cy="1631.2" rx="765.7" ry="631.7" fill="url(#extrude164)" opacity="0.145" /><ellipse cx="1536.0" cy="1647.1" rx="773.2" ry="636.9" fill="url(#extrude164)" opacity="0.130" /><ellipse cx="1536.0" cy="1663.0" rx="780.6" ry="642.1" fill="url(#extrude164)" opacity="0.115" /><ellipse cx="1536.0" cy="1678.8" rx="788.0" ry="647.4" fill="url(#extrude164)" opacity="0.100" /><ellipse cx="1536.0" cy="1694.7" rx="795.5" ry="652.6" fill="url(#extrude164)" opacity="0.085" /><ellipse cx="1536.0" cy="1710.6" rx="802.9" ry="657.8" fill="url(#extrude164)" opacity="0.070" /><ellipse cx="1536.0" cy="1726.5" rx="810.3" ry="663.0" fill="url(#extrude164)" opacity="0.055" /></g>
  <ellipse cx="1536.0" cy="1726.5" rx="773.2" ry="214.9" fill="#0B1D2D" opacity="0.24" />
  <ellipse cx="1536.0" cy="1536.0" rx="743.4" ry="651.3" fill="url(#orb164)" stroke="#FFFFFF" stroke-opacity="0.42" stroke-width="7" />
  <ellipse cx="1431.9" cy="1392.7" rx="505.5" ry="299.6" fill="#FFFFFF" opacity="0.25" />
  <path d="M 199.4 399.4 C 1013.8 -30.7, 2058.2 768.0, 2872.6 215.0 L 2872.6 983.0 C 2089.0 1228.8, 1013.8 307.2, 199.4 1167.4 Z" fill="url(#glass164)" />
  <rect x="270" y="270" width="2532" height="2532" rx="430" fill="none" stroke="#FFFFFF" stroke-opacity="0.30" stroke-width="5" />
  <rect x="288.4" y="288.4" width="2495.1" height="2495.1" rx="399" fill="none" stroke="#FF6AB3" stroke-opacity="0.35" stroke-width="3" />
  <g filter="url(#soft164)"><rect x="409" y="435" width="56" height="2" fill="#FFFFFF" opacity="0.305" /><rect x="436" y="408" width="2" height="56" fill="#FFFFFF" opacity="0.305" /><rect x="1283" y="2582" width="26" height="2" fill="#FFFFFF" opacity="0.811" /><rect x="1295" y="2570" width="2" height="26" fill="#FFFFFF" opacity="0.811" /><rect x="2648" y="1075" width="50" height="2" fill="#FFFFFF" opacity="0.719" /><rect x="2672" y="1051" width="2" height="50" fill="#FFFFFF" opacity="0.719" /><rect x="762" y="2708" width="24" height="2" fill="#FFFFFF" opacity="0.828" /><rect x="773" y="2697" width="2" height="24" fill="#FFFFFF" opacity="0.828" /><rect x="2781" y="1473" width="26" height="2" fill="#FFFFFF" opacity="0.787" /><rect x="2793" y="1461" width="2" height="26" fill="#FFFFFF" opacity="0.787" /><rect x="1868" y="824" width="36" height="2" fill="#FFFFFF" opacity="0.590" /><rect x="1885" y="807" width="2" height="36" fill="#FFFFFF" opacity="0.590" /><rect x="1623" y="648" width="58" height="2" fill="#FFFFFF" opacity="0.338" /><rect x="1651" y="620" width="2" height="58" fill="#FFFFFF" opacity="0.338" /><rect x="1507" y="1266" width="58" height="2" fill="#FFFFFF" opacity="0.682" /><rect x="1535" y="1238" width="2" height="58" fill="#FFFFFF" opacity="0.682" /><rect x="1237" y="1827" width="34" height="2" fill="#FFFFFF" opacity="0.440" /><rect x="1253" y="1811" width="2" height="34" fill="#FFFFFF" opacity="0.440" /><rect x="2414" y="1323" width="50" height="2" fill="#FFFFFF" opacity="0.696" /><rect x="2438" y="1299" width="2" height="50" fill="#FFFFFF" opacity="0.696" /><rect x="1344" y="998" width="32" height="2" fill="#FFFFFF" opacity="0.592" /><rect x="1359" y="983" width="2" height="32" fill="#FFFFFF" opacity="0.592" /><rect x="2545" y="2538" width="24" height="2" fill="#FFFFFF" opacity="0.435" /><rect x="2556" y="2527" width="2" height="24" fill="#FFFFFF" opacity="0.435" /><rect x="610" y="2064" width="76" height="2" fill="#FFFFFF" opacity="0.368" /><rect x="647" y="2027" width="2" height="76" fill="#FFFFFF" opacity="0.368" /><rect x="1656" y="758" width="80" height="2" fill="#FFFFFF" opacity="0.601" /><rect x="1695" y="719" width="2" height="80" fill="#FFFFFF" opacity="0.601" /><rect x="2424" y="676" width="50" height="2" fill="#FFFFFF" opacity="0.524" /><rect x="2448" y="652" width="2" height="50" fill="#FFFFFF" opacity="0.524" /><rect x="2580" y="265" width="30" height="2" fill="#FFFFFF" opacity="0.767" /><rect x="2594" y="251" width="2" height="30" fill="#FFFFFF" opacity="0.767" /><rect x="2339" y="2222" width="66" height="2" fill="#FFFFFF" opacity="0.310" /><rect x="2371" y="2190" width="2" height="66" fill="#FFFFFF" opacity="0.310" /><rect x="1442" y="1620" width="42" height="2" fill="#FFFFFF" opacity="0.686" /><rect x="1462" y="1600" width="2" height="42" fill="#FFFFFF" opacity="0.686" /><rect x="631" y="933" width="30" height="2" fill="#FFFFFF" opacity="0.301" /><rect x="645" y="919" width="2" height="30" fill="#FFFFFF" opacity="0.301" /><rect x="694" y="1000" width="42" height="2" fill="#FFFFFF" opacity="0.533" /><rect x="714" y="980" width="2" height="42" fill="#FFFFFF" opacity="0.533" /><rect x="1373" y="708" width="52" height="2" fill="#FFFFFF" opacity="0.323" /><rect x="1398" y="683" width="2" height="52" fill="#FFFFFF" opacity="0.323" /><rect x="1079" y="1026" width="28" height="2" fill="#FFFFFF" opacity="0.630" /><rect x="1092" y="1013" width="2" height="28" fill="#FFFFFF" opacity="0.630" /><rect x="1361" y="2094" width="56" height="2" fill="#FFFFFF" opacity="0.703" /><rect x="1388" y="2067" width="2" height="56" fill="#FFFFFF" opacity="0.703" /><rect x="816" y="337" width="78" height="2" fill="#FFFFFF" opacity="0.655" /><rect x="854" y="299" width="2" height="78" fill="#FFFFFF" opacity="0.655" /><rect x="904" y="753" width="40" height="2" fill="#FFFFFF" opacity="0.816" /><rect x="923" y="734" width="2" height="40" fill="#FFFFFF" opacity="0.816" /><rect x="2026" y="2218" width="72" height="2" fill="#FFFFFF" opacity="0.540" /><rect x="2061" y="2183" width="2" height="72" fill="#FFFFFF" opacity="0.540" /></g>
  <g opacity="0.52"><path d="M1023 1326 L1572 1070 L2121 1326 L2121 2043 L1023 2043 Z" fill="none" stroke="#0C2030" stroke-width="90" stroke-linejoin="round" /><line x1="1572" y1="1070" x2="1572" y2="2043" stroke="#0C2030" stroke-width="88" /></g>
  <g filter="url(#soft164)"><path d="M987 1280 L1536 1024 L2085 1280 L2085 1997 L987 1997 Z" fill="none" stroke="url(#symbol164)" stroke-width="90" stroke-linejoin="round" /><line x1="1536" y1="1024" x2="1536" y2="1997" stroke="url(#symbol164)" stroke-width="88" /></g>
  <rect x="138" y="138" width="2796" height="2796" rx="629" fill="#FFFFFF" filter="url(#grain164)" opacity="0.18" />
</svg>
