<svg xmlns="http://www.w3.org/2000/svg" width="3072" height="3072" viewBox="0 0 3072 3072">
  <title>QuartzOS App Icon 305 - bright_monitor_305</title>
  <defs><linearGradient id="bg304" x1="0%" y1="0%" x2="100%" y2="100%"><stop offset="0%" stop-color="#FF6AB3" /><stop offset="26%" stop-color="#FFD84D" /><stop offset="56%" stop-color="#36D1FF" /><stop offset="78%" stop-color="#5AA47F" /><stop offset="100%" stop-color="#1A2B22" /></linearGradient><radialGradient id="sun304" cx="24%" cy="19%" r="88%"><stop offset="0%" stop-color="#FFFFFF" stop-opacity="0.62" /><stop offset="30%" stop-color="#3B82FF" stop-opacity="0.35" /><stop offset="100%" stop-color="#3B82FF" stop-opacity="0" /></radialGradient><linearGradient id="glass304" x1="0%" y1="0%" x2="0%" y2="100%"><stop offset="0%" stop-color="#FFFFFF" stop-opacity="0.70" /><stop offset="46%" stop-color="#FFFFFF" stop-opacity="0.26" /><stop offset="100%" stop-color="#FFFFFF" stop-opacity="0.00" /></linearGradient><linearGradient id="ribbon304" x1="0%" y1="0%" x2="100%" y2="0%"><stop offset="0%" stop-color="#FF6AB3" stop-opacity="0.18" /><stop offset="34%" stop-color="#FFD84D" stop-opacity="0.72" /><stop offset="66%" stop-color="#36D1FF" stop-opacity="0.72" /><stop offset="100%" stop-color="#3B82FF" stop-opacity="0.18" /></linearGradient><radialGradient id="orb304" cx="34%" cy="27%" r="74%"><stop offset="0%" stop-color="#FFFFFF" stop-opacity="0.84" /><stop offset="30%" stop-color="#FF6AB3" stop-opacity="0.52" /><stop offset="68%" stop-color="#FFD84D" stop-opacity="0.42" /><stop offset="100%" stop-color="#36D1FF" stop-opacity="0.20" /></radialGradient><linearGradient id="extrude304" x1="0%" y1="0%" x2="0%" y2="100%"><stop offset="0%" stop-color="#15283C" stop-opacity="0.45" /><stop offset="100%" stop-color="#08131D" stop-opacity="0.06" /></linearGradient><linearGradient id="symbol304" x1="0%" y1="0%" x2="100%" y2="100%"><stop offset="0%" stop-color="#FFFFFF" /><stop offset="100%" stop-color="#3B82FF" /></linearGradient><filter id="shadow304" x="-40%" y="-40%" width="180%" height="180%"><feDropShadow dx="0" dy="49" stdDeviation="86" flood-color="#06111A" flood-opacity="0.54" /></filter><filter id="soft304" x="-40%" y="-40%" width="180%" height="180%"><feDropShadow dx="0" dy="0" stdDeviation="14" flood-color="#FF6AB3" flood-opacity="0.45" /></filter><filter id="grain304"><feTurbulence type="fractalNoise" baseFrequency="0.665" numOctaves="2" seed="304" /><feColorMatrix type="saturate" values="0" /><feComponentTransfer><feFuncA type="table" tableValues="0 0.09" /></feComponentTransfer></filter></defs>
  <rect x="138" y="138" width="2796" height="2796" rx="629" fill="url(#bg304)" filter="url(#shadow304)" />
  <rect x="138" y="138" width="2796" height="2796" rx="629" fill="url(#sun304)" />
  <g><circle cx="659" cy="855" r="132" fill="#FFFFFF" opacity="0.159" /><circle cx="2159" cy="853" r="70" fill="#FFFFFF" opacity="0.086" /><circle cx="2699" cy="1658" r="114" fill="#FFFFFF" opacity="0.153" /><circle cx="2344" cy="1279" r="82" fill="#FFFFFF" opacity="0.075" /><circle cx="1367" cy="1524" r="125" fill="#FFFFFF" opacity="0.229" /><circle cx="395" cy="1661" r="38" fill="#FFFFFF" opacity="0.203" /><circle cx="669" cy="2204" r="90" fill="#FFFFFF" opacity="0.174" /><circle cx="1566" cy="1932" r="110" fill="#FFFFFF" opacity="0.111" /><circle cx="2394" cy="618" r="97" fill="#FFFFFF" opacity="0.092" /><circle cx="2109" cy="1346" r="140" fill="#FFFFFF" opacity="0.223" /><circle cx="460" cy="2141" r="146" fill="#FFFFFF" opacity="0.123" /><circle cx="2375" cy="748" r="42" fill="#FFFFFF" opacity="0.152" /><circle cx="2262" cy="1075" r="43" fill="#FFFFFF" opacity="0.126" /><circle cx="2550" cy="804" r="98" fill="#FFFFFF" opacity="0.112" /><circle cx="2300" cy="2617" r="155" fill="#FFFFFF" opacity="0.228" /><circle cx="2037" cy="970" r="150" fill="#FFFFFF" opacity="0.156" /><circle cx="1482" cy="2438" r="86" fill="#FFFFFF" opacity="0.083" /><circle cx="2493" cy="1619" r="153" fill="#FFFFFF" opacity="0.080" /><circle cx="2059" cy="561" r="65" fill="#FFFFFF" opacity="0.073" /><circle cx="498" cy="2109" r="121" fill="#FFFFFF" opacity="0.216" /><circle cx="1535" cy="1606" r="124" fill="#FFFFFF" opacity="0.137" /><circle cx="2553" cy="2014" r="86" fill="#FFFFFF" opacity="0.188" /><circle cx="1903" cy="1413" r="154" fill="#FFFFFF" opacity="0.188" /><circle cx="1703" cy="691" r="52" fill="#FFFFFF" opacity="0.172" /><circle cx="1514" cy="766" r="79" fill="#FFFFFF" opacity="0.132" /><circle cx="2163" cy="2399" r="92" fill="#FFFFFF" opacity="0.132" /><circle cx="2267" cy="702" r="51" fill="#FFFFFF" opacity="0.215" /><circle cx="900" cy="594" r="82" fill="#FFFFFF" opacity="0.110" /></g>
  <g><path d="M 213.9 623.8 L 2906.7 347.3 L 2906.7 774.6 L 213.9 1051.1 Z" fill="#FFFFFF" opacity="0.115" /><path d="M 170.0 868.4 L 2752.5 591.9 L 2752.5 1025.7 L 170.0 1302.2 Z" fill="#FFFFFF" opacity="0.164" /><path d="M 242.7 1137.5 L 2881.6 861.0 L 2881.6 1329.0 L 242.7 1605.5 Z" fill="#FFFFFF" opacity="0.084" /><path d="M 168.6 1400.8 L 2691.2 1124.4 L 2691.2 1575.3 L 168.6 1851.7 Z" fill="#FFFFFF" opacity="0.153" /><path d="M 218.8 1679.3 L 2868.6 1402.8 L 2868.6 1830.0 L 218.8 2106.5 Z" fill="#FFFFFF" opacity="0.113" /><path d="M 337.7 1906.1 L 2889.5 1629.6 L 2889.5 2092.2 L 337.7 2368.7 Z" fill="#FFFFFF" opacity="0.140" /><path d="M 167.1 2151.4 L 2892.1 1874.9 L 2892.1 2367.4 L 167.1 2643.9 Z" fill="#FFFFFF" opacity="0.106" /><path d="M 364.0 2476.1 L 2742.7 2199.6 L 2742.7 2655.7 L 364.0 2932.1 Z" fill="#FFFFFF" opacity="0.240" /></g>
  <g filter="url(#soft304)"><g transform="rotate(-20.45 1536.0 1536.0)"><path d="M-368.6 489.3 C -225.8 493.4, -25.8 485.2, 107.5 453.1 C 250.4 465.9, 450.4 515.7, 583.7 434.1 C 726.5 436.2, 926.5 510.1, 1059.8 448.5 C 1202.7 438.7, 1402.7 537.2, 1536.0 487.7 C 1678.8 488.0, 1878.8 489.8, 2012.2 527.8 C 2155.0 520.5, 2355.0 449.9, 2488.3 544.6 C 2631.2 536.0, 2831.2 425.3, 2964.5 527.8 C 3107.3 539.9, 3307.3 470.9, 3440.6 487.6" fill="none" stroke="url(#ribbon304)" stroke-width="58.4" stroke-linecap="round" stroke-opacity="0.120" /></g><g transform="rotate(-19.87 1536.0 1536.0)"><path d="M-368.6 671.9 C -241.7 619.4, -63.9 694.3, 54.6 609.6 C 181.6 594.4, 359.4 728.9, 477.9 630.7 C 604.8 637.7, 782.6 690.5, 901.1 676.8 C 1028.1 677.1, 1205.9 666.4, 1324.4 719.9 C 1451.3 728.3, 1629.1 615.0, 1747.6 733.9 C 1874.6 731.8, 2052.4 628.1, 2170.9 710.2 C 2297.9 709.4, 2475.6 642.8, 2594.1 663.3 C 2721.1 661.2, 2898.9 677.7, 3017.4 621.6 C 3144.4 605.3, 3322.1 702.5, 3440.6 610.4" fill="none" stroke="url(#ribbon304)" stroke-width="54.4" stroke-linecap="round" stroke-opacity="0.146" /></g><g transform="rotate(-19.29 1536.0 1536.0)"><path d="M-368.6 941.1 C -254.4 925.9, -94.4 960.6, 12.3 973.0 C 126.6 960.9, 286.6 904.0, 393.2 1007.6 C 507.5 1024.9, 667.5 862.6, 774.1 1001.8 C 888.4 1012.4, 1048.4 910.5, 1155.1 959.2 C 1269.4 964.4, 1429.3 933.4, 1536.0 905.7 C 1650.3 898.2, 1810.3 964.6, 1916.9 873.6 C 2031.2 884.6, 2191.2 997.5, 2297.9 882.5 C 2412.1 897.1, 2572.1 963.2, 2678.8 927.0 C 2793.1 928.0, 2953.1 957.6, 3059.7 980.0 C 3174.0 981.4, 3334.0 923.4, 3440.6 1009.5" fill="none" stroke="url(#ribbon304)" stroke-width="50.4" stroke-linecap="round" stroke-opacity="0.172" /></g><g transform="rotate(-18.71 1536.0 1536.0)"><path d="M-368.6 1149.6 C -264.8 1138.4, -119.3 1155.5, -22.3 1083.7 C 81.5 1058.3, 227.0 1227.0, 324.0 1075.9 C 427.8 1096.5, 573.3 1185.2, 670.3 1112.7 C 774.1 1106.7, 919.6 1177.2, 1016.6 1172.0 C 1120.4 1163.9, 1265.9 1127.3, 1362.9 1217.7 C 1466.7 1244.7, 1612.2 1108.0, 1709.1 1222.1 C 1813.0 1234.9, 1958.5 1095.5, 2055.4 1182.5 C 2159.3 1185.0, 2304.8 1132.5, 2401.7 1123.0 C 2505.6 1116.5, 2651.1 1166.1, 2748.0 1079.6 C 2851.9 1099.8, 2997.4 1178.7, 3094.3 1078.7 C 3198.2 1066.9, 3343.7 1185.8, 3440.6 1120.8" fill="none" stroke="url(#ribbon304)" stroke-width="46.4" stroke-linecap="round" stroke-opacity="0.198" /></g><g transform="rotate(-18.13 1536.0 1536.0)"><path d="M-368.6 1300.1 C -273.4 1315.5, -140.1 1280.0, -51.2 1256.6 C 44.0 1249.0, 177.4 1345.2, 266.2 1218.6 C 361.5 1211.3, 494.8 1357.0, 583.7 1230.1 C 678.9 1235.8, 812.2 1358.7, 901.1 1284.0 C 996.4 1280.7, 1129.7 1305.6, 1218.6 1347.7 C 1313.8 1340.5, 1447.1 1284.6, 1536.0 1382.5 C 1631.2 1385.1, 1764.6 1257.5, 1853.4 1367.3 C 1948.7 1343.9, 2082.0 1229.6, 2170.9 1311.4 C 2266.1 1307.9, 2399.4 1293.7, 2488.3 1248.6 C 2583.6 1237.9, 2716.9 1325.5, 2805.8 1217.0 C 2901.0 1212.7, 3034.3 1372.4, 3123.2 1235.9 C 3218.4 1222.4, 3351.8 1322.7, 3440.6 1293.7" fill="none" stroke="url(#ribbon304)" stroke-width="42.4" stroke-linecap="round" stroke-opacity="0.224" /></g><g transform="rotate(-17.55 1536.0 1536.0)"><path d="M-368.6 1517.2 C -225.8 1434.6, -25.8 1577.8, 107.5 1478.5 C 250.4 1465.3, 450.4 1559.2, 583.7 1549.0 C 726.5 1556.3, 926.5 1480.3, 1059.8 1600.3 C 1202.7 1627.3, 1402.7 1420.7, 1536.0 1601.2 C 1678.8 1630.9, 1878.8 1471.3, 2012.2 1551.1 C 2155.0 1537.9, 2355.0 1495.6, 2488.3 1480.6 C 2631.2 1480.4, 2831.2 1532.4, 2964.5 1432.2 C 3107.3 1437.6, 3307.3 1603.2, 3440.6 1435.5" fill="none" stroke="url(#ribbon304)" stroke-width="38.4" stroke-linecap="round" stroke-opacity="0.250" /></g><g transform="rotate(-16.97 1536.0 1536.0)"><path d="M-368.6 1725.4 C -241.7 1683.7, -63.9 1754.4, 54.6 1628.7 C 181.6 1614.7, 359.4 1776.6, 477.9 1648.0 C 604.8 1620.6, 782.6 1812.7, 901.1 1714.2 C 1028.1 1718.2, 1205.9 1735.5, 1324.4 1787.2 C 1451.3 1776.6, 1629.1 1694.5, 1747.6 1822.7 C 1874.6 1791.9, 2052.4 1661.7, 2170.9 1799.1 C 2297.9 1789.1, 2475.6 1691.8, 2594.1 1730.8 C 2721.1 1730.1, 2898.9 1722.9, 3017.4 1659.2 C 3144.4 1668.7, 3322.1 1772.1, 3440.6 1627.7" fill="none" stroke="url(#ribbon304)" stroke-width="34.4" stroke-linecap="round" stroke-opacity="0.276" /></g><g transform="rotate(-16.39 1536.0 1536.0)"><path d="M-368.6 1882.7 C -254.4 2006.6, -94.4 1785.6, 12.3 1951.9 C 126.6 1932.9, 286.6 1852.8, 393.2 1874.5 C 507.5 1874.9, 667.5 1889.0, 774.1 1802.0 C 888.4 1833.5, 1048.4 1951.1, 1155.1 1778.5 C 1269.4 1781.5, 1429.3 1978.4, 1536.0 1818.2 C 1650.3 1803.3, 1810.3 1923.8, 1916.9 1896.9 C 2031.2 1892.7, 2191.2 1875.1, 2297.9 1967.1 C 2412.1 1954.7, 2572.1 1804.7, 2678.8 1986.0 C 2793.1 2005.9, 2953.1 1791.5, 3059.7 1942.2 C 3174.0 1960.3, 3334.0 1840.9, 3440.6 1862.3" fill="none" stroke="url(#ribbon304)" stroke-width="30.4" stroke-linecap="round" stroke-opacity="0.302" /></g><g transform="rotate(-15.81 1536.0 1536.0)"><path d="M-368.6 2016.0 C -264.8 2017.1, -119.3 2015.2, -22.3 2096.7 C 81.5 2076.8, 227.0 1976.4, 324.0 2127.7 C 427.8 2101.1, 573.3 1973.9, 670.3 2090.9 C 774.1 2105.2, 919.6 1959.5, 1016.6 2008.6 C 1120.4 2009.4, 1265.9 2021.7, 1362.9 1930.8 C 1466.7 1951.3, 1612.2 2083.3, 1709.1 1904.6 C 1813.0 1881.9, 1958.5 2100.1, 2055.4 1946.0 C 2159.3 1970.9, 2304.8 2056.8, 2401.7 2029.8 C 2505.6 2027.7, 2651.1 2011.3, 2748.0 2105.2 C 2851.9 2073.3, 2997.4 1964.6, 3094.3 2126.5 C 3198.2 2099.1, 3343.7 1902.3, 3440.6 2080.7" fill="none" stroke="url(#ribbon304)" stroke-width="26.4" stroke-linecap="round" stroke-opacity="0.328" /></g><g transform="rotate(-15.23 1536.0 1536.0)"><path d="M-368.6 2269.0 C -273.4 2123.1, -140.1 2312.6, -51.2 2206.6 C 44.0 2186.1, 177.4 2295.8, 266.2 2298.1 C 361.5 2298.8, 494.8 2248.2, 583.7 2372.0 C 678.9 2372.8, 812.2 2181.5, 901.1 2383.3 C 996.4 2363.5, 1129.7 2223.5, 1218.6 2325.3 C 1313.8 2328.5, 1447.1 2211.4, 1536.0 2233.1 C 1631.2 2241.3, 1764.6 2305.6, 1853.4 2162.7 C 1948.7 2121.0, 2082.0 2391.6, 2170.9 2156.7 C 2266.1 2122.6, 2399.4 2403.4, 2488.3 2218.8 C 2583.6 2236.3, 2716.9 2317.4, 2805.8 2311.3 C 2901.0 2310.0, 3034.3 2229.8, 3123.2 2378.2 C 3218.4 2374.9, 3351.8 2227.4, 3440.6 2378.8" fill="none" stroke="url(#ribbon304)" stroke-width="22.4" stroke-linecap="round" stroke-opacity="0.354" /></g><g transform="rotate(-14.65 1536.0 1536.0)"><path d="M-368.6 2440.7 C -225.8 2411.6, -25.8 2468.3, 107.5 2493.6 C 250.4 2511.2, 450.4 2419.1, 583.7 2559.5 C 726.5 2551.7, 926.5 2331.3, 1059.8 2553.4 C 1202.7 2518.9, 1402.7 2368.0, 1536.0 2478.8 C 1678.8 2465.2, 1878.8 2404.5, 2012.2 2381.1 C 2155.0 2374.3, 2355.0 2508.9, 2488.3 2319.6 C 2631.2 2297.3, 2831.2 2539.4, 2964.5 2331.5 C 3107.3 2326.6, 3307.3 2475.0, 3440.6 2409.6" fill="none" stroke="url(#ribbon304)" stroke-width="18.4" stroke-linecap="round" stroke-opacity="0.380" /></g><g transform="rotate(-14.07 1536.0 1536.0)"><path d="M-368.6 2643.1 C -241.7 2623.4, -63.9 2662.0, 54.6 2722.7 C 181.6 2743.9, 359.4 2612.4, 477.9 2775.0 C 604.8 2806.9, 782.6 2502.8, 901.1 2747.3 C 1028.1 2729.2, 1205.9 2597.7, 1324.4 2656.4 C 1451.3 2654.5, 1629.1 2635.3, 1747.6 2557.4 C 1874.6 2542.1, 2052.4 2673.5, 2170.9 2510.4 C 2297.9 2487.2, 2475.6 2722.9, 2594.1 2543.9 C 2721.1 2580.1, 2898.9 2731.9, 3017.4 2637.5 C 3144.4 2636.8, 3322.1 2646.2, 3440.6 2734.5" fill="none" stroke="url(#ribbon304)" stroke-width="14.4" stroke-linecap="round" stroke-opacity="0.406" /></g></g>
  <g><ellipse cx="1536.0" cy="1551.9" rx="728.6" ry="605.7" fill="url(#extrude304)" opacity="0.220" /><ellipse cx="1536.0" cy="1567.7" rx="736.0" ry="610.9" fill="url(#extrude304)" opacity="0.205" /><ellipse cx="1536.0" cy="1583.6" rx="743.4" ry="616.1" fill="url(#extrude304)" opacity="0.190" /><ellipse cx="1536.0" cy="1599.5" rx="750.9" ry="621.3" fill="url(#extrude304)" opacity="0.175" /><ellipse cx="1536.0" cy="1615.4" rx="758.3" ry="626.5" fill="url(#extrude304)" opacity="0.160" /><ellipse cx="1536.0" cy="1631.2" rx="765.7" ry="631.7" fill="url(#extrude304)" opacity="0.145" /><ellipse cx="1536.0" cy="1647.1" rx="773.2" ry="636.9" fill="url(#extrude304)" opacity="0.130" /><ellipse cx="1536.0" cy="1663.0" rx="780.6" ry="642.1" fill="url(#extrude304)" opacity="0.115" /><ellipse cx="1536.0" cy="1678.8" rx="788.0" ry="647.4" fill="url(#extrude304)" opacity="0.100" /><ellipse cx="1536.0" cy="1694.7" rx="795.5" ry="652.6" fill="url(#extrude304)" opacity="0.085" /><ellipse cx="1536.0" cy="1710.6" rx="802.9" ry="657.8" fill="url(#extrude304)" opacity="0.070" /><ellipse cx="1536.0" cy="1726.5" rx="810.3" ry="663.0" fill="url(#extrude304)" opacity="0.055" /></g>
  <ellipse cx="1536.0" cy="1726.5" rx="773.2" ry="214.9" fill="#0B1D2D" opacity="0.24" />
  <ellipse cx="1536.0" cy="1536.0" rx="743.4" ry="651.3" fill="url(#orb304)" stroke="#FFFFFF" stroke-opacity="0.42" stroke-width="7" />
  <ellipse cx="1431.9" cy="1392.7" rx="505.5" ry="299.6" fill="#FFFFFF" opacity="0.25" />
  <path d="M 199.4 399.4 C 1013.8 -30.7, 2058.2 768.0, 2872.6 215.0 L 2872.6 983.0 C 2089.0 1228.8, 1013.8 307.2, 199.4 1167.4 Z" fill="url(#glass304)" />
  <rect x="270" y="270" width="2532" height="2532" rx="430" fill="none" stroke="#FFFFFF" stroke-opacity="0.30" stroke-width="5" />
  <rect x="288.4" y="288.4" width="2495.1" height="2495.1" rx="399" fill="none" stroke="#FF6AB3" stroke-opacity="0.35" stroke-width="3" />
  <g filter="url(#soft304)"><rect x="2176" y="798" width="36" height="2" fill="#FFFFFF" opacity="0.609" /><rect x="2193" y="781" width="2" height="36" fill="#FFFFFF" opacity="0.609" /><rect x="2760" y="1040" width="36" height="2" fill="#FFFFFF" opacity="0.512" /><rect x="2777" y="1023" width="2" height="36" fill="#FFFFFF" opacity="0.512" /><rect x="903" y="1006" width="78" height="2" fill="#FFFFFF" opacity="0.575" /><rect x="941" y="968" width="2" height="78" fill="#FFFFFF" opacity="0.575" /><rect x="1423" y="2498" width="66" height="2" fill="#FFFFFF" opacity="0.740" /><rect x="1455" y="2466" width="2" height="66" fill="#FFFFFF" opacity="0.740" /><rect x="2741" y="1861" width="80" height="2" fill="#FFFFFF" opacity="0.476" /><rect x="2780" y="1822" width="2" height="80" fill="#FFFFFF" opacity="0.476" /><rect x="311" y="987" width="68" height="2" fill="#FFFFFF" opacity="0.431" /><rect x="344" y="954" width="2" height="68" fill="#FFFFFF" opacity="0.431" /><rect x="1158" y="1111" width="54" height="2" fill="#FFFFFF" opacity="0.722" /><rect x="1184" y="1085" width="2" height="54" fill="#FFFFFF" opacity="0.722" /><rect x="991" y="833" width="82" height="2" fill="#FFFFFF" opacity="0.338" /><rect x="1031" y="793" width="2" height="82" fill="#FFFFFF" opacity="0.338" /><rect x="1485" y="306" width="34" height="2" fill="#FFFFFF" opacity="0.633" /><rect x="1501" y="290" width="2" height="34" fill="#FFFFFF" opacity="0.633" /><rect x="2051" y="1547" width="52" height="2" fill="#FFFFFF" opacity="0.599" /><rect x="2076" y="1522" width="2" height="52" fill="#FFFFFF" opacity="0.599" /><rect x="438" y="511" width="78" height="2" fill="#FFFFFF" opacity="0.363" /><rect x="476" y="473" width="2" height="78" fill="#FFFFFF" opacity="0.363" /><rect x="301" y="2437" width="66" height="2" fill="#FFFFFF" opacity="0.343" /><rect x="333" y="2405" width="2" height="66" fill="#FFFFFF" opacity="0.343" /><rect x="546" y="1961" width="30" height="2" fill="#FFFFFF" opacity="0.661" /><rect x="560" y="1947" width="2" height="30" fill="#FFFFFF" opacity="0.661" /><rect x="1855" y="1071" width="46" height="2" fill="#FFFFFF" opacity="0.633" /><rect x="1877" y="1049" width="2" height="46" fill="#FFFFFF" opacity="0.633" /><rect x="1057" y="2604" width="48" height="2" fill="#FFFFFF" opacity="0.465" /><rect x="1080" y="2581" width="2" height="48" fill="#FFFFFF" opacity="0.465" /><rect x="2219" y="731" width="32" height="2" fill="#FFFFFF" opacity="0.837" /><rect x="2234" y="716" width="2" height="32" fill="#FFFFFF" opacity="0.837" /><rect x="1512" y="592" width="34" height="2" fill="#FFFFFF" opacity="0.585" /><rect x="1528" y="576" width="2" height="34" fill="#FFFFFF" opacity="0.585" /><rect x="1385" y="1631" width="28" height="2" fill="#FFFFFF" opacity="0.540" /><rect x="1398" y="1618" width="2" height="28" fill="#FFFFFF" opacity="0.540" /><rect x="1827" y="696" width="76" height="2" fill="#FFFFFF" opacity="0.811" /><rect x="1864" y="659" width="2" height="76" fill="#FFFFFF" opacity="0.811" /><rect x="708" y="1124" width="80" height="2" fill="#FFFFFF" opacity="0.384" /><rect x="747" y="1085" width="2" height="80" fill="#FFFFFF" opacity="0.384" /><rect x="2322" y="1994" width="44" height="2" fill="#FFFFFF" opacity="0.364" /><rect x="2343" y="1973" width="2" height="44" fill="#FFFFFF" opacity="0.364" /><rect x="1986" y="361" width="42" height="2" fill="#FFFFFF" opacity="0.749" /><rect x="2006" y="341" width="2" height="42" fill="#FFFFFF" opacity="0.749" /><rect x="319" y="2088" width="68" height="2" fill="#FFFFFF" opacity="0.581" /><rect x="352" y="2055" width="2" height="68" fill="#FFFFFF" opacity="0.581" /><rect x="675" y="2280" width="48" height="2" fill="#FFFFFF" opacity="0.461" /><rect x="698" y="2257" width="2" height="48" fill="#FFFFFF" opacity="0.461" /><rect x="1859" y="2733" width="52" height="2" fill="#FFFFFF" opacity="0.474" /><rect x="1884" y="2708" width="2" height="52" fill="#FFFFFF" opacity="0.474" /><rect x="1753" y="953" width="84" height="2" fill="#FFFFFF" opacity="0.492" /><rect x="1794" y="912" width="2" height="84" fill="#FFFFFF" opacity="0.492" /></g>
  <g opacity="0.52"><path d="M1572 1006 L2148 1582 L1572 2158 L996 1582 Z" fill="none" stroke="#0C2030" stroke-width="90" stroke-linejoin="round" /><circle cx="1572" cy="1582" r="153" fill="#0C2030" /></g>
  <g filter="url(#soft304)"><path d="M1536 960 L2112 1536 L1536 2112 L960 1536 Z" fill="none" stroke="url(#symbol304)" stroke-width="90" stroke-linejoin="round" /><circle cx="1536" cy="1536" r="153" fill="url(#symbol304)" /></g>
  <rect x="138" y="138" width="2796" height="2796" rx="629" fill="#FFFFFF" filter="url(#grain304)" opacity="0.18" />
</svg>
