<svg xmlns="http://www.w3.org/2000/svg" width="3072" height="3072" viewBox="0 0 3072 3072">
  <title>QuartzOS App Icon 088 - core_mail_088</title>
  <defs><linearGradient id="bg87" x1="0%" y1="0%" x2="100%" y2="100%"><stop offset="0%" stop-color="#FF6AB3" /><stop offset="26%" stop-color="#FFD84D" /><stop offset="56%" stop-color="#36D1FF" /><stop offset="78%" stop-color="#6C7CC5" /><stop offset="100%" stop-color="#1E2032" /></linearGradient><radialGradient id="sun87" cx="30%" cy="32%" r="88%"><stop offset="0%" stop-color="#FFFFFF" stop-opacity="0.62" /><stop offset="30%" stop-color="#3B82FF" stop-opacity="0.35" /><stop offset="100%" stop-color="#3B82FF" stop-opacity="0" /></radialGradient><linearGradient id="glass87" x1="0%" y1="0%" x2="0%" y2="100%"><stop offset="0%" stop-color="#FFFFFF" stop-opacity="0.70" /><stop offset="46%" stop-color="#FFFFFF" stop-opacity="0.26" /><stop offset="100%" stop-color="#FFFFFF" stop-opacity="0.00" /></linearGradient><linearGradient id="ribbon87" x1="0%" y1="0%" x2="100%" y2="0%"><stop offset="0%" stop-color="#FF6AB3" stop-opacity="0.18" /><stop offset="34%" stop-color="#FFD84D" stop-opacity="0.72" /><stop offset="66%" stop-color="#36D1FF" stop-opacity="0.72" /><stop offset="100%" stop-color="#3B82FF" stop-opacity="0.18" /></linearGradient><radialGradient id="orb87" cx="34%" cy="27%" r="74%"><stop offset="0%" stop-color="#FFFFFF" stop-opacity="0.84" /><stop offset="30%" stop-color="#FF6AB3" stop-opacity="0.52" /><stop offset="68%" stop-color="#FFD84D" stop-opacity="0.42" /><stop offset="100%" stop-color="#36D1FF" stop-opacity="0.20" /></radialGradient><linearGradient id="extrude87" x1="0%" y1="0%" x2="0%" y2="100%"><stop offset="0%" stop-color="#15283C" stop-opacity="0.45" /><stop offset="100%" stop-color="#08131D" stop-opacity="0.06" /></linearGradient><linearGradient id="symbol87" x1="0%" y1="0%" x2="100%" y2="100%"><stop offset="0%" stop-color="#FFFFFF" /><stop offset="100%" stop-color="#3B82FF" /></linearGradient><filter id="shadow87" x="-40%" y="-40%" width="180%" height="180%"><feDropShadow dx="0" dy="49" stdDeviation="86" flood-color="#06111A" flood-opacity="0.54" /></filter><filter id="soft87" x="-40%" y="-40%" width="180%" height="180%"><feDropShadow dx="0" dy="0" stdDeviation="14" flood-color="#FF6AB3" flood-opacity="0.45" /></filter><filter id="grain87"><feTurbulence type="fractalNoise" baseFrequency="0.867" numOctaves="2" seed="87" /><feColorMatrix type="saturate" values="0" /><feComponentTransfer><feFuncA type="table" tableValues="0 0.09" /></feComponentTransfer></filter></defs>
  <rect x="138" y="138" width="2796" height="2796" rx="629" fill="url(#bg87)" filter="url(#shadow87)" />
  <rect x="138" y="138" width="2796" height="2796" rx="629" fill="url(#sun87)" />
  <g><circle cx="1161" cy="683" r="124" fill="#FFFFFF" opacity="0.138" /><circle cx="2314" cy="2318" r="132" fill="#FFFFFF" opacity="0.082" /><circle cx="1481" cy="1033" r="90" fill="#FFFFFF" opacity="0.066" /><circle cx="934" cy="503" r="134" fill="#FFFFFF" opacity="0.182" /><circle cx="388" cy="849" r="116" fill="#FFFFFF" opacity="0.098" /><circle cx="1796" cy="1448" r="127" fill="#FFFFFF" opacity="0.196" /><circle cx="2644" cy="2485" r="137" fill="#FFFFFF" opacity="0.133" /><circle cx="2450" cy="1699" r="47" fill="#FFFFFF" opacity="0.086" /><circle cx="1043" cy="2528" r="153" fill="#FFFFFF" opacity="0.226" /><circle cx="490" cy="2551" r="91" fill="#FFFFFF" opacity="0.182" /><circle cx="2083" cy="1191" r="107" fill="#FFFFFF" opacity="0.074" /><circle cx="2084" cy="1559" r="93" fill="#FFFFFF" opacity="0.090" /><circle cx="2164" cy="1091" r="48" fill="#FFFFFF" opacity="0.127" /><circle cx="2034" cy="2160" r="42" fill="#FFFFFF" opacity="0.124" /><circle cx="710" cy="2567" r="88" fill="#FFFFFF" opacity="0.199" /><circle cx="769" cy="690" r="149" fill="#FFFFFF" opacity="0.233" /><circle cx="1175" cy="357" r="145" fill="#FFFFFF" opacity="0.240" /><circle cx="2212" cy="1099" r="94" fill="#FFFFFF" opacity="0.198" /><circle cx="2275" cy="782" r="103" fill="#FFFFFF" opacity="0.222" /><circle cx="1875" cy="2265" r="146" fill="#FFFFFF" opacity="0.201" /><circle cx="455" cy="1953" r="126" fill="#FFFFFF" opacity="0.226" /><circle cx="2532" cy="1032" r="124" fill="#FFFFFF" opacity="0.143" /><circle cx="1257" cy="1668" r="151" fill="#FFFFFF" opacity="0.164" /><circle cx="1436" cy="1389" r="103" fill="#FFFFFF" opacity="0.240" /><circle cx="2233" cy="1876" r="37" fill="#FFFFFF" opacity="0.064" /><circle cx="446" cy="1029" r="59" fill="#FFFFFF" opacity="0.176" /><circle cx="1102" cy="2505" r="119" fill="#FFFFFF" opacity="0.186" /><circle cx="1712" cy="830" r="46" fill="#FFFFFF" opacity="0.088" /></g>
  <g><path d="M 261.7 598.8 L 2760.8 322.3 L 2760.8 819.2 L 261.7 1095.6 Z" fill="#FFFFFF" opacity="0.095" /><path d="M 391.3 867.6 L 2732.9 591.2 L 2732.9 1068.6 L 391.3 1345.1 Z" fill="#FFFFFF" opacity="0.097" /><path d="M 149.3 1112.4 L 2790.1 836.0 L 2790.1 1256.1 L 149.3 1532.6 Z" fill="#FFFFFF" opacity="0.094" /><path d="M 366.5 1354.2 L 2786.3 1077.7 L 2786.3 1567.1 L 366.5 1843.6 Z" fill="#FFFFFF" opacity="0.142" /><path d="M 336.5 1702.6 L 2743.7 1426.1 L 2743.7 1911.7 L 336.5 2188.1 Z" fill="#FFFFFF" opacity="0.124" /><path d="M 357.2 1923.9 L 2719.0 1647.4 L 2719.0 2131.5 L 357.2 2408.0 Z" fill="#FFFFFF" opacity="0.099" /><path d="M 317.5 2210.9 L 2708.2 1934.4 L 2708.2 2369.5 L 317.5 2646.0 Z" fill="#FFFFFF" opacity="0.203" /><path d="M 208.8 2462.3 L 2703.7 2185.8 L 2703.7 2640.1 L 208.8 2916.6 Z" fill="#FFFFFF" opacity="0.085" /></g>
  <g filter="url(#soft87)"><g transform="rotate(-8.71 1536.0 1536.0)"><path d="M-368.6 554.7 C -225.8 487.6, -25.8 598.8, 107.5 521.8 C 250.4 519.0, 450.4 580.2, 583.7 563.7 C 726.5 564.3, 926.5 545.3, 1059.8 600.1 C 1202.7 595.1, 1402.7 532.8, 1536.0 609.0 C 1678.8 608.4, 1878.8 538.1, 2012.2 584.9 C 2155.0 580.1, 2355.0 527.0, 2488.3 542.5 C 2631.2 545.8, 2831.2 560.4, 2964.5 507.5 C 3107.3 489.4, 3307.3 593.7, 3440.6 501.1" fill="none" stroke="url(#ribbon87)" stroke-width="58.4" stroke-linecap="round" stroke-opacity="0.120" /></g><g transform="rotate(-8.13 1536.0 1536.0)"><path d="M-368.6 717.5 C -241.7 738.1, -63.9 686.1, 54.6 701.3 C 181.6 700.4, 359.4 734.3, 477.9 663.0 C 604.8 646.4, 782.6 781.4, 901.1 657.7 C 1028.1 669.1, 1205.9 770.3, 1324.4 688.7 C 1451.3 677.4, 1629.1 726.3, 1747.6 737.1 C 1874.6 738.4, 2052.4 704.3, 2170.9 773.6 C 2297.9 780.4, 2475.6 672.4, 2594.1 776.1 C 2721.1 757.9, 2898.9 652.8, 3017.4 743.0 C 3144.4 733.6, 3322.1 694.6, 3440.6 694.4" fill="none" stroke="url(#ribbon87)" stroke-width="54.4" stroke-linecap="round" stroke-opacity="0.146" /></g><g transform="rotate(-7.55 1536.0 1536.0)"><path d="M-368.6 969.0 C -254.4 882.0, -94.4 1030.6, 12.3 918.8 C 126.6 909.2, 286.6 1017.0, 393.2 968.4 C 507.5 968.6, 667.5 969.6, 774.1 1018.4 C 888.4 1024.5, 1048.4 953.7, 1155.1 1038.4 C 1269.4 1012.5, 1429.3 890.6, 1536.0 1016.4 C 1650.3 1015.8, 1810.3 953.1, 1916.9 965.6 C 2031.2 965.0, 2191.2 971.1, 2297.9 916.9 C 2412.1 907.5, 2572.1 1023.5, 2678.8 899.8 C 2793.1 883.5, 2953.1 1049.8, 3059.7 924.7 C 3174.0 914.1, 3334.0 1011.7, 3440.6 976.5" fill="none" stroke="url(#ribbon87)" stroke-width="50.4" stroke-linecap="round" stroke-opacity="0.172" /></g><g transform="rotate(-6.97 1536.0 1536.0)"><path d="M-368.6 1085.8 C -264.8 1018.9, -119.3 1107.0, -22.3 1087.7 C 81.5 1088.1, 227.0 1084.9, 324.0 1142.0 C 427.8 1153.3, 573.3 1055.8, 670.3 1162.2 C 774.1 1151.2, 919.6 1055.0, 1016.6 1136.0 C 1120.4 1127.6, 1265.9 1036.6, 1362.9 1079.4 C 1466.7 1079.0, 1612.2 1088.1, 1709.1 1026.7 C 1813.0 1023.0, 1958.5 1153.5, 2055.4 1009.8 C 2159.3 980.3, 2304.8 1119.2, 2401.7 1039.0 C 2505.6 1033.8, 2651.1 1106.1, 2748.0 1096.6 C 2851.9 1095.6, 2997.4 1077.7, 3094.3 1147.7 C 3198.2 1138.9, 3343.7 1060.4, 3440.6 1161.2" fill="none" stroke="url(#ribbon87)" stroke-width="46.4" stroke-linecap="round" stroke-opacity="0.198" /></g><g transform="rotate(-6.39 1536.0 1536.0)"><path d="M-368.6 1342.1 C -273.4 1262.3, -140.1 1386.0, -51.2 1339.1 C 44.0 1338.7, 177.4 1345.3, 266.2 1399.9 C 361.5 1400.8, 494.8 1316.2, 583.7 1425.7 C 678.9 1400.5, 812.2 1270.2, 901.1 1400.7 C 996.4 1420.7, 1129.7 1285.5, 1218.6 1340.3 C 1313.8 1339.6, 1447.1 1344.1, 1536.0 1280.9 C 1631.2 1258.9, 1764.6 1370.4, 1853.4 1258.7 C 1948.7 1252.8, 2082.0 1392.6, 2170.9 1287.1 C 2266.1 1294.2, 2399.4 1403.8, 2488.3 1348.8 C 2583.6 1350.6, 2716.9 1338.3, 2805.8 1406.6 C 2901.0 1403.9, 3034.3 1285.6, 3123.2 1425.2 C 3218.4 1423.2, 3351.8 1255.6, 3440.6 1393.4" fill="none" stroke="url(#ribbon87)" stroke-width="42.4" stroke-linecap="round" stroke-opacity="0.224" /></g><g transform="rotate(-5.81 1536.0 1536.0)"><path d="M-368.6 1516.4 C -225.8 1544.3, -25.8 1496.1, 107.5 1471.8 C 250.4 1461.5, 450.4 1560.9, 583.7 1428.7 C 726.5 1427.0, 926.5 1578.3, 1059.8 1438.8 C 1202.7 1442.5, 1402.7 1608.7, 1536.0 1495.9 C 1678.8 1493.5, 1878.8 1536.9, 2012.2 1565.4 C 2155.0 1570.3, 2355.0 1466.8, 2488.3 1605.2 C 2631.2 1628.6, 2831.2 1478.9, 2964.5 1591.1 C 3107.3 1584.8, 3307.3 1450.8, 3440.6 1531.7" fill="none" stroke="url(#ribbon87)" stroke-width="38.4" stroke-linecap="round" stroke-opacity="0.250" /></g><g transform="rotate(-5.23 1536.0 1536.0)"><path d="M-368.6 1628.5 C -241.7 1714.0, -63.9 1534.4, 54.6 1657.4 C 181.6 1648.6, 359.4 1603.9, 477.9 1581.7 C 604.8 1573.0, 782.6 1652.1, 901.1 1534.4 C 1028.1 1563.3, 1205.9 1685.6, 1324.4 1544.2 C 1451.3 1523.1, 1629.1 1657.1, 1747.6 1605.2 C 1874.6 1602.1, 2052.4 1637.1, 2170.9 1680.3 C 2297.9 1690.0, 2475.6 1601.8, 2594.1 1724.0 C 2721.1 1700.6, 2898.9 1527.2, 3017.4 1709.8 C 3144.4 1688.4, 3322.1 1543.9, 3440.6 1646.3" fill="none" stroke="url(#ribbon87)" stroke-width="34.4" stroke-linecap="round" stroke-opacity="0.276" /></g><g transform="rotate(-4.65 1536.0 1536.0)"><path d="M-368.6 1908.3 C -254.4 1940.6, -94.4 1883.2, 12.3 2000.1 C 126.6 1978.3, 286.6 1878.1, 393.2 2008.4 C 507.5 1995.5, 667.5 1818.2, 774.1 1956.0 C 888.4 1962.7, 1048.4 1867.0, 1155.1 1874.6 C 1269.4 1862.2, 1429.3 1936.4, 1536.0 1813.6 C 1650.3 1799.7, 1810.3 2013.7, 1916.9 1810.1 C 2031.2 1800.3, 2191.2 1959.5, 2297.9 1866.1 C 2412.1 1871.9, 2572.1 1923.1, 2678.8 1947.7 C 2793.1 1958.3, 2953.1 1873.0, 3059.7 2005.3 C 3174.0 1996.9, 3334.0 1859.3, 3440.6 2004.1" fill="none" stroke="url(#ribbon87)" stroke-width="30.4" stroke-linecap="round" stroke-opacity="0.302" /></g><g transform="rotate(-4.07 1536.0 1536.0)"><path d="M-368.6 2028.0 C -264.8 1995.1, -119.3 2057.5, -22.3 1926.2 C 81.5 1900.6, 227.0 2083.1, 324.0 1923.8 C 427.8 1925.3, 573.3 2132.0, 670.3 1984.6 C 774.1 1993.1, 919.6 2071.6, 1016.6 2071.7 C 1120.4 2082.2, 1265.9 1998.6, 1362.9 2132.3 C 1466.7 2145.0, 1612.2 1933.0, 1709.1 2129.5 C 1813.0 2109.1, 1958.5 1912.8, 2055.4 2065.2 C 2159.3 2077.0, 2304.8 2014.8, 2401.7 1978.3 C 2505.6 1978.4, 2651.1 2071.6, 2748.0 1921.5 C 2851.9 1911.0, 2997.4 2141.0, 3094.3 1929.3 C 3198.2 1936.1, 3343.7 2103.7, 3440.6 1996.9" fill="none" stroke="url(#ribbon87)" stroke-width="26.4" stroke-linecap="round" stroke-opacity="0.328" /></g><g transform="rotate(-3.49 1536.0 1536.0)"><path d="M-368.6 2226.4 C -273.4 2174.4, -140.1 2262.2, -51.2 2276.3 C 44.0 2287.7, 177.4 2205.7, 266.2 2338.5 C 361.5 2383.0, 494.8 2185.1, 583.7 2332.8 C 678.9 2372.1, 812.2 2118.9, 901.1 2262.5 C 996.4 2274.0, 1129.7 2210.0, 1218.6 2170.3 C 1313.8 2177.1, 1447.1 2281.5, 1536.0 2112.1 C 1631.2 2090.8, 1764.6 2290.6, 1853.4 2123.2 C 1948.7 2135.2, 2082.0 2339.8, 2170.9 2196.9 C 2266.1 2207.8, 2399.4 2239.5, 2488.3 2288.5 C 2583.6 2266.1, 2716.9 2198.6, 2805.8 2342.4 C 2901.0 2302.0, 3034.3 2100.5, 3123.2 2325.9 C 3218.4 2330.0, 3351.8 2157.9, 3440.6 2249.0" fill="none" stroke="url(#ribbon87)" stroke-width="22.4" stroke-linecap="round" stroke-opacity="0.354" /></g><g transform="rotate(-2.91 1536.0 1536.0)"><path d="M-368.6 2490.8 C -225.8 2537.9, -25.8 2475.1, 107.5 2605.2 C 250.4 2622.5, 450.4 2388.6, 583.7 2608.4 C 726.5 2608.5, 926.5 2426.0, 1059.8 2540.2 C 1202.7 2526.5, 1402.7 2475.6, 1536.0 2442.1 C 1678.8 2442.9, 1878.8 2527.3, 2012.2 2373.6 C 2155.0 2358.3, 2355.0 2534.9, 2488.3 2376.2 C 2631.2 2353.4, 2831.2 2583.0, 2964.5 2448.3 C 3107.3 2452.3, 3307.3 2513.3, 3440.6 2546.2" fill="none" stroke="url(#ribbon87)" stroke-width="18.4" stroke-linecap="round" stroke-opacity="0.380" /></g><g transform="rotate(-2.33 1536.0 1536.0)"><path d="M-368.6 2710.5 C -241.7 2773.4, -63.9 2604.5, 54.6 2708.6 C 181.6 2708.9, 359.4 2711.2, 477.9 2613.8 C 604.8 2575.8, 782.6 2802.7, 901.1 2577.6 C 1028.1 2585.6, 1205.9 2776.7, 1324.4 2622.1 C 1451.3 2634.0, 1629.1 2765.5, 1747.6 2720.2 C 1874.6 2720.7, 2052.4 2703.7, 2170.9 2812.4 C 2297.9 2821.4, 2475.6 2674.4, 2594.1 2842.8 C 2721.1 2852.7, 2898.9 2616.5, 3017.4 2793.0 C 3144.4 2815.8, 3322.1 2656.4, 3440.6 2693.1" fill="none" stroke="url(#ribbon87)" stroke-width="14.4" stroke-linecap="round" stroke-opacity="0.406" /></g></g>
  <g><ellipse cx="1536.0" cy="1551.9" rx="728.6" ry="605.7" fill="url(#extrude87)" opacity="0.220" /><ellipse cx="1536.0" cy="1567.7" rx="736.0" ry="610.9" fill="url(#extrude87)" opacity="0.205" /><ellipse cx="1536.0" cy="1583.6" rx="743.4" ry="616.1" fill="url(#extrude87)" opacity="0.190" /><ellipse cx="1536.0" cy="1599.5" rx="750.9" ry="621.3" fill="url(#extrude87)" opacity="0.175" /><ellipse cx="1536.0" cy="1615.4" rx="758.3" ry="626.5" fill="url(#extrude87)" opacity="0.160" /><ellipse cx="1536.0" cy="1631.2" rx="765.7" ry="631.7" fill="url(#extrude87)" opacity="0.145" /><ellipse cx="1536.0" cy="1647.1" rx="773.2" ry="636.9" fill="url(#extrude87)" opacity="0.130" /><ellipse cx="1536.0" cy="1663.0" rx="780.6" ry="642.1" fill="url(#extrude87)" opacity="0.115" /><ellipse cx="1536.0" cy="1678.8" rx="788.0" ry="647.4" fill="url(#extrude87)" opacity="0.100" /><ellipse cx="1536.0" cy="1694.7" rx="795.5" ry="652.6" fill="url(#extrude87)" opacity="0.085" /><ellipse cx="1536.0" cy="1710.6" rx="802.9" ry="657.8" fill="url(#extrude87)" opacity="0.070" /><ellipse cx="1536.0" cy="1726.5" rx="810.3" ry="663.0" fill="url(#extrude87)" opacity="0.055" /></g>
  <ellipse cx="1536.0" cy="1726.5" rx="773.2" ry="214.9" fill="#0B1D2D" opacity="0.24" />
  <ellipse cx="1536.0" cy="1536.0" rx="743.4" ry="651.3" fill="url(#orb87)" stroke="#FFFFFF" stroke-opacity="0.42" stroke-width="7" />
  <ellipse cx="1431.9" cy="1392.7" rx="505.5" ry="299.6" fill="#FFFFFF" opacity="0.25" />
  <path d="M 199.4 399.4 C 1013.8 -30.7, 2058.2 768.0, 2872.6 215.0 L 2872.6 983.0 C 2089.0 1228.8, 1013.8 307.2, 199.4 1167.4 Z" fill="url(#glass87)" />
  <rect x="270" y="270" width="2532" height="2532" rx="430" fill="none" stroke="#FFFFFF" stroke-opacity="0.30" stroke-width="5" />
  <rect x="288.4" y="288.4" width="2495.1" height="2495.1" rx="399" fill="none" stroke="#FF6AB3" stroke-opacity="0.35" stroke-width="3" />
  <g filter="url(#soft87)"><rect x="1253" y="978" width="42" height="2" fill="#FFFFFF" opacity="0.786" /><rect x="1273" y="958" width="2" height="42" fill="#FFFFFF" opacity="0.786" /><rect x="1746" y="1747" width="56" height="2" fill="#FFFFFF" opacity="0.591" /><rect x="1773" y="1720" width="2" height="56" fill="#FFFFFF" opacity="0.591" /><rect x="375" y="2484" width="54" height="2" fill="#FFFFFF" opacity="0.525" /><rect x="401" y="2458" width="2" height="54" fill="#FFFFFF" opacity="0.525" /><rect x="1893" y="859" width="58" height="2" fill="#FFFFFF" opacity="0.722" /><rect x="1921" y="831" width="2" height="58" fill="#FFFFFF" opacity="0.722" /><rect x="1360" y="2610" width="42" height="2" fill="#FFFFFF" opacity="0.497" /><rect x="1380" y="2590" width="2" height="42" fill="#FFFFFF" opacity="0.497" /><rect x="489" y="2500" width="30" height="2" fill="#FFFFFF" opacity="0.820" /><rect x="503" y="2486" width="2" height="30" fill="#FFFFFF" opacity="0.820" /><rect x="864" y="2734" width="72" height="2" fill="#FFFFFF" opacity="0.405" /><rect x="899" y="2699" width="2" height="72" fill="#FFFFFF" opacity="0.405" /><rect x="887" y="1656" width="30" height="2" fill="#FFFFFF" opacity="0.505" /><rect x="901" y="1642" width="2" height="30" fill="#FFFFFF" opacity="0.505" /><rect x="767" y="2035" width="38" height="2" fill="#FFFFFF" opacity="0.652" /><rect x="785" y="2017" width="2" height="38" fill="#FFFFFF" opacity="0.652" /><rect x="1608" y="733" width="28" height="2" fill="#FFFFFF" opacity="0.721" /><rect x="1621" y="720" width="2" height="28" fill="#FFFFFF" opacity="0.721" /><rect x="1217" y="2758" width="56" height="2" fill="#FFFFFF" opacity="0.615" /><rect x="1244" y="2731" width="2" height="56" fill="#FFFFFF" opacity="0.615" /><rect x="1562" y="2614" width="30" height="2" fill="#FFFFFF" opacity="0.587" /><rect x="1576" y="2600" width="2" height="30" fill="#FFFFFF" opacity="0.587" /><rect x="1772" y="2398" width="74" height="2" fill="#FFFFFF" opacity="0.381" /><rect x="1808" y="2362" width="2" height="74" fill="#FFFFFF" opacity="0.381" /><rect x="448" y="725" width="78" height="2" fill="#FFFFFF" opacity="0.455" /><rect x="486" y="687" width="2" height="78" fill="#FFFFFF" opacity="0.455" /><rect x="2409" y="541" width="64" height="2" fill="#FFFFFF" opacity="0.465" /><rect x="2440" y="510" width="2" height="64" fill="#FFFFFF" opacity="0.465" /><rect x="1915" y="1378" width="62" height="2" fill="#FFFFFF" opacity="0.749" /><rect x="1945" y="1348" width="2" height="62" fill="#FFFFFF" opacity="0.749" /><rect x="2274" y="2703" width="24" height="2" fill="#FFFFFF" opacity="0.594" /><rect x="2285" y="2692" width="2" height="24" fill="#FFFFFF" opacity="0.594" /><rect x="1534" y="295" width="36" height="2" fill="#FFFFFF" opacity="0.424" /><rect x="1551" y="278" width="2" height="36" fill="#FFFFFF" opacity="0.424" /><rect x="1058" y="1029" width="54" height="2" fill="#FFFFFF" opacity="0.310" /><rect x="1084" y="1003" width="2" height="54" fill="#FFFFFF" opacity="0.310" /><rect x="335" y="1488" width="56" height="2" fill="#FFFFFF" opacity="0.547" /><rect x="362" y="1461" width="2" height="56" fill="#FFFFFF" opacity="0.547" /><rect x="738" y="2381" width="50" height="2" fill="#FFFFFF" opacity="0.304" /><rect x="762" y="2357" width="2" height="50" fill="#FFFFFF" opacity="0.304" /><rect x="866" y="400" width="52" height="2" fill="#FFFFFF" opacity="0.347" /><rect x="891" y="375" width="2" height="52" fill="#FFFFFF" opacity="0.347" /><rect x="2100" y="538" width="42" height="2" fill="#FFFFFF" opacity="0.616" /><rect x="2120" y="518" width="2" height="42" fill="#FFFFFF" opacity="0.616" /><rect x="712" y="1833" width="44" height="2" fill="#FFFFFF" opacity="0.592" /><rect x="733" y="1812" width="2" height="44" fill="#FFFFFF" opacity="0.592" /><rect x="1654" y="815" width="80" height="2" fill="#FFFFFF" opacity="0.653" /><rect x="1693" y="776" width="2" height="80" fill="#FFFFFF" opacity="0.653" /><rect x="1449" y="2149" width="38" height="2" fill="#FFFFFF" opacity="0.530" /><rect x="1467" y="2131" width="2" height="38" fill="#FFFFFF" opacity="0.530" /></g>
  <g opacity="0.52"><rect x="1060" y="1070" width="219" height="1024" fill="#0C2030" /><rect x="1316" y="1326" width="219" height="768" fill="#0C2030" /><rect x="1572" y="1198" width="219" height="921" fill="#0C2030" /><rect x="1828" y="1033" width="219" height="1152" fill="#0C2030" /></g>
  <g filter="url(#soft87)"><rect x="1024" y="1024" width="219" height="1024" fill="url(#symbol87)" /><rect x="1280" y="1280" width="219" height="768" fill="url(#symbol87)" /><rect x="1536" y="1152" width="219" height="921" fill="url(#symbol87)" /><rect x="1792" y="987" width="219" height="1152" fill="url(#symbol87)" /></g>
  <rect x="138" y="138" width="2796" height="2796" rx="629" fill="#FFFFFF" filter="url(#grain87)" opacity="0.18" />
</svg>
