<svg xmlns="http://www.w3.org/2000/svg" width="3072" height="3072" viewBox="0 0 3072 3072">
  <title>QuartzOS App Icon 268 - core_browser_268</title>
  <defs><linearGradient id="bg267" x1="0%" y1="0%" x2="100%" y2="100%"><stop offset="0%" stop-color="#3B82FF" /><stop offset="26%" stop-color="#FF6AB3" /><stop offset="56%" stop-color="#FFD84D" /><stop offset="78%" stop-color="#6C7CC5" /><stop offset="100%" stop-color="#1E2032" /></linearGradient><radialGradient id="sun267" cx="24%" cy="9%" r="88%"><stop offset="0%" stop-color="#FFFFFF" stop-opacity="0.62" /><stop offset="30%" stop-color="#53E3A6" stop-opacity="0.35" /><stop offset="100%" stop-color="#53E3A6" stop-opacity="0" /></radialGradient><linearGradient id="glass267" x1="0%" y1="0%" x2="0%" y2="100%"><stop offset="0%" stop-color="#FFFFFF" stop-opacity="0.70" /><stop offset="46%" stop-color="#FFFFFF" stop-opacity="0.26" /><stop offset="100%" stop-color="#FFFFFF" stop-opacity="0.00" /></linearGradient><linearGradient id="ribbon267" x1="0%" y1="0%" x2="100%" y2="0%"><stop offset="0%" stop-color="#3B82FF" stop-opacity="0.18" /><stop offset="34%" stop-color="#FF6AB3" stop-opacity="0.72" /><stop offset="66%" stop-color="#FFD84D" stop-opacity="0.72" /><stop offset="100%" stop-color="#53E3A6" stop-opacity="0.18" /></linearGradient><radialGradient id="orb267" cx="34%" cy="27%" r="74%"><stop offset="0%" stop-color="#FFFFFF" stop-opacity="0.84" /><stop offset="30%" stop-color="#3B82FF" stop-opacity="0.52" /><stop offset="68%" stop-color="#FF6AB3" stop-opacity="0.42" /><stop offset="100%" stop-color="#FFD84D" stop-opacity="0.20" /></radialGradient><linearGradient id="extrude267" x1="0%" y1="0%" x2="0%" y2="100%"><stop offset="0%" stop-color="#15283C" stop-opacity="0.45" /><stop offset="100%" stop-color="#08131D" stop-opacity="0.06" /></linearGradient><linearGradient id="symbol267" x1="0%" y1="0%" x2="100%" y2="100%"><stop offset="0%" stop-color="#FFFFFF" /><stop offset="100%" stop-color="#53E3A6" /></linearGradient><filter id="shadow267" x="-40%" y="-40%" width="180%" height="180%"><feDropShadow dx="0" dy="49" stdDeviation="86" flood-color="#06111A" flood-opacity="0.54" /></filter><filter id="soft267" x="-40%" y="-40%" width="180%" height="180%"><feDropShadow dx="0" dy="0" stdDeviation="14" flood-color="#3B82FF" flood-opacity="0.45" /></filter><filter id="grain267"><feTurbulence type="fractalNoise" baseFrequency="0.698" numOctaves="2" seed="267" /><feColorMatrix type="saturate" values="0" /><feComponentTransfer><feFuncA type="table" tableValues="0 0.09" /></feComponentTransfer></filter></defs>
  <rect x="138" y="138" width="2796" height="2796" rx="629" fill="url(#bg267)" filter="url(#shadow267)" />
  <rect x="138" y="138" width="2796" height="2796" rx="629" fill="url(#sun267)" />
  <g><circle cx="1868" cy="1634" r="90" fill="#FFFFFF" opacity="0.100" /><circle cx="1137" cy="512" r="113" fill="#FFFFFF" opacity="0.195" /><circle cx="545" cy="1781" r="117" fill="#FFFFFF" opacity="0.218" /><circle cx="2600" cy="1948" r="159" fill="#FFFFFF" opacity="0.118" /><circle cx="2203" cy="2326" r="134" fill="#FFFFFF" opacity="0.136" /><circle cx="2590" cy="1214" r="52" fill="#FFFFFF" opacity="0.126" /><circle cx="1720" cy="2692" r="128" fill="#FFFFFF" opacity="0.191" /><circle cx="2406" cy="724" r="93" fill="#FFFFFF" opacity="0.163" /><circle cx="2004" cy="904" r="61" fill="#FFFFFF" opacity="0.063" /><circle cx="2126" cy="1424" r="76" fill="#FFFFFF" opacity="0.213" /><circle cx="2373" cy="1568" r="142" fill="#FFFFFF" opacity="0.173" /><circle cx="1021" cy="1258" r="106" fill="#FFFFFF" opacity="0.131" /><circle cx="518" cy="1238" r="49" fill="#FFFFFF" opacity="0.216" /><circle cx="2216" cy="2175" r="116" fill="#FFFFFF" opacity="0.207" /><circle cx="1019" cy="1484" r="143" fill="#FFFFFF" opacity="0.224" /><circle cx="563" cy="1710" r="149" fill="#FFFFFF" opacity="0.119" /><circle cx="2421" cy="1749" r="148" fill="#FFFFFF" opacity="0.202" /><circle cx="433" cy="2686" r="64" fill="#FFFFFF" opacity="0.237" /><circle cx="2548" cy="741" r="73" fill="#FFFFFF" opacity="0.131" /><circle cx="375" cy="2697" r="151" fill="#FFFFFF" opacity="0.065" /><circle cx="1038" cy="1559" r="74" fill="#FFFFFF" opacity="0.170" /><circle cx="694" cy="1713" r="51" fill="#FFFFFF" opacity="0.101" /><circle cx="1449" cy="1409" r="106" fill="#FFFFFF" opacity="0.139" /><circle cx="1247" cy="1449" r="58" fill="#FFFFFF" opacity="0.123" /><circle cx="1250" cy="1827" r="104" fill="#FFFFFF" opacity="0.103" /><circle cx="1142" cy="1288" r="121" fill="#FFFFFF" opacity="0.175" /><circle cx="2382" cy="1084" r="80" fill="#FFFFFF" opacity="0.061" /><circle cx="2654" cy="346" r="115" fill="#FFFFFF" opacity="0.131" /></g>
  <g><path d="M 353.0 568.8 L 2878.3 292.3 L 2878.3 767.8 L 353.0 1044.3 Z" fill="#FFFFFF" opacity="0.104" /><path d="M 370.9 851.5 L 2825.3 575.1 L 2825.3 1016.5 L 370.9 1293.0 Z" fill="#FFFFFF" opacity="0.155" /><path d="M 331.8 1172.3 L 2883.5 895.8 L 2883.5 1339.3 L 331.8 1615.8 Z" fill="#FFFFFF" opacity="0.095" /><path d="M 293.9 1405.3 L 2681.4 1128.8 L 2681.4 1581.9 L 293.9 1858.4 Z" fill="#FFFFFF" opacity="0.131" /><path d="M 233.0 1639.9 L 2838.4 1363.4 L 2838.4 1846.5 L 233.0 2123.0 Z" fill="#FFFFFF" opacity="0.226" /><path d="M 207.1 1951.5 L 2690.9 1675.0 L 2690.9 2094.0 L 207.1 2370.5 Z" fill="#FFFFFF" opacity="0.139" /><path d="M 319.3 2166.5 L 2917.8 1890.0 L 2917.8 2353.1 L 319.3 2629.6 Z" fill="#FFFFFF" opacity="0.134" /><path d="M 252.5 2446.6 L 2695.6 2170.1 L 2695.6 2588.0 L 252.5 2864.4 Z" fill="#FFFFFF" opacity="0.150" /></g>
  <g filter="url(#soft267)"><g transform="rotate(-11.09 1536.0 1536.0)"><path d="M-368.6 487.8 C -225.8 453.7, -25.8 525.8, 107.5 437.8 C 250.4 418.4, 450.4 529.5, 583.7 469.8 C 726.5 462.9, 926.5 495.6, 1059.8 512.8 C 1202.7 503.4, 1402.7 475.6, 1536.0 540.6 C 1678.8 530.3, 1878.8 424.6, 2012.2 536.4 C 2155.0 530.1, 2355.0 446.9, 2488.3 502.8 C 2631.2 497.4, 2831.2 482.7, 2964.5 460.1 C 3107.3 454.3, 3307.3 520.8, 3440.6 434.2" fill="none" stroke="url(#ribbon267)" stroke-width="58.4" stroke-linecap="round" stroke-opacity="0.120" /></g><g transform="rotate(-10.51 1536.0 1536.0)"><path d="M-368.6 761.1 C -241.7 720.0, -63.9 805.1, 54.6 759.7 C 181.6 760.1, 359.4 761.7, 477.9 804.9 C 604.8 807.9, 782.6 711.3, 901.1 823.5 C 1028.1 832.8, 1205.9 740.3, 1324.4 804.3 C 1451.3 796.9, 1629.1 712.0, 1747.6 758.9 C 1874.6 758.4, 2052.4 761.9, 2170.9 714.8 C 2297.9 712.5, 2475.6 803.3, 2594.1 698.9 C 2721.1 704.3, 2898.9 797.3, 3017.4 720.7 C 3144.4 713.6, 3322.1 797.8, 3440.6 767.0" fill="none" stroke="url(#ribbon267)" stroke-width="54.4" stroke-linecap="round" stroke-opacity="0.146" /></g><g transform="rotate(-9.93 1536.0 1536.0)"><path d="M-368.6 911.6 C -254.4 842.5, -94.4 976.2, 12.3 890.9 C 126.6 890.3, 286.6 936.2, 393.2 944.7 C 507.5 952.3, 667.5 882.8, 774.1 978.5 C 888.4 971.0, 1048.4 835.0, 1155.1 971.7 C 1269.4 959.5, 1429.3 869.6, 1536.0 928.5 C 1650.3 929.7, 1810.3 902.7, 1916.9 875.1 C 2031.2 868.6, 2191.2 943.1, 2297.9 843.8 C 2412.1 817.2, 2572.1 973.5, 2678.8 853.7 C 2793.1 858.0, 2953.1 980.1, 3059.7 898.7 C 3174.0 903.7, 3334.0 921.2, 3440.6 951.6" fill="none" stroke="url(#ribbon267)" stroke-width="50.4" stroke-linecap="round" stroke-opacity="0.172" /></g><g transform="rotate(-9.35 1536.0 1536.0)"><path d="M-368.6 1043.2 C -264.8 993.6, -119.3 1116.2, -22.3 1022.4 C 81.5 1022.6, 227.0 1056.4, 324.0 1081.5 C 427.8 1080.0, 573.3 1022.6, 670.3 1117.4 C 774.1 1097.9, 919.6 992.7, 1016.6 1108.2 C 1120.4 1091.5, 1265.9 985.5, 1362.9 1059.6 C 1466.7 1058.7, 1612.2 1029.7, 1709.1 1001.0 C 1813.0 987.1, 1958.5 1064.8, 2055.4 968.0 C 2159.3 997.5, 2304.8 1093.7, 2401.7 980.6 C 2505.6 990.0, 2651.1 1116.6, 2748.0 1031.1 C 2851.9 1030.1, 2997.4 1050.1, 3094.3 1089.0 C 3198.2 1073.8, 3343.7 994.9, 3440.6 1119.0" fill="none" stroke="url(#ribbon267)" stroke-width="46.4" stroke-linecap="round" stroke-opacity="0.198" /></g><g transform="rotate(-8.77 1536.0 1536.0)"><path d="M-368.6 1297.4 C -273.4 1237.4, -140.1 1369.4, -51.2 1293.4 C 44.0 1294.4, 177.4 1299.2, 266.2 1354.5 C 361.5 1362.1, 494.8 1241.7, 583.7 1380.9 C 678.9 1363.9, 812.2 1242.8, 901.1 1356.6 C 996.4 1364.7, 1129.7 1279.6, 1218.6 1296.4 C 1313.8 1296.7, 1447.1 1297.8, 1536.0 1236.8 C 1631.2 1223.6, 1764.6 1327.8, 1853.4 1213.9 C 1948.7 1221.9, 2082.0 1397.0, 2170.9 1241.6 C 2266.1 1220.9, 2399.4 1356.2, 2488.3 1303.2 C 2583.6 1303.8, 2716.9 1295.1, 2805.8 1361.2 C 2901.0 1356.6, 3034.3 1266.6, 3123.2 1380.5 C 3218.4 1360.2, 3351.8 1259.2, 3440.6 1349.4" fill="none" stroke="url(#ribbon267)" stroke-width="42.4" stroke-linecap="round" stroke-opacity="0.224" /></g><g transform="rotate(-8.19 1536.0 1536.0)"><path d="M-368.6 1547.8 C -225.8 1621.1, -25.8 1514.2, 107.5 1624.9 C 250.4 1595.0, 450.4 1508.3, 583.7 1567.4 C 726.5 1562.9, 926.5 1534.5, 1059.8 1498.0 C 1202.7 1486.6, 1402.7 1585.3, 1536.0 1458.8 C 1678.8 1442.8, 1878.8 1621.6, 2012.2 1473.5 C 2155.0 1500.6, 2355.0 1586.0, 2488.3 1533.3 C 2631.2 1529.0, 2831.2 1563.9, 2964.5 1601.9 C 3107.3 1617.2, 3307.3 1524.6, 3440.6 1637.6" fill="none" stroke="url(#ribbon267)" stroke-width="38.4" stroke-linecap="round" stroke-opacity="0.250" /></g><g transform="rotate(-7.61 1536.0 1536.0)"><path d="M-368.6 1711.1 C -241.7 1786.4, -63.9 1687.9, 54.6 1808.8 C 181.6 1829.9, 359.4 1626.9, 477.9 1779.1 C 604.8 1800.6, 782.6 1641.5, 901.1 1708.1 C 1028.1 1709.1, 1205.9 1712.9, 1324.4 1639.0 C 1451.3 1650.2, 1629.1 1783.2, 1747.6 1613.6 C 1874.6 1618.9, 2052.4 1805.7, 2170.9 1647.4 C 2297.9 1626.0, 2475.6 1755.7, 2594.1 1719.8 C 2721.1 1722.6, 2898.9 1707.4, 3017.4 1787.0 C 3144.4 1804.4, 3322.1 1687.0, 3440.6 1808.1" fill="none" stroke="url(#ribbon267)" stroke-width="34.4" stroke-linecap="round" stroke-opacity="0.276" /></g><g transform="rotate(-7.03 1536.0 1536.0)"><path d="M-368.6 1902.8 C -254.4 1985.1, -94.4 1861.8, 12.3 1948.8 C 126.6 1947.0, 286.6 1866.3, 393.2 1867.3 C 507.5 1858.3, 667.5 1939.9, 774.1 1807.4 C 888.4 1793.3, 1048.4 1950.2, 1155.1 1805.3 C 1269.4 1781.0, 1429.3 1991.8, 1536.0 1862.4 C 1650.3 1855.4, 1810.3 1928.2, 1916.9 1944.0 C 2031.2 1930.1, 2191.2 1871.1, 2297.9 2000.6 C 2412.1 1973.9, 2572.1 1817.9, 2678.8 1997.9 C 2793.1 1959.9, 2953.1 1859.8, 3059.7 1937.5 C 3174.0 1932.4, 3334.0 1875.9, 3440.6 1856.1" fill="none" stroke="url(#ribbon267)" stroke-width="30.4" stroke-linecap="round" stroke-opacity="0.302" /></g><g transform="rotate(-6.45 1536.0 1536.0)"><path d="M-368.6 2028.4 C -264.8 2149.4, -119.3 1949.0, -22.3 2072.3 C 81.5 2063.9, 227.0 2009.1, 324.0 1985.2 C 427.8 1997.9, 573.3 2065.7, 670.3 1924.3 C 774.1 1917.4, 919.6 2126.9, 1016.6 1926.5 C 1120.4 1946.0, 1265.9 2115.9, 1362.9 1990.5 C 1466.7 1998.7, 1612.2 2066.4, 1709.1 2077.5 C 1813.0 2075.4, 1958.5 1980.1, 2055.4 2134.6 C 2159.3 2170.2, 2304.8 1915.5, 2401.7 2127.3 C 2505.6 2115.2, 2651.1 1929.6, 2748.0 2060.0 C 2851.9 2051.3, 2997.4 1998.9, 3094.3 1973.5 C 3198.2 1967.1, 3343.7 2078.9, 3440.6 1920.2" fill="none" stroke="url(#ribbon267)" stroke-width="26.4" stroke-linecap="round" stroke-opacity="0.328" /></g><g transform="rotate(-5.87 1536.0 1536.0)"><path d="M-368.6 2316.4 C -273.4 2396.8, -140.1 2271.9, -51.2 2292.4 C 44.0 2295.6, 177.4 2339.9, 266.2 2216.1 C 361.5 2218.3, 494.8 2376.7, 583.7 2200.7 C 678.9 2175.0, 812.2 2413.6, 901.1 2255.4 C 996.4 2237.6, 1129.7 2359.6, 1218.6 2347.1 C 1313.8 2349.7, 1447.1 2292.6, 1536.0 2420.2 C 1631.2 2452.4, 1764.6 2233.7, 1853.4 2430.3 C 1948.7 2416.2, 2082.0 2199.4, 2170.9 2371.3 C 2266.1 2372.2, 2399.4 2272.1, 2488.3 2279.0 C 2583.6 2266.1, 2716.9 2349.5, 2805.8 2209.4 C 2901.0 2215.2, 3034.3 2371.7, 3123.2 2204.7 C 3218.4 2200.4, 3351.8 2356.9, 3440.6 2267.7" fill="none" stroke="url(#ribbon267)" stroke-width="22.4" stroke-linecap="round" stroke-opacity="0.354" /></g><g transform="rotate(-5.29 1536.0 1536.0)"><path d="M-368.6 2448.5 C -225.8 2408.7, -25.8 2527.2, 107.5 2325.6 C 250.4 2355.4, 450.4 2569.9, 583.7 2343.2 C 726.5 2321.9, 926.5 2518.1, 1059.8 2424.6 C 1202.7 2431.2, 1402.7 2464.7, 1536.0 2520.6 C 1678.8 2546.8, 1878.8 2388.3, 2012.2 2572.8 C 2155.0 2557.0, 2355.0 2336.1, 2488.3 2549.6 C 2631.2 2529.4, 2831.2 2335.6, 2964.5 2465.1 C 3107.3 2467.6, 3307.3 2441.6, 3440.6 2370.5" fill="none" stroke="url(#ribbon267)" stroke-width="18.4" stroke-linecap="round" stroke-opacity="0.380" /></g><g transform="rotate(-4.71 1536.0 1536.0)"><path d="M-368.6 2600.6 C -241.7 2629.4, -63.9 2562.4, 54.6 2536.9 C 181.6 2522.2, 359.4 2660.8, 477.9 2472.4 C 604.8 2469.3, 782.6 2683.2, 901.1 2485.7 C 1028.1 2466.3, 1205.9 2646.2, 1324.4 2568.6 C 1451.3 2562.0, 1629.1 2619.9, 1747.6 2670.9 C 1874.6 2652.3, 2052.4 2533.1, 2170.9 2730.6 C 2297.9 2717.6, 2475.6 2532.6, 2594.1 2711.3 C 2721.1 2667.0, 2898.9 2562.7, 3017.4 2624.9 C 3144.4 2619.2, 3322.1 2591.5, 3440.6 2523.7" fill="none" stroke="url(#ribbon267)" stroke-width="14.4" stroke-linecap="round" stroke-opacity="0.406" /></g></g>
  <g><ellipse cx="1536.0" cy="1551.9" rx="728.6" ry="605.7" fill="url(#extrude267)" opacity="0.220" /><ellipse cx="1536.0" cy="1567.7" rx="736.0" ry="610.9" fill="url(#extrude267)" opacity="0.205" /><ellipse cx="1536.0" cy="1583.6" rx="743.4" ry="616.1" fill="url(#extrude267)" opacity="0.190" /><ellipse cx="1536.0" cy="1599.5" rx="750.9" ry="621.3" fill="url(#extrude267)" opacity="0.175" /><ellipse cx="1536.0" cy="1615.4" rx="758.3" ry="626.5" fill="url(#extrude267)" opacity="0.160" /><ellipse cx="1536.0" cy="1631.2" rx="765.7" ry="631.7" fill="url(#extrude267)" opacity="0.145" /><ellipse cx="1536.0" cy="1647.1" rx="773.2" ry="636.9" fill="url(#extrude267)" opacity="0.130" /><ellipse cx="1536.0" cy="1663.0" rx="780.6" ry="642.1" fill="url(#extrude267)" opacity="0.115" /><ellipse cx="1536.0" cy="1678.8" rx="788.0" ry="647.4" fill="url(#extrude267)" opacity="0.100" /><ellipse cx="1536.0" cy="1694.7" rx="795.5" ry="652.6" fill="url(#extrude267)" opacity="0.085" /><ellipse cx="1536.0" cy="1710.6" rx="802.9" ry="657.8" fill="url(#extrude267)" opacity="0.070" /><ellipse cx="1536.0" cy="1726.5" rx="810.3" ry="663.0" fill="url(#extrude267)" opacity="0.055" /></g>
  <ellipse cx="1536.0" cy="1726.5" rx="773.2" ry="214.9" fill="#0B1D2D" opacity="0.24" />
  <ellipse cx="1536.0" cy="1536.0" rx="743.4" ry="651.3" fill="url(#orb267)" stroke="#FFFFFF" stroke-opacity="0.42" stroke-width="7" />
  <ellipse cx="1431.9" cy="1392.7" rx="505.5" ry="299.6" fill="#FFFFFF" opacity="0.25" />
  <path d="M 199.4 399.4 C 1013.8 -30.7, 2058.2 768.0, 2872.6 215.0 L 2872.6 983.0 C 2089.0 1228.8, 1013.8 307.2, 199.4 1167.4 Z" fill="url(#glass267)" />
  <rect x="270" y="270" width="2532" height="2532" rx="430" fill="none" stroke="#FFFFFF" stroke-opacity="0.30" stroke-width="5" />
  <rect x="288.4" y="288.4" width="2495.1" height="2495.1" rx="399" fill="none" stroke="#3B82FF" stroke-opacity="0.35" stroke-width="3" />
  <g filter="url(#soft267)"><rect x="2552" y="664" width="46" height="2" fill="#FFFFFF" opacity="0.424" /><rect x="2574" y="642" width="2" height="46" fill="#FFFFFF" opacity="0.424" /><rect x="2669" y="2540" width="44" height="2" fill="#FFFFFF" opacity="0.739" /><rect x="2690" y="2519" width="2" height="44" fill="#FFFFFF" opacity="0.739" /><rect x="2593" y="2608" width="74" height="2" fill="#FFFFFF" opacity="0.663" /><rect x="2629" y="2572" width="2" height="74" fill="#FFFFFF" opacity="0.663" /><rect x="1184" y="1569" width="30" height="2" fill="#FFFFFF" opacity="0.772" /><rect x="1198" y="1555" width="2" height="30" fill="#FFFFFF" opacity="0.772" /><rect x="1253" y="2349" width="68" height="2" fill="#FFFFFF" opacity="0.532" /><rect x="1286" y="2316" width="2" height="68" fill="#FFFFFF" opacity="0.532" /><rect x="2568" y="2099" width="50" height="2" fill="#FFFFFF" opacity="0.706" /><rect x="2592" y="2075" width="2" height="50" fill="#FFFFFF" opacity="0.706" /><rect x="1575" y="1544" width="56" height="2" fill="#FFFFFF" opacity="0.809" /><rect x="1602" y="1517" width="2" height="56" fill="#FFFFFF" opacity="0.809" /><rect x="1021" y="391" width="64" height="2" fill="#FFFFFF" opacity="0.827" /><rect x="1052" y="360" width="2" height="64" fill="#FFFFFF" opacity="0.827" /><rect x="1484" y="1034" width="68" height="2" fill="#FFFFFF" opacity="0.546" /><rect x="1517" y="1001" width="2" height="68" fill="#FFFFFF" opacity="0.546" /><rect x="1297" y="600" width="58" height="2" fill="#FFFFFF" opacity="0.470" /><rect x="1325" y="572" width="2" height="58" fill="#FFFFFF" opacity="0.470" /><rect x="1298" y="2399" width="72" height="2" fill="#FFFFFF" opacity="0.720" /><rect x="1333" y="2364" width="2" height="72" fill="#FFFFFF" opacity="0.720" /><rect x="1720" y="354" width="26" height="2" fill="#FFFFFF" opacity="0.510" /><rect x="1732" y="342" width="2" height="26" fill="#FFFFFF" opacity="0.510" /><rect x="1242" y="1496" width="82" height="2" fill="#FFFFFF" opacity="0.353" /><rect x="1282" y="1456" width="2" height="82" fill="#FFFFFF" opacity="0.353" /><rect x="2494" y="1053" width="30" height="2" fill="#FFFFFF" opacity="0.539" /><rect x="2508" y="1039" width="2" height="30" fill="#FFFFFF" opacity="0.539" /><rect x="1749" y="1662" width="34" height="2" fill="#FFFFFF" opacity="0.504" /><rect x="1765" y="1646" width="2" height="34" fill="#FFFFFF" opacity="0.504" /><rect x="1691" y="2576" width="62" height="2" fill="#FFFFFF" opacity="0.602" /><rect x="1721" y="2546" width="2" height="62" fill="#FFFFFF" opacity="0.602" /><rect x="1222" y="1265" width="26" height="2" fill="#FFFFFF" opacity="0.736" /><rect x="1234" y="1253" width="2" height="26" fill="#FFFFFF" opacity="0.736" /><rect x="1383" y="2564" width="66" height="2" fill="#FFFFFF" opacity="0.365" /><rect x="1415" y="2532" width="2" height="66" fill="#FFFFFF" opacity="0.365" /><rect x="1769" y="932" width="26" height="2" fill="#FFFFFF" opacity="0.699" /><rect x="1781" y="920" width="2" height="26" fill="#FFFFFF" opacity="0.699" /><rect x="1294" y="256" width="46" height="2" fill="#FFFFFF" opacity="0.645" /><rect x="1316" y="234" width="2" height="46" fill="#FFFFFF" opacity="0.645" /><rect x="2281" y="2744" width="46" height="2" fill="#FFFFFF" opacity="0.795" /><rect x="2303" y="2722" width="2" height="46" fill="#FFFFFF" opacity="0.795" /><rect x="2763" y="2383" width="24" height="2" fill="#FFFFFF" opacity="0.719" /><rect x="2774" y="2372" width="2" height="24" fill="#FFFFFF" opacity="0.719" /><rect x="1859" y="1409" width="46" height="2" fill="#FFFFFF" opacity="0.800" /><rect x="1881" y="1387" width="2" height="46" fill="#FFFFFF" opacity="0.800" /><rect x="2760" y="874" width="48" height="2" fill="#FFFFFF" opacity="0.756" /><rect x="2783" y="851" width="2" height="48" fill="#FFFFFF" opacity="0.756" /><rect x="793" y="2661" width="52" height="2" fill="#FFFFFF" opacity="0.323" /><rect x="818" y="2636" width="2" height="52" fill="#FFFFFF" opacity="0.323" /><rect x="748" y="469" width="30" height="2" fill="#FFFFFF" opacity="0.561" /><rect x="762" y="455" width="2" height="30" fill="#FFFFFF" opacity="0.561" /></g>
  <g opacity="0.52"><rect x="1060" y="1070" width="219" height="1024" fill="#0C2030" /><rect x="1316" y="1326" width="219" height="768" fill="#0C2030" /><rect x="1572" y="1198" width="219" height="921" fill="#0C2030" /><rect x="1828" y="1033" width="219" height="1152" fill="#0C2030" /></g>
  <g filter="url(#soft267)"><rect x="1024" y="1024" width="219" height="1024" fill="url(#symbol267)" /><rect x="1280" y="1280" width="219" height="768" fill="url(#symbol267)" /><rect x="1536" y="1152" width="219" height="921" fill="url(#symbol267)" /><rect x="1792" y="987" width="219" height="1152" fill="url(#symbol267)" /></g>
  <rect x="138" y="138" width="2796" height="2796" rx="629" fill="#FFFFFF" filter="url(#grain267)" opacity="0.18" />
</svg>
