<svg xmlns="http://www.w3.org/2000/svg" width="3072" height="3072" viewBox="0 0 3072 3072">
  <title>QuartzOS App Icon 008 - core_editor_008</title>
  <defs><linearGradient id="bg7" x1="0%" y1="0%" x2="100%" y2="100%"><stop offset="0%" stop-color="#36D1FF" /><stop offset="26%" stop-color="#8A5CFF" /><stop offset="56%" stop-color="#FF9F43" /><stop offset="78%" stop-color="#9A6BB4" /><stop offset="100%" stop-color="#271E2A" /></linearGradient><radialGradient id="sun7" cx="29%" cy="20%" r="88%"><stop offset="0%" stop-color="#FFFFFF" stop-opacity="0.62" /><stop offset="30%" stop-color="#FFD84D" stop-opacity="0.35" /><stop offset="100%" stop-color="#FFD84D" stop-opacity="0" /></radialGradient><linearGradient id="glass7" x1="0%" y1="0%" x2="0%" y2="100%"><stop offset="0%" stop-color="#FFFFFF" stop-opacity="0.70" /><stop offset="46%" stop-color="#FFFFFF" stop-opacity="0.26" /><stop offset="100%" stop-color="#FFFFFF" stop-opacity="0.00" /></linearGradient><linearGradient id="ribbon7" x1="0%" y1="0%" x2="100%" y2="0%"><stop offset="0%" stop-color="#36D1FF" stop-opacity="0.18" /><stop offset="34%" stop-color="#8A5CFF" stop-opacity="0.72" /><stop offset="66%" stop-color="#FF9F43" stop-opacity="0.72" /><stop offset="100%" stop-color="#FFD84D" stop-opacity="0.18" /></linearGradient><radialGradient id="orb7" cx="34%" cy="27%" r="74%"><stop offset="0%" stop-color="#FFFFFF" stop-opacity="0.84" /><stop offset="30%" stop-color="#36D1FF" stop-opacity="0.52" /><stop offset="68%" stop-color="#8A5CFF" stop-opacity="0.42" /><stop offset="100%" stop-color="#FF9F43" stop-opacity="0.20" /></radialGradient><linearGradient id="extrude7" x1="0%" y1="0%" x2="0%" y2="100%"><stop offset="0%" stop-color="#15283C" stop-opacity="0.45" /><stop offset="100%" stop-color="#08131D" stop-opacity="0.06" /></linearGradient><linearGradient id="symbol7" x1="0%" y1="0%" x2="100%" y2="100%"><stop offset="0%" stop-color="#FFFFFF" /><stop offset="100%" stop-color="#FFD84D" /></linearGradient><filter id="shadow7" x="-40%" y="-40%" width="180%" height="180%"><feDropShadow dx="0" dy="49" stdDeviation="86" flood-color="#06111A" flood-opacity="0.54" /></filter><filter id="soft7" x="-40%" y="-40%" width="180%" height="180%"><feDropShadow dx="0" dy="0" stdDeviation="14" flood-color="#36D1FF" flood-opacity="0.45" /></filter><filter id="grain7"><feTurbulence type="fractalNoise" baseFrequency="0.929" numOctaves="2" seed="7" /><feColorMatrix type="saturate" values="0" /><feComponentTransfer><feFuncA type="table" tableValues="0 0.09" /></feComponentTransfer></filter></defs>
  <rect x="138" y="138" width="2796" height="2796" rx="629" fill="url(#bg7)" filter="url(#shadow7)" />
  <rect x="138" y="138" width="2796" height="2796" rx="629" fill="url(#sun7)" />
  <g><circle cx="1682" cy="706" r="138" fill="#FFFFFF" opacity="0.194" /><circle cx="2372" cy="1316" r="39" fill="#FFFFFF" opacity="0.122" /><circle cx="1782" cy="1299" r="128" fill="#FFFFFF" opacity="0.073" /><circle cx="2398" cy="2057" r="45" fill="#FFFFFF" opacity="0.122" /><circle cx="1403" cy="436" r="114" fill="#FFFFFF" opacity="0.068" /><circle cx="764" cy="2322" r="102" fill="#FFFFFF" opacity="0.238" /><circle cx="731" cy="393" r="60" fill="#FFFFFF" opacity="0.097" /><circle cx="1409" cy="1126" r="156" fill="#FFFFFF" opacity="0.073" /><circle cx="2697" cy="2251" r="97" fill="#FFFFFF" opacity="0.204" /><circle cx="414" cy="2167" r="127" fill="#FFFFFF" opacity="0.208" /><circle cx="413" cy="1218" r="112" fill="#FFFFFF" opacity="0.064" /><circle cx="651" cy="846" r="93" fill="#FFFFFF" opacity="0.229" /><circle cx="1530" cy="2478" r="107" fill="#FFFFFF" opacity="0.118" /><circle cx="2652" cy="1374" r="153" fill="#FFFFFF" opacity="0.185" /><circle cx="786" cy="2433" r="110" fill="#FFFFFF" opacity="0.203" /><circle cx="2038" cy="1694" r="76" fill="#FFFFFF" opacity="0.074" /><circle cx="1157" cy="2449" r="120" fill="#FFFFFF" opacity="0.170" /><circle cx="523" cy="1309" r="102" fill="#FFFFFF" opacity="0.067" /><circle cx="1873" cy="2383" r="97" fill="#FFFFFF" opacity="0.154" /><circle cx="2475" cy="874" r="49" fill="#FFFFFF" opacity="0.194" /><circle cx="2346" cy="2651" r="104" fill="#FFFFFF" opacity="0.136" /><circle cx="1691" cy="741" r="69" fill="#FFFFFF" opacity="0.228" /><circle cx="991" cy="446" r="129" fill="#FFFFFF" opacity="0.235" /><circle cx="432" cy="852" r="84" fill="#FFFFFF" opacity="0.122" /><circle cx="606" cy="1687" r="58" fill="#FFFFFF" opacity="0.116" /><circle cx="2325" cy="1978" r="115" fill="#FFFFFF" opacity="0.087" /><circle cx="1651" cy="772" r="66" fill="#FFFFFF" opacity="0.199" /><circle cx="2505" cy="1120" r="52" fill="#FFFFFF" opacity="0.156" /></g>
  <g><path d="M 362.7 636.2 L 2710.2 359.7 L 2710.2 835.2 L 362.7 1111.6 Z" fill="#FFFFFF" opacity="0.100" /><path d="M 186.0 918.9 L 2737.6 642.4 L 2737.6 1097.1 L 186.0 1373.6 Z" fill="#FFFFFF" opacity="0.170" /><path d="M 254.8 1141.4 L 2847.8 864.9 L 2847.8 1337.1 L 254.8 1613.6 Z" fill="#FFFFFF" opacity="0.234" /><path d="M 333.7 1375.9 L 2779.7 1099.5 L 2779.7 1584.3 L 333.7 1860.8 Z" fill="#FFFFFF" opacity="0.086" /><path d="M 295.9 1647.5 L 2839.0 1371.1 L 2839.0 1834.0 L 295.9 2110.5 Z" fill="#FFFFFF" opacity="0.121" /><path d="M 222.4 1926.9 L 2795.6 1650.5 L 2795.6 2113.5 L 222.4 2390.0 Z" fill="#FFFFFF" opacity="0.119" /><path d="M 355.1 2182.0 L 2768.0 1905.5 L 2768.0 2371.1 L 355.1 2647.6 Z" fill="#FFFFFF" opacity="0.233" /><path d="M 159.4 2454.1 L 2770.9 2177.6 L 2770.9 2643.5 L 159.4 2920.0 Z" fill="#FFFFFF" opacity="0.144" /></g>
  <g filter="url(#soft7)"><g transform="rotate(-18.69 1536.0 1536.0)"><path d="M-368.6 499.4 C -225.8 505.6, -25.8 493.3, 107.5 464.7 C 250.4 465.4, 450.4 531.5, 583.7 444.4 C 726.5 465.7, 926.5 552.3, 1059.8 457.5 C 1202.7 463.0, 1402.7 535.0, 1536.0 496.0 C 1678.8 494.8, 1878.8 503.3, 2012.2 536.7 C 2155.0 544.8, 2355.0 473.0, 2488.3 554.7 C 2631.2 574.9, 2831.2 446.3, 2964.5 539.2 C 3107.3 526.9, 3307.3 462.1, 3440.6 499.6" fill="none" stroke="url(#ribbon7)" stroke-width="58.4" stroke-linecap="round" stroke-opacity="0.120" /></g><g transform="rotate(-18.11 1536.0 1536.0)"><path d="M-368.6 759.9 C -241.7 742.6, -63.9 764.6, 54.6 793.9 C 181.6 807.2, 359.4 722.9, 477.9 821.1 C 604.8 822.7, 782.6 699.6, 901.1 811.1 C 1028.1 813.4, 1205.9 701.3, 1324.4 770.1 C 1451.3 770.9, 1629.1 748.3, 1747.6 722.9 C 1874.6 723.6, 2052.4 791.8, 2170.9 698.1 C 2297.9 717.6, 2475.6 811.9, 2594.1 710.8 C 2721.1 706.4, 2898.9 809.0, 3017.4 753.2 C 3144.4 754.4, 3322.1 762.1, 3440.6 799.7" fill="none" stroke="url(#ribbon7)" stroke-width="54.4" stroke-linecap="round" stroke-opacity="0.146" /></g><g transform="rotate(-17.53 1536.0 1536.0)"><path d="M-368.6 913.6 C -254.4 959.9, -94.4 883.5, 12.3 901.0 C 126.6 903.9, 286.6 928.2, 393.2 855.9 C 507.5 857.0, 667.5 946.1, 774.1 845.8 C 888.4 858.4, 1048.4 959.6, 1155.1 876.8 C 1269.4 868.0, 1429.3 926.4, 1536.0 930.2 C 1650.3 932.4, 1810.3 894.9, 1916.9 973.6 C 2031.2 951.2, 2191.2 876.4, 2297.9 980.5 C 2412.1 955.5, 2572.1 871.0, 2678.8 947.0 C 2793.1 945.8, 2953.1 892.9, 3059.7 893.2 C 3174.0 886.0, 3334.0 930.6, 3440.6 851.8" fill="none" stroke="url(#ribbon7)" stroke-width="50.4" stroke-linecap="round" stroke-opacity="0.172" /></g><g transform="rotate(-16.95 1536.0 1536.0)"><path d="M-368.6 1099.6 C -264.8 1005.3, -119.3 1187.5, -22.3 1048.2 C 81.5 1043.0, 227.0 1140.5, 324.0 1104.4 C 427.8 1103.7, 573.3 1096.6, 670.3 1157.7 C 774.1 1177.2, 919.6 1067.7, 1016.6 1175.7 C 1120.4 1177.4, 1265.9 1070.3, 1362.9 1147.5 C 1466.7 1135.8, 1612.2 1058.6, 1709.1 1090.2 C 1813.0 1093.7, 1958.5 1103.0, 2055.4 1038.6 C 2159.3 1032.6, 2304.8 1157.0, 2401.7 1023.9 C 2505.6 1011.5, 2651.1 1134.8, 2748.0 1055.2 C 2851.9 1054.5, 2997.4 1133.3, 3094.3 1113.3 C 3198.2 1109.4, 3343.7 1083.6, 3440.6 1163.1" fill="none" stroke="url(#ribbon7)" stroke-width="46.4" stroke-linecap="round" stroke-opacity="0.198" /></g><g transform="rotate(-16.37 1536.0 1536.0)"><path d="M-368.6 1240.4 C -273.4 1181.7, -140.1 1293.6, -51.2 1257.1 C 44.0 1257.6, 177.4 1226.0, 266.2 1310.8 C 361.5 1294.6, 494.8 1219.3, 583.7 1321.8 C 678.9 1321.5, 812.2 1210.0, 901.1 1283.5 C 996.4 1298.5, 1129.7 1224.3, 1218.6 1219.0 C 1313.8 1219.8, 1447.1 1257.5, 1536.0 1167.6 C 1631.2 1182.8, 1764.6 1294.5, 1853.4 1160.3 C 1948.7 1170.5, 2082.0 1303.4, 2170.9 1201.7 C 2266.1 1202.9, 2399.4 1255.2, 2488.3 1266.5 C 2583.6 1276.2, 2716.9 1229.6, 2805.8 1315.6 C 2901.0 1322.0, 3034.3 1206.5, 3123.2 1319.0 C 3218.4 1336.0, 3351.8 1173.6, 3440.6 1274.8" fill="none" stroke="url(#ribbon7)" stroke-width="42.4" stroke-linecap="round" stroke-opacity="0.224" /></g><g transform="rotate(-15.79 1536.0 1536.0)"><path d="M-368.6 1519.6 C -225.8 1562.4, -25.8 1448.3, 107.5 1523.0 C 250.4 1521.8, 450.4 1517.7, 583.7 1457.0 C 726.5 1475.9, 926.5 1592.8, 1059.8 1429.0 C 1202.7 1398.3, 1402.7 1589.4, 1536.0 1455.9 C 1678.8 1464.0, 1878.8 1569.4, 2012.2 1521.5 C 2155.0 1522.1, 2355.0 1518.3, 2488.3 1585.9 C 2631.2 1601.1, 2831.2 1487.7, 2964.5 1610.1 C 3107.3 1629.5, 3307.3 1463.9, 3440.6 1579.4" fill="none" stroke="url(#ribbon7)" stroke-width="38.4" stroke-linecap="round" stroke-opacity="0.250" /></g><g transform="rotate(-15.21 1536.0 1536.0)"><path d="M-368.6 1630.2 C -241.7 1699.5, -63.9 1609.1, 54.6 1616.2 C 181.6 1614.5, 359.4 1644.1, 477.9 1551.1 C 604.8 1546.9, 782.6 1698.8, 901.1 1534.0 C 1028.1 1533.7, 1205.9 1683.8, 1324.4 1575.2 C 1451.3 1590.4, 1629.1 1661.2, 1747.6 1649.8 C 1874.6 1643.7, 2052.4 1620.7, 2170.9 1712.5 C 2297.9 1687.2, 2475.6 1549.8, 2594.1 1725.3 C 2721.1 1690.7, 2898.9 1568.8, 3017.4 1680.4 C 3144.4 1690.2, 3322.1 1578.3, 3440.6 1605.0" fill="none" stroke="url(#ribbon7)" stroke-width="34.4" stroke-linecap="round" stroke-opacity="0.276" /></g><g transform="rotate(-14.63 1536.0 1536.0)"><path d="M-368.6 1899.7 C -254.4 1797.8, -94.4 1936.1, 12.3 1796.6 C 126.6 1771.0, 286.6 1942.0, 393.2 1841.4 C 507.5 1849.1, 667.5 1925.5, 774.1 1921.5 C 888.4 1914.7, 1048.4 1878.5, 1155.1 1988.4 C 1269.4 1981.6, 1429.3 1832.5, 1536.0 2001.4 C 1650.3 2027.1, 1810.3 1827.4, 1916.9 1952.7 C 2031.2 1952.3, 2191.2 1856.6, 2297.9 1871.8 C 2412.1 1881.3, 2572.1 1926.5, 2678.8 1807.8 C 2793.1 1782.2, 2953.1 2001.7, 3059.7 1799.5 C 3174.0 1782.8, 3334.0 1967.9, 3440.6 1852.0" fill="none" stroke="url(#ribbon7)" stroke-width="30.4" stroke-linecap="round" stroke-opacity="0.302" /></g><g transform="rotate(-14.05 1536.0 1536.0)"><path d="M-368.6 2121.3 C -264.8 2014.9, -119.3 2156.4, -22.3 2024.9 C 81.5 1999.3, 227.0 2200.7, 324.0 2094.8 C 427.8 2103.8, 573.3 2130.4, 670.3 2180.7 C 774.1 2202.1, 919.6 2093.2, 1016.6 2230.7 C 1120.4 2212.1, 1265.9 2000.0, 1362.9 2214.3 C 1466.7 2206.7, 1612.2 2035.4, 1709.1 2141.5 C 1813.0 2138.2, 1958.5 2106.0, 2055.4 2056.5 C 2159.3 2074.5, 2304.8 2194.7, 2401.7 2010.8 C 2505.6 1978.3, 2651.1 2220.4, 2748.0 2032.2 C 2851.9 2051.1, 2997.4 2210.2, 3094.3 2107.6 C 3198.2 2102.6, 3343.7 2133.9, 3440.6 2191.4" fill="none" stroke="url(#ribbon7)" stroke-width="26.4" stroke-linecap="round" stroke-opacity="0.328" /></g><g transform="rotate(-13.47 1536.0 1536.0)"><path d="M-368.6 2314.7 C -273.4 2480.6, -140.1 2273.6, -51.2 2402.8 C 44.0 2372.7, 177.4 2284.6, 266.2 2318.8 C 361.5 2320.0, 494.8 2310.0, 583.7 2232.3 C 678.9 2256.3, 812.2 2404.2, 901.1 2195.8 C 996.4 2209.0, 1129.7 2453.0, 1218.6 2231.4 C 1313.8 2254.2, 1447.1 2380.5, 1536.0 2317.5 C 1631.2 2317.7, 1764.6 2313.0, 1853.4 2401.9 C 1948.7 2367.9, 2082.0 2230.7, 2170.9 2433.4 C 2266.1 2445.9, 2399.4 2228.1, 2488.3 2392.9 C 2583.6 2411.1, 2716.9 2287.9, 2805.8 2304.9 C 2901.0 2304.8, 3034.3 2325.5, 3123.2 2222.9 C 3218.4 2199.6, 3351.8 2383.8, 3440.6 2196.6" fill="none" stroke="url(#ribbon7)" stroke-width="22.4" stroke-linecap="round" stroke-opacity="0.354" /></g><g transform="rotate(-12.89 1536.0 1536.0)"><path d="M-368.6 2409.7 C -225.8 2577.1, -25.8 2279.3, 107.5 2498.1 C 250.4 2507.1, 450.4 2334.5, 583.7 2406.9 C 726.5 2406.3, 926.5 2410.6, 1059.8 2317.5 C 1202.7 2285.0, 1402.7 2448.7, 1536.0 2284.0 C 1678.8 2257.0, 1878.8 2465.5, 2012.2 2326.8 C 2155.0 2316.7, 2355.0 2460.8, 2488.3 2419.9 C 2631.2 2416.6, 2831.2 2402.5, 2964.5 2506.9 C 3107.3 2534.9, 3307.3 2363.4, 3440.6 2534.9" fill="none" stroke="url(#ribbon7)" stroke-width="18.4" stroke-linecap="round" stroke-opacity="0.380" /></g><g transform="rotate(-12.31 1536.0 1536.0)"><path d="M-368.6 2667.4 C -241.7 2498.3, -63.9 2737.3, 54.6 2602.6 C 181.6 2588.8, 359.4 2714.7, 477.9 2705.6 C 604.8 2707.3, 782.6 2622.3, 901.1 2785.4 C 1028.1 2793.2, 1205.9 2629.2, 1324.4 2793.6 C 1451.3 2803.6, 1629.1 2567.6, 1747.6 2725.2 C 1874.6 2741.5, 2052.4 2602.6, 2170.9 2621.8 C 2297.9 2620.9, 2475.6 2685.7, 2594.1 2546.0 C 2721.1 2560.4, 2898.9 2786.9, 3017.4 2543.8 C 3144.4 2507.9, 3322.1 2743.1, 3440.6 2616.6" fill="none" stroke="url(#ribbon7)" stroke-width="14.4" stroke-linecap="round" stroke-opacity="0.406" /></g></g>
  <g><ellipse cx="1536.0" cy="1551.9" rx="728.6" ry="605.7" fill="url(#extrude7)" opacity="0.220" /><ellipse cx="1536.0" cy="1567.7" rx="736.0" ry="610.9" fill="url(#extrude7)" opacity="0.205" /><ellipse cx="1536.0" cy="1583.6" rx="743.4" ry="616.1" fill="url(#extrude7)" opacity="0.190" /><ellipse cx="1536.0" cy="1599.5" rx="750.9" ry="621.3" fill="url(#extrude7)" opacity="0.175" /><ellipse cx="1536.0" cy="1615.4" rx="758.3" ry="626.5" fill="url(#extrude7)" opacity="0.160" /><ellipse cx="1536.0" cy="1631.2" rx="765.7" ry="631.7" fill="url(#extrude7)" opacity="0.145" /><ellipse cx="1536.0" cy="1647.1" rx="773.2" ry="636.9" fill="url(#extrude7)" opacity="0.130" /><ellipse cx="1536.0" cy="1663.0" rx="780.6" ry="642.1" fill="url(#extrude7)" opacity="0.115" /><ellipse cx="1536.0" cy="1678.8" rx="788.0" ry="647.4" fill="url(#extrude7)" opacity="0.100" /><ellipse cx="1536.0" cy="1694.7" rx="795.5" ry="652.6" fill="url(#extrude7)" opacity="0.085" /><ellipse cx="1536.0" cy="1710.6" rx="802.9" ry="657.8" fill="url(#extrude7)" opacity="0.070" /><ellipse cx="1536.0" cy="1726.5" rx="810.3" ry="663.0" fill="url(#extrude7)" opacity="0.055" /></g>
  <ellipse cx="1536.0" cy="1726.5" rx="773.2" ry="214.9" fill="#0B1D2D" opacity="0.24" />
  <ellipse cx="1536.0" cy="1536.0" rx="743.4" ry="651.3" fill="url(#orb7)" stroke="#FFFFFF" stroke-opacity="0.42" stroke-width="7" />
  <ellipse cx="1431.9" cy="1392.7" rx="505.5" ry="299.6" fill="#FFFFFF" opacity="0.25" />
  <path d="M 199.4 399.4 C 1013.8 -30.7, 2058.2 768.0, 2872.6 215.0 L 2872.6 983.0 C 2089.0 1228.8, 1013.8 307.2, 199.4 1167.4 Z" fill="url(#glass7)" />
  <rect x="270" y="270" width="2532" height="2532" rx="430" fill="none" stroke="#FFFFFF" stroke-opacity="0.30" stroke-width="5" />
  <rect x="288.4" y="288.4" width="2495.1" height="2495.1" rx="399" fill="none" stroke="#36D1FF" stroke-opacity="0.35" stroke-width="3" />
  <g filter="url(#soft7)"><rect x="1475" y="1504" width="58" height="2" fill="#FFFFFF" opacity="0.439" /><rect x="1503" y="1476" width="2" height="58" fill="#FFFFFF" opacity="0.439" /><rect x="877" y="974" width="32" height="2" fill="#FFFFFF" opacity="0.405" /><rect x="892" y="959" width="2" height="32" fill="#FFFFFF" opacity="0.405" /><rect x="419" y="1100" width="68" height="2" fill="#FFFFFF" opacity="0.448" /><rect x="452" y="1067" width="2" height="68" fill="#FFFFFF" opacity="0.448" /><rect x="421" y="2561" width="40" height="2" fill="#FFFFFF" opacity="0.604" /><rect x="440" y="2542" width="2" height="40" fill="#FFFFFF" opacity="0.604" /><rect x="1705" y="625" width="26" height="2" fill="#FFFFFF" opacity="0.753" /><rect x="1717" y="613" width="2" height="26" fill="#FFFFFF" opacity="0.753" /><rect x="807" y="1259" width="28" height="2" fill="#FFFFFF" opacity="0.754" /><rect x="820" y="1246" width="2" height="28" fill="#FFFFFF" opacity="0.754" /><rect x="2289" y="1182" width="50" height="2" fill="#FFFFFF" opacity="0.411" /><rect x="2313" y="1158" width="2" height="50" fill="#FFFFFF" opacity="0.411" /><rect x="2138" y="698" width="60" height="2" fill="#FFFFFF" opacity="0.616" /><rect x="2167" y="669" width="2" height="60" fill="#FFFFFF" opacity="0.616" /><rect x="2332" y="384" width="64" height="2" fill="#FFFFFF" opacity="0.567" /><rect x="2363" y="353" width="2" height="64" fill="#FFFFFF" opacity="0.567" /><rect x="1606" y="1350" width="70" height="2" fill="#FFFFFF" opacity="0.363" /><rect x="1640" y="1316" width="2" height="70" fill="#FFFFFF" opacity="0.363" /><rect x="1139" y="1715" width="48" height="2" fill="#FFFFFF" opacity="0.318" /><rect x="1162" y="1692" width="2" height="48" fill="#FFFFFF" opacity="0.318" /><rect x="1502" y="2717" width="70" height="2" fill="#FFFFFF" opacity="0.513" /><rect x="1536" y="2683" width="2" height="70" fill="#FFFFFF" opacity="0.513" /><rect x="946" y="730" width="36" height="2" fill="#FFFFFF" opacity="0.446" /><rect x="963" y="713" width="2" height="36" fill="#FFFFFF" opacity="0.446" /><rect x="2416" y="2529" width="72" height="2" fill="#FFFFFF" opacity="0.391" /><rect x="2451" y="2494" width="2" height="72" fill="#FFFFFF" opacity="0.391" /><rect x="803" y="1030" width="74" height="2" fill="#FFFFFF" opacity="0.729" /><rect x="839" y="994" width="2" height="74" fill="#FFFFFF" opacity="0.729" /><rect x="1594" y="508" width="62" height="2" fill="#FFFFFF" opacity="0.608" /><rect x="1624" y="478" width="2" height="62" fill="#FFFFFF" opacity="0.608" /><rect x="770" y="2038" width="34" height="2" fill="#FFFFFF" opacity="0.713" /><rect x="786" y="2022" width="2" height="34" fill="#FFFFFF" opacity="0.713" /><rect x="1508" y="1660" width="48" height="2" fill="#FFFFFF" opacity="0.763" /><rect x="1531" y="1637" width="2" height="48" fill="#FFFFFF" opacity="0.763" /><rect x="898" y="1429" width="76" height="2" fill="#FFFFFF" opacity="0.668" /><rect x="935" y="1392" width="2" height="76" fill="#FFFFFF" opacity="0.668" /><rect x="960" y="1460" width="52" height="2" fill="#FFFFFF" opacity="0.618" /><rect x="985" y="1435" width="2" height="52" fill="#FFFFFF" opacity="0.618" /><rect x="912" y="2117" width="42" height="2" fill="#FFFFFF" opacity="0.511" /><rect x="932" y="2097" width="2" height="42" fill="#FFFFFF" opacity="0.511" /><rect x="1514" y="797" width="30" height="2" fill="#FFFFFF" opacity="0.341" /><rect x="1528" y="783" width="2" height="30" fill="#FFFFFF" opacity="0.341" /><rect x="1969" y="1148" width="40" height="2" fill="#FFFFFF" opacity="0.546" /><rect x="1988" y="1129" width="2" height="40" fill="#FFFFFF" opacity="0.546" /><rect x="1332" y="284" width="64" height="2" fill="#FFFFFF" opacity="0.380" /><rect x="1363" y="253" width="2" height="64" fill="#FFFFFF" opacity="0.380" /><rect x="1513" y="777" width="34" height="2" fill="#FFFFFF" opacity="0.735" /><rect x="1529" y="761" width="2" height="34" fill="#FFFFFF" opacity="0.735" /><rect x="2042" y="1670" width="42" height="2" fill="#FFFFFF" opacity="0.396" /><rect x="2062" y="1650" width="2" height="42" fill="#FFFFFF" opacity="0.396" /></g>
  <g opacity="0.52"><circle cx="1572" cy="1582" r="384" fill="none" stroke="#0C2030" stroke-width="90" /><circle cx="1572" cy="1582" r="153" fill="#0C2030" /><line x1="1572" y1="967" x2="1572" y2="1198" stroke="#0C2030" stroke-width="90" /><line x1="1572" y1="2197" x2="1572" y2="1966" stroke="#0C2030" stroke-width="90" /><line x1="957" y1="1582" x2="1188" y2="1582" stroke="#0C2030" stroke-width="90" /><line x1="2187" y1="1582" x2="1956" y2="1582" stroke="#0C2030" stroke-width="90" /></g>
  <g filter="url(#soft7)"><circle cx="1536" cy="1536" r="384" fill="none" stroke="url(#symbol7)" stroke-width="90" /><circle cx="1536" cy="1536" r="153" fill="url(#symbol7)" /><line x1="1536" y1="921" x2="1536" y2="1152" stroke="url(#symbol7)" stroke-width="90" /><line x1="1536" y1="2151" x2="1536" y2="1920" stroke="url(#symbol7)" stroke-width="90" /><line x1="921" y1="1536" x2="1152" y2="1536" stroke="url(#symbol7)" stroke-width="90" /><line x1="2151" y1="1536" x2="1920" y2="1536" stroke="url(#symbol7)" stroke-width="90" /></g>
  <rect x="138" y="138" width="2796" height="2796" rx="629" fill="#FFFFFF" filter="url(#grain7)" opacity="0.18" />
</svg>
