<svg xmlns="http://www.w3.org/2000/svg" width="3072" height="3072" viewBox="0 0 3072 3072">
  <title>QuartzOS App Icon 148 - core_viewer_148</title>
  <defs><linearGradient id="bg147" x1="0%" y1="0%" x2="100%" y2="100%"><stop offset="0%" stop-color="#36D1FF" /><stop offset="26%" stop-color="#8A5CFF" /><stop offset="56%" stop-color="#FF9F43" /><stop offset="78%" stop-color="#6C7CC5" /><stop offset="100%" stop-color="#1E2032" /></linearGradient><radialGradient id="sun147" cx="27%" cy="39%" r="88%"><stop offset="0%" stop-color="#FFFFFF" stop-opacity="0.62" /><stop offset="30%" stop-color="#FFD84D" stop-opacity="0.35" /><stop offset="100%" stop-color="#FFD84D" stop-opacity="0" /></radialGradient><linearGradient id="glass147" x1="0%" y1="0%" x2="0%" y2="100%"><stop offset="0%" stop-color="#FFFFFF" stop-opacity="0.70" /><stop offset="46%" stop-color="#FFFFFF" stop-opacity="0.26" /><stop offset="100%" stop-color="#FFFFFF" stop-opacity="0.00" /></linearGradient><linearGradient id="ribbon147" x1="0%" y1="0%" x2="100%" y2="0%"><stop offset="0%" stop-color="#36D1FF" stop-opacity="0.18" /><stop offset="34%" stop-color="#8A5CFF" stop-opacity="0.72" /><stop offset="66%" stop-color="#FF9F43" stop-opacity="0.72" /><stop offset="100%" stop-color="#FFD84D" stop-opacity="0.18" /></linearGradient><radialGradient id="orb147" cx="34%" cy="27%" r="74%"><stop offset="0%" stop-color="#FFFFFF" stop-opacity="0.84" /><stop offset="30%" stop-color="#36D1FF" stop-opacity="0.52" /><stop offset="68%" stop-color="#8A5CFF" stop-opacity="0.42" /><stop offset="100%" stop-color="#FF9F43" stop-opacity="0.20" /></radialGradient><linearGradient id="extrude147" x1="0%" y1="0%" x2="0%" y2="100%"><stop offset="0%" stop-color="#15283C" stop-opacity="0.45" /><stop offset="100%" stop-color="#08131D" stop-opacity="0.06" /></linearGradient><linearGradient id="symbol147" x1="0%" y1="0%" x2="100%" y2="100%"><stop offset="0%" stop-color="#FFFFFF" /><stop offset="100%" stop-color="#FFD84D" /></linearGradient><filter id="shadow147" x="-40%" y="-40%" width="180%" height="180%"><feDropShadow dx="0" dy="49" stdDeviation="86" flood-color="#06111A" flood-opacity="0.54" /></filter><filter id="soft147" x="-40%" y="-40%" width="180%" height="180%"><feDropShadow dx="0" dy="0" stdDeviation="14" flood-color="#36D1FF" flood-opacity="0.45" /></filter><filter id="grain147"><feTurbulence type="fractalNoise" baseFrequency="0.774" numOctaves="2" seed="147" /><feColorMatrix type="saturate" values="0" /><feComponentTransfer><feFuncA type="table" tableValues="0 0.09" /></feComponentTransfer></filter></defs>
  <rect x="138" y="138" width="2796" height="2796" rx="629" fill="url(#bg147)" filter="url(#shadow147)" />
  <rect x="138" y="138" width="2796" height="2796" rx="629" fill="url(#sun147)" />
  <g><circle cx="565" cy="1576" r="56" fill="#FFFFFF" opacity="0.231" /><circle cx="993" cy="621" r="100" fill="#FFFFFF" opacity="0.095" /><circle cx="959" cy="2316" r="144" fill="#FFFFFF" opacity="0.110" /><circle cx="2440" cy="459" r="137" fill="#FFFFFF" opacity="0.088" /><circle cx="834" cy="2159" r="77" fill="#FFFFFF" opacity="0.213" /><circle cx="1668" cy="1424" r="54" fill="#FFFFFF" opacity="0.112" /><circle cx="1835" cy="733" r="138" fill="#FFFFFF" opacity="0.103" /><circle cx="1507" cy="2156" r="65" fill="#FFFFFF" opacity="0.107" /><circle cx="1373" cy="399" r="139" fill="#FFFFFF" opacity="0.209" /><circle cx="1150" cy="1185" r="46" fill="#FFFFFF" opacity="0.060" /><circle cx="1879" cy="2699" r="128" fill="#FFFFFF" opacity="0.108" /><circle cx="1099" cy="644" r="43" fill="#FFFFFF" opacity="0.145" /><circle cx="936" cy="1364" r="146" fill="#FFFFFF" opacity="0.239" /><circle cx="669" cy="1745" r="85" fill="#FFFFFF" opacity="0.146" /><circle cx="1995" cy="621" r="149" fill="#FFFFFF" opacity="0.215" /><circle cx="2060" cy="1596" r="147" fill="#FFFFFF" opacity="0.155" /><circle cx="1298" cy="1312" r="86" fill="#FFFFFF" opacity="0.196" /><circle cx="2320" cy="961" r="44" fill="#FFFFFF" opacity="0.204" /><circle cx="2385" cy="332" r="150" fill="#FFFFFF" opacity="0.123" /><circle cx="1211" cy="1380" r="87" fill="#FFFFFF" opacity="0.082" /><circle cx="2147" cy="1011" r="67" fill="#FFFFFF" opacity="0.216" /><circle cx="1628" cy="1242" r="65" fill="#FFFFFF" opacity="0.069" /><circle cx="2115" cy="870" r="39" fill="#FFFFFF" opacity="0.230" /><circle cx="2590" cy="395" r="106" fill="#FFFFFF" opacity="0.238" /><circle cx="648" cy="2301" r="113" fill="#FFFFFF" opacity="0.154" /><circle cx="1114" cy="1311" r="104" fill="#FFFFFF" opacity="0.128" /><circle cx="1009" cy="622" r="89" fill="#FFFFFF" opacity="0.209" /><circle cx="671" cy="2016" r="39" fill="#FFFFFF" opacity="0.231" /></g>
  <g><path d="M 346.3 659.5 L 2759.0 383.0 L 2759.0 832.3 L 346.3 1108.8 Z" fill="#FFFFFF" opacity="0.090" /><path d="M 269.8 907.8 L 2690.7 631.3 L 2690.7 1089.5 L 269.8 1366.0 Z" fill="#FFFFFF" opacity="0.131" /><path d="M 190.9 1146.1 L 2739.1 869.6 L 2739.1 1342.6 L 190.9 1619.1 Z" fill="#FFFFFF" opacity="0.145" /><path d="M 253.0 1443.1 L 2820.8 1166.6 L 2820.8 1591.0 L 253.0 1867.4 Z" fill="#FFFFFF" opacity="0.192" /><path d="M 334.5 1639.2 L 2846.0 1362.7 L 2846.0 1822.5 L 334.5 2099.0 Z" fill="#FFFFFF" opacity="0.152" /><path d="M 298.3 1897.9 L 2745.2 1621.4 L 2745.2 2052.9 L 298.3 2329.4 Z" fill="#FFFFFF" opacity="0.169" /><path d="M 225.3 2192.7 L 2891.1 1916.2 L 2891.1 2382.8 L 225.3 2659.3 Z" fill="#FFFFFF" opacity="0.219" /><path d="M 375.9 2421.1 L 2773.3 2144.6 L 2773.3 2573.2 L 375.9 2849.7 Z" fill="#FFFFFF" opacity="0.164" /></g>
  <g filter="url(#soft147)"><g transform="rotate(-6.14 1536.0 1536.0)"><path d="M-368.6 564.6 C -225.8 591.7, -25.8 553.2, 107.5 548.8 C 250.4 544.8, 450.4 571.9, 583.7 515.6 C 726.5 518.9, 926.5 617.6, 1059.8 512.0 C 1202.7 529.1, 1402.7 589.5, 1536.0 540.4 C 1678.8 538.2, 1878.8 576.0, 2012.2 583.4 C 2155.0 585.7, 2355.0 547.5, 2488.3 615.0 C 2631.2 597.5, 2831.2 541.4, 2964.5 616.0 C 3107.3 633.8, 3307.3 541.0, 3440.6 585.8" fill="none" stroke="url(#ribbon147)" stroke-width="58.4" stroke-linecap="round" stroke-opacity="0.120" /></g><g transform="rotate(-5.56 1536.0 1536.0)"><path d="M-368.6 716.5 C -241.7 718.9, -63.9 714.7, 54.6 673.5 C 181.6 686.9, 359.4 730.3, 477.9 654.2 C 604.8 656.3, 782.6 760.6, 901.1 672.7 C 1028.1 656.7, 1205.9 742.4, 1324.4 717.8 C 1451.3 718.1, 1629.1 716.0, 1747.6 762.1 C 1874.6 764.1, 2052.4 701.2, 2170.9 778.8 C 2297.9 800.1, 2475.6 665.9, 2594.1 757.7 C 2721.1 746.1, 2898.9 682.1, 3017.4 711.7 C 3144.4 711.2, 3322.1 719.1, 3440.6 668.5" fill="none" stroke="url(#ribbon147)" stroke-width="54.4" stroke-linecap="round" stroke-opacity="0.146" /></g><g transform="rotate(-4.98 1536.0 1536.0)"><path d="M-368.6 927.2 C -254.4 841.1, -94.4 957.5, 12.3 862.2 C 126.6 870.1, 286.6 972.6, 393.2 899.5 C 507.5 892.2, 667.5 956.1, 774.1 953.5 C 888.4 960.4, 1048.4 909.3, 1155.1 991.6 C 1269.4 982.8, 1429.3 900.9, 1536.0 990.7 C 1650.3 997.6, 1810.3 876.6, 1916.9 951.2 C 2031.2 958.7, 2191.2 907.5, 2297.9 897.2 C 2412.1 891.8, 2572.1 958.1, 2678.8 861.4 C 2793.1 874.5, 2953.1 976.1, 3059.7 865.5 C 3174.0 856.6, 3334.0 966.1, 3440.6 907.1" fill="none" stroke="url(#ribbon147)" stroke-width="50.4" stroke-linecap="round" stroke-opacity="0.172" /></g><g transform="rotate(-4.40 1536.0 1536.0)"><path d="M-368.6 1070.2 C -264.8 1026.3, -119.3 1101.3, -22.3 993.9 C 81.5 1005.4, 227.0 1126.5, 324.0 1020.2 C 427.8 1017.1, 573.3 1088.5, 670.3 1076.9 C 774.1 1075.2, 919.6 1065.1, 1016.6 1129.6 C 1120.4 1133.8, 1265.9 1009.5, 1362.9 1146.2 C 1466.7 1171.0, 1612.2 1035.4, 1709.1 1116.8 C 1813.0 1127.0, 1958.5 1039.4, 2055.4 1059.2 C 2159.3 1059.9, 2304.8 1078.8, 2401.7 1008.2 C 2505.6 1000.7, 2651.1 1110.0, 2748.0 994.9 C 2851.9 1008.8, 2997.4 1146.2, 3094.3 1027.3 C 3198.2 1043.7, 3343.7 1093.3, 3440.6 1085.7" fill="none" stroke="url(#ribbon147)" stroke-width="46.4" stroke-linecap="round" stroke-opacity="0.198" /></g><g transform="rotate(-3.82 1536.0 1536.0)"><path d="M-368.6 1244.4 C -273.4 1298.8, -140.1 1198.9, -51.2 1294.2 C 44.0 1275.6, 177.4 1219.5, 266.2 1231.0 C 361.5 1231.7, 494.8 1250.3, 583.7 1175.9 C 678.9 1186.1, 812.2 1310.9, 901.1 1162.3 C 996.4 1153.1, 1129.7 1279.5, 1218.6 1198.5 C 1313.8 1202.6, 1447.1 1295.9, 1536.0 1262.5 C 1631.2 1263.2, 1764.6 1231.6, 1853.4 1315.5 C 1948.7 1315.4, 2082.0 1191.5, 2170.9 1325.4 C 2266.1 1336.0, 2399.4 1155.0, 2488.3 1286.1 C 2583.6 1295.8, 2716.9 1231.2, 2805.8 1221.5 C 2901.0 1221.3, 3034.3 1259.1, 3123.2 1170.8 C 3218.4 1144.6, 3351.8 1280.2, 3440.6 1164.7" fill="none" stroke="url(#ribbon147)" stroke-width="42.4" stroke-linecap="round" stroke-opacity="0.224" /></g><g transform="rotate(-3.24 1536.0 1536.0)"><path d="M-368.6 1478.3 C -225.8 1508.1, -25.8 1437.2, 107.5 1446.5 C 250.4 1451.7, 450.4 1516.1, 583.7 1395.3 C 726.5 1414.0, 926.5 1550.5, 1059.8 1394.4 C 1202.7 1389.1, 1402.7 1516.2, 1536.0 1444.4 C 1678.8 1431.3, 1878.8 1509.8, 2012.2 1515.0 C 2155.0 1528.9, 2355.0 1442.9, 2488.3 1563.3 C 2631.2 1596.3, 2831.2 1396.3, 2964.5 1560.0 C 3107.3 1587.4, 3307.3 1426.6, 3440.6 1507.2" fill="none" stroke="url(#ribbon147)" stroke-width="38.4" stroke-linecap="round" stroke-opacity="0.250" /></g><g transform="rotate(-2.66 1536.0 1536.0)"><path d="M-368.6 1645.5 C -241.7 1624.5, -63.9 1657.2, 54.6 1689.2 C 181.6 1687.4, 359.4 1622.9, 477.9 1738.7 C 604.8 1761.6, 782.6 1593.0, 901.1 1731.6 C 1028.1 1739.5, 1205.9 1584.8, 1324.4 1672.3 C 1451.3 1682.1, 1629.1 1621.8, 1747.6 1596.8 C 1874.6 1603.9, 2052.4 1678.9, 2170.9 1550.9 C 2297.9 1515.8, 2475.6 1687.9, 2594.1 1562.3 C 2721.1 1578.4, 2898.9 1692.5, 3017.4 1624.3 C 3144.4 1626.8, 3322.1 1662.3, 3440.6 1699.1" fill="none" stroke="url(#ribbon147)" stroke-width="34.4" stroke-linecap="round" stroke-opacity="0.276" /></g><g transform="rotate(-2.08 1536.0 1536.0)"><path d="M-368.6 1862.9 C -254.4 1940.4, -94.4 1744.9, 12.3 1921.3 C 126.6 1918.2, 286.6 1802.2, 393.2 1841.2 C 507.5 1835.6, 667.5 1871.2, 774.1 1774.3 C 888.4 1766.8, 1048.4 1963.7, 1155.1 1761.1 C 1269.4 1785.8, 1429.3 1976.1, 1536.0 1809.6 C 1650.3 1814.4, 1810.3 1926.2, 1916.9 1890.5 C 2031.2 1888.5, 2191.2 1836.7, 2297.9 1954.6 C 2412.1 1976.0, 2572.1 1800.2, 2678.8 1963.1 C 2793.1 1960.7, 2953.1 1827.0, 3059.7 1910.8 C 3174.0 1911.6, 3334.0 1847.1, 3440.6 1829.4" fill="none" stroke="url(#ribbon147)" stroke-width="30.4" stroke-linecap="round" stroke-opacity="0.302" /></g><g transform="rotate(-1.50 1536.0 1536.0)"><path d="M-368.6 2040.6 C -264.8 2103.5, -119.3 1990.9, -22.3 2003.1 C 81.5 2011.6, 227.0 2064.6, 324.0 1938.9 C 427.8 1967.2, 573.3 2112.9, 670.3 1936.5 C 774.1 1949.5, 919.6 2090.6, 1016.6 1997.2 C 1120.4 1995.8, 1265.9 2069.4, 1362.9 2084.3 C 1466.7 2079.6, 1612.2 1998.4, 1709.1 2144.9 C 1813.0 2173.4, 1958.5 1980.9, 2055.4 2142.3 C 2159.3 2124.2, 2304.8 1993.7, 2401.7 2078.0 C 2505.6 2090.6, 2651.1 2005.1, 2748.0 1991.0 C 2851.9 1986.1, 2997.4 2095.0, 3094.3 1934.2 C 3198.2 1952.0, 3343.7 2147.0, 3440.6 1941.9" fill="none" stroke="url(#ribbon147)" stroke-width="26.4" stroke-linecap="round" stroke-opacity="0.328" /></g><g transform="rotate(-0.92 1536.0 1536.0)"><path d="M-368.6 2218.4 C -273.4 2143.0, -140.1 2273.5, -51.2 2102.7 C 44.0 2091.7, 177.4 2353.2, 266.2 2157.3 C 361.5 2142.7, 494.8 2244.9, 583.7 2249.0 C 678.9 2245.1, 812.2 2184.9, 901.1 2322.1 C 996.4 2297.9, 1129.7 2095.9, 1218.6 2332.4 C 1313.8 2293.8, 1447.1 2178.4, 1536.0 2273.5 C 1631.2 2263.4, 1764.6 2153.1, 1853.4 2181.2 C 1948.7 2175.1, 2082.0 2252.6, 2170.9 2111.5 C 2266.1 2108.1, 2399.4 2325.4, 2488.3 2106.7 C 2583.6 2144.5, 2716.9 2296.2, 2805.8 2169.6 C 2901.0 2157.5, 3034.3 2263.6, 3123.2 2262.2 C 3218.4 2258.2, 3351.8 2170.2, 3440.6 2328.2" fill="none" stroke="url(#ribbon147)" stroke-width="22.4" stroke-linecap="round" stroke-opacity="0.354" /></g><g transform="rotate(-0.34 1536.0 1536.0)"><path d="M-368.6 2405.5 C -225.8 2339.3, -25.8 2471.8, 107.5 2280.8 C 250.4 2245.7, 450.4 2485.8, 583.7 2305.9 C 726.5 2343.8, 926.5 2487.6, 1059.8 2391.4 C 1202.7 2394.8, 1402.7 2417.4, 1536.0 2485.4 C 1678.8 2500.6, 1878.8 2349.5, 2012.2 2531.0 C 2155.0 2568.0, 2355.0 2367.2, 2488.3 2500.4 C 2631.2 2530.4, 2831.2 2363.7, 2964.5 2412.2 C 3107.3 2412.2, 3307.3 2398.7, 3440.6 2320.0" fill="none" stroke="url(#ribbon147)" stroke-width="18.4" stroke-linecap="round" stroke-opacity="0.380" /></g><g transform="rotate(0.24 1536.0 1536.0)"><path d="M-368.6 2647.0 C -241.7 2726.2, -63.9 2570.5, 54.6 2615.9 C 181.6 2625.3, 359.4 2661.3, 477.9 2532.6 C 604.8 2567.1, 782.6 2758.9, 901.1 2518.6 C 1028.1 2486.0, 1205.9 2754.1, 1324.4 2582.5 C 1451.3 2603.6, 1629.1 2687.9, 1747.6 2685.5 C 1874.6 2699.9, 2052.4 2632.6, 2170.9 2765.2 C 2297.9 2773.8, 2475.6 2599.5, 2594.1 2773.1 C 2721.1 2783.7, 2898.9 2520.1, 3017.4 2704.6 C 3144.4 2712.1, 3322.1 2619.4, 3440.6 2601.1" fill="none" stroke="url(#ribbon147)" stroke-width="14.4" stroke-linecap="round" stroke-opacity="0.406" /></g></g>
  <g><ellipse cx="1536.0" cy="1551.9" rx="728.6" ry="605.7" fill="url(#extrude147)" opacity="0.220" /><ellipse cx="1536.0" cy="1567.7" rx="736.0" ry="610.9" fill="url(#extrude147)" opacity="0.205" /><ellipse cx="1536.0" cy="1583.6" rx="743.4" ry="616.1" fill="url(#extrude147)" opacity="0.190" /><ellipse cx="1536.0" cy="1599.5" rx="750.9" ry="621.3" fill="url(#extrude147)" opacity="0.175" /><ellipse cx="1536.0" cy="1615.4" rx="758.3" ry="626.5" fill="url(#extrude147)" opacity="0.160" /><ellipse cx="1536.0" cy="1631.2" rx="765.7" ry="631.7" fill="url(#extrude147)" opacity="0.145" /><ellipse cx="1536.0" cy="1647.1" rx="773.2" ry="636.9" fill="url(#extrude147)" opacity="0.130" /><ellipse cx="1536.0" cy="1663.0" rx="780.6" ry="642.1" fill="url(#extrude147)" opacity="0.115" /><ellipse cx="1536.0" cy="1678.8" rx="788.0" ry="647.4" fill="url(#extrude147)" opacity="0.100" /><ellipse cx="1536.0" cy="1694.7" rx="795.5" ry="652.6" fill="url(#extrude147)" opacity="0.085" /><ellipse cx="1536.0" cy="1710.6" rx="802.9" ry="657.8" fill="url(#extrude147)" opacity="0.070" /><ellipse cx="1536.0" cy="1726.5" rx="810.3" ry="663.0" fill="url(#extrude147)" opacity="0.055" /></g>
  <ellipse cx="1536.0" cy="1726.5" rx="773.2" ry="214.9" fill="#0B1D2D" opacity="0.24" />
  <ellipse cx="1536.0" cy="1536.0" rx="743.4" ry="651.3" fill="url(#orb147)" stroke="#FFFFFF" stroke-opacity="0.42" stroke-width="7" />
  <ellipse cx="1431.9" cy="1392.7" rx="505.5" ry="299.6" fill="#FFFFFF" opacity="0.25" />
  <path d="M 199.4 399.4 C 1013.8 -30.7, 2058.2 768.0, 2872.6 215.0 L 2872.6 983.0 C 2089.0 1228.8, 1013.8 307.2, 199.4 1167.4 Z" fill="url(#glass147)" />
  <rect x="270" y="270" width="2532" height="2532" rx="430" fill="none" stroke="#FFFFFF" stroke-opacity="0.30" stroke-width="5" />
  <rect x="288.4" y="288.4" width="2495.1" height="2495.1" rx="399" fill="none" stroke="#36D1FF" stroke-opacity="0.35" stroke-width="3" />
  <g filter="url(#soft147)"><rect x="723" y="1867" width="38" height="2" fill="#FFFFFF" opacity="0.743" /><rect x="741" y="1849" width="2" height="38" fill="#FFFFFF" opacity="0.743" /><rect x="2354" y="1951" width="42" height="2" fill="#FFFFFF" opacity="0.655" /><rect x="2374" y="1931" width="2" height="42" fill="#FFFFFF" opacity="0.655" /><rect x="1224" y="1030" width="36" height="2" fill="#FFFFFF" opacity="0.304" /><rect x="1241" y="1013" width="2" height="36" fill="#FFFFFF" opacity="0.304" /><rect x="1083" y="2352" width="80" height="2" fill="#FFFFFF" opacity="0.516" /><rect x="1122" y="2313" width="2" height="80" fill="#FFFFFF" opacity="0.516" /><rect x="1665" y="1013" width="80" height="2" fill="#FFFFFF" opacity="0.442" /><rect x="1704" y="974" width="2" height="80" fill="#FFFFFF" opacity="0.442" /><rect x="1771" y="1422" width="58" height="2" fill="#FFFFFF" opacity="0.596" /><rect x="1799" y="1394" width="2" height="58" fill="#FFFFFF" opacity="0.596" /><rect x="1823" y="1645" width="48" height="2" fill="#FFFFFF" opacity="0.795" /><rect x="1846" y="1622" width="2" height="48" fill="#FFFFFF" opacity="0.795" /><rect x="1624" y="266" width="82" height="2" fill="#FFFFFF" opacity="0.823" /><rect x="1664" y="226" width="2" height="82" fill="#FFFFFF" opacity="0.823" /><rect x="2579" y="1382" width="64" height="2" fill="#FFFFFF" opacity="0.761" /><rect x="2610" y="1351" width="2" height="64" fill="#FFFFFF" opacity="0.761" /><rect x="1243" y="1575" width="72" height="2" fill="#FFFFFF" opacity="0.816" /><rect x="1278" y="1540" width="2" height="72" fill="#FFFFFF" opacity="0.816" /><rect x="2783" y="1228" width="32" height="2" fill="#FFFFFF" opacity="0.639" /><rect x="2798" y="1213" width="2" height="32" fill="#FFFFFF" opacity="0.639" /><rect x="1808" y="2615" width="50" height="2" fill="#FFFFFF" opacity="0.421" /><rect x="1832" y="2591" width="2" height="50" fill="#FFFFFF" opacity="0.421" /><rect x="851" y="627" width="52" height="2" fill="#FFFFFF" opacity="0.740" /><rect x="876" y="602" width="2" height="52" fill="#FFFFFF" opacity="0.740" /><rect x="2614" y="322" width="40" height="2" fill="#FFFFFF" opacity="0.423" /><rect x="2633" y="303" width="2" height="40" fill="#FFFFFF" opacity="0.423" /><rect x="1955" y="439" width="72" height="2" fill="#FFFFFF" opacity="0.670" /><rect x="1990" y="404" width="2" height="72" fill="#FFFFFF" opacity="0.670" /><rect x="1234" y="973" width="62" height="2" fill="#FFFFFF" opacity="0.679" /><rect x="1264" y="943" width="2" height="62" fill="#FFFFFF" opacity="0.679" /><rect x="2431" y="408" width="64" height="2" fill="#FFFFFF" opacity="0.438" /><rect x="2462" y="377" width="2" height="64" fill="#FFFFFF" opacity="0.438" /><rect x="1450" y="1670" width="36" height="2" fill="#FFFFFF" opacity="0.617" /><rect x="1467" y="1653" width="2" height="36" fill="#FFFFFF" opacity="0.617" /><rect x="2125" y="1192" width="60" height="2" fill="#FFFFFF" opacity="0.628" /><rect x="2154" y="1163" width="2" height="60" fill="#FFFFFF" opacity="0.628" /><rect x="1005" y="1585" width="28" height="2" fill="#FFFFFF" opacity="0.469" /><rect x="1018" y="1572" width="2" height="28" fill="#FFFFFF" opacity="0.469" /><rect x="1861" y="885" width="34" height="2" fill="#FFFFFF" opacity="0.553" /><rect x="1877" y="869" width="2" height="34" fill="#FFFFFF" opacity="0.553" /><rect x="2420" y="2650" width="44" height="2" fill="#FFFFFF" opacity="0.460" /><rect x="2441" y="2629" width="2" height="44" fill="#FFFFFF" opacity="0.460" /><rect x="926" y="1142" width="52" height="2" fill="#FFFFFF" opacity="0.424" /><rect x="951" y="1117" width="2" height="52" fill="#FFFFFF" opacity="0.424" /><rect x="1193" y="2226" width="32" height="2" fill="#FFFFFF" opacity="0.735" /><rect x="1208" y="2211" width="2" height="32" fill="#FFFFFF" opacity="0.735" /><rect x="2468" y="2757" width="46" height="2" fill="#FFFFFF" opacity="0.393" /><rect x="2490" y="2735" width="2" height="46" fill="#FFFFFF" opacity="0.393" /><rect x="1769" y="405" width="54" height="2" fill="#FFFFFF" opacity="0.348" /><rect x="1795" y="379" width="2" height="54" fill="#FFFFFF" opacity="0.348" /></g>
  <g opacity="0.52"><rect x="1060" y="1070" width="219" height="1024" fill="#0C2030" /><rect x="1316" y="1326" width="219" height="768" fill="#0C2030" /><rect x="1572" y="1198" width="219" height="921" fill="#0C2030" /><rect x="1828" y="1033" width="219" height="1152" fill="#0C2030" /></g>
  <g filter="url(#soft147)"><rect x="1024" y="1024" width="219" height="1024" fill="url(#symbol147)" /><rect x="1280" y="1280" width="219" height="768" fill="url(#symbol147)" /><rect x="1536" y="1152" width="219" height="921" fill="url(#symbol147)" /><rect x="1792" y="987" width="219" height="1152" fill="url(#symbol147)" /></g>
  <rect x="138" y="138" width="2796" height="2796" rx="629" fill="#FFFFFF" filter="url(#grain147)" opacity="0.18" />
</svg>
