<svg xmlns="http://www.w3.org/2000/svg" width="3072" height="3072" viewBox="0 0 3072 3072">
  <title>QuartzOS App Icon 208 - core_notes_208</title>
  <defs><linearGradient id="bg207" x1="0%" y1="0%" x2="100%" y2="100%"><stop offset="0%" stop-color="#FF9F43" /><stop offset="26%" stop-color="#53E3A6" /><stop offset="56%" stop-color="#3B82FF" /><stop offset="78%" stop-color="#6C7CC5" /><stop offset="100%" stop-color="#1E2032" /></linearGradient><radialGradient id="sun207" cx="28%" cy="36%" r="88%"><stop offset="0%" stop-color="#FFFFFF" stop-opacity="0.62" /><stop offset="30%" stop-color="#8A5CFF" stop-opacity="0.35" /><stop offset="100%" stop-color="#8A5CFF" stop-opacity="0" /></radialGradient><linearGradient id="glass207" x1="0%" y1="0%" x2="0%" y2="100%"><stop offset="0%" stop-color="#FFFFFF" stop-opacity="0.70" /><stop offset="46%" stop-color="#FFFFFF" stop-opacity="0.26" /><stop offset="100%" stop-color="#FFFFFF" stop-opacity="0.00" /></linearGradient><linearGradient id="ribbon207" x1="0%" y1="0%" x2="100%" y2="0%"><stop offset="0%" stop-color="#FF9F43" stop-opacity="0.18" /><stop offset="34%" stop-color="#53E3A6" stop-opacity="0.72" /><stop offset="66%" stop-color="#3B82FF" stop-opacity="0.72" /><stop offset="100%" stop-color="#8A5CFF" stop-opacity="0.18" /></linearGradient><radialGradient id="orb207" cx="34%" cy="27%" r="74%"><stop offset="0%" stop-color="#FFFFFF" stop-opacity="0.84" /><stop offset="30%" stop-color="#FF9F43" stop-opacity="0.52" /><stop offset="68%" stop-color="#53E3A6" stop-opacity="0.42" /><stop offset="100%" stop-color="#3B82FF" stop-opacity="0.20" /></radialGradient><linearGradient id="extrude207" x1="0%" y1="0%" x2="0%" y2="100%"><stop offset="0%" stop-color="#15283C" stop-opacity="0.45" /><stop offset="100%" stop-color="#08131D" stop-opacity="0.06" /></linearGradient><linearGradient id="symbol207" x1="0%" y1="0%" x2="100%" y2="100%"><stop offset="0%" stop-color="#FFFFFF" /><stop offset="100%" stop-color="#8A5CFF" /></linearGradient><filter id="shadow207" x="-40%" y="-40%" width="180%" height="180%"><feDropShadow dx="0" dy="49" stdDeviation="86" flood-color="#06111A" flood-opacity="0.54" /></filter><filter id="soft207" x="-40%" y="-40%" width="180%" height="180%"><feDropShadow dx="0" dy="0" stdDeviation="14" flood-color="#FF9F43" flood-opacity="0.45" /></filter><filter id="grain207"><feTurbulence type="fractalNoise" baseFrequency="0.792" numOctaves="2" seed="207" /><feColorMatrix type="saturate" values="0" /><feComponentTransfer><feFuncA type="table" tableValues="0 0.09" /></feComponentTransfer></filter></defs>
  <rect x="138" y="138" width="2796" height="2796" rx="629" fill="url(#bg207)" filter="url(#shadow207)" />
  <rect x="138" y="138" width="2796" height="2796" rx="629" fill="url(#sun207)" />
  <g><circle cx="2464" cy="741" r="158" fill="#FFFFFF" opacity="0.187" /><circle cx="2458" cy="2208" r="145" fill="#FFFFFF" opacity="0.182" /><circle cx="1066" cy="498" r="63" fill="#FFFFFF" opacity="0.174" /><circle cx="1094" cy="1992" r="156" fill="#FFFFFF" opacity="0.212" /><circle cx="1757" cy="1015" r="50" fill="#FFFFFF" opacity="0.201" /><circle cx="383" cy="1238" r="125" fill="#FFFFFF" opacity="0.211" /><circle cx="2530" cy="2048" r="128" fill="#FFFFFF" opacity="0.221" /><circle cx="1015" cy="2663" r="75" fill="#FFFFFF" opacity="0.143" /><circle cx="1674" cy="637" r="74" fill="#FFFFFF" opacity="0.080" /><circle cx="1466" cy="394" r="121" fill="#FFFFFF" opacity="0.155" /><circle cx="2577" cy="2457" r="120" fill="#FFFFFF" opacity="0.139" /><circle cx="2005" cy="2173" r="155" fill="#FFFFFF" opacity="0.076" /><circle cx="1746" cy="965" r="73" fill="#FFFFFF" opacity="0.104" /><circle cx="1246" cy="2590" r="73" fill="#FFFFFF" opacity="0.185" /><circle cx="2068" cy="1034" r="82" fill="#FFFFFF" opacity="0.209" /><circle cx="1607" cy="804" r="151" fill="#FFFFFF" opacity="0.196" /><circle cx="2298" cy="795" r="84" fill="#FFFFFF" opacity="0.066" /><circle cx="2659" cy="428" r="114" fill="#FFFFFF" opacity="0.231" /><circle cx="2438" cy="1191" r="149" fill="#FFFFFF" opacity="0.231" /><circle cx="1039" cy="1185" r="87" fill="#FFFFFF" opacity="0.183" /><circle cx="1681" cy="2501" r="133" fill="#FFFFFF" opacity="0.180" /><circle cx="1598" cy="1503" r="110" fill="#FFFFFF" opacity="0.175" /><circle cx="591" cy="2206" r="95" fill="#FFFFFF" opacity="0.072" /><circle cx="2428" cy="2443" r="55" fill="#FFFFFF" opacity="0.125" /><circle cx="500" cy="1403" r="151" fill="#FFFFFF" opacity="0.193" /><circle cx="474" cy="1006" r="77" fill="#FFFFFF" opacity="0.224" /><circle cx="2475" cy="570" r="110" fill="#FFFFFF" opacity="0.218" /><circle cx="1361" cy="1556" r="122" fill="#FFFFFF" opacity="0.168" /></g>
  <g><path d="M 268.4 600.2 L 2880.1 323.7 L 2880.1 767.0 L 268.4 1043.5 Z" fill="#FFFFFF" opacity="0.108" /><path d="M 246.7 903.5 L 2867.5 627.0 L 2867.5 1087.8 L 246.7 1364.3 Z" fill="#FFFFFF" opacity="0.121" /><path d="M 290.1 1138.7 L 2688.7 862.2 L 2688.7 1332.7 L 290.1 1609.1 Z" fill="#FFFFFF" opacity="0.204" /><path d="M 161.6 1408.6 L 2892.7 1132.1 L 2892.7 1570.3 L 161.6 1846.8 Z" fill="#FFFFFF" opacity="0.081" /><path d="M 235.0 1703.3 L 2736.1 1426.8 L 2736.1 1855.8 L 235.0 2132.3 Z" fill="#FFFFFF" opacity="0.197" /><path d="M 266.0 1885.4 L 2910.6 1608.9 L 2910.6 2080.4 L 266.0 2356.9 Z" fill="#FFFFFF" opacity="0.230" /><path d="M 165.8 2184.7 L 2734.9 1908.2 L 2734.9 2339.8 L 165.8 2616.3 Z" fill="#FFFFFF" opacity="0.118" /><path d="M 331.2 2487.8 L 2871.7 2211.3 L 2871.7 2654.8 L 331.2 2931.3 Z" fill="#FFFFFF" opacity="0.231" /></g>
  <g filter="url(#soft207)"><g transform="rotate(-13.67 1536.0 1536.0)"><path d="M-368.6 478.0 C -225.8 491.6, -25.8 460.6, 107.5 526.8 C 250.4 537.6, 450.4 422.3, 583.7 530.6 C 726.5 516.1, 926.5 457.6, 1059.8 502.4 C 1202.7 498.5, 1402.7 465.9, 1536.0 459.4 C 1678.8 464.9, 1878.8 497.1, 2012.2 427.7 C 2155.0 408.2, 2355.0 520.9, 2488.3 426.5 C 2631.2 441.1, 2831.2 496.1, 2964.5 456.5 C 3107.3 451.2, 3307.3 492.1, 3440.6 499.6" fill="none" stroke="url(#ribbon207)" stroke-width="58.4" stroke-linecap="round" stroke-opacity="0.120" /></g><g transform="rotate(-13.09 1536.0 1536.0)"><path d="M-368.6 762.0 C -241.7 679.9, -63.9 833.3, 54.6 730.9 C 181.6 728.1, 359.4 797.8, 477.9 779.1 C 604.8 772.4, 782.6 750.0, 901.1 817.0 C 1028.1 838.7, 1205.9 727.4, 1324.4 821.5 C 1451.3 821.3, 1629.1 702.0, 1747.6 789.9 C 1874.6 796.9, 2052.4 742.4, 2170.9 741.5 C 2297.9 744.9, 2475.6 780.6, 2594.1 705.5 C 2721.1 711.9, 2898.9 810.0, 3017.4 703.8 C 3144.4 720.3, 3322.1 784.0, 3440.6 737.5" fill="none" stroke="url(#ribbon207)" stroke-width="54.4" stroke-linecap="round" stroke-opacity="0.146" /></g><g transform="rotate(-12.51 1536.0 1536.0)"><path d="M-368.6 953.5 C -254.4 908.7, -94.4 978.0, 12.3 960.3 C 126.6 962.7, 286.6 949.7, 393.2 1007.8 C 507.5 988.3, 667.5 908.9, 774.1 1022.3 C 888.4 1005.1, 1048.4 900.0, 1155.1 995.1 C 1269.4 1010.0, 1429.3 931.7, 1536.0 942.6 C 1650.3 943.1, 1810.3 964.0, 1916.9 896.7 C 2031.2 895.2, 2191.2 990.1, 2297.9 885.2 C 2412.1 858.5, 2572.1 1016.6, 2678.8 915.2 C 2793.1 901.4, 2953.1 980.5, 3059.7 968.3 C 3174.0 964.0, 3334.0 937.5, 3440.6 1012.5" fill="none" stroke="url(#ribbon207)" stroke-width="50.4" stroke-linecap="round" stroke-opacity="0.172" /></g><g transform="rotate(-11.93 1536.0 1536.0)"><path d="M-368.6 1058.7 C -264.8 1100.0, -119.3 1026.9, -22.3 1131.6 C 81.5 1156.9, 227.0 1031.1, 324.0 1126.1 C 427.8 1132.8, 573.3 1011.1, 670.3 1079.7 C 774.1 1076.6, 919.6 1052.1, 1016.6 1020.6 C 1120.4 1009.0, 1265.9 1090.8, 1362.9 984.6 C 1466.7 1007.8, 1612.2 1111.4, 1709.1 993.6 C 1813.0 982.2, 1958.5 1123.6, 2055.4 1042.1 C 2159.3 1041.0, 2304.8 1064.5, 2401.7 1100.7 C 2505.6 1094.0, 2651.1 1018.3, 2748.0 1133.8 C 2851.9 1147.1, 2997.4 1034.6, 3094.3 1121.4 C 3198.2 1115.7, 3343.7 1000.5, 3440.6 1071.0" fill="none" stroke="url(#ribbon207)" stroke-width="46.4" stroke-linecap="round" stroke-opacity="0.198" /></g><g transform="rotate(-11.35 1536.0 1536.0)"><path d="M-368.6 1272.2 C -273.4 1288.1, -140.1 1264.0, -51.2 1228.1 C 44.0 1216.4, 177.4 1317.6, 266.2 1190.6 C 361.5 1174.1, 494.8 1352.1, 583.7 1202.6 C 678.9 1227.3, 812.2 1310.0, 901.1 1256.8 C 996.4 1251.2, 1129.7 1285.1, 1218.6 1320.4 C 1313.8 1327.9, 1447.1 1254.3, 1536.0 1354.8 C 1631.2 1333.1, 1764.6 1176.4, 1853.4 1339.1 C 1948.7 1337.5, 2082.0 1201.6, 2170.9 1282.8 C 2266.1 1284.0, 2399.4 1260.9, 2488.3 1220.1 C 2583.6 1213.3, 2716.9 1305.2, 2805.8 1189.1 C 2901.0 1199.4, 3034.3 1331.7, 3123.2 1208.4 C 3218.4 1197.2, 3351.8 1336.9, 3440.6 1266.5" fill="none" stroke="url(#ribbon207)" stroke-width="42.4" stroke-linecap="round" stroke-opacity="0.224" /></g><g transform="rotate(-10.77 1536.0 1536.0)"><path d="M-368.6 1463.0 C -225.8 1567.2, -25.8 1371.7, 107.5 1531.9 C 250.4 1532.3, 450.4 1440.6, 583.7 1468.7 C 726.5 1468.8, 926.5 1460.0, 1059.8 1402.1 C 1202.7 1394.9, 1402.7 1498.9, 1536.0 1372.4 C 1678.8 1380.8, 1878.8 1544.7, 2012.2 1397.6 C 2155.0 1387.4, 2355.0 1499.5, 2488.3 1462.5 C 2631.2 1462.4, 2831.2 1463.2, 2964.5 1527.7 C 3107.3 1518.7, 3307.3 1419.5, 3440.6 1553.6" fill="none" stroke="url(#ribbon207)" stroke-width="38.4" stroke-linecap="round" stroke-opacity="0.250" /></g><g transform="rotate(-10.19 1536.0 1536.0)"><path d="M-368.6 1694.1 C -241.7 1693.6, -63.9 1695.0, 54.6 1623.4 C 181.6 1626.8, 359.4 1778.9, 477.9 1596.5 C 604.8 1571.6, 782.6 1788.2, 901.1 1628.8 C 1028.1 1624.4, 1205.9 1725.7, 1324.4 1700.7 C 1451.3 1698.9, 1629.1 1691.1, 1747.6 1768.6 C 1874.6 1785.3, 2052.4 1645.4, 2170.9 1791.4 C 2297.9 1806.1, 2475.6 1619.5, 2594.1 1755.1 C 2721.1 1771.0, 2898.9 1637.9, 3017.4 1681.9 C 3144.4 1680.8, 3322.1 1701.1, 3440.6 1616.1" fill="none" stroke="url(#ribbon207)" stroke-width="34.4" stroke-linecap="round" stroke-opacity="0.276" /></g><g transform="rotate(-9.61 1536.0 1536.0)"><path d="M-368.6 1825.3 C -254.4 1876.6, -94.4 1781.1, 12.3 1923.2 C 126.6 1901.4, 286.6 1729.0, 393.2 1920.3 C 507.5 1907.4, 667.5 1762.7, 774.1 1859.8 C 888.4 1866.8, 1048.4 1786.6, 1155.1 1778.4 C 1269.4 1775.6, 1429.3 1855.2, 1536.0 1725.4 C 1650.3 1764.3, 1810.3 1880.6, 1916.9 1733.1 C 2031.2 1748.5, 2191.2 1856.9, 2297.9 1796.7 C 2412.1 1792.2, 2572.1 1840.7, 2678.8 1877.6 C 2793.1 1872.1, 2953.1 1773.6, 3059.7 1926.9 C 3174.0 1901.3, 3334.0 1729.0, 3440.6 1914.5" fill="none" stroke="url(#ribbon207)" stroke-width="30.4" stroke-linecap="round" stroke-opacity="0.302" /></g><g transform="rotate(-9.03 1536.0 1536.0)"><path d="M-368.6 2015.7 C -264.8 2049.0, -119.3 1992.2, -22.3 1972.4 C 81.5 1960.1, 227.0 2030.5, 324.0 1911.6 C 427.8 1914.6, 573.3 2135.7, 670.3 1913.8 C 774.1 1914.4, 919.6 2074.1, 1016.6 1977.9 C 1120.4 1977.3, 1265.9 2048.5, 1362.9 2064.8 C 1466.7 2065.5, 1612.2 1969.2, 1709.1 2122.0 C 1813.0 2152.2, 1958.5 1947.3, 2055.4 2114.6 C 2159.3 2117.6, 2304.8 1921.4, 2401.7 2047.2 C 2505.6 2057.9, 2651.1 1986.5, 2748.0 1960.7 C 2851.9 1975.9, 2997.4 2065.0, 3094.3 1907.5 C 3198.2 1884.4, 3343.7 2090.2, 3440.6 1919.9" fill="none" stroke="url(#ribbon207)" stroke-width="26.4" stroke-linecap="round" stroke-opacity="0.328" /></g><g transform="rotate(-8.45 1536.0 1536.0)"><path d="M-368.6 2324.3 C -273.4 2229.0, -140.1 2429.3, -51.2 2215.1 C 44.0 2215.0, 177.4 2447.9, 266.2 2281.9 C 361.5 2276.0, 494.8 2347.1, 583.7 2374.4 C 678.9 2370.3, 812.2 2286.7, 901.1 2436.6 C 996.4 2441.7, 1129.7 2225.6, 1218.6 2430.6 C 1313.8 2462.6, 1447.1 2270.8, 1536.0 2360.2 C 1631.2 2355.9, 1764.6 2285.8, 1853.4 2268.0 C 1948.7 2245.7, 2082.0 2341.7, 2170.9 2210.0 C 2266.1 2254.0, 2399.4 2456.2, 2488.3 2221.3 C 2583.6 2188.1, 2716.9 2389.9, 2805.8 2295.1 C 2901.0 2290.7, 3034.3 2344.1, 3123.2 2386.6 C 3218.4 2397.3, 3351.8 2271.4, 3440.6 2440.4" fill="none" stroke="url(#ribbon207)" stroke-width="22.4" stroke-linecap="round" stroke-opacity="0.354" /></g><g transform="rotate(-7.87 1536.0 1536.0)"><path d="M-368.6 2411.0 C -225.8 2438.1, -25.8 2389.1, 107.5 2520.9 C 250.4 2479.9, 450.4 2373.9, 583.7 2531.7 C 726.5 2505.6, 926.5 2364.2, 1059.8 2469.3 C 1202.7 2451.4, 1402.7 2350.2, 1536.0 2371.5 C 1678.8 2365.3, 1878.8 2445.9, 2012.2 2297.7 C 2155.0 2330.7, 2355.0 2521.5, 2488.3 2292.6 C 2631.2 2330.2, 2831.2 2479.8, 2964.5 2359.3 C 3107.3 2356.1, 3307.3 2454.9, 3440.6 2457.4" fill="none" stroke="url(#ribbon207)" stroke-width="18.4" stroke-linecap="round" stroke-opacity="0.380" /></g><g transform="rotate(-7.29 1536.0 1536.0)"><path d="M-368.6 2664.1 C -241.7 2736.2, -63.9 2596.4, 54.6 2627.6 C 181.6 2614.0, 359.4 2694.8, 477.9 2546.9 C 604.8 2556.4, 782.6 2736.7, 901.1 2537.3 C 1028.1 2555.7, 1205.9 2785.9, 1324.4 2604.6 C 1451.3 2628.4, 1629.1 2699.4, 1747.6 2708.0 C 1874.6 2717.6, 2052.4 2646.9, 2170.9 2784.8 C 2297.9 2774.5, 2475.6 2606.7, 2594.1 2788.3 C 2721.1 2836.8, 2898.9 2546.5, 3017.4 2716.5 C 3144.4 2711.8, 3322.1 2635.4, 3440.6 2612.9" fill="none" stroke="url(#ribbon207)" stroke-width="14.4" stroke-linecap="round" stroke-opacity="0.406" /></g></g>
  <g><ellipse cx="1536.0" cy="1551.9" rx="728.6" ry="605.7" fill="url(#extrude207)" opacity="0.220" /><ellipse cx="1536.0" cy="1567.7" rx="736.0" ry="610.9" fill="url(#extrude207)" opacity="0.205" /><ellipse cx="1536.0" cy="1583.6" rx="743.4" ry="616.1" fill="url(#extrude207)" opacity="0.190" /><ellipse cx="1536.0" cy="1599.5" rx="750.9" ry="621.3" fill="url(#extrude207)" opacity="0.175" /><ellipse cx="1536.0" cy="1615.4" rx="758.3" ry="626.5" fill="url(#extrude207)" opacity="0.160" /><ellipse cx="1536.0" cy="1631.2" rx="765.7" ry="631.7" fill="url(#extrude207)" opacity="0.145" /><ellipse cx="1536.0" cy="1647.1" rx="773.2" ry="636.9" fill="url(#extrude207)" opacity="0.130" /><ellipse cx="1536.0" cy="1663.0" rx="780.6" ry="642.1" fill="url(#extrude207)" opacity="0.115" /><ellipse cx="1536.0" cy="1678.8" rx="788.0" ry="647.4" fill="url(#extrude207)" opacity="0.100" /><ellipse cx="1536.0" cy="1694.7" rx="795.5" ry="652.6" fill="url(#extrude207)" opacity="0.085" /><ellipse cx="1536.0" cy="1710.6" rx="802.9" ry="657.8" fill="url(#extrude207)" opacity="0.070" /><ellipse cx="1536.0" cy="1726.5" rx="810.3" ry="663.0" fill="url(#extrude207)" opacity="0.055" /></g>
  <ellipse cx="1536.0" cy="1726.5" rx="773.2" ry="214.9" fill="#0B1D2D" opacity="0.24" />
  <ellipse cx="1536.0" cy="1536.0" rx="743.4" ry="651.3" fill="url(#orb207)" stroke="#FFFFFF" stroke-opacity="0.42" stroke-width="7" />
  <ellipse cx="1431.9" cy="1392.7" rx="505.5" ry="299.6" fill="#FFFFFF" opacity="0.25" />
  <path d="M 199.4 399.4 C 1013.8 -30.7, 2058.2 768.0, 2872.6 215.0 L 2872.6 983.0 C 2089.0 1228.8, 1013.8 307.2, 199.4 1167.4 Z" fill="url(#glass207)" />
  <rect x="270" y="270" width="2532" height="2532" rx="430" fill="none" stroke="#FFFFFF" stroke-opacity="0.30" stroke-width="5" />
  <rect x="288.4" y="288.4" width="2495.1" height="2495.1" rx="399" fill="none" stroke="#FF9F43" stroke-opacity="0.35" stroke-width="3" />
  <g filter="url(#soft207)"><rect x="564" y="2293" width="50" height="2" fill="#FFFFFF" opacity="0.468" /><rect x="588" y="2269" width="2" height="50" fill="#FFFFFF" opacity="0.468" /><rect x="2062" y="2335" width="58" height="2" fill="#FFFFFF" opacity="0.675" /><rect x="2090" y="2307" width="2" height="58" fill="#FFFFFF" opacity="0.675" /><rect x="1775" y="1543" width="30" height="2" fill="#FFFFFF" opacity="0.334" /><rect x="1789" y="1529" width="2" height="30" fill="#FFFFFF" opacity="0.334" /><rect x="1963" y="2596" width="70" height="2" fill="#FFFFFF" opacity="0.428" /><rect x="1997" y="2562" width="2" height="70" fill="#FFFFFF" opacity="0.428" /><rect x="948" y="1427" width="30" height="2" fill="#FFFFFF" opacity="0.587" /><rect x="962" y="1413" width="2" height="30" fill="#FFFFFF" opacity="0.587" /><rect x="1255" y="658" width="84" height="2" fill="#FFFFFF" opacity="0.380" /><rect x="1296" y="617" width="2" height="84" fill="#FFFFFF" opacity="0.380" /><rect x="617" y="2633" width="80" height="2" fill="#FFFFFF" opacity="0.419" /><rect x="656" y="2594" width="2" height="80" fill="#FFFFFF" opacity="0.419" /><rect x="2772" y="1781" width="72" height="2" fill="#FFFFFF" opacity="0.509" /><rect x="2807" y="1746" width="2" height="72" fill="#FFFFFF" opacity="0.509" /><rect x="2191" y="1687" width="42" height="2" fill="#FFFFFF" opacity="0.438" /><rect x="2211" y="1667" width="2" height="42" fill="#FFFFFF" opacity="0.438" /><rect x="1632" y="2277" width="74" height="2" fill="#FFFFFF" opacity="0.375" /><rect x="1668" y="2241" width="2" height="74" fill="#FFFFFF" opacity="0.375" /><rect x="2282" y="1410" width="36" height="2" fill="#FFFFFF" opacity="0.697" /><rect x="2299" y="1393" width="2" height="36" fill="#FFFFFF" opacity="0.697" /><rect x="1443" y="353" width="68" height="2" fill="#FFFFFF" opacity="0.676" /><rect x="1476" y="320" width="2" height="68" fill="#FFFFFF" opacity="0.676" /><rect x="2195" y="748" width="40" height="2" fill="#FFFFFF" opacity="0.544" /><rect x="2214" y="729" width="2" height="40" fill="#FFFFFF" opacity="0.544" /><rect x="329" y="1455" width="66" height="2" fill="#FFFFFF" opacity="0.570" /><rect x="361" y="1423" width="2" height="66" fill="#FFFFFF" opacity="0.570" /><rect x="2204" y="1764" width="26" height="2" fill="#FFFFFF" opacity="0.849" /><rect x="2216" y="1752" width="2" height="26" fill="#FFFFFF" opacity="0.849" /><rect x="2372" y="462" width="62" height="2" fill="#FFFFFF" opacity="0.672" /><rect x="2402" y="432" width="2" height="62" fill="#FFFFFF" opacity="0.672" /><rect x="1033" y="1041" width="48" height="2" fill="#FFFFFF" opacity="0.341" /><rect x="1056" y="1018" width="2" height="48" fill="#FFFFFF" opacity="0.341" /><rect x="1467" y="1188" width="68" height="2" fill="#FFFFFF" opacity="0.722" /><rect x="1500" y="1155" width="2" height="68" fill="#FFFFFF" opacity="0.722" /><rect x="672" y="769" width="80" height="2" fill="#FFFFFF" opacity="0.381" /><rect x="711" y="730" width="2" height="80" fill="#FFFFFF" opacity="0.381" /><rect x="625" y="2678" width="74" height="2" fill="#FFFFFF" opacity="0.724" /><rect x="661" y="2642" width="2" height="74" fill="#FFFFFF" opacity="0.724" /><rect x="1158" y="1722" width="62" height="2" fill="#FFFFFF" opacity="0.546" /><rect x="1188" y="1692" width="2" height="62" fill="#FFFFFF" opacity="0.546" /><rect x="1209" y="2652" width="30" height="2" fill="#FFFFFF" opacity="0.607" /><rect x="1223" y="2638" width="2" height="30" fill="#FFFFFF" opacity="0.607" /><rect x="513" y="805" width="36" height="2" fill="#FFFFFF" opacity="0.442" /><rect x="530" y="788" width="2" height="36" fill="#FFFFFF" opacity="0.442" /><rect x="2280" y="480" width="60" height="2" fill="#FFFFFF" opacity="0.612" /><rect x="2309" y="451" width="2" height="60" fill="#FFFFFF" opacity="0.612" /><rect x="2529" y="719" width="26" height="2" fill="#FFFFFF" opacity="0.583" /><rect x="2541" y="707" width="2" height="26" fill="#FFFFFF" opacity="0.583" /><rect x="397" y="2212" width="76" height="2" fill="#FFFFFF" opacity="0.744" /><rect x="434" y="2175" width="2" height="76" fill="#FFFFFF" opacity="0.744" /></g>
  <g opacity="0.52"><rect x="1060" y="1070" width="219" height="1024" fill="#0C2030" /><rect x="1316" y="1326" width="219" height="768" fill="#0C2030" /><rect x="1572" y="1198" width="219" height="921" fill="#0C2030" /><rect x="1828" y="1033" width="219" height="1152" fill="#0C2030" /></g>
  <g filter="url(#soft207)"><rect x="1024" y="1024" width="219" height="1024" fill="url(#symbol207)" /><rect x="1280" y="1280" width="219" height="768" fill="url(#symbol207)" /><rect x="1536" y="1152" width="219" height="921" fill="url(#symbol207)" /><rect x="1792" y="987" width="219" height="1152" fill="url(#symbol207)" /></g>
  <rect x="138" y="138" width="2796" height="2796" rx="629" fill="#FFFFFF" filter="url(#grain207)" opacity="0.18" />
</svg>
