<svg xmlns="http://www.w3.org/2000/svg" width="3072" height="3072" viewBox="0 0 3072 3072">
  <title>QuartzOS App Icon 328 - core_builder_328</title>
  <defs><linearGradient id="bg327" x1="0%" y1="0%" x2="100%" y2="100%"><stop offset="0%" stop-color="#FFD84D" /><stop offset="26%" stop-color="#36D1FF" /><stop offset="56%" stop-color="#8A5CFF" /><stop offset="78%" stop-color="#6C7CC5" /><stop offset="100%" stop-color="#1E2032" /></linearGradient><radialGradient id="sun327" cx="26%" cy="40%" r="88%"><stop offset="0%" stop-color="#FFFFFF" stop-opacity="0.62" /><stop offset="30%" stop-color="#FF6AB3" stop-opacity="0.35" /><stop offset="100%" stop-color="#FF6AB3" stop-opacity="0" /></radialGradient><linearGradient id="glass327" x1="0%" y1="0%" x2="0%" y2="100%"><stop offset="0%" stop-color="#FFFFFF" stop-opacity="0.70" /><stop offset="46%" stop-color="#FFFFFF" stop-opacity="0.26" /><stop offset="100%" stop-color="#FFFFFF" stop-opacity="0.00" /></linearGradient><linearGradient id="ribbon327" x1="0%" y1="0%" x2="100%" y2="0%"><stop offset="0%" stop-color="#FFD84D" stop-opacity="0.18" /><stop offset="34%" stop-color="#36D1FF" stop-opacity="0.72" /><stop offset="66%" stop-color="#8A5CFF" stop-opacity="0.72" /><stop offset="100%" stop-color="#FF6AB3" stop-opacity="0.18" /></linearGradient><radialGradient id="orb327" cx="34%" cy="27%" r="74%"><stop offset="0%" stop-color="#FFFFFF" stop-opacity="0.84" /><stop offset="30%" stop-color="#FFD84D" stop-opacity="0.52" /><stop offset="68%" stop-color="#36D1FF" stop-opacity="0.42" /><stop offset="100%" stop-color="#8A5CFF" stop-opacity="0.20" /></radialGradient><linearGradient id="extrude327" x1="0%" y1="0%" x2="0%" y2="100%"><stop offset="0%" stop-color="#15283C" stop-opacity="0.45" /><stop offset="100%" stop-color="#08131D" stop-opacity="0.06" /></linearGradient><linearGradient id="symbol327" x1="0%" y1="0%" x2="100%" y2="100%"><stop offset="0%" stop-color="#FFFFFF" /><stop offset="100%" stop-color="#FF6AB3" /></linearGradient><filter id="shadow327" x="-40%" y="-40%" width="180%" height="180%"><feDropShadow dx="0" dy="49" stdDeviation="86" flood-color="#06111A" flood-opacity="0.54" /></filter><filter id="soft327" x="-40%" y="-40%" width="180%" height="180%"><feDropShadow dx="0" dy="0" stdDeviation="14" flood-color="#FFD84D" flood-opacity="0.45" /></filter><filter id="grain327"><feTurbulence type="fractalNoise" baseFrequency="0.716" numOctaves="2" seed="327" /><feColorMatrix type="saturate" values="0" /><feComponentTransfer><feFuncA type="table" tableValues="0 0.09" /></feComponentTransfer></filter></defs>
  <rect x="138" y="138" width="2796" height="2796" rx="629" fill="url(#bg327)" filter="url(#shadow327)" />
  <rect x="138" y="138" width="2796" height="2796" rx="629" fill="url(#sun327)" />
  <g><circle cx="1432" cy="798" r="69" fill="#FFFFFF" opacity="0.237" /><circle cx="2602" cy="2099" r="158" fill="#FFFFFF" opacity="0.102" /><circle cx="652" cy="2359" r="159" fill="#FFFFFF" opacity="0.102" /><circle cx="1254" cy="1085" r="55" fill="#FFFFFF" opacity="0.063" /><circle cx="791" cy="1182" r="106" fill="#FFFFFF" opacity="0.124" /><circle cx="1305" cy="1028" r="123" fill="#FFFFFF" opacity="0.225" /><circle cx="2415" cy="1611" r="118" fill="#FFFFFF" opacity="0.129" /><circle cx="1914" cy="1231" r="104" fill="#FFFFFF" opacity="0.199" /><circle cx="2305" cy="1143" r="119" fill="#FFFFFF" opacity="0.113" /><circle cx="2442" cy="633" r="151" fill="#FFFFFF" opacity="0.128" /><circle cx="737" cy="1326" r="133" fill="#FFFFFF" opacity="0.204" /><circle cx="1927" cy="390" r="95" fill="#FFFFFF" opacity="0.062" /><circle cx="1327" cy="838" r="98" fill="#FFFFFF" opacity="0.081" /><circle cx="458" cy="624" r="105" fill="#FFFFFF" opacity="0.066" /><circle cx="1092" cy="1896" r="77" fill="#FFFFFF" opacity="0.218" /><circle cx="2445" cy="919" r="152" fill="#FFFFFF" opacity="0.160" /><circle cx="1087" cy="1232" r="146" fill="#FFFFFF" opacity="0.072" /><circle cx="772" cy="2153" r="133" fill="#FFFFFF" opacity="0.084" /><circle cx="2600" cy="1600" r="72" fill="#FFFFFF" opacity="0.240" /><circle cx="2538" cy="2502" r="151" fill="#FFFFFF" opacity="0.166" /><circle cx="573" cy="653" r="139" fill="#FFFFFF" opacity="0.133" /><circle cx="663" cy="1974" r="96" fill="#FFFFFF" opacity="0.207" /><circle cx="2260" cy="349" r="39" fill="#FFFFFF" opacity="0.161" /><circle cx="1086" cy="1101" r="129" fill="#FFFFFF" opacity="0.190" /><circle cx="1102" cy="929" r="143" fill="#FFFFFF" opacity="0.141" /><circle cx="501" cy="983" r="94" fill="#FFFFFF" opacity="0.091" /><circle cx="1513" cy="1031" r="102" fill="#FFFFFF" opacity="0.071" /><circle cx="1009" cy="2282" r="75" fill="#FFFFFF" opacity="0.068" /></g>
  <g><path d="M 275.0 601.6 L 2753.6 325.2 L 2753.6 794.7 L 275.0 1071.2 Z" fill="#FFFFFF" opacity="0.122" /><path d="M 347.8 847.2 L 2756.4 570.8 L 2756.4 1014.8 L 347.8 1291.3 Z" fill="#FFFFFF" opacity="0.145" /><path d="M 185.2 1164.9 L 2833.0 888.4 L 2833.0 1329.3 L 185.2 1605.8 Z" fill="#FFFFFF" opacity="0.153" /><path d="M 202.5 1370.8 L 2753.3 1094.4 L 2753.3 1561.2 L 202.5 1837.7 Z" fill="#FFFFFF" opacity="0.180" /><path d="M 379.2 1703.9 L 2728.5 1427.5 L 2728.5 1879.8 L 379.2 2156.3 Z" fill="#FFFFFF" opacity="0.110" /><path d="M 174.8 1939.0 L 2856.3 1662.5 L 2856.3 2121.4 L 174.8 2397.9 Z" fill="#FFFFFF" opacity="0.201" /><path d="M 259.8 2158.5 L 2761.6 1882.0 L 2761.6 2310.1 L 259.8 2586.6 Z" fill="#FFFFFF" opacity="0.193" /><path d="M 207.8 2421.2 L 2794.0 2144.7 L 2794.0 2577.4 L 207.8 2853.9 Z" fill="#FFFFFF" opacity="0.217" /></g>
  <g filter="url(#soft327)"><g transform="rotate(-18.62 1536.0 1536.0)"><path d="M-368.6 524.1 C -225.8 591.0, -25.8 497.3, 107.5 542.4 C 250.4 548.9, 450.4 513.1, 583.7 499.4 C 726.5 495.0, 926.5 539.8, 1059.8 471.4 C 1202.7 482.5, 1402.7 551.0, 1536.0 475.4 C 1678.8 464.5, 1878.8 566.0, 2012.2 508.9 C 2155.0 506.9, 2355.0 536.2, 2488.3 551.7 C 2631.2 543.4, 2831.2 492.8, 2964.5 577.7 C 3107.3 583.5, 3307.3 498.1, 3440.6 571.3" fill="none" stroke="url(#ribbon327)" stroke-width="58.4" stroke-linecap="round" stroke-opacity="0.120" /></g><g transform="rotate(-18.04 1536.0 1536.0)"><path d="M-368.6 683.7 C -241.7 752.0, -63.9 658.1, 54.6 743.9 C 181.6 751.7, 359.4 662.1, 477.9 714.0 C 604.8 705.2, 782.6 649.4, 901.1 665.7 C 1028.1 662.4, 1205.9 690.5, 1324.4 628.3 C 1451.3 650.4, 1629.1 728.8, 1747.6 624.6 C 1874.6 646.5, 2052.4 727.4, 2170.9 656.7 C 2297.9 647.5, 2475.6 710.7, 2594.1 705.2 C 2721.1 707.0, 2898.9 671.0, 3017.4 740.7 C 3144.4 729.4, 3322.1 640.6, 3440.6 741.6" fill="none" stroke="url(#ribbon327)" stroke-width="54.4" stroke-linecap="round" stroke-opacity="0.146" /></g><g transform="rotate(-17.46 1536.0 1536.0)"><path d="M-368.6 937.9 C -254.4 948.5, -94.4 922.1, 12.3 996.5 C 126.6 978.6, 286.6 877.6, 393.2 1005.4 C 507.5 979.1, 667.5 894.0, 774.1 973.3 C 888.4 979.6, 1048.4 925.8, 1155.1 919.7 C 1269.4 914.4, 1429.3 952.7, 1536.0 877.1 C 1650.3 882.7, 1810.3 980.4, 1916.9 871.4 C 2031.2 878.7, 2191.2 983.4, 2297.9 906.0 C 2412.1 912.3, 2572.1 963.6, 2678.8 959.9 C 2793.1 953.0, 2953.1 912.6, 3059.7 1000.5 C 3174.0 998.9, 3334.0 864.0, 3440.6 1003.0" fill="none" stroke="url(#ribbon327)" stroke-width="50.4" stroke-linecap="round" stroke-opacity="0.172" /></g><g transform="rotate(-16.88 1536.0 1536.0)"><path d="M-368.6 1154.5 C -264.8 1242.8, -119.3 1111.6, -22.3 1200.2 C 81.5 1185.9, 227.0 1100.6, 324.0 1142.3 C 427.8 1142.4, 573.3 1165.2, 670.3 1091.9 C 774.1 1101.4, 919.6 1225.1, 1016.6 1079.4 C 1120.4 1081.1, 1265.9 1207.4, 1362.9 1112.5 C 1466.7 1108.0, 1612.2 1199.5, 1709.1 1171.1 C 1813.0 1175.9, 1958.5 1140.5, 2055.4 1219.6 C 2159.3 1202.3, 2304.8 1079.5, 2401.7 1228.7 C 2505.6 1256.0, 2651.1 1110.3, 2748.0 1192.7 C 2851.9 1179.3, 2997.4 1124.3, 3094.3 1133.6 C 3198.2 1134.5, 3343.7 1165.9, 3440.6 1087.2" fill="none" stroke="url(#ribbon327)" stroke-width="46.4" stroke-linecap="round" stroke-opacity="0.198" /></g><g transform="rotate(-16.30 1536.0 1536.0)"><path d="M-368.6 1325.2 C -273.4 1356.3, -140.1 1296.4, -51.2 1401.5 C 44.0 1431.3, 177.4 1249.2, 266.2 1402.9 C 361.5 1433.1, 494.8 1278.0, 583.7 1357.2 C 678.9 1369.7, 812.2 1289.2, 901.1 1292.2 C 996.4 1279.3, 1129.7 1348.8, 1218.6 1247.1 C 1313.8 1251.9, 1447.1 1369.3, 1536.0 1249.5 C 1631.2 1255.8, 1764.6 1397.9, 1853.4 1297.8 C 1948.7 1301.0, 2082.0 1341.9, 2170.9 1362.7 C 2266.1 1376.0, 2399.4 1286.8, 2488.3 1404.9 C 2583.6 1404.7, 2716.9 1269.5, 2805.8 1398.8 C 2901.0 1383.5, 3034.3 1284.5, 3123.2 1348.0 C 3218.4 1356.6, 3351.8 1302.7, 3440.6 1283.4" fill="none" stroke="url(#ribbon327)" stroke-width="42.4" stroke-linecap="round" stroke-opacity="0.224" /></g><g transform="rotate(-15.72 1536.0 1536.0)"><path d="M-368.6 1532.4 C -225.8 1543.6, -25.8 1529.4, 107.5 1603.5 C 250.4 1588.0, 450.4 1493.4, 583.7 1622.3 C 726.5 1623.5, 926.5 1503.9, 1059.8 1586.6 C 1202.7 1602.0, 1402.7 1484.1, 1536.0 1518.1 C 1678.8 1522.4, 1878.8 1544.0, 2012.2 1458.2 C 2155.0 1442.4, 2355.0 1607.4, 2488.3 1443.4 C 2631.2 1435.5, 2831.2 1596.4, 2964.5 1482.6 C 3107.3 1492.1, 3307.3 1555.8, 3440.6 1552.0" fill="none" stroke="url(#ribbon327)" stroke-width="38.4" stroke-linecap="round" stroke-opacity="0.250" /></g><g transform="rotate(-15.14 1536.0 1536.0)"><path d="M-368.6 1636.8 C -241.7 1541.5, -63.9 1728.4, 54.6 1545.0 C 181.6 1525.5, 359.4 1696.0, 477.9 1596.6 C 604.8 1583.6, 782.6 1657.9, 901.1 1672.7 C 1028.1 1659.9, 1205.9 1623.9, 1324.4 1727.0 C 1451.3 1728.2, 1629.1 1585.7, 1747.6 1726.6 C 1874.6 1754.9, 2052.4 1552.6, 2170.9 1671.8 C 2297.9 1675.9, 2475.6 1601.2, 2594.1 1595.7 C 2721.1 1597.1, 2898.9 1669.1, 3017.4 1544.6 C 3144.4 1578.3, 3322.1 1729.5, 3440.6 1549.4" fill="none" stroke="url(#ribbon327)" stroke-width="34.4" stroke-linecap="round" stroke-opacity="0.276" /></g><g transform="rotate(-14.56 1536.0 1536.0)"><path d="M-368.6 1865.2 C -254.4 1936.3, -94.4 1847.0, 12.3 1967.3 C 126.6 1946.1, 286.6 1789.9, 393.2 1953.3 C 507.5 1940.8, 667.5 1828.4, 774.1 1885.8 C 888.4 1891.4, 1048.4 1855.3, 1155.1 1805.9 C 1269.4 1820.7, 1429.3 1891.3, 1536.0 1762.0 C 1650.3 1775.0, 1810.3 1957.4, 1916.9 1780.7 C 2031.2 1749.8, 2191.2 1955.1, 2297.9 1850.7 C 2412.1 1855.8, 2572.1 1875.7, 2678.8 1929.5 C 2793.1 1950.0, 2953.1 1795.7, 3059.7 1969.4 C 3174.0 2009.3, 3334.0 1813.9, 3440.6 1946.1" fill="none" stroke="url(#ribbon327)" stroke-width="30.4" stroke-linecap="round" stroke-opacity="0.302" /></g><g transform="rotate(-13.98 1536.0 1536.0)"><path d="M-368.6 2126.3 C -264.8 2192.1, -119.3 2005.1, -22.3 2164.6 C 81.5 2176.8, 227.0 2086.3, 324.0 2077.6 C 427.8 2079.7, 573.3 2146.0, 670.3 2020.1 C 774.1 2000.5, 919.6 2236.7, 1016.6 2027.0 C 1120.4 2047.8, 1265.9 2231.9, 1362.9 2094.1 C 1466.7 2097.2, 1612.2 2157.8, 1709.1 2180.7 C 1813.0 2179.1, 1958.5 2068.9, 2055.4 2234.3 C 2159.3 2206.6, 2304.8 2055.9, 2401.7 2222.3 C 2505.6 2210.4, 2651.1 2033.2, 2748.0 2152.1 C 2851.9 2155.9, 2997.4 2107.3, 3094.3 2066.2 C 3198.2 2084.4, 3343.7 2162.9, 3440.6 2016.7" fill="none" stroke="url(#ribbon327)" stroke-width="26.4" stroke-linecap="round" stroke-opacity="0.328" /></g><g transform="rotate(-13.40 1536.0 1536.0)"><path d="M-368.6 2299.4 C -273.4 2363.6, -140.1 2247.2, -51.2 2255.5 C 44.0 2265.6, 177.4 2341.0, 266.2 2189.6 C 361.5 2203.1, 494.8 2376.8, 583.7 2190.2 C 678.9 2161.0, 812.2 2353.3, 901.1 2257.1 C 996.4 2266.7, 1129.7 2316.7, 1218.6 2349.6 C 1313.8 2345.8, 1447.1 2252.9, 1536.0 2411.7 C 1631.2 2453.4, 1764.6 2222.7, 1853.4 2405.6 C 1948.7 2417.5, 2082.0 2255.0, 2170.9 2335.1 C 2266.1 2349.4, 2399.4 2265.1, 2488.3 2243.0 C 2583.6 2231.4, 2716.9 2346.0, 2805.8 2185.0 C 2901.0 2202.8, 3034.3 2432.8, 3123.2 2196.5 C 3218.4 2165.3, 3351.8 2403.4, 3440.6 2270.3" fill="none" stroke="url(#ribbon327)" stroke-width="22.4" stroke-linecap="round" stroke-opacity="0.354" /></g><g transform="rotate(-12.82 1536.0 1536.0)"><path d="M-368.6 2454.0 C -225.8 2484.7, -25.8 2431.8, 107.5 2558.7 C 250.4 2548.6, 450.4 2382.8, 583.7 2577.2 C 726.5 2622.3, 926.5 2315.5, 1059.8 2520.9 C 1202.7 2498.4, 1402.7 2395.5, 1536.0 2424.1 C 1678.8 2414.1, 1878.8 2484.5, 2012.2 2345.4 C 2155.0 2336.0, 2355.0 2527.3, 2488.3 2332.6 C 2631.2 2336.7, 2831.2 2497.5, 2964.5 2393.5 C 3107.3 2380.5, 3307.3 2524.9, 3440.6 2491.1" fill="none" stroke="url(#ribbon327)" stroke-width="18.4" stroke-linecap="round" stroke-opacity="0.380" /></g><g transform="rotate(-12.24 1536.0 1536.0)"><path d="M-368.6 2617.7 C -241.7 2641.7, -63.9 2586.6, 54.6 2549.1 C 181.6 2541.8, 359.4 2647.1, 477.9 2488.1 C 604.8 2456.4, 782.6 2771.3, 901.1 2505.7 C 1028.1 2531.5, 1205.9 2676.3, 1324.4 2591.2 C 1451.3 2587.7, 1629.1 2632.6, 1747.6 2692.8 C 1874.6 2721.3, 2052.4 2544.3, 2170.9 2748.7 C 2297.9 2715.0, 2475.6 2539.5, 2594.1 2725.2 C 2721.1 2715.2, 2898.9 2490.5, 3017.4 2636.4 C 3144.4 2642.9, 3322.1 2609.4, 3440.6 2536.3" fill="none" stroke="url(#ribbon327)" stroke-width="14.4" stroke-linecap="round" stroke-opacity="0.406" /></g></g>
  <g><ellipse cx="1536.0" cy="1551.9" rx="728.6" ry="605.7" fill="url(#extrude327)" opacity="0.220" /><ellipse cx="1536.0" cy="1567.7" rx="736.0" ry="610.9" fill="url(#extrude327)" opacity="0.205" /><ellipse cx="1536.0" cy="1583.6" rx="743.4" ry="616.1" fill="url(#extrude327)" opacity="0.190" /><ellipse cx="1536.0" cy="1599.5" rx="750.9" ry="621.3" fill="url(#extrude327)" opacity="0.175" /><ellipse cx="1536.0" cy="1615.4" rx="758.3" ry="626.5" fill="url(#extrude327)" opacity="0.160" /><ellipse cx="1536.0" cy="1631.2" rx="765.7" ry="631.7" fill="url(#extrude327)" opacity="0.145" /><ellipse cx="1536.0" cy="1647.1" rx="773.2" ry="636.9" fill="url(#extrude327)" opacity="0.130" /><ellipse cx="1536.0" cy="1663.0" rx="780.6" ry="642.1" fill="url(#extrude327)" opacity="0.115" /><ellipse cx="1536.0" cy="1678.8" rx="788.0" ry="647.4" fill="url(#extrude327)" opacity="0.100" /><ellipse cx="1536.0" cy="1694.7" rx="795.5" ry="652.6" fill="url(#extrude327)" opacity="0.085" /><ellipse cx="1536.0" cy="1710.6" rx="802.9" ry="657.8" fill="url(#extrude327)" opacity="0.070" /><ellipse cx="1536.0" cy="1726.5" rx="810.3" ry="663.0" fill="url(#extrude327)" opacity="0.055" /></g>
  <ellipse cx="1536.0" cy="1726.5" rx="773.2" ry="214.9" fill="#0B1D2D" opacity="0.24" />
  <ellipse cx="1536.0" cy="1536.0" rx="743.4" ry="651.3" fill="url(#orb327)" stroke="#FFFFFF" stroke-opacity="0.42" stroke-width="7" />
  <ellipse cx="1431.9" cy="1392.7" rx="505.5" ry="299.6" fill="#FFFFFF" opacity="0.25" />
  <path d="M 199.4 399.4 C 1013.8 -30.7, 2058.2 768.0, 2872.6 215.0 L 2872.6 983.0 C 2089.0 1228.8, 1013.8 307.2, 199.4 1167.4 Z" fill="url(#glass327)" />
  <rect x="270" y="270" width="2532" height="2532" rx="430" fill="none" stroke="#FFFFFF" stroke-opacity="0.30" stroke-width="5" />
  <rect x="288.4" y="288.4" width="2495.1" height="2495.1" rx="399" fill="none" stroke="#FFD84D" stroke-opacity="0.35" stroke-width="3" />
  <g filter="url(#soft327)"><rect x="2393" y="1090" width="58" height="2" fill="#FFFFFF" opacity="0.699" /><rect x="2421" y="1062" width="2" height="58" fill="#FFFFFF" opacity="0.699" /><rect x="2376" y="404" width="62" height="2" fill="#FFFFFF" opacity="0.760" /><rect x="2406" y="374" width="2" height="62" fill="#FFFFFF" opacity="0.760" /><rect x="624" y="601" width="70" height="2" fill="#FFFFFF" opacity="0.693" /><rect x="658" y="567" width="2" height="70" fill="#FFFFFF" opacity="0.693" /><rect x="2034" y="1813" width="82" height="2" fill="#FFFFFF" opacity="0.683" /><rect x="2074" y="1773" width="2" height="82" fill="#FFFFFF" opacity="0.683" /><rect x="504" y="2763" width="80" height="2" fill="#FFFFFF" opacity="0.677" /><rect x="543" y="2724" width="2" height="80" fill="#FFFFFF" opacity="0.677" /><rect x="2053" y="1335" width="76" height="2" fill="#FFFFFF" opacity="0.490" /><rect x="2090" y="1298" width="2" height="76" fill="#FFFFFF" opacity="0.490" /><rect x="400" y="2532" width="28" height="2" fill="#FFFFFF" opacity="0.433" /><rect x="413" y="2519" width="2" height="28" fill="#FFFFFF" opacity="0.433" /><rect x="2169" y="1907" width="54" height="2" fill="#FFFFFF" opacity="0.513" /><rect x="2195" y="1881" width="2" height="54" fill="#FFFFFF" opacity="0.513" /><rect x="1096" y="1338" width="46" height="2" fill="#FFFFFF" opacity="0.774" /><rect x="1118" y="1316" width="2" height="46" fill="#FFFFFF" opacity="0.774" /><rect x="1686" y="1302" width="60" height="2" fill="#FFFFFF" opacity="0.579" /><rect x="1715" y="1273" width="2" height="60" fill="#FFFFFF" opacity="0.579" /><rect x="797" y="2581" width="76" height="2" fill="#FFFFFF" opacity="0.779" /><rect x="834" y="2544" width="2" height="76" fill="#FFFFFF" opacity="0.779" /><rect x="1353" y="611" width="46" height="2" fill="#FFFFFF" opacity="0.765" /><rect x="1375" y="589" width="2" height="46" fill="#FFFFFF" opacity="0.765" /><rect x="2586" y="1617" width="70" height="2" fill="#FFFFFF" opacity="0.708" /><rect x="2620" y="1583" width="2" height="70" fill="#FFFFFF" opacity="0.708" /><rect x="2728" y="2186" width="56" height="2" fill="#FFFFFF" opacity="0.686" /><rect x="2755" y="2159" width="2" height="56" fill="#FFFFFF" opacity="0.686" /><rect x="1967" y="467" width="50" height="2" fill="#FFFFFF" opacity="0.683" /><rect x="1991" y="443" width="2" height="50" fill="#FFFFFF" opacity="0.683" /><rect x="310" y="2065" width="62" height="2" fill="#FFFFFF" opacity="0.596" /><rect x="340" y="2035" width="2" height="62" fill="#FFFFFF" opacity="0.596" /><rect x="2312" y="1898" width="72" height="2" fill="#FFFFFF" opacity="0.639" /><rect x="2347" y="1863" width="2" height="72" fill="#FFFFFF" opacity="0.639" /><rect x="1431" y="2082" width="36" height="2" fill="#FFFFFF" opacity="0.470" /><rect x="1448" y="2065" width="2" height="36" fill="#FFFFFF" opacity="0.470" /><rect x="316" y="509" width="46" height="2" fill="#FFFFFF" opacity="0.452" /><rect x="338" y="487" width="2" height="46" fill="#FFFFFF" opacity="0.452" /><rect x="946" y="1349" width="28" height="2" fill="#FFFFFF" opacity="0.350" /><rect x="959" y="1336" width="2" height="28" fill="#FFFFFF" opacity="0.350" /><rect x="1577" y="1063" width="74" height="2" fill="#FFFFFF" opacity="0.788" /><rect x="1613" y="1027" width="2" height="74" fill="#FFFFFF" opacity="0.788" /><rect x="1521" y="2384" width="72" height="2" fill="#FFFFFF" opacity="0.317" /><rect x="1556" y="2349" width="2" height="72" fill="#FFFFFF" opacity="0.317" /><rect x="1447" y="1072" width="28" height="2" fill="#FFFFFF" opacity="0.819" /><rect x="1460" y="1059" width="2" height="28" fill="#FFFFFF" opacity="0.819" /><rect x="1329" y="1646" width="76" height="2" fill="#FFFFFF" opacity="0.633" /><rect x="1366" y="1609" width="2" height="76" fill="#FFFFFF" opacity="0.633" /><rect x="853" y="623" width="34" height="2" fill="#FFFFFF" opacity="0.514" /><rect x="869" y="607" width="2" height="34" fill="#FFFFFF" opacity="0.514" /><rect x="1895" y="2276" width="52" height="2" fill="#FFFFFF" opacity="0.408" /><rect x="1920" y="2251" width="2" height="52" fill="#FFFFFF" opacity="0.408" /></g>
  <g opacity="0.52"><rect x="1060" y="1070" width="219" height="1024" fill="#0C2030" /><rect x="1316" y="1326" width="219" height="768" fill="#0C2030" /><rect x="1572" y="1198" width="219" height="921" fill="#0C2030" /><rect x="1828" y="1033" width="219" height="1152" fill="#0C2030" /></g>
  <g filter="url(#soft327)"><rect x="1024" y="1024" width="219" height="1024" fill="url(#symbol327)" /><rect x="1280" y="1280" width="219" height="768" fill="url(#symbol327)" /><rect x="1536" y="1152" width="219" height="921" fill="url(#symbol327)" /><rect x="1792" y="987" width="219" height="1152" fill="url(#symbol327)" /></g>
  <rect x="138" y="138" width="2796" height="2796" rx="629" fill="#FFFFFF" filter="url(#grain327)" opacity="0.18" />
</svg>
