<svg xmlns="http://www.w3.org/2000/svg" width="3072" height="3072" viewBox="0 0 3072 3072">
  <title>QuartzOS App Icon 288 - core_settings_288</title>
  <defs><linearGradient id="bg287" x1="0%" y1="0%" x2="100%" y2="100%"><stop offset="0%" stop-color="#36D1FF" /><stop offset="26%" stop-color="#8A5CFF" /><stop offset="56%" stop-color="#FF9F43" /><stop offset="78%" stop-color="#4BA7D0" /><stop offset="100%" stop-color="#122A3D" /></linearGradient><radialGradient id="sun287" cx="24%" cy="40%" r="88%"><stop offset="0%" stop-color="#FFFFFF" stop-opacity="0.62" /><stop offset="30%" stop-color="#FFD84D" stop-opacity="0.35" /><stop offset="100%" stop-color="#FFD84D" stop-opacity="0" /></radialGradient><linearGradient id="glass287" x1="0%" y1="0%" x2="0%" y2="100%"><stop offset="0%" stop-color="#FFFFFF" stop-opacity="0.70" /><stop offset="46%" stop-color="#FFFFFF" stop-opacity="0.26" /><stop offset="100%" stop-color="#FFFFFF" stop-opacity="0.00" /></linearGradient><linearGradient id="ribbon287" x1="0%" y1="0%" x2="100%" y2="0%"><stop offset="0%" stop-color="#36D1FF" stop-opacity="0.18" /><stop offset="34%" stop-color="#8A5CFF" stop-opacity="0.72" /><stop offset="66%" stop-color="#FF9F43" stop-opacity="0.72" /><stop offset="100%" stop-color="#FFD84D" stop-opacity="0.18" /></linearGradient><radialGradient id="orb287" cx="34%" cy="27%" r="74%"><stop offset="0%" stop-color="#FFFFFF" stop-opacity="0.84" /><stop offset="30%" stop-color="#36D1FF" stop-opacity="0.52" /><stop offset="68%" stop-color="#8A5CFF" stop-opacity="0.42" /><stop offset="100%" stop-color="#FF9F43" stop-opacity="0.20" /></radialGradient><linearGradient id="extrude287" x1="0%" y1="0%" x2="0%" y2="100%"><stop offset="0%" stop-color="#15283C" stop-opacity="0.45" /><stop offset="100%" stop-color="#08131D" stop-opacity="0.06" /></linearGradient><linearGradient id="symbol287" x1="0%" y1="0%" x2="100%" y2="100%"><stop offset="0%" stop-color="#FFFFFF" /><stop offset="100%" stop-color="#FFD84D" /></linearGradient><filter id="shadow287" x="-40%" y="-40%" width="180%" height="180%"><feDropShadow dx="0" dy="49" stdDeviation="86" flood-color="#06111A" flood-opacity="0.54" /></filter><filter id="soft287" x="-40%" y="-40%" width="180%" height="180%"><feDropShadow dx="0" dy="0" stdDeviation="14" flood-color="#36D1FF" flood-opacity="0.45" /></filter><filter id="grain287"><feTurbulence type="fractalNoise" baseFrequency="1.059" numOctaves="2" seed="287" /><feColorMatrix type="saturate" values="0" /><feComponentTransfer><feFuncA type="table" tableValues="0 0.09" /></feComponentTransfer></filter></defs>
  <rect x="138" y="138" width="2796" height="2796" rx="629" fill="url(#bg287)" filter="url(#shadow287)" />
  <rect x="138" y="138" width="2796" height="2796" rx="629" fill="url(#sun287)" />
  <g><circle cx="831" cy="1639" r="94" fill="#FFFFFF" opacity="0.069" /><circle cx="1151" cy="2657" r="151" fill="#FFFFFF" opacity="0.115" /><circle cx="2371" cy="2446" r="66" fill="#FFFFFF" opacity="0.085" /><circle cx="1216" cy="2337" r="136" fill="#FFFFFF" opacity="0.193" /><circle cx="705" cy="1624" r="41" fill="#FFFFFF" opacity="0.128" /><circle cx="580" cy="2631" r="138" fill="#FFFFFF" opacity="0.092" /><circle cx="1242" cy="971" r="78" fill="#FFFFFF" opacity="0.181" /><circle cx="395" cy="1779" r="59" fill="#FFFFFF" opacity="0.205" /><circle cx="1833" cy="2632" r="77" fill="#FFFFFF" opacity="0.102" /><circle cx="2691" cy="1927" r="116" fill="#FFFFFF" opacity="0.084" /><circle cx="788" cy="976" r="143" fill="#FFFFFF" opacity="0.215" /><circle cx="1246" cy="2277" r="75" fill="#FFFFFF" opacity="0.076" /><circle cx="2110" cy="2183" r="125" fill="#FFFFFF" opacity="0.124" /><circle cx="2370" cy="780" r="144" fill="#FFFFFF" opacity="0.087" /><circle cx="1621" cy="2049" r="57" fill="#FFFFFF" opacity="0.225" /><circle cx="881" cy="1961" r="38" fill="#FFFFFF" opacity="0.169" /><circle cx="666" cy="1074" r="142" fill="#FFFFFF" opacity="0.185" /><circle cx="2346" cy="2140" r="66" fill="#FFFFFF" opacity="0.204" /><circle cx="696" cy="1740" r="41" fill="#FFFFFF" opacity="0.114" /><circle cx="525" cy="2350" r="157" fill="#FFFFFF" opacity="0.153" /><circle cx="2095" cy="2332" r="38" fill="#FFFFFF" opacity="0.147" /><circle cx="1067" cy="1042" r="37" fill="#FFFFFF" opacity="0.122" /><circle cx="2550" cy="1702" r="39" fill="#FFFFFF" opacity="0.202" /><circle cx="413" cy="2513" r="53" fill="#FFFFFF" opacity="0.093" /><circle cx="2010" cy="581" r="79" fill="#FFFFFF" opacity="0.116" /><circle cx="1611" cy="328" r="74" fill="#FFFFFF" opacity="0.198" /><circle cx="2519" cy="1849" r="129" fill="#FFFFFF" opacity="0.155" /><circle cx="1685" cy="418" r="148" fill="#FFFFFF" opacity="0.103" /></g>
  <g><path d="M 378.2 578.1 L 2742.7 301.6 L 2742.7 731.9 L 378.2 1008.4 Z" fill="#FFFFFF" opacity="0.185" /><path d="M 258.2 910.4 L 2887.9 633.9 L 2887.9 1129.7 L 258.2 1406.1 Z" fill="#FFFFFF" opacity="0.173" /><path d="M 173.8 1110.4 L 2775.1 834.0 L 2775.1 1290.4 L 173.8 1566.9 Z" fill="#FFFFFF" opacity="0.170" /><path d="M 347.1 1410.7 L 2864.1 1134.3 L 2864.1 1606.2 L 347.1 1882.7 Z" fill="#FFFFFF" opacity="0.157" /><path d="M 222.9 1649.2 L 2739.3 1372.7 L 2739.3 1810.2 L 222.9 2086.7 Z" fill="#FFFFFF" opacity="0.185" /><path d="M 173.4 1929.2 L 2833.0 1652.7 L 2833.0 2086.4 L 173.4 2362.9 Z" fill="#FFFFFF" opacity="0.105" /><path d="M 328.7 2182.3 L 2748.5 1905.8 L 2748.5 2336.6 L 328.7 2613.1 Z" fill="#FFFFFF" opacity="0.141" /><path d="M 363.1 2421.5 L 2835.2 2145.0 L 2835.2 2585.7 L 363.1 2862.2 Z" fill="#FFFFFF" opacity="0.164" /></g>
  <g filter="url(#soft287)"><g transform="rotate(-23.59 1536.0 1536.0)"><path d="M-368.6 566.2 C -225.8 611.0, -25.8 537.2, 107.5 621.5 C 250.4 608.2, 450.4 518.1, 583.7 605.4 C 726.5 600.3, 926.5 541.3, 1059.8 565.5 C 1202.7 565.5, 1402.7 566.5, 1536.0 526.1 C 1678.8 538.2, 1878.8 595.5, 2012.2 510.9 C 2155.0 501.8, 2355.0 597.4, 2488.3 529.3 C 2631.2 536.8, 2831.2 591.6, 2964.5 570.0 C 3107.3 568.6, 3307.3 564.1, 3440.6 608.4" fill="none" stroke="url(#ribbon287)" stroke-width="58.4" stroke-linecap="round" stroke-opacity="0.120" /></g><g transform="rotate(-23.01 1536.0 1536.0)"><path d="M-368.6 741.0 C -241.7 738.3, -63.9 743.1, 54.6 694.5 C 181.6 684.8, 359.4 761.4, 477.9 678.8 C 604.8 678.9, 782.6 808.9, 901.1 700.8 C 1028.1 708.5, 1205.9 775.1, 1324.4 747.2 C 1451.3 746.9, 1629.1 736.8, 1747.6 789.8 C 1874.6 770.4, 2052.4 709.5, 2170.9 802.8 C 2297.9 824.0, 2475.6 711.8, 2594.1 778.3 C 2721.1 778.8, 2898.9 703.5, 3017.4 731.2 C 3144.4 730.9, 3322.1 744.1, 3440.6 690.0" fill="none" stroke="url(#ribbon287)" stroke-width="54.4" stroke-linecap="round" stroke-opacity="0.146" /></g><g transform="rotate(-22.43 1536.0 1536.0)"><path d="M-368.6 959.2 C -254.4 883.8, -94.4 997.8, 12.3 907.5 C 126.6 901.1, 286.6 999.8, 393.2 956.4 C 507.5 956.6, 667.5 961.4, 774.1 1007.0 C 888.4 1007.5, 1048.4 932.3, 1155.1 1028.6 C 1269.4 1052.9, 1429.3 908.6, 1536.0 1008.2 C 1650.3 1023.2, 1810.3 934.6, 1916.9 958.0 C 2031.2 958.2, 2191.2 959.7, 2297.9 908.6 C 2412.1 916.0, 2572.1 977.4, 2678.8 889.9 C 2793.1 871.9, 2953.1 1031.7, 3059.7 913.2 C 3174.0 929.8, 3334.0 981.3, 3440.6 964.5" fill="none" stroke="url(#ribbon287)" stroke-width="50.4" stroke-linecap="round" stroke-opacity="0.172" /></g><g transform="rotate(-21.85 1536.0 1536.0)"><path d="M-368.6 1077.3 C -264.8 1051.3, -119.3 1091.1, -22.3 1009.0 C 81.5 997.7, 227.0 1157.2, 324.0 1005.1 C 427.8 1014.4, 573.3 1149.8, 670.3 1045.0 C 774.1 1043.2, 919.6 1107.7, 1016.6 1104.6 C 1120.4 1098.9, 1265.9 1051.1, 1362.9 1147.6 C 1466.7 1124.3, 1612.2 1042.6, 1709.1 1148.0 C 1813.0 1121.3, 1958.5 1054.8, 2055.4 1105.5 C 2159.3 1109.3, 2304.8 1048.5, 2401.7 1046.0 C 2505.6 1044.0, 2651.1 1093.2, 2748.0 1005.4 C 2851.9 997.3, 2997.4 1102.8, 3094.3 1008.5 C 3198.2 1019.9, 3343.7 1116.2, 3440.6 1053.3" fill="none" stroke="url(#ribbon287)" stroke-width="46.4" stroke-linecap="round" stroke-opacity="0.198" /></g><g transform="rotate(-21.27 1536.0 1536.0)"><path d="M-368.6 1241.2 C -273.4 1173.6, -140.1 1301.9, -51.2 1157.7 C 44.0 1130.6, 177.4 1332.7, 266.2 1183.7 C 361.5 1202.6, 494.8 1295.1, 583.7 1244.7 C 678.9 1244.2, 812.2 1239.4, 901.1 1303.5 C 996.4 1312.1, 1129.7 1217.7, 1218.6 1324.6 C 1313.8 1324.0, 1447.1 1212.4, 1536.0 1295.1 C 1631.2 1277.5, 1764.6 1210.4, 1853.4 1232.9 C 1948.7 1235.8, 2082.0 1244.0, 2170.9 1175.8 C 2266.1 1176.0, 2399.4 1298.2, 2488.3 1158.4 C 2583.6 1131.4, 2716.9 1288.2, 2805.8 1191.2 C 2901.0 1183.3, 3034.3 1260.0, 3123.2 1254.4 C 3218.4 1249.3, 3351.8 1226.9, 3440.6 1309.6" fill="none" stroke="url(#ribbon287)" stroke-width="42.4" stroke-linecap="round" stroke-opacity="0.224" /></g><g transform="rotate(-20.69 1536.0 1536.0)"><path d="M-368.6 1517.9 C -225.8 1628.8, -25.8 1461.2, 107.5 1600.8 C 250.4 1573.4, 450.4 1428.8, 583.7 1549.5 C 726.5 1539.7, 926.5 1485.8, 1059.8 1478.9 C 1202.7 1481.9, 1402.7 1551.8, 1536.0 1432.0 C 1678.8 1439.0, 1878.8 1565.0, 2012.2 1437.2 C 2155.0 1446.8, 2355.0 1606.6, 2488.3 1491.3 C 2631.2 1483.5, 2831.2 1547.8, 2964.5 1561.5 C 3107.3 1577.1, 3307.3 1472.6, 3440.6 1605.2" fill="none" stroke="url(#ribbon287)" stroke-width="38.4" stroke-linecap="round" stroke-opacity="0.250" /></g><g transform="rotate(-20.11 1536.0 1536.0)"><path d="M-368.6 1742.3 C -241.7 1829.1, -63.9 1696.3, 54.6 1839.3 C 181.6 1831.7, 359.4 1655.2, 477.9 1802.0 C 604.8 1783.1, 782.6 1716.0, 901.1 1728.5 C 1028.1 1723.8, 1205.9 1750.1, 1324.4 1663.3 C 1451.3 1654.4, 1629.1 1807.9, 1747.6 1646.0 C 1874.6 1681.2, 2052.4 1795.0, 2170.9 1687.1 C 2297.9 1708.5, 2475.6 1762.4, 2594.1 1761.7 C 2721.1 1767.2, 2898.9 1736.0, 3017.4 1824.5 C 3144.4 1819.9, 3322.1 1697.7, 3440.6 1837.4" fill="none" stroke="url(#ribbon287)" stroke-width="34.4" stroke-linecap="round" stroke-opacity="0.276" /></g><g transform="rotate(-19.53 1536.0 1536.0)"><path d="M-368.6 1869.9 C -254.4 1786.5, -94.4 1921.9, 12.3 1778.1 C 126.6 1752.1, 286.6 1965.3, 393.2 1842.1 C 507.5 1846.2, 667.5 1883.4, 774.1 1923.0 C 888.4 1914.2, 1048.4 1818.3, 1155.1 1971.7 C 1269.4 1945.1, 1429.3 1779.1, 1536.0 1958.7 C 1650.3 1940.9, 1810.3 1843.2, 1916.9 1891.8 C 2031.2 1883.9, 2191.2 1861.4, 2297.9 1811.7 C 2412.1 1807.3, 2572.1 1916.3, 2678.8 1766.9 C 2793.1 1746.0, 2953.1 1945.4, 3059.7 1784.6 C 3174.0 1757.6, 3334.0 1939.8, 3440.6 1854.1" fill="none" stroke="url(#ribbon287)" stroke-width="30.4" stroke-linecap="round" stroke-opacity="0.302" /></g><g transform="rotate(-18.95 1536.0 1536.0)"><path d="M-368.6 2051.7 C -264.8 2114.7, -119.3 2010.6, -22.3 2162.0 C 81.5 2141.2, 227.0 1946.1, 324.0 2141.7 C 427.8 2108.0, 573.3 1988.8, 670.3 2066.8 C 774.1 2066.8, 919.6 2046.2, 1016.6 1982.7 C 1120.4 1975.4, 1265.9 2118.6, 1362.9 1940.5 C 1466.7 1948.1, 1612.2 2163.7, 1709.1 1965.8 C 1813.0 1951.4, 1958.5 2147.4, 2055.4 2043.1 C 2159.3 2039.8, 2304.8 2060.5, 2401.7 2125.7 C 2505.6 2107.3, 2651.1 1977.5, 2748.0 2163.4 C 2851.9 2190.9, 2997.4 1949.5, 3094.3 2133.3 C 3198.2 2151.6, 3343.7 1991.9, 3440.6 2053.7" fill="none" stroke="url(#ribbon287)" stroke-width="26.4" stroke-linecap="round" stroke-opacity="0.328" /></g><g transform="rotate(-18.37 1536.0 1536.0)"><path d="M-368.6 2215.6 C -273.4 2202.7, -140.1 2220.4, -51.2 2289.6 C 44.0 2283.9, 177.4 2177.6, 266.2 2333.9 C 361.5 2328.3, 494.8 2174.4, 583.7 2306.5 C 678.9 2329.8, 812.2 2117.1, 901.1 2223.9 C 996.4 2222.1, 1129.7 2210.1, 1218.6 2136.3 C 1313.8 2164.3, 1447.1 2308.8, 1536.0 2096.8 C 1631.2 2111.1, 1764.6 2284.2, 1853.4 2129.4 C 1948.7 2128.7, 2082.0 2243.0, 2170.9 2214.2 C 2266.1 2213.8, 2399.4 2216.8, 2488.3 2299.9 C 2583.6 2274.0, 2716.9 2124.2, 2805.8 2334.5 C 2901.0 2314.8, 3034.3 2127.0, 3123.2 2296.9 C 3218.4 2320.6, 3351.8 2148.2, 3440.6 2210.0" fill="none" stroke="url(#ribbon287)" stroke-width="22.4" stroke-linecap="round" stroke-opacity="0.354" /></g><g transform="rotate(-17.79 1536.0 1536.0)"><path d="M-368.6 2428.2 C -225.8 2374.2, -25.8 2521.7, 107.5 2439.1 C 250.4 2438.5, 450.4 2420.1, 583.7 2525.8 C 726.5 2551.2, 926.5 2347.8, 1059.8 2553.3 C 1202.7 2588.5, 1402.7 2311.5, 1536.0 2505.0 C 1678.8 2491.2, 1878.8 2370.0, 2012.2 2410.1 C 2155.0 2416.0, 2355.0 2437.6, 2488.3 2326.2 C 2631.2 2319.2, 2831.2 2539.9, 2964.5 2304.2 C 3107.3 2323.2, 3307.3 2505.9, 3440.6 2357.4" fill="none" stroke="url(#ribbon287)" stroke-width="18.4" stroke-linecap="round" stroke-opacity="0.380" /></g><g transform="rotate(-17.21 1536.0 1536.0)"><path d="M-368.6 2681.9 C -241.7 2649.9, -63.9 2709.5, 54.6 2560.3 C 181.6 2545.1, 359.4 2726.3, 477.9 2558.5 C 604.8 2591.0, 782.6 2768.5, 901.1 2631.6 C 1028.1 2651.7, 1205.9 2722.3, 1324.4 2735.2 C 1451.3 2749.1, 1629.1 2659.3, 1747.6 2806.5 C 1874.6 2855.3, 2052.4 2633.8, 2170.9 2802.2 C 2297.9 2788.1, 2475.6 2563.5, 2594.1 2725.0 C 2721.1 2740.1, 2898.9 2654.6, 3017.4 2621.6 C 3144.4 2623.5, 3322.1 2703.7, 3440.6 2554.9" fill="none" stroke="url(#ribbon287)" stroke-width="14.4" stroke-linecap="round" stroke-opacity="0.406" /></g></g>
  <g><ellipse cx="1536.0" cy="1551.9" rx="728.6" ry="605.7" fill="url(#extrude287)" opacity="0.220" /><ellipse cx="1536.0" cy="1567.7" rx="736.0" ry="610.9" fill="url(#extrude287)" opacity="0.205" /><ellipse cx="1536.0" cy="1583.6" rx="743.4" ry="616.1" fill="url(#extrude287)" opacity="0.190" /><ellipse cx="1536.0" cy="1599.5" rx="750.9" ry="621.3" fill="url(#extrude287)" opacity="0.175" /><ellipse cx="1536.0" cy="1615.4" rx="758.3" ry="626.5" fill="url(#extrude287)" opacity="0.160" /><ellipse cx="1536.0" cy="1631.2" rx="765.7" ry="631.7" fill="url(#extrude287)" opacity="0.145" /><ellipse cx="1536.0" cy="1647.1" rx="773.2" ry="636.9" fill="url(#extrude287)" opacity="0.130" /><ellipse cx="1536.0" cy="1663.0" rx="780.6" ry="642.1" fill="url(#extrude287)" opacity="0.115" /><ellipse cx="1536.0" cy="1678.8" rx="788.0" ry="647.4" fill="url(#extrude287)" opacity="0.100" /><ellipse cx="1536.0" cy="1694.7" rx="795.5" ry="652.6" fill="url(#extrude287)" opacity="0.085" /><ellipse cx="1536.0" cy="1710.6" rx="802.9" ry="657.8" fill="url(#extrude287)" opacity="0.070" /><ellipse cx="1536.0" cy="1726.5" rx="810.3" ry="663.0" fill="url(#extrude287)" opacity="0.055" /></g>
  <ellipse cx="1536.0" cy="1726.5" rx="773.2" ry="214.9" fill="#0B1D2D" opacity="0.24" />
  <ellipse cx="1536.0" cy="1536.0" rx="743.4" ry="651.3" fill="url(#orb287)" stroke="#FFFFFF" stroke-opacity="0.42" stroke-width="7" />
  <ellipse cx="1431.9" cy="1392.7" rx="505.5" ry="299.6" fill="#FFFFFF" opacity="0.25" />
  <path d="M 199.4 399.4 C 1013.8 -30.7, 2058.2 768.0, 2872.6 215.0 L 2872.6 983.0 C 2089.0 1228.8, 1013.8 307.2, 199.4 1167.4 Z" fill="url(#glass287)" />
  <rect x="270" y="270" width="2532" height="2532" rx="430" fill="none" stroke="#FFFFFF" stroke-opacity="0.30" stroke-width="5" />
  <rect x="288.4" y="288.4" width="2495.1" height="2495.1" rx="399" fill="none" stroke="#36D1FF" stroke-opacity="0.35" stroke-width="3" />
  <g filter="url(#soft287)"><rect x="726" y="2055" width="34" height="2" fill="#FFFFFF" opacity="0.613" /><rect x="742" y="2039" width="2" height="34" fill="#FFFFFF" opacity="0.613" /><rect x="2451" y="2346" width="40" height="2" fill="#FFFFFF" opacity="0.418" /><rect x="2470" y="2327" width="2" height="40" fill="#FFFFFF" opacity="0.418" /><rect x="1974" y="2262" width="78" height="2" fill="#FFFFFF" opacity="0.369" /><rect x="2012" y="2224" width="2" height="78" fill="#FFFFFF" opacity="0.369" /><rect x="1446" y="735" width="26" height="2" fill="#FFFFFF" opacity="0.467" /><rect x="1458" y="723" width="2" height="26" fill="#FFFFFF" opacity="0.467" /><rect x="701" y="1223" width="80" height="2" fill="#FFFFFF" opacity="0.596" /><rect x="740" y="1184" width="2" height="80" fill="#FFFFFF" opacity="0.596" /><rect x="2647" y="1159" width="50" height="2" fill="#FFFFFF" opacity="0.827" /><rect x="2671" y="1135" width="2" height="50" fill="#FFFFFF" opacity="0.827" /><rect x="2561" y="1786" width="52" height="2" fill="#FFFFFF" opacity="0.811" /><rect x="2586" y="1761" width="2" height="52" fill="#FFFFFF" opacity="0.811" /><rect x="711" y="2671" width="56" height="2" fill="#FFFFFF" opacity="0.443" /><rect x="738" y="2644" width="2" height="56" fill="#FFFFFF" opacity="0.443" /><rect x="616" y="1251" width="74" height="2" fill="#FFFFFF" opacity="0.800" /><rect x="652" y="1215" width="2" height="74" fill="#FFFFFF" opacity="0.800" /><rect x="2571" y="754" width="38" height="2" fill="#FFFFFF" opacity="0.655" /><rect x="2589" y="736" width="2" height="38" fill="#FFFFFF" opacity="0.655" /><rect x="1924" y="249" width="40" height="2" fill="#FFFFFF" opacity="0.509" /><rect x="1943" y="230" width="2" height="40" fill="#FFFFFF" opacity="0.509" /><rect x="445" y="1640" width="36" height="2" fill="#FFFFFF" opacity="0.354" /><rect x="462" y="1623" width="2" height="36" fill="#FFFFFF" opacity="0.354" /><rect x="1052" y="1079" width="40" height="2" fill="#FFFFFF" opacity="0.644" /><rect x="1071" y="1060" width="2" height="40" fill="#FFFFFF" opacity="0.644" /><rect x="467" y="874" width="28" height="2" fill="#FFFFFF" opacity="0.660" /><rect x="480" y="861" width="2" height="28" fill="#FFFFFF" opacity="0.660" /><rect x="1963" y="524" width="66" height="2" fill="#FFFFFF" opacity="0.707" /><rect x="1995" y="492" width="2" height="66" fill="#FFFFFF" opacity="0.707" /><rect x="981" y="1729" width="62" height="2" fill="#FFFFFF" opacity="0.430" /><rect x="1011" y="1699" width="2" height="62" fill="#FFFFFF" opacity="0.430" /><rect x="2105" y="2358" width="28" height="2" fill="#FFFFFF" opacity="0.490" /><rect x="2118" y="2345" width="2" height="28" fill="#FFFFFF" opacity="0.490" /><rect x="1391" y="386" width="40" height="2" fill="#FFFFFF" opacity="0.725" /><rect x="1410" y="367" width="2" height="40" fill="#FFFFFF" opacity="0.725" /><rect x="1706" y="1662" width="78" height="2" fill="#FFFFFF" opacity="0.652" /><rect x="1744" y="1624" width="2" height="78" fill="#FFFFFF" opacity="0.652" /><rect x="830" y="879" width="28" height="2" fill="#FFFFFF" opacity="0.662" /><rect x="843" y="866" width="2" height="28" fill="#FFFFFF" opacity="0.662" /><rect x="1072" y="1419" width="30" height="2" fill="#FFFFFF" opacity="0.709" /><rect x="1086" y="1405" width="2" height="30" fill="#FFFFFF" opacity="0.709" /><rect x="2271" y="1853" width="66" height="2" fill="#FFFFFF" opacity="0.580" /><rect x="2303" y="1821" width="2" height="66" fill="#FFFFFF" opacity="0.580" /><rect x="2457" y="931" width="44" height="2" fill="#FFFFFF" opacity="0.508" /><rect x="2478" y="910" width="2" height="44" fill="#FFFFFF" opacity="0.508" /><rect x="1664" y="486" width="38" height="2" fill="#FFFFFF" opacity="0.428" /><rect x="1682" y="468" width="2" height="38" fill="#FFFFFF" opacity="0.428" /><rect x="2631" y="1392" width="72" height="2" fill="#FFFFFF" opacity="0.756" /><rect x="2666" y="1357" width="2" height="72" fill="#FFFFFF" opacity="0.756" /><rect x="2148" y="979" width="46" height="2" fill="#FFFFFF" opacity="0.528" /><rect x="2170" y="957" width="2" height="46" fill="#FFFFFF" opacity="0.528" /></g>
  <g opacity="0.52"><path d="M996 1006 L2148 1006 L2148 2158 L996 2158 Z" fill="none" stroke="#0C2030" stroke-width="90" /><path d="M996 1582 L2148 1582" stroke="#0C2030" stroke-width="90" /><path d="M1572 1006 L1572 2158" stroke="#0C2030" stroke-width="90" /></g>
  <g filter="url(#soft287)"><path d="M960 960 L2112 960 L2112 2112 L960 2112 Z" fill="none" stroke="url(#symbol287)" stroke-width="90" /><path d="M960 1536 L2112 1536" stroke="url(#symbol287)" stroke-width="90" /><path d="M1536 960 L1536 2112" stroke="url(#symbol287)" stroke-width="90" /></g>
  <rect x="138" y="138" width="2796" height="2796" rx="629" fill="#FFFFFF" filter="url(#grain287)" opacity="0.18" />
</svg>
