<svg xmlns="http://www.w3.org/2000/svg" width="3072" height="3072" viewBox="0 0 3072 3072">
  <title>QuartzOS App Icon 248 - core_gallery_248</title>
  <defs><linearGradient id="bg247" x1="0%" y1="0%" x2="100%" y2="100%"><stop offset="0%" stop-color="#8A5CFF" /><stop offset="26%" stop-color="#FF9F43" /><stop offset="56%" stop-color="#53E3A6" /><stop offset="78%" stop-color="#9A6BB4" /><stop offset="100%" stop-color="#271E2A" /></linearGradient><radialGradient id="sun247" cx="27%" cy="14%" r="88%"><stop offset="0%" stop-color="#FFFFFF" stop-opacity="0.62" /><stop offset="30%" stop-color="#36D1FF" stop-opacity="0.35" /><stop offset="100%" stop-color="#36D1FF" stop-opacity="0" /></radialGradient><linearGradient id="glass247" x1="0%" y1="0%" x2="0%" y2="100%"><stop offset="0%" stop-color="#FFFFFF" stop-opacity="0.70" /><stop offset="46%" stop-color="#FFFFFF" stop-opacity="0.26" /><stop offset="100%" stop-color="#FFFFFF" stop-opacity="0.00" /></linearGradient><linearGradient id="ribbon247" x1="0%" y1="0%" x2="100%" y2="0%"><stop offset="0%" stop-color="#8A5CFF" stop-opacity="0.18" /><stop offset="34%" stop-color="#FF9F43" stop-opacity="0.72" /><stop offset="66%" stop-color="#53E3A6" stop-opacity="0.72" /><stop offset="100%" stop-color="#36D1FF" stop-opacity="0.18" /></linearGradient><radialGradient id="orb247" cx="34%" cy="27%" r="74%"><stop offset="0%" stop-color="#FFFFFF" stop-opacity="0.84" /><stop offset="30%" stop-color="#8A5CFF" stop-opacity="0.52" /><stop offset="68%" stop-color="#FF9F43" stop-opacity="0.42" /><stop offset="100%" stop-color="#53E3A6" stop-opacity="0.20" /></radialGradient><linearGradient id="extrude247" x1="0%" y1="0%" x2="0%" y2="100%"><stop offset="0%" stop-color="#15283C" stop-opacity="0.45" /><stop offset="100%" stop-color="#08131D" stop-opacity="0.06" /></linearGradient><linearGradient id="symbol247" x1="0%" y1="0%" x2="100%" y2="100%"><stop offset="0%" stop-color="#FFFFFF" /><stop offset="100%" stop-color="#36D1FF" /></linearGradient><filter id="shadow247" x="-40%" y="-40%" width="180%" height="180%"><feDropShadow dx="0" dy="49" stdDeviation="86" flood-color="#06111A" flood-opacity="0.54" /></filter><filter id="soft247" x="-40%" y="-40%" width="180%" height="180%"><feDropShadow dx="0" dy="0" stdDeviation="14" flood-color="#8A5CFF" flood-opacity="0.45" /></filter><filter id="grain247"><feTurbulence type="fractalNoise" baseFrequency="1.073" numOctaves="2" seed="247" /><feColorMatrix type="saturate" values="0" /><feComponentTransfer><feFuncA type="table" tableValues="0 0.09" /></feComponentTransfer></filter></defs>
  <rect x="138" y="138" width="2796" height="2796" rx="629" fill="url(#bg247)" filter="url(#shadow247)" />
  <rect x="138" y="138" width="2796" height="2796" rx="629" fill="url(#sun247)" />
  <g><circle cx="1341" cy="1559" r="46" fill="#FFFFFF" opacity="0.144" /><circle cx="949" cy="1373" r="109" fill="#FFFFFF" opacity="0.155" /><circle cx="2485" cy="320" r="54" fill="#FFFFFF" opacity="0.150" /><circle cx="1925" cy="1690" r="81" fill="#FFFFFF" opacity="0.222" /><circle cx="657" cy="1870" r="110" fill="#FFFFFF" opacity="0.236" /><circle cx="691" cy="1966" r="42" fill="#FFFFFF" opacity="0.215" /><circle cx="935" cy="1104" r="43" fill="#FFFFFF" opacity="0.130" /><circle cx="536" cy="1387" r="44" fill="#FFFFFF" opacity="0.162" /><circle cx="1884" cy="2403" r="89" fill="#FFFFFF" opacity="0.091" /><circle cx="1791" cy="2071" r="49" fill="#FFFFFF" opacity="0.086" /><circle cx="1964" cy="2080" r="124" fill="#FFFFFF" opacity="0.160" /><circle cx="422" cy="2377" r="135" fill="#FFFFFF" opacity="0.132" /><circle cx="828" cy="923" r="41" fill="#FFFFFF" opacity="0.156" /><circle cx="2540" cy="1136" r="125" fill="#FFFFFF" opacity="0.146" /><circle cx="2521" cy="1321" r="40" fill="#FFFFFF" opacity="0.212" /><circle cx="1108" cy="843" r="110" fill="#FFFFFF" opacity="0.184" /><circle cx="1894" cy="941" r="104" fill="#FFFFFF" opacity="0.068" /><circle cx="1252" cy="2600" r="38" fill="#FFFFFF" opacity="0.122" /><circle cx="935" cy="2126" r="124" fill="#FFFFFF" opacity="0.174" /><circle cx="761" cy="2423" r="68" fill="#FFFFFF" opacity="0.177" /><circle cx="1312" cy="1086" r="53" fill="#FFFFFF" opacity="0.104" /><circle cx="508" cy="862" r="106" fill="#FFFFFF" opacity="0.186" /><circle cx="1148" cy="2386" r="118" fill="#FFFFFF" opacity="0.222" /><circle cx="424" cy="1996" r="121" fill="#FFFFFF" opacity="0.146" /><circle cx="701" cy="1245" r="67" fill="#FFFFFF" opacity="0.116" /><circle cx="2039" cy="1797" r="123" fill="#FFFFFF" opacity="0.239" /><circle cx="597" cy="724" r="67" fill="#FFFFFF" opacity="0.109" /><circle cx="1243" cy="1798" r="66" fill="#FFFFFF" opacity="0.135" /></g>
  <g><path d="M 270.6 631.4 L 2919.8 354.9 L 2919.8 780.3 L 270.6 1056.8 Z" fill="#FFFFFF" opacity="0.166" /><path d="M 362.3 915.5 L 2748.6 639.0 L 2748.6 1094.2 L 362.3 1370.7 Z" fill="#FFFFFF" opacity="0.235" /><path d="M 173.3 1147.4 L 2818.7 870.9 L 2818.7 1304.9 L 173.3 1581.4 Z" fill="#FFFFFF" opacity="0.080" /><path d="M 339.1 1426.7 L 2764.3 1150.2 L 2764.3 1598.0 L 339.1 1874.5 Z" fill="#FFFFFF" opacity="0.114" /><path d="M 365.0 1703.5 L 2897.4 1427.0 L 2897.4 1863.8 L 365.0 2140.3 Z" fill="#FFFFFF" opacity="0.115" /><path d="M 153.7 1964.7 L 2810.6 1688.2 L 2810.6 2155.5 L 153.7 2432.0 Z" fill="#FFFFFF" opacity="0.113" /><path d="M 197.1 2145.2 L 2907.7 1868.8 L 2907.7 2352.4 L 197.1 2628.9 Z" fill="#FFFFFF" opacity="0.196" /><path d="M 290.0 2404.2 L 2845.8 2127.7 L 2845.8 2567.6 L 290.0 2844.0 Z" fill="#FFFFFF" opacity="0.120" /></g>
  <g filter="url(#soft247)"><g transform="rotate(-8.65 1536.0 1536.0)"><path d="M-368.6 575.3 C -225.8 618.3, -25.8 561.7, 107.5 630.4 C 250.4 615.6, 450.4 555.4, 583.7 610.2 C 726.5 605.9, 926.5 558.9, 1059.8 568.9 C 1202.7 568.3, 1402.7 582.3, 1536.0 531.4 C 1678.8 548.4, 1878.8 618.0, 2012.2 520.6 C 2155.0 518.5, 2355.0 620.8, 2488.3 542.9 C 2631.2 543.6, 2831.2 585.4, 2964.5 584.9 C 3107.3 581.7, 3307.3 569.5, 3440.6 621.0" fill="none" stroke="url(#ribbon247)" stroke-width="58.4" stroke-linecap="round" stroke-opacity="0.120" /></g><g transform="rotate(-8.07 1536.0 1536.0)"><path d="M-368.6 776.9 C -241.7 736.3, -63.9 787.4, 54.6 716.6 C 181.6 726.4, 359.4 848.5, 477.9 723.4 C 604.8 714.0, 782.6 822.2, 901.1 762.6 C 1028.1 765.6, 1205.9 788.9, 1324.4 810.5 C 1451.3 806.0, 1629.1 745.1, 1747.6 838.0 C 1874.6 856.9, 2052.4 751.5, 2170.9 828.4 C 2297.9 842.2, 2475.6 759.7, 2594.1 787.6 C 2721.1 789.9, 2898.9 771.9, 3017.4 740.3 C 3144.4 749.6, 3322.1 795.3, 3440.6 715.2" fill="none" stroke="url(#ribbon247)" stroke-width="54.4" stroke-linecap="round" stroke-opacity="0.146" /></g><g transform="rotate(-7.49 1536.0 1536.0)"><path d="M-368.6 907.3 C -254.4 889.9, -94.4 935.1, 12.3 934.4 C 126.6 945.1, 286.6 880.1, 393.2 972.1 C 507.5 948.2, 667.5 877.3, 774.1 970.4 C 888.4 963.6, 1048.4 867.5, 1155.1 930.5 C 1269.4 925.9, 1429.3 899.9, 1536.0 876.5 C 1650.3 870.3, 1810.3 934.4, 1916.9 841.2 C 2031.2 860.1, 2191.2 931.0, 2297.9 846.0 C 2412.1 834.0, 2572.1 961.6, 2678.8 888.0 C 2793.1 895.7, 2953.1 929.5, 3059.7 941.7 C 3174.0 943.9, 3334.0 889.8, 3440.6 974.5" fill="none" stroke="url(#ribbon247)" stroke-width="50.4" stroke-linecap="round" stroke-opacity="0.172" /></g><g transform="rotate(-6.91 1536.0 1536.0)"><path d="M-368.6 1090.7 C -264.8 1106.2, -119.3 1076.2, -22.3 1045.7 C 81.5 1040.0, 227.0 1133.2, 324.0 1014.9 C 427.8 989.7, 573.3 1148.5, 670.3 1030.1 C 774.1 1006.9, 919.6 1144.2, 1016.6 1082.1 C 1120.4 1082.7, 1265.9 1097.5, 1362.9 1139.2 C 1466.7 1156.7, 1612.2 1064.9, 1709.1 1166.9 C 1813.0 1162.7, 1958.5 1064.3, 2055.4 1148.3 C 2159.3 1145.6, 2304.8 1055.2, 2401.7 1094.8 C 2505.6 1096.0, 2651.1 1087.2, 2748.0 1038.8 C 2851.9 1052.6, 2997.4 1131.0, 3094.3 1014.2 C 3198.2 1020.0, 3343.7 1174.8, 3440.6 1036.0" fill="none" stroke="url(#ribbon247)" stroke-width="46.4" stroke-linecap="round" stroke-opacity="0.198" /></g><g transform="rotate(-6.33 1536.0 1536.0)"><path d="M-368.6 1289.9 C -273.4 1286.5, -140.1 1293.4, -51.2 1347.1 C 44.0 1364.7, 177.4 1266.0, 266.2 1373.4 C 361.5 1350.9, 494.8 1243.5, 583.7 1349.1 C 678.9 1327.0, 812.2 1264.0, 901.1 1288.9 C 996.4 1288.8, 1129.7 1291.0, 1218.6 1229.3 C 1313.8 1240.4, 1447.1 1316.4, 1536.0 1206.4 C 1631.2 1201.1, 1764.6 1331.1, 1853.4 1234.2 C 1948.7 1237.2, 2082.0 1323.7, 2170.9 1295.8 C 2266.1 1293.8, 2399.4 1285.4, 2488.3 1353.8 C 2583.6 1376.3, 2716.9 1248.0, 2805.8 1373.0 C 2901.0 1382.6, 3034.3 1209.9, 3123.2 1341.9 C 3218.4 1340.6, 3351.8 1268.8, 3440.6 1279.2" fill="none" stroke="url(#ribbon247)" stroke-width="42.4" stroke-linecap="round" stroke-opacity="0.224" /></g><g transform="rotate(-5.75 1536.0 1536.0)"><path d="M-368.6 1445.2 C -225.8 1447.5, -25.8 1442.4, 107.5 1382.0 C 250.4 1403.1, 450.4 1470.4, 583.7 1354.5 C 726.5 1353.2, 926.5 1512.9, 1059.8 1382.1 C 1202.7 1371.2, 1402.7 1507.7, 1536.0 1447.9 C 1678.8 1448.9, 1878.8 1442.8, 2012.2 1512.1 C 2155.0 1488.1, 2355.0 1377.6, 2488.3 1535.6 C 2631.2 1500.7, 2831.2 1362.0, 2964.5 1504.3 C 3107.3 1510.9, 3307.3 1409.4, 3440.6 1437.1" fill="none" stroke="url(#ribbon247)" stroke-width="38.4" stroke-linecap="round" stroke-opacity="0.250" /></g><g transform="rotate(-5.17 1536.0 1536.0)"><path d="M-368.6 1675.0 C -241.7 1595.2, -63.9 1702.6, 54.6 1687.8 C 181.6 1688.3, 359.4 1669.7, 477.9 1753.4 C 604.8 1733.4, 782.6 1634.5, 901.1 1771.5 C 1028.1 1738.6, 1205.9 1603.4, 1324.4 1731.0 C 1451.3 1751.1, 1629.1 1647.5, 1747.6 1656.6 C 1874.6 1656.8, 2052.4 1694.3, 2170.9 1593.4 C 2297.9 1581.9, 2475.6 1720.1, 2594.1 1579.7 C 2721.1 1589.6, 2898.9 1758.6, 3017.4 1623.8 C 3144.4 1627.1, 3322.1 1727.1, 3440.6 1699.0" fill="none" stroke="url(#ribbon247)" stroke-width="34.4" stroke-linecap="round" stroke-opacity="0.276" /></g><g transform="rotate(-4.59 1536.0 1536.0)"><path d="M-368.6 1838.6 C -254.4 1872.0, -94.4 1800.9, 12.3 1938.1 C 126.6 1916.5, 286.6 1808.6, 393.2 1931.5 C 507.5 1918.7, 667.5 1729.2, 774.1 1868.5 C 888.4 1875.3, 1048.4 1820.4, 1155.1 1787.4 C 1269.4 1803.3, 1429.3 1898.6, 1536.0 1737.4 C 1650.3 1714.0, 1810.3 1875.7, 1916.9 1748.7 C 2031.2 1747.8, 2191.2 1944.9, 2297.9 1814.6 C 2412.1 1815.0, 2572.1 1860.2, 2678.8 1895.0 C 2793.1 1882.0, 2953.1 1814.9, 3059.7 1941.2 C 3174.0 1964.5, 3334.0 1726.1, 3440.6 1925.2" fill="none" stroke="url(#ribbon247)" stroke-width="30.4" stroke-linecap="round" stroke-opacity="0.302" /></g><g transform="rotate(-4.01 1536.0 1536.0)"><path d="M-368.6 2093.5 C -264.8 2136.0, -119.3 2074.0, -22.3 2197.5 C 81.5 2172.9, 227.0 2002.3, 324.0 2195.4 C 427.8 2191.9, 573.3 2062.5, 670.3 2131.4 C 774.1 2133.6, 919.6 2077.2, 1016.6 2044.5 C 1120.4 2047.4, 1265.9 2109.8, 1362.9 1987.2 C 1466.7 1961.3, 1612.2 2195.2, 1709.1 1994.4 C 1813.0 2029.4, 1958.5 2200.5, 2055.4 2061.7 C 2159.3 2072.3, 2304.8 2111.0, 2401.7 2148.3 C 2505.6 2143.7, 2651.1 2042.0, 2748.0 2201.6 C 2851.9 2215.8, 2997.4 1969.8, 3094.3 2189.3 C 3198.2 2218.8, 3343.7 2030.0, 3440.6 2118.9" fill="none" stroke="url(#ribbon247)" stroke-width="26.4" stroke-linecap="round" stroke-opacity="0.328" /></g><g transform="rotate(-3.43 1536.0 1536.0)"><path d="M-368.6 2275.1 C -273.4 2227.5, -140.1 2307.5, -51.2 2320.9 C 44.0 2317.5, 177.4 2239.7, 266.2 2385.7 C 361.5 2420.7, 494.8 2143.2, 583.7 2383.3 C 678.9 2358.2, 812.2 2235.5, 901.1 2315.3 C 996.4 2302.7, 1129.7 2258.0, 1218.6 2222.8 C 1313.8 2213.7, 1447.1 2324.4, 1536.0 2162.1 C 1631.2 2127.1, 1764.6 2381.6, 1853.4 2169.8 C 1948.7 2194.1, 2082.0 2311.4, 2170.9 2241.4 C 2266.1 2245.6, 2399.4 2301.6, 2488.3 2333.4 C 2583.6 2334.4, 2716.9 2216.7, 2805.8 2390.0 C 2901.0 2364.8, 3034.3 2144.1, 3123.2 2376.9 C 3218.4 2371.7, 3351.8 2213.7, 3440.6 2302.0" fill="none" stroke="url(#ribbon247)" stroke-width="22.4" stroke-linecap="round" stroke-opacity="0.354" /></g><g transform="rotate(-2.85 1536.0 1536.0)"><path d="M-368.6 2466.3 C -225.8 2377.0, -25.8 2596.0, 107.5 2356.4 C 250.4 2387.3, 450.4 2515.9, 583.7 2433.9 C 726.5 2425.9, 926.5 2477.1, 1059.8 2531.0 C 1202.7 2510.5, 1402.7 2402.4, 1536.0 2588.9 C 1678.8 2615.5, 1878.8 2352.4, 2012.2 2572.4 C 2155.0 2583.1, 2355.0 2405.3, 2488.3 2491.6 C 2631.2 2499.4, 2831.2 2453.5, 2964.5 2395.4 C 3107.3 2387.4, 3307.3 2491.6, 3440.6 2342.2" fill="none" stroke="url(#ribbon247)" stroke-width="18.4" stroke-linecap="round" stroke-opacity="0.380" /></g><g transform="rotate(-2.27 1536.0 1536.0)"><path d="M-368.6 2648.6 C -241.7 2742.6, -63.9 2619.1, 54.6 2780.0 C 181.6 2782.3, 359.4 2595.5, 477.9 2755.1 C 604.8 2729.6, 782.6 2562.5, 901.1 2665.7 C 1028.1 2671.8, 1205.9 2639.8, 1324.4 2565.9 C 1451.3 2540.0, 1629.1 2746.6, 1747.6 2516.3 C 1874.6 2515.6, 2052.4 2805.7, 2170.9 2546.9 C 2297.9 2534.3, 2475.6 2731.6, 2594.1 2639.3 C 2721.1 2637.2, 2898.9 2658.2, 3017.4 2737.3 C 3144.4 2765.8, 3322.1 2603.2, 3440.6 2781.5" fill="none" stroke="url(#ribbon247)" stroke-width="14.4" stroke-linecap="round" stroke-opacity="0.406" /></g></g>
  <g><ellipse cx="1536.0" cy="1551.9" rx="728.6" ry="605.7" fill="url(#extrude247)" opacity="0.220" /><ellipse cx="1536.0" cy="1567.7" rx="736.0" ry="610.9" fill="url(#extrude247)" opacity="0.205" /><ellipse cx="1536.0" cy="1583.6" rx="743.4" ry="616.1" fill="url(#extrude247)" opacity="0.190" /><ellipse cx="1536.0" cy="1599.5" rx="750.9" ry="621.3" fill="url(#extrude247)" opacity="0.175" /><ellipse cx="1536.0" cy="1615.4" rx="758.3" ry="626.5" fill="url(#extrude247)" opacity="0.160" /><ellipse cx="1536.0" cy="1631.2" rx="765.7" ry="631.7" fill="url(#extrude247)" opacity="0.145" /><ellipse cx="1536.0" cy="1647.1" rx="773.2" ry="636.9" fill="url(#extrude247)" opacity="0.130" /><ellipse cx="1536.0" cy="1663.0" rx="780.6" ry="642.1" fill="url(#extrude247)" opacity="0.115" /><ellipse cx="1536.0" cy="1678.8" rx="788.0" ry="647.4" fill="url(#extrude247)" opacity="0.100" /><ellipse cx="1536.0" cy="1694.7" rx="795.5" ry="652.6" fill="url(#extrude247)" opacity="0.085" /><ellipse cx="1536.0" cy="1710.6" rx="802.9" ry="657.8" fill="url(#extrude247)" opacity="0.070" /><ellipse cx="1536.0" cy="1726.5" rx="810.3" ry="663.0" fill="url(#extrude247)" opacity="0.055" /></g>
  <ellipse cx="1536.0" cy="1726.5" rx="773.2" ry="214.9" fill="#0B1D2D" opacity="0.24" />
  <ellipse cx="1536.0" cy="1536.0" rx="743.4" ry="651.3" fill="url(#orb247)" stroke="#FFFFFF" stroke-opacity="0.42" stroke-width="7" />
  <ellipse cx="1431.9" cy="1392.7" rx="505.5" ry="299.6" fill="#FFFFFF" opacity="0.25" />
  <path d="M 199.4 399.4 C 1013.8 -30.7, 2058.2 768.0, 2872.6 215.0 L 2872.6 983.0 C 2089.0 1228.8, 1013.8 307.2, 199.4 1167.4 Z" fill="url(#glass247)" />
  <rect x="270" y="270" width="2532" height="2532" rx="430" fill="none" stroke="#FFFFFF" stroke-opacity="0.30" stroke-width="5" />
  <rect x="288.4" y="288.4" width="2495.1" height="2495.1" rx="399" fill="none" stroke="#8A5CFF" stroke-opacity="0.35" stroke-width="3" />
  <g filter="url(#soft247)"><rect x="1164" y="2732" width="72" height="2" fill="#FFFFFF" opacity="0.728" /><rect x="1199" y="2697" width="2" height="72" fill="#FFFFFF" opacity="0.728" /><rect x="487" y="2531" width="60" height="2" fill="#FFFFFF" opacity="0.520" /><rect x="516" y="2502" width="2" height="60" fill="#FFFFFF" opacity="0.520" /><rect x="532" y="2069" width="84" height="2" fill="#FFFFFF" opacity="0.637" /><rect x="573" y="2028" width="2" height="84" fill="#FFFFFF" opacity="0.637" /><rect x="327" y="2335" width="34" height="2" fill="#FFFFFF" opacity="0.329" /><rect x="343" y="2319" width="2" height="34" fill="#FFFFFF" opacity="0.329" /><rect x="799" y="1872" width="48" height="2" fill="#FFFFFF" opacity="0.800" /><rect x="822" y="1849" width="2" height="48" fill="#FFFFFF" opacity="0.800" /><rect x="1532" y="1723" width="60" height="2" fill="#FFFFFF" opacity="0.783" /><rect x="1561" y="1694" width="2" height="60" fill="#FFFFFF" opacity="0.783" /><rect x="1384" y="920" width="64" height="2" fill="#FFFFFF" opacity="0.791" /><rect x="1415" y="889" width="2" height="64" fill="#FFFFFF" opacity="0.791" /><rect x="2581" y="984" width="46" height="2" fill="#FFFFFF" opacity="0.327" /><rect x="2603" y="962" width="2" height="46" fill="#FFFFFF" opacity="0.327" /><rect x="2665" y="731" width="44" height="2" fill="#FFFFFF" opacity="0.550" /><rect x="2686" y="710" width="2" height="44" fill="#FFFFFF" opacity="0.550" /><rect x="2489" y="1112" width="70" height="2" fill="#FFFFFF" opacity="0.810" /><rect x="2523" y="1078" width="2" height="70" fill="#FFFFFF" opacity="0.810" /><rect x="937" y="2640" width="70" height="2" fill="#FFFFFF" opacity="0.724" /><rect x="971" y="2606" width="2" height="70" fill="#FFFFFF" opacity="0.724" /><rect x="563" y="1278" width="82" height="2" fill="#FFFFFF" opacity="0.339" /><rect x="603" y="1238" width="2" height="82" fill="#FFFFFF" opacity="0.339" /><rect x="1486" y="1877" width="50" height="2" fill="#FFFFFF" opacity="0.416" /><rect x="1510" y="1853" width="2" height="50" fill="#FFFFFF" opacity="0.416" /><rect x="1139" y="859" width="42" height="2" fill="#FFFFFF" opacity="0.609" /><rect x="1159" y="839" width="2" height="42" fill="#FFFFFF" opacity="0.609" /><rect x="1285" y="1332" width="34" height="2" fill="#FFFFFF" opacity="0.610" /><rect x="1301" y="1316" width="2" height="34" fill="#FFFFFF" opacity="0.610" /><rect x="845" y="996" width="62" height="2" fill="#FFFFFF" opacity="0.647" /><rect x="875" y="966" width="2" height="62" fill="#FFFFFF" opacity="0.647" /><rect x="2299" y="2166" width="56" height="2" fill="#FFFFFF" opacity="0.624" /><rect x="2326" y="2139" width="2" height="56" fill="#FFFFFF" opacity="0.624" /><rect x="1455" y="646" width="58" height="2" fill="#FFFFFF" opacity="0.638" /><rect x="1483" y="618" width="2" height="58" fill="#FFFFFF" opacity="0.638" /><rect x="2253" y="1522" width="28" height="2" fill="#FFFFFF" opacity="0.772" /><rect x="2266" y="1509" width="2" height="28" fill="#FFFFFF" opacity="0.772" /><rect x="2401" y="2235" width="80" height="2" fill="#FFFFFF" opacity="0.416" /><rect x="2440" y="2196" width="2" height="80" fill="#FFFFFF" opacity="0.416" /><rect x="479" y="2342" width="24" height="2" fill="#FFFFFF" opacity="0.810" /><rect x="490" y="2331" width="2" height="24" fill="#FFFFFF" opacity="0.810" /><rect x="1313" y="1723" width="44" height="2" fill="#FFFFFF" opacity="0.327" /><rect x="1334" y="1702" width="2" height="44" fill="#FFFFFF" opacity="0.327" /><rect x="1654" y="2573" width="54" height="2" fill="#FFFFFF" opacity="0.751" /><rect x="1680" y="2547" width="2" height="54" fill="#FFFFFF" opacity="0.751" /><rect x="1963" y="869" width="66" height="2" fill="#FFFFFF" opacity="0.619" /><rect x="1995" y="837" width="2" height="66" fill="#FFFFFF" opacity="0.619" /><rect x="1961" y="1527" width="48" height="2" fill="#FFFFFF" opacity="0.743" /><rect x="1984" y="1504" width="2" height="48" fill="#FFFFFF" opacity="0.743" /><rect x="2576" y="1394" width="68" height="2" fill="#FFFFFF" opacity="0.449" /><rect x="2609" y="1361" width="2" height="68" fill="#FFFFFF" opacity="0.449" /></g>
  <g opacity="0.52"><circle cx="1572" cy="1582" r="384" fill="none" stroke="#0C2030" stroke-width="90" /><circle cx="1572" cy="1582" r="153" fill="#0C2030" /><line x1="1572" y1="967" x2="1572" y2="1198" stroke="#0C2030" stroke-width="90" /><line x1="1572" y1="2197" x2="1572" y2="1966" stroke="#0C2030" stroke-width="90" /><line x1="957" y1="1582" x2="1188" y2="1582" stroke="#0C2030" stroke-width="90" /><line x1="2187" y1="1582" x2="1956" y2="1582" stroke="#0C2030" stroke-width="90" /></g>
  <g filter="url(#soft247)"><circle cx="1536" cy="1536" r="384" fill="none" stroke="url(#symbol247)" stroke-width="90" /><circle cx="1536" cy="1536" r="153" fill="url(#symbol247)" /><line x1="1536" y1="921" x2="1536" y2="1152" stroke="url(#symbol247)" stroke-width="90" /><line x1="1536" y1="2151" x2="1536" y2="1920" stroke="url(#symbol247)" stroke-width="90" /><line x1="921" y1="1536" x2="1152" y2="1536" stroke="url(#symbol247)" stroke-width="90" /><line x1="2151" y1="1536" x2="1920" y2="1536" stroke="url(#symbol247)" stroke-width="90" /></g>
  <rect x="138" y="138" width="2796" height="2796" rx="629" fill="#FFFFFF" filter="url(#grain247)" opacity="0.18" />
</svg>
