<svg xmlns="http://www.w3.org/2000/svg" width="3072" height="3072" viewBox="0 0 3072 3072">
  <title>QuartzOS App Icon 108 - core_cloud_108</title>
  <defs><linearGradient id="bg107" x1="0%" y1="0%" x2="100%" y2="100%"><stop offset="0%" stop-color="#8A5CFF" /><stop offset="26%" stop-color="#FF9F43" /><stop offset="56%" stop-color="#53E3A6" /><stop offset="78%" stop-color="#4BA7D0" /><stop offset="100%" stop-color="#122A3D" /></linearGradient><radialGradient id="sun107" cx="29%" cy="14%" r="88%"><stop offset="0%" stop-color="#FFFFFF" stop-opacity="0.62" /><stop offset="30%" stop-color="#36D1FF" stop-opacity="0.35" /><stop offset="100%" stop-color="#36D1FF" stop-opacity="0" /></radialGradient><linearGradient id="glass107" x1="0%" y1="0%" x2="0%" y2="100%"><stop offset="0%" stop-color="#FFFFFF" stop-opacity="0.70" /><stop offset="46%" stop-color="#FFFFFF" stop-opacity="0.26" /><stop offset="100%" stop-color="#FFFFFF" stop-opacity="0.00" /></linearGradient><linearGradient id="ribbon107" x1="0%" y1="0%" x2="100%" y2="0%"><stop offset="0%" stop-color="#8A5CFF" stop-opacity="0.18" /><stop offset="34%" stop-color="#FF9F43" stop-opacity="0.72" /><stop offset="66%" stop-color="#53E3A6" stop-opacity="0.72" /><stop offset="100%" stop-color="#36D1FF" stop-opacity="0.18" /></linearGradient><radialGradient id="orb107" cx="34%" cy="27%" r="74%"><stop offset="0%" stop-color="#FFFFFF" stop-opacity="0.84" /><stop offset="30%" stop-color="#8A5CFF" stop-opacity="0.52" /><stop offset="68%" stop-color="#FF9F43" stop-opacity="0.42" /><stop offset="100%" stop-color="#53E3A6" stop-opacity="0.20" /></radialGradient><linearGradient id="extrude107" x1="0%" y1="0%" x2="0%" y2="100%"><stop offset="0%" stop-color="#15283C" stop-opacity="0.45" /><stop offset="100%" stop-color="#08131D" stop-opacity="0.06" /></linearGradient><linearGradient id="symbol107" x1="0%" y1="0%" x2="100%" y2="100%"><stop offset="0%" stop-color="#FFFFFF" /><stop offset="100%" stop-color="#36D1FF" /></linearGradient><filter id="shadow107" x="-40%" y="-40%" width="180%" height="180%"><feDropShadow dx="0" dy="49" stdDeviation="86" flood-color="#06111A" flood-opacity="0.54" /></filter><filter id="soft107" x="-40%" y="-40%" width="180%" height="180%"><feDropShadow dx="0" dy="0" stdDeviation="14" flood-color="#8A5CFF" flood-opacity="0.45" /></filter><filter id="grain107"><feTurbulence type="fractalNoise" baseFrequency="0.788" numOctaves="2" seed="107" /><feColorMatrix type="saturate" values="0" /><feComponentTransfer><feFuncA type="table" tableValues="0 0.09" /></feComponentTransfer></filter></defs>
  <rect x="138" y="138" width="2796" height="2796" rx="629" fill="url(#bg107)" filter="url(#shadow107)" />
  <rect x="138" y="138" width="2796" height="2796" rx="629" fill="url(#sun107)" />
  <g><circle cx="1076" cy="1495" r="132" fill="#FFFFFF" opacity="0.125" /><circle cx="791" cy="1734" r="57" fill="#FFFFFF" opacity="0.136" /><circle cx="1073" cy="2586" r="133" fill="#FFFFFF" opacity="0.175" /><circle cx="815" cy="2208" r="82" fill="#FFFFFF" opacity="0.117" /><circle cx="785" cy="2405" r="146" fill="#FFFFFF" opacity="0.140" /><circle cx="1778" cy="760" r="81" fill="#FFFFFF" opacity="0.235" /><circle cx="1528" cy="866" r="102" fill="#FFFFFF" opacity="0.232" /><circle cx="1648" cy="1764" r="49" fill="#FFFFFF" opacity="0.063" /><circle cx="1424" cy="2566" r="151" fill="#FFFFFF" opacity="0.198" /><circle cx="2586" cy="1329" r="102" fill="#FFFFFF" opacity="0.062" /><circle cx="720" cy="1407" r="110" fill="#FFFFFF" opacity="0.233" /><circle cx="2610" cy="744" r="103" fill="#FFFFFF" opacity="0.201" /><circle cx="1988" cy="2499" r="62" fill="#FFFFFF" opacity="0.092" /><circle cx="838" cy="2101" r="66" fill="#FFFFFF" opacity="0.205" /><circle cx="560" cy="2289" r="131" fill="#FFFFFF" opacity="0.202" /><circle cx="2287" cy="477" r="96" fill="#FFFFFF" opacity="0.171" /><circle cx="2526" cy="1178" r="49" fill="#FFFFFF" opacity="0.079" /><circle cx="1227" cy="1421" r="139" fill="#FFFFFF" opacity="0.122" /><circle cx="2624" cy="718" r="110" fill="#FFFFFF" opacity="0.182" /><circle cx="1447" cy="1454" r="120" fill="#FFFFFF" opacity="0.107" /><circle cx="1364" cy="2161" r="83" fill="#FFFFFF" opacity="0.173" /><circle cx="1069" cy="1062" r="133" fill="#FFFFFF" opacity="0.133" /><circle cx="713" cy="1554" r="118" fill="#FFFFFF" opacity="0.070" /><circle cx="2601" cy="2274" r="51" fill="#FFFFFF" opacity="0.111" /><circle cx="1673" cy="568" r="101" fill="#FFFFFF" opacity="0.154" /><circle cx="1542" cy="385" r="153" fill="#FFFFFF" opacity="0.169" /><circle cx="1422" cy="1893" r="149" fill="#FFFFFF" opacity="0.163" /><circle cx="2564" cy="999" r="80" fill="#FFFFFF" opacity="0.082" /></g>
  <g><path d="M 238.7 620.6 L 2690.3 344.1 L 2690.3 788.6 L 238.7 1065.0 Z" fill="#FFFFFF" opacity="0.231" /><path d="M 373.9 912.9 L 2797.1 636.4 L 2797.1 1133.9 L 373.9 1410.4 Z" fill="#FFFFFF" opacity="0.193" /><path d="M 190.4 1090.9 L 2782.8 814.4 L 2782.8 1265.0 L 190.4 1541.4 Z" fill="#FFFFFF" opacity="0.216" /><path d="M 245.0 1366.9 L 2721.0 1090.4 L 2721.0 1570.5 L 245.0 1847.0 Z" fill="#FFFFFF" opacity="0.149" /><path d="M 230.9 1693.5 L 2758.3 1417.0 L 2758.3 1876.1 L 230.9 2152.6 Z" fill="#FFFFFF" opacity="0.082" /><path d="M 278.6 1933.4 L 2722.8 1656.9 L 2722.8 2122.0 L 278.6 2398.5 Z" fill="#FFFFFF" opacity="0.178" /><path d="M 339.4 2155.6 L 2804.6 1879.1 L 2804.6 2318.7 L 339.4 2595.2 Z" fill="#FFFFFF" opacity="0.113" /><path d="M 302.9 2403.7 L 2783.9 2127.2 L 2783.9 2555.0 L 302.9 2831.5 Z" fill="#FFFFFF" opacity="0.119" /></g>
  <g filter="url(#soft107)"><g transform="rotate(-11.20 1536.0 1536.0)"><path d="M-368.6 573.7 C -225.8 592.2, -25.8 554.5, 107.5 552.5 C 250.4 547.7, 450.4 591.9, 583.7 522.3 C 726.5 525.5, 926.5 620.9, 1059.8 523.2 C 1202.7 536.1, 1402.7 623.8, 1536.0 554.8 C 1678.8 554.7, 1878.8 587.2, 2012.2 597.8 C 2155.0 597.6, 2355.0 545.4, 2488.3 626.2 C 2631.2 617.5, 2831.2 522.1, 2964.5 622.7 C 3107.3 641.3, 3307.3 548.3, 3440.6 589.5" fill="none" stroke="url(#ribbon107)" stroke-width="58.4" stroke-linecap="round" stroke-opacity="0.120" /></g><g transform="rotate(-10.62 1536.0 1536.0)"><path d="M-368.6 752.4 C -241.7 719.5, -63.9 760.4, 54.6 693.6 C 181.6 686.7, 359.4 815.2, 477.9 696.6 C 604.8 688.6, 782.6 778.4, 901.1 733.4 C 1028.1 726.8, 1205.9 763.6, 1324.4 781.8 C 1451.3 785.9, 1629.1 731.6, 1747.6 812.4 C 1874.6 809.4, 2052.4 692.2, 2170.9 806.6 C 2297.9 821.0, 2475.6 715.9, 2594.1 768.0 C 2721.1 766.8, 2898.9 733.9, 3017.4 720.0 C 3144.4 726.1, 3322.1 775.7, 3440.6 691.6" fill="none" stroke="url(#ribbon107)" stroke-width="54.4" stroke-linecap="round" stroke-opacity="0.146" /></g><g transform="rotate(-10.04 1536.0 1536.0)"><path d="M-368.6 875.3 C -254.4 830.5, -94.4 921.5, 12.3 877.5 C 126.6 877.8, 286.6 873.3, 393.2 926.6 C 507.5 925.8, 667.5 837.3, 774.1 944.6 C 888.4 954.5, 1048.4 823.4, 1155.1 920.5 C 1269.4 925.8, 1429.3 834.7, 1536.0 869.0 C 1650.3 869.0, 1810.3 882.6, 1916.9 821.3 C 2031.2 811.5, 2191.2 916.6, 2297.9 806.3 C 2412.1 825.4, 2572.1 920.5, 2678.8 833.2 C 2793.1 835.5, 2953.1 911.0, 3059.7 885.5 C 3174.0 883.2, 3334.0 868.5, 3440.6 931.7" fill="none" stroke="url(#ribbon107)" stroke-width="50.4" stroke-linecap="round" stroke-opacity="0.172" /></g><g transform="rotate(-9.46 1536.0 1536.0)"><path d="M-368.6 1083.6 C -264.8 1061.4, -119.3 1111.6, -22.3 1013.7 C 81.5 1026.9, 227.0 1119.5, 324.0 1012.6 C 427.8 1032.2, 573.3 1156.3, 670.3 1054.5 C 774.1 1052.5, 919.6 1104.3, 1016.6 1114.1 C 1120.4 1120.5, 1265.9 1057.4, 1362.9 1155.2 C 1466.7 1170.8, 1612.2 1048.2, 1709.1 1152.8 C 1813.0 1134.9, 1958.5 1035.9, 2055.4 1108.5 C 2159.3 1102.3, 2304.8 1074.7, 2401.7 1049.0 C 2505.6 1037.2, 2651.1 1117.4, 2748.0 1010.6 C 2851.9 993.3, 2997.4 1122.4, 3094.3 1016.4 C 3198.2 1035.9, 3343.7 1155.6, 3440.6 1063.0" fill="none" stroke="url(#ribbon107)" stroke-width="46.4" stroke-linecap="round" stroke-opacity="0.198" /></g><g transform="rotate(-8.88 1536.0 1536.0)"><path d="M-368.6 1293.0 C -273.4 1216.4, -140.1 1320.5, -51.2 1209.9 C 44.0 1242.3, 177.4 1353.0, 266.2 1241.2 C 361.5 1240.9, 494.8 1342.9, 583.7 1304.0 C 678.9 1299.7, 812.2 1283.5, 901.1 1360.1 C 996.4 1365.4, 1129.7 1216.2, 1218.6 1375.5 C 1313.8 1353.7, 1447.1 1267.0, 1536.0 1340.9 C 1631.2 1323.1, 1764.6 1263.1, 1853.4 1277.3 C 1948.7 1272.7, 2082.0 1309.0, 2170.9 1223.2 C 2266.1 1237.6, 2399.4 1362.2, 2488.3 1211.5 C 2583.6 1190.2, 2716.9 1325.9, 2805.8 1249.2 C 2901.0 1250.7, 3034.3 1307.5, 3123.2 1313.6 C 3218.4 1311.8, 3351.8 1278.6, 3440.6 1365.4" fill="none" stroke="url(#ribbon107)" stroke-width="42.4" stroke-linecap="round" stroke-opacity="0.224" /></g><g transform="rotate(-8.30 1536.0 1536.0)"><path d="M-368.6 1528.5 C -225.8 1423.8, -25.8 1580.1, 107.5 1460.1 C 250.4 1471.5, 450.4 1563.5, 583.7 1523.5 C 726.5 1523.0, 926.5 1531.5, 1059.8 1589.9 C 1202.7 1609.0, 1402.7 1493.5, 1536.0 1619.1 C 1678.8 1622.8, 1878.8 1496.8, 2012.2 1593.3 C 2155.0 1602.4, 2355.0 1471.8, 2488.3 1528.2 C 2631.2 1528.3, 2831.2 1528.7, 2964.5 1463.3 C 3107.3 1457.4, 3307.3 1600.2, 3440.6 1437.9" fill="none" stroke="url(#ribbon107)" stroke-width="38.4" stroke-linecap="round" stroke-opacity="0.250" /></g><g transform="rotate(-7.72 1536.0 1536.0)"><path d="M-368.6 1701.2 C -241.7 1625.0, -63.9 1803.9, 54.6 1614.7 C 181.6 1608.2, 359.4 1782.1, 477.9 1673.4 C 604.8 1664.9, 782.6 1719.0, 901.1 1749.0 C 1028.1 1758.9, 1205.9 1659.2, 1324.4 1795.6 C 1451.3 1777.7, 1629.1 1649.7, 1747.6 1784.9 C 1874.6 1802.3, 2052.4 1602.0, 2170.9 1723.4 C 2297.9 1725.6, 2475.6 1687.1, 2594.1 1648.4 C 2721.1 1636.9, 2898.9 1760.2, 3017.4 1605.5 C 3144.4 1617.8, 3322.1 1735.8, 3440.6 1620.5" fill="none" stroke="url(#ribbon107)" stroke-width="34.4" stroke-linecap="round" stroke-opacity="0.276" /></g><g transform="rotate(-7.14 1536.0 1536.0)"><path d="M-368.6 1831.6 C -254.4 1777.2, -94.4 1877.6, 12.3 1728.1 C 126.6 1702.6, 286.6 1862.8, 393.2 1771.3 C 507.5 1755.1, 667.5 1896.8, 774.1 1851.1 C 888.4 1844.8, 1048.4 1816.4, 1155.1 1919.0 C 1269.4 1893.5, 1429.3 1788.7, 1536.0 1933.9 C 1650.3 1968.8, 1810.3 1795.4, 1916.9 1886.7 C 2031.2 1903.4, 2191.2 1785.2, 2297.9 1806.1 C 2412.1 1802.4, 2572.1 1851.6, 2678.8 1740.9 C 2793.1 1709.9, 2953.1 1917.3, 3059.7 1730.7 C 3174.0 1738.0, 3334.0 1892.8, 3440.6 1781.7" fill="none" stroke="url(#ribbon107)" stroke-width="30.4" stroke-linecap="round" stroke-opacity="0.302" /></g><g transform="rotate(-6.56 1536.0 1536.0)"><path d="M-368.6 2082.4 C -264.8 2170.7, -119.3 2025.9, -22.3 2067.8 C 81.5 2071.8, 227.0 2090.6, 324.0 1992.7 C 427.8 1987.1, 573.3 2110.7, 670.3 1972.0 C 774.1 1980.0, 919.6 2142.7, 1016.6 2018.4 C 1120.4 2026.8, 1265.9 2141.8, 1362.9 2103.5 C 1466.7 2107.8, 1612.2 2063.0, 1709.1 2175.9 C 1813.0 2152.7, 1958.5 2032.0, 2055.4 2191.6 C 2159.3 2181.1, 2304.8 1986.1, 2401.7 2141.0 C 2505.6 2123.7, 2651.1 2030.3, 2748.0 2054.9 C 2851.9 2055.4, 2997.4 2094.1, 3094.3 1985.5 C 3198.2 1993.6, 3343.7 2172.5, 3440.6 1974.9" fill="none" stroke="url(#ribbon107)" stroke-width="26.4" stroke-linecap="round" stroke-opacity="0.328" /></g><g transform="rotate(-5.98 1536.0 1536.0)"><path d="M-368.6 2277.9 C -273.4 2205.0, -140.1 2351.1, -51.2 2159.1 C 44.0 2147.7, 177.4 2339.9, 266.2 2191.3 C 361.5 2208.4, 494.8 2310.5, 583.7 2276.1 C 678.9 2275.7, 812.2 2278.6, 901.1 2361.9 C 996.4 2334.0, 1129.7 2198.8, 1218.6 2396.8 C 1313.8 2419.3, 1447.1 2156.6, 1536.0 2359.5 C 1631.2 2379.8, 1764.6 2224.7, 1853.4 2272.8 C 1948.7 2273.2, 2082.0 2282.7, 2170.9 2189.1 C 2266.1 2155.9, 2399.4 2358.8, 2488.3 2159.3 C 2583.6 2161.1, 2716.9 2350.4, 2805.8 2201.4 C 2901.0 2186.6, 3034.3 2310.0, 3123.2 2289.9 C 3218.4 2294.3, 3351.8 2267.4, 3440.6 2371.1" fill="none" stroke="url(#ribbon107)" stroke-width="22.4" stroke-linecap="round" stroke-opacity="0.354" /></g><g transform="rotate(-5.40 1536.0 1536.0)"><path d="M-368.6 2443.5 C -225.8 2504.4, -25.8 2391.5, 107.5 2408.4 C 250.4 2406.5, 450.4 2455.6, 583.7 2332.3 C 726.5 2376.4, 926.5 2480.6, 1059.8 2323.7 C 1202.7 2328.9, 1402.7 2551.5, 1536.0 2387.7 C 1678.8 2399.7, 1878.8 2492.1, 2012.2 2485.7 C 2155.0 2482.5, 2355.0 2428.1, 2488.3 2558.0 C 2631.2 2530.3, 2831.2 2357.4, 2964.5 2560.9 C 3107.3 2591.8, 3307.3 2358.5, 3440.6 2492.6" fill="none" stroke="url(#ribbon107)" stroke-width="18.4" stroke-linecap="round" stroke-opacity="0.380" /></g><g transform="rotate(-4.82 1536.0 1536.0)"><path d="M-368.6 2613.7 C -241.7 2579.8, -63.9 2648.1, 54.6 2676.8 C 181.6 2701.5, 359.4 2582.1, 477.9 2741.7 C 604.8 2706.1, 782.6 2474.8, 901.1 2728.8 C 1028.1 2753.4, 1205.9 2550.8, 1324.4 2646.2 C 1451.3 2637.2, 1629.1 2597.6, 1747.6 2543.8 C 1874.6 2544.7, 2052.4 2695.6, 2170.9 2483.8 C 2297.9 2443.0, 2475.6 2760.8, 2594.1 2502.6 C 2721.1 2506.8, 2898.9 2668.7, 3017.4 2588.8 C 3144.4 2596.6, 3322.1 2629.4, 3440.6 2690.0" fill="none" stroke="url(#ribbon107)" stroke-width="14.4" stroke-linecap="round" stroke-opacity="0.406" /></g></g>
  <g><ellipse cx="1536.0" cy="1551.9" rx="728.6" ry="605.7" fill="url(#extrude107)" opacity="0.220" /><ellipse cx="1536.0" cy="1567.7" rx="736.0" ry="610.9" fill="url(#extrude107)" opacity="0.205" /><ellipse cx="1536.0" cy="1583.6" rx="743.4" ry="616.1" fill="url(#extrude107)" opacity="0.190" /><ellipse cx="1536.0" cy="1599.5" rx="750.9" ry="621.3" fill="url(#extrude107)" opacity="0.175" /><ellipse cx="1536.0" cy="1615.4" rx="758.3" ry="626.5" fill="url(#extrude107)" opacity="0.160" /><ellipse cx="1536.0" cy="1631.2" rx="765.7" ry="631.7" fill="url(#extrude107)" opacity="0.145" /><ellipse cx="1536.0" cy="1647.1" rx="773.2" ry="636.9" fill="url(#extrude107)" opacity="0.130" /><ellipse cx="1536.0" cy="1663.0" rx="780.6" ry="642.1" fill="url(#extrude107)" opacity="0.115" /><ellipse cx="1536.0" cy="1678.8" rx="788.0" ry="647.4" fill="url(#extrude107)" opacity="0.100" /><ellipse cx="1536.0" cy="1694.7" rx="795.5" ry="652.6" fill="url(#extrude107)" opacity="0.085" /><ellipse cx="1536.0" cy="1710.6" rx="802.9" ry="657.8" fill="url(#extrude107)" opacity="0.070" /><ellipse cx="1536.0" cy="1726.5" rx="810.3" ry="663.0" fill="url(#extrude107)" opacity="0.055" /></g>
  <ellipse cx="1536.0" cy="1726.5" rx="773.2" ry="214.9" fill="#0B1D2D" opacity="0.24" />
  <ellipse cx="1536.0" cy="1536.0" rx="743.4" ry="651.3" fill="url(#orb107)" stroke="#FFFFFF" stroke-opacity="0.42" stroke-width="7" />
  <ellipse cx="1431.9" cy="1392.7" rx="505.5" ry="299.6" fill="#FFFFFF" opacity="0.25" />
  <path d="M 199.4 399.4 C 1013.8 -30.7, 2058.2 768.0, 2872.6 215.0 L 2872.6 983.0 C 2089.0 1228.8, 1013.8 307.2, 199.4 1167.4 Z" fill="url(#glass107)" />
  <rect x="270" y="270" width="2532" height="2532" rx="430" fill="none" stroke="#FFFFFF" stroke-opacity="0.30" stroke-width="5" />
  <rect x="288.4" y="288.4" width="2495.1" height="2495.1" rx="399" fill="none" stroke="#8A5CFF" stroke-opacity="0.35" stroke-width="3" />
  <g filter="url(#soft107)"><rect x="1159" y="2544" width="78" height="2" fill="#FFFFFF" opacity="0.308" /><rect x="1197" y="2506" width="2" height="78" fill="#FFFFFF" opacity="0.308" /><rect x="390" y="2136" width="62" height="2" fill="#FFFFFF" opacity="0.758" /><rect x="420" y="2106" width="2" height="62" fill="#FFFFFF" opacity="0.758" /><rect x="2300" y="837" width="42" height="2" fill="#FFFFFF" opacity="0.572" /><rect x="2320" y="817" width="2" height="42" fill="#FFFFFF" opacity="0.572" /><rect x="2514" y="1432" width="26" height="2" fill="#FFFFFF" opacity="0.378" /><rect x="2526" y="1420" width="2" height="26" fill="#FFFFFF" opacity="0.378" /><rect x="1764" y="1662" width="48" height="2" fill="#FFFFFF" opacity="0.646" /><rect x="1787" y="1639" width="2" height="48" fill="#FFFFFF" opacity="0.646" /><rect x="654" y="1986" width="70" height="2" fill="#FFFFFF" opacity="0.552" /><rect x="688" y="1952" width="2" height="70" fill="#FFFFFF" opacity="0.552" /><rect x="646" y="779" width="58" height="2" fill="#FFFFFF" opacity="0.775" /><rect x="674" y="751" width="2" height="58" fill="#FFFFFF" opacity="0.775" /><rect x="974" y="1097" width="74" height="2" fill="#FFFFFF" opacity="0.707" /><rect x="1010" y="1061" width="2" height="74" fill="#FFFFFF" opacity="0.707" /><rect x="2110" y="862" width="32" height="2" fill="#FFFFFF" opacity="0.511" /><rect x="2125" y="847" width="2" height="32" fill="#FFFFFF" opacity="0.511" /><rect x="1192" y="1933" width="42" height="2" fill="#FFFFFF" opacity="0.421" /><rect x="1212" y="1913" width="2" height="42" fill="#FFFFFF" opacity="0.421" /><rect x="1796" y="1100" width="62" height="2" fill="#FFFFFF" opacity="0.304" /><rect x="1826" y="1070" width="2" height="62" fill="#FFFFFF" opacity="0.304" /><rect x="1957" y="2254" width="34" height="2" fill="#FFFFFF" opacity="0.406" /><rect x="1973" y="2238" width="2" height="34" fill="#FFFFFF" opacity="0.406" /><rect x="1285" y="1425" width="62" height="2" fill="#FFFFFF" opacity="0.511" /><rect x="1315" y="1395" width="2" height="62" fill="#FFFFFF" opacity="0.511" /><rect x="766" y="308" width="54" height="2" fill="#FFFFFF" opacity="0.372" /><rect x="792" y="282" width="2" height="54" fill="#FFFFFF" opacity="0.372" /><rect x="1278" y="1246" width="38" height="2" fill="#FFFFFF" opacity="0.573" /><rect x="1296" y="1228" width="2" height="38" fill="#FFFFFF" opacity="0.573" /><rect x="1098" y="2760" width="62" height="2" fill="#FFFFFF" opacity="0.346" /><rect x="1128" y="2730" width="2" height="62" fill="#FFFFFF" opacity="0.346" /><rect x="2656" y="2735" width="30" height="2" fill="#FFFFFF" opacity="0.571" /><rect x="2670" y="2721" width="2" height="30" fill="#FFFFFF" opacity="0.571" /><rect x="1513" y="1931" width="54" height="2" fill="#FFFFFF" opacity="0.530" /><rect x="1539" y="1905" width="2" height="54" fill="#FFFFFF" opacity="0.530" /><rect x="2641" y="1052" width="72" height="2" fill="#FFFFFF" opacity="0.748" /><rect x="2676" y="1017" width="2" height="72" fill="#FFFFFF" opacity="0.748" /><rect x="2577" y="422" width="78" height="2" fill="#FFFFFF" opacity="0.772" /><rect x="2615" y="384" width="2" height="78" fill="#FFFFFF" opacity="0.772" /><rect x="1267" y="1807" width="30" height="2" fill="#FFFFFF" opacity="0.654" /><rect x="1281" y="1793" width="2" height="30" fill="#FFFFFF" opacity="0.654" /><rect x="1461" y="2520" width="24" height="2" fill="#FFFFFF" opacity="0.756" /><rect x="1472" y="2509" width="2" height="24" fill="#FFFFFF" opacity="0.756" /><rect x="2643" y="264" width="62" height="2" fill="#FFFFFF" opacity="0.667" /><rect x="2673" y="234" width="2" height="62" fill="#FFFFFF" opacity="0.667" /><rect x="1492" y="2609" width="60" height="2" fill="#FFFFFF" opacity="0.376" /><rect x="1521" y="2580" width="2" height="60" fill="#FFFFFF" opacity="0.376" /><rect x="1766" y="373" width="84" height="2" fill="#FFFFFF" opacity="0.380" /><rect x="1807" y="332" width="2" height="84" fill="#FFFFFF" opacity="0.380" /><rect x="2197" y="820" width="76" height="2" fill="#FFFFFF" opacity="0.818" /><rect x="2234" y="783" width="2" height="76" fill="#FFFFFF" opacity="0.818" /></g>
  <g opacity="0.52"><path d="M996 1006 L2148 1006 L2148 2158 L996 2158 Z" fill="none" stroke="#0C2030" stroke-width="90" /><path d="M996 1582 L2148 1582" stroke="#0C2030" stroke-width="90" /><path d="M1572 1006 L1572 2158" stroke="#0C2030" stroke-width="90" /></g>
  <g filter="url(#soft107)"><path d="M960 960 L2112 960 L2112 2112 L960 2112 Z" fill="none" stroke="url(#symbol107)" stroke-width="90" /><path d="M960 1536 L2112 1536" stroke="url(#symbol107)" stroke-width="90" /><path d="M1536 960 L1536 2112" stroke="url(#symbol107)" stroke-width="90" /></g>
  <rect x="138" y="138" width="2796" height="2796" rx="629" fill="#FFFFFF" filter="url(#grain107)" opacity="0.18" />
</svg>
