<svg xmlns="http://www.w3.org/2000/svg" width="3072" height="3072" viewBox="0 0 3072 3072">
  <title>QuartzOS App Icon 168 - core_terminal_168</title>
  <defs><linearGradient id="bg167" x1="0%" y1="0%" x2="100%" y2="100%"><stop offset="0%" stop-color="#53E3A6" /><stop offset="26%" stop-color="#3B82FF" /><stop offset="56%" stop-color="#FF6AB3" /><stop offset="78%" stop-color="#4BA7D0" /><stop offset="100%" stop-color="#122A3D" /></linearGradient><radialGradient id="sun167" cx="26%" cy="36%" r="88%"><stop offset="0%" stop-color="#FFFFFF" stop-opacity="0.62" /><stop offset="30%" stop-color="#FF9F43" stop-opacity="0.35" /><stop offset="100%" stop-color="#FF9F43" stop-opacity="0" /></radialGradient><linearGradient id="glass167" x1="0%" y1="0%" x2="0%" y2="100%"><stop offset="0%" stop-color="#FFFFFF" stop-opacity="0.70" /><stop offset="46%" stop-color="#FFFFFF" stop-opacity="0.26" /><stop offset="100%" stop-color="#FFFFFF" stop-opacity="0.00" /></linearGradient><linearGradient id="ribbon167" x1="0%" y1="0%" x2="100%" y2="0%"><stop offset="0%" stop-color="#53E3A6" stop-opacity="0.18" /><stop offset="34%" stop-color="#3B82FF" stop-opacity="0.72" /><stop offset="66%" stop-color="#FF6AB3" stop-opacity="0.72" /><stop offset="100%" stop-color="#FF9F43" stop-opacity="0.18" /></linearGradient><radialGradient id="orb167" cx="34%" cy="27%" r="74%"><stop offset="0%" stop-color="#FFFFFF" stop-opacity="0.84" /><stop offset="30%" stop-color="#53E3A6" stop-opacity="0.52" /><stop offset="68%" stop-color="#3B82FF" stop-opacity="0.42" /><stop offset="100%" stop-color="#FF6AB3" stop-opacity="0.20" /></radialGradient><linearGradient id="extrude167" x1="0%" y1="0%" x2="0%" y2="100%"><stop offset="0%" stop-color="#15283C" stop-opacity="0.45" /><stop offset="100%" stop-color="#08131D" stop-opacity="0.06" /></linearGradient><linearGradient id="symbol167" x1="0%" y1="0%" x2="100%" y2="100%"><stop offset="0%" stop-color="#FFFFFF" /><stop offset="100%" stop-color="#FF9F43" /></linearGradient><filter id="shadow167" x="-40%" y="-40%" width="180%" height="180%"><feDropShadow dx="0" dy="49" stdDeviation="86" flood-color="#06111A" flood-opacity="0.54" /></filter><filter id="soft167" x="-40%" y="-40%" width="180%" height="180%"><feDropShadow dx="0" dy="0" stdDeviation="14" flood-color="#53E3A6" flood-opacity="0.45" /></filter><filter id="grain167"><feTurbulence type="fractalNoise" baseFrequency="0.675" numOctaves="2" seed="167" /><feColorMatrix type="saturate" values="0" /><feComponentTransfer><feFuncA type="table" tableValues="0 0.09" /></feComponentTransfer></filter></defs>
  <rect x="138" y="138" width="2796" height="2796" rx="629" fill="url(#bg167)" filter="url(#shadow167)" />
  <rect x="138" y="138" width="2796" height="2796" rx="629" fill="url(#sun167)" />
  <g><circle cx="1863" cy="1582" r="60" fill="#FFFFFF" opacity="0.200" /><circle cx="1007" cy="371" r="138" fill="#FFFFFF" opacity="0.195" /><circle cx="451" cy="585" r="92" fill="#FFFFFF" opacity="0.157" /><circle cx="1055" cy="848" r="115" fill="#FFFFFF" opacity="0.163" /><circle cx="1671" cy="1457" r="108" fill="#FFFFFF" opacity="0.205" /><circle cx="1993" cy="445" r="140" fill="#FFFFFF" opacity="0.077" /><circle cx="1356" cy="1408" r="88" fill="#FFFFFF" opacity="0.094" /><circle cx="1830" cy="814" r="154" fill="#FFFFFF" opacity="0.148" /><circle cx="1203" cy="2126" r="156" fill="#FFFFFF" opacity="0.068" /><circle cx="1715" cy="1688" r="85" fill="#FFFFFF" opacity="0.111" /><circle cx="2629" cy="2107" r="130" fill="#FFFFFF" opacity="0.150" /><circle cx="1325" cy="1664" r="136" fill="#FFFFFF" opacity="0.090" /><circle cx="2528" cy="2310" r="100" fill="#FFFFFF" opacity="0.147" /><circle cx="824" cy="350" r="113" fill="#FFFFFF" opacity="0.206" /><circle cx="2597" cy="1187" r="62" fill="#FFFFFF" opacity="0.216" /><circle cx="2377" cy="1847" r="37" fill="#FFFFFF" opacity="0.206" /><circle cx="1877" cy="636" r="80" fill="#FFFFFF" opacity="0.178" /><circle cx="1898" cy="415" r="46" fill="#FFFFFF" opacity="0.171" /><circle cx="534" cy="1331" r="117" fill="#FFFFFF" opacity="0.105" /><circle cx="1360" cy="1033" r="93" fill="#FFFFFF" opacity="0.170" /><circle cx="868" cy="1784" r="154" fill="#FFFFFF" opacity="0.194" /><circle cx="2002" cy="571" r="51" fill="#FFFFFF" opacity="0.090" /><circle cx="881" cy="1164" r="95" fill="#FFFFFF" opacity="0.113" /><circle cx="1755" cy="1459" r="101" fill="#FFFFFF" opacity="0.208" /><circle cx="1408" cy="1055" r="88" fill="#FFFFFF" opacity="0.167" /><circle cx="1583" cy="350" r="57" fill="#FFFFFF" opacity="0.150" /><circle cx="1147" cy="1387" r="137" fill="#FFFFFF" opacity="0.122" /><circle cx="2037" cy="2088" r="72" fill="#FFFFFF" opacity="0.203" /></g>
  <g><path d="M 371.5 576.7 L 2869.2 300.2 L 2869.2 784.1 L 371.5 1060.5 Z" fill="#FFFFFF" opacity="0.172" /><path d="M 157.0 874.5 L 2753.3 598.1 L 2753.3 1030.6 L 157.0 1307.1 Z" fill="#FFFFFF" opacity="0.149" /><path d="M 278.8 1176.4 L 2876.5 899.9 L 2876.5 1385.9 L 278.8 1662.4 Z" fill="#FFFFFF" opacity="0.220" /><path d="M 306.3 1356.3 L 2757.7 1079.9 L 2757.7 1523.1 L 306.3 1799.6 Z" fill="#FFFFFF" opacity="0.218" /><path d="M 324.4 1648.5 L 2746.9 1372.0 L 2746.9 1866.1 L 324.4 2142.5 Z" fill="#FFFFFF" opacity="0.112" /><path d="M 264.6 1875.6 L 2887.2 1599.1 L 2887.2 2045.4 L 264.6 2321.8 Z" fill="#FFFFFF" opacity="0.134" /><path d="M 234.7 2208.5 L 2721.7 1932.0 L 2721.7 2366.3 L 234.7 2642.8 Z" fill="#FFFFFF" opacity="0.226" /><path d="M 240.7 2488.1 L 2913.0 2211.6 L 2913.0 2663.2 L 240.7 2939.6 Z" fill="#FFFFFF" opacity="0.178" /></g>
  <g filter="url(#soft167)"><g transform="rotate(-18.63 1536.0 1536.0)"><path d="M-368.6 520.0 C -225.8 486.7, -25.8 540.5, 107.5 510.8 C 250.4 514.3, 450.4 524.7, 583.7 552.7 C 726.5 559.8, 926.5 507.3, 1059.8 574.8 C 1202.7 578.6, 1402.7 489.0, 1536.0 563.6 C 1678.8 562.7, 1878.8 480.5, 2012.2 526.0 C 2155.0 523.7, 2355.0 516.2, 2488.3 484.8 C 2631.2 491.4, 2831.2 548.4, 2964.5 464.9 C 3107.3 477.5, 3307.3 559.2, 3440.6 478.5" fill="none" stroke="url(#ribbon167)" stroke-width="58.4" stroke-linecap="round" stroke-opacity="0.120" /></g><g transform="rotate(-18.05 1536.0 1536.0)"><path d="M-368.6 696.4 C -241.7 748.5, -63.9 668.7, 54.6 758.7 C 181.6 769.4, 359.4 675.8, 477.9 737.3 C 604.8 733.1, 782.6 669.4, 901.1 691.2 C 1028.1 691.1, 1205.9 702.2, 1324.4 648.2 C 1451.3 631.5, 1629.1 738.2, 1747.6 634.5 C 1874.6 620.8, 2052.4 734.2, 2170.9 658.3 C 2297.9 664.7, 2475.6 710.7, 2594.1 705.3 C 2721.1 703.7, 2898.9 693.2, 3017.4 746.9 C 3144.4 743.8, 3322.1 654.3, 3440.6 757.9" fill="none" stroke="url(#ribbon167)" stroke-width="54.4" stroke-linecap="round" stroke-opacity="0.146" /></g><g transform="rotate(-17.47 1536.0 1536.0)"><path d="M-368.6 851.9 C -254.4 799.7, -94.4 886.7, 12.3 783.6 C 126.6 785.4, 286.6 933.7, 393.2 795.5 C 507.5 799.0, 667.5 904.7, 774.1 841.6 C 888.4 837.7, 1048.4 862.2, 1155.1 894.0 C 1269.4 877.9, 1429.3 833.5, 1536.0 920.9 C 1650.3 944.7, 1810.3 798.8, 1916.9 905.9 C 2031.2 904.8, 2191.2 831.7, 2297.9 858.2 C 2412.1 855.9, 2572.1 848.9, 2678.8 806.7 C 2793.1 800.7, 2953.1 879.4, 3059.7 782.6 C 3174.0 770.8, 3334.0 877.7, 3440.6 800.6" fill="none" stroke="url(#ribbon167)" stroke-width="50.4" stroke-linecap="round" stroke-opacity="0.172" /></g><g transform="rotate(-16.89 1536.0 1536.0)"><path d="M-368.6 1104.4 C -264.8 1176.6, -119.3 1045.2, -22.3 1114.5 C 81.5 1114.7, 227.0 1100.7, 324.0 1057.1 C 427.8 1058.4, 573.3 1143.8, 670.3 1028.3 C 774.1 1023.6, 919.6 1182.8, 1016.6 1045.7 C 1120.4 1038.8, 1265.9 1168.9, 1362.9 1098.7 C 1466.7 1098.5, 1612.2 1110.3, 1709.1 1155.2 C 1813.0 1170.9, 1958.5 1080.7, 2055.4 1180.8 C 2159.3 1155.0, 2304.8 1019.0, 2401.7 1160.1 C 2505.6 1178.7, 2651.1 1055.7, 2748.0 1105.6 C 2851.9 1105.4, 2997.4 1103.5, 3094.3 1050.4 C 3198.2 1062.0, 3343.7 1155.6, 3440.6 1027.9" fill="none" stroke="url(#ribbon167)" stroke-width="46.4" stroke-linecap="round" stroke-opacity="0.198" /></g><g transform="rotate(-16.31 1536.0 1536.0)"><path d="M-368.6 1311.1 C -273.4 1324.5, -140.1 1304.3, -51.2 1381.0 C 44.0 1394.8, 177.4 1232.5, 266.2 1392.6 C 361.5 1415.9, 494.8 1277.9, 583.7 1354.8 C 678.9 1351.6, 812.2 1273.9, 901.1 1290.5 C 996.4 1288.2, 1129.7 1321.5, 1218.6 1238.7 C 1313.8 1223.4, 1447.1 1387.4, 1536.0 1230.8 C 1631.2 1207.0, 1764.6 1373.3, 1853.4 1271.6 C 1948.7 1281.5, 2082.0 1342.2, 2170.9 1336.4 C 2266.1 1330.2, 2399.4 1287.9, 2488.3 1385.8 C 2583.6 1360.4, 2716.9 1273.6, 2805.8 1390.0 C 2901.0 1409.0, 3034.3 1268.7, 3123.2 1346.2 C 3218.4 1353.8, 3351.8 1271.9, 3440.6 1281.2" fill="none" stroke="url(#ribbon167)" stroke-width="42.4" stroke-linecap="round" stroke-opacity="0.224" /></g><g transform="rotate(-15.73 1536.0 1536.0)"><path d="M-368.6 1448.4 C -225.8 1510.7, -25.8 1425.9, 107.5 1428.5 C 250.4 1430.6, 450.4 1465.3, 583.7 1371.1 C 726.5 1394.8, 926.5 1472.3, 1059.8 1360.6 C 1202.7 1381.7, 1402.7 1498.6, 1536.0 1403.3 C 1678.8 1397.6, 1878.8 1477.6, 2012.2 1473.4 C 2155.0 1469.0, 2355.0 1432.2, 2488.3 1528.3 C 2631.2 1558.6, 2831.2 1370.1, 2964.5 1534.7 C 3107.3 1501.0, 3307.3 1418.8, 3440.6 1488.8" fill="none" stroke="url(#ribbon167)" stroke-width="38.4" stroke-linecap="round" stroke-opacity="0.250" /></g><g transform="rotate(-15.15 1536.0 1536.0)"><path d="M-368.6 1676.7 C -241.7 1661.4, -63.9 1690.4, 54.6 1729.8 C 181.6 1711.9, 359.4 1647.4, 477.9 1772.5 C 604.8 1735.4, 782.6 1592.3, 901.1 1757.1 C 1028.1 1754.6, 1205.9 1620.9, 1324.4 1692.9 C 1451.3 1690.2, 1629.1 1665.1, 1747.6 1618.9 C 1874.6 1599.0, 2052.4 1743.9, 2170.9 1579.9 C 2297.9 1614.1, 2475.6 1774.7, 2594.1 1599.6 C 2721.1 1616.7, 2898.9 1712.2, 3017.4 1666.1 C 3144.4 1661.9, 3322.1 1687.4, 3440.6 1739.0" fill="none" stroke="url(#ribbon167)" stroke-width="34.4" stroke-linecap="round" stroke-opacity="0.276" /></g><g transform="rotate(-14.57 1536.0 1536.0)"><path d="M-368.6 1830.0 C -254.4 1757.9, -94.4 1863.4, 12.3 1732.1 C 126.6 1705.9, 286.6 1867.6, 393.2 1788.6 C 507.5 1794.4, 667.5 1859.9, 774.1 1870.2 C 888.4 1861.0, 1048.4 1801.3, 1155.1 1927.4 C 1269.4 1931.9, 1429.3 1723.7, 1536.0 1925.5 C 1650.3 1957.7, 1810.3 1747.6, 1916.9 1865.7 C 2031.2 1862.3, 2191.2 1809.6, 2297.9 1784.3 C 2412.1 1794.2, 2572.1 1858.0, 2678.8 1730.5 C 2793.1 1752.5, 2953.1 1893.4, 3059.7 1737.2 C 3174.0 1766.8, 3334.0 1864.8, 3440.6 1800.1" fill="none" stroke="url(#ribbon167)" stroke-width="30.4" stroke-linecap="round" stroke-opacity="0.302" /></g><g transform="rotate(-13.99 1536.0 1536.0)"><path d="M-368.6 2064.0 C -264.8 2184.4, -119.3 1966.4, -22.3 2157.4 C 81.5 2136.6, 227.0 1956.0, 324.0 2084.9 C 427.8 2077.4, 573.3 2052.6, 670.3 1999.8 C 774.1 2011.7, 919.6 2115.1, 1016.6 1953.6 C 1120.4 1917.0, 1265.9 2149.3, 1362.9 1974.4 C 1466.7 1970.7, 1612.2 2151.1, 1709.1 2049.5 C 1813.0 2054.1, 1958.5 2074.2, 2055.4 2133.4 C 2159.3 2124.6, 2304.8 2034.0, 2401.7 2175.2 C 2505.6 2198.9, 2651.1 1957.5, 2748.0 2149.6 C 2851.9 2134.3, 2997.4 1971.7, 3094.3 2072.0 C 3198.2 2071.5, 3343.7 2057.5, 3440.6 1989.6" fill="none" stroke="url(#ribbon167)" stroke-width="26.4" stroke-linecap="round" stroke-opacity="0.328" /></g><g transform="rotate(-13.41 1536.0 1536.0)"><path d="M-368.6 2240.5 C -273.4 2382.2, -140.1 2110.2, -51.2 2331.5 C 44.0 2345.4, 177.4 2177.1, 266.2 2249.0 C 361.5 2250.8, 494.8 2231.4, 583.7 2161.4 C 678.9 2168.7, 812.2 2275.5, 901.1 2121.7 C 996.4 2114.8, 1129.7 2375.2, 1218.6 2154.2 C 1313.8 2152.1, 1447.1 2305.6, 1536.0 2239.0 C 1631.2 2238.7, 1764.6 2242.0, 1853.4 2324.7 C 1948.7 2349.5, 2082.0 2147.2, 2170.9 2359.4 C 2266.1 2401.0, 2399.4 2113.2, 2488.3 2322.0 C 2583.6 2306.5, 2716.9 2167.6, 2805.8 2235.1 C 2901.0 2234.4, 3034.3 2246.7, 3123.2 2151.6 C 3218.4 2137.3, 3351.8 2299.9, 3440.6 2122.0" fill="none" stroke="url(#ribbon167)" stroke-width="22.4" stroke-linecap="round" stroke-opacity="0.354" /></g><g transform="rotate(-12.83 1536.0 1536.0)"><path d="M-368.6 2508.1 C -225.8 2437.6, -25.8 2570.4, 107.5 2528.8 C 250.4 2521.9, 450.4 2499.6, 583.7 2611.6 C 726.5 2578.2, 926.5 2405.8, 1059.8 2631.7 C 1202.7 2670.1, 1402.7 2372.1, 1536.0 2576.8 C 1678.8 2552.5, 1878.8 2465.3, 2012.2 2480.2 C 2155.0 2477.6, 2355.0 2530.8, 2488.3 2400.5 C 2631.2 2423.7, 2831.2 2553.0, 2964.5 2386.1 C 3107.3 2423.5, 3307.3 2545.3, 3440.6 2445.7" fill="none" stroke="url(#ribbon167)" stroke-width="18.4" stroke-linecap="round" stroke-opacity="0.380" /></g><g transform="rotate(-12.25 1536.0 1536.0)"><path d="M-368.6 2605.5 C -241.7 2592.6, -63.9 2613.9, 54.6 2502.1 C 181.6 2461.7, 359.4 2686.0, 477.9 2473.4 C 604.8 2445.5, 782.6 2742.2, 901.1 2524.8 C 1028.1 2550.2, 1205.9 2632.9, 1324.4 2625.2 C 1451.3 2619.8, 1629.1 2596.6, 1747.6 2713.6 C 1874.6 2738.4, 2052.4 2529.7, 2170.9 2736.4 C 2297.9 2743.7, 2475.6 2492.3, 2594.1 2679.8 C 2721.1 2682.5, 2898.9 2575.8, 3017.4 2578.1 C 3144.4 2569.0, 3322.1 2618.3, 3440.6 2493.0" fill="none" stroke="url(#ribbon167)" stroke-width="14.4" stroke-linecap="round" stroke-opacity="0.406" /></g></g>
  <g><ellipse cx="1536.0" cy="1551.9" rx="728.6" ry="605.7" fill="url(#extrude167)" opacity="0.220" /><ellipse cx="1536.0" cy="1567.7" rx="736.0" ry="610.9" fill="url(#extrude167)" opacity="0.205" /><ellipse cx="1536.0" cy="1583.6" rx="743.4" ry="616.1" fill="url(#extrude167)" opacity="0.190" /><ellipse cx="1536.0" cy="1599.5" rx="750.9" ry="621.3" fill="url(#extrude167)" opacity="0.175" /><ellipse cx="1536.0" cy="1615.4" rx="758.3" ry="626.5" fill="url(#extrude167)" opacity="0.160" /><ellipse cx="1536.0" cy="1631.2" rx="765.7" ry="631.7" fill="url(#extrude167)" opacity="0.145" /><ellipse cx="1536.0" cy="1647.1" rx="773.2" ry="636.9" fill="url(#extrude167)" opacity="0.130" /><ellipse cx="1536.0" cy="1663.0" rx="780.6" ry="642.1" fill="url(#extrude167)" opacity="0.115" /><ellipse cx="1536.0" cy="1678.8" rx="788.0" ry="647.4" fill="url(#extrude167)" opacity="0.100" /><ellipse cx="1536.0" cy="1694.7" rx="795.5" ry="652.6" fill="url(#extrude167)" opacity="0.085" /><ellipse cx="1536.0" cy="1710.6" rx="802.9" ry="657.8" fill="url(#extrude167)" opacity="0.070" /><ellipse cx="1536.0" cy="1726.5" rx="810.3" ry="663.0" fill="url(#extrude167)" opacity="0.055" /></g>
  <ellipse cx="1536.0" cy="1726.5" rx="773.2" ry="214.9" fill="#0B1D2D" opacity="0.24" />
  <ellipse cx="1536.0" cy="1536.0" rx="743.4" ry="651.3" fill="url(#orb167)" stroke="#FFFFFF" stroke-opacity="0.42" stroke-width="7" />
  <ellipse cx="1431.9" cy="1392.7" rx="505.5" ry="299.6" fill="#FFFFFF" opacity="0.25" />
  <path d="M 199.4 399.4 C 1013.8 -30.7, 2058.2 768.0, 2872.6 215.0 L 2872.6 983.0 C 2089.0 1228.8, 1013.8 307.2, 199.4 1167.4 Z" fill="url(#glass167)" />
  <rect x="270" y="270" width="2532" height="2532" rx="430" fill="none" stroke="#FFFFFF" stroke-opacity="0.30" stroke-width="5" />
  <rect x="288.4" y="288.4" width="2495.1" height="2495.1" rx="399" fill="none" stroke="#53E3A6" stroke-opacity="0.35" stroke-width="3" />
  <g filter="url(#soft167)"><rect x="1416" y="739" width="26" height="2" fill="#FFFFFF" opacity="0.381" /><rect x="1428" y="727" width="2" height="26" fill="#FFFFFF" opacity="0.381" /><rect x="2137" y="1758" width="36" height="2" fill="#FFFFFF" opacity="0.334" /><rect x="2154" y="1741" width="2" height="36" fill="#FFFFFF" opacity="0.334" /><rect x="606" y="684" width="38" height="2" fill="#FFFFFF" opacity="0.560" /><rect x="624" y="666" width="2" height="38" fill="#FFFFFF" opacity="0.560" /><rect x="1344" y="1518" width="76" height="2" fill="#FFFFFF" opacity="0.762" /><rect x="1381" y="1481" width="2" height="76" fill="#FFFFFF" opacity="0.762" /><rect x="1145" y="2407" width="30" height="2" fill="#FFFFFF" opacity="0.506" /><rect x="1159" y="2393" width="2" height="30" fill="#FFFFFF" opacity="0.506" /><rect x="1850" y="482" width="58" height="2" fill="#FFFFFF" opacity="0.717" /><rect x="1878" y="454" width="2" height="58" fill="#FFFFFF" opacity="0.717" /><rect x="290" y="1887" width="42" height="2" fill="#FFFFFF" opacity="0.796" /><rect x="310" y="1867" width="2" height="42" fill="#FFFFFF" opacity="0.796" /><rect x="1315" y="2545" width="74" height="2" fill="#FFFFFF" opacity="0.439" /><rect x="1351" y="2509" width="2" height="74" fill="#FFFFFF" opacity="0.439" /><rect x="1711" y="1599" width="70" height="2" fill="#FFFFFF" opacity="0.464" /><rect x="1745" y="1565" width="2" height="70" fill="#FFFFFF" opacity="0.464" /><rect x="2517" y="1730" width="52" height="2" fill="#FFFFFF" opacity="0.451" /><rect x="2542" y="1705" width="2" height="52" fill="#FFFFFF" opacity="0.451" /><rect x="859" y="1597" width="60" height="2" fill="#FFFFFF" opacity="0.427" /><rect x="888" y="1568" width="2" height="60" fill="#FFFFFF" opacity="0.427" /><rect x="533" y="1382" width="60" height="2" fill="#FFFFFF" opacity="0.815" /><rect x="562" y="1353" width="2" height="60" fill="#FFFFFF" opacity="0.815" /><rect x="629" y="2729" width="74" height="2" fill="#FFFFFF" opacity="0.481" /><rect x="665" y="2693" width="2" height="74" fill="#FFFFFF" opacity="0.481" /><rect x="587" y="2663" width="38" height="2" fill="#FFFFFF" opacity="0.545" /><rect x="605" y="2645" width="2" height="38" fill="#FFFFFF" opacity="0.545" /><rect x="2199" y="1821" width="42" height="2" fill="#FFFFFF" opacity="0.324" /><rect x="2219" y="1801" width="2" height="42" fill="#FFFFFF" opacity="0.324" /><rect x="524" y="2645" width="62" height="2" fill="#FFFFFF" opacity="0.506" /><rect x="554" y="2615" width="2" height="62" fill="#FFFFFF" opacity="0.506" /><rect x="796" y="1501" width="66" height="2" fill="#FFFFFF" opacity="0.743" /><rect x="828" y="1469" width="2" height="66" fill="#FFFFFF" opacity="0.743" /><rect x="1428" y="2011" width="70" height="2" fill="#FFFFFF" opacity="0.427" /><rect x="1462" y="1977" width="2" height="70" fill="#FFFFFF" opacity="0.427" /><rect x="2092" y="1922" width="52" height="2" fill="#FFFFFF" opacity="0.580" /><rect x="2117" y="1897" width="2" height="52" fill="#FFFFFF" opacity="0.580" /><rect x="508" y="2208" width="74" height="2" fill="#FFFFFF" opacity="0.486" /><rect x="544" y="2172" width="2" height="74" fill="#FFFFFF" opacity="0.486" /><rect x="622" y="2078" width="78" height="2" fill="#FFFFFF" opacity="0.467" /><rect x="660" y="2040" width="2" height="78" fill="#FFFFFF" opacity="0.467" /><rect x="1960" y="2120" width="24" height="2" fill="#FFFFFF" opacity="0.321" /><rect x="1971" y="2109" width="2" height="24" fill="#FFFFFF" opacity="0.321" /><rect x="1523" y="664" width="52" height="2" fill="#FFFFFF" opacity="0.682" /><rect x="1548" y="639" width="2" height="52" fill="#FFFFFF" opacity="0.682" /><rect x="2584" y="1839" width="84" height="2" fill="#FFFFFF" opacity="0.407" /><rect x="2625" y="1798" width="2" height="84" fill="#FFFFFF" opacity="0.407" /><rect x="1788" y="1488" width="64" height="2" fill="#FFFFFF" opacity="0.826" /><rect x="1819" y="1457" width="2" height="64" fill="#FFFFFF" opacity="0.826" /><rect x="650" y="915" width="70" height="2" fill="#FFFFFF" opacity="0.314" /><rect x="684" y="881" width="2" height="70" fill="#FFFFFF" opacity="0.314" /></g>
  <g opacity="0.52"><path d="M996 1006 L2148 1006 L2148 2158 L996 2158 Z" fill="none" stroke="#0C2030" stroke-width="90" /><path d="M996 1582 L2148 1582" stroke="#0C2030" stroke-width="90" /><path d="M1572 1006 L1572 2158" stroke="#0C2030" stroke-width="90" /></g>
  <g filter="url(#soft167)"><path d="M960 960 L2112 960 L2112 2112 L960 2112 Z" fill="none" stroke="url(#symbol167)" stroke-width="90" /><path d="M960 1536 L2112 1536" stroke="url(#symbol167)" stroke-width="90" /><path d="M1536 960 L1536 2112" stroke="url(#symbol167)" stroke-width="90" /></g>
  <rect x="138" y="138" width="2796" height="2796" rx="629" fill="#FFFFFF" filter="url(#grain167)" opacity="0.18" />
</svg>
