<svg xmlns="http://www.w3.org/2000/svg" width="3072" height="3072" viewBox="0 0 3072 3072">
  <title>QuartzOS App Icon 314 - crisp_monitor_314</title>
  <defs><linearGradient id="bg313" x1="0%" y1="0%" x2="100%" y2="100%"><stop offset="0%" stop-color="#FFD84D" /><stop offset="26%" stop-color="#36D1FF" /><stop offset="56%" stop-color="#8A5CFF" /><stop offset="78%" stop-color="#2E8D96" /><stop offset="100%" stop-color="#0F2A2E" /></linearGradient><radialGradient id="sun313" cx="24%" cy="25%" r="88%"><stop offset="0%" stop-color="#FFFFFF" stop-opacity="0.62" /><stop offset="30%" stop-color="#FF6AB3" stop-opacity="0.35" /><stop offset="100%" stop-color="#FF6AB3" stop-opacity="0" /></radialGradient><linearGradient id="glass313" x1="0%" y1="0%" x2="0%" y2="100%"><stop offset="0%" stop-color="#FFFFFF" stop-opacity="0.70" /><stop offset="46%" stop-color="#FFFFFF" stop-opacity="0.26" /><stop offset="100%" stop-color="#FFFFFF" stop-opacity="0.00" /></linearGradient><linearGradient id="ribbon313" x1="0%" y1="0%" x2="100%" y2="0%"><stop offset="0%" stop-color="#FFD84D" stop-opacity="0.18" /><stop offset="34%" stop-color="#36D1FF" stop-opacity="0.72" /><stop offset="66%" stop-color="#8A5CFF" stop-opacity="0.72" /><stop offset="100%" stop-color="#FF6AB3" stop-opacity="0.18" /></linearGradient><radialGradient id="orb313" cx="34%" cy="27%" r="74%"><stop offset="0%" stop-color="#FFFFFF" stop-opacity="0.84" /><stop offset="30%" stop-color="#FFD84D" stop-opacity="0.52" /><stop offset="68%" stop-color="#36D1FF" stop-opacity="0.42" /><stop offset="100%" stop-color="#8A5CFF" stop-opacity="0.20" /></radialGradient><linearGradient id="extrude313" x1="0%" y1="0%" x2="0%" y2="100%"><stop offset="0%" stop-color="#15283C" stop-opacity="0.45" /><stop offset="100%" stop-color="#08131D" stop-opacity="0.06" /></linearGradient><linearGradient id="symbol313" x1="0%" y1="0%" x2="100%" y2="100%"><stop offset="0%" stop-color="#FFFFFF" /><stop offset="100%" stop-color="#FF6AB3" /></linearGradient><filter id="shadow313" x="-40%" y="-40%" width="180%" height="180%"><feDropShadow dx="0" dy="49" stdDeviation="86" flood-color="#06111A" flood-opacity="0.54" /></filter><filter id="soft313" x="-40%" y="-40%" width="180%" height="180%"><feDropShadow dx="0" dy="0" stdDeviation="14" flood-color="#FFD84D" flood-opacity="0.45" /></filter><filter id="grain313"><feTurbulence type="fractalNoise" baseFrequency="1.050" numOctaves="2" seed="313" /><feColorMatrix type="saturate" values="0" /><feComponentTransfer><feFuncA type="table" tableValues="0 0.09" /></feComponentTransfer></filter></defs>
  <rect x="138" y="138" width="2796" height="2796" rx="629" fill="url(#bg313)" filter="url(#shadow313)" />
  <rect x="138" y="138" width="2796" height="2796" rx="629" fill="url(#sun313)" />
  <g><circle cx="2216" cy="859" r="43" fill="#FFFFFF" opacity="0.181" /><circle cx="1586" cy="1864" r="129" fill="#FFFFFF" opacity="0.071" /><circle cx="2318" cy="2157" r="45" fill="#FFFFFF" opacity="0.143" /><circle cx="1889" cy="372" r="65" fill="#FFFFFF" opacity="0.131" /><circle cx="1411" cy="998" r="117" fill="#FFFFFF" opacity="0.223" /><circle cx="1223" cy="1526" r="41" fill="#FFFFFF" opacity="0.132" /><circle cx="894" cy="1512" r="145" fill="#FFFFFF" opacity="0.122" /><circle cx="641" cy="327" r="54" fill="#FFFFFF" opacity="0.187" /><circle cx="1683" cy="1315" r="48" fill="#FFFFFF" opacity="0.077" /><circle cx="1365" cy="2322" r="139" fill="#FFFFFF" opacity="0.217" /><circle cx="439" cy="1097" r="147" fill="#FFFFFF" opacity="0.200" /><circle cx="794" cy="1513" r="142" fill="#FFFFFF" opacity="0.200" /><circle cx="538" cy="2383" r="38" fill="#FFFFFF" opacity="0.101" /><circle cx="915" cy="1555" r="89" fill="#FFFFFF" opacity="0.158" /><circle cx="417" cy="645" r="151" fill="#FFFFFF" opacity="0.228" /><circle cx="1107" cy="1159" r="37" fill="#FFFFFF" opacity="0.238" /><circle cx="1333" cy="2531" r="82" fill="#FFFFFF" opacity="0.070" /><circle cx="1009" cy="1209" r="154" fill="#FFFFFF" opacity="0.191" /><circle cx="1838" cy="2509" r="102" fill="#FFFFFF" opacity="0.240" /><circle cx="1778" cy="2447" r="157" fill="#FFFFFF" opacity="0.192" /><circle cx="2327" cy="389" r="67" fill="#FFFFFF" opacity="0.165" /><circle cx="1082" cy="911" r="76" fill="#FFFFFF" opacity="0.159" /><circle cx="977" cy="2232" r="134" fill="#FFFFFF" opacity="0.191" /><circle cx="494" cy="2687" r="140" fill="#FFFFFF" opacity="0.240" /><circle cx="2084" cy="2228" r="121" fill="#FFFFFF" opacity="0.186" /><circle cx="1931" cy="480" r="149" fill="#FFFFFF" opacity="0.150" /><circle cx="1786" cy="677" r="56" fill="#FFFFFF" opacity="0.240" /><circle cx="2508" cy="648" r="45" fill="#FFFFFF" opacity="0.225" /></g>
  <g><path d="M 171.4 653.8 L 2805.1 377.4 L 2805.1 850.6 L 171.4 1127.0 Z" fill="#FFFFFF" opacity="0.176" /><path d="M 269.7 912.6 L 2922.4 636.1 L 2922.4 1130.5 L 269.7 1407.0 Z" fill="#FFFFFF" opacity="0.178" /><path d="M 247.1 1114.1 L 2923.2 837.7 L 2923.2 1295.4 L 247.1 1571.9 Z" fill="#FFFFFF" opacity="0.140" /><path d="M 392.8 1381.9 L 2705.3 1105.4 L 2705.3 1530.5 L 392.8 1807.0 Z" fill="#FFFFFF" opacity="0.212" /><path d="M 149.8 1663.2 L 2917.2 1386.7 L 2917.2 1879.6 L 149.8 2156.1 Z" fill="#FFFFFF" opacity="0.163" /><path d="M 312.4 1889.3 L 2873.1 1612.9 L 2873.1 2106.5 L 312.4 2383.0 Z" fill="#FFFFFF" opacity="0.234" /><path d="M 235.6 2186.3 L 2826.6 1909.8 L 2826.6 2358.1 L 235.6 2634.6 Z" fill="#FFFFFF" opacity="0.112" /><path d="M 262.6 2480.3 L 2908.9 2203.8 L 2908.9 2637.1 L 262.6 2913.6 Z" fill="#FFFFFF" opacity="0.131" /></g>
  <g filter="url(#soft313)"><g transform="rotate(-9.83 1536.0 1536.0)"><path d="M-368.6 486.6 C -225.8 421.8, -25.8 531.4, 107.5 464.3 C 250.4 469.3, 450.4 498.5, 583.7 507.3 C 726.5 515.1, 926.5 466.2, 1059.8 537.8 C 1202.7 555.1, 1402.7 434.3, 1536.0 537.2 C 1678.8 551.7, 1878.8 463.7, 2012.2 505.9 C 2155.0 506.5, 2355.0 466.5, 2488.3 462.9 C 2631.2 459.0, 2831.2 504.2, 2964.5 434.2 C 3107.3 429.9, 3307.3 533.3, 3440.6 437.3" fill="none" stroke="url(#ribbon313)" stroke-width="58.4" stroke-linecap="round" stroke-opacity="0.120" /></g><g transform="rotate(-9.25 1536.0 1536.0)"><path d="M-368.6 718.2 C -241.7 779.3, -63.9 667.7, 54.6 723.7 C 181.6 723.7, 359.4 715.7, 477.9 677.5 C 604.8 686.5, 782.6 762.8, 901.1 656.0 C 1028.1 668.8, 1205.9 769.8, 1324.4 672.3 C 1451.3 687.6, 1629.1 735.8, 1747.6 716.4 C 1874.6 715.9, 2052.4 719.9, 2170.9 761.7 C 2297.9 770.3, 2475.6 680.1, 2594.1 780.6 C 2721.1 801.1, 2898.9 684.0, 3017.4 761.7 C 3144.4 753.4, 3322.1 701.3, 3440.6 716.4" fill="none" stroke="url(#ribbon313)" stroke-width="54.4" stroke-linecap="round" stroke-opacity="0.146" /></g><g transform="rotate(-8.67 1536.0 1536.0)"><path d="M-368.6 884.7 C -254.4 839.2, -94.4 911.9, 12.3 815.4 C 126.6 795.2, 286.6 913.2, 393.2 840.1 C 507.5 848.2, 667.5 923.7, 774.1 891.9 C 888.4 890.9, 1048.4 880.9, 1155.1 939.2 C 1269.4 944.8, 1429.3 848.0, 1536.0 953.5 C 1650.3 952.6, 1810.3 825.0, 1916.9 926.0 C 2031.2 942.0, 2191.2 864.0, 2297.9 873.5 C 2412.1 876.3, 2572.1 889.3, 2678.8 827.7 C 2793.1 806.1, 2953.1 919.6, 3059.7 816.5 C 3174.0 826.3, 3334.0 963.8, 3440.6 846.7" fill="none" stroke="url(#ribbon313)" stroke-width="50.4" stroke-linecap="round" stroke-opacity="0.172" /></g><g transform="rotate(-8.09 1536.0 1536.0)"><path d="M-368.6 1083.1 C -264.8 1172.2, -119.3 1025.1, -22.3 1104.4 C 81.5 1111.1, 227.0 1064.0, 324.0 1045.2 C 427.8 1035.7, 573.3 1097.6, 670.3 1009.0 C 774.1 1008.9, 919.6 1136.3, 1016.6 1017.7 C 1120.4 1039.1, 1265.9 1122.5, 1362.9 1066.1 C 1466.7 1066.3, 1612.2 1089.4, 1709.1 1124.7 C 1813.0 1126.6, 1958.5 1058.0, 2055.4 1158.1 C 2159.3 1133.4, 2304.8 1058.0, 2401.7 1146.0 C 2505.6 1133.6, 2651.1 1061.4, 2748.0 1095.7 C 2851.9 1099.9, 2997.4 1068.6, 3094.3 1037.8 C 3198.2 1051.8, 3343.7 1099.8, 3440.6 1007.3" fill="none" stroke="url(#ribbon313)" stroke-width="46.4" stroke-linecap="round" stroke-opacity="0.198" /></g><g transform="rotate(-7.51 1536.0 1536.0)"><path d="M-368.6 1288.7 C -273.4 1305.4, -140.1 1271.8, -51.2 1358.4 C 44.0 1330.7, 177.4 1230.9, 266.2 1370.4 C 361.5 1365.8, 494.8 1197.3, 583.7 1332.9 C 678.9 1349.4, 812.2 1255.8, 901.1 1268.6 C 996.4 1268.3, 1129.7 1310.3, 1218.6 1216.5 C 1313.8 1196.9, 1447.1 1340.8, 1536.0 1208.3 C 1631.2 1190.2, 1764.6 1316.4, 1853.4 1248.8 C 1948.7 1246.2, 2082.0 1331.9, 2170.9 1313.6 C 2266.1 1313.7, 2399.4 1266.7, 2488.3 1363.3 C 2583.6 1361.5, 2716.9 1258.3, 2805.8 1367.7 C 2901.0 1354.0, 3034.3 1261.8, 3123.2 1324.3 C 3218.4 1313.8, 3351.8 1275.5, 3440.6 1259.3" fill="none" stroke="url(#ribbon313)" stroke-width="42.4" stroke-linecap="round" stroke-opacity="0.224" /></g><g transform="rotate(-6.93 1536.0 1536.0)"><path d="M-368.6 1525.5 C -225.8 1425.9, -25.8 1627.1, 107.5 1478.5 C 250.4 1460.5, 450.4 1575.1, 583.7 1548.4 C 726.5 1556.8, 926.5 1508.5, 1059.8 1604.4 C 1202.7 1596.3, 1402.7 1497.7, 1536.0 1612.5 C 1678.8 1626.4, 1878.8 1437.5, 2012.2 1567.9 C 2155.0 1567.6, 2355.0 1508.5, 2488.3 1497.6 C 2631.2 1497.7, 2831.2 1550.0, 2964.5 1444.2 C 3107.3 1428.5, 3307.3 1571.7, 3440.6 1440.2" fill="none" stroke="url(#ribbon313)" stroke-width="38.4" stroke-linecap="round" stroke-opacity="0.250" /></g><g transform="rotate(-6.35 1536.0 1536.0)"><path d="M-368.6 1656.5 C -241.7 1712.8, -63.9 1570.8, 54.6 1662.4 C 181.6 1664.3, 359.4 1650.6, 477.9 1590.7 C 604.8 1611.9, 782.6 1702.0, 901.1 1558.9 C 1028.1 1563.3, 1205.9 1723.1, 1324.4 1586.3 C 1451.3 1612.4, 1629.1 1730.0, 1747.6 1656.4 C 1874.6 1656.3, 2052.4 1656.6, 2170.9 1726.5 C 2297.9 1707.1, 2475.6 1579.3, 2594.1 1754.2 C 2721.1 1759.8, 2898.9 1554.6, 3017.4 1722.7 C 3144.4 1738.7, 3322.1 1583.9, 3440.6 1651.0" fill="none" stroke="url(#ribbon313)" stroke-width="34.4" stroke-linecap="round" stroke-opacity="0.276" /></g><g transform="rotate(-5.77 1536.0 1536.0)"><path d="M-368.6 1827.3 C -254.4 1730.7, -94.4 1881.7, 12.3 1786.8 C 126.6 1788.1, 286.6 1852.2, 393.2 1868.4 C 507.5 1854.0, 667.5 1794.6, 774.1 1925.0 C 888.4 1942.1, 1048.4 1775.5, 1155.1 1922.4 C 1269.4 1921.3, 1429.3 1762.6, 1536.0 1862.1 C 1650.3 1860.4, 1810.3 1805.7, 1916.9 1780.7 C 2031.2 1776.7, 2191.2 1859.7, 2297.9 1727.5 C 2412.1 1716.0, 2572.1 1914.1, 2678.8 1734.9 C 2793.1 1712.3, 2953.1 1907.4, 3059.7 1798.3 C 3174.0 1796.8, 3334.0 1842.1, 3440.6 1879.3" fill="none" stroke="url(#ribbon313)" stroke-width="30.4" stroke-linecap="round" stroke-opacity="0.302" /></g><g transform="rotate(-5.19 1536.0 1536.0)"><path d="M-368.6 2064.2 C -264.8 1987.9, -119.3 2118.2, -22.3 1954.4 C 81.5 1959.3, 227.0 2136.0, 324.0 1972.5 C 427.8 1944.9, 573.3 2149.4, 670.3 2046.2 C 774.1 2047.1, 919.6 2069.9, 1016.6 2130.8 C 1120.4 2111.8, 1265.9 2036.5, 1362.9 2175.0 C 1466.7 2160.8, 1612.2 2001.1, 1709.1 2152.0 C 1813.0 2166.2, 1958.5 1969.4, 2055.4 2075.8 C 2159.3 2074.4, 2304.8 2055.1, 2401.7 1992.5 C 2505.6 1981.5, 2651.1 2104.9, 2748.0 1952.7 C 2851.9 1948.9, 2997.4 2127.0, 3094.3 1980.5 C 3198.2 2011.2, 3343.7 2100.8, 3440.6 2059.1" fill="none" stroke="url(#ribbon313)" stroke-width="26.4" stroke-linecap="round" stroke-opacity="0.328" /></g><g transform="rotate(-4.61 1536.0 1536.0)"><path d="M-368.6 2285.5 C -273.4 2255.3, -140.1 2311.3, -51.2 2351.1 C 44.0 2375.4, 177.4 2250.8, 266.2 2402.4 C 361.5 2356.0, 494.8 2145.8, 583.7 2382.7 C 678.9 2405.5, 812.2 2207.0, 901.1 2304.1 C 996.4 2297.5, 1129.7 2270.4, 1218.6 2214.3 C 1313.8 2205.2, 1447.1 2363.8, 1536.0 2167.6 C 1631.2 2185.5, 1764.6 2360.3, 1853.4 2192.5 C 1948.7 2165.4, 2082.0 2385.3, 2170.9 2273.8 C 2266.1 2276.8, 2399.4 2294.9, 2488.3 2362.2 C 2583.6 2374.7, 2716.9 2200.1, 2805.8 2404.1 C 2901.0 2438.0, 3034.3 2235.6, 3123.2 2374.1 C 3218.4 2352.8, 3351.8 2201.0, 3440.6 2290.3" fill="none" stroke="url(#ribbon313)" stroke-width="22.4" stroke-linecap="round" stroke-opacity="0.354" /></g><g transform="rotate(-4.03 1536.0 1536.0)"><path d="M-368.6 2486.9 C -225.8 2604.7, -25.8 2400.7, 107.5 2608.3 C 250.4 2592.8, 450.4 2431.6, 583.7 2547.3 C 726.5 2533.8, 926.5 2424.0, 1059.8 2449.7 C 1202.7 2438.0, 1402.7 2518.0, 1536.0 2374.6 C 1678.8 2393.0, 1878.8 2561.7, 2012.2 2367.7 C 2155.0 2324.4, 2355.0 2561.9, 2488.3 2433.1 C 2631.2 2412.4, 2831.2 2517.8, 2964.5 2531.1 C 3107.3 2540.6, 3307.3 2436.2, 3440.6 2602.3" fill="none" stroke="url(#ribbon313)" stroke-width="18.4" stroke-linecap="round" stroke-opacity="0.380" /></g><g transform="rotate(-3.45 1536.0 1536.0)"><path d="M-368.6 2673.4 C -241.7 2642.7, -63.9 2700.5, 54.6 2552.9 C 181.6 2578.6, 359.4 2802.8, 477.9 2549.0 C 604.8 2595.4, 782.6 2727.0, 901.1 2620.5 C 1028.1 2609.9, 1205.9 2736.3, 1324.4 2724.1 C 1451.3 2718.9, 1629.1 2650.8, 1747.6 2796.9 C 1874.6 2756.1, 2052.4 2626.8, 2170.9 2794.8 C 2297.9 2790.2, 2475.6 2558.2, 2594.1 2719.1 C 2721.1 2709.9, 2898.9 2643.0, 3017.4 2615.6 C 3144.4 2634.1, 3322.1 2718.3, 3440.6 2547.2" fill="none" stroke="url(#ribbon313)" stroke-width="14.4" stroke-linecap="round" stroke-opacity="0.406" /></g></g>
  <g><ellipse cx="1536.0" cy="1551.9" rx="728.6" ry="605.7" fill="url(#extrude313)" opacity="0.220" /><ellipse cx="1536.0" cy="1567.7" rx="736.0" ry="610.9" fill="url(#extrude313)" opacity="0.205" /><ellipse cx="1536.0" cy="1583.6" rx="743.4" ry="616.1" fill="url(#extrude313)" opacity="0.190" /><ellipse cx="1536.0" cy="1599.5" rx="750.9" ry="621.3" fill="url(#extrude313)" opacity="0.175" /><ellipse cx="1536.0" cy="1615.4" rx="758.3" ry="626.5" fill="url(#extrude313)" opacity="0.160" /><ellipse cx="1536.0" cy="1631.2" rx="765.7" ry="631.7" fill="url(#extrude313)" opacity="0.145" /><ellipse cx="1536.0" cy="1647.1" rx="773.2" ry="636.9" fill="url(#extrude313)" opacity="0.130" /><ellipse cx="1536.0" cy="1663.0" rx="780.6" ry="642.1" fill="url(#extrude313)" opacity="0.115" /><ellipse cx="1536.0" cy="1678.8" rx="788.0" ry="647.4" fill="url(#extrude313)" opacity="0.100" /><ellipse cx="1536.0" cy="1694.7" rx="795.5" ry="652.6" fill="url(#extrude313)" opacity="0.085" /><ellipse cx="1536.0" cy="1710.6" rx="802.9" ry="657.8" fill="url(#extrude313)" opacity="0.070" /><ellipse cx="1536.0" cy="1726.5" rx="810.3" ry="663.0" fill="url(#extrude313)" opacity="0.055" /></g>
  <ellipse cx="1536.0" cy="1726.5" rx="773.2" ry="214.9" fill="#0B1D2D" opacity="0.24" />
  <ellipse cx="1536.0" cy="1536.0" rx="743.4" ry="651.3" fill="url(#orb313)" stroke="#FFFFFF" stroke-opacity="0.42" stroke-width="7" />
  <ellipse cx="1431.9" cy="1392.7" rx="505.5" ry="299.6" fill="#FFFFFF" opacity="0.25" />
  <path d="M 199.4 399.4 C 1013.8 -30.7, 2058.2 768.0, 2872.6 215.0 L 2872.6 983.0 C 2089.0 1228.8, 1013.8 307.2, 199.4 1167.4 Z" fill="url(#glass313)" />
  <rect x="270" y="270" width="2532" height="2532" rx="430" fill="none" stroke="#FFFFFF" stroke-opacity="0.30" stroke-width="5" />
  <rect x="288.4" y="288.4" width="2495.1" height="2495.1" rx="399" fill="none" stroke="#FFD84D" stroke-opacity="0.35" stroke-width="3" />
  <g filter="url(#soft313)"><rect x="791" y="582" width="58" height="2" fill="#FFFFFF" opacity="0.475" /><rect x="819" y="554" width="2" height="58" fill="#FFFFFF" opacity="0.475" /><rect x="2582" y="895" width="62" height="2" fill="#FFFFFF" opacity="0.408" /><rect x="2612" y="865" width="2" height="62" fill="#FFFFFF" opacity="0.408" /><rect x="1714" y="2006" width="50" height="2" fill="#FFFFFF" opacity="0.354" /><rect x="1738" y="1982" width="2" height="50" fill="#FFFFFF" opacity="0.354" /><rect x="1006" y="613" width="30" height="2" fill="#FFFFFF" opacity="0.787" /><rect x="1020" y="599" width="2" height="30" fill="#FFFFFF" opacity="0.787" /><rect x="2351" y="1017" width="42" height="2" fill="#FFFFFF" opacity="0.799" /><rect x="2371" y="997" width="2" height="42" fill="#FFFFFF" opacity="0.799" /><rect x="371" y="1542" width="68" height="2" fill="#FFFFFF" opacity="0.385" /><rect x="404" y="1509" width="2" height="68" fill="#FFFFFF" opacity="0.385" /><rect x="630" y="2552" width="66" height="2" fill="#FFFFFF" opacity="0.448" /><rect x="662" y="2520" width="2" height="66" fill="#FFFFFF" opacity="0.448" /><rect x="2657" y="1913" width="60" height="2" fill="#FFFFFF" opacity="0.325" /><rect x="2686" y="1884" width="2" height="60" fill="#FFFFFF" opacity="0.325" /><rect x="2101" y="2358" width="24" height="2" fill="#FFFFFF" opacity="0.411" /><rect x="2112" y="2347" width="2" height="24" fill="#FFFFFF" opacity="0.411" /><rect x="1117" y="404" width="38" height="2" fill="#FFFFFF" opacity="0.600" /><rect x="1135" y="386" width="2" height="38" fill="#FFFFFF" opacity="0.600" /><rect x="2159" y="2677" width="68" height="2" fill="#FFFFFF" opacity="0.754" /><rect x="2192" y="2644" width="2" height="68" fill="#FFFFFF" opacity="0.754" /><rect x="612" y="252" width="58" height="2" fill="#FFFFFF" opacity="0.776" /><rect x="640" y="224" width="2" height="58" fill="#FFFFFF" opacity="0.776" /><rect x="380" y="1018" width="46" height="2" fill="#FFFFFF" opacity="0.742" /><rect x="402" y="996" width="2" height="46" fill="#FFFFFF" opacity="0.742" /><rect x="1594" y="1567" width="46" height="2" fill="#FFFFFF" opacity="0.587" /><rect x="1616" y="1545" width="2" height="46" fill="#FFFFFF" opacity="0.587" /><rect x="594" y="2381" width="58" height="2" fill="#FFFFFF" opacity="0.618" /><rect x="622" y="2353" width="2" height="58" fill="#FFFFFF" opacity="0.618" /><rect x="412" y="1984" width="62" height="2" fill="#FFFFFF" opacity="0.433" /><rect x="442" y="1954" width="2" height="62" fill="#FFFFFF" opacity="0.433" /><rect x="2804" y="2042" width="36" height="2" fill="#FFFFFF" opacity="0.539" /><rect x="2821" y="2025" width="2" height="36" fill="#FFFFFF" opacity="0.539" /><rect x="1353" y="627" width="84" height="2" fill="#FFFFFF" opacity="0.673" /><rect x="1394" y="586" width="2" height="84" fill="#FFFFFF" opacity="0.673" /><rect x="1173" y="1873" width="68" height="2" fill="#FFFFFF" opacity="0.500" /><rect x="1206" y="1840" width="2" height="68" fill="#FFFFFF" opacity="0.500" /><rect x="2263" y="332" width="38" height="2" fill="#FFFFFF" opacity="0.810" /><rect x="2281" y="314" width="2" height="38" fill="#FFFFFF" opacity="0.810" /><rect x="1409" y="2260" width="46" height="2" fill="#FFFFFF" opacity="0.713" /><rect x="1431" y="2238" width="2" height="46" fill="#FFFFFF" opacity="0.713" /><rect x="1618" y="593" width="72" height="2" fill="#FFFFFF" opacity="0.782" /><rect x="1653" y="558" width="2" height="72" fill="#FFFFFF" opacity="0.782" /><rect x="1404" y="2359" width="52" height="2" fill="#FFFFFF" opacity="0.774" /><rect x="1429" y="2334" width="2" height="52" fill="#FFFFFF" opacity="0.774" /><rect x="2364" y="1359" width="54" height="2" fill="#FFFFFF" opacity="0.490" /><rect x="2390" y="1333" width="2" height="54" fill="#FFFFFF" opacity="0.490" /><rect x="1342" y="1152" width="80" height="2" fill="#FFFFFF" opacity="0.386" /><rect x="1381" y="1113" width="2" height="80" fill="#FFFFFF" opacity="0.386" /><rect x="1574" y="2595" width="36" height="2" fill="#FFFFFF" opacity="0.330" /><rect x="1591" y="2578" width="2" height="36" fill="#FFFFFF" opacity="0.330" /></g>
  <g opacity="0.52"><rect x="1023" y="1070" width="768" height="768" rx="128" fill="none" stroke="#0C2030" stroke-width="90" /><path d="M1023 1582 L1572 1363 L2121 1582 L1572 2094 Z" fill="none" stroke="#0C2030" stroke-width="90" stroke-linejoin="round" /></g>
  <g filter="url(#soft313)"><rect x="987" y="1024" width="768" height="768" rx="128" fill="none" stroke="url(#symbol313)" stroke-width="90" /><path d="M987 1536 L1536 1317 L2085 1536 L1536 2048 Z" fill="none" stroke="url(#symbol313)" stroke-width="90" stroke-linejoin="round" /></g>
  <rect x="138" y="138" width="2796" height="2796" rx="629" fill="#FFFFFF" filter="url(#grain313)" opacity="0.18" />
</svg>
