<svg xmlns="http://www.w3.org/2000/svg" width="3072" height="3072" viewBox="0 0 3072 3072">
  <title>QuartzOS App Icon 234 - crisp_calendar_234</title>
  <defs><linearGradient id="bg233" x1="0%" y1="0%" x2="100%" y2="100%"><stop offset="0%" stop-color="#8A5CFF" /><stop offset="26%" stop-color="#FF9F43" /><stop offset="56%" stop-color="#53E3A6" /><stop offset="78%" stop-color="#B37A46" /><stop offset="100%" stop-color="#27201B" /></linearGradient><radialGradient id="sun233" cx="27%" cy="21%" r="88%"><stop offset="0%" stop-color="#FFFFFF" stop-opacity="0.62" /><stop offset="30%" stop-color="#36D1FF" stop-opacity="0.35" /><stop offset="100%" stop-color="#36D1FF" stop-opacity="0" /></radialGradient><linearGradient id="glass233" x1="0%" y1="0%" x2="0%" y2="100%"><stop offset="0%" stop-color="#FFFFFF" stop-opacity="0.70" /><stop offset="46%" stop-color="#FFFFFF" stop-opacity="0.26" /><stop offset="100%" stop-color="#FFFFFF" stop-opacity="0.00" /></linearGradient><linearGradient id="ribbon233" x1="0%" y1="0%" x2="100%" y2="0%"><stop offset="0%" stop-color="#8A5CFF" stop-opacity="0.18" /><stop offset="34%" stop-color="#FF9F43" stop-opacity="0.72" /><stop offset="66%" stop-color="#53E3A6" stop-opacity="0.72" /><stop offset="100%" stop-color="#36D1FF" stop-opacity="0.18" /></linearGradient><radialGradient id="orb233" cx="34%" cy="27%" r="74%"><stop offset="0%" stop-color="#FFFFFF" stop-opacity="0.84" /><stop offset="30%" stop-color="#8A5CFF" stop-opacity="0.52" /><stop offset="68%" stop-color="#FF9F43" stop-opacity="0.42" /><stop offset="100%" stop-color="#53E3A6" stop-opacity="0.20" /></radialGradient><linearGradient id="extrude233" x1="0%" y1="0%" x2="0%" y2="100%"><stop offset="0%" stop-color="#15283C" stop-opacity="0.45" /><stop offset="100%" stop-color="#08131D" stop-opacity="0.06" /></linearGradient><linearGradient id="symbol233" x1="0%" y1="0%" x2="100%" y2="100%"><stop offset="0%" stop-color="#FFFFFF" /><stop offset="100%" stop-color="#36D1FF" /></linearGradient><filter id="shadow233" x="-40%" y="-40%" width="180%" height="180%"><feDropShadow dx="0" dy="49" stdDeviation="86" flood-color="#06111A" flood-opacity="0.54" /></filter><filter id="soft233" x="-40%" y="-40%" width="180%" height="180%"><feDropShadow dx="0" dy="0" stdDeviation="14" flood-color="#8A5CFF" flood-opacity="0.45" /></filter><filter id="grain233"><feTurbulence type="fractalNoise" baseFrequency="0.783" numOctaves="2" seed="233" /><feColorMatrix type="saturate" values="0" /><feComponentTransfer><feFuncA type="table" tableValues="0 0.09" /></feComponentTransfer></filter></defs>
  <rect x="138" y="138" width="2796" height="2796" rx="629" fill="url(#bg233)" filter="url(#shadow233)" />
  <rect x="138" y="138" width="2796" height="2796" rx="629" fill="url(#sun233)" />
  <g><circle cx="1514" cy="2356" r="107" fill="#FFFFFF" opacity="0.119" /><circle cx="558" cy="1415" r="123" fill="#FFFFFF" opacity="0.139" /><circle cx="1013" cy="2605" r="42" fill="#FFFFFF" opacity="0.232" /><circle cx="1767" cy="2424" r="85" fill="#FFFFFF" opacity="0.150" /><circle cx="2463" cy="389" r="125" fill="#FFFFFF" opacity="0.117" /><circle cx="1025" cy="2529" r="151" fill="#FFFFFF" opacity="0.071" /><circle cx="2182" cy="2589" r="71" fill="#FFFFFF" opacity="0.162" /><circle cx="1261" cy="1211" r="70" fill="#FFFFFF" opacity="0.125" /><circle cx="1524" cy="1716" r="45" fill="#FFFFFF" opacity="0.234" /><circle cx="2476" cy="789" r="145" fill="#FFFFFF" opacity="0.108" /><circle cx="2228" cy="2578" r="124" fill="#FFFFFF" opacity="0.123" /><circle cx="1552" cy="1408" r="99" fill="#FFFFFF" opacity="0.201" /><circle cx="2508" cy="1164" r="110" fill="#FFFFFF" opacity="0.082" /><circle cx="2125" cy="969" r="141" fill="#FFFFFF" opacity="0.076" /><circle cx="864" cy="2025" r="54" fill="#FFFFFF" opacity="0.212" /><circle cx="1833" cy="2398" r="149" fill="#FFFFFF" opacity="0.086" /><circle cx="630" cy="2251" r="146" fill="#FFFFFF" opacity="0.131" /><circle cx="1322" cy="1893" r="79" fill="#FFFFFF" opacity="0.218" /><circle cx="1244" cy="1960" r="88" fill="#FFFFFF" opacity="0.177" /><circle cx="2292" cy="1283" r="87" fill="#FFFFFF" opacity="0.223" /><circle cx="1914" cy="558" r="39" fill="#FFFFFF" opacity="0.198" /><circle cx="1613" cy="1373" r="149" fill="#FFFFFF" opacity="0.212" /><circle cx="1353" cy="340" r="67" fill="#FFFFFF" opacity="0.061" /><circle cx="2509" cy="2617" r="142" fill="#FFFFFF" opacity="0.091" /><circle cx="574" cy="653" r="71" fill="#FFFFFF" opacity="0.084" /><circle cx="794" cy="1159" r="152" fill="#FFFFFF" opacity="0.176" /><circle cx="1742" cy="1794" r="38" fill="#FFFFFF" opacity="0.123" /><circle cx="2183" cy="1786" r="142" fill="#FFFFFF" opacity="0.109" /></g>
  <g><path d="M 307.3 583.8 L 2696.7 307.3 L 2696.7 793.5 L 307.3 1070.0 Z" fill="#FFFFFF" opacity="0.099" /><path d="M 258.2 905.7 L 2902.0 629.2 L 2902.0 1088.6 L 258.2 1365.1 Z" fill="#FFFFFF" opacity="0.126" /><path d="M 363.4 1142.4 L 2836.8 865.9 L 2836.8 1337.6 L 363.4 1614.1 Z" fill="#FFFFFF" opacity="0.174" /><path d="M 207.3 1379.7 L 2733.9 1103.3 L 2733.9 1574.5 L 207.3 1851.0 Z" fill="#FFFFFF" opacity="0.137" /><path d="M 161.9 1625.1 L 2913.9 1348.7 L 2913.9 1833.0 L 161.9 2109.5 Z" fill="#FFFFFF" opacity="0.175" /><path d="M 159.3 1937.7 L 2705.0 1661.2 L 2705.0 2112.7 L 159.3 2389.2 Z" fill="#FFFFFF" opacity="0.199" /><path d="M 318.4 2188.7 L 2813.0 1912.2 L 2813.0 2361.3 L 318.4 2637.8 Z" fill="#FFFFFF" opacity="0.088" /><path d="M 230.7 2454.4 L 2699.6 2178.0 L 2699.6 2614.0 L 230.7 2890.5 Z" fill="#FFFFFF" opacity="0.198" /></g>
  <g filter="url(#soft233)"><g transform="rotate(-19.90 1536.0 1536.0)"><path d="M-368.6 521.3 C -225.8 469.5, -25.8 538.8, 107.5 478.5 C 250.4 468.4, 450.4 555.7, 583.7 516.6 C 726.5 515.5, 926.5 524.7, 1059.8 557.5 C 1202.7 563.2, 1402.7 487.3, 1536.0 576.5 C 1678.8 592.9, 1878.8 479.7, 2012.2 561.9 C 2155.0 572.3, 2355.0 503.9, 2488.3 522.7 C 2631.2 522.8, 2831.2 520.7, 2964.5 482.6 C 3107.3 486.6, 3307.3 560.2, 3440.6 466.0" fill="none" stroke="url(#ribbon233)" stroke-width="58.4" stroke-linecap="round" stroke-opacity="0.120" /></g><g transform="rotate(-19.32 1536.0 1536.0)"><path d="M-368.6 739.3 C -241.7 701.9, -63.9 764.6, 54.6 677.4 C 181.6 684.1, 359.4 812.7, 477.9 701.5 C 604.8 694.4, 782.6 766.0, 901.1 748.5 C 1028.1 752.1, 1205.9 733.7, 1324.4 790.0 C 1451.3 775.4, 1629.1 702.6, 1747.6 800.7 C 1874.6 809.6, 2052.4 679.8, 2170.9 774.1 C 2297.9 763.2, 2475.6 725.1, 2594.1 726.4 C 2721.1 723.9, 2898.9 744.3, 3017.4 686.6 C 3144.4 670.6, 3322.1 763.1, 3440.6 678.7" fill="none" stroke="url(#ribbon233)" stroke-width="54.4" stroke-linecap="round" stroke-opacity="0.146" /></g><g transform="rotate(-18.74 1536.0 1536.0)"><path d="M-368.6 878.9 C -254.4 825.7, -94.4 913.8, 12.3 842.2 C 126.6 852.9, 286.6 918.1, 393.2 895.7 C 507.5 901.6, 667.5 863.3, 774.1 938.9 C 888.4 915.2, 1048.4 835.1, 1155.1 945.7 C 1269.4 953.2, 1429.3 847.8, 1536.0 912.0 C 1650.3 899.7, 1810.3 864.5, 1916.9 858.2 C 2031.2 863.0, 2191.2 894.0, 2297.9 816.9 C 2412.1 799.2, 2572.1 939.5, 2678.8 813.2 C 2793.1 834.2, 2953.1 956.0, 3059.7 849.4 C 3174.0 851.6, 3334.0 904.0, 3440.6 903.4" fill="none" stroke="url(#ribbon233)" stroke-width="50.4" stroke-linecap="round" stroke-opacity="0.172" /></g><g transform="rotate(-18.16 1536.0 1536.0)"><path d="M-368.6 1064.5 C -264.8 979.4, -119.3 1137.2, -22.3 1055.0 C 81.5 1057.8, 227.0 1074.1, 324.0 1112.3 C 427.8 1097.1, 573.3 1017.4, 670.3 1140.6 C 774.1 1125.2, 919.6 989.0, 1016.6 1122.8 C 1120.4 1133.7, 1265.9 1036.4, 1362.9 1069.6 C 1466.7 1069.6, 1612.2 1061.5, 1709.1 1013.3 C 1813.0 1023.7, 1958.5 1083.9, 2055.4 988.0 C 2159.3 957.6, 2304.8 1107.0, 2401.7 1009.2 C 2505.6 988.1, 2651.1 1108.9, 2748.0 1063.9 C 2851.9 1063.6, 2997.4 1065.2, 3094.3 1118.9 C 3198.2 1106.1, 3343.7 1024.6, 3440.6 1141.0" fill="none" stroke="url(#ribbon233)" stroke-width="46.4" stroke-linecap="round" stroke-opacity="0.198" /></g><g transform="rotate(-17.58 1536.0 1536.0)"><path d="M-368.6 1319.7 C -273.4 1274.7, -140.1 1349.6, -51.2 1316.3 C 44.0 1315.1, 177.4 1322.4, 266.2 1377.2 C 361.5 1358.5, 494.8 1253.0, 583.7 1403.3 C 678.9 1415.6, 812.2 1256.5, 901.1 1378.7 C 996.4 1392.7, 1129.7 1282.4, 1218.6 1318.3 C 1313.8 1318.8, 1447.1 1320.8, 1536.0 1258.8 C 1631.2 1241.3, 1764.6 1376.5, 1853.4 1236.3 C 1948.7 1203.9, 2082.0 1394.8, 2170.9 1264.3 C 2266.1 1257.6, 2399.4 1380.0, 2488.3 1326.0 C 2583.6 1324.6, 2716.9 1316.8, 2805.8 1383.9 C 2901.0 1405.9, 3034.3 1276.2, 3123.2 1402.8 C 3218.4 1424.9, 3351.8 1294.7, 3440.6 1371.4" fill="none" stroke="url(#ribbon233)" stroke-width="42.4" stroke-linecap="round" stroke-opacity="0.224" /></g><g transform="rotate(-17.00 1536.0 1536.0)"><path d="M-368.6 1470.6 C -225.8 1394.9, -25.8 1516.8, 107.5 1448.0 C 250.4 1449.8, 450.4 1477.6, 583.7 1517.8 C 726.5 1512.9, 926.5 1416.8, 1059.8 1559.0 C 1202.7 1567.0, 1402.7 1384.8, 1536.0 1546.6 C 1678.8 1557.8, 1878.8 1435.2, 2012.2 1488.1 C 2155.0 1492.8, 2355.0 1457.3, 2488.3 1419.0 C 2631.2 1425.1, 2831.2 1487.0, 2964.5 1381.2 C 3107.3 1408.2, 3307.3 1569.2, 3440.6 1397.7" fill="none" stroke="url(#ribbon233)" stroke-width="38.4" stroke-linecap="round" stroke-opacity="0.250" /></g><g transform="rotate(-16.42 1536.0 1536.0)"><path d="M-368.6 1731.3 C -241.7 1630.7, -63.9 1799.8, 54.6 1652.7 C 181.6 1624.8, 359.4 1763.4, 477.9 1718.2 C 604.8 1714.9, 782.6 1735.4, 901.1 1791.6 C 1028.1 1772.3, 1205.9 1695.4, 1324.4 1828.4 C 1451.3 1833.1, 1629.1 1666.3, 1747.6 1806.3 C 1874.6 1809.3, 2052.4 1681.1, 2170.9 1738.7 C 2297.9 1740.6, 2475.6 1726.8, 2594.1 1666.6 C 2721.1 1664.4, 2898.9 1779.4, 3017.4 1633.7 C 3144.4 1596.3, 3322.1 1841.5, 3440.6 1660.0" fill="none" stroke="url(#ribbon233)" stroke-width="34.4" stroke-linecap="round" stroke-opacity="0.276" /></g><g transform="rotate(-15.84 1536.0 1536.0)"><path d="M-368.6 1905.5 C -254.4 2034.3, -94.4 1803.4, 12.3 2005.4 C 126.6 2031.6, 286.6 1849.5, 393.2 1952.4 C 507.5 1936.6, 667.5 1860.0, 774.1 1871.0 C 888.4 1879.8, 1048.4 1929.1, 1155.1 1810.5 C 1269.4 1781.2, 1429.3 1945.9, 1536.0 1807.7 C 1650.3 1831.1, 1810.3 1990.7, 1916.9 1864.2 C 2031.2 1852.6, 2191.2 1932.2, 2297.9 1945.8 C 2412.1 1953.6, 2572.1 1881.0, 2678.8 2003.0 C 2793.1 1996.7, 2953.1 1796.1, 3059.7 2001.0 C 3174.0 2028.0, 3334.0 1844.5, 3440.6 1941.1" fill="none" stroke="url(#ribbon233)" stroke-width="30.4" stroke-linecap="round" stroke-opacity="0.302" /></g><g transform="rotate(-15.26 1536.0 1536.0)"><path d="M-368.6 2028.2 C -264.8 1980.8, -119.3 2064.2, -22.3 2068.6 C 81.5 2053.6, 227.0 1990.2, 324.0 2131.1 C 427.8 2115.3, 573.3 1978.6, 670.3 2131.2 C 774.1 2124.5, 919.6 1973.9, 1016.6 2068.8 C 1120.4 2053.5, 1265.9 2015.3, 1362.9 1981.7 C 1466.7 1983.9, 1612.2 2051.7, 1709.1 1922.8 C 1813.0 1893.5, 1958.5 2092.2, 2055.4 1927.8 C 2159.3 1895.1, 2304.8 2099.1, 2401.7 1993.7 C 2505.6 1995.8, 2651.1 2045.0, 2748.0 2080.5 C 2851.9 2096.7, 2997.4 1999.6, 3094.3 2135.5 C 3198.2 2095.0, 3343.7 1985.9, 3440.6 2125.4" fill="none" stroke="url(#ribbon233)" stroke-width="26.4" stroke-linecap="round" stroke-opacity="0.328" /></g><g transform="rotate(-14.68 1536.0 1536.0)"><path d="M-368.6 2271.4 C -273.4 2143.8, -140.1 2350.7, -51.2 2158.5 C 44.0 2198.2, 177.4 2401.0, 266.2 2219.4 C 361.5 2230.4, 494.8 2296.6, 583.7 2311.9 C 678.9 2307.6, 812.2 2252.2, 901.1 2379.8 C 996.4 2369.5, 1129.7 2159.7, 1218.6 2381.9 C 1313.8 2379.8, 1447.1 2224.1, 1536.0 2317.0 C 1631.2 2310.1, 1764.6 2219.8, 1853.4 2224.4 C 1948.7 2230.1, 2082.0 2321.3, 2170.9 2160.3 C 2266.1 2179.9, 2399.4 2390.9, 2488.3 2163.6 C 2583.6 2164.4, 2716.9 2343.2, 2805.8 2232.2 C 2901.0 2240.1, 3034.3 2285.1, 3123.2 2324.6 C 3218.4 2305.4, 3351.8 2219.5, 3440.6 2384.7" fill="none" stroke="url(#ribbon233)" stroke-width="22.4" stroke-linecap="round" stroke-opacity="0.354" /></g><g transform="rotate(-14.10 1536.0 1536.0)"><path d="M-368.6 2469.7 C -225.8 2613.4, -25.8 2431.6, 107.5 2510.0 C 250.4 2524.3, 450.4 2431.7, 583.7 2412.2 C 726.5 2406.3, 926.5 2504.5, 1059.8 2349.2 C 1202.7 2382.5, 1402.7 2583.4, 1536.0 2359.3 C 1678.8 2340.1, 1878.8 2557.1, 2012.2 2436.4 C 2155.0 2449.6, 2355.0 2506.0, 2488.3 2533.6 C 2631.2 2533.5, 2831.2 2408.3, 2964.5 2592.1 C 3107.3 2546.7, 3307.3 2411.9, 3440.6 2576.3" fill="none" stroke="url(#ribbon233)" stroke-width="18.4" stroke-linecap="round" stroke-opacity="0.380" /></g><g transform="rotate(-13.52 1536.0 1536.0)"><path d="M-368.6 2655.5 C -241.7 2731.2, -63.9 2583.5, 54.6 2621.8 C 181.6 2620.6, 359.4 2677.5, 477.9 2539.7 C 604.8 2561.9, 782.6 2696.0, 901.1 2527.9 C 1028.1 2572.0, 1205.9 2712.7, 1324.4 2593.5 C 1451.3 2591.3, 1629.1 2693.6, 1747.6 2696.8 C 1874.6 2709.0, 2052.4 2639.8, 2170.9 2775.0 C 2297.9 2774.3, 2475.6 2603.1, 2594.1 2780.7 C 2721.1 2760.4, 2898.9 2533.3, 3017.4 2710.6 C 3144.4 2689.7, 3322.1 2602.5, 3440.6 2607.0" fill="none" stroke="url(#ribbon233)" stroke-width="14.4" stroke-linecap="round" stroke-opacity="0.406" /></g></g>
  <g><ellipse cx="1536.0" cy="1551.9" rx="728.6" ry="605.7" fill="url(#extrude233)" opacity="0.220" /><ellipse cx="1536.0" cy="1567.7" rx="736.0" ry="610.9" fill="url(#extrude233)" opacity="0.205" /><ellipse cx="1536.0" cy="1583.6" rx="743.4" ry="616.1" fill="url(#extrude233)" opacity="0.190" /><ellipse cx="1536.0" cy="1599.5" rx="750.9" ry="621.3" fill="url(#extrude233)" opacity="0.175" /><ellipse cx="1536.0" cy="1615.4" rx="758.3" ry="626.5" fill="url(#extrude233)" opacity="0.160" /><ellipse cx="1536.0" cy="1631.2" rx="765.7" ry="631.7" fill="url(#extrude233)" opacity="0.145" /><ellipse cx="1536.0" cy="1647.1" rx="773.2" ry="636.9" fill="url(#extrude233)" opacity="0.130" /><ellipse cx="1536.0" cy="1663.0" rx="780.6" ry="642.1" fill="url(#extrude233)" opacity="0.115" /><ellipse cx="1536.0" cy="1678.8" rx="788.0" ry="647.4" fill="url(#extrude233)" opacity="0.100" /><ellipse cx="1536.0" cy="1694.7" rx="795.5" ry="652.6" fill="url(#extrude233)" opacity="0.085" /><ellipse cx="1536.0" cy="1710.6" rx="802.9" ry="657.8" fill="url(#extrude233)" opacity="0.070" /><ellipse cx="1536.0" cy="1726.5" rx="810.3" ry="663.0" fill="url(#extrude233)" opacity="0.055" /></g>
  <ellipse cx="1536.0" cy="1726.5" rx="773.2" ry="214.9" fill="#0B1D2D" opacity="0.24" />
  <ellipse cx="1536.0" cy="1536.0" rx="743.4" ry="651.3" fill="url(#orb233)" stroke="#FFFFFF" stroke-opacity="0.42" stroke-width="7" />
  <ellipse cx="1431.9" cy="1392.7" rx="505.5" ry="299.6" fill="#FFFFFF" opacity="0.25" />
  <path d="M 199.4 399.4 C 1013.8 -30.7, 2058.2 768.0, 2872.6 215.0 L 2872.6 983.0 C 2089.0 1228.8, 1013.8 307.2, 199.4 1167.4 Z" fill="url(#glass233)" />
  <rect x="270" y="270" width="2532" height="2532" rx="430" fill="none" stroke="#FFFFFF" stroke-opacity="0.30" stroke-width="5" />
  <rect x="288.4" y="288.4" width="2495.1" height="2495.1" rx="399" fill="none" stroke="#8A5CFF" stroke-opacity="0.35" stroke-width="3" />
  <g filter="url(#soft233)"><rect x="628" y="821" width="74" height="2" fill="#FFFFFF" opacity="0.330" /><rect x="664" y="785" width="2" height="74" fill="#FFFFFF" opacity="0.330" /><rect x="2193" y="884" width="80" height="2" fill="#FFFFFF" opacity="0.665" /><rect x="2232" y="845" width="2" height="80" fill="#FFFFFF" opacity="0.665" /><rect x="1484" y="1287" width="64" height="2" fill="#FFFFFF" opacity="0.319" /><rect x="1515" y="1256" width="2" height="64" fill="#FFFFFF" opacity="0.319" /><rect x="1523" y="2474" width="76" height="2" fill="#FFFFFF" opacity="0.747" /><rect x="1560" y="2437" width="2" height="76" fill="#FFFFFF" opacity="0.747" /><rect x="2566" y="1220" width="56" height="2" fill="#FFFFFF" opacity="0.790" /><rect x="2593" y="1193" width="2" height="56" fill="#FFFFFF" opacity="0.790" /><rect x="1529" y="1040" width="40" height="2" fill="#FFFFFF" opacity="0.488" /><rect x="1548" y="1021" width="2" height="40" fill="#FFFFFF" opacity="0.488" /><rect x="1235" y="880" width="34" height="2" fill="#FFFFFF" opacity="0.607" /><rect x="1251" y="864" width="2" height="34" fill="#FFFFFF" opacity="0.607" /><rect x="2198" y="1023" width="78" height="2" fill="#FFFFFF" opacity="0.391" /><rect x="2236" y="985" width="2" height="78" fill="#FFFFFF" opacity="0.391" /><rect x="1126" y="275" width="52" height="2" fill="#FFFFFF" opacity="0.599" /><rect x="1151" y="250" width="2" height="52" fill="#FFFFFF" opacity="0.599" /><rect x="2697" y="1926" width="74" height="2" fill="#FFFFFF" opacity="0.321" /><rect x="2733" y="1890" width="2" height="74" fill="#FFFFFF" opacity="0.321" /><rect x="2517" y="1319" width="64" height="2" fill="#FFFFFF" opacity="0.393" /><rect x="2548" y="1288" width="2" height="64" fill="#FFFFFF" opacity="0.393" /><rect x="1641" y="1484" width="28" height="2" fill="#FFFFFF" opacity="0.549" /><rect x="1654" y="1471" width="2" height="28" fill="#FFFFFF" opacity="0.549" /><rect x="1523" y="687" width="46" height="2" fill="#FFFFFF" opacity="0.642" /><rect x="1545" y="665" width="2" height="46" fill="#FFFFFF" opacity="0.642" /><rect x="1456" y="2148" width="84" height="2" fill="#FFFFFF" opacity="0.497" /><rect x="1497" y="2107" width="2" height="84" fill="#FFFFFF" opacity="0.497" /><rect x="804" y="1101" width="80" height="2" fill="#FFFFFF" opacity="0.760" /><rect x="843" y="1062" width="2" height="80" fill="#FFFFFF" opacity="0.760" /><rect x="1803" y="717" width="62" height="2" fill="#FFFFFF" opacity="0.676" /><rect x="1833" y="687" width="2" height="62" fill="#FFFFFF" opacity="0.676" /><rect x="1732" y="725" width="56" height="2" fill="#FFFFFF" opacity="0.390" /><rect x="1759" y="698" width="2" height="56" fill="#FFFFFF" opacity="0.390" /><rect x="1458" y="1429" width="52" height="2" fill="#FFFFFF" opacity="0.670" /><rect x="1483" y="1404" width="2" height="52" fill="#FFFFFF" opacity="0.670" /><rect x="2658" y="980" width="70" height="2" fill="#FFFFFF" opacity="0.780" /><rect x="2692" y="946" width="2" height="70" fill="#FFFFFF" opacity="0.780" /><rect x="2059" y="2132" width="82" height="2" fill="#FFFFFF" opacity="0.321" /><rect x="2099" y="2092" width="2" height="82" fill="#FFFFFF" opacity="0.321" /><rect x="1494" y="2563" width="78" height="2" fill="#FFFFFF" opacity="0.550" /><rect x="1532" y="2525" width="2" height="78" fill="#FFFFFF" opacity="0.550" /><rect x="555" y="1391" width="38" height="2" fill="#FFFFFF" opacity="0.808" /><rect x="573" y="1373" width="2" height="38" fill="#FFFFFF" opacity="0.808" /><rect x="1979" y="2233" width="44" height="2" fill="#FFFFFF" opacity="0.708" /><rect x="2000" y="2212" width="2" height="44" fill="#FFFFFF" opacity="0.708" /><rect x="461" y="1353" width="78" height="2" fill="#FFFFFF" opacity="0.674" /><rect x="499" y="1315" width="2" height="78" fill="#FFFFFF" opacity="0.674" /><rect x="1239" y="479" width="36" height="2" fill="#FFFFFF" opacity="0.763" /><rect x="1256" y="462" width="2" height="36" fill="#FFFFFF" opacity="0.763" /><rect x="2342" y="1309" width="66" height="2" fill="#FFFFFF" opacity="0.546" /><rect x="2374" y="1277" width="2" height="66" fill="#FFFFFF" opacity="0.546" /></g>
  <g opacity="0.52"><rect x="1023" y="1121" width="1152" height="1024" rx="153" fill="none" stroke="#0C2030" stroke-width="90" /><line x1="1023" y1="1326" x2="2148" y2="1326" stroke="#0C2030" stroke-width="90" /><line x1="1316" y1="1033" x2="1316" y2="1121" stroke="#0C2030" stroke-width="90" /><line x1="1828" y1="1033" x2="1828" y2="1121" stroke="#0C2030" stroke-width="90" /></g>
  <g filter="url(#soft233)"><rect x="987" y="1075" width="1152" height="1024" rx="153" fill="none" stroke="url(#symbol233)" stroke-width="90" /><line x1="987" y1="1280" x2="2112" y2="1280" stroke="url(#symbol233)" stroke-width="90" /><line x1="1280" y1="987" x2="1280" y2="1075" stroke="url(#symbol233)" stroke-width="90" /><line x1="1792" y1="987" x2="1792" y2="1075" stroke="url(#symbol233)" stroke-width="90" /></g>
  <rect x="138" y="138" width="2796" height="2796" rx="629" fill="#FFFFFF" filter="url(#grain233)" opacity="0.18" />
</svg>
