<svg xmlns="http://www.w3.org/2000/svg" width="3072" height="3072" viewBox="0 0 3072 3072">
  <title>QuartzOS App Icon 094 - crisp_mail_094</title>
  <defs><linearGradient id="bg93" x1="0%" y1="0%" x2="100%" y2="100%"><stop offset="0%" stop-color="#8A5CFF" /><stop offset="26%" stop-color="#FF9F43" /><stop offset="56%" stop-color="#53E3A6" /><stop offset="78%" stop-color="#4F79A7" /><stop offset="100%" stop-color="#1B2630" /></linearGradient><radialGradient id="sun93" cx="30%" cy="35%" r="88%"><stop offset="0%" stop-color="#FFFFFF" stop-opacity="0.62" /><stop offset="30%" stop-color="#36D1FF" stop-opacity="0.35" /><stop offset="100%" stop-color="#36D1FF" stop-opacity="0" /></radialGradient><linearGradient id="glass93" x1="0%" y1="0%" x2="0%" y2="100%"><stop offset="0%" stop-color="#FFFFFF" stop-opacity="0.70" /><stop offset="46%" stop-color="#FFFFFF" stop-opacity="0.26" /><stop offset="100%" stop-color="#FFFFFF" stop-opacity="0.00" /></linearGradient><linearGradient id="ribbon93" x1="0%" y1="0%" x2="100%" y2="0%"><stop offset="0%" stop-color="#8A5CFF" stop-opacity="0.18" /><stop offset="34%" stop-color="#FF9F43" stop-opacity="0.72" /><stop offset="66%" stop-color="#53E3A6" stop-opacity="0.72" /><stop offset="100%" stop-color="#36D1FF" stop-opacity="0.18" /></linearGradient><radialGradient id="orb93" cx="34%" cy="27%" r="74%"><stop offset="0%" stop-color="#FFFFFF" stop-opacity="0.84" /><stop offset="30%" stop-color="#8A5CFF" stop-opacity="0.52" /><stop offset="68%" stop-color="#FF9F43" stop-opacity="0.42" /><stop offset="100%" stop-color="#53E3A6" stop-opacity="0.20" /></radialGradient><linearGradient id="extrude93" x1="0%" y1="0%" x2="0%" y2="100%"><stop offset="0%" stop-color="#15283C" stop-opacity="0.45" /><stop offset="100%" stop-color="#08131D" stop-opacity="0.06" /></linearGradient><linearGradient id="symbol93" x1="0%" y1="0%" x2="100%" y2="100%"><stop offset="0%" stop-color="#FFFFFF" /><stop offset="100%" stop-color="#36D1FF" /></linearGradient><filter id="shadow93" x="-40%" y="-40%" width="180%" height="180%"><feDropShadow dx="0" dy="49" stdDeviation="86" flood-color="#06111A" flood-opacity="0.54" /></filter><filter id="soft93" x="-40%" y="-40%" width="180%" height="180%"><feDropShadow dx="0" dy="0" stdDeviation="14" flood-color="#8A5CFF" flood-opacity="0.45" /></filter><filter id="grain93"><feTurbulence type="fractalNoise" baseFrequency="0.938" numOctaves="2" seed="93" /><feColorMatrix type="saturate" values="0" /><feComponentTransfer><feFuncA type="table" tableValues="0 0.09" /></feComponentTransfer></filter></defs>
  <rect x="138" y="138" width="2796" height="2796" rx="629" fill="url(#bg93)" filter="url(#shadow93)" />
  <rect x="138" y="138" width="2796" height="2796" rx="629" fill="url(#sun93)" />
  <g><circle cx="2631" cy="1487" r="66" fill="#FFFFFF" opacity="0.082" /><circle cx="1937" cy="2109" r="62" fill="#FFFFFF" opacity="0.166" /><circle cx="1835" cy="1588" r="149" fill="#FFFFFF" opacity="0.195" /><circle cx="1725" cy="1625" r="116" fill="#FFFFFF" opacity="0.184" /><circle cx="697" cy="1062" r="39" fill="#FFFFFF" opacity="0.152" /><circle cx="2457" cy="1031" r="76" fill="#FFFFFF" opacity="0.197" /><circle cx="1078" cy="2249" r="116" fill="#FFFFFF" opacity="0.156" /><circle cx="1163" cy="2578" r="39" fill="#FFFFFF" opacity="0.091" /><circle cx="512" cy="1172" r="126" fill="#FFFFFF" opacity="0.229" /><circle cx="1739" cy="1772" r="103" fill="#FFFFFF" opacity="0.075" /><circle cx="762" cy="1097" r="108" fill="#FFFFFF" opacity="0.079" /><circle cx="1104" cy="1610" r="149" fill="#FFFFFF" opacity="0.104" /><circle cx="767" cy="2279" r="71" fill="#FFFFFF" opacity="0.140" /><circle cx="1773" cy="599" r="85" fill="#FFFFFF" opacity="0.114" /><circle cx="1990" cy="1441" r="138" fill="#FFFFFF" opacity="0.200" /><circle cx="1811" cy="2497" r="78" fill="#FFFFFF" opacity="0.185" /><circle cx="490" cy="992" r="58" fill="#FFFFFF" opacity="0.105" /><circle cx="1860" cy="2241" r="136" fill="#FFFFFF" opacity="0.081" /><circle cx="732" cy="1615" r="158" fill="#FFFFFF" opacity="0.208" /><circle cx="1222" cy="777" r="49" fill="#FFFFFF" opacity="0.154" /><circle cx="2114" cy="2198" r="75" fill="#FFFFFF" opacity="0.117" /><circle cx="1676" cy="872" r="154" fill="#FFFFFF" opacity="0.191" /><circle cx="2564" cy="2312" r="157" fill="#FFFFFF" opacity="0.066" /><circle cx="2686" cy="678" r="119" fill="#FFFFFF" opacity="0.155" /><circle cx="532" cy="2436" r="139" fill="#FFFFFF" opacity="0.225" /><circle cx="2004" cy="1826" r="40" fill="#FFFFFF" opacity="0.135" /><circle cx="2384" cy="1944" r="138" fill="#FFFFFF" opacity="0.113" /><circle cx="1683" cy="890" r="155" fill="#FFFFFF" opacity="0.214" /></g>
  <g><path d="M 323.7 652.6 L 2893.6 376.2 L 2893.6 808.7 L 323.7 1085.2 Z" fill="#FFFFFF" opacity="0.109" /><path d="M 174.4 916.7 L 2703.1 640.2 L 2703.1 1096.3 L 174.4 1372.8 Z" fill="#FFFFFF" opacity="0.165" /><path d="M 181.5 1137.7 L 2699.7 861.2 L 2699.7 1332.1 L 181.5 1608.6 Z" fill="#FFFFFF" opacity="0.103" /><path d="M 288.0 1404.8 L 2692.8 1128.3 L 2692.8 1580.1 L 288.0 1856.6 Z" fill="#FFFFFF" opacity="0.190" /><path d="M 369.0 1633.5 L 2906.9 1357.0 L 2906.9 1844.5 L 369.0 2121.0 Z" fill="#FFFFFF" opacity="0.143" /><path d="M 329.2 1874.6 L 2755.5 1598.2 L 2755.5 2081.1 L 329.2 2357.6 Z" fill="#FFFFFF" opacity="0.150" /><path d="M 202.4 2178.0 L 2690.0 1901.5 L 2690.0 2349.6 L 202.4 2626.1 Z" fill="#FFFFFF" opacity="0.102" /><path d="M 259.9 2487.4 L 2697.2 2211.0 L 2697.2 2684.3 L 259.9 2960.8 Z" fill="#FFFFFF" opacity="0.178" /></g>
  <g filter="url(#soft93)"><g transform="rotate(-12.46 1536.0 1536.0)"><path d="M-368.6 579.0 C -225.8 533.2, -25.8 623.2, 107.5 552.8 C 250.4 553.8, 450.4 588.4, 583.7 595.7 C 726.5 594.2, 926.5 568.8, 1059.8 628.5 C 1202.7 645.8, 1402.7 558.8, 1536.0 631.2 C 1678.8 619.0, 1878.8 552.1, 2012.2 602.3 C 2155.0 610.5, 2355.0 552.6, 2488.3 559.3 C 2631.2 559.3, 2831.2 597.0, 2964.5 528.2 C 3107.3 526.2, 3307.3 608.9, 3440.6 528.0" fill="none" stroke="url(#ribbon93)" stroke-width="58.4" stroke-linecap="round" stroke-opacity="0.120" /></g><g transform="rotate(-11.88 1536.0 1536.0)"><path d="M-368.6 659.7 C -241.7 701.7, -63.9 619.4, 54.6 722.0 C 181.6 709.1, 359.4 594.3, 477.9 706.0 C 604.8 717.5, 782.6 614.2, 901.1 662.0 C 1028.1 662.1, 1205.9 657.1, 1324.4 616.6 C 1451.3 601.1, 1629.1 682.0, 1747.6 597.4 C 1874.6 592.2, 2052.4 696.9, 2170.9 616.0 C 2297.9 623.5, 2475.6 678.8, 2594.1 661.1 C 2721.1 660.8, 2898.9 659.0, 3017.4 705.4 C 3144.4 707.2, 3322.1 607.0, 3440.6 722.0" fill="none" stroke="url(#ribbon93)" stroke-width="54.4" stroke-linecap="round" stroke-opacity="0.146" /></g><g transform="rotate(-11.30 1536.0 1536.0)"><path d="M-368.6 865.3 C -254.4 861.7, -94.4 867.4, 12.3 813.7 C 126.6 834.1, 286.6 897.3, 393.2 796.1 C 507.5 791.2, 667.5 896.5, 774.1 820.4 C 888.4 822.3, 1048.4 897.9, 1155.1 872.0 C 1269.4 869.9, 1429.3 862.6, 1536.0 919.6 C 1650.3 900.6, 1810.3 823.9, 1916.9 934.2 C 2031.2 926.2, 2191.2 828.5, 2297.9 907.1 C 2412.1 895.9, 2572.1 840.9, 2678.8 854.6 C 2793.1 856.3, 2953.1 876.6, 3059.7 808.7 C 3174.0 801.4, 3334.0 924.7, 3440.6 797.1" fill="none" stroke="url(#ribbon93)" stroke-width="50.4" stroke-linecap="round" stroke-opacity="0.172" /></g><g transform="rotate(-10.72 1536.0 1536.0)"><path d="M-368.6 1093.8 C -264.8 1082.0, -119.3 1103.8, -22.3 1140.2 C 81.5 1137.9, 227.0 1044.2, 324.0 1169.7 C 427.8 1189.4, 573.3 1069.2, 670.3 1153.2 C 774.1 1176.4, 919.6 1048.0, 1016.6 1100.6 C 1120.4 1101.6, 1265.9 1088.7, 1362.9 1043.9 C 1466.7 1032.1, 1612.2 1142.7, 1709.1 1017.4 C 1813.0 1017.1, 1958.5 1168.7, 2055.4 1037.3 C 2159.3 1050.8, 2304.8 1135.1, 2401.7 1091.4 C 2505.6 1092.3, 2651.1 1095.3, 2748.0 1147.0 C 2851.9 1136.1, 2997.4 1047.7, 3094.3 1170.3 C 3198.2 1159.7, 3343.7 1059.1, 3440.6 1147.2" fill="none" stroke="url(#ribbon93)" stroke-width="46.4" stroke-linecap="round" stroke-opacity="0.198" /></g><g transform="rotate(-10.14 1536.0 1536.0)"><path d="M-368.6 1315.8 C -273.4 1316.0, -140.1 1315.7, -51.2 1256.0 C 44.0 1258.8, 177.4 1383.5, 266.2 1232.3 C 361.5 1207.4, 494.8 1400.8, 583.7 1259.3 C 678.9 1242.7, 812.2 1375.7, 901.1 1320.6 C 996.4 1319.0, 1129.7 1313.0, 1218.6 1379.0 C 1313.8 1359.2, 1447.1 1289.2, 1536.0 1399.1 C 1631.2 1402.4, 1764.6 1235.1, 1853.4 1368.7 C 1948.7 1382.5, 2082.0 1266.0, 2170.9 1306.2 C 2266.1 1306.6, 2399.4 1319.3, 2488.3 1249.6 C 2583.6 1254.8, 2716.9 1353.8, 2805.8 1233.1 C 2901.0 1264.7, 3034.3 1356.2, 3123.2 1266.8 C 3218.4 1260.7, 3351.8 1348.4, 3440.6 1330.3" fill="none" stroke="url(#ribbon93)" stroke-width="42.4" stroke-linecap="round" stroke-opacity="0.224" /></g><g transform="rotate(-9.56 1536.0 1536.0)"><path d="M-368.6 1511.9 C -225.8 1437.3, -25.8 1564.4, 107.5 1457.2 C 250.4 1471.0, 450.4 1543.0, 583.7 1525.6 C 726.5 1523.1, 926.5 1504.5, 1059.8 1585.7 C 1202.7 1612.7, 1402.7 1483.2, 1536.0 1601.1 C 1678.8 1568.3, 1878.8 1483.4, 2012.2 1562.3 C 2155.0 1571.0, 2355.0 1489.4, 2488.3 1493.0 C 2631.2 1498.3, 2831.2 1525.8, 2964.5 1435.2 C 3107.3 1406.2, 3307.3 1595.2, 3440.6 1423.9" fill="none" stroke="url(#ribbon93)" stroke-width="38.4" stroke-linecap="round" stroke-opacity="0.250" /></g><g transform="rotate(-8.98 1536.0 1536.0)"><path d="M-368.6 1715.9 C -241.7 1781.0, -63.9 1655.0, 54.6 1808.8 C 181.6 1782.4, 359.4 1633.9, 477.9 1758.8 C 604.8 1761.3, 782.6 1689.5, 901.1 1682.8 C 1028.1 1669.9, 1205.9 1730.7, 1324.4 1626.9 C 1451.3 1608.4, 1629.1 1746.9, 1747.6 1625.0 C 1874.6 1636.4, 2052.4 1758.4, 2170.9 1678.2 C 2297.9 1663.8, 2475.6 1758.8, 2594.1 1754.3 C 2721.1 1749.1, 2898.9 1684.3, 3017.4 1807.1 C 3144.4 1797.8, 3322.1 1672.4, 3440.6 1804.6" fill="none" stroke="url(#ribbon93)" stroke-width="34.4" stroke-linecap="round" stroke-opacity="0.276" /></g><g transform="rotate(-8.40 1536.0 1536.0)"><path d="M-368.6 1819.4 C -254.4 1789.4, -94.4 1830.7, 12.3 1727.0 C 126.6 1748.8, 286.6 1896.4, 393.2 1719.6 C 507.5 1712.6, 667.5 1922.1, 774.1 1772.8 C 888.4 1766.0, 1048.4 1843.2, 1155.1 1854.2 C 1269.4 1842.9, 1429.3 1785.7, 1536.0 1914.5 C 1650.3 1924.3, 1810.3 1782.1, 1916.9 1917.2 C 2031.2 1950.8, 2191.2 1769.8, 2297.9 1860.5 C 2412.1 1844.9, 2572.1 1782.8, 2678.8 1778.9 C 2793.1 1769.3, 2953.1 1859.0, 3059.7 1721.9 C 3174.0 1757.7, 3334.0 1916.1, 3440.6 1724.0" fill="none" stroke="url(#ribbon93)" stroke-width="30.4" stroke-linecap="round" stroke-opacity="0.302" /></g><g transform="rotate(-7.82 1536.0 1536.0)"><path d="M-368.6 2108.8 C -264.8 2188.1, -119.3 2001.5, -22.3 2203.7 C 81.5 2215.2, 227.0 2002.1, 324.0 2132.5 C 427.8 2127.4, 573.3 2084.9, 670.3 2046.9 C 774.1 2070.5, 919.6 2141.1, 1016.6 1998.9 C 1120.4 1974.6, 1265.9 2192.7, 1362.9 2017.6 C 1466.7 2019.4, 1612.2 2151.1, 1709.1 2091.6 C 1813.0 2094.4, 1958.5 2122.5, 2055.4 2176.1 C 2159.3 2191.4, 2304.8 2076.7, 2401.7 2219.8 C 2505.6 2208.0, 2651.1 2060.9, 2748.0 2196.2 C 2851.9 2196.2, 2997.4 2069.7, 3094.3 2119.6 C 3198.2 2121.3, 3343.7 2105.5, 3440.6 2036.5" fill="none" stroke="url(#ribbon93)" stroke-width="26.4" stroke-linecap="round" stroke-opacity="0.328" /></g><g transform="rotate(-7.24 1536.0 1536.0)"><path d="M-368.6 2244.8 C -273.4 2370.2, -140.1 2179.4, -51.2 2325.6 C 44.0 2326.4, 177.4 2218.5, 266.2 2238.5 C 361.5 2239.5, 494.8 2246.7, 583.7 2155.2 C 678.9 2179.3, 812.2 2286.2, 901.1 2126.3 C 996.4 2122.8, 1129.7 2364.8, 1218.6 2169.2 C 1313.8 2165.7, 1447.1 2310.3, 1536.0 2258.0 C 1631.2 2259.2, 1764.6 2237.8, 1853.4 2338.7 C 1948.7 2350.7, 2082.0 2140.6, 2170.9 2362.5 C 2266.1 2350.3, 2399.4 2149.9, 2488.3 2314.9 C 2583.6 2298.2, 2716.9 2222.8, 2805.8 2224.7 C 2901.0 2217.5, 3034.3 2255.3, 3123.2 2146.7 C 3218.4 2148.2, 3351.8 2306.2, 3440.6 2128.2" fill="none" stroke="url(#ribbon93)" stroke-width="22.4" stroke-linecap="round" stroke-opacity="0.354" /></g><g transform="rotate(-6.66 1536.0 1536.0)"><path d="M-368.6 2473.9 C -225.8 2452.4, -25.8 2485.3, 107.5 2545.9 C 250.4 2558.5, 450.4 2391.3, 583.7 2598.2 C 726.5 2587.9, 926.5 2351.2, 1059.8 2575.1 C 1202.7 2607.6, 1402.7 2421.3, 1536.0 2490.6 C 1678.8 2494.0, 1878.8 2465.0, 2012.2 2396.0 C 2155.0 2378.2, 2355.0 2512.9, 2488.3 2348.7 C 2631.2 2329.2, 2831.2 2516.0, 2964.5 2377.3 C 3107.3 2385.0, 3307.3 2556.6, 3440.6 2464.6" fill="none" stroke="url(#ribbon93)" stroke-width="18.4" stroke-linecap="round" stroke-opacity="0.380" /></g><g transform="rotate(-6.08 1536.0 1536.0)"><path d="M-368.6 2675.9 C -241.7 2509.5, -63.9 2742.1, 54.6 2613.7 C 181.6 2629.2, 359.4 2733.3, 477.9 2716.9 C 604.8 2723.1, 782.6 2653.4, 901.1 2795.2 C 1028.1 2827.0, 1205.9 2576.1, 1324.4 2801.2 C 1451.3 2756.5, 1629.1 2579.6, 1747.6 2731.2 C 1874.6 2742.4, 2052.4 2613.5, 2170.9 2627.7 C 2297.9 2630.6, 2475.6 2697.1, 2594.1 2553.4 C 2721.1 2598.2, 2898.9 2792.9, 3017.4 2553.4 C 3144.4 2580.4, 3322.1 2810.3, 3440.6 2627.8" fill="none" stroke="url(#ribbon93)" stroke-width="14.4" stroke-linecap="round" stroke-opacity="0.406" /></g></g>
  <g><ellipse cx="1536.0" cy="1551.9" rx="728.6" ry="605.7" fill="url(#extrude93)" opacity="0.220" /><ellipse cx="1536.0" cy="1567.7" rx="736.0" ry="610.9" fill="url(#extrude93)" opacity="0.205" /><ellipse cx="1536.0" cy="1583.6" rx="743.4" ry="616.1" fill="url(#extrude93)" opacity="0.190" /><ellipse cx="1536.0" cy="1599.5" rx="750.9" ry="621.3" fill="url(#extrude93)" opacity="0.175" /><ellipse cx="1536.0" cy="1615.4" rx="758.3" ry="626.5" fill="url(#extrude93)" opacity="0.160" /><ellipse cx="1536.0" cy="1631.2" rx="765.7" ry="631.7" fill="url(#extrude93)" opacity="0.145" /><ellipse cx="1536.0" cy="1647.1" rx="773.2" ry="636.9" fill="url(#extrude93)" opacity="0.130" /><ellipse cx="1536.0" cy="1663.0" rx="780.6" ry="642.1" fill="url(#extrude93)" opacity="0.115" /><ellipse cx="1536.0" cy="1678.8" rx="788.0" ry="647.4" fill="url(#extrude93)" opacity="0.100" /><ellipse cx="1536.0" cy="1694.7" rx="795.5" ry="652.6" fill="url(#extrude93)" opacity="0.085" /><ellipse cx="1536.0" cy="1710.6" rx="802.9" ry="657.8" fill="url(#extrude93)" opacity="0.070" /><ellipse cx="1536.0" cy="1726.5" rx="810.3" ry="663.0" fill="url(#extrude93)" opacity="0.055" /></g>
  <ellipse cx="1536.0" cy="1726.5" rx="773.2" ry="214.9" fill="#0B1D2D" opacity="0.24" />
  <ellipse cx="1536.0" cy="1536.0" rx="743.4" ry="651.3" fill="url(#orb93)" stroke="#FFFFFF" stroke-opacity="0.42" stroke-width="7" />
  <ellipse cx="1431.9" cy="1392.7" rx="505.5" ry="299.6" fill="#FFFFFF" opacity="0.25" />
  <path d="M 199.4 399.4 C 1013.8 -30.7, 2058.2 768.0, 2872.6 215.0 L 2872.6 983.0 C 2089.0 1228.8, 1013.8 307.2, 199.4 1167.4 Z" fill="url(#glass93)" />
  <rect x="270" y="270" width="2532" height="2532" rx="430" fill="none" stroke="#FFFFFF" stroke-opacity="0.30" stroke-width="5" />
  <rect x="288.4" y="288.4" width="2495.1" height="2495.1" rx="399" fill="none" stroke="#8A5CFF" stroke-opacity="0.35" stroke-width="3" />
  <g filter="url(#soft93)"><rect x="1411" y="457" width="32" height="2" fill="#FFFFFF" opacity="0.576" /><rect x="1426" y="442" width="2" height="32" fill="#FFFFFF" opacity="0.576" /><rect x="716" y="2425" width="70" height="2" fill="#FFFFFF" opacity="0.415" /><rect x="750" y="2391" width="2" height="70" fill="#FFFFFF" opacity="0.415" /><rect x="710" y="1356" width="36" height="2" fill="#FFFFFF" opacity="0.463" /><rect x="727" y="1339" width="2" height="36" fill="#FFFFFF" opacity="0.463" /><rect x="862" y="2683" width="34" height="2" fill="#FFFFFF" opacity="0.835" /><rect x="878" y="2667" width="2" height="34" fill="#FFFFFF" opacity="0.835" /><rect x="2575" y="832" width="62" height="2" fill="#FFFFFF" opacity="0.550" /><rect x="2605" y="802" width="2" height="62" fill="#FFFFFF" opacity="0.550" /><rect x="535" y="877" width="70" height="2" fill="#FFFFFF" opacity="0.646" /><rect x="569" y="843" width="2" height="70" fill="#FFFFFF" opacity="0.646" /><rect x="1701" y="416" width="36" height="2" fill="#FFFFFF" opacity="0.773" /><rect x="1718" y="399" width="2" height="36" fill="#FFFFFF" opacity="0.773" /><rect x="2713" y="1456" width="54" height="2" fill="#FFFFFF" opacity="0.734" /><rect x="2739" y="1430" width="2" height="54" fill="#FFFFFF" opacity="0.734" /><rect x="879" y="1796" width="52" height="2" fill="#FFFFFF" opacity="0.405" /><rect x="904" y="1771" width="2" height="52" fill="#FFFFFF" opacity="0.405" /><rect x="540" y="1701" width="72" height="2" fill="#FFFFFF" opacity="0.418" /><rect x="575" y="1666" width="2" height="72" fill="#FFFFFF" opacity="0.418" /><rect x="873" y="1806" width="80" height="2" fill="#FFFFFF" opacity="0.622" /><rect x="912" y="1767" width="2" height="80" fill="#FFFFFF" opacity="0.622" /><rect x="1334" y="1586" width="50" height="2" fill="#FFFFFF" opacity="0.641" /><rect x="1358" y="1562" width="2" height="50" fill="#FFFFFF" opacity="0.641" /><rect x="1618" y="791" width="30" height="2" fill="#FFFFFF" opacity="0.349" /><rect x="1632" y="777" width="2" height="30" fill="#FFFFFF" opacity="0.349" /><rect x="1288" y="1836" width="56" height="2" fill="#FFFFFF" opacity="0.465" /><rect x="1315" y="1809" width="2" height="56" fill="#FFFFFF" opacity="0.465" /><rect x="2172" y="1693" width="82" height="2" fill="#FFFFFF" opacity="0.818" /><rect x="2212" y="1653" width="2" height="82" fill="#FFFFFF" opacity="0.818" /><rect x="2163" y="252" width="62" height="2" fill="#FFFFFF" opacity="0.605" /><rect x="2193" y="222" width="2" height="62" fill="#FFFFFF" opacity="0.605" /><rect x="2590" y="2355" width="26" height="2" fill="#FFFFFF" opacity="0.664" /><rect x="2602" y="2343" width="2" height="26" fill="#FFFFFF" opacity="0.664" /><rect x="1516" y="1419" width="64" height="2" fill="#FFFFFF" opacity="0.816" /><rect x="1547" y="1388" width="2" height="64" fill="#FFFFFF" opacity="0.816" /><rect x="1462" y="1217" width="24" height="2" fill="#FFFFFF" opacity="0.820" /><rect x="1473" y="1206" width="2" height="24" fill="#FFFFFF" opacity="0.820" /><rect x="2046" y="2007" width="42" height="2" fill="#FFFFFF" opacity="0.470" /><rect x="2066" y="1987" width="2" height="42" fill="#FFFFFF" opacity="0.470" /><rect x="577" y="1276" width="24" height="2" fill="#FFFFFF" opacity="0.508" /><rect x="588" y="1265" width="2" height="24" fill="#FFFFFF" opacity="0.508" /><rect x="2167" y="2057" width="24" height="2" fill="#FFFFFF" opacity="0.690" /><rect x="2178" y="2046" width="2" height="24" fill="#FFFFFF" opacity="0.690" /><rect x="503" y="2239" width="32" height="2" fill="#FFFFFF" opacity="0.830" /><rect x="518" y="2224" width="2" height="32" fill="#FFFFFF" opacity="0.830" /><rect x="633" y="1930" width="46" height="2" fill="#FFFFFF" opacity="0.318" /><rect x="655" y="1908" width="2" height="46" fill="#FFFFFF" opacity="0.318" /><rect x="2803" y="1017" width="24" height="2" fill="#FFFFFF" opacity="0.555" /><rect x="2814" y="1006" width="2" height="24" fill="#FFFFFF" opacity="0.555" /><rect x="2616" y="2574" width="52" height="2" fill="#FFFFFF" opacity="0.594" /><rect x="2641" y="2549" width="2" height="52" fill="#FFFFFF" opacity="0.594" /></g>
  <g opacity="0.52"><rect x="1060" y="1070" width="1024" height="1024" rx="153" fill="none" stroke="#0C2030" stroke-width="90" /><line x1="1316" y1="1326" x2="1828" y2="1838" stroke="#0C2030" stroke-width="90" stroke-linecap="round" /><line x1="1828" y1="1326" x2="1316" y2="1838" stroke="#0C2030" stroke-width="90" stroke-linecap="round" /></g>
  <g filter="url(#soft93)"><rect x="1024" y="1024" width="1024" height="1024" rx="153" fill="none" stroke="url(#symbol93)" stroke-width="90" /><line x1="1280" y1="1280" x2="1792" y2="1792" stroke="url(#symbol93)" stroke-width="90" stroke-linecap="round" /><line x1="1792" y1="1280" x2="1280" y2="1792" stroke="url(#symbol93)" stroke-width="90" stroke-linecap="round" /></g>
  <rect x="138" y="138" width="2796" height="2796" rx="629" fill="#FFFFFF" filter="url(#grain93)" opacity="0.18" />
</svg>
