<svg xmlns="http://www.w3.org/2000/svg" width="3072" height="3072" viewBox="0 0 3072 3072">
  <title>QuartzOS App Icon 249 - lumen_gallery_249</title>
  <defs><linearGradient id="bg248" x1="0%" y1="0%" x2="100%" y2="100%"><stop offset="0%" stop-color="#FF6AB3" /><stop offset="26%" stop-color="#FFD84D" /><stop offset="56%" stop-color="#36D1FF" /><stop offset="78%" stop-color="#3C8FC1" /><stop offset="100%" stop-color="#1E2E3A" /></linearGradient><radialGradient id="sun248" cx="27%" cy="8%" r="88%"><stop offset="0%" stop-color="#FFFFFF" stop-opacity="0.62" /><stop offset="30%" stop-color="#3B82FF" stop-opacity="0.35" /><stop offset="100%" stop-color="#3B82FF" stop-opacity="0" /></radialGradient><linearGradient id="glass248" x1="0%" y1="0%" x2="0%" y2="100%"><stop offset="0%" stop-color="#FFFFFF" stop-opacity="0.70" /><stop offset="46%" stop-color="#FFFFFF" stop-opacity="0.26" /><stop offset="100%" stop-color="#FFFFFF" stop-opacity="0.00" /></linearGradient><linearGradient id="ribbon248" x1="0%" y1="0%" x2="100%" y2="0%"><stop offset="0%" stop-color="#FF6AB3" stop-opacity="0.18" /><stop offset="34%" stop-color="#FFD84D" stop-opacity="0.72" /><stop offset="66%" stop-color="#36D1FF" stop-opacity="0.72" /><stop offset="100%" stop-color="#3B82FF" stop-opacity="0.18" /></linearGradient><radialGradient id="orb248" cx="34%" cy="27%" r="74%"><stop offset="0%" stop-color="#FFFFFF" stop-opacity="0.84" /><stop offset="30%" stop-color="#FF6AB3" stop-opacity="0.52" /><stop offset="68%" stop-color="#FFD84D" stop-opacity="0.42" /><stop offset="100%" stop-color="#36D1FF" stop-opacity="0.20" /></radialGradient><linearGradient id="extrude248" x1="0%" y1="0%" x2="0%" y2="100%"><stop offset="0%" stop-color="#15283C" stop-opacity="0.45" /><stop offset="100%" stop-color="#08131D" stop-opacity="0.06" /></linearGradient><linearGradient id="symbol248" x1="0%" y1="0%" x2="100%" y2="100%"><stop offset="0%" stop-color="#FFFFFF" /><stop offset="100%" stop-color="#3B82FF" /></linearGradient><filter id="shadow248" x="-40%" y="-40%" width="180%" height="180%"><feDropShadow dx="0" dy="49" stdDeviation="86" flood-color="#06111A" flood-opacity="0.54" /></filter><filter id="soft248" x="-40%" y="-40%" width="180%" height="180%"><feDropShadow dx="0" dy="0" stdDeviation="14" flood-color="#FF6AB3" flood-opacity="0.45" /></filter><filter id="grain248"><feTurbulence type="fractalNoise" baseFrequency="0.658" numOctaves="2" seed="248" /><feColorMatrix type="saturate" values="0" /><feComponentTransfer><feFuncA type="table" tableValues="0 0.09" /></feComponentTransfer></filter></defs>
  <rect x="138" y="138" width="2796" height="2796" rx="629" fill="url(#bg248)" filter="url(#shadow248)" />
  <rect x="138" y="138" width="2796" height="2796" rx="629" fill="url(#sun248)" />
  <g><circle cx="2553" cy="2364" r="81" fill="#FFFFFF" opacity="0.215" /><circle cx="1160" cy="2300" r="140" fill="#FFFFFF" opacity="0.173" /><circle cx="377" cy="1041" r="131" fill="#FFFFFF" opacity="0.156" /><circle cx="1787" cy="1711" r="57" fill="#FFFFFF" opacity="0.064" /><circle cx="1758" cy="1908" r="71" fill="#FFFFFF" opacity="0.107" /><circle cx="849" cy="706" r="74" fill="#FFFFFF" opacity="0.073" /><circle cx="1001" cy="2235" r="39" fill="#FFFFFF" opacity="0.195" /><circle cx="498" cy="2530" r="58" fill="#FFFFFF" opacity="0.132" /><circle cx="1894" cy="2079" r="128" fill="#FFFFFF" opacity="0.149" /><circle cx="2014" cy="819" r="102" fill="#FFFFFF" opacity="0.217" /><circle cx="1414" cy="2437" r="126" fill="#FFFFFF" opacity="0.131" /><circle cx="1251" cy="2683" r="61" fill="#FFFFFF" opacity="0.222" /><circle cx="413" cy="1748" r="144" fill="#FFFFFF" opacity="0.101" /><circle cx="1734" cy="2221" r="83" fill="#FFFFFF" opacity="0.151" /><circle cx="1618" cy="336" r="130" fill="#FFFFFF" opacity="0.213" /><circle cx="1063" cy="316" r="42" fill="#FFFFFF" opacity="0.104" /><circle cx="1938" cy="808" r="139" fill="#FFFFFF" opacity="0.109" /><circle cx="1962" cy="1210" r="81" fill="#FFFFFF" opacity="0.222" /><circle cx="2432" cy="2011" r="109" fill="#FFFFFF" opacity="0.155" /><circle cx="1312" cy="2646" r="64" fill="#FFFFFF" opacity="0.063" /><circle cx="900" cy="926" r="147" fill="#FFFFFF" opacity="0.125" /><circle cx="1496" cy="1132" r="132" fill="#FFFFFF" opacity="0.104" /><circle cx="2146" cy="2504" r="76" fill="#FFFFFF" opacity="0.185" /><circle cx="2049" cy="353" r="44" fill="#FFFFFF" opacity="0.144" /><circle cx="1525" cy="1493" r="100" fill="#FFFFFF" opacity="0.235" /><circle cx="1964" cy="1156" r="123" fill="#FFFFFF" opacity="0.204" /><circle cx="2497" cy="953" r="129" fill="#FFFFFF" opacity="0.105" /><circle cx="972" cy="1877" r="121" fill="#FFFFFF" opacity="0.119" /></g>
  <g><path d="M 154.6 572.4 L 2773.0 295.9 L 2773.0 725.5 L 154.6 1002.0 Z" fill="#FFFFFF" opacity="0.201" /><path d="M 178.7 887.1 L 2857.4 610.6 L 2857.4 1038.0 L 178.7 1314.5 Z" fill="#FFFFFF" opacity="0.149" /><path d="M 288.9 1134.1 L 2824.1 857.7 L 2824.1 1285.8 L 288.9 1562.2 Z" fill="#FFFFFF" opacity="0.108" /><path d="M 335.3 1409.6 L 2839.3 1133.1 L 2839.3 1587.9 L 335.3 1864.4 Z" fill="#FFFFFF" opacity="0.129" /><path d="M 210.6 1659.8 L 2913.0 1383.3 L 2913.0 1870.6 L 210.6 2147.1 Z" fill="#FFFFFF" opacity="0.204" /><path d="M 362.9 1909.8 L 2759.6 1633.4 L 2759.6 2083.3 L 362.9 2359.8 Z" fill="#FFFFFF" opacity="0.196" /><path d="M 268.7 2185.4 L 2785.6 1908.9 L 2785.6 2337.6 L 268.7 2614.1 Z" fill="#FFFFFF" opacity="0.097" /><path d="M 307.4 2400.0 L 2812.8 2123.5 L 2812.8 2548.3 L 307.4 2824.8 Z" fill="#FFFFFF" opacity="0.176" /></g>
  <g filter="url(#soft248)"><g transform="rotate(-15.52 1536.0 1536.0)"><path d="M-368.6 557.8 C -225.8 601.7, -25.8 538.0, 107.5 592.1 C 250.4 580.2, 450.4 520.9, 583.7 550.5 C 726.5 547.8, 926.5 561.7, 1059.8 513.4 C 1202.7 511.2, 1402.7 574.4, 1536.0 503.2 C 1678.8 483.4, 1878.8 591.5, 2012.2 526.0 C 2155.0 531.6, 2355.0 581.8, 2488.3 568.2 C 2631.2 569.0, 2831.2 551.4, 2964.5 604.0 C 3107.3 593.8, 3307.3 507.0, 3440.6 611.7" fill="none" stroke="url(#ribbon248)" stroke-width="58.4" stroke-linecap="round" stroke-opacity="0.120" /></g><g transform="rotate(-14.94 1536.0 1536.0)"><path d="M-368.6 775.6 C -241.7 831.1, -63.9 744.0, 54.6 832.7 C 181.6 849.5, 359.4 732.8, 477.9 797.3 C 604.8 799.5, 782.6 756.6, 901.1 748.8 C 1028.1 750.1, 1205.9 803.1, 1324.4 716.5 C 1451.3 736.5, 1629.1 810.2, 1747.6 720.1 C 1874.6 710.7, 2052.4 798.4, 2170.9 757.3 C 2297.9 756.4, 2475.6 781.2, 2594.1 805.6 C 2721.1 815.4, 2898.9 761.4, 3017.4 835.7 C 3144.4 818.5, 3322.1 752.3, 3440.6 829.3" fill="none" stroke="url(#ribbon248)" stroke-width="54.4" stroke-linecap="round" stroke-opacity="0.146" /></g><g transform="rotate(-14.36 1536.0 1536.0)"><path d="M-368.6 907.7 C -254.4 866.2, -94.4 932.5, 12.3 931.0 C 126.6 931.7, 286.6 883.9, 393.2 970.8 C 507.5 980.2, 667.5 843.1, 774.1 972.3 C 888.4 982.6, 1048.4 878.6, 1155.1 934.6 C 1269.4 929.3, 1429.3 875.9, 1536.0 880.5 C 1650.3 871.8, 1810.3 936.8, 1916.9 842.9 C 2031.2 833.1, 2191.2 977.3, 2297.9 844.6 C 2412.1 843.8, 2572.1 954.2, 2678.8 884.5 C 2793.1 886.9, 2953.1 920.5, 3059.7 938.5 C 3174.0 943.4, 3334.0 891.4, 3440.6 973.8" fill="none" stroke="url(#ribbon248)" stroke-width="50.4" stroke-linecap="round" stroke-opacity="0.172" /></g><g transform="rotate(-13.78 1536.0 1536.0)"><path d="M-368.6 1076.5 C -264.8 1075.7, -119.3 1077.2, -22.3 1020.8 C 81.5 1014.4, 227.0 1106.8, 324.0 1000.0 C 427.8 1017.7, 573.3 1162.0, 670.3 1025.7 C 774.1 1036.0, 919.6 1109.1, 1016.6 1082.1 C 1120.4 1083.5, 1265.9 1070.7, 1362.9 1135.1 C 1466.7 1126.9, 1612.2 1013.1, 1709.1 1152.6 C 1813.0 1161.0, 1958.5 997.7, 2055.4 1123.8 C 2159.3 1136.0, 2304.8 1050.7, 2401.7 1066.4 C 2505.6 1069.9, 2651.1 1083.0, 2748.0 1015.0 C 2851.9 1025.5, 2997.4 1127.8, 3094.3 1001.0 C 3198.2 1018.3, 3343.7 1136.6, 3440.6 1032.7" fill="none" stroke="url(#ribbon248)" stroke-width="46.4" stroke-linecap="round" stroke-opacity="0.198" /></g><g transform="rotate(-13.20 1536.0 1536.0)"><path d="M-368.6 1341.7 C -273.4 1283.5, -140.1 1418.7, -51.2 1312.3 C 44.0 1322.2, 177.4 1354.1, 266.2 1377.3 C 361.5 1366.5, 494.8 1318.1, 583.7 1420.7 C 678.9 1408.2, 812.2 1293.9, 901.1 1416.3 C 996.4 1389.5, 1129.7 1270.6, 1218.6 1366.6 C 1313.8 1361.8, 1447.1 1314.1, 1536.0 1301.8 C 1631.2 1309.4, 1764.6 1355.5, 1853.4 1261.2 C 1948.7 1239.1, 2082.0 1418.6, 2170.9 1269.5 C 2266.1 1280.2, 2399.4 1371.1, 2488.3 1321.6 C 2583.6 1328.3, 2716.9 1360.5, 2805.8 1385.9 C 2901.0 1396.1, 3034.3 1297.7, 3123.2 1423.4 C 3218.4 1398.1, 3351.8 1289.9, 3440.6 1411.3" fill="none" stroke="url(#ribbon248)" stroke-width="42.4" stroke-linecap="round" stroke-opacity="0.224" /></g><g transform="rotate(-12.62 1536.0 1536.0)"><path d="M-368.6 1525.4 C -225.8 1442.7, -25.8 1587.3, 107.5 1488.1 C 250.4 1488.3, 450.4 1546.3, 583.7 1558.6 C 726.5 1571.7, 926.5 1510.7, 1059.8 1609.0 C 1202.7 1601.6, 1402.7 1431.6, 1536.0 1608.7 C 1678.8 1593.9, 1878.8 1497.0, 2012.2 1557.8 C 2155.0 1570.0, 2355.0 1513.5, 2488.3 1487.3 C 2631.2 1492.2, 2831.2 1555.3, 2964.5 1439.9 C 3107.3 1406.4, 3307.3 1607.9, 3440.6 1444.3" fill="none" stroke="url(#ribbon248)" stroke-width="38.4" stroke-linecap="round" stroke-opacity="0.250" /></g><g transform="rotate(-12.04 1536.0 1536.0)"><path d="M-368.6 1739.5 C -241.7 1736.8, -63.9 1740.9, 54.6 1807.8 C 181.6 1834.3, 359.4 1677.9, 477.9 1837.2 C 604.8 1803.9, 782.6 1692.2, 901.1 1807.2 C 1028.1 1802.3, 1205.9 1685.0, 1324.4 1736.2 C 1451.3 1736.3, 1629.1 1741.7, 1747.6 1667.2 C 1874.6 1692.4, 2052.4 1798.5, 2170.9 1642.0 C 2297.9 1665.7, 2475.6 1845.7, 2594.1 1675.9 C 2721.1 1688.8, 2898.9 1792.8, 3017.4 1748.4 C 3144.4 1750.4, 3322.1 1728.9, 3440.6 1815.5" fill="none" stroke="url(#ribbon248)" stroke-width="34.4" stroke-linecap="round" stroke-opacity="0.276" /></g><g transform="rotate(-11.46 1536.0 1536.0)"><path d="M-368.6 1895.2 C -254.4 1933.7, -94.4 1857.3, 12.3 1861.8 C 126.6 1866.3, 286.6 1924.1, 393.2 1800.7 C 507.5 1804.3, 667.5 1963.0, 774.1 1796.9 C 888.4 1781.9, 1048.4 1998.4, 1155.1 1852.7 C 1269.4 1849.8, 1429.3 1921.7, 1536.0 1934.3 C 1650.3 1937.9, 1810.3 1850.6, 1916.9 1992.1 C 2031.2 1977.4, 2191.2 1834.7, 2297.9 1991.2 C 2412.1 1974.9, 2572.1 1845.2, 2678.8 1932.0 C 2793.1 1942.6, 2953.1 1865.8, 3059.7 1850.4 C 3174.0 1856.6, 3334.0 1936.3, 3440.6 1796.1" fill="none" stroke="url(#ribbon248)" stroke-width="30.4" stroke-linecap="round" stroke-opacity="0.302" /></g><g transform="rotate(-10.88 1536.0 1536.0)"><path d="M-368.6 2026.6 C -264.8 1981.8, -119.3 2061.7, -22.3 2057.2 C 81.5 2064.3, 227.0 1998.7, 324.0 2125.1 C 427.8 2119.6, 573.3 1977.3, 670.3 2133.3 C 774.1 2139.5, 919.6 1952.2, 1016.6 2076.8 C 1120.4 2096.6, 1265.9 1981.4, 1362.9 1989.9 C 1466.7 1984.8, 1612.2 2053.7, 1709.1 1925.3 C 1813.0 1931.4, 1958.5 2082.1, 2055.4 1922.1 C 2159.3 1902.2, 2304.8 2073.1, 2401.7 1982.4 C 2505.6 1974.4, 2651.1 2078.3, 2748.0 2069.5 C 2851.9 2076.5, 2997.4 2004.1, 3094.3 2130.6 C 3198.2 2126.3, 3343.7 1963.3, 3440.6 2128.6" fill="none" stroke="url(#ribbon248)" stroke-width="26.4" stroke-linecap="round" stroke-opacity="0.328" /></g><g transform="rotate(-10.30 1536.0 1536.0)"><path d="M-368.6 2299.0 C -273.4 2172.8, -140.1 2328.3, -51.2 2180.9 C 44.0 2214.1, 177.4 2418.5, 266.2 2226.8 C 361.5 2215.6, 494.8 2327.3, 583.7 2316.5 C 678.9 2311.9, 812.2 2281.4, 901.1 2395.5 C 996.4 2383.1, 1129.7 2248.6, 1218.6 2416.0 C 1313.8 2396.6, 1447.1 2163.8, 1536.0 2365.5 C 1631.2 2346.2, 1764.6 2227.1, 1853.4 2274.7 C 1948.7 2268.7, 2082.0 2314.2, 2170.9 2198.6 C 2266.1 2176.3, 2399.4 2370.8, 2488.3 2183.4 C 2583.6 2209.1, 2716.9 2404.8, 2805.8 2238.3 C 2901.0 2234.6, 3034.3 2324.0, 3123.2 2330.1 C 3218.4 2341.1, 3351.8 2285.5, 3440.6 2402.9" fill="none" stroke="url(#ribbon248)" stroke-width="22.4" stroke-linecap="round" stroke-opacity="0.354" /></g><g transform="rotate(-9.72 1536.0 1536.0)"><path d="M-368.6 2505.8 C -225.8 2396.0, -25.8 2616.3, 107.5 2392.3 C 250.4 2348.2, 450.4 2553.5, 583.7 2466.0 C 726.5 2451.1, 926.5 2538.0, 1059.8 2563.8 C 1202.7 2576.6, 1402.7 2484.8, 1536.0 2626.4 C 1678.8 2589.7, 1878.8 2394.6, 2012.2 2615.8 C 2155.0 2588.2, 2355.0 2414.7, 2488.3 2538.5 C 2631.2 2549.4, 2831.2 2467.9, 2964.5 2441.3 C 3107.3 2464.0, 3307.3 2567.8, 3440.6 2383.2" fill="none" stroke="url(#ribbon248)" stroke-width="18.4" stroke-linecap="round" stroke-opacity="0.380" /></g><g transform="rotate(-9.14 1536.0 1536.0)"><path d="M-368.6 2665.1 C -241.7 2710.4, -63.9 2644.0, 54.6 2782.1 C 181.6 2817.4, 359.4 2594.9, 477.9 2792.0 C 604.8 2772.9, 782.6 2526.1, 901.1 2724.9 C 1028.1 2709.6, 1205.9 2634.9, 1324.4 2621.5 C 1451.3 2617.0, 1629.1 2681.9, 1747.6 2544.6 C 1874.6 2578.8, 2052.4 2787.7, 2170.9 2540.7 C 2297.9 2519.3, 2475.6 2791.5, 2594.1 2612.3 C 2721.1 2592.4, 2898.9 2712.2, 3017.4 2715.9 C 3144.4 2699.4, 3322.1 2628.2, 3440.6 2788.7" fill="none" stroke="url(#ribbon248)" stroke-width="14.4" stroke-linecap="round" stroke-opacity="0.406" /></g></g>
  <g><ellipse cx="1536.0" cy="1551.9" rx="728.6" ry="605.7" fill="url(#extrude248)" opacity="0.220" /><ellipse cx="1536.0" cy="1567.7" rx="736.0" ry="610.9" fill="url(#extrude248)" opacity="0.205" /><ellipse cx="1536.0" cy="1583.6" rx="743.4" ry="616.1" fill="url(#extrude248)" opacity="0.190" /><ellipse cx="1536.0" cy="1599.5" rx="750.9" ry="621.3" fill="url(#extrude248)" opacity="0.175" /><ellipse cx="1536.0" cy="1615.4" rx="758.3" ry="626.5" fill="url(#extrude248)" opacity="0.160" /><ellipse cx="1536.0" cy="1631.2" rx="765.7" ry="631.7" fill="url(#extrude248)" opacity="0.145" /><ellipse cx="1536.0" cy="1647.1" rx="773.2" ry="636.9" fill="url(#extrude248)" opacity="0.130" /><ellipse cx="1536.0" cy="1663.0" rx="780.6" ry="642.1" fill="url(#extrude248)" opacity="0.115" /><ellipse cx="1536.0" cy="1678.8" rx="788.0" ry="647.4" fill="url(#extrude248)" opacity="0.100" /><ellipse cx="1536.0" cy="1694.7" rx="795.5" ry="652.6" fill="url(#extrude248)" opacity="0.085" /><ellipse cx="1536.0" cy="1710.6" rx="802.9" ry="657.8" fill="url(#extrude248)" opacity="0.070" /><ellipse cx="1536.0" cy="1726.5" rx="810.3" ry="663.0" fill="url(#extrude248)" opacity="0.055" /></g>
  <ellipse cx="1536.0" cy="1726.5" rx="773.2" ry="214.9" fill="#0B1D2D" opacity="0.24" />
  <ellipse cx="1536.0" cy="1536.0" rx="743.4" ry="651.3" fill="url(#orb248)" stroke="#FFFFFF" stroke-opacity="0.42" stroke-width="7" />
  <ellipse cx="1431.9" cy="1392.7" rx="505.5" ry="299.6" fill="#FFFFFF" opacity="0.25" />
  <path d="M 199.4 399.4 C 1013.8 -30.7, 2058.2 768.0, 2872.6 215.0 L 2872.6 983.0 C 2089.0 1228.8, 1013.8 307.2, 199.4 1167.4 Z" fill="url(#glass248)" />
  <rect x="270" y="270" width="2532" height="2532" rx="430" fill="none" stroke="#FFFFFF" stroke-opacity="0.30" stroke-width="5" />
  <rect x="288.4" y="288.4" width="2495.1" height="2495.1" rx="399" fill="none" stroke="#FF6AB3" stroke-opacity="0.35" stroke-width="3" />
  <g filter="url(#soft248)"><rect x="880" y="1300" width="30" height="2" fill="#FFFFFF" opacity="0.840" /><rect x="894" y="1286" width="2" height="30" fill="#FFFFFF" opacity="0.840" /><rect x="1936" y="642" width="42" height="2" fill="#FFFFFF" opacity="0.676" /><rect x="1956" y="622" width="2" height="42" fill="#FFFFFF" opacity="0.676" /><rect x="1985" y="2114" width="38" height="2" fill="#FFFFFF" opacity="0.501" /><rect x="2003" y="2096" width="2" height="38" fill="#FFFFFF" opacity="0.501" /><rect x="2496" y="2691" width="38" height="2" fill="#FFFFFF" opacity="0.641" /><rect x="2514" y="2673" width="2" height="38" fill="#FFFFFF" opacity="0.641" /><rect x="1885" y="2332" width="54" height="2" fill="#FFFFFF" opacity="0.595" /><rect x="1911" y="2306" width="2" height="54" fill="#FFFFFF" opacity="0.595" /><rect x="1628" y="1125" width="40" height="2" fill="#FFFFFF" opacity="0.777" /><rect x="1647" y="1106" width="2" height="40" fill="#FFFFFF" opacity="0.777" /><rect x="1185" y="2441" width="72" height="2" fill="#FFFFFF" opacity="0.334" /><rect x="1220" y="2406" width="2" height="72" fill="#FFFFFF" opacity="0.334" /><rect x="2434" y="1984" width="82" height="2" fill="#FFFFFF" opacity="0.735" /><rect x="2474" y="1944" width="2" height="82" fill="#FFFFFF" opacity="0.735" /><rect x="1293" y="1176" width="76" height="2" fill="#FFFFFF" opacity="0.779" /><rect x="1330" y="1139" width="2" height="76" fill="#FFFFFF" opacity="0.779" /><rect x="1141" y="859" width="48" height="2" fill="#FFFFFF" opacity="0.690" /><rect x="1164" y="836" width="2" height="48" fill="#FFFFFF" opacity="0.690" /><rect x="2016" y="2410" width="70" height="2" fill="#FFFFFF" opacity="0.678" /><rect x="2050" y="2376" width="2" height="70" fill="#FFFFFF" opacity="0.678" /><rect x="1300" y="1201" width="56" height="2" fill="#FFFFFF" opacity="0.353" /><rect x="1327" y="1174" width="2" height="56" fill="#FFFFFF" opacity="0.353" /><rect x="1245" y="796" width="74" height="2" fill="#FFFFFF" opacity="0.594" /><rect x="1281" y="760" width="2" height="74" fill="#FFFFFF" opacity="0.594" /><rect x="2700" y="1295" width="82" height="2" fill="#FFFFFF" opacity="0.786" /><rect x="2740" y="1255" width="2" height="82" fill="#FFFFFF" opacity="0.786" /><rect x="1724" y="1569" width="74" height="2" fill="#FFFFFF" opacity="0.464" /><rect x="1760" y="1533" width="2" height="74" fill="#FFFFFF" opacity="0.464" /><rect x="2191" y="288" width="30" height="2" fill="#FFFFFF" opacity="0.735" /><rect x="2205" y="274" width="2" height="30" fill="#FFFFFF" opacity="0.735" /><rect x="2207" y="1461" width="58" height="2" fill="#FFFFFF" opacity="0.496" /><rect x="2235" y="1433" width="2" height="58" fill="#FFFFFF" opacity="0.496" /><rect x="1446" y="596" width="64" height="2" fill="#FFFFFF" opacity="0.707" /><rect x="1477" y="565" width="2" height="64" fill="#FFFFFF" opacity="0.707" /><rect x="728" y="1263" width="58" height="2" fill="#FFFFFF" opacity="0.445" /><rect x="756" y="1235" width="2" height="58" fill="#FFFFFF" opacity="0.445" /><rect x="2122" y="1651" width="30" height="2" fill="#FFFFFF" opacity="0.481" /><rect x="2136" y="1637" width="2" height="30" fill="#FFFFFF" opacity="0.481" /><rect x="2510" y="2165" width="42" height="2" fill="#FFFFFF" opacity="0.580" /><rect x="2530" y="2145" width="2" height="42" fill="#FFFFFF" opacity="0.580" /><rect x="2491" y="2618" width="28" height="2" fill="#FFFFFF" opacity="0.497" /><rect x="2504" y="2605" width="2" height="28" fill="#FFFFFF" opacity="0.497" /><rect x="2089" y="1006" width="58" height="2" fill="#FFFFFF" opacity="0.480" /><rect x="2117" y="978" width="2" height="58" fill="#FFFFFF" opacity="0.480" /><rect x="1617" y="1499" width="48" height="2" fill="#FFFFFF" opacity="0.539" /><rect x="1640" y="1476" width="2" height="48" fill="#FFFFFF" opacity="0.539" /><rect x="396" y="2041" width="44" height="2" fill="#FFFFFF" opacity="0.617" /><rect x="417" y="2020" width="2" height="44" fill="#FFFFFF" opacity="0.617" /><rect x="345" y="687" width="24" height="2" fill="#FFFFFF" opacity="0.641" /><rect x="356" y="676" width="2" height="24" fill="#FFFFFF" opacity="0.641" /></g>
  <g opacity="0.52"><path d="M1023 1326 L1572 1070 L2121 1326 L2121 2043 L1023 2043 Z" fill="none" stroke="#0C2030" stroke-width="90" stroke-linejoin="round" /><line x1="1572" y1="1070" x2="1572" y2="2043" stroke="#0C2030" stroke-width="88" /></g>
  <g filter="url(#soft248)"><path d="M987 1280 L1536 1024 L2085 1280 L2085 1997 L987 1997 Z" fill="none" stroke="url(#symbol248)" stroke-width="90" stroke-linejoin="round" /><line x1="1536" y1="1024" x2="1536" y2="1997" stroke="url(#symbol248)" stroke-width="88" /></g>
  <rect x="138" y="138" width="2796" height="2796" rx="629" fill="#FFFFFF" filter="url(#grain248)" opacity="0.18" />
</svg>
