<svg xmlns="http://www.w3.org/2000/svg" width="3072" height="3072" viewBox="0 0 3072 3072">
  <title>QuartzOS App Icon 109 - lumen_cloud_109</title>
  <defs><linearGradient id="bg108" x1="0%" y1="0%" x2="100%" y2="100%"><stop offset="0%" stop-color="#FF6AB3" /><stop offset="26%" stop-color="#FFD84D" /><stop offset="56%" stop-color="#36D1FF" /><stop offset="78%" stop-color="#4E8FC5" /><stop offset="100%" stop-color="#10243A" /></linearGradient><radialGradient id="sun108" cx="29%" cy="23%" r="88%"><stop offset="0%" stop-color="#FFFFFF" stop-opacity="0.62" /><stop offset="30%" stop-color="#3B82FF" stop-opacity="0.35" /><stop offset="100%" stop-color="#3B82FF" stop-opacity="0" /></radialGradient><linearGradient id="glass108" x1="0%" y1="0%" x2="0%" y2="100%"><stop offset="0%" stop-color="#FFFFFF" stop-opacity="0.70" /><stop offset="46%" stop-color="#FFFFFF" stop-opacity="0.26" /><stop offset="100%" stop-color="#FFFFFF" stop-opacity="0.00" /></linearGradient><linearGradient id="ribbon108" x1="0%" y1="0%" x2="100%" y2="0%"><stop offset="0%" stop-color="#FF6AB3" stop-opacity="0.18" /><stop offset="34%" stop-color="#FFD84D" stop-opacity="0.72" /><stop offset="66%" stop-color="#36D1FF" stop-opacity="0.72" /><stop offset="100%" stop-color="#3B82FF" stop-opacity="0.18" /></linearGradient><radialGradient id="orb108" cx="34%" cy="27%" r="74%"><stop offset="0%" stop-color="#FFFFFF" stop-opacity="0.84" /><stop offset="30%" stop-color="#FF6AB3" stop-opacity="0.52" /><stop offset="68%" stop-color="#FFD84D" stop-opacity="0.42" /><stop offset="100%" stop-color="#36D1FF" stop-opacity="0.20" /></radialGradient><linearGradient id="extrude108" x1="0%" y1="0%" x2="0%" y2="100%"><stop offset="0%" stop-color="#15283C" stop-opacity="0.45" /><stop offset="100%" stop-color="#08131D" stop-opacity="0.06" /></linearGradient><linearGradient id="symbol108" x1="0%" y1="0%" x2="100%" y2="100%"><stop offset="0%" stop-color="#FFFFFF" /><stop offset="100%" stop-color="#3B82FF" /></linearGradient><filter id="shadow108" x="-40%" y="-40%" width="180%" height="180%"><feDropShadow dx="0" dy="49" stdDeviation="86" flood-color="#06111A" flood-opacity="0.54" /></filter><filter id="soft108" x="-40%" y="-40%" width="180%" height="180%"><feDropShadow dx="0" dy="0" stdDeviation="14" flood-color="#FF6AB3" flood-opacity="0.45" /></filter><filter id="grain108"><feTurbulence type="fractalNoise" baseFrequency="0.813" numOctaves="2" seed="108" /><feColorMatrix type="saturate" values="0" /><feComponentTransfer><feFuncA type="table" tableValues="0 0.09" /></feComponentTransfer></filter></defs>
  <rect x="138" y="138" width="2796" height="2796" rx="629" fill="url(#bg108)" filter="url(#shadow108)" />
  <rect x="138" y="138" width="2796" height="2796" rx="629" fill="url(#sun108)" />
  <g><circle cx="1335" cy="1494" r="39" fill="#FFFFFF" opacity="0.178" /><circle cx="2539" cy="598" r="79" fill="#FFFFFF" opacity="0.201" /><circle cx="1200" cy="2420" r="115" fill="#FFFFFF" opacity="0.118" /><circle cx="1745" cy="913" r="88" fill="#FFFFFF" opacity="0.098" /><circle cx="2327" cy="2581" r="107" fill="#FFFFFF" opacity="0.142" /><circle cx="2280" cy="1604" r="121" fill="#FFFFFF" opacity="0.199" /><circle cx="2231" cy="1895" r="84" fill="#FFFFFF" opacity="0.189" /><circle cx="400" cy="1500" r="150" fill="#FFFFFF" opacity="0.098" /><circle cx="883" cy="1535" r="85" fill="#FFFFFF" opacity="0.143" /><circle cx="1277" cy="1802" r="61" fill="#FFFFFF" opacity="0.184" /><circle cx="2283" cy="956" r="110" fill="#FFFFFF" opacity="0.087" /><circle cx="803" cy="489" r="111" fill="#FFFFFF" opacity="0.125" /><circle cx="1007" cy="466" r="105" fill="#FFFFFF" opacity="0.160" /><circle cx="1383" cy="1851" r="151" fill="#FFFFFF" opacity="0.190" /><circle cx="409" cy="2148" r="92" fill="#FFFFFF" opacity="0.201" /><circle cx="1040" cy="414" r="93" fill="#FFFFFF" opacity="0.203" /><circle cx="1798" cy="1945" r="50" fill="#FFFFFF" opacity="0.083" /><circle cx="2500" cy="1558" r="139" fill="#FFFFFF" opacity="0.085" /><circle cx="1920" cy="1666" r="56" fill="#FFFFFF" opacity="0.187" /><circle cx="2577" cy="2140" r="149" fill="#FFFFFF" opacity="0.174" /><circle cx="1100" cy="2566" r="61" fill="#FFFFFF" opacity="0.224" /><circle cx="1559" cy="631" r="137" fill="#FFFFFF" opacity="0.082" /><circle cx="1021" cy="2080" r="42" fill="#FFFFFF" opacity="0.190" /><circle cx="2226" cy="810" r="144" fill="#FFFFFF" opacity="0.208" /><circle cx="1483" cy="879" r="46" fill="#FFFFFF" opacity="0.196" /><circle cx="841" cy="1823" r="135" fill="#FFFFFF" opacity="0.164" /><circle cx="804" cy="1103" r="107" fill="#FFFFFF" opacity="0.095" /><circle cx="472" cy="981" r="134" fill="#FFFFFF" opacity="0.224" /></g>
  <g><path d="M 170.9 641.3 L 2724.2 364.8 L 2724.2 820.6 L 170.9 1097.1 Z" fill="#FFFFFF" opacity="0.211" /><path d="M 340.7 898.2 L 2904.3 621.7 L 2904.3 1045.7 L 340.7 1322.2 Z" fill="#FFFFFF" opacity="0.188" /><path d="M 352.7 1129.4 L 2687.0 852.9 L 2687.0 1280.2 L 352.7 1556.7 Z" fill="#FFFFFF" opacity="0.197" /><path d="M 170.2 1434.6 L 2798.2 1158.2 L 2798.2 1593.6 L 170.2 1870.1 Z" fill="#FFFFFF" opacity="0.183" /><path d="M 172.0 1668.2 L 2905.9 1391.7 L 2905.9 1882.1 L 172.0 2158.6 Z" fill="#FFFFFF" opacity="0.172" /><path d="M 287.0 1938.9 L 2810.1 1662.5 L 2810.1 2143.9 L 287.0 2420.4 Z" fill="#FFFFFF" opacity="0.146" /><path d="M 152.8 2174.7 L 2908.3 1898.2 L 2908.3 2325.9 L 152.8 2602.4 Z" fill="#FFFFFF" opacity="0.112" /><path d="M 336.7 2433.0 L 2810.4 2156.6 L 2810.4 2618.6 L 336.7 2895.1 Z" fill="#FFFFFF" opacity="0.156" /></g>
  <g filter="url(#soft108)"><g transform="rotate(-8.08 1536.0 1536.0)"><path d="M-368.6 492.6 C -225.8 527.6, -25.8 450.2, 107.5 507.8 C 250.4 510.5, 450.4 483.1, 583.7 465.1 C 726.5 463.3, 926.5 504.2, 1059.8 439.0 C 1202.7 425.9, 1402.7 532.7, 1536.0 445.5 C 1678.8 453.5, 1878.8 510.6, 2012.2 480.6 C 2155.0 481.5, 2355.0 499.4, 2488.3 522.9 C 2631.2 522.8, 2831.2 458.7, 2964.5 546.9 C 3107.3 542.7, 3307.3 455.8, 3440.6 538.0" fill="none" stroke="url(#ribbon108)" stroke-width="58.4" stroke-linecap="round" stroke-opacity="0.120" /></g><g transform="rotate(-7.50 1536.0 1536.0)"><path d="M-368.6 696.0 C -241.7 631.6, -63.9 749.7, 54.6 635.3 C 181.6 623.3, 359.4 733.4, 477.9 663.9 C 604.8 658.8, 782.6 733.0, 901.1 712.0 C 1028.1 706.1, 1205.9 685.2, 1324.4 750.4 C 1451.3 767.3, 1629.1 675.5, 1747.6 755.8 C 1874.6 762.1, 2052.4 639.9, 2170.9 725.0 C 2297.9 730.6, 2475.6 686.3, 2594.1 676.6 C 2721.1 678.6, 2898.9 708.4, 3017.4 640.0 C 3144.4 626.0, 3322.1 757.1, 3440.6 637.4" fill="none" stroke="url(#ribbon108)" stroke-width="54.4" stroke-linecap="round" stroke-opacity="0.146" /></g><g transform="rotate(-6.92 1536.0 1536.0)"><path d="M-368.6 894.1 C -254.4 830.7, -94.4 954.5, 12.3 825.6 C 126.6 830.9, 286.6 933.0, 393.2 854.6 C 507.5 859.9, 667.5 915.5, 774.1 907.6 C 888.4 903.7, 1048.4 888.1, 1155.1 952.3 C 1269.4 962.7, 1429.3 829.1, 1536.0 961.8 C 1650.3 985.2, 1810.3 859.9, 1916.9 930.2 C 2031.2 939.8, 2191.2 862.5, 2297.9 876.7 C 2412.1 872.2, 2572.1 900.1, 2678.8 833.8 C 2793.1 830.1, 2953.1 920.3, 3059.7 827.4 C 3174.0 803.3, 3334.0 942.3, 3440.6 861.6" fill="none" stroke="url(#ribbon108)" stroke-width="50.4" stroke-linecap="round" stroke-opacity="0.172" /></g><g transform="rotate(-6.34 1536.0 1536.0)"><path d="M-368.6 1105.8 C -264.8 1043.6, -119.3 1170.2, -22.3 1029.3 C 81.5 1001.2, 227.0 1152.2, 324.0 1053.7 C 427.8 1035.6, 573.3 1129.6, 670.3 1109.6 C 774.1 1111.1, 919.6 1104.1, 1016.6 1163.3 C 1120.4 1174.6, 1265.9 1083.5, 1362.9 1182.0 C 1466.7 1188.8, 1612.2 1061.9, 1709.1 1154.5 C 1813.0 1170.1, 1958.5 1069.8, 2055.4 1097.4 C 2159.3 1100.6, 2304.8 1111.8, 2401.7 1045.4 C 2505.6 1064.2, 2651.1 1134.1, 2748.0 1030.0 C 2851.9 1027.8, 2997.4 1150.3, 3094.3 1060.5 C 3198.2 1066.5, 3343.7 1129.2, 3440.6 1118.5" fill="none" stroke="url(#ribbon108)" stroke-width="46.4" stroke-linecap="round" stroke-opacity="0.198" /></g><g transform="rotate(-5.76 1536.0 1536.0)"><path d="M-368.6 1337.8 C -273.4 1373.3, -140.1 1319.8, -51.2 1299.2 C 44.0 1296.6, 177.4 1368.2, 266.2 1257.7 C 361.5 1232.1, 494.8 1379.5, 583.7 1264.8 C 678.9 1265.8, 812.2 1404.0, 901.1 1316.2 C 996.4 1318.8, 1129.7 1357.3, 1218.6 1380.6 C 1313.8 1374.7, 1447.1 1304.3, 1536.0 1419.1 C 1631.2 1448.6, 1764.6 1306.7, 1853.4 1408.3 C 1948.7 1418.9, 2082.0 1267.4, 2170.9 1354.7 C 2266.1 1349.4, 2399.4 1327.9, 2488.3 1290.8 C 2583.6 1300.1, 2716.9 1386.2, 2805.8 1255.5 C 2901.0 1230.2, 3034.3 1404.1, 3123.2 1270.1 C 3218.4 1246.3, 3351.8 1405.4, 3440.6 1325.7" fill="none" stroke="url(#ribbon108)" stroke-width="42.4" stroke-linecap="round" stroke-opacity="0.224" /></g><g transform="rotate(-5.18 1536.0 1536.0)"><path d="M-368.6 1443.8 C -225.8 1368.0, -25.8 1509.3, 107.5 1377.5 C 250.4 1389.5, 450.4 1498.3, 583.7 1442.0 C 726.5 1441.4, 926.5 1445.2, 1059.8 1507.5 C 1202.7 1519.4, 1402.7 1409.4, 1536.0 1534.4 C 1678.8 1544.0, 1878.8 1344.6, 2012.2 1506.4 C 2155.0 1523.8, 2355.0 1384.2, 2488.3 1440.4 C 2631.2 1441.4, 2831.2 1444.8, 2964.5 1376.5 C 3107.3 1358.2, 3307.3 1507.6, 3440.6 1353.4" fill="none" stroke="url(#ribbon108)" stroke-width="38.4" stroke-linecap="round" stroke-opacity="0.250" /></g><g transform="rotate(-4.60 1536.0 1536.0)"><path d="M-368.6 1724.1 C -241.7 1750.9, -63.9 1704.6, 54.6 1681.2 C 181.6 1692.0, 359.4 1744.6, 477.9 1631.3 C 604.8 1606.5, 782.6 1797.2, 901.1 1637.7 C 1028.1 1651.7, 1205.9 1780.8, 1324.4 1696.5 C 1451.3 1692.5, 1629.1 1734.1, 1747.6 1772.1 C 1874.6 1785.8, 2052.4 1694.6, 2170.9 1818.6 C 2297.9 1807.2, 2475.6 1656.2, 2594.1 1807.8 C 2721.1 1776.5, 2898.9 1647.2, 3017.4 1746.2 C 3144.4 1740.5, 3322.1 1712.4, 3440.6 1671.3" fill="none" stroke="url(#ribbon108)" stroke-width="34.4" stroke-linecap="round" stroke-opacity="0.276" /></g><g transform="rotate(-4.02 1536.0 1536.0)"><path d="M-368.6 1931.9 C -254.4 1807.1, -94.4 2029.3, 12.3 1884.2 C 126.6 1876.2, 286.6 1986.4, 393.2 1965.5 C 507.5 1978.0, 667.5 1905.9, 774.1 2026.5 C 888.4 2003.3, 1048.4 1848.6, 1155.1 2030.1 C 1269.4 2053.3, 1429.3 1817.0, 1536.0 1974.2 C 1650.3 1958.8, 1810.3 1904.1, 1916.9 1892.6 C 2031.2 1896.1, 2191.2 1951.0, 2297.9 1834.9 C 2412.1 1829.5, 2572.1 2009.8, 2678.8 1836.0 C 2793.1 1856.1, 2953.1 1994.4, 3059.7 1895.4 C 3174.0 1894.9, 3334.0 1945.5, 3440.6 1976.9" fill="none" stroke="url(#ribbon108)" stroke-width="30.4" stroke-linecap="round" stroke-opacity="0.302" /></g><g transform="rotate(-3.44 1536.0 1536.0)"><path d="M-368.6 2107.3 C -264.8 2246.3, -119.3 2018.1, -22.3 2207.3 C 81.5 2199.8, 227.0 1997.3, 324.0 2141.0 C 427.8 2137.1, 573.3 2072.5, 670.3 2054.3 C 774.1 2067.9, 919.6 2144.0, 1016.6 1999.8 C 1120.4 1979.0, 1265.9 2155.7, 1362.9 2010.4 C 1466.7 1994.3, 1612.2 2174.4, 1709.1 2079.9 C 1813.0 2071.6, 1958.5 2127.4, 2055.4 2166.0 C 2159.3 2171.3, 2304.8 2041.9, 2401.7 2216.5 C 2505.6 2231.3, 2651.1 1985.9, 2748.0 2200.8 C 2851.9 2187.1, 2997.4 2067.3, 3094.3 2128.4 C 3198.2 2121.8, 3343.7 2096.2, 3440.6 2043.2" fill="none" stroke="url(#ribbon108)" stroke-width="26.4" stroke-linecap="round" stroke-opacity="0.328" /></g><g transform="rotate(-2.86 1536.0 1536.0)"><path d="M-368.6 2272.4 C -273.4 2414.2, -140.1 2153.7, -51.2 2368.9 C 44.0 2376.8, 177.4 2167.3, 266.2 2289.8 C 361.5 2293.4, 494.8 2252.9, 583.7 2200.1 C 678.9 2173.0, 812.2 2344.1, 901.1 2154.3 C 996.4 2154.9, 1129.7 2331.8, 1218.6 2180.1 C 1313.8 2189.4, 1447.1 2336.5, 1536.0 2261.8 C 1631.2 2262.3, 1764.6 2277.4, 1853.4 2350.0 C 1948.7 2326.0, 2082.0 2220.2, 2170.9 2391.0 C 2266.1 2426.0, 2399.4 2219.7, 2488.3 2360.1 C 2583.6 2390.7, 2716.9 2223.1, 2805.8 2276.0 C 2901.0 2275.3, 3034.3 2270.3, 3123.2 2189.6 C 3218.4 2197.8, 3351.8 2353.8, 3440.6 2153.5" fill="none" stroke="url(#ribbon108)" stroke-width="22.4" stroke-linecap="round" stroke-opacity="0.354" /></g><g transform="rotate(-2.28 1536.0 1536.0)"><path d="M-368.6 2510.0 C -225.8 2653.4, -25.8 2397.0, 107.5 2533.4 C 250.4 2538.3, 450.4 2495.4, 583.7 2437.5 C 726.5 2423.8, 926.5 2596.5, 1059.8 2385.6 C 1202.7 2383.5, 1402.7 2614.2, 1536.0 2409.2 C 1678.8 2437.3, 1878.8 2577.1, 2012.2 2493.9 C 2155.0 2487.9, 2355.0 2528.4, 2488.3 2588.4 C 2631.2 2564.2, 2831.2 2468.3, 2964.5 2635.4 C 3107.3 2627.7, 3307.3 2454.2, 3440.6 2606.3" fill="none" stroke="url(#ribbon108)" stroke-width="18.4" stroke-linecap="round" stroke-opacity="0.380" /></g><g transform="rotate(-1.70 1536.0 1536.0)"><path d="M-368.6 2685.5 C -241.7 2724.9, -63.9 2628.1, 54.6 2642.2 C 181.6 2641.5, 359.4 2723.1, 477.9 2565.1 C 604.8 2541.8, 782.6 2733.2, 901.1 2561.0 C 1028.1 2516.7, 1205.9 2796.8, 1324.4 2632.4 C 1451.3 2647.8, 1629.1 2714.2, 1747.6 2736.0 C 1874.6 2717.0, 2052.4 2641.8, 2170.9 2809.0 C 2297.9 2823.6, 2475.6 2559.9, 2594.1 2807.0 C 2721.1 2828.1, 2898.9 2579.5, 3017.4 2731.3 C 3144.4 2723.7, 3322.1 2646.1, 3440.6 2627.9" fill="none" stroke="url(#ribbon108)" stroke-width="14.4" stroke-linecap="round" stroke-opacity="0.406" /></g></g>
  <g><ellipse cx="1536.0" cy="1551.9" rx="728.6" ry="605.7" fill="url(#extrude108)" opacity="0.220" /><ellipse cx="1536.0" cy="1567.7" rx="736.0" ry="610.9" fill="url(#extrude108)" opacity="0.205" /><ellipse cx="1536.0" cy="1583.6" rx="743.4" ry="616.1" fill="url(#extrude108)" opacity="0.190" /><ellipse cx="1536.0" cy="1599.5" rx="750.9" ry="621.3" fill="url(#extrude108)" opacity="0.175" /><ellipse cx="1536.0" cy="1615.4" rx="758.3" ry="626.5" fill="url(#extrude108)" opacity="0.160" /><ellipse cx="1536.0" cy="1631.2" rx="765.7" ry="631.7" fill="url(#extrude108)" opacity="0.145" /><ellipse cx="1536.0" cy="1647.1" rx="773.2" ry="636.9" fill="url(#extrude108)" opacity="0.130" /><ellipse cx="1536.0" cy="1663.0" rx="780.6" ry="642.1" fill="url(#extrude108)" opacity="0.115" /><ellipse cx="1536.0" cy="1678.8" rx="788.0" ry="647.4" fill="url(#extrude108)" opacity="0.100" /><ellipse cx="1536.0" cy="1694.7" rx="795.5" ry="652.6" fill="url(#extrude108)" opacity="0.085" /><ellipse cx="1536.0" cy="1710.6" rx="802.9" ry="657.8" fill="url(#extrude108)" opacity="0.070" /><ellipse cx="1536.0" cy="1726.5" rx="810.3" ry="663.0" fill="url(#extrude108)" opacity="0.055" /></g>
  <ellipse cx="1536.0" cy="1726.5" rx="773.2" ry="214.9" fill="#0B1D2D" opacity="0.24" />
  <ellipse cx="1536.0" cy="1536.0" rx="743.4" ry="651.3" fill="url(#orb108)" stroke="#FFFFFF" stroke-opacity="0.42" stroke-width="7" />
  <ellipse cx="1431.9" cy="1392.7" rx="505.5" ry="299.6" fill="#FFFFFF" opacity="0.25" />
  <path d="M 199.4 399.4 C 1013.8 -30.7, 2058.2 768.0, 2872.6 215.0 L 2872.6 983.0 C 2089.0 1228.8, 1013.8 307.2, 199.4 1167.4 Z" fill="url(#glass108)" />
  <rect x="270" y="270" width="2532" height="2532" rx="430" fill="none" stroke="#FFFFFF" stroke-opacity="0.30" stroke-width="5" />
  <rect x="288.4" y="288.4" width="2495.1" height="2495.1" rx="399" fill="none" stroke="#FF6AB3" stroke-opacity="0.35" stroke-width="3" />
  <g filter="url(#soft108)"><rect x="1631" y="937" width="50" height="2" fill="#FFFFFF" opacity="0.536" /><rect x="1655" y="913" width="2" height="50" fill="#FFFFFF" opacity="0.536" /><rect x="460" y="2184" width="32" height="2" fill="#FFFFFF" opacity="0.426" /><rect x="475" y="2169" width="2" height="32" fill="#FFFFFF" opacity="0.426" /><rect x="1180" y="2183" width="72" height="2" fill="#FFFFFF" opacity="0.645" /><rect x="1215" y="2148" width="2" height="72" fill="#FFFFFF" opacity="0.645" /><rect x="1804" y="381" width="58" height="2" fill="#FFFFFF" opacity="0.729" /><rect x="1832" y="353" width="2" height="58" fill="#FFFFFF" opacity="0.729" /><rect x="1894" y="1944" width="60" height="2" fill="#FFFFFF" opacity="0.355" /><rect x="1923" y="1915" width="2" height="60" fill="#FFFFFF" opacity="0.355" /><rect x="634" y="961" width="70" height="2" fill="#FFFFFF" opacity="0.385" /><rect x="668" y="927" width="2" height="70" fill="#FFFFFF" opacity="0.385" /><rect x="1651" y="1978" width="76" height="2" fill="#FFFFFF" opacity="0.500" /><rect x="1688" y="1941" width="2" height="76" fill="#FFFFFF" opacity="0.500" /><rect x="429" y="2417" width="60" height="2" fill="#FFFFFF" opacity="0.528" /><rect x="458" y="2388" width="2" height="60" fill="#FFFFFF" opacity="0.528" /><rect x="1045" y="2697" width="76" height="2" fill="#FFFFFF" opacity="0.585" /><rect x="1082" y="2660" width="2" height="76" fill="#FFFFFF" opacity="0.585" /><rect x="1503" y="635" width="48" height="2" fill="#FFFFFF" opacity="0.787" /><rect x="1526" y="612" width="2" height="48" fill="#FFFFFF" opacity="0.787" /><rect x="373" y="378" width="84" height="2" fill="#FFFFFF" opacity="0.357" /><rect x="414" y="337" width="2" height="84" fill="#FFFFFF" opacity="0.357" /><rect x="993" y="1303" width="78" height="2" fill="#FFFFFF" opacity="0.446" /><rect x="1031" y="1265" width="2" height="78" fill="#FFFFFF" opacity="0.446" /><rect x="1341" y="900" width="56" height="2" fill="#FFFFFF" opacity="0.301" /><rect x="1368" y="873" width="2" height="56" fill="#FFFFFF" opacity="0.301" /><rect x="2533" y="982" width="54" height="2" fill="#FFFFFF" opacity="0.754" /><rect x="2559" y="956" width="2" height="54" fill="#FFFFFF" opacity="0.754" /><rect x="572" y="2160" width="76" height="2" fill="#FFFFFF" opacity="0.522" /><rect x="609" y="2123" width="2" height="76" fill="#FFFFFF" opacity="0.522" /><rect x="2551" y="2342" width="30" height="2" fill="#FFFFFF" opacity="0.664" /><rect x="2565" y="2328" width="2" height="30" fill="#FFFFFF" opacity="0.664" /><rect x="546" y="573" width="28" height="2" fill="#FFFFFF" opacity="0.770" /><rect x="559" y="560" width="2" height="28" fill="#FFFFFF" opacity="0.770" /><rect x="1504" y="586" width="76" height="2" fill="#FFFFFF" opacity="0.303" /><rect x="1541" y="549" width="2" height="76" fill="#FFFFFF" opacity="0.303" /><rect x="2020" y="1499" width="74" height="2" fill="#FFFFFF" opacity="0.485" /><rect x="2056" y="1463" width="2" height="74" fill="#FFFFFF" opacity="0.485" /><rect x="2079" y="1526" width="52" height="2" fill="#FFFFFF" opacity="0.630" /><rect x="2104" y="1501" width="2" height="52" fill="#FFFFFF" opacity="0.630" /><rect x="1561" y="879" width="50" height="2" fill="#FFFFFF" opacity="0.538" /><rect x="1585" y="855" width="2" height="50" fill="#FFFFFF" opacity="0.538" /><rect x="1553" y="764" width="76" height="2" fill="#FFFFFF" opacity="0.379" /><rect x="1590" y="727" width="2" height="76" fill="#FFFFFF" opacity="0.379" /><rect x="612" y="1013" width="46" height="2" fill="#FFFFFF" opacity="0.603" /><rect x="634" y="991" width="2" height="46" fill="#FFFFFF" opacity="0.603" /><rect x="1758" y="2076" width="78" height="2" fill="#FFFFFF" opacity="0.733" /><rect x="1796" y="2038" width="2" height="78" fill="#FFFFFF" opacity="0.733" /><rect x="1959" y="2580" width="34" height="2" fill="#FFFFFF" opacity="0.409" /><rect x="1975" y="2564" width="2" height="34" fill="#FFFFFF" opacity="0.409" /><rect x="587" y="1952" width="72" height="2" fill="#FFFFFF" opacity="0.689" /><rect x="622" y="1917" width="2" height="72" fill="#FFFFFF" opacity="0.689" /></g>
  <g opacity="0.52"><circle cx="1572" cy="1582" r="307" fill="none" stroke="#0C2030" stroke-width="90" /><line x1="1791" y1="1801" x2="2340" y2="2350" stroke="#0C2030" stroke-width="90" stroke-linecap="round" /></g>
  <g filter="url(#soft108)"><circle cx="1536" cy="1536" r="307" fill="none" stroke="url(#symbol108)" stroke-width="90" /><line x1="1755" y1="1755" x2="2304" y2="2304" stroke="url(#symbol108)" stroke-width="90" stroke-linecap="round" /></g>
  <rect x="138" y="138" width="2796" height="2796" rx="629" fill="#FFFFFF" filter="url(#grain108)" opacity="0.18" />
</svg>
