<svg xmlns="http://www.w3.org/2000/svg" width="3072" height="3072" viewBox="0 0 3072 3072">
  <title>QuartzOS App Icon 289 - lumen_settings_289</title>
  <defs><linearGradient id="bg288" x1="0%" y1="0%" x2="100%" y2="100%"><stop offset="0%" stop-color="#3B82FF" /><stop offset="26%" stop-color="#FF6AB3" /><stop offset="56%" stop-color="#FFD84D" /><stop offset="78%" stop-color="#4E8FC5" /><stop offset="100%" stop-color="#10243A" /></linearGradient><radialGradient id="sun288" cx="24%" cy="34%" r="88%"><stop offset="0%" stop-color="#FFFFFF" stop-opacity="0.62" /><stop offset="30%" stop-color="#53E3A6" stop-opacity="0.35" /><stop offset="100%" stop-color="#53E3A6" stop-opacity="0" /></radialGradient><linearGradient id="glass288" x1="0%" y1="0%" x2="0%" y2="100%"><stop offset="0%" stop-color="#FFFFFF" stop-opacity="0.70" /><stop offset="46%" stop-color="#FFFFFF" stop-opacity="0.26" /><stop offset="100%" stop-color="#FFFFFF" stop-opacity="0.00" /></linearGradient><linearGradient id="ribbon288" x1="0%" y1="0%" x2="100%" y2="0%"><stop offset="0%" stop-color="#3B82FF" stop-opacity="0.18" /><stop offset="34%" stop-color="#FF6AB3" stop-opacity="0.72" /><stop offset="66%" stop-color="#FFD84D" stop-opacity="0.72" /><stop offset="100%" stop-color="#53E3A6" stop-opacity="0.18" /></linearGradient><radialGradient id="orb288" cx="34%" cy="27%" r="74%"><stop offset="0%" stop-color="#FFFFFF" stop-opacity="0.84" /><stop offset="30%" stop-color="#3B82FF" stop-opacity="0.52" /><stop offset="68%" stop-color="#FF6AB3" stop-opacity="0.42" /><stop offset="100%" stop-color="#FFD84D" stop-opacity="0.20" /></radialGradient><linearGradient id="extrude288" x1="0%" y1="0%" x2="0%" y2="100%"><stop offset="0%" stop-color="#15283C" stop-opacity="0.45" /><stop offset="100%" stop-color="#08131D" stop-opacity="0.06" /></linearGradient><linearGradient id="symbol288" x1="0%" y1="0%" x2="100%" y2="100%"><stop offset="0%" stop-color="#FFFFFF" /><stop offset="100%" stop-color="#53E3A6" /></linearGradient><filter id="shadow288" x="-40%" y="-40%" width="180%" height="180%"><feDropShadow dx="0" dy="49" stdDeviation="86" flood-color="#06111A" flood-opacity="0.54" /></filter><filter id="soft288" x="-40%" y="-40%" width="180%" height="180%"><feDropShadow dx="0" dy="0" stdDeviation="14" flood-color="#3B82FF" flood-opacity="0.45" /></filter><filter id="grain288"><feTurbulence type="fractalNoise" baseFrequency="0.644" numOctaves="2" seed="288" /><feColorMatrix type="saturate" values="0" /><feComponentTransfer><feFuncA type="table" tableValues="0 0.09" /></feComponentTransfer></filter></defs>
  <rect x="138" y="138" width="2796" height="2796" rx="629" fill="url(#bg288)" filter="url(#shadow288)" />
  <rect x="138" y="138" width="2796" height="2796" rx="629" fill="url(#sun288)" />
  <g><circle cx="2042" cy="2444" r="128" fill="#FFFFFF" opacity="0.141" /><circle cx="1361" cy="1188" r="60" fill="#FFFFFF" opacity="0.133" /><circle cx="2599" cy="771" r="143" fill="#FFFFFF" opacity="0.091" /><circle cx="1077" cy="2358" r="112" fill="#FFFFFF" opacity="0.215" /><circle cx="1807" cy="1662" r="125" fill="#FFFFFF" opacity="0.180" /><circle cx="739" cy="1370" r="46" fill="#FFFFFF" opacity="0.129" /><circle cx="1307" cy="2102" r="75" fill="#FFFFFF" opacity="0.066" /><circle cx="2691" cy="526" r="74" fill="#FFFFFF" opacity="0.175" /><circle cx="1843" cy="2308" r="116" fill="#FFFFFF" opacity="0.160" /><circle cx="578" cy="675" r="46" fill="#FFFFFF" opacity="0.215" /><circle cx="2573" cy="1333" r="144" fill="#FFFFFF" opacity="0.186" /><circle cx="2075" cy="2583" r="124" fill="#FFFFFF" opacity="0.166" /><circle cx="1695" cy="612" r="105" fill="#FFFFFF" opacity="0.069" /><circle cx="1565" cy="1865" r="102" fill="#FFFFFF" opacity="0.092" /><circle cx="718" cy="1064" r="147" fill="#FFFFFF" opacity="0.226" /><circle cx="835" cy="1434" r="93" fill="#FFFFFF" opacity="0.088" /><circle cx="710" cy="942" r="53" fill="#FFFFFF" opacity="0.226" /><circle cx="721" cy="750" r="109" fill="#FFFFFF" opacity="0.124" /><circle cx="2193" cy="1625" r="149" fill="#FFFFFF" opacity="0.096" /><circle cx="1076" cy="2572" r="154" fill="#FFFFFF" opacity="0.218" /><circle cx="1683" cy="2172" r="132" fill="#FFFFFF" opacity="0.168" /><circle cx="2055" cy="1312" r="63" fill="#FFFFFF" opacity="0.220" /><circle cx="1213" cy="1820" r="120" fill="#FFFFFF" opacity="0.165" /><circle cx="2038" cy="870" r="99" fill="#FFFFFF" opacity="0.091" /><circle cx="500" cy="829" r="113" fill="#FFFFFF" opacity="0.235" /><circle cx="1536" cy="2082" r="74" fill="#FFFFFF" opacity="0.162" /><circle cx="2084" cy="2078" r="68" fill="#FFFFFF" opacity="0.151" /><circle cx="1414" cy="497" r="80" fill="#FFFFFF" opacity="0.088" /></g>
  <g><path d="M 262.2 611.3 L 2841.7 334.8 L 2841.7 769.3 L 262.2 1045.7 Z" fill="#FFFFFF" opacity="0.220" /><path d="M 320.3 882.1 L 2751.0 605.6 L 2751.0 1073.5 L 320.3 1350.0 Z" fill="#FFFFFF" opacity="0.086" /><path d="M 289.5 1097.2 L 2780.5 820.7 L 2780.5 1271.3 L 289.5 1547.8 Z" fill="#FFFFFF" opacity="0.198" /><path d="M 343.4 1393.6 L 2693.4 1117.1 L 2693.4 1596.1 L 343.4 1872.6 Z" fill="#FFFFFF" opacity="0.172" /><path d="M 314.3 1697.6 L 2754.9 1421.1 L 2754.9 1909.1 L 314.3 2185.6 Z" fill="#FFFFFF" opacity="0.114" /><path d="M 382.6 1874.3 L 2782.0 1597.9 L 2782.0 2094.1 L 382.6 2370.6 Z" fill="#FFFFFF" opacity="0.187" /><path d="M 154.6 2222.5 L 2872.2 1946.0 L 2872.2 2401.7 L 154.6 2678.2 Z" fill="#FFFFFF" opacity="0.203" /><path d="M 380.4 2417.4 L 2802.2 2140.9 L 2802.2 2566.5 L 380.4 2842.9 Z" fill="#FFFFFF" opacity="0.220" /></g>
  <g filter="url(#soft288)"><g transform="rotate(-10.46 1536.0 1536.0)"><path d="M-368.6 548.6 C -225.8 601.4, -25.8 504.5, 107.5 587.3 C 250.4 575.0, 450.4 522.3, 583.7 547.2 C 726.5 546.6, 926.5 549.7, 1059.8 508.0 C 1202.7 508.7, 1402.7 579.3, 1536.0 493.4 C 1678.8 513.0, 1878.8 569.4, 2012.2 512.4 C 2155.0 514.2, 2355.0 566.4, 2488.3 553.3 C 2631.2 552.9, 2831.2 544.0, 2964.5 591.4 C 3107.3 580.6, 3307.3 504.2, 3440.6 603.6" fill="none" stroke="url(#ribbon288)" stroke-width="58.4" stroke-linecap="round" stroke-opacity="0.120" /></g><g transform="rotate(-9.88 1536.0 1536.0)"><path d="M-368.6 739.7 C -241.7 767.5, -63.9 698.6, 54.6 801.9 C 181.6 793.6, 359.4 683.6, 477.9 785.5 C 604.8 782.0, 782.6 688.5, 901.1 741.3 C 1028.1 741.2, 1205.9 738.0, 1324.4 696.1 C 1451.3 707.1, 1629.1 753.2, 1747.6 677.3 C 1874.6 661.0, 2052.4 779.7, 2170.9 696.4 C 2297.9 691.0, 2475.6 759.0, 2594.1 741.7 C 2721.1 742.0, 2898.9 737.6, 3017.4 785.8 C 3144.4 785.5, 3322.1 689.0, 3440.6 801.9" fill="none" stroke="url(#ribbon288)" stroke-width="54.4" stroke-linecap="round" stroke-opacity="0.146" /></g><g transform="rotate(-9.30 1536.0 1536.0)"><path d="M-368.6 959.6 C -254.4 891.1, -94.4 982.5, 12.3 905.2 C 126.6 918.2, 286.6 1003.0, 393.2 952.7 C 507.5 955.3, 667.5 962.5, 774.1 1004.3 C 888.4 1016.7, 1048.4 942.5, 1155.1 1028.8 C 1269.4 1053.0, 1429.3 912.1, 1536.0 1011.4 C 1650.3 992.1, 1810.3 923.4, 1916.9 962.5 C 2031.2 963.3, 2191.2 956.3, 2297.9 911.8 C 2412.1 927.6, 2572.1 1012.7, 2678.8 890.2 C 2793.1 907.4, 2953.1 990.7, 3059.7 910.6 C 3174.0 923.6, 3334.0 984.1, 3440.6 960.8" fill="none" stroke="url(#ribbon288)" stroke-width="50.4" stroke-linecap="round" stroke-opacity="0.172" /></g><g transform="rotate(-8.72 1536.0 1536.0)"><path d="M-368.6 1063.1 C -264.8 1040.4, -119.3 1098.3, -22.3 989.6 C 81.5 978.3, 227.0 1119.6, 324.0 996.8 C 427.8 989.7, 573.3 1093.6, 670.3 1044.2 C 774.1 1039.1, 919.6 1076.3, 1016.6 1103.1 C 1120.4 1107.5, 1265.9 1015.3, 1362.9 1137.8 C 1466.7 1135.3, 1612.2 985.2, 1709.1 1127.1 C 1813.0 1113.6, 1958.5 998.7, 2055.4 1077.7 C 2159.3 1072.4, 2304.8 1049.3, 2401.7 1019.4 C 2505.6 1009.5, 2651.1 1076.6, 2748.0 987.6 C 2851.9 971.8, 2997.4 1094.3, 3094.3 1001.7 C 3198.2 1021.4, 3343.7 1134.5, 3440.6 1053.0" fill="none" stroke="url(#ribbon288)" stroke-width="46.4" stroke-linecap="round" stroke-opacity="0.198" /></g><g transform="rotate(-8.14 1536.0 1536.0)"><path d="M-368.6 1293.0 C -273.4 1320.7, -140.1 1262.5, -51.2 1255.3 C 44.0 1267.5, 177.4 1334.5, 266.2 1213.3 C 361.5 1242.1, 494.8 1376.6, 583.7 1219.6 C 678.9 1213.3, 812.2 1344.4, 901.1 1270.6 C 996.4 1277.9, 1129.7 1318.6, 1218.6 1335.1 C 1313.8 1334.4, 1447.1 1250.2, 1536.0 1374.1 C 1631.2 1392.0, 1764.6 1258.7, 1853.4 1364.0 C 1948.7 1362.9, 2082.0 1244.2, 2170.9 1310.8 C 2266.1 1314.2, 2399.4 1283.8, 2488.3 1246.8 C 2583.6 1263.6, 2716.9 1332.1, 2805.8 1210.9 C 2901.0 1188.2, 3034.3 1326.8, 3123.2 1224.8 C 3218.4 1215.9, 3351.8 1321.4, 3440.6 1280.1" fill="none" stroke="url(#ribbon288)" stroke-width="42.4" stroke-linecap="round" stroke-opacity="0.224" /></g><g transform="rotate(-7.56 1536.0 1536.0)"><path d="M-368.6 1475.2 C -225.8 1476.6, -25.8 1474.9, 107.5 1410.9 C 250.4 1411.0, 450.4 1496.7, 583.7 1384.6 C 726.5 1378.3, 926.5 1539.5, 1059.8 1413.3 C 1202.7 1434.1, 1402.7 1537.3, 1536.0 1479.5 C 1678.8 1480.2, 1878.8 1471.3, 2012.2 1543.1 C 2155.0 1530.5, 2355.0 1444.1, 2488.3 1565.6 C 2631.2 1542.9, 2831.2 1385.4, 2964.5 1533.2 C 3107.3 1523.8, 3307.3 1446.3, 3440.6 1465.6" fill="none" stroke="url(#ribbon288)" stroke-width="38.4" stroke-linecap="round" stroke-opacity="0.250" /></g><g transform="rotate(-6.98 1536.0 1536.0)"><path d="M-368.6 1683.8 C -241.7 1774.8, -63.9 1610.7, 54.6 1754.9 C 181.6 1774.1, 359.4 1649.5, 477.9 1685.3 C 604.8 1685.9, 782.6 1683.3, 901.1 1614.8 C 1028.1 1627.9, 1205.9 1727.5, 1324.4 1586.2 C 1451.3 1611.9, 1629.1 1783.7, 1747.6 1616.8 C 1874.6 1610.2, 2052.4 1705.0, 2170.9 1688.1 C 2297.9 1688.2, 2475.6 1680.0, 2594.1 1756.8 C 2721.1 1770.4, 2898.9 1597.3, 3017.4 1781.3 C 3144.4 1804.2, 3322.1 1614.8, 3440.6 1746.6" fill="none" stroke="url(#ribbon288)" stroke-width="34.4" stroke-linecap="round" stroke-opacity="0.276" /></g><g transform="rotate(-6.40 1536.0 1536.0)"><path d="M-368.6 1926.5 C -254.4 1958.7, -94.4 1909.3, 12.3 2021.9 C 126.6 2056.7, 286.6 1859.3, 393.2 2024.0 C 507.5 2019.4, 667.5 1836.7, 774.1 1967.0 C 888.4 1957.3, 1048.4 1905.7, 1155.1 1885.4 C 1269.4 1880.5, 1429.3 1940.7, 1536.0 1828.7 C 1650.3 1861.8, 1810.3 2031.4, 1916.9 1831.4 C 2031.2 1805.4, 2191.2 1996.1, 2297.9 1891.7 C 2412.1 1894.5, 2572.1 1941.1, 2678.8 1973.2 C 2793.1 1969.6, 2953.1 1874.7, 3059.7 2026.3 C 3174.0 2021.5, 3334.0 1862.4, 3440.6 2018.9" fill="none" stroke="url(#ribbon288)" stroke-width="30.4" stroke-linecap="round" stroke-opacity="0.302" /></g><g transform="rotate(-5.82 1536.0 1536.0)"><path d="M-368.6 2107.7 C -264.8 2080.1, -119.3 2135.9, -22.3 2160.1 C 81.5 2174.9, 227.0 2055.5, 324.0 2215.1 C 427.8 2172.5, 573.3 2011.5, 670.3 2204.9 C 774.1 2205.5, 919.6 2046.3, 1016.6 2135.8 C 1120.4 2129.1, 1265.9 2089.8, 1362.9 2049.6 C 1466.7 2059.7, 1612.2 2153.4, 1709.1 1998.7 C 1813.0 2035.8, 1958.5 2171.0, 2055.4 2013.9 C 2159.3 2003.7, 2304.8 2194.4, 2401.7 2086.0 C 2505.6 2085.7, 2651.1 2114.9, 2748.0 2171.3 C 2851.9 2189.0, 2997.4 2031.6, 3094.3 2218.0 C 3198.2 2204.1, 3343.7 2032.8, 3440.6 2197.8" fill="none" stroke="url(#ribbon288)" stroke-width="26.4" stroke-linecap="round" stroke-opacity="0.328" /></g><g transform="rotate(-5.24 1536.0 1536.0)"><path d="M-368.6 2239.5 C -273.4 2108.8, -140.1 2331.3, -51.2 2129.7 C 44.0 2160.6, 177.4 2322.5, 266.2 2195.8 C 361.5 2204.9, 494.8 2259.2, 583.7 2288.3 C 678.9 2299.5, 812.2 2199.3, 901.1 2351.3 C 996.4 2347.9, 1129.7 2154.5, 1218.6 2346.5 C 1313.8 2357.8, 1447.1 2187.6, 1536.0 2276.8 C 1631.2 2279.7, 1764.6 2212.9, 1853.4 2184.5 C 1948.7 2201.9, 2082.0 2272.5, 2170.9 2125.6 C 2266.1 2139.3, 2399.4 2331.1, 2488.3 2135.8 C 2583.6 2109.5, 2716.9 2343.2, 2805.8 2208.9 C 2901.0 2205.4, 3034.3 2267.6, 3123.2 2300.6 C 3218.4 2294.4, 3351.8 2199.3, 3440.6 2355.2" fill="none" stroke="url(#ribbon288)" stroke-width="22.4" stroke-linecap="round" stroke-opacity="0.354" /></g><g transform="rotate(-4.66 1536.0 1536.0)"><path d="M-368.6 2467.7 C -225.8 2393.4, -25.8 2555.2, 107.5 2470.9 C 250.4 2470.3, 450.4 2465.4, 583.7 2560.3 C 726.5 2596.3, 926.5 2430.5, 1059.8 2593.5 C 1202.7 2595.7, 1402.7 2429.1, 1536.0 2550.4 C 1678.8 2558.6, 1878.8 2405.7, 2012.2 2457.1 C 2155.0 2455.9, 2355.0 2475.8, 2488.3 2370.3 C 2631.2 2361.3, 2831.2 2550.0, 2964.5 2342.6 C 3107.3 2319.6, 3307.3 2509.2, 3440.6 2390.7" fill="none" stroke="url(#ribbon288)" stroke-width="18.4" stroke-linecap="round" stroke-opacity="0.380" /></g><g transform="rotate(-4.08 1536.0 1536.0)"><path d="M-368.6 2698.4 C -241.7 2696.9, -63.9 2700.1, 54.6 2601.5 C 181.6 2639.4, 359.4 2752.7, 477.9 2565.5 C 604.8 2588.7, 782.6 2829.7, 901.1 2610.1 C 1028.1 2629.1, 1205.9 2768.5, 1324.4 2708.3 C 1451.3 2708.8, 1629.1 2693.2, 1747.6 2800.4 C 1874.6 2810.9, 2052.4 2584.4, 2170.9 2830.7 C 2297.9 2821.6, 2475.6 2541.6, 2594.1 2780.7 C 2721.1 2756.0, 2898.9 2656.9, 3017.4 2680.8 C 3144.4 2678.7, 3322.1 2708.5, 3440.6 2591.6" fill="none" stroke="url(#ribbon288)" stroke-width="14.4" stroke-linecap="round" stroke-opacity="0.406" /></g></g>
  <g><ellipse cx="1536.0" cy="1551.9" rx="728.6" ry="605.7" fill="url(#extrude288)" opacity="0.220" /><ellipse cx="1536.0" cy="1567.7" rx="736.0" ry="610.9" fill="url(#extrude288)" opacity="0.205" /><ellipse cx="1536.0" cy="1583.6" rx="743.4" ry="616.1" fill="url(#extrude288)" opacity="0.190" /><ellipse cx="1536.0" cy="1599.5" rx="750.9" ry="621.3" fill="url(#extrude288)" opacity="0.175" /><ellipse cx="1536.0" cy="1615.4" rx="758.3" ry="626.5" fill="url(#extrude288)" opacity="0.160" /><ellipse cx="1536.0" cy="1631.2" rx="765.7" ry="631.7" fill="url(#extrude288)" opacity="0.145" /><ellipse cx="1536.0" cy="1647.1" rx="773.2" ry="636.9" fill="url(#extrude288)" opacity="0.130" /><ellipse cx="1536.0" cy="1663.0" rx="780.6" ry="642.1" fill="url(#extrude288)" opacity="0.115" /><ellipse cx="1536.0" cy="1678.8" rx="788.0" ry="647.4" fill="url(#extrude288)" opacity="0.100" /><ellipse cx="1536.0" cy="1694.7" rx="795.5" ry="652.6" fill="url(#extrude288)" opacity="0.085" /><ellipse cx="1536.0" cy="1710.6" rx="802.9" ry="657.8" fill="url(#extrude288)" opacity="0.070" /><ellipse cx="1536.0" cy="1726.5" rx="810.3" ry="663.0" fill="url(#extrude288)" opacity="0.055" /></g>
  <ellipse cx="1536.0" cy="1726.5" rx="773.2" ry="214.9" fill="#0B1D2D" opacity="0.24" />
  <ellipse cx="1536.0" cy="1536.0" rx="743.4" ry="651.3" fill="url(#orb288)" stroke="#FFFFFF" stroke-opacity="0.42" stroke-width="7" />
  <ellipse cx="1431.9" cy="1392.7" rx="505.5" ry="299.6" fill="#FFFFFF" opacity="0.25" />
  <path d="M 199.4 399.4 C 1013.8 -30.7, 2058.2 768.0, 2872.6 215.0 L 2872.6 983.0 C 2089.0 1228.8, 1013.8 307.2, 199.4 1167.4 Z" fill="url(#glass288)" />
  <rect x="270" y="270" width="2532" height="2532" rx="430" fill="none" stroke="#FFFFFF" stroke-opacity="0.30" stroke-width="5" />
  <rect x="288.4" y="288.4" width="2495.1" height="2495.1" rx="399" fill="none" stroke="#3B82FF" stroke-opacity="0.35" stroke-width="3" />
  <g filter="url(#soft288)"><rect x="412" y="623" width="52" height="2" fill="#FFFFFF" opacity="0.725" /><rect x="437" y="598" width="2" height="52" fill="#FFFFFF" opacity="0.725" /><rect x="1350" y="458" width="84" height="2" fill="#FFFFFF" opacity="0.574" /><rect x="1391" y="417" width="2" height="84" fill="#FFFFFF" opacity="0.574" /><rect x="910" y="2307" width="30" height="2" fill="#FFFFFF" opacity="0.784" /><rect x="924" y="2293" width="2" height="30" fill="#FFFFFF" opacity="0.784" /><rect x="1095" y="1091" width="30" height="2" fill="#FFFFFF" opacity="0.779" /><rect x="1109" y="1077" width="2" height="30" fill="#FFFFFF" opacity="0.779" /><rect x="1818" y="1683" width="24" height="2" fill="#FFFFFF" opacity="0.391" /><rect x="1829" y="1672" width="2" height="24" fill="#FFFFFF" opacity="0.391" /><rect x="2744" y="561" width="28" height="2" fill="#FFFFFF" opacity="0.820" /><rect x="2757" y="548" width="2" height="28" fill="#FFFFFF" opacity="0.820" /><rect x="2362" y="789" width="62" height="2" fill="#FFFFFF" opacity="0.354" /><rect x="2392" y="759" width="2" height="62" fill="#FFFFFF" opacity="0.354" /><rect x="595" y="1152" width="30" height="2" fill="#FFFFFF" opacity="0.301" /><rect x="609" y="1138" width="2" height="30" fill="#FFFFFF" opacity="0.301" /><rect x="1792" y="1696" width="46" height="2" fill="#FFFFFF" opacity="0.479" /><rect x="1814" y="1674" width="2" height="46" fill="#FFFFFF" opacity="0.479" /><rect x="1192" y="502" width="78" height="2" fill="#FFFFFF" opacity="0.535" /><rect x="1230" y="464" width="2" height="78" fill="#FFFFFF" opacity="0.535" /><rect x="484" y="2538" width="40" height="2" fill="#FFFFFF" opacity="0.462" /><rect x="503" y="2519" width="2" height="40" fill="#FFFFFF" opacity="0.462" /><rect x="1151" y="1562" width="72" height="2" fill="#FFFFFF" opacity="0.368" /><rect x="1186" y="1527" width="2" height="72" fill="#FFFFFF" opacity="0.368" /><rect x="811" y="2516" width="64" height="2" fill="#FFFFFF" opacity="0.822" /><rect x="842" y="2485" width="2" height="64" fill="#FFFFFF" opacity="0.822" /><rect x="2029" y="1310" width="68" height="2" fill="#FFFFFF" opacity="0.838" /><rect x="2062" y="1277" width="2" height="68" fill="#FFFFFF" opacity="0.838" /><rect x="2431" y="762" width="46" height="2" fill="#FFFFFF" opacity="0.561" /><rect x="2453" y="740" width="2" height="46" fill="#FFFFFF" opacity="0.561" /><rect x="2326" y="1021" width="32" height="2" fill="#FFFFFF" opacity="0.518" /><rect x="2341" y="1006" width="2" height="32" fill="#FFFFFF" opacity="0.518" /><rect x="2012" y="1654" width="32" height="2" fill="#FFFFFF" opacity="0.362" /><rect x="2027" y="1639" width="2" height="32" fill="#FFFFFF" opacity="0.362" /><rect x="1384" y="336" width="44" height="2" fill="#FFFFFF" opacity="0.794" /><rect x="1405" y="315" width="2" height="44" fill="#FFFFFF" opacity="0.794" /><rect x="2730" y="1403" width="48" height="2" fill="#FFFFFF" opacity="0.325" /><rect x="2753" y="1380" width="2" height="48" fill="#FFFFFF" opacity="0.325" /><rect x="519" y="294" width="42" height="2" fill="#FFFFFF" opacity="0.727" /><rect x="539" y="274" width="2" height="42" fill="#FFFFFF" opacity="0.727" /><rect x="585" y="1243" width="46" height="2" fill="#FFFFFF" opacity="0.479" /><rect x="607" y="1221" width="2" height="46" fill="#FFFFFF" opacity="0.479" /><rect x="931" y="2747" width="48" height="2" fill="#FFFFFF" opacity="0.751" /><rect x="954" y="2724" width="2" height="48" fill="#FFFFFF" opacity="0.751" /><rect x="373" y="1884" width="48" height="2" fill="#FFFFFF" opacity="0.787" /><rect x="396" y="1861" width="2" height="48" fill="#FFFFFF" opacity="0.787" /><rect x="1287" y="1117" width="82" height="2" fill="#FFFFFF" opacity="0.348" /><rect x="1327" y="1077" width="2" height="82" fill="#FFFFFF" opacity="0.348" /><rect x="1068" y="1906" width="66" height="2" fill="#FFFFFF" opacity="0.630" /><rect x="1100" y="1874" width="2" height="66" fill="#FFFFFF" opacity="0.630" /><rect x="2405" y="272" width="64" height="2" fill="#FFFFFF" opacity="0.720" /><rect x="2436" y="241" width="2" height="64" fill="#FFFFFF" opacity="0.720" /></g>
  <g opacity="0.52"><circle cx="1572" cy="1582" r="307" fill="none" stroke="#0C2030" stroke-width="90" /><line x1="1791" y1="1801" x2="2340" y2="2350" stroke="#0C2030" stroke-width="90" stroke-linecap="round" /></g>
  <g filter="url(#soft288)"><circle cx="1536" cy="1536" r="307" fill="none" stroke="url(#symbol288)" stroke-width="90" /><line x1="1755" y1="1755" x2="2304" y2="2304" stroke="url(#symbol288)" stroke-width="90" stroke-linecap="round" /></g>
  <rect x="138" y="138" width="2796" height="2796" rx="629" fill="#FFFFFF" filter="url(#grain288)" opacity="0.18" />
</svg>
