<svg xmlns="http://www.w3.org/2000/svg" width="3072" height="3072" viewBox="0 0 3072 3072">
  <title>QuartzOS App Icon 009 - lumen_editor_009</title>
  <defs><linearGradient id="bg8" x1="0%" y1="0%" x2="100%" y2="100%"><stop offset="0%" stop-color="#3B82FF" /><stop offset="26%" stop-color="#FF6AB3" /><stop offset="56%" stop-color="#FFD84D" /><stop offset="78%" stop-color="#3C8FC1" /><stop offset="100%" stop-color="#1E2E3A" /></linearGradient><radialGradient id="sun8" cx="29%" cy="14%" r="88%"><stop offset="0%" stop-color="#FFFFFF" stop-opacity="0.62" /><stop offset="30%" stop-color="#53E3A6" stop-opacity="0.35" /><stop offset="100%" stop-color="#53E3A6" stop-opacity="0" /></radialGradient><linearGradient id="glass8" x1="0%" y1="0%" x2="0%" y2="100%"><stop offset="0%" stop-color="#FFFFFF" stop-opacity="0.70" /><stop offset="46%" stop-color="#FFFFFF" stop-opacity="0.26" /><stop offset="100%" stop-color="#FFFFFF" stop-opacity="0.00" /></linearGradient><linearGradient id="ribbon8" x1="0%" y1="0%" x2="100%" y2="0%"><stop offset="0%" stop-color="#3B82FF" stop-opacity="0.18" /><stop offset="34%" stop-color="#FF6AB3" stop-opacity="0.72" /><stop offset="66%" stop-color="#FFD84D" stop-opacity="0.72" /><stop offset="100%" stop-color="#53E3A6" stop-opacity="0.18" /></linearGradient><radialGradient id="orb8" cx="34%" cy="27%" r="74%"><stop offset="0%" stop-color="#FFFFFF" stop-opacity="0.84" /><stop offset="30%" stop-color="#3B82FF" stop-opacity="0.52" /><stop offset="68%" stop-color="#FF6AB3" stop-opacity="0.42" /><stop offset="100%" stop-color="#FFD84D" stop-opacity="0.20" /></radialGradient><linearGradient id="extrude8" x1="0%" y1="0%" x2="0%" y2="100%"><stop offset="0%" stop-color="#15283C" stop-opacity="0.45" /><stop offset="100%" stop-color="#08131D" stop-opacity="0.06" /></linearGradient><linearGradient id="symbol8" x1="0%" y1="0%" x2="100%" y2="100%"><stop offset="0%" stop-color="#FFFFFF" /><stop offset="100%" stop-color="#53E3A6" /></linearGradient><filter id="shadow8" x="-40%" y="-40%" width="180%" height="180%"><feDropShadow dx="0" dy="49" stdDeviation="86" flood-color="#06111A" flood-opacity="0.54" /></filter><filter id="soft8" x="-40%" y="-40%" width="180%" height="180%"><feDropShadow dx="0" dy="0" stdDeviation="14" flood-color="#3B82FF" flood-opacity="0.45" /></filter><filter id="grain8"><feTurbulence type="fractalNoise" baseFrequency="0.975" numOctaves="2" seed="8" /><feColorMatrix type="saturate" values="0" /><feComponentTransfer><feFuncA type="table" tableValues="0 0.09" /></feComponentTransfer></filter></defs>
  <rect x="138" y="138" width="2796" height="2796" rx="629" fill="url(#bg8)" filter="url(#shadow8)" />
  <rect x="138" y="138" width="2796" height="2796" rx="629" fill="url(#sun8)" />
  <g><circle cx="558" cy="1511" r="49" fill="#FFFFFF" opacity="0.085" /><circle cx="2582" cy="2242" r="70" fill="#FFFFFF" opacity="0.141" /><circle cx="2009" cy="2019" r="82" fill="#FFFFFF" opacity="0.079" /><circle cx="2260" cy="2079" r="143" fill="#FFFFFF" opacity="0.143" /><circle cx="2504" cy="474" r="75" fill="#FFFFFF" opacity="0.119" /><circle cx="922" cy="1062" r="133" fill="#FFFFFF" opacity="0.095" /><circle cx="796" cy="1524" r="57" fill="#FFFFFF" opacity="0.162" /><circle cx="1370" cy="2269" r="48" fill="#FFFFFF" opacity="0.223" /><circle cx="372" cy="1926" r="136" fill="#FFFFFF" opacity="0.081" /><circle cx="636" cy="915" r="58" fill="#FFFFFF" opacity="0.158" /><circle cx="2198" cy="1575" r="114" fill="#FFFFFF" opacity="0.215" /><circle cx="1480" cy="1152" r="142" fill="#FFFFFF" opacity="0.139" /><circle cx="1115" cy="907" r="88" fill="#FFFFFF" opacity="0.063" /><circle cx="1847" cy="2459" r="111" fill="#FFFFFF" opacity="0.190" /><circle cx="2217" cy="1448" r="78" fill="#FFFFFF" opacity="0.204" /><circle cx="1992" cy="1168" r="131" fill="#FFFFFF" opacity="0.174" /><circle cx="1201" cy="2316" r="155" fill="#FFFFFF" opacity="0.211" /><circle cx="1233" cy="2315" r="145" fill="#FFFFFF" opacity="0.167" /><circle cx="1035" cy="2268" r="82" fill="#FFFFFF" opacity="0.135" /><circle cx="692" cy="1097" r="46" fill="#FFFFFF" opacity="0.079" /><circle cx="1935" cy="2491" r="75" fill="#FFFFFF" opacity="0.156" /><circle cx="2680" cy="1012" r="96" fill="#FFFFFF" opacity="0.146" /><circle cx="1989" cy="564" r="87" fill="#FFFFFF" opacity="0.198" /><circle cx="2057" cy="1605" r="130" fill="#FFFFFF" opacity="0.120" /><circle cx="1430" cy="1935" r="92" fill="#FFFFFF" opacity="0.235" /><circle cx="2250" cy="1337" r="115" fill="#FFFFFF" opacity="0.232" /><circle cx="1216" cy="1002" r="129" fill="#FFFFFF" opacity="0.195" /><circle cx="2234" cy="1199" r="107" fill="#FFFFFF" opacity="0.141" /></g>
  <g><path d="M 246.7 577.2 L 2809.2 300.7 L 2809.2 780.4 L 246.7 1056.8 Z" fill="#FFFFFF" opacity="0.135" /><path d="M 248.1 890.5 L 2846.4 614.0 L 2846.4 1041.0 L 248.1 1317.5 Z" fill="#FFFFFF" opacity="0.084" /><path d="M 370.4 1128.1 L 2853.2 851.6 L 2853.2 1318.0 L 370.4 1594.4 Z" fill="#FFFFFF" opacity="0.102" /><path d="M 329.9 1358.8 L 2854.7 1082.3 L 2854.7 1574.3 L 329.9 1850.8 Z" fill="#FFFFFF" opacity="0.100" /><path d="M 387.3 1696.0 L 2854.5 1419.5 L 2854.5 1853.1 L 387.3 2129.5 Z" fill="#FFFFFF" opacity="0.210" /><path d="M 185.9 1964.2 L 2744.7 1687.8 L 2744.7 2133.5 L 185.9 2409.9 Z" fill="#FFFFFF" opacity="0.202" /><path d="M 181.0 2222.1 L 2891.8 1945.6 L 2891.8 2436.2 L 181.0 2712.7 Z" fill="#FFFFFF" opacity="0.134" /><path d="M 176.8 2449.9 L 2737.9 2173.4 L 2737.9 2624.2 L 176.8 2900.7 Z" fill="#FFFFFF" opacity="0.200" /></g>
  <g filter="url(#soft8)"><g transform="rotate(-5.56 1536.0 1536.0)"><path d="M-368.6 481.9 C -225.8 457.3, -25.8 516.0, 107.5 426.8 C 250.4 432.2, 450.4 522.5, 583.7 440.5 C 726.5 435.5, 926.5 524.7, 1059.8 479.3 C 1202.7 479.8, 1402.7 484.5, 1536.0 519.7 C 1678.8 531.3, 1878.8 452.4, 2012.2 537.2 C 2155.0 537.5, 2355.0 446.7, 2488.3 521.1 C 2631.2 508.2, 2831.2 467.6, 2964.5 481.3 C 3107.3 481.4, 3307.3 482.2, 3440.6 441.8" fill="none" stroke="url(#ribbon8)" stroke-width="58.4" stroke-linecap="round" stroke-opacity="0.120" /></g><g transform="rotate(-4.98 1536.0 1536.0)"><path d="M-368.6 758.6 C -241.7 734.6, -63.9 773.3, 54.6 699.4 C 181.6 696.5, 359.4 796.9, 477.9 703.2 C 604.8 706.0, 782.6 814.4, 901.1 740.7 C 1028.1 737.0, 1205.9 766.2, 1324.4 789.0 C 1451.3 785.1, 1629.1 735.2, 1747.6 818.8 C 1874.6 809.1, 2052.4 706.8, 2170.9 812.1 C 2297.9 826.4, 2475.6 714.9, 2594.1 772.9 C 2721.1 775.7, 2898.9 744.0, 3017.4 725.0 C 3144.4 731.9, 3322.1 795.9, 3440.6 697.5" fill="none" stroke="url(#ribbon8)" stroke-width="54.4" stroke-linecap="round" stroke-opacity="0.146" /></g><g transform="rotate(-4.40 1536.0 1536.0)"><path d="M-368.6 914.0 C -254.4 959.9, -94.4 891.1, 12.3 905.4 C 126.6 903.6, 286.6 924.0, 393.2 858.6 C 507.5 875.4, 667.5 976.1, 774.1 845.4 C 888.4 839.9, 1048.4 948.0, 1155.1 873.8 C 1269.4 864.2, 1429.3 926.2, 1536.0 926.6 C 1650.3 929.8, 1810.3 908.6, 1916.9 971.8 C 2031.2 975.5, 2191.2 888.7, 2297.9 981.9 C 2412.1 998.3, 2572.1 880.8, 2678.8 950.8 C 2793.1 960.4, 2953.1 879.9, 3059.7 897.4 C 3174.0 903.4, 3334.0 928.0, 3440.6 854.1" fill="none" stroke="url(#ribbon8)" stroke-width="50.4" stroke-linecap="round" stroke-opacity="0.172" /></g><g transform="rotate(-3.82 1536.0 1536.0)"><path d="M-368.6 1085.4 C -264.8 1031.0, -119.3 1131.9, -22.3 1045.4 C 81.5 1041.8, 227.0 1101.2, 324.0 1104.3 C 427.8 1105.8, 573.3 1067.2, 670.3 1151.7 C 774.1 1135.0, 919.6 1065.0, 1016.6 1158.9 C 1120.4 1183.8, 1265.9 1040.0, 1362.9 1121.4 C 1466.7 1123.4, 1612.2 1067.2, 1709.1 1062.1 C 1813.0 1066.9, 1958.5 1109.8, 2055.4 1016.9 C 2159.3 1044.1, 2304.8 1145.1, 2401.7 1013.2 C 2505.6 989.5, 2651.1 1169.7, 2748.0 1053.3 C 2851.9 1049.7, 2997.4 1111.6, 3094.3 1112.8 C 3198.2 1122.8, 3343.7 1061.9, 3440.6 1155.7" fill="none" stroke="url(#ribbon8)" stroke-width="46.4" stroke-linecap="round" stroke-opacity="0.198" /></g><g transform="rotate(-3.24 1536.0 1536.0)"><path d="M-368.6 1292.3 C -273.4 1199.7, -140.1 1319.0, -51.2 1226.1 C 44.0 1213.9, 177.4 1349.8, 266.2 1282.8 C 361.5 1285.3, 494.8 1296.1, 583.7 1345.2 C 678.9 1356.4, 812.2 1263.5, 901.1 1375.5 C 996.4 1366.0, 1129.7 1197.9, 1218.6 1355.3 C 1313.8 1352.5, 1447.1 1256.3, 1536.0 1296.8 C 1631.2 1298.4, 1764.6 1289.5, 1853.4 1235.6 C 1948.7 1224.1, 2082.0 1356.6, 2170.9 1208.7 C 2266.1 1195.3, 2399.4 1370.1, 2488.3 1232.5 C 2583.6 1251.4, 2716.9 1333.6, 2805.8 1292.6 C 2901.0 1292.6, 3034.3 1292.1, 3123.2 1352.4 C 3218.4 1348.3, 3351.8 1227.3, 3440.6 1375.8" fill="none" stroke="url(#ribbon8)" stroke-width="42.4" stroke-linecap="round" stroke-opacity="0.224" /></g><g transform="rotate(-2.66 1536.0 1536.0)"><path d="M-368.6 1476.9 C -225.8 1420.4, -25.8 1533.7, 107.5 1391.4 C 250.4 1392.2, 450.4 1537.6, 583.7 1438.9 C 726.5 1435.9, 926.5 1509.8, 1059.8 1509.4 C 1202.7 1511.9, 1402.7 1447.7, 1536.0 1560.3 C 1678.8 1570.5, 1878.8 1380.8, 2012.2 1560.6 C 2155.0 1578.6, 2355.0 1401.0, 2488.3 1510.2 C 2631.2 1499.7, 2831.2 1465.4, 2964.5 1439.6 C 3107.3 1451.0, 3307.3 1513.4, 3440.6 1391.7" fill="none" stroke="url(#ribbon8)" stroke-width="38.4" stroke-linecap="round" stroke-opacity="0.250" /></g><g transform="rotate(-2.08 1536.0 1536.0)"><path d="M-368.6 1694.6 C -241.7 1695.8, -63.9 1694.0, 54.6 1625.4 C 181.6 1648.5, 359.4 1734.8, 477.9 1597.0 C 604.8 1600.1, 782.6 1776.2, 901.1 1627.8 C 1028.1 1609.7, 1205.9 1736.0, 1324.4 1699.1 C 1451.3 1699.8, 1629.1 1691.3, 1747.6 1767.8 C 1874.6 1779.0, 2052.4 1610.5, 2170.9 1792.1 C 2297.9 1802.7, 2475.6 1634.8, 2594.1 1757.3 C 2721.1 1778.4, 2898.9 1656.6, 3017.4 1684.5 C 3144.4 1687.7, 3322.1 1697.7, 3440.6 1617.9" fill="none" stroke="url(#ribbon8)" stroke-width="34.4" stroke-linecap="round" stroke-opacity="0.276" /></g><g transform="rotate(-1.50 1536.0 1536.0)"><path d="M-368.6 1833.3 C -254.4 1836.6, -94.4 1832.3, 12.3 1910.2 C 126.6 1935.7, 286.6 1758.2, 393.2 1937.9 C 507.5 1934.6, 667.5 1741.1, 774.1 1902.2 C 888.4 1875.5, 1048.4 1798.3, 1155.1 1824.7 C 1269.4 1822.0, 1429.3 1842.9, 1536.0 1752.4 C 1650.3 1743.2, 1810.3 1880.4, 1916.9 1729.2 C 2031.2 1746.9, 2191.2 1953.1, 2297.9 1769.2 C 2412.1 1749.7, 2572.1 1871.0, 2678.8 1848.1 C 2793.1 1848.1, 2953.1 1824.6, 3059.7 1918.0 C 3174.0 1901.3, 3334.0 1790.6, 3440.6 1936.6" fill="none" stroke="url(#ribbon8)" stroke-width="30.4" stroke-linecap="round" stroke-opacity="0.302" /></g><g transform="rotate(-0.92 1536.0 1536.0)"><path d="M-368.6 2054.5 C -264.8 2021.0, -119.3 2075.4, -22.3 1951.0 C 81.5 1957.6, 227.0 2143.6, 324.0 1952.0 C 427.8 1989.1, 573.3 2109.5, 670.3 2015.2 C 774.1 2001.1, 919.6 2083.6, 1016.6 2102.2 C 1120.4 2115.9, 1265.9 2017.3, 1362.9 2160.3 C 1466.7 2140.5, 1612.2 1980.1, 1709.1 2154.1 C 1813.0 2166.7, 1958.5 1942.4, 2055.4 2087.6 C 2159.3 2095.7, 2304.8 2020.6, 2401.7 2000.9 C 2505.6 2013.9, 2651.1 2114.8, 2748.0 1946.7 C 2851.9 1966.1, 2997.4 2095.3, 3094.3 1957.9 C 3198.2 1956.5, 3343.7 2137.8, 3440.6 2027.7" fill="none" stroke="url(#ribbon8)" stroke-width="26.4" stroke-linecap="round" stroke-opacity="0.328" /></g><g transform="rotate(-0.34 1536.0 1536.0)"><path d="M-368.6 2215.7 C -273.4 2178.0, -140.1 2250.4, -51.2 2268.3 C 44.0 2281.7, 177.4 2185.0, 266.2 2328.9 C 361.5 2343.7, 494.8 2175.5, 583.7 2320.8 C 678.9 2287.2, 812.2 2129.0, 901.1 2249.0 C 996.4 2251.4, 1129.7 2203.7, 1218.6 2157.0 C 1313.8 2146.1, 1447.1 2274.6, 1536.0 2100.7 C 1631.2 2070.4, 1764.6 2299.1, 1853.4 2114.1 C 1948.7 2105.5, 2082.0 2250.8, 2170.9 2189.2 C 2266.1 2198.5, 2399.4 2233.1, 2488.3 2280.4 C 2583.6 2280.0, 2716.9 2140.8, 2805.8 2332.4 C 2901.0 2366.3, 3034.3 2172.1, 3123.2 2313.6 C 3218.4 2300.0, 3351.8 2158.8, 3440.6 2235.4" fill="none" stroke="url(#ribbon8)" stroke-width="22.4" stroke-linecap="round" stroke-opacity="0.354" /></g><g transform="rotate(0.24 1536.0 1536.0)"><path d="M-368.6 2449.2 C -225.8 2539.4, -25.8 2336.7, 107.5 2542.9 C 250.4 2540.2, 450.4 2372.3, 583.7 2454.1 C 726.5 2455.8, 926.5 2445.4, 1059.8 2362.3 C 1202.7 2354.7, 1402.7 2509.8, 1536.0 2323.3 C 1678.8 2361.9, 1878.8 2504.1, 2012.2 2360.6 C 2155.0 2381.1, 2355.0 2526.1, 2488.3 2451.7 C 2631.2 2451.0, 2831.2 2448.1, 2964.5 2541.3 C 3107.3 2525.2, 3307.3 2349.6, 3440.6 2575.0" fill="none" stroke="url(#ribbon8)" stroke-width="18.4" stroke-linecap="round" stroke-opacity="0.380" /></g><g transform="rotate(0.82 1536.0 1536.0)"><path d="M-368.6 2683.8 C -241.7 2505.9, -63.9 2782.4, 54.6 2584.2 C 181.6 2614.4, 359.4 2776.1, 477.9 2677.7 C 604.8 2676.9, 782.6 2687.3, 901.1 2774.9 C 1028.1 2797.6, 1205.9 2655.3, 1324.4 2816.8 C 1451.3 2799.6, 1629.1 2565.2, 1747.6 2778.1 C 1874.6 2777.4, 2052.4 2594.2, 2170.9 2682.2 C 2297.9 2682.1, 2475.6 2684.8, 2594.1 2587.3 C 2721.1 2584.6, 2898.9 2766.2, 3017.4 2550.9 C 3144.4 2598.2, 3322.1 2793.6, 3440.6 2595.2" fill="none" stroke="url(#ribbon8)" stroke-width="14.4" stroke-linecap="round" stroke-opacity="0.406" /></g></g>
  <g><ellipse cx="1536.0" cy="1551.9" rx="728.6" ry="605.7" fill="url(#extrude8)" opacity="0.220" /><ellipse cx="1536.0" cy="1567.7" rx="736.0" ry="610.9" fill="url(#extrude8)" opacity="0.205" /><ellipse cx="1536.0" cy="1583.6" rx="743.4" ry="616.1" fill="url(#extrude8)" opacity="0.190" /><ellipse cx="1536.0" cy="1599.5" rx="750.9" ry="621.3" fill="url(#extrude8)" opacity="0.175" /><ellipse cx="1536.0" cy="1615.4" rx="758.3" ry="626.5" fill="url(#extrude8)" opacity="0.160" /><ellipse cx="1536.0" cy="1631.2" rx="765.7" ry="631.7" fill="url(#extrude8)" opacity="0.145" /><ellipse cx="1536.0" cy="1647.1" rx="773.2" ry="636.9" fill="url(#extrude8)" opacity="0.130" /><ellipse cx="1536.0" cy="1663.0" rx="780.6" ry="642.1" fill="url(#extrude8)" opacity="0.115" /><ellipse cx="1536.0" cy="1678.8" rx="788.0" ry="647.4" fill="url(#extrude8)" opacity="0.100" /><ellipse cx="1536.0" cy="1694.7" rx="795.5" ry="652.6" fill="url(#extrude8)" opacity="0.085" /><ellipse cx="1536.0" cy="1710.6" rx="802.9" ry="657.8" fill="url(#extrude8)" opacity="0.070" /><ellipse cx="1536.0" cy="1726.5" rx="810.3" ry="663.0" fill="url(#extrude8)" opacity="0.055" /></g>
  <ellipse cx="1536.0" cy="1726.5" rx="773.2" ry="214.9" fill="#0B1D2D" opacity="0.24" />
  <ellipse cx="1536.0" cy="1536.0" rx="743.4" ry="651.3" fill="url(#orb8)" stroke="#FFFFFF" stroke-opacity="0.42" stroke-width="7" />
  <ellipse cx="1431.9" cy="1392.7" rx="505.5" ry="299.6" fill="#FFFFFF" opacity="0.25" />
  <path d="M 199.4 399.4 C 1013.8 -30.7, 2058.2 768.0, 2872.6 215.0 L 2872.6 983.0 C 2089.0 1228.8, 1013.8 307.2, 199.4 1167.4 Z" fill="url(#glass8)" />
  <rect x="270" y="270" width="2532" height="2532" rx="430" fill="none" stroke="#FFFFFF" stroke-opacity="0.30" stroke-width="5" />
  <rect x="288.4" y="288.4" width="2495.1" height="2495.1" rx="399" fill="none" stroke="#3B82FF" stroke-opacity="0.35" stroke-width="3" />
  <g filter="url(#soft8)"><rect x="1161" y="2591" width="76" height="2" fill="#FFFFFF" opacity="0.551" /><rect x="1198" y="2554" width="2" height="76" fill="#FFFFFF" opacity="0.551" /><rect x="2296" y="1605" width="76" height="2" fill="#FFFFFF" opacity="0.561" /><rect x="2333" y="1568" width="2" height="76" fill="#FFFFFF" opacity="0.561" /><rect x="1842" y="1145" width="84" height="2" fill="#FFFFFF" opacity="0.313" /><rect x="1883" y="1104" width="2" height="84" fill="#FFFFFF" opacity="0.313" /><rect x="2589" y="398" width="44" height="2" fill="#FFFFFF" opacity="0.366" /><rect x="2610" y="377" width="2" height="44" fill="#FFFFFF" opacity="0.366" /><rect x="2790" y="1085" width="32" height="2" fill="#FFFFFF" opacity="0.547" /><rect x="2805" y="1070" width="2" height="32" fill="#FFFFFF" opacity="0.547" /><rect x="873" y="661" width="68" height="2" fill="#FFFFFF" opacity="0.748" /><rect x="906" y="628" width="2" height="68" fill="#FFFFFF" opacity="0.748" /><rect x="2090" y="2703" width="60" height="2" fill="#FFFFFF" opacity="0.504" /><rect x="2119" y="2674" width="2" height="60" fill="#FFFFFF" opacity="0.504" /><rect x="2021" y="1699" width="36" height="2" fill="#FFFFFF" opacity="0.475" /><rect x="2038" y="1682" width="2" height="36" fill="#FFFFFF" opacity="0.475" /><rect x="990" y="830" width="34" height="2" fill="#FFFFFF" opacity="0.796" /><rect x="1006" y="814" width="2" height="34" fill="#FFFFFF" opacity="0.796" /><rect x="2775" y="1098" width="50" height="2" fill="#FFFFFF" opacity="0.793" /><rect x="2799" y="1074" width="2" height="50" fill="#FFFFFF" opacity="0.793" /><rect x="2219" y="1485" width="48" height="2" fill="#FFFFFF" opacity="0.822" /><rect x="2242" y="1462" width="2" height="48" fill="#FFFFFF" opacity="0.822" /><rect x="2238" y="2640" width="46" height="2" fill="#FFFFFF" opacity="0.527" /><rect x="2260" y="2618" width="2" height="46" fill="#FFFFFF" opacity="0.527" /><rect x="706" y="2168" width="58" height="2" fill="#FFFFFF" opacity="0.625" /><rect x="734" y="2140" width="2" height="58" fill="#FFFFFF" opacity="0.625" /><rect x="1489" y="446" width="52" height="2" fill="#FFFFFF" opacity="0.569" /><rect x="1514" y="421" width="2" height="52" fill="#FFFFFF" opacity="0.569" /><rect x="1273" y="1268" width="52" height="2" fill="#FFFFFF" opacity="0.582" /><rect x="1298" y="1243" width="2" height="52" fill="#FFFFFF" opacity="0.582" /><rect x="421" y="2319" width="30" height="2" fill="#FFFFFF" opacity="0.696" /><rect x="435" y="2305" width="2" height="30" fill="#FFFFFF" opacity="0.696" /><rect x="678" y="1333" width="36" height="2" fill="#FFFFFF" opacity="0.584" /><rect x="695" y="1316" width="2" height="36" fill="#FFFFFF" opacity="0.584" /><rect x="1499" y="1610" width="54" height="2" fill="#FFFFFF" opacity="0.832" /><rect x="1525" y="1584" width="2" height="54" fill="#FFFFFF" opacity="0.832" /><rect x="1922" y="1170" width="46" height="2" fill="#FFFFFF" opacity="0.341" /><rect x="1944" y="1148" width="2" height="46" fill="#FFFFFF" opacity="0.341" /><rect x="651" y="876" width="64" height="2" fill="#FFFFFF" opacity="0.683" /><rect x="682" y="845" width="2" height="64" fill="#FFFFFF" opacity="0.683" /><rect x="426" y="1941" width="58" height="2" fill="#FFFFFF" opacity="0.831" /><rect x="454" y="1913" width="2" height="58" fill="#FFFFFF" opacity="0.831" /><rect x="2660" y="1691" width="76" height="2" fill="#FFFFFF" opacity="0.511" /><rect x="2697" y="1654" width="2" height="76" fill="#FFFFFF" opacity="0.511" /><rect x="2403" y="2101" width="44" height="2" fill="#FFFFFF" opacity="0.825" /><rect x="2424" y="2080" width="2" height="44" fill="#FFFFFF" opacity="0.825" /><rect x="987" y="914" width="46" height="2" fill="#FFFFFF" opacity="0.850" /><rect x="1009" y="892" width="2" height="46" fill="#FFFFFF" opacity="0.850" /><rect x="2467" y="1291" width="30" height="2" fill="#FFFFFF" opacity="0.608" /><rect x="2481" y="1277" width="2" height="30" fill="#FFFFFF" opacity="0.608" /><rect x="2300" y="963" width="58" height="2" fill="#FFFFFF" opacity="0.588" /><rect x="2328" y="935" width="2" height="58" fill="#FFFFFF" opacity="0.588" /></g>
  <g opacity="0.52"><path d="M1023 1326 L1572 1070 L2121 1326 L2121 2043 L1023 2043 Z" fill="none" stroke="#0C2030" stroke-width="90" stroke-linejoin="round" /><line x1="1572" y1="1070" x2="1572" y2="2043" stroke="#0C2030" stroke-width="88" /></g>
  <g filter="url(#soft8)"><path d="M987 1280 L1536 1024 L2085 1280 L2085 1997 L987 1997 Z" fill="none" stroke="url(#symbol8)" stroke-width="90" stroke-linejoin="round" /><line x1="1536" y1="1024" x2="1536" y2="1997" stroke="url(#symbol8)" stroke-width="88" /></g>
  <rect x="138" y="138" width="2796" height="2796" rx="629" fill="#FFFFFF" filter="url(#grain8)" opacity="0.18" />
</svg>
