<svg xmlns="http://www.w3.org/2000/svg" width="3072" height="3072" viewBox="0 0 3072 3072">
  <title>QuartzOS App Icon 089 - lumen_mail_089</title>
  <defs><linearGradient id="bg88" x1="0%" y1="0%" x2="100%" y2="100%"><stop offset="0%" stop-color="#FF9F43" /><stop offset="26%" stop-color="#53E3A6" /><stop offset="56%" stop-color="#3B82FF" /><stop offset="78%" stop-color="#5AA47F" /><stop offset="100%" stop-color="#1A2B22" /></linearGradient><radialGradient id="sun88" cx="30%" cy="26%" r="88%"><stop offset="0%" stop-color="#FFFFFF" stop-opacity="0.62" /><stop offset="30%" stop-color="#8A5CFF" stop-opacity="0.35" /><stop offset="100%" stop-color="#8A5CFF" stop-opacity="0" /></radialGradient><linearGradient id="glass88" x1="0%" y1="0%" x2="0%" y2="100%"><stop offset="0%" stop-color="#FFFFFF" stop-opacity="0.70" /><stop offset="46%" stop-color="#FFFFFF" stop-opacity="0.26" /><stop offset="100%" stop-color="#FFFFFF" stop-opacity="0.00" /></linearGradient><linearGradient id="ribbon88" x1="0%" y1="0%" x2="100%" y2="0%"><stop offset="0%" stop-color="#FF9F43" stop-opacity="0.18" /><stop offset="34%" stop-color="#53E3A6" stop-opacity="0.72" /><stop offset="66%" stop-color="#3B82FF" stop-opacity="0.72" /><stop offset="100%" stop-color="#8A5CFF" stop-opacity="0.18" /></linearGradient><radialGradient id="orb88" cx="34%" cy="27%" r="74%"><stop offset="0%" stop-color="#FFFFFF" stop-opacity="0.84" /><stop offset="30%" stop-color="#FF9F43" stop-opacity="0.52" /><stop offset="68%" stop-color="#53E3A6" stop-opacity="0.42" /><stop offset="100%" stop-color="#3B82FF" stop-opacity="0.20" /></radialGradient><linearGradient id="extrude88" x1="0%" y1="0%" x2="0%" y2="100%"><stop offset="0%" stop-color="#15283C" stop-opacity="0.45" /><stop offset="100%" stop-color="#08131D" stop-opacity="0.06" /></linearGradient><linearGradient id="symbol88" x1="0%" y1="0%" x2="100%" y2="100%"><stop offset="0%" stop-color="#FFFFFF" /><stop offset="100%" stop-color="#8A5CFF" /></linearGradient><filter id="shadow88" x="-40%" y="-40%" width="180%" height="180%"><feDropShadow dx="0" dy="49" stdDeviation="86" flood-color="#06111A" flood-opacity="0.54" /></filter><filter id="soft88" x="-40%" y="-40%" width="180%" height="180%"><feDropShadow dx="0" dy="0" stdDeviation="14" flood-color="#FF9F43" flood-opacity="0.45" /></filter><filter id="grain88"><feTurbulence type="fractalNoise" baseFrequency="0.913" numOctaves="2" seed="88" /><feColorMatrix type="saturate" values="0" /><feComponentTransfer><feFuncA type="table" tableValues="0 0.09" /></feComponentTransfer></filter></defs>
  <rect x="138" y="138" width="2796" height="2796" rx="629" fill="url(#bg88)" filter="url(#shadow88)" />
  <rect x="138" y="138" width="2796" height="2796" rx="629" fill="url(#sun88)" />
  <g><circle cx="2372" cy="1488" r="159" fill="#FFFFFF" opacity="0.209" /><circle cx="2524" cy="849" r="40" fill="#FFFFFF" opacity="0.101" /><circle cx="1708" cy="1754" r="44" fill="#FFFFFF" opacity="0.071" /><circle cx="795" cy="524" r="110" fill="#FFFFFF" opacity="0.203" /><circle cx="1490" cy="887" r="77" fill="#FFFFFF" opacity="0.150" /><circle cx="1954" cy="2583" r="159" fill="#FFFFFF" opacity="0.234" /><circle cx="375" cy="1220" r="134" fill="#FFFFFF" opacity="0.198" /><circle cx="2411" cy="445" r="61" fill="#FFFFFF" opacity="0.236" /><circle cx="1053" cy="2203" r="69" fill="#FFFFFF" opacity="0.104" /><circle cx="713" cy="1299" r="144" fill="#FFFFFF" opacity="0.133" /><circle cx="1533" cy="1548" r="108" fill="#FFFFFF" opacity="0.225" /><circle cx="577" cy="1865" r="141" fill="#FFFFFF" opacity="0.180" /><circle cx="1749" cy="1916" r="151" fill="#FFFFFF" opacity="0.072" /><circle cx="1228" cy="849" r="123" fill="#FFFFFF" opacity="0.129" /><circle cx="2141" cy="1583" r="55" fill="#FFFFFF" opacity="0.200" /><circle cx="723" cy="2560" r="81" fill="#FFFFFF" opacity="0.153" /><circle cx="1218" cy="2620" r="56" fill="#FFFFFF" opacity="0.101" /><circle cx="587" cy="2104" r="137" fill="#FFFFFF" opacity="0.118" /><circle cx="1436" cy="667" r="89" fill="#FFFFFF" opacity="0.204" /><circle cx="2427" cy="2487" r="143" fill="#FFFFFF" opacity="0.086" /><circle cx="2378" cy="1792" r="97" fill="#FFFFFF" opacity="0.067" /><circle cx="1186" cy="1303" r="150" fill="#FFFFFF" opacity="0.061" /><circle cx="2255" cy="1786" r="109" fill="#FFFFFF" opacity="0.127" /><circle cx="726" cy="2142" r="149" fill="#FFFFFF" opacity="0.238" /><circle cx="722" cy="2124" r="71" fill="#FFFFFF" opacity="0.183" /><circle cx="371" cy="388" r="59" fill="#FFFFFF" opacity="0.141" /><circle cx="667" cy="338" r="58" fill="#FFFFFF" opacity="0.182" /><circle cx="1441" cy="908" r="102" fill="#FFFFFF" opacity="0.072" /></g>
  <g><path d="M 391.4 631.9 L 2859.8 355.5 L 2859.8 776.7 L 391.4 1053.1 Z" fill="#FFFFFF" opacity="0.130" /><path d="M 207.7 839.3 L 2841.7 562.8 L 2841.7 1012.4 L 207.7 1288.9 Z" fill="#FFFFFF" opacity="0.170" /><path d="M 264.9 1099.2 L 2795.5 822.7 L 2795.5 1316.8 L 264.9 1593.3 Z" fill="#FFFFFF" opacity="0.122" /><path d="M 362.7 1429.2 L 2861.3 1152.7 L 2861.3 1649.2 L 362.7 1925.7 Z" fill="#FFFFFF" opacity="0.157" /><path d="M 182.1 1658.9 L 2759.3 1382.4 L 2759.3 1838.5 L 182.1 2115.0 Z" fill="#FFFFFF" opacity="0.213" /><path d="M 320.7 1961.2 L 2913.9 1684.7 L 2913.9 2151.4 L 320.7 2427.9 Z" fill="#FFFFFF" opacity="0.181" /><path d="M 389.1 2158.9 L 2831.9 1882.4 L 2831.9 2342.4 L 389.1 2618.9 Z" fill="#FFFFFF" opacity="0.104" /><path d="M 226.1 2458.1 L 2916.5 2181.6 L 2916.5 2620.8 L 226.1 2897.3 Z" fill="#FFFFFF" opacity="0.141" /></g>
  <g filter="url(#soft88)"><g transform="rotate(-15.58 1536.0 1536.0)"><path d="M-368.6 537.2 C -225.8 505.2, -25.8 564.2, 107.5 547.0 C 250.4 547.0, 450.4 531.4, 583.7 583.0 C 726.5 572.9, 926.5 486.1, 1059.8 591.3 C 1202.7 583.2, 1402.7 501.7, 1536.0 566.7 C 1678.8 564.9, 1878.8 512.1, 2012.2 524.2 C 2155.0 529.1, 2355.0 548.1, 2488.3 489.6 C 2631.2 497.3, 2831.2 573.9, 2964.5 483.8 C 3107.3 500.0, 3307.3 559.9, 3440.6 510.4" fill="none" stroke="url(#ribbon88)" stroke-width="58.4" stroke-linecap="round" stroke-opacity="0.120" /></g><g transform="rotate(-15.00 1536.0 1536.0)"><path d="M-368.6 716.2 C -241.7 725.3, -63.9 706.1, 54.6 766.4 C 181.6 752.0, 359.4 685.8, 477.9 777.7 C 604.8 791.8, 782.6 642.5, 901.1 751.6 C 1028.1 750.7, 1205.9 678.3, 1324.4 704.1 C 1451.3 701.8, 1629.1 726.4, 1747.6 663.9 C 1874.6 667.7, 2052.4 750.9, 2170.9 655.3 C 2297.9 661.3, 2475.6 763.3, 2594.1 683.7 C 2721.1 690.3, 2898.9 752.3, 3017.4 731.8 C 3144.4 725.5, 3322.1 704.0, 3440.6 770.3" fill="none" stroke="url(#ribbon88)" stroke-width="54.4" stroke-linecap="round" stroke-opacity="0.146" /></g><g transform="rotate(-14.42 1536.0 1536.0)"><path d="M-368.6 969.4 C -254.4 889.2, -94.4 1015.2, 12.3 916.4 C 126.6 925.6, 286.6 1020.7, 393.2 964.7 C 507.5 963.8, 667.5 972.4, 774.1 1015.8 C 888.4 1033.9, 1048.4 921.6, 1155.1 1038.8 C 1269.4 1012.8, 1429.3 894.0, 1536.0 1019.6 C 1650.3 1025.1, 1810.3 942.6, 1916.9 970.0 C 2031.2 969.9, 2191.2 969.1, 2297.9 920.0 C 2412.1 920.2, 2572.1 1013.6, 2678.8 900.0 C 2793.1 918.8, 2953.1 1008.9, 3059.7 922.0 C 3174.0 906.1, 3334.0 1015.9, 3440.6 972.8" fill="none" stroke="url(#ribbon88)" stroke-width="50.4" stroke-linecap="round" stroke-opacity="0.172" /></g><g transform="rotate(-13.84 1536.0 1536.0)"><path d="M-368.6 1071.6 C -264.8 1040.0, -119.3 1104.3, -22.3 1087.7 C 81.5 1090.8, 227.0 1055.9, 324.0 1136.5 C 427.8 1112.9, 573.3 1013.8, 670.3 1145.9 C 774.1 1151.1, 919.6 992.7, 1016.6 1110.3 C 1120.4 1116.1, 1265.9 1059.6, 1362.9 1051.2 C 1466.7 1043.7, 1612.2 1090.0, 1709.1 1004.5 C 1813.0 989.2, 1958.5 1134.2, 2055.4 998.5 C 2159.3 1006.3, 2304.8 1098.6, 2401.7 1036.9 C 2505.6 1027.3, 2651.1 1111.1, 2748.0 1096.3 C 2851.9 1096.4, 2997.4 1051.6, 3094.3 1140.7 C 3198.2 1120.2, 3343.7 1002.0, 3440.6 1143.3" fill="none" stroke="url(#ribbon88)" stroke-width="46.4" stroke-linecap="round" stroke-opacity="0.198" /></g><g transform="rotate(-13.26 1536.0 1536.0)"><path d="M-368.6 1271.1 C -273.4 1181.1, -140.1 1333.4, -51.2 1194.8 C 44.0 1172.3, 177.4 1352.1, 266.2 1242.4 C 361.5 1242.9, 494.8 1287.1, 583.7 1307.4 C 678.9 1304.2, 812.2 1233.7, 901.1 1350.3 C 996.4 1340.5, 1129.7 1205.7, 1218.6 1345.2 C 1313.8 1372.1, 1447.1 1207.7, 1536.0 1295.1 C 1631.2 1297.6, 1764.6 1263.5, 1853.4 1230.4 C 1948.7 1246.6, 2082.0 1309.9, 2170.9 1190.4 C 2266.1 1185.2, 2399.4 1333.3, 2488.3 1199.3 C 2583.6 1172.2, 2716.9 1331.7, 2805.8 1251.7 C 2901.0 1250.3, 3034.3 1288.7, 3123.2 1315.9 C 3218.4 1302.1, 3351.8 1254.4, 3440.6 1352.9" fill="none" stroke="url(#ribbon88)" stroke-width="42.4" stroke-linecap="round" stroke-opacity="0.224" /></g><g transform="rotate(-12.68 1536.0 1536.0)"><path d="M-368.6 1473.7 C -225.8 1369.8, -25.8 1512.7, 107.5 1416.5 C 250.4 1430.2, 450.4 1540.0, 583.7 1484.3 C 726.5 1488.6, 926.5 1469.5, 1059.8 1545.7 C 1202.7 1523.4, 1402.7 1443.5, 1536.0 1563.4 C 1678.8 1596.3, 1878.8 1431.2, 2012.2 1526.7 C 2155.0 1528.5, 2355.0 1454.2, 2488.3 1457.9 C 2631.2 1462.3, 2831.2 1492.5, 2964.5 1398.7 C 3107.3 1384.0, 3307.3 1499.0, 3440.6 1385.0" fill="none" stroke="url(#ribbon88)" stroke-width="38.4" stroke-linecap="round" stroke-opacity="0.250" /></g><g transform="rotate(-12.10 1536.0 1536.0)"><path d="M-368.6 1693.0 C -241.7 1725.9, -63.9 1679.1, 54.6 1660.0 C 181.6 1658.6, 359.4 1707.6, 477.9 1604.1 C 604.8 1595.2, 782.6 1734.9, 901.1 1602.0 C 1028.1 1605.6, 1205.9 1753.8, 1324.4 1655.2 C 1451.3 1659.9, 1629.1 1713.1, 1747.6 1731.2 C 1874.6 1723.5, 2052.4 1653.3, 2170.9 1784.1 C 2297.9 1766.1, 2475.6 1597.0, 2594.1 1781.7 C 2721.1 1751.2, 2898.9 1602.2, 3017.4 1725.5 C 3144.4 1726.4, 3322.1 1683.0, 3440.6 1649.5" fill="none" stroke="url(#ribbon88)" stroke-width="34.4" stroke-linecap="round" stroke-opacity="0.276" /></g><g transform="rotate(-11.52 1536.0 1536.0)"><path d="M-368.6 1841.9 C -254.4 1921.4, -94.4 1786.4, 12.3 1827.2 C 126.6 1829.5, 286.6 1855.1, 393.2 1757.3 C 507.5 1759.7, 667.5 1879.0, 774.1 1738.7 C 888.4 1731.7, 1048.4 1883.7, 1155.1 1782.7 C 1269.4 1785.9, 1429.3 1912.4, 1536.0 1862.7 C 1650.3 1862.9, 1810.3 1821.4, 1916.9 1930.1 C 2031.2 1924.5, 2191.2 1765.9, 2297.9 1944.0 C 2412.1 1914.0, 2572.1 1752.8, 2678.8 1896.0 C 2793.1 1895.4, 2953.1 1821.9, 3059.7 1815.2 C 3174.0 1805.9, 3334.0 1850.7, 3440.6 1750.6" fill="none" stroke="url(#ribbon88)" stroke-width="30.4" stroke-linecap="round" stroke-opacity="0.302" /></g><g transform="rotate(-10.94 1536.0 1536.0)"><path d="M-368.6 2084.0 C -264.8 2125.8, -119.3 2025.6, -22.3 2059.0 C 81.5 2061.0, 227.0 2098.4, 324.0 1988.4 C 427.8 1991.8, 573.3 2198.2, 670.3 1975.7 C 774.1 1996.9, 919.6 2124.5, 1016.6 2028.7 C 1120.4 2034.5, 1265.9 2102.7, 1362.9 2115.2 C 1466.7 2115.8, 1612.2 2062.4, 1709.1 2182.8 C 1813.0 2191.8, 1958.5 2024.7, 2055.4 2190.4 C 2159.3 2194.6, 2304.8 1962.1, 2401.7 2133.4 C 2505.6 2146.4, 2651.1 2029.1, 2748.0 2046.5 C 2851.9 2041.6, 2997.4 2100.6, 3094.3 1982.3 C 3198.2 1943.5, 3343.7 2156.6, 3440.6 1979.7" fill="none" stroke="url(#ribbon88)" stroke-width="26.4" stroke-linecap="round" stroke-opacity="0.328" /></g><g transform="rotate(-10.36 1536.0 1536.0)"><path d="M-368.6 2250.3 C -273.4 2177.4, -140.1 2294.2, -51.2 2132.8 C 44.0 2129.9, 177.4 2327.5, 266.2 2181.6 C 361.5 2165.5, 494.8 2282.4, 583.7 2272.1 C 678.9 2279.5, 812.2 2234.0, 901.1 2349.3 C 996.4 2319.8, 1129.7 2195.7, 1218.6 2366.5 C 1313.8 2405.6, 1447.1 2111.7, 1536.0 2313.2 C 1631.2 2337.4, 1764.6 2206.3, 1853.4 2221.7 C 1948.7 2211.4, 2082.0 2264.0, 2170.9 2147.6 C 2266.1 2150.0, 2399.4 2288.6, 2488.3 2135.8 C 2583.6 2112.9, 2716.9 2291.8, 2805.8 2193.4 C 2901.0 2197.3, 3034.3 2270.6, 3123.2 2285.6 C 3218.4 2273.2, 3351.8 2232.0, 3440.6 2356.3" fill="none" stroke="url(#ribbon88)" stroke-width="22.4" stroke-linecap="round" stroke-opacity="0.354" /></g><g transform="rotate(-9.78 1536.0 1536.0)"><path d="M-368.6 2407.4 C -225.8 2452.8, -25.8 2368.2, 107.5 2518.4 C 250.4 2520.7, 450.4 2311.6, 583.7 2527.5 C 726.5 2543.2, 926.5 2283.9, 1059.8 2463.8 C 1202.7 2478.4, 1402.7 2374.5, 1536.0 2365.9 C 1678.8 2354.9, 1878.8 2438.3, 2012.2 2293.2 C 2155.0 2318.6, 2355.0 2479.2, 2488.3 2289.8 C 2631.2 2263.6, 2831.2 2472.7, 2964.5 2357.8 C 3107.3 2345.7, 3307.3 2463.7, 3440.6 2455.9" fill="none" stroke="url(#ribbon88)" stroke-width="18.4" stroke-linecap="round" stroke-opacity="0.380" /></g><g transform="rotate(-9.20 1536.0 1536.0)"><path d="M-368.6 2604.1 C -241.7 2687.3, -63.9 2553.1, 54.6 2646.4 C 181.6 2651.6, 359.4 2580.8, 477.9 2543.1 C 604.8 2562.5, 782.6 2624.8, 901.1 2476.8 C 1028.1 2461.0, 1205.9 2666.3, 1324.4 2487.7 C 1451.3 2527.7, 1629.1 2688.3, 1747.6 2569.3 C 1874.6 2577.4, 2052.4 2622.8, 2170.9 2671.9 C 2297.9 2681.1, 2475.6 2566.5, 2594.1 2733.4 C 2721.1 2762.2, 2898.9 2529.3, 3017.4 2716.5 C 3144.4 2675.0, 3322.1 2506.4, 3440.6 2631.4" fill="none" stroke="url(#ribbon88)" stroke-width="14.4" stroke-linecap="round" stroke-opacity="0.406" /></g></g>
  <g><ellipse cx="1536.0" cy="1551.9" rx="728.6" ry="605.7" fill="url(#extrude88)" opacity="0.220" /><ellipse cx="1536.0" cy="1567.7" rx="736.0" ry="610.9" fill="url(#extrude88)" opacity="0.205" /><ellipse cx="1536.0" cy="1583.6" rx="743.4" ry="616.1" fill="url(#extrude88)" opacity="0.190" /><ellipse cx="1536.0" cy="1599.5" rx="750.9" ry="621.3" fill="url(#extrude88)" opacity="0.175" /><ellipse cx="1536.0" cy="1615.4" rx="758.3" ry="626.5" fill="url(#extrude88)" opacity="0.160" /><ellipse cx="1536.0" cy="1631.2" rx="765.7" ry="631.7" fill="url(#extrude88)" opacity="0.145" /><ellipse cx="1536.0" cy="1647.1" rx="773.2" ry="636.9" fill="url(#extrude88)" opacity="0.130" /><ellipse cx="1536.0" cy="1663.0" rx="780.6" ry="642.1" fill="url(#extrude88)" opacity="0.115" /><ellipse cx="1536.0" cy="1678.8" rx="788.0" ry="647.4" fill="url(#extrude88)" opacity="0.100" /><ellipse cx="1536.0" cy="1694.7" rx="795.5" ry="652.6" fill="url(#extrude88)" opacity="0.085" /><ellipse cx="1536.0" cy="1710.6" rx="802.9" ry="657.8" fill="url(#extrude88)" opacity="0.070" /><ellipse cx="1536.0" cy="1726.5" rx="810.3" ry="663.0" fill="url(#extrude88)" opacity="0.055" /></g>
  <ellipse cx="1536.0" cy="1726.5" rx="773.2" ry="214.9" fill="#0B1D2D" opacity="0.24" />
  <ellipse cx="1536.0" cy="1536.0" rx="743.4" ry="651.3" fill="url(#orb88)" stroke="#FFFFFF" stroke-opacity="0.42" stroke-width="7" />
  <ellipse cx="1431.9" cy="1392.7" rx="505.5" ry="299.6" fill="#FFFFFF" opacity="0.25" />
  <path d="M 199.4 399.4 C 1013.8 -30.7, 2058.2 768.0, 2872.6 215.0 L 2872.6 983.0 C 2089.0 1228.8, 1013.8 307.2, 199.4 1167.4 Z" fill="url(#glass88)" />
  <rect x="270" y="270" width="2532" height="2532" rx="430" fill="none" stroke="#FFFFFF" stroke-opacity="0.30" stroke-width="5" />
  <rect x="288.4" y="288.4" width="2495.1" height="2495.1" rx="399" fill="none" stroke="#FF9F43" stroke-opacity="0.35" stroke-width="3" />
  <g filter="url(#soft88)"><rect x="939" y="2065" width="60" height="2" fill="#FFFFFF" opacity="0.348" /><rect x="968" y="2036" width="2" height="60" fill="#FFFFFF" opacity="0.348" /><rect x="677" y="2377" width="38" height="2" fill="#FFFFFF" opacity="0.747" /><rect x="695" y="2359" width="2" height="38" fill="#FFFFFF" opacity="0.747" /><rect x="1799" y="2529" width="68" height="2" fill="#FFFFFF" opacity="0.389" /><rect x="1832" y="2496" width="2" height="68" fill="#FFFFFF" opacity="0.389" /><rect x="1541" y="1215" width="64" height="2" fill="#FFFFFF" opacity="0.484" /><rect x="1572" y="1184" width="2" height="64" fill="#FFFFFF" opacity="0.484" /><rect x="2445" y="551" width="50" height="2" fill="#FFFFFF" opacity="0.841" /><rect x="2469" y="527" width="2" height="50" fill="#FFFFFF" opacity="0.841" /><rect x="555" y="1901" width="70" height="2" fill="#FFFFFF" opacity="0.814" /><rect x="589" y="1867" width="2" height="70" fill="#FFFFFF" opacity="0.814" /><rect x="666" y="1736" width="80" height="2" fill="#FFFFFF" opacity="0.498" /><rect x="705" y="1697" width="2" height="80" fill="#FFFFFF" opacity="0.498" /><rect x="738" y="2656" width="68" height="2" fill="#FFFFFF" opacity="0.363" /><rect x="771" y="2623" width="2" height="68" fill="#FFFFFF" opacity="0.363" /><rect x="1913" y="2480" width="70" height="2" fill="#FFFFFF" opacity="0.331" /><rect x="1947" y="2446" width="2" height="70" fill="#FFFFFF" opacity="0.331" /><rect x="2747" y="480" width="68" height="2" fill="#FFFFFF" opacity="0.601" /><rect x="2780" y="447" width="2" height="68" fill="#FFFFFF" opacity="0.601" /><rect x="2297" y="2528" width="56" height="2" fill="#FFFFFF" opacity="0.569" /><rect x="2324" y="2501" width="2" height="56" fill="#FFFFFF" opacity="0.569" /><rect x="2267" y="2537" width="68" height="2" fill="#FFFFFF" opacity="0.602" /><rect x="2300" y="2504" width="2" height="68" fill="#FFFFFF" opacity="0.602" /><rect x="1563" y="1317" width="34" height="2" fill="#FFFFFF" opacity="0.559" /><rect x="1579" y="1301" width="2" height="34" fill="#FFFFFF" opacity="0.559" /><rect x="2040" y="1161" width="56" height="2" fill="#FFFFFF" opacity="0.632" /><rect x="2067" y="1134" width="2" height="56" fill="#FFFFFF" opacity="0.632" /><rect x="359" y="779" width="44" height="2" fill="#FFFFFF" opacity="0.319" /><rect x="380" y="758" width="2" height="44" fill="#FFFFFF" opacity="0.319" /><rect x="742" y="670" width="30" height="2" fill="#FFFFFF" opacity="0.837" /><rect x="756" y="656" width="2" height="30" fill="#FFFFFF" opacity="0.837" /><rect x="2182" y="1998" width="26" height="2" fill="#FFFFFF" opacity="0.465" /><rect x="2194" y="1986" width="2" height="26" fill="#FFFFFF" opacity="0.465" /><rect x="1526" y="245" width="42" height="2" fill="#FFFFFF" opacity="0.493" /><rect x="1546" y="225" width="2" height="42" fill="#FFFFFF" opacity="0.493" /><rect x="2052" y="770" width="84" height="2" fill="#FFFFFF" opacity="0.533" /><rect x="2093" y="729" width="2" height="84" fill="#FFFFFF" opacity="0.533" /><rect x="2544" y="903" width="70" height="2" fill="#FFFFFF" opacity="0.612" /><rect x="2578" y="869" width="2" height="70" fill="#FFFFFF" opacity="0.612" /><rect x="2770" y="2205" width="66" height="2" fill="#FFFFFF" opacity="0.624" /><rect x="2802" y="2173" width="2" height="66" fill="#FFFFFF" opacity="0.624" /><rect x="2045" y="1294" width="34" height="2" fill="#FFFFFF" opacity="0.518" /><rect x="2061" y="1278" width="2" height="34" fill="#FFFFFF" opacity="0.518" /><rect x="2534" y="1490" width="46" height="2" fill="#FFFFFF" opacity="0.345" /><rect x="2556" y="1468" width="2" height="46" fill="#FFFFFF" opacity="0.345" /><rect x="366" y="2463" width="28" height="2" fill="#FFFFFF" opacity="0.511" /><rect x="379" y="2450" width="2" height="28" fill="#FFFFFF" opacity="0.511" /><rect x="2609" y="1330" width="76" height="2" fill="#FFFFFF" opacity="0.526" /><rect x="2646" y="1293" width="2" height="76" fill="#FFFFFF" opacity="0.526" /><rect x="1706" y="1442" width="56" height="2" fill="#FFFFFF" opacity="0.723" /><rect x="1733" y="1415" width="2" height="56" fill="#FFFFFF" opacity="0.723" /></g>
  <g opacity="0.52"><path d="M1572 1006 L2148 1582 L1572 2158 L996 1582 Z" fill="none" stroke="#0C2030" stroke-width="90" stroke-linejoin="round" /><circle cx="1572" cy="1582" r="153" fill="#0C2030" /></g>
  <g filter="url(#soft88)"><path d="M1536 960 L2112 1536 L1536 2112 L960 1536 Z" fill="none" stroke="url(#symbol88)" stroke-width="90" stroke-linejoin="round" /><circle cx="1536" cy="1536" r="153" fill="url(#symbol88)" /></g>
  <rect x="138" y="138" width="2796" height="2796" rx="629" fill="#FFFFFF" filter="url(#grain88)" opacity="0.18" />
</svg>
