<svg xmlns="http://www.w3.org/2000/svg" width="3072" height="3072" viewBox="0 0 3072 3072">
  <title>QuartzOS App Icon 329 - lumen_builder_329</title>
  <defs><linearGradient id="bg328" x1="0%" y1="0%" x2="100%" y2="100%"><stop offset="0%" stop-color="#53E3A6" /><stop offset="26%" stop-color="#3B82FF" /><stop offset="56%" stop-color="#FF6AB3" /><stop offset="78%" stop-color="#5AA47F" /><stop offset="100%" stop-color="#1A2B22" /></linearGradient><radialGradient id="sun328" cx="26%" cy="34%" r="88%"><stop offset="0%" stop-color="#FFFFFF" stop-opacity="0.62" /><stop offset="30%" stop-color="#FF9F43" stop-opacity="0.35" /><stop offset="100%" stop-color="#FF9F43" stop-opacity="0" /></radialGradient><linearGradient id="glass328" x1="0%" y1="0%" x2="0%" y2="100%"><stop offset="0%" stop-color="#FFFFFF" stop-opacity="0.70" /><stop offset="46%" stop-color="#FFFFFF" stop-opacity="0.26" /><stop offset="100%" stop-color="#FFFFFF" stop-opacity="0.00" /></linearGradient><linearGradient id="ribbon328" x1="0%" y1="0%" x2="100%" y2="0%"><stop offset="0%" stop-color="#53E3A6" stop-opacity="0.18" /><stop offset="34%" stop-color="#3B82FF" stop-opacity="0.72" /><stop offset="66%" stop-color="#FF6AB3" stop-opacity="0.72" /><stop offset="100%" stop-color="#FF9F43" stop-opacity="0.18" /></linearGradient><radialGradient id="orb328" cx="34%" cy="27%" r="74%"><stop offset="0%" stop-color="#FFFFFF" stop-opacity="0.84" /><stop offset="30%" stop-color="#53E3A6" stop-opacity="0.52" /><stop offset="68%" stop-color="#3B82FF" stop-opacity="0.42" /><stop offset="100%" stop-color="#FF6AB3" stop-opacity="0.20" /></radialGradient><linearGradient id="extrude328" x1="0%" y1="0%" x2="0%" y2="100%"><stop offset="0%" stop-color="#15283C" stop-opacity="0.45" /><stop offset="100%" stop-color="#08131D" stop-opacity="0.06" /></linearGradient><linearGradient id="symbol328" x1="0%" y1="0%" x2="100%" y2="100%"><stop offset="0%" stop-color="#FFFFFF" /><stop offset="100%" stop-color="#FF9F43" /></linearGradient><filter id="shadow328" x="-40%" y="-40%" width="180%" height="180%"><feDropShadow dx="0" dy="49" stdDeviation="86" flood-color="#06111A" flood-opacity="0.54" /></filter><filter id="soft328" x="-40%" y="-40%" width="180%" height="180%"><feDropShadow dx="0" dy="0" stdDeviation="14" flood-color="#53E3A6" flood-opacity="0.45" /></filter><filter id="grain328"><feTurbulence type="fractalNoise" baseFrequency="0.761" numOctaves="2" seed="328" /><feColorMatrix type="saturate" values="0" /><feComponentTransfer><feFuncA type="table" tableValues="0 0.09" /></feComponentTransfer></filter></defs>
  <rect x="138" y="138" width="2796" height="2796" rx="629" fill="url(#bg328)" filter="url(#shadow328)" />
  <rect x="138" y="138" width="2796" height="2796" rx="629" fill="url(#sun328)" />
  <g><circle cx="2643" cy="1603" r="103" fill="#FFFFFF" opacity="0.128" /><circle cx="477" cy="629" r="67" fill="#FFFFFF" opacity="0.120" /><circle cx="879" cy="684" r="113" fill="#FFFFFF" opacity="0.108" /><circle cx="1115" cy="1107" r="153" fill="#FFFFFF" opacity="0.084" /><circle cx="1893" cy="1220" r="67" fill="#FFFFFF" opacity="0.176" /><circle cx="1463" cy="2163" r="154" fill="#FFFFFF" opacity="0.083" /><circle cx="2481" cy="346" r="115" fill="#FFFFFF" opacity="0.194" /><circle cx="1876" cy="2374" r="118" fill="#FFFFFF" opacity="0.170" /><circle cx="2315" cy="819" r="157" fill="#FFFFFF" opacity="0.171" /><circle cx="2664" cy="1777" r="81" fill="#FFFFFF" opacity="0.079" /><circle cx="2522" cy="1683" r="135" fill="#FFFFFF" opacity="0.175" /><circle cx="420" cy="696" r="144" fill="#FFFFFF" opacity="0.152" /><circle cx="912" cy="1663" r="78" fill="#FFFFFF" opacity="0.206" /><circle cx="1987" cy="1709" r="63" fill="#FFFFFF" opacity="0.072" /><circle cx="2523" cy="911" r="45" fill="#FFFFFF" opacity="0.219" /><circle cx="2400" cy="392" r="83" fill="#FFFFFF" opacity="0.079" /><circle cx="1131" cy="1100" r="57" fill="#FFFFFF" opacity="0.113" /><circle cx="1482" cy="762" r="54" fill="#FFFFFF" opacity="0.184" /><circle cx="1762" cy="1485" r="58" fill="#FFFFFF" opacity="0.221" /><circle cx="755" cy="329" r="148" fill="#FFFFFF" opacity="0.231" /><circle cx="2496" cy="492" r="110" fill="#FFFFFF" opacity="0.154" /><circle cx="1651" cy="2245" r="123" fill="#FFFFFF" opacity="0.125" /><circle cx="923" cy="467" r="120" fill="#FFFFFF" opacity="0.124" /><circle cx="376" cy="1854" r="52" fill="#FFFFFF" opacity="0.188" /><circle cx="1926" cy="1177" r="54" fill="#FFFFFF" opacity="0.080" /><circle cx="427" cy="342" r="94" fill="#FFFFFF" opacity="0.236" /><circle cx="1078" cy="1261" r="42" fill="#FFFFFF" opacity="0.067" /><circle cx="738" cy="2361" r="131" fill="#FFFFFF" opacity="0.233" /></g>
  <g><path d="M 159.0 634.8 L 2852.5 358.3 L 2852.5 832.1 L 159.0 1108.6 Z" fill="#FFFFFF" opacity="0.157" /><path d="M 164.2 911.0 L 2865.2 634.6 L 2865.2 1130.7 L 164.2 1407.2 Z" fill="#FFFFFF" opacity="0.218" /><path d="M 300.9 1151.6 L 2838.4 875.2 L 2838.4 1310.2 L 300.9 1586.7 Z" fill="#FFFFFF" opacity="0.181" /><path d="M 198.7 1353.7 L 2828.3 1077.2 L 2828.3 1551.2 L 198.7 1827.7 Z" fill="#FFFFFF" opacity="0.195" /><path d="M 224.9 1660.2 L 2744.1 1383.8 L 2744.1 1806.7 L 224.9 2083.2 Z" fill="#FFFFFF" opacity="0.199" /><path d="M 384.0 1884.2 L 2805.4 1607.7 L 2805.4 2049.2 L 384.0 2325.7 Z" fill="#FFFFFF" opacity="0.123" /><path d="M 331.4 2198.7 L 2885.4 1922.2 L 2885.4 2375.2 L 331.4 2651.6 Z" fill="#FFFFFF" opacity="0.094" /><path d="M 225.1 2417.1 L 2761.0 2140.6 L 2761.0 2638.0 L 225.1 2914.5 Z" fill="#FFFFFF" opacity="0.113" /></g>
  <g filter="url(#soft328)"><g transform="rotate(-5.49 1536.0 1536.0)"><path d="M-368.6 506.6 C -225.8 525.9, -25.8 496.7, 107.5 481.2 C 250.4 474.2, 450.4 517.2, 583.7 453.7 C 726.5 459.6, 926.5 543.9, 1059.8 458.3 C 1202.7 470.3, 1402.7 539.7, 1536.0 492.2 C 1678.8 489.7, 1878.8 513.8, 2012.2 534.9 C 2155.0 532.7, 2355.0 486.4, 2488.3 560.4 C 2631.2 549.9, 2831.2 477.7, 2964.5 553.3 C 3107.3 563.6, 3307.3 460.6, 3440.6 517.9" fill="none" stroke="url(#ribbon328)" stroke-width="58.4" stroke-linecap="round" stroke-opacity="0.120" /></g><g transform="rotate(-4.91 1536.0 1536.0)"><path d="M-368.6 682.4 C -241.7 626.6, -63.9 724.3, 54.6 645.6 C 181.6 653.5, 359.4 712.7, 477.9 692.8 C 604.8 689.0, 782.6 670.3, 901.1 733.8 C 1028.1 751.4, 1205.9 653.8, 1324.4 743.6 C 1451.3 755.7, 1629.1 654.6, 1747.6 716.2 C 1874.6 726.0, 2052.4 657.5, 2170.9 668.4 C 2297.9 666.7, 2475.6 696.0, 2594.1 629.1 C 2721.1 618.9, 2898.9 714.6, 3017.4 622.1 C 3144.4 635.9, 3322.1 721.0, 3440.6 651.7" fill="none" stroke="url(#ribbon328)" stroke-width="54.4" stroke-linecap="round" stroke-opacity="0.146" /></g><g transform="rotate(-4.33 1536.0 1536.0)"><path d="M-368.6 938.2 C -254.4 944.9, -94.4 929.2, 12.3 994.6 C 126.6 1001.9, 286.6 879.5, 393.2 1006.6 C 507.5 1015.3, 667.5 917.1, 774.1 977.1 C 888.4 963.3, 1048.4 897.1, 1155.1 924.0 C 1269.4 919.9, 1429.3 949.2, 1536.0 879.6 C 1650.3 877.8, 1810.3 990.8, 1916.9 870.7 C 2031.2 848.5, 2191.2 972.1, 2297.9 902.8 C 2412.1 916.3, 2572.1 961.6, 2678.8 956.4 C 2793.1 956.0, 2953.1 928.3, 3059.7 999.0 C 3174.0 1003.3, 3334.0 920.0, 3440.6 1004.7" fill="none" stroke="url(#ribbon328)" stroke-width="50.4" stroke-linecap="round" stroke-opacity="0.172" /></g><g transform="rotate(-3.75 1536.0 1536.0)"><path d="M-368.6 1140.3 C -264.8 1188.2, -119.3 1072.1, -22.3 1173.8 C 81.5 1163.0, 227.0 1114.2, 324.0 1114.4 C 427.8 1108.3, 573.3 1149.0, 670.3 1070.6 C 774.1 1066.4, 919.6 1202.0, 1016.6 1069.2 C 1120.4 1048.1, 1265.9 1206.9, 1362.9 1110.9 C 1466.7 1122.5, 1612.2 1161.5, 1709.1 1170.5 C 1813.0 1160.0, 1958.5 1121.2, 2055.4 1211.8 C 2159.3 1214.5, 2304.8 1063.1, 2401.7 1209.7 C 2505.6 1191.2, 2651.1 1112.6, 2748.0 1165.6 C 2851.9 1159.1, 2997.4 1118.9, 3094.3 1106.1 C 3198.2 1112.9, 3343.7 1179.4, 3440.6 1067.4" fill="none" stroke="url(#ribbon328)" stroke-width="46.4" stroke-linecap="round" stroke-opacity="0.198" /></g><g transform="rotate(-3.17 1536.0 1536.0)"><path d="M-368.6 1254.2 C -273.4 1198.6, -140.1 1318.1, -51.2 1257.1 C 44.0 1256.3, 177.4 1251.3, 266.2 1316.1 C 361.5 1338.1, 494.8 1209.7, 583.7 1337.6 C 678.9 1321.3, 812.2 1221.4, 901.1 1308.4 C 996.4 1304.3, 1129.7 1223.3, 1218.6 1246.4 C 1313.8 1247.0, 1447.1 1256.8, 1536.0 1189.1 C 1631.2 1211.0, 1764.6 1307.0, 1853.4 1171.2 C 1948.7 1153.6, 2082.0 1333.5, 2170.9 1203.7 C 2266.1 1216.5, 2399.4 1288.3, 2488.3 1266.8 C 2583.6 1268.2, 2716.9 1241.9, 2805.8 1322.2 C 2901.0 1316.1, 3034.3 1214.1, 3123.2 1336.4 C 3218.4 1343.8, 3351.8 1228.2, 3440.6 1300.7" fill="none" stroke="url(#ribbon328)" stroke-width="42.4" stroke-linecap="round" stroke-opacity="0.224" /></g><g transform="rotate(-2.59 1536.0 1536.0)"><path d="M-368.6 1489.8 C -225.8 1593.0, -25.8 1419.4, 107.5 1516.2 C 250.4 1519.1, 450.4 1471.1, 583.7 1446.0 C 726.5 1428.8, 926.5 1529.7, 1059.8 1402.4 C 1202.7 1400.5, 1402.7 1579.2, 1536.0 1411.8 C 1678.8 1415.7, 1878.8 1581.4, 2012.2 1468.5 C 2155.0 1465.4, 2355.0 1497.6, 2488.3 1538.2 C 2631.2 1554.9, 2831.2 1461.5, 2964.5 1578.5 C 3107.3 1586.4, 3307.3 1416.4, 3440.6 1565.0" fill="none" stroke="url(#ribbon328)" stroke-width="38.4" stroke-linecap="round" stroke-opacity="0.250" /></g><g transform="rotate(-2.01 1536.0 1536.0)"><path d="M-368.6 1701.3 C -241.7 1618.1, -63.9 1814.8, 54.6 1647.7 C 181.6 1660.6, 359.4 1761.9, 477.9 1722.6 C 604.8 1727.6, 782.6 1690.8, 901.1 1784.5 C 1028.1 1777.0, 1205.9 1666.1, 1324.4 1796.0 C 1451.3 1761.6, 1629.1 1629.4, 1747.6 1750.0 C 1874.6 1748.9, 2052.4 1666.8, 2170.9 1674.5 C 2297.9 1681.6, 2475.6 1718.9, 2594.1 1615.2 C 2721.1 1626.6, 2898.9 1765.5, 3017.4 1608.2 C 3144.4 1615.0, 3322.1 1810.4, 3440.6 1657.6" fill="none" stroke="url(#ribbon328)" stroke-width="34.4" stroke-linecap="round" stroke-opacity="0.276" /></g><g transform="rotate(-1.43 1536.0 1536.0)"><path d="M-368.6 1921.8 C -254.4 1976.2, -94.4 1909.9, 12.3 1879.5 C 126.6 1884.8, 286.6 1938.9, 393.2 1823.6 C 507.5 1827.7, 667.5 2006.0, 774.1 1827.2 C 888.4 1808.8, 1048.4 2009.1, 1155.1 1888.3 C 1269.4 1883.9, 1429.3 1948.3, 1536.0 1969.6 C 1650.3 1957.0, 1810.3 1885.2, 1916.9 2022.0 C 2031.2 2042.3, 2191.2 1871.3, 2297.9 2013.5 C 2412.1 2040.4, 2572.1 1890.3, 2678.8 1949.4 C 2793.1 1950.5, 2953.1 1906.3, 3059.7 1868.6 C 3174.0 1867.5, 3334.0 1938.6, 3440.6 1820.0" fill="none" stroke="url(#ribbon328)" stroke-width="30.4" stroke-linecap="round" stroke-opacity="0.302" /></g><g transform="rotate(-0.85 1536.0 1536.0)"><path d="M-368.6 2059.4 C -264.8 2183.2, -119.3 2013.9, -22.3 2166.1 C 81.5 2165.1, 227.0 1943.9, 324.0 2109.9 C 427.8 2106.6, 573.3 2028.9, 670.3 2023.0 C 774.1 2016.2, 919.6 2074.3, 1016.6 1958.2 C 1120.4 1933.2, 1265.9 2133.6, 1362.9 1954.8 C 1466.7 1975.7, 1612.2 2138.9, 1709.1 2014.8 C 1813.0 2003.1, 1958.5 2082.6, 2055.4 2101.9 C 2159.3 2113.2, 2304.8 2036.3, 2401.7 2163.2 C 2505.6 2177.7, 2651.1 1934.9, 2748.0 2161.5 C 2851.9 2180.0, 2997.4 1955.5, 3094.3 2097.9 C 3198.2 2103.6, 3343.7 2037.9, 3440.6 2010.9" fill="none" stroke="url(#ribbon328)" stroke-width="26.4" stroke-linecap="round" stroke-opacity="0.328" /></g><g transform="rotate(-0.27 1536.0 1536.0)"><path d="M-368.6 2323.3 C -273.4 2402.1, -140.1 2260.1, -51.2 2441.6 C 44.0 2485.0, 177.4 2182.5, 266.2 2397.2 C 361.5 2376.2, 494.8 2263.8, 583.7 2308.0 C 678.9 2304.4, 812.2 2340.7, 901.1 2228.1 C 996.4 2232.3, 1129.7 2371.6, 1218.6 2205.9 C 1313.8 2161.0, 1447.1 2456.7, 1536.0 2255.0 C 1631.2 2270.6, 1764.6 2379.4, 1853.4 2345.5 C 1948.7 2340.8, 2082.0 2307.8, 2170.9 2422.6 C 2266.1 2417.0, 2399.4 2235.4, 2488.3 2439.4 C 2583.6 2435.5, 2716.9 2237.3, 2805.8 2385.9 C 2901.0 2393.7, 3034.3 2295.9, 3123.2 2294.4 C 3218.4 2297.0, 3351.8 2347.7, 3440.6 2220.4" fill="none" stroke="url(#ribbon328)" stroke-width="22.4" stroke-linecap="round" stroke-opacity="0.354" /></g><g transform="rotate(0.31 1536.0 1536.0)"><path d="M-368.6 2493.5 C -225.8 2504.7, -25.8 2480.8, 107.5 2593.8 C 250.4 2571.0, 450.4 2428.3, 583.7 2618.0 C 726.5 2580.2, 926.5 2406.1, 1059.8 2566.7 C 1202.7 2581.4, 1402.7 2409.3, 1536.0 2471.0 C 1678.8 2475.3, 1878.8 2516.2, 2012.2 2388.9 C 2155.0 2416.7, 2355.0 2590.4, 2488.3 2370.3 C 2631.2 2371.4, 2831.2 2617.8, 2964.5 2426.3 C 3107.3 2443.1, 3307.3 2552.3, 3440.6 2523.1" fill="none" stroke="url(#ribbon328)" stroke-width="18.4" stroke-linecap="round" stroke-opacity="0.380" /></g><g transform="rotate(0.89 1536.0 1536.0)"><path d="M-368.6 2634.1 C -241.7 2688.9, -63.9 2550.9, 54.6 2607.2 C 181.6 2596.7, 359.4 2650.9, 477.9 2522.0 C 604.8 2484.6, 782.6 2698.4, 901.1 2504.7 C 1028.1 2510.7, 1205.9 2700.7, 1324.4 2566.0 C 1451.3 2571.0, 1629.1 2679.6, 1747.6 2668.6 C 1874.6 2671.7, 2052.4 2606.3, 2170.9 2750.3 C 2297.9 2726.0, 2475.6 2541.6, 2594.1 2761.6 C 2721.1 2768.5, 2898.9 2500.3, 3017.4 2695.5 C 3144.4 2677.0, 3322.1 2594.0, 3440.6 2592.2" fill="none" stroke="url(#ribbon328)" stroke-width="14.4" stroke-linecap="round" stroke-opacity="0.406" /></g></g>
  <g><ellipse cx="1536.0" cy="1551.9" rx="728.6" ry="605.7" fill="url(#extrude328)" opacity="0.220" /><ellipse cx="1536.0" cy="1567.7" rx="736.0" ry="610.9" fill="url(#extrude328)" opacity="0.205" /><ellipse cx="1536.0" cy="1583.6" rx="743.4" ry="616.1" fill="url(#extrude328)" opacity="0.190" /><ellipse cx="1536.0" cy="1599.5" rx="750.9" ry="621.3" fill="url(#extrude328)" opacity="0.175" /><ellipse cx="1536.0" cy="1615.4" rx="758.3" ry="626.5" fill="url(#extrude328)" opacity="0.160" /><ellipse cx="1536.0" cy="1631.2" rx="765.7" ry="631.7" fill="url(#extrude328)" opacity="0.145" /><ellipse cx="1536.0" cy="1647.1" rx="773.2" ry="636.9" fill="url(#extrude328)" opacity="0.130" /><ellipse cx="1536.0" cy="1663.0" rx="780.6" ry="642.1" fill="url(#extrude328)" opacity="0.115" /><ellipse cx="1536.0" cy="1678.8" rx="788.0" ry="647.4" fill="url(#extrude328)" opacity="0.100" /><ellipse cx="1536.0" cy="1694.7" rx="795.5" ry="652.6" fill="url(#extrude328)" opacity="0.085" /><ellipse cx="1536.0" cy="1710.6" rx="802.9" ry="657.8" fill="url(#extrude328)" opacity="0.070" /><ellipse cx="1536.0" cy="1726.5" rx="810.3" ry="663.0" fill="url(#extrude328)" opacity="0.055" /></g>
  <ellipse cx="1536.0" cy="1726.5" rx="773.2" ry="214.9" fill="#0B1D2D" opacity="0.24" />
  <ellipse cx="1536.0" cy="1536.0" rx="743.4" ry="651.3" fill="url(#orb328)" stroke="#FFFFFF" stroke-opacity="0.42" stroke-width="7" />
  <ellipse cx="1431.9" cy="1392.7" rx="505.5" ry="299.6" fill="#FFFFFF" opacity="0.25" />
  <path d="M 199.4 399.4 C 1013.8 -30.7, 2058.2 768.0, 2872.6 215.0 L 2872.6 983.0 C 2089.0 1228.8, 1013.8 307.2, 199.4 1167.4 Z" fill="url(#glass328)" />
  <rect x="270" y="270" width="2532" height="2532" rx="430" fill="none" stroke="#FFFFFF" stroke-opacity="0.30" stroke-width="5" />
  <rect x="288.4" y="288.4" width="2495.1" height="2495.1" rx="399" fill="none" stroke="#53E3A6" stroke-opacity="0.35" stroke-width="3" />
  <g filter="url(#soft328)"><rect x="2079" y="2177" width="76" height="2" fill="#FFFFFF" opacity="0.812" /><rect x="2116" y="2140" width="2" height="76" fill="#FFFFFF" opacity="0.812" /><rect x="1306" y="1034" width="44" height="2" fill="#FFFFFF" opacity="0.365" /><rect x="1327" y="1013" width="2" height="44" fill="#FFFFFF" opacity="0.365" /><rect x="2048" y="646" width="84" height="2" fill="#FFFFFF" opacity="0.557" /><rect x="2089" y="605" width="2" height="84" fill="#FFFFFF" opacity="0.557" /><rect x="1713" y="2169" width="26" height="2" fill="#FFFFFF" opacity="0.445" /><rect x="1725" y="2157" width="2" height="26" fill="#FFFFFF" opacity="0.445" /><rect x="1620" y="703" width="26" height="2" fill="#FFFFFF" opacity="0.471" /><rect x="1632" y="691" width="2" height="26" fill="#FFFFFF" opacity="0.471" /><rect x="2150" y="736" width="54" height="2" fill="#FFFFFF" opacity="0.483" /><rect x="2176" y="710" width="2" height="54" fill="#FFFFFF" opacity="0.483" /><rect x="2720" y="1534" width="38" height="2" fill="#FFFFFF" opacity="0.527" /><rect x="2738" y="1516" width="2" height="38" fill="#FFFFFF" opacity="0.527" /><rect x="2053" y="388" width="28" height="2" fill="#FFFFFF" opacity="0.371" /><rect x="2066" y="375" width="2" height="28" fill="#FFFFFF" opacity="0.371" /><rect x="2241" y="1783" width="80" height="2" fill="#FFFFFF" opacity="0.453" /><rect x="2280" y="1744" width="2" height="80" fill="#FFFFFF" opacity="0.453" /><rect x="337" y="1049" width="40" height="2" fill="#FFFFFF" opacity="0.459" /><rect x="356" y="1030" width="2" height="40" fill="#FFFFFF" opacity="0.459" /><rect x="1877" y="2351" width="76" height="2" fill="#FFFFFF" opacity="0.732" /><rect x="1914" y="2314" width="2" height="76" fill="#FFFFFF" opacity="0.732" /><rect x="2059" y="534" width="82" height="2" fill="#FFFFFF" opacity="0.779" /><rect x="2099" y="494" width="2" height="82" fill="#FFFFFF" opacity="0.779" /><rect x="2377" y="536" width="30" height="2" fill="#FFFFFF" opacity="0.336" /><rect x="2391" y="522" width="2" height="30" fill="#FFFFFF" opacity="0.336" /><rect x="1802" y="2622" width="34" height="2" fill="#FFFFFF" opacity="0.313" /><rect x="1818" y="2606" width="2" height="34" fill="#FFFFFF" opacity="0.313" /><rect x="2437" y="705" width="28" height="2" fill="#FFFFFF" opacity="0.536" /><rect x="2450" y="692" width="2" height="28" fill="#FFFFFF" opacity="0.536" /><rect x="1655" y="1357" width="32" height="2" fill="#FFFFFF" opacity="0.684" /><rect x="1670" y="1342" width="2" height="32" fill="#FFFFFF" opacity="0.684" /><rect x="2220" y="1193" width="74" height="2" fill="#FFFFFF" opacity="0.511" /><rect x="2256" y="1157" width="2" height="74" fill="#FFFFFF" opacity="0.511" /><rect x="1423" y="2032" width="42" height="2" fill="#FFFFFF" opacity="0.539" /><rect x="1443" y="2012" width="2" height="42" fill="#FFFFFF" opacity="0.539" /><rect x="1310" y="250" width="76" height="2" fill="#FFFFFF" opacity="0.676" /><rect x="1347" y="213" width="2" height="76" fill="#FFFFFF" opacity="0.676" /><rect x="636" y="765" width="42" height="2" fill="#FFFFFF" opacity="0.415" /><rect x="656" y="745" width="2" height="42" fill="#FFFFFF" opacity="0.415" /><rect x="1121" y="886" width="30" height="2" fill="#FFFFFF" opacity="0.558" /><rect x="1135" y="872" width="2" height="30" fill="#FFFFFF" opacity="0.558" /><rect x="2699" y="760" width="54" height="2" fill="#FFFFFF" opacity="0.487" /><rect x="2725" y="734" width="2" height="54" fill="#FFFFFF" opacity="0.487" /><rect x="1881" y="2024" width="34" height="2" fill="#FFFFFF" opacity="0.548" /><rect x="1897" y="2008" width="2" height="34" fill="#FFFFFF" opacity="0.548" /><rect x="984" y="2277" width="58" height="2" fill="#FFFFFF" opacity="0.553" /><rect x="1012" y="2249" width="2" height="58" fill="#FFFFFF" opacity="0.553" /><rect x="1809" y="1137" width="28" height="2" fill="#FFFFFF" opacity="0.387" /><rect x="1822" y="1124" width="2" height="28" fill="#FFFFFF" opacity="0.387" /><rect x="2152" y="1569" width="70" height="2" fill="#FFFFFF" opacity="0.600" /><rect x="2186" y="1535" width="2" height="70" fill="#FFFFFF" opacity="0.600" /></g>
  <g opacity="0.52"><path d="M1572 1006 L2148 1582 L1572 2158 L996 1582 Z" fill="none" stroke="#0C2030" stroke-width="90" stroke-linejoin="round" /><circle cx="1572" cy="1582" r="153" fill="#0C2030" /></g>
  <g filter="url(#soft328)"><path d="M1536 960 L2112 1536 L1536 2112 L960 1536 Z" fill="none" stroke="url(#symbol328)" stroke-width="90" stroke-linejoin="round" /><circle cx="1536" cy="1536" r="153" fill="url(#symbol328)" /></g>
  <rect x="138" y="138" width="2796" height="2796" rx="629" fill="#FFFFFF" filter="url(#grain328)" opacity="0.18" />
</svg>
