<svg xmlns="http://www.w3.org/2000/svg" width="3072" height="3072" viewBox="0 0 3072 3072">
  <title>QuartzOS App Icon 069 - lumen_player_069</title>
  <defs><linearGradient id="bg68" x1="0%" y1="0%" x2="100%" y2="100%"><stop offset="0%" stop-color="#FFD84D" /><stop offset="26%" stop-color="#36D1FF" /><stop offset="56%" stop-color="#8A5CFF" /><stop offset="78%" stop-color="#3C8FC1" /><stop offset="100%" stop-color="#1E2E3A" /></linearGradient><radialGradient id="sun68" cx="30%" cy="10%" r="88%"><stop offset="0%" stop-color="#FFFFFF" stop-opacity="0.62" /><stop offset="30%" stop-color="#FF6AB3" stop-opacity="0.35" /><stop offset="100%" stop-color="#FF6AB3" stop-opacity="0" /></radialGradient><linearGradient id="glass68" x1="0%" y1="0%" x2="0%" y2="100%"><stop offset="0%" stop-color="#FFFFFF" stop-opacity="0.70" /><stop offset="46%" stop-color="#FFFFFF" stop-opacity="0.26" /><stop offset="100%" stop-color="#FFFFFF" stop-opacity="0.00" /></linearGradient><linearGradient id="ribbon68" x1="0%" y1="0%" x2="100%" y2="0%"><stop offset="0%" stop-color="#FFD84D" stop-opacity="0.18" /><stop offset="34%" stop-color="#36D1FF" stop-opacity="0.72" /><stop offset="66%" stop-color="#8A5CFF" stop-opacity="0.72" /><stop offset="100%" stop-color="#FF6AB3" stop-opacity="0.18" /></linearGradient><radialGradient id="orb68" cx="34%" cy="27%" r="74%"><stop offset="0%" stop-color="#FFFFFF" stop-opacity="0.84" /><stop offset="30%" stop-color="#FFD84D" stop-opacity="0.52" /><stop offset="68%" stop-color="#36D1FF" stop-opacity="0.42" /><stop offset="100%" stop-color="#8A5CFF" stop-opacity="0.20" /></radialGradient><linearGradient id="extrude68" x1="0%" y1="0%" x2="0%" y2="100%"><stop offset="0%" stop-color="#15283C" stop-opacity="0.45" /><stop offset="100%" stop-color="#08131D" stop-opacity="0.06" /></linearGradient><linearGradient id="symbol68" x1="0%" y1="0%" x2="100%" y2="100%"><stop offset="0%" stop-color="#FFFFFF" /><stop offset="100%" stop-color="#FF6AB3" /></linearGradient><filter id="shadow68" x="-40%" y="-40%" width="180%" height="180%"><feDropShadow dx="0" dy="49" stdDeviation="86" flood-color="#06111A" flood-opacity="0.54" /></filter><filter id="soft68" x="-40%" y="-40%" width="180%" height="180%"><feDropShadow dx="0" dy="0" stdDeviation="14" flood-color="#FFD84D" flood-opacity="0.45" /></filter><filter id="grain68"><feTurbulence type="fractalNoise" baseFrequency="0.992" numOctaves="2" seed="68" /><feColorMatrix type="saturate" values="0" /><feComponentTransfer><feFuncA type="table" tableValues="0 0.09" /></feComponentTransfer></filter></defs>
  <rect x="138" y="138" width="2796" height="2796" rx="629" fill="url(#bg68)" filter="url(#shadow68)" />
  <rect x="138" y="138" width="2796" height="2796" rx="629" fill="url(#sun68)" />
  <g><circle cx="2457" cy="676" r="151" fill="#FFFFFF" opacity="0.222" /><circle cx="1712" cy="1433" r="115" fill="#FFFFFF" opacity="0.228" /><circle cx="2116" cy="2598" r="124" fill="#FFFFFF" opacity="0.142" /><circle cx="914" cy="1215" r="40" fill="#FFFFFF" opacity="0.088" /><circle cx="1093" cy="1726" r="47" fill="#FFFFFF" opacity="0.108" /><circle cx="1973" cy="875" r="81" fill="#FFFFFF" opacity="0.194" /><circle cx="1491" cy="443" r="46" fill="#FFFFFF" opacity="0.100" /><circle cx="878" cy="380" r="58" fill="#FFFFFF" opacity="0.079" /><circle cx="673" cy="2165" r="71" fill="#FFFFFF" opacity="0.132" /><circle cx="952" cy="2521" r="133" fill="#FFFFFF" opacity="0.073" /><circle cx="562" cy="1332" r="105" fill="#FFFFFF" opacity="0.065" /><circle cx="2385" cy="2680" r="131" fill="#FFFFFF" opacity="0.070" /><circle cx="1924" cy="508" r="137" fill="#FFFFFF" opacity="0.108" /><circle cx="2424" cy="909" r="99" fill="#FFFFFF" opacity="0.229" /><circle cx="2291" cy="1861" r="134" fill="#FFFFFF" opacity="0.198" /><circle cx="1539" cy="376" r="134" fill="#FFFFFF" opacity="0.215" /><circle cx="2201" cy="1799" r="152" fill="#FFFFFF" opacity="0.081" /><circle cx="1572" cy="1781" r="91" fill="#FFFFFF" opacity="0.194" /><circle cx="1087" cy="731" r="82" fill="#FFFFFF" opacity="0.064" /><circle cx="521" cy="902" r="46" fill="#FFFFFF" opacity="0.180" /><circle cx="1469" cy="1585" r="141" fill="#FFFFFF" opacity="0.119" /><circle cx="2649" cy="1273" r="141" fill="#FFFFFF" opacity="0.072" /><circle cx="465" cy="1900" r="143" fill="#FFFFFF" opacity="0.220" /><circle cx="1895" cy="1257" r="78" fill="#FFFFFF" opacity="0.187" /><circle cx="1282" cy="1037" r="130" fill="#FFFFFF" opacity="0.093" /><circle cx="1610" cy="1032" r="88" fill="#FFFFFF" opacity="0.148" /><circle cx="2682" cy="949" r="150" fill="#FFFFFF" opacity="0.204" /><circle cx="589" cy="739" r="67" fill="#FFFFFF" opacity="0.078" /></g>
  <g><path d="M 168.7 610.1 L 2684.5 333.6 L 2684.5 807.3 L 168.7 1083.7 Z" fill="#FFFFFF" opacity="0.153" /><path d="M 225.0 886.2 L 2777.5 609.7 L 2777.5 1039.3 L 225.0 1315.8 Z" fill="#FFFFFF" opacity="0.234" /><path d="M 223.8 1120.7 L 2802.8 844.2 L 2802.8 1308.0 L 223.8 1584.5 Z" fill="#FFFFFF" opacity="0.160" /><path d="M 238.5 1416.5 L 2680.8 1140.0 L 2680.8 1565.9 L 238.5 1842.4 Z" fill="#FFFFFF" opacity="0.149" /><path d="M 287.7 1667.9 L 2744.6 1391.4 L 2744.6 1874.1 L 287.7 2150.6 Z" fill="#FFFFFF" opacity="0.094" /><path d="M 153.6 1951.8 L 2910.1 1675.3 L 2910.1 2160.9 L 153.6 2437.4 Z" fill="#FFFFFF" opacity="0.103" /><path d="M 367.2 2214.1 L 2735.6 1937.7 L 2735.6 2393.2 L 367.2 2669.7 Z" fill="#FFFFFF" opacity="0.193" /><path d="M 377.8 2424.5 L 2836.3 2148.0 L 2836.3 2613.7 L 377.8 2890.1 Z" fill="#FFFFFF" opacity="0.107" /></g>
  <g filter="url(#soft68)"><g transform="rotate(-13.09 1536.0 1536.0)"><path d="M-368.6 518.2 C -225.8 593.5, -25.8 476.0, 107.5 559.8 C 250.4 554.3, 450.4 497.1, 583.7 521.1 C 726.5 520.8, 926.5 517.2, 1059.8 480.6 C 1202.7 480.8, 1402.7 557.4, 1536.0 462.9 C 1678.8 467.1, 1878.8 542.5, 2012.2 478.8 C 2155.0 468.1, 2355.0 541.3, 2488.3 518.6 C 2631.2 518.5, 2831.2 517.8, 2964.5 558.1 C 3107.3 546.3, 3307.3 488.8, 3440.6 573.5" fill="none" stroke="url(#ribbon68)" stroke-width="58.4" stroke-linecap="round" stroke-opacity="0.120" /></g><g transform="rotate(-12.51 1536.0 1536.0)"><path d="M-368.6 681.2 C -241.7 623.3, -63.9 725.3, 54.6 679.1 C 181.6 679.8, 359.4 682.4, 477.9 724.5 C 604.8 741.5, 782.6 637.6, 901.1 743.5 C 1028.1 758.3, 1205.9 652.1, 1324.4 724.8 C 1451.3 709.2, 1629.1 661.8, 1747.6 679.6 C 1874.6 679.5, 2052.4 681.7, 2170.9 635.3 C 2297.9 646.5, 2475.6 722.5, 2594.1 618.9 C 2721.1 596.1, 2898.9 744.9, 3017.4 640.3 C 3144.4 631.2, 3322.1 720.6, 3440.6 686.4" fill="none" stroke="url(#ribbon68)" stroke-width="54.4" stroke-linecap="round" stroke-opacity="0.146" /></g><g transform="rotate(-11.93 1536.0 1536.0)"><path d="M-368.6 940.3 C -254.4 912.0, -94.4 964.6, 12.3 871.5 C 126.6 880.2, 286.6 1009.5, 393.2 885.6 C 507.5 892.3, 667.5 989.4, 774.1 932.8 C 888.4 930.1, 1048.4 944.6, 1155.1 984.6 C 1269.4 981.7, 1429.3 921.7, 1536.0 1009.5 C 1650.3 1015.9, 1810.3 899.0, 1916.9 992.4 C 2031.2 980.8, 2191.2 879.6, 2297.9 943.6 C 2412.1 942.5, 2572.1 939.0, 2678.8 892.9 C 2793.1 892.0, 2953.1 982.3, 3059.7 870.8 C 3174.0 870.4, 3334.0 967.1, 3440.6 890.9" fill="none" stroke="url(#ribbon68)" stroke-width="50.4" stroke-linecap="round" stroke-opacity="0.172" /></g><g transform="rotate(-11.35 1536.0 1536.0)"><path d="M-368.6 1073.8 C -264.8 1161.3, -119.3 997.8, -22.3 1134.4 C 81.5 1121.6, 227.0 1016.9, 324.0 1082.6 C 427.8 1083.6, 573.3 1070.3, 670.3 1025.4 C 774.1 1032.3, 919.6 1110.3, 1016.6 997.6 C 1120.4 1014.9, 1265.9 1106.9, 1362.9 1016.0 C 1466.7 1003.6, 1612.2 1117.5, 1709.1 1069.5 C 1813.0 1070.6, 1958.5 1075.9, 2055.4 1125.6 C 2159.3 1111.6, 2304.8 1050.5, 2401.7 1150.3 C 2505.6 1153.9, 2651.1 1028.6, 2748.0 1128.6 C 2851.9 1110.7, 2997.4 1017.4, 3094.3 1073.7 C 3198.2 1073.7, 3343.7 1073.9, 3440.6 1018.9" fill="none" stroke="url(#ribbon68)" stroke-width="46.4" stroke-linecap="round" stroke-opacity="0.198" /></g><g transform="rotate(-10.77 1536.0 1536.0)"><path d="M-368.6 1320.1 C -273.4 1268.5, -140.1 1364.9, -51.2 1343.4 C 44.0 1344.0, 177.4 1308.5, 266.2 1393.9 C 361.5 1393.3, 494.8 1250.4, 583.7 1399.7 C 678.9 1400.1, 812.2 1239.5, 901.1 1357.2 C 996.4 1362.2, 1129.7 1296.3, 1218.6 1292.2 C 1313.8 1286.6, 1447.1 1340.2, 1536.0 1244.2 C 1631.2 1241.4, 1764.6 1399.8, 1853.4 1242.2 C 1948.7 1228.0, 2082.0 1362.9, 2170.9 1287.5 C 2266.1 1282.9, 2399.4 1349.5, 2488.3 1352.6 C 2583.6 1365.0, 2716.9 1287.3, 2805.8 1398.0 C 2901.0 1403.3, 3034.3 1276.6, 3123.2 1396.1 C 3218.4 1377.2, 3351.8 1266.3, 3440.6 1348.2" fill="none" stroke="url(#ribbon68)" stroke-width="42.4" stroke-linecap="round" stroke-opacity="0.224" /></g><g transform="rotate(-10.19 1536.0 1536.0)"><path d="M-368.6 1461.6 C -225.8 1472.8, -25.8 1454.9, 107.5 1404.2 C 250.4 1395.0, 450.4 1504.4, 583.7 1371.3 C 726.5 1342.4, 926.5 1507.3, 1059.8 1393.2 C 1202.7 1384.2, 1402.7 1532.7, 1536.0 1456.6 C 1678.8 1458.4, 1878.8 1467.3, 2012.2 1523.0 C 2155.0 1522.6, 2355.0 1430.7, 2488.3 1552.2 C 2631.2 1577.1, 2831.2 1384.4, 2964.5 1526.5 C 3107.3 1527.9, 3307.3 1395.8, 3440.6 1461.4" fill="none" stroke="url(#ribbon68)" stroke-width="38.4" stroke-linecap="round" stroke-opacity="0.250" /></g><g transform="rotate(-9.61 1536.0 1536.0)"><path d="M-368.6 1743.2 C -241.7 1772.7, -63.9 1705.1, 54.6 1831.7 C 181.6 1801.8, 359.4 1711.2, 477.9 1834.6 C 604.8 1832.5, 782.6 1712.7, 901.1 1782.1 C 1028.1 1791.6, 1205.9 1727.8, 1324.4 1706.0 C 1451.3 1694.2, 1629.1 1755.3, 1747.6 1652.5 C 1874.6 1677.7, 2052.4 1844.8, 2170.9 1654.0 C 2297.9 1663.8, 2475.6 1826.6, 2594.1 1709.7 C 2721.1 1710.0, 2898.9 1775.6, 3017.4 1785.7 C 3144.4 1781.1, 3322.1 1701.3, 3440.6 1835.9" fill="none" stroke="url(#ribbon68)" stroke-width="34.4" stroke-linecap="round" stroke-opacity="0.276" /></g><g transform="rotate(-9.03 1536.0 1536.0)"><path d="M-368.6 1918.6 C -254.4 1821.8, -94.4 1950.7, 12.3 1866.6 C 126.6 1858.3, 286.6 1966.5, 393.2 1947.7 C 507.5 1958.5, 667.5 1885.1, 774.1 2011.1 C 888.4 1986.4, 1048.4 1873.0, 1155.1 2018.4 C 1269.4 1999.0, 1429.3 1855.1, 1536.0 1965.2 C 1650.3 1956.5, 1810.3 1879.2, 1916.9 1883.8 C 2031.2 1893.1, 2191.2 1937.6, 2297.9 1823.5 C 2412.1 1802.1, 2572.1 1960.6, 2678.8 1820.9 C 2793.1 1829.1, 2953.1 1949.8, 3059.7 1877.6 C 3174.0 1863.9, 3334.0 1964.7, 3440.6 1959.2" fill="none" stroke="url(#ribbon68)" stroke-width="30.4" stroke-linecap="round" stroke-opacity="0.302" /></g><g transform="rotate(-8.45 1536.0 1536.0)"><path d="M-368.6 2029.5 C -264.8 1978.0, -119.3 2073.4, -22.3 1923.8 C 81.5 1961.1, 227.0 2089.4, 324.0 1929.6 C 427.8 1940.8, 573.3 2127.4, 670.3 1995.9 C 774.1 2006.7, 919.6 2057.5, 1016.6 2082.6 C 1120.4 2096.9, 1265.9 1977.2, 1362.9 2137.1 C 1466.7 2130.2, 1612.2 1956.3, 1709.1 2126.3 C 1813.0 2139.6, 1958.5 1913.9, 2055.4 2056.8 C 2159.3 2047.3, 2304.8 2012.7, 2401.7 1970.7 C 2505.6 1985.0, 2651.1 2094.0, 2748.0 1920.3 C 2851.9 1893.6, 2997.4 2147.7, 3094.3 1936.1 C 3198.2 1899.2, 3343.7 2081.1, 3440.6 2008.6" fill="none" stroke="url(#ribbon68)" stroke-width="26.4" stroke-linecap="round" stroke-opacity="0.328" /></g><g transform="rotate(-7.87 1536.0 1536.0)"><path d="M-368.6 2321.6 C -273.4 2300.6, -140.1 2329.1, -51.2 2392.0 C 44.0 2403.1, 177.4 2282.9, 266.2 2439.4 C 361.5 2442.8, 494.8 2267.6, 583.7 2415.4 C 678.9 2389.7, 812.2 2276.7, 901.1 2334.5 C 996.4 2339.1, 1129.7 2309.2, 1218.6 2245.8 C 1313.8 2244.0, 1447.1 2409.1, 1536.0 2203.1 C 1631.2 2164.7, 1764.6 2394.0, 1853.4 2232.3 C 1948.7 2203.7, 2082.0 2378.4, 2170.9 2315.7 C 2266.1 2315.5, 2399.4 2326.5, 2488.3 2402.7 C 2583.6 2390.8, 2716.9 2232.6, 2805.8 2440.5 C 2901.0 2463.1, 3034.3 2200.0, 3123.2 2406.2 C 3218.4 2416.8, 3351.8 2293.7, 3440.6 2320.7" fill="none" stroke="url(#ribbon68)" stroke-width="22.4" stroke-linecap="round" stroke-opacity="0.354" /></g><g transform="rotate(-7.29 1536.0 1536.0)"><path d="M-368.6 2454.7 C -225.8 2379.3, -25.8 2531.9, 107.5 2337.0 C 250.4 2323.3, 450.4 2515.2, 583.7 2404.8 C 726.5 2418.4, 926.5 2472.1, 1059.8 2502.9 C 1202.7 2504.2, 1402.7 2411.7, 1536.0 2571.8 C 1678.8 2532.3, 1878.8 2382.2, 2012.2 2569.7 C 2155.0 2567.7, 2355.0 2381.4, 2488.3 2497.8 C 2631.2 2491.9, 2831.2 2428.6, 2964.5 2399.9 C 3107.3 2406.0, 3307.3 2506.3, 3440.6 2335.2" fill="none" stroke="url(#ribbon68)" stroke-width="18.4" stroke-linecap="round" stroke-opacity="0.380" /></g><g transform="rotate(-6.71 1536.0 1536.0)"><path d="M-368.6 2701.0 C -241.7 2526.0, -63.9 2792.7, 54.6 2605.2 C 181.6 2569.5, 359.4 2740.0, 477.9 2700.4 C 604.8 2700.3, 782.6 2701.5, 901.1 2796.0 C 1028.1 2781.8, 1205.9 2659.1, 1324.4 2833.9 C 1451.3 2807.1, 1629.1 2587.9, 1747.6 2791.2 C 1874.6 2776.4, 2052.4 2613.5, 2170.9 2693.7 C 2297.9 2694.4, 2475.6 2705.9, 2594.1 2600.6 C 2721.1 2567.0, 2898.9 2780.5, 3017.4 2568.4 C 3144.4 2538.9, 3322.1 2819.5, 3440.6 2616.6" fill="none" stroke="url(#ribbon68)" stroke-width="14.4" stroke-linecap="round" stroke-opacity="0.406" /></g></g>
  <g><ellipse cx="1536.0" cy="1551.9" rx="728.6" ry="605.7" fill="url(#extrude68)" opacity="0.220" /><ellipse cx="1536.0" cy="1567.7" rx="736.0" ry="610.9" fill="url(#extrude68)" opacity="0.205" /><ellipse cx="1536.0" cy="1583.6" rx="743.4" ry="616.1" fill="url(#extrude68)" opacity="0.190" /><ellipse cx="1536.0" cy="1599.5" rx="750.9" ry="621.3" fill="url(#extrude68)" opacity="0.175" /><ellipse cx="1536.0" cy="1615.4" rx="758.3" ry="626.5" fill="url(#extrude68)" opacity="0.160" /><ellipse cx="1536.0" cy="1631.2" rx="765.7" ry="631.7" fill="url(#extrude68)" opacity="0.145" /><ellipse cx="1536.0" cy="1647.1" rx="773.2" ry="636.9" fill="url(#extrude68)" opacity="0.130" /><ellipse cx="1536.0" cy="1663.0" rx="780.6" ry="642.1" fill="url(#extrude68)" opacity="0.115" /><ellipse cx="1536.0" cy="1678.8" rx="788.0" ry="647.4" fill="url(#extrude68)" opacity="0.100" /><ellipse cx="1536.0" cy="1694.7" rx="795.5" ry="652.6" fill="url(#extrude68)" opacity="0.085" /><ellipse cx="1536.0" cy="1710.6" rx="802.9" ry="657.8" fill="url(#extrude68)" opacity="0.070" /><ellipse cx="1536.0" cy="1726.5" rx="810.3" ry="663.0" fill="url(#extrude68)" opacity="0.055" /></g>
  <ellipse cx="1536.0" cy="1726.5" rx="773.2" ry="214.9" fill="#0B1D2D" opacity="0.24" />
  <ellipse cx="1536.0" cy="1536.0" rx="743.4" ry="651.3" fill="url(#orb68)" stroke="#FFFFFF" stroke-opacity="0.42" stroke-width="7" />
  <ellipse cx="1431.9" cy="1392.7" rx="505.5" ry="299.6" fill="#FFFFFF" opacity="0.25" />
  <path d="M 199.4 399.4 C 1013.8 -30.7, 2058.2 768.0, 2872.6 215.0 L 2872.6 983.0 C 2089.0 1228.8, 1013.8 307.2, 199.4 1167.4 Z" fill="url(#glass68)" />
  <rect x="270" y="270" width="2532" height="2532" rx="430" fill="none" stroke="#FFFFFF" stroke-opacity="0.30" stroke-width="5" />
  <rect x="288.4" y="288.4" width="2495.1" height="2495.1" rx="399" fill="none" stroke="#FFD84D" stroke-opacity="0.35" stroke-width="3" />
  <g filter="url(#soft68)"><rect x="1032" y="498" width="26" height="2" fill="#FFFFFF" opacity="0.826" /><rect x="1044" y="486" width="2" height="26" fill="#FFFFFF" opacity="0.826" /><rect x="2034" y="1988" width="32" height="2" fill="#FFFFFF" opacity="0.581" /><rect x="2049" y="1973" width="2" height="32" fill="#FFFFFF" opacity="0.581" /><rect x="2393" y="1657" width="80" height="2" fill="#FFFFFF" opacity="0.342" /><rect x="2432" y="1618" width="2" height="80" fill="#FFFFFF" opacity="0.342" /><rect x="951" y="642" width="34" height="2" fill="#FFFFFF" opacity="0.827" /><rect x="967" y="626" width="2" height="34" fill="#FFFFFF" opacity="0.827" /><rect x="2042" y="1499" width="44" height="2" fill="#FFFFFF" opacity="0.692" /><rect x="2063" y="1478" width="2" height="44" fill="#FFFFFF" opacity="0.692" /><rect x="389" y="2415" width="32" height="2" fill="#FFFFFF" opacity="0.532" /><rect x="404" y="2400" width="2" height="32" fill="#FFFFFF" opacity="0.532" /><rect x="914" y="1172" width="32" height="2" fill="#FFFFFF" opacity="0.678" /><rect x="929" y="1157" width="2" height="32" fill="#FFFFFF" opacity="0.678" /><rect x="650" y="695" width="26" height="2" fill="#FFFFFF" opacity="0.710" /><rect x="662" y="683" width="2" height="26" fill="#FFFFFF" opacity="0.710" /><rect x="571" y="1134" width="74" height="2" fill="#FFFFFF" opacity="0.473" /><rect x="607" y="1098" width="2" height="74" fill="#FFFFFF" opacity="0.473" /><rect x="645" y="1799" width="52" height="2" fill="#FFFFFF" opacity="0.352" /><rect x="670" y="1774" width="2" height="52" fill="#FFFFFF" opacity="0.352" /><rect x="1717" y="1667" width="52" height="2" fill="#FFFFFF" opacity="0.330" /><rect x="1742" y="1642" width="2" height="52" fill="#FFFFFF" opacity="0.330" /><rect x="1873" y="378" width="64" height="2" fill="#FFFFFF" opacity="0.783" /><rect x="1904" y="347" width="2" height="64" fill="#FFFFFF" opacity="0.783" /><rect x="2050" y="2289" width="46" height="2" fill="#FFFFFF" opacity="0.429" /><rect x="2072" y="2267" width="2" height="46" fill="#FFFFFF" opacity="0.429" /><rect x="1723" y="1579" width="78" height="2" fill="#FFFFFF" opacity="0.716" /><rect x="1761" y="1541" width="2" height="78" fill="#FFFFFF" opacity="0.716" /><rect x="1491" y="2593" width="68" height="2" fill="#FFFFFF" opacity="0.761" /><rect x="1524" y="2560" width="2" height="68" fill="#FFFFFF" opacity="0.761" /><rect x="1559" y="1807" width="30" height="2" fill="#FFFFFF" opacity="0.690" /><rect x="1573" y="1793" width="2" height="30" fill="#FFFFFF" opacity="0.690" /><rect x="1768" y="1966" width="82" height="2" fill="#FFFFFF" opacity="0.488" /><rect x="1808" y="1926" width="2" height="82" fill="#FFFFFF" opacity="0.488" /><rect x="1547" y="1128" width="24" height="2" fill="#FFFFFF" opacity="0.387" /><rect x="1558" y="1117" width="2" height="24" fill="#FFFFFF" opacity="0.387" /><rect x="469" y="746" width="66" height="2" fill="#FFFFFF" opacity="0.645" /><rect x="501" y="714" width="2" height="66" fill="#FFFFFF" opacity="0.645" /><rect x="303" y="1969" width="46" height="2" fill="#FFFFFF" opacity="0.388" /><rect x="325" y="1947" width="2" height="46" fill="#FFFFFF" opacity="0.388" /><rect x="2272" y="259" width="24" height="2" fill="#FFFFFF" opacity="0.824" /><rect x="2283" y="248" width="2" height="24" fill="#FFFFFF" opacity="0.824" /><rect x="1449" y="1692" width="62" height="2" fill="#FFFFFF" opacity="0.659" /><rect x="1479" y="1662" width="2" height="62" fill="#FFFFFF" opacity="0.659" /><rect x="1990" y="1764" width="28" height="2" fill="#FFFFFF" opacity="0.844" /><rect x="2003" y="1751" width="2" height="28" fill="#FFFFFF" opacity="0.844" /><rect x="2075" y="1687" width="74" height="2" fill="#FFFFFF" opacity="0.727" /><rect x="2111" y="1651" width="2" height="74" fill="#FFFFFF" opacity="0.727" /><rect x="2497" y="1772" width="72" height="2" fill="#FFFFFF" opacity="0.799" /><rect x="2532" y="1737" width="2" height="72" fill="#FFFFFF" opacity="0.799" /><rect x="928" y="251" width="80" height="2" fill="#FFFFFF" opacity="0.435" /><rect x="967" y="212" width="2" height="80" fill="#FFFFFF" opacity="0.435" /></g>
  <g opacity="0.52"><path d="M1023 1326 L1572 1070 L2121 1326 L2121 2043 L1023 2043 Z" fill="none" stroke="#0C2030" stroke-width="90" stroke-linejoin="round" /><line x1="1572" y1="1070" x2="1572" y2="2043" stroke="#0C2030" stroke-width="88" /></g>
  <g filter="url(#soft68)"><path d="M987 1280 L1536 1024 L2085 1280 L2085 1997 L987 1997 Z" fill="none" stroke="url(#symbol68)" stroke-width="90" stroke-linejoin="round" /><line x1="1536" y1="1024" x2="1536" y2="1997" stroke="url(#symbol68)" stroke-width="88" /></g>
  <rect x="138" y="138" width="2796" height="2796" rx="629" fill="#FFFFFF" filter="url(#grain68)" opacity="0.18" />
</svg>
