<svg xmlns="http://www.w3.org/2000/svg" width="3072" height="3072" viewBox="0 0 3072 3072">
  <title>QuartzOS App Icon 029 - lumen_studio_029</title>
  <defs><linearGradient id="bg28" x1="0%" y1="0%" x2="100%" y2="100%"><stop offset="0%" stop-color="#36D1FF" /><stop offset="26%" stop-color="#8A5CFF" /><stop offset="56%" stop-color="#FF9F43" /><stop offset="78%" stop-color="#5AA47F" /><stop offset="100%" stop-color="#1A2B22" /></linearGradient><radialGradient id="sun28" cx="29%" cy="11%" r="88%"><stop offset="0%" stop-color="#FFFFFF" stop-opacity="0.62" /><stop offset="30%" stop-color="#FFD84D" stop-opacity="0.35" /><stop offset="100%" stop-color="#FFD84D" stop-opacity="0" /></radialGradient><linearGradient id="glass28" x1="0%" y1="0%" x2="0%" y2="100%"><stop offset="0%" stop-color="#FFFFFF" stop-opacity="0.70" /><stop offset="46%" stop-color="#FFFFFF" stop-opacity="0.26" /><stop offset="100%" stop-color="#FFFFFF" stop-opacity="0.00" /></linearGradient><linearGradient id="ribbon28" x1="0%" y1="0%" x2="100%" y2="0%"><stop offset="0%" stop-color="#36D1FF" stop-opacity="0.18" /><stop offset="34%" stop-color="#8A5CFF" stop-opacity="0.72" /><stop offset="66%" stop-color="#FF9F43" stop-opacity="0.72" /><stop offset="100%" stop-color="#FFD84D" stop-opacity="0.18" /></linearGradient><radialGradient id="orb28" cx="34%" cy="27%" r="74%"><stop offset="0%" stop-color="#FFFFFF" stop-opacity="0.84" /><stop offset="30%" stop-color="#36D1FF" stop-opacity="0.52" /><stop offset="68%" stop-color="#8A5CFF" stop-opacity="0.42" /><stop offset="100%" stop-color="#FF9F43" stop-opacity="0.20" /></radialGradient><linearGradient id="extrude28" x1="0%" y1="0%" x2="0%" y2="100%"><stop offset="0%" stop-color="#15283C" stop-opacity="0.45" /><stop offset="100%" stop-color="#08131D" stop-opacity="0.06" /></linearGradient><linearGradient id="symbol28" x1="0%" y1="0%" x2="100%" y2="100%"><stop offset="0%" stop-color="#FFFFFF" /><stop offset="100%" stop-color="#FFD84D" /></linearGradient><filter id="shadow28" x="-40%" y="-40%" width="180%" height="180%"><feDropShadow dx="0" dy="49" stdDeviation="86" flood-color="#06111A" flood-opacity="0.54" /></filter><filter id="soft28" x="-40%" y="-40%" width="180%" height="180%"><feDropShadow dx="0" dy="0" stdDeviation="14" flood-color="#36D1FF" flood-opacity="0.45" /></filter><filter id="grain28"><feTurbulence type="fractalNoise" baseFrequency="0.875" numOctaves="2" seed="28" /><feColorMatrix type="saturate" values="0" /><feComponentTransfer><feFuncA type="table" tableValues="0 0.09" /></feComponentTransfer></filter></defs>
  <rect x="138" y="138" width="2796" height="2796" rx="629" fill="url(#bg28)" filter="url(#shadow28)" />
  <rect x="138" y="138" width="2796" height="2796" rx="629" fill="url(#sun28)" />
  <g><circle cx="1856" cy="1517" r="53" fill="#FFFFFF" opacity="0.234" /><circle cx="2596" cy="1992" r="108" fill="#FFFFFF" opacity="0.061" /><circle cx="1501" cy="2685" r="153" fill="#FFFFFF" opacity="0.125" /><circle cx="875" cy="2467" r="121" fill="#FFFFFF" opacity="0.218" /><circle cx="1007" cy="2168" r="105" fill="#FFFFFF" opacity="0.112" /><circle cx="1248" cy="2478" r="96" fill="#FFFFFF" opacity="0.061" /><circle cx="2652" cy="2199" r="129" fill="#FFFFFF" opacity="0.152" /><circle cx="1694" cy="927" r="137" fill="#FFFFFF" opacity="0.084" /><circle cx="2536" cy="1258" r="152" fill="#FFFFFF" opacity="0.121" /><circle cx="1201" cy="1419" r="98" fill="#FFFFFF" opacity="0.209" /><circle cx="613" cy="983" r="115" fill="#FFFFFF" opacity="0.077" /><circle cx="1705" cy="2172" r="111" fill="#FFFFFF" opacity="0.083" /><circle cx="372" cy="1853" r="41" fill="#FFFFFF" opacity="0.151" /><circle cx="2002" cy="1064" r="139" fill="#FFFFFF" opacity="0.070" /><circle cx="485" cy="2014" r="114" fill="#FFFFFF" opacity="0.205" /><circle cx="2310" cy="1419" r="143" fill="#FFFFFF" opacity="0.224" /><circle cx="1780" cy="1641" r="149" fill="#FFFFFF" opacity="0.194" /><circle cx="811" cy="1769" r="147" fill="#FFFFFF" opacity="0.134" /><circle cx="1518" cy="871" r="50" fill="#FFFFFF" opacity="0.118" /><circle cx="842" cy="749" r="52" fill="#FFFFFF" opacity="0.168" /><circle cx="656" cy="868" r="39" fill="#FFFFFF" opacity="0.133" /><circle cx="718" cy="340" r="82" fill="#FFFFFF" opacity="0.167" /><circle cx="755" cy="857" r="143" fill="#FFFFFF" opacity="0.081" /><circle cx="1222" cy="2669" r="125" fill="#FFFFFF" opacity="0.090" /><circle cx="2190" cy="690" r="67" fill="#FFFFFF" opacity="0.068" /><circle cx="385" cy="376" r="68" fill="#FFFFFF" opacity="0.075" /><circle cx="1353" cy="1767" r="54" fill="#FFFFFF" opacity="0.108" /><circle cx="1265" cy="1271" r="140" fill="#FFFFFF" opacity="0.113" /></g>
  <g><path d="M 271.9 586.6 L 2919.4 310.1 L 2919.4 744.4 L 271.9 1020.9 Z" fill="#FFFFFF" opacity="0.216" /><path d="M 381.1 857.2 L 2909.0 580.7 L 2909.0 1062.0 L 381.1 1338.5 Z" fill="#FFFFFF" opacity="0.102" /><path d="M 212.5 1158.4 L 2744.8 881.9 L 2744.8 1361.2 L 212.5 1637.7 Z" fill="#FFFFFF" opacity="0.177" /><path d="M 383.2 1364.2 L 2791.6 1087.8 L 2791.6 1518.7 L 383.2 1795.2 Z" fill="#FFFFFF" opacity="0.126" /><path d="M 377.1 1613.1 L 2755.5 1336.7 L 2755.5 1804.5 L 377.1 2080.9 Z" fill="#FFFFFF" opacity="0.169" /><path d="M 152.2 1942.0 L 2886.7 1665.5 L 2886.7 2125.9 L 152.2 2402.4 Z" fill="#FFFFFF" opacity="0.167" /><path d="M 190.4 2145.8 L 2722.4 1869.3 L 2722.4 2327.6 L 190.4 2604.1 Z" fill="#FFFFFF" opacity="0.142" /><path d="M 287.3 2424.8 L 2877.6 2148.3 L 2877.6 2622.0 L 287.3 2898.5 Z" fill="#FFFFFF" opacity="0.214" /></g>
  <g filter="url(#soft28)"><g transform="rotate(-18.06 1536.0 1536.0)"><path d="M-368.6 560.2 C -225.8 576.2, -25.8 547.2, 107.5 607.9 C 250.4 611.4, 450.4 523.4, 583.7 613.6 C 726.5 592.6, 926.5 542.3, 1059.8 586.9 C 1202.7 592.9, 1402.7 530.6, 1536.0 544.1 C 1678.8 540.9, 1878.8 565.3, 2012.2 511.0 C 2155.0 496.3, 2355.0 577.9, 2488.3 507.9 C 2631.2 516.8, 2831.2 597.6, 2964.5 536.5 C 3107.3 535.8, 3307.3 579.1, 3440.6 579.5" fill="none" stroke="url(#ribbon28)" stroke-width="58.4" stroke-linecap="round" stroke-opacity="0.120" /></g><g transform="rotate(-17.48 1536.0 1536.0)"><path d="M-368.6 738.4 C -241.7 800.7, -63.9 715.5, 54.6 791.8 C 181.6 777.5, 359.4 703.3, 477.9 752.4 C 604.8 750.8, 782.6 725.0, 901.1 704.6 C 1028.1 709.1, 1205.9 770.2, 1324.4 677.3 C 1451.3 677.8, 1629.1 811.8, 1747.6 687.1 C 1874.6 686.2, 2052.4 796.6, 2170.9 728.0 C 2297.9 730.5, 2475.6 742.3, 2594.1 775.3 C 2721.1 786.2, 2898.9 718.7, 3017.4 800.2 C 3144.4 778.1, 3322.1 706.3, 3440.6 787.7" fill="none" stroke="url(#ribbon28)" stroke-width="54.4" stroke-linecap="round" stroke-opacity="0.146" /></g><g transform="rotate(-16.90 1536.0 1536.0)"><path d="M-368.6 961.6 C -254.4 1028.7, -94.4 900.3, 12.3 989.5 C 126.6 998.0, 286.6 940.3, 393.2 935.4 C 507.5 930.9, 667.5 988.1, 774.1 897.2 C 888.4 884.2, 1048.4 1013.8, 1155.1 898.1 C 1269.4 898.6, 1429.3 982.7, 1536.0 937.5 C 1650.3 944.9, 1810.3 971.2, 1916.9 991.5 C 2031.2 983.5, 2191.2 934.9, 2297.9 1027.4 C 2412.1 1007.8, 2572.1 906.5, 2678.8 1023.4 C 2793.1 1010.5, 2953.1 912.9, 3059.7 981.9 C 3174.0 975.2, 3334.0 949.7, 3440.6 928.1" fill="none" stroke="url(#ribbon28)" stroke-width="50.4" stroke-linecap="round" stroke-opacity="0.172" /></g><g transform="rotate(-16.32 1536.0 1536.0)"><path d="M-368.6 1119.5 C -264.8 1116.9, -119.3 1122.0, -22.3 1063.0 C 81.5 1048.1, 227.0 1171.9, 324.0 1043.2 C 427.8 1044.2, 573.3 1159.7, 670.3 1069.6 C 774.1 1066.3, 919.6 1147.8, 1016.6 1126.3 C 1120.4 1129.0, 1265.9 1114.8, 1362.9 1178.9 C 1466.7 1165.6, 1612.2 1055.4, 1709.1 1195.5 C 1813.0 1186.6, 1958.5 1054.3, 2055.4 1165.9 C 2159.3 1172.0, 2304.8 1104.5, 2401.7 1108.3 C 2505.6 1111.2, 2651.1 1125.2, 2748.0 1057.4 C 2851.9 1048.8, 2997.4 1156.5, 3094.3 1044.2 C 3198.2 1064.7, 3343.7 1147.0, 3440.6 1076.7" fill="none" stroke="url(#ribbon28)" stroke-width="46.4" stroke-linecap="round" stroke-opacity="0.198" /></g><g transform="rotate(-15.74 1536.0 1536.0)"><path d="M-368.6 1236.1 C -273.4 1245.2, -140.1 1228.5, -51.2 1181.2 C 44.0 1183.5, 177.4 1268.9, 266.2 1152.7 C 361.5 1146.4, 494.8 1267.3, 583.7 1174.8 C 678.9 1157.2, 812.2 1261.9, 901.1 1234.1 C 996.4 1234.3, 1129.7 1236.8, 1218.6 1294.6 C 1313.8 1309.5, 1447.1 1206.9, 1536.0 1319.7 C 1631.2 1302.5, 1764.6 1180.8, 1853.4 1294.1 C 1948.7 1291.4, 2082.0 1167.8, 2170.9 1233.3 C 2266.1 1233.9, 2399.4 1238.2, 2488.3 1174.2 C 2583.6 1179.8, 2716.9 1290.4, 2805.8 1152.7 C 2901.0 1183.2, 3034.3 1267.9, 3123.2 1181.8 C 3218.4 1193.1, 3351.8 1280.0, 3440.6 1243.8" fill="none" stroke="url(#ribbon28)" stroke-width="42.4" stroke-linecap="round" stroke-opacity="0.224" /></g><g transform="rotate(-15.16 1536.0 1536.0)"><path d="M-368.6 1447.0 C -225.8 1358.5, -25.8 1521.2, 107.5 1358.2 C 250.4 1353.9, 450.4 1480.0, 583.7 1398.0 C 726.5 1398.1, 926.5 1461.9, 1059.8 1467.6 C 1202.7 1462.9, 1402.7 1426.1, 1536.0 1524.7 C 1678.8 1514.0, 1878.8 1379.1, 2012.2 1534.7 C 2155.0 1505.0, 2355.0 1395.0, 2488.3 1491.5 C 2631.2 1477.1, 2831.2 1430.9, 2964.5 1421.4 C 3107.3 1427.3, 3307.3 1464.6, 3440.6 1366.8" fill="none" stroke="url(#ribbon28)" stroke-width="38.4" stroke-linecap="round" stroke-opacity="0.250" /></g><g transform="rotate(-14.58 1536.0 1536.0)"><path d="M-368.6 1725.8 C -241.7 1716.3, -63.9 1733.1, 54.6 1649.4 C 181.6 1636.2, 359.4 1772.7, 477.9 1628.9 C 604.8 1615.8, 782.6 1837.3, 901.1 1667.2 C 1028.1 1658.5, 1205.9 1761.3, 1324.4 1741.0 C 1451.3 1735.2, 1629.1 1716.8, 1747.6 1805.6 C 1874.6 1793.0, 2052.4 1667.6, 2170.9 1821.8 C 2297.9 1839.6, 2475.6 1612.6, 2594.1 1779.7 C 2721.1 1796.4, 2898.9 1698.6, 3017.4 1704.9 C 3144.4 1700.7, 3322.1 1736.7, 3440.6 1642.8" fill="none" stroke="url(#ribbon28)" stroke-width="34.4" stroke-linecap="round" stroke-opacity="0.276" /></g><g transform="rotate(-14.00 1536.0 1536.0)"><path d="M-368.6 1923.3 C -254.4 1997.7, -94.4 1894.2, 12.3 1901.5 C 126.6 1904.7, 286.6 1930.4, 393.2 1834.6 C 507.5 1802.0, 667.5 1951.5, 774.1 1821.6 C 888.4 1811.4, 1048.4 2023.5, 1155.1 1870.2 C 1269.4 1881.2, 1429.3 1981.3, 1536.0 1951.1 C 1650.3 1943.9, 1810.3 1891.2, 1916.9 2015.1 C 2031.2 1997.1, 2191.2 1852.4, 2297.9 2023.5 C 2412.1 2008.8, 2572.1 1871.6, 2678.8 1971.1 C 2793.1 1961.6, 2953.1 1881.9, 3059.7 1889.7 C 3174.0 1880.8, 3334.0 1941.8, 3440.6 1828.7" fill="none" stroke="url(#ribbon28)" stroke-width="30.4" stroke-linecap="round" stroke-opacity="0.302" /></g><g transform="rotate(-13.42 1536.0 1536.0)"><path d="M-368.6 2077.8 C -264.8 2135.1, -119.3 2042.8, -22.3 2094.4 C 81.5 2093.3, 227.0 2069.9, 324.0 2010.0 C 427.8 1985.8, 573.3 2103.1, 670.3 1966.8 C 774.1 1933.5, 919.6 2195.3, 1016.6 1990.9 C 1120.4 2009.7, 1265.9 2155.0, 1362.9 2067.8 C 1466.7 2068.1, 1612.2 2084.9, 1709.1 2150.7 C 1813.0 2175.1, 1958.5 2051.9, 2055.4 2189.4 C 2159.3 2222.5, 2304.8 1966.8, 2401.7 2160.5 C 2505.6 2130.0, 2651.1 1984.4, 2748.0 2081.4 C 2851.9 2082.6, 2997.4 2076.5, 3094.3 2000.1 C 3198.2 1990.6, 3343.7 2130.3, 3440.6 1966.0" fill="none" stroke="url(#ribbon28)" stroke-width="26.4" stroke-linecap="round" stroke-opacity="0.328" /></g><g transform="rotate(-12.84 1536.0 1536.0)"><path d="M-368.6 2237.8 C -273.4 2216.9, -140.1 2245.7, -51.2 2142.8 C 44.0 2113.3, 177.4 2334.4, 266.2 2120.4 C 361.5 2108.0, 494.8 2355.6, 583.7 2169.3 C 678.9 2188.8, 812.2 2311.2, 901.1 2259.7 C 996.4 2267.7, 1129.7 2230.9, 1218.6 2336.9 C 1313.8 2312.0, 1447.1 2187.9, 1536.0 2354.0 C 1631.2 2334.5, 1764.6 2179.2, 1853.4 2300.6 C 1948.7 2314.2, 2082.0 2204.2, 2170.9 2209.1 C 2266.1 2210.1, 2399.4 2258.7, 2488.3 2135.1 C 2583.6 2120.6, 2716.9 2284.8, 2805.8 2123.3 C 2901.0 2102.7, 3034.3 2306.9, 3123.2 2181.0 C 3218.4 2174.6, 3351.8 2297.4, 3440.6 2273.2" fill="none" stroke="url(#ribbon28)" stroke-width="22.4" stroke-linecap="round" stroke-opacity="0.354" /></g><g transform="rotate(-12.26 1536.0 1536.0)"><path d="M-368.6 2428.9 C -225.8 2406.1, -25.8 2453.8, 107.5 2320.4 C 250.4 2303.2, 450.4 2492.5, 583.7 2307.5 C 726.5 2353.4, 926.5 2544.0, 1059.8 2368.2 C 1202.7 2377.6, 1402.7 2486.6, 1536.0 2465.8 C 1678.8 2464.0, 1878.8 2415.7, 2012.2 2541.0 C 2155.0 2582.1, 2355.0 2375.4, 2488.3 2548.3 C 2631.2 2544.0, 2831.2 2376.1, 2964.5 2483.1 C 3107.3 2500.5, 3307.3 2407.6, 3440.6 2385.1" fill="none" stroke="url(#ribbon28)" stroke-width="18.4" stroke-linecap="round" stroke-opacity="0.380" /></g><g transform="rotate(-11.68 1536.0 1536.0)"><path d="M-368.6 2642.3 C -241.7 2497.2, -63.9 2683.8, 54.6 2617.0 C 181.6 2607.1, 359.4 2651.1, 477.9 2718.3 C 604.8 2706.5, 782.6 2595.0, 901.1 2773.6 C 1028.1 2731.8, 1205.9 2547.9, 1324.4 2749.2 C 1451.3 2741.1, 1629.1 2566.5, 1747.6 2660.0 C 1874.6 2657.3, 2052.4 2635.6, 2170.9 2560.1 C 2297.9 2556.0, 2475.6 2730.0, 2594.1 2510.0 C 2721.1 2512.7, 2898.9 2794.0, 3017.4 2540.2 C 3144.4 2555.8, 3322.1 2725.6, 3440.6 2632.4" fill="none" stroke="url(#ribbon28)" stroke-width="14.4" stroke-linecap="round" stroke-opacity="0.406" /></g></g>
  <g><ellipse cx="1536.0" cy="1551.9" rx="728.6" ry="605.7" fill="url(#extrude28)" opacity="0.220" /><ellipse cx="1536.0" cy="1567.7" rx="736.0" ry="610.9" fill="url(#extrude28)" opacity="0.205" /><ellipse cx="1536.0" cy="1583.6" rx="743.4" ry="616.1" fill="url(#extrude28)" opacity="0.190" /><ellipse cx="1536.0" cy="1599.5" rx="750.9" ry="621.3" fill="url(#extrude28)" opacity="0.175" /><ellipse cx="1536.0" cy="1615.4" rx="758.3" ry="626.5" fill="url(#extrude28)" opacity="0.160" /><ellipse cx="1536.0" cy="1631.2" rx="765.7" ry="631.7" fill="url(#extrude28)" opacity="0.145" /><ellipse cx="1536.0" cy="1647.1" rx="773.2" ry="636.9" fill="url(#extrude28)" opacity="0.130" /><ellipse cx="1536.0" cy="1663.0" rx="780.6" ry="642.1" fill="url(#extrude28)" opacity="0.115" /><ellipse cx="1536.0" cy="1678.8" rx="788.0" ry="647.4" fill="url(#extrude28)" opacity="0.100" /><ellipse cx="1536.0" cy="1694.7" rx="795.5" ry="652.6" fill="url(#extrude28)" opacity="0.085" /><ellipse cx="1536.0" cy="1710.6" rx="802.9" ry="657.8" fill="url(#extrude28)" opacity="0.070" /><ellipse cx="1536.0" cy="1726.5" rx="810.3" ry="663.0" fill="url(#extrude28)" opacity="0.055" /></g>
  <ellipse cx="1536.0" cy="1726.5" rx="773.2" ry="214.9" fill="#0B1D2D" opacity="0.24" />
  <ellipse cx="1536.0" cy="1536.0" rx="743.4" ry="651.3" fill="url(#orb28)" stroke="#FFFFFF" stroke-opacity="0.42" stroke-width="7" />
  <ellipse cx="1431.9" cy="1392.7" rx="505.5" ry="299.6" fill="#FFFFFF" opacity="0.25" />
  <path d="M 199.4 399.4 C 1013.8 -30.7, 2058.2 768.0, 2872.6 215.0 L 2872.6 983.0 C 2089.0 1228.8, 1013.8 307.2, 199.4 1167.4 Z" fill="url(#glass28)" />
  <rect x="270" y="270" width="2532" height="2532" rx="430" fill="none" stroke="#FFFFFF" stroke-opacity="0.30" stroke-width="5" />
  <rect x="288.4" y="288.4" width="2495.1" height="2495.1" rx="399" fill="none" stroke="#36D1FF" stroke-opacity="0.35" stroke-width="3" />
  <g filter="url(#soft28)"><rect x="1854" y="1463" width="64" height="2" fill="#FFFFFF" opacity="0.739" /><rect x="1885" y="1432" width="2" height="64" fill="#FFFFFF" opacity="0.739" /><rect x="2079" y="1412" width="70" height="2" fill="#FFFFFF" opacity="0.789" /><rect x="2113" y="1378" width="2" height="70" fill="#FFFFFF" opacity="0.789" /><rect x="1254" y="799" width="26" height="2" fill="#FFFFFF" opacity="0.569" /><rect x="1266" y="787" width="2" height="26" fill="#FFFFFF" opacity="0.569" /><rect x="333" y="2083" width="38" height="2" fill="#FFFFFF" opacity="0.612" /><rect x="351" y="2065" width="2" height="38" fill="#FFFFFF" opacity="0.612" /><rect x="2238" y="2478" width="44" height="2" fill="#FFFFFF" opacity="0.611" /><rect x="2259" y="2457" width="2" height="44" fill="#FFFFFF" opacity="0.611" /><rect x="954" y="2240" width="66" height="2" fill="#FFFFFF" opacity="0.319" /><rect x="986" y="2208" width="2" height="66" fill="#FFFFFF" opacity="0.319" /><rect x="557" y="426" width="54" height="2" fill="#FFFFFF" opacity="0.505" /><rect x="583" y="400" width="2" height="54" fill="#FFFFFF" opacity="0.505" /><rect x="1712" y="1459" width="28" height="2" fill="#FFFFFF" opacity="0.640" /><rect x="1725" y="1446" width="2" height="28" fill="#FFFFFF" opacity="0.640" /><rect x="2640" y="1047" width="42" height="2" fill="#FFFFFF" opacity="0.499" /><rect x="2660" y="1027" width="2" height="42" fill="#FFFFFF" opacity="0.499" /><rect x="1530" y="1252" width="30" height="2" fill="#FFFFFF" opacity="0.428" /><rect x="1544" y="1238" width="2" height="30" fill="#FFFFFF" opacity="0.428" /><rect x="295" y="1854" width="76" height="2" fill="#FFFFFF" opacity="0.610" /><rect x="332" y="1817" width="2" height="76" fill="#FFFFFF" opacity="0.610" /><rect x="963" y="1406" width="56" height="2" fill="#FFFFFF" opacity="0.371" /><rect x="990" y="1379" width="2" height="56" fill="#FFFFFF" opacity="0.371" /><rect x="484" y="1751" width="80" height="2" fill="#FFFFFF" opacity="0.366" /><rect x="523" y="1712" width="2" height="80" fill="#FFFFFF" opacity="0.366" /><rect x="1981" y="267" width="50" height="2" fill="#FFFFFF" opacity="0.690" /><rect x="2005" y="243" width="2" height="50" fill="#FFFFFF" opacity="0.690" /><rect x="1516" y="2649" width="24" height="2" fill="#FFFFFF" opacity="0.786" /><rect x="1527" y="2638" width="2" height="24" fill="#FFFFFF" opacity="0.786" /><rect x="2230" y="1471" width="30" height="2" fill="#FFFFFF" opacity="0.524" /><rect x="2244" y="1457" width="2" height="30" fill="#FFFFFF" opacity="0.524" /><rect x="1561" y="2427" width="38" height="2" fill="#FFFFFF" opacity="0.339" /><rect x="1579" y="2409" width="2" height="38" fill="#FFFFFF" opacity="0.339" /><rect x="1507" y="1951" width="28" height="2" fill="#FFFFFF" opacity="0.642" /><rect x="1520" y="1938" width="2" height="28" fill="#FFFFFF" opacity="0.642" /><rect x="1890" y="1899" width="36" height="2" fill="#FFFFFF" opacity="0.844" /><rect x="1907" y="1882" width="2" height="36" fill="#FFFFFF" opacity="0.844" /><rect x="2705" y="1498" width="46" height="2" fill="#FFFFFF" opacity="0.700" /><rect x="2727" y="1476" width="2" height="46" fill="#FFFFFF" opacity="0.700" /><rect x="1736" y="616" width="42" height="2" fill="#FFFFFF" opacity="0.745" /><rect x="1756" y="596" width="2" height="42" fill="#FFFFFF" opacity="0.745" /><rect x="2201" y="1161" width="54" height="2" fill="#FFFFFF" opacity="0.372" /><rect x="2227" y="1135" width="2" height="54" fill="#FFFFFF" opacity="0.372" /><rect x="481" y="1624" width="44" height="2" fill="#FFFFFF" opacity="0.533" /><rect x="502" y="1603" width="2" height="44" fill="#FFFFFF" opacity="0.533" /><rect x="2409" y="527" width="36" height="2" fill="#FFFFFF" opacity="0.522" /><rect x="2426" y="510" width="2" height="36" fill="#FFFFFF" opacity="0.522" /><rect x="1787" y="2541" width="48" height="2" fill="#FFFFFF" opacity="0.491" /><rect x="1810" y="2518" width="2" height="48" fill="#FFFFFF" opacity="0.491" /><rect x="1181" y="1474" width="74" height="2" fill="#FFFFFF" opacity="0.555" /><rect x="1217" y="1438" width="2" height="74" fill="#FFFFFF" opacity="0.555" /></g>
  <g opacity="0.52"><path d="M1572 1006 L2148 1582 L1572 2158 L996 1582 Z" fill="none" stroke="#0C2030" stroke-width="90" stroke-linejoin="round" /><circle cx="1572" cy="1582" r="153" fill="#0C2030" /></g>
  <g filter="url(#soft28)"><path d="M1536 960 L2112 1536 L1536 2112 L960 1536 Z" fill="none" stroke="url(#symbol28)" stroke-width="90" stroke-linejoin="round" /><circle cx="1536" cy="1536" r="153" fill="url(#symbol28)" /></g>
  <rect x="138" y="138" width="2796" height="2796" rx="629" fill="#FFFFFF" filter="url(#grain28)" opacity="0.18" />
</svg>
