<svg xmlns="http://www.w3.org/2000/svg" width="3072" height="3072" viewBox="0 0 3072 3072">
  <title>QuartzOS App Icon 149 - lumen_viewer_149</title>
  <defs><linearGradient id="bg148" x1="0%" y1="0%" x2="100%" y2="100%"><stop offset="0%" stop-color="#3B82FF" /><stop offset="26%" stop-color="#FF6AB3" /><stop offset="56%" stop-color="#FFD84D" /><stop offset="78%" stop-color="#5AA47F" /><stop offset="100%" stop-color="#1A2B22" /></linearGradient><radialGradient id="sun148" cx="27%" cy="15%" r="88%"><stop offset="0%" stop-color="#FFFFFF" stop-opacity="0.62" /><stop offset="30%" stop-color="#53E3A6" stop-opacity="0.35" /><stop offset="100%" stop-color="#53E3A6" stop-opacity="0" /></radialGradient><linearGradient id="glass148" x1="0%" y1="0%" x2="0%" y2="100%"><stop offset="0%" stop-color="#FFFFFF" stop-opacity="0.70" /><stop offset="46%" stop-color="#FFFFFF" stop-opacity="0.26" /><stop offset="100%" stop-color="#FFFFFF" stop-opacity="0.00" /></linearGradient><linearGradient id="ribbon148" x1="0%" y1="0%" x2="100%" y2="0%"><stop offset="0%" stop-color="#3B82FF" stop-opacity="0.18" /><stop offset="34%" stop-color="#FF6AB3" stop-opacity="0.72" /><stop offset="66%" stop-color="#FFD84D" stop-opacity="0.72" /><stop offset="100%" stop-color="#53E3A6" stop-opacity="0.18" /></linearGradient><radialGradient id="orb148" cx="34%" cy="27%" r="74%"><stop offset="0%" stop-color="#FFFFFF" stop-opacity="0.84" /><stop offset="30%" stop-color="#3B82FF" stop-opacity="0.52" /><stop offset="68%" stop-color="#FF6AB3" stop-opacity="0.42" /><stop offset="100%" stop-color="#FFD84D" stop-opacity="0.20" /></radialGradient><linearGradient id="extrude148" x1="0%" y1="0%" x2="0%" y2="100%"><stop offset="0%" stop-color="#15283C" stop-opacity="0.45" /><stop offset="100%" stop-color="#08131D" stop-opacity="0.06" /></linearGradient><linearGradient id="symbol148" x1="0%" y1="0%" x2="100%" y2="100%"><stop offset="0%" stop-color="#FFFFFF" /><stop offset="100%" stop-color="#53E3A6" /></linearGradient><filter id="shadow148" x="-40%" y="-40%" width="180%" height="180%"><feDropShadow dx="0" dy="49" stdDeviation="86" flood-color="#06111A" flood-opacity="0.54" /></filter><filter id="soft148" x="-40%" y="-40%" width="180%" height="180%"><feDropShadow dx="0" dy="0" stdDeviation="14" flood-color="#3B82FF" flood-opacity="0.45" /></filter><filter id="grain148"><feTurbulence type="fractalNoise" baseFrequency="0.799" numOctaves="2" seed="148" /><feColorMatrix type="saturate" values="0" /><feComponentTransfer><feFuncA type="table" tableValues="0 0.09" /></feComponentTransfer></filter></defs>
  <rect x="138" y="138" width="2796" height="2796" rx="629" fill="url(#bg148)" filter="url(#shadow148)" />
  <rect x="138" y="138" width="2796" height="2796" rx="629" fill="url(#sun148)" />
  <g><circle cx="824" cy="1574" r="86" fill="#FFFFFF" opacity="0.103" /><circle cx="405" cy="1882" r="121" fill="#FFFFFF" opacity="0.160" /><circle cx="1087" cy="2150" r="127" fill="#FFFFFF" opacity="0.234" /><circle cx="1035" cy="1560" r="143" fill="#FFFFFF" opacity="0.069" /><circle cx="2376" cy="2335" r="39" fill="#FFFFFF" opacity="0.215" /><circle cx="2170" cy="2268" r="94" fill="#FFFFFF" opacity="0.075" /><circle cx="2538" cy="1762" r="120" fill="#FFFFFF" opacity="0.060" /><circle cx="2593" cy="1892" r="42" fill="#FFFFFF" opacity="0.141" /><circle cx="832" cy="1764" r="74" fill="#FFFFFF" opacity="0.154" /><circle cx="2176" cy="1658" r="128" fill="#FFFFFF" opacity="0.182" /><circle cx="1108" cy="2248" r="128" fill="#FFFFFF" opacity="0.142" /><circle cx="1627" cy="389" r="51" fill="#FFFFFF" opacity="0.069" /><circle cx="2289" cy="1727" r="66" fill="#FFFFFF" opacity="0.127" /><circle cx="1214" cy="1494" r="47" fill="#FFFFFF" opacity="0.131" /><circle cx="1844" cy="480" r="109" fill="#FFFFFF" opacity="0.215" /><circle cx="813" cy="1533" r="144" fill="#FFFFFF" opacity="0.188" /><circle cx="569" cy="2079" r="88" fill="#FFFFFF" opacity="0.200" /><circle cx="1258" cy="1098" r="44" fill="#FFFFFF" opacity="0.167" /><circle cx="1681" cy="1280" r="96" fill="#FFFFFF" opacity="0.127" /><circle cx="2340" cy="2066" r="116" fill="#FFFFFF" opacity="0.150" /><circle cx="1882" cy="1416" r="46" fill="#FFFFFF" opacity="0.087" /><circle cx="2119" cy="811" r="68" fill="#FFFFFF" opacity="0.199" /><circle cx="2424" cy="1396" r="87" fill="#FFFFFF" opacity="0.170" /><circle cx="2215" cy="1327" r="77" fill="#FFFFFF" opacity="0.155" /><circle cx="458" cy="2612" r="58" fill="#FFFFFF" opacity="0.196" /><circle cx="413" cy="353" r="85" fill="#FFFFFF" opacity="0.122" /><circle cx="391" cy="2228" r="46" fill="#FFFFFF" opacity="0.140" /><circle cx="913" cy="1998" r="93" fill="#FFFFFF" opacity="0.193" /></g>
  <g><path d="M 278.6 588.0 L 2792.9 311.5 L 2792.9 772.1 L 278.6 1048.6 Z" fill="#FFFFFF" opacity="0.230" /><path d="M 236.5 893.1 L 2797.9 616.6 L 2797.9 1081.2 L 236.5 1357.7 Z" fill="#FFFFFF" opacity="0.126" /><path d="M 353.3 1092.4 L 2889.1 816.0 L 2889.1 1265.8 L 353.3 1542.2 Z" fill="#FFFFFF" opacity="0.126" /><path d="M 178.3 1418.6 L 2898.0 1142.2 L 2898.0 1601.8 L 178.3 1878.3 Z" fill="#FFFFFF" opacity="0.225" /><path d="M 275.6 1613.8 L 2747.9 1337.3 L 2747.9 1828.5 L 275.6 2105.0 Z" fill="#FFFFFF" opacity="0.083" /><path d="M 306.7 1903.4 L 2832.5 1626.9 L 2832.5 2074.8 L 306.7 2351.3 Z" fill="#FFFFFF" opacity="0.137" /><path d="M 284.4 2211.8 L 2749.1 1935.3 L 2749.1 2390.0 L 284.4 2666.5 Z" fill="#FFFFFF" opacity="0.217" /><path d="M 163.9 2450.4 L 2799.8 2173.9 L 2799.8 2636.7 L 163.9 2913.2 Z" fill="#FFFFFF" opacity="0.200" /></g>
  <g filter="url(#soft148)"><g transform="rotate(-23.01 1536.0 1536.0)"><path d="M-368.6 483.5 C -225.8 528.3, -25.8 462.5, 107.5 504.2 C 250.4 508.5, 450.4 460.1, 583.7 461.1 C 726.5 459.7, 926.5 496.6, 1059.8 431.6 C 1202.7 422.5, 1402.7 542.0, 1536.0 433.7 C 1678.8 437.9, 1878.8 535.3, 2012.2 465.9 C 2155.0 465.1, 2355.0 504.6, 2488.3 508.9 C 2631.2 504.1, 2831.2 468.4, 2964.5 536.4 C 3107.3 530.6, 3307.3 450.7, 3440.6 531.9" fill="none" stroke="url(#ribbon148)" stroke-width="58.4" stroke-linecap="round" stroke-opacity="0.120" /></g><g transform="rotate(-22.43 1536.0 1536.0)"><path d="M-368.6 660.1 C -241.7 630.2, -63.9 678.4, 54.6 599.6 C 181.6 613.6, 359.4 706.6, 477.9 607.3 C 604.8 608.2, 782.6 686.2, 901.1 647.1 C 1028.1 651.6, 1205.9 669.1, 1324.4 694.8 C 1451.3 708.5, 1629.1 625.4, 1747.6 721.5 C 1874.6 733.6, 2052.4 588.5, 2170.9 710.9 C 2297.9 724.6, 2475.6 636.1, 2594.1 669.6 C 2721.1 666.7, 2898.9 649.0, 3017.4 622.5 C 3144.4 632.7, 3322.1 694.0, 3440.6 598.2" fill="none" stroke="url(#ribbon148)" stroke-width="54.4" stroke-linecap="round" stroke-opacity="0.146" /></g><g transform="rotate(-21.85 1536.0 1536.0)"><path d="M-368.6 946.0 C -254.4 962.3, -94.4 933.4, 12.3 913.1 C 126.6 924.5, 286.6 957.5, 393.2 879.2 C 507.5 869.7, 667.5 1002.4, 774.1 885.9 C 888.4 896.1, 1048.4 968.7, 1155.1 929.0 C 1269.4 930.3, 1429.3 956.7, 1536.0 982.5 C 1650.3 969.7, 1810.3 908.5, 1916.9 1013.8 C 2031.2 1040.7, 2191.2 882.9, 2297.9 1004.0 C 2412.1 999.1, 2572.1 904.4, 2678.8 959.1 C 2793.1 958.0, 2953.1 941.8, 3059.7 906.2 C 3174.0 908.7, 3334.0 973.7, 3440.6 877.5" fill="none" stroke="url(#ribbon148)" stroke-width="50.4" stroke-linecap="round" stroke-opacity="0.172" /></g><g transform="rotate(-21.27 1536.0 1536.0)"><path d="M-368.6 1092.4 C -264.8 1013.5, -119.3 1141.5, -22.3 1025.2 C 81.5 1051.7, 227.0 1148.1, 324.0 1071.8 C 427.8 1074.2, 573.3 1106.8, 670.3 1130.9 C 774.1 1133.3, 919.6 1074.0, 1016.6 1166.7 C 1120.4 1171.1, 1265.9 1051.2, 1362.9 1157.4 C 1466.7 1170.1, 1612.2 1057.4, 1709.1 1108.7 C 1813.0 1108.6, 1958.5 1080.9, 2055.4 1050.1 C 2159.3 1058.5, 2304.8 1140.2, 2401.7 1017.2 C 2505.6 997.0, 2651.1 1170.1, 2748.0 1030.0 C 2851.9 1054.4, 2997.4 1158.9, 3094.3 1080.6 C 3198.2 1083.2, 3343.7 1102.9, 3440.6 1138.4" fill="none" stroke="url(#ribbon148)" stroke-width="46.4" stroke-linecap="round" stroke-opacity="0.198" /></g><g transform="rotate(-20.69 1536.0 1536.0)"><path d="M-368.6 1289.1 C -273.4 1322.1, -140.1 1256.3, -51.2 1369.8 C 44.0 1376.5, 177.4 1243.4, 266.2 1360.8 C 361.5 1379.6, 494.8 1224.3, 583.7 1308.4 C 678.9 1312.8, 812.2 1269.8, 901.1 1244.2 C 996.4 1248.2, 1129.7 1337.8, 1218.6 1207.3 C 1313.8 1204.2, 1447.1 1345.8, 1536.0 1220.0 C 1631.2 1221.9, 1764.6 1321.0, 1853.4 1274.7 C 1948.7 1276.7, 2082.0 1299.7, 2170.9 1338.1 C 2266.1 1339.3, 2399.4 1254.9, 2488.3 1371.8 C 2583.6 1353.3, 2716.9 1211.1, 2805.8 1355.4 C 2901.0 1378.7, 3034.3 1214.9, 3123.2 1298.7 C 3218.4 1298.7, 3351.8 1281.6, 3440.6 1236.3" fill="none" stroke="url(#ribbon148)" stroke-width="42.4" stroke-linecap="round" stroke-opacity="0.224" /></g><g transform="rotate(-20.11 1536.0 1536.0)"><path d="M-368.6 1516.5 C -225.8 1561.3, -25.8 1505.3, 107.5 1481.8 C 250.4 1487.9, 450.4 1537.2, 583.7 1432.3 C 726.5 1432.8, 926.5 1601.5, 1059.8 1433.8 C 1202.7 1438.9, 1402.7 1551.3, 1536.0 1485.6 C 1678.8 1496.3, 1878.8 1540.5, 2012.2 1556.0 C 2155.0 1544.9, 2355.0 1475.2, 2488.3 1602.5 C 2631.2 1636.1, 2831.2 1472.6, 2964.5 1596.9 C 3107.3 1574.1, 3307.3 1477.9, 3440.6 1542.4" fill="none" stroke="url(#ribbon148)" stroke-width="38.4" stroke-linecap="round" stroke-opacity="0.250" /></g><g transform="rotate(-19.53 1536.0 1536.0)"><path d="M-368.6 1668.5 C -241.7 1609.9, -63.9 1736.3, 54.6 1579.9 C 181.6 1612.7, 359.4 1753.4, 477.9 1636.4 C 604.8 1629.8, 782.6 1691.3, 901.1 1712.3 C 1028.1 1700.1, 1205.9 1647.3, 1324.4 1761.7 C 1451.3 1752.0, 1629.1 1603.1, 1747.6 1754.5 C 1874.6 1748.7, 2052.4 1581.3, 2170.9 1695.1 C 2297.9 1699.2, 2475.6 1654.3, 2594.1 1619.6 C 2721.1 1618.9, 2898.9 1686.4, 3017.4 1573.8 C 3144.4 1597.3, 3322.1 1759.0, 3440.6 1585.4" fill="none" stroke="url(#ribbon148)" stroke-width="34.4" stroke-linecap="round" stroke-opacity="0.276" /></g><g transform="rotate(-18.95 1536.0 1536.0)"><path d="M-368.6 1840.4 C -254.4 1902.2, -94.4 1809.8, 12.3 1804.7 C 126.6 1809.5, 286.6 1875.2, 393.2 1744.9 C 507.5 1710.4, 667.5 1933.7, 774.1 1743.0 C 888.4 1727.1, 1048.4 1873.9, 1155.1 1800.1 C 1269.4 1788.7, 1429.3 1876.3, 1536.0 1881.7 C 1650.3 1881.9, 1810.3 1815.8, 1916.9 1938.2 C 2031.2 1971.2, 2191.2 1782.3, 2297.9 1935.4 C 2412.1 1949.3, 2572.1 1773.8, 2678.8 1874.9 C 2793.1 1882.7, 2953.1 1807.1, 3059.7 1793.5 C 3174.0 1788.7, 3334.0 1887.0, 3440.6 1740.5" fill="none" stroke="url(#ribbon148)" stroke-width="30.4" stroke-linecap="round" stroke-opacity="0.302" /></g><g transform="rotate(-18.37 1536.0 1536.0)"><path d="M-368.6 2065.5 C -264.8 2211.6, -119.3 1950.5, -22.3 2152.8 C 81.5 2150.4, 227.0 1962.4, 324.0 2076.1 C 427.8 2079.8, 573.3 2059.9, 670.3 1993.1 C 774.1 2015.5, 919.6 2110.9, 1016.6 1954.0 C 1120.4 1913.9, 1265.9 2186.6, 1362.9 1982.5 C 1466.7 1994.6, 1612.2 2127.2, 1709.1 2061.4 C 1813.0 2061.3, 1958.5 2068.7, 2055.4 2142.8 C 2159.3 2143.6, 2304.8 2011.8, 2401.7 2177.3 C 2505.6 2174.0, 2651.1 1934.0, 2748.0 2144.0 C 2851.9 2141.5, 2997.4 1979.3, 3094.3 2063.1 C 3198.2 2064.1, 3343.7 2067.0, 3440.6 1983.6" fill="none" stroke="url(#ribbon148)" stroke-width="26.4" stroke-linecap="round" stroke-opacity="0.328" /></g><g transform="rotate(-17.79 1536.0 1536.0)"><path d="M-368.6 2212.9 C -273.4 2336.2, -140.1 2137.6, -51.2 2286.9 C 44.0 2292.9, 177.4 2151.4, 266.2 2197.7 C 361.5 2200.0, 494.8 2230.7, 583.7 2117.7 C 678.9 2111.6, 812.2 2290.2, 901.1 2095.5 C 996.4 2084.6, 1129.7 2300.1, 1218.6 2144.5 C 1313.8 2132.8, 1447.1 2276.2, 1536.0 2235.0 C 1631.2 2242.2, 1764.6 2190.5, 1853.4 2312.1 C 1948.7 2305.2, 2082.0 2148.9, 2170.9 2329.0 C 2266.1 2323.5, 2399.4 2151.1, 2488.3 2275.5 C 2583.6 2277.1, 2716.9 2172.4, 2805.8 2184.1 C 2901.0 2187.6, 3034.3 2244.5, 3123.2 2110.1 C 3218.4 2084.9, 3351.8 2244.8, 3440.6 2098.5" fill="none" stroke="url(#ribbon148)" stroke-width="22.4" stroke-linecap="round" stroke-opacity="0.354" /></g><g transform="rotate(-17.21 1536.0 1536.0)"><path d="M-368.6 2472.0 C -225.8 2446.3, -25.8 2494.8, 107.5 2368.8 C 250.4 2406.5, 450.4 2567.8, 583.7 2348.3 C 726.5 2323.0, 926.5 2568.9, 1059.8 2402.8 C 1202.7 2415.6, 1402.7 2526.2, 1536.0 2499.3 C 1678.8 2502.7, 1878.8 2458.5, 2012.2 2579.2 C 2155.0 2573.3, 2355.0 2356.5, 2488.3 2594.1 C 2631.2 2624.5, 2831.2 2335.2, 2964.5 2534.9 C 3107.3 2514.4, 3307.3 2427.0, 3440.6 2437.5" fill="none" stroke="url(#ribbon148)" stroke-width="18.4" stroke-linecap="round" stroke-opacity="0.380" /></g><g transform="rotate(-16.63 1536.0 1536.0)"><path d="M-368.6 2595.9 C -241.7 2514.2, -63.9 2699.2, 54.6 2605.5 C 181.6 2606.6, 359.4 2588.0, 477.9 2697.7 C 604.8 2715.1, 782.6 2474.8, 901.1 2728.3 C 1028.1 2780.7, 1205.9 2439.4, 1324.4 2678.5 C 1451.3 2650.3, 1629.1 2539.7, 1747.6 2578.6 C 1874.6 2578.5, 2052.4 2612.6, 2170.9 2489.3 C 2297.9 2502.4, 2475.6 2722.4, 2594.1 2464.6 C 2721.1 2425.7, 2898.9 2659.3, 3017.4 2519.6 C 3144.4 2498.1, 3322.1 2649.9, 3440.6 2620.9" fill="none" stroke="url(#ribbon148)" stroke-width="14.4" stroke-linecap="round" stroke-opacity="0.406" /></g></g>
  <g><ellipse cx="1536.0" cy="1551.9" rx="728.6" ry="605.7" fill="url(#extrude148)" opacity="0.220" /><ellipse cx="1536.0" cy="1567.7" rx="736.0" ry="610.9" fill="url(#extrude148)" opacity="0.205" /><ellipse cx="1536.0" cy="1583.6" rx="743.4" ry="616.1" fill="url(#extrude148)" opacity="0.190" /><ellipse cx="1536.0" cy="1599.5" rx="750.9" ry="621.3" fill="url(#extrude148)" opacity="0.175" /><ellipse cx="1536.0" cy="1615.4" rx="758.3" ry="626.5" fill="url(#extrude148)" opacity="0.160" /><ellipse cx="1536.0" cy="1631.2" rx="765.7" ry="631.7" fill="url(#extrude148)" opacity="0.145" /><ellipse cx="1536.0" cy="1647.1" rx="773.2" ry="636.9" fill="url(#extrude148)" opacity="0.130" /><ellipse cx="1536.0" cy="1663.0" rx="780.6" ry="642.1" fill="url(#extrude148)" opacity="0.115" /><ellipse cx="1536.0" cy="1678.8" rx="788.0" ry="647.4" fill="url(#extrude148)" opacity="0.100" /><ellipse cx="1536.0" cy="1694.7" rx="795.5" ry="652.6" fill="url(#extrude148)" opacity="0.085" /><ellipse cx="1536.0" cy="1710.6" rx="802.9" ry="657.8" fill="url(#extrude148)" opacity="0.070" /><ellipse cx="1536.0" cy="1726.5" rx="810.3" ry="663.0" fill="url(#extrude148)" opacity="0.055" /></g>
  <ellipse cx="1536.0" cy="1726.5" rx="773.2" ry="214.9" fill="#0B1D2D" opacity="0.24" />
  <ellipse cx="1536.0" cy="1536.0" rx="743.4" ry="651.3" fill="url(#orb148)" stroke="#FFFFFF" stroke-opacity="0.42" stroke-width="7" />
  <ellipse cx="1431.9" cy="1392.7" rx="505.5" ry="299.6" fill="#FFFFFF" opacity="0.25" />
  <path d="M 199.4 399.4 C 1013.8 -30.7, 2058.2 768.0, 2872.6 215.0 L 2872.6 983.0 C 2089.0 1228.8, 1013.8 307.2, 199.4 1167.4 Z" fill="url(#glass148)" />
  <rect x="270" y="270" width="2532" height="2532" rx="430" fill="none" stroke="#FFFFFF" stroke-opacity="0.30" stroke-width="5" />
  <rect x="288.4" y="288.4" width="2495.1" height="2495.1" rx="399" fill="none" stroke="#3B82FF" stroke-opacity="0.35" stroke-width="3" />
  <g filter="url(#soft148)"><rect x="1164" y="260" width="72" height="2" fill="#FFFFFF" opacity="0.421" /><rect x="1199" y="225" width="2" height="72" fill="#FFFFFF" opacity="0.421" /><rect x="2393" y="2000" width="74" height="2" fill="#FFFFFF" opacity="0.323" /><rect x="2429" y="1964" width="2" height="74" fill="#FFFFFF" opacity="0.323" /><rect x="2624" y="2376" width="64" height="2" fill="#FFFFFF" opacity="0.378" /><rect x="2655" y="2345" width="2" height="64" fill="#FFFFFF" opacity="0.378" /><rect x="403" y="1301" width="50" height="2" fill="#FFFFFF" opacity="0.317" /><rect x="427" y="1277" width="2" height="50" fill="#FFFFFF" opacity="0.317" /><rect x="1826" y="1295" width="32" height="2" fill="#FFFFFF" opacity="0.701" /><rect x="1841" y="1280" width="2" height="32" fill="#FFFFFF" opacity="0.701" /><rect x="1751" y="398" width="58" height="2" fill="#FFFFFF" opacity="0.428" /><rect x="1779" y="370" width="2" height="58" fill="#FFFFFF" opacity="0.428" /><rect x="309" y="325" width="64" height="2" fill="#FFFFFF" opacity="0.520" /><rect x="340" y="294" width="2" height="64" fill="#FFFFFF" opacity="0.520" /><rect x="1078" y="1585" width="70" height="2" fill="#FFFFFF" opacity="0.644" /><rect x="1112" y="1551" width="2" height="70" fill="#FFFFFF" opacity="0.644" /><rect x="1545" y="698" width="46" height="2" fill="#FFFFFF" opacity="0.835" /><rect x="1567" y="676" width="2" height="46" fill="#FFFFFF" opacity="0.835" /><rect x="1554" y="277" width="78" height="2" fill="#FFFFFF" opacity="0.632" /><rect x="1592" y="239" width="2" height="78" fill="#FFFFFF" opacity="0.632" /><rect x="1359" y="506" width="56" height="2" fill="#FFFFFF" opacity="0.692" /><rect x="1386" y="479" width="2" height="56" fill="#FFFFFF" opacity="0.692" /><rect x="875" y="1664" width="32" height="2" fill="#FFFFFF" opacity="0.460" /><rect x="890" y="1649" width="2" height="32" fill="#FFFFFF" opacity="0.460" /><rect x="906" y="2620" width="48" height="2" fill="#FFFFFF" opacity="0.529" /><rect x="929" y="2597" width="2" height="48" fill="#FFFFFF" opacity="0.529" /><rect x="1861" y="997" width="40" height="2" fill="#FFFFFF" opacity="0.805" /><rect x="1880" y="978" width="2" height="40" fill="#FFFFFF" opacity="0.805" /><rect x="1280" y="1353" width="48" height="2" fill="#FFFFFF" opacity="0.619" /><rect x="1303" y="1330" width="2" height="48" fill="#FFFFFF" opacity="0.619" /><rect x="2687" y="555" width="30" height="2" fill="#FFFFFF" opacity="0.447" /><rect x="2701" y="541" width="2" height="30" fill="#FFFFFF" opacity="0.447" /><rect x="321" y="765" width="62" height="2" fill="#FFFFFF" opacity="0.637" /><rect x="351" y="735" width="2" height="62" fill="#FFFFFF" opacity="0.637" /><rect x="1440" y="325" width="58" height="2" fill="#FFFFFF" opacity="0.390" /><rect x="1468" y="297" width="2" height="58" fill="#FFFFFF" opacity="0.390" /><rect x="1503" y="1639" width="64" height="2" fill="#FFFFFF" opacity="0.365" /><rect x="1534" y="1608" width="2" height="64" fill="#FFFFFF" opacity="0.365" /><rect x="476" y="2689" width="64" height="2" fill="#FFFFFF" opacity="0.327" /><rect x="507" y="2658" width="2" height="64" fill="#FFFFFF" opacity="0.327" /><rect x="2155" y="2475" width="54" height="2" fill="#FFFFFF" opacity="0.437" /><rect x="2181" y="2449" width="2" height="54" fill="#FFFFFF" opacity="0.437" /><rect x="2543" y="894" width="34" height="2" fill="#FFFFFF" opacity="0.632" /><rect x="2559" y="878" width="2" height="34" fill="#FFFFFF" opacity="0.632" /><rect x="1415" y="1891" width="36" height="2" fill="#FFFFFF" opacity="0.360" /><rect x="1432" y="1874" width="2" height="36" fill="#FFFFFF" opacity="0.360" /><rect x="1459" y="1693" width="50" height="2" fill="#FFFFFF" opacity="0.542" /><rect x="1483" y="1669" width="2" height="50" fill="#FFFFFF" opacity="0.542" /><rect x="2630" y="2445" width="56" height="2" fill="#FFFFFF" opacity="0.422" /><rect x="2657" y="2418" width="2" height="56" fill="#FFFFFF" opacity="0.422" /><rect x="2679" y="1537" width="50" height="2" fill="#FFFFFF" opacity="0.769" /><rect x="2703" y="1513" width="2" height="50" fill="#FFFFFF" opacity="0.769" /></g>
  <g opacity="0.52"><path d="M1572 1006 L2148 1582 L1572 2158 L996 1582 Z" fill="none" stroke="#0C2030" stroke-width="90" stroke-linejoin="round" /><circle cx="1572" cy="1582" r="153" fill="#0C2030" /></g>
  <g filter="url(#soft148)"><path d="M1536 960 L2112 1536 L1536 2112 L960 1536 Z" fill="none" stroke="url(#symbol148)" stroke-width="90" stroke-linejoin="round" /><circle cx="1536" cy="1536" r="153" fill="url(#symbol148)" /></g>
  <rect x="138" y="138" width="2796" height="2796" rx="629" fill="#FFFFFF" filter="url(#grain148)" opacity="0.18" />
</svg>
