<svg xmlns="http://www.w3.org/2000/svg" width="3072" height="3072" viewBox="0 0 3072 3072">
  <title>QuartzOS App Icon 236 - magnet_calendar_236</title>
  <defs><linearGradient id="bg235" x1="0%" y1="0%" x2="100%" y2="100%"><stop offset="0%" stop-color="#FF9F43" /><stop offset="26%" stop-color="#53E3A6" /><stop offset="56%" stop-color="#3B82FF" /><stop offset="78%" stop-color="#9A6BB4" /><stop offset="100%" stop-color="#271E2A" /></linearGradient><radialGradient id="sun235" cx="27%" cy="27%" r="88%"><stop offset="0%" stop-color="#FFFFFF" stop-opacity="0.62" /><stop offset="30%" stop-color="#8A5CFF" stop-opacity="0.35" /><stop offset="100%" stop-color="#8A5CFF" stop-opacity="0" /></radialGradient><linearGradient id="glass235" x1="0%" y1="0%" x2="0%" y2="100%"><stop offset="0%" stop-color="#FFFFFF" stop-opacity="0.70" /><stop offset="46%" stop-color="#FFFFFF" stop-opacity="0.26" /><stop offset="100%" stop-color="#FFFFFF" stop-opacity="0.00" /></linearGradient><linearGradient id="ribbon235" x1="0%" y1="0%" x2="100%" y2="0%"><stop offset="0%" stop-color="#FF9F43" stop-opacity="0.18" /><stop offset="34%" stop-color="#53E3A6" stop-opacity="0.72" /><stop offset="66%" stop-color="#3B82FF" stop-opacity="0.72" /><stop offset="100%" stop-color="#8A5CFF" stop-opacity="0.18" /></linearGradient><radialGradient id="orb235" cx="34%" cy="27%" r="74%"><stop offset="0%" stop-color="#FFFFFF" stop-opacity="0.84" /><stop offset="30%" stop-color="#FF9F43" stop-opacity="0.52" /><stop offset="68%" stop-color="#53E3A6" stop-opacity="0.42" /><stop offset="100%" stop-color="#3B82FF" stop-opacity="0.20" /></radialGradient><linearGradient id="extrude235" x1="0%" y1="0%" x2="0%" y2="100%"><stop offset="0%" stop-color="#15283C" stop-opacity="0.45" /><stop offset="100%" stop-color="#08131D" stop-opacity="0.06" /></linearGradient><linearGradient id="symbol235" x1="0%" y1="0%" x2="100%" y2="100%"><stop offset="0%" stop-color="#FFFFFF" /><stop offset="100%" stop-color="#8A5CFF" /></linearGradient><filter id="shadow235" x="-40%" y="-40%" width="180%" height="180%"><feDropShadow dx="0" dy="49" stdDeviation="86" flood-color="#06111A" flood-opacity="0.54" /></filter><filter id="soft235" x="-40%" y="-40%" width="180%" height="180%"><feDropShadow dx="0" dy="0" stdDeviation="14" flood-color="#FF9F43" flood-opacity="0.45" /></filter><filter id="grain235"><feTurbulence type="fractalNoise" baseFrequency="0.953" numOctaves="2" seed="235" /><feColorMatrix type="saturate" values="0" /><feComponentTransfer><feFuncA type="table" tableValues="0 0.09" /></feComponentTransfer></filter></defs>
  <rect x="138" y="138" width="2796" height="2796" rx="629" fill="url(#bg235)" filter="url(#shadow235)" />
  <rect x="138" y="138" width="2796" height="2796" rx="629" fill="url(#sun235)" />
  <g><circle cx="1687" cy="758" r="45" fill="#FFFFFF" opacity="0.094" /><circle cx="2501" cy="1457" r="137" fill="#FFFFFF" opacity="0.122" /><circle cx="1876" cy="2494" r="153" fill="#FFFFFF" opacity="0.134" /><circle cx="1609" cy="761" r="89" fill="#FFFFFF" opacity="0.077" /><circle cx="1934" cy="1305" r="140" fill="#FFFFFF" opacity="0.178" /><circle cx="1360" cy="695" r="137" fill="#FFFFFF" opacity="0.107" /><circle cx="1095" cy="1678" r="100" fill="#FFFFFF" opacity="0.194" /><circle cx="1985" cy="1035" r="96" fill="#FFFFFF" opacity="0.088" /><circle cx="1163" cy="1029" r="125" fill="#FFFFFF" opacity="0.198" /><circle cx="825" cy="1904" r="117" fill="#FFFFFF" opacity="0.129" /><circle cx="2492" cy="680" r="124" fill="#FFFFFF" opacity="0.086" /><circle cx="2682" cy="440" r="64" fill="#FFFFFF" opacity="0.090" /><circle cx="1854" cy="1406" r="56" fill="#FFFFFF" opacity="0.187" /><circle cx="1710" cy="803" r="156" fill="#FFFFFF" opacity="0.186" /><circle cx="1542" cy="334" r="68" fill="#FFFFFF" opacity="0.212" /><circle cx="2559" cy="1558" r="65" fill="#FFFFFF" opacity="0.167" /><circle cx="1701" cy="1166" r="65" fill="#FFFFFF" opacity="0.194" /><circle cx="1393" cy="1185" r="119" fill="#FFFFFF" opacity="0.133" /><circle cx="1553" cy="1793" r="52" fill="#FFFFFF" opacity="0.180" /><circle cx="1489" cy="2539" r="106" fill="#FFFFFF" opacity="0.088" /><circle cx="2516" cy="2426" r="147" fill="#FFFFFF" opacity="0.112" /><circle cx="383" cy="1884" r="69" fill="#FFFFFF" opacity="0.239" /><circle cx="1559" cy="691" r="140" fill="#FFFFFF" opacity="0.081" /><circle cx="2259" cy="843" r="40" fill="#FFFFFF" opacity="0.216" /><circle cx="447" cy="2458" r="75" fill="#FFFFFF" opacity="0.231" /><circle cx="1883" cy="520" r="57" fill="#FFFFFF" opacity="0.112" /><circle cx="552" cy="469" r="132" fill="#FFFFFF" opacity="0.138" /><circle cx="788" cy="1774" r="96" fill="#FFFFFF" opacity="0.084" /></g>
  <g><path d="M 344.1 628.3 L 2719.2 351.8 L 2719.2 818.9 L 344.1 1095.4 Z" fill="#FFFFFF" opacity="0.192" /><path d="M 154.1 895.9 L 2809.6 619.4 L 2809.6 1083.1 L 154.1 1359.6 Z" fill="#FFFFFF" opacity="0.176" /><path d="M 307.8 1137.3 L 2854.9 860.9 L 2854.9 1290.5 L 307.8 1567.0 Z" fill="#FFFFFF" opacity="0.109" /><path d="M 321.3 1424.9 L 2703.4 1148.4 L 2703.4 1643.1 L 321.3 1919.6 Z" fill="#FFFFFF" opacity="0.159" /><path d="M 204.5 1639.0 L 2684.7 1362.5 L 2684.7 1814.5 L 204.5 2091.0 Z" fill="#FFFFFF" opacity="0.235" /><path d="M 164.9 1910.7 L 2845.1 1634.2 L 2845.1 2070.0 L 164.9 2346.4 Z" fill="#FFFFFF" opacity="0.125" /><path d="M 194.0 2140.0 L 2718.4 1863.5 L 2718.4 2357.9 L 194.0 2634.4 Z" fill="#FFFFFF" opacity="0.140" /><path d="M 171.3 2412.5 L 2799.2 2136.1 L 2799.2 2568.3 L 171.3 2844.8 Z" fill="#FFFFFF" opacity="0.115" /></g>
  <g filter="url(#soft235)"><g transform="rotate(-11.15 1536.0 1536.0)"><path d="M-368.6 467.2 C -225.8 509.0, -25.8 451.9, 107.5 482.8 C 250.4 481.9, 450.4 461.8, 583.7 440.0 C 726.5 446.0, 926.5 494.5, 1059.8 413.7 C 1202.7 401.7, 1402.7 508.4, 1536.0 419.9 C 1678.8 411.3, 1878.8 492.3, 2012.2 454.8 C 2155.0 458.9, 2355.0 478.7, 2488.3 497.3 C 2631.2 503.0, 2831.2 452.3, 2964.5 521.5 C 3107.3 528.3, 3307.3 439.3, 3440.6 512.8" fill="none" stroke="url(#ribbon235)" stroke-width="58.4" stroke-linecap="round" stroke-opacity="0.120" /></g><g transform="rotate(-10.57 1536.0 1536.0)"><path d="M-368.6 701.7 C -241.7 641.3, -63.9 743.3, 54.6 646.9 C 181.6 650.0, 359.4 766.5, 477.9 685.0 C 604.8 681.6, 782.6 711.1, 901.1 733.1 C 1028.1 738.5, 1205.9 689.9, 1324.4 762.2 C 1451.3 783.9, 1629.1 671.3, 1747.6 754.6 C 1874.6 753.7, 2052.4 668.6, 2170.9 714.9 C 2297.9 713.6, 2475.6 695.3, 2594.1 667.1 C 2721.1 660.7, 2898.9 712.8, 3017.4 640.4 C 3144.4 636.6, 3322.1 726.3, 3440.6 650.8" fill="none" stroke="url(#ribbon235)" stroke-width="54.4" stroke-linecap="round" stroke-opacity="0.146" /></g><g transform="rotate(-9.99 1536.0 1536.0)"><path d="M-368.6 850.5 C -254.4 803.3, -94.4 896.2, 12.3 781.2 C 126.6 793.1, 286.6 929.3, 393.2 805.0 C 507.5 792.7, 667.5 873.1, 774.1 856.5 C 888.4 857.2, 1048.4 845.5, 1155.1 904.3 C 1269.4 883.8, 1429.3 817.7, 1536.0 919.4 C 1650.3 909.5, 1810.3 789.3, 1916.9 892.8 C 2031.2 885.4, 2191.2 803.6, 2297.9 840.5 C 2412.1 836.7, 2572.1 861.2, 2678.8 794.2 C 2793.1 807.8, 2953.1 917.8, 3059.7 782.1 C 3174.0 796.6, 3334.0 932.2, 3440.6 811.5" fill="none" stroke="url(#ribbon235)" stroke-width="50.4" stroke-linecap="round" stroke-opacity="0.172" /></g><g transform="rotate(-9.41 1536.0 1536.0)"><path d="M-368.6 1161.2 C -264.8 1221.6, -119.3 1132.9, -22.3 1220.1 C 81.5 1224.1, 227.0 1098.2, 324.0 1167.2 C 427.8 1166.2, 573.3 1159.4, 670.3 1110.7 C 774.1 1110.1, 919.6 1216.7, 1016.6 1084.8 C 1120.4 1111.8, 1265.9 1242.9, 1362.9 1105.3 C 1466.7 1124.7, 1612.2 1196.9, 1709.1 1159.7 C 1813.0 1160.2, 1958.5 1161.8, 2055.4 1215.0 C 2159.3 1217.3, 2304.8 1134.4, 2401.7 1237.7 C 2505.6 1213.1, 2651.1 1102.7, 2748.0 1214.0 C 2851.9 1227.6, 2997.4 1132.1, 3094.3 1158.3 C 3198.2 1159.4, 3343.7 1162.3, 3440.6 1104.3" fill="none" stroke="url(#ribbon235)" stroke-width="46.4" stroke-linecap="round" stroke-opacity="0.198" /></g><g transform="rotate(-8.83 1536.0 1536.0)"><path d="M-368.6 1349.6 C -273.4 1236.4, -140.1 1428.7, -51.2 1287.5 C 44.0 1263.7, 177.4 1418.3, 266.2 1346.5 C 361.5 1347.7, 494.8 1352.2, 583.7 1407.3 C 678.9 1399.7, 812.2 1287.3, 901.1 1433.1 C 996.4 1464.1, 1129.7 1260.1, 1218.6 1408.2 C 1313.8 1423.0, 1447.1 1287.4, 1536.0 1347.8 C 1631.2 1348.3, 1764.6 1350.4, 1853.4 1288.4 C 1948.7 1286.6, 2082.0 1422.5, 2170.9 1266.1 C 2266.1 1284.1, 2399.4 1392.9, 2488.3 1294.5 C 2583.6 1293.9, 2716.9 1415.3, 2805.8 1356.2 C 2901.0 1354.7, 3034.3 1346.9, 3123.2 1414.0 C 3218.4 1398.2, 3351.8 1279.0, 3440.6 1432.6" fill="none" stroke="url(#ribbon235)" stroke-width="42.4" stroke-linecap="round" stroke-opacity="0.224" /></g><g transform="rotate(-8.25 1536.0 1536.0)"><path d="M-368.6 1496.1 C -225.8 1576.6, -25.8 1417.8, 107.5 1582.8 C 250.4 1598.4, 450.4 1399.7, 583.7 1537.7 C 726.5 1528.3, 926.5 1469.7, 1059.8 1467.3 C 1202.7 1467.1, 1402.7 1523.5, 1536.0 1414.4 C 1678.8 1420.5, 1878.8 1574.7, 2012.2 1411.1 C 2155.0 1403.1, 2355.0 1539.9, 2488.3 1459.3 C 2631.2 1453.8, 2831.2 1518.7, 2964.5 1529.9 C 3107.3 1532.8, 3307.3 1472.4, 3440.6 1580.0" fill="none" stroke="url(#ribbon235)" stroke-width="38.4" stroke-linecap="round" stroke-opacity="0.250" /></g><g transform="rotate(-7.67 1536.0 1536.0)"><path d="M-368.6 1664.6 C -241.7 1639.5, -63.9 1696.3, 54.6 1575.8 C 181.6 1587.3, 359.4 1700.4, 477.9 1573.6 C 604.8 1577.6, 782.6 1756.7, 901.1 1626.6 C 1028.1 1638.0, 1205.9 1681.6, 1324.4 1702.7 C 1451.3 1692.7, 1629.1 1632.4, 1747.6 1755.7 C 1874.6 1764.0, 2052.4 1556.4, 2170.9 1753.5 C 2297.9 1787.4, 2475.6 1605.7, 2594.1 1697.4 C 2721.1 1703.0, 2898.9 1644.6, 3017.4 1621.4 C 3144.4 1620.1, 3322.1 1679.5, 3440.6 1571.7" fill="none" stroke="url(#ribbon235)" stroke-width="34.4" stroke-linecap="round" stroke-opacity="0.276" /></g><g transform="rotate(-7.09 1536.0 1536.0)"><path d="M-368.6 1849.6 C -254.4 1980.4, -94.4 1798.9, 12.3 1911.9 C 126.6 1908.3, 286.6 1798.4, 393.2 1832.6 C 507.5 1828.2, 667.5 1862.6, 774.1 1763.6 C 888.4 1758.2, 1048.4 1914.1, 1155.1 1746.7 C 1269.4 1733.7, 1429.3 1909.0, 1536.0 1792.2 C 1650.3 1787.1, 1810.3 1876.8, 1916.9 1872.5 C 2031.2 1866.8, 2191.2 1826.4, 2297.9 1938.9 C 2412.1 1903.4, 2572.1 1820.8, 2678.8 1951.1 C 2793.1 1961.4, 2953.1 1755.5, 3059.7 1901.7 C 3174.0 1919.4, 3334.0 1793.2, 3440.6 1820.7" fill="none" stroke="url(#ribbon235)" stroke-width="30.4" stroke-linecap="round" stroke-opacity="0.302" /></g><g transform="rotate(-6.51 1536.0 1536.0)"><path d="M-368.6 2085.7 C -264.8 1974.6, -119.3 2201.7, -22.3 2036.5 C 81.5 2022.0, 227.0 2135.0, 324.0 2123.5 C 427.8 2113.1, 573.3 2060.8, 670.3 2187.5 C 774.1 2168.3, 919.6 2022.2, 1016.6 2189.8 C 1120.4 2201.1, 1265.9 1961.1, 1362.9 2128.9 C 1466.7 2114.3, 1612.2 2044.4, 1709.1 2041.9 C 1813.0 2037.0, 1958.5 2131.2, 2055.4 1981.4 C 2159.3 1962.1, 2304.8 2175.7, 2401.7 1984.2 C 2505.6 1988.3, 2651.1 2180.9, 2748.0 2048.6 C 2851.9 2060.1, 2997.4 2117.2, 3094.3 2135.5 C 3198.2 2122.5, 3343.7 2034.7, 3440.6 2192.2" fill="none" stroke="url(#ribbon235)" stroke-width="26.4" stroke-linecap="round" stroke-opacity="0.328" /></g><g transform="rotate(-5.93 1536.0 1536.0)"><path d="M-368.6 2267.7 C -273.4 2305.8, -140.1 2216.5, -51.2 2239.4 C 44.0 2234.6, 177.4 2285.4, 266.2 2165.2 C 361.5 2159.1, 494.8 2337.1, 583.7 2153.1 C 678.9 2150.4, 812.2 2334.6, 901.1 2210.5 C 996.4 2203.5, 1129.7 2309.9, 1218.6 2302.7 C 1313.8 2295.2, 1447.1 2239.4, 1536.0 2373.6 C 1631.2 2393.3, 1764.6 2223.7, 1853.4 2380.3 C 1948.7 2379.4, 2082.0 2168.5, 2170.9 2318.7 C 2266.1 2307.0, 2399.4 2244.0, 2488.3 2226.2 C 2583.6 2227.5, 2716.9 2281.5, 2805.8 2158.8 C 2901.0 2178.8, 3034.3 2318.0, 3123.2 2157.6 C 3218.4 2143.1, 3351.8 2317.0, 3440.6 2223.1" fill="none" stroke="url(#ribbon235)" stroke-width="22.4" stroke-linecap="round" stroke-opacity="0.354" /></g><g transform="rotate(-5.35 1536.0 1536.0)"><path d="M-368.6 2473.0 C -225.8 2425.5, -25.8 2496.8, 107.5 2523.1 C 250.4 2532.5, 450.4 2446.5, 583.7 2590.8 C 726.5 2585.9, 926.5 2369.6, 1059.8 2587.1 C 1202.7 2560.2, 1402.7 2370.1, 1536.0 2514.2 C 1678.8 2519.7, 1878.8 2446.1, 2012.2 2416.4 C 2155.0 2421.9, 2355.0 2513.0, 2488.3 2352.9 C 2631.2 2390.4, 2831.2 2534.8, 2964.5 2362.3 C 3107.3 2368.2, 3307.3 2538.0, 3440.6 2438.9" fill="none" stroke="url(#ribbon235)" stroke-width="18.4" stroke-linecap="round" stroke-opacity="0.380" /></g><g transform="rotate(-4.77 1536.0 1536.0)"><path d="M-368.6 2662.5 C -241.7 2534.0, -63.9 2769.2, 54.6 2558.3 C 181.6 2552.8, 359.4 2756.0, 477.9 2649.2 C 604.8 2651.1, 782.6 2672.9, 901.1 2748.2 C 1028.1 2726.7, 1205.9 2629.9, 1324.4 2795.1 C 1451.3 2763.4, 1629.1 2537.1, 1747.6 2761.6 C 1874.6 2740.4, 2052.4 2615.2, 2170.9 2667.9 C 2297.9 2667.2, 2475.6 2657.2, 2594.1 2570.9 C 2721.1 2548.5, 2898.9 2747.3, 3017.4 2529.4 C 3144.4 2566.6, 3322.1 2731.0, 3440.6 2568.6" fill="none" stroke="url(#ribbon235)" stroke-width="14.4" stroke-linecap="round" stroke-opacity="0.406" /></g></g>
  <g><ellipse cx="1536.0" cy="1551.9" rx="728.6" ry="605.7" fill="url(#extrude235)" opacity="0.220" /><ellipse cx="1536.0" cy="1567.7" rx="736.0" ry="610.9" fill="url(#extrude235)" opacity="0.205" /><ellipse cx="1536.0" cy="1583.6" rx="743.4" ry="616.1" fill="url(#extrude235)" opacity="0.190" /><ellipse cx="1536.0" cy="1599.5" rx="750.9" ry="621.3" fill="url(#extrude235)" opacity="0.175" /><ellipse cx="1536.0" cy="1615.4" rx="758.3" ry="626.5" fill="url(#extrude235)" opacity="0.160" /><ellipse cx="1536.0" cy="1631.2" rx="765.7" ry="631.7" fill="url(#extrude235)" opacity="0.145" /><ellipse cx="1536.0" cy="1647.1" rx="773.2" ry="636.9" fill="url(#extrude235)" opacity="0.130" /><ellipse cx="1536.0" cy="1663.0" rx="780.6" ry="642.1" fill="url(#extrude235)" opacity="0.115" /><ellipse cx="1536.0" cy="1678.8" rx="788.0" ry="647.4" fill="url(#extrude235)" opacity="0.100" /><ellipse cx="1536.0" cy="1694.7" rx="795.5" ry="652.6" fill="url(#extrude235)" opacity="0.085" /><ellipse cx="1536.0" cy="1710.6" rx="802.9" ry="657.8" fill="url(#extrude235)" opacity="0.070" /><ellipse cx="1536.0" cy="1726.5" rx="810.3" ry="663.0" fill="url(#extrude235)" opacity="0.055" /></g>
  <ellipse cx="1536.0" cy="1726.5" rx="773.2" ry="214.9" fill="#0B1D2D" opacity="0.24" />
  <ellipse cx="1536.0" cy="1536.0" rx="743.4" ry="651.3" fill="url(#orb235)" stroke="#FFFFFF" stroke-opacity="0.42" stroke-width="7" />
  <ellipse cx="1431.9" cy="1392.7" rx="505.5" ry="299.6" fill="#FFFFFF" opacity="0.25" />
  <path d="M 199.4 399.4 C 1013.8 -30.7, 2058.2 768.0, 2872.6 215.0 L 2872.6 983.0 C 2089.0 1228.8, 1013.8 307.2, 199.4 1167.4 Z" fill="url(#glass235)" />
  <rect x="270" y="270" width="2532" height="2532" rx="430" fill="none" stroke="#FFFFFF" stroke-opacity="0.30" stroke-width="5" />
  <rect x="288.4" y="288.4" width="2495.1" height="2495.1" rx="399" fill="none" stroke="#FF9F43" stroke-opacity="0.35" stroke-width="3" />
  <g filter="url(#soft235)"><rect x="2612" y="1429" width="76" height="2" fill="#FFFFFF" opacity="0.482" /><rect x="2649" y="1392" width="2" height="76" fill="#FFFFFF" opacity="0.482" /><rect x="1410" y="1755" width="40" height="2" fill="#FFFFFF" opacity="0.811" /><rect x="1429" y="1736" width="2" height="40" fill="#FFFFFF" opacity="0.811" /><rect x="2438" y="505" width="42" height="2" fill="#FFFFFF" opacity="0.551" /><rect x="2458" y="485" width="2" height="42" fill="#FFFFFF" opacity="0.551" /><rect x="2749" y="2613" width="56" height="2" fill="#FFFFFF" opacity="0.614" /><rect x="2776" y="2586" width="2" height="56" fill="#FFFFFF" opacity="0.614" /><rect x="1813" y="568" width="64" height="2" fill="#FFFFFF" opacity="0.779" /><rect x="1844" y="537" width="2" height="64" fill="#FFFFFF" opacity="0.779" /><rect x="1494" y="357" width="82" height="2" fill="#FFFFFF" opacity="0.743" /><rect x="1534" y="317" width="2" height="82" fill="#FFFFFF" opacity="0.743" /><rect x="1056" y="839" width="64" height="2" fill="#FFFFFF" opacity="0.424" /><rect x="1087" y="808" width="2" height="64" fill="#FFFFFF" opacity="0.424" /><rect x="1845" y="1063" width="48" height="2" fill="#FFFFFF" opacity="0.455" /><rect x="1868" y="1040" width="2" height="48" fill="#FFFFFF" opacity="0.455" /><rect x="2105" y="2338" width="62" height="2" fill="#FFFFFF" opacity="0.649" /><rect x="2135" y="2308" width="2" height="62" fill="#FFFFFF" opacity="0.649" /><rect x="386" y="2740" width="76" height="2" fill="#FFFFFF" opacity="0.381" /><rect x="423" y="2703" width="2" height="76" fill="#FFFFFF" opacity="0.381" /><rect x="1578" y="2517" width="60" height="2" fill="#FFFFFF" opacity="0.611" /><rect x="1607" y="2488" width="2" height="60" fill="#FFFFFF" opacity="0.611" /><rect x="2687" y="1690" width="38" height="2" fill="#FFFFFF" opacity="0.758" /><rect x="2705" y="1672" width="2" height="38" fill="#FFFFFF" opacity="0.758" /><rect x="1560" y="2016" width="42" height="2" fill="#FFFFFF" opacity="0.318" /><rect x="1580" y="1996" width="2" height="42" fill="#FFFFFF" opacity="0.318" /><rect x="1804" y="919" width="64" height="2" fill="#FFFFFF" opacity="0.385" /><rect x="1835" y="888" width="2" height="64" fill="#FFFFFF" opacity="0.385" /><rect x="354" y="871" width="64" height="2" fill="#FFFFFF" opacity="0.359" /><rect x="385" y="840" width="2" height="64" fill="#FFFFFF" opacity="0.359" /><rect x="2761" y="439" width="62" height="2" fill="#FFFFFF" opacity="0.704" /><rect x="2791" y="409" width="2" height="62" fill="#FFFFFF" opacity="0.704" /><rect x="1165" y="1802" width="56" height="2" fill="#FFFFFF" opacity="0.705" /><rect x="1192" y="1775" width="2" height="56" fill="#FFFFFF" opacity="0.705" /><rect x="1462" y="2212" width="46" height="2" fill="#FFFFFF" opacity="0.701" /><rect x="1484" y="2190" width="2" height="46" fill="#FFFFFF" opacity="0.701" /><rect x="574" y="439" width="52" height="2" fill="#FFFFFF" opacity="0.788" /><rect x="599" y="414" width="2" height="52" fill="#FFFFFF" opacity="0.788" /><rect x="1717" y="2028" width="84" height="2" fill="#FFFFFF" opacity="0.776" /><rect x="1758" y="1987" width="2" height="84" fill="#FFFFFF" opacity="0.776" /><rect x="2540" y="265" width="72" height="2" fill="#FFFFFF" opacity="0.839" /><rect x="2575" y="230" width="2" height="72" fill="#FFFFFF" opacity="0.839" /><rect x="2317" y="1060" width="30" height="2" fill="#FFFFFF" opacity="0.740" /><rect x="2331" y="1046" width="2" height="30" fill="#FFFFFF" opacity="0.740" /><rect x="2305" y="1892" width="34" height="2" fill="#FFFFFF" opacity="0.665" /><rect x="2321" y="1876" width="2" height="34" fill="#FFFFFF" opacity="0.665" /><rect x="1509" y="1838" width="28" height="2" fill="#FFFFFF" opacity="0.728" /><rect x="1522" y="1825" width="2" height="28" fill="#FFFFFF" opacity="0.728" /><rect x="487" y="1950" width="84" height="2" fill="#FFFFFF" opacity="0.782" /><rect x="528" y="1909" width="2" height="84" fill="#FFFFFF" opacity="0.782" /><rect x="2109" y="1224" width="62" height="2" fill="#FFFFFF" opacity="0.643" /><rect x="2139" y="1194" width="2" height="62" fill="#FFFFFF" opacity="0.643" /></g>
  <g opacity="0.52"><circle cx="1572" cy="1582" r="384" fill="none" stroke="#0C2030" stroke-width="90" /><circle cx="1572" cy="1582" r="153" fill="#0C2030" /><line x1="1572" y1="967" x2="1572" y2="1198" stroke="#0C2030" stroke-width="90" /><line x1="1572" y1="2197" x2="1572" y2="1966" stroke="#0C2030" stroke-width="90" /><line x1="957" y1="1582" x2="1188" y2="1582" stroke="#0C2030" stroke-width="90" /><line x1="2187" y1="1582" x2="1956" y2="1582" stroke="#0C2030" stroke-width="90" /></g>
  <g filter="url(#soft235)"><circle cx="1536" cy="1536" r="384" fill="none" stroke="url(#symbol235)" stroke-width="90" /><circle cx="1536" cy="1536" r="153" fill="url(#symbol235)" /><line x1="1536" y1="921" x2="1536" y2="1152" stroke="url(#symbol235)" stroke-width="90" /><line x1="1536" y1="2151" x2="1536" y2="1920" stroke="url(#symbol235)" stroke-width="90" /><line x1="921" y1="1536" x2="1152" y2="1536" stroke="url(#symbol235)" stroke-width="90" /><line x1="2151" y1="1536" x2="1920" y2="1536" stroke="url(#symbol235)" stroke-width="90" /></g>
  <rect x="138" y="138" width="2796" height="2796" rx="629" fill="#FFFFFF" filter="url(#grain235)" opacity="0.18" />
</svg>
