<svg xmlns="http://www.w3.org/2000/svg" width="3072" height="3072" viewBox="0 0 3072 3072">
  <title>QuartzOS App Icon 276 - magnet_browser_276</title>
  <defs><linearGradient id="bg275" x1="0%" y1="0%" x2="100%" y2="100%"><stop offset="0%" stop-color="#8A5CFF" /><stop offset="26%" stop-color="#FF9F43" /><stop offset="56%" stop-color="#53E3A6" /><stop offset="78%" stop-color="#4BA7D0" /><stop offset="100%" stop-color="#122A3D" /></linearGradient><radialGradient id="sun275" cx="24%" cy="19%" r="88%"><stop offset="0%" stop-color="#FFFFFF" stop-opacity="0.62" /><stop offset="30%" stop-color="#36D1FF" stop-opacity="0.35" /><stop offset="100%" stop-color="#36D1FF" stop-opacity="0" /></radialGradient><linearGradient id="glass275" x1="0%" y1="0%" x2="0%" y2="100%"><stop offset="0%" stop-color="#FFFFFF" stop-opacity="0.70" /><stop offset="46%" stop-color="#FFFFFF" stop-opacity="0.26" /><stop offset="100%" stop-color="#FFFFFF" stop-opacity="0.00" /></linearGradient><linearGradient id="ribbon275" x1="0%" y1="0%" x2="100%" y2="0%"><stop offset="0%" stop-color="#8A5CFF" stop-opacity="0.18" /><stop offset="34%" stop-color="#FF9F43" stop-opacity="0.72" /><stop offset="66%" stop-color="#53E3A6" stop-opacity="0.72" /><stop offset="100%" stop-color="#36D1FF" stop-opacity="0.18" /></linearGradient><radialGradient id="orb275" cx="34%" cy="27%" r="74%"><stop offset="0%" stop-color="#FFFFFF" stop-opacity="0.84" /><stop offset="30%" stop-color="#8A5CFF" stop-opacity="0.52" /><stop offset="68%" stop-color="#FF9F43" stop-opacity="0.42" /><stop offset="100%" stop-color="#53E3A6" stop-opacity="0.20" /></radialGradient><linearGradient id="extrude275" x1="0%" y1="0%" x2="0%" y2="100%"><stop offset="0%" stop-color="#15283C" stop-opacity="0.45" /><stop offset="100%" stop-color="#08131D" stop-opacity="0.06" /></linearGradient><linearGradient id="symbol275" x1="0%" y1="0%" x2="100%" y2="100%"><stop offset="0%" stop-color="#FFFFFF" /><stop offset="100%" stop-color="#36D1FF" /></linearGradient><filter id="shadow275" x="-40%" y="-40%" width="180%" height="180%"><feDropShadow dx="0" dy="49" stdDeviation="86" flood-color="#06111A" flood-opacity="0.54" /></filter><filter id="soft275" x="-40%" y="-40%" width="180%" height="180%"><feDropShadow dx="0" dy="0" stdDeviation="14" flood-color="#8A5CFF" flood-opacity="0.45" /></filter><filter id="grain275"><feTurbulence type="fractalNoise" baseFrequency="0.939" numOctaves="2" seed="275" /><feColorMatrix type="saturate" values="0" /><feComponentTransfer><feFuncA type="table" tableValues="0 0.09" /></feComponentTransfer></filter></defs>
  <rect x="138" y="138" width="2796" height="2796" rx="629" fill="url(#bg275)" filter="url(#shadow275)" />
  <rect x="138" y="138" width="2796" height="2796" rx="629" fill="url(#sun275)" />
  <g><circle cx="1176" cy="839" r="92" fill="#FFFFFF" opacity="0.200" /><circle cx="2703" cy="345" r="57" fill="#FFFFFF" opacity="0.081" /><circle cx="1763" cy="2224" r="42" fill="#FFFFFF" opacity="0.070" /><circle cx="899" cy="1409" r="144" fill="#FFFFFF" opacity="0.228" /><circle cx="1983" cy="1059" r="72" fill="#FFFFFF" opacity="0.070" /><circle cx="1250" cy="1360" r="109" fill="#FFFFFF" opacity="0.163" /><circle cx="1401" cy="1545" r="136" fill="#FFFFFF" opacity="0.064" /><circle cx="1844" cy="1427" r="112" fill="#FFFFFF" opacity="0.131" /><circle cx="1112" cy="1258" r="113" fill="#FFFFFF" opacity="0.209" /><circle cx="1724" cy="1759" r="61" fill="#FFFFFF" opacity="0.127" /><circle cx="1317" cy="1972" r="142" fill="#FFFFFF" opacity="0.141" /><circle cx="1171" cy="340" r="127" fill="#FFFFFF" opacity="0.214" /><circle cx="801" cy="2667" r="140" fill="#FFFFFF" opacity="0.154" /><circle cx="1541" cy="446" r="53" fill="#FFFFFF" opacity="0.127" /><circle cx="642" cy="1062" r="86" fill="#FFFFFF" opacity="0.225" /><circle cx="2331" cy="2676" r="116" fill="#FFFFFF" opacity="0.152" /><circle cx="473" cy="1299" r="103" fill="#FFFFFF" opacity="0.130" /><circle cx="2486" cy="725" r="147" fill="#FFFFFF" opacity="0.215" /><circle cx="1314" cy="1407" r="92" fill="#FFFFFF" opacity="0.120" /><circle cx="1253" cy="2466" r="73" fill="#FFFFFF" opacity="0.063" /><circle cx="964" cy="1276" r="132" fill="#FFFFFF" opacity="0.155" /><circle cx="943" cy="2064" r="124" fill="#FFFFFF" opacity="0.175" /><circle cx="627" cy="2403" r="62" fill="#FFFFFF" opacity="0.061" /><circle cx="2248" cy="1360" r="96" fill="#FFFFFF" opacity="0.163" /><circle cx="1757" cy="1795" r="87" fill="#FFFFFF" opacity="0.231" /><circle cx="1455" cy="1447" r="131" fill="#FFFFFF" opacity="0.070" /><circle cx="2473" cy="1594" r="72" fill="#FFFFFF" opacity="0.184" /><circle cx="1230" cy="394" r="55" fill="#FFFFFF" opacity="0.232" /></g>
  <g><path d="M 205.9 575.0 L 2787.9 298.5 L 2787.9 770.5 L 205.9 1047.0 Z" fill="#FFFFFF" opacity="0.212" /><path d="M 295.8 890.8 L 2703.2 614.3 L 2703.2 1038.7 L 295.8 1315.2 Z" fill="#FFFFFF" opacity="0.114" /><path d="M 308.4 1100.3 L 2811.2 823.9 L 2811.2 1276.0 L 308.4 1552.5 Z" fill="#FFFFFF" opacity="0.198" /><path d="M 329.4 1408.9 L 2803.2 1132.4 L 2803.2 1571.5 L 329.4 1847.9 Z" fill="#FFFFFF" opacity="0.202" /><path d="M 308.2 1676.8 L 2772.4 1400.3 L 2772.4 1853.1 L 308.2 2129.5 Z" fill="#FFFFFF" opacity="0.145" /><path d="M 184.6 1875.2 L 2867.5 1598.7 L 2867.5 2080.7 L 184.6 2357.2 Z" fill="#FFFFFF" opacity="0.116" /><path d="M 325.6 2177.0 L 2804.9 1900.6 L 2804.9 2342.1 L 325.6 2618.6 Z" fill="#FFFFFF" opacity="0.085" /><path d="M 244.3 2429.9 L 2788.7 2153.4 L 2788.7 2586.5 L 244.3 2863.0 Z" fill="#FFFFFF" opacity="0.160" /></g>
  <g filter="url(#soft275)"><g transform="rotate(-6.09 1536.0 1536.0)"><path d="M-368.6 581.0 C -225.8 632.9, -25.8 542.3, 107.5 602.0 C 250.4 601.4, 450.4 563.1, 583.7 558.9 C 726.5 563.9, 926.5 606.8, 1059.8 529.3 C 1202.7 521.3, 1402.7 640.5, 1536.0 531.0 C 1678.8 517.7, 1878.8 640.4, 2012.2 563.1 C 2155.0 566.7, 2355.0 592.8, 2488.3 606.0 C 2631.2 606.3, 2831.2 559.2, 2964.5 633.8 C 3107.3 638.7, 3307.3 556.9, 3440.6 629.6" fill="none" stroke="url(#ribbon275)" stroke-width="58.4" stroke-linecap="round" stroke-opacity="0.120" /></g><g transform="rotate(-5.51 1536.0 1536.0)"><path d="M-368.6 665.8 C -241.7 633.0, -63.9 717.5, 54.6 603.4 C 181.6 583.9, 359.4 692.9, 477.9 623.7 C 604.8 622.8, 782.6 699.7, 901.1 669.5 C 1028.1 670.2, 1205.9 664.4, 1324.4 713.0 C 1451.3 696.2, 1629.1 612.6, 1747.6 727.9 C 1874.6 732.6, 2052.4 612.7, 2170.9 705.1 C 2297.9 704.3, 2475.6 641.4, 2594.1 658.5 C 2721.1 658.6, 2898.9 672.1, 3017.4 616.3 C 3144.4 599.4, 3322.1 720.9, 3440.6 604.1" fill="none" stroke="url(#ribbon275)" stroke-width="54.4" stroke-linecap="round" stroke-opacity="0.146" /></g><g transform="rotate(-4.93 1536.0 1536.0)"><path d="M-368.6 902.4 C -254.4 940.6, -94.4 890.7, 12.3 876.3 C 126.6 866.9, 286.6 926.3, 393.2 838.1 C 507.5 854.2, 667.5 953.9, 774.1 838.9 C 888.4 823.8, 1048.4 950.6, 1155.1 878.2 C 1269.4 874.2, 1429.3 927.1, 1536.0 932.2 C 1650.3 931.0, 1810.3 887.2, 1916.9 968.1 C 2031.2 965.2, 2191.2 826.0, 2297.9 964.2 C 2412.1 966.3, 2572.1 868.8, 2678.8 922.8 C 2793.1 914.9, 2953.1 880.2, 3059.7 869.0 C 3174.0 863.5, 3334.0 941.4, 3440.6 835.5" fill="none" stroke="url(#ribbon275)" stroke-width="50.4" stroke-linecap="round" stroke-opacity="0.172" /></g><g transform="rotate(-4.35 1536.0 1536.0)"><path d="M-368.6 1147.9 C -264.8 1200.2, -119.3 1093.6, -22.3 1177.8 C 81.5 1180.9, 227.0 1136.2, 324.0 1118.2 C 427.8 1113.2, 573.3 1164.1, 670.3 1076.6 C 774.1 1099.1, 919.6 1230.1, 1016.6 1078.3 C 1120.4 1056.8, 1265.9 1171.3, 1362.9 1122.1 C 1466.7 1128.3, 1612.2 1163.4, 1709.1 1181.6 C 1813.0 1185.8, 1958.5 1134.9, 2055.4 1220.6 C 2159.3 1237.0, 2304.8 1081.9, 2401.7 1215.5 C 2505.6 1233.0, 2651.1 1118.9, 2748.0 1169.4 C 2851.9 1165.9, 2997.4 1125.8, 3094.3 1110.2 C 3198.2 1098.4, 3343.7 1175.3, 3440.6 1073.9" fill="none" stroke="url(#ribbon275)" stroke-width="46.4" stroke-linecap="round" stroke-opacity="0.198" /></g><g transform="rotate(-3.77 1536.0 1536.0)"><path d="M-368.6 1300.9 C -273.4 1350.2, -140.1 1236.3, -51.2 1301.5 C 44.0 1301.8, 177.4 1300.3, 266.2 1241.4 C 361.5 1220.0, 494.8 1321.7, 583.7 1217.4 C 678.9 1207.9, 812.2 1398.8, 901.1 1244.0 C 996.4 1266.5, 1129.7 1320.9, 1218.6 1305.1 C 1313.8 1303.6, 1447.1 1296.8, 1536.0 1363.7 C 1631.2 1371.4, 1764.6 1266.4, 1853.4 1384.2 C 1948.7 1362.3, 2082.0 1223.9, 2170.9 1354.1 C 2266.1 1360.6, 2399.4 1267.3, 2488.3 1291.8 C 2583.6 1291.9, 2716.9 1311.0, 2805.8 1235.0 C 2901.0 1247.2, 3034.3 1347.8, 3123.2 1218.1 C 3218.4 1202.0, 3351.8 1373.5, 3440.6 1251.5" fill="none" stroke="url(#ribbon275)" stroke-width="42.4" stroke-linecap="round" stroke-opacity="0.224" /></g><g transform="rotate(-3.19 1536.0 1536.0)"><path d="M-368.6 1445.9 C -225.8 1402.8, -25.8 1485.7, 107.5 1440.2 C 250.4 1439.2, 450.4 1451.0, 583.7 1506.8 C 726.5 1522.1, 926.5 1391.0, 1059.8 1536.5 C 1202.7 1514.7, 1402.7 1370.5, 1536.0 1511.2 C 1678.8 1529.0, 1878.8 1404.0, 2012.2 1446.3 C 2155.0 1446.5, 2355.0 1445.7, 2488.3 1381.2 C 2631.2 1379.4, 2831.2 1499.2, 2964.5 1355.3 C 3107.3 1325.3, 3307.3 1548.7, 3440.6 1384.4" fill="none" stroke="url(#ribbon275)" stroke-width="38.4" stroke-linecap="round" stroke-opacity="0.250" /></g><g transform="rotate(-2.61 1536.0 1536.0)"><path d="M-368.6 1731.9 C -241.7 1676.2, -63.9 1835.6, 54.6 1689.6 C 181.6 1700.0, 359.4 1769.4, 477.9 1765.6 C 604.8 1762.0, 782.6 1700.4, 901.1 1821.1 C 1028.1 1855.4, 1205.9 1627.1, 1324.4 1822.6 C 1451.3 1848.9, 1629.1 1624.3, 1747.6 1769.0 C 1874.6 1759.3, 2052.4 1706.3, 2170.9 1692.9 C 2297.9 1698.6, 2475.6 1750.4, 2594.1 1640.5 C 2721.1 1662.4, 2898.9 1819.4, 3017.4 1643.5 C 3144.4 1640.0, 3322.1 1799.7, 3440.6 1700.1" fill="none" stroke="url(#ribbon275)" stroke-width="34.4" stroke-linecap="round" stroke-opacity="0.276" /></g><g transform="rotate(-2.03 1536.0 1536.0)"><path d="M-368.6 1880.9 C -254.4 1798.2, -94.4 1946.6, 12.3 1900.0 C 126.6 1893.2, 286.6 1868.4, 393.2 1968.1 C 507.5 1990.2, 667.5 1796.4, 774.1 1983.3 C 888.4 1949.7, 1048.4 1766.8, 1155.1 1936.4 C 1269.4 1946.2, 1429.3 1814.3, 1536.0 1855.8 C 1650.3 1864.4, 1810.3 1891.2, 1916.9 1790.5 C 2031.2 1774.4, 2191.2 1981.9, 2297.9 1780.0 C 2412.1 1811.0, 2572.1 1994.0, 2678.8 1830.7 C 2793.1 1843.9, 2953.1 1897.9, 3059.7 1911.8 C 3174.0 1900.4, 3334.0 1856.0, 3440.6 1974.3" fill="none" stroke="url(#ribbon275)" stroke-width="30.4" stroke-linecap="round" stroke-opacity="0.302" /></g><g transform="rotate(-1.45 1536.0 1536.0)"><path d="M-368.6 2043.9 C -264.8 1942.8, -119.3 2081.0, -22.3 2016.9 C 81.5 2007.6, 227.0 2073.2, 324.0 2102.9 C 427.8 2113.9, 573.3 1981.7, 670.3 2153.2 C 774.1 2126.8, 919.6 1983.0, 1016.6 2137.1 C 1120.4 2162.7, 1265.9 1957.0, 1362.9 2064.6 C 1466.7 2067.6, 1612.2 2023.1, 1709.1 1979.5 C 1813.0 1990.4, 1958.5 2112.9, 2055.4 1933.5 C 2159.3 1922.1, 2304.8 2092.7, 2401.7 1954.5 C 2505.6 1972.9, 2651.1 2133.5, 2748.0 2029.7 C 2851.9 2032.5, 2997.4 2052.7, 3094.3 2113.6 C 3198.2 2089.5, 3343.7 1967.6, 3440.6 2155.2" fill="none" stroke="url(#ribbon275)" stroke-width="26.4" stroke-linecap="round" stroke-opacity="0.328" /></g><g transform="rotate(-0.87 1536.0 1536.0)"><path d="M-368.6 2208.2 C -273.4 2249.4, -140.1 2193.8, -51.2 2149.6 C 44.0 2139.6, 177.4 2229.9, 266.2 2093.2 C 361.5 2128.3, 494.8 2292.5, 583.7 2106.6 C 678.9 2135.9, 812.2 2249.2, 901.1 2181.6 C 996.4 2175.7, 1129.7 2234.3, 1218.6 2272.8 C 1313.8 2276.6, 1447.1 2141.0, 1536.0 2324.8 C 1631.2 2296.4, 1764.6 2097.4, 1853.4 2306.1 C 1948.7 2328.8, 2082.0 2124.6, 2170.9 2228.1 C 2266.1 2232.6, 2399.4 2197.3, 2488.3 2138.0 C 2583.6 2163.0, 2716.9 2237.6, 2805.8 2090.5 C 2901.0 2105.6, 3034.3 2322.4, 3123.2 2114.4 C 3218.4 2145.0, 3351.8 2271.4, 3440.6 2195.3" fill="none" stroke="url(#ribbon275)" stroke-width="22.4" stroke-linecap="round" stroke-opacity="0.354" /></g><g transform="rotate(-0.29 1536.0 1536.0)"><path d="M-368.6 2435.0 C -225.8 2513.1, -25.8 2387.2, 107.5 2560.9 C 250.4 2512.6, 450.4 2330.4, 583.7 2524.1 C 726.5 2521.8, 926.5 2393.1, 1059.8 2433.3 C 1202.7 2432.7, 1402.7 2436.4, 1536.0 2343.5 C 1678.8 2367.7, 1878.8 2479.3, 2012.2 2309.1 C 2155.0 2275.0, 2355.0 2516.0, 2488.3 2351.2 C 2631.2 2330.6, 2831.2 2527.3, 2964.5 2444.0 C 3107.3 2441.2, 3307.3 2427.2, 3440.6 2531.4" fill="none" stroke="url(#ribbon275)" stroke-width="18.4" stroke-linecap="round" stroke-opacity="0.380" /></g><g transform="rotate(0.29 1536.0 1536.0)"><path d="M-368.6 2695.8 C -241.7 2848.5, -63.9 2570.0, 54.6 2817.7 C 181.6 2837.2, 359.4 2591.1, 477.9 2742.5 C 604.8 2734.7, 782.6 2663.9, 901.1 2639.0 C 1028.1 2650.9, 1205.9 2733.7, 1324.4 2569.9 C 1451.3 2606.4, 1629.1 2832.4, 1747.6 2577.2 C 1874.6 2556.6, 2052.4 2764.2, 2170.9 2656.4 C 2297.9 2671.3, 2475.6 2740.3, 2594.1 2759.5 C 2721.1 2782.9, 2898.9 2661.5, 3017.4 2823.9 C 3144.4 2845.4, 3322.1 2649.0, 3440.6 2810.6" fill="none" stroke="url(#ribbon275)" stroke-width="14.4" stroke-linecap="round" stroke-opacity="0.406" /></g></g>
  <g><ellipse cx="1536.0" cy="1551.9" rx="728.6" ry="605.7" fill="url(#extrude275)" opacity="0.220" /><ellipse cx="1536.0" cy="1567.7" rx="736.0" ry="610.9" fill="url(#extrude275)" opacity="0.205" /><ellipse cx="1536.0" cy="1583.6" rx="743.4" ry="616.1" fill="url(#extrude275)" opacity="0.190" /><ellipse cx="1536.0" cy="1599.5" rx="750.9" ry="621.3" fill="url(#extrude275)" opacity="0.175" /><ellipse cx="1536.0" cy="1615.4" rx="758.3" ry="626.5" fill="url(#extrude275)" opacity="0.160" /><ellipse cx="1536.0" cy="1631.2" rx="765.7" ry="631.7" fill="url(#extrude275)" opacity="0.145" /><ellipse cx="1536.0" cy="1647.1" rx="773.2" ry="636.9" fill="url(#extrude275)" opacity="0.130" /><ellipse cx="1536.0" cy="1663.0" rx="780.6" ry="642.1" fill="url(#extrude275)" opacity="0.115" /><ellipse cx="1536.0" cy="1678.8" rx="788.0" ry="647.4" fill="url(#extrude275)" opacity="0.100" /><ellipse cx="1536.0" cy="1694.7" rx="795.5" ry="652.6" fill="url(#extrude275)" opacity="0.085" /><ellipse cx="1536.0" cy="1710.6" rx="802.9" ry="657.8" fill="url(#extrude275)" opacity="0.070" /><ellipse cx="1536.0" cy="1726.5" rx="810.3" ry="663.0" fill="url(#extrude275)" opacity="0.055" /></g>
  <ellipse cx="1536.0" cy="1726.5" rx="773.2" ry="214.9" fill="#0B1D2D" opacity="0.24" />
  <ellipse cx="1536.0" cy="1536.0" rx="743.4" ry="651.3" fill="url(#orb275)" stroke="#FFFFFF" stroke-opacity="0.42" stroke-width="7" />
  <ellipse cx="1431.9" cy="1392.7" rx="505.5" ry="299.6" fill="#FFFFFF" opacity="0.25" />
  <path d="M 199.4 399.4 C 1013.8 -30.7, 2058.2 768.0, 2872.6 215.0 L 2872.6 983.0 C 2089.0 1228.8, 1013.8 307.2, 199.4 1167.4 Z" fill="url(#glass275)" />
  <rect x="270" y="270" width="2532" height="2532" rx="430" fill="none" stroke="#FFFFFF" stroke-opacity="0.30" stroke-width="5" />
  <rect x="288.4" y="288.4" width="2495.1" height="2495.1" rx="399" fill="none" stroke="#8A5CFF" stroke-opacity="0.35" stroke-width="3" />
  <g filter="url(#soft275)"><rect x="2175" y="752" width="38" height="2" fill="#FFFFFF" opacity="0.367" /><rect x="2193" y="734" width="2" height="38" fill="#FFFFFF" opacity="0.367" /><rect x="824" y="1571" width="82" height="2" fill="#FFFFFF" opacity="0.708" /><rect x="864" y="1531" width="2" height="82" fill="#FFFFFF" opacity="0.708" /><rect x="1361" y="698" width="36" height="2" fill="#FFFFFF" opacity="0.834" /><rect x="1378" y="681" width="2" height="36" fill="#FFFFFF" opacity="0.834" /><rect x="1348" y="1013" width="48" height="2" fill="#FFFFFF" opacity="0.752" /><rect x="1371" y="990" width="2" height="48" fill="#FFFFFF" opacity="0.752" /><rect x="1746" y="2438" width="34" height="2" fill="#FFFFFF" opacity="0.575" /><rect x="1762" y="2422" width="2" height="34" fill="#FFFFFF" opacity="0.575" /><rect x="2611" y="2312" width="70" height="2" fill="#FFFFFF" opacity="0.786" /><rect x="2645" y="2278" width="2" height="70" fill="#FFFFFF" opacity="0.786" /><rect x="2232" y="1706" width="54" height="2" fill="#FFFFFF" opacity="0.443" /><rect x="2258" y="1680" width="2" height="54" fill="#FFFFFF" opacity="0.443" /><rect x="2494" y="2751" width="58" height="2" fill="#FFFFFF" opacity="0.571" /><rect x="2522" y="2723" width="2" height="58" fill="#FFFFFF" opacity="0.571" /><rect x="2605" y="339" width="32" height="2" fill="#FFFFFF" opacity="0.349" /><rect x="2620" y="324" width="2" height="32" fill="#FFFFFF" opacity="0.349" /><rect x="467" y="2382" width="46" height="2" fill="#FFFFFF" opacity="0.777" /><rect x="489" y="2360" width="2" height="46" fill="#FFFFFF" opacity="0.777" /><rect x="2565" y="2645" width="30" height="2" fill="#FFFFFF" opacity="0.396" /><rect x="2579" y="2631" width="2" height="30" fill="#FFFFFF" opacity="0.396" /><rect x="2539" y="2051" width="54" height="2" fill="#FFFFFF" opacity="0.772" /><rect x="2565" y="2025" width="2" height="54" fill="#FFFFFF" opacity="0.772" /><rect x="1125" y="1218" width="34" height="2" fill="#FFFFFF" opacity="0.547" /><rect x="1141" y="1202" width="2" height="34" fill="#FFFFFF" opacity="0.547" /><rect x="1133" y="933" width="48" height="2" fill="#FFFFFF" opacity="0.436" /><rect x="1156" y="910" width="2" height="48" fill="#FFFFFF" opacity="0.436" /><rect x="1063" y="2583" width="34" height="2" fill="#FFFFFF" opacity="0.456" /><rect x="1079" y="2567" width="2" height="34" fill="#FFFFFF" opacity="0.456" /><rect x="378" y="1171" width="62" height="2" fill="#FFFFFF" opacity="0.487" /><rect x="408" y="1141" width="2" height="62" fill="#FFFFFF" opacity="0.487" /><rect x="971" y="1994" width="28" height="2" fill="#FFFFFF" opacity="0.572" /><rect x="984" y="1981" width="2" height="28" fill="#FFFFFF" opacity="0.572" /><rect x="1399" y="1952" width="28" height="2" fill="#FFFFFF" opacity="0.788" /><rect x="1412" y="1939" width="2" height="28" fill="#FFFFFF" opacity="0.788" /><rect x="2577" y="579" width="40" height="2" fill="#FFFFFF" opacity="0.667" /><rect x="2596" y="560" width="2" height="40" fill="#FFFFFF" opacity="0.667" /><rect x="2664" y="671" width="34" height="2" fill="#FFFFFF" opacity="0.473" /><rect x="2680" y="655" width="2" height="34" fill="#FFFFFF" opacity="0.473" /><rect x="615" y="1861" width="76" height="2" fill="#FFFFFF" opacity="0.738" /><rect x="652" y="1824" width="2" height="76" fill="#FFFFFF" opacity="0.738" /><rect x="756" y="1190" width="52" height="2" fill="#FFFFFF" opacity="0.443" /><rect x="781" y="1165" width="2" height="52" fill="#FFFFFF" opacity="0.443" /><rect x="589" y="251" width="24" height="2" fill="#FFFFFF" opacity="0.422" /><rect x="600" y="240" width="2" height="24" fill="#FFFFFF" opacity="0.422" /><rect x="1179" y="1455" width="62" height="2" fill="#FFFFFF" opacity="0.537" /><rect x="1209" y="1425" width="2" height="62" fill="#FFFFFF" opacity="0.537" /><rect x="1190" y="1815" width="44" height="2" fill="#FFFFFF" opacity="0.795" /><rect x="1211" y="1794" width="2" height="44" fill="#FFFFFF" opacity="0.795" /><rect x="1682" y="809" width="40" height="2" fill="#FFFFFF" opacity="0.722" /><rect x="1701" y="790" width="2" height="40" fill="#FFFFFF" opacity="0.722" /></g>
  <g opacity="0.52"><path d="M996 1006 L2148 1006 L2148 2158 L996 2158 Z" fill="none" stroke="#0C2030" stroke-width="90" /><path d="M996 1582 L2148 1582" stroke="#0C2030" stroke-width="90" /><path d="M1572 1006 L1572 2158" stroke="#0C2030" stroke-width="90" /></g>
  <g filter="url(#soft275)"><path d="M960 960 L2112 960 L2112 2112 L960 2112 Z" fill="none" stroke="url(#symbol275)" stroke-width="90" /><path d="M960 1536 L2112 1536" stroke="url(#symbol275)" stroke-width="90" /><path d="M1536 960 L1536 2112" stroke="url(#symbol275)" stroke-width="90" /></g>
  <rect x="138" y="138" width="2796" height="2796" rx="629" fill="#FFFFFF" filter="url(#grain275)" opacity="0.18" />
</svg>
