<svg xmlns="http://www.w3.org/2000/svg" width="3072" height="3072" viewBox="0 0 3072 3072">
  <title>QuartzOS App Icon 256 - magnet_gallery_256</title>
  <defs><linearGradient id="bg255" x1="0%" y1="0%" x2="100%" y2="100%"><stop offset="0%" stop-color="#FF6AB3" /><stop offset="26%" stop-color="#FFD84D" /><stop offset="56%" stop-color="#36D1FF" /><stop offset="78%" stop-color="#6C7CC5" /><stop offset="100%" stop-color="#1E2032" /></linearGradient><radialGradient id="sun255" cx="27%" cy="24%" r="88%"><stop offset="0%" stop-color="#FFFFFF" stop-opacity="0.62" /><stop offset="30%" stop-color="#3B82FF" stop-opacity="0.35" /><stop offset="100%" stop-color="#3B82FF" stop-opacity="0" /></radialGradient><linearGradient id="glass255" x1="0%" y1="0%" x2="0%" y2="100%"><stop offset="0%" stop-color="#FFFFFF" stop-opacity="0.70" /><stop offset="46%" stop-color="#FFFFFF" stop-opacity="0.26" /><stop offset="100%" stop-color="#FFFFFF" stop-opacity="0.00" /></linearGradient><linearGradient id="ribbon255" x1="0%" y1="0%" x2="100%" y2="0%"><stop offset="0%" stop-color="#FF6AB3" stop-opacity="0.18" /><stop offset="34%" stop-color="#FFD84D" stop-opacity="0.72" /><stop offset="66%" stop-color="#36D1FF" stop-opacity="0.72" /><stop offset="100%" stop-color="#3B82FF" stop-opacity="0.18" /></linearGradient><radialGradient id="orb255" cx="34%" cy="27%" r="74%"><stop offset="0%" stop-color="#FFFFFF" stop-opacity="0.84" /><stop offset="30%" stop-color="#FF6AB3" stop-opacity="0.52" /><stop offset="68%" stop-color="#FFD84D" stop-opacity="0.42" /><stop offset="100%" stop-color="#36D1FF" stop-opacity="0.20" /></radialGradient><linearGradient id="extrude255" x1="0%" y1="0%" x2="0%" y2="100%"><stop offset="0%" stop-color="#15283C" stop-opacity="0.45" /><stop offset="100%" stop-color="#08131D" stop-opacity="0.06" /></linearGradient><linearGradient id="symbol255" x1="0%" y1="0%" x2="100%" y2="100%"><stop offset="0%" stop-color="#FFFFFF" /><stop offset="100%" stop-color="#3B82FF" /></linearGradient><filter id="shadow255" x="-40%" y="-40%" width="180%" height="180%"><feDropShadow dx="0" dy="49" stdDeviation="86" flood-color="#06111A" flood-opacity="0.54" /></filter><filter id="soft255" x="-40%" y="-40%" width="180%" height="180%"><feDropShadow dx="0" dy="0" stdDeviation="14" flood-color="#FF6AB3" flood-opacity="0.45" /></filter><filter id="grain255"><feTurbulence type="fractalNoise" baseFrequency="0.853" numOctaves="2" seed="255" /><feColorMatrix type="saturate" values="0" /><feComponentTransfer><feFuncA type="table" tableValues="0 0.09" /></feComponentTransfer></filter></defs>
  <rect x="138" y="138" width="2796" height="2796" rx="629" fill="url(#bg255)" filter="url(#shadow255)" />
  <rect x="138" y="138" width="2796" height="2796" rx="629" fill="url(#sun255)" />
  <g><circle cx="650" cy="764" r="49" fill="#FFFFFF" opacity="0.063" /><circle cx="2516" cy="1206" r="52" fill="#FFFFFF" opacity="0.222" /><circle cx="1367" cy="763" r="101" fill="#FFFFFF" opacity="0.181" /><circle cx="2559" cy="1150" r="66" fill="#FFFFFF" opacity="0.152" /><circle cx="437" cy="603" r="48" fill="#FFFFFF" opacity="0.171" /><circle cx="1686" cy="2112" r="99" fill="#FFFFFF" opacity="0.072" /><circle cx="616" cy="2353" r="50" fill="#FFFFFF" opacity="0.184" /><circle cx="2309" cy="2090" r="62" fill="#FFFFFF" opacity="0.129" /><circle cx="992" cy="360" r="141" fill="#FFFFFF" opacity="0.237" /><circle cx="1390" cy="2407" r="157" fill="#FFFFFF" opacity="0.180" /><circle cx="907" cy="2484" r="125" fill="#FFFFFF" opacity="0.129" /><circle cx="573" cy="1459" r="156" fill="#FFFFFF" opacity="0.215" /><circle cx="1111" cy="2352" r="132" fill="#FFFFFF" opacity="0.095" /><circle cx="1864" cy="1804" r="61" fill="#FFFFFF" opacity="0.066" /><circle cx="2145" cy="899" r="105" fill="#FFFFFF" opacity="0.213" /><circle cx="541" cy="1809" r="77" fill="#FFFFFF" opacity="0.218" /><circle cx="2281" cy="490" r="59" fill="#FFFFFF" opacity="0.176" /><circle cx="971" cy="639" r="121" fill="#FFFFFF" opacity="0.100" /><circle cx="2036" cy="396" r="143" fill="#FFFFFF" opacity="0.163" /><circle cx="1639" cy="2191" r="113" fill="#FFFFFF" opacity="0.176" /><circle cx="1238" cy="803" r="111" fill="#FFFFFF" opacity="0.089" /><circle cx="757" cy="1212" r="56" fill="#FFFFFF" opacity="0.080" /><circle cx="2660" cy="984" r="73" fill="#FFFFFF" opacity="0.144" /><circle cx="1424" cy="1906" r="158" fill="#FFFFFF" opacity="0.187" /><circle cx="1208" cy="1213" r="50" fill="#FFFFFF" opacity="0.064" /><circle cx="2352" cy="1955" r="133" fill="#FFFFFF" opacity="0.135" /><circle cx="689" cy="1234" r="58" fill="#FFFFFF" opacity="0.231" /><circle cx="2154" cy="1846" r="128" fill="#FFFFFF" opacity="0.236" /></g>
  <g><path d="M 369.3 637.6 L 2829.5 361.2 L 2829.5 783.0 L 369.3 1059.5 Z" fill="#FFFFFF" opacity="0.114" /><path d="M 287.1 862.6 L 2872.2 586.1 L 2872.2 1024.2 L 287.1 1300.7 Z" fill="#FFFFFF" opacity="0.194" /><path d="M 149.9 1167.6 L 2746.4 891.1 L 2746.4 1333.8 L 149.9 1610.3 Z" fill="#FFFFFF" opacity="0.184" /><path d="M 374.6 1430.4 L 2886.1 1153.9 L 2886.1 1587.6 L 374.6 1864.0 Z" fill="#FFFFFF" opacity="0.185" /><path d="M 194.4 1648.2 L 2831.4 1371.8 L 2831.4 1858.1 L 194.4 2134.5 Z" fill="#FFFFFF" opacity="0.194" /><path d="M 377.0 1888.4 L 2741.4 1611.9 L 2741.4 2062.4 L 377.0 2338.9 Z" fill="#FFFFFF" opacity="0.090" /><path d="M 203.4 2155.8 L 2794.8 1879.3 L 2794.8 2341.4 L 203.4 2617.9 Z" fill="#FFFFFF" opacity="0.148" /><path d="M 281.8 2479.6 L 2693.2 2203.1 L 2693.2 2658.3 L 281.8 2934.7 Z" fill="#FFFFFF" opacity="0.130" /></g>
  <g filter="url(#soft255)"><g transform="rotate(-23.65 1536.0 1536.0)"><path d="M-368.6 545.6 C -225.8 469.3, -25.8 564.7, 107.5 508.3 C 250.4 504.0, 450.4 559.9, 583.7 548.9 C 726.5 549.1, 926.5 544.6, 1059.8 587.5 C 1202.7 579.9, 1402.7 509.5, 1536.0 600.7 C 1678.8 604.7, 1878.8 492.6, 2012.2 580.5 C 2155.0 579.3, 2355.0 523.0, 2488.3 539.1 C 2631.2 536.8, 2831.2 551.1, 2964.5 501.7 C 3107.3 486.2, 3307.3 579.3, 3440.6 490.9" fill="none" stroke="url(#ribbon255)" stroke-width="58.4" stroke-linecap="round" stroke-opacity="0.120" /></g><g transform="rotate(-23.07 1536.0 1536.0)"><path d="M-368.6 681.6 C -241.7 743.0, -63.9 653.2, 54.6 694.4 C 181.6 689.6, 359.4 666.2, 477.9 646.7 C 604.8 642.2, 782.6 699.6, 901.1 620.2 C 1028.1 630.7, 1205.9 736.1, 1324.4 630.9 C 1451.3 647.1, 1629.1 728.8, 1747.6 672.3 C 1874.6 670.8, 2052.4 689.9, 2170.9 719.4 C 2297.9 726.7, 2475.6 646.0, 2594.1 743.5 C 2721.1 761.1, 2898.9 635.4, 3017.4 730.0 C 3144.4 725.7, 3322.1 647.2, 3440.6 687.2" fill="none" stroke="url(#ribbon255)" stroke-width="54.4" stroke-linecap="round" stroke-opacity="0.146" /></g><g transform="rotate(-22.49 1536.0 1536.0)"><path d="M-368.6 898.1 C -254.4 880.2, -94.4 906.2, 12.3 836.5 C 126.6 841.2, 286.6 943.3, 393.2 832.2 C 507.5 835.5, 667.5 923.9, 774.1 867.8 C 888.4 860.5, 1048.4 932.7, 1155.1 921.8 C 1269.4 925.9, 1429.3 882.9, 1536.0 961.4 C 1650.3 967.2, 1810.3 843.6, 1916.9 962.6 C 2031.2 981.4, 2191.2 855.4, 2297.9 924.6 C 2412.1 920.3, 2572.1 884.3, 2678.8 870.6 C 2793.1 868.1, 2953.1 927.2, 3059.7 833.2 C 3174.0 845.2, 3334.0 958.8, 3440.6 835.2" fill="none" stroke="url(#ribbon255)" stroke-width="50.4" stroke-linecap="round" stroke-opacity="0.172" /></g><g transform="rotate(-21.91 1536.0 1536.0)"><path d="M-368.6 1072.5 C -264.8 1045.8, -119.3 1090.1, -22.3 1109.3 C 81.5 1118.2, 227.0 1046.7, 324.0 1146.2 C 427.8 1127.0, 573.3 1015.3, 670.3 1138.4 C 774.1 1160.2, 919.6 1042.2, 1016.6 1090.6 C 1120.4 1085.1, 1265.9 1051.7, 1362.9 1031.8 C 1466.7 1024.7, 1612.2 1085.3, 1709.1 997.7 C 1813.0 1017.2, 1958.5 1156.0, 2055.4 1008.9 C 2159.3 1023.5, 2304.8 1126.4, 2401.7 1058.7 C 2505.6 1060.2, 2651.1 1086.2, 2748.0 1116.8 C 2851.9 1129.5, 2997.4 1057.9, 3094.3 1148.1 C 3198.2 1130.5, 3343.7 1013.9, 3440.6 1133.5" fill="none" stroke="url(#ribbon255)" stroke-width="46.4" stroke-linecap="round" stroke-opacity="0.198" /></g><g transform="rotate(-21.33 1536.0 1536.0)"><path d="M-368.6 1293.4 C -273.4 1293.9, -140.1 1293.0, -51.2 1233.9 C 44.0 1224.6, 177.4 1343.2, 266.2 1209.9 C 361.5 1213.5, 494.8 1362.8, 583.7 1236.6 C 678.9 1239.8, 812.2 1347.8, 901.1 1297.7 C 996.4 1299.3, 1129.7 1288.5, 1218.6 1356.3 C 1313.8 1340.5, 1447.1 1231.2, 1536.0 1376.7 C 1631.2 1374.2, 1764.6 1248.4, 1853.4 1346.6 C 1948.7 1334.9, 2082.0 1275.5, 2170.9 1284.3 C 2266.1 1282.3, 2399.4 1296.5, 2488.3 1227.5 C 2583.6 1211.8, 2716.9 1325.1, 2805.8 1210.7 C 2901.0 1210.5, 3034.3 1392.0, 3123.2 1244.1 C 3218.4 1263.1, 3351.8 1334.1, 3440.6 1307.4" fill="none" stroke="url(#ribbon255)" stroke-width="42.4" stroke-linecap="round" stroke-opacity="0.224" /></g><g transform="rotate(-20.75 1536.0 1536.0)"><path d="M-368.6 1466.2 C -225.8 1517.0, -25.8 1438.6, 107.5 1555.7 C 250.4 1576.9, 450.4 1396.9, 583.7 1518.4 C 726.5 1502.5, 926.5 1415.3, 1059.8 1449.5 C 1202.7 1454.4, 1402.7 1484.1, 1536.0 1390.6 C 1678.8 1416.0, 1878.8 1517.8, 2012.2 1377.6 C 2155.0 1347.6, 2355.0 1563.5, 2488.3 1418.4 C 2631.2 1411.6, 2831.2 1496.3, 2964.5 1488.1 C 3107.3 1491.6, 3307.3 1457.2, 3440.6 1544.5" fill="none" stroke="url(#ribbon255)" stroke-width="38.4" stroke-linecap="round" stroke-opacity="0.250" /></g><g transform="rotate(-20.17 1536.0 1536.0)"><path d="M-368.6 1695.8 C -241.7 1661.0, -63.9 1710.1, 54.6 1603.0 C 181.6 1568.1, 359.4 1736.3, 477.9 1609.2 C 604.8 1598.5, 782.6 1732.8, 901.1 1667.9 C 1028.1 1657.4, 1205.9 1707.9, 1324.4 1743.5 C 1451.3 1743.8, 1629.1 1663.4, 1747.6 1790.2 C 1874.6 1769.5, 2052.4 1623.3, 2170.9 1779.6 C 2297.9 1750.9, 2475.6 1668.2, 2594.1 1718.1 C 2721.1 1721.3, 2898.9 1684.4, 3017.4 1643.1 C 3144.4 1656.5, 3322.1 1725.6, 3440.6 1600.1" fill="none" stroke="url(#ribbon255)" stroke-width="34.4" stroke-linecap="round" stroke-opacity="0.276" /></g><g transform="rotate(-19.59 1536.0 1536.0)"><path d="M-368.6 1816.7 C -254.4 1699.0, -94.4 1872.0, 12.3 1717.2 C 126.6 1691.0, 286.6 1922.7, 393.2 1770.9 C 507.5 1777.2, 667.5 1867.2, 774.1 1852.4 C 888.4 1843.5, 1048.4 1805.0, 1155.1 1912.2 C 1269.4 1875.5, 1429.3 1763.4, 1536.0 1914.1 C 1650.3 1886.4, 1810.3 1714.5, 1916.9 1856.9 C 2031.2 1845.9, 2191.2 1791.3, 2297.9 1775.3 C 2412.1 1777.3, 2572.1 1864.3, 2678.8 1718.8 C 2793.1 1728.2, 2953.1 1846.6, 3059.7 1721.7 C 3174.0 1721.5, 3334.0 1923.7, 3440.6 1782.2" fill="none" stroke="url(#ribbon255)" stroke-width="30.4" stroke-linecap="round" stroke-opacity="0.302" /></g><g transform="rotate(-19.01 1536.0 1536.0)"><path d="M-368.6 2109.1 C -264.8 2057.6, -119.3 2166.6, -22.3 1999.8 C 81.5 1967.1, 227.0 2177.1, 324.0 2015.8 C 427.8 2048.9, 573.3 2155.2, 670.3 2088.3 C 774.1 2093.5, 919.6 2128.6, 1016.6 2173.4 C 1120.4 2148.0, 1265.9 2082.9, 1362.9 2219.5 C 1466.7 2198.5, 1612.2 2003.0, 1709.1 2198.6 C 1813.0 2227.2, 1958.5 2004.5, 2055.4 2123.4 C 2159.3 2126.7, 2304.8 2097.1, 2401.7 2039.5 C 2505.6 2051.1, 2651.1 2174.6, 2748.0 1997.8 C 2851.9 1974.1, 2997.4 2201.7, 3094.3 2023.6 C 3198.2 2036.7, 3343.7 2180.6, 3440.6 2101.2" fill="none" stroke="url(#ribbon255)" stroke-width="26.4" stroke-linecap="round" stroke-opacity="0.328" /></g><g transform="rotate(-18.43 1536.0 1536.0)"><path d="M-368.6 2289.8 C -273.4 2278.4, -140.1 2294.8, -51.2 2367.1 C 44.0 2384.8, 177.4 2207.9, 266.2 2408.4 C 361.5 2412.3, 494.8 2239.5, 583.7 2377.8 C 678.9 2382.9, 812.2 2216.9, 901.1 2293.7 C 996.4 2292.2, 1129.7 2287.1, 1218.6 2207.3 C 1313.8 2194.9, 1447.1 2315.6, 1536.0 2170.9 C 1631.2 2199.9, 1764.6 2420.2, 1853.4 2206.6 C 1948.7 2196.4, 2082.0 2378.9, 2170.9 2292.8 C 2266.1 2293.1, 2399.4 2288.2, 2488.3 2377.1 C 2583.6 2387.2, 2716.9 2243.3, 2805.8 2408.5 C 2901.0 2373.7, 3034.3 2207.7, 3123.2 2367.8 C 3218.4 2397.8, 3351.8 2218.5, 3440.6 2279.8" fill="none" stroke="url(#ribbon255)" stroke-width="22.4" stroke-linecap="round" stroke-opacity="0.354" /></g><g transform="rotate(-17.85 1536.0 1536.0)"><path d="M-368.6 2452.8 C -225.8 2583.3, -25.8 2398.2, 107.5 2547.9 C 250.4 2583.8, 450.4 2339.1, 583.7 2459.8 C 726.5 2460.0, 926.5 2445.4, 1059.8 2367.5 C 1202.7 2340.1, 1402.7 2551.3, 1536.0 2326.9 C 1678.8 2277.9, 1878.8 2525.6, 2012.2 2362.6 C 2155.0 2389.7, 2355.0 2481.2, 2488.3 2453.1 C 2631.2 2453.0, 2831.2 2452.6, 2964.5 2543.3 C 3107.3 2510.9, 3307.3 2380.5, 3440.6 2578.7" fill="none" stroke="url(#ribbon255)" stroke-width="18.4" stroke-linecap="round" stroke-opacity="0.380" /></g><g transform="rotate(-17.27 1536.0 1536.0)"><path d="M-368.6 2620.9 C -241.7 2513.3, -63.9 2671.4, 54.6 2588.7 C 181.6 2590.4, 359.4 2631.2, 477.9 2691.1 C 604.8 2716.9, 782.6 2561.6, 901.1 2750.9 C 1028.1 2748.4, 1205.9 2518.8, 1324.4 2731.9 C 1451.3 2711.3, 1629.1 2536.4, 1747.6 2645.6 C 1874.6 2636.8, 2052.4 2601.1, 2170.9 2544.4 C 2297.9 2556.1, 2475.6 2661.1, 2594.1 2489.6 C 2721.1 2463.7, 2898.9 2663.1, 3017.4 2514.5 C 3144.4 2522.6, 3322.1 2674.7, 3440.6 2604.0" fill="none" stroke="url(#ribbon255)" stroke-width="14.4" stroke-linecap="round" stroke-opacity="0.406" /></g></g>
  <g><ellipse cx="1536.0" cy="1551.9" rx="728.6" ry="605.7" fill="url(#extrude255)" opacity="0.220" /><ellipse cx="1536.0" cy="1567.7" rx="736.0" ry="610.9" fill="url(#extrude255)" opacity="0.205" /><ellipse cx="1536.0" cy="1583.6" rx="743.4" ry="616.1" fill="url(#extrude255)" opacity="0.190" /><ellipse cx="1536.0" cy="1599.5" rx="750.9" ry="621.3" fill="url(#extrude255)" opacity="0.175" /><ellipse cx="1536.0" cy="1615.4" rx="758.3" ry="626.5" fill="url(#extrude255)" opacity="0.160" /><ellipse cx="1536.0" cy="1631.2" rx="765.7" ry="631.7" fill="url(#extrude255)" opacity="0.145" /><ellipse cx="1536.0" cy="1647.1" rx="773.2" ry="636.9" fill="url(#extrude255)" opacity="0.130" /><ellipse cx="1536.0" cy="1663.0" rx="780.6" ry="642.1" fill="url(#extrude255)" opacity="0.115" /><ellipse cx="1536.0" cy="1678.8" rx="788.0" ry="647.4" fill="url(#extrude255)" opacity="0.100" /><ellipse cx="1536.0" cy="1694.7" rx="795.5" ry="652.6" fill="url(#extrude255)" opacity="0.085" /><ellipse cx="1536.0" cy="1710.6" rx="802.9" ry="657.8" fill="url(#extrude255)" opacity="0.070" /><ellipse cx="1536.0" cy="1726.5" rx="810.3" ry="663.0" fill="url(#extrude255)" opacity="0.055" /></g>
  <ellipse cx="1536.0" cy="1726.5" rx="773.2" ry="214.9" fill="#0B1D2D" opacity="0.24" />
  <ellipse cx="1536.0" cy="1536.0" rx="743.4" ry="651.3" fill="url(#orb255)" stroke="#FFFFFF" stroke-opacity="0.42" stroke-width="7" />
  <ellipse cx="1431.9" cy="1392.7" rx="505.5" ry="299.6" fill="#FFFFFF" opacity="0.25" />
  <path d="M 199.4 399.4 C 1013.8 -30.7, 2058.2 768.0, 2872.6 215.0 L 2872.6 983.0 C 2089.0 1228.8, 1013.8 307.2, 199.4 1167.4 Z" fill="url(#glass255)" />
  <rect x="270" y="270" width="2532" height="2532" rx="430" fill="none" stroke="#FFFFFF" stroke-opacity="0.30" stroke-width="5" />
  <rect x="288.4" y="288.4" width="2495.1" height="2495.1" rx="399" fill="none" stroke="#FF6AB3" stroke-opacity="0.35" stroke-width="3" />
  <g filter="url(#soft255)"><rect x="786" y="301" width="64" height="2" fill="#FFFFFF" opacity="0.670" /><rect x="817" y="270" width="2" height="64" fill="#FFFFFF" opacity="0.670" /><rect x="1192" y="1562" width="34" height="2" fill="#FFFFFF" opacity="0.489" /><rect x="1208" y="1546" width="2" height="34" fill="#FFFFFF" opacity="0.489" /><rect x="1819" y="2678" width="46" height="2" fill="#FFFFFF" opacity="0.807" /><rect x="1841" y="2656" width="2" height="46" fill="#FFFFFF" opacity="0.807" /><rect x="492" y="1779" width="50" height="2" fill="#FFFFFF" opacity="0.310" /><rect x="516" y="1755" width="2" height="50" fill="#FFFFFF" opacity="0.310" /><rect x="1261" y="1961" width="76" height="2" fill="#FFFFFF" opacity="0.843" /><rect x="1298" y="1924" width="2" height="76" fill="#FFFFFF" opacity="0.843" /><rect x="1575" y="1936" width="80" height="2" fill="#FFFFFF" opacity="0.314" /><rect x="1614" y="1897" width="2" height="80" fill="#FFFFFF" opacity="0.314" /><rect x="2041" y="1081" width="60" height="2" fill="#FFFFFF" opacity="0.425" /><rect x="2070" y="1052" width="2" height="60" fill="#FFFFFF" opacity="0.425" /><rect x="1536" y="824" width="40" height="2" fill="#FFFFFF" opacity="0.621" /><rect x="1555" y="805" width="2" height="40" fill="#FFFFFF" opacity="0.621" /><rect x="1237" y="2555" width="68" height="2" fill="#FFFFFF" opacity="0.352" /><rect x="1270" y="2522" width="2" height="68" fill="#FFFFFF" opacity="0.352" /><rect x="1659" y="375" width="58" height="2" fill="#FFFFFF" opacity="0.567" /><rect x="1687" y="347" width="2" height="58" fill="#FFFFFF" opacity="0.567" /><rect x="2204" y="367" width="26" height="2" fill="#FFFFFF" opacity="0.399" /><rect x="2216" y="355" width="2" height="26" fill="#FFFFFF" opacity="0.399" /><rect x="1414" y="456" width="46" height="2" fill="#FFFFFF" opacity="0.602" /><rect x="1436" y="434" width="2" height="46" fill="#FFFFFF" opacity="0.602" /><rect x="1338" y="1599" width="64" height="2" fill="#FFFFFF" opacity="0.610" /><rect x="1369" y="1568" width="2" height="64" fill="#FFFFFF" opacity="0.610" /><rect x="2296" y="740" width="62" height="2" fill="#FFFFFF" opacity="0.506" /><rect x="2326" y="710" width="2" height="62" fill="#FFFFFF" opacity="0.506" /><rect x="598" y="2253" width="36" height="2" fill="#FFFFFF" opacity="0.562" /><rect x="615" y="2236" width="2" height="36" fill="#FFFFFF" opacity="0.562" /><rect x="2051" y="2111" width="62" height="2" fill="#FFFFFF" opacity="0.532" /><rect x="2081" y="2081" width="2" height="62" fill="#FFFFFF" opacity="0.532" /><rect x="2049" y="376" width="58" height="2" fill="#FFFFFF" opacity="0.460" /><rect x="2077" y="348" width="2" height="58" fill="#FFFFFF" opacity="0.460" /><rect x="1440" y="2553" width="80" height="2" fill="#FFFFFF" opacity="0.511" /><rect x="1479" y="2514" width="2" height="80" fill="#FFFFFF" opacity="0.511" /><rect x="542" y="1169" width="42" height="2" fill="#FFFFFF" opacity="0.740" /><rect x="562" y="1149" width="2" height="42" fill="#FFFFFF" opacity="0.740" /><rect x="1251" y="2651" width="68" height="2" fill="#FFFFFF" opacity="0.794" /><rect x="1284" y="2618" width="2" height="68" fill="#FFFFFF" opacity="0.794" /><rect x="1332" y="1458" width="54" height="2" fill="#FFFFFF" opacity="0.753" /><rect x="1358" y="1432" width="2" height="54" fill="#FFFFFF" opacity="0.753" /><rect x="1825" y="529" width="72" height="2" fill="#FFFFFF" opacity="0.601" /><rect x="1860" y="494" width="2" height="72" fill="#FFFFFF" opacity="0.601" /><rect x="384" y="1415" width="32" height="2" fill="#FFFFFF" opacity="0.373" /><rect x="399" y="1400" width="2" height="32" fill="#FFFFFF" opacity="0.373" /><rect x="382" y="1450" width="78" height="2" fill="#FFFFFF" opacity="0.401" /><rect x="420" y="1412" width="2" height="78" fill="#FFFFFF" opacity="0.401" /><rect x="2356" y="681" width="42" height="2" fill="#FFFFFF" opacity="0.665" /><rect x="2376" y="661" width="2" height="42" fill="#FFFFFF" opacity="0.665" /><rect x="990" y="1734" width="78" height="2" fill="#FFFFFF" opacity="0.609" /><rect x="1028" y="1696" width="2" height="78" fill="#FFFFFF" opacity="0.609" /></g>
  <g opacity="0.52"><rect x="1060" y="1070" width="219" height="1024" fill="#0C2030" /><rect x="1316" y="1326" width="219" height="768" fill="#0C2030" /><rect x="1572" y="1198" width="219" height="921" fill="#0C2030" /><rect x="1828" y="1033" width="219" height="1152" fill="#0C2030" /></g>
  <g filter="url(#soft255)"><rect x="1024" y="1024" width="219" height="1024" fill="url(#symbol255)" /><rect x="1280" y="1280" width="219" height="768" fill="url(#symbol255)" /><rect x="1536" y="1152" width="219" height="921" fill="url(#symbol255)" /><rect x="1792" y="987" width="219" height="1152" fill="url(#symbol255)" /></g>
  <rect x="138" y="138" width="2796" height="2796" rx="629" fill="#FFFFFF" filter="url(#grain255)" opacity="0.18" />
</svg>
