<svg xmlns="http://www.w3.org/2000/svg" width="3072" height="3072" viewBox="0 0 3072 3072">
  <title>QuartzOS App Icon 016 - magnet_editor_016</title>
  <defs><linearGradient id="bg15" x1="0%" y1="0%" x2="100%" y2="100%"><stop offset="0%" stop-color="#3B82FF" /><stop offset="26%" stop-color="#FF6AB3" /><stop offset="56%" stop-color="#FFD84D" /><stop offset="78%" stop-color="#6C7CC5" /><stop offset="100%" stop-color="#1E2032" /></linearGradient><radialGradient id="sun15" cx="29%" cy="29%" r="88%"><stop offset="0%" stop-color="#FFFFFF" stop-opacity="0.62" /><stop offset="30%" stop-color="#53E3A6" stop-opacity="0.35" /><stop offset="100%" stop-color="#53E3A6" stop-opacity="0" /></radialGradient><linearGradient id="glass15" x1="0%" y1="0%" x2="0%" y2="100%"><stop offset="0%" stop-color="#FFFFFF" stop-opacity="0.70" /><stop offset="46%" stop-color="#FFFFFF" stop-opacity="0.26" /><stop offset="100%" stop-color="#FFFFFF" stop-opacity="0.00" /></linearGradient><linearGradient id="ribbon15" x1="0%" y1="0%" x2="100%" y2="0%"><stop offset="0%" stop-color="#3B82FF" stop-opacity="0.18" /><stop offset="34%" stop-color="#FF6AB3" stop-opacity="0.72" /><stop offset="66%" stop-color="#FFD84D" stop-opacity="0.72" /><stop offset="100%" stop-color="#53E3A6" stop-opacity="0.18" /></linearGradient><radialGradient id="orb15" cx="34%" cy="27%" r="74%"><stop offset="0%" stop-color="#FFFFFF" stop-opacity="0.84" /><stop offset="30%" stop-color="#3B82FF" stop-opacity="0.52" /><stop offset="68%" stop-color="#FF6AB3" stop-opacity="0.42" /><stop offset="100%" stop-color="#FFD84D" stop-opacity="0.20" /></radialGradient><linearGradient id="extrude15" x1="0%" y1="0%" x2="0%" y2="100%"><stop offset="0%" stop-color="#15283C" stop-opacity="0.45" /><stop offset="100%" stop-color="#08131D" stop-opacity="0.06" /></linearGradient><linearGradient id="symbol15" x1="0%" y1="0%" x2="100%" y2="100%"><stop offset="0%" stop-color="#FFFFFF" /><stop offset="100%" stop-color="#53E3A6" /></linearGradient><filter id="shadow15" x="-40%" y="-40%" width="180%" height="180%"><feDropShadow dx="0" dy="49" stdDeviation="86" flood-color="#06111A" flood-opacity="0.54" /></filter><filter id="soft15" x="-40%" y="-40%" width="180%" height="180%"><feDropShadow dx="0" dy="0" stdDeviation="14" flood-color="#3B82FF" flood-opacity="0.45" /></filter><filter id="grain15"><feTurbulence type="fractalNoise" baseFrequency="0.709" numOctaves="2" seed="15" /><feColorMatrix type="saturate" values="0" /><feComponentTransfer><feFuncA type="table" tableValues="0 0.09" /></feComponentTransfer></filter></defs>
  <rect x="138" y="138" width="2796" height="2796" rx="629" fill="url(#bg15)" filter="url(#shadow15)" />
  <rect x="138" y="138" width="2796" height="2796" rx="629" fill="url(#sun15)" />
  <g><circle cx="991" cy="2307" r="140" fill="#FFFFFF" opacity="0.113" /><circle cx="1603" cy="1149" r="106" fill="#FFFFFF" opacity="0.189" /><circle cx="665" cy="1742" r="53" fill="#FFFFFF" opacity="0.104" /><circle cx="697" cy="1517" r="153" fill="#FFFFFF" opacity="0.232" /><circle cx="1183" cy="1566" r="52" fill="#FFFFFF" opacity="0.182" /><circle cx="1759" cy="2468" r="159" fill="#FFFFFF" opacity="0.095" /><circle cx="412" cy="1642" r="67" fill="#FFFFFF" opacity="0.150" /><circle cx="846" cy="1829" r="52" fill="#FFFFFF" opacity="0.220" /><circle cx="1805" cy="2604" r="149" fill="#FFFFFF" opacity="0.170" /><circle cx="2347" cy="2503" r="113" fill="#FFFFFF" opacity="0.122" /><circle cx="1691" cy="1622" r="113" fill="#FFFFFF" opacity="0.212" /><circle cx="802" cy="2325" r="114" fill="#FFFFFF" opacity="0.132" /><circle cx="1813" cy="1511" r="76" fill="#FFFFFF" opacity="0.236" /><circle cx="1977" cy="2042" r="89" fill="#FFFFFF" opacity="0.105" /><circle cx="410" cy="2011" r="52" fill="#FFFFFF" opacity="0.204" /><circle cx="1471" cy="2660" r="44" fill="#FFFFFF" opacity="0.108" /><circle cx="1543" cy="1999" r="75" fill="#FFFFFF" opacity="0.099" /><circle cx="2576" cy="1744" r="62" fill="#FFFFFF" opacity="0.225" /><circle cx="639" cy="653" r="116" fill="#FFFFFF" opacity="0.142" /><circle cx="1018" cy="643" r="94" fill="#FFFFFF" opacity="0.192" /><circle cx="2273" cy="2368" r="39" fill="#FFFFFF" opacity="0.120" /><circle cx="1940" cy="1092" r="142" fill="#FFFFFF" opacity="0.122" /><circle cx="2503" cy="1440" r="84" fill="#FFFFFF" opacity="0.157" /><circle cx="1432" cy="763" r="121" fill="#FFFFFF" opacity="0.162" /><circle cx="1113" cy="1655" r="41" fill="#FFFFFF" opacity="0.064" /><circle cx="2638" cy="2137" r="125" fill="#FFFFFF" opacity="0.162" /><circle cx="1743" cy="1282" r="57" fill="#FFFFFF" opacity="0.141" /><circle cx="1081" cy="1168" r="114" fill="#FFFFFF" opacity="0.077" /></g>
  <g><path d="M 215.7 642.4 L 2865.6 366.0 L 2865.6 837.8 L 215.7 1114.3 Z" fill="#FFFFFF" opacity="0.208" /><path d="M 356.5 866.0 L 2861.3 589.5 L 2861.3 1027.2 L 356.5 1303.6 Z" fill="#FFFFFF" opacity="0.129" /><path d="M 231.4 1161.6 L 2775.5 885.1 L 2775.5 1366.0 L 231.4 1642.4 Z" fill="#FFFFFF" opacity="0.177" /><path d="M 369.2 1379.6 L 2901.5 1103.1 L 2901.5 1573.9 L 369.2 1850.4 Z" fill="#FFFFFF" opacity="0.156" /><path d="M 371.0 1684.5 L 2772.9 1408.0 L 2772.9 1840.5 L 371.0 2117.0 Z" fill="#FFFFFF" opacity="0.200" /><path d="M 200.0 1942.8 L 2726.5 1666.3 L 2726.5 2112.5 L 200.0 2389.0 Z" fill="#FFFFFF" opacity="0.096" /><path d="M 361.4 2192.5 L 2900.9 1916.0 L 2900.9 2360.1 L 361.4 2636.6 Z" fill="#FFFFFF" opacity="0.184" /><path d="M 151.2 2437.3 L 2864.0 2160.9 L 2864.0 2642.0 L 151.2 2918.5 Z" fill="#FFFFFF" opacity="0.154" /></g>
  <g filter="url(#soft15)"><g transform="rotate(-13.69 1536.0 1536.0)"><path d="M-368.6 469.7 C -225.8 510.9, -25.8 439.0, 107.5 524.4 C 250.4 544.2, 450.4 418.0, 583.7 513.7 C 726.5 505.0, 926.5 434.7, 1059.8 476.3 C 1202.7 478.9, 1402.7 465.8, 1536.0 434.9 C 1678.8 434.3, 1878.8 508.9, 2012.2 414.7 C 2155.0 406.5, 2355.0 498.7, 2488.3 427.8 C 2631.2 430.4, 2831.2 494.7, 2964.5 466.4 C 3107.3 465.2, 3307.3 473.4, 3440.6 507.0" fill="none" stroke="url(#ribbon15)" stroke-width="58.4" stroke-linecap="round" stroke-opacity="0.120" /></g><g transform="rotate(-13.11 1536.0 1536.0)"><path d="M-368.6 664.5 C -241.7 597.9, -63.9 697.3, 54.6 614.1 C 181.6 605.0, 359.4 719.7, 477.9 655.7 C 604.8 655.9, 782.6 670.3, 901.1 702.7 C 1028.1 705.9, 1205.9 619.3, 1324.4 726.5 C 1451.3 719.6, 1629.1 595.4, 1747.6 712.7 C 1874.6 704.6, 2052.4 643.1, 2170.9 669.7 C 2297.9 667.7, 2475.6 661.7, 2594.1 623.6 C 2721.1 617.2, 2898.9 680.3, 3017.4 602.3 C 3144.4 602.8, 3322.1 697.8, 3440.6 618.7" fill="none" stroke="url(#ribbon15)" stroke-width="54.4" stroke-linecap="round" stroke-opacity="0.146" /></g><g transform="rotate(-12.53 1536.0 1536.0)"><path d="M-368.6 904.4 C -254.4 907.4, -94.4 899.3, 12.3 957.6 C 126.6 963.0, 286.6 857.6, 393.2 973.5 C 507.5 994.1, 667.5 870.6, 774.1 947.5 C 888.4 954.5, 1048.4 853.2, 1155.1 895.4 C 1269.4 897.1, 1429.3 910.4, 1536.0 848.8 C 1650.3 847.5, 1810.3 966.3, 1916.9 835.9 C 2031.2 821.8, 2191.2 967.8, 2297.9 864.6 C 2412.1 861.9, 2572.1 951.0, 2678.8 917.4 C 2793.1 912.9, 2953.1 897.5, 3059.7 962.4 C 3174.0 968.1, 3334.0 883.9, 3440.6 972.2" fill="none" stroke="url(#ribbon15)" stroke-width="50.4" stroke-linecap="round" stroke-opacity="0.172" /></g><g transform="rotate(-11.95 1536.0 1536.0)"><path d="M-368.6 1081.4 C -264.8 1175.0, -119.3 1018.4, -22.3 1139.5 C 81.5 1152.1, 227.0 1049.3, 324.0 1086.2 C 427.8 1086.4, 573.3 1078.4, 670.3 1030.0 C 774.1 1015.5, 919.6 1133.9, 1016.6 1004.9 C 1120.4 1021.2, 1265.9 1137.5, 1362.9 1026.2 C 1466.7 1005.8, 1612.2 1116.6, 1709.1 1081.0 C 1813.0 1080.9, 1958.5 1081.8, 2055.4 1136.0 C 2159.3 1131.4, 2304.8 1017.1, 2401.7 1157.8 C 2505.6 1140.4, 2651.1 1033.8, 2748.0 1133.3 C 2851.9 1121.1, 2997.4 1065.2, 3094.3 1077.2 C 3198.2 1075.8, 3343.7 1084.8, 3440.6 1023.7" fill="none" stroke="url(#ribbon15)" stroke-width="46.4" stroke-linecap="round" stroke-opacity="0.198" /></g><g transform="rotate(-11.37 1536.0 1536.0)"><path d="M-368.6 1244.0 C -273.4 1293.1, -140.1 1197.4, -51.2 1224.1 C 44.0 1226.5, 177.4 1251.6, 266.2 1171.9 C 361.5 1172.2, 494.8 1285.5, 583.7 1163.4 C 678.9 1138.2, 812.2 1315.9, 901.1 1203.8 C 996.4 1211.1, 1129.7 1261.1, 1218.6 1268.6 C 1313.8 1266.0, 1447.1 1232.9, 1536.0 1318.4 C 1631.2 1295.7, 1764.6 1185.3, 1853.4 1323.1 C 1948.7 1299.9, 2082.0 1203.2, 2170.9 1279.8 C 2266.1 1269.6, 2399.4 1213.2, 2488.3 1214.8 C 2583.6 1207.3, 2716.9 1277.2, 2805.8 1167.5 C 2901.0 1169.5, 3034.3 1296.1, 3123.2 1166.6 C 3218.4 1177.7, 3351.8 1272.5, 3440.6 1212.6" fill="none" stroke="url(#ribbon15)" stroke-width="42.4" stroke-linecap="round" stroke-opacity="0.224" /></g><g transform="rotate(-10.79 1536.0 1536.0)"><path d="M-368.6 1540.6 C -225.8 1553.7, -25.8 1536.8, 107.5 1612.6 C 250.4 1629.5, 450.4 1474.0, 583.7 1630.2 C 726.5 1646.2, 926.5 1496.1, 1059.8 1593.5 C 1202.7 1586.6, 1402.7 1495.6, 1536.0 1524.7 C 1678.8 1525.2, 1878.8 1550.1, 2012.2 1465.5 C 2155.0 1452.0, 2355.0 1596.1, 2488.3 1451.9 C 2631.2 1455.8, 2831.2 1637.4, 2964.5 1492.1 C 3107.3 1479.3, 3307.3 1561.1, 3440.6 1561.7" fill="none" stroke="url(#ribbon15)" stroke-width="38.4" stroke-linecap="round" stroke-opacity="0.250" /></g><g transform="rotate(-10.21 1536.0 1536.0)"><path d="M-368.6 1650.9 C -241.7 1679.8, -63.9 1601.4, 54.6 1744.1 C 181.6 1712.0, 359.4 1556.3, 477.9 1737.0 C 604.8 1705.3, 782.6 1584.0, 901.1 1677.6 C 1028.1 1675.5, 1205.9 1620.3, 1324.4 1602.1 C 1451.3 1593.9, 1629.1 1687.7, 1747.6 1556.2 C 1874.6 1529.5, 2052.4 1755.3, 2170.9 1567.8 C 2297.9 1566.9, 2475.6 1713.6, 2594.1 1629.8 C 2721.1 1632.3, 2898.9 1675.8, 3017.4 1704.6 C 3144.4 1704.9, 3322.1 1619.7, 3440.6 1746.9" fill="none" stroke="url(#ribbon15)" stroke-width="34.4" stroke-linecap="round" stroke-opacity="0.276" /></g><g transform="rotate(-9.63 1536.0 1536.0)"><path d="M-368.6 1877.7 C -254.4 1975.3, -94.4 1762.7, 12.3 1949.3 C 126.6 1944.3, 286.6 1793.7, 393.2 1872.7 C 507.5 1873.4, 667.5 1879.6, 774.1 1799.2 C 888.4 1798.3, 1048.4 1931.6, 1155.1 1773.3 C 1269.4 1789.0, 1429.3 1986.8, 1536.0 1810.8 C 1650.3 1828.4, 1810.3 1910.7, 1916.9 1888.9 C 2031.2 1885.6, 2191.2 1864.9, 2297.9 1960.2 C 2412.1 1929.3, 2572.1 1851.5, 2678.8 1981.5 C 2793.1 1941.5, 2953.1 1774.2, 3059.7 1939.9 C 3174.0 1936.3, 3334.0 1833.5, 3440.6 1860.6" fill="none" stroke="url(#ribbon15)" stroke-width="30.4" stroke-linecap="round" stroke-opacity="0.302" /></g><g transform="rotate(-9.05 1536.0 1536.0)"><path d="M-368.6 2014.0 C -264.8 2111.1, -119.3 1919.7, -22.3 2100.2 C 81.5 2100.3, 227.0 1964.9, 324.0 2023.0 C 427.8 2024.3, 573.3 2009.3, 670.3 1940.3 C 774.1 1936.4, 919.6 2086.6, 1016.6 1902.4 C 1120.4 1869.4, 1265.9 2146.1, 1362.9 1932.1 C 1466.7 1908.8, 1612.2 2089.9, 1709.1 2011.6 C 1813.0 2012.3, 1958.5 2016.1, 2055.4 2092.5 C 2159.3 2115.3, 2304.8 1973.8, 2401.7 2125.8 C 2505.6 2149.3, 2651.1 1913.4, 2748.0 2091.4 C 2851.9 2081.3, 2997.4 1961.0, 3094.3 2010.0 C 3198.2 2010.4, 3343.7 2018.5, 3440.6 1931.0" fill="none" stroke="url(#ribbon15)" stroke-width="26.4" stroke-linecap="round" stroke-opacity="0.328" /></g><g transform="rotate(-8.47 1536.0 1536.0)"><path d="M-368.6 2206.5 C -273.4 2278.9, -140.1 2089.7, -51.2 2265.8 C 44.0 2263.6, 177.4 2169.2, 266.2 2173.9 C 361.5 2173.7, 494.8 2219.1, 583.7 2101.8 C 678.9 2101.9, 812.2 2274.5, 901.1 2093.2 C 996.4 2113.9, 1129.7 2266.8, 1218.6 2153.4 C 1313.8 2169.2, 1447.1 2262.9, 1536.0 2245.8 C 1631.2 2257.9, 1764.6 2177.5, 1853.4 2314.4 C 1948.7 2310.5, 2082.0 2121.3, 2170.9 2317.6 C 2266.1 2352.8, 2399.4 2153.6, 2488.3 2253.4 C 2583.6 2269.0, 2716.9 2170.2, 2805.8 2160.8 C 2901.0 2163.7, 3034.3 2236.4, 3123.2 2096.0 C 3218.4 2108.3, 3351.8 2324.1, 3440.6 2098.2" fill="none" stroke="url(#ribbon15)" stroke-width="22.4" stroke-linecap="round" stroke-opacity="0.354" /></g><g transform="rotate(-7.89 1536.0 1536.0)"><path d="M-368.6 2396.2 C -225.8 2293.8, -25.8 2445.1, 107.5 2327.9 C 250.4 2330.7, 450.4 2443.7, 583.7 2424.5 C 726.5 2424.7, 926.5 2367.5, 1059.8 2504.0 C 1202.7 2524.4, 1402.7 2332.5, 1536.0 2518.1 C 1678.8 2565.1, 1878.8 2275.3, 2012.2 2458.3 C 2155.0 2440.9, 2355.0 2374.2, 2488.3 2360.8 C 2631.2 2356.7, 2831.2 2421.0, 2964.5 2284.9 C 3107.3 2305.0, 3307.3 2498.6, 3440.6 2276.4" fill="none" stroke="url(#ribbon15)" stroke-width="18.4" stroke-linecap="round" stroke-opacity="0.380" /></g><g transform="rotate(-7.31 1536.0 1536.0)"><path d="M-368.6 2639.7 C -241.7 2616.0, -63.9 2653.6, 54.6 2529.6 C 181.6 2514.0, 359.4 2710.5, 477.9 2509.4 C 604.8 2528.8, 782.6 2681.1, 901.1 2568.3 C 1028.1 2590.7, 1205.9 2682.1, 1324.4 2670.5 C 1451.3 2682.2, 1629.1 2628.4, 1747.6 2754.0 C 1874.6 2744.6, 2052.4 2555.3, 2170.9 2768.1 C 2297.9 2734.8, 2475.6 2509.8, 2594.1 2704.4 C 2721.1 2694.6, 2898.9 2563.3, 3017.4 2601.4 C 3144.4 2605.5, 3322.1 2662.9, 3440.6 2521.6" fill="none" stroke="url(#ribbon15)" stroke-width="14.4" stroke-linecap="round" stroke-opacity="0.406" /></g></g>
  <g><ellipse cx="1536.0" cy="1551.9" rx="728.6" ry="605.7" fill="url(#extrude15)" opacity="0.220" /><ellipse cx="1536.0" cy="1567.7" rx="736.0" ry="610.9" fill="url(#extrude15)" opacity="0.205" /><ellipse cx="1536.0" cy="1583.6" rx="743.4" ry="616.1" fill="url(#extrude15)" opacity="0.190" /><ellipse cx="1536.0" cy="1599.5" rx="750.9" ry="621.3" fill="url(#extrude15)" opacity="0.175" /><ellipse cx="1536.0" cy="1615.4" rx="758.3" ry="626.5" fill="url(#extrude15)" opacity="0.160" /><ellipse cx="1536.0" cy="1631.2" rx="765.7" ry="631.7" fill="url(#extrude15)" opacity="0.145" /><ellipse cx="1536.0" cy="1647.1" rx="773.2" ry="636.9" fill="url(#extrude15)" opacity="0.130" /><ellipse cx="1536.0" cy="1663.0" rx="780.6" ry="642.1" fill="url(#extrude15)" opacity="0.115" /><ellipse cx="1536.0" cy="1678.8" rx="788.0" ry="647.4" fill="url(#extrude15)" opacity="0.100" /><ellipse cx="1536.0" cy="1694.7" rx="795.5" ry="652.6" fill="url(#extrude15)" opacity="0.085" /><ellipse cx="1536.0" cy="1710.6" rx="802.9" ry="657.8" fill="url(#extrude15)" opacity="0.070" /><ellipse cx="1536.0" cy="1726.5" rx="810.3" ry="663.0" fill="url(#extrude15)" opacity="0.055" /></g>
  <ellipse cx="1536.0" cy="1726.5" rx="773.2" ry="214.9" fill="#0B1D2D" opacity="0.24" />
  <ellipse cx="1536.0" cy="1536.0" rx="743.4" ry="651.3" fill="url(#orb15)" stroke="#FFFFFF" stroke-opacity="0.42" stroke-width="7" />
  <ellipse cx="1431.9" cy="1392.7" rx="505.5" ry="299.6" fill="#FFFFFF" opacity="0.25" />
  <path d="M 199.4 399.4 C 1013.8 -30.7, 2058.2 768.0, 2872.6 215.0 L 2872.6 983.0 C 2089.0 1228.8, 1013.8 307.2, 199.4 1167.4 Z" fill="url(#glass15)" />
  <rect x="270" y="270" width="2532" height="2532" rx="430" fill="none" stroke="#FFFFFF" stroke-opacity="0.30" stroke-width="5" />
  <rect x="288.4" y="288.4" width="2495.1" height="2495.1" rx="399" fill="none" stroke="#3B82FF" stroke-opacity="0.35" stroke-width="3" />
  <g filter="url(#soft15)"><rect x="1097" y="1592" width="50" height="2" fill="#FFFFFF" opacity="0.381" /><rect x="1121" y="1568" width="2" height="50" fill="#FFFFFF" opacity="0.381" /><rect x="1552" y="2525" width="68" height="2" fill="#FFFFFF" opacity="0.374" /><rect x="1585" y="2492" width="2" height="68" fill="#FFFFFF" opacity="0.374" /><rect x="1707" y="1709" width="30" height="2" fill="#FFFFFF" opacity="0.619" /><rect x="1721" y="1695" width="2" height="30" fill="#FFFFFF" opacity="0.619" /><rect x="586" y="2005" width="56" height="2" fill="#FFFFFF" opacity="0.585" /><rect x="613" y="1978" width="2" height="56" fill="#FFFFFF" opacity="0.585" /><rect x="2167" y="714" width="54" height="2" fill="#FFFFFF" opacity="0.796" /><rect x="2193" y="688" width="2" height="54" fill="#FFFFFF" opacity="0.796" /><rect x="850" y="1472" width="48" height="2" fill="#FFFFFF" opacity="0.835" /><rect x="873" y="1449" width="2" height="48" fill="#FFFFFF" opacity="0.835" /><rect x="428" y="1343" width="46" height="2" fill="#FFFFFF" opacity="0.595" /><rect x="450" y="1321" width="2" height="46" fill="#FFFFFF" opacity="0.595" /><rect x="1093" y="539" width="54" height="2" fill="#FFFFFF" opacity="0.360" /><rect x="1119" y="513" width="2" height="54" fill="#FFFFFF" opacity="0.360" /><rect x="935" y="2209" width="26" height="2" fill="#FFFFFF" opacity="0.369" /><rect x="947" y="2197" width="2" height="26" fill="#FFFFFF" opacity="0.369" /><rect x="775" y="614" width="58" height="2" fill="#FFFFFF" opacity="0.670" /><rect x="803" y="586" width="2" height="58" fill="#FFFFFF" opacity="0.670" /><rect x="2376" y="1961" width="66" height="2" fill="#FFFFFF" opacity="0.543" /><rect x="2408" y="1929" width="2" height="66" fill="#FFFFFF" opacity="0.543" /><rect x="2352" y="1895" width="36" height="2" fill="#FFFFFF" opacity="0.776" /><rect x="2369" y="1878" width="2" height="36" fill="#FFFFFF" opacity="0.776" /><rect x="798" y="452" width="50" height="2" fill="#FFFFFF" opacity="0.641" /><rect x="822" y="428" width="2" height="50" fill="#FFFFFF" opacity="0.641" /><rect x="1084" y="2410" width="32" height="2" fill="#FFFFFF" opacity="0.839" /><rect x="1099" y="2395" width="2" height="32" fill="#FFFFFF" opacity="0.839" /><rect x="2635" y="1951" width="74" height="2" fill="#FFFFFF" opacity="0.681" /><rect x="2671" y="1915" width="2" height="74" fill="#FFFFFF" opacity="0.681" /><rect x="281" y="1622" width="62" height="2" fill="#FFFFFF" opacity="0.493" /><rect x="311" y="1592" width="2" height="62" fill="#FFFFFF" opacity="0.493" /><rect x="519" y="248" width="36" height="2" fill="#FFFFFF" opacity="0.549" /><rect x="536" y="231" width="2" height="36" fill="#FFFFFF" opacity="0.549" /><rect x="1492" y="1048" width="72" height="2" fill="#FFFFFF" opacity="0.636" /><rect x="1527" y="1013" width="2" height="72" fill="#FFFFFF" opacity="0.636" /><rect x="1736" y="1075" width="30" height="2" fill="#FFFFFF" opacity="0.636" /><rect x="1750" y="1061" width="2" height="30" fill="#FFFFFF" opacity="0.636" /><rect x="2330" y="1876" width="40" height="2" fill="#FFFFFF" opacity="0.446" /><rect x="2349" y="1857" width="2" height="40" fill="#FFFFFF" opacity="0.446" /><rect x="1765" y="1234" width="72" height="2" fill="#FFFFFF" opacity="0.454" /><rect x="1800" y="1199" width="2" height="72" fill="#FFFFFF" opacity="0.454" /><rect x="2026" y="2122" width="58" height="2" fill="#FFFFFF" opacity="0.615" /><rect x="2054" y="2094" width="2" height="58" fill="#FFFFFF" opacity="0.615" /><rect x="667" y="2509" width="80" height="2" fill="#FFFFFF" opacity="0.718" /><rect x="706" y="2470" width="2" height="80" fill="#FFFFFF" opacity="0.718" /><rect x="2271" y="866" width="76" height="2" fill="#FFFFFF" opacity="0.711" /><rect x="2308" y="829" width="2" height="76" fill="#FFFFFF" opacity="0.711" /><rect x="1909" y="2450" width="26" height="2" fill="#FFFFFF" opacity="0.657" /><rect x="1921" y="2438" width="2" height="26" fill="#FFFFFF" opacity="0.657" /><rect x="456" y="2010" width="52" height="2" fill="#FFFFFF" opacity="0.557" /><rect x="481" y="1985" width="2" height="52" fill="#FFFFFF" opacity="0.557" /></g>
  <g opacity="0.52"><rect x="1060" y="1070" width="219" height="1024" fill="#0C2030" /><rect x="1316" y="1326" width="219" height="768" fill="#0C2030" /><rect x="1572" y="1198" width="219" height="921" fill="#0C2030" /><rect x="1828" y="1033" width="219" height="1152" fill="#0C2030" /></g>
  <g filter="url(#soft15)"><rect x="1024" y="1024" width="219" height="1024" fill="url(#symbol15)" /><rect x="1280" y="1280" width="219" height="768" fill="url(#symbol15)" /><rect x="1536" y="1152" width="219" height="921" fill="url(#symbol15)" /><rect x="1792" y="987" width="219" height="1152" fill="url(#symbol15)" /></g>
  <rect x="138" y="138" width="2796" height="2796" rx="629" fill="#FFFFFF" filter="url(#grain15)" opacity="0.18" />
</svg>
