<svg xmlns="http://www.w3.org/2000/svg" width="3072" height="3072" viewBox="0 0 3072 3072">
  <title>QuartzOS App Icon 093 - neon_mail_093</title>
  <defs><linearGradient id="bg92" x1="0%" y1="0%" x2="100%" y2="100%"><stop offset="0%" stop-color="#3B82FF" /><stop offset="26%" stop-color="#FF6AB3" /><stop offset="56%" stop-color="#FFD84D" /><stop offset="78%" stop-color="#3C8FC1" /><stop offset="100%" stop-color="#1E2E3A" /></linearGradient><radialGradient id="sun92" cx="30%" cy="38%" r="88%"><stop offset="0%" stop-color="#FFFFFF" stop-opacity="0.62" /><stop offset="30%" stop-color="#53E3A6" stop-opacity="0.35" /><stop offset="100%" stop-color="#53E3A6" stop-opacity="0" /></radialGradient><linearGradient id="glass92" x1="0%" y1="0%" x2="0%" y2="100%"><stop offset="0%" stop-color="#FFFFFF" stop-opacity="0.70" /><stop offset="46%" stop-color="#FFFFFF" stop-opacity="0.26" /><stop offset="100%" stop-color="#FFFFFF" stop-opacity="0.00" /></linearGradient><linearGradient id="ribbon92" x1="0%" y1="0%" x2="100%" y2="0%"><stop offset="0%" stop-color="#3B82FF" stop-opacity="0.18" /><stop offset="34%" stop-color="#FF6AB3" stop-opacity="0.72" /><stop offset="66%" stop-color="#FFD84D" stop-opacity="0.72" /><stop offset="100%" stop-color="#53E3A6" stop-opacity="0.18" /></linearGradient><radialGradient id="orb92" cx="34%" cy="27%" r="74%"><stop offset="0%" stop-color="#FFFFFF" stop-opacity="0.84" /><stop offset="30%" stop-color="#3B82FF" stop-opacity="0.52" /><stop offset="68%" stop-color="#FF6AB3" stop-opacity="0.42" /><stop offset="100%" stop-color="#FFD84D" stop-opacity="0.20" /></radialGradient><linearGradient id="extrude92" x1="0%" y1="0%" x2="0%" y2="100%"><stop offset="0%" stop-color="#15283C" stop-opacity="0.45" /><stop offset="100%" stop-color="#08131D" stop-opacity="0.06" /></linearGradient><linearGradient id="symbol92" x1="0%" y1="0%" x2="100%" y2="100%"><stop offset="0%" stop-color="#FFFFFF" /><stop offset="100%" stop-color="#53E3A6" /></linearGradient><filter id="shadow92" x="-40%" y="-40%" width="180%" height="180%"><feDropShadow dx="0" dy="49" stdDeviation="86" flood-color="#06111A" flood-opacity="0.54" /></filter><filter id="soft92" x="-40%" y="-40%" width="180%" height="180%"><feDropShadow dx="0" dy="0" stdDeviation="14" flood-color="#3B82FF" flood-opacity="0.45" /></filter><filter id="grain92"><feTurbulence type="fractalNoise" baseFrequency="0.793" numOctaves="2" seed="92" /><feColorMatrix type="saturate" values="0" /><feComponentTransfer><feFuncA type="table" tableValues="0 0.09" /></feComponentTransfer></filter></defs>
  <rect x="138" y="138" width="2796" height="2796" rx="629" fill="url(#bg92)" filter="url(#shadow92)" />
  <rect x="138" y="138" width="2796" height="2796" rx="629" fill="url(#sun92)" />
  <g><circle cx="383" cy="687" r="157" fill="#FFFFFF" opacity="0.159" /><circle cx="1741" cy="932" r="69" fill="#FFFFFF" opacity="0.067" /><circle cx="1099" cy="1532" r="143" fill="#FFFFFF" opacity="0.236" /><circle cx="479" cy="1992" r="118" fill="#FFFFFF" opacity="0.238" /><circle cx="432" cy="322" r="108" fill="#FFFFFF" opacity="0.093" /><circle cx="2624" cy="1312" r="130" fill="#FFFFFF" opacity="0.125" /><circle cx="534" cy="1793" r="69" fill="#FFFFFF" opacity="0.081" /><circle cx="1525" cy="2490" r="113" fill="#FFFFFF" opacity="0.162" /><circle cx="2667" cy="828" r="104" fill="#FFFFFF" opacity="0.211" /><circle cx="2081" cy="1131" r="90" fill="#FFFFFF" opacity="0.176" /><circle cx="2062" cy="2544" r="108" fill="#FFFFFF" opacity="0.150" /><circle cx="502" cy="2324" r="70" fill="#FFFFFF" opacity="0.139" /><circle cx="440" cy="2400" r="44" fill="#FFFFFF" opacity="0.103" /><circle cx="399" cy="515" r="155" fill="#FFFFFF" opacity="0.169" /><circle cx="1162" cy="595" r="84" fill="#FFFFFF" opacity="0.200" /><circle cx="2174" cy="878" r="159" fill="#FFFFFF" opacity="0.136" /><circle cx="1025" cy="449" r="140" fill="#FFFFFF" opacity="0.227" /><circle cx="728" cy="689" r="95" fill="#FFFFFF" opacity="0.128" /><circle cx="2054" cy="334" r="140" fill="#FFFFFF" opacity="0.210" /><circle cx="820" cy="2603" r="59" fill="#FFFFFF" opacity="0.177" /><circle cx="1248" cy="736" r="68" fill="#FFFFFF" opacity="0.074" /><circle cx="1061" cy="2326" r="114" fill="#FFFFFF" opacity="0.114" /><circle cx="2666" cy="2487" r="132" fill="#FFFFFF" opacity="0.166" /><circle cx="2561" cy="989" r="69" fill="#FFFFFF" opacity="0.128" /><circle cx="468" cy="942" r="80" fill="#FFFFFF" opacity="0.119" /><circle cx="2549" cy="1506" r="116" fill="#FFFFFF" opacity="0.193" /><circle cx="621" cy="2479" r="124" fill="#FFFFFF" opacity="0.211" /><circle cx="985" cy="884" r="132" fill="#FFFFFF" opacity="0.202" /></g>
  <g><path d="M 219.2 628.8 L 2904.9 352.3 L 2904.9 815.3 L 219.2 1091.7 Z" fill="#FFFFFF" opacity="0.156" /><path d="M 245.2 911.8 L 2902.7 635.3 L 2902.7 1093.5 L 245.2 1370.0 Z" fill="#FFFFFF" opacity="0.110" /><path d="M 153.7 1181.2 L 2831.6 904.7 L 2831.6 1394.6 L 153.7 1671.0 Z" fill="#FFFFFF" opacity="0.150" /><path d="M 345.0 1427.4 L 2800.4 1150.9 L 2800.4 1614.5 L 345.0 1891.0 Z" fill="#FFFFFF" opacity="0.201" /><path d="M 267.4 1686.5 L 2792.3 1410.0 L 2792.3 1881.4 L 267.4 2157.8 Z" fill="#FFFFFF" opacity="0.173" /><path d="M 332.0 1907.2 L 2702.7 1630.7 L 2702.7 2065.9 L 332.0 2342.4 Z" fill="#FFFFFF" opacity="0.193" /><path d="M 386.0 2153.6 L 2888.4 1877.1 L 2888.4 2347.9 L 386.0 2624.4 Z" fill="#FFFFFF" opacity="0.208" /><path d="M 353.1 2466.5 L 2869.9 2190.0 L 2869.9 2621.5 L 353.1 2898.0 Z" fill="#FFFFFF" opacity="0.136" /></g>
  <g filter="url(#soft92)"><g transform="rotate(-18.08 1536.0 1536.0)"><path d="M-368.6 552.0 C -225.8 576.7, -25.8 527.0, 107.5 606.3 C 250.4 618.0, 450.4 520.6, 583.7 597.4 C 726.5 583.1, 926.5 518.1, 1059.8 561.0 C 1202.7 560.9, 1402.7 549.1, 1536.0 519.2 C 1678.8 528.8, 1878.8 565.3, 2012.2 497.2 C 2155.0 493.9, 2355.0 603.1, 2488.3 508.5 C 2631.2 506.3, 2831.2 593.6, 2964.5 546.2 C 3107.3 545.3, 3307.3 554.0, 3440.6 587.4" fill="none" stroke="url(#ribbon92)" stroke-width="58.4" stroke-linecap="round" stroke-opacity="0.120" /></g><g transform="rotate(-17.50 1536.0 1536.0)"><path d="M-368.6 763.8 C -241.7 800.7, -63.9 732.9, 54.6 825.7 C 181.6 814.5, 359.4 726.6, 477.9 801.4 C 604.8 810.9, 782.6 729.5, 901.1 754.3 C 1028.1 750.9, 1205.9 769.5, 1324.4 713.0 C 1451.3 718.9, 1629.1 784.4, 1747.6 702.5 C 1874.6 726.9, 2052.4 817.4, 2170.9 729.2 C 2297.9 717.5, 2475.6 795.7, 2594.1 777.0 C 2721.1 773.9, 2898.9 751.0, 3017.4 816.7 C 3144.4 812.3, 3322.1 728.0, 3440.6 824.4" fill="none" stroke="url(#ribbon92)" stroke-width="54.4" stroke-linecap="round" stroke-opacity="0.146" /></g><g transform="rotate(-16.92 1536.0 1536.0)"><path d="M-368.6 912.6 C -254.4 931.4, -94.4 897.0, 12.3 888.2 C 126.6 886.6, 286.6 939.5, 393.2 848.9 C 507.5 847.0, 667.5 956.1, 774.1 848.3 C 888.4 860.2, 1048.4 933.3, 1155.1 886.7 C 1269.4 880.4, 1429.3 924.9, 1536.0 940.7 C 1650.3 934.1, 1810.3 897.3, 1916.9 977.7 C 2031.2 971.9, 2191.2 836.2, 2297.9 975.2 C 2412.1 986.2, 2572.1 844.9, 2678.8 934.7 C 2793.1 932.1, 2953.1 899.0, 3059.7 880.8 C 3174.0 878.8, 3334.0 937.0, 3440.6 846.1" fill="none" stroke="url(#ribbon92)" stroke-width="50.4" stroke-linecap="round" stroke-opacity="0.172" /></g><g transform="rotate(-16.34 1536.0 1536.0)"><path d="M-368.6 1142.1 C -264.8 1066.2, -119.3 1203.8, -22.3 1068.5 C 81.5 1058.6, 227.0 1223.1, 324.0 1105.8 C 427.8 1108.2, 573.3 1158.0, 670.3 1165.1 C 774.1 1158.1, 919.6 1133.6, 1016.6 1210.5 C 1120.4 1201.5, 1265.9 1102.1, 1362.9 1214.4 C 1466.7 1189.8, 1612.2 1069.3, 1709.1 1174.5 C 1813.0 1172.3, 1958.5 1109.8, 2055.4 1115.0 C 2159.3 1115.4, 2304.8 1173.4, 2401.7 1071.9 C 2505.6 1094.9, 2651.1 1216.5, 2748.0 1071.5 C 2851.9 1090.8, 2997.4 1183.5, 3094.3 1113.9 C 3198.2 1108.7, 3343.7 1175.2, 3440.6 1173.4" fill="none" stroke="url(#ribbon92)" stroke-width="46.4" stroke-linecap="round" stroke-opacity="0.198" /></g><g transform="rotate(-15.76 1536.0 1536.0)"><path d="M-368.6 1330.7 C -273.4 1357.7, -140.1 1303.3, -51.2 1298.1 C 44.0 1286.0, 177.4 1358.6, 266.2 1252.8 C 361.5 1263.0, 494.8 1398.6, 583.7 1254.8 C 678.9 1243.1, 812.2 1389.2, 901.1 1302.8 C 996.4 1298.9, 1129.7 1353.0, 1218.6 1367.8 C 1313.8 1367.6, 1447.1 1309.3, 1536.0 1410.3 C 1631.2 1390.6, 1764.6 1236.1, 1853.4 1404.5 C 1948.7 1381.2, 2082.0 1283.6, 2170.9 1354.0 C 2266.1 1358.4, 2399.4 1318.3, 2488.3 1289.4 C 2583.6 1287.9, 2716.9 1350.7, 2805.8 1249.8 C 2901.0 1271.5, 3034.3 1358.8, 3123.2 1259.4 C 3218.4 1240.0, 3351.8 1406.6, 3440.6 1312.2" fill="none" stroke="url(#ribbon92)" stroke-width="42.4" stroke-linecap="round" stroke-opacity="0.224" /></g><g transform="rotate(-15.18 1536.0 1536.0)"><path d="M-368.6 1524.7 C -225.8 1567.9, -25.8 1513.1, 107.5 1488.5 C 250.4 1478.5, 450.4 1559.8, 583.7 1439.9 C 726.5 1426.4, 926.5 1625.4, 1059.8 1442.6 C 1202.7 1416.0, 1402.7 1555.8, 1536.0 1495.2 C 1678.8 1497.5, 1878.8 1541.4, 2012.2 1565.6 C 2155.0 1552.7, 2355.0 1493.0, 2488.3 1611.2 C 2631.2 1633.4, 2831.2 1448.3, 2964.5 1604.3 C 3107.3 1617.9, 3307.3 1490.1, 3440.6 1549.1" fill="none" stroke="url(#ribbon92)" stroke-width="38.4" stroke-linecap="round" stroke-opacity="0.250" /></g><g transform="rotate(-14.60 1536.0 1536.0)"><path d="M-368.6 1682.6 C -241.7 1734.8, -63.9 1639.8, 54.6 1778.0 C 181.6 1766.0, 359.4 1641.5, 477.9 1764.1 C 604.8 1789.5, 782.6 1603.9, 901.1 1700.8 C 1028.1 1700.8, 1205.9 1675.8, 1324.4 1626.4 C 1451.3 1623.5, 1629.1 1732.5, 1747.6 1586.1 C 1874.6 1595.7, 2052.4 1796.2, 2170.9 1604.4 C 2297.9 1601.0, 2475.6 1773.8, 2594.1 1670.1 C 2721.1 1670.9, 2898.9 1692.1, 3017.4 1743.4 C 3144.4 1750.8, 3322.1 1650.2, 3440.6 1779.8" fill="none" stroke="url(#ribbon92)" stroke-width="34.4" stroke-linecap="round" stroke-opacity="0.276" /></g><g transform="rotate(-14.02 1536.0 1536.0)"><path d="M-368.6 1852.9 C -254.4 1796.1, -94.4 1883.9, 12.3 1749.8 C 126.6 1749.3, 286.6 1905.8, 393.2 1767.8 C 507.5 1736.2, 667.5 1931.7, 774.1 1837.4 C 888.4 1838.9, 1048.4 1861.3, 1155.1 1916.4 C 1269.4 1940.8, 1429.3 1815.0, 1536.0 1956.9 C 1650.3 1943.0, 1810.3 1739.0, 1916.9 1934.3 C 2031.2 1908.2, 2191.2 1796.8, 2297.9 1862.3 C 2412.1 1863.5, 2572.1 1841.6, 2678.8 1784.6 C 2793.1 1762.7, 2953.1 1912.9, 3059.7 1748.3 C 3174.0 1783.8, 3334.0 1885.5, 3440.6 1775.5" fill="none" stroke="url(#ribbon92)" stroke-width="30.4" stroke-linecap="round" stroke-opacity="0.302" /></g><g transform="rotate(-13.44 1536.0 1536.0)"><path d="M-368.6 2076.2 C -264.8 2142.2, -119.3 2014.3, -22.3 2186.8 C 81.5 2148.5, 227.0 1997.9, 324.0 2141.7 C 427.8 2123.6, 573.3 2033.6, 670.3 2056.8 C 774.1 2049.9, 919.6 2087.2, 1016.6 1983.7 C 1120.4 1977.8, 1265.9 2104.3, 1362.9 1966.7 C 1466.7 1941.1, 1612.2 2151.5, 1709.1 2016.1 C 1813.0 2030.8, 1958.5 2109.6, 2055.4 2102.0 C 2159.3 2095.7, 2304.8 2061.9, 2401.7 2172.2 C 2505.6 2201.4, 2651.1 1969.9, 2748.0 2184.2 C 2851.9 2150.7, 2997.4 1962.8, 3094.3 2130.7 C 3198.2 2120.4, 3343.7 2017.5, 3440.6 2044.1" fill="none" stroke="url(#ribbon92)" stroke-width="26.4" stroke-linecap="round" stroke-opacity="0.328" /></g><g transform="rotate(-12.86 1536.0 1536.0)"><path d="M-368.6 2242.9 C -273.4 2338.2, -140.1 2195.0, -51.2 2361.8 C 44.0 2394.2, 177.4 2181.9, 266.2 2325.8 C 361.5 2323.9, 494.8 2172.2, 583.7 2239.6 C 678.9 2240.3, 812.2 2246.2, 901.1 2155.3 C 996.4 2143.2, 1129.7 2318.8, 1218.6 2124.2 C 1313.8 2130.3, 1447.1 2368.6, 1536.0 2165.1 C 1631.2 2144.7, 1764.6 2326.4, 1853.4 2253.2 C 1948.7 2251.0, 2082.0 2232.5, 2170.9 2335.1 C 2266.1 2323.1, 2399.4 2155.4, 2488.3 2361.0 C 2583.6 2378.8, 2716.9 2172.5, 2805.8 2315.3 C 2901.0 2313.1, 3034.3 2200.8, 3123.2 2225.7 C 3218.4 2228.6, 3351.8 2249.2, 3440.6 2146.6" fill="none" stroke="url(#ribbon92)" stroke-width="22.4" stroke-linecap="round" stroke-opacity="0.354" /></g><g transform="rotate(-12.28 1536.0 1536.0)"><path d="M-368.6 2414.2 C -225.8 2508.8, -25.8 2345.3, 107.5 2484.8 C 250.4 2463.0, 450.4 2347.7, 583.7 2388.6 C 726.5 2392.5, 926.5 2431.5, 1059.8 2307.9 C 1202.7 2271.6, 1402.7 2467.3, 1536.0 2291.7 C 1678.8 2269.9, 1878.8 2471.4, 2012.2 2349.8 C 2155.0 2325.4, 2355.0 2463.0, 2488.3 2447.0 C 2631.2 2460.1, 2831.2 2395.8, 2964.5 2524.3 C 3107.3 2532.9, 3307.3 2363.2, 3440.6 2534.8" fill="none" stroke="url(#ribbon92)" stroke-width="18.4" stroke-linecap="round" stroke-opacity="0.380" /></g><g transform="rotate(-11.70 1536.0 1536.0)"><path d="M-368.6 2617.9 C -241.7 2570.1, -63.9 2650.7, 54.6 2682.4 C 181.6 2692.6, 359.4 2550.6, 477.9 2746.3 C 604.8 2717.7, 782.6 2576.8, 901.1 2732.4 C 1028.1 2768.3, 1205.9 2577.6, 1324.4 2649.1 C 1451.3 2646.1, 1629.1 2602.9, 1747.6 2546.9 C 1874.6 2522.1, 2052.4 2669.6, 2170.9 2487.8 C 2297.9 2504.0, 2475.6 2709.2, 2594.1 2507.6 C 2721.1 2481.4, 2898.9 2670.9, 3017.4 2594.4 C 3144.4 2598.4, 3322.1 2638.5, 3440.6 2695.5" fill="none" stroke="url(#ribbon92)" stroke-width="14.4" stroke-linecap="round" stroke-opacity="0.406" /></g></g>
  <g><ellipse cx="1536.0" cy="1551.9" rx="728.6" ry="605.7" fill="url(#extrude92)" opacity="0.220" /><ellipse cx="1536.0" cy="1567.7" rx="736.0" ry="610.9" fill="url(#extrude92)" opacity="0.205" /><ellipse cx="1536.0" cy="1583.6" rx="743.4" ry="616.1" fill="url(#extrude92)" opacity="0.190" /><ellipse cx="1536.0" cy="1599.5" rx="750.9" ry="621.3" fill="url(#extrude92)" opacity="0.175" /><ellipse cx="1536.0" cy="1615.4" rx="758.3" ry="626.5" fill="url(#extrude92)" opacity="0.160" /><ellipse cx="1536.0" cy="1631.2" rx="765.7" ry="631.7" fill="url(#extrude92)" opacity="0.145" /><ellipse cx="1536.0" cy="1647.1" rx="773.2" ry="636.9" fill="url(#extrude92)" opacity="0.130" /><ellipse cx="1536.0" cy="1663.0" rx="780.6" ry="642.1" fill="url(#extrude92)" opacity="0.115" /><ellipse cx="1536.0" cy="1678.8" rx="788.0" ry="647.4" fill="url(#extrude92)" opacity="0.100" /><ellipse cx="1536.0" cy="1694.7" rx="795.5" ry="652.6" fill="url(#extrude92)" opacity="0.085" /><ellipse cx="1536.0" cy="1710.6" rx="802.9" ry="657.8" fill="url(#extrude92)" opacity="0.070" /><ellipse cx="1536.0" cy="1726.5" rx="810.3" ry="663.0" fill="url(#extrude92)" opacity="0.055" /></g>
  <ellipse cx="1536.0" cy="1726.5" rx="773.2" ry="214.9" fill="#0B1D2D" opacity="0.24" />
  <ellipse cx="1536.0" cy="1536.0" rx="743.4" ry="651.3" fill="url(#orb92)" stroke="#FFFFFF" stroke-opacity="0.42" stroke-width="7" />
  <ellipse cx="1431.9" cy="1392.7" rx="505.5" ry="299.6" fill="#FFFFFF" opacity="0.25" />
  <path d="M 199.4 399.4 C 1013.8 -30.7, 2058.2 768.0, 2872.6 215.0 L 2872.6 983.0 C 2089.0 1228.8, 1013.8 307.2, 199.4 1167.4 Z" fill="url(#glass92)" />
  <rect x="270" y="270" width="2532" height="2532" rx="430" fill="none" stroke="#FFFFFF" stroke-opacity="0.30" stroke-width="5" />
  <rect x="288.4" y="288.4" width="2495.1" height="2495.1" rx="399" fill="none" stroke="#3B82FF" stroke-opacity="0.35" stroke-width="3" />
  <g filter="url(#soft92)"><rect x="2388" y="761" width="64" height="2" fill="#FFFFFF" opacity="0.652" /><rect x="2419" y="730" width="2" height="64" fill="#FFFFFF" opacity="0.652" /><rect x="1568" y="1602" width="82" height="2" fill="#FFFFFF" opacity="0.488" /><rect x="1608" y="1562" width="2" height="82" fill="#FFFFFF" opacity="0.488" /><rect x="1186" y="965" width="26" height="2" fill="#FFFFFF" opacity="0.304" /><rect x="1198" y="953" width="2" height="26" fill="#FFFFFF" opacity="0.304" /><rect x="1475" y="1493" width="24" height="2" fill="#FFFFFF" opacity="0.769" /><rect x="1486" y="1482" width="2" height="24" fill="#FFFFFF" opacity="0.769" /><rect x="939" y="1766" width="66" height="2" fill="#FFFFFF" opacity="0.820" /><rect x="971" y="1734" width="2" height="66" fill="#FFFFFF" opacity="0.820" /><rect x="549" y="535" width="30" height="2" fill="#FFFFFF" opacity="0.773" /><rect x="563" y="521" width="2" height="30" fill="#FFFFFF" opacity="0.773" /><rect x="337" y="1656" width="82" height="2" fill="#FFFFFF" opacity="0.681" /><rect x="377" y="1616" width="2" height="82" fill="#FFFFFF" opacity="0.681" /><rect x="2521" y="2736" width="70" height="2" fill="#FFFFFF" opacity="0.491" /><rect x="2555" y="2702" width="2" height="70" fill="#FFFFFF" opacity="0.491" /><rect x="1384" y="1568" width="26" height="2" fill="#FFFFFF" opacity="0.430" /><rect x="1396" y="1556" width="2" height="26" fill="#FFFFFF" opacity="0.430" /><rect x="644" y="2108" width="74" height="2" fill="#FFFFFF" opacity="0.723" /><rect x="680" y="2072" width="2" height="74" fill="#FFFFFF" opacity="0.723" /><rect x="420" y="2405" width="46" height="2" fill="#FFFFFF" opacity="0.456" /><rect x="442" y="2383" width="2" height="46" fill="#FFFFFF" opacity="0.456" /><rect x="1843" y="429" width="84" height="2" fill="#FFFFFF" opacity="0.470" /><rect x="1884" y="388" width="2" height="84" fill="#FFFFFF" opacity="0.470" /><rect x="1636" y="1456" width="28" height="2" fill="#FFFFFF" opacity="0.462" /><rect x="1649" y="1443" width="2" height="28" fill="#FFFFFF" opacity="0.462" /><rect x="2706" y="1221" width="76" height="2" fill="#FFFFFF" opacity="0.409" /><rect x="2743" y="1184" width="2" height="76" fill="#FFFFFF" opacity="0.409" /><rect x="1947" y="318" width="74" height="2" fill="#FFFFFF" opacity="0.618" /><rect x="1983" y="282" width="2" height="74" fill="#FFFFFF" opacity="0.618" /><rect x="2658" y="2632" width="30" height="2" fill="#FFFFFF" opacity="0.344" /><rect x="2672" y="2618" width="2" height="30" fill="#FFFFFF" opacity="0.344" /><rect x="1047" y="1634" width="26" height="2" fill="#FFFFFF" opacity="0.547" /><rect x="1059" y="1622" width="2" height="26" fill="#FFFFFF" opacity="0.547" /><rect x="1533" y="1810" width="32" height="2" fill="#FFFFFF" opacity="0.557" /><rect x="1548" y="1795" width="2" height="32" fill="#FFFFFF" opacity="0.557" /><rect x="404" y="2206" width="46" height="2" fill="#FFFFFF" opacity="0.549" /><rect x="426" y="2184" width="2" height="46" fill="#FFFFFF" opacity="0.549" /><rect x="1860" y="696" width="74" height="2" fill="#FFFFFF" opacity="0.423" /><rect x="1896" y="660" width="2" height="74" fill="#FFFFFF" opacity="0.423" /><rect x="2343" y="2646" width="52" height="2" fill="#FFFFFF" opacity="0.652" /><rect x="2368" y="2621" width="2" height="52" fill="#FFFFFF" opacity="0.652" /><rect x="498" y="631" width="82" height="2" fill="#FFFFFF" opacity="0.381" /><rect x="538" y="591" width="2" height="82" fill="#FFFFFF" opacity="0.381" /><rect x="666" y="809" width="26" height="2" fill="#FFFFFF" opacity="0.809" /><rect x="678" y="797" width="2" height="26" fill="#FFFFFF" opacity="0.809" /><rect x="2401" y="913" width="52" height="2" fill="#FFFFFF" opacity="0.621" /><rect x="2426" y="888" width="2" height="52" fill="#FFFFFF" opacity="0.621" /><rect x="1167" y="1753" width="48" height="2" fill="#FFFFFF" opacity="0.565" /><rect x="1190" y="1730" width="2" height="48" fill="#FFFFFF" opacity="0.565" /><rect x="1240" y="1272" width="50" height="2" fill="#FFFFFF" opacity="0.368" /><rect x="1264" y="1248" width="2" height="50" fill="#FFFFFF" opacity="0.368" /></g>
  <g opacity="0.52"><path d="M1023 1326 L1572 1070 L2121 1326 L2121 2043 L1023 2043 Z" fill="none" stroke="#0C2030" stroke-width="90" stroke-linejoin="round" /><line x1="1572" y1="1070" x2="1572" y2="2043" stroke="#0C2030" stroke-width="88" /></g>
  <g filter="url(#soft92)"><path d="M987 1280 L1536 1024 L2085 1280 L2085 1997 L987 1997 Z" fill="none" stroke="url(#symbol92)" stroke-width="90" stroke-linejoin="round" /><line x1="1536" y1="1024" x2="1536" y2="1997" stroke="url(#symbol92)" stroke-width="88" /></g>
  <rect x="138" y="138" width="2796" height="2796" rx="629" fill="#FFFFFF" filter="url(#grain92)" opacity="0.18" />
</svg>
