<svg xmlns="http://www.w3.org/2000/svg" width="3072" height="3072" viewBox="0 0 3072 3072">
  <title>QuartzOS App Icon 353 - neon_designer_353</title>
  <defs><linearGradient id="bg352" x1="0%" y1="0%" x2="100%" y2="100%"><stop offset="0%" stop-color="#8A5CFF" /><stop offset="26%" stop-color="#FF9F43" /><stop offset="56%" stop-color="#53E3A6" /><stop offset="78%" stop-color="#5AA47F" /><stop offset="100%" stop-color="#1A2B22" /></linearGradient><radialGradient id="sun352" cx="25%" cy="28%" r="88%"><stop offset="0%" stop-color="#FFFFFF" stop-opacity="0.62" /><stop offset="30%" stop-color="#36D1FF" stop-opacity="0.35" /><stop offset="100%" stop-color="#36D1FF" stop-opacity="0" /></radialGradient><linearGradient id="glass352" x1="0%" y1="0%" x2="0%" y2="100%"><stop offset="0%" stop-color="#FFFFFF" stop-opacity="0.70" /><stop offset="46%" stop-color="#FFFFFF" stop-opacity="0.26" /><stop offset="100%" stop-color="#FFFFFF" stop-opacity="0.00" /></linearGradient><linearGradient id="ribbon352" x1="0%" y1="0%" x2="100%" y2="0%"><stop offset="0%" stop-color="#8A5CFF" stop-opacity="0.18" /><stop offset="34%" stop-color="#FF9F43" stop-opacity="0.72" /><stop offset="66%" stop-color="#53E3A6" stop-opacity="0.72" /><stop offset="100%" stop-color="#36D1FF" stop-opacity="0.18" /></linearGradient><radialGradient id="orb352" cx="34%" cy="27%" r="74%"><stop offset="0%" stop-color="#FFFFFF" stop-opacity="0.84" /><stop offset="30%" stop-color="#8A5CFF" stop-opacity="0.52" /><stop offset="68%" stop-color="#FF9F43" stop-opacity="0.42" /><stop offset="100%" stop-color="#53E3A6" stop-opacity="0.20" /></radialGradient><linearGradient id="extrude352" x1="0%" y1="0%" x2="0%" y2="100%"><stop offset="0%" stop-color="#15283C" stop-opacity="0.45" /><stop offset="100%" stop-color="#08131D" stop-opacity="0.06" /></linearGradient><linearGradient id="symbol352" x1="0%" y1="0%" x2="100%" y2="100%"><stop offset="0%" stop-color="#FFFFFF" /><stop offset="100%" stop-color="#36D1FF" /></linearGradient><filter id="shadow352" x="-40%" y="-40%" width="180%" height="180%"><feDropShadow dx="0" dy="49" stdDeviation="86" flood-color="#06111A" flood-opacity="0.54" /></filter><filter id="soft352" x="-40%" y="-40%" width="180%" height="180%"><feDropShadow dx="0" dy="0" stdDeviation="14" flood-color="#8A5CFF" flood-opacity="0.45" /></filter><filter id="grain352"><feTurbulence type="fractalNoise" baseFrequency="1.022" numOctaves="2" seed="352" /><feColorMatrix type="saturate" values="0" /><feComponentTransfer><feFuncA type="table" tableValues="0 0.09" /></feComponentTransfer></filter></defs>
  <rect x="138" y="138" width="2796" height="2796" rx="629" fill="url(#bg352)" filter="url(#shadow352)" />
  <rect x="138" y="138" width="2796" height="2796" rx="629" fill="url(#sun352)" />
  <g><circle cx="569" cy="1615" r="110" fill="#FFFFFF" opacity="0.066" /><circle cx="506" cy="2524" r="143" fill="#FFFFFF" opacity="0.140" /><circle cx="2197" cy="2015" r="132" fill="#FFFFFF" opacity="0.201" /><circle cx="681" cy="1884" r="109" fill="#FFFFFF" opacity="0.234" /><circle cx="1233" cy="2212" r="128" fill="#FFFFFF" opacity="0.161" /><circle cx="2115" cy="2600" r="80" fill="#FFFFFF" opacity="0.194" /><circle cx="1524" cy="1696" r="138" fill="#FFFFFF" opacity="0.175" /><circle cx="2523" cy="2088" r="50" fill="#FFFFFF" opacity="0.073" /><circle cx="1974" cy="1878" r="68" fill="#FFFFFF" opacity="0.070" /><circle cx="1459" cy="388" r="38" fill="#FFFFFF" opacity="0.181" /><circle cx="1687" cy="498" r="137" fill="#FFFFFF" opacity="0.080" /><circle cx="871" cy="339" r="83" fill="#FFFFFF" opacity="0.221" /><circle cx="1763" cy="1159" r="108" fill="#FFFFFF" opacity="0.201" /><circle cx="2297" cy="1316" r="118" fill="#FFFFFF" opacity="0.192" /><circle cx="1394" cy="2042" r="117" fill="#FFFFFF" opacity="0.221" /><circle cx="700" cy="894" r="108" fill="#FFFFFF" opacity="0.180" /><circle cx="2289" cy="2146" r="45" fill="#FFFFFF" opacity="0.078" /><circle cx="638" cy="2066" r="58" fill="#FFFFFF" opacity="0.118" /><circle cx="394" cy="1087" r="116" fill="#FFFFFF" opacity="0.187" /><circle cx="1055" cy="2030" r="38" fill="#FFFFFF" opacity="0.228" /><circle cx="2274" cy="2040" r="38" fill="#FFFFFF" opacity="0.108" /><circle cx="2398" cy="901" r="95" fill="#FFFFFF" opacity="0.167" /><circle cx="790" cy="1054" r="109" fill="#FFFFFF" opacity="0.069" /><circle cx="1042" cy="1586" r="43" fill="#FFFFFF" opacity="0.129" /><circle cx="1112" cy="1082" r="126" fill="#FFFFFF" opacity="0.106" /><circle cx="1366" cy="816" r="122" fill="#FFFFFF" opacity="0.101" /><circle cx="1352" cy="395" r="138" fill="#FFFFFF" opacity="0.073" /><circle cx="1134" cy="2506" r="72" fill="#FFFFFF" opacity="0.177" /></g>
  <g><path d="M 209.5 653.5 L 2827.2 377.1 L 2827.2 840.1 L 209.5 1116.6 Z" fill="#FFFFFF" opacity="0.159" /><path d="M 184.5 844.5 L 2744.7 568.0 L 2744.7 1012.9 L 184.5 1289.4 Z" fill="#FFFFFF" opacity="0.095" /><path d="M 230.7 1120.0 L 2867.3 843.5 L 2867.3 1304.6 L 230.7 1581.1 Z" fill="#FFFFFF" opacity="0.171" /><path d="M 305.2 1364.6 L 2702.2 1088.1 L 2702.2 1519.9 L 305.2 1796.3 Z" fill="#FFFFFF" opacity="0.087" /><path d="M 204.6 1678.8 L 2791.7 1402.3 L 2791.7 1893.9 L 204.6 2170.3 Z" fill="#FFFFFF" opacity="0.118" /><path d="M 316.6 1931.7 L 2843.7 1655.3 L 2843.7 2126.3 L 316.6 2402.7 Z" fill="#FFFFFF" opacity="0.213" /><path d="M 350.2 2138.1 L 2792.4 1861.7 L 2792.4 2329.9 L 350.2 2606.4 Z" fill="#FFFFFF" opacity="0.109" /><path d="M 200.5 2459.0 L 2794.6 2182.5 L 2794.6 2645.8 L 200.5 2922.3 Z" fill="#FFFFFF" opacity="0.142" /></g>
  <g filter="url(#soft352)"><g transform="rotate(-10.48 1536.0 1536.0)"><path d="M-368.6 540.4 C -225.8 611.0, -25.8 507.5, 107.5 563.7 C 250.4 559.6, 450.4 529.0, 583.7 520.7 C 726.5 527.4, 926.5 562.4, 1059.8 489.6 C 1202.7 502.8, 1402.7 584.5, 1536.0 489.4 C 1678.8 491.6, 1878.8 564.3, 2012.2 520.1 C 2155.0 526.0, 2355.0 562.0, 2488.3 563.2 C 2631.2 565.9, 2831.2 532.8, 2964.5 592.4 C 3107.3 585.8, 3307.3 509.7, 3440.6 590.1" fill="none" stroke="url(#ribbon352)" stroke-width="58.4" stroke-linecap="round" stroke-opacity="0.120" /></g><g transform="rotate(-9.90 1536.0 1536.0)"><path d="M-368.6 765.1 C -241.7 787.0, -63.9 758.5, 54.6 820.5 C 181.6 817.9, 359.4 718.3, 477.9 824.1 C 604.8 841.6, 782.6 702.1, 901.1 791.9 C 1028.1 782.8, 1205.9 746.6, 1324.4 743.4 C 1451.3 751.2, 1629.1 774.1, 1747.6 708.0 C 1874.6 716.9, 2052.4 786.9, 2170.9 707.2 C 2297.9 712.7, 2475.6 822.5, 2594.1 741.5 C 2721.1 732.4, 2898.9 778.0, 3017.4 790.1 C 3144.4 796.8, 3322.1 756.1, 3440.6 823.5" fill="none" stroke="url(#ribbon352)" stroke-width="54.4" stroke-linecap="round" stroke-opacity="0.146" /></g><g transform="rotate(-9.32 1536.0 1536.0)"><path d="M-368.6 910.6 C -254.4 832.9, -94.4 955.8, 12.3 901.7 C 126.6 898.9, 286.6 920.6, 393.2 953.8 C 507.5 966.0, 667.5 867.5, 774.1 979.6 C 888.4 972.0, 1048.4 855.7, 1155.1 963.6 C 1269.4 952.9, 1429.3 866.5, 1536.0 915.3 C 1650.3 913.9, 1810.3 906.5, 1916.9 864.2 C 2031.2 879.9, 2191.2 934.1, 2297.9 841.2 C 2412.1 831.2, 2572.1 942.1, 2678.8 860.2 C 2793.1 868.0, 2953.1 969.6, 3059.7 909.8 C 3174.0 909.7, 3334.0 911.0, 3440.6 959.8" fill="none" stroke="url(#ribbon352)" stroke-width="50.4" stroke-linecap="round" stroke-opacity="0.172" /></g><g transform="rotate(-8.74 1536.0 1536.0)"><path d="M-368.6 1085.8 C -264.8 1036.1, -119.3 1151.9, -22.3 1029.1 C 81.5 1027.7, 227.0 1139.0, 324.0 1083.1 C 427.8 1083.0, 573.3 1086.7, 670.3 1138.8 C 774.1 1133.4, 919.6 1058.9, 1016.6 1162.3 C 1120.4 1192.1, 1265.9 1002.5, 1362.9 1139.3 C 1466.7 1131.3, 1612.2 1033.7, 1709.1 1083.9 C 1813.0 1084.2, 1958.5 1087.9, 2055.4 1029.6 C 2159.3 1013.1, 2304.8 1135.3, 2401.7 1009.4 C 2505.6 997.3, 2651.1 1151.9, 2748.0 1035.5 C 2851.9 1045.6, 2997.4 1106.0, 3094.3 1092.1 C 3198.2 1092.9, 3343.7 1079.0, 3440.6 1144.8" fill="none" stroke="url(#ribbon352)" stroke-width="46.4" stroke-linecap="round" stroke-opacity="0.198" /></g><g transform="rotate(-8.16 1536.0 1536.0)"><path d="M-368.6 1264.8 C -273.4 1332.2, -140.1 1221.2, -51.2 1252.0 C 44.0 1250.9, 177.4 1270.6, 266.2 1196.7 C 361.5 1180.8, 494.8 1308.7, 583.7 1182.6 C 678.9 1186.3, 812.2 1351.0, 901.1 1218.4 C 996.4 1221.7, 1129.7 1298.4, 1218.6 1282.3 C 1313.8 1277.5, 1447.1 1245.5, 1536.0 1335.6 C 1631.2 1348.2, 1764.6 1197.4, 1853.4 1345.9 C 1948.7 1322.8, 2082.0 1179.8, 2170.9 1307.0 C 2266.1 1298.3, 2399.4 1251.9, 2488.3 1242.5 C 2583.6 1247.8, 2716.9 1274.8, 2805.8 1191.5 C 2901.0 1164.1, 3034.3 1292.4, 3123.2 1184.9 C 3218.4 1200.1, 3351.8 1318.3, 3440.6 1226.8" fill="none" stroke="url(#ribbon352)" stroke-width="42.4" stroke-linecap="round" stroke-opacity="0.224" /></g><g transform="rotate(-7.58 1536.0 1536.0)"><path d="M-368.6 1430.0 C -225.8 1488.0, -25.8 1380.4, 107.5 1478.9 C 250.4 1490.0, 450.4 1384.3, 583.7 1409.4 C 726.5 1404.6, 926.5 1444.2, 1059.8 1352.3 C 1202.7 1335.6, 1402.7 1458.1, 1536.0 1342.4 C 1678.8 1322.4, 1878.8 1483.8, 2012.2 1385.5 C 2155.0 1392.8, 2355.0 1458.3, 2488.3 1455.7 C 2631.2 1464.1, 2831.2 1414.2, 2964.5 1510.2 C 3107.3 1529.4, 3307.3 1337.9, 3440.6 1516.1" fill="none" stroke="url(#ribbon352)" stroke-width="38.4" stroke-linecap="round" stroke-opacity="0.250" /></g><g transform="rotate(-7.00 1536.0 1536.0)"><path d="M-368.6 1640.7 C -241.7 1554.9, -63.9 1714.0, 54.6 1606.4 C 181.6 1607.3, 359.4 1651.0, 477.9 1682.4 C 604.8 1672.9, 782.6 1593.8, 901.1 1733.1 C 1028.1 1702.1, 1205.9 1603.9, 1324.4 1727.7 C 1451.3 1742.9, 1629.1 1603.9, 1747.6 1669.6 C 1874.6 1674.1, 2052.4 1618.6, 2170.9 1593.9 C 2297.9 1599.1, 2475.6 1682.2, 2594.1 1546.5 C 2721.1 1564.5, 2898.9 1691.4, 3017.4 1556.3 C 3144.4 1543.2, 3322.1 1701.2, 3440.6 1617.3" fill="none" stroke="url(#ribbon352)" stroke-width="34.4" stroke-linecap="round" stroke-opacity="0.276" /></g><g transform="rotate(-6.42 1536.0 1536.0)"><path d="M-368.6 1856.0 C -254.4 1919.1, -94.4 1802.1, 12.3 1932.1 C 126.6 1910.6, 286.6 1787.9, 393.2 1857.4 C 507.5 1857.4, 667.5 1855.2, 774.1 1781.9 C 888.4 1754.6, 1048.4 1928.4, 1155.1 1751.3 C 1269.4 1760.8, 1429.3 1934.8, 1536.0 1784.3 C 1650.3 1799.5, 1810.3 1928.7, 1916.9 1860.8 C 2031.2 1861.5, 2191.2 1853.0, 2297.9 1934.4 C 2412.1 1949.4, 2572.1 1769.8, 2678.8 1960.5 C 2793.1 1923.2, 2953.1 1739.1, 3059.7 1923.2 C 3174.0 1933.1, 3334.0 1828.8, 3440.6 1845.2" fill="none" stroke="url(#ribbon352)" stroke-width="30.4" stroke-linecap="round" stroke-opacity="0.302" /></g><g transform="rotate(-5.84 1536.0 1536.0)"><path d="M-368.6 2106.1 C -264.8 2003.6, -119.3 2232.8, -22.3 2026.7 C 81.5 2026.9, 227.0 2131.7, 324.0 2107.3 C 427.8 2107.0, 573.3 2104.7, 670.3 2187.1 C 774.1 2192.3, 919.6 2021.6, 1016.6 2217.8 C 1120.4 2222.5, 1265.9 1999.6, 1362.9 2180.7 C 1466.7 2188.1, 1612.2 2048.8, 1709.1 2098.4 C 1813.0 2099.3, 1958.5 2112.1, 2055.4 2020.7 C 2159.3 1989.2, 2304.8 2147.4, 2401.7 1994.8 C 2505.6 2007.3, 2651.1 2140.4, 2748.0 2036.4 C 2851.9 2062.5, 2997.4 2174.7, 3094.3 2120.3 C 3198.2 2125.5, 3343.7 2090.7, 3440.6 2195.5" fill="none" stroke="url(#ribbon352)" stroke-width="26.4" stroke-linecap="round" stroke-opacity="0.328" /></g><g transform="rotate(-5.26 1536.0 1536.0)"><path d="M-368.6 2244.6 C -273.4 2355.2, -140.1 2140.8, -51.2 2305.1 C 44.0 2285.8, 177.4 2174.8, 266.2 2213.4 C 361.5 2223.9, 494.8 2282.1, 583.7 2140.6 C 678.9 2108.5, 812.2 2319.7, 901.1 2130.9 C 996.4 2160.3, 1129.7 2291.5, 1218.6 2190.2 C 1313.8 2173.5, 1447.1 2301.3, 1536.0 2282.5 C 1631.2 2271.5, 1764.6 2230.1, 1853.4 2351.9 C 1948.7 2357.2, 2082.0 2128.6, 2170.9 2356.1 C 2266.1 2331.7, 2399.4 2130.1, 2488.3 2292.8 C 2583.6 2305.4, 2716.9 2189.8, 2805.8 2200.2 C 2901.0 2204.5, 3034.3 2284.5, 3123.2 2134.6 C 3218.4 2176.8, 3351.8 2340.7, 3440.6 2135.7" fill="none" stroke="url(#ribbon352)" stroke-width="22.4" stroke-linecap="round" stroke-opacity="0.354" /></g><g transform="rotate(-4.68 1536.0 1536.0)"><path d="M-368.6 2452.9 C -225.8 2382.3, -25.8 2513.1, 107.5 2327.1 C 250.4 2308.5, 450.4 2588.7, 583.7 2361.9 C 726.5 2379.0, 926.5 2546.6, 1059.8 2451.9 C 1202.7 2452.2, 1402.7 2453.7, 1536.0 2542.6 C 1678.8 2571.9, 1878.8 2376.0, 2012.2 2578.9 C 2155.0 2595.2, 2355.0 2321.1, 2488.3 2538.8 C 2631.2 2515.4, 2831.2 2370.2, 2964.5 2446.6 C 3107.3 2447.0, 3307.3 2455.5, 3440.6 2358.3" fill="none" stroke="url(#ribbon352)" stroke-width="18.4" stroke-linecap="round" stroke-opacity="0.380" /></g><g transform="rotate(-4.10 1536.0 1536.0)"><path d="M-368.6 2674.0 C -241.7 2616.9, -63.9 2706.4, 54.6 2541.2 C 181.6 2517.6, 359.4 2722.0, 477.9 2576.0 C 604.8 2599.7, 782.6 2741.2, 901.1 2670.2 C 1028.1 2671.7, 1205.9 2675.6, 1324.4 2766.7 C 1451.3 2769.9, 1629.1 2646.1, 1747.6 2807.0 C 1874.6 2780.8, 2052.4 2598.8, 2170.9 2766.6 C 2297.9 2744.1, 2475.6 2598.0, 2594.1 2670.0 C 2721.1 2670.2, 2898.9 2676.9, 3017.4 2575.9 C 3144.4 2565.6, 3322.1 2736.0, 3440.6 2541.2" fill="none" stroke="url(#ribbon352)" stroke-width="14.4" stroke-linecap="round" stroke-opacity="0.406" /></g></g>
  <g><ellipse cx="1536.0" cy="1551.9" rx="728.6" ry="605.7" fill="url(#extrude352)" opacity="0.220" /><ellipse cx="1536.0" cy="1567.7" rx="736.0" ry="610.9" fill="url(#extrude352)" opacity="0.205" /><ellipse cx="1536.0" cy="1583.6" rx="743.4" ry="616.1" fill="url(#extrude352)" opacity="0.190" /><ellipse cx="1536.0" cy="1599.5" rx="750.9" ry="621.3" fill="url(#extrude352)" opacity="0.175" /><ellipse cx="1536.0" cy="1615.4" rx="758.3" ry="626.5" fill="url(#extrude352)" opacity="0.160" /><ellipse cx="1536.0" cy="1631.2" rx="765.7" ry="631.7" fill="url(#extrude352)" opacity="0.145" /><ellipse cx="1536.0" cy="1647.1" rx="773.2" ry="636.9" fill="url(#extrude352)" opacity="0.130" /><ellipse cx="1536.0" cy="1663.0" rx="780.6" ry="642.1" fill="url(#extrude352)" opacity="0.115" /><ellipse cx="1536.0" cy="1678.8" rx="788.0" ry="647.4" fill="url(#extrude352)" opacity="0.100" /><ellipse cx="1536.0" cy="1694.7" rx="795.5" ry="652.6" fill="url(#extrude352)" opacity="0.085" /><ellipse cx="1536.0" cy="1710.6" rx="802.9" ry="657.8" fill="url(#extrude352)" opacity="0.070" /><ellipse cx="1536.0" cy="1726.5" rx="810.3" ry="663.0" fill="url(#extrude352)" opacity="0.055" /></g>
  <ellipse cx="1536.0" cy="1726.5" rx="773.2" ry="214.9" fill="#0B1D2D" opacity="0.24" />
  <ellipse cx="1536.0" cy="1536.0" rx="743.4" ry="651.3" fill="url(#orb352)" stroke="#FFFFFF" stroke-opacity="0.42" stroke-width="7" />
  <ellipse cx="1431.9" cy="1392.7" rx="505.5" ry="299.6" fill="#FFFFFF" opacity="0.25" />
  <path d="M 199.4 399.4 C 1013.8 -30.7, 2058.2 768.0, 2872.6 215.0 L 2872.6 983.0 C 2089.0 1228.8, 1013.8 307.2, 199.4 1167.4 Z" fill="url(#glass352)" />
  <rect x="270" y="270" width="2532" height="2532" rx="430" fill="none" stroke="#FFFFFF" stroke-opacity="0.30" stroke-width="5" />
  <rect x="288.4" y="288.4" width="2495.1" height="2495.1" rx="399" fill="none" stroke="#8A5CFF" stroke-opacity="0.35" stroke-width="3" />
  <g filter="url(#soft352)"><rect x="946" y="2440" width="52" height="2" fill="#FFFFFF" opacity="0.638" /><rect x="971" y="2415" width="2" height="52" fill="#FFFFFF" opacity="0.638" /><rect x="871" y="648" width="34" height="2" fill="#FFFFFF" opacity="0.822" /><rect x="887" y="632" width="2" height="34" fill="#FFFFFF" opacity="0.822" /><rect x="841" y="2473" width="30" height="2" fill="#FFFFFF" opacity="0.519" /><rect x="855" y="2459" width="2" height="30" fill="#FFFFFF" opacity="0.519" /><rect x="2206" y="501" width="78" height="2" fill="#FFFFFF" opacity="0.386" /><rect x="2244" y="463" width="2" height="78" fill="#FFFFFF" opacity="0.386" /><rect x="517" y="971" width="48" height="2" fill="#FFFFFF" opacity="0.599" /><rect x="540" y="948" width="2" height="48" fill="#FFFFFF" opacity="0.599" /><rect x="2309" y="1376" width="52" height="2" fill="#FFFFFF" opacity="0.725" /><rect x="2334" y="1351" width="2" height="52" fill="#FFFFFF" opacity="0.725" /><rect x="2172" y="2018" width="28" height="2" fill="#FFFFFF" opacity="0.530" /><rect x="2185" y="2005" width="2" height="28" fill="#FFFFFF" opacity="0.530" /><rect x="1403" y="2429" width="74" height="2" fill="#FFFFFF" opacity="0.702" /><rect x="1439" y="2393" width="2" height="74" fill="#FFFFFF" opacity="0.702" /><rect x="535" y="2217" width="32" height="2" fill="#FFFFFF" opacity="0.410" /><rect x="550" y="2202" width="2" height="32" fill="#FFFFFF" opacity="0.410" /><rect x="335" y="1358" width="62" height="2" fill="#FFFFFF" opacity="0.830" /><rect x="365" y="1328" width="2" height="62" fill="#FFFFFF" opacity="0.830" /><rect x="578" y="570" width="72" height="2" fill="#FFFFFF" opacity="0.309" /><rect x="613" y="535" width="2" height="72" fill="#FFFFFF" opacity="0.309" /><rect x="2060" y="585" width="40" height="2" fill="#FFFFFF" opacity="0.467" /><rect x="2079" y="566" width="2" height="40" fill="#FFFFFF" opacity="0.467" /><rect x="1933" y="2221" width="74" height="2" fill="#FFFFFF" opacity="0.369" /><rect x="1969" y="2185" width="2" height="74" fill="#FFFFFF" opacity="0.369" /><rect x="2785" y="2264" width="32" height="2" fill="#FFFFFF" opacity="0.556" /><rect x="2800" y="2249" width="2" height="32" fill="#FFFFFF" opacity="0.556" /><rect x="374" y="949" width="34" height="2" fill="#FFFFFF" opacity="0.393" /><rect x="390" y="933" width="2" height="34" fill="#FFFFFF" opacity="0.393" /><rect x="2754" y="2181" width="32" height="2" fill="#FFFFFF" opacity="0.338" /><rect x="2769" y="2166" width="2" height="32" fill="#FFFFFF" opacity="0.338" /><rect x="1468" y="861" width="80" height="2" fill="#FFFFFF" opacity="0.570" /><rect x="1507" y="822" width="2" height="80" fill="#FFFFFF" opacity="0.570" /><rect x="1409" y="2714" width="48" height="2" fill="#FFFFFF" opacity="0.708" /><rect x="1432" y="2691" width="2" height="48" fill="#FFFFFF" opacity="0.708" /><rect x="1245" y="1709" width="58" height="2" fill="#FFFFFF" opacity="0.580" /><rect x="1273" y="1681" width="2" height="58" fill="#FFFFFF" opacity="0.580" /><rect x="2193" y="2010" width="70" height="2" fill="#FFFFFF" opacity="0.450" /><rect x="2227" y="1976" width="2" height="70" fill="#FFFFFF" opacity="0.450" /><rect x="1193" y="754" width="56" height="2" fill="#FFFFFF" opacity="0.386" /><rect x="1220" y="727" width="2" height="56" fill="#FFFFFF" opacity="0.386" /><rect x="1747" y="2218" width="76" height="2" fill="#FFFFFF" opacity="0.759" /><rect x="1784" y="2181" width="2" height="76" fill="#FFFFFF" opacity="0.759" /><rect x="556" y="1070" width="32" height="2" fill="#FFFFFF" opacity="0.513" /><rect x="571" y="1055" width="2" height="32" fill="#FFFFFF" opacity="0.513" /><rect x="1310" y="1502" width="36" height="2" fill="#FFFFFF" opacity="0.447" /><rect x="1327" y="1485" width="2" height="36" fill="#FFFFFF" opacity="0.447" /><rect x="448" y="1118" width="66" height="2" fill="#FFFFFF" opacity="0.703" /><rect x="480" y="1086" width="2" height="66" fill="#FFFFFF" opacity="0.703" /><rect x="2464" y="2589" width="40" height="2" fill="#FFFFFF" opacity="0.533" /><rect x="2483" y="2570" width="2" height="40" fill="#FFFFFF" opacity="0.533" /></g>
  <g opacity="0.52"><path d="M1572 1006 L2148 1582 L1572 2158 L996 1582 Z" fill="none" stroke="#0C2030" stroke-width="90" stroke-linejoin="round" /><circle cx="1572" cy="1582" r="153" fill="#0C2030" /></g>
  <g filter="url(#soft352)"><path d="M1536 960 L2112 1536 L1536 2112 L960 1536 Z" fill="none" stroke="url(#symbol352)" stroke-width="90" stroke-linejoin="round" /><circle cx="1536" cy="1536" r="153" fill="url(#symbol352)" /></g>
  <rect x="138" y="138" width="2796" height="2796" rx="629" fill="#FFFFFF" filter="url(#grain352)" opacity="0.18" />
</svg>
