<svg xmlns="http://www.w3.org/2000/svg" width="3072" height="3072" viewBox="0 0 3072 3072">
  <title>QuartzOS App Icon 033 - neon_studio_033</title>
  <defs><linearGradient id="bg32" x1="0%" y1="0%" x2="100%" y2="100%"><stop offset="0%" stop-color="#FF9F43" /><stop offset="26%" stop-color="#53E3A6" /><stop offset="56%" stop-color="#3B82FF" /><stop offset="78%" stop-color="#3C8FC1" /><stop offset="100%" stop-color="#1E2E3A" /></linearGradient><radialGradient id="sun32" cx="28%" cy="8%" r="88%"><stop offset="0%" stop-color="#FFFFFF" stop-opacity="0.62" /><stop offset="30%" stop-color="#8A5CFF" stop-opacity="0.35" /><stop offset="100%" stop-color="#8A5CFF" stop-opacity="0" /></radialGradient><linearGradient id="glass32" x1="0%" y1="0%" x2="0%" y2="100%"><stop offset="0%" stop-color="#FFFFFF" stop-opacity="0.70" /><stop offset="46%" stop-color="#FFFFFF" stop-opacity="0.26" /><stop offset="100%" stop-color="#FFFFFF" stop-opacity="0.00" /></linearGradient><linearGradient id="ribbon32" x1="0%" y1="0%" x2="100%" y2="0%"><stop offset="0%" stop-color="#FF9F43" stop-opacity="0.18" /><stop offset="34%" stop-color="#53E3A6" stop-opacity="0.72" /><stop offset="66%" stop-color="#3B82FF" stop-opacity="0.72" /><stop offset="100%" stop-color="#8A5CFF" stop-opacity="0.18" /></linearGradient><radialGradient id="orb32" cx="34%" cy="27%" r="74%"><stop offset="0%" stop-color="#FFFFFF" stop-opacity="0.84" /><stop offset="30%" stop-color="#FF9F43" stop-opacity="0.52" /><stop offset="68%" stop-color="#53E3A6" stop-opacity="0.42" /><stop offset="100%" stop-color="#3B82FF" stop-opacity="0.20" /></radialGradient><linearGradient id="extrude32" x1="0%" y1="0%" x2="0%" y2="100%"><stop offset="0%" stop-color="#15283C" stop-opacity="0.45" /><stop offset="100%" stop-color="#08131D" stop-opacity="0.06" /></linearGradient><linearGradient id="symbol32" x1="0%" y1="0%" x2="100%" y2="100%"><stop offset="0%" stop-color="#FFFFFF" /><stop offset="100%" stop-color="#8A5CFF" /></linearGradient><filter id="shadow32" x="-40%" y="-40%" width="180%" height="180%"><feDropShadow dx="0" dy="49" stdDeviation="86" flood-color="#06111A" flood-opacity="0.54" /></filter><filter id="soft32" x="-40%" y="-40%" width="180%" height="180%"><feDropShadow dx="0" dy="0" stdDeviation="14" flood-color="#FF9F43" flood-opacity="0.45" /></filter><filter id="grain32"><feTurbulence type="fractalNoise" baseFrequency="0.775" numOctaves="2" seed="32" /><feColorMatrix type="saturate" values="0" /><feComponentTransfer><feFuncA type="table" tableValues="0 0.09" /></feComponentTransfer></filter></defs>
  <rect x="138" y="138" width="2796" height="2796" rx="629" fill="url(#bg32)" filter="url(#shadow32)" />
  <rect x="138" y="138" width="2796" height="2796" rx="629" fill="url(#sun32)" />
  <g><circle cx="819" cy="1523" r="56" fill="#FFFFFF" opacity="0.203" /><circle cx="2611" cy="1741" r="147" fill="#FFFFFF" opacity="0.160" /><circle cx="992" cy="954" r="101" fill="#FFFFFF" opacity="0.172" /><circle cx="1825" cy="459" r="99" fill="#FFFFFF" opacity="0.113" /><circle cx="1844" cy="1466" r="136" fill="#FFFFFF" opacity="0.104" /><circle cx="1574" cy="1499" r="59" fill="#FFFFFF" opacity="0.206" /><circle cx="2174" cy="478" r="79" fill="#FFFFFF" opacity="0.143" /><circle cx="2017" cy="1982" r="103" fill="#FFFFFF" opacity="0.126" /><circle cx="2366" cy="590" r="46" fill="#FFFFFF" opacity="0.160" /><circle cx="1765" cy="1922" r="138" fill="#FFFFFF" opacity="0.081" /><circle cx="1363" cy="390" r="116" fill="#FFFFFF" opacity="0.120" /><circle cx="1931" cy="796" r="81" fill="#FFFFFF" opacity="0.208" /><circle cx="1965" cy="403" r="117" fill="#FFFFFF" opacity="0.238" /><circle cx="2156" cy="2066" r="44" fill="#FFFFFF" opacity="0.130" /><circle cx="1088" cy="2579" r="150" fill="#FFFFFF" opacity="0.206" /><circle cx="2627" cy="1670" r="155" fill="#FFFFFF" opacity="0.095" /><circle cx="2360" cy="966" r="143" fill="#FFFFFF" opacity="0.177" /><circle cx="389" cy="1222" r="149" fill="#FFFFFF" opacity="0.101" /><circle cx="2001" cy="1870" r="141" fill="#FFFFFF" opacity="0.101" /><circle cx="991" cy="402" r="58" fill="#FFFFFF" opacity="0.076" /><circle cx="1713" cy="1642" r="126" fill="#FFFFFF" opacity="0.111" /><circle cx="1092" cy="2065" r="68" fill="#FFFFFF" opacity="0.188" /><circle cx="1856" cy="1151" r="76" fill="#FFFFFF" opacity="0.144" /><circle cx="388" cy="1337" r="120" fill="#FFFFFF" opacity="0.061" /><circle cx="616" cy="1840" r="41" fill="#FFFFFF" opacity="0.080" /><circle cx="855" cy="1812" r="143" fill="#FFFFFF" opacity="0.097" /><circle cx="1491" cy="2532" r="102" fill="#FFFFFF" opacity="0.201" /><circle cx="2630" cy="1344" r="49" fill="#FFFFFF" opacity="0.085" /></g>
  <g><path d="M 297.1 595.9 L 2783.9 319.5 L 2783.9 788.4 L 297.1 1064.8 Z" fill="#FFFFFF" opacity="0.138" /><path d="M 268.4 916.1 L 2725.9 639.6 L 2725.9 1095.2 L 268.4 1371.7 Z" fill="#FFFFFF" opacity="0.120" /><path d="M 300.3 1096.5 L 2882.1 820.0 L 2882.1 1312.4 L 300.3 1588.9 Z" fill="#FFFFFF" opacity="0.092" /><path d="M 190.7 1369.7 L 2728.5 1093.2 L 2728.5 1543.0 L 190.7 1819.5 Z" fill="#FFFFFF" opacity="0.152" /><path d="M 367.0 1622.4 L 2902.2 1345.9 L 2902.2 1768.2 L 367.0 2044.6 Z" fill="#FFFFFF" opacity="0.129" /><path d="M 364.3 1919.7 L 2783.0 1643.2 L 2783.0 2118.3 L 364.3 2394.8 Z" fill="#FFFFFF" opacity="0.132" /><path d="M 199.8 2161.6 L 2798.8 1885.1 L 2798.8 2311.1 L 199.8 2587.6 Z" fill="#FFFFFF" opacity="0.149" /><path d="M 152.1 2399.7 L 2771.5 2123.2 L 2771.5 2619.8 L 152.1 2896.3 Z" fill="#FFFFFF" opacity="0.229" /></g>
  <g filter="url(#soft32)"><g transform="rotate(-10.55 1536.0 1536.0)"><path d="M-368.6 515.7 C -225.8 527.0, -25.8 503.4, 107.5 485.3 C 250.4 477.8, 450.4 540.3, 583.7 461.4 C 726.5 467.3, 926.5 545.1, 1059.8 470.4 C 1202.7 478.6, 1402.7 529.5, 1536.0 506.9 C 1678.8 506.2, 1878.8 522.3, 2012.2 548.8 C 2155.0 542.0, 2355.0 483.2, 2488.3 570.5 C 2631.2 569.8, 2831.2 457.5, 2964.5 559.1 C 3107.3 570.1, 3307.3 470.5, 3440.6 521.3" fill="none" stroke="url(#ribbon32)" stroke-width="58.4" stroke-linecap="round" stroke-opacity="0.120" /></g><g transform="rotate(-9.97 1536.0 1536.0)"><path d="M-368.6 718.3 C -241.7 657.7, -63.9 775.7, 54.6 708.2 C 181.6 706.1, 359.4 725.1, 477.9 755.4 C 604.8 748.4, 782.6 684.3, 901.1 780.1 C 1028.1 800.2, 1205.9 684.1, 1324.4 767.3 C 1451.3 772.9, 1629.1 682.5, 1747.6 724.8 C 1874.6 726.1, 2052.4 715.0, 2170.9 678.3 C 2297.9 676.4, 2475.6 751.7, 2594.1 656.1 C 2721.1 631.5, 2898.9 778.0, 3017.4 671.6 C 3144.4 658.0, 3322.1 757.0, 3440.6 715.5" fill="none" stroke="url(#ribbon32)" stroke-width="54.4" stroke-linecap="round" stroke-opacity="0.146" /></g><g transform="rotate(-9.39 1536.0 1536.0)"><path d="M-368.6 886.3 C -254.4 955.1, -94.4 855.0, 12.3 942.8 C 126.6 965.4, 286.6 865.9, 393.2 896.8 C 507.5 895.2, 667.5 876.8, 774.1 844.4 C 888.4 830.7, 1048.4 933.6, 1155.1 817.4 C 1269.4 835.0, 1429.3 911.3, 1536.0 832.3 C 1650.3 836.2, 1810.3 906.4, 1916.9 879.9 C 2031.2 878.6, 2191.2 889.2, 2297.9 931.4 C 2412.1 929.8, 2572.1 832.8, 2678.8 955.6 C 2793.1 964.2, 2953.1 841.1, 3059.7 937.7 C 3174.0 922.1, 3334.0 869.5, 3440.6 888.7" fill="none" stroke="url(#ribbon32)" stroke-width="50.4" stroke-linecap="round" stroke-opacity="0.172" /></g><g transform="rotate(-8.81 1536.0 1536.0)"><path d="M-368.6 1153.7 C -264.8 1208.0, -119.3 1112.1, -22.3 1215.0 C 81.5 1192.8, 227.0 1119.5, 324.0 1163.6 C 427.8 1162.6, 573.3 1143.8, 670.3 1106.2 C 774.1 1087.8, 919.6 1193.0, 1016.6 1077.6 C 1120.4 1105.4, 1265.9 1212.2, 1362.9 1095.1 C 1466.7 1077.6, 1612.2 1197.9, 1709.1 1148.2 C 1813.0 1148.3, 1958.5 1157.3, 2055.4 1204.6 C 2159.3 1197.3, 2304.8 1119.4, 2401.7 1230.1 C 2505.6 1226.5, 2651.1 1097.5, 2748.0 1209.3 C 2851.9 1218.4, 2997.4 1133.0, 3094.3 1154.7 C 3198.2 1154.6, 3343.7 1152.9, 3440.6 1099.5" fill="none" stroke="url(#ribbon32)" stroke-width="46.4" stroke-linecap="round" stroke-opacity="0.198" /></g><g transform="rotate(-8.23 1536.0 1536.0)"><path d="M-368.6 1302.9 C -273.4 1361.3, -140.1 1220.7, -51.2 1362.5 C 44.0 1346.4, 177.4 1283.5, 266.2 1302.4 C 361.5 1302.6, 494.8 1303.0, 583.7 1242.6 C 678.9 1220.9, 812.2 1375.0, 901.1 1219.3 C 996.4 1228.5, 1129.7 1335.3, 1218.6 1246.7 C 1313.8 1260.6, 1447.1 1326.9, 1536.0 1308.2 C 1631.2 1308.5, 1764.6 1299.0, 1853.4 1366.4 C 1948.7 1347.6, 2082.0 1282.2, 2170.9 1386.1 C 2266.1 1403.4, 2399.4 1256.1, 2488.3 1355.3 C 2583.6 1362.4, 2716.9 1247.1, 2805.8 1292.7 C 2901.0 1294.0, 3034.3 1314.8, 3123.2 1236.3 C 3218.4 1259.5, 3351.8 1338.5, 3440.6 1220.3" fill="none" stroke="url(#ribbon32)" stroke-width="42.4" stroke-linecap="round" stroke-opacity="0.224" /></g><g transform="rotate(-7.65 1536.0 1536.0)"><path d="M-368.6 1540.0 C -225.8 1481.7, -25.8 1565.8, 107.5 1449.5 C 250.4 1439.9, 450.4 1624.4, 583.7 1481.0 C 726.5 1485.9, 926.5 1578.0, 1059.8 1548.2 C 1202.7 1550.4, 1402.7 1530.6, 1536.0 1610.5 C 1678.8 1582.4, 1878.8 1498.1, 2012.2 1630.0 C 2155.0 1621.6, 2355.0 1434.0, 2488.3 1594.9 C 2631.2 1576.7, 2831.2 1519.3, 2964.5 1526.5 C 3107.3 1528.6, 3307.3 1545.3, 3440.6 1466.3" fill="none" stroke="url(#ribbon32)" stroke-width="38.4" stroke-linecap="round" stroke-opacity="0.250" /></g><g transform="rotate(-7.07 1536.0 1536.0)"><path d="M-368.6 1634.0 C -241.7 1613.0, -63.9 1654.9, 54.6 1551.3 C 181.6 1561.5, 359.4 1687.7, 477.9 1539.1 C 604.8 1510.5, 782.6 1687.8, 901.1 1584.4 C 1028.1 1583.2, 1205.9 1663.5, 1324.4 1659.9 C 1451.3 1656.9, 1629.1 1623.2, 1747.6 1719.6 C 1874.6 1748.0, 2052.4 1607.7, 2170.9 1727.5 C 2297.9 1751.9, 2475.6 1555.1, 2594.1 1678.6 C 2721.1 1691.1, 2898.9 1616.2, 3017.4 1602.7 C 3144.4 1605.3, 3322.1 1657.4, 3440.6 1545.8" fill="none" stroke="url(#ribbon32)" stroke-width="34.4" stroke-linecap="round" stroke-opacity="0.276" /></g><g transform="rotate(-6.49 1536.0 1536.0)"><path d="M-368.6 1890.5 C -254.4 1764.9, -94.4 1949.8, 12.3 1849.2 C 126.6 1842.1, 286.6 1913.9, 393.2 1930.8 C 507.5 1929.5, 667.5 1864.1, 774.1 1987.9 C 888.4 1967.1, 1048.4 1835.9, 1155.1 1985.9 C 1269.4 1993.7, 1429.3 1788.2, 1536.0 1926.0 C 1650.3 1932.0, 1810.3 1861.0, 1916.9 1844.5 C 2031.2 1854.8, 2191.2 1908.6, 2297.9 1790.9 C 2412.1 1770.8, 2572.1 1934.7, 2678.8 1797.7 C 2793.1 1834.5, 2953.1 1997.0, 3059.7 1860.7 C 3174.0 1862.8, 3334.0 1908.1, 3440.6 1941.8" fill="none" stroke="url(#ribbon32)" stroke-width="30.4" stroke-linecap="round" stroke-opacity="0.302" /></g><g transform="rotate(-5.91 1536.0 1536.0)"><path d="M-368.6 2101.2 C -264.8 2208.0, -119.3 2001.8, -22.3 2212.5 C 81.5 2206.1, 227.0 1989.7, 324.0 2171.5 C 427.8 2190.8, 573.3 2023.3, 670.3 2087.8 C 774.1 2084.5, 919.6 2107.5, 1016.6 2012.2 C 1120.4 2005.0, 1265.9 2190.0, 1362.9 1990.6 C 1466.7 1978.2, 1612.2 2179.7, 1709.1 2036.1 C 1813.0 2052.8, 1958.5 2132.8, 2055.4 2121.0 C 2159.3 2128.0, 2304.8 2082.0, 2401.7 2194.0 C 2505.6 2222.3, 2651.1 1995.8, 2748.0 2210.6 C 2851.9 2217.8, 2997.4 2063.3, 3094.3 2160.8 C 3198.2 2174.6, 3343.7 2072.1, 3440.6 2074.9" fill="none" stroke="url(#ribbon32)" stroke-width="26.4" stroke-linecap="round" stroke-opacity="0.328" /></g><g transform="rotate(-5.33 1536.0 1536.0)"><path d="M-368.6 2259.9 C -273.4 2329.0, -140.1 2188.4, -51.2 2377.0 C 44.0 2420.0, 177.4 2195.8, 266.2 2356.4 C 361.5 2364.0, 494.8 2187.6, 583.7 2277.2 C 678.9 2272.9, 812.2 2252.7, 901.1 2187.6 C 996.4 2197.8, 1129.7 2344.3, 1218.6 2141.8 C 1313.8 2128.8, 1447.1 2366.8, 1536.0 2167.7 C 1631.2 2149.1, 1764.6 2369.3, 1853.4 2249.5 C 1948.7 2245.8, 2082.0 2267.5, 2170.9 2337.6 C 2266.1 2359.9, 2399.4 2198.0, 2488.3 2378.6 C 2583.6 2413.0, 2716.9 2182.0, 2805.8 2347.6 C 2901.0 2353.8, 3034.3 2186.9, 3123.2 2263.4 C 3218.4 2264.7, 3351.8 2257.8, 3440.6 2177.1" fill="none" stroke="url(#ribbon32)" stroke-width="22.4" stroke-linecap="round" stroke-opacity="0.354" /></g><g transform="rotate(-4.75 1536.0 1536.0)"><path d="M-368.6 2408.7 C -225.8 2320.4, -25.8 2492.2, 107.5 2380.5 C 250.4 2370.7, 450.4 2418.5, 583.7 2477.1 C 726.5 2455.2, 926.5 2332.7, 1059.8 2532.2 C 1202.7 2483.0, 1402.7 2371.2, 1536.0 2512.4 C 1678.8 2534.0, 1878.8 2286.0, 2012.2 2429.7 C 2155.0 2433.1, 2355.0 2387.9, 2488.3 2334.2 C 2631.2 2316.9, 2831.2 2440.0, 2964.5 2283.9 C 3107.3 2281.9, 3307.3 2484.3, 3440.6 2309.3" fill="none" stroke="url(#ribbon32)" stroke-width="18.4" stroke-linecap="round" stroke-opacity="0.380" /></g><g transform="rotate(-4.17 1536.0 1536.0)"><path d="M-368.6 2600.8 C -241.7 2545.2, -63.9 2640.5, 54.6 2660.2 C 181.6 2677.1, 359.4 2561.5, 477.9 2727.6 C 604.8 2772.8, 782.6 2514.7, 901.1 2718.1 C 1028.1 2707.9, 1205.9 2468.8, 1324.4 2637.4 C 1451.3 2636.6, 1629.1 2581.6, 1747.6 2534.6 C 1874.6 2554.2, 2052.4 2647.7, 2170.9 2471.9 C 2297.9 2467.8, 2475.6 2681.7, 2594.1 2487.5 C 2721.1 2495.2, 2898.9 2662.0, 3017.4 2571.8 C 3144.4 2570.3, 3322.1 2624.2, 3440.6 2673.7" fill="none" stroke="url(#ribbon32)" stroke-width="14.4" stroke-linecap="round" stroke-opacity="0.406" /></g></g>
  <g><ellipse cx="1536.0" cy="1551.9" rx="728.6" ry="605.7" fill="url(#extrude32)" opacity="0.220" /><ellipse cx="1536.0" cy="1567.7" rx="736.0" ry="610.9" fill="url(#extrude32)" opacity="0.205" /><ellipse cx="1536.0" cy="1583.6" rx="743.4" ry="616.1" fill="url(#extrude32)" opacity="0.190" /><ellipse cx="1536.0" cy="1599.5" rx="750.9" ry="621.3" fill="url(#extrude32)" opacity="0.175" /><ellipse cx="1536.0" cy="1615.4" rx="758.3" ry="626.5" fill="url(#extrude32)" opacity="0.160" /><ellipse cx="1536.0" cy="1631.2" rx="765.7" ry="631.7" fill="url(#extrude32)" opacity="0.145" /><ellipse cx="1536.0" cy="1647.1" rx="773.2" ry="636.9" fill="url(#extrude32)" opacity="0.130" /><ellipse cx="1536.0" cy="1663.0" rx="780.6" ry="642.1" fill="url(#extrude32)" opacity="0.115" /><ellipse cx="1536.0" cy="1678.8" rx="788.0" ry="647.4" fill="url(#extrude32)" opacity="0.100" /><ellipse cx="1536.0" cy="1694.7" rx="795.5" ry="652.6" fill="url(#extrude32)" opacity="0.085" /><ellipse cx="1536.0" cy="1710.6" rx="802.9" ry="657.8" fill="url(#extrude32)" opacity="0.070" /><ellipse cx="1536.0" cy="1726.5" rx="810.3" ry="663.0" fill="url(#extrude32)" opacity="0.055" /></g>
  <ellipse cx="1536.0" cy="1726.5" rx="773.2" ry="214.9" fill="#0B1D2D" opacity="0.24" />
  <ellipse cx="1536.0" cy="1536.0" rx="743.4" ry="651.3" fill="url(#orb32)" stroke="#FFFFFF" stroke-opacity="0.42" stroke-width="7" />
  <ellipse cx="1431.9" cy="1392.7" rx="505.5" ry="299.6" fill="#FFFFFF" opacity="0.25" />
  <path d="M 199.4 399.4 C 1013.8 -30.7, 2058.2 768.0, 2872.6 215.0 L 2872.6 983.0 C 2089.0 1228.8, 1013.8 307.2, 199.4 1167.4 Z" fill="url(#glass32)" />
  <rect x="270" y="270" width="2532" height="2532" rx="430" fill="none" stroke="#FFFFFF" stroke-opacity="0.30" stroke-width="5" />
  <rect x="288.4" y="288.4" width="2495.1" height="2495.1" rx="399" fill="none" stroke="#FF9F43" stroke-opacity="0.35" stroke-width="3" />
  <g filter="url(#soft32)"><rect x="2547" y="335" width="52" height="2" fill="#FFFFFF" opacity="0.377" /><rect x="2572" y="310" width="2" height="52" fill="#FFFFFF" opacity="0.377" /><rect x="1860" y="1219" width="66" height="2" fill="#FFFFFF" opacity="0.468" /><rect x="1892" y="1187" width="2" height="66" fill="#FFFFFF" opacity="0.468" /><rect x="636" y="453" width="30" height="2" fill="#FFFFFF" opacity="0.825" /><rect x="650" y="439" width="2" height="30" fill="#FFFFFF" opacity="0.825" /><rect x="594" y="1249" width="34" height="2" fill="#FFFFFF" opacity="0.307" /><rect x="610" y="1233" width="2" height="34" fill="#FFFFFF" opacity="0.307" /><rect x="1688" y="1352" width="54" height="2" fill="#FFFFFF" opacity="0.675" /><rect x="1714" y="1326" width="2" height="54" fill="#FFFFFF" opacity="0.675" /><rect x="1033" y="1300" width="66" height="2" fill="#FFFFFF" opacity="0.440" /><rect x="1065" y="1268" width="2" height="66" fill="#FFFFFF" opacity="0.440" /><rect x="1542" y="668" width="50" height="2" fill="#FFFFFF" opacity="0.507" /><rect x="1566" y="644" width="2" height="50" fill="#FFFFFF" opacity="0.507" /><rect x="1373" y="1220" width="80" height="2" fill="#FFFFFF" opacity="0.806" /><rect x="1412" y="1181" width="2" height="80" fill="#FFFFFF" opacity="0.806" /><rect x="1772" y="1264" width="48" height="2" fill="#FFFFFF" opacity="0.753" /><rect x="1795" y="1241" width="2" height="48" fill="#FFFFFF" opacity="0.753" /><rect x="2774" y="1407" width="72" height="2" fill="#FFFFFF" opacity="0.614" /><rect x="2809" y="1372" width="2" height="72" fill="#FFFFFF" opacity="0.614" /><rect x="920" y="2223" width="44" height="2" fill="#FFFFFF" opacity="0.398" /><rect x="941" y="2202" width="2" height="44" fill="#FFFFFF" opacity="0.398" /><rect x="2208" y="2692" width="66" height="2" fill="#FFFFFF" opacity="0.765" /><rect x="2240" y="2660" width="2" height="66" fill="#FFFFFF" opacity="0.765" /><rect x="292" y="1334" width="40" height="2" fill="#FFFFFF" opacity="0.657" /><rect x="311" y="1315" width="2" height="40" fill="#FFFFFF" opacity="0.657" /><rect x="2472" y="2607" width="50" height="2" fill="#FFFFFF" opacity="0.812" /><rect x="2496" y="2583" width="2" height="50" fill="#FFFFFF" opacity="0.812" /><rect x="1729" y="1512" width="58" height="2" fill="#FFFFFF" opacity="0.439" /><rect x="1757" y="1484" width="2" height="58" fill="#FFFFFF" opacity="0.439" /><rect x="1520" y="624" width="30" height="2" fill="#FFFFFF" opacity="0.351" /><rect x="1534" y="610" width="2" height="30" fill="#FFFFFF" opacity="0.351" /><rect x="2445" y="1001" width="40" height="2" fill="#FFFFFF" opacity="0.644" /><rect x="2464" y="982" width="2" height="40" fill="#FFFFFF" opacity="0.644" /><rect x="1486" y="2292" width="60" height="2" fill="#FFFFFF" opacity="0.452" /><rect x="1515" y="2263" width="2" height="60" fill="#FFFFFF" opacity="0.452" /><rect x="1858" y="2629" width="26" height="2" fill="#FFFFFF" opacity="0.796" /><rect x="1870" y="2617" width="2" height="26" fill="#FFFFFF" opacity="0.796" /><rect x="2239" y="2121" width="30" height="2" fill="#FFFFFF" opacity="0.718" /><rect x="2253" y="2107" width="2" height="30" fill="#FFFFFF" opacity="0.718" /><rect x="528" y="1809" width="24" height="2" fill="#FFFFFF" opacity="0.659" /><rect x="539" y="1798" width="2" height="24" fill="#FFFFFF" opacity="0.659" /><rect x="1740" y="630" width="34" height="2" fill="#FFFFFF" opacity="0.783" /><rect x="1756" y="614" width="2" height="34" fill="#FFFFFF" opacity="0.783" /><rect x="1079" y="1146" width="42" height="2" fill="#FFFFFF" opacity="0.791" /><rect x="1099" y="1126" width="2" height="42" fill="#FFFFFF" opacity="0.791" /><rect x="1314" y="2659" width="24" height="2" fill="#FFFFFF" opacity="0.744" /><rect x="1325" y="2648" width="2" height="24" fill="#FFFFFF" opacity="0.744" /><rect x="1106" y="1272" width="68" height="2" fill="#FFFFFF" opacity="0.374" /><rect x="1139" y="1239" width="2" height="68" fill="#FFFFFF" opacity="0.374" /><rect x="2611" y="1984" width="30" height="2" fill="#FFFFFF" opacity="0.521" /><rect x="2625" y="1970" width="2" height="30" fill="#FFFFFF" opacity="0.521" /></g>
  <g opacity="0.52"><path d="M1023 1326 L1572 1070 L2121 1326 L2121 2043 L1023 2043 Z" fill="none" stroke="#0C2030" stroke-width="90" stroke-linejoin="round" /><line x1="1572" y1="1070" x2="1572" y2="2043" stroke="#0C2030" stroke-width="88" /></g>
  <g filter="url(#soft32)"><path d="M987 1280 L1536 1024 L2085 1280 L2085 1997 L987 1997 Z" fill="none" stroke="url(#symbol32)" stroke-width="90" stroke-linejoin="round" /><line x1="1536" y1="1024" x2="1536" y2="1997" stroke="url(#symbol32)" stroke-width="88" /></g>
  <rect x="138" y="138" width="2796" height="2796" rx="629" fill="#FFFFFF" filter="url(#grain32)" opacity="0.18" />
</svg>
