<svg xmlns="http://www.w3.org/2000/svg" width="3072" height="3072" viewBox="0 0 3072 3072">
  <title>QuartzOS App Icon 113 - neon_cloud_113</title>
  <defs><linearGradient id="bg112" x1="0%" y1="0%" x2="100%" y2="100%"><stop offset="0%" stop-color="#36D1FF" /><stop offset="26%" stop-color="#8A5CFF" /><stop offset="56%" stop-color="#FF9F43" /><stop offset="78%" stop-color="#5AA47F" /><stop offset="100%" stop-color="#1A2B22" /></linearGradient><radialGradient id="sun112" cx="29%" cy="20%" r="88%"><stop offset="0%" stop-color="#FFFFFF" stop-opacity="0.62" /><stop offset="30%" stop-color="#FFD84D" stop-opacity="0.35" /><stop offset="100%" stop-color="#FFD84D" stop-opacity="0" /></radialGradient><linearGradient id="glass112" x1="0%" y1="0%" x2="0%" y2="100%"><stop offset="0%" stop-color="#FFFFFF" stop-opacity="0.70" /><stop offset="46%" stop-color="#FFFFFF" stop-opacity="0.26" /><stop offset="100%" stop-color="#FFFFFF" stop-opacity="0.00" /></linearGradient><linearGradient id="ribbon112" x1="0%" y1="0%" x2="100%" y2="0%"><stop offset="0%" stop-color="#36D1FF" stop-opacity="0.18" /><stop offset="34%" stop-color="#8A5CFF" stop-opacity="0.72" /><stop offset="66%" stop-color="#FF9F43" stop-opacity="0.72" /><stop offset="100%" stop-color="#FFD84D" stop-opacity="0.18" /></linearGradient><radialGradient id="orb112" cx="34%" cy="27%" r="74%"><stop offset="0%" stop-color="#FFFFFF" stop-opacity="0.84" /><stop offset="30%" stop-color="#36D1FF" stop-opacity="0.52" /><stop offset="68%" stop-color="#8A5CFF" stop-opacity="0.42" /><stop offset="100%" stop-color="#FF9F43" stop-opacity="0.20" /></radialGradient><linearGradient id="extrude112" x1="0%" y1="0%" x2="0%" y2="100%"><stop offset="0%" stop-color="#15283C" stop-opacity="0.45" /><stop offset="100%" stop-color="#08131D" stop-opacity="0.06" /></linearGradient><linearGradient id="symbol112" x1="0%" y1="0%" x2="100%" y2="100%"><stop offset="0%" stop-color="#FFFFFF" /><stop offset="100%" stop-color="#FFD84D" /></linearGradient><filter id="shadow112" x="-40%" y="-40%" width="180%" height="180%"><feDropShadow dx="0" dy="49" stdDeviation="86" flood-color="#06111A" flood-opacity="0.54" /></filter><filter id="soft112" x="-40%" y="-40%" width="180%" height="180%"><feDropShadow dx="0" dy="0" stdDeviation="14" flood-color="#36D1FF" flood-opacity="0.45" /></filter><filter id="grain112"><feTurbulence type="fractalNoise" baseFrequency="0.714" numOctaves="2" seed="112" /><feColorMatrix type="saturate" values="0" /><feComponentTransfer><feFuncA type="table" tableValues="0 0.09" /></feComponentTransfer></filter></defs>
  <rect x="138" y="138" width="2796" height="2796" rx="629" fill="url(#bg112)" filter="url(#shadow112)" />
  <rect x="138" y="138" width="2796" height="2796" rx="629" fill="url(#sun112)" />
  <g><circle cx="2633" cy="1500" r="42" fill="#FFFFFF" opacity="0.147" /><circle cx="2553" cy="347" r="117" fill="#FFFFFF" opacity="0.121" /><circle cx="691" cy="689" r="63" fill="#FFFFFF" opacity="0.165" /><circle cx="2695" cy="1301" r="65" fill="#FFFFFF" opacity="0.173" /><circle cx="830" cy="1879" r="138" fill="#FFFFFF" opacity="0.135" /><circle cx="2606" cy="624" r="84" fill="#FFFFFF" opacity="0.165" /><circle cx="1753" cy="2570" r="157" fill="#FFFFFF" opacity="0.180" /><circle cx="723" cy="2555" r="116" fill="#FFFFFF" opacity="0.139" /><circle cx="713" cy="866" r="102" fill="#FFFFFF" opacity="0.183" /><circle cx="1842" cy="2305" r="101" fill="#FFFFFF" opacity="0.235" /><circle cx="698" cy="363" r="111" fill="#FFFFFF" opacity="0.130" /><circle cx="1028" cy="1509" r="80" fill="#FFFFFF" opacity="0.070" /><circle cx="2599" cy="1412" r="58" fill="#FFFFFF" opacity="0.068" /><circle cx="1538" cy="456" r="56" fill="#FFFFFF" opacity="0.070" /><circle cx="1012" cy="317" r="128" fill="#FFFFFF" opacity="0.202" /><circle cx="1358" cy="666" r="106" fill="#FFFFFF" opacity="0.073" /><circle cx="2377" cy="1270" r="44" fill="#FFFFFF" opacity="0.066" /><circle cx="2077" cy="1012" r="141" fill="#FFFFFF" opacity="0.232" /><circle cx="2403" cy="2665" r="147" fill="#FFFFFF" opacity="0.170" /><circle cx="392" cy="1792" r="156" fill="#FFFFFF" opacity="0.083" /><circle cx="2156" cy="944" r="148" fill="#FFFFFF" opacity="0.201" /><circle cx="1933" cy="2356" r="123" fill="#FFFFFF" opacity="0.104" /><circle cx="2122" cy="2373" r="98" fill="#FFFFFF" opacity="0.073" /><circle cx="1391" cy="1874" r="139" fill="#FFFFFF" opacity="0.179" /><circle cx="2243" cy="2030" r="143" fill="#FFFFFF" opacity="0.209" /><circle cx="1310" cy="862" r="87" fill="#FFFFFF" opacity="0.186" /><circle cx="942" cy="1868" r="155" fill="#FFFFFF" opacity="0.188" /><circle cx="1837" cy="1053" r="43" fill="#FFFFFF" opacity="0.196" /></g>
  <g><path d="M 196.2 650.7 L 2834.5 374.2 L 2834.5 864.5 L 196.2 1141.0 Z" fill="#FFFFFF" opacity="0.132" /><path d="M 227.9 864.9 L 2721.1 588.4 L 2721.1 1066.7 L 227.9 1343.1 Z" fill="#FFFFFF" opacity="0.207" /><path d="M 194.8 1159.7 L 2824.4 883.2 L 2824.4 1323.5 L 194.8 1600.0 Z" fill="#FFFFFF" opacity="0.112" /><path d="M 223.5 1440.1 L 2735.1 1163.6 L 2735.1 1617.9 L 223.5 1894.4 Z" fill="#FFFFFF" opacity="0.208" /><path d="M 161.8 1677.4 L 2806.9 1401.0 L 2806.9 1845.8 L 161.8 2122.3 Z" fill="#FFFFFF" opacity="0.131" /><path d="M 253.3 1916.6 L 2706.4 1640.2 L 2706.4 2136.3 L 253.3 2412.8 Z" fill="#FFFFFF" opacity="0.111" /><path d="M 162.2 2190.5 L 2739.0 1914.0 L 2739.0 2389.3 L 162.2 2665.8 Z" fill="#FFFFFF" opacity="0.119" /><path d="M 201.5 2407.9 L 2704.3 2131.5 L 2704.3 2616.4 L 201.5 2892.8 Z" fill="#FFFFFF" opacity="0.170" /></g>
  <g filter="url(#soft112)"><g transform="rotate(-20.57 1536.0 1536.0)"><path d="M-368.6 571.0 C -225.8 502.3, -25.8 620.8, 107.5 533.9 C 250.4 520.8, 450.4 595.6, 583.7 574.6 C 726.5 575.9, 926.5 568.7, 1059.8 613.1 C 1202.7 606.4, 1402.7 535.7, 1536.0 626.0 C 1678.8 610.7, 1878.8 526.1, 2012.2 605.6 C 2155.0 613.0, 2355.0 529.9, 2488.3 564.1 C 2631.2 563.1, 2831.2 574.9, 2964.5 526.8 C 3107.3 520.3, 3307.3 612.1, 3440.6 516.3" fill="none" stroke="url(#ribbon112)" stroke-width="58.4" stroke-linecap="round" stroke-opacity="0.120" /></g><g transform="rotate(-19.99 1536.0 1536.0)"><path d="M-368.6 675.9 C -241.7 758.2, -63.9 624.5, 54.6 704.6 C 181.6 701.2, 359.4 658.0, 477.9 656.1 C 604.8 654.3, 782.6 697.7, 901.1 619.7 C 1028.1 614.6, 1205.9 743.1, 1324.4 617.4 C 1451.3 639.0, 1629.1 723.3, 1747.6 650.6 C 1874.6 643.4, 2052.4 683.8, 2170.9 699.1 C 2297.9 691.8, 2475.6 657.5, 2594.1 733.6 C 2721.1 733.5, 2898.9 614.6, 3017.4 733.1 C 3144.4 738.7, 3322.1 647.5, 3440.6 697.9" fill="none" stroke="url(#ribbon112)" stroke-width="54.4" stroke-linecap="round" stroke-opacity="0.146" /></g><g transform="rotate(-19.41 1536.0 1536.0)"><path d="M-368.6 941.7 C -254.4 911.8, -94.4 957.8, 12.3 877.0 C 126.6 875.8, 286.6 1010.7, 393.2 878.5 C 507.5 856.9, 667.5 969.1, 774.1 918.4 C 888.4 922.2, 1048.4 959.5, 1155.1 972.4 C 1269.4 970.3, 1429.3 906.6, 1536.0 1007.7 C 1650.3 993.3, 1810.3 910.1, 1916.9 1003.1 C 2031.2 998.9, 2191.2 915.2, 2297.9 961.1 C 2412.1 955.7, 2572.1 928.2, 2678.8 907.4 C 2793.1 893.9, 2953.1 982.7, 3059.7 874.5 C 3174.0 848.4, 3334.0 972.9, 3440.6 882.3" fill="none" stroke="url(#ribbon112)" stroke-width="50.4" stroke-linecap="round" stroke-opacity="0.172" /></g><g transform="rotate(-18.83 1536.0 1536.0)"><path d="M-368.6 1139.9 C -264.8 1186.4, -119.3 1096.0, -22.3 1152.8 C 81.5 1149.5, 227.0 1125.3, 324.0 1094.8 C 427.8 1083.2, 573.3 1181.7, 670.3 1064.2 C 774.1 1071.1, 919.6 1191.7, 1016.6 1079.5 C 1120.4 1064.7, 1265.9 1168.0, 1362.9 1131.5 C 1466.7 1133.1, 1612.2 1149.6, 1709.1 1188.6 C 1813.0 1169.6, 1958.5 1113.5, 2055.4 1216.2 C 2159.3 1227.4, 2304.8 1058.3, 2401.7 1197.5 C 2505.6 1191.9, 2651.1 1099.5, 2748.0 1143.9 C 2851.9 1144.1, 2997.4 1138.5, 3094.3 1087.9 C 3198.2 1086.2, 3343.7 1188.3, 3440.6 1063.4" fill="none" stroke="url(#ribbon112)" stroke-width="46.4" stroke-linecap="round" stroke-opacity="0.198" /></g><g transform="rotate(-18.25 1536.0 1536.0)"><path d="M-368.6 1281.7 C -273.4 1341.4, -140.1 1236.2, -51.2 1353.4 C 44.0 1341.9, 177.4 1244.6, 266.2 1300.8 C 361.5 1298.1, 494.8 1272.4, 583.7 1236.7 C 678.9 1233.9, 812.2 1317.0, 901.1 1199.8 C 996.4 1209.6, 1129.7 1361.8, 1218.6 1212.6 C 1313.8 1201.6, 1447.1 1330.9, 1536.0 1267.3 C 1631.2 1269.8, 1764.6 1288.2, 1853.4 1330.7 C 1948.7 1325.9, 2082.0 1230.5, 2170.9 1364.3 C 2266.1 1373.6, 2399.4 1248.5, 2488.3 1347.9 C 2583.6 1349.9, 2716.9 1260.6, 2805.8 1291.2 C 2901.0 1288.7, 3034.3 1275.0, 3123.2 1228.8 C 3218.4 1217.6, 3351.8 1320.1, 3440.6 1198.4" fill="none" stroke="url(#ribbon112)" stroke-width="42.4" stroke-linecap="round" stroke-opacity="0.224" /></g><g transform="rotate(-17.67 1536.0 1536.0)"><path d="M-368.6 1536.8 C -225.8 1418.9, -25.8 1627.2, 107.5 1462.6 C 250.4 1471.8, 450.4 1572.6, 583.7 1522.5 C 726.5 1519.1, 926.5 1552.2, 1059.8 1591.0 C 1202.7 1584.7, 1402.7 1501.0, 1536.0 1626.6 C 1678.8 1612.7, 1878.8 1463.6, 2012.2 1607.7 C 2155.0 1588.2, 2355.0 1491.5, 2488.3 1545.8 C 2631.2 1543.1, 2831.2 1533.9, 2964.5 1478.4 C 3107.3 1458.2, 3307.3 1575.1, 3440.6 1446.4" fill="none" stroke="url(#ribbon112)" stroke-width="38.4" stroke-linecap="round" stroke-opacity="0.250" /></g><g transform="rotate(-17.09 1536.0 1536.0)"><path d="M-368.6 1632.4 C -241.7 1651.7, -63.9 1612.9, 54.6 1580.0 C 181.6 1566.7, 359.4 1659.1, 477.9 1536.7 C 604.8 1571.8, 782.6 1737.9, 901.1 1551.5 C 1028.1 1574.5, 1205.9 1684.4, 1324.4 1615.3 C 1451.3 1621.9, 1629.1 1651.1, 1747.6 1689.5 C 1874.6 1688.0, 2052.4 1569.9, 2170.9 1729.0 C 2297.9 1724.7, 2475.6 1595.3, 2594.1 1709.9 C 2721.1 1740.7, 2898.9 1569.1, 3017.4 1643.8 C 3144.4 1646.8, 3322.1 1623.7, 3440.6 1570.7" fill="none" stroke="url(#ribbon112)" stroke-width="34.4" stroke-linecap="round" stroke-opacity="0.276" /></g><g transform="rotate(-16.51 1536.0 1536.0)"><path d="M-368.6 1899.1 C -254.4 2023.8, -94.4 1791.6, 12.3 1991.8 C 126.6 1962.9, 286.6 1854.0, 393.2 1928.8 C 507.5 1927.9, 667.5 1866.0, 774.1 1847.7 C 888.4 1835.4, 1048.4 1922.5, 1155.1 1797.8 C 1269.4 1825.6, 1429.3 2015.6, 1536.0 1809.3 C 1650.3 1803.8, 1810.3 1929.1, 1916.9 1875.2 C 2031.2 1878.0, 2191.2 1923.1, 2297.9 1955.6 C 2412.1 1933.3, 2572.1 1857.7, 2678.8 2001.7 C 2793.1 2042.1, 2953.1 1803.6, 3059.7 1985.5 C 3174.0 1957.5, 3334.0 1863.1, 3440.6 1916.9" fill="none" stroke="url(#ribbon112)" stroke-width="30.4" stroke-linecap="round" stroke-opacity="0.302" /></g><g transform="rotate(-15.93 1536.0 1536.0)"><path d="M-368.6 2130.7 C -264.8 2118.4, -119.3 2138.5, -22.3 2203.0 C 81.5 2197.9, 227.0 2078.5, 324.0 2242.2 C 427.8 2220.1, 573.3 2034.0, 670.3 2213.8 C 774.1 2187.4, 919.6 2046.9, 1016.6 2134.9 C 1120.4 2133.6, 1265.9 2128.3, 1362.9 2053.4 C 1466.7 2029.1, 1612.2 2184.4, 1709.1 2018.8 C 1813.0 2051.4, 1958.5 2227.1, 2055.4 2052.1 C 2159.3 2040.9, 2304.8 2215.9, 2401.7 2133.0 C 2505.6 2133.0, 2651.1 2128.1, 2748.0 2212.5 C 2851.9 2243.2, 2997.4 2097.0, 3094.3 2242.3 C 3198.2 2219.8, 3343.7 2092.9, 3440.6 2204.5" fill="none" stroke="url(#ribbon112)" stroke-width="26.4" stroke-linecap="round" stroke-opacity="0.328" /></g><g transform="rotate(-15.35 1536.0 1536.0)"><path d="M-368.6 2294.5 C -273.4 2196.9, -140.1 2370.2, -51.2 2239.7 C 44.0 2232.1, 177.4 2328.4, 266.2 2332.0 C 361.5 2338.9, 494.8 2262.1, 583.7 2401.5 C 678.9 2359.8, 812.2 2258.3, 901.1 2406.1 C 996.4 2438.2, 1129.7 2243.5, 1218.6 2343.0 C 1313.8 2355.6, 1447.1 2241.3, 1536.0 2250.4 C 1631.2 2236.1, 1764.6 2345.7, 1853.4 2184.5 C 1948.7 2204.0, 2082.0 2389.3, 2170.9 2185.4 C 2266.1 2205.7, 2399.4 2350.6, 2488.3 2252.4 C 2583.6 2265.2, 2716.9 2326.5, 2805.8 2344.9 C 2901.0 2330.4, 3034.3 2253.3, 3123.2 2406.8 C 3218.4 2424.2, 3351.8 2232.7, 3440.6 2400.6" fill="none" stroke="url(#ribbon112)" stroke-width="22.4" stroke-linecap="round" stroke-opacity="0.354" /></g><g transform="rotate(-14.77 1536.0 1536.0)"><path d="M-368.6 2489.8 C -225.8 2429.5, -25.8 2589.2, 107.5 2364.7 C 250.4 2315.2, 450.4 2538.8, 583.7 2413.4 C 726.5 2394.5, 926.5 2524.6, 1059.8 2508.4 C 1202.7 2504.2, 1402.7 2469.4, 1536.0 2592.1 C 1678.8 2589.9, 1878.8 2429.5, 2012.2 2613.7 C 2155.0 2635.2, 2355.0 2397.0, 2488.3 2560.1 C 2631.2 2557.3, 2831.2 2453.9, 2964.5 2463.8 C 3107.3 2473.3, 3307.3 2506.8, 3440.6 2383.3" fill="none" stroke="url(#ribbon112)" stroke-width="18.4" stroke-linecap="round" stroke-opacity="0.380" /></g><g transform="rotate(-14.19 1536.0 1536.0)"><path d="M-368.6 2644.0 C -241.7 2628.8, -63.9 2658.3, 54.6 2533.1 C 181.6 2543.0, 359.4 2775.8, 477.9 2514.0 C 604.8 2526.2, 782.6 2702.8, 901.1 2573.8 C 1028.1 2588.7, 1205.9 2672.1, 1324.4 2676.1 C 1451.3 2668.5, 1629.1 2632.5, 1747.6 2759.0 C 1874.6 2791.1, 2052.4 2506.7, 2170.9 2772.1 C 2297.9 2785.0, 2475.6 2569.8, 2594.1 2707.4 C 2721.1 2715.4, 2898.9 2570.0, 3017.4 2604.3 C 3144.4 2602.8, 3322.1 2677.6, 3440.6 2525.3" fill="none" stroke="url(#ribbon112)" stroke-width="14.4" stroke-linecap="round" stroke-opacity="0.406" /></g></g>
  <g><ellipse cx="1536.0" cy="1551.9" rx="728.6" ry="605.7" fill="url(#extrude112)" opacity="0.220" /><ellipse cx="1536.0" cy="1567.7" rx="736.0" ry="610.9" fill="url(#extrude112)" opacity="0.205" /><ellipse cx="1536.0" cy="1583.6" rx="743.4" ry="616.1" fill="url(#extrude112)" opacity="0.190" /><ellipse cx="1536.0" cy="1599.5" rx="750.9" ry="621.3" fill="url(#extrude112)" opacity="0.175" /><ellipse cx="1536.0" cy="1615.4" rx="758.3" ry="626.5" fill="url(#extrude112)" opacity="0.160" /><ellipse cx="1536.0" cy="1631.2" rx="765.7" ry="631.7" fill="url(#extrude112)" opacity="0.145" /><ellipse cx="1536.0" cy="1647.1" rx="773.2" ry="636.9" fill="url(#extrude112)" opacity="0.130" /><ellipse cx="1536.0" cy="1663.0" rx="780.6" ry="642.1" fill="url(#extrude112)" opacity="0.115" /><ellipse cx="1536.0" cy="1678.8" rx="788.0" ry="647.4" fill="url(#extrude112)" opacity="0.100" /><ellipse cx="1536.0" cy="1694.7" rx="795.5" ry="652.6" fill="url(#extrude112)" opacity="0.085" /><ellipse cx="1536.0" cy="1710.6" rx="802.9" ry="657.8" fill="url(#extrude112)" opacity="0.070" /><ellipse cx="1536.0" cy="1726.5" rx="810.3" ry="663.0" fill="url(#extrude112)" opacity="0.055" /></g>
  <ellipse cx="1536.0" cy="1726.5" rx="773.2" ry="214.9" fill="#0B1D2D" opacity="0.24" />
  <ellipse cx="1536.0" cy="1536.0" rx="743.4" ry="651.3" fill="url(#orb112)" stroke="#FFFFFF" stroke-opacity="0.42" stroke-width="7" />
  <ellipse cx="1431.9" cy="1392.7" rx="505.5" ry="299.6" fill="#FFFFFF" opacity="0.25" />
  <path d="M 199.4 399.4 C 1013.8 -30.7, 2058.2 768.0, 2872.6 215.0 L 2872.6 983.0 C 2089.0 1228.8, 1013.8 307.2, 199.4 1167.4 Z" fill="url(#glass112)" />
  <rect x="270" y="270" width="2532" height="2532" rx="430" fill="none" stroke="#FFFFFF" stroke-opacity="0.30" stroke-width="5" />
  <rect x="288.4" y="288.4" width="2495.1" height="2495.1" rx="399" fill="none" stroke="#36D1FF" stroke-opacity="0.35" stroke-width="3" />
  <g filter="url(#soft112)"><rect x="2324" y="2328" width="38" height="2" fill="#FFFFFF" opacity="0.724" /><rect x="2342" y="2310" width="2" height="38" fill="#FFFFFF" opacity="0.724" /><rect x="2762" y="1991" width="26" height="2" fill="#FFFFFF" opacity="0.654" /><rect x="2774" y="1979" width="2" height="26" fill="#FFFFFF" opacity="0.654" /><rect x="561" y="1837" width="76" height="2" fill="#FFFFFF" opacity="0.351" /><rect x="598" y="1800" width="2" height="76" fill="#FFFFFF" opacity="0.351" /><rect x="2065" y="2066" width="54" height="2" fill="#FFFFFF" opacity="0.425" /><rect x="2091" y="2040" width="2" height="54" fill="#FFFFFF" opacity="0.425" /><rect x="1342" y="818" width="72" height="2" fill="#FFFFFF" opacity="0.419" /><rect x="1377" y="783" width="2" height="72" fill="#FFFFFF" opacity="0.419" /><rect x="714" y="2541" width="70" height="2" fill="#FFFFFF" opacity="0.506" /><rect x="748" y="2507" width="2" height="70" fill="#FFFFFF" opacity="0.506" /><rect x="2637" y="2220" width="70" height="2" fill="#FFFFFF" opacity="0.501" /><rect x="2671" y="2186" width="2" height="70" fill="#FFFFFF" opacity="0.501" /><rect x="2639" y="2177" width="52" height="2" fill="#FFFFFF" opacity="0.694" /><rect x="2664" y="2152" width="2" height="52" fill="#FFFFFF" opacity="0.694" /><rect x="2695" y="395" width="84" height="2" fill="#FFFFFF" opacity="0.838" /><rect x="2736" y="354" width="2" height="84" fill="#FFFFFF" opacity="0.838" /><rect x="2777" y="789" width="28" height="2" fill="#FFFFFF" opacity="0.422" /><rect x="2790" y="776" width="2" height="28" fill="#FFFFFF" opacity="0.422" /><rect x="999" y="747" width="52" height="2" fill="#FFFFFF" opacity="0.695" /><rect x="1024" y="722" width="2" height="52" fill="#FFFFFF" opacity="0.695" /><rect x="2268" y="2588" width="26" height="2" fill="#FFFFFF" opacity="0.839" /><rect x="2280" y="2576" width="2" height="26" fill="#FFFFFF" opacity="0.839" /><rect x="1118" y="483" width="78" height="2" fill="#FFFFFF" opacity="0.592" /><rect x="1156" y="445" width="2" height="78" fill="#FFFFFF" opacity="0.592" /><rect x="505" y="803" width="54" height="2" fill="#FFFFFF" opacity="0.326" /><rect x="531" y="777" width="2" height="54" fill="#FFFFFF" opacity="0.326" /><rect x="816" y="1023" width="48" height="2" fill="#FFFFFF" opacity="0.726" /><rect x="839" y="1000" width="2" height="48" fill="#FFFFFF" opacity="0.726" /><rect x="1841" y="1494" width="30" height="2" fill="#FFFFFF" opacity="0.491" /><rect x="1855" y="1480" width="2" height="30" fill="#FFFFFF" opacity="0.491" /><rect x="1429" y="1666" width="32" height="2" fill="#FFFFFF" opacity="0.525" /><rect x="1444" y="1651" width="2" height="32" fill="#FFFFFF" opacity="0.525" /><rect x="1512" y="927" width="48" height="2" fill="#FFFFFF" opacity="0.663" /><rect x="1535" y="904" width="2" height="48" fill="#FFFFFF" opacity="0.663" /><rect x="1988" y="2229" width="64" height="2" fill="#FFFFFF" opacity="0.437" /><rect x="2019" y="2198" width="2" height="64" fill="#FFFFFF" opacity="0.437" /><rect x="1613" y="2149" width="36" height="2" fill="#FFFFFF" opacity="0.647" /><rect x="1630" y="2132" width="2" height="36" fill="#FFFFFF" opacity="0.647" /><rect x="353" y="2073" width="32" height="2" fill="#FFFFFF" opacity="0.452" /><rect x="368" y="2058" width="2" height="32" fill="#FFFFFF" opacity="0.452" /><rect x="1093" y="2752" width="54" height="2" fill="#FFFFFF" opacity="0.790" /><rect x="1119" y="2726" width="2" height="54" fill="#FFFFFF" opacity="0.790" /><rect x="1209" y="536" width="46" height="2" fill="#FFFFFF" opacity="0.310" /><rect x="1231" y="514" width="2" height="46" fill="#FFFFFF" opacity="0.310" /><rect x="661" y="1689" width="68" height="2" fill="#FFFFFF" opacity="0.406" /><rect x="694" y="1656" width="2" height="68" fill="#FFFFFF" opacity="0.406" /><rect x="1279" y="1310" width="52" height="2" fill="#FFFFFF" opacity="0.842" /><rect x="1304" y="1285" width="2" height="52" fill="#FFFFFF" opacity="0.842" /><rect x="2018" y="2462" width="26" height="2" fill="#FFFFFF" opacity="0.656" /><rect x="2030" y="2450" width="2" height="26" fill="#FFFFFF" opacity="0.656" /></g>
  <g opacity="0.52"><path d="M1572 1006 L2148 1582 L1572 2158 L996 1582 Z" fill="none" stroke="#0C2030" stroke-width="90" stroke-linejoin="round" /><circle cx="1572" cy="1582" r="153" fill="#0C2030" /></g>
  <g filter="url(#soft112)"><path d="M1536 960 L2112 1536 L1536 2112 L960 1536 Z" fill="none" stroke="url(#symbol112)" stroke-width="90" stroke-linejoin="round" /><circle cx="1536" cy="1536" r="153" fill="url(#symbol112)" /></g>
  <rect x="138" y="138" width="2796" height="2796" rx="629" fill="#FFFFFF" filter="url(#grain112)" opacity="0.18" />
</svg>
