<svg xmlns="http://www.w3.org/2000/svg" width="3072" height="3072" viewBox="0 0 3072 3072">
  <title>QuartzOS App Icon 193 - neon_charts_193</title>
  <defs><linearGradient id="bg192" x1="0%" y1="0%" x2="100%" y2="100%"><stop offset="0%" stop-color="#FF6AB3" /><stop offset="26%" stop-color="#FFD84D" /><stop offset="56%" stop-color="#36D1FF" /><stop offset="78%" stop-color="#4E8FC5" /><stop offset="100%" stop-color="#10243A" /></linearGradient><radialGradient id="sun192" cx="28%" cy="11%" r="88%"><stop offset="0%" stop-color="#FFFFFF" stop-opacity="0.62" /><stop offset="30%" stop-color="#3B82FF" stop-opacity="0.35" /><stop offset="100%" stop-color="#3B82FF" stop-opacity="0" /></radialGradient><linearGradient id="glass192" x1="0%" y1="0%" x2="0%" y2="100%"><stop offset="0%" stop-color="#FFFFFF" stop-opacity="0.70" /><stop offset="46%" stop-color="#FFFFFF" stop-opacity="0.26" /><stop offset="100%" stop-color="#FFFFFF" stop-opacity="0.00" /></linearGradient><linearGradient id="ribbon192" x1="0%" y1="0%" x2="100%" y2="0%"><stop offset="0%" stop-color="#FF6AB3" stop-opacity="0.18" /><stop offset="34%" stop-color="#FFD84D" stop-opacity="0.72" /><stop offset="66%" stop-color="#36D1FF" stop-opacity="0.72" /><stop offset="100%" stop-color="#3B82FF" stop-opacity="0.18" /></linearGradient><radialGradient id="orb192" cx="34%" cy="27%" r="74%"><stop offset="0%" stop-color="#FFFFFF" stop-opacity="0.84" /><stop offset="30%" stop-color="#FF6AB3" stop-opacity="0.52" /><stop offset="68%" stop-color="#FFD84D" stop-opacity="0.42" /><stop offset="100%" stop-color="#36D1FF" stop-opacity="0.20" /></radialGradient><linearGradient id="extrude192" x1="0%" y1="0%" x2="0%" y2="100%"><stop offset="0%" stop-color="#15283C" stop-opacity="0.45" /><stop offset="100%" stop-color="#08131D" stop-opacity="0.06" /></linearGradient><linearGradient id="symbol192" x1="0%" y1="0%" x2="100%" y2="100%"><stop offset="0%" stop-color="#FFFFFF" /><stop offset="100%" stop-color="#3B82FF" /></linearGradient><filter id="shadow192" x="-40%" y="-40%" width="180%" height="180%"><feDropShadow dx="0" dy="49" stdDeviation="86" flood-color="#06111A" flood-opacity="0.54" /></filter><filter id="soft192" x="-40%" y="-40%" width="180%" height="180%"><feDropShadow dx="0" dy="0" stdDeviation="14" flood-color="#FF6AB3" flood-opacity="0.45" /></filter><filter id="grain192"><feTurbulence type="fractalNoise" baseFrequency="0.816" numOctaves="2" seed="192" /><feColorMatrix type="saturate" values="0" /><feComponentTransfer><feFuncA type="table" tableValues="0 0.09" /></feComponentTransfer></filter></defs>
  <rect x="138" y="138" width="2796" height="2796" rx="629" fill="url(#bg192)" filter="url(#shadow192)" />
  <rect x="138" y="138" width="2796" height="2796" rx="629" fill="url(#sun192)" />
  <g><circle cx="388" cy="739" r="65" fill="#FFFFFF" opacity="0.060" /><circle cx="1871" cy="1073" r="44" fill="#FFFFFF" opacity="0.067" /><circle cx="1193" cy="332" r="45" fill="#FFFFFF" opacity="0.117" /><circle cx="2024" cy="697" r="39" fill="#FFFFFF" opacity="0.193" /><circle cx="964" cy="1191" r="134" fill="#FFFFFF" opacity="0.203" /><circle cx="886" cy="2082" r="42" fill="#FFFFFF" opacity="0.174" /><circle cx="898" cy="681" r="109" fill="#FFFFFF" opacity="0.178" /><circle cx="2101" cy="2399" r="53" fill="#FFFFFF" opacity="0.177" /><circle cx="1133" cy="2002" r="132" fill="#FFFFFF" opacity="0.205" /><circle cx="2492" cy="867" r="80" fill="#FFFFFF" opacity="0.097" /><circle cx="1806" cy="2006" r="120" fill="#FFFFFF" opacity="0.173" /><circle cx="2532" cy="1918" r="40" fill="#FFFFFF" opacity="0.180" /><circle cx="764" cy="1327" r="116" fill="#FFFFFF" opacity="0.172" /><circle cx="1791" cy="2340" r="158" fill="#FFFFFF" opacity="0.170" /><circle cx="1917" cy="892" r="42" fill="#FFFFFF" opacity="0.209" /><circle cx="2695" cy="742" r="148" fill="#FFFFFF" opacity="0.229" /><circle cx="1570" cy="1562" r="85" fill="#FFFFFF" opacity="0.070" /><circle cx="1598" cy="564" r="113" fill="#FFFFFF" opacity="0.194" /><circle cx="1733" cy="2139" r="96" fill="#FFFFFF" opacity="0.235" /><circle cx="2169" cy="1871" r="116" fill="#FFFFFF" opacity="0.071" /><circle cx="1417" cy="510" r="111" fill="#FFFFFF" opacity="0.230" /><circle cx="2088" cy="1072" r="114" fill="#FFFFFF" opacity="0.125" /><circle cx="900" cy="336" r="143" fill="#FFFFFF" opacity="0.192" /><circle cx="2053" cy="979" r="148" fill="#FFFFFF" opacity="0.222" /><circle cx="2645" cy="1714" r="96" fill="#FFFFFF" opacity="0.235" /><circle cx="2107" cy="2444" r="58" fill="#FFFFFF" opacity="0.218" /><circle cx="1857" cy="2176" r="67" fill="#FFFFFF" opacity="0.150" /><circle cx="1603" cy="1538" r="53" fill="#FFFFFF" opacity="0.130" /></g>
  <g><path d="M 200.6 620.9 L 2914.0 344.4 L 2914.0 799.0 L 200.6 1075.5 Z" fill="#FFFFFF" opacity="0.088" /><path d="M 213.4 888.8 L 2729.0 612.3 L 2729.0 1079.5 L 213.4 1355.9 Z" fill="#FFFFFF" opacity="0.116" /><path d="M 206.8 1177.2 L 2838.7 900.7 L 2838.7 1347.9 L 206.8 1624.4 Z" fill="#FFFFFF" opacity="0.185" /><path d="M 332.6 1384.2 L 2724.1 1107.7 L 2724.1 1581.1 L 332.6 1857.6 Z" fill="#FFFFFF" opacity="0.115" /><path d="M 176.1 1677.9 L 2883.7 1401.4 L 2883.7 1861.8 L 176.1 2138.3 Z" fill="#FFFFFF" opacity="0.127" /><path d="M 274.4 1891.0 L 2752.2 1614.5 L 2752.2 2102.2 L 274.4 2378.7 Z" fill="#FFFFFF" opacity="0.199" /><path d="M 224.8 2203.8 L 2838.7 1927.3 L 2838.7 2347.0 L 224.8 2623.5 Z" fill="#FFFFFF" opacity="0.116" /><path d="M 365.0 2425.0 L 2898.2 2148.5 L 2898.2 2626.2 L 365.0 2902.7 Z" fill="#FFFFFF" opacity="0.108" /></g>
  <g filter="url(#soft192)"><g transform="rotate(-10.54 1536.0 1536.0)"><path d="M-368.6 519.8 C -225.8 504.2, -25.8 543.0, 107.5 542.0 C 250.4 545.9, 450.4 499.7, 583.7 571.6 C 726.5 564.0, 926.5 479.1, 1059.8 569.8 C 1202.7 586.8, 1402.7 462.4, 1536.0 537.7 C 1678.8 543.6, 1878.8 507.3, 2012.2 494.7 C 2155.0 486.8, 2355.0 548.6, 2488.3 467.0 C 2631.2 473.5, 2831.2 545.7, 2964.5 471.3 C 3107.3 481.5, 3307.3 559.5, 3440.6 505.1" fill="none" stroke="url(#ribbon192)" stroke-width="58.4" stroke-linecap="round" stroke-opacity="0.120" /></g><g transform="rotate(-9.96 1536.0 1536.0)"><path d="M-368.6 705.6 C -241.7 649.3, -63.9 748.0, 54.6 708.6 C 181.6 709.1, 359.4 703.6, 477.9 752.4 C 604.8 734.9, 782.6 682.7, 901.1 767.8 C 1028.1 747.9, 1205.9 660.5, 1324.4 745.5 C 1451.3 752.2, 1629.1 678.6, 1747.6 699.0 C 1874.6 701.7, 2052.4 709.8, 2170.9 656.6 C 2297.9 668.4, 2475.6 733.2, 2594.1 643.8 C 2721.1 652.4, 2898.9 779.3, 3017.4 668.6 C 3144.4 662.9, 3322.1 733.4, 3440.6 715.8" fill="none" stroke="url(#ribbon192)" stroke-width="54.4" stroke-linecap="round" stroke-opacity="0.146" /></g><g transform="rotate(-9.38 1536.0 1536.0)"><path d="M-368.6 849.4 C -254.4 778.8, -94.4 888.5, 12.3 781.9 C 126.6 773.8, 286.6 923.1, 393.2 813.9 C 507.5 802.4, 667.5 871.5, 774.1 867.4 C 888.4 869.6, 1048.4 840.9, 1155.1 910.1 C 1269.4 887.0, 1429.3 804.5, 1536.0 915.9 C 1650.3 935.1, 1810.3 769.6, 1916.9 881.4 C 2031.2 884.9, 2191.2 825.2, 2297.9 827.5 C 2412.1 824.7, 2572.1 862.8, 2678.8 786.9 C 2793.1 807.0, 2953.1 923.8, 3059.7 784.2 C 3174.0 764.5, 3334.0 923.5, 3440.6 821.1" fill="none" stroke="url(#ribbon192)" stroke-width="50.4" stroke-linecap="round" stroke-opacity="0.172" /></g><g transform="rotate(-8.80 1536.0 1536.0)"><path d="M-368.6 1080.9 C -264.8 1123.5, -119.3 1017.6, -22.3 1156.7 C 81.5 1164.5, 227.0 1045.2, 324.0 1126.5 C 427.8 1122.9, 573.3 1033.6, 670.3 1068.6 C 774.1 1066.4, 919.6 1092.3, 1016.6 1018.2 C 1120.4 999.7, 1265.9 1104.3, 1362.9 1005.8 C 1466.7 979.0, 1612.2 1140.4, 1709.1 1039.0 C 1813.0 1041.1, 1958.5 1124.6, 2055.4 1097.6 C 2159.3 1096.5, 2304.8 1069.1, 2401.7 1146.1 C 2505.6 1145.3, 2651.1 1051.1, 2748.0 1155.0 C 2851.9 1152.8, 2997.4 1053.0, 3094.3 1119.0 C 3198.2 1121.5, 3343.7 1066.6, 3440.6 1059.8" fill="none" stroke="url(#ribbon192)" stroke-width="46.4" stroke-linecap="round" stroke-opacity="0.198" /></g><g transform="rotate(-8.22 1536.0 1536.0)"><path d="M-368.6 1317.0 C -273.4 1394.8, -140.1 1262.0, -51.2 1366.7 C 44.0 1362.9, 177.4 1262.6, 266.2 1303.4 C 361.5 1307.2, 494.8 1324.3, 583.7 1248.4 C 678.9 1246.6, 812.2 1356.3, 901.1 1235.0 C 996.4 1221.6, 1129.7 1365.7, 1218.6 1271.3 C 1313.8 1258.5, 1447.1 1355.4, 1536.0 1335.4 C 1631.2 1329.4, 1764.6 1300.1, 1853.4 1388.3 C 1948.7 1376.8, 2082.0 1242.5, 2170.9 1397.9 C 2266.1 1398.4, 2399.4 1262.8, 2488.3 1358.5 C 2583.6 1345.0, 2716.9 1302.0, 2805.8 1293.9 C 2901.0 1288.9, 3034.3 1344.5, 3123.2 1243.3 C 3218.4 1257.2, 3351.8 1347.0, 3440.6 1237.4" fill="none" stroke="url(#ribbon192)" stroke-width="42.4" stroke-linecap="round" stroke-opacity="0.224" /></g><g transform="rotate(-7.64 1536.0 1536.0)"><path d="M-368.6 1501.2 C -225.8 1576.6, -25.8 1395.9, 107.5 1568.0 C 250.4 1567.5, 450.4 1458.8, 583.7 1503.8 C 726.5 1504.4, 926.5 1499.5, 1059.8 1438.0 C 1202.7 1438.4, 1402.7 1536.6, 1536.0 1410.5 C 1678.8 1413.0, 1878.8 1568.9, 2012.2 1438.0 C 2155.0 1419.4, 2355.0 1541.5, 2488.3 1503.8 C 2631.2 1504.3, 2831.2 1498.5, 2964.5 1568.0 C 3107.3 1570.9, 3307.3 1466.4, 3440.6 1591.6" fill="none" stroke="url(#ribbon192)" stroke-width="38.4" stroke-linecap="round" stroke-opacity="0.250" /></g><g transform="rotate(-7.06 1536.0 1536.0)"><path d="M-368.6 1717.1 C -241.7 1777.8, -63.9 1663.8, 54.6 1786.4 C 181.6 1760.5, 359.4 1665.7, 477.9 1716.0 C 604.8 1715.8, 782.6 1718.2, 901.1 1646.3 C 1028.1 1667.6, 1205.9 1799.3, 1324.4 1619.4 C 1451.3 1613.1, 1629.1 1831.3, 1747.6 1651.8 C 1874.6 1632.1, 2052.4 1781.2, 2170.9 1723.8 C 2297.9 1723.3, 2475.6 1711.3, 2594.1 1791.7 C 2721.1 1766.9, 2898.9 1663.1, 3017.4 1814.3 C 3144.4 1810.1, 3322.1 1644.9, 3440.6 1777.9" fill="none" stroke="url(#ribbon192)" stroke-width="34.4" stroke-linecap="round" stroke-opacity="0.276" /></g><g transform="rotate(-6.48 1536.0 1536.0)"><path d="M-368.6 1925.7 C -254.4 2031.5, -94.4 1865.3, 12.3 2013.6 C 126.6 1987.0, 286.6 1844.6, 393.2 1946.1 C 507.5 1945.4, 667.5 1918.5, 774.1 1866.2 C 888.4 1849.4, 1048.4 1945.3, 1155.1 1822.4 C 1269.4 1844.4, 1429.3 1968.8, 1536.0 1841.2 C 1650.3 1866.2, 1810.3 1998.3, 1916.9 1911.3 C 2031.2 1907.8, 2191.2 1938.5, 2297.9 1990.1 C 2412.1 1994.4, 2572.1 1890.0, 2678.8 2029.8 C 2793.1 2044.8, 2953.1 1853.5, 3059.7 2006.4 C 3174.0 1992.9, 3334.0 1868.2, 3440.6 1934.0" fill="none" stroke="url(#ribbon192)" stroke-width="30.4" stroke-linecap="round" stroke-opacity="0.302" /></g><g transform="rotate(-5.90 1536.0 1536.0)"><path d="M-368.6 2040.5 C -264.8 2130.0, -119.3 1977.6, -22.3 2123.9 C 81.5 2097.6, 227.0 1966.5, 324.0 2045.1 C 427.8 2044.2, 573.3 2036.1, 670.3 1963.6 C 774.1 1978.2, 919.6 2095.9, 1016.6 1928.7 C 1120.4 1890.6, 1265.9 2084.2, 1362.9 1961.7 C 1466.7 1963.6, 1612.2 2097.3, 1709.1 2042.5 C 1813.0 2042.5, 1958.5 2038.9, 2055.4 2122.1 C 2159.3 2139.9, 2304.8 1943.9, 2401.7 2152.2 C 2505.6 2148.8, 2651.1 1912.4, 2748.0 2114.6 C 2851.9 2143.7, 2997.4 1973.7, 3094.3 2032.1 C 3198.2 2032.2, 3343.7 2050.6, 3440.6 1954.7" fill="none" stroke="url(#ribbon192)" stroke-width="26.4" stroke-linecap="round" stroke-opacity="0.328" /></g><g transform="rotate(-5.32 1536.0 1536.0)"><path d="M-368.6 2318.8 C -273.4 2451.2, -140.1 2199.4, -51.2 2375.5 C 44.0 2374.7, 177.4 2273.5, 266.2 2283.3 C 361.5 2292.4, 494.8 2332.1, 583.7 2212.7 C 678.9 2201.1, 812.2 2368.2, 901.1 2206.4 C 996.4 2164.6, 1129.7 2368.5, 1218.6 2268.3 C 1313.8 2267.8, 1447.1 2373.2, 1536.0 2360.8 C 1631.2 2377.1, 1764.6 2280.9, 1853.4 2427.9 C 1948.7 2445.9, 2082.0 2216.7, 2170.9 2428.7 C 2266.1 2465.7, 2399.4 2243.5, 2488.3 2362.9 C 2583.6 2357.9, 2716.9 2292.9, 2805.8 2270.3 C 2901.0 2281.2, 3034.3 2359.7, 3123.2 2207.2 C 3218.4 2239.7, 3351.8 2425.7, 3440.6 2211.7" fill="none" stroke="url(#ribbon192)" stroke-width="22.4" stroke-linecap="round" stroke-opacity="0.354" /></g><g transform="rotate(-4.74 1536.0 1536.0)"><path d="M-368.6 2477.5 C -225.8 2445.5, -25.8 2501.4, 107.5 2547.7 C 250.4 2532.2, 450.4 2433.9, 583.7 2601.4 C 726.5 2647.2, 926.5 2434.5, 1059.8 2580.0 C 1202.7 2554.8, 1402.7 2377.1, 1536.0 2496.4 C 1678.8 2498.2, 1878.8 2464.7, 2012.2 2401.3 C 2155.0 2389.2, 2355.0 2542.0, 2488.3 2352.5 C 2631.2 2400.6, 2831.2 2522.7, 2964.5 2379.4 C 3107.3 2405.2, 3307.3 2533.6, 3440.6 2465.9" fill="none" stroke="url(#ribbon192)" stroke-width="18.4" stroke-linecap="round" stroke-opacity="0.380" /></g><g transform="rotate(-4.16 1536.0 1536.0)"><path d="M-368.6 2613.0 C -241.7 2537.5, -63.9 2706.8, 54.6 2628.2 C 181.6 2628.2, 359.4 2608.3, 477.9 2718.4 C 604.8 2759.6, 782.6 2525.5, 901.1 2744.7 C 1028.1 2744.3, 1205.9 2559.1, 1324.4 2691.1 C 1451.3 2721.3, 1629.1 2563.1, 1747.6 2590.2 C 1874.6 2593.5, 2052.4 2635.5, 2170.9 2503.1 C 2297.9 2533.9, 2475.6 2652.6, 2594.1 2482.7 C 2721.1 2508.4, 2898.9 2668.1, 3017.4 2541.4 C 3144.4 2537.1, 3322.1 2668.6, 3440.6 2643.5" fill="none" stroke="url(#ribbon192)" stroke-width="14.4" stroke-linecap="round" stroke-opacity="0.406" /></g></g>
  <g><ellipse cx="1536.0" cy="1551.9" rx="728.6" ry="605.7" fill="url(#extrude192)" opacity="0.220" /><ellipse cx="1536.0" cy="1567.7" rx="736.0" ry="610.9" fill="url(#extrude192)" opacity="0.205" /><ellipse cx="1536.0" cy="1583.6" rx="743.4" ry="616.1" fill="url(#extrude192)" opacity="0.190" /><ellipse cx="1536.0" cy="1599.5" rx="750.9" ry="621.3" fill="url(#extrude192)" opacity="0.175" /><ellipse cx="1536.0" cy="1615.4" rx="758.3" ry="626.5" fill="url(#extrude192)" opacity="0.160" /><ellipse cx="1536.0" cy="1631.2" rx="765.7" ry="631.7" fill="url(#extrude192)" opacity="0.145" /><ellipse cx="1536.0" cy="1647.1" rx="773.2" ry="636.9" fill="url(#extrude192)" opacity="0.130" /><ellipse cx="1536.0" cy="1663.0" rx="780.6" ry="642.1" fill="url(#extrude192)" opacity="0.115" /><ellipse cx="1536.0" cy="1678.8" rx="788.0" ry="647.4" fill="url(#extrude192)" opacity="0.100" /><ellipse cx="1536.0" cy="1694.7" rx="795.5" ry="652.6" fill="url(#extrude192)" opacity="0.085" /><ellipse cx="1536.0" cy="1710.6" rx="802.9" ry="657.8" fill="url(#extrude192)" opacity="0.070" /><ellipse cx="1536.0" cy="1726.5" rx="810.3" ry="663.0" fill="url(#extrude192)" opacity="0.055" /></g>
  <ellipse cx="1536.0" cy="1726.5" rx="773.2" ry="214.9" fill="#0B1D2D" opacity="0.24" />
  <ellipse cx="1536.0" cy="1536.0" rx="743.4" ry="651.3" fill="url(#orb192)" stroke="#FFFFFF" stroke-opacity="0.42" stroke-width="7" />
  <ellipse cx="1431.9" cy="1392.7" rx="505.5" ry="299.6" fill="#FFFFFF" opacity="0.25" />
  <path d="M 199.4 399.4 C 1013.8 -30.7, 2058.2 768.0, 2872.6 215.0 L 2872.6 983.0 C 2089.0 1228.8, 1013.8 307.2, 199.4 1167.4 Z" fill="url(#glass192)" />
  <rect x="270" y="270" width="2532" height="2532" rx="430" fill="none" stroke="#FFFFFF" stroke-opacity="0.30" stroke-width="5" />
  <rect x="288.4" y="288.4" width="2495.1" height="2495.1" rx="399" fill="none" stroke="#FF6AB3" stroke-opacity="0.35" stroke-width="3" />
  <g filter="url(#soft192)"><rect x="1005" y="686" width="84" height="2" fill="#FFFFFF" opacity="0.696" /><rect x="1046" y="645" width="2" height="84" fill="#FFFFFF" opacity="0.696" /><rect x="2131" y="2383" width="30" height="2" fill="#FFFFFF" opacity="0.343" /><rect x="2145" y="2369" width="2" height="30" fill="#FFFFFF" opacity="0.343" /><rect x="655" y="370" width="60" height="2" fill="#FFFFFF" opacity="0.407" /><rect x="684" y="341" width="2" height="60" fill="#FFFFFF" opacity="0.407" /><rect x="1283" y="1545" width="42" height="2" fill="#FFFFFF" opacity="0.779" /><rect x="1303" y="1525" width="2" height="42" fill="#FFFFFF" opacity="0.779" /><rect x="1077" y="1708" width="44" height="2" fill="#FFFFFF" opacity="0.846" /><rect x="1098" y="1687" width="2" height="44" fill="#FFFFFF" opacity="0.846" /><rect x="1236" y="2152" width="84" height="2" fill="#FFFFFF" opacity="0.762" /><rect x="1277" y="2111" width="2" height="84" fill="#FFFFFF" opacity="0.762" /><rect x="1653" y="1313" width="36" height="2" fill="#FFFFFF" opacity="0.694" /><rect x="1670" y="1296" width="2" height="36" fill="#FFFFFF" opacity="0.694" /><rect x="2227" y="582" width="60" height="2" fill="#FFFFFF" opacity="0.330" /><rect x="2256" y="553" width="2" height="60" fill="#FFFFFF" opacity="0.330" /><rect x="1157" y="1003" width="24" height="2" fill="#FFFFFF" opacity="0.512" /><rect x="1168" y="992" width="2" height="24" fill="#FFFFFF" opacity="0.512" /><rect x="1943" y="979" width="80" height="2" fill="#FFFFFF" opacity="0.741" /><rect x="1982" y="940" width="2" height="80" fill="#FFFFFF" opacity="0.741" /><rect x="859" y="688" width="58" height="2" fill="#FFFFFF" opacity="0.750" /><rect x="887" y="660" width="2" height="58" fill="#FFFFFF" opacity="0.750" /><rect x="510" y="1921" width="50" height="2" fill="#FFFFFF" opacity="0.715" /><rect x="534" y="1897" width="2" height="50" fill="#FFFFFF" opacity="0.715" /><rect x="2250" y="2742" width="36" height="2" fill="#FFFFFF" opacity="0.334" /><rect x="2267" y="2725" width="2" height="36" fill="#FFFFFF" opacity="0.334" /><rect x="2095" y="2130" width="66" height="2" fill="#FFFFFF" opacity="0.402" /><rect x="2127" y="2098" width="2" height="66" fill="#FFFFFF" opacity="0.402" /><rect x="1498" y="2678" width="64" height="2" fill="#FFFFFF" opacity="0.798" /><rect x="1529" y="2647" width="2" height="64" fill="#FFFFFF" opacity="0.798" /><rect x="1306" y="2563" width="30" height="2" fill="#FFFFFF" opacity="0.440" /><rect x="1320" y="2549" width="2" height="30" fill="#FFFFFF" opacity="0.440" /><rect x="1442" y="1397" width="48" height="2" fill="#FFFFFF" opacity="0.540" /><rect x="1465" y="1374" width="2" height="48" fill="#FFFFFF" opacity="0.540" /><rect x="1488" y="2362" width="28" height="2" fill="#FFFFFF" opacity="0.495" /><rect x="1501" y="2349" width="2" height="28" fill="#FFFFFF" opacity="0.495" /><rect x="2570" y="1216" width="82" height="2" fill="#FFFFFF" opacity="0.668" /><rect x="2610" y="1176" width="2" height="82" fill="#FFFFFF" opacity="0.668" /><rect x="2647" y="1263" width="46" height="2" fill="#FFFFFF" opacity="0.582" /><rect x="2669" y="1241" width="2" height="46" fill="#FFFFFF" opacity="0.582" /><rect x="1453" y="794" width="80" height="2" fill="#FFFFFF" opacity="0.430" /><rect x="1492" y="755" width="2" height="80" fill="#FFFFFF" opacity="0.430" /><rect x="1301" y="895" width="82" height="2" fill="#FFFFFF" opacity="0.779" /><rect x="1341" y="855" width="2" height="82" fill="#FFFFFF" opacity="0.779" /><rect x="971" y="1554" width="82" height="2" fill="#FFFFFF" opacity="0.378" /><rect x="1011" y="1514" width="2" height="82" fill="#FFFFFF" opacity="0.378" /><rect x="2546" y="2466" width="78" height="2" fill="#FFFFFF" opacity="0.419" /><rect x="2584" y="2428" width="2" height="78" fill="#FFFFFF" opacity="0.419" /><rect x="2692" y="407" width="36" height="2" fill="#FFFFFF" opacity="0.612" /><rect x="2709" y="390" width="2" height="36" fill="#FFFFFF" opacity="0.612" /><rect x="1307" y="825" width="72" height="2" fill="#FFFFFF" opacity="0.615" /><rect x="1342" y="790" width="2" height="72" fill="#FFFFFF" opacity="0.615" /></g>
  <g opacity="0.52"><circle cx="1572" cy="1582" r="307" fill="none" stroke="#0C2030" stroke-width="90" /><line x1="1791" y1="1801" x2="2340" y2="2350" stroke="#0C2030" stroke-width="90" stroke-linecap="round" /></g>
  <g filter="url(#soft192)"><circle cx="1536" cy="1536" r="307" fill="none" stroke="url(#symbol192)" stroke-width="90" /><line x1="1755" y1="1755" x2="2304" y2="2304" stroke="url(#symbol192)" stroke-width="90" stroke-linecap="round" /></g>
  <rect x="138" y="138" width="2796" height="2796" rx="629" fill="#FFFFFF" filter="url(#grain192)" opacity="0.18" />
</svg>
