<svg xmlns="http://www.w3.org/2000/svg" width="3072" height="3072" viewBox="0 0 3072 3072">
  <title>QuartzOS App Icon 213 - neon_notes_213</title>
  <defs><linearGradient id="bg212" x1="0%" y1="0%" x2="100%" y2="100%"><stop offset="0%" stop-color="#8A5CFF" /><stop offset="26%" stop-color="#FF9F43" /><stop offset="56%" stop-color="#53E3A6" /><stop offset="78%" stop-color="#3C8FC1" /><stop offset="100%" stop-color="#1E2E3A" /></linearGradient><radialGradient id="sun212" cx="28%" cy="8%" r="88%"><stop offset="0%" stop-color="#FFFFFF" stop-opacity="0.62" /><stop offset="30%" stop-color="#36D1FF" stop-opacity="0.35" /><stop offset="100%" stop-color="#36D1FF" stop-opacity="0" /></radialGradient><linearGradient id="glass212" x1="0%" y1="0%" x2="0%" y2="100%"><stop offset="0%" stop-color="#FFFFFF" stop-opacity="0.70" /><stop offset="46%" stop-color="#FFFFFF" stop-opacity="0.26" /><stop offset="100%" stop-color="#FFFFFF" stop-opacity="0.00" /></linearGradient><linearGradient id="ribbon212" x1="0%" y1="0%" x2="100%" y2="0%"><stop offset="0%" stop-color="#8A5CFF" stop-opacity="0.18" /><stop offset="34%" stop-color="#FF9F43" stop-opacity="0.72" /><stop offset="66%" stop-color="#53E3A6" stop-opacity="0.72" /><stop offset="100%" stop-color="#36D1FF" stop-opacity="0.18" /></linearGradient><radialGradient id="orb212" cx="34%" cy="27%" r="74%"><stop offset="0%" stop-color="#FFFFFF" stop-opacity="0.84" /><stop offset="30%" stop-color="#8A5CFF" stop-opacity="0.52" /><stop offset="68%" stop-color="#FF9F43" stop-opacity="0.42" /><stop offset="100%" stop-color="#53E3A6" stop-opacity="0.20" /></radialGradient><linearGradient id="extrude212" x1="0%" y1="0%" x2="0%" y2="100%"><stop offset="0%" stop-color="#15283C" stop-opacity="0.45" /><stop offset="100%" stop-color="#08131D" stop-opacity="0.06" /></linearGradient><linearGradient id="symbol212" x1="0%" y1="0%" x2="100%" y2="100%"><stop offset="0%" stop-color="#FFFFFF" /><stop offset="100%" stop-color="#36D1FF" /></linearGradient><filter id="shadow212" x="-40%" y="-40%" width="180%" height="180%"><feDropShadow dx="0" dy="49" stdDeviation="86" flood-color="#06111A" flood-opacity="0.54" /></filter><filter id="soft212" x="-40%" y="-40%" width="180%" height="180%"><feDropShadow dx="0" dy="0" stdDeviation="14" flood-color="#8A5CFF" flood-opacity="0.45" /></filter><filter id="grain212"><feTurbulence type="fractalNoise" baseFrequency="0.717" numOctaves="2" seed="212" /><feColorMatrix type="saturate" values="0" /><feComponentTransfer><feFuncA type="table" tableValues="0 0.09" /></feComponentTransfer></filter></defs>
  <rect x="138" y="138" width="2796" height="2796" rx="629" fill="url(#bg212)" filter="url(#shadow212)" />
  <rect x="138" y="138" width="2796" height="2796" rx="629" fill="url(#sun212)" />
  <g><circle cx="1686" cy="745" r="68" fill="#FFFFFF" opacity="0.209" /><circle cx="1885" cy="822" r="82" fill="#FFFFFF" opacity="0.167" /><circle cx="685" cy="997" r="116" fill="#FFFFFF" opacity="0.164" /><circle cx="639" cy="1085" r="139" fill="#FFFFFF" opacity="0.089" /><circle cx="1801" cy="489" r="42" fill="#FFFFFF" opacity="0.196" /><circle cx="1211" cy="1102" r="128" fill="#FFFFFF" opacity="0.140" /><circle cx="420" cy="1356" r="59" fill="#FFFFFF" opacity="0.169" /><circle cx="2425" cy="1058" r="142" fill="#FFFFFF" opacity="0.219" /><circle cx="963" cy="1334" r="148" fill="#FFFFFF" opacity="0.064" /><circle cx="722" cy="1370" r="120" fill="#FFFFFF" opacity="0.149" /><circle cx="2556" cy="1413" r="121" fill="#FFFFFF" opacity="0.215" /><circle cx="423" cy="541" r="132" fill="#FFFFFF" opacity="0.125" /><circle cx="2356" cy="2273" r="69" fill="#FFFFFF" opacity="0.080" /><circle cx="1945" cy="945" r="63" fill="#FFFFFF" opacity="0.230" /><circle cx="2520" cy="1458" r="79" fill="#FFFFFF" opacity="0.210" /><circle cx="677" cy="993" r="37" fill="#FFFFFF" opacity="0.099" /><circle cx="2149" cy="887" r="79" fill="#FFFFFF" opacity="0.233" /><circle cx="1175" cy="2414" r="115" fill="#FFFFFF" opacity="0.162" /><circle cx="2216" cy="742" r="64" fill="#FFFFFF" opacity="0.218" /><circle cx="2319" cy="1524" r="123" fill="#FFFFFF" opacity="0.159" /><circle cx="2474" cy="1284" r="75" fill="#FFFFFF" opacity="0.208" /><circle cx="2461" cy="400" r="100" fill="#FFFFFF" opacity="0.146" /><circle cx="2001" cy="629" r="76" fill="#FFFFFF" opacity="0.074" /><circle cx="1218" cy="2043" r="143" fill="#FFFFFF" opacity="0.192" /><circle cx="1070" cy="468" r="71" fill="#FFFFFF" opacity="0.068" /><circle cx="2577" cy="1484" r="133" fill="#FFFFFF" opacity="0.061" /><circle cx="1994" cy="544" r="116" fill="#FFFFFF" opacity="0.063" /><circle cx="634" cy="1610" r="85" fill="#FFFFFF" opacity="0.102" /></g>
  <g><path d="M 225.8 630.3 L 2778.4 353.8 L 2778.4 843.0 L 225.8 1119.5 Z" fill="#FFFFFF" opacity="0.169" /><path d="M 346.4 855.5 L 2791.6 579.0 L 2791.6 1020.6 L 346.4 1297.0 Z" fill="#FFFFFF" opacity="0.135" /><path d="M 294.6 1115.3 L 2730.2 838.8 L 2730.2 1299.1 L 294.6 1575.6 Z" fill="#FFFFFF" opacity="0.100" /><path d="M 385.9 1389.6 L 2906.8 1113.2 L 2906.8 1605.4 L 385.9 1881.9 Z" fill="#FFFFFF" opacity="0.141" /><path d="M 165.9 1687.2 L 2784.7 1410.7 L 2784.7 1905.4 L 165.9 2181.9 Z" fill="#FFFFFF" opacity="0.086" /><path d="M 240.7 1960.8 L 2894.2 1684.4 L 2894.2 2107.0 L 240.7 2383.4 Z" fill="#FFFFFF" opacity="0.164" /><path d="M 234.2 2219.6 L 2915.1 1943.1 L 2915.1 2410.4 L 234.2 2686.9 Z" fill="#FFFFFF" opacity="0.123" /><path d="M 229.8 2399.9 L 2792.2 2123.4 L 2792.2 2544.1 L 229.8 2820.6 Z" fill="#FFFFFF" opacity="0.122" /></g>
  <g filter="url(#soft212)"><g transform="rotate(-23.04 1536.0 1536.0)"><path d="M-368.6 475.3 C -225.8 527.8, -25.8 428.1, 107.5 477.7 C 250.4 478.5, 450.4 473.0, 583.7 437.3 C 726.5 432.1, 926.5 512.9, 1059.8 420.0 C 1202.7 423.6, 1402.7 494.1, 1536.0 436.2 C 1678.8 427.4, 1878.8 519.5, 2012.2 476.1 C 2155.0 476.0, 2355.0 474.6, 2488.3 515.5 C 2631.2 516.9, 2831.2 441.6, 2964.5 530.5 C 3107.3 531.4, 3307.3 416.1, 3440.6 512.0" fill="none" stroke="url(#ribbon212)" stroke-width="58.4" stroke-linecap="round" stroke-opacity="0.120" /></g><g transform="rotate(-22.46 1536.0 1536.0)"><path d="M-368.6 685.5 C -241.7 680.8, -63.9 691.3, 54.6 636.2 C 181.6 643.3, 359.4 720.5, 477.9 623.8 C 604.8 601.8, 782.6 712.9, 901.1 648.8 C 1028.1 643.7, 1205.9 698.0, 1324.4 696.0 C 1451.3 699.1, 1629.1 673.8, 1747.6 736.9 C 1874.6 725.7, 2052.4 638.8, 2170.9 746.6 C 2297.9 749.6, 2475.6 623.1, 2594.1 719.3 C 2721.1 717.9, 2898.9 661.3, 3017.4 671.4 C 3144.4 671.4, 3322.1 700.4, 3440.6 632.1" fill="none" stroke="url(#ribbon212)" stroke-width="54.4" stroke-linecap="round" stroke-opacity="0.146" /></g><g transform="rotate(-21.88 1536.0 1536.0)"><path d="M-368.6 897.0 C -254.4 860.1, -94.4 930.9, 12.3 830.7 C 126.6 816.6, 286.6 942.7, 393.2 835.9 C 507.5 836.0, 667.5 928.4, 774.1 878.1 C 888.4 873.6, 1048.4 911.9, 1155.1 931.8 C 1269.4 937.8, 1429.3 870.2, 1536.0 964.3 C 1650.3 945.8, 1810.3 818.0, 1916.9 956.0 C 2031.2 942.8, 2191.2 878.6, 2297.9 911.9 C 2412.1 917.7, 2572.1 882.6, 2678.8 858.7 C 2793.1 858.3, 2953.1 937.3, 3059.7 828.8 C 3174.0 806.4, 3334.0 956.9, 3440.6 840.2" fill="none" stroke="url(#ribbon212)" stroke-width="50.4" stroke-linecap="round" stroke-opacity="0.172" /></g><g transform="rotate(-21.30 1536.0 1536.0)"><path d="M-368.6 1115.1 C -264.8 1051.2, -119.3 1147.8, -22.3 1110.7 C 81.5 1109.5, 227.0 1119.5, 324.0 1166.8 C 427.8 1158.1, 573.3 1083.7, 670.3 1191.5 C 774.1 1167.9, 919.6 1024.4, 1016.6 1169.9 C 1120.4 1188.6, 1265.9 1090.5, 1362.9 1115.0 C 1466.7 1115.0, 1612.2 1115.1, 1709.1 1060.1 C 1813.0 1057.8, 1958.5 1161.7, 2055.4 1038.6 C 2159.3 1064.8, 2304.8 1196.0, 2401.7 1063.5 C 2505.6 1053.1, 2651.1 1150.7, 2748.0 1119.6 C 2851.9 1119.6, 2997.4 1110.3, 3094.3 1173.0 C 3198.2 1186.4, 3343.7 1069.5, 3440.6 1191.3" fill="none" stroke="url(#ribbon212)" stroke-width="46.4" stroke-linecap="round" stroke-opacity="0.198" /></g><g transform="rotate(-20.72 1536.0 1536.0)"><path d="M-368.6 1260.8 C -273.4 1279.0, -140.1 1252.1, -51.2 1330.9 C 44.0 1309.6, 177.4 1203.3, 266.2 1342.3 C 361.5 1346.9, 494.8 1220.0, 583.7 1304.4 C 678.9 1308.8, 812.2 1241.2, 901.1 1240.0 C 996.4 1236.6, 1129.7 1274.8, 1218.6 1188.3 C 1313.8 1204.3, 1447.1 1316.7, 1536.0 1180.6 C 1631.2 1186.1, 1764.6 1340.2, 1853.4 1221.5 C 1948.7 1206.2, 2082.0 1303.7, 2170.9 1286.4 C 2266.1 1276.9, 2399.4 1248.5, 2488.3 1335.7 C 2583.6 1328.3, 2716.9 1219.8, 2805.8 1339.6 C 2901.0 1312.0, 3034.3 1175.3, 3123.2 1295.8 C 3218.4 1284.3, 3351.8 1224.7, 3440.6 1230.7" fill="none" stroke="url(#ribbon212)" stroke-width="42.4" stroke-linecap="round" stroke-opacity="0.224" /></g><g transform="rotate(-20.14 1536.0 1536.0)"><path d="M-368.6 1471.3 C -225.8 1588.6, -25.8 1421.9, 107.5 1545.8 C 250.4 1549.6, 450.4 1382.0, 583.7 1486.3 C 726.5 1488.6, 926.5 1456.3, 1059.8 1417.6 C 1202.7 1434.2, 1402.7 1507.8, 1536.0 1381.5 C 1678.8 1407.4, 1878.8 1513.2, 2012.2 1399.8 C 2155.0 1418.3, 2355.0 1494.4, 2488.3 1461.5 C 2631.2 1459.8, 2831.2 1481.4, 2964.5 1529.1 C 3107.3 1535.9, 3307.3 1406.0, 3440.6 1561.6" fill="none" stroke="url(#ribbon212)" stroke-width="38.4" stroke-linecap="round" stroke-opacity="0.250" /></g><g transform="rotate(-19.56 1536.0 1536.0)"><path d="M-368.6 1625.3 C -241.7 1690.2, -63.9 1546.2, 54.6 1686.6 C 181.6 1694.8, 359.4 1577.8, 477.9 1613.5 C 604.8 1609.0, 782.6 1631.5, 901.1 1547.5 C 1028.1 1518.3, 1205.9 1714.7, 1324.4 1528.7 C 1451.3 1496.5, 1629.1 1722.0, 1747.6 1568.5 C 1874.6 1569.0, 2052.4 1657.2, 2170.9 1642.8 C 2297.9 1642.9, 2475.6 1616.3, 2594.1 1706.4 C 2721.1 1677.1, 2898.9 1575.1, 3017.4 1720.9 C 3144.4 1689.5, 3322.1 1533.0, 3440.6 1677.4" fill="none" stroke="url(#ribbon212)" stroke-width="34.4" stroke-linecap="round" stroke-opacity="0.276" /></g><g transform="rotate(-18.98 1536.0 1536.0)"><path d="M-368.6 1892.8 C -254.4 1819.8, -94.4 1941.6, 12.3 1788.1 C 126.6 1786.2, 286.6 2015.0, 393.2 1816.9 C 507.5 1789.2, 667.5 1944.9, 774.1 1891.7 C 888.4 1891.7, 1048.4 1893.7, 1155.1 1967.2 C 1269.4 1972.8, 1429.3 1863.2, 1536.0 1997.6 C 1650.3 2011.2, 1810.3 1836.9, 1916.9 1964.4 C 2031.2 1979.6, 2191.2 1856.3, 2297.9 1887.8 C 2412.1 1889.8, 2572.1 1895.2, 2678.8 1814.3 C 2793.1 1818.5, 2953.1 1969.2, 3059.7 1788.4 C 3174.0 1757.4, 3334.0 1971.8, 3440.6 1825.8" fill="none" stroke="url(#ribbon212)" stroke-width="30.4" stroke-linecap="round" stroke-opacity="0.302" /></g><g transform="rotate(-18.40 1536.0 1536.0)"><path d="M-368.6 2063.9 C -264.8 2075.8, -119.3 2055.4, -22.3 2156.1 C 81.5 2127.3, 227.0 2017.1, 324.0 2173.5 C 427.8 2141.7, 573.3 1975.7, 670.3 2124.5 C 774.1 2109.2, 919.6 2001.1, 1016.6 2038.7 C 1120.4 2042.7, 1265.9 2076.5, 1362.9 1968.2 C 1466.7 1956.2, 1612.2 2133.1, 1709.1 1955.7 C 1813.0 1929.6, 1958.5 2168.4, 2055.4 2008.9 C 2159.3 1994.1, 2304.8 2127.4, 2401.7 2095.4 C 2505.6 2090.5, 2651.1 2027.5, 2748.0 2162.8 C 2851.9 2174.2, 2997.4 1976.2, 3094.3 2170.2 C 3198.2 2180.3, 3343.7 1957.8, 3440.6 2113.1" fill="none" stroke="url(#ribbon212)" stroke-width="26.4" stroke-linecap="round" stroke-opacity="0.328" /></g><g transform="rotate(-17.82 1536.0 1536.0)"><path d="M-368.6 2218.0 C -273.4 2147.7, -140.1 2278.9, -51.2 2214.6 C 44.0 2214.5, 177.4 2219.1, 266.2 2300.9 C 361.5 2277.5, 494.8 2133.4, 583.7 2336.9 C 678.9 2354.1, 812.2 2133.6, 901.1 2300.8 C 996.4 2289.6, 1129.7 2185.3, 1218.6 2214.5 C 1313.8 2213.1, 1447.1 2220.1, 1536.0 2130.3 C 1631.2 2134.2, 1764.6 2277.9, 1853.4 2099.3 C 1948.7 2064.1, 2082.0 2351.7, 2170.9 2140.4 C 2266.1 2151.7, 2399.4 2276.7, 2488.3 2228.5 C 2583.6 2228.8, 2716.9 2209.8, 2805.8 2310.3 C 2901.0 2279.4, 3034.3 2119.1, 3123.2 2336.1 C 3218.4 2331.5, 3351.8 2156.2, 3440.6 2290.3" fill="none" stroke="url(#ribbon212)" stroke-width="22.4" stroke-linecap="round" stroke-opacity="0.354" /></g><g transform="rotate(-17.24 1536.0 1536.0)"><path d="M-368.6 2457.2 C -225.8 2616.9, -25.8 2350.1, 107.5 2535.8 C 250.4 2533.2, 450.4 2426.9, 583.7 2441.3 C 726.5 2447.3, 926.5 2465.3, 1059.8 2356.5 C 1202.7 2325.2, 1402.7 2490.7, 1536.0 2332.8 C 1678.8 2289.0, 1878.8 2532.1, 2012.2 2384.5 C 2155.0 2387.7, 2355.0 2490.5, 2488.3 2480.4 C 2631.2 2477.7, 2831.2 2449.4, 2964.5 2562.2 C 3107.3 2586.5, 3307.3 2374.9, 3440.6 2580.3" fill="none" stroke="url(#ribbon212)" stroke-width="18.4" stroke-linecap="round" stroke-opacity="0.380" /></g><g transform="rotate(-16.66 1536.0 1536.0)"><path d="M-368.6 2694.4 C -241.7 2690.9, -63.9 2697.5, 54.6 2786.9 C 181.6 2777.0, 359.4 2636.0, 477.9 2827.4 C 604.8 2841.1, 782.6 2576.4, 901.1 2787.2 C 1028.1 2808.4, 1205.9 2618.7, 1324.4 2690.8 C 1451.3 2692.1, 1629.1 2696.1, 1747.6 2596.5 C 1874.6 2624.9, 2052.4 2734.8, 2170.9 2561.6 C 2297.9 2601.1, 2475.6 2803.6, 2594.1 2607.3 C 2721.1 2628.7, 2898.9 2756.8, 3017.4 2705.8 C 3144.4 2708.8, 3322.1 2685.7, 3440.6 2797.4" fill="none" stroke="url(#ribbon212)" stroke-width="14.4" stroke-linecap="round" stroke-opacity="0.406" /></g></g>
  <g><ellipse cx="1536.0" cy="1551.9" rx="728.6" ry="605.7" fill="url(#extrude212)" opacity="0.220" /><ellipse cx="1536.0" cy="1567.7" rx="736.0" ry="610.9" fill="url(#extrude212)" opacity="0.205" /><ellipse cx="1536.0" cy="1583.6" rx="743.4" ry="616.1" fill="url(#extrude212)" opacity="0.190" /><ellipse cx="1536.0" cy="1599.5" rx="750.9" ry="621.3" fill="url(#extrude212)" opacity="0.175" /><ellipse cx="1536.0" cy="1615.4" rx="758.3" ry="626.5" fill="url(#extrude212)" opacity="0.160" /><ellipse cx="1536.0" cy="1631.2" rx="765.7" ry="631.7" fill="url(#extrude212)" opacity="0.145" /><ellipse cx="1536.0" cy="1647.1" rx="773.2" ry="636.9" fill="url(#extrude212)" opacity="0.130" /><ellipse cx="1536.0" cy="1663.0" rx="780.6" ry="642.1" fill="url(#extrude212)" opacity="0.115" /><ellipse cx="1536.0" cy="1678.8" rx="788.0" ry="647.4" fill="url(#extrude212)" opacity="0.100" /><ellipse cx="1536.0" cy="1694.7" rx="795.5" ry="652.6" fill="url(#extrude212)" opacity="0.085" /><ellipse cx="1536.0" cy="1710.6" rx="802.9" ry="657.8" fill="url(#extrude212)" opacity="0.070" /><ellipse cx="1536.0" cy="1726.5" rx="810.3" ry="663.0" fill="url(#extrude212)" opacity="0.055" /></g>
  <ellipse cx="1536.0" cy="1726.5" rx="773.2" ry="214.9" fill="#0B1D2D" opacity="0.24" />
  <ellipse cx="1536.0" cy="1536.0" rx="743.4" ry="651.3" fill="url(#orb212)" stroke="#FFFFFF" stroke-opacity="0.42" stroke-width="7" />
  <ellipse cx="1431.9" cy="1392.7" rx="505.5" ry="299.6" fill="#FFFFFF" opacity="0.25" />
  <path d="M 199.4 399.4 C 1013.8 -30.7, 2058.2 768.0, 2872.6 215.0 L 2872.6 983.0 C 2089.0 1228.8, 1013.8 307.2, 199.4 1167.4 Z" fill="url(#glass212)" />
  <rect x="270" y="270" width="2532" height="2532" rx="430" fill="none" stroke="#FFFFFF" stroke-opacity="0.30" stroke-width="5" />
  <rect x="288.4" y="288.4" width="2495.1" height="2495.1" rx="399" fill="none" stroke="#8A5CFF" stroke-opacity="0.35" stroke-width="3" />
  <g filter="url(#soft212)"><rect x="1698" y="2077" width="72" height="2" fill="#FFFFFF" opacity="0.334" /><rect x="1733" y="2042" width="2" height="72" fill="#FFFFFF" opacity="0.334" /><rect x="1883" y="2190" width="84" height="2" fill="#FFFFFF" opacity="0.572" /><rect x="1924" y="2149" width="2" height="84" fill="#FFFFFF" opacity="0.572" /><rect x="2555" y="2543" width="64" height="2" fill="#FFFFFF" opacity="0.663" /><rect x="2586" y="2512" width="2" height="64" fill="#FFFFFF" opacity="0.663" /><rect x="1545" y="711" width="36" height="2" fill="#FFFFFF" opacity="0.474" /><rect x="1562" y="694" width="2" height="36" fill="#FFFFFF" opacity="0.474" /><rect x="527" y="582" width="54" height="2" fill="#FFFFFF" opacity="0.360" /><rect x="553" y="556" width="2" height="54" fill="#FFFFFF" opacity="0.360" /><rect x="1315" y="1212" width="84" height="2" fill="#FFFFFF" opacity="0.333" /><rect x="1356" y="1171" width="2" height="84" fill="#FFFFFF" opacity="0.333" /><rect x="2639" y="1555" width="30" height="2" fill="#FFFFFF" opacity="0.695" /><rect x="2653" y="1541" width="2" height="30" fill="#FFFFFF" opacity="0.695" /><rect x="1918" y="342" width="52" height="2" fill="#FFFFFF" opacity="0.495" /><rect x="1943" y="317" width="2" height="52" fill="#FFFFFF" opacity="0.495" /><rect x="2807" y="1220" width="32" height="2" fill="#FFFFFF" opacity="0.766" /><rect x="2822" y="1205" width="2" height="32" fill="#FFFFFF" opacity="0.766" /><rect x="698" y="1133" width="60" height="2" fill="#FFFFFF" opacity="0.377" /><rect x="727" y="1104" width="2" height="60" fill="#FFFFFF" opacity="0.377" /><rect x="1484" y="1057" width="26" height="2" fill="#FFFFFF" opacity="0.538" /><rect x="1496" y="1045" width="2" height="26" fill="#FFFFFF" opacity="0.538" /><rect x="1754" y="687" width="60" height="2" fill="#FFFFFF" opacity="0.559" /><rect x="1783" y="658" width="2" height="60" fill="#FFFFFF" opacity="0.559" /><rect x="2029" y="2325" width="56" height="2" fill="#FFFFFF" opacity="0.625" /><rect x="2056" y="2298" width="2" height="56" fill="#FFFFFF" opacity="0.625" /><rect x="2586" y="1951" width="66" height="2" fill="#FFFFFF" opacity="0.524" /><rect x="2618" y="1919" width="2" height="66" fill="#FFFFFF" opacity="0.524" /><rect x="1741" y="1541" width="36" height="2" fill="#FFFFFF" opacity="0.452" /><rect x="1758" y="1524" width="2" height="36" fill="#FFFFFF" opacity="0.452" /><rect x="596" y="1716" width="30" height="2" fill="#FFFFFF" opacity="0.818" /><rect x="610" y="1702" width="2" height="30" fill="#FFFFFF" opacity="0.818" /><rect x="2326" y="2491" width="50" height="2" fill="#FFFFFF" opacity="0.845" /><rect x="2350" y="2467" width="2" height="50" fill="#FFFFFF" opacity="0.845" /><rect x="1466" y="2704" width="62" height="2" fill="#FFFFFF" opacity="0.304" /><rect x="1496" y="2674" width="2" height="62" fill="#FFFFFF" opacity="0.304" /><rect x="2536" y="1946" width="74" height="2" fill="#FFFFFF" opacity="0.620" /><rect x="2572" y="1910" width="2" height="74" fill="#FFFFFF" opacity="0.620" /><rect x="2181" y="1886" width="30" height="2" fill="#FFFFFF" opacity="0.599" /><rect x="2195" y="1872" width="2" height="30" fill="#FFFFFF" opacity="0.599" /><rect x="2763" y="1987" width="64" height="2" fill="#FFFFFF" opacity="0.345" /><rect x="2794" y="1956" width="2" height="64" fill="#FFFFFF" opacity="0.345" /><rect x="840" y="364" width="62" height="2" fill="#FFFFFF" opacity="0.640" /><rect x="870" y="334" width="2" height="62" fill="#FFFFFF" opacity="0.640" /><rect x="1568" y="1076" width="82" height="2" fill="#FFFFFF" opacity="0.635" /><rect x="1608" y="1036" width="2" height="82" fill="#FFFFFF" opacity="0.635" /><rect x="1449" y="2079" width="68" height="2" fill="#FFFFFF" opacity="0.641" /><rect x="1482" y="2046" width="2" height="68" fill="#FFFFFF" opacity="0.641" /><rect x="2011" y="1657" width="56" height="2" fill="#FFFFFF" opacity="0.496" /><rect x="2038" y="1630" width="2" height="56" fill="#FFFFFF" opacity="0.496" /><rect x="2738" y="1335" width="26" height="2" fill="#FFFFFF" opacity="0.581" /><rect x="2750" y="1323" width="2" height="26" fill="#FFFFFF" opacity="0.581" /></g>
  <g opacity="0.52"><path d="M1023 1326 L1572 1070 L2121 1326 L2121 2043 L1023 2043 Z" fill="none" stroke="#0C2030" stroke-width="90" stroke-linejoin="round" /><line x1="1572" y1="1070" x2="1572" y2="2043" stroke="#0C2030" stroke-width="88" /></g>
  <g filter="url(#soft212)"><path d="M987 1280 L1536 1024 L2085 1280 L2085 1997 L987 1997 Z" fill="none" stroke="url(#symbol212)" stroke-width="90" stroke-linejoin="round" /><line x1="1536" y1="1024" x2="1536" y2="1997" stroke="url(#symbol212)" stroke-width="88" /></g>
  <rect x="138" y="138" width="2796" height="2796" rx="629" fill="#FFFFFF" filter="url(#grain212)" opacity="0.18" />
</svg>
