<svg xmlns="http://www.w3.org/2000/svg" width="3072" height="3072" viewBox="0 0 3072 3072">
  <title>QuartzOS App Icon 153 - neon_viewer_153</title>
  <defs><linearGradient id="bg152" x1="0%" y1="0%" x2="100%" y2="100%"><stop offset="0%" stop-color="#FFD84D" /><stop offset="26%" stop-color="#36D1FF" /><stop offset="56%" stop-color="#8A5CFF" /><stop offset="78%" stop-color="#3C8FC1" /><stop offset="100%" stop-color="#1E2E3A" /></linearGradient><radialGradient id="sun152" cx="26%" cy="12%" r="88%"><stop offset="0%" stop-color="#FFFFFF" stop-opacity="0.62" /><stop offset="30%" stop-color="#FF6AB3" stop-opacity="0.35" /><stop offset="100%" stop-color="#FF6AB3" stop-opacity="0" /></radialGradient><linearGradient id="glass152" x1="0%" y1="0%" x2="0%" y2="100%"><stop offset="0%" stop-color="#FFFFFF" stop-opacity="0.70" /><stop offset="46%" stop-color="#FFFFFF" stop-opacity="0.26" /><stop offset="100%" stop-color="#FFFFFF" stop-opacity="0.00" /></linearGradient><linearGradient id="ribbon152" x1="0%" y1="0%" x2="100%" y2="0%"><stop offset="0%" stop-color="#FFD84D" stop-opacity="0.18" /><stop offset="34%" stop-color="#36D1FF" stop-opacity="0.72" /><stop offset="66%" stop-color="#8A5CFF" stop-opacity="0.72" /><stop offset="100%" stop-color="#FF6AB3" stop-opacity="0.18" /></linearGradient><radialGradient id="orb152" cx="34%" cy="27%" r="74%"><stop offset="0%" stop-color="#FFFFFF" stop-opacity="0.84" /><stop offset="30%" stop-color="#FFD84D" stop-opacity="0.52" /><stop offset="68%" stop-color="#36D1FF" stop-opacity="0.42" /><stop offset="100%" stop-color="#8A5CFF" stop-opacity="0.20" /></radialGradient><linearGradient id="extrude152" x1="0%" y1="0%" x2="0%" y2="100%"><stop offset="0%" stop-color="#15283C" stop-opacity="0.45" /><stop offset="100%" stop-color="#08131D" stop-opacity="0.06" /></linearGradient><linearGradient id="symbol152" x1="0%" y1="0%" x2="100%" y2="100%"><stop offset="0%" stop-color="#FFFFFF" /><stop offset="100%" stop-color="#FF6AB3" /></linearGradient><filter id="shadow152" x="-40%" y="-40%" width="180%" height="180%"><feDropShadow dx="0" dy="49" stdDeviation="86" flood-color="#06111A" flood-opacity="0.54" /></filter><filter id="soft152" x="-40%" y="-40%" width="180%" height="180%"><feDropShadow dx="0" dy="0" stdDeviation="14" flood-color="#FFD84D" flood-opacity="0.45" /></filter><filter id="grain152"><feTurbulence type="fractalNoise" baseFrequency="0.699" numOctaves="2" seed="152" /><feColorMatrix type="saturate" values="0" /><feComponentTransfer><feFuncA type="table" tableValues="0 0.09" /></feComponentTransfer></filter></defs>
  <rect x="138" y="138" width="2796" height="2796" rx="629" fill="url(#bg152)" filter="url(#shadow152)" />
  <rect x="138" y="138" width="2796" height="2796" rx="629" fill="url(#sun152)" />
  <g><circle cx="2122" cy="1580" r="90" fill="#FFFFFF" opacity="0.072" /><circle cx="420" cy="1631" r="37" fill="#FFFFFF" opacity="0.080" /><circle cx="578" cy="419" r="75" fill="#FFFFFF" opacity="0.100" /><circle cx="1985" cy="1949" r="120" fill="#FFFFFF" opacity="0.144" /><circle cx="878" cy="1633" r="69" fill="#FFFFFF" opacity="0.207" /><circle cx="2496" cy="1289" r="57" fill="#FFFFFF" opacity="0.221" /><circle cx="2060" cy="2438" r="70" fill="#FFFFFF" opacity="0.231" /><circle cx="582" cy="551" r="131" fill="#FFFFFF" opacity="0.183" /><circle cx="662" cy="1095" r="90" fill="#FFFFFF" opacity="0.194" /><circle cx="406" cy="2161" r="45" fill="#FFFFFF" opacity="0.234" /><circle cx="1858" cy="1656" r="129" fill="#FFFFFF" opacity="0.185" /><circle cx="1852" cy="1409" r="143" fill="#FFFFFF" opacity="0.194" /><circle cx="1547" cy="2672" r="142" fill="#FFFFFF" opacity="0.215" /><circle cx="1369" cy="2496" r="75" fill="#FFFFFF" opacity="0.191" /><circle cx="2447" cy="1045" r="145" fill="#FFFFFF" opacity="0.216" /><circle cx="1131" cy="1784" r="157" fill="#FFFFFF" opacity="0.238" /><circle cx="1148" cy="1404" r="82" fill="#FFFFFF" opacity="0.183" /><circle cx="836" cy="551" r="46" fill="#FFFFFF" opacity="0.135" /><circle cx="2164" cy="2279" r="64" fill="#FFFFFF" opacity="0.110" /><circle cx="2490" cy="1719" r="122" fill="#FFFFFF" opacity="0.238" /><circle cx="604" cy="2190" r="132" fill="#FFFFFF" opacity="0.064" /><circle cx="2492" cy="2536" r="54" fill="#FFFFFF" opacity="0.220" /><circle cx="1190" cy="1689" r="143" fill="#FFFFFF" opacity="0.232" /><circle cx="1380" cy="2391" r="72" fill="#FFFFFF" opacity="0.126" /><circle cx="1218" cy="1366" r="155" fill="#FFFFFF" opacity="0.209" /><circle cx="882" cy="1789" r="38" fill="#FFFFFF" opacity="0.145" /><circle cx="529" cy="597" r="94" fill="#FFFFFF" opacity="0.234" /><circle cx="2279" cy="2070" r="125" fill="#FFFFFF" opacity="0.165" /></g>
  <g><path d="M 303.8 597.4 L 2903.1 320.9 L 2903.1 816.1 L 303.8 1092.6 Z" fill="#FFFFFF" opacity="0.151" /><path d="M 369.5 859.8 L 2860.5 583.3 L 2860.5 1022.3 L 369.5 1298.7 Z" fill="#FFFFFF" opacity="0.145" /><path d="M 195.4 1122.7 L 2780.7 846.2 L 2780.7 1309.0 L 195.4 1585.5 Z" fill="#FFFFFF" opacity="0.201" /><path d="M 231.5 1424.1 L 2834.9 1147.6 L 2834.9 1626.1 L 231.5 1902.6 Z" fill="#FFFFFF" opacity="0.091" /><path d="M 265.5 1623.1 L 2894.6 1346.6 L 2894.6 1792.2 L 265.5 2068.7 Z" fill="#FFFFFF" opacity="0.202" /><path d="M 273.0 1881.1 L 2728.8 1604.7 L 2728.8 2067.2 L 273.0 2343.7 Z" fill="#FFFFFF" opacity="0.103" /><path d="M 293.8 2135.4 L 2825.5 1858.9 L 2825.5 2281.4 L 293.8 2557.9 Z" fill="#FFFFFF" opacity="0.224" /><path d="M 274.5 2425.3 L 2693.8 2148.8 L 2693.8 2634.5 L 274.5 2911.0 Z" fill="#FFFFFF" opacity="0.215" /></g>
  <g filter="url(#soft152)"><g transform="rotate(-15.51 1536.0 1536.0)"><path d="M-368.6 561.9 C -225.8 484.7, -25.8 586.3, 107.5 520.7 C 250.4 505.0, 450.4 610.1, 583.7 559.7 C 726.5 559.0, 926.5 563.6, 1059.8 600.0 C 1202.7 591.3, 1402.7 549.7, 1536.0 617.2 C 1678.8 606.5, 1878.8 530.3, 2012.2 600.8 C 2155.0 614.1, 2355.0 526.0, 2488.3 560.8 C 2631.2 560.8, 2831.2 562.9, 2964.5 521.5 C 3107.3 516.8, 3307.3 597.2, 3440.6 506.6" fill="none" stroke="url(#ribbon152)" stroke-width="58.4" stroke-linecap="round" stroke-opacity="0.120" /></g><g transform="rotate(-14.93 1536.0 1536.0)"><path d="M-368.6 762.9 C -241.7 830.3, -63.9 737.1, 54.6 813.5 C 181.6 826.2, 359.4 723.5, 477.9 772.0 C 604.8 771.2, 782.6 758.8, 901.1 725.0 C 1028.1 720.8, 1205.9 808.4, 1324.4 701.0 C 1451.3 718.5, 1629.1 795.9, 1747.6 714.5 C 1874.6 696.3, 2052.4 789.1, 2170.9 757.4 C 2297.9 758.7, 2475.6 768.0, 2594.1 803.6 C 2721.1 795.1, 2898.9 734.2, 3017.4 825.1 C 3144.4 848.6, 3322.1 743.7, 3440.6 808.9" fill="none" stroke="url(#ribbon152)" stroke-width="54.4" stroke-linecap="round" stroke-opacity="0.146" /></g><g transform="rotate(-14.35 1536.0 1536.0)"><path d="M-368.6 870.7 C -254.4 909.7, -94.4 817.9, 12.3 873.8 C 126.6 873.0, 286.6 868.2, 393.2 823.1 C 507.5 831.7, 667.5 905.9, 774.1 801.3 C 888.4 804.6, 1048.4 918.9, 1155.1 821.7 C 1269.4 837.5, 1429.3 902.9, 1536.0 871.8 C 1650.3 871.7, 1810.3 869.7, 1916.9 921.3 C 2031.2 924.4, 2191.2 846.2, 2297.9 940.1 C 2412.1 952.3, 2572.1 796.8, 2678.8 916.9 C 2793.1 928.4, 2953.1 820.4, 3059.7 865.7 C 3174.0 865.8, 3334.0 873.0, 3440.6 817.5" fill="none" stroke="url(#ribbon152)" stroke-width="50.4" stroke-linecap="round" stroke-opacity="0.172" /></g><g transform="rotate(-13.77 1536.0 1536.0)"><path d="M-368.6 1126.6 C -264.8 1151.0, -119.3 1087.3, -22.3 1103.4 C 81.5 1108.5, 227.0 1137.2, 324.0 1058.1 C 427.8 1072.2, 573.3 1206.3, 670.3 1054.4 C 774.1 1026.8, 919.6 1180.0, 1016.6 1094.4 C 1120.4 1091.0, 1265.9 1146.9, 1362.9 1154.0 C 1466.7 1151.7, 1612.2 1096.0, 1709.1 1196.9 C 1813.0 1203.0, 1958.5 1090.3, 2055.4 1197.2 C 2159.3 1220.5, 2304.8 1085.7, 2401.7 1154.6 C 2505.6 1145.7, 2651.1 1116.3, 2748.0 1095.1 C 2851.9 1106.6, 2997.4 1153.1, 3094.3 1054.6 C 3198.2 1058.7, 3343.7 1155.0, 3440.6 1057.8" fill="none" stroke="url(#ribbon152)" stroke-width="46.4" stroke-linecap="round" stroke-opacity="0.198" /></g><g transform="rotate(-13.19 1536.0 1536.0)"><path d="M-368.6 1355.9 C -273.4 1285.5, -140.1 1404.0, -51.2 1339.1 C 44.0 1341.5, 177.4 1375.9, 266.2 1402.9 C 361.5 1393.5, 494.8 1315.1, 583.7 1438.2 C 678.9 1463.4, 812.2 1283.4, 901.1 1423.5 C 996.4 1417.7, 1129.7 1277.3, 1218.6 1367.8 C 1313.8 1371.9, 1447.1 1348.4, 1536.0 1304.9 C 1631.2 1293.1, 1764.6 1382.9, 1853.4 1272.8 C 1948.7 1305.2, 2082.0 1420.3, 2170.9 1291.2 C 2266.1 1313.8, 2399.4 1389.1, 2488.3 1348.7 C 2583.6 1348.7, 2716.9 1363.9, 2805.8 1410.6 C 2901.0 1398.8, 3034.3 1300.3, 3123.2 1439.3 C 3218.4 1426.8, 3351.8 1313.5, 3440.6 1417.3" fill="none" stroke="url(#ribbon152)" stroke-width="42.4" stroke-linecap="round" stroke-opacity="0.224" /></g><g transform="rotate(-12.61 1536.0 1536.0)"><path d="M-368.6 1486.6 C -225.8 1530.5, -25.8 1458.2, 107.5 1463.7 C 250.4 1466.4, 450.4 1513.1, 583.7 1407.7 C 726.5 1414.5, 926.5 1522.0, 1059.8 1399.6 C 1202.7 1431.3, 1402.7 1533.7, 1536.0 1444.2 C 1678.8 1436.1, 1878.8 1507.5, 2012.2 1514.6 C 2155.0 1513.5, 2355.0 1466.2, 2488.3 1567.9 C 2631.2 1598.9, 2831.2 1443.9, 2964.5 1571.9 C 3107.3 1554.1, 3307.3 1393.6, 3440.6 1524.2" fill="none" stroke="url(#ribbon152)" stroke-width="38.4" stroke-linecap="round" stroke-opacity="0.250" /></g><g transform="rotate(-12.03 1536.0 1536.0)"><path d="M-368.6 1699.6 C -241.7 1634.7, -63.9 1795.2, 54.6 1616.2 C 181.6 1604.8, 359.4 1782.5, 477.9 1677.9 C 604.8 1669.9, 782.6 1721.9, 901.1 1752.8 C 1028.1 1774.1, 1205.9 1674.5, 1324.4 1795.5 C 1451.3 1811.3, 1629.1 1648.5, 1747.6 1780.0 C 1874.6 1749.6, 2052.4 1652.0, 2170.9 1715.7 C 2297.9 1719.4, 2475.6 1682.0, 2594.1 1641.7 C 2721.1 1642.5, 2898.9 1766.9, 3017.4 1602.8 C 3144.4 1577.1, 3322.1 1813.7, 3440.6 1622.7" fill="none" stroke="url(#ribbon152)" stroke-width="34.4" stroke-linecap="round" stroke-opacity="0.276" /></g><g transform="rotate(-11.45 1536.0 1536.0)"><path d="M-368.6 1930.4 C -254.4 1805.8, -94.4 2001.5, 12.3 1902.7 C 126.6 1897.5, 286.6 1939.3, 393.2 1983.6 C 507.5 1981.5, 667.5 1908.4, 774.1 2032.2 C 888.4 2016.9, 1048.4 1847.0, 1155.1 2019.0 C 1269.4 1999.0, 1429.3 1853.1, 1536.0 1952.1 C 1650.3 1944.1, 1810.3 1905.0, 1916.9 1872.0 C 2031.2 1853.9, 2191.2 1995.5, 2297.9 1827.3 C 2412.1 1858.7, 2572.1 1995.3, 2678.8 1845.1 C 2793.1 1842.7, 2953.1 1959.6, 3059.7 1914.7 C 3174.0 1918.4, 3334.0 1946.7, 3440.6 1993.7" fill="none" stroke="url(#ribbon152)" stroke-width="30.4" stroke-linecap="round" stroke-opacity="0.302" /></g><g transform="rotate(-10.87 1536.0 1536.0)"><path d="M-368.6 2088.9 C -264.8 2103.6, -119.3 2077.0, -22.3 2177.5 C 81.5 2175.4, 227.0 2017.8, 324.0 2199.5 C 427.8 2228.4, 573.3 2048.8, 670.3 2154.4 C 774.1 2130.1, 919.6 2027.1, 1016.6 2069.6 C 1120.4 2072.3, 1265.9 2112.0, 1362.9 1996.4 C 1466.7 1996.1, 1612.2 2157.9, 1709.1 1979.3 C 1813.0 1954.3, 1958.5 2187.0, 2055.4 2028.7 C 2159.3 2025.1, 2304.8 2128.8, 2401.7 2114.6 C 2505.6 2110.6, 2651.1 2058.5, 2748.0 2184.9 C 2851.9 2155.2, 2997.4 1985.0, 3094.3 2196.9 C 3198.2 2166.0, 3343.7 2044.8, 3440.6 2143.4" fill="none" stroke="url(#ribbon152)" stroke-width="26.4" stroke-linecap="round" stroke-opacity="0.328" /></g><g transform="rotate(-10.29 1536.0 1536.0)"><path d="M-368.6 2235.0 C -273.4 2166.1, -140.1 2354.1, -51.2 2211.0 C 44.0 2207.7, 177.4 2243.7, 266.2 2301.8 C 361.5 2289.7, 494.8 2173.7, 583.7 2352.1 C 678.9 2363.7, 812.2 2111.3, 901.1 2331.3 C 996.4 2368.5, 1129.7 2168.0, 1218.6 2252.1 C 1313.8 2247.6, 1447.1 2227.7, 1536.0 2162.5 C 1631.2 2170.2, 1764.6 2292.7, 1853.4 2116.9 C 1948.7 2109.6, 2082.0 2333.7, 2170.9 2142.9 C 2266.1 2117.9, 2399.4 2290.6, 2488.3 2224.7 C 2583.6 2223.0, 2716.9 2243.7, 2805.8 2312.8 C 2901.0 2294.6, 3034.3 2202.1, 3123.2 2353.7 C 3218.4 2317.8, 3351.8 2142.9, 3440.6 2322.6" fill="none" stroke="url(#ribbon152)" stroke-width="22.4" stroke-linecap="round" stroke-opacity="0.354" /></g><g transform="rotate(-9.71 1536.0 1536.0)"><path d="M-368.6 2451.7 C -225.8 2302.0, -25.8 2572.6, 107.5 2414.0 C 250.4 2420.7, 450.4 2477.9, 583.7 2511.6 C 726.5 2527.4, 926.5 2395.0, 1059.8 2572.9 C 1202.7 2618.0, 1402.7 2326.1, 1536.0 2560.7 C 1678.8 2602.4, 1878.8 2406.2, 2012.2 2482.4 C 2155.0 2474.5, 2355.0 2430.6, 2488.3 2385.4 C 2631.2 2404.2, 2831.2 2524.5, 2964.5 2328.7 C 3107.3 2307.8, 3307.3 2565.8, 3440.6 2346.6" fill="none" stroke="url(#ribbon152)" stroke-width="18.4" stroke-linecap="round" stroke-opacity="0.380" /></g><g transform="rotate(-9.13 1536.0 1536.0)"><path d="M-368.6 2677.3 C -241.7 2668.6, -63.9 2685.1, 54.6 2765.6 C 181.6 2767.2, 359.4 2575.7, 477.9 2810.2 C 604.8 2794.6, 782.6 2631.3, 901.1 2774.1 C 1028.1 2757.4, 1205.9 2610.6, 1324.4 2679.3 C 1451.3 2678.7, 1629.1 2676.3, 1747.6 2583.3 C 1874.6 2595.9, 2052.4 2714.3, 2170.9 2544.3 C 2297.9 2562.9, 2475.6 2776.8, 2594.1 2586.0 C 2721.1 2563.3, 2898.9 2748.2, 3017.4 2683.0 C 3144.4 2681.2, 3322.1 2673.3, 3440.6 2776.6" fill="none" stroke="url(#ribbon152)" stroke-width="14.4" stroke-linecap="round" stroke-opacity="0.406" /></g></g>
  <g><ellipse cx="1536.0" cy="1551.9" rx="728.6" ry="605.7" fill="url(#extrude152)" opacity="0.220" /><ellipse cx="1536.0" cy="1567.7" rx="736.0" ry="610.9" fill="url(#extrude152)" opacity="0.205" /><ellipse cx="1536.0" cy="1583.6" rx="743.4" ry="616.1" fill="url(#extrude152)" opacity="0.190" /><ellipse cx="1536.0" cy="1599.5" rx="750.9" ry="621.3" fill="url(#extrude152)" opacity="0.175" /><ellipse cx="1536.0" cy="1615.4" rx="758.3" ry="626.5" fill="url(#extrude152)" opacity="0.160" /><ellipse cx="1536.0" cy="1631.2" rx="765.7" ry="631.7" fill="url(#extrude152)" opacity="0.145" /><ellipse cx="1536.0" cy="1647.1" rx="773.2" ry="636.9" fill="url(#extrude152)" opacity="0.130" /><ellipse cx="1536.0" cy="1663.0" rx="780.6" ry="642.1" fill="url(#extrude152)" opacity="0.115" /><ellipse cx="1536.0" cy="1678.8" rx="788.0" ry="647.4" fill="url(#extrude152)" opacity="0.100" /><ellipse cx="1536.0" cy="1694.7" rx="795.5" ry="652.6" fill="url(#extrude152)" opacity="0.085" /><ellipse cx="1536.0" cy="1710.6" rx="802.9" ry="657.8" fill="url(#extrude152)" opacity="0.070" /><ellipse cx="1536.0" cy="1726.5" rx="810.3" ry="663.0" fill="url(#extrude152)" opacity="0.055" /></g>
  <ellipse cx="1536.0" cy="1726.5" rx="773.2" ry="214.9" fill="#0B1D2D" opacity="0.24" />
  <ellipse cx="1536.0" cy="1536.0" rx="743.4" ry="651.3" fill="url(#orb152)" stroke="#FFFFFF" stroke-opacity="0.42" stroke-width="7" />
  <ellipse cx="1431.9" cy="1392.7" rx="505.5" ry="299.6" fill="#FFFFFF" opacity="0.25" />
  <path d="M 199.4 399.4 C 1013.8 -30.7, 2058.2 768.0, 2872.6 215.0 L 2872.6 983.0 C 2089.0 1228.8, 1013.8 307.2, 199.4 1167.4 Z" fill="url(#glass152)" />
  <rect x="270" y="270" width="2532" height="2532" rx="430" fill="none" stroke="#FFFFFF" stroke-opacity="0.30" stroke-width="5" />
  <rect x="288.4" y="288.4" width="2495.1" height="2495.1" rx="399" fill="none" stroke="#FFD84D" stroke-opacity="0.35" stroke-width="3" />
  <g filter="url(#soft152)"><rect x="1857" y="1651" width="60" height="2" fill="#FFFFFF" opacity="0.609" /><rect x="1886" y="1622" width="2" height="60" fill="#FFFFFF" opacity="0.609" /><rect x="2176" y="1807" width="68" height="2" fill="#FFFFFF" opacity="0.552" /><rect x="2209" y="1774" width="2" height="68" fill="#FFFFFF" opacity="0.552" /><rect x="2005" y="2030" width="68" height="2" fill="#FFFFFF" opacity="0.634" /><rect x="2038" y="1997" width="2" height="68" fill="#FFFFFF" opacity="0.634" /><rect x="665" y="467" width="46" height="2" fill="#FFFFFF" opacity="0.563" /><rect x="687" y="445" width="2" height="46" fill="#FFFFFF" opacity="0.563" /><rect x="1275" y="2688" width="42" height="2" fill="#FFFFFF" opacity="0.765" /><rect x="1295" y="2668" width="2" height="42" fill="#FFFFFF" opacity="0.765" /><rect x="1830" y="1977" width="58" height="2" fill="#FFFFFF" opacity="0.549" /><rect x="1858" y="1949" width="2" height="58" fill="#FFFFFF" opacity="0.549" /><rect x="1295" y="567" width="58" height="2" fill="#FFFFFF" opacity="0.521" /><rect x="1323" y="539" width="2" height="58" fill="#FFFFFF" opacity="0.521" /><rect x="769" y="1346" width="62" height="2" fill="#FFFFFF" opacity="0.810" /><rect x="799" y="1316" width="2" height="62" fill="#FFFFFF" opacity="0.810" /><rect x="677" y="915" width="52" height="2" fill="#FFFFFF" opacity="0.538" /><rect x="702" y="890" width="2" height="52" fill="#FFFFFF" opacity="0.538" /><rect x="309" y="431" width="58" height="2" fill="#FFFFFF" opacity="0.817" /><rect x="337" y="403" width="2" height="58" fill="#FFFFFF" opacity="0.817" /><rect x="1955" y="875" width="84" height="2" fill="#FFFFFF" opacity="0.480" /><rect x="1996" y="834" width="2" height="84" fill="#FFFFFF" opacity="0.480" /><rect x="2119" y="431" width="42" height="2" fill="#FFFFFF" opacity="0.304" /><rect x="2139" y="411" width="2" height="42" fill="#FFFFFF" opacity="0.304" /><rect x="685" y="2203" width="68" height="2" fill="#FFFFFF" opacity="0.821" /><rect x="718" y="2170" width="2" height="68" fill="#FFFFFF" opacity="0.821" /><rect x="2353" y="818" width="38" height="2" fill="#FFFFFF" opacity="0.377" /><rect x="2371" y="800" width="2" height="38" fill="#FFFFFF" opacity="0.377" /><rect x="1493" y="2735" width="80" height="2" fill="#FFFFFF" opacity="0.823" /><rect x="1532" y="2696" width="2" height="80" fill="#FFFFFF" opacity="0.823" /><rect x="1977" y="2227" width="30" height="2" fill="#FFFFFF" opacity="0.824" /><rect x="1991" y="2213" width="2" height="30" fill="#FFFFFF" opacity="0.824" /><rect x="1204" y="1858" width="66" height="2" fill="#FFFFFF" opacity="0.392" /><rect x="1236" y="1826" width="2" height="66" fill="#FFFFFF" opacity="0.392" /><rect x="1449" y="667" width="30" height="2" fill="#FFFFFF" opacity="0.750" /><rect x="1463" y="653" width="2" height="30" fill="#FFFFFF" opacity="0.750" /><rect x="1471" y="2369" width="54" height="2" fill="#FFFFFF" opacity="0.317" /><rect x="1497" y="2343" width="2" height="54" fill="#FFFFFF" opacity="0.317" /><rect x="2530" y="792" width="46" height="2" fill="#FFFFFF" opacity="0.344" /><rect x="2552" y="770" width="2" height="46" fill="#FFFFFF" opacity="0.344" /><rect x="947" y="1150" width="36" height="2" fill="#FFFFFF" opacity="0.351" /><rect x="964" y="1133" width="2" height="36" fill="#FFFFFF" opacity="0.351" /><rect x="2052" y="363" width="76" height="2" fill="#FFFFFF" opacity="0.493" /><rect x="2089" y="326" width="2" height="76" fill="#FFFFFF" opacity="0.493" /><rect x="2012" y="1413" width="36" height="2" fill="#FFFFFF" opacity="0.617" /><rect x="2029" y="1396" width="2" height="36" fill="#FFFFFF" opacity="0.617" /><rect x="362" y="1306" width="40" height="2" fill="#FFFFFF" opacity="0.764" /><rect x="381" y="1287" width="2" height="40" fill="#FFFFFF" opacity="0.764" /><rect x="1951" y="1176" width="74" height="2" fill="#FFFFFF" opacity="0.305" /><rect x="1987" y="1140" width="2" height="74" fill="#FFFFFF" opacity="0.305" /><rect x="1560" y="2047" width="66" height="2" fill="#FFFFFF" opacity="0.735" /><rect x="1592" y="2015" width="2" height="66" fill="#FFFFFF" opacity="0.735" /></g>
  <g opacity="0.52"><path d="M1023 1326 L1572 1070 L2121 1326 L2121 2043 L1023 2043 Z" fill="none" stroke="#0C2030" stroke-width="90" stroke-linejoin="round" /><line x1="1572" y1="1070" x2="1572" y2="2043" stroke="#0C2030" stroke-width="88" /></g>
  <g filter="url(#soft152)"><path d="M987 1280 L1536 1024 L2085 1280 L2085 1997 L987 1997 Z" fill="none" stroke="url(#symbol152)" stroke-width="90" stroke-linejoin="round" /><line x1="1536" y1="1024" x2="1536" y2="1997" stroke="url(#symbol152)" stroke-width="88" /></g>
  <rect x="138" y="138" width="2796" height="2796" rx="629" fill="#FFFFFF" filter="url(#grain152)" opacity="0.18" />
</svg>
