<svg xmlns="http://www.w3.org/2000/svg" width="3072" height="3072" viewBox="0 0 3072 3072">
  <title>QuartzOS App Icon 173 - neon_terminal_173</title>
  <defs><linearGradient id="bg172" x1="0%" y1="0%" x2="100%" y2="100%"><stop offset="0%" stop-color="#FF9F43" /><stop offset="26%" stop-color="#53E3A6" /><stop offset="56%" stop-color="#3B82FF" /><stop offset="78%" stop-color="#5AA47F" /><stop offset="100%" stop-color="#1A2B22" /></linearGradient><radialGradient id="sun172" cx="26%" cy="9%" r="88%"><stop offset="0%" stop-color="#FFFFFF" stop-opacity="0.62" /><stop offset="30%" stop-color="#8A5CFF" stop-opacity="0.35" /><stop offset="100%" stop-color="#8A5CFF" stop-opacity="0" /></radialGradient><linearGradient id="glass172" x1="0%" y1="0%" x2="0%" y2="100%"><stop offset="0%" stop-color="#FFFFFF" stop-opacity="0.70" /><stop offset="46%" stop-color="#FFFFFF" stop-opacity="0.26" /><stop offset="100%" stop-color="#FFFFFF" stop-opacity="0.00" /></linearGradient><linearGradient id="ribbon172" x1="0%" y1="0%" x2="100%" y2="0%"><stop offset="0%" stop-color="#FF9F43" stop-opacity="0.18" /><stop offset="34%" stop-color="#53E3A6" stop-opacity="0.72" /><stop offset="66%" stop-color="#3B82FF" stop-opacity="0.72" /><stop offset="100%" stop-color="#8A5CFF" stop-opacity="0.18" /></linearGradient><radialGradient id="orb172" cx="34%" cy="27%" r="74%"><stop offset="0%" stop-color="#FFFFFF" stop-opacity="0.84" /><stop offset="30%" stop-color="#FF9F43" stop-opacity="0.52" /><stop offset="68%" stop-color="#53E3A6" stop-opacity="0.42" /><stop offset="100%" stop-color="#3B82FF" stop-opacity="0.20" /></radialGradient><linearGradient id="extrude172" x1="0%" y1="0%" x2="0%" y2="100%"><stop offset="0%" stop-color="#15283C" stop-opacity="0.45" /><stop offset="100%" stop-color="#08131D" stop-opacity="0.06" /></linearGradient><linearGradient id="symbol172" x1="0%" y1="0%" x2="100%" y2="100%"><stop offset="0%" stop-color="#FFFFFF" /><stop offset="100%" stop-color="#8A5CFF" /></linearGradient><filter id="shadow172" x="-40%" y="-40%" width="180%" height="180%"><feDropShadow dx="0" dy="49" stdDeviation="86" flood-color="#06111A" flood-opacity="0.54" /></filter><filter id="soft172" x="-40%" y="-40%" width="180%" height="180%"><feDropShadow dx="0" dy="0" stdDeviation="14" flood-color="#FF9F43" flood-opacity="0.45" /></filter><filter id="grain172"><feTurbulence type="fractalNoise" baseFrequency="1.060" numOctaves="2" seed="172" /><feColorMatrix type="saturate" values="0" /><feComponentTransfer><feFuncA type="table" tableValues="0 0.09" /></feComponentTransfer></filter></defs>
  <rect x="138" y="138" width="2796" height="2796" rx="629" fill="url(#bg172)" filter="url(#shadow172)" />
  <rect x="138" y="138" width="2796" height="2796" rx="629" fill="url(#sun172)" />
  <g><circle cx="1085" cy="1586" r="93" fill="#FFFFFF" opacity="0.221" /><circle cx="434" cy="1381" r="75" fill="#FFFFFF" opacity="0.180" /><circle cx="2405" cy="1084" r="146" fill="#FFFFFF" opacity="0.147" /><circle cx="601" cy="2337" r="98" fill="#FFFFFF" opacity="0.219" /><circle cx="1716" cy="931" r="100" fill="#FFFFFF" opacity="0.199" /><circle cx="486" cy="309" r="143" fill="#FFFFFF" opacity="0.186" /><circle cx="1581" cy="717" r="142" fill="#FFFFFF" opacity="0.222" /><circle cx="905" cy="1606" r="97" fill="#FFFFFF" opacity="0.225" /><circle cx="491" cy="427" r="107" fill="#FFFFFF" opacity="0.233" /><circle cx="971" cy="2664" r="85" fill="#FFFFFF" opacity="0.105" /><circle cx="2607" cy="1063" r="131" fill="#FFFFFF" opacity="0.227" /><circle cx="2078" cy="2429" r="113" fill="#FFFFFF" opacity="0.138" /><circle cx="804" cy="1222" r="95" fill="#FFFFFF" opacity="0.123" /><circle cx="1523" cy="1101" r="103" fill="#FFFFFF" opacity="0.071" /><circle cx="715" cy="1611" r="59" fill="#FFFFFF" opacity="0.216" /><circle cx="1448" cy="2035" r="46" fill="#FFFFFF" opacity="0.108" /><circle cx="1728" cy="729" r="75" fill="#FFFFFF" opacity="0.165" /><circle cx="414" cy="2401" r="48" fill="#FFFFFF" opacity="0.102" /><circle cx="2647" cy="883" r="155" fill="#FFFFFF" opacity="0.093" /><circle cx="2640" cy="1371" r="129" fill="#FFFFFF" opacity="0.147" /><circle cx="1661" cy="567" r="96" fill="#FFFFFF" opacity="0.222" /><circle cx="531" cy="1864" r="41" fill="#FFFFFF" opacity="0.061" /><circle cx="2291" cy="1983" r="76" fill="#FFFFFF" opacity="0.115" /><circle cx="545" cy="1059" r="67" fill="#FFFFFF" opacity="0.096" /><circle cx="1979" cy="2517" r="130" fill="#FFFFFF" opacity="0.222" /><circle cx="1352" cy="828" r="113" fill="#FFFFFF" opacity="0.167" /><circle cx="666" cy="1362" r="142" fill="#FFFFFF" opacity="0.147" /><circle cx="1310" cy="2143" r="157" fill="#FFFFFF" opacity="0.137" /></g>
  <g><path d="M 329.0 606.7 L 2767.6 330.3 L 2767.6 780.1 L 329.0 1056.6 Z" fill="#FFFFFF" opacity="0.233" /><path d="M 256.8 918.7 L 2923.1 642.2 L 2923.1 1135.4 L 256.8 1411.9 Z" fill="#FFFFFF" opacity="0.163" /><path d="M 283.2 1153.0 L 2918.0 876.5 L 2918.0 1352.3 L 283.2 1628.8 Z" fill="#FFFFFF" opacity="0.116" /><path d="M 284.8 1429.5 L 2771.8 1153.1 L 2771.8 1650.4 L 284.8 1926.8 Z" fill="#FFFFFF" opacity="0.117" /><path d="M 255.3 1632.4 L 2795.5 1355.9 L 2795.5 1835.8 L 255.3 2112.2 Z" fill="#FFFFFF" opacity="0.161" /><path d="M 239.3 1951.0 L 2870.8 1674.5 L 2870.8 2151.8 L 239.3 2428.3 Z" fill="#FFFFFF" opacity="0.228" /><path d="M 303.2 2151.2 L 2901.9 1874.8 L 2901.9 2344.8 L 303.2 2621.2 Z" fill="#FFFFFF" opacity="0.232" /><path d="M 385.0 2400.2 L 2833.4 2123.7 L 2833.4 2552.5 L 385.0 2828.9 Z" fill="#FFFFFF" opacity="0.229" /></g>
  <g filter="url(#soft172)"><g transform="rotate(-8.01 1536.0 1536.0)"><path d="M-368.6 517.3 C -225.8 571.2, -25.8 494.7, 107.5 570.5 C 250.4 557.5, 450.4 500.9, 583.7 543.6 C 726.5 539.2, 926.5 491.3, 1059.8 500.7 C 1202.7 498.0, 1402.7 524.1, 1536.0 467.9 C 1678.8 482.8, 1878.8 567.0, 2012.2 465.1 C 2155.0 473.6, 2355.0 551.0, 2488.3 494.0 C 2631.2 490.9, 2831.2 526.5, 2964.5 537.0 C 3107.3 543.7, 3307.3 495.2, 3440.6 568.1" fill="none" stroke="url(#ribbon172)" stroke-width="58.4" stroke-linecap="round" stroke-opacity="0.120" /></g><g transform="rotate(-7.43 1536.0 1536.0)"><path d="M-368.6 742.8 C -241.7 682.6, -63.9 798.6, 54.6 737.6 C 181.6 738.0, 359.4 746.8, 477.9 783.8 C 604.8 777.4, 782.6 726.4, 901.1 805.0 C 1028.1 790.6, 1205.9 692.1, 1324.4 788.5 C 1451.3 781.1, 1629.1 698.7, 1747.6 744.3 C 1874.6 743.9, 2052.4 741.5, 2170.9 699.1 C 2297.9 696.9, 2475.6 764.3, 2594.1 680.4 C 2721.1 687.2, 2898.9 813.2, 3017.4 699.6 C 3144.4 689.8, 3322.1 769.4, 3440.6 744.9" fill="none" stroke="url(#ribbon172)" stroke-width="54.4" stroke-linecap="round" stroke-opacity="0.146" /></g><g transform="rotate(-6.85 1536.0 1536.0)"><path d="M-368.6 918.3 C -254.4 967.8, -94.4 881.9, 12.3 956.4 C 126.6 950.5, 286.6 901.3, 393.2 903.3 C 507.5 898.8, 667.5 927.8, 774.1 859.2 C 888.4 854.7, 1048.4 978.1, 1155.1 851.0 C 1269.4 835.4, 1429.3 964.4, 1536.0 883.7 C 1650.3 879.4, 1810.3 952.2, 1916.9 937.3 C 2031.2 932.2, 2191.2 900.5, 2297.9 979.5 C 2412.1 957.3, 2572.1 886.9, 2678.8 984.5 C 2793.1 970.1, 2953.1 855.1, 3059.7 949.4 C 3174.0 949.1, 3334.0 884.8, 3440.6 895.5" fill="none" stroke="url(#ribbon172)" stroke-width="50.4" stroke-linecap="round" stroke-opacity="0.172" /></g><g transform="rotate(-6.27 1536.0 1536.0)"><path d="M-368.6 1160.7 C -264.8 1224.4, -119.3 1125.2, -22.3 1236.7 C 81.5 1233.2, 227.0 1085.6, 324.0 1207.2 C 427.8 1193.5, 573.3 1126.7, 670.3 1149.6 C 774.1 1150.7, 919.6 1171.9, 1016.6 1098.7 C 1120.4 1089.1, 1265.9 1204.7, 1362.9 1085.4 C 1466.7 1112.5, 1612.2 1220.4, 1709.1 1117.9 C 1813.0 1110.2, 1958.5 1174.5, 2055.4 1176.3 C 2159.3 1177.2, 2304.8 1146.3, 2401.7 1225.3 C 2505.6 1218.5, 2651.1 1122.0, 2748.0 1235.1 C 2851.9 1210.0, 2997.4 1114.8, 3094.3 1199.8 C 3198.2 1204.1, 3343.7 1129.2, 3440.6 1140.8" fill="none" stroke="url(#ribbon172)" stroke-width="46.4" stroke-linecap="round" stroke-opacity="0.198" /></g><g transform="rotate(-5.69 1536.0 1536.0)"><path d="M-368.6 1299.7 C -273.4 1241.3, -140.1 1327.4, -51.2 1217.0 C 44.0 1247.8, 177.4 1375.8, 266.2 1233.5 C 361.5 1224.3, 494.8 1354.6, 583.7 1290.2 C 678.9 1286.6, 812.2 1306.9, 901.1 1352.7 C 996.4 1348.2, 1129.7 1281.8, 1218.6 1383.0 C 1313.8 1369.1, 1447.1 1253.9, 1536.0 1362.8 C 1631.2 1343.2, 1764.6 1261.8, 1853.4 1304.3 C 1948.7 1305.1, 2082.0 1295.9, 2170.9 1243.1 C 2266.1 1238.9, 2399.4 1318.4, 2488.3 1216.2 C 2583.6 1197.0, 2716.9 1334.5, 2805.8 1239.9 C 2901.0 1239.0, 3034.3 1354.0, 3123.2 1300.0 C 3218.4 1299.9, 3351.8 1299.4, 3440.6 1359.8" fill="none" stroke="url(#ribbon172)" stroke-width="42.4" stroke-linecap="round" stroke-opacity="0.224" /></g><g transform="rotate(-5.11 1536.0 1536.0)"><path d="M-368.6 1456.7 C -225.8 1492.2, -25.8 1405.4, 107.5 1446.0 C 250.4 1446.7, 450.4 1465.4, 583.7 1384.7 C 726.5 1396.7, 926.5 1513.5, 1059.8 1367.0 C 1202.7 1355.2, 1402.7 1516.0, 1536.0 1403.7 C 1678.8 1407.3, 1878.8 1515.7, 2012.2 1472.5 C 2155.0 1475.9, 2355.0 1450.1, 2488.3 1531.7 C 2631.2 1559.7, 2831.2 1416.1, 2964.5 1545.4 C 3107.3 1533.5, 3307.3 1385.8, 3440.6 1505.2" fill="none" stroke="url(#ribbon172)" stroke-width="38.4" stroke-linecap="round" stroke-opacity="0.250" /></g><g transform="rotate(-4.53 1536.0 1536.0)"><path d="M-368.6 1730.8 C -241.7 1660.0, -63.9 1767.4, 54.6 1653.4 C 181.6 1665.6, 359.4 1810.2, 477.9 1719.7 C 604.8 1722.6, 782.6 1735.6, 901.1 1792.7 C 1028.1 1809.9, 1205.9 1702.3, 1324.4 1828.1 C 1451.3 1792.4, 1629.1 1695.2, 1747.6 1804.4 C 1874.6 1812.6, 2052.4 1651.8, 2170.9 1736.1 C 2297.9 1737.7, 2475.6 1726.7, 2594.1 1664.5 C 2721.1 1667.4, 2898.9 1800.9, 3017.4 1633.1 C 3144.4 1634.9, 3322.1 1779.8, 3440.6 1660.9" fill="none" stroke="url(#ribbon172)" stroke-width="34.4" stroke-linecap="round" stroke-opacity="0.276" /></g><g transform="rotate(-3.95 1536.0 1536.0)"><path d="M-368.6 1897.5 C -254.4 2039.6, -94.4 1805.8, 12.3 1978.4 C 126.6 1954.9, 286.6 1851.6, 393.2 1906.1 C 507.5 1909.2, 667.5 1891.1, 774.1 1828.6 C 888.4 1805.5, 1048.4 1924.8, 1155.1 1792.9 C 1269.4 1786.3, 1429.3 1986.6, 1536.0 1820.7 C 1650.3 1816.3, 1810.3 1962.3, 1916.9 1895.1 C 2031.2 1894.4, 2191.2 1899.3, 2297.9 1970.9 C 2412.1 1974.2, 2572.1 1856.5, 2678.8 2002.3 C 2793.1 1984.5, 2953.1 1832.4, 3059.7 1970.1 C 3174.0 1986.7, 3334.0 1819.0, 3440.6 1893.9" fill="none" stroke="url(#ribbon172)" stroke-width="30.4" stroke-linecap="round" stroke-opacity="0.302" /></g><g transform="rotate(-3.37 1536.0 1536.0)"><path d="M-368.6 2112.2 C -264.8 2010.1, -119.3 2196.9, -22.3 2067.0 C 81.5 2067.9, 227.0 2131.3, 324.0 2154.1 C 427.8 2161.6, 573.3 2066.3, 670.3 2215.8 C 774.1 2253.9, 919.6 2075.0, 1016.6 2214.6 C 1120.4 2230.4, 1265.9 2070.8, 1362.9 2151.4 C 1466.7 2157.3, 1612.2 2082.9, 1709.1 2064.4 C 1813.0 2081.7, 1958.5 2161.4, 2055.4 2006.4 C 2159.3 1994.5, 2304.8 2179.4, 2401.7 2012.6 C 2505.6 2040.7, 2651.1 2230.3, 2748.0 2079.3 C 2851.9 2072.2, 2997.4 2147.4, 3094.3 2165.9 C 3198.2 2156.4, 3343.7 2052.1, 3440.6 2220.0" fill="none" stroke="url(#ribbon172)" stroke-width="26.4" stroke-linecap="round" stroke-opacity="0.328" /></g><g transform="rotate(-2.79 1536.0 1536.0)"><path d="M-368.6 2257.1 C -273.4 2325.6, -140.1 2206.2, -51.2 2225.9 C 44.0 2219.8, 177.4 2281.9, 266.2 2153.1 C 361.5 2174.6, 494.8 2326.2, 583.7 2143.3 C 678.9 2128.1, 812.2 2302.6, 901.1 2202.6 C 996.4 2209.2, 1129.7 2292.4, 1218.6 2294.9 C 1313.8 2298.5, 1447.1 2225.7, 1536.0 2364.3 C 1631.2 2392.5, 1764.6 2195.2, 1853.4 2368.6 C 1948.7 2390.2, 2082.0 2142.5, 2170.9 2305.3 C 2266.1 2295.2, 2399.4 2224.6, 2488.3 2212.7 C 2583.6 2198.5, 2716.9 2303.4, 2805.8 2147.1 C 2901.0 2184.9, 3034.3 2328.8, 3123.2 2148.1 C 3218.4 2153.5, 3351.8 2294.3, 3440.6 2215.3" fill="none" stroke="url(#ribbon172)" stroke-width="22.4" stroke-linecap="round" stroke-opacity="0.354" /></g><g transform="rotate(-2.21 1536.0 1536.0)"><path d="M-368.6 2431.4 C -225.8 2553.0, -25.8 2342.3, 107.5 2557.4 C 250.4 2558.6, 450.4 2373.9, 583.7 2519.0 C 726.5 2547.1, 926.5 2334.2, 1059.8 2427.5 C 1202.7 2427.0, 1402.7 2433.0, 1536.0 2338.4 C 1678.8 2353.3, 1878.8 2463.1, 2012.2 2305.7 C 2155.0 2262.9, 2355.0 2581.9, 2488.3 2349.3 C 2631.2 2350.5, 2831.2 2519.8, 2964.5 2442.7 C 3107.3 2441.2, 3307.3 2418.6, 3440.6 2529.3" fill="none" stroke="url(#ribbon172)" stroke-width="18.4" stroke-linecap="round" stroke-opacity="0.380" /></g><g transform="rotate(-1.63 1536.0 1536.0)"><path d="M-368.6 2635.8 C -241.7 2697.6, -63.9 2604.7, 54.6 2766.4 C 181.6 2754.8, 359.4 2561.6, 477.9 2744.8 C 604.8 2787.9, 782.6 2591.9, 901.1 2657.0 C 1028.1 2658.3, 1205.9 2612.5, 1324.4 2556.4 C 1451.3 2574.9, 1629.1 2660.8, 1747.6 2503.9 C 1874.6 2540.5, 2052.4 2731.0, 2170.9 2531.4 C 2297.9 2547.8, 2475.6 2668.2, 2594.1 2622.2 C 2721.1 2619.5, 2898.9 2650.3, 3017.4 2721.3 C 3144.4 2711.7, 3322.1 2577.1, 3440.6 2768.4" fill="none" stroke="url(#ribbon172)" stroke-width="14.4" stroke-linecap="round" stroke-opacity="0.406" /></g></g>
  <g><ellipse cx="1536.0" cy="1551.9" rx="728.6" ry="605.7" fill="url(#extrude172)" opacity="0.220" /><ellipse cx="1536.0" cy="1567.7" rx="736.0" ry="610.9" fill="url(#extrude172)" opacity="0.205" /><ellipse cx="1536.0" cy="1583.6" rx="743.4" ry="616.1" fill="url(#extrude172)" opacity="0.190" /><ellipse cx="1536.0" cy="1599.5" rx="750.9" ry="621.3" fill="url(#extrude172)" opacity="0.175" /><ellipse cx="1536.0" cy="1615.4" rx="758.3" ry="626.5" fill="url(#extrude172)" opacity="0.160" /><ellipse cx="1536.0" cy="1631.2" rx="765.7" ry="631.7" fill="url(#extrude172)" opacity="0.145" /><ellipse cx="1536.0" cy="1647.1" rx="773.2" ry="636.9" fill="url(#extrude172)" opacity="0.130" /><ellipse cx="1536.0" cy="1663.0" rx="780.6" ry="642.1" fill="url(#extrude172)" opacity="0.115" /><ellipse cx="1536.0" cy="1678.8" rx="788.0" ry="647.4" fill="url(#extrude172)" opacity="0.100" /><ellipse cx="1536.0" cy="1694.7" rx="795.5" ry="652.6" fill="url(#extrude172)" opacity="0.085" /><ellipse cx="1536.0" cy="1710.6" rx="802.9" ry="657.8" fill="url(#extrude172)" opacity="0.070" /><ellipse cx="1536.0" cy="1726.5" rx="810.3" ry="663.0" fill="url(#extrude172)" opacity="0.055" /></g>
  <ellipse cx="1536.0" cy="1726.5" rx="773.2" ry="214.9" fill="#0B1D2D" opacity="0.24" />
  <ellipse cx="1536.0" cy="1536.0" rx="743.4" ry="651.3" fill="url(#orb172)" stroke="#FFFFFF" stroke-opacity="0.42" stroke-width="7" />
  <ellipse cx="1431.9" cy="1392.7" rx="505.5" ry="299.6" fill="#FFFFFF" opacity="0.25" />
  <path d="M 199.4 399.4 C 1013.8 -30.7, 2058.2 768.0, 2872.6 215.0 L 2872.6 983.0 C 2089.0 1228.8, 1013.8 307.2, 199.4 1167.4 Z" fill="url(#glass172)" />
  <rect x="270" y="270" width="2532" height="2532" rx="430" fill="none" stroke="#FFFFFF" stroke-opacity="0.30" stroke-width="5" />
  <rect x="288.4" y="288.4" width="2495.1" height="2495.1" rx="399" fill="none" stroke="#FF9F43" stroke-opacity="0.35" stroke-width="3" />
  <g filter="url(#soft172)"><rect x="2550" y="523" width="48" height="2" fill="#FFFFFF" opacity="0.797" /><rect x="2573" y="500" width="2" height="48" fill="#FFFFFF" opacity="0.797" /><rect x="1958" y="1614" width="62" height="2" fill="#FFFFFF" opacity="0.780" /><rect x="1988" y="1584" width="2" height="62" fill="#FFFFFF" opacity="0.780" /><rect x="1386" y="1684" width="72" height="2" fill="#FFFFFF" opacity="0.340" /><rect x="1421" y="1649" width="2" height="72" fill="#FFFFFF" opacity="0.340" /><rect x="927" y="2152" width="40" height="2" fill="#FFFFFF" opacity="0.808" /><rect x="946" y="2133" width="2" height="40" fill="#FFFFFF" opacity="0.808" /><rect x="724" y="1562" width="54" height="2" fill="#FFFFFF" opacity="0.829" /><rect x="750" y="1536" width="2" height="54" fill="#FFFFFF" opacity="0.829" /><rect x="1911" y="1037" width="56" height="2" fill="#FFFFFF" opacity="0.670" /><rect x="1938" y="1010" width="2" height="56" fill="#FFFFFF" opacity="0.670" /><rect x="2281" y="809" width="54" height="2" fill="#FFFFFF" opacity="0.522" /><rect x="2307" y="783" width="2" height="54" fill="#FFFFFF" opacity="0.522" /><rect x="460" y="1106" width="54" height="2" fill="#FFFFFF" opacity="0.425" /><rect x="486" y="1080" width="2" height="54" fill="#FFFFFF" opacity="0.425" /><rect x="2327" y="1132" width="60" height="2" fill="#FFFFFF" opacity="0.792" /><rect x="2356" y="1103" width="2" height="60" fill="#FFFFFF" opacity="0.792" /><rect x="1583" y="586" width="38" height="2" fill="#FFFFFF" opacity="0.453" /><rect x="1601" y="568" width="2" height="38" fill="#FFFFFF" opacity="0.453" /><rect x="2580" y="1244" width="52" height="2" fill="#FFFFFF" opacity="0.818" /><rect x="2605" y="1219" width="2" height="52" fill="#FFFFFF" opacity="0.818" /><rect x="845" y="1716" width="52" height="2" fill="#FFFFFF" opacity="0.698" /><rect x="870" y="1691" width="2" height="52" fill="#FFFFFF" opacity="0.698" /><rect x="493" y="1786" width="28" height="2" fill="#FFFFFF" opacity="0.562" /><rect x="506" y="1773" width="2" height="28" fill="#FFFFFF" opacity="0.562" /><rect x="326" y="639" width="38" height="2" fill="#FFFFFF" opacity="0.498" /><rect x="344" y="621" width="2" height="38" fill="#FFFFFF" opacity="0.498" /><rect x="1737" y="1598" width="52" height="2" fill="#FFFFFF" opacity="0.476" /><rect x="1762" y="1573" width="2" height="52" fill="#FFFFFF" opacity="0.476" /><rect x="1267" y="1380" width="30" height="2" fill="#FFFFFF" opacity="0.652" /><rect x="1281" y="1366" width="2" height="30" fill="#FFFFFF" opacity="0.652" /><rect x="2088" y="432" width="68" height="2" fill="#FFFFFF" opacity="0.696" /><rect x="2121" y="399" width="2" height="68" fill="#FFFFFF" opacity="0.696" /><rect x="1427" y="1008" width="64" height="2" fill="#FFFFFF" opacity="0.559" /><rect x="1458" y="977" width="2" height="64" fill="#FFFFFF" opacity="0.559" /><rect x="1438" y="580" width="44" height="2" fill="#FFFFFF" opacity="0.819" /><rect x="1459" y="559" width="2" height="44" fill="#FFFFFF" opacity="0.819" /><rect x="2064" y="1415" width="30" height="2" fill="#FFFFFF" opacity="0.362" /><rect x="2078" y="1401" width="2" height="30" fill="#FFFFFF" opacity="0.362" /><rect x="2227" y="2344" width="80" height="2" fill="#FFFFFF" opacity="0.815" /><rect x="2266" y="2305" width="2" height="80" fill="#FFFFFF" opacity="0.815" /><rect x="1592" y="2352" width="54" height="2" fill="#FFFFFF" opacity="0.354" /><rect x="1618" y="2326" width="2" height="54" fill="#FFFFFF" opacity="0.354" /><rect x="2609" y="936" width="36" height="2" fill="#FFFFFF" opacity="0.325" /><rect x="2626" y="919" width="2" height="36" fill="#FFFFFF" opacity="0.325" /><rect x="1784" y="919" width="30" height="2" fill="#FFFFFF" opacity="0.436" /><rect x="1798" y="905" width="2" height="30" fill="#FFFFFF" opacity="0.436" /><rect x="1301" y="2426" width="32" height="2" fill="#FFFFFF" opacity="0.738" /><rect x="1316" y="2411" width="2" height="32" fill="#FFFFFF" opacity="0.738" /><rect x="441" y="2558" width="82" height="2" fill="#FFFFFF" opacity="0.701" /><rect x="481" y="2518" width="2" height="82" fill="#FFFFFF" opacity="0.701" /></g>
  <g opacity="0.52"><path d="M1572 1006 L2148 1582 L1572 2158 L996 1582 Z" fill="none" stroke="#0C2030" stroke-width="90" stroke-linejoin="round" /><circle cx="1572" cy="1582" r="153" fill="#0C2030" /></g>
  <g filter="url(#soft172)"><path d="M1536 960 L2112 1536 L1536 2112 L960 1536 Z" fill="none" stroke="url(#symbol172)" stroke-width="90" stroke-linejoin="round" /><circle cx="1536" cy="1536" r="153" fill="url(#symbol172)" /></g>
  <rect x="138" y="138" width="2796" height="2796" rx="629" fill="#FFFFFF" filter="url(#grain172)" opacity="0.18" />
</svg>
