<svg xmlns="http://www.w3.org/2000/svg" width="3072" height="3072" viewBox="0 0 3072 3072">
  <title>QuartzOS App Icon 053 - neon_board_053</title>
  <defs><linearGradient id="bg52" x1="0%" y1="0%" x2="100%" y2="100%"><stop offset="0%" stop-color="#FF6AB3" /><stop offset="26%" stop-color="#FFD84D" /><stop offset="56%" stop-color="#36D1FF" /><stop offset="78%" stop-color="#5AA47F" /><stop offset="100%" stop-color="#1A2B22" /></linearGradient><radialGradient id="sun52" cx="28%" cy="39%" r="88%"><stop offset="0%" stop-color="#FFFFFF" stop-opacity="0.62" /><stop offset="30%" stop-color="#3B82FF" stop-opacity="0.35" /><stop offset="100%" stop-color="#3B82FF" stop-opacity="0" /></radialGradient><linearGradient id="glass52" x1="0%" y1="0%" x2="0%" y2="100%"><stop offset="0%" stop-color="#FFFFFF" stop-opacity="0.70" /><stop offset="46%" stop-color="#FFFFFF" stop-opacity="0.26" /><stop offset="100%" stop-color="#FFFFFF" stop-opacity="0.00" /></linearGradient><linearGradient id="ribbon52" x1="0%" y1="0%" x2="100%" y2="0%"><stop offset="0%" stop-color="#FF6AB3" stop-opacity="0.18" /><stop offset="34%" stop-color="#FFD84D" stop-opacity="0.72" /><stop offset="66%" stop-color="#36D1FF" stop-opacity="0.72" /><stop offset="100%" stop-color="#3B82FF" stop-opacity="0.18" /></linearGradient><radialGradient id="orb52" cx="34%" cy="27%" r="74%"><stop offset="0%" stop-color="#FFFFFF" stop-opacity="0.84" /><stop offset="30%" stop-color="#FF6AB3" stop-opacity="0.52" /><stop offset="68%" stop-color="#FFD84D" stop-opacity="0.42" /><stop offset="100%" stop-color="#36D1FF" stop-opacity="0.20" /></radialGradient><linearGradient id="extrude52" x1="0%" y1="0%" x2="0%" y2="100%"><stop offset="0%" stop-color="#15283C" stop-opacity="0.45" /><stop offset="100%" stop-color="#08131D" stop-opacity="0.06" /></linearGradient><linearGradient id="symbol52" x1="0%" y1="0%" x2="100%" y2="100%"><stop offset="0%" stop-color="#FFFFFF" /><stop offset="100%" stop-color="#3B82FF" /></linearGradient><filter id="shadow52" x="-40%" y="-40%" width="180%" height="180%"><feDropShadow dx="0" dy="49" stdDeviation="86" flood-color="#06111A" flood-opacity="0.54" /></filter><filter id="soft52" x="-40%" y="-40%" width="180%" height="180%"><feDropShadow dx="0" dy="0" stdDeviation="14" flood-color="#FF6AB3" flood-opacity="0.45" /></filter><filter id="grain52"><feTurbulence type="fractalNoise" baseFrequency="0.676" numOctaves="2" seed="52" /><feColorMatrix type="saturate" values="0" /><feComponentTransfer><feFuncA type="table" tableValues="0 0.09" /></feComponentTransfer></filter></defs>
  <rect x="138" y="138" width="2796" height="2796" rx="629" fill="url(#bg52)" filter="url(#shadow52)" />
  <rect x="138" y="138" width="2796" height="2796" rx="629" fill="url(#sun52)" />
  <g><circle cx="2117" cy="1528" r="59" fill="#FFFFFF" opacity="0.172" /><circle cx="2625" cy="1491" r="62" fill="#FFFFFF" opacity="0.080" /><circle cx="484" cy="1619" r="50" fill="#FFFFFF" opacity="0.219" /><circle cx="440" cy="848" r="76" fill="#FFFFFF" opacity="0.188" /><circle cx="2681" cy="764" r="43" fill="#FFFFFF" opacity="0.096" /><circle cx="1899" cy="519" r="145" fill="#FFFFFF" opacity="0.172" /><circle cx="1696" cy="1154" r="152" fill="#FFFFFF" opacity="0.134" /><circle cx="2340" cy="641" r="69" fill="#FFFFFF" opacity="0.168" /><circle cx="2195" cy="2317" r="63" fill="#FFFFFF" opacity="0.199" /><circle cx="2330" cy="2425" r="55" fill="#FFFFFF" opacity="0.132" /><circle cx="2113" cy="2194" r="118" fill="#FFFFFF" opacity="0.162" /><circle cx="2156" cy="1815" r="50" fill="#FFFFFF" opacity="0.152" /><circle cx="1223" cy="1348" r="70" fill="#FFFFFF" opacity="0.146" /><circle cx="2311" cy="671" r="71" fill="#FFFFFF" opacity="0.190" /><circle cx="1691" cy="748" r="64" fill="#FFFFFF" opacity="0.207" /><circle cx="610" cy="1921" r="45" fill="#FFFFFF" opacity="0.145" /><circle cx="604" cy="2687" r="136" fill="#FFFFFF" opacity="0.159" /><circle cx="2301" cy="676" r="151" fill="#FFFFFF" opacity="0.069" /><circle cx="2484" cy="474" r="109" fill="#FFFFFF" opacity="0.084" /><circle cx="1141" cy="2451" r="65" fill="#FFFFFF" opacity="0.164" /><circle cx="435" cy="2416" r="89" fill="#FFFFFF" opacity="0.088" /><circle cx="1465" cy="1393" r="55" fill="#FFFFFF" opacity="0.209" /><circle cx="622" cy="1444" r="132" fill="#FFFFFF" opacity="0.207" /><circle cx="1888" cy="2401" r="115" fill="#FFFFFF" opacity="0.211" /><circle cx="1377" cy="595" r="139" fill="#FFFFFF" opacity="0.093" /><circle cx="1324" cy="851" r="96" fill="#FFFFFF" opacity="0.120" /><circle cx="1628" cy="901" r="151" fill="#FFFFFF" opacity="0.114" /><circle cx="1661" cy="1417" r="81" fill="#FFFFFF" opacity="0.237" /></g>
  <g><path d="M 322.4 605.3 L 2894.1 328.8 L 2894.1 752.4 L 322.4 1028.9 Z" fill="#FFFFFF" opacity="0.219" /><path d="M 155.6 882.8 L 2788.5 606.3 L 2788.5 1036.3 L 155.6 1312.8 Z" fill="#FFFFFF" opacity="0.139" /><path d="M 388.1 1126.7 L 2773.7 850.3 L 2773.7 1275.8 L 388.1 1552.3 Z" fill="#FFFFFF" opacity="0.167" /><path d="M 243.9 1375.1 L 2911.2 1098.6 L 2911.2 1567.3 L 243.9 1843.7 Z" fill="#FFFFFF" opacity="0.178" /><path d="M 356.8 1631.7 L 2803.1 1355.2 L 2803.1 1811.7 L 356.8 2088.2 Z" fill="#FFFFFF" opacity="0.088" /><path d="M 330.6 1897.4 L 2679.3 1620.9 L 2679.3 2110.8 L 330.6 2387.2 Z" fill="#FFFFFF" opacity="0.097" /><path d="M 209.2 2177.4 L 2875.2 1900.9 L 2875.2 2374.5 L 209.2 2650.9 Z" fill="#FFFFFF" opacity="0.157" /><path d="M 262.7 2466.8 L 2911.2 2190.3 L 2911.2 2629.9 L 262.7 2906.4 Z" fill="#FFFFFF" opacity="0.083" /></g>
  <g filter="url(#soft52)"><g transform="rotate(-23.05 1536.0 1536.0)"><path d="M-368.6 471.2 C -225.8 448.0, -25.8 507.7, 107.5 478.1 C 250.4 475.5, 450.4 465.3, 583.7 515.4 C 726.5 523.2, 926.5 438.2, 1059.8 525.8 C 1202.7 537.6, 1402.7 449.6, 1536.0 503.1 C 1678.8 502.5, 1878.8 433.6, 2012.2 461.0 C 2155.0 460.1, 2355.0 478.3, 2488.3 425.1 C 2631.2 418.4, 2831.2 494.6, 2964.5 417.1 C 3107.3 434.4, 3307.3 492.6, 3440.6 441.9" fill="none" stroke="url(#ribbon52)" stroke-width="58.4" stroke-linecap="round" stroke-opacity="0.120" /></g><g transform="rotate(-22.47 1536.0 1536.0)"><path d="M-368.6 698.2 C -241.7 706.4, -63.9 692.3, 54.6 657.9 C 181.6 662.0, 359.4 725.6, 477.9 636.0 C 604.8 652.1, 782.6 752.3, 901.1 651.8 C 1028.1 652.6, 1205.9 747.8, 1324.4 695.7 C 1451.3 695.1, 1629.1 701.1, 1747.6 741.2 C 1874.6 757.2, 2052.4 664.7, 2170.9 760.6 C 2297.9 781.7, 2475.6 673.6, 2594.1 742.1 C 2721.1 728.8, 2898.9 676.9, 3017.4 697.1 C 3144.4 696.9, 3322.1 699.5, 3440.6 652.7" fill="none" stroke="url(#ribbon52)" stroke-width="54.4" stroke-linecap="round" stroke-opacity="0.146" /></g><g transform="rotate(-21.89 1536.0 1536.0)"><path d="M-368.6 933.9 C -254.4 985.2, -94.4 888.2, 12.3 1003.1 C 126.6 981.9, 286.6 874.4, 393.2 978.0 C 507.5 992.5, 667.5 898.6, 774.1 926.2 C 888.4 928.9, 1048.4 938.1, 1155.1 879.0 C 1269.4 862.7, 1429.3 955.4, 1536.0 865.2 C 1650.3 854.0, 1810.3 957.6, 1916.9 893.0 C 2031.2 898.5, 2191.2 970.8, 2297.9 945.6 C 2412.1 948.3, 2572.1 926.5, 2678.8 991.2 C 2793.1 971.5, 2953.1 904.3, 3059.7 1002.0 C 3174.0 983.1, 3334.0 868.0, 3440.6 971.5" fill="none" stroke="url(#ribbon52)" stroke-width="50.4" stroke-linecap="round" stroke-opacity="0.172" /></g><g transform="rotate(-21.31 1536.0 1536.0)"><path d="M-368.6 1064.9 C -264.8 1035.7, -119.3 1090.2, -22.3 1098.2 C 81.5 1092.0, 227.0 1028.7, 324.0 1137.5 C 427.8 1123.4, 573.3 1024.2, 670.3 1132.8 C 774.1 1126.4, 919.6 991.0, 1016.6 1086.9 C 1120.4 1079.9, 1265.9 1046.4, 1362.9 1027.7 C 1466.7 1026.9, 1612.2 1081.0, 1709.1 991.1 C 1813.0 986.2, 1958.5 1099.6, 2055.4 999.2 C 2159.3 974.0, 2304.8 1132.2, 2401.7 1047.3 C 2505.6 1044.3, 2651.1 1082.0, 2748.0 1106.0 C 2851.9 1113.9, 2997.4 1021.9, 3094.3 1139.9 C 3198.2 1144.2, 3343.7 975.9, 3440.6 1128.2" fill="none" stroke="url(#ribbon52)" stroke-width="46.4" stroke-linecap="round" stroke-opacity="0.198" /></g><g transform="rotate(-20.73 1536.0 1536.0)"><path d="M-368.6 1246.7 C -273.4 1249.3, -140.1 1244.2, -51.2 1308.7 C 44.0 1327.4, 177.4 1187.8, 266.2 1330.1 C 361.5 1326.2, 494.8 1146.7, 583.7 1300.9 C 678.9 1281.1, 812.2 1188.3, 901.1 1238.9 C 996.4 1239.7, 1129.7 1250.4, 1218.6 1181.6 C 1313.8 1178.3, 1447.1 1270.1, 1536.0 1163.8 C 1631.2 1138.1, 1764.6 1313.2, 1853.4 1196.3 C 1948.7 1183.4, 2082.0 1265.4, 2170.9 1259.4 C 2266.1 1257.3, 2399.4 1241.9, 2488.3 1314.8 C 2583.6 1339.5, 2716.9 1222.8, 2805.8 1328.9 C 2901.0 1337.0, 3034.3 1158.9, 3123.2 1293.2 C 3218.4 1307.6, 3351.8 1192.7, 3440.6 1229.2" fill="none" stroke="url(#ribbon52)" stroke-width="42.4" stroke-linecap="round" stroke-opacity="0.224" /></g><g transform="rotate(-20.15 1536.0 1536.0)"><path d="M-368.6 1510.1 C -225.8 1431.4, -25.8 1549.3, 107.5 1419.7 C 250.4 1404.9, 450.4 1564.0, 583.7 1442.2 C 726.5 1453.3, 926.5 1576.9, 1059.8 1505.8 C 1202.7 1506.0, 1402.7 1511.6, 1536.0 1572.1 C 1678.8 1580.8, 1878.8 1490.6, 2012.2 1600.7 C 2155.0 1614.5, 2355.0 1431.9, 2488.3 1574.3 C 2631.2 1552.5, 2831.2 1484.9, 2964.5 1509.0 C 3107.3 1509.1, 3307.3 1511.1, 3440.6 1444.3" fill="none" stroke="url(#ribbon52)" stroke-width="38.4" stroke-linecap="round" stroke-opacity="0.250" /></g><g transform="rotate(-19.57 1536.0 1536.0)"><path d="M-368.6 1665.2 C -241.7 1632.0, -63.9 1677.4, 54.6 1577.2 C 181.6 1543.5, 359.4 1725.2, 477.9 1573.4 C 604.8 1603.8, 782.6 1746.2, 901.1 1625.2 C 1028.1 1629.1, 1205.9 1688.4, 1324.4 1701.3 C 1451.3 1706.7, 1629.1 1623.6, 1747.6 1755.4 C 1874.6 1757.3, 2052.4 1594.2, 2170.9 1754.9 C 2297.9 1785.2, 2475.6 1619.5, 2594.1 1699.9 C 2721.1 1708.5, 2898.9 1623.7, 3017.4 1623.8 C 3144.4 1639.1, 3322.1 1705.3, 3440.6 1572.9" fill="none" stroke="url(#ribbon52)" stroke-width="34.4" stroke-linecap="round" stroke-opacity="0.276" /></g><g transform="rotate(-18.99 1536.0 1536.0)"><path d="M-368.6 1857.6 C -254.4 1988.6, -94.4 1785.2, 12.3 1946.8 C 126.6 1919.6, 286.6 1785.0, 393.2 1880.4 C 507.5 1888.7, 667.5 1835.0, 774.1 1800.1 C 888.4 1784.5, 1048.4 1917.1, 1155.1 1754.7 C 1269.4 1716.5, 1429.3 1965.7, 1536.0 1771.7 C 1650.3 1789.5, 1810.3 1900.8, 1916.9 1840.8 C 2031.2 1845.0, 2191.2 1873.0, 2297.9 1920.1 C 2412.1 1904.6, 2572.1 1834.3, 2678.8 1961.4 C 2793.1 1982.8, 2953.1 1802.8, 3059.7 1939.8 C 3174.0 1972.1, 3334.0 1805.1, 3440.6 1868.3" fill="none" stroke="url(#ribbon52)" stroke-width="30.4" stroke-linecap="round" stroke-opacity="0.302" /></g><g transform="rotate(-18.41 1536.0 1536.0)"><path d="M-368.6 2124.5 C -264.8 2069.5, -119.3 2177.9, -22.3 2160.8 C 81.5 2158.8, 227.0 2102.0, 324.0 2225.7 C 427.8 2245.3, 573.3 2029.1, 670.3 2229.2 C 774.1 2247.8, 919.6 2041.6, 1016.6 2169.2 C 1120.4 2186.1, 1265.9 2075.0, 1362.9 2082.1 C 1466.7 2071.0, 1612.2 2154.8, 1709.1 2020.7 C 1813.0 2025.8, 1958.5 2188.6, 2055.4 2022.3 C 2159.3 1981.6, 2304.8 2220.0, 2401.7 2085.9 C 2505.6 2079.0, 2651.1 2168.5, 2748.0 2172.9 C 2851.9 2162.6, 2997.4 2108.6, 3094.3 2230.5 C 3198.2 2266.5, 3343.7 1997.4, 3440.6 2223.9" fill="none" stroke="url(#ribbon52)" stroke-width="26.4" stroke-linecap="round" stroke-opacity="0.328" /></g><g transform="rotate(-17.83 1536.0 1536.0)"><path d="M-368.6 2282.0 C -273.4 2211.1, -140.1 2357.2, -51.2 2168.2 C 44.0 2210.9, 177.4 2393.4, 266.2 2227.3 C 361.5 2224.4, 494.8 2309.1, 583.7 2319.6 C 678.9 2311.5, 812.2 2257.2, 901.1 2389.1 C 996.4 2405.3, 1129.7 2162.0, 1218.6 2393.6 C 1313.8 2357.1, 1447.1 2236.5, 1536.0 2330.4 C 1631.2 2319.3, 1764.6 2235.2, 1853.4 2237.8 C 1948.7 2252.0, 2082.0 2322.5, 2170.9 2172.0 C 2266.1 2193.5, 2399.4 2377.4, 2488.3 2173.0 C 2583.6 2212.4, 2716.9 2375.3, 2805.8 2240.0 C 2901.0 2241.7, 3034.3 2326.6, 3123.2 2332.5 C 3218.4 2323.4, 3351.8 2227.4, 3440.6 2394.4" fill="none" stroke="url(#ribbon52)" stroke-width="22.4" stroke-linecap="round" stroke-opacity="0.354" /></g><g transform="rotate(-17.25 1536.0 1536.0)"><path d="M-368.6 2511.3 C -225.8 2593.8, -25.8 2443.5, 107.5 2636.8 C 250.4 2603.4, 450.4 2384.0, 583.7 2591.5 C 726.5 2570.5, 926.5 2481.3, 1059.8 2497.5 C 1202.7 2495.3, 1402.7 2519.0, 1536.0 2411.9 C 1678.8 2445.1, 1878.8 2621.2, 2012.2 2386.5 C 2155.0 2391.2, 2355.0 2585.8, 2488.3 2436.9 C 2631.2 2459.1, 2831.2 2540.9, 2964.5 2532.3 C 3107.3 2526.3, 3307.3 2494.0, 3440.6 2615.0" fill="none" stroke="url(#ribbon52)" stroke-width="18.4" stroke-linecap="round" stroke-opacity="0.380" /></g><g transform="rotate(-16.67 1536.0 1536.0)"><path d="M-368.6 2682.2 C -241.7 2733.2, -63.9 2660.1, 54.6 2801.8 C 181.6 2823.0, 359.4 2564.8, 477.9 2807.3 C 604.8 2816.0, 782.6 2590.1, 901.1 2736.9 C 1028.1 2744.8, 1205.9 2647.6, 1324.4 2633.4 C 1451.3 2631.8, 1629.1 2699.0, 1747.6 2559.4 C 1874.6 2515.2, 2052.4 2809.5, 2170.9 2560.0 C 2297.9 2558.1, 2475.6 2815.4, 2594.1 2634.7 C 2721.1 2640.2, 2898.9 2721.8, 3017.4 2738.2 C 3144.4 2752.4, 3322.1 2637.8, 3440.6 2807.8" fill="none" stroke="url(#ribbon52)" stroke-width="14.4" stroke-linecap="round" stroke-opacity="0.406" /></g></g>
  <g><ellipse cx="1536.0" cy="1551.9" rx="728.6" ry="605.7" fill="url(#extrude52)" opacity="0.220" /><ellipse cx="1536.0" cy="1567.7" rx="736.0" ry="610.9" fill="url(#extrude52)" opacity="0.205" /><ellipse cx="1536.0" cy="1583.6" rx="743.4" ry="616.1" fill="url(#extrude52)" opacity="0.190" /><ellipse cx="1536.0" cy="1599.5" rx="750.9" ry="621.3" fill="url(#extrude52)" opacity="0.175" /><ellipse cx="1536.0" cy="1615.4" rx="758.3" ry="626.5" fill="url(#extrude52)" opacity="0.160" /><ellipse cx="1536.0" cy="1631.2" rx="765.7" ry="631.7" fill="url(#extrude52)" opacity="0.145" /><ellipse cx="1536.0" cy="1647.1" rx="773.2" ry="636.9" fill="url(#extrude52)" opacity="0.130" /><ellipse cx="1536.0" cy="1663.0" rx="780.6" ry="642.1" fill="url(#extrude52)" opacity="0.115" /><ellipse cx="1536.0" cy="1678.8" rx="788.0" ry="647.4" fill="url(#extrude52)" opacity="0.100" /><ellipse cx="1536.0" cy="1694.7" rx="795.5" ry="652.6" fill="url(#extrude52)" opacity="0.085" /><ellipse cx="1536.0" cy="1710.6" rx="802.9" ry="657.8" fill="url(#extrude52)" opacity="0.070" /><ellipse cx="1536.0" cy="1726.5" rx="810.3" ry="663.0" fill="url(#extrude52)" opacity="0.055" /></g>
  <ellipse cx="1536.0" cy="1726.5" rx="773.2" ry="214.9" fill="#0B1D2D" opacity="0.24" />
  <ellipse cx="1536.0" cy="1536.0" rx="743.4" ry="651.3" fill="url(#orb52)" stroke="#FFFFFF" stroke-opacity="0.42" stroke-width="7" />
  <ellipse cx="1431.9" cy="1392.7" rx="505.5" ry="299.6" fill="#FFFFFF" opacity="0.25" />
  <path d="M 199.4 399.4 C 1013.8 -30.7, 2058.2 768.0, 2872.6 215.0 L 2872.6 983.0 C 2089.0 1228.8, 1013.8 307.2, 199.4 1167.4 Z" fill="url(#glass52)" />
  <rect x="270" y="270" width="2532" height="2532" rx="430" fill="none" stroke="#FFFFFF" stroke-opacity="0.30" stroke-width="5" />
  <rect x="288.4" y="288.4" width="2495.1" height="2495.1" rx="399" fill="none" stroke="#FF6AB3" stroke-opacity="0.35" stroke-width="3" />
  <g filter="url(#soft52)"><rect x="720" y="1726" width="42" height="2" fill="#FFFFFF" opacity="0.565" /><rect x="740" y="1706" width="2" height="42" fill="#FFFFFF" opacity="0.565" /><rect x="1643" y="1025" width="60" height="2" fill="#FFFFFF" opacity="0.696" /><rect x="1672" y="996" width="2" height="60" fill="#FFFFFF" opacity="0.696" /><rect x="2536" y="2626" width="34" height="2" fill="#FFFFFF" opacity="0.531" /><rect x="2552" y="2610" width="2" height="34" fill="#FFFFFF" opacity="0.531" /><rect x="856" y="415" width="30" height="2" fill="#FFFFFF" opacity="0.553" /><rect x="870" y="401" width="2" height="30" fill="#FFFFFF" opacity="0.553" /><rect x="1136" y="2745" width="66" height="2" fill="#FFFFFF" opacity="0.739" /><rect x="1168" y="2713" width="2" height="66" fill="#FFFFFF" opacity="0.739" /><rect x="1113" y="360" width="64" height="2" fill="#FFFFFF" opacity="0.561" /><rect x="1144" y="329" width="2" height="64" fill="#FFFFFF" opacity="0.561" /><rect x="2529" y="910" width="44" height="2" fill="#FFFFFF" opacity="0.508" /><rect x="2550" y="889" width="2" height="44" fill="#FFFFFF" opacity="0.508" /><rect x="1063" y="981" width="72" height="2" fill="#FFFFFF" opacity="0.421" /><rect x="1098" y="946" width="2" height="72" fill="#FFFFFF" opacity="0.421" /><rect x="904" y="1481" width="54" height="2" fill="#FFFFFF" opacity="0.456" /><rect x="930" y="1455" width="2" height="54" fill="#FFFFFF" opacity="0.456" /><rect x="1529" y="1561" width="52" height="2" fill="#FFFFFF" opacity="0.799" /><rect x="1554" y="1536" width="2" height="52" fill="#FFFFFF" opacity="0.799" /><rect x="1516" y="2592" width="72" height="2" fill="#FFFFFF" opacity="0.736" /><rect x="1551" y="2557" width="2" height="72" fill="#FFFFFF" opacity="0.736" /><rect x="933" y="1458" width="76" height="2" fill="#FFFFFF" opacity="0.609" /><rect x="970" y="1421" width="2" height="76" fill="#FFFFFF" opacity="0.609" /><rect x="2589" y="917" width="62" height="2" fill="#FFFFFF" opacity="0.399" /><rect x="2619" y="887" width="2" height="62" fill="#FFFFFF" opacity="0.399" /><rect x="446" y="2428" width="48" height="2" fill="#FFFFFF" opacity="0.383" /><rect x="469" y="2405" width="2" height="48" fill="#FFFFFF" opacity="0.383" /><rect x="1972" y="375" width="30" height="2" fill="#FFFFFF" opacity="0.643" /><rect x="1986" y="361" width="2" height="30" fill="#FFFFFF" opacity="0.643" /><rect x="810" y="2296" width="30" height="2" fill="#FFFFFF" opacity="0.728" /><rect x="824" y="2282" width="2" height="30" fill="#FFFFFF" opacity="0.728" /><rect x="809" y="2094" width="44" height="2" fill="#FFFFFF" opacity="0.399" /><rect x="830" y="2073" width="2" height="44" fill="#FFFFFF" opacity="0.399" /><rect x="1494" y="2633" width="34" height="2" fill="#FFFFFF" opacity="0.812" /><rect x="1510" y="2617" width="2" height="34" fill="#FFFFFF" opacity="0.812" /><rect x="1794" y="840" width="78" height="2" fill="#FFFFFF" opacity="0.748" /><rect x="1832" y="802" width="2" height="78" fill="#FFFFFF" opacity="0.748" /><rect x="1743" y="2744" width="74" height="2" fill="#FFFFFF" opacity="0.736" /><rect x="1779" y="2708" width="2" height="74" fill="#FFFFFF" opacity="0.736" /><rect x="1808" y="484" width="68" height="2" fill="#FFFFFF" opacity="0.573" /><rect x="1841" y="451" width="2" height="68" fill="#FFFFFF" opacity="0.573" /><rect x="1249" y="2619" width="76" height="2" fill="#FFFFFF" opacity="0.644" /><rect x="1286" y="2582" width="2" height="76" fill="#FFFFFF" opacity="0.644" /><rect x="1676" y="669" width="42" height="2" fill="#FFFFFF" opacity="0.498" /><rect x="1696" y="649" width="2" height="42" fill="#FFFFFF" opacity="0.498" /><rect x="2705" y="2272" width="76" height="2" fill="#FFFFFF" opacity="0.416" /><rect x="2742" y="2235" width="2" height="76" fill="#FFFFFF" opacity="0.416" /><rect x="456" y="2522" width="26" height="2" fill="#FFFFFF" opacity="0.807" /><rect x="468" y="2510" width="2" height="26" fill="#FFFFFF" opacity="0.807" /><rect x="1492" y="2494" width="46" height="2" fill="#FFFFFF" opacity="0.488" /><rect x="1514" y="2472" width="2" height="46" fill="#FFFFFF" opacity="0.488" /></g>
  <g opacity="0.52"><path d="M1572 1006 L2148 1582 L1572 2158 L996 1582 Z" fill="none" stroke="#0C2030" stroke-width="90" stroke-linejoin="round" /><circle cx="1572" cy="1582" r="153" fill="#0C2030" /></g>
  <g filter="url(#soft52)"><path d="M1536 960 L2112 1536 L1536 2112 L960 1536 Z" fill="none" stroke="url(#symbol52)" stroke-width="90" stroke-linejoin="round" /><circle cx="1536" cy="1536" r="153" fill="url(#symbol52)" /></g>
  <rect x="138" y="138" width="2796" height="2796" rx="629" fill="#FFFFFF" filter="url(#grain52)" opacity="0.18" />
</svg>
