<svg xmlns="http://www.w3.org/2000/svg" width="3072" height="3072" viewBox="0 0 3072 3072">
  <title>QuartzOS App Icon 013 - neon_editor_013</title>
  <defs><linearGradient id="bg12" x1="0%" y1="0%" x2="100%" y2="100%"><stop offset="0%" stop-color="#FFD84D" /><stop offset="26%" stop-color="#36D1FF" /><stop offset="56%" stop-color="#8A5CFF" /><stop offset="78%" stop-color="#4E8FC5" /><stop offset="100%" stop-color="#10243A" /></linearGradient><radialGradient id="sun12" cx="29%" cy="26%" r="88%"><stop offset="0%" stop-color="#FFFFFF" stop-opacity="0.62" /><stop offset="30%" stop-color="#FF6AB3" stop-opacity="0.35" /><stop offset="100%" stop-color="#FF6AB3" stop-opacity="0" /></radialGradient><linearGradient id="glass12" x1="0%" y1="0%" x2="0%" y2="100%"><stop offset="0%" stop-color="#FFFFFF" stop-opacity="0.70" /><stop offset="46%" stop-color="#FFFFFF" stop-opacity="0.26" /><stop offset="100%" stop-color="#FFFFFF" stop-opacity="0.00" /></linearGradient><linearGradient id="ribbon12" x1="0%" y1="0%" x2="100%" y2="0%"><stop offset="0%" stop-color="#FFD84D" stop-opacity="0.18" /><stop offset="34%" stop-color="#36D1FF" stop-opacity="0.72" /><stop offset="66%" stop-color="#8A5CFF" stop-opacity="0.72" /><stop offset="100%" stop-color="#FF6AB3" stop-opacity="0.18" /></linearGradient><radialGradient id="orb12" cx="34%" cy="27%" r="74%"><stop offset="0%" stop-color="#FFFFFF" stop-opacity="0.84" /><stop offset="30%" stop-color="#FFD84D" stop-opacity="0.52" /><stop offset="68%" stop-color="#36D1FF" stop-opacity="0.42" /><stop offset="100%" stop-color="#8A5CFF" stop-opacity="0.20" /></radialGradient><linearGradient id="extrude12" x1="0%" y1="0%" x2="0%" y2="100%"><stop offset="0%" stop-color="#15283C" stop-opacity="0.45" /><stop offset="100%" stop-color="#08131D" stop-opacity="0.06" /></linearGradient><linearGradient id="symbol12" x1="0%" y1="0%" x2="100%" y2="100%"><stop offset="0%" stop-color="#FFFFFF" /><stop offset="100%" stop-color="#FF6AB3" /></linearGradient><filter id="shadow12" x="-40%" y="-40%" width="180%" height="180%"><feDropShadow dx="0" dy="49" stdDeviation="86" flood-color="#06111A" flood-opacity="0.54" /></filter><filter id="soft12" x="-40%" y="-40%" width="180%" height="180%"><feDropShadow dx="0" dy="0" stdDeviation="14" flood-color="#FFD84D" flood-opacity="0.45" /></filter><filter id="grain12"><feTurbulence type="fractalNoise" baseFrequency="0.854" numOctaves="2" seed="12" /><feColorMatrix type="saturate" values="0" /><feComponentTransfer><feFuncA type="table" tableValues="0 0.09" /></feComponentTransfer></filter></defs>
  <rect x="138" y="138" width="2796" height="2796" rx="629" fill="url(#bg12)" filter="url(#shadow12)" />
  <rect x="138" y="138" width="2796" height="2796" rx="629" fill="url(#sun12)" />
  <g><circle cx="904" cy="710" r="48" fill="#FFFFFF" opacity="0.215" /><circle cx="1799" cy="2326" r="98" fill="#FFFFFF" opacity="0.107" /><circle cx="1400" cy="1798" r="59" fill="#FFFFFF" opacity="0.063" /><circle cx="1944" cy="1150" r="151" fill="#FFFFFF" opacity="0.178" /><circle cx="1447" cy="2306" r="106" fill="#FFFFFF" opacity="0.062" /><circle cx="1592" cy="2187" r="104" fill="#FFFFFF" opacity="0.167" /><circle cx="956" cy="2098" r="114" fill="#FFFFFF" opacity="0.225" /><circle cx="484" cy="1917" r="100" fill="#FFFFFF" opacity="0.149" /><circle cx="1985" cy="551" r="48" fill="#FFFFFF" opacity="0.188" /><circle cx="2005" cy="748" r="126" fill="#FFFFFF" opacity="0.201" /><circle cx="392" cy="2571" r="113" fill="#FFFFFF" opacity="0.140" /><circle cx="1404" cy="1611" r="70" fill="#FFFFFF" opacity="0.097" /><circle cx="2140" cy="1391" r="103" fill="#FFFFFF" opacity="0.094" /><circle cx="1017" cy="2125" r="143" fill="#FFFFFF" opacity="0.230" /><circle cx="1238" cy="461" r="107" fill="#FFFFFF" opacity="0.204" /><circle cx="1108" cy="1883" r="86" fill="#FFFFFF" opacity="0.157" /><circle cx="1008" cy="2541" r="116" fill="#FFFFFF" opacity="0.157" /><circle cx="1374" cy="900" r="103" fill="#FFFFFF" opacity="0.178" /><circle cx="1652" cy="1935" r="134" fill="#FFFFFF" opacity="0.141" /><circle cx="1420" cy="1213" r="84" fill="#FFFFFF" opacity="0.170" /><circle cx="804" cy="1434" r="46" fill="#FFFFFF" opacity="0.164" /><circle cx="2555" cy="2035" r="59" fill="#FFFFFF" opacity="0.199" /><circle cx="2400" cy="1265" r="109" fill="#FFFFFF" opacity="0.237" /><circle cx="1557" cy="452" r="49" fill="#FFFFFF" opacity="0.189" /><circle cx="1176" cy="753" r="101" fill="#FFFFFF" opacity="0.170" /><circle cx="2093" cy="2456" r="49" fill="#FFFFFF" opacity="0.104" /><circle cx="1170" cy="747" r="72" fill="#FFFFFF" opacity="0.224" /><circle cx="1779" cy="1174" r="138" fill="#FFFFFF" opacity="0.090" /></g>
  <g><path d="M 320.2 574.1 L 2854.3 297.6 L 2854.3 739.1 L 320.2 1015.6 Z" fill="#FFFFFF" opacity="0.161" /><path d="M 285.7 870.9 L 2907.4 594.4 L 2907.4 1029.9 L 285.7 1306.4 Z" fill="#FFFFFF" opacity="0.184" /><path d="M 259.2 1118.0 L 2889.4 841.5 L 2889.4 1303.5 L 259.2 1580.0 Z" fill="#FFFFFF" opacity="0.130" /><path d="M 312.2 1357.0 L 2793.8 1080.5 L 2793.8 1539.6 L 312.2 1816.1 Z" fill="#FFFFFF" opacity="0.145" /><path d="M 226.8 1631.5 L 2887.5 1355.0 L 2887.5 1803.7 L 226.8 2080.2 Z" fill="#FFFFFF" opacity="0.170" /><path d="M 197.2 1910.2 L 2779.3 1633.7 L 2779.3 2127.8 L 197.2 2404.3 Z" fill="#FFFFFF" opacity="0.213" /><path d="M 177.8 2216.9 L 2702.5 1940.4 L 2702.5 2361.8 L 177.8 2638.3 Z" fill="#FFFFFF" opacity="0.238" /><path d="M 303.8 2458.3 L 2691.4 2181.8 L 2691.4 2625.0 L 303.8 2901.4 Z" fill="#FFFFFF" opacity="0.195" /></g>
  <g filter="url(#soft12)"><g transform="rotate(-8.06 1536.0 1536.0)"><path d="M-368.6 496.7 C -225.8 427.6, -25.8 546.8, 107.5 472.8 C 250.4 470.2, 450.4 514.1, 583.7 515.8 C 726.5 516.3, 926.5 484.1, 1059.8 547.3 C 1202.7 545.5, 1402.7 461.8, 1536.0 548.1 C 1678.8 551.9, 1878.8 479.5, 2012.2 517.7 C 2155.0 510.2, 2355.0 481.5, 2488.3 474.7 C 2631.2 477.2, 2831.2 508.9, 2964.5 445.0 C 3107.3 431.6, 3307.3 520.2, 3440.6 446.7" fill="none" stroke="url(#ribbon12)" stroke-width="58.4" stroke-linecap="round" stroke-opacity="0.120" /></g><g transform="rotate(-7.48 1536.0 1536.0)"><path d="M-368.6 683.3 C -241.7 603.8, -63.9 735.5, 54.6 626.9 C 181.6 618.2, 359.4 719.7, 477.9 663.0 C 604.8 663.6, 782.6 698.1, 901.1 711.5 C 1028.1 705.5, 1205.9 659.3, 1324.4 742.9 C 1451.3 764.6, 1629.1 663.9, 1747.6 738.1 C 1874.6 755.3, 2052.4 624.9, 2170.9 700.2 C 2297.9 698.5, 2475.6 667.2, 2594.1 652.0 C 2721.1 646.8, 2898.9 710.6, 3017.4 622.8 C 3144.4 616.1, 3322.1 744.5, 3440.6 630.4" fill="none" stroke="url(#ribbon12)" stroke-width="54.4" stroke-linecap="round" stroke-opacity="0.146" /></g><g transform="rotate(-6.90 1536.0 1536.0)"><path d="M-368.6 857.2 C -254.4 905.6, -94.4 843.1, 12.3 924.9 C 126.6 900.8, 286.6 830.2, 393.2 915.3 C 507.5 934.9, 667.5 790.0, 774.1 870.4 C 888.4 874.4, 1048.4 848.1, 1155.1 817.5 C 1269.4 815.3, 1429.3 880.8, 1536.0 788.7 C 1650.3 794.9, 1810.3 886.9, 1916.9 801.4 C 2031.2 791.6, 2191.2 923.4, 2297.9 848.0 C 2412.1 851.5, 2572.1 863.4, 2678.8 900.1 C 2793.1 883.6, 2953.1 815.5, 3059.7 926.2 C 3174.0 937.8, 3334.0 813.5, 3440.6 910.4" fill="none" stroke="url(#ribbon12)" stroke-width="50.4" stroke-linecap="round" stroke-opacity="0.172" /></g><g transform="rotate(-6.32 1536.0 1536.0)"><path d="M-368.6 1155.9 C -264.8 1131.6, -119.3 1172.8, -22.3 1088.3 C 81.5 1086.1, 227.0 1191.1, 324.0 1083.1 C 427.8 1056.0, 573.3 1192.5, 670.3 1122.1 C 774.1 1116.3, 919.6 1173.4, 1016.6 1181.6 C 1120.4 1183.1, 1265.9 1133.0, 1362.9 1225.5 C 1466.7 1235.7, 1612.2 1113.3, 1709.1 1227.1 C 1813.0 1248.2, 1958.5 1076.2, 2055.4 1185.6 C 2159.3 1176.5, 2304.8 1133.5, 2401.7 1126.0 C 2505.6 1134.3, 2651.1 1188.5, 2748.0 1084.6 C 2851.9 1096.3, 2997.4 1198.1, 3094.3 1086.4 C 3198.2 1083.5, 3343.7 1226.5, 3440.6 1130.4" fill="none" stroke="url(#ribbon12)" stroke-width="46.4" stroke-linecap="round" stroke-opacity="0.198" /></g><g transform="rotate(-5.74 1536.0 1536.0)"><path d="M-368.6 1351.9 C -273.4 1362.6, -140.1 1347.0, -51.2 1302.2 C 44.0 1289.2, 177.4 1384.8, 266.2 1269.1 C 361.5 1300.3, 494.8 1411.8, 583.7 1286.3 C 678.9 1309.1, 812.2 1429.5, 901.1 1343.3 C 996.4 1342.0, 1129.7 1361.5, 1218.6 1405.5 C 1313.8 1426.4, 1447.1 1287.9, 1536.0 1435.3 C 1631.2 1433.9, 1764.6 1304.5, 1853.4 1414.4 C 1948.7 1432.3, 2082.0 1300.7, 2170.9 1355.7 C 2266.1 1356.8, 2399.4 1349.3, 2488.3 1294.7 C 2583.6 1286.6, 2716.9 1370.8, 2805.8 1268.4 C 2901.0 1280.2, 3034.3 1420.7, 3123.2 1292.8 C 3218.4 1309.9, 3351.8 1403.5, 3440.6 1353.0" fill="none" stroke="url(#ribbon12)" stroke-width="42.4" stroke-linecap="round" stroke-opacity="0.224" /></g><g transform="rotate(-5.16 1536.0 1536.0)"><path d="M-368.6 1527.9 C -225.8 1586.5, -25.8 1483.7, 107.5 1540.6 C 250.4 1536.8, 450.4 1521.3, 583.7 1472.3 C 726.5 1481.4, 926.5 1569.5, 1059.8 1437.8 C 1202.7 1445.8, 1402.7 1605.3, 1536.0 1457.9 C 1678.8 1480.5, 1878.8 1552.2, 2012.2 1520.4 C 2155.0 1521.4, 2355.0 1530.9, 2488.3 1587.5 C 2631.2 1600.7, 2831.2 1471.7, 2964.5 1618.4 C 3107.3 1588.5, 3307.3 1430.8, 3440.6 1594.4" fill="none" stroke="url(#ribbon12)" stroke-width="38.4" stroke-linecap="round" stroke-opacity="0.250" /></g><g transform="rotate(-4.58 1536.0 1536.0)"><path d="M-368.6 1684.3 C -241.7 1782.5, -63.9 1601.8, 54.6 1779.4 C 181.6 1807.7, 359.4 1630.2, 477.9 1734.8 C 604.8 1743.8, 782.6 1662.6, 901.1 1659.5 C 1028.1 1651.8, 1205.9 1692.3, 1324.4 1599.2 C 1451.3 1571.6, 1629.1 1778.9, 1747.6 1590.5 C 1874.6 1566.5, 2052.4 1720.9, 2170.9 1638.7 C 2297.9 1622.7, 2475.6 1717.3, 2594.1 1714.5 C 2721.1 1708.9, 2898.9 1673.9, 3017.4 1772.0 C 3144.4 1752.8, 3322.1 1638.1, 3440.6 1776.2" fill="none" stroke="url(#ribbon12)" stroke-width="34.4" stroke-linecap="round" stroke-opacity="0.276" /></g><g transform="rotate(-4.00 1536.0 1536.0)"><path d="M-368.6 1844.3 C -254.4 1944.5, -94.4 1748.3, 12.3 1935.9 C 126.6 1907.5, 286.6 1789.8, 393.2 1871.7 C 507.5 1881.8, 667.5 1831.4, 774.1 1790.9 C 888.4 1777.5, 1048.4 1879.0, 1155.1 1742.4 C 1269.4 1748.5, 1429.3 1897.0, 1536.0 1755.8 C 1650.3 1758.2, 1810.3 1905.4, 1916.9 1822.8 C 2031.2 1814.8, 2191.2 1865.3, 2297.9 1902.8 C 2412.1 1898.2, 2572.1 1790.9, 2678.8 1947.4 C 2793.1 1981.5, 2953.1 1731.3, 3059.7 1929.4 C 3174.0 1922.1, 3334.0 1802.6, 3440.6 1859.8" fill="none" stroke="url(#ribbon12)" stroke-width="30.4" stroke-linecap="round" stroke-opacity="0.302" /></g><g transform="rotate(-3.42 1536.0 1536.0)"><path d="M-368.6 2046.7 C -264.8 2138.4, -119.3 1925.2, -22.3 2097.1 C 81.5 2080.4, 227.0 1996.9, 324.0 2010.2 C 427.8 2003.0, 573.3 2079.2, 670.3 1945.5 C 774.1 1933.9, 919.6 2141.5, 1016.6 1942.1 C 1120.4 1978.3, 1265.9 2124.3, 1362.9 2002.2 C 1466.7 2000.8, 1612.2 2077.9, 1709.1 2089.3 C 1813.0 2080.3, 1958.5 2000.7, 2055.4 2150.5 C 2159.3 2146.5, 2304.8 2001.5, 2401.7 2148.8 C 2505.6 2128.3, 2651.1 1931.8, 2748.0 2085.1 C 2851.9 2092.0, 2997.4 2008.9, 3094.3 1998.1 C 3198.2 1986.2, 3343.7 2062.5, 3440.6 1940.6" fill="none" stroke="url(#ribbon12)" stroke-width="26.4" stroke-linecap="round" stroke-opacity="0.328" /></g><g transform="rotate(-2.84 1536.0 1536.0)"><path d="M-368.6 2208.4 C -273.4 2284.0, -140.1 2152.5, -51.2 2173.0 C 44.0 2183.6, 177.4 2224.0, 266.2 2102.3 C 361.5 2115.8, 494.8 2286.9, 583.7 2096.0 C 678.9 2103.3, 812.2 2325.8, 901.1 2157.8 C 996.4 2172.5, 1129.7 2242.7, 1218.6 2250.3 C 1313.8 2241.9, 1447.1 2172.0, 1536.0 2317.4 C 1631.2 2332.7, 1764.6 2088.8, 1853.4 2318.4 C 1948.7 2352.3, 2082.0 2111.5, 2170.9 2252.6 C 2266.1 2267.8, 2399.4 2193.7, 2488.3 2160.0 C 2583.6 2162.7, 2716.9 2232.2, 2805.8 2096.8 C 2901.0 2060.2, 3034.3 2275.1, 3123.2 2101.2 C 3218.4 2096.6, 3351.8 2254.1, 3440.6 2170.7" fill="none" stroke="url(#ribbon12)" stroke-width="22.4" stroke-linecap="round" stroke-opacity="0.354" /></g><g transform="rotate(-2.26 1536.0 1536.0)"><path d="M-368.6 2456.0 C -225.8 2476.6, -25.8 2449.3, 107.5 2381.8 C 250.4 2408.3, 450.4 2522.7, 583.7 2331.3 C 726.5 2321.5, 926.5 2509.4, 1059.8 2356.4 C 1202.7 2339.6, 1402.7 2517.0, 1536.0 2442.0 C 1678.8 2447.5, 1878.8 2470.8, 2012.2 2536.0 C 2155.0 2565.6, 2355.0 2376.1, 2488.3 2581.5 C 2631.2 2565.6, 2831.2 2396.6, 2964.5 2550.9 C 3107.3 2518.6, 3307.3 2416.9, 3440.6 2462.7" fill="none" stroke="url(#ribbon12)" stroke-width="18.4" stroke-linecap="round" stroke-opacity="0.380" /></g><g transform="rotate(-1.68 1536.0 1536.0)"><path d="M-368.6 2697.7 C -241.7 2803.2, -63.9 2584.5, 54.6 2700.0 C 181.6 2699.4, 359.4 2696.5, 477.9 2603.9 C 604.8 2582.5, 782.6 2749.0, 901.1 2564.7 C 1028.1 2612.6, 1205.9 2841.1, 1324.4 2606.1 C 1451.3 2595.2, 1629.1 2757.5, 1747.6 2703.1 C 1874.6 2701.9, 2052.4 2691.5, 2170.9 2796.8 C 2297.9 2777.6, 2475.6 2623.4, 2594.1 2830.4 C 2721.1 2836.3, 2898.9 2597.5, 3017.4 2783.4 C 3144.4 2770.0, 3322.1 2626.5, 3440.6 2684.5" fill="none" stroke="url(#ribbon12)" stroke-width="14.4" stroke-linecap="round" stroke-opacity="0.406" /></g></g>
  <g><ellipse cx="1536.0" cy="1551.9" rx="728.6" ry="605.7" fill="url(#extrude12)" opacity="0.220" /><ellipse cx="1536.0" cy="1567.7" rx="736.0" ry="610.9" fill="url(#extrude12)" opacity="0.205" /><ellipse cx="1536.0" cy="1583.6" rx="743.4" ry="616.1" fill="url(#extrude12)" opacity="0.190" /><ellipse cx="1536.0" cy="1599.5" rx="750.9" ry="621.3" fill="url(#extrude12)" opacity="0.175" /><ellipse cx="1536.0" cy="1615.4" rx="758.3" ry="626.5" fill="url(#extrude12)" opacity="0.160" /><ellipse cx="1536.0" cy="1631.2" rx="765.7" ry="631.7" fill="url(#extrude12)" opacity="0.145" /><ellipse cx="1536.0" cy="1647.1" rx="773.2" ry="636.9" fill="url(#extrude12)" opacity="0.130" /><ellipse cx="1536.0" cy="1663.0" rx="780.6" ry="642.1" fill="url(#extrude12)" opacity="0.115" /><ellipse cx="1536.0" cy="1678.8" rx="788.0" ry="647.4" fill="url(#extrude12)" opacity="0.100" /><ellipse cx="1536.0" cy="1694.7" rx="795.5" ry="652.6" fill="url(#extrude12)" opacity="0.085" /><ellipse cx="1536.0" cy="1710.6" rx="802.9" ry="657.8" fill="url(#extrude12)" opacity="0.070" /><ellipse cx="1536.0" cy="1726.5" rx="810.3" ry="663.0" fill="url(#extrude12)" opacity="0.055" /></g>
  <ellipse cx="1536.0" cy="1726.5" rx="773.2" ry="214.9" fill="#0B1D2D" opacity="0.24" />
  <ellipse cx="1536.0" cy="1536.0" rx="743.4" ry="651.3" fill="url(#orb12)" stroke="#FFFFFF" stroke-opacity="0.42" stroke-width="7" />
  <ellipse cx="1431.9" cy="1392.7" rx="505.5" ry="299.6" fill="#FFFFFF" opacity="0.25" />
  <path d="M 199.4 399.4 C 1013.8 -30.7, 2058.2 768.0, 2872.6 215.0 L 2872.6 983.0 C 2089.0 1228.8, 1013.8 307.2, 199.4 1167.4 Z" fill="url(#glass12)" />
  <rect x="270" y="270" width="2532" height="2532" rx="430" fill="none" stroke="#FFFFFF" stroke-opacity="0.30" stroke-width="5" />
  <rect x="288.4" y="288.4" width="2495.1" height="2495.1" rx="399" fill="none" stroke="#FFD84D" stroke-opacity="0.35" stroke-width="3" />
  <g filter="url(#soft12)"><rect x="2609" y="1288" width="80" height="2" fill="#FFFFFF" opacity="0.305" /><rect x="2648" y="1249" width="2" height="80" fill="#FFFFFF" opacity="0.305" /><rect x="699" y="829" width="58" height="2" fill="#FFFFFF" opacity="0.301" /><rect x="727" y="801" width="2" height="58" fill="#FFFFFF" opacity="0.301" /><rect x="1229" y="2100" width="42" height="2" fill="#FFFFFF" opacity="0.778" /><rect x="1249" y="2080" width="2" height="42" fill="#FFFFFF" opacity="0.778" /><rect x="2492" y="676" width="66" height="2" fill="#FFFFFF" opacity="0.651" /><rect x="2524" y="644" width="2" height="66" fill="#FFFFFF" opacity="0.651" /><rect x="1284" y="2300" width="50" height="2" fill="#FFFFFF" opacity="0.526" /><rect x="1308" y="2276" width="2" height="50" fill="#FFFFFF" opacity="0.526" /><rect x="868" y="1814" width="26" height="2" fill="#FFFFFF" opacity="0.707" /><rect x="880" y="1802" width="2" height="26" fill="#FFFFFF" opacity="0.707" /><rect x="1761" y="2623" width="62" height="2" fill="#FFFFFF" opacity="0.687" /><rect x="1791" y="2593" width="2" height="62" fill="#FFFFFF" opacity="0.687" /><rect x="1285" y="1778" width="38" height="2" fill="#FFFFFF" opacity="0.603" /><rect x="1303" y="1760" width="2" height="38" fill="#FFFFFF" opacity="0.603" /><rect x="429" y="2437" width="54" height="2" fill="#FFFFFF" opacity="0.344" /><rect x="455" y="2411" width="2" height="54" fill="#FFFFFF" opacity="0.344" /><rect x="672" y="2726" width="56" height="2" fill="#FFFFFF" opacity="0.364" /><rect x="699" y="2699" width="2" height="56" fill="#FFFFFF" opacity="0.364" /><rect x="342" y="1362" width="38" height="2" fill="#FFFFFF" opacity="0.709" /><rect x="360" y="1344" width="2" height="38" fill="#FFFFFF" opacity="0.709" /><rect x="1814" y="532" width="62" height="2" fill="#FFFFFF" opacity="0.396" /><rect x="1844" y="502" width="2" height="62" fill="#FFFFFF" opacity="0.396" /><rect x="779" y="2307" width="52" height="2" fill="#FFFFFF" opacity="0.527" /><rect x="804" y="2282" width="2" height="52" fill="#FFFFFF" opacity="0.527" /><rect x="2155" y="505" width="72" height="2" fill="#FFFFFF" opacity="0.345" /><rect x="2190" y="470" width="2" height="72" fill="#FFFFFF" opacity="0.345" /><rect x="341" y="807" width="82" height="2" fill="#FFFFFF" opacity="0.331" /><rect x="381" y="767" width="2" height="82" fill="#FFFFFF" opacity="0.331" /><rect x="2337" y="1761" width="30" height="2" fill="#FFFFFF" opacity="0.754" /><rect x="2351" y="1747" width="2" height="30" fill="#FFFFFF" opacity="0.754" /><rect x="2062" y="969" width="36" height="2" fill="#FFFFFF" opacity="0.666" /><rect x="2079" y="952" width="2" height="36" fill="#FFFFFF" opacity="0.666" /><rect x="1506" y="656" width="44" height="2" fill="#FFFFFF" opacity="0.346" /><rect x="1527" y="635" width="2" height="44" fill="#FFFFFF" opacity="0.346" /><rect x="2762" y="2606" width="70" height="2" fill="#FFFFFF" opacity="0.357" /><rect x="2796" y="2572" width="2" height="70" fill="#FFFFFF" opacity="0.357" /><rect x="2485" y="668" width="70" height="2" fill="#FFFFFF" opacity="0.493" /><rect x="2519" y="634" width="2" height="70" fill="#FFFFFF" opacity="0.493" /><rect x="2518" y="2383" width="44" height="2" fill="#FFFFFF" opacity="0.309" /><rect x="2539" y="2362" width="2" height="44" fill="#FFFFFF" opacity="0.309" /><rect x="1145" y="1028" width="62" height="2" fill="#FFFFFF" opacity="0.374" /><rect x="1175" y="998" width="2" height="62" fill="#FFFFFF" opacity="0.374" /><rect x="535" y="1420" width="24" height="2" fill="#FFFFFF" opacity="0.740" /><rect x="546" y="1409" width="2" height="24" fill="#FFFFFF" opacity="0.740" /><rect x="503" y="1883" width="70" height="2" fill="#FFFFFF" opacity="0.409" /><rect x="537" y="1849" width="2" height="70" fill="#FFFFFF" opacity="0.409" /><rect x="994" y="1714" width="64" height="2" fill="#FFFFFF" opacity="0.647" /><rect x="1025" y="1683" width="2" height="64" fill="#FFFFFF" opacity="0.647" /><rect x="1832" y="793" width="54" height="2" fill="#FFFFFF" opacity="0.783" /><rect x="1858" y="767" width="2" height="54" fill="#FFFFFF" opacity="0.783" /></g>
  <g opacity="0.52"><circle cx="1572" cy="1582" r="307" fill="none" stroke="#0C2030" stroke-width="90" /><line x1="1791" y1="1801" x2="2340" y2="2350" stroke="#0C2030" stroke-width="90" stroke-linecap="round" /></g>
  <g filter="url(#soft12)"><circle cx="1536" cy="1536" r="307" fill="none" stroke="url(#symbol12)" stroke-width="90" /><line x1="1755" y1="1755" x2="2304" y2="2304" stroke="url(#symbol12)" stroke-width="90" stroke-linecap="round" /></g>
  <rect x="138" y="138" width="2796" height="2796" rx="629" fill="#FFFFFF" filter="url(#grain12)" opacity="0.18" />
</svg>
