<svg xmlns="http://www.w3.org/2000/svg" width="3072" height="3072" viewBox="0 0 3072 3072">
  <title>QuartzOS App Icon 222 - nova_calendar_222</title>
  <defs><linearGradient id="bg221" x1="0%" y1="0%" x2="100%" y2="100%"><stop offset="0%" stop-color="#FF9F43" /><stop offset="26%" stop-color="#53E3A6" /><stop offset="56%" stop-color="#3B82FF" /><stop offset="78%" stop-color="#B37A46" /><stop offset="100%" stop-color="#27201B" /></linearGradient><radialGradient id="sun221" cx="28%" cy="14%" r="88%"><stop offset="0%" stop-color="#FFFFFF" stop-opacity="0.62" /><stop offset="30%" stop-color="#8A5CFF" stop-opacity="0.35" /><stop offset="100%" stop-color="#8A5CFF" stop-opacity="0" /></radialGradient><linearGradient id="glass221" x1="0%" y1="0%" x2="0%" y2="100%"><stop offset="0%" stop-color="#FFFFFF" stop-opacity="0.70" /><stop offset="46%" stop-color="#FFFFFF" stop-opacity="0.26" /><stop offset="100%" stop-color="#FFFFFF" stop-opacity="0.00" /></linearGradient><linearGradient id="ribbon221" x1="0%" y1="0%" x2="100%" y2="0%"><stop offset="0%" stop-color="#FF9F43" stop-opacity="0.18" /><stop offset="34%" stop-color="#53E3A6" stop-opacity="0.72" /><stop offset="66%" stop-color="#3B82FF" stop-opacity="0.72" /><stop offset="100%" stop-color="#8A5CFF" stop-opacity="0.18" /></linearGradient><radialGradient id="orb221" cx="34%" cy="27%" r="74%"><stop offset="0%" stop-color="#FFFFFF" stop-opacity="0.84" /><stop offset="30%" stop-color="#FF9F43" stop-opacity="0.52" /><stop offset="68%" stop-color="#53E3A6" stop-opacity="0.42" /><stop offset="100%" stop-color="#3B82FF" stop-opacity="0.20" /></radialGradient><linearGradient id="extrude221" x1="0%" y1="0%" x2="0%" y2="100%"><stop offset="0%" stop-color="#15283C" stop-opacity="0.45" /><stop offset="100%" stop-color="#08131D" stop-opacity="0.06" /></linearGradient><linearGradient id="symbol221" x1="0%" y1="0%" x2="100%" y2="100%"><stop offset="0%" stop-color="#FFFFFF" /><stop offset="100%" stop-color="#8A5CFF" /></linearGradient><filter id="shadow221" x="-40%" y="-40%" width="180%" height="180%"><feDropShadow dx="0" dy="49" stdDeviation="86" flood-color="#06111A" flood-opacity="0.54" /></filter><filter id="soft221" x="-40%" y="-40%" width="180%" height="180%"><feDropShadow dx="0" dy="0" stdDeviation="14" flood-color="#FF9F43" flood-opacity="0.45" /></filter><filter id="grain221"><feTurbulence type="fractalNoise" baseFrequency="0.642" numOctaves="2" seed="221" /><feColorMatrix type="saturate" values="0" /><feComponentTransfer><feFuncA type="table" tableValues="0 0.09" /></feComponentTransfer></filter></defs>
  <rect x="138" y="138" width="2796" height="2796" rx="629" fill="url(#bg221)" filter="url(#shadow221)" />
  <rect x="138" y="138" width="2796" height="2796" rx="629" fill="url(#sun221)" />
  <g><circle cx="908" cy="749" r="102" fill="#FFFFFF" opacity="0.231" /><circle cx="1312" cy="1833" r="141" fill="#FFFFFF" opacity="0.152" /><circle cx="2638" cy="1496" r="47" fill="#FFFFFF" opacity="0.154" /><circle cx="2519" cy="2575" r="122" fill="#FFFFFF" opacity="0.145" /><circle cx="1846" cy="2358" r="156" fill="#FFFFFF" opacity="0.190" /><circle cx="2039" cy="967" r="131" fill="#FFFFFF" opacity="0.069" /><circle cx="645" cy="665" r="114" fill="#FFFFFF" opacity="0.117" /><circle cx="1500" cy="1849" r="86" fill="#FFFFFF" opacity="0.115" /><circle cx="2586" cy="2031" r="99" fill="#FFFFFF" opacity="0.229" /><circle cx="2313" cy="2347" r="119" fill="#FFFFFF" opacity="0.142" /><circle cx="2535" cy="370" r="122" fill="#FFFFFF" opacity="0.112" /><circle cx="1176" cy="1306" r="109" fill="#FFFFFF" opacity="0.173" /><circle cx="632" cy="1185" r="65" fill="#FFFFFF" opacity="0.235" /><circle cx="2645" cy="1697" r="53" fill="#FFFFFF" opacity="0.096" /><circle cx="638" cy="1882" r="75" fill="#FFFFFF" opacity="0.210" /><circle cx="2083" cy="1181" r="46" fill="#FFFFFF" opacity="0.182" /><circle cx="2000" cy="980" r="75" fill="#FFFFFF" opacity="0.220" /><circle cx="2026" cy="2004" r="117" fill="#FFFFFF" opacity="0.092" /><circle cx="1995" cy="2690" r="101" fill="#FFFFFF" opacity="0.205" /><circle cx="1264" cy="1862" r="158" fill="#FFFFFF" opacity="0.136" /><circle cx="931" cy="2463" r="140" fill="#FFFFFF" opacity="0.236" /><circle cx="990" cy="1694" r="90" fill="#FFFFFF" opacity="0.117" /><circle cx="1075" cy="1448" r="56" fill="#FFFFFF" opacity="0.077" /><circle cx="2343" cy="1643" r="109" fill="#FFFFFF" opacity="0.080" /><circle cx="1641" cy="1930" r="113" fill="#FFFFFF" opacity="0.122" /><circle cx="2345" cy="1961" r="67" fill="#FFFFFF" opacity="0.078" /><circle cx="1513" cy="519" r="121" fill="#FFFFFF" opacity="0.088" /><circle cx="2242" cy="1665" r="48" fill="#FFFFFF" opacity="0.216" /></g>
  <g><path d="M 183.3 660.3 L 2922.5 383.8 L 2922.5 839.1 L 183.3 1115.5 Z" fill="#FFFFFF" opacity="0.230" /><path d="M 200.4 899.7 L 2715.7 623.2 L 2715.7 1045.5 L 200.4 1322.0 Z" fill="#FFFFFF" opacity="0.148" /><path d="M 299.0 1091.9 L 2771.8 815.5 L 2771.8 1265.5 L 299.0 1542.0 Z" fill="#FFFFFF" opacity="0.156" /><path d="M 364.3 1370.7 L 2920.9 1094.2 L 2920.9 1560.6 L 364.3 1837.1 Z" fill="#FFFFFF" opacity="0.200" /><path d="M 342.6 1671.1 L 2833.3 1394.6 L 2833.3 1875.1 L 342.6 2151.6 Z" fill="#FFFFFF" opacity="0.136" /><path d="M 215.4 1944.1 L 2877.9 1667.6 L 2877.9 2121.2 L 215.4 2397.7 Z" fill="#FFFFFF" opacity="0.098" /><path d="M 302.7 2162.3 L 2849.5 1885.8 L 2849.5 2308.9 L 302.7 2585.4 Z" fill="#FFFFFF" opacity="0.129" /><path d="M 374.1 2404.1 L 2712.6 2127.6 L 2712.6 2605.4 L 374.1 2881.9 Z" fill="#FFFFFF" opacity="0.173" /></g>
  <g filter="url(#soft221)"><g transform="rotate(-12.41 1536.0 1536.0)"><path d="M-368.6 472.6 C -225.8 428.5, -25.8 532.0, 107.5 421.7 C 250.4 437.9, 450.4 510.5, 583.7 452.6 C 726.5 457.5, 926.5 486.5, 1059.8 495.6 C 1202.7 496.3, 1402.7 447.7, 1536.0 524.7 C 1678.8 521.8, 1878.8 455.4, 2012.2 522.2 C 2155.0 523.7, 2355.0 428.5, 2488.3 489.6 C 2631.2 495.6, 2831.2 465.4, 2964.5 446.7 C 3107.3 452.3, 3307.3 487.8, 3440.6 419.5" fill="none" stroke="url(#ribbon221)" stroke-width="58.4" stroke-linecap="round" stroke-opacity="0.120" /></g><g transform="rotate(-11.83 1536.0 1536.0)"><path d="M-368.6 731.9 C -241.7 780.9, -63.9 701.4, 54.6 776.5 C 181.6 759.4, 359.4 679.8, 477.9 731.7 C 604.8 731.6, 782.6 732.1, 901.1 687.0 C 1028.1 692.3, 1205.9 774.6, 1324.4 669.5 C 1451.3 683.4, 1629.1 750.9, 1747.6 689.9 C 1874.6 685.0, 2052.4 778.6, 2170.9 735.7 C 2297.9 736.7, 2475.6 727.5, 2594.1 779.2 C 2721.1 780.9, 2898.9 704.2, 3017.4 794.0 C 3144.4 811.9, 3322.1 679.8, 3440.6 771.1" fill="none" stroke="url(#ribbon221)" stroke-width="54.4" stroke-linecap="round" stroke-opacity="0.146" /></g><g transform="rotate(-11.25 1536.0 1536.0)"><path d="M-368.6 963.4 C -254.4 1057.7, -94.4 913.4, 12.3 1008.5 C 126.6 1012.4, 286.6 925.6, 393.2 957.0 C 507.5 954.7, 667.5 970.5, 774.1 909.3 C 888.4 912.9, 1048.4 1006.7, 1155.1 894.5 C 1269.4 895.3, 1429.3 1033.4, 1536.0 921.5 C 1650.3 908.8, 1810.3 983.5, 1916.9 973.9 C 2031.2 977.3, 2191.2 954.2, 2297.9 1019.9 C 2412.1 1041.6, 2572.1 907.0, 2678.8 1031.7 C 2793.1 1008.5, 2953.1 929.2, 3059.7 1002.1 C 3174.0 1007.8, 3334.0 937.0, 3440.6 949.0" fill="none" stroke="url(#ribbon221)" stroke-width="50.4" stroke-linecap="round" stroke-opacity="0.172" /></g><g transform="rotate(-10.67 1536.0 1536.0)"><path d="M-368.6 1048.5 C -264.8 985.7, -119.3 1117.7, -22.3 973.4 C 81.5 957.9, 227.0 1102.9, 324.0 1006.7 C 427.8 991.5, 573.3 1069.7, 670.3 1065.3 C 774.1 1070.9, 919.6 1029.1, 1016.6 1113.8 C 1120.4 1138.3, 1265.9 986.2, 1362.9 1122.6 C 1466.7 1098.2, 1612.2 965.2, 1709.1 1086.5 C 1813.0 1083.1, 1958.5 1021.8, 2055.4 1027.4 C 2159.3 1026.3, 2304.8 1067.0, 2401.7 981.1 C 2505.6 997.2, 2651.1 1076.5, 2748.0 975.7 C 2851.9 988.9, 2997.4 1113.1, 3094.3 1014.5 C 3198.2 1022.8, 3343.7 1070.5, 3440.6 1073.9" fill="none" stroke="url(#ribbon221)" stroke-width="46.4" stroke-linecap="round" stroke-opacity="0.198" /></g><g transform="rotate(-10.09 1536.0 1536.0)"><path d="M-368.6 1249.5 C -273.4 1216.4, -140.1 1282.9, -51.2 1166.7 C 44.0 1172.9, 177.4 1300.6, 266.2 1183.4 C 361.5 1189.4, 494.8 1310.4, 583.7 1240.2 C 678.9 1242.5, 812.2 1252.8, 901.1 1302.6 C 996.4 1300.8, 1129.7 1222.7, 1218.6 1332.7 C 1313.8 1349.7, 1447.1 1152.3, 1536.0 1312.4 C 1631.2 1320.2, 1764.6 1198.1, 1853.4 1253.9 C 1948.7 1253.9, 2082.0 1244.5, 2170.9 1192.7 C 2266.1 1195.6, 2399.4 1294.7, 2488.3 1165.9 C 2583.6 1193.4, 2716.9 1288.2, 2805.8 1189.9 C 2901.0 1176.6, 3034.3 1282.6, 3123.2 1249.9 C 3218.4 1249.9, 3351.8 1249.0, 3440.6 1309.7" fill="none" stroke="url(#ribbon221)" stroke-width="42.4" stroke-linecap="round" stroke-opacity="0.224" /></g><g transform="rotate(-9.51 1536.0 1536.0)"><path d="M-368.6 1479.5 C -225.8 1538.9, -25.8 1393.0, 107.5 1559.0 C 250.4 1566.5, 450.4 1386.7, 583.7 1503.7 C 726.5 1510.9, 926.5 1465.7, 1059.8 1433.7 C 1202.7 1430.9, 1402.7 1514.9, 1536.0 1391.5 C 1678.8 1363.7, 1878.8 1561.6, 2012.2 1402.7 C 2155.0 1393.1, 2355.0 1555.4, 2488.3 1460.5 C 2631.2 1457.4, 2831.2 1490.8, 2964.5 1529.8 C 3107.3 1548.6, 3307.3 1445.0, 3440.6 1568.7" fill="none" stroke="url(#ribbon221)" stroke-width="38.4" stroke-linecap="round" stroke-opacity="0.250" /></g><g transform="rotate(-8.93 1536.0 1536.0)"><path d="M-368.6 1679.4 C -241.7 1691.3, -63.9 1669.8, 54.6 1760.3 C 181.6 1785.5, 359.4 1651.0, 477.9 1775.0 C 604.8 1746.9, 782.6 1584.9, 901.1 1731.8 C 1028.1 1725.7, 1205.9 1631.4, 1324.4 1656.8 C 1451.3 1653.7, 1629.1 1694.1, 1747.6 1595.5 C 1874.6 1615.8, 2052.4 1718.9, 2170.9 1585.0 C 2297.9 1597.6, 2475.6 1789.4, 2594.1 1631.9 C 2721.1 1640.6, 2898.9 1694.4, 3017.4 1707.5 C 3144.4 1709.1, 3322.1 1666.5, 3440.6 1766.1" fill="none" stroke="url(#ribbon221)" stroke-width="34.4" stroke-linecap="round" stroke-opacity="0.276" /></g><g transform="rotate(-8.35 1536.0 1536.0)"><path d="M-368.6 1837.4 C -254.4 1914.8, -94.4 1807.5, 12.3 1938.0 C 126.6 1964.1, 286.6 1792.0, 393.2 1886.4 C 507.5 1889.5, 667.5 1802.5, 774.1 1805.1 C 888.4 1813.7, 1048.4 1853.2, 1155.1 1743.4 C 1269.4 1734.7, 1429.3 1936.9, 1536.0 1738.8 C 1650.3 1753.6, 1810.3 1888.2, 1916.9 1794.0 C 2031.2 1803.0, 2191.2 1866.8, 2297.9 1875.5 C 2412.1 1870.9, 2572.1 1821.1, 2678.8 1934.0 C 2793.1 1933.8, 2953.1 1745.0, 3059.7 1933.9 C 3174.0 1938.1, 3334.0 1783.0, 3440.6 1875.3" fill="none" stroke="url(#ribbon221)" stroke-width="30.4" stroke-linecap="round" stroke-opacity="0.302" /></g><g transform="rotate(-7.77 1536.0 1536.0)"><path d="M-368.6 2112.1 C -264.8 2013.8, -119.3 2139.6, -22.3 2000.4 C 81.5 2012.6, 227.0 2187.4, 324.0 2031.9 C 427.8 2011.9, 573.3 2148.7, 670.3 2112.1 C 774.1 2112.1, 919.6 2112.1, 1016.6 2192.3 C 1120.4 2165.2, 1265.9 2029.3, 1362.9 2223.9 C 1466.7 2250.4, 1612.2 2056.1, 1709.1 2187.7 C 1813.0 2202.6, 1958.5 2082.7, 2055.4 2105.6 C 2159.3 2107.5, 2304.8 2115.1, 2401.7 2027.5 C 2505.6 2015.0, 2651.1 2152.8, 2748.0 2000.7 C 2851.9 2033.4, 2997.4 2209.5, 3094.3 2041.5 C 3198.2 2043.2, 3343.7 2140.9, 3440.6 2125.1" fill="none" stroke="url(#ribbon221)" stroke-width="26.4" stroke-linecap="round" stroke-opacity="0.328" /></g><g transform="rotate(-7.19 1536.0 1536.0)"><path d="M-368.6 2234.6 C -273.4 2261.1, -140.1 2218.9, -51.2 2341.0 C 44.0 2350.1, 177.4 2189.0, 266.2 2346.8 C 361.5 2357.7, 494.8 2166.6, 583.7 2284.5 C 678.9 2303.0, 812.2 2201.2, 901.1 2192.0 C 996.4 2205.4, 1129.7 2269.1, 1218.6 2125.3 C 1313.8 2164.2, 1447.1 2306.4, 1536.0 2124.9 C 1631.2 2121.3, 1764.6 2365.6, 1853.4 2191.0 C 1948.7 2182.5, 2082.0 2280.1, 2170.9 2283.6 C 2266.1 2288.2, 2399.4 2217.0, 2488.3 2346.4 C 2583.6 2317.9, 2716.9 2130.0, 2805.8 2341.4 C 2901.0 2339.6, 3034.3 2173.8, 3123.2 2271.6 C 3218.4 2262.4, 3351.8 2193.9, 3440.6 2179.3" fill="none" stroke="url(#ribbon221)" stroke-width="22.4" stroke-linecap="round" stroke-opacity="0.354" /></g><g transform="rotate(-6.61 1536.0 1536.0)"><path d="M-368.6 2503.5 C -225.8 2511.0, -25.8 2494.9, 107.5 2419.1 C 250.4 2393.0, 450.4 2540.1, 583.7 2377.6 C 726.5 2343.5, 926.5 2583.2, 1059.8 2412.5 C 1202.7 2400.8, 1402.7 2551.0, 1536.0 2502.5 C 1678.8 2502.8, 1878.8 2503.7, 2012.2 2593.2 C 2155.0 2611.6, 2355.0 2428.1, 2488.3 2629.4 C 2631.2 2640.1, 2831.2 2377.9, 2964.5 2589.2 C 3107.3 2555.2, 3307.3 2441.9, 3440.6 2497.0" fill="none" stroke="url(#ribbon221)" stroke-width="18.4" stroke-linecap="round" stroke-opacity="0.380" /></g><g transform="rotate(-6.03 1536.0 1536.0)"><path d="M-368.6 2601.8 C -241.7 2564.6, -63.9 2629.3, 54.6 2475.2 C 181.6 2448.2, 359.4 2655.0, 477.9 2484.4 C 604.8 2450.6, 782.6 2737.4, 901.1 2564.9 C 1028.1 2572.2, 1205.9 2626.6, 1324.4 2667.7 C 1451.3 2646.7, 1629.1 2580.8, 1747.6 2730.6 C 1874.6 2730.9, 2052.4 2545.9, 2170.9 2715.4 C 2297.9 2748.3, 2475.6 2469.1, 2594.1 2631.3 C 2721.1 2628.9, 2898.9 2587.5, 3017.4 2529.3 C 3144.4 2542.7, 3322.1 2673.1, 3440.6 2471.3" fill="none" stroke="url(#ribbon221)" stroke-width="14.4" stroke-linecap="round" stroke-opacity="0.406" /></g></g>
  <g><ellipse cx="1536.0" cy="1551.9" rx="728.6" ry="605.7" fill="url(#extrude221)" opacity="0.220" /><ellipse cx="1536.0" cy="1567.7" rx="736.0" ry="610.9" fill="url(#extrude221)" opacity="0.205" /><ellipse cx="1536.0" cy="1583.6" rx="743.4" ry="616.1" fill="url(#extrude221)" opacity="0.190" /><ellipse cx="1536.0" cy="1599.5" rx="750.9" ry="621.3" fill="url(#extrude221)" opacity="0.175" /><ellipse cx="1536.0" cy="1615.4" rx="758.3" ry="626.5" fill="url(#extrude221)" opacity="0.160" /><ellipse cx="1536.0" cy="1631.2" rx="765.7" ry="631.7" fill="url(#extrude221)" opacity="0.145" /><ellipse cx="1536.0" cy="1647.1" rx="773.2" ry="636.9" fill="url(#extrude221)" opacity="0.130" /><ellipse cx="1536.0" cy="1663.0" rx="780.6" ry="642.1" fill="url(#extrude221)" opacity="0.115" /><ellipse cx="1536.0" cy="1678.8" rx="788.0" ry="647.4" fill="url(#extrude221)" opacity="0.100" /><ellipse cx="1536.0" cy="1694.7" rx="795.5" ry="652.6" fill="url(#extrude221)" opacity="0.085" /><ellipse cx="1536.0" cy="1710.6" rx="802.9" ry="657.8" fill="url(#extrude221)" opacity="0.070" /><ellipse cx="1536.0" cy="1726.5" rx="810.3" ry="663.0" fill="url(#extrude221)" opacity="0.055" /></g>
  <ellipse cx="1536.0" cy="1726.5" rx="773.2" ry="214.9" fill="#0B1D2D" opacity="0.24" />
  <ellipse cx="1536.0" cy="1536.0" rx="743.4" ry="651.3" fill="url(#orb221)" stroke="#FFFFFF" stroke-opacity="0.42" stroke-width="7" />
  <ellipse cx="1431.9" cy="1392.7" rx="505.5" ry="299.6" fill="#FFFFFF" opacity="0.25" />
  <path d="M 199.4 399.4 C 1013.8 -30.7, 2058.2 768.0, 2872.6 215.0 L 2872.6 983.0 C 2089.0 1228.8, 1013.8 307.2, 199.4 1167.4 Z" fill="url(#glass221)" />
  <rect x="270" y="270" width="2532" height="2532" rx="430" fill="none" stroke="#FFFFFF" stroke-opacity="0.30" stroke-width="5" />
  <rect x="288.4" y="288.4" width="2495.1" height="2495.1" rx="399" fill="none" stroke="#FF9F43" stroke-opacity="0.35" stroke-width="3" />
  <g filter="url(#soft221)"><rect x="344" y="1861" width="32" height="2" fill="#FFFFFF" opacity="0.750" /><rect x="359" y="1846" width="2" height="32" fill="#FFFFFF" opacity="0.750" /><rect x="1735" y="2045" width="50" height="2" fill="#FFFFFF" opacity="0.468" /><rect x="1759" y="2021" width="2" height="50" fill="#FFFFFF" opacity="0.468" /><rect x="847" y="1024" width="36" height="2" fill="#FFFFFF" opacity="0.442" /><rect x="864" y="1007" width="2" height="36" fill="#FFFFFF" opacity="0.442" /><rect x="1096" y="1345" width="64" height="2" fill="#FFFFFF" opacity="0.521" /><rect x="1127" y="1314" width="2" height="64" fill="#FFFFFF" opacity="0.521" /><rect x="2624" y="2257" width="78" height="2" fill="#FFFFFF" opacity="0.683" /><rect x="2662" y="2219" width="2" height="78" fill="#FFFFFF" opacity="0.683" /><rect x="1375" y="1767" width="82" height="2" fill="#FFFFFF" opacity="0.836" /><rect x="1415" y="1727" width="2" height="82" fill="#FFFFFF" opacity="0.836" /><rect x="2111" y="477" width="42" height="2" fill="#FFFFFF" opacity="0.421" /><rect x="2131" y="457" width="2" height="42" fill="#FFFFFF" opacity="0.421" /><rect x="1064" y="1422" width="30" height="2" fill="#FFFFFF" opacity="0.482" /><rect x="1078" y="1408" width="2" height="30" fill="#FFFFFF" opacity="0.482" /><rect x="874" y="753" width="82" height="2" fill="#FFFFFF" opacity="0.543" /><rect x="914" y="713" width="2" height="82" fill="#FFFFFF" opacity="0.543" /><rect x="2283" y="2508" width="46" height="2" fill="#FFFFFF" opacity="0.378" /><rect x="2305" y="2486" width="2" height="46" fill="#FFFFFF" opacity="0.378" /><rect x="655" y="704" width="78" height="2" fill="#FFFFFF" opacity="0.379" /><rect x="693" y="666" width="2" height="78" fill="#FFFFFF" opacity="0.379" /><rect x="2066" y="1021" width="52" height="2" fill="#FFFFFF" opacity="0.442" /><rect x="2091" y="996" width="2" height="52" fill="#FFFFFF" opacity="0.442" /><rect x="1862" y="1382" width="72" height="2" fill="#FFFFFF" opacity="0.706" /><rect x="1897" y="1347" width="2" height="72" fill="#FFFFFF" opacity="0.706" /><rect x="2325" y="2447" width="66" height="2" fill="#FFFFFF" opacity="0.478" /><rect x="2357" y="2415" width="2" height="66" fill="#FFFFFF" opacity="0.478" /><rect x="1280" y="1318" width="44" height="2" fill="#FFFFFF" opacity="0.604" /><rect x="1301" y="1297" width="2" height="44" fill="#FFFFFF" opacity="0.604" /><rect x="1307" y="450" width="62" height="2" fill="#FFFFFF" opacity="0.413" /><rect x="1337" y="420" width="2" height="62" fill="#FFFFFF" opacity="0.413" /><rect x="1099" y="1421" width="52" height="2" fill="#FFFFFF" opacity="0.798" /><rect x="1124" y="1396" width="2" height="52" fill="#FFFFFF" opacity="0.798" /><rect x="1465" y="1700" width="56" height="2" fill="#FFFFFF" opacity="0.437" /><rect x="1492" y="1673" width="2" height="56" fill="#FFFFFF" opacity="0.437" /><rect x="1883" y="604" width="66" height="2" fill="#FFFFFF" opacity="0.309" /><rect x="1915" y="572" width="2" height="66" fill="#FFFFFF" opacity="0.309" /><rect x="1186" y="1093" width="48" height="2" fill="#FFFFFF" opacity="0.475" /><rect x="1209" y="1070" width="2" height="48" fill="#FFFFFF" opacity="0.475" /><rect x="1849" y="2253" width="66" height="2" fill="#FFFFFF" opacity="0.693" /><rect x="1881" y="2221" width="2" height="66" fill="#FFFFFF" opacity="0.693" /><rect x="503" y="596" width="30" height="2" fill="#FFFFFF" opacity="0.673" /><rect x="517" y="582" width="2" height="30" fill="#FFFFFF" opacity="0.673" /><rect x="2653" y="1348" width="66" height="2" fill="#FFFFFF" opacity="0.829" /><rect x="2685" y="1316" width="2" height="66" fill="#FFFFFF" opacity="0.829" /><rect x="620" y="1159" width="74" height="2" fill="#FFFFFF" opacity="0.670" /><rect x="656" y="1123" width="2" height="74" fill="#FFFFFF" opacity="0.670" /><rect x="1523" y="2594" width="24" height="2" fill="#FFFFFF" opacity="0.408" /><rect x="1534" y="2583" width="2" height="24" fill="#FFFFFF" opacity="0.408" /><rect x="2528" y="459" width="38" height="2" fill="#FFFFFF" opacity="0.418" /><rect x="2546" y="441" width="2" height="38" fill="#FFFFFF" opacity="0.418" /></g>
  <g opacity="0.52"><rect x="1023" y="1121" width="1152" height="1024" rx="153" fill="none" stroke="#0C2030" stroke-width="90" /><line x1="1023" y1="1326" x2="2148" y2="1326" stroke="#0C2030" stroke-width="90" /><line x1="1316" y1="1033" x2="1316" y2="1121" stroke="#0C2030" stroke-width="90" /><line x1="1828" y1="1033" x2="1828" y2="1121" stroke="#0C2030" stroke-width="90" /></g>
  <g filter="url(#soft221)"><rect x="987" y="1075" width="1152" height="1024" rx="153" fill="none" stroke="url(#symbol221)" stroke-width="90" /><line x1="987" y1="1280" x2="2112" y2="1280" stroke="url(#symbol221)" stroke-width="90" /><line x1="1280" y1="987" x2="1280" y2="1075" stroke="url(#symbol221)" stroke-width="90" /><line x1="1792" y1="987" x2="1792" y2="1075" stroke="url(#symbol221)" stroke-width="90" /></g>
  <rect x="138" y="138" width="2796" height="2796" rx="629" fill="#FFFFFF" filter="url(#grain221)" opacity="0.18" />
</svg>
