<svg xmlns="http://www.w3.org/2000/svg" width="3072" height="3072" viewBox="0 0 3072 3072">
  <title>QuartzOS App Icon 082 - nova_mail_082</title>
  <defs><linearGradient id="bg81" x1="0%" y1="0%" x2="100%" y2="100%"><stop offset="0%" stop-color="#FF9F43" /><stop offset="26%" stop-color="#53E3A6" /><stop offset="56%" stop-color="#3B82FF" /><stop offset="78%" stop-color="#4F79A7" /><stop offset="100%" stop-color="#1B2630" /></linearGradient><radialGradient id="sun81" cx="30%" cy="13%" r="88%"><stop offset="0%" stop-color="#FFFFFF" stop-opacity="0.62" /><stop offset="30%" stop-color="#8A5CFF" stop-opacity="0.35" /><stop offset="100%" stop-color="#8A5CFF" stop-opacity="0" /></radialGradient><linearGradient id="glass81" x1="0%" y1="0%" x2="0%" y2="100%"><stop offset="0%" stop-color="#FFFFFF" stop-opacity="0.70" /><stop offset="46%" stop-color="#FFFFFF" stop-opacity="0.26" /><stop offset="100%" stop-color="#FFFFFF" stop-opacity="0.00" /></linearGradient><linearGradient id="ribbon81" x1="0%" y1="0%" x2="100%" y2="0%"><stop offset="0%" stop-color="#FF9F43" stop-opacity="0.18" /><stop offset="34%" stop-color="#53E3A6" stop-opacity="0.72" /><stop offset="66%" stop-color="#3B82FF" stop-opacity="0.72" /><stop offset="100%" stop-color="#8A5CFF" stop-opacity="0.18" /></linearGradient><radialGradient id="orb81" cx="34%" cy="27%" r="74%"><stop offset="0%" stop-color="#FFFFFF" stop-opacity="0.84" /><stop offset="30%" stop-color="#FF9F43" stop-opacity="0.52" /><stop offset="68%" stop-color="#53E3A6" stop-opacity="0.42" /><stop offset="100%" stop-color="#3B82FF" stop-opacity="0.20" /></radialGradient><linearGradient id="extrude81" x1="0%" y1="0%" x2="0%" y2="100%"><stop offset="0%" stop-color="#15283C" stop-opacity="0.45" /><stop offset="100%" stop-color="#08131D" stop-opacity="0.06" /></linearGradient><linearGradient id="symbol81" x1="0%" y1="0%" x2="100%" y2="100%"><stop offset="0%" stop-color="#FFFFFF" /><stop offset="100%" stop-color="#8A5CFF" /></linearGradient><filter id="shadow81" x="-40%" y="-40%" width="180%" height="180%"><feDropShadow dx="0" dy="49" stdDeviation="86" flood-color="#06111A" flood-opacity="0.54" /></filter><filter id="soft81" x="-40%" y="-40%" width="180%" height="180%"><feDropShadow dx="0" dy="0" stdDeviation="14" flood-color="#FF9F43" flood-opacity="0.45" /></filter><filter id="grain81"><feTurbulence type="fractalNoise" baseFrequency="0.818" numOctaves="2" seed="81" /><feColorMatrix type="saturate" values="0" /><feComponentTransfer><feFuncA type="table" tableValues="0 0.09" /></feComponentTransfer></filter></defs>
  <rect x="138" y="138" width="2796" height="2796" rx="629" fill="url(#bg81)" filter="url(#shadow81)" />
  <rect x="138" y="138" width="2796" height="2796" rx="629" fill="url(#sun81)" />
  <g><circle cx="642" cy="686" r="64" fill="#FFFFFF" opacity="0.212" /><circle cx="1154" cy="2193" r="90" fill="#FFFFFF" opacity="0.132" /><circle cx="1226" cy="1366" r="125" fill="#FFFFFF" opacity="0.179" /><circle cx="1409" cy="697" r="123" fill="#FFFFFF" opacity="0.219" /><circle cx="1974" cy="498" r="70" fill="#FFFFFF" opacity="0.095" /><circle cx="792" cy="2156" r="47" fill="#FFFFFF" opacity="0.089" /><circle cx="1238" cy="427" r="51" fill="#FFFFFF" opacity="0.219" /><circle cx="2612" cy="2226" r="91" fill="#FFFFFF" opacity="0.197" /><circle cx="2126" cy="2193" r="39" fill="#FFFFFF" opacity="0.156" /><circle cx="773" cy="1605" r="49" fill="#FFFFFF" opacity="0.118" /><circle cx="1291" cy="2093" r="108" fill="#FFFFFF" opacity="0.185" /><circle cx="1029" cy="2069" r="77" fill="#FFFFFF" opacity="0.063" /><circle cx="1793" cy="366" r="86" fill="#FFFFFF" opacity="0.171" /><circle cx="944" cy="2661" r="117" fill="#FFFFFF" opacity="0.154" /><circle cx="1011" cy="454" r="44" fill="#FFFFFF" opacity="0.200" /><circle cx="927" cy="816" r="156" fill="#FFFFFF" opacity="0.168" /><circle cx="2632" cy="1217" r="142" fill="#FFFFFF" opacity="0.231" /><circle cx="2001" cy="825" r="95" fill="#FFFFFF" opacity="0.092" /><circle cx="1349" cy="1282" r="87" fill="#FFFFFF" opacity="0.214" /><circle cx="1950" cy="893" r="88" fill="#FFFFFF" opacity="0.065" /><circle cx="983" cy="1142" r="47" fill="#FFFFFF" opacity="0.125" /><circle cx="1552" cy="1895" r="117" fill="#FFFFFF" opacity="0.064" /><circle cx="640" cy="616" r="56" fill="#FFFFFF" opacity="0.105" /><circle cx="2186" cy="1921" r="39" fill="#FFFFFF" opacity="0.225" /><circle cx="2613" cy="1254" r="147" fill="#FFFFFF" opacity="0.161" /><circle cx="1848" cy="549" r="97" fill="#FFFFFF" opacity="0.188" /><circle cx="2338" cy="1689" r="81" fill="#FFFFFF" opacity="0.142" /><circle cx="1228" cy="866" r="62" fill="#FFFFFF" opacity="0.164" /></g>
  <g><path d="M 151.4 649.5 L 2693.1 373.0 L 2693.1 847.3 L 151.4 1123.8 Z" fill="#FFFFFF" opacity="0.135" /><path d="M 212.0 897.1 L 2764.2 620.6 L 2764.2 1085.2 L 212.0 1361.7 Z" fill="#FFFFFF" opacity="0.106" /><path d="M 316.1 1127.6 L 2735.9 851.1 L 2735.9 1317.7 L 316.1 1594.2 Z" fill="#FFFFFF" opacity="0.132" /><path d="M 270.2 1403.0 L 2877.6 1126.5 L 2877.6 1545.4 L 270.2 1821.9 Z" fill="#FFFFFF" opacity="0.235" /><path d="M 208.5 1661.1 L 2694.2 1384.7 L 2694.2 1807.5 L 208.5 2084.0 Z" fill="#FFFFFF" opacity="0.103" /><path d="M 340.4 1912.8 L 2790.0 1636.3 L 2790.0 2087.8 L 340.4 2364.2 Z" fill="#FFFFFF" opacity="0.162" /><path d="M 199.3 2172.7 L 2746.4 1896.2 L 2746.4 2355.1 L 199.3 2631.6 Z" fill="#FFFFFF" opacity="0.206" /><path d="M 386.9 2403.6 L 2896.4 2127.2 L 2896.4 2592.9 L 386.9 2869.4 Z" fill="#FFFFFF" opacity="0.173" /></g>
  <g filter="url(#soft81)"><g transform="rotate(-14.96 1536.0 1536.0)"><path d="M-368.6 471.0 C -225.8 467.4, -25.8 475.2, 107.5 506.9 C 250.4 513.0, 450.4 458.6, 583.7 526.2 C 726.5 515.9, 926.5 407.8, 1059.8 512.0 C 1202.7 499.1, 1402.7 430.9, 1536.0 472.9 C 1678.8 473.6, 1878.8 469.1, 2012.2 432.7 C 2155.0 433.2, 2355.0 483.5, 2488.3 415.7 C 2631.2 404.0, 2831.2 531.4, 2964.5 432.2 C 3107.3 443.9, 3307.3 490.5, 3440.6 472.3" fill="none" stroke="url(#ribbon81)" stroke-width="58.4" stroke-linecap="round" stroke-opacity="0.120" /></g><g transform="rotate(-14.38 1536.0 1536.0)"><path d="M-368.6 707.4 C -241.7 752.1, -63.9 679.5, 54.6 755.3 C 181.6 750.5, 359.4 657.2, 477.9 712.2 C 604.8 713.5, 782.6 704.1, 901.1 666.1 C 1028.1 681.0, 1205.9 736.0, 1324.4 645.1 C 1451.3 641.8, 1629.1 768.0, 1747.6 661.9 C 1874.6 673.0, 2052.4 744.0, 2170.9 706.3 C 2297.9 706.0, 2475.6 708.1, 2594.1 751.3 C 2721.1 739.9, 2898.9 689.1, 3017.4 769.8 C 3144.4 791.9, 3322.1 641.9, 3440.6 750.4" fill="none" stroke="url(#ribbon81)" stroke-width="54.4" stroke-linecap="round" stroke-opacity="0.146" /></g><g transform="rotate(-13.80 1536.0 1536.0)"><path d="M-368.6 931.4 C -254.4 987.1, -94.4 888.6, 12.3 992.5 C 126.6 982.7, 286.6 885.3, 393.2 950.4 C 507.5 948.7, 667.5 922.2, 774.1 896.7 C 888.4 890.3, 1048.4 963.2, 1155.1 864.1 C 1269.4 843.7, 1429.3 978.1, 1536.0 872.3 C 1650.3 866.0, 1810.3 977.1, 1916.9 916.3 C 2031.2 916.4, 2191.2 937.2, 2297.9 969.5 C 2412.1 966.1, 2572.1 902.1, 2678.8 999.6 C 2793.1 999.7, 2953.1 856.5, 3059.7 988.3 C 3174.0 979.9, 3334.0 884.0, 3440.6 942.5" fill="none" stroke="url(#ribbon81)" stroke-width="50.4" stroke-linecap="round" stroke-opacity="0.172" /></g><g transform="rotate(-13.22 1536.0 1536.0)"><path d="M-368.6 1041.4 C -264.8 992.1, -119.3 1121.7, -22.3 983.7 C 81.5 989.9, 227.0 1110.3, 324.0 1037.2 C 427.8 1038.3, 573.3 1044.7, 670.3 1093.3 C 774.1 1094.1, 919.6 990.4, 1016.6 1117.9 C 1120.4 1106.9, 1265.9 963.7, 1362.9 1096.1 C 1466.7 1114.1, 1612.2 981.9, 1709.1 1041.2 C 1813.0 1041.3, 1958.5 1041.7, 2055.4 986.4 C 2159.3 994.5, 2304.8 1075.3, 2401.7 965.0 C 2505.6 978.8, 2651.1 1083.5, 2748.0 990.0 C 2851.9 973.5, 2997.4 1074.4, 3094.3 1046.1 C 3198.2 1047.7, 3343.7 1038.5, 3440.6 1099.5" fill="none" stroke="url(#ribbon81)" stroke-width="46.4" stroke-linecap="round" stroke-opacity="0.198" /></g><g transform="rotate(-12.64 1536.0 1536.0)"><path d="M-368.6 1252.6 C -273.4 1334.6, -140.1 1160.8, -51.2 1312.1 C 44.0 1313.7, 177.4 1197.8, 266.2 1251.9 C 361.5 1251.8, 494.8 1252.9, 583.7 1192.2 C 678.9 1208.2, 812.2 1300.9, 901.1 1169.1 C 996.4 1174.0, 1129.7 1298.9, 1218.6 1196.7 C 1313.8 1189.9, 1447.1 1311.1, 1536.0 1258.2 C 1631.2 1256.4, 1764.6 1247.4, 1853.4 1316.3 C 1948.7 1338.3, 2082.0 1212.6, 2170.9 1335.8 C 2266.1 1342.7, 2399.4 1167.1, 2488.3 1304.8 C 2583.6 1324.6, 2716.9 1194.6, 2805.8 1242.2 C 2901.0 1241.4, 3034.3 1261.2, 3123.2 1185.9 C 3218.4 1192.1, 3351.8 1283.0, 3440.6 1170.0" fill="none" stroke="url(#ribbon81)" stroke-width="42.4" stroke-linecap="round" stroke-opacity="0.224" /></g><g transform="rotate(-12.06 1536.0 1536.0)"><path d="M-368.6 1440.0 C -225.8 1469.4, -25.8 1424.6, 107.5 1401.0 C 250.4 1390.8, 450.4 1454.8, 583.7 1354.1 C 726.5 1321.6, 926.5 1476.7, 1059.8 1359.3 C 1202.7 1343.2, 1402.7 1468.2, 1536.0 1413.5 C 1678.8 1413.8, 1878.8 1450.9, 2012.2 1483.7 C 2155.0 1475.9, 2355.0 1402.7, 2488.3 1527.4 C 2631.2 1550.0, 2831.2 1402.5, 2964.5 1518.1 C 3107.3 1545.6, 3307.3 1347.7, 3440.6 1461.4" fill="none" stroke="url(#ribbon81)" stroke-width="38.4" stroke-linecap="round" stroke-opacity="0.250" /></g><g transform="rotate(-11.48 1536.0 1536.0)"><path d="M-368.6 1705.5 C -241.7 1620.7, -63.9 1732.2, 54.6 1681.9 C 181.6 1673.7, 359.4 1726.1, 477.9 1757.1 C 604.8 1770.9, 782.6 1648.2, 901.1 1801.0 C 1028.1 1765.8, 1205.9 1605.3, 1324.4 1787.0 C 1451.3 1818.3, 1629.1 1648.2, 1747.6 1723.6 C 1874.6 1723.2, 2052.4 1694.6, 2170.9 1649.2 C 2297.9 1659.1, 2475.6 1725.2, 2594.1 1609.0 C 2721.1 1595.6, 2898.9 1759.5, 3017.4 1627.4 C 3144.4 1627.9, 3322.1 1760.5, 3440.6 1693.1" fill="none" stroke="url(#ribbon81)" stroke-width="34.4" stroke-linecap="round" stroke-opacity="0.276" /></g><g transform="rotate(-10.90 1536.0 1536.0)"><path d="M-368.6 1830.4 C -254.4 1750.0, -94.4 1930.2, 12.3 1754.6 C 126.6 1760.3, 286.6 1864.6, 393.2 1829.4 C 507.5 1829.7, 667.5 1831.0, 774.1 1904.8 C 888.4 1903.7, 1048.4 1781.8, 1155.1 1935.1 C 1269.4 1946.8, 1429.3 1790.9, 1536.0 1901.9 C 1650.3 1899.0, 1810.3 1794.5, 1916.9 1825.2 C 2031.2 1824.8, 2191.2 1832.1, 2297.9 1751.7 C 2412.1 1748.9, 2572.1 1855.2, 2678.8 1725.9 C 2793.1 1749.9, 2953.1 1891.3, 3059.7 1763.5 C 3174.0 1780.6, 3334.0 1895.7, 3440.6 1841.6" fill="none" stroke="url(#ribbon81)" stroke-width="30.4" stroke-linecap="round" stroke-opacity="0.302" /></g><g transform="rotate(-10.32 1536.0 1536.0)"><path d="M-368.6 2101.1 C -264.8 2073.2, -119.3 2126.8, -22.3 2152.5 C 81.5 2144.9, 227.0 2082.9, 324.0 2208.1 C 427.8 2245.1, 573.3 2051.1, 670.3 2198.8 C 774.1 2215.7, 919.6 2031.2, 1016.6 2130.2 C 1120.4 2141.5, 1265.9 2079.9, 1362.9 2043.9 C 1466.7 2032.7, 1612.2 2127.4, 1709.1 1992.3 C 1813.0 1959.3, 1958.5 2182.5, 2055.4 2006.7 C 2159.3 2012.0, 2304.8 2175.4, 2401.7 2078.3 C 2505.6 2079.7, 2651.1 2110.9, 2748.0 2163.7 C 2851.9 2186.2, 2997.4 2035.0, 3094.3 2211.2 C 3198.2 2253.5, 3343.7 2026.9, 3440.6 2191.8" fill="none" stroke="url(#ribbon81)" stroke-width="26.4" stroke-linecap="round" stroke-opacity="0.328" /></g><g transform="rotate(-9.74 1536.0 1536.0)"><path d="M-368.6 2237.4 C -273.4 2161.9, -140.1 2315.9, -51.2 2144.0 C 44.0 2119.9, 177.4 2338.3, 266.2 2225.1 C 361.5 2220.4, 494.8 2245.9, 583.7 2313.7 C 678.9 2312.7, 812.2 2185.4, 901.1 2356.0 C 996.4 2316.2, 1129.7 2186.6, 1218.6 2326.3 C 1313.8 2296.0, 1447.1 2172.2, 1536.0 2242.8 C 1631.2 2242.6, 1764.6 2232.6, 1853.4 2155.9 C 1948.7 2127.4, 2082.0 2298.1, 2170.9 2118.5 C 2266.1 2143.4, 2399.4 2294.7, 2488.3 2153.2 C 2583.6 2177.4, 2716.9 2283.4, 2805.8 2239.0 C 2901.0 2239.6, 3034.3 2236.2, 3123.2 2323.8 C 3218.4 2338.3, 3351.8 2196.7, 3440.6 2356.2" fill="none" stroke="url(#ribbon81)" stroke-width="22.4" stroke-linecap="round" stroke-opacity="0.354" /></g><g transform="rotate(-9.16 1536.0 1536.0)"><path d="M-368.6 2480.7 C -225.8 2619.4, -25.8 2384.7, 107.5 2590.8 C 250.4 2573.7, 450.4 2444.8, 583.7 2513.6 C 726.5 2501.4, 926.5 2459.9, 1059.8 2416.4 C 1202.7 2442.0, 1402.7 2508.7, 1536.0 2358.2 C 1678.8 2344.3, 1878.8 2622.9, 2012.2 2374.3 C 2155.0 2371.2, 2355.0 2547.8, 2488.3 2454.9 C 2631.2 2446.4, 2831.2 2489.5, 2964.5 2551.2 C 3107.3 2533.9, 3307.3 2404.2, 3440.6 2604.7" fill="none" stroke="url(#ribbon81)" stroke-width="18.4" stroke-linecap="round" stroke-opacity="0.380" /></g><g transform="rotate(-8.58 1536.0 1536.0)"><path d="M-368.6 2689.8 C -241.7 2751.5, -63.9 2634.4, 54.6 2645.2 C 181.6 2654.7, 359.4 2712.7, 477.9 2568.8 C 604.8 2538.7, 782.6 2754.1, 901.1 2565.8 C 1028.1 2608.5, 1205.9 2776.7, 1324.4 2638.0 C 1451.3 2643.6, 1629.1 2717.2, 1747.6 2741.6 C 1874.6 2740.8, 2052.4 2668.0, 2170.9 2813.7 C 2297.9 2774.0, 2475.6 2617.1, 2594.1 2810.7 C 2721.1 2768.4, 2898.9 2586.1, 3017.4 2734.3 C 3144.4 2733.3, 3322.1 2640.8, 3440.6 2630.9" fill="none" stroke="url(#ribbon81)" stroke-width="14.4" stroke-linecap="round" stroke-opacity="0.406" /></g></g>
  <g><ellipse cx="1536.0" cy="1551.9" rx="728.6" ry="605.7" fill="url(#extrude81)" opacity="0.220" /><ellipse cx="1536.0" cy="1567.7" rx="736.0" ry="610.9" fill="url(#extrude81)" opacity="0.205" /><ellipse cx="1536.0" cy="1583.6" rx="743.4" ry="616.1" fill="url(#extrude81)" opacity="0.190" /><ellipse cx="1536.0" cy="1599.5" rx="750.9" ry="621.3" fill="url(#extrude81)" opacity="0.175" /><ellipse cx="1536.0" cy="1615.4" rx="758.3" ry="626.5" fill="url(#extrude81)" opacity="0.160" /><ellipse cx="1536.0" cy="1631.2" rx="765.7" ry="631.7" fill="url(#extrude81)" opacity="0.145" /><ellipse cx="1536.0" cy="1647.1" rx="773.2" ry="636.9" fill="url(#extrude81)" opacity="0.130" /><ellipse cx="1536.0" cy="1663.0" rx="780.6" ry="642.1" fill="url(#extrude81)" opacity="0.115" /><ellipse cx="1536.0" cy="1678.8" rx="788.0" ry="647.4" fill="url(#extrude81)" opacity="0.100" /><ellipse cx="1536.0" cy="1694.7" rx="795.5" ry="652.6" fill="url(#extrude81)" opacity="0.085" /><ellipse cx="1536.0" cy="1710.6" rx="802.9" ry="657.8" fill="url(#extrude81)" opacity="0.070" /><ellipse cx="1536.0" cy="1726.5" rx="810.3" ry="663.0" fill="url(#extrude81)" opacity="0.055" /></g>
  <ellipse cx="1536.0" cy="1726.5" rx="773.2" ry="214.9" fill="#0B1D2D" opacity="0.24" />
  <ellipse cx="1536.0" cy="1536.0" rx="743.4" ry="651.3" fill="url(#orb81)" stroke="#FFFFFF" stroke-opacity="0.42" stroke-width="7" />
  <ellipse cx="1431.9" cy="1392.7" rx="505.5" ry="299.6" fill="#FFFFFF" opacity="0.25" />
  <path d="M 199.4 399.4 C 1013.8 -30.7, 2058.2 768.0, 2872.6 215.0 L 2872.6 983.0 C 2089.0 1228.8, 1013.8 307.2, 199.4 1167.4 Z" fill="url(#glass81)" />
  <rect x="270" y="270" width="2532" height="2532" rx="430" fill="none" stroke="#FFFFFF" stroke-opacity="0.30" stroke-width="5" />
  <rect x="288.4" y="288.4" width="2495.1" height="2495.1" rx="399" fill="none" stroke="#FF9F43" stroke-opacity="0.35" stroke-width="3" />
  <g filter="url(#soft81)"><rect x="340" y="1673" width="36" height="2" fill="#FFFFFF" opacity="0.330" /><rect x="357" y="1656" width="2" height="36" fill="#FFFFFF" opacity="0.330" /><rect x="1638" y="1650" width="52" height="2" fill="#FFFFFF" opacity="0.706" /><rect x="1663" y="1625" width="2" height="52" fill="#FFFFFF" opacity="0.706" /><rect x="2585" y="2311" width="56" height="2" fill="#FFFFFF" opacity="0.378" /><rect x="2612" y="2284" width="2" height="56" fill="#FFFFFF" opacity="0.378" /><rect x="764" y="442" width="56" height="2" fill="#FFFFFF" opacity="0.570" /><rect x="791" y="415" width="2" height="56" fill="#FFFFFF" opacity="0.570" /><rect x="1069" y="2047" width="80" height="2" fill="#FFFFFF" opacity="0.529" /><rect x="1108" y="2008" width="2" height="80" fill="#FFFFFF" opacity="0.529" /><rect x="529" y="2030" width="30" height="2" fill="#FFFFFF" opacity="0.606" /><rect x="543" y="2016" width="2" height="30" fill="#FFFFFF" opacity="0.606" /><rect x="1373" y="336" width="38" height="2" fill="#FFFFFF" opacity="0.406" /><rect x="1391" y="318" width="2" height="38" fill="#FFFFFF" opacity="0.406" /><rect x="1976" y="1536" width="58" height="2" fill="#FFFFFF" opacity="0.312" /><rect x="2004" y="1508" width="2" height="58" fill="#FFFFFF" opacity="0.312" /><rect x="318" y="884" width="72" height="2" fill="#FFFFFF" opacity="0.504" /><rect x="353" y="849" width="2" height="72" fill="#FFFFFF" opacity="0.504" /><rect x="955" y="810" width="78" height="2" fill="#FFFFFF" opacity="0.539" /><rect x="993" y="772" width="2" height="78" fill="#FFFFFF" opacity="0.539" /><rect x="1515" y="1683" width="70" height="2" fill="#FFFFFF" opacity="0.509" /><rect x="1549" y="1649" width="2" height="70" fill="#FFFFFF" opacity="0.509" /><rect x="910" y="1997" width="66" height="2" fill="#FFFFFF" opacity="0.509" /><rect x="942" y="1965" width="2" height="66" fill="#FFFFFF" opacity="0.509" /><rect x="1661" y="930" width="84" height="2" fill="#FFFFFF" opacity="0.802" /><rect x="1702" y="889" width="2" height="84" fill="#FFFFFF" opacity="0.802" /><rect x="1954" y="1895" width="76" height="2" fill="#FFFFFF" opacity="0.791" /><rect x="1991" y="1858" width="2" height="76" fill="#FFFFFF" opacity="0.791" /><rect x="1272" y="1232" width="50" height="2" fill="#FFFFFF" opacity="0.567" /><rect x="1296" y="1208" width="2" height="50" fill="#FFFFFF" opacity="0.567" /><rect x="1560" y="2214" width="62" height="2" fill="#FFFFFF" opacity="0.663" /><rect x="1590" y="2184" width="2" height="62" fill="#FFFFFF" opacity="0.663" /><rect x="1456" y="1990" width="24" height="2" fill="#FFFFFF" opacity="0.746" /><rect x="1467" y="1979" width="2" height="24" fill="#FFFFFF" opacity="0.746" /><rect x="1523" y="465" width="54" height="2" fill="#FFFFFF" opacity="0.329" /><rect x="1549" y="439" width="2" height="54" fill="#FFFFFF" opacity="0.329" /><rect x="2302" y="2653" width="48" height="2" fill="#FFFFFF" opacity="0.836" /><rect x="2325" y="2630" width="2" height="48" fill="#FFFFFF" opacity="0.836" /><rect x="1362" y="1799" width="48" height="2" fill="#FFFFFF" opacity="0.831" /><rect x="1385" y="1776" width="2" height="48" fill="#FFFFFF" opacity="0.831" /><rect x="2638" y="1718" width="72" height="2" fill="#FFFFFF" opacity="0.536" /><rect x="2673" y="1683" width="2" height="72" fill="#FFFFFF" opacity="0.536" /><rect x="621" y="1394" width="72" height="2" fill="#FFFFFF" opacity="0.553" /><rect x="656" y="1359" width="2" height="72" fill="#FFFFFF" opacity="0.553" /><rect x="1124" y="1558" width="72" height="2" fill="#FFFFFF" opacity="0.745" /><rect x="1159" y="1523" width="2" height="72" fill="#FFFFFF" opacity="0.745" /><rect x="2667" y="380" width="70" height="2" fill="#FFFFFF" opacity="0.428" /><rect x="2701" y="346" width="2" height="70" fill="#FFFFFF" opacity="0.428" /><rect x="1329" y="1440" width="60" height="2" fill="#FFFFFF" opacity="0.594" /><rect x="1358" y="1411" width="2" height="60" fill="#FFFFFF" opacity="0.594" /><rect x="2149" y="2404" width="46" height="2" fill="#FFFFFF" opacity="0.788" /><rect x="2171" y="2382" width="2" height="46" fill="#FFFFFF" opacity="0.788" /></g>
  <g opacity="0.52"><rect x="1060" y="1070" width="1024" height="1024" rx="153" fill="none" stroke="#0C2030" stroke-width="90" /><line x1="1316" y1="1326" x2="1828" y2="1838" stroke="#0C2030" stroke-width="90" stroke-linecap="round" /><line x1="1828" y1="1326" x2="1316" y2="1838" stroke="#0C2030" stroke-width="90" stroke-linecap="round" /></g>
  <g filter="url(#soft81)"><rect x="1024" y="1024" width="1024" height="1024" rx="153" fill="none" stroke="url(#symbol81)" stroke-width="90" /><line x1="1280" y1="1280" x2="1792" y2="1792" stroke="url(#symbol81)" stroke-width="90" stroke-linecap="round" /><line x1="1792" y1="1280" x2="1280" y2="1792" stroke="url(#symbol81)" stroke-width="90" stroke-linecap="round" /></g>
  <rect x="138" y="138" width="2796" height="2796" rx="629" fill="#FFFFFF" filter="url(#grain81)" opacity="0.18" />
</svg>
