<svg xmlns="http://www.w3.org/2000/svg" width="3072" height="3072" viewBox="0 0 3072 3072">
  <title>QuartzOS App Icon 142 - nova_viewer_142</title>
  <defs><linearGradient id="bg141" x1="0%" y1="0%" x2="100%" y2="100%"><stop offset="0%" stop-color="#3B82FF" /><stop offset="26%" stop-color="#FF6AB3" /><stop offset="56%" stop-color="#FFD84D" /><stop offset="78%" stop-color="#4F79A7" /><stop offset="100%" stop-color="#1B2630" /></linearGradient><radialGradient id="sun141" cx="27%" cy="36%" r="88%"><stop offset="0%" stop-color="#FFFFFF" stop-opacity="0.62" /><stop offset="30%" stop-color="#53E3A6" stop-opacity="0.35" /><stop offset="100%" stop-color="#53E3A6" stop-opacity="0" /></radialGradient><linearGradient id="glass141" x1="0%" y1="0%" x2="0%" y2="100%"><stop offset="0%" stop-color="#FFFFFF" stop-opacity="0.70" /><stop offset="46%" stop-color="#FFFFFF" stop-opacity="0.26" /><stop offset="100%" stop-color="#FFFFFF" stop-opacity="0.00" /></linearGradient><linearGradient id="ribbon141" x1="0%" y1="0%" x2="100%" y2="0%"><stop offset="0%" stop-color="#3B82FF" stop-opacity="0.18" /><stop offset="34%" stop-color="#FF6AB3" stop-opacity="0.72" /><stop offset="66%" stop-color="#FFD84D" stop-opacity="0.72" /><stop offset="100%" stop-color="#53E3A6" stop-opacity="0.18" /></linearGradient><radialGradient id="orb141" cx="34%" cy="27%" r="74%"><stop offset="0%" stop-color="#FFFFFF" stop-opacity="0.84" /><stop offset="30%" stop-color="#3B82FF" stop-opacity="0.52" /><stop offset="68%" stop-color="#FF6AB3" stop-opacity="0.42" /><stop offset="100%" stop-color="#FFD84D" stop-opacity="0.20" /></radialGradient><linearGradient id="extrude141" x1="0%" y1="0%" x2="0%" y2="100%"><stop offset="0%" stop-color="#15283C" stop-opacity="0.45" /><stop offset="100%" stop-color="#08131D" stop-opacity="0.06" /></linearGradient><linearGradient id="symbol141" x1="0%" y1="0%" x2="100%" y2="100%"><stop offset="0%" stop-color="#FFFFFF" /><stop offset="100%" stop-color="#53E3A6" /></linearGradient><filter id="shadow141" x="-40%" y="-40%" width="180%" height="180%"><feDropShadow dx="0" dy="49" stdDeviation="86" flood-color="#06111A" flood-opacity="0.54" /></filter><filter id="soft141" x="-40%" y="-40%" width="180%" height="180%"><feDropShadow dx="0" dy="0" stdDeviation="14" flood-color="#3B82FF" flood-opacity="0.45" /></filter><filter id="grain141"><feTurbulence type="fractalNoise" baseFrequency="0.704" numOctaves="2" seed="141" /><feColorMatrix type="saturate" values="0" /><feComponentTransfer><feFuncA type="table" tableValues="0 0.09" /></feComponentTransfer></filter></defs>
  <rect x="138" y="138" width="2796" height="2796" rx="629" fill="url(#bg141)" filter="url(#shadow141)" />
  <rect x="138" y="138" width="2796" height="2796" rx="629" fill="url(#sun141)" />
  <g><circle cx="1429" cy="772" r="115" fill="#FFFFFF" opacity="0.107" /><circle cx="1370" cy="830" r="48" fill="#FFFFFF" opacity="0.192" /><circle cx="605" cy="1761" r="85" fill="#FFFFFF" opacity="0.161" /><circle cx="1649" cy="1733" r="156" fill="#FFFFFF" opacity="0.085" /><circle cx="525" cy="1946" r="155" fill="#FFFFFF" opacity="0.159" /><circle cx="1007" cy="1841" r="105" fill="#FFFFFF" opacity="0.111" /><circle cx="1066" cy="969" r="36" fill="#FFFFFF" opacity="0.080" /><circle cx="459" cy="1277" r="73" fill="#FFFFFF" opacity="0.102" /><circle cx="1904" cy="1754" r="43" fill="#FFFFFF" opacity="0.206" /><circle cx="2236" cy="1963" r="156" fill="#FFFFFF" opacity="0.167" /><circle cx="865" cy="397" r="127" fill="#FFFFFF" opacity="0.102" /><circle cx="2079" cy="593" r="110" fill="#FFFFFF" opacity="0.132" /><circle cx="2333" cy="2573" r="124" fill="#FFFFFF" opacity="0.226" /><circle cx="929" cy="910" r="41" fill="#FFFFFF" opacity="0.156" /><circle cx="714" cy="1747" r="98" fill="#FFFFFF" opacity="0.214" /><circle cx="1017" cy="2185" r="96" fill="#FFFFFF" opacity="0.203" /><circle cx="1982" cy="676" r="50" fill="#FFFFFF" opacity="0.150" /><circle cx="2672" cy="2215" r="124" fill="#FFFFFF" opacity="0.141" /><circle cx="1593" cy="1895" r="95" fill="#FFFFFF" opacity="0.137" /><circle cx="1864" cy="472" r="61" fill="#FFFFFF" opacity="0.129" /><circle cx="488" cy="765" r="118" fill="#FFFFFF" opacity="0.145" /><circle cx="2484" cy="1403" r="158" fill="#FFFFFF" opacity="0.201" /><circle cx="809" cy="2622" r="157" fill="#FFFFFF" opacity="0.148" /><circle cx="1340" cy="1106" r="90" fill="#FFFFFF" opacity="0.142" /><circle cx="2349" cy="1741" r="134" fill="#FFFFFF" opacity="0.174" /><circle cx="1890" cy="514" r="123" fill="#FFFFFF" opacity="0.169" /><circle cx="2062" cy="1183" r="69" fill="#FFFFFF" opacity="0.101" /><circle cx="700" cy="1955" r="54" fill="#FFFFFF" opacity="0.104" /></g>
  <g><path d="M 284.3 605.6 L 2871.9 329.1 L 2871.9 762.9 L 284.3 1039.4 Z" fill="#FFFFFF" opacity="0.236" /><path d="M 240.9 858.7 L 2720.4 582.3 L 2720.4 1061.8 L 240.9 1338.3 Z" fill="#FFFFFF" opacity="0.222" /><path d="M 158.7 1120.9 L 2829.5 844.4 L 2829.5 1266.6 L 158.7 1543.1 Z" fill="#FFFFFF" opacity="0.136" /><path d="M 331.5 1392.4 L 2914.3 1116.0 L 2914.3 1577.9 L 331.5 1854.4 Z" fill="#FFFFFF" opacity="0.144" /><path d="M 302.0 1616.1 L 2682.8 1339.6 L 2682.8 1797.5 L 302.0 2073.9 Z" fill="#FFFFFF" opacity="0.133" /><path d="M 326.4 1947.1 L 2708.7 1670.7 L 2708.7 2103.3 L 326.4 2379.7 Z" fill="#FFFFFF" opacity="0.118" /><path d="M 340.3 2225.6 L 2909.4 1949.1 L 2909.4 2402.7 L 340.3 2679.2 Z" fill="#FFFFFF" opacity="0.159" /><path d="M 324.7 2488.0 L 2779.8 2211.6 L 2779.8 2701.0 L 324.7 2977.5 Z" fill="#FFFFFF" opacity="0.232" /></g>
  <g filter="url(#soft141)"><g transform="rotate(-22.39 1536.0 1536.0)"><path d="M-368.6 540.2 C -225.8 586.3, -25.8 527.0, 107.5 532.2 C 250.4 529.2, 450.4 547.4, 583.7 495.4 C 726.5 491.2, 926.5 567.7, 1059.8 485.8 C 1202.7 485.1, 1402.7 570.1, 1536.0 509.2 C 1678.8 499.5, 1878.8 576.3, 2012.2 551.4 C 2155.0 547.0, 2355.0 532.6, 2488.3 586.9 C 2631.2 595.6, 2831.2 497.4, 2964.5 594.0 C 3107.3 588.2, 3307.3 502.7, 3440.6 568.5" fill="none" stroke="url(#ribbon141)" stroke-width="58.4" stroke-linecap="round" stroke-opacity="0.120" /></g><g transform="rotate(-21.81 1536.0 1536.0)"><path d="M-368.6 774.3 C -241.7 691.1, -63.9 819.0, 54.6 745.4 C 181.6 746.7, 359.4 783.3, 477.9 793.8 C 604.8 794.2, 782.6 756.8, 901.1 830.3 C 1028.1 836.9, 1205.9 756.9, 1324.4 832.9 C 1451.3 848.1, 1629.1 708.2, 1747.6 799.9 C 1874.6 800.6, 2052.4 763.8, 2170.9 751.3 C 2297.9 755.2, 2475.6 801.3, 2594.1 716.7 C 2721.1 737.7, 2898.9 802.0, 3017.4 717.0 C 3144.4 735.1, 3322.1 841.4, 3440.6 752.0" fill="none" stroke="url(#ribbon141)" stroke-width="54.4" stroke-linecap="round" stroke-opacity="0.146" /></g><g transform="rotate(-21.23 1536.0 1536.0)"><path d="M-368.6 908.0 C -254.4 864.9, -94.4 928.1, 12.3 927.5 C 126.6 921.0, 286.6 887.9, 393.2 969.4 C 507.5 961.1, 667.5 866.2, 774.1 974.1 C 888.4 949.3, 1048.4 830.9, 1155.1 938.7 C 1269.4 932.6, 1429.3 873.3, 1536.0 884.7 C 1650.3 893.0, 1810.3 916.7, 1916.9 844.9 C 2031.2 858.1, 2191.2 964.4, 2297.9 843.3 C 2412.1 854.4, 2572.1 946.2, 2678.8 881.0 C 2793.1 875.9, 2953.1 931.1, 3059.7 935.1 C 3174.0 942.0, 3334.0 893.2, 3440.6 972.8" fill="none" stroke="url(#ribbon141)" stroke-width="50.4" stroke-linecap="round" stroke-opacity="0.172" /></g><g transform="rotate(-20.65 1536.0 1536.0)"><path d="M-368.6 1062.3 C -264.8 1047.2, -119.3 1076.9, -22.3 997.8 C 81.5 991.1, 227.0 1129.6, 324.0 987.8 C 427.8 987.5, 573.3 1105.1, 670.3 1023.0 C 774.1 1022.6, 919.6 1078.0, 1016.6 1082.0 C 1120.4 1077.3, 1265.9 1055.2, 1362.9 1129.0 C 1466.7 1139.6, 1612.2 1013.6, 1709.1 1135.6 C 1813.0 1155.8, 1958.5 1001.9, 2055.4 1097.7 C 2159.3 1089.2, 2304.8 1045.5, 2401.7 1038.3 C 2505.6 1042.8, 2651.1 1073.0, 2748.0 993.5 C 2851.9 998.5, 2997.4 1123.8, 3094.3 990.4 C 3198.2 1018.0, 3343.7 1097.7, 3440.6 1030.9" fill="none" stroke="url(#ribbon141)" stroke-width="46.4" stroke-linecap="round" stroke-opacity="0.198" /></g><g transform="rotate(-20.07 1536.0 1536.0)"><path d="M-368.6 1270.7 C -273.4 1230.4, -140.1 1340.7, -51.2 1187.5 C 44.0 1202.8, 177.4 1306.1, 266.2 1218.5 C 361.5 1236.0, 494.8 1311.1, 583.7 1281.2 C 678.9 1281.7, 812.2 1262.6, 901.1 1337.4 C 996.4 1335.9, 1129.7 1216.3, 1218.6 1353.2 C 1313.8 1336.4, 1447.1 1197.7, 1536.0 1318.9 C 1631.2 1336.1, 1764.6 1217.8, 1853.4 1255.4 C 1948.7 1258.3, 2082.0 1276.9, 2170.9 1201.1 C 2266.1 1198.0, 2399.4 1337.3, 2488.3 1189.0 C 2583.6 1207.2, 2716.9 1296.0, 2805.8 1226.5 C 2901.0 1211.0, 3034.3 1316.3, 3123.2 1290.7 C 3218.4 1294.9, 3351.8 1253.3, 3440.6 1342.8" fill="none" stroke="url(#ribbon141)" stroke-width="42.4" stroke-linecap="round" stroke-opacity="0.224" /></g><g transform="rotate(-19.49 1536.0 1536.0)"><path d="M-368.6 1482.8 C -225.8 1544.4, -25.8 1460.7, 107.5 1573.3 C 250.4 1602.5, 450.4 1417.8, 583.7 1549.1 C 726.5 1547.4, 926.5 1414.1, 1059.8 1484.6 C 1202.7 1484.0, 1402.7 1482.1, 1536.0 1419.1 C 1678.8 1414.5, 1878.8 1528.1, 2012.2 1392.1 C 2155.0 1364.2, 2355.0 1539.6, 2488.3 1420.2 C 2631.2 1412.1, 2831.2 1523.6, 2964.5 1486.1 C 3107.3 1485.7, 3307.3 1481.3, 3440.6 1550.1" fill="none" stroke="url(#ribbon141)" stroke-width="38.4" stroke-linecap="round" stroke-opacity="0.250" /></g><g transform="rotate(-18.91 1536.0 1536.0)"><path d="M-368.6 1681.0 C -241.7 1731.0, -63.9 1639.3, 54.6 1777.6 C 181.6 1771.4, 359.4 1633.8, 477.9 1758.9 C 604.8 1788.1, 782.6 1645.9, 901.1 1693.0 C 1028.1 1695.3, 1205.9 1670.7, 1324.4 1619.8 C 1451.3 1643.9, 1629.1 1734.6, 1747.6 1583.8 C 1874.6 1572.7, 2052.4 1738.0, 2170.9 1606.7 C 2297.9 1593.8, 2475.6 1735.0, 2594.1 1674.7 C 2721.1 1676.6, 2898.9 1686.1, 3017.4 1746.6 C 3144.4 1728.1, 3322.1 1651.5, 3440.6 1778.7" fill="none" stroke="url(#ribbon141)" stroke-width="34.4" stroke-linecap="round" stroke-opacity="0.276" /></g><g transform="rotate(-18.33 1536.0 1536.0)"><path d="M-368.6 1828.8 C -254.4 1738.0, -94.4 1906.9, 12.3 1769.4 C 126.6 1772.6, 286.6 1860.6, 393.2 1849.3 C 507.5 1850.6, 667.5 1805.2, 774.1 1916.8 C 888.4 1923.8, 1048.4 1776.8, 1155.1 1930.9 C 1269.4 1895.2, 1429.3 1729.0, 1536.0 1883.1 C 1650.3 1880.7, 1810.3 1774.0, 1916.9 1802.4 C 2031.2 1810.7, 2191.2 1854.3, 2297.9 1737.7 C 2412.1 1767.3, 2572.1 1923.9, 2678.8 1728.3 C 2793.1 1727.5, 2953.1 1947.0, 3059.7 1779.9 C 3174.0 1765.3, 3334.0 1865.2, 3440.6 1861.1" fill="none" stroke="url(#ribbon141)" stroke-width="30.4" stroke-linecap="round" stroke-opacity="0.302" /></g><g transform="rotate(-17.75 1536.0 1536.0)"><path d="M-368.6 2082.6 C -264.8 2014.3, -119.3 2171.8, -22.3 2015.7 C 81.5 2022.1, 227.0 2146.5, 324.0 2100.2 C 427.8 2098.9, 573.3 2070.4, 670.3 2174.1 C 774.1 2179.5, 919.6 1994.3, 1016.6 2192.5 C 1120.4 2198.2, 1265.9 2019.9, 1362.9 2144.3 C 1466.7 2146.3, 1612.2 2050.9, 1709.1 2058.6 C 1813.0 2053.1, 1958.5 2104.6, 2055.4 1987.6 C 2159.3 1995.9, 2304.8 2114.7, 2401.7 1974.2 C 2505.6 2012.8, 2651.1 2136.7, 2748.0 2026.6 C 2851.9 2015.5, 2997.4 2128.0, 3094.3 2113.0 C 3198.2 2101.1, 3343.7 2065.8, 3440.6 2181.0" fill="none" stroke="url(#ribbon141)" stroke-width="26.4" stroke-linecap="round" stroke-opacity="0.328" /></g><g transform="rotate(-17.17 1536.0 1536.0)"><path d="M-368.6 2322.9 C -273.4 2412.0, -140.1 2241.1, -51.2 2341.8 C 44.0 2347.7, 177.4 2316.2, 266.2 2251.9 C 361.5 2252.3, 494.8 2358.0, 583.7 2205.0 C 678.9 2239.2, 812.2 2410.7, 901.1 2229.7 C 996.4 2224.5, 1129.7 2380.7, 1218.6 2310.9 C 1313.8 2307.4, 1447.1 2328.5, 1536.0 2399.4 C 1631.2 2392.5, 1764.6 2298.6, 1853.4 2441.5 C 1948.7 2432.0, 2082.0 2215.2, 2170.9 2411.6 C 2266.1 2390.9, 2399.4 2266.0, 2488.3 2328.0 C 2583.6 2329.7, 2716.9 2318.7, 2805.8 2241.2 C 2901.0 2213.4, 3034.3 2370.7, 3123.2 2204.0 C 3218.4 2208.4, 3351.8 2461.1, 3440.6 2238.9" fill="none" stroke="url(#ribbon141)" stroke-width="22.4" stroke-linecap="round" stroke-opacity="0.354" /></g><g transform="rotate(-16.59 1536.0 1536.0)"><path d="M-368.6 2422.4 C -225.8 2293.4, -25.8 2514.1, 107.5 2305.8 C 250.4 2275.7, 450.4 2467.9, 583.7 2375.4 C 726.5 2389.3, 926.5 2440.6, 1059.8 2473.5 C 1202.7 2471.3, 1402.7 2389.9, 1536.0 2540.6 C 1678.8 2537.6, 1878.8 2314.4, 2012.2 2535.9 C 2155.0 2558.2, 2355.0 2299.7, 2488.3 2462.4 C 2631.2 2476.8, 2831.2 2386.0, 2964.5 2364.6 C 3107.3 2365.5, 3307.3 2460.9, 3440.6 2301.8" fill="none" stroke="url(#ribbon141)" stroke-width="18.4" stroke-linecap="round" stroke-opacity="0.380" /></g><g transform="rotate(-16.01 1536.0 1536.0)"><path d="M-368.6 2681.6 C -241.7 2670.9, -63.9 2688.1, 54.6 2771.0 C 181.6 2751.9, 359.4 2610.5, 477.9 2814.5 C 604.8 2806.3, 782.6 2617.6, 901.1 2777.4 C 1028.1 2770.5, 1205.9 2634.1, 1324.4 2682.2 C 1451.3 2682.1, 1629.1 2681.3, 1747.6 2586.6 C 1874.6 2565.0, 2052.4 2762.2, 2170.9 2548.6 C 2297.9 2519.3, 2475.6 2723.7, 2594.1 2591.3 C 2721.1 2616.1, 2898.9 2750.3, 3017.4 2688.7 C 3144.4 2687.5, 3322.1 2674.8, 3440.6 2781.8" fill="none" stroke="url(#ribbon141)" stroke-width="14.4" stroke-linecap="round" stroke-opacity="0.406" /></g></g>
  <g><ellipse cx="1536.0" cy="1551.9" rx="728.6" ry="605.7" fill="url(#extrude141)" opacity="0.220" /><ellipse cx="1536.0" cy="1567.7" rx="736.0" ry="610.9" fill="url(#extrude141)" opacity="0.205" /><ellipse cx="1536.0" cy="1583.6" rx="743.4" ry="616.1" fill="url(#extrude141)" opacity="0.190" /><ellipse cx="1536.0" cy="1599.5" rx="750.9" ry="621.3" fill="url(#extrude141)" opacity="0.175" /><ellipse cx="1536.0" cy="1615.4" rx="758.3" ry="626.5" fill="url(#extrude141)" opacity="0.160" /><ellipse cx="1536.0" cy="1631.2" rx="765.7" ry="631.7" fill="url(#extrude141)" opacity="0.145" /><ellipse cx="1536.0" cy="1647.1" rx="773.2" ry="636.9" fill="url(#extrude141)" opacity="0.130" /><ellipse cx="1536.0" cy="1663.0" rx="780.6" ry="642.1" fill="url(#extrude141)" opacity="0.115" /><ellipse cx="1536.0" cy="1678.8" rx="788.0" ry="647.4" fill="url(#extrude141)" opacity="0.100" /><ellipse cx="1536.0" cy="1694.7" rx="795.5" ry="652.6" fill="url(#extrude141)" opacity="0.085" /><ellipse cx="1536.0" cy="1710.6" rx="802.9" ry="657.8" fill="url(#extrude141)" opacity="0.070" /><ellipse cx="1536.0" cy="1726.5" rx="810.3" ry="663.0" fill="url(#extrude141)" opacity="0.055" /></g>
  <ellipse cx="1536.0" cy="1726.5" rx="773.2" ry="214.9" fill="#0B1D2D" opacity="0.24" />
  <ellipse cx="1536.0" cy="1536.0" rx="743.4" ry="651.3" fill="url(#orb141)" stroke="#FFFFFF" stroke-opacity="0.42" stroke-width="7" />
  <ellipse cx="1431.9" cy="1392.7" rx="505.5" ry="299.6" fill="#FFFFFF" opacity="0.25" />
  <path d="M 199.4 399.4 C 1013.8 -30.7, 2058.2 768.0, 2872.6 215.0 L 2872.6 983.0 C 2089.0 1228.8, 1013.8 307.2, 199.4 1167.4 Z" fill="url(#glass141)" />
  <rect x="270" y="270" width="2532" height="2532" rx="430" fill="none" stroke="#FFFFFF" stroke-opacity="0.30" stroke-width="5" />
  <rect x="288.4" y="288.4" width="2495.1" height="2495.1" rx="399" fill="none" stroke="#3B82FF" stroke-opacity="0.35" stroke-width="3" />
  <g filter="url(#soft141)"><rect x="565" y="2387" width="48" height="2" fill="#FFFFFF" opacity="0.403" /><rect x="588" y="2364" width="2" height="48" fill="#FFFFFF" opacity="0.403" /><rect x="866" y="1273" width="26" height="2" fill="#FFFFFF" opacity="0.832" /><rect x="878" y="1261" width="2" height="26" fill="#FFFFFF" opacity="0.832" /><rect x="890" y="2158" width="52" height="2" fill="#FFFFFF" opacity="0.366" /><rect x="915" y="2133" width="2" height="52" fill="#FFFFFF" opacity="0.366" /><rect x="2144" y="528" width="44" height="2" fill="#FFFFFF" opacity="0.403" /><rect x="2165" y="507" width="2" height="44" fill="#FFFFFF" opacity="0.403" /><rect x="451" y="272" width="60" height="2" fill="#FFFFFF" opacity="0.389" /><rect x="480" y="243" width="2" height="60" fill="#FFFFFF" opacity="0.389" /><rect x="1694" y="526" width="80" height="2" fill="#FFFFFF" opacity="0.770" /><rect x="1733" y="487" width="2" height="80" fill="#FFFFFF" opacity="0.770" /><rect x="986" y="1444" width="82" height="2" fill="#FFFFFF" opacity="0.427" /><rect x="1026" y="1404" width="2" height="82" fill="#FFFFFF" opacity="0.427" /><rect x="2317" y="465" width="58" height="2" fill="#FFFFFF" opacity="0.594" /><rect x="2345" y="437" width="2" height="58" fill="#FFFFFF" opacity="0.594" /><rect x="2469" y="1621" width="48" height="2" fill="#FFFFFF" opacity="0.458" /><rect x="2492" y="1598" width="2" height="48" fill="#FFFFFF" opacity="0.458" /><rect x="2311" y="607" width="28" height="2" fill="#FFFFFF" opacity="0.570" /><rect x="2324" y="594" width="2" height="28" fill="#FFFFFF" opacity="0.570" /><rect x="577" y="2180" width="70" height="2" fill="#FFFFFF" opacity="0.632" /><rect x="611" y="2146" width="2" height="70" fill="#FFFFFF" opacity="0.632" /><rect x="2035" y="1124" width="32" height="2" fill="#FFFFFF" opacity="0.368" /><rect x="2050" y="1109" width="2" height="32" fill="#FFFFFF" opacity="0.368" /><rect x="1036" y="2234" width="34" height="2" fill="#FFFFFF" opacity="0.772" /><rect x="1052" y="2218" width="2" height="34" fill="#FFFFFF" opacity="0.772" /><rect x="1774" y="1731" width="60" height="2" fill="#FFFFFF" opacity="0.414" /><rect x="1803" y="1702" width="2" height="60" fill="#FFFFFF" opacity="0.414" /><rect x="2192" y="1807" width="54" height="2" fill="#FFFFFF" opacity="0.318" /><rect x="2218" y="1781" width="2" height="54" fill="#FFFFFF" opacity="0.318" /><rect x="986" y="2099" width="62" height="2" fill="#FFFFFF" opacity="0.823" /><rect x="1016" y="2069" width="2" height="62" fill="#FFFFFF" opacity="0.823" /><rect x="2114" y="757" width="62" height="2" fill="#FFFFFF" opacity="0.367" /><rect x="2144" y="727" width="2" height="62" fill="#FFFFFF" opacity="0.367" /><rect x="1438" y="546" width="68" height="2" fill="#FFFFFF" opacity="0.776" /><rect x="1471" y="513" width="2" height="68" fill="#FFFFFF" opacity="0.776" /><rect x="1753" y="1004" width="28" height="2" fill="#FFFFFF" opacity="0.668" /><rect x="1766" y="991" width="2" height="28" fill="#FFFFFF" opacity="0.668" /><rect x="1813" y="1066" width="42" height="2" fill="#FFFFFF" opacity="0.545" /><rect x="1833" y="1046" width="2" height="42" fill="#FFFFFF" opacity="0.545" /><rect x="2024" y="1989" width="58" height="2" fill="#FFFFFF" opacity="0.350" /><rect x="2052" y="1961" width="2" height="58" fill="#FFFFFF" opacity="0.350" /><rect x="1119" y="993" width="72" height="2" fill="#FFFFFF" opacity="0.667" /><rect x="1154" y="958" width="2" height="72" fill="#FFFFFF" opacity="0.667" /><rect x="2523" y="1959" width="62" height="2" fill="#FFFFFF" opacity="0.759" /><rect x="2553" y="1929" width="2" height="62" fill="#FFFFFF" opacity="0.759" /><rect x="1271" y="2129" width="32" height="2" fill="#FFFFFF" opacity="0.459" /><rect x="1286" y="2114" width="2" height="32" fill="#FFFFFF" opacity="0.459" /><rect x="1351" y="2555" width="40" height="2" fill="#FFFFFF" opacity="0.490" /><rect x="1370" y="2536" width="2" height="40" fill="#FFFFFF" opacity="0.490" /><rect x="602" y="2499" width="42" height="2" fill="#FFFFFF" opacity="0.834" /><rect x="622" y="2479" width="2" height="42" fill="#FFFFFF" opacity="0.834" /></g>
  <g opacity="0.52"><rect x="1060" y="1070" width="1024" height="1024" rx="153" fill="none" stroke="#0C2030" stroke-width="90" /><line x1="1316" y1="1326" x2="1828" y2="1838" stroke="#0C2030" stroke-width="90" stroke-linecap="round" /><line x1="1828" y1="1326" x2="1316" y2="1838" stroke="#0C2030" stroke-width="90" stroke-linecap="round" /></g>
  <g filter="url(#soft141)"><rect x="1024" y="1024" width="1024" height="1024" rx="153" fill="none" stroke="url(#symbol141)" stroke-width="90" /><line x1="1280" y1="1280" x2="1792" y2="1792" stroke="url(#symbol141)" stroke-width="90" stroke-linecap="round" /><line x1="1792" y1="1280" x2="1280" y2="1792" stroke="url(#symbol141)" stroke-width="90" stroke-linecap="round" /></g>
  <rect x="138" y="138" width="2796" height="2796" rx="629" fill="#FFFFFF" filter="url(#grain141)" opacity="0.18" />
</svg>
