<svg xmlns="http://www.w3.org/2000/svg" width="3072" height="3072" viewBox="0 0 3072 3072">
  <title>QuartzOS App Icon 242 - nova_gallery_242</title>
  <defs><linearGradient id="bg241" x1="0%" y1="0%" x2="100%" y2="100%"><stop offset="0%" stop-color="#FF6AB3" /><stop offset="26%" stop-color="#FFD84D" /><stop offset="56%" stop-color="#36D1FF" /><stop offset="78%" stop-color="#2E8D96" /><stop offset="100%" stop-color="#0F2A2E" /></linearGradient><radialGradient id="sun241" cx="27%" cy="30%" r="88%"><stop offset="0%" stop-color="#FFFFFF" stop-opacity="0.62" /><stop offset="30%" stop-color="#3B82FF" stop-opacity="0.35" /><stop offset="100%" stop-color="#3B82FF" stop-opacity="0" /></radialGradient><linearGradient id="glass241" x1="0%" y1="0%" x2="0%" y2="100%"><stop offset="0%" stop-color="#FFFFFF" stop-opacity="0.70" /><stop offset="46%" stop-color="#FFFFFF" stop-opacity="0.26" /><stop offset="100%" stop-color="#FFFFFF" stop-opacity="0.00" /></linearGradient><linearGradient id="ribbon241" x1="0%" y1="0%" x2="100%" y2="0%"><stop offset="0%" stop-color="#FF6AB3" stop-opacity="0.18" /><stop offset="34%" stop-color="#FFD84D" stop-opacity="0.72" /><stop offset="66%" stop-color="#36D1FF" stop-opacity="0.72" /><stop offset="100%" stop-color="#3B82FF" stop-opacity="0.18" /></linearGradient><radialGradient id="orb241" cx="34%" cy="27%" r="74%"><stop offset="0%" stop-color="#FFFFFF" stop-opacity="0.84" /><stop offset="30%" stop-color="#FF6AB3" stop-opacity="0.52" /><stop offset="68%" stop-color="#FFD84D" stop-opacity="0.42" /><stop offset="100%" stop-color="#36D1FF" stop-opacity="0.20" /></radialGradient><linearGradient id="extrude241" x1="0%" y1="0%" x2="0%" y2="100%"><stop offset="0%" stop-color="#15283C" stop-opacity="0.45" /><stop offset="100%" stop-color="#08131D" stop-opacity="0.06" /></linearGradient><linearGradient id="symbol241" x1="0%" y1="0%" x2="100%" y2="100%"><stop offset="0%" stop-color="#FFFFFF" /><stop offset="100%" stop-color="#3B82FF" /></linearGradient><filter id="shadow241" x="-40%" y="-40%" width="180%" height="180%"><feDropShadow dx="0" dy="49" stdDeviation="86" flood-color="#06111A" flood-opacity="0.54" /></filter><filter id="soft241" x="-40%" y="-40%" width="180%" height="180%"><feDropShadow dx="0" dy="0" stdDeviation="14" flood-color="#FF6AB3" flood-opacity="0.45" /></filter><filter id="grain241"><feTurbulence type="fractalNoise" baseFrequency="1.023" numOctaves="2" seed="241" /><feColorMatrix type="saturate" values="0" /><feComponentTransfer><feFuncA type="table" tableValues="0 0.09" /></feComponentTransfer></filter></defs>
  <rect x="138" y="138" width="2796" height="2796" rx="629" fill="url(#bg241)" filter="url(#shadow241)" />
  <rect x="138" y="138" width="2796" height="2796" rx="629" fill="url(#sun241)" />
  <g><circle cx="823" cy="1562" r="109" fill="#FFFFFF" opacity="0.218" /><circle cx="2124" cy="1248" r="66" fill="#FFFFFF" opacity="0.205" /><circle cx="2230" cy="653" r="90" fill="#FFFFFF" opacity="0.083" /><circle cx="2400" cy="1884" r="70" fill="#FFFFFF" opacity="0.080" /><circle cx="2243" cy="1519" r="63" fill="#FFFFFF" opacity="0.232" /><circle cx="2021" cy="2675" r="85" fill="#FFFFFF" opacity="0.108" /><circle cx="1863" cy="1441" r="79" fill="#FFFFFF" opacity="0.216" /><circle cx="698" cy="1915" r="88" fill="#FFFFFF" opacity="0.092" /><circle cx="632" cy="2069" r="97" fill="#FFFFFF" opacity="0.201" /><circle cx="2074" cy="1125" r="130" fill="#FFFFFF" opacity="0.202" /><circle cx="1172" cy="586" r="125" fill="#FFFFFF" opacity="0.092" /><circle cx="1703" cy="491" r="120" fill="#FFFFFF" opacity="0.104" /><circle cx="457" cy="2594" r="79" fill="#FFFFFF" opacity="0.200" /><circle cx="1449" cy="1637" r="77" fill="#FFFFFF" opacity="0.176" /><circle cx="488" cy="1604" r="119" fill="#FFFFFF" opacity="0.212" /><circle cx="1267" cy="968" r="116" fill="#FFFFFF" opacity="0.119" /><circle cx="1017" cy="1801" r="101" fill="#FFFFFF" opacity="0.239" /><circle cx="1041" cy="2327" r="39" fill="#FFFFFF" opacity="0.196" /><circle cx="2344" cy="2626" r="107" fill="#FFFFFF" opacity="0.165" /><circle cx="836" cy="1051" r="132" fill="#FFFFFF" opacity="0.221" /><circle cx="1840" cy="2671" r="96" fill="#FFFFFF" opacity="0.183" /><circle cx="1862" cy="1724" r="99" fill="#FFFFFF" opacity="0.106" /><circle cx="531" cy="1335" r="145" fill="#FFFFFF" opacity="0.163" /><circle cx="1174" cy="2528" r="57" fill="#FFFFFF" opacity="0.131" /><circle cx="1081" cy="622" r="54" fill="#FFFFFF" opacity="0.212" /><circle cx="1107" cy="1317" r="38" fill="#FFFFFF" opacity="0.071" /><circle cx="1833" cy="2304" r="152" fill="#FFFFFF" opacity="0.066" /><circle cx="759" cy="1834" r="82" fill="#FFFFFF" opacity="0.211" /></g>
  <g><path d="M 160.3 590.0 L 2852.1 313.5 L 2852.1 796.2 L 160.3 1072.6 Z" fill="#FFFFFF" opacity="0.207" /><path d="M 183.0 852.8 L 2779.9 576.3 L 2779.9 1018.6 L 183.0 1295.1 Z" fill="#FFFFFF" opacity="0.085" /><path d="M 340.0 1162.6 L 2764.5 886.1 L 2764.5 1366.5 L 340.0 1643.0 Z" fill="#FFFFFF" opacity="0.118" /><path d="M 242.8 1383.4 L 2855.6 1106.9 L 2855.6 1564.0 L 242.8 1840.5 Z" fill="#FFFFFF" opacity="0.207" /><path d="M 237.0 1662.0 L 2847.9 1385.6 L 2847.9 1839.5 L 237.0 2116.0 Z" fill="#FFFFFF" opacity="0.094" /><path d="M 382.6 1953.6 L 2881.6 1677.1 L 2881.6 2111.8 L 382.6 2388.3 Z" fill="#FFFFFF" opacity="0.176" /><path d="M 324.7 2199.2 L 2700.1 1922.7 L 2700.1 2350.3 L 324.7 2626.8 Z" fill="#FFFFFF" opacity="0.200" /><path d="M 222.4 2437.7 L 2792.8 2161.2 L 2792.8 2612.5 L 222.4 2889.0 Z" fill="#FFFFFF" opacity="0.207" /></g>
  <g filter="url(#soft241)"><g transform="rotate(-14.90 1536.0 1536.0)"><path d="M-368.6 491.6 C -225.8 549.3, -25.8 476.4, 107.5 499.4 C 250.4 497.9, 450.4 485.1, 583.7 457.7 C 726.5 470.6, 926.5 510.9, 1059.8 436.6 C 1202.7 442.8, 1402.7 529.8, 1536.0 448.9 C 1678.8 450.6, 1878.8 523.2, 2012.2 487.0 C 2155.0 486.1, 2355.0 496.8, 2488.3 527.9 C 2631.2 515.4, 2831.2 457.5, 2964.5 546.8 C 3107.3 534.7, 3307.3 426.6, 3440.6 532.2" fill="none" stroke="url(#ribbon241)" stroke-width="58.4" stroke-linecap="round" stroke-opacity="0.120" /></g><g transform="rotate(-14.32 1536.0 1536.0)"><path d="M-368.6 766.8 C -241.7 789.0, -63.9 740.7, 54.6 756.2 C 181.6 759.6, 359.4 779.6, 477.9 715.3 C 604.8 708.1, 782.6 786.1, 901.1 705.7 C 1028.1 729.0, 1205.9 806.7, 1324.4 733.2 C 1451.3 722.3, 1629.1 790.7, 1747.6 781.1 C 1874.6 781.1, 2052.4 759.0, 2170.9 820.3 C 2297.9 799.6, 2475.6 712.6, 2594.1 827.1 C 2721.1 843.3, 2898.9 726.1, 3017.4 797.3 C 3144.4 787.2, 3322.1 746.8, 3440.6 749.1" fill="none" stroke="url(#ribbon241)" stroke-width="54.4" stroke-linecap="round" stroke-opacity="0.146" /></g><g transform="rotate(-13.74 1536.0 1536.0)"><path d="M-368.6 869.7 C -254.4 914.1, -94.4 835.6, 12.3 860.5 C 126.6 860.1, 286.6 877.0, 393.2 813.9 C 507.5 821.2, 667.5 917.6, 774.1 801.1 C 888.4 804.3, 1048.4 893.0, 1155.1 830.0 C 1269.4 842.7, 1429.3 900.8, 1536.0 882.9 C 1650.3 887.1, 1810.3 864.2, 1916.9 927.7 C 2031.2 947.9, 2191.2 809.5, 2297.9 937.4 C 2412.1 932.5, 2572.1 828.3, 2678.8 906.0 C 2793.1 912.1, 2953.1 830.3, 3059.7 852.5 C 3174.0 858.0, 3334.0 876.2, 3440.6 809.5" fill="none" stroke="url(#ribbon241)" stroke-width="50.4" stroke-linecap="round" stroke-opacity="0.172" /></g><g transform="rotate(-13.16 1536.0 1536.0)"><path d="M-368.6 1046.3 C -264.8 1138.6, -119.3 988.7, -22.3 1065.3 C 81.5 1061.8, 227.0 1031.8, 324.0 1006.4 C 427.8 1010.9, 573.3 1086.1, 670.3 971.7 C 774.1 990.8, 919.6 1088.5, 1016.6 982.2 C 1120.4 985.2, 1265.9 1099.7, 1362.9 1031.6 C 1466.7 1034.2, 1612.2 1051.7, 1709.1 1089.9 C 1813.0 1107.0, 1958.5 996.2, 2055.4 1121.8 C 2159.3 1138.1, 2304.8 986.7, 2401.7 1107.8 C 2505.6 1107.2, 2651.1 987.3, 2748.0 1056.6 C 2851.9 1058.1, 2997.4 1039.5, 3094.3 999.1 C 3198.2 1017.6, 3343.7 1065.5, 3440.6 970.2" fill="none" stroke="url(#ribbon241)" stroke-width="46.4" stroke-linecap="round" stroke-opacity="0.198" /></g><g transform="rotate(-12.58 1536.0 1536.0)"><path d="M-368.6 1323.3 C -273.4 1406.3, -140.1 1299.3, -51.2 1323.4 C 44.0 1323.5, 177.4 1323.1, 266.2 1263.5 C 361.5 1269.4, 494.8 1355.4, 583.7 1239.7 C 678.9 1267.8, 812.2 1354.7, 901.1 1266.7 C 996.4 1283.3, 1129.7 1362.0, 1218.6 1328.0 C 1313.8 1329.7, 1447.1 1321.4, 1536.0 1386.4 C 1631.2 1398.6, 1764.6 1261.5, 1853.4 1406.5 C 1948.7 1424.9, 2082.0 1270.9, 2170.9 1376.2 C 2266.1 1369.3, 2399.4 1288.1, 2488.3 1313.7 C 2583.6 1316.9, 2716.9 1334.7, 2805.8 1257.1 C 2901.0 1241.8, 3034.3 1383.4, 3123.2 1240.6 C 3218.4 1248.4, 3351.8 1382.7, 3440.6 1274.3" fill="none" stroke="url(#ribbon241)" stroke-width="42.4" stroke-linecap="round" stroke-opacity="0.224" /></g><g transform="rotate(-12.00 1536.0 1536.0)"><path d="M-368.6 1491.7 C -225.8 1498.3, -25.8 1484.8, 107.5 1433.1 C 250.4 1451.0, 450.4 1531.5, 583.7 1401.2 C 726.5 1367.3, 926.5 1534.0, 1059.8 1424.3 C 1202.7 1449.8, 1402.7 1562.5, 1536.0 1488.2 C 1678.8 1487.3, 1878.8 1495.8, 2012.2 1554.2 C 2155.0 1564.5, 2355.0 1438.4, 2488.3 1582.3 C 2631.2 1546.9, 2831.2 1407.6, 2964.5 1555.4 C 3107.3 1539.4, 3307.3 1433.7, 3440.6 1489.9" fill="none" stroke="url(#ribbon241)" stroke-width="38.4" stroke-linecap="round" stroke-opacity="0.250" /></g><g transform="rotate(-11.42 1536.0 1536.0)"><path d="M-368.6 1629.2 C -241.7 1704.5, -63.9 1596.0, 54.6 1611.0 C 181.6 1613.0, 359.4 1637.0, 477.9 1547.7 C 604.8 1561.6, 782.6 1720.8, 901.1 1533.7 C 1028.1 1495.8, 1205.9 1742.4, 1324.4 1577.7 C 1451.3 1593.5, 1629.1 1673.2, 1747.6 1652.9 C 1874.6 1648.9, 2052.4 1620.0, 2170.9 1713.6 C 2297.9 1695.0, 2475.6 1596.7, 2594.1 1723.2 C 2721.1 1749.6, 2898.9 1593.9, 3017.4 1675.7 C 3144.4 1684.7, 3322.1 1597.6, 3440.6 1600.0" fill="none" stroke="url(#ribbon241)" stroke-width="34.4" stroke-linecap="round" stroke-opacity="0.276" /></g><g transform="rotate(-10.84 1536.0 1536.0)"><path d="M-368.6 1883.6 C -254.4 1766.1, -94.4 1974.6, 12.3 1822.2 C 126.6 1825.7, 286.6 1909.7, 393.2 1901.7 C 507.5 1895.6, 667.5 1867.4, 774.1 1970.3 C 888.4 1976.2, 1048.4 1849.2, 1155.1 1986.2 C 1269.4 2010.3, 1429.3 1810.6, 1536.0 1939.9 C 1650.3 1942.5, 1810.3 1846.8, 1916.9 1859.5 C 2031.2 1859.6, 2191.2 1907.6, 2297.9 1793.7 C 2412.1 1779.3, 2572.1 1961.2, 2678.8 1782.4 C 2793.1 1775.3, 2953.1 1985.8, 3059.7 1832.5 C 3174.0 1829.5, 3334.0 1917.8, 3440.6 1913.6" fill="none" stroke="url(#ribbon241)" stroke-width="30.4" stroke-linecap="round" stroke-opacity="0.302" /></g><g transform="rotate(-10.26 1536.0 1536.0)"><path d="M-368.6 2043.7 C -264.8 2070.7, -119.3 2031.9, -22.3 1987.2 C 81.5 1977.9, 227.0 2082.5, 324.0 1935.1 C 427.8 1899.8, 573.3 2116.7, 670.3 1948.9 C 774.1 1984.2, 919.6 2142.1, 1016.6 2020.2 C 1120.4 2018.1, 1265.9 2052.9, 1362.9 2105.7 C 1466.7 2125.5, 1612.2 2012.1, 1709.1 2153.7 C 1813.0 2170.3, 1958.5 1967.2, 2055.4 2134.9 C 2159.3 2143.5, 2304.8 1953.7, 2401.7 2060.8 C 2505.6 2058.3, 2651.1 2035.3, 2748.0 1976.4 C 2851.9 1949.9, 2997.4 2120.2, 3094.3 1932.8 C 3198.2 1937.0, 3343.7 2106.8, 3440.6 1956.5" fill="none" stroke="url(#ribbon241)" stroke-width="26.4" stroke-linecap="round" stroke-opacity="0.328" /></g><g transform="rotate(-9.68 1536.0 1536.0)"><path d="M-368.6 2286.1 C -273.4 2140.7, -140.1 2347.1, -51.2 2190.1 C 44.0 2194.6, 177.4 2337.6, 266.2 2269.5 C 361.5 2264.4, 494.8 2296.3, 583.7 2359.0 C 678.9 2372.5, 812.2 2217.8, 901.1 2404.3 C 996.4 2384.7, 1129.7 2239.0, 1218.6 2377.9 C 1313.8 2373.8, 1447.1 2222.3, 1536.0 2295.8 C 1631.2 2296.7, 1764.6 2282.4, 1853.4 2207.9 C 1948.7 2189.5, 2082.0 2355.8, 2170.9 2167.4 C 2266.1 2163.1, 2399.4 2383.9, 2488.3 2198.9 C 2583.6 2191.0, 2716.9 2381.9, 2805.8 2283.3 C 2901.0 2284.1, 3034.3 2288.3, 3123.2 2369.4 C 3218.4 2375.7, 3351.8 2253.9, 3440.6 2405.0" fill="none" stroke="url(#ribbon241)" stroke-width="22.4" stroke-linecap="round" stroke-opacity="0.354" /></g><g transform="rotate(-9.10 1536.0 1536.0)"><path d="M-368.6 2456.2 C -225.8 2379.4, -25.8 2515.8, 107.5 2440.9 C 250.4 2437.6, 450.4 2468.1, 583.7 2535.2 C 726.5 2525.2, 926.5 2423.3, 1059.8 2581.6 C 1202.7 2626.9, 1402.7 2316.5, 1536.0 2551.9 C 1678.8 2585.0, 1878.8 2413.9, 2012.2 2464.1 C 2155.0 2464.1, 2355.0 2449.5, 2488.3 2371.5 C 2631.2 2401.6, 2831.2 2536.1, 2964.5 2330.3 C 3107.3 2335.4, 3307.3 2571.1, 3440.6 2365.4" fill="none" stroke="url(#ribbon241)" stroke-width="18.4" stroke-linecap="round" stroke-opacity="0.380" /></g><g transform="rotate(-8.52 1536.0 1536.0)"><path d="M-368.6 2627.9 C -241.7 2714.7, -63.9 2509.6, 54.6 2759.0 C 181.6 2754.3, 359.4 2554.0, 477.9 2703.1 C 604.8 2674.3, 782.6 2598.8, 901.1 2601.6 C 1028.1 2599.6, 1205.9 2646.7, 1324.4 2516.0 C 1451.3 2478.1, 1629.1 2750.0, 1747.6 2498.3 C 1874.6 2506.9, 2052.4 2744.6, 2170.9 2559.2 C 2297.9 2578.7, 2475.6 2699.8, 2594.1 2661.7 C 2721.1 2655.1, 2898.9 2588.2, 3017.4 2743.7 C 3144.4 2746.4, 3322.1 2517.0, 3440.6 2755.5" fill="none" stroke="url(#ribbon241)" stroke-width="14.4" stroke-linecap="round" stroke-opacity="0.406" /></g></g>
  <g><ellipse cx="1536.0" cy="1551.9" rx="728.6" ry="605.7" fill="url(#extrude241)" opacity="0.220" /><ellipse cx="1536.0" cy="1567.7" rx="736.0" ry="610.9" fill="url(#extrude241)" opacity="0.205" /><ellipse cx="1536.0" cy="1583.6" rx="743.4" ry="616.1" fill="url(#extrude241)" opacity="0.190" /><ellipse cx="1536.0" cy="1599.5" rx="750.9" ry="621.3" fill="url(#extrude241)" opacity="0.175" /><ellipse cx="1536.0" cy="1615.4" rx="758.3" ry="626.5" fill="url(#extrude241)" opacity="0.160" /><ellipse cx="1536.0" cy="1631.2" rx="765.7" ry="631.7" fill="url(#extrude241)" opacity="0.145" /><ellipse cx="1536.0" cy="1647.1" rx="773.2" ry="636.9" fill="url(#extrude241)" opacity="0.130" /><ellipse cx="1536.0" cy="1663.0" rx="780.6" ry="642.1" fill="url(#extrude241)" opacity="0.115" /><ellipse cx="1536.0" cy="1678.8" rx="788.0" ry="647.4" fill="url(#extrude241)" opacity="0.100" /><ellipse cx="1536.0" cy="1694.7" rx="795.5" ry="652.6" fill="url(#extrude241)" opacity="0.085" /><ellipse cx="1536.0" cy="1710.6" rx="802.9" ry="657.8" fill="url(#extrude241)" opacity="0.070" /><ellipse cx="1536.0" cy="1726.5" rx="810.3" ry="663.0" fill="url(#extrude241)" opacity="0.055" /></g>
  <ellipse cx="1536.0" cy="1726.5" rx="773.2" ry="214.9" fill="#0B1D2D" opacity="0.24" />
  <ellipse cx="1536.0" cy="1536.0" rx="743.4" ry="651.3" fill="url(#orb241)" stroke="#FFFFFF" stroke-opacity="0.42" stroke-width="7" />
  <ellipse cx="1431.9" cy="1392.7" rx="505.5" ry="299.6" fill="#FFFFFF" opacity="0.25" />
  <path d="M 199.4 399.4 C 1013.8 -30.7, 2058.2 768.0, 2872.6 215.0 L 2872.6 983.0 C 2089.0 1228.8, 1013.8 307.2, 199.4 1167.4 Z" fill="url(#glass241)" />
  <rect x="270" y="270" width="2532" height="2532" rx="430" fill="none" stroke="#FFFFFF" stroke-opacity="0.30" stroke-width="5" />
  <rect x="288.4" y="288.4" width="2495.1" height="2495.1" rx="399" fill="none" stroke="#FF6AB3" stroke-opacity="0.35" stroke-width="3" />
  <g filter="url(#soft241)"><rect x="2770" y="908" width="66" height="2" fill="#FFFFFF" opacity="0.822" /><rect x="2802" y="876" width="2" height="66" fill="#FFFFFF" opacity="0.822" /><rect x="378" y="2434" width="56" height="2" fill="#FFFFFF" opacity="0.634" /><rect x="405" y="2407" width="2" height="56" fill="#FFFFFF" opacity="0.634" /><rect x="2771" y="1896" width="26" height="2" fill="#FFFFFF" opacity="0.490" /><rect x="2783" y="1884" width="2" height="26" fill="#FFFFFF" opacity="0.490" /><rect x="1718" y="1918" width="32" height="2" fill="#FFFFFF" opacity="0.727" /><rect x="1733" y="1903" width="2" height="32" fill="#FFFFFF" opacity="0.727" /><rect x="509" y="1309" width="84" height="2" fill="#FFFFFF" opacity="0.832" /><rect x="550" y="1268" width="2" height="84" fill="#FFFFFF" opacity="0.832" /><rect x="1571" y="1253" width="60" height="2" fill="#FFFFFF" opacity="0.569" /><rect x="1600" y="1224" width="2" height="60" fill="#FFFFFF" opacity="0.569" /><rect x="1892" y="1041" width="30" height="2" fill="#FFFFFF" opacity="0.791" /><rect x="1906" y="1027" width="2" height="30" fill="#FFFFFF" opacity="0.791" /><rect x="1152" y="864" width="72" height="2" fill="#FFFFFF" opacity="0.685" /><rect x="1187" y="829" width="2" height="72" fill="#FFFFFF" opacity="0.685" /><rect x="2216" y="2099" width="78" height="2" fill="#FFFFFF" opacity="0.402" /><rect x="2254" y="2061" width="2" height="78" fill="#FFFFFF" opacity="0.402" /><rect x="1867" y="1189" width="60" height="2" fill="#FFFFFF" opacity="0.627" /><rect x="1896" y="1160" width="2" height="60" fill="#FFFFFF" opacity="0.627" /><rect x="1234" y="1565" width="84" height="2" fill="#FFFFFF" opacity="0.618" /><rect x="1275" y="1524" width="2" height="84" fill="#FFFFFF" opacity="0.618" /><rect x="2460" y="662" width="56" height="2" fill="#FFFFFF" opacity="0.811" /><rect x="2487" y="635" width="2" height="56" fill="#FFFFFF" opacity="0.811" /><rect x="1375" y="409" width="60" height="2" fill="#FFFFFF" opacity="0.836" /><rect x="1404" y="380" width="2" height="60" fill="#FFFFFF" opacity="0.836" /><rect x="2644" y="2029" width="42" height="2" fill="#FFFFFF" opacity="0.394" /><rect x="2664" y="2009" width="2" height="42" fill="#FFFFFF" opacity="0.394" /><rect x="2637" y="2023" width="80" height="2" fill="#FFFFFF" opacity="0.712" /><rect x="2676" y="1984" width="2" height="80" fill="#FFFFFF" opacity="0.712" /><rect x="490" y="1832" width="62" height="2" fill="#FFFFFF" opacity="0.560" /><rect x="520" y="1802" width="2" height="62" fill="#FFFFFF" opacity="0.560" /><rect x="1481" y="1453" width="58" height="2" fill="#FFFFFF" opacity="0.776" /><rect x="1509" y="1425" width="2" height="58" fill="#FFFFFF" opacity="0.776" /><rect x="1444" y="817" width="74" height="2" fill="#FFFFFF" opacity="0.543" /><rect x="1480" y="781" width="2" height="74" fill="#FFFFFF" opacity="0.543" /><rect x="947" y="627" width="84" height="2" fill="#FFFFFF" opacity="0.748" /><rect x="988" y="586" width="2" height="84" fill="#FFFFFF" opacity="0.748" /><rect x="909" y="2547" width="70" height="2" fill="#FFFFFF" opacity="0.699" /><rect x="943" y="2513" width="2" height="70" fill="#FFFFFF" opacity="0.699" /><rect x="2378" y="1679" width="46" height="2" fill="#FFFFFF" opacity="0.493" /><rect x="2400" y="1657" width="2" height="46" fill="#FFFFFF" opacity="0.493" /><rect x="1067" y="2717" width="66" height="2" fill="#FFFFFF" opacity="0.532" /><rect x="1099" y="2685" width="2" height="66" fill="#FFFFFF" opacity="0.532" /><rect x="678" y="1075" width="84" height="2" fill="#FFFFFF" opacity="0.330" /><rect x="719" y="1034" width="2" height="84" fill="#FFFFFF" opacity="0.330" /><rect x="1431" y="1935" width="28" height="2" fill="#FFFFFF" opacity="0.455" /><rect x="1444" y="1922" width="2" height="28" fill="#FFFFFF" opacity="0.455" /><rect x="1635" y="2152" width="28" height="2" fill="#FFFFFF" opacity="0.685" /><rect x="1648" y="2139" width="2" height="28" fill="#FFFFFF" opacity="0.685" /><rect x="757" y="1649" width="76" height="2" fill="#FFFFFF" opacity="0.707" /><rect x="794" y="1612" width="2" height="76" fill="#FFFFFF" opacity="0.707" /></g>
  <g opacity="0.52"><rect x="1023" y="1070" width="768" height="768" rx="128" fill="none" stroke="#0C2030" stroke-width="90" /><path d="M1023 1582 L1572 1363 L2121 1582 L1572 2094 Z" fill="none" stroke="#0C2030" stroke-width="90" stroke-linejoin="round" /></g>
  <g filter="url(#soft241)"><rect x="987" y="1024" width="768" height="768" rx="128" fill="none" stroke="url(#symbol241)" stroke-width="90" /><path d="M987 1536 L1536 1317 L2085 1536 L1536 2048 Z" fill="none" stroke="url(#symbol241)" stroke-width="90" stroke-linejoin="round" /></g>
  <rect x="138" y="138" width="2796" height="2796" rx="629" fill="#FFFFFF" filter="url(#grain241)" opacity="0.18" />
</svg>
