<svg xmlns="http://www.w3.org/2000/svg" width="3072" height="3072" viewBox="0 0 3072 3072">
  <title>QuartzOS App Icon 342 - nova_designer_342</title>
  <defs><linearGradient id="bg341" x1="0%" y1="0%" x2="100%" y2="100%"><stop offset="0%" stop-color="#FFD84D" /><stop offset="26%" stop-color="#36D1FF" /><stop offset="56%" stop-color="#8A5CFF" /><stop offset="78%" stop-color="#B37A46" /><stop offset="100%" stop-color="#27201B" /></linearGradient><radialGradient id="sun341" cx="25%" cy="18%" r="88%"><stop offset="0%" stop-color="#FFFFFF" stop-opacity="0.62" /><stop offset="30%" stop-color="#FF6AB3" stop-opacity="0.35" /><stop offset="100%" stop-color="#FF6AB3" stop-opacity="0" /></radialGradient><linearGradient id="glass341" x1="0%" y1="0%" x2="0%" y2="100%"><stop offset="0%" stop-color="#FFFFFF" stop-opacity="0.70" /><stop offset="46%" stop-color="#FFFFFF" stop-opacity="0.26" /><stop offset="100%" stop-color="#FFFFFF" stop-opacity="0.00" /></linearGradient><linearGradient id="ribbon341" x1="0%" y1="0%" x2="100%" y2="0%"><stop offset="0%" stop-color="#FFD84D" stop-opacity="0.18" /><stop offset="34%" stop-color="#36D1FF" stop-opacity="0.72" /><stop offset="66%" stop-color="#8A5CFF" stop-opacity="0.72" /><stop offset="100%" stop-color="#FF6AB3" stop-opacity="0.18" /></linearGradient><radialGradient id="orb341" cx="34%" cy="27%" r="74%"><stop offset="0%" stop-color="#FFFFFF" stop-opacity="0.84" /><stop offset="30%" stop-color="#FFD84D" stop-opacity="0.52" /><stop offset="68%" stop-color="#36D1FF" stop-opacity="0.42" /><stop offset="100%" stop-color="#8A5CFF" stop-opacity="0.20" /></radialGradient><linearGradient id="extrude341" x1="0%" y1="0%" x2="0%" y2="100%"><stop offset="0%" stop-color="#15283C" stop-opacity="0.45" /><stop offset="100%" stop-color="#08131D" stop-opacity="0.06" /></linearGradient><linearGradient id="symbol341" x1="0%" y1="0%" x2="100%" y2="100%"><stop offset="0%" stop-color="#FFFFFF" /><stop offset="100%" stop-color="#FF6AB3" /></linearGradient><filter id="shadow341" x="-40%" y="-40%" width="180%" height="180%"><feDropShadow dx="0" dy="49" stdDeviation="86" flood-color="#06111A" flood-opacity="0.54" /></filter><filter id="soft341" x="-40%" y="-40%" width="180%" height="180%"><feDropShadow dx="0" dy="0" stdDeviation="14" flood-color="#FFD84D" flood-opacity="0.45" /></filter><filter id="grain341"><feTurbulence type="fractalNoise" baseFrequency="1.026" numOctaves="2" seed="341" /><feColorMatrix type="saturate" values="0" /><feComponentTransfer><feFuncA type="table" tableValues="0 0.09" /></feComponentTransfer></filter></defs>
  <rect x="138" y="138" width="2796" height="2796" rx="629" fill="url(#bg341)" filter="url(#shadow341)" />
  <rect x="138" y="138" width="2796" height="2796" rx="629" fill="url(#sun341)" />
  <g><circle cx="2211" cy="807" r="135" fill="#FFFFFF" opacity="0.100" /><circle cx="1456" cy="1723" r="154" fill="#FFFFFF" opacity="0.071" /><circle cx="2224" cy="961" r="143" fill="#FFFFFF" opacity="0.082" /><circle cx="2679" cy="1668" r="144" fill="#FFFFFF" opacity="0.175" /><circle cx="880" cy="2525" r="90" fill="#FFFFFF" opacity="0.113" /><circle cx="626" cy="756" r="129" fill="#FFFFFF" opacity="0.083" /><circle cx="530" cy="2624" r="104" fill="#FFFFFF" opacity="0.205" /><circle cx="2400" cy="418" r="114" fill="#FFFFFF" opacity="0.172" /><circle cx="882" cy="2537" r="144" fill="#FFFFFF" opacity="0.082" /><circle cx="954" cy="2586" r="149" fill="#FFFFFF" opacity="0.115" /><circle cx="694" cy="1636" r="135" fill="#FFFFFF" opacity="0.177" /><circle cx="1098" cy="1920" r="49" fill="#FFFFFF" opacity="0.159" /><circle cx="2549" cy="1059" r="90" fill="#FFFFFF" opacity="0.212" /><circle cx="1857" cy="2127" r="85" fill="#FFFFFF" opacity="0.157" /><circle cx="1996" cy="348" r="70" fill="#FFFFFF" opacity="0.220" /><circle cx="586" cy="1295" r="48" fill="#FFFFFF" opacity="0.145" /><circle cx="789" cy="1418" r="137" fill="#FFFFFF" opacity="0.226" /><circle cx="2474" cy="1333" r="136" fill="#FFFFFF" opacity="0.125" /><circle cx="2158" cy="703" r="147" fill="#FFFFFF" opacity="0.214" /><circle cx="429" cy="783" r="99" fill="#FFFFFF" opacity="0.118" /><circle cx="2158" cy="615" r="147" fill="#FFFFFF" opacity="0.189" /><circle cx="2391" cy="2165" r="76" fill="#FFFFFF" opacity="0.148" /><circle cx="409" cy="1987" r="123" fill="#FFFFFF" opacity="0.165" /><circle cx="1001" cy="2697" r="61" fill="#FFFFFF" opacity="0.145" /><circle cx="2243" cy="1457" r="105" fill="#FFFFFF" opacity="0.071" /><circle cx="2373" cy="1938" r="84" fill="#FFFFFF" opacity="0.125" /><circle cx="551" cy="980" r="113" fill="#FFFFFF" opacity="0.121" /><circle cx="1890" cy="2391" r="124" fill="#FFFFFF" opacity="0.116" /></g>
  <g><path d="M 190.0 569.6 L 2796.0 293.1 L 2796.0 774.6 L 190.0 1051.1 Z" fill="#FFFFFF" opacity="0.084" /><path d="M 301.6 843.4 L 2850.4 566.9 L 2850.4 1052.4 L 301.6 1328.9 Z" fill="#FFFFFF" opacity="0.172" /><path d="M 194.1 1118.2 L 2916.1 841.7 L 2916.1 1262.2 L 194.1 1538.6 Z" fill="#FFFFFF" opacity="0.106" /><path d="M 159.5 1425.1 L 2781.6 1148.6 L 2781.6 1643.7 L 159.5 1920.2 Z" fill="#FFFFFF" opacity="0.139" /><path d="M 241.1 1671.8 L 2825.7 1395.3 L 2825.7 1819.2 L 241.1 2095.7 Z" fill="#FFFFFF" opacity="0.209" /><path d="M 370.0 1905.6 L 2823.6 1629.1 L 2823.6 2070.1 L 370.0 2346.6 Z" fill="#FFFFFF" opacity="0.228" /><path d="M 151.0 2136.1 L 2876.2 1859.7 L 2876.2 2279.2 L 151.0 2555.7 Z" fill="#FFFFFF" opacity="0.204" /><path d="M 250.7 2429.6 L 2880.6 2153.2 L 2880.6 2620.2 L 250.7 2896.6 Z" fill="#FFFFFF" opacity="0.159" /></g>
  <g filter="url(#soft341)"><g transform="rotate(-17.37 1536.0 1536.0)"><path d="M-368.6 518.8 C -225.8 500.7, -25.8 526.7, 107.5 547.7 C 250.4 542.3, 450.4 486.8, 583.7 572.7 C 726.5 583.8, 926.5 468.0, 1059.8 565.1 C 1202.7 564.2, 1402.7 468.0, 1536.0 529.3 C 1678.8 525.8, 1878.8 507.6, 2012.2 487.2 C 2155.0 494.2, 2355.0 544.9, 2488.3 464.2 C 2631.2 445.8, 2831.2 535.6, 2964.5 474.3 C 3107.3 490.0, 3307.3 537.2, 3440.6 511.4" fill="none" stroke="url(#ribbon341)" stroke-width="58.4" stroke-linecap="round" stroke-opacity="0.120" /></g><g transform="rotate(-16.79 1536.0 1536.0)"><path d="M-368.6 776.4 C -241.7 746.3, -63.9 806.0, 54.6 714.1 C 181.6 735.6, 359.4 799.9, 477.9 732.5 C 604.8 749.8, 782.6 803.4, 901.1 777.6 C 1028.1 777.2, 1205.9 775.6, 1324.4 822.0 C 1451.3 830.3, 1629.1 730.5, 1747.6 838.7 C 1874.6 857.2, 2052.4 704.8, 2170.9 817.7 C 2297.9 816.8, 2475.6 762.4, 2594.1 771.6 C 2721.1 770.5, 2898.9 778.0, 3017.4 728.5 C 3144.4 710.5, 3322.1 791.7, 3440.6 714.4" fill="none" stroke="url(#ribbon341)" stroke-width="54.4" stroke-linecap="round" stroke-opacity="0.146" /></g><g transform="rotate(-16.21 1536.0 1536.0)"><path d="M-368.6 947.8 C -254.4 991.1, -94.4 932.9, 12.3 934.0 C 126.6 930.8, 286.6 953.7, 393.2 889.4 C 507.5 870.4, 667.5 1002.7, 774.1 880.2 C 888.4 855.8, 1048.4 972.7, 1155.1 912.1 C 1269.4 914.8, 1429.3 962.5, 1536.0 965.6 C 1650.3 970.3, 1810.3 928.1, 1916.9 1008.4 C 2031.2 1019.8, 2191.2 892.4, 2297.9 1014.4 C 2412.1 1000.8, 2572.1 889.3, 2678.8 980.1 C 2793.1 973.2, 2953.1 917.5, 3059.7 926.2 C 3174.0 934.5, 3334.0 965.0, 3440.6 885.4" fill="none" stroke="url(#ribbon341)" stroke-width="50.4" stroke-linecap="round" stroke-opacity="0.172" /></g><g transform="rotate(-15.63 1536.0 1536.0)"><path d="M-368.6 1144.3 C -264.8 1085.2, -119.3 1189.8, -22.3 1133.6 C 81.5 1129.9, 227.0 1151.0, 324.0 1191.2 C 427.8 1203.6, 573.3 1112.5, 670.3 1220.3 C 774.1 1245.2, 919.6 1063.1, 1016.6 1203.4 C 1120.4 1206.2, 1265.9 1096.0, 1362.9 1150.6 C 1466.7 1151.1, 1612.2 1140.7, 1709.1 1094.0 C 1813.0 1092.8, 1958.5 1172.2, 2055.4 1067.9 C 2159.3 1088.9, 2304.8 1203.8, 2401.7 1088.2 C 2505.6 1072.1, 2651.1 1197.4, 2748.0 1142.5 C 2851.9 1142.4, 2997.4 1145.1, 3094.3 1197.9 C 3198.2 1187.5, 3343.7 1082.0, 3440.6 1220.8" fill="none" stroke="url(#ribbon341)" stroke-width="46.4" stroke-linecap="round" stroke-opacity="0.198" /></g><g transform="rotate(-15.05 1536.0 1536.0)"><path d="M-368.6 1302.5 C -273.4 1378.8, -140.1 1272.6, -51.2 1377.6 C 44.0 1381.4, 177.4 1258.3, 266.2 1328.6 C 361.5 1331.2, 494.8 1288.0, 583.7 1263.8 C 678.9 1275.3, 812.2 1338.9, 901.1 1222.4 C 996.4 1223.1, 1129.7 1332.7, 1218.6 1229.6 C 1313.8 1230.6, 1447.1 1335.9, 1536.0 1281.0 C 1631.2 1274.4, 1764.6 1315.7, 1853.4 1345.4 C 1948.7 1341.5, 2082.0 1273.5, 2170.9 1383.8 C 2266.1 1399.2, 2399.4 1241.6, 2488.3 1372.9 C 2583.6 1396.6, 2716.9 1265.2, 2805.8 1319.2 C 2901.0 1321.6, 3034.3 1295.8, 3123.2 1255.4 C 3218.4 1247.6, 3351.8 1350.8, 3440.6 1220.1" fill="none" stroke="url(#ribbon341)" stroke-width="42.4" stroke-linecap="round" stroke-opacity="0.224" /></g><g transform="rotate(-14.47 1536.0 1536.0)"><path d="M-368.6 1549.0 C -225.8 1541.9, -25.8 1552.1, 107.5 1607.0 C 250.4 1599.3, 450.4 1520.4, 583.7 1639.4 C 726.5 1665.8, 926.5 1514.8, 1059.8 1616.9 C 1202.7 1632.4, 1402.7 1476.2, 1536.0 1553.3 C 1678.8 1553.7, 1878.8 1545.5, 2012.2 1487.1 C 2155.0 1475.8, 2355.0 1582.3, 2488.3 1458.4 C 2631.2 1451.5, 2831.2 1616.2, 2964.5 1484.7 C 3107.3 1464.1, 3307.3 1580.0, 3440.6 1550.0" fill="none" stroke="url(#ribbon341)" stroke-width="38.4" stroke-linecap="round" stroke-opacity="0.250" /></g><g transform="rotate(-13.89 1536.0 1536.0)"><path d="M-368.6 1622.1 C -241.7 1730.1, -63.9 1571.0, 54.6 1707.2 C 181.6 1687.7, 359.4 1562.9, 477.9 1647.0 C 604.8 1641.4, 782.6 1608.5, 901.1 1571.7 C 1028.1 1558.7, 1205.9 1662.0, 1324.4 1526.9 C 1451.3 1563.5, 1629.1 1694.8, 1747.6 1539.9 C 1874.6 1552.4, 2052.4 1684.3, 2170.9 1602.7 C 2297.9 1606.0, 2475.6 1632.1, 2594.1 1677.3 C 2721.1 1695.1, 2898.9 1562.6, 3017.4 1718.4 C 3144.4 1680.6, 3322.1 1536.4, 3440.6 1701.0" fill="none" stroke="url(#ribbon341)" stroke-width="34.4" stroke-linecap="round" stroke-opacity="0.276" /></g><g transform="rotate(-13.31 1536.0 1536.0)"><path d="M-368.6 1877.4 C -254.4 1967.3, -94.4 1829.1, 12.3 1972.9 C 126.6 1999.2, 286.6 1771.6, 393.2 1913.2 C 507.5 1915.3, 667.5 1860.5, 774.1 1831.7 C 888.4 1841.0, 1048.4 1911.5, 1155.1 1777.9 C 1269.4 1799.3, 1429.3 1962.8, 1536.0 1784.5 C 1650.3 1773.9, 1810.3 1956.7, 1916.9 1847.3 C 2031.2 1837.6, 2191.2 1892.3, 2297.9 1928.4 C 2412.1 1937.2, 2572.1 1846.0, 2678.8 1978.6 C 2793.1 1940.3, 2953.1 1770.9, 3059.7 1967.3 C 3174.0 1956.4, 3334.0 1786.6, 3440.6 1901.5" fill="none" stroke="url(#ribbon341)" stroke-width="30.4" stroke-linecap="round" stroke-opacity="0.302" /></g><g transform="rotate(-12.73 1536.0 1536.0)"><path d="M-368.6 2099.8 C -264.8 2100.5, -119.3 2099.3, -22.3 2020.0 C 81.5 2026.0, 227.0 2137.6, 324.0 1988.0 C 427.8 1961.9, 573.3 2168.0, 670.3 2023.9 C 774.1 2047.2, 919.6 2180.8, 1016.6 2105.8 C 1120.4 2107.2, 1265.9 2097.9, 1362.9 2184.1 C 1466.7 2194.9, 1612.2 2054.6, 1709.1 2211.3 C 1813.0 2198.3, 1958.5 2010.7, 2055.4 2170.9 C 2159.3 2186.5, 2304.8 2024.8, 2401.7 2087.4 C 2505.6 2091.3, 2651.1 2106.4, 2748.0 2011.4 C 2851.9 1999.8, 2997.4 2162.6, 3094.3 1989.1 C 3198.2 1960.5, 3343.7 2136.2, 3440.6 2034.0" fill="none" stroke="url(#ribbon341)" stroke-width="26.4" stroke-linecap="round" stroke-opacity="0.328" /></g><g transform="rotate(-12.15 1536.0 1536.0)"><path d="M-368.6 2209.7 C -273.4 2074.2, -140.1 2272.4, -51.2 2153.7 C 44.0 2161.7, 177.4 2273.7, 266.2 2245.9 C 361.5 2240.0, 494.8 2181.6, 583.7 2316.1 C 678.9 2307.6, 812.2 2166.0, 901.1 2321.8 C 996.4 2345.5, 1129.7 2171.9, 1218.6 2259.4 C 1313.8 2262.7, 1447.1 2156.0, 1536.0 2166.9 C 1631.2 2178.6, 1764.6 2244.1, 1853.4 2100.3 C 1948.7 2110.3, 2082.0 2335.9, 2170.9 2100.0 C 2266.1 2091.6, 2399.4 2326.4, 2488.3 2166.3 C 2583.6 2182.4, 2716.9 2258.4, 2805.8 2258.8 C 2901.0 2243.0, 3034.3 2157.5, 3123.2 2321.6 C 3218.4 2308.3, 3351.8 2169.4, 3440.6 2316.4" fill="none" stroke="url(#ribbon341)" stroke-width="22.4" stroke-linecap="round" stroke-opacity="0.354" /></g><g transform="rotate(-11.57 1536.0 1536.0)"><path d="M-368.6 2423.6 C -225.8 2434.9, -25.8 2415.8, 107.5 2346.8 C 250.4 2363.4, 450.4 2483.3, 583.7 2298.5 C 726.5 2291.8, 926.5 2482.4, 1059.8 2326.1 C 1202.7 2316.4, 1402.7 2458.3, 1536.0 2412.8 C 1678.8 2413.7, 1878.8 2428.5, 2012.2 2506.1 C 2155.0 2488.2, 2355.0 2379.1, 2488.3 2549.4 C 2631.2 2595.8, 2831.2 2326.2, 2964.5 2516.3 C 3107.3 2493.8, 3307.3 2327.3, 3440.6 2427.1" fill="none" stroke="url(#ribbon341)" stroke-width="18.4" stroke-linecap="round" stroke-opacity="0.380" /></g><g transform="rotate(-10.99 1536.0 1536.0)"><path d="M-368.6 2678.3 C -241.7 2585.8, -63.9 2709.9, 54.6 2545.4 C 181.6 2552.5, 359.4 2798.7, 477.9 2581.2 C 604.8 2599.3, 782.6 2758.0, 901.1 2675.9 C 1028.1 2676.6, 1205.9 2681.0, 1324.4 2772.0 C 1451.3 2792.3, 1629.1 2566.7, 1747.6 2811.3 C 1874.6 2833.1, 2052.4 2542.6, 2170.9 2769.9 C 2297.9 2780.6, 2475.6 2642.6, 2594.1 2672.9 C 2721.1 2671.7, 2898.9 2682.2, 3017.4 2579.2 C 3144.4 2554.5, 3322.1 2764.9, 3440.6 2545.6" fill="none" stroke="url(#ribbon341)" stroke-width="14.4" stroke-linecap="round" stroke-opacity="0.406" /></g></g>
  <g><ellipse cx="1536.0" cy="1551.9" rx="728.6" ry="605.7" fill="url(#extrude341)" opacity="0.220" /><ellipse cx="1536.0" cy="1567.7" rx="736.0" ry="610.9" fill="url(#extrude341)" opacity="0.205" /><ellipse cx="1536.0" cy="1583.6" rx="743.4" ry="616.1" fill="url(#extrude341)" opacity="0.190" /><ellipse cx="1536.0" cy="1599.5" rx="750.9" ry="621.3" fill="url(#extrude341)" opacity="0.175" /><ellipse cx="1536.0" cy="1615.4" rx="758.3" ry="626.5" fill="url(#extrude341)" opacity="0.160" /><ellipse cx="1536.0" cy="1631.2" rx="765.7" ry="631.7" fill="url(#extrude341)" opacity="0.145" /><ellipse cx="1536.0" cy="1647.1" rx="773.2" ry="636.9" fill="url(#extrude341)" opacity="0.130" /><ellipse cx="1536.0" cy="1663.0" rx="780.6" ry="642.1" fill="url(#extrude341)" opacity="0.115" /><ellipse cx="1536.0" cy="1678.8" rx="788.0" ry="647.4" fill="url(#extrude341)" opacity="0.100" /><ellipse cx="1536.0" cy="1694.7" rx="795.5" ry="652.6" fill="url(#extrude341)" opacity="0.085" /><ellipse cx="1536.0" cy="1710.6" rx="802.9" ry="657.8" fill="url(#extrude341)" opacity="0.070" /><ellipse cx="1536.0" cy="1726.5" rx="810.3" ry="663.0" fill="url(#extrude341)" opacity="0.055" /></g>
  <ellipse cx="1536.0" cy="1726.5" rx="773.2" ry="214.9" fill="#0B1D2D" opacity="0.24" />
  <ellipse cx="1536.0" cy="1536.0" rx="743.4" ry="651.3" fill="url(#orb341)" stroke="#FFFFFF" stroke-opacity="0.42" stroke-width="7" />
  <ellipse cx="1431.9" cy="1392.7" rx="505.5" ry="299.6" fill="#FFFFFF" opacity="0.25" />
  <path d="M 199.4 399.4 C 1013.8 -30.7, 2058.2 768.0, 2872.6 215.0 L 2872.6 983.0 C 2089.0 1228.8, 1013.8 307.2, 199.4 1167.4 Z" fill="url(#glass341)" />
  <rect x="270" y="270" width="2532" height="2532" rx="430" fill="none" stroke="#FFFFFF" stroke-opacity="0.30" stroke-width="5" />
  <rect x="288.4" y="288.4" width="2495.1" height="2495.1" rx="399" fill="none" stroke="#FFD84D" stroke-opacity="0.35" stroke-width="3" />
  <g filter="url(#soft341)"><rect x="2173" y="658" width="40" height="2" fill="#FFFFFF" opacity="0.432" /><rect x="2192" y="639" width="2" height="40" fill="#FFFFFF" opacity="0.432" /><rect x="2050" y="2633" width="52" height="2" fill="#FFFFFF" opacity="0.552" /><rect x="2075" y="2608" width="2" height="52" fill="#FFFFFF" opacity="0.552" /><rect x="2215" y="2601" width="76" height="2" fill="#FFFFFF" opacity="0.801" /><rect x="2252" y="2564" width="2" height="76" fill="#FFFFFF" opacity="0.801" /><rect x="1166" y="562" width="76" height="2" fill="#FFFFFF" opacity="0.776" /><rect x="1203" y="525" width="2" height="76" fill="#FFFFFF" opacity="0.776" /><rect x="2212" y="1074" width="66" height="2" fill="#FFFFFF" opacity="0.773" /><rect x="2244" y="1042" width="2" height="66" fill="#FFFFFF" opacity="0.773" /><rect x="2173" y="2444" width="74" height="2" fill="#FFFFFF" opacity="0.396" /><rect x="2209" y="2408" width="2" height="74" fill="#FFFFFF" opacity="0.396" /><rect x="1863" y="376" width="52" height="2" fill="#FFFFFF" opacity="0.436" /><rect x="1888" y="351" width="2" height="52" fill="#FFFFFF" opacity="0.436" /><rect x="431" y="1548" width="72" height="2" fill="#FFFFFF" opacity="0.486" /><rect x="466" y="1513" width="2" height="72" fill="#FFFFFF" opacity="0.486" /><rect x="2328" y="404" width="26" height="2" fill="#FFFFFF" opacity="0.329" /><rect x="2340" y="392" width="2" height="26" fill="#FFFFFF" opacity="0.329" /><rect x="2337" y="1533" width="32" height="2" fill="#FFFFFF" opacity="0.582" /><rect x="2352" y="1518" width="2" height="32" fill="#FFFFFF" opacity="0.582" /><rect x="1720" y="1875" width="58" height="2" fill="#FFFFFF" opacity="0.461" /><rect x="1748" y="1847" width="2" height="58" fill="#FFFFFF" opacity="0.461" /><rect x="1976" y="1279" width="30" height="2" fill="#FFFFFF" opacity="0.531" /><rect x="1990" y="1265" width="2" height="30" fill="#FFFFFF" opacity="0.531" /><rect x="2284" y="2251" width="40" height="2" fill="#FFFFFF" opacity="0.320" /><rect x="2303" y="2232" width="2" height="40" fill="#FFFFFF" opacity="0.320" /><rect x="2206" y="658" width="54" height="2" fill="#FFFFFF" opacity="0.593" /><rect x="2232" y="632" width="2" height="54" fill="#FFFFFF" opacity="0.593" /><rect x="1043" y="2540" width="68" height="2" fill="#FFFFFF" opacity="0.438" /><rect x="1076" y="2507" width="2" height="68" fill="#FFFFFF" opacity="0.438" /><rect x="1764" y="2053" width="62" height="2" fill="#FFFFFF" opacity="0.337" /><rect x="1794" y="2023" width="2" height="62" fill="#FFFFFF" opacity="0.337" /><rect x="2378" y="2278" width="76" height="2" fill="#FFFFFF" opacity="0.546" /><rect x="2415" y="2241" width="2" height="76" fill="#FFFFFF" opacity="0.546" /><rect x="1428" y="2594" width="26" height="2" fill="#FFFFFF" opacity="0.734" /><rect x="1440" y="2582" width="2" height="26" fill="#FFFFFF" opacity="0.734" /><rect x="1527" y="344" width="32" height="2" fill="#FFFFFF" opacity="0.381" /><rect x="1542" y="329" width="2" height="32" fill="#FFFFFF" opacity="0.381" /><rect x="1476" y="2284" width="66" height="2" fill="#FFFFFF" opacity="0.651" /><rect x="1508" y="2252" width="2" height="66" fill="#FFFFFF" opacity="0.651" /><rect x="2269" y="1594" width="78" height="2" fill="#FFFFFF" opacity="0.385" /><rect x="2307" y="1556" width="2" height="78" fill="#FFFFFF" opacity="0.385" /><rect x="815" y="329" width="72" height="2" fill="#FFFFFF" opacity="0.383" /><rect x="850" y="294" width="2" height="72" fill="#FFFFFF" opacity="0.383" /><rect x="1068" y="1615" width="58" height="2" fill="#FFFFFF" opacity="0.655" /><rect x="1096" y="1587" width="2" height="58" fill="#FFFFFF" opacity="0.655" /><rect x="2219" y="2325" width="28" height="2" fill="#FFFFFF" opacity="0.691" /><rect x="2232" y="2312" width="2" height="28" fill="#FFFFFF" opacity="0.691" /><rect x="2367" y="2498" width="32" height="2" fill="#FFFFFF" opacity="0.338" /><rect x="2382" y="2483" width="2" height="32" fill="#FFFFFF" opacity="0.338" /><rect x="1476" y="522" width="76" height="2" fill="#FFFFFF" opacity="0.632" /><rect x="1513" y="485" width="2" height="76" fill="#FFFFFF" opacity="0.632" /></g>
  <g opacity="0.52"><rect x="1023" y="1121" width="1152" height="1024" rx="153" fill="none" stroke="#0C2030" stroke-width="90" /><line x1="1023" y1="1326" x2="2148" y2="1326" stroke="#0C2030" stroke-width="90" /><line x1="1316" y1="1033" x2="1316" y2="1121" stroke="#0C2030" stroke-width="90" /><line x1="1828" y1="1033" x2="1828" y2="1121" stroke="#0C2030" stroke-width="90" /></g>
  <g filter="url(#soft341)"><rect x="987" y="1075" width="1152" height="1024" rx="153" fill="none" stroke="url(#symbol341)" stroke-width="90" /><line x1="987" y1="1280" x2="2112" y2="1280" stroke="url(#symbol341)" stroke-width="90" /><line x1="1280" y1="987" x2="1280" y2="1075" stroke="url(#symbol341)" stroke-width="90" /><line x1="1792" y1="987" x2="1792" y2="1075" stroke="url(#symbol341)" stroke-width="90" /></g>
  <rect x="138" y="138" width="2796" height="2796" rx="629" fill="#FFFFFF" filter="url(#grain341)" opacity="0.18" />
</svg>
