<svg xmlns="http://www.w3.org/2000/svg" width="3072" height="3072" viewBox="0 0 3072 3072">
  <title>QuartzOS App Icon 042 - nova_board_042</title>
  <defs><linearGradient id="bg41" x1="0%" y1="0%" x2="100%" y2="100%"><stop offset="0%" stop-color="#53E3A6" /><stop offset="26%" stop-color="#3B82FF" /><stop offset="56%" stop-color="#FF6AB3" /><stop offset="78%" stop-color="#B37A46" /><stop offset="100%" stop-color="#27201B" /></linearGradient><radialGradient id="sun41" cx="28%" cy="14%" r="88%"><stop offset="0%" stop-color="#FFFFFF" stop-opacity="0.62" /><stop offset="30%" stop-color="#FF9F43" stop-opacity="0.35" /><stop offset="100%" stop-color="#FF9F43" stop-opacity="0" /></radialGradient><linearGradient id="glass41" x1="0%" y1="0%" x2="0%" y2="100%"><stop offset="0%" stop-color="#FFFFFF" stop-opacity="0.70" /><stop offset="46%" stop-color="#FFFFFF" stop-opacity="0.26" /><stop offset="100%" stop-color="#FFFFFF" stop-opacity="0.00" /></linearGradient><linearGradient id="ribbon41" x1="0%" y1="0%" x2="100%" y2="0%"><stop offset="0%" stop-color="#53E3A6" stop-opacity="0.18" /><stop offset="34%" stop-color="#3B82FF" stop-opacity="0.72" /><stop offset="66%" stop-color="#FF6AB3" stop-opacity="0.72" /><stop offset="100%" stop-color="#FF9F43" stop-opacity="0.18" /></linearGradient><radialGradient id="orb41" cx="34%" cy="27%" r="74%"><stop offset="0%" stop-color="#FFFFFF" stop-opacity="0.84" /><stop offset="30%" stop-color="#53E3A6" stop-opacity="0.52" /><stop offset="68%" stop-color="#3B82FF" stop-opacity="0.42" /><stop offset="100%" stop-color="#FF6AB3" stop-opacity="0.20" /></radialGradient><linearGradient id="extrude41" x1="0%" y1="0%" x2="0%" y2="100%"><stop offset="0%" stop-color="#15283C" stop-opacity="0.45" /><stop offset="100%" stop-color="#08131D" stop-opacity="0.06" /></linearGradient><linearGradient id="symbol41" x1="0%" y1="0%" x2="100%" y2="100%"><stop offset="0%" stop-color="#FFFFFF" /><stop offset="100%" stop-color="#FF9F43" /></linearGradient><filter id="shadow41" x="-40%" y="-40%" width="180%" height="180%"><feDropShadow dx="0" dy="49" stdDeviation="86" flood-color="#06111A" flood-opacity="0.54" /></filter><filter id="soft41" x="-40%" y="-40%" width="180%" height="180%"><feDropShadow dx="0" dy="0" stdDeviation="14" flood-color="#53E3A6" flood-opacity="0.45" /></filter><filter id="grain41"><feTurbulence type="fractalNoise" baseFrequency="0.701" numOctaves="2" seed="41" /><feColorMatrix type="saturate" values="0" /><feComponentTransfer><feFuncA type="table" tableValues="0 0.09" /></feComponentTransfer></filter></defs>
  <rect x="138" y="138" width="2796" height="2796" rx="629" fill="url(#bg41)" filter="url(#shadow41)" />
  <rect x="138" y="138" width="2796" height="2796" rx="629" fill="url(#sun41)" />
  <g><circle cx="2376" cy="1527" r="89" fill="#FFFFFF" opacity="0.225" /><circle cx="2038" cy="355" r="83" fill="#FFFFFF" opacity="0.145" /><circle cx="611" cy="1453" r="155" fill="#FFFFFF" opacity="0.162" /><circle cx="1370" cy="1949" r="82" fill="#FFFFFF" opacity="0.170" /><circle cx="1888" cy="939" r="128" fill="#FFFFFF" opacity="0.098" /><circle cx="2402" cy="1363" r="62" fill="#FFFFFF" opacity="0.135" /><circle cx="2399" cy="2183" r="134" fill="#FFFFFF" opacity="0.091" /><circle cx="1092" cy="377" r="47" fill="#FFFFFF" opacity="0.202" /><circle cx="1654" cy="1286" r="120" fill="#FFFFFF" opacity="0.145" /><circle cx="1021" cy="502" r="137" fill="#FFFFFF" opacity="0.074" /><circle cx="1342" cy="1743" r="117" fill="#FFFFFF" opacity="0.197" /><circle cx="2684" cy="1560" r="58" fill="#FFFFFF" opacity="0.076" /><circle cx="2576" cy="1711" r="113" fill="#FFFFFF" opacity="0.214" /><circle cx="521" cy="421" r="157" fill="#FFFFFF" opacity="0.175" /><circle cx="1540" cy="607" r="147" fill="#FFFFFF" opacity="0.207" /><circle cx="1698" cy="1858" r="42" fill="#FFFFFF" opacity="0.177" /><circle cx="2210" cy="1059" r="138" fill="#FFFFFF" opacity="0.164" /><circle cx="1239" cy="813" r="150" fill="#FFFFFF" opacity="0.212" /><circle cx="1780" cy="1422" r="55" fill="#FFFFFF" opacity="0.088" /><circle cx="2271" cy="740" r="94" fill="#FFFFFF" opacity="0.232" /><circle cx="2505" cy="425" r="68" fill="#FFFFFF" opacity="0.139" /><circle cx="1956" cy="962" r="58" fill="#FFFFFF" opacity="0.159" /><circle cx="930" cy="1970" r="56" fill="#FFFFFF" opacity="0.146" /><circle cx="1513" cy="937" r="86" fill="#FFFFFF" opacity="0.129" /><circle cx="1187" cy="906" r="84" fill="#FFFFFF" opacity="0.135" /><circle cx="623" cy="2289" r="77" fill="#FFFFFF" opacity="0.114" /><circle cx="1010" cy="2507" r="108" fill="#FFFFFF" opacity="0.226" /><circle cx="1904" cy="1398" r="134" fill="#FFFFFF" opacity="0.199" /></g>
  <g><path d="M 254.6 626.0 L 2682.2 349.5 L 2682.2 784.5 L 254.6 1060.9 Z" fill="#FFFFFF" opacity="0.199" /><path d="M 368.1 868.1 L 2895.7 591.6 L 2895.7 1028.0 L 368.1 1304.5 Z" fill="#FFFFFF" opacity="0.134" /><path d="M 304.7 1165.3 L 2923.6 888.8 L 2923.6 1371.0 L 304.7 1647.4 Z" fill="#FFFFFF" opacity="0.148" /><path d="M 169.1 1442.9 L 2742.7 1166.4 L 2742.7 1590.4 L 169.1 1866.9 Z" fill="#FFFFFF" opacity="0.212" /><path d="M 297.9 1698.5 L 2705.0 1422.0 L 2705.0 1909.9 L 297.9 2186.4 Z" fill="#FFFFFF" opacity="0.178" /><path d="M 339.0 1903.0 L 2766.7 1626.5 L 2766.7 2052.7 L 339.0 2329.2 Z" fill="#FFFFFF" opacity="0.226" /><path d="M 268.3 2196.5 L 2733.2 1920.0 L 2733.2 2381.7 L 268.3 2658.1 Z" fill="#FFFFFF" opacity="0.155" /><path d="M 296.5 2403.9 L 2692.0 2127.5 L 2692.0 2601.2 L 296.5 2877.7 Z" fill="#FFFFFF" opacity="0.120" /></g>
  <g filter="url(#soft41)"><g transform="rotate(-19.93 1536.0 1536.0)"><path d="M-368.6 513.0 C -225.8 440.8, -25.8 569.7, 107.5 484.3 C 250.4 473.5, 450.4 530.6, 583.7 527.0 C 726.5 531.2, 926.5 497.1, 1059.8 561.1 C 1202.7 557.1, 1402.7 462.6, 1536.0 566.1 C 1678.8 555.9, 1878.8 468.2, 2012.2 538.9 C 2155.0 539.3, 2355.0 487.1, 2488.3 496.0 C 2631.2 490.8, 2831.2 524.1, 2964.5 463.4 C 3107.3 462.3, 3307.3 540.7, 3440.6 460.9" fill="none" stroke="url(#ribbon41)" stroke-width="58.4" stroke-linecap="round" stroke-opacity="0.120" /></g><g transform="rotate(-19.35 1536.0 1536.0)"><path d="M-368.6 764.7 C -241.7 728.0, -63.9 786.6, 54.6 705.1 C 181.6 706.4, 359.4 831.9, 477.9 709.9 C 604.8 723.1, 782.6 800.6, 901.1 748.0 C 1028.1 746.9, 1205.9 784.1, 1324.4 796.2 C 1451.3 783.7, 1629.1 738.6, 1747.6 825.2 C 1874.6 808.8, 2052.4 721.6, 2170.9 817.6 C 2297.9 831.7, 2475.6 714.2, 2594.1 777.8 C 2721.1 773.5, 2898.9 753.8, 3017.4 730.1 C 3144.4 737.8, 3322.1 785.7, 3440.6 703.3" fill="none" stroke="url(#ribbon41)" stroke-width="54.4" stroke-linecap="round" stroke-opacity="0.146" /></g><g transform="rotate(-18.77 1536.0 1536.0)"><path d="M-368.6 952.7 C -254.4 907.3, -94.4 990.8, 12.3 967.7 C 126.6 971.7, 286.6 945.1, 393.2 1011.8 C 507.5 1024.0, 667.5 917.2, 774.1 1020.1 C 888.4 1021.3, 1048.4 875.9, 1155.1 987.5 C 1269.4 1000.1, 1429.3 931.5, 1536.0 933.9 C 1650.3 939.5, 1810.3 963.6, 1916.9 891.7 C 2031.2 894.8, 2191.2 1014.5, 2297.9 886.5 C 2412.1 889.2, 2572.1 974.0, 2678.8 921.5 C 2793.1 928.6, 2953.1 984.0, 3059.7 975.5 C 3174.0 982.6, 3334.0 929.2, 3440.6 1015.6" fill="none" stroke="url(#ribbon41)" stroke-width="50.4" stroke-linecap="round" stroke-opacity="0.172" /></g><g transform="rotate(-18.19 1536.0 1536.0)"><path d="M-368.6 1087.1 C -264.8 1091.4, -119.3 1079.6, -22.3 1146.6 C 81.5 1168.5, 227.0 1016.9, 324.0 1163.1 C 427.8 1134.8, 573.3 1019.2, 670.3 1133.5 C 774.1 1144.0, 919.6 1050.1, 1016.6 1075.8 C 1120.4 1079.5, 1265.9 1091.4, 1362.9 1025.0 C 1466.7 1031.8, 1612.2 1119.0, 1709.1 1011.8 C 1813.0 1023.6, 1958.5 1126.1, 2055.4 1044.4 C 2159.3 1033.6, 2304.8 1107.9, 2401.7 1102.9 C 2505.6 1107.8, 2651.1 1079.9, 2748.0 1151.8 C 2851.9 1150.8, 2997.4 1015.7, 3094.3 1161.5 C 3198.2 1177.6, 3343.7 1039.8, 3440.6 1126.1" fill="none" stroke="url(#ribbon41)" stroke-width="46.4" stroke-linecap="round" stroke-opacity="0.198" /></g><g transform="rotate(-17.61 1536.0 1536.0)"><path d="M-368.6 1291.5 C -273.4 1211.7, -140.1 1377.1, -51.2 1262.2 C 44.0 1263.4, 177.4 1321.3, 266.2 1327.2 C 361.5 1336.8, 494.8 1264.3, 583.7 1370.6 C 678.9 1371.8, 812.2 1203.9, 901.1 1365.9 C 996.4 1343.0, 1129.7 1208.0, 1218.6 1316.1 C 1313.8 1320.4, 1447.1 1271.1, 1536.0 1251.3 C 1631.2 1241.5, 1764.6 1313.9, 1853.4 1210.9 C 1948.7 1201.5, 2082.0 1320.4, 2170.9 1219.4 C 2266.1 1239.1, 2399.4 1354.4, 2488.3 1271.6 C 2583.6 1273.4, 2716.9 1311.0, 2805.8 1335.8 C 2901.0 1319.9, 3034.3 1262.9, 3123.2 1373.2 C 3218.4 1368.7, 3351.8 1246.1, 3440.6 1361.0" fill="none" stroke="url(#ribbon41)" stroke-width="42.4" stroke-linecap="round" stroke-opacity="0.224" /></g><g transform="rotate(-17.03 1536.0 1536.0)"><path d="M-368.6 1548.3 C -225.8 1485.8, -25.8 1598.3, 107.5 1457.7 C 250.4 1444.2, 450.4 1630.3, 583.7 1482.5 C 726.5 1478.8, 926.5 1622.3, 1059.8 1547.2 C 1202.7 1547.3, 1402.7 1548.6, 1536.0 1612.5 C 1678.8 1625.7, 1878.8 1480.2, 2012.2 1638.9 C 2155.0 1665.3, 2355.0 1462.9, 2488.3 1610.3 C 2631.2 1589.3, 2831.2 1496.3, 2964.5 1544.1 C 3107.3 1543.7, 3307.3 1551.8, 3440.6 1480.4" fill="none" stroke="url(#ribbon41)" stroke-width="38.4" stroke-linecap="round" stroke-opacity="0.250" /></g><g transform="rotate(-16.45 1536.0 1536.0)"><path d="M-368.6 1688.1 C -241.7 1788.1, -63.9 1615.0, 54.6 1733.1 C 181.6 1735.6, 359.4 1637.5, 477.9 1657.2 C 604.8 1668.8, 782.6 1719.9, 901.1 1600.1 C 1028.1 1570.8, 1205.9 1719.8, 1324.4 1596.4 C 1451.3 1625.3, 1629.1 1776.9, 1747.6 1648.3 C 1874.6 1644.4, 2052.4 1732.6, 2170.9 1724.3 C 2297.9 1728.7, 2475.6 1666.6, 2594.1 1778.4 C 2721.1 1747.5, 2898.9 1598.0, 3017.4 1777.7 C 3144.4 1804.9, 3322.1 1586.0, 3440.6 1722.7" fill="none" stroke="url(#ribbon41)" stroke-width="34.4" stroke-linecap="round" stroke-opacity="0.276" /></g><g transform="rotate(-15.87 1536.0 1536.0)"><path d="M-368.6 1835.1 C -254.4 1923.0, -94.4 1743.3, 12.3 1843.5 C 126.6 1840.2, 286.6 1828.8, 393.2 1766.0 C 507.5 1789.1, 667.5 1882.1, 774.1 1730.5 C 888.4 1693.8, 1048.4 1954.6, 1155.1 1758.4 C 1269.4 1750.8, 1429.3 1898.8, 1536.0 1832.8 C 1650.3 1833.1, 1810.3 1836.9, 1916.9 1908.6 C 2031.2 1920.2, 2191.2 1793.8, 2297.9 1939.8 C 2412.1 1904.7, 2572.1 1794.1, 2678.8 1907.5 C 2793.1 1882.6, 2953.1 1753.0, 3059.7 1831.3 C 3174.0 1832.5, 3334.0 1836.6, 3440.6 1757.3" fill="none" stroke="url(#ribbon41)" stroke-width="30.4" stroke-linecap="round" stroke-opacity="0.302" /></g><g transform="rotate(-15.29 1536.0 1536.0)"><path d="M-368.6 2026.5 C -264.8 1901.3, -119.3 2146.7, -22.3 1938.4 C 81.5 1925.7, 227.0 2129.3, 324.0 2014.5 C 427.8 2014.4, 573.3 2035.6, 670.3 2097.9 C 774.1 2097.4, 919.6 1959.6, 1016.6 2138.0 C 1120.4 2127.3, 1265.9 1956.2, 1362.9 2110.5 C 1466.7 2129.2, 1612.2 1985.6, 1709.1 2032.0 C 1813.0 2030.3, 1958.5 2022.1, 2055.4 1950.2 C 2159.3 1966.5, 2304.8 2115.6, 2401.7 1914.7 C 2505.6 1935.9, 2651.1 2078.4, 2748.0 1947.0 C 2851.9 1974.3, 2997.4 2053.0, 3094.3 2027.6 C 3198.2 2027.7, 3343.7 2025.7, 3440.6 2107.5" fill="none" stroke="url(#ribbon41)" stroke-width="26.4" stroke-linecap="round" stroke-opacity="0.328" /></g><g transform="rotate(-14.71 1536.0 1536.0)"><path d="M-368.6 2276.5 C -273.4 2390.4, -140.1 2181.3, -51.2 2344.5 C 44.0 2318.0, 177.4 2232.5, 266.2 2254.0 C 361.5 2261.6, 494.8 2284.0, 583.7 2177.1 C 678.9 2179.4, 812.2 2313.5, 901.1 2160.4 C 996.4 2197.8, 1129.7 2355.6, 1218.6 2214.2 C 1313.8 2202.9, 1447.1 2337.6, 1536.0 2305.8 C 1631.2 2313.9, 1764.6 2253.1, 1853.4 2379.5 C 1948.7 2405.0, 2082.0 2210.0, 2170.9 2390.8 C 2266.1 2359.4, 2399.4 2230.7, 2488.3 2332.7 C 2583.6 2332.8, 2716.9 2231.2, 2805.8 2240.5 C 2901.0 2226.6, 3034.3 2288.3, 3123.2 2170.1 C 3218.4 2153.5, 3351.8 2402.9, 3440.6 2164.3" fill="none" stroke="url(#ribbon41)" stroke-width="22.4" stroke-linecap="round" stroke-opacity="0.354" /></g><g transform="rotate(-14.13 1536.0 1536.0)"><path d="M-368.6 2454.9 C -225.8 2514.0, -25.8 2410.1, 107.5 2571.5 C 250.4 2558.3, 450.4 2408.5, 583.7 2570.4 C 726.5 2607.8, 926.5 2416.4, 1059.8 2499.2 C 1202.7 2509.0, 1402.7 2433.0, 1536.0 2401.2 C 1678.8 2422.6, 1878.8 2503.2, 2012.2 2335.8 C 2155.0 2381.9, 2355.0 2510.9, 2488.3 2342.6 C 2631.2 2383.7, 2831.2 2576.1, 2964.5 2417.5 C 3107.3 2410.5, 3307.3 2475.1, 3440.6 2515.2" fill="none" stroke="url(#ribbon41)" stroke-width="18.4" stroke-linecap="round" stroke-opacity="0.380" /></g><g transform="rotate(-13.55 1536.0 1536.0)"><path d="M-368.6 2631.1 C -241.7 2610.0, -63.9 2643.9, 54.6 2522.6 C 181.6 2543.9, 359.4 2680.2, 477.9 2500.3 C 604.8 2534.2, 782.6 2755.0, 901.1 2557.4 C 1028.1 2536.3, 1205.9 2703.5, 1324.4 2659.2 C 1451.3 2659.7, 1629.1 2620.2, 1747.6 2744.0 C 1874.6 2743.5, 2052.4 2548.9, 2170.9 2760.3 C 2297.9 2737.0, 2475.6 2505.3, 2594.1 2698.3 C 2721.1 2704.7, 2898.9 2610.3, 3017.4 2595.6 C 3144.4 2609.7, 3322.1 2667.5, 3440.6 2514.4" fill="none" stroke="url(#ribbon41)" stroke-width="14.4" stroke-linecap="round" stroke-opacity="0.406" /></g></g>
  <g><ellipse cx="1536.0" cy="1551.9" rx="728.6" ry="605.7" fill="url(#extrude41)" opacity="0.220" /><ellipse cx="1536.0" cy="1567.7" rx="736.0" ry="610.9" fill="url(#extrude41)" opacity="0.205" /><ellipse cx="1536.0" cy="1583.6" rx="743.4" ry="616.1" fill="url(#extrude41)" opacity="0.190" /><ellipse cx="1536.0" cy="1599.5" rx="750.9" ry="621.3" fill="url(#extrude41)" opacity="0.175" /><ellipse cx="1536.0" cy="1615.4" rx="758.3" ry="626.5" fill="url(#extrude41)" opacity="0.160" /><ellipse cx="1536.0" cy="1631.2" rx="765.7" ry="631.7" fill="url(#extrude41)" opacity="0.145" /><ellipse cx="1536.0" cy="1647.1" rx="773.2" ry="636.9" fill="url(#extrude41)" opacity="0.130" /><ellipse cx="1536.0" cy="1663.0" rx="780.6" ry="642.1" fill="url(#extrude41)" opacity="0.115" /><ellipse cx="1536.0" cy="1678.8" rx="788.0" ry="647.4" fill="url(#extrude41)" opacity="0.100" /><ellipse cx="1536.0" cy="1694.7" rx="795.5" ry="652.6" fill="url(#extrude41)" opacity="0.085" /><ellipse cx="1536.0" cy="1710.6" rx="802.9" ry="657.8" fill="url(#extrude41)" opacity="0.070" /><ellipse cx="1536.0" cy="1726.5" rx="810.3" ry="663.0" fill="url(#extrude41)" opacity="0.055" /></g>
  <ellipse cx="1536.0" cy="1726.5" rx="773.2" ry="214.9" fill="#0B1D2D" opacity="0.24" />
  <ellipse cx="1536.0" cy="1536.0" rx="743.4" ry="651.3" fill="url(#orb41)" stroke="#FFFFFF" stroke-opacity="0.42" stroke-width="7" />
  <ellipse cx="1431.9" cy="1392.7" rx="505.5" ry="299.6" fill="#FFFFFF" opacity="0.25" />
  <path d="M 199.4 399.4 C 1013.8 -30.7, 2058.2 768.0, 2872.6 215.0 L 2872.6 983.0 C 2089.0 1228.8, 1013.8 307.2, 199.4 1167.4 Z" fill="url(#glass41)" />
  <rect x="270" y="270" width="2532" height="2532" rx="430" fill="none" stroke="#FFFFFF" stroke-opacity="0.30" stroke-width="5" />
  <rect x="288.4" y="288.4" width="2495.1" height="2495.1" rx="399" fill="none" stroke="#53E3A6" stroke-opacity="0.35" stroke-width="3" />
  <g filter="url(#soft41)"><rect x="1162" y="2638" width="74" height="2" fill="#FFFFFF" opacity="0.793" /><rect x="1198" y="2602" width="2" height="74" fill="#FFFFFF" opacity="0.793" /><rect x="1713" y="1074" width="30" height="2" fill="#FFFFFF" opacity="0.364" /><rect x="1727" y="1060" width="2" height="30" fill="#FFFFFF" opacity="0.364" /><rect x="1415" y="1453" width="64" height="2" fill="#FFFFFF" opacity="0.604" /><rect x="1446" y="1422" width="2" height="64" fill="#FFFFFF" opacity="0.604" /><rect x="2664" y="1883" width="62" height="2" fill="#FFFFFF" opacity="0.354" /><rect x="2694" y="1853" width="2" height="62" fill="#FFFFFF" opacity="0.354" /><rect x="1267" y="508" width="78" height="2" fill="#FFFFFF" opacity="0.448" /><rect x="1305" y="470" width="2" height="78" fill="#FFFFFF" opacity="0.448" /><rect x="1093" y="1855" width="66" height="2" fill="#FFFFFF" opacity="0.393" /><rect x="1125" y="1823" width="2" height="66" fill="#FFFFFF" opacity="0.393" /><rect x="1015" y="2109" width="60" height="2" fill="#FFFFFF" opacity="0.783" /><rect x="1044" y="2080" width="2" height="60" fill="#FFFFFF" opacity="0.783" /><rect x="518" y="2300" width="60" height="2" fill="#FFFFFF" opacity="0.792" /><rect x="547" y="2271" width="2" height="60" fill="#FFFFFF" opacity="0.792" /><rect x="2388" y="797" width="38" height="2" fill="#FFFFFF" opacity="0.530" /><rect x="2406" y="779" width="2" height="38" fill="#FFFFFF" opacity="0.530" /><rect x="1841" y="263" width="56" height="2" fill="#FFFFFF" opacity="0.615" /><rect x="1868" y="236" width="2" height="56" fill="#FFFFFF" opacity="0.615" /><rect x="2642" y="1870" width="34" height="2" fill="#FFFFFF" opacity="0.789" /><rect x="2658" y="1854" width="2" height="34" fill="#FFFFFF" opacity="0.789" /><rect x="2519" y="507" width="58" height="2" fill="#FFFFFF" opacity="0.648" /><rect x="2547" y="479" width="2" height="58" fill="#FFFFFF" opacity="0.648" /><rect x="2645" y="392" width="56" height="2" fill="#FFFFFF" opacity="0.738" /><rect x="2672" y="365" width="2" height="56" fill="#FFFFFF" opacity="0.738" /><rect x="2212" y="584" width="48" height="2" fill="#FFFFFF" opacity="0.765" /><rect x="2235" y="561" width="2" height="48" fill="#FFFFFF" opacity="0.765" /><rect x="1267" y="1289" width="66" height="2" fill="#FFFFFF" opacity="0.592" /><rect x="1299" y="1257" width="2" height="66" fill="#FFFFFF" opacity="0.592" /><rect x="2231" y="1878" width="62" height="2" fill="#FFFFFF" opacity="0.496" /><rect x="2261" y="1848" width="2" height="62" fill="#FFFFFF" opacity="0.496" /><rect x="1219" y="2451" width="42" height="2" fill="#FFFFFF" opacity="0.598" /><rect x="1239" y="2431" width="2" height="42" fill="#FFFFFF" opacity="0.598" /><rect x="1484" y="1289" width="56" height="2" fill="#FFFFFF" opacity="0.584" /><rect x="1511" y="1262" width="2" height="56" fill="#FFFFFF" opacity="0.584" /><rect x="1173" y="1287" width="80" height="2" fill="#FFFFFF" opacity="0.485" /><rect x="1212" y="1248" width="2" height="80" fill="#FFFFFF" opacity="0.485" /><rect x="1245" y="1329" width="48" height="2" fill="#FFFFFF" opacity="0.594" /><rect x="1268" y="1306" width="2" height="48" fill="#FFFFFF" opacity="0.594" /><rect x="2133" y="2075" width="26" height="2" fill="#FFFFFF" opacity="0.457" /><rect x="2145" y="2063" width="2" height="26" fill="#FFFFFF" opacity="0.457" /><rect x="1371" y="862" width="66" height="2" fill="#FFFFFF" opacity="0.817" /><rect x="1403" y="830" width="2" height="66" fill="#FFFFFF" opacity="0.817" /><rect x="2164" y="1418" width="26" height="2" fill="#FFFFFF" opacity="0.434" /><rect x="2176" y="1406" width="2" height="26" fill="#FFFFFF" opacity="0.434" /><rect x="483" y="1739" width="32" height="2" fill="#FFFFFF" opacity="0.773" /><rect x="498" y="1724" width="2" height="32" fill="#FFFFFF" opacity="0.773" /><rect x="619" y="2209" width="36" height="2" fill="#FFFFFF" opacity="0.837" /><rect x="636" y="2192" width="2" height="36" fill="#FFFFFF" opacity="0.837" /><rect x="2401" y="1107" width="42" height="2" fill="#FFFFFF" opacity="0.358" /><rect x="2421" y="1087" width="2" height="42" fill="#FFFFFF" opacity="0.358" /></g>
  <g opacity="0.52"><rect x="1023" y="1121" width="1152" height="1024" rx="153" fill="none" stroke="#0C2030" stroke-width="90" /><line x1="1023" y1="1326" x2="2148" y2="1326" stroke="#0C2030" stroke-width="90" /><line x1="1316" y1="1033" x2="1316" y2="1121" stroke="#0C2030" stroke-width="90" /><line x1="1828" y1="1033" x2="1828" y2="1121" stroke="#0C2030" stroke-width="90" /></g>
  <g filter="url(#soft41)"><rect x="987" y="1075" width="1152" height="1024" rx="153" fill="none" stroke="url(#symbol41)" stroke-width="90" /><line x1="987" y1="1280" x2="2112" y2="1280" stroke="url(#symbol41)" stroke-width="90" /><line x1="1280" y1="987" x2="1280" y2="1075" stroke="url(#symbol41)" stroke-width="90" /><line x1="1792" y1="987" x2="1792" y2="1075" stroke="url(#symbol41)" stroke-width="90" /></g>
  <rect x="138" y="138" width="2796" height="2796" rx="629" fill="#FFFFFF" filter="url(#grain41)" opacity="0.18" />
</svg>
