<svg xmlns="http://www.w3.org/2000/svg" width="3072" height="3072" viewBox="0 0 3072 3072">
  <title>QuartzOS App Icon 102 - nova_cloud_102</title>
  <defs><linearGradient id="bg101" x1="0%" y1="0%" x2="100%" y2="100%"><stop offset="0%" stop-color="#FF6AB3" /><stop offset="26%" stop-color="#FFD84D" /><stop offset="56%" stop-color="#36D1FF" /><stop offset="78%" stop-color="#B37A46" /><stop offset="100%" stop-color="#27201B" /></linearGradient><radialGradient id="sun101" cx="30%" cy="10%" r="88%"><stop offset="0%" stop-color="#FFFFFF" stop-opacity="0.62" /><stop offset="30%" stop-color="#3B82FF" stop-opacity="0.35" /><stop offset="100%" stop-color="#3B82FF" stop-opacity="0" /></radialGradient><linearGradient id="glass101" x1="0%" y1="0%" x2="0%" y2="100%"><stop offset="0%" stop-color="#FFFFFF" stop-opacity="0.70" /><stop offset="46%" stop-color="#FFFFFF" stop-opacity="0.26" /><stop offset="100%" stop-color="#FFFFFF" stop-opacity="0.00" /></linearGradient><linearGradient id="ribbon101" x1="0%" y1="0%" x2="100%" y2="0%"><stop offset="0%" stop-color="#FF6AB3" stop-opacity="0.18" /><stop offset="34%" stop-color="#FFD84D" stop-opacity="0.72" /><stop offset="66%" stop-color="#36D1FF" stop-opacity="0.72" /><stop offset="100%" stop-color="#3B82FF" stop-opacity="0.18" /></linearGradient><radialGradient id="orb101" cx="34%" cy="27%" r="74%"><stop offset="0%" stop-color="#FFFFFF" stop-opacity="0.84" /><stop offset="30%" stop-color="#FF6AB3" stop-opacity="0.52" /><stop offset="68%" stop-color="#FFD84D" stop-opacity="0.42" /><stop offset="100%" stop-color="#36D1FF" stop-opacity="0.20" /></radialGradient><linearGradient id="extrude101" x1="0%" y1="0%" x2="0%" y2="100%"><stop offset="0%" stop-color="#15283C" stop-opacity="0.45" /><stop offset="100%" stop-color="#08131D" stop-opacity="0.06" /></linearGradient><linearGradient id="symbol101" x1="0%" y1="0%" x2="100%" y2="100%"><stop offset="0%" stop-color="#FFFFFF" /><stop offset="100%" stop-color="#3B82FF" /></linearGradient><filter id="shadow101" x="-40%" y="-40%" width="180%" height="180%"><feDropShadow dx="0" dy="49" stdDeviation="86" flood-color="#06111A" flood-opacity="0.54" /></filter><filter id="soft101" x="-40%" y="-40%" width="180%" height="180%"><feDropShadow dx="0" dy="0" stdDeviation="14" flood-color="#FF6AB3" flood-opacity="0.45" /></filter><filter id="grain101"><feTurbulence type="fractalNoise" baseFrequency="0.718" numOctaves="2" seed="101" /><feColorMatrix type="saturate" values="0" /><feComponentTransfer><feFuncA type="table" tableValues="0 0.09" /></feComponentTransfer></filter></defs>
  <rect x="138" y="138" width="2796" height="2796" rx="629" fill="url(#bg101)" filter="url(#shadow101)" />
  <rect x="138" y="138" width="2796" height="2796" rx="629" fill="url(#sun101)" />
  <g><circle cx="1940" cy="692" r="68" fill="#FFFFFF" opacity="0.181" /><circle cx="1168" cy="1942" r="128" fill="#FFFFFF" opacity="0.232" /><circle cx="718" cy="2031" r="73" fill="#FFFFFF" opacity="0.226" /><circle cx="2358" cy="1086" r="101" fill="#FFFFFF" opacity="0.114" /><circle cx="477" cy="2192" r="100" fill="#FFFFFF" opacity="0.087" /><circle cx="1117" cy="1177" r="133" fill="#FFFFFF" opacity="0.234" /><circle cx="759" cy="1102" r="123" fill="#FFFFFF" opacity="0.210" /><circle cx="600" cy="885" r="57" fill="#FFFFFF" opacity="0.238" /><circle cx="1955" cy="1525" r="55" fill="#FFFFFF" opacity="0.195" /><circle cx="1337" cy="2108" r="89" fill="#FFFFFF" opacity="0.169" /><circle cx="2040" cy="1501" r="109" fill="#FFFFFF" opacity="0.227" /><circle cx="1255" cy="693" r="47" fill="#FFFFFF" opacity="0.187" /><circle cx="1050" cy="1312" r="40" fill="#FFFFFF" opacity="0.079" /><circle cx="1098" cy="1267" r="145" fill="#FFFFFF" opacity="0.214" /><circle cx="1614" cy="1019" r="81" fill="#FFFFFF" opacity="0.201" /><circle cx="1244" cy="1067" r="45" fill="#FFFFFF" opacity="0.219" /><circle cx="876" cy="542" r="136" fill="#FFFFFF" opacity="0.214" /><circle cx="1579" cy="2675" r="97" fill="#FFFFFF" opacity="0.239" /><circle cx="1832" cy="2281" r="55" fill="#FFFFFF" opacity="0.197" /><circle cx="2100" cy="545" r="94" fill="#FFFFFF" opacity="0.153" /><circle cx="2040" cy="1915" r="133" fill="#FFFFFF" opacity="0.102" /><circle cx="1925" cy="1223" r="104" fill="#FFFFFF" opacity="0.085" /><circle cx="1741" cy="910" r="112" fill="#FFFFFF" opacity="0.168" /><circle cx="1351" cy="589" r="157" fill="#FFFFFF" opacity="0.195" /><circle cx="1039" cy="2404" r="122" fill="#FFFFFF" opacity="0.174" /><circle cx="2318" cy="1984" r="50" fill="#FFFFFF" opacity="0.210" /><circle cx="2475" cy="2454" r="130" fill="#FFFFFF" opacity="0.235" /><circle cx="2593" cy="938" r="94" fill="#FFFFFF" opacity="0.136" /></g>
  <g><path d="M 176.7 658.9 L 2803.3 382.4 L 2803.3 811.3 L 176.7 1087.8 Z" fill="#FFFFFF" opacity="0.217" /><path d="M 345.0 863.8 L 2826.8 587.3 L 2826.8 1026.3 L 345.0 1302.8 Z" fill="#FFFFFF" opacity="0.124" /><path d="M 158.1 1157.8 L 2873.2 881.4 L 2873.2 1361.0 L 158.1 1637.5 Z" fill="#FFFFFF" opacity="0.207" /><path d="M 323.5 1408.4 L 2814.5 1131.9 L 2814.5 1569.7 L 323.5 1846.2 Z" fill="#FFFFFF" opacity="0.101" /><path d="M 198.4 1670.4 L 2840.9 1393.9 L 2840.9 1851.1 L 198.4 2127.5 Z" fill="#FFFFFF" opacity="0.223" /><path d="M 306.7 1890.5 L 2686.3 1614.0 L 2686.3 2080.2 L 306.7 2356.7 Z" fill="#FFFFFF" opacity="0.127" /><path d="M 208.7 2188.5 L 2822.8 1912.0 L 2822.8 2338.6 L 208.7 2615.1 Z" fill="#FFFFFF" opacity="0.214" /><path d="M 251.7 2470.7 L 2790.4 2194.2 L 2790.4 2682.8 L 251.7 2959.3 Z" fill="#FFFFFF" opacity="0.187" /></g>
  <g filter="url(#soft101)"><g transform="rotate(-7.45 1536.0 1536.0)"><path d="M-368.6 549.3 C -225.8 584.4, -25.8 524.7, 107.5 535.7 C 250.4 530.9, 450.4 554.5, 583.7 501.4 C 726.5 496.6, 926.5 570.9, 1059.8 496.2 C 1202.7 491.8, 1402.7 606.1, 1536.0 523.2 C 1678.8 517.3, 1878.8 562.5, 2012.2 566.1 C 2155.0 570.8, 2355.0 533.4, 2488.3 598.8 C 2631.2 617.1, 2831.2 522.5, 2964.5 601.5 C 3107.3 597.6, 3307.3 509.9, 3440.6 572.5" fill="none" stroke="url(#ribbon101)" stroke-width="58.4" stroke-linecap="round" stroke-opacity="0.120" /></g><g transform="rotate(-6.87 1536.0 1536.0)"><path d="M-368.6 687.3 C -241.7 647.8, -63.9 741.2, 54.6 686.5 C 181.6 686.2, 359.4 688.1, 477.9 731.5 C 604.8 740.3, 782.6 658.5, 901.1 749.6 C 1028.1 755.7, 1205.9 668.2, 1324.4 730.0 C 1451.3 737.4, 1629.1 665.8, 1747.6 684.4 C 1874.6 684.6, 2052.4 690.4, 2170.9 640.6 C 2297.9 652.0, 2475.6 735.9, 2594.1 625.1 C 2721.1 635.0, 2898.9 739.5, 3017.4 647.3 C 3144.4 639.2, 3322.1 705.6, 3440.6 693.8" fill="none" stroke="url(#ribbon101)" stroke-width="54.4" stroke-linecap="round" stroke-opacity="0.146" /></g><g transform="rotate(-6.29 1536.0 1536.0)"><path d="M-368.6 856.1 C -254.4 893.7, -94.4 807.1, 12.3 925.5 C 126.6 920.9, 286.6 831.6, 393.2 906.6 C 507.5 926.2, 667.5 837.0, 774.1 857.1 C 888.4 857.4, 1048.4 855.8, 1155.1 807.0 C 1269.4 804.3, 1429.3 891.6, 1536.0 786.7 C 1650.3 763.0, 1810.3 907.9, 1916.9 808.4 C 2031.2 824.6, 2191.2 896.0, 2297.9 859.1 C 2412.1 859.6, 2572.1 852.7, 2678.8 908.0 C 2793.1 925.3, 2953.1 806.2, 3059.7 925.3 C 3174.0 917.0, 3334.0 816.3, 3440.6 900.7" fill="none" stroke="url(#ribbon101)" stroke-width="50.4" stroke-linecap="round" stroke-opacity="0.172" /></g><g transform="rotate(-5.71 1536.0 1536.0)"><path d="M-368.6 1075.6 C -264.8 1097.3, -119.3 1063.8, -22.3 1037.2 C 81.5 1034.7, 227.0 1107.1, 324.0 1001.4 C 427.8 1026.2, 573.3 1100.5, 670.3 1010.6 C 774.1 988.7, 919.6 1098.1, 1016.6 1059.2 C 1120.4 1060.8, 1265.9 1093.6, 1362.9 1117.7 C 1466.7 1119.9, 1612.2 1043.4, 1709.1 1150.8 C 1813.0 1135.6, 1958.5 1011.6, 2055.4 1138.2 C 2159.3 1161.9, 2304.8 1015.2, 2401.7 1087.6 C 2505.6 1088.0, 2651.1 1066.2, 2748.0 1029.8 C 2851.9 1013.9, 2997.4 1094.7, 3094.3 999.7 C 3198.2 1022.1, 3343.7 1153.6, 3440.6 1015.7" fill="none" stroke="url(#ribbon101)" stroke-width="46.4" stroke-linecap="round" stroke-opacity="0.198" /></g><g transform="rotate(-5.13 1536.0 1536.0)"><path d="M-368.6 1319.3 C -273.4 1323.1, -140.1 1316.2, -51.2 1381.5 C 44.0 1369.1, 177.4 1279.1, 266.2 1402.7 C 361.5 1379.7, 494.8 1286.6, 583.7 1373.4 C 678.9 1363.1, 812.2 1282.7, 901.1 1311.3 C 996.4 1311.8, 1129.7 1324.4, 1218.6 1254.1 C 1313.8 1278.9, 1447.1 1382.9, 1536.0 1236.4 C 1631.2 1240.9, 1764.6 1403.6, 1853.4 1269.1 C 1948.7 1264.2, 2082.0 1353.2, 2170.9 1332.2 C 2266.1 1328.5, 2399.4 1308.5, 2488.3 1387.5 C 2583.6 1374.2, 2716.9 1292.2, 2805.8 1401.5 C 2901.0 1426.6, 3034.3 1260.4, 3123.2 1365.6 C 3218.4 1354.8, 3351.8 1269.2, 3440.6 1301.7" fill="none" stroke="url(#ribbon101)" stroke-width="42.4" stroke-linecap="round" stroke-opacity="0.224" /></g><g transform="rotate(-4.55 1536.0 1536.0)"><path d="M-368.6 1532.9 C -225.8 1559.5, -25.8 1499.5, 107.5 1505.5 C 250.4 1496.8, 450.4 1558.8, 583.7 1451.9 C 726.5 1427.7, 926.5 1595.2, 1059.8 1447.4 C 1202.7 1456.2, 1402.7 1573.1, 1536.0 1494.8 C 1678.8 1505.3, 1878.8 1572.3, 2012.2 1565.3 C 2155.0 1567.6, 2355.0 1515.5, 2488.3 1616.2 C 2631.2 1637.1, 2831.2 1496.0, 2964.5 1616.6 C 3107.3 1585.4, 3307.3 1458.4, 3440.6 1566.2" fill="none" stroke="url(#ribbon101)" stroke-width="38.4" stroke-linecap="round" stroke-opacity="0.250" /></g><g transform="rotate(-3.97 1536.0 1536.0)"><path d="M-368.6 1736.7 C -241.7 1654.3, -63.9 1782.5, 54.6 1723.7 C 181.6 1723.0, 359.4 1748.4, 477.9 1797.1 C 604.8 1775.1, 782.6 1704.8, 901.1 1833.8 C 1028.1 1863.9, 1205.9 1635.8, 1324.4 1811.7 C 1451.3 1800.6, 1629.1 1696.5, 1747.6 1744.0 C 1874.6 1741.6, 2052.4 1728.7, 2170.9 1671.9 C 2297.9 1678.3, 2475.6 1795.9, 2594.1 1639.1 C 2721.1 1628.3, 2898.9 1781.1, 3017.4 1665.5 C 3144.4 1686.2, 3322.1 1802.6, 3440.6 1735.1" fill="none" stroke="url(#ribbon101)" stroke-width="34.4" stroke-linecap="round" stroke-opacity="0.276" /></g><g transform="rotate(-3.39 1536.0 1536.0)"><path d="M-368.6 1920.4 C -254.4 1984.9, -94.4 1832.2, 12.3 2024.0 C 126.6 2049.4, 286.6 1848.2, 393.2 1981.6 C 507.5 1985.9, 667.5 1862.1, 774.1 1902.0 C 888.4 1908.1, 1048.4 1941.1, 1155.1 1833.6 C 1269.4 1868.3, 1429.3 1951.4, 1536.0 1817.8 C 1650.3 1778.2, 1810.3 2030.7, 1916.9 1864.3 C 2031.2 1860.9, 2191.2 1968.4, 2297.9 1944.7 C 2412.1 1954.1, 2572.1 1892.5, 2678.8 2010.4 C 2793.1 2044.0, 2953.1 1842.7, 3059.7 2021.5 C 3174.0 2042.6, 3334.0 1817.2, 3440.6 1971.3" fill="none" stroke="url(#ribbon101)" stroke-width="30.4" stroke-linecap="round" stroke-opacity="0.302" /></g><g transform="rotate(-2.81 1536.0 1536.0)"><path d="M-368.6 2124.4 C -264.8 2055.8, -119.3 2192.6, -22.3 2040.2 C 81.5 2052.2, 227.0 2197.9, 324.0 2118.4 C 427.8 2116.9, 573.3 2126.2, 670.3 2200.4 C 774.1 2208.9, 919.6 2046.1, 1016.6 2236.2 C 1120.4 2223.5, 1265.9 2031.0, 1362.9 2204.2 C 1466.7 2231.8, 1612.2 2087.3, 1709.1 2123.9 C 1813.0 2124.0, 1958.5 2124.9, 2055.4 2043.8 C 2159.3 2044.2, 2304.8 2185.5, 2401.7 2012.7 C 2505.6 2034.0, 2651.1 2173.0, 2748.0 2049.3 C 2851.9 2043.2, 2997.4 2202.3, 3094.3 2131.5 C 3198.2 2129.3, 3343.7 2121.0, 3440.6 2209.4" fill="none" stroke="url(#ribbon101)" stroke-width="26.4" stroke-linecap="round" stroke-opacity="0.328" /></g><g transform="rotate(-2.23 1536.0 1536.0)"><path d="M-368.6 2259.5 C -273.4 2381.4, -140.1 2223.9, -51.2 2309.6 C 44.0 2325.4, 177.4 2228.8, 266.2 2217.0 C 361.5 2201.9, 494.8 2278.1, 583.7 2150.3 C 678.9 2147.9, 812.2 2360.6, 901.1 2149.7 C 996.4 2154.4, 1129.7 2301.3, 1218.6 2215.8 C 1313.8 2214.9, 1447.1 2309.1, 1536.0 2308.3 C 1631.2 2325.0, 1764.6 2226.1, 1853.4 2371.3 C 1948.7 2335.7, 2082.0 2154.9, 2170.9 2366.4 C 2266.1 2378.1, 2399.4 2200.4, 2488.3 2296.7 C 2583.6 2291.5, 2716.9 2231.8, 2805.8 2204.4 C 2901.0 2188.6, 3034.3 2313.4, 3123.2 2145.5 C 3218.4 2188.7, 3351.8 2366.3, 3440.6 2155.8" fill="none" stroke="url(#ribbon101)" stroke-width="22.4" stroke-linecap="round" stroke-opacity="0.354" /></g><g transform="rotate(-1.65 1536.0 1536.0)"><path d="M-368.6 2460.4 C -225.8 2458.5, -25.8 2461.6, 107.5 2369.0 C 250.4 2366.0, 450.4 2551.0, 583.7 2334.6 C 726.5 2373.8, 926.5 2560.7, 1059.8 2376.5 C 1202.7 2363.2, 1402.7 2518.2, 1536.0 2469.4 C 1678.8 2472.7, 1878.8 2450.7, 2012.2 2556.8 C 2155.0 2540.1, 2355.0 2350.5, 2488.3 2585.7 C 2631.2 2560.8, 2831.2 2420.2, 2964.5 2538.7 C 3107.3 2558.3, 3307.3 2429.3, 3440.6 2444.1" fill="none" stroke="url(#ribbon101)" stroke-width="18.4" stroke-linecap="round" stroke-opacity="0.380" /></g><g transform="rotate(-1.07 1536.0 1536.0)"><path d="M-368.6 2648.3 C -241.7 2622.0, -63.9 2663.1, 54.6 2536.6 C 181.6 2572.4, 359.4 2741.4, 477.9 2518.6 C 604.8 2523.6, 782.6 2724.5, 901.1 2579.3 C 1028.1 2587.1, 1205.9 2724.6, 1324.4 2681.8 C 1451.3 2680.0, 1629.1 2636.6, 1747.6 2764.0 C 1874.6 2745.5, 2052.4 2561.7, 2170.9 2775.9 C 2297.9 2732.8, 2475.6 2514.5, 2594.1 2710.5 C 2721.1 2685.7, 2898.9 2576.7, 3017.4 2607.3 C 3144.4 2599.8, 3322.1 2692.9, 3440.6 2528.9" fill="none" stroke="url(#ribbon101)" stroke-width="14.4" stroke-linecap="round" stroke-opacity="0.406" /></g></g>
  <g><ellipse cx="1536.0" cy="1551.9" rx="728.6" ry="605.7" fill="url(#extrude101)" opacity="0.220" /><ellipse cx="1536.0" cy="1567.7" rx="736.0" ry="610.9" fill="url(#extrude101)" opacity="0.205" /><ellipse cx="1536.0" cy="1583.6" rx="743.4" ry="616.1" fill="url(#extrude101)" opacity="0.190" /><ellipse cx="1536.0" cy="1599.5" rx="750.9" ry="621.3" fill="url(#extrude101)" opacity="0.175" /><ellipse cx="1536.0" cy="1615.4" rx="758.3" ry="626.5" fill="url(#extrude101)" opacity="0.160" /><ellipse cx="1536.0" cy="1631.2" rx="765.7" ry="631.7" fill="url(#extrude101)" opacity="0.145" /><ellipse cx="1536.0" cy="1647.1" rx="773.2" ry="636.9" fill="url(#extrude101)" opacity="0.130" /><ellipse cx="1536.0" cy="1663.0" rx="780.6" ry="642.1" fill="url(#extrude101)" opacity="0.115" /><ellipse cx="1536.0" cy="1678.8" rx="788.0" ry="647.4" fill="url(#extrude101)" opacity="0.100" /><ellipse cx="1536.0" cy="1694.7" rx="795.5" ry="652.6" fill="url(#extrude101)" opacity="0.085" /><ellipse cx="1536.0" cy="1710.6" rx="802.9" ry="657.8" fill="url(#extrude101)" opacity="0.070" /><ellipse cx="1536.0" cy="1726.5" rx="810.3" ry="663.0" fill="url(#extrude101)" opacity="0.055" /></g>
  <ellipse cx="1536.0" cy="1726.5" rx="773.2" ry="214.9" fill="#0B1D2D" opacity="0.24" />
  <ellipse cx="1536.0" cy="1536.0" rx="743.4" ry="651.3" fill="url(#orb101)" stroke="#FFFFFF" stroke-opacity="0.42" stroke-width="7" />
  <ellipse cx="1431.9" cy="1392.7" rx="505.5" ry="299.6" fill="#FFFFFF" opacity="0.25" />
  <path d="M 199.4 399.4 C 1013.8 -30.7, 2058.2 768.0, 2872.6 215.0 L 2872.6 983.0 C 2089.0 1228.8, 1013.8 307.2, 199.4 1167.4 Z" fill="url(#glass101)" />
  <rect x="270" y="270" width="2532" height="2532" rx="430" fill="none" stroke="#FFFFFF" stroke-opacity="0.30" stroke-width="5" />
  <rect x="288.4" y="288.4" width="2495.1" height="2495.1" rx="399" fill="none" stroke="#FF6AB3" stroke-opacity="0.35" stroke-width="3" />
  <g filter="url(#soft101)"><rect x="1033" y="545" width="26" height="2" fill="#FFFFFF" opacity="0.518" /><rect x="1045" y="533" width="2" height="26" fill="#FFFFFF" opacity="0.518" /><rect x="1421" y="1457" width="46" height="2" fill="#FFFFFF" opacity="0.384" /><rect x="1443" y="1435" width="2" height="46" fill="#FFFFFF" opacity="0.384" /><rect x="1966" y="1965" width="60" height="2" fill="#FFFFFF" opacity="0.633" /><rect x="1995" y="1936" width="2" height="60" fill="#FFFFFF" opacity="0.633" /><rect x="1026" y="2127" width="52" height="2" fill="#FFFFFF" opacity="0.815" /><rect x="1051" y="2102" width="2" height="52" fill="#FFFFFF" opacity="0.815" /><rect x="549" y="921" width="28" height="2" fill="#FFFFFF" opacity="0.593" /><rect x="562" y="908" width="2" height="28" fill="#FFFFFF" opacity="0.593" /><rect x="608" y="1090" width="30" height="2" fill="#FFFFFF" opacity="0.727" /><rect x="622" y="1076" width="2" height="30" fill="#FFFFFF" opacity="0.727" /><rect x="2359" y="577" width="32" height="2" fill="#FFFFFF" opacity="0.407" /><rect x="2374" y="562" width="2" height="32" fill="#FFFFFF" opacity="0.407" /><rect x="1667" y="1297" width="50" height="2" fill="#FFFFFF" opacity="0.478" /><rect x="1691" y="1273" width="2" height="50" fill="#FFFFFF" opacity="0.478" /><rect x="1969" y="1101" width="78" height="2" fill="#FFFFFF" opacity="0.758" /><rect x="2007" y="1063" width="2" height="78" fill="#FFFFFF" opacity="0.758" /><rect x="2229" y="964" width="60" height="2" fill="#FFFFFF" opacity="0.725" /><rect x="2258" y="935" width="2" height="60" fill="#FFFFFF" opacity="0.725" /><rect x="2140" y="2052" width="38" height="2" fill="#FFFFFF" opacity="0.847" /><rect x="2158" y="2034" width="2" height="38" fill="#FFFFFF" opacity="0.847" /><rect x="2154" y="763" width="76" height="2" fill="#FFFFFF" opacity="0.353" /><rect x="2191" y="726" width="2" height="76" fill="#FFFFFF" opacity="0.353" /><rect x="1470" y="513" width="44" height="2" fill="#FFFFFF" opacity="0.543" /><rect x="1491" y="492" width="2" height="44" fill="#FFFFFF" opacity="0.543" /><rect x="2445" y="1716" width="76" height="2" fill="#FFFFFF" opacity="0.362" /><rect x="2482" y="1679" width="2" height="76" fill="#FFFFFF" opacity="0.362" /><rect x="1485" y="2614" width="82" height="2" fill="#FFFFFF" opacity="0.770" /><rect x="1525" y="2574" width="2" height="82" fill="#FFFFFF" opacity="0.770" /><rect x="850" y="1366" width="62" height="2" fill="#FFFFFF" opacity="0.490" /><rect x="880" y="1336" width="2" height="62" fill="#FFFFFF" opacity="0.490" /><rect x="2339" y="565" width="28" height="2" fill="#FFFFFF" opacity="0.501" /><rect x="2352" y="552" width="2" height="28" fill="#FFFFFF" opacity="0.501" /><rect x="1532" y="807" width="26" height="2" fill="#FFFFFF" opacity="0.689" /><rect x="1544" y="795" width="2" height="26" fill="#FFFFFF" opacity="0.689" /><rect x="2270" y="864" width="38" height="2" fill="#FFFFFF" opacity="0.788" /><rect x="2288" y="846" width="2" height="38" fill="#FFFFFF" opacity="0.788" /><rect x="896" y="2422" width="32" height="2" fill="#FFFFFF" opacity="0.849" /><rect x="911" y="2407" width="2" height="32" fill="#FFFFFF" opacity="0.849" /><rect x="1430" y="393" width="54" height="2" fill="#FFFFFF" opacity="0.451" /><rect x="1456" y="367" width="2" height="54" fill="#FFFFFF" opacity="0.451" /><rect x="2679" y="863" width="52" height="2" fill="#FFFFFF" opacity="0.414" /><rect x="2704" y="838" width="2" height="52" fill="#FFFFFF" opacity="0.414" /><rect x="1720" y="1081" width="72" height="2" fill="#FFFFFF" opacity="0.452" /><rect x="1755" y="1046" width="2" height="72" fill="#FFFFFF" opacity="0.452" /><rect x="1570" y="2512" width="60" height="2" fill="#FFFFFF" opacity="0.650" /><rect x="1599" y="2483" width="2" height="60" fill="#FFFFFF" opacity="0.650" /><rect x="649" y="2690" width="78" height="2" fill="#FFFFFF" opacity="0.477" /><rect x="687" y="2652" width="2" height="78" fill="#FFFFFF" opacity="0.477" /><rect x="1030" y="395" width="62" height="2" fill="#FFFFFF" opacity="0.755" /><rect x="1060" y="365" width="2" height="62" fill="#FFFFFF" opacity="0.755" /></g>
  <g opacity="0.52"><rect x="1023" y="1121" width="1152" height="1024" rx="153" fill="none" stroke="#0C2030" stroke-width="90" /><line x1="1023" y1="1326" x2="2148" y2="1326" stroke="#0C2030" stroke-width="90" /><line x1="1316" y1="1033" x2="1316" y2="1121" stroke="#0C2030" stroke-width="90" /><line x1="1828" y1="1033" x2="1828" y2="1121" stroke="#0C2030" stroke-width="90" /></g>
  <g filter="url(#soft101)"><rect x="987" y="1075" width="1152" height="1024" rx="153" fill="none" stroke="url(#symbol101)" stroke-width="90" /><line x1="987" y1="1280" x2="2112" y2="1280" stroke="url(#symbol101)" stroke-width="90" /><line x1="1280" y1="987" x2="1280" y2="1075" stroke="url(#symbol101)" stroke-width="90" /><line x1="1792" y1="987" x2="1792" y2="1075" stroke="url(#symbol101)" stroke-width="90" /></g>
  <rect x="138" y="138" width="2796" height="2796" rx="629" fill="#FFFFFF" filter="url(#grain101)" opacity="0.18" />
</svg>
