<svg xmlns="http://www.w3.org/2000/svg" width="3072" height="3072" viewBox="0 0 3072 3072">
  <title>QuartzOS App Icon 022 - nova_studio_022</title>
  <defs><linearGradient id="bg21" x1="0%" y1="0%" x2="100%" y2="100%"><stop offset="0%" stop-color="#36D1FF" /><stop offset="26%" stop-color="#8A5CFF" /><stop offset="56%" stop-color="#FF9F43" /><stop offset="78%" stop-color="#4F79A7" /><stop offset="100%" stop-color="#1B2630" /></linearGradient><radialGradient id="sun21" cx="29%" cy="32%" r="88%"><stop offset="0%" stop-color="#FFFFFF" stop-opacity="0.62" /><stop offset="30%" stop-color="#FFD84D" stop-opacity="0.35" /><stop offset="100%" stop-color="#FFD84D" stop-opacity="0" /></radialGradient><linearGradient id="glass21" x1="0%" y1="0%" x2="0%" y2="100%"><stop offset="0%" stop-color="#FFFFFF" stop-opacity="0.70" /><stop offset="46%" stop-color="#FFFFFF" stop-opacity="0.26" /><stop offset="100%" stop-color="#FFFFFF" stop-opacity="0.00" /></linearGradient><linearGradient id="ribbon21" x1="0%" y1="0%" x2="100%" y2="0%"><stop offset="0%" stop-color="#36D1FF" stop-opacity="0.18" /><stop offset="34%" stop-color="#8A5CFF" stop-opacity="0.72" /><stop offset="66%" stop-color="#FF9F43" stop-opacity="0.72" /><stop offset="100%" stop-color="#FFD84D" stop-opacity="0.18" /></linearGradient><radialGradient id="orb21" cx="34%" cy="27%" r="74%"><stop offset="0%" stop-color="#FFFFFF" stop-opacity="0.84" /><stop offset="30%" stop-color="#36D1FF" stop-opacity="0.52" /><stop offset="68%" stop-color="#8A5CFF" stop-opacity="0.42" /><stop offset="100%" stop-color="#FF9F43" stop-opacity="0.20" /></radialGradient><linearGradient id="extrude21" x1="0%" y1="0%" x2="0%" y2="100%"><stop offset="0%" stop-color="#15283C" stop-opacity="0.45" /><stop offset="100%" stop-color="#08131D" stop-opacity="0.06" /></linearGradient><linearGradient id="symbol21" x1="0%" y1="0%" x2="100%" y2="100%"><stop offset="0%" stop-color="#FFFFFF" /><stop offset="100%" stop-color="#FFD84D" /></linearGradient><filter id="shadow21" x="-40%" y="-40%" width="180%" height="180%"><feDropShadow dx="0" dy="49" stdDeviation="86" flood-color="#06111A" flood-opacity="0.54" /></filter><filter id="soft21" x="-40%" y="-40%" width="180%" height="180%"><feDropShadow dx="0" dy="0" stdDeviation="14" flood-color="#36D1FF" flood-opacity="0.45" /></filter><filter id="grain21"><feTurbulence type="fractalNoise" baseFrequency="0.780" numOctaves="2" seed="21" /><feColorMatrix type="saturate" values="0" /><feComponentTransfer><feFuncA type="table" tableValues="0 0.09" /></feComponentTransfer></filter></defs>
  <rect x="138" y="138" width="2796" height="2796" rx="629" fill="url(#bg21)" filter="url(#shadow21)" />
  <rect x="138" y="138" width="2796" height="2796" rx="629" fill="url(#sun21)" />
  <g><circle cx="2461" cy="715" r="81" fill="#FFFFFF" opacity="0.237" /><circle cx="1226" cy="940" r="158" fill="#FFFFFF" opacity="0.092" /><circle cx="1019" cy="2297" r="112" fill="#FFFFFF" opacity="0.233" /><circle cx="1489" cy="2640" r="134" fill="#FFFFFF" opacity="0.234" /><circle cx="1491" cy="1779" r="98" fill="#FFFFFF" opacity="0.236" /><circle cx="2420" cy="2051" r="107" fill="#FFFFFF" opacity="0.096" /><circle cx="1180" cy="1406" r="46" fill="#FFFFFF" opacity="0.173" /><circle cx="1894" cy="312" r="44" fill="#FFFFFF" opacity="0.225" /><circle cx="1274" cy="1248" r="122" fill="#FFFFFF" opacity="0.173" /><circle cx="1261" cy="1724" r="126" fill="#FFFFFF" opacity="0.194" /><circle cx="370" cy="1528" r="114" fill="#FFFFFF" opacity="0.217" /><circle cx="2157" cy="2376" r="47" fill="#FFFFFF" opacity="0.146" /><circle cx="416" cy="2699" r="99" fill="#FFFFFF" opacity="0.069" /><circle cx="1717" cy="480" r="133" fill="#FFFFFF" opacity="0.095" /><circle cx="1690" cy="885" r="103" fill="#FFFFFF" opacity="0.205" /><circle cx="2514" cy="2071" r="95" fill="#FFFFFF" opacity="0.240" /><circle cx="859" cy="2634" r="111" fill="#FFFFFF" opacity="0.144" /><circle cx="2225" cy="490" r="105" fill="#FFFFFF" opacity="0.108" /><circle cx="1430" cy="1486" r="49" fill="#FFFFFF" opacity="0.128" /><circle cx="2700" cy="1551" r="120" fill="#FFFFFF" opacity="0.146" /><circle cx="1597" cy="2614" r="111" fill="#FFFFFF" opacity="0.192" /><circle cx="1084" cy="932" r="49" fill="#FFFFFF" opacity="0.170" /><circle cx="1475" cy="2084" r="90" fill="#FFFFFF" opacity="0.239" /><circle cx="2682" cy="2448" r="138" fill="#FFFFFF" opacity="0.077" /><circle cx="1747" cy="2215" r="143" fill="#FFFFFF" opacity="0.225" /><circle cx="1862" cy="537" r="106" fill="#FFFFFF" opacity="0.121" /><circle cx="690" cy="722" r="77" fill="#FFFFFF" opacity="0.068" /><circle cx="1052" cy="1229" r="100" fill="#FFFFFF" opacity="0.204" /></g>
  <g><path d="M 277.6 604.2 L 2752.7 327.7 L 2752.7 815.1 L 277.6 1091.5 Z" fill="#FFFFFF" opacity="0.222" /><path d="M 385.5 915.0 L 2831.5 638.5 L 2831.5 1134.7 L 385.5 1411.2 Z" fill="#FFFFFF" opacity="0.198" /><path d="M 263.6 1094.6 L 2685.2 818.1 L 2685.2 1269.9 L 263.6 1546.4 Z" fill="#FFFFFF" opacity="0.186" /><path d="M 290.7 1430.2 L 2807.9 1153.7 L 2807.9 1587.0 L 290.7 1863.4 Z" fill="#FFFFFF" opacity="0.204" /><path d="M 157.8 1615.4 L 2690.4 1338.9 L 2690.4 1773.4 L 157.8 2049.9 Z" fill="#FFFFFF" opacity="0.220" /><path d="M 171.9 1893.5 L 2762.9 1617.0 L 2762.9 2062.2 L 171.9 2338.7 Z" fill="#FFFFFF" opacity="0.147" /><path d="M 246.3 2159.6 L 2882.6 1883.1 L 2882.6 2340.3 L 246.3 2616.7 Z" fill="#FFFFFF" opacity="0.084" /><path d="M 202.4 2462.5 L 2857.6 2186.0 L 2857.6 2606.4 L 202.4 2882.9 Z" fill="#FFFFFF" opacity="0.086" /></g>
  <g filter="url(#soft21)"><g transform="rotate(-17.44 1536.0 1536.0)"><path d="M-368.6 494.1 C -225.8 529.1, -25.8 456.6, 107.5 549.4 C 250.4 562.6, 450.4 465.0, 583.7 532.8 C 726.5 518.8, 926.5 479.9, 1059.8 492.7 C 1202.7 492.6, 1402.7 494.8, 1536.0 453.5 C 1678.8 461.8, 1878.8 511.7, 2012.2 438.9 C 2155.0 446.5, 2355.0 535.2, 2488.3 457.7 C 2631.2 450.4, 2831.2 531.7, 2964.5 498.7 C 3107.3 498.8, 3307.3 490.1, 3440.6 536.8" fill="none" stroke="url(#ribbon21)" stroke-width="58.4" stroke-linecap="round" stroke-opacity="0.120" /></g><g transform="rotate(-16.86 1536.0 1536.0)"><path d="M-368.6 729.7 C -241.7 749.9, -63.9 713.3, 54.6 711.1 C 181.6 712.7, 359.4 750.1, 477.9 674.1 C 604.8 678.4, 782.6 755.6, 901.1 670.7 C 1028.1 651.2, 1205.9 763.0, 1324.4 703.2 C 1451.3 707.0, 1629.1 740.9, 1747.6 751.7 C 1874.6 748.3, 2052.4 721.5, 2170.9 786.9 C 2297.9 793.8, 2475.6 667.9, 2594.1 787.4 C 2721.1 801.1, 2898.9 687.1, 3017.4 752.9 C 3144.4 762.1, 3322.1 711.3, 3440.6 704.3" fill="none" stroke="url(#ribbon21)" stroke-width="54.4" stroke-linecap="round" stroke-opacity="0.146" /></g><g transform="rotate(-16.28 1536.0 1536.0)"><path d="M-368.6 923.6 C -254.4 874.6, -94.4 987.2, 12.3 883.1 C 126.6 870.3, 286.6 945.8, 393.2 935.8 C 507.5 934.5, 667.5 913.2, 774.1 981.1 C 888.4 981.0, 1048.4 883.2, 1155.1 991.6 C 1269.4 982.7, 1429.3 866.5, 1536.0 960.8 C 1650.3 949.1, 1810.3 899.8, 1916.9 907.4 C 2031.2 908.6, 2191.2 937.4, 2297.9 863.9 C 2412.1 886.8, 2572.1 965.9, 2678.8 856.6 C 2793.1 852.3, 2953.1 951.6, 3059.7 889.9 C 3174.0 890.3, 3334.0 938.4, 3440.6 943.7" fill="none" stroke="url(#ribbon21)" stroke-width="50.4" stroke-linecap="round" stroke-opacity="0.172" /></g><g transform="rotate(-15.70 1536.0 1536.0)"><path d="M-368.6 1089.3 C -264.8 1156.9, -119.3 1061.6, -22.3 1107.2 C 81.5 1106.6, 227.0 1068.9, 324.0 1048.5 C 427.8 1044.2, 573.3 1105.9, 670.3 1014.5 C 774.1 1013.4, 919.6 1126.0, 1016.6 1025.9 C 1120.4 1020.0, 1265.9 1120.9, 1362.9 1075.8 C 1466.7 1079.4, 1612.2 1094.3, 1709.1 1133.9 C 1813.0 1141.2, 1958.5 1046.0, 2055.4 1165.0 C 2159.3 1171.7, 2304.8 1046.4, 2401.7 1150.2 C 2505.6 1155.2, 2651.1 1039.7, 2748.0 1098.5 C 2851.9 1095.3, 2997.4 1085.5, 3094.3 1041.2 C 3198.2 1023.6, 3343.7 1131.5, 3440.6 1013.2" fill="none" stroke="url(#ribbon21)" stroke-width="46.4" stroke-linecap="round" stroke-opacity="0.198" /></g><g transform="rotate(-15.12 1536.0 1536.0)"><path d="M-368.6 1340.5 C -273.4 1366.2, -140.1 1329.2, -51.2 1414.0 C 44.0 1391.3, 177.4 1307.0, 266.2 1420.3 C 361.5 1442.4, 494.8 1249.3, 583.7 1378.1 C 678.9 1382.2, 812.2 1299.5, 901.1 1313.2 C 996.4 1314.5, 1129.7 1366.3, 1218.6 1264.9 C 1313.8 1263.9, 1447.1 1392.9, 1536.0 1262.4 C 1631.2 1248.6, 1764.6 1371.5, 1853.4 1307.4 C 1948.7 1310.7, 2082.0 1368.8, 2170.9 1372.5 C 2266.1 1366.2, 2399.4 1308.5, 2488.3 1418.2 C 2583.6 1411.3, 2716.9 1251.7, 2805.8 1416.8 C 2901.0 1388.8, 3034.3 1249.6, 3123.2 1369.2 C 3218.4 1369.3, 3351.8 1315.0, 3440.6 1304.2" fill="none" stroke="url(#ribbon21)" stroke-width="42.4" stroke-linecap="round" stroke-opacity="0.224" /></g><g transform="rotate(-14.54 1536.0 1536.0)"><path d="M-368.6 1536.2 C -225.8 1611.8, -25.8 1454.1, 107.5 1558.0 C 250.4 1552.5, 450.4 1525.4, 583.7 1488.3 C 726.5 1489.4, 926.5 1551.9, 1059.8 1447.6 C 1202.7 1422.5, 1402.7 1620.3, 1536.0 1460.6 C 1678.8 1439.4, 1878.8 1597.5, 2012.2 1519.4 C 2155.0 1515.3, 2355.0 1554.1, 2488.3 1588.4 C 2631.2 1599.7, 2831.2 1509.9, 2964.5 1625.7 C 3107.3 1619.0, 3307.3 1479.8, 3440.6 1608.6" fill="none" stroke="url(#ribbon21)" stroke-width="38.4" stroke-linecap="round" stroke-opacity="0.250" /></g><g transform="rotate(-13.96 1536.0 1536.0)"><path d="M-368.6 1738.3 C -241.7 1681.8, -63.9 1773.1, 54.6 1768.1 C 181.6 1758.5, 359.4 1707.2, 477.9 1825.8 C 604.8 1852.4, 782.6 1660.3, 901.1 1830.5 C 1028.1 1813.8, 1205.9 1647.2, 1324.4 1779.2 C 1451.3 1784.3, 1629.1 1707.2, 1747.6 1703.1 C 1874.6 1702.3, 2052.4 1748.9, 2170.9 1648.4 C 2297.9 1629.8, 2475.6 1781.0, 2594.1 1648.3 C 2721.1 1648.9, 2898.9 1823.0, 3017.4 1702.7 C 3144.4 1696.7, 3322.1 1771.1, 3440.6 1778.8" fill="none" stroke="url(#ribbon21)" stroke-width="34.4" stroke-linecap="round" stroke-opacity="0.276" /></g><g transform="rotate(-13.38 1536.0 1536.0)"><path d="M-368.6 1911.8 C -254.4 1827.5, -94.4 1973.3, 12.3 1841.1 C 126.6 1846.0, 286.6 1966.8, 393.2 1918.0 C 507.5 1918.4, 667.5 1908.7, 774.1 1991.1 C 888.4 1992.4, 1048.4 1885.5, 1155.1 2016.1 C 1269.4 2011.7, 1429.3 1788.9, 1536.0 1977.8 C 1650.3 1957.5, 1810.3 1867.5, 1916.9 1899.5 C 2031.2 1900.1, 2191.2 1925.9, 2297.9 1828.6 C 2412.1 1813.4, 2572.1 1983.2, 2678.8 1808.2 C 2793.1 1768.5, 2953.1 2023.8, 3059.7 1850.6 C 3174.0 1871.3, 3334.0 1985.1, 3440.6 1930.1" fill="none" stroke="url(#ribbon21)" stroke-width="30.4" stroke-linecap="round" stroke-opacity="0.302" /></g><g transform="rotate(-12.80 1536.0 1536.0)"><path d="M-368.6 2094.9 C -264.8 2042.6, -119.3 2170.3, -22.3 2106.6 C 81.5 2105.1, 227.0 2081.5, 324.0 2182.8 C 427.8 2177.4, 573.3 2047.1, 670.3 2205.7 C 774.1 2191.2, 919.6 2039.7, 1016.6 2161.4 C 1120.4 2179.8, 1265.9 2070.0, 1362.9 2076.8 C 1466.7 2074.2, 1612.2 2103.6, 1709.1 2003.1 C 1813.0 2026.4, 1958.5 2141.2, 2055.4 1985.2 C 2159.3 1963.2, 2304.8 2164.9, 2401.7 2033.8 C 2505.6 2027.4, 2651.1 2122.6, 2748.0 2119.5 C 2851.9 2113.9, 2997.4 2071.1, 3094.3 2190.3 C 3198.2 2202.3, 3343.7 2034.4, 3440.6 2203.2" fill="none" stroke="url(#ribbon21)" stroke-width="26.4" stroke-linecap="round" stroke-opacity="0.328" /></g><g transform="rotate(-12.22 1536.0 1536.0)"><path d="M-368.6 2224.9 C -273.4 2135.2, -140.1 2276.3, -51.2 2107.1 C 44.0 2137.3, 177.4 2288.5, 266.2 2131.6 C 361.5 2107.9, 494.8 2255.3, 583.7 2212.8 C 678.9 2210.8, 812.2 2237.2, 901.1 2301.3 C 996.4 2326.4, 1129.7 2141.5, 1218.6 2343.5 C 1313.8 2328.1, 1447.1 2113.0, 1536.0 2313.8 C 1631.2 2333.1, 1764.6 2162.0, 1853.4 2230.2 C 1948.7 2231.3, 2082.0 2220.7, 2170.9 2143.4 C 2266.1 2161.1, 2399.4 2293.1, 2488.3 2106.1 C 2583.6 2147.1, 2716.9 2301.2, 2805.8 2140.8 C 2901.0 2153.9, 3034.3 2308.6, 3123.2 2226.6 C 3218.4 2226.3, 3351.8 2223.3, 3440.6 2311.4" fill="none" stroke="url(#ribbon21)" stroke-width="22.4" stroke-linecap="round" stroke-opacity="0.354" /></g><g transform="rotate(-11.64 1536.0 1536.0)"><path d="M-368.6 2502.2 C -225.8 2430.1, -25.8 2561.2, 107.5 2389.8 C 250.4 2391.7, 450.4 2608.8, 583.7 2464.6 C 726.5 2467.5, 926.5 2523.0, 1059.8 2562.2 C 1202.7 2561.4, 1402.7 2454.1, 1536.0 2623.5 C 1678.8 2599.3, 1878.8 2407.8, 2012.2 2611.2 C 2155.0 2591.4, 2355.0 2449.9, 2488.3 2532.8 C 2631.2 2535.1, 2831.2 2467.6, 2964.5 2435.9 C 3107.3 2447.0, 3307.3 2525.1, 3440.6 2379.2" fill="none" stroke="url(#ribbon21)" stroke-width="18.4" stroke-linecap="round" stroke-opacity="0.380" /></g><g transform="rotate(-11.06 1536.0 1536.0)"><path d="M-368.6 2605.1 C -241.7 2568.5, -63.9 2643.0, 54.6 2665.8 C 181.6 2669.0, 359.4 2586.4, 477.9 2732.3 C 604.8 2683.0, 782.6 2501.5, 901.1 2721.7 C 1028.1 2723.2, 1205.9 2496.4, 1324.4 2640.3 C 1451.3 2645.9, 1629.1 2586.9, 1747.6 2537.6 C 1874.6 2533.3, 2052.4 2683.6, 2170.9 2475.9 C 2297.9 2425.1, 2475.6 2746.8, 2594.1 2492.5 C 2721.1 2469.0, 2898.9 2664.2, 3017.4 2577.4 C 3144.4 2572.0, 3322.1 2634.1, 3440.6 2679.2" fill="none" stroke="url(#ribbon21)" stroke-width="14.4" stroke-linecap="round" stroke-opacity="0.406" /></g></g>
  <g><ellipse cx="1536.0" cy="1551.9" rx="728.6" ry="605.7" fill="url(#extrude21)" opacity="0.220" /><ellipse cx="1536.0" cy="1567.7" rx="736.0" ry="610.9" fill="url(#extrude21)" opacity="0.205" /><ellipse cx="1536.0" cy="1583.6" rx="743.4" ry="616.1" fill="url(#extrude21)" opacity="0.190" /><ellipse cx="1536.0" cy="1599.5" rx="750.9" ry="621.3" fill="url(#extrude21)" opacity="0.175" /><ellipse cx="1536.0" cy="1615.4" rx="758.3" ry="626.5" fill="url(#extrude21)" opacity="0.160" /><ellipse cx="1536.0" cy="1631.2" rx="765.7" ry="631.7" fill="url(#extrude21)" opacity="0.145" /><ellipse cx="1536.0" cy="1647.1" rx="773.2" ry="636.9" fill="url(#extrude21)" opacity="0.130" /><ellipse cx="1536.0" cy="1663.0" rx="780.6" ry="642.1" fill="url(#extrude21)" opacity="0.115" /><ellipse cx="1536.0" cy="1678.8" rx="788.0" ry="647.4" fill="url(#extrude21)" opacity="0.100" /><ellipse cx="1536.0" cy="1694.7" rx="795.5" ry="652.6" fill="url(#extrude21)" opacity="0.085" /><ellipse cx="1536.0" cy="1710.6" rx="802.9" ry="657.8" fill="url(#extrude21)" opacity="0.070" /><ellipse cx="1536.0" cy="1726.5" rx="810.3" ry="663.0" fill="url(#extrude21)" opacity="0.055" /></g>
  <ellipse cx="1536.0" cy="1726.5" rx="773.2" ry="214.9" fill="#0B1D2D" opacity="0.24" />
  <ellipse cx="1536.0" cy="1536.0" rx="743.4" ry="651.3" fill="url(#orb21)" stroke="#FFFFFF" stroke-opacity="0.42" stroke-width="7" />
  <ellipse cx="1431.9" cy="1392.7" rx="505.5" ry="299.6" fill="#FFFFFF" opacity="0.25" />
  <path d="M 199.4 399.4 C 1013.8 -30.7, 2058.2 768.0, 2872.6 215.0 L 2872.6 983.0 C 2089.0 1228.8, 1013.8 307.2, 199.4 1167.4 Z" fill="url(#glass21)" />
  <rect x="270" y="270" width="2532" height="2532" rx="430" fill="none" stroke="#FFFFFF" stroke-opacity="0.30" stroke-width="5" />
  <rect x="288.4" y="288.4" width="2495.1" height="2495.1" rx="399" fill="none" stroke="#36D1FF" stroke-opacity="0.35" stroke-width="3" />
  <g filter="url(#soft21)"><rect x="1255" y="1071" width="40" height="2" fill="#FFFFFF" opacity="0.721" /><rect x="1274" y="1052" width="2" height="40" fill="#FFFFFF" opacity="0.721" /><rect x="521" y="685" width="84" height="2" fill="#FFFFFF" opacity="0.748" /><rect x="562" y="644" width="2" height="84" fill="#FFFFFF" opacity="0.748" /><rect x="2010" y="581" width="74" height="2" fill="#FFFFFF" opacity="0.557" /><rect x="2046" y="545" width="2" height="74" fill="#FFFFFF" opacity="0.557" /><rect x="2074" y="1310" width="32" height="2" fill="#FFFFFF" opacity="0.697" /><rect x="2089" y="1295" width="2" height="32" fill="#FFFFFF" opacity="0.697" /><rect x="862" y="1456" width="74" height="2" fill="#FFFFFF" opacity="0.849" /><rect x="898" y="1420" width="2" height="74" fill="#FFFFFF" opacity="0.849" /><rect x="927" y="2368" width="26" height="2" fill="#FFFFFF" opacity="0.661" /><rect x="939" y="2356" width="2" height="26" fill="#FFFFFF" opacity="0.661" /><rect x="1233" y="1545" width="74" height="2" fill="#FFFFFF" opacity="0.413" /><rect x="1269" y="1509" width="2" height="74" fill="#FFFFFF" opacity="0.413" /><rect x="400" y="339" width="78" height="2" fill="#FFFFFF" opacity="0.590" /><rect x="438" y="301" width="2" height="78" fill="#FFFFFF" opacity="0.590" /><rect x="1046" y="1970" width="42" height="2" fill="#FFFFFF" opacity="0.672" /><rect x="1066" y="1950" width="2" height="42" fill="#FFFFFF" opacity="0.672" /><rect x="2256" y="1582" width="42" height="2" fill="#FFFFFF" opacity="0.366" /><rect x="2276" y="1562" width="2" height="42" fill="#FFFFFF" opacity="0.366" /><rect x="2062" y="1009" width="30" height="2" fill="#FFFFFF" opacity="0.550" /><rect x="2076" y="995" width="2" height="30" fill="#FFFFFF" opacity="0.550" /><rect x="2125" y="866" width="54" height="2" fill="#FFFFFF" opacity="0.829" /><rect x="2151" y="840" width="2" height="54" fill="#FFFFFF" opacity="0.829" /><rect x="613" y="1365" width="68" height="2" fill="#FFFFFF" opacity="0.608" /><rect x="646" y="1332" width="2" height="68" fill="#FFFFFF" opacity="0.608" /><rect x="1893" y="1001" width="72" height="2" fill="#FFFFFF" opacity="0.848" /><rect x="1928" y="966" width="2" height="72" fill="#FFFFFF" opacity="0.848" /><rect x="2429" y="584" width="30" height="2" fill="#FFFFFF" opacity="0.484" /><rect x="2443" y="570" width="2" height="30" fill="#FFFFFF" opacity="0.484" /><rect x="529" y="496" width="62" height="2" fill="#FFFFFF" opacity="0.349" /><rect x="559" y="466" width="2" height="62" fill="#FFFFFF" opacity="0.349" /><rect x="835" y="2419" width="38" height="2" fill="#FFFFFF" opacity="0.620" /><rect x="853" y="2401" width="2" height="38" fill="#FFFFFF" opacity="0.620" /><rect x="1505" y="2172" width="38" height="2" fill="#FFFFFF" opacity="0.478" /><rect x="1523" y="2154" width="2" height="38" fill="#FFFFFF" opacity="0.478" /><rect x="2109" y="1264" width="62" height="2" fill="#FFFFFF" opacity="0.596" /><rect x="2139" y="1234" width="2" height="62" fill="#FFFFFF" opacity="0.596" /><rect x="1522" y="2395" width="26" height="2" fill="#FFFFFF" opacity="0.369" /><rect x="1534" y="2383" width="2" height="26" fill="#FFFFFF" opacity="0.369" /><rect x="1604" y="2648" width="46" height="2" fill="#FFFFFF" opacity="0.657" /><rect x="1626" y="2626" width="2" height="46" fill="#FFFFFF" opacity="0.657" /><rect x="808" y="1260" width="30" height="2" fill="#FFFFFF" opacity="0.408" /><rect x="822" y="1246" width="2" height="30" fill="#FFFFFF" opacity="0.408" /><rect x="1589" y="1692" width="70" height="2" fill="#FFFFFF" opacity="0.383" /><rect x="1623" y="1658" width="2" height="70" fill="#FFFFFF" opacity="0.383" /><rect x="2192" y="963" width="78" height="2" fill="#FFFFFF" opacity="0.438" /><rect x="2230" y="925" width="2" height="78" fill="#FFFFFF" opacity="0.438" /><rect x="507" y="2652" width="32" height="2" fill="#FFFFFF" opacity="0.559" /><rect x="522" y="2637" width="2" height="32" fill="#FFFFFF" opacity="0.559" /><rect x="1623" y="2436" width="66" height="2" fill="#FFFFFF" opacity="0.620" /><rect x="1655" y="2404" width="2" height="66" fill="#FFFFFF" opacity="0.620" /></g>
  <g opacity="0.52"><rect x="1060" y="1070" width="1024" height="1024" rx="153" fill="none" stroke="#0C2030" stroke-width="90" /><line x1="1316" y1="1326" x2="1828" y2="1838" stroke="#0C2030" stroke-width="90" stroke-linecap="round" /><line x1="1828" y1="1326" x2="1316" y2="1838" stroke="#0C2030" stroke-width="90" stroke-linecap="round" /></g>
  <g filter="url(#soft21)"><rect x="1024" y="1024" width="1024" height="1024" rx="153" fill="none" stroke="url(#symbol21)" stroke-width="90" /><line x1="1280" y1="1280" x2="1792" y2="1792" stroke="url(#symbol21)" stroke-width="90" stroke-linecap="round" /><line x1="1792" y1="1280" x2="1280" y2="1792" stroke="url(#symbol21)" stroke-width="90" stroke-linecap="round" /></g>
  <rect x="138" y="138" width="2796" height="2796" rx="629" fill="#FFFFFF" filter="url(#grain21)" opacity="0.18" />
</svg>
