<svg xmlns="http://www.w3.org/2000/svg" width="3072" height="3072" viewBox="0 0 3072 3072">
  <title>QuartzOS App Icon 322 - nova_builder_322</title>
  <defs><linearGradient id="bg321" x1="0%" y1="0%" x2="100%" y2="100%"><stop offset="0%" stop-color="#53E3A6" /><stop offset="26%" stop-color="#3B82FF" /><stop offset="56%" stop-color="#FF6AB3" /><stop offset="78%" stop-color="#4F79A7" /><stop offset="100%" stop-color="#1B2630" /></linearGradient><radialGradient id="sun321" cx="26%" cy="21%" r="88%"><stop offset="0%" stop-color="#FFFFFF" stop-opacity="0.62" /><stop offset="30%" stop-color="#FF9F43" stop-opacity="0.35" /><stop offset="100%" stop-color="#FF9F43" stop-opacity="0" /></radialGradient><linearGradient id="glass321" x1="0%" y1="0%" x2="0%" y2="100%"><stop offset="0%" stop-color="#FFFFFF" stop-opacity="0.70" /><stop offset="46%" stop-color="#FFFFFF" stop-opacity="0.26" /><stop offset="100%" stop-color="#FFFFFF" stop-opacity="0.00" /></linearGradient><linearGradient id="ribbon321" x1="0%" y1="0%" x2="100%" y2="0%"><stop offset="0%" stop-color="#53E3A6" stop-opacity="0.18" /><stop offset="34%" stop-color="#3B82FF" stop-opacity="0.72" /><stop offset="66%" stop-color="#FF6AB3" stop-opacity="0.72" /><stop offset="100%" stop-color="#FF9F43" stop-opacity="0.18" /></linearGradient><radialGradient id="orb321" cx="34%" cy="27%" r="74%"><stop offset="0%" stop-color="#FFFFFF" stop-opacity="0.84" /><stop offset="30%" stop-color="#53E3A6" stop-opacity="0.52" /><stop offset="68%" stop-color="#3B82FF" stop-opacity="0.42" /><stop offset="100%" stop-color="#FF6AB3" stop-opacity="0.20" /></radialGradient><linearGradient id="extrude321" x1="0%" y1="0%" x2="0%" y2="100%"><stop offset="0%" stop-color="#15283C" stop-opacity="0.45" /><stop offset="100%" stop-color="#08131D" stop-opacity="0.06" /></linearGradient><linearGradient id="symbol321" x1="0%" y1="0%" x2="100%" y2="100%"><stop offset="0%" stop-color="#FFFFFF" /><stop offset="100%" stop-color="#FF9F43" /></linearGradient><filter id="shadow321" x="-40%" y="-40%" width="180%" height="180%"><feDropShadow dx="0" dy="49" stdDeviation="86" flood-color="#06111A" flood-opacity="0.54" /></filter><filter id="soft321" x="-40%" y="-40%" width="180%" height="180%"><feDropShadow dx="0" dy="0" stdDeviation="14" flood-color="#53E3A6" flood-opacity="0.45" /></filter><filter id="grain321"><feTurbulence type="fractalNoise" baseFrequency="0.666" numOctaves="2" seed="321" /><feColorMatrix type="saturate" values="0" /><feComponentTransfer><feFuncA type="table" tableValues="0 0.09" /></feComponentTransfer></filter></defs>
  <rect x="138" y="138" width="2796" height="2796" rx="629" fill="url(#bg321)" filter="url(#shadow321)" />
  <rect x="138" y="138" width="2796" height="2796" rx="629" fill="url(#sun321)" />
  <g><circle cx="913" cy="801" r="132" fill="#FFFFFF" opacity="0.131" /><circle cx="1442" cy="1973" r="116" fill="#FFFFFF" opacity="0.152" /><circle cx="398" cy="2692" r="72" fill="#FFFFFF" opacity="0.215" /><circle cx="1729" cy="1279" r="44" fill="#FFFFFF" opacity="0.100" /><circle cx="2377" cy="831" r="60" fill="#FFFFFF" opacity="0.120" /><circle cx="2635" cy="1736" r="43" fill="#FFFFFF" opacity="0.118" /><circle cx="1009" cy="1949" r="155" fill="#FFFFFF" opacity="0.214" /><circle cx="2076" cy="1759" r="148" fill="#FFFFFF" opacity="0.130" /><circle cx="1052" cy="809" r="127" fill="#FFFFFF" opacity="0.223" /><circle cx="389" cy="2083" r="109" fill="#FFFFFF" opacity="0.064" /><circle cx="2279" cy="2228" r="134" fill="#FFFFFF" opacity="0.135" /><circle cx="872" cy="900" r="80" fill="#FFFFFF" opacity="0.214" /><circle cx="956" cy="2509" r="136" fill="#FFFFFF" opacity="0.125" /><circle cx="1702" cy="1125" r="57" fill="#FFFFFF" opacity="0.096" /><circle cx="1393" cy="2179" r="157" fill="#FFFFFF" opacity="0.219" /><circle cx="2604" cy="1044" r="158" fill="#FFFFFF" opacity="0.095" /><circle cx="2544" cy="2093" r="143" fill="#FFFFFF" opacity="0.063" /><circle cx="561" cy="1880" r="134" fill="#FFFFFF" opacity="0.158" /><circle cx="1675" cy="2100" r="56" fill="#FFFFFF" opacity="0.231" /><circle cx="2613" cy="1131" r="93" fill="#FFFFFF" opacity="0.210" /><circle cx="1101" cy="2237" r="60" fill="#FFFFFF" opacity="0.212" /><circle cx="2017" cy="440" r="90" fill="#FFFFFF" opacity="0.127" /><circle cx="1643" cy="1694" r="67" fill="#FFFFFF" opacity="0.102" /><circle cx="1836" cy="1633" r="65" fill="#FFFFFF" opacity="0.175" /><circle cx="1482" cy="2702" r="130" fill="#FFFFFF" opacity="0.238" /><circle cx="1904" cy="503" r="132" fill="#FFFFFF" opacity="0.102" /><circle cx="414" cy="2612" r="65" fill="#FFFFFF" opacity="0.207" /><circle cx="525" cy="2318" r="92" fill="#FFFFFF" opacity="0.144" /></g>
  <g><path d="M 164.8 652.4 L 2685.8 375.9 L 2685.8 822.8 L 164.8 1099.3 Z" fill="#FFFFFF" opacity="0.163" /><path d="M 168.6 876.7 L 2787.7 600.2 L 2787.7 1031.4 L 168.6 1307.9 Z" fill="#FFFFFF" opacity="0.154" /><path d="M 352.0 1180.1 L 2778.8 903.6 L 2778.8 1390.9 L 352.0 1667.4 Z" fill="#FFFFFF" opacity="0.191" /><path d="M 352.0 1419.6 L 2844.6 1143.2 L 2844.6 1619.4 L 352.0 1895.9 Z" fill="#FFFFFF" opacity="0.113" /><path d="M 251.3 1662.5 L 2924.7 1386.0 L 2924.7 1855.6 L 251.3 2132.0 Z" fill="#FFFFFF" opacity="0.090" /><path d="M 157.9 1927.9 L 2681.6 1651.4 L 2681.6 2077.7 L 157.9 2354.2 Z" fill="#FFFFFF" opacity="0.103" /><path d="M 387.4 2212.5 L 2799.8 1936.0 L 2799.8 2387.9 L 387.4 2664.3 Z" fill="#FFFFFF" opacity="0.196" /><path d="M 385.9 2454.7 L 2740.9 2178.3 L 2740.9 2622.4 L 385.9 2898.8 Z" fill="#FFFFFF" opacity="0.145" /></g>
  <g filter="url(#soft321)"><g transform="rotate(-4.87 1536.0 1536.0)"><path d="M-368.6 563.3 C -225.8 554.3, -25.8 569.5, 107.5 516.6 C 250.4 533.3, 450.4 613.3, 583.7 509.5 C 726.5 513.8, 926.5 602.9, 1059.8 535.1 C 1202.7 524.1, 1402.7 591.7, 1536.0 577.7 C 1678.8 574.4, 1878.8 554.3, 2012.2 611.7 C 2155.0 625.4, 2355.0 510.0, 2488.3 616.2 C 2631.2 625.8, 2831.2 517.8, 2964.5 588.7 C 3107.3 594.3, 3307.3 536.3, 3440.6 545.8" fill="none" stroke="url(#ribbon321)" stroke-width="58.4" stroke-linecap="round" stroke-opacity="0.120" /></g><g transform="rotate(-4.29 1536.0 1536.0)"><path d="M-368.6 673.7 C -241.7 665.0, -63.9 679.1, 54.6 713.7 C 181.6 712.5, 359.4 659.1, 477.9 735.9 C 604.8 715.7, 782.6 632.5, 901.1 720.3 C 1028.1 720.7, 1205.9 623.2, 1324.4 676.5 C 1451.3 676.6, 1629.1 672.0, 1747.6 630.9 C 1874.6 625.9, 2052.4 711.1, 2170.9 611.3 C 2297.9 630.8, 2475.6 722.3, 2594.1 629.5 C 2721.1 623.7, 2898.9 709.2, 3017.4 674.5 C 3144.4 674.3, 3322.1 672.9, 3440.6 719.0" fill="none" stroke="url(#ribbon321)" stroke-width="54.4" stroke-linecap="round" stroke-opacity="0.146" /></g><g transform="rotate(-3.71 1536.0 1536.0)"><path d="M-368.6 900.2 C -254.4 905.1, -94.4 896.5, 12.3 853.5 C 126.6 846.9, 286.6 938.8, 393.2 830.8 C 507.5 841.3, 667.5 972.8, 774.1 850.3 C 888.4 838.3, 1048.4 947.8, 1155.1 900.0 C 1269.4 899.9, 1429.3 900.3, 1536.0 949.9 C 1650.3 951.2, 1810.3 843.9, 1916.9 969.6 C 2031.2 950.4, 2191.2 868.2, 2297.9 947.3 C 2412.1 963.1, 2572.1 875.2, 2678.8 896.4 C 2793.1 895.5, 2953.1 904.3, 3059.7 847.9 C 3174.0 827.5, 3334.0 955.3, 3440.6 831.1" fill="none" stroke="url(#ribbon321)" stroke-width="50.4" stroke-linecap="round" stroke-opacity="0.172" /></g><g transform="rotate(-3.13 1536.0 1536.0)"><path d="M-368.6 1110.2 C -264.8 1186.4, -119.3 1092.1, -22.3 1186.6 C 81.5 1199.9, 227.0 1034.1, 324.0 1160.6 C 427.8 1178.5, 573.3 1054.1, 670.3 1104.1 C 774.1 1104.1, 919.6 1115.1, 1016.6 1051.2 C 1120.4 1051.2, 1265.9 1153.9, 1362.9 1034.1 C 1466.7 1006.1, 1612.2 1179.3, 1709.1 1063.1 C 1813.0 1066.3, 1958.5 1145.4, 2055.4 1120.7 C 2159.3 1120.7, 2304.8 1105.7, 2401.7 1171.8 C 2505.6 1176.5, 2651.1 1066.2, 2748.0 1185.6 C 2851.9 1190.2, 2997.4 1059.0, 3094.3 1153.6 C 3198.2 1138.0, 3343.7 1077.5, 3440.6 1095.3" fill="none" stroke="url(#ribbon321)" stroke-width="46.4" stroke-linecap="round" stroke-opacity="0.198" /></g><g transform="rotate(-2.55 1536.0 1536.0)"><path d="M-368.6 1235.7 C -273.4 1261.6, -140.1 1219.2, -51.2 1203.7 C 44.0 1194.8, 177.4 1263.2, 266.2 1158.1 C 361.5 1176.9, 494.8 1281.6, 583.7 1159.5 C 678.9 1187.8, 812.2 1316.8, 901.1 1207.2 C 996.4 1207.5, 1129.7 1270.0, 1218.6 1272.2 C 1313.8 1260.8, 1447.1 1216.4, 1536.0 1315.1 C 1631.2 1318.7, 1764.6 1192.5, 1853.4 1309.8 C 1948.7 1321.6, 2082.0 1189.0, 2170.9 1259.6 C 2266.1 1254.0, 2399.4 1213.4, 2488.3 1195.0 C 2583.6 1190.5, 2716.9 1249.7, 2805.8 1155.0 C 2901.0 1162.4, 3034.3 1276.2, 3123.2 1164.0 C 3218.4 1142.1, 3351.8 1264.4, 3440.6 1216.5" fill="none" stroke="url(#ribbon321)" stroke-width="42.4" stroke-linecap="round" stroke-opacity="0.224" /></g><g transform="rotate(-1.97 1536.0 1536.0)"><path d="M-368.6 1456.1 C -225.8 1459.1, -25.8 1453.3, 107.5 1523.1 C 250.4 1510.3, 450.4 1400.4, 583.7 1546.5 C 726.5 1580.2, 926.5 1371.2, 1059.8 1515.1 C 1202.7 1499.3, 1402.7 1399.8, 1536.0 1447.9 C 1678.8 1444.8, 1878.8 1465.2, 2012.2 1385.6 C 2155.0 1390.1, 2355.0 1516.1, 2488.3 1366.1 C 2631.2 1358.4, 2831.2 1521.4, 2964.5 1401.1 C 3107.3 1387.6, 3307.3 1498.5, 3440.6 1469.5" fill="none" stroke="url(#ribbon321)" stroke-width="38.4" stroke-linecap="round" stroke-opacity="0.250" /></g><g transform="rotate(-1.39 1536.0 1536.0)"><path d="M-368.6 1713.8 C -241.7 1813.6, -63.9 1607.8, 54.6 1803.7 C 181.6 1809.6, 359.4 1654.4, 477.9 1749.0 C 604.8 1735.3, 782.6 1674.0, 901.1 1673.0 C 1028.1 1657.4, 1205.9 1746.7, 1324.4 1621.7 C 1451.3 1608.1, 1629.1 1799.7, 1747.6 1626.3 C 1874.6 1612.4, 2052.4 1816.9, 2170.9 1684.0 C 2297.9 1691.3, 2475.6 1739.3, 2594.1 1759.8 C 2721.1 1775.9, 2898.9 1659.5, 3017.4 1807.7 C 3144.4 1797.6, 3322.1 1651.3, 3440.6 1798.7" fill="none" stroke="url(#ribbon321)" stroke-width="34.4" stroke-linecap="round" stroke-opacity="0.276" /></g><g transform="rotate(-0.81 1536.0 1536.0)"><path d="M-368.6 1910.2 C -254.4 1816.9, -94.4 1949.9, 12.3 1856.9 C 126.6 1859.4, 286.6 1956.2, 393.2 1937.7 C 507.5 1928.3, 667.5 1881.8, 774.1 2001.9 C 888.4 2012.1, 1048.4 1802.9, 1155.1 2010.5 C 1269.4 2040.1, 1429.3 1822.2, 1536.0 1958.3 C 1650.3 1943.2, 1810.3 1853.6, 1916.9 1876.9 C 2031.2 1865.2, 2191.2 1939.4, 2297.9 1815.8 C 2412.1 1832.6, 2572.1 1975.0, 2678.8 1811.9 C 2793.1 1829.7, 2953.1 1986.2, 3059.7 1867.7 C 3174.0 1858.6, 3334.0 1951.2, 3440.6 1949.3" fill="none" stroke="url(#ribbon321)" stroke-width="30.4" stroke-linecap="round" stroke-opacity="0.302" /></g><g transform="rotate(-0.23 1536.0 1536.0)"><path d="M-368.6 2076.5 C -264.8 1929.0, -119.3 2199.1, -22.3 1981.5 C 81.5 1988.9, 227.0 2157.6, 324.0 2052.6 C 427.8 2045.0, 573.3 2095.0, 670.3 2138.2 C 774.1 2123.0, 919.6 2030.2, 1016.6 2186.4 C 1120.4 2179.8, 1265.9 1953.4, 1362.9 2167.9 C 1466.7 2166.0, 1612.2 2027.8, 1709.1 2094.0 C 1813.0 2088.3, 1958.5 2064.8, 2055.4 2009.4 C 2159.3 1998.1, 2304.8 2149.3, 2401.7 1965.6 C 2505.6 1986.3, 2651.1 2134.3, 2748.0 1989.0 C 2851.9 2023.2, 2997.4 2140.1, 3094.3 2065.5 C 3198.2 2063.8, 3343.7 2082.2, 3440.6 2148.6" fill="none" stroke="url(#ribbon321)" stroke-width="26.4" stroke-linecap="round" stroke-opacity="0.328" /></g><g transform="rotate(0.35 1536.0 1536.0)"><path d="M-368.6 2310.4 C -273.4 2396.9, -140.1 2205.6, -51.2 2407.8 C 44.0 2388.3, 177.4 2241.0, 266.2 2329.2 C 361.5 2326.7, 494.8 2291.1, 583.7 2239.3 C 678.9 2247.5, 812.2 2386.2, 901.1 2192.6 C 996.4 2202.1, 1129.7 2355.8, 1218.6 2217.3 C 1313.8 2244.8, 1447.1 2373.5, 1536.0 2298.5 C 1631.2 2296.7, 1764.6 2322.6, 1853.4 2387.0 C 1948.7 2369.9, 2082.0 2236.7, 2170.9 2429.0 C 2266.1 2400.4, 2399.4 2192.5, 2488.3 2399.1 C 2583.6 2423.9, 2716.9 2228.4, 2805.8 2315.4 C 2901.0 2314.4, 3034.3 2306.3, 3123.2 2228.7 C 3218.4 2259.0, 3351.8 2375.3, 3440.6 2191.6" fill="none" stroke="url(#ribbon321)" stroke-width="22.4" stroke-linecap="round" stroke-opacity="0.354" /></g><g transform="rotate(0.93 1536.0 1536.0)"><path d="M-368.6 2443.9 C -225.8 2599.5, -25.8 2387.9, 107.5 2562.2 C 250.4 2609.2, 450.4 2324.1, 583.7 2495.4 C 726.5 2495.1, 926.5 2428.1, 1059.8 2397.3 C 1202.7 2381.4, 1402.7 2490.5, 1536.0 2327.5 C 1678.8 2366.8, 1878.8 2505.7, 2012.2 2328.3 C 2155.0 2329.9, 2355.0 2551.3, 2488.3 2399.2 C 2631.2 2394.7, 2831.2 2479.5, 2964.5 2497.2 C 3107.3 2500.5, 3307.3 2399.8, 3440.6 2562.9" fill="none" stroke="url(#ribbon321)" stroke-width="18.4" stroke-linecap="round" stroke-opacity="0.380" /></g><g transform="rotate(1.51 1536.0 1536.0)"><path d="M-368.6 2596.9 C -241.7 2586.9, -63.9 2603.6, 54.6 2495.3 C 181.6 2489.9, 359.4 2656.6, 477.9 2464.5 C 604.8 2451.2, 782.6 2698.1, 901.1 2514.0 C 1028.1 2490.4, 1205.9 2657.2, 1324.4 2613.8 C 1451.3 2616.5, 1629.1 2588.9, 1747.6 2703.3 C 1874.6 2736.1, 2052.4 2523.3, 2170.9 2728.3 C 2297.9 2745.9, 2475.6 2488.2, 2594.1 2673.6 C 2721.1 2695.2, 2898.9 2564.0, 3017.4 2572.3 C 3144.4 2571.2, 3322.1 2618.6, 3440.6 2486.0" fill="none" stroke="url(#ribbon321)" stroke-width="14.4" stroke-linecap="round" stroke-opacity="0.406" /></g></g>
  <g><ellipse cx="1536.0" cy="1551.9" rx="728.6" ry="605.7" fill="url(#extrude321)" opacity="0.220" /><ellipse cx="1536.0" cy="1567.7" rx="736.0" ry="610.9" fill="url(#extrude321)" opacity="0.205" /><ellipse cx="1536.0" cy="1583.6" rx="743.4" ry="616.1" fill="url(#extrude321)" opacity="0.190" /><ellipse cx="1536.0" cy="1599.5" rx="750.9" ry="621.3" fill="url(#extrude321)" opacity="0.175" /><ellipse cx="1536.0" cy="1615.4" rx="758.3" ry="626.5" fill="url(#extrude321)" opacity="0.160" /><ellipse cx="1536.0" cy="1631.2" rx="765.7" ry="631.7" fill="url(#extrude321)" opacity="0.145" /><ellipse cx="1536.0" cy="1647.1" rx="773.2" ry="636.9" fill="url(#extrude321)" opacity="0.130" /><ellipse cx="1536.0" cy="1663.0" rx="780.6" ry="642.1" fill="url(#extrude321)" opacity="0.115" /><ellipse cx="1536.0" cy="1678.8" rx="788.0" ry="647.4" fill="url(#extrude321)" opacity="0.100" /><ellipse cx="1536.0" cy="1694.7" rx="795.5" ry="652.6" fill="url(#extrude321)" opacity="0.085" /><ellipse cx="1536.0" cy="1710.6" rx="802.9" ry="657.8" fill="url(#extrude321)" opacity="0.070" /><ellipse cx="1536.0" cy="1726.5" rx="810.3" ry="663.0" fill="url(#extrude321)" opacity="0.055" /></g>
  <ellipse cx="1536.0" cy="1726.5" rx="773.2" ry="214.9" fill="#0B1D2D" opacity="0.24" />
  <ellipse cx="1536.0" cy="1536.0" rx="743.4" ry="651.3" fill="url(#orb321)" stroke="#FFFFFF" stroke-opacity="0.42" stroke-width="7" />
  <ellipse cx="1431.9" cy="1392.7" rx="505.5" ry="299.6" fill="#FFFFFF" opacity="0.25" />
  <path d="M 199.4 399.4 C 1013.8 -30.7, 2058.2 768.0, 2872.6 215.0 L 2872.6 983.0 C 2089.0 1228.8, 1013.8 307.2, 199.4 1167.4 Z" fill="url(#glass321)" />
  <rect x="270" y="270" width="2532" height="2532" rx="430" fill="none" stroke="#FFFFFF" stroke-opacity="0.30" stroke-width="5" />
  <rect x="288.4" y="288.4" width="2495.1" height="2495.1" rx="399" fill="none" stroke="#53E3A6" stroke-opacity="0.35" stroke-width="3" />
  <g filter="url(#soft321)"><rect x="1480" y="1786" width="52" height="2" fill="#FFFFFF" opacity="0.793" /><rect x="1505" y="1761" width="2" height="52" fill="#FFFFFF" opacity="0.793" /><rect x="2268" y="307" width="58" height="2" fill="#FFFFFF" opacity="0.324" /><rect x="2296" y="279" width="2" height="58" fill="#FFFFFF" opacity="0.324" /><rect x="315" y="428" width="72" height="2" fill="#FFFFFF" opacity="0.546" /><rect x="350" y="393" width="2" height="72" fill="#FFFFFF" opacity="0.546" /><rect x="905" y="1396" width="80" height="2" fill="#FFFFFF" opacity="0.531" /><rect x="944" y="1357" width="2" height="80" fill="#FFFFFF" opacity="0.531" /><rect x="2764" y="2200" width="54" height="2" fill="#FFFFFF" opacity="0.709" /><rect x="2790" y="2174" width="2" height="54" fill="#FFFFFF" opacity="0.709" /><rect x="2092" y="865" width="76" height="2" fill="#FFFFFF" opacity="0.825" /><rect x="2129" y="828" width="2" height="76" fill="#FFFFFF" opacity="0.825" /><rect x="878" y="2653" width="56" height="2" fill="#FFFFFF" opacity="0.434" /><rect x="905" y="2626" width="2" height="56" fill="#FFFFFF" opacity="0.434" /><rect x="740" y="1787" width="80" height="2" fill="#FFFFFF" opacity="0.321" /><rect x="779" y="1748" width="2" height="80" fill="#FFFFFF" opacity="0.321" /><rect x="647" y="2706" width="80" height="2" fill="#FFFFFF" opacity="0.625" /><rect x="686" y="2667" width="2" height="80" fill="#FFFFFF" opacity="0.625" /><rect x="1063" y="1379" width="52" height="2" fill="#FFFFFF" opacity="0.397" /><rect x="1088" y="1354" width="2" height="52" fill="#FFFFFF" opacity="0.397" /><rect x="1125" y="1506" width="28" height="2" fill="#FFFFFF" opacity="0.673" /><rect x="1138" y="1493" width="2" height="28" fill="#FFFFFF" opacity="0.673" /><rect x="702" y="2513" width="80" height="2" fill="#FFFFFF" opacity="0.687" /><rect x="741" y="2474" width="2" height="80" fill="#FFFFFF" opacity="0.687" /><rect x="2476" y="2668" width="80" height="2" fill="#FFFFFF" opacity="0.579" /><rect x="2515" y="2629" width="2" height="80" fill="#FFFFFF" opacity="0.579" /><rect x="1714" y="837" width="56" height="2" fill="#FFFFFF" opacity="0.471" /><rect x="1741" y="810" width="2" height="56" fill="#FFFFFF" opacity="0.471" /><rect x="831" y="1158" width="34" height="2" fill="#FFFFFF" opacity="0.784" /><rect x="847" y="1142" width="2" height="34" fill="#FFFFFF" opacity="0.784" /><rect x="2474" y="381" width="62" height="2" fill="#FFFFFF" opacity="0.509" /><rect x="2504" y="351" width="2" height="62" fill="#FFFFFF" opacity="0.509" /><rect x="1494" y="1185" width="74" height="2" fill="#FFFFFF" opacity="0.791" /><rect x="1530" y="1149" width="2" height="74" fill="#FFFFFF" opacity="0.791" /><rect x="1420" y="2252" width="54" height="2" fill="#FFFFFF" opacity="0.375" /><rect x="1446" y="2226" width="2" height="54" fill="#FFFFFF" opacity="0.375" /><rect x="1559" y="2133" width="42" height="2" fill="#FFFFFF" opacity="0.429" /><rect x="1579" y="2113" width="2" height="42" fill="#FFFFFF" opacity="0.429" /><rect x="1942" y="1661" width="82" height="2" fill="#FFFFFF" opacity="0.634" /><rect x="1982" y="1621" width="2" height="82" fill="#FFFFFF" opacity="0.634" /><rect x="989" y="400" width="34" height="2" fill="#FFFFFF" opacity="0.471" /><rect x="1005" y="384" width="2" height="34" fill="#FFFFFF" opacity="0.471" /><rect x="1305" y="860" width="32" height="2" fill="#FFFFFF" opacity="0.522" /><rect x="1320" y="845" width="2" height="32" fill="#FFFFFF" opacity="0.522" /><rect x="470" y="2092" width="60" height="2" fill="#FFFFFF" opacity="0.397" /><rect x="499" y="2063" width="2" height="60" fill="#FFFFFF" opacity="0.397" /><rect x="796" y="2712" width="40" height="2" fill="#FFFFFF" opacity="0.469" /><rect x="815" y="2693" width="2" height="40" fill="#FFFFFF" opacity="0.469" /><rect x="498" y="1248" width="74" height="2" fill="#FFFFFF" opacity="0.455" /><rect x="534" y="1212" width="2" height="74" fill="#FFFFFF" opacity="0.455" /><rect x="2595" y="2531" width="60" height="2" fill="#FFFFFF" opacity="0.666" /><rect x="2624" y="2502" width="2" height="60" fill="#FFFFFF" opacity="0.666" /></g>
  <g opacity="0.52"><rect x="1060" y="1070" width="1024" height="1024" rx="153" fill="none" stroke="#0C2030" stroke-width="90" /><line x1="1316" y1="1326" x2="1828" y2="1838" stroke="#0C2030" stroke-width="90" stroke-linecap="round" /><line x1="1828" y1="1326" x2="1316" y2="1838" stroke="#0C2030" stroke-width="90" stroke-linecap="round" /></g>
  <g filter="url(#soft321)"><rect x="1024" y="1024" width="1024" height="1024" rx="153" fill="none" stroke="url(#symbol321)" stroke-width="90" /><line x1="1280" y1="1280" x2="1792" y2="1792" stroke="url(#symbol321)" stroke-width="90" stroke-linecap="round" /><line x1="1792" y1="1280" x2="1280" y2="1792" stroke="url(#symbol321)" stroke-width="90" stroke-linecap="round" /></g>
  <rect x="138" y="138" width="2796" height="2796" rx="629" fill="#FFFFFF" filter="url(#grain321)" opacity="0.18" />
</svg>
