<svg xmlns="http://www.w3.org/2000/svg" width="3072" height="3072" viewBox="0 0 3072 3072">
  <title>QuartzOS App Icon 202 - nova_notes_202</title>
  <defs><linearGradient id="bg201" x1="0%" y1="0%" x2="100%" y2="100%"><stop offset="0%" stop-color="#FFD84D" /><stop offset="26%" stop-color="#36D1FF" /><stop offset="56%" stop-color="#8A5CFF" /><stop offset="78%" stop-color="#4F79A7" /><stop offset="100%" stop-color="#1B2630" /></linearGradient><radialGradient id="sun201" cx="28%" cy="17%" r="88%"><stop offset="0%" stop-color="#FFFFFF" stop-opacity="0.62" /><stop offset="30%" stop-color="#FF6AB3" stop-opacity="0.35" /><stop offset="100%" stop-color="#FF6AB3" stop-opacity="0" /></radialGradient><linearGradient id="glass201" x1="0%" y1="0%" x2="0%" y2="100%"><stop offset="0%" stop-color="#FFFFFF" stop-opacity="0.70" /><stop offset="46%" stop-color="#FFFFFF" stop-opacity="0.26" /><stop offset="100%" stop-color="#FFFFFF" stop-opacity="0.00" /></linearGradient><linearGradient id="ribbon201" x1="0%" y1="0%" x2="100%" y2="0%"><stop offset="0%" stop-color="#FFD84D" stop-opacity="0.18" /><stop offset="34%" stop-color="#36D1FF" stop-opacity="0.72" /><stop offset="66%" stop-color="#8A5CFF" stop-opacity="0.72" /><stop offset="100%" stop-color="#FF6AB3" stop-opacity="0.18" /></linearGradient><radialGradient id="orb201" cx="34%" cy="27%" r="74%"><stop offset="0%" stop-color="#FFFFFF" stop-opacity="0.84" /><stop offset="30%" stop-color="#FFD84D" stop-opacity="0.52" /><stop offset="68%" stop-color="#36D1FF" stop-opacity="0.42" /><stop offset="100%" stop-color="#8A5CFF" stop-opacity="0.20" /></radialGradient><linearGradient id="extrude201" x1="0%" y1="0%" x2="0%" y2="100%"><stop offset="0%" stop-color="#15283C" stop-opacity="0.45" /><stop offset="100%" stop-color="#08131D" stop-opacity="0.06" /></linearGradient><linearGradient id="symbol201" x1="0%" y1="0%" x2="100%" y2="100%"><stop offset="0%" stop-color="#FFFFFF" /><stop offset="100%" stop-color="#FF6AB3" /></linearGradient><filter id="shadow201" x="-40%" y="-40%" width="180%" height="180%"><feDropShadow dx="0" dy="49" stdDeviation="86" flood-color="#06111A" flood-opacity="0.54" /></filter><filter id="soft201" x="-40%" y="-40%" width="180%" height="180%"><feDropShadow dx="0" dy="0" stdDeviation="14" flood-color="#FFD84D" flood-opacity="0.45" /></filter><filter id="grain201"><feTurbulence type="fractalNoise" baseFrequency="0.742" numOctaves="2" seed="201" /><feColorMatrix type="saturate" values="0" /><feComponentTransfer><feFuncA type="table" tableValues="0 0.09" /></feComponentTransfer></filter></defs>
  <rect x="138" y="138" width="2796" height="2796" rx="629" fill="url(#bg201)" filter="url(#shadow201)" />
  <rect x="138" y="138" width="2796" height="2796" rx="629" fill="url(#sun201)" />
  <g><circle cx="1945" cy="744" r="98" fill="#FFFFFF" opacity="0.082" /><circle cx="1298" cy="2083" r="103" fill="#FFFFFF" opacity="0.232" /><circle cx="812" cy="831" r="98" fill="#FFFFFF" opacity="0.107" /><circle cx="1569" cy="2186" r="145" fill="#FFFFFF" opacity="0.070" /><circle cx="1008" cy="664" r="126" fill="#FFFFFF" opacity="0.198" /><circle cx="1714" cy="1946" r="45" fill="#FFFFFF" opacity="0.103" /><circle cx="1123" cy="2386" r="41" fill="#FFFFFF" opacity="0.127" /><circle cx="1176" cy="794" r="120" fill="#FFFFFF" opacity="0.074" /><circle cx="422" cy="2699" r="83" fill="#FFFFFF" opacity="0.189" /><circle cx="1748" cy="1844" r="79" fill="#FFFFFF" opacity="0.091" /><circle cx="1785" cy="962" r="121" fill="#FFFFFF" opacity="0.070" /><circle cx="951" cy="2682" r="140" fill="#FFFFFF" opacity="0.229" /><circle cx="1374" cy="2636" r="111" fill="#FFFFFF" opacity="0.148" /><circle cx="2490" cy="695" r="149" fill="#FFFFFF" opacity="0.215" /><circle cx="2370" cy="1316" r="39" fill="#FFFFFF" opacity="0.209" /><circle cx="1765" cy="930" r="157" fill="#FFFFFF" opacity="0.132" /><circle cx="1420" cy="1655" r="81" fill="#FFFFFF" opacity="0.237" /><circle cx="2448" cy="2551" r="115" fill="#FFFFFF" opacity="0.125" /><circle cx="1512" cy="1691" r="133" fill="#FFFFFF" opacity="0.223" /><circle cx="1114" cy="2210" r="152" fill="#FFFFFF" opacity="0.227" /><circle cx="2210" cy="1689" r="53" fill="#FFFFFF" opacity="0.078" /><circle cx="617" cy="2366" r="103" fill="#FFFFFF" opacity="0.096" /><circle cx="2309" cy="1155" r="123" fill="#FFFFFF" opacity="0.194" /><circle cx="843" cy="579" r="114" fill="#FFFFFF" opacity="0.110" /><circle cx="880" cy="780" r="139" fill="#FFFFFF" opacity="0.109" /><circle cx="1876" cy="526" r="114" fill="#FFFFFF" opacity="0.235" /><circle cx="1376" cy="2150" r="73" fill="#FFFFFF" opacity="0.175" /><circle cx="876" cy="1592" r="138" fill="#FFFFFF" opacity="0.064" /></g>
  <g><path d="M 158.1 651.0 L 2812.3 374.5 L 2812.3 795.1 L 158.1 1071.6 Z" fill="#FFFFFF" opacity="0.149" /><path d="M 313.2 840.8 L 2898.8 564.3 L 2898.8 1012.2 L 313.2 1288.7 Z" fill="#FFFFFF" opacity="0.130" /><path d="M 211.2 1153.8 L 2880.2 877.3 L 2880.2 1314.4 L 211.2 1590.8 Z" fill="#FFFFFF" opacity="0.081" /><path d="M 311.1 1365.2 L 2738.3 1088.8 L 2738.3 1536.4 L 311.1 1812.8 Z" fill="#FFFFFF" opacity="0.174" /><path d="M 352.8 1661.8 L 2686.6 1385.3 L 2686.6 1831.5 L 352.8 2108.0 Z" fill="#FFFFFF" opacity="0.176" /><path d="M 249.1 1874.2 L 2735.8 1597.8 L 2735.8 2036.7 L 249.1 2313.1 Z" fill="#FFFFFF" opacity="0.132" /><path d="M 293.3 2146.5 L 2773.1 1870.0 L 2773.1 2325.4 L 293.3 2601.9 Z" fill="#FFFFFF" opacity="0.121" /><path d="M 263.6 2429.2 L 2818.7 2152.7 L 2818.7 2607.6 L 263.6 2884.1 Z" fill="#FFFFFF" opacity="0.159" /></g>
  <g filter="url(#soft201)"><g transform="rotate(-19.91 1536.0 1536.0)"><path d="M-368.6 517.1 C -225.8 580.1, -25.8 454.5, 107.5 553.4 C 250.4 564.5, 450.4 491.5, 583.7 512.4 C 726.5 511.2, 926.5 519.5, 1059.8 474.3 C 1202.7 489.9, 1402.7 559.6, 1536.0 462.2 C 1678.8 459.3, 1878.8 561.0, 2012.2 483.4 C 2155.0 492.3, 2355.0 556.5, 2488.3 525.1 C 2631.2 526.6, 2831.2 509.4, 2964.5 561.9 C 3107.3 578.0, 3307.3 502.2, 3440.6 571.6" fill="none" stroke="url(#ribbon201)" stroke-width="58.4" stroke-linecap="round" stroke-opacity="0.120" /></g><g transform="rotate(-19.33 1536.0 1536.0)"><path d="M-368.6 752.0 C -241.7 727.1, -63.9 777.4, 54.6 689.9 C 181.6 693.9, 359.4 823.8, 477.9 704.7 C 604.8 687.0, 782.6 805.5, 901.1 748.2 C 1028.1 747.3, 1205.9 753.6, 1324.4 794.0 C 1451.3 779.6, 1629.1 719.4, 1747.6 814.3 C 1874.6 810.4, 2052.4 699.6, 2170.9 796.8 C 2297.9 795.8, 2475.6 721.4, 2594.1 752.1 C 2721.1 752.1, 2898.9 751.8, 3017.4 707.3 C 3144.4 723.4, 3322.1 775.7, 3440.6 689.6" fill="none" stroke="url(#ribbon201)" stroke-width="54.4" stroke-linecap="round" stroke-opacity="0.146" /></g><g transform="rotate(-18.75 1536.0 1536.0)"><path d="M-368.6 915.8 C -254.4 995.2, -94.4 898.3, 12.3 927.5 C 126.6 927.4, 286.6 911.8, 393.2 874.9 C 507.5 879.8, 667.5 928.7, 774.1 847.1 C 888.4 860.0, 1048.4 949.1, 1155.1 860.9 C 1269.4 848.0, 1429.3 970.0, 1536.0 908.1 C 1650.3 907.6, 1810.3 919.7, 1916.9 959.9 C 2031.2 953.7, 2191.2 897.2, 2297.9 985.0 C 2412.1 993.5, 2572.1 870.9, 2678.8 968.1 C 2793.1 974.8, 2953.1 882.5, 3059.7 919.5 C 3174.0 919.9, 3334.0 912.4, 3440.6 868.6" fill="none" stroke="url(#ribbon201)" stroke-width="50.4" stroke-linecap="round" stroke-opacity="0.172" /></g><g transform="rotate(-18.17 1536.0 1536.0)"><path d="M-368.6 1137.2 C -264.8 1118.5, -119.3 1158.6, -22.3 1165.8 C 81.5 1166.8, 227.0 1106.0, 324.0 1208.1 C 427.8 1183.6, 573.3 1070.7, 670.3 1207.3 C 774.1 1208.2, 919.6 1074.5, 1016.6 1164.1 C 1120.4 1172.9, 1265.9 1113.6, 1362.9 1104.6 C 1466.7 1106.3, 1612.2 1155.2, 1709.1 1064.9 C 1813.0 1077.9, 1958.5 1202.2, 2055.4 1069.1 C 2159.3 1046.9, 2304.8 1172.8, 2401.7 1114.6 C 2505.6 1106.8, 2651.1 1161.7, 2748.0 1173.9 C 2851.9 1166.2, 2997.4 1096.6, 3094.3 1210.9 C 3198.2 1239.7, 3343.7 1053.7, 3440.6 1203.3" fill="none" stroke="url(#ribbon201)" stroke-width="46.4" stroke-linecap="round" stroke-opacity="0.198" /></g><g transform="rotate(-17.59 1536.0 1536.0)"><path d="M-368.6 1305.6 C -273.4 1215.5, -140.1 1361.8, -51.2 1289.0 C 44.0 1286.5, 177.4 1320.4, 266.2 1352.8 C 361.5 1370.3, 494.8 1260.3, 583.7 1388.0 C 678.9 1361.8, 812.2 1265.9, 901.1 1373.1 C 996.4 1370.8, 1129.7 1276.8, 1218.6 1317.4 C 1313.8 1316.2, 1447.1 1301.6, 1536.0 1254.4 C 1631.2 1261.3, 1764.6 1343.8, 1853.4 1222.6 C 1948.7 1201.6, 2082.0 1395.2, 2170.9 1241.1 C 2266.1 1220.1, 2399.4 1368.9, 2488.3 1298.7 C 2583.6 1297.0, 2716.9 1313.7, 2805.8 1360.5 C 2901.0 1360.1, 3034.3 1269.2, 3123.2 1389.0 C 3218.4 1397.9, 3351.8 1269.9, 3440.6 1366.9" fill="none" stroke="url(#ribbon201)" stroke-width="42.4" stroke-linecap="round" stroke-opacity="0.224" /></g><g transform="rotate(-17.01 1536.0 1536.0)"><path d="M-368.6 1509.5 C -225.8 1598.8, -25.8 1446.2, 107.5 1582.2 C 250.4 1584.8, 450.4 1465.4, 583.7 1521.4 C 726.5 1525.9, 926.5 1495.9, 1059.8 1453.3 C 1202.7 1432.8, 1402.7 1546.0, 1536.0 1419.3 C 1678.8 1439.4, 1878.8 1537.6, 2012.2 1440.0 C 2155.0 1448.3, 2355.0 1537.4, 2488.3 1502.8 C 2631.2 1501.6, 2831.2 1513.3, 2964.5 1569.6 C 3107.3 1587.6, 3307.3 1450.7, 3440.6 1600.0" fill="none" stroke="url(#ribbon201)" stroke-width="38.4" stroke-linecap="round" stroke-opacity="0.250" /></g><g transform="rotate(-16.43 1536.0 1536.0)"><path d="M-368.6 1648.2 C -241.7 1652.4, -63.9 1640.7, 54.6 1722.6 C 181.6 1708.1, 359.4 1624.7, 477.9 1745.5 C 604.8 1778.5, 782.6 1582.9, 901.1 1709.5 C 1028.1 1709.9, 1205.9 1591.5, 1324.4 1636.3 C 1451.3 1637.9, 1629.1 1658.0, 1747.6 1570.4 C 1874.6 1565.0, 2052.4 1717.8, 2170.9 1551.7 C 2297.9 1571.9, 2475.6 1706.2, 2594.1 1591.6 C 2721.1 1600.3, 2898.9 1672.1, 3017.4 1665.8 C 3144.4 1671.9, 3322.1 1628.3, 3440.6 1729.4" fill="none" stroke="url(#ribbon201)" stroke-width="34.4" stroke-linecap="round" stroke-opacity="0.276" /></g><g transform="rotate(-15.85 1536.0 1536.0)"><path d="M-368.6 1870.3 C -254.4 1782.5, -94.4 1987.2, 12.3 1805.1 C 126.6 1809.1, 286.6 1942.5, 393.2 1883.7 C 507.5 1879.2, 667.5 1865.3, 774.1 1954.2 C 888.4 1958.2, 1048.4 1793.9, 1155.1 1973.8 C 1269.4 1953.4, 1429.3 1758.8, 1536.0 1930.6 C 1650.3 1944.1, 1810.3 1819.6, 1916.9 1850.9 C 2031.2 1854.4, 2191.2 1890.8, 2297.9 1782.9 C 2412.1 1754.2, 2572.1 1914.0, 2678.8 1768.0 C 2793.1 1748.0, 2953.1 1939.7, 3059.7 1815.1 C 3174.0 1794.1, 3334.0 1899.0, 3440.6 1895.7" fill="none" stroke="url(#ribbon201)" stroke-width="30.4" stroke-linecap="round" stroke-opacity="0.302" /></g><g transform="rotate(-15.27 1536.0 1536.0)"><path d="M-368.6 2088.8 C -264.8 2022.8, -119.3 2135.7, -22.3 2059.1 C 81.5 2062.4, 227.0 2120.0, 324.0 2145.4 C 427.8 2164.1, 573.3 2053.6, 670.3 2197.4 C 774.1 2236.9, 919.6 1960.4, 1016.6 2183.5 C 1120.4 2199.1, 1265.9 2001.4, 1362.9 2112.1 C 1466.7 2114.2, 1612.2 2077.2, 1709.1 2026.6 C 1813.0 2027.3, 1958.5 2160.8, 2055.4 1978.8 C 2159.3 2016.6, 2304.8 2142.4, 2401.7 1997.7 C 2505.6 1972.7, 2651.1 2132.1, 2748.0 2071.9 C 2851.9 2072.1, 2997.4 2103.8, 3094.3 2156.3 C 3198.2 2147.3, 3343.7 2048.6, 3440.6 2199.8" fill="none" stroke="url(#ribbon201)" stroke-width="26.4" stroke-linecap="round" stroke-opacity="0.328" /></g><g transform="rotate(-14.69 1536.0 1536.0)"><path d="M-368.6 2212.5 C -273.4 2233.2, -140.1 2197.7, -51.2 2141.5 C 44.0 2139.5, 177.4 2276.2, 266.2 2094.6 C 361.5 2080.0, 494.8 2313.8, 583.7 2119.2 C 678.9 2087.9, 812.2 2252.0, 901.1 2200.4 C 996.4 2198.1, 1129.7 2222.8, 1218.6 2288.9 C 1313.8 2295.1, 1447.1 2124.2, 1536.0 2331.1 C 1631.2 2291.1, 1764.6 2151.7, 1853.4 2301.3 C 1948.7 2306.9, 2082.0 2136.6, 2170.9 2217.7 C 2266.1 2216.5, 2399.4 2206.3, 2488.3 2130.9 C 2583.6 2098.5, 2716.9 2272.5, 2805.8 2093.6 C 2901.0 2082.5, 3034.3 2252.9, 3123.2 2128.4 C 3218.4 2103.4, 3351.8 2265.6, 3440.6 2214.3" fill="none" stroke="url(#ribbon201)" stroke-width="22.4" stroke-linecap="round" stroke-opacity="0.354" /></g><g transform="rotate(-14.11 1536.0 1536.0)"><path d="M-368.6 2400.8 C -225.8 2501.9, -25.8 2272.4, 107.5 2515.4 C 250.4 2529.3, 450.4 2324.1, 583.7 2443.2 C 726.5 2452.2, 926.5 2381.0, 1059.8 2345.3 C 1202.7 2324.6, 1402.7 2465.8, 1536.0 2281.0 C 1678.8 2246.6, 1878.8 2448.3, 2012.2 2289.5 C 2155.0 2333.2, 2355.0 2437.6, 2488.3 2365.5 C 2631.2 2372.0, 2831.2 2436.9, 2964.5 2462.9 C 3107.3 2457.3, 3307.3 2369.4, 3440.6 2522.7" fill="none" stroke="url(#ribbon201)" stroke-width="18.4" stroke-linecap="round" stroke-opacity="0.380" /></g><g transform="rotate(-13.53 1536.0 1536.0)"><path d="M-368.6 2643.3 C -241.7 2660.5, -63.9 2621.8, 54.6 2567.6 C 181.6 2543.5, 359.4 2719.2, 477.9 2512.1 C 604.8 2541.7, 782.6 2787.4, 901.1 2536.2 C 1028.1 2496.5, 1205.9 2768.0, 1324.4 2625.3 C 1451.3 2632.0, 1629.1 2652.4, 1747.6 2725.3 C 1874.6 2737.2, 2052.4 2560.9, 2170.9 2775.6 C 2297.9 2816.2, 2475.6 2549.9, 2594.1 2745.7 C 2721.1 2742.2, 2898.9 2531.5, 3017.4 2653.7 C 3144.4 2649.7, 3322.1 2633.1, 3440.6 2555.4" fill="none" stroke="url(#ribbon201)" stroke-width="14.4" stroke-linecap="round" stroke-opacity="0.406" /></g></g>
  <g><ellipse cx="1536.0" cy="1551.9" rx="728.6" ry="605.7" fill="url(#extrude201)" opacity="0.220" /><ellipse cx="1536.0" cy="1567.7" rx="736.0" ry="610.9" fill="url(#extrude201)" opacity="0.205" /><ellipse cx="1536.0" cy="1583.6" rx="743.4" ry="616.1" fill="url(#extrude201)" opacity="0.190" /><ellipse cx="1536.0" cy="1599.5" rx="750.9" ry="621.3" fill="url(#extrude201)" opacity="0.175" /><ellipse cx="1536.0" cy="1615.4" rx="758.3" ry="626.5" fill="url(#extrude201)" opacity="0.160" /><ellipse cx="1536.0" cy="1631.2" rx="765.7" ry="631.7" fill="url(#extrude201)" opacity="0.145" /><ellipse cx="1536.0" cy="1647.1" rx="773.2" ry="636.9" fill="url(#extrude201)" opacity="0.130" /><ellipse cx="1536.0" cy="1663.0" rx="780.6" ry="642.1" fill="url(#extrude201)" opacity="0.115" /><ellipse cx="1536.0" cy="1678.8" rx="788.0" ry="647.4" fill="url(#extrude201)" opacity="0.100" /><ellipse cx="1536.0" cy="1694.7" rx="795.5" ry="652.6" fill="url(#extrude201)" opacity="0.085" /><ellipse cx="1536.0" cy="1710.6" rx="802.9" ry="657.8" fill="url(#extrude201)" opacity="0.070" /><ellipse cx="1536.0" cy="1726.5" rx="810.3" ry="663.0" fill="url(#extrude201)" opacity="0.055" /></g>
  <ellipse cx="1536.0" cy="1726.5" rx="773.2" ry="214.9" fill="#0B1D2D" opacity="0.24" />
  <ellipse cx="1536.0" cy="1536.0" rx="743.4" ry="651.3" fill="url(#orb201)" stroke="#FFFFFF" stroke-opacity="0.42" stroke-width="7" />
  <ellipse cx="1431.9" cy="1392.7" rx="505.5" ry="299.6" fill="#FFFFFF" opacity="0.25" />
  <path d="M 199.4 399.4 C 1013.8 -30.7, 2058.2 768.0, 2872.6 215.0 L 2872.6 983.0 C 2089.0 1228.8, 1013.8 307.2, 199.4 1167.4 Z" fill="url(#glass201)" />
  <rect x="270" y="270" width="2532" height="2532" rx="430" fill="none" stroke="#FFFFFF" stroke-opacity="0.30" stroke-width="5" />
  <rect x="288.4" y="288.4" width="2495.1" height="2495.1" rx="399" fill="none" stroke="#FFD84D" stroke-opacity="0.35" stroke-width="3" />
  <g filter="url(#soft201)"><rect x="2170" y="470" width="44" height="2" fill="#FFFFFF" opacity="0.562" /><rect x="2191" y="449" width="2" height="44" fill="#FFFFFF" opacity="0.562" /><rect x="1952" y="2238" width="56" height="2" fill="#FFFFFF" opacity="0.790" /><rect x="1979" y="2211" width="2" height="56" fill="#FFFFFF" opacity="0.790" /><rect x="1466" y="1370" width="32" height="2" fill="#FFFFFF" opacity="0.737" /><rect x="1481" y="1355" width="2" height="32" fill="#FFFFFF" opacity="0.737" /><rect x="834" y="2179" width="68" height="2" fill="#FFFFFF" opacity="0.825" /><rect x="867" y="2146" width="2" height="68" fill="#FFFFFF" opacity="0.825" /><rect x="656" y="864" width="68" height="2" fill="#FFFFFF" opacity="0.619" /><rect x="689" y="831" width="2" height="68" fill="#FFFFFF" opacity="0.619" /><rect x="1295" y="2707" width="84" height="2" fill="#FFFFFF" opacity="0.715" /><rect x="1336" y="2666" width="2" height="84" fill="#FFFFFF" opacity="0.715" /><rect x="1125" y="2754" width="48" height="2" fill="#FFFFFF" opacity="0.420" /><rect x="1148" y="2731" width="2" height="48" fill="#FFFFFF" opacity="0.420" /><rect x="1373" y="1662" width="38" height="2" fill="#FFFFFF" opacity="0.317" /><rect x="1391" y="1644" width="2" height="38" fill="#FFFFFF" opacity="0.317" /><rect x="1742" y="536" width="76" height="2" fill="#FFFFFF" opacity="0.840" /><rect x="1779" y="499" width="2" height="76" fill="#FFFFFF" opacity="0.840" /><rect x="1010" y="2354" width="64" height="2" fill="#FFFFFF" opacity="0.743" /><rect x="1041" y="2323" width="2" height="64" fill="#FFFFFF" opacity="0.743" /><rect x="2579" y="335" width="50" height="2" fill="#FFFFFF" opacity="0.591" /><rect x="2603" y="311" width="2" height="50" fill="#FFFFFF" opacity="0.591" /><rect x="821" y="2255" width="42" height="2" fill="#FFFFFF" opacity="0.598" /><rect x="841" y="2235" width="2" height="42" fill="#FFFFFF" opacity="0.598" /><rect x="2083" y="1799" width="52" height="2" fill="#FFFFFF" opacity="0.415" /><rect x="2108" y="1774" width="2" height="52" fill="#FFFFFF" opacity="0.415" /><rect x="1834" y="2626" width="66" height="2" fill="#FFFFFF" opacity="0.356" /><rect x="1866" y="2594" width="2" height="66" fill="#FFFFFF" opacity="0.356" /><rect x="1035" y="2455" width="74" height="2" fill="#FFFFFF" opacity="0.401" /><rect x="1071" y="2419" width="2" height="74" fill="#FFFFFF" opacity="0.401" /><rect x="2017" y="1298" width="62" height="2" fill="#FFFFFF" opacity="0.586" /><rect x="2047" y="1268" width="2" height="62" fill="#FFFFFF" opacity="0.586" /><rect x="2734" y="328" width="50" height="2" fill="#FFFFFF" opacity="0.494" /><rect x="2758" y="304" width="2" height="50" fill="#FFFFFF" opacity="0.494" /><rect x="1456" y="1359" width="84" height="2" fill="#FFFFFF" opacity="0.627" /><rect x="1497" y="1318" width="2" height="84" fill="#FFFFFF" opacity="0.627" /><rect x="1915" y="2393" width="76" height="2" fill="#FFFFFF" opacity="0.357" /><rect x="1952" y="2356" width="2" height="76" fill="#FFFFFF" opacity="0.357" /><rect x="1651" y="471" width="66" height="2" fill="#FFFFFF" opacity="0.457" /><rect x="1683" y="439" width="2" height="66" fill="#FFFFFF" opacity="0.457" /><rect x="538" y="1059" width="84" height="2" fill="#FFFFFF" opacity="0.778" /><rect x="579" y="1018" width="2" height="84" fill="#FFFFFF" opacity="0.778" /><rect x="963" y="1127" width="52" height="2" fill="#FFFFFF" opacity="0.813" /><rect x="988" y="1102" width="2" height="52" fill="#FFFFFF" opacity="0.813" /><rect x="2056" y="1825" width="66" height="2" fill="#FFFFFF" opacity="0.571" /><rect x="2088" y="1793" width="2" height="66" fill="#FFFFFF" opacity="0.571" /><rect x="1747" y="1546" width="24" height="2" fill="#FFFFFF" opacity="0.448" /><rect x="1758" y="1535" width="2" height="24" fill="#FFFFFF" opacity="0.448" /><rect x="2173" y="1344" width="66" height="2" fill="#FFFFFF" opacity="0.525" /><rect x="2205" y="1312" width="2" height="66" fill="#FFFFFF" opacity="0.525" /><rect x="1097" y="2467" width="84" height="2" fill="#FFFFFF" opacity="0.452" /><rect x="1138" y="2426" width="2" height="84" fill="#FFFFFF" opacity="0.452" /></g>
  <g opacity="0.52"><rect x="1060" y="1070" width="1024" height="1024" rx="153" fill="none" stroke="#0C2030" stroke-width="90" /><line x1="1316" y1="1326" x2="1828" y2="1838" stroke="#0C2030" stroke-width="90" stroke-linecap="round" /><line x1="1828" y1="1326" x2="1316" y2="1838" stroke="#0C2030" stroke-width="90" stroke-linecap="round" /></g>
  <g filter="url(#soft201)"><rect x="1024" y="1024" width="1024" height="1024" rx="153" fill="none" stroke="url(#symbol201)" stroke-width="90" /><line x1="1280" y1="1280" x2="1792" y2="1792" stroke="url(#symbol201)" stroke-width="90" stroke-linecap="round" /><line x1="1792" y1="1280" x2="1280" y2="1792" stroke="url(#symbol201)" stroke-width="90" stroke-linecap="round" /></g>
  <rect x="138" y="138" width="2796" height="2796" rx="629" fill="#FFFFFF" filter="url(#grain201)" opacity="0.18" />
</svg>
