<svg xmlns="http://www.w3.org/2000/svg" width="3072" height="3072" viewBox="0 0 3072 3072">
  <title>QuartzOS App Icon 122 - nova_camera_122</title>
  <defs><linearGradient id="bg121" x1="0%" y1="0%" x2="100%" y2="100%"><stop offset="0%" stop-color="#8A5CFF" /><stop offset="26%" stop-color="#FF9F43" /><stop offset="56%" stop-color="#53E3A6" /><stop offset="78%" stop-color="#2E8D96" /><stop offset="100%" stop-color="#0F2A2E" /></linearGradient><radialGradient id="sun121" cx="29%" cy="26%" r="88%"><stop offset="0%" stop-color="#FFFFFF" stop-opacity="0.62" /><stop offset="30%" stop-color="#36D1FF" stop-opacity="0.35" /><stop offset="100%" stop-color="#36D1FF" stop-opacity="0" /></radialGradient><linearGradient id="glass121" x1="0%" y1="0%" x2="0%" y2="100%"><stop offset="0%" stop-color="#FFFFFF" stop-opacity="0.70" /><stop offset="46%" stop-color="#FFFFFF" stop-opacity="0.26" /><stop offset="100%" stop-color="#FFFFFF" stop-opacity="0.00" /></linearGradient><linearGradient id="ribbon121" x1="0%" y1="0%" x2="100%" y2="0%"><stop offset="0%" stop-color="#8A5CFF" stop-opacity="0.18" /><stop offset="34%" stop-color="#FF9F43" stop-opacity="0.72" /><stop offset="66%" stop-color="#53E3A6" stop-opacity="0.72" /><stop offset="100%" stop-color="#36D1FF" stop-opacity="0.18" /></linearGradient><radialGradient id="orb121" cx="34%" cy="27%" r="74%"><stop offset="0%" stop-color="#FFFFFF" stop-opacity="0.84" /><stop offset="30%" stop-color="#8A5CFF" stop-opacity="0.52" /><stop offset="68%" stop-color="#FF9F43" stop-opacity="0.42" /><stop offset="100%" stop-color="#53E3A6" stop-opacity="0.20" /></radialGradient><linearGradient id="extrude121" x1="0%" y1="0%" x2="0%" y2="100%"><stop offset="0%" stop-color="#15283C" stop-opacity="0.45" /><stop offset="100%" stop-color="#08131D" stop-opacity="0.06" /></linearGradient><linearGradient id="symbol121" x1="0%" y1="0%" x2="100%" y2="100%"><stop offset="0%" stop-color="#FFFFFF" /><stop offset="100%" stop-color="#36D1FF" /></linearGradient><filter id="shadow121" x="-40%" y="-40%" width="180%" height="180%"><feDropShadow dx="0" dy="49" stdDeviation="86" flood-color="#06111A" flood-opacity="0.54" /></filter><filter id="soft121" x="-40%" y="-40%" width="180%" height="180%"><feDropShadow dx="0" dy="0" stdDeviation="14" flood-color="#8A5CFF" flood-opacity="0.45" /></filter><filter id="grain121"><feTurbulence type="fractalNoise" baseFrequency="0.639" numOctaves="2" seed="121" /><feColorMatrix type="saturate" values="0" /><feComponentTransfer><feFuncA type="table" tableValues="0 0.09" /></feComponentTransfer></filter></defs>
  <rect x="138" y="138" width="2796" height="2796" rx="629" fill="url(#bg121)" filter="url(#shadow121)" />
  <rect x="138" y="138" width="2796" height="2796" rx="629" fill="url(#sun121)" />
  <g><circle cx="1855" cy="1504" r="76" fill="#FFFFFF" opacity="0.169" /><circle cx="1980" cy="1358" r="53" fill="#FFFFFF" opacity="0.106" /><circle cx="2645" cy="1188" r="116" fill="#FFFFFF" opacity="0.155" /><circle cx="2240" cy="395" r="48" fill="#FFFFFF" opacity="0.229" /><circle cx="874" cy="1352" r="129" fill="#FFFFFF" opacity="0.129" /><circle cx="1099" cy="489" r="87" fill="#FFFFFF" opacity="0.094" /><circle cx="1978" cy="1878" r="88" fill="#FFFFFF" opacity="0.128" /><circle cx="2133" cy="950" r="60" fill="#FFFFFF" opacity="0.216" /><circle cx="2336" cy="1563" r="53" fill="#FFFFFF" opacity="0.167" /><circle cx="1098" cy="886" r="100" fill="#FFFFFF" opacity="0.229" /><circle cx="677" cy="1716" r="112" fill="#FFFFFF" opacity="0.207" /><circle cx="1781" cy="2273" r="57" fill="#FFFFFF" opacity="0.118" /><circle cx="875" cy="324" r="54" fill="#FFFFFF" opacity="0.223" /><circle cx="2237" cy="1207" r="46" fill="#FFFFFF" opacity="0.115" /><circle cx="1464" cy="741" r="124" fill="#FFFFFF" opacity="0.203" /><circle cx="428" cy="854" r="115" fill="#FFFFFF" opacity="0.156" /><circle cx="2228" cy="1363" r="39" fill="#FFFFFF" opacity="0.233" /><circle cx="593" cy="602" r="142" fill="#FFFFFF" opacity="0.163" /><circle cx="2182" cy="2217" r="61" fill="#FFFFFF" opacity="0.157" /><circle cx="1672" cy="2130" r="68" fill="#FFFFFF" opacity="0.239" /><circle cx="614" cy="2123" r="90" fill="#FFFFFF" opacity="0.229" /><circle cx="462" cy="1253" r="113" fill="#FFFFFF" opacity="0.075" /><circle cx="1196" cy="796" r="78" fill="#FFFFFF" opacity="0.075" /><circle cx="2516" cy="1474" r="105" fill="#FFFFFF" opacity="0.067" /><circle cx="479" cy="1096" r="63" fill="#FFFFFF" opacity="0.084" /><circle cx="1079" cy="1340" r="144" fill="#FFFFFF" opacity="0.204" /><circle cx="461" cy="1843" r="38" fill="#FFFFFF" opacity="0.213" /><circle cx="1110" cy="1108" r="129" fill="#FFFFFF" opacity="0.130" /></g>
  <g><path d="M 153.7 588.6 L 2732.8 312.1 L 2732.8 768.5 L 153.7 1044.9 Z" fill="#FFFFFF" opacity="0.193" /><path d="M 327.6 909.0 L 2891.0 632.6 L 2891.0 1091.6 L 327.6 1368.1 Z" fill="#FFFFFF" opacity="0.221" /><path d="M 199.2 1136.3 L 2865.9 859.8 L 2865.9 1290.0 L 199.2 1566.4 Z" fill="#FFFFFF" opacity="0.168" /><path d="M 201.9 1421.1 L 2749.2 1144.6 L 2749.2 1573.1 L 201.9 1849.6 Z" fill="#FFFFFF" opacity="0.108" /><path d="M 338.5 1661.4 L 2855.5 1384.9 L 2855.5 1815.5 L 338.5 2092.0 Z" fill="#FFFFFF" opacity="0.181" /><path d="M 228.1 1899.9 L 2690.1 1623.5 L 2690.1 2070.7 L 228.1 2347.2 Z" fill="#FFFFFF" opacity="0.205" /><path d="M 230.7 2225.4 L 2919.2 1948.9 L 2919.2 2380.0 L 230.7 2656.5 Z" fill="#FFFFFF" opacity="0.125" /><path d="M 345.8 2412.2 L 2870.5 2135.7 L 2870.5 2597.8 L 345.8 2874.3 Z" fill="#FFFFFF" opacity="0.221" /></g>
  <g filter="url(#soft121)"><g transform="rotate(-9.94 1536.0 1536.0)"><path d="M-368.6 568.3 C -225.8 589.7, -25.8 544.7, 107.5 621.3 C 250.4 604.5, 450.4 543.6, 583.7 616.6 C 726.5 614.9, 926.5 552.5, 1059.8 582.6 C 1202.7 581.7, 1402.7 558.5, 1536.0 540.0 C 1678.8 533.1, 1878.8 594.2, 2012.2 514.5 C 2155.0 534.1, 2355.0 584.8, 2488.3 521.7 C 2631.2 536.9, 2831.2 617.5, 2964.5 557.1 C 3107.3 558.0, 3307.3 573.3, 3440.6 599.4" fill="none" stroke="url(#ribbon121)" stroke-width="58.4" stroke-linecap="round" stroke-opacity="0.120" /></g><g transform="rotate(-9.36 1536.0 1536.0)"><path d="M-368.6 722.3 C -241.7 729.0, -63.9 717.3, 54.6 773.2 C 181.6 755.1, 359.4 667.0, 477.9 783.6 C 604.8 785.9, 782.6 670.6, 901.1 756.7 C 1028.1 751.0, 1205.9 691.0, 1324.4 709.0 C 1451.3 710.0, 1629.1 734.3, 1747.6 669.3 C 1874.6 679.0, 2052.4 749.6, 2170.9 661.7 C 2297.9 667.6, 2475.6 777.6, 2594.1 690.9 C 2721.1 688.6, 2898.9 751.4, 3017.4 739.1 C 3144.4 745.5, 3322.1 702.5, 3440.6 777.1" fill="none" stroke="url(#ribbon121)" stroke-width="54.4" stroke-linecap="round" stroke-opacity="0.146" /></g><g transform="rotate(-8.78 1536.0 1536.0)"><path d="M-368.6 885.2 C -254.4 974.8, -94.4 806.6, 12.3 933.8 C 126.6 928.4, 286.6 869.9, 393.2 883.5 C 507.5 883.7, 667.5 887.0, 774.1 834.2 C 888.4 817.5, 1048.4 924.7, 1155.1 815.9 C 1269.4 833.5, 1429.3 919.3, 1536.0 839.6 C 1650.3 823.3, 1810.3 916.4, 1916.9 891.0 C 2031.2 889.2, 2191.2 879.5, 2297.9 938.9 C 2412.1 923.6, 2572.1 846.1, 2678.8 954.2 C 2793.1 957.2, 2953.1 840.7, 3059.7 927.7 C 3174.0 936.6, 3334.0 835.6, 3440.6 875.4" fill="none" stroke="url(#ribbon121)" stroke-width="50.4" stroke-linecap="round" stroke-opacity="0.172" /></g><g transform="rotate(-8.20 1536.0 1536.0)"><path d="M-368.6 1073.4 C -264.8 1109.8, -119.3 1054.3, -22.3 1149.6 C 81.5 1124.6, 227.0 1007.8, 324.0 1122.1 C 427.8 1121.5, 573.3 1033.2, 670.3 1065.0 C 774.1 1067.1, 919.6 1078.9, 1016.6 1013.0 C 1120.4 996.0, 1265.9 1132.0, 1362.9 997.6 C 1466.7 982.3, 1612.2 1142.2, 1709.1 1028.2 C 1813.0 1015.7, 1958.5 1091.3, 2055.4 1086.2 C 2159.3 1082.9, 2304.8 1062.0, 2401.7 1136.4 C 2505.6 1152.9, 2651.1 1046.4, 2748.0 1148.4 C 2851.9 1139.1, 2997.4 991.1, 3094.3 1114.8 C 3198.2 1129.6, 3343.7 1040.7, 3440.6 1056.2" fill="none" stroke="url(#ribbon121)" stroke-width="46.4" stroke-linecap="round" stroke-opacity="0.198" /></g><g transform="rotate(-7.62 1536.0 1536.0)"><path d="M-368.6 1270.3 C -273.4 1181.3, -140.1 1327.7, -51.2 1223.5 C 44.0 1220.2, 177.4 1284.8, 266.2 1287.3 C 361.5 1282.4, 494.8 1254.8, 583.7 1340.8 C 678.9 1320.9, 812.2 1221.3, 901.1 1351.5 C 996.4 1325.7, 1129.7 1204.3, 1218.6 1313.0 C 1313.8 1303.7, 1447.1 1222.9, 1536.0 1248.5 C 1631.2 1248.2, 1764.6 1296.0, 1853.4 1197.2 C 1948.7 1174.2, 2082.0 1349.0, 2170.9 1190.3 C 2266.1 1219.9, 2399.4 1327.3, 2488.3 1231.9 C 2583.6 1239.5, 2716.9 1313.8, 2805.8 1296.7 C 2901.0 1305.0, 3034.3 1242.0, 3123.2 1345.6 C 3218.4 1323.4, 3351.8 1214.1, 3440.6 1348.7" fill="none" stroke="url(#ribbon121)" stroke-width="42.4" stroke-linecap="round" stroke-opacity="0.224" /></g><g transform="rotate(-7.04 1536.0 1536.0)"><path d="M-368.6 1545.1 C -225.8 1485.3, -25.8 1593.7, 107.5 1465.9 C 250.4 1472.3, 450.4 1581.1, 583.7 1521.6 C 726.5 1512.8, 926.5 1560.6, 1059.8 1591.5 C 1202.7 1603.4, 1402.7 1510.2, 1536.0 1633.2 C 1678.8 1602.3, 1878.8 1511.6, 2012.2 1621.5 C 2155.0 1629.8, 2355.0 1514.3, 2488.3 1563.3 C 2631.2 1557.8, 2831.2 1530.8, 2964.5 1494.1 C 3107.3 1504.2, 3307.3 1601.8, 3440.6 1455.8" fill="none" stroke="url(#ribbon121)" stroke-width="38.4" stroke-linecap="round" stroke-opacity="0.250" /></g><g transform="rotate(-6.46 1536.0 1536.0)"><path d="M-368.6 1686.4 C -241.7 1772.2, -63.9 1627.6, 54.6 1764.3 C 181.6 1735.8, 359.4 1609.6, 477.9 1698.3 C 604.8 1695.5, 782.6 1678.5, 901.1 1625.2 C 1028.1 1623.7, 1205.9 1711.5, 1324.4 1589.2 C 1451.3 1568.5, 1629.1 1758.7, 1747.6 1612.2 C 1874.6 1631.4, 2052.4 1760.9, 2170.9 1680.2 C 2297.9 1681.4, 2475.6 1692.8, 2594.1 1752.1 C 2721.1 1737.3, 2898.9 1652.8, 3017.4 1784.1 C 3144.4 1768.8, 3322.1 1574.5, 3440.6 1756.9" fill="none" stroke="url(#ribbon121)" stroke-width="34.4" stroke-linecap="round" stroke-opacity="0.276" /></g><g transform="rotate(-5.88 1536.0 1536.0)"><path d="M-368.6 1843.7 C -254.4 1732.7, -94.4 1918.0, 12.3 1771.3 C 126.6 1776.4, 286.6 1892.2, 393.2 1847.5 C 507.5 1846.2, 667.5 1839.3, 774.1 1921.4 C 888.4 1921.9, 1048.4 1762.9, 1155.1 1948.2 C 1269.4 1921.3, 1429.3 1748.5, 1536.0 1911.6 C 1650.3 1896.7, 1810.3 1822.3, 1916.9 1833.8 C 2031.2 1831.1, 2191.2 1855.3, 2297.9 1762.0 C 2412.1 1772.8, 2572.1 1899.0, 2678.8 1739.7 C 2793.1 1776.6, 2953.1 1938.8, 3059.7 1780.6 C 3174.0 1766.5, 3334.0 1914.7, 3440.6 1859.7" fill="none" stroke="url(#ribbon121)" stroke-width="30.4" stroke-linecap="round" stroke-opacity="0.302" /></g><g transform="rotate(-5.30 1536.0 1536.0)"><path d="M-368.6 2056.0 C -264.8 2003.9, -119.3 2089.0, -22.3 1949.0 C 81.5 1935.0, 227.0 2150.8, 324.0 1958.2 C 427.8 1924.9, 573.3 2106.7, 670.3 2026.7 C 774.1 2019.7, 919.6 2072.8, 1016.6 2113.0 C 1120.4 2130.9, 1265.9 1993.8, 1362.9 2164.7 C 1466.7 2124.2, 1612.2 2004.5, 1709.1 2150.5 C 1813.0 2118.9, 1958.5 1944.0, 2055.4 2079.0 C 2159.3 2087.7, 2304.8 2047.1, 2401.7 1993.5 C 2505.6 1973.8, 2651.1 2083.9, 2748.0 1946.0 C 2851.9 1949.5, 2997.4 2099.9, 3094.3 1965.1 C 3198.2 1994.3, 3343.7 2114.8, 3440.6 2039.5" fill="none" stroke="url(#ribbon121)" stroke-width="26.4" stroke-linecap="round" stroke-opacity="0.328" /></g><g transform="rotate(-4.72 1536.0 1536.0)"><path d="M-368.6 2311.0 C -273.4 2297.7, -140.1 2317.8, -51.2 2383.7 C 44.0 2397.0, 177.4 2258.7, 266.2 2429.2 C 361.5 2401.2, 494.8 2258.2, 583.7 2402.9 C 678.9 2387.9, 812.2 2201.2, 901.1 2320.9 C 996.4 2322.0, 1129.7 2302.4, 1218.6 2232.9 C 1313.8 2206.9, 1447.1 2402.7, 1536.0 2192.3 C 1631.2 2239.6, 1764.6 2402.8, 1853.4 2223.7 C 1948.7 2248.0, 2082.0 2379.3, 2170.9 2308.0 C 2266.1 2307.9, 2399.4 2314.0, 2488.3 2394.2 C 2583.6 2411.5, 2716.9 2235.3, 2805.8 2429.9 C 2901.0 2433.4, 3034.3 2273.8, 3123.2 2393.5 C 3218.4 2388.9, 3351.8 2218.3, 3440.6 2307.1" fill="none" stroke="url(#ribbon121)" stroke-width="22.4" stroke-linecap="round" stroke-opacity="0.354" /></g><g transform="rotate(-4.14 1536.0 1536.0)"><path d="M-368.6 2413.1 C -225.8 2314.0, -25.8 2525.6, 107.5 2407.7 C 250.4 2408.0, 450.4 2415.5, 583.7 2499.6 C 726.5 2507.5, 926.5 2363.1, 1059.8 2539.1 C 1202.7 2588.4, 1402.7 2365.2, 1536.0 2502.1 C 1678.8 2517.4, 1878.8 2385.9, 2012.2 2411.2 C 2155.0 2411.9, 2355.0 2415.3, 2488.3 2321.5 C 2631.2 2306.7, 2831.2 2520.2, 2964.5 2287.3 C 3107.3 2311.7, 3307.3 2487.6, 3440.6 2329.5" fill="none" stroke="url(#ribbon121)" stroke-width="18.4" stroke-linecap="round" stroke-opacity="0.380" /></g><g transform="rotate(-3.56 1536.0 1536.0)"><path d="M-368.6 2674.3 C -241.7 2773.4, -63.9 2648.8, 54.6 2806.7 C 181.6 2837.2, 359.4 2544.9, 477.9 2775.5 C 604.8 2784.7, 782.6 2601.4, 901.1 2682.9 C 1028.1 2684.3, 1205.9 2664.3, 1324.4 2585.1 C 1451.3 2602.6, 1629.1 2774.3, 1747.6 2541.4 C 1874.6 2571.8, 2052.4 2716.2, 2170.9 2578.3 C 2297.9 2589.0, 2475.6 2763.2, 2594.1 2673.4 C 2721.1 2673.2, 2898.9 2675.1, 3017.4 2769.1 C 3144.4 2806.1, 3322.1 2573.3, 3440.6 2807.3" fill="none" stroke="url(#ribbon121)" stroke-width="14.4" stroke-linecap="round" stroke-opacity="0.406" /></g></g>
  <g><ellipse cx="1536.0" cy="1551.9" rx="728.6" ry="605.7" fill="url(#extrude121)" opacity="0.220" /><ellipse cx="1536.0" cy="1567.7" rx="736.0" ry="610.9" fill="url(#extrude121)" opacity="0.205" /><ellipse cx="1536.0" cy="1583.6" rx="743.4" ry="616.1" fill="url(#extrude121)" opacity="0.190" /><ellipse cx="1536.0" cy="1599.5" rx="750.9" ry="621.3" fill="url(#extrude121)" opacity="0.175" /><ellipse cx="1536.0" cy="1615.4" rx="758.3" ry="626.5" fill="url(#extrude121)" opacity="0.160" /><ellipse cx="1536.0" cy="1631.2" rx="765.7" ry="631.7" fill="url(#extrude121)" opacity="0.145" /><ellipse cx="1536.0" cy="1647.1" rx="773.2" ry="636.9" fill="url(#extrude121)" opacity="0.130" /><ellipse cx="1536.0" cy="1663.0" rx="780.6" ry="642.1" fill="url(#extrude121)" opacity="0.115" /><ellipse cx="1536.0" cy="1678.8" rx="788.0" ry="647.4" fill="url(#extrude121)" opacity="0.100" /><ellipse cx="1536.0" cy="1694.7" rx="795.5" ry="652.6" fill="url(#extrude121)" opacity="0.085" /><ellipse cx="1536.0" cy="1710.6" rx="802.9" ry="657.8" fill="url(#extrude121)" opacity="0.070" /><ellipse cx="1536.0" cy="1726.5" rx="810.3" ry="663.0" fill="url(#extrude121)" opacity="0.055" /></g>
  <ellipse cx="1536.0" cy="1726.5" rx="773.2" ry="214.9" fill="#0B1D2D" opacity="0.24" />
  <ellipse cx="1536.0" cy="1536.0" rx="743.4" ry="651.3" fill="url(#orb121)" stroke="#FFFFFF" stroke-opacity="0.42" stroke-width="7" />
  <ellipse cx="1431.9" cy="1392.7" rx="505.5" ry="299.6" fill="#FFFFFF" opacity="0.25" />
  <path d="M 199.4 399.4 C 1013.8 -30.7, 2058.2 768.0, 2872.6 215.0 L 2872.6 983.0 C 2089.0 1228.8, 1013.8 307.2, 199.4 1167.4 Z" fill="url(#glass121)" />
  <rect x="270" y="270" width="2532" height="2532" rx="430" fill="none" stroke="#FFFFFF" stroke-opacity="0.30" stroke-width="5" />
  <rect x="288.4" y="288.4" width="2495.1" height="2495.1" rx="399" fill="none" stroke="#8A5CFF" stroke-opacity="0.35" stroke-width="3" />
  <g filter="url(#soft121)"><rect x="940" y="2112" width="60" height="2" fill="#FFFFFF" opacity="0.590" /><rect x="969" y="2083" width="2" height="60" fill="#FFFFFF" opacity="0.590" /><rect x="2582" y="1846" width="54" height="2" fill="#FFFFFF" opacity="0.550" /><rect x="2608" y="1820" width="2" height="54" fill="#FFFFFF" opacity="0.550" /><rect x="1372" y="318" width="48" height="2" fill="#FFFFFF" opacity="0.681" /><rect x="1395" y="295" width="2" height="48" fill="#FFFFFF" opacity="0.681" /><rect x="1617" y="2700" width="80" height="2" fill="#FFFFFF" opacity="0.472" /><rect x="1656" y="2661" width="2" height="80" fill="#FFFFFF" opacity="0.472" /><rect x="952" y="2492" width="34" height="2" fill="#FFFFFF" opacity="0.742" /><rect x="968" y="2476" width="2" height="34" fill="#FFFFFF" opacity="0.742" /><rect x="774" y="576" width="68" height="2" fill="#FFFFFF" opacity="0.459" /><rect x="807" y="543" width="2" height="68" fill="#FFFFFF" opacity="0.459" /><rect x="2109" y="1142" width="82" height="2" fill="#FFFFFF" opacity="0.777" /><rect x="2149" y="1102" width="2" height="82" fill="#FFFFFF" opacity="0.777" /><rect x="1786" y="738" width="30" height="2" fill="#FFFFFF" opacity="0.680" /><rect x="1800" y="724" width="2" height="30" fill="#FFFFFF" opacity="0.680" /><rect x="793" y="2447" width="72" height="2" fill="#FFFFFF" opacity="0.616" /><rect x="828" y="2412" width="2" height="72" fill="#FFFFFF" opacity="0.616" /><rect x="1813" y="2164" width="74" height="2" fill="#FFFFFF" opacity="0.424" /><rect x="1849" y="2128" width="2" height="74" fill="#FFFFFF" opacity="0.424" /><rect x="2720" y="394" width="42" height="2" fill="#FFFFFF" opacity="0.536" /><rect x="2740" y="374" width="2" height="42" fill="#FFFFFF" opacity="0.536" /><rect x="2548" y="404" width="80" height="2" fill="#FFFFFF" opacity="0.722" /><rect x="2587" y="365" width="2" height="80" fill="#FFFFFF" opacity="0.722" /><rect x="983" y="2059" width="32" height="2" fill="#FFFFFF" opacity="0.673" /><rect x="998" y="2044" width="2" height="32" fill="#FFFFFF" opacity="0.673" /><rect x="2764" y="1299" width="52" height="2" fill="#FFFFFF" opacity="0.829" /><rect x="2789" y="1274" width="2" height="52" fill="#FFFFFF" opacity="0.829" /><rect x="353" y="800" width="58" height="2" fill="#FFFFFF" opacity="0.328" /><rect x="381" y="772" width="2" height="58" fill="#FFFFFF" opacity="0.328" /><rect x="2552" y="2748" width="62" height="2" fill="#FFFFFF" opacity="0.637" /><rect x="2582" y="2718" width="2" height="62" fill="#FFFFFF" opacity="0.637" /><rect x="2721" y="597" width="34" height="2" fill="#FFFFFF" opacity="0.479" /><rect x="2737" y="581" width="2" height="34" fill="#FFFFFF" opacity="0.479" /><rect x="1511" y="2443" width="44" height="2" fill="#FFFFFF" opacity="0.795" /><rect x="1532" y="2422" width="2" height="44" fill="#FFFFFF" opacity="0.795" /><rect x="1333" y="887" width="58" height="2" fill="#FFFFFF" opacity="0.676" /><rect x="1361" y="859" width="2" height="58" fill="#FFFFFF" opacity="0.676" /><rect x="619" y="1357" width="54" height="2" fill="#FFFFFF" opacity="0.523" /><rect x="645" y="1331" width="2" height="54" fill="#FFFFFF" opacity="0.523" /><rect x="1959" y="2338" width="34" height="2" fill="#FFFFFF" opacity="0.800" /><rect x="1975" y="2322" width="2" height="34" fill="#FFFFFF" opacity="0.800" /><rect x="755" y="465" width="24" height="2" fill="#FFFFFF" opacity="0.823" /><rect x="766" y="454" width="2" height="24" fill="#FFFFFF" opacity="0.823" /><rect x="2294" y="808" width="30" height="2" fill="#FFFFFF" opacity="0.503" /><rect x="2308" y="794" width="2" height="30" fill="#FFFFFF" opacity="0.503" /><rect x="2350" y="769" width="76" height="2" fill="#FFFFFF" opacity="0.435" /><rect x="2387" y="732" width="2" height="76" fill="#FFFFFF" opacity="0.435" /><rect x="761" y="2248" width="82" height="2" fill="#FFFFFF" opacity="0.754" /><rect x="801" y="2208" width="2" height="82" fill="#FFFFFF" opacity="0.754" /><rect x="1809" y="1585" width="38" height="2" fill="#FFFFFF" opacity="0.493" /><rect x="1827" y="1567" width="2" height="38" fill="#FFFFFF" opacity="0.493" /></g>
  <g opacity="0.52"><rect x="1023" y="1070" width="768" height="768" rx="128" fill="none" stroke="#0C2030" stroke-width="90" /><path d="M1023 1582 L1572 1363 L2121 1582 L1572 2094 Z" fill="none" stroke="#0C2030" stroke-width="90" stroke-linejoin="round" /></g>
  <g filter="url(#soft121)"><rect x="987" y="1024" width="768" height="768" rx="128" fill="none" stroke="url(#symbol121)" stroke-width="90" /><path d="M987 1536 L1536 1317 L2085 1536 L1536 2048 Z" fill="none" stroke="url(#symbol121)" stroke-width="90" stroke-linejoin="round" /></g>
  <rect x="138" y="138" width="2796" height="2796" rx="629" fill="#FFFFFF" filter="url(#grain121)" opacity="0.18" />
</svg>
