<svg xmlns="http://www.w3.org/2000/svg" width="3072" height="3072" viewBox="0 0 3072 3072">
  <title>QuartzOS App Icon 067 - pixel_player_067</title>
  <defs><linearGradient id="bg66" x1="0%" y1="0%" x2="100%" y2="100%"><stop offset="0%" stop-color="#FF6AB3" /><stop offset="26%" stop-color="#FFD84D" /><stop offset="56%" stop-color="#36D1FF" /><stop offset="78%" stop-color="#4B91A3" /><stop offset="100%" stop-color="#1A2630" /></linearGradient><radialGradient id="sun66" cx="30%" cy="38%" r="88%"><stop offset="0%" stop-color="#FFFFFF" stop-opacity="0.62" /><stop offset="30%" stop-color="#3B82FF" stop-opacity="0.35" /><stop offset="100%" stop-color="#3B82FF" stop-opacity="0" /></radialGradient><linearGradient id="glass66" x1="0%" y1="0%" x2="0%" y2="100%"><stop offset="0%" stop-color="#FFFFFF" stop-opacity="0.70" /><stop offset="46%" stop-color="#FFFFFF" stop-opacity="0.26" /><stop offset="100%" stop-color="#FFFFFF" stop-opacity="0.00" /></linearGradient><linearGradient id="ribbon66" x1="0%" y1="0%" x2="100%" y2="0%"><stop offset="0%" stop-color="#FF6AB3" stop-opacity="0.18" /><stop offset="34%" stop-color="#FFD84D" stop-opacity="0.72" /><stop offset="66%" stop-color="#36D1FF" stop-opacity="0.72" /><stop offset="100%" stop-color="#3B82FF" stop-opacity="0.18" /></linearGradient><radialGradient id="orb66" cx="34%" cy="27%" r="74%"><stop offset="0%" stop-color="#FFFFFF" stop-opacity="0.84" /><stop offset="30%" stop-color="#FF6AB3" stop-opacity="0.52" /><stop offset="68%" stop-color="#FFD84D" stop-opacity="0.42" /><stop offset="100%" stop-color="#36D1FF" stop-opacity="0.20" /></radialGradient><linearGradient id="extrude66" x1="0%" y1="0%" x2="0%" y2="100%"><stop offset="0%" stop-color="#15283C" stop-opacity="0.45" /><stop offset="100%" stop-color="#08131D" stop-opacity="0.06" /></linearGradient><linearGradient id="symbol66" x1="0%" y1="0%" x2="100%" y2="100%"><stop offset="0%" stop-color="#FFFFFF" /><stop offset="100%" stop-color="#3B82FF" /></linearGradient><filter id="shadow66" x="-40%" y="-40%" width="180%" height="180%"><feDropShadow dx="0" dy="49" stdDeviation="86" flood-color="#06111A" flood-opacity="0.54" /></filter><filter id="soft66" x="-40%" y="-40%" width="180%" height="180%"><feDropShadow dx="0" dy="0" stdDeviation="14" flood-color="#FF6AB3" flood-opacity="0.45" /></filter><filter id="grain66"><feTurbulence type="fractalNoise" baseFrequency="0.822" numOctaves="2" seed="66" /><feColorMatrix type="saturate" values="0" /><feComponentTransfer><feFuncA type="table" tableValues="0 0.09" /></feComponentTransfer></filter></defs>
  <rect x="138" y="138" width="2796" height="2796" rx="629" fill="url(#bg66)" filter="url(#shadow66)" />
  <rect x="138" y="138" width="2796" height="2796" rx="629" fill="url(#sun66)" />
  <g><circle cx="2284" cy="2274" r="90" fill="#FFFFFF" opacity="0.066" /><circle cx="2104" cy="1392" r="101" fill="#FFFFFF" opacity="0.064" /><circle cx="1253" cy="313" r="136" fill="#FFFFFF" opacity="0.240" /><circle cx="1072" cy="481" r="159" fill="#FFFFFF" opacity="0.160" /><circle cx="1621" cy="811" r="155" fill="#FFFFFF" opacity="0.227" /><circle cx="1638" cy="313" r="95" fill="#FFFFFF" opacity="0.158" /><circle cx="2579" cy="1354" r="140" fill="#FFFFFF" opacity="0.068" /><circle cx="2489" cy="556" r="155" fill="#FFFFFF" opacity="0.116" /><circle cx="1033" cy="456" r="114" fill="#FFFFFF" opacity="0.169" /><circle cx="2603" cy="1407" r="37" fill="#FFFFFF" opacity="0.232" /><circle cx="2633" cy="834" r="105" fill="#FFFFFF" opacity="0.103" /><circle cx="1256" cy="1253" r="44" fill="#FFFFFF" opacity="0.180" /><circle cx="2579" cy="2662" r="68" fill="#FFFFFF" opacity="0.182" /><circle cx="504" cy="1076" r="83" fill="#FFFFFF" opacity="0.119" /><circle cx="1613" cy="1156" r="120" fill="#FFFFFF" opacity="0.198" /><circle cx="814" cy="1217" r="95" fill="#FFFFFF" opacity="0.134" /><circle cx="1131" cy="489" r="110" fill="#FFFFFF" opacity="0.198" /><circle cx="1502" cy="2489" r="51" fill="#FFFFFF" opacity="0.098" /><circle cx="779" cy="898" r="118" fill="#FFFFFF" opacity="0.061" /><circle cx="1324" cy="2042" r="149" fill="#FFFFFF" opacity="0.135" /><circle cx="867" cy="2113" r="155" fill="#FFFFFF" opacity="0.206" /><circle cx="1544" cy="762" r="98" fill="#FFFFFF" opacity="0.225" /><circle cx="2594" cy="1550" r="70" fill="#FFFFFF" opacity="0.201" /><circle cx="2145" cy="636" r="57" fill="#FFFFFF" opacity="0.062" /><circle cx="1409" cy="1628" r="126" fill="#FFFFFF" opacity="0.125" /><circle cx="521" cy="1670" r="60" fill="#FFFFFF" opacity="0.212" /><circle cx="1537" cy="2275" r="56" fill="#FFFFFF" opacity="0.190" /><circle cx="1984" cy="751" r="114" fill="#FFFFFF" opacity="0.103" /></g>
  <g><path d="M 377.7 657.7 L 2907.6 381.3 L 2907.6 874.0 L 377.7 1150.5 Z" fill="#FFFFFF" opacity="0.220" /><path d="M 329.1 896.0 L 2869.8 619.5 L 2869.8 1044.8 L 329.1 1321.3 Z" fill="#FFFFFF" opacity="0.183" /><path d="M 279.4 1125.7 L 2784.7 849.2 L 2784.7 1275.3 L 279.4 1551.7 Z" fill="#FFFFFF" opacity="0.226" /><path d="M 370.3 1371.3 L 2711.3 1094.8 L 2711.3 1577.1 L 370.3 1853.6 Z" fill="#FFFFFF" opacity="0.127" /><path d="M 245.1 1654.1 L 2728.1 1377.6 L 2728.1 1812.7 L 245.1 2089.2 Z" fill="#FFFFFF" opacity="0.194" /><path d="M 148.0 1886.6 L 2770.0 1610.1 L 2770.0 2031.7 L 148.0 2308.1 Z" fill="#FFFFFF" opacity="0.177" /><path d="M 245.9 2170.7 L 2830.2 1894.2 L 2830.2 2384.3 L 245.9 2660.8 Z" fill="#FFFFFF" opacity="0.141" /><path d="M 191.4 2466.4 L 2736.7 2189.9 L 2736.7 2659.4 L 191.4 2935.9 Z" fill="#FFFFFF" opacity="0.190" /></g>
  <g filter="url(#soft66)"><g transform="rotate(-21.84 1536.0 1536.0)"><path d="M-368.6 572.2 C -225.8 544.1, -25.8 605.3, 107.5 517.3 C 250.4 508.3, 450.4 625.0, 583.7 538.7 C 726.5 526.6, 926.5 604.7, 1059.8 580.4 C 1202.7 579.8, 1402.7 569.7, 1536.0 617.2 C 1678.8 619.0, 1878.8 542.5, 2012.2 626.6 C 2155.0 629.5, 2355.0 518.4, 2488.3 603.1 C 2631.2 591.6, 2831.2 539.3, 2964.5 560.8 C 3107.3 557.7, 3307.3 576.0, 3440.6 525.5" fill="none" stroke="url(#ribbon66)" stroke-width="58.4" stroke-linecap="round" stroke-opacity="0.120" /></g><g transform="rotate(-21.26 1536.0 1536.0)"><path d="M-368.6 718.8 C -241.7 659.6, -63.9 764.3, 54.6 693.8 C 181.6 683.8, 359.4 733.3, 477.9 742.4 C 604.8 751.3, 782.6 691.7, 901.1 776.6 C 1028.1 756.2, 1205.9 678.2, 1324.4 775.8 C 1451.3 764.2, 1629.1 680.8, 1747.6 740.4 C 1874.6 744.9, 2052.4 704.3, 2170.9 691.9 C 2297.9 682.8, 2475.6 741.1, 2594.1 659.7 C 2721.1 637.0, 2898.9 783.4, 3017.4 663.3 C 3144.4 682.1, 3322.1 775.0, 3440.6 700.6" fill="none" stroke="url(#ribbon66)" stroke-width="54.4" stroke-linecap="round" stroke-opacity="0.146" /></g><g transform="rotate(-20.68 1536.0 1536.0)"><path d="M-368.6 968.7 C -254.4 875.1, -94.4 1045.9, 12.3 921.4 C 126.6 932.9, 286.6 1013.1, 393.2 972.2 C 507.5 972.0, 667.5 967.2, 774.1 1020.8 C 888.4 1013.4, 1048.4 943.0, 1155.1 1037.9 C 1269.4 1012.0, 1429.3 887.5, 1536.0 1012.9 C 1650.3 1007.0, 1810.3 922.6, 1916.9 961.1 C 2031.2 963.2, 2191.2 974.6, 2297.9 913.9 C 2412.1 894.0, 2572.1 1033.9, 2678.8 899.9 C 2793.1 903.9, 2953.1 1028.1, 3059.7 927.6 C 3174.0 921.7, 3334.0 1007.4, 3440.6 980.2" fill="none" stroke="url(#ribbon66)" stroke-width="50.4" stroke-linecap="round" stroke-opacity="0.172" /></g><g transform="rotate(-20.10 1536.0 1536.0)"><path d="M-368.6 1100.0 C -264.8 1040.1, -119.3 1157.9, -22.3 1087.7 C 81.5 1085.1, 227.0 1110.8, 324.0 1145.6 C 427.8 1144.0, 573.3 1050.8, 670.3 1175.8 C 774.1 1148.8, 919.6 1051.0, 1016.6 1160.1 C 1120.4 1179.0, 1265.9 1055.2, 1362.9 1107.9 C 1466.7 1106.0, 1612.2 1094.5, 1709.1 1050.9 C 1813.0 1056.0, 1958.5 1122.4, 2055.4 1023.7 C 2159.3 1017.3, 2304.8 1138.9, 2401.7 1042.8 C 2505.6 1045.7, 2651.1 1136.1, 2748.0 1096.6 C 2851.9 1097.3, 2997.4 1102.4, 3094.3 1152.5 C 3198.2 1153.1, 3343.7 1062.5, 3440.6 1176.5" fill="none" stroke="url(#ribbon66)" stroke-width="46.4" stroke-linecap="round" stroke-opacity="0.198" /></g><g transform="rotate(-19.52 1536.0 1536.0)"><path d="M-368.6 1290.3 C -273.4 1304.4, -140.1 1276.2, -51.2 1363.9 C 44.0 1363.0, 177.4 1212.7, 266.2 1369.9 C 361.5 1373.8, 494.8 1263.3, 583.7 1327.7 C 678.9 1338.3, 812.2 1264.4, 901.1 1262.7 C 996.4 1262.6, 1129.7 1320.8, 1218.6 1214.5 C 1313.8 1185.5, 1447.1 1321.2, 1536.0 1212.3 C 1631.2 1226.9, 1764.6 1338.0, 1853.4 1257.3 C 1948.7 1265.9, 2082.0 1328.4, 2170.9 1322.4 C 2266.1 1312.1, 2399.4 1272.0, 2488.3 1368.0 C 2583.6 1379.9, 2716.9 1197.7, 2805.8 1366.5 C 2901.0 1354.3, 3034.3 1226.2, 3123.2 1318.7 C 3218.4 1326.1, 3351.8 1267.2, 3440.6 1253.7" fill="none" stroke="url(#ribbon66)" stroke-width="42.4" stroke-linecap="round" stroke-opacity="0.224" /></g><g transform="rotate(-18.94 1536.0 1536.0)"><path d="M-368.6 1436.1 C -225.8 1509.9, -25.8 1353.9, 107.5 1525.9 C 250.4 1517.2, 450.4 1360.7, 583.7 1489.6 C 726.5 1470.4, 926.5 1381.9, 1059.8 1421.0 C 1202.7 1417.7, 1402.7 1452.2, 1536.0 1361.5 C 1678.8 1371.5, 1878.8 1483.3, 2012.2 1347.3 C 2155.0 1332.4, 2355.0 1502.9, 2488.3 1387.0 C 2631.2 1386.7, 2831.2 1463.4, 2964.5 1456.5 C 3107.3 1449.1, 3307.3 1425.6, 3440.6 1513.7" fill="none" stroke="url(#ribbon66)" stroke-width="38.4" stroke-linecap="round" stroke-opacity="0.250" /></g><g transform="rotate(-18.36 1536.0 1536.0)"><path d="M-368.6 1687.0 C -241.7 1802.4, -63.9 1596.4, 54.6 1766.0 C 181.6 1777.6, 359.4 1657.9, 477.9 1700.9 C 604.8 1704.7, 782.6 1679.5, 901.1 1627.3 C 1028.1 1613.9, 1205.9 1719.5, 1324.4 1589.9 C 1451.3 1606.7, 1629.1 1788.5, 1747.6 1611.4 C 1874.6 1636.3, 2052.4 1732.3, 2170.9 1678.7 C 2297.9 1680.6, 2475.6 1694.2, 2594.1 1751.0 C 2721.1 1741.6, 2898.9 1616.6, 3017.4 1784.5 C 3144.4 1808.4, 3322.1 1601.7, 3440.6 1758.8" fill="none" stroke="url(#ribbon66)" stroke-width="34.4" stroke-linecap="round" stroke-opacity="0.276" /></g><g transform="rotate(-17.78 1536.0 1536.0)"><path d="M-368.6 1851.7 C -254.4 1745.5, -94.4 1942.8, 12.3 1756.3 C 126.6 1786.7, 286.6 1914.9, 393.2 1816.3 C 507.5 1824.3, 667.5 1868.0, 774.1 1897.7 C 888.4 1907.6, 1048.4 1832.2, 1155.1 1951.3 C 1269.4 1950.0, 1429.3 1803.6, 1536.0 1944.4 C 1650.3 1970.9, 1810.3 1819.9, 1916.9 1881.3 C 2031.2 1889.1, 2191.2 1819.6, 2297.9 1800.3 C 2412.1 1799.4, 2572.1 1889.2, 2678.8 1750.4 C 2793.1 1775.7, 2953.1 1904.0, 3059.7 1762.0 C 3174.0 1737.1, 3334.0 1912.8, 3440.6 1828.0" fill="none" stroke="url(#ribbon66)" stroke-width="30.4" stroke-linecap="round" stroke-opacity="0.302" /></g><g transform="rotate(-17.20 1536.0 1536.0)"><path d="M-368.6 2094.8 C -264.8 1982.0, -119.3 2159.7, -22.3 1996.2 C 81.5 2017.8, 227.0 2144.5, 324.0 2064.0 C 427.8 2063.8, 573.3 2119.6, 670.3 2150.4 C 774.1 2139.5, 919.6 2053.7, 1016.6 2203.2 C 1120.4 2179.8, 1265.9 1986.2, 1362.9 2190.2 C 1466.7 2211.8, 1612.2 1987.0, 1709.1 2119.3 C 1813.0 2126.8, 1958.5 2076.0, 2055.4 2033.6 C 2159.3 2046.1, 2304.8 2123.0, 2401.7 1985.0 C 2505.6 2014.1, 2651.1 2166.0, 2748.0 2003.1 C 2851.9 1997.1, 2997.4 2166.4, 3094.3 2076.7 C 3198.2 2071.6, 3343.7 2109.7, 3440.6 2161.4" fill="none" stroke="url(#ribbon66)" stroke-width="26.4" stroke-linecap="round" stroke-opacity="0.328" /></g><g transform="rotate(-16.62 1536.0 1536.0)"><path d="M-368.6 2325.3 C -273.4 2428.3, -140.1 2287.7, -51.2 2415.4 C 44.0 2382.5, 177.4 2228.7, 266.2 2332.4 C 361.5 2330.7, 494.8 2317.0, 583.7 2245.1 C 678.9 2213.2, 812.2 2355.0, 901.1 2206.5 C 996.4 2190.5, 1129.7 2367.3, 1218.6 2239.9 C 1313.8 2221.3, 1447.1 2391.2, 1536.0 2325.2 C 1631.2 2325.2, 1764.6 2325.4, 1853.4 2410.5 C 1948.7 2428.3, 2082.0 2255.7, 2170.9 2444.2 C 2266.1 2454.5, 2399.4 2263.5, 2488.3 2405.7 C 2583.6 2396.0, 2716.9 2282.5, 2805.8 2318.5 C 2901.0 2317.4, 3034.3 2331.5, 3123.2 2235.5 C 3218.4 2268.4, 3351.8 2402.4, 3440.6 2206.9" fill="none" stroke="url(#ribbon66)" stroke-width="22.4" stroke-linecap="round" stroke-opacity="0.354" /></g><g transform="rotate(-16.04 1536.0 1536.0)"><path d="M-368.6 2451.4 C -225.8 2497.2, -25.8 2426.1, 107.5 2568.7 C 250.4 2601.7, 450.4 2342.9, 583.7 2565.9 C 726.5 2551.2, 926.5 2339.8, 1059.8 2493.6 C 1202.7 2493.0, 1402.7 2411.9, 1536.0 2395.7 C 1678.8 2412.0, 1878.8 2493.5, 2012.2 2331.5 C 2155.0 2369.6, 2355.0 2574.0, 2488.3 2340.1 C 2631.2 2320.7, 2831.2 2568.6, 2964.5 2416.1 C 3107.3 2403.1, 3307.3 2480.4, 3440.6 2513.5" fill="none" stroke="url(#ribbon66)" stroke-width="18.4" stroke-linecap="round" stroke-opacity="0.380" /></g><g transform="rotate(-15.46 1536.0 1536.0)"><path d="M-368.6 2694.0 C -241.7 2731.1, -63.9 2640.6, 54.6 2648.1 C 181.6 2631.8, 359.4 2742.7, 477.9 2572.5 C 604.8 2535.5, 782.6 2775.1, 901.1 2570.6 C 1028.1 2600.7, 1205.9 2756.8, 1324.4 2643.6 C 1451.3 2639.9, 1629.1 2720.3, 1747.6 2747.2 C 1874.6 2765.5, 2052.4 2647.6, 2170.9 2818.5 C 2297.9 2823.5, 2475.6 2562.8, 2594.1 2814.4 C 2721.1 2805.6, 2898.9 2592.7, 3017.4 2737.2 C 3144.4 2742.6, 3322.1 2674.9, 3440.6 2633.9" fill="none" stroke="url(#ribbon66)" stroke-width="14.4" stroke-linecap="round" stroke-opacity="0.406" /></g></g>
  <g><ellipse cx="1536.0" cy="1551.9" rx="728.6" ry="605.7" fill="url(#extrude66)" opacity="0.220" /><ellipse cx="1536.0" cy="1567.7" rx="736.0" ry="610.9" fill="url(#extrude66)" opacity="0.205" /><ellipse cx="1536.0" cy="1583.6" rx="743.4" ry="616.1" fill="url(#extrude66)" opacity="0.190" /><ellipse cx="1536.0" cy="1599.5" rx="750.9" ry="621.3" fill="url(#extrude66)" opacity="0.175" /><ellipse cx="1536.0" cy="1615.4" rx="758.3" ry="626.5" fill="url(#extrude66)" opacity="0.160" /><ellipse cx="1536.0" cy="1631.2" rx="765.7" ry="631.7" fill="url(#extrude66)" opacity="0.145" /><ellipse cx="1536.0" cy="1647.1" rx="773.2" ry="636.9" fill="url(#extrude66)" opacity="0.130" /><ellipse cx="1536.0" cy="1663.0" rx="780.6" ry="642.1" fill="url(#extrude66)" opacity="0.115" /><ellipse cx="1536.0" cy="1678.8" rx="788.0" ry="647.4" fill="url(#extrude66)" opacity="0.100" /><ellipse cx="1536.0" cy="1694.7" rx="795.5" ry="652.6" fill="url(#extrude66)" opacity="0.085" /><ellipse cx="1536.0" cy="1710.6" rx="802.9" ry="657.8" fill="url(#extrude66)" opacity="0.070" /><ellipse cx="1536.0" cy="1726.5" rx="810.3" ry="663.0" fill="url(#extrude66)" opacity="0.055" /></g>
  <ellipse cx="1536.0" cy="1726.5" rx="773.2" ry="214.9" fill="#0B1D2D" opacity="0.24" />
  <ellipse cx="1536.0" cy="1536.0" rx="743.4" ry="651.3" fill="url(#orb66)" stroke="#FFFFFF" stroke-opacity="0.42" stroke-width="7" />
  <ellipse cx="1431.9" cy="1392.7" rx="505.5" ry="299.6" fill="#FFFFFF" opacity="0.25" />
  <path d="M 199.4 399.4 C 1013.8 -30.7, 2058.2 768.0, 2872.6 215.0 L 2872.6 983.0 C 2089.0 1228.8, 1013.8 307.2, 199.4 1167.4 Z" fill="url(#glass66)" />
  <rect x="270" y="270" width="2532" height="2532" rx="430" fill="none" stroke="#FFFFFF" stroke-opacity="0.30" stroke-width="5" />
  <rect x="288.4" y="288.4" width="2495.1" height="2495.1" rx="399" fill="none" stroke="#FF6AB3" stroke-opacity="0.35" stroke-width="3" />
  <g filter="url(#soft66)"><rect x="1568" y="2409" width="24" height="2" fill="#FFFFFF" opacity="0.674" /><rect x="1579" y="2398" width="2" height="24" fill="#FFFFFF" opacity="0.674" /><rect x="298" y="1116" width="72" height="2" fill="#FFFFFF" opacity="0.436" /><rect x="333" y="1081" width="2" height="72" fill="#FFFFFF" opacity="0.436" /><rect x="1471" y="2439" width="38" height="2" fill="#FFFFFF" opacity="0.660" /><rect x="1489" y="2421" width="2" height="38" fill="#FFFFFF" opacity="0.660" /><rect x="2243" y="503" width="54" height="2" fill="#FFFFFF" opacity="0.410" /><rect x="2269" y="477" width="2" height="54" fill="#FFFFFF" opacity="0.410" /><rect x="2794" y="2151" width="36" height="2" fill="#FFFFFF" opacity="0.703" /><rect x="2811" y="2134" width="2" height="36" fill="#FFFFFF" opacity="0.703" /><rect x="392" y="579" width="52" height="2" fill="#FFFFFF" opacity="0.827" /><rect x="417" y="554" width="2" height="52" fill="#FFFFFF" opacity="0.827" /><rect x="1063" y="1212" width="62" height="2" fill="#FFFFFF" opacity="0.312" /><rect x="1093" y="1182" width="2" height="62" fill="#FFFFFF" opacity="0.312" /><rect x="1004" y="655" width="54" height="2" fill="#FFFFFF" opacity="0.646" /><rect x="1030" y="629" width="2" height="54" fill="#FFFFFF" opacity="0.646" /><rect x="2110" y="1590" width="66" height="2" fill="#FFFFFF" opacity="0.424" /><rect x="2142" y="1558" width="2" height="66" fill="#FFFFFF" opacity="0.424" /><rect x="438" y="985" width="48" height="2" fill="#FFFFFF" opacity="0.841" /><rect x="461" y="962" width="2" height="48" fill="#FFFFFF" opacity="0.841" /><rect x="2657" y="469" width="56" height="2" fill="#FFFFFF" opacity="0.661" /><rect x="2684" y="442" width="2" height="56" fill="#FFFFFF" opacity="0.661" /><rect x="826" y="2691" width="56" height="2" fill="#FFFFFF" opacity="0.573" /><rect x="853" y="2664" width="2" height="56" fill="#FFFFFF" opacity="0.573" /><rect x="2013" y="960" width="50" height="2" fill="#FFFFFF" opacity="0.753" /><rect x="2037" y="936" width="2" height="50" fill="#FFFFFF" opacity="0.753" /><rect x="1405" y="289" width="38" height="2" fill="#FFFFFF" opacity="0.828" /><rect x="1423" y="271" width="2" height="38" fill="#FFFFFF" opacity="0.828" /><rect x="1941" y="304" width="84" height="2" fill="#FFFFFF" opacity="0.612" /><rect x="1982" y="263" width="2" height="84" fill="#FFFFFF" opacity="0.612" /><rect x="601" y="2086" width="30" height="2" fill="#FFFFFF" opacity="0.661" /><rect x="615" y="2072" width="2" height="30" fill="#FFFFFF" opacity="0.661" /><rect x="2336" y="889" width="82" height="2" fill="#FFFFFF" opacity="0.722" /><rect x="2376" y="849" width="2" height="82" fill="#FFFFFF" opacity="0.722" /><rect x="1543" y="345" width="30" height="2" fill="#FFFFFF" opacity="0.355" /><rect x="1557" y="331" width="2" height="30" fill="#FFFFFF" opacity="0.355" /><rect x="2553" y="1288" width="84" height="2" fill="#FFFFFF" opacity="0.637" /><rect x="2594" y="1247" width="2" height="84" fill="#FFFFFF" opacity="0.637" /><rect x="645" y="2073" width="44" height="2" fill="#FFFFFF" opacity="0.482" /><rect x="666" y="2052" width="2" height="44" fill="#FFFFFF" opacity="0.482" /><rect x="1226" y="2557" width="32" height="2" fill="#FFFFFF" opacity="0.535" /><rect x="1241" y="2542" width="2" height="32" fill="#FFFFFF" opacity="0.535" /><rect x="2207" y="2024" width="68" height="2" fill="#FFFFFF" opacity="0.727" /><rect x="2240" y="1991" width="2" height="68" fill="#FFFFFF" opacity="0.727" /><rect x="1665" y="2104" width="38" height="2" fill="#FFFFFF" opacity="0.337" /><rect x="1683" y="2086" width="2" height="38" fill="#FFFFFF" opacity="0.337" /><rect x="1057" y="1203" width="62" height="2" fill="#FFFFFF" opacity="0.672" /><rect x="1087" y="1173" width="2" height="62" fill="#FFFFFF" opacity="0.672" /><rect x="730" y="301" width="24" height="2" fill="#FFFFFF" opacity="0.779" /><rect x="741" y="290" width="2" height="24" fill="#FFFFFF" opacity="0.779" /><rect x="1160" y="336" width="84" height="2" fill="#FFFFFF" opacity="0.337" /><rect x="1201" y="295" width="2" height="84" fill="#FFFFFF" opacity="0.337" /></g>
  <g opacity="0.52"><path d="M996 1582 Q1572 1006, 2148 1582" fill="none" stroke="#0C2030" stroke-width="90" /><path d="M996 1801 Q1572 1198, 2148 1801" fill="none" stroke="#0C2030" stroke-width="88" opacity="0.9" /><path d="M996 1966 Q1572 1326, 2148 1966" fill="none" stroke="#0C2030" stroke-width="87" opacity="0.75" /></g>
  <g filter="url(#soft66)"><path d="M960 1536 Q1536 960, 2112 1536" fill="none" stroke="url(#symbol66)" stroke-width="90" /><path d="M960 1755 Q1536 1152, 2112 1755" fill="none" stroke="url(#symbol66)" stroke-width="88" opacity="0.9" /><path d="M960 1920 Q1536 1280, 2112 1920" fill="none" stroke="url(#symbol66)" stroke-width="87" opacity="0.75" /></g>
  <rect x="138" y="138" width="2796" height="2796" rx="629" fill="#FFFFFF" filter="url(#grain66)" opacity="0.18" />
</svg>
