<svg xmlns="http://www.w3.org/2000/svg" width="3072" height="3072" viewBox="0 0 3072 3072">
  <title>QuartzOS App Icon 187 - pixel_charts_187</title>
  <defs><linearGradient id="bg186" x1="0%" y1="0%" x2="100%" y2="100%"><stop offset="0%" stop-color="#FF9F43" /><stop offset="26%" stop-color="#53E3A6" /><stop offset="56%" stop-color="#3B82FF" /><stop offset="78%" stop-color="#4B91A3" /><stop offset="100%" stop-color="#1A2630" /></linearGradient><radialGradient id="sun186" cx="26%" cy="21%" r="88%"><stop offset="0%" stop-color="#FFFFFF" stop-opacity="0.62" /><stop offset="30%" stop-color="#8A5CFF" stop-opacity="0.35" /><stop offset="100%" stop-color="#8A5CFF" stop-opacity="0" /></radialGradient><linearGradient id="glass186" x1="0%" y1="0%" x2="0%" y2="100%"><stop offset="0%" stop-color="#FFFFFF" stop-opacity="0.70" /><stop offset="46%" stop-color="#FFFFFF" stop-opacity="0.26" /><stop offset="100%" stop-color="#FFFFFF" stop-opacity="0.00" /></linearGradient><linearGradient id="ribbon186" x1="0%" y1="0%" x2="100%" y2="0%"><stop offset="0%" stop-color="#FF9F43" stop-opacity="0.18" /><stop offset="34%" stop-color="#53E3A6" stop-opacity="0.72" /><stop offset="66%" stop-color="#3B82FF" stop-opacity="0.72" /><stop offset="100%" stop-color="#8A5CFF" stop-opacity="0.18" /></linearGradient><radialGradient id="orb186" cx="34%" cy="27%" r="74%"><stop offset="0%" stop-color="#FFFFFF" stop-opacity="0.84" /><stop offset="30%" stop-color="#FF9F43" stop-opacity="0.52" /><stop offset="68%" stop-color="#53E3A6" stop-opacity="0.42" /><stop offset="100%" stop-color="#3B82FF" stop-opacity="0.20" /></radialGradient><linearGradient id="extrude186" x1="0%" y1="0%" x2="0%" y2="100%"><stop offset="0%" stop-color="#15283C" stop-opacity="0.45" /><stop offset="100%" stop-color="#08131D" stop-opacity="0.06" /></linearGradient><linearGradient id="symbol186" x1="0%" y1="0%" x2="100%" y2="100%"><stop offset="0%" stop-color="#FFFFFF" /><stop offset="100%" stop-color="#8A5CFF" /></linearGradient><filter id="shadow186" x="-40%" y="-40%" width="180%" height="180%"><feDropShadow dx="0" dy="49" stdDeviation="86" flood-color="#06111A" flood-opacity="0.54" /></filter><filter id="soft186" x="-40%" y="-40%" width="180%" height="180%"><feDropShadow dx="0" dy="0" stdDeviation="14" flood-color="#FF9F43" flood-opacity="0.45" /></filter><filter id="grain186"><feTurbulence type="fractalNoise" baseFrequency="0.911" numOctaves="2" seed="186" /><feColorMatrix type="saturate" values="0" /><feComponentTransfer><feFuncA type="table" tableValues="0 0.09" /></feComponentTransfer></filter></defs>
  <rect x="138" y="138" width="2796" height="2796" rx="629" fill="url(#bg186)" filter="url(#shadow186)" />
  <rect x="138" y="138" width="2796" height="2796" rx="629" fill="url(#sun186)" />
  <g><circle cx="1864" cy="1595" r="37" fill="#FFFFFF" opacity="0.085" /><circle cx="1623" cy="1005" r="71" fill="#FFFFFF" opacity="0.150" /><circle cx="1642" cy="2082" r="129" fill="#FFFFFF" opacity="0.127" /><circle cx="2025" cy="524" r="64" fill="#FFFFFF" opacity="0.152" /><circle cx="1804" cy="2273" r="83" fill="#FFFFFF" opacity="0.188" /><circle cx="2142" cy="2434" r="148" fill="#FFFFFF" opacity="0.225" /><circle cx="2031" cy="1729" r="129" fill="#FFFFFF" opacity="0.118" /><circle cx="1391" cy="792" r="108" fill="#FFFFFF" opacity="0.197" /><circle cx="1403" cy="1821" r="132" fill="#FFFFFF" opacity="0.202" /><circle cx="1818" cy="2221" r="83" fill="#FFFFFF" opacity="0.092" /><circle cx="2565" cy="1373" r="133" fill="#FFFFFF" opacity="0.201" /><circle cx="1249" cy="1562" r="67" fill="#FFFFFF" opacity="0.235" /><circle cx="2026" cy="1443" r="87" fill="#FFFFFF" opacity="0.074" /><circle cx="588" cy="2603" r="83" fill="#FFFFFF" opacity="0.161" /><circle cx="1619" cy="2459" r="52" fill="#FFFFFF" opacity="0.218" /><circle cx="1924" cy="2412" r="65" fill="#FFFFFF" opacity="0.094" /><circle cx="1429" cy="915" r="66" fill="#FFFFFF" opacity="0.139" /><circle cx="2116" cy="1582" r="51" fill="#FFFFFF" opacity="0.143" /><circle cx="2205" cy="2382" r="106" fill="#FFFFFF" opacity="0.067" /><circle cx="530" cy="2048" r="77" fill="#FFFFFF" opacity="0.099" /><circle cx="911" cy="530" r="103" fill="#FFFFFF" opacity="0.098" /><circle cx="2258" cy="2054" r="143" fill="#FFFFFF" opacity="0.183" /><circle cx="440" cy="1225" r="36" fill="#FFFFFF" opacity="0.119" /><circle cx="461" cy="2655" r="121" fill="#FFFFFF" opacity="0.232" /><circle cx="785" cy="649" r="92" fill="#FFFFFF" opacity="0.151" /><circle cx="889" cy="1783" r="103" fill="#FFFFFF" opacity="0.201" /><circle cx="2039" cy="1311" r="154" fill="#FFFFFF" opacity="0.197" /><circle cx="2191" cy="2252" r="83" fill="#FFFFFF" opacity="0.185" /></g>
  <g><path d="M 244.0 574.7 L 2810.0 298.2 L 2810.0 760.0 L 244.0 1036.5 Z" fill="#FFFFFF" opacity="0.195" /><path d="M 210.5 914.9 L 2771.3 638.4 L 2771.3 1093.1 L 210.5 1369.6 Z" fill="#FFFFFF" opacity="0.191" /><path d="M 292.0 1106.2 L 2755.3 829.7 L 2755.3 1285.2 L 292.0 1561.7 Z" fill="#FFFFFF" opacity="0.229" /><path d="M 241.7 1391.6 L 2800.1 1115.1 L 2800.1 1560.8 L 241.7 1837.3 Z" fill="#FFFFFF" opacity="0.236" /><path d="M 363.0 1692.4 L 2892.7 1415.9 L 2892.7 1867.3 L 363.0 2143.8 Z" fill="#FFFFFF" opacity="0.100" /><path d="M 188.8 1917.6 L 2838.1 1641.1 L 2838.1 2100.5 L 188.8 2377.0 Z" fill="#FFFFFF" opacity="0.095" /><path d="M 194.4 2221.0 L 2770.8 1944.6 L 2770.8 2406.0 L 194.4 2682.5 Z" fill="#FFFFFF" opacity="0.083" /><path d="M 182.2 2408.6 L 2920.1 2132.1 L 2920.1 2595.2 L 182.2 2871.7 Z" fill="#FFFFFF" opacity="0.171" /></g>
  <g filter="url(#soft186)"><g transform="rotate(-6.75 1536.0 1536.0)"><path d="M-368.6 512.0 C -225.8 454.4, -25.8 538.9, 107.5 490.0 C 250.4 489.6, 450.4 529.8, 583.7 533.1 C 726.5 530.1, 926.5 503.6, 1059.8 563.3 C 1202.7 581.7, 1402.7 460.8, 1536.0 562.4 C 1678.8 559.2, 1878.8 496.7, 2012.2 530.9 C 2155.0 536.2, 2355.0 499.1, 2488.3 487.9 C 2631.2 488.7, 2831.2 523.2, 2964.5 459.5 C 3107.3 465.7, 3307.3 567.3, 3440.6 462.9" fill="none" stroke="url(#ribbon186)" stroke-width="58.4" stroke-linecap="round" stroke-opacity="0.120" /></g><g transform="rotate(-6.17 1536.0 1536.0)"><path d="M-368.6 712.6 C -241.7 751.2, -63.9 685.8, 54.6 734.4 C 181.6 740.1, 359.4 695.0, 477.9 685.9 C 604.8 692.8, 782.6 733.4, 901.1 653.6 C 1028.1 650.3, 1205.9 779.6, 1324.4 657.0 C 1451.3 678.3, 1629.1 777.0, 1747.6 694.2 C 1874.6 701.2, 2052.4 718.6, 2170.9 742.6 C 2297.9 733.2, 2475.6 690.6, 2594.1 772.7 C 2721.1 775.2, 2898.9 660.5, 3017.4 766.4 C 3144.4 766.3, 3322.1 654.6, 3440.6 727.4" fill="none" stroke="url(#ribbon186)" stroke-width="54.4" stroke-linecap="round" stroke-opacity="0.146" /></g><g transform="rotate(-5.59 1536.0 1536.0)"><path d="M-368.6 928.3 C -254.4 866.7, -94.4 968.4, 12.3 860.0 C 126.6 833.6, 286.6 979.1, 393.2 889.8 C 507.5 881.7, 667.5 963.7, 774.1 942.9 C 888.4 946.7, 1048.4 913.1, 1155.1 987.2 C 1269.4 979.0, 1429.3 858.9, 1536.0 995.7 C 1650.3 973.9, 1810.3 895.6, 1916.9 963.3 C 2031.2 964.3, 2191.2 887.3, 2297.9 909.7 C 2412.1 916.6, 2572.1 939.2, 2678.8 867.4 C 2793.1 874.6, 2953.1 974.0, 3059.7 862.0 C 3174.0 886.4, 3334.0 974.0, 3440.6 896.8" fill="none" stroke="url(#ribbon186)" stroke-width="50.4" stroke-linecap="round" stroke-opacity="0.172" /></g><g transform="rotate(-5.01 1536.0 1536.0)"><path d="M-368.6 1150.5 C -264.8 1085.4, -119.3 1208.4, -22.3 1088.2 C 81.5 1099.7, 227.0 1177.6, 324.0 1138.8 C 427.8 1139.2, 573.3 1156.8, 670.3 1196.6 C 774.1 1214.2, 919.6 1107.1, 1016.6 1226.4 C 1120.4 1243.5, 1265.9 1088.2, 1362.9 1210.2 C 1466.7 1187.7, 1612.2 1132.3, 1709.1 1157.8 C 1813.0 1157.2, 1958.5 1143.8, 2055.4 1101.0 C 2159.3 1098.6, 2304.8 1178.1, 2401.7 1074.2 C 2505.6 1088.4, 2651.1 1223.0, 2748.0 1093.8 C 2851.9 1087.9, 2997.4 1217.7, 3094.3 1147.7 C 3198.2 1147.9, 3343.7 1152.0, 3440.6 1203.4" fill="none" stroke="url(#ribbon186)" stroke-width="46.4" stroke-linecap="round" stroke-opacity="0.198" /></g><g transform="rotate(-4.43 1536.0 1536.0)"><path d="M-368.6 1276.9 C -273.4 1187.4, -140.1 1346.5, -51.2 1214.7 C 44.0 1209.4, 177.4 1308.7, 266.2 1273.6 C 361.5 1274.1, 494.8 1279.5, 583.7 1334.5 C 678.9 1316.9, 812.2 1243.8, 901.1 1360.5 C 996.4 1387.2, 1129.7 1201.4, 1218.6 1335.8 C 1313.8 1328.8, 1447.1 1250.8, 1536.0 1275.4 C 1631.2 1275.3, 1764.6 1278.8, 1853.4 1215.9 C 1948.7 1204.5, 2082.0 1331.2, 2170.9 1193.5 C 2266.1 1201.0, 2399.4 1356.4, 2488.3 1221.7 C 2583.6 1234.4, 2716.9 1340.3, 2805.8 1283.4 C 2901.0 1285.7, 3034.3 1272.1, 3123.2 1341.2 C 3218.4 1360.5, 3351.8 1201.4, 3440.6 1360.0" fill="none" stroke="url(#ribbon186)" stroke-width="42.4" stroke-linecap="round" stroke-opacity="0.224" /></g><g transform="rotate(-3.85 1536.0 1536.0)"><path d="M-368.6 1473.2 C -225.8 1540.1, -25.8 1410.9, 107.5 1481.3 C 250.4 1481.5, 450.4 1467.1, 583.7 1414.1 C 726.5 1407.4, 926.5 1523.6, 1059.8 1382.8 C 1202.7 1375.8, 1402.7 1549.4, 1536.0 1406.3 C 1678.8 1383.5, 1878.8 1549.8, 2012.2 1470.5 C 2155.0 1470.0, 2355.0 1475.6, 2488.3 1536.3 C 2631.2 1559.0, 2831.2 1437.8, 2964.5 1563.9 C 3107.3 1598.1, 3307.3 1399.5, 3440.6 1536.5" fill="none" stroke="url(#ribbon186)" stroke-width="38.4" stroke-linecap="round" stroke-opacity="0.250" /></g><g transform="rotate(-3.27 1536.0 1536.0)"><path d="M-368.6 1716.0 C -241.7 1794.1, -63.9 1639.7, 54.6 1782.4 C 181.6 1795.7, 359.4 1644.4, 477.9 1710.8 C 604.8 1710.9, 782.6 1718.4, 901.1 1642.4 C 1028.1 1635.6, 1205.9 1781.6, 1324.4 1618.7 C 1451.3 1615.2, 1629.1 1770.7, 1747.6 1654.0 C 1874.6 1676.0, 2052.4 1771.2, 2170.9 1726.9 C 2297.9 1727.1, 2475.6 1703.4, 2594.1 1793.2 C 2721.1 1817.3, 2898.9 1681.1, 3017.4 1812.7 C 3144.4 1808.3, 3322.1 1678.6, 3440.6 1773.6" fill="none" stroke="url(#ribbon186)" stroke-width="34.4" stroke-linecap="round" stroke-opacity="0.276" /></g><g transform="rotate(-2.69 1536.0 1536.0)"><path d="M-368.6 1909.7 C -254.4 1997.5, -94.4 1816.0, 12.3 1933.8 C 126.6 1938.5, 286.6 1887.0, 393.2 1853.4 C 507.5 1867.0, 667.5 1954.8, 774.1 1807.1 C 888.4 1820.9, 1048.4 1977.3, 1155.1 1823.0 C 1269.4 1814.5, 1429.3 1941.9, 1536.0 1891.5 C 1650.3 1886.1, 1810.3 1924.3, 1916.9 1971.0 C 2031.2 1985.9, 2191.2 1844.0, 2297.9 2013.3 C 2412.1 1989.3, 2572.1 1862.9, 2678.8 1992.8 C 2793.1 1987.3, 2953.1 1860.5, 3059.7 1921.8 C 3174.0 1918.4, 3334.0 1901.2, 3440.6 1843.5" fill="none" stroke="url(#ribbon186)" stroke-width="30.4" stroke-linecap="round" stroke-opacity="0.302" /></g><g transform="rotate(-2.11 1536.0 1536.0)"><path d="M-368.6 2085.8 C -264.8 2080.1, -119.3 2090.9, -22.3 2160.3 C 81.5 2188.9, 227.0 2029.8, 324.0 2197.5 C 427.8 2159.2, 573.3 2041.1, 670.3 2167.0 C 774.1 2157.0, 919.6 2054.6, 1016.6 2087.3 C 1120.4 2087.0, 1265.9 2085.0, 1362.9 2006.6 C 1466.7 1976.8, 1612.2 2109.9, 1709.1 1974.0 C 1813.0 1934.8, 1958.5 2172.3, 2055.4 2009.2 C 2159.3 2025.4, 2304.8 2165.4, 2401.7 2090.9 C 2505.6 2092.5, 2651.1 2082.0, 2748.0 2169.5 C 2851.9 2186.0, 2997.4 1998.7, 3094.3 2197.3 C 3198.2 2240.2, 3343.7 1992.3, 3440.6 2157.5" fill="none" stroke="url(#ribbon186)" stroke-width="26.4" stroke-linecap="round" stroke-opacity="0.328" /></g><g transform="rotate(-1.53 1536.0 1536.0)"><path d="M-368.6 2290.2 C -273.4 2173.1, -140.1 2327.4, -51.2 2222.8 C 44.0 2203.9, 177.4 2357.1, 266.2 2313.5 C 361.5 2307.8, 494.8 2273.1, 583.7 2390.1 C 678.9 2368.7, 812.2 2258.6, 901.1 2406.1 C 996.4 2442.8, 1129.7 2223.3, 1218.6 2351.8 C 1313.8 2366.5, 1447.1 2229.7, 1536.0 2260.1 C 1631.2 2271.6, 1764.6 2311.2, 1853.4 2186.7 C 1948.7 2187.8, 2082.0 2379.5, 2170.9 2176.1 C 2266.1 2145.7, 2399.4 2379.2, 2488.3 2234.7 C 2583.6 2248.9, 2716.9 2314.8, 2805.8 2326.9 C 2901.0 2337.6, 3034.3 2270.2, 3123.2 2396.9 C 3218.4 2432.1, 3351.8 2227.1, 3440.6 2402.2" fill="none" stroke="url(#ribbon186)" stroke-width="22.4" stroke-linecap="round" stroke-opacity="0.354" /></g><g transform="rotate(-0.95 1536.0 1536.0)"><path d="M-368.6 2401.0 C -225.8 2365.2, -25.8 2426.8, 107.5 2281.6 C 250.4 2294.6, 450.4 2467.1, 583.7 2289.1 C 726.5 2288.1, 926.5 2452.1, 1059.8 2364.4 C 1202.7 2373.0, 1402.7 2429.2, 1536.0 2462.0 C 1678.8 2475.8, 1878.8 2359.8, 2012.2 2522.6 C 2155.0 2527.1, 2355.0 2272.0, 2488.3 2509.4 C 2631.2 2551.5, 2831.2 2336.8, 2964.5 2430.5 C 3107.3 2436.7, 3307.3 2371.3, 3440.6 2333.7" fill="none" stroke="url(#ribbon186)" stroke-width="18.4" stroke-linecap="round" stroke-opacity="0.380" /></g><g transform="rotate(-0.37 1536.0 1536.0)"><path d="M-368.6 2696.4 C -241.7 2854.6, -63.9 2594.0, 54.6 2789.8 C 181.6 2766.6, 359.4 2598.7, 477.9 2693.5 C 604.8 2693.6, 782.6 2699.1, 901.1 2599.0 C 1028.1 2598.4, 1205.9 2774.8, 1324.4 2563.6 C 1451.3 2583.9, 1629.1 2821.4, 1747.6 2608.7 C 1874.6 2581.8, 2052.4 2763.5, 2170.9 2707.0 C 2297.9 2709.3, 2475.6 2685.7, 2594.1 2798.9 C 2721.1 2770.9, 2898.9 2633.8, 3017.4 2828.6 C 3144.4 2801.2, 3322.1 2548.3, 3440.6 2778.1" fill="none" stroke="url(#ribbon186)" stroke-width="14.4" stroke-linecap="round" stroke-opacity="0.406" /></g></g>
  <g><ellipse cx="1536.0" cy="1551.9" rx="728.6" ry="605.7" fill="url(#extrude186)" opacity="0.220" /><ellipse cx="1536.0" cy="1567.7" rx="736.0" ry="610.9" fill="url(#extrude186)" opacity="0.205" /><ellipse cx="1536.0" cy="1583.6" rx="743.4" ry="616.1" fill="url(#extrude186)" opacity="0.190" /><ellipse cx="1536.0" cy="1599.5" rx="750.9" ry="621.3" fill="url(#extrude186)" opacity="0.175" /><ellipse cx="1536.0" cy="1615.4" rx="758.3" ry="626.5" fill="url(#extrude186)" opacity="0.160" /><ellipse cx="1536.0" cy="1631.2" rx="765.7" ry="631.7" fill="url(#extrude186)" opacity="0.145" /><ellipse cx="1536.0" cy="1647.1" rx="773.2" ry="636.9" fill="url(#extrude186)" opacity="0.130" /><ellipse cx="1536.0" cy="1663.0" rx="780.6" ry="642.1" fill="url(#extrude186)" opacity="0.115" /><ellipse cx="1536.0" cy="1678.8" rx="788.0" ry="647.4" fill="url(#extrude186)" opacity="0.100" /><ellipse cx="1536.0" cy="1694.7" rx="795.5" ry="652.6" fill="url(#extrude186)" opacity="0.085" /><ellipse cx="1536.0" cy="1710.6" rx="802.9" ry="657.8" fill="url(#extrude186)" opacity="0.070" /><ellipse cx="1536.0" cy="1726.5" rx="810.3" ry="663.0" fill="url(#extrude186)" opacity="0.055" /></g>
  <ellipse cx="1536.0" cy="1726.5" rx="773.2" ry="214.9" fill="#0B1D2D" opacity="0.24" />
  <ellipse cx="1536.0" cy="1536.0" rx="743.4" ry="651.3" fill="url(#orb186)" stroke="#FFFFFF" stroke-opacity="0.42" stroke-width="7" />
  <ellipse cx="1431.9" cy="1392.7" rx="505.5" ry="299.6" fill="#FFFFFF" opacity="0.25" />
  <path d="M 199.4 399.4 C 1013.8 -30.7, 2058.2 768.0, 2872.6 215.0 L 2872.6 983.0 C 2089.0 1228.8, 1013.8 307.2, 199.4 1167.4 Z" fill="url(#glass186)" />
  <rect x="270" y="270" width="2532" height="2532" rx="430" fill="none" stroke="#FFFFFF" stroke-opacity="0.30" stroke-width="5" />
  <rect x="288.4" y="288.4" width="2495.1" height="2495.1" rx="399" fill="none" stroke="#FF9F43" stroke-opacity="0.35" stroke-width="3" />
  <g filter="url(#soft186)"><rect x="2330" y="2610" width="32" height="2" fill="#FFFFFF" opacity="0.529" /><rect x="2345" y="2595" width="2" height="32" fill="#FFFFFF" opacity="0.529" /><rect x="1632" y="1324" width="54" height="2" fill="#FFFFFF" opacity="0.573" /><rect x="1658" y="1298" width="2" height="54" fill="#FFFFFF" opacity="0.573" /><rect x="458" y="1165" width="78" height="2" fill="#FFFFFF" opacity="0.448" /><rect x="496" y="1127" width="2" height="78" fill="#FFFFFF" opacity="0.448" /><rect x="2579" y="901" width="34" height="2" fill="#FFFFFF" opacity="0.352" /><rect x="2595" y="885" width="2" height="34" fill="#FFFFFF" opacity="0.352" /><rect x="2431" y="2392" width="40" height="2" fill="#FFFFFF" opacity="0.375" /><rect x="2450" y="2373" width="2" height="40" fill="#FFFFFF" opacity="0.375" /><rect x="2030" y="2146" width="56" height="2" fill="#FFFFFF" opacity="0.577" /><rect x="2057" y="2119" width="2" height="56" fill="#FFFFFF" opacity="0.577" /><rect x="1226" y="1172" width="76" height="2" fill="#FFFFFF" opacity="0.525" /><rect x="1263" y="1135" width="2" height="76" fill="#FFFFFF" opacity="0.525" /><rect x="1241" y="747" width="72" height="2" fill="#FFFFFF" opacity="0.398" /><rect x="1276" y="712" width="2" height="72" fill="#FFFFFF" opacity="0.398" /><rect x="1041" y="2717" width="38" height="2" fill="#FFFFFF" opacity="0.347" /><rect x="1059" y="2699" width="2" height="38" fill="#FFFFFF" opacity="0.347" /><rect x="2204" y="817" width="70" height="2" fill="#FFFFFF" opacity="0.456" /><rect x="2238" y="783" width="2" height="70" fill="#FFFFFF" opacity="0.456" /><rect x="985" y="538" width="32" height="2" fill="#FFFFFF" opacity="0.500" /><rect x="1000" y="523" width="2" height="32" fill="#FFFFFF" opacity="0.500" /><rect x="1468" y="2384" width="36" height="2" fill="#FFFFFF" opacity="0.464" /><rect x="1485" y="2367" width="2" height="36" fill="#FFFFFF" opacity="0.464" /><rect x="2679" y="2421" width="60" height="2" fill="#FFFFFF" opacity="0.724" /><rect x="2708" y="2392" width="2" height="60" fill="#FFFFFF" opacity="0.724" /><rect x="2323" y="1630" width="36" height="2" fill="#FFFFFF" opacity="0.406" /><rect x="2340" y="1613" width="2" height="36" fill="#FFFFFF" opacity="0.406" /><rect x="811" y="1151" width="72" height="2" fill="#FFFFFF" opacity="0.781" /><rect x="846" y="1116" width="2" height="72" fill="#FFFFFF" opacity="0.781" /><rect x="2720" y="1368" width="32" height="2" fill="#FFFFFF" opacity="0.393" /><rect x="2735" y="1353" width="2" height="32" fill="#FFFFFF" opacity="0.393" /><rect x="2154" y="813" width="72" height="2" fill="#FFFFFF" opacity="0.603" /><rect x="2189" y="778" width="2" height="72" fill="#FFFFFF" opacity="0.603" /><rect x="1424" y="1520" width="54" height="2" fill="#FFFFFF" opacity="0.824" /><rect x="1450" y="1494" width="2" height="54" fill="#FFFFFF" opacity="0.824" /><rect x="2649" y="415" width="30" height="2" fill="#FFFFFF" opacity="0.747" /><rect x="2663" y="401" width="2" height="30" fill="#FFFFFF" opacity="0.747" /><rect x="2594" y="2349" width="66" height="2" fill="#FFFFFF" opacity="0.663" /><rect x="2626" y="2317" width="2" height="66" fill="#FFFFFF" opacity="0.663" /><rect x="430" y="355" width="24" height="2" fill="#FFFFFF" opacity="0.412" /><rect x="441" y="344" width="2" height="24" fill="#FFFFFF" opacity="0.412" /><rect x="886" y="296" width="54" height="2" fill="#FFFFFF" opacity="0.420" /><rect x="912" y="270" width="2" height="54" fill="#FFFFFF" opacity="0.420" /><rect x="2230" y="1480" width="64" height="2" fill="#FFFFFF" opacity="0.711" /><rect x="2261" y="1449" width="2" height="64" fill="#FFFFFF" opacity="0.711" /><rect x="2643" y="1598" width="44" height="2" fill="#FFFFFF" opacity="0.495" /><rect x="2664" y="1577" width="2" height="44" fill="#FFFFFF" opacity="0.495" /><rect x="295" y="1781" width="30" height="2" fill="#FFFFFF" opacity="0.563" /><rect x="309" y="1767" width="2" height="30" fill="#FFFFFF" opacity="0.563" /><rect x="2571" y="804" width="46" height="2" fill="#FFFFFF" opacity="0.376" /><rect x="2593" y="782" width="2" height="46" fill="#FFFFFF" opacity="0.376" /></g>
  <g opacity="0.52"><path d="M996 1582 Q1572 1006, 2148 1582" fill="none" stroke="#0C2030" stroke-width="90" /><path d="M996 1801 Q1572 1198, 2148 1801" fill="none" stroke="#0C2030" stroke-width="88" opacity="0.9" /><path d="M996 1966 Q1572 1326, 2148 1966" fill="none" stroke="#0C2030" stroke-width="87" opacity="0.75" /></g>
  <g filter="url(#soft186)"><path d="M960 1536 Q1536 960, 2112 1536" fill="none" stroke="url(#symbol186)" stroke-width="90" /><path d="M960 1755 Q1536 1152, 2112 1755" fill="none" stroke="url(#symbol186)" stroke-width="88" opacity="0.9" /><path d="M960 1920 Q1536 1280, 2112 1920" fill="none" stroke="url(#symbol186)" stroke-width="87" opacity="0.75" /></g>
  <rect x="138" y="138" width="2796" height="2796" rx="629" fill="#FFFFFF" filter="url(#grain186)" opacity="0.18" />
</svg>
