<svg xmlns="http://www.w3.org/2000/svg" width="3072" height="3072" viewBox="0 0 3072 3072">
  <title>QuartzOS App Icon 027 - pixel_studio_027</title>
  <defs><linearGradient id="bg26" x1="0%" y1="0%" x2="100%" y2="100%"><stop offset="0%" stop-color="#FFD84D" /><stop offset="26%" stop-color="#36D1FF" /><stop offset="56%" stop-color="#8A5CFF" /><stop offset="78%" stop-color="#5E86C9" /><stop offset="100%" stop-color="#1C2435" /></linearGradient><radialGradient id="sun26" cx="29%" cy="39%" r="88%"><stop offset="0%" stop-color="#FFFFFF" stop-opacity="0.62" /><stop offset="30%" stop-color="#FF6AB3" stop-opacity="0.35" /><stop offset="100%" stop-color="#FF6AB3" stop-opacity="0" /></radialGradient><linearGradient id="glass26" x1="0%" y1="0%" x2="0%" y2="100%"><stop offset="0%" stop-color="#FFFFFF" stop-opacity="0.70" /><stop offset="46%" stop-color="#FFFFFF" stop-opacity="0.26" /><stop offset="100%" stop-color="#FFFFFF" stop-opacity="0.00" /></linearGradient><linearGradient id="ribbon26" x1="0%" y1="0%" x2="100%" y2="0%"><stop offset="0%" stop-color="#FFD84D" stop-opacity="0.18" /><stop offset="34%" stop-color="#36D1FF" stop-opacity="0.72" /><stop offset="66%" stop-color="#8A5CFF" stop-opacity="0.72" /><stop offset="100%" stop-color="#FF6AB3" stop-opacity="0.18" /></linearGradient><radialGradient id="orb26" cx="34%" cy="27%" r="74%"><stop offset="0%" stop-color="#FFFFFF" stop-opacity="0.84" /><stop offset="30%" stop-color="#FFD84D" stop-opacity="0.52" /><stop offset="68%" stop-color="#36D1FF" stop-opacity="0.42" /><stop offset="100%" stop-color="#8A5CFF" stop-opacity="0.20" /></radialGradient><linearGradient id="extrude26" x1="0%" y1="0%" x2="0%" y2="100%"><stop offset="0%" stop-color="#15283C" stop-opacity="0.45" /><stop offset="100%" stop-color="#08131D" stop-opacity="0.06" /></linearGradient><linearGradient id="symbol26" x1="0%" y1="0%" x2="100%" y2="100%"><stop offset="0%" stop-color="#FFFFFF" /><stop offset="100%" stop-color="#FF6AB3" /></linearGradient><filter id="shadow26" x="-40%" y="-40%" width="180%" height="180%"><feDropShadow dx="0" dy="49" stdDeviation="86" flood-color="#06111A" flood-opacity="0.54" /></filter><filter id="soft26" x="-40%" y="-40%" width="180%" height="180%"><feDropShadow dx="0" dy="0" stdDeviation="14" flood-color="#FFD84D" flood-opacity="0.45" /></filter><filter id="grain26"><feTurbulence type="fractalNoise" baseFrequency="0.705" numOctaves="2" seed="26" /><feColorMatrix type="saturate" values="0" /><feComponentTransfer><feFuncA type="table" tableValues="0 0.09" /></feComponentTransfer></filter></defs>
  <rect x="138" y="138" width="2796" height="2796" rx="629" fill="url(#bg26)" filter="url(#shadow26)" />
  <rect x="138" y="138" width="2796" height="2796" rx="629" fill="url(#sun26)" />
  <g><circle cx="1683" cy="719" r="115" fill="#FFFFFF" opacity="0.079" /><circle cx="653" cy="1950" r="94" fill="#FFFFFF" opacity="0.077" /><circle cx="638" cy="399" r="42" fill="#FFFFFF" opacity="0.223" /><circle cx="1034" cy="1733" r="117" fill="#FFFFFF" opacity="0.111" /><circle cx="1536" cy="1252" r="90" fill="#FFFFFF" opacity="0.230" /><circle cx="913" cy="1916" r="110" fill="#FFFFFF" opacity="0.205" /><circle cx="1405" cy="714" r="101" fill="#FFFFFF" opacity="0.121" /><circle cx="969" cy="1103" r="111" fill="#FFFFFF" opacity="0.121" /><circle cx="562" cy="1945" r="73" fill="#FFFFFF" opacity="0.157" /><circle cx="517" cy="2701" r="125" fill="#FFFFFF" opacity="0.188" /><circle cx="2684" cy="484" r="115" fill="#FFFFFF" opacity="0.114" /><circle cx="575" cy="744" r="147" fill="#FFFFFF" opacity="0.194" /><circle cx="1027" cy="1611" r="95" fill="#FFFFFF" opacity="0.225" /><circle cx="2417" cy="1231" r="123" fill="#FFFFFF" opacity="0.140" /><circle cx="2142" cy="1309" r="100" fill="#FFFFFF" opacity="0.205" /><circle cx="1584" cy="2259" r="104" fill="#FFFFFF" opacity="0.143" /><circle cx="709" cy="331" r="107" fill="#FFFFFF" opacity="0.131" /><circle cx="741" cy="2476" r="106" fill="#FFFFFF" opacity="0.219" /><circle cx="1209" cy="1038" r="86" fill="#FFFFFF" opacity="0.115" /><circle cx="1645" cy="1890" r="155" fill="#FFFFFF" opacity="0.122" /><circle cx="2389" cy="1397" r="53" fill="#FFFFFF" opacity="0.220" /><circle cx="1948" cy="2225" r="39" fill="#FFFFFF" opacity="0.141" /><circle cx="549" cy="507" r="70" fill="#FFFFFF" opacity="0.062" /><circle cx="1472" cy="2048" r="103" fill="#FFFFFF" opacity="0.145" /><circle cx="2317" cy="1281" r="62" fill="#FFFFFF" opacity="0.100" /><circle cx="1630" cy="1015" r="39" fill="#FFFFFF" opacity="0.138" /><circle cx="2544" cy="696" r="83" fill="#FFFFFF" opacity="0.093" /><circle cx="2660" cy="1283" r="63" fill="#FFFFFF" opacity="0.138" /></g>
  <g><path d="M 235.1 634.2 L 2896.8 357.7 L 2896.8 811.1 L 235.1 1087.6 Z" fill="#FFFFFF" opacity="0.123" /><path d="M 239.4 867.0 L 2755.6 590.6 L 2755.6 1067.5 L 239.4 1344.0 Z" fill="#FFFFFF" opacity="0.212" /><path d="M 268.0 1163.4 L 2726.7 886.9 L 2726.7 1328.5 L 268.0 1605.0 Z" fill="#FFFFFF" opacity="0.083" /><path d="M 269.2 1411.2 L 2822.1 1134.7 L 2822.1 1622.1 L 269.2 1898.6 Z" fill="#FFFFFF" opacity="0.104" /><path d="M 334.5 1691.5 L 2738.9 1415.0 L 2738.9 1835.3 L 334.5 2111.8 Z" fill="#FFFFFF" opacity="0.109" /><path d="M 392.4 1876.8 L 2746.6 1600.3 L 2746.6 2076.5 L 392.4 2353.0 Z" fill="#FFFFFF" opacity="0.081" /><path d="M 314.8 2194.5 L 2817.1 1918.0 L 2817.1 2410.8 L 314.8 2687.3 Z" fill="#FFFFFF" opacity="0.089" /><path d="M 346.7 2466.7 L 2778.0 2190.2 L 2778.0 2667.7 L 346.7 2944.2 Z" fill="#FFFFFF" opacity="0.137" /></g>
  <g filter="url(#soft26)"><g transform="rotate(-6.81 1536.0 1536.0)"><path d="M-368.6 491.4 C -225.8 516.9, -25.8 471.8, 107.5 467.9 C 250.4 459.2, 450.4 499.1, 583.7 439.1 C 726.5 436.3, 926.5 542.1, 1059.8 442.0 C 1202.7 434.2, 1402.7 510.0, 1536.0 474.9 C 1678.8 469.7, 1878.8 500.2, 2012.2 517.8 C 2155.0 519.9, 2355.0 471.2, 2488.3 544.6 C 2631.2 529.8, 2831.2 458.3, 2964.5 539.2 C 3107.3 529.6, 3307.3 473.1, 3440.6 504.8" fill="none" stroke="url(#ribbon26)" stroke-width="58.4" stroke-linecap="round" stroke-opacity="0.120" /></g><g transform="rotate(-6.23 1536.0 1536.0)"><path d="M-368.6 776.0 C -241.7 815.7, -63.9 720.6, 54.6 837.6 C 181.6 817.8, 359.4 735.4, 477.9 811.6 C 604.8 806.9, 782.6 736.8, 901.1 764.0 C 1028.1 763.1, 1205.9 790.2, 1324.4 723.8 C 1451.3 716.2, 1629.1 803.3, 1747.6 715.2 C 1874.6 704.2, 2052.4 811.2, 2170.9 743.6 C 2297.9 732.5, 2475.6 785.8, 2594.1 791.6 C 2721.1 796.5, 2898.9 766.6, 3017.4 830.2 C 3144.4 823.9, 3322.1 745.1, 3440.6 836.0" fill="none" stroke="url(#ribbon26)" stroke-width="54.4" stroke-linecap="round" stroke-opacity="0.146" /></g><g transform="rotate(-5.65 1536.0 1536.0)"><path d="M-368.6 867.1 C -254.4 882.9, -94.4 857.3, 12.3 831.2 C 126.6 824.5, 286.6 892.2, 393.2 799.5 C 507.5 782.4, 667.5 904.0, 774.1 808.8 C 888.4 826.9, 1048.4 908.8, 1155.1 853.5 C 1269.4 857.8, 1429.3 881.9, 1536.0 906.5 C 1650.3 916.8, 1810.3 833.9, 1916.9 935.6 C 2031.2 913.4, 2191.2 831.6, 2297.9 923.2 C 2412.1 901.5, 2572.1 825.4, 2678.8 876.8 C 2793.1 874.0, 2953.1 859.8, 3059.7 824.5 C 3174.0 832.7, 3334.0 915.9, 3440.6 798.1" fill="none" stroke="url(#ribbon26)" stroke-width="50.4" stroke-linecap="round" stroke-opacity="0.172" /></g><g transform="rotate(-5.07 1536.0 1536.0)"><path d="M-368.6 1145.7 C -264.8 1195.6, -119.3 1094.0, -22.3 1222.2 C 81.5 1214.0, 227.0 1079.5, 324.0 1198.2 C 427.8 1189.7, 573.3 1129.7, 670.3 1142.4 C 774.1 1142.9, 919.6 1147.2, 1016.6 1088.6 C 1120.4 1081.3, 1265.9 1203.1, 1362.9 1069.4 C 1466.7 1059.5, 1612.2 1223.9, 1709.1 1096.5 C 1813.0 1094.9, 1958.5 1186.3, 2055.4 1153.4 C 2159.3 1151.0, 2304.8 1142.7, 2401.7 1205.7 C 2505.6 1184.2, 2651.1 1113.2, 2748.0 1221.5 C 2851.9 1242.4, 2997.4 1057.9, 3094.3 1191.4 C 3198.2 1186.3, 3343.7 1112.1, 3440.6 1133.5" fill="none" stroke="url(#ribbon26)" stroke-width="46.4" stroke-linecap="round" stroke-opacity="0.198" /></g><g transform="rotate(-4.49 1536.0 1536.0)"><path d="M-368.6 1329.2 C -273.4 1292.3, -140.1 1363.8, -51.2 1245.7 C 44.0 1252.4, 177.4 1425.2, 266.2 1267.5 C 361.5 1259.4, 494.8 1370.3, 583.7 1326.7 C 678.9 1327.3, 812.2 1331.6, 901.1 1387.4 C 996.4 1373.1, 1129.7 1284.1, 1218.6 1412.7 C 1313.8 1382.4, 1447.1 1238.2, 1536.0 1387.4 C 1631.2 1409.0, 1764.6 1263.7, 1853.4 1326.7 C 1948.7 1326.0, 2082.0 1331.3, 2170.9 1267.6 C 2266.1 1260.1, 2399.4 1354.8, 2488.3 1245.7 C 2583.6 1272.3, 2716.9 1417.5, 2805.8 1274.5 C 2901.0 1263.2, 3034.3 1365.4, 3123.2 1336.5 C 3218.4 1338.6, 3351.8 1322.5, 3440.6 1394.0" fill="none" stroke="url(#ribbon26)" stroke-width="42.4" stroke-linecap="round" stroke-opacity="0.224" /></g><g transform="rotate(-3.91 1536.0 1536.0)"><path d="M-368.6 1544.4 C -225.8 1637.9, -25.8 1495.6, 107.5 1575.3 C 250.4 1568.8, 450.4 1530.1, 583.7 1504.8 C 726.5 1500.1, 926.5 1576.6, 1059.8 1458.4 C 1202.7 1470.8, 1402.7 1634.0, 1536.0 1464.1 C 1678.8 1457.3, 1878.8 1574.8, 2012.2 1518.6 C 2155.0 1522.9, 2355.0 1566.1, 2488.3 1588.8 C 2631.2 1598.1, 2831.2 1501.7, 2964.5 1632.0 C 3107.3 1648.0, 3307.3 1449.3, 3440.6 1622.1" fill="none" stroke="url(#ribbon26)" stroke-width="38.4" stroke-linecap="round" stroke-opacity="0.250" /></g><g transform="rotate(-3.33 1536.0 1536.0)"><path d="M-368.6 1669.5 C -241.7 1556.1, -63.9 1715.0, 54.6 1579.3 C 181.6 1592.3, 359.4 1725.5, 477.9 1633.5 C 604.8 1646.9, 782.6 1685.9, 901.1 1709.6 C 1028.1 1714.7, 1205.9 1639.3, 1324.4 1761.3 C 1451.3 1754.6, 1629.1 1631.9, 1747.6 1757.4 C 1874.6 1739.0, 2052.4 1572.1, 2170.9 1700.2 C 2297.9 1702.2, 2475.6 1635.1, 2594.1 1624.3 C 2721.1 1616.6, 2898.9 1698.3, 3017.4 1575.9 C 3144.4 1598.9, 3322.1 1708.0, 3440.6 1584.3" fill="none" stroke="url(#ribbon26)" stroke-width="34.4" stroke-linecap="round" stroke-opacity="0.276" /></g><g transform="rotate(-2.75 1536.0 1536.0)"><path d="M-368.6 1856.4 C -254.4 1916.4, -94.4 1746.6, 12.3 1898.8 C 126.6 1906.1, 286.6 1815.6, 393.2 1817.2 C 507.5 1826.3, 667.5 1877.0, 774.1 1759.4 C 888.4 1780.7, 1048.4 1945.0, 1155.1 1760.5 C 1269.4 1762.9, 1429.3 1946.4, 1536.0 1819.7 C 1650.3 1812.0, 1810.3 1880.3, 1916.9 1901.2 C 2031.2 1916.2, 2191.2 1838.0, 2297.9 1955.6 C 2412.1 1920.3, 2572.1 1776.6, 2678.8 1949.7 C 2793.1 1915.7, 2953.1 1757.0, 3059.7 1887.3 C 3174.0 1893.8, 3334.0 1825.3, 3440.6 1806.1" fill="none" stroke="url(#ribbon26)" stroke-width="30.4" stroke-linecap="round" stroke-opacity="0.302" /></g><g transform="rotate(-2.17 1536.0 1536.0)"><path d="M-368.6 2020.3 C -264.8 2028.5, -119.3 2007.0, -22.3 1950.2 C 81.5 1945.1, 227.0 2049.5, 324.0 1908.9 C 427.8 1945.0, 573.3 2142.2, 670.3 1935.2 C 774.1 1967.3, 919.6 2102.1, 1016.6 2013.0 C 1120.4 2012.3, 1265.9 2026.8, 1362.9 2095.3 C 1466.7 2114.3, 1612.2 1933.5, 1709.1 2132.0 C 1813.0 2098.8, 1958.5 1927.8, 2055.4 2101.0 C 2159.3 2071.8, 2304.8 1952.5, 2401.7 2021.0 C 2505.6 2020.7, 2651.1 2019.8, 2748.0 1940.5 C 2851.9 1927.5, 2997.4 2096.8, 3094.3 1908.5 C 3198.2 1907.6, 3343.7 2125.7, 3440.6 1944.2" fill="none" stroke="url(#ribbon26)" stroke-width="26.4" stroke-linecap="round" stroke-opacity="0.328" /></g><g transform="rotate(-1.59 1536.0 1536.0)"><path d="M-368.6 2241.5 C -273.4 2101.9, -140.1 2295.3, -51.2 2177.8 C 44.0 2191.4, 177.4 2282.2, 266.2 2269.1 C 361.5 2264.5, 494.8 2219.2, 583.7 2343.7 C 678.9 2383.3, 812.2 2143.3, 901.1 2356.3 C 996.4 2373.3, 1129.7 2171.8, 1218.6 2299.3 C 1313.8 2295.9, 1447.1 2182.5, 1536.0 2207.2 C 1631.2 2197.1, 1764.6 2252.4, 1853.4 2136.0 C 1948.7 2124.8, 2082.0 2317.3, 2170.9 2128.7 C 2266.1 2126.3, 2399.4 2290.9, 2488.3 2189.9 C 2583.6 2181.3, 2716.9 2282.3, 2805.8 2282.4 C 2901.0 2289.0, 3034.3 2221.4, 3123.2 2350.1 C 3218.4 2309.1, 3351.8 2168.1, 3440.6 2351.9" fill="none" stroke="url(#ribbon26)" stroke-width="22.4" stroke-linecap="round" stroke-opacity="0.354" /></g><g transform="rotate(-1.01 1536.0 1536.0)"><path d="M-368.6 2425.6 C -225.8 2363.0, -25.8 2466.0, 107.5 2463.3 C 250.4 2475.5, 450.4 2388.0, 583.7 2538.1 C 726.5 2511.7, 926.5 2349.7, 1059.8 2544.6 C 1202.7 2521.3, 1402.7 2307.4, 1536.0 2478.9 C 1678.8 2478.6, 1878.8 2399.1, 2012.2 2380.9 C 2155.0 2377.9, 2355.0 2464.1, 2488.3 2310.0 C 2631.2 2278.1, 2831.2 2528.4, 2964.5 2309.2 C 3107.3 2308.8, 3307.3 2562.9, 3440.6 2379.0" fill="none" stroke="url(#ribbon26)" stroke-width="18.4" stroke-linecap="round" stroke-opacity="0.380" /></g><g transform="rotate(-0.43 1536.0 1536.0)"><path d="M-368.6 2635.4 C -241.7 2621.7, -63.9 2648.7, 54.6 2526.1 C 181.6 2485.4, 359.4 2744.5, 477.9 2504.9 C 604.8 2531.5, 782.6 2776.7, 901.1 2562.9 C 1028.1 2534.8, 1205.9 2692.6, 1324.4 2664.8 C 1451.3 2670.7, 1629.1 2624.3, 1747.6 2749.0 C 1874.6 2789.5, 2052.4 2501.0, 2170.9 2764.2 C 2297.9 2787.4, 2475.6 2565.5, 2594.1 2701.4 C 2721.1 2725.9, 2898.9 2556.6, 3017.4 2598.5 C 3144.4 2607.8, 3322.1 2648.8, 3440.6 2518.0" fill="none" stroke="url(#ribbon26)" stroke-width="14.4" stroke-linecap="round" stroke-opacity="0.406" /></g></g>
  <g><ellipse cx="1536.0" cy="1551.9" rx="728.6" ry="605.7" fill="url(#extrude26)" opacity="0.220" /><ellipse cx="1536.0" cy="1567.7" rx="736.0" ry="610.9" fill="url(#extrude26)" opacity="0.205" /><ellipse cx="1536.0" cy="1583.6" rx="743.4" ry="616.1" fill="url(#extrude26)" opacity="0.190" /><ellipse cx="1536.0" cy="1599.5" rx="750.9" ry="621.3" fill="url(#extrude26)" opacity="0.175" /><ellipse cx="1536.0" cy="1615.4" rx="758.3" ry="626.5" fill="url(#extrude26)" opacity="0.160" /><ellipse cx="1536.0" cy="1631.2" rx="765.7" ry="631.7" fill="url(#extrude26)" opacity="0.145" /><ellipse cx="1536.0" cy="1647.1" rx="773.2" ry="636.9" fill="url(#extrude26)" opacity="0.130" /><ellipse cx="1536.0" cy="1663.0" rx="780.6" ry="642.1" fill="url(#extrude26)" opacity="0.115" /><ellipse cx="1536.0" cy="1678.8" rx="788.0" ry="647.4" fill="url(#extrude26)" opacity="0.100" /><ellipse cx="1536.0" cy="1694.7" rx="795.5" ry="652.6" fill="url(#extrude26)" opacity="0.085" /><ellipse cx="1536.0" cy="1710.6" rx="802.9" ry="657.8" fill="url(#extrude26)" opacity="0.070" /><ellipse cx="1536.0" cy="1726.5" rx="810.3" ry="663.0" fill="url(#extrude26)" opacity="0.055" /></g>
  <ellipse cx="1536.0" cy="1726.5" rx="773.2" ry="214.9" fill="#0B1D2D" opacity="0.24" />
  <ellipse cx="1536.0" cy="1536.0" rx="743.4" ry="651.3" fill="url(#orb26)" stroke="#FFFFFF" stroke-opacity="0.42" stroke-width="7" />
  <ellipse cx="1431.9" cy="1392.7" rx="505.5" ry="299.6" fill="#FFFFFF" opacity="0.25" />
  <path d="M 199.4 399.4 C 1013.8 -30.7, 2058.2 768.0, 2872.6 215.0 L 2872.6 983.0 C 2089.0 1228.8, 1013.8 307.2, 199.4 1167.4 Z" fill="url(#glass26)" />
  <rect x="270" y="270" width="2532" height="2532" rx="430" fill="none" stroke="#FFFFFF" stroke-opacity="0.30" stroke-width="5" />
  <rect x="288.4" y="288.4" width="2495.1" height="2495.1" rx="399" fill="none" stroke="#FFD84D" stroke-opacity="0.35" stroke-width="3" />
  <g filter="url(#soft26)"><rect x="2389" y="855" width="62" height="2" fill="#FFFFFF" opacity="0.587" /><rect x="2419" y="825" width="2" height="62" fill="#FFFFFF" opacity="0.587" /><rect x="373" y="540" width="50" height="2" fill="#FFFFFF" opacity="0.644" /><rect x="397" y="516" width="2" height="50" fill="#FFFFFF" opacity="0.644" /><rect x="302" y="1581" width="46" height="2" fill="#FFFFFF" opacity="0.336" /><rect x="324" y="1559" width="2" height="46" fill="#FFFFFF" opacity="0.336" /><rect x="1626" y="1944" width="58" height="2" fill="#FFFFFF" opacity="0.744" /><rect x="1654" y="1916" width="2" height="58" fill="#FFFFFF" opacity="0.744" /><rect x="472" y="611" width="36" height="2" fill="#FFFFFF" opacity="0.622" /><rect x="489" y="594" width="2" height="36" fill="#FFFFFF" opacity="0.622" /><rect x="987" y="404" width="26" height="2" fill="#FFFFFF" opacity="0.614" /><rect x="999" y="392" width="2" height="26" fill="#FFFFFF" opacity="0.614" /><rect x="706" y="467" width="84" height="2" fill="#FFFFFF" opacity="0.689" /><rect x="747" y="426" width="2" height="84" fill="#FFFFFF" opacity="0.689" /><rect x="2065" y="1419" width="56" height="2" fill="#FFFFFF" opacity="0.576" /><rect x="2092" y="1392" width="2" height="56" fill="#FFFFFF" opacity="0.576" /><rect x="1661" y="1503" width="32" height="2" fill="#FFFFFF" opacity="0.450" /><rect x="1676" y="1488" width="2" height="32" fill="#FFFFFF" opacity="0.450" /><rect x="1323" y="438" width="26" height="2" fill="#FFFFFF" opacity="0.368" /><rect x="1335" y="426" width="2" height="26" fill="#FFFFFF" opacity="0.368" /><rect x="1233" y="656" width="82" height="2" fill="#FFFFFF" opacity="0.391" /><rect x="1273" y="616" width="2" height="82" fill="#FFFFFF" opacity="0.391" /><rect x="2436" y="1201" width="46" height="2" fill="#FFFFFF" opacity="0.712" /><rect x="2458" y="1179" width="2" height="46" fill="#FFFFFF" opacity="0.712" /><rect x="446" y="422" width="84" height="2" fill="#FFFFFF" opacity="0.689" /><rect x="487" y="381" width="2" height="84" fill="#FFFFFF" opacity="0.689" /><rect x="1633" y="1497" width="70" height="2" fill="#FFFFFF" opacity="0.802" /><rect x="1667" y="1463" width="2" height="70" fill="#FFFFFF" opacity="0.802" /><rect x="1966" y="361" width="40" height="2" fill="#FFFFFF" opacity="0.636" /><rect x="1985" y="342" width="2" height="40" fill="#FFFFFF" opacity="0.636" /><rect x="1272" y="1750" width="30" height="2" fill="#FFFFFF" opacity="0.495" /><rect x="1286" y="1736" width="2" height="30" fill="#FFFFFF" opacity="0.495" /><rect x="2129" y="1349" width="38" height="2" fill="#FFFFFF" opacity="0.573" /><rect x="2147" y="1331" width="2" height="38" fill="#FFFFFF" opacity="0.573" /><rect x="1504" y="1168" width="32" height="2" fill="#FFFFFF" opacity="0.610" /><rect x="1519" y="1153" width="2" height="32" fill="#FFFFFF" opacity="0.610" /><rect x="1455" y="2441" width="54" height="2" fill="#FFFFFF" opacity="0.836" /><rect x="1481" y="2415" width="2" height="54" fill="#FFFFFF" opacity="0.836" /><rect x="528" y="1602" width="44" height="2" fill="#FFFFFF" opacity="0.795" /><rect x="549" y="1581" width="2" height="44" fill="#FFFFFF" opacity="0.795" /><rect x="689" y="395" width="50" height="2" fill="#FFFFFF" opacity="0.456" /><rect x="713" y="371" width="2" height="50" fill="#FFFFFF" opacity="0.456" /><rect x="439" y="1492" width="62" height="2" fill="#FFFFFF" opacity="0.441" /><rect x="469" y="1462" width="2" height="62" fill="#FFFFFF" opacity="0.441" /><rect x="2675" y="1964" width="54" height="2" fill="#FFFFFF" opacity="0.576" /><rect x="2701" y="1938" width="2" height="54" fill="#FFFFFF" opacity="0.576" /><rect x="1362" y="2562" width="84" height="2" fill="#FFFFFF" opacity="0.467" /><rect x="1403" y="2521" width="2" height="84" fill="#FFFFFF" opacity="0.467" /><rect x="2508" y="1070" width="62" height="2" fill="#FFFFFF" opacity="0.472" /><rect x="2538" y="1040" width="2" height="62" fill="#FFFFFF" opacity="0.472" /><rect x="1413" y="1559" width="78" height="2" fill="#FFFFFF" opacity="0.458" /><rect x="1451" y="1521" width="2" height="78" fill="#FFFFFF" opacity="0.458" /></g>
  <g opacity="0.52"><path d="M996 1582 L1316 2131 L2148 1121" fill="none" stroke="#0C2030" stroke-width="90" stroke-linecap="round" stroke-linejoin="round" /><circle cx="996" cy="1582" r="47" fill="#0C2030" /><circle cx="1316" cy="2131" r="47" fill="#0C2030" /><circle cx="2148" cy="1121" r="47" fill="#0C2030" /></g>
  <g filter="url(#soft26)"><path d="M960 1536 L1280 2085 L2112 1075" fill="none" stroke="url(#symbol26)" stroke-width="90" stroke-linecap="round" stroke-linejoin="round" /><circle cx="960" cy="1536" r="47" fill="url(#symbol26)" /><circle cx="1280" cy="2085" r="47" fill="url(#symbol26)" /><circle cx="2112" cy="1075" r="47" fill="url(#symbol26)" /></g>
  <rect x="138" y="138" width="2796" height="2796" rx="629" fill="#FFFFFF" filter="url(#grain26)" opacity="0.18" />
</svg>
