<svg xmlns="http://www.w3.org/2000/svg" width="3072" height="3072" viewBox="0 0 3072 3072">
  <title>QuartzOS App Icon 207 - pixel_notes_207</title>
  <defs><linearGradient id="bg206" x1="0%" y1="0%" x2="100%" y2="100%"><stop offset="0%" stop-color="#FF6AB3" /><stop offset="26%" stop-color="#FFD84D" /><stop offset="56%" stop-color="#36D1FF" /><stop offset="78%" stop-color="#5E86C9" /><stop offset="100%" stop-color="#1C2435" /></linearGradient><radialGradient id="sun206" cx="28%" cy="39%" r="88%"><stop offset="0%" stop-color="#FFFFFF" stop-opacity="0.62" /><stop offset="30%" stop-color="#3B82FF" stop-opacity="0.35" /><stop offset="100%" stop-color="#3B82FF" stop-opacity="0" /></radialGradient><linearGradient id="glass206" x1="0%" y1="0%" x2="0%" y2="100%"><stop offset="0%" stop-color="#FFFFFF" stop-opacity="0.70" /><stop offset="46%" stop-color="#FFFFFF" stop-opacity="0.26" /><stop offset="100%" stop-color="#FFFFFF" stop-opacity="0.00" /></linearGradient><linearGradient id="ribbon206" x1="0%" y1="0%" x2="100%" y2="0%"><stop offset="0%" stop-color="#FF6AB3" stop-opacity="0.18" /><stop offset="34%" stop-color="#FFD84D" stop-opacity="0.72" /><stop offset="66%" stop-color="#36D1FF" stop-opacity="0.72" /><stop offset="100%" stop-color="#3B82FF" stop-opacity="0.18" /></linearGradient><radialGradient id="orb206" cx="34%" cy="27%" r="74%"><stop offset="0%" stop-color="#FFFFFF" stop-opacity="0.84" /><stop offset="30%" stop-color="#FF6AB3" stop-opacity="0.52" /><stop offset="68%" stop-color="#FFD84D" stop-opacity="0.42" /><stop offset="100%" stop-color="#36D1FF" stop-opacity="0.20" /></radialGradient><linearGradient id="extrude206" x1="0%" y1="0%" x2="0%" y2="100%"><stop offset="0%" stop-color="#15283C" stop-opacity="0.45" /><stop offset="100%" stop-color="#08131D" stop-opacity="0.06" /></linearGradient><linearGradient id="symbol206" x1="0%" y1="0%" x2="100%" y2="100%"><stop offset="0%" stop-color="#FFFFFF" /><stop offset="100%" stop-color="#3B82FF" /></linearGradient><filter id="shadow206" x="-40%" y="-40%" width="180%" height="180%"><feDropShadow dx="0" dy="49" stdDeviation="86" flood-color="#06111A" flood-opacity="0.54" /></filter><filter id="soft206" x="-40%" y="-40%" width="180%" height="180%"><feDropShadow dx="0" dy="0" stdDeviation="14" flood-color="#FF6AB3" flood-opacity="0.45" /></filter><filter id="grain206"><feTurbulence type="fractalNoise" baseFrequency="0.647" numOctaves="2" seed="206" /><feColorMatrix type="saturate" values="0" /><feComponentTransfer><feFuncA type="table" tableValues="0 0.09" /></feComponentTransfer></filter></defs>
  <rect x="138" y="138" width="2796" height="2796" rx="629" fill="url(#bg206)" filter="url(#shadow206)" />
  <rect x="138" y="138" width="2796" height="2796" rx="629" fill="url(#sun206)" />
  <g><circle cx="2550" cy="2338" r="127" fill="#FFFFFF" opacity="0.085" /><circle cx="2262" cy="1031" r="152" fill="#FFFFFF" opacity="0.084" /><circle cx="2665" cy="443" r="57" fill="#FFFFFF" opacity="0.215" /><circle cx="2182" cy="2359" r="158" fill="#FFFFFF" opacity="0.086" /><circle cx="1493" cy="2671" r="119" fill="#FFFFFF" opacity="0.142" /><circle cx="551" cy="1519" r="56" fill="#FFFFFF" opacity="0.138" /><circle cx="1986" cy="1593" r="81" fill="#FFFFFF" opacity="0.147" /><circle cx="1377" cy="2575" r="150" fill="#FFFFFF" opacity="0.214" /><circle cx="1494" cy="2690" r="53" fill="#FFFFFF" opacity="0.062" /><circle cx="1808" cy="2149" r="107" fill="#FFFFFF" opacity="0.076" /><circle cx="1542" cy="1508" r="120" fill="#FFFFFF" opacity="0.210" /><circle cx="1403" cy="490" r="76" fill="#FFFFFF" opacity="0.111" /><circle cx="1418" cy="1086" r="46" fill="#FFFFFF" opacity="0.067" /><circle cx="2206" cy="2507" r="143" fill="#FFFFFF" opacity="0.060" /><circle cx="1240" cy="2584" r="151" fill="#FFFFFF" opacity="0.209" /><circle cx="1969" cy="1582" r="109" fill="#FFFFFF" opacity="0.147" /><circle cx="499" cy="2648" r="43" fill="#FFFFFF" opacity="0.187" /><circle cx="1527" cy="1272" r="72" fill="#FFFFFF" opacity="0.099" /><circle cx="1425" cy="2306" r="131" fill="#FFFFFF" opacity="0.233" /><circle cx="638" cy="615" r="97" fill="#FFFFFF" opacity="0.206" /><circle cx="815" cy="1039" r="125" fill="#FFFFFF" opacity="0.137" /><circle cx="983" cy="561" r="70" fill="#FFFFFF" opacity="0.098" /><circle cx="694" cy="2382" r="70" fill="#FFFFFF" opacity="0.172" /><circle cx="2303" cy="358" r="127" fill="#FFFFFF" opacity="0.097" /><circle cx="437" cy="2305" r="92" fill="#FFFFFF" opacity="0.087" /><circle cx="1018" cy="687" r="152" fill="#FFFFFF" opacity="0.102" /><circle cx="712" cy="1105" r="96" fill="#FFFFFF" opacity="0.135" /><circle cx="663" cy="1550" r="99" fill="#FFFFFF" opacity="0.155" /></g>
  <g><path d="M 163.9 576.4 L 2891.4 299.9 L 2891.4 773.6 L 163.9 1050.1 Z" fill="#FFFFFF" opacity="0.155" /><path d="M 317.5 898.6 L 2821.4 622.1 L 2821.4 1085.0 L 317.5 1361.5 Z" fill="#FFFFFF" opacity="0.226" /><path d="M 262.4 1182.2 L 2820.6 905.8 L 2820.6 1395.1 L 262.4 1671.6 Z" fill="#FFFFFF" opacity="0.091" /><path d="M 218.6 1431.2 L 2754.6 1154.7 L 2754.6 1604.6 L 218.6 1881.1 Z" fill="#FFFFFF" opacity="0.092" /><path d="M 379.2 1664.1 L 2867.2 1387.6 L 2867.2 1880.3 L 379.2 2156.8 Z" fill="#FFFFFF" opacity="0.227" /><path d="M 268.8 1918.0 L 2857.8 1641.5 L 2857.8 2065.1 L 268.8 2341.6 Z" fill="#FFFFFF" opacity="0.113" /><path d="M 349.3 2160.3 L 2687.6 1883.8 L 2687.6 2338.1 L 349.3 2614.6 Z" fill="#FFFFFF" opacity="0.224" /><path d="M 178.6 2466.9 L 2798.6 2190.4 L 2798.6 2671.9 L 178.6 2948.4 Z" fill="#FFFFFF" opacity="0.190" /></g>
  <g filter="url(#soft206)"><g transform="rotate(-19.29 1536.0 1536.0)"><path d="M-368.6 573.8 C -225.8 612.3, -25.8 522.3, 107.5 584.1 C 250.4 580.8, 450.4 569.1, 583.7 542.0 C 726.5 532.5, 926.5 590.4, 1059.8 519.2 C 1202.7 504.3, 1402.7 596.4, 1536.0 529.6 C 1678.8 545.1, 1878.8 614.6, 2012.2 566.8 C 2155.0 566.1, 2355.0 578.5, 2488.3 608.2 C 2631.2 600.3, 2831.2 560.1, 2964.5 628.9 C 3107.3 648.8, 3307.3 551.3, 3440.6 616.1" fill="none" stroke="url(#ribbon206)" stroke-width="58.4" stroke-linecap="round" stroke-opacity="0.120" /></g><g transform="rotate(-18.71 1536.0 1536.0)"><path d="M-368.6 743.2 C -241.7 682.3, -63.9 789.4, 54.6 722.9 C 181.6 720.5, 359.4 757.5, 477.9 771.4 C 604.8 760.5, 782.6 725.4, 901.1 802.8 C 1028.1 796.2, 1205.9 686.0, 1324.4 798.1 C 1451.3 815.6, 1629.1 693.9, 1747.6 760.1 C 1874.6 756.2, 2052.4 726.7, 2170.9 711.9 C 2297.9 701.3, 2475.6 758.5, 2594.1 682.7 C 2721.1 690.1, 2898.9 765.2, 3017.4 690.2 C 3144.4 669.3, 3322.1 785.7, 3440.6 729.9" fill="none" stroke="url(#ribbon206)" stroke-width="54.4" stroke-linecap="round" stroke-opacity="0.146" /></g><g transform="rotate(-18.13 1536.0 1536.0)"><path d="M-368.6 877.8 C -254.4 809.3, -94.4 954.0, 12.3 852.1 C 126.6 852.0, 286.6 904.2, 393.2 906.1 C 507.5 894.8, 667.5 848.0, 774.1 943.0 C 888.4 917.4, 1048.4 853.4, 1155.1 940.3 C 1269.4 947.4, 1429.3 840.6, 1536.0 899.7 C 1650.3 901.1, 1810.3 861.5, 1916.9 845.8 C 2031.2 844.1, 2191.2 890.0, 2297.9 811.3 C 2412.1 808.9, 2572.1 912.5, 2678.8 817.1 C 2793.1 792.9, 2953.1 948.6, 3059.7 859.8 C 3174.0 866.3, 3334.0 892.1, 3440.6 913.3" fill="none" stroke="url(#ribbon206)" stroke-width="50.4" stroke-linecap="round" stroke-opacity="0.172" /></g><g transform="rotate(-17.55 1536.0 1536.0)"><path d="M-368.6 1107.1 C -264.8 1007.5, -119.3 1181.2, -22.3 1058.7 C 81.5 1071.7, 227.0 1126.9, 324.0 1115.9 C 427.8 1113.9, 573.3 1099.9, 670.3 1167.7 C 774.1 1165.2, 919.6 1057.4, 1016.6 1182.8 C 1120.4 1185.4, 1265.9 1055.2, 1362.9 1151.9 C 1466.7 1147.9, 1612.2 1074.0, 1709.1 1093.8 C 1813.0 1092.5, 1958.5 1120.5, 2055.4 1043.8 C 2159.3 1025.8, 2304.8 1155.6, 2401.7 1032.2 C 2505.6 1040.4, 2651.1 1144.2, 2748.0 1066.0 C 2851.9 1061.5, 2997.4 1145.7, 3094.3 1124.7 C 3198.2 1128.7, 3343.7 1094.0, 3440.6 1172.8" fill="none" stroke="url(#ribbon206)" stroke-width="46.4" stroke-linecap="round" stroke-opacity="0.198" /></g><g transform="rotate(-16.97 1536.0 1536.0)"><path d="M-368.6 1287.2 C -273.4 1342.4, -140.1 1232.5, -51.2 1274.0 C 44.0 1275.5, 177.4 1297.1, 266.2 1218.8 C 361.5 1234.2, 494.8 1344.0, 583.7 1205.1 C 678.9 1180.0, 812.2 1381.8, 901.1 1241.2 C 996.4 1239.8, 1129.7 1335.8, 1218.6 1305.1 C 1313.8 1299.1, 1447.1 1277.6, 1536.0 1358.2 C 1631.2 1376.0, 1764.6 1253.0, 1853.4 1368.2 C 1948.7 1384.2, 2082.0 1226.1, 2170.9 1329.0 C 2266.1 1343.4, 2399.4 1273.0, 2488.3 1264.4 C 2583.6 1258.9, 2716.9 1299.5, 2805.8 1213.6 C 2901.0 1214.4, 3034.3 1329.4, 3123.2 1207.4 C 3218.4 1181.9, 3351.8 1328.0, 3440.6 1249.6" fill="none" stroke="url(#ribbon206)" stroke-width="42.4" stroke-linecap="round" stroke-opacity="0.224" /></g><g transform="rotate(-16.39 1536.0 1536.0)"><path d="M-368.6 1475.7 C -225.8 1435.4, -25.8 1515.0, 107.5 1493.3 C 250.4 1488.6, 450.4 1462.9, 583.7 1551.7 C 726.5 1578.8, 926.5 1387.6, 1059.8 1564.1 C 1202.7 1570.8, 1402.7 1424.4, 1536.0 1522.8 C 1678.8 1532.0, 1878.8 1421.5, 2012.2 1453.0 C 2155.0 1460.5, 2355.0 1495.8, 2488.3 1396.9 C 2631.2 1404.0, 2831.2 1532.3, 2964.5 1388.7 C 3107.3 1418.6, 3307.3 1555.9, 3440.6 1433.2" fill="none" stroke="url(#ribbon206)" stroke-width="38.4" stroke-linecap="round" stroke-opacity="0.250" /></g><g transform="rotate(-15.81 1536.0 1536.0)"><path d="M-368.6 1660.8 C -241.7 1704.6, -63.9 1602.7, 54.6 1634.2 C 181.6 1631.2, 359.4 1680.7, 477.9 1574.8 C 604.8 1599.9, 782.6 1696.2, 901.1 1567.6 C 1028.1 1597.7, 1205.9 1699.0, 1324.4 1617.0 C 1451.3 1600.4, 1629.1 1704.3, 1747.6 1692.9 C 1874.6 1700.9, 2052.4 1645.9, 2170.9 1749.3 C 2297.9 1732.7, 2475.6 1590.3, 2594.1 1752.1 C 2721.1 1782.2, 2898.9 1582.6, 3017.4 1699.5 C 3144.4 1711.4, 3322.1 1636.5, 3440.6 1623.4" fill="none" stroke="url(#ribbon206)" stroke-width="34.4" stroke-linecap="round" stroke-opacity="0.276" /></g><g transform="rotate(-15.23 1536.0 1536.0)"><path d="M-368.6 1858.8 C -254.4 1939.6, -94.4 1837.4, 12.3 1963.4 C 126.6 1965.2, 286.6 1789.4, 393.2 1935.5 C 507.5 1948.2, 667.5 1816.1, 774.1 1861.1 C 888.4 1861.0, 1048.4 1856.0, 1155.1 1785.3 C 1269.4 1787.6, 1429.3 1944.3, 1536.0 1754.0 C 1650.3 1735.7, 1810.3 1896.0, 1916.9 1786.3 C 2031.2 1788.6, 2191.2 1896.8, 2297.9 1862.5 C 2412.1 1862.0, 2572.1 1855.6, 2678.8 1936.5 C 2793.1 1934.7, 2953.1 1789.6, 3059.7 1963.3 C 3174.0 1939.9, 3334.0 1736.5, 3440.6 1926.7" fill="none" stroke="url(#ribbon206)" stroke-width="30.4" stroke-linecap="round" stroke-opacity="0.302" /></g><g transform="rotate(-14.65 1536.0 1536.0)"><path d="M-368.6 2105.9 C -264.8 2168.9, -119.3 2012.6, -22.3 2107.6 C 81.5 2107.3, 227.0 2104.4, 324.0 2026.9 C 427.8 2033.9, 573.3 2168.4, 670.3 1994.1 C 774.1 2001.6, 919.6 2175.5, 1016.6 2029.1 C 1120.4 2040.0, 1265.9 2137.3, 1362.9 2110.6 C 1466.7 2111.9, 1612.2 2100.3, 1709.1 2189.3 C 1813.0 2206.1, 1958.5 2071.9, 2055.4 2217.4 C 2159.3 2257.5, 2304.8 1991.0, 2401.7 2177.8 C 2505.6 2174.1, 2651.1 2055.6, 2748.0 2094.6 C 2851.9 2092.2, 2997.4 2112.6, 3094.3 2018.2 C 3198.2 2029.5, 3343.7 2154.5, 3440.6 1995.0" fill="none" stroke="url(#ribbon206)" stroke-width="26.4" stroke-linecap="round" stroke-opacity="0.328" /></g><g transform="rotate(-14.07 1536.0 1536.0)"><path d="M-368.6 2322.5 C -273.4 2283.0, -140.1 2362.8, -51.2 2213.9 C 44.0 2185.4, 177.4 2368.1, 266.2 2212.1 C 361.5 2182.1, 494.8 2441.9, 583.7 2277.3 C 678.9 2278.1, 812.2 2338.6, 901.1 2369.9 C 996.4 2377.2, 1129.7 2287.7, 1218.6 2433.7 C 1313.8 2456.4, 1447.1 2245.1, 1536.0 2430.1 C 1631.2 2435.2, 1764.6 2245.5, 1853.4 2361.2 C 1948.7 2363.2, 2082.0 2279.3, 2170.9 2268.8 C 2266.1 2247.9, 2399.4 2343.8, 2488.3 2209.0 C 2583.6 2219.2, 2716.9 2426.9, 2805.8 2218.0 C 2901.0 2243.4, 3034.3 2398.9, 3123.2 2290.4 C 3218.4 2289.9, 3351.8 2341.2, 3440.6 2382.3" fill="none" stroke="url(#ribbon206)" stroke-width="22.4" stroke-linecap="round" stroke-opacity="0.354" /></g><g transform="rotate(-13.49 1536.0 1536.0)"><path d="M-368.6 2474.1 C -225.8 2545.3, -25.8 2397.1, 107.5 2492.1 C 250.4 2491.1, 450.4 2455.5, 583.7 2397.2 C 726.5 2419.4, 926.5 2549.0, 1059.8 2349.0 C 1202.7 2384.8, 1402.7 2601.9, 1536.0 2376.6 C 1678.8 2363.2, 1878.8 2553.6, 2012.2 2463.4 C 2155.0 2464.9, 2355.0 2477.7, 2488.3 2556.7 C 2631.2 2550.6, 2831.2 2407.4, 2964.5 2599.9 C 3107.3 2627.5, 3307.3 2416.6, 3440.6 2566.8" fill="none" stroke="url(#ribbon206)" stroke-width="18.4" stroke-linecap="round" stroke-opacity="0.380" /></g><g transform="rotate(-12.91 1536.0 1536.0)"><path d="M-368.6 2606.1 C -241.7 2544.3, -63.9 2633.4, 54.6 2479.0 C 181.6 2481.4, 359.4 2728.8, 477.9 2489.4 C 604.8 2449.4, 782.6 2651.6, 901.1 2570.5 C 1028.1 2574.0, 1205.9 2623.1, 1324.4 2673.2 C 1451.3 2664.0, 1629.1 2585.4, 1747.6 2735.3 C 1874.6 2782.2, 2052.4 2491.3, 2170.9 2718.9 C 2297.9 2702.0, 2475.6 2523.0, 2594.1 2634.2 C 2721.1 2639.6, 2898.9 2592.9, 3017.4 2532.4 C 3144.4 2535.3, 3322.1 2630.0, 3440.6 2475.3" fill="none" stroke="url(#ribbon206)" stroke-width="14.4" stroke-linecap="round" stroke-opacity="0.406" /></g></g>
  <g><ellipse cx="1536.0" cy="1551.9" rx="728.6" ry="605.7" fill="url(#extrude206)" opacity="0.220" /><ellipse cx="1536.0" cy="1567.7" rx="736.0" ry="610.9" fill="url(#extrude206)" opacity="0.205" /><ellipse cx="1536.0" cy="1583.6" rx="743.4" ry="616.1" fill="url(#extrude206)" opacity="0.190" /><ellipse cx="1536.0" cy="1599.5" rx="750.9" ry="621.3" fill="url(#extrude206)" opacity="0.175" /><ellipse cx="1536.0" cy="1615.4" rx="758.3" ry="626.5" fill="url(#extrude206)" opacity="0.160" /><ellipse cx="1536.0" cy="1631.2" rx="765.7" ry="631.7" fill="url(#extrude206)" opacity="0.145" /><ellipse cx="1536.0" cy="1647.1" rx="773.2" ry="636.9" fill="url(#extrude206)" opacity="0.130" /><ellipse cx="1536.0" cy="1663.0" rx="780.6" ry="642.1" fill="url(#extrude206)" opacity="0.115" /><ellipse cx="1536.0" cy="1678.8" rx="788.0" ry="647.4" fill="url(#extrude206)" opacity="0.100" /><ellipse cx="1536.0" cy="1694.7" rx="795.5" ry="652.6" fill="url(#extrude206)" opacity="0.085" /><ellipse cx="1536.0" cy="1710.6" rx="802.9" ry="657.8" fill="url(#extrude206)" opacity="0.070" /><ellipse cx="1536.0" cy="1726.5" rx="810.3" ry="663.0" fill="url(#extrude206)" opacity="0.055" /></g>
  <ellipse cx="1536.0" cy="1726.5" rx="773.2" ry="214.9" fill="#0B1D2D" opacity="0.24" />
  <ellipse cx="1536.0" cy="1536.0" rx="743.4" ry="651.3" fill="url(#orb206)" stroke="#FFFFFF" stroke-opacity="0.42" stroke-width="7" />
  <ellipse cx="1431.9" cy="1392.7" rx="505.5" ry="299.6" fill="#FFFFFF" opacity="0.25" />
  <path d="M 199.4 399.4 C 1013.8 -30.7, 2058.2 768.0, 2872.6 215.0 L 2872.6 983.0 C 2089.0 1228.8, 1013.8 307.2, 199.4 1167.4 Z" fill="url(#glass206)" />
  <rect x="270" y="270" width="2532" height="2532" rx="430" fill="none" stroke="#FFFFFF" stroke-opacity="0.30" stroke-width="5" />
  <rect x="288.4" y="288.4" width="2495.1" height="2495.1" rx="399" fill="none" stroke="#FF6AB3" stroke-opacity="0.35" stroke-width="3" />
  <g filter="url(#soft206)"><rect x="1540" y="2597" width="82" height="2" fill="#FFFFFF" opacity="0.544" /><rect x="1580" y="2557" width="2" height="82" fill="#FFFFFF" opacity="0.544" /><rect x="396" y="1511" width="68" height="2" fill="#FFFFFF" opacity="0.748" /><rect x="429" y="1478" width="2" height="68" fill="#FFFFFF" opacity="0.748" /><rect x="2220" y="1152" width="82" height="2" fill="#FFFFFF" opacity="0.725" /><rect x="2260" y="1112" width="2" height="82" fill="#FFFFFF" opacity="0.725" /><rect x="2576" y="1406" width="60" height="2" fill="#FFFFFF" opacity="0.361" /><rect x="2605" y="1377" width="2" height="60" fill="#FFFFFF" opacity="0.361" /><rect x="1831" y="2360" width="34" height="2" fill="#FFFFFF" opacity="0.307" /><rect x="1847" y="2344" width="2" height="34" fill="#FFFFFF" opacity="0.307" /><rect x="1270" y="316" width="42" height="2" fill="#FFFFFF" opacity="0.507" /><rect x="1290" y="296" width="2" height="42" fill="#FFFFFF" opacity="0.507" /><rect x="1802" y="1353" width="66" height="2" fill="#FFFFFF" opacity="0.327" /><rect x="1834" y="1321" width="2" height="66" fill="#FFFFFF" opacity="0.327" /><rect x="2611" y="542" width="28" height="2" fill="#FFFFFF" opacity="0.816" /><rect x="2624" y="529" width="2" height="28" fill="#FFFFFF" opacity="0.816" /><rect x="2665" y="1459" width="78" height="2" fill="#FFFFFF" opacity="0.463" /><rect x="2703" y="1421" width="2" height="78" fill="#FFFFFF" opacity="0.463" /><rect x="1736" y="2684" width="76" height="2" fill="#FFFFFF" opacity="0.681" /><rect x="1773" y="2647" width="2" height="76" fill="#FFFFFF" opacity="0.681" /><rect x="1797" y="2009" width="64" height="2" fill="#FFFFFF" opacity="0.531" /><rect x="1828" y="1978" width="2" height="64" fill="#FFFFFF" opacity="0.531" /><rect x="1982" y="1715" width="42" height="2" fill="#FFFFFF" opacity="0.506" /><rect x="2002" y="1695" width="2" height="42" fill="#FFFFFF" opacity="0.506" /><rect x="2214" y="1413" width="38" height="2" fill="#FFFFFF" opacity="0.658" /><rect x="2232" y="1395" width="2" height="38" fill="#FFFFFF" opacity="0.658" /><rect x="1777" y="841" width="26" height="2" fill="#FFFFFF" opacity="0.514" /><rect x="1789" y="829" width="2" height="26" fill="#FFFFFF" opacity="0.514" /><rect x="1948" y="389" width="80" height="2" fill="#FFFFFF" opacity="0.649" /><rect x="1987" y="350" width="2" height="80" fill="#FFFFFF" opacity="0.649" /><rect x="348" y="322" width="30" height="2" fill="#FFFFFF" opacity="0.412" /><rect x="362" y="308" width="2" height="30" fill="#FFFFFF" opacity="0.412" /><rect x="2009" y="320" width="48" height="2" fill="#FFFFFF" opacity="0.774" /><rect x="2032" y="297" width="2" height="48" fill="#FFFFFF" opacity="0.774" /><rect x="1484" y="1580" width="34" height="2" fill="#FFFFFF" opacity="0.463" /><rect x="1500" y="1564" width="2" height="34" fill="#FFFFFF" opacity="0.463" /><rect x="2165" y="1758" width="40" height="2" fill="#FFFFFF" opacity="0.660" /><rect x="2184" y="1739" width="2" height="40" fill="#FFFFFF" opacity="0.660" /><rect x="469" y="1367" width="44" height="2" fill="#FFFFFF" opacity="0.676" /><rect x="490" y="1346" width="2" height="44" fill="#FFFFFF" opacity="0.676" /><rect x="437" y="573" width="26" height="2" fill="#FFFFFF" opacity="0.691" /><rect x="449" y="561" width="2" height="26" fill="#FFFFFF" opacity="0.691" /><rect x="2089" y="1226" width="28" height="2" fill="#FFFFFF" opacity="0.848" /><rect x="2102" y="1213" width="2" height="28" fill="#FFFFFF" opacity="0.848" /><rect x="677" y="1894" width="30" height="2" fill="#FFFFFF" opacity="0.421" /><rect x="691" y="1880" width="2" height="30" fill="#FFFFFF" opacity="0.421" /><rect x="1529" y="1982" width="66" height="2" fill="#FFFFFF" opacity="0.365" /><rect x="1561" y="1950" width="2" height="66" fill="#FFFFFF" opacity="0.365" /><rect x="893" y="1455" width="50" height="2" fill="#FFFFFF" opacity="0.593" /><rect x="917" y="1431" width="2" height="50" fill="#FFFFFF" opacity="0.593" /><rect x="1540" y="910" width="74" height="2" fill="#FFFFFF" opacity="0.518" /><rect x="1576" y="874" width="2" height="74" fill="#FFFFFF" opacity="0.518" /></g>
  <g opacity="0.52"><path d="M996 1582 L1316 2131 L2148 1121" fill="none" stroke="#0C2030" stroke-width="90" stroke-linecap="round" stroke-linejoin="round" /><circle cx="996" cy="1582" r="47" fill="#0C2030" /><circle cx="1316" cy="2131" r="47" fill="#0C2030" /><circle cx="2148" cy="1121" r="47" fill="#0C2030" /></g>
  <g filter="url(#soft206)"><path d="M960 1536 L1280 2085 L2112 1075" fill="none" stroke="url(#symbol206)" stroke-width="90" stroke-linecap="round" stroke-linejoin="round" /><circle cx="960" cy="1536" r="47" fill="url(#symbol206)" /><circle cx="1280" cy="2085" r="47" fill="url(#symbol206)" /><circle cx="2112" cy="1075" r="47" fill="url(#symbol206)" /></g>
  <rect x="138" y="138" width="2796" height="2796" rx="629" fill="#FFFFFF" filter="url(#grain206)" opacity="0.18" />
</svg>
