<svg xmlns="http://www.w3.org/2000/svg" width="3072" height="3072" viewBox="0 0 3072 3072">
  <title>QuartzOS App Icon 347 - pixel_designer_347</title>
  <defs><linearGradient id="bg346" x1="0%" y1="0%" x2="100%" y2="100%"><stop offset="0%" stop-color="#FF6AB3" /><stop offset="26%" stop-color="#FFD84D" /><stop offset="56%" stop-color="#36D1FF" /><stop offset="78%" stop-color="#58A3D8" /><stop offset="100%" stop-color="#1D2F45" /></linearGradient><radialGradient id="sun346" cx="25%" cy="25%" r="88%"><stop offset="0%" stop-color="#FFFFFF" stop-opacity="0.62" /><stop offset="30%" stop-color="#3B82FF" stop-opacity="0.35" /><stop offset="100%" stop-color="#3B82FF" stop-opacity="0" /></radialGradient><linearGradient id="glass346" x1="0%" y1="0%" x2="0%" y2="100%"><stop offset="0%" stop-color="#FFFFFF" stop-opacity="0.70" /><stop offset="46%" stop-color="#FFFFFF" stop-opacity="0.26" /><stop offset="100%" stop-color="#FFFFFF" stop-opacity="0.00" /></linearGradient><linearGradient id="ribbon346" x1="0%" y1="0%" x2="100%" y2="0%"><stop offset="0%" stop-color="#FF6AB3" stop-opacity="0.18" /><stop offset="34%" stop-color="#FFD84D" stop-opacity="0.72" /><stop offset="66%" stop-color="#36D1FF" stop-opacity="0.72" /><stop offset="100%" stop-color="#3B82FF" stop-opacity="0.18" /></linearGradient><radialGradient id="orb346" cx="34%" cy="27%" r="74%"><stop offset="0%" stop-color="#FFFFFF" stop-opacity="0.84" /><stop offset="30%" stop-color="#FF6AB3" stop-opacity="0.52" /><stop offset="68%" stop-color="#FFD84D" stop-opacity="0.42" /><stop offset="100%" stop-color="#36D1FF" stop-opacity="0.20" /></radialGradient><linearGradient id="extrude346" x1="0%" y1="0%" x2="0%" y2="100%"><stop offset="0%" stop-color="#15283C" stop-opacity="0.45" /><stop offset="100%" stop-color="#08131D" stop-opacity="0.06" /></linearGradient><linearGradient id="symbol346" x1="0%" y1="0%" x2="100%" y2="100%"><stop offset="0%" stop-color="#FFFFFF" /><stop offset="100%" stop-color="#3B82FF" /></linearGradient><filter id="shadow346" x="-40%" y="-40%" width="180%" height="180%"><feDropShadow dx="0" dy="49" stdDeviation="86" flood-color="#06111A" flood-opacity="0.54" /></filter><filter id="soft346" x="-40%" y="-40%" width="180%" height="180%"><feDropShadow dx="0" dy="0" stdDeviation="14" flood-color="#FF6AB3" flood-opacity="0.45" /></filter><filter id="grain346"><feTurbulence type="fractalNoise" baseFrequency="0.952" numOctaves="2" seed="346" /><feColorMatrix type="saturate" values="0" /><feComponentTransfer><feFuncA type="table" tableValues="0 0.09" /></feComponentTransfer></filter></defs>
  <rect x="138" y="138" width="2796" height="2796" rx="629" fill="url(#bg346)" filter="url(#shadow346)" />
  <rect x="138" y="138" width="2796" height="2796" rx="629" fill="url(#sun346)" />
  <g><circle cx="1433" cy="811" r="46" fill="#FFFFFF" opacity="0.122" /><circle cx="883" cy="337" r="91" fill="#FFFFFF" opacity="0.236" /><circle cx="1843" cy="1460" r="73" fill="#FFFFFF" opacity="0.072" /><circle cx="2224" cy="761" r="127" fill="#FFFFFF" opacity="0.232" /><circle cx="924" cy="1998" r="82" fill="#FFFFFF" opacity="0.107" /><circle cx="1454" cy="621" r="131" fill="#FFFFFF" opacity="0.192" /><circle cx="755" cy="1932" r="159" fill="#FFFFFF" opacity="0.153" /><circle cx="1475" cy="1209" r="58" fill="#FFFFFF" opacity="0.068" /><circle cx="2505" cy="838" r="95" fill="#FFFFFF" opacity="0.067" /><circle cx="2545" cy="1166" r="148" fill="#FFFFFF" opacity="0.109" /><circle cx="673" cy="592" r="136" fill="#FFFFFF" opacity="0.074" /><circle cx="1851" cy="2684" r="149" fill="#FFFFFF" opacity="0.207" /><circle cx="825" cy="2367" r="85" fill="#FFFFFF" opacity="0.188" /><circle cx="2557" cy="481" r="75" fill="#FFFFFF" opacity="0.202" /><circle cx="2448" cy="772" r="67" fill="#FFFFFF" opacity="0.220" /><circle cx="1992" cy="1484" r="57" fill="#FFFFFF" opacity="0.228" /><circle cx="639" cy="1511" r="132" fill="#FFFFFF" opacity="0.213" /><circle cx="990" cy="924" r="138" fill="#FFFFFF" opacity="0.236" /><circle cx="1937" cy="2650" r="61" fill="#FFFFFF" opacity="0.201" /><circle cx="1708" cy="1121" r="135" fill="#FFFFFF" opacity="0.094" /><circle cx="615" cy="1794" r="89" fill="#FFFFFF" opacity="0.217" /><circle cx="920" cy="1062" r="66" fill="#FFFFFF" opacity="0.119" /><circle cx="1819" cy="410" r="103" fill="#FFFFFF" opacity="0.167" /><circle cx="2126" cy="2297" r="149" fill="#FFFFFF" opacity="0.213" /><circle cx="479" cy="523" r="147" fill="#FFFFFF" opacity="0.125" /><circle cx="2142" cy="2416" r="141" fill="#FFFFFF" opacity="0.142" /><circle cx="2405" cy="955" r="119" fill="#FFFFFF" opacity="0.146" /><circle cx="1163" cy="2445" r="86" fill="#FFFFFF" opacity="0.230" /></g>
  <g><path d="M 147.5 599.7 L 2694.4 323.2 L 2694.4 770.7 L 147.5 1047.2 Z" fill="#FFFFFF" opacity="0.145" /><path d="M 155.5 887.6 L 2774.4 611.1 L 2774.4 1077.3 L 155.5 1353.8 Z" fill="#FFFFFF" opacity="0.186" /><path d="M 198.5 1094.8 L 2711.9 818.3 L 2711.9 1308.5 L 198.5 1584.9 Z" fill="#FFFFFF" opacity="0.162" /><path d="M 383.7 1406.1 L 2795.7 1129.6 L 2795.7 1599.0 L 383.7 1875.4 Z" fill="#FFFFFF" opacity="0.199" /><path d="M 172.1 1655.7 L 2874.3 1379.2 L 2874.3 1868.8 L 172.1 2145.3 Z" fill="#FFFFFF" opacity="0.098" /><path d="M 344.7 1888.9 L 2807.3 1612.4 L 2807.3 2084.4 L 344.7 2360.9 Z" fill="#FFFFFF" opacity="0.162" /><path d="M 219.5 2171.0 L 2810.7 1894.6 L 2810.7 2349.8 L 219.5 2626.3 Z" fill="#FFFFFF" opacity="0.210" /><path d="M 149.3 2433.9 L 2801.0 2157.4 L 2801.0 2601.6 L 149.3 2878.1 Z" fill="#FFFFFF" opacity="0.210" /></g>
  <g filter="url(#soft346)"><g transform="rotate(-6.74 1536.0 1536.0)"><path d="M-368.6 516.1 C -225.8 565.7, -25.8 483.3, 107.5 546.3 C 250.4 544.6, 450.4 488.6, 583.7 503.9 C 726.5 506.1, 926.5 523.9, 1059.8 468.9 C 1202.7 465.2, 1402.7 560.5, 1536.0 462.5 C 1678.8 452.9, 1878.8 578.1, 2012.2 488.6 C 2155.0 488.6, 2355.0 539.3, 2488.3 531.4 C 2631.2 529.2, 2831.2 503.9, 2964.5 564.9 C 3107.3 575.5, 3307.3 475.6, 3440.6 568.8" fill="none" stroke="url(#ribbon346)" stroke-width="58.4" stroke-linecap="round" stroke-opacity="0.120" /></g><g transform="rotate(-6.16 1536.0 1536.0)"><path d="M-368.6 699.9 C -241.7 741.1, -63.9 682.6, 54.6 709.1 C 181.6 711.0, 359.4 692.3, 477.9 662.0 C 604.8 648.6, 782.6 713.3, 901.1 638.0 C 1028.1 624.9, 1205.9 725.2, 1324.4 651.5 C 1451.3 667.3, 1629.1 753.5, 1747.6 694.4 C 1874.6 695.3, 2052.4 702.4, 2170.9 740.6 C 2297.9 748.6, 2475.6 681.2, 2594.1 762.2 C 2721.1 781.2, 2898.9 631.6, 3017.4 745.9 C 3144.4 739.5, 3322.1 653.9, 3440.6 701.8" fill="none" stroke="url(#ribbon346)" stroke-width="54.4" stroke-linecap="round" stroke-opacity="0.146" /></g><g transform="rotate(-5.58 1536.0 1536.0)"><path d="M-368.6 891.4 C -254.4 939.4, -94.4 857.1, 12.3 959.4 C 126.6 966.7, 286.6 852.3, 393.2 948.8 C 507.5 942.1, 667.5 855.0, 774.1 903.4 C 888.4 904.0, 1048.4 886.8, 1155.1 850.7 C 1269.4 861.4, 1429.3 918.1, 1536.0 822.7 C 1650.3 820.0, 1810.3 919.8, 1916.9 836.3 C 2031.2 839.7, 2191.2 923.3, 2297.9 883.4 C 2412.1 885.0, 2572.1 898.7, 2678.8 935.3 C 2793.1 945.6, 2953.1 874.4, 3059.7 960.5 C 3174.0 976.9, 3334.0 850.0, 3440.6 943.8" fill="none" stroke="url(#ribbon346)" stroke-width="50.4" stroke-linecap="round" stroke-opacity="0.172" /></g><g transform="rotate(-5.00 1536.0 1536.0)"><path d="M-368.6 1077.8 C -264.8 1027.4, -119.3 1099.7, -22.3 1001.7 C 81.5 980.5, 227.0 1104.3, 324.0 1030.8 C 427.8 1031.0, 573.3 1105.0, 670.3 1088.4 C 774.1 1090.1, 919.6 1066.8, 1016.6 1139.5 C 1120.4 1144.7, 1265.9 1051.5, 1362.9 1153.2 C 1466.7 1129.2, 1612.2 1052.0, 1709.1 1121.1 C 1813.0 1116.5, 1958.5 1060.1, 2055.4 1062.8 C 2159.3 1061.0, 2304.8 1086.6, 2401.7 1013.5 C 2505.6 1023.3, 2651.1 1120.9, 2748.0 1003.2 C 2851.9 1010.0, 2997.4 1166.3, 3094.3 1038.2 C 3198.2 1033.1, 3343.7 1118.3, 3440.6 1097.1" fill="none" stroke="url(#ribbon346)" stroke-width="46.4" stroke-linecap="round" stroke-opacity="0.198" /></g><g transform="rotate(-4.42 1536.0 1536.0)"><path d="M-368.6 1291.1 C -273.4 1181.7, -140.1 1333.9, -51.2 1238.4 C 44.0 1223.7, 177.4 1311.2, 266.2 1300.9 C 361.5 1300.5, 494.8 1281.5, 583.7 1357.5 C 678.9 1368.0, 812.2 1234.6, 901.1 1373.7 C 996.4 1356.6, 1129.7 1199.3, 1218.6 1339.8 C 1313.8 1320.8, 1447.1 1249.4, 1536.0 1276.4 C 1631.2 1280.8, 1764.6 1297.6, 1853.4 1221.8 C 1948.7 1199.5, 2082.0 1340.2, 2170.9 1209.3 C 2266.1 1233.2, 2399.4 1377.7, 2488.3 1246.4 C 2583.6 1241.6, 2716.9 1310.9, 2805.8 1310.6 C 2901.0 1308.9, 3034.3 1276.2, 3123.2 1362.9 C 3218.4 1338.5, 3351.8 1215.8, 3440.6 1371.7" fill="none" stroke="url(#ribbon346)" stroke-width="42.4" stroke-linecap="round" stroke-opacity="0.224" /></g><g transform="rotate(-3.84 1536.0 1536.0)"><path d="M-368.6 1434.4 C -225.8 1417.2, -25.8 1448.8, 107.5 1484.9 C 250.4 1480.4, 450.4 1410.9, 583.7 1523.6 C 726.5 1490.8, 926.5 1357.8, 1059.8 1508.2 C 1202.7 1493.5, 1402.7 1348.7, 1536.0 1448.0 C 1678.8 1446.8, 1878.8 1429.0, 2012.2 1379.6 C 2155.0 1392.4, 2355.0 1450.9, 2488.3 1344.5 C 2631.2 1338.2, 2831.2 1461.6, 2964.5 1363.9 C 3107.3 1379.6, 3307.3 1500.7, 3440.6 1426.1" fill="none" stroke="url(#ribbon346)" stroke-width="38.4" stroke-linecap="round" stroke-opacity="0.250" /></g><g transform="rotate(-3.26 1536.0 1536.0)"><path d="M-368.6 1676.2 C -241.7 1652.7, -63.9 1699.8, 54.6 1731.0 C 181.6 1728.3, 359.4 1611.9, 477.9 1772.4 C 604.8 1762.8, 782.6 1579.1, 901.1 1755.4 C 1028.1 1736.9, 1205.9 1632.0, 1324.4 1690.3 C 1451.3 1693.4, 1629.1 1670.3, 1747.6 1616.7 C 1874.6 1639.6, 2052.4 1715.7, 2170.9 1579.1 C 2297.9 1609.2, 2475.6 1789.3, 2594.1 1600.4 C 2721.1 1623.1, 2898.9 1734.9, 3017.4 1667.7 C 3144.4 1667.7, 3322.1 1679.4, 3440.6 1740.1" fill="none" stroke="url(#ribbon346)" stroke-width="34.4" stroke-linecap="round" stroke-opacity="0.276" /></g><g transform="rotate(-2.68 1536.0 1536.0)"><path d="M-368.6 1822.0 C -254.4 1745.7, -94.4 1929.4, 12.3 1745.1 C 126.6 1766.9, 286.6 1852.1, 393.2 1819.4 C 507.5 1820.0, 667.5 1823.3, 774.1 1895.3 C 888.4 1921.9, 1048.4 1790.6, 1155.1 1926.7 C 1269.4 1906.0, 1429.3 1757.2, 1536.0 1894.6 C 1650.3 1882.5, 1810.3 1761.4, 1916.9 1818.5 C 2031.2 1818.8, 2191.2 1824.3, 2297.9 1744.4 C 2412.1 1772.9, 2572.1 1865.4, 2678.8 1717.4 C 2793.1 1751.5, 2953.1 1930.4, 3059.7 1753.9 C 3174.0 1779.3, 3334.0 1877.7, 3440.6 1831.6" fill="none" stroke="url(#ribbon346)" stroke-width="30.4" stroke-linecap="round" stroke-opacity="0.302" /></g><g transform="rotate(-2.10 1536.0 1536.0)"><path d="M-368.6 2025.2 C -264.8 2088.8, -119.3 1969.4, -22.3 2134.7 C 81.5 2148.7, 227.0 1955.2, 324.0 2117.7 C 427.8 2115.2, 573.3 1917.7, 670.3 2044.6 C 774.1 2049.4, 919.6 2013.0, 1016.6 1959.7 C 1120.4 1955.7, 1265.9 2081.6, 1362.9 1914.5 C 1466.7 1887.9, 1612.2 2060.0, 1709.1 1936.5 C 1813.0 1950.7, 1958.5 2124.8, 2055.4 2012.2 C 2159.3 2016.7, 2304.8 2029.8, 2401.7 2095.8 C 2505.6 2095.3, 2651.1 1971.9, 2748.0 2136.6 C 2851.9 2105.8, 2997.4 1947.4, 3094.3 2109.8 C 3198.2 2121.6, 3343.7 1971.3, 3440.6 2031.6" fill="none" stroke="url(#ribbon346)" stroke-width="26.4" stroke-linecap="round" stroke-opacity="0.328" /></g><g transform="rotate(-1.52 1536.0 1536.0)"><path d="M-368.6 2226.2 C -273.4 2205.9, -140.1 2247.8, -51.2 2297.8 C 44.0 2290.7, 177.4 2201.6, 266.2 2344.2 C 361.5 2369.9, 494.8 2183.8, 583.7 2319.0 C 678.9 2332.5, 812.2 2192.1, 901.1 2237.5 C 996.4 2237.9, 1129.7 2217.7, 1218.6 2149.2 C 1313.8 2138.5, 1447.1 2315.2, 1536.0 2107.6 C 1631.2 2131.0, 1764.6 2275.5, 1853.4 2137.9 C 1948.7 2155.0, 2082.0 2320.9, 2170.9 2221.9 C 2266.1 2220.5, 2399.4 2229.1, 2488.3 2308.4 C 2583.6 2319.8, 2716.9 2195.6, 2805.8 2345.1 C 2901.0 2344.6, 3034.3 2160.1, 3123.2 2309.7 C 3218.4 2282.3, 3351.8 2148.2, 3440.6 2223.6" fill="none" stroke="url(#ribbon346)" stroke-width="22.4" stroke-linecap="round" stroke-opacity="0.354" /></g><g transform="rotate(-0.94 1536.0 1536.0)"><path d="M-368.6 2469.8 C -225.8 2342.4, -25.8 2543.5, 107.5 2358.9 C 250.4 2345.0, 450.4 2561.4, 583.7 2435.3 C 726.5 2438.8, 926.5 2490.3, 1059.8 2532.6 C 1202.7 2527.4, 1402.7 2435.6, 1536.0 2591.9 C 1678.8 2605.6, 1878.8 2339.0, 2012.2 2577.1 C 2155.0 2580.5, 2355.0 2370.9, 2488.3 2497.3 C 2631.2 2491.0, 2831.2 2455.2, 2964.5 2400.8 C 3107.3 2405.7, 3307.3 2537.1, 3440.6 2346.2" fill="none" stroke="url(#ribbon346)" stroke-width="18.4" stroke-linecap="round" stroke-opacity="0.380" /></g><g transform="rotate(-0.36 1536.0 1536.0)"><path d="M-368.6 2708.6 C -241.7 2811.0, -63.9 2586.2, 54.6 2828.7 C 181.6 2860.8, 359.4 2625.0, 477.9 2751.3 C 604.8 2751.2, 782.6 2662.1, 901.1 2648.0 C 1028.1 2642.5, 1205.9 2768.5, 1324.4 2581.4 C 1451.3 2548.9, 1629.1 2842.6, 1747.6 2592.0 C 1874.6 2632.1, 2052.4 2830.0, 2170.9 2673.3 C 2297.9 2676.7, 2475.6 2734.6, 2594.1 2776.0 C 2721.1 2802.8, 2898.9 2675.4, 3017.4 2837.8 C 3144.4 2812.2, 3322.1 2567.6, 3440.6 2821.3" fill="none" stroke="url(#ribbon346)" stroke-width="14.4" stroke-linecap="round" stroke-opacity="0.406" /></g></g>
  <g><ellipse cx="1536.0" cy="1551.9" rx="728.6" ry="605.7" fill="url(#extrude346)" opacity="0.220" /><ellipse cx="1536.0" cy="1567.7" rx="736.0" ry="610.9" fill="url(#extrude346)" opacity="0.205" /><ellipse cx="1536.0" cy="1583.6" rx="743.4" ry="616.1" fill="url(#extrude346)" opacity="0.190" /><ellipse cx="1536.0" cy="1599.5" rx="750.9" ry="621.3" fill="url(#extrude346)" opacity="0.175" /><ellipse cx="1536.0" cy="1615.4" rx="758.3" ry="626.5" fill="url(#extrude346)" opacity="0.160" /><ellipse cx="1536.0" cy="1631.2" rx="765.7" ry="631.7" fill="url(#extrude346)" opacity="0.145" /><ellipse cx="1536.0" cy="1647.1" rx="773.2" ry="636.9" fill="url(#extrude346)" opacity="0.130" /><ellipse cx="1536.0" cy="1663.0" rx="780.6" ry="642.1" fill="url(#extrude346)" opacity="0.115" /><ellipse cx="1536.0" cy="1678.8" rx="788.0" ry="647.4" fill="url(#extrude346)" opacity="0.100" /><ellipse cx="1536.0" cy="1694.7" rx="795.5" ry="652.6" fill="url(#extrude346)" opacity="0.085" /><ellipse cx="1536.0" cy="1710.6" rx="802.9" ry="657.8" fill="url(#extrude346)" opacity="0.070" /><ellipse cx="1536.0" cy="1726.5" rx="810.3" ry="663.0" fill="url(#extrude346)" opacity="0.055" /></g>
  <ellipse cx="1536.0" cy="1726.5" rx="773.2" ry="214.9" fill="#0B1D2D" opacity="0.24" />
  <ellipse cx="1536.0" cy="1536.0" rx="743.4" ry="651.3" fill="url(#orb346)" stroke="#FFFFFF" stroke-opacity="0.42" stroke-width="7" />
  <ellipse cx="1431.9" cy="1392.7" rx="505.5" ry="299.6" fill="#FFFFFF" opacity="0.25" />
  <path d="M 199.4 399.4 C 1013.8 -30.7, 2058.2 768.0, 2872.6 215.0 L 2872.6 983.0 C 2089.0 1228.8, 1013.8 307.2, 199.4 1167.4 Z" fill="url(#glass346)" />
  <rect x="270" y="270" width="2532" height="2532" rx="430" fill="none" stroke="#FFFFFF" stroke-opacity="0.30" stroke-width="5" />
  <rect x="288.4" y="288.4" width="2495.1" height="2495.1" rx="399" fill="none" stroke="#FF6AB3" stroke-opacity="0.35" stroke-width="3" />
  <g filter="url(#soft346)"><rect x="788" y="441" width="62" height="2" fill="#FFFFFF" opacity="0.848" /><rect x="818" y="411" width="2" height="62" fill="#FFFFFF" opacity="0.848" /><rect x="1871" y="2488" width="80" height="2" fill="#FFFFFF" opacity="0.448" /><rect x="1910" y="2449" width="2" height="80" fill="#FFFFFF" opacity="0.448" /><rect x="507" y="1082" width="48" height="2" fill="#FFFFFF" opacity="0.581" /><rect x="530" y="1059" width="2" height="48" fill="#FFFFFF" opacity="0.581" /><rect x="749" y="1196" width="40" height="2" fill="#FFFFFF" opacity="0.823" /><rect x="768" y="1177" width="2" height="40" fill="#FFFFFF" opacity="0.823" /><rect x="1822" y="2748" width="28" height="2" fill="#FFFFFF" opacity="0.546" /><rect x="1835" y="2735" width="2" height="28" fill="#FFFFFF" opacity="0.546" /><rect x="2232" y="479" width="74" height="2" fill="#FFFFFF" opacity="0.349" /><rect x="2268" y="443" width="2" height="74" fill="#FFFFFF" opacity="0.349" /><rect x="1336" y="1817" width="62" height="2" fill="#FFFFFF" opacity="0.712" /><rect x="1366" y="1787" width="2" height="62" fill="#FFFFFF" opacity="0.712" /><rect x="2096" y="2628" width="50" height="2" fill="#FFFFFF" opacity="0.473" /><rect x="2120" y="2604" width="2" height="50" fill="#FFFFFF" opacity="0.473" /><rect x="394" y="2456" width="76" height="2" fill="#FFFFFF" opacity="0.657" /><rect x="431" y="2419" width="2" height="76" fill="#FFFFFF" opacity="0.657" /><rect x="1373" y="389" width="78" height="2" fill="#FFFFFF" opacity="0.584" /><rect x="1411" y="351" width="2" height="78" fill="#FFFFFF" opacity="0.584" /><rect x="922" y="1522" width="48" height="2" fill="#FFFFFF" opacity="0.302" /><rect x="945" y="1499" width="2" height="48" fill="#FFFFFF" opacity="0.302" /><rect x="2257" y="1613" width="82" height="2" fill="#FFFFFF" opacity="0.414" /><rect x="2297" y="1573" width="2" height="82" fill="#FFFFFF" opacity="0.414" /><rect x="2118" y="1309" width="56" height="2" fill="#FFFFFF" opacity="0.401" /><rect x="2145" y="1282" width="2" height="56" fill="#FFFFFF" opacity="0.401" /><rect x="1945" y="1153" width="54" height="2" fill="#FFFFFF" opacity="0.547" /><rect x="1971" y="1127" width="2" height="54" fill="#FFFFFF" opacity="0.547" /><rect x="580" y="2317" width="78" height="2" fill="#FFFFFF" opacity="0.590" /><rect x="618" y="2279" width="2" height="78" fill="#FFFFFF" opacity="0.590" /><rect x="2506" y="788" width="32" height="2" fill="#FFFFFF" opacity="0.482" /><rect x="2521" y="773" width="2" height="32" fill="#FFFFFF" opacity="0.482" /><rect x="1151" y="1209" width="78" height="2" fill="#FFFFFF" opacity="0.499" /><rect x="1189" y="1171" width="2" height="78" fill="#FFFFFF" opacity="0.499" /><rect x="1397" y="1590" width="82" height="2" fill="#FFFFFF" opacity="0.317" /><rect x="1437" y="1550" width="2" height="82" fill="#FFFFFF" opacity="0.317" /><rect x="873" y="1521" width="24" height="2" fill="#FFFFFF" opacity="0.620" /><rect x="884" y="1510" width="2" height="24" fill="#FFFFFF" opacity="0.620" /><rect x="482" y="1491" width="84" height="2" fill="#FFFFFF" opacity="0.527" /><rect x="523" y="1450" width="2" height="84" fill="#FFFFFF" opacity="0.527" /><rect x="1355" y="1859" width="80" height="2" fill="#FFFFFF" opacity="0.733" /><rect x="1394" y="1820" width="2" height="80" fill="#FFFFFF" opacity="0.733" /><rect x="477" y="561" width="42" height="2" fill="#FFFFFF" opacity="0.416" /><rect x="497" y="541" width="2" height="42" fill="#FFFFFF" opacity="0.416" /><rect x="2153" y="1887" width="42" height="2" fill="#FFFFFF" opacity="0.848" /><rect x="2173" y="1867" width="2" height="42" fill="#FFFFFF" opacity="0.848" /><rect x="1388" y="1405" width="36" height="2" fill="#FFFFFF" opacity="0.720" /><rect x="1405" y="1388" width="2" height="36" fill="#FFFFFF" opacity="0.720" /><rect x="1849" y="916" width="62" height="2" fill="#FFFFFF" opacity="0.801" /><rect x="1879" y="886" width="2" height="62" fill="#FFFFFF" opacity="0.801" /><rect x="1298" y="2164" width="26" height="2" fill="#FFFFFF" opacity="0.469" /><rect x="1310" y="2152" width="2" height="26" fill="#FFFFFF" opacity="0.469" /></g>
  <g opacity="0.52"><path d="M996 1582 C1316 1006, 1572 2158, 2148 1582" fill="none" stroke="#0C2030" stroke-width="90" /><circle cx="1188" cy="1582" r="109" fill="#0C2030" /><circle cx="1572" cy="1582" r="109" fill="#0C2030" /><circle cx="1956" cy="1582" r="109" fill="#0C2030" /></g>
  <g filter="url(#soft346)"><path d="M960 1536 C1280 960, 1536 2112, 2112 1536" fill="none" stroke="url(#symbol346)" stroke-width="90" /><circle cx="1152" cy="1536" r="109" fill="url(#symbol346)" /><circle cx="1536" cy="1536" r="109" fill="url(#symbol346)" /><circle cx="1920" cy="1536" r="109" fill="url(#symbol346)" /></g>
  <rect x="138" y="138" width="2796" height="2796" rx="629" fill="#FFFFFF" filter="url(#grain346)" opacity="0.18" />
</svg>
