<svg xmlns="http://www.w3.org/2000/svg" width="3072" height="3072" viewBox="0 0 3072 3072">
  <title>QuartzOS App Icon 047 - pixel_board_047</title>
  <defs><linearGradient id="bg46" x1="0%" y1="0%" x2="100%" y2="100%"><stop offset="0%" stop-color="#FF9F43" /><stop offset="26%" stop-color="#53E3A6" /><stop offset="56%" stop-color="#3B82FF" /><stop offset="78%" stop-color="#58A3D8" /><stop offset="100%" stop-color="#1D2F45" /></linearGradient><radialGradient id="sun46" cx="28%" cy="36%" r="88%"><stop offset="0%" stop-color="#FFFFFF" stop-opacity="0.62" /><stop offset="30%" stop-color="#8A5CFF" stop-opacity="0.35" /><stop offset="100%" stop-color="#8A5CFF" stop-opacity="0" /></radialGradient><linearGradient id="glass46" x1="0%" y1="0%" x2="0%" y2="100%"><stop offset="0%" stop-color="#FFFFFF" stop-opacity="0.70" /><stop offset="46%" stop-color="#FFFFFF" stop-opacity="0.26" /><stop offset="100%" stop-color="#FFFFFF" stop-opacity="0.00" /></linearGradient><linearGradient id="ribbon46" x1="0%" y1="0%" x2="100%" y2="0%"><stop offset="0%" stop-color="#FF9F43" stop-opacity="0.18" /><stop offset="34%" stop-color="#53E3A6" stop-opacity="0.72" /><stop offset="66%" stop-color="#3B82FF" stop-opacity="0.72" /><stop offset="100%" stop-color="#8A5CFF" stop-opacity="0.18" /></linearGradient><radialGradient id="orb46" cx="34%" cy="27%" r="74%"><stop offset="0%" stop-color="#FFFFFF" stop-opacity="0.84" /><stop offset="30%" stop-color="#FF9F43" stop-opacity="0.52" /><stop offset="68%" stop-color="#53E3A6" stop-opacity="0.42" /><stop offset="100%" stop-color="#3B82FF" stop-opacity="0.20" /></radialGradient><linearGradient id="extrude46" x1="0%" y1="0%" x2="0%" y2="100%"><stop offset="0%" stop-color="#15283C" stop-opacity="0.45" /><stop offset="100%" stop-color="#08131D" stop-opacity="0.06" /></linearGradient><linearGradient id="symbol46" x1="0%" y1="0%" x2="100%" y2="100%"><stop offset="0%" stop-color="#FFFFFF" /><stop offset="100%" stop-color="#8A5CFF" /></linearGradient><filter id="shadow46" x="-40%" y="-40%" width="180%" height="180%"><feDropShadow dx="0" dy="49" stdDeviation="86" flood-color="#06111A" flood-opacity="0.54" /></filter><filter id="soft46" x="-40%" y="-40%" width="180%" height="180%"><feDropShadow dx="0" dy="0" stdDeviation="14" flood-color="#FF9F43" flood-opacity="0.45" /></filter><filter id="grain46"><feTurbulence type="fractalNoise" baseFrequency="1.065" numOctaves="2" seed="46" /><feColorMatrix type="saturate" values="0" /><feComponentTransfer><feFuncA type="table" tableValues="0 0.09" /></feComponentTransfer></filter></defs>
  <rect x="138" y="138" width="2796" height="2796" rx="629" fill="url(#bg46)" filter="url(#shadow46)" />
  <rect x="138" y="138" width="2796" height="2796" rx="629" fill="url(#sun46)" />
  <g><circle cx="646" cy="725" r="118" fill="#FFFFFF" opacity="0.228" /><circle cx="667" cy="1700" r="132" fill="#FFFFFF" opacity="0.177" /><circle cx="2464" cy="1065" r="113" fill="#FFFFFF" opacity="0.090" /><circle cx="1984" cy="2122" r="95" fill="#FFFFFF" opacity="0.186" /><circle cx="2373" cy="550" r="120" fill="#FFFFFF" opacity="0.223" /><circle cx="1239" cy="936" r="73" fill="#FFFFFF" opacity="0.171" /><circle cx="927" cy="1390" r="50" fill="#FFFFFF" opacity="0.112" /><circle cx="1293" cy="2158" r="77" fill="#FFFFFF" opacity="0.163" /><circle cx="392" cy="1277" r="90" fill="#FFFFFF" opacity="0.197" /><circle cx="1081" cy="808" r="42" fill="#FFFFFF" opacity="0.239" /><circle cx="1099" cy="2288" r="116" fill="#FFFFFF" opacity="0.157" /><circle cx="801" cy="1764" r="117" fill="#FFFFFF" opacity="0.139" /><circle cx="2619" cy="2557" r="48" fill="#FFFFFF" opacity="0.133" /><circle cx="2571" cy="2233" r="151" fill="#FFFFFF" opacity="0.200" /><circle cx="410" cy="1875" r="136" fill="#FFFFFF" opacity="0.206" /><circle cx="1902" cy="2510" r="117" fill="#FFFFFF" opacity="0.193" /><circle cx="1289" cy="2052" r="101" fill="#FFFFFF" opacity="0.114" /><circle cx="2653" cy="1930" r="108" fill="#FFFFFF" opacity="0.186" /><circle cx="1692" cy="2037" r="54" fill="#FFFFFF" opacity="0.098" /><circle cx="1795" cy="1542" r="39" fill="#FFFFFF" opacity="0.210" /><circle cx="1111" cy="2170" r="140" fill="#FFFFFF" opacity="0.197" /><circle cx="2322" cy="1554" r="148" fill="#FFFFFF" opacity="0.162" /><circle cx="1650" cy="800" r="126" fill="#FFFFFF" opacity="0.124" /><circle cx="638" cy="716" r="99" fill="#FFFFFF" opacity="0.116" /><circle cx="743" cy="2431" r="37" fill="#FFFFFF" opacity="0.113" /><circle cx="2100" cy="2450" r="115" fill="#FFFFFF" opacity="0.161" /><circle cx="2681" cy="1461" r="131" fill="#FFFFFF" opacity="0.187" /><circle cx="1691" cy="1356" r="95" fill="#FFFFFF" opacity="0.110" /></g>
  <g><path d="M 260.4 643.6 L 2761.3 367.1 L 2761.3 855.1 L 260.4 1131.6 Z" fill="#FFFFFF" opacity="0.205" /><path d="M 372.4 833.8 L 2818.2 557.3 L 2818.2 1008.6 L 372.4 1285.1 Z" fill="#FFFFFF" opacity="0.230" /><path d="M 355.9 1101.5 L 2864.0 825.0 L 2864.0 1279.7 L 355.9 1556.1 Z" fill="#FFFFFF" opacity="0.158" /><path d="M 322.4 1416.7 L 2759.0 1140.2 L 2759.0 1566.5 L 322.4 1843.0 Z" fill="#FFFFFF" opacity="0.130" /><path d="M 324.3 1700.8 L 2885.6 1424.3 L 2885.6 1878.8 L 324.3 2155.3 Z" fill="#FFFFFF" opacity="0.229" /><path d="M 358.7 1946.7 L 2888.6 1670.2 L 2888.6 2161.1 L 358.7 2437.6 Z" fill="#FFFFFF" opacity="0.206" /><path d="M 324.2 2210.3 L 2893.5 1933.8 L 2893.5 2394.4 L 324.2 2670.8 Z" fill="#FFFFFF" opacity="0.097" /><path d="M 211.5 2441.6 L 2917.7 2165.1 L 2917.7 2585.6 L 211.5 2862.1 Z" fill="#FFFFFF" opacity="0.151" /></g>
  <g filter="url(#soft46)"><g transform="rotate(-19.30 1536.0 1536.0)"><path d="M-368.6 569.7 C -225.8 528.1, -25.8 611.4, 107.5 568.8 C 250.4 569.0, 450.4 570.1, 583.7 608.7 C 726.5 622.0, 926.5 523.9, 1059.8 625.0 C 1202.7 611.4, 1402.7 543.8, 1536.0 607.8 C 1678.8 615.6, 1878.8 532.9, 2012.2 567.5 C 2155.0 566.6, 2355.0 570.8, 2488.3 528.5 C 2631.2 533.4, 2831.2 609.7, 2964.5 514.6 C 3107.3 513.2, 3307.3 604.8, 3440.6 534.1" fill="none" stroke="url(#ribbon46)" stroke-width="58.4" stroke-linecap="round" stroke-opacity="0.120" /></g><g transform="rotate(-18.72 1536.0 1536.0)"><path d="M-368.6 755.9 C -241.7 698.7, -63.9 813.3, 54.6 723.8 C 181.6 718.5, 359.4 777.5, 477.9 771.8 C 604.8 768.6, 782.6 739.1, 901.1 810.3 C 1028.1 795.8, 1205.9 713.0, 1324.4 815.7 C 1451.3 831.7, 1629.1 699.0, 1747.6 784.9 C 1874.6 795.3, 2052.4 731.2, 2170.9 736.5 C 2297.9 739.8, 2475.6 770.7, 2594.1 699.9 C 2721.1 721.6, 2898.9 813.7, 3017.4 697.2 C 3144.4 712.9, 3322.1 807.6, 3440.6 730.2" fill="none" stroke="url(#ribbon46)" stroke-width="54.4" stroke-linecap="round" stroke-opacity="0.146" /></g><g transform="rotate(-18.14 1536.0 1536.0)"><path d="M-368.6 914.7 C -254.4 957.7, -94.4 866.3, 12.3 914.3 C 126.6 914.1, 286.6 915.3, 393.2 864.6 C 507.5 868.1, 667.5 936.7, 774.1 845.3 C 888.4 858.3, 1048.4 986.2, 1155.1 868.2 C 1269.4 857.1, 1429.3 966.7, 1536.0 919.2 C 1650.3 917.9, 1810.3 911.0, 1916.9 967.6 C 2031.2 975.1, 2191.2 863.4, 2297.9 983.8 C 2412.1 975.1, 2572.1 839.2, 2678.8 958.2 C 2793.1 960.2, 2953.1 887.3, 3059.7 906.2 C 3174.0 907.6, 3334.0 922.3, 3440.6 859.4" fill="none" stroke="url(#ribbon46)" stroke-width="50.4" stroke-linecap="round" stroke-opacity="0.172" /></g><g transform="rotate(-17.56 1536.0 1536.0)"><path d="M-368.6 1057.0 C -264.8 973.4, -119.3 1086.7, -22.3 1043.5 C 81.5 1042.6, 227.0 1063.6, 324.0 1101.6 C 427.8 1090.3, 573.3 1022.5, 670.3 1132.6 C 774.1 1145.7, 919.6 1002.3, 1016.6 1117.7 C 1120.4 1128.4, 1265.9 991.2, 1362.9 1066.0 C 1466.7 1064.6, 1612.2 1050.6, 1709.1 1008.8 C 1813.0 1002.8, 1958.5 1087.4, 2055.4 980.8 C 2159.3 964.7, 2304.8 1112.7, 2401.7 999.0 C 2505.6 1007.4, 2651.1 1101.8, 2748.0 1052.4 C 2851.9 1051.0, 2997.4 1061.2, 3094.3 1108.5 C 3198.2 1111.3, 3343.7 997.8, 3440.6 1133.4" fill="none" stroke="url(#ribbon46)" stroke-width="46.4" stroke-linecap="round" stroke-opacity="0.198" /></g><g transform="rotate(-16.98 1536.0 1536.0)"><path d="M-368.6 1273.0 C -273.4 1324.8, -140.1 1242.2, -51.2 1273.0 C 44.0 1273.0, 177.4 1273.1, 266.2 1213.0 C 361.5 1232.8, 494.8 1310.8, 583.7 1189.5 C 678.9 1202.9, 812.2 1346.3, 901.1 1216.6 C 996.4 1230.3, 1129.7 1321.0, 1218.6 1277.9 C 1313.8 1277.6, 1447.1 1268.0, 1536.0 1336.3 C 1631.2 1325.4, 1764.6 1197.5, 1853.4 1356.3 C 1948.7 1361.5, 2082.0 1195.4, 2170.9 1325.7 C 2266.1 1312.3, 2399.4 1213.4, 2488.3 1263.2 C 2583.6 1264.1, 2716.9 1276.4, 2805.8 1206.7 C 2901.0 1230.7, 3034.3 1310.0, 3123.2 1190.4 C 3218.4 1177.1, 3351.8 1325.9, 3440.6 1224.2" fill="none" stroke="url(#ribbon46)" stroke-width="42.4" stroke-linecap="round" stroke-opacity="0.224" /></g><g transform="rotate(-16.40 1536.0 1536.0)"><path d="M-368.6 1514.5 C -225.8 1585.6, -25.8 1437.7, 107.5 1556.8 C 250.4 1550.4, 450.4 1471.1, 583.7 1486.4 C 726.5 1485.4, 926.5 1546.9, 1059.8 1433.1 C 1202.7 1404.5, 1402.7 1609.0, 1536.0 1429.2 C 1678.8 1444.2, 1878.8 1599.6, 2012.2 1477.0 C 2155.0 1474.0, 2355.0 1534.2, 2488.3 1547.6 C 2631.2 1554.2, 2831.2 1482.1, 2964.5 1598.1 C 3107.3 1619.5, 3307.3 1448.0, 3440.6 1597.9" fill="none" stroke="url(#ribbon46)" stroke-width="38.4" stroke-linecap="round" stroke-opacity="0.250" /></g><g transform="rotate(-15.82 1536.0 1536.0)"><path d="M-368.6 1700.7 C -241.7 1578.3, -63.9 1773.1, 54.6 1615.1 C 181.6 1584.2, 359.4 1756.6, 477.9 1674.9 C 604.8 1680.2, 782.6 1720.5, 901.1 1750.3 C 1028.1 1750.6, 1205.9 1663.8, 1324.4 1795.6 C 1451.3 1814.1, 1629.1 1592.3, 1747.6 1783.3 C 1874.6 1806.4, 2052.4 1643.8, 2170.9 1720.9 C 2297.9 1723.7, 2475.6 1684.7, 2594.1 1646.2 C 2721.1 1638.5, 2898.9 1729.7, 3017.4 1604.5 C 3144.4 1578.6, 3322.1 1761.6, 3440.6 1621.2" fill="none" stroke="url(#ribbon46)" stroke-width="34.4" stroke-linecap="round" stroke-opacity="0.276" /></g><g transform="rotate(-15.24 1536.0 1536.0)"><path d="M-368.6 1823.5 C -254.4 1761.0, -94.4 1856.4, 12.3 1733.7 C 126.6 1761.2, 286.6 1851.3, 393.2 1799.6 C 507.5 1795.6, 667.5 1844.1, 774.1 1880.0 C 888.4 1895.1, 1048.4 1795.9, 1155.1 1926.2 C 1269.4 1953.2, 1429.3 1729.4, 1536.0 1910.1 C 1650.3 1896.1, 1810.3 1795.4, 1916.9 1841.5 C 2031.2 1847.0, 2191.2 1806.8, 2297.9 1762.0 C 2412.1 1762.4, 2572.1 1868.6, 2678.8 1719.9 C 2793.1 1695.3, 2953.1 1869.6, 3059.7 1740.6 C 3174.0 1751.1, 3334.0 1910.7, 3440.6 1811.6" fill="none" stroke="url(#ribbon46)" stroke-width="30.4" stroke-linecap="round" stroke-opacity="0.302" /></g><g transform="rotate(-14.66 1536.0 1536.0)"><path d="M-368.6 2043.6 C -264.8 2180.3, -119.3 1949.0, -22.3 2111.7 C 81.5 2116.9, 227.0 1979.8, 324.0 2027.4 C 427.8 2021.0, 573.3 2058.7, 670.3 1952.9 C 774.1 1920.1, 919.6 2077.9, 1016.6 1933.5 C 1120.4 1889.7, 1265.9 2155.5, 1362.9 1980.8 C 1466.7 2005.7, 1612.2 2116.5, 1709.1 2066.3 C 1813.0 2064.3, 1958.5 2021.9, 2055.4 2138.0 C 2159.3 2108.7, 2304.8 1967.2, 2401.7 2152.4 C 2505.6 2183.3, 2651.1 1969.0, 2748.0 2100.9 C 2851.9 2094.4, 2997.4 1989.6, 3094.3 2014.6 C 3198.2 2011.3, 3343.7 2065.5, 3440.6 1945.9" fill="none" stroke="url(#ribbon46)" stroke-width="26.4" stroke-linecap="round" stroke-opacity="0.328" /></g><g transform="rotate(-14.08 1536.0 1536.0)"><path d="M-368.6 2263.6 C -273.4 2342.1, -140.1 2169.3, -51.2 2275.2 C 44.0 2273.3, 177.4 2251.2, 266.2 2186.8 C 361.5 2201.5, 494.8 2306.4, 583.7 2145.0 C 678.9 2189.8, 812.2 2299.8, 901.1 2175.1 C 996.4 2206.9, 1129.7 2313.1, 1218.6 2259.0 C 1313.8 2257.5, 1447.1 2266.0, 1536.0 2345.6 C 1631.2 2334.4, 1764.6 2181.6, 1853.4 2382.5 C 1948.7 2410.6, 2082.0 2155.6, 2170.9 2347.3 C 2266.1 2375.7, 2399.4 2221.0, 2488.3 2261.3 C 2583.6 2260.6, 2716.9 2265.9, 2805.8 2176.7 C 2901.0 2172.2, 3034.3 2326.2, 3123.2 2144.8 C 3218.4 2159.6, 3351.8 2399.2, 3440.6 2185.0" fill="none" stroke="url(#ribbon46)" stroke-width="22.4" stroke-linecap="round" stroke-opacity="0.354" /></g><g transform="rotate(-13.50 1536.0 1536.0)"><path d="M-368.6 2405.3 C -225.8 2540.8, -25.8 2329.2, 107.5 2508.5 C 250.4 2478.7, 450.4 2326.8, 583.7 2425.4 C 726.5 2421.8, 926.5 2388.5, 1059.8 2330.1 C 1202.7 2302.9, 1402.7 2431.3, 1536.0 2280.4 C 1678.8 2249.1, 1878.8 2457.7, 2012.2 2306.5 C 2155.0 2319.9, 2355.0 2452.0, 2488.3 2392.5 C 2631.2 2395.8, 2831.2 2416.4, 2964.5 2486.3 C 3107.3 2461.8, 3307.3 2365.5, 3440.6 2530.9" fill="none" stroke="url(#ribbon46)" stroke-width="18.4" stroke-linecap="round" stroke-opacity="0.380" /></g><g transform="rotate(-12.92 1536.0 1536.0)"><path d="M-368.6 2593.9 C -241.7 2458.6, -63.9 2704.7, 54.6 2461.1 C 181.6 2425.7, 359.4 2649.2, 477.9 2506.0 C 604.8 2478.8, 782.6 2694.1, 901.1 2604.2 C 1028.1 2602.4, 1205.9 2581.6, 1324.4 2696.2 C 1451.3 2722.1, 1629.1 2481.8, 1747.6 2726.2 C 1874.6 2754.4, 2052.4 2512.9, 2170.9 2675.9 C 2297.9 2689.2, 2475.6 2511.6, 2594.1 2575.9 C 2721.1 2570.0, 2898.9 2604.5, 3017.4 2486.8 C 3144.4 2492.0, 3322.1 2631.7, 3440.6 2462.7" fill="none" stroke="url(#ribbon46)" stroke-width="14.4" stroke-linecap="round" stroke-opacity="0.406" /></g></g>
  <g><ellipse cx="1536.0" cy="1551.9" rx="728.6" ry="605.7" fill="url(#extrude46)" opacity="0.220" /><ellipse cx="1536.0" cy="1567.7" rx="736.0" ry="610.9" fill="url(#extrude46)" opacity="0.205" /><ellipse cx="1536.0" cy="1583.6" rx="743.4" ry="616.1" fill="url(#extrude46)" opacity="0.190" /><ellipse cx="1536.0" cy="1599.5" rx="750.9" ry="621.3" fill="url(#extrude46)" opacity="0.175" /><ellipse cx="1536.0" cy="1615.4" rx="758.3" ry="626.5" fill="url(#extrude46)" opacity="0.160" /><ellipse cx="1536.0" cy="1631.2" rx="765.7" ry="631.7" fill="url(#extrude46)" opacity="0.145" /><ellipse cx="1536.0" cy="1647.1" rx="773.2" ry="636.9" fill="url(#extrude46)" opacity="0.130" /><ellipse cx="1536.0" cy="1663.0" rx="780.6" ry="642.1" fill="url(#extrude46)" opacity="0.115" /><ellipse cx="1536.0" cy="1678.8" rx="788.0" ry="647.4" fill="url(#extrude46)" opacity="0.100" /><ellipse cx="1536.0" cy="1694.7" rx="795.5" ry="652.6" fill="url(#extrude46)" opacity="0.085" /><ellipse cx="1536.0" cy="1710.6" rx="802.9" ry="657.8" fill="url(#extrude46)" opacity="0.070" /><ellipse cx="1536.0" cy="1726.5" rx="810.3" ry="663.0" fill="url(#extrude46)" opacity="0.055" /></g>
  <ellipse cx="1536.0" cy="1726.5" rx="773.2" ry="214.9" fill="#0B1D2D" opacity="0.24" />
  <ellipse cx="1536.0" cy="1536.0" rx="743.4" ry="651.3" fill="url(#orb46)" stroke="#FFFFFF" stroke-opacity="0.42" stroke-width="7" />
  <ellipse cx="1431.9" cy="1392.7" rx="505.5" ry="299.6" fill="#FFFFFF" opacity="0.25" />
  <path d="M 199.4 399.4 C 1013.8 -30.7, 2058.2 768.0, 2872.6 215.0 L 2872.6 983.0 C 2089.0 1228.8, 1013.8 307.2, 199.4 1167.4 Z" fill="url(#glass46)" />
  <rect x="270" y="270" width="2532" height="2532" rx="430" fill="none" stroke="#FFFFFF" stroke-opacity="0.30" stroke-width="5" />
  <rect x="288.4" y="288.4" width="2495.1" height="2495.1" rx="399" fill="none" stroke="#FF9F43" stroke-opacity="0.35" stroke-width="3" />
  <g filter="url(#soft46)"><rect x="563" y="2246" width="50" height="2" fill="#FFFFFF" opacity="0.775" /><rect x="587" y="2222" width="2" height="50" fill="#FFFFFF" opacity="0.775" /><rect x="2674" y="347" width="44" height="2" fill="#FFFFFF" opacity="0.322" /><rect x="2695" y="326" width="2" height="44" fill="#FFFFFF" opacity="0.322" /><rect x="2202" y="1235" width="50" height="2" fill="#FFFFFF" opacity="0.592" /><rect x="2226" y="1211" width="2" height="50" fill="#FFFFFF" opacity="0.592" /><rect x="1887" y="1110" width="54" height="2" fill="#FFFFFF" opacity="0.440" /><rect x="1913" y="1084" width="2" height="54" fill="#FFFFFF" opacity="0.440" /><rect x="2440" y="2004" width="46" height="2" fill="#FFFFFF" opacity="0.686" /><rect x="2462" y="1982" width="2" height="46" fill="#FFFFFF" opacity="0.686" /><rect x="1067" y="1983" width="24" height="2" fill="#FFFFFF" opacity="0.735" /><rect x="1078" y="1972" width="2" height="24" fill="#FFFFFF" opacity="0.735" /><rect x="1691" y="708" width="80" height="2" fill="#FFFFFF" opacity="0.690" /><rect x="1730" y="669" width="2" height="80" fill="#FFFFFF" opacity="0.690" /><rect x="1756" y="1180" width="48" height="2" fill="#FFFFFF" opacity="0.741" /><rect x="1779" y="1157" width="2" height="48" fill="#FFFFFF" opacity="0.741" /><rect x="793" y="1720" width="38" height="2" fill="#FFFFFF" opacity="0.703" /><rect x="811" y="1702" width="2" height="38" fill="#FFFFFF" opacity="0.703" /><rect x="2567" y="593" width="68" height="2" fill="#FFFFFF" opacity="0.553" /><rect x="2600" y="560" width="2" height="68" fill="#FFFFFF" opacity="0.553" /><rect x="1860" y="1025" width="48" height="2" fill="#FFFFFF" opacity="0.729" /><rect x="1883" y="1002" width="2" height="48" fill="#FFFFFF" opacity="0.729" /><rect x="1162" y="2486" width="56" height="2" fill="#FFFFFF" opacity="0.556" /><rect x="1189" y="2459" width="2" height="56" fill="#FFFFFF" opacity="0.556" /><rect x="2774" y="2524" width="44" height="2" fill="#FFFFFF" opacity="0.431" /><rect x="2795" y="2503" width="2" height="44" fill="#FFFFFF" opacity="0.431" /><rect x="2124" y="1318" width="70" height="2" fill="#FFFFFF" opacity="0.374" /><rect x="2158" y="1284" width="2" height="70" fill="#FFFFFF" opacity="0.374" /><rect x="2179" y="1743" width="74" height="2" fill="#FFFFFF" opacity="0.840" /><rect x="2215" y="1707" width="2" height="74" fill="#FFFFFF" opacity="0.840" /><rect x="562" y="903" width="30" height="2" fill="#FFFFFF" opacity="0.322" /><rect x="576" y="889" width="2" height="30" fill="#FFFFFF" opacity="0.322" /><rect x="493" y="2443" width="42" height="2" fill="#FFFFFF" opacity="0.328" /><rect x="513" y="2423" width="2" height="42" fill="#FFFFFF" opacity="0.328" /><rect x="1482" y="1509" width="66" height="2" fill="#FFFFFF" opacity="0.420" /><rect x="1514" y="1477" width="2" height="66" fill="#FFFFFF" opacity="0.420" /><rect x="1421" y="651" width="46" height="2" fill="#FFFFFF" opacity="0.788" /><rect x="1443" y="629" width="2" height="46" fill="#FFFFFF" opacity="0.788" /><rect x="2581" y="2225" width="28" height="2" fill="#FFFFFF" opacity="0.813" /><rect x="2594" y="2212" width="2" height="28" fill="#FFFFFF" opacity="0.813" /><rect x="2000" y="1588" width="32" height="2" fill="#FFFFFF" opacity="0.370" /><rect x="2015" y="1573" width="2" height="32" fill="#FFFFFF" opacity="0.370" /><rect x="2497" y="962" width="42" height="2" fill="#FFFFFF" opacity="0.302" /><rect x="2517" y="942" width="2" height="42" fill="#FFFFFF" opacity="0.302" /><rect x="754" y="1487" width="52" height="2" fill="#FFFFFF" opacity="0.834" /><rect x="779" y="1462" width="2" height="52" fill="#FFFFFF" opacity="0.834" /><rect x="2784" y="2175" width="74" height="2" fill="#FFFFFF" opacity="0.689" /><rect x="2820" y="2139" width="2" height="74" fill="#FFFFFF" opacity="0.689" /><rect x="1828" y="2320" width="80" height="2" fill="#FFFFFF" opacity="0.355" /><rect x="1867" y="2281" width="2" height="80" fill="#FFFFFF" opacity="0.355" /><rect x="325" y="2069" width="32" height="2" fill="#FFFFFF" opacity="0.424" /><rect x="340" y="2054" width="2" height="32" fill="#FFFFFF" opacity="0.424" /></g>
  <g opacity="0.52"><path d="M996 1582 C1316 1006, 1572 2158, 2148 1582" fill="none" stroke="#0C2030" stroke-width="90" /><circle cx="1188" cy="1582" r="109" fill="#0C2030" /><circle cx="1572" cy="1582" r="109" fill="#0C2030" /><circle cx="1956" cy="1582" r="109" fill="#0C2030" /></g>
  <g filter="url(#soft46)"><path d="M960 1536 C1280 960, 1536 2112, 2112 1536" fill="none" stroke="url(#symbol46)" stroke-width="90" /><circle cx="1152" cy="1536" r="109" fill="url(#symbol46)" /><circle cx="1536" cy="1536" r="109" fill="url(#symbol46)" /><circle cx="1920" cy="1536" r="109" fill="url(#symbol46)" /></g>
  <rect x="138" y="138" width="2796" height="2796" rx="629" fill="#FFFFFF" filter="url(#grain46)" opacity="0.18" />
</svg>
