<svg xmlns="http://www.w3.org/2000/svg" width="3072" height="3072" viewBox="0 0 3072 3072">
  <title>QuartzOS App Icon 307 - pixel_monitor_307</title>
  <defs><linearGradient id="bg306" x1="0%" y1="0%" x2="100%" y2="100%"><stop offset="0%" stop-color="#FFD84D" /><stop offset="26%" stop-color="#36D1FF" /><stop offset="56%" stop-color="#8A5CFF" /><stop offset="78%" stop-color="#4B91A3" /><stop offset="100%" stop-color="#1A2630" /></linearGradient><radialGradient id="sun306" cx="24%" cy="25%" r="88%"><stop offset="0%" stop-color="#FFFFFF" stop-opacity="0.62" /><stop offset="30%" stop-color="#FF6AB3" stop-opacity="0.35" /><stop offset="100%" stop-color="#FF6AB3" stop-opacity="0" /></radialGradient><linearGradient id="glass306" x1="0%" y1="0%" x2="0%" y2="100%"><stop offset="0%" stop-color="#FFFFFF" stop-opacity="0.70" /><stop offset="46%" stop-color="#FFFFFF" stop-opacity="0.26" /><stop offset="100%" stop-color="#FFFFFF" stop-opacity="0.00" /></linearGradient><linearGradient id="ribbon306" x1="0%" y1="0%" x2="100%" y2="0%"><stop offset="0%" stop-color="#FFD84D" stop-opacity="0.18" /><stop offset="34%" stop-color="#36D1FF" stop-opacity="0.72" /><stop offset="66%" stop-color="#8A5CFF" stop-opacity="0.72" /><stop offset="100%" stop-color="#FF6AB3" stop-opacity="0.18" /></linearGradient><radialGradient id="orb306" cx="34%" cy="27%" r="74%"><stop offset="0%" stop-color="#FFFFFF" stop-opacity="0.84" /><stop offset="30%" stop-color="#FFD84D" stop-opacity="0.52" /><stop offset="68%" stop-color="#36D1FF" stop-opacity="0.42" /><stop offset="100%" stop-color="#8A5CFF" stop-opacity="0.20" /></radialGradient><linearGradient id="extrude306" x1="0%" y1="0%" x2="0%" y2="100%"><stop offset="0%" stop-color="#15283C" stop-opacity="0.45" /><stop offset="100%" stop-color="#08131D" stop-opacity="0.06" /></linearGradient><linearGradient id="symbol306" x1="0%" y1="0%" x2="100%" y2="100%"><stop offset="0%" stop-color="#FFFFFF" /><stop offset="100%" stop-color="#FF6AB3" /></linearGradient><filter id="shadow306" x="-40%" y="-40%" width="180%" height="180%"><feDropShadow dx="0" dy="49" stdDeviation="86" flood-color="#06111A" flood-opacity="0.54" /></filter><filter id="soft306" x="-40%" y="-40%" width="180%" height="180%"><feDropShadow dx="0" dy="0" stdDeviation="14" flood-color="#FFD84D" flood-opacity="0.45" /></filter><filter id="grain306"><feTurbulence type="fractalNoise" baseFrequency="0.835" numOctaves="2" seed="306" /><feColorMatrix type="saturate" values="0" /><feComponentTransfer><feFuncA type="table" tableValues="0 0.09" /></feComponentTransfer></filter></defs>
  <rect x="138" y="138" width="2796" height="2796" rx="629" fill="url(#bg306)" filter="url(#shadow306)" />
  <rect x="138" y="138" width="2796" height="2796" rx="629" fill="url(#sun306)" />
  <g><circle cx="832" cy="1652" r="70" fill="#FFFFFF" opacity="0.134" /><circle cx="1767" cy="895" r="84" fill="#FFFFFF" opacity="0.069" /><circle cx="1228" cy="1547" r="103" fill="#FFFFFF" opacity="0.236" /><circle cx="2185" cy="2013" r="86" fill="#FFFFFF" opacity="0.182" /><circle cx="838" cy="2440" r="140" fill="#FFFFFF" opacity="0.111" /><circle cx="730" cy="2224" r="146" fill="#FFFFFF" opacity="0.239" /><circle cx="1916" cy="1292" r="119" fill="#FFFFFF" opacity="0.206" /><circle cx="2290" cy="1756" r="136" fill="#FFFFFF" opacity="0.074" /><circle cx="2034" cy="2327" r="53" fill="#FFFFFF" opacity="0.236" /><circle cx="459" cy="2460" r="113" fill="#FFFFFF" opacity="0.065" /><circle cx="724" cy="2639" r="146" fill="#FFFFFF" opacity="0.086" /><circle cx="1170" cy="2176" r="129" fill="#FFFFFF" opacity="0.221" /><circle cx="1608" cy="1316" r="112" fill="#FFFFFF" opacity="0.231" /><circle cx="2135" cy="637" r="114" fill="#FFFFFF" opacity="0.222" /><circle cx="643" cy="925" r="46" fill="#FFFFFF" opacity="0.227" /><circle cx="427" cy="2526" r="66" fill="#FFFFFF" opacity="0.237" /><circle cx="2553" cy="1353" r="128" fill="#FFFFFF" opacity="0.145" /><circle cx="2563" cy="911" r="70" fill="#FFFFFF" opacity="0.176" /><circle cx="2367" cy="395" r="152" fill="#FFFFFF" opacity="0.076" /><circle cx="2029" cy="969" r="141" fill="#FFFFFF" opacity="0.081" /><circle cx="2137" cy="1078" r="110" fill="#FFFFFF" opacity="0.231" /><circle cx="1324" cy="2525" r="129" fill="#FFFFFF" opacity="0.215" /><circle cx="2109" cy="1763" r="103" fill="#FFFFFF" opacity="0.208" /><circle cx="1453" cy="1313" r="73" fill="#FFFFFF" opacity="0.117" /><circle cx="1387" cy="2571" r="83" fill="#FFFFFF" opacity="0.100" /><circle cx="917" cy="1760" r="121" fill="#FFFFFF" opacity="0.069" /><circle cx="1077" cy="1773" r="145" fill="#FFFFFF" opacity="0.229" /><circle cx="1840" cy="582" r="159" fill="#FFFFFF" opacity="0.085" /></g>
  <g><path d="M 250.7 576.1 L 2683.5 299.7 L 2683.5 787.8 L 250.7 1064.2 Z" fill="#FFFFFF" opacity="0.208" /><path d="M 311.6 858.6 L 2906.0 582.1 L 2906.0 1020.2 L 311.6 1296.6 Z" fill="#FFFFFF" opacity="0.215" /><path d="M 187.1 1132.5 L 2899.7 856.0 L 2899.7 1281.9 L 187.1 1558.3 Z" fill="#FFFFFF" opacity="0.178" /><path d="M 282.6 1353.9 L 2906.5 1077.4 L 2906.5 1551.8 L 282.6 1828.2 Z" fill="#FFFFFF" opacity="0.175" /><path d="M 261.5 1693.1 L 2885.1 1416.6 L 2885.1 1891.4 L 261.5 2167.8 Z" fill="#FFFFFF" opacity="0.174" /><path d="M 343.3 1879.1 L 2783.9 1602.6 L 2783.9 2049.4 L 343.3 2325.9 Z" fill="#FFFFFF" opacity="0.226" /><path d="M 288.4 2194.9 L 2797.5 1918.4 L 2797.5 2376.3 L 288.4 2652.8 Z" fill="#FFFFFF" opacity="0.158" /><path d="M 304.6 2434.2 L 2842.3 2157.7 L 2842.3 2610.0 L 304.6 2886.4 Z" fill="#FFFFFF" opacity="0.157" /></g>
  <g filter="url(#soft306)"><g transform="rotate(-11.71 1536.0 1536.0)"><path d="M-368.6 558.1 C -225.8 578.9, -25.8 535.5, 107.5 611.6 C 250.4 619.6, 450.4 495.3, 583.7 605.5 C 726.5 620.4, 926.5 527.6, 1059.8 570.7 C 1202.7 574.6, 1402.7 545.4, 1536.0 528.3 C 1678.8 538.6, 1878.8 588.9, 2012.2 503.9 C 2155.0 502.4, 2355.0 591.7, 2488.3 512.5 C 2631.2 514.7, 2831.2 574.1, 2964.5 548.7 C 3107.3 551.1, 3307.3 566.5, 3440.6 590.7" fill="none" stroke="url(#ribbon306)" stroke-width="58.4" stroke-linecap="round" stroke-opacity="0.120" /></g><g transform="rotate(-11.13 1536.0 1536.0)"><path d="M-368.6 757.2 C -241.7 676.3, -63.9 796.0, 54.6 700.5 C 181.6 683.6, 359.4 809.0, 477.9 736.3 C 604.8 739.6, 782.6 763.7, 901.1 784.8 C 1028.1 780.4, 1205.9 732.8, 1324.4 816.5 C 1451.3 817.8, 1629.1 700.0, 1747.6 812.2 C 1874.6 801.4, 2052.4 737.3, 2170.9 774.6 C 2297.9 778.0, 2475.6 742.7, 2594.1 726.3 C 2721.1 719.0, 2898.9 776.0, 3017.4 696.8 C 3144.4 691.8, 3322.1 790.8, 3440.6 703.9" fill="none" stroke="url(#ribbon306)" stroke-width="54.4" stroke-linecap="round" stroke-opacity="0.146" /></g><g transform="rotate(-10.55 1536.0 1536.0)"><path d="M-368.6 912.7 C -254.4 857.4, -94.4 937.2, 12.3 880.7 C 126.6 889.1, 286.6 923.3, 393.2 934.6 C 507.5 938.5, 667.5 896.3, 774.1 975.2 C 888.4 968.2, 1048.4 875.1, 1155.1 977.9 C 1269.4 964.6, 1429.3 875.5, 1536.0 941.1 C 1650.3 930.8, 1810.3 881.0, 1916.9 887.1 C 2031.2 889.8, 2191.2 920.7, 2297.9 848.6 C 2412.1 858.8, 2572.1 942.8, 2678.8 849.0 C 2793.1 848.5, 2953.1 988.5, 3059.7 888.1 C 3174.0 890.6, 3334.0 932.4, 3440.6 942.1" fill="none" stroke="url(#ribbon306)" stroke-width="50.4" stroke-linecap="round" stroke-opacity="0.172" /></g><g transform="rotate(-9.97 1536.0 1536.0)"><path d="M-368.6 1123.5 C -264.8 1092.5, -119.3 1138.7, -22.3 1144.9 C 81.5 1144.0, 227.0 1116.2, 324.0 1191.1 C 427.8 1182.2, 573.3 1075.8, 670.3 1196.2 C 774.1 1223.6, 919.6 1061.4, 1016.6 1157.2 C 1120.4 1153.7, 1265.9 1100.4, 1362.9 1097.7 C 1466.7 1096.6, 1612.2 1140.6, 1709.1 1053.9 C 1813.0 1051.9, 1958.5 1177.7, 2055.4 1052.2 C 2159.3 1072.1, 2304.8 1156.4, 2401.7 1093.8 C 2505.6 1083.6, 2651.1 1140.7, 2748.0 1153.4 C 2851.9 1164.5, 2997.4 1101.0, 3094.3 1194.8 C 3198.2 1195.2, 3343.7 1049.2, 3440.6 1193.0" fill="none" stroke="url(#ribbon306)" stroke-width="46.4" stroke-linecap="round" stroke-opacity="0.198" /></g><g transform="rotate(-9.39 1536.0 1536.0)"><path d="M-368.6 1329.9 C -273.4 1429.4, -140.1 1291.2, -51.2 1350.4 C 44.0 1354.7, 177.4 1320.1, 266.2 1286.1 C 361.5 1284.6, 494.8 1347.7, 583.7 1248.4 C 678.9 1277.8, 812.2 1424.4, 901.1 1260.1 C 996.4 1236.2, 1129.7 1384.1, 1218.6 1314.3 C 1313.8 1319.5, 1447.1 1339.9, 1536.0 1377.9 C 1631.2 1390.1, 1764.6 1284.1, 1853.4 1412.4 C 1948.7 1420.2, 2082.0 1293.6, 2170.9 1396.9 C 2266.1 1407.1, 2399.4 1269.3, 2488.3 1340.8 C 2583.6 1336.8, 2716.9 1326.6, 2805.8 1278.1 C 2901.0 1263.5, 3034.3 1360.4, 3123.2 1246.8 C 3218.4 1271.7, 3351.8 1425.4, 3440.6 1266.0" fill="none" stroke="url(#ribbon306)" stroke-width="42.4" stroke-linecap="round" stroke-opacity="0.224" /></g><g transform="rotate(-8.81 1536.0 1536.0)"><path d="M-368.6 1542.7 C -225.8 1613.4, -25.8 1465.7, 107.5 1632.8 C 250.4 1614.7, 450.4 1453.5, 583.7 1598.7 C 726.5 1604.8, 926.5 1506.0, 1059.8 1530.6 C 1202.7 1527.7, 1402.7 1556.6, 1536.0 1469.8 C 1678.8 1460.2, 1878.8 1618.8, 2012.2 1453.3 C 2155.0 1432.4, 2355.0 1577.6, 2488.3 1491.0 C 2631.2 1476.9, 2831.2 1579.5, 2964.5 1560.0 C 3107.3 1565.7, 3307.3 1532.2, 3440.6 1618.6" fill="none" stroke="url(#ribbon306)" stroke-width="38.4" stroke-linecap="round" stroke-opacity="0.250" /></g><g transform="rotate(-8.23 1536.0 1536.0)"><path d="M-368.6 1658.7 C -241.7 1710.6, -63.9 1627.1, 54.6 1624.1 C 181.6 1635.9, 359.4 1676.8, 477.9 1569.1 C 604.8 1563.8, 782.6 1741.7, 901.1 1568.4 C 1028.1 1598.4, 1205.9 1728.1, 1324.4 1622.5 C 1451.3 1611.1, 1629.1 1683.2, 1747.6 1698.6 C 1874.6 1688.0, 2052.4 1611.9, 2170.9 1750.5 C 2297.9 1749.1, 2475.6 1611.9, 2594.1 1746.7 C 2721.1 1748.3, 2898.9 1631.1, 3017.4 1689.6 C 3144.4 1698.9, 3322.1 1633.5, 3440.6 1613.7" fill="none" stroke="url(#ribbon306)" stroke-width="34.4" stroke-linecap="round" stroke-opacity="0.276" /></g><g transform="rotate(-7.65 1536.0 1536.0)"><path d="M-368.6 1826.7 C -254.4 1912.6, -94.4 1801.4, 12.3 1836.7 C 126.6 1838.8, 286.6 1819.8, 393.2 1758.9 C 507.5 1775.7, 667.5 1864.9, 774.1 1722.2 C 888.4 1729.6, 1048.4 1922.7, 1155.1 1748.9 C 1269.4 1765.3, 1429.3 1910.2, 1536.0 1822.8 C 1650.3 1823.7, 1810.3 1831.1, 1916.9 1899.1 C 2031.2 1897.3, 2191.2 1762.2, 2297.9 1931.5 C 2412.1 1937.9, 2572.1 1760.1, 2678.8 1900.3 C 2793.1 1926.7, 2953.1 1776.2, 3059.7 1824.5 C 3174.0 1823.7, 3334.0 1829.2, 3440.6 1750.0" fill="none" stroke="url(#ribbon306)" stroke-width="30.4" stroke-linecap="round" stroke-opacity="0.302" /></g><g transform="rotate(-7.07 1536.0 1536.0)"><path d="M-368.6 2073.5 C -264.8 2024.3, -119.3 2105.1, -22.3 2071.5 C 81.5 2072.3, 227.0 2074.6, 324.0 2152.3 C 427.8 2124.1, 573.3 2029.9, 670.3 2185.3 C 774.1 2192.9, 919.6 1978.3, 1016.6 2150.5 C 1120.4 2179.5, 1265.9 2014.5, 1362.9 2069.0 C 1466.7 2067.8, 1612.2 2075.1, 1709.1 1990.2 C 1813.0 1987.2, 1958.5 2172.1, 2055.4 1962.0 C 2159.3 1928.3, 2304.8 2155.9, 2401.7 2001.4 C 2505.6 2010.9, 2651.1 2130.4, 2748.0 2084.5 C 2851.9 2082.6, 2997.4 2063.8, 3094.3 2161.0 C 3198.2 2149.4, 3343.7 2007.0, 3440.6 2184.4" fill="none" stroke="url(#ribbon306)" stroke-width="26.4" stroke-linecap="round" stroke-opacity="0.328" /></g><g transform="rotate(-6.49 1536.0 1536.0)"><path d="M-368.6 2265.3 C -273.4 2254.5, -140.1 2272.5, -51.2 2169.2 C 44.0 2164.3, 177.4 2343.0, 266.2 2148.1 C 361.5 2113.6, 494.8 2371.1, 583.7 2198.0 C 678.9 2188.9, 812.2 2329.8, 901.1 2288.8 C 996.4 2289.8, 1129.7 2241.7, 1218.6 2365.2 C 1313.8 2351.5, 1447.1 2214.8, 1536.0 2381.1 C 1631.2 2393.9, 1764.6 2229.4, 1853.4 2326.7 C 1948.7 2308.5, 2082.0 2205.6, 2170.9 2235.0 C 2266.1 2227.5, 2399.4 2283.0, 2488.3 2161.7 C 2583.6 2200.4, 2716.9 2330.7, 2805.8 2151.2 C 2901.0 2152.8, 3034.3 2383.4, 3123.2 2209.9 C 3218.4 2228.7, 3351.8 2306.9, 3440.6 2302.2" fill="none" stroke="url(#ribbon306)" stroke-width="22.4" stroke-linecap="round" stroke-opacity="0.354" /></g><g transform="rotate(-5.91 1536.0 1536.0)"><path d="M-368.6 2444.1 C -225.8 2391.0, -25.8 2479.1, 107.5 2328.2 C 250.4 2308.8, 450.4 2547.9, 583.7 2327.9 C 726.5 2352.2, 926.5 2582.5, 1059.8 2398.1 C 1202.7 2410.3, 1402.7 2471.7, 1536.0 2496.2 C 1678.8 2475.3, 1878.8 2401.8, 2012.2 2562.6 C 2155.0 2517.1, 2355.0 2353.8, 2488.3 2557.1 C 2631.2 2542.7, 2831.2 2402.3, 2964.5 2483.1 C 3107.3 2497.2, 3307.3 2427.3, 3440.6 2385.3" fill="none" stroke="url(#ribbon306)" stroke-width="18.4" stroke-linecap="round" stroke-opacity="0.380" /></g><g transform="rotate(-5.33 1536.0 1536.0)"><path d="M-368.6 2650.0 C -241.7 2754.0, -63.9 2564.5, 54.6 2715.5 C 181.6 2734.1, 359.4 2608.6, 477.9 2612.6 C 604.8 2601.7, 782.6 2672.6, 901.1 2532.3 C 1028.1 2541.6, 1205.9 2693.2, 1324.4 2523.5 C 1451.3 2475.2, 1629.1 2765.5, 1747.6 2591.3 C 1874.6 2610.8, 2052.4 2676.4, 2170.9 2694.8 C 2297.9 2696.8, 2475.6 2599.6, 2594.1 2771.0 C 2721.1 2776.2, 2898.9 2547.5, 3017.4 2773.9 C 3144.4 2801.9, 3322.1 2524.6, 3440.6 2701.5" fill="none" stroke="url(#ribbon306)" stroke-width="14.4" stroke-linecap="round" stroke-opacity="0.406" /></g></g>
  <g><ellipse cx="1536.0" cy="1551.9" rx="728.6" ry="605.7" fill="url(#extrude306)" opacity="0.220" /><ellipse cx="1536.0" cy="1567.7" rx="736.0" ry="610.9" fill="url(#extrude306)" opacity="0.205" /><ellipse cx="1536.0" cy="1583.6" rx="743.4" ry="616.1" fill="url(#extrude306)" opacity="0.190" /><ellipse cx="1536.0" cy="1599.5" rx="750.9" ry="621.3" fill="url(#extrude306)" opacity="0.175" /><ellipse cx="1536.0" cy="1615.4" rx="758.3" ry="626.5" fill="url(#extrude306)" opacity="0.160" /><ellipse cx="1536.0" cy="1631.2" rx="765.7" ry="631.7" fill="url(#extrude306)" opacity="0.145" /><ellipse cx="1536.0" cy="1647.1" rx="773.2" ry="636.9" fill="url(#extrude306)" opacity="0.130" /><ellipse cx="1536.0" cy="1663.0" rx="780.6" ry="642.1" fill="url(#extrude306)" opacity="0.115" /><ellipse cx="1536.0" cy="1678.8" rx="788.0" ry="647.4" fill="url(#extrude306)" opacity="0.100" /><ellipse cx="1536.0" cy="1694.7" rx="795.5" ry="652.6" fill="url(#extrude306)" opacity="0.085" /><ellipse cx="1536.0" cy="1710.6" rx="802.9" ry="657.8" fill="url(#extrude306)" opacity="0.070" /><ellipse cx="1536.0" cy="1726.5" rx="810.3" ry="663.0" fill="url(#extrude306)" opacity="0.055" /></g>
  <ellipse cx="1536.0" cy="1726.5" rx="773.2" ry="214.9" fill="#0B1D2D" opacity="0.24" />
  <ellipse cx="1536.0" cy="1536.0" rx="743.4" ry="651.3" fill="url(#orb306)" stroke="#FFFFFF" stroke-opacity="0.42" stroke-width="7" />
  <ellipse cx="1431.9" cy="1392.7" rx="505.5" ry="299.6" fill="#FFFFFF" opacity="0.25" />
  <path d="M 199.4 399.4 C 1013.8 -30.7, 2058.2 768.0, 2872.6 215.0 L 2872.6 983.0 C 2089.0 1228.8, 1013.8 307.2, 199.4 1167.4 Z" fill="url(#glass306)" />
  <rect x="270" y="270" width="2532" height="2532" rx="430" fill="none" stroke="#FFFFFF" stroke-opacity="0.30" stroke-width="5" />
  <rect x="288.4" y="288.4" width="2495.1" height="2495.1" rx="399" fill="none" stroke="#FFD84D" stroke-opacity="0.35" stroke-width="3" />
  <g filter="url(#soft306)"><rect x="1641" y="1406" width="38" height="2" fill="#FFFFFF" opacity="0.761" /><rect x="1659" y="1388" width="2" height="38" fill="#FFFFFF" opacity="0.761" /><rect x="1947" y="1912" width="56" height="2" fill="#FFFFFF" opacity="0.657" /><rect x="1974" y="1885" width="2" height="56" fill="#FFFFFF" opacity="0.657" /><rect x="1857" y="2743" width="56" height="2" fill="#FFFFFF" opacity="0.807" /><rect x="1884" y="2716" width="2" height="56" fill="#FFFFFF" opacity="0.807" /><rect x="2650" y="2637" width="46" height="2" fill="#FFFFFF" opacity="0.607" /><rect x="2672" y="2615" width="2" height="46" fill="#FFFFFF" opacity="0.607" /><rect x="2019" y="1209" width="28" height="2" fill="#FFFFFF" opacity="0.465" /><rect x="2032" y="1196" width="2" height="28" fill="#FFFFFF" opacity="0.465" /><rect x="308" y="304" width="48" height="2" fill="#FFFFFF" opacity="0.686" /><rect x="331" y="281" width="2" height="48" fill="#FFFFFF" opacity="0.686" /><rect x="1009" y="1071" width="24" height="2" fill="#FFFFFF" opacity="0.539" /><rect x="1020" y="1060" width="2" height="24" fill="#FFFFFF" opacity="0.539" /><rect x="639" y="873" width="52" height="2" fill="#FFFFFF" opacity="0.403" /><rect x="664" y="848" width="2" height="52" fill="#FFFFFF" opacity="0.403" /><rect x="2464" y="2369" width="44" height="2" fill="#FFFFFF" opacity="0.683" /><rect x="2485" y="2348" width="2" height="44" fill="#FFFFFF" opacity="0.683" /><rect x="2258" y="2361" width="56" height="2" fill="#FFFFFF" opacity="0.660" /><rect x="2285" y="2334" width="2" height="56" fill="#FFFFFF" opacity="0.660" /><rect x="2018" y="1709" width="74" height="2" fill="#FFFFFF" opacity="0.582" /><rect x="2054" y="1673" width="2" height="74" fill="#FFFFFF" opacity="0.582" /><rect x="1348" y="2642" width="74" height="2" fill="#FFFFFF" opacity="0.552" /><rect x="1384" y="2606" width="2" height="74" fill="#FFFFFF" opacity="0.552" /><rect x="583" y="771" width="28" height="2" fill="#FFFFFF" opacity="0.337" /><rect x="596" y="758" width="2" height="28" fill="#FFFFFF" opacity="0.337" /><rect x="2203" y="2360" width="26" height="2" fill="#FFFFFF" opacity="0.521" /><rect x="2215" y="2348" width="2" height="26" fill="#FFFFFF" opacity="0.521" /><rect x="606" y="2374" width="34" height="2" fill="#FFFFFF" opacity="0.615" /><rect x="622" y="2358" width="2" height="34" fill="#FFFFFF" opacity="0.615" /><rect x="658" y="452" width="32" height="2" fill="#FFFFFF" opacity="0.316" /><rect x="673" y="437" width="2" height="32" fill="#FFFFFF" opacity="0.316" /><rect x="944" y="1670" width="34" height="2" fill="#FFFFFF" opacity="0.351" /><rect x="960" y="1654" width="2" height="34" fill="#FFFFFF" opacity="0.351" /><rect x="1358" y="2413" width="84" height="2" fill="#FFFFFF" opacity="0.572" /><rect x="1399" y="2372" width="2" height="84" fill="#FFFFFF" opacity="0.572" /><rect x="2262" y="2674" width="58" height="2" fill="#FFFFFF" opacity="0.819" /><rect x="2290" y="2646" width="2" height="58" fill="#FFFFFF" opacity="0.819" /><rect x="365" y="1021" width="84" height="2" fill="#FFFFFF" opacity="0.840" /><rect x="406" y="980" width="2" height="84" fill="#FFFFFF" opacity="0.840" /><rect x="850" y="2215" width="36" height="2" fill="#FFFFFF" opacity="0.654" /><rect x="867" y="2198" width="2" height="36" fill="#FFFFFF" opacity="0.654" /><rect x="1229" y="2548" width="34" height="2" fill="#FFFFFF" opacity="0.680" /><rect x="1245" y="2532" width="2" height="34" fill="#FFFFFF" opacity="0.680" /><rect x="644" y="1747" width="58" height="2" fill="#FFFFFF" opacity="0.538" /><rect x="672" y="1719" width="2" height="58" fill="#FFFFFF" opacity="0.538" /><rect x="1692" y="245" width="60" height="2" fill="#FFFFFF" opacity="0.515" /><rect x="1721" y="216" width="2" height="60" fill="#FFFFFF" opacity="0.515" /><rect x="1139" y="1685" width="38" height="2" fill="#FFFFFF" opacity="0.493" /><rect x="1157" y="1667" width="2" height="38" fill="#FFFFFF" opacity="0.493" /><rect x="1520" y="867" width="82" height="2" fill="#FFFFFF" opacity="0.590" /><rect x="1560" y="827" width="2" height="82" fill="#FFFFFF" opacity="0.590" /></g>
  <g opacity="0.52"><path d="M996 1582 Q1572 1006, 2148 1582" fill="none" stroke="#0C2030" stroke-width="90" /><path d="M996 1801 Q1572 1198, 2148 1801" fill="none" stroke="#0C2030" stroke-width="88" opacity="0.9" /><path d="M996 1966 Q1572 1326, 2148 1966" fill="none" stroke="#0C2030" stroke-width="87" opacity="0.75" /></g>
  <g filter="url(#soft306)"><path d="M960 1536 Q1536 960, 2112 1536" fill="none" stroke="url(#symbol306)" stroke-width="90" /><path d="M960 1755 Q1536 1152, 2112 1755" fill="none" stroke="url(#symbol306)" stroke-width="88" opacity="0.9" /><path d="M960 1920 Q1536 1280, 2112 1920" fill="none" stroke="url(#symbol306)" stroke-width="87" opacity="0.75" /></g>
  <rect x="138" y="138" width="2796" height="2796" rx="629" fill="#FFFFFF" filter="url(#grain306)" opacity="0.18" />
</svg>
