<svg xmlns="http://www.w3.org/2000/svg" width="3072" height="3072" viewBox="0 0 3072 3072">
  <title>QuartzOS App Icon 287 - pixel_settings_287</title>
  <defs><linearGradient id="bg286" x1="0%" y1="0%" x2="100%" y2="100%"><stop offset="0%" stop-color="#53E3A6" /><stop offset="26%" stop-color="#3B82FF" /><stop offset="56%" stop-color="#FF6AB3" /><stop offset="78%" stop-color="#58A3D8" /><stop offset="100%" stop-color="#1D2F45" /></linearGradient><radialGradient id="sun286" cx="24%" cy="9%" r="88%"><stop offset="0%" stop-color="#FFFFFF" stop-opacity="0.62" /><stop offset="30%" stop-color="#FF9F43" stop-opacity="0.35" /><stop offset="100%" stop-color="#FF9F43" stop-opacity="0" /></radialGradient><linearGradient id="glass286" x1="0%" y1="0%" x2="0%" y2="100%"><stop offset="0%" stop-color="#FFFFFF" stop-opacity="0.70" /><stop offset="46%" stop-color="#FFFFFF" stop-opacity="0.26" /><stop offset="100%" stop-color="#FFFFFF" stop-opacity="0.00" /></linearGradient><linearGradient id="ribbon286" x1="0%" y1="0%" x2="100%" y2="0%"><stop offset="0%" stop-color="#53E3A6" stop-opacity="0.18" /><stop offset="34%" stop-color="#3B82FF" stop-opacity="0.72" /><stop offset="66%" stop-color="#FF6AB3" stop-opacity="0.72" /><stop offset="100%" stop-color="#FF9F43" stop-opacity="0.18" /></linearGradient><radialGradient id="orb286" cx="34%" cy="27%" r="74%"><stop offset="0%" stop-color="#FFFFFF" stop-opacity="0.84" /><stop offset="30%" stop-color="#53E3A6" stop-opacity="0.52" /><stop offset="68%" stop-color="#3B82FF" stop-opacity="0.42" /><stop offset="100%" stop-color="#FF6AB3" stop-opacity="0.20" /></radialGradient><linearGradient id="extrude286" x1="0%" y1="0%" x2="0%" y2="100%"><stop offset="0%" stop-color="#15283C" stop-opacity="0.45" /><stop offset="100%" stop-color="#08131D" stop-opacity="0.06" /></linearGradient><linearGradient id="symbol286" x1="0%" y1="0%" x2="100%" y2="100%"><stop offset="0%" stop-color="#FFFFFF" /><stop offset="100%" stop-color="#FF9F43" /></linearGradient><filter id="shadow286" x="-40%" y="-40%" width="180%" height="180%"><feDropShadow dx="0" dy="49" stdDeviation="86" flood-color="#06111A" flood-opacity="0.54" /></filter><filter id="soft286" x="-40%" y="-40%" width="180%" height="180%"><feDropShadow dx="0" dy="0" stdDeviation="14" flood-color="#53E3A6" flood-opacity="0.45" /></filter><filter id="grain286"><feTurbulence type="fractalNoise" baseFrequency="0.914" numOctaves="2" seed="286" /><feColorMatrix type="saturate" values="0" /><feComponentTransfer><feFuncA type="table" tableValues="0 0.09" /></feComponentTransfer></filter></defs>
  <rect x="138" y="138" width="2796" height="2796" rx="629" fill="url(#bg286)" filter="url(#shadow286)" />
  <rect x="138" y="138" width="2796" height="2796" rx="629" fill="url(#sun286)" />
  <g><circle cx="917" cy="840" r="63" fill="#FFFFFF" opacity="0.147" /><circle cx="955" cy="1480" r="159" fill="#FFFFFF" opacity="0.196" /><circle cx="1636" cy="2391" r="60" fill="#FFFFFF" opacity="0.126" /><circle cx="2304" cy="308" r="138" fill="#FFFFFF" opacity="0.067" /><circle cx="441" cy="884" r="110" fill="#FFFFFF" opacity="0.068" /><circle cx="748" cy="516" r="69" fill="#FFFFFF" opacity="0.200" /><circle cx="698" cy="516" r="154" fill="#FFFFFF" opacity="0.107" /><circle cx="757" cy="1691" r="134" fill="#FFFFFF" opacity="0.097" /><circle cx="1653" cy="2289" r="55" fill="#FFFFFF" opacity="0.084" /><circle cx="698" cy="1286" r="102" fill="#FFFFFF" opacity="0.185" /><circle cx="2088" cy="2423" r="143" fill="#FFFFFF" opacity="0.107" /><circle cx="644" cy="595" r="119" fill="#FFFFFF" opacity="0.110" /><circle cx="1783" cy="2304" r="98" fill="#FFFFFF" opacity="0.086" /><circle cx="996" cy="696" r="91" fill="#FFFFFF" opacity="0.142" /><circle cx="793" cy="1203" r="125" fill="#FFFFFF" opacity="0.225" /><circle cx="1243" cy="343" r="119" fill="#FFFFFF" opacity="0.120" /><circle cx="1201" cy="532" r="101" fill="#FFFFFF" opacity="0.126" /><circle cx="1214" cy="588" r="148" fill="#FFFFFF" opacity="0.072" /><circle cx="2018" cy="459" r="146" fill="#FFFFFF" opacity="0.116" /><circle cx="2458" cy="1780" r="44" fill="#FFFFFF" opacity="0.176" /><circle cx="1228" cy="870" r="153" fill="#FFFFFF" opacity="0.104" /><circle cx="452" cy="2495" r="120" fill="#FFFFFF" opacity="0.225" /><circle cx="2653" cy="1877" r="137" fill="#FFFFFF" opacity="0.121" /><circle cx="2623" cy="428" r="125" fill="#FFFFFF" opacity="0.066" /><circle cx="1947" cy="1484" r="143" fill="#FFFFFF" opacity="0.190" /><circle cx="2156" cy="2404" r="150" fill="#FFFFFF" opacity="0.076" /><circle cx="757" cy="2384" r="114" fill="#FFFFFF" opacity="0.072" /><circle cx="988" cy="412" r="125" fill="#FFFFFF" opacity="0.090" /></g>
  <g><path d="M 273.7 646.5 L 2754.0 370.0 L 2754.0 830.6 L 273.7 1107.1 Z" fill="#FFFFFF" opacity="0.232" /><path d="M 329.0 905.5 L 2841.8 629.0 L 2841.8 1047.0 L 329.0 1323.5 Z" fill="#FFFFFF" opacity="0.118" /><path d="M 391.8 1154.0 L 2907.0 877.5 L 2907.0 1352.9 L 391.8 1629.4 Z" fill="#FFFFFF" opacity="0.217" /><path d="M 158.4 1433.3 L 2726.0 1156.8 L 2726.0 1640.5 L 158.4 1917.0 Z" fill="#FFFFFF" opacity="0.168" /><path d="M 367.1 1702.1 L 2870.5 1425.7 L 2870.5 1847.0 L 367.1 2123.5 Z" fill="#FFFFFF" opacity="0.215" /><path d="M 176.2 1961.8 L 2780.2 1685.3 L 2780.2 2151.0 L 176.2 2427.5 Z" fill="#FFFFFF" opacity="0.147" /><path d="M 266.5 2158.0 L 2701.1 1881.5 L 2701.1 2334.9 L 266.5 2611.4 Z" fill="#FFFFFF" opacity="0.087" /><path d="M 210.5 2400.6 L 2762.2 2124.1 L 2762.2 2602.8 L 210.5 2879.3 Z" fill="#FFFFFF" opacity="0.123" /></g>
  <g filter="url(#soft286)"><g transform="rotate(-9.22 1536.0 1536.0)"><path d="M-368.6 539.2 C -225.8 570.4, -25.8 518.3, 107.5 523.8 C 250.4 523.6, 450.4 556.0, 583.7 490.3 C 726.5 507.6, 926.5 576.6, 1059.8 486.5 C 1202.7 504.8, 1402.7 565.4, 1536.0 514.7 C 1678.8 523.5, 1878.8 554.4, 2012.2 557.6 C 2155.0 555.3, 2355.0 532.5, 2488.3 589.4 C 2631.2 581.8, 2831.2 502.2, 2964.5 590.7 C 3107.3 577.8, 3307.3 477.6, 3440.6 560.7" fill="none" stroke="url(#ribbon286)" stroke-width="58.4" stroke-linecap="round" stroke-opacity="0.120" /></g><g transform="rotate(-8.64 1536.0 1536.0)"><path d="M-368.6 722.2 C -241.7 711.2, -63.9 728.5, 54.6 668.7 C 181.6 656.1, 359.4 769.7, 477.9 661.9 C 604.8 661.6, 782.6 783.7, 901.1 691.7 C 1028.1 688.6, 1205.9 758.1, 1324.4 740.0 C 1451.3 744.9, 1629.1 712.2, 1747.6 777.5 C 1874.6 773.1, 2052.4 671.2, 2170.9 781.4 C 2297.9 784.5, 2475.6 665.4, 2594.1 749.4 C 2721.1 749.5, 2898.9 708.0, 3017.4 700.9 C 3144.4 703.0, 3322.1 737.9, 3440.6 665.3" fill="none" stroke="url(#ribbon286)" stroke-width="54.4" stroke-linecap="round" stroke-opacity="0.146" /></g><g transform="rotate(-8.06 1536.0 1536.0)"><path d="M-368.6 883.6 C -254.4 815.0, -94.4 954.5, 12.3 816.3 C 126.6 830.9, 286.6 908.3, 393.2 849.1 C 507.5 853.6, 667.5 918.0, 774.1 902.8 C 888.4 900.2, 1048.4 863.2, 1155.1 944.8 C 1269.4 951.2, 1429.3 834.5, 1536.0 949.7 C 1650.3 924.6, 1810.3 805.6, 1916.9 914.5 C 2031.2 910.5, 2191.2 851.1, 2297.9 860.5 C 2412.1 853.7, 2572.1 903.3, 2678.8 820.5 C 2793.1 801.8, 2953.1 921.8, 3059.7 818.8 C 3174.0 794.8, 3334.0 955.0, 3440.6 856.3" fill="none" stroke="url(#ribbon286)" stroke-width="50.4" stroke-linecap="round" stroke-opacity="0.172" /></g><g transform="rotate(-7.48 1536.0 1536.0)"><path d="M-368.6 1125.7 C -264.8 1219.7, -119.3 1076.9, -22.3 1182.7 C 81.5 1202.7, 227.0 1057.3, 324.0 1128.9 C 427.8 1130.0, 573.3 1122.1, 670.3 1073.1 C 774.1 1064.5, 919.6 1154.3, 1016.6 1049.2 C 1120.4 1024.7, 1265.9 1187.3, 1362.9 1071.7 C 1466.7 1077.6, 1612.2 1153.8, 1709.1 1126.9 C 1813.0 1127.4, 1958.5 1125.3, 2055.4 1181.4 C 2159.3 1201.3, 2304.8 1095.3, 2401.7 1202.1 C 2505.6 1210.6, 2651.1 1054.1, 2748.0 1176.4 C 2851.9 1178.7, 2997.4 1076.3, 3094.3 1120.0 C 3198.2 1119.1, 3343.7 1127.9, 3440.6 1067.0" fill="none" stroke="url(#ribbon286)" stroke-width="46.4" stroke-linecap="round" stroke-opacity="0.198" /></g><g transform="rotate(-6.90 1536.0 1536.0)"><path d="M-368.6 1256.1 C -273.4 1235.3, -140.1 1281.7, -51.2 1178.7 C 44.0 1183.2, 177.4 1319.4, 266.2 1179.7 C 361.5 1176.3, 494.8 1316.6, 583.7 1227.0 C 678.9 1234.8, 812.2 1289.4, 901.1 1292.0 C 996.4 1285.0, 1129.7 1234.7, 1218.6 1335.3 C 1313.8 1359.1, 1447.1 1216.4, 1536.0 1330.5 C 1631.2 1344.4, 1764.6 1197.2, 1853.4 1280.7 C 1948.7 1277.6, 2082.0 1233.2, 2170.9 1215.9 C 2266.1 1206.7, 2399.4 1297.8, 2488.3 1175.6 C 2583.6 1204.6, 2716.9 1294.5, 2805.8 1184.1 C 2901.0 1164.4, 3034.3 1337.9, 3123.2 1236.3 C 3218.4 1241.1, 3351.8 1267.7, 3440.6 1300.6" fill="none" stroke="url(#ribbon286)" stroke-width="42.4" stroke-linecap="round" stroke-opacity="0.224" /></g><g transform="rotate(-6.32 1536.0 1536.0)"><path d="M-368.6 1530.6 C -225.8 1463.5, -25.8 1560.7, 107.5 1521.8 C 250.4 1520.0, 450.4 1535.7, 583.7 1589.2 C 726.5 1590.9, 926.5 1486.0, 1059.8 1621.0 C 1202.7 1610.5, 1402.7 1452.6, 1536.0 1598.0 C 1678.8 1612.0, 1878.8 1476.8, 2012.2 1534.1 C 2155.0 1534.8, 2355.0 1528.7, 2488.3 1468.1 C 2631.2 1466.5, 2831.2 1554.1, 2964.5 1440.0 C 3107.3 1426.3, 3307.3 1565.6, 3440.6 1466.8" fill="none" stroke="url(#ribbon286)" stroke-width="38.4" stroke-linecap="round" stroke-opacity="0.250" /></g><g transform="rotate(-5.74 1536.0 1536.0)"><path d="M-368.6 1709.0 C -241.7 1729.5, -63.9 1684.3, 54.6 1798.1 C 181.6 1805.2, 359.4 1669.4, 477.9 1799.7 C 604.8 1793.9, 782.6 1637.4, 901.1 1746.2 C 1028.1 1744.5, 1205.9 1690.5, 1324.4 1670.1 C 1451.3 1671.8, 1629.1 1727.2, 1747.6 1617.6 C 1874.6 1648.6, 2052.4 1741.7, 2170.9 1620.5 C 2297.9 1614.0, 2475.6 1743.6, 2594.1 1677.0 C 2721.1 1665.8, 2898.9 1745.9, 3017.4 1753.0 C 3144.4 1760.4, 3322.1 1682.6, 3440.6 1802.2" fill="none" stroke="url(#ribbon286)" stroke-width="34.4" stroke-linecap="round" stroke-opacity="0.276" /></g><g transform="rotate(-5.16 1536.0 1536.0)"><path d="M-368.6 1903.4 C -254.4 1823.1, -94.4 1972.6, 12.3 1831.5 C 126.6 1851.4, 286.6 1955.0, 393.2 1908.0 C 507.5 1908.7, 667.5 1901.7, 774.1 1981.7 C 888.4 2012.5, 1048.4 1824.5, 1155.1 2007.9 C 1269.4 1971.1, 1429.3 1849.1, 1536.0 1970.7 C 1650.3 1995.2, 1810.3 1835.9, 1916.9 1892.7 C 2031.2 1895.1, 2191.2 1909.5, 2297.9 1821.2 C 2412.1 1839.3, 2572.1 1994.0, 2678.8 1799.6 C 2793.1 1769.8, 2953.1 1969.2, 3059.7 1840.9 C 3174.0 1819.4, 3334.0 1968.4, 3440.6 1920.2" fill="none" stroke="url(#ribbon286)" stroke-width="30.4" stroke-linecap="round" stroke-opacity="0.302" /></g><g transform="rotate(-4.58 1536.0 1536.0)"><path d="M-368.6 2019.0 C -264.8 2040.6, -119.3 2011.4, -22.3 2112.8 C 81.5 2126.3, 227.0 1968.5, 324.0 2128.1 C 427.8 2167.9, 573.3 1982.1, 670.3 2077.3 C 774.1 2074.0, 919.6 1995.0, 1016.6 1991.1 C 1120.4 1992.6, 1265.9 2033.3, 1362.9 1921.9 C 1466.7 1903.8, 1612.2 2051.3, 1709.1 1911.6 C 1813.0 1902.7, 1958.5 2113.4, 2055.4 1966.5 C 2159.3 1970.9, 2304.8 2077.3, 2401.7 2053.2 C 2505.6 2058.8, 2651.1 1992.5, 2748.0 2119.2 C 2851.9 2112.8, 2997.4 1957.3, 3094.3 2124.5 C 3198.2 2112.0, 3343.7 1956.0, 3440.6 2065.7" fill="none" stroke="url(#ribbon286)" stroke-width="26.4" stroke-linecap="round" stroke-opacity="0.328" /></g><g transform="rotate(-4.00 1536.0 1536.0)"><path d="M-368.6 2213.8 C -273.4 2122.3, -140.1 2247.3, -51.2 2195.7 C 44.0 2192.3, 177.4 2226.4, 266.2 2285.4 C 361.5 2291.8, 494.8 2149.7, 583.7 2331.7 C 678.9 2369.6, 812.2 2132.5, 901.1 2306.5 C 996.4 2296.7, 1129.7 2165.9, 1218.6 2224.9 C 1313.8 2228.9, 1447.1 2208.5, 1536.0 2136.6 C 1631.2 2132.9, 1764.6 2300.1, 1853.4 2095.1 C 1948.7 2135.0, 2082.0 2347.4, 2170.9 2125.6 C 2266.1 2098.4, 2399.4 2303.8, 2488.3 2209.5 C 2583.6 2209.1, 2716.9 2215.7, 2805.8 2296.0 C 2901.0 2316.1, 3034.3 2147.8, 3123.2 2332.6 C 3218.4 2348.9, 3351.8 2146.6, 3440.6 2297.2" fill="none" stroke="url(#ribbon286)" stroke-width="22.4" stroke-linecap="round" stroke-opacity="0.354" /></g><g transform="rotate(-3.42 1536.0 1536.0)"><path d="M-368.6 2491.4 C -225.8 2647.4, -25.8 2454.2, 107.5 2604.6 C 250.4 2634.3, 450.4 2429.5, 583.7 2530.6 C 726.5 2538.0, 926.5 2471.3, 1059.8 2432.9 C 1202.7 2415.2, 1402.7 2544.7, 1536.0 2370.6 C 1678.8 2394.8, 1878.8 2574.6, 2012.2 2381.6 C 2155.0 2401.2, 2355.0 2576.1, 2488.3 2459.1 C 2631.2 2449.0, 2831.2 2504.9, 2964.5 2556.2 C 3107.3 2556.6, 3307.3 2417.8, 3440.6 2614.0" fill="none" stroke="url(#ribbon286)" stroke-width="18.4" stroke-linecap="round" stroke-opacity="0.380" /></g><g transform="rotate(-2.84 1536.0 1536.0)"><path d="M-368.6 2623.9 C -241.7 2542.1, -63.9 2744.4, 54.6 2512.4 C 181.6 2542.1, 359.4 2678.5, 477.9 2598.1 C 604.8 2594.0, 782.6 2636.1, 901.1 2699.6 C 1028.1 2672.9, 1205.9 2599.8, 1324.4 2755.1 C 1451.3 2718.9, 1629.1 2487.6, 1747.6 2731.1 C 1874.6 2703.0, 2052.4 2529.2, 2170.9 2642.1 C 2297.9 2638.8, 2475.6 2617.7, 2594.1 2542.1 C 2721.1 2529.3, 2898.9 2710.8, 3017.4 2491.7 C 3144.4 2489.3, 3322.1 2761.1, 3440.6 2521.6" fill="none" stroke="url(#ribbon286)" stroke-width="14.4" stroke-linecap="round" stroke-opacity="0.406" /></g></g>
  <g><ellipse cx="1536.0" cy="1551.9" rx="728.6" ry="605.7" fill="url(#extrude286)" opacity="0.220" /><ellipse cx="1536.0" cy="1567.7" rx="736.0" ry="610.9" fill="url(#extrude286)" opacity="0.205" /><ellipse cx="1536.0" cy="1583.6" rx="743.4" ry="616.1" fill="url(#extrude286)" opacity="0.190" /><ellipse cx="1536.0" cy="1599.5" rx="750.9" ry="621.3" fill="url(#extrude286)" opacity="0.175" /><ellipse cx="1536.0" cy="1615.4" rx="758.3" ry="626.5" fill="url(#extrude286)" opacity="0.160" /><ellipse cx="1536.0" cy="1631.2" rx="765.7" ry="631.7" fill="url(#extrude286)" opacity="0.145" /><ellipse cx="1536.0" cy="1647.1" rx="773.2" ry="636.9" fill="url(#extrude286)" opacity="0.130" /><ellipse cx="1536.0" cy="1663.0" rx="780.6" ry="642.1" fill="url(#extrude286)" opacity="0.115" /><ellipse cx="1536.0" cy="1678.8" rx="788.0" ry="647.4" fill="url(#extrude286)" opacity="0.100" /><ellipse cx="1536.0" cy="1694.7" rx="795.5" ry="652.6" fill="url(#extrude286)" opacity="0.085" /><ellipse cx="1536.0" cy="1710.6" rx="802.9" ry="657.8" fill="url(#extrude286)" opacity="0.070" /><ellipse cx="1536.0" cy="1726.5" rx="810.3" ry="663.0" fill="url(#extrude286)" opacity="0.055" /></g>
  <ellipse cx="1536.0" cy="1726.5" rx="773.2" ry="214.9" fill="#0B1D2D" opacity="0.24" />
  <ellipse cx="1536.0" cy="1536.0" rx="743.4" ry="651.3" fill="url(#orb286)" stroke="#FFFFFF" stroke-opacity="0.42" stroke-width="7" />
  <ellipse cx="1431.9" cy="1392.7" rx="505.5" ry="299.6" fill="#FFFFFF" opacity="0.25" />
  <path d="M 199.4 399.4 C 1013.8 -30.7, 2058.2 768.0, 2872.6 215.0 L 2872.6 983.0 C 2089.0 1228.8, 1013.8 307.2, 199.4 1167.4 Z" fill="url(#glass286)" />
  <rect x="270" y="270" width="2532" height="2532" rx="430" fill="none" stroke="#FFFFFF" stroke-opacity="0.30" stroke-width="5" />
  <rect x="288.4" y="288.4" width="2495.1" height="2495.1" rx="399" fill="none" stroke="#53E3A6" stroke-opacity="0.35" stroke-width="3" />
  <g filter="url(#soft286)"><rect x="1703" y="2359" width="66" height="2" fill="#FFFFFF" opacity="0.689" /><rect x="1735" y="2327" width="2" height="66" fill="#FFFFFF" opacity="0.689" /><rect x="785" y="1523" width="50" height="2" fill="#FFFFFF" opacity="0.491" /><rect x="809" y="1499" width="2" height="50" fill="#FFFFFF" opacity="0.491" /><rect x="2450" y="1871" width="68" height="2" fill="#FFFFFF" opacity="0.760" /><rect x="2483" y="1838" width="2" height="68" fill="#FFFFFF" opacity="0.760" /><rect x="2028" y="2064" width="78" height="2" fill="#FFFFFF" opacity="0.401" /><rect x="2066" y="2026" width="2" height="78" fill="#FFFFFF" opacity="0.401" /><rect x="1584" y="2157" width="84" height="2" fill="#FFFFFF" opacity="0.316" /><rect x="1625" y="2116" width="2" height="84" fill="#FFFFFF" opacity="0.316" /><rect x="2631" y="818" width="70" height="2" fill="#FFFFFF" opacity="0.404" /><rect x="2665" y="784" width="2" height="70" fill="#FFFFFF" opacity="0.404" /><rect x="1227" y="507" width="36" height="2" fill="#FFFFFF" opacity="0.719" /><rect x="1244" y="490" width="2" height="36" fill="#FFFFFF" opacity="0.719" /><rect x="520" y="1431" width="72" height="2" fill="#FFFFFF" opacity="0.750" /><rect x="555" y="1396" width="2" height="72" fill="#FFFFFF" opacity="0.750" /><rect x="1121" y="1023" width="48" height="2" fill="#FFFFFF" opacity="0.825" /><rect x="1144" y="1000" width="2" height="48" fill="#FFFFFF" opacity="0.825" /><rect x="2675" y="1161" width="40" height="2" fill="#FFFFFF" opacity="0.410" /><rect x="2694" y="1142" width="2" height="40" fill="#FFFFFF" opacity="0.410" /><rect x="1439" y="848" width="68" height="2" fill="#FFFFFF" opacity="0.343" /><rect x="1472" y="815" width="2" height="68" fill="#FFFFFF" opacity="0.343" /><rect x="954" y="483" width="70" height="2" fill="#FFFFFF" opacity="0.733" /><rect x="988" y="449" width="2" height="70" fill="#FFFFFF" opacity="0.733" /><rect x="1070" y="1743" width="40" height="2" fill="#FFFFFF" opacity="0.758" /><rect x="1089" y="1724" width="2" height="40" fill="#FFFFFF" opacity="0.758" /><rect x="1885" y="259" width="48" height="2" fill="#FFFFFF" opacity="0.604" /><rect x="1908" y="236" width="2" height="48" fill="#FFFFFF" opacity="0.604" /><rect x="1738" y="1669" width="58" height="2" fill="#FFFFFF" opacity="0.507" /><rect x="1766" y="1641" width="2" height="58" fill="#FFFFFF" opacity="0.507" /><rect x="1475" y="1589" width="32" height="2" fill="#FFFFFF" opacity="0.719" /><rect x="1490" y="1574" width="2" height="32" fill="#FFFFFF" opacity="0.719" /><rect x="562" y="1637" width="28" height="2" fill="#FFFFFF" opacity="0.373" /><rect x="575" y="1624" width="2" height="28" fill="#FFFFFF" opacity="0.373" /><rect x="1379" y="777" width="66" height="2" fill="#FFFFFF" opacity="0.466" /><rect x="1411" y="745" width="2" height="66" fill="#FFFFFF" opacity="0.466" /><rect x="680" y="2651" width="38" height="2" fill="#FFFFFF" opacity="0.381" /><rect x="698" y="2633" width="2" height="38" fill="#FFFFFF" opacity="0.381" /><rect x="642" y="2086" width="62" height="2" fill="#FFFFFF" opacity="0.615" /><rect x="672" y="2056" width="2" height="62" fill="#FFFFFF" opacity="0.615" /><rect x="321" y="270" width="56" height="2" fill="#FFFFFF" opacity="0.304" /><rect x="348" y="243" width="2" height="56" fill="#FFFFFF" opacity="0.304" /><rect x="633" y="427" width="62" height="2" fill="#FFFFFF" opacity="0.821" /><rect x="663" y="397" width="2" height="62" fill="#FFFFFF" opacity="0.821" /><rect x="2619" y="2021" width="40" height="2" fill="#FFFFFF" opacity="0.487" /><rect x="2638" y="2002" width="2" height="40" fill="#FFFFFF" opacity="0.487" /><rect x="913" y="1988" width="44" height="2" fill="#FFFFFF" opacity="0.730" /><rect x="934" y="1967" width="2" height="44" fill="#FFFFFF" opacity="0.730" /><rect x="1027" y="2127" width="34" height="2" fill="#FFFFFF" opacity="0.766" /><rect x="1043" y="2111" width="2" height="34" fill="#FFFFFF" opacity="0.766" /><rect x="772" y="2196" width="44" height="2" fill="#FFFFFF" opacity="0.301" /><rect x="793" y="2175" width="2" height="44" fill="#FFFFFF" opacity="0.301" /></g>
  <g opacity="0.52"><path d="M996 1582 C1316 1006, 1572 2158, 2148 1582" fill="none" stroke="#0C2030" stroke-width="90" /><circle cx="1188" cy="1582" r="109" fill="#0C2030" /><circle cx="1572" cy="1582" r="109" fill="#0C2030" /><circle cx="1956" cy="1582" r="109" fill="#0C2030" /></g>
  <g filter="url(#soft286)"><path d="M960 1536 C1280 960, 1536 2112, 2112 1536" fill="none" stroke="url(#symbol286)" stroke-width="90" /><circle cx="1152" cy="1536" r="109" fill="url(#symbol286)" /><circle cx="1536" cy="1536" r="109" fill="url(#symbol286)" /><circle cx="1920" cy="1536" r="109" fill="url(#symbol286)" /></g>
  <rect x="138" y="138" width="2796" height="2796" rx="629" fill="#FFFFFF" filter="url(#grain286)" opacity="0.18" />
</svg>
