<svg xmlns="http://www.w3.org/2000/svg" width="3072" height="3072" viewBox="0 0 3072 3072">
  <title>QuartzOS App Icon 319 - prime_monitor_319</title>
  <defs><linearGradient id="bg318" x1="0%" y1="0%" x2="100%" y2="100%"><stop offset="0%" stop-color="#FF6AB3" /><stop offset="26%" stop-color="#FFD84D" /><stop offset="56%" stop-color="#36D1FF" /><stop offset="78%" stop-color="#4B91A3" /><stop offset="100%" stop-color="#1A2630" /></linearGradient><radialGradient id="sun318" cx="24%" cy="13%" r="88%"><stop offset="0%" stop-color="#FFFFFF" stop-opacity="0.62" /><stop offset="30%" stop-color="#3B82FF" stop-opacity="0.35" /><stop offset="100%" stop-color="#3B82FF" stop-opacity="0" /></radialGradient><linearGradient id="glass318" x1="0%" y1="0%" x2="0%" y2="100%"><stop offset="0%" stop-color="#FFFFFF" stop-opacity="0.70" /><stop offset="46%" stop-color="#FFFFFF" stop-opacity="0.26" /><stop offset="100%" stop-color="#FFFFFF" stop-opacity="0.00" /></linearGradient><linearGradient id="ribbon318" x1="0%" y1="0%" x2="100%" y2="0%"><stop offset="0%" stop-color="#FF6AB3" stop-opacity="0.18" /><stop offset="34%" stop-color="#FFD84D" stop-opacity="0.72" /><stop offset="66%" stop-color="#36D1FF" stop-opacity="0.72" /><stop offset="100%" stop-color="#3B82FF" stop-opacity="0.18" /></linearGradient><radialGradient id="orb318" cx="34%" cy="27%" r="74%"><stop offset="0%" stop-color="#FFFFFF" stop-opacity="0.84" /><stop offset="30%" stop-color="#FF6AB3" stop-opacity="0.52" /><stop offset="68%" stop-color="#FFD84D" stop-opacity="0.42" /><stop offset="100%" stop-color="#36D1FF" stop-opacity="0.20" /></radialGradient><linearGradient id="extrude318" x1="0%" y1="0%" x2="0%" y2="100%"><stop offset="0%" stop-color="#15283C" stop-opacity="0.45" /><stop offset="100%" stop-color="#08131D" stop-opacity="0.06" /></linearGradient><linearGradient id="symbol318" x1="0%" y1="0%" x2="100%" y2="100%"><stop offset="0%" stop-color="#FFFFFF" /><stop offset="100%" stop-color="#3B82FF" /></linearGradient><filter id="shadow318" x="-40%" y="-40%" width="180%" height="180%"><feDropShadow dx="0" dy="49" stdDeviation="86" flood-color="#06111A" flood-opacity="0.54" /></filter><filter id="soft318" x="-40%" y="-40%" width="180%" height="180%"><feDropShadow dx="0" dy="0" stdDeviation="14" flood-color="#FF6AB3" flood-opacity="0.45" /></filter><filter id="grain318"><feTurbulence type="fractalNoise" baseFrequency="0.955" numOctaves="2" seed="318" /><feColorMatrix type="saturate" values="0" /><feComponentTransfer><feFuncA type="table" tableValues="0 0.09" /></feComponentTransfer></filter></defs>
  <rect x="138" y="138" width="2796" height="2796" rx="629" fill="url(#bg318)" filter="url(#shadow318)" />
  <rect x="138" y="138" width="2796" height="2796" rx="629" fill="url(#sun318)" />
  <g><circle cx="486" cy="2453" r="72" fill="#FFFFFF" opacity="0.184" /><circle cx="2550" cy="812" r="56" fill="#FFFFFF" opacity="0.103" /><circle cx="1836" cy="1769" r="126" fill="#FFFFFF" opacity="0.071" /><circle cx="2502" cy="545" r="78" fill="#FFFFFF" opacity="0.147" /><circle cx="1896" cy="609" r="109" fill="#FFFFFF" opacity="0.168" /><circle cx="2395" cy="1099" r="52" fill="#FFFFFF" opacity="0.168" /><circle cx="1757" cy="719" r="62" fill="#FFFFFF" opacity="0.142" /><circle cx="841" cy="2108" r="84" fill="#FFFFFF" opacity="0.148" /><circle cx="420" cy="1305" r="141" fill="#FFFFFF" opacity="0.129" /><circle cx="1425" cy="2628" r="44" fill="#FFFFFF" opacity="0.202" /><circle cx="2531" cy="1643" r="146" fill="#FFFFFF" opacity="0.160" /><circle cx="1246" cy="1717" r="78" fill="#FFFFFF" opacity="0.083" /><circle cx="582" cy="833" r="96" fill="#FFFFFF" opacity="0.200" /><circle cx="630" cy="971" r="83" fill="#FFFFFF" opacity="0.182" /><circle cx="1622" cy="1912" r="140" fill="#FFFFFF" opacity="0.228" /><circle cx="1311" cy="1811" r="111" fill="#FFFFFF" opacity="0.074" /><circle cx="411" cy="1128" r="44" fill="#FFFFFF" opacity="0.200" /><circle cx="2422" cy="2326" r="112" fill="#FFFFFF" opacity="0.165" /><circle cx="1750" cy="728" r="101" fill="#FFFFFF" opacity="0.070" /><circle cx="1301" cy="853" r="102" fill="#FFFFFF" opacity="0.171" /><circle cx="933" cy="2134" r="139" fill="#FFFFFF" opacity="0.224" /><circle cx="1448" cy="1503" r="43" fill="#FFFFFF" opacity="0.162" /><circle cx="1697" cy="1063" r="81" fill="#FFFFFF" opacity="0.169" /><circle cx="1953" cy="2466" r="153" fill="#FFFFFF" opacity="0.227" /><circle cx="1641" cy="1357" r="75" fill="#FFFFFF" opacity="0.164" /><circle cx="1074" cy="641" r="64" fill="#FFFFFF" opacity="0.196" /><circle cx="1123" cy="2028" r="79" fill="#FFFFFF" opacity="0.201" /><circle cx="2295" cy="606" r="128" fill="#FFFFFF" opacity="0.136" /></g>
  <g><path d="M 177.2 579.3 L 2884.1 302.8 L 2884.1 749.1 L 177.2 1025.6 Z" fill="#FFFFFF" opacity="0.182" /><path d="M 274.1 878.2 L 2844.9 601.7 L 2844.9 1031.2 L 274.1 1307.7 Z" fill="#FFFFFF" opacity="0.114" /><path d="M 298.3 1142.6 L 2863.5 866.1 L 2863.5 1296.3 L 298.3 1572.8 Z" fill="#FFFFFF" opacity="0.150" /><path d="M 300.4 1355.7 L 2721.6 1079.2 L 2721.6 1506.6 L 300.4 1783.1 Z" fill="#FFFFFF" opacity="0.131" /><path d="M 176.2 1665.5 L 2852.1 1389.0 L 2852.1 1848.5 L 176.2 2125.0 Z" fill="#FFFFFF" opacity="0.213" /><path d="M 332.1 1933.1 L 2749.3 1656.6 L 2749.3 2134.9 L 332.1 2411.4 Z" fill="#FFFFFF" opacity="0.214" /><path d="M 291.6 2200.1 L 2741.0 1923.6 L 2741.0 2370.8 L 291.6 2647.3 Z" fill="#FFFFFF" opacity="0.214" /><path d="M 177.6 2425.8 L 2888.9 2149.3 L 2888.9 2609.2 L 177.6 2885.7 Z" fill="#FFFFFF" opacity="0.162" /></g>
  <g filter="url(#soft318)"><g transform="rotate(-9.20 1536.0 1536.0)"><path d="M-368.6 543.3 C -225.8 510.2, -25.8 573.0, 107.5 549.5 C 250.4 549.1, 450.4 535.9, 583.7 587.0 C 726.5 569.9, 926.5 499.0, 1059.8 598.0 C 1202.7 607.5, 1402.7 519.1, 1536.0 575.8 C 1678.8 572.0, 1878.8 524.6, 2012.2 533.9 C 2155.0 530.2, 2355.0 548.2, 2488.3 497.6 C 2631.2 509.6, 2831.2 591.9, 2964.5 489.1 C 3107.3 484.5, 3307.3 595.8, 3440.6 513.4" fill="none" stroke="url(#ribbon318)" stroke-width="58.4" stroke-linecap="round" stroke-opacity="0.120" /></g><g transform="rotate(-8.62 1536.0 1536.0)"><path d="M-368.6 709.5 C -241.7 685.3, -63.9 717.9, 54.6 650.5 C 181.6 639.2, 359.4 763.6, 477.9 653.9 C 604.8 664.0, 782.6 742.6, 901.1 691.0 C 1028.1 686.2, 1205.9 717.8, 1324.4 739.4 C 1451.3 749.2, 1629.1 694.4, 1747.6 769.6 C 1874.6 777.3, 2052.4 646.3, 2170.9 763.3 C 2297.9 750.5, 2475.6 672.6, 2594.1 724.4 C 2721.1 728.5, 2898.9 698.3, 3017.4 676.5 C 3144.4 684.2, 3322.1 731.3, 3440.6 648.5" fill="none" stroke="url(#ribbon318)" stroke-width="54.4" stroke-linecap="round" stroke-opacity="0.146" /></g><g transform="rotate(-8.04 1536.0 1536.0)"><path d="M-368.6 969.5 C -254.4 1025.4, -94.4 948.7, 12.3 1038.3 C 126.6 1059.2, 286.6 894.1, 393.2 1024.2 C 507.5 1042.8, 667.5 930.5, 774.1 976.9 C 888.4 974.4, 1048.4 966.5, 1155.1 925.1 C 1269.4 926.1, 1429.3 1021.9, 1536.0 900.3 C 1650.3 901.5, 1810.3 1046.2, 1916.9 917.5 C 2031.2 928.8, 2191.2 993.5, 2297.9 966.2 C 2412.1 967.3, 2572.1 973.5, 2678.8 1017.0 C 2793.1 1009.9, 2953.1 915.3, 3059.7 1039.0 C 3174.0 1051.1, 3334.0 899.3, 3440.6 1018.8" fill="none" stroke="url(#ribbon318)" stroke-width="50.4" stroke-linecap="round" stroke-opacity="0.172" /></g><g transform="rotate(-7.46 1536.0 1536.0)"><path d="M-368.6 1052.9 C -264.8 1131.1, -119.3 979.8, -22.3 1127.6 C 81.5 1128.6, 227.0 969.9, 324.0 1092.9 C 427.8 1107.7, 573.3 1006.6, 670.3 1034.0 C 774.1 1034.9, 919.6 1065.1, 1016.6 986.6 C 1120.4 974.6, 1265.9 1080.1, 1362.9 979.4 C 1466.7 983.1, 1612.2 1093.9, 1709.1 1016.8 C 1813.0 1005.1, 1958.5 1078.7, 2055.4 1076.2 C 2159.3 1067.6, 2304.8 1039.5, 2401.7 1121.4 C 2505.6 1131.4, 2651.1 1007.8, 2748.0 1125.1 C 2851.9 1114.2, 2997.4 982.4, 3094.3 1085.0 C 3198.2 1095.5, 3343.7 1024.7, 3440.6 1025.5" fill="none" stroke="url(#ribbon318)" stroke-width="46.4" stroke-linecap="round" stroke-opacity="0.198" /></g><g transform="rotate(-6.88 1536.0 1536.0)"><path d="M-368.6 1270.3 C -273.4 1231.2, -140.1 1291.7, -51.2 1188.9 C 44.0 1177.8, 177.4 1326.4, 266.2 1200.0 C 361.5 1189.7, 494.8 1339.9, 583.7 1253.8 C 678.9 1250.6, 812.2 1278.8, 901.1 1317.6 C 996.4 1321.2, 1129.7 1232.3, 1218.6 1352.6 C 1313.8 1355.2, 1447.1 1195.1, 1536.0 1337.7 C 1631.2 1324.7, 1764.6 1204.3, 1853.4 1281.9 C 1948.7 1282.0, 2082.0 1261.5, 2170.9 1219.0 C 2266.1 1217.7, 2399.4 1328.8, 2488.3 1187.2 C 2583.6 1189.1, 2716.9 1326.3, 2805.8 1205.8 C 2901.0 1217.1, 3034.3 1344.5, 3123.2 1263.5 C 3218.4 1264.0, 3351.8 1273.4, 3440.6 1325.3" fill="none" stroke="url(#ribbon318)" stroke-width="42.4" stroke-linecap="round" stroke-opacity="0.224" /></g><g transform="rotate(-6.30 1536.0 1536.0)"><path d="M-368.6 1491.8 C -225.8 1509.6, -25.8 1485.8, 107.5 1441.9 C 250.4 1437.7, 450.4 1550.5, 583.7 1402.8 C 726.5 1371.6, 926.5 1560.3, 1059.8 1417.6 C 1202.7 1446.7, 1402.7 1579.6, 1536.0 1477.4 C 1678.8 1480.6, 1878.8 1505.4, 2012.2 1546.0 C 2155.0 1534.2, 2355.0 1443.8, 2488.3 1581.6 C 2631.2 1557.9, 2831.2 1400.5, 2964.5 1562.8 C 3107.3 1587.6, 3307.3 1455.4, 3440.6 1500.9" fill="none" stroke="url(#ribbon318)" stroke-width="38.4" stroke-linecap="round" stroke-opacity="0.250" /></g><g transform="rotate(-5.72 1536.0 1536.0)"><path d="M-368.6 1669.1 C -241.7 1572.2, -63.9 1780.8, 54.6 1610.1 C 181.6 1620.2, 359.4 1700.7, 477.9 1683.9 C 604.8 1681.6, 782.6 1662.7, 901.1 1748.7 C 1028.1 1719.0, 1205.9 1584.5, 1324.4 1765.2 C 1451.3 1778.6, 1629.1 1638.4, 1747.6 1723.5 C 1874.6 1703.4, 2052.4 1612.9, 2170.9 1648.7 C 2297.9 1654.0, 2475.6 1677.2, 2594.1 1586.4 C 2721.1 1607.8, 2898.9 1717.0, 3017.4 1574.2 C 3144.4 1554.4, 3322.1 1725.4, 3440.6 1619.6" fill="none" stroke="url(#ribbon318)" stroke-width="34.4" stroke-linecap="round" stroke-opacity="0.276" /></g><g transform="rotate(-5.14 1536.0 1536.0)"><path d="M-368.6 1815.7 C -254.4 1931.6, -94.4 1759.1, 12.3 1917.9 C 126.6 1922.7, 286.6 1706.1, 393.2 1870.3 C 507.5 1878.6, 667.5 1762.6, 774.1 1789.6 C 888.4 1787.2, 1048.4 1836.1, 1155.1 1724.8 C 1269.4 1710.9, 1429.3 1885.5, 1536.0 1715.1 C 1650.3 1725.0, 1810.3 1919.8, 1916.9 1766.5 C 2031.2 1755.0, 2191.2 1868.2, 2297.9 1847.8 C 2412.1 1836.4, 2572.1 1805.8, 2678.8 1909.6 C 2793.1 1912.1, 2953.1 1714.5, 3059.7 1914.5 C 3174.0 1939.0, 3334.0 1701.3, 3440.6 1859.5" fill="none" stroke="url(#ribbon318)" stroke-width="30.4" stroke-linecap="round" stroke-opacity="0.302" /></g><g transform="rotate(-4.56 1536.0 1536.0)"><path d="M-368.6 2081.3 C -264.8 2192.6, -119.3 2027.7, -22.3 2192.9 C 81.5 2180.3, 227.0 2033.8, 324.0 2154.1 C 427.8 2145.5, 573.3 2001.3, 670.3 2071.1 C 774.1 2068.0, 919.6 2088.0, 1016.6 1994.3 C 1120.4 1976.2, 1265.9 2151.1, 1362.9 1970.3 C 1466.7 1964.6, 1612.2 2119.2, 1709.1 2013.6 C 1813.0 1988.3, 1958.5 2103.5, 2055.4 2097.9 C 2159.3 2094.4, 2304.8 2074.2, 2401.7 2172.2 C 2505.6 2156.4, 2651.1 2009.5, 2748.0 2191.3 C 2851.9 2220.3, 2997.4 1952.3, 3094.3 2143.7 C 3198.2 2121.0, 3343.7 2056.5, 3440.6 2058.2" fill="none" stroke="url(#ribbon318)" stroke-width="26.4" stroke-linecap="round" stroke-opacity="0.328" /></g><g transform="rotate(-3.98 1536.0 1536.0)"><path d="M-368.6 2272.6 C -273.4 2309.6, -140.1 2261.6, -51.2 2378.4 C 44.0 2357.7, 177.4 2171.9, 266.2 2385.3 C 361.5 2357.4, 494.8 2214.2, 583.7 2323.8 C 678.9 2317.7, 812.2 2234.8, 901.1 2231.3 C 996.4 2247.5, 1129.7 2301.1, 1218.6 2163.9 C 1313.8 2136.8, 1447.1 2342.1, 1536.0 2162.4 C 1631.2 2136.7, 1764.6 2364.9, 1853.4 2227.8 C 1948.7 2215.2, 2082.0 2292.2, 2170.9 2320.4 C 2266.1 2337.4, 2399.4 2229.2, 2488.3 2384.0 C 2583.6 2347.9, 2716.9 2228.3, 2805.8 2380.1 C 2901.0 2374.7, 3034.3 2185.4, 3123.2 2311.0 C 3218.4 2321.6, 3351.8 2237.8, 3440.6 2218.6" fill="none" stroke="url(#ribbon318)" stroke-width="22.4" stroke-linecap="round" stroke-opacity="0.354" /></g><g transform="rotate(-3.40 1536.0 1536.0)"><path d="M-368.6 2437.3 C -225.8 2540.6, -25.8 2386.4, 107.5 2474.6 C 250.4 2463.3, 450.4 2406.8, 583.7 2377.0 C 726.5 2372.3, 926.5 2476.3, 1059.8 2315.9 C 1202.7 2358.0, 1402.7 2520.7, 1536.0 2328.5 C 1678.8 2362.7, 1878.8 2555.3, 2012.2 2407.1 C 2155.0 2412.7, 2355.0 2456.3, 2488.3 2504.0 C 2631.2 2483.7, 2831.2 2413.2, 2964.5 2560.4 C 3107.3 2526.8, 3307.3 2302.0, 3440.6 2542.1" fill="none" stroke="url(#ribbon318)" stroke-width="18.4" stroke-linecap="round" stroke-opacity="0.380" /></g><g transform="rotate(-2.82 1536.0 1536.0)"><path d="M-368.6 2636.1 C -241.7 2517.4, -63.9 2763.6, 54.6 2506.5 C 181.6 2474.2, 359.4 2770.7, 477.9 2567.3 C 604.8 2553.9, 782.6 2679.0, 901.1 2669.8 C 1028.1 2660.8, 1205.9 2619.2, 1324.4 2751.9 C 1451.3 2767.3, 1629.1 2502.7, 1747.6 2763.8 C 1874.6 2749.4, 2052.4 2488.0, 2170.9 2698.2 C 2297.9 2717.1, 2475.6 2575.4, 2594.1 2595.0 C 2721.1 2593.9, 2898.9 2675.0, 3017.4 2516.7 C 3144.4 2513.4, 3322.1 2756.6, 3440.6 2510.9" fill="none" stroke="url(#ribbon318)" stroke-width="14.4" stroke-linecap="round" stroke-opacity="0.406" /></g></g>
  <g><ellipse cx="1536.0" cy="1551.9" rx="728.6" ry="605.7" fill="url(#extrude318)" opacity="0.220" /><ellipse cx="1536.0" cy="1567.7" rx="736.0" ry="610.9" fill="url(#extrude318)" opacity="0.205" /><ellipse cx="1536.0" cy="1583.6" rx="743.4" ry="616.1" fill="url(#extrude318)" opacity="0.190" /><ellipse cx="1536.0" cy="1599.5" rx="750.9" ry="621.3" fill="url(#extrude318)" opacity="0.175" /><ellipse cx="1536.0" cy="1615.4" rx="758.3" ry="626.5" fill="url(#extrude318)" opacity="0.160" /><ellipse cx="1536.0" cy="1631.2" rx="765.7" ry="631.7" fill="url(#extrude318)" opacity="0.145" /><ellipse cx="1536.0" cy="1647.1" rx="773.2" ry="636.9" fill="url(#extrude318)" opacity="0.130" /><ellipse cx="1536.0" cy="1663.0" rx="780.6" ry="642.1" fill="url(#extrude318)" opacity="0.115" /><ellipse cx="1536.0" cy="1678.8" rx="788.0" ry="647.4" fill="url(#extrude318)" opacity="0.100" /><ellipse cx="1536.0" cy="1694.7" rx="795.5" ry="652.6" fill="url(#extrude318)" opacity="0.085" /><ellipse cx="1536.0" cy="1710.6" rx="802.9" ry="657.8" fill="url(#extrude318)" opacity="0.070" /><ellipse cx="1536.0" cy="1726.5" rx="810.3" ry="663.0" fill="url(#extrude318)" opacity="0.055" /></g>
  <ellipse cx="1536.0" cy="1726.5" rx="773.2" ry="214.9" fill="#0B1D2D" opacity="0.24" />
  <ellipse cx="1536.0" cy="1536.0" rx="743.4" ry="651.3" fill="url(#orb318)" stroke="#FFFFFF" stroke-opacity="0.42" stroke-width="7" />
  <ellipse cx="1431.9" cy="1392.7" rx="505.5" ry="299.6" fill="#FFFFFF" opacity="0.25" />
  <path d="M 199.4 399.4 C 1013.8 -30.7, 2058.2 768.0, 2872.6 215.0 L 2872.6 983.0 C 2089.0 1228.8, 1013.8 307.2, 199.4 1167.4 Z" fill="url(#glass318)" />
  <rect x="270" y="270" width="2532" height="2532" rx="430" fill="none" stroke="#FFFFFF" stroke-opacity="0.30" stroke-width="5" />
  <rect x="288.4" y="288.4" width="2495.1" height="2495.1" rx="399" fill="none" stroke="#FF6AB3" stroke-opacity="0.35" stroke-width="3" />
  <g filter="url(#soft318)"><rect x="2711" y="2710" width="34" height="2" fill="#FFFFFF" opacity="0.457" /><rect x="2727" y="2694" width="2" height="34" fill="#FFFFFF" opacity="0.457" /><rect x="1024" y="2687" width="76" height="2" fill="#FFFFFF" opacity="0.366" /><rect x="1061" y="2650" width="2" height="76" fill="#FFFFFF" opacity="0.366" /><rect x="2501" y="1788" width="36" height="2" fill="#FFFFFF" opacity="0.343" /><rect x="2518" y="1771" width="2" height="36" fill="#FFFFFF" opacity="0.343" /><rect x="2717" y="2359" width="84" height="2" fill="#FFFFFF" opacity="0.322" /><rect x="2758" y="2318" width="2" height="84" fill="#FFFFFF" opacity="0.322" /><rect x="975" y="2513" width="72" height="2" fill="#FFFFFF" opacity="0.487" /><rect x="1010" y="2478" width="2" height="72" fill="#FFFFFF" opacity="0.487" /><rect x="345" y="1670" width="26" height="2" fill="#FFFFFF" opacity="0.727" /><rect x="357" y="1658" width="2" height="26" fill="#FFFFFF" opacity="0.727" /><rect x="1306" y="1151" width="84" height="2" fill="#FFFFFF" opacity="0.356" /><rect x="1347" y="1110" width="2" height="84" fill="#FFFFFF" opacity="0.356" /><rect x="1375" y="793" width="50" height="2" fill="#FFFFFF" opacity="0.824" /><rect x="1399" y="769" width="2" height="50" fill="#FFFFFF" opacity="0.824" /><rect x="505" y="762" width="26" height="2" fill="#FFFFFF" opacity="0.584" /><rect x="517" y="750" width="2" height="26" fill="#FFFFFF" opacity="0.584" /><rect x="1844" y="734" width="48" height="2" fill="#FFFFFF" opacity="0.538" /><rect x="1867" y="711" width="2" height="48" fill="#FFFFFF" opacity="0.538" /><rect x="1377" y="1832" width="82" height="2" fill="#FFFFFF" opacity="0.695" /><rect x="1417" y="1792" width="2" height="82" fill="#FFFFFF" opacity="0.695" /><rect x="1773" y="2231" width="56" height="2" fill="#FFFFFF" opacity="0.684" /><rect x="1800" y="2204" width="2" height="56" fill="#FFFFFF" opacity="0.684" /><rect x="509" y="632" width="34" height="2" fill="#FFFFFF" opacity="0.434" /><rect x="525" y="616" width="2" height="34" fill="#FFFFFF" opacity="0.434" /><rect x="1507" y="2301" width="66" height="2" fill="#FFFFFF" opacity="0.745" /><rect x="1539" y="2269" width="2" height="66" fill="#FFFFFF" opacity="0.745" /><rect x="1507" y="315" width="64" height="2" fill="#FFFFFF" opacity="0.316" /><rect x="1538" y="284" width="2" height="64" fill="#FFFFFF" opacity="0.316" /><rect x="1261" y="1009" width="32" height="2" fill="#FFFFFF" opacity="0.809" /><rect x="1276" y="994" width="2" height="32" fill="#FFFFFF" opacity="0.809" /><rect x="2079" y="2034" width="34" height="2" fill="#FFFFFF" opacity="0.819" /><rect x="2095" y="2018" width="2" height="34" fill="#FFFFFF" opacity="0.819" /><rect x="1381" y="848" width="34" height="2" fill="#FFFFFF" opacity="0.508" /><rect x="1397" y="832" width="2" height="34" fill="#FFFFFF" opacity="0.508" /><rect x="1422" y="1238" width="34" height="2" fill="#FFFFFF" opacity="0.803" /><rect x="1438" y="1222" width="2" height="34" fill="#FFFFFF" opacity="0.803" /><rect x="1050" y="1228" width="78" height="2" fill="#FFFFFF" opacity="0.479" /><rect x="1088" y="1190" width="2" height="78" fill="#FFFFFF" opacity="0.479" /><rect x="1276" y="1773" width="52" height="2" fill="#FFFFFF" opacity="0.625" /><rect x="1301" y="1748" width="2" height="52" fill="#FFFFFF" opacity="0.625" /><rect x="2744" y="692" width="48" height="2" fill="#FFFFFF" opacity="0.817" /><rect x="2767" y="669" width="2" height="48" fill="#FFFFFF" opacity="0.817" /><rect x="2512" y="2428" width="78" height="2" fill="#FFFFFF" opacity="0.624" /><rect x="2550" y="2390" width="2" height="78" fill="#FFFFFF" opacity="0.624" /><rect x="2177" y="1795" width="36" height="2" fill="#FFFFFF" opacity="0.406" /><rect x="2194" y="1778" width="2" height="36" fill="#FFFFFF" opacity="0.406" /><rect x="2581" y="1262" width="64" height="2" fill="#FFFFFF" opacity="0.454" /><rect x="2612" y="1231" width="2" height="64" fill="#FFFFFF" opacity="0.454" /><rect x="2017" y="1038" width="26" height="2" fill="#FFFFFF" opacity="0.395" /><rect x="2029" y="1026" width="2" height="26" fill="#FFFFFF" opacity="0.395" /></g>
  <g opacity="0.52"><path d="M996 1582 Q1572 1006, 2148 1582" fill="none" stroke="#0C2030" stroke-width="90" /><path d="M996 1801 Q1572 1198, 2148 1801" fill="none" stroke="#0C2030" stroke-width="88" opacity="0.9" /><path d="M996 1966 Q1572 1326, 2148 1966" fill="none" stroke="#0C2030" stroke-width="87" opacity="0.75" /></g>
  <g filter="url(#soft318)"><path d="M960 1536 Q1536 960, 2112 1536" fill="none" stroke="url(#symbol318)" stroke-width="90" /><path d="M960 1755 Q1536 1152, 2112 1755" fill="none" stroke="url(#symbol318)" stroke-width="88" opacity="0.9" /><path d="M960 1920 Q1536 1280, 2112 1920" fill="none" stroke="url(#symbol318)" stroke-width="87" opacity="0.75" /></g>
  <rect x="138" y="138" width="2796" height="2796" rx="629" fill="#FFFFFF" filter="url(#grain318)" opacity="0.18" />
</svg>
