<svg xmlns="http://www.w3.org/2000/svg" width="3072" height="3072" viewBox="0 0 3072 3072">
  <title>QuartzOS App Icon 299 - prime_settings_299</title>
  <defs><linearGradient id="bg298" x1="0%" y1="0%" x2="100%" y2="100%"><stop offset="0%" stop-color="#FF9F43" /><stop offset="26%" stop-color="#53E3A6" /><stop offset="56%" stop-color="#3B82FF" /><stop offset="78%" stop-color="#58A3D8" /><stop offset="100%" stop-color="#1D2F45" /></linearGradient><radialGradient id="sun298" cx="24%" cy="16%" r="88%"><stop offset="0%" stop-color="#FFFFFF" stop-opacity="0.62" /><stop offset="30%" stop-color="#8A5CFF" stop-opacity="0.35" /><stop offset="100%" stop-color="#8A5CFF" stop-opacity="0" /></radialGradient><linearGradient id="glass298" x1="0%" y1="0%" x2="0%" y2="100%"><stop offset="0%" stop-color="#FFFFFF" stop-opacity="0.70" /><stop offset="46%" stop-color="#FFFFFF" stop-opacity="0.26" /><stop offset="100%" stop-color="#FFFFFF" stop-opacity="0.00" /></linearGradient><linearGradient id="ribbon298" x1="0%" y1="0%" x2="100%" y2="0%"><stop offset="0%" stop-color="#FF9F43" stop-opacity="0.18" /><stop offset="34%" stop-color="#53E3A6" stop-opacity="0.72" /><stop offset="66%" stop-color="#3B82FF" stop-opacity="0.72" /><stop offset="100%" stop-color="#8A5CFF" stop-opacity="0.18" /></linearGradient><radialGradient id="orb298" cx="34%" cy="27%" r="74%"><stop offset="0%" stop-color="#FFFFFF" stop-opacity="0.84" /><stop offset="30%" stop-color="#FF9F43" stop-opacity="0.52" /><stop offset="68%" stop-color="#53E3A6" stop-opacity="0.42" /><stop offset="100%" stop-color="#3B82FF" stop-opacity="0.20" /></radialGradient><linearGradient id="extrude298" x1="0%" y1="0%" x2="0%" y2="100%"><stop offset="0%" stop-color="#15283C" stop-opacity="0.45" /><stop offset="100%" stop-color="#08131D" stop-opacity="0.06" /></linearGradient><linearGradient id="symbol298" x1="0%" y1="0%" x2="100%" y2="100%"><stop offset="0%" stop-color="#FFFFFF" /><stop offset="100%" stop-color="#8A5CFF" /></linearGradient><filter id="shadow298" x="-40%" y="-40%" width="180%" height="180%"><feDropShadow dx="0" dy="49" stdDeviation="86" flood-color="#06111A" flood-opacity="0.54" /></filter><filter id="soft298" x="-40%" y="-40%" width="180%" height="180%"><feDropShadow dx="0" dy="0" stdDeviation="14" flood-color="#FF9F43" flood-opacity="0.45" /></filter><filter id="grain298"><feTurbulence type="fractalNoise" baseFrequency="1.054" numOctaves="2" seed="298" /><feColorMatrix type="saturate" values="0" /><feComponentTransfer><feFuncA type="table" tableValues="0 0.09" /></feComponentTransfer></filter></defs>
  <rect x="138" y="138" width="2796" height="2796" rx="629" fill="url(#bg298)" filter="url(#shadow298)" />
  <rect x="138" y="138" width="2796" height="2796" rx="629" fill="url(#sun298)" />
  <g><circle cx="1523" cy="2447" r="68" fill="#FFFFFF" opacity="0.215" /><circle cx="2536" cy="1062" r="140" fill="#FFFFFF" opacity="0.183" /><circle cx="2345" cy="1103" r="55" fill="#FFFFFF" opacity="0.204" /><circle cx="1552" cy="2553" r="101" fill="#FFFFFF" opacity="0.072" /><circle cx="1058" cy="1311" r="79" fill="#FFFFFF" opacity="0.176" /><circle cx="2069" cy="2078" r="89" fill="#FFFFFF" opacity="0.202" /><circle cx="2235" cy="2440" r="112" fill="#FFFFFF" opacity="0.152" /><circle cx="518" cy="1053" r="118" fill="#FFFFFF" opacity="0.106" /><circle cx="591" cy="1974" r="124" fill="#FFFFFF" opacity="0.089" /><circle cx="860" cy="2125" r="127" fill="#FFFFFF" opacity="0.151" /><circle cx="1781" cy="2235" r="145" fill="#FFFFFF" opacity="0.118" /><circle cx="1020" cy="697" r="109" fill="#FFFFFF" opacity="0.138" /><circle cx="1324" cy="2283" r="143" fill="#FFFFFF" opacity="0.112" /><circle cx="475" cy="2366" r="55" fill="#FFFFFF" opacity="0.122" /><circle cx="1019" cy="1347" r="104" fill="#FFFFFF" opacity="0.227" /><circle cx="994" cy="1560" r="99" fill="#FFFFFF" opacity="0.204" /><circle cx="2167" cy="1803" r="50" fill="#FFFFFF" opacity="0.217" /><circle cx="510" cy="476" r="110" fill="#FFFFFF" opacity="0.198" /><circle cx="1267" cy="2124" r="133" fill="#FFFFFF" opacity="0.087" /><circle cx="1151" cy="1201" r="96" fill="#FFFFFF" opacity="0.083" /><circle cx="2211" cy="1361" r="52" fill="#FFFFFF" opacity="0.066" /><circle cx="1075" cy="2175" r="56" fill="#FFFFFF" opacity="0.140" /><circle cx="596" cy="769" r="148" fill="#FFFFFF" opacity="0.106" /><circle cx="453" cy="1402" r="158" fill="#FFFFFF" opacity="0.076" /><circle cx="880" cy="2603" r="100" fill="#FFFFFF" opacity="0.151" /><circle cx="604" cy="1602" r="111" fill="#FFFFFF" opacity="0.174" /><circle cx="985" cy="1263" r="154" fill="#FFFFFF" opacity="0.107" /><circle cx="929" cy="533" r="96" fill="#FFFFFF" opacity="0.164" /></g>
  <g><path d="M 151.9 569.9 L 2773.9 293.4 L 2773.9 785.1 L 151.9 1061.6 Z" fill="#FFFFFF" opacity="0.101" /><path d="M 386.8 911.5 L 2782.3 635.0 L 2782.3 1090.1 L 386.8 1366.6 Z" fill="#FFFFFF" opacity="0.096" /><path d="M 210.5 1112.3 L 2726.2 835.8 L 2726.2 1332.9 L 210.5 1609.3 Z" fill="#FFFFFF" opacity="0.235" /><path d="M 247.1 1442.4 L 2784.7 1165.9 L 2784.7 1654.4 L 247.1 1930.8 Z" fill="#FFFFFF" opacity="0.105" /><path d="M 186.3 1656.2 L 2705.4 1379.7 L 2705.4 1805.0 L 186.3 2081.5 Z" fill="#FFFFFF" opacity="0.094" /><path d="M 365.8 1955.4 L 2853.0 1678.9 L 2853.0 2142.5 L 365.8 2419.0 Z" fill="#FFFFFF" opacity="0.089" /><path d="M 282.2 2184.3 L 2910.4 1907.8 L 2910.4 2387.3 L 282.2 2663.8 Z" fill="#FFFFFF" opacity="0.206" /><path d="M 312.8 2450.9 L 2749.2 2174.4 L 2749.2 2611.4 L 312.8 2887.9 Z" fill="#FFFFFF" opacity="0.147" /></g>
  <g filter="url(#soft298)"><g transform="rotate(-16.71 1536.0 1536.0)"><path d="M-368.6 464.9 C -225.8 480.3, -25.8 454.6, 107.5 435.1 C 250.4 442.0, 450.4 499.2, 583.7 410.8 C 726.5 404.1, 926.5 508.7, 1059.8 419.2 C 1202.7 429.4, 1402.7 480.9, 1536.0 455.4 C 1678.8 455.5, 1878.8 474.8, 2012.2 497.4 C 2155.0 500.6, 2355.0 438.9, 2488.3 519.7 C 2631.2 540.5, 2831.2 425.7, 2964.5 508.7 C 3107.3 502.6, 3307.3 433.6, 3440.6 471.2" fill="none" stroke="url(#ribbon298)" stroke-width="58.4" stroke-linecap="round" stroke-opacity="0.120" /></g><g transform="rotate(-16.13 1536.0 1536.0)"><path d="M-368.6 729.6 C -241.7 710.2, -63.9 741.8, 54.6 752.6 C 181.6 745.9, 359.4 708.8, 477.9 787.2 C 604.8 780.8, 782.6 692.6, 901.1 786.9 C 1028.1 775.5, 1205.9 681.6, 1324.4 751.8 C 1451.3 756.5, 1629.1 707.9, 1747.6 703.3 C 1874.6 704.6, 2052.4 750.1, 2170.9 670.7 C 2297.9 654.8, 2475.6 795.9, 2594.1 673.9 C 2721.1 664.4, 2898.9 747.9, 3017.4 710.8 C 3144.4 712.4, 3322.1 736.2, 3440.6 759.2" fill="none" stroke="url(#ribbon298)" stroke-width="54.4" stroke-linecap="round" stroke-opacity="0.146" /></g><g transform="rotate(-15.55 1536.0 1536.0)"><path d="M-368.6 921.9 C -254.4 1010.4, -94.4 858.5, 12.3 985.8 C 126.6 999.1, 286.6 883.7, 393.2 947.0 C 507.5 943.5, 667.5 901.4, 774.1 892.9 C 888.4 883.1, 1048.4 950.7, 1155.1 856.5 C 1269.4 841.7, 1429.3 997.3, 1536.0 859.8 C 1650.3 875.5, 1810.3 992.5, 1916.9 900.7 C 2031.2 898.3, 2191.2 941.2, 2297.9 954.6 C 2412.1 961.1, 2572.1 894.6, 2678.8 988.6 C 2793.1 1009.9, 2953.1 896.6, 3059.7 982.2 C 3174.0 991.1, 3334.0 899.6, 3440.6 939.2" fill="none" stroke="url(#ribbon298)" stroke-width="50.4" stroke-linecap="round" stroke-opacity="0.172" /></g><g transform="rotate(-14.97 1536.0 1536.0)"><path d="M-368.6 1141.6 C -264.8 1165.6, -119.3 1120.5, -22.3 1111.0 C 81.5 1115.9, 227.0 1159.5, 324.0 1070.0 C 427.8 1094.3, 573.3 1191.3, 670.3 1072.5 C 774.1 1098.1, 919.6 1167.9, 1016.6 1116.9 C 1120.4 1113.6, 1265.9 1149.9, 1362.9 1176.3 C 1466.7 1184.2, 1612.2 1111.1, 1709.1 1214.7 C 1813.0 1231.8, 1958.5 1075.2, 2055.4 1208.8 C 2159.3 1202.3, 2304.8 1065.9, 2401.7 1162.2 C 2505.6 1160.8, 2651.1 1132.9, 2748.0 1103.1 C 2851.9 1109.9, 2997.4 1153.3, 3094.3 1067.4 C 3198.2 1055.3, 3343.7 1176.3, 3440.6 1076.7" fill="none" stroke="url(#ribbon298)" stroke-width="46.4" stroke-linecap="round" stroke-opacity="0.198" /></g><g transform="rotate(-14.39 1536.0 1536.0)"><path d="M-368.6 1326.4 C -273.4 1273.5, -140.1 1371.9, -51.2 1302.8 C 44.0 1294.2, 177.4 1349.1, 266.2 1367.4 C 361.5 1359.6, 494.8 1284.2, 583.7 1407.2 C 678.9 1417.2, 812.2 1274.8, 901.1 1398.0 C 996.4 1403.3, 1129.7 1274.5, 1218.6 1345.3 C 1313.8 1340.3, 1447.1 1307.8, 1536.0 1281.2 C 1631.2 1265.4, 1764.6 1367.5, 1853.4 1244.5 C 1948.7 1223.2, 2082.0 1384.6, 2170.9 1257.5 C 2266.1 1285.0, 2399.4 1355.9, 2488.3 1312.3 C 2583.6 1315.8, 2716.9 1333.3, 2805.8 1375.6 C 2901.0 1395.0, 3034.3 1308.8, 3123.2 1409.1 C 3218.4 1414.1, 3351.8 1266.0, 3440.6 1392.5" fill="none" stroke="url(#ribbon298)" stroke-width="42.4" stroke-linecap="round" stroke-opacity="0.224" /></g><g transform="rotate(-13.81 1536.0 1536.0)"><path d="M-368.6 1521.7 C -225.8 1530.5, -25.8 1515.1, 107.5 1461.9 C 250.4 1460.3, 450.4 1558.4, 583.7 1431.2 C 726.5 1464.7, 926.5 1560.6, 1059.8 1455.4 C 1202.7 1461.2, 1402.7 1592.2, 1536.0 1519.8 C 1678.8 1519.7, 1878.8 1522.3, 2012.2 1585.3 C 2155.0 1606.8, 2355.0 1502.6, 2488.3 1612.3 C 2631.2 1589.2, 2831.2 1430.9, 2964.5 1584.3 C 3107.3 1601.5, 3307.3 1471.4, 3440.6 1518.3" fill="none" stroke="url(#ribbon298)" stroke-width="38.4" stroke-linecap="round" stroke-opacity="0.250" /></g><g transform="rotate(-13.23 1536.0 1536.0)"><path d="M-368.6 1638.0 C -241.7 1544.7, -63.9 1724.3, 54.6 1570.7 C 181.6 1562.5, 359.4 1671.7, 477.9 1641.9 C 604.8 1640.7, 782.6 1633.9, 901.1 1710.8 C 1028.1 1692.5, 1205.9 1559.7, 1324.4 1735.4 C 1451.3 1722.8, 1629.1 1590.4, 1747.6 1701.0 C 1874.6 1697.3, 2052.4 1603.0, 2170.9 1628.3 C 2297.9 1631.5, 2475.6 1645.1, 2594.1 1561.5 C 2721.1 1579.0, 2898.9 1690.2, 3017.4 1541.1 C 3144.4 1570.8, 3322.1 1673.8, 3440.6 1579.4" fill="none" stroke="url(#ribbon298)" stroke-width="34.4" stroke-linecap="round" stroke-opacity="0.276" /></g><g transform="rotate(-12.65 1536.0 1536.0)"><path d="M-368.6 1848.6 C -254.4 1711.3, -94.4 1905.0, 12.3 1778.5 C 126.6 1797.8, 286.6 1906.6, 393.2 1855.6 C 507.5 1853.9, 667.5 1844.1, 774.1 1928.5 C 888.4 1896.9, 1048.4 1824.5, 1155.1 1952.9 C 1269.4 1938.6, 1429.3 1766.6, 1536.0 1914.0 C 1650.3 1932.0, 1810.3 1818.5, 1916.9 1835.5 C 2031.2 1832.1, 2191.2 1855.7, 2297.9 1764.9 C 2412.1 1756.9, 2572.1 1880.7, 2678.8 1745.1 C 2793.1 1721.9, 2953.1 1931.4, 3059.7 1788.1 C 3174.0 1801.1, 3334.0 1916.1, 3440.6 1867.8" fill="none" stroke="url(#ribbon298)" stroke-width="30.4" stroke-linecap="round" stroke-opacity="0.302" /></g><g transform="rotate(-12.07 1536.0 1536.0)"><path d="M-368.6 2058.0 C -264.8 2124.5, -119.3 1987.2, -22.3 2077.7 C 81.5 2075.4, 227.0 2042.0, 324.0 1992.8 C 427.8 1995.2, 573.3 2081.7, 670.3 1947.4 C 774.1 1905.9, 919.6 2095.6, 1016.6 1969.0 C 1120.4 1976.9, 1265.9 2119.6, 1362.9 2044.6 C 1466.7 2045.9, 1612.2 2062.5, 1709.1 2128.3 C 1813.0 2139.9, 1958.5 1980.8, 2055.4 2169.3 C 2159.3 2139.7, 2304.8 2006.8, 2401.7 2142.8 C 2505.6 2138.7, 2651.1 1991.4, 2748.0 2064.8 C 2851.9 2063.0, 2997.4 2049.9, 3094.3 1982.6 C 3198.2 1957.9, 3343.7 2102.0, 3440.6 1946.2" fill="none" stroke="url(#ribbon298)" stroke-width="26.4" stroke-linecap="round" stroke-opacity="0.328" /></g><g transform="rotate(-11.49 1536.0 1536.0)"><path d="M-368.6 2250.6 C -273.4 2263.2, -140.1 2237.0, -51.2 2180.7 C 44.0 2198.4, 177.4 2287.0, 266.2 2132.9 C 361.5 2159.0, 494.8 2341.4, 583.7 2156.4 C 678.9 2171.0, 812.2 2297.2, 901.1 2237.1 C 996.4 2235.5, 1129.7 2260.5, 1218.6 2325.9 C 1313.8 2317.4, 1447.1 2164.9, 1536.0 2369.0 C 1631.2 2352.9, 1764.6 2125.5, 1853.4 2340.3 C 1948.7 2353.7, 2082.0 2147.8, 2170.9 2257.1 C 2266.1 2257.4, 2399.4 2245.1, 2488.3 2170.0 C 2583.6 2143.6, 2716.9 2339.1, 2805.8 2131.7 C 2901.0 2124.6, 3034.3 2319.9, 3123.2 2165.6 C 3218.4 2163.4, 3351.8 2288.1, 3440.6 2251.0" fill="none" stroke="url(#ribbon298)" stroke-width="22.4" stroke-linecap="round" stroke-opacity="0.354" /></g><g transform="rotate(-10.91 1536.0 1536.0)"><path d="M-368.6 2457.6 C -225.8 2475.4, -25.8 2447.0, 107.5 2561.0 C 250.4 2593.0, 450.4 2348.5, 583.7 2581.2 C 726.5 2583.5, 926.5 2397.8, 1059.8 2526.3 C 1202.7 2519.2, 1402.7 2427.7, 1536.0 2429.8 C 1678.8 2423.4, 1878.8 2489.9, 2012.2 2350.1 C 2155.0 2348.2, 2355.0 2567.4, 2488.3 2335.6 C 2631.2 2307.9, 2831.2 2504.4, 2964.5 2395.1 C 3107.3 2393.1, 3307.3 2513.0, 3440.6 2492.5" fill="none" stroke="url(#ribbon298)" stroke-width="18.4" stroke-linecap="round" stroke-opacity="0.380" /></g><g transform="rotate(-10.33 1536.0 1536.0)"><path d="M-368.6 2677.6 C -241.7 2628.4, -63.9 2705.0, 54.6 2556.6 C 181.6 2513.5, 359.4 2764.8, 477.9 2553.7 C 604.8 2593.2, 782.6 2747.8, 901.1 2626.0 C 1028.1 2610.5, 1205.9 2729.1, 1324.4 2729.6 C 1451.3 2733.8, 1629.1 2655.0, 1747.6 2801.7 C 1874.6 2805.5, 2052.4 2574.4, 2170.9 2798.5 C 2297.9 2837.5, 2475.6 2615.2, 2594.1 2722.0 C 2721.1 2725.4, 2898.9 2648.8, 3017.4 2618.6 C 3144.4 2629.0, 3322.1 2737.8, 3440.6 2551.0" fill="none" stroke="url(#ribbon298)" stroke-width="14.4" stroke-linecap="round" stroke-opacity="0.406" /></g></g>
  <g><ellipse cx="1536.0" cy="1551.9" rx="728.6" ry="605.7" fill="url(#extrude298)" opacity="0.220" /><ellipse cx="1536.0" cy="1567.7" rx="736.0" ry="610.9" fill="url(#extrude298)" opacity="0.205" /><ellipse cx="1536.0" cy="1583.6" rx="743.4" ry="616.1" fill="url(#extrude298)" opacity="0.190" /><ellipse cx="1536.0" cy="1599.5" rx="750.9" ry="621.3" fill="url(#extrude298)" opacity="0.175" /><ellipse cx="1536.0" cy="1615.4" rx="758.3" ry="626.5" fill="url(#extrude298)" opacity="0.160" /><ellipse cx="1536.0" cy="1631.2" rx="765.7" ry="631.7" fill="url(#extrude298)" opacity="0.145" /><ellipse cx="1536.0" cy="1647.1" rx="773.2" ry="636.9" fill="url(#extrude298)" opacity="0.130" /><ellipse cx="1536.0" cy="1663.0" rx="780.6" ry="642.1" fill="url(#extrude298)" opacity="0.115" /><ellipse cx="1536.0" cy="1678.8" rx="788.0" ry="647.4" fill="url(#extrude298)" opacity="0.100" /><ellipse cx="1536.0" cy="1694.7" rx="795.5" ry="652.6" fill="url(#extrude298)" opacity="0.085" /><ellipse cx="1536.0" cy="1710.6" rx="802.9" ry="657.8" fill="url(#extrude298)" opacity="0.070" /><ellipse cx="1536.0" cy="1726.5" rx="810.3" ry="663.0" fill="url(#extrude298)" opacity="0.055" /></g>
  <ellipse cx="1536.0" cy="1726.5" rx="773.2" ry="214.9" fill="#0B1D2D" opacity="0.24" />
  <ellipse cx="1536.0" cy="1536.0" rx="743.4" ry="651.3" fill="url(#orb298)" stroke="#FFFFFF" stroke-opacity="0.42" stroke-width="7" />
  <ellipse cx="1431.9" cy="1392.7" rx="505.5" ry="299.6" fill="#FFFFFF" opacity="0.25" />
  <path d="M 199.4 399.4 C 1013.8 -30.7, 2058.2 768.0, 2872.6 215.0 L 2872.6 983.0 C 2089.0 1228.8, 1013.8 307.2, 199.4 1167.4 Z" fill="url(#glass298)" />
  <rect x="270" y="270" width="2532" height="2532" rx="430" fill="none" stroke="#FFFFFF" stroke-opacity="0.30" stroke-width="5" />
  <rect x="288.4" y="288.4" width="2495.1" height="2495.1" rx="399" fill="none" stroke="#FF9F43" stroke-opacity="0.35" stroke-width="3" />
  <g filter="url(#soft298)"><rect x="2018" y="1319" width="46" height="2" fill="#FFFFFF" opacity="0.819" /><rect x="2040" y="1297" width="2" height="46" fill="#FFFFFF" opacity="0.819" /><rect x="1241" y="361" width="82" height="2" fill="#FFFFFF" opacity="0.688" /><rect x="1281" y="321" width="2" height="82" fill="#FFFFFF" opacity="0.688" /><rect x="601" y="2134" width="32" height="2" fill="#FFFFFF" opacity="0.637" /><rect x="616" y="2119" width="2" height="32" fill="#FFFFFF" opacity="0.637" /><rect x="2486" y="674" width="28" height="2" fill="#FFFFFF" opacity="0.627" /><rect x="2499" y="661" width="2" height="28" fill="#FFFFFF" opacity="0.627" /><rect x="1526" y="1120" width="62" height="2" fill="#FFFFFF" opacity="0.423" /><rect x="1556" y="1090" width="2" height="62" fill="#FFFFFF" opacity="0.423" /><rect x="2784" y="2610" width="28" height="2" fill="#FFFFFF" opacity="0.606" /><rect x="2797" y="2597" width="2" height="28" fill="#FFFFFF" opacity="0.606" /><rect x="351" y="910" width="28" height="2" fill="#FFFFFF" opacity="0.354" /><rect x="364" y="897" width="2" height="28" fill="#FFFFFF" opacity="0.354" /><rect x="1684" y="1033" width="58" height="2" fill="#FFFFFF" opacity="0.659" /><rect x="1712" y="1005" width="2" height="58" fill="#FFFFFF" opacity="0.659" /><rect x="1343" y="545" width="80" height="2" fill="#FFFFFF" opacity="0.330" /><rect x="1382" y="506" width="2" height="80" fill="#FFFFFF" opacity="0.330" /><rect x="570" y="579" width="68" height="2" fill="#FFFFFF" opacity="0.353" /><rect x="603" y="546" width="2" height="68" fill="#FFFFFF" opacity="0.353" /><rect x="782" y="1463" width="54" height="2" fill="#FFFFFF" opacity="0.356" /><rect x="808" y="1437" width="2" height="54" fill="#FFFFFF" opacity="0.356" /><rect x="529" y="946" width="46" height="2" fill="#FFFFFF" opacity="0.840" /><rect x="551" y="924" width="2" height="46" fill="#FFFFFF" opacity="0.840" /><rect x="700" y="1048" width="74" height="2" fill="#FFFFFF" opacity="0.693" /><rect x="736" y="1012" width="2" height="74" fill="#FFFFFF" opacity="0.693" /><rect x="1015" y="2480" width="68" height="2" fill="#FFFFFF" opacity="0.623" /><rect x="1048" y="2447" width="2" height="68" fill="#FFFFFF" opacity="0.623" /><rect x="1293" y="1453" width="32" height="2" fill="#FFFFFF" opacity="0.663" /><rect x="1308" y="1438" width="2" height="32" fill="#FFFFFF" opacity="0.663" /><rect x="1971" y="1857" width="32" height="2" fill="#FFFFFF" opacity="0.431" /><rect x="1986" y="1842" width="2" height="32" fill="#FFFFFF" opacity="0.431" /><rect x="1195" y="941" width="32" height="2" fill="#FFFFFF" opacity="0.514" /><rect x="1210" y="926" width="2" height="32" fill="#FFFFFF" opacity="0.514" /><rect x="1372" y="506" width="62" height="2" fill="#FFFFFF" opacity="0.699" /><rect x="1402" y="476" width="2" height="62" fill="#FFFFFF" opacity="0.699" /><rect x="1454" y="508" width="44" height="2" fill="#FFFFFF" opacity="0.301" /><rect x="1475" y="487" width="2" height="44" fill="#FFFFFF" opacity="0.301" /><rect x="1546" y="605" width="34" height="2" fill="#FFFFFF" opacity="0.461" /><rect x="1562" y="589" width="2" height="34" fill="#FFFFFF" opacity="0.461" /><rect x="2485" y="580" width="68" height="2" fill="#FFFFFF" opacity="0.711" /><rect x="2518" y="547" width="2" height="68" fill="#FFFFFF" opacity="0.711" /><rect x="686" y="1223" width="68" height="2" fill="#FFFFFF" opacity="0.406" /><rect x="719" y="1190" width="2" height="68" fill="#FFFFFF" opacity="0.406" /><rect x="1914" y="386" width="80" height="2" fill="#FFFFFF" opacity="0.366" /><rect x="1953" y="347" width="2" height="80" fill="#FFFFFF" opacity="0.366" /><rect x="754" y="2182" width="46" height="2" fill="#FFFFFF" opacity="0.734" /><rect x="776" y="2160" width="2" height="46" fill="#FFFFFF" opacity="0.734" /><rect x="742" y="2531" width="46" height="2" fill="#FFFFFF" opacity="0.571" /><rect x="764" y="2509" width="2" height="46" fill="#FFFFFF" opacity="0.571" /><rect x="586" y="527" width="72" height="2" fill="#FFFFFF" opacity="0.429" /><rect x="621" y="492" width="2" height="72" fill="#FFFFFF" opacity="0.429" /></g>
  <g opacity="0.52"><path d="M996 1582 C1316 1006, 1572 2158, 2148 1582" fill="none" stroke="#0C2030" stroke-width="90" /><circle cx="1188" cy="1582" r="109" fill="#0C2030" /><circle cx="1572" cy="1582" r="109" fill="#0C2030" /><circle cx="1956" cy="1582" r="109" fill="#0C2030" /></g>
  <g filter="url(#soft298)"><path d="M960 1536 C1280 960, 1536 2112, 2112 1536" fill="none" stroke="url(#symbol298)" stroke-width="90" /><circle cx="1152" cy="1536" r="109" fill="url(#symbol298)" /><circle cx="1536" cy="1536" r="109" fill="url(#symbol298)" /><circle cx="1920" cy="1536" r="109" fill="url(#symbol298)" /></g>
  <rect x="138" y="138" width="2796" height="2796" rx="629" fill="#FFFFFF" filter="url(#grain298)" opacity="0.18" />
</svg>
