<svg xmlns="http://www.w3.org/2000/svg" width="3072" height="3072" viewBox="0 0 3072 3072">
  <title>QuartzOS App Icon 159 - prime_viewer_159</title>
  <defs><linearGradient id="bg158" x1="0%" y1="0%" x2="100%" y2="100%"><stop offset="0%" stop-color="#FF9F43" /><stop offset="26%" stop-color="#53E3A6" /><stop offset="56%" stop-color="#3B82FF" /><stop offset="78%" stop-color="#5E86C9" /><stop offset="100%" stop-color="#1C2435" /></linearGradient><radialGradient id="sun158" cx="26%" cy="30%" r="88%"><stop offset="0%" stop-color="#FFFFFF" stop-opacity="0.62" /><stop offset="30%" stop-color="#8A5CFF" stop-opacity="0.35" /><stop offset="100%" stop-color="#8A5CFF" stop-opacity="0" /></radialGradient><linearGradient id="glass158" x1="0%" y1="0%" x2="0%" y2="100%"><stop offset="0%" stop-color="#FFFFFF" stop-opacity="0.70" /><stop offset="46%" stop-color="#FFFFFF" stop-opacity="0.26" /><stop offset="100%" stop-color="#FFFFFF" stop-opacity="0.00" /></linearGradient><linearGradient id="ribbon158" x1="0%" y1="0%" x2="100%" y2="0%"><stop offset="0%" stop-color="#FF9F43" stop-opacity="0.18" /><stop offset="34%" stop-color="#53E3A6" stop-opacity="0.72" /><stop offset="66%" stop-color="#3B82FF" stop-opacity="0.72" /><stop offset="100%" stop-color="#8A5CFF" stop-opacity="0.18" /></linearGradient><radialGradient id="orb158" cx="34%" cy="27%" r="74%"><stop offset="0%" stop-color="#FFFFFF" stop-opacity="0.84" /><stop offset="30%" stop-color="#FF9F43" stop-opacity="0.52" /><stop offset="68%" stop-color="#53E3A6" stop-opacity="0.42" /><stop offset="100%" stop-color="#3B82FF" stop-opacity="0.20" /></radialGradient><linearGradient id="extrude158" x1="0%" y1="0%" x2="0%" y2="100%"><stop offset="0%" stop-color="#15283C" stop-opacity="0.45" /><stop offset="100%" stop-color="#08131D" stop-opacity="0.06" /></linearGradient><linearGradient id="symbol158" x1="0%" y1="0%" x2="100%" y2="100%"><stop offset="0%" stop-color="#FFFFFF" /><stop offset="100%" stop-color="#8A5CFF" /></linearGradient><filter id="shadow158" x="-40%" y="-40%" width="180%" height="180%"><feDropShadow dx="0" dy="49" stdDeviation="86" flood-color="#06111A" flood-opacity="0.54" /></filter><filter id="soft158" x="-40%" y="-40%" width="180%" height="180%"><feDropShadow dx="0" dy="0" stdDeviation="14" flood-color="#FF9F43" flood-opacity="0.45" /></filter><filter id="grain158"><feTurbulence type="fractalNoise" baseFrequency="0.749" numOctaves="2" seed="158" /><feColorMatrix type="saturate" values="0" /><feComponentTransfer><feFuncA type="table" tableValues="0 0.09" /></feComponentTransfer></filter></defs>
  <rect x="138" y="138" width="2796" height="2796" rx="629" fill="url(#bg158)" filter="url(#shadow158)" />
  <rect x="138" y="138" width="2796" height="2796" rx="629" fill="url(#sun158)" />
  <g><circle cx="2640" cy="1577" r="149" fill="#FFFFFF" opacity="0.178" /><circle cx="1580" cy="1757" r="79" fill="#FFFFFF" opacity="0.210" /><circle cx="832" cy="2482" r="39" fill="#FFFFFF" opacity="0.167" /><circle cx="1510" cy="1754" r="131" fill="#FFFFFF" opacity="0.106" /><circle cx="1627" cy="1984" r="116" fill="#FFFFFF" opacity="0.211" /><circle cx="1165" cy="580" r="137" fill="#FFFFFF" opacity="0.148" /><circle cx="1131" cy="2100" r="156" fill="#FFFFFF" opacity="0.145" /><circle cx="420" cy="2419" r="87" fill="#FFFFFF" opacity="0.072" /><circle cx="1914" cy="1430" r="82" fill="#FFFFFF" opacity="0.084" /><circle cx="2459" cy="711" r="86" fill="#FFFFFF" opacity="0.118" /><circle cx="2650" cy="754" r="129" fill="#FFFFFF" opacity="0.073" /><circle cx="572" cy="899" r="159" fill="#FFFFFF" opacity="0.221" /><circle cx="1918" cy="1001" r="104" fill="#FFFFFF" opacity="0.171" /><circle cx="2459" cy="1995" r="123" fill="#FFFFFF" opacity="0.161" /><circle cx="2145" cy="763" r="65" fill="#FFFFFF" opacity="0.215" /><circle cx="972" cy="1659" r="151" fill="#FFFFFF" opacity="0.123" /><circle cx="2026" cy="544" r="85" fill="#FFFFFF" opacity="0.191" /><circle cx="1047" cy="825" r="45" fill="#FFFFFF" opacity="0.061" /><circle cx="755" cy="1780" r="80" fill="#FFFFFF" opacity="0.118" /><circle cx="2415" cy="695" r="58" fill="#FFFFFF" opacity="0.194" /><circle cx="2411" cy="605" r="89" fill="#FFFFFF" opacity="0.166" /><circle cx="1138" cy="1674" r="61" fill="#FFFFFF" opacity="0.119" /><circle cx="1807" cy="344" r="115" fill="#FFFFFF" opacity="0.111" /><circle cx="630" cy="1859" r="136" fill="#FFFFFF" opacity="0.140" /><circle cx="838" cy="1989" r="45" fill="#FFFFFF" opacity="0.112" /><circle cx="1815" cy="2269" r="123" fill="#FFFFFF" opacity="0.133" /><circle cx="1627" cy="1413" r="131" fill="#FFFFFF" opacity="0.097" /><circle cx="429" cy="2034" r="109" fill="#FFFFFF" opacity="0.089" /></g>
  <g><path d="M 168.3 638.8 L 2725.1 362.3 L 2725.1 800.3 L 168.3 1076.7 Z" fill="#FFFFFF" opacity="0.111" /><path d="M 303.0 830.4 L 2829.2 553.9 L 2829.2 1005.6 L 303.0 1282.1 Z" fill="#FFFFFF" opacity="0.135" /><path d="M 274.3 1107.6 L 2834.9 831.1 L 2834.9 1327.3 L 274.3 1603.8 Z" fill="#FFFFFF" opacity="0.164" /><path d="M 327.8 1375.3 L 2743.6 1098.8 L 2743.6 1567.9 L 327.8 1844.3 Z" fill="#FFFFFF" opacity="0.158" /><path d="M 147.7 1664.5 L 2698.3 1388.1 L 2698.3 1816.5 L 147.7 2093.0 Z" fill="#FFFFFF" opacity="0.222" /><path d="M 289.9 1892.3 L 2903.5 1615.8 L 2903.5 2110.9 L 289.9 2387.4 Z" fill="#FFFFFF" opacity="0.200" /><path d="M 166.2 2173.6 L 2787.3 1897.1 L 2787.3 2375.6 L 166.2 2652.1 Z" fill="#FFFFFF" opacity="0.220" /><path d="M 342.1 2483.9 L 2746.8 2207.4 L 2746.8 2681.7 L 342.1 2958.2 Z" fill="#FFFFFF" opacity="0.127" /></g>
  <g filter="url(#soft158)"><g transform="rotate(-9.26 1536.0 1536.0)"><path d="M-368.6 522.7 C -225.8 512.7, -25.8 526.5, 107.5 477.4 C 250.4 464.0, 450.4 554.6, 583.7 468.4 C 726.5 479.1, 926.5 559.9, 1059.8 492.3 C 1202.7 493.1, 1402.7 544.6, 1536.0 534.7 C 1678.8 537.8, 1878.8 513.0, 2012.2 569.8 C 2155.0 579.0, 2355.0 494.0, 2488.3 576.3 C 2631.2 592.0, 2831.2 505.5, 2964.5 550.3 C 3107.3 550.4, 3307.3 489.7, 3440.6 507.6" fill="none" stroke="url(#ribbon158)" stroke-width="58.4" stroke-linecap="round" stroke-opacity="0.120" /></g><g transform="rotate(-8.68 1536.0 1536.0)"><path d="M-368.6 772.9 C -241.7 809.4, -63.9 739.1, 54.6 761.0 C 181.6 765.7, 359.4 782.2, 477.9 720.7 C 604.8 723.4, 782.6 821.0, 901.1 712.1 C 1028.1 695.1, 1205.9 802.9, 1324.4 740.4 C 1451.3 738.5, 1629.1 798.0, 1747.6 788.4 C 1874.6 786.7, 2052.4 766.7, 2170.9 827.1 C 2297.9 806.2, 2475.6 710.5, 2594.1 832.9 C 2721.1 817.4, 2898.9 743.4, 3017.4 802.4 C 3144.4 792.1, 3322.1 741.9, 3440.6 754.0" fill="none" stroke="url(#ribbon158)" stroke-width="54.4" stroke-linecap="round" stroke-opacity="0.146" /></g><g transform="rotate(-8.10 1536.0 1536.0)"><path d="M-368.6 908.4 C -254.4 864.5, -94.4 922.0, 12.3 923.9 C 126.6 925.5, 286.6 892.1, 393.2 967.7 C 507.5 990.3, 667.5 888.2, 774.1 975.6 C 888.4 968.3, 1048.4 842.2, 1155.1 942.7 C 1269.4 935.9, 1429.3 871.0, 1536.0 889.0 C 1650.3 893.5, 1810.3 919.4, 1916.9 847.0 C 2031.2 832.9, 2191.2 951.9, 2297.9 842.3 C 2412.1 865.8, 2572.1 937.6, 2678.8 877.7 C 2793.1 887.4, 2953.1 944.0, 3059.7 931.7 C 3174.0 939.8, 3334.0 895.2, 3440.6 971.5" fill="none" stroke="url(#ribbon158)" stroke-width="50.4" stroke-linecap="round" stroke-opacity="0.172" /></g><g transform="rotate(-7.52 1536.0 1536.0)"><path d="M-368.6 1048.1 C -264.8 1011.0, -119.3 1060.5, -22.3 977.1 C 81.5 970.5, 227.0 1093.8, 324.0 978.1 C 427.8 961.4, 573.3 1113.2, 670.3 1021.6 C 774.1 1015.7, 919.6 1076.1, 1016.6 1081.1 C 1120.4 1083.9, 1265.9 1028.5, 1362.9 1120.6 C 1466.7 1095.7, 1612.2 1020.7, 1709.1 1116.1 C 1813.0 1091.7, 1958.5 1006.4, 2055.4 1070.3 C 2159.3 1071.8, 2304.8 1039.1, 2401.7 1011.0 C 2505.6 1012.0, 2651.1 1090.6, 2748.0 974.3 C 2851.9 972.6, 2997.4 1118.4, 3094.3 982.2 C 3198.2 965.1, 3343.7 1119.7, 3440.6 1030.2" fill="none" stroke="url(#ribbon158)" stroke-width="46.4" stroke-linecap="round" stroke-opacity="0.198" /></g><g transform="rotate(-6.94 1536.0 1536.0)"><path d="M-368.6 1322.5 C -273.4 1349.1, -140.1 1298.1, -51.2 1278.6 C 44.0 1279.9, 177.4 1341.4, 266.2 1240.9 C 361.5 1271.0, 494.8 1394.7, 583.7 1252.7 C 678.9 1233.9, 812.2 1388.1, 901.1 1306.9 C 996.4 1302.0, 1129.7 1333.0, 1218.6 1370.5 C 1313.8 1360.2, 1447.1 1291.0, 1536.0 1405.0 C 1631.2 1413.4, 1764.6 1244.4, 1853.4 1389.5 C 1948.7 1398.5, 2082.0 1272.0, 2170.9 1333.3 C 2266.1 1335.9, 2399.4 1315.9, 2488.3 1270.6 C 2583.6 1276.3, 2716.9 1352.9, 2805.8 1239.3 C 2901.0 1267.0, 3034.3 1411.2, 3123.2 1258.6 C 3218.4 1263.6, 3351.8 1392.4, 3440.6 1316.5" fill="none" stroke="url(#ribbon158)" stroke-width="42.4" stroke-linecap="round" stroke-opacity="0.224" /></g><g transform="rotate(-6.36 1536.0 1536.0)"><path d="M-368.6 1440.1 C -225.8 1485.4, -25.8 1402.4, 107.5 1411.2 C 250.4 1415.5, 450.4 1465.4, 583.7 1358.4 C 726.5 1329.4, 926.5 1499.7, 1059.8 1355.1 C 1202.7 1339.2, 1402.7 1481.0, 1536.0 1403.4 C 1678.8 1391.5, 1878.8 1479.9, 2012.2 1473.9 C 2155.0 1482.1, 2355.0 1410.1, 2488.3 1524.0 C 2631.2 1556.3, 2831.2 1396.7, 2964.5 1523.1 C 3107.3 1535.9, 3307.3 1374.9, 3440.6 1471.9" fill="none" stroke="url(#ribbon158)" stroke-width="38.4" stroke-linecap="round" stroke-opacity="0.250" /></g><g transform="rotate(-5.78 1536.0 1536.0)"><path d="M-368.6 1622.6 C -241.7 1684.4, -63.9 1541.0, 54.6 1708.7 C 181.6 1733.1, 359.4 1538.5, 477.9 1649.5 C 604.8 1657.3, 782.6 1611.3, 901.1 1574.0 C 1028.1 1590.5, 1205.9 1667.7, 1324.4 1528.0 C 1451.3 1525.1, 1629.1 1723.7, 1747.6 1539.3 C 1874.6 1557.9, 2052.4 1652.1, 2170.9 1601.2 C 2297.9 1605.7, 2475.6 1630.4, 2594.1 1676.1 C 2721.1 1654.7, 2898.9 1581.8, 3017.4 1718.5 C 3144.4 1719.4, 3322.1 1563.4, 3440.6 1702.8" fill="none" stroke="url(#ribbon158)" stroke-width="34.4" stroke-linecap="round" stroke-opacity="0.276" /></g><g transform="rotate(-5.20 1536.0 1536.0)"><path d="M-368.6 1885.4 C -254.4 1957.8, -94.4 1830.6, 12.3 1990.1 C 126.6 1992.9, 286.6 1770.3, 393.2 1955.3 C 507.5 1966.5, 667.5 1836.8, 774.1 1878.1 C 888.4 1878.1, 1048.4 1892.9, 1155.1 1805.4 C 1269.4 1803.0, 1429.3 1919.9, 1536.0 1781.1 C 1650.3 1800.2, 1810.3 1977.3, 1916.9 1820.1 C 2031.2 1799.1, 2191.2 1911.8, 2297.9 1898.7 C 2412.1 1903.0, 2572.1 1876.5, 2678.8 1969.2 C 2793.1 1946.3, 2953.1 1830.7, 3059.7 1988.9 C 3174.0 1982.0, 3334.0 1826.8, 3440.6 1945.7" fill="none" stroke="url(#ribbon158)" stroke-width="30.4" stroke-linecap="round" stroke-opacity="0.302" /></g><g transform="rotate(-4.62 1536.0 1536.0)"><path d="M-368.6 2015.8 C -264.8 1918.9, -119.3 2092.9, -22.3 1903.9 C 81.5 1862.0, 227.0 2126.7, 324.0 1938.7 C 427.8 1946.3, 573.3 2084.7, 670.3 2020.2 C 774.1 2020.4, 919.6 2014.3, 1016.6 2099.0 C 1120.4 2074.7, 1265.9 1920.9, 1362.9 2127.3 C 1466.7 2119.4, 1612.2 1882.5, 1709.1 2088.0 C 1813.0 2068.1, 1958.5 1988.3, 2055.4 2004.9 C 2159.3 2008.8, 2304.8 2028.1, 2401.7 1928.3 C 2505.6 1936.4, 2651.1 2079.5, 2748.0 1904.8 C 2851.9 1879.4, 2997.4 2136.7, 3094.3 1948.6 C 3198.2 1944.6, 3343.7 2049.5, 3440.6 2033.1" fill="none" stroke="url(#ribbon158)" stroke-width="26.4" stroke-linecap="round" stroke-opacity="0.328" /></g><g transform="rotate(-4.04 1536.0 1536.0)"><path d="M-368.6 2224.0 C -273.4 2273.1, -140.1 2206.0, -51.2 2331.6 C 44.0 2343.4, 177.4 2159.6, 266.2 2335.1 C 361.5 2316.5, 494.8 2157.9, 583.7 2271.1 C 678.9 2256.1, 812.2 2201.1, 901.1 2178.6 C 996.4 2167.7, 1129.7 2256.6, 1218.6 2113.5 C 1313.8 2118.8, 1447.1 2298.7, 1536.0 2115.4 C 1631.2 2103.5, 1764.6 2273.4, 1853.4 2183.2 C 1948.7 2167.1, 2082.0 2272.5, 2170.9 2275.7 C 2266.1 2281.5, 2399.4 2194.6, 2488.3 2336.8 C 2583.6 2347.9, 2716.9 2139.8, 2805.8 2329.4 C 2901.0 2310.6, 3034.3 2144.0, 3123.2 2258.1 C 3218.4 2270.8, 3351.8 2190.0, 3440.6 2166.1" fill="none" stroke="url(#ribbon158)" stroke-width="22.4" stroke-linecap="round" stroke-opacity="0.354" /></g><g transform="rotate(-3.46 1536.0 1536.0)"><path d="M-368.6 2461.8 C -225.8 2315.4, -25.8 2535.2, 107.5 2342.6 C 250.4 2327.3, 450.4 2504.8, 583.7 2407.9 C 726.5 2416.8, 926.5 2508.5, 1059.8 2505.9 C 1202.7 2492.4, 1402.7 2421.8, 1536.0 2577.2 C 1678.8 2606.4, 1878.8 2357.4, 2012.2 2578.5 C 2155.0 2560.3, 2355.0 2411.4, 2488.3 2509.1 C 2631.2 2527.2, 2831.2 2430.7, 2964.5 2411.0 C 3107.3 2394.6, 3307.3 2480.7, 3440.6 2343.8" fill="none" stroke="url(#ribbon158)" stroke-width="18.4" stroke-linecap="round" stroke-opacity="0.380" /></g><g transform="rotate(-2.88 1536.0 1536.0)"><path d="M-368.6 2698.0 C -241.7 2630.4, -63.9 2749.0, 54.6 2749.7 C 181.6 2753.4, 359.4 2646.9, 477.9 2822.0 C 604.8 2825.3, 782.6 2602.9, 901.1 2819.0 C 1028.1 2832.6, 1205.9 2639.3, 1324.4 2742.7 C 1451.3 2728.7, 1629.1 2671.7, 1747.6 2639.3 C 1874.6 2642.9, 2052.4 2738.0, 2170.9 2571.5 C 2297.9 2537.5, 2475.6 2763.5, 2594.1 2580.5 C 2721.1 2595.5, 2898.9 2772.0, 3017.4 2660.8 C 3144.4 2661.4, 3322.1 2741.0, 3440.6 2763.7" fill="none" stroke="url(#ribbon158)" stroke-width="14.4" stroke-linecap="round" stroke-opacity="0.406" /></g></g>
  <g><ellipse cx="1536.0" cy="1551.9" rx="728.6" ry="605.7" fill="url(#extrude158)" opacity="0.220" /><ellipse cx="1536.0" cy="1567.7" rx="736.0" ry="610.9" fill="url(#extrude158)" opacity="0.205" /><ellipse cx="1536.0" cy="1583.6" rx="743.4" ry="616.1" fill="url(#extrude158)" opacity="0.190" /><ellipse cx="1536.0" cy="1599.5" rx="750.9" ry="621.3" fill="url(#extrude158)" opacity="0.175" /><ellipse cx="1536.0" cy="1615.4" rx="758.3" ry="626.5" fill="url(#extrude158)" opacity="0.160" /><ellipse cx="1536.0" cy="1631.2" rx="765.7" ry="631.7" fill="url(#extrude158)" opacity="0.145" /><ellipse cx="1536.0" cy="1647.1" rx="773.2" ry="636.9" fill="url(#extrude158)" opacity="0.130" /><ellipse cx="1536.0" cy="1663.0" rx="780.6" ry="642.1" fill="url(#extrude158)" opacity="0.115" /><ellipse cx="1536.0" cy="1678.8" rx="788.0" ry="647.4" fill="url(#extrude158)" opacity="0.100" /><ellipse cx="1536.0" cy="1694.7" rx="795.5" ry="652.6" fill="url(#extrude158)" opacity="0.085" /><ellipse cx="1536.0" cy="1710.6" rx="802.9" ry="657.8" fill="url(#extrude158)" opacity="0.070" /><ellipse cx="1536.0" cy="1726.5" rx="810.3" ry="663.0" fill="url(#extrude158)" opacity="0.055" /></g>
  <ellipse cx="1536.0" cy="1726.5" rx="773.2" ry="214.9" fill="#0B1D2D" opacity="0.24" />
  <ellipse cx="1536.0" cy="1536.0" rx="743.4" ry="651.3" fill="url(#orb158)" stroke="#FFFFFF" stroke-opacity="0.42" stroke-width="7" />
  <ellipse cx="1431.9" cy="1392.7" rx="505.5" ry="299.6" fill="#FFFFFF" opacity="0.25" />
  <path d="M 199.4 399.4 C 1013.8 -30.7, 2058.2 768.0, 2872.6 215.0 L 2872.6 983.0 C 2089.0 1228.8, 1013.8 307.2, 199.4 1167.4 Z" fill="url(#glass158)" />
  <rect x="270" y="270" width="2532" height="2532" rx="430" fill="none" stroke="#FFFFFF" stroke-opacity="0.30" stroke-width="5" />
  <rect x="288.4" y="288.4" width="2495.1" height="2495.1" rx="399" fill="none" stroke="#FF9F43" stroke-opacity="0.35" stroke-width="3" />
  <g filter="url(#soft158)"><rect x="2770" y="955" width="66" height="2" fill="#FFFFFF" opacity="0.515" /><rect x="2802" y="923" width="2" height="66" fill="#FFFFFF" opacity="0.515" /><rect x="2284" y="1903" width="72" height="2" fill="#FFFFFF" opacity="0.437" /><rect x="2319" y="1868" width="2" height="72" fill="#FFFFFF" opacity="0.437" /><rect x="2314" y="2203" width="66" height="2" fill="#FFFFFF" opacity="0.781" /><rect x="2346" y="2171" width="2" height="66" fill="#FFFFFF" opacity="0.781" /><rect x="1794" y="884" width="48" height="2" fill="#FFFFFF" opacity="0.715" /><rect x="1817" y="861" width="2" height="48" fill="#FFFFFF" opacity="0.715" /><rect x="1535" y="732" width="68" height="2" fill="#FFFFFF" opacity="0.733" /><rect x="1568" y="699" width="2" height="68" fill="#FFFFFF" opacity="0.733" /><rect x="1791" y="2447" width="58" height="2" fill="#FFFFFF" opacity="0.764" /><rect x="1819" y="2419" width="2" height="58" fill="#FFFFFF" opacity="0.764" /><rect x="818" y="446" width="30" height="2" fill="#FFFFFF" opacity="0.520" /><rect x="832" y="432" width="2" height="30" fill="#FFFFFF" opacity="0.520" /><rect x="2199" y="1465" width="34" height="2" fill="#FFFFFF" opacity="0.452" /><rect x="2215" y="1449" width="2" height="34" fill="#FFFFFF" opacity="0.452" /><rect x="1096" y="2066" width="80" height="2" fill="#FFFFFF" opacity="0.687" /><rect x="1135" y="2027" width="2" height="80" fill="#FFFFFF" opacity="0.687" /><rect x="931" y="354" width="68" height="2" fill="#FFFFFF" opacity="0.450" /><rect x="964" y="321" width="2" height="68" fill="#FFFFFF" opacity="0.450" /><rect x="1657" y="1950" width="70" height="2" fill="#FFFFFF" opacity="0.586" /><rect x="1691" y="1916" width="2" height="70" fill="#FFFFFF" opacity="0.586" /><rect x="2741" y="1047" width="68" height="2" fill="#FFFFFF" opacity="0.382" /><rect x="2774" y="1014" width="2" height="68" fill="#FFFFFF" opacity="0.382" /><rect x="795" y="1152" width="58" height="2" fill="#FFFFFF" opacity="0.400" /><rect x="823" y="1124" width="2" height="58" fill="#FFFFFF" opacity="0.400" /><rect x="847" y="2167" width="40" height="2" fill="#FFFFFF" opacity="0.591" /><rect x="866" y="2148" width="2" height="40" fill="#FFFFFF" opacity="0.591" /><rect x="2661" y="2044" width="34" height="2" fill="#FFFFFF" opacity="0.721" /><rect x="2677" y="2028" width="2" height="34" fill="#FFFFFF" opacity="0.721" /><rect x="2332" y="1391" width="30" height="2" fill="#FFFFFF" opacity="0.361" /><rect x="2346" y="1377" width="2" height="30" fill="#FFFFFF" opacity="0.361" /><rect x="2022" y="2571" width="64" height="2" fill="#FFFFFF" opacity="0.789" /><rect x="2053" y="2540" width="2" height="64" fill="#FFFFFF" opacity="0.789" /><rect x="1430" y="496" width="74" height="2" fill="#FFFFFF" opacity="0.845" /><rect x="1466" y="460" width="2" height="74" fill="#FFFFFF" opacity="0.845" /><rect x="2747" y="745" width="58" height="2" fill="#FFFFFF" opacity="0.341" /><rect x="2775" y="717" width="2" height="58" fill="#FFFFFF" opacity="0.341" /><rect x="1502" y="481" width="56" height="2" fill="#FFFFFF" opacity="0.610" /><rect x="1529" y="454" width="2" height="56" fill="#FFFFFF" opacity="0.610" /><rect x="1536" y="1813" width="76" height="2" fill="#FFFFFF" opacity="0.669" /><rect x="1573" y="1776" width="2" height="76" fill="#FFFFFF" opacity="0.669" /><rect x="2298" y="1888" width="54" height="2" fill="#FFFFFF" opacity="0.838" /><rect x="2324" y="1862" width="2" height="54" fill="#FFFFFF" opacity="0.838" /><rect x="439" y="393" width="66" height="2" fill="#FFFFFF" opacity="0.488" /><rect x="471" y="361" width="2" height="66" fill="#FFFFFF" opacity="0.488" /><rect x="895" y="2759" width="76" height="2" fill="#FFFFFF" opacity="0.378" /><rect x="932" y="2722" width="2" height="76" fill="#FFFFFF" opacity="0.378" /><rect x="2306" y="551" width="34" height="2" fill="#FFFFFF" opacity="0.363" /><rect x="2322" y="535" width="2" height="34" fill="#FFFFFF" opacity="0.363" /><rect x="860" y="1792" width="58" height="2" fill="#FFFFFF" opacity="0.477" /><rect x="888" y="1764" width="2" height="58" fill="#FFFFFF" opacity="0.477" /></g>
  <g opacity="0.52"><path d="M996 1582 L1316 2131 L2148 1121" fill="none" stroke="#0C2030" stroke-width="90" stroke-linecap="round" stroke-linejoin="round" /><circle cx="996" cy="1582" r="47" fill="#0C2030" /><circle cx="1316" cy="2131" r="47" fill="#0C2030" /><circle cx="2148" cy="1121" r="47" fill="#0C2030" /></g>
  <g filter="url(#soft158)"><path d="M960 1536 L1280 2085 L2112 1075" fill="none" stroke="url(#symbol158)" stroke-width="90" stroke-linecap="round" stroke-linejoin="round" /><circle cx="960" cy="1536" r="47" fill="url(#symbol158)" /><circle cx="1280" cy="2085" r="47" fill="url(#symbol158)" /><circle cx="2112" cy="1075" r="47" fill="url(#symbol158)" /></g>
  <rect x="138" y="138" width="2796" height="2796" rx="629" fill="#FFFFFF" filter="url(#grain158)" opacity="0.18" />
</svg>
