<svg xmlns="http://www.w3.org/2000/svg" width="3072" height="3072" viewBox="0 0 3072 3072">
  <title>QuartzOS App Icon 039 - prime_studio_039</title>
  <defs><linearGradient id="bg38" x1="0%" y1="0%" x2="100%" y2="100%"><stop offset="0%" stop-color="#FF6AB3" /><stop offset="26%" stop-color="#FFD84D" /><stop offset="56%" stop-color="#36D1FF" /><stop offset="78%" stop-color="#5E86C9" /><stop offset="100%" stop-color="#1C2435" /></linearGradient><radialGradient id="sun38" cx="29%" cy="26%" r="88%"><stop offset="0%" stop-color="#FFFFFF" stop-opacity="0.62" /><stop offset="30%" stop-color="#3B82FF" stop-opacity="0.35" /><stop offset="100%" stop-color="#3B82FF" stop-opacity="0" /></radialGradient><linearGradient id="glass38" x1="0%" y1="0%" x2="0%" y2="100%"><stop offset="0%" stop-color="#FFFFFF" stop-opacity="0.70" /><stop offset="46%" stop-color="#FFFFFF" stop-opacity="0.26" /><stop offset="100%" stop-color="#FFFFFF" stop-opacity="0.00" /></linearGradient><linearGradient id="ribbon38" x1="0%" y1="0%" x2="100%" y2="0%"><stop offset="0%" stop-color="#FF6AB3" stop-opacity="0.18" /><stop offset="34%" stop-color="#FFD84D" stop-opacity="0.72" /><stop offset="66%" stop-color="#36D1FF" stop-opacity="0.72" /><stop offset="100%" stop-color="#3B82FF" stop-opacity="0.18" /></linearGradient><radialGradient id="orb38" cx="34%" cy="27%" r="74%"><stop offset="0%" stop-color="#FFFFFF" stop-opacity="0.84" /><stop offset="30%" stop-color="#FF6AB3" stop-opacity="0.52" /><stop offset="68%" stop-color="#FFD84D" stop-opacity="0.42" /><stop offset="100%" stop-color="#36D1FF" stop-opacity="0.20" /></radialGradient><linearGradient id="extrude38" x1="0%" y1="0%" x2="0%" y2="100%"><stop offset="0%" stop-color="#15283C" stop-opacity="0.45" /><stop offset="100%" stop-color="#08131D" stop-opacity="0.06" /></linearGradient><linearGradient id="symbol38" x1="0%" y1="0%" x2="100%" y2="100%"><stop offset="0%" stop-color="#FFFFFF" /><stop offset="100%" stop-color="#3B82FF" /></linearGradient><filter id="shadow38" x="-40%" y="-40%" width="180%" height="180%"><feDropShadow dx="0" dy="49" stdDeviation="86" flood-color="#06111A" flood-opacity="0.54" /></filter><filter id="soft38" x="-40%" y="-40%" width="180%" height="180%"><feDropShadow dx="0" dy="0" stdDeviation="14" flood-color="#FF6AB3" flood-opacity="0.45" /></filter><filter id="grain38"><feTurbulence type="fractalNoise" baseFrequency="0.825" numOctaves="2" seed="38" /><feColorMatrix type="saturate" values="0" /><feComponentTransfer><feFuncA type="table" tableValues="0 0.09" /></feComponentTransfer></filter></defs>
  <rect x="138" y="138" width="2796" height="2796" rx="629" fill="url(#bg38)" filter="url(#shadow38)" />
  <rect x="138" y="138" width="2796" height="2796" rx="629" fill="url(#sun38)" />
  <g><circle cx="1338" cy="1520" r="116" fill="#FFFFFF" opacity="0.128" /><circle cx="1436" cy="1867" r="66" fill="#FFFFFF" opacity="0.111" /><circle cx="1247" cy="621" r="66" fill="#FFFFFF" opacity="0.239" /><circle cx="1350" cy="2661" r="110" fill="#FFFFFF" opacity="0.076" /><circle cx="2593" cy="1817" r="59" fill="#FFFFFF" opacity="0.108" /><circle cx="2578" cy="790" r="139" fill="#FFFFFF" opacity="0.134" /><circle cx="1246" cy="2537" r="43" fill="#FFFFFF" opacity="0.238" /><circle cx="1855" cy="1455" r="58" fill="#FFFFFF" opacity="0.195" /><circle cx="1284" cy="924" r="38" fill="#FFFFFF" opacity="0.230" /><circle cx="1483" cy="472" r="56" fill="#FFFFFF" opacity="0.145" /><circle cx="2156" cy="1884" r="116" fill="#FFFFFF" opacity="0.188" /><circle cx="651" cy="2682" r="96" fill="#FFFFFF" opacity="0.236" /><circle cx="2336" cy="1128" r="79" fill="#FFFFFF" opacity="0.194" /><circle cx="912" cy="1565" r="91" fill="#FFFFFF" opacity="0.100" /><circle cx="787" cy="2296" r="71" fill="#FFFFFF" opacity="0.206" /><circle cx="2468" cy="1544" r="149" fill="#FFFFFF" opacity="0.159" /><circle cx="903" cy="2502" r="146" fill="#FFFFFF" opacity="0.185" /><circle cx="600" cy="1496" r="148" fill="#FFFFFF" opacity="0.208" /><circle cx="592" cy="1371" r="157" fill="#FFFFFF" opacity="0.110" /><circle cx="916" cy="1774" r="117" fill="#FFFFFF" opacity="0.212" /><circle cx="1185" cy="2453" r="82" fill="#FFFFFF" opacity="0.212" /><circle cx="2073" cy="1203" r="75" fill="#FFFFFF" opacity="0.088" /><circle cx="2473" cy="2202" r="48" fill="#FFFFFF" opacity="0.203" /><circle cx="1972" cy="805" r="61" fill="#FFFFFF" opacity="0.075" /><circle cx="2571" cy="2463" r="54" fill="#FFFFFF" opacity="0.164" /><circle cx="1787" cy="2292" r="106" fill="#FFFFFF" opacity="0.086" /><circle cx="2589" cy="951" r="140" fill="#FFFFFF" opacity="0.065" /><circle cx="780" cy="1308" r="156" fill="#FFFFFF" opacity="0.189" /></g>
  <g><path d="M 161.6 637.3 L 2851.6 360.9 L 2851.6 852.4 L 161.6 1128.9 Z" fill="#FFFFFF" opacity="0.097" /><path d="M 201.9 886.7 L 2694.6 610.2 L 2694.6 1078.6 L 201.9 1355.1 Z" fill="#FFFFFF" opacity="0.111" /><path d="M 379.2 1173.5 L 2690.6 897.0 L 2690.6 1343.0 L 379.2 1619.4 Z" fill="#FFFFFF" opacity="0.214" /><path d="M 286.9 1413.0 L 2883.0 1136.6 L 2883.0 1576.9 L 286.9 1853.4 Z" fill="#FFFFFF" opacity="0.219" /><path d="M 249.2 1663.9 L 2705.9 1387.4 L 2705.9 1872.3 L 249.2 2148.8 Z" fill="#FFFFFF" opacity="0.149" /><path d="M 381.1 1930.8 L 2712.0 1654.3 L 2712.0 2082.2 L 381.1 2358.6 Z" fill="#FFFFFF" opacity="0.229" /><path d="M 317.9 2199.8 L 2760.6 1923.3 L 2760.6 2405.3 L 317.9 2681.8 Z" fill="#FFFFFF" opacity="0.145" /><path d="M 219.7 2458.4 L 2824.6 2181.9 L 2824.6 2667.0 L 219.7 2943.5 Z" fill="#FFFFFF" opacity="0.142" /></g>
  <g filter="url(#soft38)"><g transform="rotate(-4.31 1536.0 1536.0)"><path d="M-368.6 476.5 C -225.8 514.3, -25.8 420.6, 107.5 514.7 C 250.4 520.8, 450.4 463.6, 583.7 474.4 C 726.5 474.0, 926.5 477.5, 1059.8 435.4 C 1202.7 434.4, 1402.7 505.7, 1536.0 421.4 C 1678.8 435.5, 1878.8 530.5, 2012.2 440.8 C 2155.0 453.4, 2355.0 500.5, 2488.3 481.9 C 2631.2 483.6, 2831.2 474.2, 2964.5 519.8 C 3107.3 525.9, 3307.3 456.3, 3440.6 531.4" fill="none" stroke="url(#ribbon38)" stroke-width="58.4" stroke-linecap="round" stroke-opacity="0.120" /></g><g transform="rotate(-3.73 1536.0 1536.0)"><path d="M-368.6 728.4 C -241.7 740.5, -63.9 720.2, 54.6 780.0 C 181.6 799.4, 359.4 694.1, 477.9 789.4 C 604.8 780.0, 782.6 698.5, 901.1 761.8 C 1028.1 751.6, 1205.9 703.4, 1324.4 713.9 C 1451.3 718.9, 1629.1 742.4, 1747.6 674.8 C 1874.6 690.5, 2052.4 748.2, 2170.9 668.2 C 2297.9 674.0, 2475.6 791.9, 2594.1 698.1 C 2721.1 687.6, 2898.9 751.0, 3017.4 746.4 C 3144.4 753.0, 3322.1 716.2, 3440.6 783.8" fill="none" stroke="url(#ribbon38)" stroke-width="54.4" stroke-linecap="round" stroke-opacity="0.146" /></g><g transform="rotate(-3.15 1536.0 1536.0)"><path d="M-368.6 924.0 C -254.4 881.1, -94.4 972.4, 12.3 880.2 C 126.6 882.3, 286.6 948.6, 393.2 932.1 C 507.5 928.9, 667.5 919.8, 774.1 979.1 C 888.4 993.7, 1048.4 895.3, 1155.1 992.6 C 1269.4 983.6, 1429.3 869.2, 1536.0 964.5 C 1650.3 956.7, 1810.3 890.1, 1916.9 911.8 C 2031.2 907.3, 2191.2 932.1, 2297.9 866.4 C 2412.1 853.0, 2572.1 956.2, 2678.8 856.0 C 2793.1 831.7, 2953.1 972.9, 3059.7 886.8 C 3174.0 883.7, 3334.0 941.0, 3440.6 940.1" fill="none" stroke="url(#ribbon38)" stroke-width="50.4" stroke-linecap="round" stroke-opacity="0.172" /></g><g transform="rotate(-2.57 1536.0 1536.0)"><path d="M-368.6 1075.1 C -264.8 1151.1, -119.3 1029.5, -22.3 1078.9 C 81.5 1078.8, 227.0 1072.3, 324.0 1023.0 C 427.8 1005.2, 573.3 1114.8, 670.3 998.7 C 774.1 981.3, 919.6 1162.9, 1016.6 1020.7 C 1120.4 1041.9, 1265.9 1114.9, 1362.9 1075.8 C 1466.7 1075.8, 1612.2 1074.5, 1709.1 1130.5 C 1813.0 1148.7, 1958.5 1033.0, 2055.4 1151.6 C 2159.3 1181.7, 2304.8 1037.1, 2401.7 1126.3 C 2505.6 1139.0, 2651.1 1043.5, 2748.0 1070.0 C 2851.9 1071.3, 2997.4 1077.6, 3094.3 1016.8 C 3198.2 1004.5, 3343.7 1108.5, 3440.6 999.0" fill="none" stroke="url(#ribbon38)" stroke-width="46.4" stroke-linecap="round" stroke-opacity="0.198" /></g><g transform="rotate(-1.99 1536.0 1536.0)"><path d="M-368.6 1269.5 C -273.4 1207.0, -140.1 1306.4, -51.2 1266.2 C 44.0 1266.7, 177.4 1271.0, 266.2 1327.1 C 361.5 1341.2, 494.8 1249.0, 583.7 1353.0 C 678.9 1380.0, 812.2 1239.5, 901.1 1328.3 C 996.4 1345.3, 1129.7 1222.5, 1218.6 1267.9 C 1313.8 1267.8, 1447.1 1270.2, 1536.0 1208.4 C 1631.2 1213.1, 1764.6 1339.5, 1853.4 1186.0 C 1948.7 1166.9, 2082.0 1294.7, 2170.9 1214.3 C 2266.1 1214.5, 2399.4 1305.6, 2488.3 1276.0 C 2583.6 1276.1, 2716.9 1266.1, 2805.8 1333.8 C 2901.0 1317.7, 3034.3 1248.4, 3123.2 1352.6 C 3218.4 1329.4, 3351.8 1176.3, 3440.6 1321.0" fill="none" stroke="url(#ribbon38)" stroke-width="42.4" stroke-linecap="round" stroke-opacity="0.224" /></g><g transform="rotate(-1.41 1536.0 1536.0)"><path d="M-368.6 1493.5 C -225.8 1420.5, -25.8 1542.4, 107.5 1403.7 C 250.4 1396.7, 450.4 1552.1, 583.7 1439.4 C 726.5 1420.0, 926.5 1543.5, 1059.8 1507.9 C 1202.7 1508.2, 1402.7 1477.9, 1536.0 1567.7 C 1678.8 1547.8, 1878.8 1405.6, 2012.2 1582.5 C 2155.0 1598.9, 2355.0 1454.7, 2488.3 1543.3 C 2631.2 1527.0, 2831.2 1475.1, 2964.5 1473.9 C 3107.3 1469.8, 3307.3 1512.9, 3440.6 1416.4" fill="none" stroke="url(#ribbon38)" stroke-width="38.4" stroke-linecap="round" stroke-opacity="0.250" /></g><g transform="rotate(-0.83 1536.0 1536.0)"><path d="M-368.6 1679.9 C -241.7 1695.1, -63.9 1666.5, 54.6 1759.6 C 181.6 1761.6, 359.4 1629.6, 477.9 1776.0 C 604.8 1796.9, 782.6 1597.4, 901.1 1734.1 C 1028.1 1738.8, 1205.9 1623.0, 1324.4 1659.3 C 1451.3 1664.5, 1629.1 1699.5, 1747.6 1597.1 C 1874.6 1623.0, 2052.4 1760.1, 2170.9 1585.0 C 2297.9 1601.8, 2475.6 1775.9, 2594.1 1630.6 C 2721.1 1635.8, 2898.9 1724.4, 3017.4 1706.0 C 3144.4 1697.1, 3322.1 1651.6, 3440.6 1765.6" fill="none" stroke="url(#ribbon38)" stroke-width="34.4" stroke-linecap="round" stroke-opacity="0.276" /></g><g transform="rotate(-0.25 1536.0 1536.0)"><path d="M-368.6 1845.5 C -254.4 1902.9, -94.4 1809.3, 12.3 1949.7 C 126.6 1951.0, 286.6 1799.1, 393.2 1925.4 C 507.5 1938.8, 667.5 1770.6, 774.1 1852.6 C 888.4 1852.2, 1048.4 1839.9, 1155.1 1775.5 C 1269.4 1751.8, 1429.3 1889.6, 1536.0 1740.8 C 1650.3 1703.8, 1810.3 1902.3, 1916.9 1769.6 C 2031.2 1785.5, 2191.2 1889.8, 2297.9 1844.4 C 2412.1 1844.4, 2572.1 1846.0, 2678.8 1919.9 C 2793.1 1927.5, 2953.1 1803.9, 3059.7 1950.2 C 3174.0 1960.4, 3334.0 1738.5, 3440.6 1917.0" fill="none" stroke="url(#ribbon38)" stroke-width="30.4" stroke-linecap="round" stroke-opacity="0.302" /></g><g transform="rotate(0.33 1536.0 1536.0)"><path d="M-368.6 2028.1 C -264.8 1877.8, -119.3 2064.7, -22.3 1946.7 C 81.5 1919.1, 227.0 2124.9, 324.0 2026.5 C 427.8 2026.6, 573.3 2029.2, 670.3 2107.2 C 774.1 2096.8, 919.6 1967.4, 1016.6 2139.9 C 1120.4 2132.3, 1265.9 1922.6, 1362.9 2104.7 C 1466.7 2107.6, 1612.2 1939.2, 1709.1 2023.1 C 1813.0 2022.9, 1958.5 2032.4, 2055.4 1944.5 C 2159.3 1951.0, 2304.8 2072.3, 2401.7 1916.5 C 2505.6 1875.5, 2651.1 2104.2, 2748.0 1956.3 C 2851.9 1970.3, 2997.4 2053.5, 3094.3 2039.5 C 3198.2 2037.0, 3343.7 2021.4, 3440.6 2115.8" fill="none" stroke="url(#ribbon38)" stroke-width="26.4" stroke-linecap="round" stroke-opacity="0.328" /></g><g transform="rotate(0.91 1536.0 1536.0)"><path d="M-368.6 2248.9 C -273.4 2339.4, -140.1 2210.3, -51.2 2296.2 C 44.0 2312.3, 177.4 2211.9, 266.2 2203.6 C 361.5 2199.5, 494.8 2268.1, 583.7 2138.5 C 678.9 2123.9, 812.2 2330.8, 901.1 2140.3 C 996.4 2171.5, 1129.7 2378.2, 1218.6 2208.0 C 1313.8 2194.5, 1447.1 2296.1, 1536.0 2300.4 C 1631.2 2280.7, 1764.6 2205.3, 1853.4 2361.6 C 1948.7 2348.4, 2082.0 2126.9, 2170.9 2354.4 C 2266.1 2367.9, 2399.4 2168.4, 2488.3 2283.2 C 2583.6 2290.6, 2716.9 2229.8, 2805.8 2191.1 C 2901.0 2183.9, 3034.3 2316.3, 3123.2 2134.1 C 3218.4 2106.5, 3351.8 2344.3, 3440.6 2146.7" fill="none" stroke="url(#ribbon38)" stroke-width="22.4" stroke-linecap="round" stroke-opacity="0.354" /></g><g transform="rotate(1.49 1536.0 1536.0)"><path d="M-368.6 2418.8 C -225.8 2326.4, -25.8 2460.1, 107.5 2303.1 C 250.4 2320.2, 450.4 2525.0, 583.7 2373.9 C 726.5 2371.6, 926.5 2465.0, 1059.8 2472.0 C 1202.7 2457.3, 1402.7 2361.6, 1536.0 2537.8 C 1678.8 2547.2, 1878.8 2327.1, 2012.2 2531.4 C 2155.0 2561.3, 2355.0 2336.3, 2488.3 2456.8 C 2631.2 2460.5, 2831.2 2385.3, 2964.5 2359.1 C 3107.3 2349.0, 3307.3 2475.6, 3440.6 2297.7" fill="none" stroke="url(#ribbon38)" stroke-width="18.4" stroke-linecap="round" stroke-opacity="0.380" /></g><g transform="rotate(2.07 1536.0 1536.0)"><path d="M-368.6 2621.6 C -241.7 2549.0, -63.9 2710.8, 54.6 2639.6 C 181.6 2645.6, 359.4 2612.5, 477.9 2728.7 C 604.8 2696.6, 782.6 2503.7, 901.1 2752.8 C 1028.1 2778.7, 1205.9 2500.5, 1324.4 2697.3 C 1451.3 2693.6, 1629.1 2574.8, 1747.6 2595.9 C 1874.6 2601.7, 2052.4 2647.1, 2170.9 2510.1 C 2297.9 2550.1, 2475.6 2665.8, 2594.1 2491.9 C 2721.1 2445.7, 2898.9 2672.6, 3017.4 2552.3 C 3144.4 2528.2, 3322.1 2646.5, 3440.6 2654.8" fill="none" stroke="url(#ribbon38)" stroke-width="14.4" stroke-linecap="round" stroke-opacity="0.406" /></g></g>
  <g><ellipse cx="1536.0" cy="1551.9" rx="728.6" ry="605.7" fill="url(#extrude38)" opacity="0.220" /><ellipse cx="1536.0" cy="1567.7" rx="736.0" ry="610.9" fill="url(#extrude38)" opacity="0.205" /><ellipse cx="1536.0" cy="1583.6" rx="743.4" ry="616.1" fill="url(#extrude38)" opacity="0.190" /><ellipse cx="1536.0" cy="1599.5" rx="750.9" ry="621.3" fill="url(#extrude38)" opacity="0.175" /><ellipse cx="1536.0" cy="1615.4" rx="758.3" ry="626.5" fill="url(#extrude38)" opacity="0.160" /><ellipse cx="1536.0" cy="1631.2" rx="765.7" ry="631.7" fill="url(#extrude38)" opacity="0.145" /><ellipse cx="1536.0" cy="1647.1" rx="773.2" ry="636.9" fill="url(#extrude38)" opacity="0.130" /><ellipse cx="1536.0" cy="1663.0" rx="780.6" ry="642.1" fill="url(#extrude38)" opacity="0.115" /><ellipse cx="1536.0" cy="1678.8" rx="788.0" ry="647.4" fill="url(#extrude38)" opacity="0.100" /><ellipse cx="1536.0" cy="1694.7" rx="795.5" ry="652.6" fill="url(#extrude38)" opacity="0.085" /><ellipse cx="1536.0" cy="1710.6" rx="802.9" ry="657.8" fill="url(#extrude38)" opacity="0.070" /><ellipse cx="1536.0" cy="1726.5" rx="810.3" ry="663.0" fill="url(#extrude38)" opacity="0.055" /></g>
  <ellipse cx="1536.0" cy="1726.5" rx="773.2" ry="214.9" fill="#0B1D2D" opacity="0.24" />
  <ellipse cx="1536.0" cy="1536.0" rx="743.4" ry="651.3" fill="url(#orb38)" stroke="#FFFFFF" stroke-opacity="0.42" stroke-width="7" />
  <ellipse cx="1431.9" cy="1392.7" rx="505.5" ry="299.6" fill="#FFFFFF" opacity="0.25" />
  <path d="M 199.4 399.4 C 1013.8 -30.7, 2058.2 768.0, 2872.6 215.0 L 2872.6 983.0 C 2089.0 1228.8, 1013.8 307.2, 199.4 1167.4 Z" fill="url(#glass38)" />
  <rect x="270" y="270" width="2532" height="2532" rx="430" fill="none" stroke="#FFFFFF" stroke-opacity="0.30" stroke-width="5" />
  <rect x="288.4" y="288.4" width="2495.1" height="2495.1" rx="399" fill="none" stroke="#FF6AB3" stroke-opacity="0.35" stroke-width="3" />
  <g filter="url(#soft38)"><rect x="941" y="2159" width="58" height="2" fill="#FFFFFF" opacity="0.833" /><rect x="969" y="2131" width="2" height="58" fill="#FFFFFF" opacity="0.833" /><rect x="1970" y="1315" width="68" height="2" fill="#FFFFFF" opacity="0.353" /><rect x="2003" y="1282" width="2" height="68" fill="#FFFFFF" opacity="0.353" /><rect x="945" y="626" width="28" height="2" fill="#FFFFFF" opacity="0.422" /><rect x="958" y="613" width="2" height="28" fill="#FFFFFF" opacity="0.422" /><rect x="1723" y="1666" width="36" height="2" fill="#FFFFFF" opacity="0.459" /><rect x="1740" y="1649" width="2" height="36" fill="#FFFFFF" opacity="0.459" /><rect x="1948" y="1915" width="80" height="2" fill="#FFFFFF" opacity="0.643" /><rect x="1987" y="1876" width="2" height="80" fill="#FFFFFF" opacity="0.643" /><rect x="993" y="1770" width="66" height="2" fill="#FFFFFF" opacity="0.654" /><rect x="1025" y="1738" width="2" height="66" fill="#FFFFFF" opacity="0.654" /><rect x="1035" y="547" width="82" height="2" fill="#FFFFFF" opacity="0.506" /><rect x="1075" y="507" width="2" height="82" fill="#FFFFFF" opacity="0.506" /><rect x="283" y="1340" width="54" height="2" fill="#FFFFFF" opacity="0.448" /><rect x="309" y="1314" width="2" height="54" fill="#FFFFFF" opacity="0.448" /><rect x="2191" y="2415" width="76" height="2" fill="#FFFFFF" opacity="0.351" /><rect x="2228" y="2378" width="2" height="76" fill="#FFFFFF" opacity="0.351" /><rect x="877" y="1329" width="82" height="2" fill="#FFFFFF" opacity="0.796" /><rect x="917" y="1289" width="2" height="82" fill="#FFFFFF" opacity="0.796" /><rect x="623" y="779" width="30" height="2" fill="#FFFFFF" opacity="0.504" /><rect x="637" y="765" width="2" height="30" fill="#FFFFFF" opacity="0.504" /><rect x="342" y="789" width="30" height="2" fill="#FFFFFF" opacity="0.843" /><rect x="356" y="775" width="2" height="30" fill="#FFFFFF" opacity="0.843" /><rect x="403" y="283" width="30" height="2" fill="#FFFFFF" opacity="0.787" /><rect x="417" y="269" width="2" height="30" fill="#FFFFFF" opacity="0.787" /><rect x="967" y="1437" width="50" height="2" fill="#FFFFFF" opacity="0.476" /><rect x="991" y="1413" width="2" height="50" fill="#FFFFFF" opacity="0.476" /><rect x="347" y="821" width="72" height="2" fill="#FFFFFF" opacity="0.338" /><rect x="382" y="786" width="2" height="72" fill="#FFFFFF" opacity="0.338" /><rect x="1875" y="2307" width="30" height="2" fill="#FFFFFF" opacity="0.437" /><rect x="1889" y="2293" width="2" height="30" fill="#FFFFFF" opacity="0.437" /><rect x="743" y="1714" width="40" height="2" fill="#FFFFFF" opacity="0.492" /><rect x="762" y="1695" width="2" height="40" fill="#FFFFFF" opacity="0.492" /><rect x="1496" y="2121" width="44" height="2" fill="#FFFFFF" opacity="0.547" /><rect x="1517" y="2100" width="2" height="44" fill="#FFFFFF" opacity="0.547" /><rect x="614" y="1005" width="32" height="2" fill="#FFFFFF" opacity="0.820" /><rect x="629" y="990" width="2" height="32" fill="#FFFFFF" opacity="0.820" /><rect x="1213" y="1810" width="38" height="2" fill="#FFFFFF" opacity="0.434" /><rect x="1231" y="1792" width="2" height="38" fill="#FFFFFF" opacity="0.434" /><rect x="1116" y="2472" width="64" height="2" fill="#FFFFFF" opacity="0.427" /><rect x="1147" y="2441" width="2" height="64" fill="#FFFFFF" opacity="0.427" /><rect x="1954" y="2155" width="76" height="2" fill="#FFFFFF" opacity="0.578" /><rect x="1991" y="2118" width="2" height="76" fill="#FFFFFF" opacity="0.578" /><rect x="2024" y="2645" width="74" height="2" fill="#FFFFFF" opacity="0.662" /><rect x="2060" y="2609" width="2" height="74" fill="#FFFFFF" opacity="0.662" /><rect x="1847" y="1593" width="60" height="2" fill="#FFFFFF" opacity="0.358" /><rect x="1876" y="1564" width="2" height="60" fill="#FFFFFF" opacity="0.358" /><rect x="1462" y="647" width="28" height="2" fill="#FFFFFF" opacity="0.433" /><rect x="1475" y="634" width="2" height="28" fill="#FFFFFF" opacity="0.433" /><rect x="1881" y="1729" width="82" height="2" fill="#FFFFFF" opacity="0.813" /><rect x="1921" y="1689" width="2" height="82" fill="#FFFFFF" opacity="0.813" /></g>
  <g opacity="0.52"><path d="M996 1582 L1316 2131 L2148 1121" fill="none" stroke="#0C2030" stroke-width="90" stroke-linecap="round" stroke-linejoin="round" /><circle cx="996" cy="1582" r="47" fill="#0C2030" /><circle cx="1316" cy="2131" r="47" fill="#0C2030" /><circle cx="2148" cy="1121" r="47" fill="#0C2030" /></g>
  <g filter="url(#soft38)"><path d="M960 1536 L1280 2085 L2112 1075" fill="none" stroke="url(#symbol38)" stroke-width="90" stroke-linecap="round" stroke-linejoin="round" /><circle cx="960" cy="1536" r="47" fill="url(#symbol38)" /><circle cx="1280" cy="2085" r="47" fill="url(#symbol38)" /><circle cx="2112" cy="1075" r="47" fill="url(#symbol38)" /></g>
  <rect x="138" y="138" width="2796" height="2796" rx="629" fill="#FFFFFF" filter="url(#grain38)" opacity="0.18" />
</svg>
