<svg xmlns="http://www.w3.org/2000/svg" width="3072" height="3072" viewBox="0 0 3072 3072">
  <title>QuartzOS App Icon 119 - prime_cloud_119</title>
  <defs><linearGradient id="bg118" x1="0%" y1="0%" x2="100%" y2="100%"><stop offset="0%" stop-color="#53E3A6" /><stop offset="26%" stop-color="#3B82FF" /><stop offset="56%" stop-color="#FF6AB3" /><stop offset="78%" stop-color="#58A3D8" /><stop offset="100%" stop-color="#1D2F45" /></linearGradient><radialGradient id="sun118" cx="29%" cy="38%" r="88%"><stop offset="0%" stop-color="#FFFFFF" stop-opacity="0.62" /><stop offset="30%" stop-color="#FF9F43" stop-opacity="0.35" /><stop offset="100%" stop-color="#FF9F43" stop-opacity="0" /></radialGradient><linearGradient id="glass118" x1="0%" y1="0%" x2="0%" y2="100%"><stop offset="0%" stop-color="#FFFFFF" stop-opacity="0.70" /><stop offset="46%" stop-color="#FFFFFF" stop-opacity="0.26" /><stop offset="100%" stop-color="#FFFFFF" stop-opacity="0.00" /></linearGradient><linearGradient id="ribbon118" x1="0%" y1="0%" x2="100%" y2="0%"><stop offset="0%" stop-color="#53E3A6" stop-opacity="0.18" /><stop offset="34%" stop-color="#3B82FF" stop-opacity="0.72" /><stop offset="66%" stop-color="#FF6AB3" stop-opacity="0.72" /><stop offset="100%" stop-color="#FF9F43" stop-opacity="0.18" /></linearGradient><radialGradient id="orb118" cx="34%" cy="27%" r="74%"><stop offset="0%" stop-color="#FFFFFF" stop-opacity="0.84" /><stop offset="30%" stop-color="#53E3A6" stop-opacity="0.52" /><stop offset="68%" stop-color="#3B82FF" stop-opacity="0.42" /><stop offset="100%" stop-color="#FF6AB3" stop-opacity="0.20" /></radialGradient><linearGradient id="extrude118" x1="0%" y1="0%" x2="0%" y2="100%"><stop offset="0%" stop-color="#15283C" stop-opacity="0.45" /><stop offset="100%" stop-color="#08131D" stop-opacity="0.06" /></linearGradient><linearGradient id="symbol118" x1="0%" y1="0%" x2="100%" y2="100%"><stop offset="0%" stop-color="#FFFFFF" /><stop offset="100%" stop-color="#FF9F43" /></linearGradient><filter id="shadow118" x="-40%" y="-40%" width="180%" height="180%"><feDropShadow dx="0" dy="49" stdDeviation="86" flood-color="#06111A" flood-opacity="0.54" /></filter><filter id="soft118" x="-40%" y="-40%" width="180%" height="180%"><feDropShadow dx="0" dy="0" stdDeviation="14" flood-color="#53E3A6" flood-opacity="0.45" /></filter><filter id="grain118"><feTurbulence type="fractalNoise" baseFrequency="0.764" numOctaves="2" seed="118" /><feColorMatrix type="saturate" values="0" /><feComponentTransfer><feFuncA type="table" tableValues="0 0.09" /></feComponentTransfer></filter></defs>
  <rect x="138" y="138" width="2796" height="2796" rx="629" fill="url(#bg118)" filter="url(#shadow118)" />
  <rect x="138" y="138" width="2796" height="2796" rx="629" fill="url(#sun118)" />
  <g><circle cx="816" cy="1497" r="102" fill="#FFFFFF" opacity="0.073" /><circle cx="1378" cy="473" r="159" fill="#FFFFFF" opacity="0.071" /><circle cx="945" cy="356" r="150" fill="#FFFFFF" opacity="0.232" /><circle cx="2220" cy="1107" r="77" fill="#FFFFFF" opacity="0.136" /><circle cx="1578" cy="2230" r="61" fill="#FFFFFF" opacity="0.138" /><circle cx="1276" cy="2312" r="41" fill="#FFFFFF" opacity="0.092" /><circle cx="825" cy="2233" r="120" fill="#FFFFFF" opacity="0.095" /><circle cx="562" cy="2028" r="71" fill="#FFFFFF" opacity="0.209" /><circle cx="1965" cy="1201" r="94" fill="#FFFFFF" opacity="0.073" /><circle cx="1560" cy="856" r="142" fill="#FFFFFF" opacity="0.120" /><circle cx="1491" cy="1857" r="110" fill="#FFFFFF" opacity="0.198" /><circle cx="2083" cy="999" r="96" fill="#FFFFFF" opacity="0.097" /><circle cx="636" cy="2137" r="143" fill="#FFFFFF" opacity="0.204" /><circle cx="2628" cy="2351" r="103" fill="#FFFFFF" opacity="0.220" /><circle cx="710" cy="2431" r="48" fill="#FFFFFF" opacity="0.202" /><circle cx="1199" cy="540" r="100" fill="#FFFFFF" opacity="0.138" /><circle cx="920" cy="410" r="47" fill="#FFFFFF" opacity="0.075" /><circle cx="2289" cy="1285" r="140" fill="#FFFFFF" opacity="0.158" /><circle cx="994" cy="2166" r="40" fill="#FFFFFF" opacity="0.178" /><circle cx="2652" cy="768" r="91" fill="#FFFFFF" opacity="0.219" /><circle cx="1628" cy="1755" r="104" fill="#FFFFFF" opacity="0.123" /><circle cx="579" cy="1493" r="130" fill="#FFFFFF" opacity="0.183" /><circle cx="404" cy="1028" r="70" fill="#FFFFFF" opacity="0.131" /><circle cx="641" cy="1342" r="80" fill="#FFFFFF" opacity="0.193" /><circle cx="1863" cy="2652" r="156" fill="#FFFFFF" opacity="0.113" /><circle cx="2243" cy="1343" r="49" fill="#FFFFFF" opacity="0.175" /><circle cx="2040" cy="2684" r="69" fill="#FFFFFF" opacity="0.231" /><circle cx="2322" cy="1017" r="150" fill="#FFFFFF" opacity="0.120" /></g>
  <g><path d="M 306.4 599.9 L 2902.2 323.4 L 2902.2 756.5 L 306.4 1033.0 Z" fill="#FFFFFF" opacity="0.092" /><path d="M 161.4 835.4 L 2689.8 559.0 L 2689.8 1050.0 L 161.4 1326.5 Z" fill="#FFFFFF" opacity="0.198" /><path d="M 273.7 1144.6 L 2878.6 868.1 L 2878.6 1341.8 L 273.7 1618.3 Z" fill="#FFFFFF" opacity="0.234" /><path d="M 319.7 1391.3 L 2889.5 1114.8 L 2889.5 1559.7 L 319.7 1836.1 Z" fill="#FFFFFF" opacity="0.116" /><path d="M 289.8 1626.7 L 2856.4 1350.2 L 2856.4 1777.9 L 289.8 2054.4 Z" fill="#FFFFFF" opacity="0.152" /><path d="M 270.2 1927.8 L 2881.1 1651.3 L 2881.1 2100.2 L 270.2 2376.6 Z" fill="#FFFFFF" opacity="0.209" /><path d="M 280.3 2136.5 L 2700.8 1860.0 L 2700.8 2311.6 L 280.3 2588.0 Z" fill="#FFFFFF" opacity="0.115" /><path d="M 269.1 2466.6 L 2757.4 2190.1 L 2757.4 2663.5 L 269.1 2940.0 Z" fill="#FFFFFF" opacity="0.083" /></g>
  <g filter="url(#soft118)"><g transform="rotate(-14.32 1536.0 1536.0)"><path d="M-368.6 531.8 C -225.8 517.6, -25.8 544.6, 107.5 483.4 C 250.4 470.5, 450.4 584.8, 583.7 478.9 C 726.5 489.0, 926.5 559.4, 1059.8 506.4 C 1202.7 505.3, 1402.7 540.5, 1536.0 549.4 C 1678.8 552.4, 1878.8 513.4, 2012.2 581.6 C 2155.0 585.0, 2355.0 488.1, 2488.3 583.7 C 2631.2 566.8, 2831.2 488.0, 2964.5 554.3 C 3107.3 555.1, 3307.3 523.8, 3440.6 511.2" fill="none" stroke="url(#ribbon118)" stroke-width="58.4" stroke-linecap="round" stroke-opacity="0.120" /></g><g transform="rotate(-13.74 1536.0 1536.0)"><path d="M-368.6 686.0 C -241.7 697.2, -63.9 681.7, 54.6 647.7 C 181.6 646.1, 359.4 709.8, 477.9 624.0 C 604.8 616.2, 782.6 727.9, 901.1 637.9 C 1028.1 625.4, 1205.9 709.5, 1324.4 681.0 C 1451.3 681.1, 1629.1 691.2, 1747.6 727.1 C 1874.6 718.6, 2052.4 641.8, 2170.9 748.3 C 2297.9 769.4, 2475.6 622.8, 2594.1 731.6 C 2721.1 729.3, 2898.9 647.2, 3017.4 687.3 C 3144.4 687.6, 3322.1 685.5, 3440.6 642.2" fill="none" stroke="url(#ribbon118)" stroke-width="54.4" stroke-linecap="round" stroke-opacity="0.146" /></g><g transform="rotate(-13.16 1536.0 1536.0)"><path d="M-368.6 856.5 C -254.4 887.5, -94.4 820.5, 12.3 925.5 C 126.6 951.1, 286.6 831.1, 393.2 909.7 C 507.5 915.2, 667.5 806.5, 774.1 861.6 C 888.4 860.4, 1048.4 851.1, 1155.1 810.3 C 1269.4 807.8, 1429.3 887.8, 1536.0 787.1 C 1650.3 810.4, 1810.3 921.8, 1916.9 805.9 C 2031.2 800.9, 2191.2 889.5, 2297.9 855.4 C 2412.1 855.4, 2572.1 857.5, 2678.8 905.5 C 2793.1 897.1, 2953.1 838.5, 3059.7 925.9 C 3174.0 924.2, 3334.0 815.2, 3440.6 904.1" fill="none" stroke="url(#ribbon118)" stroke-width="50.4" stroke-linecap="round" stroke-opacity="0.172" /></g><g transform="rotate(-12.58 1536.0 1536.0)"><path d="M-368.6 1061.4 C -264.8 1070.4, -119.3 1055.1, -22.3 1011.4 C 81.5 1008.7, 227.0 1082.5, 324.0 985.0 C 427.8 992.6, 573.3 1114.2, 670.3 1005.0 C 774.1 1019.1, 919.6 1118.0, 1016.6 1059.1 C 1120.4 1058.6, 1265.9 1062.4, 1362.9 1114.7 C 1466.7 1133.3, 1612.2 1039.4, 1709.1 1137.9 C 1813.0 1135.2, 1958.5 1012.4, 2055.4 1114.7 C 2159.3 1108.6, 2304.8 1013.7, 2401.7 1059.2 C 2505.6 1058.8, 2651.1 1062.7, 2748.0 1005.0 C 2851.9 1025.2, 2997.4 1088.2, 3094.3 985.0 C 3198.2 958.3, 3343.7 1116.7, 3440.6 1011.4" fill="none" stroke="url(#ribbon118)" stroke-width="46.4" stroke-linecap="round" stroke-opacity="0.198" /></g><g transform="rotate(-12.00 1536.0 1536.0)"><path d="M-368.6 1248.3 C -273.4 1171.5, -140.1 1327.2, -51.2 1225.5 C 44.0 1226.6, 177.4 1263.1, 266.2 1290.1 C 361.5 1277.2, 494.8 1227.3, 583.7 1329.3 C 678.9 1331.3, 812.2 1179.7, 901.1 1319.4 C 996.4 1339.2, 1129.7 1213.4, 1218.6 1266.3 C 1313.8 1259.3, 1447.1 1234.8, 1536.0 1202.3 C 1631.2 1216.5, 1764.6 1288.2, 1853.4 1166.2 C 1948.7 1196.9, 2082.0 1332.2, 2170.9 1179.9 C 2266.1 1186.7, 2399.4 1282.0, 2488.3 1235.1 C 2583.6 1236.2, 2716.9 1257.2, 2805.8 1298.3 C 2901.0 1279.4, 3034.3 1210.7, 3123.2 1331.1 C 3218.4 1354.4, 3351.8 1214.1, 3440.6 1313.8" fill="none" stroke="url(#ribbon118)" stroke-width="42.4" stroke-linecap="round" stroke-opacity="0.224" /></g><g transform="rotate(-11.42 1536.0 1536.0)"><path d="M-368.6 1490.3 C -225.8 1429.0, -25.8 1528.1, 107.5 1419.9 C 250.4 1430.6, 450.4 1567.9, 583.7 1482.2 C 726.5 1483.2, 926.5 1494.0, 1059.8 1549.4 C 1202.7 1527.8, 1402.7 1454.8, 1536.0 1580.8 C 1678.8 1578.5, 1878.8 1444.7, 2012.2 1557.2 C 2155.0 1557.3, 2355.0 1437.0, 2488.3 1493.1 C 2631.2 1492.3, 2831.2 1489.4, 2964.5 1427.3 C 3107.3 1433.1, 3307.3 1512.4, 3440.6 1399.7" fill="none" stroke="url(#ribbon118)" stroke-width="38.4" stroke-linecap="round" stroke-opacity="0.250" /></g><g transform="rotate(-10.84 1536.0 1536.0)"><path d="M-368.6 1678.2 C -241.7 1655.0, -63.9 1698.4, 54.6 1726.0 C 181.6 1706.9, 359.4 1654.7, 477.9 1772.6 C 604.8 1805.7, 782.6 1631.5, 901.1 1762.1 C 1028.1 1743.3, 1205.9 1586.1, 1324.4 1700.6 C 1451.3 1706.8, 1629.1 1661.9, 1747.6 1625.6 C 1874.6 1618.8, 2052.4 1723.2, 2170.9 1582.5 C 2297.9 1552.2, 2475.6 1731.0, 2594.1 1597.5 C 2721.1 1596.6, 2898.9 1712.0, 3017.4 1661.4 C 3144.4 1661.5, 3322.1 1696.6, 3440.6 1735.6" fill="none" stroke="url(#ribbon118)" stroke-width="34.4" stroke-linecap="round" stroke-opacity="0.276" /></g><g transform="rotate(-10.26 1536.0 1536.0)"><path d="M-368.6 1854.1 C -254.4 1854.9, -94.4 1853.0, 12.3 1779.6 C 126.6 1755.3, 286.6 1881.1, 393.2 1749.3 C 507.5 1731.6, 667.5 1905.6, 774.1 1782.5 C 888.4 1754.1, 1048.4 1901.9, 1155.1 1859.1 C 1269.4 1859.0, 1429.3 1850.5, 1536.0 1932.7 C 1650.3 1952.2, 1810.3 1779.6, 1916.9 1958.5 C 2031.2 1947.8, 2191.2 1729.2, 2297.9 1921.0 C 2412.1 1936.4, 2572.1 1802.7, 2678.8 1842.9 C 2793.1 1841.8, 2953.1 1857.9, 3059.7 1771.6 C 3174.0 1784.5, 3334.0 1923.7, 3440.6 1750.3" fill="none" stroke="url(#ribbon118)" stroke-width="30.4" stroke-linecap="round" stroke-opacity="0.302" /></g><g transform="rotate(-9.68 1536.0 1536.0)"><path d="M-368.6 2057.5 C -264.8 1983.4, -119.3 2105.0, -22.3 1948.0 C 81.5 1912.2, 227.0 2157.3, 324.0 1965.2 C 427.8 1942.8, 573.3 2103.6, 670.3 2038.4 C 774.1 2036.2, 919.6 2065.2, 1016.6 2123.2 C 1120.4 2145.7, 1265.9 2024.4, 1362.9 2168.2 C 1466.7 2194.9, 1612.2 1930.9, 1709.1 2146.1 C 1813.0 2146.5, 1958.5 2026.8, 2055.4 2070.2 C 2159.3 2066.6, 2304.8 2049.3, 2401.7 1986.7 C 2505.6 1981.5, 2651.1 2104.7, 2748.0 1946.1 C 2851.9 1933.4, 2997.4 2104.3, 3094.3 1973.2 C 3198.2 1961.0, 3343.7 2094.0, 3440.6 2051.4" fill="none" stroke="url(#ribbon118)" stroke-width="26.4" stroke-linecap="round" stroke-opacity="0.328" /></g><g transform="rotate(-9.10 1536.0 1536.0)"><path d="M-368.6 2283.4 C -273.4 2287.8, -140.1 2277.6, -51.2 2373.4 C 44.0 2383.3, 177.4 2206.5, 266.2 2401.8 C 361.5 2425.1, 494.8 2219.6, 583.7 2358.5 C 678.9 2358.0, 812.2 2233.5, 901.1 2269.6 C 996.4 2267.7, 1129.7 2290.0, 1218.6 2189.1 C 1313.8 2219.3, 1447.1 2325.5, 1536.0 2165.8 C 1631.2 2196.4, 1764.6 2380.0, 1853.4 2213.8 C 1948.7 2202.9, 2082.0 2305.5, 2170.9 2304.1 C 2266.1 2296.9, 2399.4 2273.5, 2488.3 2381.8 C 2583.6 2344.6, 2716.9 2218.4, 2805.8 2399.8 C 2901.0 2372.7, 3034.3 2149.3, 3123.2 2347.3 C 3218.4 2349.1, 3351.8 2234.5, 3440.6 2255.9" fill="none" stroke="url(#ribbon118)" stroke-width="22.4" stroke-linecap="round" stroke-opacity="0.354" /></g><g transform="rotate(-8.52 1536.0 1536.0)"><path d="M-368.6 2499.9 C -225.8 2508.3, -25.8 2496.3, 107.5 2413.9 C 250.4 2422.3, 450.4 2582.5, 583.7 2374.0 C 726.5 2396.8, 926.5 2547.0, 1059.8 2410.5 C 1202.7 2419.8, 1402.7 2586.1, 1536.0 2501.2 C 1678.8 2501.0, 1878.8 2498.5, 2012.2 2591.2 C 2155.0 2616.2, 2355.0 2454.9, 2488.3 2625.8 C 2631.2 2603.7, 2831.2 2377.6, 2964.5 2584.0 C 3107.3 2566.1, 3307.3 2415.6, 3440.6 2491.3" fill="none" stroke="url(#ribbon118)" stroke-width="18.4" stroke-linecap="round" stroke-opacity="0.380" /></g><g transform="rotate(-7.94 1536.0 1536.0)"><path d="M-368.6 2664.7 C -241.7 2684.2, -63.9 2650.3, 54.6 2583.3 C 181.6 2586.3, 359.4 2748.5, 477.9 2532.5 C 604.8 2525.9, 782.6 2780.3, 901.1 2561.9 C 1028.1 2554.6, 1205.9 2777.6, 1324.4 2653.7 C 1451.3 2656.6, 1629.1 2669.7, 1747.6 2752.1 C 1874.6 2782.8, 2052.4 2614.1, 2170.9 2797.6 C 2297.9 2759.0, 2475.6 2618.5, 2594.1 2762.4 C 2721.1 2738.0, 2898.9 2565.2, 3017.4 2668.0 C 3144.4 2669.1, 3322.1 2663.4, 3440.6 2571.6" fill="none" stroke="url(#ribbon118)" stroke-width="14.4" stroke-linecap="round" stroke-opacity="0.406" /></g></g>
  <g><ellipse cx="1536.0" cy="1551.9" rx="728.6" ry="605.7" fill="url(#extrude118)" opacity="0.220" /><ellipse cx="1536.0" cy="1567.7" rx="736.0" ry="610.9" fill="url(#extrude118)" opacity="0.205" /><ellipse cx="1536.0" cy="1583.6" rx="743.4" ry="616.1" fill="url(#extrude118)" opacity="0.190" /><ellipse cx="1536.0" cy="1599.5" rx="750.9" ry="621.3" fill="url(#extrude118)" opacity="0.175" /><ellipse cx="1536.0" cy="1615.4" rx="758.3" ry="626.5" fill="url(#extrude118)" opacity="0.160" /><ellipse cx="1536.0" cy="1631.2" rx="765.7" ry="631.7" fill="url(#extrude118)" opacity="0.145" /><ellipse cx="1536.0" cy="1647.1" rx="773.2" ry="636.9" fill="url(#extrude118)" opacity="0.130" /><ellipse cx="1536.0" cy="1663.0" rx="780.6" ry="642.1" fill="url(#extrude118)" opacity="0.115" /><ellipse cx="1536.0" cy="1678.8" rx="788.0" ry="647.4" fill="url(#extrude118)" opacity="0.100" /><ellipse cx="1536.0" cy="1694.7" rx="795.5" ry="652.6" fill="url(#extrude118)" opacity="0.085" /><ellipse cx="1536.0" cy="1710.6" rx="802.9" ry="657.8" fill="url(#extrude118)" opacity="0.070" /><ellipse cx="1536.0" cy="1726.5" rx="810.3" ry="663.0" fill="url(#extrude118)" opacity="0.055" /></g>
  <ellipse cx="1536.0" cy="1726.5" rx="773.2" ry="214.9" fill="#0B1D2D" opacity="0.24" />
  <ellipse cx="1536.0" cy="1536.0" rx="743.4" ry="651.3" fill="url(#orb118)" stroke="#FFFFFF" stroke-opacity="0.42" stroke-width="7" />
  <ellipse cx="1431.9" cy="1392.7" rx="505.5" ry="299.6" fill="#FFFFFF" opacity="0.25" />
  <path d="M 199.4 399.4 C 1013.8 -30.7, 2058.2 768.0, 2872.6 215.0 L 2872.6 983.0 C 2089.0 1228.8, 1013.8 307.2, 199.4 1167.4 Z" fill="url(#glass118)" />
  <rect x="270" y="270" width="2532" height="2532" rx="430" fill="none" stroke="#FFFFFF" stroke-opacity="0.30" stroke-width="5" />
  <rect x="288.4" y="288.4" width="2495.1" height="2495.1" rx="399" fill="none" stroke="#53E3A6" stroke-opacity="0.35" stroke-width="3" />
  <g filter="url(#soft118)"><rect x="718" y="1632" width="44" height="2" fill="#FFFFFF" opacity="0.630" /><rect x="739" y="1611" width="2" height="44" fill="#FFFFFF" opacity="0.630" /><rect x="351" y="2087" width="30" height="2" fill="#FFFFFF" opacity="0.540" /><rect x="365" y="2073" width="2" height="30" fill="#FFFFFF" opacity="0.540" /><rect x="871" y="2010" width="74" height="2" fill="#FFFFFF" opacity="0.498" /><rect x="907" y="1974" width="2" height="74" fill="#FFFFFF" opacity="0.498" /><rect x="675" y="2483" width="56" height="2" fill="#FFFFFF" opacity="0.577" /><rect x="702" y="2456" width="2" height="56" fill="#FFFFFF" opacity="0.577" /><rect x="1633" y="1381" width="36" height="2" fill="#FFFFFF" opacity="0.387" /><rect x="1650" y="1364" width="2" height="36" fill="#FFFFFF" opacity="0.387" /><rect x="674" y="491" width="70" height="2" fill="#FFFFFF" opacity="0.720" /><rect x="708" y="457" width="2" height="70" fill="#FFFFFF" opacity="0.720" /><rect x="2160" y="2099" width="42" height="2" fill="#FFFFFF" opacity="0.500" /><rect x="2180" y="2079" width="2" height="42" fill="#FFFFFF" opacity="0.500" /><rect x="1549" y="2297" width="26" height="2" fill="#FFFFFF" opacity="0.336" /><rect x="1561" y="2285" width="2" height="26" fill="#FFFFFF" opacity="0.336" /><rect x="626" y="1546" width="50" height="2" fill="#FFFFFF" opacity="0.437" /><rect x="650" y="1522" width="2" height="50" fill="#FFFFFF" opacity="0.437" /><rect x="880" y="712" width="38" height="2" fill="#FFFFFF" opacity="0.605" /><rect x="898" y="694" width="2" height="38" fill="#FFFFFF" opacity="0.605" /><rect x="701" y="1822" width="38" height="2" fill="#FFFFFF" opacity="0.801" /><rect x="719" y="1804" width="2" height="38" fill="#FFFFFF" opacity="0.801" /><rect x="371" y="686" width="52" height="2" fill="#FFFFFF" opacity="0.367" /><rect x="396" y="661" width="2" height="52" fill="#FFFFFF" opacity="0.367" /><rect x="1230" y="1951" width="66" height="2" fill="#FFFFFF" opacity="0.721" /><rect x="1262" y="1919" width="2" height="66" fill="#FFFFFF" opacity="0.721" /><rect x="1519" y="2152" width="54" height="2" fill="#FFFFFF" opacity="0.540" /><rect x="1545" y="2126" width="2" height="54" fill="#FFFFFF" opacity="0.540" /><rect x="1953" y="332" width="62" height="2" fill="#FFFFFF" opacity="0.624" /><rect x="1983" y="302" width="2" height="62" fill="#FFFFFF" opacity="0.624" /><rect x="2196" y="658" width="30" height="2" fill="#FFFFFF" opacity="0.578" /><rect x="2210" y="644" width="2" height="30" fill="#FFFFFF" opacity="0.578" /><rect x="2247" y="2379" width="30" height="2" fill="#FFFFFF" opacity="0.373" /><rect x="2261" y="2365" width="2" height="30" fill="#FFFFFF" opacity="0.373" /><rect x="1523" y="756" width="32" height="2" fill="#FFFFFF" opacity="0.758" /><rect x="1538" y="741" width="2" height="32" fill="#FFFFFF" opacity="0.758" /><rect x="744" y="605" width="70" height="2" fill="#FFFFFF" opacity="0.461" /><rect x="778" y="571" width="2" height="70" fill="#FFFFFF" opacity="0.461" /><rect x="586" y="1838" width="44" height="2" fill="#FFFFFF" opacity="0.364" /><rect x="607" y="1817" width="2" height="44" fill="#FFFFFF" opacity="0.364" /><rect x="942" y="2736" width="72" height="2" fill="#FFFFFF" opacity="0.770" /><rect x="977" y="2701" width="2" height="72" fill="#FFFFFF" opacity="0.770" /><rect x="1339" y="1758" width="34" height="2" fill="#FFFFFF" opacity="0.584" /><rect x="1355" y="1742" width="2" height="34" fill="#FFFFFF" opacity="0.584" /><rect x="2155" y="2034" width="76" height="2" fill="#FFFFFF" opacity="0.731" /><rect x="2192" y="1997" width="2" height="76" fill="#FFFFFF" opacity="0.731" /><rect x="1225" y="623" width="42" height="2" fill="#FFFFFF" opacity="0.570" /><rect x="1245" y="603" width="2" height="42" fill="#FFFFFF" opacity="0.570" /><rect x="1603" y="686" width="74" height="2" fill="#FFFFFF" opacity="0.351" /><rect x="1639" y="650" width="2" height="74" fill="#FFFFFF" opacity="0.351" /><rect x="1287" y="2207" width="80" height="2" fill="#FFFFFF" opacity="0.398" /><rect x="1326" y="2168" width="2" height="80" fill="#FFFFFF" opacity="0.398" /></g>
  <g opacity="0.52"><path d="M996 1582 C1316 1006, 1572 2158, 2148 1582" fill="none" stroke="#0C2030" stroke-width="90" /><circle cx="1188" cy="1582" r="109" fill="#0C2030" /><circle cx="1572" cy="1582" r="109" fill="#0C2030" /><circle cx="1956" cy="1582" r="109" fill="#0C2030" /></g>
  <g filter="url(#soft118)"><path d="M960 1536 C1280 960, 1536 2112, 2112 1536" fill="none" stroke="url(#symbol118)" stroke-width="90" /><circle cx="1152" cy="1536" r="109" fill="url(#symbol118)" /><circle cx="1536" cy="1536" r="109" fill="url(#symbol118)" /><circle cx="1920" cy="1536" r="109" fill="url(#symbol118)" /></g>
  <rect x="138" y="138" width="2796" height="2796" rx="629" fill="#FFFFFF" filter="url(#grain118)" opacity="0.18" />
</svg>
