<svg xmlns="http://www.w3.org/2000/svg" width="3072" height="3072" viewBox="0 0 3072 3072">
  <title>QuartzOS App Icon 359 - prime_designer_359</title>
  <defs><linearGradient id="bg358" x1="0%" y1="0%" x2="100%" y2="100%"><stop offset="0%" stop-color="#3B82FF" /><stop offset="26%" stop-color="#FF6AB3" /><stop offset="56%" stop-color="#FFD84D" /><stop offset="78%" stop-color="#58A3D8" /><stop offset="100%" stop-color="#1D2F45" /></linearGradient><radialGradient id="sun358" cx="25%" cy="12%" r="88%"><stop offset="0%" stop-color="#FFFFFF" stop-opacity="0.62" /><stop offset="30%" stop-color="#53E3A6" stop-opacity="0.35" /><stop offset="100%" stop-color="#53E3A6" stop-opacity="0" /></radialGradient><linearGradient id="glass358" x1="0%" y1="0%" x2="0%" y2="100%"><stop offset="0%" stop-color="#FFFFFF" stop-opacity="0.70" /><stop offset="46%" stop-color="#FFFFFF" stop-opacity="0.26" /><stop offset="100%" stop-color="#FFFFFF" stop-opacity="0.00" /></linearGradient><linearGradient id="ribbon358" x1="0%" y1="0%" x2="100%" y2="0%"><stop offset="0%" stop-color="#3B82FF" stop-opacity="0.18" /><stop offset="34%" stop-color="#FF6AB3" stop-opacity="0.72" /><stop offset="66%" stop-color="#FFD84D" stop-opacity="0.72" /><stop offset="100%" stop-color="#53E3A6" stop-opacity="0.18" /></linearGradient><radialGradient id="orb358" cx="34%" cy="27%" r="74%"><stop offset="0%" stop-color="#FFFFFF" stop-opacity="0.84" /><stop offset="30%" stop-color="#3B82FF" stop-opacity="0.52" /><stop offset="68%" stop-color="#FF6AB3" stop-opacity="0.42" /><stop offset="100%" stop-color="#FFD84D" stop-opacity="0.20" /></radialGradient><linearGradient id="extrude358" x1="0%" y1="0%" x2="0%" y2="100%"><stop offset="0%" stop-color="#15283C" stop-opacity="0.45" /><stop offset="100%" stop-color="#08131D" stop-opacity="0.06" /></linearGradient><linearGradient id="symbol358" x1="0%" y1="0%" x2="100%" y2="100%"><stop offset="0%" stop-color="#FFFFFF" /><stop offset="100%" stop-color="#53E3A6" /></linearGradient><filter id="shadow358" x="-40%" y="-40%" width="180%" height="180%"><feDropShadow dx="0" dy="49" stdDeviation="86" flood-color="#06111A" flood-opacity="0.54" /></filter><filter id="soft358" x="-40%" y="-40%" width="180%" height="180%"><feDropShadow dx="0" dy="0" stdDeviation="14" flood-color="#3B82FF" flood-opacity="0.45" /></filter><filter id="grain358"><feTurbulence type="fractalNoise" baseFrequency="1.072" numOctaves="2" seed="358" /><feColorMatrix type="saturate" values="0" /><feComponentTransfer><feFuncA type="table" tableValues="0 0.09" /></feComponentTransfer></filter></defs>
  <rect x="138" y="138" width="2796" height="2796" rx="629" fill="url(#bg358)" filter="url(#shadow358)" />
  <rect x="138" y="138" width="2796" height="2796" rx="629" fill="url(#sun358)" />
  <g><circle cx="1087" cy="1612" r="47" fill="#FFFFFF" opacity="0.172" /><circle cx="1666" cy="2649" r="62" fill="#FFFFFF" opacity="0.090" /><circle cx="2452" cy="1682" r="97" fill="#FFFFFF" opacity="0.088" /><circle cx="2540" cy="1689" r="120" fill="#FFFFFF" opacity="0.197" /><circle cx="1981" cy="2563" r="51" fill="#FFFFFF" opacity="0.164" /><circle cx="785" cy="1892" r="37" fill="#FFFFFF" opacity="0.121" /><circle cx="596" cy="1359" r="101" fill="#FFFFFF" opacity="0.090" /><circle cx="2361" cy="1560" r="129" fill="#FFFFFF" opacity="0.142" /><circle cx="892" cy="2212" r="59" fill="#FFFFFF" opacity="0.140" /><circle cx="1176" cy="1334" r="80" fill="#FFFFFF" opacity="0.066" /><circle cx="2480" cy="1992" r="137" fill="#FFFFFF" opacity="0.148" /><circle cx="1926" cy="2226" r="98" fill="#FFFFFF" opacity="0.069" /><circle cx="2134" cy="1884" r="70" fill="#FFFFFF" opacity="0.157" /><circle cx="1052" cy="815" r="43" fill="#FFFFFF" opacity="0.162" /><circle cx="1093" cy="1759" r="38" fill="#FFFFFF" opacity="0.221" /><circle cx="541" cy="769" r="102" fill="#FFFFFF" opacity="0.065" /><circle cx="832" cy="1286" r="48" fill="#FFFFFF" opacity="0.087" /><circle cx="849" cy="2339" r="57" fill="#FFFFFF" opacity="0.225" /><circle cx="1320" cy="587" r="132" fill="#FFFFFF" opacity="0.195" /><circle cx="980" cy="1006" r="96" fill="#FFFFFF" opacity="0.184" /><circle cx="1746" cy="455" r="118" fill="#FFFFFF" opacity="0.210" /><circle cx="1044" cy="2435" r="102" fill="#FFFFFF" opacity="0.066" /><circle cx="1407" cy="2105" r="81" fill="#FFFFFF" opacity="0.128" /><circle cx="2626" cy="1054" r="107" fill="#FFFFFF" opacity="0.143" /><circle cx="732" cy="1705" r="138" fill="#FFFFFF" opacity="0.190" /><circle cx="2298" cy="1297" r="84" fill="#FFFFFF" opacity="0.090" /><circle cx="2451" cy="1210" r="53" fill="#FFFFFF" opacity="0.117" /><circle cx="1619" cy="2470" r="56" fill="#FFFFFF" opacity="0.101" /></g>
  <g><path d="M 319.7 602.8 L 2895.0 326.3 L 2895.0 812.0 L 319.7 1088.5 Z" fill="#FFFFFF" opacity="0.119" /><path d="M 363.7 907.2 L 2713.4 630.7 L 2713.4 1088.4 L 363.7 1364.9 Z" fill="#FFFFFF" opacity="0.086" /><path d="M 309.7 1104.9 L 2921.5 828.4 L 2921.5 1322.9 L 309.7 1599.4 Z" fill="#FFFFFF" opacity="0.134" /><path d="M 155.7 1407.9 L 2856.6 1131.5 L 2856.6 1553.8 L 155.7 1830.3 Z" fill="#FFFFFF" opacity="0.154" /><path d="M 332.5 1628.1 L 2841.2 1351.6 L 2841.2 1826.0 L 332.5 2102.5 Z" fill="#FFFFFF" opacity="0.138" /><path d="M 333.5 1942.9 L 2772.7 1666.4 L 2772.7 2090.1 L 333.5 2366.6 Z" fill="#FFFFFF" opacity="0.150" /><path d="M 222.6 2176.3 L 2754.2 1899.8 L 2754.2 2344.3 L 222.6 2620.8 Z" fill="#FFFFFF" opacity="0.105" /><path d="M 268.1 2425.5 L 2847.6 2149.0 L 2847.6 2600.9 L 268.1 2877.3 Z" fill="#FFFFFF" opacity="0.215" /></g>
  <g filter="url(#soft358)"><g transform="rotate(-4.24 1536.0 1536.0)"><path d="M-368.6 501.2 C -225.8 533.5, -25.8 483.0, 107.5 555.4 C 250.4 541.1, 450.4 451.4, 583.7 547.1 C 726.5 543.2, 926.5 454.9, 1059.8 511.0 C 1202.7 510.4, 1402.7 497.6, 1536.0 469.0 C 1678.8 481.5, 1878.8 523.9, 2012.2 446.6 C 2155.0 426.6, 2355.0 542.4, 2488.3 457.3 C 2631.2 473.0, 2831.2 528.1, 2964.5 494.7 C 3107.3 496.3, 3307.3 507.2, 3440.6 536.1" fill="none" stroke="url(#ribbon358)" stroke-width="58.4" stroke-linecap="round" stroke-opacity="0.120" /></g><g transform="rotate(-3.66 1536.0 1536.0)"><path d="M-368.6 775.1 C -241.7 845.0, -63.9 720.2, 54.6 824.2 C 181.6 829.7, 359.4 734.0, 477.9 781.7 C 604.8 783.9, 782.6 770.9, 901.1 735.3 C 1028.1 742.0, 1205.9 810.2, 1324.4 712.9 C 1451.3 714.2, 1629.1 815.5, 1747.6 728.3 C 1874.6 721.0, 2052.4 828.7, 2170.9 772.1 C 2297.9 772.8, 2475.6 776.1, 2594.1 817.7 C 2721.1 832.2, 2898.9 760.7, 3017.4 837.5 C 3144.4 858.9, 3322.1 706.4, 3440.6 819.4" fill="none" stroke="url(#ribbon358)" stroke-width="54.4" stroke-linecap="round" stroke-opacity="0.146" /></g><g transform="rotate(-3.08 1536.0 1536.0)"><path d="M-368.6 948.2 C -254.4 991.1, -94.4 903.3, 12.3 938.4 C 126.6 939.7, 286.6 952.5, 393.2 892.1 C 507.5 889.7, 667.5 981.8, 774.1 879.8 C 888.4 891.5, 1048.4 1022.4, 1155.1 909.0 C 1269.4 912.1, 1429.3 962.5, 1536.0 962.0 C 1650.3 967.3, 1810.3 942.6, 1916.9 1006.6 C 2031.2 996.6, 2191.2 905.4, 2297.9 1015.8 C 2412.1 989.6, 2572.1 898.8, 2678.8 984.0 C 2793.1 986.8, 2953.1 936.0, 3059.7 930.5 C 3174.0 935.6, 3334.0 962.6, 3440.6 887.7" fill="none" stroke="url(#ribbon358)" stroke-width="50.4" stroke-linecap="round" stroke-opacity="0.172" /></g><g transform="rotate(-2.50 1536.0 1536.0)"><path d="M-368.6 1130.1 C -264.8 1064.6, -119.3 1188.2, -22.3 1133.7 C 81.5 1134.9, 227.0 1126.1, 324.0 1187.4 C 427.8 1170.2, 573.3 1070.9, 670.3 1206.4 C 774.1 1186.5, 919.6 1067.1, 1016.6 1179.1 C 1120.4 1197.1, 1265.9 1078.7, 1362.9 1122.1 C 1466.7 1119.0, 1612.2 1139.2, 1709.1 1070.0 C 1813.0 1058.6, 1958.5 1150.8, 2055.4 1054.3 C 2159.3 1052.1, 2304.8 1183.8, 2401.7 1084.6 C 2505.6 1100.5, 2651.1 1164.2, 2748.0 1142.5 C 2851.9 1144.8, 2997.4 1123.7, 3094.3 1192.9 C 3198.2 1171.0, 3343.7 1076.2, 3440.6 1205.2" fill="none" stroke="url(#ribbon358)" stroke-width="46.4" stroke-linecap="round" stroke-opacity="0.198" /></g><g transform="rotate(-1.92 1536.0 1536.0)"><path d="M-368.6 1354.3 C -273.4 1362.0, -140.1 1350.0, -51.2 1420.2 C 44.0 1433.6, 177.4 1315.3, 266.2 1437.0 C 361.5 1442.3, 494.8 1299.4, 583.7 1403.7 C 678.9 1399.6, 812.2 1299.4, 901.1 1340.4 C 996.4 1335.8, 1129.7 1370.1, 1218.6 1285.5 C 1313.8 1287.1, 1447.1 1432.2, 1536.0 1272.3 C 1631.2 1268.3, 1764.6 1392.4, 1853.4 1308.9 C 1948.7 1298.0, 2082.0 1400.8, 2170.9 1373.0 C 2266.1 1380.1, 2399.4 1346.8, 2488.3 1425.7 C 2583.6 1400.7, 2716.9 1296.7, 2805.8 1435.1 C 2901.0 1456.0, 3034.3 1319.5, 3123.2 1395.5 C 3218.4 1390.6, 3351.8 1339.6, 3440.6 1330.9" fill="none" stroke="url(#ribbon358)" stroke-width="42.4" stroke-linecap="round" stroke-opacity="0.224" /></g><g transform="rotate(-1.34 1536.0 1536.0)"><path d="M-368.6 1506.4 C -225.8 1577.2, -25.8 1431.0, 107.5 1550.0 C 250.4 1558.6, 450.4 1477.9, 583.7 1479.8 C 726.5 1483.2, 926.5 1532.2, 1059.8 1425.7 C 1202.7 1428.4, 1402.7 1530.8, 1536.0 1420.6 C 1678.8 1389.8, 1878.8 1532.5, 2012.2 1467.5 C 2155.0 1463.0, 2355.0 1537.3, 2488.3 1538.0 C 2631.2 1548.5, 2831.2 1487.2, 2964.5 1589.3 C 3107.3 1572.9, 3307.3 1436.5, 3440.6 1590.3" fill="none" stroke="url(#ribbon358)" stroke-width="38.4" stroke-linecap="round" stroke-opacity="0.250" /></g><g transform="rotate(-0.76 1536.0 1536.0)"><path d="M-368.6 1686.5 C -241.7 1772.1, -63.9 1623.8, 54.6 1725.9 C 181.6 1730.5, 359.4 1640.0, 477.9 1649.8 C 604.8 1661.2, 782.6 1705.5, 901.1 1596.0 C 1028.1 1620.9, 1205.9 1763.8, 1324.4 1597.1 C 1451.3 1593.6, 1629.1 1772.0, 1747.6 1652.5 C 1874.6 1641.9, 2052.4 1704.4, 2170.9 1728.5 C 2297.9 1739.0, 2475.6 1642.3, 2594.1 1779.1 C 2721.1 1799.8, 2898.9 1590.2, 3017.4 1773.5 C 3144.4 1764.7, 3322.1 1594.7, 3440.6 1715.2" fill="none" stroke="url(#ribbon358)" stroke-width="34.4" stroke-linecap="round" stroke-opacity="0.276" /></g><g transform="rotate(-0.18 1536.0 1536.0)"><path d="M-368.6 1933.9 C -254.4 1906.5, -94.4 1946.6, 12.3 1842.3 C 126.6 1809.7, 286.6 2004.7, 393.2 1833.7 C 507.5 1818.0, 667.5 2025.3, 774.1 1885.9 C 888.4 1899.1, 1048.4 1991.0, 1155.1 1967.2 C 1269.4 1972.7, 1429.3 1923.5, 1536.0 2028.4 C 1650.3 2026.0, 1810.3 1865.4, 1916.9 2032.2 C 2031.2 2048.2, 2191.2 1851.7, 2297.9 1976.5 C 2412.1 1977.2, 2572.1 1885.6, 2678.8 1894.9 C 2793.1 1889.4, 2953.1 1954.6, 3059.7 1837.0 C 3174.0 1806.5, 3334.0 2014.6, 3440.6 1837.9" fill="none" stroke="url(#ribbon358)" stroke-width="30.4" stroke-linecap="round" stroke-opacity="0.302" /></g><g transform="rotate(0.40 1536.0 1536.0)"><path d="M-368.6 2033.0 C -264.8 2122.4, -119.3 1926.7, -22.3 2046.8 C 81.5 2052.2, 227.0 2025.9, 324.0 1963.0 C 427.8 1948.1, 573.3 2089.4, 670.3 1921.6 C 774.1 1955.7, 919.6 2081.3, 1016.6 1947.8 C 1120.4 1956.9, 1265.9 2109.4, 1362.9 2025.7 C 1466.7 2025.5, 1612.2 2035.3, 1709.1 2107.9 C 1813.0 2121.1, 1958.5 1945.5, 2055.4 2144.7 C 2159.3 2138.3, 2304.8 1926.9, 2401.7 2113.7 C 2505.6 2109.7, 2651.1 1971.9, 2748.0 2033.7 C 2851.9 2033.9, 2997.4 2032.2, 3094.3 1953.3 C 3198.2 1960.5, 3343.7 2126.6, 3440.6 1921.2" fill="none" stroke="url(#ribbon358)" stroke-width="26.4" stroke-linecap="round" stroke-opacity="0.328" /></g><g transform="rotate(0.98 1536.0 1536.0)"><path d="M-368.6 2233.6 C -273.4 2233.3, -140.1 2233.9, -51.2 2148.1 C 44.0 2177.8, 177.4 2275.3, 266.2 2114.7 C 361.5 2153.2, 494.8 2337.6, 583.7 2153.5 C 678.9 2162.2, 812.2 2317.6, 901.1 2240.8 C 996.4 2243.7, 1129.7 2230.4, 1218.6 2323.8 C 1313.8 2299.0, 1447.1 2198.4, 1536.0 2352.0 C 1631.2 2343.1, 1764.6 2122.0, 1853.4 2308.4 C 1948.7 2337.1, 2082.0 2193.5, 2170.9 2219.4 C 2266.1 2224.8, 2399.4 2247.6, 2488.3 2139.0 C 2583.6 2121.2, 2716.9 2331.8, 2805.8 2116.0 C 2901.0 2120.8, 3034.3 2272.7, 3123.2 2164.3 C 3218.4 2144.2, 3351.8 2309.1, 3440.6 2254.6" fill="none" stroke="url(#ribbon358)" stroke-width="22.4" stroke-linecap="round" stroke-opacity="0.354" /></g><g transform="rotate(1.56 1536.0 1536.0)"><path d="M-368.6 2463.1 C -225.8 2483.9, -25.8 2432.5, 107.5 2392.5 C 250.4 2416.9, 450.4 2515.8, 583.7 2339.1 C 726.5 2316.3, 926.5 2580.5, 1059.8 2360.9 C 1202.7 2377.7, 1402.7 2527.4, 1536.0 2444.7 C 1678.8 2441.0, 1878.8 2471.3, 2012.2 2539.6 C 2155.0 2557.3, 2355.0 2402.5, 2488.3 2588.2 C 2631.2 2637.4, 2831.2 2397.4, 2964.5 2560.8 C 3107.3 2570.0, 3307.3 2390.4, 3440.6 2474.2" fill="none" stroke="url(#ribbon358)" stroke-width="18.4" stroke-linecap="round" stroke-opacity="0.380" /></g><g transform="rotate(2.14 1536.0 1536.0)"><path d="M-368.6 2694.8 C -241.7 2641.0, -63.9 2722.7, 54.6 2571.5 C 181.6 2543.0, 359.4 2830.6, 477.9 2573.0 C 604.8 2584.9, 782.6 2829.6, 901.1 2648.4 C 1028.1 2653.0, 1205.9 2746.8, 1324.4 2751.9 C 1451.3 2752.3, 1629.1 2672.3, 1747.6 2820.7 C 1874.6 2805.0, 2052.4 2587.6, 2170.9 2813.2 C 2297.9 2832.7, 2475.6 2624.9, 2594.1 2733.8 C 2721.1 2748.6, 2898.9 2671.7, 3017.4 2630.7 C 3144.4 2656.1, 3322.1 2764.4, 3440.6 2566.5" fill="none" stroke="url(#ribbon358)" stroke-width="14.4" stroke-linecap="round" stroke-opacity="0.406" /></g></g>
  <g><ellipse cx="1536.0" cy="1551.9" rx="728.6" ry="605.7" fill="url(#extrude358)" opacity="0.220" /><ellipse cx="1536.0" cy="1567.7" rx="736.0" ry="610.9" fill="url(#extrude358)" opacity="0.205" /><ellipse cx="1536.0" cy="1583.6" rx="743.4" ry="616.1" fill="url(#extrude358)" opacity="0.190" /><ellipse cx="1536.0" cy="1599.5" rx="750.9" ry="621.3" fill="url(#extrude358)" opacity="0.175" /><ellipse cx="1536.0" cy="1615.4" rx="758.3" ry="626.5" fill="url(#extrude358)" opacity="0.160" /><ellipse cx="1536.0" cy="1631.2" rx="765.7" ry="631.7" fill="url(#extrude358)" opacity="0.145" /><ellipse cx="1536.0" cy="1647.1" rx="773.2" ry="636.9" fill="url(#extrude358)" opacity="0.130" /><ellipse cx="1536.0" cy="1663.0" rx="780.6" ry="642.1" fill="url(#extrude358)" opacity="0.115" /><ellipse cx="1536.0" cy="1678.8" rx="788.0" ry="647.4" fill="url(#extrude358)" opacity="0.100" /><ellipse cx="1536.0" cy="1694.7" rx="795.5" ry="652.6" fill="url(#extrude358)" opacity="0.085" /><ellipse cx="1536.0" cy="1710.6" rx="802.9" ry="657.8" fill="url(#extrude358)" opacity="0.070" /><ellipse cx="1536.0" cy="1726.5" rx="810.3" ry="663.0" fill="url(#extrude358)" opacity="0.055" /></g>
  <ellipse cx="1536.0" cy="1726.5" rx="773.2" ry="214.9" fill="#0B1D2D" opacity="0.24" />
  <ellipse cx="1536.0" cy="1536.0" rx="743.4" ry="651.3" fill="url(#orb358)" stroke="#FFFFFF" stroke-opacity="0.42" stroke-width="7" />
  <ellipse cx="1431.9" cy="1392.7" rx="505.5" ry="299.6" fill="#FFFFFF" opacity="0.25" />
  <path d="M 199.4 399.4 C 1013.8 -30.7, 2058.2 768.0, 2872.6 215.0 L 2872.6 983.0 C 2089.0 1228.8, 1013.8 307.2, 199.4 1167.4 Z" fill="url(#glass358)" />
  <rect x="270" y="270" width="2532" height="2532" rx="430" fill="none" stroke="#FFFFFF" stroke-opacity="0.30" stroke-width="5" />
  <rect x="288.4" y="288.4" width="2495.1" height="2495.1" rx="399" fill="none" stroke="#3B82FF" stroke-opacity="0.35" stroke-width="3" />
  <g filter="url(#soft358)"><rect x="1859" y="1745" width="58" height="2" fill="#FFFFFF" opacity="0.544" /><rect x="1887" y="1717" width="2" height="58" fill="#FFFFFF" opacity="0.544" /><rect x="980" y="745" width="36" height="2" fill="#FFFFFF" opacity="0.708" /><rect x="997" y="728" width="2" height="36" fill="#FFFFFF" opacity="0.708" /><rect x="1151" y="2646" width="28" height="2" fill="#FFFFFF" opacity="0.666" /><rect x="1164" y="2633" width="2" height="28" fill="#FFFFFF" opacity="0.666" /><rect x="816" y="918" width="80" height="2" fill="#FFFFFF" opacity="0.538" /><rect x="855" y="879" width="2" height="80" fill="#FFFFFF" opacity="0.538" /><rect x="778" y="1533" width="72" height="2" fill="#FFFFFF" opacity="0.567" /><rect x="813" y="1498" width="2" height="72" fill="#FFFFFF" opacity="0.567" /><rect x="2269" y="1845" width="54" height="2" fill="#FFFFFF" opacity="0.390" /><rect x="2295" y="1819" width="2" height="54" fill="#FFFFFF" opacity="0.390" /><rect x="1665" y="1897" width="60" height="2" fill="#FFFFFF" opacity="0.529" /><rect x="1694" y="1868" width="2" height="60" fill="#FFFFFF" opacity="0.529" /><rect x="313" y="2548" width="48" height="2" fill="#FFFFFF" opacity="0.345" /><rect x="336" y="2525" width="2" height="48" fill="#FFFFFF" opacity="0.345" /><rect x="955" y="849" width="58" height="2" fill="#FFFFFF" opacity="0.558" /><rect x="983" y="821" width="2" height="58" fill="#FFFFFF" opacity="0.558" /><rect x="958" y="1281" width="72" height="2" fill="#FFFFFF" opacity="0.462" /><rect x="993" y="1246" width="2" height="72" fill="#FFFFFF" opacity="0.462" /><rect x="280" y="1645" width="58" height="2" fill="#FFFFFF" opacity="0.415" /><rect x="308" y="1617" width="2" height="58" fill="#FFFFFF" opacity="0.415" /><rect x="2682" y="1202" width="66" height="2" fill="#FFFFFF" opacity="0.545" /><rect x="2714" y="1170" width="2" height="66" fill="#FFFFFF" opacity="0.545" /><rect x="2045" y="1170" width="62" height="2" fill="#FFFFFF" opacity="0.498" /><rect x="2075" y="1140" width="2" height="62" fill="#FFFFFF" opacity="0.498" /><rect x="1279" y="1094" width="34" height="2" fill="#FFFFFF" opacity="0.770" /><rect x="1295" y="1078" width="2" height="34" fill="#FFFFFF" opacity="0.770" /><rect x="1512" y="259" width="48" height="2" fill="#FFFFFF" opacity="0.841" /><rect x="1535" y="236" width="2" height="48" fill="#FFFFFF" opacity="0.841" /><rect x="590" y="1345" width="32" height="2" fill="#FFFFFF" opacity="0.425" /><rect x="605" y="1330" width="2" height="32" fill="#FFFFFF" opacity="0.425" /><rect x="2286" y="1573" width="78" height="2" fill="#FFFFFF" opacity="0.418" /><rect x="2324" y="1535" width="2" height="78" fill="#FFFFFF" opacity="0.418" /><rect x="1420" y="2544" width="32" height="2" fill="#FFFFFF" opacity="0.803" /><rect x="1435" y="2529" width="2" height="32" fill="#FFFFFF" opacity="0.803" /><rect x="2521" y="2604" width="62" height="2" fill="#FFFFFF" opacity="0.604" /><rect x="2551" y="2574" width="2" height="62" fill="#FFFFFF" opacity="0.604" /><rect x="1166" y="1699" width="78" height="2" fill="#FFFFFF" opacity="0.716" /><rect x="1204" y="1661" width="2" height="78" fill="#FFFFFF" opacity="0.716" /><rect x="1812" y="1417" width="34" height="2" fill="#FFFFFF" opacity="0.704" /><rect x="1828" y="1401" width="2" height="34" fill="#FFFFFF" opacity="0.704" /><rect x="1993" y="1224" width="54" height="2" fill="#FFFFFF" opacity="0.553" /><rect x="2019" y="1198" width="2" height="54" fill="#FFFFFF" opacity="0.553" /><rect x="1503" y="2568" width="62" height="2" fill="#FFFFFF" opacity="0.384" /><rect x="1533" y="2538" width="2" height="62" fill="#FFFFFF" opacity="0.384" /><rect x="1842" y="436" width="74" height="2" fill="#FFFFFF" opacity="0.611" /><rect x="1878" y="400" width="2" height="74" fill="#FFFFFF" opacity="0.611" /><rect x="803" y="493" width="26" height="2" fill="#FFFFFF" opacity="0.762" /><rect x="815" y="481" width="2" height="26" fill="#FFFFFF" opacity="0.762" /><rect x="1764" y="2334" width="32" height="2" fill="#FFFFFF" opacity="0.825" /><rect x="1779" y="2319" width="2" height="32" fill="#FFFFFF" opacity="0.825" /></g>
  <g opacity="0.52"><path d="M996 1582 C1316 1006, 1572 2158, 2148 1582" fill="none" stroke="#0C2030" stroke-width="90" /><circle cx="1188" cy="1582" r="109" fill="#0C2030" /><circle cx="1572" cy="1582" r="109" fill="#0C2030" /><circle cx="1956" cy="1582" r="109" fill="#0C2030" /></g>
  <g filter="url(#soft358)"><path d="M960 1536 C1280 960, 1536 2112, 2112 1536" fill="none" stroke="url(#symbol358)" stroke-width="90" /><circle cx="1152" cy="1536" r="109" fill="url(#symbol358)" /><circle cx="1536" cy="1536" r="109" fill="url(#symbol358)" /><circle cx="1920" cy="1536" r="109" fill="url(#symbol358)" /></g>
  <rect x="138" y="138" width="2796" height="2796" rx="629" fill="#FFFFFF" filter="url(#grain358)" opacity="0.18" />
</svg>
