<svg xmlns="http://www.w3.org/2000/svg" width="3072" height="3072" viewBox="0 0 3072 3072">
  <title>QuartzOS App Icon 283 - quartz_settings_283</title>
  <defs><linearGradient id="bg282" x1="0%" y1="0%" x2="100%" y2="100%"><stop offset="0%" stop-color="#8A5CFF" /><stop offset="26%" stop-color="#FF9F43" /><stop offset="56%" stop-color="#53E3A6" /><stop offset="78%" stop-color="#4B91A3" /><stop offset="100%" stop-color="#1A2630" /></linearGradient><radialGradient id="sun282" cx="24%" cy="31%" r="88%"><stop offset="0%" stop-color="#FFFFFF" stop-opacity="0.62" /><stop offset="30%" stop-color="#36D1FF" stop-opacity="0.35" /><stop offset="100%" stop-color="#36D1FF" stop-opacity="0" /></radialGradient><linearGradient id="glass282" x1="0%" y1="0%" x2="0%" y2="100%"><stop offset="0%" stop-color="#FFFFFF" stop-opacity="0.70" /><stop offset="46%" stop-color="#FFFFFF" stop-opacity="0.26" /><stop offset="100%" stop-color="#FFFFFF" stop-opacity="0.00" /></linearGradient><linearGradient id="ribbon282" x1="0%" y1="0%" x2="100%" y2="0%"><stop offset="0%" stop-color="#8A5CFF" stop-opacity="0.18" /><stop offset="34%" stop-color="#FF9F43" stop-opacity="0.72" /><stop offset="66%" stop-color="#53E3A6" stop-opacity="0.72" /><stop offset="100%" stop-color="#36D1FF" stop-opacity="0.18" /></linearGradient><radialGradient id="orb282" cx="34%" cy="27%" r="74%"><stop offset="0%" stop-color="#FFFFFF" stop-opacity="0.84" /><stop offset="30%" stop-color="#8A5CFF" stop-opacity="0.52" /><stop offset="68%" stop-color="#FF9F43" stop-opacity="0.42" /><stop offset="100%" stop-color="#53E3A6" stop-opacity="0.20" /></radialGradient><linearGradient id="extrude282" x1="0%" y1="0%" x2="0%" y2="100%"><stop offset="0%" stop-color="#15283C" stop-opacity="0.45" /><stop offset="100%" stop-color="#08131D" stop-opacity="0.06" /></linearGradient><linearGradient id="symbol282" x1="0%" y1="0%" x2="100%" y2="100%"><stop offset="0%" stop-color="#FFFFFF" /><stop offset="100%" stop-color="#36D1FF" /></linearGradient><filter id="shadow282" x="-40%" y="-40%" width="180%" height="180%"><feDropShadow dx="0" dy="49" stdDeviation="86" flood-color="#06111A" flood-opacity="0.54" /></filter><filter id="soft282" x="-40%" y="-40%" width="180%" height="180%"><feDropShadow dx="0" dy="0" stdDeviation="14" flood-color="#8A5CFF" flood-opacity="0.45" /></filter><filter id="grain282"><feTurbulence type="fractalNoise" baseFrequency="1.034" numOctaves="2" seed="282" /><feColorMatrix type="saturate" values="0" /><feComponentTransfer><feFuncA type="table" tableValues="0 0.09" /></feComponentTransfer></filter></defs>
  <rect x="138" y="138" width="2796" height="2796" rx="629" fill="url(#bg282)" filter="url(#shadow282)" />
  <rect x="138" y="138" width="2796" height="2796" rx="629" fill="url(#sun282)" />
  <g><circle cx="571" cy="1641" r="64" fill="#FFFFFF" opacity="0.197" /><circle cx="1738" cy="1396" r="130" fill="#FFFFFF" opacity="0.230" /><circle cx="2244" cy="2612" r="83" fill="#FFFFFF" opacity="0.142" /><circle cx="2620" cy="1236" r="131" fill="#FFFFFF" opacity="0.212" /><circle cx="1498" cy="1448" r="80" fill="#FFFFFF" opacity="0.126" /><circle cx="2413" cy="1787" r="98" fill="#FFFFFF" opacity="0.128" /><circle cx="539" cy="2338" r="97" fill="#FFFFFF" opacity="0.224" /><circle cx="1643" cy="2043" r="82" fill="#FFFFFF" opacity="0.170" /><circle cx="2374" cy="1267" r="143" fill="#FFFFFF" opacity="0.157" /><circle cx="1664" cy="1454" r="156" fill="#FFFFFF" opacity="0.142" /><circle cx="1559" cy="1427" r="143" fill="#FFFFFF" opacity="0.181" /><circle cx="719" cy="2532" r="68" fill="#FFFFFF" opacity="0.152" /><circle cx="757" cy="1821" r="82" fill="#FFFFFF" opacity="0.236" /><circle cx="1825" cy="1030" r="59" fill="#FFFFFF" opacity="0.102" /><circle cx="1772" cy="2190" r="96" fill="#FFFFFF" opacity="0.225" /><circle cx="2127" cy="2024" r="41" fill="#FFFFFF" opacity="0.136" /><circle cx="1394" cy="2703" r="140" fill="#FFFFFF" opacity="0.180" /><circle cx="1073" cy="2004" r="66" fill="#FFFFFF" opacity="0.061" /><circle cx="1401" cy="792" r="94" fill="#FFFFFF" opacity="0.110" /><circle cx="1730" cy="1664" r="128" fill="#FFFFFF" opacity="0.085" /><circle cx="2359" cy="1927" r="59" fill="#FFFFFF" opacity="0.096" /><circle cx="577" cy="1473" r="156" fill="#FFFFFF" opacity="0.172" /><circle cx="2242" cy="1176" r="115" fill="#FFFFFF" opacity="0.082" /><circle cx="788" cy="1581" r="83" fill="#FFFFFF" opacity="0.176" /><circle cx="2200" cy="2666" r="134" fill="#FFFFFF" opacity="0.074" /><circle cx="2312" cy="1285" r="93" fill="#FFFFFF" opacity="0.203" /><circle cx="802" cy="2639" r="49" fill="#FFFFFF" opacity="0.223" /><circle cx="1443" cy="437" r="94" fill="#FFFFFF" opacity="0.141" /></g>
  <g><path d="M 200.2 649.6 L 2708.8 373.1 L 2708.8 792.0 L 200.2 1068.5 Z" fill="#FFFFFF" opacity="0.206" /><path d="M 291.4 833.0 L 2780.7 556.5 L 2780.7 1045.8 L 291.4 1322.3 Z" fill="#FFFFFF" opacity="0.178" /><path d="M 257.2 1164.1 L 2870.8 887.6 L 2870.8 1367.3 L 257.2 1643.8 Z" fill="#FFFFFF" opacity="0.189" /><path d="M 176.1 1435.1 L 2786.9 1158.7 L 2786.9 1595.3 L 176.1 1871.8 Z" fill="#FFFFFF" opacity="0.124" /><path d="M 281.8 1674.5 L 2837.5 1398.0 L 2837.5 1884.1 L 281.8 2160.6 Z" fill="#FFFFFF" opacity="0.095" /><path d="M 165.0 1923.6 L 2745.6 1647.1 L 2745.6 2144.4 L 165.0 2420.9 Z" fill="#FFFFFF" opacity="0.136" /><path d="M 269.6 2163.2 L 2890.4 1886.7 L 2890.4 2329.4 L 269.6 2605.9 Z" fill="#FFFFFF" opacity="0.143" /><path d="M 329.3 2484.3 L 2808.7 2207.9 L 2808.7 2694.2 L 329.3 2970.7 Z" fill="#FFFFFF" opacity="0.128" /></g>
  <g filter="url(#soft282)"><g transform="rotate(-6.71 1536.0 1536.0)"><path d="M-368.6 524.3 C -225.8 596.3, -25.8 482.1, 107.5 568.2 C 250.4 559.6, 450.4 475.9, 583.7 530.8 C 726.5 529.1, 926.5 517.0, 1059.8 489.4 C 1202.7 478.3, 1402.7 553.2, 1536.0 469.2 C 1678.8 476.4, 1878.8 583.0, 2012.2 482.5 C 2155.0 472.5, 2355.0 573.3, 2488.3 521.1 C 2631.2 522.3, 2831.2 526.1, 2964.5 561.7 C 3107.3 565.0, 3307.3 510.2, 3440.6 579.6" fill="none" stroke="url(#ribbon282)" stroke-width="58.4" stroke-linecap="round" stroke-opacity="0.120" /></g><g transform="rotate(-6.13 1536.0 1536.0)"><path d="M-368.6 674.5 C -241.7 708.7, -63.9 643.5, 54.6 657.8 C 181.6 655.6, 359.4 689.5, 477.9 619.8 C 604.8 620.8, 782.6 696.7, 901.1 615.0 C 1028.1 631.5, 1205.9 719.3, 1324.4 646.3 C 1451.3 652.5, 1629.1 702.8, 1747.6 694.8 C 1874.6 699.7, 2052.4 660.1, 2170.9 730.9 C 2297.9 709.2, 2475.6 628.7, 2594.1 732.9 C 2721.1 735.1, 2898.9 635.9, 3017.4 699.4 C 3144.4 709.0, 3322.1 653.5, 3440.6 650.9" fill="none" stroke="url(#ribbon282)" stroke-width="54.4" stroke-linecap="round" stroke-opacity="0.146" /></g><g transform="rotate(-5.55 1536.0 1536.0)"><path d="M-368.6 940.4 C -254.4 927.9, -94.4 946.6, 12.3 979.3 C 126.6 992.9, 286.6 896.3, 393.2 1008.8 C 507.5 1010.6, 667.5 874.5, 774.1 996.7 C 888.4 976.5, 1048.4 891.5, 1155.1 950.5 C 1269.4 953.4, 1429.3 935.2, 1536.0 898.2 C 1650.3 899.7, 1810.3 989.8, 1916.9 871.5 C 2031.2 888.0, 2191.2 961.2, 2297.9 886.5 C 2412.1 880.2, 2572.1 976.6, 2678.8 934.3 C 2793.1 933.4, 2953.1 943.8, 3059.7 985.8 C 3174.0 978.8, 3334.0 921.5, 3440.6 1009.7" fill="none" stroke="url(#ribbon282)" stroke-width="50.4" stroke-linecap="round" stroke-opacity="0.172" /></g><g transform="rotate(-4.97 1536.0 1536.0)"><path d="M-368.6 1055.1 C -264.8 1063.7, -119.3 1050.2, -22.3 1007.9 C 81.5 1026.4, 227.0 1105.9, 324.0 979.1 C 427.8 975.4, 573.3 1106.1, 670.3 996.4 C 774.1 1011.8, 919.6 1074.6, 1016.6 1049.3 C 1120.4 1050.5, 1265.9 1058.2, 1362.9 1105.8 C 1466.7 1095.6, 1612.2 1034.2, 1709.1 1131.6 C 1813.0 1119.7, 1958.5 965.8, 2055.4 1111.0 C 2159.3 1125.8, 2304.8 1018.3, 2401.7 1056.5 C 2505.6 1056.4, 2651.1 1053.8, 2748.0 1001.2 C 2851.9 984.0, 2997.4 1119.8, 3094.3 978.7 C 3198.2 1003.5, 3343.7 1140.7, 3440.6 1002.5" fill="none" stroke="url(#ribbon282)" stroke-width="46.4" stroke-linecap="round" stroke-opacity="0.198" /></g><g transform="rotate(-4.39 1536.0 1536.0)"><path d="M-368.6 1319.3 C -273.4 1242.9, -140.1 1378.9, -51.2 1289.5 C 44.0 1293.5, 177.4 1350.0, 266.2 1354.5 C 361.5 1360.0, 494.8 1302.5, 583.7 1398.2 C 678.9 1421.1, 812.2 1279.8, 901.1 1394.1 C 996.4 1419.4, 1129.7 1272.9, 1218.6 1344.6 C 1313.8 1341.3, 1447.1 1299.7, 1536.0 1279.8 C 1631.2 1290.1, 1764.6 1351.6, 1853.4 1239.0 C 1948.7 1255.7, 2082.0 1347.5, 2170.9 1246.9 C 2266.1 1239.5, 2399.4 1346.4, 2488.3 1298.8 C 2583.6 1299.1, 2716.9 1336.6, 2805.8 1363.1 C 2901.0 1355.1, 3034.3 1284.4, 3123.2 1400.9 C 3218.4 1399.3, 3351.8 1254.6, 3440.6 1389.2" fill="none" stroke="url(#ribbon282)" stroke-width="42.4" stroke-linecap="round" stroke-opacity="0.224" /></g><g transform="rotate(-3.81 1536.0 1536.0)"><path d="M-368.6 1479.7 C -225.8 1549.4, -25.8 1436.4, 107.5 1563.8 C 250.4 1537.2, 450.4 1415.3, 583.7 1514.2 C 726.5 1523.5, 926.5 1449.5, 1059.8 1443.6 C 1202.7 1441.8, 1402.7 1512.2, 1536.0 1394.9 C 1678.8 1407.3, 1878.8 1539.3, 2012.2 1397.6 C 2155.0 1418.7, 2355.0 1563.4, 2488.3 1450.1 C 2631.2 1441.6, 2831.2 1499.8, 2964.5 1520.5 C 3107.3 1527.7, 3307.3 1431.0, 3440.6 1566.2" fill="none" stroke="url(#ribbon282)" stroke-width="38.4" stroke-linecap="round" stroke-opacity="0.250" /></g><g transform="rotate(-3.23 1536.0 1536.0)"><path d="M-368.6 1719.3 C -241.7 1788.9, -63.9 1651.9, 54.6 1705.7 C 181.6 1702.3, 359.4 1725.5, 477.9 1640.4 C 604.8 1662.2, 782.6 1813.6, 901.1 1623.0 C 1028.1 1631.4, 1205.9 1795.6, 1324.4 1664.1 C 1451.3 1676.2, 1629.1 1775.3, 1747.6 1738.6 C 1874.6 1745.5, 2052.4 1697.8, 2170.9 1801.5 C 2297.9 1787.7, 2475.6 1622.4, 2594.1 1814.5 C 2721.1 1821.8, 2898.9 1669.7, 3017.4 1769.8 C 3144.4 1773.5, 3322.1 1700.5, 3440.6 1694.5" fill="none" stroke="url(#ribbon282)" stroke-width="34.4" stroke-linecap="round" stroke-opacity="0.276" /></g><g transform="rotate(-2.65 1536.0 1536.0)"><path d="M-368.6 1892.4 C -254.4 1856.9, -94.4 1926.6, 12.3 1797.5 C 126.6 1763.0, 286.6 1996.8, 393.2 1794.5 C 507.5 1818.7, 667.5 1969.9, 774.1 1850.9 C 888.4 1861.0, 1048.4 1928.5, 1155.1 1932.5 C 1269.4 1932.9, 1429.3 1847.9, 1536.0 1989.8 C 1650.3 1961.2, 1810.3 1805.3, 1916.9 1988.0 C 2031.2 1990.8, 2191.2 1821.0, 2297.9 1928.3 C 2412.1 1934.2, 2572.1 1864.5, 2678.8 1846.8 C 2793.1 1848.9, 2953.1 1939.3, 3059.7 1793.0 C 3174.0 1769.9, 3334.0 1997.3, 3440.6 1799.5" fill="none" stroke="url(#ribbon282)" stroke-width="30.4" stroke-linecap="round" stroke-opacity="0.302" /></g><g transform="rotate(-2.07 1536.0 1536.0)"><path d="M-368.6 2026.8 C -264.8 2128.6, -119.3 1960.5, -22.3 2080.1 C 81.5 2059.5, 227.0 2004.8, 324.0 1993.5 C 427.8 2000.0, 573.3 2056.3, 670.3 1927.0 C 774.1 1908.1, 919.6 2138.4, 1016.6 1921.1 C 1120.4 1944.3, 1265.9 2084.6, 1362.9 1979.3 C 1466.7 1980.8, 1612.2 2042.7, 1709.1 2066.4 C 1813.0 2051.3, 1958.5 1990.4, 2055.4 2129.4 C 2159.3 2149.8, 2304.8 1944.9, 2401.7 2130.2 C 2505.6 2142.7, 2651.1 1946.3, 2748.0 2068.3 C 2851.9 2084.0, 2997.4 1989.0, 3094.3 1981.3 C 3198.2 1997.2, 3343.7 2078.6, 3440.6 1921.8" fill="none" stroke="url(#ribbon282)" stroke-width="26.4" stroke-linecap="round" stroke-opacity="0.328" /></g><g transform="rotate(-1.49 1536.0 1536.0)"><path d="M-368.6 2221.1 C -273.4 2336.7, -140.1 2125.0, -51.2 2220.7 C 44.0 2220.7, 177.4 2221.5, 266.2 2135.5 C 361.5 2105.9, 494.8 2264.7, 583.7 2102.3 C 678.9 2094.5, 812.2 2277.0, 901.1 2141.1 C 996.4 2120.4, 1129.7 2309.1, 1218.6 2228.5 C 1313.8 2228.0, 1447.1 2216.7, 1536.0 2311.4 C 1631.2 2326.8, 1764.6 2153.7, 1853.4 2339.5 C 1948.7 2368.0, 2082.0 2151.2, 2170.9 2295.8 C 2266.1 2267.0, 2399.4 2187.9, 2488.3 2206.9 C 2583.6 2205.0, 2716.9 2237.3, 2805.8 2126.5 C 2901.0 2106.9, 3034.3 2275.8, 3123.2 2103.6 C 3218.4 2108.9, 3351.8 2305.8, 3440.6 2151.9" fill="none" stroke="url(#ribbon282)" stroke-width="22.4" stroke-linecap="round" stroke-opacity="0.354" /></g><g transform="rotate(-0.91 1536.0 1536.0)"><path d="M-368.6 2484.6 C -225.8 2452.1, -25.8 2511.8, 107.5 2551.0 C 250.4 2537.2, 450.4 2453.5, 583.7 2607.6 C 726.5 2567.6, 926.5 2378.1, 1059.8 2589.6 C 1202.7 2612.8, 1402.7 2380.0, 1536.0 2507.9 C 1678.8 2505.2, 1878.8 2462.2, 2012.2 2412.0 C 2155.0 2410.6, 2355.0 2531.2, 2488.3 2360.2 C 2631.2 2343.3, 2831.2 2536.1, 2964.5 2383.8 C 3107.3 2366.6, 3307.3 2575.7, 3440.6 2468.6" fill="none" stroke="url(#ribbon282)" stroke-width="18.4" stroke-linecap="round" stroke-opacity="0.380" /></g><g transform="rotate(-0.33 1536.0 1536.0)"><path d="M-368.6 2610.1 C -241.7 2668.3, -63.9 2576.9, 54.6 2738.9 C 181.6 2700.0, 359.4 2494.9, 477.9 2723.7 C 604.8 2731.1, 782.6 2554.3, 901.1 2639.7 C 1028.1 2647.3, 1205.9 2596.7, 1324.4 2537.7 C 1451.3 2517.8, 1629.1 2637.5, 1747.6 2479.6 C 1874.6 2485.4, 2052.4 2700.7, 2170.9 2500.7 C 2297.9 2492.1, 2475.6 2730.5, 2594.1 2588.2 C 2721.1 2585.1, 2898.9 2635.5, 3017.4 2688.9 C 3144.4 2674.7, 3322.1 2528.6, 3440.6 2741.9" fill="none" stroke="url(#ribbon282)" stroke-width="14.4" stroke-linecap="round" stroke-opacity="0.406" /></g></g>
  <g><ellipse cx="1536.0" cy="1551.9" rx="728.6" ry="605.7" fill="url(#extrude282)" opacity="0.220" /><ellipse cx="1536.0" cy="1567.7" rx="736.0" ry="610.9" fill="url(#extrude282)" opacity="0.205" /><ellipse cx="1536.0" cy="1583.6" rx="743.4" ry="616.1" fill="url(#extrude282)" opacity="0.190" /><ellipse cx="1536.0" cy="1599.5" rx="750.9" ry="621.3" fill="url(#extrude282)" opacity="0.175" /><ellipse cx="1536.0" cy="1615.4" rx="758.3" ry="626.5" fill="url(#extrude282)" opacity="0.160" /><ellipse cx="1536.0" cy="1631.2" rx="765.7" ry="631.7" fill="url(#extrude282)" opacity="0.145" /><ellipse cx="1536.0" cy="1647.1" rx="773.2" ry="636.9" fill="url(#extrude282)" opacity="0.130" /><ellipse cx="1536.0" cy="1663.0" rx="780.6" ry="642.1" fill="url(#extrude282)" opacity="0.115" /><ellipse cx="1536.0" cy="1678.8" rx="788.0" ry="647.4" fill="url(#extrude282)" opacity="0.100" /><ellipse cx="1536.0" cy="1694.7" rx="795.5" ry="652.6" fill="url(#extrude282)" opacity="0.085" /><ellipse cx="1536.0" cy="1710.6" rx="802.9" ry="657.8" fill="url(#extrude282)" opacity="0.070" /><ellipse cx="1536.0" cy="1726.5" rx="810.3" ry="663.0" fill="url(#extrude282)" opacity="0.055" /></g>
  <ellipse cx="1536.0" cy="1726.5" rx="773.2" ry="214.9" fill="#0B1D2D" opacity="0.24" />
  <ellipse cx="1536.0" cy="1536.0" rx="743.4" ry="651.3" fill="url(#orb282)" stroke="#FFFFFF" stroke-opacity="0.42" stroke-width="7" />
  <ellipse cx="1431.9" cy="1392.7" rx="505.5" ry="299.6" fill="#FFFFFF" opacity="0.25" />
  <path d="M 199.4 399.4 C 1013.8 -30.7, 2058.2 768.0, 2872.6 215.0 L 2872.6 983.0 C 2089.0 1228.8, 1013.8 307.2, 199.4 1167.4 Z" fill="url(#glass282)" />
  <rect x="270" y="270" width="2532" height="2532" rx="430" fill="none" stroke="#FFFFFF" stroke-opacity="0.30" stroke-width="5" />
  <rect x="288.4" y="288.4" width="2495.1" height="2495.1" rx="399" fill="none" stroke="#8A5CFF" stroke-opacity="0.35" stroke-width="3" />
  <g filter="url(#soft282)"><rect x="2774" y="1143" width="62" height="2" fill="#FFFFFF" opacity="0.385" /><rect x="2804" y="1113" width="2" height="62" fill="#FFFFFF" opacity="0.385" /><rect x="2382" y="2298" width="68" height="2" fill="#FFFFFF" opacity="0.750" /><rect x="2415" y="2265" width="2" height="68" fill="#FFFFFF" opacity="0.750" /><rect x="576" y="916" width="48" height="2" fill="#FFFFFF" opacity="0.846" /><rect x="599" y="893" width="2" height="48" fill="#FFFFFF" opacity="0.846" /><rect x="2125" y="1786" width="56" height="2" fill="#FFFFFF" opacity="0.666" /><rect x="2152" y="1759" width="2" height="56" fill="#FFFFFF" opacity="0.666" /><rect x="572" y="942" width="66" height="2" fill="#FFFFFF" opacity="0.337" /><rect x="604" y="910" width="2" height="66" fill="#FFFFFF" opacity="0.337" /><rect x="2667" y="2184" width="50" height="2" fill="#FFFFFF" opacity="0.444" /><rect x="2691" y="2160" width="2" height="50" fill="#FFFFFF" opacity="0.444" /><rect x="1556" y="587" width="34" height="2" fill="#FFFFFF" opacity="0.536" /><rect x="1572" y="571" width="2" height="34" fill="#FFFFFF" opacity="0.536" /><rect x="1257" y="1352" width="68" height="2" fill="#FFFFFF" opacity="0.622" /><rect x="1290" y="1319" width="2" height="68" fill="#FFFFFF" opacity="0.622" /><rect x="1682" y="1935" width="30" height="2" fill="#FFFFFF" opacity="0.726" /><rect x="1696" y="1921" width="2" height="30" fill="#FFFFFF" opacity="0.726" /><rect x="2260" y="2053" width="34" height="2" fill="#FFFFFF" opacity="0.839" /><rect x="2276" y="2037" width="2" height="34" fill="#FFFFFF" opacity="0.839" /><rect x="797" y="971" width="78" height="2" fill="#FFFFFF" opacity="0.456" /><rect x="835" y="933" width="2" height="78" fill="#FFFFFF" opacity="0.456" /><rect x="1378" y="2591" width="54" height="2" fill="#FFFFFF" opacity="0.315" /><rect x="1404" y="2565" width="2" height="54" fill="#FFFFFF" opacity="0.315" /><rect x="996" y="1604" width="46" height="2" fill="#FFFFFF" opacity="0.305" /><rect x="1018" y="1582" width="2" height="46" fill="#FFFFFF" opacity="0.305" /><rect x="1220" y="2718" width="28" height="2" fill="#FFFFFF" opacity="0.828" /><rect x="1233" y="2705" width="2" height="28" fill="#FFFFFF" opacity="0.828" /><rect x="2669" y="2129" width="28" height="2" fill="#FFFFFF" opacity="0.758" /><rect x="2682" y="2116" width="2" height="28" fill="#FFFFFF" opacity="0.758" /><rect x="2078" y="2147" width="32" height="2" fill="#FFFFFF" opacity="0.661" /><rect x="2093" y="2132" width="2" height="32" fill="#FFFFFF" opacity="0.661" /><rect x="1696" y="2002" width="30" height="2" fill="#FFFFFF" opacity="0.841" /><rect x="1710" y="1988" width="2" height="30" fill="#FFFFFF" opacity="0.841" /><rect x="1371" y="1731" width="78" height="2" fill="#FFFFFF" opacity="0.402" /><rect x="1409" y="1693" width="2" height="78" fill="#FFFFFF" opacity="0.402" /><rect x="2328" y="1214" width="76" height="2" fill="#FFFFFF" opacity="0.365" /><rect x="2365" y="1177" width="2" height="76" fill="#FFFFFF" opacity="0.365" /><rect x="1327" y="2294" width="56" height="2" fill="#FFFFFF" opacity="0.804" /><rect x="1354" y="2267" width="2" height="56" fill="#FFFFFF" opacity="0.804" /><rect x="747" y="2347" width="72" height="2" fill="#FFFFFF" opacity="0.825" /><rect x="782" y="2312" width="2" height="72" fill="#FFFFFF" opacity="0.825" /><rect x="2149" y="1090" width="76" height="2" fill="#FFFFFF" opacity="0.408" /><rect x="2186" y="1053" width="2" height="76" fill="#FFFFFF" opacity="0.408" /><rect x="1968" y="2701" width="60" height="2" fill="#FFFFFF" opacity="0.572" /><rect x="1997" y="2672" width="2" height="60" fill="#FFFFFF" opacity="0.572" /><rect x="1367" y="1019" width="80" height="2" fill="#FFFFFF" opacity="0.621" /><rect x="1406" y="980" width="2" height="80" fill="#FFFFFF" opacity="0.621" /><rect x="2469" y="1704" width="60" height="2" fill="#FFFFFF" opacity="0.727" /><rect x="2498" y="1675" width="2" height="60" fill="#FFFFFF" opacity="0.727" /><rect x="1238" y="2366" width="50" height="2" fill="#FFFFFF" opacity="0.657" /><rect x="1262" y="2342" width="2" height="50" fill="#FFFFFF" opacity="0.657" /></g>
  <g opacity="0.52"><path d="M996 1582 Q1572 1006, 2148 1582" fill="none" stroke="#0C2030" stroke-width="90" /><path d="M996 1801 Q1572 1198, 2148 1801" fill="none" stroke="#0C2030" stroke-width="88" opacity="0.9" /><path d="M996 1966 Q1572 1326, 2148 1966" fill="none" stroke="#0C2030" stroke-width="87" opacity="0.75" /></g>
  <g filter="url(#soft282)"><path d="M960 1536 Q1536 960, 2112 1536" fill="none" stroke="url(#symbol282)" stroke-width="90" /><path d="M960 1755 Q1536 1152, 2112 1755" fill="none" stroke="url(#symbol282)" stroke-width="88" opacity="0.9" /><path d="M960 1920 Q1536 1280, 2112 1920" fill="none" stroke="url(#symbol282)" stroke-width="87" opacity="0.75" /></g>
  <rect x="138" y="138" width="2796" height="2796" rx="629" fill="#FFFFFF" filter="url(#grain282)" opacity="0.18" />
</svg>
