<svg xmlns="http://www.w3.org/2000/svg" width="3072" height="3072" viewBox="0 0 3072 3072">
  <title>QuartzOS App Icon 103 - quartz_cloud_103</title>
  <defs><linearGradient id="bg102" x1="0%" y1="0%" x2="100%" y2="100%"><stop offset="0%" stop-color="#FF9F43" /><stop offset="26%" stop-color="#53E3A6" /><stop offset="56%" stop-color="#3B82FF" /><stop offset="78%" stop-color="#4B91A3" /><stop offset="100%" stop-color="#1A2630" /></linearGradient><radialGradient id="sun102" cx="30%" cy="20%" r="88%"><stop offset="0%" stop-color="#FFFFFF" stop-opacity="0.62" /><stop offset="30%" stop-color="#8A5CFF" stop-opacity="0.35" /><stop offset="100%" stop-color="#8A5CFF" stop-opacity="0" /></radialGradient><linearGradient id="glass102" x1="0%" y1="0%" x2="0%" y2="100%"><stop offset="0%" stop-color="#FFFFFF" stop-opacity="0.70" /><stop offset="46%" stop-color="#FFFFFF" stop-opacity="0.26" /><stop offset="100%" stop-color="#FFFFFF" stop-opacity="0.00" /></linearGradient><linearGradient id="ribbon102" x1="0%" y1="0%" x2="100%" y2="0%"><stop offset="0%" stop-color="#FF9F43" stop-opacity="0.18" /><stop offset="34%" stop-color="#53E3A6" stop-opacity="0.72" /><stop offset="66%" stop-color="#3B82FF" stop-opacity="0.72" /><stop offset="100%" stop-color="#8A5CFF" stop-opacity="0.18" /></linearGradient><radialGradient id="orb102" cx="34%" cy="27%" r="74%"><stop offset="0%" stop-color="#FFFFFF" stop-opacity="0.84" /><stop offset="30%" stop-color="#FF9F43" stop-opacity="0.52" /><stop offset="68%" stop-color="#53E3A6" stop-opacity="0.42" /><stop offset="100%" stop-color="#3B82FF" stop-opacity="0.20" /></radialGradient><linearGradient id="extrude102" x1="0%" y1="0%" x2="0%" y2="100%"><stop offset="0%" stop-color="#15283C" stop-opacity="0.45" /><stop offset="100%" stop-color="#08131D" stop-opacity="0.06" /></linearGradient><linearGradient id="symbol102" x1="0%" y1="0%" x2="100%" y2="100%"><stop offset="0%" stop-color="#FFFFFF" /><stop offset="100%" stop-color="#8A5CFF" /></linearGradient><filter id="shadow102" x="-40%" y="-40%" width="180%" height="180%"><feDropShadow dx="0" dy="49" stdDeviation="86" flood-color="#06111A" flood-opacity="0.54" /></filter><filter id="soft102" x="-40%" y="-40%" width="180%" height="180%"><feDropShadow dx="0" dy="0" stdDeviation="14" flood-color="#FF9F43" flood-opacity="0.45" /></filter><filter id="grain102"><feTurbulence type="fractalNoise" baseFrequency="0.743" numOctaves="2" seed="102" /><feColorMatrix type="saturate" values="0" /><feComponentTransfer><feFuncA type="table" tableValues="0 0.09" /></feComponentTransfer></filter></defs>
  <rect x="138" y="138" width="2796" height="2796" rx="629" fill="url(#bg102)" filter="url(#shadow102)" />
  <rect x="138" y="138" width="2796" height="2796" rx="629" fill="url(#sun102)" />
  <g><circle cx="2199" cy="690" r="98" fill="#FFFFFF" opacity="0.234" /><circle cx="581" cy="807" r="149" fill="#FFFFFF" opacity="0.117" /><circle cx="845" cy="1865" r="56" fill="#FFFFFF" opacity="0.169" /><circle cx="954" cy="2187" r="106" fill="#FFFFFF" opacity="0.095" /><circle cx="2018" cy="2367" r="62" fill="#FFFFFF" opacity="0.089" /><circle cx="1620" cy="2021" r="50" fill="#FFFFFF" opacity="0.198" /><circle cx="1463" cy="2131" r="105" fill="#FFFFFF" opacity="0.167" /><circle cx="1687" cy="621" r="158" fill="#FFFFFF" opacity="0.093" /><circle cx="1414" cy="494" r="112" fill="#FFFFFF" opacity="0.140" /><circle cx="2363" cy="2581" r="48" fill="#FFFFFF" opacity="0.111" /><circle cx="1269" cy="1050" r="109" fill="#FFFFFF" opacity="0.082" /><circle cx="1782" cy="438" r="54" fill="#FFFFFF" opacity="0.111" /><circle cx="2403" cy="1674" r="82" fill="#FFFFFF" opacity="0.147" /><circle cx="1643" cy="1016" r="107" fill="#FFFFFF" opacity="0.199" /><circle cx="1463" cy="878" r="41" fill="#FFFFFF" opacity="0.201" /><circle cx="2332" cy="1004" r="42" fill="#FFFFFF" opacity="0.071" /><circle cx="2482" cy="1310" r="137" fill="#FFFFFF" opacity="0.218" /><circle cx="517" cy="416" r="96" fill="#FFFFFF" opacity="0.202" /><circle cx="1128" cy="833" r="124" fill="#FFFFFF" opacity="0.201" /><circle cx="895" cy="1231" r="123" fill="#FFFFFF" opacity="0.221" /><circle cx="1776" cy="2321" r="112" fill="#FFFFFF" opacity="0.153" /><circle cx="2415" cy="792" r="107" fill="#FFFFFF" opacity="0.215" /><circle cx="2049" cy="1436" r="37" fill="#FFFFFF" opacity="0.107" /><circle cx="976" cy="1521" r="128" fill="#FFFFFF" opacity="0.113" /><circle cx="849" cy="319" r="67" fill="#FFFFFF" opacity="0.215" /><circle cx="1617" cy="1026" r="154" fill="#FFFFFF" opacity="0.205" /><circle cx="1857" cy="1664" r="87" fill="#FFFFFF" opacity="0.167" /><circle cx="501" cy="920" r="148" fill="#FFFFFF" opacity="0.098" /></g>
  <g><path d="M 354.7 587.4 L 2837.2 310.9 L 2837.2 751.2 L 354.7 1027.7 Z" fill="#FFFFFF" opacity="0.196" /><path d="M 311.7 849.1 L 2688.3 572.6 L 2688.3 1018.0 L 311.7 1294.5 Z" fill="#FFFFFF" opacity="0.120" /><path d="M 320.5 1104.2 L 2777.4 827.7 L 2777.4 1284.1 L 320.5 1560.6 Z" fill="#FFFFFF" opacity="0.188" /><path d="M 248.7 1384.0 L 2891.7 1107.5 L 2891.7 1580.5 L 248.7 1857.0 Z" fill="#FFFFFF" opacity="0.134" /><path d="M 385.2 1645.1 L 2742.7 1368.6 L 2742.7 1857.1 L 385.2 2133.5 Z" fill="#FFFFFF" opacity="0.153" /><path d="M 315.1 1896.1 L 2773.7 1619.6 L 2773.7 2102.1 L 315.1 2378.5 Z" fill="#FFFFFF" opacity="0.095" /><path d="M 267.8 2207.6 L 2680.8 1931.1 L 2680.8 2425.7 L 267.8 2702.2 Z" fill="#FFFFFF" opacity="0.212" /><path d="M 285.5 2407.9 L 2816.9 2131.4 L 2816.9 2574.3 L 285.5 2850.8 Z" fill="#FFFFFF" opacity="0.224" /></g>
  <g filter="url(#soft102)"><g transform="rotate(-4.33 1536.0 1536.0)"><path d="M-368.6 468.3 C -225.8 524.4, -25.8 424.5, 107.5 490.9 C 250.4 497.8, 450.4 444.6, 583.7 447.9 C 726.5 443.2, 926.5 485.6, 1059.8 417.2 C 1202.7 428.3, 1402.7 510.3, 1536.0 417.5 C 1678.8 414.8, 1878.8 522.7, 2012.2 448.7 C 2155.0 444.6, 2355.0 475.1, 2488.3 491.7 C 2631.2 485.4, 2831.2 452.4, 2964.5 520.5 C 3107.3 534.5, 3307.3 420.3, 3440.6 517.7" fill="none" stroke="url(#ribbon102)" stroke-width="58.4" stroke-linecap="round" stroke-opacity="0.120" /></g><g transform="rotate(-3.75 1536.0 1536.0)"><path d="M-368.6 753.8 C -241.7 741.2, -63.9 768.9, 54.6 786.7 C 181.6 775.6, 359.4 733.8, 477.9 814.7 C 604.8 828.0, 782.6 727.0, 901.1 805.7 C 1028.1 815.2, 1205.9 732.8, 1324.4 765.2 C 1451.3 769.2, 1629.1 741.5, 1747.6 717.8 C 1874.6 714.5, 2052.4 790.1, 2170.9 692.2 C 2297.9 711.6, 2475.6 797.0, 2594.1 703.9 C 2721.1 713.1, 2898.9 812.8, 3017.4 745.9 C 3144.4 747.1, 3322.1 760.3, 3440.6 792.7" fill="none" stroke="url(#ribbon102)" stroke-width="54.4" stroke-linecap="round" stroke-opacity="0.146" /></g><g transform="rotate(-3.17 1536.0 1536.0)"><path d="M-368.6 874.9 C -254.4 828.7, -94.4 928.4, 12.3 881.2 C 126.6 879.4, 286.6 869.3, 393.2 928.9 C 507.5 943.4, 667.5 816.6, 774.1 943.9 C 888.4 935.4, 1048.4 810.7, 1155.1 917.0 C 1269.4 921.9, 1429.3 835.3, 1536.0 864.6 C 1650.3 865.8, 1810.3 885.0, 1916.9 818.5 C 2031.2 832.9, 2191.2 928.5, 2297.9 806.6 C 2412.1 813.0, 2572.1 929.9, 2678.8 836.1 C 2793.1 849.7, 2953.1 896.1, 3059.7 889.2 C 3174.0 884.5, 3334.0 865.8, 3440.6 933.6" fill="none" stroke="url(#ribbon102)" stroke-width="50.4" stroke-linecap="round" stroke-opacity="0.172" /></g><g transform="rotate(-2.59 1536.0 1536.0)"><path d="M-368.6 1097.8 C -264.8 1080.8, -119.3 1106.5, -22.3 1034.9 C 81.5 1046.0, 227.0 1155.3, 324.0 1022.7 C 427.8 1001.1, 573.3 1148.0, 670.3 1056.1 C 774.1 1062.1, 919.6 1137.6, 1016.6 1114.8 C 1120.4 1112.9, 1265.9 1087.2, 1362.9 1163.1 C 1466.7 1157.9, 1612.2 1042.5, 1709.1 1171.8 C 1813.0 1199.7, 1958.5 1031.1, 2055.4 1135.6 C 2159.3 1145.0, 2304.8 1081.6, 2401.7 1076.5 C 2505.6 1072.7, 2651.1 1122.8, 2748.0 1030.2 C 2851.9 1020.8, 2997.4 1129.7, 3094.3 1025.0 C 3198.2 1034.9, 3343.7 1132.4, 3440.6 1063.9" fill="none" stroke="url(#ribbon102)" stroke-width="46.4" stroke-linecap="round" stroke-opacity="0.198" /></g><g transform="rotate(-2.01 1536.0 1536.0)"><path d="M-368.6 1241.2 C -273.4 1140.0, -140.1 1266.7, -51.2 1212.2 C 44.0 1204.7, 177.4 1262.0, 266.2 1277.2 C 361.5 1278.6, 494.8 1210.6, 583.7 1320.4 C 678.9 1335.5, 812.2 1185.1, 901.1 1315.6 C 996.4 1296.4, 1129.7 1212.4, 1218.6 1265.6 C 1313.8 1259.4, 1447.1 1228.0, 1536.0 1200.9 C 1631.2 1205.7, 1764.6 1272.4, 1853.4 1160.6 C 1948.7 1163.9, 2082.0 1294.5, 2170.9 1169.2 C 2266.1 1197.9, 2399.4 1272.9, 2488.3 1221.5 C 2583.6 1218.6, 2716.9 1261.4, 2805.8 1285.7 C 2901.0 1279.0, 3034.3 1188.1, 3123.2 1323.0 C 3218.4 1339.4, 3351.8 1202.3, 3440.6 1310.6" fill="none" stroke="url(#ribbon102)" stroke-width="42.4" stroke-linecap="round" stroke-opacity="0.224" /></g><g transform="rotate(-1.43 1536.0 1536.0)"><path d="M-368.6 1448.3 C -225.8 1492.3, -25.8 1410.9, 107.5 1417.9 C 250.4 1408.7, 450.4 1459.0, 583.7 1365.9 C 726.5 1389.0, 926.5 1523.1, 1059.8 1363.8 C 1202.7 1383.0, 1402.7 1485.4, 1536.0 1413.0 C 1678.8 1420.4, 1878.8 1479.2, 2012.2 1483.5 C 2155.0 1490.9, 2355.0 1426.5, 2488.3 1532.7 C 2631.2 1554.1, 2831.2 1373.1, 2964.5 1530.7 C 3107.3 1514.9, 3307.3 1387.4, 3440.6 1478.6" fill="none" stroke="url(#ribbon102)" stroke-width="38.4" stroke-linecap="round" stroke-opacity="0.250" /></g><g transform="rotate(-0.85 1536.0 1536.0)"><path d="M-368.6 1636.7 C -241.7 1578.6, -63.9 1690.8, 54.6 1540.3 C 181.6 1566.7, 359.4 1679.9, 477.9 1558.3 C 604.8 1527.4, 782.6 1689.6, 901.1 1623.9 C 1028.1 1624.7, 1205.9 1647.2, 1324.4 1697.3 C 1451.3 1708.5, 1629.1 1615.4, 1747.6 1733.9 C 1874.6 1709.1, 2052.4 1586.6, 2170.9 1711.6 C 2297.9 1687.8, 2475.6 1562.0, 2594.1 1643.9 C 2721.1 1646.2, 2898.9 1628.4, 3017.4 1571.8 C 3144.4 1547.2, 3322.1 1707.8, 3440.6 1539.1" fill="none" stroke="url(#ribbon102)" stroke-width="34.4" stroke-linecap="round" stroke-opacity="0.276" /></g><g transform="rotate(-0.27 1536.0 1536.0)"><path d="M-368.6 1897.9 C -254.4 2035.9, -94.4 1839.2, 12.3 1946.7 C 126.6 1954.8, 286.6 1866.9, 393.2 1865.4 C 507.5 1859.9, 667.5 1918.8, 774.1 1803.8 C 888.4 1827.4, 1048.4 1929.3, 1155.1 1799.3 C 1269.4 1786.6, 1429.3 2000.1, 1536.0 1854.6 C 1650.3 1868.4, 1810.3 1918.8, 1916.9 1936.1 C 2031.2 1923.4, 2191.2 1878.8, 2297.9 1994.5 C 2412.1 2023.3, 2572.1 1785.6, 2678.8 1994.3 C 2793.1 1977.2, 2953.1 1843.1, 3059.7 1935.6 C 3174.0 1946.6, 3334.0 1868.3, 3440.6 1854.0" fill="none" stroke="url(#ribbon102)" stroke-width="30.4" stroke-linecap="round" stroke-opacity="0.302" /></g><g transform="rotate(0.31 1536.0 1536.0)"><path d="M-368.6 2026.4 C -264.8 2008.2, -119.3 2044.2, -22.3 1929.4 C 81.5 1924.0, 227.0 2076.6, 324.0 1918.9 C 427.8 1909.9, 573.3 2135.9, 670.3 1973.7 C 774.1 1977.5, 919.6 2088.6, 1016.6 2060.4 C 1120.4 2067.6, 1265.9 2014.2, 1362.9 2126.5 C 1466.7 2157.4, 1612.2 1912.4, 1709.1 2131.9 C 1813.0 2159.3, 1958.5 1913.3, 2055.4 2073.3 C 2159.3 2081.9, 2304.8 1980.0, 2401.7 1986.3 C 2505.6 1976.6, 2651.1 2052.9, 2748.0 1923.6 C 2851.9 1928.6, 2997.4 2133.5, 3094.3 1923.3 C 3198.2 1895.8, 3343.7 2127.8, 3440.6 1985.5" fill="none" stroke="url(#ribbon102)" stroke-width="26.4" stroke-linecap="round" stroke-opacity="0.328" /></g><g transform="rotate(0.89 1536.0 1536.0)"><path d="M-368.6 2254.0 C -273.4 2166.2, -140.1 2279.8, -51.2 2281.5 C 44.0 2289.7, 177.4 2221.5, 266.2 2356.1 C 361.5 2352.4, 494.8 2133.9, 583.7 2368.8 C 678.9 2393.2, 812.2 2180.5, 901.1 2311.8 C 996.4 2328.3, 1129.7 2205.2, 1218.6 2219.8 C 1313.8 2229.0, 1447.1 2281.6, 1536.0 2148.5 C 1631.2 2143.4, 1764.6 2308.1, 1853.4 2141.2 C 1948.7 2113.1, 2082.0 2328.8, 2170.9 2202.3 C 2266.1 2200.7, 2399.4 2304.9, 2488.3 2294.7 C 2583.6 2303.9, 2716.9 2225.6, 2805.8 2362.5 C 2901.0 2353.2, 3034.3 2129.6, 3123.2 2364.4 C 3218.4 2359.7, 3351.8 2138.5, 3440.6 2299.3" fill="none" stroke="url(#ribbon102)" stroke-width="22.4" stroke-linecap="round" stroke-opacity="0.354" /></g><g transform="rotate(1.47 1536.0 1536.0)"><path d="M-368.6 2404.1 C -225.8 2447.8, -25.8 2349.9, 107.5 2361.6 C 250.4 2353.8, 450.4 2419.9, 583.7 2289.4 C 726.5 2258.0, 926.5 2490.7, 1059.8 2286.7 C 1202.7 2261.0, 1402.7 2477.5, 1536.0 2355.2 C 1678.8 2340.3, 1878.8 2447.0, 2012.2 2453.3 C 2155.0 2467.0, 2355.0 2354.1, 2488.3 2521.5 C 2631.2 2490.3, 2831.2 2286.4, 2964.5 2518.5 C 3107.3 2510.1, 3307.3 2287.4, 3440.6 2446.0" fill="none" stroke="url(#ribbon102)" stroke-width="18.4" stroke-linecap="round" stroke-opacity="0.380" /></g><g transform="rotate(2.05 1536.0 1536.0)"><path d="M-368.6 2597.2 C -241.7 2600.8, -63.9 2594.3, 54.6 2695.6 C 181.6 2706.0, 359.4 2567.3, 477.9 2730.0 C 604.8 2681.3, 782.6 2491.1, 901.1 2683.8 C 1028.1 2686.3, 1205.9 2549.0, 1324.4 2585.1 C 1451.3 2585.9, 1629.1 2602.0, 1747.6 2493.7 C 1874.6 2465.2, 2052.4 2642.8, 2170.9 2465.1 C 2297.9 2430.0, 2475.6 2720.3, 2594.1 2516.6 C 2721.1 2531.6, 2898.9 2647.7, 3017.4 2617.0 C 3144.4 2623.6, 3322.1 2588.9, 3440.6 2705.4" fill="none" stroke="url(#ribbon102)" stroke-width="14.4" stroke-linecap="round" stroke-opacity="0.406" /></g></g>
  <g><ellipse cx="1536.0" cy="1551.9" rx="728.6" ry="605.7" fill="url(#extrude102)" opacity="0.220" /><ellipse cx="1536.0" cy="1567.7" rx="736.0" ry="610.9" fill="url(#extrude102)" opacity="0.205" /><ellipse cx="1536.0" cy="1583.6" rx="743.4" ry="616.1" fill="url(#extrude102)" opacity="0.190" /><ellipse cx="1536.0" cy="1599.5" rx="750.9" ry="621.3" fill="url(#extrude102)" opacity="0.175" /><ellipse cx="1536.0" cy="1615.4" rx="758.3" ry="626.5" fill="url(#extrude102)" opacity="0.160" /><ellipse cx="1536.0" cy="1631.2" rx="765.7" ry="631.7" fill="url(#extrude102)" opacity="0.145" /><ellipse cx="1536.0" cy="1647.1" rx="773.2" ry="636.9" fill="url(#extrude102)" opacity="0.130" /><ellipse cx="1536.0" cy="1663.0" rx="780.6" ry="642.1" fill="url(#extrude102)" opacity="0.115" /><ellipse cx="1536.0" cy="1678.8" rx="788.0" ry="647.4" fill="url(#extrude102)" opacity="0.100" /><ellipse cx="1536.0" cy="1694.7" rx="795.5" ry="652.6" fill="url(#extrude102)" opacity="0.085" /><ellipse cx="1536.0" cy="1710.6" rx="802.9" ry="657.8" fill="url(#extrude102)" opacity="0.070" /><ellipse cx="1536.0" cy="1726.5" rx="810.3" ry="663.0" fill="url(#extrude102)" opacity="0.055" /></g>
  <ellipse cx="1536.0" cy="1726.5" rx="773.2" ry="214.9" fill="#0B1D2D" opacity="0.24" />
  <ellipse cx="1536.0" cy="1536.0" rx="743.4" ry="651.3" fill="url(#orb102)" stroke="#FFFFFF" stroke-opacity="0.42" stroke-width="7" />
  <ellipse cx="1431.9" cy="1392.7" rx="505.5" ry="299.6" fill="#FFFFFF" opacity="0.25" />
  <path d="M 199.4 399.4 C 1013.8 -30.7, 2058.2 768.0, 2872.6 215.0 L 2872.6 983.0 C 2089.0 1228.8, 1013.8 307.2, 199.4 1167.4 Z" fill="url(#glass102)" />
  <rect x="270" y="270" width="2532" height="2532" rx="430" fill="none" stroke="#FFFFFF" stroke-opacity="0.30" stroke-width="5" />
  <rect x="288.4" y="288.4" width="2495.1" height="2495.1" rx="399" fill="none" stroke="#FF9F43" stroke-opacity="0.35" stroke-width="3" />
  <g filter="url(#soft102)"><rect x="1475" y="1457" width="58" height="2" fill="#FFFFFF" opacity="0.746" /><rect x="1503" y="1429" width="2" height="58" fill="#FFFFFF" opacity="0.746" /><rect x="1460" y="1505" width="78" height="2" fill="#FFFFFF" opacity="0.602" /><rect x="1498" y="1467" width="2" height="78" fill="#FFFFFF" opacity="0.602" /><rect x="876" y="792" width="28" height="2" fill="#FFFFFF" opacity="0.707" /><rect x="889" y="779" width="2" height="28" fill="#FFFFFF" opacity="0.707" /><rect x="315" y="1076" width="84" height="2" fill="#FFFFFF" opacity="0.616" /><rect x="356" y="1035" width="2" height="84" fill="#FFFFFF" opacity="0.616" /><rect x="678" y="1203" width="42" height="2" fill="#FFFFFF" opacity="0.302" /><rect x="698" y="1183" width="2" height="42" fill="#FFFFFF" opacity="0.302" /><rect x="588" y="2584" width="30" height="2" fill="#FFFFFF" opacity="0.559" /><rect x="602" y="2570" width="2" height="30" fill="#FFFFFF" opacity="0.559" /><rect x="845" y="1776" width="50" height="2" fill="#FFFFFF" opacity="0.682" /><rect x="869" y="1752" width="2" height="50" fill="#FFFFFF" opacity="0.682" /><rect x="1122" y="2616" width="36" height="2" fill="#FFFFFF" opacity="0.849" /><rect x="1139" y="2599" width="2" height="36" fill="#FFFFFF" opacity="0.849" /><rect x="934" y="417" width="60" height="2" fill="#FFFFFF" opacity="0.832" /><rect x="963" y="388" width="2" height="60" fill="#FFFFFF" opacity="0.832" /><rect x="2540" y="2185" width="64" height="2" fill="#FFFFFF" opacity="0.541" /><rect x="2571" y="2154" width="2" height="64" fill="#FFFFFF" opacity="0.541" /><rect x="716" y="1330" width="62" height="2" fill="#FFFFFF" opacity="0.350" /><rect x="746" y="1300" width="2" height="62" fill="#FFFFFF" opacity="0.350" /><rect x="1221" y="2331" width="58" height="2" fill="#FFFFFF" opacity="0.392" /><rect x="1249" y="2303" width="2" height="58" fill="#FFFFFF" opacity="0.392" /><rect x="1526" y="2507" width="38" height="2" fill="#FFFFFF" opacity="0.333" /><rect x="1544" y="2489" width="2" height="38" fill="#FFFFFF" opacity="0.333" /><rect x="1692" y="2391" width="76" height="2" fill="#FFFFFF" opacity="0.744" /><rect x="1729" y="2354" width="2" height="76" fill="#FFFFFF" opacity="0.744" /><rect x="809" y="1009" width="60" height="2" fill="#FFFFFF" opacity="0.720" /><rect x="838" y="980" width="2" height="60" fill="#FFFFFF" opacity="0.720" /><rect x="2303" y="949" width="30" height="2" fill="#FFFFFF" opacity="0.808" /><rect x="2317" y="935" width="2" height="30" fill="#FFFFFF" opacity="0.808" /><rect x="2749" y="921" width="26" height="2" fill="#FFFFFF" opacity="0.700" /><rect x="2761" y="909" width="2" height="26" fill="#FFFFFF" opacity="0.700" /><rect x="1522" y="1981" width="48" height="2" fill="#FFFFFF" opacity="0.461" /><rect x="1545" y="1958" width="2" height="48" fill="#FFFFFF" opacity="0.461" /><rect x="1647" y="1311" width="42" height="2" fill="#FFFFFF" opacity="0.525" /><rect x="1667" y="1291" width="2" height="42" fill="#FFFFFF" opacity="0.525" /><rect x="368" y="1007" width="66" height="2" fill="#FFFFFF" opacity="0.707" /><rect x="400" y="975" width="2" height="66" fill="#FFFFFF" opacity="0.707" /><rect x="1724" y="1984" width="74" height="2" fill="#FFFFFF" opacity="0.335" /><rect x="1760" y="1948" width="2" height="74" fill="#FFFFFF" opacity="0.335" /><rect x="2802" y="1626" width="42" height="2" fill="#FFFFFF" opacity="0.586" /><rect x="2822" y="1606" width="2" height="42" fill="#FFFFFF" opacity="0.586" /><rect x="2209" y="1830" width="56" height="2" fill="#FFFFFF" opacity="0.388" /><rect x="2236" y="1803" width="2" height="56" fill="#FFFFFF" opacity="0.388" /><rect x="1837" y="1979" width="78" height="2" fill="#FFFFFF" opacity="0.457" /><rect x="1875" y="1941" width="2" height="78" fill="#FFFFFF" opacity="0.457" /><rect x="842" y="2378" width="28" height="2" fill="#FFFFFF" opacity="0.506" /><rect x="855" y="2365" width="2" height="28" fill="#FFFFFF" opacity="0.506" /><rect x="1940" y="1527" width="58" height="2" fill="#FFFFFF" opacity="0.626" /><rect x="1968" y="1499" width="2" height="58" fill="#FFFFFF" opacity="0.626" /></g>
  <g opacity="0.52"><path d="M996 1582 Q1572 1006, 2148 1582" fill="none" stroke="#0C2030" stroke-width="90" /><path d="M996 1801 Q1572 1198, 2148 1801" fill="none" stroke="#0C2030" stroke-width="88" opacity="0.9" /><path d="M996 1966 Q1572 1326, 2148 1966" fill="none" stroke="#0C2030" stroke-width="87" opacity="0.75" /></g>
  <g filter="url(#soft102)"><path d="M960 1536 Q1536 960, 2112 1536" fill="none" stroke="url(#symbol102)" stroke-width="90" /><path d="M960 1755 Q1536 1152, 2112 1755" fill="none" stroke="url(#symbol102)" stroke-width="88" opacity="0.9" /><path d="M960 1920 Q1536 1280, 2112 1920" fill="none" stroke="url(#symbol102)" stroke-width="87" opacity="0.75" /></g>
  <rect x="138" y="138" width="2796" height="2796" rx="629" fill="#FFFFFF" filter="url(#grain102)" opacity="0.18" />
</svg>
