<svg xmlns="http://www.w3.org/2000/svg" width="3072" height="3072" viewBox="0 0 3072 3072">
  <title>QuartzOS App Icon 243 - quartz_gallery_243</title>
  <defs><linearGradient id="bg242" x1="0%" y1="0%" x2="100%" y2="100%"><stop offset="0%" stop-color="#FF9F43" /><stop offset="26%" stop-color="#53E3A6" /><stop offset="56%" stop-color="#3B82FF" /><stop offset="78%" stop-color="#5E86C9" /><stop offset="100%" stop-color="#1C2435" /></linearGradient><radialGradient id="sun242" cx="27%" cy="39%" r="88%"><stop offset="0%" stop-color="#FFFFFF" stop-opacity="0.62" /><stop offset="30%" stop-color="#8A5CFF" stop-opacity="0.35" /><stop offset="100%" stop-color="#8A5CFF" stop-opacity="0" /></radialGradient><linearGradient id="glass242" x1="0%" y1="0%" x2="0%" y2="100%"><stop offset="0%" stop-color="#FFFFFF" stop-opacity="0.70" /><stop offset="46%" stop-color="#FFFFFF" stop-opacity="0.26" /><stop offset="100%" stop-color="#FFFFFF" stop-opacity="0.00" /></linearGradient><linearGradient id="ribbon242" x1="0%" y1="0%" x2="100%" y2="0%"><stop offset="0%" stop-color="#FF9F43" stop-opacity="0.18" /><stop offset="34%" stop-color="#53E3A6" stop-opacity="0.72" /><stop offset="66%" stop-color="#3B82FF" stop-opacity="0.72" /><stop offset="100%" stop-color="#8A5CFF" stop-opacity="0.18" /></linearGradient><radialGradient id="orb242" cx="34%" cy="27%" r="74%"><stop offset="0%" stop-color="#FFFFFF" stop-opacity="0.84" /><stop offset="30%" stop-color="#FF9F43" stop-opacity="0.52" /><stop offset="68%" stop-color="#53E3A6" stop-opacity="0.42" /><stop offset="100%" stop-color="#3B82FF" stop-opacity="0.20" /></radialGradient><linearGradient id="extrude242" x1="0%" y1="0%" x2="0%" y2="100%"><stop offset="0%" stop-color="#15283C" stop-opacity="0.45" /><stop offset="100%" stop-color="#08131D" stop-opacity="0.06" /></linearGradient><linearGradient id="symbol242" x1="0%" y1="0%" x2="100%" y2="100%"><stop offset="0%" stop-color="#FFFFFF" /><stop offset="100%" stop-color="#8A5CFF" /></linearGradient><filter id="shadow242" x="-40%" y="-40%" width="180%" height="180%"><feDropShadow dx="0" dy="49" stdDeviation="86" flood-color="#06111A" flood-opacity="0.54" /></filter><filter id="soft242" x="-40%" y="-40%" width="180%" height="180%"><feDropShadow dx="0" dy="0" stdDeviation="14" flood-color="#FF9F43" flood-opacity="0.45" /></filter><filter id="grain242"><feTurbulence type="fractalNoise" baseFrequency="1.048" numOctaves="2" seed="242" /><feColorMatrix type="saturate" values="0" /><feComponentTransfer><feFuncA type="table" tableValues="0 0.09" /></feComponentTransfer></filter></defs>
  <rect x="138" y="138" width="2796" height="2796" rx="629" fill="url(#bg242)" filter="url(#shadow242)" />
  <rect x="138" y="138" width="2796" height="2796" rx="629" fill="url(#sun242)" />
  <g><circle cx="1082" cy="1560" r="139" fill="#FFFFFF" opacity="0.091" /><circle cx="1537" cy="2509" r="87" fill="#FFFFFF" opacity="0.090" /><circle cx="2357" cy="486" r="72" fill="#FFFFFF" opacity="0.207" /><circle cx="995" cy="589" r="76" fill="#FFFFFF" opacity="0.061" /><circle cx="1450" cy="1694" r="148" fill="#FFFFFF" opacity="0.234" /><circle cx="2523" cy="1122" r="125" fill="#FFFFFF" opacity="0.072" /><circle cx="2567" cy="2471" r="61" fill="#FFFFFF" opacity="0.173" /><circle cx="1785" cy="1651" r="66" fill="#FFFFFF" opacity="0.127" /><circle cx="2425" cy="1038" r="155" fill="#FFFFFF" opacity="0.146" /><circle cx="765" cy="1598" r="90" fill="#FFFFFF" opacity="0.144" /><circle cx="400" cy="2531" r="125" fill="#FFFFFF" opacity="0.126" /><circle cx="2230" cy="2632" r="128" fill="#FFFFFF" opacity="0.208" /><circle cx="1810" cy="560" r="121" fill="#FFFFFF" opacity="0.088" /><circle cx="1995" cy="1387" r="39" fill="#FFFFFF" opacity="0.161" /><circle cx="2672" cy="1462" r="79" fill="#FFFFFF" opacity="0.212" /><circle cx="2355" cy="905" r="113" fill="#FFFFFF" opacity="0.152" /><circle cx="2623" cy="2569" r="103" fill="#FFFFFF" opacity="0.064" /><circle cx="2314" cy="2464" r="39" fill="#FFFFFF" opacity="0.159" /><circle cx="1640" cy="1178" r="54" fill="#FFFFFF" opacity="0.170" /><circle cx="1966" cy="1737" r="38" fill="#FFFFFF" opacity="0.109" /><circle cx="1576" cy="680" r="75" fill="#FFFFFF" opacity="0.234" /><circle cx="2352" cy="1293" r="102" fill="#FFFFFF" opacity="0.236" /><circle cx="839" cy="1860" r="70" fill="#FFFFFF" opacity="0.102" /><circle cx="799" cy="1064" r="150" fill="#FFFFFF" opacity="0.229" /><circle cx="891" cy="933" r="122" fill="#FFFFFF" opacity="0.074" /><circle cx="406" cy="359" r="142" fill="#FFFFFF" opacity="0.065" /><circle cx="1215" cy="1514" r="109" fill="#FFFFFF" opacity="0.177" /><circle cx="1001" cy="1816" r="135" fill="#FFFFFF" opacity="0.173" /></g>
  <g><path d="M 338.3 610.7 L 2885.9 334.2 L 2885.9 828.2 L 338.3 1104.7 Z" fill="#FFFFFF" opacity="0.187" /><path d="M 149.8 838.0 L 2887.1 561.6 L 2887.1 1010.3 L 149.8 1286.8 Z" fill="#FFFFFF" opacity="0.080" /><path d="M 256.7 1108.9 L 2914.5 832.4 L 2914.5 1289.6 L 256.7 1566.1 Z" fill="#FFFFFF" opacity="0.099" /><path d="M 168.1 1359.0 L 2687.1 1082.5 L 2687.1 1574.9 L 168.1 1851.4 Z" fill="#FFFFFF" opacity="0.081" /><path d="M 178.1 1636.7 L 2749.8 1360.2 L 2749.8 1845.5 L 178.1 2122.0 Z" fill="#FFFFFF" opacity="0.184" /><path d="M 391.0 1959.1 L 2723.2 1682.7 L 2723.2 2133.6 L 391.0 2410.1 Z" fill="#FFFFFF" opacity="0.145" /><path d="M 383.8 2218.3 L 2803.9 1941.8 L 2803.9 2437.4 L 383.8 2713.9 Z" fill="#FFFFFF" opacity="0.198" /><path d="M 256.2 2467.0 L 2819.3 2190.5 L 2819.3 2676.1 L 256.2 2952.6 Z" fill="#FFFFFF" opacity="0.084" /></g>
  <g filter="url(#soft242)"><g transform="rotate(-11.78 1536.0 1536.0)"><path d="M-368.6 533.4 C -225.8 597.5, -25.8 515.1, 107.5 573.6 C 250.4 564.5, 450.4 509.6, 583.7 534.1 C 726.5 533.9, 926.5 532.7, 1059.8 494.2 C 1202.7 479.0, 1402.7 551.0, 1536.0 478.1 C 1678.8 490.0, 1878.8 556.0, 2012.2 495.6 C 2155.0 491.4, 2355.0 553.8, 2488.3 536.0 C 2631.2 535.5, 2831.2 530.7, 2964.5 574.8 C 3107.3 579.9, 3307.3 515.3, 3440.6 588.6" fill="none" stroke="url(#ribbon242)" stroke-width="58.4" stroke-linecap="round" stroke-opacity="0.120" /></g><g transform="rotate(-11.20 1536.0 1536.0)"><path d="M-368.6 710.4 C -241.7 715.4, -63.9 708.5, 54.6 668.3 C 181.6 678.5, 359.4 741.6, 477.9 648.1 C 604.8 638.2, 782.6 776.6, 901.1 665.7 C 1028.1 678.9, 1205.9 743.9, 1324.4 710.4 C 1451.3 710.4, 1629.1 710.4, 1747.6 755.2 C 1874.6 762.0, 2052.4 688.8, 2170.9 772.8 C 2297.9 794.0, 2475.6 668.4, 2594.1 752.5 C 2721.1 762.8, 2898.9 667.5, 3017.4 706.8 C 3144.4 706.4, 3322.1 714.2, 3440.6 663.2" fill="none" stroke="url(#ribbon242)" stroke-width="54.4" stroke-linecap="round" stroke-opacity="0.146" /></g><g transform="rotate(-10.62 1536.0 1536.0)"><path d="M-368.6 888.5 C -254.4 962.7, -94.4 833.9, 12.3 955.4 C 126.6 943.2, 286.6 858.2, 393.2 922.0 C 507.5 913.6, 667.5 866.3, 774.1 868.2 C 888.4 861.6, 1048.4 907.5, 1155.1 826.7 C 1269.4 842.7, 1429.3 950.4, 1536.0 822.7 C 1650.3 831.9, 1810.3 931.0, 1916.9 858.6 C 2031.2 869.6, 2191.2 922.8, 2297.9 912.6 C 2412.1 904.4, 2572.1 859.6, 2678.8 952.0 C 2793.1 970.1, 2953.1 846.1, 3059.7 952.9 C 3174.0 970.3, 3334.0 859.9, 3440.6 914.7" fill="none" stroke="url(#ribbon242)" stroke-width="50.4" stroke-linecap="round" stroke-opacity="0.172" /></g><g transform="rotate(-10.04 1536.0 1536.0)"><path d="M-368.6 1068.5 C -264.8 1107.6, -119.3 1025.1, -22.3 1054.1 C 81.5 1048.8, 227.0 1080.7, 324.0 1004.6 C 427.8 1023.1, 573.3 1096.0, 670.3 993.8 C 774.1 989.0, 919.6 1156.3, 1016.6 1028.3 C 1120.4 1030.7, 1265.9 1083.1, 1362.9 1087.2 C 1466.7 1081.4, 1612.2 1060.1, 1709.1 1134.7 C 1813.0 1145.8, 1958.5 989.2, 2055.4 1142.1 C 2159.3 1148.3, 2304.8 983.7, 2401.7 1104.8 C 2505.6 1109.7, 2651.1 1052.1, 2748.0 1045.5 C 2851.9 1046.8, 2997.4 1085.1, 3094.3 1000.1 C 3198.2 1016.1, 3343.7 1120.0, 3440.6 996.2" fill="none" stroke="url(#ribbon242)" stroke-width="46.4" stroke-linecap="round" stroke-opacity="0.198" /></g><g transform="rotate(-9.46 1536.0 1536.0)"><path d="M-368.6 1245.1 C -273.4 1301.1, -140.1 1195.3, -51.2 1322.9 C 44.0 1311.3, 177.4 1218.0, 266.2 1277.3 C 361.5 1284.2, 494.8 1213.1, 583.7 1212.2 C 678.9 1210.7, 812.2 1258.5, 901.1 1167.1 C 996.4 1143.3, 1129.7 1279.5, 1218.6 1169.3 C 1313.8 1192.7, 1447.1 1311.0, 1536.0 1217.5 C 1631.2 1214.0, 1764.6 1265.5, 1853.4 1282.5 C 1948.7 1285.6, 2082.0 1222.1, 2170.9 1324.8 C 2266.1 1306.1, 2399.4 1152.7, 2488.3 1318.8 C 2583.6 1319.5, 2716.9 1176.9, 2805.8 1268.1 C 2901.0 1262.9, 3034.3 1234.0, 3123.2 1203.5 C 3218.4 1189.3, 3351.8 1287.3, 3440.6 1164.2" fill="none" stroke="url(#ribbon242)" stroke-width="42.4" stroke-linecap="round" stroke-opacity="0.224" /></g><g transform="rotate(-8.88 1536.0 1536.0)"><path d="M-368.6 1529.9 C -225.8 1536.8, -25.8 1524.6, 107.5 1468.9 C 250.4 1488.4, 450.4 1590.2, 583.7 1439.3 C 726.5 1457.9, 926.5 1584.9, 1059.8 1464.6 C 1202.7 1445.2, 1402.7 1596.5, 1536.0 1529.5 C 1678.8 1529.4, 1878.8 1530.2, 2012.2 1594.6 C 2155.0 1614.3, 2355.0 1469.6, 2488.3 1620.4 C 2631.2 1585.3, 2831.2 1487.0, 2964.5 1591.3 C 3107.3 1587.0, 3307.3 1483.3, 3440.6 1524.9" fill="none" stroke="url(#ribbon242)" stroke-width="38.4" stroke-linecap="round" stroke-opacity="0.250" /></g><g transform="rotate(-8.30 1536.0 1536.0)"><path d="M-368.6 1652.1 C -241.7 1756.1, -63.9 1575.9, 54.6 1748.5 C 181.6 1783.8, 359.4 1567.9, 477.9 1708.2 C 604.8 1696.2, 782.6 1631.3, 901.1 1633.8 C 1028.1 1633.3, 1205.9 1669.7, 1324.4 1570.5 C 1451.3 1568.4, 1629.1 1707.0, 1747.6 1556.7 C 1874.6 1565.3, 2052.4 1720.6, 2170.9 1600.7 C 2297.9 1582.3, 2475.6 1676.1, 2594.1 1675.9 C 2721.1 1668.5, 2898.9 1626.4, 3017.4 1736.7 C 3144.4 1742.1, 3322.1 1580.4, 3440.6 1746.1" fill="none" stroke="url(#ribbon242)" stroke-width="34.4" stroke-linecap="round" stroke-opacity="0.276" /></g><g transform="rotate(-7.72 1536.0 1536.0)"><path d="M-368.6 1861.1 C -254.4 1815.4, -94.4 1880.8, 12.3 1893.4 C 126.6 1888.9, 286.6 1849.4, 393.2 1955.1 C 507.5 1932.8, 667.5 1805.9, 774.1 1959.8 C 888.4 1974.3, 1048.4 1811.4, 1155.1 1904.7 C 1269.4 1903.0, 1429.3 1839.7, 1536.0 1823.1 C 1650.3 1817.9, 1810.3 1897.6, 1916.9 1764.6 C 2031.2 1802.9, 2191.2 1922.7, 2297.9 1764.7 C 2412.1 1757.6, 2572.1 1946.0, 2678.8 1823.2 C 2793.1 1811.1, 2953.1 1888.2, 3059.7 1904.8 C 3174.0 1911.0, 3334.0 1842.2, 3440.6 1959.8" fill="none" stroke="url(#ribbon242)" stroke-width="30.4" stroke-linecap="round" stroke-opacity="0.302" /></g><g transform="rotate(-7.14 1536.0 1536.0)"><path d="M-368.6 2068.6 C -264.8 2174.1, -119.3 2021.3, -22.3 2141.4 C 81.5 2167.9, 227.0 2044.5, 324.0 2058.4 C 427.8 2056.9, 573.3 2073.6, 670.3 1981.6 C 774.1 1960.5, 919.6 2171.6, 1016.6 1957.6 C 1120.4 2000.3, 1265.9 2158.6, 1362.9 2000.9 C 1466.7 1981.9, 1612.2 2148.7, 1709.1 2085.3 C 1813.0 2083.6, 1958.5 2053.8, 2055.4 2159.6 C 2159.3 2185.1, 2304.8 2039.5, 2401.7 2178.6 C 2505.6 2210.1, 2651.1 1989.9, 2748.0 2131.0 C 2851.9 2147.3, 2997.4 1997.5, 3094.3 2045.5 C 3198.2 2051.6, 3343.7 2093.3, 3440.6 1974.0" fill="none" stroke="url(#ribbon242)" stroke-width="26.4" stroke-linecap="round" stroke-opacity="0.328" /></g><g transform="rotate(-6.56 1536.0 1536.0)"><path d="M-368.6 2280.6 C -273.4 2356.7, -140.1 2217.1, -51.2 2312.5 C 44.0 2310.6, 177.4 2245.3, 266.2 2220.7 C 361.5 2226.1, 494.8 2307.8, 583.7 2165.2 C 678.9 2121.7, 812.2 2355.8, 901.1 2179.7 C 996.4 2163.4, 1129.7 2367.4, 1218.6 2255.4 C 1313.8 2263.8, 1447.1 2289.9, 1536.0 2346.4 C 1631.2 2333.3, 1764.6 2207.4, 1853.4 2397.4 C 1948.7 2397.7, 2082.0 2208.4, 2170.9 2377.6 C 2266.1 2373.4, 2399.4 2246.0, 2488.3 2299.0 C 2583.6 2292.6, 2716.9 2261.3, 2805.8 2209.1 C 2901.0 2198.2, 3034.3 2350.0, 3123.2 2162.6 C 3218.4 2208.4, 3351.8 2338.9, 3440.6 2187.7" fill="none" stroke="url(#ribbon242)" stroke-width="22.4" stroke-linecap="round" stroke-opacity="0.354" /></g><g transform="rotate(-5.98 1536.0 1536.0)"><path d="M-368.6 2399.8 C -225.8 2257.0, -25.8 2503.2, 107.5 2329.6 C 250.4 2303.9, 450.4 2474.7, 583.7 2425.9 C 726.5 2417.0, 926.5 2390.0, 1059.8 2506.4 C 1202.7 2466.1, 1402.7 2287.9, 1536.0 2522.2 C 1678.8 2556.6, 1878.8 2260.8, 2012.2 2463.7 C 2155.0 2441.4, 2355.0 2354.9, 2488.3 2366.5 C 2631.2 2353.9, 2831.2 2423.9, 2964.5 2289.5 C 3107.3 2329.6, 3307.3 2469.8, 3440.6 2279.3" fill="none" stroke="url(#ribbon242)" stroke-width="18.4" stroke-linecap="round" stroke-opacity="0.380" /></g><g transform="rotate(-5.40 1536.0 1536.0)"><path d="M-368.6 2699.7 C -241.7 2642.1, -63.9 2810.9, 54.6 2566.7 C 181.6 2514.7, 359.4 2823.9, 477.9 2607.6 C 604.8 2599.4, 782.6 2754.7, 901.1 2704.4 C 1028.1 2705.4, 1205.9 2694.7, 1324.4 2798.3 C 1451.3 2830.4, 1629.1 2587.4, 1747.6 2832.4 C 1874.6 2881.4, 2052.4 2620.9, 2170.9 2786.0 C 2297.9 2813.7, 2475.6 2619.3, 2594.1 2687.3 C 2721.1 2687.0, 2898.9 2707.7, 3017.4 2596.0 C 3144.4 2578.1, 3322.1 2822.5, 3440.6 2567.7" fill="none" stroke="url(#ribbon242)" stroke-width="14.4" stroke-linecap="round" stroke-opacity="0.406" /></g></g>
  <g><ellipse cx="1536.0" cy="1551.9" rx="728.6" ry="605.7" fill="url(#extrude242)" opacity="0.220" /><ellipse cx="1536.0" cy="1567.7" rx="736.0" ry="610.9" fill="url(#extrude242)" opacity="0.205" /><ellipse cx="1536.0" cy="1583.6" rx="743.4" ry="616.1" fill="url(#extrude242)" opacity="0.190" /><ellipse cx="1536.0" cy="1599.5" rx="750.9" ry="621.3" fill="url(#extrude242)" opacity="0.175" /><ellipse cx="1536.0" cy="1615.4" rx="758.3" ry="626.5" fill="url(#extrude242)" opacity="0.160" /><ellipse cx="1536.0" cy="1631.2" rx="765.7" ry="631.7" fill="url(#extrude242)" opacity="0.145" /><ellipse cx="1536.0" cy="1647.1" rx="773.2" ry="636.9" fill="url(#extrude242)" opacity="0.130" /><ellipse cx="1536.0" cy="1663.0" rx="780.6" ry="642.1" fill="url(#extrude242)" opacity="0.115" /><ellipse cx="1536.0" cy="1678.8" rx="788.0" ry="647.4" fill="url(#extrude242)" opacity="0.100" /><ellipse cx="1536.0" cy="1694.7" rx="795.5" ry="652.6" fill="url(#extrude242)" opacity="0.085" /><ellipse cx="1536.0" cy="1710.6" rx="802.9" ry="657.8" fill="url(#extrude242)" opacity="0.070" /><ellipse cx="1536.0" cy="1726.5" rx="810.3" ry="663.0" fill="url(#extrude242)" opacity="0.055" /></g>
  <ellipse cx="1536.0" cy="1726.5" rx="773.2" ry="214.9" fill="#0B1D2D" opacity="0.24" />
  <ellipse cx="1536.0" cy="1536.0" rx="743.4" ry="651.3" fill="url(#orb242)" stroke="#FFFFFF" stroke-opacity="0.42" stroke-width="7" />
  <ellipse cx="1431.9" cy="1392.7" rx="505.5" ry="299.6" fill="#FFFFFF" opacity="0.25" />
  <path d="M 199.4 399.4 C 1013.8 -30.7, 2058.2 768.0, 2872.6 215.0 L 2872.6 983.0 C 2089.0 1228.8, 1013.8 307.2, 199.4 1167.4 Z" fill="url(#glass242)" />
  <rect x="270" y="270" width="2532" height="2532" rx="430" fill="none" stroke="#FFFFFF" stroke-opacity="0.30" stroke-width="5" />
  <rect x="288.4" y="288.4" width="2495.1" height="2495.1" rx="399" fill="none" stroke="#FF9F43" stroke-opacity="0.35" stroke-width="3" />
  <g filter="url(#soft242)"><rect x="722" y="1820" width="40" height="2" fill="#FFFFFF" opacity="0.500" /><rect x="741" y="1801" width="2" height="40" fill="#FFFFFF" opacity="0.500" /><rect x="448" y="2482" width="28" height="2" fill="#FFFFFF" opacity="0.302" /><rect x="461" y="2469" width="2" height="28" fill="#FFFFFF" opacity="0.302" /><rect x="1651" y="723" width="56" height="2" fill="#FFFFFF" opacity="0.563" /><rect x="1678" y="696" width="2" height="56" fill="#FFFFFF" opacity="0.563" /><rect x="1007" y="867" width="64" height="2" fill="#FFFFFF" opacity="0.528" /><rect x="1038" y="836" width="2" height="64" fill="#FFFFFF" opacity="0.528" /><rect x="670" y="1591" width="34" height="2" fill="#FFFFFF" opacity="0.541" /><rect x="686" y="1575" width="2" height="34" fill="#FFFFFF" opacity="0.541" /><rect x="1552" y="2748" width="60" height="2" fill="#FFFFFF" opacity="0.401" /><rect x="1581" y="2719" width="2" height="60" fill="#FFFFFF" opacity="0.401" /><rect x="379" y="2240" width="46" height="2" fill="#FFFFFF" opacity="0.516" /><rect x="401" y="2218" width="2" height="46" fill="#FFFFFF" opacity="0.516" /><rect x="608" y="2183" width="58" height="2" fill="#FFFFFF" opacity="0.506" /><rect x="636" y="2155" width="2" height="58" fill="#FFFFFF" opacity="0.506" /><rect x="1182" y="1415" width="60" height="2" fill="#FFFFFF" opacity="0.476" /><rect x="1211" y="1386" width="2" height="60" fill="#FFFFFF" opacity="0.476" /><rect x="2178" y="2410" width="66" height="2" fill="#FFFFFF" opacity="0.444" /><rect x="2210" y="2378" width="2" height="66" fill="#FFFFFF" opacity="0.444" /><rect x="2360" y="843" width="46" height="2" fill="#FFFFFF" opacity="0.671" /><rect x="2382" y="821" width="2" height="46" fill="#FFFFFF" opacity="0.671" /><rect x="1527" y="2230" width="38" height="2" fill="#FFFFFF" opacity="0.300" /><rect x="1545" y="2212" width="2" height="38" fill="#FFFFFF" opacity="0.300" /><rect x="1430" y="2403" width="56" height="2" fill="#FFFFFF" opacity="0.626" /><rect x="1457" y="2376" width="2" height="56" fill="#FFFFFF" opacity="0.626" /><rect x="1891" y="2704" width="42" height="2" fill="#FFFFFF" opacity="0.777" /><rect x="1911" y="2684" width="2" height="42" fill="#FFFFFF" opacity="0.777" /><rect x="1960" y="418" width="58" height="2" fill="#FFFFFF" opacity="0.661" /><rect x="1988" y="390" width="2" height="58" fill="#FFFFFF" opacity="0.661" /><rect x="1943" y="1414" width="30" height="2" fill="#FFFFFF" opacity="0.329" /><rect x="1957" y="1400" width="2" height="30" fill="#FFFFFF" opacity="0.329" /><rect x="1891" y="1810" width="56" height="2" fill="#FFFFFF" opacity="0.425" /><rect x="1918" y="1783" width="2" height="56" fill="#FFFFFF" opacity="0.425" /><rect x="1465" y="1991" width="34" height="2" fill="#FFFFFF" opacity="0.315" /><rect x="1481" y="1975" width="2" height="34" fill="#FFFFFF" opacity="0.315" /><rect x="356" y="1075" width="26" height="2" fill="#FFFFFF" opacity="0.485" /><rect x="368" y="1063" width="2" height="26" fill="#FFFFFF" opacity="0.485" /><rect x="411" y="1132" width="44" height="2" fill="#FFFFFF" opacity="0.558" /><rect x="432" y="1111" width="2" height="44" fill="#FFFFFF" opacity="0.558" /><rect x="2673" y="751" width="66" height="2" fill="#FFFFFF" opacity="0.376" /><rect x="2705" y="719" width="2" height="66" fill="#FFFFFF" opacity="0.376" /><rect x="1191" y="960" width="54" height="2" fill="#FFFFFF" opacity="0.705" /><rect x="1217" y="934" width="2" height="54" fill="#FFFFFF" opacity="0.705" /><rect x="1167" y="1824" width="68" height="2" fill="#FFFFFF" opacity="0.815" /><rect x="1200" y="1791" width="2" height="68" fill="#FFFFFF" opacity="0.815" /><rect x="1696" y="1402" width="48" height="2" fill="#FFFFFF" opacity="0.812" /><rect x="1719" y="1379" width="2" height="48" fill="#FFFFFF" opacity="0.812" /><rect x="1798" y="1839" width="38" height="2" fill="#FFFFFF" opacity="0.714" /><rect x="1816" y="1821" width="2" height="38" fill="#FFFFFF" opacity="0.714" /><rect x="1666" y="262" width="72" height="2" fill="#FFFFFF" opacity="0.578" /><rect x="1701" y="227" width="2" height="72" fill="#FFFFFF" opacity="0.578" /></g>
  <g opacity="0.52"><path d="M996 1582 L1316 2131 L2148 1121" fill="none" stroke="#0C2030" stroke-width="90" stroke-linecap="round" stroke-linejoin="round" /><circle cx="996" cy="1582" r="47" fill="#0C2030" /><circle cx="1316" cy="2131" r="47" fill="#0C2030" /><circle cx="2148" cy="1121" r="47" fill="#0C2030" /></g>
  <g filter="url(#soft242)"><path d="M960 1536 L1280 2085 L2112 1075" fill="none" stroke="url(#symbol242)" stroke-width="90" stroke-linecap="round" stroke-linejoin="round" /><circle cx="960" cy="1536" r="47" fill="url(#symbol242)" /><circle cx="1280" cy="2085" r="47" fill="url(#symbol242)" /><circle cx="2112" cy="1075" r="47" fill="url(#symbol242)" /></g>
  <rect x="138" y="138" width="2796" height="2796" rx="629" fill="#FFFFFF" filter="url(#grain242)" opacity="0.18" />
</svg>
