<svg xmlns="http://www.w3.org/2000/svg" width="3072" height="3072" viewBox="0 0 3072 3072">
  <title>QuartzOS App Icon 203 - quartz_notes_203</title>
  <defs><linearGradient id="bg202" x1="0%" y1="0%" x2="100%" y2="100%"><stop offset="0%" stop-color="#53E3A6" /><stop offset="26%" stop-color="#3B82FF" /><stop offset="56%" stop-color="#FF6AB3" /><stop offset="78%" stop-color="#58A3D8" /><stop offset="100%" stop-color="#1D2F45" /></linearGradient><radialGradient id="sun202" cx="28%" cy="27%" r="88%"><stop offset="0%" stop-color="#FFFFFF" stop-opacity="0.62" /><stop offset="30%" stop-color="#FF9F43" stop-opacity="0.35" /><stop offset="100%" stop-color="#FF9F43" stop-opacity="0" /></radialGradient><linearGradient id="glass202" x1="0%" y1="0%" x2="0%" y2="100%"><stop offset="0%" stop-color="#FFFFFF" stop-opacity="0.70" /><stop offset="46%" stop-color="#FFFFFF" stop-opacity="0.26" /><stop offset="100%" stop-color="#FFFFFF" stop-opacity="0.00" /></linearGradient><linearGradient id="ribbon202" x1="0%" y1="0%" x2="100%" y2="0%"><stop offset="0%" stop-color="#53E3A6" stop-opacity="0.18" /><stop offset="34%" stop-color="#3B82FF" stop-opacity="0.72" /><stop offset="66%" stop-color="#FF6AB3" stop-opacity="0.72" /><stop offset="100%" stop-color="#FF9F43" stop-opacity="0.18" /></linearGradient><radialGradient id="orb202" cx="34%" cy="27%" r="74%"><stop offset="0%" stop-color="#FFFFFF" stop-opacity="0.84" /><stop offset="30%" stop-color="#53E3A6" stop-opacity="0.52" /><stop offset="68%" stop-color="#3B82FF" stop-opacity="0.42" /><stop offset="100%" stop-color="#FF6AB3" stop-opacity="0.20" /></radialGradient><linearGradient id="extrude202" x1="0%" y1="0%" x2="0%" y2="100%"><stop offset="0%" stop-color="#15283C" stop-opacity="0.45" /><stop offset="100%" stop-color="#08131D" stop-opacity="0.06" /></linearGradient><linearGradient id="symbol202" x1="0%" y1="0%" x2="100%" y2="100%"><stop offset="0%" stop-color="#FFFFFF" /><stop offset="100%" stop-color="#FF9F43" /></linearGradient><filter id="shadow202" x="-40%" y="-40%" width="180%" height="180%"><feDropShadow dx="0" dy="49" stdDeviation="86" flood-color="#06111A" flood-opacity="0.54" /></filter><filter id="soft202" x="-40%" y="-40%" width="180%" height="180%"><feDropShadow dx="0" dy="0" stdDeviation="14" flood-color="#53E3A6" flood-opacity="0.45" /></filter><filter id="grain202"><feTurbulence type="fractalNoise" baseFrequency="0.767" numOctaves="2" seed="202" /><feColorMatrix type="saturate" values="0" /><feComponentTransfer><feFuncA type="table" tableValues="0 0.09" /></feComponentTransfer></filter></defs>
  <rect x="138" y="138" width="2796" height="2796" rx="629" fill="url(#bg202)" filter="url(#shadow202)" />
  <rect x="138" y="138" width="2796" height="2796" rx="629" fill="url(#sun202)" />
  <g><circle cx="2204" cy="742" r="128" fill="#FFFFFF" opacity="0.135" /><circle cx="711" cy="948" r="124" fill="#FFFFFF" opacity="0.117" /><circle cx="939" cy="665" r="81" fill="#FFFFFF" opacity="0.230" /><circle cx="2499" cy="891" r="150" fill="#FFFFFF" opacity="0.231" /><circle cx="2550" cy="840" r="88" fill="#FFFFFF" opacity="0.199" /><circle cx="2216" cy="394" r="85" fill="#FFFFFF" opacity="0.067" /><circle cx="1826" cy="1019" r="146" fill="#FFFFFF" opacity="0.084" /><circle cx="2263" cy="531" r="97" fill="#FFFFFF" opacity="0.108" /><circle cx="2215" cy="1668" r="140" fill="#FFFFFF" opacity="0.135" /><circle cx="440" cy="2317" r="39" fill="#FFFFFF" opacity="0.213" /><circle cx="1014" cy="511" r="120" fill="#FFFFFF" opacity="0.104" /><circle cx="1478" cy="2427" r="148" fill="#FFFFFF" opacity="0.152" /><circle cx="393" cy="602" r="154" fill="#FFFFFF" opacity="0.216" /><circle cx="701" cy="445" r="111" fill="#FFFFFF" opacity="0.200" /><circle cx="2219" cy="1175" r="122" fill="#FFFFFF" opacity="0.209" /><circle cx="519" cy="867" r="154" fill="#FFFFFF" opacity="0.164" /><circle cx="692" cy="2423" r="82" fill="#FFFFFF" opacity="0.061" /><circle cx="1386" cy="2687" r="114" fill="#FFFFFF" opacity="0.088" /><circle cx="807" cy="2639" r="80" fill="#FFFFFF" opacity="0.227" /><circle cx="2244" cy="499" r="58" fill="#FFFFFF" opacity="0.115" /><circle cx="1945" cy="2095" r="154" fill="#FFFFFF" opacity="0.129" /><circle cx="1107" cy="1934" r="107" fill="#FFFFFF" opacity="0.225" /><circle cx="2618" cy="1681" r="48" fill="#FFFFFF" opacity="0.133" /><circle cx="468" cy="1511" r="84" fill="#FFFFFF" opacity="0.207" /><circle cx="690" cy="1091" r="84" fill="#FFFFFF" opacity="0.151" /><circle cx="1175" cy="1964" r="96" fill="#FFFFFF" opacity="0.229" /><circle cx="758" cy="1360" r="153" fill="#FFFFFF" opacity="0.106" /><circle cx="1118" cy="1574" r="69" fill="#FFFFFF" opacity="0.206" /></g>
  <g><path d="M 336.1 579.5 L 2846.2 303.0 L 2846.2 735.0 L 336.1 1011.5 Z" fill="#FFFFFF" opacity="0.129" /><path d="M 279.9 918.2 L 2760.3 641.8 L 2760.3 1096.1 L 279.9 1372.6 Z" fill="#FFFFFF" opacity="0.125" /><path d="M 373.5 1100.2 L 2784.5 823.7 L 2784.5 1317.4 L 373.5 1593.8 Z" fill="#FFFFFF" opacity="0.222" /><path d="M 236.4 1433.0 L 2815.5 1156.5 L 2815.5 1639.3 L 236.4 1915.8 Z" fill="#FFFFFF" opacity="0.208" /><path d="M 293.9 1636.5 L 2834.2 1360.0 L 2834.2 1837.5 L 293.9 2114.0 Z" fill="#FFFFFF" opacity="0.107" /><path d="M 257.6 1879.8 L 2823.2 1603.3 L 2823.2 2058.5 L 257.6 2335.0 Z" fill="#FFFFFF" opacity="0.101" /><path d="M 352.4 2165.6 L 2876.9 1889.1 L 2876.9 2332.6 L 352.4 2609.1 Z" fill="#FFFFFF" opacity="0.119" /><path d="M 297.4 2458.5 L 2845.2 2182.0 L 2845.2 2671.2 L 297.4 2947.6 Z" fill="#FFFFFF" opacity="0.195" /></g>
  <g filter="url(#soft202)"><g transform="rotate(-16.79 1536.0 1536.0)"><path d="M-368.6 559.0 C -225.8 604.6, -25.8 508.1, 107.5 613.4 C 250.4 627.7, 450.4 533.3, 583.7 589.6 C 726.5 601.7, 926.5 531.8, 1059.8 547.3 C 1202.7 545.6, 1402.7 567.7, 1536.0 512.1 C 1678.8 517.7, 1878.8 580.8, 2012.2 505.3 C 2155.0 523.5, 2355.0 589.0, 2488.3 531.2 C 2631.2 521.2, 2831.2 590.0, 2964.5 573.9 C 3107.3 572.4, 3307.3 551.6, 3440.6 607.6" fill="none" stroke="url(#ribbon202)" stroke-width="58.4" stroke-linecap="round" stroke-opacity="0.120" /></g><g transform="rotate(-16.21 1536.0 1536.0)"><path d="M-368.6 695.6 C -241.7 612.9, -63.9 723.0, 54.6 640.2 C 181.6 639.5, 359.4 734.5, 477.9 677.6 C 604.8 670.7, 782.6 712.0, 901.1 725.9 C 1028.1 735.3, 1205.9 679.4, 1324.4 755.8 C 1451.3 745.4, 1629.1 668.9, 1747.6 749.1 C 1874.6 754.1, 2052.4 654.2, 2170.9 710.0 C 2297.9 708.6, 2475.6 690.7, 2594.1 662.1 C 2721.1 665.0, 2898.9 712.5, 3017.4 634.5 C 3144.4 629.7, 3322.1 750.8, 3440.6 644.0" fill="none" stroke="url(#ribbon202)" stroke-width="54.4" stroke-linecap="round" stroke-opacity="0.146" /></g><g transform="rotate(-15.63 1536.0 1536.0)"><path d="M-368.6 934.6 C -254.4 971.5, -94.4 914.8, 12.3 1004.0 C 126.6 987.8, 286.6 872.8, 393.2 984.7 C 507.5 972.7, 667.5 883.6, 774.1 935.1 C 888.4 935.1, 1048.4 934.2, 1155.1 885.1 C 1269.4 870.4, 1429.3 949.7, 1536.0 865.2 C 1650.3 892.5, 1810.3 985.7, 1916.9 887.4 C 2031.2 890.2, 2191.2 959.8, 2297.9 938.3 C 2412.1 937.7, 2572.1 933.4, 2678.8 986.9 C 2793.1 999.6, 2953.1 876.0, 3059.7 1003.8 C 3174.0 997.9, 3334.0 864.9, 3440.6 978.8" fill="none" stroke="url(#ribbon202)" stroke-width="50.4" stroke-linecap="round" stroke-opacity="0.172" /></g><g transform="rotate(-15.05 1536.0 1536.0)"><path d="M-368.6 1159.4 C -264.8 1161.0, -119.3 1158.0, -22.3 1215.5 C 81.5 1203.7, 227.0 1092.9, 324.0 1235.8 C 427.8 1257.0, 573.3 1130.9, 670.3 1209.8 C 774.1 1226.5, 919.6 1129.0, 1016.6 1153.2 C 1120.4 1151.2, 1265.9 1162.0, 1362.9 1100.4 C 1466.7 1111.1, 1612.2 1196.6, 1709.1 1083.4 C 1813.0 1053.2, 1958.5 1231.4, 2055.4 1112.5 C 2159.3 1103.5, 2304.8 1200.9, 2401.7 1170.1 C 2505.6 1166.8, 2651.1 1153.3, 2748.0 1221.2 C 2851.9 1244.9, 2997.4 1087.4, 3094.3 1234.8 C 3198.2 1215.9, 3343.7 1115.6, 3440.6 1202.7" fill="none" stroke="url(#ribbon202)" stroke-width="46.4" stroke-linecap="round" stroke-opacity="0.198" /></g><g transform="rotate(-14.47 1536.0 1536.0)"><path d="M-368.6 1350.4 C -273.4 1307.3, -140.1 1422.0, -51.2 1268.1 C 44.0 1283.8, 177.4 1429.2, 266.2 1303.7 C 361.5 1309.0, 494.8 1374.6, 583.7 1367.6 C 678.9 1368.7, 812.2 1341.5, 901.1 1421.0 C 996.4 1404.3, 1129.7 1273.8, 1218.6 1431.6 C 1313.8 1434.0, 1447.1 1285.0, 1536.0 1392.9 C 1631.2 1384.5, 1764.6 1328.9, 1853.4 1328.4 C 1948.7 1325.9, 2082.0 1373.8, 2170.9 1277.2 C 2266.1 1261.3, 2399.4 1392.6, 2488.3 1270.4 C 2583.6 1287.4, 2716.9 1422.7, 2805.8 1312.1 C 2901.0 1299.3, 3034.3 1393.9, 3123.2 1377.0 C 3218.4 1370.1, 3351.8 1331.2, 3440.6 1425.7" fill="none" stroke="url(#ribbon202)" stroke-width="42.4" stroke-linecap="round" stroke-opacity="0.224" /></g><g transform="rotate(-13.89 1536.0 1536.0)"><path d="M-368.6 1547.7 C -225.8 1608.5, -25.8 1470.4, 107.5 1618.5 C 250.4 1620.0, 450.4 1482.8, 583.7 1556.5 C 726.5 1554.7, 926.5 1544.4, 1059.8 1489.1 C 1202.7 1475.0, 1402.7 1584.0, 1536.0 1457.2 C 1678.8 1471.5, 1878.8 1643.3, 2012.2 1480.2 C 2155.0 1479.0, 2355.0 1580.1, 2488.3 1544.1 C 2631.2 1543.4, 2831.2 1551.3, 2964.5 1610.1 C 3107.3 1590.2, 3307.3 1496.1, 3440.6 1638.3" fill="none" stroke="url(#ribbon202)" stroke-width="38.4" stroke-linecap="round" stroke-opacity="0.250" /></g><g transform="rotate(-13.31 1536.0 1536.0)"><path d="M-368.6 1671.2 C -241.7 1608.2, -63.9 1737.5, 54.6 1605.7 C 181.6 1587.4, 359.4 1720.8, 477.9 1677.6 C 604.8 1679.5, 782.6 1665.9, 901.1 1745.6 C 1028.1 1718.6, 1205.9 1618.7, 1324.4 1768.4 C 1451.3 1787.8, 1629.1 1609.4, 1747.6 1732.3 C 1874.6 1741.2, 2052.4 1651.4, 2170.9 1659.1 C 2297.9 1654.6, 2475.6 1679.5, 2594.1 1593.2 C 2721.1 1589.1, 2898.9 1758.6, 3017.4 1574.6 C 3144.4 1554.0, 3322.1 1710.2, 3440.6 1614.6" fill="none" stroke="url(#ribbon202)" stroke-width="34.4" stroke-linecap="round" stroke-opacity="0.276" /></g><g transform="rotate(-12.73 1536.0 1536.0)"><path d="M-368.6 1847.8 C -254.4 1813.7, -94.4 1882.1, 12.3 1875.5 C 126.6 1871.5, 286.6 1818.9, 393.2 1939.6 C 507.5 1918.0, 667.5 1759.0, 774.1 1948.0 C 888.4 1960.6, 1048.4 1745.9, 1155.1 1895.7 C 1269.4 1911.5, 1429.3 1806.8, 1536.0 1814.3 C 1650.3 1803.7, 1810.3 1886.2, 1916.9 1753.3 C 2031.2 1731.9, 2191.2 1913.8, 2297.9 1749.6 C 2412.1 1725.8, 2572.1 1898.7, 2678.8 1805.5 C 2793.1 1820.5, 2953.1 1864.0, 3059.7 1887.0 C 3174.0 1873.9, 3334.0 1801.3, 3440.6 1944.8" fill="none" stroke="url(#ribbon202)" stroke-width="30.4" stroke-linecap="round" stroke-opacity="0.302" /></g><g transform="rotate(-12.15 1536.0 1536.0)"><path d="M-368.6 2113.7 C -264.8 2054.3, -119.3 2155.7, -22.3 2002.1 C 81.5 1992.4, 227.0 2191.5, 324.0 2041.0 C 427.8 2030.1, 573.3 2145.4, 670.3 2124.1 C 774.1 2125.9, 919.6 2109.2, 1016.6 2200.8 C 1120.4 2173.8, 1265.9 2074.9, 1362.9 2224.6 C 1466.7 2230.3, 1612.2 1983.6, 1709.1 2181.2 C 1813.0 2163.4, 1958.5 2083.2, 2055.4 2096.8 C 2159.3 2099.4, 2304.8 2125.8, 2401.7 2022.6 C 2505.6 2031.2, 2651.1 2177.4, 2748.0 2003.7 C 2851.9 2019.8, 2997.4 2212.0, 3094.3 2051.5 C 3198.2 2073.8, 3343.7 2181.6, 3440.6 2137.0" fill="none" stroke="url(#ribbon202)" stroke-width="26.4" stroke-linecap="round" stroke-opacity="0.328" /></g><g transform="rotate(-11.57 1536.0 1536.0)"><path d="M-368.6 2207.0 C -273.4 2286.7, -140.1 2156.7, -51.2 2321.8 C 44.0 2323.5, 177.4 2142.2, 266.2 2309.1 C 361.5 2281.5, 494.8 2135.7, 583.7 2234.5 C 678.9 2227.0, 812.2 2178.4, 901.1 2143.2 C 996.4 2161.1, 1129.7 2233.6, 1218.6 2090.6 C 1313.8 2114.9, 1447.1 2303.5, 1536.0 2108.5 C 1631.2 2091.7, 1764.6 2240.7, 1853.4 2186.2 C 1948.7 2189.7, 2082.0 2219.0, 2170.9 2276.5 C 2266.1 2255.3, 2399.4 2156.8, 2488.3 2324.6 C 2583.6 2319.8, 2716.9 2126.3, 2805.8 2301.3 C 2901.0 2275.0, 3034.3 2159.1, 3123.2 2220.8 C 3218.4 2218.5, 3351.8 2196.7, 3440.6 2131.9" fill="none" stroke="url(#ribbon202)" stroke-width="22.4" stroke-linecap="round" stroke-opacity="0.354" /></g><g transform="rotate(-10.99 1536.0 1536.0)"><path d="M-368.6 2467.4 C -225.8 2572.2, -25.8 2430.8, 107.5 2593.2 C 250.4 2627.7, 450.4 2347.4, 583.7 2558.8 C 726.5 2558.6, 926.5 2428.2, 1059.8 2468.9 C 1202.7 2468.3, 1402.7 2465.7, 1536.0 2378.1 C 1678.8 2358.1, 1878.8 2564.7, 2012.2 2341.4 C 2155.0 2334.1, 2355.0 2606.2, 2488.3 2381.2 C 2631.2 2402.7, 2831.2 2536.3, 2964.5 2473.2 C 3107.3 2475.4, 3307.3 2460.8, 3440.6 2561.7" fill="none" stroke="url(#ribbon202)" stroke-width="18.4" stroke-linecap="round" stroke-opacity="0.380" /></g><g transform="rotate(-10.41 1536.0 1536.0)"><path d="M-368.6 2592.3 C -241.7 2532.6, -63.9 2635.6, 54.6 2649.1 C 181.6 2646.1, 359.4 2565.4, 477.9 2718.2 C 604.8 2749.2, 782.6 2540.8, 901.1 2710.8 C 1028.1 2676.7, 1205.9 2519.7, 1324.4 2631.6 C 1451.3 2616.4, 1629.1 2570.8, 1747.6 2528.5 C 1874.6 2542.4, 2052.4 2636.8, 2170.9 2464.1 C 2297.9 2449.9, 2475.6 2668.0, 2594.1 2477.5 C 2721.1 2457.0, 2898.9 2657.7, 3017.4 2560.5 C 3144.4 2568.1, 3322.1 2602.5, 3440.6 2662.8" fill="none" stroke="url(#ribbon202)" stroke-width="14.4" stroke-linecap="round" stroke-opacity="0.406" /></g></g>
  <g><ellipse cx="1536.0" cy="1551.9" rx="728.6" ry="605.7" fill="url(#extrude202)" opacity="0.220" /><ellipse cx="1536.0" cy="1567.7" rx="736.0" ry="610.9" fill="url(#extrude202)" opacity="0.205" /><ellipse cx="1536.0" cy="1583.6" rx="743.4" ry="616.1" fill="url(#extrude202)" opacity="0.190" /><ellipse cx="1536.0" cy="1599.5" rx="750.9" ry="621.3" fill="url(#extrude202)" opacity="0.175" /><ellipse cx="1536.0" cy="1615.4" rx="758.3" ry="626.5" fill="url(#extrude202)" opacity="0.160" /><ellipse cx="1536.0" cy="1631.2" rx="765.7" ry="631.7" fill="url(#extrude202)" opacity="0.145" /><ellipse cx="1536.0" cy="1647.1" rx="773.2" ry="636.9" fill="url(#extrude202)" opacity="0.130" /><ellipse cx="1536.0" cy="1663.0" rx="780.6" ry="642.1" fill="url(#extrude202)" opacity="0.115" /><ellipse cx="1536.0" cy="1678.8" rx="788.0" ry="647.4" fill="url(#extrude202)" opacity="0.100" /><ellipse cx="1536.0" cy="1694.7" rx="795.5" ry="652.6" fill="url(#extrude202)" opacity="0.085" /><ellipse cx="1536.0" cy="1710.6" rx="802.9" ry="657.8" fill="url(#extrude202)" opacity="0.070" /><ellipse cx="1536.0" cy="1726.5" rx="810.3" ry="663.0" fill="url(#extrude202)" opacity="0.055" /></g>
  <ellipse cx="1536.0" cy="1726.5" rx="773.2" ry="214.9" fill="#0B1D2D" opacity="0.24" />
  <ellipse cx="1536.0" cy="1536.0" rx="743.4" ry="651.3" fill="url(#orb202)" stroke="#FFFFFF" stroke-opacity="0.42" stroke-width="7" />
  <ellipse cx="1431.9" cy="1392.7" rx="505.5" ry="299.6" fill="#FFFFFF" opacity="0.25" />
  <path d="M 199.4 399.4 C 1013.8 -30.7, 2058.2 768.0, 2872.6 215.0 L 2872.6 983.0 C 2089.0 1228.8, 1013.8 307.2, 199.4 1167.4 Z" fill="url(#glass202)" />
  <rect x="270" y="270" width="2532" height="2532" rx="430" fill="none" stroke="#FFFFFF" stroke-opacity="0.30" stroke-width="5" />
  <rect x="288.4" y="288.4" width="2495.1" height="2495.1" rx="399" fill="none" stroke="#53E3A6" stroke-opacity="0.35" stroke-width="3" />
  <g filter="url(#soft202)"><rect x="2611" y="1382" width="78" height="2" fill="#FFFFFF" opacity="0.790" /><rect x="2649" y="1344" width="2" height="78" fill="#FFFFFF" opacity="0.790" /><rect x="2023" y="2286" width="26" height="2" fill="#FFFFFF" opacity="0.458" /><rect x="2035" y="2274" width="2" height="26" fill="#FFFFFF" opacity="0.458" /><rect x="345" y="2716" width="62" height="2" fill="#FFFFFF" opacity="0.810" /><rect x="375" y="2686" width="2" height="62" fill="#FFFFFF" opacity="0.810" /><rect x="2674" y="1128" width="38" height="2" fill="#FFFFFF" opacity="0.626" /><rect x="2692" y="1110" width="2" height="38" fill="#FFFFFF" opacity="0.626" /><rect x="787" y="1145" width="80" height="2" fill="#FFFFFF" opacity="0.328" /><rect x="826" y="1106" width="2" height="80" fill="#FFFFFF" opacity="0.328" /><rect x="1275" y="1682" width="84" height="2" fill="#FFFFFF" opacity="0.548" /><rect x="1316" y="1641" width="2" height="84" fill="#FFFFFF" opacity="0.548" /><rect x="2130" y="1434" width="64" height="2" fill="#FFFFFF" opacity="0.695" /><rect x="2161" y="1403" width="2" height="64" fill="#FFFFFF" opacity="0.695" /><rect x="829" y="462" width="24" height="2" fill="#FFFFFF" opacity="0.688" /><rect x="840" y="451" width="2" height="24" fill="#FFFFFF" opacity="0.688" /><rect x="707" y="2371" width="58" height="2" fill="#FFFFFF" opacity="0.364" /><rect x="735" y="2343" width="2" height="58" fill="#FFFFFF" opacity="0.364" /><rect x="1320" y="1056" width="70" height="2" fill="#FFFFFF" opacity="0.559" /><rect x="1354" y="1022" width="2" height="70" fill="#FFFFFF" opacity="0.559" /><rect x="1156" y="2132" width="72" height="2" fill="#FFFFFF" opacity="0.644" /><rect x="1191" y="2097" width="2" height="72" fill="#FFFFFF" opacity="0.644" /><rect x="2406" y="1304" width="26" height="2" fill="#FFFFFF" opacity="0.637" /><rect x="2418" y="1292" width="2" height="26" fill="#FFFFFF" opacity="0.637" /><rect x="2139" y="1274" width="46" height="2" fill="#FFFFFF" opacity="0.755" /><rect x="2161" y="1252" width="2" height="46" fill="#FFFFFF" opacity="0.755" /><rect x="1081" y="781" width="66" height="2" fill="#FFFFFF" opacity="0.738" /><rect x="1113" y="749" width="2" height="66" fill="#FFFFFF" opacity="0.738" /><rect x="360" y="850" width="50" height="2" fill="#FFFFFF" opacity="0.350" /><rect x="384" y="826" width="2" height="50" fill="#FFFFFF" opacity="0.350" /><rect x="951" y="880" width="30" height="2" fill="#FFFFFF" opacity="0.354" /><rect x="965" y="866" width="2" height="30" fill="#FFFFFF" opacity="0.354" /><rect x="625" y="685" width="48" height="2" fill="#FFFFFF" opacity="0.692" /><rect x="648" y="662" width="2" height="48" fill="#FFFFFF" opacity="0.692" /><rect x="1476" y="2533" width="46" height="2" fill="#FFFFFF" opacity="0.399" /><rect x="1498" y="2511" width="2" height="46" fill="#FFFFFF" opacity="0.399" /><rect x="1294" y="321" width="78" height="2" fill="#FFFFFF" opacity="0.644" /><rect x="1332" y="283" width="2" height="78" fill="#FFFFFF" opacity="0.644" /><rect x="1154" y="1574" width="38" height="2" fill="#FFFFFF" opacity="0.315" /><rect x="1172" y="1556" width="2" height="38" fill="#FFFFFF" opacity="0.315" /><rect x="863" y="2650" width="42" height="2" fill="#FFFFFF" opacity="0.662" /><rect x="883" y="2630" width="2" height="42" fill="#FFFFFF" opacity="0.662" /><rect x="1086" y="1889" width="42" height="2" fill="#FFFFFF" opacity="0.435" /><rect x="1106" y="1869" width="2" height="42" fill="#FFFFFF" opacity="0.435" /><rect x="2545" y="2575" width="50" height="2" fill="#FFFFFF" opacity="0.507" /><rect x="2569" y="2551" width="2" height="50" fill="#FFFFFF" opacity="0.507" /><rect x="2013" y="1013" width="42" height="2" fill="#FFFFFF" opacity="0.805" /><rect x="2033" y="993" width="2" height="42" fill="#FFFFFF" opacity="0.805" /><rect x="2336" y="1032" width="76" height="2" fill="#FFFFFF" opacity="0.554" /><rect x="2373" y="995" width="2" height="76" fill="#FFFFFF" opacity="0.554" /><rect x="2007" y="1080" width="80" height="2" fill="#FFFFFF" opacity="0.323" /><rect x="2046" y="1041" width="2" height="80" fill="#FFFFFF" opacity="0.323" /></g>
  <g opacity="0.52"><path d="M996 1582 C1316 1006, 1572 2158, 2148 1582" fill="none" stroke="#0C2030" stroke-width="90" /><circle cx="1188" cy="1582" r="109" fill="#0C2030" /><circle cx="1572" cy="1582" r="109" fill="#0C2030" /><circle cx="1956" cy="1582" r="109" fill="#0C2030" /></g>
  <g filter="url(#soft202)"><path d="M960 1536 C1280 960, 1536 2112, 2112 1536" fill="none" stroke="url(#symbol202)" stroke-width="90" /><circle cx="1152" cy="1536" r="109" fill="url(#symbol202)" /><circle cx="1536" cy="1536" r="109" fill="url(#symbol202)" /><circle cx="1920" cy="1536" r="109" fill="url(#symbol202)" /></g>
  <rect x="138" y="138" width="2796" height="2796" rx="629" fill="#FFFFFF" filter="url(#grain202)" opacity="0.18" />
</svg>
