<svg xmlns="http://www.w3.org/2000/svg" width="3072" height="3072" viewBox="0 0 3072 3072">
  <title>QuartzOS App Icon 323 - quartz_builder_323</title>
  <defs><linearGradient id="bg322" x1="0%" y1="0%" x2="100%" y2="100%"><stop offset="0%" stop-color="#36D1FF" /><stop offset="26%" stop-color="#8A5CFF" /><stop offset="56%" stop-color="#FF9F43" /><stop offset="78%" stop-color="#58A3D8" /><stop offset="100%" stop-color="#1D2F45" /></linearGradient><radialGradient id="sun322" cx="26%" cy="31%" r="88%"><stop offset="0%" stop-color="#FFFFFF" stop-opacity="0.62" /><stop offset="30%" stop-color="#FFD84D" stop-opacity="0.35" /><stop offset="100%" stop-color="#FFD84D" stop-opacity="0" /></radialGradient><linearGradient id="glass322" x1="0%" y1="0%" x2="0%" y2="100%"><stop offset="0%" stop-color="#FFFFFF" stop-opacity="0.70" /><stop offset="46%" stop-color="#FFFFFF" stop-opacity="0.26" /><stop offset="100%" stop-color="#FFFFFF" stop-opacity="0.00" /></linearGradient><linearGradient id="ribbon322" x1="0%" y1="0%" x2="100%" y2="0%"><stop offset="0%" stop-color="#36D1FF" stop-opacity="0.18" /><stop offset="34%" stop-color="#8A5CFF" stop-opacity="0.72" /><stop offset="66%" stop-color="#FF9F43" stop-opacity="0.72" /><stop offset="100%" stop-color="#FFD84D" stop-opacity="0.18" /></linearGradient><radialGradient id="orb322" cx="34%" cy="27%" r="74%"><stop offset="0%" stop-color="#FFFFFF" stop-opacity="0.84" /><stop offset="30%" stop-color="#36D1FF" stop-opacity="0.52" /><stop offset="68%" stop-color="#8A5CFF" stop-opacity="0.42" /><stop offset="100%" stop-color="#FF9F43" stop-opacity="0.20" /></radialGradient><linearGradient id="extrude322" x1="0%" y1="0%" x2="0%" y2="100%"><stop offset="0%" stop-color="#15283C" stop-opacity="0.45" /><stop offset="100%" stop-color="#08131D" stop-opacity="0.06" /></linearGradient><linearGradient id="symbol322" x1="0%" y1="0%" x2="100%" y2="100%"><stop offset="0%" stop-color="#FFFFFF" /><stop offset="100%" stop-color="#FFD84D" /></linearGradient><filter id="shadow322" x="-40%" y="-40%" width="180%" height="180%"><feDropShadow dx="0" dy="49" stdDeviation="86" flood-color="#06111A" flood-opacity="0.54" /></filter><filter id="soft322" x="-40%" y="-40%" width="180%" height="180%"><feDropShadow dx="0" dy="0" stdDeviation="14" flood-color="#36D1FF" flood-opacity="0.45" /></filter><filter id="grain322"><feTurbulence type="fractalNoise" baseFrequency="0.691" numOctaves="2" seed="322" /><feColorMatrix type="saturate" values="0" /><feComponentTransfer><feFuncA type="table" tableValues="0 0.09" /></feComponentTransfer></filter></defs>
  <rect x="138" y="138" width="2796" height="2796" rx="629" fill="url(#bg322)" filter="url(#shadow322)" />
  <rect x="138" y="138" width="2796" height="2796" rx="629" fill="url(#sun322)" />
  <g><circle cx="1172" cy="800" r="39" fill="#FFFFFF" opacity="0.184" /><circle cx="854" cy="838" r="137" fill="#FFFFFF" opacity="0.217" /><circle cx="525" cy="2526" r="54" fill="#FFFFFF" opacity="0.159" /><circle cx="2659" cy="2380" r="49" fill="#FFFFFF" opacity="0.082" /><circle cx="1584" cy="1007" r="145" fill="#FFFFFF" opacity="0.122" /><circle cx="803" cy="2580" r="83" fill="#FFFFFF" opacity="0.081" /><circle cx="1712" cy="582" r="136" fill="#FFFFFF" opacity="0.172" /><circle cx="828" cy="1495" r="126" fill="#FFFFFF" opacity="0.165" /><circle cx="511" cy="2174" r="61" fill="#FFFFFF" opacity="0.168" /><circle cx="1416" cy="2556" r="69" fill="#FFFFFF" opacity="0.186" /><circle cx="1508" cy="1777" r="134" fill="#FFFFFF" opacity="0.169" /><circle cx="1399" cy="645" r="87" fill="#FFFFFF" opacity="0.138" /><circle cx="2309" cy="476" r="56" fill="#FFFFFF" opacity="0.193" /><circle cx="2247" cy="875" r="142" fill="#FFFFFF" opacity="0.081" /><circle cx="1243" cy="2037" r="117" fill="#FFFFFF" opacity="0.219" /><circle cx="1357" cy="982" r="155" fill="#FFFFFF" opacity="0.127" /><circle cx="1815" cy="465" r="144" fill="#FFFFFF" opacity="0.068" /><circle cx="1834" cy="2016" r="134" fill="#FFFFFF" opacity="0.121" /><circle cx="970" cy="652" r="126" fill="#FFFFFF" opacity="0.235" /><circle cx="1409" cy="1816" r="122" fill="#FFFFFF" opacity="0.098" /><circle cx="837" cy="2643" r="38" fill="#FFFFFF" opacity="0.083" /><circle cx="2507" cy="2405" r="93" fill="#FFFFFF" opacity="0.077" /><circle cx="1952" cy="2219" r="115" fill="#FFFFFF" opacity="0.221" /><circle cx="1461" cy="2565" r="159" fill="#FFFFFF" opacity="0.092" /><circle cx="1292" cy="617" r="75" fill="#FFFFFF" opacity="0.100" /><circle cx="1202" cy="1941" r="113" fill="#FFFFFF" opacity="0.097" /><circle cx="2131" cy="1821" r="145" fill="#FFFFFF" opacity="0.139" /><circle cx="767" cy="2300" r="145" fill="#FFFFFF" opacity="0.106" /></g>
  <g><path d="M 342.8 580.9 L 2719.7 304.5 L 2719.7 762.7 L 342.8 1039.2 Z" fill="#FFFFFF" opacity="0.142" /><path d="M 381.1 862.0 L 2895.0 585.5 L 2895.0 1023.1 L 381.1 1299.6 Z" fill="#FFFFFF" opacity="0.149" /><path d="M 268.6 1126.4 L 2683.0 849.9 L 2683.0 1314.0 L 268.6 1590.5 Z" fill="#FFFFFF" opacity="0.172" /><path d="M 277.2 1395.2 L 2921.9 1118.8 L 2921.9 1550.4 L 277.2 1826.9 Z" fill="#FFFFFF" opacity="0.147" /><path d="M 192.4 1637.1 L 2826.6 1360.7 L 2826.6 1781.7 L 192.4 2058.2 Z" fill="#FFFFFF" opacity="0.180" /><path d="M 166.3 1933.4 L 2769.0 1657.0 L 2769.0 2099.6 L 166.3 2376.0 Z" fill="#FFFFFF" opacity="0.232" /><path d="M 200.7 2139.4 L 2903.6 1862.9 L 2903.6 2302.9 L 200.7 2579.4 Z" fill="#FFFFFF" opacity="0.195" /><path d="M 174.0 2484.0 L 2767.4 2207.6 L 2767.4 2685.9 L 174.0 2962.4 Z" fill="#FFFFFF" opacity="0.181" /></g>
  <g filter="url(#soft322)"><g transform="rotate(-21.75 1536.0 1536.0)"><path d="M-368.6 482.3 C -225.8 498.7, -25.8 468.8, 107.5 464.1 C 250.4 456.9, 450.4 497.5, 583.7 432.2 C 726.5 429.7, 926.5 539.1, 1059.8 430.6 C 1202.7 426.0, 1402.7 521.4, 1536.0 460.4 C 1678.8 451.7, 1878.8 508.4, 2012.2 503.4 C 2155.0 507.9, 2355.0 471.8, 2488.3 533.7 C 2631.2 551.2, 2831.2 431.0, 2964.5 532.7 C 3107.3 520.9, 3307.3 465.9, 3440.6 501.2" fill="none" stroke="url(#ribbon322)" stroke-width="58.4" stroke-linecap="round" stroke-opacity="0.120" /></g><g transform="rotate(-21.17 1536.0 1536.0)"><path d="M-368.6 740.1 C -241.7 776.9, -63.9 721.6, 54.6 799.6 C 181.6 802.6, 359.4 691.8, 477.9 795.0 C 604.8 778.2, 782.6 715.5, 901.1 757.1 C 1028.1 758.7, 1205.9 720.1, 1324.4 708.9 C 1451.3 701.7, 1629.1 775.9, 1747.6 679.7 C 1874.6 663.1, 2052.4 789.0, 2170.9 687.1 C 2297.9 707.6, 2475.6 763.5, 2594.1 726.7 C 2721.1 725.3, 2898.9 755.6, 3017.4 774.5 C 3144.4 780.1, 3322.1 727.0, 3440.6 801.4" fill="none" stroke="url(#ribbon322)" stroke-width="54.4" stroke-linecap="round" stroke-opacity="0.146" /></g><g transform="rotate(-20.59 1536.0 1536.0)"><path d="M-368.6 919.1 C -254.4 1011.6, -94.4 850.8, 12.3 963.7 C 126.6 960.0, 286.6 897.8, 393.2 912.0 C 507.5 913.9, 667.5 925.0, 774.1 864.6 C 888.4 875.0, 1048.4 954.3, 1155.1 850.2 C 1269.4 834.4, 1429.3 960.2, 1536.0 877.6 C 1650.3 862.4, 1810.3 938.5, 1916.9 930.1 C 2031.2 928.0, 2191.2 912.7, 2297.9 975.9 C 2412.1 979.9, 2572.1 855.4, 2678.8 987.2 C 2793.1 1012.5, 2953.1 874.1, 3059.7 957.2 C 3174.0 964.2, 3334.0 876.5, 3440.6 904.0" fill="none" stroke="url(#ribbon322)" stroke-width="50.4" stroke-linecap="round" stroke-opacity="0.172" /></g><g transform="rotate(-20.01 1536.0 1536.0)"><path d="M-368.6 1132.3 C -264.8 1195.2, -119.3 1099.9, -22.3 1199.8 C 81.5 1195.2, 227.0 1058.9, 324.0 1153.5 C 427.8 1157.2, 573.3 1120.8, 670.3 1094.4 C 774.1 1081.9, 919.6 1152.0, 1016.6 1058.3 C 1120.4 1059.0, 1265.9 1219.2, 1362.9 1067.1 C 1466.7 1051.6, 1612.2 1196.9, 1709.1 1115.5 C 1813.0 1120.4, 1958.5 1145.8, 2055.4 1174.1 C 2159.3 1168.5, 2304.8 1099.3, 2401.7 1207.4 C 2505.6 1224.1, 2651.1 1049.4, 2748.0 1195.2 C 2851.9 1186.0, 2997.4 1086.2, 3094.3 1144.8 C 3198.2 1142.3, 3343.7 1118.7, 3440.6 1086.9" fill="none" stroke="url(#ribbon322)" stroke-width="46.4" stroke-linecap="round" stroke-opacity="0.198" /></g><g transform="rotate(-19.43 1536.0 1536.0)"><path d="M-368.6 1280.5 C -273.4 1358.6, -140.1 1217.5, -51.2 1340.4 C 44.0 1336.5, 177.4 1224.8, 266.2 1280.5 C 361.5 1280.5, 494.8 1280.5, 583.7 1220.5 C 678.9 1220.0, 812.2 1346.1, 901.1 1197.0 C 996.4 1214.7, 1129.7 1360.3, 1218.6 1224.0 C 1313.8 1234.6, 1447.1 1336.8, 1536.0 1285.3 C 1631.2 1285.3, 1764.6 1279.0, 1853.4 1343.7 C 1948.7 1345.0, 2082.0 1241.3, 2170.9 1363.7 C 2266.1 1335.3, 2399.4 1236.4, 2488.3 1333.2 C 2583.6 1315.0, 2716.9 1229.3, 2805.8 1270.7 C 2901.0 1268.3, 3034.3 1290.0, 3123.2 1214.2 C 3218.4 1218.1, 3351.8 1326.5, 3440.6 1197.8" fill="none" stroke="url(#ribbon322)" stroke-width="42.4" stroke-linecap="round" stroke-opacity="0.224" /></g><g transform="rotate(-18.85 1536.0 1536.0)"><path d="M-368.6 1494.3 C -225.8 1498.7, -25.8 1487.7, 107.5 1563.3 C 250.4 1549.2, 450.4 1415.5, 583.7 1584.5 C 726.5 1565.8, 926.5 1397.0, 1059.8 1550.9 C 1202.7 1528.7, 1402.7 1442.0, 1536.0 1483.0 C 1678.8 1487.1, 1878.8 1505.1, 2012.2 1421.9 C 2155.0 1416.5, 2355.0 1561.6, 2488.3 1404.7 C 2631.2 1396.9, 2831.2 1599.3, 2964.5 1441.8 C 3107.3 1461.4, 3307.3 1526.7, 3440.6 1510.8" fill="none" stroke="url(#ribbon322)" stroke-width="38.4" stroke-linecap="round" stroke-opacity="0.250" /></g><g transform="rotate(-18.27 1536.0 1536.0)"><path d="M-368.6 1736.8 C -241.7 1692.5, -63.9 1763.4, 54.6 1772.5 C 181.6 1763.1, 359.4 1697.4, 477.9 1826.9 C 604.8 1859.9, 782.6 1702.8, 901.1 1826.6 C 1028.1 1827.6, 1205.9 1684.4, 1324.4 1771.8 C 1451.3 1760.6, 1629.1 1710.5, 1747.6 1695.8 C 1874.6 1686.1, 2052.4 1761.7, 2170.9 1644.6 C 2297.9 1613.6, 2475.6 1823.0, 2594.1 1649.3 C 2721.1 1670.4, 2898.9 1822.7, 3017.4 1707.1 C 3144.4 1714.1, 3322.1 1761.6, 3440.6 1782.9" fill="none" stroke="url(#ribbon322)" stroke-width="34.4" stroke-linecap="round" stroke-opacity="0.276" /></g><g transform="rotate(-17.69 1536.0 1536.0)"><path d="M-368.6 1887.7 C -254.4 1858.9, -94.4 1920.5, 12.3 1929.0 C 126.6 1923.7, 286.6 1854.8, 393.2 1985.5 C 507.5 1961.9, 667.5 1816.6, 774.1 1982.8 C 888.4 2000.8, 1048.4 1851.9, 1155.1 1922.4 C 1269.4 1923.2, 1429.3 1864.9, 1536.0 1841.0 C 1650.3 1851.2, 1810.3 1915.2, 1916.9 1787.9 C 2031.2 1792.1, 2191.2 1939.5, 2297.9 1795.4 C 2412.1 1819.9, 2572.1 1952.7, 2678.8 1858.9 C 2793.1 1856.9, 2953.1 1901.5, 3059.7 1939.9 C 3174.0 1955.6, 3334.0 1849.7, 3440.6 1989.3" fill="none" stroke="url(#ribbon322)" stroke-width="30.4" stroke-linecap="round" stroke-opacity="0.302" /></g><g transform="rotate(-17.11 1536.0 1536.0)"><path d="M-368.6 2101.4 C -264.8 2095.4, -119.3 2112.8, -22.3 2014.6 C 81.5 2004.1, 227.0 2144.6, 324.0 1990.3 C 427.8 1975.2, 573.3 2167.0, 670.3 2033.4 C 774.1 2008.3, 919.6 2162.2, 1016.6 2117.7 C 1120.4 2122.0, 1265.9 2090.9, 1362.9 2192.1 C 1466.7 2186.9, 1612.2 2073.5, 1709.1 2211.5 C 1813.0 2236.0, 1958.5 2006.6, 2055.4 2164.0 C 2159.3 2186.4, 2304.8 2075.1, 2401.7 2078.6 C 2505.6 2073.0, 2651.1 2118.3, 2748.0 2007.0 C 2851.9 1980.7, 2997.4 2170.3, 3094.3 1992.6 C 3198.2 2000.9, 3343.7 2211.6, 3440.6 2044.2" fill="none" stroke="url(#ribbon322)" stroke-width="26.4" stroke-linecap="round" stroke-opacity="0.328" /></g><g transform="rotate(-16.53 1536.0 1536.0)"><path d="M-368.6 2304.9 C -273.4 2196.4, -140.1 2408.8, -51.2 2270.9 C 44.0 2278.2, 177.4 2317.9, 266.2 2362.9 C 361.5 2378.6, 494.8 2254.7, 583.7 2419.8 C 678.9 2428.5, 812.2 2215.4, 901.1 2407.0 C 996.4 2432.0, 1129.7 2218.6, 1218.6 2332.3 C 1313.8 2338.1, 1447.1 2295.3, 1536.0 2241.0 C 1631.2 2249.7, 1764.6 2359.5, 1853.4 2188.5 C 1948.7 2148.4, 2082.0 2385.3, 2170.9 2206.6 C 2266.1 2238.2, 2399.4 2356.7, 2488.3 2284.4 C 2583.6 2287.6, 2716.9 2322.9, 2805.8 2374.6 C 2901.0 2389.7, 3034.3 2235.4, 3123.2 2422.6 C 3218.4 2418.5, 3351.8 2198.8, 3440.6 2399.2" fill="none" stroke="url(#ribbon322)" stroke-width="22.4" stroke-linecap="round" stroke-opacity="0.354" /></g><g transform="rotate(-15.95 1536.0 1536.0)"><path d="M-368.6 2510.4 C -225.8 2583.6, -25.8 2454.4, 107.5 2635.4 C 250.4 2604.1, 450.4 2460.8, 583.7 2608.3 C 726.5 2586.8, 926.5 2396.3, 1059.8 2521.8 C 1202.7 2517.3, 1402.7 2499.7, 1536.0 2428.3 C 1678.8 2395.7, 1878.8 2537.1, 2012.2 2384.7 C 2155.0 2430.4, 2355.0 2611.2, 2488.3 2417.3 C 2631.2 2414.1, 2831.2 2564.1, 2964.5 2506.3 C 3107.3 2507.4, 3307.3 2512.6, 3440.6 2597.9" fill="none" stroke="url(#ribbon322)" stroke-width="18.4" stroke-linecap="round" stroke-opacity="0.380" /></g><g transform="rotate(-15.37 1536.0 1536.0)"><path d="M-368.6 2668.7 C -241.7 2657.4, -63.9 2679.1, 54.6 2755.0 C 181.6 2727.4, 359.4 2586.1, 477.9 2801.5 C 604.8 2771.3, 782.6 2539.3, 901.1 2767.5 C 1028.1 2730.7, 1205.9 2562.6, 1324.4 2673.6 C 1451.3 2674.3, 1629.1 2666.2, 1747.6 2576.7 C 1874.6 2581.9, 2052.4 2704.1, 2170.9 2535.7 C 2297.9 2543.9, 2475.6 2763.4, 2594.1 2575.4 C 2721.1 2603.9, 2898.9 2744.0, 3017.4 2671.7 C 3144.4 2672.2, 3322.1 2665.5, 3440.6 2766.2" fill="none" stroke="url(#ribbon322)" stroke-width="14.4" stroke-linecap="round" stroke-opacity="0.406" /></g></g>
  <g><ellipse cx="1536.0" cy="1551.9" rx="728.6" ry="605.7" fill="url(#extrude322)" opacity="0.220" /><ellipse cx="1536.0" cy="1567.7" rx="736.0" ry="610.9" fill="url(#extrude322)" opacity="0.205" /><ellipse cx="1536.0" cy="1583.6" rx="743.4" ry="616.1" fill="url(#extrude322)" opacity="0.190" /><ellipse cx="1536.0" cy="1599.5" rx="750.9" ry="621.3" fill="url(#extrude322)" opacity="0.175" /><ellipse cx="1536.0" cy="1615.4" rx="758.3" ry="626.5" fill="url(#extrude322)" opacity="0.160" /><ellipse cx="1536.0" cy="1631.2" rx="765.7" ry="631.7" fill="url(#extrude322)" opacity="0.145" /><ellipse cx="1536.0" cy="1647.1" rx="773.2" ry="636.9" fill="url(#extrude322)" opacity="0.130" /><ellipse cx="1536.0" cy="1663.0" rx="780.6" ry="642.1" fill="url(#extrude322)" opacity="0.115" /><ellipse cx="1536.0" cy="1678.8" rx="788.0" ry="647.4" fill="url(#extrude322)" opacity="0.100" /><ellipse cx="1536.0" cy="1694.7" rx="795.5" ry="652.6" fill="url(#extrude322)" opacity="0.085" /><ellipse cx="1536.0" cy="1710.6" rx="802.9" ry="657.8" fill="url(#extrude322)" opacity="0.070" /><ellipse cx="1536.0" cy="1726.5" rx="810.3" ry="663.0" fill="url(#extrude322)" opacity="0.055" /></g>
  <ellipse cx="1536.0" cy="1726.5" rx="773.2" ry="214.9" fill="#0B1D2D" opacity="0.24" />
  <ellipse cx="1536.0" cy="1536.0" rx="743.4" ry="651.3" fill="url(#orb322)" stroke="#FFFFFF" stroke-opacity="0.42" stroke-width="7" />
  <ellipse cx="1431.9" cy="1392.7" rx="505.5" ry="299.6" fill="#FFFFFF" opacity="0.25" />
  <path d="M 199.4 399.4 C 1013.8 -30.7, 2058.2 768.0, 2872.6 215.0 L 2872.6 983.0 C 2089.0 1228.8, 1013.8 307.2, 199.4 1167.4 Z" fill="url(#glass322)" />
  <rect x="270" y="270" width="2532" height="2532" rx="430" fill="none" stroke="#FFFFFF" stroke-opacity="0.30" stroke-width="5" />
  <rect x="288.4" y="288.4" width="2495.1" height="2495.1" rx="399" fill="none" stroke="#36D1FF" stroke-opacity="0.35" stroke-width="3" />
  <g filter="url(#soft322)"><rect x="1922" y="2697" width="84" height="2" fill="#FFFFFF" opacity="0.471" /><rect x="1963" y="2656" width="2" height="84" fill="#FFFFFF" opacity="0.471" /><rect x="2337" y="355" width="30" height="2" fill="#FFFFFF" opacity="0.542" /><rect x="2351" y="341" width="2" height="30" fill="#FFFFFF" opacity="0.542" /><rect x="1745" y="1774" width="40" height="2" fill="#FFFFFF" opacity="0.619" /><rect x="1764" y="1755" width="2" height="40" fill="#FFFFFF" opacity="0.619" /><rect x="2744" y="345" width="50" height="2" fill="#FFFFFF" opacity="0.332" /><rect x="2768" y="321" width="2" height="50" fill="#FFFFFF" opacity="0.332" /><rect x="374" y="2481" width="68" height="2" fill="#FFFFFF" opacity="0.418" /><rect x="407" y="2448" width="2" height="68" fill="#FFFFFF" opacity="0.418" /><rect x="2072" y="2359" width="76" height="2" fill="#FFFFFF" opacity="0.657" /><rect x="2109" y="2322" width="2" height="76" fill="#FFFFFF" opacity="0.657" /><rect x="1882" y="1333" width="74" height="2" fill="#FFFFFF" opacity="0.709" /><rect x="1918" y="1297" width="2" height="74" fill="#FFFFFF" opacity="0.709" /><rect x="2715" y="588" width="66" height="2" fill="#FFFFFF" opacity="0.692" /><rect x="2747" y="556" width="2" height="66" fill="#FFFFFF" opacity="0.692" /><rect x="2130" y="2022" width="64" height="2" fill="#FFFFFF" opacity="0.700" /><rect x="2161" y="1991" width="2" height="64" fill="#FFFFFF" opacity="0.700" /><rect x="1374" y="2600" width="56" height="2" fill="#FFFFFF" opacity="0.763" /><rect x="1401" y="2573" width="2" height="56" fill="#FFFFFF" opacity="0.763" /><rect x="2221" y="784" width="52" height="2" fill="#FFFFFF" opacity="0.726" /><rect x="2246" y="759" width="2" height="52" fill="#FFFFFF" opacity="0.726" /><rect x="2287" y="1562" width="62" height="2" fill="#FFFFFF" opacity="0.726" /><rect x="2317" y="1532" width="2" height="62" fill="#FFFFFF" opacity="0.726" /><rect x="2532" y="2143" width="74" height="2" fill="#FFFFFF" opacity="0.368" /><rect x="2568" y="2107" width="2" height="74" fill="#FFFFFF" opacity="0.368" /><rect x="961" y="1511" width="56" height="2" fill="#FFFFFF" opacity="0.303" /><rect x="988" y="1484" width="2" height="56" fill="#FFFFFF" opacity="0.303" /><rect x="2644" y="2072" width="72" height="2" fill="#FFFFFF" opacity="0.733" /><rect x="2679" y="2037" width="2" height="72" fill="#FFFFFF" opacity="0.733" /><rect x="1407" y="2483" width="32" height="2" fill="#FFFFFF" opacity="0.828" /><rect x="1422" y="2468" width="2" height="32" fill="#FFFFFF" opacity="0.828" /><rect x="1904" y="1541" width="72" height="2" fill="#FFFFFF" opacity="0.440" /><rect x="1939" y="1506" width="2" height="72" fill="#FFFFFF" opacity="0.440" /><rect x="1410" y="908" width="76" height="2" fill="#FFFFFF" opacity="0.697" /><rect x="1447" y="871" width="2" height="76" fill="#FFFFFF" opacity="0.697" /><rect x="938" y="2581" width="44" height="2" fill="#FFFFFF" opacity="0.716" /><rect x="959" y="2560" width="2" height="44" fill="#FFFFFF" opacity="0.716" /><rect x="1444" y="246" width="56" height="2" fill="#FFFFFF" opacity="0.492" /><rect x="1471" y="219" width="2" height="56" fill="#FFFFFF" opacity="0.492" /><rect x="1283" y="1991" width="54" height="2" fill="#FFFFFF" opacity="0.354" /><rect x="1309" y="1965" width="2" height="54" fill="#FFFFFF" opacity="0.354" /><rect x="1398" y="1622" width="82" height="2" fill="#FFFFFF" opacity="0.694" /><rect x="1438" y="1582" width="2" height="82" fill="#FFFFFF" opacity="0.694" /><rect x="959" y="322" width="44" height="2" fill="#FFFFFF" opacity="0.333" /><rect x="980" y="301" width="2" height="44" fill="#FFFFFF" opacity="0.333" /><rect x="1062" y="2179" width="58" height="2" fill="#FFFFFF" opacity="0.826" /><rect x="1090" y="2151" width="2" height="58" fill="#FFFFFF" opacity="0.826" /><rect x="660" y="935" width="84" height="2" fill="#FFFFFF" opacity="0.485" /><rect x="701" y="894" width="2" height="84" fill="#FFFFFF" opacity="0.485" /><rect x="986" y="1144" width="56" height="2" fill="#FFFFFF" opacity="0.537" /><rect x="1013" y="1117" width="2" height="56" fill="#FFFFFF" opacity="0.537" /></g>
  <g opacity="0.52"><path d="M996 1582 C1316 1006, 1572 2158, 2148 1582" fill="none" stroke="#0C2030" stroke-width="90" /><circle cx="1188" cy="1582" r="109" fill="#0C2030" /><circle cx="1572" cy="1582" r="109" fill="#0C2030" /><circle cx="1956" cy="1582" r="109" fill="#0C2030" /></g>
  <g filter="url(#soft322)"><path d="M960 1536 C1280 960, 1536 2112, 2112 1536" fill="none" stroke="url(#symbol322)" stroke-width="90" /><circle cx="1152" cy="1536" r="109" fill="url(#symbol322)" /><circle cx="1536" cy="1536" r="109" fill="url(#symbol322)" /><circle cx="1920" cy="1536" r="109" fill="url(#symbol322)" /></g>
  <rect x="138" y="138" width="2796" height="2796" rx="629" fill="#FFFFFF" filter="url(#grain322)" opacity="0.18" />
</svg>
