<svg xmlns="http://www.w3.org/2000/svg" width="3072" height="3072" viewBox="0 0 3072 3072">
  <title>QuartzOS App Icon 063 - quartz_player_063</title>
  <defs><linearGradient id="bg62" x1="0%" y1="0%" x2="100%" y2="100%"><stop offset="0%" stop-color="#53E3A6" /><stop offset="26%" stop-color="#3B82FF" /><stop offset="56%" stop-color="#FF6AB3" /><stop offset="78%" stop-color="#5E86C9" /><stop offset="100%" stop-color="#1C2435" /></linearGradient><radialGradient id="sun62" cx="28%" cy="20%" r="88%"><stop offset="0%" stop-color="#FFFFFF" stop-opacity="0.62" /><stop offset="30%" stop-color="#FF9F43" stop-opacity="0.35" /><stop offset="100%" stop-color="#FF9F43" stop-opacity="0" /></radialGradient><linearGradient id="glass62" x1="0%" y1="0%" x2="0%" y2="100%"><stop offset="0%" stop-color="#FFFFFF" stop-opacity="0.70" /><stop offset="46%" stop-color="#FFFFFF" stop-opacity="0.26" /><stop offset="100%" stop-color="#FFFFFF" stop-opacity="0.00" /></linearGradient><linearGradient id="ribbon62" x1="0%" y1="0%" x2="100%" y2="0%"><stop offset="0%" stop-color="#53E3A6" stop-opacity="0.18" /><stop offset="34%" stop-color="#3B82FF" stop-opacity="0.72" /><stop offset="66%" stop-color="#FF6AB3" stop-opacity="0.72" /><stop offset="100%" stop-color="#FF9F43" stop-opacity="0.18" /></linearGradient><radialGradient id="orb62" cx="34%" cy="27%" r="74%"><stop offset="0%" stop-color="#FFFFFF" stop-opacity="0.84" /><stop offset="30%" stop-color="#53E3A6" stop-opacity="0.52" /><stop offset="68%" stop-color="#3B82FF" stop-opacity="0.42" /><stop offset="100%" stop-color="#FF6AB3" stop-opacity="0.20" /></radialGradient><linearGradient id="extrude62" x1="0%" y1="0%" x2="0%" y2="100%"><stop offset="0%" stop-color="#15283C" stop-opacity="0.45" /><stop offset="100%" stop-color="#08131D" stop-opacity="0.06" /></linearGradient><linearGradient id="symbol62" x1="0%" y1="0%" x2="100%" y2="100%"><stop offset="0%" stop-color="#FFFFFF" /><stop offset="100%" stop-color="#FF9F43" /></linearGradient><filter id="shadow62" x="-40%" y="-40%" width="180%" height="180%"><feDropShadow dx="0" dy="49" stdDeviation="86" flood-color="#06111A" flood-opacity="0.54" /></filter><filter id="soft62" x="-40%" y="-40%" width="180%" height="180%"><feDropShadow dx="0" dy="0" stdDeviation="14" flood-color="#53E3A6" flood-opacity="0.45" /></filter><filter id="grain62"><feTurbulence type="fractalNoise" baseFrequency="0.626" numOctaves="2" seed="62" /><feColorMatrix type="saturate" values="0" /><feComponentTransfer><feFuncA type="table" tableValues="0 0.09" /></feComponentTransfer></filter></defs>
  <rect x="138" y="138" width="2796" height="2796" rx="629" fill="url(#bg62)" filter="url(#shadow62)" />
  <rect x="138" y="138" width="2796" height="2796" rx="629" fill="url(#sun62)" />
  <g><circle cx="1598" cy="1531" r="122" fill="#FFFFFF" opacity="0.066" /><circle cx="1465" cy="1365" r="142" fill="#FFFFFF" opacity="0.130" /><circle cx="2565" cy="1952" r="85" fill="#FFFFFF" opacity="0.152" /><circle cx="915" cy="1042" r="65" fill="#FFFFFF" opacity="0.226" /><circle cx="1933" cy="413" r="119" fill="#FFFFFF" opacity="0.092" /><circle cx="895" cy="1228" r="65" fill="#FFFFFF" opacity="0.065" /><circle cx="2624" cy="1491" r="66" fill="#FFFFFF" opacity="0.219" /><circle cx="2502" cy="1169" r="113" fill="#FFFFFF" opacity="0.099" /><circle cx="943" cy="1983" r="71" fill="#FFFFFF" opacity="0.129" /><circle cx="2612" cy="1478" r="136" fill="#FFFFFF" opacity="0.068" /><circle cx="1321" cy="700" r="118" fill="#FFFFFF" opacity="0.093" /><circle cx="1102" cy="2325" r="158" fill="#FFFFFF" opacity="0.125" /><circle cx="852" cy="623" r="109" fill="#FFFFFF" opacity="0.190" /><circle cx="1221" cy="1172" r="147" fill="#FFFFFF" opacity="0.220" /><circle cx="1992" cy="1031" r="143" fill="#FFFFFF" opacity="0.207" /><circle cx="768" cy="2046" r="51" fill="#FFFFFF" opacity="0.080" /><circle cx="2061" cy="1152" r="133" fill="#FFFFFF" opacity="0.150" /><circle cx="2090" cy="403" r="152" fill="#FFFFFF" opacity="0.142" /><circle cx="1559" cy="973" r="92" fill="#FFFFFF" opacity="0.075" /><circle cx="1216" cy="1079" r="129" fill="#FFFFFF" opacity="0.208" /><circle cx="963" cy="1604" r="133" fill="#FFFFFF" opacity="0.167" /><circle cx="485" cy="2255" r="48" fill="#FFFFFF" opacity="0.130" /><circle cx="2339" cy="393" r="37" fill="#FFFFFF" opacity="0.148" /><circle cx="2638" cy="537" r="51" fill="#FFFFFF" opacity="0.196" /><circle cx="1757" cy="2368" r="126" fill="#FFFFFF" opacity="0.190" /><circle cx="392" cy="370" r="134" fill="#FFFFFF" opacity="0.131" /><circle cx="529" cy="2481" r="113" fill="#FFFFFF" opacity="0.071" /><circle cx="1177" cy="1453" r="97" fill="#FFFFFF" opacity="0.133" /></g>
  <g><path d="M 212.1 656.1 L 2826.3 379.6 L 2826.3 860.4 L 212.1 1136.9 Z" fill="#FFFFFF" opacity="0.100" /><path d="M 222.1 912.3 L 2819.8 635.8 L 2819.8 1132.8 L 222.1 1409.3 Z" fill="#FFFFFF" opacity="0.148" /><path d="M 309.1 1141.9 L 2719.4 865.4 L 2719.4 1337.4 L 309.1 1613.9 Z" fill="#FFFFFF" opacity="0.204" /><path d="M 147.6 1423.9 L 2756.8 1147.4 L 2756.8 1625.5 L 147.6 1902.0 Z" fill="#FFFFFF" opacity="0.111" /><path d="M 228.9 1682.4 L 2753.6 1405.9 L 2753.6 1879.6 L 228.9 2156.1 Z" fill="#FFFFFF" opacity="0.228" /><path d="M 313.7 1886.2 L 2750.3 1609.8 L 2750.3 2067.0 L 313.7 2343.5 Z" fill="#FFFFFF" opacity="0.159" /><path d="M 336.8 2139.2 L 2913.4 1862.8 L 2913.4 2360.1 L 336.8 2636.6 Z" fill="#FFFFFF" opacity="0.160" /><path d="M 195.0 2408.2 L 2858.2 2131.7 L 2858.2 2582.7 L 195.0 2859.2 Z" fill="#FFFFFF" opacity="0.171" /></g>
  <g filter="url(#soft62)"><g transform="rotate(-9.30 1536.0 1536.0)"><path d="M-368.6 510.3 C -225.8 542.3, -25.8 473.5, 107.5 565.4 C 250.4 549.3, 450.4 487.6, 583.7 552.7 C 726.5 549.3, 926.5 474.4, 1059.8 514.4 C 1202.7 514.4, 1402.7 506.8, 1536.0 473.6 C 1678.8 461.6, 1878.8 545.1, 2012.2 455.1 C 2155.0 442.0, 2355.0 566.6, 2488.3 470.1 C 2631.2 477.2, 2831.2 556.0, 2964.5 509.5 C 3107.3 509.7, 3307.3 511.1, 3440.6 549.4" fill="none" stroke="url(#ribbon62)" stroke-width="58.4" stroke-linecap="round" stroke-opacity="0.120" /></g><g transform="rotate(-8.72 1536.0 1536.0)"><path d="M-368.6 688.1 C -241.7 724.1, -63.9 662.8, 54.6 714.5 C 181.6 707.7, 359.4 670.0, 477.9 666.0 C 604.8 672.5, 782.6 696.9, 901.1 630.9 C 1028.1 641.7, 1205.9 738.3, 1324.4 630.5 C 1451.3 636.7, 1629.1 741.5, 1747.6 665.1 C 1874.6 663.6, 2052.4 709.3, 2170.9 713.6 C 2297.9 705.6, 2475.6 660.7, 2594.1 746.7 C 2721.1 731.8, 2898.9 647.3, 3017.4 744.3 C 3144.4 747.9, 3322.1 666.2, 3440.6 707.8" fill="none" stroke="url(#ribbon62)" stroke-width="54.4" stroke-linecap="round" stroke-opacity="0.146" /></g><g transform="rotate(-8.14 1536.0 1536.0)"><path d="M-368.6 896.3 C -254.4 843.9, -94.4 920.5, 12.3 828.0 C 126.6 818.4, 286.6 941.3, 393.2 839.5 C 507.5 852.8, 667.5 964.2, 774.1 885.4 C 888.4 888.5, 1048.4 908.8, 1155.1 937.9 C 1269.4 945.2, 1429.3 860.7, 1536.0 965.1 C 1650.3 984.4, 1810.3 842.5, 1916.9 950.6 C 2031.2 934.2, 2191.2 859.5, 2297.9 903.1 C 2412.1 902.8, 2572.1 893.8, 2678.8 851.5 C 2793.1 841.5, 2953.1 916.3, 3059.7 827.0 C 3174.0 817.6, 3334.0 954.4, 3440.6 844.5" fill="none" stroke="url(#ribbon62)" stroke-width="50.4" stroke-linecap="round" stroke-opacity="0.172" /></g><g transform="rotate(-7.56 1536.0 1536.0)"><path d="M-368.6 1143.5 C -264.8 1048.8, -119.3 1195.4, -22.3 1111.5 C 81.5 1102.0, 227.0 1172.3, 324.0 1171.1 C 427.8 1175.5, 573.3 1121.5, 670.3 1213.9 C 774.1 1218.5, 919.6 1089.2, 1016.6 1213.9 C 1120.4 1193.1, 1265.9 1081.2, 1362.9 1171.3 C 1466.7 1179.1, 1612.2 1110.9, 1709.1 1111.7 C 1813.0 1120.9, 1958.5 1155.3, 2055.4 1071.4 C 2159.3 1082.4, 2304.8 1229.8, 2401.7 1074.8 C 2505.6 1083.6, 2651.1 1217.9, 2748.0 1119.9 C 2851.9 1124.5, 2997.4 1165.6, 3094.3 1179.2 C 3198.2 1169.9, 3343.7 1125.8, 3440.6 1216.9" fill="none" stroke="url(#ribbon62)" stroke-width="46.4" stroke-linecap="round" stroke-opacity="0.198" /></g><g transform="rotate(-6.98 1536.0 1536.0)"><path d="M-368.6 1280.1 C -273.4 1356.4, -140.1 1260.6, -51.2 1273.4 C 44.0 1272.2, 177.4 1285.5, 266.2 1215.7 C 361.5 1207.8, 494.8 1356.1, 583.7 1197.0 C 678.9 1224.3, 812.2 1364.4, 901.1 1228.7 C 996.4 1213.7, 1129.7 1329.1, 1218.6 1291.6 C 1313.8 1289.3, 1447.1 1276.4, 1536.0 1347.5 C 1631.2 1323.1, 1764.6 1254.0, 1853.4 1362.5 C 1948.7 1340.3, 2082.0 1247.7, 2170.9 1327.5 C 2266.1 1329.6, 2399.4 1223.9, 2488.3 1263.8 C 2583.6 1269.1, 2716.9 1294.7, 2805.8 1209.9 C 2901.0 1194.9, 3034.3 1351.3, 3123.2 1198.6 C 3218.4 1179.0, 3351.8 1327.0, 3440.6 1236.8" fill="none" stroke="url(#ribbon62)" stroke-width="42.4" stroke-linecap="round" stroke-opacity="0.224" /></g><g transform="rotate(-6.40 1536.0 1536.0)"><path d="M-368.6 1433.7 C -225.8 1370.0, -25.8 1453.5, 107.5 1344.0 C 250.4 1326.7, 450.4 1512.4, 583.7 1361.8 C 726.5 1347.7, 926.5 1484.3, 1059.8 1423.2 C 1202.7 1421.0, 1402.7 1438.1, 1536.0 1491.0 C 1678.8 1491.6, 1878.8 1397.9, 2012.2 1524.0 C 2155.0 1512.7, 2355.0 1370.0, 2488.3 1502.2 C 2631.2 1478.6, 2831.2 1406.3, 2964.5 1438.9 C 3107.3 1440.7, 3307.3 1431.6, 3440.6 1372.4" fill="none" stroke="url(#ribbon62)" stroke-width="38.4" stroke-linecap="round" stroke-opacity="0.250" /></g><g transform="rotate(-5.82 1536.0 1536.0)"><path d="M-368.6 1742.2 C -241.7 1781.7, -63.9 1723.1, 54.6 1832.3 C 181.6 1853.6, 359.4 1679.0, 477.9 1832.0 C 604.8 1809.7, 782.6 1689.1, 901.1 1777.1 C 1028.1 1771.6, 1205.9 1706.3, 1324.4 1701.1 C 1451.3 1689.4, 1629.1 1767.5, 1747.6 1650.0 C 1874.6 1662.4, 2052.4 1836.7, 2170.9 1654.8 C 2297.9 1656.8, 2475.6 1772.1, 2594.1 1712.6 C 2721.1 1717.5, 2898.9 1762.7, 3017.4 1788.3 C 3144.4 1783.2, 3322.1 1713.0, 3440.6 1836.1" fill="none" stroke="url(#ribbon62)" stroke-width="34.4" stroke-linecap="round" stroke-opacity="0.276" /></g><g transform="rotate(-5.24 1536.0 1536.0)"><path d="M-368.6 1902.6 C -254.4 1853.2, -94.4 1945.0, 12.3 1927.9 C 126.6 1924.3, 286.6 1878.9, 393.2 1993.2 C 507.5 2008.2, 667.5 1838.5, 774.1 2003.5 C 888.4 2015.1, 1048.4 1819.5, 1155.1 1952.6 C 1269.4 1958.4, 1429.3 1873.1, 1536.0 1871.4 C 1650.3 1883.7, 1810.3 1927.3, 1916.9 1809.1 C 2031.2 1833.7, 2191.2 1970.7, 2297.9 1803.6 C 2412.1 1810.8, 2572.1 1936.0, 2678.8 1858.1 C 2793.1 1871.1, 2953.1 1952.3, 3059.7 1939.6 C 3174.0 1947.9, 3334.0 1861.5, 3440.6 1998.7" fill="none" stroke="url(#ribbon62)" stroke-width="30.4" stroke-linecap="round" stroke-opacity="0.302" /></g><g transform="rotate(-4.66 1536.0 1536.0)"><path d="M-368.6 2074.7 C -264.8 2176.3, -119.3 1973.5, -22.3 2111.5 C 81.5 2124.3, 227.0 2058.9, 324.0 2024.6 C 427.8 2037.0, 573.3 2095.4, 670.3 1968.1 C 774.1 1995.1, 919.6 2128.1, 1016.6 1976.3 C 1120.4 2003.1, 1265.9 2189.2, 1362.9 2044.2 C 1466.7 2034.0, 1612.2 2110.4, 1709.1 2130.6 C 1813.0 2111.4, 1958.5 2011.4, 2055.4 2183.2 C 2159.3 2185.8, 2304.8 2023.8, 2401.7 2169.9 C 2505.6 2181.0, 2651.1 2008.9, 2748.0 2099.0 C 2851.9 2100.2, 2997.4 2067.0, 3094.3 2013.3 C 3198.2 2013.7, 3343.7 2142.7, 3440.6 1964.9" fill="none" stroke="url(#ribbon62)" stroke-width="26.4" stroke-linecap="round" stroke-opacity="0.328" /></g><g transform="rotate(-4.08 1536.0 1536.0)"><path d="M-368.6 2293.0 C -273.4 2322.0, -140.1 2275.4, -51.2 2233.2 C 44.0 2254.0, 177.4 2337.6, 266.2 2177.7 C 361.5 2173.0, 494.8 2387.6, 583.7 2192.1 C 678.9 2171.7, 812.2 2326.4, 901.1 2267.7 C 996.4 2260.2, 1129.7 2320.8, 1218.6 2358.7 C 1313.8 2375.4, 1447.1 2223.5, 1536.0 2409.9 C 1631.2 2451.5, 1764.6 2245.4, 1853.4 2390.2 C 1948.7 2404.3, 2082.0 2238.3, 2170.9 2311.5 C 2266.1 2310.9, 2399.4 2276.4, 2488.3 2221.7 C 2583.6 2242.2, 2716.9 2361.2, 2805.8 2175.1 C 2901.0 2186.3, 3034.3 2378.6, 3123.2 2200.1 C 3218.4 2205.1, 3351.8 2373.3, 3440.6 2281.5" fill="none" stroke="url(#ribbon62)" stroke-width="22.4" stroke-linecap="round" stroke-opacity="0.354" /></g><g transform="rotate(-3.50 1536.0 1536.0)"><path d="M-368.6 2501.1 C -225.8 2611.4, -25.8 2361.6, 107.5 2567.2 C 250.4 2582.2, 450.4 2471.7, 583.7 2470.2 C 726.5 2465.0, 926.5 2515.3, 1059.8 2392.0 C 1202.7 2387.9, 1402.7 2575.7, 1536.0 2380.0 C 1678.8 2404.9, 1878.8 2576.0, 2012.2 2441.5 C 2155.0 2449.8, 2355.0 2552.0, 2488.3 2539.2 C 2631.2 2532.9, 2831.2 2469.3, 2964.5 2613.8 C 3107.3 2654.2, 3307.3 2447.7, 3440.6 2620.1" fill="none" stroke="url(#ribbon62)" stroke-width="18.4" stroke-linecap="round" stroke-opacity="0.380" /></g><g transform="rotate(-2.92 1536.0 1536.0)"><path d="M-368.6 2661.5 C -241.7 2726.1, -63.9 2633.8, 54.6 2793.4 C 181.6 2809.8, 359.4 2510.9, 477.9 2765.4 C 604.8 2757.7, 782.6 2628.8, 901.1 2674.3 C 1028.1 2672.5, 1205.9 2650.7, 1324.4 2575.4 C 1451.3 2570.4, 1629.1 2760.6, 1747.6 2528.7 C 1874.6 2490.5, 2052.4 2761.1, 2170.9 2562.6 C 2297.9 2601.5, 2475.6 2703.1, 2594.1 2656.4 C 2721.1 2655.0, 2898.9 2666.4, 3017.4 2753.3 C 3144.4 2749.2, 3322.1 2630.4, 3440.6 2794.5" fill="none" stroke="url(#ribbon62)" stroke-width="14.4" stroke-linecap="round" stroke-opacity="0.406" /></g></g>
  <g><ellipse cx="1536.0" cy="1551.9" rx="728.6" ry="605.7" fill="url(#extrude62)" opacity="0.220" /><ellipse cx="1536.0" cy="1567.7" rx="736.0" ry="610.9" fill="url(#extrude62)" opacity="0.205" /><ellipse cx="1536.0" cy="1583.6" rx="743.4" ry="616.1" fill="url(#extrude62)" opacity="0.190" /><ellipse cx="1536.0" cy="1599.5" rx="750.9" ry="621.3" fill="url(#extrude62)" opacity="0.175" /><ellipse cx="1536.0" cy="1615.4" rx="758.3" ry="626.5" fill="url(#extrude62)" opacity="0.160" /><ellipse cx="1536.0" cy="1631.2" rx="765.7" ry="631.7" fill="url(#extrude62)" opacity="0.145" /><ellipse cx="1536.0" cy="1647.1" rx="773.2" ry="636.9" fill="url(#extrude62)" opacity="0.130" /><ellipse cx="1536.0" cy="1663.0" rx="780.6" ry="642.1" fill="url(#extrude62)" opacity="0.115" /><ellipse cx="1536.0" cy="1678.8" rx="788.0" ry="647.4" fill="url(#extrude62)" opacity="0.100" /><ellipse cx="1536.0" cy="1694.7" rx="795.5" ry="652.6" fill="url(#extrude62)" opacity="0.085" /><ellipse cx="1536.0" cy="1710.6" rx="802.9" ry="657.8" fill="url(#extrude62)" opacity="0.070" /><ellipse cx="1536.0" cy="1726.5" rx="810.3" ry="663.0" fill="url(#extrude62)" opacity="0.055" /></g>
  <ellipse cx="1536.0" cy="1726.5" rx="773.2" ry="214.9" fill="#0B1D2D" opacity="0.24" />
  <ellipse cx="1536.0" cy="1536.0" rx="743.4" ry="651.3" fill="url(#orb62)" stroke="#FFFFFF" stroke-opacity="0.42" stroke-width="7" />
  <ellipse cx="1431.9" cy="1392.7" rx="505.5" ry="299.6" fill="#FFFFFF" opacity="0.25" />
  <path d="M 199.4 399.4 C 1013.8 -30.7, 2058.2 768.0, 2872.6 215.0 L 2872.6 983.0 C 2089.0 1228.8, 1013.8 307.2, 199.4 1167.4 Z" fill="url(#glass62)" />
  <rect x="270" y="270" width="2532" height="2532" rx="430" fill="none" stroke="#FFFFFF" stroke-opacity="0.30" stroke-width="5" />
  <rect x="288.4" y="288.4" width="2495.1" height="2495.1" rx="399" fill="none" stroke="#53E3A6" stroke-opacity="0.35" stroke-width="3" />
  <g filter="url(#soft62)"><rect x="2326" y="2422" width="36" height="2" fill="#FFFFFF" opacity="0.659" /><rect x="2343" y="2405" width="2" height="36" fill="#FFFFFF" opacity="0.659" /><rect x="1535" y="929" width="56" height="2" fill="#FFFFFF" opacity="0.810" /><rect x="1562" y="902" width="2" height="56" fill="#FFFFFF" opacity="0.810" /><rect x="2226" y="2453" width="36" height="2" fill="#FFFFFF" opacity="0.384" /><rect x="2243" y="2436" width="2" height="36" fill="#FFFFFF" opacity="0.384" /><rect x="2247" y="2518" width="26" height="2" fill="#FFFFFF" opacity="0.400" /><rect x="2259" y="2506" width="2" height="26" fill="#FFFFFF" opacity="0.400" /><rect x="876" y="2182" width="40" height="2" fill="#FFFFFF" opacity="0.771" /><rect x="895" y="2163" width="2" height="40" fill="#FFFFFF" opacity="0.771" /><rect x="1153" y="2409" width="64" height="2" fill="#FFFFFF" opacity="0.346" /><rect x="1184" y="2378" width="2" height="64" fill="#FFFFFF" opacity="0.346" /><rect x="487" y="1031" width="72" height="2" fill="#FFFFFF" opacity="0.509" /><rect x="522" y="996" width="2" height="72" fill="#FFFFFF" opacity="0.509" /><rect x="2183" y="861" width="38" height="2" fill="#FFFFFF" opacity="0.779" /><rect x="2201" y="843" width="2" height="38" fill="#FFFFFF" opacity="0.779" /><rect x="485" y="330" width="28" height="2" fill="#FFFFFF" opacity="0.308" /><rect x="498" y="317" width="2" height="28" fill="#FFFFFF" opacity="0.308" /><rect x="907" y="1638" width="42" height="2" fill="#FFFFFF" opacity="0.617" /><rect x="927" y="1618" width="2" height="42" fill="#FFFFFF" opacity="0.617" /><rect x="1843" y="1517" width="26" height="2" fill="#FFFFFF" opacity="0.630" /><rect x="1855" y="1505" width="2" height="26" fill="#FFFFFF" opacity="0.630" /><rect x="312" y="841" width="50" height="2" fill="#FFFFFF" opacity="0.531" /><rect x="336" y="817" width="2" height="50" fill="#FFFFFF" opacity="0.531" /><rect x="2478" y="1968" width="72" height="2" fill="#FFFFFF" opacity="0.819" /><rect x="2513" y="1933" width="2" height="72" fill="#FFFFFF" opacity="0.819" /><rect x="1951" y="1079" width="48" height="2" fill="#FFFFFF" opacity="0.719" /><rect x="1974" y="1056" width="2" height="48" fill="#FFFFFF" opacity="0.719" /><rect x="804" y="1066" width="76" height="2" fill="#FFFFFF" opacity="0.744" /><rect x="841" y="1029" width="2" height="76" fill="#FFFFFF" opacity="0.744" /><rect x="455" y="613" width="30" height="2" fill="#FFFFFF" opacity="0.642" /><rect x="469" y="599" width="2" height="30" fill="#FFFFFF" opacity="0.642" /><rect x="2511" y="1381" width="44" height="2" fill="#FFFFFF" opacity="0.551" /><rect x="2532" y="1360" width="2" height="44" fill="#FFFFFF" opacity="0.551" /><rect x="1483" y="285" width="50" height="2" fill="#FFFFFF" opacity="0.716" /><rect x="1507" y="261" width="2" height="50" fill="#FFFFFF" opacity="0.716" /><rect x="518" y="2464" width="74" height="2" fill="#FFFFFF" opacity="0.724" /><rect x="554" y="2428" width="2" height="74" fill="#FFFFFF" opacity="0.724" /><rect x="2770" y="536" width="66" height="2" fill="#FFFFFF" opacity="0.469" /><rect x="2802" y="504" width="2" height="66" fill="#FFFFFF" opacity="0.469" /><rect x="1218" y="2340" width="30" height="2" fill="#FFFFFF" opacity="0.805" /><rect x="1232" y="2326" width="2" height="30" fill="#FFFFFF" opacity="0.805" /><rect x="1034" y="1094" width="34" height="2" fill="#FFFFFF" opacity="0.850" /><rect x="1050" y="1078" width="2" height="34" fill="#FFFFFF" opacity="0.850" /><rect x="700" y="1690" width="72" height="2" fill="#FFFFFF" opacity="0.627" /><rect x="735" y="1655" width="2" height="72" fill="#FFFFFF" opacity="0.627" /><rect x="2172" y="819" width="40" height="2" fill="#FFFFFF" opacity="0.802" /><rect x="2191" y="800" width="2" height="40" fill="#FFFFFF" opacity="0.802" /><rect x="2620" y="628" width="66" height="2" fill="#FFFFFF" opacity="0.749" /><rect x="2652" y="596" width="2" height="66" fill="#FFFFFF" opacity="0.749" /><rect x="2192" y="2749" width="54" height="2" fill="#FFFFFF" opacity="0.746" /><rect x="2218" y="2723" width="2" height="54" fill="#FFFFFF" opacity="0.746" /></g>
  <g opacity="0.52"><path d="M996 1582 L1316 2131 L2148 1121" fill="none" stroke="#0C2030" stroke-width="90" stroke-linecap="round" stroke-linejoin="round" /><circle cx="996" cy="1582" r="47" fill="#0C2030" /><circle cx="1316" cy="2131" r="47" fill="#0C2030" /><circle cx="2148" cy="1121" r="47" fill="#0C2030" /></g>
  <g filter="url(#soft62)"><path d="M960 1536 L1280 2085 L2112 1075" fill="none" stroke="url(#symbol62)" stroke-width="90" stroke-linecap="round" stroke-linejoin="round" /><circle cx="960" cy="1536" r="47" fill="url(#symbol62)" /><circle cx="1280" cy="2085" r="47" fill="url(#symbol62)" /><circle cx="2112" cy="1075" r="47" fill="url(#symbol62)" /></g>
  <rect x="138" y="138" width="2796" height="2796" rx="629" fill="#FFFFFF" filter="url(#grain62)" opacity="0.18" />
</svg>
