<svg xmlns="http://www.w3.org/2000/svg" width="3072" height="3072" viewBox="0 0 3072 3072">
  <title>QuartzOS App Icon 083 - quartz_mail_083</title>
  <defs><linearGradient id="bg82" x1="0%" y1="0%" x2="100%" y2="100%"><stop offset="0%" stop-color="#FFD84D" /><stop offset="26%" stop-color="#36D1FF" /><stop offset="56%" stop-color="#8A5CFF" /><stop offset="78%" stop-color="#58A3D8" /><stop offset="100%" stop-color="#1D2F45" /></linearGradient><radialGradient id="sun82" cx="30%" cy="23%" r="88%"><stop offset="0%" stop-color="#FFFFFF" stop-opacity="0.62" /><stop offset="30%" stop-color="#FF6AB3" stop-opacity="0.35" /><stop offset="100%" stop-color="#FF6AB3" stop-opacity="0" /></radialGradient><linearGradient id="glass82" x1="0%" y1="0%" x2="0%" y2="100%"><stop offset="0%" stop-color="#FFFFFF" stop-opacity="0.70" /><stop offset="46%" stop-color="#FFFFFF" stop-opacity="0.26" /><stop offset="100%" stop-color="#FFFFFF" stop-opacity="0.00" /></linearGradient><linearGradient id="ribbon82" x1="0%" y1="0%" x2="100%" y2="0%"><stop offset="0%" stop-color="#FFD84D" stop-opacity="0.18" /><stop offset="34%" stop-color="#36D1FF" stop-opacity="0.72" /><stop offset="66%" stop-color="#8A5CFF" stop-opacity="0.72" /><stop offset="100%" stop-color="#FF6AB3" stop-opacity="0.18" /></linearGradient><radialGradient id="orb82" cx="34%" cy="27%" r="74%"><stop offset="0%" stop-color="#FFFFFF" stop-opacity="0.84" /><stop offset="30%" stop-color="#FFD84D" stop-opacity="0.52" /><stop offset="68%" stop-color="#36D1FF" stop-opacity="0.42" /><stop offset="100%" stop-color="#8A5CFF" stop-opacity="0.20" /></radialGradient><linearGradient id="extrude82" x1="0%" y1="0%" x2="0%" y2="100%"><stop offset="0%" stop-color="#15283C" stop-opacity="0.45" /><stop offset="100%" stop-color="#08131D" stop-opacity="0.06" /></linearGradient><linearGradient id="symbol82" x1="0%" y1="0%" x2="100%" y2="100%"><stop offset="0%" stop-color="#FFFFFF" /><stop offset="100%" stop-color="#FF6AB3" /></linearGradient><filter id="shadow82" x="-40%" y="-40%" width="180%" height="180%"><feDropShadow dx="0" dy="49" stdDeviation="86" flood-color="#06111A" flood-opacity="0.54" /></filter><filter id="soft82" x="-40%" y="-40%" width="180%" height="180%"><feDropShadow dx="0" dy="0" stdDeviation="14" flood-color="#FFD84D" flood-opacity="0.45" /></filter><filter id="grain82"><feTurbulence type="fractalNoise" baseFrequency="0.843" numOctaves="2" seed="82" /><feColorMatrix type="saturate" values="0" /><feComponentTransfer><feFuncA type="table" tableValues="0 0.09" /></feComponentTransfer></filter></defs>
  <rect x="138" y="138" width="2796" height="2796" rx="629" fill="url(#bg82)" filter="url(#shadow82)" />
  <rect x="138" y="138" width="2796" height="2796" rx="629" fill="url(#sun82)" />
  <g><circle cx="901" cy="685" r="94" fill="#FFFFFF" opacity="0.085" /><circle cx="567" cy="1058" r="111" fill="#FFFFFF" opacity="0.197" /><circle cx="1353" cy="1200" r="108" fill="#FFFFFF" opacity="0.122" /><circle cx="2338" cy="1798" r="129" fill="#FFFFFF" opacity="0.200" /><circle cx="1181" cy="673" r="154" fill="#FFFFFF" opacity="0.096" /><circle cx="1294" cy="604" r="87" fill="#FFFFFF" opacity="0.232" /><circle cx="1941" cy="1456" r="155" fill="#FFFFFF" opacity="0.176" /><circle cx="1363" cy="1962" r="69" fill="#FFFFFF" opacity="0.231" /><circle cx="1585" cy="1162" r="96" fill="#FFFFFF" opacity="0.101" /><circle cx="1799" cy="2078" r="131" fill="#FFFFFF" opacity="0.060" /><circle cx="519" cy="1642" r="107" fill="#FFFFFF" opacity="0.219" /><circle cx="1556" cy="1814" r="85" fill="#FFFFFF" opacity="0.167" /><circle cx="811" cy="729" r="129" fill="#FFFFFF" opacity="0.239" /><circle cx="1489" cy="2411" r="79" fill="#FFFFFF" opacity="0.139" /><circle cx="860" cy="313" r="127" fill="#FFFFFF" opacity="0.200" /><circle cx="2015" cy="753" r="153" fill="#FFFFFF" opacity="0.201" /><circle cx="1903" cy="1985" r="143" fill="#FFFFFF" opacity="0.235" /><circle cx="939" cy="962" r="94" fill="#FFFFFF" opacity="0.235" /><circle cx="645" cy="2230" r="156" fill="#FFFFFF" opacity="0.218" /><circle cx="745" cy="1579" r="117" fill="#FFFFFF" opacity="0.133" /><circle cx="719" cy="1547" r="148" fill="#FFFFFF" opacity="0.176" /><circle cx="2042" cy="1463" r="121" fill="#FFFFFF" opacity="0.194" /><circle cx="949" cy="1142" r="104" fill="#FFFFFF" opacity="0.225" /><circle cx="1811" cy="457" r="132" fill="#FFFFFF" opacity="0.142" /><circle cx="2423" cy="1565" r="92" fill="#FFFFFF" opacity="0.203" /><circle cx="1147" cy="1987" r="78" fill="#FFFFFF" opacity="0.182" /><circle cx="1720" cy="899" r="38" fill="#FFFFFF" opacity="0.074" /><circle cx="1470" cy="848" r="116" fill="#FFFFFF" opacity="0.126" /></g>
  <g><path d="M 329.4 578.1 L 2726.9 301.6 L 2726.9 787.1 L 329.4 1063.6 Z" fill="#FFFFFF" opacity="0.115" /><path d="M 178.7 882.4 L 2871.4 605.9 L 2871.4 1076.9 L 178.7 1353.4 Z" fill="#FFFFFF" opacity="0.101" /><path d="M 232.7 1166.1 L 2885.9 889.6 L 2885.9 1333.0 L 232.7 1609.5 Z" fill="#FFFFFF" opacity="0.113" /><path d="M 195.5 1378.6 L 2709.1 1102.1 L 2709.1 1556.2 L 195.5 1832.7 Z" fill="#FFFFFF" opacity="0.108" /><path d="M 149.6 1635.8 L 2841.8 1359.3 L 2841.8 1813.5 L 149.6 2090.0 Z" fill="#FFFFFF" opacity="0.193" /><path d="M 348.8 1918.3 L 2877.4 1641.9 L 2877.4 2109.6 L 348.8 2386.1 Z" fill="#FFFFFF" opacity="0.130" /><path d="M 258.4 2191.8 L 2850.2 1915.3 L 2850.2 2362.3 L 258.4 2638.8 Z" fill="#FFFFFF" opacity="0.204" /><path d="M 175.0 2433.0 L 2923.0 2156.5 L 2923.0 2576.5 L 175.0 2853.0 Z" fill="#FFFFFF" opacity="0.209" /></g>
  <g filter="url(#soft82)"><g transform="rotate(-11.83 1536.0 1536.0)"><path d="M-368.6 512.8 C -225.8 460.9, -25.8 544.0, 107.5 514.8 C 250.4 515.0, 450.4 510.9, 583.7 553.8 C 726.5 551.4, 926.5 486.5, 1059.8 568.0 C 1202.7 578.4, 1402.7 472.6, 1536.0 548.8 C 1678.8 554.6, 1878.8 489.9, 2012.2 507.7 C 2155.0 508.1, 2355.0 516.0, 2488.3 469.8 C 2631.2 453.8, 2831.2 527.1, 2964.5 458.0 C 3107.3 455.7, 3307.3 549.4, 3440.6 479.4" fill="none" stroke="url(#ribbon82)" stroke-width="58.4" stroke-linecap="round" stroke-opacity="0.120" /></g><g transform="rotate(-11.25 1536.0 1536.0)"><path d="M-368.6 773.9 C -241.7 811.9, -63.9 708.9, 54.6 792.7 C 181.6 792.3, 359.4 762.6, 477.9 744.4 C 604.8 735.9, 782.6 788.2, 901.1 713.9 C 1028.1 730.4, 1205.9 821.1, 1324.4 719.8 C 1451.3 707.7, 1629.1 808.4, 1747.6 758.5 C 1874.6 759.9, 2052.4 785.2, 2170.9 806.5 C 2297.9 812.8, 2475.6 736.6, 2594.1 834.7 C 2721.1 817.4, 2898.9 727.6, 3017.4 826.0 C 3144.4 825.7, 3322.1 746.5, 3440.6 785.7" fill="none" stroke="url(#ribbon82)" stroke-width="54.4" stroke-linecap="round" stroke-opacity="0.146" /></g><g transform="rotate(-10.67 1536.0 1536.0)"><path d="M-368.6 950.2 C -254.4 937.7, -94.4 959.3, 12.3 991.0 C 126.6 975.3, 286.6 933.7, 393.2 1018.9 C 507.5 1004.6, 667.5 868.6, 774.1 1005.2 C 888.4 991.7, 1048.4 916.4, 1155.1 958.1 C 1269.4 960.9, 1429.3 943.0, 1536.0 906.2 C 1650.3 921.8, 1810.3 994.4, 1916.9 881.0 C 2031.2 875.7, 2191.2 984.5, 2297.9 897.8 C 2412.1 916.4, 2572.1 974.1, 2678.8 946.4 C 2793.1 945.9, 2953.1 952.8, 3059.7 997.3 C 3174.0 980.6, 3334.0 907.9, 3440.6 1019.6" fill="none" stroke="url(#ribbon82)" stroke-width="50.4" stroke-linecap="round" stroke-opacity="0.172" /></g><g transform="rotate(-10.09 1536.0 1536.0)"><path d="M-368.6 1063.6 C -264.8 995.6, -119.3 1147.9, -22.3 1032.8 C 81.5 1043.6, 227.0 1075.5, 324.0 1092.4 C 427.8 1103.2, 573.3 1032.0, 670.3 1134.5 C 774.1 1158.4, 919.6 1014.4, 1016.6 1133.6 C 1120.4 1122.8, 1265.9 1025.2, 1362.9 1090.3 C 1466.7 1095.6, 1612.2 1032.4, 1709.1 1030.8 C 1813.0 1021.5, 1958.5 1099.6, 2055.4 991.2 C 2159.3 1011.4, 2304.8 1134.4, 2401.7 995.5 C 2505.6 997.8, 2651.1 1127.8, 2748.0 1041.2 C 2851.9 1038.6, 2997.4 1079.3, 3094.3 1100.4 C 3198.2 1089.3, 3343.7 1028.2, 3440.6 1137.4" fill="none" stroke="url(#ribbon82)" stroke-width="46.4" stroke-linecap="round" stroke-opacity="0.198" /></g><g transform="rotate(-9.51 1536.0 1536.0)"><path d="M-368.6 1297.4 C -273.4 1330.5, -140.1 1284.1, -51.2 1373.9 C 44.0 1349.7, 177.4 1221.6, 266.2 1374.8 C 361.5 1351.6, 494.8 1228.5, 583.7 1328.7 C 678.9 1332.4, 812.2 1271.3, 901.1 1263.7 C 996.4 1272.4, 1129.7 1307.8, 1218.6 1219.0 C 1313.8 1199.7, 1447.1 1345.4, 1536.0 1221.9 C 1631.2 1250.3, 1764.6 1350.5, 1853.4 1270.6 C 1948.7 1265.0, 2082.0 1313.9, 2170.9 1335.5 C 2266.1 1334.6, 2399.4 1273.6, 2488.3 1377.3 C 2583.6 1371.0, 2716.9 1230.3, 2805.8 1370.6 C 2901.0 1342.5, 3034.3 1268.1, 3123.2 1319.5 C 3218.4 1327.0, 3351.8 1280.8, 3440.6 1255.0" fill="none" stroke="url(#ribbon82)" stroke-width="42.4" stroke-linecap="round" stroke-opacity="0.224" /></g><g transform="rotate(-8.93 1536.0 1536.0)"><path d="M-368.6 1478.2 C -225.8 1495.7, -25.8 1459.9, 107.5 1436.4 C 250.4 1426.1, 450.4 1507.0, 583.7 1391.4 C 726.5 1408.8, 926.5 1527.4, 1059.8 1399.0 C 1202.7 1393.0, 1402.7 1503.5, 1536.0 1454.7 C 1678.8 1453.5, 1878.8 1505.4, 2012.2 1524.6 C 2155.0 1522.8, 2355.0 1435.0, 2488.3 1566.3 C 2631.2 1589.4, 2831.2 1401.0, 2964.5 1554.6 C 3107.3 1534.3, 3307.3 1399.5, 3440.6 1496.5" fill="none" stroke="url(#ribbon82)" stroke-width="38.4" stroke-linecap="round" stroke-opacity="0.250" /></g><g transform="rotate(-8.35 1536.0 1536.0)"><path d="M-368.6 1728.5 C -241.7 1682.1, -63.9 1761.1, 54.6 1634.4 C 181.6 1632.4, 359.4 1767.4, 477.9 1644.1 C 604.8 1624.9, 782.6 1758.7, 901.1 1705.0 C 1028.1 1703.5, 1205.9 1747.9, 1324.4 1780.1 C 1451.3 1775.9, 1629.1 1701.5, 1747.6 1823.9 C 1874.6 1829.3, 2052.4 1638.9, 2170.9 1809.8 C 2297.9 1777.7, 2475.6 1693.3, 2594.1 1746.4 C 2721.1 1752.6, 2898.9 1722.0, 3017.4 1672.1 C 3144.4 1679.7, 3322.1 1777.7, 3440.6 1632.0" fill="none" stroke="url(#ribbon82)" stroke-width="34.4" stroke-linecap="round" stroke-opacity="0.276" /></g><g transform="rotate(-7.77 1536.0 1536.0)"><path d="M-368.6 1930.8 C -254.4 1841.9, -94.4 1961.8, 12.3 1944.3 C 126.6 1942.2, 286.6 1925.5, 393.2 2014.7 C 507.5 1995.5, 667.5 1904.9, 774.1 2034.2 C 888.4 2040.7, 1048.4 1852.4, 1155.1 1990.9 C 1269.4 1981.2, 1429.3 1867.2, 1536.0 1911.2 C 1650.3 1910.1, 1810.3 1946.6, 1916.9 1843.3 C 2031.2 1870.1, 2191.2 2007.5, 2297.9 1828.5 C 2412.1 1833.7, 2572.1 1964.9, 2678.8 1875.7 C 2793.1 1874.6, 2953.1 1996.2, 3059.7 1956.3 C 3174.0 1951.9, 3334.0 1911.8, 3440.6 2021.4" fill="none" stroke="url(#ribbon82)" stroke-width="30.4" stroke-linecap="round" stroke-opacity="0.302" /></g><g transform="rotate(-7.19 1536.0 1536.0)"><path d="M-368.6 2125.9 C -264.8 2033.1, -119.3 2210.4, -22.3 2048.9 C 81.5 2044.9, 227.0 2195.1, 324.0 2130.4 C 427.8 2131.2, 573.3 2120.7, 670.3 2209.2 C 774.1 2208.3, 919.6 2054.3, 1016.6 2237.5 C 1120.4 2228.0, 1265.9 1997.8, 1362.9 2198.1 C 1466.7 2209.6, 1612.2 2044.0, 1709.1 2115.0 C 1813.0 2114.4, 1958.5 2136.3, 2055.4 2038.5 C 2159.3 2027.0, 2304.8 2215.2, 2401.7 2015.0 C 2505.6 1974.3, 2651.1 2198.5, 2748.0 2058.9 C 2851.9 2043.5, 2997.4 2196.9, 3094.3 2143.4 C 3198.2 2146.2, 3343.7 2105.5, 3440.6 2217.3" fill="none" stroke="url(#ribbon82)" stroke-width="26.4" stroke-linecap="round" stroke-opacity="0.328" /></g><g transform="rotate(-6.61 1536.0 1536.0)"><path d="M-368.6 2231.9 C -273.4 2326.9, -140.1 2154.9, -51.2 2259.6 C 44.0 2266.3, 177.4 2211.2, 266.2 2168.2 C 361.5 2168.9, 494.8 2265.6, 583.7 2115.5 C 678.9 2094.8, 812.2 2277.9, 901.1 2133.4 C 996.4 2134.2, 1129.7 2319.6, 1218.6 2211.0 C 1313.8 2207.5, 1447.1 2240.4, 1536.0 2301.3 C 1631.2 2279.0, 1764.6 2181.1, 1853.4 2349.5 C 1948.7 2363.3, 2082.0 2176.3, 2170.9 2326.4 C 2266.1 2299.1, 2399.4 2145.5, 2488.3 2245.9 C 2583.6 2247.0, 2716.9 2224.9, 2805.8 2157.0 C 2901.0 2155.1, 3034.3 2300.6, 3123.2 2113.5 C 3218.4 2148.5, 3351.8 2300.5, 3440.6 2141.8" fill="none" stroke="url(#ribbon82)" stroke-width="22.4" stroke-linecap="round" stroke-opacity="0.354" /></g><g transform="rotate(-6.03 1536.0 1536.0)"><path d="M-368.6 2424.3 C -225.8 2491.5, -25.8 2330.0, 107.5 2550.2 C 250.4 2549.9, 450.4 2347.5, 583.7 2508.7 C 726.5 2526.9, 926.5 2374.4, 1059.8 2416.0 C 1202.7 2418.8, 1402.7 2427.4, 1536.0 2328.4 C 1678.8 2323.6, 1878.8 2516.0, 2012.2 2299.0 C 2155.0 2339.1, 2355.0 2487.4, 2488.3 2345.6 C 2631.2 2324.7, 2831.2 2504.9, 2964.5 2440.0 C 3107.3 2443.6, 3307.3 2411.7, 3440.6 2524.9" fill="none" stroke="url(#ribbon82)" stroke-width="18.4" stroke-linecap="round" stroke-opacity="0.380" /></g><g transform="rotate(-5.45 1536.0 1536.0)"><path d="M-368.6 2638.7 C -241.7 2572.1, -63.9 2718.8, 54.6 2662.3 C 181.6 2667.3, 359.4 2617.8, 477.9 2749.0 C 604.8 2740.3, 782.6 2556.8, 901.1 2768.9 C 1028.1 2742.6, 1205.9 2502.1, 1324.4 2709.7 C 1451.3 2701.1, 1629.1 2597.8, 1747.6 2607.5 C 1874.6 2619.4, 2052.4 2670.3, 2170.9 2524.2 C 2297.9 2491.7, 2475.6 2692.5, 2594.1 2510.3 C 2721.1 2528.0, 2898.9 2681.5, 3017.4 2574.3 C 3144.4 2566.1, 3322.1 2666.2, 3440.6 2677.4" fill="none" stroke="url(#ribbon82)" stroke-width="14.4" stroke-linecap="round" stroke-opacity="0.406" /></g></g>
  <g><ellipse cx="1536.0" cy="1551.9" rx="728.6" ry="605.7" fill="url(#extrude82)" opacity="0.220" /><ellipse cx="1536.0" cy="1567.7" rx="736.0" ry="610.9" fill="url(#extrude82)" opacity="0.205" /><ellipse cx="1536.0" cy="1583.6" rx="743.4" ry="616.1" fill="url(#extrude82)" opacity="0.190" /><ellipse cx="1536.0" cy="1599.5" rx="750.9" ry="621.3" fill="url(#extrude82)" opacity="0.175" /><ellipse cx="1536.0" cy="1615.4" rx="758.3" ry="626.5" fill="url(#extrude82)" opacity="0.160" /><ellipse cx="1536.0" cy="1631.2" rx="765.7" ry="631.7" fill="url(#extrude82)" opacity="0.145" /><ellipse cx="1536.0" cy="1647.1" rx="773.2" ry="636.9" fill="url(#extrude82)" opacity="0.130" /><ellipse cx="1536.0" cy="1663.0" rx="780.6" ry="642.1" fill="url(#extrude82)" opacity="0.115" /><ellipse cx="1536.0" cy="1678.8" rx="788.0" ry="647.4" fill="url(#extrude82)" opacity="0.100" /><ellipse cx="1536.0" cy="1694.7" rx="795.5" ry="652.6" fill="url(#extrude82)" opacity="0.085" /><ellipse cx="1536.0" cy="1710.6" rx="802.9" ry="657.8" fill="url(#extrude82)" opacity="0.070" /><ellipse cx="1536.0" cy="1726.5" rx="810.3" ry="663.0" fill="url(#extrude82)" opacity="0.055" /></g>
  <ellipse cx="1536.0" cy="1726.5" rx="773.2" ry="214.9" fill="#0B1D2D" opacity="0.24" />
  <ellipse cx="1536.0" cy="1536.0" rx="743.4" ry="651.3" fill="url(#orb82)" stroke="#FFFFFF" stroke-opacity="0.42" stroke-width="7" />
  <ellipse cx="1431.9" cy="1392.7" rx="505.5" ry="299.6" fill="#FFFFFF" opacity="0.25" />
  <path d="M 199.4 399.4 C 1013.8 -30.7, 2058.2 768.0, 2872.6 215.0 L 2872.6 983.0 C 2089.0 1228.8, 1013.8 307.2, 199.4 1167.4 Z" fill="url(#glass82)" />
  <rect x="270" y="270" width="2532" height="2532" rx="430" fill="none" stroke="#FFFFFF" stroke-opacity="0.30" stroke-width="5" />
  <rect x="288.4" y="288.4" width="2495.1" height="2495.1" rx="399" fill="none" stroke="#FFD84D" stroke-opacity="0.35" stroke-width="3" />
  <g filter="url(#soft82)"><rect x="781" y="2585" width="70" height="2" fill="#FFFFFF" opacity="0.558" /><rect x="815" y="2551" width="2" height="70" fill="#FFFFFF" opacity="0.558" /><rect x="1677" y="1698" width="84" height="2" fill="#FFFFFF" opacity="0.373" /><rect x="1718" y="1657" width="2" height="84" fill="#FFFFFF" opacity="0.373" /><rect x="1495" y="1138" width="24" height="2" fill="#FFFFFF" opacity="0.451" /><rect x="1506" y="1127" width="2" height="24" fill="#FFFFFF" opacity="0.451" /><rect x="2603" y="1910" width="26" height="2" fill="#FFFFFF" opacity="0.371" /><rect x="2615" y="1898" width="2" height="26" fill="#FFFFFF" opacity="0.371" /><rect x="1230" y="2329" width="30" height="2" fill="#FFFFFF" opacity="0.788" /><rect x="1244" y="2315" width="2" height="30" fill="#FFFFFF" opacity="0.788" /><rect x="509" y="1005" width="30" height="2" fill="#FFFFFF" opacity="0.438" /><rect x="523" y="991" width="2" height="30" fill="#FFFFFF" opacity="0.438" /><rect x="2378" y="1535" width="54" height="2" fill="#FFFFFF" opacity="0.680" /><rect x="2404" y="1509" width="2" height="54" fill="#FFFFFF" opacity="0.680" /><rect x="1431" y="336" width="44" height="2" fill="#FFFFFF" opacity="0.684" /><rect x="1452" y="315" width="2" height="44" fill="#FFFFFF" opacity="0.684" /><rect x="1802" y="2719" width="54" height="2" fill="#FFFFFF" opacity="0.578" /><rect x="1828" y="2693" width="2" height="54" fill="#FFFFFF" opacity="0.578" /><rect x="1266" y="2031" width="84" height="2" fill="#FFFFFF" opacity="0.355" /><rect x="1307" y="1990" width="2" height="84" fill="#FFFFFF" opacity="0.355" /><rect x="2641" y="961" width="32" height="2" fill="#FFFFFF" opacity="0.562" /><rect x="2656" y="946" width="2" height="32" fill="#FFFFFF" opacity="0.562" /><rect x="2496" y="1046" width="48" height="2" fill="#FFFFFF" opacity="0.548" /><rect x="2519" y="1023" width="2" height="48" fill="#FFFFFF" opacity="0.548" /><rect x="1717" y="404" width="78" height="2" fill="#FFFFFF" opacity="0.591" /><rect x="1755" y="366" width="2" height="78" fill="#FFFFFF" opacity="0.591" /><rect x="1201" y="2570" width="76" height="2" fill="#FFFFFF" opacity="0.623" /><rect x="1238" y="2533" width="2" height="76" fill="#FFFFFF" opacity="0.623" /><rect x="596" y="2146" width="26" height="2" fill="#FFFFFF" opacity="0.516" /><rect x="608" y="2134" width="2" height="26" fill="#FFFFFF" opacity="0.516" /><rect x="494" y="1796" width="30" height="2" fill="#FFFFFF" opacity="0.431" /><rect x="508" y="1782" width="2" height="30" fill="#FFFFFF" opacity="0.431" /><rect x="1865" y="2347" width="24" height="2" fill="#FFFFFF" opacity="0.395" /><rect x="1876" y="2336" width="2" height="24" fill="#FFFFFF" opacity="0.395" /><rect x="1513" y="1640" width="76" height="2" fill="#FFFFFF" opacity="0.652" /><rect x="1550" y="1603" width="2" height="76" fill="#FFFFFF" opacity="0.652" /><rect x="1681" y="581" width="50" height="2" fill="#FFFFFF" opacity="0.573" /><rect x="1705" y="557" width="2" height="50" fill="#FFFFFF" opacity="0.573" /><rect x="832" y="384" width="84" height="2" fill="#FFFFFF" opacity="0.689" /><rect x="873" y="343" width="2" height="84" fill="#FFFFFF" opacity="0.689" /><rect x="444" y="790" width="30" height="2" fill="#FFFFFF" opacity="0.420" /><rect x="458" y="776" width="2" height="30" fill="#FFFFFF" opacity="0.420" /><rect x="743" y="2156" width="62" height="2" fill="#FFFFFF" opacity="0.725" /><rect x="773" y="2126" width="2" height="62" fill="#FFFFFF" opacity="0.725" /><rect x="1611" y="2308" width="58" height="2" fill="#FFFFFF" opacity="0.680" /><rect x="1639" y="2280" width="2" height="58" fill="#FFFFFF" opacity="0.680" /><rect x="446" y="2366" width="26" height="2" fill="#FFFFFF" opacity="0.785" /><rect x="458" y="2354" width="2" height="26" fill="#FFFFFF" opacity="0.785" /><rect x="1492" y="1128" width="70" height="2" fill="#FFFFFF" opacity="0.623" /><rect x="1526" y="1094" width="2" height="70" fill="#FFFFFF" opacity="0.623" /><rect x="540" y="1017" width="42" height="2" fill="#FFFFFF" opacity="0.659" /><rect x="560" y="997" width="2" height="42" fill="#FFFFFF" opacity="0.659" /></g>
  <g opacity="0.52"><path d="M996 1582 C1316 1006, 1572 2158, 2148 1582" fill="none" stroke="#0C2030" stroke-width="90" /><circle cx="1188" cy="1582" r="109" fill="#0C2030" /><circle cx="1572" cy="1582" r="109" fill="#0C2030" /><circle cx="1956" cy="1582" r="109" fill="#0C2030" /></g>
  <g filter="url(#soft82)"><path d="M960 1536 C1280 960, 1536 2112, 2112 1536" fill="none" stroke="url(#symbol82)" stroke-width="90" /><circle cx="1152" cy="1536" r="109" fill="url(#symbol82)" /><circle cx="1536" cy="1536" r="109" fill="url(#symbol82)" /><circle cx="1920" cy="1536" r="109" fill="url(#symbol82)" /></g>
  <rect x="138" y="138" width="2796" height="2796" rx="629" fill="#FFFFFF" filter="url(#grain82)" opacity="0.18" />
</svg>
