<svg xmlns="http://www.w3.org/2000/svg" width="3072" height="3072" viewBox="0 0 3072 3072">
  <title>QuartzOS App Icon 043 - quartz_board_043</title>
  <defs><linearGradient id="bg42" x1="0%" y1="0%" x2="100%" y2="100%"><stop offset="0%" stop-color="#36D1FF" /><stop offset="26%" stop-color="#8A5CFF" /><stop offset="56%" stop-color="#FF9F43" /><stop offset="78%" stop-color="#4B91A3" /><stop offset="100%" stop-color="#1A2630" /></linearGradient><radialGradient id="sun42" cx="28%" cy="23%" r="88%"><stop offset="0%" stop-color="#FFFFFF" stop-opacity="0.62" /><stop offset="30%" stop-color="#FFD84D" stop-opacity="0.35" /><stop offset="100%" stop-color="#FFD84D" stop-opacity="0" /></radialGradient><linearGradient id="glass42" x1="0%" y1="0%" x2="0%" y2="100%"><stop offset="0%" stop-color="#FFFFFF" stop-opacity="0.70" /><stop offset="46%" stop-color="#FFFFFF" stop-opacity="0.26" /><stop offset="100%" stop-color="#FFFFFF" stop-opacity="0.00" /></linearGradient><linearGradient id="ribbon42" x1="0%" y1="0%" x2="100%" y2="0%"><stop offset="0%" stop-color="#36D1FF" stop-opacity="0.18" /><stop offset="34%" stop-color="#8A5CFF" stop-opacity="0.72" /><stop offset="66%" stop-color="#FF9F43" stop-opacity="0.72" /><stop offset="100%" stop-color="#FFD84D" stop-opacity="0.18" /></linearGradient><radialGradient id="orb42" cx="34%" cy="27%" r="74%"><stop offset="0%" stop-color="#FFFFFF" stop-opacity="0.84" /><stop offset="30%" stop-color="#36D1FF" stop-opacity="0.52" /><stop offset="68%" stop-color="#8A5CFF" stop-opacity="0.42" /><stop offset="100%" stop-color="#FF9F43" stop-opacity="0.20" /></radialGradient><linearGradient id="extrude42" x1="0%" y1="0%" x2="0%" y2="100%"><stop offset="0%" stop-color="#15283C" stop-opacity="0.45" /><stop offset="100%" stop-color="#08131D" stop-opacity="0.06" /></linearGradient><linearGradient id="symbol42" x1="0%" y1="0%" x2="100%" y2="100%"><stop offset="0%" stop-color="#FFFFFF" /><stop offset="100%" stop-color="#FFD84D" /></linearGradient><filter id="shadow42" x="-40%" y="-40%" width="180%" height="180%"><feDropShadow dx="0" dy="49" stdDeviation="86" flood-color="#06111A" flood-opacity="0.54" /></filter><filter id="soft42" x="-40%" y="-40%" width="180%" height="180%"><feDropShadow dx="0" dy="0" stdDeviation="14" flood-color="#36D1FF" flood-opacity="0.45" /></filter><filter id="grain42"><feTurbulence type="fractalNoise" baseFrequency="0.726" numOctaves="2" seed="42" /><feColorMatrix type="saturate" values="0" /><feComponentTransfer><feFuncA type="table" tableValues="0 0.09" /></feComponentTransfer></filter></defs>
  <rect x="138" y="138" width="2796" height="2796" rx="629" fill="url(#bg42)" filter="url(#shadow42)" />
  <rect x="138" y="138" width="2796" height="2796" rx="629" fill="url(#sun42)" />
  <g><circle cx="2635" cy="1526" r="119" fill="#FFFFFF" opacity="0.097" /><circle cx="1450" cy="1616" r="104" fill="#FFFFFF" opacity="0.210" /><circle cx="738" cy="1287" r="137" fill="#FFFFFF" opacity="0.106" /><circle cx="2300" cy="654" r="87" fill="#FFFFFF" opacity="0.151" /><circle cx="1095" cy="1115" r="89" fill="#FFFFFF" opacity="0.100" /><circle cx="569" cy="2207" r="102" fill="#FFFFFF" opacity="0.099" /><circle cx="767" cy="816" r="116" fill="#FFFFFF" opacity="0.228" /><circle cx="2179" cy="2510" r="147" fill="#FFFFFF" opacity="0.237" /><circle cx="1113" cy="2652" r="54" fill="#FFFFFF" opacity="0.090" /><circle cx="2048" cy="975" r="96" fill="#FFFFFF" opacity="0.196" /><circle cx="571" cy="1292" r="117" fill="#FFFFFF" opacity="0.231" /><circle cx="876" cy="1305" r="65" fill="#FFFFFF" opacity="0.180" /><circle cx="1594" cy="2074" r="155" fill="#FFFFFF" opacity="0.102" /><circle cx="1066" cy="2566" r="119" fill="#FFFFFF" opacity="0.160" /><circle cx="1390" cy="466" r="107" fill="#FFFFFF" opacity="0.207" /><circle cx="451" cy="1795" r="39" fill="#FFFFFF" opacity="0.210" /><circle cx="1482" cy="1827" r="139" fill="#FFFFFF" opacity="0.168" /><circle cx="2512" cy="949" r="150" fill="#FFFFFF" opacity="0.175" /><circle cx="1075" cy="2370" r="125" fill="#FFFFFF" opacity="0.092" /><circle cx="1066" cy="1426" r="123" fill="#FFFFFF" opacity="0.120" /><circle cx="2241" cy="831" r="46" fill="#FFFFFF" opacity="0.189" /><circle cx="2446" cy="531" r="61" fill="#FFFFFF" opacity="0.109" /><circle cx="1239" cy="2496" r="104" fill="#FFFFFF" opacity="0.085" /><circle cx="1138" cy="1869" r="56" fill="#FFFFFF" opacity="0.226" /><circle cx="997" cy="1217" r="151" fill="#FFFFFF" opacity="0.177" /><circle cx="2257" cy="1331" r="58" fill="#FFFFFF" opacity="0.109" /><circle cx="392" cy="1716" r="65" fill="#FFFFFF" opacity="0.158" /><circle cx="2146" cy="1380" r="65" fill="#FFFFFF" opacity="0.161" /></g>
  <g><path d="M 186.9 646.7 L 2716.1 370.2 L 2716.1 816.5 L 186.9 1093.0 Z" fill="#FFFFFF" opacity="0.178" /><path d="M 334.9 853.4 L 2757.2 576.9 L 2757.2 1019.7 L 334.9 1296.2 Z" fill="#FFFFFF" opacity="0.130" /><path d="M 221.3 1111.6 L 2827.9 835.1 L 2827.9 1294.1 L 221.3 1570.6 Z" fill="#FFFFFF" opacity="0.129" /><path d="M 340.2 1418.5 L 2819.9 1142.0 L 2819.9 1601.2 L 340.2 1877.7 Z" fill="#FFFFFF" opacity="0.085" /><path d="M 239.0 1673.1 L 2852.6 1396.7 L 2852.6 1836.0 L 239.0 2112.5 Z" fill="#FFFFFF" opacity="0.108" /><path d="M 347.4 1908.5 L 2854.0 1632.0 L 2854.0 2074.6 L 347.4 2351.1 Z" fill="#FFFFFF" opacity="0.194" /><path d="M 327.3 2215.6 L 2837.0 1939.1 L 2837.0 2388.9 L 327.3 2665.3 Z" fill="#FFFFFF" opacity="0.153" /><path d="M 330.3 2433.3 L 2718.5 2156.8 L 2718.5 2584.9 L 330.3 2861.4 Z" fill="#FFFFFF" opacity="0.156" /></g>
  <g filter="url(#soft42)"><g transform="rotate(-16.80 1536.0 1536.0)"><path d="M-368.6 554.9 C -225.8 494.6, -25.8 606.9, 107.5 503.0 C 250.4 485.7, 450.4 574.4, 583.7 532.5 C 726.5 540.7, 926.5 569.3, 1059.8 575.6 C 1202.7 567.7, 1402.7 538.3, 1536.0 606.1 C 1678.8 587.4, 1878.8 528.7, 2012.2 605.5 C 2155.0 602.6, 2355.0 534.9, 2488.3 574.3 C 2631.2 567.8, 2831.2 539.7, 2964.5 531.2 C 3107.3 522.6, 3307.3 571.9, 3440.6 502.6" fill="none" stroke="url(#ribbon42)" stroke-width="58.4" stroke-linecap="round" stroke-opacity="0.120" /></g><g transform="rotate(-16.22 1536.0 1536.0)"><path d="M-368.6 708.3 C -241.7 640.5, -63.9 740.0, 54.6 648.1 C 181.6 644.7, 359.4 748.8, 477.9 678.3 C 604.8 685.0, 782.6 721.5, 901.1 726.6 C 1028.1 729.4, 1205.9 701.6, 1324.4 763.8 C 1451.3 751.2, 1629.1 680.8, 1747.6 767.3 C 1874.6 760.5, 2052.4 670.3, 2170.9 735.0 C 2297.9 740.2, 2475.6 691.8, 2594.1 686.5 C 2721.1 694.2, 2898.9 733.8, 3017.4 651.2 C 3144.4 638.8, 3322.1 764.4, 3440.6 650.5" fill="none" stroke="url(#ribbon42)" stroke-width="54.4" stroke-linecap="round" stroke-opacity="0.146" /></g><g transform="rotate(-15.64 1536.0 1536.0)"><path d="M-368.6 848.7 C -254.4 761.5, -94.4 918.5, 12.3 783.5 C 126.6 780.5, 286.6 917.8, 393.2 820.4 C 507.5 817.9, 667.5 860.1, 774.1 874.4 C 888.4 884.4, 1048.4 827.1, 1155.1 912.9 C 1269.4 888.6, 1429.3 795.6, 1536.0 912.4 C 1650.3 915.2, 1810.3 797.2, 1916.9 873.2 C 2031.2 874.0, 2191.2 821.1, 2297.9 819.2 C 2412.1 828.2, 2572.1 875.5, 2678.8 783.0 C 2793.1 790.2, 2953.1 887.0, 3059.7 786.7 C 3174.0 779.9, 3334.0 916.7, 3440.6 828.0" fill="none" stroke="url(#ribbon42)" stroke-width="50.4" stroke-linecap="round" stroke-opacity="0.172" /></g><g transform="rotate(-15.06 1536.0 1536.0)"><path d="M-368.6 1109.3 C -264.8 1144.8, -119.3 1097.4, -22.3 1183.6 C 81.5 1192.9, 227.0 1081.6, 324.0 1174.1 C 427.8 1190.4, 573.3 1088.1, 670.3 1125.3 C 774.1 1121.3, 919.6 1101.2, 1016.6 1066.8 C 1120.4 1081.4, 1265.9 1143.6, 1362.9 1034.1 C 1466.7 1052.2, 1612.2 1154.0, 1709.1 1047.0 C 1813.0 1070.6, 1958.5 1144.6, 2055.4 1097.7 C 2159.3 1096.3, 2304.8 1119.2, 2401.7 1155.4 C 2505.6 1139.8, 2651.1 1070.0, 2748.0 1185.2 C 2851.9 1168.4, 2997.4 1021.2, 3094.3 1168.9 C 3198.2 1191.3, 3343.7 1050.7, 3440.6 1116.5" fill="none" stroke="url(#ribbon42)" stroke-width="46.4" stroke-linecap="round" stroke-opacity="0.198" /></g><g transform="rotate(-14.48 1536.0 1536.0)"><path d="M-368.6 1336.2 C -273.4 1265.2, -140.1 1364.4, -51.2 1252.7 C 44.0 1284.7, 177.4 1427.1, 266.2 1279.2 C 361.5 1291.6, 494.8 1354.3, 583.7 1340.4 C 678.9 1342.0, 812.2 1331.5, 901.1 1399.0 C 996.4 1417.2, 1129.7 1281.2, 1218.6 1419.5 C 1313.8 1444.6, 1447.1 1303.4, 1536.0 1389.5 C 1631.2 1399.2, 1764.6 1319.3, 1853.4 1327.2 C 1948.7 1327.4, 2082.0 1339.4, 2170.9 1270.4 C 2266.1 1295.4, 2399.4 1367.2, 2488.3 1253.5 C 2583.6 1232.8, 2716.9 1394.8, 2805.8 1286.8 C 2901.0 1287.6, 3034.3 1391.7, 3123.2 1350.1 C 3218.4 1355.3, 3351.8 1324.5, 3440.6 1405.0" fill="none" stroke="url(#ribbon42)" stroke-width="42.4" stroke-linecap="round" stroke-opacity="0.224" /></g><g transform="rotate(-13.90 1536.0 1536.0)"><path d="M-368.6 1463.6 C -225.8 1418.9, -25.8 1525.0, 107.5 1373.0 C 250.4 1360.7, 450.4 1492.1, 583.7 1400.0 C 726.5 1382.4, 926.5 1486.8, 1059.8 1465.6 C 1202.7 1465.0, 1402.7 1463.0, 1536.0 1530.0 C 1678.8 1548.0, 1878.8 1403.6, 2012.2 1554.1 C 2155.0 1520.6, 2355.0 1371.2, 2488.3 1523.3 C 2631.2 1503.3, 2831.2 1440.6, 2964.5 1456.3 C 3107.3 1454.2, 3307.3 1468.7, 3440.6 1393.7" fill="none" stroke="url(#ribbon42)" stroke-width="38.4" stroke-linecap="round" stroke-opacity="0.250" /></g><g transform="rotate(-13.32 1536.0 1536.0)"><path d="M-368.6 1711.0 C -241.7 1738.1, -63.9 1681.3, 54.6 1796.5 C 181.6 1773.5, 359.4 1654.1, 477.9 1804.5 C 604.8 1840.5, 782.6 1601.2, 901.1 1755.9 C 1028.1 1754.3, 1205.9 1664.5, 1324.4 1680.0 C 1451.3 1679.5, 1629.1 1735.4, 1747.6 1623.0 C 1874.6 1607.5, 2052.4 1759.2, 2170.9 1619.3 C 2297.9 1628.5, 2475.6 1773.1, 2594.1 1671.3 C 2721.1 1676.7, 2898.9 1742.7, 3017.4 1747.4 C 3144.4 1753.7, 3322.1 1696.2, 3440.6 1801.4" fill="none" stroke="url(#ribbon42)" stroke-width="34.4" stroke-linecap="round" stroke-opacity="0.276" /></g><g transform="rotate(-12.74 1536.0 1536.0)"><path d="M-368.6 1935.5 C -254.4 1930.0, -94.4 1939.5, 12.3 1856.2 C 126.6 1829.7, 286.6 1990.2, 393.2 1831.1 C 507.5 1855.5, 667.5 1974.3, 774.1 1869.4 C 888.4 1893.9, 1048.4 1958.5, 1155.1 1947.7 C 1269.4 1945.6, 1429.3 1928.0, 1536.0 2018.6 C 1650.3 2017.0, 1810.3 1842.6, 1916.9 2039.1 C 2031.2 2014.6, 2191.2 1820.8, 2297.9 1996.7 C 2412.1 2019.8, 2572.1 1910.4, 2678.8 1917.2 C 2793.1 1918.9, 2953.1 1950.8, 3059.7 1848.7 C 3174.0 1869.4, 3334.0 2027.9, 3440.6 1832.9" fill="none" stroke="url(#ribbon42)" stroke-width="30.4" stroke-linecap="round" stroke-opacity="0.302" /></g><g transform="rotate(-12.16 1536.0 1536.0)"><path d="M-368.6 2051.4 C -264.8 2025.8, -119.3 2075.7, -22.3 1957.5 C 81.5 1925.2, 227.0 2127.5, 324.0 1942.4 C 427.8 1960.4, 573.3 2114.2, 670.3 1993.4 C 774.1 2004.5, 919.6 2114.3, 1016.6 2079.6 C 1120.4 2086.0, 1265.9 2021.7, 1362.9 2148.7 C 1466.7 2166.8, 1612.2 1938.4, 1709.1 2158.7 C 1813.0 2185.3, 1958.5 1943.9, 2055.4 2103.7 C 2159.3 2102.3, 2304.8 2025.2, 2401.7 2017.0 C 2505.6 2008.6, 2651.1 2075.1, 2748.0 1951.1 C 2851.9 1918.3, 2997.4 2085.3, 3094.3 1946.1 C 3198.2 1958.2, 3343.7 2092.8, 3440.6 2004.9" fill="none" stroke="url(#ribbon42)" stroke-width="26.4" stroke-linecap="round" stroke-opacity="0.328" /></g><g transform="rotate(-11.58 1536.0 1536.0)"><path d="M-368.6 2271.0 C -273.4 2169.9, -140.1 2343.0, -51.2 2277.9 C 44.0 2280.7, 177.4 2268.8, 266.2 2361.0 C 361.5 2366.9, 494.8 2174.4, 583.7 2389.4 C 678.9 2409.2, 812.2 2154.1, 901.1 2346.0 C 996.4 2346.3, 1129.7 2185.1, 1218.6 2257.1 C 1313.8 2258.6, 1447.1 2280.1, 1536.0 2176.6 C 1631.2 2177.9, 1764.6 2330.1, 1853.4 2153.3 C 1948.7 2151.7, 2082.0 2314.7, 2170.9 2201.4 C 2266.1 2226.0, 2399.4 2328.8, 2488.3 2291.7 C 2583.6 2299.3, 2716.9 2255.3, 2805.8 2369.4 C 2901.0 2370.9, 3034.3 2222.0, 3123.2 2387.4 C 3218.4 2351.7, 3351.8 2224.7, 3440.6 2334.7" fill="none" stroke="url(#ribbon42)" stroke-width="22.4" stroke-linecap="round" stroke-opacity="0.354" /></g><g transform="rotate(-11.00 1536.0 1536.0)"><path d="M-368.6 2398.5 C -225.8 2389.3, -25.8 2411.7, 107.5 2480.9 C 250.4 2484.2, 450.4 2342.4, 583.7 2524.3 C 726.5 2538.1, 926.5 2248.6, 1059.8 2491.4 C 1202.7 2517.4, 1402.7 2358.6, 1536.0 2402.2 C 1678.8 2403.4, 1878.8 2396.0, 2012.2 2310.8 C 2155.0 2305.2, 2355.0 2428.6, 2488.3 2272.6 C 2631.2 2226.3, 2831.2 2506.8, 2964.5 2310.8 C 3107.3 2322.8, 3307.3 2500.5, 3440.6 2402.3" fill="none" stroke="url(#ribbon42)" stroke-width="18.4" stroke-linecap="round" stroke-opacity="0.380" /></g><g transform="rotate(-10.42 1536.0 1536.0)"><path d="M-368.6 2703.0 C -241.7 2701.9, -63.9 2703.9, 54.6 2797.5 C 181.6 2819.3, 359.4 2625.2, 477.9 2835.9 C 604.8 2864.3, 782.6 2549.0, 901.1 2793.8 C 1028.1 2760.0, 1205.9 2664.0, 1324.4 2696.5 C 1451.3 2696.5, 1629.1 2705.8, 1747.6 2603.1 C 1874.6 2639.9, 2052.4 2745.1, 2170.9 2570.3 C 2297.9 2620.2, 2475.6 2816.8, 2594.1 2618.0 C 2721.1 2591.8, 2898.9 2761.3, 3017.4 2717.2 C 3144.4 2713.7, 3322.1 2698.0, 3440.6 2807.7" fill="none" stroke="url(#ribbon42)" stroke-width="14.4" stroke-linecap="round" stroke-opacity="0.406" /></g></g>
  <g><ellipse cx="1536.0" cy="1551.9" rx="728.6" ry="605.7" fill="url(#extrude42)" opacity="0.220" /><ellipse cx="1536.0" cy="1567.7" rx="736.0" ry="610.9" fill="url(#extrude42)" opacity="0.205" /><ellipse cx="1536.0" cy="1583.6" rx="743.4" ry="616.1" fill="url(#extrude42)" opacity="0.190" /><ellipse cx="1536.0" cy="1599.5" rx="750.9" ry="621.3" fill="url(#extrude42)" opacity="0.175" /><ellipse cx="1536.0" cy="1615.4" rx="758.3" ry="626.5" fill="url(#extrude42)" opacity="0.160" /><ellipse cx="1536.0" cy="1631.2" rx="765.7" ry="631.7" fill="url(#extrude42)" opacity="0.145" /><ellipse cx="1536.0" cy="1647.1" rx="773.2" ry="636.9" fill="url(#extrude42)" opacity="0.130" /><ellipse cx="1536.0" cy="1663.0" rx="780.6" ry="642.1" fill="url(#extrude42)" opacity="0.115" /><ellipse cx="1536.0" cy="1678.8" rx="788.0" ry="647.4" fill="url(#extrude42)" opacity="0.100" /><ellipse cx="1536.0" cy="1694.7" rx="795.5" ry="652.6" fill="url(#extrude42)" opacity="0.085" /><ellipse cx="1536.0" cy="1710.6" rx="802.9" ry="657.8" fill="url(#extrude42)" opacity="0.070" /><ellipse cx="1536.0" cy="1726.5" rx="810.3" ry="663.0" fill="url(#extrude42)" opacity="0.055" /></g>
  <ellipse cx="1536.0" cy="1726.5" rx="773.2" ry="214.9" fill="#0B1D2D" opacity="0.24" />
  <ellipse cx="1536.0" cy="1536.0" rx="743.4" ry="651.3" fill="url(#orb42)" stroke="#FFFFFF" stroke-opacity="0.42" stroke-width="7" />
  <ellipse cx="1431.9" cy="1392.7" rx="505.5" ry="299.6" fill="#FFFFFF" opacity="0.25" />
  <path d="M 199.4 399.4 C 1013.8 -30.7, 2058.2 768.0, 2872.6 215.0 L 2872.6 983.0 C 2089.0 1228.8, 1013.8 307.2, 199.4 1167.4 Z" fill="url(#glass42)" />
  <rect x="270" y="270" width="2532" height="2532" rx="430" fill="none" stroke="#FFFFFF" stroke-opacity="0.30" stroke-width="5" />
  <rect x="288.4" y="288.4" width="2495.1" height="2495.1" rx="399" fill="none" stroke="#36D1FF" stroke-opacity="0.35" stroke-width="3" />
  <g filter="url(#soft42)"><rect x="1633" y="1031" width="48" height="2" fill="#FFFFFF" opacity="0.471" /><rect x="1656" y="1008" width="2" height="48" fill="#FFFFFF" opacity="0.471" /><rect x="1752" y="1122" width="62" height="2" fill="#FFFFFF" opacity="0.582" /><rect x="1782" y="1092" width="2" height="62" fill="#FFFFFF" opacity="0.582" /><rect x="326" y="280" width="32" height="2" fill="#FFFFFF" opacity="0.678" /><rect x="341" y="265" width="2" height="32" fill="#FFFFFF" opacity="0.678" /><rect x="1985" y="832" width="32" height="2" fill="#FFFFFF" opacity="0.705" /><rect x="2000" y="817" width="2" height="32" fill="#FFFFFF" opacity="0.705" /><rect x="1427" y="789" width="30" height="2" fill="#FFFFFF" opacity="0.707" /><rect x="1441" y="775" width="2" height="30" fill="#FFFFFF" opacity="0.707" /><rect x="1073" y="830" width="66" height="2" fill="#FFFFFF" opacity="0.775" /><rect x="1105" y="798" width="2" height="66" fill="#FFFFFF" opacity="0.775" /><rect x="2020" y="789" width="78" height="2" fill="#FFFFFF" opacity="0.507" /><rect x="2058" y="751" width="2" height="78" fill="#FFFFFF" opacity="0.507" /><rect x="2493" y="1100" width="46" height="2" fill="#FFFFFF" opacity="0.613" /><rect x="2515" y="1078" width="2" height="46" fill="#FFFFFF" opacity="0.613" /><rect x="1323" y="2632" width="82" height="2" fill="#FFFFFF" opacity="0.604" /><rect x="1363" y="2592" width="2" height="82" fill="#FFFFFF" opacity="0.604" /><rect x="2151" y="1484" width="62" height="2" fill="#FFFFFF" opacity="0.431" /><rect x="2181" y="1454" width="2" height="62" fill="#FFFFFF" opacity="0.431" /><rect x="1218" y="1148" width="58" height="2" fill="#FFFFFF" opacity="0.842" /><rect x="1246" y="1120" width="2" height="58" fill="#FFFFFF" opacity="0.842" /><rect x="1586" y="2075" width="40" height="2" fill="#FFFFFF" opacity="0.687" /><rect x="1605" y="2056" width="2" height="40" fill="#FFFFFF" opacity="0.687" /><rect x="2701" y="2385" width="50" height="2" fill="#FFFFFF" opacity="0.528" /><rect x="2725" y="2361" width="2" height="50" fill="#FFFFFF" opacity="0.528" /><rect x="1459" y="1258" width="48" height="2" fill="#FFFFFF" opacity="0.597" /><rect x="1482" y="1235" width="2" height="48" fill="#FFFFFF" opacity="0.597" /><rect x="591" y="2203" width="44" height="2" fill="#FFFFFF" opacity="0.541" /><rect x="612" y="2182" width="2" height="44" fill="#FFFFFF" opacity="0.541" /><rect x="1165" y="1460" width="30" height="2" fill="#FFFFFF" opacity="0.815" /><rect x="1179" y="1446" width="2" height="30" fill="#FFFFFF" opacity="0.815" /><rect x="1627" y="288" width="42" height="2" fill="#FFFFFF" opacity="0.796" /><rect x="1647" y="268" width="2" height="42" fill="#FFFFFF" opacity="0.796" /><rect x="1474" y="2463" width="78" height="2" fill="#FFFFFF" opacity="0.357" /><rect x="1512" y="2425" width="2" height="78" fill="#FFFFFF" opacity="0.357" /><rect x="550" y="1734" width="84" height="2" fill="#FFFFFF" opacity="0.772" /><rect x="591" y="1693" width="2" height="84" fill="#FFFFFF" opacity="0.772" /><rect x="716" y="2433" width="84" height="2" fill="#FFFFFF" opacity="0.452" /><rect x="757" y="2392" width="2" height="84" fill="#FFFFFF" opacity="0.452" /><rect x="2427" y="1146" width="46" height="2" fill="#FFFFFF" opacity="0.341" /><rect x="2449" y="1124" width="2" height="46" fill="#FFFFFF" opacity="0.341" /><rect x="1495" y="1624" width="54" height="2" fill="#FFFFFF" opacity="0.439" /><rect x="1521" y="1598" width="2" height="54" fill="#FFFFFF" opacity="0.439" /><rect x="2622" y="2167" width="72" height="2" fill="#FFFFFF" opacity="0.370" /><rect x="2657" y="2132" width="2" height="72" fill="#FFFFFF" opacity="0.370" /><rect x="750" y="1206" width="50" height="2" fill="#FFFFFF" opacity="0.580" /><rect x="774" y="1182" width="2" height="50" fill="#FFFFFF" opacity="0.580" /><rect x="782" y="1897" width="46" height="2" fill="#FFFFFF" opacity="0.316" /><rect x="804" y="1875" width="2" height="46" fill="#FFFFFF" opacity="0.316" /><rect x="792" y="2239" width="38" height="2" fill="#FFFFFF" opacity="0.779" /><rect x="810" y="2221" width="2" height="38" fill="#FFFFFF" opacity="0.779" /></g>
  <g opacity="0.52"><path d="M996 1582 Q1572 1006, 2148 1582" fill="none" stroke="#0C2030" stroke-width="90" /><path d="M996 1801 Q1572 1198, 2148 1801" fill="none" stroke="#0C2030" stroke-width="88" opacity="0.9" /><path d="M996 1966 Q1572 1326, 2148 1966" fill="none" stroke="#0C2030" stroke-width="87" opacity="0.75" /></g>
  <g filter="url(#soft42)"><path d="M960 1536 Q1536 960, 2112 1536" fill="none" stroke="url(#symbol42)" stroke-width="90" /><path d="M960 1755 Q1536 1152, 2112 1755" fill="none" stroke="url(#symbol42)" stroke-width="88" opacity="0.9" /><path d="M960 1920 Q1536 1280, 2112 1920" fill="none" stroke="url(#symbol42)" stroke-width="87" opacity="0.75" /></g>
  <rect x="138" y="138" width="2796" height="2796" rx="629" fill="#FFFFFF" filter="url(#grain42)" opacity="0.18" />
</svg>
