<svg xmlns="http://www.w3.org/2000/svg" width="3072" height="3072" viewBox="0 0 3072 3072">
  <title>QuartzOS App Icon 263 - quartz_browser_263</title>
  <defs><linearGradient id="bg262" x1="0%" y1="0%" x2="100%" y2="100%"><stop offset="0%" stop-color="#FF6AB3" /><stop offset="26%" stop-color="#FFD84D" /><stop offset="56%" stop-color="#36D1FF" /><stop offset="78%" stop-color="#58A3D8" /><stop offset="100%" stop-color="#1D2F45" /></linearGradient><radialGradient id="sun262" cx="25%" cy="15%" r="88%"><stop offset="0%" stop-color="#FFFFFF" stop-opacity="0.62" /><stop offset="30%" stop-color="#3B82FF" stop-opacity="0.35" /><stop offset="100%" stop-color="#3B82FF" stop-opacity="0" /></radialGradient><linearGradient id="glass262" x1="0%" y1="0%" x2="0%" y2="100%"><stop offset="0%" stop-color="#FFFFFF" stop-opacity="0.70" /><stop offset="46%" stop-color="#FFFFFF" stop-opacity="0.26" /><stop offset="100%" stop-color="#FFFFFF" stop-opacity="0.00" /></linearGradient><linearGradient id="ribbon262" x1="0%" y1="0%" x2="100%" y2="0%"><stop offset="0%" stop-color="#FF6AB3" stop-opacity="0.18" /><stop offset="34%" stop-color="#FFD84D" stop-opacity="0.72" /><stop offset="66%" stop-color="#36D1FF" stop-opacity="0.72" /><stop offset="100%" stop-color="#3B82FF" stop-opacity="0.18" /></linearGradient><radialGradient id="orb262" cx="34%" cy="27%" r="74%"><stop offset="0%" stop-color="#FFFFFF" stop-opacity="0.84" /><stop offset="30%" stop-color="#FF6AB3" stop-opacity="0.52" /><stop offset="68%" stop-color="#FFD84D" stop-opacity="0.42" /><stop offset="100%" stop-color="#36D1FF" stop-opacity="0.20" /></radialGradient><linearGradient id="extrude262" x1="0%" y1="0%" x2="0%" y2="100%"><stop offset="0%" stop-color="#15283C" stop-opacity="0.45" /><stop offset="100%" stop-color="#08131D" stop-opacity="0.06" /></linearGradient><linearGradient id="symbol262" x1="0%" y1="0%" x2="100%" y2="100%"><stop offset="0%" stop-color="#FFFFFF" /><stop offset="100%" stop-color="#3B82FF" /></linearGradient><filter id="shadow262" x="-40%" y="-40%" width="180%" height="180%"><feDropShadow dx="0" dy="49" stdDeviation="86" flood-color="#06111A" flood-opacity="0.54" /></filter><filter id="soft262" x="-40%" y="-40%" width="180%" height="180%"><feDropShadow dx="0" dy="0" stdDeviation="14" flood-color="#FF6AB3" flood-opacity="0.45" /></filter><filter id="grain262"><feTurbulence type="fractalNoise" baseFrequency="0.653" numOctaves="2" seed="262" /><feColorMatrix type="saturate" values="0" /><feComponentTransfer><feFuncA type="table" tableValues="0 0.09" /></feComponentTransfer></filter></defs>
  <rect x="138" y="138" width="2796" height="2796" rx="629" fill="url(#bg262)" filter="url(#shadow262)" />
  <rect x="138" y="138" width="2796" height="2796" rx="629" fill="url(#sun262)" />
  <g><circle cx="657" cy="829" r="56" fill="#FFFFFF" opacity="0.209" /><circle cx="926" cy="1981" r="82" fill="#FFFFFF" opacity="0.176" /><circle cx="2652" cy="1060" r="41" fill="#FFFFFF" opacity="0.213" /><circle cx="404" cy="1927" r="60" fill="#FFFFFF" opacity="0.097" /><circle cx="1101" cy="2288" r="50" fill="#FFFFFF" opacity="0.084" /><circle cx="2431" cy="2475" r="143" fill="#FFFFFF" opacity="0.089" /><circle cx="1655" cy="1562" r="132" fill="#FFFFFF" opacity="0.126" /><circle cx="2445" cy="1977" r="79" fill="#FFFFFF" opacity="0.193" /><circle cx="1994" cy="1229" r="145" fill="#FFFFFF" opacity="0.185" /><circle cx="1904" cy="2676" r="145" fill="#FFFFFF" opacity="0.083" /><circle cx="588" cy="1212" r="140" fill="#FFFFFF" opacity="0.202" /><circle cx="2527" cy="951" r="57" fill="#FFFFFF" opacity="0.221" /><circle cx="933" cy="413" r="68" fill="#FFFFFF" opacity="0.091" /><circle cx="686" cy="1090" r="158" fill="#FFFFFF" opacity="0.202" /><circle cx="1922" cy="2468" r="53" fill="#FFFFFF" opacity="0.223" /><circle cx="609" cy="2237" r="94" fill="#FFFFFF" opacity="0.199" /><circle cx="2377" cy="1882" r="114" fill="#FFFFFF" opacity="0.161" /><circle cx="2058" cy="1681" r="144" fill="#FFFFFF" opacity="0.138" /><circle cx="1052" cy="856" r="87" fill="#FFFFFF" opacity="0.150" /><circle cx="2158" cy="2475" r="154" fill="#FFFFFF" opacity="0.179" /><circle cx="1450" cy="1719" r="103" fill="#FFFFFF" opacity="0.149" /><circle cx="2040" cy="1443" r="147" fill="#FFFFFF" opacity="0.183" /><circle cx="451" cy="1290" r="148" fill="#FFFFFF" opacity="0.176" /><circle cx="1957" cy="696" r="135" fill="#FFFFFF" opacity="0.125" /><circle cx="426" cy="1579" r="71" fill="#FFFFFF" opacity="0.164" /><circle cx="1216" cy="1930" r="121" fill="#FFFFFF" opacity="0.210" /><circle cx="482" cy="854" r="141" fill="#FFFFFF" opacity="0.065" /><circle cx="591" cy="2663" r="60" fill="#FFFFFF" opacity="0.146" /></g>
  <g><path d="M 223.2 627.7 L 2779.3 351.3 L 2779.3 822.6 L 223.2 1099.1 Z" fill="#FFFFFF" opacity="0.229" /><path d="M 308.8 879.9 L 2716.5 603.4 L 2716.5 1072.7 L 308.8 1349.1 Z" fill="#FFFFFF" opacity="0.082" /><path d="M 216.2 1093.5 L 2878.1 817.0 L 2878.1 1266.3 L 216.2 1542.8 Z" fill="#FFFFFF" opacity="0.227" /><path d="M 297.7 1422.4 L 2852.2 1146.0 L 2852.2 1591.9 L 297.7 1868.4 Z" fill="#FFFFFF" opacity="0.116" /><path d="M 387.4 1683.6 L 2822.8 1407.1 L 2822.8 1839.8 L 387.4 2116.3 Z" fill="#FFFFFF" opacity="0.136" /><path d="M 243.6 1914.2 L 2741.9 1637.7 L 2741.9 2074.0 L 243.6 2350.5 Z" fill="#FFFFFF" opacity="0.217" /><path d="M 247.7 2218.5 L 2794.1 1942.0 L 2794.1 2380.2 L 247.7 2656.7 Z" fill="#FFFFFF" opacity="0.232" /><path d="M 235.2 2450.7 L 2728.6 2174.3 L 2728.6 2607.3 L 235.2 2883.7 Z" fill="#FFFFFF" opacity="0.094" /></g>
  <g filter="url(#soft262)"><g transform="rotate(-4.22 1536.0 1536.0)"><path d="M-368.6 505.4 C -225.8 486.4, -25.8 520.2, 107.5 453.9 C 250.4 471.1, 450.4 557.7, 583.7 455.0 C 726.5 461.2, 926.5 523.4, 1059.8 486.6 C 1202.7 492.9, 1402.7 511.3, 1536.0 529.6 C 1678.8 526.1, 1878.8 489.5, 2012.2 557.9 C 2155.0 562.3, 2355.0 457.3, 2488.3 554.3 C 2631.2 570.6, 2831.2 459.3, 2964.5 521.1 C 3107.3 522.6, 3307.3 494.5, 3440.6 478.3" fill="none" stroke="url(#ribbon262)" stroke-width="58.4" stroke-linecap="round" stroke-opacity="0.120" /></g><g transform="rotate(-3.64 1536.0 1536.0)"><path d="M-368.6 762.4 C -241.7 841.3, -63.9 715.1, 54.6 802.4 C 181.6 805.2, 359.4 727.7, 477.9 756.0 C 604.8 755.1, 782.6 769.6, 901.1 713.5 C 1028.1 714.1, 1205.9 813.9, 1324.4 700.6 C 1451.3 698.5, 1629.1 799.4, 1747.6 725.3 C 1874.6 711.7, 2052.4 776.4, 2170.9 772.5 C 2297.9 775.2, 2475.6 753.0, 2594.1 813.6 C 2721.1 803.6, 2898.9 733.2, 3017.4 823.7 C 3144.4 836.2, 3322.1 699.8, 3440.6 796.6" fill="none" stroke="url(#ribbon262)" stroke-width="54.4" stroke-linecap="round" stroke-opacity="0.146" /></g><g transform="rotate(-3.06 1536.0 1536.0)"><path d="M-368.6 911.3 C -254.4 838.7, -94.4 933.2, 12.3 894.4 C 126.6 887.8, 286.6 931.0, 393.2 947.9 C 507.5 937.4, 667.5 899.8, 774.1 979.1 C 888.4 953.5, 1048.4 882.2, 1155.1 969.2 C 1269.4 957.4, 1429.3 868.2, 1536.0 924.1 C 1650.3 923.5, 1810.3 907.0, 1916.9 871.3 C 2031.2 881.7, 2191.2 952.9, 2297.9 842.7 C 2412.1 858.1, 2572.1 983.9, 2678.8 855.7 C 2793.1 876.1, 2953.1 960.1, 3059.7 902.4 C 3174.0 899.6, 3334.0 917.7, 3440.6 954.5" fill="none" stroke="url(#ribbon262)" stroke-width="50.4" stroke-linecap="round" stroke-opacity="0.172" /></g><g transform="rotate(-2.48 1536.0 1536.0)"><path d="M-368.6 1057.4 C -264.8 966.9, -119.3 1109.3, -22.3 1023.3 C 81.5 1023.3, 227.0 1092.7, 324.0 1082.8 C 427.8 1075.8, 573.3 1029.9, 670.3 1126.8 C 774.1 1149.4, 919.6 993.3, 1016.6 1128.7 C 1120.4 1144.9, 1265.9 1010.7, 1362.9 1087.4 C 1466.7 1076.8, 1612.2 1022.3, 1709.1 1027.8 C 1813.0 1022.9, 1958.5 1078.8, 2055.4 986.2 C 2159.3 978.9, 2304.8 1110.3, 2401.7 987.7 C 2505.6 1009.6, 2651.1 1090.1, 2748.0 1031.5 C 2851.9 1031.8, 2997.4 1070.8, 3094.3 1091.0 C 3198.2 1085.1, 3343.7 1042.0, 3440.6 1130.1" fill="none" stroke="url(#ribbon262)" stroke-width="46.4" stroke-linecap="round" stroke-opacity="0.198" /></g><g transform="rotate(-1.90 1536.0 1536.0)"><path d="M-368.6 1245.5 C -273.4 1269.4, -140.1 1222.3, -51.2 1318.7 C 44.0 1347.8, 177.4 1211.6, 266.2 1325.5 C 361.5 1338.7, 494.8 1176.5, 583.7 1283.7 C 678.9 1298.3, 812.2 1227.0, 901.1 1218.8 C 996.4 1224.2, 1129.7 1257.3, 1218.6 1170.1 C 1313.8 1192.4, 1447.1 1294.0, 1536.0 1167.2 C 1631.2 1193.0, 1764.6 1296.6, 1853.4 1211.8 C 1948.7 1199.1, 2082.0 1274.1, 2170.9 1276.8 C 2266.1 1282.4, 2399.4 1229.7, 2488.3 1322.9 C 2583.6 1321.9, 2716.9 1167.9, 2805.8 1322.1 C 2901.0 1307.5, 3034.3 1211.3, 3123.2 1274.8 C 3218.4 1276.0, 3351.8 1212.5, 3440.6 1209.8" fill="none" stroke="url(#ribbon262)" stroke-width="42.4" stroke-linecap="round" stroke-opacity="0.224" /></g><g transform="rotate(-1.32 1536.0 1536.0)"><path d="M-368.6 1467.5 C -225.8 1426.7, -25.8 1506.7, 107.5 1483.6 C 250.4 1484.9, 450.4 1461.9, 583.7 1542.7 C 726.5 1557.1, 926.5 1393.8, 1059.8 1556.2 C 1202.7 1528.8, 1402.7 1412.3, 1536.0 1516.0 C 1678.8 1512.5, 1878.8 1445.4, 2012.2 1446.3 C 2155.0 1452.6, 2355.0 1492.1, 2488.3 1389.6 C 2631.2 1386.2, 2831.2 1494.6, 2964.5 1380.1 C 3107.3 1380.0, 3307.3 1552.2, 3440.6 1423.7" fill="none" stroke="url(#ribbon262)" stroke-width="38.4" stroke-linecap="round" stroke-opacity="0.250" /></g><g transform="rotate(-0.74 1536.0 1536.0)"><path d="M-368.6 1646.7 C -241.7 1663.3, -63.9 1632.9, 54.6 1724.9 C 181.6 1714.6, 359.4 1617.4, 477.9 1743.2 C 604.8 1704.7, 782.6 1544.7, 901.1 1702.9 C 1028.1 1714.1, 1205.9 1617.4, 1324.4 1628.5 C 1451.3 1624.5, 1629.1 1661.3, 1747.6 1565.2 C 1874.6 1542.2, 2052.4 1671.2, 2170.9 1551.3 C 2297.9 1558.9, 2475.6 1748.0, 2594.1 1595.2 C 2721.1 1615.2, 2898.9 1670.6, 3017.4 1670.4 C 3144.4 1669.0, 3322.1 1621.7, 3440.6 1731.2" fill="none" stroke="url(#ribbon262)" stroke-width="34.4" stroke-linecap="round" stroke-opacity="0.276" /></g><g transform="rotate(-0.16 1536.0 1536.0)"><path d="M-368.6 1846.3 C -254.4 1821.0, -94.4 1861.3, 12.3 1894.0 C 126.6 1888.3, 286.6 1792.4, 393.2 1946.4 C 507.5 1961.9, 667.5 1785.5, 774.1 1938.1 C 888.4 1958.4, 1048.4 1758.5, 1155.1 1874.0 C 1269.4 1870.4, 1429.3 1830.7, 1536.0 1793.2 C 1650.3 1776.6, 1810.3 1886.4, 1916.9 1744.5 C 2031.2 1762.3, 2191.2 1889.9, 2297.9 1757.6 C 2412.1 1768.1, 2572.1 1876.9, 2678.8 1824.4 C 2793.1 1827.0, 2953.1 1867.5, 3059.7 1904.5 C 3174.0 1917.2, 3334.0 1790.8, 3440.6 1949.3" fill="none" stroke="url(#ribbon262)" stroke-width="30.4" stroke-linecap="round" stroke-opacity="0.302" /></g><g transform="rotate(0.42 1536.0 1536.0)"><path d="M-368.6 2095.2 C -264.8 2137.5, -119.3 2076.8, -22.3 2040.2 C 81.5 2032.6, 227.0 2117.2, 324.0 1987.0 C 427.8 2016.4, 573.3 2167.4, 670.3 1999.6 C 774.1 1993.3, 919.6 2160.2, 1016.6 2070.1 C 1120.4 2066.2, 1265.9 2125.2, 1362.9 2155.9 C 1466.7 2149.1, 1612.2 2075.5, 1709.1 2204.9 C 1813.0 2168.3, 1958.5 2027.7, 2055.4 2187.4 C 2159.3 2170.1, 2304.8 1987.5, 2401.7 2114.0 C 2505.6 2106.7, 2651.1 2080.8, 2748.0 2029.2 C 2851.9 2049.6, 2997.4 2138.1, 3094.3 1984.5 C 3198.2 2021.6, 3343.7 2203.1, 3440.6 2006.9" fill="none" stroke="url(#ribbon262)" stroke-width="26.4" stroke-linecap="round" stroke-opacity="0.328" /></g><g transform="rotate(1.00 1536.0 1536.0)"><path d="M-368.6 2292.5 C -273.4 2196.0, -140.1 2410.2, -51.2 2187.1 C 44.0 2179.6, 177.4 2370.3, 266.2 2258.5 C 361.5 2253.7, 494.8 2309.5, 583.7 2350.5 C 678.9 2365.1, 812.2 2228.6, 901.1 2407.3 C 996.4 2419.9, 1129.7 2222.4, 1218.6 2394.5 C 1313.8 2356.3, 1447.1 2235.1, 1536.0 2319.7 C 1631.2 2322.7, 1764.6 2274.5, 1853.4 2228.4 C 1948.7 2215.6, 2082.0 2340.2, 2170.9 2176.0 C 2266.1 2214.3, 2399.4 2394.9, 2488.3 2194.2 C 2583.6 2215.4, 2716.9 2387.8, 2805.8 2272.0 C 2901.0 2278.9, 3034.3 2299.5, 3123.2 2362.2 C 3218.4 2336.5, 3351.8 2255.3, 3440.6 2410.1" fill="none" stroke="url(#ribbon262)" stroke-width="22.4" stroke-linecap="round" stroke-opacity="0.354" /></g><g transform="rotate(1.58 1536.0 1536.0)"><path d="M-368.6 2409.0 C -225.8 2321.1, -25.8 2440.4, 107.5 2284.7 C 250.4 2298.6, 450.4 2535.6, 583.7 2308.1 C 726.5 2300.8, 926.5 2518.4, 1059.8 2392.7 C 1202.7 2392.9, 1402.7 2415.6, 1536.0 2487.3 C 1678.8 2493.9, 1878.8 2343.1, 2012.2 2534.3 C 2155.0 2562.6, 2355.0 2327.4, 2488.3 2505.4 C 2631.2 2483.8, 2831.2 2364.1, 2964.5 2418.0 C 3107.3 2416.3, 3307.3 2402.6, 3440.6 2325.2" fill="none" stroke="url(#ribbon262)" stroke-width="18.4" stroke-linecap="round" stroke-opacity="0.380" /></g><g transform="rotate(2.16 1536.0 1536.0)"><path d="M-368.6 2707.0 C -241.7 2703.5, -63.9 2710.7, 54.6 2608.2 C 181.6 2613.4, 359.4 2781.2, 477.9 2574.2 C 604.8 2582.8, 782.6 2754.5, 901.1 2620.8 C 1028.1 2622.1, 1205.9 2742.0, 1324.4 2719.6 C 1451.3 2714.8, 1629.1 2700.6, 1747.6 2810.8 C 1874.6 2813.4, 2052.4 2589.9, 2170.9 2838.9 C 2297.9 2819.4, 2475.6 2664.4, 2594.1 2787.0 C 2721.1 2807.3, 2898.9 2669.0, 3017.4 2686.6 C 3144.4 2694.5, 3322.1 2728.5, 3440.6 2598.5" fill="none" stroke="url(#ribbon262)" stroke-width="14.4" stroke-linecap="round" stroke-opacity="0.406" /></g></g>
  <g><ellipse cx="1536.0" cy="1551.9" rx="728.6" ry="605.7" fill="url(#extrude262)" opacity="0.220" /><ellipse cx="1536.0" cy="1567.7" rx="736.0" ry="610.9" fill="url(#extrude262)" opacity="0.205" /><ellipse cx="1536.0" cy="1583.6" rx="743.4" ry="616.1" fill="url(#extrude262)" opacity="0.190" /><ellipse cx="1536.0" cy="1599.5" rx="750.9" ry="621.3" fill="url(#extrude262)" opacity="0.175" /><ellipse cx="1536.0" cy="1615.4" rx="758.3" ry="626.5" fill="url(#extrude262)" opacity="0.160" /><ellipse cx="1536.0" cy="1631.2" rx="765.7" ry="631.7" fill="url(#extrude262)" opacity="0.145" /><ellipse cx="1536.0" cy="1647.1" rx="773.2" ry="636.9" fill="url(#extrude262)" opacity="0.130" /><ellipse cx="1536.0" cy="1663.0" rx="780.6" ry="642.1" fill="url(#extrude262)" opacity="0.115" /><ellipse cx="1536.0" cy="1678.8" rx="788.0" ry="647.4" fill="url(#extrude262)" opacity="0.100" /><ellipse cx="1536.0" cy="1694.7" rx="795.5" ry="652.6" fill="url(#extrude262)" opacity="0.085" /><ellipse cx="1536.0" cy="1710.6" rx="802.9" ry="657.8" fill="url(#extrude262)" opacity="0.070" /><ellipse cx="1536.0" cy="1726.5" rx="810.3" ry="663.0" fill="url(#extrude262)" opacity="0.055" /></g>
  <ellipse cx="1536.0" cy="1726.5" rx="773.2" ry="214.9" fill="#0B1D2D" opacity="0.24" />
  <ellipse cx="1536.0" cy="1536.0" rx="743.4" ry="651.3" fill="url(#orb262)" stroke="#FFFFFF" stroke-opacity="0.42" stroke-width="7" />
  <ellipse cx="1431.9" cy="1392.7" rx="505.5" ry="299.6" fill="#FFFFFF" opacity="0.25" />
  <path d="M 199.4 399.4 C 1013.8 -30.7, 2058.2 768.0, 2872.6 215.0 L 2872.6 983.0 C 2089.0 1228.8, 1013.8 307.2, 199.4 1167.4 Z" fill="url(#glass262)" />
  <rect x="270" y="270" width="2532" height="2532" rx="430" fill="none" stroke="#FFFFFF" stroke-opacity="0.30" stroke-width="5" />
  <rect x="288.4" y="288.4" width="2495.1" height="2495.1" rx="399" fill="none" stroke="#FF6AB3" stroke-opacity="0.35" stroke-width="3" />
  <g filter="url(#soft262)"><rect x="348" y="2096" width="28" height="2" fill="#FFFFFF" opacity="0.312" /><rect x="361" y="2083" width="2" height="28" fill="#FFFFFF" opacity="0.312" /><rect x="1219" y="1909" width="62" height="2" fill="#FFFFFF" opacity="0.584" /><rect x="1249" y="1879" width="2" height="62" fill="#FFFFFF" opacity="0.584" /><rect x="1169" y="2563" width="60" height="2" fill="#FFFFFF" opacity="0.799" /><rect x="1198" y="2534" width="2" height="60" fill="#FFFFFF" opacity="0.799" /><rect x="1535" y="1213" width="26" height="2" fill="#FFFFFF" opacity="0.460" /><rect x="1547" y="1201" width="2" height="26" fill="#FFFFFF" opacity="0.460" /><rect x="2687" y="1890" width="62" height="2" fill="#FFFFFF" opacity="0.738" /><rect x="2717" y="1860" width="2" height="62" fill="#FFFFFF" opacity="0.738" /><rect x="2471" y="2698" width="72" height="2" fill="#FFFFFF" opacity="0.712" /><rect x="2506" y="2663" width="2" height="72" fill="#FFFFFF" opacity="0.712" /><rect x="1774" y="2542" width="48" height="2" fill="#FFFFFF" opacity="0.716" /><rect x="1797" y="2519" width="2" height="48" fill="#FFFFFF" opacity="0.716" /><rect x="1169" y="1910" width="26" height="2" fill="#FFFFFF" opacity="0.419" /><rect x="1181" y="1898" width="2" height="26" fill="#FFFFFF" opacity="0.419" /><rect x="338" y="589" width="36" height="2" fill="#FFFFFF" opacity="0.317" /><rect x="355" y="572" width="2" height="36" fill="#FFFFFF" opacity="0.317" /><rect x="2646" y="853" width="80" height="2" fill="#FFFFFF" opacity="0.590" /><rect x="2685" y="814" width="2" height="80" fill="#FFFFFF" opacity="0.590" /><rect x="2738" y="2629" width="72" height="2" fill="#FFFFFF" opacity="0.766" /><rect x="2773" y="2594" width="2" height="72" fill="#FFFFFF" opacity="0.766" /><rect x="983" y="431" width="52" height="2" fill="#FFFFFF" opacity="0.496" /><rect x="1008" y="406" width="2" height="52" fill="#FFFFFF" opacity="0.496" /><rect x="1483" y="2577" width="58" height="2" fill="#FFFFFF" opacity="0.725" /><rect x="1511" y="2549" width="2" height="58" fill="#FFFFFF" opacity="0.725" /><rect x="902" y="617" width="50" height="2" fill="#FFFFFF" opacity="0.361" /><rect x="926" y="593" width="2" height="50" fill="#FFFFFF" opacity="0.361" /><rect x="1281" y="1424" width="54" height="2" fill="#FFFFFF" opacity="0.650" /><rect x="1307" y="1398" width="2" height="54" fill="#FFFFFF" opacity="0.650" /><rect x="376" y="765" width="32" height="2" fill="#FFFFFF" opacity="0.514" /><rect x="391" y="750" width="2" height="32" fill="#FFFFFF" opacity="0.514" /><rect x="1283" y="1970" width="86" height="2" fill="#FFFFFF" opacity="0.314" /><rect x="1325" y="1928" width="2" height="86" fill="#FFFFFF" opacity="0.314" /><rect x="1392" y="2614" width="60" height="2" fill="#FFFFFF" opacity="0.846" /><rect x="1421" y="2585" width="2" height="60" fill="#FFFFFF" opacity="0.846" /><rect x="744" y="1191" width="58" height="2" fill="#FFFFFF" opacity="0.476" /><rect x="772" y="1163" width="2" height="58" fill="#FFFFFF" opacity="0.476" /><rect x="1604" y="841" width="34" height="2" fill="#FFFFFF" opacity="0.580" /><rect x="1620" y="825" width="2" height="34" fill="#FFFFFF" opacity="0.580" /><rect x="2767" y="402" width="30" height="2" fill="#FFFFFF" opacity="0.476" /><rect x="2781" y="388" width="2" height="30" fill="#FFFFFF" opacity="0.476" /><rect x="1584" y="1488" width="42" height="2" fill="#FFFFFF" opacity="0.549" /><rect x="1604" y="1468" width="2" height="42" fill="#FFFFFF" opacity="0.549" /><rect x="1426" y="456" width="40" height="2" fill="#FFFFFF" opacity="0.521" /><rect x="1445" y="437" width="2" height="40" fill="#FFFFFF" opacity="0.521" /><rect x="588" y="2762" width="64" height="2" fill="#FFFFFF" opacity="0.836" /><rect x="619" y="2731" width="2" height="64" fill="#FFFFFF" opacity="0.836" /><rect x="2357" y="2147" width="58" height="2" fill="#FFFFFF" opacity="0.450" /><rect x="2385" y="2119" width="2" height="58" fill="#FFFFFF" opacity="0.450" /><rect x="460" y="1176" width="74" height="2" fill="#FFFFFF" opacity="0.369" /><rect x="496" y="1140" width="2" height="74" fill="#FFFFFF" opacity="0.369" /></g>
  <g opacity="0.52"><path d="M996 1582 C1316 1006, 1572 2158, 2148 1582" fill="none" stroke="#0C2030" stroke-width="90" /><circle cx="1188" cy="1582" r="109" fill="#0C2030" /><circle cx="1572" cy="1582" r="109" fill="#0C2030" /><circle cx="1956" cy="1582" r="109" fill="#0C2030" /></g>
  <g filter="url(#soft262)"><path d="M960 1536 C1280 960, 1536 2112, 2112 1536" fill="none" stroke="url(#symbol262)" stroke-width="90" /><circle cx="1152" cy="1536" r="109" fill="url(#symbol262)" /><circle cx="1536" cy="1536" r="109" fill="url(#symbol262)" /><circle cx="1920" cy="1536" r="109" fill="url(#symbol262)" /></g>
  <rect x="138" y="138" width="2796" height="2796" rx="629" fill="#FFFFFF" filter="url(#grain262)" opacity="0.18" />
</svg>
