<svg xmlns="http://www.w3.org/2000/svg" width="3072" height="3072" viewBox="0 0 3072 3072">
  <title>QuartzOS App Icon 163 - quartz_terminal_163</title>
  <defs><linearGradient id="bg162" x1="0%" y1="0%" x2="100%" y2="100%"><stop offset="0%" stop-color="#3B82FF" /><stop offset="26%" stop-color="#FF6AB3" /><stop offset="56%" stop-color="#FFD84D" /><stop offset="78%" stop-color="#4B91A3" /><stop offset="100%" stop-color="#1A2630" /></linearGradient><radialGradient id="sun162" cx="26%" cy="27%" r="88%"><stop offset="0%" stop-color="#FFFFFF" stop-opacity="0.62" /><stop offset="30%" stop-color="#53E3A6" stop-opacity="0.35" /><stop offset="100%" stop-color="#53E3A6" stop-opacity="0" /></radialGradient><linearGradient id="glass162" x1="0%" y1="0%" x2="0%" y2="100%"><stop offset="0%" stop-color="#FFFFFF" stop-opacity="0.70" /><stop offset="46%" stop-color="#FFFFFF" stop-opacity="0.26" /><stop offset="100%" stop-color="#FFFFFF" stop-opacity="0.00" /></linearGradient><linearGradient id="ribbon162" x1="0%" y1="0%" x2="100%" y2="0%"><stop offset="0%" stop-color="#3B82FF" stop-opacity="0.18" /><stop offset="34%" stop-color="#FF6AB3" stop-opacity="0.72" /><stop offset="66%" stop-color="#FFD84D" stop-opacity="0.72" /><stop offset="100%" stop-color="#53E3A6" stop-opacity="0.18" /></linearGradient><radialGradient id="orb162" cx="34%" cy="27%" r="74%"><stop offset="0%" stop-color="#FFFFFF" stop-opacity="0.84" /><stop offset="30%" stop-color="#3B82FF" stop-opacity="0.52" /><stop offset="68%" stop-color="#FF6AB3" stop-opacity="0.42" /><stop offset="100%" stop-color="#FFD84D" stop-opacity="0.20" /></radialGradient><linearGradient id="extrude162" x1="0%" y1="0%" x2="0%" y2="100%"><stop offset="0%" stop-color="#15283C" stop-opacity="0.45" /><stop offset="100%" stop-color="#08131D" stop-opacity="0.06" /></linearGradient><linearGradient id="symbol162" x1="0%" y1="0%" x2="100%" y2="100%"><stop offset="0%" stop-color="#FFFFFF" /><stop offset="100%" stop-color="#53E3A6" /></linearGradient><filter id="shadow162" x="-40%" y="-40%" width="180%" height="180%"><feDropShadow dx="0" dy="49" stdDeviation="86" flood-color="#06111A" flood-opacity="0.54" /></filter><filter id="soft162" x="-40%" y="-40%" width="180%" height="180%"><feDropShadow dx="0" dy="0" stdDeviation="14" flood-color="#3B82FF" flood-opacity="0.45" /></filter><filter id="grain162"><feTurbulence type="fractalNoise" baseFrequency="0.650" numOctaves="2" seed="162" /><feColorMatrix type="saturate" values="0" /><feComponentTransfer><feFuncA type="table" tableValues="0 0.09" /></feComponentTransfer></filter></defs>
  <rect x="138" y="138" width="2796" height="2796" rx="629" fill="url(#bg162)" filter="url(#shadow162)" />
  <rect x="138" y="138" width="2796" height="2796" rx="629" fill="url(#sun162)" />
  <g><circle cx="1603" cy="1583" r="153" fill="#FFFFFF" opacity="0.147" /><circle cx="1594" cy="1506" r="117" fill="#FFFFFF" opacity="0.130" /><circle cx="2659" cy="751" r="110" fill="#FFFFFF" opacity="0.214" /><circle cx="2460" cy="2143" r="109" fill="#FFFFFF" opacity="0.181" /><circle cx="2464" cy="1282" r="146" fill="#FFFFFF" opacity="0.203" /><circle cx="1491" cy="1997" r="100" fill="#FFFFFF" opacity="0.114" /><circle cx="653" cy="379" r="106" fill="#FFFFFF" opacity="0.136" /><circle cx="744" cy="1078" r="53" fill="#FFFFFF" opacity="0.114" /><circle cx="1744" cy="761" r="99" fill="#FFFFFF" opacity="0.123" /><circle cx="689" cy="1214" r="126" fill="#FFFFFF" opacity="0.169" /><circle cx="1065" cy="2558" r="130" fill="#FFFFFF" opacity="0.116" /><circle cx="798" cy="1919" r="128" fill="#FFFFFF" opacity="0.166" /><circle cx="1176" cy="1947" r="57" fill="#FFFFFF" opacity="0.079" /><circle cx="2613" cy="600" r="150" fill="#FFFFFF" opacity="0.221" /><circle cx="413" cy="1328" r="102" fill="#FFFFFF" opacity="0.216" /><circle cx="1289" cy="1910" r="40" fill="#FFFFFF" opacity="0.173" /><circle cx="2605" cy="2265" r="78" fill="#FFFFFF" opacity="0.174" /><circle cx="625" cy="2674" r="47" fill="#FFFFFF" opacity="0.208" /><circle cx="1238" cy="383" r="48" fill="#FFFFFF" opacity="0.101" /><circle cx="2565" cy="347" r="64" fill="#FFFFFF" opacity="0.102" /><circle cx="1133" cy="1379" r="53" fill="#FFFFFF" opacity="0.143" /><circle cx="1511" cy="1002" r="47" fill="#FFFFFF" opacity="0.141" /><circle cx="573" cy="638" r="48" fill="#FFFFFF" opacity="0.174" /><circle cx="2130" cy="527" r="131" fill="#FFFFFF" opacity="0.111" /><circle cx="1598" cy="744" r="143" fill="#FFFFFF" opacity="0.125" /><circle cx="2285" cy="1308" r="75" fill="#FFFFFF" opacity="0.156" /><circle cx="1765" cy="2178" r="57" fill="#FFFFFF" opacity="0.190" /><circle cx="1794" cy="2107" r="141" fill="#FFFFFF" opacity="0.061" /></g>
  <g><path d="M 193.5 648.1 L 2835.3 371.7 L 2835.3 844.2 L 193.5 1120.7 Z" fill="#FFFFFF" opacity="0.192" /><path d="M 190.3 889.3 L 2891.8 612.8 L 2891.8 1038.9 L 190.3 1315.4 Z" fill="#FFFFFF" opacity="0.154" /><path d="M 362.1 1137.8 L 2726.5 861.4 L 2726.5 1290.8 L 362.1 1567.2 Z" fill="#FFFFFF" opacity="0.239" /><path d="M 381.0 1380.7 L 2680.5 1104.3 L 2680.5 1592.1 L 381.0 1868.6 Z" fill="#FFFFFF" opacity="0.184" /><path d="M 383.3 1673.8 L 2845.0 1397.3 L 2845.0 1860.1 L 383.3 2136.5 Z" fill="#FFFFFF" opacity="0.182" /><path d="M 256.2 1962.2 L 2799.8 1685.7 L 2799.8 2115.7 L 256.2 2392.1 Z" fill="#FFFFFF" opacity="0.165" /><path d="M 175.6 2189.4 L 2863.7 1912.9 L 2863.7 2359.1 L 175.6 2635.6 Z" fill="#FFFFFF" opacity="0.228" /><path d="M 206.9 2458.8 L 2886.5 2182.3 L 2886.5 2679.5 L 206.9 2956.0 Z" fill="#FFFFFF" opacity="0.142" /></g>
  <g filter="url(#soft162)"><g transform="rotate(-21.76 1536.0 1536.0)"><path d="M-368.6 478.2 C -225.8 464.3, -25.8 485.5, 107.5 504.9 C 250.4 496.0, 450.4 458.4, 583.7 531.5 C 726.5 536.2, 926.5 430.7, 1059.8 525.8 C 1202.7 543.3, 1402.7 439.4, 1536.0 491.2 C 1678.8 493.2, 1878.8 473.8, 2012.2 448.7 C 2155.0 457.8, 2355.0 488.0, 2488.3 424.1 C 2631.2 442.9, 2831.2 514.3, 2964.5 432.3 C 3107.3 421.8, 3307.3 503.4, 3440.6 468.3" fill="none" stroke="url(#ribbon162)" stroke-width="58.4" stroke-linecap="round" stroke-opacity="0.120" /></g><g transform="rotate(-21.18 1536.0 1536.0)"><path d="M-368.6 752.8 C -241.7 771.4, -63.9 740.4, 54.6 807.1 C 181.6 812.2, 359.4 710.3, 477.9 812.7 C 604.8 805.4, 782.6 700.6, 901.1 781.9 C 1028.1 780.1, 1205.9 723.5, 1324.4 733.5 C 1451.3 730.1, 1629.1 776.0, 1747.6 696.8 C 1874.6 693.2, 2052.4 790.8, 2170.9 694.1 C 2297.9 699.7, 2475.6 794.7, 2594.1 727.0 C 2721.1 731.1, 2898.9 776.5, 3017.4 775.6 C 3144.4 782.4, 3322.1 742.3, 3440.6 810.3" fill="none" stroke="url(#ribbon162)" stroke-width="54.4" stroke-linecap="round" stroke-opacity="0.146" /></g><g transform="rotate(-20.60 1536.0 1536.0)"><path d="M-368.6 956.0 C -254.4 885.1, -94.4 1004.3, 12.3 934.7 C 126.6 930.4, 286.6 969.8, 393.2 988.5 C 507.5 990.4, 667.5 919.1, 774.1 1022.6 C 888.4 1023.6, 1048.4 929.2, 1155.1 1016.3 C 1269.4 1037.8, 1429.3 888.4, 1536.0 973.4 C 1650.3 973.5, 1810.3 946.6, 1916.9 919.9 C 2031.2 923.7, 2191.2 997.9, 2297.9 888.3 C 2412.1 894.6, 2572.1 1009.5, 2678.8 897.7 C 2793.1 896.8, 2953.1 1015.6, 3059.7 942.5 C 3174.0 937.4, 3334.0 960.1, 3440.6 995.4" fill="none" stroke="url(#ribbon162)" stroke-width="50.4" stroke-linecap="round" stroke-opacity="0.172" /></g><g transform="rotate(-20.02 1536.0 1536.0)"><path d="M-368.6 1082.2 C -264.8 1147.8, -119.3 1019.1, -22.3 1123.7 C 81.5 1134.7, 227.0 1033.6, 324.0 1065.0 C 427.8 1062.4, 573.3 1090.8, 670.3 1016.8 C 774.1 1033.7, 919.6 1109.7, 1016.6 1008.2 C 1120.4 998.6, 1265.9 1131.7, 1362.9 1044.6 C 1466.7 1037.9, 1612.2 1118.1, 1709.1 1103.8 C 1813.0 1098.0, 1958.5 1073.2, 2055.4 1149.9 C 2159.3 1135.9, 2304.8 1031.2, 2401.7 1155.0 C 2505.6 1168.6, 2651.1 1047.1, 2748.0 1115.9 C 2851.9 1117.6, 2997.4 1057.7, 3094.3 1056.4 C 3198.2 1066.1, 3343.7 1097.7, 3440.6 1012.6" fill="none" stroke="url(#ribbon162)" stroke-width="46.4" stroke-linecap="round" stroke-opacity="0.198" /></g><g transform="rotate(-19.44 1536.0 1536.0)"><path d="M-368.6 1266.3 C -273.4 1323.4, -140.1 1178.1, -51.2 1334.7 C 44.0 1317.0, 177.4 1194.1, 266.2 1279.5 C 361.5 1279.1, 494.8 1255.2, 583.7 1216.3 C 678.9 1199.1, 812.2 1307.3, 901.1 1183.5 C 996.4 1157.4, 1129.7 1328.4, 1218.6 1200.9 C 1313.8 1195.4, 1447.1 1304.7, 1536.0 1258.0 C 1631.2 1255.0, 1764.6 1274.8, 1853.4 1320.2 C 1948.7 1314.1, 2082.0 1223.3, 2170.9 1349.7 C 2266.1 1338.2, 2399.4 1231.2, 2488.3 1328.6 C 2583.6 1335.9, 2716.9 1218.2, 2805.8 1269.8 C 2901.0 1269.4, 3034.3 1263.0, 3123.2 1208.9 C 3218.4 1221.5, 3351.8 1313.5, 3440.6 1182.8" fill="none" stroke="url(#ribbon162)" stroke-width="42.4" stroke-linecap="round" stroke-opacity="0.224" /></g><g transform="rotate(-18.86 1536.0 1536.0)"><path d="M-368.6 1533.1 C -225.8 1573.6, -25.8 1517.3, 107.5 1516.3 C 250.4 1517.8, 450.4 1542.1, 583.7 1457.5 C 726.5 1436.8, 926.5 1613.9, 1059.8 1444.5 C 1202.7 1454.8, 1402.7 1586.3, 1536.0 1485.3 C 1678.8 1482.3, 1878.8 1571.5, 2012.2 1555.0 C 2155.0 1548.2, 2355.0 1520.5, 2488.3 1611.4 C 2631.2 1641.0, 2831.2 1491.3, 2964.5 1620.3 C 3107.3 1640.2, 3307.3 1489.9, 3440.6 1576.2" fill="none" stroke="url(#ribbon162)" stroke-width="38.4" stroke-linecap="round" stroke-opacity="0.250" /></g><g transform="rotate(-18.28 1536.0 1536.0)"><path d="M-368.6 1653.7 C -241.7 1721.7, -63.9 1544.1, 54.6 1734.2 C 181.6 1733.4, 359.4 1572.4, 477.9 1670.1 C 604.8 1664.5, 782.6 1641.7, 901.1 1596.1 C 1028.1 1576.6, 1205.9 1706.5, 1324.4 1557.0 C 1451.3 1528.1, 1629.1 1740.7, 1747.6 1576.6 C 1874.6 1556.1, 2052.4 1717.9, 2170.9 1643.0 C 2297.9 1644.5, 2475.6 1663.7, 2594.1 1715.9 C 2721.1 1739.0, 2898.9 1612.7, 3017.4 1751.1 C 3144.4 1724.2, 3322.1 1571.9, 3440.6 1727.2" fill="none" stroke="url(#ribbon162)" stroke-width="34.4" stroke-linecap="round" stroke-opacity="0.276" /></g><g transform="rotate(-17.70 1536.0 1536.0)"><path d="M-368.6 1852.5 C -254.4 1832.9, -94.4 1869.4, 12.3 1764.6 C 126.6 1733.9, 286.6 1891.7, 393.2 1750.4 C 507.5 1774.9, 667.5 1957.8, 774.1 1798.2 C 888.4 1814.9, 1048.4 1885.5, 1155.1 1878.9 C 1269.4 1887.3, 1429.3 1841.6, 1536.0 1943.6 C 1650.3 1965.8, 1810.3 1801.9, 1916.9 1953.1 C 2031.2 1982.9, 2191.2 1759.3, 2297.9 1901.5 C 2412.1 1895.2, 2572.1 1823.4, 2678.8 1820.3 C 2793.1 1809.6, 2953.1 1882.6, 3059.7 1758.5 C 3174.0 1721.2, 3334.0 1909.9, 3440.6 1753.8" fill="none" stroke="url(#ribbon162)" stroke-width="30.4" stroke-linecap="round" stroke-opacity="0.302" /></g><g transform="rotate(-17.12 1536.0 1536.0)"><path d="M-368.6 2039.1 C -264.8 2101.1, -119.3 1988.5, -22.3 2011.5 C 81.5 2001.1, 227.0 2056.0, 324.0 1942.1 C 427.8 1959.6, 573.3 2109.9, 670.3 1931.6 C 774.1 1931.7, 919.6 2109.1, 1016.6 1986.3 C 1120.4 1986.0, 1265.9 2057.6, 1362.9 2073.0 C 1466.7 2075.6, 1612.2 1998.5, 1709.1 2139.2 C 1813.0 2132.5, 1958.5 1987.9, 2055.4 2144.6 C 2159.3 2111.5, 2304.8 1923.1, 2401.7 2086.1 C 2505.6 2075.8, 2651.1 2004.7, 2748.0 1999.1 C 2851.9 2001.0, 2997.4 2082.1, 3094.3 1936.3 C 3198.2 1919.0, 3343.7 2071.4, 3440.6 1935.9" fill="none" stroke="url(#ribbon162)" stroke-width="26.4" stroke-linecap="round" stroke-opacity="0.328" /></g><g transform="rotate(-16.54 1536.0 1536.0)"><path d="M-368.6 2246.0 C -273.4 2168.3, -140.1 2332.7, -51.2 2127.2 C 44.0 2107.4, 177.4 2368.4, 266.2 2165.9 C 361.5 2181.4, 494.8 2273.4, 583.7 2253.2 C 678.9 2251.2, 812.2 2240.8, 901.1 2336.2 C 996.4 2312.0, 1129.7 2185.5, 1218.6 2364.4 C 1313.8 2401.7, 1447.1 2118.3, 1536.0 2320.9 C 1631.2 2296.9, 1764.6 2160.9, 1853.4 2232.0 C 1948.7 2235.8, 2082.0 2252.8, 2170.9 2151.5 C 2266.1 2186.5, 2399.4 2306.4, 2488.3 2128.4 C 2583.6 2099.4, 2716.9 2357.1, 2805.8 2176.7 C 2901.0 2196.7, 3034.3 2314.5, 3123.2 2267.0 C 3218.4 2263.3, 3351.8 2234.3, 3440.6 2344.6" fill="none" stroke="url(#ribbon162)" stroke-width="22.4" stroke-linecap="round" stroke-opacity="0.354" /></g><g transform="rotate(-15.96 1536.0 1536.0)"><path d="M-368.6 2441.6 C -225.8 2413.4, -25.8 2453.9, 107.5 2516.2 C 250.4 2539.8, 450.4 2365.1, 583.7 2566.3 C 726.5 2552.9, 926.5 2313.2, 1059.8 2540.8 C 1202.7 2565.7, 1402.7 2326.1, 1536.0 2455.1 C 1678.8 2451.2, 1878.8 2430.4, 2012.2 2361.1 C 2155.0 2389.9, 2355.0 2517.3, 2488.3 2316.0 C 2631.2 2334.7, 2831.2 2521.5, 2964.5 2347.0 C 3107.3 2345.4, 3307.3 2496.7, 3440.6 2435.4" fill="none" stroke="url(#ribbon162)" stroke-width="18.4" stroke-linecap="round" stroke-opacity="0.380" /></g><g transform="rotate(-15.38 1536.0 1536.0)"><path d="M-368.6 2656.5 C -241.7 2698.8, -63.9 2636.1, 54.6 2772.2 C 181.6 2768.1, 359.4 2609.3, 477.9 2784.3 C 604.8 2750.9, 782.6 2551.3, 901.1 2718.9 C 1028.1 2740.3, 1205.9 2600.9, 1324.4 2615.7 C 1451.3 2626.3, 1629.1 2673.2, 1747.6 2537.3 C 1874.6 2561.8, 2052.4 2776.8, 2170.9 2531.2 C 2297.9 2499.7, 2475.6 2779.3, 2594.1 2601.2 C 2721.1 2610.9, 2898.9 2707.6, 3017.4 2704.7 C 3144.4 2713.7, 3322.1 2601.5, 3440.6 2779.0" fill="none" stroke="url(#ribbon162)" stroke-width="14.4" stroke-linecap="round" stroke-opacity="0.406" /></g></g>
  <g><ellipse cx="1536.0" cy="1551.9" rx="728.6" ry="605.7" fill="url(#extrude162)" opacity="0.220" /><ellipse cx="1536.0" cy="1567.7" rx="736.0" ry="610.9" fill="url(#extrude162)" opacity="0.205" /><ellipse cx="1536.0" cy="1583.6" rx="743.4" ry="616.1" fill="url(#extrude162)" opacity="0.190" /><ellipse cx="1536.0" cy="1599.5" rx="750.9" ry="621.3" fill="url(#extrude162)" opacity="0.175" /><ellipse cx="1536.0" cy="1615.4" rx="758.3" ry="626.5" fill="url(#extrude162)" opacity="0.160" /><ellipse cx="1536.0" cy="1631.2" rx="765.7" ry="631.7" fill="url(#extrude162)" opacity="0.145" /><ellipse cx="1536.0" cy="1647.1" rx="773.2" ry="636.9" fill="url(#extrude162)" opacity="0.130" /><ellipse cx="1536.0" cy="1663.0" rx="780.6" ry="642.1" fill="url(#extrude162)" opacity="0.115" /><ellipse cx="1536.0" cy="1678.8" rx="788.0" ry="647.4" fill="url(#extrude162)" opacity="0.100" /><ellipse cx="1536.0" cy="1694.7" rx="795.5" ry="652.6" fill="url(#extrude162)" opacity="0.085" /><ellipse cx="1536.0" cy="1710.6" rx="802.9" ry="657.8" fill="url(#extrude162)" opacity="0.070" /><ellipse cx="1536.0" cy="1726.5" rx="810.3" ry="663.0" fill="url(#extrude162)" opacity="0.055" /></g>
  <ellipse cx="1536.0" cy="1726.5" rx="773.2" ry="214.9" fill="#0B1D2D" opacity="0.24" />
  <ellipse cx="1536.0" cy="1536.0" rx="743.4" ry="651.3" fill="url(#orb162)" stroke="#FFFFFF" stroke-opacity="0.42" stroke-width="7" />
  <ellipse cx="1431.9" cy="1392.7" rx="505.5" ry="299.6" fill="#FFFFFF" opacity="0.25" />
  <path d="M 199.4 399.4 C 1013.8 -30.7, 2058.2 768.0, 2872.6 215.0 L 2872.6 983.0 C 2089.0 1228.8, 1013.8 307.2, 199.4 1167.4 Z" fill="url(#glass162)" />
  <rect x="270" y="270" width="2532" height="2532" rx="430" fill="none" stroke="#FFFFFF" stroke-opacity="0.30" stroke-width="5" />
  <rect x="288.4" y="288.4" width="2495.1" height="2495.1" rx="399" fill="none" stroke="#3B82FF" stroke-opacity="0.35" stroke-width="3" />
  <g filter="url(#soft162)"><rect x="944" y="2346" width="54" height="2" fill="#FFFFFF" opacity="0.703" /><rect x="970" y="2320" width="2" height="54" fill="#FFFFFF" opacity="0.703" /><rect x="2066" y="1710" width="66" height="2" fill="#FFFFFF" opacity="0.666" /><rect x="2098" y="1678" width="2" height="66" fill="#FFFFFF" opacity="0.666" /><rect x="1695" y="1857" width="70" height="2" fill="#FFFFFF" opacity="0.487" /><rect x="1729" y="1823" width="2" height="70" fill="#FFFFFF" opacity="0.487" /><rect x="2055" y="2569" width="44" height="2" fill="#FFFFFF" opacity="0.411" /><rect x="2076" y="2548" width="2" height="44" fill="#FFFFFF" opacity="0.411" /><rect x="984" y="2125" width="78" height="2" fill="#FFFFFF" opacity="0.797" /><rect x="1022" y="2087" width="2" height="78" fill="#FFFFFF" opacity="0.797" /><rect x="1870" y="1507" width="58" height="2" fill="#FFFFFF" opacity="0.335" /><rect x="1898" y="1479" width="2" height="58" fill="#FFFFFF" opacity="0.335" /><rect x="1803" y="688" width="26" height="2" fill="#FFFFFF" opacity="0.522" /><rect x="1815" y="676" width="2" height="26" fill="#FFFFFF" opacity="0.522" /><rect x="1890" y="1226" width="26" height="2" fill="#FFFFFF" opacity="0.617" /><rect x="1902" y="1214" width="2" height="26" fill="#FFFFFF" opacity="0.617" /><rect x="2777" y="2283" width="26" height="2" fill="#FFFFFF" opacity="0.390" /><rect x="2789" y="2271" width="2" height="26" fill="#FFFFFF" opacity="0.390" /><rect x="2206" y="509" width="48" height="2" fill="#FFFFFF" opacity="0.635" /><rect x="2229" y="486" width="2" height="48" fill="#FFFFFF" opacity="0.635" /><rect x="2282" y="2319" width="38" height="2" fill="#FFFFFF" opacity="0.374" /><rect x="2300" y="2301" width="2" height="38" fill="#FFFFFF" opacity="0.374" /><rect x="1467" y="2333" width="78" height="2" fill="#FFFFFF" opacity="0.776" /><rect x="1505" y="2295" width="2" height="78" fill="#FFFFFF" opacity="0.776" /><rect x="573" y="735" width="80" height="2" fill="#FFFFFF" opacity="0.691" /><rect x="612" y="696" width="2" height="80" fill="#FFFFFF" opacity="0.691" /><rect x="1339" y="1988" width="38" height="2" fill="#FFFFFF" opacity="0.713" /><rect x="1357" y="1970" width="2" height="38" fill="#FFFFFF" opacity="0.713" /><rect x="355" y="907" width="66" height="2" fill="#FFFFFF" opacity="0.375" /><rect x="387" y="875" width="2" height="66" fill="#FFFFFF" opacity="0.375" /><rect x="1622" y="544" width="30" height="2" fill="#FFFFFF" opacity="0.738" /><rect x="1636" y="530" width="2" height="30" fill="#FFFFFF" opacity="0.738" /><rect x="387" y="1145" width="66" height="2" fill="#FFFFFF" opacity="0.544" /><rect x="419" y="1113" width="2" height="66" fill="#FFFFFF" opacity="0.544" /><rect x="1438" y="837" width="48" height="2" fill="#FFFFFF" opacity="0.655" /><rect x="1461" y="814" width="2" height="48" fill="#FFFFFF" opacity="0.655" /><rect x="2714" y="1474" width="48" height="2" fill="#FFFFFF" opacity="0.843" /><rect x="2737" y="1451" width="2" height="48" fill="#FFFFFF" opacity="0.843" /><rect x="1037" y="1104" width="38" height="2" fill="#FFFFFF" opacity="0.628" /><rect x="1055" y="1086" width="2" height="38" fill="#FFFFFF" opacity="0.628" /><rect x="328" y="487" width="58" height="2" fill="#FFFFFF" opacity="0.583" /><rect x="356" y="459" width="2" height="58" fill="#FFFFFF" opacity="0.583" /><rect x="1837" y="1357" width="34" height="2" fill="#FFFFFF" opacity="0.699" /><rect x="1853" y="1341" width="2" height="34" fill="#FFFFFF" opacity="0.699" /><rect x="1036" y="2434" width="66" height="2" fill="#FFFFFF" opacity="0.746" /><rect x="1068" y="2402" width="2" height="66" fill="#FFFFFF" opacity="0.746" /><rect x="2317" y="2372" width="66" height="2" fill="#FFFFFF" opacity="0.600" /><rect x="2349" y="2340" width="2" height="66" fill="#FFFFFF" opacity="0.600" /><rect x="1625" y="1801" width="54" height="2" fill="#FFFFFF" opacity="0.796" /><rect x="1651" y="1775" width="2" height="54" fill="#FFFFFF" opacity="0.796" /><rect x="2260" y="2303" width="74" height="2" fill="#FFFFFF" opacity="0.443" /><rect x="2296" y="2267" width="2" height="74" fill="#FFFFFF" opacity="0.443" /></g>
  <g opacity="0.52"><path d="M996 1582 Q1572 1006, 2148 1582" fill="none" stroke="#0C2030" stroke-width="90" /><path d="M996 1801 Q1572 1198, 2148 1801" fill="none" stroke="#0C2030" stroke-width="88" opacity="0.9" /><path d="M996 1966 Q1572 1326, 2148 1966" fill="none" stroke="#0C2030" stroke-width="87" opacity="0.75" /></g>
  <g filter="url(#soft162)"><path d="M960 1536 Q1536 960, 2112 1536" fill="none" stroke="url(#symbol162)" stroke-width="90" /><path d="M960 1755 Q1536 1152, 2112 1755" fill="none" stroke="url(#symbol162)" stroke-width="88" opacity="0.9" /><path d="M960 1920 Q1536 1280, 2112 1920" fill="none" stroke="url(#symbol162)" stroke-width="87" opacity="0.75" /></g>
  <rect x="138" y="138" width="2796" height="2796" rx="629" fill="#FFFFFF" filter="url(#grain162)" opacity="0.18" />
</svg>
