<svg xmlns="http://www.w3.org/2000/svg" width="3072" height="3072" viewBox="0 0 3072 3072">
  <title>QuartzOS App Icon 223 - quartz_calendar_223</title>
  <defs><linearGradient id="bg222" x1="0%" y1="0%" x2="100%" y2="100%"><stop offset="0%" stop-color="#FFD84D" /><stop offset="26%" stop-color="#36D1FF" /><stop offset="56%" stop-color="#8A5CFF" /><stop offset="78%" stop-color="#4B91A3" /><stop offset="100%" stop-color="#1A2630" /></linearGradient><radialGradient id="sun222" cx="28%" cy="24%" r="88%"><stop offset="0%" stop-color="#FFFFFF" stop-opacity="0.62" /><stop offset="30%" stop-color="#FF6AB3" stop-opacity="0.35" /><stop offset="100%" stop-color="#FF6AB3" stop-opacity="0" /></radialGradient><linearGradient id="glass222" x1="0%" y1="0%" x2="0%" y2="100%"><stop offset="0%" stop-color="#FFFFFF" stop-opacity="0.70" /><stop offset="46%" stop-color="#FFFFFF" stop-opacity="0.26" /><stop offset="100%" stop-color="#FFFFFF" stop-opacity="0.00" /></linearGradient><linearGradient id="ribbon222" x1="0%" y1="0%" x2="100%" y2="0%"><stop offset="0%" stop-color="#FFD84D" stop-opacity="0.18" /><stop offset="34%" stop-color="#36D1FF" stop-opacity="0.72" /><stop offset="66%" stop-color="#8A5CFF" stop-opacity="0.72" /><stop offset="100%" stop-color="#FF6AB3" stop-opacity="0.18" /></linearGradient><radialGradient id="orb222" cx="34%" cy="27%" r="74%"><stop offset="0%" stop-color="#FFFFFF" stop-opacity="0.84" /><stop offset="30%" stop-color="#FFD84D" stop-opacity="0.52" /><stop offset="68%" stop-color="#36D1FF" stop-opacity="0.42" /><stop offset="100%" stop-color="#8A5CFF" stop-opacity="0.20" /></radialGradient><linearGradient id="extrude222" x1="0%" y1="0%" x2="0%" y2="100%"><stop offset="0%" stop-color="#15283C" stop-opacity="0.45" /><stop offset="100%" stop-color="#08131D" stop-opacity="0.06" /></linearGradient><linearGradient id="symbol222" x1="0%" y1="0%" x2="100%" y2="100%"><stop offset="0%" stop-color="#FFFFFF" /><stop offset="100%" stop-color="#FF6AB3" /></linearGradient><filter id="shadow222" x="-40%" y="-40%" width="180%" height="180%"><feDropShadow dx="0" dy="49" stdDeviation="86" flood-color="#06111A" flood-opacity="0.54" /></filter><filter id="soft222" x="-40%" y="-40%" width="180%" height="180%"><feDropShadow dx="0" dy="0" stdDeviation="14" flood-color="#FFD84D" flood-opacity="0.45" /></filter><filter id="grain222"><feTurbulence type="fractalNoise" baseFrequency="0.667" numOctaves="2" seed="222" /><feColorMatrix type="saturate" values="0" /><feComponentTransfer><feFuncA type="table" tableValues="0 0.09" /></feComponentTransfer></filter></defs>
  <rect x="138" y="138" width="2796" height="2796" rx="629" fill="url(#bg222)" filter="url(#shadow222)" />
  <rect x="138" y="138" width="2796" height="2796" rx="629" fill="url(#sun222)" />
  <g><circle cx="1167" cy="748" r="131" fill="#FFFFFF" opacity="0.104" /><circle cx="725" cy="697" r="39" fill="#FFFFFF" opacity="0.217" /><circle cx="431" cy="1330" r="152" fill="#FFFFFF" opacity="0.097" /><circle cx="1114" cy="1280" r="128" fill="#FFFFFF" opacity="0.126" /><circle cx="1053" cy="2534" r="118" fill="#FFFFFF" opacity="0.192" /><circle cx="2541" cy="1811" r="48" fill="#FFFFFF" opacity="0.212" /><circle cx="1348" cy="1694" r="96" fill="#FFFFFF" opacity="0.075" /><circle cx="2586" cy="1586" r="63" fill="#FFFFFF" opacity="0.150" /><circle cx="2045" cy="1000" r="157" fill="#FFFFFF" opacity="0.174" /><circle cx="1004" cy="424" r="78" fill="#FFFFFF" opacity="0.084" /><circle cx="1764" cy="2315" r="122" fill="#FFFFFF" opacity="0.147" /><circle cx="1703" cy="1051" r="117" fill="#FFFFFF" opacity="0.097" /><circle cx="1985" cy="1548" r="107" fill="#FFFFFF" opacity="0.124" /><circle cx="855" cy="1446" r="139" fill="#FFFFFF" opacity="0.080" /><circle cx="487" cy="1740" r="158" fill="#FFFFFF" opacity="0.210" /><circle cx="836" cy="1118" r="43" fill="#FFFFFF" opacity="0.214" /><circle cx="1271" cy="1748" r="76" fill="#FFFFFF" opacity="0.224" /><circle cx="964" cy="2141" r="116" fill="#FFFFFF" opacity="0.235" /><circle cx="1291" cy="1242" r="47" fill="#FFFFFF" opacity="0.210" /><circle cx="2394" cy="2548" r="65" fill="#FFFFFF" opacity="0.203" /><circle cx="667" cy="473" r="118" fill="#FFFFFF" opacity="0.106" /><circle cx="1481" cy="1263" r="93" fill="#FFFFFF" opacity="0.067" /><circle cx="1384" cy="1974" r="104" fill="#FFFFFF" opacity="0.196" /><circle cx="1968" cy="2575" r="79" fill="#FFFFFF" opacity="0.178" /><circle cx="1451" cy="2242" r="58" fill="#FFFFFF" opacity="0.164" /><circle cx="1644" cy="1003" r="48" fill="#FFFFFF" opacity="0.072" /><circle cx="895" cy="2125" r="78" fill="#FFFFFF" opacity="0.200" /><circle cx="2484" cy="1647" r="101" fill="#FFFFFF" opacity="0.178" /></g>
  <g><path d="M 361.3 588.9 L 2710.7 312.4 L 2710.7 778.9 L 361.3 1055.4 Z" fill="#FFFFFF" opacity="0.210" /><path d="M 167.1 885.0 L 2822.9 608.5 L 2822.9 1037.2 L 167.1 1313.7 Z" fill="#FFFFFF" opacity="0.144" /><path d="M 215.6 1130.4 L 2921.8 854.0 L 2921.8 1280.8 L 215.6 1557.3 Z" fill="#FFFFFF" opacity="0.137" /><path d="M 289.6 1438.4 L 2752.4 1162.0 L 2752.4 1583.7 L 289.6 1860.2 Z" fill="#FFFFFF" opacity="0.233" /><path d="M 283.7 1645.7 L 2735.2 1369.3 L 2735.2 1801.2 L 283.7 2077.7 Z" fill="#FFFFFF" opacity="0.226" /><path d="M 223.9 1949.7 L 2719.5 1673.2 L 2719.5 2143.1 L 223.9 2419.6 Z" fill="#FFFFFF" opacity="0.226" /><path d="M 361.8 2181.4 L 2707.5 1904.9 L 2707.5 2396.0 L 361.8 2672.5 Z" fill="#FFFFFF" opacity="0.127" /><path d="M 162.1 2433.4 L 2739.1 2156.9 L 2739.1 2589.1 L 162.1 2865.6 Z" fill="#FFFFFF" opacity="0.210" /></g>
  <g filter="url(#soft222)"><g transform="rotate(-9.29 1536.0 1536.0)"><path d="M-368.6 514.5 C -225.8 495.0, -25.8 545.1, 107.5 461.2 C 250.4 480.5, 450.4 541.6, 583.7 466.7 C 726.5 472.4, 926.5 566.7, 1059.8 501.2 C 1202.7 504.7, 1402.7 525.5, 1536.0 543.7 C 1678.8 537.0, 1878.8 488.2, 2012.2 568.5 C 2155.0 566.1, 2355.0 450.6, 2488.3 560.5 C 2631.2 547.4, 2831.2 488.6, 2964.5 524.6 C 3107.3 525.9, 3307.3 506.9, 3440.6 482.5" fill="none" stroke="url(#ribbon222)" stroke-width="58.4" stroke-linecap="round" stroke-opacity="0.120" /></g><g transform="rotate(-8.71 1536.0 1536.0)"><path d="M-368.6 675.4 C -241.7 715.4, -63.9 659.2, 54.6 689.5 C 181.6 685.3, 359.4 665.4, 477.9 641.7 C 604.8 630.8, 782.6 704.9, 901.1 614.3 C 1028.1 616.3, 1205.9 739.5, 1324.4 624.0 C 1451.3 626.7, 1629.1 720.3, 1747.6 665.0 C 1874.6 662.1, 2052.4 686.4, 2170.9 712.2 C 2297.9 719.4, 2475.6 646.0, 2594.1 737.2 C 2721.1 737.9, 2898.9 618.1, 3017.4 724.7 C 3144.4 721.1, 3322.1 660.1, 3440.6 682.3" fill="none" stroke="url(#ribbon222)" stroke-width="54.4" stroke-linecap="round" stroke-opacity="0.146" /></g><g transform="rotate(-8.13 1536.0 1536.0)"><path d="M-368.6 859.3 C -254.4 869.8, -94.4 847.9, 12.3 917.7 C 126.6 909.6, 286.6 830.8, 393.2 927.0 C 507.5 943.1, 667.5 797.7, 774.1 895.3 C 888.4 906.2, 1048.4 841.5, 1155.1 841.7 C 1269.4 840.9, 1429.3 865.2, 1536.0 798.9 C 1650.3 808.4, 1810.3 902.2, 1916.9 792.7 C 2031.2 818.8, 2191.2 925.2, 2297.9 827.0 C 2412.1 823.1, 2572.1 881.6, 2678.8 880.8 C 2793.1 876.0, 2953.1 838.2, 3059.7 921.7 C 3174.0 918.0, 3334.0 812.7, 3440.6 924.7" fill="none" stroke="url(#ribbon222)" stroke-width="50.4" stroke-linecap="round" stroke-opacity="0.172" /></g><g transform="rotate(-7.55 1536.0 1536.0)"><path d="M-368.6 1070.7 C -264.8 972.5, -119.3 1095.1, -22.3 1009.0 C 81.5 1011.2, 227.0 1121.1, 324.0 1060.2 C 427.8 1058.2, 573.3 1079.5, 670.3 1117.7 C 774.1 1110.7, 919.6 1030.0, 1016.6 1146.7 C 1120.4 1174.4, 1265.9 1033.7, 1362.9 1129.6 C 1466.7 1149.7, 1612.2 1052.7, 1709.1 1076.8 C 1813.0 1074.9, 1958.5 1066.1, 2055.4 1020.2 C 2159.3 1024.2, 2304.8 1087.6, 2401.7 994.3 C 2505.6 1001.4, 2651.1 1132.3, 2748.0 1014.7 C 2851.9 1036.5, 2997.4 1123.5, 3094.3 1069.1 C 3198.2 1069.2, 3343.7 1072.3, 3440.6 1124.4" fill="none" stroke="url(#ribbon222)" stroke-width="46.4" stroke-linecap="round" stroke-opacity="0.198" /></g><g transform="rotate(-6.97 1536.0 1536.0)"><path d="M-368.6 1294.2 C -273.4 1331.0, -140.1 1252.6, -51.2 1274.6 C 44.0 1267.0, 177.4 1307.7, 266.2 1222.3 C 361.5 1206.1, 494.8 1328.9, 583.7 1213.6 C 678.9 1202.5, 812.2 1325.7, 901.1 1253.9 C 996.4 1263.3, 1129.7 1341.0, 1218.6 1318.6 C 1313.8 1326.6, 1447.1 1276.3, 1536.0 1368.5 C 1631.2 1373.0, 1764.6 1251.6, 1853.4 1373.4 C 1948.7 1362.7, 2082.0 1206.1, 2170.9 1330.2 C 2266.1 1324.6, 2399.4 1280.1, 2488.3 1265.2 C 2583.6 1264.8, 2716.9 1325.9, 2805.8 1217.8 C 2901.0 1235.7, 3034.3 1373.1, 3123.2 1216.7 C 3218.4 1247.7, 3351.8 1329.0, 3440.6 1262.7" fill="none" stroke="url(#ribbon222)" stroke-width="42.4" stroke-linecap="round" stroke-opacity="0.224" /></g><g transform="rotate(-6.39 1536.0 1536.0)"><path d="M-368.6 1517.7 C -225.8 1619.5, -25.8 1417.0, 107.5 1595.7 C 250.4 1601.8, 450.4 1472.7, 583.7 1538.9 C 726.5 1532.9, 926.5 1502.6, 1059.8 1469.3 C 1202.7 1472.2, 1402.7 1553.7, 1536.0 1429.0 C 1678.8 1395.2, 1878.8 1586.7, 2012.2 1442.6 C 2155.0 1422.8, 2355.0 1597.8, 2488.3 1501.8 C 2631.2 1499.1, 2831.2 1534.3, 2964.5 1570.6 C 3107.3 1557.7, 3307.3 1489.5, 3440.6 1607.4" fill="none" stroke="url(#ribbon222)" stroke-width="38.4" stroke-linecap="round" stroke-opacity="0.250" /></g><g transform="rotate(-5.81 1536.0 1536.0)"><path d="M-368.6 1702.3 C -241.7 1635.7, -63.9 1793.9, 54.6 1645.3 C 181.6 1646.1, 359.4 1747.5, 477.9 1719.5 C 604.8 1713.7, 782.6 1682.9, 901.1 1783.3 C 1028.1 1808.7, 1205.9 1646.2, 1324.4 1797.9 C 1451.3 1766.1, 1629.1 1657.7, 1747.6 1754.6 C 1874.6 1746.0, 2052.4 1660.4, 2170.9 1679.6 C 2297.9 1687.6, 2475.6 1710.3, 2594.1 1618.3 C 2721.1 1616.3, 2898.9 1787.8, 3017.4 1608.0 C 3144.4 1614.7, 3322.1 1761.5, 3440.6 1654.9" fill="none" stroke="url(#ribbon222)" stroke-width="34.4" stroke-linecap="round" stroke-opacity="0.276" /></g><g transform="rotate(-5.23 1536.0 1536.0)"><path d="M-368.6 1937.8 C -254.4 1999.7, -94.4 1866.0, 12.3 1973.5 C 126.6 1979.9, 286.6 1923.9, 393.2 1892.0 C 507.5 1884.5, 667.5 1956.3, 774.1 1838.3 C 888.4 1857.0, 1048.4 1996.9, 1155.1 1845.0 C 1269.4 1861.7, 1429.3 2015.6, 1536.0 1908.0 C 1650.3 1909.7, 1810.3 1962.3, 1916.9 1989.0 C 2031.2 1999.2, 2191.2 1921.4, 2297.9 2039.1 C 2412.1 2017.9, 2572.1 1892.6, 2678.8 2027.7 C 2793.1 2049.9, 2953.1 1878.3, 3059.7 1961.8 C 3174.0 1964.8, 3334.0 1929.9, 3440.6 1881.3" fill="none" stroke="url(#ribbon222)" stroke-width="30.4" stroke-linecap="round" stroke-opacity="0.302" /></g><g transform="rotate(-4.65 1536.0 1536.0)"><path d="M-368.6 2014.1 C -264.8 2085.8, -119.3 1993.2, -22.3 1980.7 C 81.5 1977.7, 227.0 2024.8, 324.0 1914.3 C 427.8 1907.4, 573.3 2131.1, 670.3 1908.4 C 774.1 1895.9, 919.6 2092.8, 1016.6 1966.7 C 1120.4 1967.3, 1265.9 2040.5, 1362.9 2053.7 C 1466.7 2061.6, 1612.2 1967.6, 1709.1 2116.7 C 1813.0 2111.1, 1958.5 1954.4, 2055.4 2117.5 C 2159.3 2106.6, 2304.8 1942.8, 2401.7 2055.6 C 2505.6 2046.4, 2651.1 1984.9, 2748.0 1968.5 C 2851.9 1951.3, 2997.4 2054.2, 3094.3 1909.1 C 3198.2 1935.5, 3343.7 2109.1, 3440.6 1913.4" fill="none" stroke="url(#ribbon222)" stroke-width="26.4" stroke-linecap="round" stroke-opacity="0.328" /></g><g transform="rotate(-4.07 1536.0 1536.0)"><path d="M-368.6 2229.0 C -273.4 2128.1, -140.1 2280.3, -51.2 2112.7 C 44.0 2104.3, 177.4 2344.9, 266.2 2165.4 C 361.5 2184.2, 494.8 2257.3, 583.7 2256.7 C 678.9 2250.1, 812.2 2218.5, 901.1 2331.3 C 996.4 2332.4, 1129.7 2191.1, 1218.6 2343.8 C 1313.8 2361.4, 1447.1 2191.0, 1536.0 2286.7 C 1631.2 2271.8, 1764.6 2170.0, 1853.4 2194.7 C 1948.7 2196.0, 2082.0 2255.6, 2170.9 2123.5 C 2266.1 2122.0, 2399.4 2312.6, 2488.3 2116.3 C 2583.6 2104.2, 2716.9 2328.9, 2805.8 2177.5 C 2901.0 2197.6, 3034.3 2267.0, 3123.2 2270.0 C 3218.4 2273.6, 3351.8 2216.5, 3440.6 2337.6" fill="none" stroke="url(#ribbon222)" stroke-width="22.4" stroke-linecap="round" stroke-opacity="0.354" /></g><g transform="rotate(-3.49 1536.0 1536.0)"><path d="M-368.6 2447.1 C -225.8 2530.5, -25.8 2423.0, 107.5 2414.1 C 250.4 2425.3, 450.4 2470.8, 583.7 2336.9 C 726.5 2330.7, 926.5 2512.4, 1059.8 2326.5 C 1202.7 2303.7, 1402.7 2502.4, 1536.0 2389.3 C 1678.8 2407.7, 1878.8 2505.7, 2012.2 2487.1 C 2155.0 2481.3, 2355.0 2418.6, 2488.3 2560.6 C 2631.2 2562.7, 2831.2 2358.7, 2964.5 2565.3 C 3107.3 2574.7, 3307.3 2395.1, 3440.6 2498.2" fill="none" stroke="url(#ribbon222)" stroke-width="18.4" stroke-linecap="round" stroke-opacity="0.380" /></g><g transform="rotate(-2.91 1536.0 1536.0)"><path d="M-368.6 2673.6 C -241.7 2721.8, -63.9 2652.0, 54.6 2792.0 C 181.6 2773.0, 359.4 2580.1, 477.9 2799.7 C 604.8 2794.6, 782.6 2615.0, 901.1 2730.9 C 1028.1 2727.7, 1205.9 2615.3, 1324.4 2627.4 C 1451.3 2642.8, 1629.1 2690.5, 1747.6 2552.0 C 1874.6 2596.0, 2052.4 2798.6, 2170.9 2550.3 C 2297.9 2538.7, 2475.6 2803.5, 2594.1 2623.5 C 2721.1 2616.9, 2898.9 2717.0, 3017.4 2727.1 C 3144.4 2725.2, 3322.1 2657.1, 3440.6 2798.2" fill="none" stroke="url(#ribbon222)" stroke-width="14.4" stroke-linecap="round" stroke-opacity="0.406" /></g></g>
  <g><ellipse cx="1536.0" cy="1551.9" rx="728.6" ry="605.7" fill="url(#extrude222)" opacity="0.220" /><ellipse cx="1536.0" cy="1567.7" rx="736.0" ry="610.9" fill="url(#extrude222)" opacity="0.205" /><ellipse cx="1536.0" cy="1583.6" rx="743.4" ry="616.1" fill="url(#extrude222)" opacity="0.190" /><ellipse cx="1536.0" cy="1599.5" rx="750.9" ry="621.3" fill="url(#extrude222)" opacity="0.175" /><ellipse cx="1536.0" cy="1615.4" rx="758.3" ry="626.5" fill="url(#extrude222)" opacity="0.160" /><ellipse cx="1536.0" cy="1631.2" rx="765.7" ry="631.7" fill="url(#extrude222)" opacity="0.145" /><ellipse cx="1536.0" cy="1647.1" rx="773.2" ry="636.9" fill="url(#extrude222)" opacity="0.130" /><ellipse cx="1536.0" cy="1663.0" rx="780.6" ry="642.1" fill="url(#extrude222)" opacity="0.115" /><ellipse cx="1536.0" cy="1678.8" rx="788.0" ry="647.4" fill="url(#extrude222)" opacity="0.100" /><ellipse cx="1536.0" cy="1694.7" rx="795.5" ry="652.6" fill="url(#extrude222)" opacity="0.085" /><ellipse cx="1536.0" cy="1710.6" rx="802.9" ry="657.8" fill="url(#extrude222)" opacity="0.070" /><ellipse cx="1536.0" cy="1726.5" rx="810.3" ry="663.0" fill="url(#extrude222)" opacity="0.055" /></g>
  <ellipse cx="1536.0" cy="1726.5" rx="773.2" ry="214.9" fill="#0B1D2D" opacity="0.24" />
  <ellipse cx="1536.0" cy="1536.0" rx="743.4" ry="651.3" fill="url(#orb222)" stroke="#FFFFFF" stroke-opacity="0.42" stroke-width="7" />
  <ellipse cx="1431.9" cy="1392.7" rx="505.5" ry="299.6" fill="#FFFFFF" opacity="0.25" />
  <path d="M 199.4 399.4 C 1013.8 -30.7, 2058.2 768.0, 2872.6 215.0 L 2872.6 983.0 C 2089.0 1228.8, 1013.8 307.2, 199.4 1167.4 Z" fill="url(#glass222)" />
  <rect x="270" y="270" width="2532" height="2532" rx="430" fill="none" stroke="#FFFFFF" stroke-opacity="0.30" stroke-width="5" />
  <rect x="288.4" y="288.4" width="2495.1" height="2495.1" rx="399" fill="none" stroke="#FFD84D" stroke-opacity="0.35" stroke-width="3" />
  <g filter="url(#soft222)"><rect x="785" y="254" width="66" height="2" fill="#FFFFFF" opacity="0.428" /><rect x="817" y="222" width="2" height="66" fill="#FFFFFF" opacity="0.428" /><rect x="1774" y="2093" width="82" height="2" fill="#FFFFFF" opacity="0.686" /><rect x="1814" y="2053" width="2" height="82" fill="#FFFFFF" opacity="0.686" /><rect x="2246" y="2370" width="66" height="2" fill="#FFFFFF" opacity="0.516" /><rect x="2278" y="2338" width="2" height="66" fill="#FFFFFF" opacity="0.516" /><rect x="416" y="294" width="34" height="2" fill="#FFFFFF" opacity="0.322" /><rect x="432" y="278" width="2" height="34" fill="#FFFFFF" opacity="0.322" /><rect x="2785" y="2539" width="30" height="2" fill="#FFFFFF" opacity="0.392" /><rect x="2799" y="2525" width="2" height="30" fill="#FFFFFF" opacity="0.392" /><rect x="1356" y="742" width="82" height="2" fill="#FFFFFF" opacity="0.669" /><rect x="1396" y="702" width="2" height="82" fill="#FFFFFF" opacity="0.669" /><rect x="598" y="1676" width="58" height="2" fill="#FFFFFF" opacity="0.696" /><rect x="626" y="1648" width="2" height="58" fill="#FFFFFF" opacity="0.696" /><rect x="489" y="2742" width="78" height="2" fill="#FFFFFF" opacity="0.303" /><rect x="527" y="2704" width="2" height="78" fill="#FFFFFF" opacity="0.303" /><rect x="2357" y="2588" width="66" height="2" fill="#FFFFFF" opacity="0.618" /><rect x="2389" y="2556" width="2" height="66" fill="#FFFFFF" opacity="0.618" /><rect x="2594" y="1210" width="50" height="2" fill="#FFFFFF" opacity="0.744" /><rect x="2618" y="1186" width="2" height="50" fill="#FFFFFF" opacity="0.744" /><rect x="1782" y="2501" width="40" height="2" fill="#FFFFFF" opacity="0.432" /><rect x="1801" y="2482" width="2" height="40" fill="#FFFFFF" opacity="0.432" /><rect x="1131" y="2589" width="36" height="2" fill="#FFFFFF" opacity="0.481" /><rect x="1148" y="2572" width="2" height="36" fill="#FFFFFF" opacity="0.481" /><rect x="1917" y="857" width="68" height="2" fill="#FFFFFF" opacity="0.496" /><rect x="1950" y="824" width="2" height="68" fill="#FFFFFF" opacity="0.496" /><rect x="1573" y="602" width="66" height="2" fill="#FFFFFF" opacity="0.310" /><rect x="1605" y="570" width="2" height="66" fill="#FFFFFF" opacity="0.310" /><rect x="573" y="2232" width="82" height="2" fill="#FFFFFF" opacity="0.553" /><rect x="613" y="2192" width="2" height="82" fill="#FFFFFF" opacity="0.553" /><rect x="2760" y="2551" width="30" height="2" fill="#FFFFFF" opacity="0.731" /><rect x="2774" y="2537" width="2" height="30" fill="#FFFFFF" opacity="0.731" /><rect x="1508" y="1778" width="52" height="2" fill="#FFFFFF" opacity="0.447" /><rect x="1533" y="1753" width="2" height="52" fill="#FFFFFF" opacity="0.447" /><rect x="1455" y="355" width="78" height="2" fill="#FFFFFF" opacity="0.759" /><rect x="1493" y="317" width="2" height="78" fill="#FFFFFF" opacity="0.759" /><rect x="1261" y="1051" width="68" height="2" fill="#FFFFFF" opacity="0.596" /><rect x="1294" y="1018" width="2" height="68" fill="#FFFFFF" opacity="0.596" /><rect x="657" y="2197" width="84" height="2" fill="#FFFFFF" opacity="0.333" /><rect x="698" y="2156" width="2" height="84" fill="#FFFFFF" opacity="0.333" /><rect x="2175" y="1325" width="24" height="2" fill="#FFFFFF" opacity="0.577" /><rect x="2186" y="1314" width="2" height="24" fill="#FFFFFF" opacity="0.577" /><rect x="595" y="1359" width="82" height="2" fill="#FFFFFF" opacity="0.846" /><rect x="635" y="1319" width="2" height="82" fill="#FFFFFF" opacity="0.846" /><rect x="623" y="2097" width="50" height="2" fill="#FFFFFF" opacity="0.764" /><rect x="647" y="2073" width="2" height="50" fill="#FFFFFF" opacity="0.764" /><rect x="917" y="626" width="32" height="2" fill="#FFFFFF" opacity="0.477" /><rect x="932" y="611" width="2" height="32" fill="#FFFFFF" opacity="0.477" /><rect x="1686" y="2281" width="34" height="2" fill="#FFFFFF" opacity="0.437" /><rect x="1702" y="2265" width="2" height="34" fill="#FFFFFF" opacity="0.437" /><rect x="919" y="1591" width="34" height="2" fill="#FFFFFF" opacity="0.839" /><rect x="935" y="1575" width="2" height="34" fill="#FFFFFF" opacity="0.839" /></g>
  <g opacity="0.52"><path d="M996 1582 Q1572 1006, 2148 1582" fill="none" stroke="#0C2030" stroke-width="90" /><path d="M996 1801 Q1572 1198, 2148 1801" fill="none" stroke="#0C2030" stroke-width="88" opacity="0.9" /><path d="M996 1966 Q1572 1326, 2148 1966" fill="none" stroke="#0C2030" stroke-width="87" opacity="0.75" /></g>
  <g filter="url(#soft222)"><path d="M960 1536 Q1536 960, 2112 1536" fill="none" stroke="url(#symbol222)" stroke-width="90" /><path d="M960 1755 Q1536 1152, 2112 1755" fill="none" stroke="url(#symbol222)" stroke-width="88" opacity="0.9" /><path d="M960 1920 Q1536 1280, 2112 1920" fill="none" stroke="url(#symbol222)" stroke-width="87" opacity="0.75" /></g>
  <rect x="138" y="138" width="2796" height="2796" rx="629" fill="#FFFFFF" filter="url(#grain222)" opacity="0.18" />
</svg>
