<svg xmlns="http://www.w3.org/2000/svg" width="3072" height="3072" viewBox="0 0 3072 3072">
  <title>QuartzOS App Icon 343 - quartz_designer_343</title>
  <defs><linearGradient id="bg342" x1="0%" y1="0%" x2="100%" y2="100%"><stop offset="0%" stop-color="#53E3A6" /><stop offset="26%" stop-color="#3B82FF" /><stop offset="56%" stop-color="#FF6AB3" /><stop offset="78%" stop-color="#4B91A3" /><stop offset="100%" stop-color="#1A2630" /></linearGradient><radialGradient id="sun342" cx="26%" cy="28%" r="88%"><stop offset="0%" stop-color="#FFFFFF" stop-opacity="0.62" /><stop offset="30%" stop-color="#FF9F43" stop-opacity="0.35" /><stop offset="100%" stop-color="#FF9F43" stop-opacity="0" /></radialGradient><linearGradient id="glass342" x1="0%" y1="0%" x2="0%" y2="100%"><stop offset="0%" stop-color="#FFFFFF" stop-opacity="0.70" /><stop offset="46%" stop-color="#FFFFFF" stop-opacity="0.26" /><stop offset="100%" stop-color="#FFFFFF" stop-opacity="0.00" /></linearGradient><linearGradient id="ribbon342" x1="0%" y1="0%" x2="100%" y2="0%"><stop offset="0%" stop-color="#53E3A6" stop-opacity="0.18" /><stop offset="34%" stop-color="#3B82FF" stop-opacity="0.72" /><stop offset="66%" stop-color="#FF6AB3" stop-opacity="0.72" /><stop offset="100%" stop-color="#FF9F43" stop-opacity="0.18" /></linearGradient><radialGradient id="orb342" cx="34%" cy="27%" r="74%"><stop offset="0%" stop-color="#FFFFFF" stop-opacity="0.84" /><stop offset="30%" stop-color="#53E3A6" stop-opacity="0.52" /><stop offset="68%" stop-color="#3B82FF" stop-opacity="0.42" /><stop offset="100%" stop-color="#FF6AB3" stop-opacity="0.20" /></radialGradient><linearGradient id="extrude342" x1="0%" y1="0%" x2="0%" y2="100%"><stop offset="0%" stop-color="#15283C" stop-opacity="0.45" /><stop offset="100%" stop-color="#08131D" stop-opacity="0.06" /></linearGradient><linearGradient id="symbol342" x1="0%" y1="0%" x2="100%" y2="100%"><stop offset="0%" stop-color="#FFFFFF" /><stop offset="100%" stop-color="#FF9F43" /></linearGradient><filter id="shadow342" x="-40%" y="-40%" width="180%" height="180%"><feDropShadow dx="0" dy="49" stdDeviation="86" flood-color="#06111A" flood-opacity="0.54" /></filter><filter id="soft342" x="-40%" y="-40%" width="180%" height="180%"><feDropShadow dx="0" dy="0" stdDeviation="14" flood-color="#53E3A6" flood-opacity="0.45" /></filter><filter id="grain342"><feTurbulence type="fractalNoise" baseFrequency="1.051" numOctaves="2" seed="342" /><feColorMatrix type="saturate" values="0" /><feComponentTransfer><feFuncA type="table" tableValues="0 0.09" /></feComponentTransfer></filter></defs>
  <rect x="138" y="138" width="2796" height="2796" rx="629" fill="url(#bg342)" filter="url(#shadow342)" />
  <rect x="138" y="138" width="2796" height="2796" rx="629" fill="url(#sun342)" />
  <g><circle cx="2470" cy="806" r="42" fill="#FFFFFF" opacity="0.153" /><circle cx="869" cy="587" r="52" fill="#FFFFFF" opacity="0.136" /><circle cx="2351" cy="795" r="125" fill="#FFFFFF" opacity="0.205" /><circle cx="1274" cy="373" r="150" fill="#FFFFFF" opacity="0.157" /><circle cx="2421" cy="2701" r="52" fill="#FFFFFF" opacity="0.115" /><circle cx="1129" cy="1600" r="46" fill="#FFFFFF" opacity="0.227" /><circle cx="1234" cy="1257" r="86" fill="#FFFFFF" opacity="0.162" /><circle cx="1151" cy="2550" r="92" fill="#FFFFFF" opacity="0.206" /><circle cx="2675" cy="1506" r="78" fill="#FFFFFF" opacity="0.208" /><circle cx="1980" cy="663" r="108" fill="#FFFFFF" opacity="0.237" /><circle cx="2258" cy="1185" r="135" fill="#FFFFFF" opacity="0.212" /><circle cx="1625" cy="1665" r="57" fill="#FFFFFF" opacity="0.083" /><circle cx="1567" cy="1422" r="132" fill="#FFFFFF" opacity="0.100" /><circle cx="2402" cy="1876" r="47" fill="#FFFFFF" opacity="0.142" /><circle cx="1846" cy="2603" r="153" fill="#FFFFFF" opacity="0.219" /><circle cx="1674" cy="1233" r="45" fill="#FFFFFF" opacity="0.178" /><circle cx="2395" cy="2186" r="138" fill="#FFFFFF" opacity="0.230" /><circle cx="1412" cy="1470" r="136" fill="#FFFFFF" opacity="0.088" /><circle cx="1453" cy="1651" r="93" fill="#FFFFFF" opacity="0.218" /><circle cx="1558" cy="1469" r="128" fill="#FFFFFF" opacity="0.186" /><circle cx="1893" cy="1021" r="125" fill="#FFFFFF" opacity="0.240" /><circle cx="546" cy="1734" r="79" fill="#FFFFFF" opacity="0.098" /><circle cx="718" cy="2513" r="48" fill="#FFFFFF" opacity="0.104" /><circle cx="626" cy="1233" r="154" fill="#FFFFFF" opacity="0.063" /><circle cx="2053" cy="1768" r="49" fill="#FFFFFF" opacity="0.112" /><circle cx="1672" cy="980" r="65" fill="#FFFFFF" opacity="0.119" /><circle cx="2268" cy="2586" r="70" fill="#FFFFFF" opacity="0.232" /><circle cx="2132" cy="2373" r="54" fill="#FFFFFF" opacity="0.078" /></g>
  <g><path d="M 368.0 590.3 L 2829.9 313.8 L 2829.9 806.6 L 368.0 1083.1 Z" fill="#FFFFFF" opacity="0.224" /><path d="M 268.3 920.9 L 2711.8 644.4 L 2711.8 1136.3 L 268.3 1412.7 Z" fill="#FFFFFF" opacity="0.168" /><path d="M 356.4 1156.7 L 2820.4 880.2 L 2820.4 1357.3 L 356.4 1633.8 Z" fill="#FFFFFF" opacity="0.087" /><path d="M 330.5 1400.7 L 2858.8 1124.2 L 2858.8 1574.7 L 330.5 1851.2 Z" fill="#FFFFFF" opacity="0.173" /><path d="M 182.2 1646.4 L 2727.6 1369.9 L 2727.6 1825.3 L 182.2 2101.7 Z" fill="#FFFFFF" opacity="0.139" /><path d="M 378.4 1911.2 L 2911.0 1634.7 L 2911.0 2092.0 L 378.4 2368.5 Z" fill="#FFFFFF" opacity="0.197" /><path d="M 210.1 2155.2 L 2734.3 1878.7 L 2734.3 2366.3 L 210.1 2642.8 Z" fill="#FFFFFF" opacity="0.202" /><path d="M 284.5 2459.0 L 2907.1 2182.5 L 2907.1 2603.8 L 284.5 2880.3 Z" fill="#FFFFFF" opacity="0.196" /></g>
  <g filter="url(#soft342)"><g transform="rotate(-14.24 1536.0 1536.0)"><path d="M-368.6 560.6 C -225.8 508.3, -25.8 585.9, 107.5 553.9 C 250.4 555.4, 450.4 566.5, 583.7 595.3 C 726.5 606.9, 926.5 545.4, 1059.8 615.7 C 1202.7 598.3, 1402.7 513.9, 1536.0 602.7 C 1678.8 614.8, 1878.8 530.2, 2012.2 564.1 C 2155.0 563.1, 2355.0 556.7, 2488.3 523.5 C 2631.2 534.7, 2831.2 577.2, 2964.5 505.4 C 3107.3 505.8, 3307.3 592.5, 3440.6 520.8" fill="none" stroke="url(#ribbon342)" stroke-width="58.4" stroke-linecap="round" stroke-opacity="0.120" /></g><g transform="rotate(-13.66 1536.0 1536.0)"><path d="M-368.6 720.0 C -241.7 679.9, -63.9 750.4, 54.6 667.2 C 181.6 681.3, 359.4 763.5, 477.9 706.9 C 604.8 711.9, 782.6 725.3, 901.1 754.6 C 1028.1 746.1, 1205.9 692.6, 1324.4 781.3 C 1451.3 802.9, 1629.1 678.5, 1747.6 770.9 C 1874.6 753.2, 2052.4 665.1, 2170.9 729.5 C 2297.9 728.6, 2475.6 711.5, 2594.1 682.4 C 2721.1 674.7, 2898.9 745.3, 3017.4 658.1 C 3144.4 657.4, 3322.1 762.8, 3440.6 671.4" fill="none" stroke="url(#ribbon342)" stroke-width="54.4" stroke-linecap="round" stroke-opacity="0.146" /></g><g transform="rotate(-13.08 1536.0 1536.0)"><path d="M-368.6 966.7 C -254.4 1048.0, -94.4 935.5, 12.3 1032.2 C 126.6 1033.0, 286.6 902.7, 393.2 996.0 C 507.5 1002.0, 667.5 944.9, 774.1 941.9 C 888.4 943.6, 1048.4 990.4, 1155.1 902.9 C 1269.4 903.9, 1429.3 1006.6, 1536.0 902.5 C 1650.3 915.1, 1810.3 994.9, 1916.9 941.0 C 2031.2 934.1, 2191.2 992.9, 2297.9 995.1 C 2412.1 1004.5, 2572.1 950.5, 2678.8 1031.9 C 2793.1 1025.5, 2953.1 932.5, 3059.7 1029.1 C 3174.0 1042.2, 3334.0 913.1, 3440.6 988.4" fill="none" stroke="url(#ribbon342)" stroke-width="50.4" stroke-linecap="round" stroke-opacity="0.172" /></g><g transform="rotate(-12.50 1536.0 1536.0)"><path d="M-368.6 1043.6 C -264.8 997.5, -119.3 1075.1, -22.3 1066.2 C 81.5 1068.6, 227.0 1027.4, 324.0 1111.8 C 427.8 1117.7, 573.3 974.6, 670.3 1116.0 C 774.1 1104.9, 919.6 987.3, 1016.6 1076.3 C 1120.4 1077.5, 1265.9 1032.2, 1362.9 1016.8 C 1466.7 1017.9, 1612.2 1061.5, 1709.1 973.5 C 1813.0 987.5, 1958.5 1085.9, 2055.4 972.8 C 2159.3 945.0, 2304.8 1124.4, 2401.7 1015.0 C 2505.6 1025.5, 2651.1 1056.1, 2748.0 1074.6 C 2851.9 1070.9, 2997.4 1027.8, 3094.3 1115.4 C 3198.2 1112.8, 3343.7 999.8, 3440.6 1112.6" fill="none" stroke="url(#ribbon342)" stroke-width="46.4" stroke-linecap="round" stroke-opacity="0.198" /></g><g transform="rotate(-11.92 1536.0 1536.0)"><path d="M-368.6 1347.2 C -273.4 1350.0, -140.1 1345.6, -51.2 1408.9 C 44.0 1390.8, 177.4 1306.8, 266.2 1430.6 C 361.5 1398.2, 494.8 1262.8, 583.7 1401.8 C 678.9 1406.4, 812.2 1294.1, 901.1 1339.8 C 996.4 1341.4, 1129.7 1354.8, 1218.6 1282.4 C 1313.8 1275.1, 1447.1 1407.3, 1536.0 1264.2 C 1631.2 1244.4, 1764.6 1378.1, 1853.4 1296.4 C 1948.7 1308.0, 2082.0 1381.0, 2170.9 1359.4 C 2266.1 1360.5, 2399.4 1343.0, 2488.3 1415.0 C 2583.6 1406.9, 2716.9 1268.7, 2805.8 1429.5 C 2901.0 1403.4, 3034.3 1275.5, 3123.2 1394.0 C 3218.4 1384.7, 3351.8 1327.5, 3440.6 1330.2" fill="none" stroke="url(#ribbon342)" stroke-width="42.4" stroke-linecap="round" stroke-opacity="0.224" /></g><g transform="rotate(-11.34 1536.0 1536.0)"><path d="M-368.6 1464.3 C -225.8 1456.4, -25.8 1467.4, 107.5 1524.7 C 250.4 1515.8, 450.4 1415.9, 583.7 1554.9 C 726.5 1528.8, 926.5 1417.4, 1059.8 1530.1 C 1202.7 1537.0, 1402.7 1395.8, 1536.0 1465.5 C 1678.8 1465.7, 1878.8 1463.6, 2012.2 1400.1 C 2155.0 1379.6, 2355.0 1503.9, 2488.3 1373.7 C 2631.2 1366.6, 2831.2 1571.9, 2964.5 1402.3 C 3107.3 1420.7, 3307.3 1484.8, 3440.6 1468.5" fill="none" stroke="url(#ribbon342)" stroke-width="38.4" stroke-linecap="round" stroke-opacity="0.250" /></g><g transform="rotate(-10.76 1536.0 1536.0)"><path d="M-368.6 1645.0 C -241.7 1610.5, -63.9 1673.1, 54.6 1690.6 C 181.6 1701.7, 359.4 1593.2, 477.9 1738.8 C 604.8 1713.8, 782.6 1580.1, 901.1 1730.1 C 1028.1 1720.6, 1205.9 1596.5, 1324.4 1669.8 C 1451.3 1668.5, 1629.1 1630.6, 1747.6 1594.5 C 1874.6 1598.2, 2052.4 1699.9, 2170.9 1549.8 C 2297.9 1586.6, 2475.6 1702.2, 2594.1 1562.9 C 2721.1 1585.1, 2898.9 1717.2, 3017.4 1625.8 C 3144.4 1620.5, 3322.1 1665.4, 3440.6 1700.4" fill="none" stroke="url(#ribbon342)" stroke-width="34.4" stroke-linecap="round" stroke-opacity="0.276" /></g><g transform="rotate(-10.18 1536.0 1536.0)"><path d="M-368.6 1854.9 C -254.4 1918.9, -94.4 1773.3, 12.3 1876.7 C 126.6 1881.0, 286.6 1832.0, 393.2 1796.6 C 507.5 1787.4, 667.5 1916.8, 774.1 1751.8 C 888.4 1764.6, 1048.4 1942.7, 1155.1 1769.6 C 1269.4 1742.9, 1429.3 1909.4, 1536.0 1839.0 C 1650.3 1835.8, 1810.3 1873.2, 1916.9 1918.1 C 2031.2 1913.8, 2191.2 1789.0, 2297.9 1958.8 C 2412.1 1967.6, 2572.1 1789.2, 2678.8 1936.5 C 2793.1 1926.0, 2953.1 1793.1, 3059.7 1864.6 C 3174.0 1864.3, 3334.0 1847.3, 3440.6 1786.8" fill="none" stroke="url(#ribbon342)" stroke-width="30.4" stroke-linecap="round" stroke-opacity="0.302" /></g><g transform="rotate(-9.60 1536.0 1536.0)"><path d="M-368.6 2124.7 C -264.8 2255.1, -119.3 2014.2, -22.3 2172.7 C 81.5 2178.6, 227.0 2075.9, 324.0 2085.6 C 427.8 2083.5, 573.3 2141.4, 670.3 2022.3 C 774.1 1990.7, 919.6 2156.7, 1016.6 2021.1 C 1120.4 2045.7, 1265.9 2202.6, 1362.9 2082.8 C 1466.7 2078.9, 1612.2 2137.8, 1709.1 2169.8 C 1813.0 2153.2, 1958.5 2080.0, 2055.4 2229.5 C 2159.3 2188.4, 2304.8 2083.9, 2401.7 2225.7 C 2505.6 2237.7, 2651.1 2049.0, 2748.0 2160.6 C 2851.9 2160.6, 2997.4 2099.1, 3094.3 2073.7 C 3198.2 2072.1, 3343.7 2166.8, 3440.6 2017.8" fill="none" stroke="url(#ribbon342)" stroke-width="26.4" stroke-linecap="round" stroke-opacity="0.328" /></g><g transform="rotate(-9.02 1536.0 1536.0)"><path d="M-368.6 2204.1 C -273.4 2250.8, -140.1 2160.0, -51.2 2183.1 C 44.0 2186.4, 177.4 2221.2, 266.2 2105.5 C 361.5 2081.5, 494.8 2264.6, 583.7 2087.8 C 678.9 2074.9, 812.2 2323.2, 901.1 2140.6 C 996.4 2157.2, 1129.7 2254.9, 1218.6 2232.0 C 1313.8 2225.7, 1447.1 2183.1, 1536.0 2306.4 C 1631.2 2330.3, 1764.6 2139.2, 1853.4 2318.8 C 1948.7 2281.6, 2082.0 2103.0, 2170.9 2261.7 C 2266.1 2261.5, 2399.4 2169.8, 2488.3 2169.6 C 2583.6 2169.9, 2716.9 2241.2, 2805.8 2098.5 C 2901.0 2087.2, 3034.3 2238.7, 3123.2 2091.4 C 3218.4 2066.8, 3351.8 2256.9, 3440.6 2152.8" fill="none" stroke="url(#ribbon342)" stroke-width="22.4" stroke-linecap="round" stroke-opacity="0.354" /></g><g transform="rotate(-8.44 1536.0 1536.0)"><path d="M-368.6 2490.1 C -225.8 2563.4, -25.8 2441.2, 107.5 2466.8 C 250.4 2468.2, 450.4 2514.9, 583.7 2385.1 C 726.5 2402.0, 926.5 2535.2, 1059.8 2367.1 C 1202.7 2347.5, 1402.7 2636.8, 1536.0 2423.7 C 1678.8 2433.4, 1878.8 2566.4, 2012.2 2520.7 C 2155.0 2527.8, 2355.0 2477.5, 2488.3 2599.0 C 2631.2 2632.0, 2831.2 2429.7, 2964.5 2611.4 C 3107.3 2639.7, 3307.3 2397.8, 3440.6 2550.1" fill="none" stroke="url(#ribbon342)" stroke-width="18.4" stroke-linecap="round" stroke-opacity="0.380" /></g><g transform="rotate(-7.86 1536.0 1536.0)"><path d="M-368.6 2627.2 C -241.7 2687.9, -63.9 2595.3, 54.6 2757.3 C 181.6 2805.9, 359.4 2578.2, 477.9 2737.8 C 604.8 2769.4, 782.6 2513.1, 901.1 2651.3 C 1028.1 2647.9, 1205.9 2613.2, 1324.4 2550.1 C 1451.3 2534.5, 1629.1 2653.2, 1747.6 2495.7 C 1874.6 2522.0, 2052.4 2720.9, 2170.9 2521.1 C 2297.9 2529.5, 2475.6 2751.8, 2594.1 2610.9 C 2721.1 2616.7, 2898.9 2645.2, 3017.4 2710.5 C 3144.4 2743.7, 3322.1 2535.4, 3440.6 2759.7" fill="none" stroke="url(#ribbon342)" stroke-width="14.4" stroke-linecap="round" stroke-opacity="0.406" /></g></g>
  <g><ellipse cx="1536.0" cy="1551.9" rx="728.6" ry="605.7" fill="url(#extrude342)" opacity="0.220" /><ellipse cx="1536.0" cy="1567.7" rx="736.0" ry="610.9" fill="url(#extrude342)" opacity="0.205" /><ellipse cx="1536.0" cy="1583.6" rx="743.4" ry="616.1" fill="url(#extrude342)" opacity="0.190" /><ellipse cx="1536.0" cy="1599.5" rx="750.9" ry="621.3" fill="url(#extrude342)" opacity="0.175" /><ellipse cx="1536.0" cy="1615.4" rx="758.3" ry="626.5" fill="url(#extrude342)" opacity="0.160" /><ellipse cx="1536.0" cy="1631.2" rx="765.7" ry="631.7" fill="url(#extrude342)" opacity="0.145" /><ellipse cx="1536.0" cy="1647.1" rx="773.2" ry="636.9" fill="url(#extrude342)" opacity="0.130" /><ellipse cx="1536.0" cy="1663.0" rx="780.6" ry="642.1" fill="url(#extrude342)" opacity="0.115" /><ellipse cx="1536.0" cy="1678.8" rx="788.0" ry="647.4" fill="url(#extrude342)" opacity="0.100" /><ellipse cx="1536.0" cy="1694.7" rx="795.5" ry="652.6" fill="url(#extrude342)" opacity="0.085" /><ellipse cx="1536.0" cy="1710.6" rx="802.9" ry="657.8" fill="url(#extrude342)" opacity="0.070" /><ellipse cx="1536.0" cy="1726.5" rx="810.3" ry="663.0" fill="url(#extrude342)" opacity="0.055" /></g>
  <ellipse cx="1536.0" cy="1726.5" rx="773.2" ry="214.9" fill="#0B1D2D" opacity="0.24" />
  <ellipse cx="1536.0" cy="1536.0" rx="743.4" ry="651.3" fill="url(#orb342)" stroke="#FFFFFF" stroke-opacity="0.42" stroke-width="7" />
  <ellipse cx="1431.9" cy="1392.7" rx="505.5" ry="299.6" fill="#FFFFFF" opacity="0.25" />
  <path d="M 199.4 399.4 C 1013.8 -30.7, 2058.2 768.0, 2872.6 215.0 L 2872.6 983.0 C 2089.0 1228.8, 1013.8 307.2, 199.4 1167.4 Z" fill="url(#glass342)" />
  <rect x="270" y="270" width="2532" height="2532" rx="430" fill="none" stroke="#FFFFFF" stroke-opacity="0.30" stroke-width="5" />
  <rect x="288.4" y="288.4" width="2495.1" height="2495.1" rx="399" fill="none" stroke="#53E3A6" stroke-opacity="0.35" stroke-width="3" />
  <g filter="url(#soft342)"><rect x="2614" y="1569" width="74" height="2" fill="#FFFFFF" opacity="0.660" /><rect x="2650" y="1533" width="2" height="74" fill="#FFFFFF" opacity="0.660" /><rect x="2089" y="2681" width="84" height="2" fill="#FFFFFF" opacity="0.770" /><rect x="2130" y="2640" width="2" height="84" fill="#FFFFFF" opacity="0.770" /><rect x="1126" y="1428" width="44" height="2" fill="#FFFFFF" opacity="0.325" /><rect x="1147" y="1407" width="2" height="44" fill="#FFFFFF" opacity="0.325" /><rect x="487" y="2030" width="46" height="2" fill="#FFFFFF" opacity="0.578" /><rect x="509" y="2008" width="2" height="46" fill="#FFFFFF" opacity="0.578" /><rect x="2342" y="1355" width="78" height="2" fill="#FFFFFF" opacity="0.482" /><rect x="2380" y="1317" width="2" height="78" fill="#FFFFFF" opacity="0.482" /><rect x="2153" y="1419" width="74" height="2" fill="#FFFFFF" opacity="0.778" /><rect x="2189" y="1383" width="2" height="74" fill="#FFFFFF" opacity="0.778" /><rect x="350" y="1575" width="68" height="2" fill="#FFFFFF" opacity="0.710" /><rect x="383" y="1542" width="2" height="68" fill="#FFFFFF" opacity="0.710" /><rect x="2405" y="348" width="58" height="2" fill="#FFFFFF" opacity="0.307" /><rect x="2433" y="320" width="2" height="58" fill="#FFFFFF" opacity="0.307" /><rect x="1262" y="2239" width="70" height="2" fill="#FFFFFF" opacity="0.403" /><rect x="1296" y="2205" width="2" height="70" fill="#FFFFFF" opacity="0.403" /><rect x="2649" y="2754" width="36" height="2" fill="#FFFFFF" opacity="0.398" /><rect x="2666" y="2737" width="2" height="36" fill="#FFFFFF" opacity="0.398" /><rect x="297" y="1153" width="80" height="2" fill="#FFFFFF" opacity="0.514" /><rect x="336" y="1114" width="2" height="80" fill="#FFFFFF" opacity="0.514" /><rect x="1013" y="328" width="72" height="2" fill="#FFFFFF" opacity="0.570" /><rect x="1048" y="293" width="2" height="72" fill="#FFFFFF" opacity="0.570" /><rect x="2340" y="1726" width="34" height="2" fill="#FFFFFF" opacity="0.660" /><rect x="2356" y="1710" width="2" height="34" fill="#FFFFFF" opacity="0.660" /><rect x="1454" y="1332" width="54" height="2" fill="#FFFFFF" opacity="0.425" /><rect x="1480" y="1306" width="2" height="54" fill="#FFFFFF" opacity="0.425" /><rect x="368" y="935" width="44" height="2" fill="#FFFFFF" opacity="0.387" /><rect x="389" y="914" width="2" height="44" fill="#FFFFFF" opacity="0.387" /><rect x="697" y="1635" width="32" height="2" fill="#FFFFFF" opacity="0.655" /><rect x="712" y="1620" width="2" height="32" fill="#FFFFFF" opacity="0.655" /><rect x="2787" y="2635" width="76" height="2" fill="#FFFFFF" opacity="0.745" /><rect x="2824" y="2598" width="2" height="76" fill="#FFFFFF" opacity="0.745" /><rect x="1419" y="1249" width="48" height="2" fill="#FFFFFF" opacity="0.507" /><rect x="1442" y="1226" width="2" height="48" fill="#FFFFFF" opacity="0.507" /><rect x="905" y="791" width="34" height="2" fill="#FFFFFF" opacity="0.668" /><rect x="921" y="775" width="2" height="34" fill="#FFFFFF" opacity="0.668" /><rect x="979" y="868" width="38" height="2" fill="#FFFFFF" opacity="0.509" /><rect x="997" y="850" width="2" height="38" fill="#FFFFFF" opacity="0.509" /><rect x="2594" y="665" width="36" height="2" fill="#FFFFFF" opacity="0.819" /><rect x="2611" y="648" width="2" height="36" fill="#FFFFFF" opacity="0.819" /><rect x="938" y="1091" width="62" height="2" fill="#FFFFFF" opacity="0.555" /><rect x="968" y="1061" width="2" height="62" fill="#FFFFFF" opacity="0.555" /><rect x="1555" y="2364" width="44" height="2" fill="#FFFFFF" opacity="0.591" /><rect x="1576" y="2343" width="2" height="44" fill="#FFFFFF" opacity="0.591" /><rect x="2485" y="1792" width="46" height="2" fill="#FFFFFF" opacity="0.498" /><rect x="2507" y="1770" width="2" height="46" fill="#FFFFFF" opacity="0.498" /><rect x="2530" y="2185" width="42" height="2" fill="#FFFFFF" opacity="0.368" /><rect x="2550" y="2165" width="2" height="42" fill="#FFFFFF" opacity="0.368" /><rect x="2386" y="1654" width="72" height="2" fill="#FFFFFF" opacity="0.503" /><rect x="2421" y="1619" width="2" height="72" fill="#FFFFFF" opacity="0.503" /></g>
  <g opacity="0.52"><path d="M996 1582 Q1572 1006, 2148 1582" fill="none" stroke="#0C2030" stroke-width="90" /><path d="M996 1801 Q1572 1198, 2148 1801" fill="none" stroke="#0C2030" stroke-width="88" opacity="0.9" /><path d="M996 1966 Q1572 1326, 2148 1966" fill="none" stroke="#0C2030" stroke-width="87" opacity="0.75" /></g>
  <g filter="url(#soft342)"><path d="M960 1536 Q1536 960, 2112 1536" fill="none" stroke="url(#symbol342)" stroke-width="90" /><path d="M960 1755 Q1536 1152, 2112 1755" fill="none" stroke="url(#symbol342)" stroke-width="88" opacity="0.9" /><path d="M960 1920 Q1536 1280, 2112 1920" fill="none" stroke="url(#symbol342)" stroke-width="87" opacity="0.75" /></g>
  <rect x="138" y="138" width="2796" height="2796" rx="629" fill="#FFFFFF" filter="url(#grain342)" opacity="0.18" />
</svg>
