<svg xmlns="http://www.w3.org/2000/svg" width="3072" height="3072" viewBox="0 0 3072 3072">
  <title>QuartzOS App Icon 240 - solar_calendar_240</title>
  <defs><linearGradient id="bg239" x1="0%" y1="0%" x2="100%" y2="100%"><stop offset="0%" stop-color="#3B82FF" /><stop offset="26%" stop-color="#FF6AB3" /><stop offset="56%" stop-color="#FFD84D" /><stop offset="78%" stop-color="#4BA7D0" /><stop offset="100%" stop-color="#122A3D" /></linearGradient><radialGradient id="sun239" cx="27%" cy="39%" r="88%"><stop offset="0%" stop-color="#FFFFFF" stop-opacity="0.62" /><stop offset="30%" stop-color="#53E3A6" stop-opacity="0.35" /><stop offset="100%" stop-color="#53E3A6" stop-opacity="0" /></radialGradient><linearGradient id="glass239" x1="0%" y1="0%" x2="0%" y2="100%"><stop offset="0%" stop-color="#FFFFFF" stop-opacity="0.70" /><stop offset="46%" stop-color="#FFFFFF" stop-opacity="0.26" /><stop offset="100%" stop-color="#FFFFFF" stop-opacity="0.00" /></linearGradient><linearGradient id="ribbon239" x1="0%" y1="0%" x2="100%" y2="0%"><stop offset="0%" stop-color="#3B82FF" stop-opacity="0.18" /><stop offset="34%" stop-color="#FF6AB3" stop-opacity="0.72" /><stop offset="66%" stop-color="#FFD84D" stop-opacity="0.72" /><stop offset="100%" stop-color="#53E3A6" stop-opacity="0.18" /></linearGradient><radialGradient id="orb239" cx="34%" cy="27%" r="74%"><stop offset="0%" stop-color="#FFFFFF" stop-opacity="0.84" /><stop offset="30%" stop-color="#3B82FF" stop-opacity="0.52" /><stop offset="68%" stop-color="#FF6AB3" stop-opacity="0.42" /><stop offset="100%" stop-color="#FFD84D" stop-opacity="0.20" /></radialGradient><linearGradient id="extrude239" x1="0%" y1="0%" x2="0%" y2="100%"><stop offset="0%" stop-color="#15283C" stop-opacity="0.45" /><stop offset="100%" stop-color="#08131D" stop-opacity="0.06" /></linearGradient><linearGradient id="symbol239" x1="0%" y1="0%" x2="100%" y2="100%"><stop offset="0%" stop-color="#FFFFFF" /><stop offset="100%" stop-color="#53E3A6" /></linearGradient><filter id="shadow239" x="-40%" y="-40%" width="180%" height="180%"><feDropShadow dx="0" dy="49" stdDeviation="86" flood-color="#06111A" flood-opacity="0.54" /></filter><filter id="soft239" x="-40%" y="-40%" width="180%" height="180%"><feDropShadow dx="0" dy="0" stdDeviation="14" flood-color="#3B82FF" flood-opacity="0.45" /></filter><filter id="grain239"><feTurbulence type="fractalNoise" baseFrequency="0.833" numOctaves="2" seed="239" /><feColorMatrix type="saturate" values="0" /><feComponentTransfer><feFuncA type="table" tableValues="0 0.09" /></feComponentTransfer></filter></defs>
  <rect x="138" y="138" width="2796" height="2796" rx="629" fill="url(#bg239)" filter="url(#shadow239)" />
  <rect x="138" y="138" width="2796" height="2796" rx="629" fill="url(#sun239)" />
  <g><circle cx="2033" cy="2354" r="44" fill="#FFFFFF" opacity="0.225" /><circle cx="1718" cy="1540" r="42" fill="#FFFFFF" opacity="0.089" /><circle cx="1267" cy="2272" r="130" fill="#FFFFFF" opacity="0.119" /><circle cx="1292" cy="2229" r="96" fill="#FFFFFF" opacity="0.112" /><circle cx="877" cy="740" r="48" fill="#FFFFFF" opacity="0.121" /><circle cx="2030" cy="1821" r="108" fill="#FFFFFF" opacity="0.178" /><circle cx="1254" cy="2251" r="158" fill="#FFFFFF" opacity="0.077" /><circle cx="1099" cy="684" r="148" fill="#FFFFFF" opacity="0.194" /><circle cx="441" cy="2050" r="37" fill="#FFFFFF" opacity="0.125" /><circle cx="2193" cy="1736" r="63" fill="#FFFFFF" opacity="0.172" /><circle cx="686" cy="1676" r="124" fill="#FFFFFF" opacity="0.192" /><circle cx="2607" cy="898" r="115" fill="#FFFFFF" opacity="0.229" /><circle cx="545" cy="1890" r="72" fill="#FFFFFF" opacity="0.218" /><circle cx="880" cy="469" r="65" fill="#FFFFFF" opacity="0.226" /><circle cx="563" cy="1743" r="97" fill="#FFFFFF" opacity="0.211" /><circle cx="1675" cy="2273" r="143" fill="#FFFFFF" opacity="0.151" /><circle cx="1508" cy="1391" r="149" fill="#FFFFFF" opacity="0.139" /><circle cx="1534" cy="2166" r="78" fill="#FFFFFF" opacity="0.144" /><circle cx="2170" cy="1460" r="104" fill="#FFFFFF" opacity="0.185" /><circle cx="2217" cy="2655" r="145" fill="#FFFFFF" opacity="0.178" /><circle cx="1386" cy="1369" r="118" fill="#FFFFFF" opacity="0.119" /><circle cx="2594" cy="511" r="156" fill="#FFFFFF" opacity="0.111" /><circle cx="1970" cy="1391" r="39" fill="#FFFFFF" opacity="0.120" /><circle cx="1759" cy="2085" r="83" fill="#FFFFFF" opacity="0.106" /><circle cx="2528" cy="1276" r="84" fill="#FFFFFF" opacity="0.167" /><circle cx="1726" cy="1639" r="114" fill="#FFFFFF" opacity="0.164" /><circle cx="506" cy="2610" r="75" fill="#FFFFFF" opacity="0.167" /><circle cx="2668" cy="1749" r="126" fill="#FFFFFF" opacity="0.213" /></g>
  <g><path d="M 171.8 625.2 L 2764.4 348.7 L 2764.4 777.7 L 171.8 1054.2 Z" fill="#FFFFFF" opacity="0.219" /><path d="M 191.7 876.2 L 2870.7 599.7 L 2870.7 1072.0 L 191.7 1348.5 Z" fill="#FFFFFF" opacity="0.117" /><path d="M 196.6 1127.2 L 2891.0 850.8 L 2891.0 1276.1 L 196.6 1552.5 Z" fill="#FFFFFF" opacity="0.137" /><path d="M 303.6 1423.1 L 2888.3 1146.6 L 2888.3 1608.4 L 303.6 1884.9 Z" fill="#FFFFFF" opacity="0.204" /><path d="M 289.8 1666.6 L 2717.7 1390.1 L 2717.7 1857.3 L 289.8 2133.8 Z" fill="#FFFFFF" opacity="0.195" /><path d="M 176.1 1948.8 L 2879.7 1672.4 L 2879.7 2156.4 L 176.1 2432.9 Z" fill="#FFFFFF" opacity="0.137" /><path d="M 190.8 2226.9 L 2774.8 1950.4 L 2774.8 2375.7 L 190.8 2652.2 Z" fill="#FFFFFF" opacity="0.084" /><path d="M 298.3 2420.9 L 2752.7 2144.4 L 2752.7 2569.0 L 298.3 2845.5 Z" fill="#FFFFFF" opacity="0.110" /></g>
  <g filter="url(#soft239)"><g transform="rotate(-13.65 1536.0 1536.0)"><path d="M-368.6 482.1 C -225.8 477.8, -25.8 484.0, 107.5 438.3 C 250.4 431.7, 450.4 496.8, 583.7 427.4 C 726.5 444.6, 926.5 516.7, 1059.8 449.6 C 1202.7 438.0, 1402.7 496.4, 1536.0 491.6 C 1678.8 491.1, 1878.8 472.7, 2012.2 527.8 C 2155.0 532.7, 2355.0 435.6, 2488.3 536.3 C 2631.2 514.9, 2831.2 445.2, 2964.5 511.9 C 3107.3 505.4, 3307.3 469.3, 3440.6 469.4" fill="none" stroke="url(#ribbon239)" stroke-width="58.4" stroke-linecap="round" stroke-opacity="0.120" /></g><g transform="rotate(-13.07 1536.0 1536.0)"><path d="M-368.6 749.3 C -241.7 710.4, -63.9 808.2, 54.6 730.2 C 181.6 729.2, 359.4 772.0, 477.9 778.6 C 604.8 785.1, 782.6 714.9, 901.1 809.2 C 1028.1 794.3, 1205.9 701.3, 1324.4 803.6 C 1451.3 806.4, 1629.1 697.4, 1747.6 765.0 C 1874.6 759.6, 2052.4 736.3, 2170.9 717.0 C 2297.9 705.9, 2475.6 769.7, 2594.1 688.6 C 2721.1 679.3, 2898.9 815.0, 3017.4 697.0 C 3144.4 677.2, 3322.1 812.0, 3440.6 737.2" fill="none" stroke="url(#ribbon239)" stroke-width="54.4" stroke-linecap="round" stroke-opacity="0.146" /></g><g transform="rotate(-12.49 1536.0 1536.0)"><path d="M-368.6 916.5 C -254.4 990.1, -94.4 870.0, 12.3 936.2 C 126.6 937.4, 286.6 909.2, 393.2 882.5 C 507.5 878.6, 667.5 934.7, 774.1 849.4 C 888.4 826.3, 1048.4 985.0, 1155.1 857.1 C 1269.4 843.1, 1429.3 970.1, 1536.0 900.8 C 1650.3 895.9, 1810.3 930.7, 1916.9 954.1 C 2031.2 951.7, 2191.2 880.7, 2297.9 984.6 C 2412.1 967.9, 2572.1 892.4, 2678.8 973.8 C 2793.1 968.9, 2953.1 896.9, 3059.7 928.3 C 3174.0 932.0, 3334.0 905.0, 3440.6 875.7" fill="none" stroke="url(#ribbon239)" stroke-width="50.4" stroke-linecap="round" stroke-opacity="0.172" /></g><g transform="rotate(-11.91 1536.0 1536.0)"><path d="M-368.6 1108.8 C -264.8 1104.8, -119.3 1110.7, -22.3 1161.3 C 81.5 1161.9, 227.0 1046.3, 324.0 1185.3 C 427.8 1195.0, 573.3 1051.3, 670.3 1163.0 C 774.1 1143.3, 919.6 1086.6, 1016.6 1107.8 C 1120.4 1107.6, 1265.9 1109.3, 1362.9 1053.2 C 1466.7 1067.4, 1612.2 1150.4, 1709.1 1032.4 C 1813.0 1020.9, 1958.5 1145.2, 2055.4 1058.0 C 2159.3 1051.2, 2304.8 1128.2, 2401.7 1114.4 C 2505.6 1113.7, 2651.1 1105.0, 2748.0 1167.4 C 2851.9 1166.4, 2997.4 1089.7, 3094.3 1184.9 C 3198.2 1191.1, 3343.7 1068.8, 3440.6 1156.3" fill="none" stroke="url(#ribbon239)" stroke-width="46.4" stroke-linecap="round" stroke-opacity="0.198" /></g><g transform="rotate(-11.33 1536.0 1536.0)"><path d="M-368.6 1286.4 C -273.4 1293.7, -140.1 1279.3, -51.2 1231.6 C 44.0 1250.2, 177.4 1335.6, 266.2 1202.9 C 361.5 1177.5, 494.8 1384.8, 583.7 1224.9 C 678.9 1218.1, 812.2 1336.7, 901.1 1284.1 C 996.4 1284.5, 1129.7 1288.8, 1218.6 1344.7 C 1313.8 1338.0, 1447.1 1240.6, 1536.0 1369.9 C 1631.2 1383.2, 1764.6 1249.0, 1853.4 1344.5 C 1948.7 1351.0, 2082.0 1235.4, 2170.9 1283.8 C 2266.1 1284.0, 2399.4 1289.4, 2488.3 1224.7 C 2583.6 1245.1, 2716.9 1337.7, 2805.8 1203.0 C 2901.0 1184.0, 3034.3 1347.5, 3123.2 1231.9 C 3218.4 1213.6, 3351.8 1334.7, 3440.6 1293.8" fill="none" stroke="url(#ribbon239)" stroke-width="42.4" stroke-linecap="round" stroke-opacity="0.224" /></g><g transform="rotate(-10.75 1536.0 1536.0)"><path d="M-368.6 1547.0 C -225.8 1462.6, -25.8 1614.2, 107.5 1530.5 C 250.4 1532.3, 450.4 1562.3, 583.7 1599.4 C 726.5 1617.0, 926.5 1519.8, 1059.8 1636.6 C 1202.7 1622.4, 1402.7 1465.4, 1536.0 1619.4 C 1678.8 1639.6, 1878.8 1470.6, 2012.2 1558.3 C 2155.0 1555.5, 2355.0 1536.6, 2488.3 1490.4 C 2631.2 1496.8, 2831.2 1564.6, 2964.5 1456.8 C 3107.3 1451.3, 3307.3 1619.0, 3440.6 1478.0" fill="none" stroke="url(#ribbon239)" stroke-width="38.4" stroke-linecap="round" stroke-opacity="0.250" /></g><g transform="rotate(-10.17 1536.0 1536.0)"><path d="M-368.6 1654.3 C -241.7 1751.6, -63.9 1599.2, 54.6 1735.9 C 181.6 1711.6, 359.4 1622.3, 477.9 1672.7 C 604.8 1675.8, 782.6 1643.1, 901.1 1598.3 C 1028.1 1612.8, 1205.9 1713.1, 1324.4 1557.8 C 1451.3 1566.1, 1629.1 1683.5, 1747.6 1575.9 C 1874.6 1560.6, 2052.4 1687.9, 2170.9 1641.5 C 2297.9 1643.7, 2475.6 1664.2, 2594.1 1714.8 C 2721.1 1693.5, 2898.9 1633.3, 3017.4 1751.4 C 3144.4 1763.6, 3322.1 1599.0, 3440.6 1729.1" fill="none" stroke="url(#ribbon239)" stroke-width="34.4" stroke-linecap="round" stroke-opacity="0.276" /></g><g transform="rotate(-9.59 1536.0 1536.0)"><path d="M-368.6 1860.5 C -254.4 1879.7, -94.4 1840.2, 12.3 1800.1 C 126.6 1794.0, 286.6 1887.0, 393.2 1757.1 C 507.5 1771.2, 667.5 1897.2, 774.1 1776.7 C 888.4 1785.0, 1048.4 1935.3, 1155.1 1847.2 C 1269.4 1850.4, 1429.3 1872.3, 1536.0 1925.8 C 1650.3 1922.4, 1810.3 1822.4, 1916.9 1964.8 C 2031.2 1995.5, 2191.2 1773.5, 2297.9 1940.5 C 2412.1 1942.1, 2572.1 1808.9, 2678.8 1867.7 C 2793.1 1865.1, 2953.1 1856.7, 3059.7 1790.6 C 3174.0 1815.0, 3334.0 1935.2, 3440.6 1755.9" fill="none" stroke="url(#ribbon239)" stroke-width="30.4" stroke-linecap="round" stroke-opacity="0.302" /></g><g transform="rotate(-9.01 1536.0 1536.0)"><path d="M-368.6 2077.9 C -264.8 2049.2, -119.3 2099.6, -22.3 1981.7 C 81.5 1979.0, 227.0 2186.6, 324.0 1970.0 C 427.8 1939.0, 573.3 2187.4, 670.3 2023.7 C 774.1 2003.9, 919.6 2122.3, 1016.6 2110.3 C 1120.4 2119.3, 1265.9 2040.3, 1362.9 2177.3 C 1466.7 2165.1, 1612.2 1983.0, 1709.1 2184.0 C 1813.0 2160.0, 1958.5 1972.7, 2055.4 2126.3 C 2159.3 2121.5, 2304.8 2021.2, 2401.7 2039.3 C 2505.6 2039.3, 2651.1 2114.0, 2748.0 1975.7 C 2851.9 1970.7, 2997.4 2134.6, 3094.3 1974.1 C 3198.2 1977.4, 3343.7 2128.6, 3440.6 2035.5" fill="none" stroke="url(#ribbon239)" stroke-width="26.4" stroke-linecap="round" stroke-opacity="0.328" /></g><g transform="rotate(-8.43 1536.0 1536.0)"><path d="M-368.6 2260.3 C -273.4 2183.2, -140.1 2332.7, -51.2 2270.3 C 44.0 2266.5, 177.4 2255.5, 266.2 2352.3 C 361.5 2333.9, 494.8 2162.8, 583.7 2378.5 C 678.9 2411.3, 812.2 2165.5, 901.1 2333.0 C 996.4 2315.5, 1129.7 2183.7, 1218.6 2243.5 C 1313.8 2240.1, 1447.1 2271.7, 1536.0 2164.2 C 1631.2 2158.1, 1764.6 2336.2, 1853.4 2143.2 C 1948.7 2118.0, 2082.0 2321.0, 2170.9 2193.3 C 2266.1 2215.8, 2399.4 2330.2, 2488.3 2284.0 C 2583.6 2282.1, 2716.9 2246.9, 2805.8 2360.4 C 2901.0 2345.8, 3034.3 2191.7, 3123.2 2376.1 C 3218.4 2412.4, 3351.8 2122.3, 3440.6 2321.5" fill="none" stroke="url(#ribbon239)" stroke-width="22.4" stroke-linecap="round" stroke-opacity="0.354" /></g><g transform="rotate(-7.85 1536.0 1536.0)"><path d="M-368.6 2479.8 C -225.8 2617.2, -25.8 2389.4, 107.5 2599.9 C 250.4 2583.1, 450.4 2406.7, 583.7 2536.2 C 726.5 2517.7, 926.5 2450.2, 1059.8 2438.3 C 1202.7 2444.8, 1402.7 2513.7, 1536.0 2365.6 C 1678.8 2360.4, 1878.8 2523.2, 2012.2 2362.1 C 2155.0 2397.1, 2355.0 2578.0, 2488.3 2430.0 C 2631.2 2436.8, 2831.2 2505.8, 2964.5 2528.1 C 3107.3 2517.6, 3307.3 2440.4, 3440.6 2596.9" fill="none" stroke="url(#ribbon239)" stroke-width="18.4" stroke-linecap="round" stroke-opacity="0.380" /></g><g transform="rotate(-7.27 1536.0 1536.0)"><path d="M-368.6 2676.3 C -241.7 2749.5, -63.9 2642.4, 54.6 2685.7 C 181.6 2686.5, 359.4 2671.7, 477.9 2587.6 C 604.8 2591.9, 782.6 2744.6, 901.1 2543.4 C 1028.1 2551.5, 1205.9 2828.4, 1324.4 2579.7 C 1451.3 2578.8, 1629.1 2744.4, 1747.6 2674.7 C 1874.6 2674.1, 2052.4 2677.4, 2170.9 2770.6 C 2297.9 2733.1, 2475.6 2571.8, 2594.1 2809.3 C 2721.1 2844.1, 2898.9 2566.0, 3017.4 2767.3 C 3144.4 2760.0, 3322.1 2629.0, 3440.6 2670.1" fill="none" stroke="url(#ribbon239)" stroke-width="14.4" stroke-linecap="round" stroke-opacity="0.406" /></g></g>
  <g><ellipse cx="1536.0" cy="1551.9" rx="728.6" ry="605.7" fill="url(#extrude239)" opacity="0.220" /><ellipse cx="1536.0" cy="1567.7" rx="736.0" ry="610.9" fill="url(#extrude239)" opacity="0.205" /><ellipse cx="1536.0" cy="1583.6" rx="743.4" ry="616.1" fill="url(#extrude239)" opacity="0.190" /><ellipse cx="1536.0" cy="1599.5" rx="750.9" ry="621.3" fill="url(#extrude239)" opacity="0.175" /><ellipse cx="1536.0" cy="1615.4" rx="758.3" ry="626.5" fill="url(#extrude239)" opacity="0.160" /><ellipse cx="1536.0" cy="1631.2" rx="765.7" ry="631.7" fill="url(#extrude239)" opacity="0.145" /><ellipse cx="1536.0" cy="1647.1" rx="773.2" ry="636.9" fill="url(#extrude239)" opacity="0.130" /><ellipse cx="1536.0" cy="1663.0" rx="780.6" ry="642.1" fill="url(#extrude239)" opacity="0.115" /><ellipse cx="1536.0" cy="1678.8" rx="788.0" ry="647.4" fill="url(#extrude239)" opacity="0.100" /><ellipse cx="1536.0" cy="1694.7" rx="795.5" ry="652.6" fill="url(#extrude239)" opacity="0.085" /><ellipse cx="1536.0" cy="1710.6" rx="802.9" ry="657.8" fill="url(#extrude239)" opacity="0.070" /><ellipse cx="1536.0" cy="1726.5" rx="810.3" ry="663.0" fill="url(#extrude239)" opacity="0.055" /></g>
  <ellipse cx="1536.0" cy="1726.5" rx="773.2" ry="214.9" fill="#0B1D2D" opacity="0.24" />
  <ellipse cx="1536.0" cy="1536.0" rx="743.4" ry="651.3" fill="url(#orb239)" stroke="#FFFFFF" stroke-opacity="0.42" stroke-width="7" />
  <ellipse cx="1431.9" cy="1392.7" rx="505.5" ry="299.6" fill="#FFFFFF" opacity="0.25" />
  <path d="M 199.4 399.4 C 1013.8 -30.7, 2058.2 768.0, 2872.6 215.0 L 2872.6 983.0 C 2089.0 1228.8, 1013.8 307.2, 199.4 1167.4 Z" fill="url(#glass239)" />
  <rect x="270" y="270" width="2532" height="2532" rx="430" fill="none" stroke="#FFFFFF" stroke-opacity="0.30" stroke-width="5" />
  <rect x="288.4" y="288.4" width="2495.1" height="2495.1" rx="399" fill="none" stroke="#3B82FF" stroke-opacity="0.35" stroke-width="3" />
  <g filter="url(#soft239)"><rect x="1541" y="2644" width="80" height="2" fill="#FFFFFF" opacity="0.786" /><rect x="1580" y="2605" width="2" height="80" fill="#FFFFFF" opacity="0.786" /><rect x="2301" y="980" width="84" height="2" fill="#FFFFFF" opacity="0.551" /><rect x="2342" y="939" width="2" height="84" fill="#FFFFFF" opacity="0.551" /><rect x="1794" y="1460" width="62" height="2" fill="#FFFFFF" opacity="0.466" /><rect x="1824" y="1430" width="2" height="62" fill="#FFFFFF" opacity="0.466" /><rect x="2651" y="372" width="78" height="2" fill="#FFFFFF" opacity="0.349" /><rect x="2689" y="334" width="2" height="78" fill="#FFFFFF" opacity="0.349" /><rect x="308" y="1783" width="80" height="2" fill="#FFFFFF" opacity="0.758" /><rect x="347" y="1744" width="2" height="80" fill="#FFFFFF" opacity="0.758" /><rect x="1489" y="1510" width="40" height="2" fill="#FFFFFF" opacity="0.702" /><rect x="1508" y="1491" width="2" height="40" fill="#FFFFFF" opacity="0.702" /><rect x="727" y="759" width="66" height="2" fill="#FFFFFF" opacity="0.606" /><rect x="759" y="727" width="2" height="66" fill="#FFFFFF" opacity="0.606" /><rect x="1109" y="1143" width="50" height="2" fill="#FFFFFF" opacity="0.583" /><rect x="1133" y="1119" width="2" height="50" fill="#FFFFFF" opacity="0.583" /><rect x="1545" y="1426" width="80" height="2" fill="#FFFFFF" opacity="0.748" /><rect x="1584" y="1387" width="2" height="80" fill="#FFFFFF" opacity="0.748" /><rect x="800" y="1849" width="84" height="2" fill="#FFFFFF" opacity="0.503" /><rect x="841" y="1808" width="2" height="84" fill="#FFFFFF" opacity="0.503" /><rect x="2220" y="2394" width="50" height="2" fill="#FFFFFF" opacity="0.499" /><rect x="2244" y="2370" width="2" height="50" fill="#FFFFFF" opacity="0.499" /><rect x="2263" y="2101" width="54" height="2" fill="#FFFFFF" opacity="0.627" /><rect x="2289" y="2075" width="2" height="54" fill="#FFFFFF" opacity="0.627" /><rect x="1634" y="2155" width="36" height="2" fill="#FFFFFF" opacity="0.771" /><rect x="1651" y="2138" width="2" height="36" fill="#FFFFFF" opacity="0.771" /><rect x="2469" y="978" width="84" height="2" fill="#FFFFFF" opacity="0.711" /><rect x="2510" y="937" width="2" height="84" fill="#FFFFFF" opacity="0.711" /><rect x="1973" y="411" width="32" height="2" fill="#FFFFFF" opacity="0.658" /><rect x="1988" y="396" width="2" height="32" fill="#FFFFFF" opacity="0.658" /><rect x="2158" y="2401" width="62" height="2" fill="#FFFFFF" opacity="0.762" /><rect x="2188" y="2371" width="2" height="62" fill="#FFFFFF" opacity="0.762" /><rect x="2550" y="1437" width="54" height="2" fill="#FFFFFF" opacity="0.787" /><rect x="2576" y="1411" width="2" height="54" fill="#FFFFFF" opacity="0.787" /><rect x="1470" y="1259" width="34" height="2" fill="#FFFFFF" opacity="0.765" /><rect x="1486" y="1243" width="2" height="34" fill="#FFFFFF" opacity="0.765" /><rect x="1414" y="1875" width="76" height="2" fill="#FFFFFF" opacity="0.803" /><rect x="1451" y="1838" width="2" height="76" fill="#FFFFFF" opacity="0.803" /><rect x="1063" y="1820" width="28" height="2" fill="#FFFFFF" opacity="0.587" /><rect x="1076" y="1807" width="2" height="28" fill="#FFFFFF" opacity="0.587" /><rect x="2114" y="706" width="56" height="2" fill="#FFFFFF" opacity="0.318" /><rect x="2141" y="679" width="2" height="56" fill="#FFFFFF" opacity="0.318" /><rect x="770" y="397" width="78" height="2" fill="#FFFFFF" opacity="0.603" /><rect x="808" y="359" width="2" height="78" fill="#FFFFFF" opacity="0.603" /><rect x="407" y="1212" width="74" height="2" fill="#FFFFFF" opacity="0.579" /><rect x="443" y="1176" width="2" height="74" fill="#FFFFFF" opacity="0.579" /><rect x="1025" y="287" width="52" height="2" fill="#FFFFFF" opacity="0.838" /><rect x="1050" y="262" width="2" height="52" fill="#FFFFFF" opacity="0.838" /><rect x="1564" y="2373" width="56" height="2" fill="#FFFFFF" opacity="0.821" /><rect x="1591" y="2346" width="2" height="56" fill="#FFFFFF" opacity="0.821" /><rect x="1642" y="1054" width="58" height="2" fill="#FFFFFF" opacity="0.838" /><rect x="1670" y="1026" width="2" height="58" fill="#FFFFFF" opacity="0.838" /></g>
  <g opacity="0.52"><path d="M996 1006 L2148 1006 L2148 2158 L996 2158 Z" fill="none" stroke="#0C2030" stroke-width="90" /><path d="M996 1582 L2148 1582" stroke="#0C2030" stroke-width="90" /><path d="M1572 1006 L1572 2158" stroke="#0C2030" stroke-width="90" /></g>
  <g filter="url(#soft239)"><path d="M960 960 L2112 960 L2112 2112 L960 2112 Z" fill="none" stroke="url(#symbol239)" stroke-width="90" /><path d="M960 1536 L2112 1536" stroke="url(#symbol239)" stroke-width="90" /><path d="M1536 960 L1536 2112" stroke="url(#symbol239)" stroke-width="90" /></g>
  <rect x="138" y="138" width="2796" height="2796" rx="629" fill="#FFFFFF" filter="url(#grain239)" opacity="0.18" />
</svg>
