<svg xmlns="http://www.w3.org/2000/svg" width="3072" height="3072" viewBox="0 0 3072 3072">
  <title>QuartzOS App Icon 020 - solar_editor_020</title>
  <defs><linearGradient id="bg19" x1="0%" y1="0%" x2="100%" y2="100%"><stop offset="0%" stop-color="#FFD84D" /><stop offset="26%" stop-color="#36D1FF" /><stop offset="56%" stop-color="#8A5CFF" /><stop offset="78%" stop-color="#9A6BB4" /><stop offset="100%" stop-color="#271E2A" /></linearGradient><radialGradient id="sun19" cx="29%" cy="26%" r="88%"><stop offset="0%" stop-color="#FFFFFF" stop-opacity="0.62" /><stop offset="30%" stop-color="#FF6AB3" stop-opacity="0.35" /><stop offset="100%" stop-color="#FF6AB3" stop-opacity="0" /></radialGradient><linearGradient id="glass19" x1="0%" y1="0%" x2="0%" y2="100%"><stop offset="0%" stop-color="#FFFFFF" stop-opacity="0.70" /><stop offset="46%" stop-color="#FFFFFF" stop-opacity="0.26" /><stop offset="100%" stop-color="#FFFFFF" stop-opacity="0.00" /></linearGradient><linearGradient id="ribbon19" x1="0%" y1="0%" x2="100%" y2="0%"><stop offset="0%" stop-color="#FFD84D" stop-opacity="0.18" /><stop offset="34%" stop-color="#36D1FF" stop-opacity="0.72" /><stop offset="66%" stop-color="#8A5CFF" stop-opacity="0.72" /><stop offset="100%" stop-color="#FF6AB3" stop-opacity="0.18" /></linearGradient><radialGradient id="orb19" cx="34%" cy="27%" r="74%"><stop offset="0%" stop-color="#FFFFFF" stop-opacity="0.84" /><stop offset="30%" stop-color="#FFD84D" stop-opacity="0.52" /><stop offset="68%" stop-color="#36D1FF" stop-opacity="0.42" /><stop offset="100%" stop-color="#8A5CFF" stop-opacity="0.20" /></radialGradient><linearGradient id="extrude19" x1="0%" y1="0%" x2="0%" y2="100%"><stop offset="0%" stop-color="#15283C" stop-opacity="0.45" /><stop offset="100%" stop-color="#08131D" stop-opacity="0.06" /></linearGradient><linearGradient id="symbol19" x1="0%" y1="0%" x2="100%" y2="100%"><stop offset="0%" stop-color="#FFFFFF" /><stop offset="100%" stop-color="#FF6AB3" /></linearGradient><filter id="shadow19" x="-40%" y="-40%" width="180%" height="180%"><feDropShadow dx="0" dy="49" stdDeviation="86" flood-color="#06111A" flood-opacity="0.54" /></filter><filter id="soft19" x="-40%" y="-40%" width="180%" height="180%"><feDropShadow dx="0" dy="0" stdDeviation="14" flood-color="#FFD84D" flood-opacity="0.45" /></filter><filter id="grain19"><feTurbulence type="fractalNoise" baseFrequency="1.070" numOctaves="2" seed="19" /><feColorMatrix type="saturate" values="0" /><feComponentTransfer><feFuncA type="table" tableValues="0 0.09" /></feComponentTransfer></filter></defs>
  <rect x="138" y="138" width="2796" height="2796" rx="629" fill="url(#bg19)" filter="url(#shadow19)" />
  <rect x="138" y="138" width="2796" height="2796" rx="629" fill="url(#sun19)" />
  <g><circle cx="2288" cy="2313" r="143" fill="#FFFFFF" opacity="0.082" /><circle cx="1617" cy="898" r="144" fill="#FFFFFF" opacity="0.109" /><circle cx="2491" cy="2407" r="124" fill="#FFFFFF" opacity="0.151" /><circle cx="1647" cy="1906" r="130" fill="#FFFFFF" opacity="0.127" /><circle cx="2020" cy="863" r="82" fill="#FFFFFF" opacity="0.175" /><circle cx="2085" cy="1489" r="122" fill="#FFFFFF" opacity="0.060" /><circle cx="2268" cy="2317" r="140" fill="#FFFFFF" opacity="0.141" /><circle cx="1170" cy="488" r="141" fill="#FFFFFF" opacity="0.082" /><circle cx="1634" cy="1936" r="43" fill="#FFFFFF" opacity="0.209" /><circle cx="576" cy="610" r="153" fill="#FFFFFF" opacity="0.173" /><circle cx="2441" cy="1030" r="114" fill="#FFFFFF" opacity="0.074" /><circle cx="1027" cy="948" r="83" fill="#FFFFFF" opacity="0.076" /><circle cx="1071" cy="2457" r="152" fill="#FFFFFF" opacity="0.144" /><circle cx="2132" cy="647" r="117" fill="#FFFFFF" opacity="0.165" /><circle cx="1012" cy="2577" r="89" fill="#FFFFFF" opacity="0.205" /><circle cx="1788" cy="515" r="56" fill="#FFFFFF" opacity="0.158" /><circle cx="2123" cy="1324" r="69" fill="#FFFFFF" opacity="0.081" /><circle cx="2154" cy="1198" r="64" fill="#FFFFFF" opacity="0.193" /><circle cx="1122" cy="1653" r="84" fill="#FFFFFF" opacity="0.125" /><circle cx="1168" cy="2691" r="100" fill="#FFFFFF" opacity="0.101" /><circle cx="994" cy="746" r="126" fill="#FFFFFF" opacity="0.098" /><circle cx="2314" cy="421" r="129" fill="#FFFFFF" opacity="0.143" /><circle cx="1269" cy="1733" r="140" fill="#FFFFFF" opacity="0.220" /><circle cx="597" cy="1827" r="117" fill="#FFFFFF" opacity="0.132" /><circle cx="1873" cy="410" r="139" fill="#FFFFFF" opacity="0.077" /><circle cx="773" cy="1176" r="77" fill="#FFFFFF" opacity="0.185" /><circle cx="1880" cy="2047" r="106" fill="#FFFFFF" opacity="0.234" /><circle cx="2447" cy="1241" r="147" fill="#FFFFFF" opacity="0.229" /></g>
  <g><path d="M 240.9 651.8 L 2730.1 375.3 L 2730.1 801.9 L 240.9 1078.4 Z" fill="#FFFFFF" opacity="0.129" /><path d="M 243.8 832.7 L 2923.9 556.2 L 2923.9 1048.1 L 243.8 1324.6 Z" fill="#FFFFFF" opacity="0.148" /><path d="M 319.2 1099.7 L 2912.9 823.2 L 2912.9 1317.1 L 319.2 1593.6 Z" fill="#FFFFFF" opacity="0.092" /><path d="M 176.7 1385.0 L 2838.4 1108.5 L 2838.4 1598.2 L 176.7 1874.7 Z" fill="#FFFFFF" opacity="0.182" /><path d="M 360.9 1693.7 L 2919.6 1417.3 L 2919.6 1884.1 L 360.9 2160.6 Z" fill="#FFFFFF" opacity="0.160" /><path d="M 166.3 1920.5 L 2868.5 1644.0 L 2868.5 2105.0 L 166.3 2381.5 Z" fill="#FFFFFF" opacity="0.221" /><path d="M 370.8 2208.3 L 2731.5 1931.8 L 2731.5 2423.5 L 370.8 2700.0 Z" fill="#FFFFFF" opacity="0.192" /><path d="M 261.8 2412.2 L 2758.0 2135.8 L 2758.0 2560.0 L 261.8 2836.4 Z" fill="#FFFFFF" opacity="0.168" /></g>
  <g filter="url(#soft19)"><g transform="rotate(-6.19 1536.0 1536.0)"><path d="M-368.6 548.1 C -225.8 538.9, -25.8 557.1, 107.5 502.6 C 250.4 514.6, 450.4 592.8, 583.7 493.8 C 726.5 489.1, 926.5 602.4, 1059.8 518.0 C 1202.7 518.2, 1402.7 569.1, 1536.0 560.4 C 1678.8 559.3, 1878.8 540.0, 2012.2 595.4 C 2155.0 578.5, 2355.0 493.7, 2488.3 601.6 C 2631.2 606.8, 2831.2 497.6, 2964.5 575.4 C 3107.3 569.9, 3307.3 535.5, 3440.6 532.6" fill="none" stroke="url(#ribbon19)" stroke-width="58.4" stroke-linecap="round" stroke-opacity="0.120" /></g><g transform="rotate(-5.61 1536.0 1536.0)"><path d="M-368.6 767.3 C -241.7 826.6, -63.9 749.4, 54.6 772.1 C 181.6 771.5, 359.4 762.0, 477.9 726.1 C 604.8 729.8, 782.6 792.3, 901.1 705.0 C 1028.1 721.1, 1205.9 817.2, 1324.4 721.7 C 1451.3 721.3, 1629.1 796.7, 1747.6 766.1 C 1874.6 766.1, 2052.4 768.2, 2170.9 811.2 C 2297.9 806.9, 2475.6 723.1, 2594.1 829.7 C 2721.1 845.6, 2898.9 716.9, 3017.4 810.3 C 3144.4 803.4, 3322.1 731.1, 3440.6 764.9" fill="none" stroke="url(#ribbon19)" stroke-width="54.4" stroke-linecap="round" stroke-opacity="0.146" /></g><g transform="rotate(-5.03 1536.0 1536.0)"><path d="M-368.6 952.0 C -254.4 909.1, -94.4 969.0, 12.3 974.8 C 126.6 979.3, 286.6 941.1, 393.2 1014.9 C 507.5 1013.3, 667.5 927.9, 774.1 1016.9 C 888.4 1035.4, 1048.4 912.8, 1155.1 979.5 C 1269.4 989.5, 1429.3 932.9, 1536.0 925.5 C 1650.3 918.6, 1810.3 980.8, 1916.9 887.5 C 2031.2 895.8, 2191.2 982.9, 2297.9 888.7 C 2412.1 868.0, 2572.1 991.1, 2678.8 928.3 C 2793.1 928.6, 2953.1 961.4, 3059.7 982.3 C 3174.0 986.1, 3334.0 921.9, 3440.6 1017.9" fill="none" stroke="url(#ribbon19)" stroke-width="50.4" stroke-linecap="round" stroke-opacity="0.172" /></g><g transform="rotate(-4.45 1536.0 1536.0)"><path d="M-368.6 1115.5 C -264.8 1097.9, -119.3 1122.8, -22.3 1153.4 C 81.5 1168.2, 227.0 1074.6, 324.0 1189.6 C 427.8 1186.4, 573.3 1035.4, 670.3 1180.9 C 774.1 1167.8, 919.6 1090.5, 1016.6 1132.5 C 1120.4 1129.7, 1265.9 1101.7, 1362.9 1073.9 C 1466.7 1070.0, 1612.2 1128.6, 1709.1 1040.5 C 1813.0 1017.0, 1958.5 1186.0, 2055.4 1052.6 C 2159.3 1075.0, 2304.8 1154.9, 2401.7 1102.9 C 2505.6 1103.1, 2651.1 1126.3, 2748.0 1160.8 C 2851.9 1151.5, 2997.4 1070.7, 3094.3 1191.3 C 3198.2 1170.5, 3343.7 1089.5, 3440.6 1175.8" fill="none" stroke="url(#ribbon19)" stroke-width="46.4" stroke-linecap="round" stroke-opacity="0.198" /></g><g transform="rotate(-3.87 1536.0 1536.0)"><path d="M-368.6 1310.7 C -273.4 1405.8, -140.1 1242.6, -51.2 1390.5 C 44.0 1362.8, 177.4 1230.0, 266.2 1348.6 C 361.5 1361.3, 494.8 1290.3, 583.7 1283.7 C 678.9 1273.3, 812.2 1331.5, 901.1 1235.2 C 996.4 1248.8, 1129.7 1348.8, 1218.6 1232.4 C 1313.8 1217.1, 1447.1 1340.4, 1536.0 1277.2 C 1631.2 1278.7, 1764.6 1339.5, 1853.4 1342.3 C 1948.7 1350.4, 2082.0 1293.0, 2170.9 1388.2 C 2266.1 1399.1, 2399.4 1258.5, 2488.3 1387.1 C 2583.6 1362.9, 2716.9 1278.2, 2805.8 1339.7 C 2901.0 1345.7, 3034.3 1294.0, 3123.2 1274.7 C 3218.4 1284.9, 3351.8 1346.6, 3440.6 1231.5" fill="none" stroke="url(#ribbon19)" stroke-width="42.4" stroke-linecap="round" stroke-opacity="0.224" /></g><g transform="rotate(-3.29 1536.0 1536.0)"><path d="M-368.6 1510.7 C -225.8 1509.1, -25.8 1511.8, 107.5 1574.5 C 250.4 1593.0, 450.4 1473.3, 583.7 1601.3 C 726.5 1610.1, 926.5 1434.9, 1059.8 1573.2 C 1202.7 1596.1, 1402.7 1450.0, 1536.0 1507.2 C 1678.8 1508.2, 1878.8 1511.8, 2012.2 1443.3 C 2155.0 1468.5, 2355.0 1539.3, 2488.3 1420.3 C 2631.2 1425.0, 2831.2 1610.7, 2964.5 1452.1 C 3107.3 1432.3, 3307.3 1571.1, 3440.6 1519.5" fill="none" stroke="url(#ribbon19)" stroke-width="38.4" stroke-linecap="round" stroke-opacity="0.250" /></g><g transform="rotate(-2.71 1536.0 1536.0)"><path d="M-368.6 1682.1 C -241.7 1719.6, -63.9 1655.5, 54.6 1777.9 C 181.6 1793.4, 359.4 1581.5, 477.9 1762.4 C 604.8 1746.2, 782.6 1594.2, 901.1 1698.2 C 1028.1 1695.0, 1205.9 1663.7, 1324.4 1624.2 C 1451.3 1645.2, 1629.1 1715.9, 1747.6 1585.3 C 1874.6 1588.0, 2052.4 1747.9, 2170.9 1605.1 C 2297.9 1598.4, 2475.6 1714.3, 2594.1 1671.6 C 2721.1 1673.1, 2898.9 1693.3, 3017.4 1744.5 C 3144.4 1727.0, 3322.1 1631.8, 3440.6 1779.5" fill="none" stroke="url(#ribbon19)" stroke-width="34.4" stroke-linecap="round" stroke-opacity="0.276" /></g><g transform="rotate(-2.13 1536.0 1536.0)"><path d="M-368.6 1844.9 C -254.4 1763.4, -94.4 1871.3, 12.3 1742.3 C 126.6 1716.5, 286.6 1898.2, 393.2 1788.6 C 507.5 1773.6, 667.5 1884.4, 774.1 1869.1 C 888.4 1861.8, 1048.4 1816.7, 1155.1 1934.9 C 1269.4 1947.4, 1429.3 1752.7, 1536.0 1946.0 C 1650.3 1962.5, 1810.3 1737.0, 1916.9 1895.8 C 2031.2 1879.6, 2191.2 1805.1, 2297.9 1814.7 C 2412.1 1815.5, 2572.1 1879.4, 2678.8 1751.9 C 2793.1 1731.8, 2953.1 1879.9, 3059.7 1745.5 C 3174.0 1784.6, 3334.0 1920.0, 3440.6 1799.3" fill="none" stroke="url(#ribbon19)" stroke-width="30.4" stroke-linecap="round" stroke-opacity="0.302" /></g><g transform="rotate(-1.55 1536.0 1536.0)"><path d="M-368.6 2037.4 C -264.8 2047.5, -119.3 2026.8, -22.3 2127.0 C 81.5 2127.4, 227.0 1939.7, 324.0 2147.8 C 427.8 2154.1, 573.3 1996.9, 670.3 2101.6 C 774.1 2101.1, 919.6 2011.6, 1016.6 2016.4 C 1120.4 2020.8, 1265.9 2045.6, 1362.9 1944.0 C 1466.7 1978.2, 1612.2 2124.2, 1709.1 1928.2 C 1813.0 1937.6, 1958.5 2143.9, 2055.4 1978.6 C 2159.3 1958.5, 2304.8 2065.7, 2401.7 2064.7 C 2505.6 2067.0, 2651.1 2012.7, 2748.0 2134.2 C 2851.9 2172.1, 2997.4 1972.6, 3094.3 2145.0 C 3198.2 2146.1, 3343.7 1940.2, 3440.6 2090.5" fill="none" stroke="url(#ribbon19)" stroke-width="26.4" stroke-linecap="round" stroke-opacity="0.328" /></g><g transform="rotate(-0.97 1536.0 1536.0)"><path d="M-368.6 2228.6 C -273.4 2132.5, -140.1 2288.3, -51.2 2222.2 C 44.0 2222.1, 177.4 2235.4, 266.2 2309.3 C 361.5 2307.9, 494.8 2145.3, 583.7 2347.5 C 678.9 2351.5, 812.2 2122.5, 901.1 2313.5 C 996.4 2322.9, 1129.7 2187.5, 1218.6 2228.1 C 1313.8 2228.0, 1447.1 2228.9, 1536.0 2143.0 C 1631.2 2153.4, 1764.6 2273.3, 1853.4 2109.8 C 1948.7 2098.5, 2082.0 2345.2, 2170.9 2148.7 C 2266.1 2161.8, 2399.4 2272.3, 2488.3 2236.1 C 2583.6 2233.7, 2716.9 2221.3, 2805.8 2319.0 C 2901.0 2303.3, 3034.3 2148.9, 3123.2 2347.0 C 3218.4 2363.8, 3351.8 2154.1, 3440.6 2303.2" fill="none" stroke="url(#ribbon19)" stroke-width="22.4" stroke-linecap="round" stroke-opacity="0.354" /></g><g transform="rotate(-0.39 1536.0 1536.0)"><path d="M-368.6 2498.8 C -225.8 2552.4, -25.8 2478.4, 107.5 2620.3 C 250.4 2638.2, 450.4 2443.1, 583.7 2607.3 C 726.5 2614.3, 926.5 2371.0, 1059.8 2528.5 C 1202.7 2526.9, 1402.7 2473.8, 1536.0 2431.7 C 1678.8 2442.2, 1878.8 2560.3, 2012.2 2375.6 C 2155.0 2336.5, 2355.0 2605.5, 2488.3 2394.3 C 2631.2 2353.9, 2831.2 2569.7, 2964.5 2476.3 C 3107.3 2469.3, 3307.3 2524.3, 3440.6 2572.1" fill="none" stroke="url(#ribbon19)" stroke-width="18.4" stroke-linecap="round" stroke-opacity="0.380" /></g><g transform="rotate(0.19 1536.0 1536.0)"><path d="M-368.6 2598.2 C -241.7 2501.4, -63.9 2708.8, 54.6 2465.4 C 181.6 2460.8, 359.4 2725.9, 477.9 2511.3 C 604.8 2479.7, 782.6 2630.7, 901.1 2609.9 C 1028.1 2609.0, 1205.9 2586.5, 1324.4 2701.4 C 1451.3 2663.7, 1629.1 2486.2, 1747.6 2730.3 C 1874.6 2700.5, 2052.4 2457.2, 2170.9 2679.0 C 2297.9 2656.7, 2475.6 2551.9, 2594.1 2578.7 C 2721.1 2582.6, 2898.9 2609.4, 3017.4 2490.2 C 3144.4 2479.9, 3322.1 2662.4, 3440.6 2467.2" fill="none" stroke="url(#ribbon19)" stroke-width="14.4" stroke-linecap="round" stroke-opacity="0.406" /></g></g>
  <g><ellipse cx="1536.0" cy="1551.9" rx="728.6" ry="605.7" fill="url(#extrude19)" opacity="0.220" /><ellipse cx="1536.0" cy="1567.7" rx="736.0" ry="610.9" fill="url(#extrude19)" opacity="0.205" /><ellipse cx="1536.0" cy="1583.6" rx="743.4" ry="616.1" fill="url(#extrude19)" opacity="0.190" /><ellipse cx="1536.0" cy="1599.5" rx="750.9" ry="621.3" fill="url(#extrude19)" opacity="0.175" /><ellipse cx="1536.0" cy="1615.4" rx="758.3" ry="626.5" fill="url(#extrude19)" opacity="0.160" /><ellipse cx="1536.0" cy="1631.2" rx="765.7" ry="631.7" fill="url(#extrude19)" opacity="0.145" /><ellipse cx="1536.0" cy="1647.1" rx="773.2" ry="636.9" fill="url(#extrude19)" opacity="0.130" /><ellipse cx="1536.0" cy="1663.0" rx="780.6" ry="642.1" fill="url(#extrude19)" opacity="0.115" /><ellipse cx="1536.0" cy="1678.8" rx="788.0" ry="647.4" fill="url(#extrude19)" opacity="0.100" /><ellipse cx="1536.0" cy="1694.7" rx="795.5" ry="652.6" fill="url(#extrude19)" opacity="0.085" /><ellipse cx="1536.0" cy="1710.6" rx="802.9" ry="657.8" fill="url(#extrude19)" opacity="0.070" /><ellipse cx="1536.0" cy="1726.5" rx="810.3" ry="663.0" fill="url(#extrude19)" opacity="0.055" /></g>
  <ellipse cx="1536.0" cy="1726.5" rx="773.2" ry="214.9" fill="#0B1D2D" opacity="0.24" />
  <ellipse cx="1536.0" cy="1536.0" rx="743.4" ry="651.3" fill="url(#orb19)" stroke="#FFFFFF" stroke-opacity="0.42" stroke-width="7" />
  <ellipse cx="1431.9" cy="1392.7" rx="505.5" ry="299.6" fill="#FFFFFF" opacity="0.25" />
  <path d="M 199.4 399.4 C 1013.8 -30.7, 2058.2 768.0, 2872.6 215.0 L 2872.6 983.0 C 2089.0 1228.8, 1013.8 307.2, 199.4 1167.4 Z" fill="url(#glass19)" />
  <rect x="270" y="270" width="2532" height="2532" rx="430" fill="none" stroke="#FFFFFF" stroke-opacity="0.30" stroke-width="5" />
  <rect x="288.4" y="288.4" width="2495.1" height="2495.1" rx="399" fill="none" stroke="#FFD84D" stroke-opacity="0.35" stroke-width="3" />
  <g filter="url(#soft19)"><rect x="1790" y="464" width="38" height="2" fill="#FFFFFF" opacity="0.569" /><rect x="1808" y="446" width="2" height="38" fill="#FFFFFF" opacity="0.569" /><rect x="1334" y="2332" width="64" height="2" fill="#FFFFFF" opacity="0.602" /><rect x="1365" y="2301" width="2" height="64" fill="#FFFFFF" opacity="0.602" /><rect x="1088" y="1363" width="34" height="2" fill="#FFFFFF" opacity="0.325" /><rect x="1104" y="1347" width="2" height="34" fill="#FFFFFF" opacity="0.325" /><rect x="847" y="1171" width="52" height="2" fill="#FFFFFF" opacity="0.830" /><rect x="872" y="1146" width="2" height="52" fill="#FFFFFF" opacity="0.830" /><rect x="1616" y="2108" width="64" height="2" fill="#FFFFFF" opacity="0.310" /><rect x="1647" y="2077" width="2" height="64" fill="#FFFFFF" opacity="0.310" /><rect x="931" y="532" width="46" height="2" fill="#FFFFFF" opacity="0.406" /><rect x="953" y="510" width="2" height="46" fill="#FFFFFF" opacity="0.406" /><rect x="1413" y="1585" width="42" height="2" fill="#FFFFFF" opacity="0.596" /><rect x="1433" y="1565" width="2" height="42" fill="#FFFFFF" opacity="0.596" /><rect x="784" y="299" width="46" height="2" fill="#FFFFFF" opacity="0.525" /><rect x="806" y="277" width="2" height="46" fill="#FFFFFF" opacity="0.525" /><rect x="2585" y="2426" width="34" height="2" fill="#FFFFFF" opacity="0.623" /><rect x="2601" y="2410" width="2" height="34" fill="#FFFFFF" opacity="0.623" /><rect x="2049" y="768" width="38" height="2" fill="#FFFFFF" opacity="0.305" /><rect x="2067" y="750" width="2" height="38" fill="#FFFFFF" opacity="0.305" /><rect x="482" y="2330" width="34" height="2" fill="#FFFFFF" opacity="0.331" /><rect x="498" y="2314" width="2" height="34" fill="#FFFFFF" opacity="0.331" /><rect x="1078" y="661" width="46" height="2" fill="#FFFFFF" opacity="0.619" /><rect x="1100" y="639" width="2" height="46" fill="#FFFFFF" opacity="0.619" /><rect x="576" y="2555" width="72" height="2" fill="#FFFFFF" opacity="0.382" /><rect x="611" y="2520" width="2" height="72" fill="#FFFFFF" opacity="0.382" /><rect x="1576" y="2231" width="30" height="2" fill="#FFFFFF" opacity="0.410" /><rect x="1590" y="2217" width="2" height="30" fill="#FFFFFF" opacity="0.410" /><rect x="360" y="814" width="46" height="2" fill="#FFFFFF" opacity="0.334" /><rect x="382" y="792" width="2" height="46" fill="#FFFFFF" opacity="0.334" /><rect x="2090" y="775" width="62" height="2" fill="#FFFFFF" opacity="0.320" /><rect x="2120" y="745" width="2" height="62" fill="#FFFFFF" opacity="0.320" /><rect x="1403" y="1341" width="38" height="2" fill="#FFFFFF" opacity="0.304" /><rect x="1421" y="1323" width="2" height="38" fill="#FFFFFF" opacity="0.304" /><rect x="1501" y="1389" width="44" height="2" fill="#FFFFFF" opacity="0.446" /><rect x="1522" y="1368" width="2" height="44" fill="#FFFFFF" opacity="0.446" /><rect x="1672" y="1805" width="82" height="2" fill="#FFFFFF" opacity="0.588" /><rect x="1712" y="1765" width="2" height="82" fill="#FFFFFF" opacity="0.588" /><rect x="1834" y="2498" width="84" height="2" fill="#FFFFFF" opacity="0.464" /><rect x="1875" y="2457" width="2" height="84" fill="#FFFFFF" opacity="0.464" /><rect x="557" y="2427" width="54" height="2" fill="#FFFFFF" opacity="0.368" /><rect x="583" y="2401" width="2" height="54" fill="#FFFFFF" opacity="0.368" /><rect x="1565" y="1592" width="38" height="2" fill="#FFFFFF" opacity="0.476" /><rect x="1583" y="1574" width="2" height="38" fill="#FFFFFF" opacity="0.476" /><rect x="1264" y="2032" width="80" height="2" fill="#FFFFFF" opacity="0.426" /><rect x="1303" y="1993" width="2" height="80" fill="#FFFFFF" opacity="0.426" /><rect x="1174" y="479" width="66" height="2" fill="#FFFFFF" opacity="0.383" /><rect x="1206" y="447" width="2" height="66" fill="#FFFFFF" opacity="0.383" /><rect x="1228" y="1181" width="46" height="2" fill="#FFFFFF" opacity="0.540" /><rect x="1250" y="1159" width="2" height="46" fill="#FFFFFF" opacity="0.540" /><rect x="1856" y="2521" width="68" height="2" fill="#FFFFFF" opacity="0.523" /><rect x="1889" y="2488" width="2" height="68" fill="#FFFFFF" opacity="0.523" /></g>
  <g opacity="0.52"><circle cx="1572" cy="1582" r="384" fill="none" stroke="#0C2030" stroke-width="90" /><circle cx="1572" cy="1582" r="153" fill="#0C2030" /><line x1="1572" y1="967" x2="1572" y2="1198" stroke="#0C2030" stroke-width="90" /><line x1="1572" y1="2197" x2="1572" y2="1966" stroke="#0C2030" stroke-width="90" /><line x1="957" y1="1582" x2="1188" y2="1582" stroke="#0C2030" stroke-width="90" /><line x1="2187" y1="1582" x2="1956" y2="1582" stroke="#0C2030" stroke-width="90" /></g>
  <g filter="url(#soft19)"><circle cx="1536" cy="1536" r="384" fill="none" stroke="url(#symbol19)" stroke-width="90" /><circle cx="1536" cy="1536" r="153" fill="url(#symbol19)" /><line x1="1536" y1="921" x2="1536" y2="1152" stroke="url(#symbol19)" stroke-width="90" /><line x1="1536" y1="2151" x2="1536" y2="1920" stroke="url(#symbol19)" stroke-width="90" /><line x1="921" y1="1536" x2="1152" y2="1536" stroke="url(#symbol19)" stroke-width="90" /><line x1="2151" y1="1536" x2="1920" y2="1536" stroke="url(#symbol19)" stroke-width="90" /></g>
  <rect x="138" y="138" width="2796" height="2796" rx="629" fill="#FFFFFF" filter="url(#grain19)" opacity="0.18" />
</svg>
