<svg xmlns="http://www.w3.org/2000/svg" width="3072" height="3072" viewBox="0 0 3072 3072">
  <title>QuartzOS App Icon 160 - solar_viewer_160</title>
  <defs><linearGradient id="bg159" x1="0%" y1="0%" x2="100%" y2="100%"><stop offset="0%" stop-color="#FFD84D" /><stop offset="26%" stop-color="#36D1FF" /><stop offset="56%" stop-color="#8A5CFF" /><stop offset="78%" stop-color="#6C7CC5" /><stop offset="100%" stop-color="#1E2032" /></linearGradient><radialGradient id="sun159" cx="26%" cy="27%" r="88%"><stop offset="0%" stop-color="#FFFFFF" stop-opacity="0.62" /><stop offset="30%" stop-color="#FF6AB3" stop-opacity="0.35" /><stop offset="100%" stop-color="#FF6AB3" stop-opacity="0" /></radialGradient><linearGradient id="glass159" x1="0%" y1="0%" x2="0%" y2="100%"><stop offset="0%" stop-color="#FFFFFF" stop-opacity="0.70" /><stop offset="46%" stop-color="#FFFFFF" stop-opacity="0.26" /><stop offset="100%" stop-color="#FFFFFF" stop-opacity="0.00" /></linearGradient><linearGradient id="ribbon159" x1="0%" y1="0%" x2="100%" y2="0%"><stop offset="0%" stop-color="#FFD84D" stop-opacity="0.18" /><stop offset="34%" stop-color="#36D1FF" stop-opacity="0.72" /><stop offset="66%" stop-color="#8A5CFF" stop-opacity="0.72" /><stop offset="100%" stop-color="#FF6AB3" stop-opacity="0.18" /></linearGradient><radialGradient id="orb159" cx="34%" cy="27%" r="74%"><stop offset="0%" stop-color="#FFFFFF" stop-opacity="0.84" /><stop offset="30%" stop-color="#FFD84D" stop-opacity="0.52" /><stop offset="68%" stop-color="#36D1FF" stop-opacity="0.42" /><stop offset="100%" stop-color="#8A5CFF" stop-opacity="0.20" /></radialGradient><linearGradient id="extrude159" x1="0%" y1="0%" x2="0%" y2="100%"><stop offset="0%" stop-color="#15283C" stop-opacity="0.45" /><stop offset="100%" stop-color="#08131D" stop-opacity="0.06" /></linearGradient><linearGradient id="symbol159" x1="0%" y1="0%" x2="100%" y2="100%"><stop offset="0%" stop-color="#FFFFFF" /><stop offset="100%" stop-color="#FF6AB3" /></linearGradient><filter id="shadow159" x="-40%" y="-40%" width="180%" height="180%"><feDropShadow dx="0" dy="49" stdDeviation="86" flood-color="#06111A" flood-opacity="0.54" /></filter><filter id="soft159" x="-40%" y="-40%" width="180%" height="180%"><feDropShadow dx="0" dy="0" stdDeviation="14" flood-color="#FFD84D" flood-opacity="0.45" /></filter><filter id="grain159"><feTurbulence type="fractalNoise" baseFrequency="0.894" numOctaves="2" seed="159" /><feColorMatrix type="saturate" values="0" /><feComponentTransfer><feFuncA type="table" tableValues="0 0.09" /></feComponentTransfer></filter></defs>
  <rect x="138" y="138" width="2796" height="2796" rx="629" fill="url(#bg159)" filter="url(#shadow159)" />
  <rect x="138" y="138" width="2796" height="2796" rx="629" fill="url(#sun159)" />
  <g><circle cx="2554" cy="2377" r="58" fill="#FFFFFF" opacity="0.100" /><circle cx="1776" cy="538" r="72" fill="#FFFFFF" opacity="0.128" /><circle cx="1568" cy="2538" r="45" fill="#FFFFFF" opacity="0.126" /><circle cx="422" cy="1387" r="129" fill="#FFFFFF" opacity="0.233" /><circle cx="1891" cy="328" r="46" fill="#FFFFFF" opacity="0.090" /><circle cx="998" cy="2695" r="83" fill="#FFFFFF" opacity="0.220" /><circle cx="1675" cy="2556" r="80" fill="#FFFFFF" opacity="0.220" /><circle cx="2393" cy="2507" r="135" fill="#FFFFFF" opacity="0.180" /><circle cx="2095" cy="1773" r="104" fill="#FFFFFF" opacity="0.102" /><circle cx="2117" cy="1352" r="100" fill="#FFFFFF" opacity="0.197" /><circle cx="1351" cy="1703" r="129" fill="#FFFFFF" opacity="0.182" /><circle cx="1175" cy="2581" r="115" fill="#FFFFFF" opacity="0.187" /><circle cx="2245" cy="881" r="131" fill="#FFFFFF" opacity="0.208" /><circle cx="1499" cy="2078" r="53" fill="#FFFFFF" opacity="0.106" /><circle cx="639" cy="1608" r="120" fill="#FFFFFF" opacity="0.215" /><circle cx="609" cy="881" r="70" fill="#FFFFFF" opacity="0.172" /><circle cx="1491" cy="1087" r="125" fill="#FFFFFF" opacity="0.070" /><circle cx="2180" cy="2377" r="86" fill="#FFFFFF" opacity="0.193" /><circle cx="1768" cy="665" r="98" fill="#FFFFFF" opacity="0.117" /><circle cx="482" cy="1265" r="48" fill="#FFFFFF" opacity="0.172" /><circle cx="942" cy="2067" r="96" fill="#FFFFFF" opacity="0.209" /><circle cx="1753" cy="2616" r="101" fill="#FFFFFF" opacity="0.196" /><circle cx="1704" cy="2565" r="140" fill="#FFFFFF" opacity="0.191" /><circle cx="755" cy="1549" r="63" fill="#FFFFFF" opacity="0.168" /><circle cx="901" cy="1087" r="105" fill="#FFFFFF" opacity="0.219" /><circle cx="1270" cy="2588" r="47" fill="#FFFFFF" opacity="0.075" /><circle cx="1055" cy="877" r="146" fill="#FFFFFF" opacity="0.180" /><circle cx="1126" cy="2040" r="132" fill="#FFFFFF" opacity="0.101" /></g>
  <g><path d="M 272.8 570.4 L 2713.8 294.0 L 2713.8 781.4 L 272.8 1057.9 Z" fill="#FFFFFF" opacity="0.224" /><path d="M 232.2 835.3 L 2875.4 558.8 L 2875.4 1008.4 L 232.2 1284.9 Z" fill="#FFFFFF" opacity="0.190" /><path d="M 302.1 1156.2 L 2703.0 879.7 L 2703.0 1357.1 L 302.1 1633.5 Z" fill="#FFFFFF" opacity="0.117" /><path d="M 270.8 1352.7 L 2881.7 1076.2 L 2881.7 1533.5 L 270.8 1810.0 Z" fill="#FFFFFF" opacity="0.147" /><path d="M 249.2 1703.7 L 2813.0 1427.2 L 2813.0 1871.8 L 249.2 2148.3 Z" fill="#FFFFFF" opacity="0.192" /><path d="M 287.1 1951.9 L 2710.6 1675.4 L 2710.6 2138.5 L 287.1 2414.9 Z" fill="#FFFFFF" opacity="0.157" /><path d="M 228.4 2197.9 L 2834.7 1921.5 L 2834.7 2377.3 L 228.4 2653.8 Z" fill="#FFFFFF" opacity="0.114" /><path d="M 248.9 2412.7 L 2819.9 2136.2 L 2819.9 2572.5 L 248.9 2849.0 Z" fill="#FFFFFF" opacity="0.169" /></g>
  <g filter="url(#soft159)"><g transform="rotate(-23.64 1536.0 1536.0)"><path d="M-368.6 549.7 C -225.8 614.4, -25.8 526.2, 107.5 593.4 C 250.4 595.3, 450.4 528.7, 583.7 555.8 C 726.5 556.0, 926.5 546.3, 1059.8 514.5 C 1202.7 502.6, 1402.7 578.0, 1536.0 494.6 C 1678.8 477.1, 1878.8 600.2, 2012.2 508.1 C 2155.0 521.1, 2355.0 583.5, 2488.3 546.8 C 2631.2 546.1, 2831.2 553.1, 2964.5 587.3 C 3107.3 583.1, 3307.3 529.3, 3440.6 605.0" fill="none" stroke="url(#ribbon159)" stroke-width="58.4" stroke-linecap="round" stroke-opacity="0.120" /></g><g transform="rotate(-23.06 1536.0 1536.0)"><path d="M-368.6 668.9 C -241.7 727.0, -63.9 650.5, 54.6 668.7 C 181.6 668.7, 359.4 668.9, 477.9 624.0 C 604.8 626.6, 782.6 713.3, 901.1 606.5 C 1028.1 607.5, 1205.9 734.9, 1324.4 626.9 C 1451.3 638.1, 1629.1 705.8, 1747.6 672.7 C 1874.6 674.1, 2052.4 665.0, 2170.9 716.2 C 2297.9 711.7, 2475.6 637.3, 2594.1 731.0 C 2721.1 715.5, 2898.9 608.1, 3017.4 708.1 C 3144.4 699.2, 3322.1 644.1, 3440.6 661.5" fill="none" stroke="url(#ribbon159)" stroke-width="54.4" stroke-linecap="round" stroke-opacity="0.146" /></g><g transform="rotate(-22.48 1536.0 1536.0)"><path d="M-368.6 861.2 C -254.4 853.9, -94.4 865.3, 12.3 906.1 C 126.6 890.1, 286.6 835.8, 393.2 930.4 C 507.5 904.2, 667.5 791.4, 774.1 912.7 C 888.4 914.6, 1048.4 836.0, 1155.1 863.8 C 1269.4 863.9, 1429.3 858.5, 1536.0 813.2 C 1650.3 829.7, 1810.3 899.0, 1916.9 791.7 C 2031.2 777.7, 2191.2 928.6, 2297.9 812.4 C 2412.1 812.4, 2572.1 902.4, 2678.8 862.6 C 2793.1 862.1, 2953.1 860.1, 3059.7 912.0 C 3174.0 892.6, 3334.0 818.2, 3440.6 930.5" fill="none" stroke="url(#ribbon159)" stroke-width="50.4" stroke-linecap="round" stroke-opacity="0.172" /></g><g transform="rotate(-21.90 1536.0 1536.0)"><path d="M-368.6 1122.6 C -264.8 1057.6, -119.3 1144.0, -22.3 1122.2 C 81.5 1122.2, 227.0 1122.9, 324.0 1177.2 C 427.8 1164.4, 573.3 1077.8, 670.3 1199.1 C 774.1 1207.9, 919.6 1080.1, 1016.6 1174.6 C 1120.4 1192.9, 1265.9 1083.6, 1362.9 1118.6 C 1466.7 1117.6, 1612.2 1124.0, 1709.1 1065.0 C 1813.0 1081.3, 1958.5 1157.0, 2055.4 1046.4 C 2159.3 1058.3, 2304.8 1189.9, 2401.7 1074.0 C 2505.6 1077.6, 2651.1 1157.6, 2748.0 1131.1 C 2851.9 1131.9, 2997.4 1119.8, 3094.3 1183.0 C 3198.2 1179.5, 3343.7 1100.0, 3440.6 1198.3" fill="none" stroke="url(#ribbon159)" stroke-width="46.4" stroke-linecap="round" stroke-opacity="0.198" /></g><g transform="rotate(-21.32 1536.0 1536.0)"><path d="M-368.6 1307.6 C -273.4 1295.1, -140.1 1314.0, -51.2 1239.5 C 44.0 1215.7, 177.4 1355.7, 266.2 1225.4 C 361.5 1220.5, 494.8 1392.4, 583.7 1261.0 C 678.9 1279.2, 812.2 1323.0, 901.1 1324.9 C 996.4 1322.3, 1129.7 1299.7, 1218.6 1378.3 C 1313.8 1398.0, 1447.1 1272.1, 1536.0 1388.8 C 1631.2 1420.4, 1764.6 1248.5, 1853.4 1350.0 C 1948.7 1346.3, 2082.0 1262.7, 2170.9 1285.4 C 2266.1 1285.3, 2399.4 1317.3, 2488.3 1234.4 C 2583.6 1250.8, 2716.9 1357.2, 2805.8 1227.7 C 2901.0 1199.4, 3034.3 1332.2, 3123.2 1269.5 C 3218.4 1278.0, 3351.8 1334.1, 3440.6 1334.4" fill="none" stroke="url(#ribbon159)" stroke-width="42.4" stroke-linecap="round" stroke-opacity="0.224" /></g><g transform="rotate(-20.74 1536.0 1536.0)"><path d="M-368.6 1550.3 C -225.8 1490.0, -25.8 1655.2, 107.5 1489.5 C 250.4 1482.0, 450.4 1579.0, 583.7 1556.2 C 726.5 1556.3, 926.5 1544.4, 1059.8 1619.3 C 1202.7 1635.0, 1402.7 1516.3, 1536.0 1640.5 C 1678.8 1643.6, 1878.8 1474.8, 2012.2 1607.0 C 2155.0 1602.9, 2355.0 1518.5, 2488.3 1539.0 C 2631.2 1540.7, 2831.2 1554.4, 2964.5 1477.9 C 3107.3 1451.9, 3307.3 1589.0, 3440.6 1460.7" fill="none" stroke="url(#ribbon159)" stroke-width="38.4" stroke-linecap="round" stroke-opacity="0.250" /></g><g transform="rotate(-20.16 1536.0 1536.0)"><path d="M-368.6 1655.9 C -241.7 1770.3, -63.9 1584.6, 54.6 1706.7 C 181.6 1713.1, 359.4 1629.1, 477.9 1631.4 C 604.8 1630.6, 782.6 1679.7, 901.1 1571.0 C 1028.1 1566.7, 1205.9 1741.0, 1324.4 1562.1 C 1451.3 1544.6, 1629.1 1705.5, 1747.6 1610.1 C 1874.6 1621.5, 2052.4 1680.8, 2170.9 1685.9 C 2297.9 1689.8, 2475.6 1645.9, 2594.1 1743.5 C 2721.1 1772.5, 2898.9 1583.2, 3017.4 1748.0 C 3144.4 1728.2, 3322.1 1604.3, 3440.6 1696.6" fill="none" stroke="url(#ribbon159)" stroke-width="34.4" stroke-linecap="round" stroke-opacity="0.276" /></g><g transform="rotate(-19.58 1536.0 1536.0)"><path d="M-368.6 1851.9 C -254.4 1903.0, -94.4 1822.9, 12.3 1952.8 C 126.6 1931.4, 286.6 1799.5, 393.2 1942.5 C 507.5 1929.8, 667.5 1779.6, 774.1 1877.2 C 888.4 1883.5, 1048.4 1826.7, 1155.1 1796.6 C 1269.4 1790.0, 1429.3 1896.4, 1536.0 1749.6 C 1650.3 1744.2, 1810.3 1962.4, 1916.9 1764.6 C 2031.2 1748.2, 2191.2 1950.0, 2297.9 1832.6 C 2412.1 1836.2, 2572.1 1858.9, 2678.8 1912.3 C 2793.1 1890.8, 2953.1 1806.6, 3059.7 1955.4 C 3174.0 1945.6, 3334.0 1816.3, 3440.6 1935.7" fill="none" stroke="url(#ribbon159)" stroke-width="30.4" stroke-linecap="round" stroke-opacity="0.302" /></g><g transform="rotate(-19.00 1536.0 1536.0)"><path d="M-368.6 2048.4 C -264.8 1922.0, -119.3 2086.9, -22.3 1946.5 C 81.5 1942.2, 227.0 2100.4, 324.0 2010.3 C 427.8 2011.8, 573.3 2062.0, 670.3 2097.3 C 774.1 2103.2, 919.6 1990.5, 1016.6 2154.6 C 1120.4 2140.4, 1265.9 1974.2, 1362.9 2147.6 C 1466.7 2115.3, 1612.2 1952.3, 1709.1 2080.4 C 1813.0 2074.3, 1958.5 2028.7, 2055.4 1993.8 C 2159.3 1988.0, 2304.8 2105.9, 2401.7 1940.4 C 2505.6 1908.3, 2651.1 2151.5, 2748.0 1952.5 C 2851.9 1977.5, 2997.4 2095.4, 3094.3 2022.8 C 3198.2 2033.0, 3343.7 2064.7, 3440.6 2108.7" fill="none" stroke="url(#ribbon159)" stroke-width="26.4" stroke-linecap="round" stroke-opacity="0.328" /></g><g transform="rotate(-18.42 1536.0 1536.0)"><path d="M-368.6 2225.8 C -273.4 2353.0, -140.1 2178.6, -51.2 2335.9 C 44.0 2319.1, 177.4 2180.8, 266.2 2270.3 C 361.5 2256.8, 494.8 2183.6, 583.7 2177.7 C 678.9 2196.1, 812.2 2268.1, 901.1 2114.3 C 996.4 2099.8, 1129.7 2322.3, 1218.6 2118.5 C 1313.8 2113.2, 1447.1 2277.8, 1536.0 2187.8 C 1631.2 2190.1, 1764.6 2256.7, 1853.4 2280.1 C 1948.7 2276.9, 2082.0 2205.1, 2170.9 2339.5 C 2266.1 2355.2, 2399.4 2177.6, 2488.3 2329.9 C 2583.6 2299.8, 2716.9 2177.6, 2805.8 2257.2 C 2901.0 2263.8, 3034.3 2203.8, 3123.2 2165.4 C 3218.4 2182.0, 3351.8 2247.3, 3440.6 2110.2" fill="none" stroke="url(#ribbon159)" stroke-width="22.4" stroke-linecap="round" stroke-opacity="0.354" /></g><g transform="rotate(-17.84 1536.0 1536.0)"><path d="M-368.6 2398.7 C -225.8 2459.0, -25.8 2344.9, 107.5 2403.7 C 250.4 2402.7, 450.4 2395.9, 583.7 2311.9 C 726.5 2320.1, 926.5 2501.1, 1059.8 2272.8 C 1202.7 2313.9, 1402.7 2516.0, 1536.0 2310.1 C 1678.8 2285.7, 1878.8 2485.1, 2012.2 2401.1 C 2155.0 2400.4, 2355.0 2396.1, 2488.3 2490.7 C 2631.2 2503.5, 2831.2 2358.9, 2964.5 2524.5 C 3107.3 2545.0, 3307.3 2302.6, 3440.6 2482.0" fill="none" stroke="url(#ribbon159)" stroke-width="18.4" stroke-linecap="round" stroke-opacity="0.380" /></g><g transform="rotate(-17.26 1536.0 1536.0)"><path d="M-368.6 2633.1 C -241.7 2454.1, -63.9 2718.3, 54.6 2558.8 C 181.6 2583.9, 359.4 2697.6, 477.9 2660.4 C 604.8 2649.6, 782.6 2605.9, 901.1 2745.5 C 1028.1 2752.8, 1205.9 2524.2, 1324.4 2762.5 C 1451.3 2791.4, 1629.1 2520.0, 1747.6 2701.0 C 1874.6 2686.9, 2052.4 2559.8, 2170.9 2598.3 C 2297.9 2586.7, 2475.6 2673.4, 2594.1 2516.8 C 2721.1 2508.9, 2898.9 2761.6, 3017.4 2505.8 C 3144.4 2514.4, 3322.1 2693.8, 3440.6 2572.1" fill="none" stroke="url(#ribbon159)" stroke-width="14.4" stroke-linecap="round" stroke-opacity="0.406" /></g></g>
  <g><ellipse cx="1536.0" cy="1551.9" rx="728.6" ry="605.7" fill="url(#extrude159)" opacity="0.220" /><ellipse cx="1536.0" cy="1567.7" rx="736.0" ry="610.9" fill="url(#extrude159)" opacity="0.205" /><ellipse cx="1536.0" cy="1583.6" rx="743.4" ry="616.1" fill="url(#extrude159)" opacity="0.190" /><ellipse cx="1536.0" cy="1599.5" rx="750.9" ry="621.3" fill="url(#extrude159)" opacity="0.175" /><ellipse cx="1536.0" cy="1615.4" rx="758.3" ry="626.5" fill="url(#extrude159)" opacity="0.160" /><ellipse cx="1536.0" cy="1631.2" rx="765.7" ry="631.7" fill="url(#extrude159)" opacity="0.145" /><ellipse cx="1536.0" cy="1647.1" rx="773.2" ry="636.9" fill="url(#extrude159)" opacity="0.130" /><ellipse cx="1536.0" cy="1663.0" rx="780.6" ry="642.1" fill="url(#extrude159)" opacity="0.115" /><ellipse cx="1536.0" cy="1678.8" rx="788.0" ry="647.4" fill="url(#extrude159)" opacity="0.100" /><ellipse cx="1536.0" cy="1694.7" rx="795.5" ry="652.6" fill="url(#extrude159)" opacity="0.085" /><ellipse cx="1536.0" cy="1710.6" rx="802.9" ry="657.8" fill="url(#extrude159)" opacity="0.070" /><ellipse cx="1536.0" cy="1726.5" rx="810.3" ry="663.0" fill="url(#extrude159)" opacity="0.055" /></g>
  <ellipse cx="1536.0" cy="1726.5" rx="773.2" ry="214.9" fill="#0B1D2D" opacity="0.24" />
  <ellipse cx="1536.0" cy="1536.0" rx="743.4" ry="651.3" fill="url(#orb159)" stroke="#FFFFFF" stroke-opacity="0.42" stroke-width="7" />
  <ellipse cx="1431.9" cy="1392.7" rx="505.5" ry="299.6" fill="#FFFFFF" opacity="0.25" />
  <path d="M 199.4 399.4 C 1013.8 -30.7, 2058.2 768.0, 2872.6 215.0 L 2872.6 983.0 C 2089.0 1228.8, 1013.8 307.2, 199.4 1167.4 Z" fill="url(#glass159)" />
  <rect x="270" y="270" width="2532" height="2532" rx="430" fill="none" stroke="#FFFFFF" stroke-opacity="0.30" stroke-width="5" />
  <rect x="288.4" y="288.4" width="2495.1" height="2495.1" rx="399" fill="none" stroke="#FFD84D" stroke-opacity="0.35" stroke-width="3" />
  <g filter="url(#soft159)"><rect x="1794" y="651" width="34" height="2" fill="#FFFFFF" opacity="0.439" /><rect x="1810" y="635" width="2" height="34" fill="#FFFFFF" opacity="0.439" /><rect x="1432" y="2727" width="60" height="2" fill="#FFFFFF" opacity="0.365" /><rect x="1461" y="2698" width="2" height="60" fill="#FFFFFF" opacity="0.365" /><rect x="1837" y="2594" width="78" height="2" fill="#FFFFFF" opacity="0.390" /><rect x="1875" y="2556" width="2" height="78" fill="#FFFFFF" opacity="0.390" /><rect x="1180" y="2074" width="58" height="2" fill="#FFFFFF" opacity="0.781" /><rect x="1208" y="2046" width="2" height="58" fill="#FFFFFF" opacity="0.781" /><rect x="652" y="2318" width="64" height="2" fill="#FFFFFF" opacity="0.464" /><rect x="683" y="2287" width="2" height="64" fill="#FFFFFF" opacity="0.464" /><rect x="1807" y="269" width="38" height="2" fill="#FFFFFF" opacity="0.636" /><rect x="1825" y="251" width="2" height="38" fill="#FFFFFF" opacity="0.636" /><rect x="2151" y="1726" width="46" height="2" fill="#FFFFFF" opacity="0.612" /><rect x="2173" y="1704" width="2" height="46" fill="#FFFFFF" opacity="0.612" /><rect x="2360" y="2705" width="80" height="2" fill="#FFFFFF" opacity="0.695" /><rect x="2399" y="2666" width="2" height="80" fill="#FFFFFF" opacity="0.695" /><rect x="621" y="2294" width="46" height="2" fill="#FFFFFF" opacity="0.662" /><rect x="643" y="2272" width="2" height="46" fill="#FFFFFF" opacity="0.662" /><rect x="828" y="2466" width="66" height="2" fill="#FFFFFF" opacity="0.694" /><rect x="860" y="2434" width="2" height="66" fill="#FFFFFF" opacity="0.694" /><rect x="2142" y="1351" width="42" height="2" fill="#FFFFFF" opacity="0.751" /><rect x="2162" y="1331" width="2" height="42" fill="#FFFFFF" opacity="0.751" /><rect x="2234" y="2204" width="32" height="2" fill="#FFFFFF" opacity="0.552" /><rect x="2249" y="2189" width="2" height="32" fill="#FFFFFF" opacity="0.552" /><rect x="777" y="488" width="60" height="2" fill="#FFFFFF" opacity="0.837" /><rect x="806" y="459" width="2" height="60" fill="#FFFFFF" opacity="0.837" /><rect x="1918" y="263" width="80" height="2" fill="#FFFFFF" opacity="0.647" /><rect x="1957" y="224" width="2" height="80" fill="#FFFFFF" opacity="0.647" /><rect x="367" y="900" width="42" height="2" fill="#FFFFFF" opacity="0.371" /><rect x="387" y="880" width="2" height="42" fill="#FFFFFF" opacity="0.371" /><rect x="1837" y="1530" width="62" height="2" fill="#FFFFFF" opacity="0.621" /><rect x="1867" y="1500" width="2" height="62" fill="#FFFFFF" opacity="0.621" /><rect x="1046" y="773" width="64" height="2" fill="#FFFFFF" opacity="0.356" /><rect x="1077" y="742" width="2" height="64" fill="#FFFFFF" opacity="0.356" /><rect x="1442" y="2624" width="48" height="2" fill="#FFFFFF" opacity="0.554" /><rect x="1465" y="2601" width="2" height="48" fill="#FFFFFF" opacity="0.554" /><rect x="1284" y="2275" width="38" height="2" fill="#FFFFFF" opacity="0.612" /><rect x="1302" y="2257" width="2" height="38" fill="#FFFFFF" opacity="0.612" /><rect x="1659" y="1792" width="84" height="2" fill="#FFFFFF" opacity="0.658" /><rect x="1700" y="1751" width="2" height="84" fill="#FFFFFF" opacity="0.658" /><rect x="2288" y="443" width="48" height="2" fill="#FFFFFF" opacity="0.524" /><rect x="2311" y="420" width="2" height="48" fill="#FFFFFF" opacity="0.524" /><rect x="1417" y="794" width="58" height="2" fill="#FFFFFF" opacity="0.597" /><rect x="1445" y="766" width="2" height="58" fill="#FFFFFF" opacity="0.597" /><rect x="276" y="1822" width="72" height="2" fill="#FFFFFF" opacity="0.510" /><rect x="311" y="1787" width="2" height="72" fill="#FFFFFF" opacity="0.510" /><rect x="1646" y="1258" width="70" height="2" fill="#FFFFFF" opacity="0.626" /><rect x="1680" y="1224" width="2" height="70" fill="#FFFFFF" opacity="0.626" /><rect x="1391" y="2334" width="72" height="2" fill="#FFFFFF" opacity="0.354" /><rect x="1426" y="2299" width="2" height="72" fill="#FFFFFF" opacity="0.354" /><rect x="2235" y="575" width="60" height="2" fill="#FFFFFF" opacity="0.703" /><rect x="2264" y="546" width="2" height="60" fill="#FFFFFF" opacity="0.703" /></g>
  <g opacity="0.52"><rect x="1060" y="1070" width="219" height="1024" fill="#0C2030" /><rect x="1316" y="1326" width="219" height="768" fill="#0C2030" /><rect x="1572" y="1198" width="219" height="921" fill="#0C2030" /><rect x="1828" y="1033" width="219" height="1152" fill="#0C2030" /></g>
  <g filter="url(#soft159)"><rect x="1024" y="1024" width="219" height="1024" fill="url(#symbol159)" /><rect x="1280" y="1280" width="219" height="768" fill="url(#symbol159)" /><rect x="1536" y="1152" width="219" height="921" fill="url(#symbol159)" /><rect x="1792" y="987" width="219" height="1152" fill="url(#symbol159)" /></g>
  <rect x="138" y="138" width="2796" height="2796" rx="629" fill="#FFFFFF" filter="url(#grain159)" opacity="0.18" />
</svg>
