<svg xmlns="http://www.w3.org/2000/svg" width="3072" height="3072" viewBox="0 0 3072 3072">
  <title>QuartzOS App Icon 015 - solid_editor_015</title>
  <defs><linearGradient id="bg14" x1="0%" y1="0%" x2="100%" y2="100%"><stop offset="0%" stop-color="#36D1FF" /><stop offset="26%" stop-color="#8A5CFF" /><stop offset="56%" stop-color="#FF9F43" /><stop offset="78%" stop-color="#5E86C9" /><stop offset="100%" stop-color="#1C2435" /></linearGradient><radialGradient id="sun14" cx="29%" cy="32%" r="88%"><stop offset="0%" stop-color="#FFFFFF" stop-opacity="0.62" /><stop offset="30%" stop-color="#FFD84D" stop-opacity="0.35" /><stop offset="100%" stop-color="#FFD84D" stop-opacity="0" /></radialGradient><linearGradient id="glass14" x1="0%" y1="0%" x2="0%" y2="100%"><stop offset="0%" stop-color="#FFFFFF" stop-opacity="0.70" /><stop offset="46%" stop-color="#FFFFFF" stop-opacity="0.26" /><stop offset="100%" stop-color="#FFFFFF" stop-opacity="0.00" /></linearGradient><linearGradient id="ribbon14" x1="0%" y1="0%" x2="100%" y2="0%"><stop offset="0%" stop-color="#36D1FF" stop-opacity="0.18" /><stop offset="34%" stop-color="#8A5CFF" stop-opacity="0.72" /><stop offset="66%" stop-color="#FF9F43" stop-opacity="0.72" /><stop offset="100%" stop-color="#FFD84D" stop-opacity="0.18" /></linearGradient><radialGradient id="orb14" cx="34%" cy="27%" r="74%"><stop offset="0%" stop-color="#FFFFFF" stop-opacity="0.84" /><stop offset="30%" stop-color="#36D1FF" stop-opacity="0.52" /><stop offset="68%" stop-color="#8A5CFF" stop-opacity="0.42" /><stop offset="100%" stop-color="#FF9F43" stop-opacity="0.20" /></radialGradient><linearGradient id="extrude14" x1="0%" y1="0%" x2="0%" y2="100%"><stop offset="0%" stop-color="#15283C" stop-opacity="0.45" /><stop offset="100%" stop-color="#08131D" stop-opacity="0.06" /></linearGradient><linearGradient id="symbol14" x1="0%" y1="0%" x2="100%" y2="100%"><stop offset="0%" stop-color="#FFFFFF" /><stop offset="100%" stop-color="#FFD84D" /></linearGradient><filter id="shadow14" x="-40%" y="-40%" width="180%" height="180%"><feDropShadow dx="0" dy="49" stdDeviation="86" flood-color="#06111A" flood-opacity="0.54" /></filter><filter id="soft14" x="-40%" y="-40%" width="180%" height="180%"><feDropShadow dx="0" dy="0" stdDeviation="14" flood-color="#36D1FF" flood-opacity="0.45" /></filter><filter id="grain14"><feTurbulence type="fractalNoise" baseFrequency="1.024" numOctaves="2" seed="14" /><feColorMatrix type="saturate" values="0" /><feComponentTransfer><feFuncA type="table" tableValues="0 0.09" /></feComponentTransfer></filter></defs>
  <rect x="138" y="138" width="2796" height="2796" rx="629" fill="url(#bg14)" filter="url(#shadow14)" />
  <rect x="138" y="138" width="2796" height="2796" rx="629" fill="url(#sun14)" />
  <g><circle cx="1077" cy="1508" r="109" fill="#FFFFFF" opacity="0.190" /><circle cx="1407" cy="2368" r="113" fill="#FFFFFF" opacity="0.091" /><circle cx="2263" cy="1687" r="47" fill="#FFFFFF" opacity="0.145" /><circle cx="1785" cy="1884" r="155" fill="#FFFFFF" opacity="0.106" /><circle cx="918" cy="825" r="121" fill="#FFFFFF" opacity="0.123" /><circle cx="1927" cy="353" r="90" fill="#FFFFFF" opacity="0.203" /><circle cx="2203" cy="1187" r="143" fill="#FFFFFF" opacity="0.076" /><circle cx="1208" cy="1741" r="126" fill="#FFFFFF" opacity="0.112" /><circle cx="1624" cy="2260" r="127" fill="#FFFFFF" opacity="0.152" /><circle cx="2689" cy="1862" r="99" fill="#FFFFFF" opacity="0.222" /><circle cx="656" cy="673" r="113" fill="#FFFFFF" opacity="0.103" /><circle cx="2534" cy="642" r="157" fill="#FFFFFF" opacity="0.166" /><circle cx="1486" cy="1632" r="49" fill="#FFFFFF" opacity="0.199" /><circle cx="602" cy="1958" r="159" fill="#FFFFFF" opacity="0.160" /><circle cx="1916" cy="1166" r="121" fill="#FFFFFF" opacity="0.204" /><circle cx="1834" cy="1042" r="124" fill="#FFFFFF" opacity="0.239" /><circle cx="2079" cy="1456" r="158" fill="#FFFFFF" opacity="0.220" /><circle cx="1444" cy="2588" r="144" fill="#FFFFFF" opacity="0.093" /><circle cx="1960" cy="1768" r="99" fill="#FFFFFF" opacity="0.144" /><circle cx="617" cy="2469" r="104" fill="#FFFFFF" opacity="0.215" /><circle cx="1406" cy="906" r="155" fill="#FFFFFF" opacity="0.077" /><circle cx="1326" cy="2546" r="102" fill="#FFFFFF" opacity="0.225" /><circle cx="2606" cy="1615" r="59" fill="#FFFFFF" opacity="0.077" /><circle cx="1307" cy="1074" r="71" fill="#FFFFFF" opacity="0.134" /><circle cx="1049" cy="2558" r="105" fill="#FFFFFF" opacity="0.138" /><circle cx="848" cy="1817" r="78" fill="#FFFFFF" opacity="0.221" /><circle cx="2315" cy="1818" r="43" fill="#FFFFFF" opacity="0.238" /><circle cx="384" cy="1162" r="91" fill="#FFFFFF" opacity="0.065" /></g>
  <g><path d="M 356.9 618.6 L 2876.9 342.1 L 2876.9 764.5 L 356.9 1041.0 Z" fill="#FFFFFF" opacity="0.094" /><path d="M 181.6 861.1 L 2815.1 584.6 L 2815.1 1024.4 L 181.6 1300.9 Z" fill="#FFFFFF" opacity="0.234" /><path d="M 203.6 1112.9 L 2907.5 836.5 L 2907.5 1256.4 L 203.6 1532.9 Z" fill="#FFFFFF" opacity="0.224" /><path d="M 180.4 1402.2 L 2763.4 1125.7 L 2763.4 1608.2 L 180.4 1884.7 Z" fill="#FFFFFF" opacity="0.167" /><path d="M 269.5 1645.3 L 2904.1 1368.8 L 2904.1 1865.1 L 269.5 2141.5 Z" fill="#FFFFFF" opacity="0.230" /><path d="M 202.8 1883.2 L 2919.5 1606.7 L 2919.5 2085.0 L 202.8 2361.5 Z" fill="#FFFFFF" opacity="0.139" /><path d="M 299.1 2168.1 L 2853.6 1891.7 L 2853.6 2358.4 L 299.1 2634.9 Z" fill="#FFFFFF" opacity="0.130" /><path d="M 244.4 2416.4 L 2791.0 2139.9 L 2791.0 2579.2 L 244.4 2855.7 Z" fill="#FFFFFF" opacity="0.112" /></g>
  <g filter="url(#soft14)"><g transform="rotate(-19.32 1536.0 1536.0)"><path d="M-368.6 565.6 C -225.8 606.7, -25.8 534.0, 107.5 557.2 C 250.4 558.8, 450.4 575.4, 583.7 520.6 C 726.5 503.5, 926.5 607.5, 1059.8 511.2 C 1202.7 509.4, 1402.7 594.2, 1536.0 534.9 C 1678.8 536.1, 1878.8 596.8, 2012.2 577.2 C 2155.0 575.5, 2355.0 561.9, 2488.3 612.5 C 2631.2 612.0, 2831.2 535.6, 2964.5 619.3 C 3107.3 602.6, 3307.3 519.3, 3440.6 593.6" fill="none" stroke="url(#ribbon14)" stroke-width="58.4" stroke-linecap="round" stroke-opacity="0.120" /></g><g transform="rotate(-18.74 1536.0 1536.0)"><path d="M-368.6 768.6 C -241.7 718.4, -63.9 835.4, 54.6 726.0 C 181.6 717.2, 359.4 796.0, 477.9 771.6 C 604.8 771.6, 782.6 766.9, 901.1 815.4 C 1028.1 833.1, 1205.9 739.7, 1324.4 830.8 C 1451.3 844.0, 1629.1 706.2, 1747.6 808.5 C 1874.6 814.5, 2052.4 739.8, 2170.9 762.0 C 2297.9 761.2, 2475.6 775.5, 2594.1 719.5 C 2721.1 712.3, 2898.9 807.8, 3017.4 706.8 C 3144.4 714.8, 3322.1 827.8, 3440.6 731.6" fill="none" stroke="url(#ribbon14)" stroke-width="54.4" stroke-linecap="round" stroke-opacity="0.146" /></g><g transform="rotate(-18.16 1536.0 1536.0)"><path d="M-368.6 951.6 C -254.4 933.2, -94.4 972.8, 12.3 978.2 C 126.6 971.9, 286.6 939.3, 393.2 1016.2 C 507.5 1032.8, 667.5 904.9, 774.1 1015.0 C 888.4 1016.2, 1048.4 901.8, 1155.1 975.4 C 1269.4 984.0, 1429.3 934.1, 1536.0 921.4 C 1650.3 917.3, 1810.3 978.6, 1916.9 885.7 C 2031.2 870.4, 2191.2 995.3, 2297.9 890.1 C 2412.1 907.9, 2572.1 998.7, 2678.8 931.8 C 2793.1 937.9, 2953.1 971.4, 3059.7 985.5 C 3174.0 986.5, 3334.0 918.6, 3440.6 1018.7" fill="none" stroke="url(#ribbon14)" stroke-width="50.4" stroke-linecap="round" stroke-opacity="0.172" /></g><g transform="rotate(-17.58 1536.0 1536.0)"><path d="M-368.6 1129.7 C -264.8 1083.7, -119.3 1159.7, -22.3 1154.6 C 81.5 1144.7, 227.0 1115.2, 324.0 1198.9 C 427.8 1179.6, 573.3 1079.5, 670.3 1201.3 C 774.1 1229.1, 919.6 1084.9, 1016.6 1160.2 C 1120.4 1169.9, 1265.9 1112.1, 1362.9 1100.7 C 1466.7 1106.7, 1612.2 1149.0, 1709.1 1058.7 C 1813.0 1048.3, 1958.5 1211.4, 2055.4 1059.8 C 2159.3 1050.1, 2304.8 1178.4, 2401.7 1103.3 C 2505.6 1108.0, 2651.1 1157.5, 2748.0 1162.8 C 2851.9 1152.8, 2997.4 1098.9, 3094.3 1202.3 C 3198.2 1193.6, 3343.7 1082.7, 3440.6 1197.7" fill="none" stroke="url(#ribbon14)" stroke-width="46.4" stroke-linecap="round" stroke-opacity="0.198" /></g><g transform="rotate(-17.00 1536.0 1536.0)"><path d="M-368.6 1258.9 C -273.4 1301.5, -140.1 1201.9, -51.2 1272.0 C 44.0 1275.9, 177.4 1245.7, 266.2 1208.8 C 361.5 1190.4, 494.8 1280.4, 583.7 1176.0 C 678.9 1161.6, 812.2 1308.8, 901.1 1193.5 C 996.4 1174.9, 1129.7 1301.1, 1218.6 1250.6 C 1313.8 1248.9, 1447.1 1263.9, 1536.0 1312.8 C 1631.2 1324.0, 1764.6 1204.6, 1853.4 1342.2 C 1948.7 1336.2, 2082.0 1166.2, 2170.9 1321.1 C 2266.1 1317.9, 2399.4 1195.1, 2488.3 1262.3 C 2583.6 1263.5, 2716.9 1255.3, 2805.8 1201.4 C 2901.0 1196.3, 3034.3 1290.0, 3123.2 1175.3 C 3218.4 1175.2, 3351.8 1323.0, 3440.6 1200.0" fill="none" stroke="url(#ribbon14)" stroke-width="42.4" stroke-linecap="round" stroke-opacity="0.224" /></g><g transform="rotate(-16.42 1536.0 1536.0)"><path d="M-368.6 1430.5 C -225.8 1359.0, -25.8 1514.5, 107.5 1347.2 C 250.4 1350.3, 450.4 1466.1, 583.7 1398.1 C 726.5 1407.3, 926.5 1467.4, 1059.8 1468.7 C 1202.7 1462.1, 1402.7 1398.4, 1536.0 1516.0 C 1678.8 1537.7, 1878.8 1358.2, 2012.2 1511.5 C 2155.0 1486.6, 2355.0 1344.1, 2488.3 1457.8 C 2631.2 1449.3, 2831.2 1421.2, 2964.5 1387.5 C 3107.3 1385.1, 3307.3 1459.3, 3440.6 1343.3" fill="none" stroke="url(#ribbon14)" stroke-width="38.4" stroke-linecap="round" stroke-opacity="0.250" /></g><g transform="rotate(-15.84 1536.0 1536.0)"><path d="M-368.6 1740.5 C -241.7 1734.4, -63.9 1742.9, 54.6 1805.8 C 181.6 1793.6, 359.4 1703.8, 477.9 1838.1 C 604.8 1826.8, 782.6 1630.5, 901.1 1811.2 C 1028.1 1834.7, 1205.9 1664.5, 1324.4 1741.4 C 1451.3 1741.5, 1629.1 1740.2, 1747.6 1671.1 C 1874.6 1649.7, 2052.4 1803.8, 2170.9 1642.8 C 2297.9 1675.0, 2475.6 1816.9, 2594.1 1673.8 C 2721.1 1677.0, 2898.9 1814.5, 3017.4 1745.3 C 3144.4 1746.4, 3322.1 1737.5, 3440.6 1813.8" fill="none" stroke="url(#ribbon14)" stroke-width="34.4" stroke-linecap="round" stroke-opacity="0.276" /></g><g transform="rotate(-15.26 1536.0 1536.0)"><path d="M-368.6 1911.2 C -254.4 1996.8, -94.4 1877.6, 12.3 1955.7 C 126.6 1963.3, 286.6 1873.2, 393.2 1874.2 C 507.5 1868.0, 667.5 1954.3, 774.1 1815.1 C 888.4 1837.2, 1048.4 1980.4, 1155.1 1814.3 C 1269.4 1837.7, 1429.3 1976.2, 1536.0 1872.3 C 1650.3 1860.6, 1810.3 1957.7, 1916.9 1953.8 C 2031.2 1947.2, 2191.2 1892.4, 2297.9 2009.5 C 2412.1 2022.3, 2572.1 1849.9, 2678.8 2005.6 C 2793.1 1977.0, 2953.1 1826.3, 3059.7 1944.4 C 3174.0 1943.4, 3334.0 1880.3, 3440.6 1863.0" fill="none" stroke="url(#ribbon14)" stroke-width="30.4" stroke-linecap="round" stroke-opacity="0.302" /></g><g transform="rotate(-14.68 1536.0 1536.0)"><path d="M-368.6 2104.2 C -264.8 2190.2, -119.3 2050.2, -22.3 2211.8 C 81.5 2247.7, 227.0 1991.2, 324.0 2157.2 C 427.8 2161.4, 573.3 2047.6, 670.3 2070.5 C 774.1 2070.8, 919.6 2139.2, 1016.6 2004.2 C 1120.4 1990.5, 1265.9 2176.6, 1362.9 1998.7 C 1466.7 2026.2, 1612.2 2225.8, 1709.1 2057.2 C 1813.0 2075.0, 1958.5 2132.9, 2055.4 2144.2 C 2159.3 2137.0, 2304.8 2080.7, 2401.7 2207.0 C 2505.6 2188.5, 2651.1 2035.0, 2748.0 2207.5 C 2851.9 2244.6, 2997.4 2064.3, 3094.3 2145.3 C 3198.2 2160.1, 3343.7 2064.9, 3440.6 2058.3" fill="none" stroke="url(#ribbon14)" stroke-width="26.4" stroke-linecap="round" stroke-opacity="0.328" /></g><g transform="rotate(-14.10 1536.0 1536.0)"><path d="M-368.6 2204.7 C -273.4 2276.9, -140.1 2100.7, -51.2 2320.6 C 44.0 2346.7, 177.4 2109.9, 266.2 2266.5 C 361.5 2275.4, 494.8 2147.1, 583.7 2174.9 C 678.9 2173.0, 812.2 2239.1, 901.1 2101.4 C 996.4 2109.0, 1129.7 2244.6, 1218.6 2090.5 C 1313.8 2135.7, 1447.1 2244.7, 1536.0 2148.9 C 1631.2 2166.9, 1764.6 2226.1, 1853.4 2241.2 C 1948.7 2227.3, 2082.0 2179.2, 2170.9 2311.3 C 2266.1 2342.3, 2399.4 2138.6, 2488.3 2316.7 C 2583.6 2307.6, 2716.9 2086.0, 2805.8 2254.2 C 2901.0 2271.4, 3034.3 2169.5, 3123.2 2161.7 C 3218.4 2173.1, 3351.8 2239.1, 3440.6 2095.2" fill="none" stroke="url(#ribbon14)" stroke-width="22.4" stroke-linecap="round" stroke-opacity="0.354" /></g><g transform="rotate(-13.52 1536.0 1536.0)"><path d="M-368.6 2459.4 C -225.8 2506.0, -25.8 2427.3, 107.5 2582.6 C 250.4 2616.8, 450.4 2399.1, 583.7 2563.8 C 726.5 2557.0, 926.5 2386.1, 1059.8 2481.5 C 1202.7 2486.2, 1402.7 2446.7, 1536.0 2385.9 C 1678.8 2359.1, 1878.8 2527.2, 2012.2 2334.8 C 2155.0 2351.0, 2355.0 2535.7, 2488.3 2359.3 C 2631.2 2323.0, 2831.2 2552.1, 2964.5 2444.4 C 3107.3 2444.8, 3307.3 2467.2, 3440.6 2538.7" fill="none" stroke="url(#ribbon14)" stroke-width="18.4" stroke-linecap="round" stroke-opacity="0.380" /></g><g transform="rotate(-12.94 1536.0 1536.0)"><path d="M-368.6 2704.6 C -241.7 2587.0, -63.9 2818.2, 54.6 2581.9 C 181.6 2612.5, 359.4 2798.6, 477.9 2656.0 C 604.8 2642.6, 782.6 2752.6, 901.1 2759.6 C 1028.1 2745.0, 1205.9 2649.0, 1324.4 2829.8 C 1451.3 2810.2, 1629.1 2581.5, 1747.6 2824.1 C 1874.6 2831.6, 2052.4 2664.4, 2170.9 2745.9 C 2297.9 2732.5, 2475.6 2689.2, 2594.1 2642.6 C 2721.1 2664.1, 2898.9 2748.3, 3017.4 2577.0 C 3144.4 2584.3, 3322.1 2753.3, 3440.6 2588.8" fill="none" stroke="url(#ribbon14)" stroke-width="14.4" stroke-linecap="round" stroke-opacity="0.406" /></g></g>
  <g><ellipse cx="1536.0" cy="1551.9" rx="728.6" ry="605.7" fill="url(#extrude14)" opacity="0.220" /><ellipse cx="1536.0" cy="1567.7" rx="736.0" ry="610.9" fill="url(#extrude14)" opacity="0.205" /><ellipse cx="1536.0" cy="1583.6" rx="743.4" ry="616.1" fill="url(#extrude14)" opacity="0.190" /><ellipse cx="1536.0" cy="1599.5" rx="750.9" ry="621.3" fill="url(#extrude14)" opacity="0.175" /><ellipse cx="1536.0" cy="1615.4" rx="758.3" ry="626.5" fill="url(#extrude14)" opacity="0.160" /><ellipse cx="1536.0" cy="1631.2" rx="765.7" ry="631.7" fill="url(#extrude14)" opacity="0.145" /><ellipse cx="1536.0" cy="1647.1" rx="773.2" ry="636.9" fill="url(#extrude14)" opacity="0.130" /><ellipse cx="1536.0" cy="1663.0" rx="780.6" ry="642.1" fill="url(#extrude14)" opacity="0.115" /><ellipse cx="1536.0" cy="1678.8" rx="788.0" ry="647.4" fill="url(#extrude14)" opacity="0.100" /><ellipse cx="1536.0" cy="1694.7" rx="795.5" ry="652.6" fill="url(#extrude14)" opacity="0.085" /><ellipse cx="1536.0" cy="1710.6" rx="802.9" ry="657.8" fill="url(#extrude14)" opacity="0.070" /><ellipse cx="1536.0" cy="1726.5" rx="810.3" ry="663.0" fill="url(#extrude14)" opacity="0.055" /></g>
  <ellipse cx="1536.0" cy="1726.5" rx="773.2" ry="214.9" fill="#0B1D2D" opacity="0.24" />
  <ellipse cx="1536.0" cy="1536.0" rx="743.4" ry="651.3" fill="url(#orb14)" stroke="#FFFFFF" stroke-opacity="0.42" stroke-width="7" />
  <ellipse cx="1431.9" cy="1392.7" rx="505.5" ry="299.6" fill="#FFFFFF" opacity="0.25" />
  <path d="M 199.4 399.4 C 1013.8 -30.7, 2058.2 768.0, 2872.6 215.0 L 2872.6 983.0 C 2089.0 1228.8, 1013.8 307.2, 199.4 1167.4 Z" fill="url(#glass14)" />
  <rect x="270" y="270" width="2532" height="2532" rx="430" fill="none" stroke="#FFFFFF" stroke-opacity="0.30" stroke-width="5" />
  <rect x="288.4" y="288.4" width="2495.1" height="2495.1" rx="399" fill="none" stroke="#36D1FF" stroke-opacity="0.35" stroke-width="3" />
  <g filter="url(#soft14)"><rect x="2074" y="1896" width="82" height="2" fill="#FFFFFF" opacity="0.457" /><rect x="2114" y="1856" width="2" height="82" fill="#FFFFFF" opacity="0.457" /><rect x="2404" y="1701" width="80" height="2" fill="#FFFFFF" opacity="0.447" /><rect x="2443" y="1662" width="2" height="80" fill="#FFFFFF" opacity="0.447" /><rect x="2152" y="1318" width="82" height="2" fill="#FFFFFF" opacity="0.460" /><rect x="2192" y="1278" width="2" height="82" fill="#FFFFFF" opacity="0.460" /><rect x="1199" y="815" width="46" height="2" fill="#FFFFFF" opacity="0.518" /><rect x="1221" y="793" width="2" height="46" fill="#FFFFFF" opacity="0.518" /><rect x="531" y="1648" width="58" height="2" fill="#FFFFFF" opacity="0.515" /><rect x="559" y="1620" width="2" height="58" fill="#FFFFFF" opacity="0.515" /><rect x="834" y="1131" width="68" height="2" fill="#FFFFFF" opacity="0.412" /><rect x="867" y="1098" width="2" height="68" fill="#FFFFFF" opacity="0.412" /><rect x="1612" y="2583" width="32" height="2" fill="#FFFFFF" opacity="0.503" /><rect x="1627" y="2568" width="2" height="32" fill="#FFFFFF" opacity="0.503" /><rect x="901" y="1818" width="70" height="2" fill="#FFFFFF" opacity="0.667" /><rect x="935" y="1784" width="2" height="70" fill="#FFFFFF" opacity="0.667" /><rect x="1409" y="1981" width="62" height="2" fill="#FFFFFF" opacity="0.394" /><rect x="1439" y="1951" width="2" height="62" fill="#FFFFFF" opacity="0.394" /><rect x="879" y="1021" width="60" height="2" fill="#FFFFFF" opacity="0.425" /><rect x="908" y="992" width="2" height="60" fill="#FFFFFF" opacity="0.425" /><rect x="1921" y="2560" width="34" height="2" fill="#FFFFFF" opacity="0.377" /><rect x="1937" y="2544" width="2" height="34" fill="#FFFFFF" opacity="0.377" /><rect x="341" y="738" width="72" height="2" fill="#FFFFFF" opacity="0.605" /><rect x="376" y="703" width="2" height="72" fill="#FFFFFF" opacity="0.605" /><rect x="817" y="1117" width="48" height="2" fill="#FFFFFF" opacity="0.754" /><rect x="840" y="1094" width="2" height="48" fill="#FFFFFF" opacity="0.754" /><rect x="2502" y="1795" width="52" height="2" fill="#FFFFFF" opacity="0.783" /><rect x="2527" y="1770" width="2" height="52" fill="#FFFFFF" opacity="0.783" /><rect x="2409" y="577" width="68" height="2" fill="#FFFFFF" opacity="0.481" /><rect x="2442" y="544" width="2" height="68" fill="#FFFFFF" opacity="0.481" /><rect x="776" y="1483" width="30" height="2" fill="#FFFFFF" opacity="0.783" /><rect x="790" y="1469" width="2" height="30" fill="#FFFFFF" opacity="0.783" /><rect x="1496" y="2046" width="34" height="2" fill="#FFFFFF" opacity="0.432" /><rect x="1512" y="2030" width="2" height="34" fill="#FFFFFF" opacity="0.432" /><rect x="1510" y="1439" width="38" height="2" fill="#FFFFFF" opacity="0.377" /><rect x="1528" y="1421" width="2" height="38" fill="#FFFFFF" opacity="0.377" /><rect x="679" y="2064" width="50" height="2" fill="#FFFFFF" opacity="0.365" /><rect x="703" y="2040" width="2" height="50" fill="#FFFFFF" opacity="0.365" /><rect x="2143" y="564" width="72" height="2" fill="#FFFFFF" opacity="0.399" /><rect x="2178" y="529" width="2" height="72" fill="#FFFFFF" opacity="0.399" /><rect x="1045" y="2604" width="36" height="2" fill="#FFFFFF" opacity="0.599" /><rect x="1062" y="2587" width="2" height="36" fill="#FFFFFF" opacity="0.599" /><rect x="388" y="697" width="54" height="2" fill="#FFFFFF" opacity="0.306" /><rect x="414" y="671" width="2" height="54" fill="#FFFFFF" opacity="0.306" /><rect x="831" y="1080" width="74" height="2" fill="#FFFFFF" opacity="0.697" /><rect x="867" y="1044" width="2" height="74" fill="#FFFFFF" opacity="0.697" /><rect x="1520" y="2367" width="82" height="2" fill="#FFFFFF" opacity="0.464" /><rect x="1560" y="2327" width="2" height="82" fill="#FFFFFF" opacity="0.464" /><rect x="2792" y="666" width="50" height="2" fill="#FFFFFF" opacity="0.667" /><rect x="2816" y="642" width="2" height="50" fill="#FFFFFF" opacity="0.667" /><rect x="1600" y="708" width="50" height="2" fill="#FFFFFF" opacity="0.330" /><rect x="1624" y="684" width="2" height="50" fill="#FFFFFF" opacity="0.330" /></g>
  <g opacity="0.52"><path d="M996 1582 L1316 2131 L2148 1121" fill="none" stroke="#0C2030" stroke-width="90" stroke-linecap="round" stroke-linejoin="round" /><circle cx="996" cy="1582" r="47" fill="#0C2030" /><circle cx="1316" cy="2131" r="47" fill="#0C2030" /><circle cx="2148" cy="1121" r="47" fill="#0C2030" /></g>
  <g filter="url(#soft14)"><path d="M960 1536 L1280 2085 L2112 1075" fill="none" stroke="url(#symbol14)" stroke-width="90" stroke-linecap="round" stroke-linejoin="round" /><circle cx="960" cy="1536" r="47" fill="url(#symbol14)" /><circle cx="1280" cy="2085" r="47" fill="url(#symbol14)" /><circle cx="2112" cy="1075" r="47" fill="url(#symbol14)" /></g>
  <rect x="138" y="138" width="2796" height="2796" rx="629" fill="#FFFFFF" filter="url(#grain14)" opacity="0.18" />
</svg>
