<svg xmlns="http://www.w3.org/2000/svg" width="3072" height="3072" viewBox="0 0 3072 3072">
  <title>QuartzOS App Icon 275 - solid_browser_275</title>
  <defs><linearGradient id="bg274" x1="0%" y1="0%" x2="100%" y2="100%"><stop offset="0%" stop-color="#3B82FF" /><stop offset="26%" stop-color="#FF6AB3" /><stop offset="56%" stop-color="#FFD84D" /><stop offset="78%" stop-color="#58A3D8" /><stop offset="100%" stop-color="#1D2F45" /></linearGradient><radialGradient id="sun274" cx="24%" cy="22%" r="88%"><stop offset="0%" stop-color="#FFFFFF" stop-opacity="0.62" /><stop offset="30%" stop-color="#53E3A6" stop-opacity="0.35" /><stop offset="100%" stop-color="#53E3A6" stop-opacity="0" /></radialGradient><linearGradient id="glass274" x1="0%" y1="0%" x2="0%" y2="100%"><stop offset="0%" stop-color="#FFFFFF" stop-opacity="0.70" /><stop offset="46%" stop-color="#FFFFFF" stop-opacity="0.26" /><stop offset="100%" stop-color="#FFFFFF" stop-opacity="0.00" /></linearGradient><linearGradient id="ribbon274" x1="0%" y1="0%" x2="100%" y2="0%"><stop offset="0%" stop-color="#3B82FF" stop-opacity="0.18" /><stop offset="34%" stop-color="#FF6AB3" stop-opacity="0.72" /><stop offset="66%" stop-color="#FFD84D" stop-opacity="0.72" /><stop offset="100%" stop-color="#53E3A6" stop-opacity="0.18" /></linearGradient><radialGradient id="orb274" cx="34%" cy="27%" r="74%"><stop offset="0%" stop-color="#FFFFFF" stop-opacity="0.84" /><stop offset="30%" stop-color="#3B82FF" stop-opacity="0.52" /><stop offset="68%" stop-color="#FF6AB3" stop-opacity="0.42" /><stop offset="100%" stop-color="#FFD84D" stop-opacity="0.20" /></radialGradient><linearGradient id="extrude274" x1="0%" y1="0%" x2="0%" y2="100%"><stop offset="0%" stop-color="#15283C" stop-opacity="0.45" /><stop offset="100%" stop-color="#08131D" stop-opacity="0.06" /></linearGradient><linearGradient id="symbol274" x1="0%" y1="0%" x2="100%" y2="100%"><stop offset="0%" stop-color="#FFFFFF" /><stop offset="100%" stop-color="#53E3A6" /></linearGradient><filter id="shadow274" x="-40%" y="-40%" width="180%" height="180%"><feDropShadow dx="0" dy="49" stdDeviation="86" flood-color="#06111A" flood-opacity="0.54" /></filter><filter id="soft274" x="-40%" y="-40%" width="180%" height="180%"><feDropShadow dx="0" dy="0" stdDeviation="14" flood-color="#3B82FF" flood-opacity="0.45" /></filter><filter id="grain274"><feTurbulence type="fractalNoise" baseFrequency="0.794" numOctaves="2" seed="274" /><feColorMatrix type="saturate" values="0" /><feComponentTransfer><feFuncA type="table" tableValues="0 0.09" /></feComponentTransfer></filter></defs>
  <rect x="138" y="138" width="2796" height="2796" rx="629" fill="url(#bg274)" filter="url(#shadow274)" />
  <rect x="138" y="138" width="2796" height="2796" rx="629" fill="url(#sun274)" />
  <g><circle cx="1263" cy="2436" r="61" fill="#FFFFFF" opacity="0.097" /><circle cx="2507" cy="1563" r="64" fill="#FFFFFF" opacity="0.163" /><circle cx="1027" cy="2169" r="159" fill="#FFFFFF" opacity="0.111" /><circle cx="1987" cy="1776" r="146" fill="#FFFFFF" opacity="0.102" /><circle cx="1719" cy="319" r="141" fill="#FFFFFF" opacity="0.191" /><circle cx="1418" cy="1641" r="40" fill="#FFFFFF" opacity="0.091" /><circle cx="857" cy="1089" r="89" fill="#FFFFFF" opacity="0.170" /><circle cx="2206" cy="1339" r="63" fill="#FFFFFF" opacity="0.203" /><circle cx="932" cy="914" r="91" fill="#FFFFFF" opacity="0.191" /><circle cx="2066" cy="1118" r="48" fill="#FFFFFF" opacity="0.228" /><circle cx="2616" cy="1023" r="142" fill="#FFFFFF" opacity="0.213" /><circle cx="569" cy="1054" r="47" fill="#FFFFFF" opacity="0.069" /><circle cx="474" cy="392" r="113" fill="#FFFFFF" opacity="0.117" /><circle cx="2500" cy="363" r="122" fill="#FFFFFF" opacity="0.182" /><circle cx="2148" cy="2612" r="154" fill="#FFFFFF" opacity="0.225" /><circle cx="2694" cy="1058" r="74" fill="#FFFFFF" opacity="0.103" /><circle cx="1008" cy="757" r="63" fill="#FFFFFF" opacity="0.072" /><circle cx="1354" cy="1569" r="106" fill="#FFFFFF" opacity="0.083" /><circle cx="2635" cy="2522" r="74" fill="#FFFFFF" opacity="0.121" /><circle cx="851" cy="1896" r="83" fill="#FFFFFF" opacity="0.086" /><circle cx="2433" cy="2210" r="125" fill="#FFFFFF" opacity="0.112" /><circle cx="2662" cy="1122" r="84" fill="#FFFFFF" opacity="0.098" /><circle cx="730" cy="2578" r="36" fill="#FFFFFF" opacity="0.160" /><circle cx="2123" cy="1671" r="45" fill="#FFFFFF" opacity="0.135" /><circle cx="1693" cy="2698" r="151" fill="#FFFFFF" opacity="0.125" /><circle cx="1999" cy="1127" r="83" fill="#FFFFFF" opacity="0.128" /><circle cx="711" cy="2129" r="57" fill="#FFFFFF" opacity="0.101" /><circle cx="532" cy="388" r="155" fill="#FFFFFF" opacity="0.220" /></g>
  <g><path d="M 347.2 643.3 L 2799.2 366.9 L 2799.2 789.4 L 347.2 1065.9 Z" fill="#FFFFFF" opacity="0.098" /><path d="M 366.6 885.9 L 2902.8 609.4 L 2902.8 1035.9 L 366.6 1312.4 Z" fill="#FFFFFF" opacity="0.219" /><path d="M 280.6 1143.9 L 2697.4 867.4 L 2697.4 1338.4 L 280.6 1614.9 Z" fill="#FFFFFF" opacity="0.085" /><path d="M 386.4 1431.5 L 2910.9 1155.0 L 2910.9 1605.8 L 386.4 1882.3 Z" fill="#FFFFFF" opacity="0.213" /><path d="M 206.6 1637.6 L 2903.5 1361.1 L 2903.5 1797.7 L 206.6 2074.2 Z" fill="#FFFFFF" opacity="0.175" /><path d="M 187.4 1907.8 L 2814.7 1631.3 L 2814.7 2065.5 L 187.4 2342.0 Z" fill="#FFFFFF" opacity="0.159" /><path d="M 263.4 2152.7 L 2757.6 1876.2 L 2757.6 2340.4 L 263.4 2616.9 Z" fill="#FFFFFF" opacity="0.191" /><path d="M 337.5 2408.9 L 2715.6 2132.4 L 2715.6 2603.6 L 337.5 2880.0 Z" fill="#FFFFFF" opacity="0.118" /></g>
  <g filter="url(#soft274)"><g transform="rotate(-11.72 1536.0 1536.0)"><path d="M-368.6 554.0 C -225.8 520.4, -25.8 580.2, 107.5 498.9 C 250.4 486.7, 450.4 613.4, 583.7 512.1 C 726.5 497.4, 926.5 570.7, 1059.8 550.7 C 1202.7 551.4, 1402.7 557.6, 1536.0 591.3 C 1678.8 599.1, 1878.8 513.9, 2012.2 609.3 C 2155.0 626.3, 2355.0 528.9, 2488.3 593.7 C 2631.2 596.2, 2831.2 517.5, 2964.5 554.1 C 3107.3 554.1, 3307.3 553.9, 3440.6 514.4" fill="none" stroke="url(#ribbon274)" stroke-width="58.4" stroke-linecap="round" stroke-opacity="0.120" /></g><g transform="rotate(-11.14 1536.0 1536.0)"><path d="M-368.6 769.9 C -241.7 704.5, -63.9 811.3, 54.6 709.0 C 181.6 688.3, 359.4 823.7, 477.9 737.2 C 604.8 736.3, 782.6 793.9, 901.1 785.2 C 1028.1 780.4, 1205.9 759.0, 1324.4 823.9 C 1451.3 822.2, 1629.1 715.0, 1747.6 829.8 C 1874.6 853.5, 2052.4 702.0, 2170.9 799.3 C 2297.9 790.1, 2475.6 737.2, 2594.1 751.0 C 2721.1 751.5, 2898.9 777.0, 3017.4 714.1 C 3144.4 701.8, 3322.1 805.4, 3440.6 711.0" fill="none" stroke="url(#ribbon274)" stroke-width="54.4" stroke-linecap="round" stroke-opacity="0.146" /></g><g transform="rotate(-10.56 1536.0 1536.0)"><path d="M-368.6 949.6 C -254.4 983.9, -94.4 892.4, 12.3 956.1 C 126.6 956.2, 286.6 946.4, 393.2 904.6 C 507.5 917.7, 667.5 996.3, 774.1 880.4 C 888.4 873.9, 1048.4 974.4, 1155.1 898.2 C 1269.4 902.3, 1429.3 1005.9, 1536.0 947.2 C 1650.3 947.0, 1810.3 952.5, 1916.9 997.7 C 2031.2 996.9, 2191.2 906.4, 2297.9 1019.1 C 2412.1 996.7, 2572.1 877.4, 2678.8 998.3 C 2793.1 981.4, 2953.1 917.9, 3059.7 948.0 C 3174.0 947.9, 3334.0 951.1, 3440.6 898.7" fill="none" stroke="url(#ribbon274)" stroke-width="50.4" stroke-linecap="round" stroke-opacity="0.172" /></g><g transform="rotate(-9.98 1536.0 1536.0)"><path d="M-368.6 1073.3 C -264.8 1072.8, -119.3 1073.8, -22.3 1127.8 C 81.5 1143.7, 227.0 1050.3, 324.0 1149.8 C 427.8 1137.7, 573.3 1022.9, 670.3 1125.4 C 774.1 1114.5, 919.6 1033.9, 1016.6 1069.5 C 1120.4 1069.3, 1265.9 1077.5, 1362.9 1015.8 C 1466.7 1016.8, 1612.2 1109.5, 1709.1 997.1 C 1813.0 993.2, 1958.5 1103.8, 2055.4 1024.6 C 2159.3 1041.8, 2304.8 1094.2, 2401.7 1081.7 C 2505.6 1084.2, 2651.1 1066.2, 2748.0 1133.7 C 2851.9 1119.7, 2997.4 1028.2, 3094.3 1149.1 C 3198.2 1136.4, 3343.7 1032.2, 3440.6 1118.6" fill="none" stroke="url(#ribbon274)" stroke-width="46.4" stroke-linecap="round" stroke-opacity="0.198" /></g><g transform="rotate(-9.40 1536.0 1536.0)"><path d="M-368.6 1315.8 C -273.4 1404.4, -140.1 1249.1, -51.2 1348.7 C 44.0 1349.3, 177.4 1295.8, 266.2 1283.7 C 361.5 1285.9, 494.8 1351.3, 583.7 1238.1 C 678.9 1240.1, 812.2 1384.4, 901.1 1239.7 C 996.4 1234.3, 1129.7 1359.3, 1218.6 1287.4 C 1313.8 1289.2, 1447.1 1347.8, 1536.0 1352.4 C 1631.2 1346.3, 1764.6 1287.7, 1853.4 1395.2 C 1948.7 1391.9, 2082.0 1266.6, 2170.9 1389.8 C 2266.1 1416.0, 2399.4 1256.8, 2488.3 1339.6 C 2583.6 1341.9, 2716.9 1291.7, 2805.8 1274.9 C 2901.0 1277.8, 3034.3 1339.1, 3123.2 1235.0 C 3218.4 1207.6, 3351.8 1346.1, 3440.6 1244.2" fill="none" stroke="url(#ribbon274)" stroke-width="42.4" stroke-linecap="round" stroke-opacity="0.224" /></g><g transform="rotate(-8.82 1536.0 1536.0)"><path d="M-368.6 1458.6 C -225.8 1440.1, -25.8 1464.4, 107.5 1382.6 C 250.4 1389.3, 450.4 1488.3, 583.7 1370.3 C 726.5 1388.8, 926.5 1515.9, 1059.8 1411.6 C 1202.7 1424.9, 1402.7 1497.4, 1536.0 1481.4 C 1678.8 1476.0, 1878.8 1438.4, 2012.2 1537.4 C 2155.0 1525.3, 2355.0 1385.3, 2488.3 1545.7 C 2631.2 1525.0, 2831.2 1374.1, 2964.5 1501.1 C 3107.3 1506.4, 3307.3 1438.1, 3440.6 1430.8" fill="none" stroke="url(#ribbon274)" stroke-width="38.4" stroke-linecap="round" stroke-opacity="0.250" /></g><g transform="rotate(-8.24 1536.0 1536.0)"><path d="M-368.6 1698.6 C -241.7 1616.0, -63.9 1731.8, 54.6 1617.4 C 181.6 1624.6, 359.4 1733.7, 477.9 1681.0 C 604.8 1678.4, 782.6 1705.3, 901.1 1755.3 C 1028.1 1754.9, 1205.9 1636.2, 1324.4 1795.1 C 1451.3 1808.1, 1629.1 1618.8, 1747.6 1776.5 C 1874.6 1758.1, 2052.4 1659.8, 2170.9 1710.5 C 2297.9 1714.3, 2475.6 1692.6, 2594.1 1637.3 C 2721.1 1647.8, 2898.9 1753.1, 3017.4 1601.3 C 3144.4 1575.7, 3322.1 1778.7, 3440.6 1624.3" fill="none" stroke="url(#ribbon274)" stroke-width="34.4" stroke-linecap="round" stroke-opacity="0.276" /></g><g transform="rotate(-7.66 1536.0 1536.0)"><path d="M-368.6 1914.4 C -254.4 1873.7, -94.4 1924.5, 12.3 1964.2 C 126.6 1958.4, 286.6 1897.6, 393.2 2015.2 C 507.5 1990.3, 667.5 1827.0, 774.1 2005.0 C 888.4 2026.0, 1048.4 1810.2, 1155.1 1939.8 C 1269.4 1942.0, 1429.3 1893.3, 1536.0 1859.2 C 1650.3 1846.9, 1810.3 1975.7, 1916.9 1812.0 C 2031.2 1780.0, 2191.2 1955.2, 2297.9 1826.9 C 2412.1 1809.7, 2572.1 1960.4, 2678.8 1894.9 C 2793.1 1898.4, 2953.1 1936.6, 3059.7 1974.6 C 3174.0 1953.9, 3334.0 1852.6, 3440.6 2017.8" fill="none" stroke="url(#ribbon274)" stroke-width="30.4" stroke-linecap="round" stroke-opacity="0.302" /></g><g transform="rotate(-7.08 1536.0 1536.0)"><path d="M-368.6 2011.3 C -264.8 1893.5, -119.3 2121.6, -22.3 1943.0 C 81.5 1951.4, 227.0 2056.7, 324.0 2027.2 C 427.8 2029.2, 573.3 2000.2, 670.3 2101.8 C 774.1 2074.3, 919.6 1956.3, 1016.6 2121.4 C 1120.4 2134.2, 1265.9 1959.1, 1362.9 2074.2 C 1466.7 2049.3, 1612.2 1990.4, 1709.1 1988.9 C 1813.0 1994.5, 1958.5 2029.9, 2055.4 1917.1 C 2159.3 1951.8, 2304.8 2060.1, 2401.7 1902.4 C 2505.6 1880.2, 2651.1 2095.7, 2748.0 1953.8 C 2851.9 1936.8, 2997.4 2029.7, 3094.3 2040.0 C 3198.2 2043.2, 3343.7 1983.6, 3440.6 2108.8" fill="none" stroke="url(#ribbon274)" stroke-width="26.4" stroke-linecap="round" stroke-opacity="0.328" /></g><g transform="rotate(-6.50 1536.0 1536.0)"><path d="M-368.6 2206.4 C -273.4 2347.9, -140.1 2157.2, -51.2 2242.5 C 44.0 2229.3, 177.4 2186.2, 266.2 2150.3 C 361.5 2159.8, 494.8 2227.6, 583.7 2092.1 C 678.9 2117.8, 812.2 2310.1, 901.1 2103.2 C 996.4 2069.2, 1129.7 2292.2, 1218.6 2176.9 C 1313.8 2178.0, 1447.1 2216.2, 1536.0 2268.5 C 1631.2 2263.9, 1764.6 2169.5, 1853.4 2322.4 C 1948.7 2309.2, 2082.0 2117.9, 2170.9 2305.9 C 2266.1 2326.0, 2399.4 2137.0, 2488.3 2229.1 C 2583.6 2229.8, 2716.9 2190.5, 2805.8 2138.5 C 2901.0 2119.4, 3034.3 2276.0, 3123.2 2089.1 C 3218.4 2051.6, 3351.8 2254.4, 3440.6 2110.8" fill="none" stroke="url(#ribbon274)" stroke-width="22.4" stroke-linecap="round" stroke-opacity="0.354" /></g><g transform="rotate(-5.92 1536.0 1536.0)"><path d="M-368.6 2498.1 C -225.8 2540.0, -25.8 2463.5, 107.5 2454.7 C 250.4 2457.6, 450.4 2525.2, 583.7 2383.1 C 726.5 2394.3, 926.5 2619.6, 1059.8 2381.2 C 1202.7 2336.4, 1402.7 2594.9, 1536.0 2450.2 C 1678.8 2463.9, 1878.8 2518.0, 2012.2 2548.3 C 2155.0 2529.3, 2355.0 2452.9, 2488.3 2616.0 C 2631.2 2579.4, 2831.2 2447.6, 2964.5 2612.1 C 3107.3 2593.9, 3307.3 2445.3, 3440.6 2539.1" fill="none" stroke="url(#ribbon274)" stroke-width="18.4" stroke-linecap="round" stroke-opacity="0.380" /></g><g transform="rotate(-5.34 1536.0 1536.0)"><path d="M-368.6 2637.8 C -241.7 2766.6, -63.9 2588.3, 54.6 2659.8 C 181.6 2654.7, 359.4 2616.2, 477.9 2559.0 C 604.8 2538.8, 782.6 2673.5, 901.1 2506.0 C 1028.1 2527.5, 1205.9 2780.6, 1324.4 2532.9 C 1451.3 2535.8, 1629.1 2721.7, 1747.6 2623.5 C 1874.6 2618.9, 2052.4 2653.2, 2170.9 2722.7 C 2297.9 2753.0, 2475.6 2596.0, 2594.1 2770.4 C 2721.1 2793.2, 2898.9 2510.0, 3017.4 2737.7 C 3144.4 2759.4, 3322.1 2533.8, 3440.6 2644.3" fill="none" stroke="url(#ribbon274)" stroke-width="14.4" stroke-linecap="round" stroke-opacity="0.406" /></g></g>
  <g><ellipse cx="1536.0" cy="1551.9" rx="728.6" ry="605.7" fill="url(#extrude274)" opacity="0.220" /><ellipse cx="1536.0" cy="1567.7" rx="736.0" ry="610.9" fill="url(#extrude274)" opacity="0.205" /><ellipse cx="1536.0" cy="1583.6" rx="743.4" ry="616.1" fill="url(#extrude274)" opacity="0.190" /><ellipse cx="1536.0" cy="1599.5" rx="750.9" ry="621.3" fill="url(#extrude274)" opacity="0.175" /><ellipse cx="1536.0" cy="1615.4" rx="758.3" ry="626.5" fill="url(#extrude274)" opacity="0.160" /><ellipse cx="1536.0" cy="1631.2" rx="765.7" ry="631.7" fill="url(#extrude274)" opacity="0.145" /><ellipse cx="1536.0" cy="1647.1" rx="773.2" ry="636.9" fill="url(#extrude274)" opacity="0.130" /><ellipse cx="1536.0" cy="1663.0" rx="780.6" ry="642.1" fill="url(#extrude274)" opacity="0.115" /><ellipse cx="1536.0" cy="1678.8" rx="788.0" ry="647.4" fill="url(#extrude274)" opacity="0.100" /><ellipse cx="1536.0" cy="1694.7" rx="795.5" ry="652.6" fill="url(#extrude274)" opacity="0.085" /><ellipse cx="1536.0" cy="1710.6" rx="802.9" ry="657.8" fill="url(#extrude274)" opacity="0.070" /><ellipse cx="1536.0" cy="1726.5" rx="810.3" ry="663.0" fill="url(#extrude274)" opacity="0.055" /></g>
  <ellipse cx="1536.0" cy="1726.5" rx="773.2" ry="214.9" fill="#0B1D2D" opacity="0.24" />
  <ellipse cx="1536.0" cy="1536.0" rx="743.4" ry="651.3" fill="url(#orb274)" stroke="#FFFFFF" stroke-opacity="0.42" stroke-width="7" />
  <ellipse cx="1431.9" cy="1392.7" rx="505.5" ry="299.6" fill="#FFFFFF" opacity="0.25" />
  <path d="M 199.4 399.4 C 1013.8 -30.7, 2058.2 768.0, 2872.6 215.0 L 2872.6 983.0 C 2089.0 1228.8, 1013.8 307.2, 199.4 1167.4 Z" fill="url(#glass274)" />
  <rect x="270" y="270" width="2532" height="2532" rx="430" fill="none" stroke="#FFFFFF" stroke-opacity="0.30" stroke-width="5" />
  <rect x="288.4" y="288.4" width="2495.1" height="2495.1" rx="399" fill="none" stroke="#3B82FF" stroke-opacity="0.35" stroke-width="3" />
  <g filter="url(#soft274)"><rect x="632" y="1055" width="70" height="2" fill="#FFFFFF" opacity="0.443" /><rect x="666" y="1021" width="2" height="70" fill="#FFFFFF" opacity="0.443" /><rect x="1707" y="748" width="32" height="2" fill="#FFFFFF" opacity="0.781" /><rect x="1722" y="733" width="2" height="32" fill="#FFFFFF" opacity="0.781" /><rect x="1837" y="307" width="26" height="2" fill="#FFFFFF" opacity="0.675" /><rect x="1849" y="295" width="2" height="26" fill="#FFFFFF" opacity="0.675" /><rect x="1961" y="2342" width="38" height="2" fill="#FFFFFF" opacity="0.686" /><rect x="1979" y="2324" width="2" height="38" fill="#FFFFFF" opacity="0.686" /><rect x="2629" y="853" width="38" height="2" fill="#FFFFFF" opacity="0.845" /><rect x="2647" y="835" width="2" height="38" fill="#FFFFFF" opacity="0.845" /><rect x="2624" y="1971" width="30" height="2" fill="#FFFFFF" opacity="0.364" /><rect x="2638" y="1957" width="2" height="30" fill="#FFFFFF" opacity="0.364" /><rect x="899" y="426" width="38" height="2" fill="#FFFFFF" opacity="0.352" /><rect x="917" y="408" width="2" height="38" fill="#FFFFFF" opacity="0.352" /><rect x="2302" y="1511" width="74" height="2" fill="#FFFFFF" opacity="0.328" /><rect x="2338" y="1475" width="2" height="74" fill="#FFFFFF" opacity="0.328" /><rect x="561" y="2630" width="66" height="2" fill="#FFFFFF" opacity="0.373" /><rect x="593" y="2598" width="2" height="66" fill="#FFFFFF" opacity="0.373" /><rect x="571" y="270" width="46" height="2" fill="#FFFFFF" opacity="0.532" /><rect x="593" y="248" width="2" height="46" fill="#FFFFFF" opacity="0.532" /><rect x="2081" y="725" width="58" height="2" fill="#FFFFFF" opacity="0.780" /><rect x="2109" y="697" width="2" height="58" fill="#FFFFFF" opacity="0.780" /><rect x="559" y="894" width="26" height="2" fill="#FFFFFF" opacity="0.602" /><rect x="571" y="882" width="2" height="26" fill="#FFFFFF" opacity="0.602" /><rect x="1144" y="1882" width="32" height="2" fill="#FFFFFF" opacity="0.660" /><rect x="1159" y="1867" width="2" height="32" fill="#FFFFFF" opacity="0.660" /><rect x="2550" y="318" width="70" height="2" fill="#FFFFFF" opacity="0.380" /><rect x="2584" y="284" width="2" height="70" fill="#FFFFFF" opacity="0.380" /><rect x="838" y="1208" width="26" height="2" fill="#FFFFFF" opacity="0.806" /><rect x="850" y="1196" width="2" height="26" fill="#FFFFFF" opacity="0.806" /><rect x="872" y="1032" width="32" height="2" fill="#FFFFFF" opacity="0.777" /><rect x="887" y="1017" width="2" height="32" fill="#FFFFFF" opacity="0.777" /><rect x="1947" y="1273" width="28" height="2" fill="#FFFFFF" opacity="0.455" /><rect x="1960" y="1260" width="2" height="28" fill="#FFFFFF" opacity="0.455" /><rect x="1385" y="2343" width="56" height="2" fill="#FFFFFF" opacity="0.529" /><rect x="1412" y="2316" width="2" height="56" fill="#FFFFFF" opacity="0.529" /><rect x="1520" y="1568" width="62" height="2" fill="#FFFFFF" opacity="0.396" /><rect x="1550" y="1538" width="2" height="62" fill="#FFFFFF" opacity="0.396" /><rect x="2477" y="1879" width="66" height="2" fill="#FFFFFF" opacity="0.426" /><rect x="2509" y="1847" width="2" height="66" fill="#FFFFFF" opacity="0.426" /><rect x="2413" y="712" width="42" height="2" fill="#FFFFFF" opacity="0.333" /><rect x="2433" y="692" width="2" height="42" fill="#FFFFFF" opacity="0.333" /><rect x="1637" y="2284" width="48" height="2" fill="#FFFFFF" opacity="0.684" /><rect x="1660" y="2261" width="2" height="48" fill="#FFFFFF" opacity="0.684" /><rect x="721" y="1340" width="80" height="2" fill="#FFFFFF" opacity="0.401" /><rect x="760" y="1301" width="2" height="80" fill="#FFFFFF" opacity="0.401" /><rect x="428" y="438" width="68" height="2" fill="#FFFFFF" opacity="0.840" /><rect x="461" y="405" width="2" height="68" fill="#FFFFFF" opacity="0.840" /><rect x="2073" y="2551" width="68" height="2" fill="#FFFFFF" opacity="0.805" /><rect x="2106" y="2518" width="2" height="68" fill="#FFFFFF" opacity="0.805" /><rect x="305" y="2026" width="40" height="2" fill="#FFFFFF" opacity="0.496" /><rect x="324" y="2007" width="2" height="40" fill="#FFFFFF" opacity="0.496" /></g>
  <g opacity="0.52"><path d="M996 1582 C1316 1006, 1572 2158, 2148 1582" fill="none" stroke="#0C2030" stroke-width="90" /><circle cx="1188" cy="1582" r="109" fill="#0C2030" /><circle cx="1572" cy="1582" r="109" fill="#0C2030" /><circle cx="1956" cy="1582" r="109" fill="#0C2030" /></g>
  <g filter="url(#soft274)"><path d="M960 1536 C1280 960, 1536 2112, 2112 1536" fill="none" stroke="url(#symbol274)" stroke-width="90" /><circle cx="1152" cy="1536" r="109" fill="url(#symbol274)" /><circle cx="1536" cy="1536" r="109" fill="url(#symbol274)" /><circle cx="1920" cy="1536" r="109" fill="url(#symbol274)" /></g>
  <rect x="138" y="138" width="2796" height="2796" rx="629" fill="#FFFFFF" filter="url(#grain274)" opacity="0.18" />
</svg>
