<svg xmlns="http://www.w3.org/2000/svg" width="3072" height="3072" viewBox="0 0 3072 3072">
  <title>QuartzOS App Icon 075 - solid_player_075</title>
  <defs><linearGradient id="bg74" x1="0%" y1="0%" x2="100%" y2="100%"><stop offset="0%" stop-color="#FF9F43" /><stop offset="26%" stop-color="#53E3A6" /><stop offset="56%" stop-color="#3B82FF" /><stop offset="78%" stop-color="#5E86C9" /><stop offset="100%" stop-color="#1C2435" /></linearGradient><radialGradient id="sun74" cx="30%" cy="13%" r="88%"><stop offset="0%" stop-color="#FFFFFF" stop-opacity="0.62" /><stop offset="30%" stop-color="#8A5CFF" stop-opacity="0.35" /><stop offset="100%" stop-color="#8A5CFF" stop-opacity="0" /></radialGradient><linearGradient id="glass74" x1="0%" y1="0%" x2="0%" y2="100%"><stop offset="0%" stop-color="#FFFFFF" stop-opacity="0.70" /><stop offset="46%" stop-color="#FFFFFF" stop-opacity="0.26" /><stop offset="100%" stop-color="#FFFFFF" stop-opacity="0.00" /></linearGradient><linearGradient id="ribbon74" x1="0%" y1="0%" x2="100%" y2="0%"><stop offset="0%" stop-color="#FF9F43" stop-opacity="0.18" /><stop offset="34%" stop-color="#53E3A6" stop-opacity="0.72" /><stop offset="66%" stop-color="#3B82FF" stop-opacity="0.72" /><stop offset="100%" stop-color="#8A5CFF" stop-opacity="0.18" /></linearGradient><radialGradient id="orb74" cx="34%" cy="27%" r="74%"><stop offset="0%" stop-color="#FFFFFF" stop-opacity="0.84" /><stop offset="30%" stop-color="#FF9F43" stop-opacity="0.52" /><stop offset="68%" stop-color="#53E3A6" stop-opacity="0.42" /><stop offset="100%" stop-color="#3B82FF" stop-opacity="0.20" /></radialGradient><linearGradient id="extrude74" x1="0%" y1="0%" x2="0%" y2="100%"><stop offset="0%" stop-color="#15283C" stop-opacity="0.45" /><stop offset="100%" stop-color="#08131D" stop-opacity="0.06" /></linearGradient><linearGradient id="symbol74" x1="0%" y1="0%" x2="100%" y2="100%"><stop offset="0%" stop-color="#FFFFFF" /><stop offset="100%" stop-color="#8A5CFF" /></linearGradient><filter id="shadow74" x="-40%" y="-40%" width="180%" height="180%"><feDropShadow dx="0" dy="49" stdDeviation="86" flood-color="#06111A" flood-opacity="0.54" /></filter><filter id="soft74" x="-40%" y="-40%" width="180%" height="180%"><feDropShadow dx="0" dy="0" stdDeviation="14" flood-color="#FF9F43" flood-opacity="0.45" /></filter><filter id="grain74"><feTurbulence type="fractalNoise" baseFrequency="1.062" numOctaves="2" seed="74" /><feColorMatrix type="saturate" values="0" /><feComponentTransfer><feFuncA type="table" tableValues="0 0.09" /></feComponentTransfer></filter></defs>
  <rect x="138" y="138" width="2796" height="2796" rx="629" fill="url(#bg74)" filter="url(#shadow74)" />
  <rect x="138" y="138" width="2796" height="2796" rx="629" fill="url(#sun74)" />
  <g><circle cx="1593" cy="1479" r="92" fill="#FFFFFF" opacity="0.166" /><circle cx="1335" cy="1225" r="45" fill="#FFFFFF" opacity="0.131" /><circle cx="2471" cy="756" r="60" fill="#FFFFFF" opacity="0.091" /><circle cx="1705" cy="2338" r="144" fill="#FFFFFF" opacity="0.090" /><circle cx="1401" cy="1940" r="93" fill="#FFFFFF" opacity="0.162" /><circle cx="2633" cy="458" r="153" fill="#FFFFFF" opacity="0.195" /><circle cx="2260" cy="2603" r="148" fill="#FFFFFF" opacity="0.122" /><circle cx="1926" cy="1259" r="51" fill="#FFFFFF" opacity="0.084" /><circle cx="2476" cy="809" r="44" fill="#FFFFFF" opacity="0.135" /><circle cx="2201" cy="1742" r="146" fill="#FFFFFF" opacity="0.146" /><circle cx="1576" cy="1238" r="106" fill="#FFFFFF" opacity="0.071" /><circle cx="1406" cy="335" r="64" fill="#FFFFFF" opacity="0.083" /><circle cx="528" cy="1695" r="37" fill="#FFFFFF" opacity="0.121" /><circle cx="2164" cy="1743" r="143" fill="#FFFFFF" opacity="0.219" /><circle cx="1237" cy="734" r="62" fill="#FFFFFF" opacity="0.199" /><circle cx="2582" cy="2183" r="62" fill="#FFFFFF" opacity="0.167" /><circle cx="1517" cy="2435" r="65" fill="#FFFFFF" opacity="0.127" /><circle cx="1220" cy="528" r="134" fill="#FFFFFF" opacity="0.077" /><circle cx="1879" cy="1564" r="137" fill="#FFFFFF" opacity="0.230" /><circle cx="2202" cy="1810" r="72" fill="#FFFFFF" opacity="0.134" /><circle cx="793" cy="1830" r="90" fill="#FFFFFF" opacity="0.191" /><circle cx="1793" cy="1113" r="48" fill="#FFFFFF" opacity="0.120" /><circle cx="1771" cy="2544" r="148" fill="#FFFFFF" opacity="0.123" /><circle cx="811" cy="547" r="95" fill="#FFFFFF" opacity="0.102" /><circle cx="1916" cy="1597" r="109" fill="#FFFFFF" opacity="0.074" /><circle cx="834" cy="1829" r="69" fill="#FFFFFF" opacity="0.107" /><circle cx="1629" cy="389" r="47" fill="#FFFFFF" opacity="0.132" /><circle cx="559" cy="799" r="53" fill="#FFFFFF" opacity="0.204" /></g>
  <g><path d="M 230.7 571.8 L 2817.3 295.3 L 2817.3 784.5 L 230.7 1061.0 Z" fill="#FFFFFF" opacity="0.167" /><path d="M 253.9 843.1 L 2747.7 566.6 L 2747.7 1054.7 L 253.9 1331.2 Z" fill="#FFFFFF" opacity="0.142" /><path d="M 256.1 1145.9 L 2712.4 869.4 L 2712.4 1304.1 L 256.1 1580.6 Z" fill="#FFFFFF" opacity="0.170" /><path d="M 160.0 1375.0 L 2833.1 1098.5 L 2833.1 1566.7 L 160.0 1843.2 Z" fill="#FFFFFF" opacity="0.198" /><path d="M 320.2 1691.0 L 2907.8 1414.5 L 2907.8 1899.1 L 320.2 2175.6 Z" fill="#FFFFFF" opacity="0.114" /><path d="M 371.3 1902.5 L 2700.8 1626.0 L 2700.8 2110.6 L 371.3 2387.1 Z" fill="#FFFFFF" opacity="0.154" /><path d="M 252.1 2181.2 L 2717.3 1904.7 L 2717.3 2373.3 L 252.1 2649.8 Z" fill="#FFFFFF" opacity="0.093" /><path d="M 183.2 2449.7 L 2829.8 2173.2 L 2829.8 2657.9 L 183.2 2934.4 Z" fill="#FFFFFF" opacity="0.199" /></g>
  <g filter="url(#soft74)"><g transform="rotate(-16.84 1536.0 1536.0)"><path d="M-368.6 542.5 C -225.8 598.0, -25.8 498.9, 107.5 578.5 C 250.4 569.4, 450.4 507.0, 583.7 537.5 C 726.5 538.7, 926.5 546.6, 1059.8 499.5 C 1202.7 514.2, 1402.7 584.2, 1536.0 487.6 C 1678.8 504.0, 1878.8 578.2, 2012.2 509.1 C 2155.0 509.6, 2355.0 569.5, 2488.3 550.8 C 2631.2 550.8, 2831.2 536.8, 2964.5 587.5 C 3107.3 594.6, 3307.3 520.2, 3440.6 596.9" fill="none" stroke="url(#ribbon74)" stroke-width="58.4" stroke-linecap="round" stroke-opacity="0.120" /></g><g transform="rotate(-16.26 1536.0 1536.0)"><path d="M-368.6 746.3 C -241.7 725.2, -63.9 770.5, 54.6 688.0 C 181.6 677.0, 359.4 780.7, 477.9 689.9 C 604.8 671.0, 782.6 792.5, 901.1 726.1 C 1028.1 732.4, 1205.9 761.4, 1324.4 774.5 C 1451.3 763.5, 1629.1 727.9, 1747.6 805.9 C 1874.6 809.5, 2052.4 677.6, 2170.9 801.1 C 2297.9 815.7, 2475.6 717.0, 2594.1 763.1 C 2721.1 757.2, 2898.9 738.3, 3017.4 714.9 C 3144.4 720.3, 3322.1 756.3, 3440.6 685.8" fill="none" stroke="url(#ribbon74)" stroke-width="54.4" stroke-linecap="round" stroke-opacity="0.146" /></g><g transform="rotate(-15.68 1536.0 1536.0)"><path d="M-368.6 959.4 C -254.4 1001.5, -94.4 933.7, 12.3 963.7 C 126.6 964.0, 286.6 956.6, 393.2 912.7 C 507.5 899.9, 667.5 976.2, 774.1 890.0 C 888.4 875.8, 1048.4 1029.1, 1155.1 909.5 C 1269.4 909.8, 1429.3 989.0, 1536.0 959.3 C 1650.3 959.3, 1810.3 959.6, 1916.9 1009.1 C 2031.2 1024.0, 2191.2 905.2, 2297.9 1028.8 C 2412.1 1029.2, 2572.1 902.2, 2678.8 1006.5 C 2793.1 989.1, 2953.1 923.0, 3059.7 955.6 C 3174.0 956.0, 3334.0 961.3, 3440.6 907.0" fill="none" stroke="url(#ribbon74)" stroke-width="50.4" stroke-linecap="round" stroke-opacity="0.172" /></g><g transform="rotate(-15.10 1536.0 1536.0)"><path d="M-368.6 1081.8 C -264.8 1146.3, -119.3 1041.2, -22.3 1103.5 C 81.5 1110.8, 227.0 1068.1, 324.0 1044.3 C 427.8 1037.9, 573.3 1122.7, 670.3 1007.9 C 774.1 979.0, 919.6 1164.6, 1016.6 1016.3 C 1120.4 1011.0, 1265.9 1153.8, 1362.9 1064.4 C 1466.7 1057.7, 1612.2 1090.3, 1709.1 1123.1 C 1813.0 1110.3, 1958.5 1068.4, 2055.4 1156.8 C 2159.3 1149.5, 2304.8 1026.1, 2401.7 1145.0 C 2505.6 1167.5, 2651.1 1032.2, 2748.0 1094.9 C 2851.9 1099.6, 2997.4 1066.9, 3094.3 1036.8 C 3198.2 1043.3, 3343.7 1099.3, 3440.6 1006.1" fill="none" stroke="url(#ribbon74)" stroke-width="46.4" stroke-linecap="round" stroke-opacity="0.198" /></g><g transform="rotate(-14.52 1536.0 1536.0)"><path d="M-368.6 1293.8 C -273.4 1260.6, -140.1 1307.7, -51.2 1218.7 C 44.0 1231.0, 177.4 1336.8, 266.2 1215.2 C 361.5 1193.7, 494.8 1342.1, 583.7 1259.4 C 678.9 1266.3, 812.2 1304.6, 901.1 1324.5 C 996.4 1332.8, 1129.7 1258.3, 1218.6 1370.9 C 1313.8 1395.2, 1447.1 1219.8, 1536.0 1370.6 C 1631.2 1349.0, 1764.6 1243.3, 1853.4 1323.7 C 1948.7 1334.9, 2082.0 1267.3, 2170.9 1258.7 C 2266.1 1250.7, 2399.4 1330.7, 2488.3 1215.0 C 2583.6 1212.0, 2716.9 1373.9, 2805.8 1219.1 C 2901.0 1239.4, 3034.3 1373.9, 3123.2 1268.5 C 3218.4 1271.0, 3351.8 1302.2, 3440.6 1333.3" fill="none" stroke="url(#ribbon74)" stroke-width="42.4" stroke-linecap="round" stroke-opacity="0.224" /></g><g transform="rotate(-13.94 1536.0 1536.0)"><path d="M-368.6 1457.2 C -225.8 1385.9, -25.8 1495.6, 107.5 1415.6 C 250.4 1429.1, 450.4 1470.3, 583.7 1486.0 C 726.5 1489.4, 926.5 1447.3, 1059.8 1538.9 C 1202.7 1518.1, 1402.7 1364.0, 1536.0 1542.2 C 1678.8 1538.6, 1878.8 1419.4, 2012.2 1493.9 C 2155.0 1496.3, 2355.0 1426.2, 2488.3 1423.4 C 2631.2 1432.4, 2831.2 1496.5, 2964.5 1373.3 C 3107.3 1399.8, 3307.3 1484.2, 3440.6 1374.1" fill="none" stroke="url(#ribbon74)" stroke-width="38.4" stroke-linecap="round" stroke-opacity="0.250" /></g><g transform="rotate(-13.36 1536.0 1536.0)"><path d="M-368.6 1707.7 C -241.7 1668.1, -63.9 1754.4, 54.6 1725.0 C 181.6 1719.5, 359.4 1701.0, 477.9 1788.7 C 604.8 1776.5, 782.6 1671.5, 901.1 1803.3 C 1028.1 1817.1, 1205.9 1599.0, 1324.4 1759.9 C 1451.3 1774.2, 1629.1 1690.3, 1747.6 1684.9 C 1874.6 1678.8, 2052.4 1715.0, 2170.9 1623.7 C 2297.9 1616.3, 2475.6 1762.8, 2594.1 1613.5 C 2721.1 1604.0, 2898.9 1776.4, 3017.4 1660.4 C 3144.4 1657.8, 3322.1 1727.7, 3440.6 1736.1" fill="none" stroke="url(#ribbon74)" stroke-width="34.4" stroke-linecap="round" stroke-opacity="0.276" /></g><g transform="rotate(-12.78 1536.0 1536.0)"><path d="M-368.6 1829.8 C -254.4 1913.5, -94.4 1758.4, 12.3 1880.7 C 126.6 1889.0, 286.6 1803.0, 393.2 1799.6 C 507.5 1806.5, 667.5 1841.4, 774.1 1736.8 C 888.4 1761.1, 1048.4 1926.6, 1155.1 1730.4 C 1269.4 1739.1, 1429.3 1906.3, 1536.0 1784.3 C 1650.3 1794.8, 1810.3 1876.4, 1916.9 1865.8 C 2031.2 1865.0, 2191.2 1810.7, 2297.9 1925.4 C 2412.1 1923.8, 2572.1 1735.9, 2678.8 1927.1 C 2793.1 1915.9, 2953.1 1790.7, 3059.7 1869.7 C 3174.0 1871.8, 3334.0 1801.4, 3440.6 1788.1" fill="none" stroke="url(#ribbon74)" stroke-width="30.4" stroke-linecap="round" stroke-opacity="0.302" /></g><g transform="rotate(-12.20 1536.0 1536.0)"><path d="M-368.6 2110.4 C -264.8 2214.8, -119.3 1985.2, -22.3 2199.3 C 81.5 2227.5, 227.0 2008.0, 324.0 2123.7 C 427.8 2119.6, 573.3 2097.1, 670.3 2040.0 C 774.1 2019.2, 919.6 2135.0, 1016.6 1999.0 C 1120.4 1971.2, 1265.9 2230.1, 1362.9 2025.5 C 1466.7 2043.1, 1612.2 2206.5, 1709.1 2103.5 C 1813.0 2102.3, 1958.5 2116.2, 2055.4 2185.7 C 2159.3 2213.0, 2304.8 2054.7, 2401.7 2222.1 C 2505.6 2183.1, 2651.1 2037.6, 2748.0 2190.8 C 2851.9 2202.6, 2997.4 2072.7, 3094.3 2110.7 C 3198.2 2110.7, 3343.7 2110.1, 3440.6 2030.4" fill="none" stroke="url(#ribbon74)" stroke-width="26.4" stroke-linecap="round" stroke-opacity="0.328" /></g><g transform="rotate(-11.62 1536.0 1536.0)"><path d="M-368.6 2217.2 C -273.4 2321.4, -140.1 2103.0, -51.2 2279.0 C 44.0 2275.3, 177.4 2188.7, 266.2 2187.5 C 361.5 2179.3, 494.8 2229.0, 583.7 2113.9 C 678.9 2125.4, 812.2 2303.2, 901.1 2103.0 C 996.4 2095.7, 1129.7 2288.2, 1218.6 2161.3 C 1313.8 2150.5, 1447.1 2275.2, 1536.0 2253.5 C 1631.2 2262.0, 1764.6 2196.1, 1853.4 2323.7 C 1948.7 2298.5, 2082.0 2148.4, 2170.9 2329.2 C 2266.1 2362.7, 2399.4 2086.3, 2488.3 2266.8 C 2583.6 2265.7, 2716.9 2169.3, 2805.8 2174.2 C 2901.0 2170.0, 3034.3 2237.1, 3123.2 2107.7 C 3218.4 2100.2, 3351.8 2345.0, 3440.6 2107.6" fill="none" stroke="url(#ribbon74)" stroke-width="22.4" stroke-linecap="round" stroke-opacity="0.354" /></g><g transform="rotate(-11.04 1536.0 1536.0)"><path d="M-368.6 2437.8 C -225.8 2349.4, -25.8 2493.3, 107.5 2313.6 C 250.4 2296.3, 450.4 2533.1, 583.7 2336.3 C 726.5 2372.5, 926.5 2517.4, 1059.8 2420.5 C 1202.7 2423.6, 1402.7 2456.9, 1536.0 2515.3 C 1678.8 2505.8, 1878.8 2406.4, 2012.2 2563.1 C 2155.0 2573.2, 2355.0 2342.3, 2488.3 2534.9 C 2631.2 2517.4, 2831.2 2337.1, 2964.5 2447.8 C 3107.3 2446.8, 3307.3 2434.2, 3440.6 2354.7" fill="none" stroke="url(#ribbon74)" stroke-width="18.4" stroke-linecap="round" stroke-opacity="0.380" /></g><g transform="rotate(-10.46 1536.0 1536.0)"><path d="M-368.6 2666.4 C -241.7 2798.1, -63.9 2554.1, 54.6 2794.7 C 181.6 2831.1, 359.4 2541.4, 477.9 2730.8 C 604.8 2738.0, 782.6 2621.0, 901.1 2627.8 C 1028.1 2620.9, 1205.9 2696.4, 1324.4 2548.2 C 1451.3 2503.7, 1629.1 2784.3, 1747.6 2540.3 C 1874.6 2542.5, 2052.4 2728.6, 2170.9 2608.9 C 2297.9 2622.6, 2475.6 2710.2, 2594.1 2712.3 C 2721.1 2707.5, 2898.9 2618.7, 3017.4 2787.9 C 3144.4 2754.6, 3322.1 2613.5, 3440.6 2789.8" fill="none" stroke="url(#ribbon74)" stroke-width="14.4" stroke-linecap="round" stroke-opacity="0.406" /></g></g>
  <g><ellipse cx="1536.0" cy="1551.9" rx="728.6" ry="605.7" fill="url(#extrude74)" opacity="0.220" /><ellipse cx="1536.0" cy="1567.7" rx="736.0" ry="610.9" fill="url(#extrude74)" opacity="0.205" /><ellipse cx="1536.0" cy="1583.6" rx="743.4" ry="616.1" fill="url(#extrude74)" opacity="0.190" /><ellipse cx="1536.0" cy="1599.5" rx="750.9" ry="621.3" fill="url(#extrude74)" opacity="0.175" /><ellipse cx="1536.0" cy="1615.4" rx="758.3" ry="626.5" fill="url(#extrude74)" opacity="0.160" /><ellipse cx="1536.0" cy="1631.2" rx="765.7" ry="631.7" fill="url(#extrude74)" opacity="0.145" /><ellipse cx="1536.0" cy="1647.1" rx="773.2" ry="636.9" fill="url(#extrude74)" opacity="0.130" /><ellipse cx="1536.0" cy="1663.0" rx="780.6" ry="642.1" fill="url(#extrude74)" opacity="0.115" /><ellipse cx="1536.0" cy="1678.8" rx="788.0" ry="647.4" fill="url(#extrude74)" opacity="0.100" /><ellipse cx="1536.0" cy="1694.7" rx="795.5" ry="652.6" fill="url(#extrude74)" opacity="0.085" /><ellipse cx="1536.0" cy="1710.6" rx="802.9" ry="657.8" fill="url(#extrude74)" opacity="0.070" /><ellipse cx="1536.0" cy="1726.5" rx="810.3" ry="663.0" fill="url(#extrude74)" opacity="0.055" /></g>
  <ellipse cx="1536.0" cy="1726.5" rx="773.2" ry="214.9" fill="#0B1D2D" opacity="0.24" />
  <ellipse cx="1536.0" cy="1536.0" rx="743.4" ry="651.3" fill="url(#orb74)" stroke="#FFFFFF" stroke-opacity="0.42" stroke-width="7" />
  <ellipse cx="1431.9" cy="1392.7" rx="505.5" ry="299.6" fill="#FFFFFF" opacity="0.25" />
  <path d="M 199.4 399.4 C 1013.8 -30.7, 2058.2 768.0, 2872.6 215.0 L 2872.6 983.0 C 2089.0 1228.8, 1013.8 307.2, 199.4 1167.4 Z" fill="url(#glass74)" />
  <rect x="270" y="270" width="2532" height="2532" rx="430" fill="none" stroke="#FFFFFF" stroke-opacity="0.30" stroke-width="5" />
  <rect x="288.4" y="288.4" width="2495.1" height="2495.1" rx="399" fill="none" stroke="#FF9F43" stroke-opacity="0.35" stroke-width="3" />
  <g filter="url(#soft74)"><rect x="1159" y="2497" width="78" height="2" fill="#FFFFFF" opacity="0.616" /><rect x="1197" y="2459" width="2" height="78" fill="#FFFFFF" opacity="0.616" /><rect x="1003" y="2667" width="48" height="2" fill="#FFFFFF" opacity="0.405" /><rect x="1026" y="2644" width="2" height="48" fill="#FFFFFF" opacity="0.405" /><rect x="2727" y="529" width="62" height="2" fill="#FFFFFF" opacity="0.830" /><rect x="2757" y="499" width="2" height="62" fill="#FFFFFF" opacity="0.830" /><rect x="2407" y="2466" width="72" height="2" fill="#FFFFFF" opacity="0.390" /><rect x="2442" y="2431" width="2" height="72" fill="#FFFFFF" opacity="0.390" /><rect x="737" y="2240" width="64" height="2" fill="#FFFFFF" opacity="0.745" /><rect x="768" y="2209" width="2" height="64" fill="#FFFFFF" opacity="0.745" /><rect x="435" y="792" width="72" height="2" fill="#FFFFFF" opacity="0.357" /><rect x="470" y="757" width="2" height="72" fill="#FFFFFF" opacity="0.357" /><rect x="1721" y="1373" width="58" height="2" fill="#FFFFFF" opacity="0.496" /><rect x="1749" y="1345" width="2" height="58" fill="#FFFFFF" opacity="0.496" /><rect x="2477" y="496" width="50" height="2" fill="#FFFFFF" opacity="0.390" /><rect x="2501" y="472" width="2" height="50" fill="#FFFFFF" opacity="0.390" /><rect x="712" y="895" width="30" height="2" fill="#FFFFFF" opacity="0.776" /><rect x="726" y="881" width="2" height="30" fill="#FFFFFF" opacity="0.776" /><rect x="2127" y="249" width="36" height="2" fill="#FFFFFF" opacity="0.598" /><rect x="2144" y="232" width="2" height="36" fill="#FFFFFF" opacity="0.598" /><rect x="1374" y="715" width="74" height="2" fill="#FFFFFF" opacity="0.337" /><rect x="1410" y="679" width="2" height="74" fill="#FFFFFF" opacity="0.337" /><rect x="1645" y="1868" width="84" height="2" fill="#FFFFFF" opacity="0.836" /><rect x="1686" y="1827" width="2" height="84" fill="#FFFFFF" opacity="0.836" /><rect x="1865" y="682" width="64" height="2" fill="#FFFFFF" opacity="0.397" /><rect x="1896" y="651" width="2" height="64" fill="#FFFFFF" opacity="0.397" /><rect x="2562" y="2689" width="58" height="2" fill="#FFFFFF" opacity="0.725" /><rect x="2590" y="2661" width="2" height="58" fill="#FFFFFF" opacity="0.725" /><rect x="1284" y="1225" width="24" height="2" fill="#FFFFFF" opacity="0.564" /><rect x="1295" y="1214" width="2" height="24" fill="#FFFFFF" opacity="0.564" /><rect x="1807" y="681" width="30" height="2" fill="#FFFFFF" opacity="0.546" /><rect x="1821" y="667" width="2" height="30" fill="#FFFFFF" opacity="0.546" /><rect x="2085" y="1618" width="84" height="2" fill="#FFFFFF" opacity="0.558" /><rect x="2126" y="1577" width="2" height="84" fill="#FFFFFF" opacity="0.558" /><rect x="1528" y="2252" width="54" height="2" fill="#FFFFFF" opacity="0.778" /><rect x="1554" y="2226" width="2" height="54" fill="#FFFFFF" opacity="0.778" /><rect x="873" y="935" width="36" height="2" fill="#FFFFFF" opacity="0.605" /><rect x="890" y="918" width="2" height="36" fill="#FFFFFF" opacity="0.605" /><rect x="2014" y="2488" width="32" height="2" fill="#FFFFFF" opacity="0.311" /><rect x="2029" y="2473" width="2" height="32" fill="#FFFFFF" opacity="0.311" /><rect x="2079" y="1674" width="62" height="2" fill="#FFFFFF" opacity="0.478" /><rect x="2109" y="1644" width="2" height="62" fill="#FFFFFF" opacity="0.478" /><rect x="2750" y="831" width="34" height="2" fill="#FFFFFF" opacity="0.451" /><rect x="2766" y="815" width="2" height="34" fill="#FFFFFF" opacity="0.451" /><rect x="364" y="946" width="78" height="2" fill="#FFFFFF" opacity="0.508" /><rect x="402" y="908" width="2" height="78" fill="#FFFFFF" opacity="0.508" /><rect x="1996" y="1784" width="74" height="2" fill="#FFFFFF" opacity="0.453" /><rect x="2032" y="1748" width="2" height="74" fill="#FFFFFF" opacity="0.453" /><rect x="1095" y="1974" width="78" height="2" fill="#FFFFFF" opacity="0.701" /><rect x="1133" y="1936" width="2" height="78" fill="#FFFFFF" opacity="0.701" /><rect x="2125" y="677" width="32" height="2" fill="#FFFFFF" opacity="0.498" /><rect x="2140" y="662" width="2" height="32" fill="#FFFFFF" opacity="0.498" /></g>
  <g opacity="0.52"><path d="M996 1582 L1316 2131 L2148 1121" fill="none" stroke="#0C2030" stroke-width="90" stroke-linecap="round" stroke-linejoin="round" /><circle cx="996" cy="1582" r="47" fill="#0C2030" /><circle cx="1316" cy="2131" r="47" fill="#0C2030" /><circle cx="2148" cy="1121" r="47" fill="#0C2030" /></g>
  <g filter="url(#soft74)"><path d="M960 1536 L1280 2085 L2112 1075" fill="none" stroke="url(#symbol74)" stroke-width="90" stroke-linecap="round" stroke-linejoin="round" /><circle cx="960" cy="1536" r="47" fill="url(#symbol74)" /><circle cx="1280" cy="2085" r="47" fill="url(#symbol74)" /><circle cx="2112" cy="1075" r="47" fill="url(#symbol74)" /></g>
  <rect x="138" y="138" width="2796" height="2796" rx="629" fill="#FFFFFF" filter="url(#grain74)" opacity="0.18" />
</svg>
