<svg xmlns="http://www.w3.org/2000/svg" width="3072" height="3072" viewBox="0 0 3072 3072">
  <title>QuartzOS App Icon 135 - solid_camera_135</title>
  <defs><linearGradient id="bg134" x1="0%" y1="0%" x2="100%" y2="100%"><stop offset="0%" stop-color="#3B82FF" /><stop offset="26%" stop-color="#FF6AB3" /><stop offset="56%" stop-color="#FFD84D" /><stop offset="78%" stop-color="#5E86C9" /><stop offset="100%" stop-color="#1C2435" /></linearGradient><radialGradient id="sun134" cx="27%" cy="36%" r="88%"><stop offset="0%" stop-color="#FFFFFF" stop-opacity="0.62" /><stop offset="30%" stop-color="#53E3A6" stop-opacity="0.35" /><stop offset="100%" stop-color="#53E3A6" stop-opacity="0" /></radialGradient><linearGradient id="glass134" x1="0%" y1="0%" x2="0%" y2="100%"><stop offset="0%" stop-color="#FFFFFF" stop-opacity="0.70" /><stop offset="46%" stop-color="#FFFFFF" stop-opacity="0.26" /><stop offset="100%" stop-color="#FFFFFF" stop-opacity="0.00" /></linearGradient><linearGradient id="ribbon134" x1="0%" y1="0%" x2="100%" y2="0%"><stop offset="0%" stop-color="#3B82FF" stop-opacity="0.18" /><stop offset="34%" stop-color="#FF6AB3" stop-opacity="0.72" /><stop offset="66%" stop-color="#FFD84D" stop-opacity="0.72" /><stop offset="100%" stop-color="#53E3A6" stop-opacity="0.18" /></linearGradient><radialGradient id="orb134" cx="34%" cy="27%" r="74%"><stop offset="0%" stop-color="#FFFFFF" stop-opacity="0.84" /><stop offset="30%" stop-color="#3B82FF" stop-opacity="0.52" /><stop offset="68%" stop-color="#FF6AB3" stop-opacity="0.42" /><stop offset="100%" stop-color="#FFD84D" stop-opacity="0.20" /></radialGradient><linearGradient id="extrude134" x1="0%" y1="0%" x2="0%" y2="100%"><stop offset="0%" stop-color="#15283C" stop-opacity="0.45" /><stop offset="100%" stop-color="#08131D" stop-opacity="0.06" /></linearGradient><linearGradient id="symbol134" x1="0%" y1="0%" x2="100%" y2="100%"><stop offset="0%" stop-color="#FFFFFF" /><stop offset="100%" stop-color="#53E3A6" /></linearGradient><filter id="shadow134" x="-40%" y="-40%" width="180%" height="180%"><feDropShadow dx="0" dy="49" stdDeviation="86" flood-color="#06111A" flood-opacity="0.54" /></filter><filter id="soft134" x="-40%" y="-40%" width="180%" height="180%"><feDropShadow dx="0" dy="0" stdDeviation="14" flood-color="#3B82FF" flood-opacity="0.45" /></filter><filter id="grain134"><feTurbulence type="fractalNoise" baseFrequency="0.948" numOctaves="2" seed="134" /><feColorMatrix type="saturate" values="0" /><feComponentTransfer><feFuncA type="table" tableValues="0 0.09" /></feComponentTransfer></filter></defs>
  <rect x="138" y="138" width="2796" height="2796" rx="629" fill="url(#bg134)" filter="url(#shadow134)" />
  <rect x="138" y="138" width="2796" height="2796" rx="629" fill="url(#sun134)" />
  <g><circle cx="2380" cy="1566" r="143" fill="#FFFFFF" opacity="0.060" /><circle cx="1551" cy="2258" r="126" fill="#FFFFFF" opacity="0.190" /><circle cx="1849" cy="1152" r="143" fill="#FFFFFF" opacity="0.073" /><circle cx="1945" cy="977" r="53" fill="#FFFFFF" opacity="0.136" /><circle cx="2287" cy="992" r="55" fill="#FFFFFF" opacity="0.226" /><circle cx="514" cy="2539" r="88" fill="#FFFFFF" opacity="0.217" /><circle cx="2088" cy="750" r="134" fill="#FFFFFF" opacity="0.164" /><circle cx="2108" cy="310" r="155" fill="#FFFFFF" opacity="0.169" /><circle cx="2255" cy="370" r="49" fill="#FFFFFF" opacity="0.185" /><circle cx="1330" cy="2101" r="129" fill="#FFFFFF" opacity="0.195" /><circle cx="1150" cy="1938" r="126" fill="#FFFFFF" opacity="0.168" /><circle cx="2456" cy="1256" r="97" fill="#FFFFFF" opacity="0.152" /><circle cx="1068" cy="1506" r="74" fill="#FFFFFF" opacity="0.176" /><circle cx="2149" cy="2388" r="67" fill="#FFFFFF" opacity="0.221" /><circle cx="940" cy="2028" r="116" fill="#FFFFFF" opacity="0.213" /><circle cx="2672" cy="1156" r="126" fill="#FFFFFF" opacity="0.202" /><circle cx="867" cy="1894" r="97" fill="#FFFFFF" opacity="0.226" /><circle cx="1892" cy="1917" r="41" fill="#FFFFFF" opacity="0.126" /><circle cx="2123" cy="2177" r="145" fill="#FFFFFF" opacity="0.153" /><circle cx="2116" cy="1390" r="45" fill="#FFFFFF" opacity="0.198" /><circle cx="2632" cy="1454" r="38" fill="#FFFFFF" opacity="0.211" /><circle cx="391" cy="621" r="89" fill="#FFFFFF" opacity="0.077" /><circle cx="1940" cy="2154" r="126" fill="#FFFFFF" opacity="0.165" /><circle cx="2299" cy="2128" r="145" fill="#FFFFFF" opacity="0.199" /><circle cx="1651" cy="2084" r="96" fill="#FFFFFF" opacity="0.087" /><circle cx="875" cy="1794" r="95" fill="#FFFFFF" opacity="0.088" /><circle cx="1353" cy="2279" r="158" fill="#FFFFFF" opacity="0.091" /><circle cx="2367" cy="1889" r="45" fill="#FFFFFF" opacity="0.145" /></g>
  <g><path d="M 363.6 620.1 L 2750.4 343.6 L 2750.4 792.3 L 363.6 1068.7 Z" fill="#FFFFFF" opacity="0.108" /><path d="M 282.8 896.9 L 2704.0 620.5 L 2704.0 1043.6 L 282.8 1320.1 Z" fill="#FFFFFF" opacity="0.098" /><path d="M 344.5 1139.2 L 2806.0 862.7 L 2806.0 1332.9 L 344.5 1609.4 Z" fill="#FFFFFF" opacity="0.174" /><path d="M 221.3 1364.4 L 2869.8 1087.9 L 2869.8 1519.3 L 221.3 1795.8 Z" fill="#FFFFFF" opacity="0.107" /><path d="M 168.0 1646.0 L 2896.5 1369.5 L 2896.5 1809.2 L 168.0 2085.7 Z" fill="#FFFFFF" opacity="0.144" /><path d="M 357.3 1936.9 L 2865.2 1660.4 L 2865.2 2126.1 L 357.3 2402.6 Z" fill="#FFFFFF" opacity="0.110" /><path d="M 147.4 2142.0 L 2880.3 1865.5 L 2880.3 2328.7 L 147.4 2605.2 Z" fill="#FFFFFF" opacity="0.205" /><path d="M 366.8 2441.9 L 2713.2 2165.4 L 2713.2 2594.0 L 366.8 2870.5 Z" fill="#FFFFFF" opacity="0.098" /></g>
  <g filter="url(#soft134)"><g transform="rotate(-4.27 1536.0 1536.0)"><path d="M-368.6 488.9 C -225.8 445.8, -25.8 506.5, 107.5 436.1 C 250.4 438.8, 450.4 522.2, 583.7 463.9 C 726.5 463.1, 926.5 518.3, 1059.8 506.9 C 1202.7 506.6, 1402.7 479.2, 1536.0 538.9 C 1678.8 522.8, 1878.8 446.8, 2012.2 540.6 C 2155.0 520.2, 2355.0 428.8, 2488.3 511.0 C 2631.2 510.4, 2831.2 477.3, 2964.5 467.9 C 3107.3 460.5, 3307.3 503.4, 3440.6 437.6" fill="none" stroke="url(#ribbon134)" stroke-width="58.4" stroke-linecap="round" stroke-opacity="0.120" /></g><g transform="rotate(-3.69 1536.0 1536.0)"><path d="M-368.6 690.3 C -241.7 722.7, -63.9 673.7, 54.6 752.6 C 181.6 767.8, 359.4 643.5, 477.9 732.2 C 604.8 735.9, 782.6 647.8, 901.1 686.3 C 1028.1 685.7, 1205.9 691.8, 1324.4 642.9 C 1451.3 651.6, 1629.1 728.6, 1747.6 628.2 C 1874.6 607.6, 2052.4 737.3, 2170.9 651.2 C 2297.9 657.8, 2475.6 734.6, 2594.1 697.9 C 2721.1 700.5, 2898.9 686.2, 3017.4 740.0 C 3144.4 737.8, 3322.1 668.5, 3440.6 752.0" fill="none" stroke="url(#ribbon134)" stroke-width="54.4" stroke-linecap="round" stroke-opacity="0.146" /></g><g transform="rotate(-3.11 1536.0 1536.0)"><path d="M-368.6 936.1 C -254.4 976.6, -94.4 921.8, 12.3 1003.0 C 126.6 997.1, 286.6 872.4, 393.2 996.0 C 507.5 1009.6, 667.5 902.9, 774.1 952.7 C 888.4 946.8, 1048.4 930.2, 1155.1 899.3 C 1269.4 888.4, 1429.3 974.0, 1536.0 868.2 C 1650.3 861.7, 1810.3 978.2, 1916.9 878.3 C 2031.2 872.7, 2191.2 976.6, 2297.9 923.5 C 2412.1 924.4, 2572.1 944.2, 2678.8 976.3 C 2793.1 969.0, 2953.1 914.7, 3059.7 1004.7 C 3174.0 1025.1, 3334.0 861.7, 3440.6 991.5" fill="none" stroke="url(#ribbon134)" stroke-width="50.4" stroke-linecap="round" stroke-opacity="0.172" /></g><g transform="rotate(-2.53 1536.0 1536.0)"><path d="M-368.6 1102.6 C -264.8 1171.1, -119.3 1075.9, -22.3 1179.1 C 81.5 1159.6, 227.0 1065.6, 324.0 1156.0 C 427.8 1135.7, 573.3 1054.7, 670.3 1100.5 C 774.1 1099.7, 919.6 1103.8, 1016.6 1046.3 C 1120.4 1047.0, 1265.9 1127.5, 1362.9 1026.3 C 1466.7 1010.0, 1612.2 1181.0, 1709.1 1052.5 C 1813.0 1039.6, 1958.5 1152.9, 2055.4 1109.2 C 2159.3 1108.0, 2304.8 1098.7, 2401.7 1161.9 C 2505.6 1182.6, 2651.1 1062.1, 2748.0 1178.6 C 2851.9 1176.2, 2997.4 1064.8, 3094.3 1149.3 C 3198.2 1146.0, 3343.7 1048.3, 3440.6 1091.6" fill="none" stroke="url(#ribbon134)" stroke-width="46.4" stroke-linecap="round" stroke-opacity="0.198" /></g><g transform="rotate(-1.95 1536.0 1536.0)"><path d="M-368.6 1311.9 C -273.4 1284.3, -140.1 1327.8, -51.2 1347.1 C 44.0 1333.9, 177.4 1277.5, 266.2 1390.8 C 361.5 1371.4, 494.8 1236.2, 583.7 1386.6 C 678.9 1395.6, 812.2 1223.4, 901.1 1337.1 C 996.4 1344.9, 1129.7 1298.8, 1218.6 1272.3 C 1313.8 1272.7, 1447.1 1343.5, 1536.0 1231.5 C 1631.2 1200.5, 1764.6 1376.7, 1853.4 1239.5 C 1948.7 1251.5, 2082.0 1359.9, 2170.9 1291.4 C 2266.1 1287.5, 2399.4 1331.9, 2488.3 1355.7 C 2583.6 1366.0, 2716.9 1263.1, 2805.8 1393.4 C 2901.0 1393.8, 3034.3 1281.0, 3123.2 1381.7 C 3218.4 1395.7, 3351.8 1260.2, 3440.6 1327.6" fill="none" stroke="url(#ribbon134)" stroke-width="42.4" stroke-linecap="round" stroke-opacity="0.224" /></g><g transform="rotate(-1.37 1536.0 1536.0)"><path d="M-368.6 1499.9 C -225.8 1516.5, -25.8 1494.1, 107.5 1448.8 C 250.4 1462.2, 450.4 1533.3, 583.7 1410.6 C 726.5 1436.1, 926.5 1584.6, 1059.8 1426.7 C 1202.7 1427.1, 1402.7 1583.6, 1536.0 1487.1 C 1678.8 1486.5, 1878.8 1509.5, 2012.2 1555.4 C 2155.0 1541.5, 2355.0 1465.8, 2488.3 1590.0 C 2631.2 1554.2, 2831.2 1456.0, 2964.5 1570.0 C 3107.3 1570.3, 3307.3 1467.3, 3440.6 1507.5" fill="none" stroke="url(#ribbon134)" stroke-width="38.4" stroke-linecap="round" stroke-opacity="0.250" /></g><g transform="rotate(-0.79 1536.0 1536.0)"><path d="M-368.6 1683.2 C -241.7 1799.0, -63.9 1654.5, 54.6 1777.4 C 181.6 1784.1, 359.4 1597.8, 477.9 1730.1 C 604.8 1728.0, 782.6 1651.0, 901.1 1654.4 C 1028.1 1657.2, 1205.9 1710.6, 1324.4 1596.2 C 1451.3 1570.6, 1629.1 1727.2, 1747.6 1590.7 C 1874.6 1553.8, 2052.4 1793.9, 2170.9 1641.4 C 2297.9 1656.6, 2475.6 1726.5, 2594.1 1717.4 C 2721.1 1705.7, 2898.9 1650.0, 3017.4 1772.7 C 3144.4 1752.9, 3322.1 1587.4, 3440.6 1773.7" fill="none" stroke="url(#ribbon134)" stroke-width="34.4" stroke-linecap="round" stroke-opacity="0.276" /></g><g transform="rotate(-0.21 1536.0 1536.0)"><path d="M-368.6 1828.2 C -254.4 1916.0, -94.4 1780.8, 12.3 1859.4 C 126.6 1865.1, 286.6 1809.3, 393.2 1778.2 C 507.5 1770.1, 667.5 1874.5, 774.1 1727.4 C 888.4 1744.2, 1048.4 1927.1, 1155.1 1737.7 C 1269.4 1715.0, 1429.3 1870.9, 1536.0 1803.0 C 1650.3 1809.0, 1810.3 1844.2, 1916.9 1883.6 C 2031.2 1904.4, 2191.2 1764.0, 2297.9 1930.6 C 2412.1 1891.9, 2572.1 1745.5, 2678.8 1915.5 C 2793.1 1926.2, 2953.1 1741.5, 3059.7 1847.5 C 3174.0 1843.8, 3334.0 1819.1, 3440.6 1767.8" fill="none" stroke="url(#ribbon134)" stroke-width="30.4" stroke-linecap="round" stroke-opacity="0.302" /></g><g transform="rotate(0.37 1536.0 1536.0)"><path d="M-368.6 2092.0 C -264.8 2117.7, -119.3 2081.7, -22.3 2191.7 C 81.5 2228.4, 227.0 2007.0, 324.0 2197.7 C 427.8 2204.5, 573.3 2057.7, 670.3 2139.6 C 774.1 2148.2, 919.6 2063.4, 1016.6 2052.5 C 1120.4 2056.0, 1265.9 2128.2, 1362.9 1989.4 C 1466.7 2027.3, 1612.2 2213.7, 1709.1 1988.5 C 1813.0 1977.4, 1958.5 2197.3, 2055.4 2050.3 C 2159.3 2036.5, 2304.8 2141.4, 2401.7 2137.4 C 2505.6 2144.7, 2651.1 2059.2, 2748.0 2196.9 C 2851.9 2195.3, 2997.4 1974.0, 3094.3 2192.7 C 3198.2 2176.9, 3343.7 2003.5, 3440.6 2127.4" fill="none" stroke="url(#ribbon134)" stroke-width="26.4" stroke-linecap="round" stroke-opacity="0.328" /></g><g transform="rotate(0.95 1536.0 1536.0)"><path d="M-368.6 2302.7 C -273.4 2223.4, -140.1 2380.9, -51.2 2325.9 C 44.0 2325.8, 177.4 2287.9, 266.2 2402.5 C 361.5 2390.9, 494.8 2192.8, 583.7 2418.5 C 678.9 2373.5, 812.2 2198.9, 901.1 2364.3 C 996.4 2343.0, 1129.7 2252.5, 1218.6 2272.7 C 1313.8 2271.9, 1447.1 2325.8, 1536.0 2199.3 C 1631.2 2181.5, 1764.6 2395.1, 1853.4 2188.5 C 1948.7 2173.3, 2082.0 2394.9, 2170.9 2247.1 C 2266.1 2231.8, 2399.4 2326.4, 2488.3 2339.3 C 2583.6 2332.0, 2716.9 2289.9, 2805.8 2409.3 C 2901.0 2413.8, 3034.3 2270.6, 3123.2 2414.6 C 3218.4 2399.5, 3351.8 2195.1, 3440.6 2352.0" fill="none" stroke="url(#ribbon134)" stroke-width="22.4" stroke-linecap="round" stroke-opacity="0.354" /></g><g transform="rotate(1.53 1536.0 1536.0)"><path d="M-368.6 2502.4 C -225.8 2573.2, -25.8 2456.8, 107.5 2623.3 C 250.4 2593.5, 450.4 2401.8, 583.7 2612.0 C 726.5 2581.0, 926.5 2443.4, 1059.8 2534.2 C 1202.7 2539.9, 1402.7 2489.5, 1536.0 2437.2 C 1678.8 2454.2, 1878.8 2571.5, 2012.2 2379.6 C 2155.0 2349.2, 2355.0 2540.7, 2488.3 2396.6 C 2631.2 2412.9, 2831.2 2576.8, 2964.5 2477.7 C 3107.3 2474.5, 3307.3 2523.3, 3440.6 2573.8" fill="none" stroke="url(#ribbon134)" stroke-width="18.4" stroke-linecap="round" stroke-opacity="0.380" /></g><g transform="rotate(2.11 1536.0 1536.0)"><path d="M-368.6 2658.2 C -241.7 2476.4, -63.9 2766.5, 54.6 2553.1 C 181.6 2523.3, 359.4 2695.2, 477.9 2643.5 C 604.8 2646.5, 782.6 2667.7, 901.1 2742.8 C 1028.1 2713.1, 1205.9 2609.7, 1324.4 2790.8 C 1451.3 2841.0, 1629.1 2531.5, 1747.6 2758.3 C 1874.6 2780.8, 2052.4 2565.9, 2170.9 2665.1 C 2297.9 2667.1, 2475.6 2654.8, 2594.1 2567.7 C 2721.1 2570.5, 2898.9 2743.4, 3017.4 2525.2 C 3144.4 2475.2, 3322.1 2814.2, 3440.6 2563.4" fill="none" stroke="url(#ribbon134)" stroke-width="14.4" stroke-linecap="round" stroke-opacity="0.406" /></g></g>
  <g><ellipse cx="1536.0" cy="1551.9" rx="728.6" ry="605.7" fill="url(#extrude134)" opacity="0.220" /><ellipse cx="1536.0" cy="1567.7" rx="736.0" ry="610.9" fill="url(#extrude134)" opacity="0.205" /><ellipse cx="1536.0" cy="1583.6" rx="743.4" ry="616.1" fill="url(#extrude134)" opacity="0.190" /><ellipse cx="1536.0" cy="1599.5" rx="750.9" ry="621.3" fill="url(#extrude134)" opacity="0.175" /><ellipse cx="1536.0" cy="1615.4" rx="758.3" ry="626.5" fill="url(#extrude134)" opacity="0.160" /><ellipse cx="1536.0" cy="1631.2" rx="765.7" ry="631.7" fill="url(#extrude134)" opacity="0.145" /><ellipse cx="1536.0" cy="1647.1" rx="773.2" ry="636.9" fill="url(#extrude134)" opacity="0.130" /><ellipse cx="1536.0" cy="1663.0" rx="780.6" ry="642.1" fill="url(#extrude134)" opacity="0.115" /><ellipse cx="1536.0" cy="1678.8" rx="788.0" ry="647.4" fill="url(#extrude134)" opacity="0.100" /><ellipse cx="1536.0" cy="1694.7" rx="795.5" ry="652.6" fill="url(#extrude134)" opacity="0.085" /><ellipse cx="1536.0" cy="1710.6" rx="802.9" ry="657.8" fill="url(#extrude134)" opacity="0.070" /><ellipse cx="1536.0" cy="1726.5" rx="810.3" ry="663.0" fill="url(#extrude134)" opacity="0.055" /></g>
  <ellipse cx="1536.0" cy="1726.5" rx="773.2" ry="214.9" fill="#0B1D2D" opacity="0.24" />
  <ellipse cx="1536.0" cy="1536.0" rx="743.4" ry="651.3" fill="url(#orb134)" stroke="#FFFFFF" stroke-opacity="0.42" stroke-width="7" />
  <ellipse cx="1431.9" cy="1392.7" rx="505.5" ry="299.6" fill="#FFFFFF" opacity="0.25" />
  <path d="M 199.4 399.4 C 1013.8 -30.7, 2058.2 768.0, 2872.6 215.0 L 2872.6 983.0 C 2089.0 1228.8, 1013.8 307.2, 199.4 1167.4 Z" fill="url(#glass134)" />
  <rect x="270" y="270" width="2532" height="2532" rx="430" fill="none" stroke="#FFFFFF" stroke-opacity="0.30" stroke-width="5" />
  <rect x="288.4" y="288.4" width="2495.1" height="2495.1" rx="399" fill="none" stroke="#3B82FF" stroke-opacity="0.35" stroke-width="3" />
  <g filter="url(#soft134)"><rect x="1415" y="692" width="28" height="2" fill="#FFFFFF" opacity="0.688" /><rect x="1428" y="679" width="2" height="28" fill="#FFFFFF" opacity="0.688" /><rect x="2719" y="2289" width="82" height="2" fill="#FFFFFF" opacity="0.531" /><rect x="2759" y="2249" width="2" height="82" fill="#FFFFFF" opacity="0.531" /><rect x="1033" y="376" width="58" height="2" fill="#FFFFFF" opacity="0.819" /><rect x="1061" y="348" width="2" height="58" fill="#FFFFFF" opacity="0.819" /><rect x="1269" y="2552" width="58" height="2" fill="#FFFFFF" opacity="0.774" /><rect x="1297" y="2524" width="2" height="58" fill="#FFFFFF" opacity="0.774" /><rect x="2637" y="465" width="46" height="2" fill="#FFFFFF" opacity="0.605" /><rect x="2659" y="443" width="2" height="46" fill="#FFFFFF" opacity="0.605" /><rect x="1631" y="1808" width="60" height="2" fill="#FFFFFF" opacity="0.522" /><rect x="1660" y="1779" width="2" height="60" fill="#FFFFFF" opacity="0.522" /><rect x="1364" y="2482" width="42" height="2" fill="#FFFFFF" opacity="0.517" /><rect x="1384" y="2462" width="2" height="42" fill="#FFFFFF" opacity="0.517" /><rect x="299" y="1944" width="50" height="2" fill="#FFFFFF" opacity="0.671" /><rect x="323" y="1920" width="2" height="50" fill="#FFFFFF" opacity="0.671" /><rect x="313" y="1632" width="68" height="2" fill="#FFFFFF" opacity="0.729" /><rect x="346" y="1599" width="2" height="68" fill="#FFFFFF" opacity="0.729" /><rect x="933" y="2565" width="46" height="2" fill="#FFFFFF" opacity="0.629" /><rect x="955" y="2543" width="2" height="46" fill="#FFFFFF" opacity="0.629" /><rect x="437" y="1212" width="74" height="2" fill="#FFFFFF" opacity="0.459" /><rect x="473" y="1176" width="2" height="74" fill="#FFFFFF" opacity="0.459" /><rect x="2771" y="996" width="48" height="2" fill="#FFFFFF" opacity="0.694" /><rect x="2794" y="973" width="2" height="48" fill="#FFFFFF" opacity="0.694" /><rect x="1209" y="1986" width="76" height="2" fill="#FFFFFF" opacity="0.367" /><rect x="1246" y="1949" width="2" height="76" fill="#FFFFFF" opacity="0.367" /><rect x="2383" y="2525" width="42" height="2" fill="#FFFFFF" opacity="0.348" /><rect x="2403" y="2505" width="2" height="42" fill="#FFFFFF" opacity="0.348" /><rect x="2205" y="1799" width="28" height="2" fill="#FFFFFF" opacity="0.314" /><rect x="2218" y="1786" width="2" height="28" fill="#FFFFFF" opacity="0.314" /><rect x="1233" y="567" width="30" height="2" fill="#FFFFFF" opacity="0.706" /><rect x="1247" y="553" width="2" height="30" fill="#FFFFFF" opacity="0.706" /><rect x="2774" y="384" width="60" height="2" fill="#FFFFFF" opacity="0.730" /><rect x="2803" y="355" width="2" height="60" fill="#FFFFFF" opacity="0.730" /><rect x="1443" y="2333" width="68" height="2" fill="#FFFFFF" opacity="0.675" /><rect x="1476" y="2300" width="2" height="68" fill="#FFFFFF" opacity="0.675" /><rect x="292" y="1804" width="78" height="2" fill="#FFFFFF" opacity="0.437" /><rect x="330" y="1766" width="2" height="78" fill="#FFFFFF" opacity="0.437" /><rect x="2464" y="1754" width="28" height="2" fill="#FFFFFF" opacity="0.575" /><rect x="2477" y="1741" width="2" height="28" fill="#FFFFFF" opacity="0.575" /><rect x="1464" y="1945" width="50" height="2" fill="#FFFFFF" opacity="0.841" /><rect x="1488" y="1921" width="2" height="50" fill="#FFFFFF" opacity="0.841" /><rect x="730" y="430" width="34" height="2" fill="#FFFFFF" opacity="0.566" /><rect x="746" y="414" width="2" height="34" fill="#FFFFFF" opacity="0.566" /><rect x="1763" y="1347" width="68" height="2" fill="#FFFFFF" opacity="0.523" /><rect x="1796" y="1314" width="2" height="68" fill="#FFFFFF" opacity="0.523" /><rect x="600" y="1015" width="36" height="2" fill="#FFFFFF" opacity="0.484" /><rect x="617" y="998" width="2" height="36" fill="#FFFFFF" opacity="0.484" /><rect x="1117" y="570" width="58" height="2" fill="#FFFFFF" opacity="0.597" /><rect x="1145" y="542" width="2" height="58" fill="#FFFFFF" opacity="0.597" /><rect x="578" y="772" width="26" height="2" fill="#FFFFFF" opacity="0.544" /><rect x="590" y="760" width="2" height="26" fill="#FFFFFF" opacity="0.544" /></g>
  <g opacity="0.52"><path d="M996 1582 L1316 2131 L2148 1121" fill="none" stroke="#0C2030" stroke-width="90" stroke-linecap="round" stroke-linejoin="round" /><circle cx="996" cy="1582" r="47" fill="#0C2030" /><circle cx="1316" cy="2131" r="47" fill="#0C2030" /><circle cx="2148" cy="1121" r="47" fill="#0C2030" /></g>
  <g filter="url(#soft134)"><path d="M960 1536 L1280 2085 L2112 1075" fill="none" stroke="url(#symbol134)" stroke-width="90" stroke-linecap="round" stroke-linejoin="round" /><circle cx="960" cy="1536" r="47" fill="url(#symbol134)" /><circle cx="1280" cy="2085" r="47" fill="url(#symbol134)" /><circle cx="2112" cy="1075" r="47" fill="url(#symbol134)" /></g>
  <rect x="138" y="138" width="2796" height="2796" rx="629" fill="#FFFFFF" filter="url(#grain134)" opacity="0.18" />
</svg>
