<svg xmlns="http://www.w3.org/2000/svg" width="3072" height="3072" viewBox="0 0 3072 3072">
  <title>QuartzOS App Icon 195 - solid_charts_195</title>
  <defs><linearGradient id="bg194" x1="0%" y1="0%" x2="100%" y2="100%"><stop offset="0%" stop-color="#FFD84D" /><stop offset="26%" stop-color="#36D1FF" /><stop offset="56%" stop-color="#8A5CFF" /><stop offset="78%" stop-color="#5E86C9" /><stop offset="100%" stop-color="#1C2435" /></linearGradient><radialGradient id="sun194" cx="28%" cy="17%" r="88%"><stop offset="0%" stop-color="#FFFFFF" stop-opacity="0.62" /><stop offset="30%" stop-color="#FF6AB3" stop-opacity="0.35" /><stop offset="100%" stop-color="#FF6AB3" stop-opacity="0" /></radialGradient><linearGradient id="glass194" x1="0%" y1="0%" x2="0%" y2="100%"><stop offset="0%" stop-color="#FFFFFF" stop-opacity="0.70" /><stop offset="46%" stop-color="#FFFFFF" stop-opacity="0.26" /><stop offset="100%" stop-color="#FFFFFF" stop-opacity="0.00" /></linearGradient><linearGradient id="ribbon194" x1="0%" y1="0%" x2="100%" y2="0%"><stop offset="0%" stop-color="#FFD84D" stop-opacity="0.18" /><stop offset="34%" stop-color="#36D1FF" stop-opacity="0.72" /><stop offset="66%" stop-color="#8A5CFF" stop-opacity="0.72" /><stop offset="100%" stop-color="#FF6AB3" stop-opacity="0.18" /></linearGradient><radialGradient id="orb194" cx="34%" cy="27%" r="74%"><stop offset="0%" stop-color="#FFFFFF" stop-opacity="0.84" /><stop offset="30%" stop-color="#FFD84D" stop-opacity="0.52" /><stop offset="68%" stop-color="#36D1FF" stop-opacity="0.42" /><stop offset="100%" stop-color="#8A5CFF" stop-opacity="0.20" /></radialGradient><linearGradient id="extrude194" x1="0%" y1="0%" x2="0%" y2="100%"><stop offset="0%" stop-color="#15283C" stop-opacity="0.45" /><stop offset="100%" stop-color="#08131D" stop-opacity="0.06" /></linearGradient><linearGradient id="symbol194" x1="0%" y1="0%" x2="100%" y2="100%"><stop offset="0%" stop-color="#FFFFFF" /><stop offset="100%" stop-color="#FF6AB3" /></linearGradient><filter id="shadow194" x="-40%" y="-40%" width="180%" height="180%"><feDropShadow dx="0" dy="49" stdDeviation="86" flood-color="#06111A" flood-opacity="0.54" /></filter><filter id="soft194" x="-40%" y="-40%" width="180%" height="180%"><feDropShadow dx="0" dy="0" stdDeviation="14" flood-color="#FFD84D" flood-opacity="0.45" /></filter><filter id="grain194"><feTurbulence type="fractalNoise" baseFrequency="0.986" numOctaves="2" seed="194" /><feColorMatrix type="saturate" values="0" /><feComponentTransfer><feFuncA type="table" tableValues="0 0.09" /></feComponentTransfer></filter></defs>
  <rect x="138" y="138" width="2796" height="2796" rx="629" fill="url(#bg194)" filter="url(#shadow194)" />
  <rect x="138" y="138" width="2796" height="2796" rx="629" fill="url(#sun194)" />
  <g><circle cx="561" cy="1537" r="126" fill="#FFFFFF" opacity="0.215" /><circle cx="1479" cy="1115" r="58" fill="#FFFFFF" opacity="0.230" /><circle cx="2056" cy="2617" r="156" fill="#FFFFFF" opacity="0.199" /><circle cx="1865" cy="1431" r="42" fill="#FFFFFF" opacity="0.121" /><circle cx="435" cy="2107" r="150" fill="#FFFFFF" opacity="0.085" /><circle cx="1220" cy="2644" r="151" fill="#FFFFFF" opacity="0.210" /><circle cx="2145" cy="2166" r="138" fill="#FFFFFF" opacity="0.210" /><circle cx="491" cy="2223" r="79" fill="#FFFFFF" opacity="0.140" /><circle cx="772" cy="1315" r="88" fill="#FFFFFF" opacity="0.168" /><circle cx="842" cy="1982" r="53" fill="#FFFFFF" opacity="0.119" /><circle cx="2070" cy="2504" r="120" fill="#FFFFFF" opacity="0.136" /><circle cx="1327" cy="949" r="127" fill="#FFFFFF" opacity="0.069" /><circle cx="2444" cy="1569" r="62" fill="#FFFFFF" opacity="0.097" /><circle cx="1376" cy="2173" r="51" fill="#FFFFFF" opacity="0.100" /><circle cx="2595" cy="1597" r="57" fill="#FFFFFF" opacity="0.208" /><circle cx="1085" cy="2297" r="64" fill="#FFFFFF" opacity="0.130" /><circle cx="2640" cy="477" r="127" fill="#FFFFFF" opacity="0.133" /><circle cx="1668" cy="2253" r="154" fill="#FFFFFF" opacity="0.110" /><circle cx="2042" cy="1973" r="60" fill="#FFFFFF" opacity="0.238" /><circle cx="1366" cy="731" r="136" fill="#FFFFFF" opacity="0.116" /><circle cx="2019" cy="2378" r="97" fill="#FFFFFF" opacity="0.144" /><circle cx="858" cy="1584" r="157" fill="#FFFFFF" opacity="0.151" /><circle cx="1105" cy="686" r="92" fill="#FFFFFF" opacity="0.211" /><circle cx="1803" cy="1601" r="46" fill="#FFFFFF" opacity="0.167" /><circle cx="2518" cy="1123" r="101" fill="#FFFFFF" opacity="0.203" /><circle cx="861" cy="1806" r="86" fill="#FFFFFF" opacity="0.154" /><circle cx="666" cy="850" r="39" fill="#FFFFFF" opacity="0.164" /><circle cx="2543" cy="1525" r="129" fill="#FFFFFF" opacity="0.105" /></g>
  <g><path d="M 237.4 573.3 L 2690.8 296.8 L 2690.8 732.3 L 237.4 1008.8 Z" fill="#FFFFFF" opacity="0.181" /><path d="M 355.1 879.0 L 2882.4 602.5 L 2882.4 1073.9 L 355.1 1350.4 Z" fill="#FFFFFF" opacity="0.166" /><path d="M 151.2 1172.1 L 2856.7 895.7 L 2856.7 1380.7 L 151.2 1657.1 Z" fill="#FFFFFF" opacity="0.119" /><path d="M 200.9 1429.4 L 2693.7 1152.9 L 2693.7 1649.8 L 200.9 1926.3 Z" fill="#FFFFFF" opacity="0.137" /><path d="M 218.7 1691.7 L 2900.3 1415.2 L 2900.3 1843.3 L 218.7 2119.8 Z" fill="#FFFFFF" opacity="0.187" /><path d="M 280.0 1956.1 L 2892.3 1679.6 L 2892.3 2151.6 L 280.0 2428.1 Z" fill="#FFFFFF" opacity="0.124" /><path d="M 346.2 2155.1 L 2744.1 1878.6 L 2744.1 2343.6 L 346.2 2620.1 Z" fill="#FFFFFF" opacity="0.168" /><path d="M 305.6 2475.2 L 2752.1 2198.8 L 2752.1 2672.6 L 305.6 2949.1 Z" fill="#FFFFFF" opacity="0.185" /></g>
  <g filter="url(#soft194)"><g transform="rotate(-21.79 1536.0 1536.0)"><path d="M-368.6 465.8 C -225.8 458.1, -25.8 478.7, 107.5 418.9 C 250.4 424.5, 450.4 486.9, 583.7 412.1 C 726.5 401.1, 926.5 522.3, 1059.8 437.9 C 1202.7 448.8, 1402.7 493.2, 1536.0 480.6 C 1678.8 483.8, 1878.8 458.8, 2012.2 514.3 C 2155.0 501.3, 2355.0 429.8, 2488.3 518.6 C 2631.2 517.8, 2831.2 435.1, 2964.5 490.9 C 3107.3 491.4, 3307.3 457.6, 3440.6 447.9" fill="none" stroke="url(#ribbon194)" stroke-width="58.4" stroke-linecap="round" stroke-opacity="0.120" /></g><g transform="rotate(-21.21 1536.0 1536.0)"><path d="M-368.6 668.0 C -241.7 650.7, -63.9 694.6, 54.6 693.8 C 181.6 699.6, 359.4 650.0, 477.9 726.7 C 604.8 705.4, 782.6 647.5, 901.1 724.0 C 1028.1 739.2, 1205.9 640.6, 1324.4 687.3 C 1451.3 687.6, 1629.1 659.2, 1747.6 638.9 C 1874.6 631.9, 2052.4 702.6, 2170.9 608.2 C 2297.9 609.6, 2475.6 706.0, 2594.1 613.7 C 2721.1 622.1, 2898.9 728.9, 3017.4 652.2 C 3144.4 653.6, 3322.1 679.1, 3440.6 700.3" fill="none" stroke="url(#ribbon194)" stroke-width="54.4" stroke-linecap="round" stroke-opacity="0.146" /></g><g transform="rotate(-20.63 1536.0 1536.0)"><path d="M-368.6 943.9 C -254.4 939.5, -94.4 947.3, 12.3 891.9 C 126.6 879.6, 286.6 1004.1, 393.2 874.6 C 507.5 857.8, 667.5 1019.3, 774.1 899.4 C 888.4 906.8, 1048.4 969.2, 1155.1 951.1 C 1269.4 950.6, 1429.3 937.4, 1536.0 998.5 C 1650.3 983.0, 1810.3 902.7, 1916.9 1012.7 C 2031.2 1024.0, 2191.2 866.0, 2297.9 985.1 C 2412.1 994.1, 2572.1 914.7, 2678.8 932.6 C 2793.1 935.3, 2953.1 947.4, 3059.7 886.9 C 3174.0 877.5, 3334.0 976.9, 3440.6 875.7" fill="none" stroke="url(#ribbon194)" stroke-width="50.4" stroke-linecap="round" stroke-opacity="0.172" /></g><g transform="rotate(-20.05 1536.0 1536.0)"><path d="M-368.6 1054.7 C -264.8 1044.3, -119.3 1067.7, -22.3 992.5 C 81.5 1012.8, 227.0 1087.9, 324.0 979.5 C 427.8 974.2, 573.3 1082.0, 670.3 1012.1 C 774.1 995.6, 919.6 1098.7, 1016.6 1070.6 C 1120.4 1066.6, 1265.9 1039.5, 1362.9 1119.4 C 1466.7 1119.7, 1612.2 1000.0, 1709.1 1129.1 C 1813.0 1114.4, 1958.5 974.7, 2055.4 1093.6 C 2159.3 1108.2, 2304.8 1029.5, 2401.7 1034.6 C 2505.6 1032.8, 2651.1 1063.2, 2748.0 987.8 C 2851.9 999.0, 2997.4 1102.6, 3094.3 981.6 C 3198.2 988.5, 3343.7 1121.1, 3440.6 1019.8" fill="none" stroke="url(#ribbon194)" stroke-width="46.4" stroke-linecap="round" stroke-opacity="0.198" /></g><g transform="rotate(-19.47 1536.0 1536.0)"><path d="M-368.6 1346.8 C -273.4 1397.9, -140.1 1272.0, -51.2 1429.6 C 44.0 1426.4, 177.4 1302.0, 266.2 1396.2 C 361.5 1379.4, 494.8 1290.4, 583.7 1332.9 C 678.9 1336.4, 812.2 1359.3, 901.1 1278.0 C 996.4 1257.6, 1129.7 1417.8, 1218.6 1264.9 C 1313.8 1256.9, 1447.1 1441.2, 1536.0 1301.5 C 1631.2 1306.2, 1764.6 1367.5, 1853.4 1365.6 C 1948.7 1370.9, 2082.0 1338.6, 2170.9 1418.3 C 2266.1 1394.6, 2399.4 1275.3, 2488.3 1427.7 C 2583.6 1419.8, 2716.9 1259.4, 2805.8 1388.0 C 2901.0 1373.4, 3034.3 1309.4, 3123.2 1323.3 C 3218.4 1321.0, 3351.8 1353.9, 3440.6 1272.9" fill="none" stroke="url(#ribbon194)" stroke-width="42.4" stroke-linecap="round" stroke-opacity="0.224" /></g><g transform="rotate(-18.89 1536.0 1536.0)"><path d="M-368.6 1526.6 C -225.8 1489.0, -25.8 1554.9, 107.5 1439.6 C 250.4 1417.9, 450.4 1573.6, 583.7 1447.9 C 726.5 1438.7, 926.5 1609.0, 1059.8 1503.9 C 1202.7 1505.9, 1402.7 1538.9, 1536.0 1573.7 C 1678.8 1561.9, 1878.8 1510.4, 2012.2 1615.0 C 2155.0 1625.7, 2355.0 1492.1, 2488.3 1602.6 C 2631.2 1575.8, 2831.2 1495.2, 2964.5 1544.2 C 3107.3 1537.7, 3307.3 1508.8, 3440.6 1475.1" fill="none" stroke="url(#ribbon194)" stroke-width="38.4" stroke-linecap="round" stroke-opacity="0.250" /></g><g transform="rotate(-18.31 1536.0 1536.0)"><path d="M-368.6 1650.4 C -241.7 1702.8, -63.9 1613.9, 54.6 1744.2 C 181.6 1738.8, 359.4 1581.5, 477.9 1735.4 C 604.8 1728.5, 782.6 1573.4, 901.1 1675.1 C 1028.1 1668.2, 1205.9 1625.4, 1324.4 1599.8 C 1451.3 1612.3, 1629.1 1673.1, 1747.6 1555.2 C 1874.6 1521.5, 2052.4 1707.9, 2170.9 1568.4 C 2297.9 1564.0, 2475.6 1724.9, 2594.1 1631.3 C 2721.1 1635.0, 2898.9 1661.7, 3017.4 1705.8 C 3144.4 1683.9, 3322.1 1603.0, 3440.6 1746.7" fill="none" stroke="url(#ribbon194)" stroke-width="34.4" stroke-linecap="round" stroke-opacity="0.276" /></g><g transform="rotate(-17.73 1536.0 1536.0)"><path d="M-368.6 1869.7 C -254.4 1956.7, -94.4 1785.5, 12.3 1907.6 C 126.6 1914.4, 286.6 1824.9, 393.2 1826.1 C 507.5 1836.3, 667.5 1915.3, 774.1 1771.0 C 888.4 1790.6, 1048.4 1909.2, 1155.1 1775.8 C 1269.4 1812.9, 1429.3 1923.4, 1536.0 1837.6 C 1650.3 1836.5, 1810.3 1884.7, 1916.9 1918.8 C 2031.2 1904.6, 2191.2 1852.5, 2297.9 1970.3 C 2412.1 1998.0, 2572.1 1752.4, 2678.8 1960.8 C 2793.1 1989.0, 2953.1 1824.5, 3059.7 1896.0 C 3174.0 1893.1, 3334.0 1839.4, 3440.6 1815.3" fill="none" stroke="url(#ribbon194)" stroke-width="30.4" stroke-linecap="round" stroke-opacity="0.302" /></g><g transform="rotate(-17.15 1536.0 1536.0)"><path d="M-368.6 2098.1 C -264.8 2156.1, -119.3 2036.3, -22.3 2209.4 C 81.5 2248.5, 227.0 1992.2, 324.0 2183.3 C 427.8 2155.3, 573.3 2000.4, 670.3 2105.5 C 774.1 2103.2, 919.6 2092.0, 1016.6 2023.2 C 1120.4 2021.4, 1265.9 2126.0, 1362.9 1986.4 C 1466.7 2021.6, 1612.2 2228.7, 1709.1 2017.3 C 1813.0 2028.2, 1958.5 2127.5, 2055.4 2097.2 C 2159.3 2097.1, 2304.8 2098.5, 2401.7 2177.7 C 2505.6 2176.9, 2651.1 2042.6, 2748.0 2209.9 C 2851.9 2184.4, 2997.4 2064.0, 3094.3 2174.3 C 3198.2 2182.0, 3343.7 2028.2, 3440.6 2092.5" fill="none" stroke="url(#ribbon194)" stroke-width="26.4" stroke-linecap="round" stroke-opacity="0.328" /></g><g transform="rotate(-16.57 1536.0 1536.0)"><path d="M-368.6 2315.1 C -273.4 2346.3, -140.1 2289.7, -51.2 2414.9 C 44.0 2386.0, 177.4 2197.8, 266.2 2431.0 C 361.5 2432.7, 494.8 2249.5, 583.7 2376.8 C 678.9 2391.5, 812.2 2279.6, 901.1 2285.2 C 996.4 2291.5, 1129.7 2346.5, 1218.6 2211.8 C 1313.8 2230.8, 1447.1 2373.1, 1536.0 2201.0 C 1631.2 2209.5, 1764.6 2439.4, 1853.4 2259.4 C 1948.7 2244.0, 2082.0 2357.1, 2170.9 2351.7 C 2266.1 2362.0, 2399.4 2279.5, 2488.3 2421.7 C 2583.6 2406.9, 2716.9 2192.1, 2805.8 2427.1 C 2901.0 2404.1, 3034.3 2208.2, 3123.2 2364.6 C 3218.4 2374.5, 3351.8 2293.9, 3440.6 2272.0" fill="none" stroke="url(#ribbon194)" stroke-width="22.4" stroke-linecap="round" stroke-opacity="0.354" /></g><g transform="rotate(-15.99 1536.0 1536.0)"><path d="M-368.6 2480.9 C -225.8 2421.0, -25.8 2548.8, 107.5 2358.7 C 250.4 2405.7, 450.4 2616.5, 583.7 2373.8 C 726.5 2349.6, 926.5 2547.2, 1059.8 2453.8 C 1202.7 2459.4, 1402.7 2506.2, 1536.0 2550.3 C 1678.8 2553.9, 1878.8 2443.3, 2012.2 2604.6 C 2155.0 2562.5, 2355.0 2423.6, 2488.3 2583.9 C 2631.2 2594.6, 2831.2 2396.9, 2964.5 2500.7 C 3107.3 2501.8, 3307.3 2467.3, 3440.6 2405.4" fill="none" stroke="url(#ribbon194)" stroke-width="18.4" stroke-linecap="round" stroke-opacity="0.380" /></g><g transform="rotate(-15.41 1536.0 1536.0)"><path d="M-368.6 2619.9 C -241.7 2718.7, -63.9 2507.7, 54.6 2734.8 C 181.6 2736.8, 359.4 2555.7, 477.9 2651.8 C 604.8 2640.3, 782.6 2608.1, 901.1 2549.5 C 1028.1 2543.1, 1205.9 2644.0, 1324.4 2489.9 C 1451.3 2475.5, 1629.1 2746.0, 1747.6 2509.2 C 1874.6 2493.2, 2052.4 2739.5, 2170.9 2595.7 C 2297.9 2586.2, 2475.6 2641.4, 2594.1 2696.8 C 2721.1 2713.1, 2898.9 2591.2, 3017.4 2751.4 C 3144.4 2772.3, 3322.1 2576.9, 3440.6 2726.2" fill="none" stroke="url(#ribbon194)" stroke-width="14.4" stroke-linecap="round" stroke-opacity="0.406" /></g></g>
  <g><ellipse cx="1536.0" cy="1551.9" rx="728.6" ry="605.7" fill="url(#extrude194)" opacity="0.220" /><ellipse cx="1536.0" cy="1567.7" rx="736.0" ry="610.9" fill="url(#extrude194)" opacity="0.205" /><ellipse cx="1536.0" cy="1583.6" rx="743.4" ry="616.1" fill="url(#extrude194)" opacity="0.190" /><ellipse cx="1536.0" cy="1599.5" rx="750.9" ry="621.3" fill="url(#extrude194)" opacity="0.175" /><ellipse cx="1536.0" cy="1615.4" rx="758.3" ry="626.5" fill="url(#extrude194)" opacity="0.160" /><ellipse cx="1536.0" cy="1631.2" rx="765.7" ry="631.7" fill="url(#extrude194)" opacity="0.145" /><ellipse cx="1536.0" cy="1647.1" rx="773.2" ry="636.9" fill="url(#extrude194)" opacity="0.130" /><ellipse cx="1536.0" cy="1663.0" rx="780.6" ry="642.1" fill="url(#extrude194)" opacity="0.115" /><ellipse cx="1536.0" cy="1678.8" rx="788.0" ry="647.4" fill="url(#extrude194)" opacity="0.100" /><ellipse cx="1536.0" cy="1694.7" rx="795.5" ry="652.6" fill="url(#extrude194)" opacity="0.085" /><ellipse cx="1536.0" cy="1710.6" rx="802.9" ry="657.8" fill="url(#extrude194)" opacity="0.070" /><ellipse cx="1536.0" cy="1726.5" rx="810.3" ry="663.0" fill="url(#extrude194)" opacity="0.055" /></g>
  <ellipse cx="1536.0" cy="1726.5" rx="773.2" ry="214.9" fill="#0B1D2D" opacity="0.24" />
  <ellipse cx="1536.0" cy="1536.0" rx="743.4" ry="651.3" fill="url(#orb194)" stroke="#FFFFFF" stroke-opacity="0.42" stroke-width="7" />
  <ellipse cx="1431.9" cy="1392.7" rx="505.5" ry="299.6" fill="#FFFFFF" opacity="0.25" />
  <path d="M 199.4 399.4 C 1013.8 -30.7, 2058.2 768.0, 2872.6 215.0 L 2872.6 983.0 C 2089.0 1228.8, 1013.8 307.2, 199.4 1167.4 Z" fill="url(#glass194)" />
  <rect x="270" y="270" width="2532" height="2532" rx="430" fill="none" stroke="#FFFFFF" stroke-opacity="0.30" stroke-width="5" />
  <rect x="288.4" y="288.4" width="2495.1" height="2495.1" rx="399" fill="none" stroke="#FFD84D" stroke-opacity="0.35" stroke-width="3" />
  <g filter="url(#soft194)"><rect x="500" y="1294" width="24" height="2" fill="#FFFFFF" opacity="0.847" /><rect x="511" y="1283" width="2" height="24" fill="#FFFFFF" opacity="0.847" /><rect x="1318" y="736" width="50" height="2" fill="#FFFFFF" opacity="0.489" /><rect x="1342" y="712" width="2" height="50" fill="#FFFFFF" opacity="0.489" /><rect x="1607" y="2107" width="40" height="2" fill="#FFFFFF" opacity="0.639" /><rect x="1626" y="2088" width="2" height="40" fill="#FFFFFF" opacity="0.639" /><rect x="2478" y="1684" width="84" height="2" fill="#FFFFFF" opacity="0.646" /><rect x="2519" y="1643" width="2" height="84" fill="#FFFFFF" opacity="0.646" /><rect x="325" y="1056" width="52" height="2" fill="#FFFFFF" opacity="0.835" /><rect x="350" y="1031" width="2" height="52" fill="#FFFFFF" opacity="0.835" /><rect x="1232" y="1469" width="64" height="2" fill="#FFFFFF" opacity="0.467" /><rect x="1263" y="1438" width="2" height="64" fill="#FFFFFF" opacity="0.467" /><rect x="1473" y="1273" width="68" height="2" fill="#FFFFFF" opacity="0.510" /><rect x="1506" y="1240" width="2" height="68" fill="#FFFFFF" opacity="0.510" /><rect x="1874" y="622" width="30" height="2" fill="#FFFFFF" opacity="0.394" /><rect x="1888" y="608" width="2" height="30" fill="#FFFFFF" opacity="0.394" /><rect x="2136" y="547" width="34" height="2" fill="#FFFFFF" opacity="0.562" /><rect x="2152" y="531" width="2" height="34" fill="#FFFFFF" opacity="0.562" /><rect x="2150" y="1793" width="84" height="2" fill="#FFFFFF" opacity="0.802" /><rect x="2191" y="1752" width="2" height="84" fill="#FFFFFF" opacity="0.802" /><rect x="2439" y="1886" width="54" height="2" fill="#FFFFFF" opacity="0.418" /><rect x="2465" y="1860" width="2" height="54" fill="#FFFFFF" opacity="0.418" /><rect x="1556" y="2126" width="60" height="2" fill="#FFFFFF" opacity="0.375" /><rect x="1585" y="2097" width="2" height="60" fill="#FFFFFF" opacity="0.375" /><rect x="2287" y="1551" width="32" height="2" fill="#FFFFFF" opacity="0.561" /><rect x="2302" y="1536" width="2" height="32" fill="#FFFFFF" opacity="0.561" /><rect x="2443" y="900" width="46" height="2" fill="#FFFFFF" opacity="0.840" /><rect x="2465" y="878" width="2" height="46" fill="#FFFFFF" opacity="0.840" /><rect x="1048" y="2448" width="48" height="2" fill="#FFFFFF" opacity="0.398" /><rect x="1071" y="2425" width="2" height="48" fill="#FFFFFF" opacity="0.398" /><rect x="2264" y="2284" width="30" height="2" fill="#FFFFFF" opacity="0.469" /><rect x="2278" y="2270" width="2" height="30" fill="#FFFFFF" opacity="0.469" /><rect x="876" y="2475" width="46" height="2" fill="#FFFFFF" opacity="0.306" /><rect x="898" y="2453" width="2" height="46" fill="#FFFFFF" opacity="0.306" /><rect x="1461" y="626" width="84" height="2" fill="#FFFFFF" opacity="0.526" /><rect x="1502" y="585" width="2" height="84" fill="#FFFFFF" opacity="0.526" /><rect x="486" y="675" width="64" height="2" fill="#FFFFFF" opacity="0.676" /><rect x="517" y="644" width="2" height="64" fill="#FFFFFF" opacity="0.676" /><rect x="2304" y="1159" width="50" height="2" fill="#FFFFFF" opacity="0.487" /><rect x="2328" y="1135" width="2" height="50" fill="#FFFFFF" opacity="0.487" /><rect x="2498" y="1015" width="74" height="2" fill="#FFFFFF" opacity="0.720" /><rect x="2534" y="979" width="2" height="74" fill="#FFFFFF" opacity="0.720" /><rect x="543" y="563" width="76" height="2" fill="#FFFFFF" opacity="0.711" /><rect x="580" y="526" width="2" height="76" fill="#FFFFFF" opacity="0.711" /><rect x="1296" y="1213" width="72" height="2" fill="#FFFFFF" opacity="0.335" /><rect x="1331" y="1178" width="2" height="72" fill="#FFFFFF" opacity="0.335" /><rect x="1076" y="432" width="28" height="2" fill="#FFFFFF" opacity="0.474" /><rect x="1089" y="419" width="2" height="28" fill="#FFFFFF" opacity="0.474" /><rect x="1940" y="1878" width="84" height="2" fill="#FFFFFF" opacity="0.632" /><rect x="1981" y="1837" width="2" height="84" fill="#FFFFFF" opacity="0.632" /><rect x="1073" y="740" width="70" height="2" fill="#FFFFFF" opacity="0.712" /><rect x="1107" y="706" width="2" height="70" fill="#FFFFFF" opacity="0.712" /></g>
  <g opacity="0.52"><path d="M996 1582 L1316 2131 L2148 1121" fill="none" stroke="#0C2030" stroke-width="90" stroke-linecap="round" stroke-linejoin="round" /><circle cx="996" cy="1582" r="47" fill="#0C2030" /><circle cx="1316" cy="2131" r="47" fill="#0C2030" /><circle cx="2148" cy="1121" r="47" fill="#0C2030" /></g>
  <g filter="url(#soft194)"><path d="M960 1536 L1280 2085 L2112 1075" fill="none" stroke="url(#symbol194)" stroke-width="90" stroke-linecap="round" stroke-linejoin="round" /><circle cx="960" cy="1536" r="47" fill="url(#symbol194)" /><circle cx="1280" cy="2085" r="47" fill="url(#symbol194)" /><circle cx="2112" cy="1075" r="47" fill="url(#symbol194)" /></g>
  <rect x="138" y="138" width="2796" height="2796" rx="629" fill="#FFFFFF" filter="url(#grain194)" opacity="0.18" />
</svg>
