<svg xmlns="http://www.w3.org/2000/svg" width="3072" height="3072" viewBox="0 0 3072 3072">
  <title>QuartzOS App Icon 115 - solid_cloud_115</title>
  <defs><linearGradient id="bg114" x1="0%" y1="0%" x2="100%" y2="100%"><stop offset="0%" stop-color="#8A5CFF" /><stop offset="26%" stop-color="#FF9F43" /><stop offset="56%" stop-color="#53E3A6" /><stop offset="78%" stop-color="#4B91A3" /><stop offset="100%" stop-color="#1A2630" /></linearGradient><radialGradient id="sun114" cx="29%" cy="26%" r="88%"><stop offset="0%" stop-color="#FFFFFF" stop-opacity="0.62" /><stop offset="30%" stop-color="#36D1FF" stop-opacity="0.35" /><stop offset="100%" stop-color="#36D1FF" stop-opacity="0" /></radialGradient><linearGradient id="glass114" x1="0%" y1="0%" x2="0%" y2="100%"><stop offset="0%" stop-color="#FFFFFF" stop-opacity="0.70" /><stop offset="46%" stop-color="#FFFFFF" stop-opacity="0.26" /><stop offset="100%" stop-color="#FFFFFF" stop-opacity="0.00" /></linearGradient><linearGradient id="ribbon114" x1="0%" y1="0%" x2="100%" y2="0%"><stop offset="0%" stop-color="#8A5CFF" stop-opacity="0.18" /><stop offset="34%" stop-color="#FF9F43" stop-opacity="0.72" /><stop offset="66%" stop-color="#53E3A6" stop-opacity="0.72" /><stop offset="100%" stop-color="#36D1FF" stop-opacity="0.18" /></linearGradient><radialGradient id="orb114" cx="34%" cy="27%" r="74%"><stop offset="0%" stop-color="#FFFFFF" stop-opacity="0.84" /><stop offset="30%" stop-color="#8A5CFF" stop-opacity="0.52" /><stop offset="68%" stop-color="#FF9F43" stop-opacity="0.42" /><stop offset="100%" stop-color="#53E3A6" stop-opacity="0.20" /></radialGradient><linearGradient id="extrude114" x1="0%" y1="0%" x2="0%" y2="100%"><stop offset="0%" stop-color="#15283C" stop-opacity="0.45" /><stop offset="100%" stop-color="#08131D" stop-opacity="0.06" /></linearGradient><linearGradient id="symbol114" x1="0%" y1="0%" x2="100%" y2="100%"><stop offset="0%" stop-color="#FFFFFF" /><stop offset="100%" stop-color="#36D1FF" /></linearGradient><filter id="shadow114" x="-40%" y="-40%" width="180%" height="180%"><feDropShadow dx="0" dy="49" stdDeviation="86" flood-color="#06111A" flood-opacity="0.54" /></filter><filter id="soft114" x="-40%" y="-40%" width="180%" height="180%"><feDropShadow dx="0" dy="0" stdDeviation="14" flood-color="#8A5CFF" flood-opacity="0.45" /></filter><filter id="grain114"><feTurbulence type="fractalNoise" baseFrequency="0.884" numOctaves="2" seed="114" /><feColorMatrix type="saturate" values="0" /><feComponentTransfer><feFuncA type="table" tableValues="0 0.09" /></feComponentTransfer></filter></defs>
  <rect x="138" y="138" width="2796" height="2796" rx="629" fill="url(#bg114)" filter="url(#shadow114)" />
  <rect x="138" y="138" width="2796" height="2796" rx="629" fill="url(#sun114)" />
  <g><circle cx="471" cy="2297" r="103" fill="#FFFFFF" opacity="0.122" /><circle cx="2161" cy="389" r="131" fill="#FFFFFF" opacity="0.104" /><circle cx="1554" cy="578" r="51" fill="#FFFFFF" opacity="0.067" /><circle cx="2537" cy="2035" r="69" fill="#FFFFFF" opacity="0.101" /><circle cx="2636" cy="398" r="153" fill="#FFFFFF" opacity="0.196" /><circle cx="606" cy="1187" r="70" fill="#FFFFFF" opacity="0.200" /><circle cx="665" cy="1659" r="63" fill="#FFFFFF" opacity="0.212" /><circle cx="1448" cy="2379" r="142" fill="#FFFFFF" opacity="0.102" /><circle cx="2687" cy="2575" r="58" fill="#FFFFFF" opacity="0.146" /><circle cx="2526" cy="1023" r="74" fill="#FFFFFF" opacity="0.077" /><circle cx="963" cy="861" r="111" fill="#FFFFFF" opacity="0.093" /><circle cx="2158" cy="540" r="44" fill="#FFFFFF" opacity="0.139" /><circle cx="1945" cy="1653" r="127" fill="#FFFFFF" opacity="0.173" /><circle cx="1123" cy="2685" r="71" fill="#FFFFFF" opacity="0.180" /><circle cx="1689" cy="1022" r="142" fill="#FFFFFF" opacity="0.202" /><circle cx="2083" cy="2221" r="145" fill="#FFFFFF" opacity="0.155" /><circle cx="1113" cy="2581" r="86" fill="#FFFFFF" opacity="0.129" /><circle cx="2148" cy="2700" r="59" fill="#FFFFFF" opacity="0.148" /><circle cx="377" cy="2499" r="111" fill="#FFFFFF" opacity="0.172" /><circle cx="1923" cy="652" r="52" fill="#FFFFFF" opacity="0.128" /><circle cx="424" cy="415" r="133" fill="#FFFFFF" opacity="0.115" /><circle cx="703" cy="471" r="43" fill="#FFFFFF" opacity="0.130" /><circle cx="2328" cy="327" r="48" fill="#FFFFFF" opacity="0.092" /><circle cx="1141" cy="2495" r="38" fill="#FFFFFF" opacity="0.124" /><circle cx="2116" cy="1439" r="147" fill="#FFFFFF" opacity="0.177" /><circle cx="2399" cy="2620" r="116" fill="#FFFFFF" opacity="0.123" /><circle cx="2086" cy="543" r="126" fill="#FFFFFF" opacity="0.203" /><circle cx="442" cy="1041" r="120" fill="#FFFFFF" opacity="0.171" /></g>
  <g><path d="M 232.9 603.0 L 2857.0 326.5 L 2857.0 797.8 L 232.9 1074.3 Z" fill="#FFFFFF" opacity="0.225" /><path d="M 369.6 855.1 L 2874.6 578.6 L 2874.6 1061.1 L 369.6 1337.6 Z" fill="#FFFFFF" opacity="0.097" /><path d="M 384.9 1154.7 L 2842.4 878.2 L 2842.4 1356.3 L 384.9 1632.7 Z" fill="#FFFFFF" opacity="0.206" /><path d="M 337.5 1393.1 L 2704.7 1116.6 L 2704.7 1594.4 L 337.5 1870.9 Z" fill="#FFFFFF" opacity="0.231" /><path d="M 204.5 1691.3 L 2823.4 1414.8 L 2823.4 1907.1 L 204.5 2183.6 Z" fill="#FFFFFF" opacity="0.192" /><path d="M 258.9 1889.6 L 2846.6 1613.2 L 2846.6 2093.5 L 258.9 2370.0 Z" fill="#FFFFFF" opacity="0.197" /><path d="M 283.5 2141.8 L 2890.1 1865.3 L 2890.1 2306.1 L 283.5 2582.5 Z" fill="#FFFFFF" opacity="0.171" /><path d="M 387.8 2458.2 L 2803.9 2181.7 L 2803.9 2662.8 L 387.8 2939.3 Z" fill="#FFFFFF" opacity="0.088" /></g>
  <g filter="url(#soft114)"><g transform="rotate(-11.82 1536.0 1536.0)"><path d="M-368.6 517.0 C -225.8 568.4, -25.8 477.1, 107.5 524.4 C 250.4 524.8, 450.4 508.7, 583.7 482.8 C 726.5 486.1, 926.5 547.3, 1059.8 462.0 C 1202.7 467.0, 1402.7 554.0, 1536.0 474.5 C 1678.8 491.2, 1878.8 542.1, 2012.2 512.7 C 2155.0 514.3, 2355.0 520.3, 2488.3 553.6 C 2631.2 563.1, 2831.2 492.8, 2964.5 572.2 C 3107.3 593.1, 3307.3 492.7, 3440.6 557.3" fill="none" stroke="url(#ribbon114)" stroke-width="58.4" stroke-linecap="round" stroke-opacity="0.120" /></g><g transform="rotate(-11.24 1536.0 1536.0)"><path d="M-368.6 761.2 C -241.7 801.1, -63.9 710.6, 54.6 767.3 C 181.6 766.9, 359.4 757.4, 477.9 720.9 C 604.8 716.8, 782.6 799.9, 901.1 699.0 C 1028.1 706.4, 1205.9 820.9, 1324.4 714.8 C 1451.3 701.9, 1629.1 788.4, 1747.6 758.7 C 1874.6 758.5, 2052.4 763.3, 2170.9 804.2 C 2297.9 800.0, 2475.6 723.8, 2594.1 823.5 C 2721.1 822.4, 2898.9 699.4, 3017.4 805.1 C 3144.4 798.8, 3322.1 741.6, 3440.6 760.0" fill="none" stroke="url(#ribbon114)" stroke-width="54.4" stroke-linecap="round" stroke-opacity="0.146" /></g><g transform="rotate(-10.66 1536.0 1536.0)"><path d="M-368.6 913.3 C -254.4 959.1, -94.4 877.4, 12.3 896.7 C 126.6 894.4, 286.6 932.1, 393.2 853.4 C 507.5 837.6, 667.5 967.4, 774.1 846.4 C 888.4 823.1, 1048.4 970.7, 1155.1 880.0 C 1269.4 872.0, 1429.3 926.3, 1536.0 933.8 C 1650.3 934.0, 1810.3 894.1, 1916.9 975.2 C 2031.2 974.4, 2191.2 863.4, 2297.9 979.0 C 2412.1 966.4, 2572.1 861.7, 2678.8 943.0 C 2793.1 933.2, 2953.1 903.8, 3059.7 888.9 C 3174.0 882.8, 3334.0 933.0, 3440.6 849.7" fill="none" stroke="url(#ribbon114)" stroke-width="50.4" stroke-linecap="round" stroke-opacity="0.172" /></g><g transform="rotate(-10.08 1536.0 1536.0)"><path d="M-368.6 1113.7 C -264.8 1042.9, -119.3 1172.5, -22.3 1052.8 C 81.5 1045.9, 227.0 1186.8, 324.0 1104.4 C 427.8 1108.1, 573.3 1124.5, 670.3 1161.7 C 774.1 1167.5, 919.6 1075.9, 1016.6 1189.9 C 1120.4 1167.3, 1265.9 1033.7, 1362.9 1171.9 C 1466.7 1186.9, 1612.2 1096.0, 1709.1 1118.7 C 1813.0 1119.9, 1958.5 1110.9, 2055.4 1062.4 C 2159.3 1073.0, 2304.8 1165.7, 2401.7 1037.3 C 2505.6 1037.3, 2651.1 1164.5, 2748.0 1058.6 C 2851.9 1063.1, 2997.4 1152.4, 3094.3 1113.3 C 3198.2 1113.4, 3343.7 1114.0, 3440.6 1168.3" fill="none" stroke="url(#ribbon114)" stroke-width="46.4" stroke-linecap="round" stroke-opacity="0.198" /></g><g transform="rotate(-9.50 1536.0 1536.0)"><path d="M-368.6 1311.5 C -273.4 1368.0, -140.1 1269.0, -51.2 1392.3 C 44.0 1382.5, 177.4 1241.8, 266.2 1383.0 C 361.5 1368.9, 494.8 1233.5, 583.7 1330.3 C 678.9 1326.2, 812.2 1290.7, 901.1 1266.2 C 996.4 1265.6, 1129.7 1334.9, 1218.6 1229.6 C 1313.8 1231.5, 1447.1 1395.4, 1536.0 1242.6 C 1631.2 1239.6, 1764.6 1372.8, 1853.4 1297.5 C 1948.7 1292.7, 2082.0 1317.6, 2170.9 1360.8 C 2266.1 1349.7, 2399.4 1275.4, 2488.3 1394.2 C 2583.6 1415.7, 2716.9 1225.7, 2805.8 1377.5 C 2901.0 1375.3, 3034.3 1284.0, 3123.2 1320.7 C 3218.4 1317.9, 3351.8 1305.8, 3440.6 1258.3" fill="none" stroke="url(#ribbon114)" stroke-width="42.4" stroke-linecap="round" stroke-opacity="0.224" /></g><g transform="rotate(-8.92 1536.0 1536.0)"><path d="M-368.6 1439.4 C -225.8 1483.2, -25.8 1422.9, 107.5 1522.4 C 250.4 1533.5, 450.4 1407.0, 583.7 1523.2 C 726.5 1533.2, 926.5 1391.1, 1059.8 1473.2 C 1202.7 1466.4, 1402.7 1417.7, 1536.0 1402.6 C 1678.8 1416.5, 1878.8 1454.5, 2012.2 1354.3 C 2155.0 1324.6, 2355.0 1472.6, 2488.3 1357.6 C 2631.2 1360.0, 2831.2 1489.6, 2964.5 1410.5 C 3107.3 1412.4, 3307.3 1472.7, 3440.6 1480.9" fill="none" stroke="url(#ribbon114)" stroke-width="38.4" stroke-linecap="round" stroke-opacity="0.250" /></g><g transform="rotate(-8.34 1536.0 1536.0)"><path d="M-368.6 1688.6 C -241.7 1818.5, -63.9 1583.8, 54.6 1735.4 C 181.6 1724.7, 359.4 1665.0, 477.9 1659.7 C 604.8 1655.7, 782.6 1714.6, 901.1 1601.6 C 1028.1 1624.6, 1205.9 1731.8, 1324.4 1596.2 C 1451.3 1587.0, 1629.1 1723.0, 1747.6 1646.9 C 1874.6 1645.8, 2052.4 1718.4, 2170.9 1722.9 C 2297.9 1725.5, 2475.6 1673.6, 2594.1 1778.1 C 2721.1 1754.4, 2898.9 1627.5, 3017.4 1779.1 C 3144.4 1770.4, 3322.1 1610.2, 3440.6 1725.1" fill="none" stroke="url(#ribbon114)" stroke-width="34.4" stroke-linecap="round" stroke-opacity="0.276" /></g><g transform="rotate(-7.76 1536.0 1536.0)"><path d="M-368.6 1843.1 C -254.4 1954.8, -94.4 1797.0, 12.3 1889.8 C 126.6 1897.6, 286.6 1808.3, 393.2 1808.4 C 507.5 1816.4, 667.5 1874.5, 774.1 1748.0 C 888.4 1770.9, 1048.4 1893.2, 1155.1 1745.3 C 1269.4 1711.7, 1429.3 1882.6, 1536.0 1802.0 C 1650.3 1785.9, 1810.3 1877.6, 1916.9 1883.6 C 2031.2 1889.8, 2191.2 1824.1, 2297.9 1940.6 C 2412.1 1922.4, 2572.1 1799.9, 2678.8 1938.5 C 2793.1 1915.6, 2953.1 1773.1, 3059.7 1878.5 C 3174.0 1869.0, 3334.0 1812.7, 3440.6 1797.1" fill="none" stroke="url(#ribbon114)" stroke-width="30.4" stroke-linecap="round" stroke-opacity="0.302" /></g><g transform="rotate(-7.18 1536.0 1536.0)"><path d="M-368.6 2065.3 C -264.8 1960.8, -119.3 2158.8, -22.3 2051.8 C 81.5 2054.6, 227.0 2075.9, 324.0 2135.5 C 427.8 2113.2, 573.3 1992.1, 670.3 2176.7 C 774.1 2216.7, 919.6 1942.2, 1016.6 2150.3 C 1120.4 2165.1, 1265.9 2019.4, 1362.9 2072.4 C 1466.7 2072.5, 1612.2 2057.3, 1709.1 1990.2 C 1813.0 1964.6, 1958.5 2094.7, 2055.4 1953.6 C 2159.3 1953.5, 2304.8 2103.3, 2401.7 1984.8 C 2505.6 1982.3, 2651.1 2119.0, 2748.0 2064.8 C 2851.9 2064.9, 2997.4 2065.7, 3094.3 2145.2 C 3198.2 2138.3, 3343.7 1987.9, 3440.6 2177.1" fill="none" stroke="url(#ribbon114)" stroke-width="26.4" stroke-linecap="round" stroke-opacity="0.328" /></g><g transform="rotate(-6.60 1536.0 1536.0)"><path d="M-368.6 2290.8 C -273.4 2264.3, -140.1 2309.1, -51.2 2189.8 C 44.0 2203.7, 177.4 2391.6, 266.2 2175.4 C 361.5 2215.3, 494.8 2412.4, 583.7 2230.9 C 678.9 2246.6, 812.2 2317.5, 901.1 2322.8 C 996.4 2313.4, 1129.7 2256.7, 1218.6 2395.2 C 1313.8 2402.3, 1447.1 2230.2, 1536.0 2404.3 C 1631.2 2388.8, 1764.6 2239.9, 1853.4 2344.5 C 1948.7 2341.0, 2082.0 2254.2, 2170.9 2252.1 C 2266.1 2261.4, 2399.4 2321.8, 2488.3 2183.2 C 2583.6 2218.5, 2716.9 2336.8, 2805.8 2179.5 C 2901.0 2209.5, 3034.3 2394.0, 3123.2 2243.3 C 3218.4 2250.6, 3351.8 2334.5, 3440.6 2335.9" fill="none" stroke="url(#ribbon114)" stroke-width="22.4" stroke-linecap="round" stroke-opacity="0.354" /></g><g transform="rotate(-6.02 1536.0 1536.0)"><path d="M-368.6 2493.1 C -225.8 2636.6, -25.8 2345.3, 107.5 2575.9 C 250.4 2595.0, 450.4 2420.2, 583.7 2482.7 C 726.5 2481.6, 926.5 2500.8, 1059.8 2395.8 C 1202.7 2413.9, 1402.7 2595.2, 1536.0 2368.0 C 1678.8 2376.1, 1878.8 2549.6, 2012.2 2416.1 C 2155.0 2441.2, 2355.0 2521.1, 2488.3 2510.9 C 2631.2 2504.7, 2831.2 2476.0, 2964.5 2595.0 C 3107.3 2590.1, 3307.3 2414.5, 3440.6 2617.3" fill="none" stroke="url(#ribbon114)" stroke-width="18.4" stroke-linecap="round" stroke-opacity="0.380" /></g><g transform="rotate(-5.44 1536.0 1536.0)"><path d="M-368.6 2650.9 C -241.7 2509.2, -63.9 2688.9, 54.6 2628.3 C 181.6 2629.9, 359.4 2663.0, 477.9 2729.2 C 604.8 2725.6, 782.6 2580.9, 901.1 2782.6 C 1028.1 2767.0, 1205.9 2607.0, 1324.4 2756.1 C 1451.3 2786.3, 1629.1 2578.5, 1747.6 2665.8 C 1874.6 2662.3, 2052.4 2645.1, 2170.9 2566.4 C 2297.9 2568.9, 2475.6 2744.0, 2594.1 2518.3 C 2721.1 2553.7, 2898.9 2798.9, 3017.4 2550.6 C 3144.4 2536.9, 3322.1 2690.9, 3440.6 2643.8" fill="none" stroke="url(#ribbon114)" stroke-width="14.4" stroke-linecap="round" stroke-opacity="0.406" /></g></g>
  <g><ellipse cx="1536.0" cy="1551.9" rx="728.6" ry="605.7" fill="url(#extrude114)" opacity="0.220" /><ellipse cx="1536.0" cy="1567.7" rx="736.0" ry="610.9" fill="url(#extrude114)" opacity="0.205" /><ellipse cx="1536.0" cy="1583.6" rx="743.4" ry="616.1" fill="url(#extrude114)" opacity="0.190" /><ellipse cx="1536.0" cy="1599.5" rx="750.9" ry="621.3" fill="url(#extrude114)" opacity="0.175" /><ellipse cx="1536.0" cy="1615.4" rx="758.3" ry="626.5" fill="url(#extrude114)" opacity="0.160" /><ellipse cx="1536.0" cy="1631.2" rx="765.7" ry="631.7" fill="url(#extrude114)" opacity="0.145" /><ellipse cx="1536.0" cy="1647.1" rx="773.2" ry="636.9" fill="url(#extrude114)" opacity="0.130" /><ellipse cx="1536.0" cy="1663.0" rx="780.6" ry="642.1" fill="url(#extrude114)" opacity="0.115" /><ellipse cx="1536.0" cy="1678.8" rx="788.0" ry="647.4" fill="url(#extrude114)" opacity="0.100" /><ellipse cx="1536.0" cy="1694.7" rx="795.5" ry="652.6" fill="url(#extrude114)" opacity="0.085" /><ellipse cx="1536.0" cy="1710.6" rx="802.9" ry="657.8" fill="url(#extrude114)" opacity="0.070" /><ellipse cx="1536.0" cy="1726.5" rx="810.3" ry="663.0" fill="url(#extrude114)" opacity="0.055" /></g>
  <ellipse cx="1536.0" cy="1726.5" rx="773.2" ry="214.9" fill="#0B1D2D" opacity="0.24" />
  <ellipse cx="1536.0" cy="1536.0" rx="743.4" ry="651.3" fill="url(#orb114)" stroke="#FFFFFF" stroke-opacity="0.42" stroke-width="7" />
  <ellipse cx="1431.9" cy="1392.7" rx="505.5" ry="299.6" fill="#FFFFFF" opacity="0.25" />
  <path d="M 199.4 399.4 C 1013.8 -30.7, 2058.2 768.0, 2872.6 215.0 L 2872.6 983.0 C 2089.0 1228.8, 1013.8 307.2, 199.4 1167.4 Z" fill="url(#glass114)" />
  <rect x="270" y="270" width="2532" height="2532" rx="430" fill="none" stroke="#FFFFFF" stroke-opacity="0.30" stroke-width="5" />
  <rect x="288.4" y="288.4" width="2495.1" height="2495.1" rx="399" fill="none" stroke="#8A5CFF" stroke-opacity="0.35" stroke-width="3" />
  <g filter="url(#soft114)"><rect x="1789" y="417" width="40" height="2" fill="#FFFFFF" opacity="0.326" /><rect x="1808" y="398" width="2" height="40" fill="#FFFFFF" opacity="0.326" /><rect x="1948" y="344" width="48" height="2" fill="#FFFFFF" opacity="0.799" /><rect x="1971" y="321" width="2" height="48" fill="#FFFFFF" opacity="0.799" /><rect x="1515" y="1055" width="54" height="2" fill="#FFFFFF" opacity="0.583" /><rect x="1541" y="1029" width="2" height="54" fill="#FFFFFF" opacity="0.583" /><rect x="772" y="2205" width="34" height="2" fill="#FFFFFF" opacity="0.842" /><rect x="788" y="2189" width="2" height="34" fill="#FFFFFF" opacity="0.842" /><rect x="590" y="2685" width="80" height="2" fill="#FFFFFF" opacity="0.409" /><rect x="629" y="2646" width="2" height="80" fill="#FFFFFF" opacity="0.409" /><rect x="711" y="1858" width="48" height="2" fill="#FFFFFF" opacity="0.761" /><rect x="734" y="1835" width="2" height="48" fill="#FFFFFF" opacity="0.761" /><rect x="2488" y="2179" width="40" height="2" fill="#FFFFFF" opacity="0.318" /><rect x="2507" y="2160" width="2" height="40" fill="#FFFFFF" opacity="0.318" /><rect x="2255" y="2217" width="84" height="2" fill="#FFFFFF" opacity="0.758" /><rect x="2296" y="2176" width="2" height="84" fill="#FFFFFF" opacity="0.758" /><rect x="1187" y="2458" width="30" height="2" fill="#FFFFFF" opacity="0.338" /><rect x="1201" y="2444" width="2" height="30" fill="#FFFFFF" opacity="0.338" /><rect x="466" y="1603" width="30" height="2" fill="#FFFFFF" opacity="0.483" /><rect x="480" y="1589" width="2" height="30" fill="#FFFFFF" opacity="0.483" /><rect x="2578" y="1945" width="48" height="2" fill="#FFFFFF" opacity="0.364" /><rect x="2601" y="1922" width="2" height="48" fill="#FFFFFF" opacity="0.364" /><rect x="796" y="275" width="34" height="2" fill="#FFFFFF" opacity="0.499" /><rect x="812" y="259" width="2" height="34" fill="#FFFFFF" opacity="0.499" /><rect x="1156" y="1812" width="74" height="2" fill="#FFFFFF" opacity="0.818" /><rect x="1192" y="1776" width="2" height="74" fill="#FFFFFF" opacity="0.818" /><rect x="853" y="2093" width="34" height="2" fill="#FFFFFF" opacity="0.764" /><rect x="869" y="2077" width="2" height="34" fill="#FFFFFF" opacity="0.764" /><rect x="366" y="793" width="32" height="2" fill="#FFFFFF" opacity="0.325" /><rect x="381" y="778" width="2" height="32" fill="#FFFFFF" opacity="0.325" /><rect x="2799" y="1216" width="30" height="2" fill="#FFFFFF" opacity="0.520" /><rect x="2813" y="1202" width="2" height="30" fill="#FFFFFF" opacity="0.520" /><rect x="863" y="2743" width="30" height="2" fill="#FFFFFF" opacity="0.841" /><rect x="877" y="2729" width="2" height="30" fill="#FFFFFF" opacity="0.841" /><rect x="1516" y="1710" width="42" height="2" fill="#FFFFFF" opacity="0.694" /><rect x="1536" y="1690" width="2" height="42" fill="#FFFFFF" opacity="0.694" /><rect x="2423" y="1688" width="46" height="2" fill="#FFFFFF" opacity="0.445" /><rect x="2445" y="1666" width="2" height="46" fill="#FFFFFF" opacity="0.445" /><rect x="1271" y="2045" width="38" height="2" fill="#FFFFFF" opacity="0.553" /><rect x="1289" y="2027" width="2" height="38" fill="#FFFFFF" opacity="0.553" /><rect x="1400" y="2294" width="24" height="2" fill="#FFFFFF" opacity="0.742" /><rect x="1411" y="2283" width="2" height="24" fill="#FFFFFF" opacity="0.742" /><rect x="335" y="2421" width="48" height="2" fill="#FFFFFF" opacity="0.721" /><rect x="358" y="2398" width="2" height="48" fill="#FFFFFF" opacity="0.721" /><rect x="1534" y="2715" width="36" height="2" fill="#FFFFFF" opacity="0.817" /><rect x="1551" y="2698" width="2" height="36" fill="#FFFFFF" opacity="0.817" /><rect x="1679" y="2173" width="80" height="2" fill="#FFFFFF" opacity="0.460" /><rect x="1718" y="2134" width="2" height="80" fill="#FFFFFF" opacity="0.460" /><rect x="558" y="262" width="38" height="2" fill="#FFFFFF" opacity="0.312" /><rect x="576" y="244" width="2" height="38" fill="#FFFFFF" opacity="0.312" /><rect x="1785" y="2377" width="24" height="2" fill="#FFFFFF" opacity="0.753" /><rect x="1796" y="2366" width="2" height="24" fill="#FFFFFF" opacity="0.753" /></g>
  <g opacity="0.52"><path d="M996 1582 Q1572 1006, 2148 1582" fill="none" stroke="#0C2030" stroke-width="90" /><path d="M996 1801 Q1572 1198, 2148 1801" fill="none" stroke="#0C2030" stroke-width="88" opacity="0.9" /><path d="M996 1966 Q1572 1326, 2148 1966" fill="none" stroke="#0C2030" stroke-width="87" opacity="0.75" /></g>
  <g filter="url(#soft114)"><path d="M960 1536 Q1536 960, 2112 1536" fill="none" stroke="url(#symbol114)" stroke-width="90" /><path d="M960 1755 Q1536 1152, 2112 1755" fill="none" stroke="url(#symbol114)" stroke-width="88" opacity="0.9" /><path d="M960 1920 Q1536 1280, 2112 1920" fill="none" stroke="url(#symbol114)" stroke-width="87" opacity="0.75" /></g>
  <rect x="138" y="138" width="2796" height="2796" rx="629" fill="#FFFFFF" filter="url(#grain114)" opacity="0.18" />
</svg>
