<svg xmlns="http://www.w3.org/2000/svg" width="3072" height="3072" viewBox="0 0 3072 3072">
  <title>QuartzOS App Icon 035 - solid_studio_035</title>
  <defs><linearGradient id="bg34" x1="0%" y1="0%" x2="100%" y2="100%"><stop offset="0%" stop-color="#53E3A6" /><stop offset="26%" stop-color="#3B82FF" /><stop offset="56%" stop-color="#FF6AB3" /><stop offset="78%" stop-color="#58A3D8" /><stop offset="100%" stop-color="#1D2F45" /></linearGradient><radialGradient id="sun34" cx="28%" cy="14%" r="88%"><stop offset="0%" stop-color="#FFFFFF" stop-opacity="0.62" /><stop offset="30%" stop-color="#FF9F43" stop-opacity="0.35" /><stop offset="100%" stop-color="#FF9F43" stop-opacity="0" /></radialGradient><linearGradient id="glass34" x1="0%" y1="0%" x2="0%" y2="100%"><stop offset="0%" stop-color="#FFFFFF" stop-opacity="0.70" /><stop offset="46%" stop-color="#FFFFFF" stop-opacity="0.26" /><stop offset="100%" stop-color="#FFFFFF" stop-opacity="0.00" /></linearGradient><linearGradient id="ribbon34" x1="0%" y1="0%" x2="100%" y2="0%"><stop offset="0%" stop-color="#53E3A6" stop-opacity="0.18" /><stop offset="34%" stop-color="#3B82FF" stop-opacity="0.72" /><stop offset="66%" stop-color="#FF6AB3" stop-opacity="0.72" /><stop offset="100%" stop-color="#FF9F43" stop-opacity="0.18" /></linearGradient><radialGradient id="orb34" cx="34%" cy="27%" r="74%"><stop offset="0%" stop-color="#FFFFFF" stop-opacity="0.84" /><stop offset="30%" stop-color="#53E3A6" stop-opacity="0.52" /><stop offset="68%" stop-color="#3B82FF" stop-opacity="0.42" /><stop offset="100%" stop-color="#FF6AB3" stop-opacity="0.20" /></radialGradient><linearGradient id="extrude34" x1="0%" y1="0%" x2="0%" y2="100%"><stop offset="0%" stop-color="#15283C" stop-opacity="0.45" /><stop offset="100%" stop-color="#08131D" stop-opacity="0.06" /></linearGradient><linearGradient id="symbol34" x1="0%" y1="0%" x2="100%" y2="100%"><stop offset="0%" stop-color="#FFFFFF" /><stop offset="100%" stop-color="#FF9F43" /></linearGradient><filter id="shadow34" x="-40%" y="-40%" width="180%" height="180%"><feDropShadow dx="0" dy="49" stdDeviation="86" flood-color="#06111A" flood-opacity="0.54" /></filter><filter id="soft34" x="-40%" y="-40%" width="180%" height="180%"><feDropShadow dx="0" dy="0" stdDeviation="14" flood-color="#53E3A6" flood-opacity="0.45" /></filter><filter id="grain34"><feTurbulence type="fractalNoise" baseFrequency="0.945" numOctaves="2" seed="34" /><feColorMatrix type="saturate" values="0" /><feComponentTransfer><feFuncA type="table" tableValues="0 0.09" /></feComponentTransfer></filter></defs>
  <rect x="138" y="138" width="2796" height="2796" rx="629" fill="url(#bg34)" filter="url(#shadow34)" />
  <rect x="138" y="138" width="2796" height="2796" rx="629" fill="url(#sun34)" />
  <g><circle cx="992" cy="2320" r="117" fill="#FFFFFF" opacity="0.178" /><circle cx="2219" cy="1783" r="38" fill="#FFFFFF" opacity="0.144" /><circle cx="1855" cy="843" r="90" fill="#FFFFFF" opacity="0.074" /><circle cx="1667" cy="1193" r="102" fill="#FFFFFF" opacity="0.221" /><circle cx="1315" cy="2382" r="151" fill="#FFFFFF" opacity="0.165" /><circle cx="1908" cy="2061" r="45" fill="#FFFFFF" opacity="0.062" /><circle cx="1086" cy="1963" r="108" fill="#FFFFFF" opacity="0.175" /><circle cx="407" cy="1807" r="129" fill="#FFFFFF" opacity="0.089" /><circle cx="2005" cy="2298" r="125" fill="#FFFFFF" opacity="0.123" /><circle cx="2449" cy="640" r="110" fill="#FFFFFF" opacity="0.102" /><circle cx="1627" cy="888" r="116" fill="#FFFFFF" opacity="0.083" /><circle cx="726" cy="2223" r="45" fill="#FFFFFF" opacity="0.097" /><circle cx="1310" cy="644" r="63" fill="#FFFFFF" opacity="0.164" /><circle cx="1742" cy="1899" r="59" fill="#FFFFFF" opacity="0.060" /><circle cx="1766" cy="887" r="42" fill="#FFFFFF" opacity="0.206" /><circle cx="1018" cy="829" r="71" fill="#FFFFFF" opacity="0.176" /><circle cx="1096" cy="2277" r="62" fill="#FFFFFF" opacity="0.239" /><circle cx="459" cy="515" r="66" fill="#FFFFFF" opacity="0.197" /><circle cx="2310" cy="1704" r="105" fill="#FFFFFF" opacity="0.104" /><circle cx="2523" cy="1658" r="78" fill="#FFFFFF" opacity="0.121" /><circle cx="2315" cy="1114" r="111" fill="#FFFFFF" opacity="0.205" /><circle cx="2197" cy="2576" r="111" fill="#FFFFFF" opacity="0.215" /><circle cx="2061" cy="1501" r="148" fill="#FFFFFF" opacity="0.163" /><circle cx="2472" cy="1958" r="141" fill="#FFFFFF" opacity="0.186" /><circle cx="489" cy="1249" r="45" fill="#FFFFFF" opacity="0.228" /><circle cx="1944" cy="1173" r="49" fill="#FFFFFF" opacity="0.214" /><circle cx="2635" cy="1206" r="74" fill="#FFFFFF" opacity="0.216" /><circle cx="1236" cy="1332" r="125" fill="#FFFFFF" opacity="0.239" /></g>
  <g><path d="M 333.9 640.5 L 2806.4 364.0 L 2806.4 813.8 L 333.9 1090.3 Z" fill="#FFFFFF" opacity="0.231" /><path d="M 164.3 906.3 L 2879.3 629.8 L 2879.3 1089.7 L 164.3 1366.2 Z" fill="#FFFFFF" opacity="0.171" /><path d="M 244.7 1091.4 L 2900.2 814.9 L 2900.2 1265.2 L 244.7 1541.7 Z" fill="#FFFFFF" opacity="0.186" /><path d="M 304.7 1414.9 L 2698.1 1138.4 L 2698.1 1611.6 L 304.7 1888.1 Z" fill="#FFFFFF" opacity="0.175" /><path d="M 163.9 1636.2 L 2918.7 1359.7 L 2918.7 1829.5 L 163.9 2106.0 Z" fill="#FFFFFF" opacity="0.189" /><path d="M 369.9 1892.7 L 2923.2 1616.2 L 2923.2 2075.6 L 369.9 2352.0 Z" fill="#FFFFFF" opacity="0.218" /><path d="M 321.1 2205.0 L 2704.2 1928.6 L 2704.2 2399.8 L 321.1 2676.3 Z" fill="#FFFFFF" opacity="0.201" /><path d="M 338.5 2450.0 L 2871.1 2173.5 L 2871.1 2666.2 L 338.5 2942.7 Z" fill="#FFFFFF" opacity="0.146" /></g>
  <g filter="url(#soft34)"><g transform="rotate(-21.81 1536.0 1536.0)"><path d="M-368.6 461.7 C -225.8 479.4, -25.8 440.6, 107.5 512.9 C 250.4 510.4, 450.4 443.7, 583.7 512.4 C 726.5 524.8, 926.5 420.8, 1059.8 481.2 C 1202.7 479.0, 1402.7 441.5, 1536.0 438.1 C 1678.8 438.7, 1878.8 474.0, 2012.2 409.4 C 2155.0 408.8, 2355.0 492.0, 2488.3 412.4 C 2631.2 407.7, 2831.2 518.6, 2964.5 445.3 C 3107.3 450.5, 3307.3 470.7, 3440.6 488.1" fill="none" stroke="url(#ribbon34)" stroke-width="58.4" stroke-linecap="round" stroke-opacity="0.120" /></g><g transform="rotate(-21.23 1536.0 1536.0)"><path d="M-368.6 680.7 C -241.7 659.2, -63.9 694.4, 54.6 694.1 C 181.6 697.7, 359.4 671.7, 477.9 733.8 C 604.8 724.4, 782.6 639.7, 901.1 741.2 C 1028.1 748.1, 1205.9 661.5, 1324.4 711.9 C 1451.3 710.7, 1629.1 664.8, 1747.6 663.7 C 1874.6 663.2, 2052.4 698.7, 2170.9 625.8 C 2297.9 611.2, 2475.6 730.5, 2594.1 621.2 C 2721.1 598.6, 2898.9 733.6, 3017.4 652.7 C 3144.4 651.3, 3322.1 702.5, 3440.6 701.2" fill="none" stroke="url(#ribbon34)" stroke-width="54.4" stroke-linecap="round" stroke-opacity="0.146" /></g><g transform="rotate(-20.65 1536.0 1536.0)"><path d="M-368.6 857.9 C -254.4 891.2, -94.4 833.4, 12.3 923.4 C 126.6 904.8, 286.6 829.8, 393.2 920.0 C 507.5 905.8, 667.5 828.4, 774.1 879.0 C 888.4 879.8, 1048.4 851.0, 1155.1 825.1 C 1269.4 823.4, 1429.3 874.5, 1536.0 791.2 C 1650.3 780.9, 1810.3 913.0, 1916.9 797.7 C 2031.2 782.4, 2191.2 907.4, 2297.9 840.7 C 2412.1 839.8, 2572.1 864.4, 2678.8 894.2 C 2793.1 901.5, 2953.1 833.4, 3059.7 925.6 C 3174.0 949.9, 3334.0 812.4, 3440.6 916.0" fill="none" stroke="url(#ribbon34)" stroke-width="50.4" stroke-linecap="round" stroke-opacity="0.172" /></g><g transform="rotate(-20.07 1536.0 1536.0)"><path d="M-368.6 1127.5 C -264.8 1084.5, -119.3 1157.0, -22.3 1051.5 C 81.5 1050.8, 227.0 1174.6, 324.0 1068.3 C 427.8 1065.7, 573.3 1146.2, 670.3 1121.1 C 774.1 1122.4, 919.6 1133.5, 1016.6 1177.7 C 1120.4 1172.3, 1265.9 1104.6, 1362.9 1203.9 C 1466.7 1199.7, 1612.2 1065.6, 1709.1 1183.7 C 1813.0 1174.0, 1958.5 1088.3, 2055.4 1129.4 C 2159.3 1130.0, 2304.8 1126.3, 2401.7 1074.0 C 2505.6 1071.3, 2651.1 1164.7, 2748.0 1051.0 C 2851.9 1048.9, 2997.4 1181.7, 3094.3 1074.4 C 3198.2 1088.6, 3343.7 1149.2, 3440.6 1130.0" fill="none" stroke="url(#ribbon34)" stroke-width="46.4" stroke-linecap="round" stroke-opacity="0.198" /></g><g transform="rotate(-19.49 1536.0 1536.0)"><path d="M-368.6 1332.7 C -273.4 1408.8, -140.1 1301.1, -51.2 1416.2 C 44.0 1396.9, 177.4 1276.8, 266.2 1392.0 C 361.5 1413.3, 494.8 1276.8, 583.7 1331.9 C 678.9 1331.8, 812.2 1333.2, 901.1 1272.2 C 996.4 1270.8, 1129.7 1382.7, 1218.6 1249.2 C 1313.8 1218.4, 1447.1 1394.6, 1536.0 1276.9 C 1631.2 1261.5, 1764.6 1398.0, 1853.4 1338.4 C 1948.7 1339.2, 2082.0 1329.2, 2170.9 1396.5 C 2266.1 1388.3, 2399.4 1275.7, 2488.3 1415.9 C 2583.6 1446.3, 2716.9 1259.2, 2805.8 1384.8 C 2901.0 1389.7, 3034.3 1286.2, 3123.2 1322.1 C 3218.4 1322.7, 3351.8 1337.2, 3440.6 1265.9" fill="none" stroke="url(#ribbon34)" stroke-width="42.4" stroke-linecap="round" stroke-opacity="0.224" /></g><g transform="rotate(-18.91 1536.0 1536.0)"><path d="M-368.6 1442.6 C -225.8 1426.7, -25.8 1456.1, 107.5 1494.4 C 250.4 1513.2, 450.4 1399.1, 583.7 1532.0 C 726.5 1513.9, 926.5 1349.8, 1059.8 1515.4 C 1202.7 1529.0, 1402.7 1361.0, 1536.0 1454.6 C 1678.8 1456.8, 1878.8 1429.4, 2012.2 1386.5 C 2155.0 1401.5, 2355.0 1494.7, 2488.3 1352.4 C 2631.2 1358.2, 2831.2 1503.3, 2964.5 1373.0 C 3107.3 1356.9, 3307.3 1504.7, 3440.6 1435.8" fill="none" stroke="url(#ribbon34)" stroke-width="38.4" stroke-linecap="round" stroke-opacity="0.250" /></g><g transform="rotate(-18.33 1536.0 1536.0)"><path d="M-368.6 1690.3 C -241.7 1746.4, -63.9 1661.8, 54.6 1695.8 C 181.6 1696.9, 359.4 1686.7, 477.9 1624.2 C 604.8 1623.7, 782.6 1714.4, 901.1 1592.6 C 1028.1 1588.2, 1205.9 1733.9, 1324.4 1620.3 C 1451.3 1594.3, 1629.1 1732.1, 1747.6 1690.5 C 1874.6 1690.5, 2052.4 1690.1, 2170.9 1760.5 C 2297.9 1787.3, 2475.6 1627.1, 2594.1 1787.9 C 2721.1 1750.6, 2898.9 1576.3, 3017.4 1756.1 C 3144.4 1780.1, 3322.1 1633.7, 3440.6 1684.4" fill="none" stroke="url(#ribbon34)" stroke-width="34.4" stroke-linecap="round" stroke-opacity="0.276" /></g><g transform="rotate(-17.75 1536.0 1536.0)"><path d="M-368.6 1834.5 C -254.4 1768.7, -94.4 1885.4, 12.3 1857.5 C 126.6 1854.1, 286.6 1815.5, 393.2 1923.8 C 507.5 1903.0, 667.5 1794.5, 774.1 1936.0 C 888.4 1946.6, 1048.4 1770.5, 1155.1 1886.6 C 1269.4 1881.4, 1429.3 1817.6, 1536.0 1805.6 C 1650.3 1814.4, 1810.3 1847.1, 1916.9 1742.1 C 2031.2 1737.7, 2191.2 1904.5, 2297.9 1734.7 C 2412.1 1773.5, 2572.1 1940.0, 2678.8 1787.8 C 2793.1 1798.6, 2953.1 1878.9, 3059.7 1869.2 C 3174.0 1868.8, 3334.0 1798.5, 3440.6 1929.6" fill="none" stroke="url(#ribbon34)" stroke-width="30.4" stroke-linecap="round" stroke-opacity="0.302" /></g><g transform="rotate(-17.17 1536.0 1536.0)"><path d="M-368.6 2035.8 C -264.8 2041.1, -119.3 2033.4, -22.3 2118.8 C 81.5 2102.9, 227.0 1947.5, 324.0 2147.4 C 427.8 2164.8, 573.3 1992.8, 670.3 2108.3 C 774.1 2116.7, 919.6 1994.4, 1016.6 2025.2 C 1120.4 2027.7, 1265.9 2046.2, 1362.9 1948.6 C 1466.7 1964.3, 1612.2 2137.0, 1709.1 1924.9 C 1813.0 1883.3, 1958.5 2137.3, 2055.4 1968.5 C 2159.3 1954.6, 2304.8 2111.3, 2401.7 2052.9 C 2505.6 2058.5, 2651.1 2024.1, 2748.0 2127.0 C 2851.9 2149.4, 2997.4 1976.7, 3094.3 2145.8 C 3198.2 2183.9, 3343.7 1912.9, 3440.6 2097.9" fill="none" stroke="url(#ribbon34)" stroke-width="26.4" stroke-linecap="round" stroke-opacity="0.328" /></g><g transform="rotate(-16.59 1536.0 1536.0)"><path d="M-368.6 2256.2 C -273.4 2129.2, -140.1 2373.0, -51.2 2226.4 C 44.0 2223.7, 177.4 2283.8, 266.2 2318.0 C 361.5 2339.6, 494.8 2198.1, 583.7 2372.1 C 678.9 2357.9, 812.2 2195.6, 901.1 2356.0 C 996.4 2363.6, 1129.7 2168.9, 1218.6 2279.3 C 1313.8 2277.4, 1447.1 2247.3, 1536.0 2188.6 C 1631.2 2206.2, 1764.6 2288.2, 1853.4 2139.0 C 1948.7 2178.9, 2082.0 2320.1, 2170.9 2160.5 C 2266.1 2138.1, 2399.4 2360.2, 2488.3 2240.0 C 2583.6 2235.7, 2716.9 2261.5, 2805.8 2329.4 C 2901.0 2335.9, 3034.3 2187.1, 3123.2 2374.4 C 3218.4 2381.3, 3351.8 2139.6, 3440.6 2347.7" fill="none" stroke="url(#ribbon34)" stroke-width="22.4" stroke-linecap="round" stroke-opacity="0.354" /></g><g transform="rotate(-16.01 1536.0 1536.0)"><path d="M-368.6 2412.1 C -225.8 2460.7, -25.8 2378.2, 107.5 2350.7 C 250.4 2339.6, 450.4 2463.5, 583.7 2290.4 C 726.5 2249.4, 926.5 2470.8, 1059.8 2303.9 C 1202.7 2342.6, 1402.7 2537.7, 1536.0 2383.0 C 1678.8 2378.1, 1878.8 2442.5, 2012.2 2479.7 C 2155.0 2457.0, 2355.0 2371.3, 2488.3 2535.4 C 2631.2 2525.7, 2831.2 2304.2, 2964.5 2516.3 C 3107.3 2551.0, 3307.3 2336.9, 3440.6 2433.9" fill="none" stroke="url(#ribbon34)" stroke-width="18.4" stroke-linecap="round" stroke-opacity="0.380" /></g><g transform="rotate(-15.43 1536.0 1536.0)"><path d="M-368.6 2607.7 C -241.7 2758.7, -63.9 2519.7, 54.6 2692.8 C 181.6 2718.4, 359.4 2530.4, 477.9 2593.6 C 604.8 2599.2, 782.6 2623.6, 901.1 2503.0 C 1028.1 2502.2, 1205.9 2718.6, 1324.4 2476.0 C 1451.3 2515.2, 1629.1 2720.7, 1747.6 2528.8 C 1874.6 2529.3, 2052.4 2671.1, 2170.9 2629.6 C 2297.9 2627.5, 2475.6 2582.6, 2594.1 2717.1 C 2721.1 2754.3, 2898.9 2554.1, 3017.4 2738.3 C 3144.4 2757.9, 3322.1 2561.3, 3440.6 2680.3" fill="none" stroke="url(#ribbon34)" stroke-width="14.4" stroke-linecap="round" stroke-opacity="0.406" /></g></g>
  <g><ellipse cx="1536.0" cy="1551.9" rx="728.6" ry="605.7" fill="url(#extrude34)" opacity="0.220" /><ellipse cx="1536.0" cy="1567.7" rx="736.0" ry="610.9" fill="url(#extrude34)" opacity="0.205" /><ellipse cx="1536.0" cy="1583.6" rx="743.4" ry="616.1" fill="url(#extrude34)" opacity="0.190" /><ellipse cx="1536.0" cy="1599.5" rx="750.9" ry="621.3" fill="url(#extrude34)" opacity="0.175" /><ellipse cx="1536.0" cy="1615.4" rx="758.3" ry="626.5" fill="url(#extrude34)" opacity="0.160" /><ellipse cx="1536.0" cy="1631.2" rx="765.7" ry="631.7" fill="url(#extrude34)" opacity="0.145" /><ellipse cx="1536.0" cy="1647.1" rx="773.2" ry="636.9" fill="url(#extrude34)" opacity="0.130" /><ellipse cx="1536.0" cy="1663.0" rx="780.6" ry="642.1" fill="url(#extrude34)" opacity="0.115" /><ellipse cx="1536.0" cy="1678.8" rx="788.0" ry="647.4" fill="url(#extrude34)" opacity="0.100" /><ellipse cx="1536.0" cy="1694.7" rx="795.5" ry="652.6" fill="url(#extrude34)" opacity="0.085" /><ellipse cx="1536.0" cy="1710.6" rx="802.9" ry="657.8" fill="url(#extrude34)" opacity="0.070" /><ellipse cx="1536.0" cy="1726.5" rx="810.3" ry="663.0" fill="url(#extrude34)" opacity="0.055" /></g>
  <ellipse cx="1536.0" cy="1726.5" rx="773.2" ry="214.9" fill="#0B1D2D" opacity="0.24" />
  <ellipse cx="1536.0" cy="1536.0" rx="743.4" ry="651.3" fill="url(#orb34)" stroke="#FFFFFF" stroke-opacity="0.42" stroke-width="7" />
  <ellipse cx="1431.9" cy="1392.7" rx="505.5" ry="299.6" fill="#FFFFFF" opacity="0.25" />
  <path d="M 199.4 399.4 C 1013.8 -30.7, 2058.2 768.0, 2872.6 215.0 L 2872.6 983.0 C 2089.0 1228.8, 1013.8 307.2, 199.4 1167.4 Z" fill="url(#glass34)" />
  <rect x="270" y="270" width="2532" height="2532" rx="430" fill="none" stroke="#FFFFFF" stroke-opacity="0.30" stroke-width="5" />
  <rect x="288.4" y="288.4" width="2495.1" height="2495.1" rx="399" fill="none" stroke="#53E3A6" stroke-opacity="0.35" stroke-width="3" />
  <g filter="url(#soft34)"><rect x="2012" y="943" width="54" height="2" fill="#FFFFFF" opacity="0.529" /><rect x="2038" y="917" width="2" height="54" fill="#FFFFFF" opacity="0.529" /><rect x="1077" y="2090" width="26" height="2" fill="#FFFFFF" opacity="0.613" /><rect x="1089" y="2078" width="2" height="26" fill="#FFFFFF" opacity="0.613" /><rect x="1558" y="2190" width="70" height="2" fill="#FFFFFF" opacity="0.507" /><rect x="1592" y="2156" width="2" height="70" fill="#FFFFFF" opacity="0.507" /><rect x="1790" y="1388" width="76" height="2" fill="#FFFFFF" opacity="0.725" /><rect x="1827" y="1351" width="2" height="76" fill="#FFFFFF" opacity="0.725" /><rect x="934" y="700" width="64" height="2" fill="#FFFFFF" opacity="0.665" /><rect x="965" y="669" width="2" height="64" fill="#FFFFFF" opacity="0.665" /><rect x="1030" y="617" width="46" height="2" fill="#FFFFFF" opacity="0.694" /><rect x="1052" y="595" width="2" height="46" fill="#FFFFFF" opacity="0.694" /><rect x="1363" y="628" width="82" height="2" fill="#FFFFFF" opacity="0.323" /><rect x="1403" y="588" width="2" height="82" fill="#FFFFFF" opacity="0.323" /><rect x="1019" y="1260" width="52" height="2" fill="#FFFFFF" opacity="0.320" /><rect x="1044" y="1235" width="2" height="52" fill="#FFFFFF" opacity="0.320" /><rect x="2751" y="808" width="58" height="2" fill="#FFFFFF" opacity="0.802" /><rect x="2779" y="780" width="2" height="58" fill="#FFFFFF" opacity="0.802" /><rect x="463" y="2220" width="74" height="2" fill="#FFFFFF" opacity="0.674" /><rect x="499" y="2184" width="2" height="74" fill="#FFFFFF" opacity="0.674" /><rect x="2500" y="902" width="40" height="2" fill="#FFFFFF" opacity="0.617" /><rect x="2519" y="883" width="2" height="40" fill="#FFFFFF" opacity="0.617" /><rect x="736" y="378" width="74" height="2" fill="#FFFFFF" opacity="0.424" /><rect x="772" y="342" width="2" height="74" fill="#FFFFFF" opacity="0.424" /><rect x="330" y="2663" width="36" height="2" fill="#FFFFFF" opacity="0.334" /><rect x="347" y="2646" width="2" height="36" fill="#FFFFFF" opacity="0.334" /><rect x="302" y="1377" width="28" height="2" fill="#FFFFFF" opacity="0.700" /><rect x="315" y="1364" width="2" height="28" fill="#FFFFFF" opacity="0.700" /><rect x="1278" y="1282" width="42" height="2" fill="#FFFFFF" opacity="0.589" /><rect x="1298" y="1262" width="2" height="42" fill="#FFFFFF" opacity="0.589" /><rect x="2478" y="345" width="30" height="2" fill="#FFFFFF" opacity="0.380" /><rect x="2492" y="331" width="2" height="30" fill="#FFFFFF" opacity="0.380" /><rect x="1878" y="2078" width="40" height="2" fill="#FFFFFF" opacity="0.410" /><rect x="1897" y="2059" width="2" height="40" fill="#FFFFFF" opacity="0.410" /><rect x="1489" y="556" width="56" height="2" fill="#FFFFFF" opacity="0.483" /><rect x="1516" y="529" width="2" height="56" fill="#FFFFFF" opacity="0.483" /><rect x="2262" y="2087" width="70" height="2" fill="#FFFFFF" opacity="0.804" /><rect x="2296" y="2053" width="2" height="70" fill="#FFFFFF" opacity="0.804" /><rect x="1897" y="2017" width="32" height="2" fill="#FFFFFF" opacity="0.623" /><rect x="1912" y="2002" width="2" height="32" fill="#FFFFFF" opacity="0.623" /><rect x="1543" y="2030" width="78" height="2" fill="#FFFFFF" opacity="0.398" /><rect x="1581" y="1992" width="2" height="78" fill="#FFFFFF" opacity="0.398" /><rect x="982" y="299" width="28" height="2" fill="#FFFFFF" opacity="0.715" /><rect x="995" y="286" width="2" height="28" fill="#FFFFFF" opacity="0.715" /><rect x="1404" y="806" width="32" height="2" fill="#FFFFFF" opacity="0.748" /><rect x="1419" y="791" width="2" height="32" fill="#FFFFFF" opacity="0.748" /><rect x="2331" y="624" width="36" height="2" fill="#FFFFFF" opacity="0.798" /><rect x="2348" y="607" width="2" height="36" fill="#FFFFFF" opacity="0.798" /><rect x="385" y="2743" width="54" height="2" fill="#FFFFFF" opacity="0.394" /><rect x="411" y="2717" width="2" height="54" fill="#FFFFFF" opacity="0.394" /><rect x="2378" y="1899" width="26" height="2" fill="#FFFFFF" opacity="0.618" /><rect x="2390" y="1887" width="2" height="26" fill="#FFFFFF" opacity="0.618" /></g>
  <g opacity="0.52"><path d="M996 1582 C1316 1006, 1572 2158, 2148 1582" fill="none" stroke="#0C2030" stroke-width="90" /><circle cx="1188" cy="1582" r="109" fill="#0C2030" /><circle cx="1572" cy="1582" r="109" fill="#0C2030" /><circle cx="1956" cy="1582" r="109" fill="#0C2030" /></g>
  <g filter="url(#soft34)"><path d="M960 1536 C1280 960, 1536 2112, 2112 1536" fill="none" stroke="url(#symbol34)" stroke-width="90" /><circle cx="1152" cy="1536" r="109" fill="url(#symbol34)" /><circle cx="1536" cy="1536" r="109" fill="url(#symbol34)" /><circle cx="1920" cy="1536" r="109" fill="url(#symbol34)" /></g>
  <rect x="138" y="138" width="2796" height="2796" rx="629" fill="#FFFFFF" filter="url(#grain34)" opacity="0.18" />
</svg>
