<svg xmlns="http://www.w3.org/2000/svg" width="3072" height="3072" viewBox="0 0 3072 3072">
  <title>QuartzOS App Icon 235 - solid_calendar_235</title>
  <defs><linearGradient id="bg234" x1="0%" y1="0%" x2="100%" y2="100%"><stop offset="0%" stop-color="#FF6AB3" /><stop offset="26%" stop-color="#FFD84D" /><stop offset="56%" stop-color="#36D1FF" /><stop offset="78%" stop-color="#4B91A3" /><stop offset="100%" stop-color="#1A2630" /></linearGradient><radialGradient id="sun234" cx="27%" cy="30%" r="88%"><stop offset="0%" stop-color="#FFFFFF" stop-opacity="0.62" /><stop offset="30%" stop-color="#3B82FF" stop-opacity="0.35" /><stop offset="100%" stop-color="#3B82FF" stop-opacity="0" /></radialGradient><linearGradient id="glass234" x1="0%" y1="0%" x2="0%" y2="100%"><stop offset="0%" stop-color="#FFFFFF" stop-opacity="0.70" /><stop offset="46%" stop-color="#FFFFFF" stop-opacity="0.26" /><stop offset="100%" stop-color="#FFFFFF" stop-opacity="0.00" /></linearGradient><linearGradient id="ribbon234" x1="0%" y1="0%" x2="100%" y2="0%"><stop offset="0%" stop-color="#FF6AB3" stop-opacity="0.18" /><stop offset="34%" stop-color="#FFD84D" stop-opacity="0.72" /><stop offset="66%" stop-color="#36D1FF" stop-opacity="0.72" /><stop offset="100%" stop-color="#3B82FF" stop-opacity="0.18" /></linearGradient><radialGradient id="orb234" cx="34%" cy="27%" r="74%"><stop offset="0%" stop-color="#FFFFFF" stop-opacity="0.84" /><stop offset="30%" stop-color="#FF6AB3" stop-opacity="0.52" /><stop offset="68%" stop-color="#FFD84D" stop-opacity="0.42" /><stop offset="100%" stop-color="#36D1FF" stop-opacity="0.20" /></radialGradient><linearGradient id="extrude234" x1="0%" y1="0%" x2="0%" y2="100%"><stop offset="0%" stop-color="#15283C" stop-opacity="0.45" /><stop offset="100%" stop-color="#08131D" stop-opacity="0.06" /></linearGradient><linearGradient id="symbol234" x1="0%" y1="0%" x2="100%" y2="100%"><stop offset="0%" stop-color="#FFFFFF" /><stop offset="100%" stop-color="#3B82FF" /></linearGradient><filter id="shadow234" x="-40%" y="-40%" width="180%" height="180%"><feDropShadow dx="0" dy="49" stdDeviation="86" flood-color="#06111A" flood-opacity="0.54" /></filter><filter id="soft234" x="-40%" y="-40%" width="180%" height="180%"><feDropShadow dx="0" dy="0" stdDeviation="14" flood-color="#FF6AB3" flood-opacity="0.45" /></filter><filter id="grain234"><feTurbulence type="fractalNoise" baseFrequency="0.808" numOctaves="2" seed="234" /><feColorMatrix type="saturate" values="0" /><feComponentTransfer><feFuncA type="table" tableValues="0 0.09" /></feComponentTransfer></filter></defs>
  <rect x="138" y="138" width="2796" height="2796" rx="629" fill="url(#bg234)" filter="url(#shadow234)" />
  <rect x="138" y="138" width="2796" height="2796" rx="629" fill="url(#sun234)" />
  <g><circle cx="1774" cy="2355" r="137" fill="#FFFFFF" opacity="0.172" /><circle cx="2305" cy="2676" r="144" fill="#FFFFFF" opacity="0.204" /><circle cx="1140" cy="2439" r="147" fill="#FFFFFF" opacity="0.175" /><circle cx="2697" cy="1128" r="91" fill="#FFFFFF" opacity="0.131" /><circle cx="1670" cy="565" r="87" fill="#FFFFFF" opacity="0.119" /><circle cx="1528" cy="977" r="68" fill="#FFFFFF" opacity="0.215" /><circle cx="551" cy="1222" r="53" fill="#FFFFFF" opacity="0.119" /><circle cx="2347" cy="948" r="48" fill="#FFFFFF" opacity="0.159" /><circle cx="982" cy="685" r="103" fill="#FFFFFF" opacity="0.180" /><circle cx="1167" cy="1263" r="104" fill="#FFFFFF" opacity="0.230" /><circle cx="1457" cy="2127" r="124" fill="#FFFFFF" opacity="0.158" /><circle cx="2079" cy="1153" r="107" fill="#FFFFFF" opacity="0.125" /><circle cx="1526" cy="1527" r="152" fill="#FFFFFF" opacity="0.150" /><circle cx="2670" cy="719" r="103" fill="#FFFFFF" opacity="0.061" /><circle cx="713" cy="1884" r="137" fill="#FFFFFF" opacity="0.212" /><circle cx="587" cy="2335" r="146" fill="#FFFFFF" opacity="0.118" /><circle cx="2237" cy="623" r="148" fill="#FFFFFF" opacity="0.135" /><circle cx="2595" cy="2029" r="78" fill="#FFFFFF" opacity="0.181" /><circle cx="540" cy="512" r="157" fill="#FFFFFF" opacity="0.181" /><circle cx="1088" cy="1969" r="116" fill="#FFFFFF" opacity="0.111" /><circle cx="1650" cy="963" r="140" fill="#FFFFFF" opacity="0.069" /><circle cx="2103" cy="942" r="152" fill="#FFFFFF" opacity="0.162" /><circle cx="1662" cy="866" r="115" fill="#FFFFFF" opacity="0.181" /><circle cx="2134" cy="1153" r="112" fill="#FFFFFF" opacity="0.189" /><circle cx="384" cy="965" r="139" fill="#FFFFFF" opacity="0.125" /><circle cx="2427" cy="2597" r="133" fill="#FFFFFF" opacity="0.170" /><circle cx="1124" cy="1004" r="118" fill="#FFFFFF" opacity="0.235" /><circle cx="2425" cy="1768" r="73" fill="#FFFFFF" opacity="0.071" /></g>
  <g><path d="M 239.6 604.5 L 2730.5 328.0 L 2730.5 825.5 L 239.6 1102.0 Z" fill="#FFFFFF" opacity="0.239" /><path d="M 225.0 891.0 L 2763.4 614.5 L 2763.4 1080.3 L 225.0 1356.8 Z" fill="#FFFFFF" opacity="0.121" /><path d="M 280.0 1180.9 L 2741.0 904.4 L 2741.0 1352.9 L 280.0 1629.4 Z" fill="#FFFFFF" opacity="0.156" /><path d="M 378.3 1355.3 L 2811.1 1078.9 L 2811.1 1505.4 L 378.3 1781.9 Z" fill="#FFFFFF" opacity="0.170" /><path d="M 348.7 1691.9 L 2815.8 1415.5 L 2815.8 1851.3 L 348.7 2127.8 Z" fill="#FFFFFF" opacity="0.105" /><path d="M 167.7 1943.3 L 2792.3 1666.8 L 2792.3 2134.6 L 167.7 2411.1 Z" fill="#FFFFFF" opacity="0.168" /><path d="M 377.5 2207.8 L 2916.8 1931.3 L 2916.8 2368.5 L 377.5 2645.0 Z" fill="#FFFFFF" opacity="0.086" /><path d="M 264.5 2483.7 L 2726.2 2207.3 L 2726.2 2677.5 L 264.5 2954.0 Z" fill="#FFFFFF" opacity="0.234" /></g>
  <g filter="url(#soft234)"><g transform="rotate(-16.78 1536.0 1536.0)"><path d="M-368.6 563.1 C -225.8 531.4, -25.8 575.3, 107.5 507.8 C 250.4 497.2, 450.4 594.7, 583.7 525.2 C 726.5 511.7, 926.5 606.1, 1059.8 565.6 C 1202.7 565.2, 1402.7 561.4, 1536.0 604.5 C 1678.8 609.6, 1878.8 545.8, 2012.2 618.3 C 2155.0 628.2, 2355.0 523.3, 2488.3 598.6 C 2631.2 607.3, 2831.2 543.8, 2964.5 557.4 C 3107.3 556.1, 3307.3 569.7, 3440.6 519.7" fill="none" stroke="url(#ribbon234)" stroke-width="58.4" stroke-linecap="round" stroke-opacity="0.120" /></g><g transform="rotate(-16.20 1536.0 1536.0)"><path d="M-368.6 682.9 C -241.7 637.4, -63.9 703.7, 54.6 634.7 C 181.6 636.2, 359.4 718.2, 477.9 677.8 C 604.8 676.7, 782.6 685.4, 901.1 723.9 C 1028.1 710.2, 1205.9 653.9, 1324.4 745.2 C 1451.3 737.8, 1629.1 658.6, 1747.6 728.6 C 1874.6 742.4, 2052.4 641.6, 2170.9 684.3 C 2297.9 683.8, 2475.6 681.5, 2594.1 639.2 C 2721.1 631.4, 2898.9 715.1, 3017.4 620.5 C 3144.4 624.2, 3322.1 734.3, 3440.6 639.7" fill="none" stroke="url(#ribbon234)" stroke-width="54.4" stroke-linecap="round" stroke-opacity="0.146" /></g><g transform="rotate(-15.62 1536.0 1536.0)"><path d="M-368.6 897.7 C -254.4 874.2, -94.4 912.8, 12.3 834.4 C 126.6 816.2, 286.6 943.3, 393.2 833.2 C 507.5 818.2, 667.5 945.0, 774.1 871.2 C 888.4 871.8, 1048.4 909.0, 1155.1 925.2 C 1269.4 930.0, 1429.3 878.9, 1536.0 962.6 C 1650.3 960.6, 1810.3 854.6, 1916.9 960.6 C 2031.2 951.4, 2191.2 844.6, 2297.9 920.5 C 2412.1 920.9, 2572.1 882.6, 2678.8 866.5 C 2793.1 872.8, 2953.1 921.4, 3059.7 831.5 C 3174.0 850.1, 3334.0 958.4, 3440.6 836.6" fill="none" stroke="url(#ribbon234)" stroke-width="50.4" stroke-linecap="round" stroke-opacity="0.172" /></g><g transform="rotate(-15.04 1536.0 1536.0)"><path d="M-368.6 1086.7 C -264.8 1054.8, -119.3 1101.4, -22.3 1110.4 C 81.5 1116.4, 227.0 1060.6, 324.0 1155.4 C 427.8 1176.2, 573.3 1057.9, 670.3 1158.7 C 774.1 1167.1, 919.6 1036.2, 1016.6 1118.3 C 1120.4 1123.9, 1265.9 1057.8, 1362.9 1058.7 C 1466.7 1062.2, 1612.2 1105.3, 1709.1 1016.1 C 1813.0 989.7, 1958.5 1116.8, 2055.4 1016.3 C 2159.3 997.6, 2304.8 1151.3, 2401.7 1059.2 C 2505.6 1066.7, 2651.1 1119.5, 2748.0 1118.7 C 2851.9 1124.8, 2997.4 1049.2, 3094.3 1158.8 C 3198.2 1153.2, 3343.7 1008.8, 3440.6 1155.2" fill="none" stroke="url(#ribbon234)" stroke-width="46.4" stroke-linecap="round" stroke-opacity="0.198" /></g><g transform="rotate(-14.46 1536.0 1536.0)"><path d="M-368.6 1241.6 C -273.4 1176.2, -140.1 1296.5, -51.2 1162.7 C 44.0 1162.5, 177.4 1307.2, 266.2 1206.4 C 361.5 1206.8, 494.8 1267.0, 583.7 1271.5 C 678.9 1263.4, 812.2 1218.1, 901.1 1318.4 C 996.4 1321.2, 1129.7 1211.7, 1218.6 1318.7 C 1313.8 1300.2, 1447.1 1217.2, 1536.0 1272.3 C 1631.2 1279.2, 1764.6 1220.4, 1853.4 1207.2 C 1948.7 1198.7, 2082.0 1272.1, 2170.9 1163.0 C 2266.1 1161.8, 2399.4 1295.4, 2488.3 1166.5 C 2583.6 1157.1, 2716.9 1324.5, 2805.8 1215.5 C 2901.0 1218.5, 3034.3 1271.8, 3123.2 1280.4 C 3218.4 1276.5, 3351.8 1218.6, 3440.6 1321.7" fill="none" stroke="url(#ribbon234)" stroke-width="42.4" stroke-linecap="round" stroke-opacity="0.224" /></g><g transform="rotate(-13.88 1536.0 1536.0)"><path d="M-368.6 1508.8 C -225.8 1459.4, -25.8 1565.8, 107.5 1489.2 C 250.4 1491.0, 450.4 1520.9, 583.7 1558.7 C 726.5 1564.4, 926.5 1489.9, 1059.8 1597.9 C 1202.7 1594.8, 1402.7 1425.1, 1536.0 1583.1 C 1678.8 1598.9, 1878.8 1485.8, 2012.2 1523.2 C 2155.0 1517.6, 2355.0 1496.7, 2488.3 1454.7 C 2631.2 1461.0, 2831.2 1550.2, 2964.5 1419.0 C 3107.3 1429.8, 3307.3 1594.2, 3440.6 1437.8" fill="none" stroke="url(#ribbon234)" stroke-width="38.4" stroke-linecap="round" stroke-opacity="0.250" /></g><g transform="rotate(-13.30 1536.0 1536.0)"><path d="M-368.6 1631.3 C -241.7 1650.5, -63.9 1611.0, 54.6 1575.5 C 181.6 1573.9, 359.4 1678.8, 477.9 1534.9 C 604.8 1514.8, 782.6 1675.7, 901.1 1552.8 C 1028.1 1544.2, 1205.9 1660.6, 1324.4 1618.4 C 1451.3 1613.4, 1629.1 1637.6, 1747.6 1691.8 C 1874.6 1698.9, 2052.4 1570.9, 2170.9 1728.5 C 2297.9 1732.6, 2475.6 1564.2, 2594.1 1706.3 C 2721.1 1724.4, 2898.9 1590.5, 3017.4 1638.6 C 3144.4 1640.5, 3322.1 1628.4, 3440.6 1566.5" fill="none" stroke="url(#ribbon234)" stroke-width="34.4" stroke-linecap="round" stroke-opacity="0.276" /></g><g transform="rotate(-12.72 1536.0 1536.0)"><path d="M-368.6 1883.0 C -254.4 1995.8, -94.4 1823.5, 12.3 1916.4 C 126.6 1922.5, 286.6 1866.3, 393.2 1835.1 C 507.5 1846.5, 667.5 1914.8, 774.1 1782.8 C 888.4 1800.6, 1048.4 1961.9, 1155.1 1791.3 C 1269.4 1788.1, 1429.3 1984.3, 1536.0 1855.5 C 1650.3 1859.5, 1810.3 1915.5, 1916.9 1936.3 C 2031.2 1930.4, 2191.2 1819.6, 2297.9 1984.9 C 2412.1 1995.7, 2572.1 1819.1, 2678.8 1971.6 C 2793.1 1988.0, 2953.1 1809.7, 3059.7 1904.6 C 3174.0 1912.6, 3334.0 1874.3, 3440.6 1824.6" fill="none" stroke="url(#ribbon234)" stroke-width="30.4" stroke-linecap="round" stroke-opacity="0.302" /></g><g transform="rotate(-12.14 1536.0 1536.0)"><path d="M-368.6 2053.0 C -264.8 1935.1, -119.3 2142.2, -22.3 1967.7 C 81.5 1982.3, 227.0 2102.9, 324.0 2045.4 C 427.8 2048.0, 573.3 2062.1, 670.3 2127.8 C 774.1 2109.1, 919.6 2002.8, 1016.6 2164.8 C 1120.4 2159.2, 1265.9 1970.6, 1362.9 2134.0 C 1466.7 2127.1, 1612.2 1957.4, 1709.1 2054.1 C 1813.0 2054.1, 1958.5 2052.2, 2055.4 1973.6 C 2159.3 1996.3, 2304.8 2127.7, 2401.7 1941.2 C 2505.6 1899.9, 2651.1 2132.6, 2748.0 1976.7 C 2851.9 1963.0, 2997.4 2095.1, 3094.3 2058.5 C 3198.2 2059.6, 3343.7 2048.2, 3440.6 2137.0" fill="none" stroke="url(#ribbon234)" stroke-width="26.4" stroke-linecap="round" stroke-opacity="0.328" /></g><g transform="rotate(-11.56 1536.0 1536.0)"><path d="M-368.6 2265.9 C -273.4 2347.6, -140.1 2167.7, -51.2 2331.4 C 44.0 2307.4, 177.4 2212.4, 266.2 2240.4 C 361.5 2235.5, 494.8 2274.1, 583.7 2164.8 C 678.9 2156.0, 812.2 2375.9, 901.1 2150.5 C 996.4 2123.7, 1129.7 2334.2, 1218.6 2206.2 C 1313.8 2224.6, 1447.1 2325.6, 1536.0 2298.0 C 1631.2 2309.5, 1764.6 2235.0, 1853.4 2370.4 C 1948.7 2333.6, 2082.0 2183.2, 2170.9 2379.3 C 2266.1 2350.3, 2399.4 2196.8, 2488.3 2319.4 C 2583.6 2338.4, 2716.9 2232.8, 2805.8 2227.1 C 2901.0 2218.3, 3034.3 2286.0, 3123.2 2158.2 C 3218.4 2160.7, 3351.8 2382.5, 3440.6 2154.7" fill="none" stroke="url(#ribbon234)" stroke-width="22.4" stroke-linecap="round" stroke-opacity="0.354" /></g><g transform="rotate(-10.98 1536.0 1536.0)"><path d="M-368.6 2413.3 C -225.8 2520.5, -25.8 2340.9, 107.5 2503.2 C 250.4 2476.9, 450.4 2384.1, 583.7 2412.7 C 726.5 2412.8, 926.5 2413.6, 1059.8 2322.5 C 1202.7 2342.1, 1402.7 2493.3, 1536.0 2287.4 C 1678.8 2273.6, 1878.8 2487.1, 2012.2 2328.7 C 2155.0 2324.3, 2355.0 2494.7, 2488.3 2421.2 C 2631.2 2420.7, 2831.2 2407.4, 2964.5 2509.0 C 3107.3 2519.1, 3307.3 2308.6, 3440.6 2538.7" fill="none" stroke="url(#ribbon234)" stroke-width="18.4" stroke-linecap="round" stroke-opacity="0.380" /></g><g transform="rotate(-10.40 1536.0 1536.0)"><path d="M-368.6 2604.5 C -241.7 2525.9, -63.9 2703.0, 54.6 2616.8 C 181.6 2612.7, 359.4 2591.8, 477.9 2708.1 C 604.8 2737.2, 782.6 2546.4, 901.1 2736.5 C 1028.1 2709.6, 1205.9 2499.4, 1324.4 2684.8 C 1451.3 2686.7, 1629.1 2551.4, 1747.6 2584.4 C 1874.6 2585.8, 2052.4 2624.0, 2170.9 2496.2 C 2297.9 2518.0, 2475.6 2639.5, 2594.1 2473.6 C 2721.1 2467.1, 2898.9 2663.7, 3017.4 2530.5 C 3144.4 2547.4, 3322.1 2692.7, 3440.6 2632.2" fill="none" stroke="url(#ribbon234)" stroke-width="14.4" stroke-linecap="round" stroke-opacity="0.406" /></g></g>
  <g><ellipse cx="1536.0" cy="1551.9" rx="728.6" ry="605.7" fill="url(#extrude234)" opacity="0.220" /><ellipse cx="1536.0" cy="1567.7" rx="736.0" ry="610.9" fill="url(#extrude234)" opacity="0.205" /><ellipse cx="1536.0" cy="1583.6" rx="743.4" ry="616.1" fill="url(#extrude234)" opacity="0.190" /><ellipse cx="1536.0" cy="1599.5" rx="750.9" ry="621.3" fill="url(#extrude234)" opacity="0.175" /><ellipse cx="1536.0" cy="1615.4" rx="758.3" ry="626.5" fill="url(#extrude234)" opacity="0.160" /><ellipse cx="1536.0" cy="1631.2" rx="765.7" ry="631.7" fill="url(#extrude234)" opacity="0.145" /><ellipse cx="1536.0" cy="1647.1" rx="773.2" ry="636.9" fill="url(#extrude234)" opacity="0.130" /><ellipse cx="1536.0" cy="1663.0" rx="780.6" ry="642.1" fill="url(#extrude234)" opacity="0.115" /><ellipse cx="1536.0" cy="1678.8" rx="788.0" ry="647.4" fill="url(#extrude234)" opacity="0.100" /><ellipse cx="1536.0" cy="1694.7" rx="795.5" ry="652.6" fill="url(#extrude234)" opacity="0.085" /><ellipse cx="1536.0" cy="1710.6" rx="802.9" ry="657.8" fill="url(#extrude234)" opacity="0.070" /><ellipse cx="1536.0" cy="1726.5" rx="810.3" ry="663.0" fill="url(#extrude234)" opacity="0.055" /></g>
  <ellipse cx="1536.0" cy="1726.5" rx="773.2" ry="214.9" fill="#0B1D2D" opacity="0.24" />
  <ellipse cx="1536.0" cy="1536.0" rx="743.4" ry="651.3" fill="url(#orb234)" stroke="#FFFFFF" stroke-opacity="0.42" stroke-width="7" />
  <ellipse cx="1431.9" cy="1392.7" rx="505.5" ry="299.6" fill="#FFFFFF" opacity="0.25" />
  <path d="M 199.4 399.4 C 1013.8 -30.7, 2058.2 768.0, 2872.6 215.0 L 2872.6 983.0 C 2089.0 1228.8, 1013.8 307.2, 199.4 1167.4 Z" fill="url(#glass234)" />
  <rect x="270" y="270" width="2532" height="2532" rx="430" fill="none" stroke="#FFFFFF" stroke-opacity="0.30" stroke-width="5" />
  <rect x="288.4" y="288.4" width="2495.1" height="2495.1" rx="399" fill="none" stroke="#FF6AB3" stroke-opacity="0.35" stroke-width="3" />
  <g filter="url(#soft234)"><rect x="1100" y="1732" width="46" height="2" fill="#FFFFFF" opacity="0.558" /><rect x="1122" y="1710" width="2" height="46" fill="#FFFFFF" opacity="0.558" /><rect x="2262" y="932" width="52" height="2" fill="#FFFFFF" opacity="0.333" /><rect x="2287" y="907" width="2" height="52" fill="#FFFFFF" opacity="0.333" /><rect x="395" y="2633" width="32" height="2" fill="#FFFFFF" opacity="0.392" /><rect x="410" y="2618" width="2" height="32" fill="#FFFFFF" opacity="0.392" /><rect x="843" y="1423" width="46" height="2" fill="#FFFFFF" opacity="0.548" /><rect x="865" y="1401" width="2" height="46" fill="#FFFFFF" opacity="0.548" /><rect x="2696" y="1502" width="68" height="2" fill="#FFFFFF" opacity="0.499" /><rect x="2729" y="1469" width="2" height="68" fill="#FFFFFF" opacity="0.499" /><rect x="1509" y="2535" width="40" height="2" fill="#FFFFFF" opacity="0.320" /><rect x="1528" y="2516" width="2" height="40" fill="#FFFFFF" opacity="0.320" /><rect x="2240" y="2079" width="50" height="2" fill="#FFFFFF" opacity="0.332" /><rect x="2264" y="2055" width="2" height="50" fill="#FFFFFF" opacity="0.332" /><rect x="1653" y="2343" width="64" height="2" fill="#FFFFFF" opacity="0.762" /><rect x="1684" y="2312" width="2" height="64" fill="#FFFFFF" opacity="0.762" /><rect x="2610" y="2110" width="36" height="2" fill="#FFFFFF" opacity="0.673" /><rect x="2627" y="2093" width="2" height="36" fill="#FFFFFF" opacity="0.673" /><rect x="489" y="628" width="78" height="2" fill="#FFFFFF" opacity="0.687" /><rect x="527" y="590" width="2" height="78" fill="#FFFFFF" opacity="0.687" /><rect x="1125" y="597" width="26" height="2" fill="#FFFFFF" opacity="0.446" /><rect x="1137" y="585" width="2" height="26" fill="#FFFFFF" opacity="0.446" /><rect x="677" y="533" width="72" height="2" fill="#FFFFFF" opacity="0.588" /><rect x="712" y="498" width="2" height="72" fill="#FFFFFF" opacity="0.588" /><rect x="1578" y="2681" width="42" height="2" fill="#FFFFFF" opacity="0.432" /><rect x="1598" y="2661" width="2" height="42" fill="#FFFFFF" opacity="0.432" /><rect x="703" y="304" width="84" height="2" fill="#FFFFFF" opacity="0.329" /><rect x="744" y="263" width="2" height="84" fill="#FFFFFF" opacity="0.329" /><rect x="2648" y="2016" width="56" height="2" fill="#FFFFFF" opacity="0.709" /><rect x="2675" y="1989" width="2" height="56" fill="#FFFFFF" opacity="0.709" /><rect x="737" y="300" width="30" height="2" fill="#FFFFFF" opacity="0.444" /><rect x="751" y="286" width="2" height="30" fill="#FFFFFF" opacity="0.444" /><rect x="2141" y="1081" width="56" height="2" fill="#FFFFFF" opacity="0.588" /><rect x="2168" y="1054" width="2" height="56" fill="#FFFFFF" opacity="0.588" /><rect x="1449" y="2603" width="74" height="2" fill="#FFFFFF" opacity="0.442" /><rect x="1485" y="2567" width="2" height="74" fill="#FFFFFF" opacity="0.442" /><rect x="2036" y="1428" width="74" height="2" fill="#FFFFFF" opacity="0.517" /><rect x="2072" y="1392" width="2" height="74" fill="#FFFFFF" opacity="0.517" /><rect x="1561" y="716" width="56" height="2" fill="#FFFFFF" opacity="0.729" /><rect x="1588" y="689" width="2" height="56" fill="#FFFFFF" opacity="0.729" /><rect x="1820" y="1635" width="36" height="2" fill="#FFFFFF" opacity="0.434" /><rect x="1837" y="1618" width="2" height="36" fill="#FFFFFF" opacity="0.434" /><rect x="678" y="2154" width="28" height="2" fill="#FFFFFF" opacity="0.431" /><rect x="691" y="2141" width="2" height="28" fill="#FFFFFF" opacity="0.431" /><rect x="2468" y="463" width="28" height="2" fill="#FFFFFF" opacity="0.644" /><rect x="2481" y="450" width="2" height="28" fill="#FFFFFF" opacity="0.644" /><rect x="758" y="820" width="34" height="2" fill="#FFFFFF" opacity="0.481" /><rect x="774" y="804" width="2" height="34" fill="#FFFFFF" opacity="0.481" /><rect x="1401" y="2685" width="46" height="2" fill="#FFFFFF" opacity="0.792" /><rect x="1423" y="2663" width="2" height="46" fill="#FFFFFF" opacity="0.792" /><rect x="733" y="2441" width="62" height="2" fill="#FFFFFF" opacity="0.417" /><rect x="763" y="2411" width="2" height="62" fill="#FFFFFF" opacity="0.417" /></g>
  <g opacity="0.52"><path d="M996 1582 Q1572 1006, 2148 1582" fill="none" stroke="#0C2030" stroke-width="90" /><path d="M996 1801 Q1572 1198, 2148 1801" fill="none" stroke="#0C2030" stroke-width="88" opacity="0.9" /><path d="M996 1966 Q1572 1326, 2148 1966" fill="none" stroke="#0C2030" stroke-width="87" opacity="0.75" /></g>
  <g filter="url(#soft234)"><path d="M960 1536 Q1536 960, 2112 1536" fill="none" stroke="url(#symbol234)" stroke-width="90" /><path d="M960 1755 Q1536 1152, 2112 1755" fill="none" stroke="url(#symbol234)" stroke-width="88" opacity="0.9" /><path d="M960 1920 Q1536 1280, 2112 1920" fill="none" stroke="url(#symbol234)" stroke-width="87" opacity="0.75" /></g>
  <rect x="138" y="138" width="2796" height="2796" rx="629" fill="#FFFFFF" filter="url(#grain234)" opacity="0.18" />
</svg>
