<svg xmlns="http://www.w3.org/2000/svg" width="3072" height="3072" viewBox="0 0 3072 3072">
  <title>QuartzOS App Icon 037 - stellar_studio_037</title>
  <defs><linearGradient id="bg36" x1="0%" y1="0%" x2="100%" y2="100%"><stop offset="0%" stop-color="#3B82FF" /><stop offset="26%" stop-color="#FF6AB3" /><stop offset="56%" stop-color="#FFD84D" /><stop offset="78%" stop-color="#4E8FC5" /><stop offset="100%" stop-color="#10243A" /></linearGradient><radialGradient id="sun36" cx="29%" cy="20%" r="88%"><stop offset="0%" stop-color="#FFFFFF" stop-opacity="0.62" /><stop offset="30%" stop-color="#53E3A6" stop-opacity="0.35" /><stop offset="100%" stop-color="#53E3A6" stop-opacity="0" /></radialGradient><linearGradient id="glass36" x1="0%" y1="0%" x2="0%" y2="100%"><stop offset="0%" stop-color="#FFFFFF" stop-opacity="0.70" /><stop offset="46%" stop-color="#FFFFFF" stop-opacity="0.26" /><stop offset="100%" stop-color="#FFFFFF" stop-opacity="0.00" /></linearGradient><linearGradient id="ribbon36" x1="0%" y1="0%" x2="100%" y2="0%"><stop offset="0%" stop-color="#3B82FF" stop-opacity="0.18" /><stop offset="34%" stop-color="#FF6AB3" stop-opacity="0.72" /><stop offset="66%" stop-color="#FFD84D" stop-opacity="0.72" /><stop offset="100%" stop-color="#53E3A6" stop-opacity="0.18" /></linearGradient><radialGradient id="orb36" cx="34%" cy="27%" r="74%"><stop offset="0%" stop-color="#FFFFFF" stop-opacity="0.84" /><stop offset="30%" stop-color="#3B82FF" stop-opacity="0.52" /><stop offset="68%" stop-color="#FF6AB3" stop-opacity="0.42" /><stop offset="100%" stop-color="#FFD84D" stop-opacity="0.20" /></radialGradient><linearGradient id="extrude36" x1="0%" y1="0%" x2="0%" y2="100%"><stop offset="0%" stop-color="#15283C" stop-opacity="0.45" /><stop offset="100%" stop-color="#08131D" stop-opacity="0.06" /></linearGradient><linearGradient id="symbol36" x1="0%" y1="0%" x2="100%" y2="100%"><stop offset="0%" stop-color="#FFFFFF" /><stop offset="100%" stop-color="#53E3A6" /></linearGradient><filter id="shadow36" x="-40%" y="-40%" width="180%" height="180%"><feDropShadow dx="0" dy="49" stdDeviation="86" flood-color="#06111A" flood-opacity="0.54" /></filter><filter id="soft36" x="-40%" y="-40%" width="180%" height="180%"><feDropShadow dx="0" dy="0" stdDeviation="14" flood-color="#3B82FF" flood-opacity="0.45" /></filter><filter id="grain36"><feTurbulence type="fractalNoise" baseFrequency="0.655" numOctaves="2" seed="36" /><feColorMatrix type="saturate" values="0" /><feComponentTransfer><feFuncA type="table" tableValues="0 0.09" /></feComponentTransfer></filter></defs>
  <rect x="138" y="138" width="2796" height="2796" rx="629" fill="url(#bg36)" filter="url(#shadow36)" />
  <rect x="138" y="138" width="2796" height="2796" rx="629" fill="url(#sun36)" />
  <g><circle cx="1165" cy="722" r="55" fill="#FFFFFF" opacity="0.153" /><circle cx="1828" cy="1825" r="52" fill="#FFFFFF" opacity="0.127" /><circle cx="384" cy="732" r="78" fill="#FFFFFF" opacity="0.157" /><circle cx="1509" cy="1927" r="106" fill="#FFFFFF" opacity="0.148" /><circle cx="787" cy="901" r="44" fill="#FFFFFF" opacity="0.226" /><circle cx="2243" cy="2624" r="153" fill="#FFFFFF" opacity="0.098" /><circle cx="2333" cy="1052" r="137" fill="#FFFFFF" opacity="0.206" /><circle cx="1131" cy="1631" r="155" fill="#FFFFFF" opacity="0.232" /><circle cx="1644" cy="1611" r="82" fill="#FFFFFF" opacity="0.087" /><circle cx="799" cy="1754" r="83" fill="#FFFFFF" opacity="0.124" /><circle cx="1891" cy="1386" r="116" fill="#FFFFFF" opacity="0.225" /><circle cx="1856" cy="1254" r="132" fill="#FFFFFF" opacity="0.166" /><circle cx="656" cy="886" r="133" fill="#FFFFFF" opacity="0.089" /><circle cx="1327" cy="1732" r="75" fill="#FFFFFF" opacity="0.170" /><circle cx="2444" cy="1592" r="56" fill="#FFFFFF" opacity="0.206" /><circle cx="1743" cy="2385" r="110" fill="#FFFFFF" opacity="0.078" /><circle cx="2166" cy="1191" r="104" fill="#FFFFFF" opacity="0.122" /><circle cx="529" cy="2203" r="107" fill="#FFFFFF" opacity="0.112" /><circle cx="2618" cy="1537" r="70" fill="#FFFFFF" opacity="0.107" /><circle cx="1720" cy="518" r="97" fill="#FFFFFF" opacity="0.166" /><circle cx="582" cy="585" r="97" fill="#FFFFFF" opacity="0.118" /><circle cx="967" cy="691" r="155" fill="#FFFFFF" opacity="0.061" /><circle cx="2267" cy="1852" r="98" fill="#FFFFFF" opacity="0.183" /><circle cx="2222" cy="2580" r="40" fill="#FFFFFF" opacity="0.130" /><circle cx="2697" cy="658" r="50" fill="#FFFFFF" opacity="0.196" /><circle cx="698" cy="534" r="77" fill="#FFFFFF" opacity="0.150" /><circle cx="1445" cy="2277" r="45" fill="#FFFFFF" opacity="0.230" /><circle cx="2175" cy="1320" r="79" fill="#FFFFFF" opacity="0.214" /></g>
  <g><path d="M 370.6 592.8 L 2829.0 316.3 L 2829.0 747.1 L 370.6 1023.6 Z" fill="#FFFFFF" opacity="0.164" /><path d="M 305.9 896.5 L 2786.9 620.0 L 2786.9 1084.1 L 305.9 1360.6 Z" fill="#FFFFFF" opacity="0.221" /><path d="M 189.1 1178.5 L 2918.2 902.1 L 2918.2 1390.1 L 189.1 1666.6 Z" fill="#FFFFFF" opacity="0.120" /><path d="M 172.9 1367.9 L 2913.4 1091.4 L 2913.4 1588.1 L 172.9 1864.6 Z" fill="#FFFFFF" opacity="0.197" /><path d="M 206.5 1650.0 L 2689.4 1373.6 L 2689.4 1811.0 L 206.5 2087.5 Z" fill="#FFFFFF" opacity="0.089" /><path d="M 375.5 1957.8 L 2817.6 1681.3 L 2817.6 2124.9 L 375.5 2401.4 Z" fill="#FFFFFF" opacity="0.143" /><path d="M 196.6 2156.3 L 2855.3 1879.8 L 2855.3 2316.6 L 196.6 2593.1 Z" fill="#FFFFFF" opacity="0.093" /><path d="M 279.1 2408.1 L 2725.0 2131.6 L 2725.0 2620.5 L 279.1 2897.0 Z" fill="#FFFFFF" opacity="0.224" /></g>
  <g filter="url(#soft36)"><g transform="rotate(-13.06 1536.0 1536.0)"><path d="M-368.6 530.6 C -225.8 495.1, -25.8 577.3, 107.5 476.5 C 250.4 495.1, 450.4 573.6, 583.7 501.2 C 726.5 507.1, 926.5 562.1, 1059.8 543.7 C 1202.7 543.1, 1402.7 519.1, 1536.0 578.2 C 1678.8 571.5, 1878.8 516.2, 2012.2 583.9 C 2155.0 596.1, 2355.0 473.2, 2488.3 557.1 C 2631.2 562.5, 2831.2 521.4, 2964.5 514.3 C 3107.3 515.7, 3307.3 546.1, 3440.6 481.3" fill="none" stroke="url(#ribbon36)" stroke-width="58.4" stroke-linecap="round" stroke-opacity="0.120" /></g><g transform="rotate(-12.48 1536.0 1536.0)"><path d="M-368.6 766.0 C -241.7 755.1, -63.9 773.2, 54.6 801.0 C 181.6 812.3, 359.4 742.7, 477.9 827.4 C 604.8 817.2, 782.6 727.2, 901.1 816.5 C 1028.1 811.7, 1205.9 716.3, 1324.4 775.0 C 1451.3 773.2, 1629.1 755.3, 1747.6 728.0 C 1874.6 732.9, 2052.4 793.1, 2170.9 704.0 C 2297.9 723.6, 2475.6 826.8, 2594.1 717.7 C 2721.1 700.1, 2898.9 805.5, 3017.4 760.6 C 3144.4 761.6, 3322.1 769.9, 3440.6 806.8" fill="none" stroke="url(#ribbon36)" stroke-width="54.4" stroke-linecap="round" stroke-opacity="0.146" /></g><g transform="rotate(-11.90 1536.0 1536.0)"><path d="M-368.6 952.4 C -254.4 907.8, -94.4 963.5, 12.3 971.2 C 126.6 968.1, 286.6 943.0, 393.2 1013.5 C 507.5 994.6, 667.5 894.8, 774.1 1018.6 C 888.4 1002.2, 1048.4 924.4, 1155.1 983.6 C 1269.4 994.8, 1429.3 932.0, 1536.0 929.6 C 1650.3 921.0, 1810.3 961.0, 1916.9 889.5 C 2031.2 870.0, 2191.2 1027.6, 2297.9 887.5 C 2412.1 878.2, 2572.1 982.8, 2678.8 924.8 C 2793.1 917.1, 2953.1 971.6, 3059.7 978.9 C 3174.0 984.8, 3334.0 925.5, 3440.6 1016.9" fill="none" stroke="url(#ribbon36)" stroke-width="50.4" stroke-linecap="round" stroke-opacity="0.172" /></g><g transform="rotate(-11.32 1536.0 1536.0)"><path d="M-368.6 1101.3 C -264.8 1093.1, -119.3 1106.5, -22.3 1150.8 C 81.5 1169.7, 227.0 1067.6, 324.0 1177.6 C 427.8 1192.3, 573.3 1060.3, 670.3 1158.2 C 774.1 1158.9, 919.6 1042.1, 1016.6 1104.2 C 1120.4 1104.6, 1265.9 1098.3, 1362.9 1048.5 C 1466.7 1027.8, 1612.2 1147.0, 1709.1 1024.8 C 1813.0 1049.5, 1958.5 1157.1, 2055.4 1047.6 C 2159.3 1050.4, 2304.8 1131.2, 2401.7 1102.9 C 2505.6 1103.1, 2651.1 1100.3, 2748.0 1157.3 C 2851.9 1151.1, 2997.4 1042.8, 3094.3 1177.7 C 3198.2 1206.1, 3343.7 1029.5, 3440.6 1151.8" fill="none" stroke="url(#ribbon36)" stroke-width="46.4" stroke-linecap="round" stroke-opacity="0.198" /></g><g transform="rotate(-10.74 1536.0 1536.0)"><path d="M-368.6 1239.6 C -273.4 1235.4, -140.1 1243.4, -51.2 1297.0 C 44.0 1285.9, 177.4 1181.4, 266.2 1323.2 C 361.5 1348.4, 494.8 1185.5, 583.7 1298.7 C 678.9 1287.0, 812.2 1184.2, 901.1 1238.4 C 996.4 1238.2, 1129.7 1240.1, 1218.6 1178.9 C 1313.8 1167.5, 1447.1 1303.7, 1536.0 1156.2 C 1631.2 1181.2, 1764.6 1298.8, 1853.4 1184.1 C 1948.7 1195.9, 2082.0 1290.2, 2170.9 1245.8 C 2266.1 1247.8, 2399.4 1237.7, 2488.3 1303.7 C 2583.6 1290.5, 2716.9 1194.7, 2805.8 1322.8 C 2901.0 1349.6, 3034.3 1188.9, 3123.2 1291.4 C 3218.4 1303.4, 3351.8 1222.8, 3440.6 1228.7" fill="none" stroke="url(#ribbon36)" stroke-width="42.4" stroke-linecap="round" stroke-opacity="0.224" /></g><g transform="rotate(-10.16 1536.0 1536.0)"><path d="M-368.6 1468.0 C -225.8 1550.8, -25.8 1367.2, 107.5 1504.7 C 250.4 1498.1, 450.4 1440.7, 583.7 1434.1 C 726.5 1445.0, 926.5 1486.1, 1059.8 1384.1 C 1202.7 1375.4, 1402.7 1560.4, 1536.0 1385.0 C 1678.8 1388.8, 1878.8 1525.1, 2012.2 1436.3 C 2155.0 1425.0, 2355.0 1489.7, 2488.3 1506.8 C 2631.2 1514.8, 2831.2 1430.3, 2964.5 1553.8 C 3107.3 1538.3, 3307.3 1425.9, 3440.6 1548.8" fill="none" stroke="url(#ribbon36)" stroke-width="38.4" stroke-linecap="round" stroke-opacity="0.250" /></g><g transform="rotate(-9.58 1536.0 1536.0)"><path d="M-368.6 1623.7 C -241.7 1741.7, -63.9 1564.9, 54.6 1711.7 C 181.6 1686.1, 359.4 1567.6, 477.9 1654.6 C 604.8 1645.7, 782.6 1590.8, 901.1 1578.7 C 1028.1 1575.8, 1205.9 1677.5, 1324.4 1530.1 C 1451.3 1524.4, 1629.1 1696.2, 1747.6 1538.3 C 1874.6 1569.4, 2052.4 1661.9, 2170.9 1598.2 C 2297.9 1605.7, 2475.6 1648.0, 2594.1 1673.6 C 2721.1 1661.4, 2898.9 1572.0, 3017.4 1718.7 C 3144.4 1719.8, 3322.1 1531.2, 3440.6 1706.1" fill="none" stroke="url(#ribbon36)" stroke-width="34.4" stroke-linecap="round" stroke-opacity="0.276" /></g><g transform="rotate(-9.00 1536.0 1536.0)"><path d="M-368.6 1901.4 C -254.4 1906.4, -94.4 1895.6, 12.3 1979.9 C 126.6 2006.1, 286.6 1816.2, 393.2 2005.9 C 507.5 2044.2, 667.5 1782.2, 774.1 1968.4 C 888.4 1943.2, 1048.4 1854.4, 1155.1 1890.4 C 1269.4 1893.5, 1429.3 1906.7, 1536.0 1819.0 C 1650.3 1816.9, 1810.3 1978.8, 1916.9 1797.6 C 2031.2 1764.5, 2191.2 2017.8, 2297.9 1839.2 C 2412.1 1850.4, 2572.1 1949.2, 2678.8 1918.5 C 2793.1 1917.4, 2953.1 1888.5, 3059.7 1987.5 C 3174.0 1991.1, 3334.0 1851.6, 3440.6 2004.2" fill="none" stroke="url(#ribbon36)" stroke-width="30.4" stroke-linecap="round" stroke-opacity="0.302" /></g><g transform="rotate(-8.42 1536.0 1536.0)"><path d="M-368.6 2093.4 C -264.8 1989.0, -119.3 2165.5, -22.3 2094.6 C 81.5 2094.2, 227.0 2092.0, 324.0 2174.5 C 427.8 2177.4, 573.3 2047.7, 670.3 2205.1 C 774.1 2204.3, 919.6 2018.6, 1016.6 2168.0 C 1120.4 2186.5, 1265.9 2021.7, 1362.9 2085.6 C 1466.7 2083.0, 1612.2 2098.9, 1709.1 2007.9 C 1813.0 1990.3, 1958.5 2131.2, 2055.4 1982.1 C 2159.3 1975.0, 2304.8 2135.1, 2401.7 2023.8 C 2505.6 1999.6, 2651.1 2172.3, 2748.0 2107.7 C 2851.9 2102.3, 2997.4 2079.8, 3094.3 2182.9 C 3198.2 2152.6, 3343.7 2017.3, 3440.6 2203.8" fill="none" stroke="url(#ribbon36)" stroke-width="26.4" stroke-linecap="round" stroke-opacity="0.328" /></g><g transform="rotate(-7.84 1536.0 1536.0)"><path d="M-368.6 2252.6 C -273.4 2221.1, -140.1 2312.6, -51.2 2140.1 C 44.0 2160.9, 177.4 2297.9, 266.2 2146.5 C 361.5 2165.4, 494.8 2372.8, 583.7 2217.1 C 678.9 2217.0, 812.2 2275.0, 901.1 2309.3 C 996.4 2326.0, 1129.7 2219.4, 1218.6 2367.0 C 1313.8 2335.3, 1447.1 2164.2, 1536.0 2355.3 C 1631.2 2363.4, 1764.6 2184.8, 1853.4 2281.3 C 1948.7 2274.7, 2082.0 2242.1, 2170.9 2189.8 C 2266.1 2178.5, 2399.4 2282.3, 2488.3 2136.4 C 2583.6 2108.5, 2716.9 2355.9, 2805.8 2153.4 C 2901.0 2142.8, 3034.3 2357.2, 3123.2 2230.6 C 3218.4 2236.1, 3351.8 2262.6, 3440.6 2321.1" fill="none" stroke="url(#ribbon36)" stroke-width="22.4" stroke-linecap="round" stroke-opacity="0.354" /></g><g transform="rotate(-7.26 1536.0 1536.0)"><path d="M-368.6 2415.4 C -225.8 2473.2, -25.8 2356.3, 107.5 2534.7 C 250.4 2536.7, 450.4 2364.4, 583.7 2527.6 C 726.5 2549.4, 926.5 2330.6, 1059.8 2452.5 C 1202.7 2440.8, 1402.7 2373.9, 1536.0 2354.9 C 1678.8 2347.5, 1878.8 2470.4, 2012.2 2294.0 C 2155.0 2298.2, 2355.0 2551.1, 2488.3 2306.8 C 2631.2 2349.1, 2831.2 2462.0, 2964.5 2385.4 C 3107.3 2389.9, 3307.3 2440.5, 3440.6 2482.3" fill="none" stroke="url(#ribbon36)" stroke-width="18.4" stroke-linecap="round" stroke-opacity="0.380" /></g><g transform="rotate(-6.68 1536.0 1536.0)"><path d="M-368.6 2614.7 C -241.7 2551.1, -63.9 2641.4, 54.6 2486.8 C 181.6 2445.9, 359.4 2762.6, 477.9 2499.3 C 604.8 2539.4, 782.6 2690.9, 901.1 2581.8 C 1028.1 2578.4, 1205.9 2647.2, 1324.4 2684.2 C 1451.3 2700.0, 1629.1 2532.1, 1747.6 2744.5 C 1874.6 2781.5, 2052.4 2498.1, 2170.9 2726.0 C 2297.9 2700.5, 2475.6 2528.6, 2594.1 2640.0 C 2721.1 2638.6, 2898.9 2603.5, 3017.4 2538.6 C 3144.4 2519.6, 3322.1 2676.1, 3440.6 2483.4" fill="none" stroke="url(#ribbon36)" stroke-width="14.4" stroke-linecap="round" stroke-opacity="0.406" /></g></g>
  <g><ellipse cx="1536.0" cy="1551.9" rx="728.6" ry="605.7" fill="url(#extrude36)" opacity="0.220" /><ellipse cx="1536.0" cy="1567.7" rx="736.0" ry="610.9" fill="url(#extrude36)" opacity="0.205" /><ellipse cx="1536.0" cy="1583.6" rx="743.4" ry="616.1" fill="url(#extrude36)" opacity="0.190" /><ellipse cx="1536.0" cy="1599.5" rx="750.9" ry="621.3" fill="url(#extrude36)" opacity="0.175" /><ellipse cx="1536.0" cy="1615.4" rx="758.3" ry="626.5" fill="url(#extrude36)" opacity="0.160" /><ellipse cx="1536.0" cy="1631.2" rx="765.7" ry="631.7" fill="url(#extrude36)" opacity="0.145" /><ellipse cx="1536.0" cy="1647.1" rx="773.2" ry="636.9" fill="url(#extrude36)" opacity="0.130" /><ellipse cx="1536.0" cy="1663.0" rx="780.6" ry="642.1" fill="url(#extrude36)" opacity="0.115" /><ellipse cx="1536.0" cy="1678.8" rx="788.0" ry="647.4" fill="url(#extrude36)" opacity="0.100" /><ellipse cx="1536.0" cy="1694.7" rx="795.5" ry="652.6" fill="url(#extrude36)" opacity="0.085" /><ellipse cx="1536.0" cy="1710.6" rx="802.9" ry="657.8" fill="url(#extrude36)" opacity="0.070" /><ellipse cx="1536.0" cy="1726.5" rx="810.3" ry="663.0" fill="url(#extrude36)" opacity="0.055" /></g>
  <ellipse cx="1536.0" cy="1726.5" rx="773.2" ry="214.9" fill="#0B1D2D" opacity="0.24" />
  <ellipse cx="1536.0" cy="1536.0" rx="743.4" ry="651.3" fill="url(#orb36)" stroke="#FFFFFF" stroke-opacity="0.42" stroke-width="7" />
  <ellipse cx="1431.9" cy="1392.7" rx="505.5" ry="299.6" fill="#FFFFFF" opacity="0.25" />
  <path d="M 199.4 399.4 C 1013.8 -30.7, 2058.2 768.0, 2872.6 215.0 L 2872.6 983.0 C 2089.0 1228.8, 1013.8 307.2, 199.4 1167.4 Z" fill="url(#glass36)" />
  <rect x="270" y="270" width="2532" height="2532" rx="430" fill="none" stroke="#FFFFFF" stroke-opacity="0.30" stroke-width="5" />
  <rect x="288.4" y="288.4" width="2495.1" height="2495.1" rx="399" fill="none" stroke="#3B82FF" stroke-opacity="0.35" stroke-width="3" />
  <g filter="url(#soft36)"><rect x="1476" y="1551" width="56" height="2" fill="#FFFFFF" opacity="0.681" /><rect x="1503" y="1524" width="2" height="56" fill="#FFFFFF" opacity="0.681" /><rect x="2784" y="443" width="46" height="2" fill="#FFFFFF" opacity="0.758" /><rect x="2806" y="421" width="2" height="46" fill="#FFFFFF" opacity="0.758" /><rect x="2512" y="1408" width="48" height="2" fill="#FFFFFF" opacity="0.739" /><rect x="2535" y="1385" width="2" height="48" fill="#FFFFFF" opacity="0.739" /><rect x="497" y="1527" width="56" height="2" fill="#FFFFFF" opacity="0.592" /><rect x="524" y="1500" width="2" height="56" fill="#FFFFFF" opacity="0.592" /><rect x="2700" y="2567" width="72" height="2" fill="#FFFFFF" opacity="0.654" /><rect x="2735" y="2532" width="2" height="72" fill="#FFFFFF" opacity="0.654" /><rect x="1027" y="2453" width="26" height="2" fill="#FFFFFF" opacity="0.399" /><rect x="1039" y="2441" width="2" height="26" fill="#FFFFFF" opacity="0.399" /><rect x="1214" y="587" width="52" height="2" fill="#FFFFFF" opacity="0.690" /><rect x="1239" y="562" width="2" height="52" fill="#FFFFFF" opacity="0.690" /><rect x="635" y="1300" width="84" height="2" fill="#FFFFFF" opacity="0.384" /><rect x="676" y="1259" width="2" height="84" fill="#FFFFFF" opacity="0.384" /><rect x="1212" y="352" width="66" height="2" fill="#FFFFFF" opacity="0.302" /><rect x="1244" y="320" width="2" height="66" fill="#FFFFFF" opacity="0.302" /><rect x="670" y="515" width="78" height="2" fill="#FFFFFF" opacity="0.735" /><rect x="708" y="477" width="2" height="78" fill="#FFFFFF" opacity="0.735" /><rect x="1562" y="2100" width="34" height="2" fill="#FFFFFF" opacity="0.835" /><rect x="1578" y="2084" width="2" height="34" fill="#FFFFFF" opacity="0.835" /><rect x="1783" y="584" width="82" height="2" fill="#FFFFFF" opacity="0.634" /><rect x="1823" y="544" width="2" height="82" fill="#FFFFFF" opacity="0.634" /><rect x="367" y="1473" width="32" height="2" fill="#FFFFFF" opacity="0.560" /><rect x="382" y="1458" width="2" height="32" fill="#FFFFFF" opacity="0.560" /><rect x="619" y="2667" width="70" height="2" fill="#FFFFFF" opacity="0.588" /><rect x="653" y="2633" width="2" height="70" fill="#FFFFFF" opacity="0.588" /><rect x="828" y="1052" width="26" height="2" fill="#FFFFFF" opacity="0.738" /><rect x="840" y="1040" width="2" height="26" fill="#FFFFFF" opacity="0.738" /><rect x="917" y="2586" width="30" height="2" fill="#FFFFFF" opacity="0.408" /><rect x="931" y="2572" width="2" height="30" fill="#FFFFFF" opacity="0.408" /><rect x="1311" y="637" width="40" height="2" fill="#FFFFFF" opacity="0.726" /><rect x="1330" y="618" width="2" height="40" fill="#FFFFFF" opacity="0.726" /><rect x="1493" y="1339" width="50" height="2" fill="#FFFFFF" opacity="0.515" /><rect x="1517" y="1315" width="2" height="50" fill="#FFFFFF" opacity="0.515" /><rect x="2698" y="1546" width="50" height="2" fill="#FFFFFF" opacity="0.812" /><rect x="2722" y="1522" width="2" height="50" fill="#FFFFFF" opacity="0.812" /><rect x="1554" y="1914" width="36" height="2" fill="#FFFFFF" opacity="0.529" /><rect x="1571" y="1897" width="2" height="36" fill="#FFFFFF" opacity="0.529" /><rect x="2589" y="2251" width="72" height="2" fill="#FFFFFF" opacity="0.688" /><rect x="2624" y="2216" width="2" height="72" fill="#FFFFFF" opacity="0.688" /><rect x="2713" y="2486" width="82" height="2" fill="#FFFFFF" opacity="0.646" /><rect x="2753" y="2446" width="2" height="82" fill="#FFFFFF" opacity="0.646" /><rect x="1699" y="466" width="84" height="2" fill="#FFFFFF" opacity="0.705" /><rect x="1740" y="425" width="2" height="84" fill="#FFFFFF" opacity="0.705" /><rect x="829" y="1109" width="48" height="2" fill="#FFFFFF" opacity="0.303" /><rect x="852" y="1086" width="2" height="48" fill="#FFFFFF" opacity="0.303" /><rect x="2183" y="1695" width="40" height="2" fill="#FFFFFF" opacity="0.413" /><rect x="2202" y="1676" width="2" height="40" fill="#FFFFFF" opacity="0.413" /><rect x="2144" y="1814" width="24" height="2" fill="#FFFFFF" opacity="0.716" /><rect x="2155" y="1803" width="2" height="24" fill="#FFFFFF" opacity="0.716" /></g>
  <g opacity="0.52"><circle cx="1572" cy="1582" r="307" fill="none" stroke="#0C2030" stroke-width="90" /><line x1="1791" y1="1801" x2="2340" y2="2350" stroke="#0C2030" stroke-width="90" stroke-linecap="round" /></g>
  <g filter="url(#soft36)"><circle cx="1536" cy="1536" r="307" fill="none" stroke="url(#symbol36)" stroke-width="90" /><line x1="1755" y1="1755" x2="2304" y2="2304" stroke="url(#symbol36)" stroke-width="90" stroke-linecap="round" /></g>
  <rect x="138" y="138" width="2796" height="2796" rx="629" fill="#FFFFFF" filter="url(#grain36)" opacity="0.18" />
</svg>
