<svg xmlns="http://www.w3.org/2000/svg" width="3072" height="3072" viewBox="0 0 3072 3072">
  <title>QuartzOS App Icon 357 - stellar_designer_357</title>
  <defs><linearGradient id="bg356" x1="0%" y1="0%" x2="100%" y2="100%"><stop offset="0%" stop-color="#53E3A6" /><stop offset="26%" stop-color="#3B82FF" /><stop offset="56%" stop-color="#FF6AB3" /><stop offset="78%" stop-color="#3C8FC1" /><stop offset="100%" stop-color="#1E2E3A" /></linearGradient><radialGradient id="sun356" cx="25%" cy="40%" r="88%"><stop offset="0%" stop-color="#FFFFFF" stop-opacity="0.62" /><stop offset="30%" stop-color="#FF9F43" stop-opacity="0.35" /><stop offset="100%" stop-color="#FF9F43" stop-opacity="0" /></radialGradient><linearGradient id="glass356" x1="0%" y1="0%" x2="0%" y2="100%"><stop offset="0%" stop-color="#FFFFFF" stop-opacity="0.70" /><stop offset="46%" stop-color="#FFFFFF" stop-opacity="0.26" /><stop offset="100%" stop-color="#FFFFFF" stop-opacity="0.00" /></linearGradient><linearGradient id="ribbon356" x1="0%" y1="0%" x2="100%" y2="0%"><stop offset="0%" stop-color="#53E3A6" stop-opacity="0.18" /><stop offset="34%" stop-color="#3B82FF" stop-opacity="0.72" /><stop offset="66%" stop-color="#FF6AB3" stop-opacity="0.72" /><stop offset="100%" stop-color="#FF9F43" stop-opacity="0.18" /></linearGradient><radialGradient id="orb356" cx="34%" cy="27%" r="74%"><stop offset="0%" stop-color="#FFFFFF" stop-opacity="0.84" /><stop offset="30%" stop-color="#53E3A6" stop-opacity="0.52" /><stop offset="68%" stop-color="#3B82FF" stop-opacity="0.42" /><stop offset="100%" stop-color="#FF6AB3" stop-opacity="0.20" /></radialGradient><linearGradient id="extrude356" x1="0%" y1="0%" x2="0%" y2="100%"><stop offset="0%" stop-color="#15283C" stop-opacity="0.45" /><stop offset="100%" stop-color="#08131D" stop-opacity="0.06" /></linearGradient><linearGradient id="symbol356" x1="0%" y1="0%" x2="100%" y2="100%"><stop offset="0%" stop-color="#FFFFFF" /><stop offset="100%" stop-color="#FF9F43" /></linearGradient><filter id="shadow356" x="-40%" y="-40%" width="180%" height="180%"><feDropShadow dx="0" dy="49" stdDeviation="86" flood-color="#06111A" flood-opacity="0.54" /></filter><filter id="soft356" x="-40%" y="-40%" width="180%" height="180%"><feDropShadow dx="0" dy="0" stdDeviation="14" flood-color="#53E3A6" flood-opacity="0.45" /></filter><filter id="grain356"><feTurbulence type="fractalNoise" baseFrequency="0.902" numOctaves="2" seed="356" /><feColorMatrix type="saturate" values="0" /><feComponentTransfer><feFuncA type="table" tableValues="0 0.09" /></feComponentTransfer></filter></defs>
  <rect x="138" y="138" width="2796" height="2796" rx="629" fill="url(#bg356)" filter="url(#shadow356)" />
  <rect x="138" y="138" width="2796" height="2796" rx="629" fill="url(#sun356)" />
  <g><circle cx="915" cy="814" r="109" fill="#FFFFFF" opacity="0.197" /><circle cx="2058" cy="2608" r="48" fill="#FFFFFF" opacity="0.106" /><circle cx="1589" cy="1793" r="109" fill="#FFFFFF" opacity="0.186" /><circle cx="2699" cy="955" r="116" fill="#FFFFFF" opacity="0.089" /><circle cx="2510" cy="1647" r="159" fill="#FFFFFF" opacity="0.103" /><circle cx="450" cy="1329" r="52" fill="#FFFFFF" opacity="0.085" /><circle cx="1683" cy="2270" r="73" fill="#FFFFFF" opacity="0.239" /><circle cx="1636" cy="1736" r="103" fill="#FFFFFF" opacity="0.179" /><circle cx="1252" cy="503" r="103" fill="#FFFFFF" opacity="0.177" /><circle cx="492" cy="2616" r="107" fill="#FFFFFF" opacity="0.224" /><circle cx="2215" cy="1494" r="137" fill="#FFFFFF" opacity="0.186" /><circle cx="796" cy="798" r="134" fill="#FFFFFF" opacity="0.180" /><circle cx="454" cy="1642" r="124" fill="#FFFFFF" opacity="0.232" /><circle cx="1467" cy="982" r="150" fill="#FFFFFF" opacity="0.232" /><circle cx="415" cy="1055" r="146" fill="#FFFFFF" opacity="0.221" /><circle cx="2150" cy="1609" r="63" fill="#FFFFFF" opacity="0.163" /><circle cx="2096" cy="2371" r="129" fill="#FFFFFF" opacity="0.204" /><circle cx="779" cy="651" r="139" fill="#FFFFFF" opacity="0.129" /><circle cx="1011" cy="754" r="45" fill="#FFFFFF" opacity="0.193" /><circle cx="1783" cy="2146" r="77" fill="#FFFFFF" opacity="0.138" /><circle cx="1143" cy="983" r="132" fill="#FFFFFF" opacity="0.116" /><circle cx="2274" cy="1924" r="59" fill="#FFFFFF" opacity="0.220" /><circle cx="1202" cy="1755" r="131" fill="#FFFFFF" opacity="0.108" /><circle cx="542" cy="433" r="85" fill="#FFFFFF" opacity="0.198" /><circle cx="859" cy="2296" r="134" fill="#FFFFFF" opacity="0.222" /><circle cx="1209" cy="1935" r="56" fill="#FFFFFF" opacity="0.153" /><circle cx="1306" cy="2536" r="81" fill="#FFFFFF" opacity="0.102" /><circle cx="679" cy="2482" r="103" fill="#FFFFFF" opacity="0.126" /></g>
  <g><path d="M 283.0 650.4 L 2872.4 373.9 L 2872.4 798.8 L 283.0 1075.3 Z" fill="#FFFFFF" opacity="0.186" /><path d="M 222.0 917.0 L 2805.7 640.5 L 2805.7 1094.0 L 222.0 1370.5 Z" fill="#FFFFFF" opacity="0.195" /><path d="M 365.3 1109.9 L 2903.5 833.5 L 2903.5 1290.2 L 365.3 1566.6 Z" fill="#FFFFFF" opacity="0.200" /><path d="M 287.4 1362.8 L 2887.0 1086.3 L 2887.0 1565.0 L 287.4 1841.5 Z" fill="#FFFFFF" opacity="0.132" /><path d="M 289.9 1614.3 L 2824.7 1337.8 L 2824.7 1764.7 L 289.9 2041.1 Z" fill="#FFFFFF" opacity="0.238" /><path d="M 327.8 1877.7 L 2878.3 1601.3 L 2878.3 2040.7 L 327.8 2317.2 Z" fill="#FFFFFF" opacity="0.225" /><path d="M 347.1 2225.0 L 2848.9 1948.6 L 2848.9 2427.6 L 347.1 2704.0 Z" fill="#FFFFFF" opacity="0.213" /><path d="M 327.5 2467.4 L 2748.0 2190.9 L 2748.0 2646.6 L 327.5 2923.1 Z" fill="#FFFFFF" opacity="0.137" /></g>
  <g filter="url(#soft356)"><g transform="rotate(-12.99 1536.0 1536.0)"><path d="M-368.6 555.3 C -225.8 557.6, -25.8 554.0, 107.5 517.0 C 250.4 515.8, 450.4 573.5, 583.7 500.0 C 726.5 479.9, 926.5 596.5, 1059.8 516.5 C 1202.7 521.3, 1402.7 576.0, 1536.0 556.5 C 1678.8 556.2, 1878.8 554.1, 2012.2 595.8 C 2155.0 601.8, 2355.0 508.4, 2488.3 610.5 C 2631.2 629.0, 2831.2 526.6, 2964.5 591.7 C 3107.3 603.7, 3307.3 536.8, 3440.6 550.8" fill="none" stroke="url(#ribbon356)" stroke-width="58.4" stroke-linecap="round" stroke-opacity="0.120" /></g><g transform="rotate(-12.41 1536.0 1536.0)"><path d="M-368.6 689.8 C -241.7 738.1, -63.9 651.2, 54.6 749.7 C 181.6 753.2, 359.4 639.6, 477.9 719.0 C 604.8 728.3, 782.6 667.1, 901.1 670.6 C 1028.1 669.8, 1205.9 711.3, 1324.4 633.9 C 1451.3 626.5, 1629.1 738.6, 1747.6 631.1 C 1874.6 612.4, 2052.4 724.6, 2170.9 664.0 C 2297.9 655.1, 2475.6 719.3, 2594.1 712.5 C 2721.1 720.6, 2898.9 680.5, 3017.4 747.3 C 3144.4 734.9, 3322.1 623.5, 3440.6 747.2" fill="none" stroke="url(#ribbon356)" stroke-width="54.4" stroke-linecap="round" stroke-opacity="0.146" /></g><g transform="rotate(-11.83 1536.0 1536.0)"><path d="M-368.6 853.7 C -254.4 835.9, -94.4 867.5, 12.3 791.9 C 126.6 807.0, 286.6 876.8, 393.2 788.0 C 507.5 780.0, 667.5 921.5, 774.1 824.0 C 888.4 820.6, 1048.4 883.1, 1155.1 878.0 C 1269.4 868.6, 1429.3 826.5, 1536.0 917.3 C 1650.3 927.3, 1810.3 799.7, 1916.9 918.0 C 2031.2 903.4, 2191.2 830.7, 2297.9 879.7 C 2412.1 888.1, 2572.1 837.1, 2678.8 825.7 C 2793.1 825.6, 2953.1 862.7, 3059.7 788.6 C 3174.0 798.4, 3334.0 884.2, 3440.6 791.1" fill="none" stroke="url(#ribbon356)" stroke-width="50.4" stroke-linecap="round" stroke-opacity="0.172" /></g><g transform="rotate(-11.25 1536.0 1536.0)"><path d="M-368.6 1156.3 C -264.8 1156.3, -119.3 1156.3, -22.3 1101.4 C 81.5 1103.3, 227.0 1214.6, 324.0 1079.8 C 427.8 1053.0, 573.3 1218.4, 670.3 1104.6 C 774.1 1087.8, 919.6 1193.5, 1016.6 1160.8 C 1120.4 1161.2, 1265.9 1154.2, 1362.9 1214.2 C 1466.7 1210.9, 1612.2 1093.8, 1709.1 1232.5 C 1813.0 1258.2, 1958.5 1132.6, 2055.4 1204.6 C 2159.3 1223.1, 2304.8 1119.3, 2401.7 1147.4 C 2505.6 1144.2, 2651.1 1163.3, 2748.0 1095.6 C 2851.9 1076.0, 2997.4 1221.7, 3094.3 1080.6 C 3198.2 1094.9, 3343.7 1181.1, 3440.6 1111.6" fill="none" stroke="url(#ribbon356)" stroke-width="46.4" stroke-linecap="round" stroke-opacity="0.198" /></g><g transform="rotate(-10.67 1536.0 1536.0)"><path d="M-368.6 1324.4 C -273.4 1390.8, -140.1 1265.0, -51.2 1407.3 C 44.0 1421.0, 177.4 1229.5, 266.2 1374.2 C 361.5 1380.1, 494.8 1276.9, 583.7 1310.9 C 678.9 1308.3, 812.2 1335.1, 901.1 1255.9 C 996.4 1242.6, 1129.7 1372.4, 1218.6 1242.4 C 1313.8 1229.4, 1447.1 1391.7, 1536.0 1278.7 C 1631.2 1286.7, 1764.6 1366.8, 1853.4 1342.8 C 1948.7 1339.1, 2082.0 1311.0, 2170.9 1395.7 C 2266.1 1390.0, 2399.4 1255.5, 2488.3 1405.4 C 2583.6 1423.2, 2716.9 1244.5, 2805.8 1366.0 C 2901.0 1367.3, 3034.3 1294.8, 3123.2 1301.4 C 3218.4 1292.4, 3351.8 1335.1, 3440.6 1250.8" fill="none" stroke="url(#ribbon356)" stroke-width="42.4" stroke-linecap="round" stroke-opacity="0.224" /></g><g transform="rotate(-10.09 1536.0 1536.0)"><path d="M-368.6 1480.9 C -225.8 1462.1, -25.8 1492.4, 107.5 1526.1 C 250.4 1523.4, 450.4 1447.2, 583.7 1568.7 C 726.5 1568.0, 926.5 1430.0, 1059.8 1558.1 C 1202.7 1561.9, 1402.7 1456.0, 1536.0 1500.6 C 1678.8 1496.3, 1878.8 1467.0, 2012.2 1431.2 C 2155.0 1416.8, 2355.0 1532.8, 2488.3 1391.9 C 2631.2 1386.1, 2831.2 1508.5, 2964.5 1406.6 C 3107.3 1390.7, 3307.3 1506.4, 3440.6 1466.4" fill="none" stroke="url(#ribbon356)" stroke-width="38.4" stroke-linecap="round" stroke-opacity="0.250" /></g><g transform="rotate(-9.51 1536.0 1536.0)"><path d="M-368.6 1630.3 C -241.7 1647.8, -63.9 1624.1, 54.6 1571.1 C 181.6 1582.7, 359.4 1700.7, 477.9 1533.3 C 604.8 1534.8, 782.6 1699.8, 901.1 1554.4 C 1028.1 1576.8, 1205.9 1706.3, 1324.4 1621.5 C 1451.3 1618.4, 1629.1 1637.1, 1747.6 1694.0 C 1874.6 1710.5, 2052.4 1572.7, 2170.9 1727.8 C 2297.9 1740.3, 2475.6 1532.9, 2594.1 1702.5 C 2721.1 1708.7, 2898.9 1545.6, 3017.4 1633.4 C 3144.4 1634.2, 3322.1 1627.4, 3440.6 1562.4" fill="none" stroke="url(#ribbon356)" stroke-width="34.4" stroke-linecap="round" stroke-opacity="0.276" /></g><g transform="rotate(-8.93 1536.0 1536.0)"><path d="M-368.6 1867.0 C -254.4 1908.9, -94.4 1827.0, 12.3 1822.5 C 126.6 1828.0, 286.6 1889.9, 393.2 1768.0 C 507.5 1732.7, 667.5 1977.6, 774.1 1773.5 C 888.4 1754.3, 1048.4 1971.4, 1155.1 1835.8 C 1269.4 1825.0, 1429.3 1900.1, 1536.0 1917.0 C 1650.3 1899.3, 1810.3 1811.0, 1916.9 1967.9 C 2031.2 1956.9, 2191.2 1819.2, 2297.9 1957.6 C 2412.1 1940.2, 2572.1 1819.5, 2678.8 1892.3 C 2793.1 1891.7, 2953.1 1848.6, 3059.7 1811.7 C 3174.0 1797.4, 3334.0 1888.6, 3440.6 1764.7" fill="none" stroke="url(#ribbon356)" stroke-width="30.4" stroke-linecap="round" stroke-opacity="0.302" /></g><g transform="rotate(-8.35 1536.0 1536.0)"><path d="M-368.6 2098.3 C -264.8 2109.0, -119.3 2088.7, -22.3 2026.1 C 81.5 2045.7, 227.0 2130.7, 324.0 1986.7 C 427.8 1949.7, 573.3 2168.5, 670.3 2015.0 C 774.1 2030.2, 919.6 2126.4, 1016.6 2093.8 C 1120.4 2092.9, 1265.9 2102.4, 1362.9 2175.3 C 1466.7 2199.6, 1612.2 2039.3, 1709.1 2210.1 C 1813.0 2248.6, 1958.5 2015.7, 2055.4 2177.1 C 2159.3 2183.7, 2304.8 2035.7, 2401.7 2096.2 C 2505.6 2096.4, 2651.1 2098.9, 2748.0 2016.7 C 2851.9 2017.9, 2997.4 2154.6, 3094.3 1986.6 C 3198.2 2009.6, 3343.7 2159.0, 3440.6 2024.3" fill="none" stroke="url(#ribbon356)" stroke-width="26.4" stroke-linecap="round" stroke-opacity="0.328" /></g><g transform="rotate(-7.77 1536.0 1536.0)"><path d="M-368.6 2237.3 C -273.4 2078.3, -140.1 2357.4, -51.2 2161.6 C 44.0 2167.0, 177.4 2313.7, 266.2 2250.3 C 361.5 2253.0, 494.8 2228.3, 583.7 2331.1 C 678.9 2308.9, 812.2 2149.0, 901.1 2355.0 C 996.4 2375.9, 1129.7 2151.5, 1218.6 2307.5 C 1313.8 2301.8, 1447.1 2173.6, 1536.0 2217.3 C 1631.2 2209.6, 1764.6 2252.3, 1853.4 2139.3 C 1948.7 2112.6, 2082.0 2307.6, 2170.9 2120.7 C 2266.1 2158.6, 2399.4 2319.2, 2488.3 2172.8 C 2583.6 2159.0, 2716.9 2267.7, 2805.8 2264.0 C 2901.0 2262.4, 3034.3 2207.3, 3123.2 2339.0 C 3218.4 2318.5, 3351.8 2164.3, 3440.6 2352.3" fill="none" stroke="url(#ribbon356)" stroke-width="22.4" stroke-linecap="round" stroke-opacity="0.354" /></g><g transform="rotate(-7.19 1536.0 1536.0)"><path d="M-368.6 2459.7 C -225.8 2349.2, -25.8 2564.8, 107.5 2442.2 C 250.4 2445.4, 450.4 2480.0, 583.7 2537.0 C 726.5 2562.2, 926.5 2407.6, 1059.8 2584.9 C 1202.7 2559.2, 1402.7 2375.6, 1536.0 2556.9 C 1678.8 2580.3, 1878.8 2403.0, 2012.2 2469.9 C 2155.0 2469.2, 2355.0 2447.7, 2488.3 2376.7 C 2631.2 2384.6, 2831.2 2540.3, 2964.5 2333.9 C 3107.3 2362.0, 3307.3 2538.9, 3440.6 2367.4" fill="none" stroke="url(#ribbon356)" stroke-width="18.4" stroke-linecap="round" stroke-opacity="0.380" /></g><g transform="rotate(-6.61 1536.0 1536.0)"><path d="M-368.6 2687.8 C -241.7 2847.7, -63.9 2582.0, 54.6 2783.2 C 181.6 2803.6, 359.4 2606.3, 477.9 2687.8 C 604.8 2687.8, 782.6 2687.9, 901.1 2592.4 C 1028.1 2610.9, 1205.9 2801.5, 1324.4 2554.9 C 1451.3 2517.3, 1629.1 2815.8, 1747.6 2598.0 C 1874.6 2563.5, 2052.4 2755.7, 2170.9 2695.7 C 2297.9 2698.0, 2475.6 2680.3, 2594.1 2788.5 C 2721.1 2785.9, 2898.9 2623.4, 3017.4 2820.3 C 3144.4 2860.5, 3322.1 2603.6, 3440.6 2771.8" fill="none" stroke="url(#ribbon356)" stroke-width="14.4" stroke-linecap="round" stroke-opacity="0.406" /></g></g>
  <g><ellipse cx="1536.0" cy="1551.9" rx="728.6" ry="605.7" fill="url(#extrude356)" opacity="0.220" /><ellipse cx="1536.0" cy="1567.7" rx="736.0" ry="610.9" fill="url(#extrude356)" opacity="0.205" /><ellipse cx="1536.0" cy="1583.6" rx="743.4" ry="616.1" fill="url(#extrude356)" opacity="0.190" /><ellipse cx="1536.0" cy="1599.5" rx="750.9" ry="621.3" fill="url(#extrude356)" opacity="0.175" /><ellipse cx="1536.0" cy="1615.4" rx="758.3" ry="626.5" fill="url(#extrude356)" opacity="0.160" /><ellipse cx="1536.0" cy="1631.2" rx="765.7" ry="631.7" fill="url(#extrude356)" opacity="0.145" /><ellipse cx="1536.0" cy="1647.1" rx="773.2" ry="636.9" fill="url(#extrude356)" opacity="0.130" /><ellipse cx="1536.0" cy="1663.0" rx="780.6" ry="642.1" fill="url(#extrude356)" opacity="0.115" /><ellipse cx="1536.0" cy="1678.8" rx="788.0" ry="647.4" fill="url(#extrude356)" opacity="0.100" /><ellipse cx="1536.0" cy="1694.7" rx="795.5" ry="652.6" fill="url(#extrude356)" opacity="0.085" /><ellipse cx="1536.0" cy="1710.6" rx="802.9" ry="657.8" fill="url(#extrude356)" opacity="0.070" /><ellipse cx="1536.0" cy="1726.5" rx="810.3" ry="663.0" fill="url(#extrude356)" opacity="0.055" /></g>
  <ellipse cx="1536.0" cy="1726.5" rx="773.2" ry="214.9" fill="#0B1D2D" opacity="0.24" />
  <ellipse cx="1536.0" cy="1536.0" rx="743.4" ry="651.3" fill="url(#orb356)" stroke="#FFFFFF" stroke-opacity="0.42" stroke-width="7" />
  <ellipse cx="1431.9" cy="1392.7" rx="505.5" ry="299.6" fill="#FFFFFF" opacity="0.25" />
  <path d="M 199.4 399.4 C 1013.8 -30.7, 2058.2 768.0, 2872.6 215.0 L 2872.6 983.0 C 2089.0 1228.8, 1013.8 307.2, 199.4 1167.4 Z" fill="url(#glass356)" />
  <rect x="270" y="270" width="2532" height="2532" rx="430" fill="none" stroke="#FFFFFF" stroke-opacity="0.30" stroke-width="5" />
  <rect x="288.4" y="288.4" width="2495.1" height="2495.1" rx="399" fill="none" stroke="#53E3A6" stroke-opacity="0.35" stroke-width="3" />
  <g filter="url(#soft356)"><rect x="2394" y="1137" width="56" height="2" fill="#FFFFFF" opacity="0.392" /><rect x="2421" y="1110" width="2" height="56" fill="#FFFFFF" opacity="0.392" /><rect x="1763" y="2392" width="76" height="2" fill="#FFFFFF" opacity="0.563" /><rect x="1800" y="2355" width="2" height="76" fill="#FFFFFF" opacity="0.563" /><rect x="2716" y="909" width="50" height="2" fill="#FFFFFF" opacity="0.434" /><rect x="2740" y="885" width="2" height="50" fill="#FFFFFF" opacity="0.434" /><rect x="2140" y="779" width="38" height="2" fill="#FFFFFF" opacity="0.671" /><rect x="2158" y="761" width="2" height="38" fill="#FFFFFF" opacity="0.671" /><rect x="1531" y="2186" width="64" height="2" fill="#FFFFFF" opacity="0.578" /><rect x="1562" y="2155" width="2" height="64" fill="#FFFFFF" opacity="0.578" /><rect x="2272" y="2529" width="74" height="2" fill="#FFFFFF" opacity="0.685" /><rect x="2308" y="2493" width="2" height="74" fill="#FFFFFF" opacity="0.685" /><rect x="1844" y="1937" width="30" height="2" fill="#FFFFFF" opacity="0.712" /><rect x="1858" y="1923" width="2" height="30" fill="#FFFFFF" opacity="0.712" /><rect x="667" y="2508" width="76" height="2" fill="#FFFFFF" opacity="0.830" /><rect x="704" y="2471" width="2" height="76" fill="#FFFFFF" opacity="0.830" /><rect x="2494" y="1305" width="50" height="2" fill="#FFFFFF" opacity="0.509" /><rect x="2518" y="1281" width="2" height="50" fill="#FFFFFF" opacity="0.509" /><rect x="751" y="467" width="68" height="2" fill="#FFFFFF" opacity="0.401" /><rect x="784" y="434" width="2" height="68" fill="#FFFFFF" opacity="0.401" /><rect x="1220" y="447" width="62" height="2" fill="#FFFFFF" opacity="0.746" /><rect x="1250" y="417" width="2" height="62" fill="#FFFFFF" opacity="0.746" /><rect x="1636" y="996" width="56" height="2" fill="#FFFFFF" opacity="0.336" /><rect x="1663" y="969" width="2" height="56" fill="#FFFFFF" opacity="0.336" /><rect x="2007" y="2360" width="66" height="2" fill="#FFFFFF" opacity="0.822" /><rect x="2039" y="2328" width="2" height="66" fill="#FFFFFF" opacity="0.822" /><rect x="931" y="2323" width="54" height="2" fill="#FFFFFF" opacity="0.332" /><rect x="957" y="2297" width="2" height="54" fill="#FFFFFF" opacity="0.332" /><rect x="1962" y="489" width="64" height="2" fill="#FFFFFF" opacity="0.692" /><rect x="1993" y="458" width="2" height="64" fill="#FFFFFF" opacity="0.692" /><rect x="2151" y="1624" width="32" height="2" fill="#FFFFFF" opacity="0.396" /><rect x="2166" y="1609" width="2" height="32" fill="#FFFFFF" opacity="0.396" /><rect x="334" y="496" width="78" height="2" fill="#FFFFFF" opacity="0.652" /><rect x="372" y="458" width="2" height="78" fill="#FFFFFF" opacity="0.652" /><rect x="1416" y="1761" width="38" height="2" fill="#FFFFFF" opacity="0.772" /><rect x="1434" y="1743" width="2" height="38" fill="#FFFFFF" opacity="0.772" /><rect x="2085" y="626" width="82" height="2" fill="#FFFFFF" opacity="0.596" /><rect x="2125" y="586" width="2" height="82" fill="#FFFFFF" opacity="0.596" /><rect x="1509" y="1803" width="74" height="2" fill="#FFFFFF" opacity="0.811" /><rect x="1545" y="1767" width="2" height="74" fill="#FFFFFF" opacity="0.811" /><rect x="766" y="1196" width="42" height="2" fill="#FFFFFF" opacity="0.415" /><rect x="786" y="1176" width="2" height="42" fill="#FFFFFF" opacity="0.415" /><rect x="2751" y="1555" width="62" height="2" fill="#FFFFFF" opacity="0.622" /><rect x="2781" y="1525" width="2" height="62" fill="#FFFFFF" opacity="0.622" /><rect x="1176" y="389" width="74" height="2" fill="#FFFFFF" opacity="0.427" /><rect x="1212" y="353" width="2" height="74" fill="#FFFFFF" opacity="0.427" /><rect x="824" y="2471" width="62" height="2" fill="#FFFFFF" opacity="0.556" /><rect x="854" y="2441" width="2" height="62" fill="#FFFFFF" opacity="0.556" /><rect x="1524" y="1541" width="40" height="2" fill="#FFFFFF" opacity="0.742" /><rect x="1543" y="1522" width="2" height="40" fill="#FFFFFF" opacity="0.742" /><rect x="1998" y="2419" width="34" height="2" fill="#FFFFFF" opacity="0.728" /><rect x="2014" y="2403" width="2" height="34" fill="#FFFFFF" opacity="0.728" /></g>
  <g opacity="0.52"><path d="M1023 1326 L1572 1070 L2121 1326 L2121 2043 L1023 2043 Z" fill="none" stroke="#0C2030" stroke-width="90" stroke-linejoin="round" /><line x1="1572" y1="1070" x2="1572" y2="2043" stroke="#0C2030" stroke-width="88" /></g>
  <g filter="url(#soft356)"><path d="M987 1280 L1536 1024 L2085 1280 L2085 1997 L987 1997 Z" fill="none" stroke="url(#symbol356)" stroke-width="90" stroke-linejoin="round" /><line x1="1536" y1="1024" x2="1536" y2="1997" stroke="url(#symbol356)" stroke-width="88" /></g>
  <rect x="138" y="138" width="2796" height="2796" rx="629" fill="#FFFFFF" filter="url(#grain356)" opacity="0.18" />
</svg>
