<svg xmlns="http://www.w3.org/2000/svg" width="3072" height="3072" viewBox="0 0 3072 3072">
  <title>QuartzOS App Icon 057 - stellar_board_057</title>
  <defs><linearGradient id="bg56" x1="0%" y1="0%" x2="100%" y2="100%"><stop offset="0%" stop-color="#36D1FF" /><stop offset="26%" stop-color="#8A5CFF" /><stop offset="56%" stop-color="#FF9F43" /><stop offset="78%" stop-color="#3C8FC1" /><stop offset="100%" stop-color="#1E2E3A" /></linearGradient><radialGradient id="sun56" cx="28%" cy="36%" r="88%"><stop offset="0%" stop-color="#FFFFFF" stop-opacity="0.62" /><stop offset="30%" stop-color="#FFD84D" stop-opacity="0.35" /><stop offset="100%" stop-color="#FFD84D" stop-opacity="0" /></radialGradient><linearGradient id="glass56" x1="0%" y1="0%" x2="0%" y2="100%"><stop offset="0%" stop-color="#FFFFFF" stop-opacity="0.70" /><stop offset="46%" stop-color="#FFFFFF" stop-opacity="0.26" /><stop offset="100%" stop-color="#FFFFFF" stop-opacity="0.00" /></linearGradient><linearGradient id="ribbon56" x1="0%" y1="0%" x2="100%" y2="0%"><stop offset="0%" stop-color="#36D1FF" stop-opacity="0.18" /><stop offset="34%" stop-color="#8A5CFF" stop-opacity="0.72" /><stop offset="66%" stop-color="#FF9F43" stop-opacity="0.72" /><stop offset="100%" stop-color="#FFD84D" stop-opacity="0.18" /></linearGradient><radialGradient id="orb56" cx="34%" cy="27%" r="74%"><stop offset="0%" stop-color="#FFFFFF" stop-opacity="0.84" /><stop offset="30%" stop-color="#36D1FF" stop-opacity="0.52" /><stop offset="68%" stop-color="#8A5CFF" stop-opacity="0.42" /><stop offset="100%" stop-color="#FF9F43" stop-opacity="0.20" /></radialGradient><linearGradient id="extrude56" x1="0%" y1="0%" x2="0%" y2="100%"><stop offset="0%" stop-color="#15283C" stop-opacity="0.45" /><stop offset="100%" stop-color="#08131D" stop-opacity="0.06" /></linearGradient><linearGradient id="symbol56" x1="0%" y1="0%" x2="100%" y2="100%"><stop offset="0%" stop-color="#FFFFFF" /><stop offset="100%" stop-color="#FFD84D" /></linearGradient><filter id="shadow56" x="-40%" y="-40%" width="180%" height="180%"><feDropShadow dx="0" dy="49" stdDeviation="86" flood-color="#06111A" flood-opacity="0.54" /></filter><filter id="soft56" x="-40%" y="-40%" width="180%" height="180%"><feDropShadow dx="0" dy="0" stdDeviation="14" flood-color="#36D1FF" flood-opacity="0.45" /></filter><filter id="grain56"><feTurbulence type="fractalNoise" baseFrequency="1.036" numOctaves="2" seed="56" /><feColorMatrix type="saturate" values="0" /><feComponentTransfer><feFuncA type="table" tableValues="0 0.09" /></feComponentTransfer></filter></defs>
  <rect x="138" y="138" width="2796" height="2796" rx="629" fill="url(#bg56)" filter="url(#shadow56)" />
  <rect x="138" y="138" width="2796" height="2796" rx="629" fill="url(#sun56)" />
  <g><circle cx="1080" cy="1534" r="63" fill="#FFFFFF" opacity="0.141" /><circle cx="2639" cy="1240" r="100" fill="#FFFFFF" opacity="0.180" /><circle cx="2310" cy="2285" r="121" fill="#FFFFFF" opacity="0.086" /><circle cx="1390" cy="1236" r="54" fill="#FFFFFF" opacity="0.083" /><circle cx="1184" cy="2458" r="73" fill="#FFFFFF" opacity="0.088" /><circle cx="2225" cy="1936" r="108" fill="#FFFFFF" opacity="0.137" /><circle cx="1217" cy="1829" r="102" fill="#FFFFFF" opacity="0.125" /><circle cx="2664" cy="1696" r="158" fill="#FFFFFF" opacity="0.209" /><circle cx="2025" cy="1649" r="80" fill="#FFFFFF" opacity="0.239" /><circle cx="560" cy="532" r="94" fill="#FFFFFF" opacity="0.183" /><circle cx="528" cy="1602" r="119" fill="#FFFFFF" opacity="0.205" /><circle cx="2382" cy="439" r="142" fill="#FFFFFF" opacity="0.097" /><circle cx="480" cy="2294" r="147" fill="#FFFFFF" opacity="0.234" /><circle cx="2466" cy="1672" r="99" fill="#FFFFFF" opacity="0.070" /><circle cx="2294" cy="1314" r="100" fill="#FFFFFF" opacity="0.208" /><circle cx="927" cy="2172" r="57" fill="#FFFFFF" opacity="0.195" /><circle cx="1183" cy="2012" r="130" fill="#FFFFFF" opacity="0.142" /><circle cx="1879" cy="2526" r="153" fill="#FFFFFF" opacity="0.216" /><circle cx="633" cy="1473" r="76" fill="#FFFFFF" opacity="0.067" /><circle cx="1291" cy="2103" r="71" fill="#FFFFFF" opacity="0.072" /><circle cx="1491" cy="793" r="53" fill="#FFFFFF" opacity="0.065" /><circle cx="1839" cy="721" r="41" fill="#FFFFFF" opacity="0.231" /><circle cx="1722" cy="1738" r="64" fill="#FFFFFF" opacity="0.090" /><circle cx="1053" cy="1069" r="110" fill="#FFFFFF" opacity="0.182" /><circle cx="2137" cy="1745" r="113" fill="#FFFFFF" opacity="0.106" /><circle cx="1794" cy="2286" r="48" fill="#FFFFFF" opacity="0.143" /><circle cx="1765" cy="1666" r="76" fill="#FFFFFF" opacity="0.208" /><circle cx="692" cy="1489" r="113" fill="#FFFFFF" opacity="0.209" /></g>
  <g><path d="M 347.6 614.7 L 2758.6 338.2 L 2758.6 796.4 L 347.6 1072.8 Z" fill="#FFFFFF" opacity="0.140" /><path d="M 288.6 849.5 L 2851.1 573.1 L 2851.1 1057.3 L 288.6 1333.8 Z" fill="#FFFFFF" opacity="0.157" /><path d="M 230.1 1157.0 L 2911.0 880.5 L 2911.0 1319.1 L 230.1 1595.6 Z" fill="#FFFFFF" opacity="0.082" /><path d="M 297.1 1380.6 L 2848.1 1104.1 L 2848.1 1591.6 L 297.1 1868.0 Z" fill="#FFFFFF" opacity="0.204" /><path d="M 346.7 1641.0 L 2704.0 1364.5 L 2704.0 1855.3 L 346.7 2131.8 Z" fill="#FFFFFF" opacity="0.207" /><path d="M 296.9 1875.1 L 2821.3 1598.6 L 2821.3 2023.3 L 296.9 2299.8 Z" fill="#FFFFFF" opacity="0.222" /><path d="M 218.6 2193.2 L 2705.9 1916.7 L 2705.9 2358.0 L 218.6 2634.5 Z" fill="#FFFFFF" opacity="0.164" /><path d="M 373.2 2441.7 L 2805.1 2165.2 L 2805.1 2627.7 L 373.2 2904.1 Z" fill="#FFFFFF" opacity="0.098" /></g>
  <g filter="url(#soft56)"><g transform="rotate(-15.55 1536.0 1536.0)"><path d="M-368.6 549.5 C -225.8 609.3, -25.8 495.0, 107.5 567.5 C 250.4 563.8, 450.4 533.7, 583.7 524.5 C 726.5 532.9, 926.5 573.3, 1059.8 496.7 C 1202.7 506.7, 1402.7 575.2, 1536.0 501.0 C 1678.8 507.2, 1878.8 584.0, 2012.2 534.7 C 2155.0 529.0, 2355.0 555.9, 2488.3 577.4 C 2631.2 585.9, 2831.2 525.6, 2964.5 603.2 C 3107.3 598.2, 3307.3 514.7, 3440.6 596.4" fill="none" stroke="url(#ribbon56)" stroke-width="58.4" stroke-linecap="round" stroke-opacity="0.120" /></g><g transform="rotate(-14.97 1536.0 1536.0)"><path d="M-368.6 678.1 C -241.7 707.8, -63.9 643.5, 54.6 740.4 C 181.6 764.3, 359.4 635.0, 477.9 721.8 C 604.8 707.4, 782.6 642.2, 901.1 676.6 C 1028.1 677.1, 1205.9 679.1, 1324.4 632.3 C 1451.3 616.1, 1629.1 709.7, 1747.6 615.8 C 1874.6 631.3, 2052.4 743.6, 2170.9 637.1 C 2297.9 644.0, 2475.6 713.1, 2594.1 683.2 C 2721.1 682.2, 2898.9 673.4, 3017.4 726.2 C 3144.4 725.7, 3322.1 651.9, 3440.6 740.1" fill="none" stroke="url(#ribbon56)" stroke-width="54.4" stroke-linecap="round" stroke-opacity="0.146" /></g><g transform="rotate(-14.39 1536.0 1536.0)"><path d="M-368.6 858.6 C -254.4 879.2, -94.4 850.2, 12.3 921.0 C 126.6 907.8, 286.6 830.0, 393.2 924.0 C 507.5 924.2, 667.5 813.4, 774.1 887.3 C 888.4 880.8, 1048.4 833.9, 1155.1 833.3 C 1269.4 832.0, 1429.3 869.3, 1536.0 794.6 C 1650.3 769.1, 1810.3 879.0, 1916.9 794.8 C 2031.2 773.6, 2191.2 887.7, 2297.9 833.7 C 2412.1 841.5, 2572.1 883.1, 2678.8 887.7 C 2793.1 887.4, 2953.1 847.6, 3059.7 924.1 C 3174.0 907.7, 3334.0 812.2, 3440.6 920.8" fill="none" stroke="url(#ribbon56)" stroke-width="50.4" stroke-linecap="round" stroke-opacity="0.172" /></g><g transform="rotate(-13.81 1536.0 1536.0)"><path d="M-368.6 1099.1 C -264.8 1052.5, -119.3 1130.4, -22.3 1025.2 C 81.5 1026.2, 227.0 1152.2, 324.0 1061.7 C 427.8 1072.3, 573.3 1137.6, 670.3 1120.9 C 774.1 1125.8, 919.6 1089.3, 1016.6 1166.9 C 1120.4 1148.5, 1265.9 1036.6, 1362.9 1171.7 C 1466.7 1153.0, 1612.2 1025.9, 1709.1 1132.5 C 1813.0 1137.8, 1958.5 1059.8, 2055.4 1073.1 C 2159.3 1070.1, 2304.8 1111.5, 2401.7 1029.4 C 2505.6 1002.9, 2651.1 1120.1, 2748.0 1028.0 C 2851.9 1012.4, 2997.4 1157.8, 3094.3 1069.7 C 3198.2 1063.2, 3343.7 1119.7, 3440.6 1129.3" fill="none" stroke="url(#ribbon56)" stroke-width="46.4" stroke-linecap="round" stroke-opacity="0.198" /></g><g transform="rotate(-13.23 1536.0 1536.0)"><path d="M-368.6 1313.5 C -273.4 1223.7, -140.1 1375.3, -51.2 1261.2 C 44.0 1257.2, 177.4 1348.9, 266.2 1323.8 C 361.5 1326.8, 494.8 1301.5, 583.7 1380.1 C 678.9 1360.8, 812.2 1249.8, 901.1 1396.0 C 996.4 1387.3, 1129.7 1268.6, 1218.6 1361.9 C 1313.8 1378.7, 1447.1 1256.0, 1536.0 1298.3 C 1631.2 1301.8, 1764.6 1326.7, 1853.4 1244.0 C 1948.7 1243.6, 2082.0 1342.3, 2170.9 1231.8 C 2266.1 1210.8, 2399.4 1402.7, 2488.3 1269.1 C 2583.6 1278.4, 2716.9 1337.3, 2805.8 1333.4 C 2901.0 1339.9, 3034.3 1294.3, 3123.2 1385.5 C 3218.4 1397.9, 3351.8 1249.3, 3440.6 1394.0" fill="none" stroke="url(#ribbon56)" stroke-width="42.4" stroke-linecap="round" stroke-opacity="0.224" /></g><g transform="rotate(-12.65 1536.0 1536.0)"><path d="M-368.6 1480.2 C -225.8 1430.2, -25.8 1526.6, 107.5 1391.6 C 250.4 1372.0, 450.4 1582.8, 583.7 1404.7 C 726.5 1423.1, 926.5 1512.3, 1059.8 1463.5 C 1202.7 1469.1, 1402.7 1488.1, 1536.0 1532.5 C 1678.8 1526.2, 1878.8 1431.3, 2012.2 1569.7 C 2155.0 1605.3, 2355.0 1431.1, 2488.3 1552.6 C 2631.2 1527.3, 2831.2 1450.7, 2964.5 1491.5 C 3107.3 1491.5, 3307.3 1472.0, 3440.6 1423.6" fill="none" stroke="url(#ribbon56)" stroke-width="38.4" stroke-linecap="round" stroke-opacity="0.250" /></g><g transform="rotate(-12.07 1536.0 1536.0)"><path d="M-368.6 1696.3 C -241.7 1650.4, -63.9 1723.5, 54.6 1604.2 C 181.6 1596.0, 359.4 1762.4, 477.9 1608.8 C 604.8 1623.2, 782.6 1801.2, 901.1 1666.4 C 1028.1 1673.0, 1205.9 1713.3, 1324.4 1742.2 C 1451.3 1724.8, 1629.1 1651.2, 1747.6 1790.1 C 1874.6 1762.9, 2052.4 1662.1, 2170.9 1781.2 C 2297.9 1748.5, 2475.6 1605.1, 2594.1 1720.7 C 2721.1 1726.1, 2898.9 1669.7, 3017.4 1645.4 C 3144.4 1638.0, 3322.1 1757.0, 3440.6 1601.0" fill="none" stroke="url(#ribbon56)" stroke-width="34.4" stroke-linecap="round" stroke-opacity="0.276" /></g><g transform="rotate(-11.49 1536.0 1536.0)"><path d="M-368.6 1824.7 C -254.4 1736.3, -94.4 1880.6, 12.3 1720.2 C 126.6 1718.5, 286.6 1935.4, 393.2 1747.1 C 507.5 1749.8, 667.5 1857.7, 774.1 1821.2 C 888.4 1821.3, 1048.4 1826.9, 1155.1 1897.3 C 1269.4 1887.2, 1429.3 1749.8, 1536.0 1929.5 C 1650.3 1952.5, 1810.3 1711.8, 1916.9 1898.1 C 2031.2 1877.8, 2191.2 1785.2, 2297.9 1822.1 C 2412.1 1821.9, 2572.1 1825.5, 2678.8 1747.8 C 2793.1 1747.2, 2953.1 1886.8, 3059.7 1720.1 C 3174.0 1714.2, 3334.0 1896.1, 3440.6 1755.9" fill="none" stroke="url(#ribbon56)" stroke-width="30.4" stroke-linecap="round" stroke-opacity="0.302" /></g><g transform="rotate(-10.91 1536.0 1536.0)"><path d="M-368.6 2025.0 C -264.8 1925.2, -119.3 2127.4, -22.3 1930.8 C 81.5 1935.6, 227.0 2132.4, 324.0 2002.7 C 427.8 2000.2, 573.3 2042.3, 670.3 2088.1 C 774.1 2095.4, 919.6 1955.1, 1016.6 2135.2 C 1120.4 2121.5, 1265.9 1990.0, 1362.9 2115.4 C 1466.7 2080.2, 1612.2 1960.1, 1709.1 2040.8 C 1813.0 2043.4, 1958.5 2013.1, 2055.4 1956.6 C 2159.3 1980.5, 2304.8 2086.8, 2401.7 1913.9 C 2505.6 1908.0, 2651.1 2152.2, 2748.0 1938.5 C 2851.9 1911.7, 2997.4 2052.1, 3094.3 2015.6 C 3198.2 2018.9, 3343.7 2034.5, 3440.6 2098.4" fill="none" stroke="url(#ribbon56)" stroke-width="26.4" stroke-linecap="round" stroke-opacity="0.328" /></g><g transform="rotate(-10.33 1536.0 1536.0)"><path d="M-368.6 2304.1 C -273.4 2438.0, -140.1 2259.5, -51.2 2390.1 C 44.0 2362.7, 177.4 2260.1, 266.2 2305.2 C 361.5 2305.2, 494.8 2302.8, 583.7 2219.6 C 678.9 2234.8, 812.2 2380.4, 901.1 2185.2 C 996.4 2227.5, 1129.7 2431.7, 1218.6 2223.0 C 1313.8 2220.1, 1447.1 2369.8, 1536.0 2309.9 C 1631.2 2310.7, 1764.6 2299.7, 1853.4 2393.3 C 1948.7 2376.4, 2082.0 2205.1, 2170.9 2422.6 C 2266.1 2437.3, 2399.4 2192.9, 2488.3 2380.0 C 2583.6 2363.8, 2716.9 2224.1, 2805.8 2291.3 C 2901.0 2293.2, 3034.3 2309.1, 3123.2 2210.4 C 3218.4 2203.6, 3351.8 2364.7, 3440.6 2186.3" fill="none" stroke="url(#ribbon56)" stroke-width="22.4" stroke-linecap="round" stroke-opacity="0.354" /></g><g transform="rotate(-9.75 1536.0 1536.0)"><path d="M-368.6 2491.0 C -225.8 2537.7, -25.8 2457.9, 107.5 2443.5 C 250.4 2447.2, 450.4 2528.0, 583.7 2374.2 C 726.5 2397.9, 926.5 2553.8, 1059.8 2375.8 C 1202.7 2385.5, 1402.7 2584.4, 1536.0 2447.2 C 1678.8 2450.6, 1878.8 2536.1, 2012.2 2545.2 C 2155.0 2532.2, 2355.0 2430.9, 2488.3 2610.3 C 2631.2 2606.7, 2831.2 2446.1, 2964.5 2603.1 C 3107.3 2626.2, 3307.3 2375.5, 3440.6 2527.8" fill="none" stroke="url(#ribbon56)" stroke-width="18.4" stroke-linecap="round" stroke-opacity="0.380" /></g><g transform="rotate(-9.17 1536.0 1536.0)"><path d="M-368.6 2640.7 C -241.7 2771.4, -63.9 2524.1, 54.6 2771.0 C 181.6 2780.2, 359.4 2588.5, 477.9 2712.4 C 604.8 2696.8, 782.6 2583.9, 901.1 2610.3 C 1028.1 2598.8, 1205.9 2672.3, 1324.4 2526.6 C 1451.3 2517.0, 1629.1 2761.7, 1747.6 2512.1 C 1874.6 2484.3, 2052.4 2700.5, 2170.9 2575.7 C 2297.9 2575.8, 2475.6 2683.1, 2594.1 2678.6 C 2721.1 2672.4, 2898.9 2598.0, 3017.4 2758.6 C 3144.4 2718.2, 3322.1 2548.4, 3440.6 2767.0" fill="none" stroke="url(#ribbon56)" stroke-width="14.4" stroke-linecap="round" stroke-opacity="0.406" /></g></g>
  <g><ellipse cx="1536.0" cy="1551.9" rx="728.6" ry="605.7" fill="url(#extrude56)" opacity="0.220" /><ellipse cx="1536.0" cy="1567.7" rx="736.0" ry="610.9" fill="url(#extrude56)" opacity="0.205" /><ellipse cx="1536.0" cy="1583.6" rx="743.4" ry="616.1" fill="url(#extrude56)" opacity="0.190" /><ellipse cx="1536.0" cy="1599.5" rx="750.9" ry="621.3" fill="url(#extrude56)" opacity="0.175" /><ellipse cx="1536.0" cy="1615.4" rx="758.3" ry="626.5" fill="url(#extrude56)" opacity="0.160" /><ellipse cx="1536.0" cy="1631.2" rx="765.7" ry="631.7" fill="url(#extrude56)" opacity="0.145" /><ellipse cx="1536.0" cy="1647.1" rx="773.2" ry="636.9" fill="url(#extrude56)" opacity="0.130" /><ellipse cx="1536.0" cy="1663.0" rx="780.6" ry="642.1" fill="url(#extrude56)" opacity="0.115" /><ellipse cx="1536.0" cy="1678.8" rx="788.0" ry="647.4" fill="url(#extrude56)" opacity="0.100" /><ellipse cx="1536.0" cy="1694.7" rx="795.5" ry="652.6" fill="url(#extrude56)" opacity="0.085" /><ellipse cx="1536.0" cy="1710.6" rx="802.9" ry="657.8" fill="url(#extrude56)" opacity="0.070" /><ellipse cx="1536.0" cy="1726.5" rx="810.3" ry="663.0" fill="url(#extrude56)" opacity="0.055" /></g>
  <ellipse cx="1536.0" cy="1726.5" rx="773.2" ry="214.9" fill="#0B1D2D" opacity="0.24" />
  <ellipse cx="1536.0" cy="1536.0" rx="743.4" ry="651.3" fill="url(#orb56)" stroke="#FFFFFF" stroke-opacity="0.42" stroke-width="7" />
  <ellipse cx="1431.9" cy="1392.7" rx="505.5" ry="299.6" fill="#FFFFFF" opacity="0.25" />
  <path d="M 199.4 399.4 C 1013.8 -30.7, 2058.2 768.0, 2872.6 215.0 L 2872.6 983.0 C 2089.0 1228.8, 1013.8 307.2, 199.4 1167.4 Z" fill="url(#glass56)" />
  <rect x="270" y="270" width="2532" height="2532" rx="430" fill="none" stroke="#FFFFFF" stroke-opacity="0.30" stroke-width="5" />
  <rect x="288.4" y="288.4" width="2495.1" height="2495.1" rx="399" fill="none" stroke="#36D1FF" stroke-opacity="0.35" stroke-width="3" />
  <g filter="url(#soft56)"><rect x="1413" y="598" width="30" height="2" fill="#FFFFFF" opacity="0.753" /><rect x="1427" y="584" width="2" height="30" fill="#FFFFFF" opacity="0.753" /><rect x="1426" y="832" width="54" height="2" fill="#FFFFFF" opacity="0.374" /><rect x="1452" y="806" width="2" height="54" fill="#FFFFFF" opacity="0.374" /><rect x="1917" y="2280" width="38" height="2" fill="#FFFFFF" opacity="0.787" /><rect x="1935" y="2262" width="2" height="38" fill="#FFFFFF" opacity="0.787" /><rect x="1118" y="2101" width="24" height="2" fill="#FFFFFF" opacity="0.798" /><rect x="1129" y="2090" width="2" height="24" fill="#FFFFFF" opacity="0.798" /><rect x="585" y="1619" width="76" height="2" fill="#FFFFFF" opacity="0.803" /><rect x="622" y="1582" width="2" height="76" fill="#FFFFFF" opacity="0.803" /><rect x="1193" y="1939" width="64" height="2" fill="#FFFFFF" opacity="0.682" /><rect x="1224" y="1908" width="2" height="64" fill="#FFFFFF" opacity="0.682" /><rect x="995" y="1152" width="40" height="2" fill="#FFFFFF" opacity="0.510" /><rect x="1014" y="1133" width="2" height="40" fill="#FFFFFF" opacity="0.510" /><rect x="754" y="741" width="64" height="2" fill="#FFFFFF" opacity="0.586" /><rect x="785" y="710" width="2" height="64" fill="#FFFFFF" opacity="0.586" /><rect x="2554" y="1698" width="62" height="2" fill="#FFFFFF" opacity="0.710" /><rect x="2584" y="1668" width="2" height="62" fill="#FFFFFF" opacity="0.710" /><rect x="2803" y="1715" width="32" height="2" fill="#FFFFFF" opacity="0.434" /><rect x="2818" y="1700" width="2" height="32" fill="#FFFFFF" opacity="0.434" /><rect x="2141" y="442" width="40" height="2" fill="#FFFFFF" opacity="0.524" /><rect x="2160" y="423" width="2" height="40" fill="#FFFFFF" opacity="0.524" /><rect x="2209" y="2743" width="24" height="2" fill="#FFFFFF" opacity="0.453" /><rect x="2220" y="2732" width="2" height="24" fill="#FFFFFF" opacity="0.453" /><rect x="2368" y="500" width="82" height="2" fill="#FFFFFF" opacity="0.690" /><rect x="2408" y="460" width="2" height="82" fill="#FFFFFF" opacity="0.690" /><rect x="937" y="2249" width="48" height="2" fill="#FFFFFF" opacity="0.505" /><rect x="960" y="2226" width="2" height="48" fill="#FFFFFF" opacity="0.505" /><rect x="2185" y="1757" width="62" height="2" fill="#FFFFFF" opacity="0.846" /><rect x="2215" y="1727" width="2" height="62" fill="#FFFFFF" opacity="0.846" /><rect x="2619" y="1448" width="30" height="2" fill="#FFFFFF" opacity="0.556" /><rect x="2633" y="1434" width="2" height="30" fill="#FFFFFF" opacity="0.556" /><rect x="1693" y="669" width="46" height="2" fill="#FFFFFF" opacity="0.703" /><rect x="1715" y="647" width="2" height="46" fill="#FFFFFF" opacity="0.703" /><rect x="1472" y="456" width="68" height="2" fill="#FFFFFF" opacity="0.621" /><rect x="1505" y="423" width="2" height="68" fill="#FFFFFF" opacity="0.621" /><rect x="1762" y="1569" width="68" height="2" fill="#FFFFFF" opacity="0.700" /><rect x="1795" y="1536" width="2" height="68" fill="#FFFFFF" opacity="0.700" /><rect x="1277" y="848" width="58" height="2" fill="#FFFFFF" opacity="0.753" /><rect x="1305" y="820" width="2" height="58" fill="#FFFFFF" opacity="0.753" /><rect x="599" y="1677" width="52" height="2" fill="#FFFFFF" opacity="0.488" /><rect x="624" y="1652" width="2" height="52" fill="#FFFFFF" opacity="0.488" /><rect x="789" y="2088" width="54" height="2" fill="#FFFFFF" opacity="0.505" /><rect x="815" y="2062" width="2" height="54" fill="#FFFFFF" opacity="0.505" /><rect x="2273" y="2711" width="42" height="2" fill="#FFFFFF" opacity="0.756" /><rect x="2293" y="2691" width="2" height="42" fill="#FFFFFF" opacity="0.756" /><rect x="1609" y="1885" width="64" height="2" fill="#FFFFFF" opacity="0.638" /><rect x="1640" y="1854" width="2" height="64" fill="#FFFFFF" opacity="0.638" /><rect x="2295" y="1253" width="44" height="2" fill="#FFFFFF" opacity="0.690" /><rect x="2316" y="1232" width="2" height="44" fill="#FFFFFF" opacity="0.690" /><rect x="373" y="485" width="62" height="2" fill="#FFFFFF" opacity="0.454" /><rect x="403" y="455" width="2" height="62" fill="#FFFFFF" opacity="0.454" /></g>
  <g opacity="0.52"><path d="M1023 1326 L1572 1070 L2121 1326 L2121 2043 L1023 2043 Z" fill="none" stroke="#0C2030" stroke-width="90" stroke-linejoin="round" /><line x1="1572" y1="1070" x2="1572" y2="2043" stroke="#0C2030" stroke-width="88" /></g>
  <g filter="url(#soft56)"><path d="M987 1280 L1536 1024 L2085 1280 L2085 1997 L987 1997 Z" fill="none" stroke="url(#symbol56)" stroke-width="90" stroke-linejoin="round" /><line x1="1536" y1="1024" x2="1536" y2="1997" stroke="url(#symbol56)" stroke-width="88" /></g>
  <rect x="138" y="138" width="2796" height="2796" rx="629" fill="#FFFFFF" filter="url(#grain56)" opacity="0.18" />
</svg>
