<svg xmlns="http://www.w3.org/2000/svg" width="3072" height="3072" viewBox="0 0 3072 3072">
  <title>QuartzOS App Icon 317 - stellar_monitor_317</title>
  <defs><linearGradient id="bg316" x1="0%" y1="0%" x2="100%" y2="100%"><stop offset="0%" stop-color="#3B82FF" /><stop offset="26%" stop-color="#FF6AB3" /><stop offset="56%" stop-color="#FFD84D" /><stop offset="78%" stop-color="#5AA47F" /><stop offset="100%" stop-color="#1A2B22" /></linearGradient><radialGradient id="sun316" cx="24%" cy="41%" r="88%"><stop offset="0%" stop-color="#FFFFFF" stop-opacity="0.62" /><stop offset="30%" stop-color="#53E3A6" stop-opacity="0.35" /><stop offset="100%" stop-color="#53E3A6" stop-opacity="0" /></radialGradient><linearGradient id="glass316" x1="0%" y1="0%" x2="0%" y2="100%"><stop offset="0%" stop-color="#FFFFFF" stop-opacity="0.70" /><stop offset="46%" stop-color="#FFFFFF" stop-opacity="0.26" /><stop offset="100%" stop-color="#FFFFFF" stop-opacity="0.00" /></linearGradient><linearGradient id="ribbon316" x1="0%" y1="0%" x2="100%" y2="0%"><stop offset="0%" stop-color="#3B82FF" stop-opacity="0.18" /><stop offset="34%" stop-color="#FF6AB3" stop-opacity="0.72" /><stop offset="66%" stop-color="#FFD84D" stop-opacity="0.72" /><stop offset="100%" stop-color="#53E3A6" stop-opacity="0.18" /></linearGradient><radialGradient id="orb316" cx="34%" cy="27%" r="74%"><stop offset="0%" stop-color="#FFFFFF" stop-opacity="0.84" /><stop offset="30%" stop-color="#3B82FF" stop-opacity="0.52" /><stop offset="68%" stop-color="#FF6AB3" stop-opacity="0.42" /><stop offset="100%" stop-color="#FFD84D" stop-opacity="0.20" /></radialGradient><linearGradient id="extrude316" x1="0%" y1="0%" x2="0%" y2="100%"><stop offset="0%" stop-color="#15283C" stop-opacity="0.45" /><stop offset="100%" stop-color="#08131D" stop-opacity="0.06" /></linearGradient><linearGradient id="symbol316" x1="0%" y1="0%" x2="100%" y2="100%"><stop offset="0%" stop-color="#FFFFFF" /><stop offset="100%" stop-color="#53E3A6" /></linearGradient><filter id="shadow316" x="-40%" y="-40%" width="180%" height="180%"><feDropShadow dx="0" dy="49" stdDeviation="86" flood-color="#06111A" flood-opacity="0.54" /></filter><filter id="soft316" x="-40%" y="-40%" width="180%" height="180%"><feDropShadow dx="0" dy="0" stdDeviation="14" flood-color="#3B82FF" flood-opacity="0.45" /></filter><filter id="grain316"><feTurbulence type="fractalNoise" baseFrequency="0.785" numOctaves="2" seed="316" /><feColorMatrix type="saturate" values="0" /><feComponentTransfer><feFuncA type="table" tableValues="0 0.09" /></feComponentTransfer></filter></defs>
  <rect x="138" y="138" width="2796" height="2796" rx="629" fill="url(#bg316)" filter="url(#shadow316)" />
  <rect x="138" y="138" width="2796" height="2796" rx="629" fill="url(#sun316)" />
  <g><circle cx="2648" cy="1655" r="134" fill="#FFFFFF" opacity="0.209" /><circle cx="607" cy="770" r="41" fill="#FFFFFF" opacity="0.119" /><circle cx="973" cy="1880" r="138" fill="#FFFFFF" opacity="0.169" /><circle cx="2660" cy="2207" r="75" fill="#FFFFFF" opacity="0.220" /><circle cx="2424" cy="2089" r="94" fill="#FFFFFF" opacity="0.107" /><circle cx="2060" cy="536" r="66" fill="#FFFFFF" opacity="0.132" /><circle cx="510" cy="1630" r="156" fill="#FFFFFF" opacity="0.111" /><circle cx="2452" cy="2284" r="58" fill="#FFFFFF" opacity="0.185" /><circle cx="781" cy="1993" r="62" fill="#FFFFFF" opacity="0.165" /><circle cx="741" cy="1513" r="72" fill="#FFFFFF" opacity="0.181" /><circle cx="2267" cy="1144" r="146" fill="#FFFFFF" opacity="0.197" /><circle cx="2451" cy="2686" r="114" fill="#FFFFFF" opacity="0.193" /><circle cx="1236" cy="591" r="150" fill="#FFFFFF" opacity="0.095" /><circle cx="1045" cy="1138" r="67" fill="#FFFFFF" opacity="0.072" /><circle cx="944" cy="1208" r="126" fill="#FFFFFF" opacity="0.228" /><circle cx="586" cy="2652" r="72" fill="#FFFFFF" opacity="0.172" /><circle cx="1675" cy="2213" r="125" fill="#FFFFFF" opacity="0.137" /><circle cx="2352" cy="638" r="71" fill="#FFFFFF" opacity="0.070" /><circle cx="1442" cy="894" r="136" fill="#FFFFFF" opacity="0.067" /><circle cx="2104" cy="1993" r="83" fill="#FFFFFF" opacity="0.126" /><circle cx="2665" cy="2663" r="153" fill="#FFFFFF" opacity="0.130" /><circle cx="2678" cy="992" r="122" fill="#FFFFFF" opacity="0.135" /><circle cx="1492" cy="712" r="131" fill="#FFFFFF" opacity="0.149" /><circle cx="2203" cy="1845" r="132" fill="#FFFFFF" opacity="0.102" /><circle cx="1767" cy="1949" r="70" fill="#FFFFFF" opacity="0.196" /><circle cx="2319" cy="1280" r="159" fill="#FFFFFF" opacity="0.080" /><circle cx="2313" cy="957" r="108" fill="#FFFFFF" opacity="0.186" /><circle cx="1355" cy="618" r="52" fill="#FFFFFF" opacity="0.161" /></g>
  <g><path d="M 386.2 626.9 L 2861.5 350.4 L 2861.5 815.9 L 386.2 1092.3 Z" fill="#FFFFFF" opacity="0.089" /><path d="M 378.1 888.0 L 2691.5 611.6 L 2691.5 1036.8 L 378.1 1313.3 Z" fill="#FFFFFF" opacity="0.224" /><path d="M 353.9 1147.6 L 2845.5 871.1 L 2845.5 1343.4 L 353.9 1619.9 Z" fill="#FFFFFF" opacity="0.216" /><path d="M 186.3 1402.7 L 2752.1 1126.2 L 2752.1 1610.0 L 186.3 1886.5 Z" fill="#FFFFFF" opacity="0.108" /><path d="M 379.3 1651.6 L 2835.6 1375.2 L 2835.6 1867.1 L 379.3 2143.5 Z" fill="#FFFFFF" opacity="0.153" /><path d="M 326.5 1960.1 L 2854.9 1683.6 L 2854.9 2177.7 L 326.5 2454.2 Z" fill="#FFFFFF" opacity="0.128" /><path d="M 170.3 2156.7 L 2835.7 1880.2 L 2835.7 2361.9 L 170.3 2638.4 Z" fill="#FFFFFF" opacity="0.162" /><path d="M 237.0 2467.7 L 2789.3 2191.2 L 2789.3 2654.9 L 237.0 2931.4 Z" fill="#FFFFFF" opacity="0.085" /></g>
  <g filter="url(#soft316)"><g transform="rotate(-17.95 1536.0 1536.0)"><path d="M-368.6 474.4 C -225.8 529.1, -25.8 429.2, 107.5 500.3 C 250.4 506.4, 450.4 455.2, 583.7 457.4 C 726.5 456.4, 926.5 487.1, 1059.8 424.8 C 1202.7 419.5, 1402.7 504.5, 1536.0 422.3 C 1678.8 422.4, 1878.8 515.9, 2012.2 451.4 C 2155.0 447.4, 2355.0 495.8, 2488.3 494.5 C 2631.2 487.1, 2831.2 454.9, 2964.5 525.4 C 3107.3 518.0, 3307.3 445.8, 3440.6 525.3" fill="none" stroke="url(#ribbon316)" stroke-width="58.4" stroke-linecap="round" stroke-opacity="0.120" /></g><g transform="rotate(-17.37 1536.0 1536.0)"><path d="M-368.6 747.1 C -241.7 744.5, -63.9 751.1, 54.6 699.8 C 181.6 693.2, 359.4 790.6, 477.9 685.0 C 604.8 697.0, 782.6 792.9, 901.1 707.9 C 1028.1 720.9, 1205.9 774.1, 1324.4 754.6 C 1451.3 752.2, 1629.1 741.7, 1747.6 796.7 C 1874.6 811.2, 2052.4 722.4, 2170.9 808.8 C 2297.9 829.9, 2475.6 709.4, 2594.1 783.4 C 2721.1 793.8, 2898.9 717.2, 3017.4 736.0 C 3144.4 736.0, 3322.1 755.0, 3440.6 695.4" fill="none" stroke="url(#ribbon316)" stroke-width="54.4" stroke-linecap="round" stroke-opacity="0.146" /></g><g transform="rotate(-16.79 1536.0 1536.0)"><path d="M-368.6 875.1 C -254.4 959.7, -94.4 803.9, 12.3 922.3 C 126.6 931.1, 286.6 826.4, 393.2 871.5 C 507.5 872.9, 667.5 879.2, 774.1 822.9 C 888.4 825.5, 1048.4 891.2, 1155.1 805.9 C 1269.4 828.6, 1429.3 946.7, 1536.0 830.9 C 1650.3 841.7, 1810.3 904.0, 1916.9 882.7 C 2031.2 880.6, 2191.2 867.6, 2297.9 929.9 C 2412.1 950.2, 2572.1 815.2, 2678.8 943.8 C 2793.1 928.2, 2953.1 798.0, 3059.7 916.1 C 3174.0 928.9, 3334.0 847.7, 3440.6 863.5" fill="none" stroke="url(#ribbon316)" stroke-width="50.4" stroke-linecap="round" stroke-opacity="0.172" /></g><g transform="rotate(-16.21 1536.0 1536.0)"><path d="M-368.6 1079.1 C -264.8 1002.2, -119.3 1159.0, -22.3 1036.2 C 81.5 1051.5, 227.0 1124.2, 324.0 1094.6 C 427.8 1098.1, 573.3 1064.5, 670.3 1143.6 C 774.1 1126.6, 919.6 1044.6, 1016.6 1153.5 C 1120.4 1147.6, 1265.9 1025.4, 1362.9 1118.3 C 1466.7 1130.1, 1612.2 1059.4, 1709.1 1059.2 C 1813.0 1065.7, 1958.5 1092.6, 2055.4 1012.3 C 2159.3 1013.3, 2304.8 1121.7, 2401.7 1005.8 C 2505.6 1002.3, 2651.1 1130.2, 2748.0 1043.8 C 2851.9 1044.3, 2997.4 1101.7, 3094.3 1103.2 C 3198.2 1095.7, 3343.7 1070.7, 3440.6 1148.0" fill="none" stroke="url(#ribbon316)" stroke-width="46.4" stroke-linecap="round" stroke-opacity="0.198" /></g><g transform="rotate(-15.63 1536.0 1536.0)"><path d="M-368.6 1240.4 C -273.4 1153.4, -140.1 1315.7, -51.2 1170.0 C 44.0 1163.1, 177.4 1264.6, 266.2 1223.6 C 361.5 1220.2, 494.8 1246.9, 583.7 1287.4 C 678.9 1272.2, 812.2 1188.9, 901.1 1322.7 C 996.4 1318.2, 1129.7 1210.4, 1218.6 1308.1 C 1313.8 1322.6, 1447.1 1199.7, 1536.0 1252.5 C 1631.2 1257.1, 1764.6 1233.9, 1853.4 1189.5 C 1948.7 1170.7, 2082.0 1264.0, 2170.9 1157.4 C 2266.1 1127.3, 2399.4 1307.8, 2488.3 1175.7 C 2583.6 1192.0, 2716.9 1295.8, 2805.8 1233.2 C 2901.0 1230.4, 3034.3 1244.3, 3123.2 1295.1 C 3218.4 1274.9, 3351.8 1209.7, 3440.6 1323.9" fill="none" stroke="url(#ribbon316)" stroke-width="42.4" stroke-linecap="round" stroke-opacity="0.224" /></g><g transform="rotate(-15.05 1536.0 1536.0)"><path d="M-368.6 1466.3 C -225.8 1522.5, -25.8 1413.8, 107.5 1556.9 C 250.4 1541.3, 450.4 1432.7, 583.7 1527.1 C 726.5 1507.0, 926.5 1443.4, 1059.8 1460.4 C 1202.7 1462.2, 1402.7 1468.1, 1536.0 1397.3 C 1678.8 1397.2, 1878.8 1497.6, 2012.2 1376.1 C 2155.0 1380.0, 2355.0 1568.6, 2488.3 1409.6 C 2631.2 1394.4, 2831.2 1507.1, 2964.5 1477.5 C 3107.3 1477.1, 3307.3 1456.1, 3440.6 1538.6" fill="none" stroke="url(#ribbon316)" stroke-width="38.4" stroke-linecap="round" stroke-opacity="0.250" /></g><g transform="rotate(-14.47 1536.0 1536.0)"><path d="M-368.6 1735.7 C -241.7 1689.3, -63.9 1768.4, 54.6 1775.3 C 181.6 1787.7, 359.4 1714.3, 477.9 1827.4 C 604.8 1840.4, 782.6 1677.6, 901.1 1823.8 C 1028.1 1789.2, 1205.9 1708.3, 1324.4 1766.9 C 1451.3 1756.0, 1629.1 1703.3, 1747.6 1691.0 C 1874.6 1674.0, 2052.4 1758.7, 2170.9 1642.3 C 2297.9 1677.5, 2475.6 1767.8, 2594.1 1650.2 C 2721.1 1684.1, 2898.9 1796.6, 3017.4 1710.1 C 3144.4 1716.2, 3322.1 1748.1, 3440.6 1785.5" fill="none" stroke="url(#ribbon316)" stroke-width="34.4" stroke-linecap="round" stroke-opacity="0.276" /></g><g transform="rotate(-13.89 1536.0 1536.0)"><path d="M-368.6 1871.7 C -254.4 1896.3, -94.4 1858.0, 12.3 1968.1 C 126.6 2003.5, 286.6 1793.3, 393.2 1968.3 C 507.5 2002.3, 667.5 1757.7, 774.1 1909.9 C 888.4 1901.2, 1048.4 1844.7, 1155.1 1828.4 C 1269.4 1813.9, 1429.3 1898.3, 1536.0 1773.1 C 1650.3 1736.4, 1810.3 1923.9, 1916.9 1777.6 C 2031.2 1781.2, 2191.2 1937.7, 2297.9 1839.2 C 2412.1 1831.5, 2572.1 1891.2, 2678.8 1920.5 C 2793.1 1913.7, 2953.1 1853.4, 3059.7 1972.2 C 3174.0 1991.5, 3334.0 1799.8, 3440.6 1962.9" fill="none" stroke="url(#ribbon316)" stroke-width="30.4" stroke-linecap="round" stroke-opacity="0.302" /></g><g transform="rotate(-13.31 1536.0 1536.0)"><path d="M-368.6 2023.7 C -264.8 2170.5, -119.3 1987.1, -22.3 2094.4 C 81.5 2095.9, 227.0 1998.1, 324.0 2010.8 C 427.8 2010.8, 573.3 2035.7, 670.3 1935.0 C 774.1 1967.2, 919.6 2073.4, 1016.6 1913.1 C 1120.4 1943.6, 1265.9 2114.6, 1362.9 1958.3 C 1466.7 1935.9, 1612.2 2075.6, 1709.1 2043.2 C 1813.0 2038.1, 1958.5 2008.2, 2055.4 2116.3 C 2159.3 2109.6, 2304.8 1915.1, 2401.7 2133.3 C 2505.6 2111.9, 2651.1 1986.5, 2748.0 2083.8 C 2851.9 2088.8, 2997.4 1971.5, 3094.3 1997.9 C 3198.2 1989.6, 3343.7 2040.9, 3440.6 1927.7" fill="none" stroke="url(#ribbon316)" stroke-width="26.4" stroke-linecap="round" stroke-opacity="0.328" /></g><g transform="rotate(-12.73 1536.0 1536.0)"><path d="M-368.6 2276.3 C -273.4 2372.8, -140.1 2148.0, -51.2 2322.2 C 44.0 2325.9, 177.4 2250.0, 266.2 2229.6 C 361.5 2216.5, 494.8 2291.6, 583.7 2165.4 C 678.9 2192.8, 812.2 2346.3, 901.1 2168.4 C 996.4 2147.9, 1129.7 2382.3, 1218.6 2236.9 C 1313.8 2251.0, 1447.1 2321.9, 1536.0 2329.3 C 1631.2 2323.8, 1764.6 2241.9, 1853.4 2389.6 C 1948.7 2408.8, 2082.0 2206.4, 2170.9 2381.1 C 2266.1 2340.3, 2399.4 2211.2, 2488.3 2309.1 C 2583.6 2299.3, 2716.9 2252.4, 2805.8 2217.2 C 2901.0 2221.3, 3034.3 2317.8, 3123.2 2161.1 C 3218.4 2185.6, 3351.8 2338.0, 3440.6 2175.0" fill="none" stroke="url(#ribbon316)" stroke-width="22.4" stroke-linecap="round" stroke-opacity="0.354" /></g><g transform="rotate(-12.15 1536.0 1536.0)"><path d="M-368.6 2433.9 C -225.8 2288.6, -25.8 2579.0, 107.5 2325.6 C 250.4 2340.7, 450.4 2469.5, 583.7 2404.6 C 726.5 2398.2, 926.5 2444.9, 1059.8 2501.4 C 1202.7 2475.3, 1402.7 2384.7, 1536.0 2557.2 C 1678.8 2523.8, 1878.8 2394.1, 2012.2 2538.3 C 2155.0 2571.1, 2355.0 2327.9, 2488.3 2456.0 C 2631.2 2456.2, 2831.2 2416.1, 2964.5 2360.4 C 3107.3 2345.0, 3307.3 2506.3, 3440.6 2309.3" fill="none" stroke="url(#ribbon316)" stroke-width="18.4" stroke-linecap="round" stroke-opacity="0.380" /></g><g transform="rotate(-11.57 1536.0 1536.0)"><path d="M-368.6 2629.2 C -241.7 2761.3, -63.9 2576.1, 54.6 2654.0 C 181.6 2659.8, 359.4 2609.6, 477.9 2552.7 C 604.8 2541.5, 782.6 2712.0, 901.1 2497.9 C 1028.1 2545.6, 1205.9 2704.2, 1324.4 2522.7 C 1451.3 2564.4, 1629.1 2716.8, 1747.6 2612.1 C 1874.6 2605.3, 2052.4 2647.5, 2170.9 2711.9 C 2297.9 2681.8, 2475.6 2591.5, 2594.1 2761.6 C 2721.1 2711.1, 2898.9 2497.8, 3017.4 2730.9 C 3144.4 2723.6, 3322.1 2572.6, 3440.6 2638.6" fill="none" stroke="url(#ribbon316)" stroke-width="14.4" stroke-linecap="round" stroke-opacity="0.406" /></g></g>
  <g><ellipse cx="1536.0" cy="1551.9" rx="728.6" ry="605.7" fill="url(#extrude316)" opacity="0.220" /><ellipse cx="1536.0" cy="1567.7" rx="736.0" ry="610.9" fill="url(#extrude316)" opacity="0.205" /><ellipse cx="1536.0" cy="1583.6" rx="743.4" ry="616.1" fill="url(#extrude316)" opacity="0.190" /><ellipse cx="1536.0" cy="1599.5" rx="750.9" ry="621.3" fill="url(#extrude316)" opacity="0.175" /><ellipse cx="1536.0" cy="1615.4" rx="758.3" ry="626.5" fill="url(#extrude316)" opacity="0.160" /><ellipse cx="1536.0" cy="1631.2" rx="765.7" ry="631.7" fill="url(#extrude316)" opacity="0.145" /><ellipse cx="1536.0" cy="1647.1" rx="773.2" ry="636.9" fill="url(#extrude316)" opacity="0.130" /><ellipse cx="1536.0" cy="1663.0" rx="780.6" ry="642.1" fill="url(#extrude316)" opacity="0.115" /><ellipse cx="1536.0" cy="1678.8" rx="788.0" ry="647.4" fill="url(#extrude316)" opacity="0.100" /><ellipse cx="1536.0" cy="1694.7" rx="795.5" ry="652.6" fill="url(#extrude316)" opacity="0.085" /><ellipse cx="1536.0" cy="1710.6" rx="802.9" ry="657.8" fill="url(#extrude316)" opacity="0.070" /><ellipse cx="1536.0" cy="1726.5" rx="810.3" ry="663.0" fill="url(#extrude316)" opacity="0.055" /></g>
  <ellipse cx="1536.0" cy="1726.5" rx="773.2" ry="214.9" fill="#0B1D2D" opacity="0.24" />
  <ellipse cx="1536.0" cy="1536.0" rx="743.4" ry="651.3" fill="url(#orb316)" stroke="#FFFFFF" stroke-opacity="0.42" stroke-width="7" />
  <ellipse cx="1431.9" cy="1392.7" rx="505.5" ry="299.6" fill="#FFFFFF" opacity="0.25" />
  <path d="M 199.4 399.4 C 1013.8 -30.7, 2058.2 768.0, 2872.6 215.0 L 2872.6 983.0 C 2089.0 1228.8, 1013.8 307.2, 199.4 1167.4 Z" fill="url(#glass316)" />
  <rect x="270" y="270" width="2532" height="2532" rx="430" fill="none" stroke="#FFFFFF" stroke-opacity="0.30" stroke-width="5" />
  <rect x="288.4" y="288.4" width="2495.1" height="2495.1" rx="399" fill="none" stroke="#3B82FF" stroke-opacity="0.35" stroke-width="3" />
  <g filter="url(#soft316)"><rect x="728" y="2102" width="32" height="2" fill="#FFFFFF" opacity="0.305" /><rect x="743" y="2087" width="2" height="32" fill="#FFFFFF" opacity="0.305" /><rect x="1838" y="1815" width="54" height="2" fill="#FFFFFF" opacity="0.771" /><rect x="1864" y="1789" width="2" height="54" fill="#FFFFFF" opacity="0.771" /><rect x="1547" y="2570" width="58" height="2" fill="#FFFFFF" opacity="0.660" /><rect x="1575" y="2542" width="2" height="58" fill="#FFFFFF" opacity="0.660" /><rect x="1521" y="2220" width="44" height="2" fill="#FFFFFF" opacity="0.455" /><rect x="1542" y="2199" width="2" height="44" fill="#FFFFFF" opacity="0.455" /><rect x="1728" y="646" width="64" height="2" fill="#FFFFFF" opacity="0.497" /><rect x="1759" y="615" width="2" height="64" fill="#FFFFFF" opacity="0.497" /><rect x="347" y="2353" width="48" height="2" fill="#FFFFFF" opacity="0.472" /><rect x="370" y="2330" width="2" height="48" fill="#FFFFFF" opacity="0.472" /><rect x="1486" y="1192" width="52" height="2" fill="#FFFFFF" opacity="0.539" /><rect x="1511" y="1167" width="2" height="52" fill="#FFFFFF" opacity="0.539" /><rect x="1729" y="753" width="78" height="2" fill="#FFFFFF" opacity="0.760" /><rect x="1767" y="715" width="2" height="78" fill="#FFFFFF" opacity="0.760" /><rect x="2014" y="1218" width="78" height="2" fill="#FFFFFF" opacity="0.535" /><rect x="2052" y="1180" width="2" height="78" fill="#FFFFFF" opacity="0.535" /><rect x="1636" y="2439" width="46" height="2" fill="#FFFFFF" opacity="0.477" /><rect x="1658" y="2417" width="2" height="46" fill="#FFFFFF" opacity="0.477" /><rect x="2346" y="634" width="26" height="2" fill="#FFFFFF" opacity="0.476" /><rect x="2358" y="622" width="2" height="26" fill="#FFFFFF" opacity="0.476" /><rect x="726" y="2025" width="48" height="2" fill="#FFFFFF" opacity="0.474" /><rect x="749" y="2002" width="2" height="48" fill="#FFFFFF" opacity="0.474" /><rect x="472" y="1822" width="38" height="2" fill="#FFFFFF" opacity="0.758" /><rect x="490" y="1804" width="2" height="38" fill="#FFFFFF" opacity="0.758" /><rect x="1189" y="1012" width="26" height="2" fill="#FFFFFF" opacity="0.307" /><rect x="1201" y="1000" width="2" height="26" fill="#FFFFFF" opacity="0.307" /><rect x="1957" y="546" width="80" height="2" fill="#FFFFFF" opacity="0.717" /><rect x="1996" y="507" width="2" height="80" fill="#FFFFFF" opacity="0.717" /><rect x="303" y="1288" width="32" height="2" fill="#FFFFFF" opacity="0.780" /><rect x="318" y="1273" width="2" height="32" fill="#FFFFFF" opacity="0.780" /><rect x="2645" y="957" width="36" height="2" fill="#FFFFFF" opacity="0.503" /><rect x="2662" y="940" width="2" height="36" fill="#FFFFFF" opacity="0.503" /><rect x="1377" y="2584" width="40" height="2" fill="#FFFFFF" opacity="0.477" /><rect x="1396" y="2565" width="2" height="40" fill="#FFFFFF" opacity="0.477" /><rect x="987" y="1779" width="52" height="2" fill="#FFFFFF" opacity="0.795" /><rect x="1012" y="1754" width="2" height="52" fill="#FFFFFF" opacity="0.795" /><rect x="1391" y="1332" width="76" height="2" fill="#FFFFFF" opacity="0.573" /><rect x="1428" y="1295" width="2" height="76" fill="#FFFFFF" opacity="0.573" /><rect x="2749" y="1553" width="58" height="2" fill="#FFFFFF" opacity="0.336" /><rect x="2777" y="1525" width="2" height="58" fill="#FFFFFF" opacity="0.336" /><rect x="982" y="1023" width="56" height="2" fill="#FFFFFF" opacity="0.336" /><rect x="1009" y="996" width="2" height="56" fill="#FFFFFF" opacity="0.336" /><rect x="2217" y="249" width="28" height="2" fill="#FFFFFF" opacity="0.666" /><rect x="2230" y="236" width="2" height="28" fill="#FFFFFF" opacity="0.666" /><rect x="1129" y="1311" width="84" height="2" fill="#FFFFFF" opacity="0.351" /><rect x="1170" y="1270" width="2" height="84" fill="#FFFFFF" opacity="0.351" /><rect x="783" y="2310" width="78" height="2" fill="#FFFFFF" opacity="0.435" /><rect x="821" y="2272" width="2" height="78" fill="#FFFFFF" opacity="0.435" /><rect x="2251" y="1123" width="28" height="2" fill="#FFFFFF" opacity="0.848" /><rect x="2264" y="1110" width="2" height="28" fill="#FFFFFF" opacity="0.848" /></g>
  <g opacity="0.52"><path d="M1572 1006 L2148 1582 L1572 2158 L996 1582 Z" fill="none" stroke="#0C2030" stroke-width="90" stroke-linejoin="round" /><circle cx="1572" cy="1582" r="153" fill="#0C2030" /></g>
  <g filter="url(#soft316)"><path d="M1536 960 L2112 1536 L1536 2112 L960 1536 Z" fill="none" stroke="url(#symbol316)" stroke-width="90" stroke-linejoin="round" /><circle cx="1536" cy="1536" r="153" fill="url(#symbol316)" /></g>
  <rect x="138" y="138" width="2796" height="2796" rx="629" fill="#FFFFFF" filter="url(#grain316)" opacity="0.18" />
</svg>
