<svg xmlns="http://www.w3.org/2000/svg" width="3072" height="3072" viewBox="0 0 3072 3072">
  <title>QuartzOS App Icon 257 - stellar_gallery_257</title>
  <defs><linearGradient id="bg256" x1="0%" y1="0%" x2="100%" y2="100%"><stop offset="0%" stop-color="#FF9F43" /><stop offset="26%" stop-color="#53E3A6" /><stop offset="56%" stop-color="#3B82FF" /><stop offset="78%" stop-color="#5AA47F" /><stop offset="100%" stop-color="#1A2B22" /></linearGradient><radialGradient id="sun256" cx="25%" cy="31%" r="88%"><stop offset="0%" stop-color="#FFFFFF" stop-opacity="0.62" /><stop offset="30%" stop-color="#8A5CFF" stop-opacity="0.35" /><stop offset="100%" stop-color="#8A5CFF" stop-opacity="0" /></radialGradient><linearGradient id="glass256" x1="0%" y1="0%" x2="0%" y2="100%"><stop offset="0%" stop-color="#FFFFFF" stop-opacity="0.70" /><stop offset="46%" stop-color="#FFFFFF" stop-opacity="0.26" /><stop offset="100%" stop-color="#FFFFFF" stop-opacity="0.00" /></linearGradient><linearGradient id="ribbon256" x1="0%" y1="0%" x2="100%" y2="0%"><stop offset="0%" stop-color="#FF9F43" stop-opacity="0.18" /><stop offset="34%" stop-color="#53E3A6" stop-opacity="0.72" /><stop offset="66%" stop-color="#3B82FF" stop-opacity="0.72" /><stop offset="100%" stop-color="#8A5CFF" stop-opacity="0.18" /></linearGradient><radialGradient id="orb256" cx="34%" cy="27%" r="74%"><stop offset="0%" stop-color="#FFFFFF" stop-opacity="0.84" /><stop offset="30%" stop-color="#FF9F43" stop-opacity="0.52" /><stop offset="68%" stop-color="#53E3A6" stop-opacity="0.42" /><stop offset="100%" stop-color="#3B82FF" stop-opacity="0.20" /></radialGradient><linearGradient id="extrude256" x1="0%" y1="0%" x2="0%" y2="100%"><stop offset="0%" stop-color="#15283C" stop-opacity="0.45" /><stop offset="100%" stop-color="#08131D" stop-opacity="0.06" /></linearGradient><linearGradient id="symbol256" x1="0%" y1="0%" x2="100%" y2="100%"><stop offset="0%" stop-color="#FFFFFF" /><stop offset="100%" stop-color="#8A5CFF" /></linearGradient><filter id="shadow256" x="-40%" y="-40%" width="180%" height="180%"><feDropShadow dx="0" dy="49" stdDeviation="86" flood-color="#06111A" flood-opacity="0.54" /></filter><filter id="soft256" x="-40%" y="-40%" width="180%" height="180%"><feDropShadow dx="0" dy="0" stdDeviation="14" flood-color="#FF9F43" flood-opacity="0.45" /></filter><filter id="grain256"><feTurbulence type="fractalNoise" baseFrequency="1.063" numOctaves="2" seed="256" /><feColorMatrix type="saturate" values="0" /><feComponentTransfer><feFuncA type="table" tableValues="0 0.09" /></feComponentTransfer></filter></defs>
  <rect x="138" y="138" width="2796" height="2796" rx="629" fill="url(#bg256)" filter="url(#shadow256)" />
  <rect x="138" y="138" width="2796" height="2796" rx="629" fill="url(#sun256)" />
  <g><circle cx="2473" cy="831" r="119" fill="#FFFFFF" opacity="0.103" /><circle cx="2101" cy="1856" r="40" fill="#FFFFFF" opacity="0.226" /><circle cx="2398" cy="1393" r="76" fill="#FFFFFF" opacity="0.146" /><circle cx="879" cy="2121" r="49" fill="#FFFFFF" opacity="0.134" /><circle cx="2687" cy="1937" r="127" fill="#FFFFFF" opacity="0.080" /><circle cx="1427" cy="787" r="63" fill="#FFFFFF" opacity="0.161" /><circle cx="2583" cy="1899" r="45" fill="#FFFFFF" opacity="0.211" /><circle cx="2607" cy="2505" r="123" fill="#FFFFFF" opacity="0.124" /><circle cx="741" cy="895" r="153" fill="#FFFFFF" opacity="0.115" /><circle cx="2186" cy="1729" r="104" fill="#FFFFFF" opacity="0.198" /><circle cx="2130" cy="2114" r="141" fill="#FFFFFF" opacity="0.133" /><circle cx="1473" cy="1461" r="42" fill="#FFFFFF" opacity="0.194" /><circle cx="562" cy="2084" r="106" fill="#FFFFFF" opacity="0.135" /><circle cx="1931" cy="1590" r="110" fill="#FFFFFF" opacity="0.232" /><circle cx="2223" cy="355" r="132" fill="#FFFFFF" opacity="0.224" /><circle cx="767" cy="2362" r="100" fill="#FFFFFF" opacity="0.134" /><circle cx="1500" cy="346" r="111" fill="#FFFFFF" opacity="0.152" /><circle cx="1847" cy="1408" r="145" fill="#FFFFFF" opacity="0.211" /><circle cx="2461" cy="1356" r="71" fill="#FFFFFF" opacity="0.141" /><circle cx="2233" cy="1103" r="96" fill="#FFFFFF" opacity="0.223" /><circle cx="1978" cy="908" r="146" fill="#FFFFFF" opacity="0.228" /><circle cx="1059" cy="2305" r="141" fill="#FFFFFF" opacity="0.103" /><circle cx="2169" cy="2635" r="53" fill="#FFFFFF" opacity="0.117" /><circle cx="372" cy="1228" r="71" fill="#FFFFFF" opacity="0.110" /><circle cx="806" cy="956" r="58" fill="#FFFFFF" opacity="0.080" /><circle cx="2619" cy="1449" r="159" fill="#FFFFFF" opacity="0.222" /><circle cx="1718" cy="2434" r="103" fill="#FFFFFF" opacity="0.202" /><circle cx="2441" cy="2700" r="76" fill="#FFFFFF" opacity="0.222" /></g>
  <g><path d="M 358.7 586.3 L 2711.6 309.9 L 2711.6 758.6 L 358.7 1035.1 Z" fill="#FFFFFF" opacity="0.110" /><path d="M 375.3 909.4 L 2747.8 632.9 L 2747.8 1089.3 L 375.3 1365.8 Z" fill="#FFFFFF" opacity="0.091" /><path d="M 383.0 1108.6 L 2823.9 832.1 L 2823.9 1327.9 L 383.0 1604.4 Z" fill="#FFFFFF" opacity="0.104" /><path d="M 201.4 1379.1 L 2697.8 1102.6 L 2697.8 1558.0 L 201.4 1834.5 Z" fill="#FFFFFF" opacity="0.209" /><path d="M 259.4 1642.1 L 2773.3 1365.6 L 2773.3 1815.5 L 259.4 2092.0 Z" fill="#FFFFFF" opacity="0.116" /><path d="M 226.7 1903.0 L 2812.9 1626.6 L 2812.9 2110.2 L 226.7 2386.6 Z" fill="#FFFFFF" opacity="0.120" /><path d="M 375.3 2180.3 L 2832.3 1903.8 L 2832.3 2365.8 L 375.3 2642.3 Z" fill="#FFFFFF" opacity="0.236" /><path d="M 167.6 2484.3 L 2921.3 2207.8 L 2921.3 2652.2 L 167.6 2928.7 Z" fill="#FFFFFF" opacity="0.181" /></g>
  <g filter="url(#soft256)"><g transform="rotate(-10.47 1536.0 1536.0)"><path d="M-368.6 544.5 C -225.8 481.6, -25.8 583.5, 107.5 513.1 C 250.4 520.9, 450.4 562.9, 583.7 555.3 C 726.5 551.2, 926.5 539.6, 1059.8 590.9 C 1202.7 603.1, 1402.7 506.9, 1536.0 598.4 C 1678.8 609.3, 1878.8 521.8, 2012.2 573.2 C 2155.0 579.9, 2355.0 535.1, 2488.3 530.6 C 2631.2 530.5, 2831.2 553.8, 2964.5 496.4 C 3107.3 486.4, 3307.3 562.1, 3440.6 491.4" fill="none" stroke="url(#ribbon256)" stroke-width="58.4" stroke-linecap="round" stroke-opacity="0.120" /></g><g transform="rotate(-9.89 1536.0 1536.0)"><path d="M-368.6 752.4 C -241.7 793.0, -63.9 718.2, 54.6 812.6 C 181.6 807.1, 359.4 699.9, 477.9 806.0 C 604.8 811.9, 782.6 718.0, 901.1 766.9 C 1028.1 764.2, 1205.9 739.9, 1324.4 719.0 C 1451.3 729.2, 1629.1 764.5, 1747.6 691.3 C 1874.6 688.1, 2052.4 783.6, 2170.9 700.7 C 2297.9 720.6, 2475.6 789.5, 2594.1 741.4 C 2721.1 743.0, 2898.9 761.0, 3017.4 788.7 C 3144.4 793.5, 3322.1 709.5, 3440.6 814.0" fill="none" stroke="url(#ribbon256)" stroke-width="54.4" stroke-linecap="round" stroke-opacity="0.146" /></g><g transform="rotate(-9.31 1536.0 1536.0)"><path d="M-368.6 873.6 C -254.4 927.1, -94.4 804.9, 12.3 907.7 C 126.6 909.1, 286.6 840.6, 393.2 854.0 C 507.5 854.9, 667.5 887.5, 774.1 812.2 C 888.4 831.6, 1048.4 937.4, 1155.1 807.6 C 1269.4 829.2, 1429.3 894.0, 1536.0 843.1 C 1650.3 841.1, 1810.3 897.1, 1916.9 897.1 C 2031.2 905.8, 2191.2 854.4, 2297.9 936.9 C 2412.1 956.2, 2572.1 824.1, 2678.8 938.3 C 2793.1 951.1, 2953.1 821.2, 3059.7 900.5 C 3174.0 898.6, 3334.0 857.8, 3440.6 846.4" fill="none" stroke="url(#ribbon256)" stroke-width="50.4" stroke-linecap="round" stroke-opacity="0.172" /></g><g transform="rotate(-8.73 1536.0 1536.0)"><path d="M-368.6 1135.9 C -264.8 1094.8, -119.3 1166.1, -22.3 1061.4 C 81.5 1084.6, 227.0 1199.5, 324.0 1096.4 C 427.8 1093.3, 573.3 1152.2, 670.3 1155.4 C 774.1 1149.3, 919.6 1124.1, 1016.6 1202.5 C 1120.4 1219.2, 1265.9 1089.8, 1362.9 1209.2 C 1466.7 1202.5, 1612.2 1062.0, 1709.1 1171.4 C 1813.0 1164.7, 1958.5 1113.6, 2055.4 1112.1 C 2159.3 1103.4, 2304.8 1157.8, 2401.7 1067.1 C 2505.6 1053.9, 2651.1 1176.2, 2748.0 1063.9 C 2851.9 1092.4, 2997.4 1165.2, 3094.3 1104.3 C 3198.2 1094.7, 3343.7 1156.8, 3440.6 1163.9" fill="none" stroke="url(#ribbon256)" stroke-width="46.4" stroke-linecap="round" stroke-opacity="0.198" /></g><g transform="rotate(-8.15 1536.0 1536.0)"><path d="M-368.6 1278.9 C -273.4 1309.5, -140.1 1257.5, -51.2 1253.3 C 44.0 1246.1, 177.4 1287.3, 266.2 1204.0 C 361.5 1178.9, 494.8 1342.3, 583.7 1200.1 C 678.9 1230.1, 812.2 1312.3, 901.1 1244.0 C 996.4 1237.0, 1129.7 1311.3, 1218.6 1309.1 C 1313.8 1316.8, 1447.1 1260.6, 1536.0 1355.8 C 1631.2 1340.4, 1764.6 1191.4, 1853.4 1355.9 C 1948.7 1344.3, 2082.0 1212.1, 2170.9 1309.3 C 2266.1 1321.2, 2399.4 1266.4, 2488.3 1244.2 C 2583.6 1240.8, 2716.9 1301.3, 2805.8 1200.2 C 2901.0 1206.1, 3034.3 1309.9, 3123.2 1203.9 C 3218.4 1206.2, 3351.8 1319.7, 3440.6 1253.1" fill="none" stroke="url(#ribbon256)" stroke-width="42.4" stroke-linecap="round" stroke-opacity="0.224" /></g><g transform="rotate(-7.57 1536.0 1536.0)"><path d="M-368.6 1514.0 C -225.8 1478.4, -25.8 1539.3, 107.5 1523.9 C 250.4 1525.0, 450.4 1507.8, 583.7 1585.5 C 726.5 1567.7, 926.5 1463.9, 1059.8 1603.8 C 1202.7 1598.3, 1402.7 1452.8, 1536.0 1567.6 C 1678.8 1556.8, 1878.8 1472.9, 2012.2 1498.9 C 2155.0 1495.5, 2355.0 1529.1, 2488.3 1439.4 C 2631.2 1436.5, 2831.2 1540.5, 2964.5 1425.2 C 3107.3 1457.3, 3307.3 1547.1, 3440.6 1464.8" fill="none" stroke="url(#ribbon256)" stroke-width="38.4" stroke-linecap="round" stroke-opacity="0.250" /></g><g transform="rotate(-6.99 1536.0 1536.0)"><path d="M-368.6 1723.7 C -241.7 1699.7, -63.9 1729.7, 54.6 1642.3 C 181.6 1665.1, 359.4 1755.6, 477.9 1628.2 C 604.8 1658.3, 782.6 1796.7, 901.1 1672.0 C 1028.1 1664.9, 1205.9 1773.6, 1324.4 1747.2 C 1451.3 1755.5, 1629.1 1696.2, 1747.6 1808.1 C 1874.6 1818.8, 2052.4 1678.1, 2170.9 1817.8 C 2297.9 1851.5, 2475.6 1639.5, 2594.1 1770.5 C 2721.1 1770.3, 2898.9 1683.4, 3017.4 1694.7 C 3144.4 1689.1, 3322.1 1744.3, 3440.6 1636.6" fill="none" stroke="url(#ribbon256)" stroke-width="34.4" stroke-linecap="round" stroke-opacity="0.276" /></g><g transform="rotate(-6.41 1536.0 1536.0)"><path d="M-368.6 1891.3 C -254.4 1793.8, -94.4 1933.5, 12.3 1788.0 C 126.6 1783.7, 286.6 1927.4, 393.2 1831.7 C 507.5 1834.4, 667.5 1910.6, 774.1 1911.6 C 888.4 1912.9, 1048.4 1876.1, 1155.1 1979.1 C 1269.4 1945.2, 1429.3 1803.5, 1536.0 1993.4 C 1650.3 2006.2, 1810.3 1784.8, 1916.9 1945.7 C 2031.2 1935.4, 2191.2 1829.2, 2297.9 1865.0 C 2412.1 1863.5, 2572.1 1899.4, 2678.8 1800.2 C 2793.1 1783.6, 2953.1 1951.8, 3059.7 1790.7 C 3174.0 1785.7, 3334.0 1943.9, 3440.6 1842.1" fill="none" stroke="url(#ribbon256)" stroke-width="30.4" stroke-linecap="round" stroke-opacity="0.302" /></g><g transform="rotate(-5.83 1536.0 1536.0)"><path d="M-368.6 2045.5 C -264.8 1930.8, -119.3 2093.4, -22.3 2028.7 C 81.5 2033.0, 227.0 2064.1, 324.0 2113.1 C 427.8 2119.0, 573.3 1975.5, 670.3 2156.5 C 774.1 2115.9, 919.6 2002.5, 1016.6 2132.5 C 1120.4 2158.8, 1265.9 2015.4, 1362.9 2055.8 C 1466.7 2055.4, 1612.2 2037.4, 1709.1 1972.8 C 1813.0 1960.4, 1958.5 2127.7, 2055.4 1933.9 C 2159.3 1907.2, 2304.8 2124.0, 2401.7 1962.6 C 2505.6 1933.5, 2651.1 2072.0, 2748.0 2041.7 C 2851.9 2041.8, 2997.4 2047.9, 3094.3 2123.0 C 3198.2 2132.2, 3343.7 1977.2, 3440.6 2157.3" fill="none" stroke="url(#ribbon256)" stroke-width="26.4" stroke-linecap="round" stroke-opacity="0.328" /></g><g transform="rotate(-5.25 1536.0 1536.0)"><path d="M-368.6 2303.5 C -273.4 2314.3, -140.1 2294.8, -51.2 2225.5 C 44.0 2217.8, 177.4 2342.8, 266.2 2184.8 C 361.5 2169.7, 494.8 2401.3, 583.7 2216.1 C 678.9 2227.6, 812.2 2371.1, 901.1 2300.4 C 996.4 2299.6, 1129.7 2305.3, 1218.6 2386.6 C 1313.8 2403.8, 1447.1 2277.5, 1536.0 2422.4 C 1631.2 2409.9, 1764.6 2184.8, 1853.4 2386.1 C 1948.7 2375.1, 2082.0 2271.3, 2170.9 2299.7 C 2266.1 2300.3, 2399.4 2307.0, 2488.3 2215.6 C 2583.6 2228.1, 2716.9 2397.5, 2805.8 2184.8 C 2901.0 2231.2, 3034.3 2411.2, 3123.2 2226.1 C 3218.4 2244.9, 3351.8 2328.0, 3440.6 2314.3" fill="none" stroke="url(#ribbon256)" stroke-width="22.4" stroke-linecap="round" stroke-opacity="0.354" /></g><g transform="rotate(-4.67 1536.0 1536.0)"><path d="M-368.6 2398.9 C -225.8 2242.7, -25.8 2506.4, 107.5 2309.3 C 250.4 2275.1, 450.4 2439.2, 583.7 2400.0 C 726.5 2399.7, 926.5 2397.6, 1059.8 2490.0 C 1202.7 2477.8, 1402.7 2350.4, 1536.0 2524.7 C 1678.8 2551.6, 1878.8 2354.3, 2012.2 2483.1 C 2155.0 2493.6, 2355.0 2322.5, 2488.3 2390.4 C 2631.2 2391.2, 2831.2 2406.5, 2964.5 2302.9 C 3107.3 2335.2, 3307.3 2434.0, 3440.6 2273.5" fill="none" stroke="url(#ribbon256)" stroke-width="18.4" stroke-linecap="round" stroke-opacity="0.380" /></g><g transform="rotate(-4.09 1536.0 1536.0)"><path d="M-368.6 2686.2 C -241.7 2634.6, -63.9 2713.9, 54.6 2564.0 C 181.6 2577.0, 359.4 2797.5, 477.9 2563.4 C 604.8 2588.9, 782.6 2789.0, 901.1 2637.2 C 1028.1 2651.9, 1205.9 2716.1, 1324.4 2740.8 C 1451.3 2721.3, 1629.1 2663.6, 1747.6 2811.2 C 1874.6 2805.4, 2052.4 2581.0, 2170.9 2805.9 C 2297.9 2835.0, 2475.6 2620.0, 2594.1 2727.9 C 2721.1 2720.7, 2898.9 2660.3, 3017.4 2624.6 C 3144.4 2617.7, 3322.1 2723.3, 3440.6 2558.7" fill="none" stroke="url(#ribbon256)" stroke-width="14.4" stroke-linecap="round" stroke-opacity="0.406" /></g></g>
  <g><ellipse cx="1536.0" cy="1551.9" rx="728.6" ry="605.7" fill="url(#extrude256)" opacity="0.220" /><ellipse cx="1536.0" cy="1567.7" rx="736.0" ry="610.9" fill="url(#extrude256)" opacity="0.205" /><ellipse cx="1536.0" cy="1583.6" rx="743.4" ry="616.1" fill="url(#extrude256)" opacity="0.190" /><ellipse cx="1536.0" cy="1599.5" rx="750.9" ry="621.3" fill="url(#extrude256)" opacity="0.175" /><ellipse cx="1536.0" cy="1615.4" rx="758.3" ry="626.5" fill="url(#extrude256)" opacity="0.160" /><ellipse cx="1536.0" cy="1631.2" rx="765.7" ry="631.7" fill="url(#extrude256)" opacity="0.145" /><ellipse cx="1536.0" cy="1647.1" rx="773.2" ry="636.9" fill="url(#extrude256)" opacity="0.130" /><ellipse cx="1536.0" cy="1663.0" rx="780.6" ry="642.1" fill="url(#extrude256)" opacity="0.115" /><ellipse cx="1536.0" cy="1678.8" rx="788.0" ry="647.4" fill="url(#extrude256)" opacity="0.100" /><ellipse cx="1536.0" cy="1694.7" rx="795.5" ry="652.6" fill="url(#extrude256)" opacity="0.085" /><ellipse cx="1536.0" cy="1710.6" rx="802.9" ry="657.8" fill="url(#extrude256)" opacity="0.070" /><ellipse cx="1536.0" cy="1726.5" rx="810.3" ry="663.0" fill="url(#extrude256)" opacity="0.055" /></g>
  <ellipse cx="1536.0" cy="1726.5" rx="773.2" ry="214.9" fill="#0B1D2D" opacity="0.24" />
  <ellipse cx="1536.0" cy="1536.0" rx="743.4" ry="651.3" fill="url(#orb256)" stroke="#FFFFFF" stroke-opacity="0.42" stroke-width="7" />
  <ellipse cx="1431.9" cy="1392.7" rx="505.5" ry="299.6" fill="#FFFFFF" opacity="0.25" />
  <path d="M 199.4 399.4 C 1013.8 -30.7, 2058.2 768.0, 2872.6 215.0 L 2872.6 983.0 C 2089.0 1228.8, 1013.8 307.2, 199.4 1167.4 Z" fill="url(#glass256)" />
  <rect x="270" y="270" width="2532" height="2532" rx="430" fill="none" stroke="#FFFFFF" stroke-opacity="0.30" stroke-width="5" />
  <rect x="288.4" y="288.4" width="2495.1" height="2495.1" rx="399" fill="none" stroke="#FF9F43" stroke-opacity="0.35" stroke-width="3" />
  <g filter="url(#soft256)"><rect x="1924" y="272" width="82" height="2" fill="#FFFFFF" opacity="0.406" /><rect x="1964" y="232" width="2" height="82" fill="#FFFFFF" opacity="0.406" /><rect x="1111" y="1812" width="58" height="2" fill="#FFFFFF" opacity="0.698" /><rect x="1139" y="1784" width="2" height="58" fill="#FFFFFF" opacity="0.698" /><rect x="860" y="2390" width="62" height="2" fill="#FFFFFF" opacity="0.651" /><rect x="890" y="2360" width="2" height="62" fill="#FFFFFF" opacity="0.651" /><rect x="376" y="796" width="84" height="2" fill="#FFFFFF" opacity="0.308" /><rect x="417" y="755" width="2" height="84" fill="#FFFFFF" opacity="0.308" /><rect x="2427" y="1327" width="36" height="2" fill="#FFFFFF" opacity="0.770" /><rect x="2444" y="1310" width="2" height="36" fill="#FFFFFF" opacity="0.770" /><rect x="2511" y="2228" width="72" height="2" fill="#FFFFFF" opacity="0.498" /><rect x="2546" y="2193" width="2" height="72" fill="#FFFFFF" opacity="0.498" /><rect x="2251" y="2663" width="76" height="2" fill="#FFFFFF" opacity="0.717" /><rect x="2288" y="2626" width="2" height="76" fill="#FFFFFF" opacity="0.717" /><rect x="2259" y="1790" width="52" height="2" fill="#FFFFFF" opacity="0.777" /><rect x="2284" y="1765" width="2" height="52" fill="#FFFFFF" opacity="0.777" /><rect x="2408" y="1957" width="70" height="2" fill="#FFFFFF" opacity="0.719" /><rect x="2442" y="1923" width="2" height="70" fill="#FFFFFF" opacity="0.719" /><rect x="2023" y="930" width="70" height="2" fill="#FFFFFF" opacity="0.407" /><rect x="2057" y="896" width="2" height="70" fill="#FFFFFF" opacity="0.407" /><rect x="546" y="1554" width="26" height="2" fill="#FFFFFF" opacity="0.661" /><rect x="558" y="1542" width="2" height="26" fill="#FFFFFF" opacity="0.661" /><rect x="361" y="2333" width="26" height="2" fill="#FFFFFF" opacity="0.418" /><rect x="373" y="2321" width="2" height="26" fill="#FFFFFF" opacity="0.418" /><rect x="1372" y="1109" width="68" height="2" fill="#FFFFFF" opacity="0.596" /><rect x="1405" y="1076" width="2" height="68" fill="#FFFFFF" opacity="0.596" /><rect x="2407" y="1787" width="50" height="2" fill="#FFFFFF" opacity="0.697" /><rect x="2431" y="1763" width="2" height="50" fill="#FFFFFF" opacity="0.697" /><rect x="2662" y="2115" width="40" height="2" fill="#FFFFFF" opacity="0.752" /><rect x="2681" y="2096" width="2" height="40" fill="#FFFFFF" opacity="0.752" /><rect x="2540" y="1601" width="32" height="2" fill="#FFFFFF" opacity="0.428" /><rect x="2555" y="1586" width="2" height="32" fill="#FFFFFF" opacity="0.428" /><rect x="497" y="1257" width="24" height="2" fill="#FFFFFF" opacity="0.466" /><rect x="508" y="1246" width="2" height="24" fill="#FFFFFF" opacity="0.466" /><rect x="1381" y="265" width="78" height="2" fill="#FFFFFF" opacity="0.751" /><rect x="1419" y="227" width="2" height="78" fill="#FFFFFF" opacity="0.751" /><rect x="1988" y="296" width="52" height="2" fill="#FFFFFF" opacity="0.452" /><rect x="2013" y="271" width="2" height="52" fill="#FFFFFF" opacity="0.452" /><rect x="2632" y="1152" width="24" height="2" fill="#FFFFFF" opacity="0.314" /><rect x="2643" y="1141" width="2" height="24" fill="#FFFFFF" opacity="0.314" /><rect x="2148" y="2258" width="52" height="2" fill="#FFFFFF" opacity="0.708" /><rect x="2173" y="2233" width="2" height="52" fill="#FFFFFF" opacity="0.708" /><rect x="1339" y="2483" width="62" height="2" fill="#FFFFFF" opacity="0.755" /><rect x="1369" y="2453" width="2" height="62" fill="#FFFFFF" opacity="0.755" /><rect x="448" y="1477" width="72" height="2" fill="#FFFFFF" opacity="0.650" /><rect x="483" y="1442" width="2" height="72" fill="#FFFFFF" opacity="0.650" /><rect x="2574" y="1309" width="28" height="2" fill="#FFFFFF" opacity="0.672" /><rect x="2587" y="1296" width="2" height="28" fill="#FFFFFF" opacity="0.672" /><rect x="2032" y="253" width="36" height="2" fill="#FFFFFF" opacity="0.391" /><rect x="2049" y="236" width="2" height="36" fill="#FFFFFF" opacity="0.391" /><rect x="1160" y="1431" width="82" height="2" fill="#FFFFFF" opacity="0.627" /><rect x="1200" y="1391" width="2" height="82" fill="#FFFFFF" opacity="0.627" /></g>
  <g opacity="0.52"><path d="M1572 1006 L2148 1582 L1572 2158 L996 1582 Z" fill="none" stroke="#0C2030" stroke-width="90" stroke-linejoin="round" /><circle cx="1572" cy="1582" r="153" fill="#0C2030" /></g>
  <g filter="url(#soft256)"><path d="M1536 960 L2112 1536 L1536 2112 L960 1536 Z" fill="none" stroke="url(#symbol256)" stroke-width="90" stroke-linejoin="round" /><circle cx="1536" cy="1536" r="153" fill="url(#symbol256)" /></g>
  <rect x="138" y="138" width="2796" height="2796" rx="629" fill="#FFFFFF" filter="url(#grain256)" opacity="0.18" />
</svg>
