<svg xmlns="http://www.w3.org/2000/svg" width="3072" height="3072" viewBox="0 0 3072 3072">
  <title>QuartzOS App Icon 284 - swift_settings_284</title>
  <defs><linearGradient id="bg283" x1="0%" y1="0%" x2="100%" y2="100%"><stop offset="0%" stop-color="#FF6AB3" /><stop offset="26%" stop-color="#FFD84D" /><stop offset="56%" stop-color="#36D1FF" /><stop offset="78%" stop-color="#9A6BB4" /><stop offset="100%" stop-color="#271E2A" /></linearGradient><radialGradient id="sun283" cx="24%" cy="28%" r="88%"><stop offset="0%" stop-color="#FFFFFF" stop-opacity="0.62" /><stop offset="30%" stop-color="#3B82FF" stop-opacity="0.35" /><stop offset="100%" stop-color="#3B82FF" stop-opacity="0" /></radialGradient><linearGradient id="glass283" x1="0%" y1="0%" x2="0%" y2="100%"><stop offset="0%" stop-color="#FFFFFF" stop-opacity="0.70" /><stop offset="46%" stop-color="#FFFFFF" stop-opacity="0.26" /><stop offset="100%" stop-color="#FFFFFF" stop-opacity="0.00" /></linearGradient><linearGradient id="ribbon283" x1="0%" y1="0%" x2="100%" y2="0%"><stop offset="0%" stop-color="#FF6AB3" stop-opacity="0.18" /><stop offset="34%" stop-color="#FFD84D" stop-opacity="0.72" /><stop offset="66%" stop-color="#36D1FF" stop-opacity="0.72" /><stop offset="100%" stop-color="#3B82FF" stop-opacity="0.18" /></linearGradient><radialGradient id="orb283" cx="34%" cy="27%" r="74%"><stop offset="0%" stop-color="#FFFFFF" stop-opacity="0.84" /><stop offset="30%" stop-color="#FF6AB3" stop-opacity="0.52" /><stop offset="68%" stop-color="#FFD84D" stop-opacity="0.42" /><stop offset="100%" stop-color="#36D1FF" stop-opacity="0.20" /></radialGradient><linearGradient id="extrude283" x1="0%" y1="0%" x2="0%" y2="100%"><stop offset="0%" stop-color="#15283C" stop-opacity="0.45" /><stop offset="100%" stop-color="#08131D" stop-opacity="0.06" /></linearGradient><linearGradient id="symbol283" x1="0%" y1="0%" x2="100%" y2="100%"><stop offset="0%" stop-color="#FFFFFF" /><stop offset="100%" stop-color="#3B82FF" /></linearGradient><filter id="shadow283" x="-40%" y="-40%" width="180%" height="180%"><feDropShadow dx="0" dy="49" stdDeviation="86" flood-color="#06111A" flood-opacity="0.54" /></filter><filter id="soft283" x="-40%" y="-40%" width="180%" height="180%"><feDropShadow dx="0" dy="0" stdDeviation="14" flood-color="#FF6AB3" flood-opacity="0.45" /></filter><filter id="grain283"><feTurbulence type="fractalNoise" baseFrequency="0.719" numOctaves="2" seed="283" /><feColorMatrix type="saturate" values="0" /><feComponentTransfer><feFuncA type="table" tableValues="0 0.09" /></feComponentTransfer></filter></defs>
  <rect x="138" y="138" width="2796" height="2796" rx="629" fill="url(#bg283)" filter="url(#shadow283)" />
  <rect x="138" y="138" width="2796" height="2796" rx="629" fill="url(#sun283)" />
  <g><circle cx="485" cy="2440" r="95" fill="#FFFFFF" opacity="0.119" /><circle cx="1934" cy="2574" r="123" fill="#FFFFFF" opacity="0.148" /><circle cx="646" cy="2668" r="89" fill="#FFFFFF" opacity="0.101" /><circle cx="1532" cy="869" r="129" fill="#FFFFFF" opacity="0.158" /><circle cx="1763" cy="2188" r="133" fill="#FFFFFF" opacity="0.185" /><circle cx="2246" cy="1505" r="43" fill="#FFFFFF" opacity="0.200" /><circle cx="1082" cy="398" r="144" fill="#FFFFFF" opacity="0.118" /><circle cx="1281" cy="2131" r="130" fill="#FFFFFF" opacity="0.099" /><circle cx="2555" cy="1611" r="42" fill="#FFFFFF" opacity="0.175" /><circle cx="1322" cy="2095" r="47" fill="#FFFFFF" opacity="0.222" /><circle cx="2595" cy="2376" r="143" fill="#FFFFFF" opacity="0.109" /><circle cx="1322" cy="1819" r="147" fill="#FFFFFF" opacity="0.117" /><circle cx="1085" cy="1700" r="109" fill="#FFFFFF" opacity="0.093" /><circle cx="865" cy="1114" r="112" fill="#FFFFFF" opacity="0.227" /><circle cx="2601" cy="640" r="151" fill="#FFFFFF" opacity="0.226" /><circle cx="1765" cy="1246" r="83" fill="#FFFFFF" opacity="0.186" /><circle cx="859" cy="849" r="58" fill="#FFFFFF" opacity="0.239" /><circle cx="2205" cy="1159" r="108" fill="#FFFFFF" opacity="0.194" /><circle cx="2414" cy="2073" r="112" fill="#FFFFFF" opacity="0.108" /><circle cx="2131" cy="2234" r="118" fill="#FFFFFF" opacity="0.062" /><circle cx="890" cy="993" r="67" fill="#FFFFFF" opacity="0.140" /><circle cx="1192" cy="2415" r="73" fill="#FFFFFF" opacity="0.069" /><circle cx="2139" cy="1001" r="140" fill="#FFFFFF" opacity="0.162" /><circle cx="913" cy="1270" r="133" fill="#FFFFFF" opacity="0.203" /><circle cx="2264" cy="1764" r="70" fill="#FFFFFF" opacity="0.180" /><circle cx="1768" cy="1605" r="140" fill="#FFFFFF" opacity="0.145" /><circle cx="2565" cy="2104" r="63" fill="#FFFFFF" opacity="0.126" /><circle cx="2140" cy="443" r="117" fill="#FFFFFF" opacity="0.154" /></g>
  <g><path d="M 304.7 581.2 L 2697.5 304.8 L 2697.5 773.2 L 304.7 1049.7 Z" fill="#FFFFFF" opacity="0.159" /><path d="M 220.6 837.9 L 2826.9 561.4 L 2826.9 1048.6 L 220.6 1325.1 Z" fill="#FFFFFF" opacity="0.233" /><path d="M 285.0 1120.5 L 2738.9 844.0 L 2738.9 1304.9 L 285.0 1581.3 Z" fill="#FFFFFF" opacity="0.141" /><path d="M 364.9 1412.6 L 2679.2 1136.1 L 2679.2 1561.0 L 364.9 1837.5 Z" fill="#FFFFFF" opacity="0.112" /><path d="M 383.3 1621.5 L 2706.3 1345.0 L 2706.3 1767.4 L 383.3 2043.9 Z" fill="#FFFFFF" opacity="0.225" /><path d="M 162.1 1891.0 L 2798.4 1614.6 L 2798.4 2079.8 L 162.1 2356.3 Z" fill="#FFFFFF" opacity="0.093" /><path d="M 331.9 2187.6 L 2692.0 1911.1 L 2692.0 2331.1 L 331.9 2607.6 Z" fill="#FFFFFF" opacity="0.197" /><path d="M 236.1 2413.1 L 2881.8 2136.7 L 2881.8 2585.0 L 236.1 2861.5 Z" fill="#FFFFFF" opacity="0.169" /></g>
  <g filter="url(#soft283)"><g transform="rotate(-21.09 1536.0 1536.0)"><path d="M-368.6 551.3 C -225.8 518.9, -25.8 569.8, 107.5 570.5 C 250.4 577.2, 450.4 534.4, 583.7 601.9 C 726.5 600.2, 926.5 500.7, 1059.8 602.6 C 1202.7 596.7, 1402.7 504.6, 1536.0 572.2 C 1678.8 570.7, 1878.8 526.8, 2012.2 529.2 C 2155.0 535.2, 2355.0 561.8, 2488.3 499.5 C 2631.2 479.8, 2831.2 577.5, 2964.5 501.3 C 3107.3 502.5, 3307.3 582.6, 3440.6 533.5" fill="none" stroke="url(#ribbon283)" stroke-width="58.4" stroke-linecap="round" stroke-opacity="0.120" /></g><g transform="rotate(-20.51 1536.0 1536.0)"><path d="M-368.6 693.3 C -241.7 749.4, -63.9 674.9, 54.6 688.2 C 181.6 687.7, 359.4 695.6, 477.9 645.2 C 604.8 646.3, 782.6 716.2, 901.1 631.3 C 1028.1 617.2, 1205.9 719.3, 1324.4 655.1 C 1451.3 645.3, 1629.1 735.8, 1747.6 702.1 C 1874.6 701.4, 2052.4 689.5, 2170.9 743.7 C 2297.9 739.0, 2475.6 676.9, 2594.1 754.8 C 2721.1 757.6, 2898.9 622.8, 3017.4 728.6 C 3144.4 718.2, 3322.1 678.6, 3440.6 681.0" fill="none" stroke="url(#ribbon283)" stroke-width="54.4" stroke-linecap="round" stroke-opacity="0.146" /></g><g transform="rotate(-19.93 1536.0 1536.0)"><path d="M-368.6 893.2 C -254.4 908.5, -94.4 880.1, 12.3 954.2 C 126.6 947.4, 286.6 853.5, 393.2 959.4 C 507.5 963.9, 667.5 844.8, 774.1 924.5 C 888.4 917.7, 1048.4 881.6, 1155.1 870.5 C 1269.4 876.5, 1429.3 903.1, 1536.0 830.3 C 1650.3 839.6, 1810.3 924.2, 1916.9 828.2 C 2031.2 845.6, 2191.2 929.8, 2297.9 865.6 C 2412.1 874.6, 2572.1 922.9, 2678.8 919.6 C 2793.1 922.3, 2953.1 866.7, 3059.7 957.6 C 3174.0 952.1, 3334.0 848.4, 3440.6 956.6" fill="none" stroke="url(#ribbon283)" stroke-width="50.4" stroke-linecap="round" stroke-opacity="0.172" /></g><g transform="rotate(-19.35 1536.0 1536.0)"><path d="M-368.6 1129.7 C -264.8 1075.4, -119.3 1162.1, -22.3 1091.1 C 81.5 1082.5, 227.0 1170.0, 324.0 1150.2 C 427.8 1157.9, 573.3 1118.2, 670.3 1196.8 C 774.1 1172.0, 919.6 1080.8, 1016.6 1202.7 C 1120.4 1208.1, 1265.9 1079.4, 1362.9 1164.3 C 1466.7 1177.3, 1612.2 1116.3, 1709.1 1104.9 C 1813.0 1106.9, 1958.5 1158.2, 2055.4 1060.5 C 2159.3 1057.5, 2304.8 1208.5, 2401.7 1058.1 C 2505.6 1067.6, 2651.1 1171.5, 2748.0 1099.1 C 2851.9 1087.2, 2997.4 1147.4, 3094.3 1158.6 C 3198.2 1163.1, 3343.7 1118.0, 3440.6 1200.6" fill="none" stroke="url(#ribbon283)" stroke-width="46.4" stroke-linecap="round" stroke-opacity="0.198" /></g><g transform="rotate(-18.77 1536.0 1536.0)"><path d="M-368.6 1304.4 C -273.4 1265.1, -140.1 1361.9, -51.2 1307.1 C 44.0 1307.8, 177.4 1303.3, 266.2 1366.2 C 361.5 1352.9, 494.8 1265.8, 583.7 1387.8 C 678.9 1357.0, 812.2 1238.5, 901.1 1358.9 C 996.4 1351.9, 1129.7 1282.5, 1218.6 1296.9 C 1313.8 1294.2, 1447.1 1309.1, 1536.0 1239.5 C 1631.2 1237.7, 1764.6 1343.1, 1853.4 1221.5 C 1948.7 1190.6, 2082.0 1358.7, 2170.9 1253.8 C 2266.1 1260.3, 2399.4 1360.6, 2488.3 1316.8 C 2583.6 1315.2, 2716.9 1292.9, 2805.8 1372.3 C 2901.0 1352.1, 3034.3 1240.5, 3123.2 1386.7 C 3218.4 1373.1, 3351.8 1271.9, 3440.6 1351.1" fill="none" stroke="url(#ribbon283)" stroke-width="42.4" stroke-linecap="round" stroke-opacity="0.224" /></g><g transform="rotate(-18.19 1536.0 1536.0)"><path d="M-368.6 1466.9 C -225.8 1456.8, -25.8 1473.4, 107.5 1396.4 C 250.4 1399.5, 450.4 1492.4, 583.7 1377.0 C 726.5 1383.3, 926.5 1568.5, 1059.8 1412.1 C 1202.7 1407.2, 1402.7 1517.0, 1536.0 1480.5 C 1678.8 1485.5, 1878.8 1460.7, 2012.2 1540.7 C 2155.0 1557.6, 2355.0 1415.7, 2488.3 1556.1 C 2631.2 1534.3, 2831.2 1419.4, 2964.5 1517.4 C 3107.3 1536.7, 3307.3 1419.4, 3440.6 1448.1" fill="none" stroke="url(#ribbon283)" stroke-width="38.4" stroke-linecap="round" stroke-opacity="0.250" /></g><g transform="rotate(-17.61 1536.0 1536.0)"><path d="M-368.6 1629.8 C -241.7 1640.9, -63.9 1617.4, 54.6 1568.9 C 181.6 1563.4, 359.4 1685.1, 477.9 1532.5 C 604.8 1506.1, 782.6 1712.0, 901.1 1555.2 C 1028.1 1532.6, 1205.9 1694.4, 1324.4 1623.1 C 1451.3 1623.5, 1629.1 1632.9, 1747.6 1695.0 C 1874.6 1716.6, 2052.4 1603.2, 2170.9 1727.4 C 2297.9 1744.1, 2475.6 1517.3, 2594.1 1700.5 C 2721.1 1701.1, 2898.9 1588.2, 3017.4 1630.8 C 3144.4 1630.6, 3322.1 1629.5, 3440.6 1560.4" fill="none" stroke="url(#ribbon283)" stroke-width="34.4" stroke-linecap="round" stroke-opacity="0.276" /></g><g transform="rotate(-17.03 1536.0 1536.0)"><path d="M-368.6 1859.0 C -254.4 1856.6, -94.4 1860.8, 12.3 1782.4 C 126.6 1772.9, 286.6 1898.9, 393.2 1754.4 C 507.5 1727.9, 667.5 1952.5, 774.1 1789.8 C 888.4 1790.1, 1048.4 1916.5, 1155.1 1867.2 C 1269.4 1868.1, 1429.3 1854.1, 1536.0 1939.7 C 1650.3 1935.0, 1810.3 1770.8, 1916.9 1963.1 C 2031.2 1952.0, 2191.2 1800.1, 2297.9 1923.4 C 2412.1 1901.4, 2572.1 1828.5, 2678.8 1844.6 C 2793.1 1846.5, 2953.1 1875.1, 3059.7 1774.5 C 3174.0 1757.3, 3334.0 1929.4, 3440.6 1755.7" fill="none" stroke="url(#ribbon283)" stroke-width="30.4" stroke-linecap="round" stroke-opacity="0.302" /></g><g transform="rotate(-16.45 1536.0 1536.0)"><path d="M-368.6 2059.5 C -264.8 2140.1, -119.3 1981.0, -22.3 2068.9 C 81.5 2069.7, 227.0 2051.7, 324.0 1986.1 C 427.8 1996.1, 573.3 2084.8, 670.3 1947.8 C 774.1 1919.8, 919.6 2178.9, 1016.6 1977.3 C 1120.4 1982.3, 1265.9 2142.2, 1362.9 2056.6 C 1466.7 2057.4, 1612.2 2062.4, 1709.1 2137.6 C 1813.0 2114.5, 1958.5 1969.0, 2055.4 2171.3 C 2159.3 2156.8, 2304.8 1978.8, 2401.7 2137.1 C 2505.6 2114.6, 2651.1 1981.5, 2748.0 2055.9 C 2851.9 2056.3, 2997.4 2060.6, 3094.3 1976.8 C 3198.2 1977.4, 3343.7 2090.1, 3440.6 1947.9" fill="none" stroke="url(#ribbon283)" stroke-width="26.4" stroke-linecap="round" stroke-opacity="0.328" /></g><g transform="rotate(-15.87 1536.0 1536.0)"><path d="M-368.6 2223.0 C -273.4 2218.8, -140.1 2226.6, -51.2 2135.4 C 44.0 2163.8, 177.4 2280.5, 266.2 2104.3 C 361.5 2079.3, 494.8 2325.5, 583.7 2145.1 C 678.9 2145.0, 812.2 2290.3, 901.1 2233.2 C 996.4 2234.7, 1129.7 2219.4, 1218.6 2315.1 C 1313.8 2318.2, 1447.1 2185.3, 1536.0 2341.1 C 1631.2 2341.3, 1764.6 2092.6, 1853.4 2295.4 C 1948.7 2279.8, 2082.0 2173.6, 2170.9 2205.8 C 2266.1 2212.0, 2399.4 2228.1, 2488.3 2126.6 C 2583.6 2151.4, 2716.9 2304.9, 2805.8 2105.9 C 2901.0 2129.5, 3034.3 2284.1, 3123.2 2156.1 C 3218.4 2148.8, 3351.8 2288.7, 3440.6 2246.9" fill="none" stroke="url(#ribbon283)" stroke-width="22.4" stroke-linecap="round" stroke-opacity="0.354" /></g><g transform="rotate(-15.29 1536.0 1536.0)"><path d="M-368.6 2421.5 C -225.8 2297.2, -25.8 2505.3, 107.5 2297.7 C 250.4 2263.8, 450.4 2504.8, 583.7 2352.2 C 726.5 2369.8, 926.5 2503.1, 1059.8 2448.7 C 1202.7 2454.1, 1402.7 2393.8, 1536.0 2528.6 C 1678.8 2518.7, 1878.8 2310.8, 2012.2 2543.6 C 2155.0 2527.7, 2355.0 2374.6, 2488.3 2484.5 C 2631.2 2477.6, 2831.2 2353.0, 2964.5 2387.1 C 3107.3 2386.7, 3307.3 2435.1, 3440.6 2310.6" fill="none" stroke="url(#ribbon283)" stroke-width="18.4" stroke-linecap="round" stroke-opacity="0.380" /></g><g transform="rotate(-14.71 1536.0 1536.0)"><path d="M-368.6 2668.1 C -241.7 2610.4, -63.9 2733.5, 54.6 2710.5 C 181.6 2714.3, 359.4 2635.3, 477.9 2788.1 C 604.8 2745.0, 782.6 2581.6, 901.1 2792.9 C 1028.1 2819.2, 1205.9 2551.0, 1324.4 2721.9 C 1451.3 2722.6, 1629.1 2632.4, 1747.6 2618.4 C 1874.6 2627.8, 2052.4 2722.6, 2170.9 2544.9 C 2297.9 2527.2, 2475.6 2771.4, 2594.1 2546.2 C 2721.1 2505.3, 2898.9 2757.5, 3017.4 2621.4 C 3144.4 2632.2, 3322.1 2684.8, 3440.6 2724.9" fill="none" stroke="url(#ribbon283)" stroke-width="14.4" stroke-linecap="round" stroke-opacity="0.406" /></g></g>
  <g><ellipse cx="1536.0" cy="1551.9" rx="728.6" ry="605.7" fill="url(#extrude283)" opacity="0.220" /><ellipse cx="1536.0" cy="1567.7" rx="736.0" ry="610.9" fill="url(#extrude283)" opacity="0.205" /><ellipse cx="1536.0" cy="1583.6" rx="743.4" ry="616.1" fill="url(#extrude283)" opacity="0.190" /><ellipse cx="1536.0" cy="1599.5" rx="750.9" ry="621.3" fill="url(#extrude283)" opacity="0.175" /><ellipse cx="1536.0" cy="1615.4" rx="758.3" ry="626.5" fill="url(#extrude283)" opacity="0.160" /><ellipse cx="1536.0" cy="1631.2" rx="765.7" ry="631.7" fill="url(#extrude283)" opacity="0.145" /><ellipse cx="1536.0" cy="1647.1" rx="773.2" ry="636.9" fill="url(#extrude283)" opacity="0.130" /><ellipse cx="1536.0" cy="1663.0" rx="780.6" ry="642.1" fill="url(#extrude283)" opacity="0.115" /><ellipse cx="1536.0" cy="1678.8" rx="788.0" ry="647.4" fill="url(#extrude283)" opacity="0.100" /><ellipse cx="1536.0" cy="1694.7" rx="795.5" ry="652.6" fill="url(#extrude283)" opacity="0.085" /><ellipse cx="1536.0" cy="1710.6" rx="802.9" ry="657.8" fill="url(#extrude283)" opacity="0.070" /><ellipse cx="1536.0" cy="1726.5" rx="810.3" ry="663.0" fill="url(#extrude283)" opacity="0.055" /></g>
  <ellipse cx="1536.0" cy="1726.5" rx="773.2" ry="214.9" fill="#0B1D2D" opacity="0.24" />
  <ellipse cx="1536.0" cy="1536.0" rx="743.4" ry="651.3" fill="url(#orb283)" stroke="#FFFFFF" stroke-opacity="0.42" stroke-width="7" />
  <ellipse cx="1431.9" cy="1392.7" rx="505.5" ry="299.6" fill="#FFFFFF" opacity="0.25" />
  <path d="M 199.4 399.4 C 1013.8 -30.7, 2058.2 768.0, 2872.6 215.0 L 2872.6 983.0 C 2089.0 1228.8, 1013.8 307.2, 199.4 1167.4 Z" fill="url(#glass283)" />
  <rect x="270" y="270" width="2532" height="2532" rx="430" fill="none" stroke="#FFFFFF" stroke-opacity="0.30" stroke-width="5" />
  <rect x="288.4" y="288.4" width="2495.1" height="2495.1" rx="399" fill="none" stroke="#FF6AB3" stroke-opacity="0.35" stroke-width="3" />
  <g filter="url(#soft283)"><rect x="1797" y="839" width="30" height="2" fill="#FFFFFF" opacity="0.309" /><rect x="1811" y="825" width="2" height="30" fill="#FFFFFF" opacity="0.309" /><rect x="1529" y="603" width="58" height="2" fill="#FFFFFF" opacity="0.677" /><rect x="1557" y="575" width="2" height="58" fill="#FFFFFF" opacity="0.677" /><rect x="2618" y="1307" width="58" height="2" fill="#FFFFFF" opacity="0.454" /><rect x="2646" y="1279" width="2" height="58" fill="#FFFFFF" opacity="0.454" /><rect x="1512" y="457" width="66" height="2" fill="#FFFFFF" opacity="0.732" /><rect x="1544" y="425" width="2" height="66" fill="#FFFFFF" opacity="0.732" /><rect x="2208" y="2527" width="62" height="2" fill="#FFFFFF" opacity="0.618" /><rect x="2238" y="2497" width="2" height="62" fill="#FFFFFF" opacity="0.618" /><rect x="2685" y="2526" width="28" height="2" fill="#FFFFFF" opacity="0.317" /><rect x="2698" y="2513" width="2" height="28" fill="#FFFFFF" opacity="0.317" /><rect x="371" y="1867" width="50" height="2" fill="#FFFFFF" opacity="0.628" /><rect x="395" y="1843" width="2" height="50" fill="#FFFFFF" opacity="0.628" /><rect x="1449" y="2591" width="52" height="2" fill="#FFFFFF" opacity="0.315" /><rect x="1474" y="2566" width="2" height="52" fill="#FFFFFF" opacity="0.315" /><rect x="1177" y="2163" width="56" height="2" fill="#FFFFFF" opacity="0.701" /><rect x="1204" y="2136" width="2" height="56" fill="#FFFFFF" opacity="0.701" /><rect x="2156" y="1646" width="32" height="2" fill="#FFFFFF" opacity="0.534" /><rect x="2171" y="1631" width="2" height="32" fill="#FFFFFF" opacity="0.534" /><rect x="1282" y="372" width="50" height="2" fill="#FFFFFF" opacity="0.621" /><rect x="1306" y="348" width="2" height="50" fill="#FFFFFF" opacity="0.621" /><rect x="839" y="1228" width="80" height="2" fill="#FFFFFF" opacity="0.485" /><rect x="878" y="1189" width="2" height="80" fill="#FFFFFF" opacity="0.485" /><rect x="977" y="940" width="48" height="2" fill="#FFFFFF" opacity="0.741" /><rect x="1000" y="917" width="2" height="48" fill="#FFFFFF" opacity="0.741" /><rect x="2290" y="814" width="68" height="2" fill="#FFFFFF" opacity="0.334" /><rect x="2323" y="781" width="2" height="68" fill="#FFFFFF" opacity="0.334" /><rect x="375" y="985" width="36" height="2" fill="#FFFFFF" opacity="0.408" /><rect x="392" y="968" width="2" height="36" fill="#FFFFFF" opacity="0.408" /><rect x="1584" y="2286" width="62" height="2" fill="#FFFFFF" opacity="0.372" /><rect x="1614" y="2256" width="2" height="62" fill="#FFFFFF" opacity="0.372" /><rect x="720" y="2723" width="30" height="2" fill="#FFFFFF" opacity="0.409" /><rect x="734" y="2709" width="2" height="30" fill="#FFFFFF" opacity="0.409" /><rect x="1385" y="1339" width="50" height="2" fill="#FFFFFF" opacity="0.661" /><rect x="1409" y="1315" width="2" height="50" fill="#FFFFFF" opacity="0.661" /><rect x="866" y="2745" width="54" height="2" fill="#FFFFFF" opacity="0.636" /><rect x="892" y="2719" width="2" height="54" fill="#FFFFFF" opacity="0.636" /><rect x="1483" y="1086" width="84" height="2" fill="#FFFFFF" opacity="0.302" /><rect x="1524" y="1045" width="2" height="84" fill="#FFFFFF" opacity="0.302" /><rect x="1499" y="977" width="44" height="2" fill="#FFFFFF" opacity="0.681" /><rect x="1520" y="956" width="2" height="44" fill="#FFFFFF" opacity="0.681" /><rect x="1269" y="2516" width="78" height="2" fill="#FFFFFF" opacity="0.717" /><rect x="1307" y="2478" width="2" height="78" fill="#FFFFFF" opacity="0.717" /><rect x="1806" y="1612" width="64" height="2" fill="#FFFFFF" opacity="0.594" /><rect x="1837" y="1581" width="2" height="64" fill="#FFFFFF" opacity="0.594" /><rect x="2118" y="2037" width="74" height="2" fill="#FFFFFF" opacity="0.319" /><rect x="2154" y="2001" width="2" height="74" fill="#FFFFFF" opacity="0.319" /><rect x="1586" y="969" width="36" height="2" fill="#FFFFFF" opacity="0.717" /><rect x="1603" y="952" width="2" height="36" fill="#FFFFFF" opacity="0.717" /><rect x="2614" y="1149" width="52" height="2" fill="#FFFFFF" opacity="0.333" /><rect x="2639" y="1124" width="2" height="52" fill="#FFFFFF" opacity="0.333" /></g>
  <g opacity="0.52"><circle cx="1572" cy="1582" r="384" fill="none" stroke="#0C2030" stroke-width="90" /><circle cx="1572" cy="1582" r="153" fill="#0C2030" /><line x1="1572" y1="967" x2="1572" y2="1198" stroke="#0C2030" stroke-width="90" /><line x1="1572" y1="2197" x2="1572" y2="1966" stroke="#0C2030" stroke-width="90" /><line x1="957" y1="1582" x2="1188" y2="1582" stroke="#0C2030" stroke-width="90" /><line x1="2187" y1="1582" x2="1956" y2="1582" stroke="#0C2030" stroke-width="90" /></g>
  <g filter="url(#soft283)"><circle cx="1536" cy="1536" r="384" fill="none" stroke="url(#symbol283)" stroke-width="90" /><circle cx="1536" cy="1536" r="153" fill="url(#symbol283)" /><line x1="1536" y1="921" x2="1536" y2="1152" stroke="url(#symbol283)" stroke-width="90" /><line x1="1536" y1="2151" x2="1536" y2="1920" stroke="url(#symbol283)" stroke-width="90" /><line x1="921" y1="1536" x2="1152" y2="1536" stroke="url(#symbol283)" stroke-width="90" /><line x1="2151" y1="1536" x2="1920" y2="1536" stroke="url(#symbol283)" stroke-width="90" /></g>
  <rect x="138" y="138" width="2796" height="2796" rx="629" fill="#FFFFFF" filter="url(#grain283)" opacity="0.18" />
</svg>
