<svg xmlns="http://www.w3.org/2000/svg" width="3072" height="3072" viewBox="0 0 3072 3072">
  <title>QuartzOS App Icon 304 - swift_monitor_304</title>
  <defs><linearGradient id="bg303" x1="0%" y1="0%" x2="100%" y2="100%"><stop offset="0%" stop-color="#8A5CFF" /><stop offset="26%" stop-color="#FF9F43" /><stop offset="56%" stop-color="#53E3A6" /><stop offset="78%" stop-color="#6C7CC5" /><stop offset="100%" stop-color="#1E2032" /></linearGradient><radialGradient id="sun303" cx="24%" cy="25%" r="88%"><stop offset="0%" stop-color="#FFFFFF" stop-opacity="0.62" /><stop offset="30%" stop-color="#36D1FF" stop-opacity="0.35" /><stop offset="100%" stop-color="#36D1FF" stop-opacity="0" /></radialGradient><linearGradient id="glass303" x1="0%" y1="0%" x2="0%" y2="100%"><stop offset="0%" stop-color="#FFFFFF" stop-opacity="0.70" /><stop offset="46%" stop-color="#FFFFFF" stop-opacity="0.26" /><stop offset="100%" stop-color="#FFFFFF" stop-opacity="0.00" /></linearGradient><linearGradient id="ribbon303" x1="0%" y1="0%" x2="100%" y2="0%"><stop offset="0%" stop-color="#8A5CFF" stop-opacity="0.18" /><stop offset="34%" stop-color="#FF9F43" stop-opacity="0.72" /><stop offset="66%" stop-color="#53E3A6" stop-opacity="0.72" /><stop offset="100%" stop-color="#36D1FF" stop-opacity="0.18" /></linearGradient><radialGradient id="orb303" cx="34%" cy="27%" r="74%"><stop offset="0%" stop-color="#FFFFFF" stop-opacity="0.84" /><stop offset="30%" stop-color="#8A5CFF" stop-opacity="0.52" /><stop offset="68%" stop-color="#FF9F43" stop-opacity="0.42" /><stop offset="100%" stop-color="#53E3A6" stop-opacity="0.20" /></radialGradient><linearGradient id="extrude303" x1="0%" y1="0%" x2="0%" y2="100%"><stop offset="0%" stop-color="#15283C" stop-opacity="0.45" /><stop offset="100%" stop-color="#08131D" stop-opacity="0.06" /></linearGradient><linearGradient id="symbol303" x1="0%" y1="0%" x2="100%" y2="100%"><stop offset="0%" stop-color="#FFFFFF" /><stop offset="100%" stop-color="#36D1FF" /></linearGradient><filter id="shadow303" x="-40%" y="-40%" width="180%" height="180%"><feDropShadow dx="0" dy="49" stdDeviation="86" flood-color="#06111A" flood-opacity="0.54" /></filter><filter id="soft303" x="-40%" y="-40%" width="180%" height="180%"><feDropShadow dx="0" dy="0" stdDeviation="14" flood-color="#8A5CFF" flood-opacity="0.45" /></filter><filter id="grain303"><feTurbulence type="fractalNoise" baseFrequency="1.079" numOctaves="2" seed="303" /><feColorMatrix type="saturate" values="0" /><feComponentTransfer><feFuncA type="table" tableValues="0 0.09" /></feComponentTransfer></filter></defs>
  <rect x="138" y="138" width="2796" height="2796" rx="629" fill="url(#bg303)" filter="url(#shadow303)" />
  <rect x="138" y="138" width="2796" height="2796" rx="629" fill="url(#sun303)" />
  <g><circle cx="1783" cy="2446" r="98" fill="#FFFFFF" opacity="0.088" /><circle cx="1948" cy="2323" r="39" fill="#FFFFFF" opacity="0.068" /><circle cx="2472" cy="937" r="38" fill="#FFFFFF" opacity="0.148" /><circle cx="2482" cy="1257" r="106" fill="#FFFFFF" opacity="0.233" /><circle cx="2600" cy="1486" r="41" fill="#FFFFFF" opacity="0.178" /><circle cx="2571" cy="526" r="129" fill="#FFFFFF" opacity="0.166" /><circle cx="604" cy="1073" r="93" fill="#FFFFFF" opacity="0.109" /><circle cx="1605" cy="789" r="96" fill="#FFFFFF" opacity="0.141" /><circle cx="2384" cy="943" r="59" fill="#FFFFFF" opacity="0.214" /><circle cx="1887" cy="2598" r="87" fill="#FFFFFF" opacity="0.093" /><circle cx="1010" cy="1784" r="145" fill="#FFFFFF" opacity="0.152" /><circle cx="1547" cy="442" r="117" fill="#FFFFFF" opacity="0.062" /><circle cx="2677" cy="2646" r="63" fill="#FFFFFF" opacity="0.181" /><circle cx="1020" cy="2115" r="140" fill="#FFFFFF" opacity="0.107" /><circle cx="869" cy="1205" r="64" fill="#FFFFFF" opacity="0.226" /><circle cx="2082" cy="1497" r="96" fill="#FFFFFF" opacity="0.236" /><circle cx="1438" cy="2571" r="52" fill="#FFFFFF" opacity="0.221" /><circle cx="1783" cy="613" r="110" fill="#FFFFFF" opacity="0.161" /><circle cx="563" cy="677" r="79" fill="#FFFFFF" opacity="0.091" /><circle cx="2281" cy="1887" r="125" fill="#FFFFFF" opacity="0.151" /><circle cx="1947" cy="1766" r="153" fill="#FFFFFF" opacity="0.117" /><circle cx="1565" cy="1743" r="60" fill="#FFFFFF" opacity="0.090" /><circle cx="905" cy="1295" r="73" fill="#FFFFFF" opacity="0.225" /><circle cx="2413" cy="2334" r="129" fill="#FFFFFF" opacity="0.174" /><circle cx="690" cy="518" r="45" fill="#FFFFFF" opacity="0.193" /><circle cx="2238" cy="644" r="93" fill="#FFFFFF" opacity="0.168" /><circle cx="2702" cy="472" r="111" fill="#FFFFFF" opacity="0.219" /><circle cx="1171" cy="515" r="150" fill="#FFFFFF" opacity="0.126" /></g>
  <g><path d="M 329.9 590.6 L 2807.8 314.1 L 2807.8 737.2 L 329.9 1013.7 Z" fill="#FFFFFF" opacity="0.080" /><path d="M 353.6 896.8 L 2889.5 620.3 L 2889.5 1081.8 L 353.6 1358.3 Z" fill="#FFFFFF" opacity="0.091" /><path d="M 372.8 1150.8 L 2876.2 874.3 L 2876.2 1348.2 L 372.8 1624.6 Z" fill="#FFFFFF" opacity="0.216" /><path d="M 172.4 1418.0 L 2861.9 1141.5 L 2861.9 1585.3 L 172.4 1861.8 Z" fill="#FFFFFF" opacity="0.138" /><path d="M 373.2 1630.8 L 2853.0 1354.3 L 2853.0 1811.0 L 373.2 2087.5 Z" fill="#FFFFFF" opacity="0.184" /><path d="M 374.2 1960.9 L 2694.7 1684.4 L 2694.7 2164.4 L 374.2 2440.9 Z" fill="#FFFFFF" opacity="0.218" /><path d="M 341.3 2203.4 L 2768.4 1926.9 L 2768.4 2394.5 L 341.3 2671.0 Z" fill="#FFFFFF" opacity="0.204" /><path d="M 346.6 2480.2 L 2775.7 2203.7 L 2775.7 2675.0 L 346.6 2951.4 Z" fill="#FFFFFF" opacity="0.184" /></g>
  <g filter="url(#soft303)"><g transform="rotate(-13.58 1536.0 1536.0)"><path d="M-368.6 506.8 C -225.8 553.9, -25.8 471.8, 107.5 512.4 C 250.4 510.9, 450.4 501.6, 583.7 471.3 C 726.5 462.3, 926.5 517.7, 1059.8 451.6 C 1202.7 436.2, 1402.7 562.1, 1536.0 465.5 C 1678.8 473.0, 1878.8 536.1, 2012.2 504.4 C 2155.0 504.3, 2355.0 509.5, 2488.3 544.7 C 2631.2 534.9, 2831.2 474.4, 2964.5 562.1 C 3107.3 573.3, 3307.3 458.3, 3440.6 545.9" fill="none" stroke="url(#ribbon303)" stroke-width="58.4" stroke-linecap="round" stroke-opacity="0.120" /></g><g transform="rotate(-13.00 1536.0 1536.0)"><path d="M-368.6 673.2 C -241.7 679.7, -63.9 662.4, 54.6 723.8 C 181.6 713.0, 359.4 650.2, 477.9 734.6 C 604.8 728.8, 782.6 646.9, 901.1 708.2 C 1028.1 704.2, 1205.9 640.5, 1324.4 660.5 C 1451.3 655.7, 1629.1 681.4, 1747.6 620.6 C 1874.6 615.0, 2052.4 710.6, 2170.9 612.5 C 2297.9 600.6, 2475.6 720.9, 2594.1 641.3 C 2721.1 636.7, 2898.9 694.6, 3017.4 689.4 C 3144.4 695.2, 3322.1 661.4, 3440.6 727.7" fill="none" stroke="url(#ribbon303)" stroke-width="54.4" stroke-linecap="round" stroke-opacity="0.146" /></g><g transform="rotate(-12.42 1536.0 1536.0)"><path d="M-368.6 940.8 C -254.4 926.5, -94.4 960.9, 12.3 976.3 C 126.6 975.7, 286.6 900.0, 393.2 1008.3 C 507.5 991.0, 667.5 898.7, 774.1 999.4 C 888.4 994.0, 1048.4 900.6, 1155.1 954.9 C 1269.4 959.0, 1429.3 934.1, 1536.0 901.9 C 1650.3 898.5, 1810.3 958.9, 1916.9 872.4 C 2031.2 858.8, 2191.2 1010.4, 2297.9 884.4 C 2412.1 888.1, 2572.1 970.3, 2678.8 930.6 C 2793.1 934.3, 2953.1 949.5, 3059.7 983.0 C 3174.0 980.5, 3334.0 922.4, 3440.6 1009.7" fill="none" stroke="url(#ribbon303)" stroke-width="50.4" stroke-linecap="round" stroke-opacity="0.172" /></g><g transform="rotate(-11.84 1536.0 1536.0)"><path d="M-368.6 1163.8 C -264.8 1159.4, -119.3 1167.2, -22.3 1106.3 C 81.5 1083.4, 227.0 1202.7, 324.0 1087.6 C 427.8 1065.9, 573.3 1242.1, 670.3 1115.2 C 774.1 1117.6, 919.6 1212.0, 1016.6 1172.2 C 1120.4 1173.3, 1265.9 1157.4, 1362.9 1224.2 C 1466.7 1230.1, 1612.2 1105.7, 1709.1 1239.6 C 1813.0 1240.4, 1958.5 1091.2, 2055.4 1209.0 C 2159.3 1198.6, 2304.8 1137.2, 2401.7 1151.0 C 2505.6 1150.0, 2651.1 1174.3, 2748.0 1100.8 C 2851.9 1125.0, 2997.4 1186.3, 3094.3 1088.8 C 3198.2 1064.7, 3343.7 1224.9, 3440.6 1122.4" fill="none" stroke="url(#ribbon303)" stroke-width="46.4" stroke-linecap="round" stroke-opacity="0.198" /></g><g transform="rotate(-11.26 1536.0 1536.0)"><path d="M-368.6 1248.3 C -273.4 1193.3, -140.1 1303.5, -51.2 1165.1 C 44.0 1163.4, 177.4 1334.0, 266.2 1195.8 C 361.5 1189.3, 494.8 1279.2, 583.7 1258.3 C 678.9 1255.4, 812.2 1241.6, 901.1 1314.8 C 996.4 1306.4, 1129.7 1216.3, 1218.6 1330.9 C 1313.8 1319.1, 1447.1 1202.7, 1536.0 1296.9 C 1631.2 1310.8, 1764.6 1215.9, 1853.4 1233.4 C 1948.7 1231.6, 2082.0 1258.7, 2170.9 1178.9 C 2266.1 1158.5, 2399.4 1312.4, 2488.3 1166.5 C 2583.6 1158.8, 2716.9 1339.5, 2805.8 1203.7 C 2901.0 1206.6, 3034.3 1285.5, 3123.2 1267.9 C 3218.4 1261.9, 3351.8 1228.2, 3440.6 1320.2" fill="none" stroke="url(#ribbon303)" stroke-width="42.4" stroke-linecap="round" stroke-opacity="0.224" /></g><g transform="rotate(-10.68 1536.0 1536.0)"><path d="M-368.6 1437.0 C -225.8 1440.7, -25.8 1432.6, 107.5 1374.9 C 250.4 1374.1, 450.4 1494.4, 583.7 1346.4 C 726.5 1360.0, 926.5 1488.6, 1059.8 1372.8 C 1202.7 1386.5, 1402.7 1503.3, 1536.0 1438.2 C 1678.8 1438.3, 1878.8 1435.7, 2012.2 1502.8 C 2155.0 1481.5, 2355.0 1412.0, 2488.3 1527.6 C 2631.2 1504.6, 2831.2 1387.4, 2964.5 1497.4 C 3107.3 1476.6, 3307.3 1397.8, 3440.6 1430.5" fill="none" stroke="url(#ribbon303)" stroke-width="38.4" stroke-linecap="round" stroke-opacity="0.250" /></g><g transform="rotate(-10.10 1536.0 1536.0)"><path d="M-368.6 1660.9 C -241.7 1662.4, -63.9 1660.3, 54.6 1591.9 C 181.6 1606.0, 359.4 1725.9, 477.9 1563.2 C 604.8 1598.5, 782.6 1774.4, 901.1 1593.8 C 1028.1 1581.7, 1205.9 1718.2, 1324.4 1665.0 C 1451.3 1665.9, 1629.1 1659.6, 1747.6 1733.8 C 1874.6 1735.3, 2052.4 1596.3, 2170.9 1758.3 C 2297.9 1782.5, 2475.6 1581.2, 2594.1 1723.8 C 2721.1 1722.4, 2898.9 1630.5, 3017.4 1651.1 C 3144.4 1647.5, 3322.1 1666.2, 3440.6 1584.3" fill="none" stroke="url(#ribbon303)" stroke-width="34.4" stroke-linecap="round" stroke-opacity="0.276" /></g><g transform="rotate(-9.52 1536.0 1536.0)"><path d="M-368.6 1826.1 C -254.4 1761.0, -94.4 1882.5, 12.3 1847.5 C 126.6 1839.9, 286.6 1809.7, 393.2 1914.6 C 507.5 1901.5, 667.5 1796.9, 774.1 1928.0 C 888.4 1895.7, 1048.4 1784.6, 1155.1 1879.6 C 1269.4 1900.5, 1429.3 1795.8, 1536.0 1798.7 C 1650.3 1788.6, 1810.3 1847.1, 1916.9 1734.5 C 2031.2 1746.7, 2191.2 1925.7, 2297.9 1725.8 C 2412.1 1725.0, 2572.1 1866.3, 2678.8 1778.0 C 2793.1 1793.7, 2953.1 1850.4, 3059.7 1859.3 C 3174.0 1855.0, 3334.0 1796.9, 3440.6 1920.5" fill="none" stroke="url(#ribbon303)" stroke-width="30.4" stroke-linecap="round" stroke-opacity="0.302" /></g><g transform="rotate(-8.94 1536.0 1536.0)"><path d="M-368.6 2082.8 C -264.8 2150.7, -119.3 2012.1, -22.3 2193.3 C 81.5 2202.5, 227.0 2033.0, 324.0 2147.4 C 427.8 2133.4, 573.3 2013.1, 670.3 2062.3 C 774.1 2058.5, 919.6 2092.8, 1016.6 1989.7 C 1120.4 1967.7, 1265.9 2186.7, 1362.9 1973.6 C 1466.7 1988.4, 1612.2 2193.5, 1709.1 2023.7 C 1813.0 2028.9, 1958.5 2105.8, 2055.4 2109.7 C 2159.3 2107.6, 2304.8 2064.3, 2401.7 2179.4 C 2505.6 2216.5, 2651.1 1985.4, 2748.0 2190.5 C 2851.9 2148.5, 2997.4 1954.3, 3094.3 2136.3 C 3198.2 2141.8, 3343.7 2024.9, 3440.6 2049.7" fill="none" stroke="url(#ribbon303)" stroke-width="26.4" stroke-linecap="round" stroke-opacity="0.328" /></g><g transform="rotate(-8.36 1536.0 1536.0)"><path d="M-368.6 2245.0 C -273.4 2296.5, -140.1 2202.4, -51.2 2359.5 C 44.0 2328.9, 177.4 2120.5, 266.2 2347.9 C 361.5 2366.9, 494.8 2182.3, 583.7 2273.9 C 678.9 2275.0, 812.2 2213.0, 901.1 2182.4 C 996.4 2204.8, 1129.7 2320.1, 1218.6 2128.9 C 1313.8 2082.9, 1447.1 2339.3, 1536.0 2145.9 C 1631.2 2109.0, 1764.6 2332.8, 1853.4 2223.0 C 1948.7 2224.8, 2082.0 2264.3, 2170.9 2313.5 C 2266.1 2310.6, 2399.4 2219.7, 2488.3 2362.5 C 2583.6 2349.6, 2716.9 2121.8, 2805.8 2340.2 C 2901.0 2310.5, 3034.3 2173.6, 3123.2 2260.3 C 3218.4 2265.8, 3351.8 2236.7, 3440.6 2171.1" fill="none" stroke="url(#ribbon303)" stroke-width="22.4" stroke-linecap="round" stroke-opacity="0.354" /></g><g transform="rotate(-7.78 1536.0 1536.0)"><path d="M-368.6 2401.2 C -225.8 2353.6, -25.8 2429.7, 107.5 2461.0 C 250.4 2440.8, 450.4 2375.0, 583.7 2522.4 C 726.5 2498.7, 926.5 2347.6, 1059.8 2510.2 C 1202.7 2505.6, 1402.7 2360.8, 1536.0 2432.0 C 1678.8 2437.0, 1878.8 2371.8, 2012.2 2335.0 C 2155.0 2357.0, 2355.0 2460.4, 2488.3 2278.2 C 2631.2 2258.6, 2831.2 2532.1, 2964.5 2296.0 C 3107.3 2326.8, 3307.3 2465.3, 3440.6 2377.6" fill="none" stroke="url(#ribbon303)" stroke-width="18.4" stroke-linecap="round" stroke-opacity="0.380" /></g><g transform="rotate(-7.20 1536.0 1536.0)"><path d="M-368.6 2626.6 C -241.7 2648.2, -63.9 2609.9, 54.6 2737.0 C 181.6 2735.1, 359.4 2506.2, 477.9 2756.7 C 604.8 2776.7, 782.6 2525.5, 901.1 2697.5 C 1028.1 2672.1, 1205.9 2595.0, 1324.4 2595.2 C 1451.3 2593.2, 1629.1 2641.6, 1747.6 2512.0 C 1874.6 2550.2, 2052.4 2686.7, 2170.9 2498.3 C 2297.9 2482.0, 2475.6 2678.0, 2594.1 2562.4 C 2721.1 2543.9, 2898.9 2692.5, 3017.4 2665.4 C 3144.4 2664.4, 3322.1 2613.1, 3440.6 2744.9" fill="none" stroke="url(#ribbon303)" stroke-width="14.4" stroke-linecap="round" stroke-opacity="0.406" /></g></g>
  <g><ellipse cx="1536.0" cy="1551.9" rx="728.6" ry="605.7" fill="url(#extrude303)" opacity="0.220" /><ellipse cx="1536.0" cy="1567.7" rx="736.0" ry="610.9" fill="url(#extrude303)" opacity="0.205" /><ellipse cx="1536.0" cy="1583.6" rx="743.4" ry="616.1" fill="url(#extrude303)" opacity="0.190" /><ellipse cx="1536.0" cy="1599.5" rx="750.9" ry="621.3" fill="url(#extrude303)" opacity="0.175" /><ellipse cx="1536.0" cy="1615.4" rx="758.3" ry="626.5" fill="url(#extrude303)" opacity="0.160" /><ellipse cx="1536.0" cy="1631.2" rx="765.7" ry="631.7" fill="url(#extrude303)" opacity="0.145" /><ellipse cx="1536.0" cy="1647.1" rx="773.2" ry="636.9" fill="url(#extrude303)" opacity="0.130" /><ellipse cx="1536.0" cy="1663.0" rx="780.6" ry="642.1" fill="url(#extrude303)" opacity="0.115" /><ellipse cx="1536.0" cy="1678.8" rx="788.0" ry="647.4" fill="url(#extrude303)" opacity="0.100" /><ellipse cx="1536.0" cy="1694.7" rx="795.5" ry="652.6" fill="url(#extrude303)" opacity="0.085" /><ellipse cx="1536.0" cy="1710.6" rx="802.9" ry="657.8" fill="url(#extrude303)" opacity="0.070" /><ellipse cx="1536.0" cy="1726.5" rx="810.3" ry="663.0" fill="url(#extrude303)" opacity="0.055" /></g>
  <ellipse cx="1536.0" cy="1726.5" rx="773.2" ry="214.9" fill="#0B1D2D" opacity="0.24" />
  <ellipse cx="1536.0" cy="1536.0" rx="743.4" ry="651.3" fill="url(#orb303)" stroke="#FFFFFF" stroke-opacity="0.42" stroke-width="7" />
  <ellipse cx="1431.9" cy="1392.7" rx="505.5" ry="299.6" fill="#FFFFFF" opacity="0.25" />
  <path d="M 199.4 399.4 C 1013.8 -30.7, 2058.2 768.0, 2872.6 215.0 L 2872.6 983.0 C 2089.0 1228.8, 1013.8 307.2, 199.4 1167.4 Z" fill="url(#glass303)" />
  <rect x="270" y="270" width="2532" height="2532" rx="430" fill="none" stroke="#FFFFFF" stroke-opacity="0.30" stroke-width="5" />
  <rect x="288.4" y="288.4" width="2495.1" height="2495.1" rx="399" fill="none" stroke="#8A5CFF" stroke-opacity="0.35" stroke-width="3" />
  <g filter="url(#soft303)"><rect x="2459" y="2230" width="80" height="2" fill="#FFFFFF" opacity="0.497" /><rect x="2498" y="2191" width="2" height="80" fill="#FFFFFF" opacity="0.497" /><rect x="1311" y="410" width="52" height="2" fill="#FFFFFF" opacity="0.356" /><rect x="1336" y="385" width="2" height="52" fill="#FFFFFF" opacity="0.356" /><rect x="1999" y="961" width="62" height="2" fill="#FFFFFF" opacity="0.710" /><rect x="2029" y="931" width="2" height="62" fill="#FFFFFF" opacity="0.710" /><rect x="1775" y="2142" width="60" height="2" fill="#FFFFFF" opacity="0.428" /><rect x="1804" y="2113" width="2" height="60" fill="#FFFFFF" opacity="0.428" /><rect x="1656" y="1401" width="74" height="2" fill="#FFFFFF" opacity="0.682" /><rect x="1692" y="1365" width="2" height="74" fill="#FFFFFF" opacity="0.682" /><rect x="2764" y="1586" width="28" height="2" fill="#FFFFFF" opacity="0.438" /><rect x="2777" y="1573" width="2" height="28" fill="#FFFFFF" opacity="0.438" /><rect x="1357" y="2109" width="44" height="2" fill="#FFFFFF" opacity="0.629" /><rect x="1378" y="2088" width="2" height="44" fill="#FFFFFF" opacity="0.629" /><rect x="1140" y="2352" width="44" height="2" fill="#FFFFFF" opacity="0.480" /><rect x="1161" y="2331" width="2" height="44" fill="#FFFFFF" opacity="0.480" /><rect x="308" y="2380" width="64" height="2" fill="#FFFFFF" opacity="0.405" /><rect x="339" y="2349" width="2" height="64" fill="#FFFFFF" opacity="0.405" /><rect x="880" y="1800" width="74" height="2" fill="#FFFFFF" opacity="0.719" /><rect x="916" y="1764" width="2" height="74" fill="#FFFFFF" opacity="0.719" /><rect x="1877" y="741" width="78" height="2" fill="#FFFFFF" opacity="0.409" /><rect x="1915" y="703" width="2" height="78" fill="#FFFFFF" opacity="0.409" /><rect x="2115" y="2514" width="28" height="2" fill="#FFFFFF" opacity="0.329" /><rect x="2128" y="2501" width="2" height="28" fill="#FFFFFF" opacity="0.329" /><rect x="755" y="523" width="70" height="2" fill="#FFFFFF" opacity="0.483" /><rect x="789" y="489" width="2" height="70" fill="#FFFFFF" opacity="0.483" /><rect x="2781" y="635" width="68" height="2" fill="#FFFFFF" opacity="0.455" /><rect x="2814" y="602" width="2" height="68" fill="#FFFFFF" opacity="0.455" /><rect x="587" y="2367" width="70" height="2" fill="#FFFFFF" opacity="0.612" /><rect x="621" y="2333" width="2" height="70" fill="#FFFFFF" opacity="0.612" /><rect x="874" y="1439" width="62" height="2" fill="#FFFFFF" opacity="0.749" /><rect x="904" y="1409" width="2" height="62" fill="#FFFFFF" opacity="0.749" /><rect x="1604" y="1297" width="32" height="2" fill="#FFFFFF" opacity="0.713" /><rect x="1619" y="1282" width="2" height="32" fill="#FFFFFF" opacity="0.713" /><rect x="1362" y="1681" width="84" height="2" fill="#FFFFFF" opacity="0.471" /><rect x="1403" y="1640" width="2" height="84" fill="#FFFFFF" opacity="0.471" /><rect x="833" y="955" width="46" height="2" fill="#FFFFFF" opacity="0.588" /><rect x="855" y="933" width="2" height="46" fill="#FFFFFF" opacity="0.588" /><rect x="1017" y="1709" width="68" height="2" fill="#FFFFFF" opacity="0.319" /><rect x="1050" y="1676" width="2" height="68" fill="#FFFFFF" opacity="0.319" /><rect x="2810" y="2171" width="26" height="2" fill="#FFFFFF" opacity="0.595" /><rect x="2822" y="2159" width="2" height="26" fill="#FFFFFF" opacity="0.595" /><rect x="808" y="1985" width="58" height="2" fill="#FFFFFF" opacity="0.578" /><rect x="836" y="1957" width="2" height="58" fill="#FFFFFF" opacity="0.578" /><rect x="2403" y="1135" width="64" height="2" fill="#FFFFFF" opacity="0.301" /><rect x="2434" y="1104" width="2" height="64" fill="#FFFFFF" opacity="0.301" /><rect x="1021" y="1649" width="64" height="2" fill="#FFFFFF" opacity="0.541" /><rect x="1052" y="1618" width="2" height="64" fill="#FFFFFF" opacity="0.541" /><rect x="905" y="2219" width="56" height="2" fill="#FFFFFF" opacity="0.600" /><rect x="932" y="2192" width="2" height="56" fill="#FFFFFF" opacity="0.600" /><rect x="1495" y="1659" width="68" height="2" fill="#FFFFFF" opacity="0.850" /><rect x="1528" y="1626" width="2" height="68" fill="#FFFFFF" opacity="0.850" /></g>
  <g opacity="0.52"><rect x="1060" y="1070" width="219" height="1024" fill="#0C2030" /><rect x="1316" y="1326" width="219" height="768" fill="#0C2030" /><rect x="1572" y="1198" width="219" height="921" fill="#0C2030" /><rect x="1828" y="1033" width="219" height="1152" fill="#0C2030" /></g>
  <g filter="url(#soft303)"><rect x="1024" y="1024" width="219" height="1024" fill="url(#symbol303)" /><rect x="1280" y="1280" width="219" height="768" fill="url(#symbol303)" /><rect x="1536" y="1152" width="219" height="921" fill="url(#symbol303)" /><rect x="1792" y="987" width="219" height="1152" fill="url(#symbol303)" /></g>
  <rect x="138" y="138" width="2796" height="2796" rx="629" fill="#FFFFFF" filter="url(#grain303)" opacity="0.18" />
</svg>
