<svg xmlns="http://www.w3.org/2000/svg" width="3072" height="3072" viewBox="0 0 3072 3072">
  <title>QuartzOS App Icon 244 - swift_gallery_244</title>
  <defs><linearGradient id="bg243" x1="0%" y1="0%" x2="100%" y2="100%"><stop offset="0%" stop-color="#FFD84D" /><stop offset="26%" stop-color="#36D1FF" /><stop offset="56%" stop-color="#8A5CFF" /><stop offset="78%" stop-color="#6C7CC5" /><stop offset="100%" stop-color="#1E2032" /></linearGradient><radialGradient id="sun243" cx="27%" cy="36%" r="88%"><stop offset="0%" stop-color="#FFFFFF" stop-opacity="0.62" /><stop offset="30%" stop-color="#FF6AB3" stop-opacity="0.35" /><stop offset="100%" stop-color="#FF6AB3" stop-opacity="0" /></radialGradient><linearGradient id="glass243" x1="0%" y1="0%" x2="0%" y2="100%"><stop offset="0%" stop-color="#FFFFFF" stop-opacity="0.70" /><stop offset="46%" stop-color="#FFFFFF" stop-opacity="0.26" /><stop offset="100%" stop-color="#FFFFFF" stop-opacity="0.00" /></linearGradient><linearGradient id="ribbon243" x1="0%" y1="0%" x2="100%" y2="0%"><stop offset="0%" stop-color="#FFD84D" stop-opacity="0.18" /><stop offset="34%" stop-color="#36D1FF" stop-opacity="0.72" /><stop offset="66%" stop-color="#8A5CFF" stop-opacity="0.72" /><stop offset="100%" stop-color="#FF6AB3" stop-opacity="0.18" /></linearGradient><radialGradient id="orb243" cx="34%" cy="27%" r="74%"><stop offset="0%" stop-color="#FFFFFF" stop-opacity="0.84" /><stop offset="30%" stop-color="#FFD84D" stop-opacity="0.52" /><stop offset="68%" stop-color="#36D1FF" stop-opacity="0.42" /><stop offset="100%" stop-color="#8A5CFF" stop-opacity="0.20" /></radialGradient><linearGradient id="extrude243" x1="0%" y1="0%" x2="0%" y2="100%"><stop offset="0%" stop-color="#15283C" stop-opacity="0.45" /><stop offset="100%" stop-color="#08131D" stop-opacity="0.06" /></linearGradient><linearGradient id="symbol243" x1="0%" y1="0%" x2="100%" y2="100%"><stop offset="0%" stop-color="#FFFFFF" /><stop offset="100%" stop-color="#FF6AB3" /></linearGradient><filter id="shadow243" x="-40%" y="-40%" width="180%" height="180%"><feDropShadow dx="0" dy="49" stdDeviation="86" flood-color="#06111A" flood-opacity="0.54" /></filter><filter id="soft243" x="-40%" y="-40%" width="180%" height="180%"><feDropShadow dx="0" dy="0" stdDeviation="14" flood-color="#FFD84D" flood-opacity="0.45" /></filter><filter id="grain243"><feTurbulence type="fractalNoise" baseFrequency="0.733" numOctaves="2" seed="243" /><feColorMatrix type="saturate" values="0" /><feComponentTransfer><feFuncA type="table" tableValues="0 0.09" /></feComponentTransfer></filter></defs>
  <rect x="138" y="138" width="2796" height="2796" rx="629" fill="url(#bg243)" filter="url(#shadow243)" />
  <rect x="138" y="138" width="2796" height="2796" rx="629" fill="url(#sun243)" />
  <g><circle cx="996" cy="2359" r="47" fill="#FFFFFF" opacity="0.193" /><circle cx="1733" cy="1290" r="80" fill="#FFFFFF" opacity="0.189" /><circle cx="759" cy="542" r="78" fill="#FFFFFF" opacity="0.165" /><circle cx="2242" cy="2618" r="74" fill="#FFFFFF" opacity="0.187" /><circle cx="1714" cy="2434" r="79" fill="#FFFFFF" opacity="0.113" /><circle cx="2356" cy="841" r="71" fill="#FFFFFF" opacity="0.144" /><circle cx="776" cy="530" r="108" fill="#FFFFFF" opacity="0.067" /><circle cx="1422" cy="1739" r="114" fill="#FFFFFF" opacity="0.235" /><circle cx="2606" cy="1382" r="54" fill="#FFFFFF" opacity="0.164" /><circle cx="423" cy="2239" r="103" fill="#FFFFFF" opacity="0.223" /><circle cx="1436" cy="1084" r="125" fill="#FFFFFF" opacity="0.234" /><circle cx="498" cy="1918" r="84" fill="#FFFFFF" opacity="0.173" /><circle cx="2137" cy="439" r="148" fill="#FFFFFF" opacity="0.125" /><circle cx="1035" cy="1470" r="93" fill="#FFFFFF" opacity="0.106" /><circle cx="1165" cy="2308" r="134" fill="#FFFFFF" opacity="0.212" /><circle cx="1992" cy="2524" r="155" fill="#FFFFFF" opacity="0.201" /><circle cx="2088" cy="716" r="143" fill="#FFFFFF" opacity="0.122" /><circle cx="1111" cy="1619" r="80" fill="#FFFFFF" opacity="0.111" /><circle cx="2653" cy="2459" r="72" fill="#FFFFFF" opacity="0.168" /><circle cx="2367" cy="2307" r="152" fill="#FFFFFF" opacity="0.087" /><circle cx="2442" cy="2143" r="82" fill="#FFFFFF" opacity="0.097" /><circle cx="632" cy="2235" r="142" fill="#FFFFFF" opacity="0.133" /><circle cx="736" cy="1685" r="95" fill="#FFFFFF" opacity="0.183" /><circle cx="924" cy="753" r="78" fill="#FFFFFF" opacity="0.076" /><circle cx="954" cy="2427" r="58" fill="#FFFFFF" opacity="0.180" /><circle cx="2196" cy="678" r="67" fill="#FFFFFF" opacity="0.187" /><circle cx="643" cy="979" r="124" fill="#FFFFFF" opacity="0.080" /><circle cx="1699" cy="1822" r="158" fill="#FFFFFF" opacity="0.185" /></g>
  <g><path d="M 197.1 634.5 L 2874.7 358.0 L 2874.7 821.6 L 197.1 1098.1 Z" fill="#FFFFFF" opacity="0.140" /><path d="M 324.7 843.0 L 2687.5 566.5 L 2687.5 1013.1 L 324.7 1289.6 Z" fill="#FFFFFF" opacity="0.135" /><path d="M 284.5 1157.5 L 2782.6 881.0 L 2782.6 1319.3 L 284.5 1595.8 Z" fill="#FFFFFF" opacity="0.212" /><path d="M 356.8 1428.5 L 2825.2 1152.1 L 2825.2 1632.7 L 356.8 1909.2 Z" fill="#FFFFFF" opacity="0.229" /><path d="M 279.7 1675.9 L 2864.4 1399.4 L 2864.4 1821.0 L 279.7 2097.5 Z" fill="#FFFFFF" opacity="0.154" /><path d="M 388.2 1926.6 L 2776.0 1650.1 L 2776.0 2069.0 L 388.2 2345.5 Z" fill="#FFFFFF" opacity="0.102" /><path d="M 200.2 2150.5 L 2851.2 1874.0 L 2851.2 2346.9 L 200.2 2623.4 Z" fill="#FFFFFF" opacity="0.092" /><path d="M 163.0 2488.0 L 2892.4 2211.5 L 2892.4 2659.0 L 163.0 2935.5 Z" fill="#FFFFFF" opacity="0.125" /></g>
  <g filter="url(#soft243)"><g transform="rotate(-6.15 1536.0 1536.0)"><path d="M-368.6 560.4 C -225.8 538.1, -25.8 566.6, 107.5 584.9 C 250.4 592.8, 450.4 551.3, 583.7 613.1 C 726.5 611.5, 926.5 516.3, 1059.8 609.3 C 1202.7 607.1, 1402.7 534.5, 1536.0 575.9 C 1678.8 573.5, 1878.8 552.4, 2012.2 533.1 C 2155.0 544.0, 2355.0 580.7, 2488.3 506.9 C 2631.2 519.6, 2831.2 615.5, 2964.5 513.2 C 3107.3 512.7, 3307.3 592.8, 3440.6 548.1" fill="none" stroke="url(#ribbon243)" stroke-width="58.4" stroke-linecap="round" stroke-opacity="0.120" /></g><g transform="rotate(-5.57 1536.0 1536.0)"><path d="M-368.6 729.2 C -241.7 742.2, -63.9 715.6, 54.6 696.5 C 181.6 705.3, 359.4 768.2, 477.9 668.4 C 604.8 659.1, 782.6 798.2, 901.1 677.1 C 1028.1 666.2, 1205.9 750.9, 1324.4 717.5 C 1451.3 715.4, 1629.1 735.0, 1747.6 765.0 C 1874.6 759.1, 2052.4 689.7, 2170.9 790.8 C 2297.9 780.4, 2475.6 662.3, 2594.1 779.3 C 2721.1 791.9, 2898.9 699.0, 3017.4 737.4 C 3144.4 739.3, 3322.1 724.3, 3440.6 690.6" fill="none" stroke="url(#ribbon243)" stroke-width="54.4" stroke-linecap="round" stroke-opacity="0.146" /></g><g transform="rotate(-4.99 1536.0 1536.0)"><path d="M-368.6 964.1 C -254.4 1045.4, -94.4 882.9, 12.3 1015.1 C 126.6 1023.2, 286.6 919.8, 393.2 965.8 C 507.5 965.5, 667.5 963.4, 774.1 915.5 C 888.4 931.7, 1048.4 985.4, 1155.1 894.7 C 1269.4 895.5, 1429.3 1028.7, 1536.0 916.0 C 1650.3 928.2, 1810.3 1006.0, 1916.9 966.5 C 2031.2 965.5, 2191.2 962.9, 2297.9 1015.5 C 2412.1 1016.4, 2572.1 928.0, 2678.8 1033.4 C 2793.1 1050.5, 2953.1 887.5, 3059.7 1009.3 C 3174.0 1024.6, 3334.0 931.5, 3440.6 957.7" fill="none" stroke="url(#ribbon243)" stroke-width="50.4" stroke-linecap="round" stroke-opacity="0.172" /></g><g transform="rotate(-4.41 1536.0 1536.0)"><path d="M-368.6 1143.0 C -264.8 1084.1, -119.3 1213.5, -22.3 1078.4 C 81.5 1066.5, 227.0 1196.1, 324.0 1127.4 C 427.8 1126.9, 573.3 1148.0, 670.3 1185.9 C 774.1 1184.0, 919.6 1114.2, 1016.6 1218.3 C 1120.4 1234.3, 1265.9 1103.8, 1362.9 1205.1 C 1466.7 1221.7, 1612.2 1116.8, 1709.1 1154.2 C 1813.0 1156.9, 1958.5 1129.8, 2055.4 1096.5 C 2159.3 1103.0, 2304.8 1177.0, 2401.7 1067.0 C 2505.6 1060.4, 2651.1 1212.9, 2748.0 1083.6 C 2851.9 1083.1, 2997.4 1202.6, 3094.3 1136.2 C 3198.2 1134.6, 3343.7 1149.3, 3440.6 1193.0" fill="none" stroke="url(#ribbon243)" stroke-width="46.4" stroke-linecap="round" stroke-opacity="0.198" /></g><g transform="rotate(-3.83 1536.0 1536.0)"><path d="M-368.6 1353.1 C -273.4 1454.8, -140.1 1280.5, -51.2 1412.9 C 44.0 1426.8, 177.4 1315.7, 266.2 1352.9 C 361.5 1352.9, 494.8 1353.4, 583.7 1293.0 C 678.9 1281.9, 812.2 1395.0, 901.1 1269.6 C 996.4 1283.1, 1129.7 1446.8, 1218.6 1296.8 C 1313.8 1286.5, 1447.1 1393.2, 1536.0 1358.2 C 1631.2 1356.3, 1764.6 1350.5, 1853.4 1416.5 C 1948.7 1407.8, 2082.0 1294.7, 2170.9 1436.3 C 2266.1 1464.1, 2399.4 1270.3, 2488.3 1405.7 C 2583.6 1400.2, 2716.9 1299.6, 2805.8 1343.2 C 2901.0 1346.5, 3034.3 1359.3, 3123.2 1286.7 C 3218.4 1273.6, 3351.8 1393.9, 3440.6 1270.5" fill="none" stroke="url(#ribbon243)" stroke-width="42.4" stroke-linecap="round" stroke-opacity="0.224" /></g><g transform="rotate(-3.25 1536.0 1536.0)"><path d="M-368.6 1517.1 C -225.8 1451.3, -25.8 1613.6, 107.5 1488.5 C 250.4 1489.9, 450.4 1533.9, 583.7 1558.9 C 726.5 1569.5, 926.5 1481.2, 1059.8 1603.9 C 1202.7 1633.3, 1402.7 1427.6, 1536.0 1596.3 C 1678.8 1597.7, 1878.8 1455.7, 2012.2 1540.7 C 2155.0 1540.4, 2355.0 1502.9, 2488.3 1470.7 C 2631.2 1476.4, 2831.2 1532.2, 2964.5 1429.0 C 3107.3 1417.0, 3307.3 1561.8, 3440.6 1440.6" fill="none" stroke="url(#ribbon243)" stroke-width="38.4" stroke-linecap="round" stroke-opacity="0.250" /></g><g transform="rotate(-2.67 1536.0 1536.0)"><path d="M-368.6 1685.4 C -241.7 1788.9, -63.9 1603.3, 54.6 1760.6 C 181.6 1776.3, 359.4 1653.4, 477.9 1693.1 C 604.8 1695.7, 782.6 1678.3, 901.1 1620.9 C 1028.1 1645.5, 1205.9 1752.4, 1324.4 1587.8 C 1451.3 1570.1, 1629.1 1786.3, 1747.6 1613.9 C 1874.6 1622.2, 2052.4 1750.3, 2170.9 1683.4 C 2297.9 1683.6, 2475.6 1686.3, 2594.1 1754.1 C 2721.1 1727.9, 2898.9 1607.0, 3017.4 1783.1 C 3144.4 1767.5, 3322.1 1608.1, 3440.6 1752.9" fill="none" stroke="url(#ribbon243)" stroke-width="34.4" stroke-linecap="round" stroke-opacity="0.276" /></g><g transform="rotate(-2.09 1536.0 1536.0)"><path d="M-368.6 1827.7 C -254.4 1752.6, -94.4 1914.8, 12.3 1827.6 C 126.6 1827.7, 286.6 1827.7, 393.2 1902.8 C 507.5 1922.5, 667.5 1775.8, 774.1 1932.4 C 888.4 1973.0, 1048.4 1778.6, 1155.1 1898.4 C 1269.4 1902.2, 1429.3 1766.5, 1536.0 1821.6 C 1650.3 1819.3, 1810.3 1834.7, 1916.9 1748.4 C 2031.2 1727.2, 2191.2 1863.9, 2297.9 1723.3 C 2412.1 1684.8, 2572.1 1887.6, 2678.8 1761.5 C 2793.1 1745.9, 2953.1 1881.4, 3059.7 1839.9 C 3174.0 1841.3, 3334.0 1814.1, 3440.6 1910.8" fill="none" stroke="url(#ribbon243)" stroke-width="30.4" stroke-linecap="round" stroke-opacity="0.302" /></g><g transform="rotate(-1.51 1536.0 1536.0)"><path d="M-368.6 2101.3 C -264.8 2193.8, -119.3 2030.2, -22.3 2133.9 C 81.5 2134.9, 227.0 2076.8, 324.0 2047.2 C 427.8 2036.1, 573.3 2147.2, 670.3 1993.4 C 774.1 1960.6, 919.6 2223.7, 1016.6 2005.0 C 1120.4 2026.8, 1265.9 2136.9, 1362.9 2075.0 C 1466.7 2074.3, 1612.2 2126.5, 1709.1 2160.9 C 1813.0 2159.9, 1958.5 2034.2, 2055.4 2210.7 C 2159.3 2205.4, 2304.8 1976.3, 2401.7 2194.1 C 2505.6 2182.5, 2651.1 2014.0, 2748.0 2121.2 C 2851.9 2116.6, 2997.4 2090.6, 3094.3 2036.2 C 3198.2 2031.2, 3343.7 2120.8, 3440.6 1990.7" fill="none" stroke="url(#ribbon243)" stroke-width="26.4" stroke-linecap="round" stroke-opacity="0.328" /></g><g transform="rotate(-0.93 1536.0 1536.0)"><path d="M-368.6 2282.4 C -273.4 2300.9, -140.1 2265.6, -51.2 2220.0 C 44.0 2240.2, 177.4 2339.4, 266.2 2166.4 C 361.5 2192.5, 494.8 2376.2, 583.7 2183.1 C 678.9 2152.0, 812.2 2386.4, 901.1 2260.1 C 996.4 2258.9, 1129.7 2304.9, 1218.6 2350.6 C 1313.8 2334.4, 1447.1 2208.9, 1536.0 2399.8 C 1631.2 2356.7, 1764.6 2215.6, 1853.4 2377.8 C 1948.7 2410.8, 2082.0 2214.8, 2170.9 2297.9 C 2266.1 2297.7, 2399.4 2265.2, 2488.3 2208.7 C 2583.6 2203.8, 2716.9 2338.9, 2805.8 2164.1 C 2901.0 2194.5, 3034.3 2390.7, 3123.2 2191.4 C 3218.4 2212.6, 3351.8 2351.5, 3440.6 2273.8" fill="none" stroke="url(#ribbon243)" stroke-width="22.4" stroke-linecap="round" stroke-opacity="0.354" /></g><g transform="rotate(-0.35 1536.0 1536.0)"><path d="M-368.6 2459.5 C -225.8 2489.8, -25.8 2441.8, 107.5 2387.1 C 250.4 2383.6, 450.4 2486.5, 583.7 2335.2 C 726.5 2368.7, 926.5 2545.1, 1059.8 2358.6 C 1202.7 2398.8, 1402.7 2567.6, 1536.0 2443.3 C 1678.8 2438.4, 1878.8 2464.5, 2012.2 2537.8 C 2155.0 2561.4, 2355.0 2424.7, 2488.3 2584.9 C 2631.2 2601.6, 2831.2 2397.0, 2964.5 2555.9 C 3107.3 2582.5, 3307.3 2360.5, 3440.6 2468.4" fill="none" stroke="url(#ribbon243)" stroke-width="18.4" stroke-linecap="round" stroke-opacity="0.380" /></g><g transform="rotate(0.23 1536.0 1536.0)"><path d="M-368.6 2634.8 C -241.7 2654.2, -63.9 2610.2, 54.6 2561.4 C 181.6 2562.7, 359.4 2694.2, 477.9 2504.1 C 604.8 2547.9, 782.6 2742.9, 901.1 2526.0 C 1028.1 2507.5, 1205.9 2705.6, 1324.4 2613.9 C 1451.3 2612.6, 1629.1 2645.7, 1747.6 2714.5 C 1874.6 2732.3, 2052.4 2555.4, 2170.9 2766.7 C 2297.9 2817.6, 2475.6 2546.4, 2594.1 2738.9 C 2721.1 2761.1, 2898.9 2517.9, 3017.4 2647.9 C 3144.4 2649.6, 3322.1 2628.1, 3440.6 2549.0" fill="none" stroke="url(#ribbon243)" stroke-width="14.4" stroke-linecap="round" stroke-opacity="0.406" /></g></g>
  <g><ellipse cx="1536.0" cy="1551.9" rx="728.6" ry="605.7" fill="url(#extrude243)" opacity="0.220" /><ellipse cx="1536.0" cy="1567.7" rx="736.0" ry="610.9" fill="url(#extrude243)" opacity="0.205" /><ellipse cx="1536.0" cy="1583.6" rx="743.4" ry="616.1" fill="url(#extrude243)" opacity="0.190" /><ellipse cx="1536.0" cy="1599.5" rx="750.9" ry="621.3" fill="url(#extrude243)" opacity="0.175" /><ellipse cx="1536.0" cy="1615.4" rx="758.3" ry="626.5" fill="url(#extrude243)" opacity="0.160" /><ellipse cx="1536.0" cy="1631.2" rx="765.7" ry="631.7" fill="url(#extrude243)" opacity="0.145" /><ellipse cx="1536.0" cy="1647.1" rx="773.2" ry="636.9" fill="url(#extrude243)" opacity="0.130" /><ellipse cx="1536.0" cy="1663.0" rx="780.6" ry="642.1" fill="url(#extrude243)" opacity="0.115" /><ellipse cx="1536.0" cy="1678.8" rx="788.0" ry="647.4" fill="url(#extrude243)" opacity="0.100" /><ellipse cx="1536.0" cy="1694.7" rx="795.5" ry="652.6" fill="url(#extrude243)" opacity="0.085" /><ellipse cx="1536.0" cy="1710.6" rx="802.9" ry="657.8" fill="url(#extrude243)" opacity="0.070" /><ellipse cx="1536.0" cy="1726.5" rx="810.3" ry="663.0" fill="url(#extrude243)" opacity="0.055" /></g>
  <ellipse cx="1536.0" cy="1726.5" rx="773.2" ry="214.9" fill="#0B1D2D" opacity="0.24" />
  <ellipse cx="1536.0" cy="1536.0" rx="743.4" ry="651.3" fill="url(#orb243)" stroke="#FFFFFF" stroke-opacity="0.42" stroke-width="7" />
  <ellipse cx="1431.9" cy="1392.7" rx="505.5" ry="299.6" fill="#FFFFFF" opacity="0.25" />
  <path d="M 199.4 399.4 C 1013.8 -30.7, 2058.2 768.0, 2872.6 215.0 L 2872.6 983.0 C 2089.0 1228.8, 1013.8 307.2, 199.4 1167.4 Z" fill="url(#glass243)" />
  <rect x="270" y="270" width="2532" height="2532" rx="430" fill="none" stroke="#FFFFFF" stroke-opacity="0.30" stroke-width="5" />
  <rect x="288.4" y="288.4" width="2495.1" height="2495.1" rx="399" fill="none" stroke="#FFD84D" stroke-opacity="0.35" stroke-width="3" />
  <g filter="url(#soft243)"><rect x="2234" y="1516" width="68" height="2" fill="#FFFFFF" opacity="0.424" /><rect x="2267" y="1483" width="2" height="68" fill="#FFFFFF" opacity="0.424" /><rect x="2084" y="787" width="78" height="2" fill="#FFFFFF" opacity="0.780" /><rect x="2122" y="749" width="2" height="78" fill="#FFFFFF" opacity="0.780" /><rect x="1175" y="1114" width="66" height="2" fill="#FFFFFF" opacity="0.722" /><rect x="1207" y="1082" width="2" height="66" fill="#FFFFFF" opacity="0.722" /><rect x="394" y="2057" width="74" height="2" fill="#FFFFFF" opacity="0.595" /><rect x="430" y="2021" width="2" height="74" fill="#FFFFFF" opacity="0.595" /><rect x="2306" y="657" width="30" height="2" fill="#FFFFFF" opacity="0.822" /><rect x="2320" y="643" width="2" height="30" fill="#FFFFFF" opacity="0.822" /><rect x="1568" y="570" width="40" height="2" fill="#FFFFFF" opacity="0.823" /><rect x="1587" y="551" width="2" height="40" fill="#FFFFFF" opacity="0.823" /><rect x="1712" y="1000" width="62" height="2" fill="#FFFFFF" opacity="0.608" /><rect x="1742" y="970" width="2" height="62" fill="#FFFFFF" opacity="0.608" /><rect x="800" y="904" width="42" height="2" fill="#FFFFFF" opacity="0.749" /><rect x="820" y="884" width="2" height="42" fill="#FFFFFF" opacity="0.749" /><rect x="707" y="1643" width="26" height="2" fill="#FFFFFF" opacity="0.451" /><rect x="719" y="1631" width="2" height="26" fill="#FFFFFF" opacity="0.451" /><rect x="2074" y="2003" width="64" height="2" fill="#FFFFFF" opacity="0.688" /><rect x="2105" y="1972" width="2" height="64" fill="#FFFFFF" opacity="0.688" /><rect x="296" y="2763" width="78" height="2" fill="#FFFFFF" opacity="0.837" /><rect x="334" y="2725" width="2" height="78" fill="#FFFFFF" opacity="0.837" /><rect x="988" y="867" width="64" height="2" fill="#FFFFFF" opacity="0.471" /><rect x="1019" y="836" width="2" height="64" fill="#FFFFFF" opacity="0.471" /><rect x="1411" y="1738" width="58" height="2" fill="#FFFFFF" opacity="0.513" /><rect x="1439" y="1710" width="2" height="58" fill="#FFFFFF" opacity="0.513" /><rect x="442" y="799" width="84" height="2" fill="#FFFFFF" opacity="0.833" /><rect x="483" y="758" width="2" height="84" fill="#FFFFFF" opacity="0.833" /><rect x="2186" y="1792" width="66" height="2" fill="#FFFFFF" opacity="0.311" /><rect x="2218" y="1760" width="2" height="66" fill="#FFFFFF" opacity="0.311" /><rect x="1448" y="1553" width="62" height="2" fill="#FFFFFF" opacity="0.589" /><rect x="1478" y="1523" width="2" height="62" fill="#FFFFFF" opacity="0.589" /><rect x="915" y="2531" width="56" height="2" fill="#FFFFFF" opacity="0.542" /><rect x="942" y="2504" width="2" height="56" fill="#FFFFFF" opacity="0.542" /><rect x="1448" y="1600" width="68" height="2" fill="#FFFFFF" opacity="0.575" /><rect x="1481" y="1567" width="2" height="68" fill="#FFFFFF" opacity="0.575" /><rect x="1382" y="2605" width="66" height="2" fill="#FFFFFF" opacity="0.756" /><rect x="1414" y="2573" width="2" height="66" fill="#FFFFFF" opacity="0.756" /><rect x="566" y="2443" width="74" height="2" fill="#FFFFFF" opacity="0.605" /><rect x="602" y="2407" width="2" height="74" fill="#FFFFFF" opacity="0.605" /><rect x="905" y="1900" width="40" height="2" fill="#FFFFFF" opacity="0.782" /><rect x="924" y="1881" width="2" height="40" fill="#FFFFFF" opacity="0.782" /><rect x="310" y="2386" width="58" height="2" fill="#FFFFFF" opacity="0.464" /><rect x="338" y="2358" width="2" height="58" fill="#FFFFFF" opacity="0.464" /><rect x="1003" y="734" width="74" height="2" fill="#FFFFFF" opacity="0.837" /><rect x="1039" y="698" width="2" height="74" fill="#FFFFFF" opacity="0.837" /><rect x="2448" y="2419" width="40" height="2" fill="#FFFFFF" opacity="0.510" /><rect x="2467" y="2400" width="2" height="40" fill="#FFFFFF" opacity="0.510" /><rect x="883" y="1104" width="76" height="2" fill="#FFFFFF" opacity="0.704" /><rect x="920" y="1067" width="2" height="76" fill="#FFFFFF" opacity="0.704" /><rect x="523" y="1564" width="74" height="2" fill="#FFFFFF" opacity="0.804" /><rect x="559" y="1528" width="2" height="74" fill="#FFFFFF" opacity="0.804" /></g>
  <g opacity="0.52"><rect x="1060" y="1070" width="219" height="1024" fill="#0C2030" /><rect x="1316" y="1326" width="219" height="768" fill="#0C2030" /><rect x="1572" y="1198" width="219" height="921" fill="#0C2030" /><rect x="1828" y="1033" width="219" height="1152" fill="#0C2030" /></g>
  <g filter="url(#soft243)"><rect x="1024" y="1024" width="219" height="1024" fill="url(#symbol243)" /><rect x="1280" y="1280" width="219" height="768" fill="url(#symbol243)" /><rect x="1536" y="1152" width="219" height="921" fill="url(#symbol243)" /><rect x="1792" y="987" width="219" height="1152" fill="url(#symbol243)" /></g>
  <rect x="138" y="138" width="2796" height="2796" rx="629" fill="#FFFFFF" filter="url(#grain243)" opacity="0.18" />
</svg>
