<svg xmlns="http://www.w3.org/2000/svg" width="3072" height="3072" viewBox="0 0 3072 3072">
  <title>QuartzOS App Icon 084 - swift_mail_084</title>
  <defs><linearGradient id="bg83" x1="0%" y1="0%" x2="100%" y2="100%"><stop offset="0%" stop-color="#53E3A6" /><stop offset="26%" stop-color="#3B82FF" /><stop offset="56%" stop-color="#FF6AB3" /><stop offset="78%" stop-color="#4BA7D0" /><stop offset="100%" stop-color="#122A3D" /></linearGradient><radialGradient id="sun83" cx="30%" cy="20%" r="88%"><stop offset="0%" stop-color="#FFFFFF" stop-opacity="0.62" /><stop offset="30%" stop-color="#FF9F43" stop-opacity="0.35" /><stop offset="100%" stop-color="#FF9F43" stop-opacity="0" /></radialGradient><linearGradient id="glass83" x1="0%" y1="0%" x2="0%" y2="100%"><stop offset="0%" stop-color="#FFFFFF" stop-opacity="0.70" /><stop offset="46%" stop-color="#FFFFFF" stop-opacity="0.26" /><stop offset="100%" stop-color="#FFFFFF" stop-opacity="0.00" /></linearGradient><linearGradient id="ribbon83" x1="0%" y1="0%" x2="100%" y2="0%"><stop offset="0%" stop-color="#53E3A6" stop-opacity="0.18" /><stop offset="34%" stop-color="#3B82FF" stop-opacity="0.72" /><stop offset="66%" stop-color="#FF6AB3" stop-opacity="0.72" /><stop offset="100%" stop-color="#FF9F43" stop-opacity="0.18" /></linearGradient><radialGradient id="orb83" cx="34%" cy="27%" r="74%"><stop offset="0%" stop-color="#FFFFFF" stop-opacity="0.84" /><stop offset="30%" stop-color="#53E3A6" stop-opacity="0.52" /><stop offset="68%" stop-color="#3B82FF" stop-opacity="0.42" /><stop offset="100%" stop-color="#FF6AB3" stop-opacity="0.20" /></radialGradient><linearGradient id="extrude83" x1="0%" y1="0%" x2="0%" y2="100%"><stop offset="0%" stop-color="#15283C" stop-opacity="0.45" /><stop offset="100%" stop-color="#08131D" stop-opacity="0.06" /></linearGradient><linearGradient id="symbol83" x1="0%" y1="0%" x2="100%" y2="100%"><stop offset="0%" stop-color="#FFFFFF" /><stop offset="100%" stop-color="#FF9F43" /></linearGradient><filter id="shadow83" x="-40%" y="-40%" width="180%" height="180%"><feDropShadow dx="0" dy="49" stdDeviation="86" flood-color="#06111A" flood-opacity="0.54" /></filter><filter id="soft83" x="-40%" y="-40%" width="180%" height="180%"><feDropShadow dx="0" dy="0" stdDeviation="14" flood-color="#53E3A6" flood-opacity="0.45" /></filter><filter id="grain83"><feTurbulence type="fractalNoise" baseFrequency="0.988" numOctaves="2" seed="83" /><feColorMatrix type="saturate" values="0" /><feComponentTransfer><feFuncA type="table" tableValues="0 0.09" /></feComponentTransfer></filter></defs>
  <rect x="138" y="138" width="2796" height="2796" rx="629" fill="url(#bg83)" filter="url(#shadow83)" />
  <rect x="138" y="138" width="2796" height="2796" rx="629" fill="url(#sun83)" />
  <g><circle cx="815" cy="1484" r="125" fill="#FFFFFF" opacity="0.187" /><circle cx="762" cy="2235" r="104" fill="#FFFFFF" opacity="0.116" /><circle cx="2089" cy="1255" r="113" fill="#FFFFFF" opacity="0.081" /><circle cx="1250" cy="1431" r="127" fill="#FFFFFF" opacity="0.147" /><circle cx="1445" cy="1413" r="85" fill="#FFFFFF" opacity="0.156" /><circle cx="1126" cy="323" r="156" fill="#FFFFFF" opacity="0.125" /><circle cx="2485" cy="1912" r="80" fill="#FFFFFF" opacity="0.070" /><circle cx="1001" cy="2050" r="117" fill="#FFFFFF" opacity="0.160" /><circle cx="1765" cy="1506" r="118" fill="#FFFFFF" opacity="0.119" /><circle cx="1457" cy="323" r="145" fill="#FFFFFF" opacity="0.139" /><circle cx="1555" cy="2591" r="107" fill="#FFFFFF" opacity="0.148" /><circle cx="2159" cy="1100" r="42" fill="#FFFFFF" opacity="0.132" /><circle cx="1138" cy="608" r="156" fill="#FFFFFF" opacity="0.096" /><circle cx="529" cy="2494" r="133" fill="#FFFFFF" opacity="0.084" /><circle cx="1689" cy="1158" r="59" fill="#FFFFFF" opacity="0.200" /><circle cx="1653" cy="2371" r="72" fill="#FFFFFF" opacity="0.070" /><circle cx="1368" cy="2528" r="61" fill="#FFFFFF" opacity="0.114" /><circle cx="2071" cy="2514" r="135" fill="#FFFFFF" opacity="0.187" /><circle cx="1658" cy="1115" r="51" fill="#FFFFFF" opacity="0.217" /><circle cx="1147" cy="2149" r="107" fill="#FFFFFF" opacity="0.110" /><circle cx="1586" cy="613" r="155" fill="#FFFFFF" opacity="0.219" /><circle cx="2657" cy="2406" r="38" fill="#FFFFFF" opacity="0.090" /><circle cx="846" cy="967" r="129" fill="#FFFFFF" opacity="0.125" /><circle cx="1936" cy="2542" r="60" fill="#FFFFFF" opacity="0.170" /><circle cx="2486" cy="662" r="152" fill="#FFFFFF" opacity="0.129" /><circle cx="602" cy="2306" r="125" fill="#FFFFFF" opacity="0.124" /><circle cx="1148" cy="364" r="53" fill="#FFFFFF" opacity="0.157" /><circle cx="2167" cy="854" r="139" fill="#FFFFFF" opacity="0.138" /></g>
  <g><path d="M 188.2 601.9 L 2715.6 325.4 L 2715.6 780.6 L 188.2 1057.0 Z" fill="#FFFFFF" opacity="0.228" /><path d="M 353.7 887.3 L 2917.6 610.8 L 2917.6 1079.7 L 353.7 1356.1 Z" fill="#FFFFFF" opacity="0.156" /><path d="M 260.5 1122.5 L 2753.9 846.1 L 2753.9 1270.5 L 260.5 1547.0 Z" fill="#FFFFFF" opacity="0.226" /><path d="M 384.2 1356.0 L 2847.2 1079.5 L 2847.2 1521.9 L 384.2 1798.4 Z" fill="#FFFFFF" opacity="0.097" /><path d="M 251.2 1674.9 L 2710.7 1398.5 L 2710.7 1868.8 L 251.2 2145.3 Z" fill="#FFFFFF" opacity="0.163" /><path d="M 346.0 1885.8 L 2684.5 1609.3 L 2684.5 2045.0 L 346.0 2321.5 Z" fill="#FFFFFF" opacity="0.087" /><path d="M 320.6 2216.1 L 2897.5 1939.6 L 2897.5 2364.0 L 320.6 2640.5 Z" fill="#FFFFFF" opacity="0.098" /><path d="M 327.6 2453.9 L 2750.3 2177.4 L 2750.3 2639.3 L 327.6 2915.8 Z" fill="#FFFFFF" opacity="0.090" /></g>
  <g filter="url(#soft83)"><g transform="rotate(-6.21 1536.0 1536.0)"><path d="M-368.6 539.8 C -225.8 502.4, -25.8 561.7, 107.5 486.5 C 250.4 493.1, 450.4 581.9, 583.7 492.3 C 726.5 484.4, 926.5 564.1, 1059.8 526.9 C 1202.7 530.1, 1402.7 550.3, 1536.0 569.4 C 1678.8 575.9, 1878.8 517.7, 2012.2 594.0 C 2155.0 605.0, 2355.0 495.3, 2488.3 585.7 C 2631.2 600.3, 2831.2 485.5, 2964.5 549.6 C 3107.3 548.9, 3307.3 531.0, 3440.6 507.6" fill="none" stroke="url(#ribbon83)" stroke-width="58.4" stroke-linecap="round" stroke-opacity="0.120" /></g><g transform="rotate(-5.63 1536.0 1536.0)"><path d="M-368.6 669.8 C -241.7 727.5, -63.9 632.2, 54.6 699.5 C 181.6 698.1, 359.4 638.7, 477.9 651.2 C 604.8 646.0, 782.6 680.2, 901.1 614.1 C 1028.1 601.4, 1205.9 695.2, 1324.4 610.8 C 1451.3 616.7, 1629.1 714.0, 1747.6 643.3 C 1874.6 632.9, 2052.4 682.0, 2170.9 691.8 C 2297.9 684.9, 2475.6 655.4, 2594.1 727.0 C 2721.1 711.2, 2898.9 650.1, 3017.4 727.5 C 3144.4 734.0, 3322.1 612.1, 3440.6 693.0" fill="none" stroke="url(#ribbon83)" stroke-width="54.4" stroke-linecap="round" stroke-opacity="0.146" /></g><g transform="rotate(-5.05 1536.0 1536.0)"><path d="M-368.6 903.0 C -254.4 923.5, -94.4 881.5, 12.3 965.1 C 126.6 962.4, 286.6 852.0, 393.2 968.5 C 507.5 957.4, 667.5 840.5, 774.1 932.2 C 888.4 929.2, 1048.4 873.3, 1155.1 878.2 C 1269.4 882.9, 1429.3 923.8, 1536.0 839.2 C 1650.3 818.0, 1810.3 923.9, 1916.9 838.9 C 2031.2 835.7, 2191.2 951.6, 2297.9 877.4 C 2412.1 877.4, 2572.1 924.9, 2678.8 931.5 C 2793.1 933.8, 2953.1 871.0, 3059.7 968.3 C 3174.0 949.7, 3334.0 826.1, 3440.6 965.4" fill="none" stroke="url(#ribbon83)" stroke-width="50.4" stroke-linecap="round" stroke-opacity="0.172" /></g><g transform="rotate(-4.47 1536.0 1536.0)"><path d="M-368.6 1138.2 C -264.8 1181.6, -119.3 1080.1, -22.3 1214.6 C 81.5 1234.7, 227.0 1111.1, 324.0 1193.5 C 427.8 1188.2, 573.3 1083.3, 670.3 1138.8 C 774.1 1139.0, 919.6 1137.4, 1016.6 1083.8 C 1120.4 1077.5, 1265.9 1176.5, 1362.9 1061.7 C 1466.7 1063.6, 1612.2 1225.6, 1709.1 1086.0 C 1813.0 1067.2, 1958.5 1194.4, 2055.4 1141.9 C 2159.3 1143.1, 2304.8 1136.0, 2401.7 1195.6 C 2505.6 1190.8, 2651.1 1108.8, 2748.0 1214.4 C 2851.9 1228.3, 2997.4 1063.6, 3094.3 1187.0 C 3198.2 1195.7, 3343.7 1082.1, 3440.6 1129.9" fill="none" stroke="url(#ribbon83)" stroke-width="46.4" stroke-linecap="round" stroke-opacity="0.198" /></g><g transform="rotate(-3.89 1536.0 1536.0)"><path d="M-368.6 1282.4 C -273.4 1329.2, -140.1 1244.2, -51.2 1366.0 C 44.0 1371.5, 177.4 1251.8, 266.2 1341.6 C 361.5 1349.2, 494.8 1221.1, 583.7 1281.4 C 678.9 1281.1, 812.2 1283.6, 901.1 1221.8 C 996.4 1217.3, 1129.7 1342.6, 1218.6 1199.0 C 1313.8 1204.1, 1447.1 1320.6, 1536.0 1226.8 C 1631.2 1231.7, 1764.6 1309.4, 1853.4 1288.4 C 1948.7 1288.3, 2082.0 1277.0, 2170.9 1346.4 C 2266.1 1330.1, 2399.4 1253.1, 2488.3 1365.6 C 2583.6 1349.5, 2716.9 1205.1, 2805.8 1334.4 C 2901.0 1350.1, 3034.3 1254.3, 3123.2 1271.6 C 3218.4 1269.5, 3351.8 1286.2, 3440.6 1215.5" fill="none" stroke="url(#ribbon83)" stroke-width="42.4" stroke-linecap="round" stroke-opacity="0.224" /></g><g transform="rotate(-3.31 1536.0 1536.0)"><path d="M-368.6 1465.4 C -225.8 1377.7, -25.8 1544.4, 107.5 1415.8 C 250.4 1429.8, 450.4 1524.3, 583.7 1485.3 C 726.5 1490.4, 926.5 1449.2, 1059.8 1542.7 C 1202.7 1551.8, 1402.7 1440.0, 1536.0 1553.3 C 1678.8 1532.4, 1878.8 1385.6, 2012.2 1510.6 C 2155.0 1494.7, 2355.0 1438.2, 2488.3 1440.5 C 2631.2 1447.3, 2831.2 1483.6, 2964.5 1385.6 C 3107.3 1390.4, 3307.3 1527.7, 3440.6 1379.1" fill="none" stroke="url(#ribbon83)" stroke-width="38.4" stroke-linecap="round" stroke-opacity="0.250" /></g><g transform="rotate(-2.73 1536.0 1536.0)"><path d="M-368.6 1638.9 C -241.7 1577.7, -63.9 1686.7, 54.6 1544.5 C 181.6 1557.5, 359.4 1720.7, 477.9 1591.2 C 604.8 1592.5, 782.6 1682.3, 901.1 1666.9 C 1028.1 1657.1, 1205.9 1613.7, 1324.4 1725.5 C 1451.3 1731.9, 1629.1 1562.5, 1747.6 1731.7 C 1874.6 1734.4, 2052.4 1534.3, 2170.9 1681.5 C 2297.9 1679.2, 2475.6 1621.7, 2594.1 1605.5 C 2721.1 1596.3, 2898.9 1653.1, 3017.4 1549.8 C 3144.4 1581.8, 3322.1 1711.6, 3440.6 1548.1" fill="none" stroke="url(#ribbon83)" stroke-width="34.4" stroke-linecap="round" stroke-opacity="0.276" /></g><g transform="rotate(-2.15 1536.0 1536.0)"><path d="M-368.6 1897.3 C -254.4 1842.1, -94.4 1926.6, 12.3 1878.2 C 126.6 1885.8, 286.6 1910.9, 393.2 1957.9 C 507.5 1974.3, 667.5 1872.4, 774.1 2000.8 C 888.4 2032.2, 1048.4 1822.5, 1155.1 1981.0 C 1269.4 1975.1, 1429.3 1852.9, 1536.0 1910.4 C 1650.3 1914.1, 1810.3 1884.2, 1916.9 1831.8 C 2031.2 1808.4, 2191.2 1942.9, 2297.9 1793.0 C 2412.1 1767.5, 2572.1 1994.0, 2678.8 1817.5 C 2793.1 1822.5, 2953.1 1928.2, 3059.7 1890.3 C 3174.0 1891.7, 3334.0 1900.9, 3440.6 1967.4" fill="none" stroke="url(#ribbon83)" stroke-width="30.4" stroke-linecap="round" stroke-opacity="0.302" /></g><g transform="rotate(-1.57 1536.0 1536.0)"><path d="M-368.6 2035.7 C -264.8 1952.6, -119.3 2142.4, -22.3 1997.7 C 81.5 2008.4, 227.0 2051.6, 324.0 2084.6 C 427.8 2095.7, 573.3 2004.2, 670.3 2141.9 C 774.1 2147.3, 919.6 1949.5, 1016.6 2134.8 C 1120.4 2142.0, 1265.9 1965.6, 1362.9 2067.6 C 1466.7 2064.6, 1612.2 2006.7, 1709.1 1981.0 C 1813.0 1973.7, 1958.5 2100.1, 2055.4 1927.7 C 2159.3 1949.1, 2304.8 2137.6, 2401.7 1939.8 C 2505.6 1944.0, 2651.1 2120.1, 2748.0 2010.2 C 2851.9 2016.9, 2997.4 2047.4, 3094.3 2096.0 C 3198.2 2077.9, 3343.7 2011.3, 3440.6 2145.3" fill="none" stroke="url(#ribbon83)" stroke-width="26.4" stroke-linecap="round" stroke-opacity="0.328" /></g><g transform="rotate(-0.99 1536.0 1536.0)"><path d="M-368.6 2233.7 C -273.4 2254.4, -140.1 2215.7, -51.2 2167.7 C 44.0 2168.8, 177.4 2270.6, 266.2 2116.8 C 361.5 2133.8, 494.8 2337.0, 583.7 2136.9 C 678.9 2125.8, 812.2 2310.3, 901.1 2215.7 C 996.4 2217.8, 1129.7 2252.4, 1218.6 2305.5 C 1313.8 2324.5, 1447.1 2153.7, 1536.0 2351.7 C 1631.2 2388.2, 1764.6 2105.2, 1853.4 2326.4 C 1948.7 2295.0, 2082.0 2181.5, 2170.9 2244.9 C 2266.1 2241.9, 2399.4 2225.1, 2488.3 2156.6 C 2583.6 2180.6, 2716.9 2319.6, 2805.8 2115.1 C 2901.0 2160.7, 3034.3 2335.9, 3123.2 2145.6 C 3218.4 2158.0, 3351.8 2308.1, 3440.6 2229.5" fill="none" stroke="url(#ribbon83)" stroke-width="22.4" stroke-linecap="round" stroke-opacity="0.354" /></g><g transform="rotate(-0.41 1536.0 1536.0)"><path d="M-368.6 2484.1 C -225.8 2384.4, -25.8 2593.0, 107.5 2443.3 C 250.4 2456.3, 450.4 2517.4, 583.7 2541.1 C 726.5 2557.5, 926.5 2432.4, 1059.8 2604.4 C 1202.7 2561.3, 1402.7 2436.7, 1536.0 2594.7 C 1678.8 2602.5, 1878.8 2370.9, 2012.2 2517.9 C 2155.0 2529.0, 2355.0 2445.4, 2488.3 2420.6 C 2631.2 2419.2, 2831.2 2534.7, 2964.5 2361.8 C 3107.3 2353.0, 3307.3 2630.8, 3440.6 2377.2" fill="none" stroke="url(#ribbon83)" stroke-width="18.4" stroke-linecap="round" stroke-opacity="0.380" /></g><g transform="rotate(0.17 1536.0 1536.0)"><path d="M-368.6 2696.7 C -241.7 2574.1, -63.9 2790.1, 54.6 2599.9 C 181.6 2618.9, 359.4 2770.4, 477.9 2694.7 C 604.8 2694.2, 782.6 2698.6, 901.1 2790.7 C 1028.1 2767.3, 1205.9 2637.1, 1324.4 2829.7 C 1451.3 2778.6, 1629.1 2582.2, 1747.6 2787.9 C 1874.6 2813.0, 2052.4 2649.7, 2170.9 2690.8 C 2297.9 2688.8, 2475.6 2703.1, 2594.1 2597.3 C 2721.1 2591.5, 2898.9 2777.0, 3017.4 2564.0 C 3144.4 2553.7, 3322.1 2783.2, 3440.6 2611.2" fill="none" stroke="url(#ribbon83)" stroke-width="14.4" stroke-linecap="round" stroke-opacity="0.406" /></g></g>
  <g><ellipse cx="1536.0" cy="1551.9" rx="728.6" ry="605.7" fill="url(#extrude83)" opacity="0.220" /><ellipse cx="1536.0" cy="1567.7" rx="736.0" ry="610.9" fill="url(#extrude83)" opacity="0.205" /><ellipse cx="1536.0" cy="1583.6" rx="743.4" ry="616.1" fill="url(#extrude83)" opacity="0.190" /><ellipse cx="1536.0" cy="1599.5" rx="750.9" ry="621.3" fill="url(#extrude83)" opacity="0.175" /><ellipse cx="1536.0" cy="1615.4" rx="758.3" ry="626.5" fill="url(#extrude83)" opacity="0.160" /><ellipse cx="1536.0" cy="1631.2" rx="765.7" ry="631.7" fill="url(#extrude83)" opacity="0.145" /><ellipse cx="1536.0" cy="1647.1" rx="773.2" ry="636.9" fill="url(#extrude83)" opacity="0.130" /><ellipse cx="1536.0" cy="1663.0" rx="780.6" ry="642.1" fill="url(#extrude83)" opacity="0.115" /><ellipse cx="1536.0" cy="1678.8" rx="788.0" ry="647.4" fill="url(#extrude83)" opacity="0.100" /><ellipse cx="1536.0" cy="1694.7" rx="795.5" ry="652.6" fill="url(#extrude83)" opacity="0.085" /><ellipse cx="1536.0" cy="1710.6" rx="802.9" ry="657.8" fill="url(#extrude83)" opacity="0.070" /><ellipse cx="1536.0" cy="1726.5" rx="810.3" ry="663.0" fill="url(#extrude83)" opacity="0.055" /></g>
  <ellipse cx="1536.0" cy="1726.5" rx="773.2" ry="214.9" fill="#0B1D2D" opacity="0.24" />
  <ellipse cx="1536.0" cy="1536.0" rx="743.4" ry="651.3" fill="url(#orb83)" stroke="#FFFFFF" stroke-opacity="0.42" stroke-width="7" />
  <ellipse cx="1431.9" cy="1392.7" rx="505.5" ry="299.6" fill="#FFFFFF" opacity="0.25" />
  <path d="M 199.4 399.4 C 1013.8 -30.7, 2058.2 768.0, 2872.6 215.0 L 2872.6 983.0 C 2089.0 1228.8, 1013.8 307.2, 199.4 1167.4 Z" fill="url(#glass83)" />
  <rect x="270" y="270" width="2532" height="2532" rx="430" fill="none" stroke="#FFFFFF" stroke-opacity="0.30" stroke-width="5" />
  <rect x="288.4" y="288.4" width="2495.1" height="2495.1" rx="399" fill="none" stroke="#53E3A6" stroke-opacity="0.35" stroke-width="3" />
  <g filter="url(#soft83)"><rect x="2324" y="2281" width="38" height="2" fill="#FFFFFF" opacity="0.482" /><rect x="2342" y="2263" width="2" height="38" fill="#FFFFFF" opacity="0.482" /><rect x="824" y="2522" width="74" height="2" fill="#FFFFFF" opacity="0.301" /><rect x="860" y="2486" width="2" height="74" fill="#FFFFFF" opacity="0.301" /><rect x="1019" y="1529" width="34" height="2" fill="#FFFFFF" opacity="0.610" /><rect x="1035" y="1513" width="2" height="34" fill="#FFFFFF" opacity="0.610" /><rect x="1990" y="581" width="36" height="2" fill="#FFFFFF" opacity="0.437" /><rect x="2007" y="564" width="2" height="36" fill="#FFFFFF" opacity="0.437" /><rect x="347" y="1395" width="26" height="2" fill="#FFFFFF" opacity="0.518" /><rect x="359" y="1383" width="2" height="26" fill="#FFFFFF" opacity="0.518" /><rect x="495" y="1347" width="72" height="2" fill="#FFFFFF" opacity="0.311" /><rect x="530" y="1312" width="2" height="72" fill="#FFFFFF" opacity="0.311" /><rect x="1193" y="295" width="70" height="2" fill="#FFFFFF" opacity="0.772" /><rect x="1227" y="261" width="2" height="70" fill="#FFFFFF" opacity="0.772" /><rect x="1623" y="1576" width="28" height="2" fill="#FFFFFF" opacity="0.377" /><rect x="1636" y="1563" width="2" height="28" fill="#FFFFFF" opacity="0.377" /><rect x="1297" y="428" width="80" height="2" fill="#FFFFFF" opacity="0.554" /><rect x="1336" y="389" width="2" height="80" fill="#FFFFFF" opacity="0.554" /><rect x="1162" y="1624" width="82" height="2" fill="#FFFFFF" opacity="0.600" /><rect x="1202" y="1584" width="2" height="82" fill="#FFFFFF" opacity="0.600" /><rect x="576" y="362" width="66" height="2" fill="#FFFFFF" opacity="0.728" /><rect x="608" y="330" width="2" height="66" fill="#FFFFFF" opacity="0.728" /><rect x="1956" y="2203" width="76" height="2" fill="#FFFFFF" opacity="0.719" /><rect x="1993" y="2166" width="2" height="76" fill="#FFFFFF" opacity="0.719" /><rect x="1698" y="2259" width="80" height="2" fill="#FFFFFF" opacity="0.478" /><rect x="1737" y="2220" width="2" height="80" fill="#FFFFFF" opacity="0.478" /><rect x="2302" y="666" width="56" height="2" fill="#FFFFFF" opacity="0.679" /><rect x="2329" y="639" width="2" height="56" fill="#FFFFFF" opacity="0.679" /><rect x="821" y="1002" width="34" height="2" fill="#FFFFFF" opacity="0.717" /><rect x="837" y="986" width="2" height="34" fill="#FFFFFF" opacity="0.717" /><rect x="2518" y="1935" width="62" height="2" fill="#FFFFFF" opacity="0.691" /><rect x="2548" y="1905" width="2" height="62" fill="#FFFFFF" opacity="0.691" /><rect x="889" y="549" width="24" height="2" fill="#FFFFFF" opacity="0.512" /><rect x="900" y="538" width="2" height="24" fill="#FFFFFF" opacity="0.512" /><rect x="1527" y="1248" width="48" height="2" fill="#FFFFFF" opacity="0.361" /><rect x="1550" y="1225" width="2" height="48" fill="#FFFFFF" opacity="0.361" /><rect x="2737" y="2112" width="30" height="2" fill="#FFFFFF" opacity="0.844" /><rect x="2751" y="2098" width="2" height="30" fill="#FFFFFF" opacity="0.844" /><rect x="1020" y="1696" width="50" height="2" fill="#FFFFFF" opacity="0.736" /><rect x="1044" y="1672" width="2" height="50" fill="#FFFFFF" opacity="0.736" /><rect x="1165" y="1939" width="64" height="2" fill="#FFFFFF" opacity="0.826" /><rect x="1196" y="1908" width="2" height="64" fill="#FFFFFF" opacity="0.826" /><rect x="2382" y="1062" width="64" height="2" fill="#FFFFFF" opacity="0.484" /><rect x="2413" y="1031" width="2" height="64" fill="#FFFFFF" opacity="0.484" /><rect x="1449" y="1218" width="62" height="2" fill="#FFFFFF" opacity="0.702" /><rect x="1479" y="1188" width="2" height="62" fill="#FFFFFF" opacity="0.702" /><rect x="1166" y="864" width="82" height="2" fill="#FFFFFF" opacity="0.482" /><rect x="1206" y="824" width="2" height="82" fill="#FFFFFF" opacity="0.482" /><rect x="608" y="392" width="46" height="2" fill="#FFFFFF" opacity="0.614" /><rect x="630" y="370" width="2" height="46" fill="#FFFFFF" opacity="0.614" /><rect x="1916" y="2319" width="44" height="2" fill="#FFFFFF" opacity="0.336" /><rect x="1937" y="2298" width="2" height="44" fill="#FFFFFF" opacity="0.336" /></g>
  <g opacity="0.52"><path d="M996 1006 L2148 1006 L2148 2158 L996 2158 Z" fill="none" stroke="#0C2030" stroke-width="90" /><path d="M996 1582 L2148 1582" stroke="#0C2030" stroke-width="90" /><path d="M1572 1006 L1572 2158" stroke="#0C2030" stroke-width="90" /></g>
  <g filter="url(#soft83)"><path d="M960 960 L2112 960 L2112 2112 L960 2112 Z" fill="none" stroke="url(#symbol83)" stroke-width="90" /><path d="M960 1536 L2112 1536" stroke="url(#symbol83)" stroke-width="90" /><path d="M1536 960 L1536 2112" stroke="url(#symbol83)" stroke-width="90" /></g>
  <rect x="138" y="138" width="2796" height="2796" rx="629" fill="#FFFFFF" filter="url(#grain83)" opacity="0.18" />
</svg>
