<svg xmlns="http://www.w3.org/2000/svg" width="3072" height="3072" viewBox="0 0 3072 3072">
  <title>QuartzOS App Icon 064 - swift_player_064</title>
  <defs><linearGradient id="bg63" x1="0%" y1="0%" x2="100%" y2="100%"><stop offset="0%" stop-color="#36D1FF" /><stop offset="26%" stop-color="#8A5CFF" /><stop offset="56%" stop-color="#FF9F43" /><stop offset="78%" stop-color="#6C7CC5" /><stop offset="100%" stop-color="#1E2032" /></linearGradient><radialGradient id="sun63" cx="28%" cy="17%" r="88%"><stop offset="0%" stop-color="#FFFFFF" stop-opacity="0.62" /><stop offset="30%" stop-color="#FFD84D" stop-opacity="0.35" /><stop offset="100%" stop-color="#FFD84D" stop-opacity="0" /></radialGradient><linearGradient id="glass63" x1="0%" y1="0%" x2="0%" y2="100%"><stop offset="0%" stop-color="#FFFFFF" stop-opacity="0.70" /><stop offset="46%" stop-color="#FFFFFF" stop-opacity="0.26" /><stop offset="100%" stop-color="#FFFFFF" stop-opacity="0.00" /></linearGradient><linearGradient id="ribbon63" x1="0%" y1="0%" x2="100%" y2="0%"><stop offset="0%" stop-color="#36D1FF" stop-opacity="0.18" /><stop offset="34%" stop-color="#8A5CFF" stop-opacity="0.72" /><stop offset="66%" stop-color="#FF9F43" stop-opacity="0.72" /><stop offset="100%" stop-color="#FFD84D" stop-opacity="0.18" /></linearGradient><radialGradient id="orb63" cx="34%" cy="27%" r="74%"><stop offset="0%" stop-color="#FFFFFF" stop-opacity="0.84" /><stop offset="30%" stop-color="#36D1FF" stop-opacity="0.52" /><stop offset="68%" stop-color="#8A5CFF" stop-opacity="0.42" /><stop offset="100%" stop-color="#FF9F43" stop-opacity="0.20" /></radialGradient><linearGradient id="extrude63" x1="0%" y1="0%" x2="0%" y2="100%"><stop offset="0%" stop-color="#15283C" stop-opacity="0.45" /><stop offset="100%" stop-color="#08131D" stop-opacity="0.06" /></linearGradient><linearGradient id="symbol63" x1="0%" y1="0%" x2="100%" y2="100%"><stop offset="0%" stop-color="#FFFFFF" /><stop offset="100%" stop-color="#FFD84D" /></linearGradient><filter id="shadow63" x="-40%" y="-40%" width="180%" height="180%"><feDropShadow dx="0" dy="49" stdDeviation="86" flood-color="#06111A" flood-opacity="0.54" /></filter><filter id="soft63" x="-40%" y="-40%" width="180%" height="180%"><feDropShadow dx="0" dy="0" stdDeviation="14" flood-color="#36D1FF" flood-opacity="0.45" /></filter><filter id="grain63"><feTurbulence type="fractalNoise" baseFrequency="0.771" numOctaves="2" seed="63" /><feColorMatrix type="saturate" values="0" /><feComponentTransfer><feFuncA type="table" tableValues="0 0.09" /></feComponentTransfer></filter></defs>
  <rect x="138" y="138" width="2796" height="2796" rx="629" fill="url(#bg63)" filter="url(#shadow63)" />
  <rect x="138" y="138" width="2796" height="2796" rx="629" fill="url(#sun63)" />
  <g><circle cx="1512" cy="2330" r="153" fill="#FFFFFF" opacity="0.169" /><circle cx="1661" cy="2543" r="135" fill="#FFFFFF" opacity="0.229" /><circle cx="966" cy="2007" r="91" fill="#FFFFFF" opacity="0.111" /><circle cx="2162" cy="675" r="63" fill="#FFFFFF" opacity="0.172" /><circle cx="2197" cy="1153" r="50" fill="#FFFFFF" opacity="0.152" /><circle cx="727" cy="946" r="133" fill="#FFFFFF" opacity="0.137" /><circle cx="833" cy="1947" r="113" fill="#FFFFFF" opacity="0.113" /><circle cx="2140" cy="1256" r="39" fill="#FFFFFF" opacity="0.207" /><circle cx="1123" cy="2327" r="93" fill="#FFFFFF" opacity="0.147" /><circle cx="2270" cy="2119" r="150" fill="#FFFFFF" opacity="0.147" /><circle cx="2356" cy="1649" r="118" fill="#FFFFFF" opacity="0.202" /><circle cx="1704" cy="1611" r="114" fill="#FFFFFF" opacity="0.090" /><circle cx="1179" cy="502" r="135" fill="#FFFFFF" opacity="0.227" /><circle cx="2596" cy="1255" r="77" fill="#FFFFFF" opacity="0.165" /><circle cx="486" cy="1877" r="75" fill="#FFFFFF" opacity="0.208" /><circle cx="405" cy="1268" r="93" fill="#FFFFFF" opacity="0.129" /><circle cx="1526" cy="1695" r="51" fill="#FFFFFF" opacity="0.209" /><circle cx="888" cy="1955" r="70" fill="#FFFFFF" opacity="0.095" /><circle cx="2572" cy="2255" r="110" fill="#FFFFFF" opacity="0.074" /><circle cx="1618" cy="1649" r="120" fill="#FFFFFF" opacity="0.185" /><circle cx="1829" cy="670" r="140" fill="#FFFFFF" opacity="0.210" /><circle cx="1100" cy="802" r="88" fill="#FFFFFF" opacity="0.207" /><circle cx="2237" cy="2614" r="62" fill="#FFFFFF" opacity="0.228" /><circle cx="428" cy="2622" r="102" fill="#FFFFFF" opacity="0.224" /><circle cx="1821" cy="1466" r="62" fill="#FFFFFF" opacity="0.116" /><circle cx="2182" cy="690" r="58" fill="#FFFFFF" opacity="0.073" /><circle cx="2292" cy="1946" r="128" fill="#FFFFFF" opacity="0.154" /><circle cx="1874" cy="1459" r="120" fill="#FFFFFF" opacity="0.145" /></g>
  <g><path d="M 316.6 587.7 L 2815.0 311.2 L 2815.0 761.7 L 316.6 1038.2 Z" fill="#FFFFFF" opacity="0.213" /><path d="M 151.3 917.2 L 2866.0 640.7 L 2866.0 1135.6 L 151.3 1412.1 Z" fill="#FFFFFF" opacity="0.203" /><path d="M 336.9 1098.3 L 2833.3 821.8 L 2833.3 1274.9 L 336.9 1551.4 Z" fill="#FFFFFF" opacity="0.157" /><path d="M 336.4 1401.3 L 2894.9 1124.9 L 2894.9 1591.2 L 336.4 1867.6 Z" fill="#FFFFFF" opacity="0.100" /><path d="M 330.4 1629.4 L 2868.2 1353.0 L 2868.2 1842.8 L 330.4 2119.3 Z" fill="#FFFFFF" opacity="0.198" /><path d="M 310.9 1945.8 L 2803.1 1669.3 L 2803.1 2094.6 L 310.9 2371.0 Z" fill="#FFFFFF" opacity="0.116" /><path d="M 153.2 2163.6 L 2715.0 1887.1 L 2715.0 2361.8 L 153.2 2638.3 Z" fill="#FFFFFF" opacity="0.214" /><path d="M 347.6 2429.1 L 2685.5 2152.6 L 2685.5 2645.5 L 347.6 2922.0 Z" fill="#FFFFFF" opacity="0.212" /></g>
  <g filter="url(#soft63)"><g transform="rotate(-23.67 1536.0 1536.0)"><path d="M-368.6 537.4 C -225.8 487.0, -25.8 592.9, 107.5 515.7 C 250.4 510.2, 450.4 561.0, 583.7 558.8 C 726.5 561.9, 926.5 522.0, 1059.8 588.9 C 1202.7 608.4, 1402.7 487.2, 1536.0 587.7 C 1678.8 607.0, 1878.8 484.2, 2012.2 556.0 C 2155.0 550.9, 2355.0 531.4, 2488.3 513.0 C 2631.2 518.6, 2831.2 563.9, 2964.5 484.8 C 3107.3 501.7, 3307.3 554.1, 3440.6 488.5" fill="none" stroke="url(#ribbon63)" stroke-width="58.4" stroke-linecap="round" stroke-opacity="0.120" /></g><g transform="rotate(-23.09 1536.0 1536.0)"><path d="M-368.6 706.9 C -241.7 761.9, -63.9 658.0, 54.6 743.5 C 181.6 733.1, 359.4 665.4, 477.9 696.2 C 604.8 699.4, 782.6 712.0, 901.1 655.4 C 1028.1 639.1, 1205.9 735.0, 1324.4 645.9 C 1451.3 623.2, 1629.1 770.3, 1747.6 673.4 C 1874.6 681.9, 2052.4 728.4, 2170.9 721.2 C 2297.9 720.9, 2475.6 698.5, 2594.1 760.5 C 2721.1 747.3, 2898.9 643.7, 3017.4 767.2 C 3144.4 778.3, 3322.1 654.7, 3440.6 737.4" fill="none" stroke="url(#ribbon63)" stroke-width="54.4" stroke-linecap="round" stroke-opacity="0.146" /></g><g transform="rotate(-22.51 1536.0 1536.0)"><path d="M-368.6 849.0 C -254.4 770.2, -94.4 903.2, 12.3 782.6 C 126.6 803.7, 286.6 920.6, 393.2 817.1 C 507.5 823.3, 667.5 879.8, 774.1 871.0 C 888.4 867.8, 1048.4 834.7, 1155.1 911.6 C 1269.4 887.9, 1429.3 800.1, 1536.0 914.2 C 1650.3 925.1, 1810.3 783.6, 1916.9 877.4 C 2031.2 868.0, 2191.2 822.4, 2297.9 823.3 C 2412.1 815.3, 2572.1 868.6, 2678.8 784.8 C 2793.1 773.0, 2953.1 906.0, 3059.7 785.3 C 3174.0 772.2, 3334.0 920.2, 3440.6 824.5" fill="none" stroke="url(#ribbon63)" stroke-width="50.4" stroke-linecap="round" stroke-opacity="0.172" /></g><g transform="rotate(-21.93 1536.0 1536.0)"><path d="M-368.6 1095.1 C -264.8 1156.1, -119.3 1060.9, -22.3 1171.5 C 81.5 1180.2, 227.0 1028.5, 324.0 1151.3 C 427.8 1133.7, 573.3 1056.7, 670.3 1097.0 C 774.1 1096.9, 919.6 1092.9, 1016.6 1041.5 C 1120.4 1042.9, 1265.9 1150.8, 1362.9 1018.6 C 1466.7 1014.2, 1612.2 1182.5, 1709.1 1042.1 C 1813.0 1053.4, 1958.5 1113.9, 2055.4 1097.7 C 2159.3 1096.7, 2304.8 1093.1, 2401.7 1151.8 C 2505.6 1141.8, 2651.1 1058.0, 2748.0 1171.4 C 2851.9 1161.9, 2997.4 1070.8, 3094.3 1144.8 C 3198.2 1155.8, 3343.7 1061.3, 3440.6 1088.0" fill="none" stroke="url(#ribbon63)" stroke-width="46.4" stroke-linecap="round" stroke-opacity="0.198" /></g><g transform="rotate(-21.35 1536.0 1536.0)"><path d="M-368.6 1265.2 C -273.4 1293.4, -140.1 1250.1, -51.2 1226.8 C 44.0 1235.6, 177.4 1307.1, 266.2 1185.2 C 361.5 1205.2, 494.8 1299.4, 583.7 1192.1 C 678.9 1205.9, 812.2 1294.8, 901.1 1243.3 C 996.4 1247.1, 1129.7 1281.2, 1218.6 1307.8 C 1313.8 1320.2, 1447.1 1219.7, 1536.0 1346.4 C 1631.2 1340.5, 1764.6 1178.4, 1853.4 1335.7 C 1948.7 1357.6, 2082.0 1216.0, 2170.9 1282.3 C 2266.1 1279.1, 2399.4 1247.7, 2488.3 1218.4 C 2583.6 1201.5, 2716.9 1311.2, 2805.8 1182.9 C 2901.0 1174.7, 3034.3 1360.3, 3123.2 1197.3 C 3218.4 1190.8, 3351.8 1338.3, 3440.6 1252.9" fill="none" stroke="url(#ribbon63)" stroke-width="42.4" stroke-linecap="round" stroke-opacity="0.224" /></g><g transform="rotate(-20.77 1536.0 1536.0)"><path d="M-368.6 1543.8 C -225.8 1514.4, -25.8 1567.5, 107.5 1576.4 C 250.4 1565.4, 450.4 1528.4, 583.7 1627.2 C 726.5 1615.2, 926.5 1463.9, 1059.8 1627.4 C 1202.7 1648.8, 1402.7 1507.8, 1536.0 1577.0 C 1678.8 1567.7, 1878.8 1531.4, 2012.2 1506.4 C 2155.0 1492.8, 2355.0 1558.0, 2488.3 1458.5 C 2631.2 1465.2, 2831.2 1641.9, 2964.5 1462.4 C 3107.3 1481.8, 3307.3 1630.1, 3440.6 1515.7" fill="none" stroke="url(#ribbon63)" stroke-width="38.4" stroke-linecap="round" stroke-opacity="0.250" /></g><g transform="rotate(-20.19 1536.0 1536.0)"><path d="M-368.6 1652.6 C -241.7 1717.3, -63.9 1621.4, 54.6 1749.4 C 181.6 1757.0, 359.4 1541.0, 477.9 1710.4 C 604.8 1727.7, 782.6 1586.6, 901.1 1636.4 C 1028.1 1632.7, 1205.9 1670.4, 1324.4 1572.2 C 1451.3 1601.0, 1629.1 1731.2, 1747.6 1556.8 C 1874.6 1572.2, 2052.4 1682.8, 2170.9 1599.5 C 2297.9 1582.7, 2475.6 1669.3, 2594.1 1674.4 C 2721.1 1669.3, 2898.9 1636.0, 3017.4 1736.1 C 3144.4 1708.2, 3322.1 1604.5, 3440.6 1747.2" fill="none" stroke="url(#ribbon63)" stroke-width="34.4" stroke-linecap="round" stroke-opacity="0.276" /></g><g transform="rotate(-19.61 1536.0 1536.0)"><path d="M-368.6 1869.1 C -254.4 1792.2, -94.4 1919.2, 12.3 1861.9 C 126.6 1864.7, 286.6 1871.7, 393.2 1939.1 C 507.5 1929.7, 667.5 1812.4, 774.1 1973.8 C 888.4 2011.1, 1048.4 1786.6, 1155.1 1945.0 C 1269.4 1960.7, 1429.3 1795.9, 1536.0 1870.2 C 1650.3 1870.1, 1810.3 1868.1, 1916.9 1794.8 C 2031.2 1824.4, 2191.2 1909.8, 2297.9 1764.4 C 2412.1 1741.1, 2572.1 1966.7, 2678.8 1797.6 C 2793.1 1824.5, 2953.1 1891.7, 3059.7 1874.2 C 3174.0 1875.2, 3334.0 1864.7, 3440.6 1947.7" fill="none" stroke="url(#ribbon63)" stroke-width="30.4" stroke-linecap="round" stroke-opacity="0.302" /></g><g transform="rotate(-19.03 1536.0 1536.0)"><path d="M-368.6 2107.4 C -264.8 2180.4, -119.3 2078.7, -22.3 2098.7 C 81.5 2098.6, 227.0 2114.8, 324.0 2021.4 C 427.8 2037.5, 573.3 2173.8, 670.3 1996.2 C 774.1 2017.5, 919.6 2157.6, 1016.6 2038.5 C 1120.4 2046.4, 1265.9 2157.2, 1362.9 2122.6 C 1466.7 2123.8, 1612.2 2093.2, 1709.1 2197.4 C 1813.0 2174.0, 1958.5 2065.2, 2055.4 2217.7 C 2159.3 2184.1, 2304.8 2064.2, 2401.7 2171.1 C 2505.6 2152.3, 2651.1 2049.0, 2748.0 2085.8 C 2851.9 2078.0, 2997.4 2120.8, 3094.3 2013.7 C 3198.2 1982.2, 3343.7 2139.2, 3440.6 1998.4" fill="none" stroke="url(#ribbon63)" stroke-width="26.4" stroke-linecap="round" stroke-opacity="0.328" /></g><g transform="rotate(-18.45 1536.0 1536.0)"><path d="M-368.6 2294.9 C -273.4 2244.5, -140.1 2327.3, -51.2 2178.8 C 44.0 2156.7, 177.4 2359.4, 266.2 2195.5 C 361.5 2205.0, 494.8 2411.5, 583.7 2272.4 C 678.9 2269.3, 812.2 2311.2, 901.1 2363.0 C 996.4 2375.8, 1129.7 2271.5, 1218.6 2412.2 C 1313.8 2453.4, 1447.1 2193.1, 1536.0 2390.3 C 1631.2 2408.1, 1764.6 2221.9, 1853.4 2310.5 C 1948.7 2305.6, 2082.0 2284.7, 2170.9 2221.2 C 2266.1 2221.9, 2399.4 2350.8, 2488.3 2176.6 C 2583.6 2161.9, 2716.9 2374.3, 2805.8 2203.8 C 2901.0 2176.8, 3034.3 2355.9, 3123.2 2286.2 C 3218.4 2285.3, 3351.8 2304.7, 3440.6 2373.9" fill="none" stroke="url(#ribbon63)" stroke-width="22.4" stroke-linecap="round" stroke-opacity="0.354" /></g><g transform="rotate(-17.87 1536.0 1536.0)"><path d="M-368.6 2438.0 C -225.8 2418.8, -25.8 2457.6, 107.5 2514.4 C 250.4 2507.6, 450.4 2388.2, 583.7 2563.1 C 726.5 2593.0, 926.5 2341.8, 1059.8 2535.9 C 1202.7 2537.6, 1402.7 2369.1, 1536.0 2449.3 C 1678.8 2447.2, 1878.8 2430.3, 2012.2 2355.9 C 2155.0 2379.6, 2355.0 2486.9, 2488.3 2312.3 C 2631.2 2263.1, 2831.2 2514.8, 2964.5 2345.0 C 3107.3 2326.3, 3307.3 2518.7, 3440.6 2434.1" fill="none" stroke="url(#ribbon63)" stroke-width="18.4" stroke-linecap="round" stroke-opacity="0.380" /></g><g transform="rotate(-17.29 1536.0 1536.0)"><path d="M-368.6 2596.6 C -241.7 2557.0, -63.9 2638.0, 54.6 2654.7 C 181.6 2638.1, 359.4 2537.4, 477.9 2722.9 C 604.8 2761.0, 782.6 2527.8, 901.1 2714.4 C 1028.1 2692.4, 1205.9 2547.1, 1324.4 2634.5 C 1451.3 2626.7, 1629.1 2576.2, 1747.6 2531.5 C 1874.6 2522.2, 2052.4 2671.5, 2170.9 2468.0 C 2297.9 2510.2, 2475.6 2732.7, 2594.1 2482.5 C 2721.1 2521.8, 2898.9 2659.9, 3017.4 2566.1 C 3144.4 2569.0, 3322.1 2613.7, 3440.6 2668.2" fill="none" stroke="url(#ribbon63)" stroke-width="14.4" stroke-linecap="round" stroke-opacity="0.406" /></g></g>
  <g><ellipse cx="1536.0" cy="1551.9" rx="728.6" ry="605.7" fill="url(#extrude63)" opacity="0.220" /><ellipse cx="1536.0" cy="1567.7" rx="736.0" ry="610.9" fill="url(#extrude63)" opacity="0.205" /><ellipse cx="1536.0" cy="1583.6" rx="743.4" ry="616.1" fill="url(#extrude63)" opacity="0.190" /><ellipse cx="1536.0" cy="1599.5" rx="750.9" ry="621.3" fill="url(#extrude63)" opacity="0.175" /><ellipse cx="1536.0" cy="1615.4" rx="758.3" ry="626.5" fill="url(#extrude63)" opacity="0.160" /><ellipse cx="1536.0" cy="1631.2" rx="765.7" ry="631.7" fill="url(#extrude63)" opacity="0.145" /><ellipse cx="1536.0" cy="1647.1" rx="773.2" ry="636.9" fill="url(#extrude63)" opacity="0.130" /><ellipse cx="1536.0" cy="1663.0" rx="780.6" ry="642.1" fill="url(#extrude63)" opacity="0.115" /><ellipse cx="1536.0" cy="1678.8" rx="788.0" ry="647.4" fill="url(#extrude63)" opacity="0.100" /><ellipse cx="1536.0" cy="1694.7" rx="795.5" ry="652.6" fill="url(#extrude63)" opacity="0.085" /><ellipse cx="1536.0" cy="1710.6" rx="802.9" ry="657.8" fill="url(#extrude63)" opacity="0.070" /><ellipse cx="1536.0" cy="1726.5" rx="810.3" ry="663.0" fill="url(#extrude63)" opacity="0.055" /></g>
  <ellipse cx="1536.0" cy="1726.5" rx="773.2" ry="214.9" fill="#0B1D2D" opacity="0.24" />
  <ellipse cx="1536.0" cy="1536.0" rx="743.4" ry="651.3" fill="url(#orb63)" stroke="#FFFFFF" stroke-opacity="0.42" stroke-width="7" />
  <ellipse cx="1431.9" cy="1392.7" rx="505.5" ry="299.6" fill="#FFFFFF" opacity="0.25" />
  <path d="M 199.4 399.4 C 1013.8 -30.7, 2058.2 768.0, 2872.6 215.0 L 2872.6 983.0 C 2089.0 1228.8, 1013.8 307.2, 199.4 1167.4 Z" fill="url(#glass63)" />
  <rect x="270" y="270" width="2532" height="2532" rx="430" fill="none" stroke="#FFFFFF" stroke-opacity="0.30" stroke-width="5" />
  <rect x="288.4" y="288.4" width="2495.1" height="2495.1" rx="399" fill="none" stroke="#36D1FF" stroke-opacity="0.35" stroke-width="3" />
  <g filter="url(#soft63)"><rect x="1319" y="2118" width="66" height="2" fill="#FFFFFF" opacity="0.583" /><rect x="1351" y="2086" width="2" height="66" fill="#FFFFFF" opacity="0.583" /><rect x="682" y="1752" width="46" height="2" fill="#FFFFFF" opacity="0.738" /><rect x="704" y="1730" width="2" height="46" fill="#FFFFFF" opacity="0.738" /><rect x="1750" y="325" width="46" height="2" fill="#FFFFFF" opacity="0.542" /><rect x="1772" y="303" width="2" height="46" fill="#FFFFFF" opacity="0.542" /><rect x="1634" y="1189" width="36" height="2" fill="#FFFFFF" opacity="0.467" /><rect x="1651" y="1172" width="2" height="36" fill="#FFFFFF" opacity="0.467" /><rect x="2512" y="1249" width="36" height="2" fill="#FFFFFF" opacity="0.502" /><rect x="2529" y="1232" width="2" height="36" fill="#FFFFFF" opacity="0.502" /><rect x="1170" y="2751" width="44" height="2" fill="#FFFFFF" opacity="0.769" /><rect x="1191" y="2730" width="2" height="44" fill="#FFFFFF" opacity="0.769" /><rect x="1852" y="2310" width="26" height="2" fill="#FFFFFF" opacity="0.601" /><rect x="1864" y="2298" width="2" height="26" fill="#FFFFFF" opacity="0.601" /><rect x="2344" y="2100" width="84" height="2" fill="#FFFFFF" opacity="0.472" /><rect x="2385" y="2059" width="2" height="84" fill="#FFFFFF" opacity="0.472" /><rect x="2499" y="558" width="54" height="2" fill="#FFFFFF" opacity="0.833" /><rect x="2525" y="532" width="2" height="54" fill="#FFFFFF" opacity="0.833" /><rect x="803" y="1231" width="40" height="2" fill="#FFFFFF" opacity="0.311" /><rect x="822" y="1212" width="2" height="40" fill="#FFFFFF" opacity="0.311" /><rect x="2298" y="918" width="58" height="2" fill="#FFFFFF" opacity="0.796" /><rect x="2326" y="890" width="2" height="58" fill="#FFFFFF" opacity="0.796" /><rect x="2292" y="1998" width="76" height="2" fill="#FFFFFF" opacity="0.701" /><rect x="2329" y="1961" width="2" height="76" fill="#FFFFFF" opacity="0.701" /><rect x="2460" y="1304" width="74" height="2" fill="#FFFFFF" opacity="0.706" /><rect x="2496" y="1268" width="2" height="74" fill="#FFFFFF" opacity="0.706" /><rect x="532" y="1694" width="28" height="2" fill="#FFFFFF" opacity="0.775" /><rect x="545" y="1681" width="2" height="28" fill="#FFFFFF" opacity="0.775" /><rect x="1029" y="2441" width="84" height="2" fill="#FFFFFF" opacity="0.395" /><rect x="1070" y="2400" width="2" height="84" fill="#FFFFFF" opacity="0.395" /><rect x="2479" y="752" width="62" height="2" fill="#FFFFFF" opacity="0.353" /><rect x="2509" y="722" width="2" height="62" fill="#FFFFFF" opacity="0.353" /><rect x="1535" y="2102" width="44" height="2" fill="#FFFFFF" opacity="0.668" /><rect x="1556" y="2081" width="2" height="44" fill="#FFFFFF" opacity="0.668" /><rect x="1466" y="2413" width="84" height="2" fill="#FFFFFF" opacity="0.426" /><rect x="1507" y="2372" width="2" height="84" fill="#FFFFFF" opacity="0.426" /><rect x="1576" y="1475" width="52" height="2" fill="#FFFFFF" opacity="0.445" /><rect x="1601" y="1450" width="2" height="52" fill="#FFFFFF" opacity="0.445" /><rect x="437" y="1848" width="34" height="2" fill="#FFFFFF" opacity="0.517" /><rect x="453" y="1832" width="2" height="34" fill="#FFFFFF" opacity="0.517" /><rect x="1940" y="970" width="64" height="2" fill="#FFFFFF" opacity="0.661" /><rect x="1971" y="939" width="2" height="64" fill="#FFFFFF" opacity="0.661" /><rect x="2672" y="2519" width="38" height="2" fill="#FFFFFF" opacity="0.609" /><rect x="2690" y="2501" width="2" height="38" fill="#FFFFFF" opacity="0.609" /><rect x="536" y="601" width="78" height="2" fill="#FFFFFF" opacity="0.649" /><rect x="574" y="563" width="2" height="78" fill="#FFFFFF" opacity="0.649" /><rect x="403" y="1836" width="34" height="2" fill="#FFFFFF" opacity="0.500" /><rect x="419" y="1820" width="2" height="34" fill="#FFFFFF" opacity="0.500" /><rect x="1736" y="2411" width="42" height="2" fill="#FFFFFF" opacity="0.739" /><rect x="1756" y="2391" width="2" height="42" fill="#FFFFFF" opacity="0.739" /><rect x="1050" y="1532" width="54" height="2" fill="#FFFFFF" opacity="0.422" /><rect x="1076" y="1506" width="2" height="54" fill="#FFFFFF" opacity="0.422" /></g>
  <g opacity="0.52"><rect x="1060" y="1070" width="219" height="1024" fill="#0C2030" /><rect x="1316" y="1326" width="219" height="768" fill="#0C2030" /><rect x="1572" y="1198" width="219" height="921" fill="#0C2030" /><rect x="1828" y="1033" width="219" height="1152" fill="#0C2030" /></g>
  <g filter="url(#soft63)"><rect x="1024" y="1024" width="219" height="1024" fill="url(#symbol63)" /><rect x="1280" y="1280" width="219" height="768" fill="url(#symbol63)" /><rect x="1536" y="1152" width="219" height="921" fill="url(#symbol63)" /><rect x="1792" y="987" width="219" height="1152" fill="url(#symbol63)" /></g>
  <rect x="138" y="138" width="2796" height="2796" rx="629" fill="#FFFFFF" filter="url(#grain63)" opacity="0.18" />
</svg>
