<svg xmlns="http://www.w3.org/2000/svg" width="3072" height="3072" viewBox="0 0 3072 3072">
  <title>QuartzOS App Icon 324 - swift_builder_324</title>
  <defs><linearGradient id="bg323" x1="0%" y1="0%" x2="100%" y2="100%"><stop offset="0%" stop-color="#3B82FF" /><stop offset="26%" stop-color="#FF6AB3" /><stop offset="56%" stop-color="#FFD84D" /><stop offset="78%" stop-color="#4BA7D0" /><stop offset="100%" stop-color="#122A3D" /></linearGradient><radialGradient id="sun323" cx="26%" cy="27%" r="88%"><stop offset="0%" stop-color="#FFFFFF" stop-opacity="0.62" /><stop offset="30%" stop-color="#53E3A6" stop-opacity="0.35" /><stop offset="100%" stop-color="#53E3A6" stop-opacity="0" /></radialGradient><linearGradient id="glass323" x1="0%" y1="0%" x2="0%" y2="100%"><stop offset="0%" stop-color="#FFFFFF" stop-opacity="0.70" /><stop offset="46%" stop-color="#FFFFFF" stop-opacity="0.26" /><stop offset="100%" stop-color="#FFFFFF" stop-opacity="0.00" /></linearGradient><linearGradient id="ribbon323" x1="0%" y1="0%" x2="100%" y2="0%"><stop offset="0%" stop-color="#3B82FF" stop-opacity="0.18" /><stop offset="34%" stop-color="#FF6AB3" stop-opacity="0.72" /><stop offset="66%" stop-color="#FFD84D" stop-opacity="0.72" /><stop offset="100%" stop-color="#53E3A6" stop-opacity="0.18" /></linearGradient><radialGradient id="orb323" cx="34%" cy="27%" r="74%"><stop offset="0%" stop-color="#FFFFFF" stop-opacity="0.84" /><stop offset="30%" stop-color="#3B82FF" stop-opacity="0.52" /><stop offset="68%" stop-color="#FF6AB3" stop-opacity="0.42" /><stop offset="100%" stop-color="#FFD84D" stop-opacity="0.20" /></radialGradient><linearGradient id="extrude323" x1="0%" y1="0%" x2="0%" y2="100%"><stop offset="0%" stop-color="#15283C" stop-opacity="0.45" /><stop offset="100%" stop-color="#08131D" stop-opacity="0.06" /></linearGradient><linearGradient id="symbol323" x1="0%" y1="0%" x2="100%" y2="100%"><stop offset="0%" stop-color="#FFFFFF" /><stop offset="100%" stop-color="#53E3A6" /></linearGradient><filter id="shadow323" x="-40%" y="-40%" width="180%" height="180%"><feDropShadow dx="0" dy="49" stdDeviation="86" flood-color="#06111A" flood-opacity="0.54" /></filter><filter id="soft323" x="-40%" y="-40%" width="180%" height="180%"><feDropShadow dx="0" dy="0" stdDeviation="14" flood-color="#3B82FF" flood-opacity="0.45" /></filter><filter id="grain323"><feTurbulence type="fractalNoise" baseFrequency="0.836" numOctaves="2" seed="323" /><feColorMatrix type="saturate" values="0" /><feComponentTransfer><feFuncA type="table" tableValues="0 0.09" /></feComponentTransfer></filter></defs>
  <rect x="138" y="138" width="2796" height="2796" rx="629" fill="url(#bg323)" filter="url(#shadow323)" />
  <rect x="138" y="138" width="2796" height="2796" rx="629" fill="url(#sun323)" />
  <g><circle cx="1086" cy="1599" r="70" fill="#FFFFFF" opacity="0.107" /><circle cx="1050" cy="2015" r="130" fill="#FFFFFF" opacity="0.135" /><circle cx="1261" cy="2581" r="60" fill="#FFFFFF" opacity="0.118" /><circle cx="1570" cy="2013" r="47" fill="#FFFFFF" opacity="0.208" /><circle cx="1849" cy="1747" r="75" fill="#FFFFFF" opacity="0.182" /><circle cx="636" cy="2298" r="151" fill="#FFFFFF" opacity="0.154" /><circle cx="2256" cy="1038" r="60" fill="#FFFFFF" opacity="0.066" /><circle cx="466" cy="1583" r="52" fill="#FFFFFF" opacity="0.093" /><circle cx="691" cy="2518" r="83" fill="#FFFFFF" opacity="0.186" /><circle cx="1074" cy="801" r="82" fill="#FFFFFF" opacity="0.085" /><circle cx="2543" cy="330" r="134" fill="#FFFFFF" opacity="0.098" /><circle cx="2002" cy="2327" r="44" fill="#FFFFFF" opacity="0.104" /><circle cx="2636" cy="355" r="83" fill="#FFFFFF" opacity="0.230" /><circle cx="1288" cy="958" r="73" fill="#FFFFFF" opacity="0.206" /><circle cx="2071" cy="487" r="48" fill="#FFFFFF" opacity="0.219" /><circle cx="994" cy="2600" r="74" fill="#FFFFFF" opacity="0.177" /><circle cx="1280" cy="1007" r="62" fill="#FFFFFF" opacity="0.126" /><circle cx="632" cy="1172" r="52" fill="#FFFFFF" opacity="0.073" /><circle cx="1983" cy="1933" r="143" fill="#FFFFFF" opacity="0.234" /><circle cx="1810" cy="2387" r="112" fill="#FFFFFF" opacity="0.075" /><circle cx="1703" cy="1709" r="45" fill="#FFFFFF" opacity="0.126" /><circle cx="787" cy="952" r="133" fill="#FFFFFF" opacity="0.154" /><circle cx="1849" cy="2044" r="140" fill="#FFFFFF" opacity="0.122" /><circle cx="1586" cy="2255" r="87" fill="#FFFFFF" opacity="0.120" /><circle cx="1355" cy="2111" r="134" fill="#FFFFFF" opacity="0.206" /><circle cx="658" cy="2260" r="37" fill="#FFFFFF" opacity="0.218" /><circle cx="1558" cy="1286" r="159" fill="#FFFFFF" opacity="0.222" /><circle cx="1464" cy="2306" r="45" fill="#FFFFFF" opacity="0.119" /></g>
  <g><path d="M 201.5 604.8 L 2708.4 328.3 L 2708.4 756.1 L 201.5 1032.6 Z" fill="#FFFFFF" opacity="0.096" /><path d="M 310.2 866.9 L 2695.4 590.4 L 2695.4 1025.9 L 310.2 1302.4 Z" fill="#FFFFFF" opacity="0.204" /><path d="M 296.4 1175.0 L 2796.9 898.5 L 2796.9 1343.8 L 296.4 1620.2 Z" fill="#FFFFFF" opacity="0.125" /><path d="M 220.2 1372.7 L 2814.2 1096.2 L 2814.2 1516.1 L 220.2 1792.5 Z" fill="#FFFFFF" opacity="0.136" /><path d="M 293.9 1676.3 L 2695.5 1399.8 L 2695.5 1837.0 L 293.9 2113.5 Z" fill="#FFFFFF" opacity="0.150" /><path d="M 163.5 1900.9 L 2821.8 1624.4 L 2821.8 2114.8 L 163.5 2391.3 Z" fill="#FFFFFF" opacity="0.189" /><path d="M 262.9 2163.8 L 2705.2 1887.3 L 2705.2 2384.5 L 262.9 2660.9 Z" fill="#FFFFFF" opacity="0.089" /><path d="M 326.6 2412.8 L 2840.5 2136.4 L 2840.5 2576.7 L 326.6 2853.1 Z" fill="#FFFFFF" opacity="0.222" /></g>
  <g filter="url(#soft323)"><g transform="rotate(-16.12 1536.0 1536.0)"><path d="M-368.6 509.3 C -225.8 537.5, -25.8 487.6, 107.5 564.6 C 250.4 572.6, 450.4 475.3, 583.7 546.4 C 726.5 556.6, 926.5 472.1, 1059.8 505.8 C 1202.7 507.0, 1402.7 512.3, 1536.0 467.2 C 1678.8 481.8, 1878.8 526.2, 2012.2 454.2 C 2155.0 470.7, 2355.0 547.7, 2488.3 474.6 C 2631.2 464.7, 2831.2 542.3, 2964.5 516.0 C 3107.3 513.7, 3307.3 505.4, 3440.6 553.4" fill="none" stroke="url(#ribbon323)" stroke-width="58.4" stroke-linecap="round" stroke-opacity="0.120" /></g><g transform="rotate(-15.54 1536.0 1536.0)"><path d="M-368.6 758.9 C -241.7 772.4, -63.9 741.5, 54.6 813.8 C 181.6 815.1, 359.4 739.0, 477.9 818.4 C 604.8 799.8, 782.6 728.0, 901.1 786.9 C 1028.1 781.3, 1205.9 735.2, 1324.4 738.5 C 1451.3 740.3, 1629.1 766.3, 1747.6 702.4 C 1874.6 704.9, 2052.4 788.9, 2170.9 700.7 C 2297.9 706.2, 2475.6 808.7, 2594.1 734.3 C 2721.1 731.4, 2898.9 777.1, 3017.4 782.8 C 3144.4 789.6, 3322.1 738.4, 3440.6 816.9" fill="none" stroke="url(#ribbon323)" stroke-width="54.4" stroke-linecap="round" stroke-opacity="0.146" /></g><g transform="rotate(-14.96 1536.0 1536.0)"><path d="M-368.6 871.8 C -254.4 946.8, -94.4 851.4, 12.3 887.0 C 126.6 890.9, 286.6 858.3, 393.2 833.8 C 507.5 842.5, 667.5 895.2, 774.1 803.7 C 888.4 806.9, 1048.4 943.3, 1155.1 814.9 C 1269.4 833.3, 1429.3 901.7, 1536.0 860.7 C 1650.3 857.8, 1810.3 879.5, 1916.9 913.2 C 2031.2 904.1, 2191.2 837.2, 2297.9 940.6 C 2412.1 914.8, 2572.1 829.0, 2678.8 926.3 C 2793.1 944.4, 2953.1 811.9, 3059.7 879.0 C 3174.0 880.8, 3334.0 868.3, 3440.6 827.3" fill="none" stroke="url(#ribbon323)" stroke-width="50.4" stroke-linecap="round" stroke-opacity="0.172" /></g><g transform="rotate(-14.38 1536.0 1536.0)"><path d="M-368.6 1084.0 C -264.8 1080.1, -119.3 1086.1, -22.3 1025.7 C 81.5 1040.5, 227.0 1145.7, 324.0 1007.9 C 427.8 1030.6, 573.3 1117.0, 670.3 1036.2 C 774.1 1025.7, 919.6 1127.6, 1016.6 1093.6 C 1120.4 1096.1, 1265.9 1079.9, 1362.9 1145.1 C 1466.7 1146.0, 1612.2 1025.2, 1709.1 1159.6 C 1813.0 1143.2, 1958.5 1024.9, 2055.4 1128.2 C 2159.3 1112.4, 2304.8 1067.7, 2401.7 1070.0 C 2505.6 1067.6, 2651.1 1093.4, 2748.0 1020.3 C 2851.9 1025.2, 2997.4 1148.7, 3094.3 1009.2 C 3198.2 988.3, 3343.7 1112.6, 3440.6 1043.5" fill="none" stroke="url(#ribbon323)" stroke-width="46.4" stroke-linecap="round" stroke-opacity="0.198" /></g><g transform="rotate(-13.80 1536.0 1536.0)"><path d="M-368.6 1265.6 C -273.4 1313.7, -140.1 1190.0, -51.2 1298.3 C 44.0 1308.6, 177.4 1255.5, 266.2 1233.2 C 361.5 1242.9, 494.8 1304.3, 583.7 1187.8 C 678.9 1176.1, 812.2 1303.2, 901.1 1189.5 C 996.4 1180.3, 1129.7 1321.6, 1218.6 1237.4 C 1313.8 1228.8, 1447.1 1289.3, 1536.0 1302.4 C 1631.2 1312.3, 1764.6 1229.4, 1853.4 1345.0 C 1948.7 1329.1, 2082.0 1192.2, 2170.9 1339.5 C 2266.1 1356.3, 2399.4 1238.7, 2488.3 1289.1 C 2583.6 1297.1, 2716.9 1240.6, 2805.8 1224.5 C 2901.0 1218.8, 3034.3 1311.6, 3123.2 1184.7 C 3218.4 1201.3, 3351.8 1362.2, 3440.6 1194.0" fill="none" stroke="url(#ribbon323)" stroke-width="42.4" stroke-linecap="round" stroke-opacity="0.224" /></g><g transform="rotate(-13.22 1536.0 1536.0)"><path d="M-368.6 1481.5 C -225.8 1566.2, -25.8 1448.9, 107.5 1498.8 C 250.4 1500.0, 450.4 1468.8, 583.7 1429.8 C 726.5 1416.7, 926.5 1503.8, 1059.8 1392.1 C 1202.7 1423.5, 1402.7 1564.9, 1536.0 1408.7 C 1678.8 1398.1, 1878.8 1533.2, 2012.2 1469.4 C 2155.0 1472.3, 2355.0 1488.8, 2488.3 1537.5 C 2631.2 1557.3, 2831.2 1424.2, 2964.5 1571.6 C 3107.3 1556.7, 3307.3 1448.1, 3440.6 1551.1" fill="none" stroke="url(#ribbon323)" stroke-width="38.4" stroke-linecap="round" stroke-opacity="0.250" /></g><g transform="rotate(-12.64 1536.0 1536.0)"><path d="M-368.6 1647.2 C -241.7 1655.9, -63.9 1641.6, 54.6 1724.2 C 181.6 1753.4, 359.4 1596.8, 477.9 1744.0 C 604.8 1755.0, 782.6 1557.3, 901.1 1705.1 C 1028.1 1682.0, 1205.9 1609.2, 1324.4 1631.1 C 1451.3 1633.7, 1629.1 1665.1, 1747.6 1566.9 C 1874.6 1549.9, 2052.4 1711.3, 2170.9 1551.4 C 2297.9 1563.2, 2475.6 1734.2, 2594.1 1594.0 C 2721.1 1610.5, 2898.9 1703.0, 3017.4 1668.9 C 3144.4 1676.3, 3322.1 1630.3, 3440.6 1730.7" fill="none" stroke="url(#ribbon323)" stroke-width="34.4" stroke-linecap="round" stroke-opacity="0.276" /></g><g transform="rotate(-12.06 1536.0 1536.0)"><path d="M-368.6 1854.3 C -254.4 1801.0, -94.4 1900.1, 12.3 1863.9 C 126.6 1860.3, 286.6 1843.6, 393.2 1935.8 C 507.5 1956.8, 667.5 1786.6, 774.1 1958.3 C 888.4 1919.8, 1048.4 1818.8, 1155.1 1917.7 C 1269.4 1924.9, 1429.3 1788.8, 1536.0 1838.6 C 1650.3 1838.4, 1810.3 1866.5, 1916.9 1769.1 C 2031.2 1784.2, 2191.2 1883.0, 2297.9 1751.2 C 2412.1 1748.0, 2572.1 1895.2, 2678.8 1795.9 C 2793.1 1796.7, 2953.1 1887.9, 3059.7 1875.9 C 3174.0 1881.8, 3334.0 1843.3, 3440.6 1942.9" fill="none" stroke="url(#ribbon323)" stroke-width="30.4" stroke-linecap="round" stroke-opacity="0.302" /></g><g transform="rotate(-11.48 1536.0 1536.0)"><path d="M-368.6 2011.2 C -264.8 1936.6, -119.3 2040.6, -22.3 1903.4 C 81.5 1926.3, 227.0 2110.0, 324.0 1914.7 C 427.8 1895.8, 573.3 2103.0, 670.3 1984.5 C 774.1 1994.3, 919.6 2033.7, 1016.6 2070.5 C 1120.4 2048.2, 1265.9 1945.8, 1362.9 2120.5 C 1466.7 2086.4, 1612.2 1903.7, 1709.1 2104.2 C 1813.0 2132.7, 1958.5 1909.1, 2055.4 2031.4 C 2159.3 2032.0, 2304.8 2004.2, 2401.7 1946.4 C 2505.6 1957.1, 2651.1 2074.0, 2748.0 1900.6 C 2851.9 1924.0, 2997.4 2124.9, 3094.3 1921.9 C 3198.2 1898.2, 3343.7 2113.6, 3440.6 1997.3" fill="none" stroke="url(#ribbon323)" stroke-width="26.4" stroke-linecap="round" stroke-opacity="0.328" /></g><g transform="rotate(-10.90 1536.0 1536.0)"><path d="M-368.6 2306.8 C -273.4 2277.6, -140.1 2336.6, -51.2 2367.3 C 44.0 2386.9, 177.4 2240.7, 266.2 2422.3 C 361.5 2437.9, 494.8 2269.8, 583.7 2407.3 C 678.9 2408.5, 812.2 2188.7, 901.1 2331.3 C 996.4 2334.6, 1129.7 2282.5, 1218.6 2240.4 C 1313.8 2219.7, 1447.1 2377.1, 1536.0 2189.8 C 1631.2 2225.5, 1764.6 2343.0, 1853.4 2210.1 C 1948.7 2220.9, 2082.0 2382.3, 2170.9 2289.1 C 2266.1 2294.3, 2399.4 2313.5, 2488.3 2378.8 C 2583.6 2397.1, 2716.9 2264.1, 2805.8 2424.8 C 2901.0 2402.1, 3034.3 2195.6, 3123.2 2399.2 C 3218.4 2410.3, 3351.8 2199.0, 3440.6 2317.5" fill="none" stroke="url(#ribbon323)" stroke-width="22.4" stroke-linecap="round" stroke-opacity="0.354" /></g><g transform="rotate(-10.32 1536.0 1536.0)"><path d="M-368.6 2447.3 C -225.8 2314.6, -25.8 2526.3, 107.5 2388.3 C 250.4 2374.6, 450.4 2482.7, 583.7 2486.0 C 726.5 2480.3, 926.5 2424.8, 1059.8 2560.2 C 1202.7 2603.4, 1402.7 2338.8, 1536.0 2565.9 C 1678.8 2520.7, 1878.8 2400.5, 2012.2 2499.6 C 2155.0 2514.6, 2355.0 2418.8, 2488.3 2401.5 C 2631.2 2411.2, 2831.2 2463.3, 2964.5 2331.2 C 3107.3 2287.2, 3307.3 2556.5, 3440.6 2331.3" fill="none" stroke="url(#ribbon323)" stroke-width="18.4" stroke-linecap="round" stroke-opacity="0.380" /></g><g transform="rotate(-9.74 1536.0 1536.0)"><path d="M-368.6 2603.8 C -241.7 2490.7, -63.9 2661.8, 54.6 2566.1 C 181.6 2563.4, 359.4 2635.3, 477.9 2669.1 C 604.8 2678.8, 782.6 2583.9, 901.1 2732.4 C 1028.1 2781.3, 1205.9 2519.0, 1324.4 2717.8 C 1451.3 2704.9, 1629.1 2512.2, 1747.6 2634.0 C 1874.6 2627.9, 2052.4 2580.1, 2170.9 2531.9 C 2297.9 2531.7, 2475.6 2636.2, 2594.1 2473.5 C 2721.1 2487.7, 2898.9 2653.4, 3017.4 2494.1 C 3144.4 2478.1, 3322.1 2651.8, 3440.6 2581.3" fill="none" stroke="url(#ribbon323)" stroke-width="14.4" stroke-linecap="round" stroke-opacity="0.406" /></g></g>
  <g><ellipse cx="1536.0" cy="1551.9" rx="728.6" ry="605.7" fill="url(#extrude323)" opacity="0.220" /><ellipse cx="1536.0" cy="1567.7" rx="736.0" ry="610.9" fill="url(#extrude323)" opacity="0.205" /><ellipse cx="1536.0" cy="1583.6" rx="743.4" ry="616.1" fill="url(#extrude323)" opacity="0.190" /><ellipse cx="1536.0" cy="1599.5" rx="750.9" ry="621.3" fill="url(#extrude323)" opacity="0.175" /><ellipse cx="1536.0" cy="1615.4" rx="758.3" ry="626.5" fill="url(#extrude323)" opacity="0.160" /><ellipse cx="1536.0" cy="1631.2" rx="765.7" ry="631.7" fill="url(#extrude323)" opacity="0.145" /><ellipse cx="1536.0" cy="1647.1" rx="773.2" ry="636.9" fill="url(#extrude323)" opacity="0.130" /><ellipse cx="1536.0" cy="1663.0" rx="780.6" ry="642.1" fill="url(#extrude323)" opacity="0.115" /><ellipse cx="1536.0" cy="1678.8" rx="788.0" ry="647.4" fill="url(#extrude323)" opacity="0.100" /><ellipse cx="1536.0" cy="1694.7" rx="795.5" ry="652.6" fill="url(#extrude323)" opacity="0.085" /><ellipse cx="1536.0" cy="1710.6" rx="802.9" ry="657.8" fill="url(#extrude323)" opacity="0.070" /><ellipse cx="1536.0" cy="1726.5" rx="810.3" ry="663.0" fill="url(#extrude323)" opacity="0.055" /></g>
  <ellipse cx="1536.0" cy="1726.5" rx="773.2" ry="214.9" fill="#0B1D2D" opacity="0.24" />
  <ellipse cx="1536.0" cy="1536.0" rx="743.4" ry="651.3" fill="url(#orb323)" stroke="#FFFFFF" stroke-opacity="0.42" stroke-width="7" />
  <ellipse cx="1431.9" cy="1392.7" rx="505.5" ry="299.6" fill="#FFFFFF" opacity="0.25" />
  <path d="M 199.4 399.4 C 1013.8 -30.7, 2058.2 768.0, 2872.6 215.0 L 2872.6 983.0 C 2089.0 1228.8, 1013.8 307.2, 199.4 1167.4 Z" fill="url(#glass323)" />
  <rect x="270" y="270" width="2532" height="2532" rx="430" fill="none" stroke="#FFFFFF" stroke-opacity="0.30" stroke-width="5" />
  <rect x="288.4" y="288.4" width="2495.1" height="2495.1" rx="399" fill="none" stroke="#3B82FF" stroke-opacity="0.35" stroke-width="3" />
  <g filter="url(#soft323)"><rect x="945" y="2393" width="54" height="2" fill="#FFFFFF" opacity="0.395" /><rect x="971" y="2367" width="2" height="54" fill="#FFFFFF" opacity="0.395" /><rect x="1454" y="1179" width="80" height="2" fill="#FFFFFF" opacity="0.469" /><rect x="1493" y="1140" width="2" height="80" fill="#FFFFFF" opacity="0.469" /><rect x="1268" y="2165" width="50" height="2" fill="#FFFFFF" opacity="0.778" /><rect x="1292" y="2141" width="2" height="50" fill="#FFFFFF" opacity="0.778" /><rect x="2131" y="1535" width="60" height="2" fill="#FFFFFF" opacity="0.398" /><rect x="2160" y="1506" width="2" height="60" fill="#FFFFFF" opacity="0.398" /><rect x="2010" y="1548" width="64" height="2" fill="#FFFFFF" opacity="0.698" /><rect x="2041" y="1517" width="2" height="64" fill="#FFFFFF" opacity="0.698" /><rect x="2089" y="2701" width="56" height="2" fill="#FFFFFF" opacity="0.530" /><rect x="2116" y="2674" width="2" height="56" fill="#FFFFFF" opacity="0.530" /><rect x="729" y="2613" width="26" height="2" fill="#FFFFFF" opacity="0.801" /><rect x="741" y="2601" width="2" height="26" fill="#FFFFFF" opacity="0.801" /><rect x="387" y="1827" width="50" height="2" fill="#FFFFFF" opacity="0.385" /><rect x="411" y="1803" width="2" height="50" fill="#FFFFFF" opacity="0.385" /><rect x="1656" y="2250" width="28" height="2" fill="#FFFFFF" opacity="0.675" /><rect x="1669" y="2237" width="2" height="28" fill="#FFFFFF" opacity="0.675" /><rect x="1271" y="2193" width="54" height="2" fill="#FFFFFF" opacity="0.457" /><rect x="1297" y="2167" width="2" height="54" fill="#FFFFFF" opacity="0.457" /><rect x="2705" y="2704" width="24" height="2" fill="#FFFFFF" opacity="0.341" /><rect x="2716" y="2693" width="2" height="24" fill="#FFFFFF" opacity="0.341" /><rect x="1779" y="2718" width="28" height="2" fill="#FFFFFF" opacity="0.346" /><rect x="1792" y="2705" width="2" height="28" fill="#FFFFFF" opacity="0.346" /><rect x="2513" y="1478" width="76" height="2" fill="#FFFFFF" opacity="0.805" /><rect x="2550" y="1441" width="2" height="76" fill="#FFFFFF" opacity="0.805" /><rect x="2062" y="2126" width="36" height="2" fill="#FFFFFF" opacity="0.359" /><rect x="2079" y="2109" width="2" height="36" fill="#FFFFFF" opacity="0.359" /><rect x="350" y="928" width="80" height="2" fill="#FFFFFF" opacity="0.384" /><rect x="389" y="889" width="2" height="80" fill="#FFFFFF" opacity="0.384" /><rect x="913" y="2622" width="62" height="2" fill="#FFFFFF" opacity="0.538" /><rect x="943" y="2592" width="2" height="62" fill="#FFFFFF" opacity="0.538" /><rect x="927" y="2262" width="74" height="2" fill="#FFFFFF" opacity="0.557" /><rect x="963" y="2226" width="2" height="74" fill="#FFFFFF" opacity="0.557" /><rect x="1423" y="516" width="48" height="2" fill="#FFFFFF" opacity="0.406" /><rect x="1446" y="493" width="2" height="48" fill="#FFFFFF" opacity="0.406" /><rect x="1964" y="1592" width="84" height="2" fill="#FFFFFF" opacity="0.437" /><rect x="2005" y="1551" width="2" height="84" fill="#FFFFFF" opacity="0.437" /><rect x="1600" y="1557" width="84" height="2" fill="#FFFFFF" opacity="0.539" /><rect x="1641" y="1516" width="2" height="84" fill="#FFFFFF" opacity="0.539" /><rect x="2035" y="621" width="26" height="2" fill="#FFFFFF" opacity="0.760" /><rect x="2047" y="609" width="2" height="26" fill="#FFFFFF" opacity="0.760" /><rect x="548" y="528" width="24" height="2" fill="#FFFFFF" opacity="0.454" /><rect x="559" y="517" width="2" height="24" fill="#FFFFFF" opacity="0.454" /><rect x="796" y="1752" width="50" height="2" fill="#FFFFFF" opacity="0.354" /><rect x="820" y="1728" width="2" height="50" fill="#FFFFFF" opacity="0.354" /><rect x="1813" y="678" width="52" height="2" fill="#FFFFFF" opacity="0.524" /><rect x="1838" y="653" width="2" height="52" fill="#FFFFFF" opacity="0.524" /><rect x="2296" y="2719" width="60" height="2" fill="#FFFFFF" opacity="0.475" /><rect x="2325" y="2690" width="2" height="60" fill="#FFFFFF" opacity="0.475" /><rect x="2361" y="2446" width="58" height="2" fill="#FFFFFF" opacity="0.763" /><rect x="2389" y="2418" width="2" height="58" fill="#FFFFFF" opacity="0.763" /></g>
  <g opacity="0.52"><path d="M996 1006 L2148 1006 L2148 2158 L996 2158 Z" fill="none" stroke="#0C2030" stroke-width="90" /><path d="M996 1582 L2148 1582" stroke="#0C2030" stroke-width="90" /><path d="M1572 1006 L1572 2158" stroke="#0C2030" stroke-width="90" /></g>
  <g filter="url(#soft323)"><path d="M960 960 L2112 960 L2112 2112 L960 2112 Z" fill="none" stroke="url(#symbol323)" stroke-width="90" /><path d="M960 1536 L2112 1536" stroke="url(#symbol323)" stroke-width="90" /><path d="M1536 960 L1536 2112" stroke="url(#symbol323)" stroke-width="90" /></g>
  <rect x="138" y="138" width="2796" height="2796" rx="629" fill="#FFFFFF" filter="url(#grain323)" opacity="0.18" />
</svg>
