<svg xmlns="http://www.w3.org/2000/svg" width="3072" height="3072" viewBox="0 0 3072 3072">
  <title>QuartzOS App Icon 144 - swift_viewer_144</title>
  <defs><linearGradient id="bg143" x1="0%" y1="0%" x2="100%" y2="100%"><stop offset="0%" stop-color="#FF6AB3" /><stop offset="26%" stop-color="#FFD84D" /><stop offset="56%" stop-color="#36D1FF" /><stop offset="78%" stop-color="#4BA7D0" /><stop offset="100%" stop-color="#122A3D" /></linearGradient><radialGradient id="sun143" cx="27%" cy="8%" r="88%"><stop offset="0%" stop-color="#FFFFFF" stop-opacity="0.62" /><stop offset="30%" stop-color="#3B82FF" stop-opacity="0.35" /><stop offset="100%" stop-color="#3B82FF" stop-opacity="0" /></radialGradient><linearGradient id="glass143" x1="0%" y1="0%" x2="0%" y2="100%"><stop offset="0%" stop-color="#FFFFFF" stop-opacity="0.70" /><stop offset="46%" stop-color="#FFFFFF" stop-opacity="0.26" /><stop offset="100%" stop-color="#FFFFFF" stop-opacity="0.00" /></linearGradient><linearGradient id="ribbon143" x1="0%" y1="0%" x2="100%" y2="0%"><stop offset="0%" stop-color="#FF6AB3" stop-opacity="0.18" /><stop offset="34%" stop-color="#FFD84D" stop-opacity="0.72" /><stop offset="66%" stop-color="#36D1FF" stop-opacity="0.72" /><stop offset="100%" stop-color="#3B82FF" stop-opacity="0.18" /></linearGradient><radialGradient id="orb143" cx="34%" cy="27%" r="74%"><stop offset="0%" stop-color="#FFFFFF" stop-opacity="0.84" /><stop offset="30%" stop-color="#FF6AB3" stop-opacity="0.52" /><stop offset="68%" stop-color="#FFD84D" stop-opacity="0.42" /><stop offset="100%" stop-color="#36D1FF" stop-opacity="0.20" /></radialGradient><linearGradient id="extrude143" x1="0%" y1="0%" x2="0%" y2="100%"><stop offset="0%" stop-color="#15283C" stop-opacity="0.45" /><stop offset="100%" stop-color="#08131D" stop-opacity="0.06" /></linearGradient><linearGradient id="symbol143" x1="0%" y1="0%" x2="100%" y2="100%"><stop offset="0%" stop-color="#FFFFFF" /><stop offset="100%" stop-color="#3B82FF" /></linearGradient><filter id="shadow143" x="-40%" y="-40%" width="180%" height="180%"><feDropShadow dx="0" dy="49" stdDeviation="86" flood-color="#06111A" flood-opacity="0.54" /></filter><filter id="soft143" x="-40%" y="-40%" width="180%" height="180%"><feDropShadow dx="0" dy="0" stdDeviation="14" flood-color="#FF6AB3" flood-opacity="0.45" /></filter><filter id="grain143"><feTurbulence type="fractalNoise" baseFrequency="0.874" numOctaves="2" seed="143" /><feColorMatrix type="saturate" values="0" /><feComponentTransfer><feFuncA type="table" tableValues="0 0.09" /></feComponentTransfer></filter></defs>
  <rect x="138" y="138" width="2796" height="2796" rx="629" fill="url(#bg143)" filter="url(#shadow143)" />
  <rect x="138" y="138" width="2796" height="2796" rx="629" fill="url(#sun143)" />
  <g><circle cx="1602" cy="1570" r="53" fill="#FFFFFF" opacity="0.082" /><circle cx="978" cy="872" r="62" fill="#FFFFFF" opacity="0.175" /><circle cx="1468" cy="1651" r="73" fill="#FFFFFF" opacity="0.063" /><circle cx="1490" cy="2467" r="36" fill="#FFFFFF" opacity="0.193" /><circle cx="2331" cy="465" r="47" fill="#FFFFFF" opacity="0.220" /><circle cx="1342" cy="2404" r="91" fill="#FFFFFF" opacity="0.146" /><circle cx="2313" cy="2454" r="65" fill="#FFFFFF" opacity="0.112" /><circle cx="1183" cy="1101" r="99" fill="#FFFFFF" opacity="0.065" /><circle cx="1543" cy="1067" r="123" fill="#FFFFFF" opacity="0.170" /><circle cx="586" cy="681" r="129" fill="#FFFFFF" opacity="0.189" /><circle cx="1129" cy="895" r="127" fill="#FFFFFF" opacity="0.065" /><circle cx="874" cy="2020" r="74" fill="#FFFFFF" opacity="0.201" /><circle cx="1678" cy="418" r="70" fill="#FFFFFF" opacity="0.152" /><circle cx="514" cy="743" r="57" fill="#FFFFFF" opacity="0.086" /><circle cx="1392" cy="2452" r="112" fill="#FFFFFF" opacity="0.214" /><circle cx="1743" cy="1345" r="135" fill="#FFFFFF" opacity="0.105" /><circle cx="718" cy="1987" r="92" fill="#FFFFFF" opacity="0.213" /><circle cx="408" cy="1508" r="42" fill="#FFFFFF" opacity="0.237" /><circle cx="1902" cy="1729" r="59" fill="#FFFFFF" opacity="0.140" /><circle cx="1061" cy="1728" r="80" fill="#FFFFFF" opacity="0.174" /><circle cx="1090" cy="2633" r="104" fill="#FFFFFF" opacity="0.239" /><circle cx="1255" cy="1914" r="78" fill="#FFFFFF" opacity="0.228" /><circle cx="1014" cy="577" r="106" fill="#FFFFFF" opacity="0.167" /><circle cx="1090" cy="1727" r="111" fill="#FFFFFF" opacity="0.087" /><circle cx="2222" cy="1150" r="139" fill="#FFFFFF" opacity="0.141" /><circle cx="644" cy="2272" r="151" fill="#FFFFFF" opacity="0.105" /><circle cx="872" cy="2254" r="40" fill="#FFFFFF" opacity="0.116" /><circle cx="1640" cy="1943" r="130" fill="#FFFFFF" opacity="0.079" /></g>
  <g><path d="M 321.1 650.1 L 2894.5 373.6 L 2894.5 868.2 L 321.1 1144.7 Z" fill="#FFFFFF" opacity="0.169" /><path d="M 382.5 848.9 L 2873.8 572.5 L 2873.8 1056.2 L 382.5 1332.7 Z" fill="#FFFFFF" opacity="0.112" /><path d="M 348.9 1115.8 L 2847.6 839.3 L 2847.6 1299.3 L 348.9 1575.8 Z" fill="#FFFFFF" opacity="0.230" /><path d="M 199.8 1437.6 L 2883.9 1161.1 L 2883.9 1646.6 L 199.8 1923.0 Z" fill="#FFFFFF" opacity="0.166" /><path d="M 344.7 1629.9 L 2699.3 1353.4 L 2699.3 1778.9 L 344.7 2055.4 Z" fill="#FFFFFF" opacity="0.193" /><path d="M 332.0 1920.1 L 2848.9 1643.7 L 2848.9 2140.4 L 332.0 2416.8 Z" fill="#FFFFFF" opacity="0.204" /><path d="M 215.9 2176.9 L 2814.7 1900.4 L 2814.7 2319.4 L 215.9 2595.9 Z" fill="#FFFFFF" opacity="0.211" /><path d="M 265.4 2446.1 L 2879.4 2169.7 L 2879.4 2655.3 L 265.4 2931.8 Z" fill="#FFFFFF" opacity="0.149" /></g>
  <g filter="url(#soft143)"><g transform="rotate(-13.64 1536.0 1536.0)"><path d="M-368.6 486.2 C -225.8 482.3, -25.8 487.4, 107.5 523.7 C 250.4 526.7, 450.4 470.0, 583.7 541.5 C 726.5 521.9, 926.5 437.6, 1059.8 525.7 C 1202.7 528.9, 1402.7 471.1, 1536.0 486.0 C 1678.8 486.0, 1878.8 486.4, 2012.2 446.4 C 2155.0 453.3, 2355.0 533.2, 2488.3 430.9 C 2631.2 414.7, 2831.2 542.0, 2964.5 449.0 C 3107.3 444.5, 3307.3 527.3, 3440.6 489.6" fill="none" stroke="url(#ribbon143)" stroke-width="58.4" stroke-linecap="round" stroke-opacity="0.120" /></g><g transform="rotate(-13.06 1536.0 1536.0)"><path d="M-368.6 736.7 C -241.7 695.9, -63.9 781.9, 54.6 730.3 C 181.6 730.2, 359.4 738.6, 477.9 776.7 C 604.8 778.2, 782.6 706.5, 901.1 798.9 C 1028.1 793.0, 1205.9 676.1, 1324.4 783.3 C 1451.3 788.2, 1629.1 694.5, 1747.6 739.4 C 1874.6 739.0, 2052.4 734.0, 2170.9 693.9 C 2297.9 691.7, 2475.6 751.8, 2594.1 674.3 C 2721.1 698.1, 2898.9 762.3, 3017.4 692.5 C 3144.4 681.9, 3322.1 786.0, 3440.6 737.5" fill="none" stroke="url(#ribbon143)" stroke-width="54.4" stroke-linecap="round" stroke-opacity="0.146" /></g><g transform="rotate(-12.48 1536.0 1536.0)"><path d="M-368.6 879.6 C -254.4 783.2, -94.4 946.3, 12.3 836.3 C 126.6 845.7, 286.6 927.3, 393.2 888.4 C 507.5 886.5, 667.5 869.6, 774.1 935.1 C 888.4 942.8, 1048.4 859.4, 1155.1 948.2 C 1269.4 955.7, 1429.3 853.7, 1536.0 919.7 C 1650.3 914.6, 1810.3 846.6, 1916.9 866.9 C 2031.2 868.8, 2191.2 884.3, 2297.9 821.8 C 2412.1 826.5, 2572.1 919.1, 2678.8 811.8 C 2793.1 793.6, 2953.1 939.3, 3059.7 842.9 C 3174.0 838.6, 3334.0 912.3, 3440.6 896.3" fill="none" stroke="url(#ribbon143)" stroke-width="50.4" stroke-linecap="round" stroke-opacity="0.172" /></g><g transform="rotate(-11.90 1536.0 1536.0)"><path d="M-368.6 1159.0 C -264.8 1111.5, -119.3 1200.5, -22.3 1177.8 C 81.5 1171.7, 227.0 1138.2, 324.0 1225.3 C 427.8 1235.4, 573.3 1106.1, 670.3 1232.5 C 774.1 1248.9, 919.6 1121.6, 1016.6 1195.2 C 1120.4 1196.1, 1265.9 1124.6, 1362.9 1135.9 C 1466.7 1140.4, 1612.2 1177.0, 1709.1 1090.6 C 1813.0 1081.8, 1958.5 1217.5, 2055.4 1086.8 C 2159.3 1071.8, 2304.8 1189.0, 2401.7 1126.7 C 2505.6 1129.7, 2651.1 1172.1, 2748.0 1186.3 C 2851.9 1180.5, 2997.4 1149.9, 3094.3 1229.3 C 3198.2 1247.1, 3343.7 1087.0, 3440.6 1229.6" fill="none" stroke="url(#ribbon143)" stroke-width="46.4" stroke-linecap="round" stroke-opacity="0.198" /></g><g transform="rotate(-11.32 1536.0 1536.0)"><path d="M-368.6 1300.5 C -273.4 1292.9, -140.1 1304.5, -51.2 1236.5 C 44.0 1245.9, 177.4 1349.8, 266.2 1217.4 C 361.5 1250.0, 494.8 1340.5, 583.7 1248.6 C 678.9 1260.3, 812.2 1357.2, 901.1 1311.4 C 996.4 1312.6, 1129.7 1296.7, 1218.6 1367.5 C 1313.8 1341.6, 1447.1 1220.4, 1536.0 1383.0 C 1631.2 1364.8, 1764.6 1248.2, 1853.4 1348.4 C 1948.7 1360.3, 2082.0 1267.1, 2170.9 1284.8 C 2266.1 1289.4, 2399.4 1306.6, 2488.3 1230.7 C 2583.6 1230.3, 2716.9 1372.3, 2805.8 1218.9 C 2901.0 1237.0, 3034.3 1361.6, 3123.2 1256.6 C 3218.4 1270.0, 3351.8 1333.8, 3440.6 1321.0" fill="none" stroke="url(#ribbon143)" stroke-width="42.4" stroke-linecap="round" stroke-opacity="0.224" /></g><g transform="rotate(-10.74 1536.0 1536.0)"><path d="M-368.6 1508.2 C -225.8 1537.6, -25.8 1487.4, 107.5 1465.1 C 250.4 1474.5, 450.4 1535.2, 583.7 1421.0 C 726.5 1433.7, 926.5 1554.3, 1059.8 1429.8 C 1202.7 1401.1, 1402.7 1534.2, 1536.0 1486.2 C 1678.8 1489.5, 1878.8 1515.0, 2012.2 1556.0 C 2155.0 1562.3, 2355.0 1490.1, 2488.3 1596.7 C 2631.2 1631.8, 2831.2 1424.2, 2964.5 1583.8 C 3107.3 1603.5, 3307.3 1438.4, 3440.6 1525.0" fill="none" stroke="url(#ribbon143)" stroke-width="38.4" stroke-linecap="round" stroke-opacity="0.250" /></g><g transform="rotate(-10.16 1536.0 1536.0)"><path d="M-368.6 1737.3 C -241.7 1711.6, -63.9 1779.2, 54.6 1771.1 C 181.6 1779.5, 359.4 1721.0, 477.9 1826.6 C 604.8 1833.7, 782.6 1634.7, 901.1 1827.9 C 1028.1 1847.3, 1205.9 1672.2, 1324.4 1774.3 C 1451.3 1777.9, 1629.1 1698.3, 1747.6 1698.2 C 1874.6 1691.8, 2052.4 1780.5, 2170.9 1645.8 C 2297.9 1619.0, 2475.6 1808.8, 2594.1 1648.9 C 2721.1 1663.3, 2898.9 1796.4, 3017.4 1705.6 C 3144.4 1700.4, 3322.1 1755.1, 3440.6 1781.5" fill="none" stroke="url(#ribbon143)" stroke-width="34.4" stroke-linecap="round" stroke-opacity="0.276" /></g><g transform="rotate(-9.58 1536.0 1536.0)"><path d="M-368.6 1895.8 C -254.4 1841.1, -94.4 1972.0, 12.3 1898.1 C 126.6 1897.2, 286.6 1893.9, 393.2 1972.5 C 507.5 1961.9, 667.5 1822.8, 774.1 2000.4 C 888.4 2042.0, 1048.4 1826.5, 1155.1 1964.7 C 1269.4 1983.2, 1429.3 1817.7, 1536.0 1887.3 C 1650.3 1884.8, 1810.3 1901.0, 1916.9 1814.9 C 2031.2 1818.5, 2191.2 1930.3, 2297.9 1791.6 C 2412.1 1803.7, 2572.1 1974.3, 2678.8 1831.5 C 2793.1 1820.3, 2953.1 1958.6, 3059.7 1910.3 C 3174.0 1915.5, 3334.0 1878.5, 3440.6 1980.3" fill="none" stroke="url(#ribbon143)" stroke-width="30.4" stroke-linecap="round" stroke-opacity="0.302" /></g><g transform="rotate(-9.00 1536.0 1536.0)"><path d="M-368.6 2017.3 C -264.8 1962.0, -119.3 2113.6, -22.3 1906.1 C 81.5 1931.6, 227.0 2130.4, 324.0 1948.1 C 427.8 1961.7, 573.3 2077.9, 670.3 2032.1 C 774.1 2031.1, 919.6 2001.6, 1016.6 2107.1 C 1120.4 2083.4, 1265.9 1967.6, 1362.9 2127.7 C 1466.7 2099.2, 1612.2 1910.8, 1709.1 2081.3 C 1813.0 2085.4, 1958.5 1989.0, 2055.4 1996.1 C 2159.3 2000.9, 2304.8 2027.7, 2401.7 1923.8 C 2505.6 1955.1, 2651.1 2106.0, 2748.0 1908.2 C 2851.9 1867.1, 2997.4 2138.5, 3094.3 1958.8 C 3198.2 1974.9, 3343.7 2086.7, 3440.6 2044.9" fill="none" stroke="url(#ribbon143)" stroke-width="26.4" stroke-linecap="round" stroke-opacity="0.328" /></g><g transform="rotate(-8.42 1536.0 1536.0)"><path d="M-368.6 2319.2 C -273.4 2386.2, -140.1 2265.0, -51.2 2434.8 C 44.0 2439.2, 177.4 2234.5, 266.2 2419.8 C 361.5 2446.4, 494.8 2250.2, 583.7 2343.8 C 678.9 2339.8, 812.2 2298.2, 901.1 2252.9 C 996.4 2234.8, 1129.7 2341.0, 1218.6 2202.2 C 1313.8 2190.6, 1447.1 2418.5, 1536.0 2222.5 C 1631.2 2198.5, 1764.6 2368.0, 1853.4 2301.5 C 1948.7 2300.9, 2082.0 2332.1, 2170.9 2391.2 C 2266.1 2370.6, 2399.4 2252.3, 2488.3 2437.2 C 2583.6 2474.2, 2716.9 2260.5, 2805.8 2411.7 C 2901.0 2445.0, 3034.3 2254.8, 3123.2 2330.1 C 3218.4 2326.3, 3351.8 2312.3, 3440.6 2241.9" fill="none" stroke="url(#ribbon143)" stroke-width="22.4" stroke-linecap="round" stroke-opacity="0.354" /></g><g transform="rotate(-7.84 1536.0 1536.0)"><path d="M-368.6 2425.7 C -225.8 2526.3, -25.8 2311.7, 107.5 2480.3 C 250.4 2485.4, 450.4 2377.8, 583.7 2382.3 C 726.5 2366.6, 926.5 2454.5, 1059.8 2310.7 C 1202.7 2311.0, 1402.7 2494.0, 1536.0 2308.8 C 1678.8 2316.8, 1878.8 2516.5, 2012.2 2377.9 C 2155.0 2392.4, 2355.0 2459.0, 2488.3 2476.0 C 2631.2 2478.4, 2831.2 2402.5, 2964.5 2543.6 C 3107.3 2579.3, 3307.3 2333.7, 3440.6 2539.7" fill="none" stroke="url(#ribbon143)" stroke-width="18.4" stroke-linecap="round" stroke-opacity="0.380" /></g><g transform="rotate(-7.26 1536.0 1536.0)"><path d="M-368.6 2688.5 C -241.7 2832.3, -63.9 2620.5, 54.6 2742.6 C 181.6 2732.0, 359.4 2632.1, 477.9 2639.0 C 604.8 2639.7, 782.6 2734.1, 901.1 2565.5 C 1028.1 2562.7, 1205.9 2741.1, 1324.4 2566.5 C 1451.3 2613.0, 1629.1 2788.3, 1747.6 2641.5 C 1874.6 2654.8, 2052.4 2732.8, 2170.9 2745.0 C 2297.9 2750.1, 2475.6 2641.0, 2594.1 2814.3 C 2721.1 2830.9, 2898.9 2598.9, 3017.4 2807.2 C 3144.4 2798.7, 3322.1 2630.3, 3440.6 2728.1" fill="none" stroke="url(#ribbon143)" stroke-width="14.4" stroke-linecap="round" stroke-opacity="0.406" /></g></g>
  <g><ellipse cx="1536.0" cy="1551.9" rx="728.6" ry="605.7" fill="url(#extrude143)" opacity="0.220" /><ellipse cx="1536.0" cy="1567.7" rx="736.0" ry="610.9" fill="url(#extrude143)" opacity="0.205" /><ellipse cx="1536.0" cy="1583.6" rx="743.4" ry="616.1" fill="url(#extrude143)" opacity="0.190" /><ellipse cx="1536.0" cy="1599.5" rx="750.9" ry="621.3" fill="url(#extrude143)" opacity="0.175" /><ellipse cx="1536.0" cy="1615.4" rx="758.3" ry="626.5" fill="url(#extrude143)" opacity="0.160" /><ellipse cx="1536.0" cy="1631.2" rx="765.7" ry="631.7" fill="url(#extrude143)" opacity="0.145" /><ellipse cx="1536.0" cy="1647.1" rx="773.2" ry="636.9" fill="url(#extrude143)" opacity="0.130" /><ellipse cx="1536.0" cy="1663.0" rx="780.6" ry="642.1" fill="url(#extrude143)" opacity="0.115" /><ellipse cx="1536.0" cy="1678.8" rx="788.0" ry="647.4" fill="url(#extrude143)" opacity="0.100" /><ellipse cx="1536.0" cy="1694.7" rx="795.5" ry="652.6" fill="url(#extrude143)" opacity="0.085" /><ellipse cx="1536.0" cy="1710.6" rx="802.9" ry="657.8" fill="url(#extrude143)" opacity="0.070" /><ellipse cx="1536.0" cy="1726.5" rx="810.3" ry="663.0" fill="url(#extrude143)" opacity="0.055" /></g>
  <ellipse cx="1536.0" cy="1726.5" rx="773.2" ry="214.9" fill="#0B1D2D" opacity="0.24" />
  <ellipse cx="1536.0" cy="1536.0" rx="743.4" ry="651.3" fill="url(#orb143)" stroke="#FFFFFF" stroke-opacity="0.42" stroke-width="7" />
  <ellipse cx="1431.9" cy="1392.7" rx="505.5" ry="299.6" fill="#FFFFFF" opacity="0.25" />
  <path d="M 199.4 399.4 C 1013.8 -30.7, 2058.2 768.0, 2872.6 215.0 L 2872.6 983.0 C 2089.0 1228.8, 1013.8 307.2, 199.4 1167.4 Z" fill="url(#glass143)" />
  <rect x="270" y="270" width="2532" height="2532" rx="430" fill="none" stroke="#FFFFFF" stroke-opacity="0.30" stroke-width="5" />
  <rect x="288.4" y="288.4" width="2495.1" height="2495.1" rx="399" fill="none" stroke="#FF6AB3" stroke-opacity="0.35" stroke-width="3" />
  <g filter="url(#soft143)"><rect x="2549" y="476" width="50" height="2" fill="#FFFFFF" opacity="0.555" /><rect x="2573" y="452" width="2" height="50" fill="#FFFFFF" opacity="0.555" /><rect x="2571" y="2145" width="48" height="2" fill="#FFFFFF" opacity="0.427" /><rect x="2594" y="2122" width="2" height="48" fill="#FFFFFF" opacity="0.427" /><rect x="1843" y="1376" width="32" height="2" fill="#FFFFFF" opacity="0.598" /><rect x="1858" y="1361" width="2" height="32" fill="#FFFFFF" opacity="0.598" /><rect x="851" y="667" width="24" height="2" fill="#FFFFFF" opacity="0.821" /><rect x="862" y="656" width="2" height="24" fill="#FFFFFF" opacity="0.821" /><rect x="2216" y="2139" width="70" height="2" fill="#FFFFFF" opacity="0.378" /><rect x="2250" y="2105" width="2" height="70" fill="#FFFFFF" opacity="0.378" /><rect x="1690" y="2362" width="60" height="2" fill="#FFFFFF" opacity="0.475" /><rect x="1719" y="2333" width="2" height="60" fill="#FFFFFF" opacity="0.475" /><rect x="837" y="1404" width="52" height="2" fill="#FFFFFF" opacity="0.793" /><rect x="862" y="1379" width="2" height="52" fill="#FFFFFF" opacity="0.793" /><rect x="1963" y="505" width="30" height="2" fill="#FFFFFF" opacity="0.658" /><rect x="1977" y="491" width="2" height="30" fill="#FFFFFF" opacity="0.658" /><rect x="929" y="1165" width="56" height="2" fill="#FFFFFF" opacity="0.507" /><rect x="956" y="1138" width="2" height="56" fill="#FFFFFF" opacity="0.507" /><rect x="2519" y="1421" width="30" height="2" fill="#FFFFFF" opacity="0.631" /><rect x="2533" y="1407" width="2" height="30" fill="#FFFFFF" opacity="0.631" /><rect x="2158" y="859" width="64" height="2" fill="#FFFFFF" opacity="0.300" /><rect x="2189" y="828" width="2" height="64" fill="#FFFFFF" opacity="0.300" /><rect x="564" y="1330" width="40" height="2" fill="#FFFFFF" opacity="0.577" /><rect x="583" y="1311" width="2" height="40" fill="#FFFFFF" opacity="0.577" /><rect x="1072" y="1044" width="32" height="2" fill="#FFFFFF" opacity="0.448" /><rect x="1087" y="1029" width="2" height="32" fill="#FFFFFF" opacity="0.448" /><rect x="2122" y="501" width="40" height="2" fill="#FFFFFF" opacity="0.302" /><rect x="2141" y="482" width="2" height="40" fill="#FFFFFF" opacity="0.302" /><rect x="1742" y="1576" width="38" height="2" fill="#FFFFFF" opacity="0.467" /><rect x="1760" y="1558" width="2" height="38" fill="#FFFFFF" opacity="0.467" /><rect x="1944" y="1820" width="62" height="2" fill="#FFFFFF" opacity="0.301" /><rect x="1974" y="1790" width="2" height="62" fill="#FFFFFF" opacity="0.301" /><rect x="1548" y="1834" width="60" height="2" fill="#FFFFFF" opacity="0.683" /><rect x="1577" y="1805" width="2" height="60" fill="#FFFFFF" opacity="0.683" /><rect x="1441" y="1329" width="64" height="2" fill="#FFFFFF" opacity="0.807" /><rect x="1472" y="1298" width="2" height="64" fill="#FFFFFF" opacity="0.807" /><rect x="2158" y="462" width="70" height="2" fill="#FFFFFF" opacity="0.676" /><rect x="2192" y="428" width="2" height="70" fill="#FFFFFF" opacity="0.676" /><rect x="1470" y="962" width="46" height="2" fill="#FFFFFF" opacity="0.451" /><rect x="1492" y="940" width="2" height="46" fill="#FFFFFF" opacity="0.451" /><rect x="550" y="2210" width="52" height="2" fill="#FFFFFF" opacity="0.639" /><rect x="575" y="2185" width="2" height="52" fill="#FFFFFF" opacity="0.639" /><rect x="361" y="662" width="66" height="2" fill="#FFFFFF" opacity="0.599" /><rect x="393" y="630" width="2" height="66" fill="#FFFFFF" opacity="0.599" /><rect x="330" y="1619" width="52" height="2" fill="#FFFFFF" opacity="0.716" /><rect x="355" y="1594" width="2" height="52" fill="#FFFFFF" opacity="0.716" /><rect x="2289" y="2614" width="44" height="2" fill="#FFFFFF" opacity="0.513" /><rect x="2310" y="2593" width="2" height="44" fill="#FFFFFF" opacity="0.513" /><rect x="630" y="1507" width="26" height="2" fill="#FFFFFF" opacity="0.510" /><rect x="642" y="1495" width="2" height="26" fill="#FFFFFF" opacity="0.510" /><rect x="369" y="2414" width="38" height="2" fill="#FFFFFF" opacity="0.381" /><rect x="387" y="2396" width="2" height="38" fill="#FFFFFF" opacity="0.381" /></g>
  <g opacity="0.52"><path d="M996 1006 L2148 1006 L2148 2158 L996 2158 Z" fill="none" stroke="#0C2030" stroke-width="90" /><path d="M996 1582 L2148 1582" stroke="#0C2030" stroke-width="90" /><path d="M1572 1006 L1572 2158" stroke="#0C2030" stroke-width="90" /></g>
  <g filter="url(#soft143)"><path d="M960 960 L2112 960 L2112 2112 L960 2112 Z" fill="none" stroke="url(#symbol143)" stroke-width="90" /><path d="M960 1536 L2112 1536" stroke="url(#symbol143)" stroke-width="90" /><path d="M1536 960 L1536 2112" stroke="url(#symbol143)" stroke-width="90" /></g>
  <rect x="138" y="138" width="2796" height="2796" rx="629" fill="#FFFFFF" filter="url(#grain143)" opacity="0.18" />
</svg>
