<svg xmlns="http://www.w3.org/2000/svg" width="3072" height="3072" viewBox="0 0 3072 3072">
  <title>QuartzOS App Icon 150 - tidal_viewer_150</title>
  <defs><linearGradient id="bg149" x1="0%" y1="0%" x2="100%" y2="100%"><stop offset="0%" stop-color="#8A5CFF" /><stop offset="26%" stop-color="#FF9F43" /><stop offset="56%" stop-color="#53E3A6" /><stop offset="78%" stop-color="#B37A46" /><stop offset="100%" stop-color="#27201B" /></linearGradient><radialGradient id="sun149" cx="27%" cy="12%" r="88%"><stop offset="0%" stop-color="#FFFFFF" stop-opacity="0.62" /><stop offset="30%" stop-color="#36D1FF" stop-opacity="0.35" /><stop offset="100%" stop-color="#36D1FF" stop-opacity="0" /></radialGradient><linearGradient id="glass149" x1="0%" y1="0%" x2="0%" y2="100%"><stop offset="0%" stop-color="#FFFFFF" stop-opacity="0.70" /><stop offset="46%" stop-color="#FFFFFF" stop-opacity="0.26" /><stop offset="100%" stop-color="#FFFFFF" stop-opacity="0.00" /></linearGradient><linearGradient id="ribbon149" x1="0%" y1="0%" x2="100%" y2="0%"><stop offset="0%" stop-color="#8A5CFF" stop-opacity="0.18" /><stop offset="34%" stop-color="#FF9F43" stop-opacity="0.72" /><stop offset="66%" stop-color="#53E3A6" stop-opacity="0.72" /><stop offset="100%" stop-color="#36D1FF" stop-opacity="0.18" /></linearGradient><radialGradient id="orb149" cx="34%" cy="27%" r="74%"><stop offset="0%" stop-color="#FFFFFF" stop-opacity="0.84" /><stop offset="30%" stop-color="#8A5CFF" stop-opacity="0.52" /><stop offset="68%" stop-color="#FF9F43" stop-opacity="0.42" /><stop offset="100%" stop-color="#53E3A6" stop-opacity="0.20" /></radialGradient><linearGradient id="extrude149" x1="0%" y1="0%" x2="0%" y2="100%"><stop offset="0%" stop-color="#15283C" stop-opacity="0.45" /><stop offset="100%" stop-color="#08131D" stop-opacity="0.06" /></linearGradient><linearGradient id="symbol149" x1="0%" y1="0%" x2="100%" y2="100%"><stop offset="0%" stop-color="#FFFFFF" /><stop offset="100%" stop-color="#36D1FF" /></linearGradient><filter id="shadow149" x="-40%" y="-40%" width="180%" height="180%"><feDropShadow dx="0" dy="49" stdDeviation="86" flood-color="#06111A" flood-opacity="0.54" /></filter><filter id="soft149" x="-40%" y="-40%" width="180%" height="180%"><feDropShadow dx="0" dy="0" stdDeviation="14" flood-color="#8A5CFF" flood-opacity="0.45" /></filter><filter id="grain149"><feTurbulence type="fractalNoise" baseFrequency="0.944" numOctaves="2" seed="149" /><feColorMatrix type="saturate" values="0" /><feComponentTransfer><feFuncA type="table" tableValues="0 0.09" /></feComponentTransfer></filter></defs>
  <rect x="138" y="138" width="2796" height="2796" rx="629" fill="url(#bg149)" filter="url(#shadow149)" />
  <rect x="138" y="138" width="2796" height="2796" rx="629" fill="url(#sun149)" />
  <g><circle cx="738" cy="2374" r="117" fill="#FFFFFF" opacity="0.206" /><circle cx="601" cy="663" r="114" fill="#FFFFFF" opacity="0.078" /><circle cx="1822" cy="2205" r="132" fill="#FFFFFF" opacity="0.192" /><circle cx="2282" cy="1193" r="141" fill="#FFFFFF" opacity="0.195" /><circle cx="2640" cy="679" r="93" fill="#FFFFFF" opacity="0.094" /><circle cx="2002" cy="1987" r="40" fill="#FFFFFF" opacity="0.148" /><circle cx="747" cy="2218" r="44" fill="#FFFFFF" opacity="0.134" /><circle cx="2231" cy="1980" r="91" fill="#FFFFFF" opacity="0.070" /><circle cx="1012" cy="2107" r="96" fill="#FFFFFF" opacity="0.172" /><circle cx="1834" cy="2299" r="141" fill="#FFFFFF" opacity="0.082" /><circle cx="2143" cy="801" r="128" fill="#FFFFFF" opacity="0.071" /><circle cx="2229" cy="2072" r="130" fill="#FFFFFF" opacity="0.215" /><circle cx="2616" cy="1606" r="93" fill="#FFFFFF" opacity="0.165" /><circle cx="2589" cy="1578" r="101" fill="#FFFFFF" opacity="0.076" /><circle cx="2672" cy="1326" r="40" fill="#FFFFFF" opacity="0.215" /><circle cx="451" cy="755" r="63" fill="#FFFFFF" opacity="0.237" /><circle cx="2368" cy="2622" r="128" fill="#FFFFFF" opacity="0.079" /><circle cx="2391" cy="2650" r="85" fill="#FFFFFF" opacity="0.119" /><circle cx="2694" cy="2561" r="114" fill="#FFFFFF" opacity="0.125" /><circle cx="407" cy="2636" r="106" fill="#FFFFFF" opacity="0.127" /><circle cx="414" cy="482" r="53" fill="#FFFFFF" opacity="0.130" /><circle cx="399" cy="1754" r="108" fill="#FFFFFF" opacity="0.096" /><circle cx="2321" cy="1221" r="112" fill="#FFFFFF" opacity="0.070" /><circle cx="2340" cy="1017" r="127" fill="#FFFFFF" opacity="0.183" /><circle cx="521" cy="1709" r="117" fill="#FFFFFF" opacity="0.122" /><circle cx="2203" cy="673" r="132" fill="#FFFFFF" opacity="0.064" /><circle cx="2154" cy="1693" r="60" fill="#FFFFFF" opacity="0.223" /><circle cx="1611" cy="2004" r="116" fill="#FFFFFF" opacity="0.205" /></g>
  <g><path d="M 383.1 611.8 L 2781.6 335.4 L 2781.6 765.6 L 383.1 1042.0 Z" fill="#FFFFFF" opacity="0.183" /><path d="M 165.7 898.0 L 2844.1 621.5 L 2844.1 1083.9 L 165.7 1360.4 Z" fill="#FFFFFF" opacity="0.181" /><path d="M 381.1 1141.0 L 2757.2 864.6 L 2757.2 1295.5 L 381.1 1572.0 Z" fill="#FFFFFF" opacity="0.239" /><path d="M 367.0 1396.1 L 2790.4 1119.6 L 2790.4 1567.5 L 367.0 1843.9 Z" fill="#FFFFFF" opacity="0.214" /><path d="M 377.2 1653.0 L 2862.5 1376.5 L 2862.5 1804.0 L 377.2 2080.5 Z" fill="#FFFFFF" opacity="0.213" /><path d="M 303.9 1963.0 L 2885.3 1686.5 L 2885.3 2182.2 L 303.9 2458.7 Z" fill="#FFFFFF" opacity="0.095" /><path d="M 346.6 2144.0 L 2796.5 1867.5 L 2796.5 2299.6 L 346.6 2576.0 Z" fill="#FFFFFF" opacity="0.111" /><path d="M 316.5 2471.3 L 2872.9 2194.8 L 2872.9 2619.7 L 316.5 2896.1 Z" fill="#FFFFFF" opacity="0.081" /></g>
  <g filter="url(#soft149)"><g transform="rotate(-17.39 1536.0 1536.0)"><path d="M-368.6 510.5 C -225.8 515.0, -25.8 508.5, 107.5 553.5 C 250.4 551.6, 450.4 471.3, 583.7 565.4 C 726.5 581.1, 926.5 485.9, 1059.8 544.1 C 1202.7 535.5, 1402.7 500.1, 1536.0 502.4 C 1678.8 502.7, 1878.8 519.8, 2012.2 465.7 C 2155.0 450.4, 2355.0 533.0, 2488.3 456.1 C 2631.2 469.2, 2831.2 540.5, 2964.5 479.6 C 3107.3 486.5, 3307.3 537.4, 3440.6 521.8" fill="none" stroke="url(#ribbon149)" stroke-width="58.4" stroke-linecap="round" stroke-opacity="0.120" /></g><g transform="rotate(-16.81 1536.0 1536.0)"><path d="M-368.6 678.9 C -241.7 653.4, -63.9 698.6, 54.6 622.2 C 181.6 636.9, 359.4 697.0, 477.9 620.8 C 604.8 622.1, 782.6 711.8, 901.1 654.6 C 1028.1 650.8, 1205.9 687.5, 1324.4 703.2 C 1451.3 705.0, 1629.1 651.9, 1747.6 737.0 C 1874.6 730.1, 2052.4 627.2, 2170.9 735.6 C 2297.9 722.0, 2475.6 628.6, 2594.1 699.8 C 2721.1 693.6, 2898.9 662.9, 3017.4 651.4 C 3144.4 655.5, 3322.1 692.1, 3440.6 619.6" fill="none" stroke="url(#ribbon149)" stroke-width="54.4" stroke-linecap="round" stroke-opacity="0.146" /></g><g transform="rotate(-16.23 1536.0 1536.0)"><path d="M-368.6 898.8 C -254.4 890.3, -94.4 909.1, 12.3 841.4 C 126.6 841.7, 286.6 942.7, 393.2 830.8 C 507.5 818.4, 667.5 940.3, 774.1 861.4 C 888.4 862.4, 1048.4 927.9, 1155.1 914.7 C 1269.4 917.4, 1429.3 890.0, 1536.0 958.4 C 1650.3 978.4, 1810.3 877.8, 1916.9 965.9 C 2031.2 990.6, 2191.2 818.7, 2297.9 932.7 C 2412.1 941.9, 2572.1 860.7, 2678.8 879.0 C 2793.1 881.4, 2953.1 914.0, 3059.7 837.2 C 3174.0 836.9, 3334.0 958.8, 3440.6 832.9" fill="none" stroke="url(#ribbon149)" stroke-width="50.4" stroke-linecap="round" stroke-opacity="0.172" /></g><g transform="rotate(-15.65 1536.0 1536.0)"><path d="M-368.6 1044.1 C -264.8 1049.7, -119.3 1040.5, -22.3 1102.8 C 81.5 1115.7, 227.0 997.2, 324.0 1120.2 C 427.8 1136.2, 573.3 999.4, 670.3 1091.4 C 774.1 1089.3, 919.6 1002.7, 1016.6 1033.9 C 1120.4 1030.5, 1265.9 1051.3, 1362.9 982.6 C 1466.7 984.3, 1612.2 1075.6, 1709.1 968.6 C 1813.0 963.3, 1958.5 1096.5, 2055.4 1000.4 C 2159.3 983.8, 2304.8 1075.0, 2401.7 1058.7 C 2505.6 1061.9, 2651.1 1035.3, 2748.0 1108.1 C 2851.9 1087.4, 2997.4 1015.6, 3094.3 1118.7 C 3198.2 1138.0, 3343.7 964.4, 3440.6 1084.0" fill="none" stroke="url(#ribbon149)" stroke-width="46.4" stroke-linecap="round" stroke-opacity="0.198" /></g><g transform="rotate(-15.07 1536.0 1536.0)"><path d="M-368.6 1274.2 C -273.4 1359.2, -140.1 1207.1, -51.2 1357.0 C 44.0 1329.1, 177.4 1204.4, 266.2 1323.7 C 361.5 1318.3, 494.8 1222.2, 583.7 1260.4 C 678.9 1255.3, 812.2 1279.6, 901.1 1205.5 C 996.4 1188.7, 1129.7 1333.6, 1218.6 1192.2 C 1313.8 1214.5, 1447.1 1318.2, 1536.0 1228.7 C 1631.2 1216.8, 1764.6 1326.2, 1853.4 1292.7 C 1948.7 1286.0, 2082.0 1255.0, 2170.9 1345.6 C 2266.1 1330.9, 2399.4 1236.1, 2488.3 1355.1 C 2583.6 1327.7, 2716.9 1190.5, 2805.8 1315.6 C 2901.0 1325.4, 3034.3 1259.3, 3123.2 1250.9 C 3218.4 1254.5, 3351.8 1283.1, 3440.6 1200.4" fill="none" stroke="url(#ribbon149)" stroke-width="42.4" stroke-linecap="round" stroke-opacity="0.224" /></g><g transform="rotate(-14.49 1536.0 1536.0)"><path d="M-368.6 1503.8 C -225.8 1429.7, -25.8 1554.5, 107.5 1447.8 C 250.4 1442.5, 450.4 1564.9, 583.7 1515.9 C 726.5 1511.7, 926.5 1499.4, 1059.8 1576.7 C 1202.7 1575.2, 1402.7 1472.3, 1536.0 1593.2 C 1678.8 1608.0, 1878.8 1456.8, 2012.2 1555.5 C 2155.0 1566.1, 2355.0 1466.7, 2488.3 1486.4 C 2631.2 1488.9, 2831.2 1510.1, 2964.5 1427.9 C 3107.3 1433.7, 3307.3 1589.6, 3440.6 1415.4" fill="none" stroke="url(#ribbon149)" stroke-width="38.4" stroke-linecap="round" stroke-opacity="0.250" /></g><g transform="rotate(-13.91 1536.0 1536.0)"><path d="M-368.6 1701.8 C -241.7 1588.3, -63.9 1761.1, 54.6 1646.5 C 181.6 1631.4, 359.4 1730.1, 477.9 1721.0 C 604.8 1720.1, 782.6 1694.8, 901.1 1783.9 C 1028.1 1793.1, 1205.9 1656.0, 1324.4 1797.0 C 1451.3 1802.0, 1629.1 1600.6, 1747.6 1752.3 C 1874.6 1747.6, 2052.4 1686.4, 2170.9 1677.0 C 2297.9 1684.7, 2475.6 1714.3, 2594.1 1616.7 C 2721.1 1621.4, 2898.9 1738.6, 3017.4 1608.1 C 3144.4 1577.4, 3322.1 1786.1, 3440.6 1656.3" fill="none" stroke="url(#ribbon149)" stroke-width="34.4" stroke-linecap="round" stroke-opacity="0.276" /></g><g transform="rotate(-13.33 1536.0 1536.0)"><path d="M-368.6 1929.8 C -254.4 1974.6, -94.4 1891.6, 12.3 1926.2 C 126.6 1927.6, 286.6 1931.2, 393.2 1852.2 C 507.5 1847.5, 667.5 2013.6, 774.1 1825.3 C 888.4 1866.7, 1048.4 1962.0, 1155.1 1861.7 C 1269.4 1836.2, 1429.3 1954.6, 1536.0 1939.5 C 1650.3 1941.8, 1810.3 1922.1, 1916.9 2011.4 C 2031.2 2027.8, 2191.2 1896.2, 2297.9 2033.8 C 2412.1 1996.5, 2572.1 1888.7, 2678.8 1993.1 C 2793.1 2002.1, 2953.1 1862.6, 3059.7 1914.0 C 3174.0 1912.9, 3334.0 1942.0, 3440.6 1844.5" fill="none" stroke="url(#ribbon149)" stroke-width="30.4" stroke-linecap="round" stroke-opacity="0.302" /></g><g transform="rotate(-12.75 1536.0 1536.0)"><path d="M-368.6 2098.2 C -264.8 2237.8, -119.3 2052.4, -22.3 2150.1 C 81.5 2131.4, 227.0 2061.9, 324.0 2063.3 C 427.8 2077.2, 573.3 2129.2, 670.3 1997.7 C 774.1 2022.6, 919.6 2156.2, 1016.6 1993.0 C 1120.4 2022.8, 1265.9 2166.0, 1362.9 2052.2 C 1466.7 2033.8, 1612.2 2122.0, 1709.1 2139.3 C 1813.0 2143.5, 1958.5 2057.1, 2055.4 2201.4 C 2159.3 2168.4, 2304.8 2034.5, 2401.7 2201.0 C 2505.6 2237.9, 2651.1 2046.6, 2748.0 2138.2 C 2851.9 2149.3, 2997.4 2078.3, 3094.3 2051.1 C 3198.2 2053.6, 3343.7 2132.6, 3440.6 1992.6" fill="none" stroke="url(#ribbon149)" stroke-width="26.4" stroke-linecap="round" stroke-opacity="0.328" /></g><g transform="rotate(-12.17 1536.0 1536.0)"><path d="M-368.6 2214.7 C -273.4 2282.5, -140.1 2171.2, -51.2 2196.7 C 44.0 2199.9, 177.4 2226.4, 266.2 2117.9 C 361.5 2146.0, 494.8 2275.3, 583.7 2097.8 C 678.9 2097.8, 812.2 2250.7, 901.1 2148.7 C 996.4 2149.8, 1129.7 2273.4, 1218.6 2239.7 C 1313.8 2246.4, 1447.1 2196.5, 1536.0 2315.5 C 1631.2 2331.2, 1764.6 2167.2, 1853.4 2330.2 C 1948.7 2361.9, 2082.0 2129.8, 2170.9 2274.9 C 2266.1 2273.6, 2399.4 2191.4, 2488.3 2183.1 C 2583.6 2194.6, 2716.9 2226.2, 2805.8 2110.5 C 2901.0 2082.6, 3034.3 2323.0, 3123.2 2101.1 C 3218.4 2055.8, 3351.8 2279.9, 3440.6 2160.7" fill="none" stroke="url(#ribbon149)" stroke-width="22.4" stroke-linecap="round" stroke-opacity="0.354" /></g><g transform="rotate(-11.59 1536.0 1536.0)"><path d="M-368.6 2408.8 C -225.8 2485.0, -25.8 2278.9, 107.5 2513.3 C 250.4 2525.5, 450.4 2290.4, 583.7 2431.1 C 726.5 2437.3, 926.5 2384.4, 1059.8 2335.4 C 1202.7 2350.5, 1402.7 2467.9, 1536.0 2284.3 C 1678.8 2266.0, 1878.8 2478.9, 2012.2 2308.7 C 2155.0 2329.2, 2355.0 2491.0, 2488.3 2393.8 C 2631.2 2393.8, 2831.2 2422.3, 2964.5 2488.1 C 3107.3 2513.1, 3307.3 2321.0, 3440.6 2534.3" fill="none" stroke="url(#ribbon149)" stroke-width="18.4" stroke-linecap="round" stroke-opacity="0.380" /></g><g transform="rotate(-11.01 1536.0 1536.0)"><path d="M-368.6 2653.9 C -241.7 2524.2, -63.9 2763.8, 54.6 2548.0 C 181.6 2578.1, 359.4 2728.8, 477.9 2637.9 C 604.8 2641.9, 782.6 2662.2, 901.1 2737.5 C 1028.1 2766.6, 1205.9 2589.8, 1324.4 2786.4 C 1451.3 2812.5, 1629.1 2526.0, 1747.6 2754.9 C 1874.6 2741.2, 2052.4 2606.7, 2170.9 2662.2 C 2297.9 2661.7, 2475.6 2646.2, 2594.1 2564.4 C 2721.1 2592.0, 2898.9 2739.5, 3017.4 2520.9 C 3144.4 2490.2, 3322.1 2777.7, 3440.6 2558.1" fill="none" stroke="url(#ribbon149)" stroke-width="14.4" stroke-linecap="round" stroke-opacity="0.406" /></g></g>
  <g><ellipse cx="1536.0" cy="1551.9" rx="728.6" ry="605.7" fill="url(#extrude149)" opacity="0.220" /><ellipse cx="1536.0" cy="1567.7" rx="736.0" ry="610.9" fill="url(#extrude149)" opacity="0.205" /><ellipse cx="1536.0" cy="1583.6" rx="743.4" ry="616.1" fill="url(#extrude149)" opacity="0.190" /><ellipse cx="1536.0" cy="1599.5" rx="750.9" ry="621.3" fill="url(#extrude149)" opacity="0.175" /><ellipse cx="1536.0" cy="1615.4" rx="758.3" ry="626.5" fill="url(#extrude149)" opacity="0.160" /><ellipse cx="1536.0" cy="1631.2" rx="765.7" ry="631.7" fill="url(#extrude149)" opacity="0.145" /><ellipse cx="1536.0" cy="1647.1" rx="773.2" ry="636.9" fill="url(#extrude149)" opacity="0.130" /><ellipse cx="1536.0" cy="1663.0" rx="780.6" ry="642.1" fill="url(#extrude149)" opacity="0.115" /><ellipse cx="1536.0" cy="1678.8" rx="788.0" ry="647.4" fill="url(#extrude149)" opacity="0.100" /><ellipse cx="1536.0" cy="1694.7" rx="795.5" ry="652.6" fill="url(#extrude149)" opacity="0.085" /><ellipse cx="1536.0" cy="1710.6" rx="802.9" ry="657.8" fill="url(#extrude149)" opacity="0.070" /><ellipse cx="1536.0" cy="1726.5" rx="810.3" ry="663.0" fill="url(#extrude149)" opacity="0.055" /></g>
  <ellipse cx="1536.0" cy="1726.5" rx="773.2" ry="214.9" fill="#0B1D2D" opacity="0.24" />
  <ellipse cx="1536.0" cy="1536.0" rx="743.4" ry="651.3" fill="url(#orb149)" stroke="#FFFFFF" stroke-opacity="0.42" stroke-width="7" />
  <ellipse cx="1431.9" cy="1392.7" rx="505.5" ry="299.6" fill="#FFFFFF" opacity="0.25" />
  <path d="M 199.4 399.4 C 1013.8 -30.7, 2058.2 768.0, 2872.6 215.0 L 2872.6 983.0 C 2089.0 1228.8, 1013.8 307.2, 199.4 1167.4 Z" fill="url(#glass149)" />
  <rect x="270" y="270" width="2532" height="2532" rx="430" fill="none" stroke="#FFFFFF" stroke-opacity="0.30" stroke-width="5" />
  <rect x="288.4" y="288.4" width="2495.1" height="2495.1" rx="399" fill="none" stroke="#8A5CFF" stroke-opacity="0.35" stroke-width="3" />
  <g filter="url(#soft149)"><rect x="2707" y="2475" width="40" height="2" fill="#FFFFFF" opacity="0.345" /><rect x="2726" y="2456" width="2" height="40" fill="#FFFFFF" opacity="0.345" /><rect x="1540" y="304" width="64" height="2" fill="#FFFFFF" opacity="0.801" /><rect x="1571" y="273" width="2" height="64" fill="#FFFFFF" opacity="0.801" /><rect x="2146" y="248" width="76" height="2" fill="#FFFFFF" opacity="0.537" /><rect x="2183" y="211" width="2" height="76" fill="#FFFFFF" opacity="0.537" /><rect x="2309" y="2491" width="60" height="2" fill="#FFFFFF" opacity="0.383" /><rect x="2338" y="2462" width="2" height="60" fill="#FFFFFF" opacity="0.383" /><rect x="943" y="361" width="28" height="2" fill="#FFFFFF" opacity="0.432" /><rect x="956" y="348" width="2" height="28" fill="#FFFFFF" opacity="0.432" /><rect x="1768" y="739" width="38" height="2" fill="#FFFFFF" opacity="0.301" /><rect x="1786" y="721" width="2" height="38" fill="#FFFFFF" opacity="0.301" /><rect x="1643" y="1605" width="80" height="2" fill="#FFFFFF" opacity="0.611" /><rect x="1682" y="1566" width="2" height="80" fill="#FFFFFF" opacity="0.611" /><rect x="1270" y="305" width="54" height="2" fill="#FFFFFF" opacity="0.337" /><rect x="1296" y="279" width="2" height="54" fill="#FFFFFF" opacity="0.337" /><rect x="1040" y="926" width="72" height="2" fill="#FFFFFF" opacity="0.810" /><rect x="1075" y="891" width="2" height="72" fill="#FFFFFF" opacity="0.810" /><rect x="1450" y="2389" width="76" height="2" fill="#FFFFFF" opacity="0.327" /><rect x="1487" y="2352" width="2" height="76" fill="#FFFFFF" opacity="0.327" /><rect x="1844" y="2426" width="28" height="2" fill="#FFFFFF" opacity="0.307" /><rect x="1857" y="2413" width="2" height="28" fill="#FFFFFF" opacity="0.307" /><rect x="336" y="302" width="58" height="2" fill="#FFFFFF" opacity="0.630" /><rect x="364" y="274" width="2" height="58" fill="#FFFFFF" opacity="0.630" /><rect x="888" y="1956" width="48" height="2" fill="#FFFFFF" opacity="0.416" /><rect x="911" y="1933" width="2" height="48" fill="#FFFFFF" opacity="0.416" /><rect x="412" y="1612" width="80" height="2" fill="#FFFFFF" opacity="0.311" /><rect x="451" y="1573" width="2" height="80" fill="#FFFFFF" opacity="0.311" /><rect x="1505" y="2728" width="56" height="2" fill="#FFFFFF" opacity="0.820" /><rect x="1532" y="2701" width="2" height="56" fill="#FFFFFF" opacity="0.820" /><rect x="2192" y="695" width="62" height="2" fill="#FFFFFF" opacity="0.708" /><rect x="2222" y="665" width="2" height="62" fill="#FFFFFF" opacity="0.708" /><rect x="1864" y="1485" width="62" height="2" fill="#FFFFFF" opacity="0.754" /><rect x="1894" y="1455" width="2" height="62" fill="#FFFFFF" opacity="0.754" /><rect x="1454" y="2453" width="30" height="2" fill="#FFFFFF" opacity="0.649" /><rect x="1468" y="2439" width="2" height="30" fill="#FFFFFF" opacity="0.649" /><rect x="2560" y="650" width="42" height="2" fill="#FFFFFF" opacity="0.636" /><rect x="2580" y="630" width="2" height="42" fill="#FFFFFF" opacity="0.636" /><rect x="662" y="1481" width="32" height="2" fill="#FFFFFF" opacity="0.374" /><rect x="677" y="1466" width="2" height="32" fill="#FFFFFF" opacity="0.374" /><rect x="389" y="1105" width="26" height="2" fill="#FFFFFF" opacity="0.842" /><rect x="401" y="1093" width="2" height="26" fill="#FFFFFF" opacity="0.842" /><rect x="1662" y="2319" width="38" height="2" fill="#FFFFFF" opacity="0.391" /><rect x="1680" y="2301" width="2" height="38" fill="#FFFFFF" opacity="0.391" /><rect x="1252" y="801" width="42" height="2" fill="#FFFFFF" opacity="0.381" /><rect x="1272" y="781" width="2" height="42" fill="#FFFFFF" opacity="0.381" /><rect x="2210" y="2711" width="44" height="2" fill="#FFFFFF" opacity="0.790" /><rect x="2231" y="2690" width="2" height="44" fill="#FFFFFF" opacity="0.790" /><rect x="1747" y="1709" width="32" height="2" fill="#FFFFFF" opacity="0.412" /><rect x="1762" y="1694" width="2" height="32" fill="#FFFFFF" opacity="0.412" /><rect x="1535" y="320" width="52" height="2" fill="#FFFFFF" opacity="0.445" /><rect x="1560" y="295" width="2" height="52" fill="#FFFFFF" opacity="0.445" /></g>
  <g opacity="0.52"><rect x="1023" y="1121" width="1152" height="1024" rx="153" fill="none" stroke="#0C2030" stroke-width="90" /><line x1="1023" y1="1326" x2="2148" y2="1326" stroke="#0C2030" stroke-width="90" /><line x1="1316" y1="1033" x2="1316" y2="1121" stroke="#0C2030" stroke-width="90" /><line x1="1828" y1="1033" x2="1828" y2="1121" stroke="#0C2030" stroke-width="90" /></g>
  <g filter="url(#soft149)"><rect x="987" y="1075" width="1152" height="1024" rx="153" fill="none" stroke="url(#symbol149)" stroke-width="90" /><line x1="987" y1="1280" x2="2112" y2="1280" stroke="url(#symbol149)" stroke-width="90" /><line x1="1280" y1="987" x2="1280" y2="1075" stroke="url(#symbol149)" stroke-width="90" /><line x1="1792" y1="987" x2="1792" y2="1075" stroke="url(#symbol149)" stroke-width="90" /></g>
  <rect x="138" y="138" width="2796" height="2796" rx="629" fill="#FFFFFF" filter="url(#grain149)" opacity="0.18" />
</svg>
