<svg xmlns="http://www.w3.org/2000/svg" width="3072" height="3072" viewBox="0 0 3072 3072">
  <title>QuartzOS App Icon 110 - tidal_cloud_110</title>
  <defs><linearGradient id="bg109" x1="0%" y1="0%" x2="100%" y2="100%"><stop offset="0%" stop-color="#FF9F43" /><stop offset="26%" stop-color="#53E3A6" /><stop offset="56%" stop-color="#3B82FF" /><stop offset="78%" stop-color="#2E8D96" /><stop offset="100%" stop-color="#0F2A2E" /></linearGradient><radialGradient id="sun109" cx="29%" cy="20%" r="88%"><stop offset="0%" stop-color="#FFFFFF" stop-opacity="0.62" /><stop offset="30%" stop-color="#8A5CFF" stop-opacity="0.35" /><stop offset="100%" stop-color="#8A5CFF" stop-opacity="0" /></radialGradient><linearGradient id="glass109" x1="0%" y1="0%" x2="0%" y2="100%"><stop offset="0%" stop-color="#FFFFFF" stop-opacity="0.70" /><stop offset="46%" stop-color="#FFFFFF" stop-opacity="0.26" /><stop offset="100%" stop-color="#FFFFFF" stop-opacity="0.00" /></linearGradient><linearGradient id="ribbon109" x1="0%" y1="0%" x2="100%" y2="0%"><stop offset="0%" stop-color="#FF9F43" stop-opacity="0.18" /><stop offset="34%" stop-color="#53E3A6" stop-opacity="0.72" /><stop offset="66%" stop-color="#3B82FF" stop-opacity="0.72" /><stop offset="100%" stop-color="#8A5CFF" stop-opacity="0.18" /></linearGradient><radialGradient id="orb109" cx="34%" cy="27%" r="74%"><stop offset="0%" stop-color="#FFFFFF" stop-opacity="0.84" /><stop offset="30%" stop-color="#FF9F43" stop-opacity="0.52" /><stop offset="68%" stop-color="#53E3A6" stop-opacity="0.42" /><stop offset="100%" stop-color="#3B82FF" stop-opacity="0.20" /></radialGradient><linearGradient id="extrude109" x1="0%" y1="0%" x2="0%" y2="100%"><stop offset="0%" stop-color="#15283C" stop-opacity="0.45" /><stop offset="100%" stop-color="#08131D" stop-opacity="0.06" /></linearGradient><linearGradient id="symbol109" x1="0%" y1="0%" x2="100%" y2="100%"><stop offset="0%" stop-color="#FFFFFF" /><stop offset="100%" stop-color="#8A5CFF" /></linearGradient><filter id="shadow109" x="-40%" y="-40%" width="180%" height="180%"><feDropShadow dx="0" dy="49" stdDeviation="86" flood-color="#06111A" flood-opacity="0.54" /></filter><filter id="soft109" x="-40%" y="-40%" width="180%" height="180%"><feDropShadow dx="0" dy="0" stdDeviation="14" flood-color="#FF9F43" flood-opacity="0.45" /></filter><filter id="grain109"><feTurbulence type="fractalNoise" baseFrequency="0.958" numOctaves="2" seed="109" /><feColorMatrix type="saturate" values="0" /><feComponentTransfer><feFuncA type="table" tableValues="0 0.09" /></feComponentTransfer></filter></defs>
  <rect x="138" y="138" width="2796" height="2796" rx="629" fill="url(#bg109)" filter="url(#shadow109)" />
  <rect x="138" y="138" width="2796" height="2796" rx="629" fill="url(#sun109)" />
  <g><circle cx="1248" cy="2293" r="70" fill="#FFFFFF" opacity="0.100" /><circle cx="400" cy="1775" r="72" fill="#FFFFFF" opacity="0.119" /><circle cx="1936" cy="2475" r="121" fill="#FFFFFF" opacity="0.077" /><circle cx="657" cy="546" r="86" fill="#FFFFFF" opacity="0.224" /><circle cx="2591" cy="925" r="38" fill="#FFFFFF" opacity="0.202" /><circle cx="2113" cy="1323" r="67" fill="#FFFFFF" opacity="0.091" /><circle cx="440" cy="2351" r="131" fill="#FFFFFF" opacity="0.083" /><circle cx="2372" cy="1588" r="75" fill="#FFFFFF" opacity="0.206" /><circle cx="1063" cy="1878" r="107" fill="#FFFFFF" opacity="0.162" /><circle cx="935" cy="2443" r="75" fill="#FFFFFF" opacity="0.083" /><circle cx="984" cy="1905" r="110" fill="#FFFFFF" opacity="0.196" /><circle cx="1405" cy="2171" r="67" fill="#FFFFFF" opacity="0.090" /><circle cx="1334" cy="345" r="131" fill="#FFFFFF" opacity="0.197" /><circle cx="423" cy="1934" r="81" fill="#FFFFFF" opacity="0.135" /><circle cx="1237" cy="598" r="146" fill="#FFFFFF" opacity="0.201" /><circle cx="678" cy="2033" r="135" fill="#FFFFFF" opacity="0.072" /><circle cx="1262" cy="2488" r="91" fill="#FFFFFF" opacity="0.142" /><circle cx="1297" cy="714" r="57" fill="#FFFFFF" opacity="0.217" /><circle cx="598" cy="551" r="74" fill="#FFFFFF" opacity="0.185" /><circle cx="644" cy="313" r="140" fill="#FFFFFF" opacity="0.152" /><circle cx="1966" cy="1632" r="68" fill="#FFFFFF" opacity="0.087" /><circle cx="2174" cy="1574" r="54" fill="#FFFFFF" opacity="0.159" /><circle cx="918" cy="1904" r="67" fill="#FFFFFF" opacity="0.090" /><circle cx="2351" cy="499" r="72" fill="#FFFFFF" opacity="0.236" /><circle cx="1546" cy="2373" r="105" fill="#FFFFFF" opacity="0.122" /><circle cx="2631" cy="2142" r="59" fill="#FFFFFF" opacity="0.106" /><circle cx="2567" cy="568" r="121" fill="#FFFFFF" opacity="0.178" /><circle cx="1169" cy="987" r="157" fill="#FFFFFF" opacity="0.237" /></g>
  <g><path d="M 275.4 573.0 L 2712.9 296.5 L 2712.9 721.9 L 275.4 998.3 Z" fill="#FFFFFF" opacity="0.164" /><path d="M 269.8 903.1 L 2704.7 626.6 L 2704.7 1048.5 L 269.8 1324.9 Z" fill="#FFFFFF" opacity="0.083" /><path d="M 380.5 1178.0 L 2800.9 901.6 L 2800.9 1389.8 L 380.5 1666.3 Z" fill="#FFFFFF" opacity="0.150" /><path d="M 359.0 1412.1 L 2690.6 1135.6 L 2690.6 1559.3 L 359.0 1835.8 Z" fill="#FFFFFF" opacity="0.171" /><path d="M 273.5 1615.2 L 2774.8 1338.7 L 2774.8 1765.4 L 273.5 2041.9 Z" fill="#FFFFFF" opacity="0.142" /><path d="M 284.2 1906.4 L 2862.9 1629.9 L 2862.9 2079.2 L 284.2 2355.7 Z" fill="#FFFFFF" opacity="0.103" /><path d="M 215.0 2199.0 L 2709.9 1922.6 L 2709.9 2407.5 L 215.0 2684.0 Z" fill="#FFFFFF" opacity="0.165" /><path d="M 243.5 2454.0 L 2883.5 2177.5 L 2883.5 2601.5 L 243.5 2878.0 Z" fill="#FFFFFF" opacity="0.197" /></g>
  <g filter="url(#soft109)"><g transform="rotate(-22.45 1536.0 1536.0)"><path d="M-368.6 519.6 C -225.8 527.7, -25.8 510.4, 107.5 566.0 C 250.4 562.6, 450.4 500.9, 583.7 573.6 C 726.5 589.2, 926.5 455.7, 1059.8 548.5 C 1202.7 543.0, 1402.7 495.7, 1536.0 505.9 C 1678.8 507.4, 1878.8 526.4, 2012.2 471.6 C 2155.0 461.5, 2355.0 556.4, 2488.3 466.5 C 2631.2 469.6, 2831.2 576.7, 2964.5 493.6 C 3107.3 498.6, 3307.3 543.7, 3440.6 536.5" fill="none" stroke="url(#ribbon109)" stroke-width="58.4" stroke-linecap="round" stroke-opacity="0.120" /></g><g transform="rotate(-21.87 1536.0 1536.0)"><path d="M-368.6 714.8 C -241.7 682.9, -63.9 736.7, 54.6 652.5 C 181.6 641.8, 359.4 781.3, 477.9 673.2 C 604.8 666.8, 782.6 728.2, 901.1 719.1 C 1028.1 719.7, 1205.9 713.3, 1324.4 762.5 C 1451.3 761.9, 1629.1 691.5, 1747.6 776.9 C 1874.6 763.7, 2052.4 673.8, 2170.9 753.7 C 2297.9 741.4, 2475.6 685.8, 2594.1 706.9 C 2721.1 707.7, 2898.9 723.7, 3017.4 664.9 C 3144.4 646.5, 3322.1 748.0, 3440.6 653.2" fill="none" stroke="url(#ribbon109)" stroke-width="54.4" stroke-linecap="round" stroke-opacity="0.146" /></g><g transform="rotate(-21.29 1536.0 1536.0)"><path d="M-368.6 969.7 C -254.4 896.7, -94.4 999.9, 12.3 914.3 C 126.6 899.6, 286.6 1024.4, 393.2 961.0 C 507.5 961.8, 667.5 972.4, 774.1 1013.1 C 888.4 1006.8, 1048.4 933.1, 1155.1 1038.9 C 1269.4 1012.9, 1429.3 897.7, 1536.0 1022.7 C 1650.3 1035.0, 1810.3 931.2, 1916.9 974.4 C 2031.2 975.6, 2191.2 964.4, 2297.9 923.3 C 2412.1 932.0, 2572.1 1004.5, 2678.8 900.4 C 2793.1 898.8, 2953.1 1030.3, 3059.7 919.5 C 3174.0 938.0, 3334.0 1020.1, 3440.6 969.1" fill="none" stroke="url(#ribbon109)" stroke-width="50.4" stroke-linecap="round" stroke-opacity="0.172" /></g><g transform="rotate(-20.71 1536.0 1536.0)"><path d="M-368.6 1057.4 C -264.8 1026.3, -119.3 1091.6, -22.3 1087.1 C 81.5 1092.5, 227.0 1040.3, 324.0 1128.7 C 427.8 1119.6, 573.3 1032.7, 670.3 1127.0 C 774.1 1146.7, 919.6 1000.4, 1016.6 1083.2 C 1120.4 1074.6, 1265.9 1043.4, 1362.9 1023.7 C 1466.7 1028.2, 1612.2 1075.9, 1709.1 984.7 C 1813.0 956.1, 1958.5 1109.9, 2055.4 989.8 C 2159.3 976.4, 2304.8 1138.5, 2401.7 1035.9 C 2505.6 1043.6, 2651.1 1077.6, 2748.0 1095.1 C 2851.9 1098.8, 2997.4 1024.7, 3094.3 1131.4 C 3198.2 1157.2, 3343.7 1005.4, 3440.6 1122.8" fill="none" stroke="url(#ribbon109)" stroke-width="46.4" stroke-linecap="round" stroke-opacity="0.198" /></g><g transform="rotate(-20.13 1536.0 1536.0)"><path d="M-368.6 1322.9 C -273.4 1316.2, -140.1 1328.7, -51.2 1258.6 C 44.0 1281.2, 177.4 1391.4, 266.2 1239.8 C 361.5 1244.0, 494.8 1378.4, 583.7 1271.4 C 678.9 1264.9, 812.2 1384.5, 901.1 1334.2 C 996.4 1336.6, 1129.7 1315.1, 1218.6 1390.2 C 1313.8 1413.9, 1447.1 1280.7, 1536.0 1405.3 C 1631.2 1393.0, 1764.6 1235.2, 1853.4 1370.4 C 1948.7 1367.1, 2082.0 1303.7, 2170.9 1306.7 C 2266.1 1302.6, 2399.4 1329.7, 2488.3 1252.8 C 2583.6 1274.6, 2716.9 1401.5, 2805.8 1241.4 C 2901.0 1225.6, 3034.3 1400.0, 3123.2 1279.4 C 3218.4 1270.4, 3351.8 1349.0, 3440.6 1343.8" fill="none" stroke="url(#ribbon109)" stroke-width="42.4" stroke-linecap="round" stroke-opacity="0.224" /></g><g transform="rotate(-19.55 1536.0 1536.0)"><path d="M-368.6 1431.1 C -225.8 1480.0, -25.8 1391.7, 107.5 1517.4 C 250.4 1525.2, 450.4 1395.0, 583.7 1511.0 C 726.5 1509.3, 926.5 1351.6, 1059.8 1456.0 C 1202.7 1461.7, 1402.7 1417.3, 1536.0 1386.0 C 1678.8 1394.2, 1878.8 1469.2, 2012.2 1343.3 C 2155.0 1346.3, 2355.0 1486.1, 2488.3 1353.8 C 2631.2 1355.5, 2831.2 1512.5, 2964.5 1411.2 C 3107.3 1417.6, 3307.3 1444.9, 3440.6 1480.7" fill="none" stroke="url(#ribbon109)" stroke-width="38.4" stroke-linecap="round" stroke-opacity="0.250" /></g><g transform="rotate(-18.97 1536.0 1536.0)"><path d="M-368.6 1634.6 C -241.7 1610.0, -63.9 1643.0, 54.6 1553.0 C 181.6 1521.2, 359.4 1710.3, 477.9 1539.2 C 604.8 1537.8, 782.6 1676.4, 901.1 1583.2 C 1028.1 1571.5, 1205.9 1672.1, 1324.4 1658.4 C 1451.3 1665.5, 1629.1 1617.3, 1747.6 1719.1 C 1874.6 1741.1, 2052.4 1566.5, 2170.9 1728.6 C 2297.9 1749.1, 2475.6 1569.6, 2594.1 1681.0 C 2721.1 1697.6, 2898.9 1588.8, 3017.4 1605.3 C 3144.4 1595.9, 3322.1 1648.5, 3440.6 1547.3" fill="none" stroke="url(#ribbon109)" stroke-width="34.4" stroke-linecap="round" stroke-opacity="0.276" /></g><g transform="rotate(-18.39 1536.0 1536.0)"><path d="M-368.6 1898.5 C -254.4 1760.9, -94.4 1985.6, 12.3 1824.3 C 126.6 1829.8, 286.6 1940.0, 393.2 1899.9 C 507.5 1900.0, 667.5 1897.2, 774.1 1974.6 C 888.4 1974.2, 1048.4 1834.1, 1155.1 2003.1 C 1269.4 2037.3, 1429.3 1831.1, 1536.0 1968.2 C 1650.3 1959.2, 1810.3 1838.7, 1916.9 1890.9 C 2031.2 1892.6, 2191.2 1900.8, 2297.9 1818.3 C 2412.1 1790.1, 2572.1 1938.3, 2678.8 1794.3 C 2793.1 1824.7, 2953.1 1976.6, 3059.7 1833.5 C 3174.0 1834.5, 3334.0 1966.8, 3440.6 1912.1" fill="none" stroke="url(#ribbon109)" stroke-width="30.4" stroke-linecap="round" stroke-opacity="0.302" /></g><g transform="rotate(-17.81 1536.0 1536.0)"><path d="M-368.6 2017.1 C -264.8 2162.2, -119.3 1890.5, -22.3 2088.6 C 81.5 2116.6, 227.0 1972.8, 324.0 2005.2 C 427.8 2005.9, 573.3 2022.9, 670.3 1929.1 C 774.1 1946.2, 919.6 2073.7, 1016.6 1906.3 C 1120.4 1867.4, 1265.9 2117.8, 1362.9 1950.7 C 1466.7 1956.6, 1612.2 2048.1, 1709.1 2035.4 C 1813.0 2042.5, 1958.5 1999.4, 2055.4 2109.0 C 2159.3 2087.1, 2304.8 1921.8, 2401.7 2126.8 C 2505.6 2096.7, 2651.1 1969.0, 2748.0 2078.1 C 2851.9 2088.1, 2997.4 1972.8, 3094.3 1992.4 C 3198.2 1991.6, 3343.7 2033.4, 3440.6 1921.6" fill="none" stroke="url(#ribbon109)" stroke-width="26.4" stroke-linecap="round" stroke-opacity="0.328" /></g><g transform="rotate(-17.23 1536.0 1536.0)"><path d="M-368.6 2274.2 C -273.4 2380.0, -140.1 2180.9, -51.2 2288.8 C 44.0 2286.1, 177.4 2261.1, 266.2 2199.7 C 361.5 2194.2, 494.8 2316.6, 583.7 2155.8 C 678.9 2119.0, 812.2 2332.0, 901.1 2183.8 C 996.4 2194.1, 1129.7 2333.0, 1218.6 2266.6 C 1313.8 2266.6, 1447.1 2278.1, 1536.0 2354.0 C 1631.2 2336.9, 1764.6 2207.4, 1853.4 2393.0 C 1948.7 2397.3, 2082.0 2183.5, 2170.9 2360.0 C 2266.1 2387.5, 2399.4 2171.3, 2488.3 2274.9 C 2583.6 2274.9, 2716.9 2273.4, 2805.8 2189.4 C 2901.0 2171.3, 3034.3 2319.3, 3123.2 2155.4 C 3218.4 2148.7, 3351.8 2315.5, 3440.6 2193.4" fill="none" stroke="url(#ribbon109)" stroke-width="22.4" stroke-linecap="round" stroke-opacity="0.354" /></g><g transform="rotate(-16.65 1536.0 1536.0)"><path d="M-368.6 2446.9 C -225.8 2465.9, -25.8 2419.9, 107.5 2554.0 C 250.4 2542.3, 450.4 2357.6, 583.7 2569.1 C 726.5 2600.9, 926.5 2372.9, 1059.8 2510.0 C 1202.7 2509.8, 1402.7 2392.8, 1536.0 2412.7 C 1678.8 2421.5, 1878.8 2472.0, 2012.2 2336.1 C 2155.0 2311.1, 2355.0 2544.5, 2488.3 2326.8 C 2631.2 2297.1, 2831.2 2483.6, 2964.5 2390.3 C 3107.3 2402.7, 3307.3 2494.4, 3440.6 2488.2" fill="none" stroke="url(#ribbon109)" stroke-width="18.4" stroke-linecap="round" stroke-opacity="0.380" /></g><g transform="rotate(-16.07 1536.0 1536.0)"><path d="M-368.6 2620.6 C -241.7 2715.7, -63.9 2538.1, 54.6 2702.3 C 181.6 2670.3, 359.4 2559.6, 477.9 2602.2 C 604.8 2606.4, 782.6 2632.1, 901.1 2513.3 C 1028.1 2480.2, 1205.9 2671.9, 1324.4 2489.4 C 1451.3 2457.0, 1629.1 2728.8, 1747.6 2545.1 C 1874.6 2524.2, 2052.4 2648.3, 2170.9 2646.6 C 2297.9 2651.4, 2475.6 2600.9, 2594.1 2732.3 C 2721.1 2773.6, 2898.9 2570.7, 3017.4 2750.2 C 3144.4 2722.3, 3322.1 2480.3, 3440.6 2689.5" fill="none" stroke="url(#ribbon109)" stroke-width="14.4" stroke-linecap="round" stroke-opacity="0.406" /></g></g>
  <g><ellipse cx="1536.0" cy="1551.9" rx="728.6" ry="605.7" fill="url(#extrude109)" opacity="0.220" /><ellipse cx="1536.0" cy="1567.7" rx="736.0" ry="610.9" fill="url(#extrude109)" opacity="0.205" /><ellipse cx="1536.0" cy="1583.6" rx="743.4" ry="616.1" fill="url(#extrude109)" opacity="0.190" /><ellipse cx="1536.0" cy="1599.5" rx="750.9" ry="621.3" fill="url(#extrude109)" opacity="0.175" /><ellipse cx="1536.0" cy="1615.4" rx="758.3" ry="626.5" fill="url(#extrude109)" opacity="0.160" /><ellipse cx="1536.0" cy="1631.2" rx="765.7" ry="631.7" fill="url(#extrude109)" opacity="0.145" /><ellipse cx="1536.0" cy="1647.1" rx="773.2" ry="636.9" fill="url(#extrude109)" opacity="0.130" /><ellipse cx="1536.0" cy="1663.0" rx="780.6" ry="642.1" fill="url(#extrude109)" opacity="0.115" /><ellipse cx="1536.0" cy="1678.8" rx="788.0" ry="647.4" fill="url(#extrude109)" opacity="0.100" /><ellipse cx="1536.0" cy="1694.7" rx="795.5" ry="652.6" fill="url(#extrude109)" opacity="0.085" /><ellipse cx="1536.0" cy="1710.6" rx="802.9" ry="657.8" fill="url(#extrude109)" opacity="0.070" /><ellipse cx="1536.0" cy="1726.5" rx="810.3" ry="663.0" fill="url(#extrude109)" opacity="0.055" /></g>
  <ellipse cx="1536.0" cy="1726.5" rx="773.2" ry="214.9" fill="#0B1D2D" opacity="0.24" />
  <ellipse cx="1536.0" cy="1536.0" rx="743.4" ry="651.3" fill="url(#orb109)" stroke="#FFFFFF" stroke-opacity="0.42" stroke-width="7" />
  <ellipse cx="1431.9" cy="1392.7" rx="505.5" ry="299.6" fill="#FFFFFF" opacity="0.25" />
  <path d="M 199.4 399.4 C 1013.8 -30.7, 2058.2 768.0, 2872.6 215.0 L 2872.6 983.0 C 2089.0 1228.8, 1013.8 307.2, 199.4 1167.4 Z" fill="url(#glass109)" />
  <rect x="270" y="270" width="2532" height="2532" rx="430" fill="none" stroke="#FFFFFF" stroke-opacity="0.30" stroke-width="5" />
  <rect x="288.4" y="288.4" width="2495.1" height="2495.1" rx="399" fill="none" stroke="#FF9F43" stroke-opacity="0.35" stroke-width="3" />
  <g filter="url(#soft109)"><rect x="625" y="633" width="78" height="2" fill="#FFFFFF" opacity="0.460" /><rect x="663" y="595" width="2" height="78" fill="#FFFFFF" opacity="0.460" /><rect x="2095" y="489" width="84" height="2" fill="#FFFFFF" opacity="0.353" /><rect x="2136" y="448" width="2" height="84" fill="#FFFFFF" opacity="0.353" /><rect x="704" y="2574" width="82" height="2" fill="#FFFFFF" opacity="0.804" /><rect x="744" y="2534" width="2" height="82" fill="#FFFFFF" opacity="0.804" /><rect x="1191" y="1571" width="68" height="2" fill="#FFFFFF" opacity="0.796" /><rect x="1224" y="1538" width="2" height="68" fill="#FFFFFF" opacity="0.796" /><rect x="1011" y="1010" width="56" height="2" fill="#FFFFFF" opacity="0.636" /><rect x="1038" y="983" width="2" height="56" fill="#FFFFFF" opacity="0.636" /><rect x="651" y="1303" width="50" height="2" fill="#FFFFFF" opacity="0.807" /><rect x="675" y="1279" width="2" height="50" fill="#FFFFFF" opacity="0.807" /><rect x="496" y="739" width="30" height="2" fill="#FFFFFF" opacity="0.591" /><rect x="510" y="725" width="2" height="30" fill="#FFFFFF" opacity="0.591" /><rect x="621" y="1137" width="44" height="2" fill="#FFFFFF" opacity="0.771" /><rect x="642" y="1116" width="2" height="44" fill="#FFFFFF" opacity="0.771" /><rect x="570" y="406" width="42" height="2" fill="#FFFFFF" opacity="0.560" /><rect x="590" y="386" width="2" height="42" fill="#FFFFFF" opacity="0.560" /><rect x="1399" y="2747" width="46" height="2" fill="#FFFFFF" opacity="0.481" /><rect x="1421" y="2725" width="2" height="46" fill="#FFFFFF" opacity="0.481" /><rect x="858" y="2298" width="56" height="2" fill="#FFFFFF" opacity="0.523" /><rect x="885" y="2271" width="2" height="56" fill="#FFFFFF" opacity="0.523" /><rect x="485" y="2460" width="42" height="2" fill="#FFFFFF" opacity="0.616" /><rect x="505" y="2440" width="2" height="42" fill="#FFFFFF" opacity="0.616" /><rect x="1322" y="2754" width="58" height="2" fill="#FFFFFF" opacity="0.737" /><rect x="1350" y="2726" width="2" height="58" fill="#FFFFFF" opacity="0.737" /><rect x="1114" y="1597" width="34" height="2" fill="#FFFFFF" opacity="0.810" /><rect x="1130" y="1581" width="2" height="34" fill="#FFFFFF" opacity="0.810" /><rect x="797" y="1016" width="84" height="2" fill="#FFFFFF" opacity="0.723" /><rect x="838" y="975" width="2" height="84" fill="#FFFFFF" opacity="0.723" /><rect x="2056" y="2481" width="62" height="2" fill="#FFFFFF" opacity="0.375" /><rect x="2086" y="2451" width="2" height="62" fill="#FFFFFF" opacity="0.375" /><rect x="2089" y="1293" width="28" height="2" fill="#FFFFFF" opacity="0.337" /><rect x="2102" y="1280" width="2" height="28" fill="#FFFFFF" opacity="0.337" /><rect x="1517" y="2713" width="48" height="2" fill="#FFFFFF" opacity="0.562" /><rect x="1540" y="2690" width="2" height="48" fill="#FFFFFF" opacity="0.562" /><rect x="557" y="511" width="54" height="2" fill="#FFFFFF" opacity="0.756" /><rect x="583" y="485" width="2" height="54" fill="#FFFFFF" opacity="0.756" /><rect x="2234" y="318" width="82" height="2" fill="#FFFFFF" opacity="0.677" /><rect x="2274" y="278" width="2" height="82" fill="#FFFFFF" opacity="0.677" /><rect x="2283" y="2028" width="84" height="2" fill="#FFFFFF" opacity="0.393" /><rect x="2324" y="1987" width="2" height="84" fill="#FFFFFF" opacity="0.393" /><rect x="673" y="2189" width="78" height="2" fill="#FFFFFF" opacity="0.688" /><rect x="711" y="2151" width="2" height="78" fill="#FFFFFF" opacity="0.688" /><rect x="450" y="2443" width="50" height="2" fill="#FFFFFF" opacity="0.624" /><rect x="474" y="2419" width="2" height="50" fill="#FFFFFF" opacity="0.624" /><rect x="2509" y="574" width="72" height="2" fill="#FFFFFF" opacity="0.431" /><rect x="2544" y="539" width="2" height="72" fill="#FFFFFF" opacity="0.431" /><rect x="1045" y="1844" width="70" height="2" fill="#FFFFFF" opacity="0.399" /><rect x="1079" y="1810" width="2" height="70" fill="#FFFFFF" opacity="0.399" /><rect x="1963" y="735" width="74" height="2" fill="#FFFFFF" opacity="0.366" /><rect x="1999" y="699" width="2" height="74" fill="#FFFFFF" opacity="0.366" /></g>
  <g opacity="0.52"><rect x="1023" y="1070" width="768" height="768" rx="128" fill="none" stroke="#0C2030" stroke-width="90" /><path d="M1023 1582 L1572 1363 L2121 1582 L1572 2094 Z" fill="none" stroke="#0C2030" stroke-width="90" stroke-linejoin="round" /></g>
  <g filter="url(#soft109)"><rect x="987" y="1024" width="768" height="768" rx="128" fill="none" stroke="url(#symbol109)" stroke-width="90" /><path d="M987 1536 L1536 1317 L2085 1536 L1536 2048 Z" fill="none" stroke="url(#symbol109)" stroke-width="90" stroke-linejoin="round" /></g>
  <rect x="138" y="138" width="2796" height="2796" rx="629" fill="#FFFFFF" filter="url(#grain109)" opacity="0.18" />
</svg>
