<svg xmlns="http://www.w3.org/2000/svg" width="3072" height="3072" viewBox="0 0 3072 3072">
  <title>QuartzOS App Icon 170 - tidal_terminal_170</title>
  <defs><linearGradient id="bg169" x1="0%" y1="0%" x2="100%" y2="100%"><stop offset="0%" stop-color="#3B82FF" /><stop offset="26%" stop-color="#FF6AB3" /><stop offset="56%" stop-color="#FFD84D" /><stop offset="78%" stop-color="#2E8D96" /><stop offset="100%" stop-color="#0F2A2E" /></linearGradient><radialGradient id="sun169" cx="26%" cy="27%" r="88%"><stop offset="0%" stop-color="#FFFFFF" stop-opacity="0.62" /><stop offset="30%" stop-color="#53E3A6" stop-opacity="0.35" /><stop offset="100%" stop-color="#53E3A6" stop-opacity="0" /></radialGradient><linearGradient id="glass169" x1="0%" y1="0%" x2="0%" y2="100%"><stop offset="0%" stop-color="#FFFFFF" stop-opacity="0.70" /><stop offset="46%" stop-color="#FFFFFF" stop-opacity="0.26" /><stop offset="100%" stop-color="#FFFFFF" stop-opacity="0.00" /></linearGradient><linearGradient id="ribbon169" x1="0%" y1="0%" x2="100%" y2="0%"><stop offset="0%" stop-color="#3B82FF" stop-opacity="0.18" /><stop offset="34%" stop-color="#FF6AB3" stop-opacity="0.72" /><stop offset="66%" stop-color="#FFD84D" stop-opacity="0.72" /><stop offset="100%" stop-color="#53E3A6" stop-opacity="0.18" /></linearGradient><radialGradient id="orb169" cx="34%" cy="27%" r="74%"><stop offset="0%" stop-color="#FFFFFF" stop-opacity="0.84" /><stop offset="30%" stop-color="#3B82FF" stop-opacity="0.52" /><stop offset="68%" stop-color="#FF6AB3" stop-opacity="0.42" /><stop offset="100%" stop-color="#FFD84D" stop-opacity="0.20" /></radialGradient><linearGradient id="extrude169" x1="0%" y1="0%" x2="0%" y2="100%"><stop offset="0%" stop-color="#15283C" stop-opacity="0.45" /><stop offset="100%" stop-color="#08131D" stop-opacity="0.06" /></linearGradient><linearGradient id="symbol169" x1="0%" y1="0%" x2="100%" y2="100%"><stop offset="0%" stop-color="#FFFFFF" /><stop offset="100%" stop-color="#53E3A6" /></linearGradient><filter id="shadow169" x="-40%" y="-40%" width="180%" height="180%"><feDropShadow dx="0" dy="49" stdDeviation="86" flood-color="#06111A" flood-opacity="0.54" /></filter><filter id="soft169" x="-40%" y="-40%" width="180%" height="180%"><feDropShadow dx="0" dy="0" stdDeviation="14" flood-color="#3B82FF" flood-opacity="0.45" /></filter><filter id="grain169"><feTurbulence type="fractalNoise" baseFrequency="0.865" numOctaves="2" seed="169" /><feColorMatrix type="saturate" values="0" /><feComponentTransfer><feFuncA type="table" tableValues="0 0.09" /></feComponentTransfer></filter></defs>
  <rect x="138" y="138" width="2796" height="2796" rx="629" fill="url(#bg169)" filter="url(#shadow169)" />
  <rect x="138" y="138" width="2796" height="2796" rx="629" fill="url(#sun169)" />
  <g><circle cx="653" cy="790" r="125" fill="#FFFFFF" opacity="0.193" /><circle cx="1413" cy="2475" r="40" fill="#FFFFFF" opacity="0.132" /><circle cx="1414" cy="1361" r="52" fill="#FFFFFF" opacity="0.122" /><circle cx="2164" cy="502" r="88" fill="#FFFFFF" opacity="0.130" /><circle cx="703" cy="2235" r="122" fill="#FFFFFF" opacity="0.136" /><circle cx="1984" cy="1299" r="117" fill="#FFFFFF" opacity="0.187" /><circle cx="1965" cy="599" r="132" fill="#FFFFFF" opacity="0.233" /><circle cx="1429" cy="2045" r="93" fill="#FFFFFF" opacity="0.227" /><circle cx="1393" cy="2145" r="94" fill="#FFFFFF" opacity="0.144" /><circle cx="1595" cy="1077" r="152" fill="#FFFFFF" opacity="0.141" /><circle cx="780" cy="1016" r="131" fill="#FFFFFF" opacity="0.230" /><circle cx="421" cy="1256" r="141" fill="#FFFFFF" opacity="0.145" /><circle cx="2441" cy="618" r="107" fill="#FFFFFF" opacity="0.129" /><circle cx="1393" cy="1518" r="125" fill="#FFFFFF" opacity="0.156" /><circle cx="2523" cy="1048" r="84" fill="#FFFFFF" opacity="0.217" /><circle cx="1969" cy="542" r="133" fill="#FFFFFF" opacity="0.174" /><circle cx="1385" cy="1047" r="155" fill="#FFFFFF" opacity="0.098" /><circle cx="1406" cy="576" r="130" fill="#FFFFFF" opacity="0.223" /><circle cx="708" cy="2497" r="121" fill="#FFFFFF" opacity="0.085" /><circle cx="2314" cy="1826" r="80" fill="#FFFFFF" opacity="0.213" /><circle cx="1323" cy="690" r="132" fill="#FFFFFF" opacity="0.077" /><circle cx="1270" cy="1784" r="117" fill="#FFFFFF" opacity="0.085" /><circle cx="1776" cy="1107" r="78" fill="#FFFFFF" opacity="0.156" /><circle cx="1170" cy="1902" r="75" fill="#FFFFFF" opacity="0.234" /><circle cx="2296" cy="401" r="58" fill="#FFFFFF" opacity="0.212" /><circle cx="964" cy="2424" r="104" fill="#FFFFFF" opacity="0.237" /><circle cx="2474" cy="1082" r="91" fill="#FFFFFF" opacity="0.201" /><circle cx="2463" cy="2173" r="150" fill="#FFFFFF" opacity="0.200" /></g>
  <g><path d="M 360.0 633.7 L 2711.1 357.2 L 2711.1 814.8 L 360.0 1091.3 Z" fill="#FFFFFF" opacity="0.160" /><path d="M 148.3 851.1 L 2908.3 574.6 L 2908.3 1057.1 L 148.3 1333.6 Z" fill="#FFFFFF" opacity="0.117" /><path d="M 176.4 1119.5 L 2749.9 843.0 L 2749.9 1304.3 L 176.4 1580.8 Z" fill="#FFFFFF" opacity="0.201" /><path d="M 245.5 1408.8 L 2725.1 1132.3 L 2725.1 1570.9 L 245.5 1847.4 Z" fill="#FFFFFF" opacity="0.221" /><path d="M 271.6 1643.9 L 2877.1 1367.5 L 2877.1 1848.3 L 271.6 2124.8 Z" fill="#FFFFFF" opacity="0.171" /><path d="M 225.3 1880.3 L 2889.0 1603.8 L 2889.0 2080.6 L 225.3 2357.0 Z" fill="#FFFFFF" opacity="0.173" /><path d="M 368.6 2180.9 L 2892.8 1904.4 L 2892.8 2341.0 L 368.6 2617.4 Z" fill="#FFFFFF" opacity="0.181" /><path d="M 164.9 2412.8 L 2707.3 2136.3 L 2707.3 2614.5 L 164.9 2891.0 Z" fill="#FFFFFF" opacity="0.115" /></g>
  <g filter="url(#soft169)"><g transform="rotate(-19.88 1536.0 1536.0)"><path d="M-368.6 529.5 C -225.8 462.7, -25.8 553.7, 107.5 477.5 C 250.4 472.6, 450.4 581.4, 583.7 506.8 C 726.5 503.4, 926.5 536.9, 1059.8 549.8 C 1202.7 557.9, 1402.7 512.8, 1536.0 580.6 C 1678.8 579.9, 1878.8 495.8, 2012.2 580.3 C 2155.0 564.7, 2355.0 491.1, 2488.3 549.2 C 2631.2 546.5, 2831.2 508.5, 2964.5 506.2 C 3107.3 511.6, 3307.3 542.5, 3440.6 477.3" fill="none" stroke="url(#ribbon169)" stroke-width="58.4" stroke-linecap="round" stroke-opacity="0.120" /></g><g transform="rotate(-19.30 1536.0 1536.0)"><path d="M-368.6 713.9 C -241.7 650.9, -63.9 784.3, 54.6 660.4 C 181.6 670.9, 359.4 732.3, 477.9 699.6 C 604.8 702.2, 782.6 724.7, 901.1 747.5 C 1028.1 743.9, 1205.9 681.9, 1324.4 775.0 C 1451.3 764.0, 1629.1 676.2, 1747.6 765.5 C 1874.6 753.2, 2052.4 697.0, 2170.9 724.6 C 2297.9 723.6, 2475.6 705.7, 2594.1 677.3 C 2721.1 679.8, 2898.9 745.2, 3017.4 652.2 C 3144.4 650.4, 3322.1 787.6, 3440.6 664.5" fill="none" stroke="url(#ribbon169)" stroke-width="54.4" stroke-linecap="round" stroke-opacity="0.146" /></g><g transform="rotate(-18.72 1536.0 1536.0)"><path d="M-368.6 927.9 C -254.4 858.3, -94.4 982.9, 12.3 860.5 C 126.6 863.8, 286.6 977.1, 393.2 892.9 C 507.5 903.6, 667.5 940.5, 774.1 946.5 C 888.4 946.4, 1048.4 922.0, 1155.1 988.9 C 1269.4 980.5, 1429.3 908.4, 1536.0 994.2 C 1650.3 1017.7, 1810.3 849.0, 1916.9 959.4 C 2031.2 971.7, 2191.2 913.7, 2297.9 905.4 C 2412.1 909.7, 2572.1 944.4, 2678.8 865.1 C 2793.1 840.8, 2953.1 956.1, 3059.7 862.9 C 3174.0 841.1, 3334.0 971.5, 3440.6 900.1" fill="none" stroke="url(#ribbon169)" stroke-width="50.4" stroke-linecap="round" stroke-opacity="0.172" /></g><g transform="rotate(-18.14 1536.0 1536.0)"><path d="M-368.6 1041.9 C -264.8 944.1, -119.3 1070.1, -22.3 972.4 C 81.5 984.4, 227.0 1099.9, 324.0 1016.4 C 427.8 1023.1, 573.3 1069.3, 670.3 1075.8 C 774.1 1081.5, 919.6 1001.6, 1016.6 1114.7 C 1120.4 1107.9, 1265.9 998.9, 1362.9 1109.4 C 1466.7 1117.8, 1612.2 997.5, 1709.1 1063.1 C 1813.0 1057.8, 1958.5 1017.6, 2055.4 1003.9 C 2159.3 1013.7, 2304.8 1065.6, 2401.7 967.8 C 2505.6 993.7, 2651.1 1126.8, 2748.0 976.6 C 2851.9 976.1, 2997.4 1115.3, 3094.3 1024.9 C 3198.2 1023.1, 3343.7 1055.9, 3440.6 1083.6" fill="none" stroke="url(#ribbon169)" stroke-width="46.4" stroke-linecap="round" stroke-opacity="0.198" /></g><g transform="rotate(-17.56 1536.0 1536.0)"><path d="M-368.6 1348.0 C -273.4 1297.6, -140.1 1379.0, -51.2 1370.6 C 44.0 1369.1, 177.4 1336.5, 266.2 1421.5 C 361.5 1412.7, 494.8 1299.2, 583.7 1427.7 C 678.9 1450.0, 812.2 1315.5, 901.1 1385.6 C 996.4 1385.0, 1129.7 1308.7, 1218.6 1320.7 C 1313.8 1323.7, 1447.1 1366.3, 1536.0 1272.3 C 1631.2 1247.4, 1764.6 1378.7, 1853.4 1269.9 C 1948.7 1281.0, 2082.0 1390.2, 2170.9 1314.8 C 2266.1 1324.2, 2399.4 1361.4, 2488.3 1379.9 C 2583.6 1368.9, 2716.9 1320.3, 2805.8 1425.6 C 2901.0 1444.6, 3034.3 1292.6, 3123.2 1424.3 C 3218.4 1407.9, 3351.8 1275.8, 3440.6 1376.7" fill="none" stroke="url(#ribbon169)" stroke-width="42.4" stroke-linecap="round" stroke-opacity="0.224" /></g><g transform="rotate(-16.98 1536.0 1536.0)"><path d="M-368.6 1515.9 C -225.8 1540.3, -25.8 1506.4, 107.5 1597.0 C 250.4 1572.3, 450.4 1466.8, 583.7 1601.4 C 726.5 1578.6, 926.5 1416.9, 1059.8 1554.0 C 1202.7 1566.9, 1402.7 1488.8, 1536.0 1483.5 C 1678.8 1480.5, 1878.8 1540.9, 2012.2 1432.6 C 2155.0 1412.2, 2355.0 1564.4, 2488.3 1432.2 C 2631.2 1423.7, 2831.2 1574.1, 2964.5 1482.6 C 3107.3 1479.4, 3307.3 1531.0, 3440.6 1553.2" fill="none" stroke="url(#ribbon169)" stroke-width="38.4" stroke-linecap="round" stroke-opacity="0.250" /></g><g transform="rotate(-16.40 1536.0 1536.0)"><path d="M-368.6 1651.6 C -241.7 1732.5, -63.9 1600.6, 54.6 1747.7 C 181.6 1733.5, 359.4 1594.7, 477.9 1706.0 C 604.8 1710.0, 782.6 1624.4, 901.1 1631.2 C 1028.1 1634.8, 1205.9 1668.4, 1324.4 1568.9 C 1451.3 1601.0, 1629.1 1682.1, 1747.6 1556.6 C 1874.6 1558.4, 2052.4 1758.0, 2170.9 1602.0 C 2297.9 1621.7, 2475.6 1682.4, 2594.1 1677.4 C 2721.1 1667.4, 2898.9 1638.9, 3017.4 1737.2 C 3144.4 1708.3, 3322.1 1555.7, 3440.6 1745.0" fill="none" stroke="url(#ribbon169)" stroke-width="34.4" stroke-linecap="round" stroke-opacity="0.276" /></g><g transform="rotate(-15.82 1536.0 1536.0)"><path d="M-368.6 1853.1 C -254.4 1843.2, -94.4 1865.0, 12.3 1920.2 C 126.6 1927.5, 286.6 1828.3, 393.2 1957.6 C 507.5 1922.0, 667.5 1815.1, 774.1 1931.6 C 888.4 1926.8, 1048.4 1765.3, 1155.1 1858.0 C 1269.4 1856.6, 1429.3 1848.6, 1536.0 1781.5 C 1650.3 1807.7, 1810.3 1919.9, 1916.9 1748.4 C 2031.2 1789.7, 2191.2 1929.6, 2297.9 1778.8 C 2412.1 1784.5, 2572.1 1914.7, 2678.8 1854.3 C 2793.1 1854.6, 2953.1 1851.8, 3059.7 1929.1 C 3174.0 1935.8, 3334.0 1786.5, 3440.6 1957.8" fill="none" stroke="url(#ribbon169)" stroke-width="30.4" stroke-linecap="round" stroke-opacity="0.302" /></g><g transform="rotate(-15.24 1536.0 1536.0)"><path d="M-368.6 2029.8 C -264.8 2105.4, -119.3 1991.3, -22.3 2141.3 C 81.5 2131.8, 227.0 1950.2, 324.0 2101.3 C 427.8 2078.3, 573.3 1950.8, 670.3 2018.0 C 774.1 2019.5, 919.6 2041.8, 1016.6 1941.8 C 1120.4 1929.1, 1265.9 2109.0, 1362.9 1919.0 C 1466.7 1954.3, 1612.2 2088.1, 1709.1 1963.4 C 1813.0 1959.5, 1958.5 2056.8, 2055.4 2048.0 C 2159.3 2049.3, 2304.8 2008.9, 2401.7 2121.7 C 2505.6 2127.7, 2651.1 1982.7, 2748.0 2139.5 C 2851.9 2157.6, 2997.4 1946.5, 3094.3 2090.8 C 3198.2 2086.8, 3343.7 1975.3, 3440.6 2005.1" fill="none" stroke="url(#ribbon169)" stroke-width="26.4" stroke-linecap="round" stroke-opacity="0.328" /></g><g transform="rotate(-14.66 1536.0 1536.0)"><path d="M-368.6 2266.3 C -273.4 2299.6, -140.1 2230.7, -51.2 2378.9 C 44.0 2343.5, 177.4 2181.8, 266.2 2372.0 C 361.5 2363.1, 494.8 2199.2, 583.7 2300.9 C 678.9 2294.5, 812.2 2246.3, 901.1 2208.8 C 996.4 2201.2, 1129.7 2293.8, 1218.6 2151.6 C 1313.8 2176.8, 1447.1 2354.9, 1536.0 2163.9 C 1631.2 2141.7, 1764.6 2323.7, 1853.4 2238.3 C 1948.7 2229.5, 2082.0 2282.5, 2170.9 2329.7 C 2266.1 2324.7, 2399.4 2212.2, 2488.3 2382.6 C 2583.6 2380.6, 2716.9 2205.0, 2805.8 2364.9 C 2901.0 2365.9, 3034.3 2229.5, 3123.2 2287.4 C 3218.4 2285.8, 3351.8 2250.2, 3440.6 2197.1" fill="none" stroke="url(#ribbon169)" stroke-width="22.4" stroke-linecap="round" stroke-opacity="0.354" /></g><g transform="rotate(-14.08 1536.0 1536.0)"><path d="M-368.6 2484.4 C -225.8 2406.7, -25.8 2522.0, 107.5 2362.8 C 250.4 2360.2, 450.4 2555.4, 583.7 2376.2 C 726.5 2389.3, 926.5 2579.5, 1059.8 2455.2 C 1202.7 2454.4, 1402.7 2498.9, 1536.0 2552.0 C 1678.8 2548.4, 1878.8 2438.2, 2012.2 2607.7 C 2155.0 2655.8, 2355.0 2384.6, 2488.3 2588.7 C 2631.2 2626.7, 2831.2 2396.7, 2964.5 2506.4 C 3107.3 2503.6, 3307.3 2475.6, 3440.6 2410.8" fill="none" stroke="url(#ribbon169)" stroke-width="18.4" stroke-linecap="round" stroke-opacity="0.380" /></g><g transform="rotate(-13.50 1536.0 1536.0)"><path d="M-368.6 2679.9 C -241.7 2826.4, -63.9 2608.1, 54.6 2736.6 C 181.6 2751.8, 359.4 2631.7, 477.9 2633.1 C 604.8 2638.9, 782.6 2710.4, 901.1 2558.0 C 1028.1 2579.7, 1205.9 2779.2, 1324.4 2556.8 C 1451.3 2550.0, 1629.1 2783.2, 1747.6 2630.3 C 1874.6 2640.5, 2052.4 2726.3, 2170.9 2733.9 C 2297.9 2743.0, 2475.6 2636.6, 2594.1 2804.7 C 2721.1 2852.1, 2898.9 2587.3, 3017.4 2799.9 C 3144.4 2756.6, 3322.1 2571.2, 3440.6 2722.2" fill="none" stroke="url(#ribbon169)" stroke-width="14.4" stroke-linecap="round" stroke-opacity="0.406" /></g></g>
  <g><ellipse cx="1536.0" cy="1551.9" rx="728.6" ry="605.7" fill="url(#extrude169)" opacity="0.220" /><ellipse cx="1536.0" cy="1567.7" rx="736.0" ry="610.9" fill="url(#extrude169)" opacity="0.205" /><ellipse cx="1536.0" cy="1583.6" rx="743.4" ry="616.1" fill="url(#extrude169)" opacity="0.190" /><ellipse cx="1536.0" cy="1599.5" rx="750.9" ry="621.3" fill="url(#extrude169)" opacity="0.175" /><ellipse cx="1536.0" cy="1615.4" rx="758.3" ry="626.5" fill="url(#extrude169)" opacity="0.160" /><ellipse cx="1536.0" cy="1631.2" rx="765.7" ry="631.7" fill="url(#extrude169)" opacity="0.145" /><ellipse cx="1536.0" cy="1647.1" rx="773.2" ry="636.9" fill="url(#extrude169)" opacity="0.130" /><ellipse cx="1536.0" cy="1663.0" rx="780.6" ry="642.1" fill="url(#extrude169)" opacity="0.115" /><ellipse cx="1536.0" cy="1678.8" rx="788.0" ry="647.4" fill="url(#extrude169)" opacity="0.100" /><ellipse cx="1536.0" cy="1694.7" rx="795.5" ry="652.6" fill="url(#extrude169)" opacity="0.085" /><ellipse cx="1536.0" cy="1710.6" rx="802.9" ry="657.8" fill="url(#extrude169)" opacity="0.070" /><ellipse cx="1536.0" cy="1726.5" rx="810.3" ry="663.0" fill="url(#extrude169)" opacity="0.055" /></g>
  <ellipse cx="1536.0" cy="1726.5" rx="773.2" ry="214.9" fill="#0B1D2D" opacity="0.24" />
  <ellipse cx="1536.0" cy="1536.0" rx="743.4" ry="651.3" fill="url(#orb169)" stroke="#FFFFFF" stroke-opacity="0.42" stroke-width="7" />
  <ellipse cx="1431.9" cy="1392.7" rx="505.5" ry="299.6" fill="#FFFFFF" opacity="0.25" />
  <path d="M 199.4 399.4 C 1013.8 -30.7, 2058.2 768.0, 2872.6 215.0 L 2872.6 983.0 C 2089.0 1228.8, 1013.8 307.2, 199.4 1167.4 Z" fill="url(#glass169)" />
  <rect x="270" y="270" width="2532" height="2532" rx="430" fill="none" stroke="#FFFFFF" stroke-opacity="0.30" stroke-width="5" />
  <rect x="288.4" y="288.4" width="2495.1" height="2495.1" rx="399" fill="none" stroke="#3B82FF" stroke-opacity="0.35" stroke-width="3" />
  <g filter="url(#soft169)"><rect x="2614" y="1522" width="74" height="2" fill="#FFFFFF" opacity="0.417" /><rect x="2650" y="1486" width="2" height="74" fill="#FFFFFF" opacity="0.417" /><rect x="2702" y="693" width="70" height="2" fill="#FFFFFF" opacity="0.417" /><rect x="2736" y="659" width="2" height="70" fill="#FFFFFF" opacity="0.417" /><rect x="1553" y="1120" width="64" height="2" fill="#FFFFFF" opacity="0.584" /><rect x="1584" y="1089" width="2" height="64" fill="#FFFFFF" opacity="0.584" /><rect x="412" y="545" width="28" height="2" fill="#FFFFFF" opacity="0.590" /><rect x="425" y="532" width="2" height="28" fill="#FFFFFF" opacity="0.590" /><rect x="1347" y="1933" width="32" height="2" fill="#FFFFFF" opacity="0.581" /><rect x="1362" y="1918" width="2" height="32" fill="#FFFFFF" opacity="0.581" /><rect x="1934" y="2745" width="76" height="2" fill="#FFFFFF" opacity="0.583" /><rect x="1971" y="2708" width="2" height="76" fill="#FFFFFF" opacity="0.583" /><rect x="1425" y="2169" width="66" height="2" fill="#FFFFFF" opacity="0.431" /><rect x="1457" y="2137" width="2" height="66" fill="#FFFFFF" opacity="0.431" /><rect x="1389" y="2266" width="34" height="2" fill="#FFFFFF" opacity="0.540" /><rect x="1405" y="2250" width="2" height="34" fill="#FFFFFF" opacity="0.540" /><rect x="2383" y="2272" width="68" height="2" fill="#FFFFFF" opacity="0.668" /><rect x="2416" y="2239" width="2" height="68" fill="#FFFFFF" opacity="0.668" /><rect x="1064" y="1070" width="30" height="2" fill="#FFFFFF" opacity="0.576" /><rect x="1078" y="1056" width="2" height="30" fill="#FFFFFF" opacity="0.576" /><rect x="2424" y="768" width="32" height="2" fill="#FFFFFF" opacity="0.546" /><rect x="2439" y="753" width="2" height="32" fill="#FFFFFF" opacity="0.546" /><rect x="732" y="2461" width="60" height="2" fill="#FFFFFF" opacity="0.449" /><rect x="761" y="2432" width="2" height="60" fill="#FFFFFF" opacity="0.449" /><rect x="400" y="983" width="38" height="2" fill="#FFFFFF" opacity="0.546" /><rect x="418" y="965" width="2" height="38" fill="#FFFFFF" opacity="0.546" /><rect x="730" y="1194" width="58" height="2" fill="#FFFFFF" opacity="0.778" /><rect x="758" y="1166" width="2" height="58" fill="#FFFFFF" opacity="0.778" /><rect x="374" y="914" width="30" height="2" fill="#FFFFFF" opacity="0.378" /><rect x="388" y="900" width="2" height="30" fill="#FFFFFF" opacity="0.378" /><rect x="1375" y="2076" width="62" height="2" fill="#FFFFFF" opacity="0.305" /><rect x="1405" y="2046" width="2" height="62" fill="#FFFFFF" opacity="0.305" /><rect x="2247" y="1517" width="68" height="2" fill="#FFFFFF" opacity="0.732" /><rect x="2280" y="1484" width="2" height="68" fill="#FFFFFF" opacity="0.732" /><rect x="1433" y="1570" width="48" height="2" fill="#FFFFFF" opacity="0.755" /><rect x="1456" y="1547" width="2" height="48" fill="#FFFFFF" opacity="0.755" /><rect x="1625" y="674" width="60" height="2" fill="#FFFFFF" opacity="0.524" /><rect x="1654" y="645" width="2" height="60" fill="#FFFFFF" opacity="0.524" /><rect x="385" y="415" width="54" height="2" fill="#FFFFFF" opacity="0.598" /><rect x="411" y="389" width="2" height="54" fill="#FFFFFF" opacity="0.598" /><rect x="887" y="532" width="68" height="2" fill="#FFFFFF" opacity="0.642" /><rect x="920" y="499" width="2" height="68" fill="#FFFFFF" opacity="0.642" /><rect x="2227" y="1921" width="72" height="2" fill="#FFFFFF" opacity="0.800" /><rect x="2262" y="1886" width="2" height="72" fill="#FFFFFF" opacity="0.800" /><rect x="1796" y="528" width="60" height="2" fill="#FFFFFF" opacity="0.432" /><rect x="1825" y="499" width="2" height="60" fill="#FFFFFF" opacity="0.432" /><rect x="471" y="968" width="60" height="2" fill="#FFFFFF" opacity="0.575" /><rect x="500" y="939" width="2" height="60" fill="#FFFFFF" opacity="0.575" /><rect x="1859" y="1267" width="36" height="2" fill="#FFFFFF" opacity="0.689" /><rect x="1876" y="1250" width="2" height="36" fill="#FFFFFF" opacity="0.689" /><rect x="2314" y="1511" width="28" height="2" fill="#FFFFFF" opacity="0.733" /><rect x="2327" y="1498" width="2" height="28" fill="#FFFFFF" opacity="0.733" /></g>
  <g opacity="0.52"><rect x="1023" y="1070" width="768" height="768" rx="128" fill="none" stroke="#0C2030" stroke-width="90" /><path d="M1023 1582 L1572 1363 L2121 1582 L1572 2094 Z" fill="none" stroke="#0C2030" stroke-width="90" stroke-linejoin="round" /></g>
  <g filter="url(#soft169)"><rect x="987" y="1024" width="768" height="768" rx="128" fill="none" stroke="url(#symbol169)" stroke-width="90" /><path d="M987 1536 L1536 1317 L2085 1536 L1536 2048 Z" fill="none" stroke="url(#symbol169)" stroke-width="90" stroke-linejoin="round" /></g>
  <rect x="138" y="138" width="2796" height="2796" rx="629" fill="#FFFFFF" filter="url(#grain169)" opacity="0.18" />
</svg>
