<svg xmlns="http://www.w3.org/2000/svg" width="3072" height="3072" viewBox="0 0 3072 3072">
  <title>QuartzOS App Icon 310 - tidal_monitor_310</title>
  <defs><linearGradient id="bg309" x1="0%" y1="0%" x2="100%" y2="100%"><stop offset="0%" stop-color="#3B82FF" /><stop offset="26%" stop-color="#FF6AB3" /><stop offset="56%" stop-color="#FFD84D" /><stop offset="78%" stop-color="#4F79A7" /><stop offset="100%" stop-color="#1B2630" /></linearGradient><radialGradient id="sun309" cx="24%" cy="28%" r="88%"><stop offset="0%" stop-color="#FFFFFF" stop-opacity="0.62" /><stop offset="30%" stop-color="#53E3A6" stop-opacity="0.35" /><stop offset="100%" stop-color="#53E3A6" stop-opacity="0" /></radialGradient><linearGradient id="glass309" x1="0%" y1="0%" x2="0%" y2="100%"><stop offset="0%" stop-color="#FFFFFF" stop-opacity="0.70" /><stop offset="46%" stop-color="#FFFFFF" stop-opacity="0.26" /><stop offset="100%" stop-color="#FFFFFF" stop-opacity="0.00" /></linearGradient><linearGradient id="ribbon309" x1="0%" y1="0%" x2="100%" y2="0%"><stop offset="0%" stop-color="#3B82FF" stop-opacity="0.18" /><stop offset="34%" stop-color="#FF6AB3" stop-opacity="0.72" /><stop offset="66%" stop-color="#FFD84D" stop-opacity="0.72" /><stop offset="100%" stop-color="#53E3A6" stop-opacity="0.18" /></linearGradient><radialGradient id="orb309" cx="34%" cy="27%" r="74%"><stop offset="0%" stop-color="#FFFFFF" stop-opacity="0.84" /><stop offset="30%" stop-color="#3B82FF" stop-opacity="0.52" /><stop offset="68%" stop-color="#FF6AB3" stop-opacity="0.42" /><stop offset="100%" stop-color="#FFD84D" stop-opacity="0.20" /></radialGradient><linearGradient id="extrude309" x1="0%" y1="0%" x2="0%" y2="100%"><stop offset="0%" stop-color="#15283C" stop-opacity="0.45" /><stop offset="100%" stop-color="#08131D" stop-opacity="0.06" /></linearGradient><linearGradient id="symbol309" x1="0%" y1="0%" x2="100%" y2="100%"><stop offset="0%" stop-color="#FFFFFF" /><stop offset="100%" stop-color="#53E3A6" /></linearGradient><filter id="shadow309" x="-40%" y="-40%" width="180%" height="180%"><feDropShadow dx="0" dy="49" stdDeviation="86" flood-color="#06111A" flood-opacity="0.54" /></filter><filter id="soft309" x="-40%" y="-40%" width="180%" height="180%"><feDropShadow dx="0" dy="0" stdDeviation="14" flood-color="#3B82FF" flood-opacity="0.45" /></filter><filter id="grain309"><feTurbulence type="fractalNoise" baseFrequency="0.690" numOctaves="2" seed="309" /><feColorMatrix type="saturate" values="0" /><feComponentTransfer><feFuncA type="table" tableValues="0 0.09" /></feComponentTransfer></filter></defs>
  <rect x="138" y="138" width="2796" height="2796" rx="629" fill="url(#bg309)" filter="url(#shadow309)" />
  <rect x="138" y="138" width="2796" height="2796" rx="629" fill="url(#sun309)" />
  <g><circle cx="918" cy="853" r="39" fill="#FFFFFF" opacity="0.212" /><circle cx="1571" cy="2114" r="91" fill="#FFFFFF" opacity="0.151" /><circle cx="492" cy="1491" r="97" fill="#FFFFFF" opacity="0.097" /><circle cx="939" cy="2380" r="88" fill="#FFFFFF" opacity="0.236" /><circle cx="574" cy="1700" r="86" fill="#FFFFFF" opacity="0.231" /><circle cx="897" cy="2505" r="78" fill="#FFFFFF" opacity="0.167" /><circle cx="1373" cy="837" r="72" fill="#FFFFFF" opacity="0.131" /><circle cx="2652" cy="1668" r="88" fill="#FFFFFF" opacity="0.145" /><circle cx="1853" cy="1983" r="154" fill="#FFFFFF" opacity="0.217" /><circle cx="801" cy="1819" r="99" fill="#FFFFFF" opacity="0.166" /><circle cx="2024" cy="1690" r="146" fill="#FFFFFF" opacity="0.157" /><circle cx="568" cy="493" r="50" fill="#FFFFFF" opacity="0.076" /><circle cx="1280" cy="1437" r="85" fill="#FFFFFF" opacity="0.194" /><circle cx="760" cy="554" r="61" fill="#FFFFFF" opacity="0.097" /><circle cx="2149" cy="2475" r="115" fill="#FFFFFF" opacity="0.227" /><circle cx="790" cy="908" r="147" fill="#FFFFFF" opacity="0.188" /><circle cx="754" cy="810" r="88" fill="#FFFFFF" opacity="0.087" /><circle cx="1431" cy="1755" r="152" fill="#FFFFFF" opacity="0.224" /><circle cx="1354" cy="1509" r="134" fill="#FFFFFF" opacity="0.077" /><circle cx="1628" cy="399" r="151" fill="#FFFFFF" opacity="0.104" /><circle cx="1271" cy="2012" r="103" fill="#FFFFFF" opacity="0.188" /><circle cx="709" cy="1583" r="89" fill="#FFFFFF" opacity="0.138" /><circle cx="2211" cy="1939" r="78" fill="#FFFFFF" opacity="0.128" /><circle cx="1328" cy="1623" r="145" fill="#FFFFFF" opacity="0.089" /><circle cx="1324" cy="1078" r="147" fill="#FFFFFF" opacity="0.174" /><circle cx="1462" cy="1441" r="74" fill="#FFFFFF" opacity="0.127" /><circle cx="1649" cy="2308" r="131" fill="#FFFFFF" opacity="0.147" /><circle cx="1142" cy="576" r="135" fill="#FFFFFF" opacity="0.072" /></g>
  <g><path d="M 391.9 644.5 L 2694.8 368.0 L 2694.8 806.6 L 391.9 1083.1 Z" fill="#FFFFFF" opacity="0.095" /><path d="M 382.5 853.7 L 2859.8 577.2 L 2859.8 1017.4 L 382.5 1293.9 Z" fill="#FFFFFF" opacity="0.160" /><path d="M 159.3 1176.0 L 2785.9 899.5 L 2785.9 1344.3 L 159.3 1620.8 Z" fill="#FFFFFF" opacity="0.226" /><path d="M 339.6 1376.4 L 2768.4 1100.0 L 2768.4 1586.1 L 339.6 1862.6 Z" fill="#FFFFFF" opacity="0.187" /><path d="M 159.9 1653.9 L 2770.5 1377.4 L 2770.5 1836.0 L 159.9 2112.5 Z" fill="#FFFFFF" opacity="0.204" /><path d="M 346.1 1911.6 L 2731.1 1635.2 L 2731.1 2114.0 L 346.1 2390.5 Z" fill="#FFFFFF" opacity="0.109" /><path d="M 226.2 2170.5 L 2750.2 1894.0 L 2750.2 2374.6 L 226.2 2651.1 Z" fill="#FFFFFF" opacity="0.104" /><path d="M 152.0 2413.2 L 2769.2 2136.7 L 2769.2 2627.0 L 152.0 2903.5 Z" fill="#FFFFFF" opacity="0.116" /></g>
  <g filter="url(#soft309)"><g transform="rotate(-17.33 1536.0 1536.0)"><path d="M-368.6 531.1 C -225.8 558.7, -25.8 499.4, 107.5 528.8 C 250.4 529.8, 450.4 532.3, 583.7 489.9 C 726.5 486.2, 926.5 563.1, 1059.8 476.0 C 1202.7 479.1, 1402.7 582.3, 1536.0 495.5 C 1678.8 481.4, 1878.8 563.9, 2012.2 536.6 C 2155.0 535.2, 2355.0 528.8, 2488.3 574.4 C 2631.2 574.7, 2831.2 514.0, 2964.5 586.0 C 3107.3 578.1, 3307.3 496.1, 3440.6 564.2" fill="none" stroke="url(#ribbon309)" stroke-width="58.4" stroke-linecap="round" stroke-opacity="0.120" /></g><g transform="rotate(-16.75 1536.0 1536.0)"><path d="M-368.6 738.4 C -241.7 670.2, -63.9 757.1, 54.6 687.6 C 181.6 671.2, 359.4 761.9, 477.9 728.9 C 604.8 730.4, 782.6 749.1, 901.1 776.0 C 1028.1 781.1, 1205.9 726.6, 1324.4 800.3 C 1451.3 821.6, 1629.1 685.6, 1747.6 786.9 C 1874.6 792.8, 2052.4 707.4, 2170.9 744.2 C 2297.9 743.6, 2475.6 735.9, 2594.1 697.9 C 2721.1 688.6, 2898.9 779.9, 3017.4 676.1 C 3144.4 678.5, 3322.1 799.5, 3440.6 692.1" fill="none" stroke="url(#ribbon309)" stroke-width="54.4" stroke-linecap="round" stroke-opacity="0.146" /></g><g transform="rotate(-16.17 1536.0 1536.0)"><path d="M-368.6 959.9 C -254.4 898.5, -94.4 1028.7, 12.3 903.1 C 126.6 891.9, 286.6 1006.2, 393.2 949.0 C 507.5 947.4, 667.5 970.7, 774.1 1001.5 C 888.4 990.8, 1048.4 914.3, 1155.1 1028.8 C 1269.4 1052.8, 1429.3 915.7, 1536.0 1014.3 C 1650.3 1000.8, 1810.3 911.3, 1916.9 966.9 C 2031.2 966.3, 2191.2 953.4, 2297.9 915.2 C 2412.1 902.4, 2572.1 1003.1, 2678.8 890.7 C 2793.1 887.5, 2953.1 1011.9, 3059.7 908.2 C 3174.0 917.0, 3334.0 986.8, 3440.6 957.0" fill="none" stroke="url(#ribbon309)" stroke-width="50.4" stroke-linecap="round" stroke-opacity="0.172" /></g><g transform="rotate(-15.59 1536.0 1536.0)"><path d="M-368.6 1048.9 C -264.8 1004.6, -119.3 1070.3, -22.3 972.8 C 81.5 962.0, 227.0 1076.9, 324.0 990.8 C 427.8 970.9, 573.3 1096.3, 670.3 1044.1 C 774.1 1045.6, 919.6 1051.1, 1016.6 1100.3 C 1120.4 1081.1, 1265.9 1021.8, 1362.9 1125.4 C 1466.7 1145.7, 1612.2 996.0, 1709.1 1104.0 C 1813.0 1101.5, 1958.5 1005.1, 2055.4 1049.3 C 2159.3 1049.3, 2304.8 1048.6, 2401.7 994.3 C 2505.6 973.0, 2651.1 1104.2, 2748.0 972.5 C 2851.9 949.1, 2997.4 1084.9, 3094.3 997.0 C 3198.2 980.1, 3343.7 1093.4, 3440.6 1053.1" fill="none" stroke="url(#ribbon309)" stroke-width="46.4" stroke-linecap="round" stroke-opacity="0.198" /></g><g transform="rotate(-15.01 1536.0 1536.0)"><path d="M-368.6 1344.9 C -273.4 1418.8, -140.1 1318.3, -51.2 1395.1 C 44.0 1386.6, 177.4 1289.5, 266.2 1331.9 C 361.5 1337.0, 494.8 1359.8, 583.7 1276.6 C 678.9 1256.2, 812.2 1404.1, 901.1 1262.7 C 996.4 1261.9, 1129.7 1426.6, 1218.6 1298.6 C 1313.8 1299.9, 1447.1 1381.5, 1536.0 1362.6 C 1631.2 1362.0, 1764.6 1324.1, 1853.4 1415.8 C 1948.7 1438.1, 2082.0 1271.3, 2170.9 1426.0 C 2266.1 1457.0, 2399.4 1258.1, 2488.3 1387.0 C 2583.6 1376.4, 2716.9 1297.6, 2805.8 1322.4 C 2901.0 1313.6, 3034.3 1354.9, 3123.2 1271.5 C 3218.4 1282.8, 3351.8 1392.2, 3440.6 1265.1" fill="none" stroke="url(#ribbon309)" stroke-width="42.4" stroke-linecap="round" stroke-opacity="0.224" /></g><g transform="rotate(-14.43 1536.0 1536.0)"><path d="M-368.6 1432.6 C -225.8 1378.2, -25.8 1505.2, 107.5 1396.7 C 250.4 1384.9, 450.4 1450.3, 583.7 1467.2 C 726.5 1455.1, 926.5 1418.6, 1059.8 1516.8 C 1202.7 1533.7, 1402.7 1337.1, 1536.0 1515.2 C 1678.8 1483.8, 1878.8 1400.1, 2012.2 1463.5 C 2155.0 1455.7, 2355.0 1410.4, 2488.3 1393.1 C 2631.2 1392.8, 2831.2 1466.5, 2964.5 1346.5 C 3107.3 1336.3, 3307.3 1506.4, 3440.6 1352.2" fill="none" stroke="url(#ribbon309)" stroke-width="38.4" stroke-linecap="round" stroke-opacity="0.250" /></g><g transform="rotate(-13.85 1536.0 1536.0)"><path d="M-368.6 1625.4 C -241.7 1683.0, -63.9 1553.7, 54.6 1642.0 C 181.6 1639.0, 359.4 1609.3, 477.9 1567.9 C 604.8 1550.0, 782.6 1647.0, 901.1 1528.7 C 1028.1 1521.2, 1205.9 1692.5, 1324.4 1548.1 C 1451.3 1535.7, 1629.1 1649.8, 1747.6 1614.4 C 1874.6 1617.1, 2052.4 1636.2, 2170.9 1687.4 C 2297.9 1665.4, 2475.6 1592.0, 2594.1 1722.8 C 2721.1 1731.2, 2898.9 1513.7, 3017.4 1699.1 C 3144.4 1679.0, 3322.1 1560.9, 3440.6 1630.7" fill="none" stroke="url(#ribbon309)" stroke-width="34.4" stroke-linecap="round" stroke-opacity="0.276" /></g><g transform="rotate(-13.27 1536.0 1536.0)"><path d="M-368.6 1860.2 C -254.4 1916.8, -94.4 1834.2, 12.3 1837.6 C 126.6 1845.6, 286.6 1868.5, 393.2 1771.0 C 507.5 1766.4, 667.5 1901.1, 774.1 1758.6 C 888.4 1790.3, 1048.4 1957.1, 1155.1 1807.7 C 1269.4 1823.5, 1429.3 1896.8, 1536.0 1888.7 C 1650.3 1897.9, 1810.3 1833.2, 1916.9 1952.3 C 2031.2 1962.6, 2191.2 1761.3, 2297.9 1960.1 C 2412.1 1936.7, 2572.1 1766.1, 2678.8 1907.2 C 2793.1 1890.4, 2953.1 1832.5, 3059.7 1825.8 C 3174.0 1812.5, 3334.0 1876.1, 3440.6 1765.2" fill="none" stroke="url(#ribbon309)" stroke-width="30.4" stroke-linecap="round" stroke-opacity="0.302" /></g><g transform="rotate(-12.69 1536.0 1536.0)"><path d="M-368.6 2040.9 C -264.8 1975.8, -119.3 2145.9, -22.3 1994.2 C 81.5 1996.4, 227.0 2089.1, 324.0 2081.2 C 427.8 2096.6, 573.3 1996.7, 670.3 2143.8 C 774.1 2144.4, 919.6 1948.2, 1016.6 2143.9 C 1120.4 2166.4, 1265.9 2009.2, 1362.9 2081.5 C 1466.7 2070.2, 1612.2 2017.9, 1709.1 1994.5 C 1813.0 1996.7, 1958.5 2084.8, 2055.4 1935.5 C 2159.3 1953.4, 2304.8 2126.8, 2401.7 1940.5 C 2505.6 1912.5, 2651.1 2097.3, 2748.0 2006.3 C 2851.9 1995.6, 2997.4 2060.9, 3094.3 2093.1 C 3198.2 2110.1, 3343.7 2008.2, 3440.6 2148.2" fill="none" stroke="url(#ribbon309)" stroke-width="26.4" stroke-linecap="round" stroke-opacity="0.328" /></g><g transform="rotate(-12.11 1536.0 1536.0)"><path d="M-368.6 2263.4 C -273.4 2319.5, -140.1 2228.7, -51.2 2249.7 C 44.0 2245.4, 177.4 2277.2, 266.2 2169.1 C 361.5 2204.1, 494.8 2315.3, 583.7 2145.8 C 678.9 2122.4, 812.2 2329.7, 901.1 2193.8 C 996.4 2183.2, 1129.7 2323.3, 1218.6 2284.1 C 1313.8 2279.2, 1447.1 2249.1, 1536.0 2361.8 C 1631.2 2389.3, 1764.6 2179.6, 1853.4 2379.9 C 1948.7 2398.4, 2082.0 2160.8, 2170.9 2327.3 C 2266.1 2341.6, 2399.4 2216.8, 2488.3 2236.0 C 2583.6 2235.6, 2716.9 2288.5, 2805.8 2161.4 C 2901.0 2121.0, 3034.3 2374.9, 3123.2 2148.6 C 3218.4 2113.4, 3351.8 2319.6, 3440.6 2205.5" fill="none" stroke="url(#ribbon309)" stroke-width="22.4" stroke-linecap="round" stroke-opacity="0.354" /></g><g transform="rotate(-11.53 1536.0 1536.0)"><path d="M-368.6 2507.2 C -225.8 2410.8, -25.8 2586.9, 107.5 2502.7 C 250.4 2504.1, 450.4 2510.3, 583.7 2594.4 C 726.5 2569.9, 926.5 2430.5, 1059.8 2633.1 C 1202.7 2602.3, 1402.7 2433.9, 1536.0 2595.5 C 1678.8 2628.9, 1878.8 2441.6, 2012.2 2504.3 C 2155.0 2505.0, 2355.0 2510.1, 2488.3 2414.8 C 2631.2 2404.1, 2831.2 2562.2, 2964.5 2381.4 C 3107.3 2416.6, 3307.3 2624.9, 3440.6 2424.3" fill="none" stroke="url(#ribbon309)" stroke-width="18.4" stroke-linecap="round" stroke-opacity="0.380" /></g><g transform="rotate(-10.95 1536.0 1536.0)"><path d="M-368.6 2592.0 C -241.7 2623.4, -63.9 2550.1, 54.6 2530.8 C 181.6 2537.3, 359.4 2638.2, 477.9 2464.6 C 604.8 2475.6, 782.6 2639.7, 901.1 2475.7 C 1028.1 2479.4, 1205.9 2683.1, 1324.4 2557.3 C 1451.3 2562.7, 1629.1 2613.8, 1747.6 2660.0 C 1874.6 2647.3, 2052.4 2527.5, 2170.9 2721.4 C 2297.9 2718.6, 2475.6 2529.1, 2594.1 2704.3 C 2721.1 2687.1, 2898.9 2550.2, 3017.4 2619.1 C 3144.4 2626.6, 3322.1 2570.6, 3440.6 2517.5" fill="none" stroke="url(#ribbon309)" stroke-width="14.4" stroke-linecap="round" stroke-opacity="0.406" /></g></g>
  <g><ellipse cx="1536.0" cy="1551.9" rx="728.6" ry="605.7" fill="url(#extrude309)" opacity="0.220" /><ellipse cx="1536.0" cy="1567.7" rx="736.0" ry="610.9" fill="url(#extrude309)" opacity="0.205" /><ellipse cx="1536.0" cy="1583.6" rx="743.4" ry="616.1" fill="url(#extrude309)" opacity="0.190" /><ellipse cx="1536.0" cy="1599.5" rx="750.9" ry="621.3" fill="url(#extrude309)" opacity="0.175" /><ellipse cx="1536.0" cy="1615.4" rx="758.3" ry="626.5" fill="url(#extrude309)" opacity="0.160" /><ellipse cx="1536.0" cy="1631.2" rx="765.7" ry="631.7" fill="url(#extrude309)" opacity="0.145" /><ellipse cx="1536.0" cy="1647.1" rx="773.2" ry="636.9" fill="url(#extrude309)" opacity="0.130" /><ellipse cx="1536.0" cy="1663.0" rx="780.6" ry="642.1" fill="url(#extrude309)" opacity="0.115" /><ellipse cx="1536.0" cy="1678.8" rx="788.0" ry="647.4" fill="url(#extrude309)" opacity="0.100" /><ellipse cx="1536.0" cy="1694.7" rx="795.5" ry="652.6" fill="url(#extrude309)" opacity="0.085" /><ellipse cx="1536.0" cy="1710.6" rx="802.9" ry="657.8" fill="url(#extrude309)" opacity="0.070" /><ellipse cx="1536.0" cy="1726.5" rx="810.3" ry="663.0" fill="url(#extrude309)" opacity="0.055" /></g>
  <ellipse cx="1536.0" cy="1726.5" rx="773.2" ry="214.9" fill="#0B1D2D" opacity="0.24" />
  <ellipse cx="1536.0" cy="1536.0" rx="743.4" ry="651.3" fill="url(#orb309)" stroke="#FFFFFF" stroke-opacity="0.42" stroke-width="7" />
  <ellipse cx="1431.9" cy="1392.7" rx="505.5" ry="299.6" fill="#FFFFFF" opacity="0.25" />
  <path d="M 199.4 399.4 C 1013.8 -30.7, 2058.2 768.0, 2872.6 215.0 L 2872.6 983.0 C 2089.0 1228.8, 1013.8 307.2, 199.4 1167.4 Z" fill="url(#glass309)" />
  <rect x="270" y="270" width="2532" height="2532" rx="430" fill="none" stroke="#FFFFFF" stroke-opacity="0.30" stroke-width="5" />
  <rect x="288.4" y="288.4" width="2495.1" height="2495.1" rx="399" fill="none" stroke="#3B82FF" stroke-opacity="0.35" stroke-width="3" />
  <g filter="url(#soft309)"><rect x="2617" y="1710" width="70" height="2" fill="#FFFFFF" opacity="0.837" /><rect x="2651" y="1676" width="2" height="70" fill="#FFFFFF" opacity="0.837" /><rect x="280" y="1088" width="68" height="2" fill="#FFFFFF" opacity="0.729" /><rect x="313" y="1055" width="2" height="68" fill="#FFFFFF" opacity="0.729" /><rect x="2333" y="2352" width="46" height="2" fill="#FFFFFF" opacity="0.649" /><rect x="2355" y="2330" width="2" height="46" fill="#FFFFFF" opacity="0.649" /><rect x="744" y="1447" width="36" height="2" fill="#FFFFFF" opacity="0.541" /><rect x="761" y="1430" width="2" height="36" fill="#FFFFFF" opacity="0.541" /><rect x="383" y="2143" width="32" height="2" fill="#FFFFFF" opacity="0.735" /><rect x="398" y="2128" width="2" height="32" fill="#FFFFFF" opacity="0.735" /><rect x="291" y="2482" width="68" height="2" fill="#FFFFFF" opacity="0.814" /><rect x="324" y="2449" width="2" height="68" fill="#FFFFFF" opacity="0.814" /><rect x="2163" y="2310" width="70" height="2" fill="#FFFFFF" opacity="0.447" /><rect x="2197" y="2276" width="2" height="70" fill="#FFFFFF" opacity="0.447" /><rect x="447" y="2152" width="68" height="2" fill="#FFFFFF" opacity="0.710" /><rect x="480" y="2119" width="2" height="68" fill="#FFFFFF" opacity="0.710" /><rect x="419" y="2141" width="78" height="2" fill="#FFFFFF" opacity="0.708" /><rect x="457" y="2103" width="2" height="78" fill="#FFFFFF" opacity="0.708" /><rect x="2363" y="249" width="56" height="2" fill="#FFFFFF" opacity="0.415" /><rect x="2390" y="222" width="2" height="56" fill="#FFFFFF" opacity="0.415" /><rect x="1564" y="2308" width="40" height="2" fill="#FFFFFF" opacity="0.416" /><rect x="1583" y="2289" width="2" height="40" fill="#FFFFFF" opacity="0.416" /><rect x="1887" y="1485" width="48" height="2" fill="#FFFFFF" opacity="0.382" /><rect x="1910" y="1462" width="2" height="48" fill="#FFFFFF" opacity="0.382" /><rect x="601" y="1435" width="26" height="2" fill="#FFFFFF" opacity="0.451" /><rect x="613" y="1423" width="2" height="26" fill="#FFFFFF" opacity="0.451" /><rect x="1103" y="1746" width="46" height="2" fill="#FFFFFF" opacity="0.465" /><rect x="1125" y="1724" width="2" height="46" fill="#FFFFFF" opacity="0.465" /><rect x="381" y="999" width="26" height="2" fill="#FFFFFF" opacity="0.415" /><rect x="393" y="987" width="2" height="26" fill="#FFFFFF" opacity="0.415" /><rect x="1122" y="313" width="62" height="2" fill="#FFFFFF" opacity="0.606" /><rect x="1152" y="283" width="2" height="62" fill="#FFFFFF" opacity="0.606" /><rect x="1920" y="949" width="34" height="2" fill="#FFFFFF" opacity="0.784" /><rect x="1936" y="933" width="2" height="34" fill="#FFFFFF" opacity="0.784" /><rect x="1375" y="286" width="50" height="2" fill="#FFFFFF" opacity="0.313" /><rect x="1399" y="262" width="2" height="50" fill="#FFFFFF" opacity="0.313" /><rect x="1206" y="1144" width="78" height="2" fill="#FFFFFF" opacity="0.548" /><rect x="1244" y="1106" width="2" height="78" fill="#FFFFFF" opacity="0.548" /><rect x="2728" y="2228" width="54" height="2" fill="#FFFFFF" opacity="0.792" /><rect x="2754" y="2202" width="2" height="54" fill="#FFFFFF" opacity="0.792" /><rect x="2616" y="1066" width="64" height="2" fill="#FFFFFF" opacity="0.798" /><rect x="2647" y="1035" width="2" height="64" fill="#FFFFFF" opacity="0.798" /><rect x="2108" y="1123" width="32" height="2" fill="#FFFFFF" opacity="0.371" /><rect x="2123" y="1108" width="2" height="32" fill="#FFFFFF" opacity="0.371" /><rect x="806" y="318" width="54" height="2" fill="#FFFFFF" opacity="0.516" /><rect x="832" y="292" width="2" height="54" fill="#FFFFFF" opacity="0.516" /><rect x="941" y="1747" width="66" height="2" fill="#FFFFFF" opacity="0.818" /><rect x="973" y="1715" width="2" height="66" fill="#FFFFFF" opacity="0.818" /><rect x="2022" y="2421" width="62" height="2" fill="#FFFFFF" opacity="0.503" /><rect x="2052" y="2391" width="2" height="62" fill="#FFFFFF" opacity="0.503" /><rect x="2663" y="2085" width="80" height="2" fill="#FFFFFF" opacity="0.363" /><rect x="2702" y="2046" width="2" height="80" fill="#FFFFFF" opacity="0.363" /></g>
  <g opacity="0.52"><rect x="1060" y="1070" width="1024" height="1024" rx="153" fill="none" stroke="#0C2030" stroke-width="90" /><line x1="1316" y1="1326" x2="1828" y2="1838" stroke="#0C2030" stroke-width="90" stroke-linecap="round" /><line x1="1828" y1="1326" x2="1316" y2="1838" stroke="#0C2030" stroke-width="90" stroke-linecap="round" /></g>
  <g filter="url(#soft309)"><rect x="1024" y="1024" width="1024" height="1024" rx="153" fill="none" stroke="url(#symbol309)" stroke-width="90" /><line x1="1280" y1="1280" x2="1792" y2="1792" stroke="url(#symbol309)" stroke-width="90" stroke-linecap="round" /><line x1="1792" y1="1280" x2="1280" y2="1792" stroke="url(#symbol309)" stroke-width="90" stroke-linecap="round" /></g>
  <rect x="138" y="138" width="2796" height="2796" rx="629" fill="#FFFFFF" filter="url(#grain309)" opacity="0.18" />
</svg>
