<svg xmlns="http://www.w3.org/2000/svg" width="3072" height="3072" viewBox="0 0 3072 3072">
  <title>QuartzOS App Icon 290 - tidal_settings_290</title>
  <defs><linearGradient id="bg289" x1="0%" y1="0%" x2="100%" y2="100%"><stop offset="0%" stop-color="#8A5CFF" /><stop offset="26%" stop-color="#FF9F43" /><stop offset="56%" stop-color="#53E3A6" /><stop offset="78%" stop-color="#2E8D96" /><stop offset="100%" stop-color="#0F2A2E" /></linearGradient><radialGradient id="sun289" cx="24%" cy="31%" r="88%"><stop offset="0%" stop-color="#FFFFFF" stop-opacity="0.62" /><stop offset="30%" stop-color="#36D1FF" stop-opacity="0.35" /><stop offset="100%" stop-color="#36D1FF" stop-opacity="0" /></radialGradient><linearGradient id="glass289" x1="0%" y1="0%" x2="0%" y2="100%"><stop offset="0%" stop-color="#FFFFFF" stop-opacity="0.70" /><stop offset="46%" stop-color="#FFFFFF" stop-opacity="0.26" /><stop offset="100%" stop-color="#FFFFFF" stop-opacity="0.00" /></linearGradient><linearGradient id="ribbon289" x1="0%" y1="0%" x2="100%" y2="0%"><stop offset="0%" stop-color="#8A5CFF" stop-opacity="0.18" /><stop offset="34%" stop-color="#FF9F43" stop-opacity="0.72" /><stop offset="66%" stop-color="#53E3A6" stop-opacity="0.72" /><stop offset="100%" stop-color="#36D1FF" stop-opacity="0.18" /></linearGradient><radialGradient id="orb289" cx="34%" cy="27%" r="74%"><stop offset="0%" stop-color="#FFFFFF" stop-opacity="0.84" /><stop offset="30%" stop-color="#8A5CFF" stop-opacity="0.52" /><stop offset="68%" stop-color="#FF9F43" stop-opacity="0.42" /><stop offset="100%" stop-color="#53E3A6" stop-opacity="0.20" /></radialGradient><linearGradient id="extrude289" x1="0%" y1="0%" x2="0%" y2="100%"><stop offset="0%" stop-color="#15283C" stop-opacity="0.45" /><stop offset="100%" stop-color="#08131D" stop-opacity="0.06" /></linearGradient><linearGradient id="symbol289" x1="0%" y1="0%" x2="100%" y2="100%"><stop offset="0%" stop-color="#FFFFFF" /><stop offset="100%" stop-color="#36D1FF" /></linearGradient><filter id="shadow289" x="-40%" y="-40%" width="180%" height="180%"><feDropShadow dx="0" dy="49" stdDeviation="86" flood-color="#06111A" flood-opacity="0.54" /></filter><filter id="soft289" x="-40%" y="-40%" width="180%" height="180%"><feDropShadow dx="0" dy="0" stdDeviation="14" flood-color="#8A5CFF" flood-opacity="0.45" /></filter><filter id="grain289"><feTurbulence type="fractalNoise" baseFrequency="0.789" numOctaves="2" seed="289" /><feColorMatrix type="saturate" values="0" /><feComponentTransfer><feFuncA type="table" tableValues="0 0.09" /></feComponentTransfer></filter></defs>
  <rect x="138" y="138" width="2796" height="2796" rx="629" fill="url(#bg289)" filter="url(#shadow289)" />
  <rect x="138" y="138" width="2796" height="2796" rx="629" fill="url(#sun289)" />
  <g><circle cx="1956" cy="847" r="159" fill="#FFFFFF" opacity="0.063" /><circle cx="1557" cy="2365" r="53" fill="#FFFFFF" opacity="0.231" /><circle cx="1000" cy="826" r="149" fill="#FFFFFF" opacity="0.230" /><circle cx="2324" cy="1991" r="110" fill="#FFFFFF" opacity="0.161" /><circle cx="2071" cy="2402" r="56" fill="#FFFFFF" opacity="0.239" /><circle cx="571" cy="1088" r="115" fill="#FFFFFF" opacity="0.201" /><circle cx="1851" cy="2558" r="122" fill="#FFFFFF" opacity="0.141" /><circle cx="2329" cy="613" r="122" fill="#FFFFFF" opacity="0.104" /><circle cx="2024" cy="2651" r="138" fill="#FFFFFF" opacity="0.178" /><circle cx="2571" cy="1316" r="60" fill="#FFFFFF" opacity="0.114" /><circle cx="1274" cy="2282" r="144" fill="#FFFFFF" opacity="0.115" /><circle cx="2677" cy="1870" r="81" fill="#FFFFFF" opacity="0.131" /><circle cx="2023" cy="491" r="132" fill="#FFFFFF" opacity="0.106" /><circle cx="605" cy="1948" r="156" fill="#FFFFFF" opacity="0.217" /><circle cx="1546" cy="1910" r="79" fill="#FFFFFF" opacity="0.226" /><circle cx="473" cy="657" r="135" fill="#FFFFFF" opacity="0.138" /><circle cx="2509" cy="1485" r="94" fill="#FFFFFF" opacity="0.104" /><circle cx="1853" cy="2301" r="150" fill="#FFFFFF" opacity="0.076" /><circle cx="871" cy="510" r="44" fill="#FFFFFF" opacity="0.094" /><circle cx="1478" cy="746" r="144" fill="#FFFFFF" opacity="0.196" /><circle cx="2549" cy="1238" r="139" fill="#FFFFFF" opacity="0.211" /><circle cx="2670" cy="2255" r="103" fill="#FFFFFF" opacity="0.117" /><circle cx="1111" cy="1645" r="145" fill="#FFFFFF" opacity="0.065" /><circle cx="2163" cy="559" r="150" fill="#FFFFFF" opacity="0.119" /><circle cx="563" cy="2323" r="49" fill="#FFFFFF" opacity="0.161" /><circle cx="992" cy="2402" r="121" fill="#FFFFFF" opacity="0.104" /><circle cx="1512" cy="1543" r="83" fill="#FFFFFF" opacity="0.233" /><circle cx="2111" cy="503" r="103" fill="#FFFFFF" opacity="0.100" /></g>
  <g><path d="M 366.7 635.1 L 2830.4 358.6 L 2830.4 842.6 L 366.7 1119.0 Z" fill="#FFFFFF" opacity="0.174" /><path d="M 249.5 887.0 L 2797.2 610.5 L 2797.2 1076.3 L 249.5 1352.8 Z" fill="#FFFFFF" opacity="0.141" /><path d="M 317.3 1145.8 L 2894.3 869.3 L 2894.3 1301.0 L 317.3 1577.5 Z" fill="#FFFFFF" opacity="0.151" /><path d="M 286.4 1371.0 L 2831.5 1094.5 L 2831.5 1561.8 L 286.4 1838.3 Z" fill="#FFFFFF" opacity="0.161" /><path d="M 170.1 1644.6 L 2869.5 1368.1 L 2869.5 1792.5 L 170.1 2068.9 Z" fill="#FFFFFF" opacity="0.084" /><path d="M 379.8 1933.9 L 2834.8 1657.4 L 2834.8 2121.6 L 379.8 2398.1 Z" fill="#FFFFFF" opacity="0.144" /><path d="M 216.8 2154.7 L 2919.5 1878.2 L 2919.5 2311.3 L 216.8 2587.7 Z" fill="#FFFFFF" opacity="0.097" /><path d="M 287.2 2438.3 L 2875.3 2161.8 L 2875.3 2629.2 L 287.2 2905.7 Z" fill="#FFFFFF" opacity="0.101" /></g>
  <g filter="url(#soft289)"><g transform="rotate(-4.84 1536.0 1536.0)"><path d="M-368.6 575.7 C -225.8 559.2, -25.8 588.9, 107.5 602.0 C 250.4 608.1, 450.4 563.5, 583.7 628.9 C 726.5 618.5, 926.5 545.2, 1059.8 623.5 C 1202.7 640.1, 1402.7 535.7, 1536.0 589.0 C 1678.8 585.1, 1878.8 569.2, 2012.2 546.5 C 2155.0 539.4, 2355.0 595.9, 2488.3 521.6 C 2631.2 529.9, 2831.2 626.8, 2964.5 529.6 C 3107.3 546.6, 3307.3 593.4, 3440.6 565.4" fill="none" stroke="url(#ribbon289)" stroke-width="58.4" stroke-linecap="round" stroke-opacity="0.120" /></g><g transform="rotate(-4.26 1536.0 1536.0)"><path d="M-368.6 758.5 C -241.7 788.5, -63.9 743.9, 54.6 819.0 C 181.6 809.3, 359.4 731.1, 477.9 811.5 C 604.8 807.1, 782.6 695.6, 901.1 771.8 C 1028.1 767.5, 1205.9 749.2, 1324.4 724.1 C 1451.3 716.3, 1629.1 773.0, 1747.6 697.2 C 1874.6 700.7, 2052.4 780.8, 2170.9 707.5 C 2297.9 727.1, 2475.6 802.3, 2594.1 748.7 C 2721.1 747.5, 2898.9 764.3, 3017.4 795.9 C 3144.4 800.1, 3322.1 733.3, 3440.6 820.3" fill="none" stroke="url(#ribbon289)" stroke-width="54.4" stroke-linecap="round" stroke-opacity="0.146" /></g><g transform="rotate(-3.68 1536.0 1536.0)"><path d="M-368.6 912.4 C -254.4 851.9, -94.4 951.0, 12.3 884.0 C 126.6 881.1, 286.6 921.3, 393.2 938.0 C 507.5 929.4, 667.5 884.3, 774.1 976.5 C 888.4 952.2, 1048.4 862.1, 1155.1 976.1 C 1269.4 963.1, 1429.3 873.2, 1536.0 937.0 C 1650.3 944.7, 1810.3 889.7, 1916.9 883.0 C 2031.2 875.5, 2191.2 926.8, 2297.9 846.8 C 2412.1 845.1, 2572.1 952.8, 2678.8 850.3 C 2793.1 868.1, 2953.1 967.3, 3059.7 891.6 C 3174.0 895.6, 3334.0 928.5, 3440.6 945.4" fill="none" stroke="url(#ribbon289)" stroke-width="50.4" stroke-linecap="round" stroke-opacity="0.172" /></g><g transform="rotate(-3.10 1536.0 1536.0)"><path d="M-368.6 1137.7 C -264.8 1072.1, -119.3 1183.6, -22.3 1145.2 C 81.5 1144.9, 227.0 1132.1, 324.0 1197.5 C 427.8 1175.5, 573.3 1116.8, 670.3 1213.5 C 774.1 1225.9, 919.6 1054.5, 1016.6 1183.5 C 1120.4 1200.9, 1265.9 1116.9, 1362.9 1125.7 C 1466.7 1128.8, 1612.2 1149.8, 1709.1 1075.1 C 1813.0 1083.8, 1958.5 1199.6, 2055.4 1062.5 C 2159.3 1046.2, 2304.8 1177.7, 2401.7 1095.4 C 2505.6 1087.9, 2651.1 1170.5, 2748.0 1154.0 C 2851.9 1158.5, 2997.4 1126.3, 3094.3 1202.6 C 3198.2 1213.0, 3343.7 1108.7, 3440.6 1211.9" fill="none" stroke="url(#ribbon289)" stroke-width="46.4" stroke-linecap="round" stroke-opacity="0.198" /></g><g transform="rotate(-2.52 1536.0 1536.0)"><path d="M-368.6 1278.1 C -273.4 1274.2, -140.1 1280.6, -51.2 1214.4 C 44.0 1210.7, 177.4 1308.4, 266.2 1194.9 C 361.5 1189.4, 494.8 1377.4, 583.7 1225.9 C 678.9 1214.2, 812.2 1329.8, 901.1 1288.6 C 996.4 1288.6, 1129.7 1268.6, 1218.6 1344.9 C 1313.8 1323.1, 1447.1 1220.5, 1536.0 1360.7 C 1631.2 1336.6, 1764.6 1186.9, 1853.4 1326.4 C 1948.7 1315.0, 2082.0 1230.2, 2170.9 1262.9 C 2266.1 1263.5, 2399.4 1283.5, 2488.3 1208.6 C 2583.6 1186.1, 2716.9 1343.2, 2805.8 1196.4 C 2901.0 1183.2, 3034.3 1323.2, 3123.2 1233.9 C 3218.4 1234.5, 3351.8 1318.8, 3440.6 1298.1" fill="none" stroke="url(#ribbon289)" stroke-width="42.4" stroke-linecap="round" stroke-opacity="0.224" /></g><g transform="rotate(-1.94 1536.0 1536.0)"><path d="M-368.6 1462.5 C -225.8 1386.6, -25.8 1507.4, 107.5 1438.3 C 250.4 1431.8, 450.4 1482.5, 583.7 1508.3 C 726.5 1495.9, 926.5 1418.4, 1059.8 1550.5 C 1202.7 1524.5, 1402.7 1373.3, 1536.0 1539.3 C 1678.8 1530.1, 1878.8 1410.9, 2012.2 1481.5 C 2155.0 1487.2, 2355.0 1442.9, 2488.3 1412.2 C 2631.2 1411.4, 2831.2 1505.0, 2964.5 1373.4 C 3107.3 1369.4, 3307.3 1564.9, 3440.6 1388.6" fill="none" stroke="url(#ribbon289)" stroke-width="38.4" stroke-linecap="round" stroke-opacity="0.250" /></g><g transform="rotate(-1.36 1536.0 1536.0)"><path d="M-368.6 1717.2 C -241.7 1774.9, -63.9 1663.5, 54.6 1744.3 C 181.6 1747.4, 359.4 1691.7, 477.9 1668.8 C 604.8 1661.8, 782.6 1763.5, 901.1 1622.6 C 1028.1 1603.6, 1205.9 1783.9, 1324.4 1633.7 C 1451.3 1642.7, 1629.1 1757.5, 1747.6 1695.5 C 1874.6 1693.9, 2052.4 1728.1, 2170.9 1770.4 C 2297.9 1790.0, 2475.6 1670.6, 2594.1 1813.0 C 2721.1 1824.2, 2898.9 1683.5, 3017.4 1797.5 C 3144.4 1798.4, 3322.1 1664.8, 3440.6 1733.2" fill="none" stroke="url(#ribbon289)" stroke-width="34.4" stroke-linecap="round" stroke-opacity="0.276" /></g><g transform="rotate(-0.78 1536.0 1536.0)"><path d="M-368.6 1893.0 C -254.4 1896.3, -94.4 1891.9, 12.3 1970.5 C 126.6 1980.1, 286.6 1813.6, 393.2 1997.6 C 507.5 1961.3, 667.5 1786.0, 774.1 1961.3 C 888.4 1961.4, 1048.4 1860.4, 1155.1 1883.6 C 1269.4 1881.6, 1429.3 1899.8, 1536.0 1811.6 C 1650.3 1819.9, 1810.3 1923.3, 1916.9 1789.0 C 2031.2 1774.7, 2191.2 1950.3, 2297.9 1829.5 C 2412.1 1815.8, 2572.1 1957.4, 2678.8 1908.6 C 2793.1 1906.1, 2953.1 1888.2, 3059.7 1978.2 C 3174.0 1971.7, 3334.0 1857.2, 3440.6 1996.1" fill="none" stroke="url(#ribbon289)" stroke-width="30.4" stroke-linecap="round" stroke-opacity="0.302" /></g><g transform="rotate(-0.20 1536.0 1536.0)"><path d="M-368.6 2017.5 C -264.8 2026.4, -119.3 2005.0, -22.3 2105.1 C 81.5 2100.6, 227.0 1972.4, 324.0 2128.4 C 427.8 2091.1, 573.3 1977.9, 670.3 2084.4 C 774.1 2088.9, 919.6 1978.5, 1016.6 1999.8 C 1120.4 2001.2, 1265.9 2036.9, 1362.9 1926.0 C 1466.7 1891.8, 1612.2 2068.9, 1709.1 1907.7 C 1813.0 1935.8, 1958.5 2107.2, 2055.4 1956.0 C 2159.3 1969.5, 2304.8 2069.6, 2401.7 2041.6 C 2505.6 2032.1, 2651.1 2004.1, 2748.0 2112.6 C 2851.9 2092.6, 2997.4 1960.8, 3094.3 2125.9 C 3198.2 2149.4, 3343.7 1929.3, 3440.6 2073.5" fill="none" stroke="url(#ribbon289)" stroke-width="26.4" stroke-linecap="round" stroke-opacity="0.328" /></g><g transform="rotate(0.38 1536.0 1536.0)"><path d="M-368.6 2241.4 C -273.4 2121.8, -140.1 2329.5, -51.2 2200.3 C 44.0 2189.8, 177.4 2264.6, 266.2 2292.8 C 361.5 2275.1, 494.8 2200.1, 583.7 2354.1 C 678.9 2372.6, 812.2 2205.4, 901.1 2347.0 C 996.4 2332.2, 1129.7 2145.6, 1218.6 2275.8 C 1313.8 2282.8, 1447.1 2200.2, 1536.0 2183.7 C 1631.2 2188.9, 1764.6 2303.1, 1853.4 2126.6 C 1948.7 2123.4, 2082.0 2320.6, 2170.9 2139.1 C 2266.1 2148.7, 2399.4 2308.8, 2488.3 2213.6 C 2583.6 2217.3, 2716.9 2261.2, 2805.8 2304.9 C 2901.0 2286.3, 3034.3 2186.5, 3123.2 2357.7 C 3218.4 2363.9, 3351.8 2134.0, 3440.6 2339.9" fill="none" stroke="url(#ribbon289)" stroke-width="22.4" stroke-linecap="round" stroke-opacity="0.354" /></g><g transform="rotate(0.96 1536.0 1536.0)"><path d="M-368.6 2404.6 C -225.8 2353.1, -25.8 2452.4, 107.5 2285.9 C 250.4 2250.6, 450.4 2514.6, 583.7 2291.6 C 726.5 2329.9, 926.5 2485.4, 1059.8 2365.9 C 1202.7 2365.9, 1402.7 2417.3, 1536.0 2463.6 C 1678.8 2470.7, 1878.8 2356.3, 2012.2 2525.5 C 2155.0 2521.7, 2355.0 2343.0, 2488.3 2514.1 C 2631.2 2497.5, 2831.2 2336.9, 2964.5 2436.2 C 3107.3 2437.0, 3307.3 2381.7, 3440.6 2339.2" fill="none" stroke="url(#ribbon289)" stroke-width="18.4" stroke-linecap="round" stroke-opacity="0.380" /></g><g transform="rotate(1.54 1536.0 1536.0)"><path d="M-368.6 2633.5 C -241.7 2719.8, -63.9 2582.2, 54.6 2656.9 C 181.6 2656.9, 359.4 2623.3, 477.9 2555.9 C 604.8 2540.2, 782.6 2658.2, 901.1 2501.9 C 1028.1 2536.5, 1205.9 2683.1, 1324.4 2527.8 C 1451.3 2549.9, 1629.1 2719.2, 1747.6 2617.8 C 1874.6 2618.4, 2052.4 2643.2, 2170.9 2717.3 C 2297.9 2717.0, 2475.6 2556.1, 2594.1 2766.0 C 2721.1 2752.1, 2898.9 2503.9, 3017.4 2734.3 C 3144.4 2741.6, 3322.1 2553.0, 3440.6 2641.5" fill="none" stroke="url(#ribbon289)" stroke-width="14.4" stroke-linecap="round" stroke-opacity="0.406" /></g></g>
  <g><ellipse cx="1536.0" cy="1551.9" rx="728.6" ry="605.7" fill="url(#extrude289)" opacity="0.220" /><ellipse cx="1536.0" cy="1567.7" rx="736.0" ry="610.9" fill="url(#extrude289)" opacity="0.205" /><ellipse cx="1536.0" cy="1583.6" rx="743.4" ry="616.1" fill="url(#extrude289)" opacity="0.190" /><ellipse cx="1536.0" cy="1599.5" rx="750.9" ry="621.3" fill="url(#extrude289)" opacity="0.175" /><ellipse cx="1536.0" cy="1615.4" rx="758.3" ry="626.5" fill="url(#extrude289)" opacity="0.160" /><ellipse cx="1536.0" cy="1631.2" rx="765.7" ry="631.7" fill="url(#extrude289)" opacity="0.145" /><ellipse cx="1536.0" cy="1647.1" rx="773.2" ry="636.9" fill="url(#extrude289)" opacity="0.130" /><ellipse cx="1536.0" cy="1663.0" rx="780.6" ry="642.1" fill="url(#extrude289)" opacity="0.115" /><ellipse cx="1536.0" cy="1678.8" rx="788.0" ry="647.4" fill="url(#extrude289)" opacity="0.100" /><ellipse cx="1536.0" cy="1694.7" rx="795.5" ry="652.6" fill="url(#extrude289)" opacity="0.085" /><ellipse cx="1536.0" cy="1710.6" rx="802.9" ry="657.8" fill="url(#extrude289)" opacity="0.070" /><ellipse cx="1536.0" cy="1726.5" rx="810.3" ry="663.0" fill="url(#extrude289)" opacity="0.055" /></g>
  <ellipse cx="1536.0" cy="1726.5" rx="773.2" ry="214.9" fill="#0B1D2D" opacity="0.24" />
  <ellipse cx="1536.0" cy="1536.0" rx="743.4" ry="651.3" fill="url(#orb289)" stroke="#FFFFFF" stroke-opacity="0.42" stroke-width="7" />
  <ellipse cx="1431.9" cy="1392.7" rx="505.5" ry="299.6" fill="#FFFFFF" opacity="0.25" />
  <path d="M 199.4 399.4 C 1013.8 -30.7, 2058.2 768.0, 2872.6 215.0 L 2872.6 983.0 C 2089.0 1228.8, 1013.8 307.2, 199.4 1167.4 Z" fill="url(#glass289)" />
  <rect x="270" y="270" width="2532" height="2532" rx="430" fill="none" stroke="#FFFFFF" stroke-opacity="0.30" stroke-width="5" />
  <rect x="288.4" y="288.4" width="2495.1" height="2495.1" rx="399" fill="none" stroke="#8A5CFF" stroke-opacity="0.35" stroke-width="3" />
  <g filter="url(#soft289)"><rect x="1924" y="319" width="82" height="2" fill="#FFFFFF" opacity="0.649" /><rect x="1964" y="279" width="2" height="82" fill="#FFFFFF" opacity="0.649" /><rect x="497" y="1281" width="74" height="2" fill="#FFFFFF" opacity="0.501" /><rect x="533" y="1245" width="2" height="74" fill="#FFFFFF" opacity="0.501" /><rect x="433" y="2698" width="42" height="2" fill="#FFFFFF" opacity="0.393" /><rect x="453" y="2678" width="2" height="42" fill="#FFFFFF" opacity="0.393" /><rect x="482" y="2281" width="40" height="2" fill="#FFFFFF" opacity="0.845" /><rect x="501" y="2262" width="2" height="40" fill="#FFFFFF" opacity="0.845" /><rect x="903" y="749" width="82" height="2" fill="#FFFFFF" opacity="0.671" /><rect x="943" y="709" width="2" height="82" fill="#FFFFFF" opacity="0.671" /><rect x="2731" y="903" width="68" height="2" fill="#FFFFFF" opacity="0.693" /><rect x="2764" y="870" width="2" height="68" fill="#FFFFFF" opacity="0.693" /><rect x="1177" y="2068" width="76" height="2" fill="#FFFFFF" opacity="0.446" /><rect x="1214" y="2031" width="2" height="76" fill="#FFFFFF" opacity="0.446" /><rect x="756" y="2392" width="76" height="2" fill="#FFFFFF" opacity="0.544" /><rect x="793" y="2355" width="2" height="76" fill="#FFFFFF" opacity="0.544" /><rect x="1288" y="1924" width="72" height="2" fill="#FFFFFF" opacity="0.454" /><rect x="1323" y="1889" width="2" height="72" fill="#FFFFFF" opacity="0.454" /><rect x="1089" y="2614" width="76" height="2" fill="#FFFFFF" opacity="0.780" /><rect x="1126" y="2577" width="2" height="76" fill="#FFFFFF" opacity="0.780" /><rect x="938" y="1939" width="74" height="2" fill="#FFFFFF" opacity="0.628" /><rect x="974" y="1903" width="2" height="74" fill="#FFFFFF" opacity="0.628" /><rect x="642" y="2719" width="38" height="2" fill="#FFFFFF" opacity="0.538" /><rect x="660" y="2701" width="2" height="38" fill="#FFFFFF" opacity="0.538" /><rect x="792" y="1852" width="66" height="2" fill="#FFFFFF" opacity="0.709" /><rect x="824" y="1820" width="2" height="66" fill="#FFFFFF" opacity="0.709" /><rect x="610" y="1925" width="48" height="2" fill="#FFFFFF" opacity="0.344" /><rect x="633" y="1902" width="2" height="48" fill="#FFFFFF" opacity="0.344" /><rect x="2656" y="2136" width="54" height="2" fill="#FFFFFF" opacity="0.761" /><rect x="2682" y="2110" width="2" height="54" fill="#FFFFFF" opacity="0.761" /><rect x="1832" y="1160" width="62" height="2" fill="#FFFFFF" opacity="0.778" /><rect x="1862" y="1130" width="2" height="62" fill="#FFFFFF" opacity="0.778" /><rect x="1036" y="2374" width="32" height="2" fill="#FFFFFF" opacity="0.479" /><rect x="1051" y="2359" width="2" height="32" fill="#FFFFFF" opacity="0.479" /><rect x="1366" y="2463" width="78" height="2" fill="#FFFFFF" opacity="0.503" /><rect x="1404" y="2425" width="2" height="78" fill="#FFFFFF" opacity="0.503" /><rect x="1269" y="414" width="26" height="2" fill="#FFFFFF" opacity="0.596" /><rect x="1281" y="402" width="2" height="26" fill="#FFFFFF" opacity="0.596" /><rect x="675" y="1605" width="70" height="2" fill="#FFFFFF" opacity="0.775" /><rect x="709" y="1571" width="2" height="70" fill="#FFFFFF" opacity="0.775" /><rect x="1306" y="2392" width="80" height="2" fill="#FFFFFF" opacity="0.334" /><rect x="1345" y="2353" width="2" height="80" fill="#FFFFFF" opacity="0.334" /><rect x="2569" y="1654" width="52" height="2" fill="#FFFFFF" opacity="0.510" /><rect x="2594" y="1629" width="2" height="52" fill="#FFFFFF" opacity="0.510" /><rect x="2728" y="795" width="54" height="2" fill="#FFFFFF" opacity="0.809" /><rect x="2754" y="769" width="2" height="54" fill="#FFFFFF" opacity="0.809" /><rect x="2038" y="2134" width="76" height="2" fill="#FFFFFF" opacity="0.595" /><rect x="2075" y="2097" width="2" height="76" fill="#FFFFFF" opacity="0.595" /><rect x="2703" y="1171" width="42" height="2" fill="#FFFFFF" opacity="0.620" /><rect x="2723" y="1151" width="2" height="42" fill="#FFFFFF" opacity="0.620" /><rect x="1263" y="1574" width="64" height="2" fill="#FFFFFF" opacity="0.397" /><rect x="1294" y="1543" width="2" height="64" fill="#FFFFFF" opacity="0.397" /></g>
  <g opacity="0.52"><rect x="1023" y="1070" width="768" height="768" rx="128" fill="none" stroke="#0C2030" stroke-width="90" /><path d="M1023 1582 L1572 1363 L2121 1582 L1572 2094 Z" fill="none" stroke="#0C2030" stroke-width="90" stroke-linejoin="round" /></g>
  <g filter="url(#soft289)"><rect x="987" y="1024" width="768" height="768" rx="128" fill="none" stroke="url(#symbol289)" stroke-width="90" /><path d="M987 1536 L1536 1317 L2085 1536 L1536 2048 Z" fill="none" stroke="url(#symbol289)" stroke-width="90" stroke-linejoin="round" /></g>
  <rect x="138" y="138" width="2796" height="2796" rx="629" fill="#FFFFFF" filter="url(#grain289)" opacity="0.18" />
</svg>
