<svg xmlns="http://www.w3.org/2000/svg" width="3072" height="3072" viewBox="0 0 3072 3072">
  <title>QuartzOS App Icon 190 - tidal_charts_190</title>
  <defs><linearGradient id="bg189" x1="0%" y1="0%" x2="100%" y2="100%"><stop offset="0%" stop-color="#36D1FF" /><stop offset="26%" stop-color="#8A5CFF" /><stop offset="56%" stop-color="#FF9F43" /><stop offset="78%" stop-color="#4F79A7" /><stop offset="100%" stop-color="#1B2630" /></linearGradient><radialGradient id="sun189" cx="26%" cy="24%" r="88%"><stop offset="0%" stop-color="#FFFFFF" stop-opacity="0.62" /><stop offset="30%" stop-color="#FFD84D" stop-opacity="0.35" /><stop offset="100%" stop-color="#FFD84D" stop-opacity="0" /></radialGradient><linearGradient id="glass189" x1="0%" y1="0%" x2="0%" y2="100%"><stop offset="0%" stop-color="#FFFFFF" stop-opacity="0.70" /><stop offset="46%" stop-color="#FFFFFF" stop-opacity="0.26" /><stop offset="100%" stop-color="#FFFFFF" stop-opacity="0.00" /></linearGradient><linearGradient id="ribbon189" x1="0%" y1="0%" x2="100%" y2="0%"><stop offset="0%" stop-color="#36D1FF" stop-opacity="0.18" /><stop offset="34%" stop-color="#8A5CFF" stop-opacity="0.72" /><stop offset="66%" stop-color="#FF9F43" stop-opacity="0.72" /><stop offset="100%" stop-color="#FFD84D" stop-opacity="0.18" /></linearGradient><radialGradient id="orb189" cx="34%" cy="27%" r="74%"><stop offset="0%" stop-color="#FFFFFF" stop-opacity="0.84" /><stop offset="30%" stop-color="#36D1FF" stop-opacity="0.52" /><stop offset="68%" stop-color="#8A5CFF" stop-opacity="0.42" /><stop offset="100%" stop-color="#FF9F43" stop-opacity="0.20" /></radialGradient><linearGradient id="extrude189" x1="0%" y1="0%" x2="0%" y2="100%"><stop offset="0%" stop-color="#15283C" stop-opacity="0.45" /><stop offset="100%" stop-color="#08131D" stop-opacity="0.06" /></linearGradient><linearGradient id="symbol189" x1="0%" y1="0%" x2="100%" y2="100%"><stop offset="0%" stop-color="#FFFFFF" /><stop offset="100%" stop-color="#FFD84D" /></linearGradient><filter id="shadow189" x="-40%" y="-40%" width="180%" height="180%"><feDropShadow dx="0" dy="49" stdDeviation="86" flood-color="#06111A" flood-opacity="0.54" /></filter><filter id="soft189" x="-40%" y="-40%" width="180%" height="180%"><feDropShadow dx="0" dy="0" stdDeviation="14" flood-color="#36D1FF" flood-opacity="0.45" /></filter><filter id="grain189"><feTurbulence type="fractalNoise" baseFrequency="0.765" numOctaves="2" seed="189" /><feColorMatrix type="saturate" values="0" /><feComponentTransfer><feFuncA type="table" tableValues="0 0.09" /></feComponentTransfer></filter></defs>
  <rect x="138" y="138" width="2796" height="2796" rx="629" fill="url(#bg189)" filter="url(#shadow189)" />
  <rect x="138" y="138" width="2796" height="2796" rx="629" fill="url(#sun189)" />
  <g><circle cx="1950" cy="795" r="129" fill="#FFFFFF" opacity="0.162" /><circle cx="1427" cy="2224" r="78" fill="#FFFFFF" opacity="0.232" /><circle cx="906" cy="2027" r="124" fill="#FFFFFF" opacity="0.168" /><circle cx="779" cy="891" r="66" fill="#FFFFFF" opacity="0.205" /><circle cx="1540" cy="1533" r="153" fill="#FFFFFF" opacity="0.128" /><circle cx="2310" cy="319" r="80" fill="#FFFFFF" opacity="0.152" /><circle cx="1487" cy="1274" r="82" fill="#FFFFFF" opacity="0.224" /><circle cx="1753" cy="704" r="59" fill="#FFFFFF" opacity="0.089" /><circle cx="1223" cy="1477" r="110" fill="#FFFFFF" opacity="0.184" /><circle cx="2160" cy="1580" r="69" fill="#FFFFFF" opacity="0.193" /><circle cx="1529" cy="424" r="133" fill="#FFFFFF" opacity="0.092" /><circle cx="646" cy="2276" r="110" fill="#FFFFFF" opacity="0.090" /><circle cx="1699" cy="1564" r="60" fill="#FFFFFF" opacity="0.217" /><circle cx="1548" cy="2520" r="152" fill="#FFFFFF" opacity="0.216" /><circle cx="791" cy="1613" r="120" fill="#FFFFFF" opacity="0.218" /><circle cx="2286" cy="793" r="146" fill="#FFFFFF" opacity="0.225" /><circle cx="1965" cy="372" r="149" fill="#FFFFFF" opacity="0.081" /><circle cx="983" cy="2426" r="132" fill="#FFFFFF" opacity="0.191" /><circle cx="1192" cy="1100" r="88" fill="#FFFFFF" opacity="0.068" /><circle cx="2463" cy="1478" r="87" fill="#FFFFFF" opacity="0.122" /><circle cx="2379" cy="1464" r="96" fill="#FFFFFF" opacity="0.235" /><circle cx="1644" cy="1112" r="103" fill="#FFFFFF" opacity="0.106" /><circle cx="542" cy="1400" r="134" fill="#FFFFFF" opacity="0.219" /><circle cx="2671" cy="569" r="70" fill="#FFFFFF" opacity="0.204" /><circle cx="722" cy="1551" r="155" fill="#FFFFFF" opacity="0.225" /><circle cx="1434" cy="1464" r="56" fill="#FFFFFF" opacity="0.080" /><circle cx="2611" cy="1847" r="139" fill="#FFFFFF" opacity="0.114" /><circle cx="1494" cy="2246" r="59" fill="#FFFFFF" opacity="0.172" /></g>
  <g><path d="M 385.3 643.0 L 2821.3 366.6 L 2821.3 858.8 L 385.3 1135.3 Z" fill="#FFFFFF" opacity="0.081" /><path d="M 281.3 910.0 L 2725.1 633.5 L 2725.1 1090.3 L 281.3 1366.8 Z" fill="#FFFFFF" opacity="0.136" /><path d="M 264.2 1149.8 L 2887.3 873.3 L 2887.3 1347.6 L 264.2 1624.1 Z" fill="#FFFFFF" opacity="0.116" /><path d="M 298.7 1414.2 L 2907.7 1137.7 L 2907.7 1595.2 L 298.7 1871.6 Z" fill="#FFFFFF" opacity="0.087" /><path d="M 261.4 1653.2 L 2778.0 1376.7 L 2778.0 1812.0 L 261.4 2088.5 Z" fill="#FFFFFF" opacity="0.130" /><path d="M 191.6 1950.2 L 2785.3 1673.7 L 2785.3 2165.1 L 191.6 2441.6 Z" fill="#FFFFFF" opacity="0.138" /><path d="M 378.0 2196.7 L 2723.4 1920.2 L 2723.4 2404.3 L 378.0 2680.8 Z" fill="#FFFFFF" opacity="0.189" /><path d="M 275.4 2479.8 L 2847.0 2203.3 L 2847.0 2624.6 L 275.4 2901.1 Z" fill="#FFFFFF" opacity="0.130" /></g>
  <g filter="url(#soft189)"><g transform="rotate(-12.37 1536.0 1536.0)"><path d="M-368.6 485.0 C -225.8 521.3, -25.8 467.3, 107.5 539.9 C 250.4 554.7, 450.4 428.1, 583.7 527.6 C 726.5 512.0, 926.5 462.3, 1059.8 489.4 C 1202.7 489.3, 1402.7 480.9, 1536.0 448.5 C 1678.8 452.9, 1878.8 524.8, 2012.2 429.7 C 2155.0 430.4, 2355.0 511.4, 2488.3 444.5 C 2631.2 443.6, 2831.2 505.7, 2964.5 483.8 C 3107.3 483.8, 3307.3 485.9, 3440.6 523.8" fill="none" stroke="url(#ribbon189)" stroke-width="58.4" stroke-linecap="round" stroke-opacity="0.120" /></g><g transform="rotate(-11.79 1536.0 1536.0)"><path d="M-368.6 693.8 C -241.7 755.3, -63.9 642.1, 54.6 704.2 C 181.6 707.2, 359.4 690.1, 477.9 656.9 C 604.8 666.3, 782.6 719.9, 901.1 632.0 C 1028.1 610.4, 1205.9 728.9, 1324.4 644.6 C 1451.3 647.5, 1629.1 745.4, 1747.6 687.0 C 1874.6 687.4, 2052.4 697.9, 2170.9 733.5 C 2297.9 741.3, 2475.6 681.1, 2594.1 756.0 C 2721.1 758.0, 2898.9 670.1, 3017.4 740.7 C 3144.4 734.9, 3322.1 665.5, 3440.6 696.9" fill="none" stroke="url(#ribbon189)" stroke-width="54.4" stroke-linecap="round" stroke-opacity="0.146" /></g><g transform="rotate(-11.21 1536.0 1536.0)"><path d="M-368.6 852.6 C -254.4 815.9, -94.4 866.9, 12.3 786.2 C 126.6 783.2, 286.6 874.4, 393.2 791.9 C 507.5 781.4, 667.5 922.7, 774.1 834.4 C 888.4 832.3, 1048.4 864.2, 1155.1 888.0 C 1269.4 874.4, 1429.3 840.3, 1536.0 920.1 C 1650.3 906.0, 1810.3 774.2, 1916.9 911.4 C 2031.2 914.7, 2191.2 799.4, 2297.9 867.0 C 2412.1 868.0, 2572.1 837.1, 2678.8 813.9 C 2793.1 817.0, 2953.1 864.7, 3059.7 784.3 C 3174.0 759.6, 3334.0 880.7, 3440.6 796.2" fill="none" stroke="url(#ribbon189)" stroke-width="50.4" stroke-linecap="round" stroke-opacity="0.172" /></g><g transform="rotate(-10.63 1536.0 1536.0)"><path d="M-368.6 1076.0 C -264.8 1115.2, -119.3 1043.1, -22.3 1057.8 C 81.5 1057.8, 227.0 1084.5, 324.0 1010.0 C 427.8 1033.5, 573.3 1118.5, 670.3 1002.3 C 774.1 1025.3, 919.6 1116.2, 1016.6 1039.3 C 1120.4 1041.0, 1265.9 1100.5, 1362.9 1098.5 C 1466.7 1095.1, 1612.2 1068.5, 1709.1 1144.1 C 1813.0 1133.3, 1958.5 1011.7, 2055.4 1148.4 C 2159.3 1168.0, 2304.8 1005.3, 2401.7 1108.8 C 2505.6 1104.3, 2651.1 1060.3, 2748.0 1049.3 C 2851.9 1048.3, 2997.4 1100.1, 3094.3 1006.0 C 3198.2 986.7, 3343.7 1099.8, 3440.6 1005.2" fill="none" stroke="url(#ribbon189)" stroke-width="46.4" stroke-linecap="round" stroke-opacity="0.198" /></g><g transform="rotate(-10.05 1536.0 1536.0)"><path d="M-368.6 1291.9 C -273.4 1188.0, -140.1 1338.1, -51.2 1212.9 C 44.0 1236.2, 177.4 1381.4, 266.2 1256.5 C 361.5 1248.7, 494.8 1314.0, 583.7 1321.5 C 678.9 1332.0, 812.2 1256.7, 901.1 1368.6 C 996.4 1367.5, 1129.7 1205.8, 1218.6 1369.1 C 1313.8 1383.7, 1447.1 1245.5, 1536.0 1322.8 C 1631.2 1316.2, 1764.6 1277.2, 1853.4 1257.7 C 1948.7 1271.1, 2082.0 1311.9, 2170.9 1213.4 C 2266.1 1202.3, 2399.4 1379.6, 2488.3 1216.6 C 2583.6 1225.4, 2716.9 1371.3, 2805.8 1265.5 C 2901.0 1274.0, 3034.3 1307.8, 3123.2 1330.4 C 3218.4 1316.8, 3351.8 1265.9, 3440.6 1371.9" fill="none" stroke="url(#ribbon189)" stroke-width="42.4" stroke-linecap="round" stroke-opacity="0.224" /></g><g transform="rotate(-9.47 1536.0 1536.0)"><path d="M-368.6 1486.0 C -225.8 1507.1, -25.8 1476.2, 107.5 1560.7 C 250.4 1542.2, 450.4 1398.7, 583.7 1574.8 C 726.5 1544.0, 926.5 1432.9, 1059.8 1535.0 C 1202.7 1536.7, 1402.7 1445.2, 1536.0 1465.5 C 1678.8 1469.0, 1878.8 1496.1, 2012.2 1408.4 C 2155.0 1432.4, 2355.0 1576.5, 2488.3 1398.3 C 2631.2 1390.1, 2831.2 1548.3, 2964.5 1441.5 C 3107.3 1433.8, 3307.3 1533.3, 3440.6 1511.6" fill="none" stroke="url(#ribbon189)" stroke-width="38.4" stroke-linecap="round" stroke-opacity="0.250" /></g><g transform="rotate(-8.89 1536.0 1536.0)"><path d="M-368.6 1682.7 C -241.7 1773.4, -63.9 1605.2, 54.6 1776.3 C 181.6 1809.9, 359.4 1624.1, 477.9 1727.8 C 604.8 1738.7, 782.6 1646.0, 901.1 1651.9 C 1028.1 1661.1, 1205.9 1707.8, 1324.4 1594.8 C 1451.3 1605.4, 1629.1 1779.5, 1747.6 1590.9 C 1874.6 1621.2, 2052.4 1746.9, 2170.9 1642.8 C 2297.9 1655.6, 2475.6 1730.1, 2594.1 1718.8 C 2721.1 1732.6, 2898.9 1668.8, 3017.4 1773.0 C 3144.4 1789.0, 3322.1 1642.7, 3440.6 1772.4" fill="none" stroke="url(#ribbon189)" stroke-width="34.4" stroke-linecap="round" stroke-opacity="0.276" /></g><g transform="rotate(-8.31 1536.0 1536.0)"><path d="M-368.6 1820.2 C -254.4 1883.0, -94.4 1738.5, 12.3 1811.9 C 126.6 1814.9, 286.6 1825.4, 393.2 1739.5 C 507.5 1734.8, 667.5 1876.8, 774.1 1716.1 C 888.4 1755.2, 1048.4 1892.6, 1155.1 1755.9 C 1269.4 1755.5, 1429.3 1878.1, 1536.0 1834.7 C 1650.3 1835.6, 1810.3 1811.5, 1916.9 1904.7 C 2031.2 1936.7, 2191.2 1790.5, 2297.9 1923.5 C 2412.1 1951.7, 2572.1 1742.1, 2678.8 1879.7 C 2793.1 1880.7, 2953.1 1790.9, 3059.7 1799.7 C 3174.0 1804.8, 3334.0 1839.1, 3440.6 1732.3" fill="none" stroke="url(#ribbon189)" stroke-width="30.4" stroke-linecap="round" stroke-opacity="0.302" /></g><g transform="rotate(-7.73 1536.0 1536.0)"><path d="M-368.6 2053.1 C -264.8 2015.1, -119.3 2071.1, -22.3 2087.9 C 81.5 2085.0, 227.0 2041.6, 324.0 2153.6 C 427.8 2193.5, 573.3 1958.8, 670.3 2158.4 C 774.1 2138.9, 919.6 2007.6, 1016.6 2099.3 C 1120.4 2082.8, 1265.9 2006.5, 1362.9 2012.3 C 1466.7 2019.2, 1612.2 2074.8, 1709.1 1950.0 C 1813.0 1922.5, 1958.5 2108.6, 2055.4 1950.3 C 2159.3 1938.2, 2304.8 2168.0, 2401.7 2013.0 C 2505.6 2015.4, 2651.1 2073.9, 2748.0 2100.0 C 2851.9 2094.7, 2997.4 2018.3, 3094.3 2158.6 C 3198.2 2163.1, 3343.7 1978.8, 3440.6 2153.2" fill="none" stroke="url(#ribbon189)" stroke-width="26.4" stroke-linecap="round" stroke-opacity="0.328" /></g><g transform="rotate(-7.15 1536.0 1536.0)"><path d="M-368.6 2288.4 C -273.4 2185.2, -140.1 2321.0, -51.2 2170.7 C 44.0 2201.0, 177.4 2427.4, 266.2 2218.6 C 361.5 2226.3, 494.8 2314.9, 583.7 2308.8 C 678.9 2305.7, 812.2 2271.6, 901.1 2386.6 C 996.4 2349.9, 1129.7 2246.0, 1218.6 2404.8 C 1313.8 2421.4, 1447.1 2151.6, 1536.0 2352.4 C 1631.2 2338.7, 1764.6 2266.4, 1853.4 2261.1 C 1948.7 2270.8, 2082.0 2309.4, 2170.9 2186.4 C 2266.1 2161.9, 2399.4 2382.6, 2488.3 2173.5 C 2583.6 2158.4, 2716.9 2371.8, 2805.8 2230.3 C 2901.0 2236.1, 3034.3 2323.3, 3123.2 2322.3 C 3218.4 2328.3, 3351.8 2277.2, 3440.6 2393.7" fill="none" stroke="url(#ribbon189)" stroke-width="22.4" stroke-linecap="round" stroke-opacity="0.354" /></g><g transform="rotate(-6.57 1536.0 1536.0)"><path d="M-368.6 2464.2 C -225.8 2349.9, -25.8 2512.1, 107.5 2469.6 C 250.4 2470.7, 450.4 2462.3, 583.7 2558.2 C 726.5 2552.3, 926.5 2366.1, 1059.8 2589.8 C 1202.7 2562.7, 1402.7 2370.1, 1536.0 2545.1 C 1678.8 2561.7, 1878.8 2414.9, 2012.2 2451.4 C 2155.0 2449.0, 2355.0 2469.5, 2488.3 2365.4 C 2631.2 2381.9, 2831.2 2545.1, 2964.5 2339.3 C 3107.3 2293.5, 3307.3 2540.9, 3440.6 2388.9" fill="none" stroke="url(#ribbon189)" stroke-width="18.4" stroke-linecap="round" stroke-opacity="0.380" /></g><g transform="rotate(-5.99 1536.0 1536.0)"><path d="M-368.6 2638.4 C -241.7 2721.2, -63.9 2557.5, 54.6 2610.1 C 181.6 2605.6, 359.4 2671.5, 477.9 2525.5 C 604.8 2481.6, 782.6 2718.4, 901.1 2509.3 C 1028.1 2502.4, 1205.9 2679.8, 1324.4 2571.5 C 1451.3 2564.2, 1629.1 2682.4, 1747.6 2674.2 C 1874.6 2661.8, 2052.4 2625.4, 2170.9 2755.3 C 2297.9 2773.0, 2475.6 2595.7, 2594.1 2765.4 C 2721.1 2807.5, 2898.9 2506.9, 3017.4 2698.5 C 3144.4 2689.1, 3322.1 2584.6, 3440.6 2595.2" fill="none" stroke="url(#ribbon189)" stroke-width="14.4" stroke-linecap="round" stroke-opacity="0.406" /></g></g>
  <g><ellipse cx="1536.0" cy="1551.9" rx="728.6" ry="605.7" fill="url(#extrude189)" opacity="0.220" /><ellipse cx="1536.0" cy="1567.7" rx="736.0" ry="610.9" fill="url(#extrude189)" opacity="0.205" /><ellipse cx="1536.0" cy="1583.6" rx="743.4" ry="616.1" fill="url(#extrude189)" opacity="0.190" /><ellipse cx="1536.0" cy="1599.5" rx="750.9" ry="621.3" fill="url(#extrude189)" opacity="0.175" /><ellipse cx="1536.0" cy="1615.4" rx="758.3" ry="626.5" fill="url(#extrude189)" opacity="0.160" /><ellipse cx="1536.0" cy="1631.2" rx="765.7" ry="631.7" fill="url(#extrude189)" opacity="0.145" /><ellipse cx="1536.0" cy="1647.1" rx="773.2" ry="636.9" fill="url(#extrude189)" opacity="0.130" /><ellipse cx="1536.0" cy="1663.0" rx="780.6" ry="642.1" fill="url(#extrude189)" opacity="0.115" /><ellipse cx="1536.0" cy="1678.8" rx="788.0" ry="647.4" fill="url(#extrude189)" opacity="0.100" /><ellipse cx="1536.0" cy="1694.7" rx="795.5" ry="652.6" fill="url(#extrude189)" opacity="0.085" /><ellipse cx="1536.0" cy="1710.6" rx="802.9" ry="657.8" fill="url(#extrude189)" opacity="0.070" /><ellipse cx="1536.0" cy="1726.5" rx="810.3" ry="663.0" fill="url(#extrude189)" opacity="0.055" /></g>
  <ellipse cx="1536.0" cy="1726.5" rx="773.2" ry="214.9" fill="#0B1D2D" opacity="0.24" />
  <ellipse cx="1536.0" cy="1536.0" rx="743.4" ry="651.3" fill="url(#orb189)" stroke="#FFFFFF" stroke-opacity="0.42" stroke-width="7" />
  <ellipse cx="1431.9" cy="1392.7" rx="505.5" ry="299.6" fill="#FFFFFF" opacity="0.25" />
  <path d="M 199.4 399.4 C 1013.8 -30.7, 2058.2 768.0, 2872.6 215.0 L 2872.6 983.0 C 2089.0 1228.8, 1013.8 307.2, 199.4 1167.4 Z" fill="url(#glass189)" />
  <rect x="270" y="270" width="2532" height="2532" rx="430" fill="none" stroke="#FFFFFF" stroke-opacity="0.30" stroke-width="5" />
  <rect x="288.4" y="288.4" width="2495.1" height="2495.1" rx="399" fill="none" stroke="#36D1FF" stroke-opacity="0.35" stroke-width="3" />
  <g filter="url(#soft189)"><rect x="788" y="394" width="62" height="2" fill="#FFFFFF" opacity="0.605" /><rect x="818" y="364" width="2" height="62" fill="#FFFFFF" opacity="0.605" /><rect x="2485" y="500" width="64" height="2" fill="#FFFFFF" opacity="0.645" /><rect x="2516" y="469" width="2" height="64" fill="#FFFFFF" opacity="0.645" /><rect x="934" y="774" width="68" height="2" fill="#FFFFFF" opacity="0.840" /><rect x="967" y="741" width="2" height="68" fill="#FFFFFF" opacity="0.840" /><rect x="673" y="2230" width="24" height="2" fill="#FFFFFF" opacity="0.835" /><rect x="684" y="2219" width="2" height="24" fill="#FFFFFF" opacity="0.835" /><rect x="795" y="807" width="44" height="2" fill="#FFFFFF" opacity="0.645" /><rect x="816" y="786" width="2" height="44" fill="#FFFFFF" opacity="0.645" /><rect x="2013" y="1805" width="76" height="2" fill="#FFFFFF" opacity="0.704" /><rect x="2050" y="1768" width="2" height="76" fill="#FFFFFF" opacity="0.704" /><rect x="2410" y="2411" width="62" height="2" fill="#FFFFFF" opacity="0.433" /><rect x="2440" y="2381" width="2" height="62" fill="#FFFFFF" opacity="0.433" /><rect x="1080" y="2027" width="26" height="2" fill="#FFFFFF" opacity="0.705" /><rect x="1092" y="2015" width="2" height="26" fill="#FFFFFF" opacity="0.705" /><rect x="1515" y="2489" width="74" height="2" fill="#FFFFFF" opacity="0.372" /><rect x="1551" y="2453" width="2" height="74" fill="#FFFFFF" opacity="0.372" /><rect x="2309" y="1224" width="70" height="2" fill="#FFFFFF" opacity="0.761" /><rect x="2343" y="1190" width="2" height="70" fill="#FFFFFF" opacity="0.761" /><rect x="499" y="1137" width="62" height="2" fill="#FFFFFF" opacity="0.334" /><rect x="529" y="1107" width="2" height="62" fill="#FFFFFF" opacity="0.334" /><rect x="1976" y="1228" width="70" height="2" fill="#FFFFFF" opacity="0.843" /><rect x="2010" y="1194" width="2" height="70" fill="#FFFFFF" opacity="0.843" /><rect x="2698" y="566" width="58" height="2" fill="#FFFFFF" opacity="0.837" /><rect x="2726" y="538" width="2" height="58" fill="#FFFFFF" opacity="0.837" /><rect x="1223" y="1015" width="56" height="2" fill="#FFFFFF" opacity="0.350" /><rect x="1250" y="988" width="2" height="56" fill="#FFFFFF" opacity="0.350" /><rect x="586" y="2296" width="64" height="2" fill="#FFFFFF" opacity="0.581" /><rect x="617" y="2265" width="2" height="64" fill="#FFFFFF" opacity="0.581" /><rect x="665" y="1229" width="62" height="2" fill="#FFFFFF" opacity="0.682" /><rect x="695" y="1199" width="2" height="62" fill="#FFFFFF" opacity="0.682" /><rect x="610" y="2611" width="72" height="2" fill="#FFFFFF" opacity="0.486" /><rect x="645" y="2576" width="2" height="72" fill="#FFFFFF" opacity="0.486" /><rect x="1411" y="1911" width="82" height="2" fill="#FFFFFF" opacity="0.565" /><rect x="1451" y="1871" width="2" height="82" fill="#FFFFFF" opacity="0.565" /><rect x="1591" y="1404" width="52" height="2" fill="#FFFFFF" opacity="0.476" /><rect x="1616" y="1379" width="2" height="52" fill="#FFFFFF" opacity="0.476" /><rect x="2438" y="1038" width="38" height="2" fill="#FFFFFF" opacity="0.616" /><rect x="2456" y="1020" width="2" height="38" fill="#FFFFFF" opacity="0.616" /><rect x="2197" y="1725" width="52" height="2" fill="#FFFFFF" opacity="0.556" /><rect x="2222" y="1700" width="2" height="52" fill="#FFFFFF" opacity="0.556" /><rect x="1766" y="1390" width="52" height="2" fill="#FFFFFF" opacity="0.661" /><rect x="1791" y="1365" width="2" height="52" fill="#FFFFFF" opacity="0.661" /><rect x="2392" y="2570" width="60" height="2" fill="#FFFFFF" opacity="0.690" /><rect x="2421" y="2541" width="2" height="60" fill="#FFFFFF" opacity="0.690" /><rect x="1893" y="580" width="50" height="2" fill="#FFFFFF" opacity="0.797" /><rect x="1917" y="556" width="2" height="50" fill="#FFFFFF" opacity="0.797" /><rect x="1179" y="2517" width="54" height="2" fill="#FFFFFF" opacity="0.572" /><rect x="1205" y="2491" width="2" height="54" fill="#FFFFFF" opacity="0.572" /><rect x="1195" y="2021" width="44" height="2" fill="#FFFFFF" opacity="0.699" /><rect x="1216" y="2000" width="2" height="44" fill="#FFFFFF" opacity="0.699" /></g>
  <g opacity="0.52"><rect x="1060" y="1070" width="1024" height="1024" rx="153" fill="none" stroke="#0C2030" stroke-width="90" /><line x1="1316" y1="1326" x2="1828" y2="1838" stroke="#0C2030" stroke-width="90" stroke-linecap="round" /><line x1="1828" y1="1326" x2="1316" y2="1838" stroke="#0C2030" stroke-width="90" stroke-linecap="round" /></g>
  <g filter="url(#soft189)"><rect x="1024" y="1024" width="1024" height="1024" rx="153" fill="none" stroke="url(#symbol189)" stroke-width="90" /><line x1="1280" y1="1280" x2="1792" y2="1792" stroke="url(#symbol189)" stroke-width="90" stroke-linecap="round" /><line x1="1792" y1="1280" x2="1280" y2="1792" stroke="url(#symbol189)" stroke-width="90" stroke-linecap="round" /></g>
  <rect x="138" y="138" width="2796" height="2796" rx="629" fill="#FFFFFF" filter="url(#grain189)" opacity="0.18" />
</svg>
