<svg xmlns="http://www.w3.org/2000/svg" width="3072" height="3072" viewBox="0 0 3072 3072">
  <title>QuartzOS App Icon 030 - tidal_studio_030</title>
  <defs><linearGradient id="bg29" x1="0%" y1="0%" x2="100%" y2="100%"><stop offset="0%" stop-color="#3B82FF" /><stop offset="26%" stop-color="#FF6AB3" /><stop offset="56%" stop-color="#FFD84D" /><stop offset="78%" stop-color="#B37A46" /><stop offset="100%" stop-color="#27201B" /></linearGradient><radialGradient id="sun29" cx="29%" cy="8%" r="88%"><stop offset="0%" stop-color="#FFFFFF" stop-opacity="0.62" /><stop offset="30%" stop-color="#53E3A6" stop-opacity="0.35" /><stop offset="100%" stop-color="#53E3A6" stop-opacity="0" /></radialGradient><linearGradient id="glass29" x1="0%" y1="0%" x2="0%" y2="100%"><stop offset="0%" stop-color="#FFFFFF" stop-opacity="0.70" /><stop offset="46%" stop-color="#FFFFFF" stop-opacity="0.26" /><stop offset="100%" stop-color="#FFFFFF" stop-opacity="0.00" /></linearGradient><linearGradient id="ribbon29" x1="0%" y1="0%" x2="100%" y2="0%"><stop offset="0%" stop-color="#3B82FF" stop-opacity="0.18" /><stop offset="34%" stop-color="#FF6AB3" stop-opacity="0.72" /><stop offset="66%" stop-color="#FFD84D" stop-opacity="0.72" /><stop offset="100%" stop-color="#53E3A6" stop-opacity="0.18" /></linearGradient><radialGradient id="orb29" cx="34%" cy="27%" r="74%"><stop offset="0%" stop-color="#FFFFFF" stop-opacity="0.84" /><stop offset="30%" stop-color="#3B82FF" stop-opacity="0.52" /><stop offset="68%" stop-color="#FF6AB3" stop-opacity="0.42" /><stop offset="100%" stop-color="#FFD84D" stop-opacity="0.20" /></radialGradient><linearGradient id="extrude29" x1="0%" y1="0%" x2="0%" y2="100%"><stop offset="0%" stop-color="#15283C" stop-opacity="0.45" /><stop offset="100%" stop-color="#08131D" stop-opacity="0.06" /></linearGradient><linearGradient id="symbol29" x1="0%" y1="0%" x2="100%" y2="100%"><stop offset="0%" stop-color="#FFFFFF" /><stop offset="100%" stop-color="#53E3A6" /></linearGradient><filter id="shadow29" x="-40%" y="-40%" width="180%" height="180%"><feDropShadow dx="0" dy="49" stdDeviation="86" flood-color="#06111A" flood-opacity="0.54" /></filter><filter id="soft29" x="-40%" y="-40%" width="180%" height="180%"><feDropShadow dx="0" dy="0" stdDeviation="14" flood-color="#3B82FF" flood-opacity="0.45" /></filter><filter id="grain29"><feTurbulence type="fractalNoise" baseFrequency="1.020" numOctaves="2" seed="29" /><feColorMatrix type="saturate" values="0" /><feComponentTransfer><feFuncA type="table" tableValues="0 0.09" /></feComponentTransfer></filter></defs>
  <rect x="138" y="138" width="2796" height="2796" rx="629" fill="url(#bg29)" filter="url(#shadow29)" />
  <rect x="138" y="138" width="2796" height="2796" rx="629" fill="url(#sun29)" />
  <g><circle cx="1770" cy="2316" r="84" fill="#FFFFFF" opacity="0.156" /><circle cx="457" cy="773" r="101" fill="#FFFFFF" opacity="0.159" /><circle cx="2237" cy="344" r="36" fill="#FFFFFF" opacity="0.084" /><circle cx="2122" cy="2100" r="119" fill="#FFFFFF" opacity="0.165" /><circle cx="1271" cy="512" r="159" fill="#FFFFFF" opacity="0.171" /><circle cx="1081" cy="2197" r="42" fill="#FFFFFF" opacity="0.133" /><circle cx="861" cy="2655" r="53" fill="#FFFFFF" opacity="0.227" /><circle cx="1331" cy="1015" r="62" fill="#FFFFFF" opacity="0.193" /><circle cx="382" cy="1601" r="51" fill="#FFFFFF" opacity="0.139" /><circle cx="859" cy="2060" r="111" fill="#FFFFFF" opacity="0.109" /><circle cx="1649" cy="1932" r="115" fill="#FFFFFF" opacity="0.186" /><circle cx="2308" cy="1458" r="68" fill="#FFFFFF" opacity="0.229" /><circle cx="700" cy="1732" r="68" fill="#FFFFFF" opacity="0.188" /><circle cx="1042" cy="1148" r="69" fill="#FFFFFF" opacity="0.195" /><circle cx="1314" cy="463" r="45" fill="#FFFFFF" opacity="0.205" /><circle cx="1947" cy="641" r="62" fill="#FFFFFF" opacity="0.093" /><circle cx="1245" cy="2184" r="66" fill="#FFFFFF" opacity="0.072" /><circle cx="1943" cy="924" r="65" fill="#FFFFFF" opacity="0.086" /><circle cx="2531" cy="2152" r="68" fill="#FFFFFF" opacity="0.117" /><circle cx="1243" cy="1320" r="42" fill="#FFFFFF" opacity="0.145" /><circle cx="1523" cy="2331" r="46" fill="#FFFFFF" opacity="0.176" /><circle cx="1333" cy="1283" r="122" fill="#FFFFFF" opacity="0.064" /><circle cx="652" cy="682" r="45" fill="#FFFFFF" opacity="0.161" /><circle cx="1347" cy="2359" r="53" fill="#FFFFFF" opacity="0.118" /><circle cx="2254" cy="2183" r="126" fill="#FFFFFF" opacity="0.174" /><circle cx="2175" cy="695" r="115" fill="#FFFFFF" opacity="0.197" /><circle cx="781" cy="1232" r="68" fill="#FFFFFF" opacity="0.191" /><circle cx="1962" cy="1277" r="40" fill="#FFFFFF" opacity="0.125" /></g>
  <g><path d="M 376.4 610.4 L 2908.1 333.9 L 2908.1 817.7 L 376.4 1094.2 Z" fill="#FFFFFF" opacity="0.170" /><path d="M 310.3 862.1 L 2709.4 585.6 L 2709.4 1064.8 L 310.3 1341.2 Z" fill="#FFFFFF" opacity="0.157" /><path d="M 240.3 1114.8 L 2858.6 838.3 L 2858.6 1298.8 L 240.3 1575.3 Z" fill="#FFFFFF" opacity="0.130" /><path d="M 326.2 1433.8 L 2684.0 1157.3 L 2684.0 1576.5 L 326.2 1853.0 Z" fill="#FFFFFF" opacity="0.115" /><path d="M 232.9 1652.3 L 2870.1 1375.8 L 2870.1 1859.8 L 232.9 2136.3 Z" fill="#FFFFFF" opacity="0.139" /><path d="M 149.4 1909.4 L 2693.8 1632.9 L 2693.8 2061.3 L 149.4 2337.7 Z" fill="#FFFFFF" opacity="0.124" /><path d="M 252.6 2170.1 L 2769.7 1893.7 L 2769.7 2329.3 L 252.6 2605.8 Z" fill="#FFFFFF" opacity="0.196" /><path d="M 194.1 2445.8 L 2704.9 2169.3 L 2704.9 2604.9 L 194.1 2881.4 Z" fill="#FFFFFF" opacity="0.095" /></g>
  <g filter="url(#soft29)"><g transform="rotate(-12.43 1536.0 1536.0)"><path d="M-368.6 464.4 C -225.8 394.6, -25.8 519.5, 107.5 423.5 C 250.4 430.8, 450.4 486.9, 583.7 462.6 C 726.5 462.9, 926.5 466.3, 1059.8 502.8 C 1202.7 494.8, 1402.7 418.5, 1536.0 519.7 C 1678.8 533.8, 1878.8 440.9, 2012.2 503.0 C 2155.0 494.9, 2355.0 442.7, 2488.3 462.9 C 2631.2 463.2, 2831.2 465.3, 2964.5 423.7 C 3107.3 427.2, 3307.3 506.5, 3440.6 409.2" fill="none" stroke="url(#ribbon29)" stroke-width="58.4" stroke-linecap="round" stroke-opacity="0.120" /></g><g transform="rotate(-11.85 1536.0 1536.0)"><path d="M-368.6 757.2 C -241.7 831.1, -63.9 715.4, 54.6 815.7 C 181.6 798.5, 359.4 692.3, 477.9 782.5 C 604.8 779.3, 782.6 731.2, 901.1 733.9 C 1028.1 725.2, 1205.9 771.4, 1324.4 699.5 C 1451.3 718.6, 1629.1 781.0, 1747.6 700.1 C 1874.6 717.3, 2052.4 806.1, 2170.9 735.4 C 2297.9 734.3, 2475.6 774.5, 2594.1 783.9 C 2721.1 792.1, 2898.9 730.0, 3017.4 816.3 C 3144.4 802.3, 3322.1 698.4, 3440.6 812.8" fill="none" stroke="url(#ribbon29)" stroke-width="54.4" stroke-linecap="round" stroke-opacity="0.146" /></g><g transform="rotate(-11.27 1536.0 1536.0)"><path d="M-368.6 914.4 C -254.4 959.2, -94.4 900.3, 12.3 909.8 C 126.6 910.5, 286.6 919.7, 393.2 861.5 C 507.5 850.2, 667.5 955.6, 774.1 845.3 C 888.4 821.3, 1048.4 936.0, 1155.1 870.9 C 1269.4 860.6, 1429.3 964.8, 1536.0 922.9 C 1650.3 926.2, 1810.3 909.0, 1916.9 969.8 C 2031.2 953.4, 2191.2 850.4, 2297.9 983.0 C 2412.1 986.9, 2572.1 891.0, 2678.8 954.6 C 2793.1 944.6, 2953.1 901.2, 3059.7 901.8 C 3174.0 905.1, 3334.0 925.3, 3440.6 856.6" fill="none" stroke="url(#ribbon29)" stroke-width="50.4" stroke-linecap="round" stroke-opacity="0.172" /></g><g transform="rotate(-10.69 1536.0 1536.0)"><path d="M-368.6 1071.2 C -264.8 999.3, -119.3 1141.1, -22.3 1044.0 C 81.5 1041.8, 227.0 1095.5, 324.0 1103.5 C 427.8 1113.6, 573.3 1057.7, 670.3 1143.4 C 774.1 1140.6, 919.6 1001.5, 1016.6 1139.5 C 1120.4 1129.7, 1265.9 1013.1, 1362.9 1094.1 C 1466.7 1102.2, 1612.2 1047.0, 1709.1 1034.8 C 1813.0 1036.3, 1958.5 1101.8, 2055.4 997.5 C 2159.3 1004.4, 2304.8 1130.2, 2401.7 1004.9 C 2505.6 1025.4, 2651.1 1135.5, 2748.0 1052.5 C 2851.9 1048.7, 2997.4 1087.5, 3094.3 1111.4 C 3198.2 1119.8, 3343.7 1049.0, 3440.6 1145.9" fill="none" stroke="url(#ribbon29)" stroke-width="46.4" stroke-linecap="round" stroke-opacity="0.198" /></g><g transform="rotate(-10.11 1536.0 1536.0)"><path d="M-368.6 1344.1 C -273.4 1318.4, -140.1 1354.9, -51.2 1269.1 C 44.0 1243.7, 177.4 1409.7, 266.2 1265.4 C 361.5 1288.7, 494.8 1385.0, 583.7 1309.5 C 678.9 1322.4, 812.2 1368.6, 901.1 1374.5 C 996.4 1381.3, 1129.7 1313.9, 1218.6 1421.1 C 1313.8 1416.9, 1447.1 1317.6, 1536.0 1421.0 C 1631.2 1427.3, 1764.6 1310.0, 1853.4 1374.2 C 1948.7 1366.1, 2082.0 1326.5, 2170.9 1309.1 C 2266.1 1296.8, 2399.4 1364.4, 2488.3 1265.3 C 2583.6 1281.4, 2716.9 1420.4, 2805.8 1269.2 C 2901.0 1245.2, 3034.3 1383.2, 3123.2 1318.6 C 3218.4 1327.6, 3351.8 1354.5, 3440.6 1383.4" fill="none" stroke="url(#ribbon29)" stroke-width="42.4" stroke-linecap="round" stroke-opacity="0.224" /></g><g transform="rotate(-9.53 1536.0 1536.0)"><path d="M-368.6 1434.3 C -225.8 1428.2, -25.8 1437.0, 107.5 1493.5 C 250.4 1512.4, 450.4 1382.9, 583.7 1524.8 C 726.5 1493.8, 926.5 1383.9, 1059.8 1501.2 C 1202.7 1488.8, 1402.7 1365.4, 1536.0 1437.0 C 1678.8 1438.0, 1878.8 1432.6, 2012.2 1371.2 C 2155.0 1361.8, 2355.0 1507.9, 2488.3 1343.7 C 2631.2 1348.8, 2831.2 1535.2, 2964.5 1371.1 C 3107.3 1372.6, 3307.3 1461.8, 3440.6 1436.9" fill="none" stroke="url(#ribbon29)" stroke-width="38.4" stroke-linecap="round" stroke-opacity="0.250" /></g><g transform="rotate(-8.95 1536.0 1536.0)"><path d="M-368.6 1636.2 C -241.7 1594.3, -63.9 1672.8, 54.6 1539.5 C 181.6 1538.1, 359.4 1739.5, 477.9 1559.1 C 604.8 1568.2, 782.6 1698.1, 901.1 1625.4 C 1028.1 1628.3, 1205.9 1643.5, 1324.4 1698.4 C 1451.3 1684.1, 1629.1 1577.2, 1747.6 1733.6 C 1874.6 1715.7, 2052.4 1546.7, 2170.9 1709.7 C 2297.9 1689.5, 2475.6 1551.6, 2594.1 1641.3 C 2721.1 1642.5, 2898.9 1633.3, 3017.4 1569.8 C 3144.4 1571.2, 3322.1 1667.3, 3440.6 1538.5" fill="none" stroke="url(#ribbon29)" stroke-width="34.4" stroke-linecap="round" stroke-opacity="0.276" /></g><g transform="rotate(-8.37 1536.0 1536.0)"><path d="M-368.6 1889.9 C -254.4 2000.4, -94.4 1860.4, 12.3 1900.7 C 126.6 1896.5, 286.6 1882.9, 393.2 1822.6 C 507.5 1818.1, 667.5 1918.2, 774.1 1785.4 C 888.4 1749.9, 1048.4 1989.0, 1155.1 1811.5 C 1269.4 1820.7, 1429.3 1934.1, 1536.0 1885.2 C 1650.3 1885.3, 1810.3 1892.0, 1916.9 1961.7 C 2031.2 1937.9, 2191.2 1847.4, 2297.9 1994.6 C 2412.1 2010.2, 2572.1 1773.6, 2678.8 1964.0 C 2793.1 1943.1, 2953.1 1818.2, 3059.7 1888.4 C 3174.0 1888.1, 3334.0 1890.3, 3440.6 1813.7" fill="none" stroke="url(#ribbon29)" stroke-width="30.4" stroke-linecap="round" stroke-opacity="0.302" /></g><g transform="rotate(-7.79 1536.0 1536.0)"><path d="M-368.6 2110.5 C -264.8 2145.7, -119.3 2071.9, -22.3 2081.3 C 81.5 2092.8, 227.0 2136.8, 324.0 2012.7 C 427.8 2050.2, 573.3 2182.2, 670.3 2003.4 C 774.1 1964.8, 919.6 2218.6, 1016.6 2059.1 C 1120.4 2062.1, 1265.9 2133.5, 1362.9 2145.9 C 1466.7 2135.6, 1612.2 2093.4, 1709.1 2211.3 C 1813.0 2172.8, 1958.5 2050.9, 2055.4 2215.5 C 2159.3 2212.0, 2304.8 2014.2, 2401.7 2156.0 C 2505.6 2156.9, 2651.1 2089.7, 2748.0 2068.9 C 2851.9 2075.0, 2997.4 2138.0, 3094.3 2007.1 C 3198.2 2041.7, 3343.7 2194.2, 3440.6 2007.9" fill="none" stroke="url(#ribbon29)" stroke-width="26.4" stroke-linecap="round" stroke-opacity="0.328" /></g><g transform="rotate(-7.21 1536.0 1536.0)"><path d="M-368.6 2239.7 C -273.4 2114.3, -140.1 2287.2, -51.2 2122.7 C 44.0 2117.1, 177.4 2336.4, 266.2 2173.5 C 361.5 2175.5, 494.8 2269.9, 583.7 2264.4 C 678.9 2255.8, 812.2 2225.7, 901.1 2340.3 C 996.4 2366.2, 1129.7 2193.3, 1218.6 2355.2 C 1313.8 2337.3, 1447.1 2203.6, 1536.0 2300.0 C 1631.2 2279.7, 1764.6 2187.7, 1853.4 2208.2 C 1948.7 2215.7, 2082.0 2259.4, 2170.9 2135.5 C 2266.1 2136.0, 2399.4 2300.3, 2488.3 2126.0 C 2583.6 2154.0, 2716.9 2361.8, 2805.8 2185.5 C 2901.0 2197.8, 3034.3 2269.3, 3123.2 2277.8 C 3218.4 2288.0, 3351.8 2224.0, 3440.6 2347.0" fill="none" stroke="url(#ribbon29)" stroke-width="22.4" stroke-linecap="round" stroke-opacity="0.354" /></g><g transform="rotate(-6.63 1536.0 1536.0)"><path d="M-368.6 2488.7 C -225.8 2601.9, -25.8 2394.3, 107.5 2587.3 C 250.4 2571.6, 450.4 2410.7, 583.7 2501.2 C 726.5 2497.4, 926.5 2484.2, 1059.8 2407.5 C 1202.7 2421.7, 1402.7 2567.6, 1536.0 2363.1 C 1678.8 2366.6, 1878.8 2542.4, 2012.2 2394.8 C 2155.0 2374.5, 2355.0 2593.9, 2488.3 2483.5 C 2631.2 2485.0, 2831.2 2494.5, 2964.5 2575.4 C 3107.3 2589.4, 3307.3 2420.5, 3440.6 2614.6" fill="none" stroke="url(#ribbon29)" stroke-width="18.4" stroke-linecap="round" stroke-opacity="0.380" /></g><g transform="rotate(-6.05 1536.0 1536.0)"><path d="M-368.6 2700.3 C -241.7 2533.8, -63.9 2815.0, 54.6 2577.1 C 181.6 2579.4, 359.4 2838.4, 477.9 2650.4 C 604.8 2639.4, 782.6 2742.8, 901.1 2754.0 C 1028.1 2734.4, 1205.9 2684.0, 1324.4 2825.0 C 1451.3 2782.8, 1629.1 2576.4, 1747.6 2820.4 C 1874.6 2784.7, 2052.4 2606.5, 2170.9 2742.9 C 2297.9 2747.8, 2475.6 2666.1, 2594.1 2639.6 C 2721.1 2628.9, 2898.9 2744.1, 3017.4 2573.1 C 3144.4 2598.8, 3322.1 2832.5, 3440.6 2583.8" fill="none" stroke="url(#ribbon29)" stroke-width="14.4" stroke-linecap="round" stroke-opacity="0.406" /></g></g>
  <g><ellipse cx="1536.0" cy="1551.9" rx="728.6" ry="605.7" fill="url(#extrude29)" opacity="0.220" /><ellipse cx="1536.0" cy="1567.7" rx="736.0" ry="610.9" fill="url(#extrude29)" opacity="0.205" /><ellipse cx="1536.0" cy="1583.6" rx="743.4" ry="616.1" fill="url(#extrude29)" opacity="0.190" /><ellipse cx="1536.0" cy="1599.5" rx="750.9" ry="621.3" fill="url(#extrude29)" opacity="0.175" /><ellipse cx="1536.0" cy="1615.4" rx="758.3" ry="626.5" fill="url(#extrude29)" opacity="0.160" /><ellipse cx="1536.0" cy="1631.2" rx="765.7" ry="631.7" fill="url(#extrude29)" opacity="0.145" /><ellipse cx="1536.0" cy="1647.1" rx="773.2" ry="636.9" fill="url(#extrude29)" opacity="0.130" /><ellipse cx="1536.0" cy="1663.0" rx="780.6" ry="642.1" fill="url(#extrude29)" opacity="0.115" /><ellipse cx="1536.0" cy="1678.8" rx="788.0" ry="647.4" fill="url(#extrude29)" opacity="0.100" /><ellipse cx="1536.0" cy="1694.7" rx="795.5" ry="652.6" fill="url(#extrude29)" opacity="0.085" /><ellipse cx="1536.0" cy="1710.6" rx="802.9" ry="657.8" fill="url(#extrude29)" opacity="0.070" /><ellipse cx="1536.0" cy="1726.5" rx="810.3" ry="663.0" fill="url(#extrude29)" opacity="0.055" /></g>
  <ellipse cx="1536.0" cy="1726.5" rx="773.2" ry="214.9" fill="#0B1D2D" opacity="0.24" />
  <ellipse cx="1536.0" cy="1536.0" rx="743.4" ry="651.3" fill="url(#orb29)" stroke="#FFFFFF" stroke-opacity="0.42" stroke-width="7" />
  <ellipse cx="1431.9" cy="1392.7" rx="505.5" ry="299.6" fill="#FFFFFF" opacity="0.25" />
  <path d="M 199.4 399.4 C 1013.8 -30.7, 2058.2 768.0, 2872.6 215.0 L 2872.6 983.0 C 2089.0 1228.8, 1013.8 307.2, 199.4 1167.4 Z" fill="url(#glass29)" />
  <rect x="270" y="270" width="2532" height="2532" rx="430" fill="none" stroke="#FFFFFF" stroke-opacity="0.30" stroke-width="5" />
  <rect x="288.4" y="288.4" width="2495.1" height="2495.1" rx="399" fill="none" stroke="#3B82FF" stroke-opacity="0.35" stroke-width="3" />
  <g filter="url(#soft29)"><rect x="877" y="1159" width="32" height="2" fill="#FFFFFF" opacity="0.663" /><rect x="892" y="1144" width="2" height="32" fill="#FFFFFF" opacity="0.663" /><rect x="1226" y="2235" width="60" height="2" fill="#FFFFFF" opacity="0.717" /><rect x="1255" y="2206" width="2" height="60" fill="#FFFFFF" opacity="0.717" /><rect x="778" y="1190" width="36" height="2" fill="#FFFFFF" opacity="0.728" /><rect x="795" y="1173" width="2" height="36" fill="#FFFFFF" opacity="0.728" /><rect x="2239" y="754" width="48" height="2" fill="#FFFFFF" opacity="0.678" /><rect x="2262" y="731" width="2" height="48" fill="#FFFFFF" opacity="0.678" /><rect x="1355" y="1545" width="40" height="2" fill="#FFFFFF" opacity="0.342" /><rect x="1374" y="1526" width="2" height="40" fill="#FFFFFF" opacity="0.342" /><rect x="970" y="2581" width="46" height="2" fill="#FFFFFF" opacity="0.741" /><rect x="992" y="2559" width="2" height="46" fill="#FFFFFF" opacity="0.741" /><rect x="1891" y="1706" width="70" height="2" fill="#FFFFFF" opacity="0.597" /><rect x="1925" y="1672" width="2" height="70" fill="#FFFFFF" opacity="0.597" /><rect x="1874" y="2699" width="72" height="2" fill="#FFFFFF" opacity="0.333" /><rect x="1909" y="2664" width="2" height="72" fill="#FFFFFF" opacity="0.333" /><rect x="2135" y="1275" width="68" height="2" fill="#FFFFFF" opacity="0.474" /><rect x="2168" y="1242" width="2" height="68" fill="#FFFFFF" opacity="0.474" /><rect x="1427" y="845" width="28" height="2" fill="#FFFFFF" opacity="0.673" /><rect x="1440" y="832" width="2" height="28" fill="#FFFFFF" opacity="0.673" /><rect x="780" y="1255" width="48" height="2" fill="#FFFFFF" opacity="0.775" /><rect x="803" y="1232" width="2" height="48" fill="#FFFFFF" opacity="0.775" /><rect x="425" y="2563" width="82" height="2" fill="#FFFFFF" opacity="0.541" /><rect x="465" y="2523" width="2" height="82" fill="#FFFFFF" opacity="0.541" /><rect x="465" y="1087" width="82" height="2" fill="#FFFFFF" opacity="0.803" /><rect x="505" y="1047" width="2" height="82" fill="#FFFFFF" opacity="0.803" /><rect x="562" y="882" width="30" height="2" fill="#FFFFFF" opacity="0.746" /><rect x="576" y="868" width="2" height="30" fill="#FFFFFF" opacity="0.746" /><rect x="1741" y="1505" width="32" height="2" fill="#FFFFFF" opacity="0.436" /><rect x="1756" y="1490" width="2" height="32" fill="#FFFFFF" opacity="0.436" /><rect x="1735" y="1611" width="62" height="2" fill="#FFFFFF" opacity="0.784" /><rect x="1765" y="1581" width="2" height="62" fill="#FFFFFF" opacity="0.784" /><rect x="586" y="629" width="38" height="2" fill="#FFFFFF" opacity="0.456" /><rect x="604" y="611" width="2" height="38" fill="#FFFFFF" opacity="0.456" /><rect x="1491" y="1559" width="60" height="2" fill="#FFFFFF" opacity="0.351" /><rect x="1520" y="1530" width="2" height="60" fill="#FFFFFF" opacity="0.351" /><rect x="397" y="910" width="76" height="2" fill="#FFFFFF" opacity="0.565" /><rect x="434" y="873" width="2" height="76" fill="#FFFFFF" opacity="0.565" /><rect x="341" y="291" width="76" height="2" fill="#FFFFFF" opacity="0.748" /><rect x="378" y="254" width="2" height="76" fill="#FFFFFF" opacity="0.748" /><rect x="2457" y="1765" width="76" height="2" fill="#FFFFFF" opacity="0.600" /><rect x="2494" y="1728" width="2" height="76" fill="#FFFFFF" opacity="0.600" /><rect x="1320" y="2586" width="58" height="2" fill="#FFFFFF" opacity="0.682" /><rect x="1348" y="2558" width="2" height="58" fill="#FFFFFF" opacity="0.682" /><rect x="319" y="534" width="48" height="2" fill="#FFFFFF" opacity="0.555" /><rect x="342" y="511" width="2" height="48" fill="#FFFFFF" opacity="0.555" /><rect x="641" y="1544" width="30" height="2" fill="#FFFFFF" opacity="0.769" /><rect x="655" y="1530" width="2" height="30" fill="#FFFFFF" opacity="0.769" /><rect x="903" y="1806" width="24" height="2" fill="#FFFFFF" opacity="0.481" /><rect x="914" y="1795" width="2" height="24" fill="#FFFFFF" opacity="0.481" /><rect x="2557" y="257" width="76" height="2" fill="#FFFFFF" opacity="0.781" /><rect x="2594" y="220" width="2" height="76" fill="#FFFFFF" opacity="0.781" /></g>
  <g opacity="0.52"><rect x="1023" y="1121" width="1152" height="1024" rx="153" fill="none" stroke="#0C2030" stroke-width="90" /><line x1="1023" y1="1326" x2="2148" y2="1326" stroke="#0C2030" stroke-width="90" /><line x1="1316" y1="1033" x2="1316" y2="1121" stroke="#0C2030" stroke-width="90" /><line x1="1828" y1="1033" x2="1828" y2="1121" stroke="#0C2030" stroke-width="90" /></g>
  <g filter="url(#soft29)"><rect x="987" y="1075" width="1152" height="1024" rx="153" fill="none" stroke="url(#symbol29)" stroke-width="90" /><line x1="987" y1="1280" x2="2112" y2="1280" stroke="url(#symbol29)" stroke-width="90" /><line x1="1280" y1="987" x2="1280" y2="1075" stroke="url(#symbol29)" stroke-width="90" /><line x1="1792" y1="987" x2="1792" y2="1075" stroke="url(#symbol29)" stroke-width="90" /></g>
  <rect x="138" y="138" width="2796" height="2796" rx="629" fill="#FFFFFF" filter="url(#grain29)" opacity="0.18" />
</svg>
