<svg xmlns="http://www.w3.org/2000/svg" width="3072" height="3072" viewBox="0 0 3072 3072">
  <title>QuartzOS App Icon 070 - tidal_player_070</title>
  <defs><linearGradient id="bg69" x1="0%" y1="0%" x2="100%" y2="100%"><stop offset="0%" stop-color="#53E3A6" /><stop offset="26%" stop-color="#3B82FF" /><stop offset="56%" stop-color="#FF6AB3" /><stop offset="78%" stop-color="#4F79A7" /><stop offset="100%" stop-color="#1B2630" /></linearGradient><radialGradient id="sun69" cx="30%" cy="41%" r="88%"><stop offset="0%" stop-color="#FFFFFF" stop-opacity="0.62" /><stop offset="30%" stop-color="#FF9F43" stop-opacity="0.35" /><stop offset="100%" stop-color="#FF9F43" stop-opacity="0" /></radialGradient><linearGradient id="glass69" x1="0%" y1="0%" x2="0%" y2="100%"><stop offset="0%" stop-color="#FFFFFF" stop-opacity="0.70" /><stop offset="46%" stop-color="#FFFFFF" stop-opacity="0.26" /><stop offset="100%" stop-color="#FFFFFF" stop-opacity="0.00" /></linearGradient><linearGradient id="ribbon69" x1="0%" y1="0%" x2="100%" y2="0%"><stop offset="0%" stop-color="#53E3A6" stop-opacity="0.18" /><stop offset="34%" stop-color="#3B82FF" stop-opacity="0.72" /><stop offset="66%" stop-color="#FF6AB3" stop-opacity="0.72" /><stop offset="100%" stop-color="#FF9F43" stop-opacity="0.18" /></linearGradient><radialGradient id="orb69" cx="34%" cy="27%" r="74%"><stop offset="0%" stop-color="#FFFFFF" stop-opacity="0.84" /><stop offset="30%" stop-color="#53E3A6" stop-opacity="0.52" /><stop offset="68%" stop-color="#3B82FF" stop-opacity="0.42" /><stop offset="100%" stop-color="#FF6AB3" stop-opacity="0.20" /></radialGradient><linearGradient id="extrude69" x1="0%" y1="0%" x2="0%" y2="100%"><stop offset="0%" stop-color="#15283C" stop-opacity="0.45" /><stop offset="100%" stop-color="#08131D" stop-opacity="0.06" /></linearGradient><linearGradient id="symbol69" x1="0%" y1="0%" x2="100%" y2="100%"><stop offset="0%" stop-color="#FFFFFF" /><stop offset="100%" stop-color="#FF9F43" /></linearGradient><filter id="shadow69" x="-40%" y="-40%" width="180%" height="180%"><feDropShadow dx="0" dy="49" stdDeviation="86" flood-color="#06111A" flood-opacity="0.54" /></filter><filter id="soft69" x="-40%" y="-40%" width="180%" height="180%"><feDropShadow dx="0" dy="0" stdDeviation="14" flood-color="#53E3A6" flood-opacity="0.45" /></filter><filter id="grain69"><feTurbulence type="fractalNoise" baseFrequency="0.677" numOctaves="2" seed="69" /><feColorMatrix type="saturate" values="0" /><feComponentTransfer><feFuncA type="table" tableValues="0 0.09" /></feComponentTransfer></filter></defs>
  <rect x="138" y="138" width="2796" height="2796" rx="629" fill="url(#bg69)" filter="url(#shadow69)" />
  <rect x="138" y="138" width="2796" height="2796" rx="629" fill="url(#sun69)" />
  <g><circle cx="2371" cy="1475" r="59" fill="#FFFFFF" opacity="0.144" /><circle cx="1908" cy="2611" r="108" fill="#FFFFFF" opacity="0.146" /><circle cx="517" cy="2653" r="130" fill="#FFFFFF" opacity="0.101" /><circle cx="2160" cy="848" r="38" fill="#FFFFFF" opacity="0.214" /><circle cx="1357" cy="2467" r="101" fill="#FFFFFF" opacity="0.167" /><circle cx="1805" cy="594" r="150" fill="#FFFFFF" opacity="0.086" /><circle cx="2035" cy="899" r="93" fill="#FFFFFF" opacity="0.174" /><circle cx="516" cy="468" r="107" fill="#FFFFFF" opacity="0.187" /><circle cx="853" cy="2508" r="93" fill="#FFFFFF" opacity="0.150" /><circle cx="610" cy="766" r="147" fill="#FFFFFF" opacity="0.152" /><circle cx="1597" cy="2281" r="105" fill="#FFFFFF" opacity="0.174" /><circle cx="653" cy="1967" r="87" fill="#FFFFFF" opacity="0.215" /><circle cx="2252" cy="387" r="41" fill="#FFFFFF" opacity="0.145" /><circle cx="1464" cy="992" r="153" fill="#FFFFFF" opacity="0.174" /><circle cx="785" cy="310" r="66" fill="#FFFFFF" opacity="0.198" /><circle cx="1177" cy="1995" r="53" fill="#FFFFFF" opacity="0.084" /><circle cx="1666" cy="2342" r="70" fill="#FFFFFF" opacity="0.140" /><circle cx="370" cy="937" r="132" fill="#FFFFFF" opacity="0.146" /><circle cx="2100" cy="2012" r="100" fill="#FFFFFF" opacity="0.062" /><circle cx="922" cy="1472" r="159" fill="#FFFFFF" opacity="0.158" /><circle cx="2336" cy="651" r="148" fill="#FFFFFF" opacity="0.163" /><circle cx="929" cy="2215" r="58" fill="#FFFFFF" opacity="0.149" /><circle cx="2697" cy="1725" r="45" fill="#FFFFFF" opacity="0.121" /><circle cx="2020" cy="947" r="129" fill="#FFFFFF" opacity="0.214" /><circle cx="1345" cy="2531" r="67" fill="#FFFFFF" opacity="0.199" /><circle cx="1065" cy="1351" r="135" fill="#FFFFFF" opacity="0.090" /><circle cx="2109" cy="414" r="42" fill="#FFFFFF" opacity="0.107" /><circle cx="1286" cy="745" r="91" fill="#FFFFFF" opacity="0.090" /></g>
  <g><path d="M 273.2 633.9 L 2918.9 357.4 L 2918.9 800.7 L 273.2 1077.2 Z" fill="#FFFFFF" opacity="0.106" /><path d="M 154.2 891.1 L 2823.7 614.6 L 2823.7 1042.1 L 154.2 1318.6 Z" fill="#FFFFFF" opacity="0.129" /><path d="M 251.6 1169.3 L 2916.6 892.8 L 2916.6 1337.7 L 251.6 1614.2 Z" fill="#FFFFFF" opacity="0.113" /><path d="M 181.5 1393.9 L 2818.9 1117.4 L 2818.9 1611.4 L 181.5 1887.9 Z" fill="#FFFFFF" opacity="0.138" /><path d="M 389.3 1614.9 L 2859.3 1338.5 L 2859.3 1757.4 L 389.3 2033.9 Z" fill="#FFFFFF" opacity="0.224" /><path d="M 150.8 1919.2 L 2717.2 1642.7 L 2717.2 2096.3 L 150.8 2372.8 Z" fill="#FFFFFF" opacity="0.220" /><path d="M 183.6 2146.3 L 2782.9 1869.8 L 2782.9 2302.7 L 183.6 2579.2 Z" fill="#FFFFFF" opacity="0.087" /><path d="M 284.6 2445.5 L 2909.4 2169.0 L 2909.4 2596.6 L 284.6 2873.1 Z" fill="#FFFFFF" opacity="0.148" /></g>
  <g filter="url(#soft69)"><g transform="rotate(-7.47 1536.0 1536.0)"><path d="M-368.6 545.2 C -225.8 532.7, -25.8 561.0, 107.5 567.7 C 250.4 559.1, 450.4 518.6, 583.7 597.1 C 726.5 604.3, 926.5 487.9, 1059.8 595.0 C 1202.7 613.0, 1402.7 489.2, 1536.0 562.7 C 1678.8 562.4, 1878.8 535.6, 2012.2 519.8 C 2155.0 525.8, 2355.0 565.2, 2488.3 492.3 C 2631.2 509.2, 2831.2 604.1, 2964.5 496.9 C 3107.3 478.1, 3307.3 592.7, 3440.6 530.8" fill="none" stroke="url(#ribbon69)" stroke-width="58.4" stroke-linecap="round" stroke-opacity="0.120" /></g><g transform="rotate(-6.89 1536.0 1536.0)"><path d="M-368.6 700.0 C -241.7 660.9, -63.9 722.2, 54.6 686.2 C 181.6 691.4, 359.4 714.2, 477.9 734.0 C 604.8 747.2, 782.6 663.3, 901.1 761.2 C 1028.1 757.6, 1205.9 636.7, 1324.4 751.2 C 1451.3 757.3, 1629.1 671.6, 1747.6 710.2 C 1874.6 707.4, 2052.4 690.3, 2170.9 662.9 C 2297.9 661.2, 2475.6 715.4, 2594.1 638.2 C 2721.1 615.0, 2898.9 737.6, 3017.4 650.9 C 3144.4 634.2, 3322.1 726.4, 3440.6 693.4" fill="none" stroke="url(#ribbon69)" stroke-width="54.4" stroke-linecap="round" stroke-opacity="0.146" /></g><g transform="rotate(-6.31 1536.0 1536.0)"><path d="M-368.6 893.0 C -254.4 854.6, -94.4 946.1, 12.3 827.6 C 126.6 813.6, 286.6 927.2, 393.2 864.2 C 507.5 866.6, 667.5 912.2, 774.1 918.2 C 888.4 911.0, 1048.4 868.0, 1155.1 957.0 C 1269.4 968.5, 1429.3 870.9, 1536.0 956.9 C 1650.3 955.6, 1810.3 840.7, 1916.9 918.1 C 2031.2 911.9, 2191.2 879.8, 2297.9 864.1 C 2412.1 863.8, 2572.1 915.8, 2678.8 827.6 C 2793.1 828.9, 2953.1 920.9, 3059.7 830.8 C 3174.0 826.1, 3334.0 934.4, 3440.6 871.7" fill="none" stroke="url(#ribbon69)" stroke-width="50.4" stroke-linecap="round" stroke-opacity="0.172" /></g><g transform="rotate(-5.73 1536.0 1536.0)"><path d="M-368.6 1148.4 C -264.8 1129.7, -119.3 1165.4, -22.3 1082.7 C 81.5 1108.8, 227.0 1208.1, 324.0 1074.5 C 427.8 1101.1, 573.3 1236.3, 670.3 1111.1 C 774.1 1120.4, 919.6 1191.2, 1016.6 1170.3 C 1120.4 1171.3, 1265.9 1135.4, 1362.9 1216.2 C 1466.7 1215.7, 1612.2 1098.9, 1709.1 1221.0 C 1813.0 1208.1, 1958.5 1114.1, 2055.4 1181.7 C 2159.3 1191.9, 2304.8 1117.4, 2401.7 1122.2 C 2505.6 1122.2, 2651.1 1176.2, 2748.0 1078.5 C 2851.9 1096.6, 2997.4 1177.1, 3094.3 1077.3 C 3198.2 1053.7, 3343.7 1186.0, 3440.6 1119.1" fill="none" stroke="url(#ribbon69)" stroke-width="46.4" stroke-linecap="round" stroke-opacity="0.198" /></g><g transform="rotate(-5.15 1536.0 1536.0)"><path d="M-368.6 1305.2 C -273.4 1295.9, -140.1 1309.2, -51.2 1357.8 C 44.0 1337.1, 177.4 1264.4, 266.2 1388.4 C 361.5 1356.8, 494.8 1214.4, 583.7 1368.6 C 678.9 1377.8, 812.2 1279.7, 901.1 1310.3 C 996.4 1308.7, 1129.7 1303.0, 1218.6 1249.0 C 1313.8 1255.1, 1447.1 1336.9, 1536.0 1221.7 C 1631.2 1194.6, 1764.6 1374.5, 1853.4 1245.1 C 1948.7 1247.4, 2082.0 1356.5, 2170.9 1305.0 C 2266.1 1305.0, 2399.4 1305.4, 2488.3 1365.0 C 2583.6 1380.9, 2716.9 1239.4, 2805.8 1388.7 C 2901.0 1385.0, 3034.3 1246.7, 3123.2 1361.8 C 3218.4 1339.5, 3351.8 1287.6, 3440.6 1300.6" fill="none" stroke="url(#ribbon69)" stroke-width="42.4" stroke-linecap="round" stroke-opacity="0.224" /></g><g transform="rotate(-4.57 1536.0 1536.0)"><path d="M-368.6 1448.9 C -225.8 1394.0, -25.8 1524.0, 107.5 1415.9 C 250.4 1428.0, 450.4 1460.2, 583.7 1486.4 C 726.5 1485.7, 926.5 1420.4, 1059.8 1534.2 C 1202.7 1549.0, 1402.7 1359.3, 1536.0 1530.2 C 1678.8 1542.7, 1878.8 1377.3, 2012.2 1476.9 C 2155.0 1467.9, 2355.0 1418.7, 2488.3 1406.6 C 2631.2 1417.6, 2831.2 1478.6, 2964.5 1361.9 C 3107.3 1342.1, 3307.3 1515.5, 3440.6 1370.0" fill="none" stroke="url(#ribbon69)" stroke-width="38.4" stroke-linecap="round" stroke-opacity="0.250" /></g><g transform="rotate(-3.99 1536.0 1536.0)"><path d="M-368.6 1653.7 C -241.7 1702.9, -63.9 1574.2, 54.6 1750.9 C 181.6 1780.5, 359.4 1574.4, 477.9 1714.8 C 604.8 1697.9, 782.6 1599.5, 901.1 1641.6 C 1028.1 1643.6, 1205.9 1659.3, 1324.4 1575.7 C 1451.3 1601.3, 1629.1 1707.1, 1747.6 1557.1 C 1874.6 1586.4, 2052.4 1693.2, 2170.9 1597.1 C 2297.9 1584.0, 2475.6 1705.0, 2594.1 1671.4 C 2721.1 1670.0, 2898.9 1635.4, 3017.4 1734.9 C 3144.4 1708.0, 3322.1 1578.0, 3440.6 1749.2" fill="none" stroke="url(#ribbon69)" stroke-width="34.4" stroke-linecap="round" stroke-opacity="0.276" /></g><g transform="rotate(-3.41 1536.0 1536.0)"><path d="M-368.6 1885.2 C -254.4 1778.3, -94.4 1997.6, 12.3 1807.7 C 126.6 1813.8, 286.6 1911.7, 393.2 1881.8 C 507.5 1881.5, 667.5 1886.4, 774.1 1957.9 C 888.4 1956.0, 1048.4 1851.8, 1155.1 1989.9 C 1269.4 1979.0, 1429.3 1779.4, 1536.0 1958.4 C 1650.3 1962.0, 1810.3 1808.7, 1916.9 1882.4 C 2031.2 1881.3, 2191.2 1886.2, 2297.9 1808.1 C 2412.1 1829.7, 2572.1 1964.9, 2678.8 1780.6 C 2793.1 1798.0, 2953.1 1928.9, 3059.7 1816.5 C 3174.0 1795.5, 3334.0 1947.1, 3440.6 1894.0" fill="none" stroke="url(#ribbon69)" stroke-width="30.4" stroke-linecap="round" stroke-opacity="0.302" /></g><g transform="rotate(-2.83 1536.0 1536.0)"><path d="M-368.6 2062.2 C -264.8 1972.1, -119.3 2088.9, -22.3 1950.7 C 81.5 1938.0, 227.0 2172.0, 324.0 1990.8 C 427.8 1994.5, 573.3 2093.6, 670.3 2074.2 C 774.1 2071.1, 919.6 2052.7, 1016.6 2150.3 C 1120.4 2117.4, 1265.9 2014.3, 1362.9 2172.9 C 1466.7 2137.6, 1612.2 2011.7, 1709.1 2128.4 C 1813.0 2143.1, 1958.5 2027.0, 2055.4 2043.6 C 2159.3 2041.3, 2304.8 2072.1, 2401.7 1970.1 C 2505.6 1956.8, 2651.1 2101.1, 2748.0 1952.5 C 2851.9 1979.3, 2997.4 2114.9, 3094.3 2001.3 C 3198.2 2005.1, 3343.7 2103.9, 3440.6 2087.1" fill="none" stroke="url(#ribbon69)" stroke-width="26.4" stroke-linecap="round" stroke-opacity="0.328" /></g><g transform="rotate(-2.25 1536.0 1536.0)"><path d="M-368.6 2323.5 C -273.4 2393.6, -140.1 2298.3, -51.2 2441.6 C 44.0 2429.4, 177.4 2280.8, 266.2 2415.4 C 361.5 2405.7, 494.8 2248.7, 583.7 2333.5 C 678.9 2330.1, 812.2 2314.7, 901.1 2245.5 C 996.4 2226.5, 1129.7 2409.8, 1218.6 2204.8 C 1313.8 2190.3, 1447.1 2437.7, 1536.0 2236.1 C 1631.2 2222.5, 1764.6 2408.0, 1853.4 2320.4 C 1948.7 2320.8, 2082.0 2325.7, 2170.9 2406.6 C 2266.1 2411.6, 2399.4 2268.2, 2488.3 2442.4 C 2583.6 2474.0, 2716.9 2226.5, 2805.8 2406.0 C 2901.0 2387.9, 3034.3 2243.6, 3123.2 2319.6 C 3218.4 2318.5, 3351.8 2325.8, 3440.6 2235.5" fill="none" stroke="url(#ribbon69)" stroke-width="22.4" stroke-linecap="round" stroke-opacity="0.354" /></g><g transform="rotate(-1.67 1536.0 1536.0)"><path d="M-368.6 2514.5 C -225.8 2586.9, -25.8 2460.4, 107.5 2515.0 C 250.4 2514.9, 450.4 2514.1, 583.7 2424.5 C 726.5 2442.5, 926.5 2573.9, 1059.8 2388.6 C 1202.7 2387.7, 1402.7 2629.6, 1536.0 2429.0 C 1678.8 2456.0, 1878.8 2573.3, 2012.2 2521.3 C 2155.0 2520.2, 2355.0 2511.9, 2488.3 2609.5 C 2631.2 2573.2, 2831.2 2478.4, 2964.5 2640.0 C 3107.3 2606.0, 3307.3 2460.3, 3440.6 2594.4" fill="none" stroke="url(#ribbon69)" stroke-width="18.4" stroke-linecap="round" stroke-opacity="0.380" /></g><g transform="rotate(-1.09 1536.0 1536.0)"><path d="M-368.6 2636.1 C -241.7 2540.9, -63.9 2660.8, 54.6 2506.4 C 181.6 2511.1, 359.4 2789.6, 477.9 2524.4 C 604.8 2532.4, 782.6 2684.9, 901.1 2610.1 C 1028.1 2615.2, 1205.9 2660.1, 1324.4 2711.5 C 1451.3 2736.9, 1629.1 2550.4, 1747.6 2767.2 C 1874.6 2726.6, 2052.4 2574.1, 2170.9 2743.3 C 2297.9 2740.6, 2475.6 2591.5, 2594.1 2654.4 C 2721.1 2649.4, 2898.9 2629.3, 3017.4 2554.3 C 3144.4 2540.2, 3322.1 2727.5, 3440.6 2503.8" fill="none" stroke="url(#ribbon69)" stroke-width="14.4" stroke-linecap="round" stroke-opacity="0.406" /></g></g>
  <g><ellipse cx="1536.0" cy="1551.9" rx="728.6" ry="605.7" fill="url(#extrude69)" opacity="0.220" /><ellipse cx="1536.0" cy="1567.7" rx="736.0" ry="610.9" fill="url(#extrude69)" opacity="0.205" /><ellipse cx="1536.0" cy="1583.6" rx="743.4" ry="616.1" fill="url(#extrude69)" opacity="0.190" /><ellipse cx="1536.0" cy="1599.5" rx="750.9" ry="621.3" fill="url(#extrude69)" opacity="0.175" /><ellipse cx="1536.0" cy="1615.4" rx="758.3" ry="626.5" fill="url(#extrude69)" opacity="0.160" /><ellipse cx="1536.0" cy="1631.2" rx="765.7" ry="631.7" fill="url(#extrude69)" opacity="0.145" /><ellipse cx="1536.0" cy="1647.1" rx="773.2" ry="636.9" fill="url(#extrude69)" opacity="0.130" /><ellipse cx="1536.0" cy="1663.0" rx="780.6" ry="642.1" fill="url(#extrude69)" opacity="0.115" /><ellipse cx="1536.0" cy="1678.8" rx="788.0" ry="647.4" fill="url(#extrude69)" opacity="0.100" /><ellipse cx="1536.0" cy="1694.7" rx="795.5" ry="652.6" fill="url(#extrude69)" opacity="0.085" /><ellipse cx="1536.0" cy="1710.6" rx="802.9" ry="657.8" fill="url(#extrude69)" opacity="0.070" /><ellipse cx="1536.0" cy="1726.5" rx="810.3" ry="663.0" fill="url(#extrude69)" opacity="0.055" /></g>
  <ellipse cx="1536.0" cy="1726.5" rx="773.2" ry="214.9" fill="#0B1D2D" opacity="0.24" />
  <ellipse cx="1536.0" cy="1536.0" rx="743.4" ry="651.3" fill="url(#orb69)" stroke="#FFFFFF" stroke-opacity="0.42" stroke-width="7" />
  <ellipse cx="1431.9" cy="1392.7" rx="505.5" ry="299.6" fill="#FFFFFF" opacity="0.25" />
  <path d="M 199.4 399.4 C 1013.8 -30.7, 2058.2 768.0, 2872.6 215.0 L 2872.6 983.0 C 2089.0 1228.8, 1013.8 307.2, 199.4 1167.4 Z" fill="url(#glass69)" />
  <rect x="270" y="270" width="2532" height="2532" rx="430" fill="none" stroke="#FFFFFF" stroke-opacity="0.30" stroke-width="5" />
  <rect x="288.4" y="288.4" width="2495.1" height="2495.1" rx="399" fill="none" stroke="#53E3A6" stroke-opacity="0.35" stroke-width="3" />
  <g filter="url(#soft69)"><rect x="2544" y="2713" width="56" height="2" fill="#FFFFFF" opacity="0.750" /><rect x="2571" y="2686" width="2" height="56" fill="#FFFFFF" opacity="0.750" /><rect x="1151" y="293" width="82" height="2" fill="#FFFFFF" opacity="0.508" /><rect x="1191" y="253" width="2" height="82" fill="#FFFFFF" opacity="0.508" /><rect x="1947" y="2048" width="28" height="2" fill="#FFFFFF" opacity="0.501" /><rect x="1960" y="2035" width="2" height="28" fill="#FFFFFF" opacity="0.501" /><rect x="337" y="1832" width="44" height="2" fill="#FFFFFF" opacity="0.344" /><rect x="358" y="1811" width="2" height="44" fill="#FFFFFF" opacity="0.344" /><rect x="1158" y="565" width="40" height="2" fill="#FFFFFF" opacity="0.422" /><rect x="1177" y="546" width="2" height="40" fill="#FFFFFF" opacity="0.422" /><rect x="376" y="2757" width="72" height="2" fill="#FFFFFF" opacity="0.404" /><rect x="411" y="2722" width="2" height="72" fill="#FFFFFF" opacity="0.404" /><rect x="2249" y="2452" width="46" height="2" fill="#FFFFFF" opacity="0.770" /><rect x="2271" y="2430" width="2" height="46" fill="#FFFFFF" opacity="0.770" /><rect x="812" y="1935" width="70" height="2" fill="#FFFFFF" opacity="0.403" /><rect x="846" y="1901" width="2" height="70" fill="#FFFFFF" opacity="0.403" /><rect x="2615" y="1362" width="40" height="2" fill="#FFFFFF" opacity="0.448" /><rect x="2634" y="1343" width="2" height="40" fill="#FFFFFF" opacity="0.448" /><rect x="542" y="1392" width="50" height="2" fill="#FFFFFF" opacity="0.597" /><rect x="566" y="1368" width="2" height="50" fill="#FFFFFF" opacity="0.597" /><rect x="2172" y="1068" width="84" height="2" fill="#FFFFFF" opacity="0.495" /><rect x="2213" y="1027" width="2" height="84" fill="#FFFFFF" opacity="0.495" /><rect x="1364" y="1534" width="30" height="2" fill="#FFFFFF" opacity="0.403" /><rect x="1378" y="1520" width="2" height="30" fill="#FFFFFF" opacity="0.403" /><rect x="2031" y="1625" width="48" height="2" fill="#FFFFFF" opacity="0.316" /><rect x="2054" y="1602" width="2" height="48" fill="#FFFFFF" opacity="0.316" /><rect x="304" y="2194" width="58" height="2" fill="#FFFFFF" opacity="0.772" /><rect x="332" y="2166" width="2" height="58" fill="#FFFFFF" opacity="0.772" /><rect x="1716" y="1448" width="76" height="2" fill="#FFFFFF" opacity="0.411" /><rect x="1753" y="1411" width="2" height="76" fill="#FFFFFF" opacity="0.411" /><rect x="1064" y="1947" width="62" height="2" fill="#FFFFFF" opacity="0.400" /><rect x="1094" y="1917" width="2" height="62" fill="#FFFFFF" opacity="0.400" /><rect x="792" y="2687" width="82" height="2" fill="#FFFFFF" opacity="0.605" /><rect x="832" y="2647" width="2" height="82" fill="#FFFFFF" opacity="0.605" /><rect x="1529" y="736" width="58" height="2" fill="#FFFFFF" opacity="0.646" /><rect x="1557" y="708" width="2" height="58" fill="#FFFFFF" opacity="0.646" /><rect x="1526" y="2277" width="44" height="2" fill="#FFFFFF" opacity="0.366" /><rect x="1547" y="2256" width="2" height="44" fill="#FFFFFF" opacity="0.366" /><rect x="458" y="761" width="76" height="2" fill="#FFFFFF" opacity="0.435" /><rect x="495" y="724" width="2" height="76" fill="#FFFFFF" opacity="0.435" /><rect x="474" y="1408" width="58" height="2" fill="#FFFFFF" opacity="0.679" /><rect x="502" y="1380" width="2" height="58" fill="#FFFFFF" opacity="0.679" /><rect x="569" y="599" width="64" height="2" fill="#FFFFFF" opacity="0.418" /><rect x="600" y="568" width="2" height="64" fill="#FFFFFF" opacity="0.418" /><rect x="1828" y="674" width="32" height="2" fill="#FFFFFF" opacity="0.315" /><rect x="1843" y="659" width="2" height="32" fill="#FFFFFF" opacity="0.315" /><rect x="306" y="2704" width="68" height="2" fill="#FFFFFF" opacity="0.424" /><rect x="339" y="2671" width="2" height="68" fill="#FFFFFF" opacity="0.424" /><rect x="1613" y="1036" width="48" height="2" fill="#FFFFFF" opacity="0.789" /><rect x="1636" y="1013" width="2" height="48" fill="#FFFFFF" opacity="0.789" /><rect x="2304" y="1553" width="82" height="2" fill="#FFFFFF" opacity="0.661" /><rect x="2344" y="1513" width="2" height="82" fill="#FFFFFF" opacity="0.661" /></g>
  <g opacity="0.52"><rect x="1060" y="1070" width="1024" height="1024" rx="153" fill="none" stroke="#0C2030" stroke-width="90" /><line x1="1316" y1="1326" x2="1828" y2="1838" stroke="#0C2030" stroke-width="90" stroke-linecap="round" /><line x1="1828" y1="1326" x2="1316" y2="1838" stroke="#0C2030" stroke-width="90" stroke-linecap="round" /></g>
  <g filter="url(#soft69)"><rect x="1024" y="1024" width="1024" height="1024" rx="153" fill="none" stroke="url(#symbol69)" stroke-width="90" /><line x1="1280" y1="1280" x2="1792" y2="1792" stroke="url(#symbol69)" stroke-width="90" stroke-linecap="round" /><line x1="1792" y1="1280" x2="1280" y2="1792" stroke="url(#symbol69)" stroke-width="90" stroke-linecap="round" /></g>
  <rect x="138" y="138" width="2796" height="2796" rx="629" fill="#FFFFFF" filter="url(#grain69)" opacity="0.18" />
</svg>
