<svg xmlns="http://www.w3.org/2000/svg" width="3072" height="3072" viewBox="0 0 3072 3072">
  <title>QuartzOS App Icon 330 - tidal_builder_330</title>
  <defs><linearGradient id="bg329" x1="0%" y1="0%" x2="100%" y2="100%"><stop offset="0%" stop-color="#36D1FF" /><stop offset="26%" stop-color="#8A5CFF" /><stop offset="56%" stop-color="#FF9F43" /><stop offset="78%" stop-color="#B37A46" /><stop offset="100%" stop-color="#27201B" /></linearGradient><radialGradient id="sun329" cx="26%" cy="31%" r="88%"><stop offset="0%" stop-color="#FFFFFF" stop-opacity="0.62" /><stop offset="30%" stop-color="#FFD84D" stop-opacity="0.35" /><stop offset="100%" stop-color="#FFD84D" stop-opacity="0" /></radialGradient><linearGradient id="glass329" x1="0%" y1="0%" x2="0%" y2="100%"><stop offset="0%" stop-color="#FFFFFF" stop-opacity="0.70" /><stop offset="46%" stop-color="#FFFFFF" stop-opacity="0.26" /><stop offset="100%" stop-color="#FFFFFF" stop-opacity="0.00" /></linearGradient><linearGradient id="ribbon329" x1="0%" y1="0%" x2="100%" y2="0%"><stop offset="0%" stop-color="#36D1FF" stop-opacity="0.18" /><stop offset="34%" stop-color="#8A5CFF" stop-opacity="0.72" /><stop offset="66%" stop-color="#FF9F43" stop-opacity="0.72" /><stop offset="100%" stop-color="#FFD84D" stop-opacity="0.18" /></linearGradient><radialGradient id="orb329" cx="34%" cy="27%" r="74%"><stop offset="0%" stop-color="#FFFFFF" stop-opacity="0.84" /><stop offset="30%" stop-color="#36D1FF" stop-opacity="0.52" /><stop offset="68%" stop-color="#8A5CFF" stop-opacity="0.42" /><stop offset="100%" stop-color="#FF9F43" stop-opacity="0.20" /></radialGradient><linearGradient id="extrude329" x1="0%" y1="0%" x2="0%" y2="100%"><stop offset="0%" stop-color="#15283C" stop-opacity="0.45" /><stop offset="100%" stop-color="#08131D" stop-opacity="0.06" /></linearGradient><linearGradient id="symbol329" x1="0%" y1="0%" x2="100%" y2="100%"><stop offset="0%" stop-color="#FFFFFF" /><stop offset="100%" stop-color="#FFD84D" /></linearGradient><filter id="shadow329" x="-40%" y="-40%" width="180%" height="180%"><feDropShadow dx="0" dy="49" stdDeviation="86" flood-color="#06111A" flood-opacity="0.54" /></filter><filter id="soft329" x="-40%" y="-40%" width="180%" height="180%"><feDropShadow dx="0" dy="0" stdDeviation="14" flood-color="#36D1FF" flood-opacity="0.45" /></filter><filter id="grain329"><feTurbulence type="fractalNoise" baseFrequency="0.906" numOctaves="2" seed="329" /><feColorMatrix type="saturate" values="0" /><feComponentTransfer><feFuncA type="table" tableValues="0 0.09" /></feComponentTransfer></filter></defs>
  <rect x="138" y="138" width="2796" height="2796" rx="629" fill="url(#bg329)" filter="url(#shadow329)" />
  <rect x="138" y="138" width="2796" height="2796" rx="629" fill="url(#sun329)" />
  <g><circle cx="2557" cy="2403" r="134" fill="#FFFFFF" opacity="0.231" /><circle cx="673" cy="1806" r="59" fill="#FFFFFF" opacity="0.218" /><circle cx="1615" cy="739" r="119" fill="#FFFFFF" opacity="0.067" /><circle cx="2362" cy="740" r="152" fill="#FFFFFF" opacity="0.210" /><circle cx="2157" cy="1960" r="121" fill="#FFFFFF" opacity="0.235" /><circle cx="1296" cy="1882" r="100" fill="#FFFFFF" opacity="0.155" /><circle cx="690" cy="801" r="39" fill="#FFFFFF" opacity="0.088" /><circle cx="1513" cy="2462" r="44" fill="#FFFFFF" opacity="0.098" /><circle cx="2495" cy="1162" r="56" fill="#FFFFFF" opacity="0.189" /><circle cx="2322" cy="2418" r="95" fill="#FFFFFF" opacity="0.158" /><circle cx="1223" cy="2632" r="135" fill="#FFFFFF" opacity="0.103" /><circle cx="1022" cy="2378" r="100" fill="#FFFFFF" opacity="0.118" /><circle cx="1240" cy="1543" r="105" fill="#FFFFFF" opacity="0.063" /><circle cx="1027" cy="1793" r="117" fill="#FFFFFF" opacity="0.197" /><circle cx="1017" cy="1757" r="99" fill="#FFFFFF" opacity="0.219" /><circle cx="2037" cy="2010" r="125" fill="#FFFFFF" opacity="0.128" /><circle cx="595" cy="1643" r="98" fill="#FFFFFF" opacity="0.172" /><circle cx="2614" cy="2314" r="95" fill="#FFFFFF" opacity="0.136" /><circle cx="440" cy="370" r="76" fill="#FFFFFF" opacity="0.220" /><circle cx="1157" cy="899" r="138" fill="#FFFFFF" opacity="0.209" /><circle cx="1027" cy="1954" r="118" fill="#FFFFFF" opacity="0.197" /><circle cx="2266" cy="791" r="39" fill="#FFFFFF" opacity="0.201" /><circle cx="821" cy="2688" r="145" fill="#FFFFFF" opacity="0.204" /><circle cx="501" cy="1544" r="103" fill="#FFFFFF" opacity="0.215" /><circle cx="1989" cy="2671" r="113" fill="#FFFFFF" opacity="0.186" /><circle cx="2217" cy="661" r="141" fill="#FFFFFF" opacity="0.177" /><circle cx="505" cy="725" r="56" fill="#FFFFFF" opacity="0.150" /><circle cx="1435" cy="2367" r="154" fill="#FFFFFF" opacity="0.066" /></g>
  <g><path d="M 263.5 658.6 L 2841.2 382.2 L 2841.2 825.5 L 263.5 1102.0 Z" fill="#FFFFFF" opacity="0.110" /><path d="M 339.1 915.9 L 2911.4 639.5 L 2911.4 1133.5 L 339.1 1410.0 Z" fill="#FFFFFF" opacity="0.113" /><path d="M 328.6 1108.1 L 2706.5 831.6 L 2706.5 1327.6 L 328.6 1604.1 Z" fill="#FFFFFF" opacity="0.134" /><path d="M 387.5 1423.3 L 2720.7 1146.8 L 2720.7 1609.0 L 387.5 1885.5 Z" fill="#FFFFFF" opacity="0.184" /><path d="M 326.4 1699.4 L 2858.7 1422.9 L 2858.7 1862.1 L 326.4 2138.6 Z" fill="#FFFFFF" opacity="0.169" /><path d="M 381.2 1943.7 L 2858.2 1667.3 L 2858.2 2156.6 L 381.2 2433.1 Z" fill="#FFFFFF" opacity="0.240" /><path d="M 147.9 2223.0 L 2686.9 1946.6 L 2686.9 2376.9 L 147.9 2653.3 Z" fill="#FFFFFF" opacity="0.148" /><path d="M 377.7 2438.0 L 2834.0 2161.5 L 2834.0 2620.9 L 377.7 2897.4 Z" fill="#FFFFFF" opacity="0.154" /></g>
  <g filter="url(#soft329)"><g transform="rotate(-19.87 1536.0 1536.0)"><path d="M-368.6 533.6 C -225.8 585.1, -25.8 508.0, 107.5 588.0 C 250.4 589.3, 450.4 474.0, 583.7 564.5 C 726.5 567.9, 926.5 515.9, 1059.8 522.2 C 1202.7 520.9, 1402.7 542.3, 1536.0 486.9 C 1678.8 476.1, 1878.8 562.3, 2012.2 479.9 C 2155.0 468.4, 2355.0 583.0, 2488.3 505.5 C 2631.2 512.4, 2831.2 547.5, 2964.5 548.1 C 3107.3 549.7, 3307.3 528.8, 3440.6 582.0" fill="none" stroke="url(#ribbon329)" stroke-width="58.4" stroke-linecap="round" stroke-opacity="0.120" /></g><g transform="rotate(-19.29 1536.0 1536.0)"><path d="M-368.6 701.2 C -241.7 627.5, -63.9 766.0, 54.6 655.5 C 181.6 666.5, 359.4 718.2, 477.9 699.9 C 604.8 700.4, 782.6 701.7, 901.1 745.0 C 1028.1 747.1, 1205.9 651.9, 1324.4 763.6 C 1451.3 755.8, 1629.1 665.9, 1747.6 744.3 C 1874.6 743.1, 2052.4 681.5, 2170.9 698.9 C 2297.9 699.8, 2475.6 702.3, 2594.1 654.9 C 2721.1 645.7, 2898.9 751.6, 3017.4 639.0 C 3144.4 645.8, 3322.1 770.7, 3440.6 660.8" fill="none" stroke="url(#ribbon329)" stroke-width="54.4" stroke-linecap="round" stroke-opacity="0.146" /></g><g transform="rotate(-18.71 1536.0 1536.0)"><path d="M-368.6 891.0 C -254.4 947.2, -94.4 844.5, 12.3 959.7 C 126.6 937.1, 286.6 852.6, 393.2 946.0 C 507.5 955.2, 667.5 837.4, 774.1 899.0 C 888.4 897.3, 1048.4 886.5, 1155.1 847.1 C 1269.4 858.6, 1429.3 921.7, 1536.0 821.8 C 1650.3 827.6, 1810.3 968.3, 1916.9 838.5 C 2031.2 822.8, 2191.2 931.1, 2297.9 887.1 C 2412.1 887.2, 2572.1 895.2, 2678.8 938.0 C 2793.1 935.2, 2953.1 844.7, 3059.7 960.4 C 3174.0 970.1, 3334.0 850.8, 3440.6 940.7" fill="none" stroke="url(#ribbon329)" stroke-width="50.4" stroke-linecap="round" stroke-opacity="0.172" /></g><g transform="rotate(-18.13 1536.0 1536.0)"><path d="M-368.6 1092.0 C -264.8 1025.5, -119.3 1136.0, -22.3 1015.7 C 81.5 993.5, 227.0 1149.1, 324.0 1034.6 C 427.8 1048.4, 573.3 1156.4, 670.3 1088.3 C 774.1 1088.5, 919.6 1093.4, 1016.6 1144.3 C 1120.4 1132.0, 1265.9 1034.9, 1362.9 1168.5 C 1466.7 1182.4, 1612.2 1039.0, 1709.1 1146.3 C 1813.0 1131.4, 1958.5 1058.3, 2055.4 1091.1 C 2159.3 1091.3, 2304.8 1092.5, 2401.7 1036.5 C 2505.6 1054.1, 2651.1 1140.1, 2748.0 1015.5 C 2851.9 1029.9, 2997.4 1178.3, 3094.3 1040.9 C 3198.2 1026.5, 3343.7 1113.7, 3440.6 1097.3" fill="none" stroke="url(#ribbon329)" stroke-width="46.4" stroke-linecap="round" stroke-opacity="0.198" /></g><g transform="rotate(-17.55 1536.0 1536.0)"><path d="M-368.6 1239.3 C -273.4 1220.0, -140.1 1251.9, -51.2 1274.3 C 44.0 1278.7, 177.4 1226.0, 266.2 1318.1 C 361.5 1316.8, 494.8 1171.0, 583.7 1314.1 C 678.9 1309.9, 812.2 1188.2, 901.1 1264.7 C 996.4 1271.2, 1129.7 1230.3, 1218.6 1199.9 C 1313.8 1214.8, 1447.1 1281.9, 1536.0 1159.0 C 1631.2 1162.9, 1764.6 1286.8, 1853.4 1166.7 C 1948.7 1167.3, 2082.0 1265.4, 2170.9 1218.5 C 2266.1 1212.0, 2399.4 1249.8, 2488.3 1282.9 C 2583.6 1282.6, 2716.9 1192.7, 2805.8 1320.8 C 2901.0 1304.2, 3034.3 1179.7, 3123.2 1309.2 C 3218.4 1305.4, 3351.8 1182.0, 3440.6 1255.2" fill="none" stroke="url(#ribbon329)" stroke-width="42.4" stroke-linecap="round" stroke-opacity="0.224" /></g><g transform="rotate(-16.97 1536.0 1536.0)"><path d="M-368.6 1477.1 C -225.8 1412.4, -25.8 1562.0, 107.5 1388.6 C 250.4 1354.8, 450.4 1504.1, 583.7 1429.4 C 726.5 1426.9, 926.5 1532.6, 1059.8 1499.1 C 1202.7 1500.5, 1402.7 1454.3, 1536.0 1555.5 C 1678.8 1528.9, 1878.8 1404.5, 2012.2 1564.3 C 2155.0 1549.7, 2355.0 1394.9, 2488.3 1520.2 C 2631.2 1512.1, 2831.2 1458.3, 2964.5 1449.9 C 3107.3 1441.9, 3307.3 1492.8, 3440.6 1396.1" fill="none" stroke="url(#ribbon329)" stroke-width="38.4" stroke-linecap="round" stroke-opacity="0.250" /></g><g transform="rotate(-16.39 1536.0 1536.0)"><path d="M-368.6 1734.6 C -241.7 1690.3, -63.9 1811.9, 54.6 1729.9 C 181.6 1731.8, 359.4 1737.8, 477.9 1801.4 C 604.8 1800.5, 782.6 1665.0, 901.1 1832.3 C 1028.1 1861.5, 1205.9 1686.1, 1324.4 1803.9 C 1451.3 1789.6, 1629.1 1656.9, 1747.6 1733.5 C 1874.6 1733.6, 2052.4 1735.5, 2170.9 1663.8 C 2297.9 1658.6, 2475.6 1779.1, 2594.1 1637.0 C 2721.1 1656.6, 2898.9 1813.9, 3017.4 1669.4 C 3144.4 1688.8, 3322.1 1807.3, 3440.6 1741.3" fill="none" stroke="url(#ribbon329)" stroke-width="34.4" stroke-linecap="round" stroke-opacity="0.276" /></g><g transform="rotate(-15.81 1536.0 1536.0)"><path d="M-368.6 1888.3 C -254.4 1932.3, -94.4 1817.0, 12.3 1877.6 C 126.6 1881.5, 286.6 1896.1, 393.2 1806.1 C 507.5 1834.3, 667.5 1967.3, 774.1 1784.5 C 888.4 1822.4, 1048.4 1980.5, 1155.1 1825.9 C 1269.4 1812.0, 1429.3 1961.1, 1536.0 1905.2 C 1650.3 1904.7, 1810.3 1872.1, 1916.9 1974.2 C 2031.2 1980.0, 2191.2 1860.7, 2297.9 1991.2 C 2412.1 1969.4, 2572.1 1791.9, 2678.8 1945.8 C 2793.1 1943.2, 2953.1 1850.5, 3059.7 1865.5 C 3174.0 1865.7, 3334.0 1911.0, 3440.6 1799.1" fill="none" stroke="url(#ribbon329)" stroke-width="30.4" stroke-linecap="round" stroke-opacity="0.302" /></g><g transform="rotate(-15.23 1536.0 1536.0)"><path d="M-368.6 2092.1 C -264.8 2230.8, -119.3 2008.1, -22.3 2176.5 C 81.5 2147.5, 227.0 2041.4, 324.0 2098.3 C 427.8 2098.2, 573.3 2086.0, 670.3 2016.3 C 774.1 1997.6, 919.6 2119.4, 1016.6 1980.3 C 1120.4 2024.4, 1265.9 2225.4, 1362.9 2012.0 C 1466.7 1984.4, 1612.2 2134.9, 1709.1 2092.3 C 1813.0 2092.5, 1958.5 2091.8, 2055.4 2172.5 C 2159.3 2167.4, 2304.8 2054.5, 2401.7 2203.8 C 2505.6 2173.6, 2651.1 2033.4, 2748.0 2167.4 C 2851.9 2144.1, 2997.4 2060.7, 3094.3 2085.2 C 3198.2 2087.3, 3343.7 2096.8, 3440.6 2007.2" fill="none" stroke="url(#ribbon329)" stroke-width="26.4" stroke-linecap="round" stroke-opacity="0.328" /></g><g transform="rotate(-14.65 1536.0 1536.0)"><path d="M-368.6 2325.2 C -273.4 2416.1, -140.1 2246.6, -51.2 2396.8 C 44.0 2404.3, 177.4 2253.5, 266.2 2307.0 C 361.5 2300.1, 494.8 2346.3, 583.7 2228.2 C 678.9 2211.3, 812.2 2386.1, 901.1 2208.3 C 996.4 2226.1, 1129.7 2401.5, 1218.6 2259.2 C 1313.8 2280.4, 1447.1 2387.5, 1536.0 2350.2 C 1631.2 2340.2, 1764.6 2295.7, 1853.4 2426.0 C 1948.7 2439.2, 2082.0 2245.5, 2170.9 2440.6 C 2266.1 2437.3, 2399.4 2239.6, 2488.3 2385.2 C 2583.6 2408.0, 2716.9 2297.7, 2805.8 2293.4 C 2901.0 2302.4, 3034.3 2337.3, 3123.2 2220.9 C 3218.4 2214.2, 3351.8 2440.4, 3440.6 2211.6" fill="none" stroke="url(#ribbon329)" stroke-width="22.4" stroke-linecap="round" stroke-opacity="0.354" /></g><g transform="rotate(-14.07 1536.0 1536.0)"><path d="M-368.6 2430.4 C -225.8 2323.7, -25.8 2522.5, 107.5 2323.2 C 250.4 2295.9, 450.4 2522.0, 583.7 2403.2 C 726.5 2409.5, 926.5 2457.9, 1059.8 2499.7 C 1202.7 2512.2, 1402.7 2349.2, 1536.0 2554.1 C 1678.8 2533.5, 1878.8 2296.7, 2012.2 2533.4 C 2155.0 2573.0, 2355.0 2361.4, 2488.3 2450.3 C 2631.2 2445.2, 2831.2 2414.8, 2964.5 2355.0 C 3107.3 2325.5, 3307.3 2458.1, 3440.6 2305.5" fill="none" stroke="url(#ribbon329)" stroke-width="18.4" stroke-linecap="round" stroke-opacity="0.380" /></g><g transform="rotate(-13.49 1536.0 1536.0)"><path d="M-368.6 2692.1 C -241.7 2798.0, -63.9 2588.0, 54.6 2786.5 C 181.6 2784.9, 359.4 2644.9, 477.9 2690.7 C 604.8 2690.8, 782.6 2693.3, 901.1 2595.7 C 1028.1 2604.7, 1205.9 2788.4, 1324.4 2559.2 C 1451.3 2603.8, 1629.1 2818.6, 1747.6 2603.4 C 1874.6 2608.2, 2052.4 2719.7, 2170.9 2701.3 C 2297.9 2700.0, 2475.6 2687.2, 2594.1 2793.7 C 2721.1 2819.2, 2898.9 2628.6, 3017.4 2824.5 C 3144.4 2777.9, 3322.1 2575.9, 3440.6 2775.0" fill="none" stroke="url(#ribbon329)" stroke-width="14.4" stroke-linecap="round" stroke-opacity="0.406" /></g></g>
  <g><ellipse cx="1536.0" cy="1551.9" rx="728.6" ry="605.7" fill="url(#extrude329)" opacity="0.220" /><ellipse cx="1536.0" cy="1567.7" rx="736.0" ry="610.9" fill="url(#extrude329)" opacity="0.205" /><ellipse cx="1536.0" cy="1583.6" rx="743.4" ry="616.1" fill="url(#extrude329)" opacity="0.190" /><ellipse cx="1536.0" cy="1599.5" rx="750.9" ry="621.3" fill="url(#extrude329)" opacity="0.175" /><ellipse cx="1536.0" cy="1615.4" rx="758.3" ry="626.5" fill="url(#extrude329)" opacity="0.160" /><ellipse cx="1536.0" cy="1631.2" rx="765.7" ry="631.7" fill="url(#extrude329)" opacity="0.145" /><ellipse cx="1536.0" cy="1647.1" rx="773.2" ry="636.9" fill="url(#extrude329)" opacity="0.130" /><ellipse cx="1536.0" cy="1663.0" rx="780.6" ry="642.1" fill="url(#extrude329)" opacity="0.115" /><ellipse cx="1536.0" cy="1678.8" rx="788.0" ry="647.4" fill="url(#extrude329)" opacity="0.100" /><ellipse cx="1536.0" cy="1694.7" rx="795.5" ry="652.6" fill="url(#extrude329)" opacity="0.085" /><ellipse cx="1536.0" cy="1710.6" rx="802.9" ry="657.8" fill="url(#extrude329)" opacity="0.070" /><ellipse cx="1536.0" cy="1726.5" rx="810.3" ry="663.0" fill="url(#extrude329)" opacity="0.055" /></g>
  <ellipse cx="1536.0" cy="1726.5" rx="773.2" ry="214.9" fill="#0B1D2D" opacity="0.24" />
  <ellipse cx="1536.0" cy="1536.0" rx="743.4" ry="651.3" fill="url(#orb329)" stroke="#FFFFFF" stroke-opacity="0.42" stroke-width="7" />
  <ellipse cx="1431.9" cy="1392.7" rx="505.5" ry="299.6" fill="#FFFFFF" opacity="0.25" />
  <path d="M 199.4 399.4 C 1013.8 -30.7, 2058.2 768.0, 2872.6 215.0 L 2872.6 983.0 C 2089.0 1228.8, 1013.8 307.2, 199.4 1167.4 Z" fill="url(#glass329)" />
  <rect x="270" y="270" width="2532" height="2532" rx="430" fill="none" stroke="#FFFFFF" stroke-opacity="0.30" stroke-width="5" />
  <rect x="288.4" y="288.4" width="2495.1" height="2495.1" rx="399" fill="none" stroke="#36D1FF" stroke-opacity="0.35" stroke-width="3" />
  <g filter="url(#soft329)"><rect x="1102" y="1873" width="44" height="2" fill="#FFFFFF" opacity="0.736" /><rect x="1123" y="1852" width="2" height="44" fill="#FFFFFF" opacity="0.736" /><rect x="453" y="1858" width="34" height="2" fill="#FFFFFF" opacity="0.843" /><rect x="469" y="1842" width="2" height="34" fill="#FFFFFF" opacity="0.843" /><rect x="1602" y="1037" width="34" height="2" fill="#FFFFFF" opacity="0.716" /><rect x="1618" y="1021" width="2" height="34" fill="#FFFFFF" opacity="0.716" /><rect x="1100" y="840" width="36" height="2" fill="#FFFFFF" opacity="0.511" /><rect x="1117" y="823" width="2" height="36" fill="#FFFFFF" opacity="0.511" /><rect x="706" y="2289" width="82" height="2" fill="#FFFFFF" opacity="0.752" /><rect x="746" y="2249" width="2" height="82" fill="#FFFFFF" opacity="0.752" /><rect x="2166" y="1078" width="34" height="2" fill="#FFFFFF" opacity="0.356" /><rect x="2182" y="1062" width="2" height="34" fill="#FFFFFF" opacity="0.356" /><rect x="1535" y="295" width="52" height="2" fill="#FFFFFF" opacity="0.618" /><rect x="1560" y="270" width="2" height="52" fill="#FFFFFF" opacity="0.618" /><rect x="2214" y="1628" width="74" height="2" fill="#FFFFFF" opacity="0.614" /><rect x="2250" y="1592" width="2" height="74" fill="#FFFFFF" opacity="0.614" /><rect x="1767" y="2011" width="44" height="2" fill="#FFFFFF" opacity="0.428" /><rect x="1788" y="1990" width="2" height="44" fill="#FFFFFF" opacity="0.428" /><rect x="2752" y="642" width="38" height="2" fill="#FFFFFF" opacity="0.704" /><rect x="2770" y="624" width="2" height="38" fill="#FFFFFF" opacity="0.704" /><rect x="2361" y="1752" width="48" height="2" fill="#FFFFFF" opacity="0.348" /><rect x="2384" y="1729" width="2" height="48" fill="#FFFFFF" opacity="0.348" /><rect x="1552" y="1690" width="46" height="2" fill="#FFFFFF" opacity="0.400" /><rect x="1574" y="1668" width="2" height="46" fill="#FFFFFF" opacity="0.400" /><rect x="2359" y="2390" width="32" height="2" fill="#FFFFFF" opacity="0.773" /><rect x="2374" y="2375" width="2" height="32" fill="#FFFFFF" opacity="0.773" /><rect x="352" y="717" width="76" height="2" fill="#FFFFFF" opacity="0.369" /><rect x="389" y="680" width="2" height="76" fill="#FFFFFF" opacity="0.369" /><rect x="2662" y="2080" width="36" height="2" fill="#FFFFFF" opacity="0.737" /><rect x="2679" y="2063" width="2" height="36" fill="#FFFFFF" opacity="0.737" /><rect x="1161" y="1496" width="62" height="2" fill="#FFFFFF" opacity="0.394" /><rect x="1191" y="1466" width="2" height="62" fill="#FFFFFF" opacity="0.394" /><rect x="1243" y="1914" width="76" height="2" fill="#FFFFFF" opacity="0.628" /><rect x="1280" y="1877" width="2" height="76" fill="#FFFFFF" opacity="0.628" /><rect x="1405" y="1640" width="76" height="2" fill="#FFFFFF" opacity="0.798" /><rect x="1442" y="1603" width="2" height="76" fill="#FFFFFF" opacity="0.798" /><rect x="2367" y="1780" width="56" height="2" fill="#FFFFFF" opacity="0.397" /><rect x="2394" y="1753" width="2" height="56" fill="#FFFFFF" opacity="0.397" /><rect x="792" y="2076" width="70" height="2" fill="#FFFFFF" opacity="0.462" /><rect x="826" y="2042" width="2" height="70" fill="#FFFFFF" opacity="0.462" /><rect x="1842" y="2035" width="64" height="2" fill="#FFFFFF" opacity="0.413" /><rect x="1873" y="2004" width="2" height="64" fill="#FFFFFF" opacity="0.413" /><rect x="1818" y="2185" width="58" height="2" fill="#FFFFFF" opacity="0.796" /><rect x="1846" y="2157" width="2" height="58" fill="#FFFFFF" opacity="0.796" /><rect x="1719" y="935" width="38" height="2" fill="#FFFFFF" opacity="0.569" /><rect x="1737" y="917" width="2" height="38" fill="#FFFFFF" opacity="0.569" /><rect x="1734" y="775" width="52" height="2" fill="#FFFFFF" opacity="0.800" /><rect x="1759" y="750" width="2" height="52" fill="#FFFFFF" opacity="0.800" /><rect x="894" y="402" width="66" height="2" fill="#FFFFFF" opacity="0.377" /><rect x="926" y="370" width="2" height="66" fill="#FFFFFF" opacity="0.377" /><rect x="1010" y="352" width="70" height="2" fill="#FFFFFF" opacity="0.827" /><rect x="1044" y="318" width="2" height="70" fill="#FFFFFF" opacity="0.827" /></g>
  <g opacity="0.52"><rect x="1023" y="1121" width="1152" height="1024" rx="153" fill="none" stroke="#0C2030" stroke-width="90" /><line x1="1023" y1="1326" x2="2148" y2="1326" stroke="#0C2030" stroke-width="90" /><line x1="1316" y1="1033" x2="1316" y2="1121" stroke="#0C2030" stroke-width="90" /><line x1="1828" y1="1033" x2="1828" y2="1121" stroke="#0C2030" stroke-width="90" /></g>
  <g filter="url(#soft329)"><rect x="987" y="1075" width="1152" height="1024" rx="153" fill="none" stroke="url(#symbol329)" stroke-width="90" /><line x1="987" y1="1280" x2="2112" y2="1280" stroke="url(#symbol329)" stroke-width="90" /><line x1="1280" y1="987" x2="1280" y2="1075" stroke="url(#symbol329)" stroke-width="90" /><line x1="1792" y1="987" x2="1792" y2="1075" stroke="url(#symbol329)" stroke-width="90" /></g>
  <rect x="138" y="138" width="2796" height="2796" rx="629" fill="#FFFFFF" filter="url(#grain329)" opacity="0.18" />
</svg>
