<svg xmlns="http://www.w3.org/2000/svg" width="3072" height="3072" viewBox="0 0 3072 3072">
  <title>QuartzOS App Icon 338 - vector_builder_338</title>
  <defs><linearGradient id="bg337" x1="0%" y1="0%" x2="100%" y2="100%"><stop offset="0%" stop-color="#3B82FF" /><stop offset="26%" stop-color="#FF6AB3" /><stop offset="56%" stop-color="#FFD84D" /><stop offset="78%" stop-color="#2E8D96" /><stop offset="100%" stop-color="#0F2A2E" /></linearGradient><radialGradient id="sun337" cx="25%" cy="40%" r="88%"><stop offset="0%" stop-color="#FFFFFF" stop-opacity="0.62" /><stop offset="30%" stop-color="#53E3A6" stop-opacity="0.35" /><stop offset="100%" stop-color="#53E3A6" stop-opacity="0" /></radialGradient><linearGradient id="glass337" x1="0%" y1="0%" x2="0%" y2="100%"><stop offset="0%" stop-color="#FFFFFF" stop-opacity="0.70" /><stop offset="46%" stop-color="#FFFFFF" stop-opacity="0.26" /><stop offset="100%" stop-color="#FFFFFF" stop-opacity="0.00" /></linearGradient><linearGradient id="ribbon337" x1="0%" y1="0%" x2="100%" y2="0%"><stop offset="0%" stop-color="#3B82FF" stop-opacity="0.18" /><stop offset="34%" stop-color="#FF6AB3" stop-opacity="0.72" /><stop offset="66%" stop-color="#FFD84D" stop-opacity="0.72" /><stop offset="100%" stop-color="#53E3A6" stop-opacity="0.18" /></linearGradient><radialGradient id="orb337" cx="34%" cy="27%" r="74%"><stop offset="0%" stop-color="#FFFFFF" stop-opacity="0.84" /><stop offset="30%" stop-color="#3B82FF" stop-opacity="0.52" /><stop offset="68%" stop-color="#FF6AB3" stop-opacity="0.42" /><stop offset="100%" stop-color="#FFD84D" stop-opacity="0.20" /></radialGradient><linearGradient id="extrude337" x1="0%" y1="0%" x2="0%" y2="100%"><stop offset="0%" stop-color="#15283C" stop-opacity="0.45" /><stop offset="100%" stop-color="#08131D" stop-opacity="0.06" /></linearGradient><linearGradient id="symbol337" x1="0%" y1="0%" x2="100%" y2="100%"><stop offset="0%" stop-color="#FFFFFF" /><stop offset="100%" stop-color="#53E3A6" /></linearGradient><filter id="shadow337" x="-40%" y="-40%" width="180%" height="180%"><feDropShadow dx="0" dy="49" stdDeviation="86" flood-color="#06111A" flood-opacity="0.54" /></filter><filter id="soft337" x="-40%" y="-40%" width="180%" height="180%"><feDropShadow dx="0" dy="0" stdDeviation="14" flood-color="#3B82FF" flood-opacity="0.45" /></filter><filter id="grain337"><feTurbulence type="fractalNoise" baseFrequency="0.686" numOctaves="2" seed="337" /><feColorMatrix type="saturate" values="0" /><feComponentTransfer><feFuncA type="table" tableValues="0 0.09" /></feComponentTransfer></filter></defs>
  <rect x="138" y="138" width="2796" height="2796" rx="629" fill="url(#bg337)" filter="url(#shadow337)" />
  <rect x="138" y="138" width="2796" height="2796" rx="629" fill="url(#sun337)" />
  <g><circle cx="1865" cy="1608" r="136" fill="#FFFFFF" opacity="0.150" /><circle cx="2239" cy="1639" r="126" fill="#FFFFFF" opacity="0.105" /><circle cx="498" cy="1183" r="44" fill="#FFFFFF" opacity="0.098" /><circle cx="661" cy="2596" r="137" fill="#FFFFFF" opacity="0.140" /><circle cx="1937" cy="694" r="59" fill="#FFFFFF" opacity="0.170" /><circle cx="2291" cy="2027" r="157" fill="#FFFFFF" opacity="0.192" /><circle cx="371" cy="2050" r="47" fill="#FFFFFF" opacity="0.142" /><circle cx="951" cy="769" r="62" fill="#FFFFFF" opacity="0.066" /><circle cx="1603" cy="1515" r="108" fill="#FFFFFF" opacity="0.156" /><circle cx="1920" cy="358" r="81" fill="#FFFFFF" opacity="0.072" /><circle cx="2501" cy="640" r="136" fill="#FFFFFF" opacity="0.072" /><circle cx="1173" cy="1461" r="121" fill="#FFFFFF" opacity="0.201" /><circle cx="1523" cy="576" r="74" fill="#FFFFFF" opacity="0.181" /><circle cx="2687" cy="2460" r="53" fill="#FFFFFF" opacity="0.117" /><circle cx="641" cy="1335" r="41" fill="#FFFFFF" opacity="0.220" /><circle cx="1470" cy="580" r="93" fill="#FFFFFF" opacity="0.162" /><circle cx="982" cy="1193" r="53" fill="#FFFFFF" opacity="0.100" /><circle cx="2333" cy="353" r="55" fill="#FFFFFF" opacity="0.114" /><circle cx="1541" cy="1036" r="95" fill="#FFFFFF" opacity="0.208" /><circle cx="2035" cy="667" r="61" fill="#FFFFFF" opacity="0.207" /><circle cx="953" cy="1672" r="53" fill="#FFFFFF" opacity="0.182" /><circle cx="2515" cy="1142" r="112" fill="#FFFFFF" opacity="0.096" /><circle cx="2333" cy="1286" r="101" fill="#FFFFFF" opacity="0.126" /><circle cx="1501" cy="1454" r="141" fill="#FFFFFF" opacity="0.075" /><circle cx="2496" cy="2639" r="96" fill="#FFFFFF" opacity="0.135" /><circle cx="2530" cy="819" r="150" fill="#FFFFFF" opacity="0.073" /><circle cx="597" cy="1235" r="47" fill="#FFFFFF" opacity="0.092" /><circle cx="2345" cy="2415" r="94" fill="#FFFFFF" opacity="0.167" /></g>
  <g><path d="M 362.3 572.7 L 2750.9 296.2 L 2750.9 736.0 L 362.3 1012.5 Z" fill="#FFFFFF" opacity="0.218" /><path d="M 264.0 863.0 L 2789.3 586.6 L 2789.3 1063.5 L 264.0 1340.0 Z" fill="#FFFFFF" opacity="0.232" /><path d="M 305.3 1128.3 L 2880.0 851.8 L 2880.0 1276.6 L 305.3 1553.1 Z" fill="#FFFFFF" opacity="0.237" /><path d="M 177.2 1426.9 L 2842.5 1150.4 L 2842.5 1598.6 L 177.2 1875.0 Z" fill="#FFFFFF" opacity="0.094" /><path d="M 155.8 1644.2 L 2792.7 1367.7 L 2792.7 1856.3 L 155.8 2132.8 Z" fill="#FFFFFF" opacity="0.089" /><path d="M 358.7 1959.6 L 2789.1 1683.1 L 2789.1 2155.7 L 358.7 2432.2 Z" fill="#FFFFFF" opacity="0.217" /><path d="M 154.1 2141.4 L 2819.8 1864.9 L 2819.8 2353.6 L 154.1 2630.1 Z" fill="#FFFFFF" opacity="0.100" /><path d="M 369.5 2421.3 L 2681.4 2144.8 L 2681.4 2619.4 L 369.5 2895.9 Z" fill="#FFFFFF" opacity="0.164" /></g>
  <g filter="url(#soft337)"><g transform="rotate(-14.86 1536.0 1536.0)"><path d="M-368.6 503.9 C -225.8 465.8, -25.8 536.4, 107.5 470.5 C 250.4 483.6, 450.4 541.4, 583.7 512.2 C 726.5 514.7, 926.5 500.5, 1059.8 548.9 C 1202.7 542.0, 1402.7 480.2, 1536.0 558.3 C 1678.8 552.5, 1878.8 471.2, 2012.2 534.7 C 2155.0 539.2, 2355.0 481.3, 2488.3 492.5 C 2631.2 491.0, 2831.2 515.7, 2964.5 457.1 C 3107.3 457.6, 3307.3 527.3, 3440.6 450.2" fill="none" stroke="url(#ribbon337)" stroke-width="58.4" stroke-linecap="round" stroke-opacity="0.120" /></g><g transform="rotate(-14.28 1536.0 1536.0)"><path d="M-368.6 728.8 C -241.7 728.7, -63.9 728.8, 54.6 684.0 C 181.6 668.3, 359.4 745.8, 477.9 666.4 C 604.8 642.6, 782.6 784.8, 901.1 686.7 C 1028.1 683.1, 1205.9 777.9, 1324.4 732.5 C 1451.3 731.3, 1629.1 726.7, 1747.6 776.0 C 1874.6 767.6, 2052.4 684.3, 2170.9 790.9 C 2297.9 812.1, 2475.6 660.9, 2594.1 768.1 C 2721.1 778.5, 2898.9 710.3, 3017.4 721.4 C 3144.4 721.0, 3322.1 731.9, 3440.6 679.2" fill="none" stroke="url(#ribbon337)" stroke-width="54.4" stroke-linecap="round" stroke-opacity="0.146" /></g><g transform="rotate(-13.70 1536.0 1536.0)"><path d="M-368.6 881.8 C -254.4 826.0, -94.4 916.7, 12.3 822.4 C 126.6 822.3, 286.6 952.5, 393.2 866.2 C 507.5 871.1, 667.5 895.8, 774.1 919.5 C 888.4 924.6, 1048.4 841.3, 1155.1 949.9 C 1269.4 957.1, 1429.3 812.4, 1536.0 939.0 C 1650.3 928.0, 1810.3 818.9, 1916.9 893.4 C 2031.2 894.3, 2191.2 869.4, 2297.9 840.7 C 2412.1 856.5, 2572.1 910.3, 2678.8 813.0 C 2793.1 838.5, 2953.1 943.3, 3059.7 827.0 C 3174.0 832.9, 3334.0 936.9, 3440.6 874.2" fill="none" stroke="url(#ribbon337)" stroke-width="50.4" stroke-linecap="round" stroke-opacity="0.172" /></g><g transform="rotate(-13.12 1536.0 1536.0)"><path d="M-368.6 1073.8 C -264.8 1129.5, -119.3 1050.2, -22.3 1148.7 C 81.5 1119.2, 227.0 1036.2, 324.0 1137.1 C 427.8 1135.0, 573.3 1002.0, 670.3 1087.1 C 774.1 1085.7, 919.6 1062.4, 1016.6 1029.0 C 1120.4 1014.2, 1265.9 1098.1, 1362.9 998.1 C 1466.7 998.3, 1612.2 1109.9, 1709.1 1013.1 C 1813.0 993.7, 1958.5 1103.5, 2055.4 1064.9 C 2159.3 1068.2, 2304.8 1081.7, 2401.7 1122.1 C 2505.6 1126.6, 2651.1 1024.3, 2748.0 1150.0 C 2851.9 1177.7, 2997.4 1021.9, 3094.3 1131.6 C 3198.2 1139.0, 3343.7 1015.9, 3440.6 1078.2" fill="none" stroke="url(#ribbon337)" stroke-width="46.4" stroke-linecap="round" stroke-opacity="0.198" /></g><g transform="rotate(-12.54 1536.0 1536.0)"><path d="M-368.6 1242.8 C -273.4 1277.9, -140.1 1233.6, -51.2 1204.8 C 44.0 1205.8, 177.4 1273.0, 266.2 1162.9 C 361.5 1146.2, 494.8 1333.9, 583.7 1169.5 C 678.9 1150.4, 812.2 1264.9, 901.1 1220.5 C 996.4 1226.6, 1129.7 1251.8, 1218.6 1285.0 C 1313.8 1299.9, 1447.1 1211.7, 1536.0 1323.9 C 1631.2 1312.3, 1764.6 1191.0, 1853.4 1313.6 C 1948.7 1301.3, 2082.0 1172.6, 2170.9 1260.3 C 2266.1 1261.4, 2399.4 1225.5, 2488.3 1196.4 C 2583.6 1202.0, 2716.9 1284.1, 2805.8 1160.6 C 2901.0 1186.6, 3034.3 1321.7, 3123.2 1174.7 C 3218.4 1148.4, 3351.8 1265.7, 3440.6 1230.1" fill="none" stroke="url(#ribbon337)" stroke-width="42.4" stroke-linecap="round" stroke-opacity="0.224" /></g><g transform="rotate(-11.96 1536.0 1536.0)"><path d="M-368.6 1498.1 C -225.8 1552.6, -25.8 1462.8, 107.5 1533.3 C 250.4 1538.7, 450.4 1474.1, 583.7 1462.7 C 726.5 1472.2, 926.5 1515.5, 1059.8 1413.6 C 1202.7 1380.3, 1402.7 1592.1, 1536.0 1415.7 C 1678.8 1436.0, 1878.8 1558.9, 2012.2 1467.8 C 2155.0 1476.0, 2355.0 1529.3, 2488.3 1538.3 C 2631.2 1552.0, 2831.2 1456.0, 2964.5 1584.4 C 3107.3 1614.2, 3307.3 1464.9, 3440.6 1578.1" fill="none" stroke="url(#ribbon337)" stroke-width="38.4" stroke-linecap="round" stroke-opacity="0.250" /></g><g transform="rotate(-11.38 1536.0 1536.0)"><path d="M-368.6 1632.5 C -241.7 1608.7, -63.9 1657.1, 54.6 1546.6 C 181.6 1551.8, 359.4 1693.2, 477.9 1539.2 C 604.8 1505.2, 782.6 1721.3, 901.1 1588.4 C 1028.1 1578.8, 1205.9 1680.4, 1324.4 1664.3 C 1451.3 1671.9, 1629.1 1619.5, 1747.6 1720.9 C 1874.6 1698.3, 2052.4 1578.0, 2170.9 1723.9 C 2297.9 1759.6, 2475.6 1595.4, 2594.1 1671.4 C 2721.1 1673.2, 2898.9 1615.2, 3017.4 1595.3 C 3144.4 1583.7, 3322.1 1657.2, 3440.6 1541.8" fill="none" stroke="url(#ribbon337)" stroke-width="34.4" stroke-linecap="round" stroke-opacity="0.276" /></g><g transform="rotate(-10.80 1536.0 1536.0)"><path d="M-368.6 1866.4 C -254.4 1859.0, -94.4 1871.6, 12.3 1937.1 C 126.6 1945.2, 286.6 1824.8, 393.2 1971.1 C 507.5 1935.2, 667.5 1773.8, 774.1 1941.6 C 888.4 1938.6, 1048.4 1820.9, 1155.1 1866.5 C 1269.4 1866.6, 1429.3 1866.3, 1536.0 1791.4 C 1650.3 1772.2, 1810.3 1922.3, 1916.9 1761.7 C 2031.2 1784.4, 2191.2 1936.6, 2297.9 1795.6 C 2412.1 1812.9, 2572.1 1950.7, 2678.8 1872.4 C 2793.1 1872.9, 2953.1 1863.1, 3059.7 1945.6 C 3174.0 1927.2, 3334.0 1785.3, 3440.6 1970.8" fill="none" stroke="url(#ribbon337)" stroke-width="30.4" stroke-linecap="round" stroke-opacity="0.302" /></g><g transform="rotate(-10.22 1536.0 1536.0)"><path d="M-368.6 2107.6 C -264.8 1981.5, -119.3 2149.6, -22.3 2035.9 C 81.5 2022.1, 227.0 2132.5, 324.0 2119.2 C 427.8 2115.4, 573.3 2094.2, 670.3 2195.5 C 774.1 2190.2, 919.6 2031.0, 1016.6 2218.4 C 1120.4 2226.2, 1265.9 2067.1, 1362.9 2174.2 C 1466.7 2168.3, 1612.2 2071.8, 1709.1 2089.5 C 1813.0 2085.6, 1958.5 2122.9, 2055.4 2015.9 C 2159.3 2043.0, 2304.8 2176.1, 2401.7 1997.8 C 2505.6 2036.8, 2651.1 2165.5, 2748.0 2046.4 C 2851.9 2060.3, 2997.4 2169.1, 3094.3 2132.1 C 3198.2 2132.8, 3343.7 2086.4, 3440.6 2202.9" fill="none" stroke="url(#ribbon337)" stroke-width="26.4" stroke-linecap="round" stroke-opacity="0.328" /></g><g transform="rotate(-9.64 1536.0 1536.0)"><path d="M-368.6 2217.0 C -273.4 2303.3, -140.1 2170.3, -51.2 2256.0 C 44.0 2240.8, 177.4 2201.9, 266.2 2163.6 C 361.5 2158.5, 494.8 2237.9, 583.7 2103.6 C 678.9 2141.6, 812.2 2340.8, 901.1 2112.4 C 996.4 2135.9, 1129.7 2313.4, 1218.6 2184.7 C 1313.8 2195.8, 1447.1 2227.1, 1536.0 2276.5 C 1631.2 2267.5, 1764.6 2191.3, 1853.4 2332.3 C 1948.7 2296.1, 2082.0 2145.8, 2170.9 2318.1 C 2266.1 2336.7, 2399.4 2167.6, 2488.3 2242.6 C 2583.6 2234.4, 2716.9 2194.2, 2805.8 2151.6 C 2901.0 2175.0, 3034.3 2271.7, 3123.2 2100.2 C 3218.4 2135.3, 3351.8 2277.2, 3440.6 2119.7" fill="none" stroke="url(#ribbon337)" stroke-width="22.4" stroke-linecap="round" stroke-opacity="0.354" /></g><g transform="rotate(-9.06 1536.0 1536.0)"><path d="M-368.6 2416.8 C -225.8 2564.6, -25.8 2289.3, 107.5 2508.3 C 250.4 2518.7, 450.4 2353.0, 583.7 2418.5 C 726.5 2419.0, 926.5 2415.5, 1059.8 2327.6 C 1202.7 2326.0, 1402.7 2456.1, 1536.0 2290.9 C 1678.8 2290.3, 1878.8 2508.7, 2012.2 2330.6 C 2155.0 2332.1, 2355.0 2452.2, 2488.3 2422.6 C 2631.2 2423.7, 2831.2 2412.5, 2964.5 2511.1 C 3107.3 2503.8, 3307.3 2340.5, 3440.6 2542.4" fill="none" stroke="url(#ribbon337)" stroke-width="18.4" stroke-linecap="round" stroke-opacity="0.380" /></g><g transform="rotate(-8.48 1536.0 1536.0)"><path d="M-368.6 2664.5 C -241.7 2646.2, -63.9 2676.1, 54.6 2749.6 C 181.6 2742.0, 359.4 2629.3, 477.9 2797.1 C 604.8 2759.6, 782.6 2553.0, 901.1 2764.1 C 1028.1 2796.7, 1205.9 2627.7, 1324.4 2670.7 C 1451.3 2670.5, 1629.1 2661.1, 1747.6 2573.5 C 1874.6 2538.7, 2052.4 2739.9, 2170.9 2531.5 C 2297.9 2481.2, 2475.6 2816.5, 2594.1 2570.1 C 2721.1 2549.5, 2898.9 2741.9, 3017.4 2666.0 C 3144.4 2666.0, 3322.1 2663.1, 3440.6 2760.9" fill="none" stroke="url(#ribbon337)" stroke-width="14.4" stroke-linecap="round" stroke-opacity="0.406" /></g></g>
  <g><ellipse cx="1536.0" cy="1551.9" rx="728.6" ry="605.7" fill="url(#extrude337)" opacity="0.220" /><ellipse cx="1536.0" cy="1567.7" rx="736.0" ry="610.9" fill="url(#extrude337)" opacity="0.205" /><ellipse cx="1536.0" cy="1583.6" rx="743.4" ry="616.1" fill="url(#extrude337)" opacity="0.190" /><ellipse cx="1536.0" cy="1599.5" rx="750.9" ry="621.3" fill="url(#extrude337)" opacity="0.175" /><ellipse cx="1536.0" cy="1615.4" rx="758.3" ry="626.5" fill="url(#extrude337)" opacity="0.160" /><ellipse cx="1536.0" cy="1631.2" rx="765.7" ry="631.7" fill="url(#extrude337)" opacity="0.145" /><ellipse cx="1536.0" cy="1647.1" rx="773.2" ry="636.9" fill="url(#extrude337)" opacity="0.130" /><ellipse cx="1536.0" cy="1663.0" rx="780.6" ry="642.1" fill="url(#extrude337)" opacity="0.115" /><ellipse cx="1536.0" cy="1678.8" rx="788.0" ry="647.4" fill="url(#extrude337)" opacity="0.100" /><ellipse cx="1536.0" cy="1694.7" rx="795.5" ry="652.6" fill="url(#extrude337)" opacity="0.085" /><ellipse cx="1536.0" cy="1710.6" rx="802.9" ry="657.8" fill="url(#extrude337)" opacity="0.070" /><ellipse cx="1536.0" cy="1726.5" rx="810.3" ry="663.0" fill="url(#extrude337)" opacity="0.055" /></g>
  <ellipse cx="1536.0" cy="1726.5" rx="773.2" ry="214.9" fill="#0B1D2D" opacity="0.24" />
  <ellipse cx="1536.0" cy="1536.0" rx="743.4" ry="651.3" fill="url(#orb337)" stroke="#FFFFFF" stroke-opacity="0.42" stroke-width="7" />
  <ellipse cx="1431.9" cy="1392.7" rx="505.5" ry="299.6" fill="#FFFFFF" opacity="0.25" />
  <path d="M 199.4 399.4 C 1013.8 -30.7, 2058.2 768.0, 2872.6 215.0 L 2872.6 983.0 C 2089.0 1228.8, 1013.8 307.2, 199.4 1167.4 Z" fill="url(#glass337)" />
  <rect x="270" y="270" width="2532" height="2532" rx="430" fill="none" stroke="#FFFFFF" stroke-opacity="0.30" stroke-width="5" />
  <rect x="288.4" y="288.4" width="2495.1" height="2495.1" rx="399" fill="none" stroke="#3B82FF" stroke-opacity="0.35" stroke-width="3" />
  <g filter="url(#soft337)"><rect x="725" y="1961" width="36" height="2" fill="#FFFFFF" opacity="0.678" /><rect x="742" y="1944" width="2" height="36" fill="#FFFFFF" opacity="0.678" /><rect x="1127" y="889" width="72" height="2" fill="#FFFFFF" opacity="0.812" /><rect x="1162" y="854" width="2" height="72" fill="#FFFFFF" opacity="0.812" /><rect x="340" y="1646" width="56" height="2" fill="#FFFFFF" opacity="0.337" /><rect x="367" y="1619" width="2" height="56" fill="#FFFFFF" opacity="0.337" /><rect x="1264" y="284" width="54" height="2" fill="#FFFFFF" opacity="0.492" /><rect x="1290" y="258" width="2" height="54" fill="#FFFFFF" opacity="0.492" /><rect x="1198" y="2378" width="50" height="2" fill="#FFFFFF" opacity="0.794" /><rect x="1222" y="2354" width="2" height="50" fill="#FFFFFF" opacity="0.794" /><rect x="2209" y="1291" width="54" height="2" fill="#FFFFFF" opacity="0.436" /><rect x="2235" y="1265" width="2" height="54" fill="#FFFFFF" opacity="0.436" /><rect x="2192" y="456" width="50" height="2" fill="#FFFFFF" opacity="0.803" /><rect x="2216" y="432" width="2" height="50" fill="#FFFFFF" opacity="0.803" /><rect x="1168" y="1468" width="68" height="2" fill="#FFFFFF" opacity="0.358" /><rect x="1201" y="1435" width="2" height="68" fill="#FFFFFF" opacity="0.358" /><rect x="338" y="1316" width="70" height="2" fill="#FFFFFF" opacity="0.780" /><rect x="372" y="1282" width="2" height="70" fill="#FFFFFF" opacity="0.780" /><rect x="1923" y="2424" width="24" height="2" fill="#FFFFFF" opacity="0.461" /><rect x="1934" y="2413" width="2" height="24" fill="#FFFFFF" opacity="0.461" /><rect x="1079" y="1998" width="66" height="2" fill="#FFFFFF" opacity="0.574" /><rect x="1111" y="1966" width="2" height="66" fill="#FFFFFF" opacity="0.574" /><rect x="2371" y="868" width="74" height="2" fill="#FFFFFF" opacity="0.662" /><rect x="2407" y="832" width="2" height="74" fill="#FFFFFF" opacity="0.662" /><rect x="2211" y="2112" width="46" height="2" fill="#FFFFFF" opacity="0.417" /><rect x="2233" y="2090" width="2" height="46" fill="#FFFFFF" opacity="0.417" /><rect x="1540" y="598" width="34" height="2" fill="#FFFFFF" opacity="0.817" /><rect x="1556" y="582" width="2" height="34" fill="#FFFFFF" opacity="0.817" /><rect x="1974" y="482" width="38" height="2" fill="#FFFFFF" opacity="0.689" /><rect x="1992" y="464" width="2" height="38" fill="#FFFFFF" opacity="0.689" /><rect x="2367" y="2610" width="62" height="2" fill="#FFFFFF" opacity="0.829" /><rect x="2397" y="2580" width="2" height="62" fill="#FFFFFF" opacity="0.829" /><rect x="994" y="2643" width="76" height="2" fill="#FFFFFF" opacity="0.464" /><rect x="1031" y="2606" width="2" height="76" fill="#FFFFFF" opacity="0.464" /><rect x="1421" y="1028" width="38" height="2" fill="#FFFFFF" opacity="0.671" /><rect x="1439" y="1010" width="2" height="38" fill="#FFFFFF" opacity="0.671" /><rect x="656" y="1427" width="70" height="2" fill="#FFFFFF" opacity="0.365" /><rect x="690" y="1393" width="2" height="70" fill="#FFFFFF" opacity="0.365" /><rect x="2161" y="2491" width="60" height="2" fill="#FFFFFF" opacity="0.840" /><rect x="2190" y="2462" width="2" height="60" fill="#FFFFFF" opacity="0.840" /><rect x="2726" y="1152" width="32" height="2" fill="#FFFFFF" opacity="0.356" /><rect x="2741" y="1137" width="2" height="32" fill="#FFFFFF" opacity="0.356" /><rect x="2361" y="992" width="24" height="2" fill="#FFFFFF" opacity="0.520" /><rect x="2372" y="981" width="2" height="24" fill="#FFFFFF" opacity="0.520" /><rect x="417" y="2296" width="78" height="2" fill="#FFFFFF" opacity="0.741" /><rect x="455" y="2258" width="2" height="78" fill="#FFFFFF" opacity="0.741" /><rect x="2672" y="1356" width="66" height="2" fill="#FFFFFF" opacity="0.582" /><rect x="2704" y="1324" width="2" height="66" fill="#FFFFFF" opacity="0.582" /><rect x="1290" y="2075" width="58" height="2" fill="#FFFFFF" opacity="0.849" /><rect x="1318" y="2047" width="2" height="58" fill="#FFFFFF" opacity="0.849" /><rect x="1942" y="692" width="82" height="2" fill="#FFFFFF" opacity="0.438" /><rect x="1982" y="652" width="2" height="82" fill="#FFFFFF" opacity="0.438" /></g>
  <g opacity="0.52"><rect x="1023" y="1070" width="768" height="768" rx="128" fill="none" stroke="#0C2030" stroke-width="90" /><path d="M1023 1582 L1572 1363 L2121 1582 L1572 2094 Z" fill="none" stroke="#0C2030" stroke-width="90" stroke-linejoin="round" /></g>
  <g filter="url(#soft337)"><rect x="987" y="1024" width="768" height="768" rx="128" fill="none" stroke="url(#symbol337)" stroke-width="90" /><path d="M987 1536 L1536 1317 L2085 1536 L1536 2048 Z" fill="none" stroke="url(#symbol337)" stroke-width="90" stroke-linejoin="round" /></g>
  <rect x="138" y="138" width="2796" height="2796" rx="629" fill="#FFFFFF" filter="url(#grain337)" opacity="0.18" />
</svg>
