<svg xmlns="http://www.w3.org/2000/svg" width="3072" height="3072" viewBox="0 0 3072 3072">
  <title>QuartzOS App Icon 218 - vector_notes_218</title>
  <defs><linearGradient id="bg217" x1="0%" y1="0%" x2="100%" y2="100%"><stop offset="0%" stop-color="#36D1FF" /><stop offset="26%" stop-color="#8A5CFF" /><stop offset="56%" stop-color="#FF9F43" /><stop offset="78%" stop-color="#2E8D96" /><stop offset="100%" stop-color="#0F2A2E" /></linearGradient><radialGradient id="sun217" cx="27%" cy="36%" r="88%"><stop offset="0%" stop-color="#FFFFFF" stop-opacity="0.62" /><stop offset="30%" stop-color="#FFD84D" stop-opacity="0.35" /><stop offset="100%" stop-color="#FFD84D" stop-opacity="0" /></radialGradient><linearGradient id="glass217" x1="0%" y1="0%" x2="0%" y2="100%"><stop offset="0%" stop-color="#FFFFFF" stop-opacity="0.70" /><stop offset="46%" stop-color="#FFFFFF" stop-opacity="0.26" /><stop offset="100%" stop-color="#FFFFFF" stop-opacity="0.00" /></linearGradient><linearGradient id="ribbon217" x1="0%" y1="0%" x2="100%" y2="0%"><stop offset="0%" stop-color="#36D1FF" stop-opacity="0.18" /><stop offset="34%" stop-color="#8A5CFF" stop-opacity="0.72" /><stop offset="66%" stop-color="#FF9F43" stop-opacity="0.72" /><stop offset="100%" stop-color="#FFD84D" stop-opacity="0.18" /></linearGradient><radialGradient id="orb217" cx="34%" cy="27%" r="74%"><stop offset="0%" stop-color="#FFFFFF" stop-opacity="0.84" /><stop offset="30%" stop-color="#36D1FF" stop-opacity="0.52" /><stop offset="68%" stop-color="#8A5CFF" stop-opacity="0.42" /><stop offset="100%" stop-color="#FF9F43" stop-opacity="0.20" /></radialGradient><linearGradient id="extrude217" x1="0%" y1="0%" x2="0%" y2="100%"><stop offset="0%" stop-color="#15283C" stop-opacity="0.45" /><stop offset="100%" stop-color="#08131D" stop-opacity="0.06" /></linearGradient><linearGradient id="symbol217" x1="0%" y1="0%" x2="100%" y2="100%"><stop offset="0%" stop-color="#FFFFFF" /><stop offset="100%" stop-color="#FFD84D" /></linearGradient><filter id="shadow217" x="-40%" y="-40%" width="180%" height="180%"><feDropShadow dx="0" dy="49" stdDeviation="86" flood-color="#06111A" flood-opacity="0.54" /></filter><filter id="soft217" x="-40%" y="-40%" width="180%" height="180%"><feDropShadow dx="0" dy="0" stdDeviation="14" flood-color="#36D1FF" flood-opacity="0.45" /></filter><filter id="grain217"><feTurbulence type="fractalNoise" baseFrequency="0.762" numOctaves="2" seed="217" /><feColorMatrix type="saturate" values="0" /><feComponentTransfer><feFuncA type="table" tableValues="0 0.09" /></feComponentTransfer></filter></defs>
  <rect x="138" y="138" width="2796" height="2796" rx="629" fill="url(#bg217)" filter="url(#shadow217)" />
  <rect x="138" y="138" width="2796" height="2796" rx="629" fill="url(#sun217)" />
  <g><circle cx="562" cy="1550" r="103" fill="#FFFFFF" opacity="0.100" /><circle cx="2095" cy="1749" r="113" fill="#FFFFFF" opacity="0.185" /><circle cx="912" cy="1718" r="70" fill="#FFFFFF" opacity="0.170" /><circle cx="500" cy="1107" r="115" fill="#FFFFFF" opacity="0.110" /><circle cx="568" cy="527" r="126" fill="#FFFFFF" opacity="0.067" /><circle cx="1369" cy="2238" r="36" fill="#FFFFFF" opacity="0.177" /><circle cx="485" cy="2487" r="56" fill="#FFFFFF" opacity="0.234" /><circle cx="2386" cy="2201" r="156" fill="#FFFFFF" opacity="0.189" /><circle cx="973" cy="1010" r="64" fill="#FFFFFF" opacity="0.122" /><circle cx="945" cy="2515" r="50" fill="#FFFFFF" opacity="0.099" /><circle cx="2007" cy="1770" r="122" fill="#FFFFFF" opacity="0.187" /><circle cx="1251" cy="847" r="58" fill="#FFFFFF" opacity="0.215" /><circle cx="1941" cy="702" r="49" fill="#FFFFFF" opacity="0.205" /><circle cx="1140" cy="2030" r="145" fill="#FFFFFF" opacity="0.236" /><circle cx="1617" cy="473" r="46" fill="#FFFFFF" opacity="0.211" /><circle cx="632" cy="466" r="92" fill="#FFFFFF" opacity="0.199" /><circle cx="2193" cy="755" r="114" fill="#FFFFFF" opacity="0.094" /><circle cx="1885" cy="1024" r="158" fill="#FFFFFF" opacity="0.081" /><circle cx="1378" cy="627" r="49" fill="#FFFFFF" opacity="0.200" /><circle cx="536" cy="1746" r="119" fill="#FFFFFF" opacity="0.225" /><circle cx="2062" cy="1124" r="46" fill="#FFFFFF" opacity="0.228" /><circle cx="1115" cy="671" r="126" fill="#FFFFFF" opacity="0.064" /><circle cx="664" cy="748" r="157" fill="#FFFFFF" opacity="0.217" /><circle cx="509" cy="400" r="66" fill="#FFFFFF" opacity="0.190" /><circle cx="1894" cy="717" r="105" fill="#FFFFFF" opacity="0.186" /><circle cx="2502" cy="842" r="133" fill="#FFFFFF" opacity="0.205" /><circle cx="1559" cy="774" r="55" fill="#FFFFFF" opacity="0.239" /><circle cx="2697" cy="1689" r="140" fill="#FFFFFF" opacity="0.087" /></g>
  <g><path d="M 355.6 571.3 L 2877.4 294.8 L 2877.4 788.2 L 355.6 1064.6 Z" fill="#FFFFFF" opacity="0.204" /><path d="M 162.8 919.3 L 2900.4 642.8 L 2900.4 1136.5 L 162.8 1412.9 Z" fill="#FFFFFF" opacity="0.208" /><path d="M 164.4 1102.0 L 2735.6 825.5 L 2735.6 1279.9 L 164.4 1556.4 Z" fill="#FFFFFF" opacity="0.128" /><path d="M 382.1 1372.5 L 2736.1 1096.0 L 2736.1 1515.5 L 382.1 1792.0 Z" fill="#FFFFFF" opacity="0.155" /><path d="M 257.3 1643.5 L 2800.2 1367.0 L 2800.2 1832.3 L 257.3 2108.7 Z" fill="#FFFFFF" opacity="0.176" /><path d="M 204.2 1906.0 L 2843.3 1629.5 L 2843.3 2114.6 L 204.2 2391.1 Z" fill="#FFFFFF" opacity="0.086" /><path d="M 305.9 2167.6 L 2793.1 1891.1 L 2793.1 2383.3 L 305.9 2659.8 Z" fill="#FFFFFF" opacity="0.185" /><path d="M 247.1 2487.9 L 2759.2 2211.4 L 2759.2 2696.8 L 247.1 2973.3 Z" fill="#FFFFFF" opacity="0.178" /></g>
  <g filter="url(#soft217)"><g transform="rotate(-9.91 1536.0 1536.0)"><path d="M-368.6 580.6 C -225.8 582.3, -25.8 578.8, 107.5 542.1 C 250.4 531.6, 450.4 609.8, 583.7 525.3 C 726.5 533.8, 926.5 639.4, 1059.8 542.1 C 1202.7 546.1, 1402.7 600.4, 1536.0 582.3 C 1678.8 582.6, 1878.8 579.4, 2012.2 621.4 C 2155.0 637.5, 2355.0 548.2, 2488.3 635.8 C 2631.2 643.6, 2831.2 517.7, 2964.5 616.8 C 3107.3 621.4, 3307.3 556.4, 3440.6 575.8" fill="none" stroke="url(#ribbon217)" stroke-width="58.4" stroke-linecap="round" stroke-opacity="0.120" /></g><g transform="rotate(-9.33 1536.0 1536.0)"><path d="M-368.6 684.2 C -241.7 732.8, -63.9 638.5, 54.6 746.5 C 181.6 766.1, 359.4 611.2, 477.9 727.0 C 604.8 739.0, 782.6 664.2, 901.1 681.4 C 1028.1 680.6, 1205.9 685.6, 1324.4 637.6 C 1451.3 633.6, 1629.1 719.1, 1747.6 622.0 C 1874.6 644.3, 2052.4 740.5, 2170.9 644.1 C 2297.9 650.9, 2475.6 724.0, 2594.1 690.6 C 2721.1 691.0, 2898.9 679.6, 3017.4 733.1 C 3144.4 731.8, 3322.1 638.1, 3440.6 746.0" fill="none" stroke="url(#ribbon217)" stroke-width="54.4" stroke-linecap="round" stroke-opacity="0.146" /></g><g transform="rotate(-8.75 1536.0 1536.0)"><path d="M-368.6 897.4 C -254.4 867.5, -94.4 921.0, 12.3 832.4 C 126.6 842.2, 286.6 943.1, 393.2 834.5 C 507.5 852.3, 667.5 964.9, 774.1 874.6 C 888.4 881.2, 1048.4 911.1, 1155.1 928.6 C 1269.4 934.0, 1429.3 874.7, 1536.0 963.6 C 1650.3 953.5, 1810.3 866.3, 1916.9 958.4 C 2031.2 971.5, 2191.2 834.6, 2297.9 916.2 C 2412.1 920.1, 2572.1 882.0, 2678.8 862.6 C 2793.1 852.0, 2953.1 913.2, 3059.7 830.0 C 3174.0 855.4, 3334.0 957.8, 3440.6 838.3" fill="none" stroke="url(#ribbon217)" stroke-width="50.4" stroke-linecap="round" stroke-opacity="0.172" /></g><g transform="rotate(-8.17 1536.0 1536.0)"><path d="M-368.6 1100.9 C -264.8 1034.3, -119.3 1145.6, -22.3 1110.7 C 81.5 1113.3, 227.0 1095.0, 324.0 1162.1 C 427.8 1166.3, 573.3 1041.9, 670.3 1176.4 C 774.1 1169.2, 919.6 1029.6, 1016.6 1144.8 C 1120.4 1138.6, 1265.9 1070.9, 1362.9 1086.6 C 1466.7 1081.2, 1612.2 1115.4, 1709.1 1037.0 C 1813.0 1023.7, 1958.5 1141.6, 2055.4 1026.2 C 2159.3 1029.0, 2304.8 1174.7, 2401.7 1060.6 C 2505.6 1046.0, 2651.1 1120.7, 2748.0 1119.5 C 2851.9 1121.2, 2997.4 1080.2, 3094.3 1167.1 C 3198.2 1172.1, 3343.7 1068.9, 3440.6 1174.5" fill="none" stroke="url(#ribbon217)" stroke-width="46.4" stroke-linecap="round" stroke-opacity="0.198" /></g><g transform="rotate(-7.59 1536.0 1536.0)"><path d="M-368.6 1312.7 C -273.4 1246.0, -140.1 1355.2, -51.2 1302.6 C 44.0 1304.1, 177.4 1321.0, 266.2 1365.2 C 361.5 1366.4, 494.8 1280.6, 583.7 1395.9 C 678.9 1422.1, 812.2 1261.1, 901.1 1376.1 C 996.4 1357.2, 1129.7 1279.0, 1218.6 1317.9 C 1313.8 1316.7, 1447.1 1309.9, 1536.0 1256.5 C 1631.2 1274.6, 1764.6 1359.8, 1853.4 1229.2 C 1948.7 1235.8, 2082.0 1357.7, 2170.9 1252.5 C 2266.1 1263.2, 2399.4 1374.9, 2488.3 1312.4 C 2583.6 1312.4, 2716.9 1312.9, 2805.8 1372.4 C 2901.0 1358.5, 3034.3 1245.7, 3123.2 1396.2 C 3218.4 1411.7, 3351.8 1282.2, 3440.6 1369.3" fill="none" stroke="url(#ribbon217)" stroke-width="42.4" stroke-linecap="round" stroke-opacity="0.224" /></g><g transform="rotate(-7.01 1536.0 1536.0)"><path d="M-368.6 1428.6 C -225.8 1406.4, -25.8 1446.2, 107.5 1353.4 C 250.4 1324.9, 450.4 1462.9, 583.7 1339.9 C 726.5 1363.4, 926.5 1489.5, 1059.8 1380.2 C 1202.7 1369.2, 1402.7 1467.8, 1536.0 1449.9 C 1678.8 1449.1, 1878.8 1410.8, 2012.2 1506.6 C 2155.0 1481.2, 2355.0 1383.2, 2488.3 1516.0 C 2631.2 1483.4, 2831.2 1350.1, 2964.5 1472.4 C 3107.3 1489.9, 3307.3 1402.8, 3440.6 1402.2" fill="none" stroke="url(#ribbon217)" stroke-width="38.4" stroke-linecap="round" stroke-opacity="0.250" /></g><g transform="rotate(-6.43 1536.0 1536.0)"><path d="M-368.6 1689.8 C -241.7 1780.3, -63.9 1620.7, 54.6 1693.2 C 181.6 1692.1, 359.4 1688.5, 477.9 1622.1 C 604.8 1602.2, 782.6 1723.1, 901.1 1592.1 C 1028.1 1607.4, 1205.9 1720.1, 1324.4 1621.3 C 1451.3 1624.2, 1629.1 1771.5, 1747.6 1692.0 C 1874.6 1691.3, 2052.4 1689.0, 2170.9 1761.4 C 2297.9 1734.6, 2475.6 1614.2, 2594.1 1787.3 C 2721.1 1820.5, 2898.9 1633.0, 3017.4 1754.0 C 3144.4 1751.7, 3322.1 1617.0, 3440.6 1681.8" fill="none" stroke="url(#ribbon217)" stroke-width="34.4" stroke-linecap="round" stroke-opacity="0.276" /></g><g transform="rotate(-5.85 1536.0 1536.0)"><path d="M-368.6 1826.5 C -254.4 1803.6, -94.4 1840.1, 12.3 1885.9 C 126.6 1891.9, 286.6 1777.0, 393.2 1929.8 C 507.5 1895.0, 667.5 1710.3, 774.1 1911.0 C 888.4 1902.2, 1048.4 1797.2, 1155.1 1841.0 C 1269.4 1836.0, 1429.3 1815.6, 1536.0 1762.1 C 1650.3 1762.7, 1810.3 1852.6, 1916.9 1722.4 C 2031.2 1717.1, 2191.2 1915.0, 2297.9 1745.7 C 2412.1 1724.6, 2572.1 1907.7, 2678.8 1818.1 C 2793.1 1820.9, 2953.1 1830.3, 3059.7 1895.5 C 3174.0 1890.8, 3334.0 1786.4, 3440.6 1931.1" fill="none" stroke="url(#ribbon217)" stroke-width="30.4" stroke-linecap="round" stroke-opacity="0.302" /></g><g transform="rotate(-5.27 1536.0 1536.0)"><path d="M-368.6 2119.9 C -264.8 2025.1, -119.3 2167.5, -22.3 2125.6 C 81.5 2126.5, 227.0 2116.8, 324.0 2204.0 C 427.8 2177.8, 573.3 2035.8, 670.3 2231.4 C 774.1 2203.4, 919.6 2074.8, 1016.6 2191.2 C 1120.4 2212.2, 1265.9 2043.7, 1362.9 2107.7 C 1466.7 2107.5, 1612.2 2126.0, 1709.1 2031.7 C 1813.0 2055.2, 1958.5 2158.2, 2055.4 2009.2 C 2159.3 2010.1, 2304.8 2235.9, 2401.7 2053.8 C 2505.6 2046.8, 2651.1 2151.8, 2748.0 2138.5 C 2851.9 2141.3, 2997.4 2098.1, 3094.3 2212.0 C 3198.2 2188.5, 3343.7 2032.9, 3440.6 2229.6" fill="none" stroke="url(#ribbon217)" stroke-width="26.4" stroke-linecap="round" stroke-opacity="0.328" /></g><g transform="rotate(-4.69 1536.0 1536.0)"><path d="M-368.6 2241.9 C -273.4 2180.7, -140.1 2258.8, -51.2 2128.6 C 44.0 2146.9, 177.4 2306.8, 266.2 2137.2 C 361.5 2100.0, 494.8 2359.4, 583.7 2209.4 C 678.9 2205.6, 812.2 2256.5, 901.1 2301.3 C 996.4 2304.2, 1129.7 2212.6, 1218.6 2357.2 C 1313.8 2360.8, 1447.1 2150.8, 1536.0 2343.2 C 1631.2 2358.9, 1764.6 2158.8, 1853.4 2267.7 C 1948.7 2267.0, 2082.0 2228.8, 2170.9 2176.7 C 2266.1 2163.7, 2399.4 2286.5, 2488.3 2125.2 C 2583.6 2149.2, 2716.9 2323.8, 2805.8 2144.5 C 2901.0 2149.8, 3034.3 2275.6, 3123.2 2222.9 C 3218.4 2215.9, 3351.8 2248.6, 3440.6 2312.9" fill="none" stroke="url(#ribbon217)" stroke-width="22.4" stroke-linecap="round" stroke-opacity="0.354" /></g><g transform="rotate(-4.11 1536.0 1536.0)"><path d="M-368.6 2496.7 C -225.8 2580.1, -25.8 2406.7, 107.5 2581.1 C 250.4 2567.4, 450.4 2466.7, 583.7 2488.4 C 726.5 2490.4, 926.5 2504.9, 1059.8 2400.8 C 1202.7 2396.2, 1402.7 2554.9, 1536.0 2371.3 C 1678.8 2392.5, 1878.8 2571.2, 2012.2 2417.9 C 2155.0 2449.1, 2355.0 2552.6, 2488.3 2512.3 C 2631.2 2510.8, 2831.2 2481.3, 2964.5 2597.2 C 3107.3 2574.0, 3307.3 2447.6, 3440.6 2621.2" fill="none" stroke="url(#ribbon217)" stroke-width="18.4" stroke-linecap="round" stroke-opacity="0.380" /></g><g transform="rotate(-3.53 1536.0 1536.0)"><path d="M-368.6 2710.9 C -241.7 2668.4, -63.9 2756.0, 54.6 2766.5 C 181.6 2776.3, 359.4 2664.9, 477.9 2836.3 C 604.8 2860.3, 782.6 2563.7, 901.1 2830.1 C 1028.1 2783.9, 1205.9 2614.8, 1324.4 2751.5 C 1451.3 2760.9, 1629.1 2688.2, 1747.6 2648.3 C 1874.6 2634.5, 2052.4 2782.4, 2170.9 2583.1 C 2297.9 2615.0, 2475.6 2841.6, 2594.1 2595.4 C 2721.1 2606.7, 2898.9 2778.4, 3017.4 2677.7 C 3144.4 2690.4, 3322.1 2743.3, 3440.6 2780.2" fill="none" stroke="url(#ribbon217)" stroke-width="14.4" stroke-linecap="round" stroke-opacity="0.406" /></g></g>
  <g><ellipse cx="1536.0" cy="1551.9" rx="728.6" ry="605.7" fill="url(#extrude217)" opacity="0.220" /><ellipse cx="1536.0" cy="1567.7" rx="736.0" ry="610.9" fill="url(#extrude217)" opacity="0.205" /><ellipse cx="1536.0" cy="1583.6" rx="743.4" ry="616.1" fill="url(#extrude217)" opacity="0.190" /><ellipse cx="1536.0" cy="1599.5" rx="750.9" ry="621.3" fill="url(#extrude217)" opacity="0.175" /><ellipse cx="1536.0" cy="1615.4" rx="758.3" ry="626.5" fill="url(#extrude217)" opacity="0.160" /><ellipse cx="1536.0" cy="1631.2" rx="765.7" ry="631.7" fill="url(#extrude217)" opacity="0.145" /><ellipse cx="1536.0" cy="1647.1" rx="773.2" ry="636.9" fill="url(#extrude217)" opacity="0.130" /><ellipse cx="1536.0" cy="1663.0" rx="780.6" ry="642.1" fill="url(#extrude217)" opacity="0.115" /><ellipse cx="1536.0" cy="1678.8" rx="788.0" ry="647.4" fill="url(#extrude217)" opacity="0.100" /><ellipse cx="1536.0" cy="1694.7" rx="795.5" ry="652.6" fill="url(#extrude217)" opacity="0.085" /><ellipse cx="1536.0" cy="1710.6" rx="802.9" ry="657.8" fill="url(#extrude217)" opacity="0.070" /><ellipse cx="1536.0" cy="1726.5" rx="810.3" ry="663.0" fill="url(#extrude217)" opacity="0.055" /></g>
  <ellipse cx="1536.0" cy="1726.5" rx="773.2" ry="214.9" fill="#0B1D2D" opacity="0.24" />
  <ellipse cx="1536.0" cy="1536.0" rx="743.4" ry="651.3" fill="url(#orb217)" stroke="#FFFFFF" stroke-opacity="0.42" stroke-width="7" />
  <ellipse cx="1431.9" cy="1392.7" rx="505.5" ry="299.6" fill="#FFFFFF" opacity="0.25" />
  <path d="M 199.4 399.4 C 1013.8 -30.7, 2058.2 768.0, 2872.6 215.0 L 2872.6 983.0 C 2089.0 1228.8, 1013.8 307.2, 199.4 1167.4 Z" fill="url(#glass217)" />
  <rect x="270" y="270" width="2532" height="2532" rx="430" fill="none" stroke="#FFFFFF" stroke-opacity="0.30" stroke-width="5" />
  <rect x="288.4" y="288.4" width="2495.1" height="2495.1" rx="399" fill="none" stroke="#36D1FF" stroke-opacity="0.35" stroke-width="3" />
  <g filter="url(#soft217)"><rect x="1415" y="645" width="28" height="2" fill="#FFFFFF" opacity="0.446" /><rect x="1428" y="632" width="2" height="28" fill="#FFFFFF" opacity="0.446" /><rect x="813" y="301" width="68" height="2" fill="#FFFFFF" opacity="0.728" /><rect x="846" y="268" width="2" height="68" fill="#FFFFFF" opacity="0.728" /><rect x="1460" y="2588" width="78" height="2" fill="#FFFFFF" opacity="0.528" /><rect x="1498" y="2550" width="2" height="78" fill="#FFFFFF" opacity="0.528" /><rect x="1193" y="1067" width="42" height="2" fill="#FFFFFF" opacity="0.786" /><rect x="1213" y="1047" width="2" height="42" fill="#FFFFFF" opacity="0.786" /><rect x="1611" y="1042" width="62" height="2" fill="#FFFFFF" opacity="0.704" /><rect x="1641" y="1012" width="2" height="62" fill="#FFFFFF" opacity="0.704" /><rect x="1412" y="614" width="62" height="2" fill="#FFFFFF" opacity="0.327" /><rect x="1442" y="584" width="2" height="62" fill="#FFFFFF" opacity="0.327" /><rect x="2440" y="557" width="40" height="2" fill="#FFFFFF" opacity="0.789" /><rect x="2459" y="538" width="2" height="40" fill="#FFFFFF" opacity="0.789" /><rect x="1801" y="1343" width="26" height="2" fill="#FFFFFF" opacity="0.354" /><rect x="1813" y="1331" width="2" height="26" fill="#FFFFFF" opacity="0.354" /><rect x="1434" y="1665" width="64" height="2" fill="#FFFFFF" opacity="0.445" /><rect x="1465" y="1634" width="2" height="64" fill="#FFFFFF" opacity="0.445" /><rect x="1869" y="880" width="38" height="2" fill="#FFFFFF" opacity="0.807" /><rect x="1887" y="862" width="2" height="38" fill="#FFFFFF" opacity="0.807" /><rect x="2564" y="827" width="26" height="2" fill="#FFFFFF" opacity="0.492" /><rect x="2576" y="815" width="2" height="26" fill="#FFFFFF" opacity="0.492" /><rect x="2490" y="610" width="36" height="2" fill="#FFFFFF" opacity="0.573" /><rect x="2507" y="593" width="2" height="36" fill="#FFFFFF" opacity="0.573" /><rect x="1788" y="1243" width="80" height="2" fill="#FFFFFF" opacity="0.804" /><rect x="1827" y="1204" width="2" height="80" fill="#FFFFFF" opacity="0.804" /><rect x="1660" y="2387" width="44" height="2" fill="#FFFFFF" opacity="0.701" /><rect x="1681" y="2366" width="2" height="44" fill="#FFFFFF" opacity="0.701" /><rect x="2180" y="1778" width="76" height="2" fill="#FFFFFF" opacity="0.305" /><rect x="2217" y="1741" width="2" height="76" fill="#FFFFFF" opacity="0.305" /><rect x="1910" y="1008" width="62" height="2" fill="#FFFFFF" opacity="0.356" /><rect x="1940" y="978" width="2" height="62" fill="#FFFFFF" opacity="0.356" /><rect x="2234" y="1786" width="52" height="2" fill="#FFFFFF" opacity="0.717" /><rect x="2259" y="1761" width="2" height="52" fill="#FFFFFF" opacity="0.717" /><rect x="1457" y="2654" width="68" height="2" fill="#FFFFFF" opacity="0.373" /><rect x="1490" y="2621" width="2" height="68" fill="#FFFFFF" opacity="0.373" /><rect x="1043" y="1687" width="42" height="2" fill="#FFFFFF" opacity="0.843" /><rect x="1063" y="1667" width="2" height="42" fill="#FFFFFF" opacity="0.843" /><rect x="1871" y="1301" width="42" height="2" fill="#FFFFFF" opacity="0.664" /><rect x="1891" y="1281" width="2" height="42" fill="#FFFFFF" opacity="0.664" /><rect x="2276" y="1811" width="80" height="2" fill="#FFFFFF" opacity="0.664" /><rect x="2315" y="1772" width="2" height="80" fill="#FFFFFF" opacity="0.664" /><rect x="2019" y="1259" width="44" height="2" fill="#FFFFFF" opacity="0.810" /><rect x="2040" y="1238" width="2" height="44" fill="#FFFFFF" opacity="0.810" /><rect x="2033" y="2029" width="24" height="2" fill="#FFFFFF" opacity="0.365" /><rect x="2044" y="2018" width="2" height="24" fill="#FFFFFF" opacity="0.365" /><rect x="1104" y="2709" width="50" height="2" fill="#FFFFFF" opacity="0.561" /><rect x="1128" y="2685" width="2" height="50" fill="#FFFFFF" opacity="0.561" /><rect x="447" y="2171" width="50" height="2" fill="#FFFFFF" opacity="0.369" /><rect x="471" y="2147" width="2" height="50" fill="#FFFFFF" opacity="0.369" /><rect x="476" y="629" width="44" height="2" fill="#FFFFFF" opacity="0.774" /><rect x="497" y="608" width="2" height="44" fill="#FFFFFF" opacity="0.774" /></g>
  <g opacity="0.52"><rect x="1023" y="1070" width="768" height="768" rx="128" fill="none" stroke="#0C2030" stroke-width="90" /><path d="M1023 1582 L1572 1363 L2121 1582 L1572 2094 Z" fill="none" stroke="#0C2030" stroke-width="90" stroke-linejoin="round" /></g>
  <g filter="url(#soft217)"><rect x="987" y="1024" width="768" height="768" rx="128" fill="none" stroke="url(#symbol217)" stroke-width="90" /><path d="M987 1536 L1536 1317 L2085 1536 L1536 2048 Z" fill="none" stroke="url(#symbol217)" stroke-width="90" stroke-linejoin="round" /></g>
  <rect x="138" y="138" width="2796" height="2796" rx="629" fill="#FFFFFF" filter="url(#grain217)" opacity="0.18" />
</svg>
