<svg xmlns="http://www.w3.org/2000/svg" width="3072" height="3072" viewBox="0 0 3072 3072">
  <title>QuartzOS App Icon 358 - vector_designer_358</title>
  <defs><linearGradient id="bg357" x1="0%" y1="0%" x2="100%" y2="100%"><stop offset="0%" stop-color="#36D1FF" /><stop offset="26%" stop-color="#8A5CFF" /><stop offset="56%" stop-color="#FF9F43" /><stop offset="78%" stop-color="#4F79A7" /><stop offset="100%" stop-color="#1B2630" /></linearGradient><radialGradient id="sun357" cx="25%" cy="37%" r="88%"><stop offset="0%" stop-color="#FFFFFF" stop-opacity="0.62" /><stop offset="30%" stop-color="#FFD84D" stop-opacity="0.35" /><stop offset="100%" stop-color="#FFD84D" stop-opacity="0" /></radialGradient><linearGradient id="glass357" x1="0%" y1="0%" x2="0%" y2="100%"><stop offset="0%" stop-color="#FFFFFF" stop-opacity="0.70" /><stop offset="46%" stop-color="#FFFFFF" stop-opacity="0.26" /><stop offset="100%" stop-color="#FFFFFF" stop-opacity="0.00" /></linearGradient><linearGradient id="ribbon357" x1="0%" y1="0%" x2="100%" y2="0%"><stop offset="0%" stop-color="#36D1FF" stop-opacity="0.18" /><stop offset="34%" stop-color="#8A5CFF" stop-opacity="0.72" /><stop offset="66%" stop-color="#FF9F43" stop-opacity="0.72" /><stop offset="100%" stop-color="#FFD84D" stop-opacity="0.18" /></linearGradient><radialGradient id="orb357" cx="34%" cy="27%" r="74%"><stop offset="0%" stop-color="#FFFFFF" stop-opacity="0.84" /><stop offset="30%" stop-color="#36D1FF" stop-opacity="0.52" /><stop offset="68%" stop-color="#8A5CFF" stop-opacity="0.42" /><stop offset="100%" stop-color="#FF9F43" stop-opacity="0.20" /></radialGradient><linearGradient id="extrude357" x1="0%" y1="0%" x2="0%" y2="100%"><stop offset="0%" stop-color="#15283C" stop-opacity="0.45" /><stop offset="100%" stop-color="#08131D" stop-opacity="0.06" /></linearGradient><linearGradient id="symbol357" x1="0%" y1="0%" x2="100%" y2="100%"><stop offset="0%" stop-color="#FFFFFF" /><stop offset="100%" stop-color="#FFD84D" /></linearGradient><filter id="shadow357" x="-40%" y="-40%" width="180%" height="180%"><feDropShadow dx="0" dy="49" stdDeviation="86" flood-color="#06111A" flood-opacity="0.54" /></filter><filter id="soft357" x="-40%" y="-40%" width="180%" height="180%"><feDropShadow dx="0" dy="0" stdDeviation="14" flood-color="#36D1FF" flood-opacity="0.45" /></filter><filter id="grain357"><feTurbulence type="fractalNoise" baseFrequency="1.047" numOctaves="2" seed="357" /><feColorMatrix type="saturate" values="0" /><feComponentTransfer><feFuncA type="table" tableValues="0 0.09" /></feComponentTransfer></filter></defs>
  <rect x="138" y="138" width="2796" height="2796" rx="629" fill="url(#bg357)" filter="url(#shadow357)" />
  <rect x="138" y="138" width="2796" height="2796" rx="629" fill="url(#sun357)" />
  <g><circle cx="828" cy="1613" r="140" fill="#FFFFFF" opacity="0.119" /><circle cx="2254" cy="1389" r="41" fill="#FFFFFF" opacity="0.205" /><circle cx="2324" cy="1848" r="115" fill="#FFFFFF" opacity="0.145" /><circle cx="1610" cy="588" r="114" fill="#FFFFFF" opacity="0.215" /><circle cx="440" cy="2387" r="90" fill="#FFFFFF" opacity="0.163" /><circle cx="2617" cy="1048" r="120" fill="#FFFFFF" opacity="0.157" /><circle cx="2227" cy="329" r="120" fill="#FFFFFF" opacity="0.133" /><circle cx="1274" cy="1824" r="151" fill="#FFFFFF" opacity="0.107" /><circle cx="1433" cy="847" r="125" fill="#FFFFFF" opacity="0.195" /><circle cx="2485" cy="861" r="120" fill="#FFFFFF" opacity="0.124" /><circle cx="916" cy="2443" r="137" fill="#FFFFFF" opacity="0.114" /><circle cx="1398" cy="2481" r="90" fill="#FFFFFF" opacity="0.145" /><circle cx="781" cy="1521" r="150" fill="#FFFFFF" opacity="0.089" /><circle cx="507" cy="1066" r="81" fill="#FFFFFF" opacity="0.177" /><circle cx="1243" cy="1901" r="77" fill="#FFFFFF" opacity="0.221" /><circle cx="1788" cy="831" r="105" fill="#FFFFFF" opacity="0.212" /><circle cx="1561" cy="518" r="46" fill="#FFFFFF" opacity="0.083" /><circle cx="1911" cy="2202" r="57" fill="#FFFFFF" opacity="0.082" /><circle cx="2024" cy="2035" r="63" fill="#FFFFFF" opacity="0.191" /><circle cx="2185" cy="320" r="67" fill="#FFFFFF" opacity="0.116" /><circle cx="2010" cy="2445" r="139" fill="#FFFFFF" opacity="0.159" /><circle cx="554" cy="470" r="99" fill="#FFFFFF" opacity="0.117" /><circle cx="1099" cy="1580" r="157" fill="#FFFFFF" opacity="0.189" /><circle cx="667" cy="2518" r="136" fill="#FFFFFF" opacity="0.226" /><circle cx="922" cy="1394" r="71" fill="#FFFFFF" opacity="0.148" /><circle cx="665" cy="2255" r="103" fill="#FFFFFF" opacity="0.095" /><circle cx="734" cy="2000" r="96" fill="#FFFFFF" opacity="0.185" /><circle cx="1376" cy="2488" r="126" fill="#FFFFFF" opacity="0.139" /></g>
  <g><path d="M 387.5 582.1 L 2861.1 305.6 L 2861.1 779.9 L 387.5 1056.4 Z" fill="#FFFFFF" opacity="0.139" /><path d="M 151.2 829.8 L 2851.9 553.3 L 2851.9 1004.6 L 151.2 1281.1 Z" fill="#FFFFFF" opacity="0.090" /><path d="M 147.3 1158.5 L 2771.5 882.1 L 2771.5 1319.9 L 147.3 1596.4 Z" fill="#FFFFFF" opacity="0.152" /><path d="M 230.4 1432.3 L 2779.4 1155.9 L 2779.4 1622.9 L 230.4 1899.3 Z" fill="#FFFFFF" opacity="0.120" /><path d="M 391.4 1653.4 L 2693.6 1377.0 L 2693.6 1820.0 L 391.4 2096.5 Z" fill="#FFFFFF" opacity="0.208" /><path d="M 325.0 1937.3 L 2685.3 1660.8 L 2685.3 2148.1 L 325.0 2424.6 Z" fill="#FFFFFF" opacity="0.182" /><path d="M 163.5 2157.2 L 2896.2 1880.7 L 2896.2 2337.1 L 163.5 2613.6 Z" fill="#FFFFFF" opacity="0.107" /><path d="M 234.3 2396.2 L 2821.1 2119.7 L 2821.1 2617.2 L 234.3 2893.7 Z" fill="#FFFFFF" opacity="0.179" /></g>
  <g filter="url(#soft357)"><g transform="rotate(-7.36 1536.0 1536.0)"><path d="M-368.6 582.3 C -225.8 646.0, -25.8 549.7, 107.5 631.7 C 250.4 620.8, 450.4 525.2, 583.7 598.9 C 726.5 595.4, 926.5 572.1, 1059.8 556.0 C 1202.7 549.7, 1402.7 598.5, 1536.0 529.1 C 1678.8 540.6, 1878.8 637.3, 2012.2 534.4 C 2155.0 551.7, 2355.0 604.2, 2488.3 568.7 C 2631.2 564.9, 2831.2 588.7, 2964.5 611.3 C 3107.3 617.6, 3307.3 560.4, 3440.6 636.3" fill="none" stroke="url(#ribbon357)" stroke-width="58.4" stroke-linecap="round" stroke-opacity="0.120" /></g><g transform="rotate(-6.78 1536.0 1536.0)"><path d="M-368.6 708.6 C -241.7 764.1, -63.9 657.7, 54.6 770.7 C 181.6 772.7, 359.4 684.4, 477.9 747.7 C 604.8 759.9, 782.6 675.4, 901.1 700.9 C 1028.1 702.9, 1205.9 714.7, 1324.4 658.9 C 1451.3 668.4, 1629.1 757.6, 1747.6 647.0 C 1874.6 647.0, 2052.4 728.0, 2170.9 672.5 C 2297.9 678.6, 2475.6 732.2, 2594.1 720.0 C 2721.1 724.1, 2898.9 698.5, 3017.4 760.5 C 3144.4 755.6, 3322.1 670.8, 3440.6 769.6" fill="none" stroke="url(#ribbon357)" stroke-width="54.4" stroke-linecap="round" stroke-opacity="0.146" /></g><g transform="rotate(-6.20 1536.0 1536.0)"><path d="M-368.6 929.4 C -254.4 890.2, -94.4 974.9, 12.3 859.9 C 126.6 853.3, 286.6 984.2, 393.2 881.4 C 507.5 873.6, 667.5 967.6, 774.1 931.9 C 888.4 932.5, 1048.4 928.1, 1155.1 980.9 C 1269.4 973.7, 1429.3 875.4, 1536.0 998.6 C 1650.3 1001.7, 1810.3 855.0, 1916.9 974.4 C 2031.2 962.9, 2191.2 901.4, 2297.9 922.8 C 2412.1 923.6, 2572.1 936.2, 2678.8 875.2 C 2793.1 877.3, 2953.1 970.4, 3059.7 860.5 C 3174.0 866.1, 3334.0 980.8, 3440.6 887.5" fill="none" stroke="url(#ribbon357)" stroke-width="50.4" stroke-linecap="round" stroke-opacity="0.172" /></g><g transform="rotate(-5.62 1536.0 1536.0)"><path d="M-368.6 1107.9 C -264.8 1040.3, -119.3 1178.2, -22.3 1078.6 C 81.5 1085.0, 227.0 1138.3, 324.0 1138.2 C 427.8 1134.4, 573.3 1086.8, 670.3 1179.4 C 774.1 1195.1, 919.6 1028.2, 1016.6 1177.3 C 1120.4 1203.5, 1265.9 1065.0, 1362.9 1133.1 C 1466.7 1126.1, 1612.2 1081.4, 1709.1 1073.7 C 1813.0 1087.0, 1958.5 1148.9, 2055.4 1035.0 C 2159.3 1023.2, 2304.8 1133.1, 2401.7 1040.6 C 2505.6 1020.0, 2651.1 1132.0, 2748.0 1087.0 C 2851.9 1078.8, 2997.4 1117.5, 3094.3 1146.1 C 3198.2 1157.3, 3343.7 1088.4, 3440.6 1182.1" fill="none" stroke="url(#ribbon357)" stroke-width="46.4" stroke-linecap="round" stroke-opacity="0.198" /></g><g transform="rotate(-5.04 1536.0 1536.0)"><path d="M-368.6 1309.5 C -273.4 1365.3, -140.1 1219.3, -51.2 1381.6 C 44.0 1363.4, 177.4 1271.8, 266.2 1329.4 C 361.5 1324.4, 494.8 1287.6, 583.7 1265.1 C 678.9 1250.2, 812.2 1357.5, 901.1 1227.8 C 996.4 1250.1, 1129.7 1348.8, 1218.6 1240.1 C 1313.8 1250.4, 1447.1 1355.7, 1536.0 1294.5 C 1631.2 1292.7, 1764.6 1320.2, 1853.4 1358.0 C 1948.7 1376.3, 2082.0 1259.3, 2170.9 1392.1 C 2266.1 1366.4, 2399.4 1243.3, 2488.3 1376.2 C 2583.6 1383.2, 2716.9 1237.7, 2805.8 1319.8 C 2901.0 1318.9, 3034.3 1300.8, 3123.2 1257.2 C 3218.4 1244.3, 3351.8 1360.0, 3440.6 1226.3" fill="none" stroke="url(#ribbon357)" stroke-width="42.4" stroke-linecap="round" stroke-opacity="0.224" /></g><g transform="rotate(-4.46 1536.0 1536.0)"><path d="M-368.6 1468.2 C -225.8 1567.9, -25.8 1405.6, 107.5 1514.5 C 250.4 1524.3, 450.4 1452.3, 583.7 1444.6 C 726.5 1452.8, 926.5 1487.8, 1059.8 1389.0 C 1202.7 1381.8, 1402.7 1494.5, 1536.0 1381.4 C 1678.8 1356.0, 1878.8 1508.0, 2012.2 1426.5 C 2155.0 1427.5, 2355.0 1498.1, 2488.3 1496.8 C 2631.2 1506.3, 2831.2 1437.7, 2964.5 1549.8 C 3107.3 1518.8, 3307.3 1387.0, 3440.6 1553.3" fill="none" stroke="url(#ribbon357)" stroke-width="38.4" stroke-linecap="round" stroke-opacity="0.250" /></g><g transform="rotate(-3.88 1536.0 1536.0)"><path d="M-368.6 1663.6 C -241.7 1628.9, -63.9 1674.7, 54.6 1573.1 C 181.6 1605.2, 359.4 1730.7, 477.9 1574.2 C 604.8 1598.2, 782.6 1696.6, 901.1 1629.4 C 1028.1 1626.2, 1205.9 1700.4, 1324.4 1705.5 C 1451.3 1693.2, 1629.1 1615.9, 1747.6 1756.1 C 1874.6 1777.7, 2052.4 1562.4, 2170.9 1750.6 C 2297.9 1721.7, 2475.6 1579.1, 2594.1 1692.4 C 2721.1 1692.8, 2898.9 1653.8, 3017.4 1616.7 C 3144.4 1615.4, 3322.1 1705.3, 3440.6 1569.4" fill="none" stroke="url(#ribbon357)" stroke-width="34.4" stroke-linecap="round" stroke-opacity="0.276" /></g><g transform="rotate(-3.30 1536.0 1536.0)"><path d="M-368.6 1833.5 C -254.4 1912.0, -94.4 1772.2, 12.3 1820.4 C 126.6 1825.2, 286.6 1844.5, 393.2 1749.8 C 507.5 1745.1, 667.5 1860.3, 774.1 1730.0 C 888.4 1766.7, 1048.4 1945.5, 1155.1 1773.0 C 1269.4 1795.0, 1429.3 1865.7, 1536.0 1852.7 C 1650.3 1850.5, 1810.3 1825.5, 1916.9 1920.8 C 2031.2 1899.5, 2191.2 1729.5, 2297.9 1935.9 C 2412.1 1946.6, 2572.1 1719.0, 2678.8 1888.9 C 2793.1 1883.0, 2953.1 1787.9, 3059.7 1808.4 C 3174.0 1802.6, 3334.0 1860.4, 3440.6 1743.1" fill="none" stroke="url(#ribbon357)" stroke-width="30.4" stroke-linecap="round" stroke-opacity="0.302" /></g><g transform="rotate(-2.72 1536.0 1536.0)"><path d="M-368.6 2131.0 C -264.8 2097.8, -119.3 2171.1, -22.3 2030.6 C 81.5 2010.9, 227.0 2218.0, 324.0 2025.7 C 427.8 1984.4, 573.3 2235.2, 670.3 2084.6 C 774.1 2090.2, 919.6 2186.0, 1016.6 2171.7 C 1120.4 2186.6, 1265.9 2111.6, 1362.9 2234.0 C 1466.7 2240.3, 1612.2 2075.2, 1709.1 2233.9 C 1813.0 2195.7, 1958.5 2030.7, 2055.4 2171.3 C 2159.3 2161.4, 2304.8 2102.1, 2401.7 2084.2 C 2505.6 2069.3, 2651.1 2155.8, 2748.0 2025.5 C 2851.9 1994.4, 2997.4 2235.2, 3094.3 2030.8 C 3198.2 2017.1, 3343.7 2198.9, 3440.6 2096.8" fill="none" stroke="url(#ribbon357)" stroke-width="26.4" stroke-linecap="round" stroke-opacity="0.328" /></g><g transform="rotate(-2.14 1536.0 1536.0)"><path d="M-368.6 2239.1 C -273.4 2147.6, -140.1 2311.4, -51.2 2255.0 C 44.0 2249.7, 177.4 2226.0, 266.2 2334.7 C 361.5 2341.4, 494.8 2139.9, 583.7 2356.4 C 678.9 2321.2, 812.2 2188.0, 901.1 2306.9 C 996.4 2311.6, 1129.7 2179.8, 1218.6 2216.3 C 1313.8 2215.9, 1447.1 2255.4, 1536.0 2139.5 C 1631.2 2117.9, 1764.6 2349.9, 1853.4 2123.1 C 1948.7 2144.4, 2082.0 2332.9, 2170.9 2177.1 C 2266.1 2195.6, 2399.4 2273.8, 2488.3 2268.6 C 2583.6 2263.5, 2716.9 2206.9, 2805.8 2342.3 C 2901.0 2376.5, 3034.3 2129.2, 3123.2 2353.3 C 3218.4 2347.9, 3351.8 2127.0, 3440.6 2295.1" fill="none" stroke="url(#ribbon357)" stroke-width="22.4" stroke-linecap="round" stroke-opacity="0.354" /></g><g transform="rotate(-1.56 1536.0 1536.0)"><path d="M-368.6 2396.6 C -225.8 2356.3, -25.8 2427.9, 107.5 2286.4 C 250.4 2253.3, 450.4 2447.5, 583.7 2276.0 C 726.5 2228.0, 926.5 2515.7, 1059.8 2338.7 C 1202.7 2351.7, 1402.7 2436.7, 1536.0 2436.5 C 1678.8 2447.0, 1878.8 2370.5, 2012.2 2510.1 C 2155.0 2485.2, 2355.0 2292.2, 2488.3 2514.8 C 2631.2 2474.7, 2831.2 2308.5, 2964.5 2447.8 C 3107.3 2428.2, 3307.3 2344.2, 3440.6 2349.7" fill="none" stroke="url(#ribbon357)" stroke-width="18.4" stroke-linecap="round" stroke-opacity="0.380" /></g><g transform="rotate(-0.98 1536.0 1536.0)"><path d="M-368.6 2622.9 C -241.7 2710.8, -63.9 2590.6, 54.6 2752.7 C 181.6 2727.4, 359.4 2528.0, 477.9 2734.3 C 604.8 2760.0, 782.6 2523.1, 901.1 2648.4 C 1028.1 2642.2, 1205.9 2603.2, 1324.4 2547.0 C 1451.3 2545.4, 1629.1 2649.3, 1747.6 2491.7 C 1874.6 2460.3, 2052.4 2774.9, 2170.9 2516.0 C 2297.9 2477.4, 2475.6 2698.4, 2594.1 2605.2 C 2721.1 2602.2, 2898.9 2642.7, 3017.4 2705.1 C 3144.4 2726.0, 3322.1 2552.3, 3440.6 2755.2" fill="none" stroke="url(#ribbon357)" stroke-width="14.4" stroke-linecap="round" stroke-opacity="0.406" /></g></g>
  <g><ellipse cx="1536.0" cy="1551.9" rx="728.6" ry="605.7" fill="url(#extrude357)" opacity="0.220" /><ellipse cx="1536.0" cy="1567.7" rx="736.0" ry="610.9" fill="url(#extrude357)" opacity="0.205" /><ellipse cx="1536.0" cy="1583.6" rx="743.4" ry="616.1" fill="url(#extrude357)" opacity="0.190" /><ellipse cx="1536.0" cy="1599.5" rx="750.9" ry="621.3" fill="url(#extrude357)" opacity="0.175" /><ellipse cx="1536.0" cy="1615.4" rx="758.3" ry="626.5" fill="url(#extrude357)" opacity="0.160" /><ellipse cx="1536.0" cy="1631.2" rx="765.7" ry="631.7" fill="url(#extrude357)" opacity="0.145" /><ellipse cx="1536.0" cy="1647.1" rx="773.2" ry="636.9" fill="url(#extrude357)" opacity="0.130" /><ellipse cx="1536.0" cy="1663.0" rx="780.6" ry="642.1" fill="url(#extrude357)" opacity="0.115" /><ellipse cx="1536.0" cy="1678.8" rx="788.0" ry="647.4" fill="url(#extrude357)" opacity="0.100" /><ellipse cx="1536.0" cy="1694.7" rx="795.5" ry="652.6" fill="url(#extrude357)" opacity="0.085" /><ellipse cx="1536.0" cy="1710.6" rx="802.9" ry="657.8" fill="url(#extrude357)" opacity="0.070" /><ellipse cx="1536.0" cy="1726.5" rx="810.3" ry="663.0" fill="url(#extrude357)" opacity="0.055" /></g>
  <ellipse cx="1536.0" cy="1726.5" rx="773.2" ry="214.9" fill="#0B1D2D" opacity="0.24" />
  <ellipse cx="1536.0" cy="1536.0" rx="743.4" ry="651.3" fill="url(#orb357)" stroke="#FFFFFF" stroke-opacity="0.42" stroke-width="7" />
  <ellipse cx="1431.9" cy="1392.7" rx="505.5" ry="299.6" fill="#FFFFFF" opacity="0.25" />
  <path d="M 199.4 399.4 C 1013.8 -30.7, 2058.2 768.0, 2872.6 215.0 L 2872.6 983.0 C 2089.0 1228.8, 1013.8 307.2, 199.4 1167.4 Z" fill="url(#glass357)" />
  <rect x="270" y="270" width="2532" height="2532" rx="430" fill="none" stroke="#FFFFFF" stroke-opacity="0.30" stroke-width="5" />
  <rect x="288.4" y="288.4" width="2495.1" height="2495.1" rx="399" fill="none" stroke="#36D1FF" stroke-opacity="0.35" stroke-width="3" />
  <g filter="url(#soft357)"><rect x="1418" y="833" width="24" height="2" fill="#FFFFFF" opacity="0.316" /><rect x="1429" y="822" width="2" height="24" fill="#FFFFFF" opacity="0.316" /><rect x="910" y="696" width="66" height="2" fill="#FFFFFF" opacity="0.490" /><rect x="942" y="664" width="2" height="66" fill="#FFFFFF" opacity="0.490" /><rect x="2240" y="1300" width="60" height="2" fill="#FFFFFF" opacity="0.593" /><rect x="2269" y="1271" width="2" height="60" fill="#FFFFFF" opacity="0.593" /><rect x="1526" y="1969" width="48" height="2" fill="#FFFFFF" opacity="0.737" /><rect x="1549" y="1946" width="2" height="48" fill="#FFFFFF" opacity="0.737" /><rect x="648" y="1252" width="60" height="2" fill="#FFFFFF" opacity="0.308" /><rect x="677" y="1223" width="2" height="60" fill="#FFFFFF" opacity="0.308" /><rect x="2288" y="351" width="54" height="2" fill="#FFFFFF" opacity="0.557" /><rect x="2314" y="325" width="2" height="54" fill="#FFFFFF" opacity="0.557" /><rect x="659" y="698" width="44" height="2" fill="#FFFFFF" opacity="0.804" /><rect x="680" y="677" width="2" height="44" fill="#FFFFFF" opacity="0.804" /><rect x="859" y="1229" width="60" height="2" fill="#FFFFFF" opacity="0.523" /><rect x="888" y="1200" width="2" height="60" fill="#FFFFFF" opacity="0.523" /><rect x="1989" y="1533" width="76" height="2" fill="#FFFFFF" opacity="0.484" /><rect x="2026" y="1496" width="2" height="76" fill="#FFFFFF" opacity="0.484" /><rect x="647" y="2579" width="66" height="2" fill="#FFFFFF" opacity="0.646" /><rect x="679" y="2547" width="2" height="66" fill="#FFFFFF" opacity="0.646" /><rect x="1704" y="2367" width="34" height="2" fill="#FFFFFF" opacity="0.362" /><rect x="1720" y="2351" width="2" height="34" fill="#FFFFFF" opacity="0.362" /><rect x="1096" y="2153" width="84" height="2" fill="#FFFFFF" opacity="0.506" /><rect x="1137" y="2112" width="2" height="84" fill="#FFFFFF" opacity="0.506" /><rect x="1989" y="1695" width="68" height="2" fill="#FFFFFF" opacity="0.708" /><rect x="2022" y="1662" width="2" height="68" fill="#FFFFFF" opacity="0.708" /><rect x="2033" y="419" width="32" height="2" fill="#FFFFFF" opacity="0.388" /><rect x="2048" y="404" width="2" height="32" fill="#FFFFFF" opacity="0.388" /><rect x="2187" y="1863" width="72" height="2" fill="#FFFFFF" opacity="0.342" /><rect x="2222" y="1828" width="2" height="72" fill="#FFFFFF" opacity="0.342" /><rect x="1657" y="1763" width="62" height="2" fill="#FFFFFF" opacity="0.657" /><rect x="1687" y="1733" width="2" height="62" fill="#FFFFFF" opacity="0.657" /><rect x="1876" y="1217" width="80" height="2" fill="#FFFFFF" opacity="0.769" /><rect x="1915" y="1178" width="2" height="80" fill="#FFFFFF" opacity="0.769" /><rect x="1399" y="1369" width="72" height="2" fill="#FFFFFF" opacity="0.481" /><rect x="1434" y="1334" width="2" height="72" fill="#FFFFFF" opacity="0.481" /><rect x="623" y="2157" width="60" height="2" fill="#FFFFFF" opacity="0.317" /><rect x="652" y="2128" width="2" height="60" fill="#FFFFFF" opacity="0.317" /><rect x="1696" y="595" width="42" height="2" fill="#FFFFFF" opacity="0.308" /><rect x="1716" y="575" width="2" height="42" fill="#FFFFFF" opacity="0.308" /><rect x="1487" y="2345" width="76" height="2" fill="#FFFFFF" opacity="0.820" /><rect x="1524" y="2308" width="2" height="76" fill="#FFFFFF" opacity="0.820" /><rect x="1870" y="461" width="66" height="2" fill="#FFFFFF" opacity="0.381" /><rect x="1902" y="429" width="2" height="66" fill="#FFFFFF" opacity="0.381" /><rect x="1014" y="1819" width="78" height="2" fill="#FFFFFF" opacity="0.449" /><rect x="1052" y="1781" width="2" height="78" fill="#FFFFFF" opacity="0.449" /><rect x="1576" y="969" width="54" height="2" fill="#FFFFFF" opacity="0.804" /><rect x="1602" y="943" width="2" height="54" fill="#FFFFFF" opacity="0.804" /><rect x="609" y="806" width="78" height="2" fill="#FFFFFF" opacity="0.733" /><rect x="647" y="768" width="2" height="78" fill="#FFFFFF" opacity="0.733" /><rect x="855" y="1202" width="36" height="2" fill="#FFFFFF" opacity="0.404" /><rect x="872" y="1185" width="2" height="36" fill="#FFFFFF" opacity="0.404" /></g>
  <g opacity="0.52"><rect x="1060" y="1070" width="1024" height="1024" rx="153" fill="none" stroke="#0C2030" stroke-width="90" /><line x1="1316" y1="1326" x2="1828" y2="1838" stroke="#0C2030" stroke-width="90" stroke-linecap="round" /><line x1="1828" y1="1326" x2="1316" y2="1838" stroke="#0C2030" stroke-width="90" stroke-linecap="round" /></g>
  <g filter="url(#soft357)"><rect x="1024" y="1024" width="1024" height="1024" rx="153" fill="none" stroke="url(#symbol357)" stroke-width="90" /><line x1="1280" y1="1280" x2="1792" y2="1792" stroke="url(#symbol357)" stroke-width="90" stroke-linecap="round" /><line x1="1792" y1="1280" x2="1280" y2="1792" stroke="url(#symbol357)" stroke-width="90" stroke-linecap="round" /></g>
  <rect x="138" y="138" width="2796" height="2796" rx="629" fill="#FFFFFF" filter="url(#grain357)" opacity="0.18" />
</svg>
