<svg xmlns="http://www.w3.org/2000/svg" width="3072" height="3072" viewBox="0 0 3072 3072">
  <title>QuartzOS App Icon 298 - vector_settings_298</title>
  <defs><linearGradient id="bg297" x1="0%" y1="0%" x2="100%" y2="100%"><stop offset="0%" stop-color="#FF6AB3" /><stop offset="26%" stop-color="#FFD84D" /><stop offset="56%" stop-color="#36D1FF" /><stop offset="78%" stop-color="#4F79A7" /><stop offset="100%" stop-color="#1B2630" /></linearGradient><radialGradient id="sun297" cx="24%" cy="41%" r="88%"><stop offset="0%" stop-color="#FFFFFF" stop-opacity="0.62" /><stop offset="30%" stop-color="#3B82FF" stop-opacity="0.35" /><stop offset="100%" stop-color="#3B82FF" stop-opacity="0" /></radialGradient><linearGradient id="glass297" x1="0%" y1="0%" x2="0%" y2="100%"><stop offset="0%" stop-color="#FFFFFF" stop-opacity="0.70" /><stop offset="46%" stop-color="#FFFFFF" stop-opacity="0.26" /><stop offset="100%" stop-color="#FFFFFF" stop-opacity="0.00" /></linearGradient><linearGradient id="ribbon297" x1="0%" y1="0%" x2="100%" y2="0%"><stop offset="0%" stop-color="#FF6AB3" stop-opacity="0.18" /><stop offset="34%" stop-color="#FFD84D" stop-opacity="0.72" /><stop offset="66%" stop-color="#36D1FF" stop-opacity="0.72" /><stop offset="100%" stop-color="#3B82FF" stop-opacity="0.18" /></linearGradient><radialGradient id="orb297" cx="34%" cy="27%" r="74%"><stop offset="0%" stop-color="#FFFFFF" stop-opacity="0.84" /><stop offset="30%" stop-color="#FF6AB3" stop-opacity="0.52" /><stop offset="68%" stop-color="#FFD84D" stop-opacity="0.42" /><stop offset="100%" stop-color="#36D1FF" stop-opacity="0.20" /></radialGradient><linearGradient id="extrude297" x1="0%" y1="0%" x2="0%" y2="100%"><stop offset="0%" stop-color="#15283C" stop-opacity="0.45" /><stop offset="100%" stop-color="#08131D" stop-opacity="0.06" /></linearGradient><linearGradient id="symbol297" x1="0%" y1="0%" x2="100%" y2="100%"><stop offset="0%" stop-color="#FFFFFF" /><stop offset="100%" stop-color="#3B82FF" /></linearGradient><filter id="shadow297" x="-40%" y="-40%" width="180%" height="180%"><feDropShadow dx="0" dy="49" stdDeviation="86" flood-color="#06111A" flood-opacity="0.54" /></filter><filter id="soft297" x="-40%" y="-40%" width="180%" height="180%"><feDropShadow dx="0" dy="0" stdDeviation="14" flood-color="#FF6AB3" flood-opacity="0.45" /></filter><filter id="grain297"><feTurbulence type="fractalNoise" baseFrequency="1.029" numOctaves="2" seed="297" /><feColorMatrix type="saturate" values="0" /><feComponentTransfer><feFuncA type="table" tableValues="0 0.09" /></feComponentTransfer></filter></defs>
  <rect x="138" y="138" width="2796" height="2796" rx="629" fill="url(#bg297)" filter="url(#shadow297)" />
  <rect x="138" y="138" width="2796" height="2796" rx="629" fill="url(#sun297)" />
  <g><circle cx="1264" cy="2449" r="38" fill="#FFFFFF" opacity="0.162" /><circle cx="788" cy="2198" r="119" fill="#FFFFFF" opacity="0.118" /><circle cx="2218" cy="1270" r="73" fill="#FFFFFF" opacity="0.081" /><circle cx="622" cy="1452" r="95" fill="#FFFFFF" opacity="0.091" /><circle cx="1851" cy="1135" r="117" fill="#FFFFFF" opacity="0.174" /><circle cx="1567" cy="1234" r="49" fill="#FFFFFF" opacity="0.238" /><circle cx="1532" cy="1410" r="130" fill="#FFFFFF" opacity="0.194" /><circle cx="1766" cy="1317" r="140" fill="#FFFFFF" opacity="0.071" /><circle cx="1132" cy="608" r="67" fill="#FFFFFF" opacity="0.144" /><circle cx="2169" cy="1651" r="45" fill="#FFFFFF" opacity="0.208" /><circle cx="2552" cy="2686" r="145" fill="#FFFFFF" opacity="0.083" /><circle cx="493" cy="952" r="101" fill="#FFFFFF" opacity="0.214" /><circle cx="2306" cy="1921" r="101" fill="#FFFFFF" opacity="0.224" /><circle cx="2265" cy="2616" r="93" fill="#FFFFFF" opacity="0.137" /><circle cx="1170" cy="1488" r="144" fill="#FFFFFF" opacity="0.227" /><circle cx="2241" cy="1623" r="102" fill="#FFFFFF" opacity="0.171" /><circle cx="560" cy="1035" r="49" fill="#FFFFFF" opacity="0.213" /><circle cx="1572" cy="340" r="111" fill="#FFFFFF" opacity="0.235" /><circle cx="1971" cy="1176" r="63" fill="#FFFFFF" opacity="0.083" /><circle cx="2356" cy="515" r="66" fill="#FFFFFF" opacity="0.195" /><circle cx="2475" cy="955" r="74" fill="#FFFFFF" opacity="0.196" /><circle cx="584" cy="2606" r="53" fill="#FFFFFF" opacity="0.191" /><circle cx="2623" cy="2640" r="101" fill="#FFFFFF" opacity="0.167" /><circle cx="828" cy="470" r="65" fill="#FFFFFF" opacity="0.159" /><circle cx="1070" cy="2292" r="155" fill="#FFFFFF" opacity="0.109" /><circle cx="1305" cy="2560" r="130" fill="#FFFFFF" opacity="0.179" /><circle cx="1603" cy="2053" r="74" fill="#FFFFFF" opacity="0.176" /><circle cx="687" cy="552" r="43" fill="#FFFFFF" opacity="0.202" /></g>
  <g><path d="M 219.7 641.4 L 2740.0 364.9 L 2740.0 845.2 L 219.7 1121.7 Z" fill="#FFFFFF" opacity="0.121" /><path d="M 174.3 834.1 L 2920.8 557.6 L 2920.8 1006.3 L 174.3 1282.8 Z" fill="#FFFFFF" opacity="0.100" /><path d="M 293.9 1165.9 L 2822.0 889.5 L 2822.0 1329.9 L 293.9 1606.3 Z" fill="#FFFFFF" opacity="0.094" /><path d="M 321.9 1374.6 L 2707.5 1098.2 L 2707.5 1551.4 L 321.9 1827.8 Z" fill="#FFFFFF" opacity="0.231" /><path d="M 245.2 1681.5 L 2803.5 1405.1 L 2803.5 1878.8 L 245.2 2155.3 Z" fill="#FFFFFF" opacity="0.164" /><path d="M 357.4 1949.8 L 2765.7 1673.3 L 2765.7 2120.7 L 357.4 2397.1 Z" fill="#FFFFFF" opacity="0.121" /><path d="M 223.1 2165.2 L 2806.6 1888.7 L 2806.6 2380.1 L 223.1 2656.6 Z" fill="#FFFFFF" opacity="0.208" /><path d="M 279.0 2421.6 L 2722.7 2145.1 L 2722.7 2627.8 L 279.0 2904.2 Z" fill="#FFFFFF" opacity="0.111" /></g>
  <g filter="url(#soft297)"><g transform="rotate(-19.83 1536.0 1536.0)"><path d="M-368.6 546.0 C -225.8 514.2, -25.8 565.4, 107.5 493.7 C 250.4 503.5, 450.4 571.3, 583.7 496.7 C 726.5 497.0, 926.5 566.1, 1059.8 529.6 C 1202.7 528.3, 1402.7 555.8, 1536.0 572.4 C 1678.8 576.8, 1878.8 533.4, 2012.2 599.2 C 2155.0 608.4, 2355.0 518.9, 2488.3 593.7 C 2631.2 604.2, 2831.2 518.3, 2964.5 559.3 C 3107.3 563.5, 3307.3 538.6, 3440.6 516.7" fill="none" stroke="url(#ribbon297)" stroke-width="58.4" stroke-linecap="round" stroke-opacity="0.120" /></g><g transform="rotate(-19.25 1536.0 1536.0)"><path d="M-368.6 663.1 C -241.7 621.7, -63.9 697.6, 54.6 651.2 C 181.6 655.7, 359.4 668.6, 477.9 698.7 C 604.8 694.2, 782.6 632.7, 901.1 724.7 C 1028.1 707.2, 1205.9 617.5, 1324.4 713.3 C 1451.3 715.2, 1629.1 642.7, 1747.6 671.5 C 1874.6 669.8, 2052.4 656.1, 2170.9 624.6 C 2297.9 611.4, 2475.6 684.9, 2594.1 601.1 C 2721.1 589.0, 2898.9 717.9, 3017.4 615.3 C 3144.4 601.9, 3322.1 705.3, 3440.6 658.4" fill="none" stroke="url(#ribbon297)" stroke-width="54.4" stroke-linecap="round" stroke-opacity="0.146" /></g><g transform="rotate(-18.67 1536.0 1536.0)"><path d="M-368.6 903.1 C -254.4 944.6, -94.4 872.5, 12.3 884.8 C 126.6 891.5, 286.6 920.5, 393.2 842.3 C 507.5 843.4, 667.5 965.1, 774.1 836.7 C 888.4 838.8, 1048.4 929.3, 1155.1 871.4 C 1269.4 866.2, 1429.3 932.7, 1536.0 925.4 C 1650.3 929.9, 1810.3 883.0, 1916.9 965.8 C 2031.2 967.8, 2191.2 853.3, 2297.9 968.2 C 2412.1 946.5, 2572.1 828.4, 2678.8 931.1 C 2793.1 936.8, 2953.1 880.8, 3059.7 877.1 C 3174.0 867.8, 3334.0 911.1, 3440.6 838.8" fill="none" stroke="url(#ribbon297)" stroke-width="50.4" stroke-linecap="round" stroke-opacity="0.172" /></g><g transform="rotate(-18.09 1536.0 1536.0)"><path d="M-368.6 1119.5 C -264.8 1194.1, -119.3 1085.2, -22.3 1121.7 C 81.5 1121.8, 227.0 1118.4, 324.0 1066.1 C 427.8 1074.7, 573.3 1138.7, 670.3 1043.0 C 774.1 1034.6, 919.6 1170.7, 1016.6 1066.2 C 1120.4 1058.5, 1265.9 1162.2, 1362.9 1121.7 C 1466.7 1122.6, 1612.2 1117.6, 1709.1 1175.9 C 1813.0 1156.5, 1958.5 1070.9, 2055.4 1195.8 C 2159.3 1198.4, 2304.8 1061.0, 2401.7 1169.4 C 2505.6 1158.7, 2651.1 1072.8, 2748.0 1112.7 C 2851.9 1112.5, 2997.4 1127.2, 3094.3 1060.1 C 3198.2 1059.9, 3343.7 1180.0, 3440.6 1043.5" fill="none" stroke="url(#ribbon297)" stroke-width="46.4" stroke-linecap="round" stroke-opacity="0.198" /></g><g transform="rotate(-17.51 1536.0 1536.0)"><path d="M-368.6 1281.7 C -273.4 1293.7, -140.1 1278.5, -51.2 1347.4 C 44.0 1341.3, 177.4 1222.9, 266.2 1364.4 C 361.5 1388.7, 494.8 1234.5, 583.7 1331.2 C 678.9 1318.4, 812.2 1251.5, 901.1 1268.0 C 996.4 1264.2, 1129.7 1294.9, 1218.6 1213.0 C 1313.8 1240.0, 1447.1 1317.1, 1536.0 1199.7 C 1631.2 1231.3, 1764.6 1376.0, 1853.4 1236.1 C 1948.7 1218.0, 2082.0 1314.6, 2170.9 1300.1 C 2266.1 1294.7, 2399.4 1266.3, 2488.3 1353.0 C 2583.6 1367.8, 2716.9 1227.5, 2805.8 1362.6 C 2901.0 1366.6, 3034.3 1218.4, 3123.2 1323.1 C 3218.4 1307.5, 3351.8 1263.6, 3440.6 1258.4" fill="none" stroke="url(#ribbon297)" stroke-width="42.4" stroke-linecap="round" stroke-opacity="0.224" /></g><g transform="rotate(-16.93 1536.0 1536.0)"><path d="M-368.6 1483.5 C -225.8 1491.2, -25.8 1475.6, 107.5 1426.1 C 250.4 1423.7, 450.4 1501.0, 583.7 1393.2 C 726.5 1374.3, 926.5 1590.9, 1059.8 1415.1 C 1202.7 1412.6, 1402.7 1558.3, 1536.0 1478.4 C 1678.8 1478.6, 1878.8 1486.0, 2012.2 1544.9 C 2155.0 1557.1, 2355.0 1414.6, 2488.3 1574.1 C 2631.2 1550.8, 2831.2 1433.2, 2964.5 1548.3 C 3107.3 1554.4, 3307.3 1421.6, 3440.6 1483.3" fill="none" stroke="url(#ribbon297)" stroke-width="38.4" stroke-linecap="round" stroke-opacity="0.250" /></g><g transform="rotate(-16.35 1536.0 1536.0)"><path d="M-368.6 1737.9 C -241.7 1741.6, -63.9 1736.0, 54.6 1810.6 C 181.6 1785.1, 359.4 1668.2, 477.9 1835.4 C 604.8 1808.3, 782.6 1653.2, 901.1 1801.0 C 1028.1 1808.5, 1205.9 1712.8, 1324.4 1728.4 C 1451.3 1725.2, 1629.1 1744.3, 1747.6 1661.5 C 1874.6 1671.9, 2052.4 1823.8, 2170.9 1641.0 C 2297.9 1652.0, 2475.6 1800.9, 2594.1 1679.3 C 2721.1 1657.9, 2898.9 1789.7, 3017.4 1753.1 C 3144.4 1750.4, 3322.1 1721.2, 3440.6 1817.7" fill="none" stroke="url(#ribbon297)" stroke-width="34.4" stroke-linecap="round" stroke-opacity="0.276" /></g><g transform="rotate(-15.77 1536.0 1536.0)"><path d="M-368.6 1871.1 C -254.4 1824.7, -94.4 1937.1, 12.3 1766.9 C 126.6 1787.1, 286.6 1963.7, 393.2 1790.9 C 507.5 1818.8, 667.5 1947.1, 774.1 1863.6 C 888.4 1861.1, 1048.4 1879.4, 1155.1 1940.8 C 1269.4 1950.3, 1429.3 1801.0, 1536.0 1975.8 C 1650.3 1994.8, 1810.3 1760.8, 1916.9 1947.3 C 2031.2 1936.1, 2191.2 1802.7, 2297.9 1872.6 C 2412.1 1872.8, 2572.1 1870.6, 2678.8 1797.0 C 2793.1 1798.9, 2953.1 1952.3, 3059.7 1766.4 C 3174.0 1797.8, 3334.0 1918.3, 3440.6 1799.3" fill="none" stroke="url(#ribbon297)" stroke-width="30.4" stroke-linecap="round" stroke-opacity="0.302" /></g><g transform="rotate(-15.19 1536.0 1536.0)"><path d="M-368.6 2033.1 C -264.8 2013.7, -119.3 2054.2, -22.3 1935.5 C 81.5 1966.3, 227.0 2146.3, 324.0 1925.9 C 427.8 1910.6, 573.3 2091.8, 670.3 1981.3 C 774.1 1993.7, 919.6 2089.7, 1016.6 2068.1 C 1120.4 2081.6, 1265.9 1992.1, 1362.9 2133.6 C 1466.7 2127.5, 1612.2 1976.3, 1709.1 2138.2 C 1813.0 2097.9, 1958.5 1938.0, 2055.4 2079.0 C 2159.3 2094.9, 2304.8 1981.4, 2401.7 1991.9 C 2505.6 1978.7, 2651.1 2056.2, 2748.0 1929.8 C 2851.9 1943.1, 2997.4 2155.4, 3094.3 1930.3 C 3198.2 1955.5, 3343.7 2134.6, 3440.6 1993.2" fill="none" stroke="url(#ribbon297)" stroke-width="26.4" stroke-linecap="round" stroke-opacity="0.328" /></g><g transform="rotate(-14.61 1536.0 1536.0)"><path d="M-368.6 2256.1 C -273.4 2156.0, -140.1 2307.3, -51.2 2251.3 C 44.0 2252.4, 177.4 2260.2, 266.2 2338.0 C 361.5 2352.0, 494.8 2179.6, 583.7 2375.0 C 678.9 2333.8, 812.2 2163.1, 901.1 2339.8 C 996.4 2322.2, 1129.7 2157.6, 1218.6 2253.9 C 1313.8 2253.5, 1447.1 2257.3, 1536.0 2169.3 C 1631.2 2155.7, 1764.6 2284.4, 1853.4 2137.3 C 1948.7 2091.9, 2082.0 2317.6, 2170.9 2177.4 C 2266.1 2168.1, 2399.4 2288.1, 2488.3 2265.2 C 2583.6 2264.9, 2716.9 2245.6, 2805.8 2347.5 C 2901.0 2313.9, 3034.3 2218.1, 3123.2 2374.3 C 3218.4 2337.5, 3351.8 2216.7, 3440.6 2329.4" fill="none" stroke="url(#ribbon297)" stroke-width="22.4" stroke-linecap="round" stroke-opacity="0.354" /></g><g transform="rotate(-14.03 1536.0 1536.0)"><path d="M-368.6 2513.9 C -225.8 2609.5, -25.8 2426.5, 107.5 2638.7 C 250.4 2658.1, 450.4 2417.9, 583.7 2613.2 C 726.5 2636.4, 926.5 2461.9, 1059.8 2527.5 C 1202.7 2525.3, 1402.7 2507.2, 1536.0 2433.6 C 1678.8 2410.1, 1878.8 2551.5, 2012.2 2388.4 C 2155.0 2342.3, 2355.0 2658.2, 2488.3 2419.3 C 2631.2 2391.5, 2831.2 2571.0, 2964.5 2507.7 C 3107.3 2505.4, 3307.3 2521.2, 3440.6 2599.8" fill="none" stroke="url(#ribbon297)" stroke-width="18.4" stroke-linecap="round" stroke-opacity="0.380" /></g><g transform="rotate(-13.45 1536.0 1536.0)"><path d="M-368.6 2605.8 C -241.7 2689.2, -63.9 2572.4, 54.6 2734.2 C 181.6 2725.2, 359.4 2561.0, 477.9 2720.2 C 604.8 2721.3, 782.6 2565.2, 901.1 2636.8 C 1028.1 2641.7, 1205.9 2585.8, 1324.4 2534.6 C 1451.3 2528.0, 1629.1 2633.6, 1747.6 2475.6 C 1874.6 2424.2, 2052.4 2754.2, 2170.9 2495.6 C 2297.9 2526.7, 2475.6 2675.5, 2594.1 2582.5 C 2721.1 2585.7, 2898.9 2633.2, 3017.4 2683.5 C 3144.4 2658.3, 3322.1 2544.3, 3440.6 2737.4" fill="none" stroke="url(#ribbon297)" stroke-width="14.4" stroke-linecap="round" stroke-opacity="0.406" /></g></g>
  <g><ellipse cx="1536.0" cy="1551.9" rx="728.6" ry="605.7" fill="url(#extrude297)" opacity="0.220" /><ellipse cx="1536.0" cy="1567.7" rx="736.0" ry="610.9" fill="url(#extrude297)" opacity="0.205" /><ellipse cx="1536.0" cy="1583.6" rx="743.4" ry="616.1" fill="url(#extrude297)" opacity="0.190" /><ellipse cx="1536.0" cy="1599.5" rx="750.9" ry="621.3" fill="url(#extrude297)" opacity="0.175" /><ellipse cx="1536.0" cy="1615.4" rx="758.3" ry="626.5" fill="url(#extrude297)" opacity="0.160" /><ellipse cx="1536.0" cy="1631.2" rx="765.7" ry="631.7" fill="url(#extrude297)" opacity="0.145" /><ellipse cx="1536.0" cy="1647.1" rx="773.2" ry="636.9" fill="url(#extrude297)" opacity="0.130" /><ellipse cx="1536.0" cy="1663.0" rx="780.6" ry="642.1" fill="url(#extrude297)" opacity="0.115" /><ellipse cx="1536.0" cy="1678.8" rx="788.0" ry="647.4" fill="url(#extrude297)" opacity="0.100" /><ellipse cx="1536.0" cy="1694.7" rx="795.5" ry="652.6" fill="url(#extrude297)" opacity="0.085" /><ellipse cx="1536.0" cy="1710.6" rx="802.9" ry="657.8" fill="url(#extrude297)" opacity="0.070" /><ellipse cx="1536.0" cy="1726.5" rx="810.3" ry="663.0" fill="url(#extrude297)" opacity="0.055" /></g>
  <ellipse cx="1536.0" cy="1726.5" rx="773.2" ry="214.9" fill="#0B1D2D" opacity="0.24" />
  <ellipse cx="1536.0" cy="1536.0" rx="743.4" ry="651.3" fill="url(#orb297)" stroke="#FFFFFF" stroke-opacity="0.42" stroke-width="7" />
  <ellipse cx="1431.9" cy="1392.7" rx="505.5" ry="299.6" fill="#FFFFFF" opacity="0.25" />
  <path d="M 199.4 399.4 C 1013.8 -30.7, 2058.2 768.0, 2872.6 215.0 L 2872.6 983.0 C 2089.0 1228.8, 1013.8 307.2, 199.4 1167.4 Z" fill="url(#glass297)" />
  <rect x="270" y="270" width="2532" height="2532" rx="430" fill="none" stroke="#FFFFFF" stroke-opacity="0.30" stroke-width="5" />
  <rect x="288.4" y="288.4" width="2495.1" height="2495.1" rx="399" fill="none" stroke="#FF6AB3" stroke-opacity="0.35" stroke-width="3" />
  <g filter="url(#soft297)"><rect x="1546" y="407" width="74" height="2" fill="#FFFFFF" opacity="0.591" /><rect x="1582" y="371" width="2" height="74" fill="#FFFFFF" opacity="0.591" /><rect x="1203" y="313" width="48" height="2" fill="#FFFFFF" opacity="0.470" /><rect x="1226" y="290" width="2" height="48" fill="#FFFFFF" opacity="0.470" /><rect x="1690" y="788" width="64" height="2" fill="#FFFFFF" opacity="0.563" /><rect x="1721" y="757" width="2" height="64" fill="#FFFFFF" opacity="0.563" /><rect x="646" y="1725" width="58" height="2" fill="#FFFFFF" opacity="0.826" /><rect x="674" y="1697" width="2" height="58" fill="#FFFFFF" opacity="0.826" /><rect x="1396" y="839" width="48" height="2" fill="#FFFFFF" opacity="0.714" /><rect x="1419" y="816" width="2" height="48" fill="#FFFFFF" opacity="0.714" /><rect x="2804" y="1116" width="28" height="2" fill="#FFFFFF" opacity="0.773" /><rect x="2817" y="1103" width="2" height="28" fill="#FFFFFF" opacity="0.773" /><rect x="1835" y="2230" width="72" height="2" fill="#FFFFFF" opacity="0.630" /><rect x="1870" y="2195" width="2" height="72" fill="#FFFFFF" opacity="0.630" /><rect x="2228" y="2232" width="72" height="2" fill="#FFFFFF" opacity="0.838" /><rect x="2263" y="2197" width="2" height="72" fill="#FFFFFF" opacity="0.838" /><rect x="2408" y="1229" width="36" height="2" fill="#FFFFFF" opacity="0.806" /><rect x="2425" y="1212" width="2" height="36" fill="#FFFFFF" opacity="0.806" /><rect x="2777" y="1877" width="64" height="2" fill="#FFFFFF" opacity="0.537" /><rect x="2808" y="1846" width="2" height="64" fill="#FFFFFF" opacity="0.537" /><rect x="2206" y="2185" width="30" height="2" fill="#FFFFFF" opacity="0.304" /><rect x="2220" y="2171" width="2" height="30" fill="#FFFFFF" opacity="0.304" /><rect x="1462" y="1897" width="64" height="2" fill="#FFFFFF" opacity="0.801" /><rect x="1493" y="1866" width="2" height="64" fill="#FFFFFF" opacity="0.801" /><rect x="645" y="1574" width="80" height="2" fill="#FFFFFF" opacity="0.353" /><rect x="684" y="1535" width="2" height="80" fill="#FFFFFF" opacity="0.353" /><rect x="1768" y="1805" width="68" height="2" fill="#FFFFFF" opacity="0.791" /><rect x="1801" y="1772" width="2" height="68" fill="#FFFFFF" opacity="0.791" /><rect x="1969" y="539" width="56" height="2" fill="#FFFFFF" opacity="0.713" /><rect x="1996" y="512" width="2" height="56" fill="#FFFFFF" opacity="0.713" /><rect x="519" y="2274" width="62" height="2" fill="#FFFFFF" opacity="0.663" /><rect x="549" y="2244" width="2" height="62" fill="#FFFFFF" opacity="0.663" /><rect x="786" y="584" width="34" height="2" fill="#FFFFFF" opacity="0.316" /><rect x="802" y="568" width="2" height="34" fill="#FFFFFF" opacity="0.316" /><rect x="1382" y="1851" width="40" height="2" fill="#FFFFFF" opacity="0.376" /><rect x="1401" y="1832" width="2" height="40" fill="#FFFFFF" opacity="0.376" /><rect x="2077" y="2580" width="40" height="2" fill="#FFFFFF" opacity="0.564" /><rect x="2096" y="2561" width="2" height="40" fill="#FFFFFF" opacity="0.564" /><rect x="2044" y="2021" width="60" height="2" fill="#FFFFFF" opacity="0.603" /><rect x="2073" y="1992" width="2" height="60" fill="#FFFFFF" opacity="0.603" /><rect x="2190" y="1508" width="48" height="2" fill="#FFFFFF" opacity="0.827" /><rect x="2213" y="1485" width="2" height="48" fill="#FFFFFF" opacity="0.827" /><rect x="563" y="460" width="78" height="2" fill="#FFFFFF" opacity="0.784" /><rect x="601" y="422" width="2" height="78" fill="#FFFFFF" opacity="0.784" /><rect x="1458" y="2156" width="32" height="2" fill="#FFFFFF" opacity="0.430" /><rect x="1473" y="2141" width="2" height="32" fill="#FFFFFF" opacity="0.430" /><rect x="488" y="2715" width="28" height="2" fill="#FFFFFF" opacity="0.377" /><rect x="501" y="2702" width="2" height="28" fill="#FFFFFF" opacity="0.377" /><rect x="580" y="325" width="34" height="2" fill="#FFFFFF" opacity="0.542" /><rect x="596" y="309" width="2" height="34" fill="#FFFFFF" opacity="0.542" /><rect x="2195" y="1914" width="76" height="2" fill="#FFFFFF" opacity="0.558" /><rect x="2232" y="1877" width="2" height="76" fill="#FFFFFF" opacity="0.558" /></g>
  <g opacity="0.52"><rect x="1060" y="1070" width="1024" height="1024" rx="153" fill="none" stroke="#0C2030" stroke-width="90" /><line x1="1316" y1="1326" x2="1828" y2="1838" stroke="#0C2030" stroke-width="90" stroke-linecap="round" /><line x1="1828" y1="1326" x2="1316" y2="1838" stroke="#0C2030" stroke-width="90" stroke-linecap="round" /></g>
  <g filter="url(#soft297)"><rect x="1024" y="1024" width="1024" height="1024" rx="153" fill="none" stroke="url(#symbol297)" stroke-width="90" /><line x1="1280" y1="1280" x2="1792" y2="1792" stroke="url(#symbol297)" stroke-width="90" stroke-linecap="round" /><line x1="1792" y1="1280" x2="1280" y2="1792" stroke="url(#symbol297)" stroke-width="90" stroke-linecap="round" /></g>
  <rect x="138" y="138" width="2796" height="2796" rx="629" fill="#FFFFFF" filter="url(#grain297)" opacity="0.18" />
</svg>
