<svg xmlns="http://www.w3.org/2000/svg" width="3072" height="3072" viewBox="0 0 3072 3072">
  <title>QuartzOS App Icon 138 - vector_camera_138</title>
  <defs><linearGradient id="bg137" x1="0%" y1="0%" x2="100%" y2="100%"><stop offset="0%" stop-color="#FF9F43" /><stop offset="26%" stop-color="#53E3A6" /><stop offset="56%" stop-color="#3B82FF" /><stop offset="78%" stop-color="#B37A46" /><stop offset="100%" stop-color="#27201B" /></linearGradient><radialGradient id="sun137" cx="27%" cy="24%" r="88%"><stop offset="0%" stop-color="#FFFFFF" stop-opacity="0.62" /><stop offset="30%" stop-color="#8A5CFF" stop-opacity="0.35" /><stop offset="100%" stop-color="#8A5CFF" stop-opacity="0" /></radialGradient><linearGradient id="glass137" x1="0%" y1="0%" x2="0%" y2="100%"><stop offset="0%" stop-color="#FFFFFF" stop-opacity="0.70" /><stop offset="46%" stop-color="#FFFFFF" stop-opacity="0.26" /><stop offset="100%" stop-color="#FFFFFF" stop-opacity="0.00" /></linearGradient><linearGradient id="ribbon137" x1="0%" y1="0%" x2="100%" y2="0%"><stop offset="0%" stop-color="#FF9F43" stop-opacity="0.18" /><stop offset="34%" stop-color="#53E3A6" stop-opacity="0.72" /><stop offset="66%" stop-color="#3B82FF" stop-opacity="0.72" /><stop offset="100%" stop-color="#8A5CFF" stop-opacity="0.18" /></linearGradient><radialGradient id="orb137" cx="34%" cy="27%" r="74%"><stop offset="0%" stop-color="#FFFFFF" stop-opacity="0.84" /><stop offset="30%" stop-color="#FF9F43" stop-opacity="0.52" /><stop offset="68%" stop-color="#53E3A6" stop-opacity="0.42" /><stop offset="100%" stop-color="#3B82FF" stop-opacity="0.20" /></radialGradient><linearGradient id="extrude137" x1="0%" y1="0%" x2="0%" y2="100%"><stop offset="0%" stop-color="#15283C" stop-opacity="0.45" /><stop offset="100%" stop-color="#08131D" stop-opacity="0.06" /></linearGradient><linearGradient id="symbol137" x1="0%" y1="0%" x2="100%" y2="100%"><stop offset="0%" stop-color="#FFFFFF" /><stop offset="100%" stop-color="#8A5CFF" /></linearGradient><filter id="shadow137" x="-40%" y="-40%" width="180%" height="180%"><feDropShadow dx="0" dy="49" stdDeviation="86" flood-color="#06111A" flood-opacity="0.54" /></filter><filter id="soft137" x="-40%" y="-40%" width="180%" height="180%"><feDropShadow dx="0" dy="0" stdDeviation="14" flood-color="#FF9F43" flood-opacity="0.45" /></filter><filter id="grain137"><feTurbulence type="fractalNoise" baseFrequency="0.824" numOctaves="2" seed="137" /><feColorMatrix type="saturate" values="0" /><feComponentTransfer><feFuncA type="table" tableValues="0 0.09" /></feComponentTransfer></filter></defs>
  <rect x="138" y="138" width="2796" height="2796" rx="629" fill="url(#bg137)" filter="url(#shadow137)" />
  <rect x="138" y="138" width="2796" height="2796" rx="629" fill="url(#sun137)" />
  <g><circle cx="1083" cy="1573" r="116" fill="#FFFFFF" opacity="0.156" /><circle cx="2153" cy="747" r="143" fill="#FFFFFF" opacity="0.225" /><circle cx="1214" cy="1983" r="109" fill="#FFFFFF" opacity="0.177" /><circle cx="1965" cy="2661" r="148" fill="#FFFFFF" opacity="0.230" /><circle cx="1583" cy="2510" r="124" fill="#FFFFFF" opacity="0.216" /><circle cx="2672" cy="716" r="134" fill="#FFFFFF" opacity="0.219" /><circle cx="906" cy="396" r="102" fill="#FFFFFF" opacity="0.197" /><circle cx="1345" cy="1628" r="143" fill="#FFFFFF" opacity="0.176" /><circle cx="2626" cy="733" r="131" fill="#FFFFFF" opacity="0.099" /><circle cx="868" cy="2131" r="87" fill="#FFFFFF" opacity="0.125" /><circle cx="2671" cy="1797" r="128" fill="#FFFFFF" opacity="0.177" /><circle cx="2154" cy="2530" r="59" fill="#FFFFFF" opacity="0.173" /><circle cx="1307" cy="2089" r="108" fill="#FFFFFF" opacity="0.195" /><circle cx="1759" cy="1244" r="133" fill="#FFFFFF" opacity="0.116" /><circle cx="1693" cy="338" r="69" fill="#FFFFFF" opacity="0.214" /><circle cx="1901" cy="1470" r="141" fill="#FFFFFF" opacity="0.220" /><circle cx="2175" cy="451" r="89" fill="#FFFFFF" opacity="0.204" /><circle cx="2531" cy="1234" r="43" fill="#FFFFFF" opacity="0.130" /><circle cx="976" cy="2228" r="43" fill="#FFFFFF" opacity="0.131" /><circle cx="1136" cy="356" r="145" fill="#FFFFFF" opacity="0.218" /><circle cx="1618" cy="1822" r="147" fill="#FFFFFF" opacity="0.138" /><circle cx="2609" cy="380" r="71" fill="#FFFFFF" opacity="0.149" /><circle cx="397" cy="1921" r="134" fill="#FFFFFF" opacity="0.109" /><circle cx="1840" cy="2259" r="47" fill="#FFFFFF" opacity="0.072" /><circle cx="2602" cy="527" r="126" fill="#FFFFFF" opacity="0.238" /><circle cx="2046" cy="1792" r="66" fill="#FFFFFF" opacity="0.116" /><circle cx="2108" cy="1438" r="126" fill="#FFFFFF" opacity="0.072" /><circle cx="1156" cy="1979" r="146" fill="#FFFFFF" opacity="0.155" /></g>
  <g><path d="M 210.8 608.7 L 2826.8 332.2 L 2826.8 804.2 L 210.8 1080.7 Z" fill="#FFFFFF" opacity="0.210" /><path d="M 203.3 878.4 L 2905.1 601.9 L 2905.1 1072.9 L 203.3 1349.3 Z" fill="#FFFFFF" opacity="0.121" /><path d="M 269.9 1130.9 L 2793.4 854.5 L 2793.4 1281.0 L 269.9 1557.5 Z" fill="#FFFFFF" opacity="0.108" /><path d="M 349.3 1394.2 L 2729.5 1117.8 L 2729.5 1612.6 L 349.3 1889.1 Z" fill="#FFFFFF" opacity="0.099" /><path d="M 216.7 1680.6 L 2895.5 1404.1 L 2895.5 1846.8 L 216.7 2123.3 Z" fill="#FFFFFF" opacity="0.173" /><path d="M 315.2 1909.0 L 2919.9 1632.5 L 2919.9 2096.6 L 315.2 2373.1 Z" fill="#FFFFFF" opacity="0.106" /><path d="M 343.5 2138.7 L 2852.9 1862.2 L 2852.9 2305.1 L 343.5 2581.5 Z" fill="#FFFFFF" opacity="0.215" /><path d="M 197.8 2479.7 L 2826.4 2203.2 L 2826.4 2700.3 L 197.8 2976.8 Z" fill="#FFFFFF" opacity="0.237" /></g>
  <g filter="url(#soft137)"><g transform="rotate(-19.89 1536.0 1536.0)"><path d="M-368.6 525.4 C -225.8 564.8, -25.8 504.0, 107.5 573.4 C 250.4 581.4, 450.4 482.1, 583.7 539.3 C 726.5 541.9, 926.5 511.8, 1059.8 496.7 C 1202.7 500.2, 1402.7 550.6, 1536.0 471.5 C 1678.8 485.4, 1878.8 563.4, 2012.2 479.0 C 2155.0 480.2, 2355.0 552.8, 2488.3 514.6 C 2631.2 514.9, 2831.2 533.3, 2964.5 556.8 C 3107.3 564.1, 3307.3 500.8, 3440.6 579.9" fill="none" stroke="url(#ribbon137)" stroke-width="58.4" stroke-linecap="round" stroke-opacity="0.120" /></g><g transform="rotate(-19.31 1536.0 1536.0)"><path d="M-368.6 726.6 C -241.7 676.1, -63.9 748.5, 54.6 667.6 C 181.6 676.6, 359.4 745.2, 477.9 700.0 C 604.8 699.9, 782.6 758.0, 901.1 748.5 C 1028.1 742.7, 1205.9 709.5, 1324.4 783.7 C 1451.3 770.4, 1629.1 688.3, 1747.6 784.3 C 1874.6 804.8, 2052.4 663.1, 2170.9 749.9 C 2297.9 754.4, 2475.6 702.5, 2594.1 701.3 C 2721.1 709.7, 2898.9 742.4, 3017.4 668.1 C 3144.4 658.4, 3322.1 748.4, 3440.6 670.3" fill="none" stroke="url(#ribbon137)" stroke-width="54.4" stroke-linecap="round" stroke-opacity="0.146" /></g><g transform="rotate(-18.73 1536.0 1536.0)"><path d="M-368.6 964.8 C -254.4 1032.1, -94.4 915.4, 12.3 1021.0 C 126.6 1034.0, 286.6 914.3, 393.2 974.7 C 507.5 974.9, 667.5 958.5, 774.1 922.4 C 888.4 913.9, 1048.4 1006.1, 1155.1 895.9 C 1269.4 896.8, 1429.3 1023.0, 1536.0 911.2 C 1650.3 911.6, 1810.3 984.2, 1916.9 959.0 C 2031.2 960.9, 2191.2 970.9, 2297.9 1010.4 C 2412.1 994.4, 2572.1 946.3, 2678.8 1034.2 C 2793.1 1036.5, 2953.1 908.6, 3059.7 1015.9 C 3174.0 1002.1, 3334.0 926.0, 3440.6 966.6" fill="none" stroke="url(#ribbon137)" stroke-width="50.4" stroke-linecap="round" stroke-opacity="0.172" /></g><g transform="rotate(-18.15 1536.0 1536.0)"><path d="M-368.6 1114.6 C -264.8 1009.9, -119.3 1174.7, -22.3 1069.4 C 81.5 1062.1, 227.0 1156.3, 324.0 1127.4 C 427.8 1123.6, 573.3 1101.4, 670.3 1177.6 C 774.1 1201.7, 919.6 1046.1, 1016.6 1189.6 C 1120.4 1193.2, 1265.9 1040.7, 1362.9 1156.1 C 1466.7 1158.9, 1612.2 1088.8, 1709.1 1097.5 C 1813.0 1101.4, 1958.5 1127.6, 2055.4 1049.2 C 2159.3 1070.7, 2304.8 1153.3, 2401.7 1040.6 C 2505.6 1069.1, 2651.1 1153.5, 2748.0 1076.9 C 2851.9 1069.3, 2997.4 1156.8, 3094.3 1136.1 C 3198.2 1134.7, 3343.7 1107.5, 3440.6 1182.2" fill="none" stroke="url(#ribbon137)" stroke-width="46.4" stroke-linecap="round" stroke-opacity="0.198" /></g><g transform="rotate(-17.57 1536.0 1536.0)"><path d="M-368.6 1333.9 C -273.4 1283.1, -140.1 1389.8, -51.2 1343.6 C 44.0 1341.0, 177.4 1327.7, 266.2 1400.2 C 361.5 1385.4, 494.8 1303.2, 583.7 1416.5 C 678.9 1401.1, 812.2 1248.5, 901.1 1382.8 C 996.4 1368.6, 1129.7 1292.8, 1218.6 1319.3 C 1313.8 1317.0, 1447.1 1350.7, 1536.0 1264.7 C 1631.2 1271.0, 1764.6 1411.2, 1853.4 1252.0 C 1948.7 1274.8, 2082.0 1392.8, 2170.9 1289.0 C 2266.1 1292.6, 2399.4 1387.5, 2488.3 1353.2 C 2583.6 1355.5, 2716.9 1320.9, 2805.8 1405.6 C 2901.0 1398.0, 3034.3 1283.9, 3123.2 1414.6 C 3218.4 1384.4, 3351.8 1247.2, 3440.6 1374.5" fill="none" stroke="url(#ribbon137)" stroke-width="42.4" stroke-linecap="round" stroke-opacity="0.224" /></g><g transform="rotate(-16.99 1536.0 1536.0)"><path d="M-368.6 1431.8 C -225.8 1462.4, -25.8 1416.5, 107.5 1394.2 C 250.4 1401.4, 450.4 1465.8, 583.7 1346.5 C 726.5 1328.2, 926.5 1529.9, 1059.8 1350.5 C 1202.7 1365.6, 1402.7 1463.7, 1536.0 1403.8 C 1678.8 1411.7, 1878.8 1449.2, 2012.2 1474.1 C 2155.0 1468.1, 2355.0 1384.3, 2488.3 1518.8 C 2631.2 1552.9, 2831.2 1348.6, 2964.5 1510.7 C 3107.3 1502.6, 3307.3 1406.0, 3440.6 1454.7" fill="none" stroke="url(#ribbon137)" stroke-width="38.4" stroke-linecap="round" stroke-opacity="0.250" /></g><g transform="rotate(-16.41 1536.0 1536.0)"><path d="M-368.6 1691.4 C -241.7 1714.9, -63.9 1649.4, 54.6 1652.6 C 181.6 1648.6, 359.4 1710.8, 477.9 1600.1 C 604.8 1585.2, 782.6 1769.7, 901.1 1602.9 C 1028.1 1589.4, 1205.9 1794.2, 1324.4 1659.5 C 1451.3 1652.1, 1629.1 1708.0, 1747.6 1735.4 C 1874.6 1735.8, 2052.4 1671.9, 2170.9 1784.6 C 2297.9 1778.3, 2475.6 1634.1, 2594.1 1777.3 C 2721.1 1796.4, 2898.9 1599.8, 3017.4 1717.9 C 3144.4 1707.9, 3322.1 1661.6, 3440.6 1642.4" fill="none" stroke="url(#ribbon137)" stroke-width="34.4" stroke-linecap="round" stroke-opacity="0.276" /></g><g transform="rotate(-15.83 1536.0 1536.0)"><path d="M-368.6 1817.9 C -254.4 1761.7, -94.4 1871.3, 12.3 1717.3 C 126.6 1738.8, 286.6 1909.9, 393.2 1726.7 C 507.5 1757.6, 667.5 1878.8, 774.1 1791.4 C 888.4 1785.0, 1048.4 1829.8, 1155.1 1872.2 C 1269.4 1872.8, 1429.3 1781.4, 1536.0 1920.0 C 1650.3 1929.9, 1810.3 1725.8, 1916.9 1905.9 C 2031.2 1900.8, 2191.2 1717.8, 2297.9 1838.4 C 2412.1 1839.6, 2572.1 1803.1, 2678.8 1758.5 C 2793.1 1777.8, 2953.1 1857.6, 3059.7 1714.6 C 3174.0 1695.4, 3334.0 1896.1, 3440.6 1733.4" fill="none" stroke="url(#ribbon137)" stroke-width="30.4" stroke-linecap="round" stroke-opacity="0.302" /></g><g transform="rotate(-15.25 1536.0 1536.0)"><path d="M-368.6 2090.4 C -264.8 2121.9, -119.3 2065.7, -22.3 2185.0 C 81.5 2201.3, 227.0 2012.2, 324.0 2199.1 C 427.8 2216.7, 573.3 2053.2, 670.3 2147.2 C 774.1 2164.6, 919.6 2046.6, 1016.6 2060.9 C 1120.4 2064.3, 1265.9 2108.3, 1362.9 1992.5 C 1466.7 2010.4, 1612.2 2141.0, 1709.1 1983.5 C 1813.0 2008.2, 1958.5 2192.8, 2055.4 2039.3 C 2159.3 2029.3, 2304.8 2137.8, 2401.7 2126.2 C 2505.6 2111.9, 2651.1 2072.5, 2748.0 2191.3 C 2851.9 2174.9, 2997.4 1979.1, 3094.3 2195.3 C 3198.2 2214.0, 3343.7 1975.8, 3440.6 2135.6" fill="none" stroke="url(#ribbon137)" stroke-width="26.4" stroke-linecap="round" stroke-opacity="0.328" /></g><g transform="rotate(-14.67 1536.0 1536.0)"><path d="M-368.6 2207.4 C -273.4 2093.5, -140.1 2269.3, -51.2 2207.0 C 44.0 2207.0, 177.4 2207.6, 266.2 2292.4 C 361.5 2313.8, 494.8 2121.6, 583.7 2326.2 C 678.9 2356.6, 812.2 2144.9, 901.1 2288.0 C 996.4 2257.3, 1129.7 2182.8, 1218.6 2200.8 C 1313.8 2201.6, 1447.1 2211.3, 1536.0 2117.7 C 1631.2 2114.7, 1764.6 2283.2, 1853.4 2088.9 C 1948.7 2124.8, 2082.0 2251.5, 2170.9 2132.0 C 2266.1 2141.6, 2399.4 2280.1, 2488.3 2220.8 C 2583.6 2226.1, 2716.9 2199.4, 2805.8 2301.5 C 2901.0 2330.1, 3034.3 2173.4, 3123.2 2325.1 C 3218.4 2299.3, 3351.8 2158.2, 3440.6 2277.2" fill="none" stroke="url(#ribbon137)" stroke-width="22.4" stroke-linecap="round" stroke-opacity="0.354" /></g><g transform="rotate(-14.09 1536.0 1536.0)"><path d="M-368.6 2415.6 C -225.8 2448.8, -25.8 2397.4, 107.5 2356.2 C 250.4 2368.8, 450.4 2434.1, 583.7 2294.6 C 726.5 2295.8, 926.5 2505.5, 1059.8 2306.3 C 1202.7 2319.9, 1402.7 2494.3, 1536.0 2384.4 C 1678.8 2382.5, 1878.8 2452.7, 2012.2 2481.4 C 2155.0 2507.4, 2355.0 2353.2, 2488.3 2538.5 C 2631.2 2560.8, 2831.2 2304.9, 2964.5 2521.1 C 3107.3 2536.9, 3307.3 2369.5, 3440.6 2439.7" fill="none" stroke="url(#ribbon137)" stroke-width="18.4" stroke-linecap="round" stroke-opacity="0.380" /></g><g transform="rotate(-13.51 1536.0 1536.0)"><path d="M-368.6 2667.7 C -241.7 2743.5, -63.9 2630.5, 54.6 2679.9 C 181.6 2676.9, 359.4 2664.1, 477.9 2581.2 C 604.8 2594.9, 782.6 2711.0, 901.1 2535.0 C 1028.1 2569.7, 1205.9 2751.5, 1324.4 2569.3 C 1451.3 2604.1, 1629.1 2739.3, 1747.6 2663.3 C 1874.6 2664.9, 2052.4 2670.7, 2170.9 2760.0 C 2297.9 2730.6, 2475.6 2568.9, 2594.1 2800.7 C 2721.1 2762.0, 2898.9 2553.5, 3017.4 2760.8 C 3144.4 2726.4, 3322.1 2580.7, 3440.6 2664.4" fill="none" stroke="url(#ribbon137)" stroke-width="14.4" stroke-linecap="round" stroke-opacity="0.406" /></g></g>
  <g><ellipse cx="1536.0" cy="1551.9" rx="728.6" ry="605.7" fill="url(#extrude137)" opacity="0.220" /><ellipse cx="1536.0" cy="1567.7" rx="736.0" ry="610.9" fill="url(#extrude137)" opacity="0.205" /><ellipse cx="1536.0" cy="1583.6" rx="743.4" ry="616.1" fill="url(#extrude137)" opacity="0.190" /><ellipse cx="1536.0" cy="1599.5" rx="750.9" ry="621.3" fill="url(#extrude137)" opacity="0.175" /><ellipse cx="1536.0" cy="1615.4" rx="758.3" ry="626.5" fill="url(#extrude137)" opacity="0.160" /><ellipse cx="1536.0" cy="1631.2" rx="765.7" ry="631.7" fill="url(#extrude137)" opacity="0.145" /><ellipse cx="1536.0" cy="1647.1" rx="773.2" ry="636.9" fill="url(#extrude137)" opacity="0.130" /><ellipse cx="1536.0" cy="1663.0" rx="780.6" ry="642.1" fill="url(#extrude137)" opacity="0.115" /><ellipse cx="1536.0" cy="1678.8" rx="788.0" ry="647.4" fill="url(#extrude137)" opacity="0.100" /><ellipse cx="1536.0" cy="1694.7" rx="795.5" ry="652.6" fill="url(#extrude137)" opacity="0.085" /><ellipse cx="1536.0" cy="1710.6" rx="802.9" ry="657.8" fill="url(#extrude137)" opacity="0.070" /><ellipse cx="1536.0" cy="1726.5" rx="810.3" ry="663.0" fill="url(#extrude137)" opacity="0.055" /></g>
  <ellipse cx="1536.0" cy="1726.5" rx="773.2" ry="214.9" fill="#0B1D2D" opacity="0.24" />
  <ellipse cx="1536.0" cy="1536.0" rx="743.4" ry="651.3" fill="url(#orb137)" stroke="#FFFFFF" stroke-opacity="0.42" stroke-width="7" />
  <ellipse cx="1431.9" cy="1392.7" rx="505.5" ry="299.6" fill="#FFFFFF" opacity="0.25" />
  <path d="M 199.4 399.4 C 1013.8 -30.7, 2058.2 768.0, 2872.6 215.0 L 2872.6 983.0 C 2089.0 1228.8, 1013.8 307.2, 199.4 1167.4 Z" fill="url(#glass137)" />
  <rect x="270" y="270" width="2532" height="2532" rx="430" fill="none" stroke="#FFFFFF" stroke-opacity="0.30" stroke-width="5" />
  <rect x="288.4" y="288.4" width="2495.1" height="2495.1" rx="399" fill="none" stroke="#FF9F43" stroke-opacity="0.35" stroke-width="3" />
  <g filter="url(#soft137)"><rect x="1636" y="1172" width="44" height="2" fill="#FFFFFF" opacity="0.649" /><rect x="1657" y="1151" width="2" height="44" fill="#FFFFFF" opacity="0.649" /><rect x="2463" y="2048" width="44" height="2" fill="#FFFFFF" opacity="0.541" /><rect x="2484" y="2027" width="2" height="44" fill="#FFFFFF" opacity="0.541" /><rect x="1533" y="1203" width="34" height="2" fill="#FFFFFF" opacity="0.451" /><rect x="1549" y="1187" width="2" height="34" fill="#FFFFFF" opacity="0.451" /><rect x="2212" y="250" width="82" height="2" fill="#FFFFFF" opacity="0.668" /><rect x="2252" y="210" width="2" height="82" fill="#FFFFFF" opacity="0.668" /><rect x="1956" y="1576" width="44" height="2" fill="#FFFFFF" opacity="0.410" /><rect x="1977" y="1555" width="2" height="44" fill="#FFFFFF" opacity="0.410" /><rect x="1731" y="1892" width="58" height="2" fill="#FFFFFF" opacity="0.811" /><rect x="1759" y="1864" width="2" height="58" fill="#FFFFFF" opacity="0.811" /><rect x="1315" y="1524" width="80" height="2" fill="#FFFFFF" opacity="0.794" /><rect x="1354" y="1485" width="2" height="80" fill="#FFFFFF" opacity="0.794" /><rect x="534" y="385" width="56" height="2" fill="#FFFFFF" opacity="0.466" /><rect x="561" y="358" width="2" height="56" fill="#FFFFFF" opacity="0.466" /><rect x="510" y="2533" width="30" height="2" fill="#FFFFFF" opacity="0.359" /><rect x="524" y="2519" width="2" height="30" fill="#FFFFFF" opacity="0.359" /><rect x="1865" y="1498" width="82" height="2" fill="#FFFFFF" opacity="0.448" /><rect x="1905" y="1458" width="2" height="82" fill="#FFFFFF" opacity="0.448" /><rect x="2455" y="2303" width="80" height="2" fill="#FFFFFF" opacity="0.744" /><rect x="2494" y="2264" width="2" height="80" fill="#FFFFFF" opacity="0.744" /><rect x="2430" y="713" width="76" height="2" fill="#FFFFFF" opacity="0.499" /><rect x="2467" y="676" width="2" height="76" fill="#FFFFFF" opacity="0.499" /><rect x="962" y="2095" width="42" height="2" fill="#FFFFFF" opacity="0.319" /><rect x="982" y="2075" width="2" height="42" fill="#FFFFFF" opacity="0.319" /><rect x="1108" y="1671" width="40" height="2" fill="#FFFFFF" opacity="0.638" /><rect x="1127" y="1652" width="2" height="40" fill="#FFFFFF" opacity="0.638" /><rect x="605" y="2267" width="24" height="2" fill="#FFFFFF" opacity="0.569" /><rect x="616" y="2256" width="2" height="24" fill="#FFFFFF" opacity="0.569" /><rect x="1589" y="2656" width="62" height="2" fill="#FFFFFF" opacity="0.765" /><rect x="1619" y="2626" width="2" height="62" fill="#FFFFFF" opacity="0.765" /><rect x="730" y="1121" width="62" height="2" fill="#FFFFFF" opacity="0.836" /><rect x="760" y="1091" width="2" height="62" fill="#FFFFFF" opacity="0.836" /><rect x="1431" y="1500" width="80" height="2" fill="#FFFFFF" opacity="0.712" /><rect x="1470" y="1461" width="2" height="80" fill="#FFFFFF" opacity="0.712" /><rect x="881" y="2087" width="66" height="2" fill="#FFFFFF" opacity="0.652" /><rect x="913" y="2055" width="2" height="66" fill="#FFFFFF" opacity="0.652" /><rect x="2496" y="1273" width="38" height="2" fill="#FFFFFF" opacity="0.735" /><rect x="2514" y="1255" width="2" height="38" fill="#FFFFFF" opacity="0.735" /><rect x="2450" y="1547" width="74" height="2" fill="#FFFFFF" opacity="0.321" /><rect x="2486" y="1511" width="2" height="74" fill="#FFFFFF" opacity="0.321" /><rect x="2666" y="1656" width="24" height="2" fill="#FFFFFF" opacity="0.804" /><rect x="2677" y="1645" width="2" height="24" fill="#FFFFFF" opacity="0.804" /><rect x="1873" y="2640" width="82" height="2" fill="#FFFFFF" opacity="0.845" /><rect x="1913" y="2600" width="2" height="82" fill="#FFFFFF" opacity="0.845" /><rect x="1726" y="1160" width="68" height="2" fill="#FFFFFF" opacity="0.349" /><rect x="1759" y="1127" width="2" height="68" fill="#FFFFFF" opacity="0.349" /><rect x="274" y="2132" width="66" height="2" fill="#FFFFFF" opacity="0.451" /><rect x="306" y="2100" width="2" height="66" fill="#FFFFFF" opacity="0.451" /><rect x="1069" y="2669" width="46" height="2" fill="#FFFFFF" opacity="0.639" /><rect x="1091" y="2647" width="2" height="46" fill="#FFFFFF" opacity="0.639" /></g>
  <g opacity="0.52"><rect x="1023" y="1121" width="1152" height="1024" rx="153" fill="none" stroke="#0C2030" stroke-width="90" /><line x1="1023" y1="1326" x2="2148" y2="1326" stroke="#0C2030" stroke-width="90" /><line x1="1316" y1="1033" x2="1316" y2="1121" stroke="#0C2030" stroke-width="90" /><line x1="1828" y1="1033" x2="1828" y2="1121" stroke="#0C2030" stroke-width="90" /></g>
  <g filter="url(#soft137)"><rect x="987" y="1075" width="1152" height="1024" rx="153" fill="none" stroke="url(#symbol137)" stroke-width="90" /><line x1="987" y1="1280" x2="2112" y2="1280" stroke="url(#symbol137)" stroke-width="90" /><line x1="1280" y1="987" x2="1280" y2="1075" stroke="url(#symbol137)" stroke-width="90" /><line x1="1792" y1="987" x2="1792" y2="1075" stroke="url(#symbol137)" stroke-width="90" /></g>
  <rect x="138" y="138" width="2796" height="2796" rx="629" fill="#FFFFFF" filter="url(#grain137)" opacity="0.18" />
</svg>
