<svg xmlns="http://www.w3.org/2000/svg" width="3072" height="3072" viewBox="0 0 3072 3072">
  <title>QuartzOS App Icon 038 - vector_studio_038</title>
  <defs><linearGradient id="bg37" x1="0%" y1="0%" x2="100%" y2="100%"><stop offset="0%" stop-color="#8A5CFF" /><stop offset="26%" stop-color="#FF9F43" /><stop offset="56%" stop-color="#53E3A6" /><stop offset="78%" stop-color="#2E8D96" /><stop offset="100%" stop-color="#0F2A2E" /></linearGradient><radialGradient id="sun37" cx="28%" cy="17%" r="88%"><stop offset="0%" stop-color="#FFFFFF" stop-opacity="0.62" /><stop offset="30%" stop-color="#36D1FF" stop-opacity="0.35" /><stop offset="100%" stop-color="#36D1FF" stop-opacity="0" /></radialGradient><linearGradient id="glass37" x1="0%" y1="0%" x2="0%" y2="100%"><stop offset="0%" stop-color="#FFFFFF" stop-opacity="0.70" /><stop offset="46%" stop-color="#FFFFFF" stop-opacity="0.26" /><stop offset="100%" stop-color="#FFFFFF" stop-opacity="0.00" /></linearGradient><linearGradient id="ribbon37" x1="0%" y1="0%" x2="100%" y2="0%"><stop offset="0%" stop-color="#8A5CFF" stop-opacity="0.18" /><stop offset="34%" stop-color="#FF9F43" stop-opacity="0.72" /><stop offset="66%" stop-color="#53E3A6" stop-opacity="0.72" /><stop offset="100%" stop-color="#36D1FF" stop-opacity="0.18" /></linearGradient><radialGradient id="orb37" cx="34%" cy="27%" r="74%"><stop offset="0%" stop-color="#FFFFFF" stop-opacity="0.84" /><stop offset="30%" stop-color="#8A5CFF" stop-opacity="0.52" /><stop offset="68%" stop-color="#FF9F43" stop-opacity="0.42" /><stop offset="100%" stop-color="#53E3A6" stop-opacity="0.20" /></radialGradient><linearGradient id="extrude37" x1="0%" y1="0%" x2="0%" y2="100%"><stop offset="0%" stop-color="#15283C" stop-opacity="0.45" /><stop offset="100%" stop-color="#08131D" stop-opacity="0.06" /></linearGradient><linearGradient id="symbol37" x1="0%" y1="0%" x2="100%" y2="100%"><stop offset="0%" stop-color="#FFFFFF" /><stop offset="100%" stop-color="#36D1FF" /></linearGradient><filter id="shadow37" x="-40%" y="-40%" width="180%" height="180%"><feDropShadow dx="0" dy="49" stdDeviation="86" flood-color="#06111A" flood-opacity="0.54" /></filter><filter id="soft37" x="-40%" y="-40%" width="180%" height="180%"><feDropShadow dx="0" dy="0" stdDeviation="14" flood-color="#8A5CFF" flood-opacity="0.45" /></filter><filter id="grain37"><feTurbulence type="fractalNoise" baseFrequency="0.800" numOctaves="2" seed="37" /><feColorMatrix type="saturate" values="0" /><feComponentTransfer><feFuncA type="table" tableValues="0 0.09" /></feComponentTransfer></filter></defs>
  <rect x="138" y="138" width="2796" height="2796" rx="629" fill="url(#bg37)" filter="url(#shadow37)" />
  <rect x="138" y="138" width="2796" height="2796" rx="629" fill="url(#sun37)" />
  <g><circle cx="1078" cy="1521" r="86" fill="#FFFFFF" opacity="0.076" /><circle cx="2023" cy="606" r="45" fill="#FFFFFF" opacity="0.226" /><circle cx="1120" cy="788" r="84" fill="#FFFFFF" opacity="0.116" /><circle cx="420" cy="1560" r="104" fill="#FFFFFF" opacity="0.095" /><circle cx="1051" cy="1642" r="97" fill="#FFFFFF" opacity="0.106" /><circle cx="2076" cy="2343" r="99" fill="#FFFFFF" opacity="0.170" /><circle cx="543" cy="1508" r="61" fill="#FFFFFF" opacity="0.100" /><circle cx="769" cy="1719" r="81" fill="#FFFFFF" opacity="0.161" /><circle cx="1825" cy="1955" r="103" fill="#FFFFFF" opacity="0.105" /><circle cx="457" cy="2395" r="97" fill="#FFFFFF" opacity="0.203" /><circle cx="592" cy="2335" r="116" fill="#FFFFFF" opacity="0.154" /><circle cx="2458" cy="541" r="88" fill="#FFFFFF" opacity="0.132" /><circle cx="983" cy="765" r="37" fill="#FFFFFF" opacity="0.126" /><circle cx="2701" cy="1815" r="129" fill="#FFFFFF" opacity="0.115" /><circle cx="938" cy="2438" r="111" fill="#FFFFFF" opacity="0.206" /><circle cx="1380" cy="1607" r="152" fill="#FFFFFF" opacity="0.127" /><circle cx="1631" cy="1734" r="144" fill="#FFFFFF" opacity="0.181" /><circle cx="1662" cy="1359" r="148" fill="#FFFFFF" opacity="0.065" /><circle cx="1297" cy="423" r="87" fill="#FFFFFF" opacity="0.105" /><circle cx="2121" cy="1088" r="87" fill="#FFFFFF" opacity="0.144" /><circle cx="1449" cy="2048" r="104" fill="#FFFFFF" opacity="0.161" /><circle cx="1582" cy="1634" r="72" fill="#FFFFFF" opacity="0.138" /><circle cx="2164" cy="1676" r="123" fill="#FFFFFF" opacity="0.083" /><circle cx="2347" cy="2269" r="90" fill="#FFFFFF" opacity="0.158" /><circle cx="426" cy="2152" r="109" fill="#FFFFFF" opacity="0.122" /><circle cx="2488" cy="854" r="124" fill="#FFFFFF" opacity="0.092" /><circle cx="873" cy="1742" r="60" fill="#FFFFFF" opacity="0.133" /><circle cx="538" cy="1326" r="102" fill="#FFFFFF" opacity="0.227" /></g>
  <g><path d="M 229.4 616.6 L 2817.7 340.2 L 2817.7 820.4 L 229.4 1096.9 Z" fill="#FFFFFF" opacity="0.117" /><path d="M 235.1 901.4 L 2833.1 624.9 L 2833.1 1086.9 L 235.1 1363.4 Z" fill="#FFFFFF" opacity="0.116" /><path d="M 216.9 1135.0 L 2786.3 858.5 L 2786.3 1327.7 L 216.9 1604.1 Z" fill="#FFFFFF" opacity="0.233" /><path d="M 361.7 1437.4 L 2805.7 1161.0 L 2805.7 1646.0 L 361.7 1922.4 Z" fill="#FFFFFF" opacity="0.186" /><path d="M 308.1 1689.2 L 2804.0 1412.7 L 2804.0 1866.3 L 308.1 2142.8 Z" fill="#FFFFFF" opacity="0.219" /><path d="M 372.7 1925.2 L 2870.4 1648.8 L 2870.4 2140.2 L 372.7 2416.7 Z" fill="#FFFFFF" opacity="0.100" /><path d="M 258.9 2180.7 L 2902.6 1904.2 L 2902.6 2398.2 L 258.9 2674.6 Z" fill="#FFFFFF" opacity="0.147" /><path d="M 185.9 2429.0 L 2798.0 2152.6 L 2798.0 2603.5 L 185.9 2879.9 Z" fill="#FFFFFF" opacity="0.105" /></g>
  <g filter="url(#soft37)"><g transform="rotate(-7.43 1536.0 1536.0)"><path d="M-368.6 557.6 C -225.8 592.5, -25.8 513.8, 107.5 562.5 C 250.4 563.5, 450.4 554.7, 583.7 521.5 C 726.5 520.7, 926.5 591.5, 1059.8 502.4 C 1202.7 484.6, 1402.7 610.4, 1536.0 516.7 C 1678.8 520.2, 1878.8 574.4, 2012.2 555.9 C 2155.0 556.3, 2355.0 558.2, 2488.3 596.0 C 2631.2 601.7, 2831.2 511.4, 2964.5 612.9 C 3107.3 601.7, 3307.3 540.7, 3440.6 596.1" fill="none" stroke="url(#ribbon37)" stroke-width="58.4" stroke-linecap="round" stroke-opacity="0.120" /></g><g transform="rotate(-6.85 1536.0 1536.0)"><path d="M-368.6 661.9 C -241.7 634.5, -63.9 684.3, 54.6 686.6 C 181.6 693.9, 359.4 634.3, 477.9 720.2 C 604.8 710.2, 782.6 621.0, 901.1 718.4 C 1028.1 696.4, 1205.9 625.1, 1324.4 682.4 C 1451.3 688.2, 1629.1 653.8, 1747.6 633.9 C 1874.6 624.1, 2052.4 674.1, 2170.9 602.4 C 2297.9 603.9, 2475.6 691.3, 2594.1 607.0 C 2721.1 586.6, 2898.9 684.1, 3017.4 644.9 C 3144.4 646.1, 3322.1 667.0, 3440.6 693.1" fill="none" stroke="url(#ribbon37)" stroke-width="54.4" stroke-linecap="round" stroke-opacity="0.146" /></g><g transform="rotate(-6.27 1536.0 1536.0)"><path d="M-368.6 905.1 C -254.4 901.3, -94.4 907.0, 12.3 952.7 C 126.6 961.0, 286.6 861.8, 393.2 974.6 C 507.5 955.9, 667.5 856.0, 774.1 954.3 C 888.4 949.2, 1048.4 864.6, 1155.1 904.3 C 1269.4 904.4, 1429.3 905.6, 1536.0 854.7 C 1650.3 841.3, 1810.3 935.5, 1916.9 835.8 C 2031.2 816.2, 2191.2 943.9, 2297.9 858.9 C 2412.1 872.8, 2572.1 945.5, 2678.8 910.1 C 2793.1 911.2, 2953.1 899.5, 3059.7 958.2 C 3174.0 973.6, 3334.0 884.3, 3440.6 974.2" fill="none" stroke="url(#ribbon37)" stroke-width="50.4" stroke-linecap="round" stroke-opacity="0.172" /></g><g transform="rotate(-5.69 1536.0 1536.0)"><path d="M-368.6 1053.0 C -264.8 1128.0, -119.3 1003.6, -22.3 1089.0 C 81.5 1096.0, 227.0 1029.6, 324.0 1029.6 C 427.8 1036.2, 573.3 1062.9, 670.3 984.5 C 774.1 990.8, 919.6 1089.8, 1016.6 980.8 C 1120.4 1008.1, 1265.9 1139.5, 1362.9 1021.0 C 1466.7 1015.6, 1612.2 1079.7, 1709.1 1080.5 C 1813.0 1073.7, 1958.5 1033.3, 2055.4 1123.3 C 2159.3 1104.0, 2304.8 980.1, 2401.7 1123.5 C 2505.6 1130.6, 2651.1 973.5, 2748.0 1080.9 C 2851.9 1079.7, 2997.4 1041.0, 3094.3 1021.3 C 3198.2 1019.7, 3343.7 1088.6, 3440.6 981.0" fill="none" stroke="url(#ribbon37)" stroke-width="46.4" stroke-linecap="round" stroke-opacity="0.198" /></g><g transform="rotate(-5.11 1536.0 1536.0)"><path d="M-368.6 1347.6 C -273.4 1372.3, -140.1 1337.8, -51.2 1424.0 C 44.0 1438.3, 177.4 1317.6, 266.2 1425.1 C 361.5 1419.6, 494.8 1286.0, 583.7 1379.2 C 678.9 1377.3, 812.2 1337.2, 901.1 1314.1 C 996.4 1324.5, 1129.7 1382.6, 1218.6 1269.4 C 1313.8 1278.9, 1447.1 1417.8, 1536.0 1272.1 C 1631.2 1273.0, 1764.6 1384.6, 1853.4 1320.6 C 1948.7 1310.7, 2082.0 1356.1, 2170.9 1385.5 C 2266.1 1389.4, 2399.4 1307.5, 2488.3 1427.4 C 2583.6 1401.9, 2716.9 1284.3, 2805.8 1420.9 C 2901.0 1436.2, 3034.3 1292.5, 3123.2 1370.0 C 3218.4 1371.9, 3351.8 1329.1, 3440.6 1305.4" fill="none" stroke="url(#ribbon37)" stroke-width="42.4" stroke-linecap="round" stroke-opacity="0.224" /></g><g transform="rotate(-4.53 1536.0 1536.0)"><path d="M-368.6 1455.3 C -225.8 1362.2, -25.8 1492.4, 107.5 1365.1 C 250.4 1356.8, 450.4 1486.3, 583.7 1398.7 C 726.5 1390.9, 926.5 1499.7, 1059.8 1466.6 C 1202.7 1468.3, 1402.7 1442.7, 1536.0 1527.7 C 1678.8 1503.6, 1878.8 1423.5, 2012.2 1544.8 C 2155.0 1548.9, 2355.0 1423.3, 2488.3 1507.7 C 2631.2 1490.4, 2831.2 1412.2, 2964.5 1438.7 C 3107.3 1438.3, 3307.3 1474.2, 3440.6 1379.9" fill="none" stroke="url(#ribbon37)" stroke-width="38.4" stroke-linecap="round" stroke-opacity="0.250" /></g><g transform="rotate(-3.95 1536.0 1536.0)"><path d="M-368.6 1657.0 C -241.7 1755.3, -63.9 1607.7, 54.6 1711.3 C 181.6 1730.3, 359.4 1597.8, 477.9 1636.5 C 604.8 1631.2, 782.6 1671.5, 901.1 1574.2 C 1028.1 1602.7, 1205.9 1687.8, 1324.4 1562.1 C 1451.3 1541.5, 1629.1 1764.8, 1747.6 1607.5 C 1874.6 1626.9, 2052.4 1688.5, 2170.9 1682.9 C 2297.9 1684.1, 2475.6 1632.9, 2594.1 1742.6 C 2721.1 1715.8, 2898.9 1562.6, 3017.4 1750.3 C 3144.4 1730.6, 3322.1 1571.4, 3440.6 1701.4" fill="none" stroke="url(#ribbon37)" stroke-width="34.4" stroke-linecap="round" stroke-opacity="0.276" /></g><g transform="rotate(-3.37 1536.0 1536.0)"><path d="M-368.6 1868.0 C -254.4 1838.2, -94.4 1896.3, 12.3 1921.3 C 126.6 1926.3, 286.6 1841.0, 393.2 1969.8 C 507.5 1976.6, 667.5 1832.8, 774.1 1956.5 C 888.4 1944.5, 1048.4 1809.0, 1155.1 1889.5 C 1269.4 1885.4, 1429.3 1849.6, 1536.0 1809.4 C 1650.3 1794.2, 1810.3 1934.4, 1916.9 1764.9 C 2031.2 1745.9, 2191.2 1964.8, 2297.9 1782.8 C 2412.1 1773.0, 2572.1 1907.4, 2678.8 1852.4 C 2793.1 1854.7, 2953.1 1881.2, 3059.7 1931.4 C 3174.0 1932.3, 3334.0 1845.3, 3440.6 1972.0" fill="none" stroke="url(#ribbon37)" stroke-width="30.4" stroke-linecap="round" stroke-opacity="0.302" /></g><g transform="rotate(-2.79 1536.0 1536.0)"><path d="M-368.6 2126.1 C -264.8 2072.6, -119.3 2175.3, -22.3 2172.0 C 81.5 2178.5, 227.0 2096.3, 324.0 2231.2 C 427.8 2241.3, 573.3 2028.9, 670.3 2226.6 C 774.1 2232.0, 919.6 2063.6, 1016.6 2161.0 C 1120.4 2147.2, 1265.9 2107.9, 1362.9 2074.2 C 1466.7 2070.3, 1612.2 2151.2, 1709.1 2018.9 C 1813.0 1987.7, 1958.5 2198.8, 2055.4 2028.5 C 2159.3 2054.4, 2304.8 2242.8, 2401.7 2097.4 C 2505.6 2099.2, 2651.1 2139.2, 2748.0 2183.6 C 2851.9 2179.9, 2997.4 2105.9, 3094.3 2234.9 C 3198.2 2235.4, 3343.7 2018.9, 3440.6 2220.2" fill="none" stroke="url(#ribbon37)" stroke-width="26.4" stroke-linecap="round" stroke-opacity="0.328" /></g><g transform="rotate(-2.21 1536.0 1536.0)"><path d="M-368.6 2254.4 C -273.4 2104.2, -140.1 2385.8, -51.2 2149.6 C 44.0 2112.7, 177.4 2371.1, 266.2 2221.8 C 361.5 2232.0, 494.8 2273.6, 583.7 2313.7 C 678.9 2310.2, 812.2 2193.4, 901.1 2369.6 C 996.4 2391.0, 1129.7 2170.3, 1218.6 2355.7 C 1313.8 2337.4, 1447.1 2195.6, 1536.0 2280.3 C 1631.2 2277.9, 1764.6 2228.1, 1853.4 2189.2 C 1948.7 2181.7, 2082.0 2284.0, 2170.9 2137.7 C 2266.1 2113.5, 2399.4 2292.9, 2488.3 2156.9 C 2583.6 2171.3, 2716.9 2313.5, 2805.8 2235.3 C 2901.0 2241.1, 3034.3 2273.5, 3123.2 2325.3 C 3218.4 2318.5, 3351.8 2203.1, 3440.6 2372.2" fill="none" stroke="url(#ribbon37)" stroke-width="22.4" stroke-linecap="round" stroke-opacity="0.354" /></g><g transform="rotate(-1.63 1536.0 1536.0)"><path d="M-368.6 2475.2 C -225.8 2323.6, -25.8 2602.7, 107.5 2394.5 C 250.4 2418.8, 450.4 2526.3, 583.7 2488.4 C 726.5 2491.9, 926.5 2461.1, 1059.8 2574.2 C 1202.7 2540.8, 1402.7 2362.3, 1536.0 2600.0 C 1678.8 2618.0, 1878.8 2353.3, 2012.2 2550.1 C 2155.0 2536.2, 2355.0 2410.8, 2488.3 2454.7 C 2631.2 2451.3, 2831.2 2497.7, 2964.5 2371.8 C 3107.3 2403.6, 3307.3 2509.1, 3440.6 2351.6" fill="none" stroke="url(#ribbon37)" stroke-width="18.4" stroke-linecap="round" stroke-opacity="0.380" /></g><g transform="rotate(-1.05 1536.0 1536.0)"><path d="M-368.6 2672.6 C -241.7 2741.3, -63.9 2609.1, 54.6 2633.4 C 181.6 2636.9, 359.4 2713.2, 477.9 2554.1 C 604.8 2550.7, 782.6 2778.2, 901.1 2546.7 C 1028.1 2539.8, 1205.9 2745.0, 1324.4 2615.7 C 1451.3 2617.8, 1629.1 2705.2, 1747.6 2719.2 C 1874.6 2725.7, 2052.4 2654.0, 2170.9 2794.5 C 2297.9 2774.6, 2475.6 2610.2, 2594.1 2795.8 C 2721.1 2813.6, 2898.9 2559.7, 3017.4 2722.5 C 3144.4 2732.4, 3322.1 2621.2, 3440.6 2618.9" fill="none" stroke="url(#ribbon37)" stroke-width="14.4" stroke-linecap="round" stroke-opacity="0.406" /></g></g>
  <g><ellipse cx="1536.0" cy="1551.9" rx="728.6" ry="605.7" fill="url(#extrude37)" opacity="0.220" /><ellipse cx="1536.0" cy="1567.7" rx="736.0" ry="610.9" fill="url(#extrude37)" opacity="0.205" /><ellipse cx="1536.0" cy="1583.6" rx="743.4" ry="616.1" fill="url(#extrude37)" opacity="0.190" /><ellipse cx="1536.0" cy="1599.5" rx="750.9" ry="621.3" fill="url(#extrude37)" opacity="0.175" /><ellipse cx="1536.0" cy="1615.4" rx="758.3" ry="626.5" fill="url(#extrude37)" opacity="0.160" /><ellipse cx="1536.0" cy="1631.2" rx="765.7" ry="631.7" fill="url(#extrude37)" opacity="0.145" /><ellipse cx="1536.0" cy="1647.1" rx="773.2" ry="636.9" fill="url(#extrude37)" opacity="0.130" /><ellipse cx="1536.0" cy="1663.0" rx="780.6" ry="642.1" fill="url(#extrude37)" opacity="0.115" /><ellipse cx="1536.0" cy="1678.8" rx="788.0" ry="647.4" fill="url(#extrude37)" opacity="0.100" /><ellipse cx="1536.0" cy="1694.7" rx="795.5" ry="652.6" fill="url(#extrude37)" opacity="0.085" /><ellipse cx="1536.0" cy="1710.6" rx="802.9" ry="657.8" fill="url(#extrude37)" opacity="0.070" /><ellipse cx="1536.0" cy="1726.5" rx="810.3" ry="663.0" fill="url(#extrude37)" opacity="0.055" /></g>
  <ellipse cx="1536.0" cy="1726.5" rx="773.2" ry="214.9" fill="#0B1D2D" opacity="0.24" />
  <ellipse cx="1536.0" cy="1536.0" rx="743.4" ry="651.3" fill="url(#orb37)" stroke="#FFFFFF" stroke-opacity="0.42" stroke-width="7" />
  <ellipse cx="1431.9" cy="1392.7" rx="505.5" ry="299.6" fill="#FFFFFF" opacity="0.25" />
  <path d="M 199.4 399.4 C 1013.8 -30.7, 2058.2 768.0, 2872.6 215.0 L 2872.6 983.0 C 2089.0 1228.8, 1013.8 307.2, 199.4 1167.4 Z" fill="url(#glass37)" />
  <rect x="270" y="270" width="2532" height="2532" rx="430" fill="none" stroke="#FFFFFF" stroke-opacity="0.30" stroke-width="5" />
  <rect x="288.4" y="288.4" width="2495.1" height="2495.1" rx="399" fill="none" stroke="#8A5CFF" stroke-opacity="0.35" stroke-width="3" />
  <g filter="url(#soft37)"><rect x="500" y="1247" width="24" height="2" fill="#FFFFFF" opacity="0.605" /><rect x="511" y="1236" width="2" height="24" fill="#FFFFFF" opacity="0.605" /><rect x="1930" y="1267" width="36" height="2" fill="#FFFFFF" opacity="0.686" /><rect x="1947" y="1250" width="2" height="36" fill="#FFFFFF" opacity="0.686" /><rect x="2034" y="1799" width="60" height="2" fill="#FFFFFF" opacity="0.348" /><rect x="2063" y="1770" width="2" height="60" fill="#FFFFFF" opacity="0.348" /><rect x="2403" y="2717" width="66" height="2" fill="#FFFFFF" opacity="0.658" /><rect x="2435" y="2685" width="2" height="66" fill="#FFFFFF" opacity="0.658" /><rect x="1817" y="1634" width="68" height="2" fill="#FFFFFF" opacity="0.384" /><rect x="1850" y="1601" width="2" height="68" fill="#FFFFFF" opacity="0.384" /><rect x="1013" y="275" width="66" height="2" fill="#FFFFFF" opacity="0.822" /><rect x="1045" y="243" width="2" height="66" fill="#FFFFFF" opacity="0.822" /><rect x="2548" y="1867" width="66" height="2" fill="#FFFFFF" opacity="0.781" /><rect x="2580" y="1835" width="2" height="66" fill="#FFFFFF" opacity="0.781" /><rect x="827" y="2539" width="68" height="2" fill="#FFFFFF" opacity="0.627" /><rect x="860" y="2506" width="2" height="68" fill="#FFFFFF" opacity="0.627" /><rect x="737" y="580" width="32" height="2" fill="#FFFFFF" opacity="0.827" /><rect x="752" y="565" width="2" height="32" fill="#FFFFFF" opacity="0.827" /><rect x="566" y="2627" width="76" height="2" fill="#FFFFFF" opacity="0.430" /><rect x="603" y="2590" width="2" height="76" fill="#FFFFFF" opacity="0.430" /><rect x="2016" y="1501" width="68" height="2" fill="#FFFFFF" opacity="0.451" /><rect x="2049" y="1468" width="2" height="68" fill="#FFFFFF" opacity="0.451" /><rect x="1275" y="1741" width="48" height="2" fill="#FFFFFF" opacity="0.804" /><rect x="1298" y="1718" width="2" height="48" fill="#FFFFFF" opacity="0.804" /><rect x="348" y="809" width="34" height="2" fill="#FFFFFF" opacity="0.447" /><rect x="364" y="793" width="2" height="34" fill="#FFFFFF" opacity="0.447" /><rect x="1720" y="762" width="50" height="2" fill="#FFFFFF" opacity="0.644" /><rect x="1744" y="738" width="2" height="50" fill="#FFFFFF" opacity="0.644" /><rect x="1053" y="2426" width="34" height="2" fill="#FFFFFF" opacity="0.388" /><rect x="1069" y="2410" width="2" height="34" fill="#FFFFFF" opacity="0.388" /><rect x="422" y="2725" width="62" height="2" fill="#FFFFFF" opacity="0.669" /><rect x="452" y="2695" width="2" height="62" fill="#FFFFFF" opacity="0.669" /><rect x="335" y="1357" width="40" height="2" fill="#FFFFFF" opacity="0.843" /><rect x="354" y="1338" width="2" height="40" fill="#FFFFFF" opacity="0.843" /><rect x="1475" y="947" width="84" height="2" fill="#FFFFFF" opacity="0.774" /><rect x="1516" y="906" width="2" height="84" fill="#FFFFFF" opacity="0.774" /><rect x="1236" y="557" width="28" height="2" fill="#FFFFFF" opacity="0.533" /><rect x="1249" y="544" width="2" height="28" fill="#FFFFFF" opacity="0.533" /><rect x="1710" y="706" width="66" height="2" fill="#FFFFFF" opacity="0.576" /><rect x="1742" y="674" width="2" height="66" fill="#FFFFFF" opacity="0.576" /><rect x="822" y="881" width="44" height="2" fill="#FFFFFF" opacity="0.543" /><rect x="843" y="860" width="2" height="44" fill="#FFFFFF" opacity="0.543" /><rect x="1863" y="1393" width="24" height="2" fill="#FFFFFF" opacity="0.406" /><rect x="1874" y="1382" width="2" height="24" fill="#FFFFFF" opacity="0.406" /><rect x="1567" y="1896" width="28" height="2" fill="#FFFFFF" opacity="0.726" /><rect x="1580" y="1883" width="2" height="28" fill="#FFFFFF" opacity="0.726" /><rect x="1580" y="2126" width="42" height="2" fill="#FFFFFF" opacity="0.551" /><rect x="1600" y="2106" width="2" height="42" fill="#FFFFFF" opacity="0.551" /><rect x="1269" y="959" width="78" height="2" fill="#FFFFFF" opacity="0.404" /><rect x="1307" y="921" width="2" height="78" fill="#FFFFFF" opacity="0.404" /><rect x="1001" y="597" width="26" height="2" fill="#FFFFFF" opacity="0.392" /><rect x="1013" y="585" width="2" height="26" fill="#FFFFFF" opacity="0.392" /></g>
  <g opacity="0.52"><rect x="1023" y="1070" width="768" height="768" rx="128" fill="none" stroke="#0C2030" stroke-width="90" /><path d="M1023 1582 L1572 1363 L2121 1582 L1572 2094 Z" fill="none" stroke="#0C2030" stroke-width="90" stroke-linejoin="round" /></g>
  <g filter="url(#soft37)"><rect x="987" y="1024" width="768" height="768" rx="128" fill="none" stroke="url(#symbol37)" stroke-width="90" /><path d="M987 1536 L1536 1317 L2085 1536 L1536 2048 Z" fill="none" stroke="url(#symbol37)" stroke-width="90" stroke-linejoin="round" /></g>
  <rect x="138" y="138" width="2796" height="2796" rx="629" fill="#FFFFFF" filter="url(#grain37)" opacity="0.18" />
</svg>
