<svg xmlns="http://www.w3.org/2000/svg" width="3072" height="3072" viewBox="0 0 3072 3072">
  <title>QuartzOS App Icon 058 - vector_board_058</title>
  <defs><linearGradient id="bg57" x1="0%" y1="0%" x2="100%" y2="100%"><stop offset="0%" stop-color="#3B82FF" /><stop offset="26%" stop-color="#FF6AB3" /><stop offset="56%" stop-color="#FFD84D" /><stop offset="78%" stop-color="#4F79A7" /><stop offset="100%" stop-color="#1B2630" /></linearGradient><radialGradient id="sun57" cx="28%" cy="33%" r="88%"><stop offset="0%" stop-color="#FFFFFF" stop-opacity="0.62" /><stop offset="30%" stop-color="#53E3A6" stop-opacity="0.35" /><stop offset="100%" stop-color="#53E3A6" stop-opacity="0" /></radialGradient><linearGradient id="glass57" x1="0%" y1="0%" x2="0%" y2="100%"><stop offset="0%" stop-color="#FFFFFF" stop-opacity="0.70" /><stop offset="46%" stop-color="#FFFFFF" stop-opacity="0.26" /><stop offset="100%" stop-color="#FFFFFF" stop-opacity="0.00" /></linearGradient><linearGradient id="ribbon57" x1="0%" y1="0%" x2="100%" y2="0%"><stop offset="0%" stop-color="#3B82FF" stop-opacity="0.18" /><stop offset="34%" stop-color="#FF6AB3" stop-opacity="0.72" /><stop offset="66%" stop-color="#FFD84D" stop-opacity="0.72" /><stop offset="100%" stop-color="#53E3A6" stop-opacity="0.18" /></linearGradient><radialGradient id="orb57" cx="34%" cy="27%" r="74%"><stop offset="0%" stop-color="#FFFFFF" stop-opacity="0.84" /><stop offset="30%" stop-color="#3B82FF" stop-opacity="0.52" /><stop offset="68%" stop-color="#FF6AB3" stop-opacity="0.42" /><stop offset="100%" stop-color="#FFD84D" stop-opacity="0.20" /></radialGradient><linearGradient id="extrude57" x1="0%" y1="0%" x2="0%" y2="100%"><stop offset="0%" stop-color="#15283C" stop-opacity="0.45" /><stop offset="100%" stop-color="#08131D" stop-opacity="0.06" /></linearGradient><linearGradient id="symbol57" x1="0%" y1="0%" x2="100%" y2="100%"><stop offset="0%" stop-color="#FFFFFF" /><stop offset="100%" stop-color="#53E3A6" /></linearGradient><filter id="shadow57" x="-40%" y="-40%" width="180%" height="180%"><feDropShadow dx="0" dy="49" stdDeviation="86" flood-color="#06111A" flood-opacity="0.54" /></filter><filter id="soft57" x="-40%" y="-40%" width="180%" height="180%"><feDropShadow dx="0" dy="0" stdDeviation="14" flood-color="#3B82FF" flood-opacity="0.45" /></filter><filter id="grain57"><feTurbulence type="fractalNoise" baseFrequency="0.721" numOctaves="2" seed="57" /><feColorMatrix type="saturate" values="0" /><feComponentTransfer><feFuncA type="table" tableValues="0 0.09" /></feComponentTransfer></filter></defs>
  <rect x="138" y="138" width="2796" height="2796" rx="629" fill="url(#bg57)" filter="url(#shadow57)" />
  <rect x="138" y="138" width="2796" height="2796" rx="629" fill="url(#sun57)" />
  <g><circle cx="993" cy="2333" r="94" fill="#FFFFFF" opacity="0.063" /><circle cx="500" cy="2417" r="93" fill="#FFFFFF" opacity="0.099" /><circle cx="712" cy="2340" r="127" fill="#FFFFFF" opacity="0.225" /><circle cx="2637" cy="870" r="52" fill="#FFFFFF" opacity="0.210" /><circle cx="1448" cy="802" r="127" fill="#FFFFFF" opacity="0.148" /><circle cx="2058" cy="1655" r="53" fill="#FFFFFF" opacity="0.209" /><circle cx="1761" cy="2284" r="149" fill="#FFFFFF" opacity="0.199" /><circle cx="2302" cy="1784" r="83" fill="#FFFFFF" opacity="0.138" /><circle cx="2205" cy="1993" r="101" fill="#FFFFFF" opacity="0.077" /><circle cx="2552" cy="1173" r="108" fill="#FFFFFF" opacity="0.083" /><circle cx="1563" cy="2551" r="119" fill="#FFFFFF" opacity="0.133" /><circle cx="650" cy="2121" r="99" fill="#FFFFFF" opacity="0.062" /><circle cx="808" cy="2173" r="51" fill="#FFFFFF" opacity="0.091" /><circle cx="1506" cy="1756" r="153" fill="#FFFFFF" opacity="0.195" /><circle cx="788" cy="2160" r="154" fill="#FFFFFF" opacity="0.208" /><circle cx="564" cy="1394" r="99" fill="#FFFFFF" opacity="0.064" /><circle cx="648" cy="2555" r="48" fill="#FFFFFF" opacity="0.200" /><circle cx="676" cy="1682" r="71" fill="#FFFFFF" opacity="0.168" /><circle cx="1646" cy="358" r="94" fill="#FFFFFF" opacity="0.065" /><circle cx="1693" cy="2673" r="61" fill="#FFFFFF" opacity="0.230" /><circle cx="2357" cy="2255" r="60" fill="#FFFFFF" opacity="0.109" /><circle cx="2454" cy="1664" r="81" fill="#FFFFFF" opacity="0.127" /><circle cx="1620" cy="1562" r="90" fill="#FFFFFF" opacity="0.170" /><circle cx="1178" cy="758" r="38" fill="#FFFFFF" opacity="0.209" /><circle cx="2201" cy="843" r="50" fill="#FFFFFF" opacity="0.212" /><circle cx="1249" cy="2605" r="96" fill="#FFFFFF" opacity="0.085" /><circle cx="1193" cy="1130" r="90" fill="#FFFFFF" opacity="0.110" /><circle cx="1390" cy="1495" r="136" fill="#FFFFFF" opacity="0.221" /></g>
  <g><path d="M 206.4 638.5 L 2747.3 362.0 L 2747.3 789.8 L 206.4 1066.3 Z" fill="#FFFFFF" opacity="0.094" /><path d="M 217.7 854.5 L 2897.3 578.0 L 2897.3 1060.1 L 217.7 1336.5 Z" fill="#FFFFFF" opacity="0.212" /><path d="M 257.9 1113.5 L 2779.1 837.0 L 2779.1 1256.6 L 257.9 1533.1 Z" fill="#FFFFFF" opacity="0.195" /><path d="M 240.1 1358.0 L 2740.5 1081.5 L 2740.5 1557.2 L 240.1 1833.7 Z" fill="#FFFFFF" opacity="0.193" /><path d="M 202.5 1680.2 L 2818.7 1403.7 L 2818.7 1830.8 L 202.5 2107.3 Z" fill="#FFFFFF" opacity="0.177" /><path d="M 294.1 1934.7 L 2874.1 1658.2 L 2874.1 2130.7 L 294.1 2407.2 Z" fill="#FFFFFF" opacity="0.179" /><path d="M 280.8 2217.6 L 2753.2 1941.1 L 2753.2 2359.7 L 280.8 2636.2 Z" fill="#FFFFFF" opacity="0.218" /><path d="M 280.0 2462.6 L 2878.2 2186.2 L 2878.2 2610.6 L 280.0 2887.1 Z" fill="#FFFFFF" opacity="0.139" /></g>
  <g filter="url(#soft57)"><g transform="rotate(-9.92 1536.0 1536.0)"><path d="M-368.6 576.5 C -225.8 586.1, -25.8 568.1, 107.5 621.2 C 250.4 636.5, 450.4 547.1, 583.7 631.0 C 726.5 624.8, 926.5 532.0, 1059.8 607.8 C 1202.7 613.3, 1402.7 558.7, 1536.0 565.6 C 1678.8 566.4, 1878.8 585.5, 2012.2 530.0 C 2155.0 535.8, 2355.0 606.0, 2488.3 522.7 C 2631.2 509.2, 2831.2 620.3, 2964.5 548.0 C 3107.3 553.9, 3307.3 602.1, 3440.6 590.6" fill="none" stroke="url(#ribbon57)" stroke-width="58.4" stroke-linecap="round" stroke-opacity="0.120" /></g><g transform="rotate(-9.34 1536.0 1536.0)"><path d="M-368.6 696.9 C -241.7 729.7, -63.9 657.4, 54.6 758.1 C 181.6 779.9, 359.4 627.0, 477.9 748.2 C 604.8 731.0, 782.6 651.1, 901.1 707.2 C 1028.1 708.7, 1205.9 693.3, 1324.4 659.9 C 1451.3 658.8, 1629.1 726.5, 1747.6 635.1 C 1874.6 620.7, 2052.4 744.8, 2170.9 647.8 C 2297.9 641.8, 2475.6 715.0, 2594.1 690.2 C 2721.1 691.5, 2898.9 700.2, 3017.4 736.7 C 3144.4 741.1, 3322.1 656.3, 3440.6 759.1" fill="none" stroke="url(#ribbon57)" stroke-width="54.4" stroke-linecap="round" stroke-opacity="0.146" /></g><g transform="rotate(-8.76 1536.0 1536.0)"><path d="M-368.6 934.3 C -254.4 978.2, -94.4 902.1, 12.3 1003.7 C 126.6 1012.7, 286.6 873.5, 393.2 981.5 C 507.5 983.5, 667.5 912.6, 774.1 930.6 C 888.4 930.9, 1048.4 935.6, 1155.1 882.0 C 1269.4 866.4, 1429.3 952.5, 1536.0 865.1 C 1650.3 845.4, 1810.3 971.7, 1916.9 890.1 C 2031.2 876.7, 2191.2 965.9, 2297.9 942.0 C 2412.1 942.3, 2572.1 930.5, 2678.8 989.1 C 2793.1 986.4, 2953.1 889.3, 3059.7 1003.0 C 3174.0 990.6, 3334.0 866.3, 3440.6 975.2" fill="none" stroke="url(#ribbon57)" stroke-width="50.4" stroke-linecap="round" stroke-opacity="0.172" /></g><g transform="rotate(-8.18 1536.0 1536.0)"><path d="M-368.6 1050.7 C -264.8 1043.1, -119.3 1056.2, -22.3 1096.2 C 81.5 1087.2, 227.0 1019.5, 324.0 1126.5 C 427.8 1129.7, 573.3 981.2, 670.3 1110.9 C 774.1 1118.1, 919.6 999.8, 1016.6 1058.8 C 1120.4 1058.7, 1265.9 1042.1, 1362.9 1001.8 C 1466.7 986.1, 1612.2 1098.8, 1709.1 974.5 C 1813.0 956.8, 1958.5 1139.1, 2055.4 993.5 C 2159.3 999.8, 2304.8 1105.4, 2401.7 1047.2 C 2505.6 1046.0, 2651.1 1053.5, 2748.0 1103.1 C 2851.9 1118.1, 2997.4 992.8, 3094.3 1127.2 C 3198.2 1119.8, 3343.7 983.1, 3440.6 1105.0" fill="none" stroke="url(#ribbon57)" stroke-width="46.4" stroke-linecap="round" stroke-opacity="0.198" /></g><g transform="rotate(-7.60 1536.0 1536.0)"><path d="M-368.6 1298.5 C -273.4 1242.4, -140.1 1369.2, -51.2 1275.6 C 44.0 1283.5, 177.4 1320.5, 266.2 1340.2 C 361.5 1336.8, 494.8 1281.5, 583.7 1379.5 C 678.9 1367.3, 812.2 1270.6, 901.1 1369.7 C 996.4 1386.0, 1129.7 1275.4, 1218.6 1316.8 C 1313.8 1317.5, 1447.1 1279.7, 1536.0 1252.8 C 1631.2 1250.2, 1764.6 1328.4, 1853.4 1216.5 C 1948.7 1234.1, 2082.0 1357.5, 2170.9 1230.0 C 2266.1 1228.3, 2399.4 1362.1, 2488.3 1285.1 C 2583.6 1289.4, 2716.9 1307.0, 2805.8 1348.3 C 2901.0 1359.1, 3034.3 1243.6, 3123.2 1381.4 C 3218.4 1383.5, 3351.8 1257.8, 3440.6 1364.2" fill="none" stroke="url(#ribbon57)" stroke-width="42.4" stroke-linecap="round" stroke-opacity="0.224" /></g><g transform="rotate(-7.02 1536.0 1536.0)"><path d="M-368.6 1467.4 C -225.8 1440.6, -25.8 1481.3, 107.5 1494.1 C 250.4 1485.9, 450.4 1447.3, 583.7 1548.1 C 726.5 1565.6, 926.5 1412.7, 1059.8 1553.2 C 1202.7 1527.8, 1402.7 1425.3, 1536.0 1506.3 C 1678.8 1521.5, 1878.8 1440.8, 2012.2 1435.8 C 2155.0 1433.1, 2355.0 1502.9, 2488.3 1384.5 C 2631.2 1391.3, 2831.2 1563.5, 2964.5 1383.5 C 3107.3 1366.7, 3307.3 1506.4, 3440.6 1433.4" fill="none" stroke="url(#ribbon57)" stroke-width="38.4" stroke-linecap="round" stroke-opacity="0.250" /></g><g transform="rotate(-6.44 1536.0 1536.0)"><path d="M-368.6 1729.6 C -241.7 1660.4, -63.9 1772.8, 54.6 1633.7 C 181.6 1640.3, 359.4 1841.8, 477.9 1676.3 C 604.8 1655.8, 782.6 1775.0, 901.1 1751.1 C 1028.1 1754.8, 1205.9 1715.8, 1324.4 1813.0 C 1451.3 1794.3, 1629.1 1692.7, 1747.6 1824.2 C 1874.6 1794.3, 2052.4 1677.1, 2170.9 1778.1 C 2297.9 1775.9, 2475.6 1678.8, 2594.1 1702.6 C 2721.1 1698.5, 2898.9 1761.0, 3017.4 1643.4 C 3144.4 1650.1, 3322.1 1827.6, 3440.6 1636.6" fill="none" stroke="url(#ribbon57)" stroke-width="34.4" stroke-linecap="round" stroke-opacity="0.276" /></g><g transform="rotate(-5.86 1536.0 1536.0)"><path d="M-368.6 1914.1 C -254.4 1859.1, -94.4 1941.5, 12.3 1816.7 C 126.6 1838.5, 286.6 1960.8, 393.2 1818.7 C 507.5 1850.6, 667.5 1964.6, 774.1 1878.5 C 888.4 1871.4, 1048.4 1934.7, 1155.1 1960.0 C 1269.4 1957.8, 1429.3 1891.0, 1536.0 2013.7 C 1650.3 1979.3, 1810.3 1876.8, 1916.9 2006.9 C 2031.2 2043.0, 2191.2 1880.9, 2297.9 1943.9 C 2412.1 1955.8, 2572.1 1887.4, 2678.8 1862.9 C 2793.1 1866.7, 2953.1 1960.6, 3059.7 1812.9 C 3174.0 1810.0, 3334.0 1960.8, 3440.6 1824.3" fill="none" stroke="url(#ribbon57)" stroke-width="30.4" stroke-linecap="round" stroke-opacity="0.302" /></g><g transform="rotate(-5.28 1536.0 1536.0)"><path d="M-368.6 2057.6 C -264.8 1958.5, -119.3 2094.1, -22.3 1995.6 C 81.5 2019.4, 227.0 2098.6, 324.0 2081.2 C 427.8 2085.2, 573.3 2030.8, 670.3 2152.5 C 774.1 2169.4, 919.6 1957.2, 1016.6 2166.2 C 1120.4 2170.0, 1265.9 1973.3, 1362.9 2114.1 C 1466.7 2123.0, 1612.2 2029.8, 1709.1 2027.8 C 1813.0 2020.5, 1958.5 2087.0, 2055.4 1959.5 C 2159.3 1947.6, 2304.8 2138.8, 2401.7 1950.8 C 2505.6 1989.0, 2651.1 2107.9, 2748.0 2006.9 C 2851.9 2016.0, 2997.4 2088.7, 3094.3 2093.7 C 3198.2 2093.4, 3343.7 2016.3, 3440.6 2158.7" fill="none" stroke="url(#ribbon57)" stroke-width="26.4" stroke-linecap="round" stroke-opacity="0.328" /></g><g transform="rotate(-4.70 1536.0 1536.0)"><path d="M-368.6 2305.9 C -273.4 2392.5, -140.1 2276.8, -51.2 2304.1 C 44.0 2303.7, 177.4 2306.5, 266.2 2219.4 C 361.5 2228.8, 494.8 2357.6, 583.7 2187.2 C 678.9 2216.1, 812.2 2353.2, 901.1 2226.9 C 996.4 2200.5, 1129.7 2331.1, 1218.6 2314.6 C 1313.8 2315.8, 1447.1 2300.5, 1536.0 2397.1 C 1631.2 2394.4, 1764.6 2205.2, 1853.4 2424.2 C 1948.7 2442.5, 2082.0 2164.1, 2170.9 2379.6 C 2266.1 2390.6, 2399.4 2247.4, 2488.3 2290.3 C 2583.6 2287.2, 2716.9 2318.0, 2805.8 2210.5 C 2901.0 2187.6, 3034.3 2337.8, 3123.2 2188.6 C 3218.4 2161.9, 3351.8 2412.8, 3440.6 2237.8" fill="none" stroke="url(#ribbon57)" stroke-width="22.4" stroke-linecap="round" stroke-opacity="0.354" /></g><g transform="rotate(-4.12 1536.0 1536.0)"><path d="M-368.6 2427.9 C -225.8 2522.7, -25.8 2376.4, 107.5 2553.8 C 250.4 2503.9, 450.4 2304.0, 583.7 2513.8 C 726.5 2502.5, 926.5 2354.7, 1059.8 2421.7 C 1202.7 2422.4, 1402.7 2433.0, 1536.0 2333.4 C 1678.8 2338.6, 1878.8 2531.7, 2012.2 2302.3 C 2155.0 2351.3, 2355.0 2534.6, 2488.3 2347.4 C 2631.2 2369.5, 2831.2 2512.3, 2964.5 2441.4 C 3107.3 2442.0, 3307.3 2420.8, 3440.6 2527.1" fill="none" stroke="url(#ribbon57)" stroke-width="18.4" stroke-linecap="round" stroke-opacity="0.380" /></g><g transform="rotate(-3.54 1536.0 1536.0)"><path d="M-368.6 2698.7 C -241.7 2695.3, -63.9 2700.7, 54.6 2792.2 C 181.6 2760.6, 359.4 2588.6, 477.9 2831.7 C 604.8 2852.7, 782.6 2562.7, 901.1 2790.5 C 1028.1 2820.7, 1205.9 2641.5, 1324.4 2693.6 C 1451.3 2694.5, 1629.1 2700.9, 1747.6 2599.8 C 1874.6 2592.8, 2052.4 2784.5, 2170.9 2566.0 C 2297.9 2557.6, 2475.6 2750.5, 2594.1 2612.6 C 2721.1 2610.0, 2898.9 2759.1, 3017.4 2711.5 C 3144.4 2706.5, 3322.1 2685.8, 3440.6 2802.6" fill="none" stroke="url(#ribbon57)" stroke-width="14.4" stroke-linecap="round" stroke-opacity="0.406" /></g></g>
  <g><ellipse cx="1536.0" cy="1551.9" rx="728.6" ry="605.7" fill="url(#extrude57)" opacity="0.220" /><ellipse cx="1536.0" cy="1567.7" rx="736.0" ry="610.9" fill="url(#extrude57)" opacity="0.205" /><ellipse cx="1536.0" cy="1583.6" rx="743.4" ry="616.1" fill="url(#extrude57)" opacity="0.190" /><ellipse cx="1536.0" cy="1599.5" rx="750.9" ry="621.3" fill="url(#extrude57)" opacity="0.175" /><ellipse cx="1536.0" cy="1615.4" rx="758.3" ry="626.5" fill="url(#extrude57)" opacity="0.160" /><ellipse cx="1536.0" cy="1631.2" rx="765.7" ry="631.7" fill="url(#extrude57)" opacity="0.145" /><ellipse cx="1536.0" cy="1647.1" rx="773.2" ry="636.9" fill="url(#extrude57)" opacity="0.130" /><ellipse cx="1536.0" cy="1663.0" rx="780.6" ry="642.1" fill="url(#extrude57)" opacity="0.115" /><ellipse cx="1536.0" cy="1678.8" rx="788.0" ry="647.4" fill="url(#extrude57)" opacity="0.100" /><ellipse cx="1536.0" cy="1694.7" rx="795.5" ry="652.6" fill="url(#extrude57)" opacity="0.085" /><ellipse cx="1536.0" cy="1710.6" rx="802.9" ry="657.8" fill="url(#extrude57)" opacity="0.070" /><ellipse cx="1536.0" cy="1726.5" rx="810.3" ry="663.0" fill="url(#extrude57)" opacity="0.055" /></g>
  <ellipse cx="1536.0" cy="1726.5" rx="773.2" ry="214.9" fill="#0B1D2D" opacity="0.24" />
  <ellipse cx="1536.0" cy="1536.0" rx="743.4" ry="651.3" fill="url(#orb57)" stroke="#FFFFFF" stroke-opacity="0.42" stroke-width="7" />
  <ellipse cx="1431.9" cy="1392.7" rx="505.5" ry="299.6" fill="#FFFFFF" opacity="0.25" />
  <path d="M 199.4 399.4 C 1013.8 -30.7, 2058.2 768.0, 2872.6 215.0 L 2872.6 983.0 C 2089.0 1228.8, 1013.8 307.2, 199.4 1167.4 Z" fill="url(#glass57)" />
  <rect x="270" y="270" width="2532" height="2532" rx="430" fill="none" stroke="#FFFFFF" stroke-opacity="0.30" stroke-width="5" />
  <rect x="288.4" y="288.4" width="2495.1" height="2495.1" rx="399" fill="none" stroke="#3B82FF" stroke-opacity="0.35" stroke-width="3" />
  <g filter="url(#soft57)"><rect x="406" y="294" width="60" height="2" fill="#FFFFFF" opacity="0.677" /><rect x="435" y="265" width="2" height="60" fill="#FFFFFF" opacity="0.677" /><rect x="574" y="1656" width="42" height="2" fill="#FFFFFF" opacity="0.302" /><rect x="594" y="1636" width="2" height="42" fill="#FFFFFF" opacity="0.302" /><rect x="1441" y="2671" width="48" height="2" fill="#FFFFFF" opacity="0.395" /><rect x="1464" y="2648" width="2" height="48" fill="#FFFFFF" opacity="0.395" /><rect x="505" y="772" width="34" height="2" fill="#FFFFFF" opacity="0.315" /><rect x="521" y="756" width="2" height="34" fill="#FFFFFF" opacity="0.315" /><rect x="2221" y="686" width="72" height="2" fill="#FFFFFF" opacity="0.534" /><rect x="2256" y="651" width="2" height="72" fill="#FFFFFF" opacity="0.534" /><rect x="1209" y="2281" width="44" height="2" fill="#FFFFFF" opacity="0.554" /><rect x="1230" y="2260" width="2" height="44" fill="#FFFFFF" opacity="0.554" /><rect x="2330" y="2431" width="54" height="2" fill="#FFFFFF" opacity="0.601" /><rect x="2356" y="2405" width="2" height="54" fill="#FFFFFF" opacity="0.601" /><rect x="946" y="1981" width="48" height="2" fill="#FFFFFF" opacity="0.829" /><rect x="969" y="1958" width="2" height="48" fill="#FFFFFF" opacity="0.829" /><rect x="2080" y="1926" width="26" height="2" fill="#FFFFFF" opacity="0.685" /><rect x="2092" y="1914" width="2" height="26" fill="#FFFFFF" opacity="0.685" /><rect x="2700" y="1308" width="30" height="2" fill="#FFFFFF" opacity="0.679" /><rect x="2714" y="1294" width="2" height="30" fill="#FFFFFF" opacity="0.679" /><rect x="2596" y="2362" width="72" height="2" fill="#FFFFFF" opacity="0.690" /><rect x="2631" y="2327" width="2" height="72" fill="#FFFFFF" opacity="0.690" /><rect x="1670" y="1381" width="50" height="2" fill="#FFFFFF" opacity="0.623" /><rect x="1694" y="1357" width="2" height="50" fill="#FFFFFF" opacity="0.623" /><rect x="2349" y="2355" width="84" height="2" fill="#FFFFFF" opacity="0.577" /><rect x="2390" y="2314" width="2" height="84" fill="#FFFFFF" opacity="0.577" /><rect x="2038" y="345" width="26" height="2" fill="#FFFFFF" opacity="0.561" /><rect x="2050" y="333" width="2" height="26" fill="#FFFFFF" opacity="0.561" /><rect x="2410" y="612" width="70" height="2" fill="#FFFFFF" opacity="0.496" /><rect x="2444" y="578" width="2" height="70" fill="#FFFFFF" opacity="0.496" /><rect x="2124" y="1588" width="62" height="2" fill="#FFFFFF" opacity="0.816" /><rect x="2154" y="1558" width="2" height="62" fill="#FFFFFF" opacity="0.816" /><rect x="717" y="1389" width="46" height="2" fill="#FFFFFF" opacity="0.821" /><rect x="739" y="1367" width="2" height="46" fill="#FFFFFF" opacity="0.821" /><rect x="1485" y="2583" width="40" height="2" fill="#FFFFFF" opacity="0.331" /><rect x="1504" y="2564" width="2" height="40" fill="#FFFFFF" opacity="0.331" /><rect x="299" y="581" width="48" height="2" fill="#FFFFFF" opacity="0.421" /><rect x="322" y="558" width="2" height="48" fill="#FFFFFF" opacity="0.421" /><rect x="1464" y="2159" width="26" height="2" fill="#FFFFFF" opacity="0.800" /><rect x="1476" y="2147" width="2" height="26" fill="#FFFFFF" opacity="0.800" /><rect x="1351" y="307" width="24" height="2" fill="#FFFFFF" opacity="0.343" /><rect x="1362" y="296" width="2" height="24" fill="#FFFFFF" opacity="0.343" /><rect x="2427" y="994" width="58" height="2" fill="#FFFFFF" opacity="0.815" /><rect x="2455" y="966" width="2" height="58" fill="#FFFFFF" opacity="0.815" /><rect x="2110" y="1622" width="46" height="2" fill="#FFFFFF" opacity="0.777" /><rect x="2132" y="1600" width="2" height="46" fill="#FFFFFF" opacity="0.777" /><rect x="2360" y="383" width="58" height="2" fill="#FFFFFF" opacity="0.336" /><rect x="2388" y="355" width="2" height="58" fill="#FFFFFF" opacity="0.336" /><rect x="1381" y="517" width="82" height="2" fill="#FFFFFF" opacity="0.681" /><rect x="1421" y="477" width="2" height="82" fill="#FFFFFF" opacity="0.681" /><rect x="1750" y="1787" width="62" height="2" fill="#FFFFFF" opacity="0.680" /><rect x="1780" y="1757" width="2" height="62" fill="#FFFFFF" opacity="0.680" /></g>
  <g opacity="0.52"><rect x="1060" y="1070" width="1024" height="1024" rx="153" fill="none" stroke="#0C2030" stroke-width="90" /><line x1="1316" y1="1326" x2="1828" y2="1838" stroke="#0C2030" stroke-width="90" stroke-linecap="round" /><line x1="1828" y1="1326" x2="1316" y2="1838" stroke="#0C2030" stroke-width="90" stroke-linecap="round" /></g>
  <g filter="url(#soft57)"><rect x="1024" y="1024" width="1024" height="1024" rx="153" fill="none" stroke="url(#symbol57)" stroke-width="90" /><line x1="1280" y1="1280" x2="1792" y2="1792" stroke="url(#symbol57)" stroke-width="90" stroke-linecap="round" /><line x1="1792" y1="1280" x2="1280" y2="1792" stroke="url(#symbol57)" stroke-width="90" stroke-linecap="round" /></g>
  <rect x="138" y="138" width="2796" height="2796" rx="629" fill="#FFFFFF" filter="url(#grain57)" opacity="0.18" />
</svg>
