<svg xmlns="http://www.w3.org/2000/svg" width="3072" height="3072" viewBox="0 0 3072 3072">
  <title>QuartzOS App Icon 158 - vector_viewer_158</title>
  <defs><linearGradient id="bg157" x1="0%" y1="0%" x2="100%" y2="100%"><stop offset="0%" stop-color="#FF6AB3" /><stop offset="26%" stop-color="#FFD84D" /><stop offset="56%" stop-color="#36D1FF" /><stop offset="78%" stop-color="#2E8D96" /><stop offset="100%" stop-color="#0F2A2E" /></linearGradient><radialGradient id="sun157" cx="26%" cy="21%" r="88%"><stop offset="0%" stop-color="#FFFFFF" stop-opacity="0.62" /><stop offset="30%" stop-color="#3B82FF" stop-opacity="0.35" /><stop offset="100%" stop-color="#3B82FF" stop-opacity="0" /></radialGradient><linearGradient id="glass157" x1="0%" y1="0%" x2="0%" y2="100%"><stop offset="0%" stop-color="#FFFFFF" stop-opacity="0.70" /><stop offset="46%" stop-color="#FFFFFF" stop-opacity="0.26" /><stop offset="100%" stop-color="#FFFFFF" stop-opacity="0.00" /></linearGradient><linearGradient id="ribbon157" x1="0%" y1="0%" x2="100%" y2="0%"><stop offset="0%" stop-color="#FF6AB3" stop-opacity="0.18" /><stop offset="34%" stop-color="#FFD84D" stop-opacity="0.72" /><stop offset="66%" stop-color="#36D1FF" stop-opacity="0.72" /><stop offset="100%" stop-color="#3B82FF" stop-opacity="0.18" /></linearGradient><radialGradient id="orb157" cx="34%" cy="27%" r="74%"><stop offset="0%" stop-color="#FFFFFF" stop-opacity="0.84" /><stop offset="30%" stop-color="#FF6AB3" stop-opacity="0.52" /><stop offset="68%" stop-color="#FFD84D" stop-opacity="0.42" /><stop offset="100%" stop-color="#36D1FF" stop-opacity="0.20" /></radialGradient><linearGradient id="extrude157" x1="0%" y1="0%" x2="0%" y2="100%"><stop offset="0%" stop-color="#15283C" stop-opacity="0.45" /><stop offset="100%" stop-color="#08131D" stop-opacity="0.06" /></linearGradient><linearGradient id="symbol157" x1="0%" y1="0%" x2="100%" y2="100%"><stop offset="0%" stop-color="#FFFFFF" /><stop offset="100%" stop-color="#3B82FF" /></linearGradient><filter id="shadow157" x="-40%" y="-40%" width="180%" height="180%"><feDropShadow dx="0" dy="49" stdDeviation="86" flood-color="#06111A" flood-opacity="0.54" /></filter><filter id="soft157" x="-40%" y="-40%" width="180%" height="180%"><feDropShadow dx="0" dy="0" stdDeviation="14" flood-color="#FF6AB3" flood-opacity="0.45" /></filter><filter id="grain157"><feTurbulence type="fractalNoise" baseFrequency="0.724" numOctaves="2" seed="157" /><feColorMatrix type="saturate" values="0" /><feComponentTransfer><feFuncA type="table" tableValues="0 0.09" /></feComponentTransfer></filter></defs>
  <rect x="138" y="138" width="2796" height="2796" rx="629" fill="url(#bg157)" filter="url(#shadow157)" />
  <rect x="138" y="138" width="2796" height="2796" rx="629" fill="url(#sun157)" />
  <g><circle cx="2381" cy="1579" r="120" fill="#FFFFFF" opacity="0.125" /><circle cx="2167" cy="496" r="58" fill="#FFFFFF" opacity="0.145" /><circle cx="705" cy="2649" r="57" fill="#FFFFFF" opacity="0.224" /><circle cx="581" cy="653" r="126" fill="#FFFFFF" opacity="0.125" /><circle cx="2420" cy="1808" r="154" fill="#FFFFFF" opacity="0.209" /><circle cx="663" cy="2132" r="97" fill="#FFFFFF" opacity="0.185" /><circle cx="428" cy="1071" r="52" fill="#FFFFFF" opacity="0.188" /><circle cx="1668" cy="2683" r="109" fill="#FFFFFF" opacity="0.217" /><circle cx="2455" cy="2461" r="148" fill="#FFFFFF" opacity="0.139" /><circle cx="1433" cy="2634" r="127" fill="#FFFFFF" opacity="0.176" /><circle cx="1086" cy="1205" r="129" fill="#FFFFFF" opacity="0.219" /><circle cx="2379" cy="1154" r="151" fill="#FFFFFF" opacity="0.118" /><circle cx="565" cy="639" r="62" fill="#FFFFFF" opacity="0.103" /><circle cx="1914" cy="2245" r="37" fill="#FFFFFF" opacity="0.176" /><circle cx="2296" cy="904" r="105" fill="#FFFFFF" opacity="0.215" /><circle cx="2219" cy="1721" r="154" fill="#FFFFFF" opacity="0.090" /><circle cx="420" cy="2172" r="83" fill="#FFFFFF" opacity="0.187" /><circle cx="2109" cy="688" r="45" fill="#FFFFFF" opacity="0.098" /><circle cx="1459" cy="832" r="134" fill="#FFFFFF" opacity="0.114" /><circle cx="1286" cy="2405" r="151" fill="#FFFFFF" opacity="0.126" /><circle cx="2675" cy="2596" r="111" fill="#FFFFFF" opacity="0.115" /><circle cx="648" cy="2105" r="58" fill="#FFFFFF" opacity="0.170" /><circle cx="1498" cy="2215" r="67" fill="#FFFFFF" opacity="0.172" /><circle cx="1005" cy="927" r="42" fill="#FFFFFF" opacity="0.223" /><circle cx="1028" cy="1678" r="100" fill="#FFFFFF" opacity="0.071" /><circle cx="2516" cy="831" r="142" fill="#FFFFFF" opacity="0.139" /><circle cx="2245" cy="2203" r="51" fill="#FFFFFF" opacity="0.165" /><circle cx="2521" cy="2052" r="55" fill="#FFFFFF" opacity="0.127" /></g>
  <g><path d="M 236.0 618.1 L 2691.2 341.6 L 2691.2 768.2 L 236.0 1044.7 Z" fill="#FFFFFF" opacity="0.131" /><path d="M 336.3 845.1 L 2722.0 568.6 L 2722.0 1014.0 L 336.3 1290.4 Z" fill="#FFFFFF" opacity="0.140" /><path d="M 357.7 1161.2 L 2684.9 884.7 L 2684.9 1324.3 L 357.7 1600.8 Z" fill="#FFFFFF" opacity="0.183" /><path d="M 156.8 1399.7 L 2912.1 1123.2 L 2912.1 1557.0 L 156.8 1833.5 Z" fill="#FFFFFF" opacity="0.125" /><path d="M 206.6 1689.9 L 2796.5 1413.4 L 2796.5 1890.4 L 206.6 2166.8 Z" fill="#FFFFFF" opacity="0.132" /><path d="M 281.5 1886.7 L 2816.2 1610.2 L 2816.2 2089.1 L 281.5 2365.6 Z" fill="#FFFFFF" opacity="0.231" /><path d="M 352.9 2154.5 L 2683.5 1878.0 L 2683.5 2368.4 L 352.9 2644.9 Z" fill="#FFFFFF" opacity="0.222" /><path d="M 308.3 2454.6 L 2720.3 2178.1 L 2720.3 2618.2 L 308.3 2894.7 Z" fill="#FFFFFF" opacity="0.091" /></g>
  <g filter="url(#soft157)"><g transform="rotate(-12.39 1536.0 1536.0)"><path d="M-368.6 480.8 C -225.8 429.0, -25.8 498.6, 107.5 425.7 C 250.4 406.9, 450.4 532.6, 583.7 444.8 C 726.5 456.5, 926.5 523.6, 1059.8 485.8 C 1202.7 487.2, 1402.7 476.0, 1536.0 523.8 C 1678.8 508.1, 1878.8 431.9, 2012.2 535.7 C 2155.0 550.5, 2355.0 463.5, 2488.3 514.4 C 2631.2 518.8, 2831.2 444.5, 2964.5 472.7 C 3107.3 475.5, 3307.3 489.3, 3440.6 435.9" fill="none" stroke="url(#ribbon157)" stroke-width="58.4" stroke-linecap="round" stroke-opacity="0.120" /></g><g transform="rotate(-11.81 1536.0 1536.0)"><path d="M-368.6 706.5 C -241.7 767.5, -63.9 641.1, 54.6 729.4 C 181.6 737.0, 359.4 699.0, 477.9 680.9 C 604.8 682.6, 782.6 735.5, 901.1 647.9 C 1028.1 636.5, 1205.9 729.7, 1324.4 650.4 C 1451.3 656.7, 1629.1 768.2, 1747.6 686.9 C 1874.6 692.2, 2052.4 715.7, 2170.9 735.3 C 2297.9 726.3, 2475.6 689.3, 2594.1 766.2 C 2721.1 752.3, 2898.9 643.8, 3017.4 760.9 C 3144.4 761.7, 3322.1 669.4, 3440.6 722.5" fill="none" stroke="url(#ribbon157)" stroke-width="54.4" stroke-linecap="round" stroke-opacity="0.146" /></g><g transform="rotate(-11.23 1536.0 1536.0)"><path d="M-368.6 889.6 C -254.4 940.0, -94.4 829.5, 12.3 958.7 C 126.6 981.2, 286.6 855.1, 393.2 933.2 C 507.5 920.1, 667.5 866.1, 774.1 881.2 C 888.4 878.6, 1048.4 892.8, 1155.1 834.3 C 1269.4 848.7, 1429.3 937.8, 1536.0 820.9 C 1650.3 805.3, 1810.3 912.5, 1916.9 849.1 C 2031.2 843.2, 2191.2 913.7, 2297.9 901.9 C 2412.1 900.8, 2572.1 880.3, 2678.8 947.2 C 2793.1 968.3, 2953.1 850.7, 3059.7 957.5 C 3174.0 941.0, 3334.0 855.5, 3440.6 926.6" fill="none" stroke="url(#ribbon157)" stroke-width="50.4" stroke-linecap="round" stroke-opacity="0.172" /></g><g transform="rotate(-10.65 1536.0 1536.0)"><path d="M-368.6 1148.8 C -264.8 1152.6, -119.3 1147.5, -22.3 1096.7 C 81.5 1079.2, 227.0 1177.5, 324.0 1072.3 C 427.8 1101.6, 573.3 1194.5, 670.3 1094.2 C 774.1 1099.6, 919.6 1173.3, 1016.6 1149.3 C 1120.4 1149.3, 1265.9 1148.2, 1362.9 1204.0 C 1466.7 1192.3, 1612.2 1082.7, 1709.1 1225.2 C 1813.0 1214.9, 1958.5 1105.6, 2055.4 1200.1 C 2159.3 1210.2, 2304.8 1100.5, 2401.7 1143.8 C 2505.6 1144.7, 2651.1 1152.5, 2748.0 1090.6 C 2851.9 1077.2, 2997.4 1201.0, 3094.3 1072.6 C 3198.2 1064.9, 3343.7 1205.3, 3440.6 1100.9" fill="none" stroke="url(#ribbon157)" stroke-width="46.4" stroke-linecap="round" stroke-opacity="0.198" /></g><g transform="rotate(-10.07 1536.0 1536.0)"><path d="M-368.6 1277.7 C -273.4 1199.6, -140.1 1341.4, -51.2 1195.5 C 44.0 1169.8, 177.4 1307.5, 266.2 1230.9 C 361.5 1225.5, 494.8 1297.7, 583.7 1294.7 C 678.9 1292.8, 812.2 1262.3, 901.1 1348.3 C 996.4 1328.0, 1129.7 1213.1, 1218.6 1359.0 C 1313.8 1331.4, 1447.1 1189.2, 1536.0 1320.5 C 1631.2 1327.6, 1764.6 1226.9, 1853.4 1256.0 C 1948.7 1250.1, 2082.0 1294.4, 2170.9 1204.7 C 2266.1 1179.6, 2399.4 1351.5, 2488.3 1197.7 C 2583.6 1170.0, 2716.9 1346.4, 2805.8 1239.3 C 2901.0 1234.4, 3034.3 1300.4, 3123.2 1304.1 C 3218.4 1311.7, 3351.8 1256.6, 3440.6 1353.0" fill="none" stroke="url(#ribbon157)" stroke-width="42.4" stroke-linecap="round" stroke-opacity="0.224" /></g><g transform="rotate(-9.49 1536.0 1536.0)"><path d="M-368.6 1524.8 C -225.8 1551.9, -25.8 1491.3, 107.5 1498.9 C 250.4 1502.3, 450.4 1539.5, 583.7 1444.4 C 726.5 1433.7, 926.5 1572.1, 1059.8 1438.7 C 1202.7 1412.0, 1402.7 1568.8, 1536.0 1485.2 C 1678.8 1475.0, 1878.8 1538.2, 2012.2 1555.7 C 2155.0 1558.9, 2355.0 1499.8, 2488.3 1607.4 C 2631.2 1639.1, 2831.2 1444.5, 2964.5 1609.0 C 3107.3 1606.7, 3307.3 1445.8, 3440.6 1559.5" fill="none" stroke="url(#ribbon157)" stroke-width="38.4" stroke-linecap="round" stroke-opacity="0.250" /></g><g transform="rotate(-8.91 1536.0 1536.0)"><path d="M-368.6 1722.6 C -241.7 1740.8, -63.9 1709.2, 54.6 1674.1 C 181.6 1683.3, 359.4 1748.5, 477.9 1627.9 C 604.8 1596.7, 782.6 1833.5, 901.1 1639.2 C 1028.1 1636.7, 1205.9 1818.4, 1324.4 1701.0 C 1451.3 1707.5, 1629.1 1730.1, 1747.6 1775.9 C 1874.6 1759.9, 2052.4 1673.3, 2170.9 1818.4 C 2297.9 1819.3, 2475.6 1609.4, 2594.1 1802.8 C 2721.1 1818.3, 2898.9 1645.3, 3017.4 1738.5 C 3144.4 1740.7, 3322.1 1715.4, 3440.6 1664.5" fill="none" stroke="url(#ribbon157)" stroke-width="34.4" stroke-linecap="round" stroke-opacity="0.276" /></g><g transform="rotate(-8.33 1536.0 1536.0)"><path d="M-368.6 1907.9 C -254.4 1892.4, -94.4 1923.9, 12.3 1973.1 C 126.6 1980.1, 286.6 1832.2, 393.2 2012.1 C 507.5 2018.4, 667.5 1803.2, 774.1 1987.9 C 888.4 1982.2, 1048.4 1833.8, 1155.1 1915.2 C 1269.4 1917.4, 1429.3 1903.1, 1536.0 1838.0 C 1650.3 1857.3, 1810.3 1948.1, 1916.9 1803.2 C 2031.2 1812.0, 2191.2 1987.4, 2297.9 1831.9 C 2412.1 1861.7, 2572.1 1957.1, 2678.8 1906.7 C 2793.1 1906.4, 2953.1 1909.0, 3059.7 1982.2 C 3174.0 1971.0, 3334.0 1848.3, 3440.6 2012.6" fill="none" stroke="url(#ribbon157)" stroke-width="30.4" stroke-linecap="round" stroke-opacity="0.302" /></g><g transform="rotate(-7.75 1536.0 1536.0)"><path d="M-368.6 2113.8 C -264.8 1994.0, -119.3 2209.6, -22.3 2078.3 C 81.5 2072.1, 227.0 2129.6, 324.0 2165.1 C 427.8 2169.3, 573.3 2058.4, 670.3 2220.8 C 774.1 2247.0, 919.6 1997.3, 1016.6 2211.5 C 1120.4 2229.4, 1265.9 2043.6, 1362.9 2143.0 C 1466.7 2142.0, 1612.2 2098.6, 1709.1 2056.7 C 1813.0 2058.0, 1958.5 2175.9, 2055.4 2005.0 C 2159.3 1978.1, 2304.8 2211.3, 2401.7 2019.3 C 2505.6 1993.3, 2651.1 2161.4, 2748.0 2090.9 C 2851.9 2082.7, 2997.4 2138.6, 3094.3 2176.3 C 3198.2 2194.3, 3343.7 2057.1, 3440.6 2223.8" fill="none" stroke="url(#ribbon157)" stroke-width="26.4" stroke-linecap="round" stroke-opacity="0.328" /></g><g transform="rotate(-7.17 1536.0 1536.0)"><path d="M-368.6 2229.5 C -273.4 2267.6, -140.1 2214.8, -51.2 2176.1 C 44.0 2169.5, 177.4 2279.1, 266.2 2116.1 C 361.5 2090.5, 494.8 2315.2, 583.7 2124.8 C 678.9 2094.4, 812.2 2310.1, 901.1 2197.0 C 996.4 2199.9, 1129.7 2267.0, 1218.6 2288.9 C 1313.8 2303.3, 1447.1 2169.9, 1536.0 2344.7 C 1631.2 2298.9, 1764.6 2157.3, 1853.4 2330.7 C 1948.7 2313.3, 2082.0 2172.5, 2170.9 2255.2 C 2266.1 2260.1, 2399.4 2202.8, 2488.3 2164.1 C 2583.6 2181.4, 2716.9 2281.5, 2805.8 2112.7 C 2901.0 2090.1, 3034.3 2298.4, 3123.2 2132.1 C 3218.4 2128.8, 3351.8 2315.6, 3440.6 2210.6" fill="none" stroke="url(#ribbon157)" stroke-width="22.4" stroke-linecap="round" stroke-opacity="0.354" /></g><g transform="rotate(-6.59 1536.0 1536.0)"><path d="M-368.6 2518.2 C -225.8 2402.6, -25.8 2570.4, 107.5 2430.2 C 250.4 2432.4, 450.4 2604.2, 583.7 2521.5 C 726.5 2521.7, 926.5 2515.2, 1059.8 2610.8 C 1202.7 2576.8, 1402.7 2428.1, 1536.0 2644.0 C 1678.8 2684.0, 1878.8 2378.4, 2012.2 2600.8 C 2155.0 2616.8, 2355.0 2472.0, 2488.3 2507.6 C 2631.2 2511.3, 2831.2 2527.6, 2964.5 2420.8 C 3107.3 2435.8, 3307.3 2581.5, 3440.6 2393.1" fill="none" stroke="url(#ribbon157)" stroke-width="18.4" stroke-linecap="round" stroke-opacity="0.380" /></g><g transform="rotate(-6.01 1536.0 1536.0)"><path d="M-368.6 2626.2 C -241.7 2647.9, -63.9 2598.4, 54.6 2555.2 C 181.6 2580.5, 359.4 2670.2, 477.9 2496.1 C 604.8 2449.9, 782.6 2698.7, 901.1 2515.8 C 1028.1 2519.2, 1205.9 2740.7, 1324.4 2602.6 C 1451.3 2609.7, 1629.1 2639.1, 1747.6 2703.6 C 1874.6 2727.0, 2052.4 2549.8, 2170.9 2757.8 C 2297.9 2713.6, 2475.6 2543.0, 2594.1 2732.1 C 2721.1 2696.1, 2898.9 2504.2, 3017.4 2642.2 C 3144.4 2639.5, 3322.1 2611.5, 3440.6 2542.6" fill="none" stroke="url(#ribbon157)" stroke-width="14.4" stroke-linecap="round" stroke-opacity="0.406" /></g></g>
  <g><ellipse cx="1536.0" cy="1551.9" rx="728.6" ry="605.7" fill="url(#extrude157)" opacity="0.220" /><ellipse cx="1536.0" cy="1567.7" rx="736.0" ry="610.9" fill="url(#extrude157)" opacity="0.205" /><ellipse cx="1536.0" cy="1583.6" rx="743.4" ry="616.1" fill="url(#extrude157)" opacity="0.190" /><ellipse cx="1536.0" cy="1599.5" rx="750.9" ry="621.3" fill="url(#extrude157)" opacity="0.175" /><ellipse cx="1536.0" cy="1615.4" rx="758.3" ry="626.5" fill="url(#extrude157)" opacity="0.160" /><ellipse cx="1536.0" cy="1631.2" rx="765.7" ry="631.7" fill="url(#extrude157)" opacity="0.145" /><ellipse cx="1536.0" cy="1647.1" rx="773.2" ry="636.9" fill="url(#extrude157)" opacity="0.130" /><ellipse cx="1536.0" cy="1663.0" rx="780.6" ry="642.1" fill="url(#extrude157)" opacity="0.115" /><ellipse cx="1536.0" cy="1678.8" rx="788.0" ry="647.4" fill="url(#extrude157)" opacity="0.100" /><ellipse cx="1536.0" cy="1694.7" rx="795.5" ry="652.6" fill="url(#extrude157)" opacity="0.085" /><ellipse cx="1536.0" cy="1710.6" rx="802.9" ry="657.8" fill="url(#extrude157)" opacity="0.070" /><ellipse cx="1536.0" cy="1726.5" rx="810.3" ry="663.0" fill="url(#extrude157)" opacity="0.055" /></g>
  <ellipse cx="1536.0" cy="1726.5" rx="773.2" ry="214.9" fill="#0B1D2D" opacity="0.24" />
  <ellipse cx="1536.0" cy="1536.0" rx="743.4" ry="651.3" fill="url(#orb157)" stroke="#FFFFFF" stroke-opacity="0.42" stroke-width="7" />
  <ellipse cx="1431.9" cy="1392.7" rx="505.5" ry="299.6" fill="#FFFFFF" opacity="0.25" />
  <path d="M 199.4 399.4 C 1013.8 -30.7, 2058.2 768.0, 2872.6 215.0 L 2872.6 983.0 C 2089.0 1228.8, 1013.8 307.2, 199.4 1167.4 Z" fill="url(#glass157)" />
  <rect x="270" y="270" width="2532" height="2532" rx="430" fill="none" stroke="#FFFFFF" stroke-opacity="0.30" stroke-width="5" />
  <rect x="288.4" y="288.4" width="2495.1" height="2495.1" rx="399" fill="none" stroke="#FF6AB3" stroke-opacity="0.35" stroke-width="3" />
  <g filter="url(#soft157)"><rect x="2329" y="2563" width="32" height="2" fill="#FFFFFF" opacity="0.837" /><rect x="2344" y="2548" width="2" height="32" fill="#FFFFFF" opacity="0.837" /><rect x="2246" y="1855" width="38" height="2" fill="#FFFFFF" opacity="0.770" /><rect x="2264" y="1837" width="2" height="38" fill="#FFFFFF" opacity="0.770" /><rect x="915" y="857" width="36" height="2" fill="#FFFFFF" opacity="0.707" /><rect x="932" y="840" width="2" height="36" fill="#FFFFFF" opacity="0.707" /><rect x="2473" y="1935" width="78" height="2" fill="#FFFFFF" opacity="0.364" /><rect x="2511" y="1897" width="2" height="78" fill="#FFFFFF" opacity="0.364" /><rect x="1405" y="450" width="56" height="2" fill="#FFFFFF" opacity="0.474" /><rect x="1432" y="423" width="2" height="56" fill="#FFFFFF" opacity="0.474" /><rect x="1810" y="952" width="58" height="2" fill="#FFFFFF" opacity="0.382" /><rect x="1838" y="924" width="2" height="58" fill="#FFFFFF" opacity="0.382" /><rect x="2300" y="1766" width="76" height="2" fill="#FFFFFF" opacity="0.796" /><rect x="2337" y="1729" width="2" height="76" fill="#FFFFFF" opacity="0.796" /><rect x="2744" y="2665" width="48" height="2" fill="#FFFFFF" opacity="0.631" /><rect x="2767" y="2642" width="2" height="48" fill="#FFFFFF" opacity="0.631" /><rect x="2161" y="2750" width="36" height="2" fill="#FFFFFF" opacity="0.612" /><rect x="2178" y="2733" width="2" height="36" fill="#FFFFFF" opacity="0.612" /><rect x="621" y="1652" width="62" height="2" fill="#FFFFFF" opacity="0.634" /><rect x="651" y="1622" width="2" height="62" fill="#FFFFFF" opacity="0.634" /><rect x="562" y="2672" width="46" height="2" fill="#FFFFFF" opacity="0.533" /><rect x="584" y="2650" width="2" height="46" fill="#FFFFFF" opacity="0.533" /><rect x="1186" y="1998" width="24" height="2" fill="#FFFFFF" opacity="0.343" /><rect x="1197" y="1987" width="2" height="24" fill="#FFFFFF" opacity="0.343" /><rect x="739" y="1678" width="64" height="2" fill="#FFFFFF" opacity="0.610" /><rect x="770" y="1647" width="2" height="64" fill="#FFFFFF" opacity="0.610" /><rect x="1600" y="1493" width="40" height="2" fill="#FFFFFF" opacity="0.759" /><rect x="1619" y="1474" width="2" height="40" fill="#FFFFFF" opacity="0.759" /><rect x="817" y="1130" width="58" height="2" fill="#FFFFFF" opacity="0.772" /><rect x="845" y="1102" width="2" height="58" fill="#FFFFFF" opacity="0.772" /><rect x="879" y="1809" width="62" height="2" fill="#FFFFFF" opacity="0.592" /><rect x="909" y="1779" width="2" height="62" fill="#FFFFFF" opacity="0.592" /><rect x="1614" y="2214" width="64" height="2" fill="#FFFFFF" opacity="0.590" /><rect x="1645" y="2183" width="2" height="64" fill="#FFFFFF" opacity="0.590" /><rect x="1440" y="1841" width="52" height="2" fill="#FFFFFF" opacity="0.522" /><rect x="1465" y="1816" width="2" height="52" fill="#FFFFFF" opacity="0.522" /><rect x="849" y="297" width="56" height="2" fill="#FFFFFF" opacity="0.604" /><rect x="876" y="270" width="2" height="56" fill="#FFFFFF" opacity="0.604" /><rect x="2000" y="1896" width="82" height="2" fill="#FFFFFF" opacity="0.752" /><rect x="2040" y="1856" width="2" height="82" fill="#FFFFFF" opacity="0.752" /><rect x="1242" y="2741" width="56" height="2" fill="#FFFFFF" opacity="0.785" /><rect x="1269" y="2714" width="2" height="56" fill="#FFFFFF" opacity="0.785" /><rect x="2174" y="1125" width="66" height="2" fill="#FFFFFF" opacity="0.665" /><rect x="2206" y="1093" width="2" height="66" fill="#FFFFFF" opacity="0.665" /><rect x="2469" y="2163" width="82" height="2" fill="#FFFFFF" opacity="0.553" /><rect x="2509" y="2123" width="2" height="82" fill="#FFFFFF" opacity="0.553" /><rect x="629" y="773" width="58" height="2" fill="#FFFFFF" opacity="0.571" /><rect x="657" y="745" width="2" height="58" fill="#FFFFFF" opacity="0.571" /><rect x="2143" y="863" width="24" height="2" fill="#FFFFFF" opacity="0.334" /><rect x="2154" y="852" width="2" height="24" fill="#FFFFFF" opacity="0.334" /><rect x="2469" y="660" width="62" height="2" fill="#FFFFFF" opacity="0.606" /><rect x="2499" y="630" width="2" height="62" fill="#FFFFFF" opacity="0.606" /></g>
  <g opacity="0.52"><rect x="1023" y="1070" width="768" height="768" rx="128" fill="none" stroke="#0C2030" stroke-width="90" /><path d="M1023 1582 L1572 1363 L2121 1582 L1572 2094 Z" fill="none" stroke="#0C2030" stroke-width="90" stroke-linejoin="round" /></g>
  <g filter="url(#soft157)"><rect x="987" y="1024" width="768" height="768" rx="128" fill="none" stroke="url(#symbol157)" stroke-width="90" /><path d="M987 1536 L1536 1317 L2085 1536 L1536 2048 Z" fill="none" stroke="url(#symbol157)" stroke-width="90" stroke-linejoin="round" /></g>
  <rect x="138" y="138" width="2796" height="2796" rx="629" fill="#FFFFFF" filter="url(#grain157)" opacity="0.18" />
</svg>
