<svg xmlns="http://www.w3.org/2000/svg" width="3072" height="3072" viewBox="0 0 3072 3072">
  <title>QuartzOS App Icon 018 - vector_editor_018</title>
  <defs><linearGradient id="bg17" x1="0%" y1="0%" x2="100%" y2="100%"><stop offset="0%" stop-color="#FF6AB3" /><stop offset="26%" stop-color="#FFD84D" /><stop offset="56%" stop-color="#36D1FF" /><stop offset="78%" stop-color="#B37A46" /><stop offset="100%" stop-color="#27201B" /></linearGradient><radialGradient id="sun17" cx="29%" cy="20%" r="88%"><stop offset="0%" stop-color="#FFFFFF" stop-opacity="0.62" /><stop offset="30%" stop-color="#3B82FF" stop-opacity="0.35" /><stop offset="100%" stop-color="#3B82FF" stop-opacity="0" /></radialGradient><linearGradient id="glass17" x1="0%" y1="0%" x2="0%" y2="100%"><stop offset="0%" stop-color="#FFFFFF" stop-opacity="0.70" /><stop offset="46%" stop-color="#FFFFFF" stop-opacity="0.26" /><stop offset="100%" stop-color="#FFFFFF" stop-opacity="0.00" /></linearGradient><linearGradient id="ribbon17" x1="0%" y1="0%" x2="100%" y2="0%"><stop offset="0%" stop-color="#FF6AB3" stop-opacity="0.18" /><stop offset="34%" stop-color="#FFD84D" stop-opacity="0.72" /><stop offset="66%" stop-color="#36D1FF" stop-opacity="0.72" /><stop offset="100%" stop-color="#3B82FF" stop-opacity="0.18" /></linearGradient><radialGradient id="orb17" cx="34%" cy="27%" r="74%"><stop offset="0%" stop-color="#FFFFFF" stop-opacity="0.84" /><stop offset="30%" stop-color="#FF6AB3" stop-opacity="0.52" /><stop offset="68%" stop-color="#FFD84D" stop-opacity="0.42" /><stop offset="100%" stop-color="#36D1FF" stop-opacity="0.20" /></radialGradient><linearGradient id="extrude17" x1="0%" y1="0%" x2="0%" y2="100%"><stop offset="0%" stop-color="#15283C" stop-opacity="0.45" /><stop offset="100%" stop-color="#08131D" stop-opacity="0.06" /></linearGradient><linearGradient id="symbol17" x1="0%" y1="0%" x2="100%" y2="100%"><stop offset="0%" stop-color="#FFFFFF" /><stop offset="100%" stop-color="#3B82FF" /></linearGradient><filter id="shadow17" x="-40%" y="-40%" width="180%" height="180%"><feDropShadow dx="0" dy="49" stdDeviation="86" flood-color="#06111A" flood-opacity="0.54" /></filter><filter id="soft17" x="-40%" y="-40%" width="180%" height="180%"><feDropShadow dx="0" dy="0" stdDeviation="14" flood-color="#FF6AB3" flood-opacity="0.45" /></filter><filter id="grain17"><feTurbulence type="fractalNoise" baseFrequency="0.900" numOctaves="2" seed="17" /><feColorMatrix type="saturate" values="0" /><feComponentTransfer><feFuncA type="table" tableValues="0 0.09" /></feComponentTransfer></filter></defs>
  <rect x="138" y="138" width="2796" height="2796" rx="629" fill="url(#bg17)" filter="url(#shadow17)" />
  <rect x="138" y="138" width="2796" height="2796" rx="629" fill="url(#sun17)" />
  <g><circle cx="2115" cy="1515" r="82" fill="#FFFFFF" opacity="0.107" /><circle cx="2009" cy="856" r="130" fill="#FFFFFF" opacity="0.126" /><circle cx="1628" cy="2518" r="136" fill="#FFFFFF" opacity="0.069" /><circle cx="1805" cy="1172" r="127" fill="#FFFFFF" opacity="0.199" /><circle cx="2549" cy="2344" r="67" fill="#FFFFFF" opacity="0.113" /><circle cx="1750" cy="926" r="136" fill="#FFFFFF" opacity="0.205" /><circle cx="1021" cy="833" r="111" fill="#FFFFFF" opacity="0.110" /><circle cx="445" cy="664" r="115" fill="#FFFFFF" opacity="0.119" /><circle cx="1995" cy="2623" r="87" fill="#FFFFFF" opacity="0.066" /><circle cx="2227" cy="1892" r="57" fill="#FFFFFF" opacity="0.152" /><circle cx="2177" cy="532" r="115" fill="#FFFFFF" opacity="0.112" /><circle cx="2232" cy="1917" r="119" fill="#FFFFFF" opacity="0.187" /><circle cx="1725" cy="2216" r="83" fill="#FFFFFF" opacity="0.219" /><circle cx="2547" cy="814" r="101" fill="#FFFFFF" opacity="0.235" /><circle cx="2669" cy="1872" r="74" fill="#FFFFFF" opacity="0.205" /><circle cx="1063" cy="1356" r="140" fill="#FFFFFF" opacity="0.077" /><circle cx="1052" cy="2409" r="150" fill="#FFFFFF" opacity="0.198" /><circle cx="2084" cy="1905" r="146" fill="#FFFFFF" opacity="0.097" /><circle cx="813" cy="1819" r="120" fill="#FFFFFF" opacity="0.122" /><circle cx="1971" cy="1435" r="81" fill="#FFFFFF" opacity="0.235" /><circle cx="392" cy="1274" r="140" fill="#FFFFFF" opacity="0.184" /><circle cx="1209" cy="2305" r="85" fill="#FFFFFF" opacity="0.117" /><circle cx="1063" cy="1383" r="67" fill="#FFFFFF" opacity="0.200" /><circle cx="847" cy="1205" r="95" fill="#FFFFFF" opacity="0.188" /><circle cx="2000" cy="1001" r="134" fill="#FFFFFF" opacity="0.109" /><circle cx="2018" cy="1814" r="49" fill="#FFFFFF" opacity="0.069" /><circle cx="735" cy="977" r="134" fill="#FFFFFF" opacity="0.220" /><circle cx="1507" cy="1253" r="70" fill="#FFFFFF" opacity="0.075" /></g>
  <g><path d="M 204.1 607.3 L 2707.5 330.8 L 2707.5 776.5 L 204.1 1052.9 Z" fill="#FFFFFF" opacity="0.196" /><path d="M 347.9 842.5 L 2770.5 566.0 L 2770.5 1053.7 L 347.9 1330.1 Z" fill="#FFFFFF" opacity="0.097" /><path d="M 374.8 1104.7 L 2894.8 828.2 L 2894.8 1284.4 L 374.8 1560.9 Z" fill="#FFFFFF" opacity="0.158" /><path d="M 308.4 1432.0 L 2868.8 1155.5 L 2868.8 1621.7 L 308.4 1898.2 Z" fill="#FFFFFF" opacity="0.160" /><path d="M 318.2 1679.9 L 2903.1 1403.5 L 2903.1 1822.8 L 318.2 2099.2 Z" fill="#FFFFFF" opacity="0.100" /><path d="M 160.6 1947.5 L 2728.4 1671.0 L 2728.4 2147.7 L 160.6 2424.2 Z" fill="#FFFFFF" opacity="0.135" /><path d="M 249.5 2164.9 L 2826.2 1888.4 L 2826.2 2334.8 L 249.5 2611.2 Z" fill="#FFFFFF" opacity="0.140" /><path d="M 321.1 2454.1 L 2904.1 2177.7 L 2904.1 2605.7 L 321.1 2882.1 Z" fill="#FFFFFF" opacity="0.091" /></g>
  <g filter="url(#soft17)"><g transform="rotate(-14.94 1536.0 1536.0)"><path d="M-368.6 479.2 C -225.8 454.0, -25.8 502.1, 107.5 499.1 C 250.4 499.7, 450.4 468.5, 583.7 530.1 C 726.5 516.6, 926.5 441.8, 1059.8 530.2 C 1202.7 526.5, 1402.7 435.1, 1536.0 499.4 C 1678.8 499.9, 1878.8 461.4, 2012.2 456.4 C 2155.0 451.2, 2355.0 494.1, 2488.3 427.2 C 2631.2 427.7, 2831.2 523.5, 2964.5 429.5 C 3107.3 411.1, 3307.3 526.5, 3440.6 462.0" fill="none" stroke="url(#ribbon17)" stroke-width="58.4" stroke-linecap="round" stroke-opacity="0.120" /></g><g transform="rotate(-14.36 1536.0 1536.0)"><path d="M-368.6 682.0 C -241.7 741.0, -63.9 617.0, 54.6 709.6 C 181.6 704.4, 359.4 651.6, 477.9 661.1 C 604.8 663.2, 782.6 697.7, 901.1 625.3 C 1028.1 628.1, 1205.9 740.8, 1324.4 623.9 C 1451.3 614.5, 1629.1 732.4, 1747.6 657.8 C 1874.6 653.6, 2052.4 707.8, 2170.9 706.4 C 2297.9 698.7, 2475.6 659.3, 2594.1 740.2 C 2721.1 756.0, 2898.9 630.9, 3017.4 738.7 C 3144.4 743.3, 3322.1 631.4, 3440.6 702.8" fill="none" stroke="url(#ribbon17)" stroke-width="54.4" stroke-linecap="round" stroke-opacity="0.146" /></g><g transform="rotate(-13.78 1536.0 1536.0)"><path d="M-368.6 857.5 C -254.4 898.1, -94.4 822.7, 12.3 924.3 C 126.6 929.6, 286.6 830.0, 393.2 917.8 C 507.5 921.0, 667.5 808.5, 774.1 874.7 C 888.4 870.8, 1048.4 848.8, 1155.1 821.2 C 1269.4 819.3, 1429.3 877.5, 1536.0 789.8 C 1650.3 787.7, 1810.3 900.2, 1916.9 799.4 C 2031.2 810.2, 2191.2 915.9, 2297.9 844.3 C 2412.1 841.2, 2572.1 864.5, 2678.8 897.2 C 2793.1 893.6, 2953.1 842.7, 3059.7 926.1 C 3174.0 944.1, 3334.0 812.9, 3440.6 913.3" fill="none" stroke="url(#ribbon17)" stroke-width="50.4" stroke-linecap="round" stroke-opacity="0.172" /></g><g transform="rotate(-13.20 1536.0 1536.0)"><path d="M-368.6 1141.7 C -264.8 1120.0, -119.3 1181.9, -22.3 1068.6 C 81.5 1067.1, 227.0 1216.2, 324.0 1074.6 C 427.8 1087.4, 573.3 1199.4, 670.3 1121.3 C 774.1 1113.3, 919.6 1165.7, 1016.6 1180.3 C 1120.4 1194.8, 1265.9 1098.3, 1362.9 1216.0 C 1466.7 1189.7, 1612.2 1055.5, 1709.1 1206.5 C 1813.0 1184.6, 1958.5 1082.8, 2055.4 1157.8 C 2159.3 1157.8, 2304.8 1130.7, 2401.7 1099.3 C 2505.6 1104.0, 2651.1 1179.6, 2748.0 1066.5 C 2851.9 1071.7, 2997.4 1190.6, 3094.3 1079.3 C 3198.2 1086.4, 3343.7 1186.1, 3440.6 1130.0" fill="none" stroke="url(#ribbon17)" stroke-width="46.4" stroke-linecap="round" stroke-opacity="0.198" /></g><g transform="rotate(-12.62 1536.0 1536.0)"><path d="M-368.6 1280.9 C -273.4 1333.8, -140.1 1244.2, -51.2 1319.2 C 44.0 1304.4, 177.4 1255.4, 266.2 1254.3 C 361.5 1243.9, 494.8 1303.0, 583.7 1205.5 C 678.9 1215.5, 812.2 1314.8, 901.1 1202.5 C 996.4 1227.0, 1129.7 1356.7, 1218.6 1247.0 C 1313.8 1234.1, 1447.1 1313.7, 1536.0 1312.1 C 1631.2 1303.6, 1764.6 1267.8, 1853.4 1358.2 C 1948.7 1344.0, 2082.0 1190.5, 2170.9 1357.5 C 2266.1 1332.8, 2399.4 1254.6, 2488.3 1310.2 C 2583.6 1317.7, 2716.9 1263.1, 2805.8 1245.2 C 2901.0 1246.0, 3034.3 1311.4, 3123.2 1201.8 C 3218.4 1184.0, 3351.8 1367.9, 3440.6 1206.4" fill="none" stroke="url(#ribbon17)" stroke-width="42.4" stroke-linecap="round" stroke-opacity="0.224" /></g><g transform="rotate(-12.04 1536.0 1536.0)"><path d="M-368.6 1485.2 C -225.8 1419.3, -25.8 1572.8, 107.5 1397.1 C 250.4 1394.0, 450.4 1545.2, 583.7 1438.9 C 726.5 1428.8, 926.5 1505.8, 1059.8 1508.8 C 1202.7 1500.5, 1402.7 1461.9, 1536.0 1564.4 C 1678.8 1558.7, 1878.8 1428.3, 2012.2 1572.0 C 2155.0 1554.6, 2355.0 1426.9, 2488.3 1526.9 C 2631.2 1513.6, 2831.2 1451.5, 2964.5 1456.6 C 3107.3 1458.0, 3307.3 1500.5, 3440.6 1403.6" fill="none" stroke="url(#ribbon17)" stroke-width="38.4" stroke-linecap="round" stroke-opacity="0.250" /></g><g transform="rotate(-11.46 1536.0 1536.0)"><path d="M-368.6 1625.8 C -241.7 1721.2, -63.9 1514.2, 54.6 1688.8 C 181.6 1679.0, 359.4 1559.4, 477.9 1616.1 C 604.8 1615.2, 782.6 1629.7, 901.1 1549.3 C 1028.1 1566.3, 1205.9 1655.3, 1324.4 1529.0 C 1451.3 1534.0, 1629.1 1665.1, 1747.6 1567.4 C 1874.6 1572.0, 2052.4 1687.8, 2170.9 1641.2 C 2297.9 1640.7, 2475.6 1620.2, 2594.1 1705.8 C 2721.1 1683.1, 2898.9 1601.5, 3017.4 1721.8 C 3144.4 1728.8, 3322.1 1559.3, 3440.6 1679.6" fill="none" stroke="url(#ribbon17)" stroke-width="34.4" stroke-linecap="round" stroke-opacity="0.276" /></g><g transform="rotate(-10.88 1536.0 1536.0)"><path d="M-368.6 1900.8 C -254.4 1862.4, -94.4 1933.9, 12.3 1805.3 C 126.6 1827.1, 286.6 2011.8, 393.2 1803.5 C 507.5 1835.8, 667.5 1989.3, 774.1 1860.7 C 888.4 1853.6, 1048.4 1944.5, 1155.1 1942.3 C 1269.4 1955.6, 1429.3 1864.7, 1536.0 1998.7 C 1650.3 1982.5, 1810.3 1845.8, 1916.9 1995.8 C 2031.2 2015.7, 2191.2 1861.2, 2297.9 1935.2 C 2412.1 1927.1, 2572.1 1882.5, 2678.8 1853.8 C 2793.1 1851.4, 2953.1 1927.8, 3059.7 1800.9 C 3174.0 1765.9, 3334.0 1932.1, 3440.6 1808.6" fill="none" stroke="url(#ribbon17)" stroke-width="30.4" stroke-linecap="round" stroke-opacity="0.302" /></g><g transform="rotate(-10.30 1536.0 1536.0)"><path d="M-368.6 2102.7 C -264.8 2164.2, -119.3 2064.9, -22.3 2212.6 C 81.5 2227.8, 227.0 1989.9, 324.0 2164.6 C 427.8 2175.5, 573.3 2035.3, 670.3 2079.0 C 774.1 2076.3, 919.6 2109.9, 1016.6 2007.8 C 1120.4 1997.4, 1265.9 2141.7, 1362.9 1994.2 C 1466.7 2002.3, 1612.2 2154.9, 1709.1 2046.4 C 1813.0 2041.7, 1958.5 2133.6, 2055.4 2132.7 C 2159.3 2123.2, 2304.8 2092.9, 2401.7 2200.9 C 2505.6 2207.1, 2651.1 2058.0, 2748.0 2209.5 C 2851.9 2232.2, 2997.4 2063.6, 3094.3 2153.3 C 3198.2 2148.0, 3343.7 2043.4, 3440.6 2066.4" fill="none" stroke="url(#ribbon17)" stroke-width="26.4" stroke-linecap="round" stroke-opacity="0.328" /></g><g transform="rotate(-9.72 1536.0 1536.0)"><path d="M-368.6 2232.3 C -273.4 2307.1, -140.1 2180.7, -51.2 2351.2 C 44.0 2386.3, 177.4 2151.2, 266.2 2313.0 C 361.5 2289.8, 494.8 2164.4, 583.7 2225.9 C 678.9 2226.5, 812.2 2237.3, 901.1 2142.7 C 996.4 2152.3, 1129.7 2301.9, 1218.6 2113.8 C 1313.8 2083.3, 1447.1 2360.0, 1536.0 2156.8 C 1631.2 2131.1, 1764.6 2257.6, 1853.4 2245.6 C 1948.7 2245.4, 2082.0 2216.9, 2170.9 2326.3 C 2266.1 2315.9, 2399.4 2123.4, 2488.3 2350.0 C 2583.6 2315.2, 2716.9 2184.3, 2805.8 2302.3 C 2901.0 2288.9, 3034.3 2178.3, 3123.2 2212.2 C 3218.4 2219.2, 3351.8 2255.6, 3440.6 2134.2" fill="none" stroke="url(#ribbon17)" stroke-width="22.4" stroke-linecap="round" stroke-opacity="0.354" /></g><g transform="rotate(-9.14 1536.0 1536.0)"><path d="M-368.6 2495.5 C -225.8 2528.7, -25.8 2464.5, 107.5 2427.6 C 250.4 2406.4, 450.4 2554.5, 583.7 2372.1 C 726.5 2346.4, 926.5 2607.3, 1059.8 2391.4 C 1202.7 2401.2, 1402.7 2587.7, 1536.0 2473.9 C 1678.8 2476.3, 1878.8 2518.2, 2012.2 2569.4 C 2155.0 2570.7, 2355.0 2469.5, 2488.3 2620.1 C 2631.2 2607.3, 2831.2 2355.3, 2964.5 2595.2 C 3107.3 2594.9, 3307.3 2394.1, 3440.6 2509.8" fill="none" stroke="url(#ribbon17)" stroke-width="18.4" stroke-linecap="round" stroke-opacity="0.380" /></g><g transform="rotate(-8.56 1536.0 1536.0)"><path d="M-368.6 2591.3 C -241.7 2726.7, -63.9 2534.7, 54.6 2637.6 C 181.6 2638.4, 359.4 2558.2, 477.9 2534.1 C 604.8 2516.0, 782.6 2639.0, 901.1 2465.3 C 1028.1 2487.5, 1205.9 2725.9, 1324.4 2472.9 C 1451.3 2483.5, 1629.1 2680.6, 1747.6 2552.3 C 1874.6 2541.3, 2052.4 2629.1, 2170.9 2655.4 C 2297.9 2646.0, 2475.6 2530.3, 2594.1 2719.5 C 2721.1 2744.2, 2898.9 2511.4, 3017.4 2705.9 C 3144.4 2705.5, 3322.1 2471.7, 3440.6 2622.7" fill="none" stroke="url(#ribbon17)" stroke-width="14.4" stroke-linecap="round" stroke-opacity="0.406" /></g></g>
  <g><ellipse cx="1536.0" cy="1551.9" rx="728.6" ry="605.7" fill="url(#extrude17)" opacity="0.220" /><ellipse cx="1536.0" cy="1567.7" rx="736.0" ry="610.9" fill="url(#extrude17)" opacity="0.205" /><ellipse cx="1536.0" cy="1583.6" rx="743.4" ry="616.1" fill="url(#extrude17)" opacity="0.190" /><ellipse cx="1536.0" cy="1599.5" rx="750.9" ry="621.3" fill="url(#extrude17)" opacity="0.175" /><ellipse cx="1536.0" cy="1615.4" rx="758.3" ry="626.5" fill="url(#extrude17)" opacity="0.160" /><ellipse cx="1536.0" cy="1631.2" rx="765.7" ry="631.7" fill="url(#extrude17)" opacity="0.145" /><ellipse cx="1536.0" cy="1647.1" rx="773.2" ry="636.9" fill="url(#extrude17)" opacity="0.130" /><ellipse cx="1536.0" cy="1663.0" rx="780.6" ry="642.1" fill="url(#extrude17)" opacity="0.115" /><ellipse cx="1536.0" cy="1678.8" rx="788.0" ry="647.4" fill="url(#extrude17)" opacity="0.100" /><ellipse cx="1536.0" cy="1694.7" rx="795.5" ry="652.6" fill="url(#extrude17)" opacity="0.085" /><ellipse cx="1536.0" cy="1710.6" rx="802.9" ry="657.8" fill="url(#extrude17)" opacity="0.070" /><ellipse cx="1536.0" cy="1726.5" rx="810.3" ry="663.0" fill="url(#extrude17)" opacity="0.055" /></g>
  <ellipse cx="1536.0" cy="1726.5" rx="773.2" ry="214.9" fill="#0B1D2D" opacity="0.24" />
  <ellipse cx="1536.0" cy="1536.0" rx="743.4" ry="651.3" fill="url(#orb17)" stroke="#FFFFFF" stroke-opacity="0.42" stroke-width="7" />
  <ellipse cx="1431.9" cy="1392.7" rx="505.5" ry="299.6" fill="#FFFFFF" opacity="0.25" />
  <path d="M 199.4 399.4 C 1013.8 -30.7, 2058.2 768.0, 2872.6 215.0 L 2872.6 983.0 C 2089.0 1228.8, 1013.8 307.2, 199.4 1167.4 Z" fill="url(#glass17)" />
  <rect x="270" y="270" width="2532" height="2532" rx="430" fill="none" stroke="#FFFFFF" stroke-opacity="0.30" stroke-width="5" />
  <rect x="288.4" y="288.4" width="2495.1" height="2495.1" rx="399" fill="none" stroke="#FF6AB3" stroke-opacity="0.35" stroke-width="3" />
  <g filter="url(#soft17)"><rect x="2326" y="2375" width="36" height="2" fill="#FFFFFF" opacity="0.417" /><rect x="2343" y="2358" width="2" height="36" fill="#FFFFFF" opacity="0.417" /><rect x="2148" y="1460" width="42" height="2" fill="#FFFFFF" opacity="0.457" /><rect x="2168" y="1440" width="2" height="42" fill="#FFFFFF" opacity="0.457" /><rect x="2653" y="2145" width="56" height="2" fill="#FFFFFF" opacity="0.642" /><rect x="2680" y="2118" width="2" height="56" fill="#FFFFFF" opacity="0.642" /><rect x="2141" y="1032" width="70" height="2" fill="#FFFFFF" opacity="0.413" /><rect x="2175" y="998" width="2" height="70" fill="#FFFFFF" opacity="0.413" /><rect x="2369" y="2760" width="56" height="2" fill="#FFFFFF" opacity="0.320" /><rect x="2396" y="2733" width="2" height="56" fill="#FFFFFF" opacity="0.320" /><rect x="934" y="1215" width="66" height="2" fill="#FFFFFF" opacity="0.701" /><rect x="966" y="1183" width="2" height="66" fill="#FFFFFF" opacity="0.701" /><rect x="1562" y="1625" width="72" height="2" fill="#FFFFFF" opacity="0.780" /><rect x="1597" y="1590" width="2" height="72" fill="#FFFFFF" opacity="0.780" /><rect x="1136" y="259" width="76" height="2" fill="#FFFFFF" opacity="0.461" /><rect x="1173" y="222" width="2" height="76" fill="#FFFFFF" opacity="0.461" /><rect x="1606" y="363" width="24" height="2" fill="#FFFFFF" opacity="0.573" /><rect x="1617" y="352" width="2" height="24" fill="#FFFFFF" opacity="0.573" /><rect x="1842" y="2473" width="34" height="2" fill="#FFFFFF" opacity="0.794" /><rect x="1858" y="2457" width="2" height="34" fill="#FFFFFF" opacity="0.794" /><rect x="1421" y="1132" width="38" height="2" fill="#FFFFFF" opacity="0.663" /><rect x="1439" y="1114" width="2" height="38" fill="#FFFFFF" opacity="0.663" /><rect x="2549" y="455" width="38" height="2" fill="#FFFFFF" opacity="0.410" /><rect x="2567" y="437" width="2" height="38" fill="#FFFFFF" opacity="0.410" /><rect x="539" y="1226" width="74" height="2" fill="#FFFFFF" opacity="0.706" /><rect x="575" y="1190" width="2" height="74" fill="#FFFFFF" opacity="0.706" /><rect x="1228" y="941" width="50" height="2" fill="#FFFFFF" opacity="0.522" /><rect x="1252" y="917" width="2" height="50" fill="#FFFFFF" opacity="0.522" /><rect x="810" y="1045" width="62" height="2" fill="#FFFFFF" opacity="0.735" /><rect x="840" y="1015" width="2" height="62" fill="#FFFFFF" opacity="0.735" /><rect x="1132" y="1053" width="62" height="2" fill="#FFFFFF" opacity="0.842" /><rect x="1162" y="1023" width="2" height="62" fill="#FFFFFF" opacity="0.842" /><rect x="1970" y="264" width="38" height="2" fill="#FFFFFF" opacity="0.538" /><rect x="1988" y="246" width="2" height="38" fill="#FFFFFF" opacity="0.538" /><rect x="1497" y="606" width="50" height="2" fill="#FFFFFF" opacity="0.415" /><rect x="1521" y="582" width="2" height="50" fill="#FFFFFF" opacity="0.415" /><rect x="1268" y="2347" width="38" height="2" fill="#FFFFFF" opacity="0.581" /><rect x="1286" y="2329" width="2" height="38" fill="#FFFFFF" opacity="0.581" /><rect x="2176" y="2602" width="82" height="2" fill="#FFFFFF" opacity="0.558" /><rect x="2216" y="2562" width="2" height="82" fill="#FFFFFF" opacity="0.558" /><rect x="2030" y="2206" width="62" height="2" fill="#FFFFFF" opacity="0.629" /><rect x="2060" y="2176" width="2" height="62" fill="#FFFFFF" opacity="0.629" /><rect x="2323" y="1923" width="44" height="2" fill="#FFFFFF" opacity="0.545" /><rect x="2344" y="1902" width="2" height="44" fill="#FFFFFF" opacity="0.545" /><rect x="970" y="2373" width="28" height="2" fill="#FFFFFF" opacity="0.469" /><rect x="983" y="2360" width="2" height="28" fill="#FFFFFF" opacity="0.469" /><rect x="2676" y="2513" width="54" height="2" fill="#FFFFFF" opacity="0.329" /><rect x="2702" y="2487" width="2" height="54" fill="#FFFFFF" opacity="0.329" /><rect x="1950" y="2229" width="58" height="2" fill="#FFFFFF" opacity="0.520" /><rect x="1978" y="2201" width="2" height="58" fill="#FFFFFF" opacity="0.520" /><rect x="2090" y="2606" width="70" height="2" fill="#FFFFFF" opacity="0.426" /><rect x="2124" y="2572" width="2" height="70" fill="#FFFFFF" opacity="0.426" /></g>
  <g opacity="0.52"><rect x="1023" y="1121" width="1152" height="1024" rx="153" fill="none" stroke="#0C2030" stroke-width="90" /><line x1="1023" y1="1326" x2="2148" y2="1326" stroke="#0C2030" stroke-width="90" /><line x1="1316" y1="1033" x2="1316" y2="1121" stroke="#0C2030" stroke-width="90" /><line x1="1828" y1="1033" x2="1828" y2="1121" stroke="#0C2030" stroke-width="90" /></g>
  <g filter="url(#soft17)"><rect x="987" y="1075" width="1152" height="1024" rx="153" fill="none" stroke="url(#symbol17)" stroke-width="90" /><line x1="987" y1="1280" x2="2112" y2="1280" stroke="url(#symbol17)" stroke-width="90" /><line x1="1280" y1="987" x2="1280" y2="1075" stroke="url(#symbol17)" stroke-width="90" /><line x1="1792" y1="987" x2="1792" y2="1075" stroke="url(#symbol17)" stroke-width="90" /></g>
  <rect x="138" y="138" width="2796" height="2796" rx="629" fill="#FFFFFF" filter="url(#grain17)" opacity="0.18" />
</svg>
