<svg xmlns="http://www.w3.org/2000/svg" width="3072" height="3072" viewBox="0 0 3072 3072">
  <title>QuartzOS App Icon 271 - vivid_browser_271</title>
  <defs><linearGradient id="bg270" x1="0%" y1="0%" x2="100%" y2="100%"><stop offset="0%" stop-color="#FF9F43" /><stop offset="26%" stop-color="#53E3A6" /><stop offset="56%" stop-color="#3B82FF" /><stop offset="78%" stop-color="#4B91A3" /><stop offset="100%" stop-color="#1A2630" /></linearGradient><radialGradient id="sun270" cx="25%" cy="25%" r="88%"><stop offset="0%" stop-color="#FFFFFF" stop-opacity="0.62" /><stop offset="30%" stop-color="#8A5CFF" stop-opacity="0.35" /><stop offset="100%" stop-color="#8A5CFF" stop-opacity="0" /></radialGradient><linearGradient id="glass270" x1="0%" y1="0%" x2="0%" y2="100%"><stop offset="0%" stop-color="#FFFFFF" stop-opacity="0.70" /><stop offset="46%" stop-color="#FFFFFF" stop-opacity="0.26" /><stop offset="100%" stop-color="#FFFFFF" stop-opacity="0.00" /></linearGradient><linearGradient id="ribbon270" x1="0%" y1="0%" x2="100%" y2="0%"><stop offset="0%" stop-color="#FF9F43" stop-opacity="0.18" /><stop offset="34%" stop-color="#53E3A6" stop-opacity="0.72" /><stop offset="66%" stop-color="#3B82FF" stop-opacity="0.72" /><stop offset="100%" stop-color="#8A5CFF" stop-opacity="0.18" /></linearGradient><radialGradient id="orb270" cx="34%" cy="27%" r="74%"><stop offset="0%" stop-color="#FFFFFF" stop-opacity="0.84" /><stop offset="30%" stop-color="#FF9F43" stop-opacity="0.52" /><stop offset="68%" stop-color="#53E3A6" stop-opacity="0.42" /><stop offset="100%" stop-color="#3B82FF" stop-opacity="0.20" /></radialGradient><linearGradient id="extrude270" x1="0%" y1="0%" x2="0%" y2="100%"><stop offset="0%" stop-color="#15283C" stop-opacity="0.45" /><stop offset="100%" stop-color="#08131D" stop-opacity="0.06" /></linearGradient><linearGradient id="symbol270" x1="0%" y1="0%" x2="100%" y2="100%"><stop offset="0%" stop-color="#FFFFFF" /><stop offset="100%" stop-color="#8A5CFF" /></linearGradient><filter id="shadow270" x="-40%" y="-40%" width="180%" height="180%"><feDropShadow dx="0" dy="49" stdDeviation="86" flood-color="#06111A" flood-opacity="0.54" /></filter><filter id="soft270" x="-40%" y="-40%" width="180%" height="180%"><feDropShadow dx="0" dy="0" stdDeviation="14" flood-color="#FF9F43" flood-opacity="0.45" /></filter><filter id="grain270"><feTurbulence type="fractalNoise" baseFrequency="0.893" numOctaves="2" seed="270" /><feColorMatrix type="saturate" values="0" /><feComponentTransfer><feFuncA type="table" tableValues="0 0.09" /></feComponentTransfer></filter></defs>
  <rect x="138" y="138" width="2796" height="2796" rx="629" fill="url(#bg270)" filter="url(#shadow270)" />
  <rect x="138" y="138" width="2796" height="2796" rx="629" fill="url(#sun270)" />
  <g><circle cx="2300" cy="2430" r="58" fill="#FFFFFF" opacity="0.128" /><circle cx="2492" cy="1814" r="149" fill="#FFFFFF" opacity="0.063" /><circle cx="1535" cy="1503" r="88" fill="#FFFFFF" opacity="0.064" /><circle cx="1037" cy="1387" r="45" fill="#FFFFFF" opacity="0.207" /><circle cx="881" cy="1021" r="111" fill="#FFFFFF" opacity="0.199" /><circle cx="1092" cy="2620" r="77" fill="#FFFFFF" opacity="0.126" /><circle cx="1336" cy="414" r="139" fill="#FFFFFF" opacity="0.179" /><circle cx="1882" cy="2681" r="97" fill="#FFFFFF" opacity="0.161" /><circle cx="1102" cy="1582" r="74" fill="#FFFFFF" opacity="0.151" /><circle cx="1502" cy="615" r="131" fill="#FFFFFF" opacity="0.177" /><circle cx="1866" cy="1616" r="141" fill="#FFFFFF" opacity="0.170" /><circle cx="2678" cy="2430" r="78" fill="#FFFFFF" opacity="0.124" /><circle cx="1216" cy="1842" r="37" fill="#FFFFFF" opacity="0.209" /><circle cx="2346" cy="1757" r="95" fill="#FFFFFF" opacity="0.122" /><circle cx="1546" cy="2047" r="118" fill="#FFFFFF" opacity="0.224" /><circle cx="2377" cy="807" r="62" fill="#FFFFFF" opacity="0.233" /><circle cx="429" cy="1432" r="69" fill="#FFFFFF" opacity="0.089" /><circle cx="1776" cy="2115" r="104" fill="#FFFFFF" opacity="0.116" /><circle cx="2152" cy="1522" r="107" fill="#FFFFFF" opacity="0.138" /><circle cx="701" cy="2243" r="76" fill="#FFFFFF" opacity="0.178" /><circle cx="1376" cy="1436" r="38" fill="#FFFFFF" opacity="0.134" /><circle cx="2289" cy="1794" r="97" fill="#FFFFFF" opacity="0.077" /><circle cx="1964" cy="2285" r="103" fill="#FFFFFF" opacity="0.097" /><circle cx="622" cy="607" r="50" fill="#FFFFFF" opacity="0.165" /><circle cx="933" cy="1547" r="54" fill="#FFFFFF" opacity="0.112" /><circle cx="1530" cy="2088" r="131" fill="#FFFFFF" opacity="0.105" /><circle cx="574" cy="1364" r="132" fill="#FFFFFF" opacity="0.188" /><circle cx="1502" cy="316" r="123" fill="#FFFFFF" opacity="0.068" /></g>
  <g><path d="M 322.0 634.0 L 2689.0 357.5 L 2689.0 825.3 L 322.0 1101.8 Z" fill="#FFFFFF" opacity="0.177" /><path d="M 233.6 919.2 L 2840.2 642.7 L 2840.2 1094.8 L 233.6 1371.3 Z" fill="#FFFFFF" opacity="0.200" /><path d="M 192.8 1113.6 L 2805.8 837.2 L 2805.8 1295.2 L 192.8 1571.6 Z" fill="#FFFFFF" opacity="0.170" /><path d="M 333.2 1426.1 L 2728.2 1149.6 L 2728.2 1581.5 L 333.2 1858.0 Z" fill="#FFFFFF" opacity="0.187" /><path d="M 216.8 1628.3 L 2756.8 1351.8 L 2756.8 1834.0 L 216.8 2110.5 Z" fill="#FFFFFF" opacity="0.216" /><path d="M 221.1 1930.0 L 2918.5 1653.6 L 2918.5 2073.1 L 221.1 2349.5 Z" fill="#FFFFFF" opacity="0.194" /><path d="M 254.0 2136.9 L 2681.2 1860.4 L 2681.2 2356.9 L 254.0 2633.4 Z" fill="#FFFFFF" opacity="0.184" /><path d="M 226.9 2434.0 L 2821.7 2157.5 L 2821.7 2605.8 L 226.9 2882.3 Z" fill="#FFFFFF" opacity="0.104" /></g>
  <g filter="url(#soft270)"><g transform="rotate(-19.22 1536.0 1536.0)"><path d="M-368.6 475.7 C -225.8 537.9, -25.8 439.5, 107.5 527.3 C 250.4 529.8, 450.4 421.9, 583.7 497.4 C 726.5 498.8, 926.5 451.9, 1059.8 454.3 C 1202.7 450.2, 1402.7 496.5, 1536.0 424.2 C 1678.8 407.9, 1878.8 508.8, 2012.2 425.3 C 2155.0 424.6, 2355.0 512.5, 2488.3 456.9 C 2631.2 458.7, 2831.2 486.4, 2964.5 500.0 C 3107.3 499.5, 3307.3 454.9, 3440.6 528.2" fill="none" stroke="url(#ribbon270)" stroke-width="58.4" stroke-linecap="round" stroke-opacity="0.120" /></g><g transform="rotate(-18.64 1536.0 1536.0)"><path d="M-368.6 667.1 C -241.7 675.8, -63.9 659.6, 54.6 716.9 C 181.6 709.8, 359.4 623.5, 477.9 728.7 C 604.8 734.7, 782.6 618.9, 901.1 703.1 C 1028.1 704.0, 1205.9 627.7, 1324.4 655.6 C 1451.3 657.4, 1629.1 673.8, 1747.6 615.1 C 1874.6 603.9, 2052.4 711.7, 2170.9 606.2 C 2297.9 594.2, 2475.6 706.5, 2594.1 634.1 C 2721.1 638.4, 2898.9 695.2, 3017.4 682.1 C 3144.4 687.7, 3322.1 662.2, 3440.6 721.0" fill="none" stroke="url(#ribbon270)" stroke-width="54.4" stroke-linecap="round" stroke-opacity="0.146" /></g><g transform="rotate(-18.06 1536.0 1536.0)"><path d="M-368.6 902.0 C -254.4 918.0, -94.4 886.5, 12.3 872.2 C 126.6 874.5, 286.6 928.9, 393.2 836.3 C 507.5 834.2, 667.5 977.1, 774.1 840.2 C 888.4 842.1, 1048.4 960.2, 1155.1 881.7 C 1269.4 878.3, 1429.3 923.7, 1536.0 935.5 C 1650.3 930.1, 1810.3 891.5, 1916.9 969.0 C 2031.2 990.2, 2191.2 872.3, 2297.9 961.9 C 2412.1 974.9, 2572.1 860.6, 2678.8 918.5 C 2793.1 920.5, 2953.1 889.1, 3059.7 865.1 C 3174.0 862.6, 3334.0 944.4, 3440.6 834.1" fill="none" stroke="url(#ribbon270)" stroke-width="50.4" stroke-linecap="round" stroke-opacity="0.172" /></g><g transform="rotate(-17.48 1536.0 1536.0)"><path d="M-368.6 1162.1 C -264.8 1255.2, -119.3 1132.9, -22.3 1204.5 C 81.5 1209.5, 227.0 1128.4, 324.0 1146.0 C 427.8 1147.1, 573.3 1179.6, 670.3 1097.2 C 774.1 1079.6, 919.6 1194.2, 1016.6 1087.8 C 1120.4 1088.5, 1265.9 1236.7, 1362.9 1123.4 C 1466.7 1113.3, 1612.2 1198.9, 1709.1 1182.5 C 1813.0 1181.7, 1958.5 1149.9, 2055.4 1229.2 C 2159.3 1223.8, 2304.8 1096.5, 2401.7 1235.1 C 2505.6 1242.1, 2651.1 1116.3, 2748.0 1196.8 C 2851.9 1187.8, 2997.4 1128.4, 3094.3 1137.4 C 3198.2 1145.6, 3343.7 1187.5, 3440.6 1092.9" fill="none" stroke="url(#ribbon270)" stroke-width="46.4" stroke-linecap="round" stroke-opacity="0.198" /></g><g transform="rotate(-16.90 1536.0 1536.0)"><path d="M-368.6 1249.1 C -273.4 1225.3, -140.1 1273.6, -51.2 1174.4 C 44.0 1156.0, 177.4 1314.9, 266.2 1170.2 C 361.5 1139.2, 494.8 1339.0, 583.7 1213.8 C 678.9 1217.4, 812.2 1284.4, 901.1 1278.9 C 996.4 1280.9, 1129.7 1234.4, 1218.6 1325.8 C 1313.8 1298.0, 1447.1 1157.3, 1536.0 1326.2 C 1631.2 1355.2, 1764.6 1195.2, 1853.4 1279.8 C 1948.7 1286.2, 2082.0 1231.4, 2170.9 1214.8 C 2266.1 1217.2, 2399.4 1282.8, 2488.3 1170.5 C 2583.6 1180.6, 2716.9 1314.1, 2805.8 1173.9 C 2901.0 1196.7, 3034.3 1299.9, 3123.2 1222.9 C 3218.4 1231.3, 3351.8 1266.0, 3440.6 1287.8" fill="none" stroke="url(#ribbon270)" stroke-width="42.4" stroke-linecap="round" stroke-opacity="0.224" /></g><g transform="rotate(-16.32 1536.0 1536.0)"><path d="M-368.6 1488.6 C -225.8 1448.1, -25.8 1516.3, 107.5 1406.5 C 250.4 1418.4, 450.4 1548.3, 583.7 1403.8 C 726.5 1414.8, 926.5 1514.6, 1059.8 1452.6 C 1202.7 1451.8, 1402.7 1513.8, 1536.0 1523.2 C 1678.8 1523.9, 1878.8 1448.1, 2012.2 1572.8 C 2155.0 1539.1, 2355.0 1459.5, 2488.3 1571.3 C 2631.2 1552.3, 2831.2 1409.4, 2964.5 1519.6 C 3107.3 1521.2, 3307.3 1464.5, 3440.6 1449.1" fill="none" stroke="url(#ribbon270)" stroke-width="38.4" stroke-linecap="round" stroke-opacity="0.250" /></g><g transform="rotate(-15.74 1536.0 1536.0)"><path d="M-368.6 1667.4 C -241.7 1591.5, -63.9 1758.2, 54.6 1580.7 C 181.6 1563.0, 359.4 1701.9, 477.9 1639.3 C 604.8 1639.9, 782.6 1694.6, 901.1 1715.0 C 1028.1 1720.5, 1205.9 1614.6, 1324.4 1761.8 C 1451.3 1749.2, 1629.1 1573.6, 1747.6 1751.4 C 1874.6 1757.7, 2052.4 1590.2, 2170.9 1690.0 C 2297.9 1695.4, 2475.6 1648.5, 2594.1 1615.0 C 2721.1 1622.4, 2898.9 1719.6, 3017.4 1571.8 C 3144.4 1595.8, 3322.1 1724.9, 3440.6 1586.6" fill="none" stroke="url(#ribbon270)" stroke-width="34.4" stroke-linecap="round" stroke-opacity="0.276" /></g><g transform="rotate(-15.16 1536.0 1536.0)"><path d="M-368.6 1824.3 C -254.4 1783.0, -94.4 1860.2, 12.3 1730.5 C 126.6 1696.6, 286.6 1917.4, 393.2 1725.6 C 507.5 1710.3, 667.5 1876.8, 774.1 1780.6 C 888.4 1791.7, 1048.4 1853.8, 1155.1 1862.1 C 1269.4 1854.4, 1429.3 1792.4, 1536.0 1920.8 C 1650.3 1901.1, 1810.3 1772.4, 1916.9 1920.9 C 2031.2 1953.8, 2191.2 1749.3, 2297.9 1862.5 C 2412.1 1856.7, 2572.1 1801.6, 2678.8 1780.9 C 2793.1 1780.2, 2953.1 1861.7, 3059.7 1725.7 C 3174.0 1726.4, 3334.0 1921.1, 3440.6 1730.3" fill="none" stroke="url(#ribbon270)" stroke-width="30.4" stroke-linecap="round" stroke-opacity="0.302" /></g><g transform="rotate(-14.58 1536.0 1536.0)"><path d="M-368.6 2110.8 C -264.8 2093.6, -119.3 2126.3, -22.3 2180.6 C 81.5 2171.8, 227.0 2037.8, 324.0 2222.1 C 427.8 2245.2, 573.3 2015.3, 670.3 2196.0 C 774.1 2175.4, 919.6 2009.3, 1016.6 2118.3 C 1120.4 2116.9, 1265.9 2108.1, 1362.9 2036.0 C 1466.7 2017.0, 1612.2 2135.3, 1709.1 1999.0 C 1813.0 1961.2, 1958.5 2189.4, 2055.4 2029.9 C 2159.3 1999.1, 2304.8 2155.2, 2401.7 2109.8 C 2505.6 2109.5, 2651.1 2111.5, 2748.0 2190.3 C 2851.9 2172.3, 2997.4 2083.9, 3094.3 2222.6 C 3198.2 2223.0, 3343.7 1982.4, 3440.6 2187.0" fill="none" stroke="url(#ribbon270)" stroke-width="26.4" stroke-linecap="round" stroke-opacity="0.328" /></g><g transform="rotate(-14.00 1536.0 1536.0)"><path d="M-368.6 2307.2 C -273.4 2202.1, -140.1 2403.6, -51.2 2223.8 C 44.0 2192.5, 177.4 2392.8, 266.2 2309.9 C 361.5 2309.5, 494.8 2305.5, 583.7 2394.3 C 678.9 2371.7, 812.2 2249.4, 901.1 2425.9 C 996.4 2430.4, 1129.7 2202.9, 1218.6 2385.5 C 1313.8 2354.2, 1447.1 2242.2, 1536.0 2297.6 C 1631.2 2294.1, 1764.6 2315.0, 1853.4 2215.5 C 1948.7 2237.9, 2082.0 2359.7, 2170.9 2189.0 C 2266.1 2202.8, 2399.4 2381.3, 2488.3 2234.2 C 2583.6 2242.8, 2716.9 2343.8, 2805.8 2323.7 C 2901.0 2330.2, 3034.3 2294.0, 3123.2 2403.2 C 3218.4 2409.5, 3351.8 2226.2, 3440.6 2424.4" fill="none" stroke="url(#ribbon270)" stroke-width="22.4" stroke-linecap="round" stroke-opacity="0.354" /></g><g transform="rotate(-13.42 1536.0 1536.0)"><path d="M-368.6 2518.4 C -225.8 2584.1, -25.8 2454.8, 107.5 2644.2 C 250.4 2612.3, 450.4 2410.1, 583.7 2602.0 C 726.5 2588.9, 926.5 2443.8, 1059.8 2509.0 C 1202.7 2510.7, 1402.7 2523.8, 1536.0 2421.8 C 1678.8 2397.0, 1878.8 2565.9, 2012.2 2393.1 C 2155.0 2415.2, 2355.0 2567.4, 2488.3 2440.4 C 2631.2 2423.2, 2831.2 2553.5, 2964.5 2535.1 C 3107.3 2537.5, 3307.3 2499.2, 3440.6 2619.6" fill="none" stroke="url(#ribbon270)" stroke-width="18.4" stroke-linecap="round" stroke-opacity="0.380" /></g><g transform="rotate(-12.84 1536.0 1536.0)"><path d="M-368.6 2679.3 C -241.7 2840.7, -63.9 2570.0, 54.6 2776.6 C 181.6 2764.5, 359.4 2614.7, 477.9 2682.1 C 604.8 2681.4, 782.6 2678.2, 901.1 2585.8 C 1028.1 2622.7, 1205.9 2742.6, 1324.4 2546.3 C 1451.3 2557.0, 1629.1 2810.1, 1747.6 2587.4 C 1874.6 2618.4, 2052.4 2747.8, 2170.9 2684.3 C 2297.9 2686.1, 2475.6 2674.6, 2594.1 2778.1 C 2721.1 2799.9, 2898.9 2613.1, 3017.4 2812.0 C 3144.4 2813.9, 3322.1 2539.7, 3440.6 2765.4" fill="none" stroke="url(#ribbon270)" stroke-width="14.4" stroke-linecap="round" stroke-opacity="0.406" /></g></g>
  <g><ellipse cx="1536.0" cy="1551.9" rx="728.6" ry="605.7" fill="url(#extrude270)" opacity="0.220" /><ellipse cx="1536.0" cy="1567.7" rx="736.0" ry="610.9" fill="url(#extrude270)" opacity="0.205" /><ellipse cx="1536.0" cy="1583.6" rx="743.4" ry="616.1" fill="url(#extrude270)" opacity="0.190" /><ellipse cx="1536.0" cy="1599.5" rx="750.9" ry="621.3" fill="url(#extrude270)" opacity="0.175" /><ellipse cx="1536.0" cy="1615.4" rx="758.3" ry="626.5" fill="url(#extrude270)" opacity="0.160" /><ellipse cx="1536.0" cy="1631.2" rx="765.7" ry="631.7" fill="url(#extrude270)" opacity="0.145" /><ellipse cx="1536.0" cy="1647.1" rx="773.2" ry="636.9" fill="url(#extrude270)" opacity="0.130" /><ellipse cx="1536.0" cy="1663.0" rx="780.6" ry="642.1" fill="url(#extrude270)" opacity="0.115" /><ellipse cx="1536.0" cy="1678.8" rx="788.0" ry="647.4" fill="url(#extrude270)" opacity="0.100" /><ellipse cx="1536.0" cy="1694.7" rx="795.5" ry="652.6" fill="url(#extrude270)" opacity="0.085" /><ellipse cx="1536.0" cy="1710.6" rx="802.9" ry="657.8" fill="url(#extrude270)" opacity="0.070" /><ellipse cx="1536.0" cy="1726.5" rx="810.3" ry="663.0" fill="url(#extrude270)" opacity="0.055" /></g>
  <ellipse cx="1536.0" cy="1726.5" rx="773.2" ry="214.9" fill="#0B1D2D" opacity="0.24" />
  <ellipse cx="1536.0" cy="1536.0" rx="743.4" ry="651.3" fill="url(#orb270)" stroke="#FFFFFF" stroke-opacity="0.42" stroke-width="7" />
  <ellipse cx="1431.9" cy="1392.7" rx="505.5" ry="299.6" fill="#FFFFFF" opacity="0.25" />
  <path d="M 199.4 399.4 C 1013.8 -30.7, 2058.2 768.0, 2872.6 215.0 L 2872.6 983.0 C 2089.0 1228.8, 1013.8 307.2, 199.4 1167.4 Z" fill="url(#glass270)" />
  <rect x="270" y="270" width="2532" height="2532" rx="430" fill="none" stroke="#FFFFFF" stroke-opacity="0.30" stroke-width="5" />
  <rect x="288.4" y="288.4" width="2495.1" height="2495.1" rx="399" fill="none" stroke="#FF9F43" stroke-opacity="0.35" stroke-width="3" />
  <g filter="url(#soft270)"><rect x="2459" y="2183" width="80" height="2" fill="#FFFFFF" opacity="0.804" /><rect x="2498" y="2144" width="2" height="80" fill="#FFFFFF" opacity="0.804" /><rect x="1924" y="941" width="38" height="2" fill="#FFFFFF" opacity="0.553" /><rect x="1942" y="923" width="2" height="38" fill="#FFFFFF" opacity="0.553" /><rect x="2426" y="653" width="82" height="2" fill="#FFFFFF" opacity="0.419" /><rect x="2466" y="613" width="2" height="82" fill="#FFFFFF" opacity="0.419" /><rect x="1699" y="657" width="44" height="2" fill="#FFFFFF" opacity="0.440" /><rect x="1720" y="636" width="2" height="44" fill="#FFFFFF" opacity="0.440" /><rect x="661" y="1979" width="28" height="2" fill="#FFFFFF" opacity="0.781" /><rect x="674" y="1966" width="2" height="28" fill="#FFFFFF" opacity="0.781" /><rect x="2545" y="392" width="30" height="2" fill="#FFFFFF" opacity="0.793" /><rect x="2559" y="378" width="2" height="30" fill="#FFFFFF" opacity="0.793" /><rect x="2431" y="2703" width="44" height="2" fill="#FFFFFF" opacity="0.350" /><rect x="2452" y="2682" width="2" height="44" fill="#FFFFFF" opacity="0.350" /><rect x="2611" y="1751" width="82" height="2" fill="#FFFFFF" opacity="0.713" /><rect x="2651" y="1711" width="2" height="82" fill="#FFFFFF" opacity="0.713" /><rect x="1429" y="2413" width="60" height="2" fill="#FFFFFF" opacity="0.670" /><rect x="1458" y="2384" width="2" height="60" fill="#FFFFFF" opacity="0.670" /><rect x="1816" y="2635" width="66" height="2" fill="#FFFFFF" opacity="0.347" /><rect x="1848" y="2603" width="2" height="66" fill="#FFFFFF" opacity="0.347" /><rect x="1485" y="356" width="30" height="2" fill="#FFFFFF" opacity="0.442" /><rect x="1499" y="342" width="2" height="30" fill="#FFFFFF" opacity="0.442" /><rect x="1803" y="2128" width="78" height="2" fill="#FFFFFF" opacity="0.758" /><rect x="1841" y="2090" width="2" height="78" fill="#FFFFFF" opacity="0.758" /><rect x="1335" y="2299" width="72" height="2" fill="#FFFFFF" opacity="0.369" /><rect x="1370" y="2264" width="2" height="72" fill="#FFFFFF" opacity="0.369" /><rect x="2059" y="497" width="70" height="2" fill="#FFFFFF" opacity="0.809" /><rect x="2093" y="463" width="2" height="70" fill="#FFFFFF" opacity="0.809" /><rect x="593" y="2345" width="56" height="2" fill="#FFFFFF" opacity="0.603" /><rect x="620" y="2318" width="2" height="56" fill="#FFFFFF" opacity="0.603" /><rect x="1582" y="1879" width="32" height="2" fill="#FFFFFF" opacity="0.399" /><rect x="1597" y="1864" width="2" height="32" fill="#FFFFFF" opacity="0.399" /><rect x="1063" y="2699" width="26" height="2" fill="#FFFFFF" opacity="0.700" /><rect x="1075" y="2687" width="2" height="26" fill="#FFFFFF" opacity="0.700" /><rect x="1377" y="2002" width="84" height="2" fill="#FFFFFF" opacity="0.719" /><rect x="1418" y="1961" width="2" height="84" fill="#FFFFFF" opacity="0.719" /><rect x="1552" y="838" width="72" height="2" fill="#FFFFFF" opacity="0.444" /><rect x="1587" y="803" width="2" height="72" fill="#FFFFFF" opacity="0.444" /><rect x="423" y="1256" width="84" height="2" fill="#FFFFFF" opacity="0.408" /><rect x="464" y="1215" width="2" height="84" fill="#FFFFFF" opacity="0.408" /><rect x="1102" y="2037" width="58" height="2" fill="#FFFFFF" opacity="0.418" /><rect x="1130" y="2009" width="2" height="58" fill="#FFFFFF" opacity="0.418" /><rect x="2097" y="295" width="68" height="2" fill="#FFFFFF" opacity="0.823" /><rect x="2130" y="262" width="2" height="68" fill="#FFFFFF" opacity="0.823" /><rect x="2642" y="1817" width="82" height="2" fill="#FFFFFF" opacity="0.693" /><rect x="2682" y="1777" width="2" height="82" fill="#FFFFFF" opacity="0.693" /><rect x="1525" y="825" width="78" height="2" fill="#FFFFFF" opacity="0.618" /><rect x="1563" y="787" width="2" height="78" fill="#FFFFFF" opacity="0.618" /><rect x="2753" y="1301" width="50" height="2" fill="#FFFFFF" opacity="0.372" /><rect x="2777" y="1277" width="2" height="50" fill="#FFFFFF" opacity="0.372" /><rect x="1394" y="1516" width="84" height="2" fill="#FFFFFF" opacity="0.530" /><rect x="1435" y="1475" width="2" height="84" fill="#FFFFFF" opacity="0.530" /></g>
  <g opacity="0.52"><path d="M996 1582 Q1572 1006, 2148 1582" fill="none" stroke="#0C2030" stroke-width="90" /><path d="M996 1801 Q1572 1198, 2148 1801" fill="none" stroke="#0C2030" stroke-width="88" opacity="0.9" /><path d="M996 1966 Q1572 1326, 2148 1966" fill="none" stroke="#0C2030" stroke-width="87" opacity="0.75" /></g>
  <g filter="url(#soft270)"><path d="M960 1536 Q1536 960, 2112 1536" fill="none" stroke="url(#symbol270)" stroke-width="90" /><path d="M960 1755 Q1536 1152, 2112 1755" fill="none" stroke="url(#symbol270)" stroke-width="88" opacity="0.9" /><path d="M960 1920 Q1536 1280, 2112 1920" fill="none" stroke="url(#symbol270)" stroke-width="87" opacity="0.75" /></g>
  <rect x="138" y="138" width="2796" height="2796" rx="629" fill="#FFFFFF" filter="url(#grain270)" opacity="0.18" />
</svg>
