<svg xmlns="http://www.w3.org/2000/svg" width="3072" height="3072" viewBox="0 0 3072 3072">
  <title>QuartzOS App Icon 011 - vivid_editor_011</title>
  <defs><linearGradient id="bg10" x1="0%" y1="0%" x2="100%" y2="100%"><stop offset="0%" stop-color="#FF6AB3" /><stop offset="26%" stop-color="#FFD84D" /><stop offset="56%" stop-color="#36D1FF" /><stop offset="78%" stop-color="#58A3D8" /><stop offset="100%" stop-color="#1D2F45" /></linearGradient><radialGradient id="sun10" cx="29%" cy="20%" r="88%"><stop offset="0%" stop-color="#FFFFFF" stop-opacity="0.62" /><stop offset="30%" stop-color="#3B82FF" stop-opacity="0.35" /><stop offset="100%" stop-color="#3B82FF" stop-opacity="0" /></radialGradient><linearGradient id="glass10" x1="0%" y1="0%" x2="0%" y2="100%"><stop offset="0%" stop-color="#FFFFFF" stop-opacity="0.70" /><stop offset="46%" stop-color="#FFFFFF" stop-opacity="0.26" /><stop offset="100%" stop-color="#FFFFFF" stop-opacity="0.00" /></linearGradient><linearGradient id="ribbon10" x1="0%" y1="0%" x2="100%" y2="0%"><stop offset="0%" stop-color="#FF6AB3" stop-opacity="0.18" /><stop offset="34%" stop-color="#FFD84D" stop-opacity="0.72" /><stop offset="66%" stop-color="#36D1FF" stop-opacity="0.72" /><stop offset="100%" stop-color="#3B82FF" stop-opacity="0.18" /></linearGradient><radialGradient id="orb10" cx="34%" cy="27%" r="74%"><stop offset="0%" stop-color="#FFFFFF" stop-opacity="0.84" /><stop offset="30%" stop-color="#FF6AB3" stop-opacity="0.52" /><stop offset="68%" stop-color="#FFD84D" stop-opacity="0.42" /><stop offset="100%" stop-color="#36D1FF" stop-opacity="0.20" /></radialGradient><linearGradient id="extrude10" x1="0%" y1="0%" x2="0%" y2="100%"><stop offset="0%" stop-color="#15283C" stop-opacity="0.45" /><stop offset="100%" stop-color="#08131D" stop-opacity="0.06" /></linearGradient><linearGradient id="symbol10" x1="0%" y1="0%" x2="100%" y2="100%"><stop offset="0%" stop-color="#FFFFFF" /><stop offset="100%" stop-color="#3B82FF" /></linearGradient><filter id="shadow10" x="-40%" y="-40%" width="180%" height="180%"><feDropShadow dx="0" dy="49" stdDeviation="86" flood-color="#06111A" flood-opacity="0.54" /></filter><filter id="soft10" x="-40%" y="-40%" width="180%" height="180%"><feDropShadow dx="0" dy="0" stdDeviation="14" flood-color="#FF6AB3" flood-opacity="0.45" /></filter><filter id="grain10"><feTurbulence type="fractalNoise" baseFrequency="0.684" numOctaves="2" seed="10" /><feColorMatrix type="saturate" values="0" /><feComponentTransfer><feFuncA type="table" tableValues="0 0.09" /></feComponentTransfer></filter></defs>
  <rect x="138" y="138" width="2796" height="2796" rx="629" fill="url(#bg10)" filter="url(#shadow10)" />
  <rect x="138" y="138" width="2796" height="2796" rx="629" fill="url(#sun10)" />
  <g><circle cx="731" cy="2309" r="110" fill="#FFFFFF" opacity="0.060" /><circle cx="2190" cy="2284" r="84" fill="#FFFFFF" opacity="0.124" /><circle cx="538" cy="1909" r="70" fill="#FFFFFF" opacity="0.161" /><circle cx="2102" cy="416" r="147" fill="#FFFFFF" opacity="0.071" /><circle cx="1976" cy="1390" r="91" fill="#FFFFFF" opacity="0.181" /><circle cx="1257" cy="1624" r="119" fill="#FFFFFF" opacity="0.131" /><circle cx="2043" cy="613" r="85" fill="#FFFFFF" opacity="0.193" /><circle cx="2094" cy="2093" r="74" fill="#FFFFFF" opacity="0.186" /><circle cx="2346" cy="1239" r="92" fill="#FFFFFF" opacity="0.225" /><circle cx="1320" cy="2030" r="154" fill="#FFFFFF" opacity="0.180" /><circle cx="2462" cy="2073" r="113" fill="#FFFFFF" opacity="0.178" /><circle cx="2609" cy="2580" r="106" fill="#FFFFFF" opacity="0.208" /><circle cx="460" cy="1149" r="157" fill="#FFFFFF" opacity="0.168" /><circle cx="1432" cy="2292" r="127" fill="#FFFFFF" opacity="0.120" /><circle cx="560" cy="2153" r="92" fill="#FFFFFF" opacity="0.204" /><circle cx="383" cy="327" r="47" fill="#FFFFFF" opacity="0.076" /><circle cx="2272" cy="1231" r="74" fill="#FFFFFF" opacity="0.094" /><circle cx="1303" cy="1607" r="63" fill="#FFFFFF" opacity="0.082" /><circle cx="1343" cy="2101" r="47" fill="#FFFFFF" opacity="0.138" /><circle cx="2223" cy="2353" r="65" fill="#FFFFFF" opacity="0.125" /><circle cx="2537" cy="1963" r="61" fill="#FFFFFF" opacity="0.070" /><circle cx="1450" cy="1523" r="139" fill="#FFFFFF" opacity="0.172" /><circle cx="2194" cy="914" r="37" fill="#FFFFFF" opacity="0.218" /><circle cx="1807" cy="2227" r="151" fill="#FFFFFF" opacity="0.065" /><circle cx="1303" cy="1344" r="96" fill="#FFFFFF" opacity="0.203" /><circle cx="1004" cy="698" r="144" fill="#FFFFFF" opacity="0.168" /><circle cx="2361" cy="2073" r="100" fill="#FFFFFF" opacity="0.209" /><circle cx="839" cy="1187" r="61" fill="#FFFFFF" opacity="0.115" /></g>
  <g><path d="M 283.4 621.7 L 2831.7 345.3 L 2831.7 805.8 L 283.4 1082.3 Z" fill="#FFFFFF" opacity="0.228" /><path d="M 389.8 880.7 L 2754.0 604.2 L 2754.0 1035.5 L 389.8 1312.0 Z" fill="#FFFFFF" opacity="0.134" /><path d="M 314.8 1123.0 L 2871.3 846.6 L 2871.3 1270.8 L 314.8 1547.3 Z" fill="#FFFFFF" opacity="0.196" /><path d="M 198.2 1404.0 L 2824.3 1127.5 L 2824.3 1563.1 L 198.2 1839.6 Z" fill="#FFFFFF" opacity="0.123" /><path d="M 184.2 1617.7 L 2871.0 1341.2 L 2871.0 1822.2 L 184.2 2098.7 Z" fill="#FFFFFF" opacity="0.110" /><path d="M 191.5 1937.2 L 2884.9 1660.8 L 2884.9 2090.7 L 191.5 2367.2 Z" fill="#FFFFFF" opacity="0.127" /><path d="M 302.3 2173.4 L 2797.1 1896.9 L 2797.1 2353.0 L 302.3 2629.4 Z" fill="#FFFFFF" opacity="0.186" /><path d="M 363.2 2408.0 L 2837.5 2131.5 L 2837.5 2578.5 L 363.2 2855.0 Z" fill="#FFFFFF" opacity="0.117" /></g>
  <g filter="url(#soft10)"><g transform="rotate(-16.81 1536.0 1536.0)"><path d="M-368.6 550.8 C -225.8 583.1, -25.8 499.7, 107.5 598.7 C 250.4 579.7, 450.4 494.3, 583.7 564.3 C 726.5 559.9, 926.5 545.4, 1059.8 521.7 C 1202.7 524.7, 1402.7 575.6, 1536.0 496.8 C 1678.8 486.5, 1878.8 580.9, 2012.2 504.6 C 2155.0 494.3, 2355.0 603.1, 2488.3 540.4 C 2631.2 542.7, 2831.2 555.5, 2964.5 582.5 C 3107.3 583.5, 3307.3 520.8, 3440.6 605.4" fill="none" stroke="url(#ribbon10)" stroke-width="58.4" stroke-linecap="round" stroke-opacity="0.120" /></g><g transform="rotate(-16.23 1536.0 1536.0)"><path d="M-368.6 720.9 C -241.7 669.3, -63.9 754.0, 54.6 658.7 C 181.6 652.4, 359.4 761.2, 477.9 680.3 C 604.8 681.8, 782.6 756.3, 901.1 726.5 C 1028.1 726.5, 1205.9 714.9, 1324.4 769.4 C 1451.3 755.7, 1629.1 694.4, 1747.6 782.9 C 1874.6 762.9, 2052.4 689.2, 2170.9 758.8 C 2297.9 746.9, 2475.6 687.3, 2594.1 711.8 C 2721.1 710.1, 2898.9 729.6, 3017.4 670.3 C 3144.4 652.4, 3322.1 774.7, 3440.6 659.6" fill="none" stroke="url(#ribbon10)" stroke-width="54.4" stroke-linecap="round" stroke-opacity="0.146" /></g><g transform="rotate(-15.65 1536.0 1536.0)"><path d="M-368.6 885.6 C -254.4 968.4, -94.4 822.7, 12.3 937.0 C 126.6 953.7, 286.6 868.6, 393.2 887.9 C 507.5 887.0, 667.5 884.0, 774.1 837.4 C 888.4 847.4, 1048.4 914.1, 1155.1 816.2 C 1269.4 833.8, 1429.3 916.7, 1536.0 837.0 C 1650.3 852.5, 1810.3 928.3, 1916.9 887.3 C 2031.2 887.5, 2191.2 884.2, 2297.9 936.6 C 2412.1 953.5, 2572.1 856.0, 2678.8 954.9 C 2793.1 978.3, 2953.1 819.9, 3059.7 931.2 C 3174.0 945.1, 3334.0 831.4, 3440.6 879.8" fill="none" stroke="url(#ribbon10)" stroke-width="50.4" stroke-linecap="round" stroke-opacity="0.172" /></g><g transform="rotate(-15.07 1536.0 1536.0)"><path d="M-368.6 1059.2 C -264.8 1120.4, -119.3 1012.7, -22.3 1133.0 C 81.5 1107.9, 227.0 1025.3, 324.0 1096.1 C 427.8 1104.4, 573.3 1015.6, 670.3 1036.8 C 774.1 1037.7, 919.6 1068.4, 1016.6 991.1 C 1120.4 1004.8, 1265.9 1079.9, 1362.9 986.7 C 1466.7 1008.4, 1612.2 1099.6, 1709.1 1026.3 C 1813.0 1038.0, 1958.5 1094.9, 2055.4 1085.8 C 2159.3 1087.1, 2304.8 1037.5, 2401.7 1129.2 C 2505.6 1103.0, 2651.1 980.1, 2748.0 1130.1 C 2851.9 1128.2, 2997.4 977.3, 3094.3 1088.0 C 3198.2 1093.8, 3343.7 1045.2, 3440.6 1028.4" fill="none" stroke="url(#ribbon10)" stroke-width="46.4" stroke-linecap="round" stroke-opacity="0.198" /></g><g transform="rotate(-14.49 1536.0 1536.0)"><path d="M-368.6 1322.1 C -273.4 1274.9, -140.1 1361.3, -51.2 1239.3 C 44.0 1220.9, 177.4 1348.2, 266.2 1256.2 C 361.5 1277.3, 494.8 1389.1, 583.7 1313.1 C 678.9 1313.7, 812.2 1329.9, 901.1 1375.4 C 996.4 1376.3, 1129.7 1286.3, 1218.6 1405.4 C 1313.8 1386.4, 1447.1 1248.6, 1536.0 1384.9 C 1631.2 1369.8, 1764.6 1257.4, 1853.4 1326.3 C 1948.7 1325.6, 2082.0 1319.9, 2170.9 1265.1 C 2266.1 1275.2, 2399.4 1342.7, 2488.3 1238.6 C 2583.6 1245.9, 2716.9 1364.7, 2805.8 1262.6 C 2901.0 1284.6, 3034.3 1387.8, 3123.2 1322.8 C 3218.4 1323.0, 3351.8 1321.4, 3440.6 1382.5" fill="none" stroke="url(#ribbon10)" stroke-width="42.4" stroke-linecap="round" stroke-opacity="0.224" /></g><g transform="rotate(-13.91 1536.0 1536.0)"><path d="M-368.6 1502.4 C -225.8 1508.1, -25.8 1494.1, 107.5 1572.5 C 250.4 1589.9, 450.4 1459.3, 583.7 1592.5 C 726.5 1588.6, 926.5 1470.3, 1059.8 1557.8 C 1202.7 1557.5, 1402.7 1453.6, 1536.0 1489.6 C 1678.8 1490.8, 1878.8 1512.0, 2012.2 1429.1 C 2155.0 1426.1, 2355.0 1550.8, 2488.3 1413.1 C 2631.2 1417.2, 2831.2 1560.0, 2964.5 1451.3 C 3107.3 1447.1, 3307.3 1531.7, 3440.6 1520.5" fill="none" stroke="url(#ribbon10)" stroke-width="38.4" stroke-linecap="round" stroke-opacity="0.250" /></g><g transform="rotate(-13.33 1536.0 1536.0)"><path d="M-368.6 1628.0 C -241.7 1685.7, -63.9 1563.5, 54.6 1654.8 C 181.6 1654.3, 359.4 1612.6, 477.9 1579.3 C 604.8 1595.2, 782.6 1658.8, 901.1 1533.3 C 1028.1 1505.8, 1205.9 1672.6, 1324.4 1544.8 C 1451.3 1558.4, 1629.1 1705.8, 1747.6 1606.7 C 1874.6 1602.4, 2052.4 1644.4, 2170.9 1681.6 C 2297.9 1693.8, 2475.6 1592.1, 2594.1 1723.9 C 2721.1 1692.9, 2898.9 1582.4, 3017.4 1708.1 C 3144.4 1718.9, 3322.1 1594.9, 3440.6 1643.7" fill="none" stroke="url(#ribbon10)" stroke-width="34.4" stroke-linecap="round" stroke-opacity="0.276" /></g><g transform="rotate(-12.75 1536.0 1536.0)"><path d="M-368.6 1900.2 C -254.4 1972.2, -94.4 1857.4, 12.3 2004.2 C 126.6 2005.3, 286.6 1865.3, 393.2 1981.7 C 507.5 1962.8, 667.5 1845.2, 774.1 1909.8 C 888.4 1909.1, 1048.4 1894.7, 1155.1 1832.0 C 1269.4 1823.7, 1429.3 1925.1, 1536.0 1795.7 C 1650.3 1833.0, 1810.3 2013.8, 1916.9 1822.7 C 2031.2 1814.9, 2191.2 1947.8, 2297.9 1896.8 C 2412.1 1897.8, 2572.1 1904.4, 2678.8 1973.0 C 2793.1 1985.0, 2953.1 1871.7, 3059.7 2005.0 C 3174.0 1990.2, 3334.0 1801.0, 3440.6 1973.5" fill="none" stroke="url(#ribbon10)" stroke-width="30.4" stroke-linecap="round" stroke-opacity="0.302" /></g><g transform="rotate(-12.17 1536.0 1536.0)"><path d="M-368.6 2112.0 C -264.8 2151.8, -119.3 2072.8, -22.3 2072.9 C 81.5 2080.7, 227.0 2148.2, 324.0 2009.6 C 427.8 1977.0, 573.3 2185.2, 670.3 2008.5 C 774.1 1983.9, 919.6 2198.9, 1016.6 2070.1 C 1120.4 2071.4, 1265.9 2143.9, 1362.9 2157.2 C 1466.7 2171.8, 1612.2 2059.9, 1709.1 2216.9 C 1813.0 2212.4, 1958.5 2043.6, 2055.4 2212.9 C 2159.3 2223.4, 2304.8 1992.9, 2401.7 2147.8 C 2505.6 2139.9, 2651.1 2087.9, 2748.0 2060.9 C 2851.9 2060.9, 2997.4 2146.8, 3094.3 2005.1 C 3198.2 1991.2, 3343.7 2175.5, 3440.6 2014.1" fill="none" stroke="url(#ribbon10)" stroke-width="26.4" stroke-linecap="round" stroke-opacity="0.328" /></g><g transform="rotate(-11.59 1536.0 1536.0)"><path d="M-368.6 2212.1 C -273.4 2088.4, -140.1 2312.7, -51.2 2101.7 C 44.0 2104.2, 177.4 2318.3, 266.2 2166.8 C 361.5 2184.8, 494.8 2236.9, 583.7 2259.4 C 678.9 2250.3, 812.2 2167.8, 901.1 2323.3 C 996.4 2355.6, 1129.7 2104.2, 1218.6 2319.7 C 1313.8 2318.9, 1447.1 2159.9, 1536.0 2250.8 C 1631.2 2243.1, 1764.6 2176.8, 1853.4 2158.4 C 1948.7 2147.9, 2082.0 2269.1, 2170.9 2098.6 C 2266.1 2053.5, 2399.4 2319.2, 2488.3 2107.6 C 2583.6 2110.9, 2716.9 2298.3, 2805.8 2179.9 C 2901.0 2170.0, 3034.3 2227.7, 3123.2 2271.8 C 3218.4 2292.8, 3351.8 2155.1, 3440.6 2327.4" fill="none" stroke="url(#ribbon10)" stroke-width="22.4" stroke-linecap="round" stroke-opacity="0.354" /></g><g transform="rotate(-11.01 1536.0 1536.0)"><path d="M-368.6 2452.6 C -225.8 2329.6, -25.8 2557.1, 107.5 2439.5 C 250.4 2442.0, 450.4 2458.0, 583.7 2533.3 C 726.5 2551.2, 926.5 2367.3, 1059.8 2578.2 C 1202.7 2594.3, 1402.7 2370.4, 1536.0 2546.9 C 1678.8 2513.9, 1878.8 2339.6, 2012.2 2458.4 C 2155.0 2458.8, 2355.0 2449.8, 2488.3 2366.4 C 2631.2 2350.4, 2831.2 2531.9, 2964.5 2326.7 C 3107.3 2308.7, 3307.3 2603.3, 3440.6 2363.4" fill="none" stroke="url(#ribbon10)" stroke-width="18.4" stroke-linecap="round" stroke-opacity="0.380" /></g><g transform="rotate(-10.43 1536.0 1536.0)"><path d="M-368.6 2690.8 C -241.7 2744.5, -63.9 2668.4, 54.6 2811.6 C 181.6 2777.1, 359.4 2549.1, 477.9 2814.9 C 604.8 2837.2, 782.6 2565.8, 901.1 2742.9 C 1028.1 2760.9, 1205.9 2631.0, 1324.4 2639.3 C 1451.3 2619.0, 1629.1 2707.4, 1747.6 2566.9 C 1874.6 2532.0, 2052.4 2820.3, 2170.9 2569.7 C 2297.9 2577.4, 2475.6 2827.2, 2594.1 2645.9 C 2721.1 2662.2, 2898.9 2726.9, 3017.4 2749.3 C 3144.4 2734.3, 3322.1 2668.6, 3440.6 2817.2" fill="none" stroke="url(#ribbon10)" stroke-width="14.4" stroke-linecap="round" stroke-opacity="0.406" /></g></g>
  <g><ellipse cx="1536.0" cy="1551.9" rx="728.6" ry="605.7" fill="url(#extrude10)" opacity="0.220" /><ellipse cx="1536.0" cy="1567.7" rx="736.0" ry="610.9" fill="url(#extrude10)" opacity="0.205" /><ellipse cx="1536.0" cy="1583.6" rx="743.4" ry="616.1" fill="url(#extrude10)" opacity="0.190" /><ellipse cx="1536.0" cy="1599.5" rx="750.9" ry="621.3" fill="url(#extrude10)" opacity="0.175" /><ellipse cx="1536.0" cy="1615.4" rx="758.3" ry="626.5" fill="url(#extrude10)" opacity="0.160" /><ellipse cx="1536.0" cy="1631.2" rx="765.7" ry="631.7" fill="url(#extrude10)" opacity="0.145" /><ellipse cx="1536.0" cy="1647.1" rx="773.2" ry="636.9" fill="url(#extrude10)" opacity="0.130" /><ellipse cx="1536.0" cy="1663.0" rx="780.6" ry="642.1" fill="url(#extrude10)" opacity="0.115" /><ellipse cx="1536.0" cy="1678.8" rx="788.0" ry="647.4" fill="url(#extrude10)" opacity="0.100" /><ellipse cx="1536.0" cy="1694.7" rx="795.5" ry="652.6" fill="url(#extrude10)" opacity="0.085" /><ellipse cx="1536.0" cy="1710.6" rx="802.9" ry="657.8" fill="url(#extrude10)" opacity="0.070" /><ellipse cx="1536.0" cy="1726.5" rx="810.3" ry="663.0" fill="url(#extrude10)" opacity="0.055" /></g>
  <ellipse cx="1536.0" cy="1726.5" rx="773.2" ry="214.9" fill="#0B1D2D" opacity="0.24" />
  <ellipse cx="1536.0" cy="1536.0" rx="743.4" ry="651.3" fill="url(#orb10)" stroke="#FFFFFF" stroke-opacity="0.42" stroke-width="7" />
  <ellipse cx="1431.9" cy="1392.7" rx="505.5" ry="299.6" fill="#FFFFFF" opacity="0.25" />
  <path d="M 199.4 399.4 C 1013.8 -30.7, 2058.2 768.0, 2872.6 215.0 L 2872.6 983.0 C 2089.0 1228.8, 1013.8 307.2, 199.4 1167.4 Z" fill="url(#glass10)" />
  <rect x="270" y="270" width="2532" height="2532" rx="430" fill="none" stroke="#FFFFFF" stroke-opacity="0.30" stroke-width="5" />
  <rect x="288.4" y="288.4" width="2495.1" height="2495.1" rx="399" fill="none" stroke="#FF6AB3" stroke-opacity="0.35" stroke-width="3" />
  <g filter="url(#soft10)"><rect x="625" y="680" width="78" height="2" fill="#FFFFFF" opacity="0.703" /><rect x="663" y="642" width="2" height="78" fill="#FFFFFF" opacity="0.703" /><rect x="1513" y="2477" width="36" height="2" fill="#FFFFFF" opacity="0.706" /><rect x="1530" y="2460" width="2" height="36" fill="#FFFFFF" opacity="0.706" /><rect x="277" y="363" width="62" height="2" fill="#FFFFFF" opacity="0.545" /><rect x="307" y="333" width="2" height="62" fill="#FFFFFF" opacity="0.545" /><rect x="1297" y="537" width="24" height="2" fill="#FFFFFF" opacity="0.783" /><rect x="1308" y="526" width="2" height="24" fill="#FFFFFF" opacity="0.783" /><rect x="2036" y="433" width="42" height="2" fill="#FFFFFF" opacity="0.537" /><rect x="2056" y="413" width="2" height="42" fill="#FFFFFF" opacity="0.537" /><rect x="870" y="2497" width="48" height="2" fill="#FFFFFF" opacity="0.452" /><rect x="893" y="2474" width="2" height="48" fill="#FFFFFF" opacity="0.452" /><rect x="1941" y="2663" width="30" height="2" fill="#FFFFFF" opacity="0.320" /><rect x="1955" y="2649" width="2" height="30" fill="#FFFFFF" opacity="0.320" /><rect x="1637" y="1738" width="68" height="2" fill="#FFFFFF" opacity="0.539" /><rect x="1670" y="1705" width="2" height="68" fill="#FFFFFF" opacity="0.539" /><rect x="1969" y="373" width="44" height="2" fill="#FFFFFF" opacity="0.845" /><rect x="1990" y="352" width="2" height="44" fill="#FFFFFF" opacity="0.845" /><rect x="464" y="1912" width="52" height="2" fill="#FFFFFF" opacity="0.304" /><rect x="489" y="1887" width="2" height="52" fill="#FFFFFF" opacity="0.304" /><rect x="1280" y="2683" width="44" height="2" fill="#FFFFFF" opacity="0.490" /><rect x="1301" y="2662" width="2" height="44" fill="#FFFFFF" opacity="0.490" /><rect x="766" y="327" width="54" height="2" fill="#FFFFFF" opacity="0.737" /><rect x="792" y="301" width="2" height="54" fill="#FFFFFF" opacity="0.737" /><rect x="742" y="978" width="56" height="2" fill="#FFFFFF" opacity="0.301" /><rect x="769" y="951" width="2" height="56" fill="#FFFFFF" opacity="0.301" /><rect x="1838" y="1735" width="30" height="2" fill="#FFFFFF" opacity="0.457" /><rect x="1852" y="1721" width="2" height="30" fill="#FFFFFF" opacity="0.457" /><rect x="822" y="1037" width="38" height="2" fill="#FFFFFF" opacity="0.732" /><rect x="840" y="1019" width="2" height="38" fill="#FFFFFF" opacity="0.732" /><rect x="1379" y="2040" width="30" height="2" fill="#FFFFFF" opacity="0.725" /><rect x="1393" y="2026" width="2" height="30" fill="#FFFFFF" opacity="0.725" /><rect x="2629" y="2411" width="36" height="2" fill="#FFFFFF" opacity="0.350" /><rect x="2646" y="2394" width="2" height="36" fill="#FFFFFF" opacity="0.350" /><rect x="1502" y="2392" width="50" height="2" fill="#FFFFFF" opacity="0.314" /><rect x="1526" y="2368" width="2" height="50" fill="#FFFFFF" opacity="0.314" /><rect x="2358" y="628" width="26" height="2" fill="#FFFFFF" opacity="0.349" /><rect x="2370" y="616" width="2" height="26" fill="#FFFFFF" opacity="0.349" /><rect x="309" y="772" width="66" height="2" fill="#FFFFFF" opacity="0.588" /><rect x="341" y="740" width="2" height="66" fill="#FFFFFF" opacity="0.588" /><rect x="1471" y="2162" width="52" height="2" fill="#FFFFFF" opacity="0.570" /><rect x="1496" y="2137" width="2" height="52" fill="#FFFFFF" opacity="0.570" /><rect x="1903" y="1360" width="68" height="2" fill="#FFFFFF" opacity="0.443" /><rect x="1936" y="1327" width="2" height="68" fill="#FFFFFF" opacity="0.443" /><rect x="2729" y="1760" width="34" height="2" fill="#FFFFFF" opacity="0.783" /><rect x="2745" y="1744" width="2" height="34" fill="#FFFFFF" opacity="0.783" /><rect x="2005" y="1399" width="58" height="2" fill="#FFFFFF" opacity="0.354" /><rect x="2033" y="1371" width="2" height="58" fill="#FFFFFF" opacity="0.354" /><rect x="1715" y="2762" width="78" height="2" fill="#FFFFFF" opacity="0.628" /><rect x="1753" y="2724" width="2" height="78" fill="#FFFFFF" opacity="0.628" /><rect x="2066" y="878" width="56" height="2" fill="#FFFFFF" opacity="0.686" /><rect x="2093" y="851" width="2" height="56" fill="#FFFFFF" opacity="0.686" /></g>
  <g opacity="0.52"><path d="M996 1582 C1316 1006, 1572 2158, 2148 1582" fill="none" stroke="#0C2030" stroke-width="90" /><circle cx="1188" cy="1582" r="109" fill="#0C2030" /><circle cx="1572" cy="1582" r="109" fill="#0C2030" /><circle cx="1956" cy="1582" r="109" fill="#0C2030" /></g>
  <g filter="url(#soft10)"><path d="M960 1536 C1280 960, 1536 2112, 2112 1536" fill="none" stroke="url(#symbol10)" stroke-width="90" /><circle cx="1152" cy="1536" r="109" fill="url(#symbol10)" /><circle cx="1536" cy="1536" r="109" fill="url(#symbol10)" /><circle cx="1920" cy="1536" r="109" fill="url(#symbol10)" /></g>
  <rect x="138" y="138" width="2796" height="2796" rx="629" fill="#FFFFFF" filter="url(#grain10)" opacity="0.18" />
</svg>
