<svg xmlns="http://www.w3.org/2000/svg" width="3072" height="3072" viewBox="0 0 3072 3072">
  <title>QuartzOS App Icon 071 - vivid_player_071</title>
  <defs><linearGradient id="bg70" x1="0%" y1="0%" x2="100%" y2="100%"><stop offset="0%" stop-color="#36D1FF" /><stop offset="26%" stop-color="#8A5CFF" /><stop offset="56%" stop-color="#FF9F43" /><stop offset="78%" stop-color="#58A3D8" /><stop offset="100%" stop-color="#1D2F45" /></linearGradient><radialGradient id="sun70" cx="30%" cy="16%" r="88%"><stop offset="0%" stop-color="#FFFFFF" stop-opacity="0.62" /><stop offset="30%" stop-color="#FFD84D" stop-opacity="0.35" /><stop offset="100%" stop-color="#FFD84D" stop-opacity="0" /></radialGradient><linearGradient id="glass70" x1="0%" y1="0%" x2="0%" y2="100%"><stop offset="0%" stop-color="#FFFFFF" stop-opacity="0.70" /><stop offset="46%" stop-color="#FFFFFF" stop-opacity="0.26" /><stop offset="100%" stop-color="#FFFFFF" stop-opacity="0.00" /></linearGradient><linearGradient id="ribbon70" x1="0%" y1="0%" x2="100%" y2="0%"><stop offset="0%" stop-color="#36D1FF" stop-opacity="0.18" /><stop offset="34%" stop-color="#8A5CFF" stop-opacity="0.72" /><stop offset="66%" stop-color="#FF9F43" stop-opacity="0.72" /><stop offset="100%" stop-color="#FFD84D" stop-opacity="0.18" /></linearGradient><radialGradient id="orb70" cx="34%" cy="27%" r="74%"><stop offset="0%" stop-color="#FFFFFF" stop-opacity="0.84" /><stop offset="30%" stop-color="#36D1FF" stop-opacity="0.52" /><stop offset="68%" stop-color="#8A5CFF" stop-opacity="0.42" /><stop offset="100%" stop-color="#FF9F43" stop-opacity="0.20" /></radialGradient><linearGradient id="extrude70" x1="0%" y1="0%" x2="0%" y2="100%"><stop offset="0%" stop-color="#15283C" stop-opacity="0.45" /><stop offset="100%" stop-color="#08131D" stop-opacity="0.06" /></linearGradient><linearGradient id="symbol70" x1="0%" y1="0%" x2="100%" y2="100%"><stop offset="0%" stop-color="#FFFFFF" /><stop offset="100%" stop-color="#FFD84D" /></linearGradient><filter id="shadow70" x="-40%" y="-40%" width="180%" height="180%"><feDropShadow dx="0" dy="49" stdDeviation="86" flood-color="#06111A" flood-opacity="0.54" /></filter><filter id="soft70" x="-40%" y="-40%" width="180%" height="180%"><feDropShadow dx="0" dy="0" stdDeviation="14" flood-color="#36D1FF" flood-opacity="0.45" /></filter><filter id="grain70"><feTurbulence type="fractalNoise" baseFrequency="0.702" numOctaves="2" seed="70" /><feColorMatrix type="saturate" values="0" /><feComponentTransfer><feFuncA type="table" tableValues="0 0.09" /></feComponentTransfer></filter></defs>
  <rect x="138" y="138" width="2796" height="2796" rx="629" fill="url(#bg70)" filter="url(#shadow70)" />
  <rect x="138" y="138" width="2796" height="2796" rx="629" fill="url(#sun70)" />
  <g><circle cx="2630" cy="1474" r="89" fill="#FFFFFF" opacity="0.197" /><circle cx="1321" cy="1475" r="129" fill="#FFFFFF" opacity="0.211" /><circle cx="644" cy="2487" r="112" fill="#FFFFFF" opacity="0.224" /><circle cx="755" cy="1949" r="43" fill="#FFFFFF" opacity="0.195" /><circle cx="564" cy="2642" r="63" fill="#FFFFFF" opacity="0.169" /><circle cx="2308" cy="1438" r="67" fill="#FFFFFF" opacity="0.230" /><circle cx="403" cy="1928" r="75" fill="#FFFFFF" opacity="0.131" /><circle cx="1603" cy="2600" r="85" fill="#FFFFFF" opacity="0.222" /><circle cx="2647" cy="1477" r="150" fill="#FFFFFF" opacity="0.096" /><circle cx="1636" cy="1239" r="106" fill="#FFFFFF" opacity="0.095" /><circle cx="826" cy="1830" r="105" fill="#FFFFFF" opacity="0.208" /><circle cx="1180" cy="1712" r="95" fill="#FFFFFF" opacity="0.139" /><circle cx="1270" cy="750" r="84" fill="#FFFFFF" opacity="0.213" /><circle cx="2009" cy="742" r="115" fill="#FFFFFF" opacity="0.159" /><circle cx="634" cy="2565" r="149" fill="#FFFFFF" opacity="0.198" /><circle cx="2265" cy="1932" r="50" fill="#FFFFFF" opacity="0.117" /><circle cx="938" cy="714" r="71" fill="#FFFFFF" opacity="0.144" /><circle cx="1643" cy="1074" r="132" fill="#FFFFFF" opacity="0.109" /><circle cx="1396" cy="564" r="46" fill="#FFFFFF" opacity="0.067" /><circle cx="2052" cy="2158" r="65" fill="#FFFFFF" opacity="0.226" /><circle cx="2071" cy="1056" r="126" fill="#FFFFFF" opacity="0.213" /><circle cx="1419" cy="1784" r="62" fill="#FFFFFF" opacity="0.098" /><circle cx="671" cy="2250" r="92" fill="#FFFFFF" opacity="0.240" /><circle cx="1645" cy="1879" r="99" fill="#FFFFFF" opacity="0.131" /><circle cx="1155" cy="446" r="135" fill="#FFFFFF" opacity="0.061" /><circle cx="2699" cy="393" r="116" fill="#FFFFFF" opacity="0.084" /><circle cx="1491" cy="2020" r="122" fill="#FFFFFF" opacity="0.218" /><circle cx="1528" cy="727" r="144" fill="#FFFFFF" opacity="0.232" /></g>
  <g><path d="M 205.5 654.6 L 2707.1 378.1 L 2707.1 832.7 L 205.5 1109.2 Z" fill="#FFFFFF" opacity="0.086" /><path d="M 366.7 876.4 L 2685.1 599.9 L 2685.1 1033.8 L 366.7 1310.2 Z" fill="#FFFFFF" opacity="0.124" /><path d="M 168.3 1115.6 L 2820.8 839.2 L 2820.8 1260.8 L 168.3 1537.3 Z" fill="#FFFFFF" opacity="0.095" /><path d="M 352.5 1369.5 L 2896.1 1093.0 L 2896.1 1542.4 L 352.5 1818.9 Z" fill="#FFFFFF" opacity="0.172" /><path d="M 330.4 1681.7 L 2761.1 1405.3 L 2761.1 1855.6 L 330.4 2132.0 Z" fill="#FFFFFF" opacity="0.154" /><path d="M 159.2 1924.8 L 2804.5 1648.3 L 2804.5 2118.1 L 159.2 2394.6 Z" fill="#FFFFFF" opacity="0.189" /><path d="M 242.7 2165.4 L 2886.7 1888.9 L 2886.7 2309.9 L 242.7 2586.4 Z" fill="#FFFFFF" opacity="0.085" /><path d="M 318.4 2474.8 L 2690.2 2198.3 L 2690.2 2660.1 L 318.4 2936.6 Z" fill="#FFFFFF" opacity="0.185" /></g>
  <g filter="url(#soft70)"><g transform="rotate(-4.34 1536.0 1536.0)"><path d="M-368.6 464.2 C -225.8 402.8, -25.8 500.7, 107.5 450.4 C 250.4 445.3, 450.4 477.3, 583.7 493.0 C 726.5 500.7, 926.5 446.8, 1059.8 518.1 C 1202.7 521.5, 1402.7 416.9, 1536.0 510.5 C 1678.8 501.7, 1878.8 412.4, 2012.2 474.8 C 2155.0 471.5, 2355.0 452.7, 2488.3 432.7 C 2631.2 437.7, 2831.2 475.2, 2964.5 409.6 C 3107.3 413.4, 3307.3 526.6, 3440.6 419.7" fill="none" stroke="url(#ribbon70)" stroke-width="58.4" stroke-linecap="round" stroke-opacity="0.120" /></g><g transform="rotate(-3.76 1536.0 1536.0)"><path d="M-368.6 766.4 C -241.7 747.4, -63.9 797.4, 54.6 787.7 C 181.6 781.4, 359.4 754.2, 477.9 823.3 C 604.8 800.8, 782.6 717.3, 901.1 824.5 C 1028.1 826.0, 1205.9 700.9, 1324.4 790.4 C 1451.3 797.4, 1629.1 739.5, 1747.6 741.9 C 1874.6 744.8, 2052.4 788.1, 2170.9 708.2 C 2297.9 709.7, 2475.6 823.3, 2594.1 709.9 C 2721.1 690.1, 2898.9 820.3, 3017.4 745.9 C 3144.4 746.3, 3322.1 785.2, 3440.6 794.3" fill="none" stroke="url(#ribbon70)" stroke-width="54.4" stroke-linecap="round" stroke-opacity="0.146" /></g><g transform="rotate(-3.18 1536.0 1536.0)"><path d="M-368.6 911.8 C -254.4 930.0, -94.4 890.4, 12.3 880.0 C 126.6 880.3, 286.6 946.0, 393.2 845.4 C 507.5 858.9, 667.5 942.8, 774.1 851.1 C 888.4 846.1, 1048.4 953.6, 1155.1 893.7 C 1269.4 889.3, 1429.3 922.1, 1536.0 947.2 C 1650.3 958.6, 1810.3 874.7, 1916.9 979.3 C 2031.2 968.1, 2191.2 868.7, 2297.9 970.5 C 2412.1 955.4, 2572.1 883.9, 2678.8 926.1 C 2793.1 927.5, 2953.1 898.9, 3059.7 873.0 C 3174.0 878.1, 3334.0 940.2, 3440.6 843.5" fill="none" stroke="url(#ribbon70)" stroke-width="50.4" stroke-linecap="round" stroke-opacity="0.172" /></g><g transform="rotate(-2.60 1536.0 1536.0)"><path d="M-368.6 1047.7 C -264.8 983.0, -119.3 1099.4, -22.3 971.5 C 81.5 959.5, 227.0 1123.9, 324.0 989.3 C 427.8 974.0, 573.3 1084.0, 670.3 1042.4 C 774.1 1042.1, 919.6 1052.2, 1016.6 1098.8 C 1120.4 1100.4, 1265.9 995.5, 1362.9 1124.1 C 1466.7 1113.5, 1612.2 985.8, 1709.1 1103.1 C 1813.0 1125.2, 1958.5 1018.8, 2055.4 1048.4 C 2159.3 1048.6, 2304.8 1047.4, 2401.7 993.3 C 2505.6 985.5, 2651.1 1077.7, 2748.0 971.2 C 2851.9 945.6, 2997.4 1083.5, 3094.3 995.4 C 3198.2 1011.6, 3343.7 1093.5, 3440.6 1051.4" fill="none" stroke="url(#ribbon70)" stroke-width="46.4" stroke-linecap="round" stroke-opacity="0.198" /></g><g transform="rotate(-2.02 1536.0 1536.0)"><path d="M-368.6 1350.0 C -273.4 1262.4, -140.1 1402.8, -51.2 1309.0 C 44.0 1306.4, 177.4 1384.6, 266.2 1373.6 C 361.5 1372.1, 494.8 1334.6, 583.7 1423.9 C 678.9 1403.7, 812.2 1317.9, 901.1 1429.4 C 996.4 1450.8, 1129.7 1264.1, 1218.6 1386.6 C 1313.8 1387.2, 1447.1 1312.2, 1536.0 1321.7 C 1631.2 1314.3, 1764.6 1366.6, 1853.4 1273.8 C 1948.7 1287.2, 2082.0 1414.0, 2170.9 1272.2 C 2266.1 1287.5, 2399.4 1375.8, 2488.3 1317.7 C 2583.6 1323.8, 2716.9 1376.7, 2805.8 1382.8 C 2901.0 1392.6, 3034.3 1311.3, 3123.2 1428.0 C 3218.4 1431.2, 3351.8 1302.9, 3440.6 1425.8" fill="none" stroke="url(#ribbon70)" stroke-width="42.4" stroke-linecap="round" stroke-opacity="0.224" /></g><g transform="rotate(-1.44 1536.0 1536.0)"><path d="M-368.6 1487.1 C -225.8 1393.7, -25.8 1573.6, 107.5 1457.0 C 250.4 1468.5, 450.4 1506.7, 583.7 1527.4 C 726.5 1535.5, 926.5 1450.8, 1059.8 1573.4 C 1202.7 1577.6, 1402.7 1399.1, 1536.0 1567.0 C 1678.8 1584.5, 1878.8 1429.2, 2012.2 1512.1 C 2155.0 1507.6, 2355.0 1458.1, 2488.3 1442.1 C 2631.2 1453.6, 2831.2 1538.9, 2964.5 1399.3 C 3107.3 1433.6, 3307.3 1540.9, 3440.6 1409.8" fill="none" stroke="url(#ribbon70)" stroke-width="38.4" stroke-linecap="round" stroke-opacity="0.250" /></g><g transform="rotate(-0.86 1536.0 1536.0)"><path d="M-368.6 1676.6 C -241.7 1634.0, -63.9 1712.6, 54.6 1683.1 C 181.6 1683.0, 359.4 1674.3, 477.9 1751.1 C 604.8 1727.4, 782.6 1599.8, 901.1 1773.8 C 1028.1 1799.8, 1205.9 1564.9, 1324.4 1737.6 C 1451.3 1737.9, 1629.1 1645.9, 1747.6 1664.4 C 1874.6 1667.1, 2052.4 1685.6, 2170.9 1598.5 C 2297.9 1597.7, 2475.6 1753.9, 2594.1 1580.1 C 2721.1 1567.6, 2898.9 1757.0, 3017.4 1620.1 C 3144.4 1600.9, 3322.1 1738.7, 3440.6 1694.4" fill="none" stroke="url(#ribbon70)" stroke-width="34.4" stroke-linecap="round" stroke-opacity="0.276" /></g><g transform="rotate(-0.28 1536.0 1536.0)"><path d="M-368.6 1862.7 C -254.4 1807.8, -94.4 1902.7, 12.3 1873.8 C 126.6 1872.1, 286.6 1849.5, 393.2 1945.2 C 507.5 1959.4, 667.5 1784.4, 774.1 1966.5 C 888.4 1971.9, 1048.4 1804.0, 1155.1 1924.8 C 1269.4 1901.4, 1429.3 1813.6, 1536.0 1845.4 C 1650.3 1843.0, 1810.3 1870.4, 1916.9 1776.5 C 2031.2 1776.2, 2191.2 1940.9, 2297.9 1759.9 C 2412.1 1797.6, 2572.1 1970.9, 2678.8 1805.6 C 2793.1 1800.9, 2953.1 1921.1, 3059.7 1885.9 C 3174.0 1894.9, 3334.0 1847.2, 3440.6 1952.1" fill="none" stroke="url(#ribbon70)" stroke-width="30.4" stroke-linecap="round" stroke-opacity="0.302" /></g><g transform="rotate(0.30 1536.0 1536.0)"><path d="M-368.6 2087.0 C -264.8 2134.3, -119.3 2072.3, -22.3 2042.3 C 81.5 2028.3, 227.0 2115.2, 324.0 1982.4 C 427.8 2006.6, 573.3 2208.2, 670.3 1985.9 C 774.1 1949.8, 919.6 2181.4, 1016.6 2050.8 C 1120.4 2052.5, 1265.9 2122.0, 1362.9 2137.7 C 1466.7 2119.7, 1612.2 2029.8, 1709.1 2193.8 C 1813.0 2190.6, 1958.5 2009.8, 2055.4 2185.2 C 2159.3 2215.8, 2304.8 2011.4, 2401.7 2117.0 C 2505.6 2110.4, 2651.1 2067.6, 2748.0 2030.7 C 2851.9 2051.8, 2997.4 2114.4, 3094.3 1978.5 C 3198.2 2009.9, 3343.7 2215.5, 3440.6 1992.2" fill="none" stroke="url(#ribbon70)" stroke-width="26.4" stroke-linecap="round" stroke-opacity="0.328" /></g><g transform="rotate(0.88 1536.0 1536.0)"><path d="M-368.6 2318.0 C -273.4 2173.3, -140.1 2367.9, -51.2 2216.9 C 44.0 2228.8, 177.4 2411.8, 266.2 2292.5 C 361.5 2284.8, 494.8 2334.5, 583.7 2383.5 C 678.9 2373.9, 812.2 2279.4, 901.1 2434.8 C 996.4 2408.0, 1129.7 2239.8, 1218.6 2415.2 C 1313.8 2398.7, 1447.1 2256.0, 1536.0 2336.6 C 1631.2 2334.1, 1764.6 2303.1, 1853.4 2246.7 C 1948.7 2273.0, 2082.0 2350.3, 2170.9 2200.0 C 2266.1 2202.3, 2399.4 2447.3, 2488.3 2224.9 C 2583.6 2240.8, 2716.9 2389.2, 2805.8 2306.2 C 2901.0 2303.7, 3034.3 2331.3, 3123.2 2394.6 C 3218.4 2380.5, 3351.8 2264.1, 3440.6 2436.6" fill="none" stroke="url(#ribbon70)" stroke-width="22.4" stroke-linecap="round" stroke-opacity="0.354" /></g><g transform="rotate(1.46 1536.0 1536.0)"><path d="M-368.6 2458.1 C -225.8 2600.9, -25.8 2357.4, 107.5 2515.5 C 250.4 2512.8, 450.4 2400.5, 583.7 2417.7 C 726.5 2402.1, 926.5 2483.2, 1059.8 2344.4 C 1202.7 2336.7, 1402.7 2554.9, 1536.0 2340.1 C 1678.8 2384.9, 1878.8 2515.1, 2012.2 2407.3 C 2155.0 2393.0, 2355.0 2516.7, 2488.3 2505.4 C 2631.2 2522.1, 2831.2 2407.9, 2964.5 2574.8 C 3107.3 2598.8, 3307.3 2335.2, 3440.6 2573.4" fill="none" stroke="url(#ribbon70)" stroke-width="18.4" stroke-linecap="round" stroke-opacity="0.380" /></g><g transform="rotate(2.04 1536.0 1536.0)"><path d="M-368.6 2707.9 C -241.7 2766.7, -63.9 2685.5, 54.6 2830.9 C 181.6 2878.9, 359.4 2627.3, 477.9 2829.8 C 604.8 2878.6, 782.6 2628.8, 901.1 2754.8 C 1028.1 2752.2, 1205.9 2690.4, 1324.4 2651.2 C 1451.3 2633.0, 1629.1 2774.7, 1747.6 2582.1 C 1874.6 2566.2, 2052.4 2841.8, 2170.9 2589.2 C 2297.9 2615.4, 2475.6 2743.5, 2594.1 2668.3 C 2721.1 2670.6, 2898.9 2737.3, 3017.4 2771.4 C 3144.4 2791.9, 3322.1 2679.5, 3440.6 2836.0" fill="none" stroke="url(#ribbon70)" stroke-width="14.4" stroke-linecap="round" stroke-opacity="0.406" /></g></g>
  <g><ellipse cx="1536.0" cy="1551.9" rx="728.6" ry="605.7" fill="url(#extrude70)" opacity="0.220" /><ellipse cx="1536.0" cy="1567.7" rx="736.0" ry="610.9" fill="url(#extrude70)" opacity="0.205" /><ellipse cx="1536.0" cy="1583.6" rx="743.4" ry="616.1" fill="url(#extrude70)" opacity="0.190" /><ellipse cx="1536.0" cy="1599.5" rx="750.9" ry="621.3" fill="url(#extrude70)" opacity="0.175" /><ellipse cx="1536.0" cy="1615.4" rx="758.3" ry="626.5" fill="url(#extrude70)" opacity="0.160" /><ellipse cx="1536.0" cy="1631.2" rx="765.7" ry="631.7" fill="url(#extrude70)" opacity="0.145" /><ellipse cx="1536.0" cy="1647.1" rx="773.2" ry="636.9" fill="url(#extrude70)" opacity="0.130" /><ellipse cx="1536.0" cy="1663.0" rx="780.6" ry="642.1" fill="url(#extrude70)" opacity="0.115" /><ellipse cx="1536.0" cy="1678.8" rx="788.0" ry="647.4" fill="url(#extrude70)" opacity="0.100" /><ellipse cx="1536.0" cy="1694.7" rx="795.5" ry="652.6" fill="url(#extrude70)" opacity="0.085" /><ellipse cx="1536.0" cy="1710.6" rx="802.9" ry="657.8" fill="url(#extrude70)" opacity="0.070" /><ellipse cx="1536.0" cy="1726.5" rx="810.3" ry="663.0" fill="url(#extrude70)" opacity="0.055" /></g>
  <ellipse cx="1536.0" cy="1726.5" rx="773.2" ry="214.9" fill="#0B1D2D" opacity="0.24" />
  <ellipse cx="1536.0" cy="1536.0" rx="743.4" ry="651.3" fill="url(#orb70)" stroke="#FFFFFF" stroke-opacity="0.42" stroke-width="7" />
  <ellipse cx="1431.9" cy="1392.7" rx="505.5" ry="299.6" fill="#FFFFFF" opacity="0.25" />
  <path d="M 199.4 399.4 C 1013.8 -30.7, 2058.2 768.0, 2872.6 215.0 L 2872.6 983.0 C 2089.0 1228.8, 1013.8 307.2, 199.4 1167.4 Z" fill="url(#glass70)" />
  <rect x="270" y="270" width="2532" height="2532" rx="430" fill="none" stroke="#FFFFFF" stroke-opacity="0.30" stroke-width="5" />
  <rect x="288.4" y="288.4" width="2495.1" height="2495.1" rx="399" fill="none" stroke="#36D1FF" stroke-opacity="0.35" stroke-width="3" />
  <g filter="url(#soft70)"><rect x="497" y="1106" width="28" height="2" fill="#FFFFFF" opacity="0.428" /><rect x="510" y="1093" width="2" height="28" fill="#FFFFFF" opacity="0.428" /><rect x="1220" y="341" width="54" height="2" fill="#FFFFFF" opacity="0.726" /><rect x="1246" y="315" width="2" height="54" fill="#FFFFFF" opacity="0.726" /><rect x="827" y="875" width="58" height="2" fill="#FFFFFF" opacity="0.575" /><rect x="855" y="847" width="2" height="58" fill="#FFFFFF" opacity="0.575" /><rect x="2146" y="781" width="76" height="2" fill="#FFFFFF" opacity="0.695" /><rect x="2183" y="744" width="2" height="76" fill="#FFFFFF" opacity="0.695" /><rect x="1289" y="846" width="52" height="2" fill="#FFFFFF" opacity="0.681" /><rect x="1314" y="821" width="2" height="52" fill="#FFFFFF" opacity="0.681" /><rect x="356" y="1732" width="72" height="2" fill="#FFFFFF" opacity="0.786" /><rect x="391" y="1697" width="2" height="72" fill="#FFFFFF" opacity="0.786" /><rect x="734" y="1132" width="64" height="2" fill="#FFFFFF" opacity="0.495" /><rect x="765" y="1101" width="2" height="64" fill="#FFFFFF" opacity="0.495" /><rect x="2786" y="735" width="58" height="2" fill="#FFFFFF" opacity="0.775" /><rect x="2814" y="707" width="2" height="58" fill="#FFFFFF" opacity="0.775" /><rect x="1550" y="678" width="84" height="2" fill="#FFFFFF" opacity="0.522" /><rect x="1591" y="637" width="2" height="84" fill="#FFFFFF" opacity="0.522" /><rect x="852" y="2613" width="56" height="2" fill="#FFFFFF" opacity="0.413" /><rect x="879" y="2586" width="2" height="56" fill="#FFFFFF" opacity="0.413" /><rect x="779" y="346" width="46" height="2" fill="#FFFFFF" opacity="0.548" /><rect x="801" y="324" width="2" height="46" fill="#FFFFFF" opacity="0.548" /><rect x="400" y="583" width="74" height="2" fill="#FFFFFF" opacity="0.442" /><rect x="436" y="547" width="2" height="74" fill="#FFFFFF" opacity="0.442" /><rect x="2086" y="1099" width="44" height="2" fill="#FFFFFF" opacity="0.656" /><rect x="2107" y="1078" width="2" height="44" fill="#FFFFFF" opacity="0.656" /><rect x="2071" y="349" width="58" height="2" fill="#FFFFFF" opacity="0.604" /><rect x="2099" y="321" width="2" height="58" fill="#FFFFFF" opacity="0.604" /><rect x="1040" y="2362" width="54" height="2" fill="#FFFFFF" opacity="0.361" /><rect x="1066" y="2336" width="2" height="54" fill="#FFFFFF" opacity="0.361" /><rect x="2517" y="1529" width="30" height="2" fill="#FFFFFF" opacity="0.718" /><rect x="2531" y="1515" width="2" height="30" fill="#FFFFFF" opacity="0.718" /><rect x="1201" y="524" width="82" height="2" fill="#FFFFFF" opacity="0.804" /><rect x="1241" y="484" width="2" height="82" fill="#FFFFFF" opacity="0.804" /><rect x="1520" y="1910" width="80" height="2" fill="#FFFFFF" opacity="0.419" /><rect x="1559" y="1871" width="2" height="80" fill="#FFFFFF" opacity="0.419" /><rect x="905" y="2724" width="46" height="2" fill="#FFFFFF" opacity="0.653" /><rect x="927" y="2702" width="2" height="46" fill="#FFFFFF" opacity="0.653" /><rect x="2479" y="1865" width="50" height="2" fill="#FFFFFF" opacity="0.843" /><rect x="2503" y="1841" width="2" height="50" fill="#FFFFFF" opacity="0.843" /><rect x="769" y="480" width="78" height="2" fill="#FFFFFF" opacity="0.563" /><rect x="807" y="442" width="2" height="78" fill="#FFFFFF" opacity="0.563" /><rect x="692" y="1361" width="54" height="2" fill="#FFFFFF" opacity="0.590" /><rect x="718" y="1335" width="2" height="54" fill="#FFFFFF" opacity="0.590" /><rect x="2286" y="1423" width="78" height="2" fill="#FFFFFF" opacity="0.801" /><rect x="2324" y="1385" width="2" height="78" fill="#FFFFFF" opacity="0.801" /><rect x="604" y="2171" width="24" height="2" fill="#FFFFFF" opacity="0.781" /><rect x="615" y="2160" width="2" height="24" fill="#FFFFFF" opacity="0.781" /><rect x="1776" y="724" width="58" height="2" fill="#FFFFFF" opacity="0.818" /><rect x="1804" y="696" width="2" height="58" fill="#FFFFFF" opacity="0.818" /><rect x="694" y="2685" width="78" height="2" fill="#FFFFFF" opacity="0.532" /><rect x="732" y="2647" width="2" height="78" fill="#FFFFFF" opacity="0.532" /></g>
  <g opacity="0.52"><path d="M996 1582 C1316 1006, 1572 2158, 2148 1582" fill="none" stroke="#0C2030" stroke-width="90" /><circle cx="1188" cy="1582" r="109" fill="#0C2030" /><circle cx="1572" cy="1582" r="109" fill="#0C2030" /><circle cx="1956" cy="1582" r="109" fill="#0C2030" /></g>
  <g filter="url(#soft70)"><path d="M960 1536 C1280 960, 1536 2112, 2112 1536" fill="none" stroke="url(#symbol70)" stroke-width="90" /><circle cx="1152" cy="1536" r="109" fill="url(#symbol70)" /><circle cx="1536" cy="1536" r="109" fill="url(#symbol70)" /><circle cx="1920" cy="1536" r="109" fill="url(#symbol70)" /></g>
  <rect x="138" y="138" width="2796" height="2796" rx="629" fill="#FFFFFF" filter="url(#grain70)" opacity="0.18" />
</svg>
