<svg xmlns="http://www.w3.org/2000/svg" width="3072" height="3072" viewBox="0 0 3072 3072">
  <title>QuartzOS App Icon 231 - vivid_calendar_231</title>
  <defs><linearGradient id="bg230" x1="0%" y1="0%" x2="100%" y2="100%"><stop offset="0%" stop-color="#53E3A6" /><stop offset="26%" stop-color="#3B82FF" /><stop offset="56%" stop-color="#FF6AB3" /><stop offset="78%" stop-color="#5E86C9" /><stop offset="100%" stop-color="#1C2435" /></linearGradient><radialGradient id="sun230" cx="27%" cy="33%" r="88%"><stop offset="0%" stop-color="#FFFFFF" stop-opacity="0.62" /><stop offset="30%" stop-color="#FF9F43" stop-opacity="0.35" /><stop offset="100%" stop-color="#FF9F43" stop-opacity="0" /></radialGradient><linearGradient id="glass230" x1="0%" y1="0%" x2="0%" y2="100%"><stop offset="0%" stop-color="#FFFFFF" stop-opacity="0.70" /><stop offset="46%" stop-color="#FFFFFF" stop-opacity="0.26" /><stop offset="100%" stop-color="#FFFFFF" stop-opacity="0.00" /></linearGradient><linearGradient id="ribbon230" x1="0%" y1="0%" x2="100%" y2="0%"><stop offset="0%" stop-color="#53E3A6" stop-opacity="0.18" /><stop offset="34%" stop-color="#3B82FF" stop-opacity="0.72" /><stop offset="66%" stop-color="#FF6AB3" stop-opacity="0.72" /><stop offset="100%" stop-color="#FF9F43" stop-opacity="0.18" /></linearGradient><radialGradient id="orb230" cx="34%" cy="27%" r="74%"><stop offset="0%" stop-color="#FFFFFF" stop-opacity="0.84" /><stop offset="30%" stop-color="#53E3A6" stop-opacity="0.52" /><stop offset="68%" stop-color="#3B82FF" stop-opacity="0.42" /><stop offset="100%" stop-color="#FF6AB3" stop-opacity="0.20" /></radialGradient><linearGradient id="extrude230" x1="0%" y1="0%" x2="0%" y2="100%"><stop offset="0%" stop-color="#15283C" stop-opacity="0.45" /><stop offset="100%" stop-color="#08131D" stop-opacity="0.06" /></linearGradient><linearGradient id="symbol230" x1="0%" y1="0%" x2="100%" y2="100%"><stop offset="0%" stop-color="#FFFFFF" /><stop offset="100%" stop-color="#FF9F43" /></linearGradient><filter id="shadow230" x="-40%" y="-40%" width="180%" height="180%"><feDropShadow dx="0" dy="49" stdDeviation="86" flood-color="#06111A" flood-opacity="0.54" /></filter><filter id="soft230" x="-40%" y="-40%" width="180%" height="180%"><feDropShadow dx="0" dy="0" stdDeviation="14" flood-color="#53E3A6" flood-opacity="0.45" /></filter><filter id="grain230"><feTurbulence type="fractalNoise" baseFrequency="0.907" numOctaves="2" seed="230" /><feColorMatrix type="saturate" values="0" /><feComponentTransfer><feFuncA type="table" tableValues="0 0.09" /></feComponentTransfer></filter></defs>
  <rect x="138" y="138" width="2796" height="2796" rx="629" fill="url(#bg230)" filter="url(#shadow230)" />
  <rect x="138" y="138" width="2796" height="2796" rx="629" fill="url(#sun230)" />
  <g><circle cx="476" cy="2349" r="134" fill="#FFFFFF" opacity="0.203" /><circle cx="2291" cy="530" r="106" fill="#FFFFFF" opacity="0.104" /><circle cx="1648" cy="1773" r="76" fill="#FFFFFF" opacity="0.128" /><circle cx="1747" cy="740" r="113" fill="#FFFFFF" opacity="0.236" /><circle cx="833" cy="1267" r="56" fill="#FFFFFF" opacity="0.127" /><circle cx="1202" cy="1956" r="105" fill="#FFFFFF" opacity="0.069" /><circle cx="1029" cy="547" r="103" fill="#FFFFFF" opacity="0.128" /><circle cx="2024" cy="2289" r="82" fill="#FFFFFF" opacity="0.118" /><circle cx="1153" cy="1353" r="86" fill="#FFFFFF" opacity="0.140" /><circle cx="603" cy="759" r="64" fill="#FFFFFF" opacity="0.179" /><circle cx="707" cy="323" r="123" fill="#FFFFFF" opacity="0.115" /><circle cx="1854" cy="2530" r="138" fill="#FFFFFF" opacity="0.180" /><circle cx="2269" cy="581" r="76" fill="#FFFFFF" opacity="0.062" /><circle cx="2515" cy="2114" r="75" fill="#FFFFFF" opacity="0.181" /><circle cx="2445" cy="1319" r="101" fill="#FFFFFF" opacity="0.211" /><circle cx="2604" cy="2084" r="134" fill="#FFFFFF" opacity="0.068" /><circle cx="1657" cy="1298" r="154" fill="#FFFFFF" opacity="0.153" /><circle cx="683" cy="2575" r="76" fill="#FFFFFF" opacity="0.213" /><circle cx="2391" cy="1908" r="67" fill="#FFFFFF" opacity="0.198" /><circle cx="938" cy="2316" r="110" fill="#FFFFFF" opacity="0.202" /><circle cx="593" cy="2586" r="53" fill="#FFFFFF" opacity="0.091" /><circle cx="1730" cy="1614" r="43" fill="#FFFFFF" opacity="0.141" /><circle cx="561" cy="572" r="59" fill="#FFFFFF" opacity="0.118" /><circle cx="634" cy="2486" r="117" fill="#FFFFFF" opacity="0.218" /><circle cx="1958" cy="2210" r="41" fill="#FFFFFF" opacity="0.113" /><circle cx="1958" cy="1161" r="57" fill="#FFFFFF" opacity="0.147" /><circle cx="987" cy="2635" r="70" fill="#FFFFFF" opacity="0.142" /><circle cx="1060" cy="1695" r="41" fill="#FFFFFF" opacity="0.099" /></g>
  <g><path d="M 214.3 595.1 L 2866.1 318.6 L 2866.1 781.6 L 214.3 1058.1 Z" fill="#FFFFFF" opacity="0.158" /><path d="M 337.7 832.1 L 2700.8 555.6 L 2700.8 1047.1 L 337.7 1323.5 Z" fill="#FFFFFF" opacity="0.103" /><path d="M 192.2 1150.6 L 2849.5 874.1 L 2849.5 1309.6 L 192.2 1586.1 Z" fill="#FFFFFF" opacity="0.081" /><path d="M 325.1 1442.1 L 2874.2 1165.6 L 2874.2 1653.2 L 325.1 1929.7 Z" fill="#FFFFFF" opacity="0.144" /><path d="M 358.9 1682.7 L 2914.9 1406.2 L 2914.9 1887.6 L 358.9 2164.1 Z" fill="#FFFFFF" opacity="0.145" /><path d="M 201.4 1965.6 L 2896.1 1689.1 L 2896.1 2142.2 L 201.4 2418.6 Z" fill="#FFFFFF" opacity="0.203" /><path d="M 368.1 2192.0 L 2840.4 1915.5 L 2840.4 2385.0 L 368.1 2661.5 Z" fill="#FFFFFF" opacity="0.239" /><path d="M 153.9 2416.7 L 2832.2 2140.2 L 2832.2 2587.6 L 153.9 2864.1 Z" fill="#FFFFFF" opacity="0.219" /></g>
  <g filter="url(#soft230)"><g transform="rotate(-4.28 1536.0 1536.0)"><path d="M-368.6 484.8 C -225.8 541.6, -25.8 423.0, 107.5 534.0 C 250.4 535.0, 450.4 458.5, 583.7 501.1 C 726.5 502.2, 926.5 469.6, 1059.8 458.2 C 1202.7 451.3, 1402.7 500.6, 1536.0 431.5 C 1678.8 419.1, 1878.8 532.0, 2012.2 437.1 C 2155.0 442.5, 2355.0 532.4, 2488.3 471.6 C 2631.2 470.4, 2831.2 499.2, 2964.5 514.1 C 3107.3 514.5, 3307.3 457.9, 3440.6 538.8" fill="none" stroke="url(#ribbon230)" stroke-width="58.4" stroke-linecap="round" stroke-opacity="0.120" /></g><g transform="rotate(-3.70 1536.0 1536.0)"><path d="M-368.6 703.0 C -241.7 751.4, -63.9 685.6, 54.6 764.4 C 181.6 782.0, 359.4 658.7, 477.9 753.6 C 604.8 767.4, 782.6 675.7, 901.1 712.1 C 1028.1 712.1, 1205.9 693.1, 1324.4 665.0 C 1451.3 674.1, 1629.1 735.6, 1747.6 641.1 C 1874.6 633.4, 2052.4 741.9, 2170.9 654.6 C 2297.9 648.7, 2475.6 727.5, 2594.1 697.6 C 2721.1 697.1, 2898.9 704.7, 3017.4 743.8 C 3144.4 747.5, 3322.1 681.9, 3440.6 765.3" fill="none" stroke="url(#ribbon230)" stroke-width="54.4" stroke-linecap="round" stroke-opacity="0.146" /></g><g transform="rotate(-3.12 1536.0 1536.0)"><path d="M-368.6 850.1 C -254.4 795.4, -94.4 910.4, 12.3 781.2 C 126.6 767.9, 286.6 927.5, 393.2 807.8 C 507.5 818.2, 667.5 885.6, 774.1 860.2 C 888.4 858.7, 1048.4 840.0, 1155.1 906.4 C 1269.4 885.0, 1429.3 813.3, 1536.0 918.5 C 1650.3 900.3, 1810.3 802.8, 1916.9 889.1 C 2031.2 896.4, 2191.2 834.9, 2297.9 836.1 C 2412.1 839.5, 2572.1 854.6, 2678.8 791.6 C 2793.1 776.0, 2953.1 902.5, 3059.7 782.6 C 3174.0 803.3, 3334.0 929.5, 3440.6 814.5" fill="none" stroke="url(#ribbon230)" stroke-width="50.4" stroke-linecap="round" stroke-opacity="0.172" /></g><g transform="rotate(-2.54 1536.0 1536.0)"><path d="M-368.6 1052.5 C -264.8 1147.6, -119.3 986.7, -22.3 1119.4 C 81.5 1124.8, 227.0 1014.4, 324.0 1072.5 C 427.8 1080.4, 573.3 1035.5, 670.3 1013.5 C 774.1 1021.4, 919.6 1069.7, 1016.6 978.1 C 1120.4 968.5, 1265.9 1114.8, 1362.9 987.9 C 1466.7 977.9, 1612.2 1116.5, 1709.1 1036.8 C 1813.0 1032.4, 1958.5 1062.3, 2055.4 1095.3 C 2159.3 1084.1, 2304.8 1028.2, 2401.7 1127.8 C 2505.6 1151.5, 2651.1 980.1, 2748.0 1114.6 C 2851.9 1124.7, 2997.4 1021.8, 3094.3 1063.8 C 3198.2 1061.1, 3343.7 1045.0, 3440.6 1006.1" fill="none" stroke="url(#ribbon230)" stroke-width="46.4" stroke-linecap="round" stroke-opacity="0.198" /></g><g transform="rotate(-1.96 1536.0 1536.0)"><path d="M-368.6 1297.8 C -273.4 1269.2, -140.1 1333.4, -51.2 1320.6 C 44.0 1325.9, 177.4 1272.5, 266.2 1371.3 C 361.5 1345.6, 494.8 1242.0, 583.7 1377.4 C 678.9 1349.9, 812.2 1225.3, 901.1 1335.2 C 996.4 1336.5, 1129.7 1286.1, 1218.6 1270.2 C 1313.8 1263.1, 1447.1 1308.4, 1536.0 1222.0 C 1631.2 1224.6, 1764.6 1344.7, 1853.4 1219.7 C 1948.7 1243.2, 2082.0 1363.6, 2170.9 1264.7 C 2266.1 1251.8, 2399.4 1326.4, 2488.3 1329.8 C 2583.6 1326.6, 2716.9 1268.4, 2805.8 1375.4 C 2901.0 1348.5, 3034.3 1269.6, 3123.2 1373.9 C 3218.4 1377.1, 3351.8 1231.7, 3440.6 1326.2" fill="none" stroke="url(#ribbon230)" stroke-width="42.4" stroke-linecap="round" stroke-opacity="0.224" /></g><g transform="rotate(-1.38 1536.0 1536.0)"><path d="M-368.6 1538.8 C -225.8 1472.1, -25.8 1569.9, 107.5 1531.5 C 250.4 1532.6, 450.4 1545.7, 583.7 1598.5 C 726.5 1610.2, 926.5 1482.6, 1059.8 1629.3 C 1202.7 1653.7, 1402.7 1464.4, 1536.0 1605.1 C 1678.8 1583.5, 1878.8 1499.5, 2012.2 1540.7 C 2155.0 1541.1, 2355.0 1536.5, 2488.3 1475.1 C 2631.2 1481.9, 2831.2 1586.4, 2964.5 1448.1 C 3107.3 1465.8, 3307.3 1569.6, 3440.6 1476.1" fill="none" stroke="url(#ribbon230)" stroke-width="38.4" stroke-linecap="round" stroke-opacity="0.250" /></g><g transform="rotate(-0.80 1536.0 1536.0)"><path d="M-368.6 1723.1 C -241.7 1751.8, -63.9 1699.1, 54.6 1676.4 C 181.6 1661.4, 359.4 1761.1, 477.9 1629.0 C 604.8 1625.1, 782.6 1821.3, 901.1 1638.6 C 1028.1 1619.0, 1205.9 1755.6, 1324.4 1699.5 C 1451.3 1696.8, 1629.1 1738.5, 1747.6 1774.7 C 1874.6 1755.5, 2052.4 1696.2, 2170.9 1818.5 C 2297.9 1815.2, 2475.6 1625.1, 2594.1 1804.5 C 2721.1 1826.5, 2898.9 1670.3, 3017.4 1741.1 C 3144.4 1736.4, 3322.1 1703.7, 3440.6 1666.7" fill="none" stroke="url(#ribbon230)" stroke-width="34.4" stroke-linecap="round" stroke-opacity="0.276" /></g><g transform="rotate(-0.22 1536.0 1536.0)"><path d="M-368.6 1915.9 C -254.4 1855.3, -94.4 1942.6, 12.3 1945.9 C 126.6 1941.7, 286.6 1881.3, 393.2 2008.8 C 507.5 2024.0, 667.5 1885.5, 774.1 2015.4 C 888.4 2029.0, 1048.4 1885.0, 1155.1 1961.6 C 1269.4 1950.0, 1429.3 1864.5, 1536.0 1880.1 C 1650.3 1872.0, 1810.3 1937.5, 1916.9 1820.4 C 2031.2 1828.5, 2191.2 1979.8, 2297.9 1818.5 C 2412.1 1842.2, 2572.1 1984.0, 2678.8 1875.8 C 2793.1 1860.4, 2953.1 1937.9, 3059.7 1957.4 C 3174.0 1953.4, 3334.0 1901.0, 3440.6 2013.8" fill="none" stroke="url(#ribbon230)" stroke-width="30.4" stroke-linecap="round" stroke-opacity="0.302" /></g><g transform="rotate(0.36 1536.0 1536.0)"><path d="M-368.6 2029.7 C -264.8 1984.2, -119.3 2063.5, -22.3 2079.7 C 81.5 2070.9, 227.0 1981.5, 324.0 2136.3 C 427.8 2109.4, 573.3 1980.4, 670.3 2128.2 C 774.1 2109.6, 919.6 1994.6, 1016.6 2060.4 C 1120.4 2049.7, 1265.9 2010.4, 1362.9 1974.0 C 1466.7 1987.0, 1612.2 2095.3, 1709.1 1921.3 C 1813.0 1941.0, 1958.5 2102.2, 2055.4 1934.4 C 2159.3 1966.6, 2304.8 2122.1, 2401.7 2005.3 C 2505.6 2012.7, 2651.1 2047.0, 2748.0 2091.0 C 2851.9 2070.0, 2997.4 1994.9, 3094.3 2139.5 C 3198.2 2149.1, 3343.7 1911.2, 3440.6 2121.4" fill="none" stroke="url(#ribbon230)" stroke-width="26.4" stroke-linecap="round" stroke-opacity="0.328" /></g><g transform="rotate(0.94 1536.0 1536.0)"><path d="M-368.6 2243.8 C -273.4 2123.4, -140.1 2379.5, -51.2 2140.5 C 44.0 2101.6, 177.4 2283.4, 266.2 2214.0 C 361.5 2207.5, 494.8 2260.9, 583.7 2305.6 C 678.9 2308.8, 812.2 2191.5, 901.1 2359.7 C 996.4 2352.7, 1129.7 2169.6, 1218.6 2343.4 C 1313.8 2356.2, 1447.1 2184.0, 1536.0 2266.7 C 1631.2 2266.4, 1764.6 2216.7, 1853.4 2176.1 C 1948.7 2154.7, 2082.0 2284.3, 2170.9 2126.5 C 2266.1 2100.0, 2399.4 2306.9, 2488.3 2148.0 C 2583.6 2128.3, 2716.9 2283.8, 2805.8 2227.7 C 2901.0 2222.2, 3034.3 2262.9, 3123.2 2317.0 C 3218.4 2296.8, 3351.8 2198.5, 3440.6 2362.0" fill="none" stroke="url(#ribbon230)" stroke-width="22.4" stroke-linecap="round" stroke-opacity="0.354" /></g><g transform="rotate(1.52 1536.0 1536.0)"><path d="M-368.6 2433.6 C -225.8 2400.8, -25.8 2459.5, 107.5 2490.5 C 250.4 2508.7, 450.4 2401.7, 583.7 2553.8 C 726.5 2533.2, 926.5 2385.3, 1059.8 2544.2 C 1202.7 2547.2, 1402.7 2364.1, 1536.0 2467.5 C 1678.8 2462.5, 1878.8 2411.1, 2012.2 2370.2 C 2155.0 2354.0, 2355.0 2462.3, 2488.3 2311.3 C 2631.2 2352.4, 2831.2 2526.9, 2964.5 2326.6 C 3107.3 2368.3, 3307.3 2527.8, 3440.6 2406.8" fill="none" stroke="url(#ribbon230)" stroke-width="18.4" stroke-linecap="round" stroke-opacity="0.380" /></g><g transform="rotate(2.10 1536.0 1536.0)"><path d="M-368.6 2646.0 C -241.7 2522.6, -63.9 2725.5, 54.6 2575.1 C 181.6 2591.5, 359.4 2695.8, 477.9 2677.4 C 604.8 2670.1, 782.6 2630.2, 901.1 2760.6 C 1028.1 2802.4, 1205.9 2601.3, 1324.4 2774.3 C 1451.3 2770.3, 1629.1 2537.9, 1747.6 2710.1 C 1874.6 2715.0, 2052.4 2604.5, 2170.9 2607.1 C 2297.9 2614.2, 2475.6 2675.6, 2594.1 2527.6 C 2721.1 2516.0, 2898.9 2771.3, 3017.4 2520.0 C 3144.4 2473.7, 3322.1 2684.1, 3440.6 2588.7" fill="none" stroke="url(#ribbon230)" stroke-width="14.4" stroke-linecap="round" stroke-opacity="0.406" /></g></g>
  <g><ellipse cx="1536.0" cy="1551.9" rx="728.6" ry="605.7" fill="url(#extrude230)" opacity="0.220" /><ellipse cx="1536.0" cy="1567.7" rx="736.0" ry="610.9" fill="url(#extrude230)" opacity="0.205" /><ellipse cx="1536.0" cy="1583.6" rx="743.4" ry="616.1" fill="url(#extrude230)" opacity="0.190" /><ellipse cx="1536.0" cy="1599.5" rx="750.9" ry="621.3" fill="url(#extrude230)" opacity="0.175" /><ellipse cx="1536.0" cy="1615.4" rx="758.3" ry="626.5" fill="url(#extrude230)" opacity="0.160" /><ellipse cx="1536.0" cy="1631.2" rx="765.7" ry="631.7" fill="url(#extrude230)" opacity="0.145" /><ellipse cx="1536.0" cy="1647.1" rx="773.2" ry="636.9" fill="url(#extrude230)" opacity="0.130" /><ellipse cx="1536.0" cy="1663.0" rx="780.6" ry="642.1" fill="url(#extrude230)" opacity="0.115" /><ellipse cx="1536.0" cy="1678.8" rx="788.0" ry="647.4" fill="url(#extrude230)" opacity="0.100" /><ellipse cx="1536.0" cy="1694.7" rx="795.5" ry="652.6" fill="url(#extrude230)" opacity="0.085" /><ellipse cx="1536.0" cy="1710.6" rx="802.9" ry="657.8" fill="url(#extrude230)" opacity="0.070" /><ellipse cx="1536.0" cy="1726.5" rx="810.3" ry="663.0" fill="url(#extrude230)" opacity="0.055" /></g>
  <ellipse cx="1536.0" cy="1726.5" rx="773.2" ry="214.9" fill="#0B1D2D" opacity="0.24" />
  <ellipse cx="1536.0" cy="1536.0" rx="743.4" ry="651.3" fill="url(#orb230)" stroke="#FFFFFF" stroke-opacity="0.42" stroke-width="7" />
  <ellipse cx="1431.9" cy="1392.7" rx="505.5" ry="299.6" fill="#FFFFFF" opacity="0.25" />
  <path d="M 199.4 399.4 C 1013.8 -30.7, 2058.2 768.0, 2872.6 215.0 L 2872.6 983.0 C 2089.0 1228.8, 1013.8 307.2, 199.4 1167.4 Z" fill="url(#glass230)" />
  <rect x="270" y="270" width="2532" height="2532" rx="430" fill="none" stroke="#FFFFFF" stroke-opacity="0.30" stroke-width="5" />
  <rect x="288.4" y="288.4" width="2495.1" height="2495.1" rx="399" fill="none" stroke="#53E3A6" stroke-opacity="0.35" stroke-width="3" />
  <g filter="url(#soft230)"><rect x="407" y="341" width="58" height="2" fill="#FFFFFF" opacity="0.370" /><rect x="435" y="313" width="2" height="58" fill="#FFFFFF" opacity="0.370" /><rect x="2479" y="1125" width="58" height="2" fill="#FFFFFF" opacity="0.655" /><rect x="2507" y="1097" width="2" height="58" fill="#FFFFFF" opacity="0.655" /><rect x="1014" y="460" width="28" height="2" fill="#FFFFFF" opacity="0.687" /><rect x="1027" y="447" width="2" height="28" fill="#FFFFFF" opacity="0.687" /><rect x="580" y="2257" width="52" height="2" fill="#FFFFFF" opacity="0.302" /><rect x="605" y="2232" width="2" height="52" fill="#FFFFFF" opacity="0.302" /><rect x="728" y="2628" width="58" height="2" fill="#FFFFFF" opacity="0.435" /><rect x="756" y="2600" width="2" height="58" fill="#FFFFFF" opacity="0.435" /><rect x="1428" y="955" width="42" height="2" fill="#FFFFFF" opacity="0.749" /><rect x="1448" y="935" width="2" height="42" fill="#FFFFFF" opacity="0.749" /><rect x="1254" y="1837" width="56" height="2" fill="#FFFFFF" opacity="0.330" /><rect x="1281" y="1810" width="2" height="56" fill="#FFFFFF" opacity="0.330" /><rect x="1962" y="2582" width="72" height="2" fill="#FFFFFF" opacity="0.597" /><rect x="1997" y="2547" width="2" height="72" fill="#FFFFFF" opacity="0.597" /><rect x="960" y="1893" width="28" height="2" fill="#FFFFFF" opacity="0.420" /><rect x="973" y="1880" width="2" height="28" fill="#FFFFFF" opacity="0.420" /><rect x="1765" y="473" width="36" height="2" fill="#FFFFFF" opacity="0.501" /><rect x="1782" y="456" width="2" height="36" fill="#FFFFFF" opacity="0.501" /><rect x="498" y="2747" width="60" height="2" fill="#FFFFFF" opacity="0.657" /><rect x="527" y="2718" width="2" height="60" fill="#FFFFFF" opacity="0.657" /><rect x="1951" y="1767" width="62" height="2" fill="#FFFFFF" opacity="0.744" /><rect x="1981" y="1737" width="2" height="62" fill="#FFFFFF" opacity="0.744" /><rect x="1769" y="579" width="82" height="2" fill="#FFFFFF" opacity="0.690" /><rect x="1809" y="539" width="2" height="82" fill="#FFFFFF" opacity="0.690" /><rect x="2761" y="483" width="24" height="2" fill="#FFFFFF" opacity="0.757" /><rect x="2772" y="472" width="2" height="24" fill="#FFFFFF" opacity="0.757" /><rect x="2405" y="634" width="84" height="2" fill="#FFFFFF" opacity="0.505" /><rect x="2446" y="593" width="2" height="84" fill="#FFFFFF" opacity="0.505" /><rect x="1447" y="1147" width="30" height="2" fill="#FFFFFF" opacity="0.616" /><rect x="1461" y="1133" width="2" height="30" fill="#FFFFFF" opacity="0.616" /><rect x="1258" y="2507" width="52" height="2" fill="#FFFFFF" opacity="0.834" /><rect x="1283" y="2482" width="2" height="52" fill="#FFFFFF" opacity="0.834" /><rect x="1471" y="2262" width="40" height="2" fill="#FFFFFF" opacity="0.632" /><rect x="1490" y="2243" width="2" height="40" fill="#FFFFFF" opacity="0.632" /><rect x="2069" y="698" width="82" height="2" fill="#FFFFFF" opacity="0.564" /><rect x="2109" y="658" width="2" height="82" fill="#FFFFFF" opacity="0.564" /><rect x="2027" y="2613" width="72" height="2" fill="#FFFFFF" opacity="0.711" /><rect x="2062" y="2578" width="2" height="72" fill="#FFFFFF" opacity="0.711" /><rect x="509" y="441" width="54" height="2" fill="#FFFFFF" opacity="0.519" /><rect x="535" y="415" width="2" height="54" fill="#FFFFFF" opacity="0.519" /><rect x="1138" y="2684" width="48" height="2" fill="#FFFFFF" opacity="0.570" /><rect x="1161" y="2661" width="2" height="48" fill="#FFFFFF" opacity="0.570" /><rect x="1870" y="940" width="30" height="2" fill="#FFFFFF" opacity="0.386" /><rect x="1884" y="926" width="2" height="30" fill="#FFFFFF" opacity="0.386" /><rect x="1855" y="1207" width="44" height="2" fill="#FFFFFF" opacity="0.809" /><rect x="1876" y="1186" width="2" height="44" fill="#FFFFFF" opacity="0.809" /><rect x="2082" y="1435" width="26" height="2" fill="#FFFFFF" opacity="0.359" /><rect x="2094" y="1423" width="2" height="26" fill="#FFFFFF" opacity="0.359" /><rect x="1851" y="1931" width="46" height="2" fill="#FFFFFF" opacity="0.450" /><rect x="1873" y="1909" width="2" height="46" fill="#FFFFFF" opacity="0.450" /></g>
  <g opacity="0.52"><path d="M996 1582 L1316 2131 L2148 1121" fill="none" stroke="#0C2030" stroke-width="90" stroke-linecap="round" stroke-linejoin="round" /><circle cx="996" cy="1582" r="47" fill="#0C2030" /><circle cx="1316" cy="2131" r="47" fill="#0C2030" /><circle cx="2148" cy="1121" r="47" fill="#0C2030" /></g>
  <g filter="url(#soft230)"><path d="M960 1536 L1280 2085 L2112 1075" fill="none" stroke="url(#symbol230)" stroke-width="90" stroke-linecap="round" stroke-linejoin="round" /><circle cx="960" cy="1536" r="47" fill="url(#symbol230)" /><circle cx="1280" cy="2085" r="47" fill="url(#symbol230)" /><circle cx="2112" cy="1075" r="47" fill="url(#symbol230)" /></g>
  <rect x="138" y="138" width="2796" height="2796" rx="629" fill="#FFFFFF" filter="url(#grain230)" opacity="0.18" />
</svg>
