<svg xmlns="http://www.w3.org/2000/svg" width="3072" height="3072" viewBox="0 0 3072 3072">
  <title>QuartzOS App Icon 131 - vivid_camera_131</title>
  <defs><linearGradient id="bg130" x1="0%" y1="0%" x2="100%" y2="100%"><stop offset="0%" stop-color="#FF9F43" /><stop offset="26%" stop-color="#53E3A6" /><stop offset="56%" stop-color="#3B82FF" /><stop offset="78%" stop-color="#58A3D8" /><stop offset="100%" stop-color="#1D2F45" /></linearGradient><radialGradient id="sun130" cx="27%" cy="24%" r="88%"><stop offset="0%" stop-color="#FFFFFF" stop-opacity="0.62" /><stop offset="30%" stop-color="#8A5CFF" stop-opacity="0.35" /><stop offset="100%" stop-color="#8A5CFF" stop-opacity="0" /></radialGradient><linearGradient id="glass130" x1="0%" y1="0%" x2="0%" y2="100%"><stop offset="0%" stop-color="#FFFFFF" stop-opacity="0.70" /><stop offset="46%" stop-color="#FFFFFF" stop-opacity="0.26" /><stop offset="100%" stop-color="#FFFFFF" stop-opacity="0.00" /></linearGradient><linearGradient id="ribbon130" x1="0%" y1="0%" x2="100%" y2="0%"><stop offset="0%" stop-color="#FF9F43" stop-opacity="0.18" /><stop offset="34%" stop-color="#53E3A6" stop-opacity="0.72" /><stop offset="66%" stop-color="#3B82FF" stop-opacity="0.72" /><stop offset="100%" stop-color="#8A5CFF" stop-opacity="0.18" /></linearGradient><radialGradient id="orb130" cx="34%" cy="27%" r="74%"><stop offset="0%" stop-color="#FFFFFF" stop-opacity="0.84" /><stop offset="30%" stop-color="#FF9F43" stop-opacity="0.52" /><stop offset="68%" stop-color="#53E3A6" stop-opacity="0.42" /><stop offset="100%" stop-color="#3B82FF" stop-opacity="0.20" /></radialGradient><linearGradient id="extrude130" x1="0%" y1="0%" x2="0%" y2="100%"><stop offset="0%" stop-color="#15283C" stop-opacity="0.45" /><stop offset="100%" stop-color="#08131D" stop-opacity="0.06" /></linearGradient><linearGradient id="symbol130" x1="0%" y1="0%" x2="100%" y2="100%"><stop offset="0%" stop-color="#FFFFFF" /><stop offset="100%" stop-color="#8A5CFF" /></linearGradient><filter id="shadow130" x="-40%" y="-40%" width="180%" height="180%"><feDropShadow dx="0" dy="49" stdDeviation="86" flood-color="#06111A" flood-opacity="0.54" /></filter><filter id="soft130" x="-40%" y="-40%" width="180%" height="180%"><feDropShadow dx="0" dy="0" stdDeviation="14" flood-color="#FF9F43" flood-opacity="0.45" /></filter><filter id="grain130"><feTurbulence type="fractalNoise" baseFrequency="1.069" numOctaves="2" seed="130" /><feColorMatrix type="saturate" values="0" /><feComponentTransfer><feFuncA type="table" tableValues="0 0.09" /></feComponentTransfer></filter></defs>
  <rect x="138" y="138" width="2796" height="2796" rx="629" fill="url(#bg130)" filter="url(#shadow130)" />
  <rect x="138" y="138" width="2796" height="2796" rx="629" fill="url(#sun130)" />
  <g><circle cx="2034" cy="2366" r="144" fill="#FFFFFF" opacity="0.110" /><circle cx="2334" cy="2174" r="97" fill="#FFFFFF" opacity="0.223" /><circle cx="2458" cy="1373" r="44" fill="#FFFFFF" opacity="0.089" /><circle cx="2262" cy="1906" r="46" fill="#FFFFFF" opacity="0.101" /><circle cx="1010" cy="1557" r="147" fill="#FFFFFF" opacity="0.103" /><circle cx="2179" cy="1414" r="117" fill="#FFFFFF" opacity="0.146" /><circle cx="1929" cy="2572" r="76" fill="#FFFFFF" opacity="0.101" /><circle cx="659" cy="661" r="103" fill="#FFFFFF" opacity="0.063" /><circle cx="642" cy="1745" r="136" fill="#FFFFFF" opacity="0.078" /><circle cx="2296" cy="2269" r="61" fill="#FFFFFF" opacity="0.153" /><circle cx="622" cy="942" r="127" fill="#FFFFFF" opacity="0.063" /><circle cx="2531" cy="797" r="46" fill="#FFFFFF" opacity="0.194" /><circle cx="2377" cy="1022" r="59" fill="#FFFFFF" opacity="0.145" /><circle cx="644" cy="326" r="158" fill="#FFFFFF" opacity="0.181" /><circle cx="1919" cy="619" r="87" fill="#FFFFFF" opacity="0.213" /><circle cx="1221" cy="441" r="48" fill="#FFFFFF" opacity="0.219" /><circle cx="1061" cy="1669" r="136" fill="#FFFFFF" opacity="0.100" /><circle cx="1751" cy="936" r="82" fill="#FFFFFF" opacity="0.115" /><circle cx="1506" cy="2510" r="93" fill="#FFFFFF" opacity="0.147" /><circle cx="1387" cy="1274" r="129" fill="#FFFFFF" opacity="0.107" /><circle cx="1428" cy="2511" r="67" fill="#FFFFFF" opacity="0.203" /><circle cx="515" cy="1994" r="125" fill="#FFFFFF" opacity="0.204" /><circle cx="1529" cy="1453" r="104" fill="#FFFFFF" opacity="0.126" /><circle cx="465" cy="885" r="103" fill="#FFFFFF" opacity="0.130" /><circle cx="1905" cy="870" r="88" fill="#FFFFFF" opacity="0.151" /><circle cx="1032" cy="675" r="38" fill="#FFFFFF" opacity="0.215" /><circle cx="1399" cy="2534" r="92" fill="#FFFFFF" opacity="0.062" /><circle cx="487" cy="1913" r="137" fill="#FFFFFF" opacity="0.195" /></g>
  <g><path d="M 290.1 623.2 L 2705.2 346.7 L 2705.2 833.5 L 290.1 1110.0 Z" fill="#FFFFFF" opacity="0.082" /><path d="M 245.2 916.6 L 2888.7 640.1 L 2888.7 1134.5 L 245.2 1411.0 Z" fill="#FFFFFF" opacity="0.158" /><path d="M 209.9 1149.3 L 2769.9 872.8 L 2769.9 1347.3 L 209.9 1623.8 Z" fill="#FFFFFF" opacity="0.146" /><path d="M 239.0 1366.2 L 2684.9 1089.7 L 2684.9 1554.0 L 239.0 1830.5 Z" fill="#FFFFFF" opacity="0.222" /><path d="M 328.4 1618.3 L 2863.4 1341.9 L 2863.4 1766.4 L 328.4 2042.9 Z" fill="#FFFFFF" opacity="0.183" /><path d="M 346.1 1898.7 L 2830.7 1622.2 L 2830.7 2119.5 L 346.1 2395.9 Z" fill="#FFFFFF" opacity="0.098" /><path d="M 150.5 2147.2 L 2823.8 1870.8 L 2823.8 2323.2 L 150.5 2599.7 Z" fill="#FFFFFF" opacity="0.101" /><path d="M 239.8 2433.6 L 2759.8 2157.1 L 2759.8 2593.2 L 239.8 2869.7 Z" fill="#FFFFFF" opacity="0.103" /></g>
  <g filter="url(#soft130)"><g transform="rotate(-21.77 1536.0 1536.0)"><path d="M-368.6 474.0 C -225.8 481.5, -25.8 471.4, 107.5 439.6 C 250.4 448.5, 450.4 496.2, 583.7 419.0 C 726.5 412.0, 926.5 509.5, 1059.8 431.8 C 1202.7 438.3, 1402.7 510.8, 1536.0 470.3 C 1678.8 470.6, 1878.8 475.5, 2012.2 511.0 C 2155.0 509.9, 2355.0 434.5, 2488.3 529.3 C 2631.2 516.1, 2831.2 455.3, 2964.5 514.1 C 3107.3 509.8, 3307.3 443.0, 3440.6 474.6" fill="none" stroke="url(#ribbon130)" stroke-width="58.4" stroke-linecap="round" stroke-opacity="0.120" /></g><g transform="rotate(-21.19 1536.0 1536.0)"><path d="M-368.6 765.5 C -241.7 768.5, -63.9 762.9, 54.6 812.2 C 181.6 818.6, 359.4 730.3, 477.9 827.7 C 604.8 831.7, 782.6 740.7, 901.1 805.5 C 1028.1 796.8, 1205.9 732.2, 1324.4 759.0 C 1451.3 758.2, 1629.1 767.8, 1747.6 716.5 C 1874.6 723.5, 2052.4 792.4, 2170.9 703.7 C 2297.9 691.7, 2475.6 826.5, 2594.1 728.4 C 2721.1 714.5, 2898.9 790.9, 3017.4 775.7 C 3144.4 772.0, 3322.1 760.0, 3440.6 816.7" fill="none" stroke="url(#ribbon130)" stroke-width="54.4" stroke-linecap="round" stroke-opacity="0.146" /></g><g transform="rotate(-20.61 1536.0 1536.0)"><path d="M-368.6 870.0 C -254.4 913.3, -94.4 843.9, 12.3 864.9 C 126.6 866.5, 286.6 874.2, 393.2 816.8 C 507.5 796.2, 667.5 897.6, 774.1 801.0 C 888.4 785.7, 1048.4 943.1, 1155.1 827.0 C 1269.4 840.8, 1429.3 901.9, 1536.0 879.2 C 1650.3 875.9, 1810.3 864.4, 1916.9 925.8 C 2031.2 925.0, 2191.2 822.5, 2297.9 938.5 C 2412.1 921.0, 2572.1 838.3, 2678.8 909.7 C 2793.1 896.3, 2953.1 850.7, 3059.7 856.9 C 3174.0 859.8, 3334.0 875.3, 3440.6 811.9" fill="none" stroke="url(#ribbon130)" stroke-width="50.4" stroke-linecap="round" stroke-opacity="0.172" /></g><g transform="rotate(-20.03 1536.0 1536.0)"><path d="M-368.6 1155.0 C -264.8 1206.6, -119.3 1135.2, -22.3 1160.0 C 81.5 1159.0, 227.0 1153.2, 324.0 1103.7 C 427.8 1097.4, 573.3 1178.2, 670.3 1078.5 C 774.1 1081.9, 919.6 1179.7, 1016.6 1099.8 C 1120.4 1084.8, 1265.9 1213.9, 1362.9 1154.5 C 1466.7 1154.4, 1612.2 1155.5, 1709.1 1209.5 C 1813.0 1196.2, 1958.5 1103.9, 2055.4 1231.5 C 2159.3 1210.1, 2304.8 1099.9, 2401.7 1207.0 C 2505.6 1215.0, 2651.1 1115.4, 2748.0 1151.0 C 2851.9 1150.1, 2997.4 1157.8, 3094.3 1097.4 C 3198.2 1082.9, 3343.7 1212.7, 3440.6 1078.7" fill="none" stroke="url(#ribbon130)" stroke-width="46.4" stroke-linecap="round" stroke-opacity="0.198" /></g><g transform="rotate(-19.45 1536.0 1536.0)"><path d="M-368.6 1252.2 C -273.4 1350.9, -140.1 1213.3, -51.2 1327.3 C 44.0 1353.4, 177.4 1163.3, 266.2 1278.2 C 361.5 1274.7, 494.8 1235.4, 583.7 1213.3 C 678.9 1218.1, 812.2 1273.4, 901.1 1172.1 C 996.4 1168.7, 1129.7 1295.8, 1218.6 1179.4 C 1313.8 1153.5, 1447.1 1330.4, 1536.0 1230.9 C 1631.2 1232.2, 1764.6 1269.9, 1853.4 1295.3 C 1948.7 1284.6, 2082.0 1210.0, 2170.9 1333.6 C 2266.1 1338.8, 2399.4 1226.6, 2488.3 1322.5 C 2583.6 1306.9, 2716.9 1211.7, 2805.8 1268.7 C 2901.0 1274.5, 3034.3 1236.6, 3123.2 1205.0 C 3218.4 1222.9, 3351.8 1297.0, 3440.6 1169.9" fill="none" stroke="url(#ribbon130)" stroke-width="42.4" stroke-linecap="round" stroke-opacity="0.224" /></g><g transform="rotate(-18.87 1536.0 1536.0)"><path d="M-368.6 1449.0 C -225.8 1378.1, -25.8 1485.8, 107.5 1406.1 C 250.4 1405.1, 450.4 1485.1, 583.7 1476.4 C 726.5 1475.1, 926.5 1420.0, 1059.8 1530.0 C 1202.7 1543.0, 1402.7 1353.3, 1536.0 1534.6 C 1678.8 1508.2, 1878.8 1393.3, 2012.2 1487.2 C 2155.0 1490.9, 2355.0 1406.6, 2488.3 1416.7 C 2631.2 1421.0, 2831.2 1474.7, 2964.5 1365.7 C 3107.3 1363.3, 3307.3 1479.7, 3440.6 1365.3" fill="none" stroke="url(#ribbon130)" stroke-width="38.4" stroke-linecap="round" stroke-opacity="0.250" /></g><g transform="rotate(-18.29 1536.0 1536.0)"><path d="M-368.6 1693.6 C -241.7 1690.3, -63.9 1695.8, 54.6 1621.5 C 181.6 1604.2, 359.4 1759.8, 477.9 1596.1 C 604.8 1621.1, 782.6 1800.1, 901.1 1629.8 C 1028.1 1638.4, 1205.9 1715.8, 1324.4 1702.3 C 1451.3 1703.3, 1629.1 1684.5, 1747.6 1769.4 C 1874.6 1791.8, 2052.4 1613.5, 2170.9 1790.6 C 2297.9 1809.5, 2475.6 1604.2, 2594.1 1752.9 C 2721.1 1763.8, 2898.9 1673.6, 3017.4 1679.3 C 3144.4 1683.8, 3322.1 1705.7, 3440.6 1614.3" fill="none" stroke="url(#ribbon130)" stroke-width="34.4" stroke-linecap="round" stroke-opacity="0.276" /></g><g transform="rotate(-17.71 1536.0 1536.0)"><path d="M-368.6 1817.3 C -254.4 1907.0, -94.4 1754.7, 12.3 1922.0 C 126.6 1924.6, 286.6 1713.5, 393.2 1889.0 C 507.5 1871.9, 667.5 1786.1, 774.1 1812.4 C 888.4 1812.5, 1048.4 1821.4, 1155.1 1738.8 C 1269.4 1753.4, 1429.3 1900.8, 1536.0 1712.8 C 1650.3 1722.6, 1810.3 1872.2, 1916.9 1750.2 C 2031.2 1761.3, 2191.2 1846.4, 2297.9 1828.2 C 2412.1 1828.3, 2572.1 1812.0, 2678.8 1899.7 C 2793.1 1882.3, 2953.1 1777.2, 3059.7 1921.1 C 3174.0 1889.4, 3334.0 1766.2, 3440.6 1879.6" fill="none" stroke="url(#ribbon130)" stroke-width="30.4" stroke-linecap="round" stroke-opacity="0.302" /></g><g transform="rotate(-17.13 1536.0 1536.0)"><path d="M-368.6 2099.7 C -264.8 2174.1, -119.3 2040.5, -22.3 2142.2 C 81.5 2135.2, 227.0 2069.0, 324.0 2055.1 C 427.8 2041.5, 573.3 2138.5, 670.3 1995.1 C 774.1 2034.0, 919.6 2142.2, 1016.6 1998.6 C 1120.4 2024.3, 1265.9 2196.6, 1362.9 2063.4 C 1466.7 2055.7, 1612.2 2142.9, 1709.1 2150.3 C 1813.0 2132.3, 1958.5 2046.0, 2055.4 2206.5 C 2159.3 2186.9, 2304.8 2005.8, 2401.7 2197.9 C 2505.6 2209.5, 2651.1 2028.9, 2748.0 2129.8 C 2851.9 2118.5, 2997.4 2084.2, 3094.3 2043.4 C 3198.2 2065.2, 3343.7 2128.8, 3440.6 1991.2" fill="none" stroke="url(#ribbon130)" stroke-width="26.4" stroke-linecap="round" stroke-opacity="0.328" /></g><g transform="rotate(-16.55 1536.0 1536.0)"><path d="M-368.6 2310.0 C -273.4 2350.6, -140.1 2256.4, -51.2 2269.0 C 44.0 2279.3, 177.4 2342.0, 266.2 2201.4 C 361.5 2185.9, 494.8 2387.8, 583.7 2199.7 C 678.9 2182.4, 812.2 2384.7, 901.1 2264.9 C 996.4 2264.1, 1129.7 2332.5, 1218.6 2357.5 C 1313.8 2339.2, 1447.1 2267.0, 1536.0 2421.3 C 1631.2 2454.0, 1764.6 2252.1, 1853.4 2417.6 C 1948.7 2407.9, 2082.0 2183.9, 2170.9 2348.6 C 2266.1 2363.3, 2399.4 2281.1, 2488.3 2256.2 C 2583.6 2264.2, 2716.9 2364.6, 2805.8 2196.5 C 2901.0 2195.9, 3034.3 2420.9, 3123.2 2205.6 C 3218.4 2238.8, 3351.8 2426.5, 3440.6 2278.1" fill="none" stroke="url(#ribbon130)" stroke-width="22.4" stroke-linecap="round" stroke-opacity="0.354" /></g><g transform="rotate(-15.97 1536.0 1536.0)"><path d="M-368.6 2495.6 C -225.8 2395.7, -25.8 2543.3, 107.5 2472.8 C 250.4 2470.9, 450.4 2512.9, 583.7 2568.5 C 726.5 2568.8, 926.5 2430.6, 1059.8 2620.1 C 1202.7 2632.4, 1402.7 2434.9, 1536.0 2596.2 C 1678.8 2578.5, 1878.8 2452.1, 2012.2 2511.2 C 2155.0 2505.7, 2355.0 2478.7, 2488.3 2416.8 C 2631.2 2442.9, 2831.2 2550.5, 2964.5 2370.2 C 3107.3 2333.1, 3307.3 2573.1, 3440.6 2399.7" fill="none" stroke="url(#ribbon130)" stroke-width="18.4" stroke-linecap="round" stroke-opacity="0.380" /></g><g transform="rotate(-15.39 1536.0 1536.0)"><path d="M-368.6 2644.3 C -241.7 2707.2, -63.9 2614.3, 54.6 2775.5 C 181.6 2808.1, 359.4 2544.8, 477.9 2751.7 C 604.8 2720.1, 782.6 2572.1, 901.1 2662.8 C 1028.1 2667.6, 1205.9 2631.3, 1324.4 2562.7 C 1451.3 2552.1, 1629.1 2741.8, 1747.6 2512.1 C 1874.6 2559.2, 2052.4 2741.1, 2170.9 2541.8 C 2297.9 2566.0, 2475.6 2680.0, 2594.1 2633.6 C 2721.1 2634.1, 2898.9 2655.5, 3017.4 2732.0 C 3144.4 2747.5, 3322.1 2541.8, 3440.6 2777.2" fill="none" stroke="url(#ribbon130)" stroke-width="14.4" stroke-linecap="round" stroke-opacity="0.406" /></g></g>
  <g><ellipse cx="1536.0" cy="1551.9" rx="728.6" ry="605.7" fill="url(#extrude130)" opacity="0.220" /><ellipse cx="1536.0" cy="1567.7" rx="736.0" ry="610.9" fill="url(#extrude130)" opacity="0.205" /><ellipse cx="1536.0" cy="1583.6" rx="743.4" ry="616.1" fill="url(#extrude130)" opacity="0.190" /><ellipse cx="1536.0" cy="1599.5" rx="750.9" ry="621.3" fill="url(#extrude130)" opacity="0.175" /><ellipse cx="1536.0" cy="1615.4" rx="758.3" ry="626.5" fill="url(#extrude130)" opacity="0.160" /><ellipse cx="1536.0" cy="1631.2" rx="765.7" ry="631.7" fill="url(#extrude130)" opacity="0.145" /><ellipse cx="1536.0" cy="1647.1" rx="773.2" ry="636.9" fill="url(#extrude130)" opacity="0.130" /><ellipse cx="1536.0" cy="1663.0" rx="780.6" ry="642.1" fill="url(#extrude130)" opacity="0.115" /><ellipse cx="1536.0" cy="1678.8" rx="788.0" ry="647.4" fill="url(#extrude130)" opacity="0.100" /><ellipse cx="1536.0" cy="1694.7" rx="795.5" ry="652.6" fill="url(#extrude130)" opacity="0.085" /><ellipse cx="1536.0" cy="1710.6" rx="802.9" ry="657.8" fill="url(#extrude130)" opacity="0.070" /><ellipse cx="1536.0" cy="1726.5" rx="810.3" ry="663.0" fill="url(#extrude130)" opacity="0.055" /></g>
  <ellipse cx="1536.0" cy="1726.5" rx="773.2" ry="214.9" fill="#0B1D2D" opacity="0.24" />
  <ellipse cx="1536.0" cy="1536.0" rx="743.4" ry="651.3" fill="url(#orb130)" stroke="#FFFFFF" stroke-opacity="0.42" stroke-width="7" />
  <ellipse cx="1431.9" cy="1392.7" rx="505.5" ry="299.6" fill="#FFFFFF" opacity="0.25" />
  <path d="M 199.4 399.4 C 1013.8 -30.7, 2058.2 768.0, 2872.6 215.0 L 2872.6 983.0 C 2089.0 1228.8, 1013.8 307.2, 199.4 1167.4 Z" fill="url(#glass130)" />
  <rect x="270" y="270" width="2532" height="2532" rx="430" fill="none" stroke="#FFFFFF" stroke-opacity="0.30" stroke-width="5" />
  <rect x="288.4" y="288.4" width="2495.1" height="2495.1" rx="399" fill="none" stroke="#FF9F43" stroke-opacity="0.35" stroke-width="3" />
  <g filter="url(#soft130)"><rect x="2486" y="1996" width="24" height="2" fill="#FFFFFF" opacity="0.384" /><rect x="2497" y="1985" width="2" height="24" fill="#FFFFFF" opacity="0.384" /><rect x="1827" y="546" width="40" height="2" fill="#FFFFFF" opacity="0.790" /><rect x="1846" y="527" width="2" height="40" fill="#FFFFFF" opacity="0.790" /><rect x="1676" y="1940" width="40" height="2" fill="#FFFFFF" opacity="0.354" /><rect x="1695" y="1921" width="2" height="40" fill="#FFFFFF" opacity="0.354" /><rect x="1367" y="2274" width="36" height="2" fill="#FFFFFF" opacity="0.489" /><rect x="1384" y="2257" width="2" height="36" fill="#FFFFFF" opacity="0.489" /><rect x="1625" y="1769" width="28" height="2" fill="#FFFFFF" opacity="0.627" /><rect x="1638" y="1756" width="2" height="28" fill="#FFFFFF" opacity="0.627" /><rect x="1668" y="655" width="38" height="2" fill="#FFFFFF" opacity="0.562" /><rect x="1686" y="637" width="2" height="38" fill="#FFFFFF" opacity="0.562" /><rect x="1693" y="2562" width="40" height="2" fill="#FFFFFF" opacity="0.335" /><rect x="1712" y="2543" width="2" height="40" fill="#FFFFFF" opacity="0.335" /><rect x="1035" y="1864" width="48" height="2" fill="#FFFFFF" opacity="0.543" /><rect x="1058" y="1841" width="2" height="48" fill="#FFFFFF" opacity="0.543" /><rect x="874" y="2544" width="48" height="2" fill="#FFFFFF" opacity="0.631" /><rect x="897" y="2521" width="2" height="48" fill="#FFFFFF" opacity="0.631" /><rect x="519" y="937" width="38" height="2" fill="#FFFFFF" opacity="0.507" /><rect x="537" y="919" width="2" height="38" fill="#FFFFFF" opacity="0.507" /><rect x="2314" y="1335" width="84" height="2" fill="#FFFFFF" opacity="0.572" /><rect x="2355" y="1294" width="2" height="84" fill="#FFFFFF" opacity="0.572" /><rect x="678" y="585" width="30" height="2" fill="#FFFFFF" opacity="0.825" /><rect x="692" y="571" width="2" height="30" fill="#FFFFFF" opacity="0.825" /><rect x="1134" y="1847" width="84" height="2" fill="#FFFFFF" opacity="0.464" /><rect x="1175" y="1806" width="2" height="84" fill="#FFFFFF" opacity="0.464" /><rect x="1687" y="2465" width="82" height="2" fill="#FFFFFF" opacity="0.572" /><rect x="1727" y="2425" width="2" height="82" fill="#FFFFFF" opacity="0.572" /><rect x="586" y="2260" width="60" height="2" fill="#FFFFFF" opacity="0.566" /><rect x="615" y="2231" width="2" height="60" fill="#FFFFFF" opacity="0.566" /><rect x="1836" y="1124" width="30" height="2" fill="#FFFFFF" opacity="0.648" /><rect x="1850" y="1110" width="2" height="30" fill="#FFFFFF" opacity="0.648" /><rect x="1389" y="749" width="60" height="2" fill="#FFFFFF" opacity="0.648" /><rect x="1418" y="720" width="2" height="60" fill="#FFFFFF" opacity="0.648" /><rect x="1435" y="767" width="80" height="2" fill="#FFFFFF" opacity="0.612" /><rect x="1474" y="728" width="2" height="80" fill="#FFFFFF" opacity="0.612" /><rect x="1971" y="368" width="54" height="2" fill="#FFFFFF" opacity="0.421" /><rect x="1997" y="342" width="2" height="54" fill="#FFFFFF" opacity="0.421" /><rect x="599" y="1962" width="84" height="2" fill="#FFFFFF" opacity="0.764" /><rect x="640" y="1921" width="2" height="84" fill="#FFFFFF" opacity="0.764" /><rect x="1891" y="1503" width="64" height="2" fill="#FFFFFF" opacity="0.812" /><rect x="1922" y="1472" width="2" height="64" fill="#FFFFFF" opacity="0.812" /><rect x="2245" y="1093" width="48" height="2" fill="#FFFFFF" opacity="0.703" /><rect x="2268" y="1070" width="2" height="48" fill="#FFFFFF" opacity="0.703" /><rect x="1143" y="2027" width="28" height="2" fill="#FFFFFF" opacity="0.609" /><rect x="1156" y="2014" width="2" height="28" fill="#FFFFFF" opacity="0.609" /><rect x="1053" y="2565" width="74" height="2" fill="#FFFFFF" opacity="0.375" /><rect x="1089" y="2529" width="2" height="74" fill="#FFFFFF" opacity="0.375" /><rect x="2560" y="2666" width="84" height="2" fill="#FFFFFF" opacity="0.558" /><rect x="2601" y="2625" width="2" height="84" fill="#FFFFFF" opacity="0.558" /><rect x="1045" y="942" width="32" height="2" fill="#FFFFFF" opacity="0.349" /><rect x="1060" y="927" width="2" height="32" fill="#FFFFFF" opacity="0.349" /></g>
  <g opacity="0.52"><path d="M996 1582 C1316 1006, 1572 2158, 2148 1582" fill="none" stroke="#0C2030" stroke-width="90" /><circle cx="1188" cy="1582" r="109" fill="#0C2030" /><circle cx="1572" cy="1582" r="109" fill="#0C2030" /><circle cx="1956" cy="1582" r="109" fill="#0C2030" /></g>
  <g filter="url(#soft130)"><path d="M960 1536 C1280 960, 1536 2112, 2112 1536" fill="none" stroke="url(#symbol130)" stroke-width="90" /><circle cx="1152" cy="1536" r="109" fill="url(#symbol130)" /><circle cx="1536" cy="1536" r="109" fill="url(#symbol130)" /><circle cx="1920" cy="1536" r="109" fill="url(#symbol130)" /></g>
  <rect x="138" y="138" width="2796" height="2796" rx="629" fill="#FFFFFF" filter="url(#grain130)" opacity="0.18" />
</svg>
