<svg xmlns="http://www.w3.org/2000/svg" width="3072" height="3072" viewBox="0 0 3072 3072">
  <title>QuartzOS App Icon 111 - vivid_cloud_111</title>
  <defs><linearGradient id="bg110" x1="0%" y1="0%" x2="100%" y2="100%"><stop offset="0%" stop-color="#FFD84D" /><stop offset="26%" stop-color="#36D1FF" /><stop offset="56%" stop-color="#8A5CFF" /><stop offset="78%" stop-color="#5E86C9" /><stop offset="100%" stop-color="#1C2435" /></linearGradient><radialGradient id="sun110" cx="29%" cy="29%" r="88%"><stop offset="0%" stop-color="#FFFFFF" stop-opacity="0.62" /><stop offset="30%" stop-color="#FF6AB3" stop-opacity="0.35" /><stop offset="100%" stop-color="#FF6AB3" stop-opacity="0" /></radialGradient><linearGradient id="glass110" x1="0%" y1="0%" x2="0%" y2="100%"><stop offset="0%" stop-color="#FFFFFF" stop-opacity="0.70" /><stop offset="46%" stop-color="#FFFFFF" stop-opacity="0.26" /><stop offset="100%" stop-color="#FFFFFF" stop-opacity="0.00" /></linearGradient><linearGradient id="ribbon110" x1="0%" y1="0%" x2="100%" y2="0%"><stop offset="0%" stop-color="#FFD84D" stop-opacity="0.18" /><stop offset="34%" stop-color="#36D1FF" stop-opacity="0.72" /><stop offset="66%" stop-color="#8A5CFF" stop-opacity="0.72" /><stop offset="100%" stop-color="#FF6AB3" stop-opacity="0.18" /></linearGradient><radialGradient id="orb110" cx="34%" cy="27%" r="74%"><stop offset="0%" stop-color="#FFFFFF" stop-opacity="0.84" /><stop offset="30%" stop-color="#FFD84D" stop-opacity="0.52" /><stop offset="68%" stop-color="#36D1FF" stop-opacity="0.42" /><stop offset="100%" stop-color="#8A5CFF" stop-opacity="0.20" /></radialGradient><linearGradient id="extrude110" x1="0%" y1="0%" x2="0%" y2="100%"><stop offset="0%" stop-color="#15283C" stop-opacity="0.45" /><stop offset="100%" stop-color="#08131D" stop-opacity="0.06" /></linearGradient><linearGradient id="symbol110" x1="0%" y1="0%" x2="100%" y2="100%"><stop offset="0%" stop-color="#FFFFFF" /><stop offset="100%" stop-color="#FF6AB3" /></linearGradient><filter id="shadow110" x="-40%" y="-40%" width="180%" height="180%"><feDropShadow dx="0" dy="49" stdDeviation="86" flood-color="#06111A" flood-opacity="0.54" /></filter><filter id="soft110" x="-40%" y="-40%" width="180%" height="180%"><feDropShadow dx="0" dy="0" stdDeviation="14" flood-color="#FFD84D" flood-opacity="0.45" /></filter><filter id="grain110"><feTurbulence type="fractalNoise" baseFrequency="0.983" numOctaves="2" seed="110" /><feColorMatrix type="saturate" values="0" /><feComponentTransfer><feFuncA type="table" tableValues="0 0.09" /></feComponentTransfer></filter></defs>
  <rect x="138" y="138" width="2796" height="2796" rx="629" fill="url(#bg110)" filter="url(#shadow110)" />
  <rect x="138" y="138" width="2796" height="2796" rx="629" fill="url(#sun110)" />
  <g><circle cx="1508" cy="2292" r="100" fill="#FFFFFF" opacity="0.153" /><circle cx="2147" cy="640" r="93" fill="#FFFFFF" opacity="0.184" /><circle cx="2063" cy="2309" r="103" fill="#FFFFFF" opacity="0.200" /><circle cx="1587" cy="1647" r="91" fill="#FFFFFF" opacity="0.206" /><circle cx="1798" cy="1100" r="123" fill="#FFFFFF" opacity="0.204" /><circle cx="2615" cy="2166" r="107" fill="#FFFFFF" opacity="0.235" /><circle cx="1144" cy="984" r="113" fill="#FFFFFF" opacity="0.221" /><circle cx="1124" cy="1324" r="53" fill="#FFFFFF" opacity="0.061" /><circle cx="522" cy="847" r="42" fill="#FFFFFF" opacity="0.107" /><circle cx="1962" cy="520" r="157" fill="#FFFFFF" opacity="0.206" /><circle cx="2547" cy="1454" r="109" fill="#FFFFFF" opacity="0.230" /><circle cx="1932" cy="1916" r="75" fill="#FFFFFF" opacity="0.194" /><circle cx="2687" cy="708" r="51" fill="#FFFFFF" opacity="0.085" /><circle cx="968" cy="1684" r="44" fill="#FFFFFF" opacity="0.119" /><circle cx="1087" cy="456" r="106" fill="#FFFFFF" opacity="0.201" /><circle cx="1766" cy="1970" r="132" fill="#FFFFFF" opacity="0.105" /><circle cx="534" cy="860" r="92" fill="#FFFFFF" opacity="0.146" /><circle cx="2570" cy="850" r="57" fill="#FFFFFF" opacity="0.180" /><circle cx="2228" cy="1499" r="144" fill="#FFFFFF" opacity="0.190" /><circle cx="1773" cy="999" r="46" fill="#FFFFFF" opacity="0.220" /><circle cx="1702" cy="2038" r="46" fill="#FFFFFF" opacity="0.138" /><circle cx="2664" cy="1143" r="57" fill="#FFFFFF" opacity="0.109" /><circle cx="1227" cy="2430" r="115" fill="#FFFFFF" opacity="0.209" /><circle cx="1976" cy="1431" r="42" fill="#FFFFFF" opacity="0.153" /><circle cx="1356" cy="2684" r="50" fill="#FFFFFF" opacity="0.164" /><circle cx="1930" cy="1184" r="40" fill="#FFFFFF" opacity="0.100" /><circle cx="1949" cy="2174" r="78" fill="#FFFFFF" opacity="0.109" /><circle cx="1411" cy="969" r="87" fill="#FFFFFF" opacity="0.199" /></g>
  <g><path d="M 207.7 593.7 L 2746.8 317.2 L 2746.8 753.9 L 207.7 1030.4 Z" fill="#FFFFFF" opacity="0.144" /><path d="M 236.6 888.3 L 2811.9 611.9 L 2811.9 1040.2 L 236.6 1316.6 Z" fill="#FFFFFF" opacity="0.239" /><path d="M 297.1 1124.4 L 2705.1 847.9 L 2705.1 1313.0 L 297.1 1589.4 Z" fill="#FFFFFF" opacity="0.131" /><path d="M 284.2 1387.7 L 2767.8 1111.2 L 2767.8 1570.1 L 284.2 1846.6 Z" fill="#FFFFFF" opacity="0.205" /><path d="M 214.6 1682.0 L 2922.5 1405.5 L 2922.5 1863.6 L 214.6 2140.1 Z" fill="#FFFFFF" opacity="0.232" /><path d="M 292.6 1911.9 L 2704.5 1635.4 L 2704.5 2101.1 L 292.6 2377.6 Z" fill="#FFFFFF" opacity="0.232" /><path d="M 274.1 2218.1 L 2813.7 1941.6 L 2813.7 2414.7 L 274.1 2691.2 Z" fill="#FFFFFF" opacity="0.164" /><path d="M 277.3 2483.3 L 2910.0 2206.8 L 2910.0 2665.0 L 277.3 2941.5 Z" fill="#FFFFFF" opacity="0.233" /></g>
  <g filter="url(#soft110)"><g transform="rotate(-19.33 1536.0 1536.0)"><path d="M-368.6 561.5 C -225.8 545.4, -25.8 583.5, 107.5 579.0 C 250.4 577.0, 450.4 542.8, 583.7 611.3 C 726.5 592.3, 926.5 527.4, 1059.8 613.4 C 1202.7 629.7, 1402.7 531.3, 1536.0 584.0 C 1678.8 577.6, 1878.8 537.6, 2012.2 541.0 C 2155.0 538.2, 2355.0 583.2, 2488.3 510.4 C 2631.2 505.1, 2831.2 577.4, 2964.5 510.8 C 3107.3 503.0, 3307.3 616.6, 3440.6 541.9" fill="none" stroke="url(#ribbon110)" stroke-width="58.4" stroke-linecap="round" stroke-opacity="0.120" /></g><g transform="rotate(-18.75 1536.0 1536.0)"><path d="M-368.6 658.4 C -241.7 617.5, -63.9 731.8, 54.6 607.3 C 181.6 594.5, 359.4 689.8, 477.9 648.4 C 604.8 646.7, 782.6 668.5, 901.1 695.6 C 1028.1 703.8, 1205.9 641.9, 1324.4 720.2 C 1451.3 730.0, 1629.1 593.1, 1747.6 707.4 C 1874.6 704.6, 2052.4 629.4, 2170.9 664.9 C 2297.9 662.4, 2475.6 655.8, 2594.1 618.4 C 2721.1 623.1, 2898.9 681.1, 3017.4 596.2 C 3144.4 595.8, 3322.1 722.9, 3440.6 611.8" fill="none" stroke="url(#ribbon110)" stroke-width="54.4" stroke-linecap="round" stroke-opacity="0.146" /></g><g transform="rotate(-18.17 1536.0 1536.0)"><path d="M-368.6 865.7 C -254.4 867.5, -94.4 864.9, 12.3 816.9 C 126.6 814.9, 286.6 896.7, 393.2 796.3 C 507.5 811.1, 667.5 935.7, 774.1 817.7 C 888.4 806.9, 1048.4 891.7, 1155.1 868.3 C 1269.4 867.5, 1429.3 864.7, 1536.0 917.3 C 1650.3 905.6, 1810.3 816.1, 1916.9 935.0 C 2031.2 957.3, 2191.2 841.3, 2297.9 910.6 C 2412.1 926.2, 2572.1 846.1, 2678.8 859.0 C 2793.1 858.1, 2953.1 868.7, 3059.7 811.5 C 3174.0 799.3, 3334.0 923.5, 3440.6 796.8" fill="none" stroke="url(#ribbon110)" stroke-width="50.4" stroke-linecap="round" stroke-opacity="0.172" /></g><g transform="rotate(-17.59 1536.0 1536.0)"><path d="M-368.6 1079.6 C -264.8 1083.6, -119.3 1078.5, -22.3 1136.5 C 81.5 1133.0, 227.0 1041.6, 324.0 1155.9 C 427.8 1132.6, 573.3 1027.7, 670.3 1129.0 C 774.1 1119.3, 919.6 1053.4, 1016.6 1072.2 C 1120.4 1074.7, 1265.9 1086.8, 1362.9 1019.8 C 1466.7 1035.7, 1612.2 1117.2, 1709.1 1003.7 C 1813.0 990.8, 1958.5 1138.1, 2055.4 1033.6 C 2159.3 1030.6, 2304.8 1110.0, 2401.7 1091.4 C 2505.6 1088.9, 2651.1 1074.5, 2748.0 1142.1 C 2851.9 1135.3, 2997.4 1021.9, 3094.3 1154.8 C 3198.2 1132.8, 3343.7 1000.6, 3440.6 1121.9" fill="none" stroke="url(#ribbon110)" stroke-width="46.4" stroke-linecap="round" stroke-opacity="0.198" /></g><g transform="rotate(-17.01 1536.0 1536.0)"><path d="M-368.6 1244.8 C -273.4 1333.6, -140.1 1158.2, -51.2 1270.7 C 44.0 1273.4, 177.4 1215.3, 266.2 1205.8 C 361.5 1195.5, 494.8 1288.6, 583.7 1164.6 C 678.9 1188.0, 812.2 1271.0, 901.1 1172.0 C 996.4 1171.2, 1129.7 1276.7, 1218.6 1223.5 C 1313.8 1230.4, 1447.1 1268.0, 1536.0 1287.9 C 1631.2 1278.7, 1764.6 1209.3, 1853.4 1326.2 C 1948.7 1309.3, 2082.0 1212.9, 2170.9 1315.0 C 2266.1 1325.6, 2399.4 1180.4, 2488.3 1261.2 C 2583.6 1261.8, 2716.9 1230.7, 2805.8 1197.5 C 2901.0 1210.0, 3034.3 1269.5, 3123.2 1162.4 C 3218.4 1175.5, 3351.8 1318.4, 3440.6 1177.3" fill="none" stroke="url(#ribbon110)" stroke-width="42.4" stroke-linecap="round" stroke-opacity="0.224" /></g><g transform="rotate(-16.43 1536.0 1536.0)"><path d="M-368.6 1469.3 C -225.8 1507.7, -25.8 1420.7, 107.5 1556.5 C 250.4 1563.2, 450.4 1405.8, 583.7 1547.6 C 726.5 1563.2, 926.5 1380.3, 1059.8 1491.2 C 1202.7 1493.5, 1402.7 1457.9, 1536.0 1421.5 C 1678.8 1427.1, 1878.8 1502.3, 2012.2 1380.7 C 2155.0 1371.5, 2355.0 1531.8, 2488.3 1393.7 C 2631.2 1395.2, 2831.2 1514.6, 2964.5 1452.5 C 3107.3 1454.9, 3307.3 1478.4, 3440.6 1521.5" fill="none" stroke="url(#ribbon110)" stroke-width="38.4" stroke-linecap="round" stroke-opacity="0.250" /></g><g transform="rotate(-15.85 1536.0 1536.0)"><path d="M-368.6 1657.5 C -241.7 1786.2, -63.9 1576.0, 54.6 1713.5 C 181.6 1717.1, 359.4 1631.1, 477.9 1639.1 C 604.8 1639.6, 782.6 1668.2, 901.1 1575.9 C 1028.1 1587.4, 1205.9 1699.0, 1324.4 1562.1 C 1451.3 1578.2, 1629.1 1709.1, 1747.6 1606.2 C 1874.6 1588.9, 2052.4 1715.7, 2170.9 1681.4 C 2297.9 1681.4, 2475.6 1638.9, 2594.1 1742.1 C 2721.1 1722.2, 2898.9 1590.9, 3017.4 1751.5 C 3144.4 1769.3, 3322.1 1597.0, 3440.6 1703.8" fill="none" stroke="url(#ribbon110)" stroke-width="34.4" stroke-linecap="round" stroke-opacity="0.276" /></g><g transform="rotate(-15.27 1536.0 1536.0)"><path d="M-368.6 1876.0 C -254.4 1805.7, -94.4 1898.4, 12.3 1891.9 C 126.6 1889.4, 286.6 1868.0, 393.2 1961.3 C 507.5 1975.9, 667.5 1827.5, 774.1 1979.0 C 888.4 1986.5, 1048.4 1778.0, 1155.1 1934.2 C 1269.4 1937.3, 1429.3 1851.3, 1536.0 1854.0 C 1650.3 1854.8, 1810.3 1901.5, 1916.9 1787.2 C 2031.2 1771.1, 2191.2 1951.2, 2297.9 1774.2 C 2412.1 1747.3, 2572.1 1928.3, 2678.8 1823.0 C 2793.1 1825.2, 2953.1 1900.1, 3059.7 1903.9 C 3174.0 1905.8, 3334.0 1853.3, 3440.6 1967.8" fill="none" stroke="url(#ribbon110)" stroke-width="30.4" stroke-linecap="round" stroke-opacity="0.302" /></g><g transform="rotate(-14.69 1536.0 1536.0)"><path d="M-368.6 2042.0 C -264.8 2101.9, -119.3 1990.1, -22.3 2146.6 C 81.5 2124.8, 227.0 1920.2, 324.0 2143.2 C 427.8 2119.2, 573.3 2010.8, 670.3 2078.4 C 774.1 2064.6, 919.6 2013.3, 1016.6 1991.5 C 1120.4 1997.7, 1265.9 2063.8, 1362.9 1935.2 C 1466.7 1948.6, 1612.2 2163.9, 1709.1 1943.7 C 1813.0 1930.8, 1958.5 2155.9, 2055.4 2011.8 C 2159.3 2013.3, 2304.8 2053.1, 2401.7 2098.2 C 2505.6 2107.0, 2651.1 2004.8, 2748.0 2150.5 C 2851.9 2154.0, 2997.4 1962.7, 3094.3 2137.0 C 3198.2 2118.4, 3343.7 1932.0, 3440.6 2065.8" fill="none" stroke="url(#ribbon110)" stroke-width="26.4" stroke-linecap="round" stroke-opacity="0.328" /></g><g transform="rotate(-14.11 1536.0 1536.0)"><path d="M-368.6 2268.7 C -273.4 2250.6, -140.1 2300.8, -51.2 2330.4 C 44.0 2318.4, 177.4 2233.7, 266.2 2384.6 C 361.5 2347.5, 494.8 2221.5, 583.7 2368.5 C 678.9 2338.8, 812.2 2158.7, 901.1 2291.8 C 996.4 2296.8, 1129.7 2243.0, 1218.6 2201.2 C 1313.8 2221.1, 1447.1 2341.5, 1536.0 2151.5 C 1631.2 2117.0, 1764.6 2346.9, 1853.4 2172.9 C 1948.7 2191.7, 2082.0 2315.7, 2170.9 2252.4 C 2266.1 2248.4, 2399.4 2280.6, 2488.3 2341.8 C 2583.6 2365.4, 2716.9 2186.2, 2805.8 2386.9 C 2901.0 2368.0, 3034.3 2186.1, 3123.2 2360.3 C 3218.4 2396.2, 3351.8 2226.9, 3440.6 2278.1" fill="none" stroke="url(#ribbon110)" stroke-width="22.4" stroke-linecap="round" stroke-opacity="0.354" /></g><g transform="rotate(-13.53 1536.0 1536.0)"><path d="M-368.6 2513.4 C -225.8 2479.2, -25.8 2524.0, 107.5 2579.0 C 250.4 2581.9, 450.4 2440.1, 583.7 2636.3 C 726.5 2641.9, 926.5 2444.0, 1059.8 2619.0 C 1202.7 2625.0, 1402.7 2429.5, 1536.0 2537.7 C 1678.8 2529.9, 1878.8 2500.6, 2012.2 2441.7 C 2155.0 2450.6, 2355.0 2567.5, 2488.3 2389.2 C 2631.2 2366.9, 2831.2 2636.0, 2964.5 2412.0 C 3107.3 2386.0, 3307.3 2570.2, 3440.6 2496.4" fill="none" stroke="url(#ribbon110)" stroke-width="18.4" stroke-linecap="round" stroke-opacity="0.380" /></g><g transform="rotate(-12.95 1536.0 1536.0)"><path d="M-368.6 2692.4 C -241.7 2515.9, -63.9 2787.6, 54.6 2594.7 C 181.6 2591.3, 359.4 2801.5, 477.9 2689.1 C 604.8 2688.2, 782.6 2695.2, 901.1 2785.5 C 1028.1 2752.9, 1205.9 2615.5, 1324.4 2825.4 C 1451.3 2856.6, 1629.1 2576.5, 1747.6 2784.7 C 1874.6 2776.7, 2052.4 2603.8, 2170.9 2688.0 C 2297.9 2688.0, 2475.6 2695.2, 2594.1 2594.0 C 2721.1 2615.4, 2898.9 2773.4, 3017.4 2559.6 C 3144.4 2568.5, 3322.1 2746.8, 3440.6 2605.9" fill="none" stroke="url(#ribbon110)" stroke-width="14.4" stroke-linecap="round" stroke-opacity="0.406" /></g></g>
  <g><ellipse cx="1536.0" cy="1551.9" rx="728.6" ry="605.7" fill="url(#extrude110)" opacity="0.220" /><ellipse cx="1536.0" cy="1567.7" rx="736.0" ry="610.9" fill="url(#extrude110)" opacity="0.205" /><ellipse cx="1536.0" cy="1583.6" rx="743.4" ry="616.1" fill="url(#extrude110)" opacity="0.190" /><ellipse cx="1536.0" cy="1599.5" rx="750.9" ry="621.3" fill="url(#extrude110)" opacity="0.175" /><ellipse cx="1536.0" cy="1615.4" rx="758.3" ry="626.5" fill="url(#extrude110)" opacity="0.160" /><ellipse cx="1536.0" cy="1631.2" rx="765.7" ry="631.7" fill="url(#extrude110)" opacity="0.145" /><ellipse cx="1536.0" cy="1647.1" rx="773.2" ry="636.9" fill="url(#extrude110)" opacity="0.130" /><ellipse cx="1536.0" cy="1663.0" rx="780.6" ry="642.1" fill="url(#extrude110)" opacity="0.115" /><ellipse cx="1536.0" cy="1678.8" rx="788.0" ry="647.4" fill="url(#extrude110)" opacity="0.100" /><ellipse cx="1536.0" cy="1694.7" rx="795.5" ry="652.6" fill="url(#extrude110)" opacity="0.085" /><ellipse cx="1536.0" cy="1710.6" rx="802.9" ry="657.8" fill="url(#extrude110)" opacity="0.070" /><ellipse cx="1536.0" cy="1726.5" rx="810.3" ry="663.0" fill="url(#extrude110)" opacity="0.055" /></g>
  <ellipse cx="1536.0" cy="1726.5" rx="773.2" ry="214.9" fill="#0B1D2D" opacity="0.24" />
  <ellipse cx="1536.0" cy="1536.0" rx="743.4" ry="651.3" fill="url(#orb110)" stroke="#FFFFFF" stroke-opacity="0.42" stroke-width="7" />
  <ellipse cx="1431.9" cy="1392.7" rx="505.5" ry="299.6" fill="#FFFFFF" opacity="0.25" />
  <path d="M 199.4 399.4 C 1013.8 -30.7, 2058.2 768.0, 2872.6 215.0 L 2872.6 983.0 C 2089.0 1228.8, 1013.8 307.2, 199.4 1167.4 Z" fill="url(#glass110)" />
  <rect x="270" y="270" width="2532" height="2532" rx="430" fill="none" stroke="#FFFFFF" stroke-opacity="0.30" stroke-width="5" />
  <rect x="288.4" y="288.4" width="2495.1" height="2495.1" rx="399" fill="none" stroke="#FFD84D" stroke-opacity="0.35" stroke-width="3" />
  <g filter="url(#soft110)"><rect x="1096" y="1545" width="52" height="2" fill="#FFFFFF" opacity="0.688" /><rect x="1121" y="1520" width="2" height="52" fill="#FFFFFF" opacity="0.688" /><rect x="2165" y="537" width="54" height="2" fill="#FFFFFF" opacity="0.571" /><rect x="2191" y="511" width="2" height="54" fill="#FFFFFF" opacity="0.571" /><rect x="2133" y="1401" width="50" height="2" fill="#FFFFFF" opacity="0.328" /><rect x="2157" y="1377" width="2" height="50" fill="#FFFFFF" opacity="0.328" /><rect x="510" y="520" width="40" height="2" fill="#FFFFFF" opacity="0.597" /><rect x="529" y="501" width="2" height="40" fill="#FFFFFF" opacity="0.597" /><rect x="1140" y="1292" width="70" height="2" fill="#FFFFFF" opacity="0.345" /><rect x="1174" y="1258" width="2" height="70" fill="#FFFFFF" opacity="0.345" /><rect x="631" y="278" width="50" height="2" fill="#FFFFFF" opacity="0.640" /><rect x="655" y="254" width="2" height="50" fill="#FFFFFF" opacity="0.640" /><rect x="1502" y="1938" width="46" height="2" fill="#FFFFFF" opacity="0.316" /><rect x="1524" y="1916" width="2" height="46" fill="#FFFFFF" opacity="0.316" /><rect x="2596" y="2456" width="30" height="2" fill="#FFFFFF" opacity="0.593" /><rect x="2610" y="2442" width="2" height="30" fill="#FFFFFF" opacity="0.593" /><rect x="2055" y="2241" width="24" height="2" fill="#FFFFFF" opacity="0.634" /><rect x="2066" y="2230" width="2" height="24" fill="#FFFFFF" opacity="0.634" /><rect x="1711" y="1448" width="50" height="2" fill="#FFFFFF" opacity="0.848" /><rect x="1735" y="1424" width="2" height="50" fill="#FFFFFF" opacity="0.848" /><rect x="1953" y="1576" width="80" height="2" fill="#FFFFFF" opacity="0.576" /><rect x="1992" y="1537" width="2" height="80" fill="#FFFFFF" opacity="0.576" /><rect x="2071" y="1509" width="24" height="2" fill="#FFFFFF" opacity="0.655" /><rect x="2082" y="1498" width="2" height="24" fill="#FFFFFF" opacity="0.655" /><rect x="1378" y="2229" width="52" height="2" fill="#FFFFFF" opacity="0.527" /><rect x="1403" y="2204" width="2" height="52" fill="#FFFFFF" opacity="0.527" /><rect x="362" y="2272" width="34" height="2" fill="#FFFFFF" opacity="0.642" /><rect x="378" y="2256" width="2" height="34" fill="#FFFFFF" opacity="0.642" /><rect x="2641" y="1930" width="60" height="2" fill="#FFFFFF" opacity="0.672" /><rect x="2670" y="1901" width="2" height="60" fill="#FFFFFF" opacity="0.672" /><rect x="990" y="2063" width="30" height="2" fill="#FFFFFF" opacity="0.693" /><rect x="1004" y="2049" width="2" height="30" fill="#FFFFFF" opacity="0.693" /><rect x="2498" y="1650" width="28" height="2" fill="#FFFFFF" opacity="0.536" /><rect x="2511" y="1637" width="2" height="28" fill="#FFFFFF" opacity="0.536" /><rect x="1507" y="1369" width="70" height="2" fill="#FFFFFF" opacity="0.335" /><rect x="1541" y="1335" width="2" height="70" fill="#FFFFFF" opacity="0.335" /><rect x="2455" y="958" width="56" height="2" fill="#FFFFFF" opacity="0.493" /><rect x="2482" y="931" width="2" height="56" fill="#FFFFFF" opacity="0.493" /><rect x="1736" y="1422" width="56" height="2" fill="#FFFFFF" opacity="0.535" /><rect x="1763" y="1395" width="2" height="56" fill="#FFFFFF" opacity="0.535" /><rect x="2608" y="1100" width="42" height="2" fill="#FFFFFF" opacity="0.827" /><rect x="2628" y="1080" width="2" height="42" fill="#FFFFFF" opacity="0.827" /><rect x="796" y="432" width="68" height="2" fill="#FFFFFF" opacity="0.310" /><rect x="829" y="399" width="2" height="68" fill="#FFFFFF" opacity="0.310" /><rect x="937" y="673" width="36" height="2" fill="#FFFFFF" opacity="0.560" /><rect x="954" y="656" width="2" height="36" fill="#FFFFFF" opacity="0.560" /><rect x="2806" y="2560" width="30" height="2" fill="#FFFFFF" opacity="0.788" /><rect x="2820" y="2546" width="2" height="30" fill="#FFFFFF" opacity="0.788" /><rect x="1207" y="1532" width="82" height="2" fill="#FFFFFF" opacity="0.428" /><rect x="1247" y="1492" width="2" height="82" fill="#FFFFFF" opacity="0.428" /><rect x="354" y="1867" width="70" height="2" fill="#FFFFFF" opacity="0.787" /><rect x="388" y="1833" width="2" height="70" fill="#FFFFFF" opacity="0.787" /></g>
  <g opacity="0.52"><path d="M996 1582 L1316 2131 L2148 1121" fill="none" stroke="#0C2030" stroke-width="90" stroke-linecap="round" stroke-linejoin="round" /><circle cx="996" cy="1582" r="47" fill="#0C2030" /><circle cx="1316" cy="2131" r="47" fill="#0C2030" /><circle cx="2148" cy="1121" r="47" fill="#0C2030" /></g>
  <g filter="url(#soft110)"><path d="M960 1536 L1280 2085 L2112 1075" fill="none" stroke="url(#symbol110)" stroke-width="90" stroke-linecap="round" stroke-linejoin="round" /><circle cx="960" cy="1536" r="47" fill="url(#symbol110)" /><circle cx="1280" cy="2085" r="47" fill="url(#symbol110)" /><circle cx="2112" cy="1075" r="47" fill="url(#symbol110)" /></g>
  <rect x="138" y="138" width="2796" height="2796" rx="629" fill="#FFFFFF" filter="url(#grain110)" opacity="0.18" />
</svg>
