<svg xmlns="http://www.w3.org/2000/svg" width="3072" height="3072" viewBox="0 0 3072 3072">
  <title>QuartzOS App Icon 051 - vivid_board_051</title>
  <defs><linearGradient id="bg50" x1="0%" y1="0%" x2="100%" y2="100%"><stop offset="0%" stop-color="#3B82FF" /><stop offset="26%" stop-color="#FF6AB3" /><stop offset="56%" stop-color="#FFD84D" /><stop offset="78%" stop-color="#5E86C9" /><stop offset="100%" stop-color="#1C2435" /></linearGradient><radialGradient id="sun50" cx="28%" cy="33%" r="88%"><stop offset="0%" stop-color="#FFFFFF" stop-opacity="0.62" /><stop offset="30%" stop-color="#53E3A6" stop-opacity="0.35" /><stop offset="100%" stop-color="#53E3A6" stop-opacity="0" /></radialGradient><linearGradient id="glass50" x1="0%" y1="0%" x2="0%" y2="100%"><stop offset="0%" stop-color="#FFFFFF" stop-opacity="0.70" /><stop offset="46%" stop-color="#FFFFFF" stop-opacity="0.26" /><stop offset="100%" stop-color="#FFFFFF" stop-opacity="0.00" /></linearGradient><linearGradient id="ribbon50" x1="0%" y1="0%" x2="100%" y2="0%"><stop offset="0%" stop-color="#3B82FF" stop-opacity="0.18" /><stop offset="34%" stop-color="#FF6AB3" stop-opacity="0.72" /><stop offset="66%" stop-color="#FFD84D" stop-opacity="0.72" /><stop offset="100%" stop-color="#53E3A6" stop-opacity="0.18" /></linearGradient><radialGradient id="orb50" cx="34%" cy="27%" r="74%"><stop offset="0%" stop-color="#FFFFFF" stop-opacity="0.84" /><stop offset="30%" stop-color="#3B82FF" stop-opacity="0.52" /><stop offset="68%" stop-color="#FF6AB3" stop-opacity="0.42" /><stop offset="100%" stop-color="#FFD84D" stop-opacity="0.20" /></radialGradient><linearGradient id="extrude50" x1="0%" y1="0%" x2="0%" y2="100%"><stop offset="0%" stop-color="#15283C" stop-opacity="0.45" /><stop offset="100%" stop-color="#08131D" stop-opacity="0.06" /></linearGradient><linearGradient id="symbol50" x1="0%" y1="0%" x2="100%" y2="100%"><stop offset="0%" stop-color="#FFFFFF" /><stop offset="100%" stop-color="#53E3A6" /></linearGradient><filter id="shadow50" x="-40%" y="-40%" width="180%" height="180%"><feDropShadow dx="0" dy="49" stdDeviation="86" flood-color="#06111A" flood-opacity="0.54" /></filter><filter id="soft50" x="-40%" y="-40%" width="180%" height="180%"><feDropShadow dx="0" dy="0" stdDeviation="14" flood-color="#3B82FF" flood-opacity="0.45" /></filter><filter id="grain50"><feTurbulence type="fractalNoise" baseFrequency="0.966" numOctaves="2" seed="50" /><feColorMatrix type="saturate" values="0" /><feComponentTransfer><feFuncA type="table" tableValues="0 0.09" /></feComponentTransfer></filter></defs>
  <rect x="138" y="138" width="2796" height="2796" rx="629" fill="url(#bg50)" filter="url(#shadow50)" />
  <rect x="138" y="138" width="2796" height="2796" rx="629" fill="url(#sun50)" />
  <g><circle cx="1944" cy="731" r="121" fill="#FFFFFF" opacity="0.197" /><circle cx="682" cy="1449" r="48" fill="#FFFFFF" opacity="0.097" /><circle cx="1956" cy="1730" r="62" fill="#FFFFFF" opacity="0.137" /><circle cx="599" cy="2510" r="72" fill="#FFFFFF" opacity="0.081" /><circle cx="875" cy="2244" r="150" fill="#FFFFFF" opacity="0.215" /><circle cx="1564" cy="2353" r="159" fill="#FFFFFF" opacity="0.136" /><circle cx="449" cy="2065" r="123" fill="#FFFFFF" opacity="0.102" /><circle cx="1616" cy="817" r="43" fill="#FFFFFF" opacity="0.205" /><circle cx="2556" cy="609" r="107" fill="#FFFFFF" opacity="0.236" /><circle cx="1646" cy="1311" r="82" fill="#FFFFFF" opacity="0.111" /><circle cx="1849" cy="1696" r="118" fill="#FFFFFF" opacity="0.199" /><circle cx="1027" cy="388" r="86" fill="#FFFFFF" opacity="0.083" /><circle cx="1877" cy="1107" r="124" fill="#FFFFFF" opacity="0.221" /><circle cx="391" cy="838" r="55" fill="#FFFFFF" opacity="0.080" /><circle cx="1013" cy="2440" r="49" fill="#FFFFFF" opacity="0.207" /><circle cx="2219" cy="365" r="129" fill="#FFFFFF" opacity="0.063" /><circle cx="1868" cy="1377" r="94" fill="#FFFFFF" opacity="0.096" /><circle cx="2231" cy="1384" r="110" fill="#FFFFFF" opacity="0.153" /><circle cx="2176" cy="640" r="144" fill="#FFFFFF" opacity="0.081" /><circle cx="1945" cy="1195" r="45" fill="#FFFFFF" opacity="0.119" /><circle cx="2167" cy="548" r="104" fill="#FFFFFF" opacity="0.174" /><circle cx="2695" cy="882" r="134" fill="#FFFFFF" opacity="0.183" /><circle cx="416" cy="1094" r="59" fill="#FFFFFF" opacity="0.187" /><circle cx="2138" cy="1780" r="94" fill="#FFFFFF" opacity="0.086" /><circle cx="1504" cy="1186" r="134" fill="#FFFFFF" opacity="0.125" /><circle cx="2570" cy="1489" r="67" fill="#FFFFFF" opacity="0.184" /><circle cx="483" cy="2226" r="56" fill="#FFFFFF" opacity="0.100" /><circle cx="722" cy="1429" r="127" fill="#FFFFFF" opacity="0.082" /></g>
  <g><path d="M 285.6 652.9 L 2871.5 376.5 L 2871.5 819.1 L 285.6 1095.6 Z" fill="#FFFFFF" opacity="0.126" /><path d="M 259.7 892.6 L 2880.8 616.2 L 2880.8 1041.9 L 259.7 1318.3 Z" fill="#FFFFFF" opacity="0.089" /><path d="M 197.9 1131.8 L 2755.6 855.3 L 2755.6 1322.9 L 197.9 1599.4 Z" fill="#FFFFFF" opacity="0.233" /><path d="M 375.6 1422.1 L 2695.9 1145.6 L 2695.9 1590.8 L 375.6 1867.3 Z" fill="#FFFFFF" opacity="0.156" /><path d="M 314.2 1617.9 L 2786.6 1341.4 L 2786.6 1830.3 L 314.2 2106.7 Z" fill="#FFFFFF" opacity="0.188" /><path d="M 325.0 1924.4 L 2784.9 1647.9 L 2784.9 2073.7 L 325.0 2350.1 Z" fill="#FFFFFF" opacity="0.171" /><path d="M 333.6 2226.1 L 2724.1 1949.6 L 2724.1 2377.9 L 333.6 2654.3 Z" fill="#FFFFFF" opacity="0.104" /><path d="M 322.0 2416.5 L 2811.6 2140.1 L 2811.6 2583.4 L 322.0 2859.9 Z" fill="#FFFFFF" opacity="0.166" /></g>
  <g filter="url(#soft50)"><g transform="rotate(-11.80 1536.0 1536.0)"><path d="M-368.6 525.2 C -225.8 565.3, -25.8 468.9, 107.5 550.4 C 250.4 548.3, 450.4 515.1, 583.7 507.5 C 726.5 510.6, 926.5 533.7, 1059.8 475.3 C 1202.7 467.9, 1402.7 553.2, 1536.0 473.4 C 1678.8 468.4, 1878.8 551.1, 2012.2 502.9 C 2155.0 505.7, 2355.0 550.0, 2488.3 545.9 C 2631.2 546.8, 2831.2 516.5, 2964.5 576.4 C 3107.3 589.3, 3307.3 479.7, 3440.6 575.8" fill="none" stroke="url(#ribbon50)" stroke-width="58.4" stroke-linecap="round" stroke-opacity="0.120" /></g><g transform="rotate(-11.22 1536.0 1536.0)"><path d="M-368.6 735.8 C -241.7 767.2, -63.9 713.3, 54.6 716.1 C 181.6 719.1, 359.4 749.3, 477.9 679.6 C 604.8 694.8, 782.6 792.6, 901.1 677.3 C 1028.1 666.0, 1205.9 759.5, 1324.4 710.4 C 1451.3 700.6, 1629.1 748.1, 1747.6 759.0 C 1874.6 752.9, 2052.4 709.8, 2170.9 793.5 C 2297.9 800.5, 2475.6 717.3, 2594.1 793.0 C 2721.1 776.6, 2898.9 704.0, 3017.4 757.8 C 3144.4 766.2, 3322.1 709.6, 3440.6 709.3" fill="none" stroke="url(#ribbon50)" stroke-width="54.4" stroke-linecap="round" stroke-opacity="0.146" /></g><g transform="rotate(-10.64 1536.0 1536.0)"><path d="M-368.6 962.3 C -254.4 1019.2, -94.4 929.0, 12.3 997.5 C 126.6 1010.7, 286.6 934.4, 393.2 943.9 C 507.5 951.1, 667.5 968.4, 774.1 901.5 C 888.4 905.4, 1048.4 989.6, 1155.1 896.0 C 1269.4 896.6, 1429.3 1038.4, 1536.0 930.7 C 1650.3 932.8, 1810.3 987.3, 1916.9 984.7 C 2031.2 980.4, 2191.2 950.6, 2297.9 1025.0 C 2412.1 1033.5, 2572.1 928.4, 2678.8 1027.4 C 2793.1 1052.0, 2953.1 930.2, 3059.7 990.3 C 3174.0 986.4, 3334.0 944.8, 3440.6 936.2" fill="none" stroke="url(#ribbon50)" stroke-width="50.4" stroke-linecap="round" stroke-opacity="0.172" /></g><g transform="rotate(-10.06 1536.0 1536.0)"><path d="M-368.6 1091.1 C -264.8 1063.6, -119.3 1117.7, -22.3 1019.7 C 81.5 1002.5, 227.0 1164.4, 324.0 1021.7 C 427.8 1045.5, 573.3 1114.6, 670.3 1065.8 C 774.1 1073.6, 919.6 1116.0, 1016.6 1125.2 C 1120.4 1132.8, 1265.9 1051.6, 1362.9 1164.0 C 1466.7 1191.3, 1612.2 1063.6, 1709.1 1158.6 C 1813.0 1173.0, 1958.5 1061.7, 2055.4 1112.2 C 2159.3 1110.9, 2304.8 1068.3, 2401.7 1053.1 C 2505.6 1050.5, 2651.1 1129.4, 2748.0 1017.0 C 2851.9 992.6, 2997.4 1143.8, 3094.3 1025.9 C 3198.2 1011.6, 3343.7 1134.0, 3440.6 1074.4" fill="none" stroke="url(#ribbon50)" stroke-width="46.4" stroke-linecap="round" stroke-opacity="0.198" /></g><g transform="rotate(-9.48 1536.0 1536.0)"><path d="M-368.6 1339.8 C -273.4 1404.8, -140.1 1315.5, -51.2 1423.2 C 44.0 1445.2, 177.4 1289.3, 266.2 1394.3 C 361.5 1394.8, 494.8 1307.4, 583.7 1332.3 C 678.9 1333.0, 812.2 1345.4, 901.1 1274.9 C 996.4 1290.5, 1129.7 1400.0, 1218.6 1256.8 C 1313.8 1237.4, 1447.1 1418.3, 1536.0 1289.0 C 1631.2 1284.6, 1764.6 1358.2, 1853.4 1352.0 C 1948.7 1349.7, 2082.0 1327.8, 2170.9 1407.6 C 2266.1 1419.1, 2399.4 1275.5, 2488.3 1422.0 C 2583.6 1433.1, 2716.9 1296.0, 2805.8 1386.5 C 2901.0 1380.5, 3034.3 1318.7, 3123.2 1322.7 C 3218.4 1322.3, 3351.8 1346.0, 3440.6 1269.2" fill="none" stroke="url(#ribbon50)" stroke-width="42.4" stroke-linecap="round" stroke-opacity="0.224" /></g><g transform="rotate(-8.90 1536.0 1536.0)"><path d="M-368.6 1484.6 C -225.8 1601.5, -25.8 1379.3, 107.5 1537.4 C 250.4 1532.5, 450.4 1448.1, 583.7 1468.6 C 726.5 1469.3, 926.5 1494.1, 1059.8 1409.5 C 1202.7 1405.8, 1402.7 1513.2, 1536.0 1395.9 C 1678.8 1363.6, 1878.8 1548.3, 2012.2 1436.2 C 2155.0 1420.3, 2355.0 1538.4, 2488.3 1505.8 C 2631.2 1509.8, 2831.2 1463.6, 2964.5 1562.6 C 3107.3 1588.4, 3307.3 1445.2, 3440.6 1572.1" fill="none" stroke="url(#ribbon50)" stroke-width="38.4" stroke-linecap="round" stroke-opacity="0.250" /></g><g transform="rotate(-8.32 1536.0 1536.0)"><path d="M-368.6 1731.8 C -241.7 1601.7, -63.9 1831.9, 54.6 1652.0 C 181.6 1646.6, 359.4 1786.8, 477.9 1716.6 C 604.8 1717.2, 782.6 1748.3, 901.1 1790.5 C 1028.1 1783.5, 1205.9 1689.0, 1324.4 1828.7 C 1451.3 1796.0, 1629.1 1637.5, 1747.6 1808.2 C 1874.6 1805.8, 2052.4 1642.8, 2170.9 1741.3 C 2297.9 1743.4, 2475.6 1727.5, 2594.1 1668.7 C 2721.1 1661.6, 2898.9 1758.9, 3017.4 1634.3 C 3144.4 1635.9, 3322.1 1815.4, 3440.6 1659.1" fill="none" stroke="url(#ribbon50)" stroke-width="34.4" stroke-linecap="round" stroke-opacity="0.276" /></g><g transform="rotate(-7.74 1536.0 1536.0)"><path d="M-368.6 1913.6 C -254.4 1955.6, -94.4 1884.6, 12.3 2018.0 C 126.6 2019.6, 286.6 1855.7, 393.2 1991.9 C 507.5 1973.6, 667.5 1819.8, 774.1 1918.3 C 888.4 1918.1, 1048.4 1909.0, 1155.1 1841.8 C 1269.4 1859.5, 1429.3 1978.0, 1536.0 1808.8 C 1650.3 1781.1, 1810.3 2007.7, 1916.9 1839.4 C 2031.2 1818.7, 2191.2 1954.7, 2297.9 1914.9 C 2412.1 1915.4, 2572.1 1912.6, 2678.8 1989.6 C 2793.1 1992.7, 2953.1 1858.4, 3059.7 2018.2 C 3174.0 2053.5, 3334.0 1798.9, 3440.6 1983.3" fill="none" stroke="url(#ribbon50)" stroke-width="30.4" stroke-linecap="round" stroke-opacity="0.302" /></g><g transform="rotate(-7.16 1536.0 1536.0)"><path d="M-368.6 2067.0 C -264.8 2108.2, -119.3 2038.3, -22.3 2169.3 C 81.5 2177.4, 227.0 2009.9, 324.0 2170.6 C 427.8 2203.1, 573.3 1987.6, 670.3 2109.0 C 774.1 2121.7, 919.6 2037.7, 1016.6 2022.0 C 1120.4 2026.7, 1265.9 2117.7, 1362.9 1962.2 C 1466.7 1988.1, 1612.2 2189.0, 1709.1 1966.0 C 1813.0 1953.9, 1958.5 2177.0, 2055.4 2031.0 C 2159.3 2040.3, 2304.8 2095.0, 2401.7 2117.9 C 2505.6 2125.9, 2651.1 2031.8, 2748.0 2173.9 C 2851.9 2132.0, 2997.4 1967.9, 3094.3 2165.0 C 3198.2 2187.0, 3343.7 2011.3, 3440.6 2096.7" fill="none" stroke="url(#ribbon50)" stroke-width="26.4" stroke-linecap="round" stroke-opacity="0.328" /></g><g transform="rotate(-6.58 1536.0 1536.0)"><path d="M-368.6 2285.7 C -273.4 2221.9, -140.1 2318.6, -51.2 2328.8 C 44.0 2324.5, 177.4 2259.8, 266.2 2395.2 C 361.5 2371.3, 494.8 2252.4, 583.7 2395.2 C 678.9 2357.6, 812.2 2225.6, 901.1 2328.7 C 996.4 2325.9, 1129.7 2263.6, 1218.6 2236.2 C 1313.8 2242.8, 1447.1 2331.5, 1536.0 2173.6 C 1631.2 2147.6, 1764.6 2373.1, 1853.4 2179.1 C 1948.7 2139.8, 2082.0 2402.9, 2170.9 2249.2 C 2266.1 2254.3, 2399.4 2306.8, 2488.3 2341.4 C 2583.6 2322.6, 2716.9 2219.5, 2805.8 2399.8 C 2901.0 2393.2, 3034.3 2177.3, 3123.2 2389.0 C 3218.4 2402.3, 3351.8 2212.5, 3440.6 2315.5" fill="none" stroke="url(#ribbon50)" stroke-width="22.4" stroke-linecap="round" stroke-opacity="0.354" /></g><g transform="rotate(-6.00 1536.0 1536.0)"><path d="M-368.6 2507.9 C -225.8 2491.1, -25.8 2516.1, 107.5 2407.9 C 250.4 2418.1, 450.4 2560.4, 583.7 2383.3 C 726.5 2398.0, 926.5 2632.7, 1059.8 2434.2 C 1202.7 2425.5, 1402.7 2552.0, 1536.0 2529.9 C 1678.8 2523.5, 1878.8 2500.4, 2012.2 2612.2 C 2155.0 2576.9, 2355.0 2405.4, 2488.3 2631.2 C 2631.2 2632.8, 2831.2 2403.7, 2964.5 2575.5 C 3107.3 2588.6, 3307.3 2460.3, 3440.6 2478.7" fill="none" stroke="url(#ribbon50)" stroke-width="18.4" stroke-linecap="round" stroke-opacity="0.380" /></g><g transform="rotate(-5.42 1536.0 1536.0)"><path d="M-368.6 2675.3 C -241.7 2496.0, -63.9 2777.2, 54.6 2573.8 C 181.6 2557.6, 359.4 2749.8, 477.9 2666.3 C 604.8 2666.1, 782.6 2686.0, 901.1 2764.2 C 1028.1 2768.6, 1205.9 2613.0, 1324.4 2808.2 C 1451.3 2849.0, 1629.1 2553.9, 1747.6 2771.6 C 1874.6 2778.3, 2052.4 2584.7, 2170.9 2676.5 C 2297.9 2676.7, 2475.6 2674.6, 2594.1 2580.7 C 2721.1 2554.7, 2898.9 2758.7, 3017.4 2542.3 C 3144.4 2521.7, 3322.1 2720.8, 3440.6 2584.5" fill="none" stroke="url(#ribbon50)" stroke-width="14.4" stroke-linecap="round" stroke-opacity="0.406" /></g></g>
  <g><ellipse cx="1536.0" cy="1551.9" rx="728.6" ry="605.7" fill="url(#extrude50)" opacity="0.220" /><ellipse cx="1536.0" cy="1567.7" rx="736.0" ry="610.9" fill="url(#extrude50)" opacity="0.205" /><ellipse cx="1536.0" cy="1583.6" rx="743.4" ry="616.1" fill="url(#extrude50)" opacity="0.190" /><ellipse cx="1536.0" cy="1599.5" rx="750.9" ry="621.3" fill="url(#extrude50)" opacity="0.175" /><ellipse cx="1536.0" cy="1615.4" rx="758.3" ry="626.5" fill="url(#extrude50)" opacity="0.160" /><ellipse cx="1536.0" cy="1631.2" rx="765.7" ry="631.7" fill="url(#extrude50)" opacity="0.145" /><ellipse cx="1536.0" cy="1647.1" rx="773.2" ry="636.9" fill="url(#extrude50)" opacity="0.130" /><ellipse cx="1536.0" cy="1663.0" rx="780.6" ry="642.1" fill="url(#extrude50)" opacity="0.115" /><ellipse cx="1536.0" cy="1678.8" rx="788.0" ry="647.4" fill="url(#extrude50)" opacity="0.100" /><ellipse cx="1536.0" cy="1694.7" rx="795.5" ry="652.6" fill="url(#extrude50)" opacity="0.085" /><ellipse cx="1536.0" cy="1710.6" rx="802.9" ry="657.8" fill="url(#extrude50)" opacity="0.070" /><ellipse cx="1536.0" cy="1726.5" rx="810.3" ry="663.0" fill="url(#extrude50)" opacity="0.055" /></g>
  <ellipse cx="1536.0" cy="1726.5" rx="773.2" ry="214.9" fill="#0B1D2D" opacity="0.24" />
  <ellipse cx="1536.0" cy="1536.0" rx="743.4" ry="651.3" fill="url(#orb50)" stroke="#FFFFFF" stroke-opacity="0.42" stroke-width="7" />
  <ellipse cx="1431.9" cy="1392.7" rx="505.5" ry="299.6" fill="#FFFFFF" opacity="0.25" />
  <path d="M 199.4 399.4 C 1013.8 -30.7, 2058.2 768.0, 2872.6 215.0 L 2872.6 983.0 C 2089.0 1228.8, 1013.8 307.2, 199.4 1167.4 Z" fill="url(#glass50)" />
  <rect x="270" y="270" width="2532" height="2532" rx="430" fill="none" stroke="#FFFFFF" stroke-opacity="0.30" stroke-width="5" />
  <rect x="288.4" y="288.4" width="2495.1" height="2495.1" rx="399" fill="none" stroke="#3B82FF" stroke-opacity="0.35" stroke-width="3" />
  <g filter="url(#soft50)"><rect x="1255" y="1118" width="40" height="2" fill="#FFFFFF" opacity="0.413" /><rect x="1274" y="1099" width="2" height="40" fill="#FFFFFF" opacity="0.413" /><rect x="2457" y="2673" width="38" height="2" fill="#FFFFFF" opacity="0.551" /><rect x="2475" y="2655" width="2" height="38" fill="#FFFFFF" opacity="0.551" /><rect x="1583" y="889" width="54" height="2" fill="#FFFFFF" opacity="0.848" /><rect x="1609" y="863" width="2" height="54" fill="#FFFFFF" opacity="0.848" /><rect x="2150" y="276" width="48" height="2" fill="#FFFFFF" opacity="0.685" /><rect x="2173" y="253" width="2" height="48" fill="#FFFFFF" opacity="0.685" /><rect x="1889" y="878" width="58" height="2" fill="#FFFFFF" opacity="0.750" /><rect x="1917" y="850" width="2" height="58" fill="#FFFFFF" opacity="0.750" /><rect x="1147" y="1043" width="24" height="2" fill="#FFFFFF" opacity="0.306" /><rect x="1158" y="1032" width="2" height="24" fill="#FFFFFF" opacity="0.306" /><rect x="2678" y="950" width="74" height="2" fill="#FFFFFF" opacity="0.692" /><rect x="2714" y="914" width="2" height="74" fill="#FFFFFF" opacity="0.692" /><rect x="1447" y="941" width="40" height="2" fill="#FFFFFF" opacity="0.357" /><rect x="1466" y="922" width="2" height="40" fill="#FFFFFF" opacity="0.357" /><rect x="2443" y="1937" width="46" height="2" fill="#FFFFFF" opacity="0.407" /><rect x="2465" y="1915" width="2" height="46" fill="#FFFFFF" opacity="0.407" /><rect x="1322" y="747" width="48" height="2" fill="#FFFFFF" opacity="0.738" /><rect x="1345" y="724" width="2" height="48" fill="#FFFFFF" opacity="0.738" /><rect x="2454" y="1394" width="78" height="2" fill="#FFFFFF" opacity="0.517" /><rect x="2492" y="1356" width="2" height="78" fill="#FFFFFF" opacity="0.517" /><rect x="2406" y="1252" width="66" height="2" fill="#FFFFFF" opacity="0.399" /><rect x="2438" y="1220" width="2" height="66" fill="#FFFFFF" opacity="0.399" /><rect x="2553" y="2107" width="64" height="2" fill="#FFFFFF" opacity="0.722" /><rect x="2584" y="2076" width="2" height="64" fill="#FFFFFF" opacity="0.722" /><rect x="2617" y="1139" width="68" height="2" fill="#FFFFFF" opacity="0.495" /><rect x="2650" y="1106" width="2" height="68" fill="#FFFFFF" opacity="0.495" /><rect x="2423" y="605" width="44" height="2" fill="#FFFFFF" opacity="0.493" /><rect x="2444" y="584" width="2" height="44" fill="#FFFFFF" opacity="0.493" /><rect x="2371" y="2574" width="30" height="2" fill="#FFFFFF" opacity="0.699" /><rect x="2385" y="2560" width="2" height="30" fill="#FFFFFF" opacity="0.699" /><rect x="1376" y="1017" width="44" height="2" fill="#FFFFFF" opacity="0.633" /><rect x="1397" y="996" width="2" height="44" fill="#FFFFFF" opacity="0.633" /><rect x="1491" y="1851" width="38" height="2" fill="#FFFFFF" opacity="0.780" /><rect x="1509" y="1833" width="2" height="38" fill="#FFFFFF" opacity="0.780" /><rect x="1389" y="1381" width="36" height="2" fill="#FFFFFF" opacity="0.740" /><rect x="1406" y="1364" width="2" height="36" fill="#FFFFFF" opacity="0.740" /><rect x="2085" y="329" width="72" height="2" fill="#FFFFFF" opacity="0.830" /><rect x="2120" y="294" width="2" height="72" fill="#FFFFFF" opacity="0.830" /><rect x="761" y="263" width="76" height="2" fill="#FFFFFF" opacity="0.834" /><rect x="798" y="226" width="2" height="76" fill="#FFFFFF" opacity="0.834" /><rect x="2007" y="431" width="82" height="2" fill="#FFFFFF" opacity="0.713" /><rect x="2047" y="391" width="2" height="82" fill="#FFFFFF" opacity="0.713" /><rect x="1350" y="1010" width="52" height="2" fill="#FFFFFF" opacity="0.541" /><rect x="1375" y="985" width="2" height="52" fill="#FFFFFF" opacity="0.541" /><rect x="1687" y="1787" width="64" height="2" fill="#FFFFFF" opacity="0.361" /><rect x="1718" y="1756" width="2" height="64" fill="#FFFFFF" opacity="0.361" /><rect x="1178" y="1051" width="38" height="2" fill="#FFFFFF" opacity="0.788" /><rect x="1196" y="1033" width="2" height="38" fill="#FFFFFF" opacity="0.788" /><rect x="1726" y="2579" width="48" height="2" fill="#FFFFFF" opacity="0.390" /><rect x="1749" y="2556" width="2" height="48" fill="#FFFFFF" opacity="0.390" /></g>
  <g opacity="0.52"><path d="M996 1582 L1316 2131 L2148 1121" fill="none" stroke="#0C2030" stroke-width="90" stroke-linecap="round" stroke-linejoin="round" /><circle cx="996" cy="1582" r="47" fill="#0C2030" /><circle cx="1316" cy="2131" r="47" fill="#0C2030" /><circle cx="2148" cy="1121" r="47" fill="#0C2030" /></g>
  <g filter="url(#soft50)"><path d="M960 1536 L1280 2085 L2112 1075" fill="none" stroke="url(#symbol50)" stroke-width="90" stroke-linecap="round" stroke-linejoin="round" /><circle cx="960" cy="1536" r="47" fill="url(#symbol50)" /><circle cx="1280" cy="2085" r="47" fill="url(#symbol50)" /><circle cx="2112" cy="1075" r="47" fill="url(#symbol50)" /></g>
  <rect x="138" y="138" width="2796" height="2796" rx="629" fill="#FFFFFF" filter="url(#grain50)" opacity="0.18" />
</svg>
