<svg xmlns="http://www.w3.org/2000/svg" width="3072" height="3072" viewBox="0 0 3072 3072">
  <title>QuartzOS App Icon 266 - zen_browser_266</title>
  <defs><linearGradient id="bg265" x1="0%" y1="0%" x2="100%" y2="100%"><stop offset="0%" stop-color="#53E3A6" /><stop offset="26%" stop-color="#3B82FF" /><stop offset="56%" stop-color="#FF6AB3" /><stop offset="78%" stop-color="#2E8D96" /><stop offset="100%" stop-color="#0F2A2E" /></linearGradient><radialGradient id="sun265" cx="24%" cy="37%" r="88%"><stop offset="0%" stop-color="#FFFFFF" stop-opacity="0.62" /><stop offset="30%" stop-color="#FF9F43" stop-opacity="0.35" /><stop offset="100%" stop-color="#FF9F43" stop-opacity="0" /></radialGradient><linearGradient id="glass265" x1="0%" y1="0%" x2="0%" y2="100%"><stop offset="0%" stop-color="#FFFFFF" stop-opacity="0.70" /><stop offset="46%" stop-color="#FFFFFF" stop-opacity="0.26" /><stop offset="100%" stop-color="#FFFFFF" stop-opacity="0.00" /></linearGradient><linearGradient id="ribbon265" x1="0%" y1="0%" x2="100%" y2="0%"><stop offset="0%" stop-color="#53E3A6" stop-opacity="0.18" /><stop offset="34%" stop-color="#3B82FF" stop-opacity="0.72" /><stop offset="66%" stop-color="#FF6AB3" stop-opacity="0.72" /><stop offset="100%" stop-color="#FF9F43" stop-opacity="0.18" /></linearGradient><radialGradient id="orb265" cx="34%" cy="27%" r="74%"><stop offset="0%" stop-color="#FFFFFF" stop-opacity="0.84" /><stop offset="30%" stop-color="#53E3A6" stop-opacity="0.52" /><stop offset="68%" stop-color="#3B82FF" stop-opacity="0.42" /><stop offset="100%" stop-color="#FF6AB3" stop-opacity="0.20" /></radialGradient><linearGradient id="extrude265" x1="0%" y1="0%" x2="0%" y2="100%"><stop offset="0%" stop-color="#15283C" stop-opacity="0.45" /><stop offset="100%" stop-color="#08131D" stop-opacity="0.06" /></linearGradient><linearGradient id="symbol265" x1="0%" y1="0%" x2="100%" y2="100%"><stop offset="0%" stop-color="#FFFFFF" /><stop offset="100%" stop-color="#FF9F43" /></linearGradient><filter id="shadow265" x="-40%" y="-40%" width="180%" height="180%"><feDropShadow dx="0" dy="49" stdDeviation="86" flood-color="#06111A" flood-opacity="0.54" /></filter><filter id="soft265" x="-40%" y="-40%" width="180%" height="180%"><feDropShadow dx="0" dy="0" stdDeviation="14" flood-color="#53E3A6" flood-opacity="0.45" /></filter><filter id="grain265"><feTurbulence type="fractalNoise" baseFrequency="0.988" numOctaves="2" seed="265" /><feColorMatrix type="saturate" values="0" /><feComponentTransfer><feFuncA type="table" tableValues="0 0.09" /></feComponentTransfer></filter></defs>
  <rect x="138" y="138" width="2796" height="2796" rx="629" fill="url(#bg265)" filter="url(#shadow265)" />
  <rect x="138" y="138" width="2796" height="2796" rx="629" fill="url(#sun265)" />
  <g><circle cx="1695" cy="836" r="152" fill="#FFFFFF" opacity="0.125" /><circle cx="1528" cy="470" r="99" fill="#FFFFFF" opacity="0.211" /><circle cx="2017" cy="1892" r="129" fill="#FFFFFF" opacity="0.136" /><circle cx="424" cy="1214" r="155" fill="#FFFFFF" opacity="0.191" /><circle cx="397" cy="1410" r="118" fill="#FFFFFF" opacity="0.074" /><circle cx="2255" cy="651" r="66" fill="#FFFFFF" opacity="0.091" /><circle cx="473" cy="1207" r="100" fill="#FFFFFF" opacity="0.159" /><circle cx="1682" cy="900" r="67" fill="#FFFFFF" opacity="0.200" /><circle cx="2364" cy="1592" r="104" fill="#FFFFFF" opacity="0.099" /><circle cx="1442" cy="310" r="103" fill="#FFFFFF" opacity="0.192" /><circle cx="2109" cy="1070" r="142" fill="#FFFFFF" opacity="0.210" /><circle cx="2226" cy="2226" r="142" fill="#FFFFFF" opacity="0.062" /><circle cx="1172" cy="996" r="102" fill="#FFFFFF" opacity="0.111" /><circle cx="2631" cy="2342" r="101" fill="#FFFFFF" opacity="0.097" /><circle cx="2675" cy="779" r="129" fill="#FFFFFF" opacity="0.224" /><circle cx="2173" cy="2551" r="110" fill="#FFFFFF" opacity="0.217" /><circle cx="1350" cy="439" r="106" fill="#FFFFFF" opacity="0.139" /><circle cx="2698" cy="998" r="146" fill="#FFFFFF" opacity="0.142" /><circle cx="2239" cy="907" r="108" fill="#FFFFFF" opacity="0.128" /><circle cx="1178" cy="1441" r="131" fill="#FFFFFF" opacity="0.199" /><circle cx="436" cy="2087" r="88" fill="#FFFFFF" opacity="0.076" /><circle cx="1923" cy="1202" r="130" fill="#FFFFFF" opacity="0.074" /><circle cx="1244" cy="1058" r="157" fill="#FFFFFF" opacity="0.119" /><circle cx="1497" cy="828" r="37" fill="#FFFFFF" opacity="0.178" /><circle cx="1376" cy="2418" r="100" fill="#FFFFFF" opacity="0.135" /><circle cx="2387" cy="1927" r="93" fill="#FFFFFF" opacity="0.239" /><circle cx="1237" cy="2409" r="109" fill="#FFFFFF" opacity="0.227" /><circle cx="1714" cy="358" r="39" fill="#FFFFFF" opacity="0.156" /></g>
  <g><path d="M 316.2 616.4 L 2855.7 339.9 L 2855.7 834.6 L 316.2 1111.0 Z" fill="#FFFFFF" opacity="0.171" /><path d="M 229.3 861.4 L 2917.7 584.9 L 2917.7 1022.1 L 229.3 1298.5 Z" fill="#FFFFFF" opacity="0.105" /><path d="M 387.4 1177.4 L 2865.4 900.9 L 2865.4 1386.5 L 387.4 1662.9 Z" fill="#FFFFFF" opacity="0.161" /><path d="M 179.9 1360.1 L 2711.9 1083.6 L 2711.9 1513.2 L 179.9 1789.7 Z" fill="#FFFFFF" opacity="0.109" /><path d="M 190.4 1626.1 L 2821.9 1349.6 L 2821.9 1785.2 L 190.4 2061.7 Z" fill="#FFFFFF" opacity="0.166" /><path d="M 201.5 1886.3 L 2796.5 1609.8 L 2796.5 2044.6 L 201.5 2321.1 Z" fill="#FFFFFF" opacity="0.214" /><path d="M 198.0 2215.2 L 2766.7 1938.7 L 2766.7 2436.4 L 198.0 2712.9 Z" fill="#FFFFFF" opacity="0.082" /><path d="M 311.9 2396.3 L 2841.7 2119.9 L 2841.7 2541.5 L 311.9 2818.0 Z" fill="#FFFFFF" opacity="0.232" /></g>
  <g filter="url(#soft265)"><g transform="rotate(-19.84 1536.0 1536.0)"><path d="M-368.6 541.8 C -225.8 565.5, -25.8 518.5, 107.5 596.4 C 250.4 590.0, 450.4 520.6, 583.7 586.2 C 726.5 587.7, 926.5 494.7, 1059.8 549.1 C 1202.7 551.7, 1402.7 537.1, 1536.0 507.6 C 1678.8 510.3, 1878.8 559.7, 2012.2 486.8 C 2155.0 506.0, 2355.0 560.8, 2488.3 499.5 C 2631.2 485.5, 2831.2 590.6, 2964.5 537.8 C 3107.3 537.9, 3307.3 545.0, 3440.6 578.6" fill="none" stroke="url(#ribbon265)" stroke-width="58.4" stroke-linecap="round" stroke-opacity="0.120" /></g><g transform="rotate(-19.26 1536.0 1536.0)"><path d="M-368.6 675.8 C -241.7 637.6, -63.9 721.6, 54.6 651.4 C 181.6 659.4, 359.4 686.3, 477.9 700.0 C 604.8 701.4, 782.6 666.6, 901.1 733.9 C 1028.1 754.8, 1205.9 642.8, 1324.4 732.6 C 1451.3 731.7, 1629.1 649.7, 1747.6 696.9 C 1874.6 705.0, 2052.4 660.8, 2170.9 648.4 C 2297.9 652.9, 2475.6 698.9, 2594.1 616.5 C 2721.1 620.7, 2898.9 714.5, 3017.4 620.7 C 3144.4 641.8, 3322.1 728.7, 3440.6 658.3" fill="none" stroke="url(#ribbon265)" stroke-width="54.4" stroke-linecap="round" stroke-opacity="0.146" /></g><g transform="rotate(-18.68 1536.0 1536.0)"><path d="M-368.6 940.0 C -254.4 930.2, -94.4 946.7, 12.3 982.3 C 126.6 978.5, 286.6 892.8, 393.2 1009.0 C 507.5 1030.4, 667.5 912.2, 774.1 993.9 C 888.4 1003.3, 1048.4 883.5, 1155.1 946.1 C 1269.4 947.9, 1429.3 936.7, 1536.0 894.7 C 1650.3 901.8, 1810.3 984.3, 1916.9 870.7 C 2031.2 862.3, 2191.2 973.6, 2297.9 888.9 C 2412.1 873.4, 2572.1 982.0, 2678.8 938.0 C 2793.1 938.3, 2953.1 942.4, 3059.7 988.4 C 3174.0 976.3, 3334.0 920.9, 3440.6 1009.5" fill="none" stroke="url(#ribbon265)" stroke-width="50.4" stroke-linecap="round" stroke-opacity="0.172" /></g><g transform="rotate(-18.10 1536.0 1536.0)"><path d="M-368.6 1069.3 C -264.8 1101.6, -119.3 1045.1, -22.3 1034.1 C 81.5 1047.5, 227.0 1089.7, 324.0 996.1 C 427.8 1009.8, 573.3 1092.4, 670.3 1002.5 C 774.1 980.8, 919.6 1107.7, 1016.6 1049.5 C 1120.4 1043.8, 1265.9 1093.2, 1362.9 1108.5 C 1466.7 1120.2, 1612.2 1039.4, 1709.1 1143.8 C 1813.0 1119.9, 1958.5 1033.6, 2055.4 1133.9 C 2159.3 1131.4, 2304.8 1022.2, 2401.7 1084.9 C 2505.6 1081.0, 2651.1 1064.5, 2748.0 1026.4 C 2851.9 1016.8, 2997.4 1118.3, 3094.3 994.0 C 3198.2 1006.8, 3343.7 1108.7, 3440.6 1007.3" fill="none" stroke="url(#ribbon265)" stroke-width="46.4" stroke-linecap="round" stroke-opacity="0.198" /></g><g transform="rotate(-17.52 1536.0 1536.0)"><path d="M-368.6 1267.5 C -273.4 1262.7, -140.1 1270.5, -51.2 1324.4 C 44.0 1308.1, 177.4 1209.4, 266.2 1351.1 C 361.5 1366.9, 494.8 1236.8, 583.7 1327.1 C 678.9 1331.6, 812.2 1247.7, 901.1 1267.0 C 996.4 1267.0, 1129.7 1267.9, 1218.6 1207.2 C 1313.8 1214.6, 1447.1 1328.1, 1536.0 1184.0 C 1631.2 1184.6, 1764.6 1348.1, 1853.4 1211.5 C 1948.7 1196.8, 2082.0 1318.0, 2170.9 1273.0 C 2266.1 1272.5, 2399.4 1263.6, 2488.3 1331.1 C 2583.6 1322.8, 2716.9 1231.8, 2805.8 1350.7 C 2901.0 1325.7, 3034.3 1203.9, 3123.2 1319.8 C 3218.4 1333.7, 3351.8 1238.0, 3440.6 1257.2" fill="none" stroke="url(#ribbon265)" stroke-width="42.4" stroke-linecap="round" stroke-opacity="0.224" /></g><g transform="rotate(-16.94 1536.0 1536.0)"><path d="M-368.6 1522.3 C -225.8 1471.7, -25.8 1579.3, 107.5 1522.8 C 250.4 1522.9, 450.4 1522.0, 583.7 1587.7 C 726.5 1580.5, 926.5 1445.1, 1059.8 1612.9 C 1202.7 1641.1, 1402.7 1452.3, 1536.0 1583.1 C 1678.8 1559.0, 1878.8 1502.1, 2012.2 1516.5 C 2155.0 1517.6, 2355.0 1526.7, 2488.3 1453.4 C 2631.2 1451.1, 2831.2 1578.5, 2964.5 1432.1 C 3107.3 1441.6, 3307.3 1597.2, 3440.6 1465.5" fill="none" stroke="url(#ribbon265)" stroke-width="38.4" stroke-linecap="round" stroke-opacity="0.250" /></g><g transform="rotate(-16.36 1536.0 1536.0)"><path d="M-368.6 1654.9 C -241.7 1784.8, -63.9 1562.0, 54.6 1702.0 C 181.6 1697.3, 359.4 1614.0, 477.9 1626.4 C 604.8 1631.8, 782.6 1664.2, 901.1 1568.0 C 1028.1 1598.8, 1205.9 1718.4, 1324.4 1562.3 C 1451.3 1547.9, 1629.1 1730.9, 1747.6 1612.8 C 1874.6 1617.3, 2052.4 1673.8, 2170.9 1688.8 C 2297.9 1696.1, 2475.6 1633.1, 2594.1 1744.2 C 2721.1 1759.9, 2898.9 1604.9, 3017.4 1745.5 C 3144.4 1725.7, 3322.1 1554.7, 3440.6 1691.7" fill="none" stroke="url(#ribbon265)" stroke-width="34.4" stroke-linecap="round" stroke-opacity="0.276" /></g><g transform="rotate(-15.78 1536.0 1536.0)"><path d="M-368.6 1835.9 C -254.4 1931.7, -94.4 1733.1, 12.3 1928.3 C 126.6 1954.4, 286.6 1786.5, 393.2 1864.9 C 507.5 1854.9, 667.5 1825.7, 774.1 1783.9 C 888.4 1792.8, 1048.4 1858.1, 1155.1 1734.4 C 1269.4 1771.9, 1429.3 1912.9, 1536.0 1746.5 C 1650.3 1760.4, 1810.3 1927.3, 1916.9 1812.8 C 2031.2 1808.4, 2191.2 1845.3, 2297.9 1893.1 C 2412.1 1911.3, 2572.1 1769.7, 2678.8 1938.7 C 2793.1 1962.8, 2953.1 1769.2, 3059.7 1921.9 C 3174.0 1904.5, 3334.0 1807.4, 3440.6 1853.0" fill="none" stroke="url(#ribbon265)" stroke-width="30.4" stroke-linecap="round" stroke-opacity="0.302" /></g><g transform="rotate(-15.20 1536.0 1536.0)"><path d="M-368.6 2093.7 C -264.8 2140.4, -119.3 2075.5, -22.3 2047.9 C 81.5 2050.6, 227.0 2110.8, 324.0 1988.6 C 427.8 2006.9, 573.3 2165.8, 670.3 1993.0 C 774.1 1974.0, 919.6 2179.2, 1016.6 2058.5 C 1120.4 2054.1, 1265.9 2124.6, 1362.9 2145.3 C 1466.7 2149.2, 1612.2 2065.1, 1709.1 2200.8 C 1813.0 2214.4, 1958.5 2034.3, 2055.4 2191.3 C 2159.3 2159.8, 2304.8 2005.2, 2401.7 2122.6 C 2505.6 2118.5, 2651.1 2077.8, 2748.0 2036.4 C 2851.9 2016.6, 2997.4 2129.7, 3094.3 1984.9 C 3198.2 1984.9, 3343.7 2223.1, 3440.6 1999.4" fill="none" stroke="url(#ribbon265)" stroke-width="26.4" stroke-linecap="round" stroke-opacity="0.328" /></g><g transform="rotate(-14.62 1536.0 1536.0)"><path d="M-368.6 2320.1 C -273.4 2215.7, -140.1 2382.8, -51.2 2205.9 C 44.0 2189.6, 177.4 2389.0, 266.2 2264.2 C 361.5 2280.5, 494.8 2342.9, 583.7 2356.4 C 678.9 2359.8, 812.2 2293.5, 901.1 2426.6 C 996.4 2434.6, 1129.7 2213.4, 1218.6 2432.2 C 1313.8 2463.4, 1447.1 2276.4, 1536.0 2369.7 C 1631.2 2368.3, 1764.6 2289.8, 1853.4 2277.2 C 1948.7 2287.3, 2082.0 2333.3, 2170.9 2210.7 C 2266.1 2203.1, 2399.4 2376.8, 2488.3 2210.5 C 2583.6 2170.0, 2716.9 2355.0, 2805.8 2276.8 C 2901.0 2280.0, 3034.3 2337.6, 3123.2 2369.3 C 3218.4 2386.4, 3351.8 2276.2, 3440.6 2432.0" fill="none" stroke="url(#ribbon265)" stroke-width="22.4" stroke-linecap="round" stroke-opacity="0.354" /></g><g transform="rotate(-14.04 1536.0 1536.0)"><path d="M-368.6 2445.1 C -225.8 2424.9, -25.8 2468.9, 107.5 2517.9 C 250.4 2512.3, 450.4 2408.8, 583.7 2569.6 C 726.5 2612.5, 926.5 2396.8, 1059.8 2545.7 C 1202.7 2513.9, 1402.7 2372.5, 1536.0 2460.8 C 1678.8 2454.6, 1878.8 2429.9, 2012.2 2366.4 C 2155.0 2337.1, 2355.0 2475.7, 2488.3 2319.7 C 2631.2 2305.8, 2831.2 2528.2, 2964.5 2349.1 C 3107.3 2365.0, 3307.3 2560.3, 3440.6 2436.7" fill="none" stroke="url(#ribbon265)" stroke-width="18.4" stroke-linecap="round" stroke-opacity="0.380" /></g><g transform="rotate(-13.46 1536.0 1536.0)"><path d="M-368.6 2593.6 C -241.7 2679.9, -63.9 2562.8, 54.6 2726.2 C 181.6 2754.5, 359.4 2500.9, 477.9 2677.9 C 604.8 2675.9, 782.6 2500.6, 901.1 2578.5 C 1028.1 2577.4, 1205.9 2600.7, 1324.4 2488.3 C 1451.3 2521.6, 1629.1 2717.6, 1747.6 2462.0 C 1874.6 2429.7, 2052.4 2707.2, 2170.9 2515.5 C 2297.9 2513.1, 2475.6 2663.9, 2594.1 2616.4 C 2721.1 2616.2, 2898.9 2584.7, 3017.4 2703.5 C 3144.4 2666.8, 3322.1 2503.5, 3440.6 2724.0" fill="none" stroke="url(#ribbon265)" stroke-width="14.4" stroke-linecap="round" stroke-opacity="0.406" /></g></g>
  <g><ellipse cx="1536.0" cy="1551.9" rx="728.6" ry="605.7" fill="url(#extrude265)" opacity="0.220" /><ellipse cx="1536.0" cy="1567.7" rx="736.0" ry="610.9" fill="url(#extrude265)" opacity="0.205" /><ellipse cx="1536.0" cy="1583.6" rx="743.4" ry="616.1" fill="url(#extrude265)" opacity="0.190" /><ellipse cx="1536.0" cy="1599.5" rx="750.9" ry="621.3" fill="url(#extrude265)" opacity="0.175" /><ellipse cx="1536.0" cy="1615.4" rx="758.3" ry="626.5" fill="url(#extrude265)" opacity="0.160" /><ellipse cx="1536.0" cy="1631.2" rx="765.7" ry="631.7" fill="url(#extrude265)" opacity="0.145" /><ellipse cx="1536.0" cy="1647.1" rx="773.2" ry="636.9" fill="url(#extrude265)" opacity="0.130" /><ellipse cx="1536.0" cy="1663.0" rx="780.6" ry="642.1" fill="url(#extrude265)" opacity="0.115" /><ellipse cx="1536.0" cy="1678.8" rx="788.0" ry="647.4" fill="url(#extrude265)" opacity="0.100" /><ellipse cx="1536.0" cy="1694.7" rx="795.5" ry="652.6" fill="url(#extrude265)" opacity="0.085" /><ellipse cx="1536.0" cy="1710.6" rx="802.9" ry="657.8" fill="url(#extrude265)" opacity="0.070" /><ellipse cx="1536.0" cy="1726.5" rx="810.3" ry="663.0" fill="url(#extrude265)" opacity="0.055" /></g>
  <ellipse cx="1536.0" cy="1726.5" rx="773.2" ry="214.9" fill="#0B1D2D" opacity="0.24" />
  <ellipse cx="1536.0" cy="1536.0" rx="743.4" ry="651.3" fill="url(#orb265)" stroke="#FFFFFF" stroke-opacity="0.42" stroke-width="7" />
  <ellipse cx="1431.9" cy="1392.7" rx="505.5" ry="299.6" fill="#FFFFFF" opacity="0.25" />
  <path d="M 199.4 399.4 C 1013.8 -30.7, 2058.2 768.0, 2872.6 215.0 L 2872.6 983.0 C 2089.0 1228.8, 1013.8 307.2, 199.4 1167.4 Z" fill="url(#glass265)" />
  <rect x="270" y="270" width="2532" height="2532" rx="430" fill="none" stroke="#FFFFFF" stroke-opacity="0.30" stroke-width="5" />
  <rect x="288.4" y="288.4" width="2495.1" height="2495.1" rx="399" fill="none" stroke="#53E3A6" stroke-opacity="0.35" stroke-width="3" />
  <g filter="url(#soft265)"><rect x="569" y="2575" width="44" height="2" fill="#FFFFFF" opacity="0.822" /><rect x="590" y="2554" width="2" height="44" fill="#FFFFFF" opacity="0.822" /><rect x="933" y="1668" width="84" height="2" fill="#FFFFFF" opacity="0.594" /><rect x="974" y="1627" width="2" height="84" fill="#FFFFFF" opacity="0.594" /><rect x="1671" y="871" width="34" height="2" fill="#FFFFFF" opacity="0.431" /><rect x="1687" y="855" width="2" height="34" fill="#FFFFFF" opacity="0.431" /><rect x="2477" y="1430" width="50" height="2" fill="#FFFFFF" opacity="0.354" /><rect x="2501" y="1406" width="2" height="50" fill="#FFFFFF" opacity="0.354" /><rect x="2006" y="482" width="60" height="2" fill="#FFFFFF" opacity="0.543" /><rect x="2035" y="453" width="2" height="60" fill="#FFFFFF" opacity="0.543" /><rect x="2571" y="263" width="70" height="2" fill="#FFFFFF" opacity="0.451" /><rect x="2605" y="229" width="2" height="70" fill="#FFFFFF" opacity="0.451" /><rect x="1754" y="1585" width="26" height="2" fill="#FFFFFF" opacity="0.443" /><rect x="1766" y="1573" width="2" height="26" fill="#FFFFFF" opacity="0.443" /><rect x="1404" y="351" width="32" height="2" fill="#FFFFFF" opacity="0.763" /><rect x="1419" y="336" width="2" height="32" fill="#FFFFFF" opacity="0.763" /><rect x="506" y="1490" width="58" height="2" fill="#FFFFFF" opacity="0.497" /><rect x="534" y="1462" width="2" height="58" fill="#FFFFFF" opacity="0.497" /><rect x="1089" y="2305" width="56" height="2" fill="#FFFFFF" opacity="0.409" /><rect x="1116" y="2278" width="2" height="56" fill="#FFFFFF" opacity="0.409" /><rect x="2237" y="1201" width="78" height="2" fill="#FFFFFF" opacity="0.502" /><rect x="2275" y="1163" width="2" height="78" fill="#FFFFFF" opacity="0.502" /><rect x="642" y="2668" width="78" height="2" fill="#FFFFFF" opacity="0.300" /><rect x="680" y="2630" width="2" height="78" fill="#FFFFFF" opacity="0.300" /><rect x="1206" y="2686" width="84" height="2" fill="#FFFFFF" opacity="0.677" /><rect x="1247" y="2645" width="2" height="84" fill="#FFFFFF" opacity="0.677" /><rect x="2146" y="2282" width="50" height="2" fill="#FFFFFF" opacity="0.651" /><rect x="2170" y="2258" width="2" height="50" fill="#FFFFFF" opacity="0.651" /><rect x="2200" y="1892" width="48" height="2" fill="#FFFFFF" opacity="0.355" /><rect x="2223" y="1869" width="2" height="48" fill="#FFFFFF" opacity="0.355" /><rect x="733" y="336" width="62" height="2" fill="#FFFFFF" opacity="0.573" /><rect x="763" y="306" width="2" height="62" fill="#FFFFFF" opacity="0.573" /><rect x="1789" y="2707" width="26" height="2" fill="#FFFFFF" opacity="0.420" /><rect x="1801" y="2695" width="2" height="26" fill="#FFFFFF" opacity="0.420" /><rect x="1380" y="1781" width="72" height="2" fill="#FFFFFF" opacity="0.333" /><rect x="1415" y="1746" width="2" height="72" fill="#FFFFFF" opacity="0.333" /><rect x="1333" y="1473" width="46" height="2" fill="#FFFFFF" opacity="0.691" /><rect x="1355" y="1451" width="2" height="46" fill="#FFFFFF" opacity="0.691" /><rect x="1637" y="360" width="42" height="2" fill="#FFFFFF" opacity="0.739" /><rect x="1657" y="340" width="2" height="42" fill="#FFFFFF" opacity="0.739" /><rect x="1234" y="2523" width="54" height="2" fill="#FFFFFF" opacity="0.506" /><rect x="1260" y="2497" width="2" height="54" fill="#FFFFFF" opacity="0.506" /><rect x="1001" y="2715" width="32" height="2" fill="#FFFFFF" opacity="0.788" /><rect x="1016" y="2700" width="2" height="32" fill="#FFFFFF" opacity="0.788" /><rect x="1534" y="1749" width="56" height="2" fill="#FFFFFF" opacity="0.843" /><rect x="1561" y="1722" width="2" height="56" fill="#FFFFFF" opacity="0.843" /><rect x="1743" y="389" width="36" height="2" fill="#FFFFFF" opacity="0.701" /><rect x="1760" y="372" width="2" height="36" fill="#FFFFFF" opacity="0.701" /><rect x="1514" y="1190" width="66" height="2" fill="#FFFFFF" opacity="0.304" /><rect x="1546" y="1158" width="2" height="66" fill="#FFFFFF" opacity="0.304" /><rect x="982" y="554" width="32" height="2" fill="#FFFFFF" opacity="0.464" /><rect x="997" y="539" width="2" height="32" fill="#FFFFFF" opacity="0.464" /></g>
  <g opacity="0.52"><rect x="1023" y="1070" width="768" height="768" rx="128" fill="none" stroke="#0C2030" stroke-width="90" /><path d="M1023 1582 L1572 1363 L2121 1582 L1572 2094 Z" fill="none" stroke="#0C2030" stroke-width="90" stroke-linejoin="round" /></g>
  <g filter="url(#soft265)"><rect x="987" y="1024" width="768" height="768" rx="128" fill="none" stroke="url(#symbol265)" stroke-width="90" /><path d="M987 1536 L1536 1317 L2085 1536 L1536 2048 Z" fill="none" stroke="url(#symbol265)" stroke-width="90" stroke-linejoin="round" /></g>
  <rect x="138" y="138" width="2796" height="2796" rx="629" fill="#FFFFFF" filter="url(#grain265)" opacity="0.18" />
</svg>
