<svg xmlns="http://www.w3.org/2000/svg" width="3072" height="3072" viewBox="0 0 3072 3072">
  <title>QuartzOS App Icon 286 - zen_settings_286</title>
  <defs><linearGradient id="bg285" x1="0%" y1="0%" x2="100%" y2="100%"><stop offset="0%" stop-color="#FFD84D" /><stop offset="26%" stop-color="#36D1FF" /><stop offset="56%" stop-color="#8A5CFF" /><stop offset="78%" stop-color="#4F79A7" /><stop offset="100%" stop-color="#1B2630" /></linearGradient><radialGradient id="sun285" cx="24%" cy="34%" r="88%"><stop offset="0%" stop-color="#FFFFFF" stop-opacity="0.62" /><stop offset="30%" stop-color="#FF6AB3" stop-opacity="0.35" /><stop offset="100%" stop-color="#FF6AB3" stop-opacity="0" /></radialGradient><linearGradient id="glass285" x1="0%" y1="0%" x2="0%" y2="100%"><stop offset="0%" stop-color="#FFFFFF" stop-opacity="0.70" /><stop offset="46%" stop-color="#FFFFFF" stop-opacity="0.26" /><stop offset="100%" stop-color="#FFFFFF" stop-opacity="0.00" /></linearGradient><linearGradient id="ribbon285" x1="0%" y1="0%" x2="100%" y2="0%"><stop offset="0%" stop-color="#FFD84D" stop-opacity="0.18" /><stop offset="34%" stop-color="#36D1FF" stop-opacity="0.72" /><stop offset="66%" stop-color="#8A5CFF" stop-opacity="0.72" /><stop offset="100%" stop-color="#FF6AB3" stop-opacity="0.18" /></linearGradient><radialGradient id="orb285" cx="34%" cy="27%" r="74%"><stop offset="0%" stop-color="#FFFFFF" stop-opacity="0.84" /><stop offset="30%" stop-color="#FFD84D" stop-opacity="0.52" /><stop offset="68%" stop-color="#36D1FF" stop-opacity="0.42" /><stop offset="100%" stop-color="#8A5CFF" stop-opacity="0.20" /></radialGradient><linearGradient id="extrude285" x1="0%" y1="0%" x2="0%" y2="100%"><stop offset="0%" stop-color="#15283C" stop-opacity="0.45" /><stop offset="100%" stop-color="#08131D" stop-opacity="0.06" /></linearGradient><linearGradient id="symbol285" x1="0%" y1="0%" x2="100%" y2="100%"><stop offset="0%" stop-color="#FFFFFF" /><stop offset="100%" stop-color="#FF6AB3" /></linearGradient><filter id="shadow285" x="-40%" y="-40%" width="180%" height="180%"><feDropShadow dx="0" dy="49" stdDeviation="86" flood-color="#06111A" flood-opacity="0.54" /></filter><filter id="soft285" x="-40%" y="-40%" width="180%" height="180%"><feDropShadow dx="0" dy="0" stdDeviation="14" flood-color="#FFD84D" flood-opacity="0.45" /></filter><filter id="grain285"><feTurbulence type="fractalNoise" baseFrequency="0.889" numOctaves="2" seed="285" /><feColorMatrix type="saturate" values="0" /><feComponentTransfer><feFuncA type="table" tableValues="0 0.09" /></feComponentTransfer></filter></defs>
  <rect x="138" y="138" width="2796" height="2796" rx="629" fill="url(#bg285)" filter="url(#shadow285)" />
  <rect x="138" y="138" width="2796" height="2796" rx="629" fill="url(#sun285)" />
  <g><circle cx="658" cy="842" r="156" fill="#FFFFFF" opacity="0.094" /><circle cx="1542" cy="2615" r="137" fill="#FFFFFF" opacity="0.131" /><circle cx="1509" cy="2557" r="77" fill="#FFFFFF" opacity="0.183" /><circle cx="1374" cy="1603" r="132" fill="#FFFFFF" opacity="0.086" /><circle cx="1234" cy="708" r="149" fill="#FFFFFF" opacity="0.067" /><circle cx="2580" cy="2068" r="152" fill="#FFFFFF" opacity="0.236" /><circle cx="2329" cy="1883" r="50" fill="#FFFFFF" opacity="0.150" /><circle cx="2005" cy="1955" r="156" fill="#FFFFFF" opacity="0.062" /><circle cx="2194" cy="923" r="121" fill="#FFFFFF" opacity="0.139" /><circle cx="2006" cy="813" r="143" fill="#FFFFFF" opacity="0.063" /><circle cx="524" cy="478" r="143" fill="#FFFFFF" opacity="0.072" /><circle cx="2451" cy="850" r="111" fill="#FFFFFF" opacity="0.187" /><circle cx="430" cy="1942" r="56" fill="#FFFFFF" opacity="0.198" /><circle cx="451" cy="947" r="128" fill="#FFFFFF" opacity="0.157" /><circle cx="944" cy="1344" r="42" fill="#FFFFFF" opacity="0.225" /><circle cx="2490" cy="406" r="122" fill="#FFFFFF" opacity="0.087" /><circle cx="1930" cy="2160" r="100" fill="#FFFFFF" opacity="0.122" /><circle cx="2275" cy="452" r="148" fill="#FFFFFF" opacity="0.109" /><circle cx="388" cy="1907" r="76" fill="#FFFFFF" opacity="0.111" /><circle cx="1328" cy="1094" r="138" fill="#FFFFFF" opacity="0.108" /><circle cx="1492" cy="464" r="52" fill="#FFFFFF" opacity="0.233" /><circle cx="2297" cy="530" r="117" fill="#FFFFFF" opacity="0.095" /><circle cx="2344" cy="1352" r="89" fill="#FFFFFF" opacity="0.182" /><circle cx="663" cy="1892" r="155" fill="#FFFFFF" opacity="0.148" /><circle cx="2137" cy="1172" r="75" fill="#FFFFFF" opacity="0.148" /><circle cx="522" cy="966" r="46" fill="#FFFFFF" opacity="0.081" /><circle cx="1375" cy="778" r="157" fill="#FFFFFF" opacity="0.140" /><circle cx="745" cy="431" r="71" fill="#FFFFFF" opacity="0.128" /></g>
  <g><path d="M 341.5 625.8 L 2720.1 349.3 L 2720.1 798.6 L 341.5 1075.1 Z" fill="#FFFFFF" opacity="0.092" /><path d="M 362.3 920.2 L 2734.5 643.8 L 2734.5 1135.2 L 362.3 1411.7 Z" fill="#FFFFFF" opacity="0.123" /><path d="M 229.4 1115.5 L 2757.0 839.0 L 2757.0 1257.7 L 229.4 1534.2 Z" fill="#FFFFFF" opacity="0.236" /><path d="M 233.1 1365.6 L 2894.5 1089.1 L 2894.5 1537.5 L 233.1 1814.0 Z" fill="#FFFFFF" opacity="0.135" /><path d="M 180.2 1635.3 L 2722.8 1358.9 L 2722.8 1828.8 L 180.2 2105.2 Z" fill="#FFFFFF" opacity="0.125" /><path d="M 167.8 1956.2 L 2692.8 1679.7 L 2692.8 2129.2 L 167.8 2405.7 Z" fill="#FFFFFF" opacity="0.179" /><path d="M 207.4 2138.9 L 2843.1 1862.4 L 2843.1 2327.7 L 207.4 2604.2 Z" fill="#FFFFFF" opacity="0.089" /><path d="M 176.7 2463.4 L 2735.6 2186.9 L 2735.6 2631.5 L 176.7 2907.9 Z" fill="#FFFFFF" opacity="0.087" /></g>
  <g filter="url(#soft285)"><g transform="rotate(-12.34 1536.0 1536.0)"><path d="M-368.6 497.3 C -225.8 486.5, -25.8 503.8, 107.5 452.2 C 250.4 449.7, 450.4 516.5, 583.7 442.9 C 726.5 425.6, 926.5 517.3, 1059.8 466.6 C 1202.7 468.1, 1402.7 520.2, 1536.0 508.9 C 1678.8 506.8, 1878.8 486.2, 2012.2 544.2 C 2155.0 541.7, 2355.0 451.9, 2488.3 551.0 C 2631.2 534.3, 2831.2 465.2, 2964.5 525.2 C 3107.3 531.0, 3307.3 468.5, 3440.6 482.5" fill="none" stroke="url(#ribbon285)" stroke-width="58.4" stroke-linecap="round" stroke-opacity="0.120" /></g><g transform="rotate(-11.76 1536.0 1536.0)"><path d="M-368.6 655.7 C -241.7 672.4, -63.9 642.8, 54.6 627.9 C 181.6 623.6, 359.4 668.0, 477.9 596.3 C 604.8 597.1, 782.6 675.5, 901.1 600.7 C 1028.1 599.7, 1205.9 715.3, 1324.4 638.5 C 1451.3 636.7, 1629.1 671.1, 1747.6 686.7 C 1874.6 679.4, 2052.4 625.0, 2170.9 716.1 C 2297.9 723.6, 2475.6 631.6, 2594.1 708.9 C 2721.1 710.4, 2898.9 598.5, 3017.4 669.4 C 3144.4 673.0, 3322.1 650.7, 3440.6 621.6" fill="none" stroke="url(#ribbon285)" stroke-width="54.4" stroke-linecap="round" stroke-opacity="0.146" /></g><g transform="rotate(-11.18 1536.0 1536.0)"><path d="M-368.6 864.8 C -254.4 823.0, -94.4 912.0, 12.3 872.8 C 126.6 872.9, 286.6 859.0, 393.2 919.8 C 507.5 919.2, 667.5 798.8, 774.1 933.5 C 888.4 953.9, 1048.4 832.7, 1155.1 905.4 C 1269.4 907.1, 1429.3 841.0, 1536.0 852.7 C 1650.3 851.7, 1810.3 876.2, 1916.9 807.3 C 2031.2 819.5, 2191.2 918.7, 2297.9 796.8 C 2412.1 812.8, 2572.1 944.2, 2678.8 827.5 C 2793.1 820.7, 2953.1 902.9, 3059.7 880.8 C 3174.0 877.2, 3334.0 848.1, 3440.6 924.4" fill="none" stroke="url(#ribbon285)" stroke-width="50.4" stroke-linecap="round" stroke-opacity="0.172" /></g><g transform="rotate(-10.60 1536.0 1536.0)"><path d="M-368.6 1103.5 C -264.8 1165.6, -119.3 1069.0, -22.3 1176.8 C 81.5 1161.7, 227.0 1022.4, 324.0 1139.0 C 427.8 1129.1, 573.3 1075.8, 670.3 1079.6 C 774.1 1083.3, 919.6 1123.4, 1016.6 1034.7 C 1120.4 1011.9, 1265.9 1129.3, 1362.9 1031.6 C 1466.7 1030.0, 1612.2 1135.2, 1709.1 1072.0 C 1813.0 1079.2, 1958.5 1140.8, 2055.4 1131.6 C 2159.3 1122.9, 2304.8 1073.1, 2401.7 1174.1 C 2505.6 1171.6, 2651.1 1065.0, 2748.0 1173.8 C 2851.9 1191.4, 2997.4 1039.0, 3094.3 1130.8 C 3198.2 1130.7, 3343.7 1078.0, 3440.6 1071.3" fill="none" stroke="url(#ribbon285)" stroke-width="46.4" stroke-linecap="round" stroke-opacity="0.198" /></g><g transform="rotate(-10.02 1536.0 1536.0)"><path d="M-368.6 1334.3 C -273.4 1224.6, -140.1 1381.1, -51.2 1276.5 C 44.0 1260.0, 177.4 1377.5, 266.2 1337.3 C 361.5 1336.5, 494.8 1333.2, 583.7 1396.3 C 678.9 1405.7, 812.2 1265.3, 901.1 1417.6 C 996.4 1418.1, 1129.7 1264.2, 1218.6 1388.4 C 1313.8 1397.9, 1447.1 1283.7, 1536.0 1326.3 C 1631.2 1324.3, 1764.6 1342.5, 1853.4 1269.1 C 1948.7 1268.2, 2082.0 1396.0, 2170.9 1251.3 C 2266.1 1223.7, 2399.4 1379.0, 2488.3 1283.9 C 2583.6 1279.1, 2716.9 1371.9, 2805.8 1347.0 C 2901.0 1346.2, 3034.3 1325.8, 3123.2 1402.4 C 3218.4 1410.9, 3351.8 1253.1, 3440.6 1416.4" fill="none" stroke="url(#ribbon285)" stroke-width="42.4" stroke-linecap="round" stroke-opacity="0.224" /></g><g transform="rotate(-9.44 1536.0 1536.0)"><path d="M-368.6 1492.4 C -225.8 1400.1, -25.8 1577.8, 107.5 1480.5 C 250.4 1477.9, 450.4 1506.3, 583.7 1548.5 C 726.5 1537.9, 926.5 1457.5, 1059.8 1582.5 C 1202.7 1583.3, 1402.7 1411.9, 1536.0 1561.9 C 1678.8 1571.7, 1878.8 1426.2, 2012.2 1499.1 C 2155.0 1499.4, 2355.0 1489.4, 2488.3 1432.2 C 2631.2 1430.8, 2831.2 1542.4, 2964.5 1401.9 C 3107.3 1404.7, 3307.3 1541.2, 3440.6 1426.4" fill="none" stroke="url(#ribbon285)" stroke-width="38.4" stroke-linecap="round" stroke-opacity="0.250" /></g><g transform="rotate(-8.86 1536.0 1536.0)"><path d="M-368.6 1686.0 C -241.7 1742.7, -63.9 1653.9, 54.6 1723.4 C 181.6 1708.7, 359.4 1652.3, 477.9 1647.3 C 604.8 1648.2, 782.6 1710.9, 901.1 1594.7 C 1028.1 1565.2, 1205.9 1751.6, 1324.4 1597.5 C 1451.3 1630.7, 1629.1 1743.8, 1747.6 1654.0 C 1874.6 1641.7, 2052.4 1715.8, 2170.9 1729.9 C 2297.9 1742.7, 2475.6 1672.5, 2594.1 1779.2 C 2721.1 1792.8, 2898.9 1643.6, 3017.4 1772.0 C 3144.4 1797.5, 3322.1 1649.1, 3440.6 1712.6" fill="none" stroke="url(#ribbon285)" stroke-width="34.4" stroke-linecap="round" stroke-opacity="0.276" /></g><g transform="rotate(-8.28 1536.0 1536.0)"><path d="M-368.6 1925.9 C -254.4 1864.8, -94.4 1997.7, 12.3 1822.0 C 126.6 1842.4, 286.6 2006.9, 393.2 1844.2 C 507.5 1839.8, 667.5 1982.1, 774.1 1916.0 C 888.4 1912.8, 1048.4 1934.9, 1155.1 1993.8 C 1269.4 1988.4, 1429.3 1875.7, 1536.0 2030.4 C 1650.3 2058.8, 1810.3 1853.0, 1916.9 2003.7 C 2031.2 2016.5, 2191.2 1853.7, 2297.9 1929.7 C 2412.1 1929.2, 2572.1 1921.7, 2678.8 1853.5 C 2793.1 1850.8, 2953.1 1993.2, 3059.7 1821.2 C 3174.0 1793.8, 3334.0 1965.3, 3440.6 1852.4" fill="none" stroke="url(#ribbon285)" stroke-width="30.4" stroke-linecap="round" stroke-opacity="0.302" /></g><g transform="rotate(-7.70 1536.0 1536.0)"><path d="M-368.6 2117.0 C -264.8 2223.3, -119.3 2080.9, -22.3 2205.3 C 81.5 2200.5, 227.0 2038.1, 324.0 2129.3 C 427.8 2126.2, 573.3 2110.6, 670.3 2045.8 C 774.1 2036.7, 919.6 2200.1, 1016.6 2005.6 C 1120.4 2047.6, 1265.9 2227.1, 1362.9 2032.9 C 1466.7 2014.1, 1612.2 2164.0, 1709.1 2111.3 C 1813.0 2109.4, 1958.5 2121.0, 2055.4 2193.1 C 2159.3 2172.5, 2304.8 2050.3, 2401.7 2228.8 C 2505.6 2198.7, 2651.1 2055.2, 2748.0 2196.7 C 2851.9 2202.0, 2997.4 2068.3, 3094.3 2116.2 C 3198.2 2116.2, 3343.7 2117.8, 3440.6 2036.3" fill="none" stroke="url(#ribbon285)" stroke-width="26.4" stroke-linecap="round" stroke-opacity="0.328" /></g><g transform="rotate(-7.12 1536.0 1536.0)"><path d="M-368.6 2219.3 C -273.4 2297.1, -140.1 2081.6, -51.2 2306.3 C 44.0 2323.6, 177.4 2129.2, 266.2 2221.8 C 361.5 2221.0, 494.8 2216.6, 583.7 2135.7 C 678.9 2124.9, 812.2 2300.7, 901.1 2100.4 C 996.4 2056.7, 1129.7 2332.7, 1218.6 2137.1 C 1313.8 2150.2, 1447.1 2284.3, 1536.0 2223.7 C 1631.2 2225.2, 1764.6 2217.5, 1853.4 2307.6 C 1948.7 2298.5, 2082.0 2175.2, 2170.9 2337.9 C 2266.1 2383.9, 2399.4 2149.4, 2488.3 2296.2 C 2583.6 2274.5, 2716.9 2179.5, 2805.8 2207.9 C 2901.0 2210.0, 3034.3 2226.5, 3123.2 2126.5 C 3218.4 2145.0, 3351.8 2261.6, 3440.6 2101.3" fill="none" stroke="url(#ribbon285)" stroke-width="22.4" stroke-linecap="round" stroke-opacity="0.354" /></g><g transform="rotate(-6.54 1536.0 1536.0)"><path d="M-368.6 2424.8 C -225.8 2541.1, -25.8 2303.2, 107.5 2500.9 C 250.4 2509.2, 450.4 2336.5, 583.7 2405.8 C 726.5 2413.3, 926.5 2435.4, 1059.8 2322.2 C 1202.7 2297.5, 1402.7 2524.9, 1536.0 2301.0 C 1678.8 2317.8, 1878.8 2535.8, 2012.2 2354.8 C 2155.0 2342.9, 2355.0 2487.8, 2488.3 2451.2 C 2631.2 2461.2, 2831.2 2408.0, 2964.5 2531.5 C 3107.3 2566.7, 3307.3 2370.2, 3440.6 2547.2" fill="none" stroke="url(#ribbon285)" stroke-width="18.4" stroke-linecap="round" stroke-opacity="0.380" /></g><g transform="rotate(-5.96 1536.0 1536.0)"><path d="M-368.6 2675.0 C -241.7 2784.1, -63.9 2564.0, 54.6 2773.3 C 181.6 2783.8, 359.4 2574.9, 477.9 2679.2 C 604.8 2677.9, 782.6 2670.1, 901.1 2582.6 C 1028.1 2554.3, 1205.9 2755.5, 1324.4 2542.0 C 1451.3 2577.0, 1629.1 2807.2, 1747.6 2582.1 C 1874.6 2572.7, 2052.4 2785.7, 2170.9 2678.6 C 2297.9 2678.6, 2475.6 2673.4, 2594.1 2772.9 C 2721.1 2767.4, 2898.9 2608.0, 3017.4 2807.8 C 3144.4 2790.5, 3322.1 2567.5, 3440.6 2762.2" fill="none" stroke="url(#ribbon285)" stroke-width="14.4" stroke-linecap="round" stroke-opacity="0.406" /></g></g>
  <g><ellipse cx="1536.0" cy="1551.9" rx="728.6" ry="605.7" fill="url(#extrude285)" opacity="0.220" /><ellipse cx="1536.0" cy="1567.7" rx="736.0" ry="610.9" fill="url(#extrude285)" opacity="0.205" /><ellipse cx="1536.0" cy="1583.6" rx="743.4" ry="616.1" fill="url(#extrude285)" opacity="0.190" /><ellipse cx="1536.0" cy="1599.5" rx="750.9" ry="621.3" fill="url(#extrude285)" opacity="0.175" /><ellipse cx="1536.0" cy="1615.4" rx="758.3" ry="626.5" fill="url(#extrude285)" opacity="0.160" /><ellipse cx="1536.0" cy="1631.2" rx="765.7" ry="631.7" fill="url(#extrude285)" opacity="0.145" /><ellipse cx="1536.0" cy="1647.1" rx="773.2" ry="636.9" fill="url(#extrude285)" opacity="0.130" /><ellipse cx="1536.0" cy="1663.0" rx="780.6" ry="642.1" fill="url(#extrude285)" opacity="0.115" /><ellipse cx="1536.0" cy="1678.8" rx="788.0" ry="647.4" fill="url(#extrude285)" opacity="0.100" /><ellipse cx="1536.0" cy="1694.7" rx="795.5" ry="652.6" fill="url(#extrude285)" opacity="0.085" /><ellipse cx="1536.0" cy="1710.6" rx="802.9" ry="657.8" fill="url(#extrude285)" opacity="0.070" /><ellipse cx="1536.0" cy="1726.5" rx="810.3" ry="663.0" fill="url(#extrude285)" opacity="0.055" /></g>
  <ellipse cx="1536.0" cy="1726.5" rx="773.2" ry="214.9" fill="#0B1D2D" opacity="0.24" />
  <ellipse cx="1536.0" cy="1536.0" rx="743.4" ry="651.3" fill="url(#orb285)" stroke="#FFFFFF" stroke-opacity="0.42" stroke-width="7" />
  <ellipse cx="1431.9" cy="1392.7" rx="505.5" ry="299.6" fill="#FFFFFF" opacity="0.25" />
  <path d="M 199.4 399.4 C 1013.8 -30.7, 2058.2 768.0, 2872.6 215.0 L 2872.6 983.0 C 2089.0 1228.8, 1013.8 307.2, 199.4 1167.4 Z" fill="url(#glass285)" />
  <rect x="270" y="270" width="2532" height="2532" rx="430" fill="none" stroke="#FFFFFF" stroke-opacity="0.30" stroke-width="5" />
  <rect x="288.4" y="288.4" width="2495.1" height="2495.1" rx="399" fill="none" stroke="#FFD84D" stroke-opacity="0.35" stroke-width="3" />
  <g filter="url(#soft285)"><rect x="1262" y="1447" width="32" height="2" fill="#FFFFFF" opacity="0.461" /><rect x="1277" y="1432" width="2" height="32" fill="#FFFFFF" opacity="0.461" /><rect x="715" y="1475" width="80" height="2" fill="#FFFFFF" opacity="0.823" /><rect x="754" y="1436" width="2" height="80" fill="#FFFFFF" opacity="0.823" /><rect x="1052" y="525" width="38" height="2" fill="#FFFFFF" opacity="0.687" /><rect x="1070" y="507" width="2" height="38" fill="#FFFFFF" opacity="0.687" /><rect x="2739" y="596" width="46" height="2" fill="#FFFFFF" opacity="0.600" /><rect x="2761" y="574" width="2" height="46" fill="#FFFFFF" opacity="0.600" /><rect x="1455" y="1875" width="70" height="2" fill="#FFFFFF" opacity="0.607" /><rect x="1489" y="1841" width="2" height="70" fill="#FFFFFF" opacity="0.607" /><rect x="2651" y="1842" width="70" height="2" fill="#FFFFFF" opacity="0.572" /><rect x="2685" y="1808" width="2" height="70" fill="#FFFFFF" opacity="0.572" /><rect x="2710" y="1827" width="82" height="2" fill="#FFFFFF" opacity="0.444" /><rect x="2750" y="1787" width="2" height="82" fill="#FFFFFF" opacity="0.444" /><rect x="1065" y="2631" width="84" height="2" fill="#FFFFFF" opacity="0.379" /><rect x="1106" y="2590" width="2" height="84" fill="#FFFFFF" opacity="0.379" /><rect x="2156" y="1707" width="66" height="2" fill="#FFFFFF" opacity="0.750" /><rect x="2188" y="1675" width="2" height="66" fill="#FFFFFF" opacity="0.750" /><rect x="2363" y="2460" width="36" height="2" fill="#FFFFFF" opacity="0.594" /><rect x="2380" y="2443" width="2" height="36" fill="#FFFFFF" opacity="0.594" /><rect x="344" y="1570" width="44" height="2" fill="#FFFFFF" opacity="0.840" /><rect x="365" y="1549" width="2" height="44" fill="#FFFFFF" opacity="0.840" /><rect x="1917" y="1434" width="28" height="2" fill="#FFFFFF" opacity="0.694" /><rect x="1930" y="1421" width="2" height="28" fill="#FFFFFF" opacity="0.694" /><rect x="1015" y="2269" width="44" height="2" fill="#FFFFFF" opacity="0.418" /><rect x="1036" y="2248" width="2" height="44" fill="#FFFFFF" opacity="0.418" /><rect x="2638" y="2103" width="48" height="2" fill="#FFFFFF" opacity="0.772" /><rect x="2661" y="2080" width="2" height="48" fill="#FFFFFF" opacity="0.772" /><rect x="2413" y="755" width="82" height="2" fill="#FFFFFF" opacity="0.558" /><rect x="2453" y="715" width="2" height="82" fill="#FFFFFF" opacity="0.558" /><rect x="2542" y="2007" width="62" height="2" fill="#FFFFFF" opacity="0.401" /><rect x="2572" y="1977" width="2" height="62" fill="#FFFFFF" opacity="0.401" /><rect x="2672" y="1281" width="30" height="2" fill="#FFFFFF" opacity="0.724" /><rect x="2686" y="1267" width="2" height="30" fill="#FFFFFF" opacity="0.724" /><rect x="1388" y="2122" width="44" height="2" fill="#FFFFFF" opacity="0.693" /><rect x="1409" y="2101" width="2" height="44" fill="#FFFFFF" opacity="0.693" /><rect x="1301" y="2203" width="36" height="2" fill="#FFFFFF" opacity="0.644" /><rect x="1318" y="2186" width="2" height="36" fill="#FFFFFF" opacity="0.644" /><rect x="1171" y="983" width="26" height="2" fill="#FFFFFF" opacity="0.757" /><rect x="1183" y="971" width="2" height="26" fill="#FFFFFF" opacity="0.757" /><rect x="2545" y="1198" width="36" height="2" fill="#FFFFFF" opacity="0.420" /><rect x="2562" y="1181" width="2" height="36" fill="#FFFFFF" opacity="0.420" /><rect x="511" y="2184" width="72" height="2" fill="#FFFFFF" opacity="0.649" /><rect x="546" y="2149" width="2" height="72" fill="#FFFFFF" opacity="0.649" /><rect x="2132" y="1272" width="54" height="2" fill="#FFFFFF" opacity="0.551" /><rect x="2158" y="1246" width="2" height="54" fill="#FFFFFF" opacity="0.551" /><rect x="646" y="2521" width="26" height="2" fill="#FFFFFF" opacity="0.373" /><rect x="658" y="2509" width="2" height="26" fill="#FFFFFF" opacity="0.373" /><rect x="834" y="2440" width="84" height="2" fill="#FFFFFF" opacity="0.737" /><rect x="875" y="2399" width="2" height="84" fill="#FFFFFF" opacity="0.737" /><rect x="2382" y="1064" width="48" height="2" fill="#FFFFFF" opacity="0.430" /><rect x="2405" y="1041" width="2" height="48" fill="#FFFFFF" opacity="0.430" /></g>
  <g opacity="0.52"><rect x="1060" y="1070" width="1024" height="1024" rx="153" fill="none" stroke="#0C2030" stroke-width="90" /><line x1="1316" y1="1326" x2="1828" y2="1838" stroke="#0C2030" stroke-width="90" stroke-linecap="round" /><line x1="1828" y1="1326" x2="1316" y2="1838" stroke="#0C2030" stroke-width="90" stroke-linecap="round" /></g>
  <g filter="url(#soft285)"><rect x="1024" y="1024" width="1024" height="1024" rx="153" fill="none" stroke="url(#symbol285)" stroke-width="90" /><line x1="1280" y1="1280" x2="1792" y2="1792" stroke="url(#symbol285)" stroke-width="90" stroke-linecap="round" /><line x1="1792" y1="1280" x2="1280" y2="1792" stroke="url(#symbol285)" stroke-width="90" stroke-linecap="round" /></g>
  <rect x="138" y="138" width="2796" height="2796" rx="629" fill="#FFFFFF" filter="url(#grain285)" opacity="0.18" />
</svg>
