<svg xmlns="http://www.w3.org/2000/svg" width="3072" height="3072" viewBox="0 0 3072 3072">
  <title>QuartzOS App Icon 226 - zen_calendar_226</title>
  <defs><linearGradient id="bg225" x1="0%" y1="0%" x2="100%" y2="100%"><stop offset="0%" stop-color="#3B82FF" /><stop offset="26%" stop-color="#FF6AB3" /><stop offset="56%" stop-color="#FFD84D" /><stop offset="78%" stop-color="#4F79A7" /><stop offset="100%" stop-color="#1B2630" /></linearGradient><radialGradient id="sun225" cx="27%" cy="11%" r="88%"><stop offset="0%" stop-color="#FFFFFF" stop-opacity="0.62" /><stop offset="30%" stop-color="#53E3A6" stop-opacity="0.35" /><stop offset="100%" stop-color="#53E3A6" stop-opacity="0" /></radialGradient><linearGradient id="glass225" x1="0%" y1="0%" x2="0%" y2="100%"><stop offset="0%" stop-color="#FFFFFF" stop-opacity="0.70" /><stop offset="46%" stop-color="#FFFFFF" stop-opacity="0.26" /><stop offset="100%" stop-color="#FFFFFF" stop-opacity="0.00" /></linearGradient><linearGradient id="ribbon225" x1="0%" y1="0%" x2="100%" y2="0%"><stop offset="0%" stop-color="#3B82FF" stop-opacity="0.18" /><stop offset="34%" stop-color="#FF6AB3" stop-opacity="0.72" /><stop offset="66%" stop-color="#FFD84D" stop-opacity="0.72" /><stop offset="100%" stop-color="#53E3A6" stop-opacity="0.18" /></linearGradient><radialGradient id="orb225" cx="34%" cy="27%" r="74%"><stop offset="0%" stop-color="#FFFFFF" stop-opacity="0.84" /><stop offset="30%" stop-color="#3B82FF" stop-opacity="0.52" /><stop offset="68%" stop-color="#FF6AB3" stop-opacity="0.42" /><stop offset="100%" stop-color="#FFD84D" stop-opacity="0.20" /></radialGradient><linearGradient id="extrude225" x1="0%" y1="0%" x2="0%" y2="100%"><stop offset="0%" stop-color="#15283C" stop-opacity="0.45" /><stop offset="100%" stop-color="#08131D" stop-opacity="0.06" /></linearGradient><linearGradient id="symbol225" x1="0%" y1="0%" x2="100%" y2="100%"><stop offset="0%" stop-color="#FFFFFF" /><stop offset="100%" stop-color="#53E3A6" /></linearGradient><filter id="shadow225" x="-40%" y="-40%" width="180%" height="180%"><feDropShadow dx="0" dy="49" stdDeviation="86" flood-color="#06111A" flood-opacity="0.54" /></filter><filter id="soft225" x="-40%" y="-40%" width="180%" height="180%"><feDropShadow dx="0" dy="0" stdDeviation="14" flood-color="#3B82FF" flood-opacity="0.45" /></filter><filter id="grain225"><feTurbulence type="fractalNoise" baseFrequency="1.003" numOctaves="2" seed="225" /><feColorMatrix type="saturate" values="0" /><feComponentTransfer><feFuncA type="table" tableValues="0 0.09" /></feComponentTransfer></filter></defs>
  <rect x="138" y="138" width="2796" height="2796" rx="629" fill="url(#bg225)" filter="url(#shadow225)" />
  <rect x="138" y="138" width="2796" height="2796" rx="629" fill="url(#sun225)" />
  <g><circle cx="2206" cy="755" r="105" fill="#FFFFFF" opacity="0.200" /><circle cx="1327" cy="1582" r="56" fill="#FFFFFF" opacity="0.072" /><circle cx="2130" cy="2162" r="118" fill="#FFFFFF" opacity="0.201" /><circle cx="1134" cy="567" r="100" fill="#FFFFFF" opacity="0.220" /><circle cx="2683" cy="1656" r="64" fill="#FFFFFF" opacity="0.182" /><circle cx="2365" cy="2383" r="94" fill="#FFFFFF" opacity="0.214" /><circle cx="2501" cy="1340" r="64" fill="#FFFFFF" opacity="0.108" /><circle cx="1823" cy="508" r="52" fill="#FFFFFF" opacity="0.157" /><circle cx="2415" cy="1363" r="116" fill="#FFFFFF" opacity="0.088" /><circle cx="543" cy="454" r="159" fill="#FFFFFF" opacity="0.194" /><circle cx="950" cy="2174" r="123" fill="#FFFFFF" opacity="0.155" /><circle cx="1402" cy="2326" r="79" fill="#FFFFFF" opacity="0.118" /><circle cx="2225" cy="2131" r="141" fill="#FFFFFF" opacity="0.143" /><circle cx="465" cy="2698" r="81" fill="#FFFFFF" opacity="0.156" /><circle cx="1240" cy="2447" r="112" fill="#FFFFFF" opacity="0.211" /><circle cx="2400" cy="1432" r="59" fill="#FFFFFF" opacity="0.232" /><circle cx="2579" cy="2701" r="69" fill="#FFFFFF" opacity="0.202" /><circle cx="1604" cy="1458" r="118" fill="#FFFFFF" opacity="0.239" /><circle cx="2478" cy="1293" r="69" fill="#FFFFFF" opacity="0.188" /><circle cx="1414" cy="1515" r="42" fill="#FFFFFF" opacity="0.224" /><circle cx="1988" cy="841" r="104" fill="#FFFFFF" opacity="0.213" /><circle cx="1364" cy="1022" r="76" fill="#FFFFFF" opacity="0.138" /><circle cx="2176" cy="1742" r="112" fill="#FFFFFF" opacity="0.139" /><circle cx="1509" cy="311" r="104" fill="#FFFFFF" opacity="0.231" /><circle cx="2401" cy="685" r="88" fill="#FFFFFF" opacity="0.135" /><circle cx="480" cy="1000" r="142" fill="#FFFFFF" opacity="0.100" /><circle cx="1650" cy="1284" r="47" fill="#FFFFFF" opacity="0.181" /><circle cx="1273" cy="1737" r="80" fill="#FFFFFF" opacity="0.188" /></g>
  <g><path d="M 208.6 577.5 L 2787.0 301.0 L 2787.0 790.8 L 208.6 1067.3 Z" fill="#FFFFFF" opacity="0.152" /><path d="M 333.4 866.4 L 2778.3 589.9 L 2778.3 1066.5 L 333.4 1342.9 Z" fill="#FFFFFF" opacity="0.167" /><path d="M 386.8 1122.2 L 2909.1 845.7 L 2909.1 1308.8 L 386.8 1585.3 Z" fill="#FFFFFF" opacity="0.231" /><path d="M 171.8 1376.1 L 2857.8 1099.6 L 2857.8 1584.9 L 171.8 1861.4 Z" fill="#FFFFFF" opacity="0.226" /><path d="M 332.5 1680.4 L 2734.2 1403.9 L 2734.2 1838.8 L 332.5 2115.3 Z" fill="#FFFFFF" opacity="0.095" /><path d="M 181.7 1921.8 L 2774.1 1645.4 L 2774.1 2113.7 L 181.7 2390.2 Z" fill="#FFFFFF" opacity="0.223" /><path d="M 312.1 2178.1 L 2680.2 1901.7 L 2680.2 2372.3 L 312.1 2648.8 Z" fill="#FFFFFF" opacity="0.136" /><path d="M 238.9 2471.2 L 2852.3 2194.7 L 2852.3 2615.5 L 238.9 2892.0 Z" fill="#FFFFFF" opacity="0.188" /></g>
  <g filter="url(#soft225)"><g transform="rotate(-4.91 1536.0 1536.0)"><path d="M-368.6 551.0 C -225.8 601.4, -25.8 507.6, 107.5 606.2 C 250.4 598.1, 450.4 507.9, 583.7 591.7 C 726.5 593.2, 926.5 514.4, 1059.8 552.5 C 1202.7 551.9, 1402.7 549.2, 1536.0 512.4 C 1678.8 518.7, 1878.8 580.4, 2012.2 495.7 C 2155.0 477.7, 2355.0 584.8, 2488.3 512.5 C 2631.2 523.6, 2831.2 580.7, 2964.5 552.7 C 3107.3 552.7, 3307.3 549.5, 3440.6 591.8" fill="none" stroke="url(#ribbon225)" stroke-width="58.4" stroke-linecap="round" stroke-opacity="0.120" /></g><g transform="rotate(-4.33 1536.0 1536.0)"><path d="M-368.6 711.7 C -241.7 672.6, -63.9 725.4, 54.6 715.9 C 181.6 716.4, 359.4 706.8, 477.9 759.3 C 604.8 770.4, 782.6 662.4, 901.1 773.8 C 1028.1 795.0, 1205.9 676.6, 1324.4 750.7 C 1451.3 746.7, 1629.1 683.1, 1747.6 703.9 C 1874.6 701.6, 2052.4 715.6, 2170.9 661.9 C 2297.9 673.9, 2475.6 746.7, 2594.1 650.1 C 2721.1 641.8, 2898.9 773.9, 3017.4 675.7 C 3144.4 670.8, 3322.1 753.1, 3440.6 723.2" fill="none" stroke="url(#ribbon225)" stroke-width="54.4" stroke-linecap="round" stroke-opacity="0.146" /></g><g transform="rotate(-3.75 1536.0 1536.0)"><path d="M-368.6 888.1 C -254.4 970.6, -94.4 817.9, 12.3 953.9 C 126.6 965.8, 286.6 859.4, 393.2 918.0 C 507.5 919.0, 667.5 858.2, 774.1 864.0 C 888.4 862.6, 1048.4 915.1, 1155.1 824.6 C 1269.4 841.0, 1429.3 954.5, 1536.0 823.8 C 1650.3 840.6, 1810.3 917.1, 1916.9 862.0 C 2031.2 862.2, 2191.2 899.4, 2297.9 916.0 C 2412.1 911.7, 2572.1 875.7, 2678.8 953.2 C 2793.1 952.7, 2953.1 864.4, 3059.7 950.9 C 3174.0 961.8, 3334.0 861.5, 3440.6 910.5" fill="none" stroke="url(#ribbon225)" stroke-width="50.4" stroke-linecap="round" stroke-opacity="0.172" /></g><g transform="rotate(-3.17 1536.0 1536.0)"><path d="M-368.6 1082.7 C -264.8 1159.1, -119.3 1049.0, -22.3 1082.5 C 81.5 1082.4, 227.0 1082.7, 324.0 1027.7 C 427.8 1012.6, 573.3 1136.2, 670.3 1006.2 C 774.1 1017.6, 919.6 1122.3, 1016.6 1031.1 C 1120.4 1050.5, 1265.9 1135.9, 1362.9 1087.3 C 1466.7 1088.2, 1612.2 1079.0, 1709.1 1140.7 C 1813.0 1140.8, 1958.5 1053.2, 2055.4 1158.9 C 2159.3 1142.1, 2304.8 1058.1, 2401.7 1130.8 C 2505.6 1129.5, 2651.1 1051.5, 2748.0 1073.6 C 2851.9 1075.0, 2997.4 1088.7, 3094.3 1021.9 C 3198.2 1026.7, 3343.7 1147.0, 3440.6 1007.0" fill="none" stroke="url(#ribbon225)" stroke-width="46.4" stroke-linecap="round" stroke-opacity="0.198" /></g><g transform="rotate(-2.59 1536.0 1536.0)"><path d="M-368.6 1316.2 C -273.4 1371.8, -140.1 1280.2, -51.2 1323.0 C 44.0 1320.9, 177.4 1313.9, 266.2 1261.2 C 361.5 1247.5, 494.8 1365.0, 583.7 1232.8 C 678.9 1246.8, 812.2 1411.2, 901.1 1255.0 C 996.4 1256.8, 1129.7 1351.8, 1218.6 1314.3 C 1313.8 1314.9, 1447.1 1318.3, 1536.0 1374.8 C 1631.2 1397.2, 1764.6 1264.3, 1853.4 1399.8 C 1948.7 1379.2, 2082.0 1218.5, 2170.9 1374.0 C 2266.1 1395.6, 2399.4 1280.9, 2488.3 1313.2 C 2583.6 1313.5, 2716.9 1318.1, 2805.8 1254.2 C 2901.0 1275.6, 3034.3 1344.1, 3123.2 1232.8 C 3218.4 1247.3, 3351.8 1381.5, 3440.6 1262.0" fill="none" stroke="url(#ribbon225)" stroke-width="42.4" stroke-linecap="round" stroke-opacity="0.224" /></g><g transform="rotate(-2.01 1536.0 1536.0)"><path d="M-368.6 1449.6 C -225.8 1545.8, -25.8 1417.5, 107.5 1534.3 C 250.4 1547.1, 450.4 1379.3, 583.7 1485.6 C 726.5 1493.3, 926.5 1416.8, 1059.8 1415.0 C 1202.7 1423.3, 1402.7 1480.5, 1536.0 1365.4 C 1678.8 1360.8, 1878.8 1504.6, 2012.2 1366.9 C 2155.0 1336.3, 2355.0 1505.2, 2488.3 1418.6 C 2631.2 1413.8, 2831.2 1468.5, 2964.5 1489.1 C 3107.3 1475.2, 3307.3 1434.0, 3440.6 1535.6" fill="none" stroke="url(#ribbon225)" stroke-width="38.4" stroke-linecap="round" stroke-opacity="0.250" /></g><g transform="rotate(-1.43 1536.0 1536.0)"><path d="M-368.6 1710.5 C -241.7 1731.1, -63.9 1687.6, 54.6 1797.0 C 181.6 1798.5, 359.4 1677.2, 477.9 1803.4 C 604.8 1791.6, 782.6 1673.1, 901.1 1753.5 C 1028.1 1743.2, 1205.9 1671.7, 1324.4 1677.5 C 1451.3 1690.6, 1629.1 1726.4, 1747.6 1621.6 C 1874.6 1599.6, 2052.4 1795.0, 2170.9 1619.6 C 2297.9 1624.7, 2475.6 1786.1, 2594.1 1672.7 C 2721.1 1680.8, 2898.9 1752.6, 3017.4 1748.8 C 3144.4 1740.1, 3322.1 1684.4, 3440.6 1801.7" fill="none" stroke="url(#ribbon225)" stroke-width="34.4" stroke-linecap="round" stroke-opacity="0.276" /></g><g transform="rotate(-0.85 1536.0 1536.0)"><path d="M-368.6 1927.4 C -254.4 1889.2, -94.4 1946.9, 12.3 1828.4 C 126.6 1850.0, 286.6 1996.5, 393.2 1834.0 C 507.5 1865.5, 667.5 2025.4, 774.1 1896.4 C 888.4 1889.5, 1048.4 1957.4, 1155.1 1977.6 C 1269.4 1996.7, 1429.3 1875.4, 1536.0 2028.4 C 1650.3 2056.2, 1810.3 1817.6, 1916.9 2017.9 C 2031.2 1996.7, 2191.2 1819.1, 2297.9 1952.6 C 2412.1 1958.4, 2572.1 1918.4, 2678.8 1872.0 C 2793.1 1883.1, 2953.1 1946.1, 3059.7 1825.1 C 3174.0 1855.0, 3334.0 1989.8, 3440.6 1840.2" fill="none" stroke="url(#ribbon225)" stroke-width="30.4" stroke-linecap="round" stroke-opacity="0.302" /></g><g transform="rotate(-0.27 1536.0 1536.0)"><path d="M-368.6 2012.6 C -264.8 2082.9, -119.3 1941.2, -22.3 1989.3 C 81.5 1991.7, 227.0 2040.4, 324.0 1917.9 C 427.8 1902.0, 573.3 2125.4, 670.3 1904.0 C 774.1 1877.7, 919.6 2112.1, 1016.6 1955.9 C 1120.4 1958.2, 1265.9 2077.3, 1362.9 2042.3 C 1466.7 2053.7, 1612.2 1997.6, 1709.1 2110.6 C 1813.0 2072.0, 1958.5 1961.5, 2055.4 2119.5 C 2159.3 2093.7, 2304.8 1966.9, 2401.7 2063.5 C 2505.6 2064.7, 2651.1 1987.9, 2748.0 1976.7 C 2851.9 1968.4, 2997.4 2043.4, 3094.3 1911.6 C 3198.2 1903.1, 3343.7 2125.6, 3440.6 1907.8" fill="none" stroke="url(#ribbon225)" stroke-width="26.4" stroke-linecap="round" stroke-opacity="0.328" /></g><g transform="rotate(0.31 1536.0 1536.0)"><path d="M-368.6 2256.7 C -273.4 2158.3, -140.1 2338.7, -51.2 2137.8 C 44.0 2120.7, 177.4 2358.9, 266.2 2174.3 C 361.5 2168.4, 494.8 2285.7, 583.7 2260.8 C 678.9 2259.2, 812.2 2252.9, 901.1 2344.8 C 996.4 2342.8, 1129.7 2189.5, 1218.6 2375.3 C 1313.8 2376.0, 1447.1 2131.0, 1536.0 2333.8 C 1631.2 2303.1, 1764.6 2181.4, 1853.4 2245.6 C 1948.7 2241.9, 2082.0 2260.4, 2170.9 2164.0 C 2266.1 2200.0, 2399.4 2296.5, 2488.3 2138.7 C 2583.6 2151.3, 2716.9 2390.4, 2805.8 2184.9 C 2901.0 2194.0, 3034.3 2313.9, 3123.2 2274.6 C 3218.4 2274.7, 3351.8 2244.7, 3440.6 2353.5" fill="none" stroke="url(#ribbon225)" stroke-width="22.4" stroke-linecap="round" stroke-opacity="0.354" /></g><g transform="rotate(0.89 1536.0 1536.0)"><path d="M-368.6 2483.2 C -225.8 2365.3, -25.8 2602.4, 107.5 2419.5 C 250.4 2438.9, 450.4 2553.1, 583.7 2516.8 C 726.5 2527.8, 926.5 2456.4, 1059.8 2593.7 C 1202.7 2581.0, 1402.7 2397.5, 1536.0 2603.5 C 1678.8 2603.9, 1878.8 2345.6, 2012.2 2540.4 C 2155.0 2540.6, 2355.0 2457.4, 2488.3 2442.6 C 2631.2 2428.2, 2831.2 2522.8, 2964.5 2369.4 C 3107.3 2358.1, 3307.3 2589.1, 3440.6 2365.2" fill="none" stroke="url(#ribbon225)" stroke-width="18.4" stroke-linecap="round" stroke-opacity="0.380" /></g><g transform="rotate(1.47 1536.0 1536.0)"><path d="M-368.6 2683.2 C -241.7 2516.9, -63.9 2802.0, 54.6 2558.0 C 181.6 2544.7, 359.4 2775.7, 477.9 2628.1 C 604.8 2628.1, 782.6 2700.3, 901.1 2731.7 C 1028.1 2733.3, 1205.9 2631.0, 1324.4 2805.8 C 1451.3 2773.2, 1629.1 2556.1, 1747.6 2805.6 C 1874.6 2788.3, 2052.4 2589.8, 2170.9 2731.1 C 2297.9 2744.2, 2475.6 2648.2, 2594.1 2627.6 C 2721.1 2634.8, 2898.9 2726.6, 3017.4 2557.8 C 3144.4 2555.4, 3322.1 2805.0, 3440.6 2564.1" fill="none" stroke="url(#ribbon225)" stroke-width="14.4" stroke-linecap="round" stroke-opacity="0.406" /></g></g>
  <g><ellipse cx="1536.0" cy="1551.9" rx="728.6" ry="605.7" fill="url(#extrude225)" opacity="0.220" /><ellipse cx="1536.0" cy="1567.7" rx="736.0" ry="610.9" fill="url(#extrude225)" opacity="0.205" /><ellipse cx="1536.0" cy="1583.6" rx="743.4" ry="616.1" fill="url(#extrude225)" opacity="0.190" /><ellipse cx="1536.0" cy="1599.5" rx="750.9" ry="621.3" fill="url(#extrude225)" opacity="0.175" /><ellipse cx="1536.0" cy="1615.4" rx="758.3" ry="626.5" fill="url(#extrude225)" opacity="0.160" /><ellipse cx="1536.0" cy="1631.2" rx="765.7" ry="631.7" fill="url(#extrude225)" opacity="0.145" /><ellipse cx="1536.0" cy="1647.1" rx="773.2" ry="636.9" fill="url(#extrude225)" opacity="0.130" /><ellipse cx="1536.0" cy="1663.0" rx="780.6" ry="642.1" fill="url(#extrude225)" opacity="0.115" /><ellipse cx="1536.0" cy="1678.8" rx="788.0" ry="647.4" fill="url(#extrude225)" opacity="0.100" /><ellipse cx="1536.0" cy="1694.7" rx="795.5" ry="652.6" fill="url(#extrude225)" opacity="0.085" /><ellipse cx="1536.0" cy="1710.6" rx="802.9" ry="657.8" fill="url(#extrude225)" opacity="0.070" /><ellipse cx="1536.0" cy="1726.5" rx="810.3" ry="663.0" fill="url(#extrude225)" opacity="0.055" /></g>
  <ellipse cx="1536.0" cy="1726.5" rx="773.2" ry="214.9" fill="#0B1D2D" opacity="0.24" />
  <ellipse cx="1536.0" cy="1536.0" rx="743.4" ry="651.3" fill="url(#orb225)" stroke="#FFFFFF" stroke-opacity="0.42" stroke-width="7" />
  <ellipse cx="1431.9" cy="1392.7" rx="505.5" ry="299.6" fill="#FFFFFF" opacity="0.25" />
  <path d="M 199.4 399.4 C 1013.8 -30.7, 2058.2 768.0, 2872.6 215.0 L 2872.6 983.0 C 2089.0 1228.8, 1013.8 307.2, 199.4 1167.4 Z" fill="url(#glass225)" />
  <rect x="270" y="270" width="2532" height="2532" rx="430" fill="none" stroke="#FFFFFF" stroke-opacity="0.30" stroke-width="5" />
  <rect x="288.4" y="288.4" width="2495.1" height="2495.1" rx="399" fill="none" stroke="#3B82FF" stroke-opacity="0.35" stroke-width="3" />
  <g filter="url(#soft225)"><rect x="1006" y="733" width="82" height="2" fill="#FFFFFF" opacity="0.388" /><rect x="1046" y="693" width="2" height="82" fill="#FFFFFF" opacity="0.388" /><rect x="1518" y="1852" width="44" height="2" fill="#FFFFFF" opacity="0.696" /><rect x="1539" y="1831" width="2" height="44" fill="#FFFFFF" opacity="0.696" /><rect x="2747" y="678" width="40" height="2" fill="#FFFFFF" opacity="0.698" /><rect x="2766" y="659" width="2" height="40" fill="#FFFFFF" opacity="0.698" /><rect x="1359" y="511" width="58" height="2" fill="#FFFFFF" opacity="0.766" /><rect x="1387" y="483" width="2" height="58" fill="#FFFFFF" opacity="0.766" /><rect x="2104" y="1131" width="28" height="2" fill="#FFFFFF" opacity="0.747" /><rect x="2117" y="1118" width="2" height="28" fill="#FFFFFF" opacity="0.747" /><rect x="1455" y="827" width="82" height="2" fill="#FFFFFF" opacity="0.407" /><rect x="1495" y="787" width="2" height="82" fill="#FFFFFF" opacity="0.407" /><rect x="578" y="718" width="36" height="2" fill="#FFFFFF" opacity="0.423" /><rect x="595" y="701" width="2" height="36" fill="#FFFFFF" opacity="0.423" /><rect x="724" y="1183" width="84" height="2" fill="#FFFFFF" opacity="0.647" /><rect x="765" y="1142" width="2" height="84" fill="#FFFFFF" opacity="0.647" /><rect x="2555" y="970" width="28" height="2" fill="#FFFFFF" opacity="0.797" /><rect x="2568" y="957" width="2" height="28" fill="#FFFFFF" opacity="0.797" /><rect x="1038" y="2663" width="26" height="2" fill="#FFFFFF" opacity="0.564" /><rect x="1050" y="2651" width="2" height="26" fill="#FFFFFF" opacity="0.564" /><rect x="1281" y="1073" width="46" height="2" fill="#FFFFFF" opacity="0.717" /><rect x="1303" y="1051" width="2" height="46" fill="#FFFFFF" opacity="0.717" /><rect x="791" y="2307" width="62" height="2" fill="#FFFFFF" opacity="0.836" /><rect x="821" y="2277" width="2" height="62" fill="#FFFFFF" opacity="0.836" /><rect x="1671" y="965" width="32" height="2" fill="#FFFFFF" opacity="0.448" /><rect x="1686" y="950" width="2" height="32" fill="#FFFFFF" opacity="0.448" /><rect x="298" y="2268" width="64" height="2" fill="#FFFFFF" opacity="0.599" /><rect x="329" y="2237" width="2" height="64" fill="#FFFFFF" opacity="0.599" /><rect x="1492" y="2699" width="78" height="2" fill="#FFFFFF" opacity="0.807" /><rect x="1530" y="2661" width="2" height="78" fill="#FFFFFF" opacity="0.807" /><rect x="597" y="2122" width="62" height="2" fill="#FFFFFF" opacity="0.791" /><rect x="627" y="2092" width="2" height="62" fill="#FFFFFF" opacity="0.791" /><rect x="1983" y="2515" width="54" height="2" fill="#FFFFFF" opacity="0.553" /><rect x="2009" y="2489" width="2" height="54" fill="#FFFFFF" opacity="0.553" /><rect x="1474" y="2041" width="28" height="2" fill="#FFFFFF" opacity="0.796" /><rect x="1487" y="2028" width="2" height="28" fill="#FFFFFF" opacity="0.796" /><rect x="1850" y="1334" width="56" height="2" fill="#FFFFFF" opacity="0.811" /><rect x="1877" y="1307" width="2" height="56" fill="#FFFFFF" opacity="0.811" /><rect x="720" y="1716" width="32" height="2" fill="#FFFFFF" opacity="0.493" /><rect x="735" y="1701" width="2" height="32" fill="#FFFFFF" opacity="0.493" /><rect x="640" y="927" width="50" height="2" fill="#FFFFFF" opacity="0.607" /><rect x="664" y="903" width="2" height="50" fill="#FFFFFF" opacity="0.607" /><rect x="2531" y="2585" width="72" height="2" fill="#FFFFFF" opacity="0.534" /><rect x="2566" y="2550" width="2" height="72" fill="#FFFFFF" opacity="0.534" /><rect x="732" y="871" width="64" height="2" fill="#FFFFFF" opacity="0.536" /><rect x="763" y="840" width="2" height="64" fill="#FFFFFF" opacity="0.536" /><rect x="2042" y="772" width="64" height="2" fill="#FFFFFF" opacity="0.342" /><rect x="2073" y="741" width="2" height="64" fill="#FFFFFF" opacity="0.342" /><rect x="842" y="1325" width="44" height="2" fill="#FFFFFF" opacity="0.841" /><rect x="863" y="1304" width="2" height="44" fill="#FFFFFF" opacity="0.841" /><rect x="1409" y="969" width="54" height="2" fill="#FFFFFF" opacity="0.385" /><rect x="1435" y="943" width="2" height="54" fill="#FFFFFF" opacity="0.385" /></g>
  <g opacity="0.52"><rect x="1060" y="1070" width="1024" height="1024" rx="153" fill="none" stroke="#0C2030" stroke-width="90" /><line x1="1316" y1="1326" x2="1828" y2="1838" stroke="#0C2030" stroke-width="90" stroke-linecap="round" /><line x1="1828" y1="1326" x2="1316" y2="1838" stroke="#0C2030" stroke-width="90" stroke-linecap="round" /></g>
  <g filter="url(#soft225)"><rect x="1024" y="1024" width="1024" height="1024" rx="153" fill="none" stroke="url(#symbol225)" stroke-width="90" /><line x1="1280" y1="1280" x2="1792" y2="1792" stroke="url(#symbol225)" stroke-width="90" stroke-linecap="round" /><line x1="1792" y1="1280" x2="1280" y2="1792" stroke="url(#symbol225)" stroke-width="90" stroke-linecap="round" /></g>
  <rect x="138" y="138" width="2796" height="2796" rx="629" fill="#FFFFFF" filter="url(#grain225)" opacity="0.18" />
</svg>
