<svg xmlns="http://www.w3.org/2000/svg" width="3072" height="3072" viewBox="0 0 3072 3072">
  <title>QuartzOS App Icon 126 - zen_camera_126</title>
  <defs><linearGradient id="bg125" x1="0%" y1="0%" x2="100%" y2="100%"><stop offset="0%" stop-color="#53E3A6" /><stop offset="26%" stop-color="#3B82FF" /><stop offset="56%" stop-color="#FF6AB3" /><stop offset="78%" stop-color="#B37A46" /><stop offset="100%" stop-color="#27201B" /></linearGradient><radialGradient id="sun125" cx="29%" cy="38%" r="88%"><stop offset="0%" stop-color="#FFFFFF" stop-opacity="0.62" /><stop offset="30%" stop-color="#FF9F43" stop-opacity="0.35" /><stop offset="100%" stop-color="#FF9F43" stop-opacity="0" /></radialGradient><linearGradient id="glass125" x1="0%" y1="0%" x2="0%" y2="100%"><stop offset="0%" stop-color="#FFFFFF" stop-opacity="0.70" /><stop offset="46%" stop-color="#FFFFFF" stop-opacity="0.26" /><stop offset="100%" stop-color="#FFFFFF" stop-opacity="0.00" /></linearGradient><linearGradient id="ribbon125" x1="0%" y1="0%" x2="100%" y2="0%"><stop offset="0%" stop-color="#53E3A6" stop-opacity="0.18" /><stop offset="34%" stop-color="#3B82FF" stop-opacity="0.72" /><stop offset="66%" stop-color="#FF6AB3" stop-opacity="0.72" /><stop offset="100%" stop-color="#FF9F43" stop-opacity="0.18" /></linearGradient><radialGradient id="orb125" cx="34%" cy="27%" r="74%"><stop offset="0%" stop-color="#FFFFFF" stop-opacity="0.84" /><stop offset="30%" stop-color="#53E3A6" stop-opacity="0.52" /><stop offset="68%" stop-color="#3B82FF" stop-opacity="0.42" /><stop offset="100%" stop-color="#FF6AB3" stop-opacity="0.20" /></radialGradient><linearGradient id="extrude125" x1="0%" y1="0%" x2="0%" y2="100%"><stop offset="0%" stop-color="#15283C" stop-opacity="0.45" /><stop offset="100%" stop-color="#08131D" stop-opacity="0.06" /></linearGradient><linearGradient id="symbol125" x1="0%" y1="0%" x2="100%" y2="100%"><stop offset="0%" stop-color="#FFFFFF" /><stop offset="100%" stop-color="#FF9F43" /></linearGradient><filter id="shadow125" x="-40%" y="-40%" width="180%" height="180%"><feDropShadow dx="0" dy="49" stdDeviation="86" flood-color="#06111A" flood-opacity="0.54" /></filter><filter id="soft125" x="-40%" y="-40%" width="180%" height="180%"><feDropShadow dx="0" dy="0" stdDeviation="14" flood-color="#53E3A6" flood-opacity="0.45" /></filter><filter id="grain125"><feTurbulence type="fractalNoise" baseFrequency="0.979" numOctaves="2" seed="125" /><feColorMatrix type="saturate" values="0" /><feComponentTransfer><feFuncA type="table" tableValues="0 0.09" /></feComponentTransfer></filter></defs>
  <rect x="138" y="138" width="2796" height="2796" rx="629" fill="url(#bg125)" filter="url(#shadow125)" />
  <rect x="138" y="138" width="2796" height="2796" rx="629" fill="url(#sun125)" />
  <g><circle cx="2200" cy="703" r="75" fill="#FFFFFF" opacity="0.119" /><circle cx="1197" cy="1441" r="81" fill="#FFFFFF" opacity="0.072" /><circle cx="2036" cy="966" r="93" fill="#FFFFFF" opacity="0.139" /><circle cx="1924" cy="1863" r="56" fill="#FFFFFF" opacity="0.084" /><circle cx="2151" cy="787" r="37" fill="#FFFFFF" opacity="0.071" /><circle cx="1769" cy="1614" r="59" fill="#FFFFFF" opacity="0.165" /><circle cx="2137" cy="2452" r="146" fill="#FFFFFF" opacity="0.191" /><circle cx="1247" cy="598" r="112" fill="#FFFFFF" opacity="0.142" /><circle cx="1614" cy="2585" r="89" fill="#FFFFFF" opacity="0.094" /><circle cx="2466" cy="718" r="46" fill="#FFFFFF" opacity="0.092" /><circle cx="1205" cy="316" r="112" fill="#FFFFFF" opacity="0.132" /><circle cx="1706" cy="336" r="108" fill="#FFFFFF" opacity="0.076" /><circle cx="1901" cy="807" r="69" fill="#FFFFFF" opacity="0.074" /><circle cx="1408" cy="873" r="77" fill="#FFFFFF" opacity="0.155" /><circle cx="485" cy="2150" r="153" fill="#FFFFFF" opacity="0.203" /><circle cx="1879" cy="1569" r="70" fill="#FFFFFF" opacity="0.139" /><circle cx="2035" cy="1588" r="123" fill="#FFFFFF" opacity="0.179" /><circle cx="734" cy="1583" r="101" fill="#FFFFFF" opacity="0.174" /><circle cx="464" cy="1884" r="113" fill="#FFFFFF" opacity="0.162" /><circle cx="2400" cy="2246" r="107" fill="#FFFFFF" opacity="0.150" /><circle cx="1818" cy="1066" r="61" fill="#FFFFFF" opacity="0.237" /><circle cx="2672" cy="2275" r="76" fill="#FFFFFF" opacity="0.127" /><circle cx="1608" cy="1497" r="101" fill="#FFFFFF" opacity="0.114" /><circle cx="2016" cy="320" r="147" fill="#FFFFFF" opacity="0.136" /><circle cx="2560" cy="2310" r="71" fill="#FFFFFF" opacity="0.199" /><circle cx="922" cy="2459" r="78" fill="#FFFFFF" opacity="0.076" /><circle cx="415" cy="1588" r="103" fill="#FFFFFF" opacity="0.062" /><circle cx="655" cy="1084" r="159" fill="#FFFFFF" opacity="0.080" /></g>
  <g><path d="M 227.2 585.4 L 2778.0 309.0 L 2778.0 727.2 L 227.2 1003.7 Z" fill="#FFFFFF" opacity="0.219" /><path d="M 365.2 889.4 L 2706.3 612.9 L 2706.3 1080.5 L 365.2 1357.0 Z" fill="#FFFFFF" opacity="0.161" /><path d="M 333.8 1126.2 L 2902.1 849.8 L 2902.1 1275.5 L 333.8 1552.0 Z" fill="#FFFFFF" opacity="0.196" /><path d="M 184.2 1419.3 L 2688.4 1142.8 L 2688.4 1618.3 L 184.2 1894.8 Z" fill="#FFFFFF" opacity="0.153" /><path d="M 178.1 1689.0 L 2888.5 1412.5 L 2888.5 1858.3 L 178.1 2134.8 Z" fill="#FFFFFF" opacity="0.141" /><path d="M 239.3 1938.1 L 2724.6 1661.6 L 2724.6 2157.2 L 239.3 2433.7 Z" fill="#FFFFFF" opacity="0.217" /><path d="M 227.5 2220.1 L 2729.8 1943.6 L 2729.8 2385.5 L 227.5 2662.0 Z" fill="#FFFFFF" opacity="0.229" /><path d="M 227.0 2420.5 L 2824.0 2144.0 L 2824.0 2598.5 L 227.0 2875.0 Z" fill="#FFFFFF" opacity="0.217" /></g>
  <g filter="url(#soft125)"><g transform="rotate(-12.45 1536.0 1536.0)"><path d="M-368.6 583.1 C -225.8 619.6, -25.8 532.9, 107.5 617.2 C 250.4 613.5, 450.4 567.7, 583.7 575.6 C 726.5 576.6, 926.5 589.6, 1059.8 538.6 C 1202.7 535.4, 1402.7 598.8, 1536.0 528.6 C 1678.8 528.0, 1878.8 608.8, 2012.2 551.7 C 2155.0 549.5, 2355.0 595.6, 2488.3 593.9 C 2631.2 592.7, 2831.2 579.5, 2964.5 629.5 C 3107.3 647.0, 3307.3 566.3, 3440.6 637.0" fill="none" stroke="url(#ribbon125)" stroke-width="58.4" stroke-linecap="round" stroke-opacity="0.120" /></g><g transform="rotate(-11.87 1536.0 1536.0)"><path d="M-368.6 769.9 C -241.7 828.0, -63.9 726.9, 54.6 831.6 C 181.6 816.2, 359.4 703.2, 477.9 806.5 C 604.8 808.7, 782.6 749.5, 901.1 759.1 C 1028.1 756.8, 1205.9 774.6, 1324.4 718.4 C 1451.3 738.2, 1629.1 793.8, 1747.6 708.9 C 1874.6 691.1, 2052.4 814.2, 2170.9 736.4 C 2297.9 725.0, 2475.6 805.5, 2594.1 784.3 C 2721.1 784.9, 2898.9 758.6, 3017.4 823.5 C 3144.4 818.2, 3322.1 712.4, 3440.6 830.2" fill="none" stroke="url(#ribbon125)" stroke-width="54.4" stroke-linecap="round" stroke-opacity="0.146" /></g><g transform="rotate(-11.29 1536.0 1536.0)"><path d="M-368.6 951.3 C -254.4 933.2, -94.4 974.8, 12.3 981.6 C 126.6 985.4, 286.6 937.7, 393.2 1017.2 C 507.5 1000.2, 667.5 881.1, 774.1 1012.8 C 888.4 997.6, 1048.4 891.7, 1155.1 971.1 C 1269.4 978.3, 1429.3 935.8, 1536.0 917.4 C 1650.3 916.9, 1810.3 974.8, 1916.9 884.2 C 2031.2 898.1, 2191.2 1008.0, 2297.9 891.7 C 2412.1 898.0, 2572.1 1005.7, 2678.8 935.4 C 2793.1 932.2, 2953.1 962.3, 3059.7 988.7 C 3174.0 986.2, 3334.0 915.5, 3440.6 1019.3" fill="none" stroke="url(#ribbon125)" stroke-width="50.4" stroke-linecap="round" stroke-opacity="0.172" /></g><g transform="rotate(-10.71 1536.0 1536.0)"><path d="M-368.6 1143.9 C -264.8 1095.7, -119.3 1166.9, -22.3 1154.9 C 81.5 1150.7, 227.0 1133.1, 324.0 1205.9 C 427.8 1223.6, 573.3 1121.0, 670.3 1219.3 C 774.1 1232.4, 919.6 1078.5, 1016.6 1186.9 C 1120.4 1186.8, 1265.9 1129.0, 1362.9 1128.5 C 1466.7 1124.0, 1612.2 1159.6, 1709.1 1079.4 C 1813.0 1080.6, 1958.5 1173.7, 2055.4 1069.5 C 2159.3 1081.8, 2304.8 1201.0, 2401.7 1104.7 C 2505.6 1118.1, 2651.1 1157.6, 2748.0 1163.7 C 2851.9 1155.8, 2997.4 1126.7, 3094.3 1210.7 C 3198.2 1213.0, 3343.7 1080.4, 3440.6 1217.2" fill="none" stroke="url(#ribbon125)" stroke-width="46.4" stroke-linecap="round" stroke-opacity="0.198" /></g><g transform="rotate(-10.13 1536.0 1536.0)"><path d="M-368.6 1329.9 C -273.4 1320.1, -140.1 1339.6, -51.2 1261.7 C 44.0 1251.7, 177.4 1398.4, 266.2 1247.8 C 361.5 1280.6, 494.8 1356.1, 583.7 1283.8 C 678.9 1285.7, 812.2 1350.0, 901.1 1347.8 C 996.4 1346.8, 1129.7 1315.9, 1218.6 1400.9 C 1313.8 1416.3, 1447.1 1270.8, 1536.0 1411.0 C 1631.2 1383.6, 1764.6 1236.2, 1853.4 1371.9 C 1948.7 1388.7, 2082.0 1297.9, 2170.9 1307.4 C 2266.1 1312.9, 2399.4 1340.6, 2488.3 1256.5 C 2583.6 1237.6, 2716.9 1386.6, 2805.8 1250.2 C 2901.0 1252.6, 3034.3 1370.2, 3123.2 1292.2 C 3218.4 1281.4, 3351.8 1350.2, 3440.6 1357.2" fill="none" stroke="url(#ribbon125)" stroke-width="42.4" stroke-linecap="round" stroke-opacity="0.224" /></g><g transform="rotate(-9.55 1536.0 1536.0)"><path d="M-368.6 1473.1 C -225.8 1523.1, -25.8 1444.0, 107.5 1470.2 C 250.4 1471.3, 450.4 1476.5, 583.7 1406.1 C 726.5 1396.9, 926.5 1509.9, 1059.8 1382.7 C 1202.7 1374.5, 1402.7 1537.3, 1536.0 1414.0 C 1678.8 1413.9, 1878.8 1501.0, 2012.2 1481.3 C 2155.0 1479.3, 2355.0 1466.5, 2488.3 1543.5 C 2631.2 1559.9, 2831.2 1439.8, 2964.5 1563.1 C 3107.3 1543.0, 3307.3 1445.2, 3440.6 1528.1" fill="none" stroke="url(#ribbon125)" stroke-width="38.4" stroke-linecap="round" stroke-opacity="0.250" /></g><g transform="rotate(-8.97 1536.0 1536.0)"><path d="M-368.6 1676.1 C -241.7 1603.3, -63.9 1747.5, 54.6 1684.7 C 181.6 1687.0, 359.4 1667.7, 477.9 1751.9 C 604.8 1749.6, 782.6 1588.2, 901.1 1773.1 C 1028.1 1779.3, 1205.9 1577.7, 1324.4 1735.4 C 1451.3 1758.6, 1629.1 1610.8, 1747.6 1661.8 C 1874.6 1664.0, 2052.4 1692.4, 2170.9 1596.8 C 2297.9 1592.5, 2475.6 1766.8, 2594.1 1579.9 C 2721.1 1574.9, 2898.9 1786.4, 3017.4 1621.3 C 3144.4 1624.7, 3322.1 1701.9, 3440.6 1696.0" fill="none" stroke="url(#ribbon125)" stroke-width="34.4" stroke-linecap="round" stroke-opacity="0.276" /></g><g transform="rotate(-8.39 1536.0 1536.0)"><path d="M-368.6 1854.6 C -254.4 1829.3, -94.4 1866.6, 12.3 1903.8 C 126.6 1908.1, 286.6 1796.2, 393.2 1955.3 C 507.5 1962.2, 667.5 1781.7, 774.1 1945.7 C 888.4 1931.4, 1048.4 1747.3, 1155.1 1880.9 C 1269.4 1885.6, 1429.3 1846.3, 1536.0 1800.2 C 1650.3 1819.8, 1810.3 1877.7, 1916.9 1752.5 C 2031.2 1751.9, 2191.2 1956.7, 2297.9 1766.8 C 2412.1 1741.8, 2572.1 1942.6, 2678.8 1834.4 C 2793.1 1834.8, 2953.1 1865.2, 3059.7 1914.3 C 3174.0 1934.2, 3334.0 1788.5, 3440.6 1958.0" fill="none" stroke="url(#ribbon125)" stroke-width="30.4" stroke-linecap="round" stroke-opacity="0.302" /></g><g transform="rotate(-7.81 1536.0 1536.0)"><path d="M-368.6 2048.2 C -264.8 2158.9, -119.3 2008.8, -22.3 2089.1 C 81.5 2083.5, 227.0 2006.8, 324.0 2002.1 C 427.8 1997.4, 573.3 2088.5, 670.3 1943.0 C 774.1 1944.0, 919.6 2128.8, 1016.6 1947.8 C 1120.4 1979.8, 1265.9 2154.2, 1362.9 2013.5 C 1466.7 2018.9, 1612.2 2064.6, 1709.1 2100.3 C 1813.0 2107.0, 1958.5 1988.8, 2055.4 2155.5 C 2159.3 2165.9, 2304.8 1973.4, 2401.7 2145.6 C 2505.6 2180.4, 2651.1 2005.0, 2748.0 2076.7 C 2851.9 2086.0, 2997.4 2019.6, 3094.3 1990.5 C 3198.2 1995.7, 3343.7 2106.5, 3440.6 1939.3" fill="none" stroke="url(#ribbon125)" stroke-width="26.4" stroke-linecap="round" stroke-opacity="0.328" /></g><g transform="rotate(-7.23 1536.0 1536.0)"><path d="M-368.6 2303.7 C -273.4 2344.7, -140.1 2285.5, -51.2 2246.5 C 44.0 2267.7, 177.4 2336.6, 266.2 2189.0 C 361.5 2154.0, 494.8 2399.0, 583.7 2201.2 C 678.9 2191.8, 812.2 2356.4, 901.1 2275.4 C 996.4 2282.7, 1129.7 2337.1, 1218.6 2366.8 C 1313.8 2363.4, 1447.1 2238.0, 1536.0 2419.9 C 1631.2 2452.3, 1764.6 2170.4, 1853.4 2402.5 C 1948.7 2397.0, 2082.0 2262.4, 2170.9 2325.1 C 2266.1 2323.9, 2399.4 2288.8, 2488.3 2234.7 C 2583.6 2223.8, 2716.9 2382.5, 2805.8 2186.1 C 2901.0 2178.4, 3034.3 2366.7, 3123.2 2208.9 C 3218.4 2196.8, 3351.8 2395.5, 3440.6 2289.1" fill="none" stroke="url(#ribbon125)" stroke-width="22.4" stroke-linecap="round" stroke-opacity="0.354" /></g><g transform="rotate(-6.65 1536.0 1536.0)"><path d="M-368.6 2419.9 C -225.8 2516.0, -25.8 2374.5, 107.5 2544.5 C 250.4 2495.6, 450.4 2355.2, 583.7 2519.8 C 726.5 2500.3, 926.5 2307.6, 1059.8 2434.5 C 1202.7 2429.7, 1402.7 2402.4, 1536.0 2340.3 C 1678.8 2333.5, 1878.8 2494.0, 2012.2 2294.4 C 2155.0 2266.5, 2355.0 2465.1, 2488.3 2324.6 C 2631.2 2292.4, 2831.2 2531.9, 2964.5 2412.6 C 3107.3 2415.2, 3307.3 2425.9, 3440.6 2505.0" fill="none" stroke="url(#ribbon125)" stroke-width="18.4" stroke-linecap="round" stroke-opacity="0.380" /></g><g transform="rotate(-6.07 1536.0 1536.0)"><path d="M-368.6 2688.1 C -241.7 2564.0, -63.9 2785.0, 54.6 2589.4 C 181.6 2563.2, 359.4 2744.5, 477.9 2683.4 C 604.8 2682.5, 782.6 2691.5, 901.1 2780.2 C 1028.1 2812.4, 1205.9 2594.2, 1324.4 2821.1 C 1451.3 2828.1, 1629.1 2570.9, 1747.6 2781.4 C 1874.6 2814.3, 2052.4 2641.0, 2170.9 2685.1 C 2297.9 2686.2, 2475.6 2691.3, 2594.1 2590.6 C 2721.1 2560.9, 2898.9 2769.8, 3017.4 2555.3 C 3144.4 2583.3, 3322.1 2830.0, 3440.6 2600.5" fill="none" stroke="url(#ribbon125)" stroke-width="14.4" stroke-linecap="round" stroke-opacity="0.406" /></g></g>
  <g><ellipse cx="1536.0" cy="1551.9" rx="728.6" ry="605.7" fill="url(#extrude125)" opacity="0.220" /><ellipse cx="1536.0" cy="1567.7" rx="736.0" ry="610.9" fill="url(#extrude125)" opacity="0.205" /><ellipse cx="1536.0" cy="1583.6" rx="743.4" ry="616.1" fill="url(#extrude125)" opacity="0.190" /><ellipse cx="1536.0" cy="1599.5" rx="750.9" ry="621.3" fill="url(#extrude125)" opacity="0.175" /><ellipse cx="1536.0" cy="1615.4" rx="758.3" ry="626.5" fill="url(#extrude125)" opacity="0.160" /><ellipse cx="1536.0" cy="1631.2" rx="765.7" ry="631.7" fill="url(#extrude125)" opacity="0.145" /><ellipse cx="1536.0" cy="1647.1" rx="773.2" ry="636.9" fill="url(#extrude125)" opacity="0.130" /><ellipse cx="1536.0" cy="1663.0" rx="780.6" ry="642.1" fill="url(#extrude125)" opacity="0.115" /><ellipse cx="1536.0" cy="1678.8" rx="788.0" ry="647.4" fill="url(#extrude125)" opacity="0.100" /><ellipse cx="1536.0" cy="1694.7" rx="795.5" ry="652.6" fill="url(#extrude125)" opacity="0.085" /><ellipse cx="1536.0" cy="1710.6" rx="802.9" ry="657.8" fill="url(#extrude125)" opacity="0.070" /><ellipse cx="1536.0" cy="1726.5" rx="810.3" ry="663.0" fill="url(#extrude125)" opacity="0.055" /></g>
  <ellipse cx="1536.0" cy="1726.5" rx="773.2" ry="214.9" fill="#0B1D2D" opacity="0.24" />
  <ellipse cx="1536.0" cy="1536.0" rx="743.4" ry="651.3" fill="url(#orb125)" stroke="#FFFFFF" stroke-opacity="0.42" stroke-width="7" />
  <ellipse cx="1431.9" cy="1392.7" rx="505.5" ry="299.6" fill="#FFFFFF" opacity="0.25" />
  <path d="M 199.4 399.4 C 1013.8 -30.7, 2058.2 768.0, 2872.6 215.0 L 2872.6 983.0 C 2089.0 1228.8, 1013.8 307.2, 199.4 1167.4 Z" fill="url(#glass125)" />
  <rect x="270" y="270" width="2532" height="2532" rx="430" fill="none" stroke="#FFFFFF" stroke-opacity="0.30" stroke-width="5" />
  <rect x="288.4" y="288.4" width="2495.1" height="2495.1" rx="399" fill="none" stroke="#53E3A6" stroke-opacity="0.35" stroke-width="3" />
  <g filter="url(#soft125)"><rect x="2388" y="808" width="64" height="2" fill="#FFFFFF" opacity="0.344" /><rect x="2419" y="777" width="2" height="64" fill="#FFFFFF" opacity="0.344" /><rect x="986" y="1071" width="34" height="2" fill="#FFFFFF" opacity="0.841" /><rect x="1002" y="1055" width="2" height="34" fill="#FFFFFF" opacity="0.841" /><rect x="729" y="1273" width="66" height="2" fill="#FFFFFF" opacity="0.595" /><rect x="761" y="1241" width="2" height="66" fill="#FFFFFF" opacity="0.595" /><rect x="1550" y="459" width="42" height="2" fill="#FFFFFF" opacity="0.756" /><rect x="1570" y="439" width="2" height="42" fill="#FFFFFF" opacity="0.756" /><rect x="1966" y="1188" width="50" height="2" fill="#FFFFFF" opacity="0.721" /><rect x="1990" y="1164" width="2" height="50" fill="#FFFFFF" opacity="0.721" /><rect x="768" y="1729" width="28" height="2" fill="#FFFFFF" opacity="0.419" /><rect x="781" y="1716" width="2" height="28" fill="#FFFFFF" opacity="0.419" /><rect x="1780" y="1061" width="84" height="2" fill="#FFFFFF" opacity="0.410" /><rect x="1821" y="1020" width="2" height="84" fill="#FFFFFF" opacity="0.410" /><rect x="1049" y="818" width="32" height="2" fill="#FFFFFF" opacity="0.809" /><rect x="1064" y="803" width="2" height="32" fill="#FFFFFF" opacity="0.809" /><rect x="2782" y="1535" width="30" height="2" fill="#FFFFFF" opacity="0.715" /><rect x="2796" y="1521" width="2" height="30" fill="#FFFFFF" opacity="0.715" /><rect x="2228" y="1273" width="80" height="2" fill="#FFFFFF" opacity="0.545" /><rect x="2267" y="1234" width="2" height="80" fill="#FFFFFF" opacity="0.545" /><rect x="842" y="271" width="34" height="2" fill="#FFFFFF" opacity="0.424" /><rect x="858" y="255" width="2" height="34" fill="#FFFFFF" opacity="0.424" /><rect x="2155" y="815" width="34" height="2" fill="#FFFFFF" opacity="0.591" /><rect x="2171" y="799" width="2" height="34" fill="#FFFFFF" opacity="0.591" /><rect x="1057" y="2198" width="24" height="2" fill="#FFFFFF" opacity="0.576" /><rect x="1068" y="2187" width="2" height="24" fill="#FFFFFF" opacity="0.576" /><rect x="910" y="1359" width="74" height="2" fill="#FFFFFF" opacity="0.605" /><rect x="946" y="1323" width="2" height="74" fill="#FFFFFF" opacity="0.605" /><rect x="1972" y="339" width="26" height="2" fill="#FFFFFF" opacity="0.627" /><rect x="1984" y="327" width="2" height="26" fill="#FFFFFF" opacity="0.627" /><rect x="1949" y="2191" width="62" height="2" fill="#FFFFFF" opacity="0.695" /><rect x="1979" y="2161" width="2" height="62" fill="#FFFFFF" opacity="0.695" /><rect x="1588" y="2751" width="32" height="2" fill="#FFFFFF" opacity="0.560" /><rect x="1603" y="2736" width="2" height="32" fill="#FFFFFF" opacity="0.560" /><rect x="1518" y="1489" width="32" height="2" fill="#FFFFFF" opacity="0.308" /><rect x="1533" y="1474" width="2" height="32" fill="#FFFFFF" opacity="0.308" /><rect x="2173" y="2323" width="82" height="2" fill="#FFFFFF" opacity="0.692" /><rect x="2213" y="2283" width="2" height="82" fill="#FFFFFF" opacity="0.692" /><rect x="2453" y="1149" width="60" height="2" fill="#FFFFFF" opacity="0.334" /><rect x="2482" y="1120" width="2" height="60" fill="#FFFFFF" opacity="0.334" /><rect x="1501" y="261" width="82" height="2" fill="#FFFFFF" opacity="0.829" /><rect x="1541" y="221" width="2" height="82" fill="#FFFFFF" opacity="0.829" /><rect x="1728" y="2321" width="72" height="2" fill="#FFFFFF" opacity="0.686" /><rect x="1763" y="2286" width="2" height="72" fill="#FFFFFF" opacity="0.686" /><rect x="396" y="2646" width="70" height="2" fill="#FFFFFF" opacity="0.418" /><rect x="430" y="2612" width="2" height="70" fill="#FFFFFF" opacity="0.418" /><rect x="1896" y="1737" width="38" height="2" fill="#FFFFFF" opacity="0.544" /><rect x="1914" y="1719" width="2" height="38" fill="#FFFFFF" opacity="0.544" /><rect x="1837" y="2671" width="56" height="2" fill="#FFFFFF" opacity="0.793" /><rect x="1864" y="2644" width="2" height="56" fill="#FFFFFF" opacity="0.793" /><rect x="1342" y="1415" width="34" height="2" fill="#FFFFFF" opacity="0.688" /><rect x="1358" y="1399" width="2" height="34" fill="#FFFFFF" opacity="0.688" /></g>
  <g opacity="0.52"><rect x="1023" y="1121" width="1152" height="1024" rx="153" fill="none" stroke="#0C2030" stroke-width="90" /><line x1="1023" y1="1326" x2="2148" y2="1326" stroke="#0C2030" stroke-width="90" /><line x1="1316" y1="1033" x2="1316" y2="1121" stroke="#0C2030" stroke-width="90" /><line x1="1828" y1="1033" x2="1828" y2="1121" stroke="#0C2030" stroke-width="90" /></g>
  <g filter="url(#soft125)"><rect x="987" y="1075" width="1152" height="1024" rx="153" fill="none" stroke="url(#symbol125)" stroke-width="90" /><line x1="987" y1="1280" x2="2112" y2="1280" stroke="url(#symbol125)" stroke-width="90" /><line x1="1280" y1="987" x2="1280" y2="1075" stroke="url(#symbol125)" stroke-width="90" /><line x1="1792" y1="987" x2="1792" y2="1075" stroke="url(#symbol125)" stroke-width="90" /></g>
  <rect x="138" y="138" width="2796" height="2796" rx="629" fill="#FFFFFF" filter="url(#grain125)" opacity="0.18" />
</svg>
