<svg xmlns="http://www.w3.org/2000/svg" width="3072" height="3072" viewBox="0 0 3072 3072">
  <title>QuartzOS App Icon 326 - zen_builder_326</title>
  <defs><linearGradient id="bg325" x1="0%" y1="0%" x2="100%" y2="100%"><stop offset="0%" stop-color="#FF6AB3" /><stop offset="26%" stop-color="#FFD84D" /><stop offset="56%" stop-color="#36D1FF" /><stop offset="78%" stop-color="#2E8D96" /><stop offset="100%" stop-color="#0F2A2E" /></linearGradient><radialGradient id="sun325" cx="26%" cy="34%" r="88%"><stop offset="0%" stop-color="#FFFFFF" stop-opacity="0.62" /><stop offset="30%" stop-color="#3B82FF" stop-opacity="0.35" /><stop offset="100%" stop-color="#3B82FF" stop-opacity="0" /></radialGradient><linearGradient id="glass325" x1="0%" y1="0%" x2="0%" y2="100%"><stop offset="0%" stop-color="#FFFFFF" stop-opacity="0.70" /><stop offset="46%" stop-color="#FFFFFF" stop-opacity="0.26" /><stop offset="100%" stop-color="#FFFFFF" stop-opacity="0.00" /></linearGradient><linearGradient id="ribbon325" x1="0%" y1="0%" x2="100%" y2="0%"><stop offset="0%" stop-color="#FF6AB3" stop-opacity="0.18" /><stop offset="34%" stop-color="#FFD84D" stop-opacity="0.72" /><stop offset="66%" stop-color="#36D1FF" stop-opacity="0.72" /><stop offset="100%" stop-color="#3B82FF" stop-opacity="0.18" /></linearGradient><radialGradient id="orb325" cx="34%" cy="27%" r="74%"><stop offset="0%" stop-color="#FFFFFF" stop-opacity="0.84" /><stop offset="30%" stop-color="#FF6AB3" stop-opacity="0.52" /><stop offset="68%" stop-color="#FFD84D" stop-opacity="0.42" /><stop offset="100%" stop-color="#36D1FF" stop-opacity="0.20" /></radialGradient><linearGradient id="extrude325" x1="0%" y1="0%" x2="0%" y2="100%"><stop offset="0%" stop-color="#15283C" stop-opacity="0.45" /><stop offset="100%" stop-color="#08131D" stop-opacity="0.06" /></linearGradient><linearGradient id="symbol325" x1="0%" y1="0%" x2="100%" y2="100%"><stop offset="0%" stop-color="#FFFFFF" /><stop offset="100%" stop-color="#3B82FF" /></linearGradient><filter id="shadow325" x="-40%" y="-40%" width="180%" height="180%"><feDropShadow dx="0" dy="49" stdDeviation="86" flood-color="#06111A" flood-opacity="0.54" /></filter><filter id="soft325" x="-40%" y="-40%" width="180%" height="180%"><feDropShadow dx="0" dy="0" stdDeviation="14" flood-color="#FF6AB3" flood-opacity="0.45" /></filter><filter id="grain325"><feTurbulence type="fractalNoise" baseFrequency="1.006" numOctaves="2" seed="325" /><feColorMatrix type="saturate" values="0" /><feComponentTransfer><feFuncA type="table" tableValues="0 0.09" /></feComponentTransfer></filter></defs>
  <rect x="138" y="138" width="2796" height="2796" rx="629" fill="url(#bg325)" filter="url(#shadow325)" />
  <rect x="138" y="138" width="2796" height="2796" rx="629" fill="url(#sun325)" />
  <g><circle cx="1259" cy="2397" r="131" fill="#FFFFFF" opacity="0.082" /><circle cx="659" cy="2057" r="144" fill="#FFFFFF" opacity="0.118" /><circle cx="2124" cy="2470" r="48" fill="#FFFFFF" opacity="0.200" /><circle cx="1412" cy="351" r="51" fill="#FFFFFF" opacity="0.135" /><circle cx="1320" cy="2663" r="91" fill="#FFFFFF" opacity="0.063" /><circle cx="970" cy="465" r="137" fill="#FFFFFF" opacity="0.189" /><circle cx="1168" cy="2522" r="89" fill="#FFFFFF" opacity="0.097" /><circle cx="1190" cy="1407" r="78" fill="#FFFFFF" opacity="0.236" /><circle cx="2665" cy="1830" r="39" fill="#FFFFFF" opacity="0.150" /><circle cx="1758" cy="1915" r="55" fill="#FFFFFF" opacity="0.107" /><circle cx="473" cy="828" r="133" fill="#FFFFFF" opacity="0.061" /><circle cx="797" cy="1358" r="131" fill="#FFFFFF" opacity="0.173" /><circle cx="1982" cy="597" r="152" fill="#FFFFFF" opacity="0.155" /><circle cx="873" cy="791" r="89" fill="#FFFFFF" opacity="0.136" /><circle cx="414" cy="1191" r="63" fill="#FFFFFF" opacity="0.218" /><circle cx="1720" cy="1759" r="113" fill="#FFFFFF" opacity="0.078" /><circle cx="2351" cy="2318" r="104" fill="#FFFFFF" opacity="0.189" /><circle cx="702" cy="464" r="93" fill="#FFFFFF" opacity="0.169" /><circle cx="2292" cy="1767" r="108" fill="#FFFFFF" opacity="0.237" /><circle cx="1007" cy="1246" r="132" fill="#FFFFFF" opacity="0.120" /><circle cx="2305" cy="1181" r="154" fill="#FFFFFF" opacity="0.219" /><circle cx="1893" cy="1463" r="53" fill="#FFFFFF" opacity="0.180" /><circle cx="2055" cy="2394" r="90" fill="#FFFFFF" opacity="0.141" /><circle cx="1336" cy="480" r="108" fill="#FFFFFF" opacity="0.065" /><circle cx="1229" cy="1520" r="138" fill="#FFFFFF" opacity="0.174" /><circle cx="1747" cy="1622" r="66" fill="#FFFFFF" opacity="0.155" /><circle cx="2703" cy="2357" r="131" fill="#FFFFFF" opacity="0.236" /><circle cx="2404" cy="2294" r="122" fill="#FFFFFF" opacity="0.094" /></g>
  <g><path d="M 238.3 649.3 L 2731.0 372.8 L 2731.0 861.4 L 238.3 1137.9 Z" fill="#FFFFFF" opacity="0.189" /><path d="M 206.1 857.1 L 2848.8 580.6 L 2848.8 1020.4 L 206.1 1296.8 Z" fill="#FFFFFF" opacity="0.095" /><path d="M 240.8 1170.0 L 2815.0 893.5 L 2815.0 1376.5 L 240.8 1653.0 Z" fill="#FFFFFF" opacity="0.219" /><path d="M 334.2 1417.8 L 2783.8 1141.3 L 2783.8 1584.7 L 334.2 1861.2 Z" fill="#FFFFFF" opacity="0.158" /><path d="M 336.6 1690.1 L 2712.0 1413.7 L 2712.0 1898.4 L 336.6 2174.9 Z" fill="#FFFFFF" opacity="0.210" /><path d="M 169.1 1966.0 L 2716.2 1689.5 L 2716.2 2164.2 L 169.1 2440.7 Z" fill="#FFFFFF" opacity="0.115" /><path d="M 384.2 2207.2 L 2856.3 1930.7 L 2856.3 2393.4 L 384.2 2669.8 Z" fill="#FFFFFF" opacity="0.141" /><path d="M 267.2 2463.1 L 2694.4 2186.6 L 2694.4 2623.1 L 267.2 2899.6 Z" fill="#FFFFFF" opacity="0.140" /></g>
  <g filter="url(#soft325)"><g transform="rotate(-7.37 1536.0 1536.0)"><path d="M-368.6 578.2 C -225.8 544.4, -25.8 607.6, 107.5 533.6 C 250.4 540.3, 450.4 625.3, 583.7 570.6 C 726.5 571.9, 926.5 580.9, 1059.8 612.2 C 1202.7 602.7, 1402.7 555.2, 1536.0 633.1 C 1678.8 651.8, 1878.8 518.7, 2012.2 620.7 C 2155.0 617.2, 2355.0 527.3, 2488.3 582.5 C 2631.2 584.2, 2831.2 573.6, 2964.5 541.6 C 3107.3 546.0, 3307.3 613.9, 3440.6 522.9" fill="none" stroke="url(#ribbon325)" stroke-width="58.4" stroke-linecap="round" stroke-opacity="0.120" /></g><g transform="rotate(-6.79 1536.0 1536.0)"><path d="M-368.6 721.3 C -241.7 760.6, -63.9 709.9, 54.6 783.3 C 181.6 788.0, 359.4 698.9, 477.9 769.6 C 604.8 755.1, 782.6 703.1, 901.1 726.7 C 1028.1 728.8, 1205.9 718.1, 1324.4 680.5 C 1451.3 690.5, 1629.1 763.6, 1747.6 659.1 C 1874.6 672.0, 2052.4 788.9, 2170.9 675.4 C 2297.9 669.8, 2475.6 763.9, 2594.1 719.6 C 2721.1 719.5, 2898.9 722.5, 3017.4 764.9 C 3144.4 766.7, 3322.1 686.2, 3440.6 783.7" fill="none" stroke="url(#ribbon325)" stroke-width="54.4" stroke-linecap="round" stroke-opacity="0.146" /></g><g transform="rotate(-6.21 1536.0 1536.0)"><path d="M-368.6 966.3 C -254.4 1004.9, -94.4 920.0, 12.3 1030.4 C 126.6 1054.5, 286.6 904.7, 393.2 991.9 C 507.5 983.9, 667.5 938.6, 774.1 937.8 C 888.4 947.4, 1048.4 998.9, 1155.1 901.0 C 1269.4 902.0, 1429.3 1010.0, 1536.0 903.8 C 1650.3 923.8, 1810.3 1037.8, 1916.9 944.5 C 2031.2 948.1, 2191.2 973.0, 2297.9 998.4 C 2412.1 989.2, 2572.1 943.3, 2678.8 1032.8 C 2793.1 1006.8, 2953.1 891.7, 3059.7 1026.9 C 3174.0 1033.7, 3334.0 915.5, 3440.6 984.2" fill="none" stroke="url(#ribbon325)" stroke-width="50.4" stroke-linecap="round" stroke-opacity="0.172" /></g><g transform="rotate(-5.63 1536.0 1536.0)"><path d="M-368.6 1057.8 C -264.8 1011.1, -119.3 1081.4, -22.3 1066.5 C 81.5 1067.5, 227.0 1048.1, 324.0 1118.4 C 427.8 1109.3, 573.3 1018.1, 670.3 1133.5 C 774.1 1105.8, 919.6 980.6, 1016.6 1102.8 C 1120.4 1090.1, 1265.9 1012.2, 1362.9 1044.7 C 1466.7 1049.2, 1612.2 1071.1, 1709.1 994.6 C 1813.0 1017.7, 1958.5 1109.3, 2055.4 982.9 C 2159.3 976.2, 2304.8 1081.1, 2401.7 1016.6 C 2505.6 1005.4, 2651.1 1084.0, 2748.0 1075.3 C 2851.9 1071.5, 2997.4 1049.9, 3094.3 1123.4 C 3198.2 1131.2, 3343.7 997.9, 3440.6 1131.7" fill="none" stroke="url(#ribbon325)" stroke-width="46.4" stroke-linecap="round" stroke-opacity="0.198" /></g><g transform="rotate(-5.05 1536.0 1536.0)"><path d="M-368.6 1295.4 C -273.4 1390.6, -140.1 1254.4, -51.2 1373.2 C 44.0 1400.7, 177.4 1244.7, 266.2 1327.8 C 361.5 1316.3, 494.8 1266.2, 583.7 1262.7 C 678.9 1266.9, 812.2 1321.7, 901.1 1217.4 C 996.4 1197.6, 1129.7 1386.9, 1218.6 1219.5 C 1313.8 1210.2, 1447.1 1382.9, 1536.0 1267.6 C 1631.2 1276.1, 1764.6 1309.9, 1853.4 1332.5 C 1948.7 1341.5, 2082.0 1283.7, 2170.9 1375.0 C 2266.1 1366.3, 2399.4 1240.1, 2488.3 1369.1 C 2583.6 1352.0, 2716.9 1230.5, 2805.8 1318.6 C 2901.0 1327.0, 3034.3 1276.0, 3123.2 1253.9 C 3218.4 1250.4, 3351.8 1340.6, 3440.6 1214.5" fill="none" stroke="url(#ribbon325)" stroke-width="42.4" stroke-linecap="round" stroke-opacity="0.224" /></g><g transform="rotate(-4.47 1536.0 1536.0)"><path d="M-368.6 1507.0 C -225.8 1411.5, -25.8 1575.0, 107.5 1422.0 C 250.4 1394.4, 450.4 1561.6, 583.7 1470.3 C 726.5 1465.5, 926.5 1537.2, 1059.8 1540.9 C 1202.7 1553.3, 1402.7 1476.0, 1536.0 1590.9 C 1678.8 1584.3, 1878.8 1481.3, 2012.2 1590.0 C 2155.0 1622.2, 2355.0 1477.4, 2488.3 1538.7 C 2631.2 1533.1, 2831.2 1493.6, 2964.5 1468.2 C 3107.3 1459.6, 3307.3 1540.7, 3440.6 1421.2" fill="none" stroke="url(#ribbon325)" stroke-width="38.4" stroke-linecap="round" stroke-opacity="0.250" /></g><g transform="rotate(-3.89 1536.0 1536.0)"><path d="M-368.6 1703.5 C -241.7 1594.8, -63.9 1766.4, 54.6 1688.0 C 181.6 1689.6, 359.4 1713.5, 477.9 1761.9 C 604.8 1751.4, 782.6 1661.0, 901.1 1800.3 C 1028.1 1763.7, 1205.9 1654.2, 1324.4 1780.0 C 1451.3 1804.8, 1629.1 1673.7, 1747.6 1713.2 C 1874.6 1715.8, 2052.4 1699.4, 2170.9 1640.5 C 2297.9 1640.7, 2475.6 1764.1, 2594.1 1606.0 C 2721.1 1622.8, 2898.9 1792.8, 3017.4 1630.6 C 3144.4 1631.5, 3322.1 1768.5, 3440.6 1699.4" fill="none" stroke="url(#ribbon325)" stroke-width="34.4" stroke-linecap="round" stroke-opacity="0.276" /></g><g transform="rotate(-3.31 1536.0 1536.0)"><path d="M-368.6 1921.2 C -254.4 1915.6, -94.4 1929.4, 12.3 1990.1 C 126.6 1997.8, 286.6 1888.2, 393.2 2025.8 C 507.5 2031.9, 667.5 1855.9, 774.1 1998.1 C 888.4 1994.2, 1048.4 1889.5, 1155.1 1923.7 C 1269.4 1923.5, 1429.3 1918.2, 1536.0 1847.8 C 1650.3 1822.5, 1810.3 1949.7, 1916.9 1816.4 C 2031.2 1806.6, 2191.2 1994.5, 2297.9 1848.6 C 2412.1 1831.2, 2572.1 1994.5, 2678.8 1924.8 C 2793.1 1925.3, 2953.1 1919.8, 3059.7 1998.8 C 3174.0 2024.3, 3334.0 1847.5, 3440.6 2025.7" fill="none" stroke="url(#ribbon325)" stroke-width="30.4" stroke-linecap="round" stroke-opacity="0.302" /></g><g transform="rotate(-2.73 1536.0 1536.0)"><path d="M-368.6 2068.7 C -264.8 2090.7, -119.3 2037.8, -22.3 2017.5 C 81.5 2035.2, 227.0 2118.9, 324.0 1961.7 C 427.8 1953.6, 573.3 2189.5, 670.3 1970.8 C 774.1 1940.7, 919.6 2161.1, 1016.6 2039.3 C 1120.4 2036.1, 1265.9 2100.5, 1362.9 2125.6 C 1466.7 2136.8, 1612.2 2038.4, 1709.1 2177.4 C 1813.0 2192.5, 1958.5 2000.7, 2055.4 2163.3 C 2159.3 2152.4, 2304.8 2021.7, 2401.7 2091.8 C 2505.6 2088.4, 2651.1 2056.7, 2748.0 2006.3 C 2851.9 2008.2, 2997.4 2095.7, 3094.3 1958.7 C 3198.2 1916.7, 3343.7 2165.4, 3440.6 1977.8" fill="none" stroke="url(#ribbon325)" stroke-width="26.4" stroke-linecap="round" stroke-opacity="0.328" /></g><g transform="rotate(-2.15 1536.0 1536.0)"><path d="M-368.6 2303.1 C -273.4 2177.1, -140.1 2416.6, -51.2 2196.3 C 44.0 2191.3, 177.4 2363.9, 266.2 2266.3 C 361.5 2280.8, 494.8 2321.9, 583.7 2358.5 C 678.9 2366.3, 812.2 2281.8, 901.1 2417.2 C 996.4 2457.6, 1129.7 2223.2, 1218.6 2406.6 C 1313.8 2418.7, 1447.1 2246.9, 1536.0 2333.2 C 1631.2 2334.2, 1764.6 2288.1, 1853.4 2241.6 C 1948.7 2241.6, 2082.0 2339.9, 2170.9 2187.3 C 2266.1 2227.5, 2399.4 2380.8, 2488.3 2203.2 C 2583.6 2180.2, 2716.9 2418.9, 2805.8 2279.7 C 2901.0 2283.8, 3034.3 2327.7, 3123.2 2370.4 C 3218.4 2357.7, 3351.8 2260.1, 3440.6 2420.3" fill="none" stroke="url(#ribbon325)" stroke-width="22.4" stroke-linecap="round" stroke-opacity="0.354" /></g><g transform="rotate(-1.57 1536.0 1536.0)"><path d="M-368.6 2450.6 C -225.8 2505.0, -25.8 2396.8, 107.5 2419.8 C 250.4 2417.7, 450.4 2484.3, 583.7 2341.5 C 726.5 2373.3, 926.5 2543.5, 1059.8 2329.5 C 1202.7 2375.2, 1402.7 2561.8, 1536.0 2390.9 C 1678.8 2368.4, 1878.8 2519.7, 2012.2 2488.6 C 2155.0 2480.4, 2355.0 2410.5, 2488.3 2563.2 C 2631.2 2594.5, 2831.2 2360.1, 2964.5 2569.6 C 3107.3 2557.3, 3307.3 2325.0, 3440.6 2503.8" fill="none" stroke="url(#ribbon325)" stroke-width="18.4" stroke-linecap="round" stroke-opacity="0.380" /></g><g transform="rotate(-0.99 1536.0 1536.0)"><path d="M-368.6 2610.7 C -241.7 2697.5, -63.9 2490.8, 54.6 2742.7 C 181.6 2754.4, 359.4 2468.0, 477.9 2690.6 C 604.8 2706.3, 782.6 2551.2, 901.1 2590.0 C 1028.1 2596.8, 1205.9 2623.0, 1324.4 2502.1 C 1451.3 2544.3, 1629.1 2734.1, 1747.6 2480.0 C 1874.6 2468.4, 2052.4 2726.0, 2170.9 2537.3 C 2297.9 2546.6, 2475.6 2682.3, 2594.1 2639.1 C 2721.1 2647.6, 2898.9 2601.4, 3017.4 2723.7 C 3144.4 2751.4, 3322.1 2510.4, 3440.6 2739.8" fill="none" stroke="url(#ribbon325)" stroke-width="14.4" stroke-linecap="round" stroke-opacity="0.406" /></g></g>
  <g><ellipse cx="1536.0" cy="1551.9" rx="728.6" ry="605.7" fill="url(#extrude325)" opacity="0.220" /><ellipse cx="1536.0" cy="1567.7" rx="736.0" ry="610.9" fill="url(#extrude325)" opacity="0.205" /><ellipse cx="1536.0" cy="1583.6" rx="743.4" ry="616.1" fill="url(#extrude325)" opacity="0.190" /><ellipse cx="1536.0" cy="1599.5" rx="750.9" ry="621.3" fill="url(#extrude325)" opacity="0.175" /><ellipse cx="1536.0" cy="1615.4" rx="758.3" ry="626.5" fill="url(#extrude325)" opacity="0.160" /><ellipse cx="1536.0" cy="1631.2" rx="765.7" ry="631.7" fill="url(#extrude325)" opacity="0.145" /><ellipse cx="1536.0" cy="1647.1" rx="773.2" ry="636.9" fill="url(#extrude325)" opacity="0.130" /><ellipse cx="1536.0" cy="1663.0" rx="780.6" ry="642.1" fill="url(#extrude325)" opacity="0.115" /><ellipse cx="1536.0" cy="1678.8" rx="788.0" ry="647.4" fill="url(#extrude325)" opacity="0.100" /><ellipse cx="1536.0" cy="1694.7" rx="795.5" ry="652.6" fill="url(#extrude325)" opacity="0.085" /><ellipse cx="1536.0" cy="1710.6" rx="802.9" ry="657.8" fill="url(#extrude325)" opacity="0.070" /><ellipse cx="1536.0" cy="1726.5" rx="810.3" ry="663.0" fill="url(#extrude325)" opacity="0.055" /></g>
  <ellipse cx="1536.0" cy="1726.5" rx="773.2" ry="214.9" fill="#0B1D2D" opacity="0.24" />
  <ellipse cx="1536.0" cy="1536.0" rx="743.4" ry="651.3" fill="url(#orb325)" stroke="#FFFFFF" stroke-opacity="0.42" stroke-width="7" />
  <ellipse cx="1431.9" cy="1392.7" rx="505.5" ry="299.6" fill="#FFFFFF" opacity="0.25" />
  <path d="M 199.4 399.4 C 1013.8 -30.7, 2058.2 768.0, 2872.6 215.0 L 2872.6 983.0 C 2089.0 1228.8, 1013.8 307.2, 199.4 1167.4 Z" fill="url(#glass325)" />
  <rect x="270" y="270" width="2532" height="2532" rx="430" fill="none" stroke="#FFFFFF" stroke-opacity="0.30" stroke-width="5" />
  <rect x="288.4" y="288.4" width="2495.1" height="2495.1" rx="399" fill="none" stroke="#FF6AB3" stroke-opacity="0.35" stroke-width="3" />
  <g filter="url(#soft325)"><rect x="409" y="482" width="56" height="2" fill="#FFFFFF" opacity="0.547" /><rect x="436" y="455" width="2" height="56" fill="#FFFFFF" opacity="0.547" /><rect x="671" y="2051" width="40" height="2" fill="#FFFFFF" opacity="0.614" /><rect x="690" y="2032" width="2" height="40" fill="#FFFFFF" opacity="0.614" /><rect x="2221" y="1383" width="30" height="2" fill="#FFFFFF" opacity="0.460" /><rect x="2235" y="1369" width="2" height="30" fill="#FFFFFF" opacity="0.460" /><rect x="838" y="1674" width="40" height="2" fill="#FFFFFF" opacity="0.816" /><rect x="857" y="1655" width="2" height="40" fill="#FFFFFF" opacity="0.816" /><rect x="1257" y="896" width="72" height="2" fill="#FFFFFF" opacity="0.688" /><rect x="1292" y="861" width="2" height="72" fill="#FFFFFF" opacity="0.688" /><rect x="2087" y="2018" width="34" height="2" fill="#FFFFFF" opacity="0.785" /><rect x="2103" y="2002" width="2" height="34" fill="#FFFFFF" opacity="0.785" /><rect x="549" y="2572" width="58" height="2" fill="#FFFFFF" opacity="0.617" /><rect x="577" y="2544" width="2" height="58" fill="#FFFFFF" opacity="0.617" /><rect x="2523" y="1867" width="82" height="2" fill="#FFFFFF" opacity="0.449" /><rect x="2563" y="1827" width="2" height="82" fill="#FFFFFF" opacity="0.449" /><rect x="2635" y="1794" width="38" height="2" fill="#FFFFFF" opacity="0.724" /><rect x="2653" y="1776" width="2" height="38" fill="#FFFFFF" opacity="0.724" /><rect x="1478" y="488" width="58" height="2" fill="#FFFFFF" opacity="0.518" /><rect x="1506" y="460" width="2" height="58" fill="#FFFFFF" opacity="0.518" /><rect x="1736" y="1383" width="80" height="2" fill="#FFFFFF" opacity="0.560" /><rect x="1775" y="1344" width="2" height="80" fill="#FFFFFF" opacity="0.560" /><rect x="307" y="405" width="36" height="2" fill="#FFFFFF" opacity="0.556" /><rect x="324" y="388" width="2" height="36" fill="#FFFFFF" opacity="0.556" /><rect x="2550" y="288" width="72" height="2" fill="#FFFFFF" opacity="0.481" /><rect x="2585" y="253" width="2" height="72" fill="#FFFFFF" opacity="0.481" /><rect x="2380" y="896" width="76" height="2" fill="#FFFFFF" opacity="0.798" /><rect x="2417" y="859" width="2" height="76" fill="#FFFFFF" opacity="0.798" /><rect x="2419" y="698" width="64" height="2" fill="#FFFFFF" opacity="0.533" /><rect x="2450" y="667" width="2" height="64" fill="#FFFFFF" opacity="0.533" /><rect x="1871" y="2343" width="62" height="2" fill="#FFFFFF" opacity="0.567" /><rect x="1901" y="2313" width="2" height="62" fill="#FFFFFF" opacity="0.567" /><rect x="361" y="821" width="72" height="2" fill="#FFFFFF" opacity="0.323" /><rect x="396" y="786" width="2" height="72" fill="#FFFFFF" opacity="0.323" /><rect x="1427" y="1299" width="42" height="2" fill="#FFFFFF" opacity="0.438" /><rect x="1447" y="1279" width="2" height="42" fill="#FFFFFF" opacity="0.438" /><rect x="2399" y="1050" width="66" height="2" fill="#FFFFFF" opacity="0.445" /><rect x="2431" y="1018" width="2" height="66" fill="#FFFFFF" opacity="0.445" /><rect x="1288" y="1453" width="26" height="2" fill="#FFFFFF" opacity="0.444" /><rect x="1300" y="1441" width="2" height="26" fill="#FFFFFF" opacity="0.444" /><rect x="532" y="842" width="80" height="2" fill="#FFFFFF" opacity="0.499" /><rect x="571" y="803" width="2" height="80" fill="#FFFFFF" opacity="0.499" /><rect x="2279" y="2716" width="78" height="2" fill="#FFFFFF" opacity="0.385" /><rect x="2317" y="2678" width="2" height="78" fill="#FFFFFF" opacity="0.385" /><rect x="1122" y="1412" width="38" height="2" fill="#FFFFFF" opacity="0.312" /><rect x="1140" y="1394" width="2" height="38" fill="#FFFFFF" opacity="0.312" /><rect x="311" y="1162" width="64" height="2" fill="#FFFFFF" opacity="0.578" /><rect x="342" y="1131" width="2" height="64" fill="#FFFFFF" opacity="0.578" /><rect x="1575" y="1671" width="46" height="2" fill="#FFFFFF" opacity="0.494" /><rect x="1597" y="1649" width="2" height="46" fill="#FFFFFF" opacity="0.494" /><rect x="2129" y="2361" width="54" height="2" fill="#FFFFFF" opacity="0.310" /><rect x="2155" y="2335" width="2" height="54" fill="#FFFFFF" opacity="0.310" /></g>
  <g opacity="0.52"><rect x="1023" y="1070" width="768" height="768" rx="128" fill="none" stroke="#0C2030" stroke-width="90" /><path d="M1023 1582 L1572 1363 L2121 1582 L1572 2094 Z" fill="none" stroke="#0C2030" stroke-width="90" stroke-linejoin="round" /></g>
  <g filter="url(#soft325)"><rect x="987" y="1024" width="768" height="768" rx="128" fill="none" stroke="url(#symbol325)" stroke-width="90" /><path d="M987 1536 L1536 1317 L2085 1536 L1536 2048 Z" fill="none" stroke="url(#symbol325)" stroke-width="90" stroke-linejoin="round" /></g>
  <rect x="138" y="138" width="2796" height="2796" rx="629" fill="#FFFFFF" filter="url(#grain325)" opacity="0.18" />
</svg>
