<svg xmlns="http://www.w3.org/2000/svg" width="3072" height="3072" viewBox="0 0 3072 3072">
  <title>QuartzOS App Icon 086 - zen_mail_086</title>
  <defs><linearGradient id="bg85" x1="0%" y1="0%" x2="100%" y2="100%"><stop offset="0%" stop-color="#3B82FF" /><stop offset="26%" stop-color="#FF6AB3" /><stop offset="56%" stop-color="#FFD84D" /><stop offset="78%" stop-color="#2E8D96" /><stop offset="100%" stop-color="#0F2A2E" /></linearGradient><radialGradient id="sun85" cx="30%" cy="26%" r="88%"><stop offset="0%" stop-color="#FFFFFF" stop-opacity="0.62" /><stop offset="30%" stop-color="#53E3A6" stop-opacity="0.35" /><stop offset="100%" stop-color="#53E3A6" stop-opacity="0" /></radialGradient><linearGradient id="glass85" x1="0%" y1="0%" x2="0%" y2="100%"><stop offset="0%" stop-color="#FFFFFF" stop-opacity="0.70" /><stop offset="46%" stop-color="#FFFFFF" stop-opacity="0.26" /><stop offset="100%" stop-color="#FFFFFF" stop-opacity="0.00" /></linearGradient><linearGradient id="ribbon85" x1="0%" y1="0%" x2="100%" y2="0%"><stop offset="0%" stop-color="#3B82FF" stop-opacity="0.18" /><stop offset="34%" stop-color="#FF6AB3" stop-opacity="0.72" /><stop offset="66%" stop-color="#FFD84D" stop-opacity="0.72" /><stop offset="100%" stop-color="#53E3A6" stop-opacity="0.18" /></linearGradient><radialGradient id="orb85" cx="34%" cy="27%" r="74%"><stop offset="0%" stop-color="#FFFFFF" stop-opacity="0.84" /><stop offset="30%" stop-color="#3B82FF" stop-opacity="0.52" /><stop offset="68%" stop-color="#FF6AB3" stop-opacity="0.42" /><stop offset="100%" stop-color="#FFD84D" stop-opacity="0.20" /></radialGradient><linearGradient id="extrude85" x1="0%" y1="0%" x2="0%" y2="100%"><stop offset="0%" stop-color="#15283C" stop-opacity="0.45" /><stop offset="100%" stop-color="#08131D" stop-opacity="0.06" /></linearGradient><linearGradient id="symbol85" x1="0%" y1="0%" x2="100%" y2="100%"><stop offset="0%" stop-color="#FFFFFF" /><stop offset="100%" stop-color="#53E3A6" /></linearGradient><filter id="shadow85" x="-40%" y="-40%" width="180%" height="180%"><feDropShadow dx="0" dy="49" stdDeviation="86" flood-color="#06111A" flood-opacity="0.54" /></filter><filter id="soft85" x="-40%" y="-40%" width="180%" height="180%"><feDropShadow dx="0" dy="0" stdDeviation="14" flood-color="#3B82FF" flood-opacity="0.45" /></filter><filter id="grain85"><feTurbulence type="fractalNoise" baseFrequency="0.698" numOctaves="2" seed="85" /><feColorMatrix type="saturate" values="0" /><feComponentTransfer><feFuncA type="table" tableValues="0 0.09" /></feComponentTransfer></filter></defs>
  <rect x="138" y="138" width="2796" height="2796" rx="629" fill="url(#bg85)" filter="url(#shadow85)" />
  <rect x="138" y="138" width="2796" height="2796" rx="629" fill="url(#sun85)" />
  <g><circle cx="988" cy="2281" r="63" fill="#FFFFFF" opacity="0.163" /><circle cx="371" cy="2276" r="118" fill="#FFFFFF" opacity="0.099" /><circle cx="618" cy="1144" r="102" fill="#FFFFFF" opacity="0.163" /><circle cx="1092" cy="2165" r="131" fill="#FFFFFF" opacity="0.074" /><circle cx="917" cy="2329" r="101" fill="#FFFFFF" opacity="0.217" /><circle cx="1461" cy="885" r="141" fill="#FFFFFF" opacity="0.160" /><circle cx="1397" cy="1000" r="108" fill="#FFFFFF" opacity="0.102" /><circle cx="1726" cy="1874" r="143" fill="#FFFFFF" opacity="0.123" /><circle cx="1404" cy="819" r="74" fill="#FFFFFF" opacity="0.083" /><circle cx="2141" cy="1437" r="118" fill="#FFFFFF" opacity="0.161" /><circle cx="1819" cy="693" r="107" fill="#FFFFFF" opacity="0.111" /><circle cx="954" cy="2528" r="129" fill="#FFFFFF" opacity="0.201" /><circle cx="484" cy="849" r="102" fill="#FFFFFF" opacity="0.202" /><circle cx="2448" cy="2327" r="149" fill="#FFFFFF" opacity="0.194" /><circle cx="2367" cy="1863" r="73" fill="#FFFFFF" opacity="0.200" /><circle cx="2378" cy="1531" r="111" fill="#FFFFFF" opacity="0.151" /><circle cx="2438" cy="1442" r="103" fill="#FFFFFF" opacity="0.177" /><circle cx="2141" cy="1806" r="53" fill="#FFFFFF" opacity="0.102" /><circle cx="1966" cy="949" r="139" fill="#FFFFFF" opacity="0.220" /><circle cx="2679" cy="1009" r="127" fill="#FFFFFF" opacity="0.155" /><circle cx="2188" cy="2481" r="141" fill="#FFFFFF" opacity="0.132" /><circle cx="1427" cy="521" r="81" fill="#FFFFFF" opacity="0.117" /><circle cx="1051" cy="1317" r="79" fill="#FFFFFF" opacity="0.144" /><circle cx="1686" cy="768" r="82" fill="#FFFFFF" opacity="0.115" /><circle cx="2359" cy="2467" r="156" fill="#FFFFFF" opacity="0.096" /><circle cx="1691" cy="1668" r="154" fill="#FFFFFF" opacity="0.060" /><circle cx="2292" cy="1434" r="147" fill="#FFFFFF" opacity="0.171" /><circle cx="772" cy="842" r="92" fill="#FFFFFF" opacity="0.113" /></g>
  <g><path d="M 224.9 646.4 L 2738.2 369.9 L 2738.2 806.0 L 224.9 1082.5 Z" fill="#FFFFFF" opacity="0.162" /><path d="M 249.6 877.5 L 2825.2 601.0 L 2825.2 1074.1 L 249.6 1350.6 Z" fill="#FFFFFF" opacity="0.206" /><path d="M 204.9 1117.5 L 2772.0 841.0 L 2772.0 1303.3 L 204.9 1579.7 Z" fill="#FFFFFF" opacity="0.160" /><path d="M 252.5 1401.2 L 2816.7 1124.7 L 2816.7 1590.6 L 252.5 1867.1 Z" fill="#FFFFFF" opacity="0.120" /><path d="M 293.8 1688.8 L 2727.2 1412.3 L 2727.2 1850.3 L 293.8 2126.8 Z" fill="#FFFFFF" opacity="0.223" /><path d="M 351.6 1950.9 L 2824.6 1674.4 L 2824.6 2094.4 L 351.6 2370.9 Z" fill="#FFFFFF" opacity="0.173" /><path d="M 196.2 2167.4 L 2802.9 1890.9 L 2802.9 2360.6 L 196.2 2637.1 Z" fill="#FFFFFF" opacity="0.150" /><path d="M 268.2 2412.0 L 2849.9 2135.5 L 2849.9 2593.6 L 268.2 2870.1 Z" fill="#FFFFFF" opacity="0.168" /></g>
  <g filter="url(#soft85)"><g transform="rotate(-17.46 1536.0 1536.0)"><path d="M-368.6 485.8 C -225.8 550.6, -25.8 445.8, 107.5 538.1 C 250.4 558.0, 450.4 468.5, 583.7 509.2 C 726.5 502.6, 926.5 467.7, 1059.8 466.2 C 1202.7 469.7, 1402.7 498.6, 1536.0 435.1 C 1678.8 429.7, 1878.8 512.6, 2012.2 434.8 C 2155.0 454.1, 2355.0 507.2, 2488.3 465.4 C 2631.2 473.1, 2831.2 493.5, 2964.5 508.5 C 3107.3 512.0, 3307.3 476.3, 3440.6 537.8" fill="none" stroke="url(#ribbon85)" stroke-width="58.4" stroke-linecap="round" stroke-opacity="0.120" /></g><g transform="rotate(-16.88 1536.0 1536.0)"><path d="M-368.6 755.1 C -241.7 814.7, -63.9 715.3, 54.6 762.4 C 181.6 762.4, 359.4 747.4, 477.9 715.7 C 604.8 704.2, 782.6 771.4, 901.1 693.0 C 1028.1 691.7, 1205.9 824.7, 1324.4 707.8 C 1451.3 719.8, 1629.1 780.0, 1747.6 751.4 C 1874.6 750.5, 2052.4 758.8, 2170.9 797.2 C 2297.9 793.0, 2475.6 724.4, 2594.1 817.4 C 2721.1 799.2, 2898.9 681.9, 3017.4 799.8 C 3144.4 794.1, 3322.1 712.6, 3440.6 755.1" fill="none" stroke="url(#ribbon85)" stroke-width="54.4" stroke-linecap="round" stroke-opacity="0.146" /></g><g transform="rotate(-16.30 1536.0 1536.0)"><path d="M-368.6 874.6 C -254.4 827.6, -94.4 895.9, 12.3 884.9 C 126.6 885.6, 286.6 865.4, 393.2 931.0 C 507.5 917.0, 667.5 845.1, 774.1 942.9 C 888.4 916.3, 1048.4 798.5, 1155.1 913.3 C 1269.4 917.9, 1429.3 836.4, 1536.0 860.3 C 1650.3 863.7, 1810.3 885.8, 1916.9 815.9 C 2031.2 809.7, 2191.2 941.0, 2297.9 807.1 C 2412.1 801.0, 2572.1 938.8, 2678.8 839.2 C 2793.1 833.7, 2953.1 915.0, 3059.7 892.8 C 3174.0 899.7, 3334.0 863.2, 3440.6 935.3" fill="none" stroke="url(#ribbon85)" stroke-width="50.4" stroke-linecap="round" stroke-opacity="0.172" /></g><g transform="rotate(-15.72 1536.0 1536.0)"><path d="M-368.6 1112.0 C -264.8 1113.7, -119.3 1111.5, -22.3 1058.2 C 81.5 1067.2, 227.0 1134.3, 324.0 1035.5 C 427.8 1031.5, 573.3 1135.9, 670.3 1059.1 C 774.1 1078.0, 919.6 1175.2, 1016.6 1114.8 C 1120.4 1115.9, 1265.9 1110.9, 1362.9 1168.8 C 1466.7 1147.3, 1612.2 1044.0, 1709.1 1188.3 C 1813.0 1204.4, 1958.5 1027.1, 2055.4 1161.5 C 2159.3 1158.7, 2304.8 1087.3, 2401.7 1104.7 C 2505.6 1104.6, 2651.1 1115.4, 2748.0 1052.3 C 2851.9 1049.6, 2997.4 1136.8, 3094.3 1036.1 C 3198.2 1034.7, 3343.7 1171.1, 3440.6 1065.9" fill="none" stroke="url(#ribbon85)" stroke-width="46.4" stroke-linecap="round" stroke-opacity="0.198" /></g><g transform="rotate(-15.14 1536.0 1536.0)"><path d="M-368.6 1312.3 C -273.4 1310.1, -140.1 1316.2, -51.2 1369.8 C 44.0 1375.7, 177.4 1271.3, 266.2 1395.8 C 361.5 1401.8, 494.8 1250.3, 583.7 1371.2 C 678.9 1369.9, 812.2 1280.4, 901.1 1310.8 C 996.4 1310.5, 1129.7 1313.1, 1218.6 1251.3 C 1313.8 1266.2, 1447.1 1359.1, 1536.0 1228.8 C 1631.2 1217.5, 1764.6 1389.4, 1853.4 1256.9 C 1948.7 1277.5, 2082.0 1329.6, 2170.9 1318.6 C 2266.1 1319.9, 2399.4 1307.3, 2488.3 1376.5 C 2583.6 1378.8, 2716.9 1264.2, 2805.8 1395.4 C 2901.0 1373.0, 3034.3 1216.0, 3123.2 1363.9 C 3218.4 1347.7, 3351.8 1253.1, 3440.6 1301.1" fill="none" stroke="url(#ribbon85)" stroke-width="42.4" stroke-linecap="round" stroke-opacity="0.224" /></g><g transform="rotate(-14.56 1536.0 1536.0)"><path d="M-368.6 1490.9 C -225.8 1554.2, -25.8 1467.2, 107.5 1581.5 C 250.4 1579.3, 450.4 1391.9, 583.7 1556.2 C 726.5 1565.2, 926.5 1470.4, 1059.8 1491.2 C 1202.7 1491.3, 1402.7 1490.8, 1536.0 1426.1 C 1678.8 1404.2, 1878.8 1523.7, 2012.2 1400.3 C 2155.0 1375.4, 2355.0 1523.3, 2488.3 1429.4 C 2631.2 1429.7, 2831.2 1553.8, 2964.5 1495.9 C 3107.3 1497.5, 3307.3 1489.0, 3440.6 1559.3" fill="none" stroke="url(#ribbon85)" stroke-width="38.4" stroke-linecap="round" stroke-opacity="0.250" /></g><g transform="rotate(-13.98 1536.0 1536.0)"><path d="M-368.6 1695.2 C -241.7 1699.3, -63.9 1692.4, 54.6 1627.4 C 181.6 1615.3, 359.4 1753.4, 477.9 1597.5 C 604.8 1628.7, 782.6 1764.2, 901.1 1626.8 C 1028.1 1649.2, 1205.9 1746.8, 1324.4 1697.6 C 1451.3 1697.0, 1629.1 1692.6, 1747.6 1766.9 C 1874.6 1772.8, 2052.4 1641.5, 2170.9 1792.7 C 2297.9 1799.1, 2475.6 1650.2, 2594.1 1759.4 C 2721.1 1734.7, 2898.9 1618.5, 3017.4 1687.1 C 3144.4 1686.4, 3322.1 1702.7, 3440.6 1619.7" fill="none" stroke="url(#ribbon85)" stroke-width="34.4" stroke-linecap="round" stroke-opacity="0.276" /></g><g transform="rotate(-13.40 1536.0 1536.0)"><path d="M-368.6 1841.3 C -254.4 1793.8, -94.4 1864.0, 12.3 1886.2 C 126.6 1890.0, 286.6 1797.8, 393.2 1940.5 C 507.5 1947.6, 667.5 1731.7, 774.1 1934.6 C 888.4 1918.0, 1048.4 1767.3, 1155.1 1872.2 C 1269.4 1864.4, 1429.3 1820.3, 1536.0 1791.0 C 1650.3 1800.2, 1810.3 1872.0, 1916.9 1740.4 C 2031.2 1757.7, 2191.2 1948.3, 2297.9 1751.0 C 2412.1 1782.3, 2572.1 1899.1, 2678.8 1816.4 C 2793.1 1813.8, 2953.1 1868.5, 3059.7 1896.9 C 3174.0 1889.0, 3334.0 1787.9, 3440.6 1943.8" fill="none" stroke="url(#ribbon85)" stroke-width="30.4" stroke-linecap="round" stroke-opacity="0.302" /></g><g transform="rotate(-12.82 1536.0 1536.0)"><path d="M-368.6 2093.3 C -264.8 2006.4, -119.3 2141.1, -22.3 1990.2 C 81.5 1950.5, 227.0 2142.7, 324.0 2052.6 C 427.8 2048.3, 573.3 2126.7, 670.3 2139.6 C 774.1 2136.2, 919.6 2051.1, 1016.6 2198.6 C 1120.4 2172.9, 1265.9 2020.7, 1362.9 2193.7 C 1466.7 2154.9, 1612.2 2047.1, 1709.1 2127.9 C 1813.0 2126.7, 1958.5 2068.9, 2055.4 2041.1 C 2159.3 2058.9, 2304.8 2150.6, 2401.7 1986.0 C 2505.6 1988.4, 2651.1 2139.3, 2748.0 1996.0 C 2851.9 2003.9, 2997.4 2167.2, 3094.3 2065.0 C 3198.2 2070.2, 3343.7 2122.6, 3440.6 2151.2" fill="none" stroke="url(#ribbon85)" stroke-width="26.4" stroke-linecap="round" stroke-opacity="0.328" /></g><g transform="rotate(-12.24 1536.0 1536.0)"><path d="M-368.6 2230.0 C -273.4 2346.9, -140.1 2140.9, -51.2 2333.7 C 44.0 2303.2, 177.4 2132.9, 266.2 2260.6 C 361.5 2264.4, 494.8 2197.2, 583.7 2168.9 C 678.9 2154.1, 812.2 2285.1, 901.1 2114.3 C 996.4 2102.6, 1129.7 2316.2, 1218.6 2129.9 C 1313.8 2122.8, 1447.1 2290.0, 1536.0 2206.3 C 1631.2 2209.9, 1764.6 2239.0, 1853.4 2297.1 C 1948.7 2281.8, 2082.0 2204.5, 2170.9 2347.2 C 2266.1 2310.2, 2399.4 2106.0, 2488.3 2326.2 C 2583.6 2293.9, 2716.9 2155.0, 2805.8 2247.0 C 2901.0 2240.8, 3034.3 2213.6, 3123.2 2157.4 C 3218.4 2132.0, 3351.8 2253.0, 3440.6 2111.9" fill="none" stroke="url(#ribbon85)" stroke-width="22.4" stroke-linecap="round" stroke-opacity="0.354" /></g><g transform="rotate(-11.66 1536.0 1536.0)"><path d="M-368.6 2487.5 C -225.8 2555.4, -25.8 2433.3, 107.5 2437.9 C 250.4 2422.3, 450.4 2507.5, 583.7 2369.9 C 726.5 2352.9, 926.5 2626.1, 1059.8 2373.2 C 1202.7 2409.4, 1402.7 2527.6, 1536.0 2445.8 C 1678.8 2444.6, 1878.8 2524.4, 2012.2 2543.7 C 2155.0 2534.1, 2355.0 2444.7, 2488.3 2607.5 C 2631.2 2572.6, 2831.2 2445.4, 2964.5 2598.5 C 3107.3 2641.7, 3307.3 2441.5, 3440.6 2522.1" fill="none" stroke="url(#ribbon85)" stroke-width="18.4" stroke-linecap="round" stroke-opacity="0.380" /></g><g transform="rotate(-11.08 1536.0 1536.0)"><path d="M-368.6 2703.6 C -241.7 2741.9, -63.9 2681.2, 54.6 2826.1 C 181.6 2804.2, 359.4 2580.0, 477.9 2826.1 C 604.8 2868.4, 782.6 2640.8, 901.1 2751.8 C 1028.1 2744.3, 1205.9 2676.3, 1324.4 2648.2 C 1451.3 2640.5, 1629.1 2769.5, 1747.6 2578.3 C 1874.6 2607.7, 2052.4 2780.1, 2170.9 2584.3 C 2297.9 2558.3, 2475.6 2790.9, 2594.1 2662.7 C 2721.1 2676.3, 2898.9 2734.6, 3017.4 2765.9 C 3144.4 2777.0, 3322.1 2634.8, 3440.6 2831.3" fill="none" stroke="url(#ribbon85)" stroke-width="14.4" stroke-linecap="round" stroke-opacity="0.406" /></g></g>
  <g><ellipse cx="1536.0" cy="1551.9" rx="728.6" ry="605.7" fill="url(#extrude85)" opacity="0.220" /><ellipse cx="1536.0" cy="1567.7" rx="736.0" ry="610.9" fill="url(#extrude85)" opacity="0.205" /><ellipse cx="1536.0" cy="1583.6" rx="743.4" ry="616.1" fill="url(#extrude85)" opacity="0.190" /><ellipse cx="1536.0" cy="1599.5" rx="750.9" ry="621.3" fill="url(#extrude85)" opacity="0.175" /><ellipse cx="1536.0" cy="1615.4" rx="758.3" ry="626.5" fill="url(#extrude85)" opacity="0.160" /><ellipse cx="1536.0" cy="1631.2" rx="765.7" ry="631.7" fill="url(#extrude85)" opacity="0.145" /><ellipse cx="1536.0" cy="1647.1" rx="773.2" ry="636.9" fill="url(#extrude85)" opacity="0.130" /><ellipse cx="1536.0" cy="1663.0" rx="780.6" ry="642.1" fill="url(#extrude85)" opacity="0.115" /><ellipse cx="1536.0" cy="1678.8" rx="788.0" ry="647.4" fill="url(#extrude85)" opacity="0.100" /><ellipse cx="1536.0" cy="1694.7" rx="795.5" ry="652.6" fill="url(#extrude85)" opacity="0.085" /><ellipse cx="1536.0" cy="1710.6" rx="802.9" ry="657.8" fill="url(#extrude85)" opacity="0.070" /><ellipse cx="1536.0" cy="1726.5" rx="810.3" ry="663.0" fill="url(#extrude85)" opacity="0.055" /></g>
  <ellipse cx="1536.0" cy="1726.5" rx="773.2" ry="214.9" fill="#0B1D2D" opacity="0.24" />
  <ellipse cx="1536.0" cy="1536.0" rx="743.4" ry="651.3" fill="url(#orb85)" stroke="#FFFFFF" stroke-opacity="0.42" stroke-width="7" />
  <ellipse cx="1431.9" cy="1392.7" rx="505.5" ry="299.6" fill="#FFFFFF" opacity="0.25" />
  <path d="M 199.4 399.4 C 1013.8 -30.7, 2058.2 768.0, 2872.6 215.0 L 2872.6 983.0 C 2089.0 1228.8, 1013.8 307.2, 199.4 1167.4 Z" fill="url(#glass85)" />
  <rect x="270" y="270" width="2532" height="2532" rx="430" fill="none" stroke="#FFFFFF" stroke-opacity="0.30" stroke-width="5" />
  <rect x="288.4" y="288.4" width="2495.1" height="2495.1" rx="399" fill="none" stroke="#3B82FF" stroke-opacity="0.35" stroke-width="3" />
  <g filter="url(#soft85)"><rect x="1789" y="370" width="40" height="2" fill="#FFFFFF" opacity="0.634" /><rect x="1808" y="351" width="2" height="40" fill="#FFFFFF" opacity="0.634" /><rect x="2560" y="875" width="34" height="2" fill="#FFFFFF" opacity="0.446" /><rect x="2576" y="859" width="2" height="34" fill="#FFFFFF" opacity="0.446" /><rect x="1942" y="747" width="74" height="2" fill="#FFFFFF" opacity="0.842" /><rect x="1978" y="711" width="2" height="74" fill="#FFFFFF" opacity="0.842" /><rect x="667" y="720" width="78" height="2" fill="#FFFFFF" opacity="0.304" /><rect x="705" y="682" width="2" height="78" fill="#FFFFFF" opacity="0.304" /><rect x="2113" y="743" width="34" height="2" fill="#FFFFFF" opacity="0.508" /><rect x="2129" y="727" width="2" height="34" fill="#FFFFFF" opacity="0.508" /><rect x="492" y="664" width="50" height="2" fill="#FFFFFF" opacity="0.565" /><rect x="516" y="640" width="2" height="50" fill="#FFFFFF" opacity="0.565" /><rect x="1044" y="255" width="40" height="2" fill="#FFFFFF" opacity="0.589" /><rect x="1063" y="236" width="2" height="40" fill="#FFFFFF" opacity="0.589" /><rect x="1239" y="1616" width="60" height="2" fill="#FFFFFF" opacity="0.441" /><rect x="1268" y="1587" width="2" height="60" fill="#FFFFFF" opacity="0.441" /><rect x="2307" y="2491" width="28" height="2" fill="#FFFFFF" opacity="0.603" /><rect x="2320" y="2478" width="2" height="28" fill="#FFFFFF" opacity="0.603" /><rect x="1401" y="2438" width="24" height="2" fill="#FFFFFF" opacity="0.661" /><rect x="1412" y="2427" width="2" height="24" fill="#FFFFFF" opacity="0.661" /><rect x="2157" y="1560" width="60" height="2" fill="#FFFFFF" opacity="0.396" /><rect x="2186" y="1531" width="2" height="60" fill="#FFFFFF" opacity="0.396" /><rect x="484" y="2408" width="84" height="2" fill="#FFFFFF" opacity="0.378" /><rect x="525" y="2367" width="2" height="84" fill="#FFFFFF" opacity="0.378" /><rect x="1736" y="1069" width="76" height="2" fill="#FFFFFF" opacity="0.705" /><rect x="1773" y="1032" width="2" height="76" fill="#FFFFFF" opacity="0.705" /><rect x="2650" y="1955" width="36" height="2" fill="#FFFFFF" opacity="0.567" /><rect x="2667" y="1938" width="2" height="36" fill="#FFFFFF" opacity="0.567" /><rect x="340" y="772" width="80" height="2" fill="#FFFFFF" opacity="0.316" /><rect x="379" y="733" width="2" height="80" fill="#FFFFFF" opacity="0.316" /><rect x="957" y="1657" width="62" height="2" fill="#FFFFFF" opacity="0.720" /><rect x="987" y="1627" width="2" height="62" fill="#FFFFFF" opacity="0.720" /><rect x="322" y="1626" width="24" height="2" fill="#FFFFFF" opacity="0.828" /><rect x="333" y="1615" width="2" height="24" fill="#FFFFFF" opacity="0.828" /><rect x="1531" y="2031" width="42" height="2" fill="#FFFFFF" opacity="0.392" /><rect x="1551" y="2011" width="2" height="42" fill="#FFFFFF" opacity="0.392" /><rect x="623" y="1570" width="72" height="2" fill="#FFFFFF" opacity="0.302" /><rect x="658" y="1535" width="2" height="72" fill="#FFFFFF" opacity="0.302" /><rect x="677" y="1592" width="54" height="2" fill="#FFFFFF" opacity="0.642" /><rect x="703" y="1566" width="2" height="54" fill="#FFFFFF" opacity="0.642" /><rect x="2212" y="2160" width="56" height="2" fill="#FFFFFF" opacity="0.565" /><rect x="2239" y="2133" width="2" height="56" fill="#FFFFFF" opacity="0.565" /><rect x="1624" y="731" width="58" height="2" fill="#FFFFFF" opacity="0.416" /><rect x="1652" y="703" width="2" height="58" fill="#FFFFFF" opacity="0.416" /><rect x="1774" y="878" width="52" height="2" fill="#FFFFFF" opacity="0.659" /><rect x="1799" y="853" width="2" height="52" fill="#FFFFFF" opacity="0.659" /><rect x="2214" y="1349" width="32" height="2" fill="#FFFFFF" opacity="0.537" /><rect x="2229" y="1334" width="2" height="32" fill="#FFFFFF" opacity="0.537" /><rect x="2406" y="1863" width="32" height="2" fill="#FFFFFF" opacity="0.633" /><rect x="2421" y="1848" width="2" height="32" fill="#FFFFFF" opacity="0.633" /><rect x="1682" y="2234" width="42" height="2" fill="#FFFFFF" opacity="0.433" /><rect x="1702" y="2214" width="2" height="42" fill="#FFFFFF" opacity="0.433" /></g>
  <g opacity="0.52"><rect x="1023" y="1070" width="768" height="768" rx="128" fill="none" stroke="#0C2030" stroke-width="90" /><path d="M1023 1582 L1572 1363 L2121 1582 L1572 2094 Z" fill="none" stroke="#0C2030" stroke-width="90" stroke-linejoin="round" /></g>
  <g filter="url(#soft85)"><rect x="987" y="1024" width="768" height="768" rx="128" fill="none" stroke="url(#symbol85)" stroke-width="90" /><path d="M987 1536 L1536 1317 L2085 1536 L1536 2048 Z" fill="none" stroke="url(#symbol85)" stroke-width="90" stroke-linejoin="round" /></g>
  <rect x="138" y="138" width="2796" height="2796" rx="629" fill="#FFFFFF" filter="url(#grain85)" opacity="0.18" />
</svg>
